<svg height="22" viewBox="0 0 16 16" width="22" xmlns="http://www.w3.org/2000/svg"><path d="m11.972047 2.1818182c-2.460426 0-2.9233871 3.3246753-1.537662 3.3246753 1.383064 0 3.999584-3.3246753 1.537662-3.3246753zm-3.7811533.8311688c-.039065 0-.082286.00416-.1255065.00831-1.4088312.1695601-.9142857 2.4428069-.1637403 2.4851965.7256104.0415584 1.5202078-2.4868572.290078-2.4935065zm-2.5683117.8311688c-.1005714-.0041558-.2127792.0091429-.3366234.0407273-1.3182337.3332987-.2003117 1.7097143.5377663 1.6166234.669922-.0839481.7671688-1.6182857-.2011429-1.6573507zm-1.8377143 1.6623377c-.1180259-.0016623-.2460259.0241039-.3815065.0872727-1.0838441.512.3657143 1.7471169 1.0032208 1.5559481.5577143-.1678961.201974-1.6241039-.6217143-1.6432208zm5.0551689.8311688c-1.9399481-.0307532-4.4982858.8851948-4.9354806 2.7254025-.4721039 1.9923122 1.9474286 4.7551172 4.4691948 4.7551172 1.2409351 0 2.6723742-.557714 2.9400102-1.894234.203636-1.019013-2.5693089-.580156-2.4753868.09392.1122078.808728-.467948.679896-1.1952208.158754-2.1361039-1.683115 3.8318546-2.4860242 3.4270756-4.752622-.125507-.7056624-1.06639-1.0663896-2.2301924-1.0846753z" fill="#5c616c" stroke-width=".831169"/></svg>