<svg height="12pt" viewBox="0 0 12 12" width="12pt" xmlns="http://www.w3.org/2000/svg"><path d="m1.910156 1.636719-.226562.117187-.027344.253906.191406.167969.0625.007813h.542969l.226563-.121094.027343-.253906-.191406-.164063-.058594-.007812zm1.636719 0-.226563.117187-.027343.253906.191406.167969.0625.007813h.542969l.226562-.121094.027344-.253906-.191406-.164063-.058594-.007812zm1.636719 0-.226563.117187-.027343.253906.191406.167969.0625.007813h.542968l.226563-.121094.027344-.253906-.191407-.164063-.0625-.007812zm1.636718 0-.226562.117187-.027344.253906.191406.167969.058594.007813h.546875l.226563-.121094.027344-.253906-.191407-.164063-.0625-.007812zm1.636719 0-.226562.117187-.027344.253906.191406.167969.058594.007813h.546875l.226562-.121094.027344-.253906-.191406-.164063-.0625-.007812zm1.632813.273437-.273438.542969.121094.226563.253906.027343.164063-.191406.007812-.0625zm-8.28125.835938-.167969.191406-.003906.0625v.546875l.117187.222656.253906.03125.167969-.195312.003907-.058594v-.546875l-.117188-.226562zm1.464844.527344v1.089843h3.273437v-1.089843zm6.71875.019531-.167969.191406-.007813.0625v.542969l.121094.226562.253906.027344.164063-.191406.007812-.0625v-.542969l-.121093-.226563zm-8.183594 1.089843-.167969.191407-.003906.0625v.546875l.117187.222656.253906.027344.167969-.191406.003907-.058594v-.546875l-.117188-.226563zm8.183594.546876-.167969.191406-.007813.0625v.542968l.121094.226563.253906.027344.164063-.191407.007812-.0625v-.542968l-.121093-.226563zm-5.628907.523437v1.09375h3.273438v-1.09375zm-2.554687.566406-.167969.191407-.003906.0625v.542968l.117187.226563.253906.027343.167969-.191406.003907-.0625v-.542968l-.117188-.226563zm8.183594.546875-.167969.191406-.007813.058594v.546875l.121094.226563.253906.027344.164063-.191407.007812-.0625v-.546875l-.121093-.222656zm-4.539063 1.070313v1.089843h3.273437v-1.089843zm-3.644531.019531-.167969.191406-.003906.0625v.542969l.117187.226563.253906.027343.167969-.191406.003907-.0625v-.542969l-.117188-.226562zm8.183594.542969-.167969.195312-.007813.058594v.546875l.121094.226562.253906.027344.164063-.191406.007812-.0625v-.546875l-.121093-.222656zm-8.183594 1.09375-.167969.191406-.003906.0625.273437.542969.273438-.542969-.121094-.226563zm1.195312.523437-.230468.121094-.027344.253906.191406.164063.066406.007812h.542969l.226563-.117187.027343-.253906-.191406-.167969-.0625-.007813zm1.636719 0-.230469.121094-.03125.253906.195313.164063.066406.007812h.542969l.226562-.117187.027344-.253906-.191406-.167969-.0625-.007813zm1.636719 0-.230469.121094-.03125.253906.195313.164063.066406.007812h.542968l.226563-.117187.027344-.253906-.191407-.167969-.0625-.007813zm1.636718 0-.230468.121094-.03125.253906.195312.164063.066406.007812h.542969l.226563-.117187.027344-.253906-.191407-.167969-.0625-.007813zm1.632813 0-.226563.121094-.03125.253906.195313.164063.0625.007812.546875-.273437zm0 0" fill="#5c616c"/></svg>