<svg height="12pt" viewBox="0 0 12 12" width="12pt" xmlns="http://www.w3.org/2000/svg"><path d="m7.597656 1.609375c-.597656.015625-1.144531-.023437-1.757812.136719-1.039063.433594-1.644532 1.394531-1.917969 2.4375-.019531.085937-.140625.429687-.140625.855468v1.5625c-.03125.847657-.632812 1.367188-1.261719 1.835938-.292969.207031-.597656.386719-.882812.601562v1.296876c1.621093-.003907 2.335937-.011719 3.421875-.007813.875-1.34375 1.457031-2.289063 1.472656-3.683594v-1.605469c.035156-.339843.164062-.699218.441406-.730468.484375-.027344.878906.113281 1.140625.277344.144531.09375.464844.296874.964844.296874h1.285156v-2.730468h-.621093c-.441407.035156-.785157-.261719-1.1875-.40625-.199219-.050782-.542969-.136719-.957032-.136719zm0 0" fill="#5c616c"/></svg>