<svg height="12pt" viewBox="0 0 12 12" width="12pt" xmlns="http://www.w3.org/2000/svg" xmlns:xlink="http://www.w3.org/1999/xlink"><filter id="a" height="100%" width="100%" x="0%" y="0%"><feColorMatrix in="SourceGraphic" type="matrix" values="0 0 0 0 1 0 0 0 0 1 0 0 0 0 1 0 0 0 1 0"/></filter><mask id="b"><g filter="url(#a)"><path d="m0 0h12v12h-12z" fill-opacity=".301961"/></g></mask><clipPath id="c"><path d="m0 0h12v12h-12z"/></clipPath><path d="m6 1.636719c-2.410156 0-4.363281 1.953125-4.363281 4.363281s1.953125 4.363281 4.363281 4.363281 4.363281-1.953125 4.363281-4.363281-1.953125-4.363281-4.363281-4.363281zm0 .546875c2.109375 0 3.816406 1.707031 3.816406 3.816406s-1.707031 3.816406-3.816406 3.816406-3.816406-1.707031-3.816406-3.816406 1.707031-3.816406 3.816406-3.816406zm0 0" fill="#5c616c"/><g clip-path="url(#c)" mask="url(#b)"><path d="m1.65625 5.597656c0 .011719 0 .027344-.003906.039063.003906-.011719.003906-.019531.003906-.03125 0-.003907 0-.003907 0-.007813zm.535156.644532c.125 2.011718 1.792969 3.574218 3.808594 3.574218 2.011719 0 3.675781-1.5625 3.804688-3.570312-.75.503906-2.175782.84375-3.804688.84375-1.632812 0-3.0625-.339844-3.808594-.847656zm8.152344.132812c-.007812.082031-.015625.164062-.027344.246094.011719-.082032.019532-.164063.027344-.246094zm-8.683594.070312c.019532.191407.054688.378907.101563.566407-.046875-.1875-.082031-.371094-.101563-.566407zm.101563.566407c.011719.050781.023437.101562.035156.152343-.011719-.050781-.023437-.101562-.035156-.152343zm.035156.152343c.050781.179688.109375.359376.183594.535157-.074219-.171875-.132813-.355469-.183594-.535157zm8.492187-.371093c-.015624.085937-.035156.175781-.058593.261719.023437-.085938.042969-.175782.058593-.261719zm-.101562.425781c-.023438.085938-.050781.167969-.082031.25.027343-.082031.058593-.164062.082031-.25zm-.140625.410156c-.035156.085938-.074219.167969-.113281.253906.039062-.085937.078125-.167968.113281-.253906zm-8.066406.070313c.058593.132812.121093.265625.1875.390625-.066407-.125-.132813-.257813-.1875-.390625zm7.890625.3125c-.042969.078125-.085938.15625-.132813.230469.046875-.074219.089844-.152344.132813-.230469zm-7.644532.171875c.050782.085937.101563.179687.160157.261718-.054688-.085937-.109375-.171874-.160157-.261718zm7.414063.214844c-.039063.0625-.082031.121093-.125.179687.042969-.058594.085937-.117187.125-.179687zm-7.125.222656c.042969.058594.085937.113281.132813.167968-.046876-.054687-.085938-.113281-.128907-.167968zm6.875.125c-.046875.054687-.097656.109375-.148437.164062.050781-.054687.101562-.109375.148437-.164062zm-6.597656.207031c.046875.050781.09375.101563.140625.148437-.046875-.046874-.09375-.097656-.140625-.148437zm6.308593.113281c-.046874.046875-.097656.09375-.148437.140625.050781-.046875.101563-.09375.148437-.140625zm-6.011718.175782c.054687.050781.109375.101562.164062.148437-.054687-.046875-.109375-.097656-.164062-.148437zm5.699218.113281c-.054687.042969-.109374.085937-.167968.128906.054687-.042969.113281-.085937.167968-.128906zm-5.367187.160156c.058594.042969.117187.085937.179687.125-.0625-.039063-.121093-.082031-.179687-.125zm5.023437.097656c-.085937.054688-.171874.109375-.261718.160157.085937-.050782.179687-.101563.261718-.160157zm-4.6875.125c.074219.046875.152344.089844.230469.132813-.078125-.042969-.15625-.085938-.230469-.132813zm.359376.195313c.085937.039062.167968.078125.253906.113281-.085938-.035156-.167969-.074219-.253906-.113281zm3.582031.085937c-.171875.074219-.351563.128907-.535157.179688.183594-.046875.359376-.105469.535157-.179688zm-.535157.179688c-.050781.015625-.101562.03125-.152343.042969.050781-.011719.101562-.027344.152343-.042969zm-.152343.042969c-.1875.042968-.371094.078124-.566407.097656.191407-.019532.378907-.054688.566407-.097656zm-2.480469-.136719c.082031.027343.164062.058593.25.082031-.085938-.023438-.167969-.050781-.25-.082031zm.414062.125c.085938.023437.175782.042969.261719.058593-.085937-.015624-.175781-.035156-.261719-.058593zm.433594.085937c.082032.011719.164063.019532.246094.027344-.082031-.007812-.164062-.015625-.246094-.027344zm0 0" fill="#5c616c"/></g></svg>