<svg height="12pt" viewBox="0 0 12 12" width="12pt" xmlns="http://www.w3.org/2000/svg"><path d="m6 2.183594c-2.109375 0-3.816406 1.707031-3.816406 3.816406s1.707031 3.816406 3.816406 3.816406 3.816406-1.707031 3.816406-3.816406-1.707031-3.816406-3.816406-3.816406zm0 1.089844c1.507812 0 2.726562 1.21875 2.726562 2.726562s-1.21875 2.726562-2.726562 2.726562-2.726562-1.21875-2.726562-2.726562 1.21875-2.726562 2.726562-2.726562zm.050781.542968c-1.203125 0-2.179687.980469-2.179687 2.183594s.976562 2.183594 2.179687 2.183594c1.207031 0 2.183594-.980469 2.183594-2.183594 0-1.132812-.867187-2.074219-1.996094-2.171875-.238281-.011719-.1875-.011719-.1875-.011719zm0 .546875c.90625 0 1.636719.734375 1.636719 1.636719s-.730469 1.636719-1.636719 1.636719c-.902343 0-1.636719-.734375-1.636719-1.636719s.734376-1.636719 1.636719-1.636719zm0 .546875c-.601562 0-1.089843.484375-1.089843 1.089844s.488281 1.089844 1.089843 1.089844c.605469 0 1.09375-.484375 1.09375-1.089844 0-.113281-.023437-.21875-.054687-.320312-.085938.1875-.273438.320312-.492188.320312-.300781 0-.546875-.242188-.546875-.546875 0-.21875.132813-.40625.320313-.492187-.101563-.03125-.207032-.050782-.320313-.050782zm0 0" fill="#5c616c"/></svg>