<svg height="12pt" viewBox="0 0 12 12" width="12pt" xmlns="http://www.w3.org/2000/svg"><path d="m5.453125 2.183594v.589844c-.484375.085937-.945313.277343-1.347656.5625l-.417969-.421876-.773438.773438.421876.417969c-.285157.402343-.476563.863281-.558594 1.347656h-.59375v1.09375h.589844c.085937.484375.277343.945313.5625 1.347656l-.421876.417969.773438.773438.417969-.421876c.402343.285157.863281.476563 1.347656.558594v.59375h1.09375v-.589844c.484375-.085937.945313-.277343 1.347656-.5625l.417969.421876.773438-.773438-.421876-.417969c.285157-.402343.476563-.863281.558594-1.347656h.59375v-1.09375h-.589844c-.085937-.484375-.277343-.945313-.5625-1.347656l.421876-.417969-.773438-.773438-.417969.421876c-.402343-.285157-.863281-.476563-1.347656-.558594v-.59375zm-.542969 2.179687h2.179688v.546875h-2.179688zm0 1.089844h2.179688v.546875h-2.179688zm0 1.09375h2.179688v.542969h-2.179688zm0 0" fill="#5c616c"/></svg>