<svg height="12pt" viewBox="0 0 12 12" width="12pt" xmlns="http://www.w3.org/2000/svg"><path d="m7.410156 2.484375-.730468 1.371094h-5.042969v4.289062h2.757812l-.523437.988281.71875.382813.730468-1.371094h5.042969v-4.289062h-2.757812l.523437-.988281zm-5.355468 1.660156h4.46875l-.269532.511719h-.066406v.125l-.796875 1.492188v-.835938h-.414063v1.613281l-.425781.804688h-2.496093zm5.394531 0h2.496093v3.710938h-4.46875l.710938-1.335938v.789063h.414062v-1.566406zm-2.261719.59375c-.070312 0-.128906.015625-.175781.046875-.042969.027344-.066407.078125-.066407.144532 0 .070312.023438.117187.066407.148437.046875.03125.105469.050781.175781.050781.066406 0 .121094-.019531.167969-.050781.050781-.03125.074219-.082031.074219-.148437 0-.03125-.007813-.0625-.019532-.085938-.011718-.023438-.03125-.042969-.054687-.058594-.019531-.015625-.046875-.027344-.078125-.035156-.027344-.007812-.058594-.011719-.089844-.011719zm-2.449219.078125v2.492188h.425781v-1.054688h1.214844v-.277344h-1.214844v-.878906h1.304688v-.28125zm5.550781.585938c-.152343 0-.292968.023437-.417968.066406-.128906.046875-.234375.109375-.328125.195312-.089844.085938-.160157.1875-.210938.308594s-.074219.257813-.074219.414063c0 .152343.027344.289062.082032.410156.054687.117187.132812.21875.230468.300781.101563.078125.21875.140625.355469.183594.140625.042969.292969.0625.457031.0625.078126 0 .148438-.003906.214844-.007812.066406-.003907.128906-.011719.191406-.019532.0625-.011718.121094-.023437.179688-.042968.058594-.015626.117188-.03125.179688-.054688v-.277344c-.058594.023438-.117188.039063-.175782.058594-.058594.015625-.117187.027344-.179687.039062-.058594.011719-.125.019532-.191407.023438-.0625.007812-.136718.007812-.214843.007812-.226563 0-.402344-.050781-.515625-.152343-.117188-.105469-.179688-.265625-.1875-.484375h1.578125v-.191406c0-.125-.023438-.238282-.070313-.34375-.042968-.101563-.105468-.191407-.191406-.261719-.082031-.074219-.183594-.132813-.304688-.171875-.121093-.039063-.253906-.0625-.40625-.0625zm-.007812.257812c.09375 0 .175781.011719.242188.039063.066406.023437.121093.058593.164062.105469.042969.042968.074219.097656.09375.164062.023438.0625.035156.136719.035156.210938h-1.121094c.015626-.167969.074219-.296876.175782-.386719.101562-.089844.238281-.132813.410156-.132813zm0 0" fill="#5c616c"/></svg>