<svg height="12pt" viewBox="0 0 12 12" width="12pt" xmlns="http://www.w3.org/2000/svg"><path d="m3.546875 2.183594c-.753906 0-1.363281.609375-1.363281 1.363281 0 .648437.453125 1.203125 1.089844 1.335937v2.183594c-.636719.128906-1.089844.6875-1.089844 1.332032 0 .753906.609375 1.367187 1.363281 1.367187.75 0 1.363281-.613281 1.363281-1.367187 0-.644532-.457031-1.203126-1.09375-1.335938v-2.183594c.214844-.042968.414063-.136718.582032-.269531l.664062.496094c-.101562.191406-.152344.40625-.152344.621093 0 .753907.609375 1.363282 1.363282 1.363282.753906 0 1.363281-.609375 1.363281-1.363282 0-.753906-.609375-1.363281-1.363281-1.363281-.324219 0-.636719.117188-.882813.324219l-.648437-.484375c.109374-.203125.167968-.429687.167968-.65625 0-.753906-.613281-1.363281-1.363281-1.363281zm4.363281 4.363281-.121094.101563-1.789062 1.535156h1.089844v1.632812h1.636718v-1.632812h1.089844l-1.789062-1.535156zm0 0" fill="#5c616c"/></svg>