<svg height="12pt" viewBox="0 0 12 12" width="12pt" xmlns="http://www.w3.org/2000/svg"><path d="m4.910156 2.183594-2.726562 7.632812h1.363281l.578125-1.632812h1.890625c.097656-.859375.761719-1.546875 1.617187-1.671875l-1.632812-4.328125zm.542969 2.179687.957031 2.726563h-1.910156zm2.457031 2.183594v.464844c-.753906 0-1.363281.628906-1.363281 1.402343 0 .777344.609375 1.402344 1.363281 1.402344.746094 0 1.347656-.613281 1.363282-1.378906 0-.007812 0-.015625 0-.023438 0-.128906-.101563-.230468-.226563-.230468-.0625-.003906-.121094.023437-.160156.066406-.042969.042969-.070313.101562-.070313.164062 0 .519532-.40625.9375-.90625.9375-.503906 0-.910156-.417968-.910156-.9375 0-.515624.40625-.933593.910156-.933593v.46875l.90625-.703125zm0 0" fill="#5c616c"/></svg>