<svg height="24" viewBox="0 0 24 24" width="24" xmlns="http://www.w3.org/2000/svg"><g transform="translate(0 -1028.3622)"><path d="m22 1040.8622c0 5.5228-4.477172 10-9.999999 10-5.522858 0-10.000001-4.4772-10.000001-10s4.477143-10 10.000001-10c5.522827 0 9.999999 4.4772 9.999999 10z" opacity=".2"/><path d="m20.706038 1040.412c0 2.5571.334155 4.8403-1.24485 6.6085-1.831301 2.0507-4.495483 3.3417-7.461188 3.3417-5.522857 0-10-4.4771-10-10 0-5.5228 4.477143-10 10-10 .18175 0 .594617.1044.77398.114 2.500188.1335 3.960292 2.0977 5.641638 3.7367 1.863288 1.8163 2.29042 3.3915 2.29042 6.1991z" fill="#336f33"/><path d="m12.079102 1030.8642c-.05742.022-.111731.038-.160156.043 1.09905.014-.719795.1541-1.115235.1924-.36977.1998-1.173877.4499-.334961-.039-.433216-.029-.5301195.087-.6015625.2266-.00707 0-.00837.01-.00586.011-.01343.027-.026825.053-.041015.081-.3012765.018-1.1137695.6515-.3183595.3564-.2467885.1834-.9938935.5724-.262695.3272.1581075-.01.307555-.054.458984-.095.720072-.4613 1.77333-.2986 2.308594-.3701.03477-.01.07817-.01.120117-.01.01107.01.02188.01.03223 0 .446188.01 1.192998.3849 1.257812.4316-.82602.1371.867993.5184 1.114258.5391.575755-.1839-.182292.052.341797.1523-.27975.2569.545881-.1113.459961.039 1.21877.3541-1.197951-.1489-.245117.2812.561118-.1537.256932.2833.618164.5391-.310912.059.553522.5503-.06152.4111.639331.1158.630021 1.0788.173829.5371.319079-.6043-.722348-.1056-.779297.041-.218207.4119.477714 1.0932.339844 1.4112-.02702.4288.0992.364.454102.7314.03623-.7205.398866.052.748046-.022.03441-.7198-.983184-.9656-.868164-1.6123.30275.3164.698512.9533.944336.3037-.09471.2747.04625.4538.165039.6377-.160651.191.493472.5265-.01758.7764-.06764.2669-.235636.2537-.393555.1631.00095-.051-.03435-.1377-.07813-.054-.09288-.071-.177931-.1539-.219726-.2217.04006.4182.551126.4875.154297.915.290547.6116-.947737 1.1256.07226 1.2393.527849.7225-1.116693.5638-.383789 1.3691.151904.9237 1.489858.076.980469-.6377.04532-.6491.426645-1.1857 1.149414-.872.441284.2541.487948.2459.31836-.1836-.487031.1783-1.256903-.6508-.356446-.3194.508889-.014.89509.5658 1.06836.4258-.0377-.083-.09136-.1673-.143555-.2519.02805 0 .05817.01.125-.01-.04892-.08-.116612-.068-.152344-.042-.107996-.185-.175265-.3677.06348-.5274-.225049-.3656-.817754-1.3117-.188477-1.0664-.05357-.08-.326376-.9258.01172-.3135.395049-.159.912861.3557.332032.6172-.369836.5465.08655 1.7839.575195.7862.05849-.5786.740311.8112.291992 1.0039-.2731.4267-.912702.4039-.638672 1.0644-.514368.033-1.140649.3953-1.209961-.3408-.653557.3312-1.085348 1.0447-1.667968 1.3271-.112064.8485-.444051 1.4937-.774414 2.3223-.210991.5234.277695 1.0421.04395 1.583.19622.2338.729412.7952 1.319336.9014.690646-.055 1.268374-.7052 1.815429-1.0527.33185.2179.830527-.5134.694336.3554-.20513.4918.703255.8258.148438 1.4102-.04805.096-.126303.3125-.201172.5156 1.465248-1.6941 2.374257-3.8809 2.433594-6.2822-.13256-5.3805-4.512569-9.706-9.915037-9.7481v-.0009zm-1.719727.1572h-.02539zm-.04883.011-.06641.013zm-.07227.016-.02735.01zm-.7548805.252-.029297.01zm-.125.035-.066406.015zm-.6083945.1772-.063477.023zm-.100586.027-.02832.015zm3.332032.1348c-.01656-.01-.05693-.01-.132813.023.02237.1113.182483 0 .132813-.023zm-3.710938.024-.01758.012zm2.118164.019c-.0096 0-.03293 0-.0791.025.0094.067.108006-.017.0791-.025zm1.563477.029.0332.019zm-.579102.017c-.143016-.01.140429.1307.305664.071-.162453-.049-.257992-.068-.305664-.071zm-3.2851565.017h-.00976zm3.8671875.015c-.241105 0 .02231.226.174805.057l-.03808-.041c-.05683-.011-.102275-.015-.136719-.015v-.001zm.220703.06.0019.034zm-4.2792965.04c.000244 0-.00927.0001-.03711.017-.052454.041.036375-.012.03711-.017zm-.061523.031-.033205.027zm5.40332.017c-.03479 0-.07762.062.02637.034-.0041-.024-.01477-.033-.02637-.034zm-5.470703.019.0049.012zm2.1669925.047c-.232472.065.054467.1541 0 0zm-2.279297.04-.040039.04zm-.068359.048-.064453.044zm.4628905.2148c-.02716-.012-.090401 0-.1083985.066.126641-.02.1355595-.054.1083985-.066zm5.1337895.015c-.04539.011-.05037.055-.02246.078-.07755.02.07672.2585.166015.077-.04413-.033-.07929-.054-.106445-.066.02862 0 .06259-.017.105469-.053-.06643-.037-.112868-.044-.142578-.036zm-4.5371095 0v .001c-.1002025 0-.555452.4111-.5478515.049-.3821505.1365-.83523.5425-.953125.3066-.097869.4117.6311275.3243.1054685.499.2874535.1975-.670648.8579-.4091795.8711-.01378.011-.020945.019-.03418.029-.0615-.01-.245804.037-.173828.1006.074003-.024.084739-.035.1152345-.051-.460567.3784-.593916.6273-1.006836.9649.04025.2434-.675172 1.0557-.34375.4658-.5985585.5027-1.400032 1.0812-1.5048828 2.0097-.1838071.7223-.6354577 1.6845-.4794922 2.253.097531-.4552.2083212-1.4627.4072265-1.4541-.2104487.9722-.371612 2.0157-.2392578 2.9814.3016184.9707 1.2014245 1.6051 1.3984375 2.6006.2283883.4467.5072888.7482.8876953.7891.4689595.6446-.3737945.8642-.3310545 1.3095-.03773.729.5663765 1.4625 1.055664 2.0166.4881705.1789.6887905.7163.8847655 1.1993.878082.4466 1.8271985.7732 2.831055.9443.22677-.1213.428636-.3061.711914-.3945.730199.1158 1.135955-.4421 1.293945-1.0206.957481-.4179.37398-1.1174-.419922-1.1279-.640679.09-.904078-.3529-1.450195-.289.08476-.095-.242043-.2507-.426758-.1133.29489-1.1451-2.3363985-1.93-2.9833985-2.4834-.4526005.611.18242-.5365-.555664-.166-.358812.1327-.4509025.3716-.6904295-.099-1.0501807-.127.029025-1.4593-.982422-1.7002.3965785-.3598.4684035-1.1807-.2578125-.6259-.7417102-.3314-.3501356-1.9368.3623047-1.8536.2564963.037.5060803.7377.5156248.2705.7578995.135.4762325 1.0403.741211 1.3721.062725-.6901.2841435-1.3412 1.0527345-1.3769.053771-.1737.1889975-.9443.1689455-.2442.077228-.2975.285404-.3604.4960935-.4082.048925.01.082939-.01.085937-.02.1958565-.044.3797935-.1009.444336-.3486.375052-.1253 1.097622-.1614.4296875.1513.366627-.026.65974-.066.4570315-.2597.2172705-.067-.2564135-.2331-.129883-.1-.01584-.01-.024965-.02-.04297-.031-.072283-.4458-.086057-.1655.107422-.4053-.305795-.281-1.0357215.2978-.293945-.1728.6545495.098 1.773894-.1641 1.203125-.5254-.0297-.1743-.262179-.6049-.194336-.9531-.026765-.2743-.611313.3714-.5107425-.2959.4367265-.1307-.455605-.9293-.4560545-.1973-.211518.3611-.4012445.6512-.722656.8819-.117918.7562-.540612-.038-.1376955-.3233-.459062-.4941-.5397575-1.5156.3896485-1.4717-.215569-.422.469307.272.3759765-.2656.4244975.4067 1.0768305-.589.3867185-.167.017465-.02.038715-.046.039065-.052.0002765 0-.01085.01-.04492.037-.00998.016-.010025.018-.012695.024-.01473.01-.02121.01-.03711.021-.1067255-.2491.4847115-1.0817-.1015625-.4522-.407609.529-.2871935-.6696-.765625-.207.03999-.4716.4347115-.9967.068359-1.3574.4183315-.3098 1.1342745-1.4007.175781-.9502.075916-.1377.082228-.1847.04883-.1856zm-1.333008.01-.00586.048zm-.033205.048c-.0044-.01-.01277 0-.027345.043.0161.1196.040575-.027.027345-.043zm6.2441405 0h .04004zm-5.5585935.01c-.00902.01-.014665.021-.010745.048.093625-.015.037795-.067.010745-.048zm1.1660155.1162.01172.016zm-1.866211.011c.00245-.01-.011865 0-.058594.041-.107812.1283.051187-.023.058594-.041zm5.844727.01c-.07573.023.03169.1963.143554.045-.07249-.043-.11831-.053-.143554-.045zm.197265.038-.0166.044zm.859375.045h-.05078zm.414063.02-.02637.02zm.06934.036.04492.035zm-7.5283205.044-.041015.024zm-.076172.049.02246.01zm7.5976585.01.02246.023zm.0068.1123c.0018.017.144477.083.05859.01-.04448-.012-.0592-.012-.05859-.01zm-7.5351555.121c-.00663-.011-.028815-.01-.079101.028-.02685.164.098997 0 .079101-.028zm.03613.031-.026365.025zm7.1474615.011c-.06508-.015-.02096.048.230469.2432.224239.1529.451917.099.195312-.02-.186212-.1155-.3607-.2087-.425781-.2237zm-.818359.017.09473.031zm-6.47754.017.00781.017zm6.57129.031c-.04193-.01-.01228.072.06641.037-.03082-.026-.05243-.036-.06641-.037zm-.06055.01.0293.028zm.141601.043c-.0096 0-.01487.012-.0088.042.102818.04.0375-.046.0088-.042zm-.06641.025-.02149.048zm-.103516.01.03516.025zm.179688.075.04101.011zm-6.433594 0c-.00925 0-.012165.01.00195.019.114242.036.0258-.016-.00195-.019zm8.105469.018c-.03945.022.01231.14.07324.023-.03629-.026-.06009-.03-.07324-.023zm-1.744141.01c-.01867.01-.0012.042.109375.096-.03583-.075-.0907-.101-.109375-.096zm-6.326172.02-.00684.026zm6.483401 0-.0098.023zm-.127929.035.0049.062zm1.438476.013v.001c-.158419.01-.285355.1205.04981.1602l.176758-.027c-.02482-.1068-.131512-.1391-.226563-.1338zm-7.9228515.078.020505.012zm2.5546875.1933c-.1012675.01.041715.2061.196289.1182l-.0049-.039c-.096554-.061-.1576505-.081-.191406-.079zm3.935547 0 .0088.037zm-4.551758.044c-.0842.01-.1814805.063-.2714845.2109l.041015.029h.111328c.509118.1762.3717385-.2635.119141-.2451zm6.482422.022c-.05623-.012-.07512.1335.06445.077-.02243-.052-.04571-.073-.06445-.077zm-5.549805.04-.050781.026zm-.4384765.01c-.010075 0-.00812.012.02051.032.1482555.013.00972-.04-.02051-.032zm.4189455.018c-.055395 0-.112941.1664.046875.077-.0097-.055-.02841-.076-.046875-.077zm-.196289.037.030275.013zm-.116211.017c-.04922-.01-.1351955.022-.180664.071-.078757.3216.579241.098.1386715.084.103087-.1015.091215-.1471.04199-.1553zm.592773.043c-.04014.014-.08063.078-.06348.2148.197055-.1284.13037-.2391.06348-.2148zm.816406 0c-.343461-.01.0031.2852-.248047.3008-.245194.037-.767619.4546-.315429.3056.25739-.052 1.32849-.3801.756836-.5859-.08099-.014-.144294-.02-.19336-.021zm-.568359.023-.04492.041zm-.451172.059c-.01127.01-.1388965.1234-.04004.046.03489-.036.0438-.047.04004-.046zm3.692383.024c-.01582 0-.02596.019-.02344.036-.182475-.1003-.481118.035-.104492.1611-.08349-.2686.11783.1398.219726.064.0065-.107-.03633-.1746-.09473-.2149.0086 0 .014.01.03027 0-.0068-.031-.01754-.043-.02735-.045zm.03321.01c-.02021.033.226723.1806.131836.022-.08865-.031-.125099-.033-.131836-.022zm-1.671875.029c-.04255-.01-.09705.018-.181641.1093-.02299 0-.04612.011-.06934.014-.0038-.022-.01636-.044-.05762-.037.0065.027.01351.031.02051.044-.494221.072-1.00935.34-.914062.6749.567835.1341.138894.792.425781.9101-.115316.065.05652.3998-.177734.4307.45667-.09-.336405.1401.05762.1875-.146961.2527-.06014.559.166992.9179.246426-.056.08712.012.200196.1836.316176-.4111.351073-.9379.86621-1.2031-.005-.1709.89635-.4414.286133-.4951.139278-.025.04268-.1586-.02832 0-.01484 0-.01969 0-.03613 0-.124234-.3236.702737.084.08984-.2832-.244375-.1938.126317-.1805.141601-.2822.02986 0 .01647-.024-.01074-.035-.0135-.026-.03977-.056-.09961-.098.03731-.2875-.289415-.4451-.144531-.9121-.389178.2313-.407509-.095-.535157-.1181zm-1.984375.01.01563.036zm1.832031 0 .03223.03zm-2.916015.014c-.03461-.01-.074759-.0002-.121094.01-.2258275.5486-.2377755-.1692-.363281.3428.2620055.9495 1.0035395-.3032.484375-.3506zm2.896484.01.02539.025zm-1.616213.01c-.0175-.01-.03707-.01-.05176 0-.01959.012-.0313.042-.01856.1.158265-.011.122816-.082.07031-.1016zm-.4023435.032-.04199.037zm-3.2929685.01-.049805.021zm3.2011715.04.055664.012zm-.01758.011.018555.023zm3.6660155.018c-.0067.0001.0057.01.05762.025.158182.033-.03738-.025-.05762-.025zm-6.9228515 0-.01758.01zm3.6728515 0c-.02599.01.0098.128.04883.04-.02452-.034-.04017-.043-.04883-.04zm-.5029295.016-.04883.034zm-3.1816405.034c-.03394.012-.204267.1185-.029295.029.036865-.028.04061-.033.029295-.029zm.020505.01c-.204645.068.0053.146 0 0zm2.8066405.038c-.01751.01-.03081.038-.027345.097.1743185.01.079867-.1267.027345-.097zm-2.946289.025c-.017615.012-.064507.061-.1572265.1728.0022.085.210073-.2089.1572265-.1728zm.105469.011-.032225.041zm-.053711.024-.023435.031zm-.02051.038-.04492.039zm3.5664065 0-.030275.025zm-.112298 0c-.018165 0-.043465.018-.077148.042-.00875.2615.2043145-.079.077148-.042zm-3.6044925.026c-.0007 0-.016745.01-.059571.044-.070209.084.061719-.037.059571-.044zm3.308594.049.049805.032zm-3.228516.013c-.093352 0-.080382.1141 0 0zm3.087891.011c-.132423-.01-.2996495.071-.1044925.2481.334535-.1523.2369155-.2418.1044925-.2481zm-3.1533205 0-.036135.026zm-.01367.027-.041015.019zm8.660156.01-.03515.014zm-8.938476.095c-.087941.066-.196547.1478-.060547.051.215764-.165.1484875-.1163.060547-.051zm3.65625.01c-.050874.013-.1253495.053-.2226565.1406.3132425.036.3752795-.1785.2226565-.1406zm5.24707 0-.0088.062zm-2.148438.038.0078.034zm-6.661132 0-.00781.032zm-.012695.039-.039065.035zm-.033205 0-.015625.03zm3.040039.012-.021485.033zm-.4414065.055.01172.026zm6.2656245.044-.01758.04zm-2.130859.011.07031.091zm-6.8574215.028-.04297.042zm2.921875.029-.03418.038zm-2.9257815.028-.029295.029zm9.017579.015-.0127.049zm-2.049806.068c-.0085.01-.0082.023.01172.061.117709.017.01389-.076-.01172-.061zm2.00586.01.01855.054zm-9.0751955 0-.029295.01zm9.1494135.055c-.0212.014-.0357.056.02051.086.02857-.084.0007-.1-.02051-.086zm-2.139648 0 .03418.037zm-7.210937.066c-.017505 0-.072035.078-.1875.3056-.039785.4176.2400175-.3029.1875-.3056zm9.362304.01-.003.048.0039-.048h-.001zm-5.516601.039.023435.037zm5.493164 0 .0068.04zm-9.328125.038.00586.03zm7.103515.1074c-.06697 0-.07641.082.08203.03-.03104-.024-.05971-.031-.08203-.03zm.101563.039c-.01571 0-.03608.01-.06055.026.106719.051.10766-.022.06055-.026zm-.05078.03c-.01688 0-.01975.013.01074.06.216878.1084.03988-.052-.01074-.06zm-3.081055.01c-.00791 0-.0046.013.02246.034.12473.01.0013-.044-.02246-.034zm3.972656.015-.02051.057zm-8.1357415.024-.024415.054zm4.293945.028-.058594.011zm-.0625.041-.072266.02zm.082031.021-.024415.043zm-4.3994145.058-.01465.033zm-.00781 0-.027345.03zm4.4355465.083-.021485.051zm6.492187.017.0088.056zm-6.670898.021c-.069153.037-.021375.2748.109375.054-.050299-.056-.086324-.066-.109375-.054zm-.578125.028c-.00677 0-.010985.017-.00781.07.070747.1017.02813-.068.00781-.07zm-.026365.011-.036135.055zm.734375 0c-.01167.012.072329.141.050782.041-.03272-.035-.04689-.045-.050782-.041zm-.830078.045c-.1608635-.014-.4064265.2542.032225.4141.13002-.2958.06429-.4057-.032225-.4141zm7.231445.037.06152.027zm-.942383.053-.02051.037zm.861328 0 .03613.013zm.353516.2812c-.0228-.01-.01787.032.08301.1445-.0097-.079-.06021-.1361-.08301-.1445zm-7.649414.052c-.3992135.077.2380335.069 0 0zm4.769531.066c-.280062-.025-.743531.1816-.261719.4082.122797.012.253138.075.324219-.063.207585-.2303.105537-.3293-.0625-.3447zm-4.3486325 0-.00295.048zm-.109375 0c-.00768.01-.00607.023.015625.055.1128095 0 .00742-.074-.015625-.055zm7.3457025.067c-.01275-.02-.01643-.022.0029.022.157203.2755.03533.039-.0029-.022zm-7.523437.028c-.015105.01-.03731.034-.066406.087.092642.012.1117245-.113.066406-.087zm6.455078.077.02735.032zm-6.0830075.041.038085.024zm2.8007815.038-.05176.019zm-2.547852.046.03125.052zm4.875.017.04395.031zm-.0068.014.05078.028zm.557617.032.01074.035zm-.01563.018.05859.093zm1.584961.03.04785.026zm-2.060547.01.04199.025zm1.860351.01c-.04548-.028-.03212.2823.06445.1689-.02721-.1129-.04929-.1595-.06445-.1689zm-.130859.1035.02832.027zm.363281.023c-.02316 0-.03581.1159.02441.045-.0077-.035-.01669-.046-.02441-.045zm-.130859.011-.01465.035zm-6.555664.052c-.031365-.01-.066885 0-.01172.044.070295-.014.043085-.036.01172-.044zm5.101563.061.03223.033zm-5.4130865.028-.0039.05zm5.3691405.067c-.08494.6085.638896.4539.549805 1.0439.289831-.1277-.177751.608.285156.056l.08887-.07.08594-.029c.0019-.5307-.755869-.5885-1.009766-1zm-5.125.04.03125.032zm4.958985.06c-.0067.01-.0079.028.003.091.08361.078.01711-.1018-.003-.091zm-6.3974615.071-.057617.027zm6.4531255.032c-.01675 0 .121409.1494.08105.057-.0522-.043-.07547-.058-.08105-.057zm-6.458985.019c-.01993 0-.04705.01-.079102.02.133653.036.138897-.017.079102-.02zm.0625.01-.04297.024zm2.934571 0-.04492.023zm3.429687.01-.03515.021zm-3.349609.093-.02344.032zm4.691406.017-.02246.032zm-1.171875.015c-.08352.1287.127528-.01 0 0zm-3.430664.01.04785.026zm-3.319336.04.056641.011zm6.80957.01-.01172.034zm-11.2832029.044.00196.04zm11.2656249 0-.0127.051zm-7.1435545.1123c.046655.236.178117-.034 0 0zm7.4111325.063-.0059.062zm-11.5527342.014-.00684.049zm11.3593752.026c-.152209.014-.361762.3856 0 .5615l.07617-.08c.08582-.3696.01516-.4897-.07617-.4815zm4.582031.087c-.03054.012-.02585.083.09082.2549.108826-.1267-.03992-.274-.09082-.2549zm-4.270508.019-.04395.027zm3.470703.094-.01563.031zm-.01563.063-.0049.053zm-2.982421.1191-.04297.026zm1.819335.01c.01395.01.14114.048.03614.01-.03354-.01-.04078-.011-.03614-.01zm1.341797.023.03711.053zm-1.369141 0 .03515.018zm.359375.063-.02539.023zm1.113282.017-.0039.053zm-.122071.099h.03614zm.178711.037-.0049.034zm.168946.039.01172.047zm-.835938.062.05371.027zm.154297.051.01563.053zm.707031.062c-.02862-.015-.330558.2795-.09277.1455.08122-.1009.102313-.1405.09277-.1455zm-.698242.01c-.0054.01-.000295.023.02735.051.101797-.011-.01108-.07-.02735-.051zm.117188.067-.04004.01zm-1.265625.01-.02051.033zm-14.1425783.01-.027344.024zm.1582031.01-.021484.1084zm15.5000002 0 .02539.029zm-1.610352.062c-.04814.01-.06448.085.09668.2148.03139-.1573-.04855-.2217-.09668-.2148zm-7.3125.026c-.02421.01-.07985.065-.200195.1993-.668899.3363.395503.3502.12793.5097l.04785.02c.305284.028.243767.019.219727-.3066-.340868-.039-.122698-.4476-.195313-.4229zm-.8261715.036c-.073106-.013-.098669.093.1367185.1816-.03172-.1238-.092855-.1739-.1367185-.1816zm-5.7441407.043c-.089217.1501.084903-.028 0 0zm12.6621092 0 .03027.023zm2.162109.17c-.143765-.024-.41702.4346.06738.2285.01353-.1584-.01946-.2203-.06738-.2285zm-.772461.027c-.09289-.01-.155379.095.08984.3164.126326-.2.0031-.3111-.08984-.3164zm-7.342773.011-.04395.01zm-.8466795.1944-.069336.035zm9.0361325.1523.03223.01zm-9.007812.073c-.1029345.01-.210785.2119.085937.082-.01815-.063-.051627-.084-.085937-.082zm7.796875.01-.03418.012zm-13.9970706.01-.000975.057zm13.9257806.064c-.03672-.023-.180858.1235-.01465.093.02706-.058.02689-.085.01465-.093zm-13.7138665.033.00879.032zm-.1152344.122-.00879.047zm13.6962889.069-.02637.04zm-9.1875.1552.056641.012zm-.4716795.3057-.039065.04zm-2.6015625.1035-.035156.01zm.308594.2647.01367.034zm2.0917965.018-.058594.084zm-.140625.1045-.0459.028zm-2.7949217.029-.034179.049zm1.9082032 1.0429-.012695.035zm.274414.1163.033205.023zm.038085.033c-.021905-.014-.042405.013-.029295.1386.1060605.02.065807-.1159.029295-.1386zm-1.416016.1484.035155.01zm1.2451175.088c-.03708-.014-.076798.015-.00879.1308.080303-.059.045865-.1166.00879-.1308zm.2197265 0c-.00967-.012.043375.2647.035155.1338-.02176-.094-.03193-.1299-.035155-.1338zm-.9277345.016c-.01725.01-.01841.029 0 .071.526527.1695.404327.8205.9160155.9199.077557-.2776-.795251-1.0341-.9160155-.9912zm-.5048825.078h-.03711zm1.234375.062c-.0214-.011-.049.079.015625.052-.00215-.034-.00849-.049-.015625-.052zm-.75293.01c-.01123 0-.01897.023-.01367.075.1173495.071.047365-.082.01367-.075zm1.0214845.045.036135.1084zm-.463867.1543.04492.04zm.041015.048.02832.034zm-1.326172.067-.029297.028zm1.859375.1084.041015.035zm.05664.046c-.021865.01-.145164.1272-.024415.036.028215-.032.0317-.04.024415-.036zm-1.095703.041.039065.03zm1.2041015.056.03418.028zm-.052734.1699c-.033595-.015-.173717.052-.0166.048.02756-.028.0278-.043.0166-.048zm-.808594.1807c-.0021.012.0412.05.1689455.1269.2500425.022-.162665-.1637-.1689455-.1269zm.785156.024.0459.03zm.02637.064c-.094542-.016-.1635765.014-.1533205.1328-.188733-.041.360336.3666.3183595.2295.6397985.1658.1185845-.3125-.165039-.3623zm-1.5097655 1.2441.012695.044zm14.099609 2.2539v.017zm-9.416992.3193.05957.01zm.28125.019h-.06836zm.646484.2021-.01367.031zm-.320312 2.6221-.02051.022z" opacity=".2"/><path d="m12.079102 1030.3642c-.05742.022-.111731.038-.160156.043 1.09905.014-.719795.1541-1.115235.1924-.36977.1998-1.173877.4499-.334961-.039-.433216-.029-.5301195.087-.6015625.2266-.00707 0-.00837.01-.00586.011-.01343.027-.026825.053-.041015.081-.3012765.018-1.1137695.6515-.3183595.3564-.2467885.1834-.9938935.5724-.262695.3272.1581075-.01.307555-.054.458984-.095v.0009c.720072-.4612 1.77333-.2986 2.308594-.3701.03477-.01.07817-.01.120117-.01.01107.01.02188.01.03223 0 .446188.01 1.192998.3849 1.257812.4316-.82602.1371.867993.5185 1.114258.5391.575755-.1838-.182292.052.341797.1524-.27975.2569.545881-.1105.459961.04 1.21877.3541-1.197951-.1489-.245117.2812.561118-.1537.256932.2833.618164.5391-.310912.059.553522.5503-.06152.4111.639331.1158.630021 1.0788.173829.5371.319079-.6043-.722348-.1055-.779297.041-.218207.4118.477714 1.0931.339844 1.4111-.02702.4288.0992.364.454102.7314.03623-.7205.398866.052.748046-.021.03441-.7199-.983184-.9657-.868164-1.6123.30275.3163.698512.9533.944336.3037-.09471.2746.04625.4528.165039.6367-.160651.191.493471.5274-.01758.7773-.06764.2668-.235636.2537-.393555.1631.00095-.051-.03435-.1376-.07813-.054-.09288-.071-.177931-.1538-.219726-.2217.04006.4182.551126.4876.154297.9151.290547.6115-.947737 1.1256.07226 1.2392.527849.7226-1.116693.5628-.383789 1.3682.151904.9236 1.489858.077.980469-.6367.04532-.6492.426645-1.1858 1.149414-.8721.441284.2541.487948.2459.31836-.1836-.487031.1783-1.256903-.6507-.356446-.3193.508889-.014.89509.5657 1.06836.4257-.0377-.083-.09136-.1673-.143555-.2519.02805 0 .05817.01.125-.01-.04892-.08-.116612-.068-.152344-.042-.107996-.185-.175265-.3677.06348-.5274-.225049-.3656-.817754-1.3117-.188477-1.0664-.05357-.08-.326375-.9258.01172-.3134.395049-.1591.912861.3556.332032.6171-.369836.5465.08655 1.7839.575195.7862.05849-.5786.740311.8112.291992 1.0039-.2731.4267-.912702.4039-.638672 1.0644-.514368.033-1.140649.3953-1.209961-.3408-.653557.3313-1.085348 1.0447-1.667968 1.3272-.112064.8484-.444051 1.4936-.774414 2.3222-.210991.5234.277695 1.0421.04395 1.583.19622.2338.729412.7953 1.319336.9014.690646-.055 1.268374-.7052 1.815429-1.0527.33185.2179.830527-.5134.694336.3554-.20513.4918.703255.8258.148438 1.4102-.126847.2544-.407093 1.103-.524414 1.3721 1.708074-1.794 2.762697-4.2161 2.762697-6.8887 0-5.4963-4.434673-9.9553-9.920898-9.998zm-1.719727.1572h-.02539zm-.04883.011-.06641.013zm-.07227.016-.02735.01zm-.7548805.252-.029297.01zm-.125.035-.066406.015zm-.6083945.1772-.063477.023zm-.100586.027-.02832.015zm3.332032.1348c-.01656-.01-.05693 0-.132813.023.02237.1113.182483 0 .132813-.023zm-3.710938.024-.01758.012zm2.118164.019c-.0096 0-.03293 0-.0791.025.0094.067.108006-.017.0791-.025zm1.563477.029.0332.019zm.230468 0 .03223.019zm-.80957.011c-.143015-.01.140429.1307.305664.071-.162453-.049-.257992-.068-.305664-.071zm-3.2851565.017h-.00976zm3.8671875.016c-.241105.0006.02231.226.174805.057l-.03808-.041c-.05683-.011-.102276-.016-.13672-.016zm.220703.06.0019.034zm-4.2792965.04c.000244 0-.00927 0-.03711.017-.052454.041.036375-.012.03711-.017zm-.061523.03-.033205.027zm5.40332.018c-.03479 0-.07762.062.02637.035-.0041-.024-.01477-.034-.02637-.035zm-5.470703.019.0049.013zm2.1669925.047c-.232472.065.054467.1541 0 0zm-2.279297.04-.04004.04zm-.068359.048-.064453.044zm.4628905.2148c-.02716-.012-.090401 0-.1083985.066.126641-.02.1355595-.054.1083985-.066zm5.1337895.015c-.04539.011-.05036.055-.02246.078-.07755.02.07672.2585.166015.077-.04413-.033-.07929-.054-.106445-.066.02862 0 .06259-.017.105468-.053-.06643-.037-.112867-.043-.142578-.036zm-4.5371095 0c-.1002025 0-.555452.4112-.5478515.049-.3821505.1365-.83523.5425-.953125.3066-.097869.4117.6311275.3243.1054685.499.2874535.1975-.670648.8579-.4091795.8711-.01378.011-.020945.019-.03418.029-.0615-.01-.245804.037-.173828.1006.074003-.024.084739-.035.1152345-.05-.460567.3784-.593916.6273-1.006836.9649.04025.2434-.675172 1.0557-.34375.4658-.5985585.5027-1.400032 1.0812-1.5048828 2.0097-.1838071.7223-.6354577 1.6845-.4794922 2.253.097531-.4552.2083212-1.4627.4072265-1.4541-.2104487.9722-.371612 2.0157-.2392578 2.9814.3016184.9707 1.2014245 1.6051 1.3984375 2.6006.2283883.4468.5072888.7482.8876953.7891.4689595.6446-.3737945.8642-.3310545 1.3095-.03773.729.5663765 1.4625 1.055664 2.0166.7557015.2769.825651 1.4245 1.2490235 1.875.3285965.1507.665137.2865 1.0117185.4014.065385.01.053359-.023.21875.01.2929785.03.8052675.063.3515625-.1426.787671.359 1.025074-.216 1.59668-.3945.730199.1158 1.135955-.4421 1.293945-1.0205.957481-.4179.373979-1.1175-.419922-1.128-.64068.091-.904078-.3529-1.450195-.289.08476-.095-.242043-.2506-.426758-.1133.29489-1.1451-2.3363985-1.93-2.9833985-2.4834-.4526005.611.18242-.5365-.555664-.166-.358812.1327-.4509025.3717-.6904295-.099-1.0501806-.1271.029025-1.4593-.982422-1.7002.3965785-.3598.4684035-1.1808-.2578125-.626-.7417102-.3314-.3501356-1.9367.3623047-1.8535.2564963.037.5060798.7377.5156248.2705.757899.1349.4762325 1.0402.741211 1.372.062725-.6901.2841435-1.3412 1.0527345-1.3769.053771-.1737.1889975-.9443.1689455-.2441.077228-.2975.285404-.3605.4960935-.4083.048925 0 .082939-.01.085937-.02.1958565-.044.3797935-.1009.444336-.3486.375052-.1252 1.097622-.1614.4296875.1514.366627-.027.65974-.066.4570315-.2598.2172705-.067-.2564135-.2331-.129883-.1-.01584-.011-.024965-.019-.04297-.03-.072283-.4458-.086057-.1655.107422-.4053-.305795-.281-1.0357215.2978-.293945-.1728.6545495.098 1.773894-.1641 1.203125-.5254-.0297-.1743-.262179-.6049-.194336-.9531-.026765-.2743-.611313.3714-.5107425-.2959.4367265-.1307-.455605-.9293-.4560545-.1973-.211518.3611-.401244.6512-.722656.8819-.117918.7562-.540612-.038-.1376955-.3233-.459062-.4941-.5397575-1.5156.3896485-1.4717-.215569-.422.469307.272.3759765-.2656.4375175.4192 1.1294915-.6649.3310545-.1367-.1067255-.2491.4847115-1.0817-.1015625-.4522-.407609.529-.2871935-.6696-.765625-.207.03999-.4716.4347115-.9967.06836-1.3574.4183315-.3098 1.1342745-1.4007.175781-.9502.075916-.1377.082229-.1847.04883-.1856zm-1.333008 0-.00586.048zm-.033205.048c-.0044-.01-.01277 0-.027345.043.0161.1195.040575-.027.027345-.043zm6.2441405 0h .04004zm-5.5585935.01c-.00902.01-.014665.021-.010745.048.093625-.015.037795-.067.010745-.048zm1.1660155.1162.01172.016zm-1.866211.011c.00245-.01-.011865 0-.058594.041-.107812.1284.051187-.023.058594-.041zm5.844727.01c-.07573.023.03169.1965.143554.045-.07249-.043-.11831-.053-.143554-.045zm.197265.038-.0166.044zm.859375.045h-.05078zm.414063.021-.02637.02zm.06934.036.04492.035zm-7.5283205.044-.041015.024zm-.076172.049.02246.01zm7.5976565.01.02246.023zm.0068.1123c.0018.017.144477.083.05859.01-.04448-.012-.0592-.012-.05859-.01zm-7.5351535.1211c-.00663-.011-.028815-.01-.079101.027-.02685.1641.098997 0 .079101-.027zm.03613.031-.026365.025zm.021485 0c-.00627 0-.021415 0-.049805.032.00913.093.068624-.02.049805-.032zm7.1259765.011c-.06508-.015-.02096.048.230469.2432.224239.1528.451918.099.195312-.02-.186212-.1155-.3607-.2086-.425781-.2236zm-.818359.017.09473.031zm-6.4775395.017.00781.017zm6.5712895.032c-.04193 0-.01228.072.06641.037-.03082-.026-.05243-.036-.06641-.037zm-.06055.01.0293.028zm.141602.043c-.0096 0-.01487.013-.0088.042.102817.039.0375-.046.0088-.042zm-.06641.025-.02149.048zm-.103515.01.03515.025zm.179687.075.04101.011zm-6.4335935 0c-.00926-.0009-.01217 0 .00195.019.114242.036.025805-.016-.00195-.019zm8.1054685.018c-.03945.022.01231.14.07324.023-.03629-.026-.06009-.031-.07324-.023zm-1.74414.01c-.01867.01-.0012.042.109375.096-.03583-.075-.0907-.101-.109375-.096zm-6.3261725.019-.00683.026zm6.4834005 0-.0098.023zm-.127929.035.0049.062zm1.438476.014c-.158419.01-.285354.1205.04981.1602l.176758-.026c-.02482-.1067-.131512-.1391-.226563-.1338zm-7.9228515.077.020505.013zm2.5546875.1933c-.1012675 0 .041715.2061.196289.1182l-.0049-.039c-.096538-.061-.1576335-.08-.191389-.079zm3.935547.001.0088.038zm-4.551758.044c-.0842.01-.1814805.063-.2714845.211l.041015.029h.111328c.5091175.1762.3717385-.2635.119141-.2451zm6.482422.023c-.05623-.012-.07512.1335.06445.077-.02243-.052-.04571-.073-.06445-.077zm-5.549805.04-.050781.026zm-.4384765.01c-.010075 0-.00812.012.02051.032.1482555.013.00972-.04-.02051-.032zm.4892585.01c.07077.16.18097-.052 0 0zm-.070313.012c-.055395 0-.112941.1664.046875.077-.0097-.055-.02841-.076-.046875-.077zm3.616211 0c-.42007.099.263514.2657 0 0zm .196289.018-.0098.037zm-4.008789.015.030275.013zm-.116211.017c-.04922-.01-.1351955.022-.180664.071-.078756.3216.579241.098.1386715.084.103087-.1015.091212-.1471.04199-.1553zm1.40918.043c-.343461 0 .0031.2853-.248047.3008-.245194.037-.76762.4547-.31543.3057.25739-.052 1.328491-.3802.756836-.586-.08099-.014-.144293-.02-.193359-.021zm-.816407 0c-.04014.015-.08063.078-.06348.2149.197055-.1285.130369-.2392.06348-.2149zm.248047.023-.04492.041zm.133789.034c-.0337.01-.08018.033-.143554.077-.0049.044.137448.2205-.05371.074.01749.4495.433174-.2144.197265-.1514zm-.584961.024c-.01127 0-.1388975.1235-.04004.046.03489-.036.0438-.047.04004-.046zm3.692383.024c-.01582 0-.02596.019-.02344.036-.182475-.1002-.481117.035-.104492.1611-.08349-.2686.117831.1398.219727.064.0065-.107-.03633-.1746-.09473-.2149.0086.0008.014.01.03027 0-.0068-.031-.01754-.043-.02735-.045zm.03321.01c-.02021.033.226723.1806.131836.022-.08865-.031-.125099-.032-.131836-.022zm-1.671875.031c-.04255-.01-.09705.018-.18164.1094-.02299 0-.04611.011-.06934.014-.0038-.022-.01635-.043-.05762-.037.0065.027.01351.032.02051.044-.494222.072-1.00935.3399-.914062.6748.567835.1341.138893.792.425781.9101-.115316.065.05652.3998-.177735.4307.456671-.09-.336405.1401.05762.1875-.146962.2527-.06014.5591.166992.918.246425-.056.08712.011.200195.1836.316176-.4111.351073-.938.866211-1.2032-.005-.1709.896349-.4413.286132-.4951.139279-.025.04268-.1587-.02832 0-.01484 0-.01969 0-.03613 0-.124234-.3236.702738.084.08984-.2832-.244374-.1938.126316-.1805.141602-.2822.02985 0 .01647-.024-.01074-.035-.0135-.026-.03977-.056-.09961-.098.03731-.2875-.289414-.4451-.144531-.9121-.389178.2312-.407509-.095-.535156-.1182zm-.152343 0 .03222.03zm-1.832032 0 .01563.036zm-1.083984.014c-.03461 0-.074759-.0008-.121094.01-.2258275.5485-.2377755-.1693-.363281.3427.2620055.9495 1.0035395-.3032.484375-.3505zm2.896484.01.02539.025zm-1.667968.01c-.01959.012-.0313.042-.01856.1.21102-.014.07733-.1362.01856-.1zm-.3505865.029-.04199.038zm-3.2929685.01-.049805.02zm3.2011715.04.055664.013zm-.01758.012.018555.023zm3.6660155.018c-.0067.0001.0057.01.05762.025.158181.033-.03738-.026-.05762-.025zm-6.9228515 0-.01758.01zm3.6728515 0c-.02599.01.0098.128.04883.04-.02452-.034-.04017-.043-.04883-.04zm-.5029295.016-.04883.034zm.1796875 0c-.050603-.011-.1200735.018-.154297.1376.270613.01.2386355-.1196.154297-.1376zm-3.361328.028c-.03394.012-.204265.1191-.029295.03.036865-.028.04061-.034.029295-.03zm.020505.01c-.204645.068.0053.1459 0 0zm2.8066405.038c-.01751.01-.03081.038-.027345.097.1743185.01.079868-.1267.027345-.097zm.9375005.018c-.02572.019-.02477.1278.0332.022-.01352-.025-.02463-.029-.0332-.022zm-3.8837895.01c-.017615.012-.064507.061-.1572265.1729.0022.085.210073-.209.1572265-.1729zm.105469.011-.032225.041zm-.053711.023-.023435.032zm.00195.038-.041015.041zm3.5439455 0-.030275.024zm-3.5664065.001-.04492.039zm3.454102 0c-.018165.01-.043465.019-.077149.042-.00875.2615.204314-.079.077149-.042zm.3359375.01-.04395.035zm-.151367.01c-.05276-.012-.1053535.022-.1455085.1319.6188225.817.3741525-.081.1455085-.1319zm-3.789063.011c-.0007 0-.016745.01-.05957.044-.070209.084.061718-.037.05957-.044zm3.308594.049.049805.032zm-3.228516.013c-.093352 0-.080382.1142 0 0zm3.087891.011c-.132423-.01-.2996495.071-.1044925.248.334535-.1523.2369155-.2417.1044925-.248zm-3.1533205 0-.036135.026zm-.01367.027-.041015.019zm8.6601565.01-.03515.014zm-8.9384765.095c-.087941.065-.196547.1478-.060547.051.215764-.165.1484875-.1163.060547-.051zm3.65625.01c-.050874.013-.1253495.053-.2226565.1406.3132425.036.3752795-.1786.2226565-.1406zm1.1826175 0 .03515.022zm4.064453 0-.0088.062zm.02832.01.02637.046zm-2.176758.032.0078.034zm-6.661133 0-.00781.032zm4.364258 0-.02735.027zm4.510742.013-.02735.016zm-8.8876955.021-.039065.035zm-.033205 0-.015625.03zm3.040039.012-.021485.034zm-.4414065.055.01172.026zm6.265625.044-.01758.04zm-2.130859.011.07031.091zm-6.857422.028-.04297.042zm-.01172.024.02051.01zm2.933594 0-.03418.038zm-2.9257815.027-.029295.029zm9.0175785.016-.01269.048zm-2.049805.068c-.0085.01-.0082.023.01172.061.117709.017.01389-.077-.01172-.061zm2.00586.01.01855.054zm-9.075196 0-.029295.01zm9.149414.055c-.0212.014-.0357.056.02051.086.02857-.084.0007-.1-.02051-.086zm-2.139648 0 .03418.037zm2.094727 0c-.02613-.01-.03802.088.02832.051-.0096-.034-.01961-.048-.02832-.051zm-9.3056575.066c-.017505-.0009-.072035.079-.1875.3057-.039785.4176.2400175-.303.1875-.3057zm9.3623045.01-.003.048.0039-.048h-.001zm-5.5166015.039.023435.038zm5.4931645 0 .0068.04zm-9.3281255.038.00586.031zm7.1035155.1074c-.06697 0-.07641.082.08203.03-.03104-.023-.05971-.031-.08203-.03zm.101563.04c-.01571 0-.03608 0-.06055.025.10672.051.107661-.021.06055-.025zm-.05078.029c-.01688 0-.01975.012.01074.06.216878.1083.03988-.052-.01074-.06zm-3.0810555.01c-.00792 0-.0046.013.02246.034.12473.01.0013-.043-.02246-.034zm-.421875 0c .0002765 0-.01085 0-.04492.037-.063981.1026.04409-.024.04492-.037zm4.3945315.01-.02051.057zm-8.135742.024-.024415.054zm9.624023.022.01367.034zm-5.330078.01-.058594.011zm-.0625.041-.072266.02zm.082031.021-.024415.043zm-4.3994145.058-.01465.033zm-.00781 0-.027345.03zm4.4355465.083-.021485.051zm6.4921875.017.0088.056zm-6.6708985.021c-.069153.037-.021375.2747.109375.054-.0503-.056-.086324-.066-.109375-.054zm-.578125.028c-.00678-.0007-.010985.017-.00782.07.070747.1018.028135-.068.00782-.07zm-.026365.011-.036135.055zm.734375 0c-.01167.011.072329.141.050781.041-.03272-.035-.04689-.045-.050781-.041zm-.830078.045c-.1608635-.014-.406428.2542.032225.4141.13002-.2958.064291-.4057-.032225-.4141zm7.2314445.037.06152.027zm.344727.01c-.0035-.01-.01817 0-.05078.014-.02536.091.0612 0 .05078-.014zm-.425781.043.03613.013zm-.861328 0-.02051.037zm.02051.014-.02051.048zm1.194336.2676c-.0228-.01-.01787.032.08301.1445-.0097-.079-.06021-.1361-.08301-.1445zm-7.649414.052c-.3992135.077.2380335.069 0 0zm4.769531.066c-.280062-.026-.743531.1816-.261719.4082.122797.012.253138.075.324219-.064.207585-.2302.105537-.3293-.0625-.3447zm-4.3486325 0-.00295.048zm-.109375 0c-.00768.01-.00607.022.015625.055.1128095 0 .00742-.074-.015625-.055zm7.3457025.067c-.01275-.021-.01641-.021.003.023.157203.2755.03531.039-.003-.023zm-7.523437.028c-.015105.01-.03731.034-.066406.087.092643.012.1117245-.113.066406-.087zm6.455078.077.02735.032zm-6.0830075.041.038085.024zm2.8007805.038-.05176.019zm-2.547851.046.03125.052zm4.875.017.04395.031zm-.0068.014.05078.028zm.557617.032.01074.035zm-.01563.019.05859.093zm1.584961.03.04785.026zm-2.060547.01.04199.025zm1.860352.01c-.04548-.028-.03211.2823.06445.169-.02721-.1129-.04929-.1596-.06445-.169zm-.13086.1036.02832.027zm.363282.023c-.02316 0-.03581.1159.02442.045-.0077-.035-.01669-.046-.02442-.045zm-.13086.011-.01465.035zm-6.5556635.052c-.031365-.01-.066885-.0007-.01172.044.070294-.014.043084-.036.01172-.044zm6.4550775.031.01758.047zm-1.353515.029.03223.033zm-5.4130935.028-.0039.05zm5.3691405.067c-.08494.6085.638896.4539.549805 1.0439.289831-.1277-.177751.608.285156.056l.08887-.07.08594-.029c.0019-.5307-.755869-.5885-1.009766-1zm-5.125.04.03125.032zm4.958985.06c-.0067 0-.0079.028.003.091.08361.078.01709-.1017-.003-.091zm-6.3974615.071-.057617.027zm6.4531255.032c-.01675 0 .121409.1495.08105.057-.0522-.044-.07547-.058-.08105-.057zm-6.458985.019c-.01993-.0008-.04705 0-.079102.02.133653.036.138897-.017.079102-.02zm.0625.01-.04297.023zm2.934571 0-.04492.023zm3.429687.01-.03515.022zm-3.349609.093-.02344.032zm4.691406.017-.02246.032zm-1.171875.015c-.08352.1288.127528-.01 0 0zm-3.430664.01.04785.026zm-3.319336.04.056641.011zm6.80957.01-.01172.034zm-11.2832029.044.00196.04zm11.2656249 0-.0127.051zm.08496.023.03711.011zm-7.2285155.089c.046655.236.178117-.034 0 0zm7.4111325.063-.0059.062zm-11.5527342.014-.00684.049zm11.3593752.026c-.152209.014-.361762.3856 0 .5615l.07617-.08c.08582-.3696.01516-.4896-.07617-.4814zm4.582031.087c-.03054.012-.02585.083.09082.2549.108826-.1268-.03992-.2741-.09082-.2549zm-4.270508.019-.04395.027zm3.470703.094-.01563.03zm-.01563.063-.0049.053zm-2.982421.1191-.04297.026zm1.819335.01c.01395.01.141143.047.03614.01-.03354-.01-.04078-.01-.03614-.01zm1.341797.022.03711.053zm-1.369141 0 .03515.018zm1.504883.025-.02539.032zm-1.145508.038-.02539.023zm1.113282.017-.0039.053zm.264648.016c-.01385-.032-.09666.063-.01758.081.01931-.046.02219-.071.01758-.081zm-.132812.011-.0068.046zm-.253907.073h.03614zm.178711.037-.0049.034zm.168946.039.01172.047zm-.835938.062.05371.027zm1.549805.019-.0078.029zm-1.395508.031.01563.053zm.707031.062c-.02862-.015-.330558.2794-.09277.1455.08122-.1009.102313-.1405.09277-.1455zm-.698242.01c-.0054.01-.000293.022.02735.051.101797-.011-.01108-.07-.02735-.051zm.117188.067-.04004.01zm-1.265625.01-.02051.033zm-14.1425783.01-.027344.024zm.1582031.01-.021484.1084zm15.5000002.001.02539.029zm-1.610352.062c-.04814.01-.06448.085.09668.2148.03139-.1573-.04855-.2217-.09668-.2148zm-7.3125.026c-.02421.01-.07985.065-.200195.1993-.668899.3363.395503.3502.12793.5097l.04785.02c.305284.028.243768.019.219727-.3066-.340868-.039-.122698-.4476-.195313-.4229zm-.8261715.036c-.073106-.013-.098669.093.1367185.1816-.03172-.1239-.092855-.1739-.1367185-.1816zm-5.7441407.043c-.089217.1501.084903-.028 0 0zm12.6621092 0 .03027.023zm2.162109.1699c-.143765-.025-.41702.4346.06738.2285.01353-.1583-.01946-.2203-.06738-.2285zm-.772461.027c-.09289-.01-.155379.095.08984.3164.126326-.2001.0031-.3112-.08984-.3164zm-7.342773.011-.04395.01zm-.8466795.1943-.069336.035zm9.0361325.1524.03223.01zm-9.007812.073c-.1029345.01-.2107855.212.085937.082-.01815-.063-.051626-.084-.085937-.082zm7.796875.01-.03418.012zm-13.9970706.01-.000975.057zm13.9257806.064c-.03672-.023-.180859.1236-.01465.093.02706-.058.02689-.085.01465-.093zm-13.7138665.034.00879.032zm-.1152344.1221-.00879.046zm13.6962889.069-.02637.04zm-9.1875.1553.056641.011zm-.4716795.3057-.039065.04zm-2.6015625.1035h-.035156zm.308594.2646.01367.034zm2.0917965.019-.058594.084zm-.140625.1045-.0459.027zm-2.7949217.028-.034179.049zm1.3408202.014.018555.01zm.567383 1.0302-.012695.035zm.274414.1162.033205.024zm.038085.033c-.021905-.014-.042405.013-.029295.1386.1060605.019.065805-.116.029295-.1386zm-1.416016.1484.035155.01zm1.2451175.088c-.03708-.014-.076799.015-.00879.1308.080303-.059.045865-.1166.00879-.1308zm.2197275 0c-.00967-.012.043375.2647.035155.1337-.02176-.094-.031931-.1298-.035155-.1337zm-.9277345.016c-.01725.01-.01841.029 0 .071.526527.1695.404327.8204.9160155.9199.077557-.2777-.795251-1.0342-.9160155-.9912zm-.5048825.078h-.03711zm1.234375.062c-.0214-.01-.049.079.015625.052-.00215-.034-.00849-.048-.015625-.052zm-.75293.01c-.01123 0-.01897.023-.01367.075.1173495.071.047365-.082.01367-.075zm1.0214845.045.036135.1084zm-.463867.1543.04492.04zm.041015.047.02832.035zm-1.326172.067-.029297.028zm1.859375.1084.041015.036zm.056641.046c-.021865.011-.145165.127-.024415.036.028215-.031.0317-.04.024415-.036zm-1.095703.041.039065.03zm1.2041015.056.03418.028zm-.052734.1699c-.033595-.015-.173715.052-.0166.048.02756-.029.0278-.043.0166-.048zm-.8085935.1807c-.0021.012.0412.05.1689455.1269.2500425.021-.162665-.1637-.1689455-.1269zm.785156.024.0459.03zm.02637.064c-.094542-.017-.1635765.015-.1533205.1329-.188733-.041.360336.3665.3183595.2294.6397985.1658.1185845-.3124-.165039-.3623zm-1.5097655 1.2442.012695.044zm14.0996085 2.2539v.017zm-9.416994.3193.05957.01zm.28125.019h-.06836zm-.28125.01-.02343.029zm.927735.1943-.01367.031zm-.320313 2.6221-.02051.022z" fill="#ffbf23"/><path d="m12 1030.3622c-5.5228575 0-10 4.4772-10 10 0 .084.00381.1667.00586.25.1330822-5.407 4.555119-9.75 9.9941405-9.75 5.438992 0 9.861057 4.343 9.99414 9.75.0021-.083.0059-.1662.0059-.25 0-5.5228-4.477173-10-10-10z" fill="#fff" opacity=".2"/></g></svg>