<svg height="24" width="24" xmlns="http://www.w3.org/2000/svg"><path d="m32 0c17.7 0 32 14.3 32 32s-14.3 32-32 32-32-14.3-32-32 14.3-32 32-32z" opacity=".2" transform="matrix(.328125 0 0 .328125 2 1.5)"/><path d="m32 0c17.7 0 32 14.3 32 32s-14.3 32-32 32-32-14.3-32-32 14.3-32 32-32z" fill="#725750" transform="matrix(.328125 0 0 .328125 2 1)"/><path d="m16.517578 4.5c-2.478204.061665-4.841327 2.0901855-6.5468749 3.4609375-.611599.4915435-1.511455 1.4818125-1.46875 1.5234375.04271.041621.9484218-.6873056 1.3945313-1.0410156 2.0343496-1.6129865 4.3695496-2.4539219 5.9550776-2.4511719.591451.00105 1.390811.3425551 1.757813.7519531.419494.467954.556426.7588301.566406 1.8222656.0056.5960196-.198565 1.4747708-.126953 1.4316407.17548-.105688.853978-2.0734999.935547-2.8339844.12332-1.1498045-.471536-2.3357915-1.398437-2.5625-.357183-.079047-.71433-.1103717-1.06836-.1015625zm-8.3339842 1c-.4701952-.00522-.8450228.072642-1.1445313.2421875-2.9463074 1.951885 1.1483065 7.4063605 2.8046875 9.0898435.420528.41986 1.28641 1.167969 1.337891 1.167969.051475 0-.840088-1.015423-1.3925785-1.761719-2.456206-3.317796-3.0258494-6.3239904-1.4355469-7.5644529.343908-.2682525.6820403-.5850152 1.5273438-.4804687l1.6191406.359375c-.98847-.627818-2.0670364-1.0230654-3.3164062-1.0527344zm6.6347652 2.5c-.05148 0 .840087 1.0154223 1.392579 1.7617188 2.456206 3.3177972 3.025849 6.3239902 1.435546 7.5644532-.343908.268252-.682039.585016-1.527343.480469l-1.619141-.359375c.940423.597302 1.988703 1.000413 3.179688 1.048828.535415.02296.95297-.05245 1.28125-.238282 2.946307-1.951884-1.146355-7.406358-2.802735-9.0898432-.420528-.4198606-1.288364-1.1679688-1.339844-1.1679688zm-2.318359 2.5a1.5 1.5 0 0 0 -1.5 1.5 1.5 1.5 0 0 0 1.5 1.5 1.5 1.5 0 0 0 1.5-1.5 1.5 1.5 0 0 0 -1.5-1.5zm-5.5488281 3.501953c-.1754795.105688-.8539779 2.073499-.9355469 2.833985-.1233205 1.149805.471535 2.335791 1.3984375 2.5625 2.8574535.632379 5.6660365-1.792801 7.6152345-3.359376.611599-.491543 1.511454-1.479859 1.46875-1.521484-.04271-.04162-.948422.685353-1.394531 1.039063-2.034349 1.612986-4.36955 2.453921-5.9550785 2.451171-.591451-.001-1.390811-.342555-1.7578125-.751953-.4194945-.467954-.5564268-.758829-.5664062-1.822265-.0056-.59602.1985656-1.474771.1269531-1.431641z" opacity=".2"/><path d="m16.517578 4c-2.478204.061665-4.841327 2.0901855-6.5468749 3.4609375-.611599.4915435-1.511455 1.4818125-1.46875 1.5234375.04271.041621.9484218-.6873056 1.3945313-1.0410156 2.0343496-1.6129865 4.3695496-2.4539219 5.9550776-2.4511719.591451.00105 1.390811.3425551 1.757813.7519531.419494.467954.556426.7588301.566406 1.8222656.0056.5960196-.198565 1.4747707-.126953 1.4316407.17548-.105688.853978-2.0734999.935547-2.8339844.12332-1.1498045-.471536-2.3357915-1.398437-2.5625-.357183-.079047-.71433-.1103717-1.06836-.1015625zm-8.3339842 1c-.4701952-.00522-.8450228.072642-1.1445313.2421875-2.9463074 1.951885 1.1483065 7.4063605 2.8046875 9.0898435.420528.41986 1.28641 1.167969 1.337891 1.167969.051475 0-.840088-1.015423-1.3925785-1.761719-2.456206-3.317796-3.0258494-6.3239904-1.4355469-7.5644529.343908-.2682525.6820403-.5850152 1.5273438-.4804687l1.6191406.359375c-.98847-.627818-2.0670364-1.0230654-3.3164062-1.0527344zm6.6347652 2.5c-.05148 0 .840087 1.0154223 1.392579 1.7617188 2.456206 3.3177972 3.025849 6.3239902 1.435546 7.5644532-.343908.268252-.682039.585016-1.527343.480469l-1.619141-.359375c.940423.597302 1.988703 1.000413 3.179688 1.048828.535415.02296.95297-.052449 1.28125-.238282 2.946307-1.951884-1.146355-7.406358-2.802735-9.0898432-.420528-.4198606-1.288364-1.1679688-1.339844-1.1679688zm-2.318359 2.5a1.5 1.5 0 0 0 -1.5 1.5 1.5 1.5 0 0 0 1.5 1.5 1.5 1.5 0 0 0 1.5-1.5 1.5 1.5 0 0 0 -1.5-1.5zm-5.5488281 3.501953c-.1754795.105688-.8539779 2.073499-.9355469 2.833985-.1233205 1.149805.471535 2.335791 1.3984375 2.5625 2.8574535.632379 5.6660365-1.792801 7.6152345-3.359376.611599-.491543 1.511454-1.479859 1.46875-1.521484-.04271-.04162-.948422.685353-1.394531 1.039063-2.034349 1.612986-4.36955 2.453921-5.9550785 2.451171-.591451-.001-1.390811-.342555-1.7578125-.751953-.4194945-.467954-.5564268-.758829-.5664062-1.822265-.0056001-.59602.1985656-1.474771.1269531-1.431641z" fill="#fff"/><path d="m12.5 1c-5.8078125 0-10.5 4.6921875-10.5 10.5 0 .084493.0116967.16599.0136719.25.133794-5.6905845 4.7630091-10.25 10.4863281-10.25s10.352534 4.5594155 10.486328 10.25c.001975-.08401.013672-.165507.013672-.25 0-5.8078125-4.692187-10.5-10.5-10.5z" fill="#fff" opacity=".1" transform="scale(.99999998)"/></svg>