<svg height="24" viewBox="0 0 24 24" width="24" xmlns="http://www.w3.org/2000/svg"><rect fill="#e4e4e4" height="20" rx="1" transform="matrix(0 -1 -1 0 0 0)" width="20" x="-22" y="-22"/><path d="m3 1.9999998c-.554 0-1 .446-1 1v .5c0-.554.446-1 1-1h18c .554 0 1 .446 1 1v-.5c0-.554-.446-1-1-1z" fill="#fff" opacity=".2"/><path d="m3 22.5c-.554 0-1-.446-1-1v-.5c0 .554.446 1 1 1h18c .554 0 1-.446 1-1v .5c0 .554-.446 1-1 1z" opacity=".2"/><rect fill="#182d33" height="16" rx=".8" transform="matrix(0 -1 -1 0 0 0)" width="16" x="-20" y="-20"/><g fill-rule="evenodd"><circle cx="12" cy="12.5" opacity=".2" r="6"/><circle cx="12" cy="12" fill="#223f48" r="6"/><circle cx="12" cy="12.5" opacity=".2" r="4"/><circle cx="12" cy="12" fill="#325e6a" r="4"/><circle cx="12" cy="12.5" opacity=".2" r="2"/><circle cx="12" cy="12" fill="#1996b4" r="2"/><g fill="#fff"><path d="m12 6a6 6 0 0 0 -6 6 6 6 0 0 0  .0097656.285156 6 6 0 0 1 5.9902344-5.785156 6 6 0 0 1 5.990234 5.714844 6 6 0 0 0  .009766-.214844 6 6 0 0 0 -6-6z" opacity=".1"/><path d="m12 8a4 4 0 0 0 -4 4 4 4 0 0 0  .0097656.283203 4 4 0 0 1 3.9902344-3.783203 4 4 0 0 1 3.990234 3.710938 4 4 0 0 0  .009766-.210938 4 4 0 0 0 -4-4z" opacity=".1"/><path d="m12 10a2 2 0 0 0 -2 2 2 2 0 0 0  .017578.244141 2 2 0 0 1 1.982422-1.744141 2 2 0 0 1 1.982422 1.755859 2 2 0 0 0  .017578-.255859 2 2 0 0 0 -2-2z" opacity=".2"/></g></g></svg>