<svg height="16" viewBox="0 0 16 16" width="16" xmlns="http://www.w3.org/2000/svg"><g fill="#5c616c"><path d="m9 3c-1.5032 0-2.8787469.8459469-3.5605469 2.1855469-.29827-.1218-.6172731-.1848469-.9394531-.1855469-1.2505 0-2.3076094.9267156-2.4746094 2.1660156-1.21059997.4159-2.0239906 1.5539844-2.0253906 2.8339844 0 1.6569 1.3431 3 3 3h9c1.6569 0 3-1.3431 3-3-.0013-1.2733-.806213-2.407025-2.007812-2.828125.0038-.057.006412-.114575.007812-.171875 0-2.2091-1.7909-4-4-4z"/><circle cx="10.5" cy="6.5" r="2.5"/><circle cx="12" cy="10" r="3"/><circle cx="2.5" cy="10.5" r="2.5"/><circle cx="3.5" cy="7.5" r="2.5"/><circle cx="6.5" cy="5.5" r="2.5"/><circle cx="7" cy="9" r="4"/></g></svg>