<svg height="48" width="48" xmlns="http://www.w3.org/2000/svg"><rect height="26" opacity=".2" rx="2" width="40" x="4" y="17"/><path d="m4 34c0 1.108.892 2 2 2h36c1.108 0 2-.892 2-2v-22c0-1.108-.892-2-2-2h-20v-2c0-1.108-.892-2-2-2h-14c-1.108 0-2 .892-2 2" fill="#8b58c5"/><rect height="26" opacity=".2" rx="2" width="40" x="4" y="15"/><rect fill="#e4e4e4" height="16" rx="2" width="36" x="6" y="13"/><rect fill="#a674de" height="26" rx="2" width="40" x="4" y="16"/><path d="m6 6c-1.108 0-2 .892-2 2v1c0-1.108.892-2 2-2h14c1.108 0 2 .892 2 2v-1c0-1.108-.892-2-2-2zm16 4v1h20c1.108 0 2 .892 2 2v-1c0-1.108-.892-2-2-2z" fill="#fff" opacity=".1"/><path d="m22.251 22-.155 1.845c-.584.216-1.128.531-1.607.929l-1.677-.79-1.75 3.032 1.521 1.056c-.054.306-.082.617-.084.928 0 .312.027.624.08.932l-1.517 1.052 1.75 3.031 1.672-.787c.481.397 1.026.71 1.611.924l.155 1.848h3.5l.155-1.844c.584-.216 1.128-.531 1.607-.929l1.676.789 1.75-3.032-1.522-1.056c.054-.306.083-.616.085-.927 0-.312-.028-.624-.081-.932l1.518-1.053-1.75-3.031-1.672.787c-.481-.397-1.026-.709-1.611-.923l-.154-1.849zm1.75 5.001c1.105 0 2 .895 2 2s-.895 2-2 2-2-.895-2-2 .895-2 2-2z" fill="#3a284d"/></svg>