<svg height="48" width="48" xmlns="http://www.w3.org/2000/svg"><rect height="26" opacity=".2" rx="2" width="40" x="4" y="17"/><path d="m4 34c0 1.108.892 2 2 2h36c1.108 0 2-.892 2-2v-22c0-1.108-.892-2-2-2h-20v-2c0-1.108-.892-2-2-2h-14c-1.108 0-2 .892-2 2" fill="#b58f1b"/><rect height="26" opacity=".2" rx="2" width="40" x="4" y="15"/><rect fill="#e4e4e4" height="16" rx="2" width="36" x="6" y="13"/><rect fill="#e2b322" height="26" rx="2" width="40" x="4" y="16"/><path d="m6 6c-1.108 0-2 .892-2 2v1c0-1.108.892-2 2-2h14c1.108 0 2 .892 2 2v-1c0-1.108-.892-2-2-2zm16 4v1h20c1.108 0 2 .892 2 2v-1c0-1.108-.892-2-2-2z" fill="#fff" opacity=".1"/><path d="m21.527 25.623c-.357-.146-.74-.221-1.127-.223-1.5 0-2.77 1.113-2.97 2.6-1.452.499-2.429 1.864-2.43 3.4 0 1.989 1.611 3.6 3.6 3.6h10.8c1.989 0 3.6-1.611 3.6-3.6-.001-1.528-.968-2.889-2.41-3.394.005-.069.007-.136.01-.205 0-2.651-2.149-4.801-4.8-4.801-1.805 0-3.454 1.015-4.273 2.623zm4.272-.623h.002c1.569 0 2.798 1.23 2.799 2.799-.001.023-.004.058-.004.068-.063.899.483 1.73 1.334 2.028.647.226 1.069.82 1.07 1.505 0 .908-.692 1.6-1.6 1.6h-10.8c-.907 0-1.599-.691-1.6-1.598v-.002c.001-.688.428-1.285 1.08-1.509.716-.246 1.231-.875 1.332-1.625.069-.509.476-.865.986-.866.129.001.255.027.372.075.963.394 2.067-.017 2.539-.944.479-.942 1.436-1.531 2.49-1.531z" fill="#4f3e0c"/></svg>