<svg height="48" width="48" xmlns="http://www.w3.org/2000/svg"><rect height="26" opacity=".2" rx="2" width="40" x="4" y="17"/><path d="m4 34c0 1.108.892 2 2 2h36c1.108 0 2-.892 2-2v-22c0-1.108-.892-2-2-2h-20v-2c0-1.108-.892-2-2-2h-14c-1.108 0-2 .892-2 2" fill="#4d646f"/><rect height="26" opacity=".2" rx="2" width="40" x="4" y="15"/><rect fill="#e4e4e4" height="16" rx="2" width="36" x="6" y="13"/><rect fill="#607d8b" height="26" rx="2" width="40" x="4" y="16"/><path d="m6 6c-1.108 0-2 .892-2 2v1c0-1.108.892-2 2-2h14c1.108 0 2 .892 2 2v-1c0-1.108-.892-2-2-2zm16 4v1h20c1.108 0 2 .892 2 2v-1c0-1.108-.892-2-2-2z" fill="#fff" opacity=".1"/><path d="m16 21v16h16v-16z" fill="#222c31"/><g fill="#607d8b"><path d="m24 29h4v1h-4z"/><path d="m20 23h1v7h-1z"/><path d="m19.5 24c-.83 0-1.5.67-1.5 1.5s.67 1.5 1.5 1.5h1.5.5c.28 0 .5.22.5.5s-.22.51-.5.5h-.5-1.5-1.41c.21.58.76 1 1.41 1h1.5.5c.83 0 1.5-.67 1.5-1.5s-.67-1.5-1.5-1.5h-.5-1.5c-.28 0-.5-.22-.5-.5s.22-.5.5-.5h1.5.5 1.41c-.21-.58-.76-1-1.41-1h-.5z"/></g></svg>