<svg height="48" viewBox="0 0 48 48" width="48" xmlns="http://www.w3.org/2000/svg"><path d="m32 0c17.7 0 32 14.3 32 32s-14.3 32-32 32-32-14.3-32-32 14.3-32 32-32z" opacity=".2" transform="matrix(.625 0 0 .625 4 5)"/><path d="m32 0c17.7 0 32 14.3 32 32s-14.3 32-32 32-32-14.3-32-32 14.3-32 32-32z" fill="#763983" transform="matrix(.625 0 0 .625 4 4)"/><path d="m25.828734 22.418266c11.721032-2.275924 12.171266-7.418266 12.171266-7.418266s-.92305 15.936901-9.488926 16.780067c-10.854962 1.068488-12.476708 6.219933-12.476708 6.219933s-.222009-1.653597.462531-3.81154c1.370183-4.319363 4.736283-10.877855 9.331837-11.770194z" opacity=".2"/><path d="m25.828734 21.418266c11.721032-2.275924 12.171266-7.418266 12.171266-7.418266s-.92305 15.936901-9.488926 16.780067c-10.854962 1.068488-12.476708 6.219933-12.476708 6.219933s-.222009-1.653597.462531-3.81154c1.370183-4.319363 4.736283-10.877855 9.331837-11.770194z" fill="#eb2273"/><path d="m38 14s-.450843 5.142045-12.171875 7.417969c-4.595554.892339-7.961848 7.450168-9.332031 11.769531-.576178 1.816341-.511921 3.210539-.476563 3.626953.03526-.676866.147015-1.588088.476563-2.626953 1.370183-4.319363 4.736477-10.877192 9.332031-11.769531 9.404366-1.826087 11.523896-5.455973 12.005859-6.835938.107986-.908492.166016-1.582031.166016-1.582031z" fill="#fff" opacity=".2"/><path d="m18.381165 22.013053c9.752973-4.185389 8.859703-11.013053 8.859703-11.013053s5.384665 13.928841-2.687652 17.176114c-9.017611 3.627537-8.616365 9.823886-8.616365 9.823886s-3.283736-13.528812 2.444314-15.986947z" opacity=".2"/><path d="m18.381165 21.013053c9.752973-4.185389 8.859703-11.013053 8.859703-11.013053s5.384665 13.928841-2.687652 17.176114c-9.017611 3.627537-8.616365 9.823886-8.616365 9.823886s-3.283736-13.528812 2.444314-15.986947z" fill="#ff812d"/><path d="m27.240234 10s .893598 6.828283-8.859375 11.013672c-2.751897 1.180949-3.415781 4.914901-3.371093 8.478516.09186-3.23781.876674-6.408061 3.371093-7.478516 9.752973-4.185389 8.859375-11.013672 8.859375-11.013672s1.594987 4.155574 1.738282 8.455078c.110665-4.632207-1.738282-9.455078-1.738282-9.455078z" fill="#fff" opacity=".2"/><path d="m12.875466 25.501399c5.45874-7.347834 4.230938-12.501399 4.230938-12.501399s6.993799 8.952164 2.234721 14.496835c-5.31638 6.193972-3.32324 10.503165-3.32324 10.503165s-6.2733462-8.284154-3.142419-12.498601z" opacity=".2"/><path d="m12.875466 24.501399c5.45874-7.347834 4.230938-12.501399 4.230938-12.501399s6.993799 8.952164 2.234721 14.496835c-5.31638 6.193972-3.32324 10.503165-3.32324 10.503165s-6.2733462-8.284154-3.142419-12.498601z" fill="#ffdf55"/><path d="m24 4c-11.0625 0-20 8.9375-20 20 0 .167609.0076391.333391.0117188.5.2651819-10.829935 9.0933902-19.5 19.9882812-19.5s19.723099 8.670065 19.988281 19.5c.00408-.166609.011719-.332391.011719-.5 0-11.0625-8.9375-20-20-20z" fill="#fff" opacity=".1" transform=""/><path d="m17.105469 12s .084516.422864.105469 1.142578c.399904.527858 3.514853 4.786536 3.755859 9.160156.279887-4.979786-3.861328-10.302734-3.861328-10.302734zm.101562 1.867188c-.086574 2.125209-.826833 5.916531-4.332031 10.634765-.727581.979375-.933186 2.18142-.841797 3.445313.065856-.890554.309771-1.729168.841797-2.445313 4.146776-5.581841 4.43308-9.88277 4.332031-11.634765zm-1.535156 21.472656c-.026263.459384-.009441.845478.025391 1.193359.082609.114377.320312.466797.320312.466797s-.272082-.597617-.345703-1.660156z" fill="#fff" opacity=".2"/></svg>