<svg height="48" width="48" xmlns="http://www.w3.org/2000/svg"><rect height="26" opacity=".2" rx="2" width="40" x="4" y="17"/><path d="m4 34c0 1.108.892 2 2 2h36c1.108 0 2-.892 2-2v-22c0-1.108-.892-2-2-2h-20v-2c0-1.108-.892-2-2-2h-14c-1.108 0-2 .892-2 2" fill="#dd772f"/><rect height="26" opacity=".2" rx="2" width="40" x="4" y="15"/><rect fill="#dcdcdc" height="16" rx="2" width="36" x="6" y="13"/><rect fill="#ee923a" height="26" rx="2" width="40" x="4" y="16"/><path d="m24.072266 20.019788c-.883901-.03082-1.684823.510263-1.97461 1.333984l-1.517578 4.60234-4.621094.0918c-1.910113.03818-2.698566 2.431047-1.175781 3.568359l3.683594 2.751953-1.339844 4.061723c-.55432 1.803157 1.512062 3.282513 3.080078 2.205078l3.792969-2.603518 3.792969 2.603515c1.568016 1.077435 3.634398-.401921 3.080078-2.205078l-1.339844-4.061723 3.683594-2.751953c1.522785-1.137312.734332-3.530177-1.175781-3.568359l-4.621094-.0918-1.517578-4.60234c-.272363-.774292-.99926-1.304142-1.830078-1.333981zm-.072266 1.984375 1.978516 5.90898 6.021484.119141-4.800781 3.58789 1.74414 5.383989-4.943359-3.390625-4.943359 3.390625 1.74414-5.383989-4.800781-3.58789 6.021484-.119141z" opacity=".2"/><path d="m24.072266 19.015622c-.883901-.03082-1.684823.510263-1.97461 1.333984l-1.517578 4.60234-4.621094.0918c-1.910113.03818-2.698566 2.431047-1.175781 3.568359l3.683594 2.751953-1.339844 4.061723c-.55432 1.803157 1.512062 3.282513 3.080078 2.205078l3.792969-2.603518 3.792969 2.603515c1.568016 1.077435 3.634398-.401921 3.080078-2.205078l-1.339844-4.061723 3.683594-2.751953c1.522785-1.137312.734332-3.530177-1.175781-3.568359l-4.621094-.0918-1.517578-4.60234c-.272363-.774292-.99926-1.304142-1.830078-1.333981zm-.072266 1.984375 1.978516 5.90898 6.021484.119141-4.800781 3.58789 1.74414 5.383989-4.943359-3.390625-4.943359 3.390625 1.74414-5.383989-4.800781-3.58789 6.021484-.119141z" fill="#fff"/><path d="m6 6c-1.108 0-2 .892-2 2v1c0-1.108.892-2 2-2h14c1.108 0 2 .892 2 2v-1c0-1.108-.892-2-2-2zm16 4v1h20c1.108 0 2 .892 2 2v-1c0-1.108-.892-2-2-2z" fill="#fff" opacity=".1"/></svg>