<svg height="48" width="48" xmlns="http://www.w3.org/2000/svg"><g transform="scale(-1 1)"><rect height="40" opacity=".2" rx="2" width="36" x="-42" y="5"/><rect fill="#e4e4e4" height="40" rx="2" width="36" x="-42" y="4"/><path d="m-38 8h28v28h-28z" fill="#65424f"/></g><path d="m8 4c-1.108 0-2 .892-2 2v1c0-1.108.892-2 2-2h32c1.108 0 2 .892 2 2v-1c0-1.108-.892-2-2-2z" fill="#fff" opacity=".2"/><path d="m26.679688 11.98043c-.221551-.0029-.429698.0088-.615235.02148-2.069095.141799-4.059652 2.152967-4.064453 5.214844-.01957 2.6776 1.675218 4.273056 2.878906 5.923828l.01758.02344.01953.02344c1.177678 1.430449 2.337233 2.511128 3.091796 3.585938.742382 1.057458 1.133057 2.056798.992188 3.636718-.230458 1.017751-.797272 1.310834-1.498047 1.494141-.713622.186668-1.40625.105469-1.40625.105469l-.06641-.0098h-.06836c-.656573 0-1.035598-.252244-1.384766-.773438-.349163-.52116-.576167-1.340676-.576167-2.226529h-2c0 1.204369.273433 2.383593.914062 3.339844.630374.94094 1.712121 1.622482 2.990235 1.644531.0698.0097.989505.146869 2.103515-.144531 1.155403-.302228 2.589801-1.23192 2.970704-3.060547l.01172-.05273.0059-.05273c.206869-2.083893-.420436-3.724473-1.351563-5.050781-.926122-1.31918-2.099209-2.393135-3.167969-3.6875-1.330339-1.818414-2.491083-2.89175-2.476604-4.70704v-.0039-.002c.0022-2.211051 1.388454-3.168912 2.201172-3.224609.648619-.04445.977933-.01714 1.201172.193359.223238.210576.597656.931666.597656 2.808634h2c0-2.123032-.362043-3.450341-1.224609-4.263672-.646926-.609998-1.431052-.747093-2.095703-.755859zm-9.679688.019531v22h2v-22z" fill-rule="evenodd" opacity=".2"/><path d="m29.000276 16c0-4-1.476226-4.095308-2.866994-4-1.441377.09878-3.130428 1.583175-3.133006 4.220815-.01797 2.252912 1.415133 3.586174 2.687213 5.33074 2.251072 2.73423 4.681045 4.314533 4.312787 8.02417-.602605 2.892968-4.039352 2.424275-4.039352 2.424275-1.962103 0-2.960648-1.909778-2.960648-4" fill="none" stroke="#fff" stroke-width="2.000216"/><path d="m17 11h2v22h-2z" fill="#fff" fill-rule="evenodd"/></svg>