<svg height="48" width="48" xmlns="http://www.w3.org/2000/svg"><rect fill="#d9b263" height="40" rx="2" transform="matrix(0 -1 -1 0 0 0)" width="40" x="-44" y="-44"/><path d="m24 10a16 15 0 0 0 -16 15 16 15 0 0 0 16 15 16 15 0 0 0 16-15 16 15 0 0 0 -16-15zm0 3a11 12 0 0 1 11 12 11 12 0 0 1 -11 12 11 12 0 0 1 -11-12 11 12 0 0 1 11-12zm-6 8v8h1c0-2 0-2 5-2 4 0 4 0 4 2h1v-8h-1c0 2 0 2-4 2-5 0-5 0-5-2z" fill-rule="evenodd" opacity=".2"/><path d="m4 7v-1c0-1.108.892-2 2-2h36c1.108 0 2 .892 2 2v1c0-1.108-.892-2-2-2h-36c-1.108 0-2 .892-2 2z" fill="#fff" opacity=".2"/><path d="m4 42v1c0 1.108.892 2 2 2h36c1.108 0 2-.892 2-2v-1c0 1.108-.892 2-2 2h-36c-1.108 0-2-.892-2-2z" opacity=".2"/><path d="m24 9a16 15 0 0 0 -16 15 16 15 0 0 0 16 15 16 15 0 0 0 16-15 16 15 0 0 0 -16-15zm0 3a11 12 0 0 1 11 12 11 12 0 0 1 -11 12 11 12 0 0 1 -11-12 11 12 0 0 1 11-12z" fill="#3f3f3f" fill-rule="evenodd"/><path d="m18 20v8h1c0-2 0-2 5-2 4 0 4 0 4 2h1v-8h-1c0 2 0 2-4 2-5 0-5 0-5-2z" fill="#3f3f3f" fill-rule="evenodd"/></svg>