<svg height="48" width="48" xmlns="http://www.w3.org/2000/svg"><rect height="34" opacity=".2" rx="1.9" ry="1.889" width="38" x="5" y="10"/><path d="m6.9 4.9996641h34.2c1.0526 0 1.9.8424444 1.9 1.8888888v34.223003c0 1.046444-.8474 1.888888-1.9 1.888888h-34.2c-1.0526 0-1.9-.842444-1.9-1.888888v-34.223003c0-1.0464445.8474-1.8888889 1.9-1.8888889z" fill="#236fbc"/><path d="m4 25.000499h14l4-10 4 20 4-10h14" style="opacity:.2;stroke-linejoin:round;stroke:#000;stroke-linecap:round;stroke-width:4;fill:none"/><path d="m4 24h14l4-10 4 20 4-10h14" fill="none" stroke="#76eead" stroke-linecap="round" stroke-linejoin="round" stroke-width="4"/><path d="m6.9003906 4.9996641c-1.0526 0-1.9003906.8422275-1.9003906 1.8886719v1c0-1.0464444.8477906-1.8886719 1.9003906-1.8886719h34.199218c1.0526 0 1.900391.8422275 1.900391 1.8886719v-1c0-1.0464444-.847791-1.8886719-1.900391-1.8886719z" fill="#fff" opacity=".1"/></svg>