<svg height="17pt" viewBox="0 0 17 17" width="17pt" xmlns="http://www.w3.org/2000/svg"><path d="m3.96875 1.007812h9.0625c1.632812 0 2.960938 1.328126 2.960938 2.960938v9.0625c0 1.632812-1.328126 2.960938-2.960938 2.960938h-9.0625c-1.632812 0-2.960938-1.328126-2.960938-2.960938v-9.0625c0-1.632812 1.328126-2.960938 2.960938-2.960938zm0 0" fill="#4d4d4d" fill-rule="evenodd"/><path d="m8.914062 12.863281c.578126-.070312 1.429688-.339843 1.429688-.453125 0-.023437-.039062-.1875-.089844-.359375l-.085937-.3125-.273438.109375c-.457031.179688-.898437.257813-1.484375.253906-.425781 0-.554687-.015624-.832031-.085937-1.285156-.332031-2.03125-1.285156-2.179687-2.789063-.105469-1.019531.15625-2.113281.683593-2.898437.3125-.464844.902344-.964844 1.386719-1.179687.738281-.328126 1.617188-.367188 2.386719-.113282.726562.242188 1.273437.75 1.554687 1.441406.1875.46875.222656.679688.222656 1.328126 0 .546874-.007812.640624-.085937.933593-.148437.554688-.394531.933594-.707031 1.089844-.226563.113281-.433594.117187-.546875.011719-.203125-.191406-.195313-.433594.066406-2.132813.101563-.667969.1875-1.21875.1875-1.234375 0-.039062-.382813-.164062-.707031-.230468-.394532-.082032-.945313-.085938-1.304688-.011719-.996094.203125-1.769531.941406-2.078125 1.988281-.117187.390625-.152343 1.082031-.066406 1.433594.109375.472656.394531.839844.785156 1.023437.164063.078125.234375.089844.496094.089844.574219 0 1.066406-.269531 1.410156-.769531.128907-.1875.1875-.210938.1875-.074219 0 .273437.230469.605469.527344.75.171875.085937.226563.09375.511719.089844 1.027344-.011719 1.785156-.714844 2.109375-1.957031.105469-.402344.144531-1.214844.082031-1.65625-.222656-1.515626-1.199219-2.59375-2.691406-2.96875-.417969-.101563-1.390625-.101563-1.839844.003906-1.769531.410156-2.992188 1.730468-3.417969 3.679687-.101562.472657-.109375 1.542969-.015625 1.96875.222656 1.007813.691406 1.78125 1.398438 2.3125.484375.367188 1.125.636719 1.703125.71875.292969.042969.929687.042969 1.277343 0zm-1.050781-3.179687c-.21875-.105469-.3125-.328125-.3125-.746094.003907-.367188.070313-.65625.226563-.960938.226562-.429687.601562-.726562.992187-.785156.179688-.027344.476563-.007812.519531.035156.039063.042969-.1875 1.433594-.273437 1.660157-.25.660156-.742187 1-1.152344.796875zm0 0" fill="#fff"/></svg>