<svg height="12pt" viewBox="0 0 12 12" width="12pt" xmlns="http://www.w3.org/2000/svg"><path d="m5.722656 1.632812.003906.003907c-.449218 0-.816406.367187-.816406.816406 0 .109375.019532.214844.0625.3125l-2.125 1.699219c-.121094-.066406-.253906-.101563-.394531-.101563-.449219 0-.816406.367188-.816406.820313 0 .34375.21875.652344.546875.769531v2.820313c-.328125.117187-.546875.425781-.546875.773437 0 .449219.367187.816406.816406.816406.347656 0 .65625-.21875.773437-.546875h2.277344c.113282.328125.421875.546875.769532.546875.449218 0 .816406-.367187.816406-.816406 0-.136719-.035156-.273437-.101563-.390625l1.703125-2.128906c.097656.042968.203125.0625.308594.0625.453125 0 .816406-.367188.816406-.816406 0-.453126-.363281-.820313-.816406-.820313-.109375 0-.21875.023437-.320312.066406l-2.230469-2.679687c.0625-.121094.09375-.253906.09375-.386719 0-.453125-.367188-.820313-.820313-.820313zm-.386718 1.539063c.121093.066406.253906.101563.390624.101563.109376 0 .21875-.023438.316407-.066407l2.234375 2.679688c-.0625.121093-.097656.253906-.097656.390625 0 .136718.035156.269531.101562.390625l-1.699219 2.125c-.097656-.042969-.203125-.0625-.308593-.0625-.347657 0-.65625.21875-.773438.546875h-2.277344c-.082031-.230469-.265625-.414063-.496094-.496094v-2.824219c.328126-.113281.546876-.421875.546876-.769531 0-.105469-.023438-.210938-.0625-.308594l2.125-1.699218zm0 0" fill="#5c616c"/></svg>