<svg height="12pt" viewBox="0 0 12 12" width="12pt" xmlns="http://www.w3.org/2000/svg"><path d="m2.726562 2.183594s-.542968.007812-.542968.542968v.546876h1.089844v-1.089844zm1.636719 0v1.089844h1.089844v-1.089844zm2.183594 0v1.089844h1.089844v-1.089844zm2.179687 0v1.089844h1.089844v-.546876c0-.535156-.542968-.542968-.542968-.542968zm-6.542968 2.179687v1.089844h1.089844v-1.089844zm6.542968 0v1.089844h1.089844v-1.089844zm-6.542968 2.183594v1.089844h1.089844v-1.089844zm6.542968 0v1.089844h1.089844v-1.089844zm-6.542968 2.179687v.546876c0 .535156.542968.542968.542968.542968h.546876v-1.089844zm2.179687 0v1.089844h1.089844v-1.089844zm2.183594 0v1.089844h1.089844v-1.089844zm2.179687 0v1.089844h.546876s.542968-.007812.542968-.542968v-.546876zm0 0" fill="#5c616c"/></svg>