<svg height="12pt" viewBox="0 0 12 12" width="12pt" xmlns="http://www.w3.org/2000/svg"><path d="m4.363281 2.730469-2.726562 3.273437 2.726562 3.269532h6v-6.542969zm1.089844 1.636719h.546875c.152344 0 .285156.058593.386719.160156l.703125.703125.707031-.703125c.09375-.101563.226563-.160156.378906-.160156h.546875v.542968c0 .152344-.0625.289063-.160156.386719l-.707031.707031.703125.703125c.101562.097657.160156.234375.160156.386719v.542969h-.542969c-.152343 0-.289062-.058594-.386719-.15625l-.707031-.707031-.703125.707031c-.089844.097656-.222656.15625-.375.15625h-.546875v-.542969c0-.152344.0625-.289062.160157-.386719l.707031-.703125-.707031-.707031c-.097657-.097656-.160157-.234375-.160157-.386719zm0 0" fill="#5c616c"/></svg>