<svg height="12pt" viewBox="0 0 12 12" width="12pt" xmlns="http://www.w3.org/2000/svg"><path d="m2.183594 2.183594v7.632812h7.632812v-7.632812zm1.089844 1.089844h2.179687v1.785156c-.160156.09375-.292969.226562-.386719.382812-.003906.007813-.007812.015625-.011718.027344-.039063.0625-.070313.132812-.089844.207031-.007813.019531-.015625.039063-.019532.0625-.019531.082031-.035156.171875-.035156.261719s.015625.179688.035156.261719c.003907.023437.011719.042969.019532.0625.019531.074219.050781.144531.089844.207031.003906.011719.007812.019531.011718.027344.09375.15625.226563.289062.386719.382812v1.785156h-2.179687zm3.273437 0h2.179687v5.453124h-2.179687v-1.785156c.160156-.09375.292969-.226562.386719-.382812.003906-.007813.007812-.015625.011718-.027344.039063-.0625.070313-.132812.089844-.207031.007813-.019531.015625-.039063.019532-.0625.019531-.082031.035156-.171875.035156-.261719s-.015625-.179688-.035156-.261719c-.003907-.023437-.011719-.042969-.019532-.0625-.019531-.074219-.050781-.144531-.089844-.207031-.003906-.011719-.007812-.019531-.011718-.027344-.09375-.15625-.226563-.289062-.386719-.382812zm0 0" fill="#5c616c"/></svg>