<svg height="12pt" viewBox="0 0 12 12" width="12pt" xmlns="http://www.w3.org/2000/svg"><path d="m8.699219 2.527344-1.023438 1.023437c-.332031-.117187-.679687-.203125-1.035156-.238281-.210937-.027344-.425781-.039062-.640625-.039062-.847656.007812-1.699219.203124-2.433594.621093-.292968.191407-.648437.4375-.914062.6875-.417969.410157-.773438.886719-1.015625 1.421875.355469.785156.945312 1.449219 1.660156 1.929688l-.769531.765625.773437.773437 1.019531-1.019531c.335938.117187.683594.203125 1.039063.238281 1.050781.121094 2.152344-.0625 3.074219-.582031.292968-.191406.648437-.4375.914062-.6875.417969-.40625.773438-.886719 1.015625-1.417969-.355469-.789062-.945312-1.457031-1.660156-1.933594l.769531-.769531zm-2.699219 1.839844c.246094-.007813.484375.054687.699219.164062l-2.164063 2.164062c-.175781-.363281-.234375-.785156-.097656-1.175781.203125-.671875.859375-1.164062 1.5625-1.152343zm1.46875.933593c.109375.21875.171875.453125.167969.703125.027343.960938-.933594 1.792969-1.882813 1.613282-.164062-.019532-.3125-.074219-.457031-.144532l1.054687-1.054687c.007813-.003907.011719-.011719.019532-.015625l.019531-.019532c.003906-.003906.007813-.007812.011719-.011718zm0 0" fill="#5c616c"/></svg>