<svg height="12pt" viewBox="0 0 12 12" width="12pt" xmlns="http://www.w3.org/2000/svg"><path d="m2.726562 2.730469c-.605468 0-1.089843.484375-1.089843 1.089843v4.363282c0 .605468.484375 1.089844 1.089843 1.089844h6.546876c.605468 0 1.089843-.484376 1.089843-1.089844v-4.363282c0-.605468-.484375-1.089843-1.089843-1.089843zm3.273438 1.085937c.601562 0 1.089844.488282 1.089844 1.09375 0 .601563-.488282 1.089844-1.089844 1.089844s-1.089844-.488281-1.089844-1.089844c0-.605468.488282-1.09375 1.089844-1.09375zm0 2.730469c2.183594-.003906 2.183594 1.308594 2.183594 1.308594v.328125h-4.367188v-.328125s0-1.308594 2.183594-1.308594zm0 0" fill="#5c616c"/></svg>