<svg height="12pt" viewBox="0 0 12 12" width="12pt" xmlns="http://www.w3.org/2000/svg"><path d="m6.015625 1.636719-2.179687 1.636719 2.179687 1.636718v-1.089844c1.207031 0 2.183594.976563 2.183594 2.179688 0 1.207031-.976563 2.183594-2.183594 2.183594-1.203125 0-2.179687-.976563-2.179687-2.183594 0-.300781-.246094-.542969-.546876-.542969-.300781 0-.546874.242188-.546874.542969 0 .019531.003906.039062.003906.054688.03125 1.78125 1.480468 3.21875 3.269531 3.21875 1.808594 0 3.273437-1.464844 3.273437-3.273438 0-1.804688-1.464843-3.273438-3.273437-3.273438zm0 0" fill="#5c616c"/></svg>