<svg height="12pt" viewBox="0 0 12 12" width="12pt" xmlns="http://www.w3.org/2000/svg"><path d="m4.3125 1.621094v.050781c-.738281-.078125-1.347656.101563-1.789062.449219-.445313.351562-.710938.859375-.820313 1.402344-.160156.777343-.011719 1.640624.425781 2.296874v1.800782h2.183594v-.636719c.359375.050781.730469.078125 1.113281.085937-.003906.117188-.007812.242188-.007812.359376-.003907.761718.039062 1.449218.300781 1.96875.488281.976562 1.472656 1.136718 2.410156.859374v.089844h2.183594v-2.058594c.097656-.390624.054688-.792968-.195312-1.167968-.261719-.398438-.761719-.503906-1.332032-.554688-.570312-.054687-1.253906-.03125-1.964844-.015625-.28125.003907-.550781-.019531-.835937-.019531.019531-.492188.039063-.972656.042969-1.472656 0-.433594-.011719-.859375-.058594-1.257813h.523438v-2.179687zm-.480469.578125c.136719-.007813.285157-.003907.441407.015625.015624 0 .023437.007812.039062.007812v1.578125h1.101562c.050782.382813.070313.804688.066407 1.253907-.003907.480468-.023438.96875-.039063 1.460937-.398437-.015625-.777344-.042969-1.128906-.09375v-.984375h-1.769531c-.3125-.523438-.433594-1.203125-.308594-1.804688.089844-.441406.300781-.824218.628906-1.085937.246094-.191406.558594-.324219.96875-.347656zm4.027344 4.878906c.320313 0 .617187.007813.875.03125.519531.046875.839844.179687.929687.3125.148438.226563.164063.480469.085938.742187h-1.621094v1.53125c-.742187.28125-1.539062.226563-1.921875-.539062-.179687-.359375-.246093-.992188-.246093-1.726562 0-.109376.007812-.238282.011718-.347657.289063-.003906.578125.019531.859375.011719.359375-.007812.703125-.015625 1.027344-.015625zm0 0" fill="#5c616c"/></svg>