<svg height="12pt" viewBox="0 0 12 12" width="12pt" xmlns="http://www.w3.org/2000/svg"><path d="m2.726562 2.726562v1.632813h-.542968v.003906h.542968v4.910157h6.546876v-.546876h-6v-.542968h1.636718v-.007813l.003906.007813 1.089844-1.09375h.867188l1.09375 1.09375h1.308594v-.546875h-1.085938l-1.089844-1.089844h-1.320312l-1.089844 1.089844h-1.414062v-1.089844h1.023437l1.089844-1.09375h-.773438l-.542969.546875h-.796874v-1.636719h.542968v-.003906h-.542968v-1.632813zm1.089844 0v .546876h.546875v1.636718h.546875v-2.183594zm2.457032 0c-.453126 0-.820313.367188-.820313.820313v.542969c0 .453125.367187.820312.820313.820312.453124 0 .816406-.367187.816406-.820312v-.542969c0-.453125-.363282-.820313-.816406-.820313zm2.179687 0c-.453125 0-.816406.367188-.816406.820313v.542969c0 .453125.363281.820312.816406.820312s.820313-.367187.820313-.820312v-.542969c0-.453125-.367188-.820313-.820313-.820313zm-2.179687.546876c.148437 0 .273437.121093.273437.273437v.542969c0 .152344-.125.273437-.273437.273437-.152344 0-.273438-.121093-.273438-.273437v-.542969c0-.152344.121094-.273437.273438-.273437zm2.179687 0c .152344 0 .273437.121093.273437.273437v.542969c0 .152344-.121093.273437-.273437.273437-.148437 0-.269531-.121093-.269531-.273437v-.542969c0-.152344.121094-.273437.269531-.273437zm0 0" fill="#5c616c"/></svg>