<svg height="12pt" viewBox="0 0 12 12" width="12pt" xmlns="http://www.w3.org/2000/svg"><path d="m3.273438 2.1875c-.605469 0-1.089844.484375-1.089844 1.089844v5.457031c0 .601563.484375 1.089844 1.089844 1.089844h5.453124c.605469 0 1.089844-.488281 1.089844-1.089844v-5.457031c0-.605469-.484375-1.089844-1.089844-1.089844zm2.726562 1.628906c1.203125 0 2.183594.980469 2.183594 2.183594v.273438c0 .449218-.367188.816406-.820313.816406-.242187 0-.46875-.105469-.625-.289063-.195312.175781-.453125.289063-.738281.289063-.601562 0-1.089844-.488282-1.089844-1.089844s.488282-1.089844 1.089844-1.089844 1.089844.488282 1.089844 1.089844v.273438c0 .148437.125.273437.273437.273437.152344 0 .273438-.125.273438-.273437v-.273438c0-.902344-.734375-1.636719-1.636719-1.636719s-1.636719.734375-1.636719 1.636719.734375 1.636719 1.636719 1.636719h1.363281s.273438 0 .273438.273437c-.015625.273438-.273438.273438-.273438.273438h-1.363281c-1.203125 0-2.183594-.980469-2.183594-2.183594s.980469-2.183594 2.183594-2.183594zm0 1.636719c-.300781 0-.546875.246094-.546875.546875s.246094.546875.546875.546875.546875-.246094.546875-.546875-.246094-.546875-.546875-.546875zm0 0" fill="#5c616c"/></svg>