<svg height="12pt" viewBox="0 0 12 12" width="12pt" xmlns="http://www.w3.org/2000/svg"><path d="m .816406 2v8h1.472656v-5.054688l3.191407 5.054688h1.40625v-8h-1.488281v5.074219l-3.171876-5.074219zm8.289063 1.492188c-.609375 0-1.140625.210937-1.527344.621093h-.003906c-.382813.410157-.570313.972657-.570313 1.621094 0 .785156.191406 1.410156.621094 1.8125h.003906c.382813.351563.859375.523437 1.371094.542969h-1.902344v1.308594h3.976563v-1.308594h-1.949219c.582031-.019532 1.101562-.210938 1.472656-.613282l.003906-.003906c.390626-.421875.582032-1 .582032-1.675781 0-.667969-.1875-1.242187-.566406-1.664063-.378907-.421874-.90625-.640624-1.511719-.640624zm-.019531 1.242187c.148437 0 .28125.058594.4375.226563l.003906.003906c.125.132812.21875.398437.21875.832031 0 .410156-.085938.671875-.21875.828125-.148438.171875-.277344.230469-.4375.230469-.179688 0-.304688-.0625-.445313-.238281-.121093-.160157-.207031-.4375-.207031-.851563 0-.398437.085938-.652344.207031-.800781.144531-.171875.269531-.230469.441407-.230469zm0 0" fill="#999"/></svg>