<svg height="12pt" viewBox="0 0 12 12" width="12pt" xmlns="http://www.w3.org/2000/svg"><path d="m5.425781 2.75c-.125.023438-.28125.15625-.394531.351562l-2.726562 4.722657c-.152344.261719-.167969.535156-.035157.609375l2.359375 1.367187c.132813.074219.359375-.078125.511719-.339843l2.726563-4.722657c.148437-.261719.167968-.53125.035156-.609375l-2.363282-1.363281c-.03125-.019531-.070312-.023437-.113281-.015625zm2.480469 3.792969c-.054688.15625-.132812.308593-.214844.457031-.417968.738281-1.078125 1.238281-1.140625 1.703125 0 .007813-.007812.015625-.007812.023437h.007812c-.003906.019532-.007812.035157-.007812.050782 0 .574218.609375 1.039062 1.363281 1.039062s1.363281-.464844 1.363281-1.039062c0-.015625-.003906-.03125-.003906-.050782h.003906c0-.007812-.003906-.015624-.007812-.023437-.0625-.464844-.71875-.96875-1.140625-1.703125-.082032-.148438-.15625-.300781-.214844-.457031zm0 0" fill="#5c616c"/></svg>