<svg height="12pt" viewBox="0 0 12 12" width="12pt" xmlns="http://www.w3.org/2000/svg"><path d="m6 2.050781-4.363281 4.261719.832031.847656.621094-.539062.417968 3.324218h4.984376l.417968-3.324218.621094.519531.832031-.828125zm0 2.910157c.6875 0 1.246094.558593 1.246094 1.246093s-.558594 1.246094-1.246094 1.246094-1.246094-.558594-1.246094-1.246094.558594-1.246093 1.246094-1.246093zm0 3.324218c.230469 0 .414062.1875.414062.414063 0 .230469-.183593.417969-.414062.417969s-.414062-.1875-.414062-.417969c0-.226563.183593-.414063.414062-.414063zm0 0" fill="#5c616c"/></svg>