<svg height="12pt" viewBox="0 0 12 12" width="12pt" xmlns="http://www.w3.org/2000/svg"><path d="m7.4375 2.179688c-.25.007812-.484375.15625-.601562.394531-1.050782-.066407-2.058594.566406-2.433594 1.609375-.332032.945312-1 2.164062-1.347656 2.230468-.070313.039063-.128907.101563-.160157.183594-.066406.179688.027344.378906.210938.445313l5.070312 1.816406c.183594.066406.382813-.027344.445313-.210937.03125-.082032.023437-.167969-.003906-.242188-.230469-.269531.027343-1.640625.367187-2.582031.375-1.042969-.003906-2.171875-.859375-2.789063.082031-.339844-.097656-.695312-.433594-.816406-.085937-.027344-.171875-.042969-.253906-.039062zm-2.121094 6.394531c-.164062.449219.144532.976562.6875 1.167969.542969.195312 1.113282-.015626 1.273438-.464844zm0 0" fill="#5c616c"/></svg>