<svg height="12pt" viewBox="0 0 12 12" width="12pt" xmlns="http://www.w3.org/2000/svg"><path d="m5.453125 2.183594-3.816406 3.816406h1.089843v3.816406h4.570313c-.128906-.257812-.207031-.546875-.207031-.855468 0-.761719.449218-1.410157 1.09375-1.722657v-1.238281h1.089844zm0 2.726562c.605469 0 1.09375.488282 1.09375 1.089844s-.488281 1.089844-1.09375 1.089844c1.636719 0 1.636719 1.308594 1.636719 1.308594v.328124h-3.273438v-.328124s0-1.304688 1.636719-1.308594c-.601563 0-1.089844-.488282-1.089844-1.089844s.488281-1.089844 1.089844-1.089844zm3.546875 2.179688v.46875c-.753906 0-1.363281.628906-1.363281 1.402344 0 .773437.609375 1.402343 1.363281 1.402343.746094 0 1.351562-.617187 1.363281-1.378906 0-.007813 0-.015625 0-.023437 0-.128907-.101562-.234376-.226562-.234376-.058594 0-.117188.023438-.160157.070313-.042968.042969-.066406.101563-.066406.164063 0 .515624-.40625.933593-.910156.933593s-.910156-.417969-.910156-.933593c0-.515626.40625-.933594.910156-.933594v.464844l.910156-.699219zm0 0" fill="#5c616c"/></svg>