<svg height="12pt" viewBox="0 0 12 12" width="12pt" xmlns="http://www.w3.org/2000/svg"><path d="m6 2.183594c-2.109375 0-3.816406 1.710937-3.816406 3.820312 0 2.105469 1.707031 3.816406 3.816406 3.816406s3.816406-1.710937 3.816406-3.816406c0-2.109375-1.707031-3.820312-3.816406-3.820312zm0 1.089844c.09375 0 .179688.007812.273438.019531h.019531c.058593.003906.113281.015625.167969.023437.0625.011719.121093.027344.1875.042969.140624.035156.277343.082031.410156.136719.070312.03125.132812.066406.203125.101562v.019532c.015625.003906.023437.035156.050781.050781.011719.003906.007812.011719.015625.015625.015625.011718.039063.019531.035156.035156-.003906.019531-.035156.015625-.050781.035156.003906.03125-.027344.027344-.035156.050782.007812.011718.03125.015624.035156.03125-.003906.019531-.039062.015624-.035156.035156.03125.023437.058594.003906.085937 0 .0625-.007813.117188-.003906.152344-.035156-.003906-.027344.054687-.023438.050781-.050782.019532.011719.035156.023438.054688.035156-.007813.003907-.011719.015626-.019532.015626-.011718.007812-.023437.011718-.035156.019531-.011718.007812-.03125.023437-.050781.03125-.011719.011719-.035156.054687-.050781.054687s-.039063-.023437-.050782-.019531c-.015624.007813-.015624.027344-.035156.035156-.035156.011719-.105468-.019531-.117187.035157.015625.03125.074219.015624.101562.03125.015625.011718.046875.050781.050781.070312.003907.015625.007813.085938 0 .101562-.015624.042969-.070312.035157-.117187.035157h-.035156c-.085938-.007813-.167969-.042969-.203125.015625 0 .046875.007812.078125 0 .121094-.007813.027343-.054688.058593-.054688.082031.003906.015625.03125.035156.035156.054687.003907.007813-.003906.023438 0 .03125.015626.027344.042969-.003906.070313 0 .023437.007813.050781.042969.050781.066406 0 .019532-.007812.050782-.019531.070313-.023437.035156-.066406.03125-.101563.050781-.027343.015625-.035156.058594-.050781.085938-.019531.03125-.039062.042968-.035156.085937-.023437.046875-.050781.078125-.101563.101563-.015624.007812-.035156.007812-.050781.015625-.011719.007812-.019531.035156-.035156.054687-.019531.019532-.039063.03125-.050781.050782-.007813.011718-.007813.03125-.015625.050781-.011719.023437-.035157.027343-.050781.050781-.007813.011719-.011719.035156-.019532.050781-.015625.03125-.035156.058594-.03125.085938 0 .023437.03125.027343.03125.050781.003906.011719-.015625.019531-.015625.035156 0 .019532.015625.03125.015625.050782.003906.039062-.023437.054687-.03125.082031-.003906.015625.003906.023437 0 .035156-.007812.019531-.035156.042969-.035156.066406 0 .019531.03125.027344.035156.050781 0 .019532-.019531.039063-.019531.054688.007813.027344.0625.058594.085937.082031.03125.03125.074219.054688.085938.085938.011719.027343.011719.082031.035156.101562.015625.015625.046875.019531.066406.035157.019532.015624.03125.019531.050782.035156.035156.027344.085937.089844.136718.085937.027344-.007812.054688-.03125.085938-.035156s.070312-.019531.101562-.015625c.027344.003906.058594.015625.085938.015625.027344-.003906.054688-.003906.085938-.015625.054687-.023438.140624-.0625.222656-.054688.058594.011719.058594.078126.101562.105469.046875.003907.078125-.011719.117188 0 .03125.003907.066406.042969.070312.066407 0 .023437-.03125.054687-.035156.070312-.007812.03125.003906.0625 0 .082031-.003906.015625-.019531.035157-.015625.050781 0 .015626.019531.050782.03125.070313.019531.023437.046875.042969.070313.066406.039062.046875.058593.09375.085937.15625.003906.015625-.007813.03125 0 .050781-.011719.089844-.042969.152344-.105469.253907-.027344.035156-.066406.0625-.066406.101562-.003906.097657.054688.164063.050781.257813-.007812.125.011719.136718 0 .203125.042969.023437.011719.09375 0 .136719-.019531.054687-.039062.066406-.050781.105468.027344.011719.070312.003906.101562 0 0 0-.003906 0-.003906.003906-.015625.015626-.03125.03125-.046875.042969-.117187.117188-.25.230469-.386719.324219-.011718.007812-.027343.019531-.039062.027344-.105469.070312-.21875.132812-.335938.1875-.058593.027344-.113281.054687-.171874.078125h-.003907c-.089843.039062-.183593.066406-.28125.09375-.164062.042969-.332031.074219-.503906.085937-.066406.003906-.132813.003906-.203125.003906-.101562 0-.199219-.003906-.296875-.015624-.105469-.011719-.210937-.03125-.316406-.054688-.128907-.035156-.253907-.085938-.375-.132812-.003907-.007813-.019531-.023438-.015625-.03125.027344-.011719.078125.039062.101562 0 .007813-.019532-.015625-.070313 0-.085938.007813-.015625.0625-.015625.085938-.019531.027344-.003907.066406-.007813.082031-.015625.019531-.011719.039063-.050782.035156-.085938 0-.015625-.019531-.019531-.035156-.035156-.007813-.011719.007813-.019531 0-.03125-.011719-.019531-.042969-.023438-.050781-.054688.039062-.007812.097656.035157.15625.019532.023437-.007813.070312-.0625.082031-.085938.003906-.007812-.003906-.023437 0-.03125.007813-.011718.015625-.03125.019531-.035156.003906-.015625-.003906-.007812 0-.015625.007813-.03125.035156-.050781.050782-.070313.011718-.015624.039062-.035156.050781-.050781.011719-.019531.007812-.019531.015625-.035156.007812-.050781-.027344-.09375-.015625-.136719.011719-.046875.089843-.078125.136719-.101562.015624-.007813.035156-.011719.050781-.015625.03125-.011719.070312-.023438.101562-.035157.050781-.019531.058594-.054687.085938-.101562.011719-.019531.03125-.050781.035156-.070312 0-.011719-.003906-.015626 0-.03125 0-.015626-.003906-.035157 0-.050782.003906-.023437.015625-.078125.015625-.105468 0-.019532-.015625-.03125-.015625-.050782-.003906-.070312.023437-.0625.050781-.101562.011719-.019532.023438-.054688.03125-.066406.046875-.066407.125-.089844.121094-.1875-.003906-.035157-.027344-.109376-.050781-.121094-.015625-.003906-.03125-.007813-.050781-.015625-.066407-.023438-.121094-.097657-.1875-.101563h-.035157c-.027343 0-.054687-.015625-.085937-.019531-.015625-.003906-.054688.007813-.066406 0-.019532-.007813-.019532-.042969-.035157-.050781-.011719-.007813-.035156-.011719-.050781-.019532-.027344-.007812-.035156-.027343-.066406-.03125-.011719 0-.023438.003907-.035156 0-.019532-.003906-.035157-.007812-.050782-.019531-.019531-.011719-.042968-.015625-.050781-.03125.015625-.058593-.039063-.066406-.050781-.101562-.007813-.015625.003906-.054688 0-.070313-.007813-.019531-.03125-.035156-.054688-.050781-.039062-.03125-.0625-.042969-.117187-.050781-.027344-.003906-.054688.003906-.085938 0s-.078125-.023438-.101562-.050782c-.023438-.027343-.03125-.054687-.050781-.066406-.019532-.011718-.039063-.023437-.050782-.035156-.007812-.007812-.011718-.003906-.019531-.019531-.007813-.019531-.027344-.023438-.015625-.050781-.023438-.007813-.011719.023437-.035156.019531-.019532-.03125-.035156-.0625-.085938-.050781-.019531.003906-.039062.050781-.066406.050781-.019531 0-.039062-.046875-.066406-.050781-.023438-.007813-.054688.019531-.070313.015624-.023437-.003906-.03125-.019531-.050781-.035156-.015625-.007812-.042969-.035156-.050781-.03125-.027344 0-.046875.050782-.085938.03125-.019531-.023437.039063-.027344.015625-.050781-.015625-.015625-.019531.011719-.03125.019531-.015625.007813-.035156.007813-.050781.015625-.039063.015625-.074219.019531-.105469.035157-.027344.011718-.035156.023437-.050781.050781-.011719.023437-.03125.066406-.050781.066406-.023438 0-.03125-.023437-.050782-.035156-.0625-.027344-.101562.015625-.152343.019531-.046875 0-.121094-.074219-.121094-.121094.003906-.027344.015625-.066406.019531-.101562 0-.027344.03125-.058594.03125-.085938.003906-.03125-.0625-.046875-.082031-.050781-.050781-.007813-.113281.023437-.171875 0-.011719-.019531.011719-.03125.015625-.050781.003906-.007813-.003906-.023438 0-.035156.007813-.015626.042969-.03125.050781-.050782.007813-.011718-.003906-.03125 0-.050781.007813-.019531.035156-.035156.035156-.050781.003907-.019532-.019531-.039063-.035156-.050782-.042968.003907-.074218.003907-.101562.019532-.058594.023437-.042969.097656-.101563.117187-.019531.007813-.042969.011719-.066406.019531-.011719.003907-.023437 0-.035156 0 .003906-.011718.003906-.023437.007812-.035156.003907-.003906.007813-.011718.007813-.019531.039062-.175781.101562-.347656.171875-.507813h.015625c.023437.003907.035156.03125.050781.03125.050781.007813.0625-.046874.105469-.066406.039062.003906.0625-.007812.101562 0 .023438.003906.0625.03125.085938.03125.015625 0 .015625-.019531.03125-.015625.015625.003907.050781.03125.050781.050781.003906.023438-.023437.058594-.015625.085938.027344.027344.082031.035156.121094.050781.023437-.019531.003906-.058593 0-.085937-.003906-.011719 0-.039063 0-.050782-.003906-.019531-.019532-.035156-.019532-.050781 0-.078125.066407-.105469.121094-.136719.019532-.011718.046875-.042968.066406-.050781.027344-.015625.046876-.003906.070313-.015625.039063-.023437.070313-.058594.101563-.085937.015624-.035157-.003907-.085938 0-.121094.015624-.007813.035156 0 .050781 0 .023437-.003906.035156-.035156.050781-.050781.007812-.007813.023438-.007813.035156-.015625.023438-.019531.027344-.042969.050782-.050781.007812-.007813.019531-.015626.035156-.019532s.039062-.007812.066406-.015625c.015625-.007812.0625-.011719.066406-.015625.011719-.011718 0-.039062 0-.054687.015625-.058594.101563-.0625.15625-.082031.039063-.015626.074219-.058594.117188-.050782-.007813.027344-.039063.03125-.03125.066406.007812.050782.066406-.011718.082031-.019531.035156-.011719.09375-.035156.136719-.050781.039062-.011719.105468-.023438.070312-.066406-.03125-.003906-.042968.023437-.070312.035156-.015625.003906-.019532-.015625-.03125-.019531-.015625 0-.019532.019531-.035156.019531-.015626-.007812-.03125-.035156-.035157-.054688-.003906-.042968.03125-.050781.050781-.082031-.011718-.042969-.066406-.019531-.101562-.035156.003906-.023437.023438-.046875.050781-.050781.023438-.003906.089844.003906.101563.015625.007812.007812-.011719.023437 0 .035156.015625.011719.035156.007813.050781 0 .007813-.03125-.039063-.011719-.03125-.035156.035156-.023438.105469-.007813.152344-.015625.027343-.003906.0625-.019532.085937-.035156.019532-.011719.027344-.035157.050782-.015626.003906.023438-.003907.039063-.019532.050782-.039062.039062-.085937.078125-.117187.121094.019531.019531.050781.011718.085937.015624.011719.003907.035156-.003906.050782 0 .015624.003907.039062-.003906.050781 0 .023437.003907.027343.050782.050781.050782.035156 0 .019531-.042969 0-.066406.007812-.027344.027344-.050782.015625-.070313-.015625-.035156-.082031.011719-.082031-.035156-.003906-.027344.023437-.027344.03125-.050781-.003906-.050782.039062-.054688.035156-.101563-.003906-.019531-.019531-.015625-.035156-.035156-.007813-.007813-.007813-.042969-.015625-.050781-.027344-.023438-.082031-.003907-.085938-.050782 0-.027344.003907-.054687 0-.085937-.003906-.027344-.027343-.113281-.050781-.117188-.03125-.007812-.046875.050781-.085938.066407-.019531.011718-.0625.023437-.085937.019531-.011719-.007813-.03125-.011719-.03125-.035157-.003906-.023437.023437-.035156.03125-.050781.003906-.003906 0-.011719 0-.015625.015625-.003906.027344-.007812.042969-.011718.058594-.015626.117187-.03125.175781-.042969.007813.003906.015625.003906.019531 0 .074219-.011719.148438-.023438.222656-.03125.089844-.011719.179688-.019531.273438-.019531zm-1.109375.257812c-.015625.097656-.109375.136719-.21875.136719-.027344.023437-.003906.066406-.019531.101562-.011719.027344-.054688.054688-.085938.050781-.019531 0-.050781-.03125-.050781-.050781 0-.023437.039063-.023437.019531-.050781 0-.007812.011719-.011719.015625-.019531.011719-.003907.023438-.007813.035157-.015625.097656-.058594.199218-.105469.304687-.152344zm2.285156.101562c-.007812.003907-.007812.011719-.015625.015626-.023437.015624-.035156.03125-.050781.035156-.023437.007812-.050781.015625-.050781.035156-.003906.015625.015625.019531.015625.035156-.007813.019532-.011719.023438-.015625.050782.027344.042968.082031-.011719.117187-.019532.015625-.003906.027344-.003906.035157-.015625.007812-.015625.007812-.03125.015624-.050781.007813-.023438.039063-.03125.035157-.054688-.003907-.019531-.050781-.035156-.085938-.03125zm-2.984375.339844c.027344.023438.0625.066406.019532.085938-.007813.003906-.074219.019531-.085938.015625-.003906 0-.011719-.011719-.015625-.015625.027344-.027344.054687-.058594.082031-.085938zm.105469.101563c.011719 0 .015625.035156.03125.035156s.027344-.019531.035156-.015625c.023438.003906.039063.050781.015625.066406-.015625.007813-.019531-.019531-.03125-.015625-.039062.007813-.058594.085938-.085937.085938-.027344-.007813-.042969-.066407-.015625-.085938 0-.015625-.003906-.019531 0-.035156.007812-.007813.027344-.035156.050781-.035156zm-.136719.019531c.007813 0 .011719-.007812.015625 0-.003906.027344-.011719.035156-.035156.050781-.039063.023438-.070313.050781-.082031.101563-.003906.015625-.050782.054687-.070313.050781-.042969-.007813.023438-.089844.035157-.101563l.035156-.035156c.011718-.015625.019531-.042968.03125-.050781.015625-.007813.046875-.015625.070312-.015625zm3.699219.085938c.042969-.007813.066406.039062.082031.066406.019532.023437.058594.054687.085938.070312.015625.007813.035156.023438.050781.03125.035156.015625.101563.070313.105469.101563 0 .019531-.023438.035156-.019532.054687.027344.003906.050782-.042968.050782-.070312.050781.070312.09375.144531.136718.222656.019532.035156.050782.066406.070313.101562-.027344.007813-.03125.011719-.035156.035157-.003907.03125.011719.078125-.035157.085937-.027343.003906-.0625-.027344-.101562-.035156-.015625-.007812-.039062.003906-.050781 0-.03125-.011719-.027344-.050781-.050781-.070312-.015626-.007813-.0625-.03125-.085938-.03125-.015625 0-.019531.003906-.035156 0-.015625-.007813-.050782.007812-.066406 0-.015626-.011719-.046876-.039063-.050782-.050782-.007812-.023437.050782-.035156.050782-.054687 0-.011719-.015626-.027344-.019532-.050781 0-.011719.003906-.023438 0-.03125 0-.015626-.027344-.019532-.050781-.019532h-.050781c-.023438 0-.070313-.003906-.101563 0h-.050781c-.046875.007813-.082031-.003906-.121094 0-.023437 0-.074218.023438-.101562.035156-.011719.007813-.015625.007813-.03125.015626-.007813.007812-.027344.015624-.035156.019531-.015626.007812-.039063.027343-.050782.03125-.023437.007812-.046875-.003907-.085937 0-.027344 0-.066407-.015625-.070313-.050781 0-.050782.089844-.023438.136719-.03125.019531-.007813.03125-.023438.050781-.035157.011719-.007812.007813-.011719.019532-.015625.015624-.011718.046874-.039062.050781-.054687 0-.011719-.003907-.023438 0-.03125 0-.011719.019531-.019531.035156-.035157.023437-.023437.039063-.054687.066406-.066406.019531-.011718.042969-.019531.050781-.035156.003907-.015625 0-.015625 0-.035156.011719-.007813.023438-.011719.035157-.015625.027343-.007813.050781 0 .085937 0 .011719 0 .035156.007812.050782 0 .011718-.007813.019531-.027344.035156-.035157.011718-.007812.03125-.015624.050781-.015624zm.304687.324218h-.066406c-.023437 0-.054687-.015625-.070312 0 .019531.03125.058594.042969.101562.050782.019532-.011719.027344-.03125.035156-.050782zm-3.730468-.308594h.050781c.011719 0 .027344-.003906.03125 0-.007813.035157-.089844.03125-.117187.015626 0-.011719.015624-.011719.035156-.015626zm-.121094.066407c-.023438.019531-.046875.042969-.085938.054687-.019531.003906-.046874.003906-.050781-.019531-.003906-.027344.03125-.011719.050781-.015625.023438-.007812.058594-.015625.085938-.019531zm3.546875 0c-.019531.007812-.027344.046875 0 .054687.011719-.007812.019531-.03125.015625-.054687-.007812-.007813-.011719-.003907-.015625 0zm-.035156.085937c0 .03125.003906.058594 0 .085938.015625.035156.058593.007812.066406-.015625.011719-.058594-.007813-.078125-.03125-.070313-.011719.007813-.027344-.007812-.035156 0zm-4.515625 1.28125c.027344.027344.046875.066406.082031.082032.015625.007812.035156.015624.050781.019531.015625.003906.023438-.003907.035156 0 .03125.007812.0625.023437.085938.03125.035156.015625.070312.070312.101562.085937.003907.019532-.003906.039063 0 .050782.015626.019531.027344.039062.050782.050781.027344.015625.042968.039062.070312.054687.007813.003906.019532-.007812.03125 0 .039063.007813.054688.058594.085938.050782.019531-.007813.015625-.03125.019531-.050782.011719-.015625.027344-.035156.050781-.035156.03125 0 .039063.050781.050782.085938.007812.015624.027343.03125.035156.050781.007812.03125.003906.132812 0 .152343-.011719.023438-.050782.023438-.070313.050782-.007812.011718-.007812.042968-.015625.050781-.015625.015625-.023437.019531-.035156.035156-.003906.007813-.011719.023438-.015625.035157-.019531.035156-.050781.058593-.035156.101562.003906.015625.035156.03125.035156.050781 0 .023438-.046875.042969-.050781.066407-.003906.019531.007812.042968.015625.070312.003906.019531.039062.039062.050781.050781.019531.019531.035156.058594.050781.085938.035157.050781.050781.117187.085938.167969.019531.027343.054687.042968.066406.070312.007813.011719-.003906.039062 0 .050781.019531.042969.109375.097657.15625.117188.019531.011719.046875.007812.066406.019531.027344.015625.089844.058594.101563.085938.015625.023437.011718.082031.019531.117187.007813.046875-.003906.085937 0 .136719 0 .027344.015625.039062.015625.070312v.050782c0 .035156.003906.066406 0 .101562v.050781c0 .015625.015625.019531.015625.035157.003906.015624-.015625.039062-.015625.050781.003906.035156.027344.050781.035156.085937.003906.023438.019532.085938.015625.117188 0 .015625-.015625.035156-.015625.050781-.003906.015625 0 .023437 0 .035156-.003906.011719 0 .019531 0 .027344-.023437-.011719-.042968-.023437-.0625-.035156-.140625-.097657-.277344-.214844-.398437-.332031-.015625-.019532-.035157-.035157-.050781-.050782-.097657-.105468-.191407-.222656-.273438-.34375-.007812-.007812-.011719-.023437-.015625-.03125-.097656-.144531-.171875-.285156-.238281-.445312-.007813-.011719-.015625-.023438-.019532-.035156-.058593-.140626-.101562-.289063-.136718-.441407-.003906-.027343-.011719-.054687-.015625-.085937-.015625-.074219-.027344-.148438-.035157-.222656-.007812-.089844-.015624-.175782-.015624-.269532 0-.132812.015624-.253906.035156-.375zm1.054687.289063c.027344-.011719.023438.03125 0 .03125-.019531.007812-.019531-.023438 0-.03125zm0 0" fill="#5c616c"/></svg>