<svg height="12pt" viewBox="0 0 12 12" width="12pt" xmlns="http://www.w3.org/2000/svg"><path d="m5.175781 2.179688c-1.652343 0-3 1.351562-3 3 0 1.648437 1.347657 3 3 3 .628907 0 1.222657-.195313 1.707031-.527344l2.007813 2.011718c.140625.136719.34375.191407.535156.136719.1875-.050781.335938-.203125.382813-.394531.050781-.1875-.007813-.390625-.148438-.527344l-2.011718-2.011718c.332031-.484376.546874-1.058594.546874-1.6875 0-1.648438-1.367187-3-3.019531-3zm0 1.089843c1.0625 0 1.910157.847657 1.910157 1.910157s-.847657 1.910156-1.910157 1.910156-1.910156-.847656-1.910156-1.910156.847656-1.910157 1.910156-1.910157zm0 0" fill="#5c616c"/></svg>