<svg height="12pt" viewBox="0 0 12 12" width="12pt" xmlns="http://www.w3.org/2000/svg"><path d="m2.835938.71875h6.472656c1.164062 0 2.113281.949219 2.113281 2.117188v6.472656c0 1.164062-.949219 2.113281-2.113281 2.113281h-6.472656c-1.167969 0-2.117188-.949219-2.117188-2.113281v-6.472656c0-1.167969.949219-2.117188 2.117188-2.117188zm0 0" fill="#c88937" fill-rule="evenodd"/><path d="m6.449219 1.917969v3.773437h3.777343c-.183593-2.003906-1.773437-3.589844-3.777343-3.773437zm-.757813 0c-2.003906.183593-3.589844 1.769531-3.773437 3.773437h3.773437zm-3.773437 4.53125c.183593 2.003906 1.769531 3.59375 3.773437 3.777343v-3.777343zm4.53125 0v3.777343c2.003906-.183593 3.59375-1.773437 3.777343-3.777343zm0 0" fill="#ddc450"/></svg>