<svg height="12pt" viewBox="0 0 12 12" width="12pt" xmlns="http://www.w3.org/2000/svg"><g fill-rule="evenodd"><path d="m2.800781.710938h6.398438c1.152343 0 2.089843.9375 2.089843 2.089843v6.398438c0 1.152343-.9375 2.089843-2.089843 2.089843h-6.398438c-1.152343 0-2.089843-.9375-2.089843-2.089843v-6.398438c0-1.152343.9375-2.089843 2.089843-2.089843zm0 0" fill="#fff"/><path d="m10.675781 1.324219-9.351562 9.351562c.375.378907.898437.613281 1.476562.613281h6.398438c1.15625 0 2.089843-.933593 2.089843-2.089843v-6.398438c0-.578125-.234374-1.097656-.613281-1.476562zm0 0" fill="#6573c3"/><path d="m10.675781 1.324219c-.375-.378907-.898437-.613281-1.476562-.613281h-6.398438c-1.15625 0-2.089843.933593-2.089843 2.089843v6.398438c0 .578125.234374 1.101562.613281 1.476562zm0 0" fill="#848fcf"/></g><path d="m3.085938 8.914062 2.550781-3.277343.726562.726562zm0 0" fill="#f2f2f2"/><path d="m8.914062 3.085938-3.277343 2.550781.726562.726562zm0 0" fill="#f34235"/></svg>