<svg height="12pt" viewBox="0 0 12 12" width="12pt" xmlns="http://www.w3.org/2000/svg"><path d="m2.800781.710938h6.398438c1.152343 0 2.089843.9375 2.089843 2.089843v6.398438c0 1.152343-.9375 2.089843-2.089843 2.089843h-6.398438c-1.152343 0-2.089843-.9375-2.089843-2.089843v-6.398438c0-1.152343.9375-2.089843 2.089843-2.089843zm0 0" fill="#666" fill-rule="evenodd"/><path d="m6.023438 2.171875c-.496094 0-1 .09375-1.492188.296875-1.953125.8125-2.875 3.042969-2.0625 5 .8125 1.953125 3.042969 2.875 5 2.0625 1.953125-.8125 2.875-3.042969 2.0625-4.996094-.609375-1.46875-2.015625-2.355468-3.507812-2.363281zm-.023438 1.640625c1.207031 0 2.1875.980469 2.1875 2.1875s-.980469 2.1875-2.1875 2.1875-2.1875-.980469-2.1875-2.1875.980469-2.1875 2.1875-2.1875zm0 0" fill="#ccc"/><path d="m6.023438 2.171875c-.460938 0-.929688.082031-1.382813.257813l.582031 1.527343c.246094-.09375.511719-.144531.777344-.144531s.527344.050781.777344.144531l.582031-1.53125c-.421875-.160156-.875-.25-1.335937-.253906zm-3.59375 2.46875c-.175782.453125-.257813.921875-.253907 1.382813 0 .460937.089844.914062.253907 1.335937l1.527343-.582031c-.09375-.246094-.144531-.511719-.144531-.777344.003906-.265625.050781-.53125.148438-.777344zm7.140624 0-1.527343.582031c.09375.246094.144531.511719.144531.777344s-.050781.527344-.144531.777344l1.527343.582031c.164063-.421875.253907-.875.253907-1.335937.003906-.460938-.078125-.929688-.253907-1.382813zm-4.347656 3.402344-.582031 1.527343c.453125.175782.921875.257813 1.382813.257813.460937-.003906.914062-.09375 1.335937-.253906l-.582031-1.53125c-.246094.09375-.511719.144531-.777344.144531s-.527344-.050781-.777344-.144531zm0 0" fill="#e74c3c"/></svg>