<svg height="12pt" viewBox="0 0 12 12" width="12pt" xmlns="http://www.w3.org/2000/svg"><path d="m2.835938.71875h6.472656c1.164062 0 2.113281.949219 2.113281 2.117188v6.472656c0 1.164062-.949219 2.113281-2.113281 2.113281h-6.472656c-1.167969 0-2.117188-.949219-2.117188-2.113281v-6.472656c0-1.167969.949219-2.117188 2.117188-2.117188zm0 0" fill="#848484" fill-rule="evenodd"/><path d="m6.019531 3.671875c-1.316406 0-2.382812 1.066406-2.382812 2.378906 0 1.316407 1.066406 2.382813 2.382812 2.382813 1.3125 0 2.378907-1.066406 2.378907-2.382813 0-1.3125-1.066407-2.378906-2.378907-2.378906zm0 1.425781c.527344 0 .949219.425782.949219.953125 0 .527344-.421875.953125-.949219.953125-.527343 0-.953125-.425781-.953125-.953125 0-.527343.425782-.953125.953125-.953125zm0 0" fill="#848484"/><path d="m6.019531 1.605469c-2.460937 0-4.441406 1.984375-4.441406 4.445312 0 2.460938 1.980469 4.441407 4.441406 4.441407 2.460938 0 4.445313-1.980469 4.445313-4.441407 0-2.460937-1.984375-4.445312-4.445313-4.445312zm0 2.539062c1.050781 0 1.90625.855469 1.90625 1.90625 0 1.054688-.855469 1.902344-1.90625 1.902344-1.054687 0-1.902343-.847656-1.902343-1.902344 0-1.050781.847656-1.90625 1.902343-1.90625zm0 0" fill="#fff"/><path d="m11.097656 8.273438c0 1.398437-1.136718 2.539062-2.539062 2.539062-1.40625 0-2.539063-1.140625-2.539063-2.539062 0-1.402344 1.132813-2.539063 2.539063-2.539063 1.402344 0 2.539062 1.136719 2.539062 2.539063zm0 0" fill="#ba22ff"/><path d="m7.289062 8.378906c0 .699219.566407 1.269532 1.269532 1.269532.695312 0 1.253906-.558594 1.269531-1.25 0-.003907 0-.015626 0-.019532 0-.117187-.097656-.210937-.214844-.210937-.117187 0-.210937.09375-.210937.210937 0 .464844-.375.84375-.84375.84375s-.847656-.378906-.847656-.84375c0-.46875.378906-.84375.847656-.84375v.417969l.84375-.632813-.84375-.636718v.425781c-.703125 0-1.269532.570313-1.269532 1.269531zm0 0" fill="#fff"/></svg>