<svg height="12pt" viewBox="0 0 12 12" width="12pt" xmlns="http://www.w3.org/2000/svg"><path d="m2.800781.710938h6.398438c1.152343 0 2.089843.9375 2.089843 2.089843v6.398438c0 1.152343-.9375 2.089843-2.089843 2.089843h-6.398438c-1.152343 0-2.089843-.9375-2.089843-2.089843v-6.398438c0-1.152343.9375-2.089843 2.089843-2.089843zm0 0" fill="#256ed5" fill-rule="evenodd"/><path d="m4 4.207031c1.554688-.019531 2.300781-.390625 3.050781-.761719.9375.609376 1.972657.71875 3.011719.800782.570312 4.707031-1.496094 5.5625-2.972656 6.214844-2.617188-.894532-3.636719-2.988282-3.089844-6.253907zm0 0" fill="#fff"/><path d="m4.65625 4.804688c1.214844-.015626 1.796875-.304688 2.386719-.597657.730469.476563 1.539062.566407 2.355469.628907.445312 3.683593-1.171876 4.351562-2.328126 4.863281-2.046874-.699219-2.84375-2.339844-2.414062-4.894531zm0 0" fill="#c73439"/><path d="m3.402344 1.539062c-.359375 0-.65625.296876-.65625.65625 0 .367188.300781.660157.65625.660157.359375 0 .660156-.292969.660156-.660157 0-.359374-.296875-.65625-.660156-.65625zm-.183594 1.761719-.023438.003907-1.355468.292968v.582032l.601562.113281-.421875 2.140625c-.035156.183594-.050781.332031-.050781.453125 0 .210937.050781.410156.1875.554687.140625.140625.339844.199219.546875.199219.351563 0 .757813-.105469 1.210937-.292969l.140626-.058594v-.714843l-.300782.09375c-.234375.078125-.40625.109375-.515625.109375-.09375 0-.132812-.019532-.140625-.027344-.007812-.003906-.011718 0-.011718-.050781 0-.023438.003906-.078125.019531-.15625v-.003907l.625-3.238281zm0 0" fill="#fff"/><path d="m6.269531 5.570312-.644531.644532.734375.738281-.734375.738281.644531.644532.738281-.734376.738282.734376.648437-.644532-.738281-.738281.738281-.738281-.648437-.644532-.738282.734376zm0 0" fill="#fff"/></svg>