<svg height="12pt" viewBox="0 0 12 12" width="12pt" xmlns="http://www.w3.org/2000/svg"><path d="m2.835938.71875h6.472656c1.164062 0 2.113281.949219 2.113281 2.117188v6.472656c0 1.164062-.949219 2.113281-2.113281 2.113281h-6.472656c-1.167969 0-2.117188-.949219-2.117188-2.113281v-6.472656c0-1.167969.949219-2.117188 2.117188-2.117188zm0 0" fill="#fecd38" fill-rule="evenodd"/><path d="m7.999053 25.996435h11.968847s6.035077.347342 6.035077-4.99305c0-5.340393-6.035077-4.99305-6.035077-4.99305h-8.553312s-6.411365.361815-6.411365-4.978577c0-5.354865 6.411365-4.99305 6.411365-4.99305h11.592559" fill="none" stroke="#fff" stroke-linecap="round" stroke-linejoin="round" stroke-width="4" transform="matrix(.269906 0 0 .269906 1.887879 1.752926)"/><path d="m16.002405 2.99946v26.007277" fill="none" stroke="#fff" stroke-linecap="round" stroke-linejoin="round" stroke-width="4" transform="matrix(.269906 0 0 .269906 1.887879 1.752926)"/></svg>