<svg height="12pt" viewBox="0 0 12 12" width="12pt" xmlns="http://www.w3.org/2000/svg"><path d="m2.800781.710938h6.398438c1.152343 0 2.089843.9375 2.089843 2.089843v6.398438c0 1.152343-.9375 2.089843-2.089843 2.089843h-6.398438c-1.152343 0-2.089843-.9375-2.089843-2.089843v-6.398438c0-1.152343.9375-2.089843 2.089843-2.089843zm0 0" fill="#5e5e5e" fill-rule="evenodd"/><path d="m6 2.25c-2.070312 0-3.75 1.679688-3.75 3.75s1.679688 3.75 3.75 3.75 3.75-1.679688 3.75-3.75-1.679688-3.75-3.75-3.75zm0 0" fill="#4f4f4f"/><path d="m6 3c-1.65625 0-3 1.34375-3 3s1.34375 3 3 3 3-1.34375 3-3-1.34375-3-3-3zm0 0" fill="#fec006"/><path d="m6 4.5c-.828125 0-1.5.671875-1.5 1.5s.671875 1.5 1.5 1.5 1.5-.671875 1.5-1.5-.671875-1.5-1.5-1.5zm0 0" fill="#4f4f4f"/></svg>