<svg height="17pt" viewBox="0 0 17 17" width="17pt" xmlns="http://www.w3.org/2000/svg"><path d="m3.972656 1.007812c-1.644531 0-2.964844 1.320313-2.964844 2.960938v2.859375c.0625-.140625.027344-.144531.109376-.292969.207031-.375.480468-.753906.835937-1.035156.179687-.140625.378906-.257812.597656-.34375.222657-.082031.46875-.128906.738281-.128906.339844 0 .625.105468.867188.285156.238281.183594.441406.441406.613281.753906.339844.625.574219 1.457032.808594 2.292969.234375.832031.476563 1.667969.835937 2.296875.179688.3125.386719.574219.644532.761719.253906.183593.550781.289062.90625.292969.445312.003906.871094-.132813 1.285156-.339844.414062-.207032.820312-.488282 1.230469-.765625.40625-.28125.816406-.5625 1.238281-.769531.421875-.210938.855469-.351563 1.316406-.351563.917969 0 1.695313.21875 2.246094.441406.449219.179688.617188.296875.710938.359375v-6.316406c0-1.640625-1.320313-2.960938-2.960938-2.960938zm0 0" fill="#4f4f4f" fill-rule="evenodd"/><g fill-opacity=".254902"><path d="m1.007812 9.964844h14.984376v1.0625h-14.984376zm0 0"/><path d="m1.007812 3.28125h14.984376v1.0625h-14.984376zm0 0"/><path d="m1.007812 7.53125h14.984376v1.0625h-14.984376zm0 0"/><path d="m1.007812 5.40625h14.984376v1.0625h-14.984376zm0 0"/></g><path d="m15.992188 10.285156c-.09375-.0625-.261719-.179687-.710938-.359375-.550781-.222656-1.328125-.441406-2.246094-.441406-.460937 0-.894531.140625-1.316406.351563-.421875.207031-.832031.488281-1.238281.769531-.410157.277343-.816407.558593-1.230469.765625-.414062.207031-.839844.34375-1.285156.339844-.355469-.003907-.652344-.109376-.90625-.292969-.257813-.1875-.464844-.449219-.644532-.761719-.359374-.628906-.601562-1.464844-.835937-2.296875-.234375-.835937-.46875-1.667969-.808594-2.292969-.171875-.3125-.375-.570312-.613281-.753906-.242188-.179688-.527344-.285156-.867188-.285156-.269531 0-.515624.046875-.738281.128906-.21875.085938-.417969.203125-.597656.34375-.355469.28125-.628906.660156-.835937 1.035156-.082032.148438-.046876.152344-.109376.292969v6.199219c0 1.644531 1.320313 2.964844 2.964844 2.964844h9.058594c1.640625 0 2.960938-1.320313 2.960938-2.964844zm0 0" fill="#47da72" fill-rule="evenodd"/><path d="m3.628906 2.90625c2.625 0 1.75 6.347656 4.496094 6.375 1.710938.015625 3.105469-2.125 4.871094-2.125 1.761718 0 2.996094.84375 2.996094.84375v.53125s-1.234376-.84375-2.996094-.84375c-1.765625 0-3.160156 2.140625-4.871094 2.125-2.746094-.027344-1.871094-6.375-4.496094-6.375-2.066406 0-2.621094 2.878906-2.621094 2.878906v-.53125s.554688-2.878906 2.621094-2.878906zm0 0" fill="#808080"/></svg>