<svg height="32" width="32" xmlns="http://www.w3.org/2000/svg"><rect fill="#f79735" fill-rule="evenodd" height="28.203388" ry="5.575182" width="28.203388" x="1.898306" y="1.898306"/><path d="m16.017555 8.0070238c-.7789-.0077-1.552534.103361-2.302734.300781-3.4966.9006-5.7678575 4.2083472-5.7148445 7.6855472h-2l3 4.013672 3.0000005-4.013672h-2.0000005c-.0067-1.4563.2287815-2.907041 1.2382815-3.99414 1.7614-1.9918 5.255344-2.8069972 7.777344-1.341797.837809 1.0529 2.696943-.103794 1.720703-1.1835942-1.3886-1.03847-2.96555-1.463097-4.71875-1.466797zm6.982422 3.9863282-3 4.013672h2c .0067 1.4563-.228782 2.907041-1.238281 3.994141-1.897501 2.19064-5.255344 2.806996-7.777344 1.341797-.83781-1.052901-2.696943.10184-1.720703 1.18164 1.388599 1.03847 2.96555 1.46505 4.71875 1.46875l.002-.002c.7789.0078 1.550581-.101408 2.300781-.298828 3.4966-.9006 5.767854-4.208347 5.714844-7.685547h2z" fill="#3f3f3f"/></svg>