<svg height="12pt" viewBox="0 0 12 12" width="12pt" xmlns="http://www.w3.org/2000/svg"><path d="m2.835938.71875h6.472656c1.164062 0 2.113281.949219 2.113281 2.117188v6.472656c0 1.164062-.949219 2.113281-2.113281 2.113281h-6.472656c-1.167969 0-2.117188-.949219-2.117188-2.113281v-6.472656c0-1.167969.949219-2.117188 2.117188-2.117188zm0 0" fill="#c2352a" fill-rule="evenodd"/><path d="m6.070312 2.300781-1.882812 3.769531-1.886719 3.769532h1.347657v-.539063h.269531v.539063h.539062v-1.074219h.269531v1.074219h.539063v-2.152344h.265625v2.152344h.539062v-1.613282h.269532v1.613282h.539062v-1.074219h.269532v1.074219h.539062v-.539063h.265625v.539063h.539063v-.269532h.273437v.269532h1.074219l-1.886719-3.769532zm0 0" fill="#fff"/></svg>