<svg height="12pt" viewBox="0 0 12 12" width="12pt" xmlns="http://www.w3.org/2000/svg"><path d="m2.835938.71875h6.472656c1.164062 0 2.113281.949219 2.113281 2.117188v6.472656c0 1.164062-.949219 2.113281-2.113281 2.113281h-6.472656c-1.167969 0-2.117188-.949219-2.117188-2.113281v-6.472656c0-1.167969.949219-2.117188 2.117188-2.117188zm0 0" fill="#19979d" fill-rule="evenodd"/><path d="m4.125 4.175781c-.242188 0-.480469.046875-.703125.140625s-.429687.234375-.601563.40625c-.167968.175782-.308593.386719-.402343.617188-.09375.230468-.140625.480468-.140625.730468 0 .253907.046875.5.140625.730469s.234375.441407.402343.617188c.171876.175781.378907.3125.601563.40625.214844.089843.449219.140625.683594.140625h.019531c.570312.027344 1.03125-.195313 1.367188-.527344.234374-.226562.414062-.492188.578124-.761719.164063.269531.347657.535157.578126.761719.339843.332031.796874.554688 1.371093.527344h.015625c.234375 0 .46875-.050782.6875-.140625.222656-.09375.425782-.230469.597656-.40625v-.003907c.171876-.175781.3125-.382812.402344-.613281.097656-.230469.144532-.480469.144532-.730469s-.046876-.5-.144532-.730468v-.003906c-.09375-.226563-.230468-.4375-.402344-.613282-.171874-.171875-.375-.3125-.597656-.40625s-.464844-.140625-.703125-.140625c-.601562 0-1.082031.246094-1.433593.589844-.199219.199219-.363282.425781-.515626.660156-.148437-.234375-.3125-.460937-.515624-.660156-.351563-.34375-.828126-.589844-1.429688-.589844zm.070312.757813c.425782 0 .699219.144531.949219.382812.199219.191406.375.449219.546875.730469-.199218.328125-.386718.628906-.601562.832031-.238282.226563-.480469.351563-.882813.328125h-.011719c-.15625 0-.308593-.03125-.449218-.085937-.136719-.058594-.265625-.144532-.371094-.246094l-.003906-.003906c-.105469-.105469-.191406-.234375-.25-.371094s-.085938-.285156-.085938-.429688c0-.148437.027344-.292968.085938-.429687s.144531-.265625.25-.371094l.003906-.003906c.105469-.105469.234375-.1875.371094-.242187.140625-.058594.292968-.089844.449218-.089844zm3.753907 0c .152343 0 .308593.03125.445312.089844.140625.054687.265625.136718.371094.242187l.007813.003906c.105468.105469.191406.234375.246093.371094.058594.136719.085938.28125.085938.429687 0 .144532-.027344.292969-.085938.429688-.054687.136719-.140625.261719-.246093.371094l-.007813.003906c-.101563.101562-.230469.1875-.371094.246094-.136719.054687-.292969.085937-.445312.085937h-.015625c-.398438.023438-.644532-.101562-.878906-.328125-.214844-.203125-.40625-.503906-.605469-.832031.175781-.28125.347656-.539063.546875-.730469.253906-.238281.527344-.382812.953125-.382812zm-.359375.378906v.378906h-.378906v.757813h.378906v.382812h.757812v-.382812h.378906v-.757813h-.378906v-.378906zm-4.175782.378906v.757813h1.519532v-.757813zm0 0" fill="#79ff88"/></svg>