<svg height="12pt" viewBox="0 0 12 12" width="12pt" xmlns="http://www.w3.org/2000/svg"><path d="m2.835938.71875h6.472656c1.164062 0 2.113281.949219 2.113281 2.117188v6.472656c0 1.164062-.949219 2.113281-2.113281 2.113281h-6.472656c-1.167969 0-2.117188-.949219-2.117188-2.113281v-6.472656c0-1.167969.949219-2.117188 2.117188-2.117188zm0 0" fill="#75676a" fill-rule="evenodd"/><path d="m6.652344 6.171875c0 .238281-.191406.433594-.433594.433594-.238281 0-.433594-.195313-.433594-.433594s.195313-.433594.433594-.433594c.242188 0 .433594.195313.433594.433594" fill="#fff"/><path d="m7.347656 9.472656c-.566406-.09375-1.308594-.746094-1.980468-1.742187-.28125-.421875-.570313-.941407-.761719-1.367188-.035157-.085937-.050781-.105469-.0625-.09375-.023438.023438-.1875.382813-.273438.597657-.144531.359374-.25.703124-.308593 1.03125-.039063.207031-.039063.605468-.003907.730468.082031.289063.257813.410156.53125.363282.199219-.03125.4375-.140626.695313-.316407.113281-.074219.144531-.085937.1875-.085937.066406 0 .117187.035156.140625.097656.015625.046875.015625.058594 0 .101562-.015625.042969-.042969.0625-.160157.144532-.167968.113281-.449218.257812-.59375.300781-.378906.125-.671874.078125-.882812-.128906-.191406-.195313-.269531-.507813-.246094-.9375.03125-.566407.28125-1.335938.671875-2.09375l.097657-.1875-.074219-.203125c-.070313-.191406-.207031-.636719-.207031-.667969 0-.027344-.046876-.019531-.234376.023437-.429687.105469-.753906.242188-.984374.414063-.453126.34375-.332032.722656.347656 1.105469.109375.0625.128906.09375.128906.175781 0 .039063-.003906.058594-.039062.09375-.074219.070313-.144532.058594-.371094-.085937-.332032-.203126-.542969-.4375-.617188-.683594-.027344-.089844-.027344-.273438 0-.363282.039063-.132812.105469-.238281.226563-.355468.261719-.265625.703125-.472656 1.308593-.613282.125-.027343.15625-.039062.148438-.054687-.003906-.007813-.015625-.078125-.03125-.15625-.082031-.441406-.085938-.945313-.003906-1.230469.089844-.320312.253906-.515625.515625-.605468.105469-.035157.320312-.027344.46875.011718.148437.046875.328125.136719.492187.242188.195313.132812.25.1875.257813.25.019531.140625-.128907.21875-.25.128906-.378907-.28125-.652344-.390625-.871094-.34375-.15625.035156-.277344.195312-.335937.453125-.027344.109375-.03125.15625-.03125.414063 0 .292968.003906.339843.058593.648437l.027344.152344.0625-.007813c.292969-.035156.542969-.058594.695313-.070312l.183593-.007813.03125-.035156c.308594-.398437.757813-.867187 1.101563-1.140625.652344-.523438 1.214844-.703125 1.601562-.519531.21875.105469.355469.320312.410156.640625.035157.210937.007813.703125-.050781.84375-.015625.046875-.078125.078125-.140625.078125-.042968 0-.0625-.007813-.09375-.035157-.039062-.03125-.039062-.042968-.039062-.109374 0-.039063.007812-.15625.019531-.253907.039063-.285156.011719-.558593-.066406-.710937-.039063-.078125-.117188-.15625-.1875-.1875-.046875-.027344-.078125-.03125-.195313-.03125-.125 0-.148437.003906-.269531.050781-.382813.125-.820313.441406-1.289063.917969-.089843.09375-.222656.238281-.296874.324218l-.140626.152344.121094.007813c1.652344.039062 3.046875.417969 3.703125 1.007812.148438.132813.277344.332031.3125.484375.019531.078125.019531.230469 0 .3125-.066406.296875-.394531.59375-.878906.785156-.078125.03125-.089844.03125-.132813.019532-.066406-.019532-.113281-.078125-.113281-.144532 0-.078124.039063-.117187.175781-.175781.300782-.125.53125-.300781.621094-.46875.03125-.058593.035156-.078125.035156-.175781 0-.09375-.003906-.113281-.042968-.183594-.054688-.105468-.230469-.28125-.378906-.378906-.714844-.472656-2.070313-.78125-3.4375-.78125h-.222657l-.085937.113281c-.128906.175781-.402344.59375-.511719.78125l-.097656.164063.066406.152344c.667969 1.53125 1.703125 2.828124 2.464844 3.082031.167969.058593.292969.058593.394531.007812.191406-.09375.289062-.335937.308594-.738281.023437-.675781-.21875-1.613281-.675782-2.578125-.046874-.101563-.074218-.175781-.074218-.207031 0-.078125.066406-.144532.152344-.140625.074218 0 .105468.027343.164062.148437.367188.769532.613281 1.542969.707031 2.21875.027344.222656.027344.6875 0 .851563-.050781.265625-.140625.457031-.273437.59375-.164063.160156-.371094.222656-.625.183593m-2.636719-4.117187c.046875-.078125.136719-.214844.203125-.304687.0625-.097657.113281-.175782.113281-.183594 0-.015625-.589843.046875-.605469.0625-.011718.011718.023438.140625.101563.382812.054687.175782.074219.210938.085937.199219.011719-.011719.054688-.082031.101563-.15625" fill="#fff"/></svg>