<svg height="12pt" viewBox="0 0 12 12" width="12pt" xmlns="http://www.w3.org/2000/svg"><path d="m2.800781.710938h6.398438c1.152343 0 2.089843.9375 2.089843 2.089843v6.398438c0 1.152343-.9375 2.089843-2.089843 2.089843h-6.398438c-1.152343 0-2.089843-.9375-2.089843-2.089843v-6.398438c0-1.152343.9375-2.089843 2.089843-2.089843zm0 0" fill="#ecf0f1" fill-rule="evenodd"/><path d="m5.378906 8.109375c.007813.65625-.382812 1.253906-.988281 1.507813-.605469.257812-1.304687.117187-1.769531-.34375l1.140625-1.144532zm0 0" fill="#005ab1"/><path d="m2.605469 7c .460937-.46875 1.15625-.613281 1.765625-.367188.609375.25 1.007812.839844 1.007812 1.496094h-1.617187zm0 0" fill="#00bd9c"/><path d="m2.632812 9.285156c-.308593-.300781-.480468-.714844-.484374-1.144531-.003907-.433594.167968-.847656.472656-1.152344l1.140625 1.140625zm0 0" fill="#f4cc20"/><path d="m3.78125 9.746094c-.433594.003906-.851562-.167969-1.160156-.472656l1.140625-1.144532zm0 0" fill="#f44a20"/><path d="m2.285156 3.269531h1.054688v2.265625h-1.054688zm0 0" fill="#e94b35"/><path d="m3.5625 3.710938h1.050781v1.824218h-1.050781zm0 0" fill="#f4cc20"/><path d="m4.839844 4.136719h1.050781v1.398437h-1.050781zm0 0" fill="#2b3e51"/><path d="m6.113281 2.0625h1.050781v3.472656h-1.050781zm0 0" fill="#00bd9c"/><path d="m2.199219 6.085938h7.527343v-.214844h-7.527343zm0 0" fill="#bdc3c7"/><path d="m7.410156 2.777344h1.050782v2.769531h-1.050782zm0 0" fill="#004d9c"/><path d="m8.667969 3.769531h1.054687v1.777344h-1.054687zm0 0" fill="#2b9c51"/><path d="m6.761719 7.824219c0 .171875-.136719.3125-.308594.3125s-.3125-.140625-.3125-.3125.140625-.308594.3125-.308594.308594.136719.308594.308594zm0 0" fill="#e94b35"/><path d="m6.761719 8.582031c0 .171875-.136719.3125-.308594.3125s-.3125-.140625-.3125-.3125.140625-.308593.3125-.308593.308594.136718.308594.308593zm0 0" fill="#2b9c51"/><g fill="#bdc3c7"><path d="m6.96875 7.160156h2.769531v-.214844h-2.769531zm0 0"/><path d="m6.96875 7.921875h1.824219v-.214844h-1.824219zm0 0"/><path d="m6.96875 8.679688h2.246094v-.210938h-2.246094zm0 0"/></g><path d="m6.761719 9.335938c0 .167968-.136719.308593-.308594.308593s-.3125-.140625-.3125-.308593c0-.171876.140625-.3125.3125-.3125s.308594.140624.308594.3125zm0 0" fill="#2b3e51"/><path d="m6.96875 9.441406h1.640625v-.214844h-1.640625zm0 0" fill="#bdc3c7"/><path d="m6.75 7.03125c0 .171875-.140625.3125-.3125.3125s-.308594-.140625-.308594-.3125.136719-.308594.308594-.308594.3125.136719.3125.308594zm0 0" fill="#f4cc20"/></svg>