<svg height="12pt" viewBox="0 0 12 12" width="12pt" xmlns="http://www.w3.org/2000/svg"><path d="m2.835938.71875h6.472656c1.164062 0 2.113281.949219 2.113281 2.117188v6.472656c0 1.164062-.949219 2.113281-2.113281 2.113281h-6.472656c-1.167969 0-2.117188-.949219-2.117188-2.113281v-6.472656c0-1.167969.949219-2.117188 2.117188-2.117188zm0 0" fill="#29aae2" fill-rule="evenodd"/><path d="m2.464844 1.898438h7.210937c.316407 0 .570313.253906.570313.566406v7.210937c0 .316407-.253906.570313-.570313.570313h-7.210937c-.3125 0-.566406-.253906-.566406-.570313v-7.210937c0-.3125.253906-.566406.566406-.566406zm0 0" fill="#fff"/><path d="m3.222656 3.222656v5.699219h2.535156v-1.269531h-1.269531v-3.164063h1.269531v-1.265625zm3.164063 0v1.265625h1.265625v3.164063h-1.265625v1.269531h2.535156v-5.699219zm0 0" fill="#424242"/></svg>