<svg height="32" width="32" xmlns="http://www.w3.org/2000/svg"><path d="m7.4726569 1.898438c-3.088651 0-5.5742194 2.485568-5.5742194 5.574219v17.054686c0 3.088651 2.4855684 5.574219 5.5742194 5.574219h17.0546861c3.088651.000001 5.574219-2.485567 5.574219-5.574219v-17.054686c.000001-3.088651-2.485567-5.574219-5.574219-5.574219 0 0 4.482125 0-17.0546861 0z" fill="#4183d7" fill-rule="evenodd"/><g transform="matrix(.0388505 0 0 .0388505 40.07803 18.32375)"><path d="m-621.55915-217.49169a123.66102 123.66102 0 0 0 -123.66211 123.662108 123.66102 123.66102 0 0 0  .48437 10.177735c5.18784 75.6171733 62.11021 81.0478113 55.92383 161.210933h67.32031 67.32032c-6.4803-83.9717657 56.29188-85.9353747 56.30468-172.474605h-.0703a123.66102 123.66102 0 0 0 -123.6211-122.576171z" fill="#fad223"/><circle cx="-622.37286" cy="183.32204" fill="#313433" r="24.40678"/><path d="m-690.98298 77.559086c-4.46013 10.1711-5.28786 20.74579 0 32.000004-4.60881 10.46545-4.77491 21.75652 1.62696 31.72852-1.4977 13.44942 3.12496 23.56801 12.47461 31.59375 7.46768 7.97746 13.46242 9.3262 19.52539 10.98242h34.77929 34.77735c6.06297-1.65622 12.05771-3.00496 19.52539-10.98242 9.34965-8.02574 13.97231-18.14433 12.47461-31.59375 6.40187-9.972 6.23576-21.26307 1.62695-31.72852 5.28786-11.254214 4.46013-21.828904 0-32.000004h-68.4043z" fill="#cecece"/><path d="m-554.14118 109.63719-136.8418-.0781c.0122.0262.019.052.0312.0781-4.60881 10.46545-4.77491 21.75652 1.62696 31.72852z" fill="#9c9c9c"/><path d="m-555.76818 141.36571h-133.55664c-1.4977 13.44942 3.12496 23.56801 12.47461 31.59375z" fill="#9a9a9a"/><path d="m-690.98298 77.559086c-4.44975 10.14745-5.27844 20.697-.0312 31.921884l136.8418-31.921884h-68.4043z" fill="#9a9a9a" opacity=".97"/><path d="m-641.24713 77.237578c3.03872-55.584993-20.50984-106.18487-49.87751-155.693664l32.22855 24.657367 16.11427-27.475352 23.78774 30.997834" fill="none" stroke="#fae597" stroke-width="7.559"/><path d="m-596.74103 77.237578c3.66637-53.152538 23.1949-104.769405 49.87751-155.693661l-32.22855 24.65737-16.11427-27.47536-23.78774 30.997836" fill="none" stroke="#fae597" stroke-width="7.559"/></g><g fill="#fff"><rect height=".804588" opacity=".97" ry=".402294" width="2.562761" x="7.522032" y="13.681557"/><rect height=".804588" opacity=".97" ry=".402294" transform="matrix(.8660254 .5 -.5 .8660254 0 0)" width="2.562761" x="12.420363" y="3.794678"/><rect height=".804588" opacity=".97" ry=".402294" transform="matrix(.5 .8660254 -.8660254 .5 0 0)" width="2.562761" x="11.719003" y="-7.216777"/><rect height=".804588" opacity=".97" ry=".402294" transform="rotate(90)" width="2.562761" x="5.605881" y="-16.402296"/><rect height=".804588" opacity=".97" ry=".402294" transform="matrix(-.5 .8660254 -.8660254 -.5 0 0)" width="2.562761" x="-4.280999" y="-21.300627"/><rect height=".804588" opacity=".97" ry=".402294" transform="matrix(-.8660254 .5 -.5 -.8660254 0 0)" width="2.562761" x="-15.292452" y="-20.599268"/><rect height=".804588" opacity=".97" ry=".402294" transform="scale(-1)" width="2.562761" x="-24.47797" y="-14.486144"/><rect height=".804588" opacity=".97" ry=".402294" transform="matrix(-.8660254 -.5 .5 -.8660254 0 0)" width="2.562761" x="-29.376303" y="-4.599266"/><rect height=".804588" opacity=".97" ry=".402294" transform="matrix(.8660254 -.5 .5 .8660254 0 0)" width="2.562761" x="-1.663487" y="19.794678"/><rect height=".804588" opacity=".97" ry=".402294" transform="matrix(-.8660254 -.5 .5 -.8660254 0 0)" width="2.562761" x="-29.376303" y="-4.599266"/></g></svg>