<svg height="17pt" viewBox="0 0 17 17" width="17pt" xmlns="http://www.w3.org/2000/svg"><path d="m3.96875 1.007812h9.0625c1.632812 0 2.960938 1.328126 2.960938 2.960938v9.0625c0 1.632812-1.328126 2.960938-2.960938 2.960938h-9.0625c-1.632812 0-2.960938-1.328126-2.960938-2.960938v-9.0625c0-1.632812 1.328126-2.960938 2.960938-2.960938zm0 0" fill="#c2352a" fill-rule="evenodd"/><path d="m4.949219 4.875c-.597657.054688-.816407.085938-1.140625.363281-.503906.4375-.621094 1.304688-.621094 2.628907v1.261718c0 1.511719.199219 2.277344.535156 2.558594.382813.328125.636719.355469.890625.390625.101563.015625.800781.140625 3.914063.140625 1.9375 0 3.601562-.09375 3.773437-.113281.28125-.035157.671875-.085938.980469-.417969.445312-.503906.53125-1.339844.53125-2.550781v-1.46875c0-.78125-.042969-1.890625-.53125-2.355469-.375-.3125-.507812-.402344-1.277344-.441406-.214844-.007813-2.109375-.089844-3.433594-.089844-1.238281 0-3.070312.078125-3.621093.09375zm2.488281 2.03125 2.65625 1.59375-2.65625 1.59375" fill="#f9f9f9"/><path d="m14.972656 12.171875c0 1.46875-1.1875 2.65625-2.65625 2.65625-1.464844 0-2.65625-1.1875-2.65625-2.65625 0-1.464844 1.191406-2.65625 2.65625-2.65625 1.46875 0 2.65625 1.191406 2.65625 2.65625zm0 0" fill="#03a9f4"/><path d="m12.847656 10.578125 1.0625 1.0625h-.351562l-.886719.886719c.53125.53125-.175781.886718-.175781.886718l-.53125-.53125-.886719.882813h-.355469v-.351563l.886719-.886718-.53125-.53125s.355469-.707032.886719-.175782l.882812-.886718zm0 0" fill="#fff"/></svg>