<svg height="12pt" viewBox="0 0 12 12" width="12pt" xmlns="http://www.w3.org/2000/svg"><path d="m2.835938.71875h6.472656c1.164062 0 2.113281.949219 2.113281 2.117188v6.472656c0 1.164062-.949219 2.113281-2.113281 2.113281h-6.472656c-1.167969 0-2.117188-.949219-2.117188-2.113281v-6.472656c0-1.167969.949219-2.117188 2.117188-2.117188zm0 0" fill="#f1ca42" fill-rule="evenodd"/><path d="m6.070312 1.542969c-.234374 0-.472656.085937-.652343.265625l-3.609375 3.609375c-.355469.359375-.355469.949219 0 1.304687l3.609375 3.613282c.359375.351562.953125.351562 1.304687 0l3.613282-3.613282c.351562-.355468.351562-.945312 0-1.304687l-3.613282-3.609375c-.175781-.179688-.414062-.265625-.652344-.265625zm0 0" fill="#696853"/><path d="m6.070312 2.445312c-.078124 0-.15625.03125-.214843.089844l-1.203125 1.207032c-.121094.117187-.121094.316406 0 .433593l1.203125 1.203125c.117187.117188.316406.117188.433593 0l1.203126-1.203125c.121093-.117187.121093-.316406 0-.433593l-1.203126-1.207032c-.058593-.058594-.140624-.089844-.21875-.089844zm0 0" fill="#3fa7e2"/><path d="m6.070312 6.675781c-.078124 0-.15625.027344-.214843.085938l-1.203125 1.207031c-.121094.117188-.121094.316406 0 .433594l1.203125 1.203125c.117187.117187.316406.117187.433593 0l1.203126-1.203125c.121093-.117188.121093-.316406 0-.433594l-1.203126-1.207031c-.058593-.058594-.140624-.085938-.21875-.085938zm0 0" fill="#3f3f3f"/><path d="m9.695312 6.070312c0-.078124-.03125-.15625-.089843-.214843l-1.203125-1.203125c-.117188-.121094-.316406-.121094-.433594 0l-1.207031 1.203125c-.117188.117187-.117188.316406 0 .433593l1.207031 1.203126c.117188.121093.316406.121093.433594 0l1.203125-1.203126c.058593-.058593.089843-.140624.089843-.21875zm0 0" fill="#f1ca42"/><path d="m5.46875 6.070312c0-.078124-.03125-.15625-.089844-.214843l-1.203125-1.203125c-.117187-.121094-.316406-.121094-.433593 0l-1.207032 1.203125c-.117187.117187-.117187.316406 0 .433593l1.207032 1.203126c.117187.121093.316406.121093.433593 0l1.203125-1.203126c.058594-.058593.089844-.140624.089844-.21875zm0 0" fill="#ea72bb"/></svg>