<svg height="12pt" viewBox="0 0 12 12" width="12pt" xmlns="http://www.w3.org/2000/svg"><path d="m2.835938.71875h6.472656c1.164062 0 2.113281.949219 2.113281 2.117188v6.472656c0 1.164062-.949219 2.113281-2.113281 2.113281h-6.472656c-1.167969 0-2.117188-.949219-2.117188-2.113281v-6.472656c0-1.167969.949219-2.117188 2.117188-2.117188zm0 0" fill="#ccc" fill-rule="evenodd"/><path d="m5.472656 6.460938c-.042968-.050782-.070312-.109376-.101562-.167969.03125.101562.089844.191406.140625.285156zm0 0c-.042968-.050782-.070312-.109376-.101562-.167969.03125.101562.089844.195312.140625.285156zm2.785156-.910157c.003907.195313-.058593.292969-.113281.457031l-.101562.050782c-.085938.167968.007812.109375-.054688.238281-.128906.117187-.394531.367187-.480469.394531-.0625-.003906.042969-.074218.054688-.105468-.175781.121093-.136719.183593-.40625.257812l-.007812-.019531c-.660157.320312-1.574219-.308594-1.5625-1.160157-.003907.054688-.019532.039063-.035157.0625-.035156-.4375.199219-.878906.59375-1.0625.382813-.191406.835938-.113281 1.109375.148438-.148437-.199219-.453125-.414062-.808594-.394531-.347656.003906-.679687.230469-.785156.476562-.179687.113281-.199218.441407-.277344.5-.105468.789063.195313 1.128907.707032 1.527344.082031.054687.023437.066406.035156.105469-.171875-.078125-.328125-.203125-.457031-.351563.070312.097657.144531.199219.238281.273438-.160156-.050781-.375-.390625-.4375-.40625.277344.503906 1.121094.882812 1.566406.695312-.203125.003907-.46875.003907-.695312-.085937-.097656-.046875-.230469-.152344-.207032-.171875.605469.230469 1.230469.171875 1.753907-.253907.132812-.105468.277343-.285156.320312-.285156-.066406.097656.011719.046875-.039062.128906.132812-.21875-.058594-.085937.136719-.375l.070312.101563c-.027344-.179687.222656-.402344.195312-.6875.058594-.085937.066407.097656.003907.296875.082031-.222656.023437-.257812.042969-.441406.023437.058594.054687.125.070312.191406-.054688-.214844.054688-.363281.082031-.488281-.023437-.011719-.082031.097656-.097656-.160157.003906-.109374.03125-.054687.042969-.082031-.019532-.015625-.078125-.097656-.113282-.261719.027344-.039062.066407.097657.101563.105469-.023437-.128906-.058594-.226562-.0625-.328125-.097656-.207031-.03125.027344-.113281-.089844-.105469-.332031.089844-.074218.101562-.226562.15625.234375.246094.597656.289063.742188-.03125-.179688-.085938-.355469-.144531-.527344.046874.019531-.078126-.375.058593-.113282-.144531-.558593-.636719-1.082031-1.085937-1.328124.050781.054687.121094.117187.097656.125-.222656-.132813-.183594-.144532-.214844-.203126-.183594-.074218-.195312.007813-.316406 0-.34375-.183593-.410156-.164062-.726562-.28125l.011718.070313c-.226562-.078125-.265625.027344-.507812 0-.019532-.011719.078125-.046875.15625-.054687-.222656.027343-.214844-.046876-.429688.007812.054688-.039062.109375-.0625.167969-.097656-.179687.011718-.429687.109375-.355469.019531-.292968.136719-.808594.324219-1.101562.601563l-.011719-.0625c-.132813.164062-.582031.488281-.617187.699218l-.035157.007813c-.070312.121093-.117187.257812-.171875.378906-.09375.160156-.132812.0625-.121094.085937-.179687.371094-.265624.683594-.34375.9375.054688.082032 0 .5.019532.835938-.085938 1.652344 1.144531 3.261719 2.488281 3.632812.199219.070313.492187.066407.738281.074219-.292968-.085937-.332031-.042969-.617187-.148437-.207031-.097656-.253907-.210938-.402344-.339844l.058594.105469c-.285157-.105469-.164063-.128907-.398438-.207031l.0625-.078126c-.09375-.007812-.25-.160156-.289062-.246093l-.101563.003906c-.121094-.152344-.1875-.265625-.183594-.351563l-.03125.0625c-.039062-.066406-.453124-.578124-.238281-.457031-.039062-.035156-.089843-.0625-.148437-.167969l.042968-.050781c-.101562-.132812-.1875-.304687-.183593-.363281.054687.074219.09375.085938.132812.101562-.261719-.660156-.273437-.035156-.472656-.667968l.042969-.003906c-.035156-.050782-.054688-.105469-.078125-.15625l.019531-.183594c-.1875-.222656-.054688-.9375-.027344-1.332032.015625-.160156.15625-.328124.261719-.597656l-.066406-.011718c.125-.214844.699219-.871094.964843-.835938.128907-.164062-.027343 0-.050781-.042969.285157-.292969.371094-.207031.5625-.261719.207031-.125-.175781.046876-.078125-.046874.355469-.09375.25-.210938.71875-.257813.046875.027344-.117187.042969-.15625.078125.296875-.148438.9375-.113281 1.355469.085938.484375.226562 1.027344.910156 1.050781 1.550781l.023438.003906c-.011719.253906.039062.550781-.046875.820313z" fill="#f9548f"/></svg>