<svg height="12pt" viewBox="0 0 12 12" width="12pt" xmlns="http://www.w3.org/2000/svg"><path d="m .710938 4.175781v5.019531c0 1.160157.933593 2.09375 2.09375 2.09375h6.394531c1.15625 0 2.089843-.933593 2.089843-2.09375v-6.394531c0-.117187-.050781-.222656-.070312-.335937-.664062-.035156-1.347656-.078125-2.058594-.242188-.449218-.101562-.894531-.234375-1.328125-.40625-.433593-.171875-.851562-.382812-1.242187-.640625.265625.386719.46875.777344.617187 1.164063.148438.386718.242188.765625.300781 1.132812.054688.367188.070313.726563.058594 1.0625-.011718.339844-.050781.660156-.109375.957032-.113281.589843-.296875 1.085937-.445312 1.433593-.152344.347657-.277344.546875-.277344.546875s-.40625-.40625-.863281-1.078125c-.230469-.339843-.46875-.742187-.675782-1.199219-.210937-.457031-.386718-.960937-.484374-1.5-.152344-.863281-.164063-1.535156-.097657-2.0625-.160156.253907-.382812.523438-.6875.792969-.300781.269531-.6875.542969-1.179687.804688-.789063.425781-1.445313.710937-2.035156.945312zm0 0" fill="#e74c3c" fill-rule="evenodd"/><path d="m .710938 4.175781c.589843-.234375 1.246093-.519531 2.035156-.945312.492187-.261719.878906-.535157 1.179687-.804688.304688-.269531.527344-.539062.6875-.792969-.066406.527344-.054687 1.199219.097657 2.0625.097656.539063.273437 1.042969.484374 1.5.207032.457032.445313.859376.675782 1.199219.457031.671875.863281 1.078125.863281 1.078125s.125-.199218.277344-.546875c.148437-.347656.332031-.84375.445312-1.433593.058594-.296876.097657-.617188.109375-.957032.011719-.335937-.003906-.695312-.058594-1.0625-.058593-.367187-.152343-.746094-.300781-1.132812-.148437-.386719-.351562-.777344-.617187-1.164063.390625.257813.808594.46875 1.242187.640625.433594.171875.878907.304688 1.328125.40625.710938.164063 1.394532.207032 2.058594.242188-.164062-.988282-.984375-1.753906-2.019531-1.753906h-6.394531c-1.160157 0-2.09375.933593-2.09375 2.089843zm0 0" fill="#a6ef4d" fill-rule="evenodd"/></svg>