<svg height="12pt" viewBox="0 0 12 12" width="12pt" xmlns="http://www.w3.org/2000/svg"><path d="m2.800781.710938h6.398438c1.152343 0 2.089843.9375 2.089843 2.089843v6.398438c0 1.152343-.9375 2.089843-2.089843 2.089843h-6.398438c-1.152343 0-2.089843-.9375-2.089843-2.089843v-6.398438c0-1.152343.9375-2.089843 2.089843-2.089843zm0 0" fill="#324b6c" fill-rule="evenodd"/><g fill="#fff"><path d="m5.625 6.375c-.621094 0-1.125.503906-1.125 1.125s.503906 1.125 1.125 1.125 1.125-.503906 1.125-1.125-.503906-1.125-1.125-1.125zm0 .375c.414062 0 .75.335938.75.75s-.335938.75-.75.75-.75-.335938-.75-.75.335938-.75.75-.75zm0 0"/><path d="m8.25 3.375c-.828125 0-1.5.671875-1.5 1.5s.671875 1.5 1.5 1.5 1.5-.671875 1.5-1.5-.671875-1.5-1.5-1.5zm0 .375c.621094 0 1.125.503906 1.125 1.125s-.503906 1.125-1.125 1.125-1.125-.503906-1.125-1.125.503906-1.125 1.125-1.125zm0 0"/><path d="m5.613281 6.449219 1.3125-1.796875.335938 1.070312 1.1875.410156-1.824219 1.351563-.421875-.609375zm0 0"/><path d="m2.285156 5.40625c-.023437.195312-.035156.394531-.035156.59375 0 .210938.015625.421875.039062.625l2.945313 1.207031c.289063.117188.617187-.019531.734375-.304687.117188-.289063-.019531-.617188-.304688-.734375zm0 0"/><path d="m9 4.875c0 .414062-.335938.75-.75.75s-.75-.335938-.75-.75.335938-.75.75-.75.75.335938.75.75zm0 0"/></g></svg>