<svg height="12pt" viewBox="0 0 12 12" width="12pt" xmlns="http://www.w3.org/2000/svg" xmlns:xlink="http://www.w3.org/1999/xlink"><filter id="a" height="100%" width="100%" x="0%" y="0%"><feColorMatrix in="SourceGraphic" type="matrix" values="0 0 0 0 1 0 0 0 0 1 0 0 0 0 1 0 0 0 1 0"/></filter><mask id="b"><g filter="url(#a)"><path d="m0 0h12v12h-12z" fill-opacity=".2"/></g></mask><clipPath id="c"><path d="m0 0h12v12h-12z"/></clipPath><mask id="d"><g filter="url(#a)"><path d="m0 0h12v12h-12z" fill-opacity=".2"/></g></mask><clipPath id="e"><path d="m0 0h12v12h-12z"/></clipPath><mask id="f"><g filter="url(#a)"><path d="m0 0h12v12h-12z" fill-opacity=".2"/></g></mask><clipPath id="g"><path d="m0 0h12v12h-12z"/></clipPath><mask id="h"><g filter="url(#a)"><path d="m0 0h12v12h-12z" fill-opacity=".2"/></g></mask><clipPath id="i"><path d="m0 0h12v12h-12z"/></clipPath><mask id="j"><g filter="url(#a)"><path d="m0 0h12v12h-12z" fill-opacity=".2"/></g></mask><clipPath id="k"><path d="m0 0h12v12h-12z"/></clipPath><mask id="l"><g filter="url(#a)"><path d="m0 0h12v12h-12z" fill-opacity=".2"/></g></mask><clipPath id="m"><path d="m0 0h12v12h-12z"/></clipPath><path d="m .710938 6v3.195312c0 1.160157.933593 2.09375 2.089843 2.09375h6.394531c1.160157 0 2.09375-.933593 2.09375-2.09375v-3.195312zm0 0" fill="#6469bb" fill-rule="evenodd"/><path d="m .710938 6h10.578124v-3.199219c0-1.15625-.933593-2.089843-2.09375-2.089843h-6.394531c-1.15625 0-2.089843.933593-2.089843 2.089843zm0 0" fill="#9293ff" fill-rule="evenodd"/><path d="m3.289062 1.933594h5.421876v3.050781h-5.421876m0-3.050781" fill="#3e3e3e"/><path d="m3.96875 7.015625h4.0625v3.050781h-4.0625m0-3.050781" fill="#3e3e3e"/><g fill="#ccc"><path d="m2.273438 7.355469h.675781v2.03125h-.675781zm0 0"/><path d="m3.628906 8.03125v.679688h-2.035156v-.679688zm0 0"/><path d="m10.40625 8.371094c0 .1875-.152344.339844-.339844.339844s-.339844-.152344-.339844-.339844.152344-.339844.339844-.339844.339844.152344.339844.339844zm0 0"/><path d="m9.050781 8.371094c0 .1875-.152343.339844-.339843.339844s-.339844-.152344-.339844-.339844.152344-.339844.339844-.339844.339843.152344.339843.339844zm0 0"/><path d="m9.386719 8.03125c-.1875 0-.335938-.148438-.335938-.335938s.148438-.339843.335938-.339843.339843.152343.339843.339843-.152343.335938-.339843.335938zm0 0"/><path d="m9.386719 9.386719c-.1875 0-.335938-.148438-.335938-.335938s.148438-.339843.335938-.339843.339843.152343.339843.339843-.152343.335938-.339843.335938zm0 0"/></g><g clip-path="url(#c)" mask="url(#b)"><path d="m1.59375 4.644531h1.355469v.339844h-1.355469zm0 0"/></g><g clip-path="url(#e)" mask="url(#d)"><path d="m1.59375 3.96875h1.355469v.335938h-1.355469zm0 0"/></g><g clip-path="url(#g)" mask="url(#f)"><path d="m1.59375 3.289062h1.355469v.339844h-1.355469zm0 0"/></g><g clip-path="url(#i)" mask="url(#h)"><path d="m9.050781 4.644531h1.355469v.339844h-1.355469zm0 0"/></g><g clip-path="url(#k)" mask="url(#j)"><path d="m9.050781 3.96875h1.355469v.335938h-1.355469zm0 0"/></g><g clip-path="url(#m)" mask="url(#l)"><path d="m9.050781 3.289062h1.355469v.339844h-1.355469zm0 0"/></g></svg>