<svg height="12pt" viewBox="0 0 12 12" width="12pt" xmlns="http://www.w3.org/2000/svg"><path d="m .710938 6.195312v3c0 1.160157.933593 2.09375 2.09375 2.09375h6.394531c1.15625 0 2.089843-.933593 2.089843-2.09375v-3zm0 0" fill="#c2352a" fill-rule="evenodd"/><path d="m .710938 6.195312h10.578124v-3.394531c0-1.15625-.933593-2.089843-2.089843-2.089843h-6.394531c-1.160157 0-2.09375.933593-2.09375 2.089843zm0 0" fill="#6fbb34" fill-rule="evenodd"/><path d="m6 1.371094.75 1.3125 1.5.207031-1.125 1.105469.265625 1.5-1.390625-.75-1.390625.75.265625-1.5-1.125-1.105469 1.5-.207031zm0 0" fill="#fff"/><path d="m5.382812 6.949219.410157 1.648437-1.648438-.414062v1.238281l1.648438-.414063-.410157 1.648438h1.234376l-.410157-1.648438 1.648438.414063v-1.238281l-1.648438.414062.410157-1.648437zm0 0"/></svg>