<svg height="12pt" viewBox="0 0 12 12" width="12pt" xmlns="http://www.w3.org/2000/svg"><path d="m2.800781.710938h6.398438c1.152343 0 2.089843.9375 2.089843 2.089843v6.398438c0 1.152343-.9375 2.089843-2.089843 2.089843h-6.398438c-1.152343 0-2.089843-.9375-2.089843-2.089843v-6.398438c0-1.152343.9375-2.089843 2.089843-2.089843zm0 0" fill="#4f4f4f" fill-rule="evenodd"/><path d="m6 2.25c-2.070312 0-3.75 1.679688-3.75 3.75s1.679688 3.75 3.75 3.75v-1.125c-1.449219 0-2.625-1.175781-2.625-2.625s1.175781-2.625 2.625-2.625 2.625 1.175781 2.625 2.625h1.125c0-2.070312-1.679688-3.75-3.75-3.75zm0 0" fill="#fff"/><path d="m6 4.125c-1.035156 0-1.875.839844-1.875 1.875h1.125c0-.414062.335938-.75.75-.75s.75.335938.75.75h1.125c0-1.035156-.839844-1.875-1.875-1.875zm0 0" fill="#00adef"/></svg>