<svg height="12pt" viewBox="0 0 12 12" width="12pt" xmlns="http://www.w3.org/2000/svg"><path d="m2.800781.710938h6.398438c1.152343 0 2.089843.9375 2.089843 2.089843v6.398438c0 1.152343-.9375 2.089843-2.089843 2.089843h-6.398438c-1.152343 0-2.089843-.9375-2.089843-2.089843v-6.398438c0-1.152343.9375-2.089843 2.089843-2.089843zm0 0" fill="#42a3ce" fill-rule="evenodd"/><path d="m8.523438 8.742188c.097656-.046876.179687-.132813.234374-.230469.054688-.113281.054688-.335938 0-.445313-.042968-.082031-1.082031-1.136718-1.121093-1.136718-.011719 0-.046875.039062-.082031.089843-.105469.144531-.285157.332031-.449219.464844-.085938.070313-.15625.136719-.15625.148437 0 .027344 1.003906 1.039063 1.082031 1.089844.132812.085938.347656.09375.492188.019532zm-2.394532-.964844c.25-.0625.632813-.253906.851563-.425782.414062-.324218.722656-.816406.832031-1.335937.050781-.242187.050781-.738281 0-.980469-.121094-.558594-.429688-1.046875-.886719-1.386718-.226562-.167969-.417969-.269532-.714843-.367188-.210938-.066406-.265626-.074219-.660157-.074219-.375-.003906-.457031.003907-.652343.058594-.867188.25-1.519532.976563-1.675782 1.875-.019531.113281-.027344.308594-.019531.507813.027344.601562.246094 1.097656.671875 1.519531.582031.582031 1.449219.816406 2.253906.609375zm-1.019531-.59375c-.8125-.226563-1.328125-.933594-1.285156-1.761719.058593-1.046875 1.039062-1.792969 2.074219-1.574219.625.132813 1.148437.644532 1.292968 1.257813.050782.21875.050782.605469 0 .828125-.128906.539062-.558594 1.015625-1.097656 1.207031-.246094.085937-.75.109375-.984375.042969zm.660156-.367188c.023438-.035156-.058593-.105468-.273437-.238281-.210938-.125-.5-.414063-.582032-.578125-.039062-.074219-.09375-.214844-.128906-.3125-.105468-.320312-.355468-.503906-.46875-.339844-.054687.078125-.054687.320313 0 .507813.125.429687.527344.800781 1.019532.941406.1875.054687.40625.066406.433593.019531zm0 0" fill="#fff"/></svg>