<svg height="12pt" viewBox="0 0 12 12" width="12pt" xmlns="http://www.w3.org/2000/svg"><path d="m2.800781.710938h6.398438c1.152343 0 2.089843.9375 2.089843 2.089843v6.398438c0 1.152343-.9375 2.089843-2.089843 2.089843h-6.398438c-1.152343 0-2.089843-.9375-2.089843-2.089843v-6.398438c0-1.152343.9375-2.089843 2.089843-2.089843zm0 0" fill="#39c" fill-rule="evenodd"/><path d="m7.324219 2.109375c-.425781-.019531-.878907.101563-1.324219.324219-.742188-.371094-1.507812-.453125-2.117188-.097656-.609374.351562-.925781 1.054687-.972656 1.882812-.691406.453125-1.144531 1.078125-1.144531 1.78125 0 .707031.453125 1.328125 1.144531 1.785156.046875.828125.363282 1.527344.972656 1.882813.613282.351562 1.375.273437 2.117188-.097657.742188.371094 1.503906.449219 2.117188.097657.609374-.355469.925781-1.054688.972656-1.882813.691406-.457031 1.144531-1.078125 1.144531-1.785156 0-.703125-.453125-1.328125-1.144531-1.78125-.046875-.828125-.363282-1.53125-.972656-1.882812-.242188-.140626-.511719-.214844-.792969-.226563zm-.023438.332031c.234375.011719.453125.070313.648438.183594.4375.253906.703125.742188.785156 1.382812-.386719-.199218-.832031-.355468-1.316406-.460937-.335938-.371094-.691407-.675781-1.0625-.910156.332031-.140625.652343-.207031.945312-.195313zm-2.601562 0c .292969-.011718.613281.058594.941406.195313-.367187.234375-.726563.542969-1.058594.910156-.484375.105469-.929687.261719-1.316406.460937.082031-.636718.347656-1.128906.785156-1.382812.195313-.113281.414063-.171875.648438-.183594zm1.300781.371094c.285156.160156.574219.375.847656.632812-.273437-.03125-.558594-.050781-.847656-.050781-.292969 0-.574219.019531-.851562.050781.277343-.257812.566406-.472656.851562-.632812zm0 .917969c.433594 0 .851562.042969 1.242188.121093.261718.296876.507812.636719.722656 1.011719.21875.378907.390625.761719.519531 1.136719-.128906.378906-.300781.757812-.515625 1.136719-.21875.375-.464844.714843-.726562 1.015625-.390626.074218-.808594.121094-1.242188.121094s-.851562-.042969-1.242188-.121094c-.261718-.300782-.507812-.640625-.726562-1.015625-.214844-.375-.386719-.757813-.515625-1.136719.128906-.375.300781-.757812.515625-1.136719.21875-.375.464844-.714843.726562-1.011719.390626-.078124.808594-.121093 1.242188-.121093zm-1.789062.257812c-.164063.21875-.324219.457031-.46875.707031-.144532.253907-.273438.507813-.378907.765626-.085937-.371094-.128906-.726563-.125-1.054688.28125-.167969.609375-.308594.972657-.417969zm3.578124 0c .359376.109375.691407.25.972657.417969.003906.328125-.039063.683594-.125 1.054688-.105469-.257813-.234375-.511719-.378907-.761719-.144531-.253907-.304687-.492188-.46875-.710938zm-2.421874.386719-.355469 1.558594-.554688.082031-.082031.328125.5625-.089844-.238281 1.046875h2.359375l.226562-.648437h-1.460937l.125-.554688.636719-.097656.082031-.324219-.644531.101563.316406-1.402344zm-2.460938.253906c.019531.433594.105469.898438.257812 1.371094-.152343.476562-.238281.9375-.257812 1.375-.511719-.390625-.804688-.867188-.804688-1.375 0-.503906.292969-.980469.804688-1.371094zm6.1875 0c .511719.390625.804688.867188.804688 1.371094 0 .507812-.292969.984375-.804688 1.375-.019531-.4375-.105469-.902344-.257812-1.375.152343-.472656.238281-.9375.257812-1.371094zm-5.730469 1.914063c.105469.253906.234375.507812.378907.761719.144531.253906.300781.488281.46875.710937-.363282-.109375-.691407-.253906-.972657-.417969-.003906-.332031.039063-.6875.125-1.054687zm5.273438 0c .085937.367187.128906.722656.125 1.054687-.28125.164063-.613281.308594-.972657.417969.164063-.222656.324219-.460937.46875-.710937.144532-.253907.273438-.507813.378907-.761719zm-5.371094 1.449219c.386719.203124.832031.359374 1.316406.464843.332031.367188.691407.671875 1.058594.90625-.59375.25-1.152344.265625-1.589844.011719-.4375-.25-.703125-.742188-.785156-1.382812zm5.46875 0c-.082031.640624-.347656 1.132812-.785156 1.382812-.4375.253906-.996094.238281-1.59375-.007812.371093-.234376.726562-.542969 1.0625-.910157.484375-.105469.929687-.261719 1.316406-.464843zm-3.585937.5625c.277343.035156.558593.054687.851562.054687s.574219-.019531.851562-.054687c-.277343.257812-.566406.476562-.851562.636718-.285156-.164062-.574219-.378906-.851562-.636718zm0 0" fill="#fff"/></svg>