<svg height="12pt" viewBox="0 0 12 12" width="12pt" xmlns="http://www.w3.org/2000/svg"><path d="m2.800781.710938h6.398438c1.152343 0 2.089843.9375 2.089843 2.089843v6.398438c0 1.152343-.9375 2.089843-2.089843 2.089843h-6.398438c-1.152343 0-2.089843-.9375-2.089843-2.089843v-6.398438c0-1.152343.9375-2.089843 2.089843-2.089843zm0 0" fill="#74bfcc" fill-rule="evenodd"/><g stroke="#3f3f3f" transform="matrix(.375 0 0 .375 -.187453 .180497)"><g fill="none" stroke-linecap="round"><path d="m23.510292 15.581174s1.885417-2.520833.71875-4.947917c-1.15625-2.4375-6.8125-.697916-11.15625 2.333334-3.125 2.1875-4.625 6.03125-4.572916 8.53125"/><path d="m12.499876 22.497841s.71875 2.90625 3.885416 3.041666c3.166667.125 4.510417-5.25 4.0625-10.520833-.333333-3.802083-1.760416-7.3125-3.947916-8.520833"/><path d="m13.499876 9.602007s-4.40625-2.666666-5.697917.416667c-1.291667 3.072917 2.979167 8.697917 8.09375 10.09375 3.572917.958333 7.572917-.1875 8.604167-.614583"/></g><path d="m17.562376 15.497841c0 .59375-.479167 1.0625-1.0625 1.0625-.583334 0-1.0625-.46875-1.0625-1.0625 0-.583334.479166-1.0625 1.0625-1.0625.583333 0 1.0625.479166 1.0625 1.0625zm0 0" fill="#3f3f3f" stroke-width=".874498"/></g><path d="m5.972656 2.054688c-.191406.011718-.363281.117187-.460937.28125-.152344.269531-.0625.613281.207031.769531s.613281.0625.769531-.207031c.152344-.269532.0625-.613282-.207031-.765626-.09375-.054687-.199219-.082031-.308594-.078124zm3.015625 4.875c-.09375.003906-.1875.027343-.269531.078124-.269531.152344-.359375.496094-.207031.765626.15625.269531.5.363281.769531.207031s.359375-.5.207031-.769531c-.105469-.175782-.296875-.285157-.5-.28125zm-5.988281.75c-.3125 0-.5625.253906-.5625.5625 0 .3125.25.5625.5625.5625s.5625-.25.5625-.5625c0-.308594-.25-.5625-.5625-.5625zm0 0" fill="#3f3f3f"/><path d="m6 2.429688c-.101562 0-.1875.085937-.1875.1875 0 .105468.085938.1875.1875.1875.105469 0 .1875-.082032.1875-.1875 0-.101563-.082031-.1875-.1875-.1875zm3 4.875c-.101562 0-.1875.085937-.1875.1875 0 .105468.085938.1875.1875.1875.105469 0 .1875-.082032.1875-.1875 0-.101563-.082031-.1875-.1875-.1875zm-6 .75c-.101562 0-.1875.085937-.1875.1875 0 .105468.085938.1875.1875.1875.105469 0 .1875-.082032.1875-.1875 0-.101563-.082031-.1875-.1875-.1875zm0 0" fill="#74bfcc"/></svg>