<svg height="12pt" viewBox="0 0 12 12" width="12pt" xmlns="http://www.w3.org/2000/svg"><path d="m2.800781.710938h6.398438c1.152343 0 2.089843.9375 2.089843 2.089843v6.398438c0 1.152343-.9375 2.089843-2.089843 2.089843h-6.398438c-1.152343 0-2.089843-.9375-2.089843-2.089843v-6.398438c0-1.152343.9375-2.089843 2.089843-2.089843zm0 0" fill="#fe6d40" fill-rule="evenodd"/><path d="m6 2.195312c-.023438 0-.113281.0625-.214844.140626-.878906.652343-2.121094 1.328124-3.300781 1.496093l-.152344.023438.011719.15625c.015625.261719.167969.953125.3125 1.4375.1875.625.394531 1.144531.664062 1.683593.613282 1.21875 1.390626 1.972657 2.34375 2.550782.125.074218.238282.113281.335938.121094.097656-.007813.210938-.046876.335938-.121094.953124-.578125 1.730468-1.332032 2.34375-2.550782.269531-.539062.476562-1.058593.664062-1.683593.144531-.484375.296875-1.175781.3125-1.4375l.011719-.15625-.152344-.023438c-1.179687-.167969-2.421875-.84375-3.300781-1.496093-.101563-.078126-.191406-.140626-.214844-.140626zm0 0" fill="#fff"/><path d="m6 3.152344c-.765625.539062-1.691406 1.054687-2.726562 1.328125.058593.277343.089843.484375.164062.734375.175781.585937.359375 1.054687.609375 1.550781.53125 1.050781 1.148437 1.644531 1.953125 2.152344.804688-.507813 1.421875-1.101563 1.953125-2.152344.25-.496094.433594-.964844.609375-1.550781.074219-.25.105469-.457032.164062-.734375-1.035156-.273438-1.960937-.789063-2.726562-1.328125zm0 0" fill="#fe6d40"/><g fill="#fff"><path d="m5.59375 6.378906h.8125v1.523438h-.8125zm0 0"/><path d="m6 4.097656 1.492188 2.71875h-2.984376zm0 0"/><path d="m6 3.828125.609375.949219.613281.949218h-2.445312l.613281-.949218zm0 0"/></g></svg>