<svg height="12pt" viewBox="0 0 12 12" width="12pt" xmlns="http://www.w3.org/2000/svg"><g fill-rule="evenodd"><path d="m2.800781.710938h6.398438c1.152343 0 2.089843.9375 2.089843 2.089843v6.398438c0 1.152343-.9375 2.089843-2.089843 2.089843h-6.398438c-1.152343 0-2.089843-.9375-2.089843-2.089843v-6.398438c0-1.152343.9375-2.089843 2.089843-2.089843zm0 0" fill="#0074af"/><path d="m3.425781 4.078125c-.175781 0-.316406.140625-.316406.320313v3.203124c0 .179688.140625.320313.316406.320313h5.148438c.175781 0 .316406-.140625.316406-.320313v-3.203124c0-.179688-.140625-.320313-.316406-.320313zm0 0" fill="#2666ad"/><path d="m3.109375.710938h-.308594c-1.15625 0-2.089843.933593-2.089843 2.089843v6.398438c0 1.15625.933593 2.089843 2.089843 2.089843h.308594v-2.640624c0-.175782.140625-.320313.316406-.320313h5.148438c.175781 0 .316406.144531.316406.320313v2.640624h.308594c1.15625 0 2.089843-.933593 2.089843-2.089843v-6.398438c0-1.15625-.933593-2.089843-2.089843-2.089843h-.308594v2.640624c0 .175782-.140625.320313-.316406.320313h-5.148438c-.175781 0-.316406-.144531-.316406-.320313zm.316406 3.367187h5.148438c.175781 0 .316406.140625.316406.320313v3.203124c0 .179688-.140625.320313-.316406.320313h-5.148438c-.175781 0-.316406-.140625-.316406-.320313v-3.203124c0-.179688.140625-.320313.316406-.320313zm0 0" fill="#5b5b5b"/></g><g fill="#fff" stroke="#4e4e4e" stroke-linecap="round" stroke-width=".218022" transform="matrix(.34397 0 0 .344033 -13.192589 .418486)"><path d="m42.60122 8.695883h2.770957c.24984 0 .442899.193023.442899.442817v1.782623c0 .23844-.193059.442818-.442899.442818h-2.770957c-.24984 0-.454255-.204378-.454255-.442818v-1.782623c0-.249794.204415-.442817.454255-.442817zm0 0"/><path d="m42.60122 16.950451h2.770957c.24984 0 .442899.204377.442899.454172v1.771269c0 .249794-.193059.454172-.442899.454172h-2.770957c-.24984 0-.454255-.204378-.454255-.454172v-1.771269c0-.249795.204415-.454172.454255-.454172zm0 0"/><path d="m42.60122 21.083413h2.770957c.24984 0 .442899.204377.442899.442817v1.782623c0 .249795-.193059.442818-.442899.442818h-2.770957c-.24984 0-.454255-.193023-.454255-.442818v-1.782623c0-.23844.204415-.442817.454255-.442817zm0 0"/><path d="m42.60122 25.216374h2.770957c.24984 0 .442899.193023.442899.442817v1.77127c0 .249794-.193059.454171-.442899.454171h-2.770957c-.24984 0-.454255-.204377-.454255-.454171v-1.77127c0-.249794.204415-.442817.454255-.442817zm0 0"/><path d="m42.60122 12.81749h2.770957c.24984 0 .442899.204377.442899.454171v1.77127c0 .249794-.193059.454171-.442899.454171h-2.770957c-.24984 0-.454255-.204377-.454255-.454171v-1.77127c0-.249794.204415-.454171.454255-.454171zm0 0"/><path d="m42.60122 4.562921h2.770957c.24984 0 .442899.204377.442899.454172v1.771269c0 .249794-.193059.442817-.442899.442817h-2.770957c-.24984 0-.454255-.193023-.454255-.442817v-1.771269c0-.249795.204415-.454172.454255-.454172zm0 0"/><path d="m66.22249 8.695883h2.770957c.24984 0 .454255.193023.454255.442817v1.782623c0 .23844-.204415.442818-.454255.442818h-2.770957c-.24984 0-.442899-.204378-.442899-.442818v-1.782623c0-.249794.193059-.442817.442899-.442817zm0 0"/><path d="m66.22249 16.950451h2.770957c.24984 0 .454255.204377.454255.454172v1.771269c0 .249794-.204415.454172-.454255.454172h-2.770957c-.24984 0-.442899-.204378-.442899-.454172v-1.771269c0-.249795.193059-.454172.442899-.454172zm0 0"/><path d="m66.22249 21.083413h2.770957c.24984 0 .454255.204377.454255.442817v1.782623c0 .249795-.204415.442818-.454255.442818h-2.770957c-.24984 0-.442899-.193023-.442899-.442818v-1.782623c0-.23844.193059-.442817.442899-.442817zm0 0"/><path d="m66.22249 25.216374h2.770957c.24984 0 .454255.193023.454255.442817v1.77127c0 .249794-.204415.454171-.454255.454171h-2.770957c-.24984 0-.442899-.204377-.442899-.454171v-1.77127c0-.249794.193059-.442817.442899-.442817zm0 0"/><path d="m66.22249 12.81749h2.770957c.24984 0 .454255.204377.454255.454171v1.77127c0 .249794-.204415.454171-.454255.454171h-2.770957c-.24984 0-.442899-.204377-.442899-.454171v-1.77127c0-.249794.193059-.454171.442899-.454171zm0 0"/><path d="m66.22249 4.562921h2.770957c.24984 0 .454255.204377.454255.454172v1.771269c0 .249794-.204415.442817-.454255.442817h-2.770957c-.24984 0-.442899-.193023-.442899-.442817v-1.771269c0-.249795.193059-.454172.442899-.454172zm0 0"/></g><path d="m6.1875 2.207031c-.585938 1.890625-2.015625 3.253907-2.402344 4.605469-.027344.089844-.046875.179688-.0625.269531-.007812.035157-.011718.074219-.019531.113281-.007813.0625-.011719.125-.011719.1875-.003906.0625-.007812.125-.003906.1875.050781 1.238282 1.070312 2.21875 2.3125 2.222657 1.277344 0 2.3125-1.039063 2.3125-2.316407 0-.066406-.003906-.128906-.007812-.195312-.011719-1.546875-1.714844-2.914062-2.117188-5.074219zm0 0" fill="#f0c612"/><path d="m5.789062 4.214844c-.433593 1.640625 1.003907 5.027344-.441406 4.578125-1.992187-.429688-.804687-2.136719.441406-4.578125zm0 0" fill="#fff"/></svg>