<svg height="32" width="32" xmlns="http://www.w3.org/2000/svg"><rect fill="#0286c2" fill-rule="evenodd" height="28.203388" ry="5.575182" width="28.203388" x="1.898306" y="1.898306"/><path d="m24.92008 8.639256c-.07414-.01286-.16476.059636-.28125.18359-.17157.18257-.3296.72287-.53906 1.8438-.35123 1.8795-.58159 2.6642-.91211 3.1113-.13404.18134-.2154.41074-.17969.50976.09293.25772.60987.59222 1.3203.85352.73456.27017.99221.28777 1.0547.07422.02565-.08765-.0082-1.5468-.07617-3.2441-.09965-2.4866-.16431-3.2935-.38672-3.332zm-17.352.127c-.0806-.0105-.168.0481-.2715.1582-.1693.1801-.2076.6511-.2617 3.2341-.03488 1.663-.04573 3.0666-.02344 3.1191.12527.29549 1.5516-.2516 2.0566-.78906l.25195-.26953-.31055-.5625c-.2018-.366-.4317-1.184-.6563-2.332-.3642-1.8608-.5433-2.5269-.7851-2.5583zm11.432 3.5993c-.37195-.01395-.79776.13743-1.4551.38867-.69714.26647-1.4143.48442-1.5938.48438-.1795-.000046-.733-.17607-1.2285-.39062-1.2357-.53502-1.7277-.60648-2.2324-.32227-.2241.12619-1.0562.9177-1.8496 1.7578-1.206 1.277-1.5585 1.5734-2.1543 1.8164-.93765.38239-1.728.47539-2.377.27734-.88098-.26885-1.3573.23287-.97852 1.0312.36115.76123 1.8058 1.4514 3.7188 1.7773 2.6558.45249 4.4145.03448 6.2812-1.4961.35785-.2934.75354-.53516.88086-.53516s.56213.2716.96484.60156c.95646.78368 1.4227 1.0331 2.5566 1.373.807.24193 1.1212.26955 2.2559.19727 2.3858-.15198 3.9818-.66509 4.8223-1.5508.283-.298.389-.527.389-.837 0-.6209-.32945-.77836-1.1699-.55859-.51034.13345-.79492.13892-1.3086.02148-1.258-.288-1.827-.683-3.293-2.286-1.139-1.245-1.609-1.726-2.229-1.75zm5.8418 7.998c-.04495.0043-.1027.01736-.17578.03711-.88842.24003-1.8115.37093-3.1523.44727l-1.4668.08398-.03516.88867c-.03254.79959-.0056.92062.26953 1.2168.28328.30494.38823.32962 1.4414.32422 1.1834-.006 1.8888-.1906 2.3242-.60742.321-.307.953-1.722.953-2.133.000062-.20423-.02336-.27074-.1582-.25781zm-17.832.0078c-.03624.04127.0318.42708.15039.85547.25978.93838.81602 1.6649 1.4785 1.9316.65929.26539 2.4147.26885 2.8613.0059.357-.21.5-.649.5-1.543 0-.881-.027-.9-1.389-.9-.6817-.001-1.757-.095-2.3883-.211-.6314-.117-1.1767-.18-1.2129-.139z" fill="#fff"/></svg>