<svg height="32" width="32" xmlns="http://www.w3.org/2000/svg"><g fill-rule="evenodd"><path d="m6.450195 11.428711a1.5 1.5 0 0 0 -.150391.0078 1.5 1.5 0 0 0 -.146484.02148 1.5 1.5 0 0 0 -.146484.03711 1.5 1.5 0 0 0 -.140625.05273 1.5 1.5 0 0 0 -.134766.06445 1.5 1.5 0 0 0 -.128906.07813 1.5 1.5 0 0 0 -.119141.0918 1.5 1.5 0 0 0 -.109375.101562 1.5 1.5 0 0 0 -.09766.113282 1.5 1.5 0 0 0 -.08789.121093 1.5 1.5 0 0 0 -.07422.13086 1.5 1.5 0 0 0 -.0625.136718 1.5 1.5 0 0 0 -.04687.142579 1.5 1.5 0 0 0 -.0332.146484 1.5 1.5 0 0 0 -.01758.148437 1.5 1.5 0 0 0 -.0039.105469 1.5 1.5 0 0 0  .0078.150391 1.5 1.5 0 0 0  .02148.148437 1.5 1.5 0 0 0  .03711.144532 1.5 1.5 0 0 0  .05273.140625 1.5 1.5 0 0 0  .06445.134765 1.5 1.5 0 0 0  .07813.128906 1.5 1.5 0 0 0  .0918.119141 1.5 1.5 0 0 0  .101562.109375 1.5 1.5 0 0 0  .113281.09961 1.5 1.5 0 0 0  .121094.08594 1.5 1.5 0 0 0  .130859.07617 1.5 1.5 0 0 0  .136719.06055 1.5 1.5 0 0 0  .142578.04687 1.5 1.5 0 0 0  .146485.0332 1.5 1.5 0 0 0  .148437.01758 1.5 1.5 0 0 0  .105469.0039 1.5 1.5 0 0 0  .150391-.0078 1.5 1.5 0 0 0  .148437-.02148 1.5 1.5 0 0 0  .144531-.03711 1.5 1.5 0 0 0  .140625-.05078 1.5 1.5 0 0 0  .134766-.06641 1.5 1.5 0 0 0  .128906-.07813 1.5 1.5 0 0 0  .119141-.08984 1.5 1.5 0 0 0  .109375-.103515 1.5 1.5 0 0 0  .09961-.111329 1.5 1.5 0 0 0  .08594-.123046 1.5 1.5 0 0 0  .07617-.13086 1.5 1.5 0 0 0  .06055-.136719 1.5 1.5 0 0 0  .04687-.140625 1.5 1.5 0 0 0  .0332-.146484 1.5 1.5 0 0 0  .01758-.150391 1.5 1.5 0 0 0  .0039-.105468 1.5 1.5 0 0 0 -.0078-.150391 1.5 1.5 0 0 0 -.02148-.146484 1.5 1.5 0 0 0 -.03711-.146485 1.5 1.5 0 0 0 -.05273-.140625 1.5 1.5 0 0 0 -.06445-.134765 1.5 1.5 0 0 0 -.07813-.128907 1.5 1.5 0 0 0 -.08984-.11914 1.5 1.5 0 0 0 -.103516-.109375 1.5 1.5 0 0 0 -.111328-.09766 1.5 1.5 0 0 0 -.123047-.08789 1.5 1.5 0 0 0 -.130859-.07422 1.5 1.5 0 0 0 -.136719-.0625 1.5 1.5 0 0 0 -.140625-.04687 1.5 1.5 0 0 0 -.146485-.0332 1.5 1.5 0 0 0 -.15039-.01758 1.5 1.5 0 0 0 -.105469-.0039z" fill="#3f3f3f"/><path d="m11.950195 10.428711a2 2 0 0 0 -.199219.0098 2 2 0 0 0 -.197265.03125 2 2 0 0 0 -.19336.04883 2 2 0 0 0 -.189453.06836 2 2 0 0 0 -.179687.08594 2 2 0 0 0 -.169922.105469 2 2 0 0 0 -.160156.121093 2 2 0 0 0 -.144532.136719 2 2 0 0 0 -.132812.150391 2 2 0 0 0 -.117188.162109 2 2 0 0 0 -.09766.173828 2 2 0 0 0 -.08203.181641 2 2 0 0 0 -.06445.189453 2 2 0 0 0 -.04297.195312 2 2 0 0 0 -.02344.199219 2 2 0 0 0 -.0059.140625 2 2 0 0 0  .0098.199219 2 2 0 0 0  .03125.199219 2 2 0 0 0  .04883.193359 2 2 0 0 0  .06836.1875 2 2 0 0 0  .08594.179688 2 2 0 0 0  .105468.169922 2 2 0 0 0  .121094.160156 2 2 0 0 0  .136719.146484 2 2 0 0 0  .15039.13086 2 2 0 0 0  .16211.117187 2 2 0 0 0  .173828.09961 2 2 0 0 0  .181641.08203 2 2 0 0 0  .189453.0625 2 2 0 0 0  .195312.04297 2 2 0 0 0  .199219.02539 2 2 0 0 0  .140625.0039 2 2 0 0 0  .199219-.0098 2 2 0 0 0  .199219-.0293 2 2 0 0 0  .193359-.05078 2 2 0 0 0  .1875-.06836 2 2 0 0 0  .179687-.08594 2 2 0 0 0  .169922-.105469 2 2 0 0 0  .160156-.121093 2 2 0 0 0  .146485-.134766 2 2 0 0 0  .130859-.150391 2 2 0 0 0  .117188-.164062 2 2 0 0 0  .09961-.171875 2 2 0 0 0  .08203-.183594 2 2 0 0 0  .0625-.189453 2 2 0 0 0  .04297-.195313 2 2 0 0 0  .02539-.197265 2 2 0 0 0  .0039-.142578 2 2 0 0 0 -.0098-.199219 2 2 0 0 0 -.0293-.197266 2 2 0 0 0 -.05078-.193359 2 2 0 0 0 -.06836-.189453 2 2 0 0 0 -.08594-.179688 2 2 0 0 0 -.105468-.169922 2 2 0 0 0 -.121094-.160156 2 2 0 0 0 -.134766-.144531 2 2 0 0 0 -.15039-.132813 2 2 0 0 0 -.164063-.117187 2 2 0 0 0 -.171875-.09766 2 2 0 0 0 -.183594-.08203 2 2 0 0 0 -.189453-.06445 2 2 0 0 0 -.195312-.04297 2 2 0 0 0 -.197266-.02344 2 2 0 0 0 -.142578-.0059z" fill="#3f3f3f"/><path d="m13.450195 7.4287109a4.5 4.5 0 0 0 -.449219.023437 4.5 4.5 0 0 0 -.445312.066406 4.5 4.5 0 0 0 -.435547.1113281 4.5 4.5 0 0 0 -.421875.1542969 4.5 4.5 0 0 0 -.404297.1953132 4.5 4.5 0 0 0 -.384766.2363281 4.5 4.5 0 0 0 -.357422.2714844 4.5 4.5 0 0 0 -.330078.3066406 4.5 4.5 0 0 0 -.296875.3378907 4.5 4.5 0 0 0 -.261718.3652343 4.5 4.5 0 0 0 -.222657.390625 4.5 4.5 0 0 0 -.183593.4101568 4.5 4.5 0 0 0 -.142579.427734 4.5 4.5 0 0 0 -.09766.439453 4.5 4.5 0 0 0 -.05469.445313 4.5 4.5 0 0 0 -.01172.318359 4.5 4.5 0 0 0  .02344.449219 4.5 4.5 0 0 0  .06641.445312 4.5 4.5 0 0 0  .111328.435547 4.5 4.5 0 0 0  .154297.421875 4.5 4.5 0 0 0  .195312.40625 4.5 4.5 0 0 0  .236328.382813 4.5 4.5 0 0 0  .271485.357421 4.5 4.5 0 0 0  .30664.330079 4.5 4.5 0 0 0  .337891.296875 4.5 4.5 0 0 0  .365234.261718 4.5 4.5 0 0 0  .390625.222657 4.5 4.5 0 0 0  .410157.185546 4.5 4.5 0 0 0  .427734.140625 4.5 4.5 0 0 0  .439453.09961 4.5 4.5 0 0 0  .445313.05273 4.5 4.5 0 0 0  .318359.01172 4.5 4.5 0 0 0  .449219-.02149 4.5 4.5 0 0 0  .445312-.06836 4.5 4.5 0 0 0  .435547-.111328 4.5 4.5 0 0 0  .421875-.154297 4.5 4.5 0 0 0  .40625-.195312 4.5 4.5 0 0 0  .382813-.234375 4.5 4.5 0 0 0  .357422-.273438 4.5 4.5 0 0 0  .330078-.30664 4.5 4.5 0 0 0  .296875-.337891 4.5 4.5 0 0 0  .261718-.365234 4.5 4.5 0 0 0  .222657-.390625 4.5 4.5 0 0 0  .185546-.410157 4.5 4.5 0 0 0  .140626-.427734 4.5 4.5 0 0 0  .09961-.4375 4.5 4.5 0 0 0  .05273-.447266 4.5 4.5 0 0 0  .01172-.318359 4.5 4.5 0 0 0 -.02148-.449219 4.5 4.5 0 0 0 -.06836-.445312 4.5 4.5 0 0 0 -.111328-.435546 4.5 4.5 0 0 0 -.154297-.421875 4.5 4.5 0 0 0 -.195312-.4042969 4.5 4.5 0 0 0 -.234375-.3847657 4.5 4.5 0 0 0 -.273438-.3574219 4.5 4.5 0 0 0 -.30664-.3300781 4.5 4.5 0 0 0 -.337891-.296875 4.5 4.5 0 0 0 -.365234-.2617187 4.5 4.5 0 0 0 -.390625-.2226563 4.5 4.5 0 0 0 -.410157-.1835937 4.5 4.5 0 0 0 -.427734-.1425782 4.5 4.5 0 0 0 -.4375-.097656 4.5 4.5 0 0 0 -.447266-.054687 4.5 4.5 0 0 0 -.318359-.011719zm-1.5 3.0000001a2 2 0 0 1  .142578.0059 2 2 0 0 1  .197266.02344 2 2 0 0 1  .195312.04297 2 2 0 0 1  .189453.06445 2 2 0 0 1  .183594.08203 2 2 0 0 1  .171875.09766 2 2 0 0 1  .164063.117187 2 2 0 0 1  .15039.132813 2 2 0 0 1  .134766.144531 2 2 0 0 1  .121094.160156 2 2 0 0 1  .105468.169922 2 2 0 0 1  .08594.179688 2 2 0 0 1  .06836.189453 2 2 0 0 1  .05078.193359 2 2 0 0 1  .0293.197266 2 2 0 0 1  .0098.199219 2 2 0 0 1 -.0039.142578 2 2 0 0 1 -.02539.197265 2 2 0 0 1 -.04297.195313 2 2 0 0 1 -.0625.189453 2 2 0 0 1 -.08203.183594 2 2 0 0 1 -.09961.171875 2 2 0 0 1 -.117188.164062 2 2 0 0 1 -.130859.150391 2 2 0 0 1 -.146485.134765 2 2 0 0 1 -.160156.121094 2 2 0 0 1 -.169922.105469 2 2 0 0 1 -.179687.08594 2 2 0 0 1 -.1875.06836 2 2 0 0 1 -.193359.05078 2 2 0 0 1 -.199219.0293 2 2 0 0 1 -.199219.0098 2 2 0 0 1 -.140625-.0039 2 2 0 0 1 -.199219-.02539 2 2 0 0 1 -.195312-.04297 2 2 0 0 1 -.189453-.0625 2 2 0 0 1 -.181641-.08203 2 2 0 0 1 -.173828-.09961 2 2 0 0 1 -.16211-.117188 2 2 0 0 1 -.15039-.130859 2 2 0 0 1 -.136719-.146484 2 2 0 0 1 -.121094-.160157 2 2 0 0 1 -.105468-.169921 2 2 0 0 1 -.08594-.179688 2 2 0 0 1 -.06836-.1875 2 2 0 0 1 -.04883-.193359 2 2 0 0 1 -.03125-.199219 2 2 0 0 1 -.0098-.199219 2 2 0 0 1  .0059-.140625 2 2 0 0 1  .02344-.199219 2 2 0 0 1  .04297-.195312 2 2 0 0 1  .06445-.189453 2 2 0 0 1  .08203-.181641 2 2 0 0 1  .09766-.173828 2 2 0 0 1  .117188-.162109 2 2 0 0 1  .132812-.150391 2 2 0 0 1  .144532-.136719 2 2 0 0 1  .160156-.121093 2 2 0 0 1  .169922-.105469 2 2 0 0 1  .179687-.08594 2 2 0 0 1  .189453-.06836 2 2 0 0 1  .19336-.04883 2 2 0 0 1  .197265-.03125 2 2 0 0 1  .199219-.0098z" fill="#fff"/><path d="m9.206054 10.454102a3 3 0 0 0 -.166015-.177735 3 3 0 0 0 -.22461-.197265 3 3 0 0 0 -.24414-.1738287 3 3 0 0 0 -.259766-.1503906 3 3 0 0 0 -.273437-.1210937 3 3 0 0 0 -.285157-.095703 3 3 0 0 0 -.292968-.066406 3 3 0 0 0 -.296875-.035156 3 3 0 0 0 -.212891-.00781 3 3 0 0 0 -.298828.015625 3 3 0 0 0 -.296875.044922 3 3 0 0 0 -.291016.074219 3 3 0 0 0 -.28125.1015625 3 3 0 0 0 -.269531.1308593 3 3 0 0 0 -.255859.15625 3 3 0 0 0 -.238282.1816412 3 3 0 0 0 -.220703.205078 3 3 0 0 0 -.197265.224609 3 3 0 0 0 -.173829.244141 3 3 0 0 0 -.15039.259765 3 3 0 0 0 -.121094.275391 3 3 0 0 0 -.0957.283203 3 3 0 0 0 -.06641.292969 3 3 0 0 0 -.03516.296875 3 3 0 0 0 -.0078.21289 3 3 0 0 0  .01563.298828 3 3 0 0 0  .04492.296875 3 3 0 0 0  .07422.291016 3 3 0 0 0  .101562.28125 3 3 0 0 0  .13086.271484 3 3 0 0 0  .15625.253907 3 3 0 0 0  .18164.240234 3 3 0 0 0  .205078.21875 3 3 0 0 0  .22461.197266 3 3 0 0 0  .24414.175781 3 3 0 0 0  .259766.148438 3 3 0 0 0  .27539.123046 3 3 0 0 0  .283204.09375 3 3 0 0 0  .292968.06641 3 3 0 0 0  .296875.03516 3 3 0 0 0  .212891.0078 3 3 0 0 0  .298828-.01563 3 3 0 0 0  .296875-.04297 3 3 0 0 0  .291016-.07422 3 3 0 0 0  .28125-.103515 3 3 0 0 0  .271484-.13086 3 3 0 0 0  .253906-.15625 3 3 0 0 0  .240235-.18164 3 3 0 0 0  .21875-.205078 3 3 0 0 0  .197265-.22461 3 3 0 0 0  .175782-.24414 3 3 0 0 0  .0039-.0078 4.5 4.5 0 0 1 -.173828-.361328 4.5 4.5 0 0 1 -.154297-.421875 4.5 4.5 0 0 1 -.111328-.435547 4.5 4.5 0 0 1 -.06641-.445313 4.5 4.5 0 0 1 -.02344-.449218 4.5 4.5 0 0 1  .01172-.31836 4.5 4.5 0 0 1  .05469-.445312 4.5 4.5 0 0 1  .09766-.439453 4.5 4.5 0 0 1  .0918-.271485zm-2.755859.974609a1.5 1.5 0 0 1  .105469.0039 1.5 1.5 0 0 1  .15039.01758 1.5 1.5 0 0 1  .146485.0332 1.5 1.5 0 0 1  .140625.04687 1.5 1.5 0 0 1  .136719.0625 1.5 1.5 0 0 1  .130859.07422 1.5 1.5 0 0 1  .123047.08789 1.5 1.5 0 0 1  .111328.09766 1.5 1.5 0 0 1  .103516.109375 1.5 1.5 0 0 1  .08984.119141 1.5 1.5 0 0 1  .07813.128906 1.5 1.5 0 0 1  .06445.134765 1.5 1.5 0 0 1  .05273.140625 1.5 1.5 0 0 1  .03711.146485 1.5 1.5 0 0 1  .02148.146484 1.5 1.5 0 0 1  .0078.150391 1.5 1.5 0 0 1 -.0039.105469 1.5 1.5 0 0 1 -.01758.15039 1.5 1.5 0 0 1 -.0332.146485 1.5 1.5 0 0 1 -.04687.140625 1.5 1.5 0 0 1 -.06055.136718 1.5 1.5 0 0 1 -.07617.13086 1.5 1.5 0 0 1 -.08594.123047 1.5 1.5 0 0 1 -.09961.111328 1.5 1.5 0 0 1 -.109375.103515 1.5 1.5 0 0 1 -.119141.08984 1.5 1.5 0 0 1 -.128906.07813 1.5 1.5 0 0 1 -.134766.06641 1.5 1.5 0 0 1 -.140625.05078 1.5 1.5 0 0 1 -.144531.03711 1.5 1.5 0 0 1 -.148437.02148 1.5 1.5 0 0 1 -.150391.0078 1.5 1.5 0 0 1 -.105469-.0039 1.5 1.5 0 0 1 -.148437-.01758 1.5 1.5 0 0 1 -.146485-.0332 1.5 1.5 0 0 1 -.142578-.04687 1.5 1.5 0 0 1 -.136719-.06055 1.5 1.5 0 0 1 -.130859-.07617 1.5 1.5 0 0 1 -.121094-.08594 1.5 1.5 0 0 1 -.113281-.09961 1.5 1.5 0 0 1 -.101562-.109375 1.5 1.5 0 0 1 -.0918-.11914 1.5 1.5 0 0 1 -.07813-.128907 1.5 1.5 0 0 1 -.06445-.134765 1.5 1.5 0 0 1 -.05273-.140625 1.5 1.5 0 0 1 -.03711-.144532 1.5 1.5 0 0 1 -.02148-.148437 1.5 1.5 0 0 1 -.0078-.150391 1.5 1.5 0 0 1  .0039-.105468 1.5 1.5 0 0 1  .01758-.148438 1.5 1.5 0 0 1  .0332-.146484 1.5 1.5 0 0 1  .04687-.142578 1.5 1.5 0 0 1  .0625-.136719 1.5 1.5 0 0 1  .07422-.13086 1.5 1.5 0 0 1  .08789-.121093 1.5 1.5 0 0 1  .09766-.113282 1.5 1.5 0 0 1  .109375-.101562 1.5 1.5 0 0 1  .119141-.0918 1.5 1.5 0 0 1  .128906-.07813 1.5 1.5 0 0 1  .134766-.06445 1.5 1.5 0 0 1  .140625-.05273 1.5 1.5 0 0 1  .146484-.03711 1.5 1.5 0 0 1  .146484-.02148 1.5 1.5 0 0 1  .150391-.0078z" fill="#fff"/><path d="m8.989257 14.624023c.313789.01639.585078.01946.902344.04883a4.5 4.5 0 0 1 -.154297-.203125 4.5 4.5 0 0 1 -.236328-.382812 4.5 4.5 0 0 1 -.02148-.04492 3 3 0 0 1 -.0039.0078 3 3 0 0 1 -.175782.24414 3 3 0 0 1 -.197265.22461 3 3 0 0 1 -.113282.105468z" fill="#8e8e8e"/><path d="m5.327148 14.952148c-.03525.04308-.173948.03665-.199219.08789-.161206.326887-.139196.82659-.169922 1.59375-.03048.866106.01706 1.852571.251954 2.695312.117448.421371.282166.806632.507812 1.123047.225646.316416.511301.563601.873047.708985.75156.302048 1.690412.334925 2.664063.166015.97365-.16891 1.983483-.539078 2.876953-1.041015.89347-.501938 1.670622-1.134996 2.18164-1.832032.25551-.348517.443654-.712554.546875-1.083984s.122008-.751805.03516-1.128906c-.0034-.01485-.04222-.02437-.04687-.03906a4.5 4.5 0 0 1 -.06836.02539 4.5 4.5 0 0 1 -.435547.111328 4.5 4.5 0 0 1 -.445312.06836 4.5 4.5 0 0 1 -.449219.02149 4.5 4.5 0 0 1 -.318359-.01172 4.5 4.5 0 0 1 -.445313-.05273 4.5 4.5 0 0 1 -.439453-.09961 4.5 4.5 0 0 1 -.427734-.140627 4.5 4.5 0 0 1 -.410157-.185546 4.5 4.5 0 0 1 -.390625-.222657 4.5 4.5 0 0 1 -.365234-.261718 4.5 4.5 0 0 1 -.337891-.296875 4.5 4.5 0 0 1 -.30664-.330079 4.5 4.5 0 0 1 -.117188-.154296c-.317266-.029366-.588555-.03244-.902344-.048829a3 3 0 0 1 -.105468.09961 3 3 0 0 1 -.240235.181641 3 3 0 0 1 -.253906.15625 3 3 0 0 1 -.271484.130859 3 3 0 0 1 -.28125.103516 3 3 0 0 1 -.291016.07422 3 3 0 0 1 -.296875.04297 3 3 0 0 1 -.298828.01563 3 3 0 0 1 -.212891-.0078 3 3 0 0 1 -.296875-.03516 3 3 0 0 1 -.292968-.06641 3 3 0 0 1 -.283204-.09375 3 3 0 0 1 -.27539-.123047 3 3 0 0 1 -.259766-.148437 3 3 0 0 1 -.002-.0019z" fill="#ffc102"/><path d="m6.973633 21.18457a6.1261729 4.7925012 45.000798 0 0 -.01172.09375 6.1261729 4.7925012 45.000798 0 0 -.0078.533203 6.1261729 4.7925012 45.000798 0 0  .048816.542969 6.1261729 4.7925012 45.000798 0 0  .103516.548828 6.1261729 4.7925012 45.000798 0 0  .15625.548828 6.1261729 4.7925012 45.000798 0 0  .208984.542969 6.1261729 4.7925012 45.000798 0 0  .257813.535156 6.1261729 4.7925012 45.000798 0 0  .304687.515625 6.1261729 4.7925012 45.000798 0 0  .34961.496094 6.1261729 4.7925012 45.000798 0 0  .388672.470703 6.1261729 4.7925012 45.000798 0 0  .427734.439453 6.1261729 4.7925012 45.000798 0 0  .322266.289063 6.1261729 4.7925012 45.000798 0 0  .478515.376953 6.1261729 4.7925012 45.000798 0 0  .503907.335937 6.1261729 4.7925012 45.000798 0 0  .523437.289063 6.1261729 4.7925012 45.000798 0 0  .537109.242187 6.1261729 4.7925012 45.000798 0 0  .546875.189453 6.1261729 4.7925012 45.000798 0 0  .548829.138672 6.1261729 4.7925012 45.000798 0 0  .548828.08594 6.1261729 4.7925012 45.000798 0 0  .539062.0293 6.1261729 4.7925012 45.000798 0 0  .527344-.02539 6.1261729 4.7925012 45.000798 0 0  .509766-.07813 6.1261729 4.7925012 45.000798 0 0  .484374-.134765 6.1261729 4.7925012 45.000798 0 0  .457032-.185547 6.1261729 4.7925012 45.000798 0 0  .425781-.236329 6.1261729 4.7925012 45.000798 0 0  .386719-.285156 6.1261729 4.7925012 45.000798 0 0  .347656-.332031 6.1261729 4.7925012 45.000798 0 0  .21875-.259766 6.1261729 4.7925012 45.000798 0 0  .267578-.40039 6.1261729 4.7925012 45.000798 0 0  .220703-.435547 6.1261729 4.7925012 45.000798 0 0  .167969-.466797 6.1261729 4.7925012 45.000798 0 0  .117188-.494141 6.1261729 4.7925012 45.000798 0 0  .06055-.515625 6.1261729 4.7925012 45.000798 0 0  .0059-.53125 6.1261729 4.7925012 45.000798 0 0 -.04883-.542968 6.1261729 4.7925012 45.000798 0 0 -.101563-.550782 6.1261729 4.7925012 45.000798 0 0 -.15625-.548828 6.1261729 4.7925012 45.000798 0 0 -.208984-.542969 6.1261729 4.7925012 45.000798 0 0 -.257813-.533203 6.1261729 4.7925012 45.000798 0 0 -.304687-.517578 6.1261729 4.7925012 45.000798 0 0 -.34961-.496093 6.1261729 4.7925012 45.000798 0 0 -.390625-.470704 6.1261729 4.7925012 45.000798 0 0 -.425781-.439453 6.1261729 4.7925012 45.000798 0 0 -.322265-.289062 6.1261729 4.7925012 45.000798 0 0 -.478516-.376953 6.1261729 4.7925012 45.000798 0 0 -.503906-.333985 6.1261729 4.7925012 45.000798 0 0 -.04687-.02539c-.01683.02396-.01965.0504-.03711.07422-.511018.697036-1.28817 1.330094-2.18164 1.832032-.89347.501937-1.903304.872105-2.876953 1.041015-.833752.14464-1.594286.05102-2.28125-.142578z" fill="#fcf8fd"/><path d="m8.657226 25.874023a6.1261729 4.7925012 45.000798 0 1 -.273437-.332031 6.1261729 4.7925012 45.000798 0 1 -.34961-.496094 6.1261729 4.7925012 45.000798 0 1 -.304687-.515625 6.1261729 4.7925012 45.000798 0 1 -.257813-.535156 6.1261729 4.7925012 45.000798 0 1 -.208984-.542969 6.1261729 4.7925012 45.000798 0 1 -.15625-.548828 6.1261729 4.7925012 45.000798 0 1 -.103516-.548828 6.1261729 4.7925012 45.000798 0 1 -.04883-.542969 6.1261729 4.7925012 45.000798 0 1  .0078-.533203 6.1261729 4.7925012 45.000798 0 1  .01172-.09375c-.106446-.03-.247023.006-.353516-.02148.02238.07162.02537.147494.04883.21875.04299.741612.20354 1.449029.458984 2.121094.255445.672064.605821 1.308912 1.033204 1.90625.128094.179033.354918.292825.496093.464843z" fill="#8e8e8e"/><path d="m28.643554 28.219726c-.30625.213361-.515411.418164-.849609.626954-.626579.391454-1.387296.680032-2.095703 1.019531 1.159738-.255127 2.182232-.794854 2.945312-1.646485z" fill="#8e8e8e"/><path d="m29.782226 13.577148c-.391547-.250449-.719091-.569262-1.136719-.785156-1.072561-.554465-2.211038-1.000322-3.320312-1.363281l-3.375 4.039062c.550391.396236.830847 1.354112 1.462891 1.81836 1.499149 1.101151 3.182244 2.041134 4.955078 2.753906.5601.225189 1.159495.261797 1.734375.439453v-6.357422c-.106593-.1882-.214107-.354916-.320313-.544922z" fill="#64287b"/><path d="m16.969726 3.4287109c-.840497.01239-1.892851.3656101-3.009765.9902343-1.116915.6246243-2.298605 1.5214118-3.402344 2.6230469-.798579.797057-1.458099 1.8013464-2.119141 2.7871094a3 3 0 0 1  .132813.076172 3 3 0 0 1  .24414.1738285 3 3 0 0 1  .22461.197265 3 3 0 0 1  .166015.177735 4.5 4.5 0 0 1  .05078-.15625 4.5 4.5 0 0 1  .183593-.4101566 4.5 4.5 0 0 1  .222657-.390625 4.5 4.5 0 0 1  .261718-.3652343 4.5 4.5 0 0 1  .296875-.3378907 4.5 4.5 0 0 1  .330078-.3066406 4.5 4.5 0 0 1  .357422-.2714844 4.5 4.5 0 0 1  .384768-.2363283 4.5 4.5 0 0 1  .404297-.1953125 4.5 4.5 0 0 1  .421875-.1542969 4.5 4.5 0 0 1  .435547-.1113281 4.5 4.5 0 0 1  .445312-.066406 4.5 4.5 0 0 1  .449219-.023437 4.5 4.5 0 0 1  .318359.011719 4.5 4.5 0 0 1  .447266.054687 4.5 4.5 0 0 1  .4375.097656 4.5 4.5 0 0 1  .427734.1425782 4.5 4.5 0 0 1  .410157.1835937 4.5 4.5 0 0 1  .390625.2226563 4.5 4.5 0 0 1  .365234.2617187 4.5 4.5 0 0 1  .337891.296875 4.5 4.5 0 0 1  .30664.3300781 4.5 4.5 0 0 1  .273438.3574219 4.5 4.5 0 0 1  .234375.3847657 4.5 4.5 0 0 1  .195312.4042968 4.5 4.5 0 0 1  .154297.421875 4.5 4.5 0 0 1  .111328.435547 4.5 4.5 0 0 1  .06836.445312 4.5 4.5 0 0 1  .02148.449219 4.5 4.5 0 0 1 -.01172.31836 4.5 4.5 0 0 1 -.05273.447265 4.5 4.5 0 0 1 -.09961.4375 4.5 4.5 0 0 1 -.140626.427735 4.5 4.5 0 0 1 -.185546.410156 4.5 4.5 0 0 1 -.222657.390625 4.5 4.5 0 0 1 -.261718.365234 4.5 4.5 0 0 1 -.296875.337891 4.5 4.5 0 0 1 -.330078.30664 4.5 4.5 0 0 1 -.357422.273438 4.5 4.5 0 0 1 -.382813.234375 4.5 4.5 0 0 1 -.40625.195312 4.5 4.5 0 0 1 -.353515.128907c.0047.01469.04346.02421.04687.03906.08685.377101.06806.757476-.03516 1.128906-.09617.346045-.280373.683127-.509765 1.009766a6.1261729 4.7925012 45.000798 0 1  .04687.02539 6.1261729 4.7925012 45.000798 0 1  .503906.333985 6.1261729 4.7925012 45.000798 0 1  .478516.376953 6.1261729 4.7925012 45.000798 0 1  .322265.289062 6.1261729 4.7925012 45.000798 0 1  .425781.439453 6.1261729 4.7925012 45.000798 0 1  .390625.470704 6.1261729 4.7925012 45.000798 0 1  .34961.496093 6.1261729 4.7925012 45.000798 0 1  .304687.517578 6.1261729 4.7925012 45.000798 0 1  .257813.533203 6.1261729 4.7925012 45.000798 0 1  .208984.542969 6.1261729 4.7925012 45.000798 0 1  .15625.548828 6.1261729 4.7925012 45.000798 0 1  .101563.550782 6.1261729 4.7925012 45.000798 0 1  .04883.542968 6.1261729 4.7925012 45.000798 0 1 -.0059.53125 6.1261729 4.7925012 45.000798 0 1 -.06055.515625 6.1261729 4.7925012 45.000798 0 1 -.117188.494141 6.1261729 4.7925012 45.000798 0 1 -.167969.466797 6.1261729 4.7925012 45.000798 0 1 -.220703.435547 6.1261729 4.7925012 45.000798 0 1 -.267578.40039 6.1261729 4.7925012 45.000798 0 1 -.21875.259766 6.1261729 4.7925012 45.000798 0 1 -.347656.332031 6.1261729 4.7925012 45.000798 0 1 -.386719.285156 6.1261729 4.7925012 45.000798 0 1 -.425781.236329 6.1261729 4.7925012 45.000798 0 1 -.457032.185547 6.1261729 4.7925012 45.000798 0 1 -.484374.134765 6.1261729 4.7925012 45.000798 0 1 -.509766.07813 6.1261729 4.7925012 45.000798 0 1 -.527344.02539 6.1261729 4.7925012 45.000798 0 1 -.539062-.0293 6.1261729 4.7925012 45.000798 0 1 -.548828-.08594 6.1261729 4.7925012 45.000798 0 1 -.548829-.138672 6.1261729 4.7925012 45.000798 0 1 -.546875-.189453 6.1261729 4.7925012 45.000798 0 1 -.537109-.242187 6.1261729 4.7925012 45.000798 0 1 -.523437-.289063 6.1261729 4.7925012 45.000798 0 1 -.503907-.335937 6.1261729 4.7925012 45.000798 0 1 -.08594-.06641c.531764.482087.94746 1.050362 1.558594 1.457031 1.011535.673111 2.131937 1.142937 3.238281 1.59375h9.814453c.416293 0 .782041-.15057 1.171875-.236328.708407-.339499 1.469124-.628077 2.095703-1.019531.334198-.208791.543359-.413593.849609-.626954.88351-.986035 1.458985-2.259454 1.458985-3.693359v-4.046871c-.57488-.177656-1.174275-.214264-1.734375-.439453-1.772834-.712772-3.455929-1.652755-4.955078-2.753906-.632044-.464248-.9125-1.422124-1.462891-1.81836l3.375-4.039062c1.109274.362959 2.247751.808816 3.320312 1.363281.417628.215894.745172.534707 1.136719.785156-.286089-.511823-.570538-1.041218-.861328-1.46875-.692225-1.017741-1.532627-1.96769-2.46875-2.8437497-.936123-.8760563-1.967482-1.6785525-3.037109-2.406247-2.139255-1.4553888-4.434403-2.6078571-6.445313-3.4296874z" fill="#7d329a"/><path d="m6.094726 20.758789c-.526502 1.500282-.98718 3.032371-1.144531 4.580078.707306.102267 1.369631.114555 1.988281.05078.383981-.03958.722387-.157895 1.074219-.253906-.346811-.52126-.665975-1.057185-.884766-1.632812-.255444-.672065-.415991-1.379482-.458984-2.121094-.02345-.07126-.02645-.14713-.04883-.21875-.0088-.0023-.02103.0014-.0293-.002-.20545-.08257-.336785-.260069-.496094-.402344z" fill="#7d329a"/><path d="m7.473633 1.8974609c-3.088651 0-5.576172 2.487521-5.576172 5.5761718v17.0527343c0 3.088651 2.487514 5.576172 5.576172 5.576172h7.238281c-1.106344-.450813-2.226746-.920639-3.238281-1.59375-.611133-.406669-1.02683-.974944-1.558594-1.457031a6.1261729 4.7925012 45.000798 0 1 -.392578-.310547 6.1261729 4.7925012 45.000798 0 1 -.322266-.289063 6.1261729 4.7925012 45.000798 0 1 -.427734-.439453 6.1261729 4.7925012 45.000798 0 1 -.115235-.138672c-.141175-.172018-.367999-.28581-.496093-.464843-.06133-.08572-.09033-.186109-.148438-.273438-.351832.09601-.690238.214324-1.074219.253906-.61865.06377-1.280975.05149-1.988281-.05078.157351-1.547707.618029-3.079796 1.144531-4.580078-.121194-.108237-.27946-.16993-.376953-.306641-.225646-.316415-.390364-.701676-.507812-1.123047-.234898-.842741-.282434-1.829206-.251954-2.695312.03073-.76716.0087-1.266863.169922-1.59375.02527-.05124.163972-.04481.199219-.08789a3 3 0 0 1 -.242187-.173829 3 3 0 0 1 -.22461-.197266 3 3 0 0 1 -.205078-.21875 3 3 0 0 1 -.18164-.240234 3 3 0 0 1 -.15625-.253906 3 3 0 0 1 -.13086-.271485 3 3 0 0 1 -.101562-.28125 3 3 0 0 1 -.07422-.291015 3 3 0 0 1 -.04492-.296875 3 3 0 0 1 -.01563-.298828 3 3 0 0 1  .0078-.212891 3 3 0 0 1  .03516-.296875 3 3 0 0 1  .06641-.292969 3 3 0 0 1  .0957-.283203 3 3 0 0 1  .121094-.275391 3 3 0 0 1  .15039-.259765 3 3 0 0 1  .173829-.244141 3 3 0 0 1  .197265-.224609 3 3 0 0 1  .220703-.205078 3 3 0 0 1  .238282-.181641 3 3 0 0 1  .255859-.15625 3 3 0 0 1  .269531-.1308593 3 3 0 0 1  .28125-.1015625 3 3 0 0 1  .291016-.074219 3 3 0 0 1  .296875-.044922 3 3 0 0 1  .298828-.015625 3 3 0 0 1  .212891.00781 3 3 0 0 1  .296875.035156 3 3 0 0 1  .292968.066406 3 3 0 0 1  .285157.095703 3 3 0 0 1  .273437.1210937 3 3 0 0 1  .126953.074219c.661042-.985763 1.320562-1.9900524 2.119141-2.7871094 1.103739-1.1016351 2.285429-1.9984226 3.402344-2.6230469 1.116914-.6246242 2.169268-.977844 3.009765-.9902343 2.01091.8218304 4.306058 1.9742986 6.445313 3.4296875 1.069627.7276944 2.100986 1.5301905 3.037109 2.4062499.936123.8760593 1.776525 1.8260083 2.46875 2.8437503.398741.586246.787918 1.318513 1.181641 2.013672v-6.6484353c0-3.0886508-2.487521-5.5761718-5.576172-5.5761718z" fill="#666"/></g></svg>