<svg height="12pt" viewBox="0 0 12 12" width="12pt" xmlns="http://www.w3.org/2000/svg"><path d="m2.800781.710938h6.398438c1.152343 0 2.089843.9375 2.089843 2.089843v6.398438c0 1.152343-.9375 2.089843-2.089843 2.089843h-6.398438c-1.152343 0-2.089843-.9375-2.089843-2.089843v-6.398438c0-1.152343.9375-2.089843 2.089843-2.089843zm0 0" fill="#959595" fill-rule="evenodd"/><path d="m6 2.773438c-1.128906 0-2.089844.371093-2.492188.898437-.03125.042969-.0625.085937-.085937.132813-.023437.042968-.046875.089843-.0625.132812-.003906.015625-.007813.03125-.011719.042969-.007812.03125-.019531.0625-.023437.09375-.007813.042969-.011719.089843-.011719.132812 0 .046875.003906.09375.011719.140625.007812.042969.019531.089844.039062.132813.015625.046875.035157.089843.0625.136719.023438.042968.050781.085937.082031.128906.414063.542968 1.398438.894531 2.492188.894531s2.078125-.351563 2.492188-.894531c.027343-.039063.050781-.074219.070312-.113282.003906-.007812.011719-.011718.015625-.019531.015625-.03125.03125-.0625.042969-.097656.007812-.015625.015625-.027344.019531-.042969.007813-.027344.015625-.054687.023437-.082031.003907-.019531.011719-.039063.011719-.0625.007813-.039063.011719-.078125.011719-.121094 0-.046875-.003906-.09375-.011719-.140625-.027343-.140625-.089843-.273437-.183593-.398437-.398438-.523438-1.363282-.894531-2.492188-.894531zm-2.492188 2.6875c-.128906.171874-.195312.355468-.195312.539062 0 .792969 1.203125 1.433594 2.6875 1.433594s2.6875-.640625 2.6875-1.433594c0-.183594-.066406-.367188-.195312-.539062-.410157.542968-1.398438.898437-2.492188.898437s-2.082031-.355469-2.492188-.898437zm0 1.792968c-.128906.171875-.195312.355469-.195312.539063 0 .792969 1.203125 1.433593 2.6875 1.433593s2.6875-.640624 2.6875-1.433593c0-.183594-.066406-.367188-.195312-.539063-.414063.542969-1.398438.898438-2.492188.898438s-2.082031-.355469-2.492188-.898438zm0 0" fill="#4d4d4d"/></svg>