<svg height="12pt" viewBox="0 0 12 12" width="12pt" xmlns="http://www.w3.org/2000/svg"><g fill-rule="evenodd"><path d="m6 6h-5.542969v3.351562c0 1.214844.976563 2.191407 2.191407 2.191407h3.351562zm0 0" fill="#f2ae37"/><path d="m6 6v5.542969h3.351562c1.214844 0 2.191407-.976563 2.191407-2.191407v-3.351562zm0 0" fill="#fff"/><path d="m2.648438.457031c-1.214844 0-2.191407.976563-2.191407 2.191407v3.351562h5.542969v-5.542969zm0 0" fill="#fff"/><path d="m6 .457031v5.542969h5.542969v-3.351562c0-1.214844-.976563-2.191407-2.191407-2.191407zm0 0" fill="#f4c165"/></g><path d="m7.605469 7.207031h2.410156c.222656 0 .402344.179688.402344.398438v2.410156c0 .222656-.179688.402344-.402344.402344h-2.410156c-.21875 0-.402344-.179688-.402344-.402344v-2.410156c0-.21875.183594-.398438.402344-.398438zm0 0" fill="#6192f5"/><path d="m1.984375 1.582031h2.410156c.21875 0 .398438.179688.398438.402344v2.410156c0 .21875-.179688.402344-.398438.402344h-2.410156c-.222656 0-.402344-.183594-.402344-.402344v-2.410156c0-.222656.179688-.402344.402344-.402344zm0 0" fill="#3775f2"/></svg>