<svg height="12pt" viewBox="0 0 12 12" width="12pt" xmlns="http://www.w3.org/2000/svg"><path d="m2.800781.710938h6.398438c1.152343 0 2.089843.9375 2.089843 2.089843v6.398438c0 1.152343-.9375 2.089843-2.089843 2.089843h-6.398438c-1.152343 0-2.089843-.9375-2.089843-2.089843v-6.398438c0-1.152343.9375-2.089843 2.089843-2.089843zm0 0" fill="#484b61" fill-rule="evenodd"/><path d="m6 1.652344c-2.402344 0-4.347656 1.945312-4.347656 4.347656s1.945312 4.347656 4.347656 4.347656 4.347656-1.945312 4.347656-4.347656-1.945312-4.347656-4.347656-4.347656zm0 0" fill="#484b61"/><path d="m8.484375 6c0 1.371094-1.113281 2.484375-2.484375 2.484375s-2.484375-1.113281-2.484375-2.484375 1.113281-2.484375 2.484375-2.484375 2.484375 1.113281 2.484375 2.484375zm0 0" fill="#9499b2"/><path d="m7.945312 2.75c.222657.128906.304688.40625.179688.621094l-1.570312 2.71875c-.125.214844-.40625.285156-.628907.15625-.222656-.128906-.300781-.40625-.175781-.621094l1.566406-2.71875c.125-.214844.40625-.285156.628906-.15625zm0 0" fill="#fff"/><g fill="#9499b2"><path d="m10.035156 6c0 .171875-.121094.308594-.277344.308594h-.375c-.152343 0-.277343-.136719-.277343-.308594s.125-.308594.277343-.308594h.375c.15625 0 .277344.136719.277344.308594zm0 0"/><path d="m2.894531 6c0 .171875-.125.308594-.277343.308594h-.375c-.15625 0-.277344-.136719-.277344-.308594s.121094-.308594.277344-.308594h.375c.152343 0 .277343.136719.277343.308594zm0 0"/><path d="m6 10.035156c-.171875 0-.308594-.121094-.308594-.277344v-.375c0-.152343.136719-.277343.308594-.277343s.308594.125.308594.277343v.375c0 .15625-.136719.277344-.308594.277344zm0 0"/><path d="m6 2.894531c-.171875 0-.308594-.125-.308594-.277343v-.375c0-.15625.136719-.277344.308594-.277344s.308594.121094.308594.277344v.375c0 .152343-.136719.277343-.308594.277343zm0 0"/></g></svg>