<svg height="12pt" viewBox="0 0 12 12" width="12pt" xmlns="http://www.w3.org/2000/svg"><g fill-rule="evenodd"><path d="m1.324219 10.675781 4.675781-4.675781-4.675781-4.675781c-.378907.375-.613281.898437-.613281 1.476562v6.398438c0 .578125.234374 1.097656.613281 1.476562zm0 0" fill="#c2352a"/><path d="m10.675781 10.675781-4.675781-4.675781-4.675781 4.675781c.375.378907.898437.613281 1.476562.613281h6.398438c.578125 0 1.101562-.234374 1.476562-.613281zm0 0" fill="#a45390"/><path d="m10.675781 1.324219-4.675781 4.675781 4.675781 4.675781c.378907-.375.613281-.898437.613281-1.476562v-6.398438c0-.578125-.234374-1.101562-.613281-1.476562zm0 0" fill="#6db832"/><path d="m1.324219 1.324219 4.675781 4.675781 4.675781-4.675781c-.378906-.378907-.898437-.613281-1.476562-.613281h-6.398438c-.578125 0-1.101562.234374-1.476562.613281zm0 0" fill="#4987d7"/></g><g fill="#fff"><path d="m3.785156 7.714844h-2.246094v-.492188l.789063-.847656c.097656-.109375.1875-.207031.269531-.296875.082032-.089844.148438-.175781.207032-.261719.058593-.085937.105468-.171875.136718-.261718.03125-.089844.046875-.183594.046875-.285157 0-.113281-.035156-.203125-.101562-.265625-.066407-.0625-.160157-.09375-.273438-.09375-.121093 0-.234375.03125-.347656.089844s-.226563.144531-.351563.253906l-.382812-.453125c.070312-.0625.140625-.125.214844-.179687.074218-.058594.15625-.109375.246094-.152344.089843-.046875.191406-.082031.296874-.105469.109376-.027343.230469-.042969.367188-.042969.160156 0 .300781.023438.429688.066407.128906.042969.238281.109375.328124.191406.089844.078125.15625.179687.203126.292969.050781.117187.074218.246094.074218.390625 0 .132812-.023437.257812-.070312.378906-.042969.121094-.105469.238281-.1875.351563-.078125.117187-.171875.230468-.273438.34375-.105468.113281-.21875.230468-.335937.347656l-.402344.402344v.035156h1.363281zm0 0"/><path d="m4.90625 3.25c0-.160156.007812-.320312.023438-.480469.019531-.160156.050781-.308593.09375-.453125.046874-.148437.109374-.285156.183593-.410156.078125-.125.175781-.234375.292969-.324219.121094-.09375.261719-.164062.425781-.21875.167969-.050781.359375-.078125.582031-.078125h.105469c.039063.003906.078125.003906.113281.007813.039063.003906.078126.003906.117188.011719.035156.003906.066406.007812.097656.015624v.5625c-.058594-.011718-.121094-.023437-.1875-.03125-.0625-.007812-.128906-.011718-.191406-.011718-.207031 0-.378906.023437-.511719.078125-.132812.046875-.234375.121093-.3125.210937s-.136719.203125-.167969.328125c-.03125.128907-.050781.273438-.058593.425781h.027343c.027344-.054687.066407-.105468.109376-.152343.042968-.046875.09375-.089844.152343-.121094.058594-.035156.121094-.0625.195313-.085937.074218-.019532.152344-.027344.246094-.027344.144531 0 .273437.023437.390624.070312.113282.046875.210938.117188.292969.207032.078125.089843.140625.199218.183594.332031.042969.128906.066406.28125.066406.449219 0 .183593-.027343.34375-.078125.488281-.050781.144531-.125.265625-.21875.367187-.09375.097656-.210937.175782-.34375.226563-.132812.050781-.285156.078125-.453125.078125-.164062 0-.316406-.027344-.460937-.085938-.144532-.058594-.269532-.148437-.375-.269531-.105469-.121094-.191406-.273437-.25-.457031s-.089844-.402344-.089844-.652344zm1.164062.898438c.0625 0 .117188-.007813.167969-.03125.050781-.027344.097657-.0625.132813-.109376.039062-.046874.066406-.109374.085937-.183593.023438-.074219.03125-.160157.03125-.261719 0-.160156-.03125-.289062-.101562-.382812-.066407-.09375-.171875-.140626-.308594-.140626-.070313 0-.132813.011719-.191406.039063-.058594.027344-.109375.0625-.148438.109375-.042969.042969-.074219.09375-.097656.148438-.019531.054687-.03125.109374-.03125.167968 0 .078125.007813.152344.027344.230469s.046875.148437.085937.210937c.039063.058594.089844.109376.144532.148438.058593.039062.125.054688.203124.054688zm0 0"/><path d="m9.453125 5.53125c.144531 0 .277344.023438.398437.066406.125.042969.234376.109375.324219.195313.09375.085937.164063.191406.214844.320312.050781.125.078125.273438.078125.4375 0 .179688-.027344.34375-.085938.488281-.054687.144532-.136718.265626-.246093.367188-.113281.097656-.25.175781-.410157.230469-.164062.050781-.347656.078125-.558593.078125-.085938 0-.167969-.003906-.25-.011719s-.164063-.019531-.238281-.035156c-.074219-.011719-.148438-.03125-.214844-.054688-.066406-.019531-.128906-.046875-.183594-.078125v-.613281c.054688.03125.113281.0625.183594.089844.070312.023437.144531.046875.21875.066406.078125.019531.152344.035156.230468.046875.074219.011719.148438.015625.214844.015625.207032 0 .363282-.042969.46875-.125.105469-.085937.160156-.222656.160156-.40625 0-.164063-.054687-.289063-.160156-.375-.101562-.085937-.261718-.128906-.480468-.128906-.039063 0-.082032 0-.128907.003906-.042969.007813-.089843.011719-.132812.019531-.042969.007813-.082031.015625-.125.027344-.039063.007812-.074219.015625-.101563.023438l-.28125-.152344.125-1.703125h1.769532v.597656h-1.15625l-.054688.660156c.050781-.011719.105469-.023437.167969-.035156.066406-.007813.152343-.015625.253906-.015625zm0 0"/><path d="m5.253906 10.714844 1.191406-2.746094h-1.539062v-.59375h2.308594v.441406l-1.222656 2.898438zm0 0"/></g></svg>