<svg height="12pt" viewBox="0 0 12 12" width="12pt" xmlns="http://www.w3.org/2000/svg"><path d="m2.800781.710938h6.398438c1.152343 0 2.089843.9375 2.089843 2.089843v6.398438c0 1.152343-.9375 2.089843-2.089843 2.089843h-6.398438c-1.152343 0-2.089843-.9375-2.089843-2.089843v-6.398438c0-1.152343.9375-2.089843 2.089843-2.089843zm0 0" fill="#e2d144" fill-rule="evenodd"/><g fill="#797131"><path d="m2.738281.710938h.578125v3.179687h-.578125zm0 0"/><path d="m7.070312.710938h.578126v2.3125h-.578126zm0 0"/><path d="m3.605469.710938h.578125v1.445312h-.578125zm0 0"/><path d="m2.160156 4.46875v2.308594h1.734375v-2.308594zm.578125.578125h.578125v1.152344h-.578125zm0 0"/><path d="m4.472656.710938h.574219v1.445312h-.574219zm0 0"/><path d="m5.335938.710938h.578124v1.445312h-.578124zm0 0"/><path d="m6.203125.710938h.578125v1.445312h-.578125zm0 0"/><path d="m7.9375.710938h.578125v1.445312h-.578125zm0 0"/><path d="m8.804688.710938h.578124v1.445312h-.578124zm0 0"/></g></svg>