<svg height="32" width="32" xmlns="http://www.w3.org/2000/svg"><rect fill="#c2352a" fill-rule="evenodd" height="28.203388" ry="5.575182" width="28.203388" x="1.898306" y="1.898306"/><path d="m13.658833 5.1803748c-.1641.14474-.20512.36184-.20512.61513 0 .4704.16409 1.0493.24614 1.2664 0 0 .12308 2.5329.1641 2.8224-.36922.03618-1.0256.07237-1.2717.1447302h-.32819c-.69741.03619-1.3538.07237-1.641.32566l-.12307.10855.12307.14474c.20512.2171.28717.83224.36922 1.4836.20512 1.3388.45125 3.0033 1.682 3.6546l.24614.10855v-.25329s.0411-.10855.0411-.25329c0-.10855-.0411-.28948-.082-.54276.32819.03618 1.0256.10855 1.2717.10855.04099.28947 1.1076 12.086 1.1076 12.086h.41024s.45127-11.651.45127-12.013c.28716 0 1.5589.03618 1.9281.07237-.082.21711-.41023 1.1217-.41023 1.1217l.57433-.4704c.1641-.10855 3.7332-2.9671 3.2409-4.8487-.1641-.61513-.73843-1.0493002-1.682-1.2664002h-.0822c-.53331 0-2.1743.03618-3.405.10855.0411-.94079.0411-1.4474.0411-1.7007v-.32565c0-.18092.20512-.43421.36922-.61513.1641-.2171.36922-.39803.36922-.61513 0-.07237-.0411-.14474-.082-.2171-.24614-.32566-2.0512-1.1579-2.8306-1.2303-.24614.03618-.41024.07237-.49229.18092zm.0411 5.9342002h.20512c0 .32566.12307 2.6053.16409 2.9309-.32819-.03619-1.1076-.10855-1.3538-.10855-.12307-.4704-.1641-.97698-.20512-1.4836-.041-.43421-.082-.86842-.1641-1.2664.36922 0 1.3538-.07237 1.3538-.07237zm2.5025 1.1217s.041-.86842.041-1.1579c.5333.07237 1.2307.10855 1.8871.10855h.73843c0 .14474-.0411.32566-.0411.32566-.082.79605-.20512 1.7368-.57434 2.6776-.24613 0-1.764-.07237-2.0922-.10855 0-.25329.0411-1.8454.0411-1.8454z" fill="#fff"/></svg>