<svg height="12pt" viewBox="0 0 12 12" width="12pt" xmlns="http://www.w3.org/2000/svg"><path d="m2.800781.710938h6.398438c1.152343 0 2.089843.9375 2.089843 2.089843v6.398438c0 1.152343-.9375 2.089843-2.089843 2.089843h-6.398438c-1.152343 0-2.089843-.9375-2.089843-2.089843v-6.398438c0-1.152343.9375-2.089843 2.089843-2.089843zm0 0" fill="#e94a63" fill-rule="evenodd"/><path d="m8.625 9.546875c.414062-.117187.6875-.476563.691406-.910156 0-.492188-.355468-.894531-.84375-.949219l-.09375-.011719-.75-.75-.75-.746093-.027344.03125c-.019531.019531-.03125.035156-.03125.042968 0 .003906.023438.035156.046876.070313.070312.09375.097656.195312.089843.34375-.015625.199219-.070312.289062-.371093.574219l-.054688.050781-.085938-.023438c-.121093-.03125-.238281-.011719-.320312.054688-.011719.011719.132812.164062.636719.671875l.652343.652344.011719.105468c.019531.238282.160157.480469.359375.632813.121094.089843.21875.136719.351563.167969.050781.011718.109375.023437.125.027343.054687.011719.269531-.007812.363281-.035156zm-.371094-.542969c-.292968-.085937-.398437-.425781-.210937-.664062.082031-.101563.183593-.148438.328125-.148438.089844 0 .125.003906.179687.03125.082031.042969.152344.117188.199219.210938.03125.0625.035156.085937.03125.179687-.003906.078125-.015625.125-.039062.175781-.046876.085938-.144532.175782-.230469.207032-.070313.023437-.195313.027344-.257813.007812zm-3.347656-2.96875c.042969-.09375.046875-.195312.015625-.335937-.011719-.039063 0-.050781.148437-.195313.171876-.171875.273438-.230468.425782-.257812.136718-.023438.292968.015625.414062.105468.046875.035157.046875.035157.074219.011719.015625-.011719.027344-.03125.027344-.039062 0-.007813-.113281-.128907-.253907-.269531-.140624-.136719-.285156-.285157-.328124-.328126l-.074219-.074218.019531-.070313c.078125-.34375.070312-.554687-.039062-.914062-.023438-.066407-.121094-.246094-.1875-.34375-.214844-.300781-.550782-.523438-.902344-.59375-.175782-.035157-.320313-.046875-.445313-.03125-.148437.019531-.320312.054687-.320312.066406 0 .003906.179687.191406.402343.414063.222657.222656.410157.414062.417969.425781.007813.011719.003907.035156-.003906.054687-.011719.019532-.03125.066406-.050781.109375-.019532.042969-.039063.097657-.050782.121094-.011718.019531-.054687.121094-.09375.21875l-.074218.179687-.242188.101563c-.132812.058594-.273437.121094-.3125.136719-.039062.019531-.082031.035156-.097656.042968-.023438.007813-.105469-.070312-.445312-.410156-.230469-.230468-.421876-.417968-.425782-.417968-.011718 0-.035156.097656-.054687.210937-.023438.113281-.023438.386719 0 .496094.089843.445312.316406.78125.699219 1.023437.042968.027344.082031.050782.085937.050782s.039063.015624.082031.035156c.175782.082031.410156.132812.617188.132812.101562 0 .320312-.03125.429687-.0625.023438-.007812.074219.039063.257813.222656.125.125.234375.230469.246094.230469.007812 0 .023437-.023437.039062-.046875zm0 0" fill="#fff"/><path d="m3.847656 9.644531c.070313-.03125.132813-.089843 1.519532-1.46875l.433593-.429687-.007812-.105469c-.015625-.226563.105469-.429687.324219-.535156.074218-.039063.097656-.042969.226562-.042969h.144531l.101563-.101562c.136718-.136719.167968-.199219.167968-.335938 0-.128906-.023437-.171875-.136718-.28125-.042969-.042969-.078125-.085938-.078125-.089844 0-.007812.4375-.449218.96875-.980468l.972656-.972657.152344-.078125c.441406-.230468.453125-.238281.484375-.296875.027344-.050781.105468-.195312.136718-.246093.011719-.023438.054688-.097657.089844-.167969.035156-.066407.09375-.167969.125-.222657.03125-.050781.0625-.113281.074219-.136718l.019531-.039063-.480468-.480469-.078126.042969c-.042968.027344-.121093.070313-.171874.097657-.054688.027343-.117188.066406-.148438.082031-.027344.015625-.089844.050781-.140625.078125s-.136719.074218-.191406.109375c-.058594.03125-.109375.058593-.113281.058593-.011719 0-.023438.019532-.097657.160157-.035156.0625-.070312.132812-.085937.152343-.011719.023438-.054688.105469-.097656.183594l-.070313.136719-.964844.964844c-.527343.53125-.964843.964843-.96875.964843-.003906 0-.046875-.039062-.097656-.085937-.109375-.105469-.175781-.136719-.277344-.136719-.121093 0-.207031.042969-.335937.171875l-.113282.113281.011719.078126c.015625.152343-.035156.304687-.140625.425781-.101562.117187-.234375.171875-.417968.171875-.125 0-.128907.003906-.175782.046875-.027344.023437-.453125.441406-.945312.925781-.820313.8125-.898438.890625-.933594.972656-.046875.101563-.050781.195313-.015625.285156.039063.082032.976563 1.015626 1.046875 1.039063.074219.023437.207031.011719.285156-.027344zm0 0" fill="#a43445"/></svg>