<svg height="12pt" viewBox="0 0 12 12" width="12pt" xmlns="http://www.w3.org/2000/svg"><path d="m2.800781.710938h6.398438c1.152343 0 2.089843.9375 2.089843 2.089843v6.398438c0 1.152343-.9375 2.089843-2.089843 2.089843h-6.398438c-1.152343 0-2.089843-.9375-2.089843-2.089843v-6.398438c0-1.152343.9375-2.089843 2.089843-2.089843zm0 0" fill="#974fa4" fill-rule="evenodd"/><path d="m5.894531 2.085938c-.082031 0-.164062.007812-.246093.015624-1.289063.144532-2.226563 1.207032-2.140626 2.394532l-.300781.03125.171875 1.5625 1.007813-.113282-.171875-1.558593-.375.039062c-.066406-1.015625.738281-1.925781 1.84375-2.046875 1.105468-.121094 2.09375.585938 2.25 1.59375l-.328125.035156.171875 1.5625.972656-.109374-.171875-1.558594-.3125.03125c-.164063-1.097656-1.1875-1.898438-2.371094-1.878906zm0 0" fill="#4d4d4d"/><path d="m5.746094 2.933594c-.136719.003906-.257813.078125-.351563.1875-.09375.105468-.167969.25-.230469.417968-.128906.335938-.203124 1.054688-.246093 1.507813s-.050781.644531-.03125 1.035156.058593.695313.136719.867188c.070312.148437.152343.316406.1875.46875.035156.15625.027343.277343-.0625.375-.089844.101562-.289063.1875-.671876.210937-.382812.019532-.945312-.136718-1.738281-.285156-.128906-.023438-.234375-.027344-.328125.003906s-.164062.097656-.210937.183594c-.085938.175781-.09375.804688-.109375 1.132812-.003906.105469.035156.207032.105468.289063.066407.082031.164063.152344.28125.210937.238282.117188.570313.203126.984376.265626.828124.121093 1.976562.140624 3.28125.066406.480468-.042969 1.242187-.070313 1.894531-.234375.328125-.085938.632812-.203125.863281-.382813.230469-.175781.386719-.425781.402344-.742187.015625-.296875 0-.746094-.058594-.886719s-.1875-.21875-.316406-.21875c-.261719-.007812-.570313.136719-.96875.230469-.457032.105469-.78125.058593-1 .042969-.21875-.015626-.328125.003906-.398438-.085938-.066406-.085938-.097656-.214844-.113281-.378906-.011719-.164063-.011719-.359375-.03125-.566406-.042969-.390626-.121094-1.03125-.296875-1.855469-.089844-.410157-.203125-1.074219-.355469-1.367188-.074219-.144531-.160156-.265625-.261719-.355469-.101562-.085937-.222656-.140624-.355468-.136718zm0 0" fill="#f2f2f2"/><path d="m5.4375 5.210938c-.023438.601562-.207031 1.152343-.480469 1.445312-.273437.289062-.59375.273438-.839843-.042969-.246094-.316406-.378907-.886719-.347657-1.488281.023438-.601562.207031-1.15625.480469-1.445312.273438-.289063.59375-.273438.839844.042968s.378906.882813.347656 1.488282zm0 0" fill="#fff"/><path d="m5.160156 5.460938c-.023437.308593-.226562.550781-.457031.542968-.230469-.007812-.398437-.261718-.375-.570312.019531-.308594.226563-.554688.457031-.546875.226563.007812.398438.265625.375.574219zm0 0" fill="#4d4d4d"/><path d="m7.9375 5.078125c.101562.925781-.246094 1.710937-.777344 1.761719-.527344.046875-1.039062-.660156-1.144531-1.585938-.101563-.921875.246094-1.710937.777344-1.757812.53125-.050782 1.042969.660156 1.144531 1.582031zm0 0" fill="#fff"/><path d="m7.382812 5.484375c-.0625.308594-.292968.539063-.515624.515625-.222657-.019531-.355469-.285156-.292969-.589844.039062-.199218.152343-.378906.296875-.46875.144531-.085937.296875-.070312.402344.039063.109374.113281.148437.304687.109374.503906zm0 0" fill="#4d4d4d"/></svg>