<svg height="12pt" viewBox="0 0 12 12" width="12pt" xmlns="http://www.w3.org/2000/svg" xmlns:xlink="http://www.w3.org/1999/xlink"><filter id="a" height="100%" width="100%" x="0%" y="0%"><feColorMatrix in="SourceGraphic" type="matrix" values="0 0 0 0 1 0 0 0 0 1 0 0 0 0 1 0 0 0 1 0"/></filter><mask id="b"><g filter="url(#a)"><path d="m0 0h12v12h-12z" fill-opacity=".501961"/></g></mask><clipPath id="c"><path d="m0 0h12v12h-12z"/></clipPath><mask id="d"><g filter="url(#a)"><path d="m0 0h12v12h-12z" fill-opacity=".501961"/></g></mask><clipPath id="e"><path d="m0 0h12v12h-12z"/></clipPath><path d="m2.800781.710938h6.398438c1.152343 0 2.089843.9375 2.089843 2.089843v6.398438c0 1.152343-.9375 2.089843-2.089843 2.089843h-6.398438c-1.152343 0-2.089843-.9375-2.089843-2.089843v-6.398438c0-1.152343.9375-2.089843 2.089843-2.089843zm0 0" fill="#8e8e8e" fill-rule="evenodd"/><path d="m3.589844 2.65625h4.820312c.144532 0 .265625.160156.265625.355469v4.636719c0 .199218-.121093.359374-.265625.359374h-4.820312c-.144532 0-.265625-.160156-.265625-.359374v-4.636719c0-.195313.121093-.355469.265625-.355469zm0 0" fill="#fecd38"/><path d="m2.628906 5.597656h6.742188c.207031 0 .375.167969.375.375v2.996094c0 .207031-.167969.375-.375.375h-6.742188c-.207031 0-.375-.167969-.375-.375v-2.996094c0-.207031.167969-.375.375-.375zm0 0" fill="#d2d2d2"/><g clip-path="url(#c)" mask="url(#b)"><path d="m4.125 4.261719v-.535157h3.75v.535157zm0 0"/></g><path d="m4.59375 6.9375h2.8125c.109375 0 .199219.089844.199219.199219v.402343c0 .109376-.089844.199219-.199219.199219h-2.8125c-.109375 0-.199219-.089843-.199219-.199219v-.402343c0-.109375.089844-.199219.199219-.199219zm0 0" fill="#484848"/><g clip-path="url(#e)" mask="url(#d)"><path d="m4.125 5.332031v-.535156h3.75v.535156zm0 0"/></g></svg>