<svg height="12pt" viewBox="0 0 12 12" width="12pt" xmlns="http://www.w3.org/2000/svg"><path d="m2.800781.710938h6.398438c1.152343 0 2.089843.9375 2.089843 2.089843v6.398438c0 1.152343-.9375 2.089843-2.089843 2.089843h-6.398438c-1.152343 0-2.089843-.9375-2.089843-2.089843v-6.398438c0-1.152343.9375-2.089843 2.089843-2.089843zm0 0" fill="#cb4444" fill-rule="evenodd"/><path d="m5.625 3v2.25h.75v-2.25zm.765625.78125c.042969.007812.089844.015625.132813.023438-.042969-.007813-.089844-.015626-.132813-.023438zm-.875.015625c-.042969.007813-.082031.015625-.125.027344.042969-.011719.082031-.019531.125-.027344zm1.125.035156c.046875.011719.09375.023438.136719.039063-.042969-.015625-.089844-.027344-.136719-.039063zm-1.386719.027344c-.035156.011719-.074218.023437-.113281.039063.039063-.015626.078125-.027344.113281-.039063zm1.65625.054687c.023438.007813.046875.019532.070313.027344-.023438-.007812-.046875-.019531-.070313-.027344zm-1.863281.019532c-1.007813.390625-1.671875 1.359375-1.671875 2.441406 0 1.449219 1.175781 2.625 2.625 2.625s2.625-1.175781 2.625-2.625c0-1.050781-.628906-1.996094-1.59375-2.410156l-.28125.691406c.683594.300781 1.125.972656 1.125 1.71875 0 1.035156-.839844 1.875-1.875 1.875s-1.875-.839844-1.875-1.875c0-.753906.453125-1.433594 1.148438-1.726562zm0 0" fill="#fff"/></svg>