<svg height="32" width="32" xmlns="http://www.w3.org/2000/svg"><g transform="translate(59.771983 5.016156)"><g fill-rule="evenodd"><path d="m-43.771484-3.1171875v13.5410155l-.002.564453 8.144532-14.1054685h-8.095703z" fill="#f6eb39"/><path d="m-43.772033 10.983404v.0019l8.02657 14.101562h.49882c3.08865 0 5.57617-2.487521 5.57617-5.576172v-.432747z" fill="#ec3323"/><path d="m-29.670473 10.985357h-14.09766l14.09766 8.203125z" fill="#ef5522"/><path d="m-29.670473 2.9072319-14.10156 8.0761721.004.0019 14.09766.109375z" fill="#f8991d"/><path d="m-35.629453-3.1181589-8.14258 14.1015629 14.10156-7.9042971v-.6210938c0-3.0886508-2.48752-5.576172-5.57617-5.576172z" fill="#f8ba15"/><path d="m-43.957585 25.086919h8.328132l-8.14258-14.099609h-.002l-.002.0019z" fill="#a61d4b"/><path d="m-43.777893 10.989263-14.0957 8.029297v.492187c0 3.088651 2.48556 5.576172 5.57421 5.576172h.509878z" fill="#462e90"/><path d="m-43.777893 10.989263-8.13867 14.097656h8.09179l.0488-14.097656z" fill="#7c3692"/><path d="m-43.773993 10.985357-14.0996-.03125v8.111328l14.0996-8.078125z" fill="#3e5ca9"/><path d="m-52.298828-3.1191406c-3.08865 0-5.574219 2.48752105-5.574219 5.5761718v.3242188l14.097656 8.205078h.002v-.002-.002l-.140624-.244141-7.9375-13.8554685h-.0625-.002v-.00195z" fill="#64ad45"/><path d="m-57.871088 2.7773437v8.2050783h14.09765z" fill="#0791cc"/><path d="m-51.854093-3.1122999 8.07812 14.1015629.002-.560547v-13.5410159z" fill="#cddc39"/></g><path d="m-50.116593 23.240134c.99081-.613158.87028-1.822381-.34304-3.441148-.49749-.663731-.45182-.672463-1.05628.201908-.98203 1.420549-1.11823 2.309608-.46126 3.010724.50851.542708 1.21306.629237 1.86058.228509zm-.0405-4.957612c.0985-.07532.36356-.297353.58901-.493393l.4099-.35644.30562.221398c.168.121775.47534.257793.68275.302277.62397.133807 1.09853-.01134 1.65885-.50725.16589-.146889 1.03312-.921656 1.92703-1.721707.89394-.80005 1.99222-1.780599 2.44061-2.178997.44842-.398401.92038-.822759 1.04878-.943024l.2335-.218658.29632.296305c.16295.162975.40236.319599.53199.348072.98412.216149 1.69657-.820327 1.13205-1.646914-.29385-.430231-4.37852-4.9648009-4.52656-5.0251031-.58245-.2372617-.99126-.1698876-1.33336.2197441-.39284.4474234-.39585.9320271-.008 1.4190448.11949.150394.2173.2966772.2173.3250752 0 .028399-.40711.4157052-.90471.8606842-.49757.4449784-1.29077 1.1592578-1.76265 1.5872818-.47186.428027-1.4002 1.261843-2.06294 1.852927-1.42563 1.271496-1.61716 1.555914-1.54961 2.300969.0235.259617.10748.556588.20285.718464l.16274.275932-.5207.483183c-.59089.54831-.68046.691854-.68008 1.089778.00074.772203.91081 1.248538 1.51.790351zm2.08317-1.28169c-.14952-.06067-1.45385-1.435391-1.68959-1.780851-.14531-.212945-.15853-.565426-.0298-.786325.0496-.08486.39857-.429868.77566-.766683.37711-.336816.66379-.647756.63708-.690978-.0275-.0446-.0126-.05695.0326-.02852.0452.02797.59805-.413203 1.25291-.999946.64455-.577505 1.60549-1.438745 2.13543-1.913868.52993-.4751243 1.00143-.8867849 1.04772-.9148024.0814-.049243 2.36166 2.4052554 2.36166 2.5421114 0 .03503-.73375.720459-1.63057 1.523199-.8968.802736-2.19257 1.963948-2.87942 2.580467-1.44603 1.297935-1.61127 1.399386-2.01358 1.236199zm.91083-.763778c.19277-.173244.36709-.332189.38745-.353199.021-.021.37059-.334061.77824-.695671.40765-.361608.7912-.706415.85235-.766233.0978-.09569.0223-.103106-.63-.06172-2.42502.153966-3.54312.257683-3.62139.335934-.13314.133072.10897.544457.70184 1.193206.5633.616341.62576.662665.89339.662665.23411 0 .35299-.05869.63812-.314998zm12.89882-9.344625c.79022-1.184624.66443-2.645997-.32228-3.7434361-.72851-.8102731-1.53542-1.1662461-2.49822-1.1020768-.89255.059489-1.2961.2876142-2.65118 1.4986636-.63104.563997-1.55468 1.3896962-2.05248 1.8348881l-.90511.8094389.71322.7896355c1.33106 1.4736875 3.02317 3.3662518 3.23167 3.6144448l.20768.247163 2.05296-1.8462987c1.12914-1.0154639 2.12985-1.9615534 2.22382-2.1024223z" fill="#fff" stroke-width=".074117"/></g></svg>