<svg height="32" width="32" xmlns="http://www.w3.org/2000/svg"><g fill-rule="evenodd" transform="translate(39.520508 -2.378906)"><g fill="#ccc"><path d="m-37.623047 17.541016c.03702.159856.119706.314453.267578.314453h5.652344c.17716 0 .318359-.169009.318359-.376953v-5.539063c0-.207945-.141199-.375-.318359-.375h-5.652344c-.147784 0-.23048.153239-.267578.3125z"/><path d="m-37.623047 24.880859c.0371.159261.119794.3125.267578.3125h5.652344c.17716 0 .318359-.167055.318359-.375v-5.539062c0-.207945-.141199-.376953-.318359-.376953h-5.652344c-.147872 0-.230562.154596-.267578.314453z"/><path d="m-31.658203 32.480469c.141716-.03828.273437-.143605.273437-.322266v-5.541015c0-.207945-.141199-.375001-.318359-.375h-5.652344c-.147784 0-.23048.153239-.267578.3125v.351562c0 3.088651 2.487521 5.574219 5.576172 5.574219z"/><path d="m-24.320312 32.480469c.142212-.0382.27539-.14353.27539-.322266v-5.541015c0-.207945-.143153-.375001-.320312-.375h-5.650391c-.17716 0-.320313.167055-.320313.375v5.541015c.000001.178736.133179.284067.275391.322266z"/><path d="m-16.980469 32.480469c.142213-.0382.275391-.14353.275391-.322266v-5.541015c0-.207945-.143153-.375001-.320313-.375h-5.65039c-.17716 0-.320313.167055-.320313.375v5.541015c0 .178736.133178.284067.275391.322266z"/><path d="m-9.4179688 26.556641c-.035798-.160781-.1188776-.314454-.2675781-.314453h-5.6523441c-.177159 0-.318359.167055-.318359.375v5.541015c0 .178661.131722.28399.273438.322266h.388671c3.088651 0 5.5761722-2.485568 5.5761722-5.574219z"/><path d="m-15.382812 4.2773438c-.141716.038276-.273438.1436047-.273438.3222656v5.5410156c0 .207945.1412.375.318359.375h5.6523441c.1487005 0 .2317801-.153672.2675781-.314453v-.3496095c0-3.0886508-2.4875212-5.5742187-5.5761722-5.5742187z"/></g><path d="m-22.720703 4.2773438c-.142213.038199-.275391.1435295-.275391.3222656v5.5410156c0 .207945.143153.375.320313.375h5.65039c.17716 0 .320313-.167055.320313-.375v-5.5410156c0-.1787361-.133178-.2840668-.275391-.3222656z" fill="#ff5757"/><path d="m-30.060547 4.2773438c-.142213.038199-.275391.1435295-.275391.3222656v5.5410156c.000001.207945.143153.375.320313.375h5.650391c.177159 0 .320312-.167055.320312-.375v-5.5410156c0-.1787361-.133178-.2840668-.27539-.3222656z" fill="#ccc"/><path d="m-37.623047 10.203125v1.673828c.0371-.159261.119794-.3125.267578-.3125h5.652344c.17716 0 .318359.167055.318359.375v5.539063c0 .207944-.141199.376953-.318359.376953h-5.652344c-.147872 0-.230562-.154597-.267578-.314453v1.675781c.03702-.159857.119706-.314453.267578-.314453h5.652344c.17716 0 .318359.169008.318359.376953v5.539062c0 .207945-.141199.375-.318359.375h-5.652344c-.147784 0-.23048-.153239-.267578-.3125v1.673829c.0371-.159261.119794-.3125.267578-.3125h5.652344c.17716-.000001.318359.167055.318359.375v5.541015c0 .178661-.131721.28399-.273437.322266h1.597656c-.142212-.0382-.27539-.14353-.275391-.322266v-5.541015c0-.207945.143153-.375.320313-.375h5.650391c.177159-.000001.320312.167055.320312.375v5.541015c0 .178736-.133178.284067-.27539.322266h1.599609c-.142213-.0382-.275391-.14353-.275391-.322266v-5.541015c0-.207945.143153-.375.320313-.375h5.65039c.17716-.000001.320313.167055.320313.375v5.541015c0 .178736-.133178.284067-.275391.322266h1.597657c-.141716-.03828-.273438-.143605-.273438-.322266v-5.541015c0-.207945.1412-.375.318359-.375h5.6523441c.1487005-.000001.2317801.153672.2675781.314453v-1.677735c-.035798.160781-.1188776.314453-.2675781.314453h-5.6523441c-.177159 0-.318359-.167055-.318359-.375v-5.539062c0-.207945.1412-.376953.318359-.376953h5.6523441c.1487862 0 .2318604.155042.2675781.316406v-1.679688c-.035718.161364-.1187919.316407-.2675781.316407h-5.6523441c-.177159 0-.318359-.169009-.318359-.376953v-5.539063c0-.207945.1412-.375.318359-.375h5.6523441c.1487005 0 .2317801.153673.2675781.314453v-1.677734c-.035798.160781-.1188776.314453-.2675781.314453h-5.6523441c-.177159 0-.318359-.167055-.318359-.375v-5.5410156c0-.1786609.131722-.2839901.273438-.3222656h-1.597657c.142213.038199.275391.1435295.275391.3222656v5.5410156c0 .207945-.143153.375-.320313.375h-5.65039c-.17716 0-.320313-.167055-.320313-.375v-5.5410156c0-.1787361.133178-.2840668.275391-.3222656h-1.599609c.142212.038199.27539.1435295.27539.3222656v5.5410156c0 .207945-.143153.375-.320312.375h-5.650391c-.17716 0-.320312-.167055-.320313-.375v-5.5410156c0-.1787361.133178-.2840668.275391-.3222656h-1.597656c.141716.038276.273437.1436047.273437.3222656v5.5410156c0 .207945-.141199.375-.318359.375h-5.652344c-.147784 0-.23048-.153239-.267578-.3125z" fill="#ececec"/><path d="m-37.623047 10.203125c.0371.159261.119794.3125.267578.3125h5.652344c.17716 0 .318359-.167055.318359-.375v-5.5410156c0-.1786609-.131721-.2839901-.273437-.3222656h-.388672c-3.088651 0-5.576172 2.4855679-5.576172 5.5742187z" fill="#4f4f4f"/><path d="m-22.675781 18.902344c-.17716 0-.320313.169008-.320313.376953v5.539062c0 .207945.143153.375.320313.375h5.65039c.17716 0 .320313-.167055.320313-.375v-5.539062c0-.207945-.143153-.376953-.320313-.376953z" fill="#0286c2"/><path d="m-22.675781 18.902344h5.65039c.17716 0 .320313.169008.320313.376953v5.539062c0 .207945-.143153.375-.320313.375h-5.65039c-.17716 0-.320313-.167055-.320313-.375v-5.539062c0-.207945.143153-.376953.320313-.376953z" fill="#ccc"/><path d="m-30.015625 18.902344c-.17716 0-.320313.169008-.320313.376953v5.539062c.000001.207945.143153.375.320313.375h5.650391c.177159 0 .320312-.167055.320312-.375v-5.539062c0-.207945-.143153-.376953-.320312-.376953z" fill="#0286c2"/><path d="m-30.015625 18.902344h5.650391c.177159 0 .320312.169008.320312.376953v5.539062c0 .207945-.143153.375-.320312.375h-5.650391c-.17716 0-.320312-.167055-.320313-.375v-5.539062c0-.207945.143153-.376953.320313-.376953z" fill="#4f4f4f"/><path d="m-22.675781 11.564453c-.17716 0-.320313.167055-.320313.375v5.539063c0 .207944.143153.376953.320313.376953h5.65039c.17716 0 .320313-.169009.320313-.376953v-5.539063c0-.207945-.143153-.375-.320313-.375z" fill="#0286c2"/><path d="m-22.675781 11.564453h5.65039c.17716 0 .320313.167055.320313.375v5.539063c0 .207944-.143153.376953-.320313.376953h-5.65039c-.17716 0-.320313-.169009-.320313-.376953v-5.539063c0-.207945.143153-.375.320313-.375z" fill="#ff5757"/><path d="m-30.015625 11.564453c-.17716 0-.320313.167055-.320313.375v5.539063c.000001.207944.143153.376953.320313.376953h5.650391c.177159 0 .320312-.169009.320312-.376953v-5.539063c0-.207945-.143153-.375-.320312-.375z" fill="#0286c2"/><path d="m-30.015625 11.564453h5.650391c.177159 0 .320312.167055.320312.375v5.539063c0 .207944-.143153.376953-.320312.376953h-5.650391c-.17716 0-.320312-.169009-.320313-.376953v-5.539063c0-.207945.143153-.375.320313-.375z" fill="#ccc"/><path d="m-9.4179688 19.21875c-.035718-.161364-.1187919-.316406-.2675781-.316406h-5.6523441c-.177159 0-.318359.169008-.318359.376953v5.539062c0 .207945.1412.375.318359.375h5.6523441c.1487005 0 .2317801-.153672.2675781-.314453z" fill="#4ac73e"/><path d="m-9.4179688 11.878906c-.035798-.16078-.1188776-.314453-.2675781-.314453h-5.6523441c-.177159 0-.318359.167055-.318359.375v5.539063c0 .207944.1412.376953.318359.376953h5.6523441c.1487862 0 .2318604-.155043.2675781-.316407z" fill="#ccc"/></g></svg>