<svg height="32" viewBox="0 0 32 32" width="32" xmlns="http://www.w3.org/2000/svg"><rect fill="#bad632" fill-rule="evenodd" height="28.203388" ry="5.575182" width="28.203388" x="1.898306" y="1.898306"/><g transform="translate(42.327511 5.696413)"><path d="m-26.327511-.29438852a10.597976 9.8409775 0 0 0 -10.597976 9.84097752 10.597976 9.8409775 0 0 0 3.784992 7.537432v3.817542l2.81679-2.246014a10.597976 9.8409775 0 0 0 3.996194.732017 10.597976 9.8409775 0 0 0 10.597976-9.840977 10.597976 9.8409775 0 0 0 -10.597976-9.84097752z" fill="#fff"/><path d="m-26.327511 2.7336046a6.8129844 6.8129844 0 0 0 -6.812984 6.8129844 6.8129844 6.8129844 0 0 0 6.812984 6.812984 6.8129844 6.8129844 0 0 0  .756998-.05027v3.042754a10.597976 9.8409775 0 0 0 2.270995-.378499v-3.327007a6.8129844 6.8129844 0 0 0 3.784991-6.1006489 6.8129844 6.8129844 0 0 0 -6.812984-6.8129844z" fill="#578418"/><path d="m-26.327511 5.7615976a3.7849914 3.7849914 0 0 0 -3.784991 3.7849914v5.658259a6.8129844 6.8129844 0 0 0 2.270994.975847v-3.166978a3.7849914 3.7849914 0 0 0 1.513997.317939 3.7849914 3.7849914 0 0 0 3.784991-3.7849913 3.7849914 3.7849914 0 0 0 -3.784991-3.7849914z" fill="#252920"/></g></svg>