<svg height="12pt" viewBox="0 0 12 12" width="12pt" xmlns="http://www.w3.org/2000/svg"><path d="m2.800781.710938h6.398438c1.152343 0 2.089843.9375 2.089843 2.089843v6.398438c0 1.152343-.9375 2.089843-2.089843 2.089843h-6.398438c-1.152343 0-2.089843-.9375-2.089843-2.089843v-6.398438c0-1.152343.9375-2.089843 2.089843-2.089843zm0 0" fill="#6688be" fill-rule="evenodd"/><g fill="none" stroke="#5b5b5b" stroke-linejoin="round" stroke-width="2" transform="matrix(.375 0 0 .375 .1875 0)"><path d="m7 16h14"/><path d="m13.895833 16 3.104167-7"/><path d="m14 16 3 7h7"/></g><g fill="#fff"><path d="m3.5625 6c0 .414062-.335938.75-.75.75s-.75-.335938-.75-.75.335938-.75.75-.75.75.335938.75.75zm0 0"/><path d="m6.1875 6c0 .414062-.335938.75-.75.75s-.75-.335938-.75-.75.335938-.75.75-.75.75.335938.75.75zm0 0"/><path d="m8.8125 6c0 .414062-.335938.75-.75.75s-.75-.335938-.75-.75.335938-.75.75-.75.75.335938.75.75zm0 0"/><path d="m7.3125 8.625c0 .414062-.335938.75-.75.75s-.75-.335938-.75-.75.335938-.75.75-.75.75.335938.75.75zm0 0"/><path d="m9.9375 8.625c0 .414062-.335938.75-.75.75s-.75-.335938-.75-.75.335938-.75.75-.75.75.335938.75.75zm0 0"/><path d="m7.3125 3.375c0 .414062-.335938.75-.75.75s-.75-.335938-.75-.75.335938-.75.75-.75.75.335938.75.75zm0 0"/></g></svg>