<svg height="12pt" viewBox="0 0 12 12" width="12pt" xmlns="http://www.w3.org/2000/svg"><path d="m2.800781.710938h6.398438c1.152343 0 2.089843.9375 2.089843 2.089843v6.398438c0 1.152343-.9375 2.089843-2.089843 2.089843h-6.398438c-1.152343 0-2.089843-.9375-2.089843-2.089843v-6.398438c0-1.152343.9375-2.089843 2.089843-2.089843zm0 0" fill="#587de6" fill-rule="evenodd"/><path d="m3.828125 9.207031c-.070313-.03125-.136719-.101562-.167969-.175781l-.023437-.058594v-3.269531l.027343-.070313c.019532-.050781.035157-.078124.074219-.113281.085938-.082031.121094-.089843.335938-.097656l.1875-.003906.003906-.550781c.003906-.449219.007813-.566407.023437-.648438.125-.75.707032-1.320312 1.457032-1.441406.121094-.015625.386718-.015625.507812 0 .296875.046875.570313.164062.800782.34375.351562.269531.585937.664062.65625 1.101562.015624.089844.019531.199219.023437.652344l.003906.542969.1875.003906c.179688.003906.191407.007813.246094.03125.074219.039063.132813.101563.164063.179687l.027343.0625v3.277344l-.023437.058594c-.03125.074219-.097656.144531-.167969.175781l-.058594.027344h-4.226562zm3.257813-4.296875c0-.28125-.003907-.539062-.011719-.578125-.027344-.210937-.148438-.441406-.300781-.597656-.171876-.175781-.351563-.265625-.632813-.316406-.230469-.042969-.542969.035156-.769531.191406-.226563.160156-.40625.449219-.445313.722656-.007812.039063-.011719.296875-.011719.578125v.511719h2.171876zm0 0" fill="#c3d2ff"/></svg>