<svg height="32" width="32" xmlns="http://www.w3.org/2000/svg"><rect fill="#e6e6e6" fill-rule="evenodd" height="28.203388" ry="5.575182" width="28.203388" x="1.898306" y="1.898306"/><g transform="translate(-.261988 -.029002)"><path d="m8.8626012 18.843945c-.377907-.08033-.714022-.257189-.98579-.518706-.269976-.259794-.457098-.583956-.535531-.92772l-.04355-.190874.006-4.585549.006-4.5855475.06899-.198011c.12804-.367522.330433-.658423.618402-.888822.327883-.262344.694913-.406806 1.13386-.446296.161314-.01451 1.4400338-.01926 3.8273158-.01416 3.895453.0083 3.639573.000689 3.981088.119123.629072.218277 1.09558.719345 1.265292 1.35902.04569.172206.04605.187088.053 2.2108125l.007 2.037443h-1.00135-1.001346v-1.90717-1.9071725h-3.49127-3.4912708v4.2937405 4.293741h1.9905438 1.990549v.948373.948377l-2.110398-.0014c-1.9525458-.0014-2.1236448-.0043-2.2875608-.03912z" fill="#8400ff"/><path d="m16.059368 25.553008c-.842206-.08148-1.53623-.668302-1.741142-1.472182l-.04676-.183453v-4.533437c0-4.232357.0024-4.542767.03612-4.67387.09736-.378575.261951-.674408.517255-.929712.246825-.246828.508642-.399635.889326-.519054l.18309-.05743 3.778082-.0056c3.6409-.0054 3.785075-.0042 3.970668.03397.423251.08694.779678.28434 1.069539.592332.182102.19349.268749.325843.373924.571152.144303.336573.135207.000344.135207 4.996392 0 3.872957-.0043 4.532576-.03039 4.656574-.176661.839805-.88802 1.445771-1.79109 1.525717-.278015.0246-7.088379.02333-7.343828-.0014zm7.185184-6.189072v-4.293741h-3.49127-3.491269v4.293741 4.293738h3.491269 3.49127z" fill="#00b471"/><path d="m9.9360022 24.676754c-.89418-.857491-1.632818-1.559502-1.641415-1.560028-.0086-.000683-.01564.552435-.01564 1.228806v1.229758h-.990062-.990062v-2.865966-2.865966h2.99124 2.9912388l-.0054.953583-.0054.953586-1.277821.01041-1.2778178.01041 1.6217338 1.551202c.891954.85316 1.624318 1.557334 1.627474 1.564835.0054.01275-1.265779 1.242531-1.359397 1.315168-.04139.03211-.09802-.01968-1.6686348-1.525821z" fill="#00b471"/><path d="m22.587973 7.3812497c.89418.857491 1.632818 1.5595025 1.641415 1.5600285.0086.000683.01564-.5524355.01564-1.2288065v-1.229758h.990062.990062v2.8659665 2.8659658h-2.99124-2.991239l.0054-.953583.0054-.953586 1.277821-.01041 1.277818-.01041-1.621734-1.5512018c-.891954-.8531605-1.624318-1.5573345-1.627474-1.5648355-.0054-.01275 1.265779-1.242531 1.359397-1.315168.04139-.03211.09802.01968 1.668635 1.525821z" fill="#8400ff"/></g></svg>