<svg height="12pt" viewBox="0 0 12 12" width="12pt" xmlns="http://www.w3.org/2000/svg"><path d="m11.289062 5.128906c-.011718 0-.015624-.007812-.023437-.007812h-4.738281l-.773438-.941406c-.128906-.15625-.273437-.273438-.4375-.351563-.164062-.078125-.347656-.121094-.550781-.121094h-3.902344c-.058593 0-.097656.050781-.152343.0625v5.425781c0 1.160157.933593 2.09375 2.09375 2.09375h6.394531c1.15625 0 2.089843-.933593 2.089843-2.09375zm0 0" fill="#5294e2" fill-rule="evenodd"/><path d="m2.804688.710938c-1.160157 0-2.09375.933593-2.09375 2.089843v.96875c.054687-.011719.09375-.0625.152343-.0625h3.902344c.203125 0 .386719.042969.550781.121094.164063.078125.308594.195313.4375.351563l.773438.941406h4.738281c.007813 0 .011719.007812.023437.007812v-2.328125c0-1.15625-.933593-2.089843-2.089843-2.089843zm0 0" fill="#a2c4fe" fill-rule="evenodd"/><g fill="#fff"><path d="m8.441406 6c0-1.347656-1.09375-2.441406-2.441406-2.441406s-2.441406 1.09375-2.441406 2.441406 1.09375 2.441406 2.441406 2.441406 2.441406-1.09375 2.441406-2.441406zm-.488281 0c0 1.078125-.875 1.953125-1.953125 1.953125s-1.953125-.875-1.953125-1.953125.875-1.953125 1.953125-1.953125 1.953125.875 1.953125 1.953125zm0 0"/><path d="m8.199219 7.464844-.609375-.976563-.613282-.976562h2.445313l-.613281.976562zm0 0"/><path d="m3.800781 4.535156-.609375.976563-.613281.976562h2.445313l-.613282-.976562zm0 0"/></g></svg>