<svg height="12pt" viewBox="0 0 12 12" width="12pt" xmlns="http://www.w3.org/2000/svg"><path d="m2.800781.710938h6.398438c1.152343 0 2.089843.9375 2.089843 2.089843v6.398438c0 1.152343-.9375 2.089843-2.089843 2.089843h-6.398438c-1.152343 0-2.089843-.9375-2.089843-2.089843v-6.398438c0-1.152343.9375-2.089843 2.089843-2.089843zm0 0" fill="#7767c0" fill-rule="evenodd"/><path d="m3.375 2.25v7.5h1.125v-4.34375l2.03125-2.03125h.59375v1.941406c-.449219.160156-.75.582032-.75 1.058594 0 .621094.503906 1.125 1.125 1.125s1.125-.503906 1.125-1.125c0-.476562-.300781-.902344-.75-1.058594v-1.941406h.75v-1.125zm1.125 1.125h.96875l-.96875.96875zm3 2.625c.207031 0 .375.167969.375.375s-.167969.375-.375.375-.375-.167969-.375-.375.167969-.375.375-.375zm0 0" fill="#7fffff"/></svg>