<svg height="12pt" viewBox="0 0 12 12" width="12pt" xmlns="http://www.w3.org/2000/svg"><path d="m2.800781.710938h6.398438c1.152343 0 2.089843.9375 2.089843 2.089843v6.398438c0 1.152343-.9375 2.089843-2.089843 2.089843h-6.398438c-1.152343 0-2.089843-.9375-2.089843-2.089843v-6.398438c0-1.152343.9375-2.089843 2.089843-2.089843zm0 0" fill="#333" fill-rule="evenodd"/><g fill="#afcf41"><path d="m3.335938 5.128906-.054688.175782c-.347656 1.128906-.328125 2.082031.019531 2.792968.347657.710938 1.035157 1.144532 1.898438 1.226563.875.074219 1.660156-.335938 2.277343-1.03125.617188-.695313 1.09375-1.679688 1.40625-2.816407l.085938-.308593h-.320312zm.375.492188 4.601562.035156c-.296875.945312-.707031 1.753906-1.203125 2.308594-.546875.617187-1.167969.929687-1.867187.871094-.726563-.066407-1.226563-.394532-1.5-.953126-.261719-.527343-.296876-1.296874-.03125-2.261718zm0 0" fill-rule="evenodd"/><path d="m4.238281 2.683594c-.222656 0-.410156.1875-.410156.414062 0 .226563.1875.410156.410156.410156.226563 0 .414063-.183593.414063-.410156 0-.226562-.1875-.414062-.414063-.414062zm0 0"/><path d="m7.148438 2.667969c-.226563 0-.414063.183593-.414063.410156s.1875.414063.414063.414063c.226562 0 .410156-.1875.410156-.414063s-.183594-.410156-.410156-.410156zm0 0"/></g></svg>