<svg height="12pt" viewBox="0 0 12 12" width="12pt" xmlns="http://www.w3.org/2000/svg"><path d="m .710938 5.105469v4.089843c0 1.160157.933593 2.09375 2.089843 2.09375h6.394531c1.160157 0 2.09375-.933593 2.09375-2.09375v-4.089843zm0 0" fill="#5f7c8a" fill-rule="evenodd"/><path d="m .710938 5.105469h10.578124v-2.304688c0-1.15625-.933593-2.089843-2.09375-2.089843h-6.394531c-1.15625 0-2.089843.933593-2.089843 2.089843zm0 0" fill="#fff" fill-rule="evenodd"/><path d="m9.246094 6.5625c0 .308594-.25.5625-.5625.5625-.308594 0-.5625-.253906-.5625-.5625 0-.3125.253906-.5625.5625-.5625.3125 0 .5625.25.5625.5625zm0 0" fill="#fff"/><path d="m4.121094 1.5h3.5c.277344 0 .5.234375.5.523438v3.648437c0 .785156-1.75 1.304687-2.25 1.828125-.5-.523438-2.25-1.042969-2.25-1.828125v-3.648437c0-.289063.222656-.523438.5-.523438zm0 0" fill="#10c36e"/><g fill="#fff"><path d="m3.621094 6.5625c0 .308594-.25.5625-.5625.5625-.308594 0-.5625-.253906-.5625-.5625 0-.3125.253906-.5625.5625-.5625.3125 0 .5625.25.5625.5625zm0 0"/><path d="m2.871094 8.0625c0 .308594-.25.5625-.5625.5625-.308594 0-.5625-.253906-.5625-.5625 0-.3125.253906-.5625.5625-.5625.3125 0 .5625.25.5625.5625zm0 0"/><path d="m4.746094 8.0625c0 .308594-.25.5625-.5625.5625-.308594 0-.5625-.253906-.5625-.5625 0-.3125.253906-.5625.5625-.5625.3125 0 .5625.25.5625.5625zm0 0"/><path d="m6.621094 8.0625c0 .308594-.25.5625-.5625.5625-.308594 0-.5625-.253906-.5625-.5625 0-.3125.253906-.5625.5625-.5625.3125 0 .5625.25.5625.5625zm0 0"/><path d="m8.496094 8.0625c0 .308594-.25.5625-.5625.5625-.308594 0-.5625-.253906-.5625-.5625 0-.3125.253906-.5625.5625-.5625.3125 0 .5625.25.5625.5625zm0 0"/><path d="m10.371094 8.0625c0 .308594-.25.5625-.5625.5625-.308594 0-.5625-.253906-.5625-.5625 0-.3125.253906-.5625.5625-.5625.3125 0 .5625.25.5625.5625zm0 0"/></g><path d="m2.023438 9h7.699218c.152344 0 .273438.125.273438.28125v.5625c0 .15625-.121094.28125-.273438.28125h-7.699218c-.152344 0-.277344-.125-.277344-.28125v-.5625c0-.15625.125-.28125.277344-.28125zm0 0" fill="#4c636e"/><path d="m6.453125 5.625-.738281-1.273438-.292969.324219v.949219h-.675781v-3.085938h.675781v1.367188l1-1.367188h.785156l-1.054687 1.324219 1.097656 1.761719zm0 0" fill="#fff"/></svg>