<svg height="32" width="32" xmlns="http://www.w3.org/2000/svg"><g fill-rule="evenodd" transform="translate(2.336911 .680603)"><path d="m13.088867 1.2177735h-1.625c.0159.040016.03087.080391.04492.1210938.02985.088524.05527.1784794.07617.2695312.02023.091609.03588.1841727.04687.2773438.01186.093332.01902.1872.02148.28125.0021.093821-.000514.1876886-.0078.28125-.0071.093627-.01879.1868424-.03516.2792969-.01628.092128-.03714.1833867-.0625.2734375-.02545.090639-.05544.1799435-.08984.2675781-.03477.087187-.07389.1725797-.117188.2558594-.04277.083676-.08971.1651582-.140625.2441406-.05153.078236-.106942.1538507-.166016.2265625-.05893.073403-.121513.1438036-.1875.2109375-.06577.06722-.134867.1311018-.207031.1914062-.07203.059686-.146995.1157454-.224609.1679688-.07759.052801-.157765.1016906-.240235.1464844-.08257.04457-.167306.084985-.253906.1210937-.061647.025653-.124186.049105-.1875.070312-.089166.029909-.1797739.055332-.271484.076172-.091576.020892-.1841394.037188-.277344.048828-.092717.011138-.1859317.017657-.279297.019531-.093822.00209-.1876887-.0005211-.28125-.00781-.093627-.0070543-.1868424-.0187876-.279297-.035156-.0927843-.0162138-.1846966-.0370733-.27539-.0625-.0899789-.0255176-.1786305-.0555028-.265625-.089844-.0871868-.0347731-.1725801-.0738845-.25586-.1171876-.0837163-.0434075-.1651991-.0909935-.24414-.1425781-.0788582-.0508456-.1551253-.1056014-.228516-.1640625-.0727362-.0589856-.1424843-.1215634-.208984-.1875-.0672199-.0657704-.1311023-.1348674-.191407-.2070312-.059686-.0720329-.1157448-.1469957-.167968-.2246094-.0528017-.0775867-.101691-.1577649-.146485-.2402344-.0445698-.0825648-.0849846-.167306-.121093-.2539062-.0256526-.0616465-.0491041-.1241861-.07031-.1875-.0299083-.0891658-.0553302-.1797742-.07617-.2714844-.0208927-.0915755-.0371898-.1841392-.04883-.2773438-.011203-.093365-.017721-.1872327-.01953-.28125-.00209-.093821.0005144-.1876886.0078-.28125.00706-.093627.01879-.1868424.03516-.2792968.016278-.092128.037137-.1833867.0625-.2734375.024832-.083314.053509-.1654333.08594-.2460938h-1.080078c-1.075071 0-2.019434.3812584-2.869141.9042969.0026-.0000036.0052-.0000036.0078 0 .093822-.00209.1876887.0005211.28125.00781.093627.00705.1868424.018788.279297.035156.092127.016278.1833863.037137.273437.0625.090639.025456.1799435.055441.267578.089844.087187.034773.1725801.073884.25586.1171875.083716.043408.1651991.090994.24414.1425782.078193.0509.153807.1056549.226563.1640625.073403.058934.1438033.1215131.210937.1875.06722.06577.1311017.1348674.191406.2070312.059686.072033.1157455.1469956.167969.2246093.052802.077587.101691.1577649.146485.2402344.04457.082565.084985.167306.121093.2539063.025653.061647.049104.1241861.07031.1875.02925.089201.054021.1798088.07422.2714843.020893.091576.03719.1841392.04883.2773438.011855.093332.019024.1872.02148.28125.00209.093821-.0005144.1876886-.0078.28125-.00706.093628-.01879.1868444-.03516.2792999-.01692.092161-.03843.1834209-.06445.2734375-.025454.090639-.055439.1799435-.08984.2675781-.0347733.0871866-.0738848.1725797-.117188.2558594-.0428285.0830119-.0897616.163841-.140625.2421875-.0508458.078858-.1056018.1551251-.164063.2285156-.0589345.0734027-.1215131.1438036-.1875.2109375-.0658182.0665532-.1349144.1297827-.207031.1894531-.0719881.0603522-.1469515.1170638-.224609.1699219-.0782641.0521928-.1590948.1004304-.242188.1445313-.082565.04457-.1673058.084985-.253906.1210937-.061647.025653-.124186.049105-.1875.070312-.088524.029847-.1784793.055269-.269531.076172-.091576.020892-.1841394.037188-.277344.048828-.093365.011203-.1872327.017721-.28125.019531-.093789.00273-.1876562.0007785-.28125-.00586-.09366-.0077007-.1868757-.0200859-.279297-.037109-.0921274-.0162775-.1833863-.0371367-.273437-.0625-.0906387-.0254555-.1799435-.0554412-.267578-.089844-.0871868-.0347731-.1725801-.0738845-.25586-.1171876-.08367582-.0427713-.16515781-.089705-.24414-.140625-.07823598-.0515347-.15385105-.1069422-.226563-.1660156-.07340256-.0589345-.14380331-.1215131-.210937-.1875-.06655312-.0658183-.12978264-.1349145-.189453-.2070312-.06035225-.0719882-.11706385-.1469518-.169922-.2246094-.05280167-.0775867-.10169104-.1577649-.146485-.2402344-.0439068-.082604-.0836694-.1673441-.11914-.2539062-.005326-.01428-.0105364-.028604-.01563-.042969-.04248.2784568-.164063.5276644-.164063.8183594v4.7207029c.005866.0019.0117265.0039.01758.0059.0871868.03477.17258009.07388.25586.117188.08367582.04277.16515781.08971.24414.140625.07819267.0509.15380697.105655.226563.164062.0734026.05893.14380331.121513.210937.1875.0672199.06577.13110235.134868.191407.207032.0596859.07203.1157448.146995.167968.224608.0528578.07822.10174794.159054.146485.242188.04457.08257.084985.167306.121093.253906.024952.06103.047753.122917.06836.185547.029908.08917.05533.179774.07617.271484.020893.09158.03719.184139.04883.277344.011855.09333.019024.1872.02148.28125.00209.09382-.0005144.187689-.0078.28125-.00706.09363-.01879.186842-.03516.279297-.01692.09216-.03843.183421-.06445.273437-.025454.09064-.055439.179943-.08984.267578-.034135.08715-.072594.172542-.115234.25586-.043465.08305-.09105.163882-.142578.242187-.0508455.07886-.10560111.155125-.164062.228516-.0589345.0734-.12151307.143803-.1875.210937-.0658185.06655-.13491502.129783-.207032.189454-.0719881.06035-.14695152.117063-.224609.169921-.07822239.05286-.15905383.101748-.242188.146485-.0826035.04391-.16734397.08367-.253906.11914-.02074.0081-.0415748.01587-.0625.02344v1.626953c.035789-.02822.0722581-.05558.109375-.08203.0775866-.0528.15776467-.101691.240234-.146485.08256509-.04457.1673065-.08498.253907-.121093.0610295-.02495.12291666-.04775.185547-.06836.0891657-.02991.17977396-.05533.271484-.07617.0915756-.02089.18413937-.03719.277344-.04883.0933322-.01186.1872-.01902.28125-.02148.093821-.0021.1876886.000514.28125.0078.093627.0071.1868425.01879.279297.03516.092161.01692.1834206.03843.273437.06445.090639.02545.1799435.05544.267578.08984.087187.03477.1725801.07388.25586.117187.083012.04283.1638407.08976.242187.140625.078858.05084.1551253.105601.228516.164062.073403.05893.1438033.121513.210937.1875.066553.06582.1297827.134915.189453.207032.060352.07199.1170638.146951.169922.224609.052858.07822.1017479.159054.146485.242188.04457.08256.084985.167306.121093.253906.024952.06103.047753.122917.06836.185547.029908.08917.05533.179774.07617.271484.020893.09158.03719.184139.04883.277344.011855.09333.019024.1872.02148.28125.00209.09382-.0005144.187689-.0078.28125-.00706.09363-.01879.186842-.03516.279297-.01692.09216-.03843.183421-.06445.273437-.025454.09064-.055439.179943-.08984.267578-.034773.08719-.073885.17258-.117188.25586-.042829.08301-.089762.163841-.140625.242187-.051481.0789-.106889.15517-.166016.228516-.0583.07336-.1202265.143756-.185547.210937-.065818.06655-.1349144.129783-.207031.189454-.071988.06035-.1469515.117063-.224609.169921-.078222.05286-.1590538.101748-.242188.146485-.082603.04391-.167344.08367-.253906.11914-.061004.02561-.1228911.04906-.185547.07031-.089166.02991-.179774.05533-.271484.07617-.091576.02089-.1841394.03719-.277344.04883-.093332.01186-.1872.01902-.28125.02148-.093821.0021-.1876886-.000514-.28125-.0078-.093627-.0071-.1868425-.01879-.279297-.03516-.0921613-.01692-.18342058-.03843-.273437-.06445-.0906386-.02545-.17994346-.05544-.267578-.08984-.0871868-.03477-.17258009-.07388-.25586-.117188-.08301174-.04283-.1638407-.08976-.242187-.140625-.051321-.03479-.10147866-.07127-.150391-.109375v.957031c0 1.555489.633689 2.953527 1.654297 3.962891-.00471-.01688-.00927-.03381-.01367-.05078-.020893-.09158-.03719-.184139-.04883-.277344-.01179-.09268-.018959-.185899-.02148-.279297-.00209-.09382.0005144-.187689.0078-.28125.00706-.09363.01879-.186842.03516-.279297.016856-.09282.038367-.184731.06445-.27539.025516-.08998.0555-.17863.08984-.265625.034773-.08719.073885-.17258.117188-.25586.042771-.08368.089705-.165158.140625-.24414.05148-.0789.1068883-.15517.166015-.228516.058351-.07269.1202767-.142437.185547-.208984.065771-.06722.134868-.131102.207032-.191407.072667-.05974.1482827-.115799.226562-.167968.077587-.0528.1577647-.101691.240234-.146485.082565-.04457.1673065-.08498.253907-.121094.061647-.02565.1241861-.0491.1875-.07031.089166-.02991.179774-.05533.271484-.07617.091576-.02089.1841394-.03719.277344-.04883.092718-.01114.1859317-.01766.279297-.01953.093821-.0021.1876886.000514.28125.0078.093627.0071.1868418.01879.279296.03516.092785.01621.1846972.03707.275391.0625.090015.02616.1786667.0568.265625.0918.087149.03413.1725417.07259.25586.115235.083716.04341.165199.09099.24414.142578.078858.05084.1551253.105601.228516.164062.072736.05899.1424843.121563.208984.1875.06722.06577.1311017.134868.191406.207032.059686.07203.1157455.146995.167969.224609.052858.07822.1017479.159054.146485.242188.04457.08256.084985.167306.121093.253906.025653.06165.049104.124186.07031.1875.029846.08852.055267.178479.07617.269531.020893.09158.03719.184139.04883.277344.011203.09336.017721.187233.01953.28125.00209.09382-.0005144.187689-.0078.28125-.00706.09363-.01879.186842-.03516.279297-.016214.09278-.037073.184697-.0625.27539-.026159.09002-.056797.178667-.0918.265625-.034135.08715-.072594.172542-.115234.25586-.043407.08372-.090993.165199-.142578.24414-.0509.07819-.1056552.153807-.164063.226563-.058935.0734-.1215131.143803-.1875.210937-.06577.06722-.1348673.131102-.207031.191407-.05196.04159-.1053792.08133-.160156.11914h5.181641c.0052-.0085.01037-.01695.01562-.02539.05085-.07886.105602-.155125.164063-.228516.05893-.0734.121513-.143804.1875-.210938.06582-.06655.134914-.129783.207031-.189453.07199-.06035.146952-.117064.22461-.169922.07826-.05219.159094-.10043.242187-.144531.08257-.04457.167306-.08498.253906-.121094.061-.02561.122891-.04906.185547-.07031.08917-.02991.179775-.05533.271485-.07617.09158-.02089.184139-.03719.277343-.04883.09337-.0112.187233-.01772.28125-.01953.09379-.0027.187657-.000752.28125.0059.09366.0077.186876.02009.279297.03711.09213.01628.183387.03714.273438.0625.09064.02545.179943.05544.267578.08984.08719.03477.172579.07388.255859.117188.08301.04283.163841.08976.242188.140625.0789.05148.155169.106888.228515.166015.0734.05893.143804.121513.210938.1875.06655.06582.129783.134914.189453.207031.06035.07199.117064.146952.169922.22461.01398.02195.02765.04408.04102.06641h1.580078c-.01907-.03735-.03731-.07512-.05469-.113281-.02561-.061-.04906-.122891-.07031-.185547-.02991-.08917-.05533-.179774-.07617-.271484-.02089-.09158-.03719-.184139-.04883-.277344-.0112-.09337-.01772-.187233-.01953-.28125-.0021-.09382.000514-.187689.0078-.28125.0071-.09363.01879-.186842.03516-.279297.01628-.09213.03714-.183386.0625-.273437.02545-.09064.05544-.179944.08984-.267579.03477-.08719.07388-.172579.117187-.255859.04347-.08305.09105-.163882.142578-.242188.05085-.07886.105602-.155125.164063-.228515.05893-.0734.121513-.143804.1875-.210938.06582-.06655.134914-.129783.207031-.189453.07199-.06035.146952-.117064.22461-.169922.07763-.05214.157806-.100373.240234-.144531.08257-.04457.167306-.08498.253906-.121094.06165-.02565.124186-.0491.1875-.07031.08917-.02991.179775-.05533.271485-.07617.09158-.02089.184139-.03719.277343-.04883.09272-.01114.185932-.01766.279297-.01953.09379-.0027.187657-.000752.28125.0059.09366.0077.186876.02009.279297.03711.09278.01621.184697.03707.275391.0625.08998.02552.17863.0555.265625.08984.08719.03477.172579.07388.255859.117188.08368.04277.165158.0897.244141.140625.0789.05148.155169.106888.228515.166015.07269.05835.142438.120277.208985.185547.06722.06577.131102.134867.191406.207031.05974.07267.115799.148283.167969.226563.0528.07759.10169.157765.146484.240234.04457.08257.08498.167306.121094.253907.02565.06165.0491.124186.07031.1875.02985.08852.05527.178479.07617.269531.02089.09157.03719.184139.04883.277343.0112.09337.01772.187233.01953.28125.0021.09382-.000514.187689-.0078.28125-.0071.09363-.01879.186842-.03516.279297-.01628.09213-.03714.183387-.0625.273438-.0261.09067-.05674.17998-.0918.267578-.02181.05344-.04526.106202-.07031.158203 1.246293-.000866 2.337648-.483209 3.263672-1.169922-.02679-.0061-.05348-.01263-.08008-.01953-.09064-.02545-.179943-.05544-.267578-.08984-.08715-.03413-.172541-.07259-.255859-.115234-.08305-.04346-.163882-.09105-.242188-.142578-.07886-.05085-.155125-.105602-.228515-.164063-.0734-.05893-.143804-.121513-.210938-.1875-.06655-.06582-.129783-.134914-.189453-.207031-.06035-.07199-.117064-.146951-.169922-.224609-.05286-.07822-.101747-.159054-.146484-.242188-.04457-.08256-.08499-.167306-.121094-.253906-.02495-.06103-.04775-.122917-.06836-.185547-.02991-.08917-.05533-.179774-.07617-.271484-.02089-.09158-.03719-.184139-.04883-.277344-.01186-.09333-.01903-.1872-.02149-.28125-.0021-.09382.000514-.187689.0078-.28125.0071-.09363.01879-.186842.03516-.279297.01692-.09216.03843-.183421.06445-.273438.02545-.09064.05544-.179943.08984-.267578.03477-.08719.07388-.172579.117187-.255859.04283-.08301.08976-.163841.140625-.242187.05148-.0789.106889-.15517.166016-.228516.0583-.07336.120226-.143757.185547-.210938.06582-.06655.134914-.129783.207031-.189453.07199-.06035.146951-.117064.224609-.169922.07827-.05222.159107-.100492.24221-.144621.08257-.04457.167306-.08498.253906-.121094.061-.02561.122891-.04906.185547-.07031.08917-.02991.179774-.05533.271484-.07617.09158-.02089.184139-.03719.277344-.04883.09333-.01186.1872-.01902.28125-.02148.09382-.0021.187689.000514.28125.0078.09366.0077.186876.02009.279297.03711.09213.01628.183387.03714.273438.0625.09064.02545.179943.05544.267578.08984.08719.03477.172579.07389.255859.117188.08301.04283.163841.08976.242188.140625.02904.02029.05769.04113.08594.0625v-5.119141c-.05457-.06661-.106058-.135697-.154297-.207031-.0528-.07759-.101691-.157765-.146485-.240235-.04457-.08257-.08498-.167306-.121093-.253906-.02565-.06165-.0491-.124186-.07031-.1875-.02925-.0892-.05402-.179809-.07422-.271484-.02089-.09158-.03719-.184139-.04883-.277344-.01179-.09268-.01896-.185899-.02148-.279297-.0021-.09382.000514-.187689.0078-.28125.0071-.09363.01879-.186842.03516-.279297.01686-.09282.03837-.184731.06445-.27539.02552-.08998.0555-.17863.08984-.265625.03413-.08715.07259-.172542.115234-.25586.04341-.08372.09099-.165199.142578-.24414.05085-.07886.105602-.155125.164063-.228516.0058-.0065.01169-.01305.01758-.01953v-1.953125c-.05825.01227-.116872.02269-.175782.03125-.09268.01179-.185899.01896-.279297.02148-.09382.0021-.187689-.000514-.28125-.0078-.09363-.0071-.186842-.01879-.279296-.03516-.09282-.01686-.184732-.03837-.275391-.06445-.08998-.02552-.17863-.0555-.265625-.08984-.08715-.03414-.17254-.0726-.255857-.115237-.08372-.04341-.1652-.09099-.244141-.142579-.07886-.05084-.155125-.105601-.228515-.164062-.07274-.05899-.142485-.121563-.208985-.1875-.06722-.06577-.131102-.134867-.191406-.207031-.06035-.07199-.117064-.146952-.169922-.22461-.05219-.07826-.10043-.159094-.144531-.242187-.04457-.08256-.08498-.167306-.121094-.253906-.02561-.061-.04906-.122891-.07031-.185547-.02991-.08917-.05533-.179775-.07617-.271485-.02089-.09158-.03719-.184139-.04883-.277343-.0112-.09337-.01772-.187233-.01953-.2812505-.0021-.093821.000514-.1876886.0078-.28125.0071-.093627.01879-.1868424.03516-.2792969.01628-.092128.03714-.1833866.0625-.2734374.02552-.089979.0555-.1786305.08984-.265625.03471-.087849.07382-.1738953.117188-.2578126.04283-.083012.08976-.163841.140625-.2421874.05148-.078901.106888-.1551693.166015-.2285157.05893-.073403.121513-.1438036.1875-.2109375.06582-.066553.134915-.1297827.207032-.1894531.07199-.060352.146951-.1170638.224609-.1699219.07763-.052137.157806-.1003734.240234-.1445312.08257-.04457.167306-.084985.253907-.1210938.06165-.025653.124186-.049105.1875-.070312.08917-.029909.179774-.055331.271484-.076172.09158-.020892.184139-.037188.277344-.048828.09272-.011138.185932-.017656.279297-.019531.09379-.00273.187656-.0007785.28125.00586.09366.0077.186875.020086.279296.037109.0091.00191.01824.00386.02734.00586v-.2656666c0-.8835624-.246521-1.688788-.609375-2.4296875-.03419.086487-.07265.171226-.115234.2539063-.04283.083012-.08976.163841-.140625.2421874-.05148.078901-.106889.1551693-.166016.2285157-.0583.073356-.120226.1437563-.185546.2109375-.06582.066553-.134915.1297827-.207032.1894531-.07262.060405-.148239.1171177-.226562.1699219-.07763.052137-.157806.1003735-.240235.1445312-.08256.04457-.167306.084985-.253906.1210938-.06165.025653-.124186.049105-.1875.070312-.08917.029909-.179774.055332-.271484.076172-.09158.020892-.184139.037188-.277344.048828-.09268.011791-.185899.018961-.279297.021484-.09382.00209-.187689-.0005211-.28125-.00781-.09366-.0077-.186876-.020086-.279297-.037109-.09279-.016214-.184697-.037073-.275391-.0625-.08997-.025518-.178623-.055503-.265614-.089844-.08718-.034774-.172573-.073886-.25585-.1171893-.08368-.042771-.165158-.089705-.244141-.140625-.078901-.0514805-.155169-.1068887-.228515-.1660156-.07269-.0583514-.142438-.1202766-.208985-.1855469-.06722-.0657704-.131102-.1348674-.191406-.2070312-.059739-.0726674-.115799-.148283-.167969-.2265625-.052801-.0775867-.10169-.157765-.146484-.2402344-.04457-.0825648-.084985-.167306-.121094-.2539063-.02565-.061647-.0491-.1241861-.07031-.1875-.02991-.089166-.05533-.1797742-.07617-.2714843-.02023-.091609-.03588-.1841727-.04687-.2773438-.01179-.092685-.01896-.185899-.02149-.2792969-.0021-.093821.000514-.1876885.0078-.2812499.0071-.093627.01879-.1868424.03516-.2792969.01686-.092819.03837-.1847314.06445-.2753906.02552-.089979.0555-.1786305.08984-.265625.03413-.087149.07259-.1725413.115234-.2558594.04341-.083717.09099-.1651995.142579-.2441406.0509-.078193.105655-.1538066.164062-.2265625.05893-.073403.121513-.1438036.1875-.2109375.01927-.018506.0388-.036737.05859-.054687-.139334-.010338-.258326-.080078-.400391-.080078h-4.601562c-.01781.025693-.03604.051087-.05469.076172-.05835.07269-.120277.1424373-.185547.2089844-.06577.06722-.134867.1311018-.207031.1914062-.07267.059739-.148283.1157992-.226562.1679688-.07759.052802-.157765.1016906-.240235.1464844-.08257.04457-.167306.084985-.253906.1210937-.061.02561-.122891.049062-.185547.070312-.0892.02925-.179809.054021-.271484.074219-.09158.020892-.184139.037188-.277344.048828-.09268.011791-.185899.018961-.279297.021484-.09382.00209-.187689-.0005211-.28125-.00781-.09363-.00705-.186842-.018788-.279297-.035156-.09278-.016214-.184697-.037073-.27539-.0625-.09002-.026158-.178667-.056795-.265625-.091797-.08715-.034135-.172542-.072594-.25586-.1152344-.08372-.043408-.165199-.090993-.24414-.1425781-.07886-.050846-.155125-.1056014-.228516-.1640625-.07274-.058986-.142484-.1215634-.208984-.1875-.06722-.06577-.131102-.1348674-.191407-.2070312-.0296-.037031-.05825-.074803-.08594-.1132813zm4.886719 1.9960938c.09382-.00209.187689.0005211.28125.00781.09363.00705.186842.018788.279296.035156.09216.016921.183421.038432.273438.064453.09064.025456.179944.055441.267578.089844.08715.034135.172542.072594.25586.1152344.08305.043465.163882.09105.242187.1425781.07886.050846.155125.1056014.228516.1640625.0734.058934.143803.1215131.210937.1875.06655.065818.129783.1349146.189453.2070313.06035.071988.117064.1469517.169922.2246093.05219.078264.10043.1590945.144531.2421875.04457.082565.08498.167306.121094.2539063.02561.061004.04906.122891.07031.1855469.02991.089166.05533.1797742.07617.2714843.02089.091576.03719.1841392.04883.2773438.01186.093332.01902.1872.02148.28125.0021.093821-.000514.1876886-.0078.28125-.0077.09366-.02009.1868756-.03711.2792969-.01628.092128-.03714.1833866-.0625.2734374-.02545.090639-.05544.1799436-.08984.2675782-.03477.087187-.07388.1725797-.117187.2558594-.04283.083012-.08976.163841-.140625.2421874-.05148.078901-.106889.1551693-.166016.2285157-.0583.073356-.120226.1437564-.185547.2109375-.06582.066553-.134914.1297827-.207031.1894531-.07262.060405-.148239.1171177-.226562.1699219-.07763.052137-.157806.1003735-.240235.1445312-.08256.04457-.167306.084985-.253906.1210938-.06165.025653-.124186.049105-.1875.070312-.08852.029846-.178479.055269-.269531.076172-.09158.020892-.184139.037188-.277344.048828-.09336.011203-.187233.017721-.28125.019531-.09379.00273-.187656.0007785-.28125-.00586-.09366-.0077-.186876-.020086-.279297-.037109-.09213-.016277-.183386-.037137-.273437-.0625-.09064-.025454-.179944-.055439-.267579-.089841-.08719-.034773-.172579-.073885-.255859-.1171875-.08368-.042771-.165158-.089705-.244141-.140625-.07824-.051535-.15385-.1069422-.226562-.1660156-.07336-.0583-.143757-.1202264-.210938-.1855469-.06722-.06577-.131102-.1348674-.191406-.2070312-.05974-.072667-.115799-.1482831-.167968-.2265625-.0528-.077587-.101691-.1577649-.146485-.2402344-.04457-.082565-.08498-.167306-.121094-.2539063-.025-.061673-.0478-.1242118-.06836-.1875-.02985-.088524-.05527-.1784794-.07617-.2695312-.02089-.091576-.03719-.1841392-.04883-.2773438-.01186-.093332-.01902-.1872-.02148-.28125-.0021-.093821.000514-.1876886.0078-.28125.0071-.093627.01879-.1868424.03516-.2792968.01692-.092162.03843-.1834209.06445-.2734375.02545-.090639.05544-.1799435.08984-.2675781.03413-.087149.07259-.1725413.115235-.2558594.04341-.083717.09099-.1651995.142578-.2441406.0509-.078192.105655-.1538067.164062-.2265626.05893-.073403.121513-.1438036.1875-.2109374.06577-.06722.134868-.1311019.207032-.1914063.07203-.059686.146995-.1157453.224609-.1679687.07822-.052858.159053-.1017475.242187-.1464844.08257-.04457.167306-.084985.253907-.1210938.061-.02561.122891-.049062.185547-.070312.0892-.02925.179809-.054021.271484-.074219.09158-.020892.184139-.037188.277344-.048828.09333-.011856.1872-.019026.28125-.021484zm-6.5 2.703125c.09382-.00209.187689.0005211.28125.00781.09363.00705.186842.018788.279296.035156.09282.016857.184732.038369.275391.064453.08998.025518.178631.055503.265625.089844.08715.034135.172542.072594.25586.1152344.08372.043407.165199.090993.24414.1425781.07819.0509.153807.1056549.226563.1640625.0734.058935.143803.1215131.210937.1875.06722.065771.131102.1348675.191406.2070313.05969.072033.115746.1469956.167969.2246093.05286.078222.101748.1590535.146485.2421875.04457.082565.08498.167306.121093.2539063.02561.061004.04906.122891.07031.1855469.02991.089166.05533.1797742.07617.2714843.02023.091609.03588.1841727.04687.2773438.01186.093332.01902.1872.02148.28125.0021.093821-.000514.1876886-.0078.28125-.0071.093627-.01879.1868424-.03516.2792969-.01628.092128-.03714.1833866-.0625.2734374-.0261.090675-.05674.17998-.0918.2675782-.03414.087149-.07259.1725416-.115234.2558598-.04346.08305-.09105.163882-.142578.242187-.05085.07886-.105602.155125-.164063.228516-.05893.0734-.121513.143803-.1875.210937-.06582.06655-.134914.129783-.207031.189453-.07199.06035-.146951.117064-.224609.169922-.07763.05214-.157806.100373-.240235.144531-.0832.04463-.168596.08504-.255859.121094-.061.02561-.122891.04906-.185547.07031-.08917.02991-.179774.05533-.271484.07617-.09158.02089-.184139.03719-.277344.04883-.09333.01185-.1872.01902-.28125.02148-.09382.0021-.187689-.000514-.28125-.0078-.09366-.0077-.186876-.02009-.279297-.03711-.09213-.01628-.183386-.03714-.273437-.0625-.08998-.02552-.17863-.0555-.265625-.08984-.08785-.03472-.173896-.07383-.257813-.117194-.08301-.04283-.163841-.08976-.242187-.140625-.0789016-.051481-.1551695-.106889-.228516-.166016-.0733564-.0583-.1437567-.120226-.210938-.185547-.0665531-.065818-.1297826-.134914-.189453-.207031-.060405-.072622-.1171171-.148239-.169921-.226562-.0521369-.077628-.100374-.157806-.144532-.240235-.0445701-.0825648-.0849852-.167306-.121094-.2539062-.0256526-.0616465-.0491041-.1241861-.07031-.1875-.0298459-.0885244-.0552673-.1784794-.07617-.2695312-.0208927-.0915755-.0371898-.1841392-.04883-.2773438-.011203-.093365-.017721-.1872327-.01953-.28125-.00209-.093821.0005144-.1876886.0078-.28125.00706-.093627.01879-.1868424.03516-.2792968.016278-.092128.037137-.1833867.0625-.2734375.0254542-.0906386.0554385-.1799435.08984-.2675781.0347733-.0871866.0738848-.1725797.117188-.2558594.0427713-.083676.089705-.1651582.140625-.2441406.0515345-.0782358.1069418-.1538508.166015-.2265626.0589345-.0734027.1215131-.1438036.1875-.2109374.0657707-.0672197.134868-.1311019.207032-.1914063.0720327-.0596862.1469954-.1157453.224609-.1679687.077587-.0528015.157765-.1016906.240234-.1464844.08256-.04457.167306-.084985.253907-.1210938.06167-.024995.124212-.047796.1875-.068359.08917-.029909.179774-.055332.271484-.076172.09093-.020828.182842-.037124.275391-.048828.09333-.011856.1872-.019026.28125-.021484zm-6.5 2.703125c.094472-.00215.1889929.0004558.283203.00781.092973.00712.1855345.018852.277343.035156.092819.016857.1847318.038369.275391.064453.089979.025518.1786305.055503.265625.089844.087811.034075.173857.072535.257813.1152344.083052.043465.1638818.09105.242187.1425781.078858.050846.1551253.1056014.228516.1640625.073403.058934.1438033.1215131.210937.1875.066553.065818.1297826.1349146.189453.2070313.060352.071988.1170638.1469517.169922.2246093.052193.078264.1004308.1590941.144532.2421871.04457.08256.084985.167307.121093.253907.025609.061.049061.122891.07031.185547.029908.08917.05533.179774.07617.271484.020893.09158.03719.184139.04883.277344.011203.09337.017721.187233.01953.28125.00209.09382-.0005144.187689-.0078.28125-.00706.09363-.01879.186842-.03516.279297-.016278.09213-.037137.183386-.0625.273437-.025454.09064-.055439.179943-.08984.267577-.034773.08719-.073884.17258-.117187.25586-.042829.08301-.089762.163841-.140625.242187-.051481.0789-.106889.15517-.166016.228516-.058935.0734-.1215131.143803-.1875.210937-.065818.06655-.1349144.129783-.207031.189453-.071988.06035-.1469515.117064-.224609.169922-.077628.05214-.1578062.100374-.240235.144532-.082565.04457-.1673058.08498-.253906.121093-.061646.02565-.1241861.0491-.1875.07031-.089166.02991-.179774.05533-.271484.07617-.090931.02083-.1828417.03713-.275391.04883-.093332.01186-.1872.01902-.28125.02148-.093821.0021-.1876886-.000514-.28125-.0078-.09366-.0077-.1868757-.02009-.279297-.03711-.092784-.01621-.1846966-.03707-.27539-.0625-.089979-.02552-.1786305-.0555-.265625-.08984-.087187-.03477-.1725801-.07388-.25586-.117188-.083676-.04277-.1651578-.0897-.24414-.140625-.0789016-.051481-.1551695-.106889-.228516-.166016-.0726898-.058351-.142437-.120276-.208984-.185546-.0672199-.065771-.1311024-.134868-.191407-.207032-.0597391-.072667-.1157987-.148283-.167968-.226562-.0528017-.077587-.101691-.157765-.146485-.240234-.04457-.08256-.084985-.167306-.121094-.253907-.025653-.06165-.049104-.124185-.07031-.187499-.029846-.08852-.055267-.178479-.07617-.269531-.020234-.09161-.035877-.184173-.04687-.277344-.011855-.09333-.019024-.1872-.02148-.28125-.00209-.09382.0005144-.187689.0078-.28125.00706-.09363.01879-.186842.03516-.279297.016278-.09213.037137-.183386.0625-.273437.026097-.09067.056736-.17998.0918-.267578.034135-.08715.072594-.172542.115235-.25586.043408-.08372.090994-.1651993.142578-.2441404.0509-.078193.1056546-.1538067.164062-.2265626.058934-.073403.1215131-.1438036.1875-.2109374.065771-.06722.134868-.1311019.207032-.1914063.072033-.059686.1469954-.1157453.224609-.1679687.077587-.052801.1577647-.1016906.240234-.1464844.083202-.044629.1685969-.085045.25586-.1210938.06103-.024952.1229167-.047752.185547-.068359.089166-.029909.1797739-.055331.271484-.076172.091576-.020892.1841394-.037188.277344-.048828.092685-.011791.1858992-.018961.279297-.021484zm2.703125 6.4999997c.093821-.0021.1876886.000514.28125.0078.093627.0071.1868425.01879.279297.03516.092818.01686.184731.03837.27539.06445.089979.02552.1786305.0555.265625.08984.087186.03477.1725794.07388.255859.117188.083676.04277.1651585.08971.244141.140625.078858.05085.1551253.105602.228516.164063.072736.05899.1424843.121563.208984.1875.06722.06577.1311017.134867.191406.207031.060352.07199.117064.146951.169922.224609.05219.07826.10043.159095.144531.242188.04457.08257.08498.167306.121094.253906.02561.061.04906.122891.07031.185547.02991.08917.05533.179774.07617.271484.02089.09158.03719.184139.04883.277344.0112.09337.01772.187233.01953.28125.0021.09382-.000514.187689-.0078.28125-.0071.09363-.01879.186842-.03516.279297-.01628.09213-.03714.183386-.0625.273437-.02545.09064-.05544.179943-.08984.267578-.03477.08719-.07389.17258-.117188.25586-.04346.08305-.09105.163882-.142578.242187-.05085.07886-.1056018.155125-.164063.228516-.058934.0734-.1215131.143803-.1875.210937-.065818.06655-.1349144.129783-.207031.189453-.071988.06035-.1469515.117064-.224609.169922-.077628.05214-.1578062.100374-.240235.144532-.082565.04457-.1673058.08498-.253906.121093-.061647.02565-.1241861.0491-.1875.07031-.089166.02991-.179774.05533-.271484.07617-.091576.02089-.1841394.03719-.277344.04883-.092685.01179-.1858993.01896-.279297.02148-.093821.0021-.1876886-.000514-.28125-.0078-.093627-.0071-.1868425-.01879-.279297-.03516-.092818-.01686-.184731-.03837-.27539-.06445-.089979-.02552-.1786305-.0555-.265625-.08984-.087187-.03477-.1725801-.07389-.25586-.117188-.083676-.04277-.1651578-.08971-.24414-.140625-.0789016-.051481-.1551695-.106889-.228516-.166016-.0726898-.058351-.142437-.120276-.208984-.185546-.0672199-.065771-.1311024-.134868-.191407-.207032-.0597391-.072667-.1157987-.148283-.167968-.226562-.0528017-.077587-.101691-.157765-.146485-.240234-.04457-.08256-.084985-.167307-.121093-.253907-.025653-.06165-.049104-.124186-.07031-.1875-.029846-.08852-.055267-.178479-.07617-.269531-.020893-.09158-.03719-.184139-.04883-.277344-.011203-.09337-.017721-.187233-.01953-.28125-.00209-.09382.0005144-.187689.0078-.28125.00706-.09363.01879-.186842.03516-.279297.016278-.09213.037137-.183386.0625-.273437.026097-.09068.056736-.17998.0918-.267578.034135-.08715.072595-.172542.115235-.25586.043407-.08372.090993-.165199.142578-.24414.0509-.07819.1056546-.153807.164062-.226563.058935-.0734.1215131-.143803.1875-.210937.065771-.06722.134868-.131102.207032-.191406.072033-.05969.1469954-.115745.224609-.167969.077587-.0528.1577647-.101691.240234-.146485.082565-.04457.1673065-.08498.253907-.121093.061673-.025.1242118-.0478.1875-.06836.089166-.02991.179774-.05533.271484-.07617.091576-.02089.1841394-.03719.277344-.04883.092685-.01179.1858993-.01896.279297-.02148zm2.701171 6.498047c.09382-.0021.187689.000514.28125.0078.09363.0071.186842.01879.279297.03516.09213.01628.183387.03714.273438.0625.09067.0261.17998.05674.267578.0918.08715.03413.172541.07259.255859.115235.08372.04341.1652.09099.244141.142578.07819.0509.153807.105655.226563.164062.0734.05893.143803.121513.210937.1875.06722.06577.131102.134868.191406.207032.05969.07203.115745.146995.167969.224609.0528.07759.10169.157765.146484.240234.04463.0832.08505.168597.121094.25586.02561.061.04906.122891.07031.185547.02925.0892.05402.179809.07422.271484.02089.09158.03719.184139.04883.277344.01186.09333.01902.1872.02148.28125.0021.09382-.000514.187689-.0078.28125-.0071.09363-.01879.186842-.03516.279297-.01692.09216-.03843.183421-.06445.273437-.02552.08998-.0555.17863-.08984.265625-.03407.08781-.07253.173857-.115234.257813-.04347.08305-.09105.163882-.142578.242187-.05085.07886-.105602.155125-.164063.228516-.05893.0734-.121513.143803-.1875.210937-.06582.06655-.134914.129783-.207031.189453-.07199.06035-.146951.117064-.224609.169922-.07826.05219-.159095.10043-.242188.144531-.08256.04457-.167306.08498-.253906.121094-.061.02561-.122891.04906-.185547.07031-.08917.02991-.179774.05533-.271484.07617-.09158.02089-.184139.03719-.277344.04883-.09337.0112-.187233.01772-.28125.01953-.09379.0027-.187657.000752-.28125-.0059-.09366-.0077-.186876-.02009-.279297-.03711-.092127-.01628-.1833863-.03714-.273437-.0625-.090639-.02545-.1799441-.05544-.267579-.08984-.0871864-.034773-.1725794-.073885-.255859-.117188-.0830121-.042828-.1638414-.089762-.242188-.140625-.0789012-.051481-.1551689-.106889-.228515-.166016-.0734029-.058934-.143804-.121513-.210938-.1875-.0665531-.065818-.1297826-.134914-.189453-.207031-.0603522-.071988-.1170638-.146951-.169922-.224609-.0521366-.077629-.1003733-.157806-.144531-.240235-.04457-.08256-.084985-.167306-.121094-.253906-.025653-.06165-.049104-.124186-.07031-.1875-.029846-.08852-.055267-.178479-.07617-.269531-.020893-.09158-.03719-.184139-.04883-.277344-.011203-.09336-.017721-.187233-.01953-.28125-.00272-.09379-.0007519-.187657.0059-.28125.0077-.09366.020087-.186876.03711-.279297.016214-.09278.037073-.184697.0625-.27539.025516-.08998.0555-.17863.08984-.265625.034773-.08719.073885-.17258.117188-.25586.042771-.08368.089705-.165158.140625-.24414.051535-.07824.1069418-.153851.166015-.226563.0583-.07336.1202265-.143756.185547-.210937.06577-.06722.1348673-.131102.207031-.191407.072668-.05974.1482834-.115799.226563-.167968.077587-.0528.1577647-.101691.240234-.146485.082565-.04457.1673065-.08498.253907-.121093.061647-.02565.1241861-.0491.1875-.07031.088524-.02985.1784793-.05527.269531-.07617.091609-.02023.184172-.03588.277343-.04687.09333-.01185.1872-.01902.28125-.02148z" fill="#ccc"/><path d="m10.379882 21.618164a2.8155206 2.8155206 0 0 0 -.28125.02148 2.8155206 2.8155206 0 0 0 -.277343.04687 2.8155206 2.8155206 0 0 0 -.269531.07617 2.8155206 2.8155206 0 0 0 -.1875.07031 2.8155206 2.8155206 0 0 0 -.253907.121093 2.8155206 2.8155206 0 0 0 -.240234.146485 2.8155206 2.8155206 0 0 0 -.226563.167968 2.8155206 2.8155206 0 0 0 -.207031.191407 2.8155206 2.8155206 0 0 0 -.185547.210937 2.8155206 2.8155206 0 0 0 -.166015.226563 2.8155206 2.8155206 0 0 0 -.140625.24414 2.8155206 2.8155206 0 0 0 -.117188.25586 2.8155206 2.8155206 0 0 0 -.08984.265625 2.8155206 2.8155206 0 0 0 -.0625.27539 2.8155206 2.8155206 0 0 0 -.03711.279297 2.8155206 2.8155206 0 0 0 -.0059.28125 2.8155206 2.8155206 0 0 0  .01953.28125 2.8155206 2.8155206 0 0 0  .04883.277344 2.8155206 2.8155206 0 0 0  .07617.269531 2.8155206 2.8155206 0 0 0  .07031.1875 2.8155206 2.8155206 0 0 0  .121094.253906 2.8155206 2.8155206 0 0 0  .144531.240235 2.8155206 2.8155206 0 0 0  .169922.224609 2.8155206 2.8155206 0 0 0  .189453.207031 2.8155206 2.8155206 0 0 0  .210938.1875 2.8155206 2.8155206 0 0 0  .228515.166016 2.8155206 2.8155206 0 0 0  .242188.140625 2.8155206 2.8155206 0 0 0  .255859.117188 2.8155206 2.8155206 0 0 0  .267579.08984 2.8155206 2.8155206 0 0 0  .273437.0625 2.8155206 2.8155206 0 0 0  .279297.03711 2.8155206 2.8155206 0 0 0  .28125.0059 2.8155206 2.8155206 0 0 0  .28125-.01953 2.8155206 2.8155206 0 0 0  .277344-.04883 2.8155206 2.8155206 0 0 0  .271484-.07617 2.8155206 2.8155206 0 0 0  .185547-.07031 2.8155206 2.8155206 0 0 0  .253906-.121094 2.8155206 2.8155206 0 0 0  .242188-.144531 2.8155206 2.8155206 0 0 0  .224609-.169922 2.8155206 2.8155206 0 0 0  .207031-.189453 2.8155206 2.8155206 0 0 0  .1875-.210937 2.8155206 2.8155206 0 0 0  .164063-.228516 2.8155206 2.8155206 0 0 0  .142578-.242187 2.8155206 2.8155206 0 0 0  .115234-.257813 2.8155206 2.8155206 0 0 0  .08984-.265625 2.8155206 2.8155206 0 0 0  .06445-.273437 2.8155206 2.8155206 0 0 0  .03516-.279297 2.8155206 2.8155206 0 0 0  .0078-.28125 2.8155206 2.8155206 0 0 0 -.02148-.28125 2.8155206 2.8155206 0 0 0 -.04883-.277344 2.8155206 2.8155206 0 0 0 -.07422-.271484 2.8155206 2.8155206 0 0 0 -.07031-.185547 2.8155206 2.8155206 0 0 0 -.121094-.25586 2.8155206 2.8155206 0 0 0 -.146484-.240234 2.8155206 2.8155206 0 0 0 -.167969-.224609 2.8155206 2.8155206 0 0 0 -.191406-.207032 2.8155206 2.8155206 0 0 0 -.210937-.1875 2.8155206 2.8155206 0 0 0 -.226563-.164062 2.8155206 2.8155206 0 0 0 -.244141-.142578 2.8155206 2.8155206 0 0 0 -.255859-.115235 2.8155206 2.8155206 0 0 0 -.267578-.0918 2.8155206 2.8155206 0 0 0 -.273438-.0625 2.8155206 2.8155206 0 0 0 -.279297-.03516 2.8155206 2.8155206 0 0 0 -.28125-.0078z" fill="#f2f2f2"/><path d="m16.879882 18.915039a2.8155206 2.8155206 0 0 0 -.28125.02148 2.8155206 2.8155206 0 0 0 -.277343.04687 2.8155206 2.8155206 0 0 0 -.271485.07617 2.8155206 2.8155206 0 0 0 -.185546.07031 2.8155206 2.8155206 0 0 0 -.253907.121094 2.8155206 2.8155206 0 0 0 -.242187.146485 2.8155206 2.8155206 0 0 0 -.22461.167968 2.8155206 2.8155206 0 0 0 -.207031.191407 2.8155206 2.8155206 0 0 0 -.1875.208984 2.8155206 2.8155206 0 0 0 -.164062.228516 2.8155206 2.8155206 0 0 0 -.142579.24414 2.8155206 2.8155206 0 0 0 -.115234.25586 2.8155206 2.8155206 0 0 0 -.0918.265625 2.8155206 2.8155206 0 0 0 -.0625.27539 2.8155206 2.8155206 0 0 0 -.03516.279297 2.8155206 2.8155206 0 0 0 -.0078.28125 2.8155206 2.8155206 0 0 0  .02148.28125 2.8155206 2.8155206 0 0 0  .04687.275391 2.8155206 2.8155206 0 0 0  .07617.271484 2.8155206 2.8155206 0 0 0  .07031.1875 2.8155206 2.8155206 0 0 0  .121094.253906 2.8155206 2.8155206 0 0 0  .146484.240235 2.8155206 2.8155206 0 0 0  .167969.224609 2.8155206 2.8155206 0 0 0  .191406.207031 2.8155206 2.8155206 0 0 0  .210938.1875 2.8155206 2.8155206 0 0 0  .226562.166016 2.8155206 2.8155206 0 0 0  .244141.140625 2.8155206 2.8155206 0 0 0  .255859.117187 2.8155206 2.8155206 0 0 0  .265625.08984 2.8155206 2.8155206 0 0 0  .275391.0625 2.8155206 2.8155206 0 0 0  .279297.03516 2.8155206 2.8155206 0 0 0  .28125.0078 2.8155206 2.8155206 0 0 0  .28125-.01953 2.8155206 2.8155206 0 0 0  .277344-.04883 2.8155206 2.8155206 0 0 0  .269531-.07617 2.8155206 2.8155206 0 0 0  .1875-.07031 2.8155206 2.8155206 0 0 0  .253906-.121093 2.8155206 2.8155206 0 0 0  .240235-.144532 2.8155206 2.8155206 0 0 0  .224609-.169922 2.8155206 2.8155206 0 0 0  .207031-.189453 2.8155206 2.8155206 0 0 0  .1875-.210937 2.8155206 2.8155206 0 0 0  .166016-.228516 2.8155206 2.8155206 0 0 0  .140625-.242187 2.8155206 2.8155206 0 0 0  .117187-.257813 2.8155206 2.8155206 0 0 0  .08984-.265625 2.8155206 2.8155206 0 0 0  .0625-.275391 2.8155206 2.8155206 0 0 0  .03711-.277343 2.8155206 2.8155206 0 0 0  .0059-.28125 2.8155206 2.8155206 0 0 0 -.01953-.28125 2.8155206 2.8155206 0 0 0 -.04883-.277344 2.8155206 2.8155206 0 0 0 -.07617-.271484 2.8155206 2.8155206 0 0 0 -.07031-.185547 2.8155206 2.8155206 0 0 0 -.121094-.25586 2.8155206 2.8155206 0 0 0 -.144531-.240234 2.8155206 2.8155206 0 0 0 -.169922-.224609 2.8155206 2.8155206 0 0 0 -.189453-.207032 2.8155206 2.8155206 0 0 0 -.210937-.1875 2.8155206 2.8155206 0 0 0 -.228516-.164062 2.8155206 2.8155206 0 0 0 -.242188-.142578 2.8155206 2.8155206 0 0 0 -.257812-.115235 2.8155206 2.8155206 0 0 0 -.265625-.0918 2.8155206 2.8155206 0 0 0 -.273438-.0625 2.8155206 2.8155206 0 0 0 -.279297-.03516 2.8155206 2.8155206 0 0 0 -.28125-.0078z" fill="#ccc"/><path d="m16.879882 18.915039a2.8155206 2.8155206 0 0 1  .28125.0078 2.8155206 2.8155206 0 0 1  .279297.03516 2.8155206 2.8155206 0 0 1  .273438.0625 2.8155206 2.8155206 0 0 1  .265625.0918 2.8155206 2.8155206 0 0 1  .257812.115235 2.8155206 2.8155206 0 0 1  .242188.142578 2.8155206 2.8155206 0 0 1  .228516.164062 2.8155206 2.8155206 0 0 1  .210937.1875 2.8155206 2.8155206 0 0 1  .189453.207032 2.8155206 2.8155206 0 0 1  .169922.224609 2.8155206 2.8155206 0 0 1  .144531.240234 2.8155206 2.8155206 0 0 1  .121094.25586 2.8155206 2.8155206 0 0 1  .07031.185547 2.8155206 2.8155206 0 0 1  .07617.271484 2.8155206 2.8155206 0 0 1  .04883.277344 2.8155206 2.8155206 0 0 1  .01953.28125 2.8155206 2.8155206 0 0 1 -.0059.28125 2.8155206 2.8155206 0 0 1 -.03711.277343 2.8155206 2.8155206 0 0 1 -.0625.275391 2.8155206 2.8155206 0 0 1 -.08984.265625 2.8155206 2.8155206 0 0 1 -.117187.257813 2.8155206 2.8155206 0 0 1 -.140625.242187 2.8155206 2.8155206 0 0 1 -.166016.228516 2.8155206 2.8155206 0 0 1 -.1875.210937 2.8155206 2.8155206 0 0 1 -.207031.189453 2.8155206 2.8155206 0 0 1 -.224609.169922 2.8155206 2.8155206 0 0 1 -.240235.144532 2.8155206 2.8155206 0 0 1 -.253906.121093 2.8155206 2.8155206 0 0 1 -.1875.07031 2.8155206 2.8155206 0 0 1 -.269531.07617 2.8155206 2.8155206 0 0 1 -.277344.04883 2.8155206 2.8155206 0 0 1 -.28125.01953 2.8155206 2.8155206 0 0 1 -.28125-.0078 2.8155206 2.8155206 0 0 1 -.279297-.03516 2.8155206 2.8155206 0 0 1 -.275391-.0625 2.8155206 2.8155206 0 0 1 -.265625-.08984 2.8155206 2.8155206 0 0 1 -.255859-.117187 2.8155206 2.8155206 0 0 1 -.244141-.140625 2.8155206 2.8155206 0 0 1 -.226562-.166016 2.8155206 2.8155206 0 0 1 -.210938-.1875 2.8155206 2.8155206 0 0 1 -.191406-.207031 2.8155206 2.8155206 0 0 1 -.167969-.224609 2.8155206 2.8155206 0 0 1 -.146484-.240235 2.8155206 2.8155206 0 0 1 -.121094-.253906 2.8155206 2.8155206 0 0 1 -.07031-.1875 2.8155206 2.8155206 0 0 1 -.07617-.271484 2.8155206 2.8155206 0 0 1 -.04687-.275391 2.8155206 2.8155206 0 0 1 -.02148-.28125 2.8155206 2.8155206 0 0 1  .0078-.28125 2.8155206 2.8155206 0 0 1  .03516-.279297 2.8155206 2.8155206 0 0 1  .0625-.27539 2.8155206 2.8155206 0 0 1  .0918-.265625 2.8155206 2.8155206 0 0 1  .115234-.25586 2.8155206 2.8155206 0 0 1  .142579-.24414 2.8155206 2.8155206 0 0 1  .164062-.228516 2.8155206 2.8155206 0 0 1  .1875-.208984 2.8155206 2.8155206 0 0 1  .207031-.191407 2.8155206 2.8155206 0 0 1  .22461-.167968 2.8155206 2.8155206 0 0 1  .242187-.146485 2.8155206 2.8155206 0 0 1  .253907-.121094 2.8155206 2.8155206 0 0 1  .185546-.07031 2.8155206 2.8155206 0 0 1  .271485-.07617 2.8155206 2.8155206 0 0 1  .277343-.04687 2.8155206 2.8155206 0 0 1  .28125-.02148z" fill="#f2f2f2"/><path d="m23.377929 16.211914a2.8155206 2.8155206 0 0 0 -.28125.02148 2.8155206 2.8155206 0 0 0 -.277343.04687 2.8155206 2.8155206 0 0 0 -.269532.07617 2.8155206 2.8155206 0 0 0 -.1875.07031 2.8155206 2.8155206 0 0 0 -.253906.121093 2.8155206 2.8155206 0 0 0 -.240234.146485 2.8155206 2.8155206 0 0 0 -.22461.167968 2.8155206 2.8155206 0 0 0 -.207031.191407 2.8155206 2.8155206 0 0 0 -.1875.208984 2.8155206 2.8155206 0 0 0 -.166015.228516 2.8155206 2.8155206 0 0 0 -.140626.24414 2.8155206 2.8155206 0 0 0 -.117187.25586 2.8155206 2.8155206 0 0 0 -.08984.265625 2.8155206 2.8155206 0 0 0 -.0625.27539 2.8155206 2.8155206 0 0 0 -.03711.279297 2.8155206 2.8155206 0 0 0 -.0059.28125 2.8155206 2.8155206 0 0 0  .01953.28125 2.8155206 2.8155206 0 0 0  .04883.275391 2.8155206 2.8155206 0 0 0  .07617.271484 2.8155206 2.8155206 0 0 0  .07031.1875 2.8155206 2.8155206 0 0 0  .121094.253906 2.8155206 2.8155206 0 0 0  .144531.240235 2.8155206 2.8155206 0 0 0  .169922.224609 2.8155206 2.8155206 0 0 0  .189453.207031 2.8155206 2.8155206 0 0 0  .210938.1875 2.8155206 2.8155206 0 0 0  .228515.166016 2.8155206 2.8155206 0 0 0  .242188.140625 2.8155206 2.8155206 0 0 0  .257812.117188 2.8155206 2.8155206 0 0 0  .265625.08984 2.8155206 2.8155206 0 0 0  .273438.0625 2.8155206 2.8155206 0 0 0  .279297.03516 2.8155206 2.8155206 0 0 0  .28125.0078 2.8155206 2.8155206 0 0 0  .28125-.01953 2.8155206 2.8155206 0 0 0  .277343-.04883 2.8155206 2.8155206 0 0 0  .271485-.07617 2.8155206 2.8155206 0 0 0  .185547-.07031 2.8155206 2.8155206 0 0 0  .253906-.121094 2.8155206 2.8155206 0 0 0  .242187-.144531 2.8155206 2.8155206 0 0 0  .22461-.169922 2.8155206 2.8155206 0 0 0  .207031-.189453 2.8155206 2.8155206 0 0 0  .1875-.210937 2.8155206 2.8155206 0 0 0  .164063-.228516 2.8155206 2.8155206 0 0 0  .142578-.242187 2.8155206 2.8155206 0 0 0  .115234-.257813 2.8155206 2.8155206 0 0 0  .08984-.265625 2.8155206 2.8155206 0 0 0  .06445-.27539 2.8155206 2.8155206 0 0 0  .03516-.277344 2.8155206 2.8155206 0 0 0  .0078-.283203 2.8155206 2.8155206 0 0 0 -.02148-.279297 2.8155206 2.8155206 0 0 0 -.04883-.277344 2.8155206 2.8155206 0 0 0 -.07422-.271484 2.8155206 2.8155206 0 0 0 -.07031-.185547 2.8155206 2.8155206 0 0 0 -.121094-.25586 2.8155206 2.8155206 0 0 0 -.146484-.240234 2.8155206 2.8155206 0 0 0 -.167969-.224609 2.8155206 2.8155206 0 0 0 -.191406-.207032 2.8155206 2.8155206 0 0 0 -.210938-.1875 2.8155206 2.8155206 0 0 0 -.226562-.164062 2.8155206 2.8155206 0 0 0 -.244141-.142578 2.8155206 2.8155206 0 0 0 -.255859-.115235 2.8155206 2.8155206 0 0 0 -.267578-.0918 2.8155206 2.8155206 0 0 0 -.273438-.0625 2.8155206 2.8155206 0 0 0 -.279297-.03516 2.8155206 2.8155206 0 0 0 -.28125-.0078z" fill="#ccc"/><path d="m7.678711 15.120117a2.8155206 2.8155206 0 0 0 -.279297.02148 2.8155206 2.8155206 0 0 0 -.277344.04883 2.8155206 2.8155206 0 0 0 -.271484.07617 2.8155206 2.8155206 0 0 0 -.1875.06836 2.8155206 2.8155206 0 0 0 -.253907.121093 2.8155206 2.8155206 0 0 0 -.240234.146485 2.8155206 2.8155206 0 0 0 -.224609.167969 2.8155206 2.8155206 0 0 0 -.207032.191406 2.8155206 2.8155206 0 0 0 -.1875.210937 2.8155206 2.8155206 0 0 0 -.164062.226563 2.8155206 2.8155206 0 0 0 -.142578.24414 2.8155206 2.8155206 0 0 0 -.115235.25586 2.8155206 2.8155206 0 0 0 -.0918.267578 2.8155206 2.8155206 0 0 0 -.0625.273437 2.8155206 2.8155206 0 0 0 -.03516.279297 2.8155206 2.8155206 0 0 0 -.0078.28125 2.8155206 2.8155206 0 0 0  .01953.28125 2.8155206 2.8155206 0 0 0  .04883.277344 2.8155206 2.8155206 0 0 0  .07617.269531 2.8155206 2.8155206 0 0 0  .07031.1875 2.8155206 2.8155206 0 0 0  .121093.253907 2.8155206 2.8155206 0 0 0  .146485.240234 2.8155206 2.8155206 0 0 0  .167968.226562 2.8155206 2.8155206 0 0 0  .191407.207032 2.8155206 2.8155206 0 0 0  .208984.185546 2.8155206 2.8155206 0 0 0  .228516.166016 2.8155206 2.8155206 0 0 0  .24414.140625 2.8155206 2.8155206 0 0 0  .25586.117188 2.8155206 2.8155206 0 0 0  .265625.08984 2.8155206 2.8155206 0 0 0  .27539.06445 2.8155206 2.8155206 0 0 0  .279297.03516 2.8155206 2.8155206 0 0 0  .28125.0078 2.8155206 2.8155206 0 0 0  .279297-.02148 2.8155206 2.8155206 0 0 0  .277344-.04883 2.8155206 2.8155206 0 0 0  .271484-.07617 2.8155206 2.8155206 0 0 0  .1875-.07031 2.8155206 2.8155206 0 0 0  .253906-.121093 2.8155206 2.8155206 0 0 0  .240235-.144532 2.8155206 2.8155206 0 0 0  .224609-.169922 2.8155206 2.8155206 0 0 0  .207031-.189453 2.8155206 2.8155206 0 0 0  .1875-.210937 2.8155206 2.8155206 0 0 0  .164063-.228516 2.8155206 2.8155206 0 0 0  .142578-.242187 2.8155206 2.8155206 0 0 0  .117188-.25586 2.8155206 2.8155206 0 0 0  .08984-.267578 2.8155206 2.8155206 0 0 0  .0625-.273437 2.8155206 2.8155206 0 0 0  .03516-.279297 2.8155206 2.8155206 0 0 0  .0078-.28125 2.8155206 2.8155206 0 0 0 -.01953-.28125 2.8155206 2.8155206 0 0 0 -.04883-.277344 2.8155206 2.8155206 0 0 0 -.07617-.271484 2.8155206 2.8155206 0 0 0 -.07031-.185547 2.8155206 2.8155206 0 0 0 -.121094-.253906 2.8155206 2.8155206 0 0 0 -.144531-.242188 2.8155206 2.8155206 0 0 0 -.169922-.224609 2.8155206 2.8155206 0 0 0 -.191406-.207031 2.8155206 2.8155206 0 0 0 -.208984-.1875 2.8155206 2.8155206 0 0 0 -.228516-.164063 2.8155206 2.8155206 0 0 0 -.244141-.140625 2.8155206 2.8155206 0 0 0 -.255859-.117188 2.8155206 2.8155206 0 0 0 -.265625-.08984 2.8155206 2.8155206 0 0 0 -.27539-.06445 2.8155206 2.8155206 0 0 0 -.279297-.03516 2.8155206 2.8155206 0 0 0 -.28125-.0078z" fill="#f2f2f2"/><path d="m14.178711 12.416992a2.8155206 2.8155206 0 0 0 -.28125.02148 2.8155206 2.8155206 0 0 0 -.277344.04883 2.8155206 2.8155206 0 0 0 -.269531.07617 2.8155206 2.8155206 0 0 0 -.1875.06836 2.8155206 2.8155206 0 0 0 -.253907.121093 2.8155206 2.8155206 0 0 0 -.240234.146485 2.8155206 2.8155206 0 0 0 -.226563.167968 2.8155206 2.8155206 0 0 0 -.207031.191407 2.8155206 2.8155206 0 0 0 -.185547.210937 2.8155206 2.8155206 0 0 0 -.166015.226563 2.8155206 2.8155206 0 0 0 -.140625.24414 2.8155206 2.8155206 0 0 0 -.117188.25586 2.8155206 2.8155206 0 0 0 -.08984.267578 2.8155206 2.8155206 0 0 0 -.06445.273437 2.8155206 2.8155206 0 0 0 -.03516.279297 2.8155206 2.8155206 0 0 0 -.0078.28125 2.8155206 2.8155206 0 0 0  .02148.28125 2.8155206 2.8155206 0 0 0  .04883.277344 2.8155206 2.8155206 0 0 0  .07617.269531 2.8155206 2.8155206 0 0 0  .07031.1875 2.8155206 2.8155206 0 0 0  .11914.253906 2.8155206 2.8155206 0 0 0  .146484.240235 2.8155206 2.8155206 0 0 0  .169922.226562 2.8155206 2.8155206 0 0 0  .189454.207032 2.8155206 2.8155206 0 0 0  .210937.185547 2.8155206 2.8155206 0 0 0  .228516.166015 2.8155206 2.8155206 0 0 0  .242187.140625 2.8155206 2.8155206 0 0 0  .25586.117188 2.8155206 2.8155206 0 0 0  .267578.08984 2.8155206 2.8155206 0 0 0  .273437.0625 2.8155206 2.8155206 0 0 0  .279297.03711 2.8155206 2.8155206 0 0 0  .28125.0078 2.8155206 2.8155206 0 0 0  .28125-.02148 2.8155206 2.8155206 0 0 0  .277344-.04883 2.8155206 2.8155206 0 0 0  .271484-.07617 2.8155206 2.8155206 0 0 0  .185547-.07031 2.8155206 2.8155206 0 0 0  .253906-.121093 2.8155206 2.8155206 0 0 0  .242188-.144532 2.8155206 2.8155206 0 0 0  .224609-.169921 2.8155206 2.8155206 0 0 0  .207031-.189454 2.8155206 2.8155206 0 0 0  .1875-.210937 2.8155206 2.8155206 0 0 0  .164063-.228516 2.8155206 2.8155206 0 0 0  .140625-.242187 2.8155206 2.8155206 0 0 0  .117187-.25586 2.8155206 2.8155206 0 0 0  .08984-.267578 2.8155206 2.8155206 0 0 0  .06445-.273437 2.8155206 2.8155206 0 0 0  .03516-.279297 2.8155206 2.8155206 0 0 0  .0078-.28125 2.8155206 2.8155206 0 0 0 -.02148-.28125 2.8155206 2.8155206 0 0 0 -.04883-.277344 2.8155206 2.8155206 0 0 0 -.07617-.271484 2.8155206 2.8155206 0 0 0 -.06836-.185547 2.8155206 2.8155206 0 0 0 -.121094-.253906 2.8155206 2.8155206 0 0 0 -.146484-.242188 2.8155206 2.8155206 0 0 0 -.167969-.224609 2.8155206 2.8155206 0 0 0 -.191406-.207032 2.8155206 2.8155206 0 0 0 -.210937-.1875 2.8155206 2.8155206 0 0 0 -.226563-.164062 2.8155206 2.8155206 0 0 0 -.244141-.142578 2.8155206 2.8155206 0 0 0 -.255859-.115234 2.8155206 2.8155206 0 0 0 -.267578-.08984 2.8155206 2.8155206 0 0 0 -.273437-.06445 2.8155206 2.8155206 0 0 0 -.279297-.03516 2.8155206 2.8155206 0 0 0 -.28125-.0078z" fill="#ccc"/><path d="m14.178711 12.416992a2.8155206 2.8155206 0 0 1  .28125.0078 2.8155206 2.8155206 0 0 1  .279297.03516 2.8155206 2.8155206 0 0 1  .273437.06445 2.8155206 2.8155206 0 0 1  .267578.08984 2.8155206 2.8155206 0 0 1  .255859.115234 2.8155206 2.8155206 0 0 1  .244141.142578 2.8155206 2.8155206 0 0 1  .226563.164062 2.8155206 2.8155206 0 0 1  .210937.1875 2.8155206 2.8155206 0 0 1  .191406.207032 2.8155206 2.8155206 0 0 1  .167969.224609 2.8155206 2.8155206 0 0 1  .146484.242188 2.8155206 2.8155206 0 0 1  .121094.253906 2.8155206 2.8155206 0 0 1  .06836.185547 2.8155206 2.8155206 0 0 1  .07617.271484 2.8155206 2.8155206 0 0 1  .04883.277344 2.8155206 2.8155206 0 0 1  .02148.28125 2.8155206 2.8155206 0 0 1 -.0078.28125 2.8155206 2.8155206 0 0 1 -.03516.279297 2.8155206 2.8155206 0 0 1 -.06445.273437 2.8155206 2.8155206 0 0 1 -.08984.267578 2.8155206 2.8155206 0 0 1 -.117187.25586 2.8155206 2.8155206 0 0 1 -.140625.242187 2.8155206 2.8155206 0 0 1 -.164063.228516 2.8155206 2.8155206 0 0 1 -.1875.210937 2.8155206 2.8155206 0 0 1 -.207031.189454 2.8155206 2.8155206 0 0 1 -.224609.169921 2.8155206 2.8155206 0 0 1 -.242188.144532 2.8155206 2.8155206 0 0 1 -.253906.121093 2.8155206 2.8155206 0 0 1 -.185547.07031 2.8155206 2.8155206 0 0 1 -.271484.07617 2.8155206 2.8155206 0 0 1 -.277344.04883 2.8155206 2.8155206 0 0 1 -.28125.02148 2.8155206 2.8155206 0 0 1 -.28125-.0078 2.8155206 2.8155206 0 0 1 -.279297-.03711 2.8155206 2.8155206 0 0 1 -.273437-.0625 2.8155206 2.8155206 0 0 1 -.267578-.08984 2.8155206 2.8155206 0 0 1 -.25586-.117188 2.8155206 2.8155206 0 0 1 -.242187-.140625 2.8155206 2.8155206 0 0 1 -.228516-.166015 2.8155206 2.8155206 0 0 1 -.210937-.185547 2.8155206 2.8155206 0 0 1 -.189454-.207032 2.8155206 2.8155206 0 0 1 -.169922-.226562 2.8155206 2.8155206 0 0 1 -.146484-.240235 2.8155206 2.8155206 0 0 1 -.11914-.253906 2.8155206 2.8155206 0 0 1 -.07031-.1875 2.8155206 2.8155206 0 0 1 -.07617-.269531 2.8155206 2.8155206 0 0 1 -.04883-.277344 2.8155206 2.8155206 0 0 1 -.02148-.28125 2.8155206 2.8155206 0 0 1  .0078-.28125 2.8155206 2.8155206 0 0 1  .03516-.279297 2.8155206 2.8155206 0 0 1  .06445-.273437 2.8155206 2.8155206 0 0 1  .08984-.267578 2.8155206 2.8155206 0 0 1  .117188-.25586 2.8155206 2.8155206 0 0 1  .140625-.24414 2.8155206 2.8155206 0 0 1  .166015-.226563 2.8155206 2.8155206 0 0 1  .185547-.210937 2.8155206 2.8155206 0 0 1  .207031-.191407 2.8155206 2.8155206 0 0 1  .226563-.167968 2.8155206 2.8155206 0 0 1  .240234-.146485 2.8155206 2.8155206 0 0 1  .253907-.121093 2.8155206 2.8155206 0 0 1  .1875-.06836 2.8155206 2.8155206 0 0 1  .269531-.07617 2.8155206 2.8155206 0 0 1  .277344-.04883 2.8155206 2.8155206 0 0 1  .28125-.02148zm9.199218 3.794922a2.8155206 2.8155206 0 0 1  .28125.0078 2.8155206 2.8155206 0 0 1  .279297.03516 2.8155206 2.8155206 0 0 1  .273438.0625 2.8155206 2.8155206 0 0 1  .267578.0918 2.8155206 2.8155206 0 0 1  .255859.115235 2.8155206 2.8155206 0 0 1  .244141.142578 2.8155206 2.8155206 0 0 1  .226562.164062 2.8155206 2.8155206 0 0 1  .210938.1875 2.8155206 2.8155206 0 0 1  .191406.207032 2.8155206 2.8155206 0 0 1  .167969.224609 2.8155206 2.8155206 0 0 1  .146484.240234 2.8155206 2.8155206 0 0 1  .121094.25586 2.8155206 2.8155206 0 0 1  .07031.185547 2.8155206 2.8155206 0 0 1  .07422.271484 2.8155206 2.8155206 0 0 1  .04883.277344 2.8155206 2.8155206 0 0 1  .02148.279297 2.8155206 2.8155206 0 0 1 -.0078.283203 2.8155206 2.8155206 0 0 1 -.03516.277344 2.8155206 2.8155206 0 0 1 -.06445.27539 2.8155206 2.8155206 0 0 1 -.08984.265625 2.8155206 2.8155206 0 0 1 -.115234.257813 2.8155206 2.8155206 0 0 1 -.142579.242187 2.8155206 2.8155206 0 0 1 -.164062.228516 2.8155206 2.8155206 0 0 1 -.1875.210937 2.8155206 2.8155206 0 0 1 -.207031.189453 2.8155206 2.8155206 0 0 1 -.22461.169922 2.8155206 2.8155206 0 0 1 -.242187.144531 2.8155206 2.8155206 0 0 1 -.253906.121094 2.8155206 2.8155206 0 0 1 -.185547.07031 2.8155206 2.8155206 0 0 1 -.271485.07617 2.8155206 2.8155206 0 0 1 -.277343.04883 2.8155206 2.8155206 0 0 1 -.28125.01953 2.8155206 2.8155206 0 0 1 -.28125-.0078 2.8155206 2.8155206 0 0 1 -.279297-.03516 2.8155206 2.8155206 0 0 1 -.273438-.0625 2.8155206 2.8155206 0 0 1 -.265625-.08984 2.8155206 2.8155206 0 0 1 -.257812-.117188 2.8155206 2.8155206 0 0 1 -.242188-.140625 2.8155206 2.8155206 0 0 1 -.228515-.166016 2.8155206 2.8155206 0 0 1 -.210938-.1875 2.8155206 2.8155206 0 0 1 -.189453-.207031 2.8155206 2.8155206 0 0 1 -.169922-.224609 2.8155206 2.8155206 0 0 1 -.144531-.240235 2.8155206 2.8155206 0 0 1 -.121094-.253906 2.8155206 2.8155206 0 0 1 -.07031-.1875 2.8155206 2.8155206 0 0 1 -.07617-.271484 2.8155206 2.8155206 0 0 1 -.04883-.275391 2.8155206 2.8155206 0 0 1 -.01953-.28125 2.8155206 2.8155206 0 0 1  .0059-.28125 2.8155206 2.8155206 0 0 1  .03711-.279297 2.8155206 2.8155206 0 0 1  .0625-.27539 2.8155206 2.8155206 0 0 1  .08984-.265625 2.8155206 2.8155206 0 0 1  .117187-.25586 2.8155206 2.8155206 0 0 1  .140626-.24414 2.8155206 2.8155206 0 0 1  .166015-.228516 2.8155206 2.8155206 0 0 1  .1875-.208984 2.8155206 2.8155206 0 0 1  .207031-.191407 2.8155206 2.8155206 0 0 1  .22461-.167968 2.8155206 2.8155206 0 0 1  .240234-.146485 2.8155206 2.8155206 0 0 1  .253906-.121093 2.8155206 2.8155206 0 0 1  .1875-.07031 2.8155206 2.8155206 0 0 1  .269532-.07617 2.8155206 2.8155206 0 0 1  .277343-.04687 2.8155206 2.8155206 0 0 1  .28125-.02148z" fill="#f2f2f2"/><path d="m20.678711 9.7138673a2.8155206 2.8155206 0 0 0 -.28125.019531 2.8155206 2.8155206 0 0 0 -.277344.048828 2.8155206 2.8155206 0 0 0 -.271485.076172 2.8155206 2.8155206 0 0 0 -.185546.070312 2.8155206 2.8155206 0 0 0 -.253907.1210937 2.8155206 2.8155206 0 0 0 -.242187.144531 2.8155206 2.8155206 0 0 0 -.22461.169922 2.8155206 2.8155206 0 0 0 -.207031.189453 2.8155206 2.8155206 0 0 0 -.1875.210938 2.8155206 2.8155206 0 0 0 -.164062.228516 2.8155206 2.8155206 0 0 0 -.140625.242187 2.8155206 2.8155206 0 0 0 -.117188.257813 2.8155206 2.8155206 0 0 0 -.08984.265625 2.8155206 2.8155206 0 0 0 -.06445.273437 2.8155206 2.8155206 0 0 0 -.03516.279297 2.8155206 2.8155206 0 0 0 -.0078.281249 2.8155206 2.8155206 0 0 0  .02148.28125 2.8155206 2.8155206 0 0 0  .04883.277344 2.8155206 2.8155206 0 0 0  .07617.271484 2.8155206 2.8155206 0 0 0  .06836.185547 2.8155206 2.8155206 0 0 0  .121094.253906 2.8155206 2.8155206 0 0 0  .146484.242188 2.8155206 2.8155206 0 0 0  .167969.224609 2.8155206 2.8155206 0 0 0  .191407.207031 2.8155206 2.8155206 0 0 0  .210937.1875 2.8155206 2.8155206 0 0 0  .226563.164063 2.8155206 2.8155206 0 0 0  .24414.142578 2.8155206 2.8155206 0 0 0  .25586.115235 2.8155206 2.8155206 0 0 0  .267578.0918 2.8155206 2.8155206 0 0 0  .273437.0625 2.8155206 2.8155206 0 0 0  .279297.03516 2.8155206 2.8155206 0 0 0  .28125.0078 2.8155206 2.8155206 0 0 0  .28125-.02148 2.8155206 2.8155206 0 0 0  .277344-.04687 2.8155206 2.8155206 0 0 0  .269531-.07617 2.8155206 2.8155206 0 0 0  .1875-.07031 2.8155206 2.8155206 0 0 0  .253906-.121093 2.8155206 2.8155206 0 0 0  .240235-.146485 2.8155206 2.8155206 0 0 0  .226562-.167969 2.8155206 2.8155206 0 0 0  .207031-.191406 2.8155206 2.8155206 0 0 0  .185547-.210937 2.8155206 2.8155206 0 0 0  .166016-.226563 2.8155206 2.8155206 0 0 0  .140625-.24414 2.8155206 2.8155206 0 0 0  .117187-.25586 2.8155206 2.8155206 0 0 0  .08984-.267578 2.8155206 2.8155206 0 0 0  .0625-.273437 2.8155206 2.8155206 0 0 0  .03711-.279297 2.8155206 2.8155206 0 0 0  .0078-.28125 2.8155206 2.8155206 0 0 0 -.02148-.281249 2.8155206 2.8155206 0 0 0 -.04883-.277344 2.8155206 2.8155206 0 0 0 -.07617-.269531 2.8155206 2.8155206 0 0 0 -.07031-.1875 2.8155206 2.8155206 0 0 0 -.121094-.253907 2.8155206 2.8155206 0 0 0 -.144531-.240234 2.8155206 2.8155206 0 0 0 -.169922-.22461 2.8155206 2.8155206 0 0 0 -.189453-.207031 2.8155206 2.8155206 0 0 0 -.210937-.1875 2.8155206 2.8155206 0 0 0 -.228516-.166015 2.8155206 2.8155206 0 0 0 -.242188-.140625 2.8155206 2.8155206 0 0 0 -.255859-.1171879 2.8155206 2.8155206 0 0 0 -.267578-.089844 2.8155206 2.8155206 0 0 0 -.273437-.0625 2.8155206 2.8155206 0 0 0 -.279297-.037109 2.8155206 2.8155206 0 0 0 -.28125-.00586z" fill="#ccc"/><g fill="#f2f2f2"><path d="m20.678711 9.7138673a2.8155206 2.8155206 0 0 1  .28125.00586 2.8155206 2.8155206 0 0 1  .279297.037109 2.8155206 2.8155206 0 0 1  .273437.0625 2.8155206 2.8155206 0 0 1  .267578.089844 2.8155206 2.8155206 0 0 1  .255859.1171877 2.8155206 2.8155206 0 0 1  .242188.140625 2.8155206 2.8155206 0 0 1  .228516.166015 2.8155206 2.8155206 0 0 1  .210937.1875 2.8155206 2.8155206 0 0 1  .189453.207032 2.8155206 2.8155206 0 0 1  .169922.224609 2.8155206 2.8155206 0 0 1  .144531.240234 2.8155206 2.8155206 0 0 1  .121094.253907 2.8155206 2.8155206 0 0 1  .07031.1875 2.8155206 2.8155206 0 0 1  .07617.269531 2.8155206 2.8155206 0 0 1  .04883.277344 2.8155206 2.8155206 0 0 1  .02148.28125 2.8155206 2.8155206 0 0 1 -.0078.28125 2.8155206 2.8155206 0 0 1 -.03711.279297 2.8155206 2.8155206 0 0 1 -.0625.273437 2.8155206 2.8155206 0 0 1 -.08984.267578 2.8155206 2.8155206 0 0 1 -.117187.25586 2.8155206 2.8155206 0 0 1 -.140625.24414 2.8155206 2.8155206 0 0 1 -.166016.226563 2.8155206 2.8155206 0 0 1 -.185547.210937 2.8155206 2.8155206 0 0 1 -.207031.191406 2.8155206 2.8155206 0 0 1 -.226562.167969 2.8155206 2.8155206 0 0 1 -.240235.146485 2.8155206 2.8155206 0 0 1 -.253906.121093 2.8155206 2.8155206 0 0 1 -.1875.07031 2.8155206 2.8155206 0 0 1 -.269531.07617 2.8155206 2.8155206 0 0 1 -.277344.04687 2.8155206 2.8155206 0 0 1 -.28125.02148 2.8155206 2.8155206 0 0 1 -.28125-.0078 2.8155206 2.8155206 0 0 1 -.279297-.03516 2.8155206 2.8155206 0 0 1 -.273437-.0625 2.8155206 2.8155206 0 0 1 -.267578-.0918 2.8155206 2.8155206 0 0 1 -.25586-.115235 2.8155206 2.8155206 0 0 1 -.24414-.142578 2.8155206 2.8155206 0 0 1 -.226563-.164063 2.8155206 2.8155206 0 0 1 -.210937-.1875 2.8155206 2.8155206 0 0 1 -.191407-.207031 2.8155206 2.8155206 0 0 1 -.167969-.224609 2.8155206 2.8155206 0 0 1 -.146484-.242188 2.8155206 2.8155206 0 0 1 -.121094-.253906 2.8155206 2.8155206 0 0 1 -.06836-.185547 2.8155206 2.8155206 0 0 1 -.07617-.271484 2.8155206 2.8155206 0 0 1 -.04883-.277344 2.8155206 2.8155206 0 0 1 -.02148-.28125 2.8155206 2.8155206 0 0 1  .0078-.28125 2.8155206 2.8155206 0 0 1  .03516-.279297 2.8155206 2.8155206 0 0 1  .06445-.273437 2.8155206 2.8155206 0 0 1  .08984-.265625 2.8155206 2.8155206 0 0 1  .117188-.257813 2.8155206 2.8155206 0 0 1  .140625-.242187 2.8155206 2.8155206 0 0 1  .164062-.228516 2.8155206 2.8155206 0 0 1  .1875-.210937 2.8155206 2.8155206 0 0 1  .207031-.189454 2.8155206 2.8155206 0 0 1  .22461-.169921 2.8155206 2.8155206 0 0 1  .242187-.144532 2.8155206 2.8155206 0 0 1  .253907-.1210935 2.8155206 2.8155206 0 0 1  .185546-.070312 2.8155206 2.8155206 0 0 1  .271485-.076172 2.8155206 2.8155206 0 0 1  .277344-.048828 2.8155206 2.8155206 0 0 1  .28125-.019531z"/><path d="m4.975586 8.6201173a2.8155206 2.8155206 0 0 0 -.279297.021484 2.8155206 2.8155206 0 0 0 -.277344.048828 2.8155206 2.8155206 0 0 0 -.271484.076172 2.8155206 2.8155206 0 0 0 -.185547.068359 2.8155206 2.8155206 0 0 0 -.25586.1210938 2.8155206 2.8155206 0 0 0 -.240234.1464844 2.8155206 2.8155206 0 0 0 -.224609.1679687 2.8155206 2.8155206 0 0 0 -.207032.1914063 2.8155206 2.8155206 0 0 0 -.1875.2109374 2.8155206 2.8155206 0 0 0 -.164062.2265626 2.8155206 2.8155206 0 0 0 -.142578.2441405 2.8155206 2.8155206 0 0 0 -.115235.25586 2.8155206 2.8155206 0 0 0 -.0918.267578 2.8155206 2.8155206 0 0 0 -.0625.273437 2.8155206 2.8155206 0 0 0 -.03516.279297 2.8155206 2.8155206 0 0 0 -.0078.28125 2.8155206 2.8155206 0 0 0  .02148.28125 2.8155206 2.8155206 0 0 0  .04687.277344 2.8155206 2.8155206 0 0 0  .07617.269531 2.8155206 2.8155206 0 0 0  .07031.187499 2.8155206 2.8155206 0 0 0  .121094.253907 2.8155206 2.8155206 0 0 0  .146485.240234 2.8155206 2.8155206 0 0 0  .167968.226562 2.8155206 2.8155206 0 0 0  .191407.207032 2.8155206 2.8155206 0 0 0  .208984.185546 2.8155206 2.8155206 0 0 0  .228516.166016 2.8155206 2.8155206 0 0 0  .24414.140625 2.8155206 2.8155206 0 0 0  .25586.117188 2.8155206 2.8155206 0 0 0  .265625.08984 2.8155206 2.8155206 0 0 0  .27539.0625 2.8155206 2.8155206 0 0 0  .279297.03711 2.8155206 2.8155206 0 0 0  .28125.0078 2.8155206 2.8155206 0 0 0  .28125-.02148 2.8155206 2.8155206 0 0 0  .275391-.04883 2.8155206 2.8155206 0 0 0  .271484-.07617 2.8155206 2.8155206 0 0 0  .1875-.07031 2.8155206 2.8155206 0 0 0  .253906-.121093 2.8155206 2.8155206 0 0 0  .240235-.144532 2.8155206 2.8155206 0 0 0  .224609-.169922 2.8155206 2.8155206 0 0 0  .207031-.189453 2.8155206 2.8155206 0 0 0  .1875-.210937 2.8155206 2.8155206 0 0 0  .166016-.228516 2.8155206 2.8155206 0 0 0  .140625-.242187 2.8155206 2.8155206 0 0 0  .117187-.25586 2.8155206 2.8155206 0 0 0  .08984-.267577 2.8155206 2.8155206 0 0 0  .0625-.273438 2.8155206 2.8155206 0 0 0  .03516-.279296 2.8155206 2.8155206 0 0 0  .0078-.28125 2.8155206 2.8155206 0 0 0 -.01953-.28125 2.8155206 2.8155206 0 0 0 -.04883-.277344 2.8155206 2.8155206 0 0 0 -.07617-.271485 2.8155206 2.8155206 0 0 0 -.07031-.185546 2.8155206 2.8155206 0 0 0 -.121093-.253907 2.8155206 2.8155206 0 0 0 -.144532-.2421872 2.8155206 2.8155206 0 0 0 -.169922-.2246093 2.8155206 2.8155206 0 0 0 -.189453-.2070313 2.8155206 2.8155206 0 0 0 -.210937-.1875 2.8155206 2.8155206 0 0 0 -.228516-.1640625 2.8155206 2.8155206 0 0 0 -.242187-.1425781 2.8155206 2.8155206 0 0 0 -.257813-.1152344 2.8155206 2.8155206 0 0 0 -.265625-.089844 2.8155206 2.8155206 0 0 0 -.275391-.064453 2.8155206 2.8155206 0 0 0 -.277343-.035156 2.8155206 2.8155206 0 0 0 -.283203-.00781z"/><path d="m11.475586 5.9169923a2.8155206 2.8155206 0 0 0 -.28125.021484 2.8155206 2.8155206 0 0 0 -.275391.048828 2.8155206 2.8155206 0 0 0 -.271484.076172 2.8155206 2.8155206 0 0 0 -.1875.068359 2.8155206 2.8155206 0 0 0 -.253907.1210938 2.8155206 2.8155206 0 0 0 -.240234.1464844 2.8155206 2.8155206 0 0 0 -.224609.1679687 2.8155206 2.8155206 0 0 0 -.207032.1914063 2.8155206 2.8155206 0 0 0 -.1875.2109374 2.8155206 2.8155206 0 0 0 -.166015.2265626 2.8155206 2.8155206 0 0 0 -.140625.2441406 2.8155206 2.8155206 0 0 0 -.117188.2558594 2.8155206 2.8155206 0 0 0 -.08984.2675781 2.8155206 2.8155206 0 0 0 -.0625.2734375 2.8155206 2.8155206 0 0 0 -.03516.2792968 2.8155206 2.8155206 0 0 0 -.0078.28125 2.8155206 2.8155206 0 0 0  .01953.28125 2.8155206 2.8155206 0 0 0  .04883.2773438 2.8155206 2.8155206 0 0 0  .07617.2695312 2.8155206 2.8155206 0 0 0  .07031.1875 2.8155206 2.8155206 0 0 0  .121094.2539061 2.8155206 2.8155206 0 0 0  .144532.240235 2.8155206 2.8155206 0 0 0  .169921.226562 2.8155206 2.8155206 0 0 0  .189453.207031 2.8155206 2.8155206 0 0 0  .210938.185547 2.8155206 2.8155206 0 0 0  .228516.166016 2.8155206 2.8155206 0 0 0  .242187.140625 2.8155206 2.8155206 0 0 0  .257813.117187 2.8155206 2.8155206 0 0 0  .265625.08984 2.8155206 2.8155206 0 0 0  .273437.0625 2.8155206 2.8155206 0 0 0  .279297.03711 2.8155206 2.8155206 0 0 0  .28125.0078 2.8155206 2.8155206 0 0 0  .28125-.02148 2.8155206 2.8155206 0 0 0  .277344-.04883 2.8155206 2.8155206 0 0 0  .271484-.07617 2.8155206 2.8155206 0 0 0  .185547-.07031 2.8155206 2.8155206 0 0 0  .255859-.121094 2.8155206 2.8155206 0 0 0  .240235-.144531 2.8155206 2.8155206 0 0 0  .224609-.169922 2.8155206 2.8155206 0 0 0  .207031-.189453 2.8155206 2.8155206 0 0 0  .1875-.210937 2.8155206 2.8155206 0 0 0  .164063-.228516 2.8155206 2.8155206 0 0 0  .142578-.242187 2.8155206 2.8155206 0 0 0  .115234-.2558597 2.8155206 2.8155206 0 0 0  .0918-.2675782 2.8155206 2.8155206 0 0 0  .0625-.2734374 2.8155206 2.8155206 0 0 0  .03516-.2792969 2.8155206 2.8155206 0 0 0  .0078-.28125 2.8155206 2.8155206 0 0 0 -.02148-.28125 2.8155206 2.8155206 0 0 0 -.04687-.2773368 2.8155206 2.8155206 0 0 0 -.07617-.2714843 2.8155206 2.8155206 0 0 0 -.07031-.1855469 2.8155206 2.8155206 0 0 0 -.121093-.2539063 2.8155206 2.8155206 0 0 0 -.146485-.2421875 2.8155206 2.8155206 0 0 0 -.167969-.2246093 2.8155206 2.8155206 0 0 0 -.191406-.2070313 2.8155206 2.8155206 0 0 0 -.210937-.1875 2.8155206 2.8155206 0 0 0 -.226563-.1640625 2.8155206 2.8155206 0 0 0 -.24414-.1425781 2.8155206 2.8155206 0 0 0 -.25586-.1152344 2.8155206 2.8155206 0 0 0 -.265625-.089844 2.8155206 2.8155206 0 0 0 -.275391-.064453 2.8155206 2.8155206 0 0 0 -.279296-.035156 2.8155206 2.8155206 0 0 0 -.28125-.00781z"/><path d="m17.975586 3.2138673a2.8155206 2.8155206 0 0 0 -.28125.021484 2.8155206 2.8155206 0 0 0 -.277344.048828 2.8155206 2.8155206 0 0 0 -.271484.074219 2.8155206 2.8155206 0 0 0 -.185547.070312 2.8155206 2.8155206 0 0 0 -.253907.1210938 2.8155206 2.8155206 0 0 0 -.242187.1464844 2.8155206 2.8155206 0 0 0 -.224609.1679687 2.8155206 2.8155206 0 0 0 -.207032.1914063 2.8155206 2.8155206 0 0 0 -.1875.2109374 2.8155206 2.8155206 0 0 0 -.164062.2265626 2.8155206 2.8155206 0 0 0 -.142578.2441406 2.8155206 2.8155206 0 0 0 -.115235.2558594 2.8155206 2.8155206 0 0 0 -.08984.2675781 2.8155206 2.8155206 0 0 0 -.06445.2734375 2.8155206 2.8155206 0 0 0 -.03516.2792968 2.8155206 2.8155206 0 0 0 -.0078.28125 2.8155206 2.8155206 0 0 0  .02148.28125 2.8155206 2.8155206 0 0 0  .04883.2773438 2.8155206 2.8155206 0 0 0  .07617.2695312 2.8155206 2.8155206 0 0 0  .06836.1875 2.8155206 2.8155206 0 0 0  .121094.2539063 2.8155206 2.8155206 0 0 0  .146485.2402344 2.8155206 2.8155206 0 0 0  .167968.2265625 2.8155206 2.8155206 0 0 0  .191406.2070312 2.8155206 2.8155206 0 0 0  .210938.1855469 2.8155206 2.8155206 0 0 0  .226562.1660156 2.8155206 2.8155206 0 0 0  .244141.140625 2.8155206 2.8155206 0 0 0  .255859.1171875 2.8155206 2.8155206 0 0 0  .267579.089844 2.8155206 2.8155206 0 0 0  .273437.0625 2.8155206 2.8155206 0 0 0  .279297.037109 2.8155206 2.8155206 0 0 0  .28125.00586 2.8155206 2.8155206 0 0 0  .28125-.019531 2.8155206 2.8155206 0 0 0  .277344-.048828 2.8155206 2.8155206 0 0 0  .269531-.076172 2.8155206 2.8155206 0 0 0  .1875-.070312 2.8155206 2.8155206 0 0 0  .253906-.1210938 2.8155206 2.8155206 0 0 0  .240235-.1445312 2.8155206 2.8155206 0 0 0  .226562-.1699219 2.8155206 2.8155206 0 0 0  .207031-.1894531 2.8155206 2.8155206 0 0 0  .185547-.2109375 2.8155206 2.8155206 0 0 0  .166016-.2285157 2.8155206 2.8155206 0 0 0  .140625-.2421874 2.8155206 2.8155206 0 0 0  .117187-.2558594 2.8155206 2.8155206 0 0 0  .08984-.2675782 2.8155206 2.8155206 0 0 0  .0625-.2734374 2.8155206 2.8155206 0 0 0  .03711-.2792969 2.8155206 2.8155206 0 0 0  .0078-.28125 2.8155206 2.8155206 0 0 0 -.02148-.28125 2.8155206 2.8155206 0 0 0 -.04883-.2773436 2.8155206 2.8155206 0 0 0 -.07617-.2714843 2.8155206 2.8155206 0 0 0 -.07031-.1855469 2.8155206 2.8155206 0 0 0 -.121094-.2539063 2.8155206 2.8155206 0 0 0 -.144531-.2421875 2.8155206 2.8155206 0 0 0 -.169922-.2246093 2.8155206 2.8155206 0 0 0 -.189453-.2070313 2.8155206 2.8155206 0 0 0 -.210937-.1875 2.8155206 2.8155206 0 0 0 -.228519-.1640632 2.8155206 2.8155206 0 0 0 -.242187-.1425781 2.8155206 2.8155206 0 0 0 -.25586-.1152344 2.8155206 2.8155206 0 0 0 -.267578-.0898437 2.8155206 2.8155206 0 0 0 -.273438-.064453 2.8155206 2.8155206 0 0 0 -.279296-.035156 2.8155206 2.8155206 0 0 0 -.28125-.00781z"/><path d="m6.21582 1.2177735a2.8155206 2.8155206 0 0 0 -.08594.2460938 2.8155206 2.8155206 0 0 0 -.0625.2734375 2.8155206 2.8155206 0 0 0 -.03516.2792969 2.8155206 2.8155206 0 0 0 -.0078.28125 2.8155206 2.8155206 0 0 0  .01953.28125 2.8155206 2.8155206 0 0 0  .04883.2773437 2.8155206 2.8155206 0 0 0  .07617.2714844 2.8155206 2.8155206 0 0 0  .07031.1875 2.8155206 2.8155206 0 0 0  .121093.2539062 2.8155206 2.8155206 0 0 0  .146485.2402344 2.8155206 2.8155206 0 0 0  .167968.2246094 2.8155206 2.8155206 0 0 0  .191407.2070312 2.8155206 2.8155206 0 0 0  .208984.1875 2.8155206 2.8155206 0 0 0  .228516.1640625 2.8155206 2.8155206 0 0 0  .24414.1425781 2.8155206 2.8155206 0 0 0  .25586.1171876 2.8155206 2.8155206 0 0 0  .265625.089844 2.8155206 2.8155206 0 0 0  .27539.0625 2.8155206 2.8155206 0 0 0  .279297.035156 2.8155206 2.8155206 0 0 0  .28125.00781 2.8155206 2.8155206 0 0 0  .279297-.019531 2.8155206 2.8155206 0 0 0  .277344-.048828 2.8155206 2.8155206 0 0 0  .271484-.076172 2.8155206 2.8155206 0 0 0  .1875-.070312 2.8155206 2.8155206 0 0 0  .253906-.1210937 2.8155206 2.8155206 0 0 0  .240235-.1464844 2.8155206 2.8155206 0 0 0  .224609-.1679688 2.8155206 2.8155206 0 0 0  .207031-.1914062 2.8155206 2.8155206 0 0 0  .1875-.2109375 2.8155206 2.8155206 0 0 0  .166016-.2265625 2.8155206 2.8155206 0 0 0  .140625-.2441406 2.8155206 2.8155206 0 0 0  .117188-.2558594 2.8155206 2.8155206 0 0 0  .08984-.2675781 2.8155206 2.8155206 0 0 0  .0625-.2734375 2.8155206 2.8155206 0 0 0  .03516-.2792969 2.8155206 2.8155206 0 0 0  .0078-.28125 2.8155206 2.8155206 0 0 0 -.02148-.28125 2.8155206 2.8155206 0 0 0 -.04687-.2773438 2.8155206 2.8155206 0 0 0 -.07617-.2695312 2.8155206 2.8155206 0 0 0 -.04492-.1210938z"/><path d="m-.274414 5.975586a2.8155206 2.8155206 0 0 0  .01563.042969 2.8155206 2.8155206 0 0 0  .11914.2539062 2.8155206 2.8155206 0 0 0  .146485.2402344 2.8155206 2.8155206 0 0 0  .169922.2246094 2.8155206 2.8155206 0 0 0  .189453.2070312 2.8155206 2.8155206 0 0 0  .210937.1875 2.8155206 2.8155206 0 0 0  .226563.1660156 2.8155206 2.8155206 0 0 0  .24414.140625 2.8155206 2.8155206 0 0 0  .25586.1171876 2.8155206 2.8155206 0 0 0  .267578.089844 2.8155206 2.8155206 0 0 0  .273437.0625 2.8155206 2.8155206 0 0 0  .279297.037109 2.8155206 2.8155206 0 0 0  .28125.00586 2.8155206 2.8155206 0 0 0  .28125-.019531 2.8155206 2.8155206 0 0 0  .277344-.048828 2.8155206 2.8155206 0 0 0  .269531-.076172 2.8155206 2.8155206 0 0 0  .1875-.070312 2.8155206 2.8155206 0 0 0  .253906-.1210937 2.8155206 2.8155206 0 0 0  .242188-.1445313 2.8155206 2.8155206 0 0 0  .224609-.1699219 2.8155206 2.8155206 0 0 0  .207031-.1894531 2.8155206 2.8155206 0 0 0  .1875-.2109375 2.8155206 2.8155206 0 0 0  .164063-.2285156 2.8155206 2.8155206 0 0 0  .140625-.2421875 2.8155206 2.8155206 0 0 0  .117188-.2558594 2.8155206 2.8155206 0 0 0  .08984-.2675781 2.8155206 2.8155206 0 0 0  .06445-.2734375 2.8155206 2.8155206 0 0 0  .03516-.2792969 2.8155206 2.8155206 0 0 0  .0078-.28125 2.8155206 2.8155206 0 0 0 -.02148-.28125 2.8155206 2.8155206 0 0 0 -.04883-.2773438 2.8155206 2.8155206 0 0 0 -.07422-.2714843 2.8155206 2.8155206 0 0 0 -.07031-.1875 2.8155206 2.8155206 0 0 0 -.121093-.2539063 2.8155206 2.8155206 0 0 0 -.146485-.2402344 2.8155206 2.8155206 0 0 0 -.167969-.2246093 2.8155206 2.8155206 0 0 0 -.191406-.2070313 2.8155206 2.8155206 0 0 0 -.210937-.1875 2.8155206 2.8155206 0 0 0 -.226563-.1640625 2.8155206 2.8155206 0 0 0 -.24414-.1425781 2.8155206 2.8155206 0 0 0 -.25586-.1171875 2.8155206 2.8155206 0 0 0 -.267578-.0898437 2.8155206 2.8155206 0 0 0 -.273437-.0625 2.8155206 2.8155206 0 0 0 -.279297-.035156 2.8155206 2.8155206 0 0 0 -.28125-.00781 2.8155206 2.8155206 0 0 0 -.0078 0c-1.361722.8382072-2.289243 2.2031602-2.541015 3.8535123z"/><path d="m-.438477 16.760742a2.8155206 2.8155206 0 0 0  .0625-.02344 2.8155206 2.8155206 0 0 0  .253906-.11914 2.8155206 2.8155206 0 0 0  .242188-.146485 2.8155206 2.8155206 0 0 0  .224609-.169921 2.8155206 2.8155206 0 0 0  .207032-.189454 2.8155206 2.8155206 0 0 0  .1875-.210937 2.8155206 2.8155206 0 0 0  .164062-.228516 2.8155206 2.8155206 0 0 0  .142578-.242187 2.8155206 2.8155206 0 0 0  .115234-.25586 2.8155206 2.8155206 0 0 0  .08984-.267578 2.8155206 2.8155206 0 0 0  .06445-.273437 2.8155206 2.8155206 0 0 0  .03516-.279297 2.8155206 2.8155206 0 0 0  .0078-.28125 2.8155206 2.8155206 0 0 0 -.02148-.28125 2.8155206 2.8155206 0 0 0 -.04883-.277344 2.8155206 2.8155206 0 0 0 -.07617-.271484 2.8155206 2.8155206 0 0 0 -.06836-.185547 2.8155206 2.8155206 0 0 0 -.121093-.253906 2.8155206 2.8155206 0 0 0 -.146485-.242188 2.8155206 2.8155206 0 0 0 -.167968-.224609 2.8155206 2.8155206 0 0 0 -.191407-.207031 2.8155206 2.8155206 0 0 0 -.210937-.1875 2.8155206 2.8155206 0 0 0 -.226563-.164063 2.8155206 2.8155206 0 0 0 -.24414-.140625 2.8155206 2.8155206 0 0 0 -.25586-.117187 2.8155206 2.8155206 0 0 0 -.01758-.0059z"/><path d="m-.438477 22.889648a2.8155206 2.8155206 0 0 0  .150391.109375 2.8155206 2.8155206 0 0 0  .242187.140625 2.8155206 2.8155206 0 0 0  .25586.117188 2.8155206 2.8155206 0 0 0  .267578.08984 2.8155206 2.8155206 0 0 0  .273437.06445 2.8155206 2.8155206 0 0 0  .279297.03516 2.8155206 2.8155206 0 0 0  .28125.0078 2.8155206 2.8155206 0 0 0  .28125-.02148 2.8155206 2.8155206 0 0 0  .277344-.04883 2.8155206 2.8155206 0 0 0  .271484-.07617 2.8155206 2.8155206 0 0 0  .185547-.07031 2.8155206 2.8155206 0 0 0  .253906-.11914 2.8155206 2.8155206 0 0 0  .242188-.146485 2.8155206 2.8155206 0 0 0  .224609-.169921 2.8155206 2.8155206 0 0 0  .207031-.189454 2.8155206 2.8155206 0 0 0  .185547-.210937 2.8155206 2.8155206 0 0 0  .166016-.228516 2.8155206 2.8155206 0 0 0  .140625-.242187 2.8155206 2.8155206 0 0 0  .117188-.25586 2.8155206 2.8155206 0 0 0  .08984-.267578 2.8155206 2.8155206 0 0 0  .06445-.273437 2.8155206 2.8155206 0 0 0  .03516-.279297 2.8155206 2.8155206 0 0 0  .0078-.28125 2.8155206 2.8155206 0 0 0 -.02148-.28125 2.8155206 2.8155206 0 0 0 -.04883-.277344 2.8155206 2.8155206 0 0 0 -.07617-.271484 2.8155206 2.8155206 0 0 0 -.06836-.185547 2.8155206 2.8155206 0 0 0 -.121093-.253906 2.8155206 2.8155206 0 0 0 -.146485-.242188 2.8155206 2.8155206 0 0 0 -.169922-.224609 2.8155206 2.8155206 0 0 0 -.189453-.207032 2.8155206 2.8155206 0 0 0 -.210937-.1875 2.8155206 2.8155206 0 0 0 -.228516-.164062 2.8155206 2.8155206 0 0 0 -.242187-.140625 2.8155206 2.8155206 0 0 0 -.25586-.117187 2.8155206 2.8155206 0 0 0 -.267578-.08984 2.8155206 2.8155206 0 0 0 -.273437-.06445 2.8155206 2.8155206 0 0 0 -.279297-.03516 2.8155206 2.8155206 0 0 0 -.28125-.0078 2.8155206 2.8155206 0 0 0 -.28125.02148 2.8155206 2.8155206 0 0 0 -.277344.04883 2.8155206 2.8155206 0 0 0 -.271484.07617 2.8155206 2.8155206 0 0 0 -.185547.06836 2.8155206 2.8155206 0 0 0 -.253907.121093 2.8155206 2.8155206 0 0 0 -.240234.146485 2.8155206 2.8155206 0 0 0 -.109375.08203z"/><path d="m5.588867 29.420898a2.8155206 2.8155206 0 0 0  .160156-.11914 2.8155206 2.8155206 0 0 0  .207031-.191407 2.8155206 2.8155206 0 0 0  .1875-.210937 2.8155206 2.8155206 0 0 0  .164063-.226563 2.8155206 2.8155206 0 0 0  .142578-.24414 2.8155206 2.8155206 0 0 0  .115234-.25586 2.8155206 2.8155206 0 0 0  .0918-.265625 2.8155206 2.8155206 0 0 0  .0625-.27539 2.8155206 2.8155206 0 0 0  .03516-.279297 2.8155206 2.8155206 0 0 0  .0078-.28125 2.8155206 2.8155206 0 0 0 -.01953-.28125 2.8155206 2.8155206 0 0 0 -.04883-.277344 2.8155206 2.8155206 0 0 0 -.07617-.269531 2.8155206 2.8155206 0 0 0 -.07031-.1875 2.8155206 2.8155206 0 0 0 -.121093-.253906 2.8155206 2.8155206 0 0 0 -.146485-.242188 2.8155206 2.8155206 0 0 0 -.167969-.224609 2.8155206 2.8155206 0 0 0 -.191406-.207032 2.8155206 2.8155206 0 0 0 -.208984-.1875 2.8155206 2.8155206 0 0 0 -.228516-.164062 2.8155206 2.8155206 0 0 0 -.24414-.142578 2.8155206 2.8155206 0 0 0 -.25586-.115235 2.8155206 2.8155206 0 0 0 -.265625-.0918 2.8155206 2.8155206 0 0 0 -.275391-.0625 2.8155206 2.8155206 0 0 0 -.279296-.03516 2.8155206 2.8155206 0 0 0 -.28125-.0078 2.8155206 2.8155206 0 0 0 -.279297.01953 2.8155206 2.8155206 0 0 0 -.277344.04883 2.8155206 2.8155206 0 0 0 -.271484.07617 2.8155206 2.8155206 0 0 0 -.1875.07031 2.8155206 2.8155206 0 0 0 -.253907.121094 2.8155206 2.8155206 0 0 0 -.240234.146485 2.8155206 2.8155206 0 0 0 -.226562.167968 2.8155206 2.8155206 0 0 0 -.207032.191407 2.8155206 2.8155206 0 0 0 -.185547.208984 2.8155206 2.8155206 0 0 0 -.166015.228516 2.8155206 2.8155206 0 0 0 -.140625.24414 2.8155206 2.8155206 0 0 0 -.117188.25586 2.8155206 2.8155206 0 0 0 -.08984.265625 2.8155206 2.8155206 0 0 0 -.06445.27539 2.8155206 2.8155206 0 0 0 -.03516.279297 2.8155206 2.8155206 0 0 0 -.0078.28125 2.8155206 2.8155206 0 0 0  .02148.279297 2.8155206 2.8155206 0 0 0  .04883.277344 2.8155206 2.8155206 0 0 0  .01367.05078c1.005959.994877 2.38676 1.611328 3.919922 1.611328z"/><path d="m15.520508 29.420898a2.8155206 2.8155206 0 0 0 -.04102-.06641 2.8155206 2.8155206 0 0 0 -.169922-.22461 2.8155206 2.8155206 0 0 0 -.189453-.207031 2.8155206 2.8155206 0 0 0 -.210938-.1875 2.8155206 2.8155206 0 0 0 -.228515-.166015 2.8155206 2.8155206 0 0 0 -.242188-.140625 2.8155206 2.8155206 0 0 0 -.255859-.117188 2.8155206 2.8155206 0 0 0 -.267578-.08984 2.8155206 2.8155206 0 0 0 -.273438-.0625 2.8155206 2.8155206 0 0 0 -.279297-.03711 2.8155206 2.8155206 0 0 0 -.28125-.0059 2.8155206 2.8155206 0 0 0 -.28125.01953 2.8155206 2.8155206 0 0 0 -.277343.04883 2.8155206 2.8155206 0 0 0 -.271485.07617 2.8155206 2.8155206 0 0 0 -.185547.07031 2.8155206 2.8155206 0 0 0 -.253906.121094 2.8155206 2.8155206 0 0 0 -.242187.144531 2.8155206 2.8155206 0 0 0 -.22461.169922 2.8155206 2.8155206 0 0 0 -.207031.189453 2.8155206 2.8155206 0 0 0 -.1875.210938 2.8155206 2.8155206 0 0 0 -.164063.228516 2.8155206 2.8155206 0 0 0 -.01562.02539z"/><path d="m22.192382 29.420898a2.8155206 2.8155206 0 0 0  .07031-.158203 2.8155206 2.8155206 0 0 0  .0918-.267578 2.8155206 2.8155206 0 0 0  .0625-.273438 2.8155206 2.8155206 0 0 0  .03516-.279297 2.8155206 2.8155206 0 0 0  .0078-.28125 2.8155206 2.8155206 0 0 0 -.01953-.28125 2.8155206 2.8155206 0 0 0 -.04883-.277343 2.8155206 2.8155206 0 0 0 -.07617-.269531 2.8155206 2.8155206 0 0 0 -.07031-.1875 2.8155206 2.8155206 0 0 0 -.121094-.253907 2.8155206 2.8155206 0 0 0 -.146484-.240234 2.8155206 2.8155206 0 0 0 -.167964-.226563 2.8155206 2.8155206 0 0 0 -.191406-.207031 2.8155206 2.8155206 0 0 0 -.208985-.185547 2.8155206 2.8155206 0 0 0 -.228515-.166015 2.8155206 2.8155206 0 0 0 -.244141-.140625 2.8155206 2.8155206 0 0 0 -.255859-.117188 2.8155206 2.8155206 0 0 0 -.265625-.08984 2.8155206 2.8155206 0 0 0 -.275391-.0625 2.8155206 2.8155206 0 0 0 -.279297-.03711 2.8155206 2.8155206 0 0 0 -.28125-.0059 2.8155206 2.8155206 0 0 0 -.279297.01953 2.8155206 2.8155206 0 0 0 -.277343.04883 2.8155206 2.8155206 0 0 0 -.271485.07617 2.8155206 2.8155206 0 0 0 -.1875.07031 2.8155206 2.8155206 0 0 0 -.253906.121094 2.8155206 2.8155206 0 0 0 -.240234.144531 2.8155206 2.8155206 0 0 0 -.22461.169922 2.8155206 2.8155206 0 0 0 -.207031.189453 2.8155206 2.8155206 0 0 0 -.1875.210938 2.8155206 2.8155206 0 0 0 -.164063.228515 2.8155206 2.8155206 0 0 0 -.142578.242188 2.8155206 2.8155206 0 0 0 -.117187.255859 2.8155206 2.8155206 0 0 0 -.08984.267579 2.8155206 2.8155206 0 0 0 -.0625.273437 2.8155206 2.8155206 0 0 0 -.03516.279297 2.8155206 2.8155206 0 0 0 -.0078.28125 2.8155206 2.8155206 0 0 0  .01953.28125 2.8155206 2.8155206 0 0 0  .04883.277344 2.8155206 2.8155206 0 0 0  .07617.271484 2.8155206 2.8155206 0 0 0  .07031.185547 2.8155206 2.8155206 0 0 0  .05469.113281h5.08789c.0013 0 .0026.000001.0039 0z"/><path d="m27.764648 23.225586a2.8155206 2.8155206 0 0 0 -.08594-.0625 2.8155206 2.8155206 0 0 0 -.242187-.140625 2.8155206 2.8155206 0 0 0 -.25586-.117188 2.8155206 2.8155206 0 0 0 -.267578-.08984 2.8155206 2.8155206 0 0 0 -.273437-.0625 2.8155206 2.8155206 0 0 0 -.279297-.03711 2.8155206 2.8155206 0 0 0 -.28125-.0078 2.8155206 2.8155206 0 0 0 -.28125.02148 2.8155206 2.8155206 0 0 0 -.277344.04883 2.8155206 2.8155206 0 0 0 -.271484.07617 2.8155206 2.8155206 0 0 0 -.185547.07031 2.8155206 2.8155206 0 0 0 -.253907.121085 2.8155206 2.8155206 0 0 0 -.242188.144531 2.8155206 2.8155206 0 0 0 -.224609.169922 2.8155206 2.8155206 0 0 0 -.207031.189453 2.8155206 2.8155206 0 0 0 -.185547.210938 2.8155206 2.8155206 0 0 0 -.166016.228516 2.8155206 2.8155206 0 0 0 -.140625.242187 2.8155206 2.8155206 0 0 0 -.117187.255859 2.8155206 2.8155206 0 0 0 -.08984.267578 2.8155206 2.8155206 0 0 0 -.06445.273438 2.8155206 2.8155206 0 0 0 -.03516.279297 2.8155206 2.8155206 0 0 0 -.0078.28125 2.8155206 2.8155206 0 0 0  .02149.28125 2.8155206 2.8155206 0 0 0  .04883.277344 2.8155206 2.8155206 0 0 0  .07617.271484 2.8155206 2.8155206 0 0 0  .06836.185547 2.8155206 2.8155206 0 0 0  .121094.253906 2.8155206 2.8155206 0 0 0  .146484.242188 2.8155206 2.8155206 0 0 0  .169922.224609 2.8155206 2.8155206 0 0 0  .189453.207031 2.8155206 2.8155206 0 0 0  .210938.1875 2.8155206 2.8155206 0 0 0  .228515.164063 2.8155206 2.8155206 0 0 0  .242188.142578 2.8155206 2.8155206 0 0 0  .255859.115234 2.8155206 2.8155206 0 0 0  .267578.08984 2.8155206 2.8155206 0 0 0  .08008.01953c1.367539-1.014127 2.308594-2.563481 2.308594-4.404297z"/><path d="m27.764648 14.540039a2.8155206 2.8155206 0 0 0 -.01758.01953 2.8155206 2.8155206 0 0 0 -.164062.228516 2.8155206 2.8155206 0 0 0 -.142579.24414 2.8155206 2.8155206 0 0 0 -.115234.25586 2.8155206 2.8155206 0 0 0 -.08984.265625 2.8155206 2.8155206 0 0 0 -.06445.27539 2.8155206 2.8155206 0 0 0 -.03516.279297 2.8155206 2.8155206 0 0 0 -.0078.28125 2.8155206 2.8155206 0 0 0  .02148.279297 2.8155206 2.8155206 0 0 0  .04883.277344 2.8155206 2.8155206 0 0 0  .07422.271484 2.8155206 2.8155206 0 0 0  .07031.1875 2.8155206 2.8155206 0 0 0  .121094.253906 2.8155206 2.8155206 0 0 0  .146484.240235 2.8155206 2.8155206 0 0 0  .154297.207031z"/><path d="m27.764648 7.0595704a2.8155206 2.8155206 0 0 0 -.02734-.00586 2.8155206 2.8155206 0 0 0 -.279297-.037109 2.8155206 2.8155206 0 0 0 -.28125-.00586 2.8155206 2.8155206 0 0 0 -.279297.019531 2.8155206 2.8155206 0 0 0 -.277343.048828 2.8155206 2.8155206 0 0 0 -.271485.076172 2.8155206 2.8155206 0 0 0 -.1875.070312 2.8155206 2.8155206 0 0 0 -.253906.1210938 2.8155206 2.8155206 0 0 0 -.240234.1445312 2.8155206 2.8155206 0 0 0 -.22461.1699219 2.8155206 2.8155206 0 0 0 -.207031.1894531 2.8155206 2.8155206 0 0 0 -.1875.2109375 2.8155206 2.8155206 0 0 0 -.166016.2285157 2.8155206 2.8155206 0 0 0 -.140624.2421874 2.8155206 2.8155206 0 0 0 -.117188.2578126 2.8155206 2.8155206 0 0 0 -.08984.265625 2.8155206 2.8155206 0 0 0 -.0625.2734374 2.8155206 2.8155206 0 0 0 -.03516.2792969 2.8155206 2.8155206 0 0 0 -.0078.28125 2.8155206 2.8155206 0 0 0  .01953.2812501 2.8155206 2.8155206 0 0 0  .04883.277344 2.8155206 2.8155206 0 0 0  .07617.271484 2.8155206 2.8155206 0 0 0  .07031.185547 2.8155206 2.8155206 0 0 0  .121094.253906 2.8155206 2.8155206 0 0 0  .144531.242188 2.8155206 2.8155206 0 0 0  .169922.224609 2.8155206 2.8155206 0 0 0  .191406.207031 2.8155206 2.8155206 0 0 0  .208985.1875 2.8155206 2.8155206 0 0 0  .228515.164063 2.8155206 2.8155206 0 0 0  .244141.142578 2.8155206 2.8155206 0 0 0  .255859.115233 2.8155206 2.8155206 0 0 0  .265625.08984 2.8155206 2.8155206 0 0 0  .275391.06445 2.8155206 2.8155206 0 0 0  .279297.03516 2.8155206 2.8155206 0 0 0  .28125.0078 2.8155206 2.8155206 0 0 0  .279297-.02148 2.8155206 2.8155206 0 0 0  .175781-.03125z"/><path d="m22.588867 1.2978516a2.8155206 2.8155206 0 0 0 -.05859.054687 2.8155206 2.8155206 0 0 0 -.1875.2109375 2.8155206 2.8155206 0 0 0 -.164062.2265625 2.8155206 2.8155206 0 0 0 -.142579.2441406 2.8155206 2.8155206 0 0 0 -.115234.2558594 2.8155206 2.8155206 0 0 0 -.08984.265625 2.8155206 2.8155206 0 0 0 -.06445.2753906 2.8155206 2.8155206 0 0 0 -.03516.2792969 2.8155206 2.8155206 0 0 0 -.0078.28125 2.8155206 2.8155206 0 0 0  .02149.2792969 2.8155206 2.8155206 0 0 0  .04687.2773438 2.8155206 2.8155206 0 0 0  .07617.2714843 2.8155206 2.8155206 0 0 0  .07031.1875 2.8155206 2.8155206 0 0 0  .121094.2539063 2.8155206 2.8155206 0 0 0  .146484.2402344 2.8155206 2.8155206 0 0 0  .167969.2265625 2.8155206 2.8155206 0 0 0  .191406.2070312 2.8155206 2.8155206 0 0 0  .208985.1855469 2.8155206 2.8155206 0 0 0  .228515.1660156 2.8155206 2.8155206 0 0 0  .244141.140625 2.8155206 2.8155206 0 0 0  .255859.1171875 2.8155206 2.8155206 0 0 0  .265625.089844 2.8155206 2.8155206 0 0 0  .275391.0625 2.8155206 2.8155206 0 0 0  .279297.037109 2.8155206 2.8155206 0 0 0  .28125.00781 2.8155206 2.8155206 0 0 0  .279297-.021484 2.8155206 2.8155206 0 0 0  .277343-.048828 2.8155206 2.8155206 0 0 0  .271485-.076172 2.8155206 2.8155206 0 0 0  .1875-.070312 2.8155206 2.8155206 0 0 0  .253906-.1210934 2.8155206 2.8155206 0 0 0  .240234-.1445311 2.8155206 2.8155206 0 0 0  .226563-.1699219 2.8155206 2.8155206 0 0 0  .207031-.1894531 2.8155206 2.8155206 0 0 0  .185547-.2109375 2.8155206 2.8155206 0 0 0  .166016-.2285157 2.8155206 2.8155206 0 0 0  .140625-.2421875 2.8155206 2.8155206 0 0 0  .115234-.2539063c-.847241-1.729919-2.543059-2.9162833-4.566422-3.0664044z"/><path d="m13.088867 1.2177735a2.8155206 2.8155206 0 0 0  .08594.1132813 2.8155206 2.8155206 0 0 0  .191407.2070312 2.8155206 2.8155206 0 0 0  .208984.1875 2.8155206 2.8155206 0 0 0  .228516.1640625 2.8155206 2.8155206 0 0 0  .24414.1425782 2.8155206 2.8155206 0 0 0  .25586.1152343 2.8155206 2.8155206 0 0 0  .265625.091797 2.8155206 2.8155206 0 0 0  .27539.0625 2.8155206 2.8155206 0 0 0  .279297.035156 2.8155206 2.8155206 0 0 0  .28125.00781 2.8155206 2.8155206 0 0 0  .279297-.021484 2.8155206 2.8155206 0 0 0  .277344-.048828 2.8155206 2.8155206 0 0 0  .271484-.074219 2.8155206 2.8155206 0 0 0  .185547-.070312 2.8155206 2.8155206 0 0 0  .253906-.1210937 2.8155206 2.8155206 0 0 0  .240235-.1464844 2.8155206 2.8155206 0 0 0  .226562-.1679688 2.8155206 2.8155206 0 0 0  .207031-.1914062 2.8155206 2.8155206 0 0 0  .185547-.2089844 2.8155206 2.8155206 0 0 0  .05469-.076172z"/></g></g></svg>