<svg height="12pt" viewBox="0 0 12 12" width="12pt" xmlns="http://www.w3.org/2000/svg" xmlns:xlink="http://www.w3.org/1999/xlink"><clipPath id="a"><path d="m0 0h12v12h-12z"/></clipPath><path d="m2.800781.710938h6.398438c1.152343 0 2.089843.9375 2.089843 2.089843v6.398438c0 1.152343-.9375 2.089843-2.089843 2.089843h-6.398438c-1.152343 0-2.089843-.9375-2.089843-2.089843v-6.398438c0-1.152343.9375-2.089843 2.089843-2.089843zm0 0" fill="#ccc" fill-rule="evenodd"/><g clip-path="url(#a)"><path d="m5.121094 1.941406c-.0625.054688-.074219.136719-.074219.230469 0 .179687.058594.394531.089844.476563 0 0 .046875.949218.0625 1.058593-.140625.011719-.386719.027344-.476563.054688h-.125c-.261718.011719-.507812.027343-.613281.121093l-.046875.039063.046875.054687c.078125.082032.105469.3125.136719.558594.078125.5.171875 1.125.632812 1.371094l.089844.039062v-.09375s.015625-.042968.015625-.097656c0-.039062-.015625-.105468-.03125-.203125.125.015625.386719.042969.480469.042969.011718.109375.414062 4.53125.414062 4.53125h.152344s.171875-4.371094.171875-4.503906c.105469 0 .582031.011718.722656.027344-.03125.082031-.15625.417968-.15625.417968l.214844-.175781c.0625-.039063 1.402344-1.113281 1.21875-1.816406-.0625-.230469-.277344-.394531-.632813-.476563h-.03125c-.199218 0-.816406.015625-1.277343.042969.015625-.355469.015625-.542969.015625-.640625v-.121094c0-.066406.078125-.164062.140625-.230468.058593-.082032.136719-.148438.136719-.230469 0-.027344-.015626-.054688-.03125-.082031-.089844-.121094-.765626-.433594-1.058594-.460938-.09375.011719-.15625.027344-.1875.066406zm.015625 2.226563h.078125c0 .121093.046875.976562.0625 1.097656-.125-.011719-.417969-.039063-.507813-.039063-.046875-.175781-.0625-.367187-.078125-.554687-.015625-.164063-.03125-.328125-.0625-.476563.140625 0 .507813-.027343.507813-.027343zm.9375.421875s.015625-.328125.015625-.433594c.203125.023438.464844.039062.710937.039062h.273438c0 .054688-.015625.121094-.015625.121094-.027344.300782-.074219.652344-.214844 1.003906-.089844 0-.660156-.027343-.785156-.039062 0-.09375.015625-.691406.015625-.691406zm0 0" fill="#4d4d4d"/></g></svg>