<svg height="12pt" viewBox="0 0 12 12" width="12pt" xmlns="http://www.w3.org/2000/svg"><path d="m2.800781.710938h6.398438c1.152343 0 2.089843.9375 2.089843 2.089843v6.398438c0 1.152343-.9375 2.089843-2.089843 2.089843h-6.398438c-1.152343 0-2.089843-.9375-2.089843-2.089843v-6.398438c0-1.152343.9375-2.089843 2.089843-2.089843zm0 0" fill="#498fb7" fill-rule="evenodd"/><path d="m8 18.5 2-10 1 15 1-14 1 13 1-11 1 7 2-9v12l2-13 2 15 1-11 2 5" fill="none" stroke="#a5bedc" stroke-linecap="round" stroke-linejoin="round" transform="scale(.375)"/></svg>