<svg height="12pt" viewBox="0 0 12 12" width="12pt" xmlns="http://www.w3.org/2000/svg"><path d="m6.078125 11.289062h3.121094c1.15625 0 2.089843-.933593 2.089843-2.089843v-6.398438c0-1.15625-.933593-2.089843-2.089843-2.089843h-3.121094zm0 0" fill="#ffb063" fill-rule="evenodd"/><path d="m6.078125 11.289062v-10.578124h-3.273437c-1.160157 0-2.09375.933593-2.09375 2.089843v6.398438c0 1.15625.933593 2.089843 2.09375 2.089843zm0 0" fill="#e68f48" fill-rule="evenodd"/><g fill="#ffdf98"><path d="m3.433594 2.8125c-1.035156 0-1.875.839844-1.875 1.875s.839844 1.875 1.875 1.875 1.875-.839844 1.875-1.875-.839844-1.875-1.875-1.875zm0 1.125c.414062 0 .75.335938.75.75s-.335938.75-.75.75c-.414063 0-.75-.335938-.75-.75s.335937-.75.75-.75zm0 0"/><path d="m3.058594 9.1875h.75v-3.75h-.75zm0 0"/><path d="m3.808594 8.4375h.75v-.75h-.75zm0 0"/></g></svg>