<svg height="12pt" viewBox="0 0 12 12" width="12pt" xmlns="http://www.w3.org/2000/svg"><g fill-rule="evenodd"><path d="m1.324219 10.675781 9.351562-9.351562c-.375-.378907-.898437-.613281-1.476562-.613281h-6.394531c-1.160157 0-2.09375.933593-2.09375 2.09375v6.394531c0 .578125.234374 1.097656.613281 1.476562zm0 0" fill="#f8b417"/><path d="m6.484375 11.289062v-3.085937h-.859375v3.085937zm0 0" fill="#ccc"/><path d="m5.878906 6.121094-4.554687 4.554687c.378906.378907.898437.613281 1.480469.613281h2.820312v-3.085937h.859375v3.085937h2.714844c.515625 0 .96875-.207031 1.332031-.515624zm0 0" fill="#662c8f"/><path d="m5.878906 6.121094 4.652344 4.652344c.453125-.382813.757812-.933594.757812-1.574219v-6.394531c0-.582032-.234374-1.105469-.613281-1.480469zm0 0" fill="#02a8d8"/><path d="m9.039062 6.105469c0 1.648437-1.335937 2.984375-2.984374 2.984375-1.648438 0-2.984376-1.335938-2.984376-2.984375 0-1.648438 1.335938-2.984375 2.984376-2.984375 1.648437 0 2.984374 1.335937 2.984374 2.984375zm0 0" fill="#496220"/><path d="m3.636719 2.550781c-.0625.003907-.125.035157-.15625.09375-.03125.054688-.035157.121094-.003907.179688l.433594.804687c-.695312.601563-1.105468 1.46875-1.128906 2.386719h6.550781c-.027343-.917969-.4375-1.785156-1.132812-2.386719l.433593-.804687c.03125-.058594.03125-.125-.003906-.179688-.03125-.058593-.089844-.089843-.15625-.09375-.066406 0-.128906.039063-.164062.101563l-.402344.753906c-.542969-.378906-1.1875-.582031-1.851562-.582031-.660157 0-1.308594.203125-1.855469.578125l-.398438-.75c-.03125-.0625-.09375-.101563-.164062-.101563zm-.851563 3.789063c.121094 1.714844 1.550782 3.042968 3.269532 3.042968s3.144531-1.328124 3.269531-3.042968zm0 0" fill="#92c642"/><path d="m5.28125 4.804688c0 .285156-.234375.515624-.519531.515624-.285157 0-.515625-.230468-.515625-.515624 0-.285157.230468-.519532.515625-.519532.285156 0 .519531.234375.519531.519532zm0 0" fill="#fff"/><path d="m7.863281 4.804688c0 .285156-.230469.515624-.515625.515624s-.515625-.230468-.515625-.515624c0-.285157.230469-.519532.515625-.519532s.515625.234375.515625.519532zm0 0" fill="#fff"/></g></svg>