<svg height="12pt" viewBox="0 0 12 12" width="12pt" xmlns="http://www.w3.org/2000/svg" xmlns:xlink="http://www.w3.org/1999/xlink"><clipPath id="a"><path d="m0 0h12v12h-12z"/></clipPath><path d="m2.800781.710938h6.398438c1.152343 0 2.089843.9375 2.089843 2.089843v6.398438c0 1.152343-.9375 2.089843-2.089843 2.089843h-6.398438c-1.152343 0-2.089843-.9375-2.089843-2.089843v-6.398438c0-1.152343.9375-2.089843 2.089843-2.089843zm0 0" fill="#f2f2f2" fill-rule="evenodd"/><g clip-path="url(#a)"><path d="m2.472656 2.050781v3.101563h1.976563v-1.128906h2.539062v-1.972657zm5.078125 0v7.898438h1.976563v-7.898438zm-2.539062 2.539063v5.359375h1.976562v-5.359375zm-2.539063 1.128906v4.230469h1.976563v-4.230469zm0 0" fill="#35bf5c"/></g></svg>