<svg height="12pt" viewBox="0 0 12 12" width="12pt" xmlns="http://www.w3.org/2000/svg" xmlns:xlink="http://www.w3.org/1999/xlink"><clipPath id="a"><path d="m0 0h12v12h-12z"/></clipPath><path d="m2.800781.710938h6.398438c1.152343 0 2.089843.9375 2.089843 2.089843v6.398438c0 1.152343-.9375 2.089843-2.089843 2.089843h-6.398438c-1.152343 0-2.089843-.9375-2.089843-2.089843v-6.398438c0-1.152343.9375-2.089843 2.089843-2.089843zm0 0" fill="#0277bd" fill-rule="evenodd"/><g clip-path="url(#a)" fill="#fff"><path d="m3.75 2.8125h1.125v6.375h-1.125zm0 0"/><path d="m7.125 2.8125h1.125v4.875h-1.125zm0 0"/><path d="m3.75 4.6875v.75c0 1.238281 1.011719 2.25 2.25 2.25s2.25-1.011719 2.25-2.25v-.75h-1.125v.75c0 .632812-.492188 1.125-1.125 1.125s-1.125-.492188-1.125-1.125v-.75zm0 0"/></g></svg>