<svg height="12pt" viewBox="0 0 12 12" width="12pt" xmlns="http://www.w3.org/2000/svg"><g fill-rule="evenodd"><path d="m2.800781.710938h6.398438c1.152343 0 2.089843.9375 2.089843 2.089843v6.398438c0 1.152343-.9375 2.089843-2.089843 2.089843h-6.398438c-1.152343 0-2.089843-.9375-2.089843-2.089843v-6.398438c0-1.152343.9375-2.089843 2.089843-2.089843zm0 0" fill="#e45d5d"/><path d="m11.289062 2.949219-5.289062 3.117187v5.222656h3.199219c1.15625 0 2.089843-.933593 2.089843-2.089843zm0 0" fill="#e45d5d"/><path d="m6 6.066406-5.289062-3.117187v6.25c0 1.15625.933593 2.089843 2.089843 2.089843h3.199219zm0 0" fill="#ed7d7d"/><path d="m2.800781.710938c-1.15625 0-2.089843.933593-2.089843 2.089843v.148438l5.289062 3.117187 5.289062-3.117187v-.148438c0-1.15625-.933593-2.089843-2.089843-2.089843zm0 0" fill="#e36d6d"/></g></svg>