<svg height="12pt" viewBox="0 0 12 12" width="12pt" xmlns="http://www.w3.org/2000/svg"><path d="m2.800781.710938h6.398438c1.152343 0 2.089843.9375 2.089843 2.089843v6.398438c0 1.152343-.9375 2.089843-2.089843 2.089843h-6.398438c-1.152343 0-2.089843-.9375-2.089843-2.089843v-6.398438c0-1.152343.9375-2.089843 2.089843-2.089843zm0 0" fill="#257833" fill-rule="evenodd"/><path d="m1.976562 7.054688 2.96875 2.96875c.097657.097656.257813.097656.355469 0l2.96875-2.96875c.097657-.097657.097657-.257813 0-.355469l-2.96875-2.96875c-.097656-.097657-.257812-.097657-.355469 0l-2.96875 2.96875c-.097656.097656-.097656.257812 0 .355469zm0 0" fill="#4bae4f"/><path d="m3.730469 7.054688 2.96875 2.96875c.097656.097656.257812.097656.355469 0l2.96875-2.96875c.097656-.097657.097656-.257813 0-.355469l-2.96875-2.96875c-.097657-.097657-.257813-.097657-.355469 0l-2.96875 2.96875c-.097657.097656-.097657.257812 0 .355469zm0 0" fill="#4bae4f"/><path d="m1.996094 6.226562 3.777344 3.777344c.125.125.328124.125.453124 0l3.777344-3.777344c.125-.125.125-.328124 0-.453124l-3.777344-3.777344c-.125-.125-.328124-.125-.453124 0l-3.777344 3.777344c-.125.125-.125.328124 0 .453124zm0 0" fill="#f58411"/><path d="m6.292969 7.609375c.230469-.019531.261719-.078125.382812-.179687.121094-.105469.136719-.226563.136719-.40625 0-.160157.011719-.347657-.109375-.460938s-.179687-.210938-.410156-.269531zm-.585938-3.21875c-.210937.011719-.273437.089844-.390625.191406-.113281.097657-.128906.226563-.128906.394531 0 .148438.007812.28125.117188.378907.105468.101562.175781.140625.402343.203125zm-1.171875 3.21875v-.730469h.324219c.011719.257813.082031.367188.238281.5.15625.132813.304688.226563.609375.230469v-1.316406c-.46875-.121094-.695312-.339844-.886719-.5-.1875-.15625-.285156-.367188-.285156-.628907 0-.300781.113282-.546874.335938-.730468.226562-.183594.4375-.3125.835937-.335938v-.734375h.585938v.734375c.203125.066406.273437.082032.410156.121094.199219.0625.417969.109375.597656.183594v.71875h-.324219c-.027343-.21875-.117187-.386719-.253906-.511719-.140625-.128906-.191406-.203125-.429687-.21875v1.316406c.5.125.667969.261719.867187.425781.203125.160157.304688.324219.304688.597657 0 .316406-.132813.605469-.355469.8125-.210937.195312-.386719.332031-.816406.359375v.730468h-.585938v-.730468c-.1875-.042969-.296875-.0625-.507812-.113282-.210938-.046874-.433594-.085937-.664063-.179687zm0 0" fill="#fff"/></svg>