<svg height="12pt" viewBox="0 0 12 12" width="12pt" xmlns="http://www.w3.org/2000/svg"><path d="m2.800781.710938h6.398438c1.152343 0 2.089843.9375 2.089843 2.089843v6.398438c0 1.152343-.9375 2.089843-2.089843 2.089843h-6.398438c-1.152343 0-2.089843-.9375-2.089843-2.089843v-6.398438c0-1.152343.9375-2.089843 2.089843-2.089843zm0 0" fill="#2097fb" fill-rule="evenodd"/><path d="m6.980469 2.214844-1.960938.28125v.5625h-.953125c-1.570312 0-1.570312.980468-1.570312.980468v.980469h2.523437c0-.324219.179688-.5625.503907-.5625.324218 0 .464843.238281.464843.5625h.019531l-3.476562 2.242188h-.035156v1.679687h2.523437v.84375l1.960938-.28125v-.5625h2.523437v-1.679687h-3.503906l2.78125-1.769531c.386719-.277344.722656-.472657.722656-1.257813 0 0 .054688-1.175781-2.101562-1.175781h-.421875zm0 0" fill="#fff"/></svg>