<svg height="12pt" viewBox="0 0 12 12" width="12pt" xmlns="http://www.w3.org/2000/svg"><path d="m2.800781.710938h6.398438c1.152343 0 2.089843.9375 2.089843 2.089843v6.398438c0 1.152343-.9375 2.089843-2.089843 2.089843h-6.398438c-1.152343 0-2.089843-.9375-2.089843-2.089843v-6.398438c0-1.152343.9375-2.089843 2.089843-2.089843zm0 0" fill="#c12d25" fill-rule="evenodd"/><path d="m10.539062 6c0-2.507812-2.03125-4.539062-4.539062-4.539062s-4.539062 2.03125-4.539062 4.539062 2.03125 4.539062 4.539062 4.539062 4.539062-2.03125 4.539062-4.539062zm0 0" fill="#c12d25"/><path d="m6 1.460938c-.335938 0-.660156.039062-.972656.105468v2.085938l-1.472656-1.476563c-.554688.355469-1.023438.824219-1.378907 1.378907l1.476563 1.472656h-2.085938c-.066406.3125-.105468.636718-.105468.972656s.039062.660156.105468.972656h2.085938l-1.476563 1.472656c.355469.554688.824219 1.023438 1.378907 1.378907l1.472656-1.476563v2.085938c.3125.066406.636718.105468.972656.105468s.660156-.039062.972656-.105468v-2.085938l1.472656 1.476563c.554688-.355469 1.023438-.824219 1.378907-1.378907l-1.476563-1.472656h2.085938c.066406-.3125.105468-.636718.105468-.972656s-.039062-.660156-.105468-.972656h-2.085938l1.476563-1.472656c-.355469-.554688-.824219-1.023438-1.378907-1.378907l-1.472656 1.476563v-2.085938c-.3125-.066406-.636718-.105468-.972656-.105468zm0 0" fill="#fff"/><path d="m9.890625 6c0-2.148438-1.742187-3.890625-3.890625-3.890625s-3.890625 1.742187-3.890625 3.890625 1.742187 3.890625 3.890625 3.890625 3.890625-1.742187 3.890625-3.890625zm0 0" fill="#ffcb05"/><path d="m9.242188 6c0-1.789062-1.453126-3.242188-3.242188-3.242188s-3.242188 1.453126-3.242188 3.242188 1.453126 3.242188 3.242188 3.242188 3.242188-1.453126 3.242188-3.242188zm0 0" fill="#c12d25"/><g fill="#fffcf7"><path d="m4.378906 4.378906h.648438v3.242188h-.648438zm0 0"/><path d="m5.675781 4.378906v.648438h-1.945312v-.648438zm0 0"/><path d="m6 4.378906h.648438v3.242188h-.648438zm0 0"/><path d="m7.945312 5.675781v.648438h-1.945312v-.648438zm0 0"/><path d="m7.296875 4.378906h.648437v3.242188h-.648437zm0 0"/></g></svg>