<svg height="12pt" viewBox="0 0 12 12" width="12pt" xmlns="http://www.w3.org/2000/svg"><path d="m2.800781.710938h6.398438c1.152343 0 2.089843.9375 2.089843 2.089843v6.398438c0 1.152343-.9375 2.089843-2.089843 2.089843h-6.398438c-1.152343 0-2.089843-.9375-2.089843-2.089843v-6.398438c0-1.152343.9375-2.089843 2.089843-2.089843zm0 0" fill="#4ab367" fill-rule="evenodd"/><path d="m3.0625 3.9375h1c .136719 0 .25.101562.25.226562v3.667969c0 .128907-.113281.230469-.25.230469h-1c-.136719 0-.25-.101562-.25-.230469v-3.667969c0-.125.113281-.226562.25-.226562" fill="#f9f9f9"/><path d="m4.921875 3.9375c-.128906 0-.234375.101562-.234375.226562v3.667969c0 .125.105469.230469.234375.230469h2.132813c1.179687 0 2.132812-.921875 2.132812-2.0625s-.953125-2.0625-2.132812-2.0625zm0 0" fill="#f9f9f9"/></svg>