<svg height="12pt" viewBox="0 0 12 12" width="12pt" xmlns="http://www.w3.org/2000/svg"><path d="m2.800781.710938h6.398438c1.152343 0 2.089843.9375 2.089843 2.089843v6.398438c0 1.152343-.9375 2.089843-2.089843 2.089843h-6.398438c-1.152343 0-2.089843-.9375-2.089843-2.089843v-6.398438c0-1.152343.9375-2.089843 2.089843-2.089843zm0 0" fill="#4f4f4f" fill-rule="evenodd"/><path d="m6 2.230469c-1.085938 0-1.8125.753906-1.8125 1.855469v1.160156h-.761719s-.324219 0-.324219.375v3.773437c0 .375.324219.375.324219.375h5.148438s.324219 0 .324219-.375v-3.773437c0-.375-.324219-.375-.324219-.375h-.761719v-1.171875c0-1.089844-.726562-1.84375-1.8125-1.84375zm0 0" fill="#fff"/><path d="m6 3.101562c.640625 0 1.160156.507813 1.160156 1.148438 0 .773438-.820312 1.738281-1.015625 1.75 0 0 .082031-.589844-.144531-.589844-.640625 0-1.160156-.519531-1.160156-1.160156s.519531-1.148438 1.160156-1.148438zm0 0" fill="#4f4f4f"/><path d="m6 6.578125c.359375 0 .652344.292969.652344.652344 0 .308593-.210938.5625-.492188.632812h.058594c.214844 0 .347656.199219.480469.375.121093.164063.171875.390625.171875.472657v.152343.011719c0 .175781-.140625.316406-.316406.316406h-1.109376c-.175781 0-.316406-.140625-.316406-.316406 0-.003906.003906-.007812.003906-.011719-.003906 0-.003906-.074219-.003906-.152343 0-.082032.039063-.3125.15625-.480469.121094-.179688.28125-.367188.496094-.367188h.058594c-.28125-.070312-.492188-.324219-.492188-.632812 0-.359375.292969-.652344.652344-.652344zm0 0" fill="#4f4f4f"/></svg>