<svg height="32" viewBox="0 0 32 32" width="32" xmlns="http://www.w3.org/2000/svg"><rect fill="#75aadb" fill-rule="evenodd" height="28.203388" ry="5.575182" width="28.203388" x="1.898306" y="1.898306"/><path d="m19.713226 25.428446h4.217803c1.4408.51458 4.5969 5.243754 6.3122 8.571354h2.281371c1.475386.0002 2.903957.0002 2.903957-1.428371 0-1.428572-1.428571-1.428572-2.903937-1.428572h-.44597c-1.4408-2.2985-2.7101-4.450047-4.3225-5.856547 2.5043-1.3722 3.386693-2.696539 3.386693-4.857739.001-3.603-2.767693-6.429361-7.227693-6.429361h-7.6501c-.836493.00079-2.265064.00079-2.2638 1.429361.0013 1.428572 1.427307 1.428572 2.855879 1.428222v14.282693h-.591769c-.836803.0034-2.265374.0034-2.2638 1.431943.001574 1.428571 1.426997 1.428571 2.26441 1.428511h5.1458c1.159644.00006 2.588216.00006 2.588216-1.428511 0-1.428572-1.428572-1.428572-2.588196-1.431093h-1.696474v-5.71164zm0-2.857017v-5.713936h4.337974c2.805929 0 4.2345 1.428221 4.2345 3.145707 0 2.568229-2.207226 2.568229-5.4695 2.568229z" fill="#fff" transform="matrix(.7 0 0 .7 -1.300432 -.799703)"/></svg>