<svg height="12pt" viewBox="0 0 12 12" width="12pt" xmlns="http://www.w3.org/2000/svg"><path d="m11.25 2.613281c-.019531-.21875-.046875-.433593-.125-.625-.105469-.25-.257812-.476562-.449219-.664062-.1875-.191407-.414062-.34375-.664062-.449219-.191407-.082031-.40625-.105469-.625-.125h-3.386719v5.25h5.25zm0 0" fill="#ff8c2a"/><path d="m2.613281.75c-.21875.019531-.433593.042969-.625.125-.25.105469-.476562.257812-.664062.449219-.191407.1875-.34375.414062-.449219.664062-.082031.191407-.105469.40625-.125.625v3.386719h5.25v-5.25zm0 0" fill="#6655e4"/><path d="m9.386719 11.25c.21875-.019531.433593-.042969.625-.125.25-.105469.476562-.257812.664062-.449219.191407-.1875.34375-.414062.449219-.664062.082031-.191407.105469-.40625.125-.625v-3.386719h-5.25v5.25zm0 0" fill="#fe4b71"/><path d="m .75 9.386719c.019531.21875.042969.433593.125.625.105469.25.257812.476562.449219.664062.1875.191407.414062.34375.664062.449219.191407.082031.40625.105469.625.125h3.386719v-5.25h-5.25zm0 0" fill="#c72566"/><path d="m3.570312 1.984375h4.859376c.875 0 1.585937.710937 1.585937 1.585937v4.859376c0 .875-.710937 1.585937-1.585937 1.585937h-4.859376c-.875 0-1.585937-.710937-1.585937-1.585937v-4.859376c0-.875.710937-1.585937 1.585937-1.585937zm0 0" fill="#3f3f3f" fill-rule="evenodd"/><g fill="none" stroke="#fff" stroke-linecap="round" stroke-width="2.162302" transform="matrix(.346851 0 0 .346854 -7.87305 13.272141)"><path d="m33.00345-13.949797h7.996056"/><path d="m47.00218-19.952407v-7.995973m-6.002674 0 2.995706 3.997986 3.006968-3.997986m-6.002674 7.995973v-7.995973" stroke-linejoin="round"/><path d="m37.001478-19.952407-2.004645-2.995674m-1.993383-1.002313s3.998028.46174 3.998028-1.993362c0-2.466363-3.998028-2.004624-3.998028-2.004624m0 7.995973v-7.995973"/></g></svg>