<svg height="12pt" viewBox="0 0 12 12" width="12pt" xmlns="http://www.w3.org/2000/svg"><path d="m2.800781.710938h6.398438c1.152343 0 2.089843.9375 2.089843 2.089843v6.398438c0 1.152343-.9375 2.089843-2.089843 2.089843h-6.398438c-1.152343 0-2.089843-.9375-2.089843-2.089843v-6.398438c0-1.152343.9375-2.089843 2.089843-2.089843zm0 0" fill="#4d4d4d" fill-rule="evenodd"/><path d="m8.597656 3.402344c-.339844-.339844-.730468-.597656-1.144531-.777344l-1.597656 3.519531 3.519531-1.597656c-.179688-.414063-.4375-.804687-.777344-1.144531zm0 0" fill="#57beff"/><g fill="#94ff57"><path d="m6.613281 2.734375c0 .339844-.273437.613281-.613281.613281s-.613281-.273437-.613281-.613281.273437-.613281.613281-.613281.613281.273437.613281.613281zm0 0"/><path d="m6.613281 9.265625c0 .339844-.273437.613281-.613281.613281s-.613281-.273437-.613281-.613281.273437-.613281.613281-.613281.613281.273437.613281.613281zm0 0"/><path d="m9.265625 6.613281c-.339844 0-.613281-.273437-.613281-.613281s.273437-.613281.613281-.613281.613281.273437.613281.613281-.273437.613281-.613281.613281zm0 0"/><path d="m2.734375 6.613281c-.339844 0-.613281-.273437-.613281-.613281s.273437-.613281.613281-.613281.613281.273437.613281.613281-.273437.613281-.613281.613281zm0 0"/></g></svg>