<svg height="12pt" viewBox="0 0 12 12" width="12pt" xmlns="http://www.w3.org/2000/svg"><path d="m2.800781.710938h6.398438c1.152343 0 2.089843.9375 2.089843 2.089843v6.398438c0 1.152343-.9375 2.089843-2.089843 2.089843h-6.398438c-1.152343 0-2.089843-.9375-2.089843-2.089843v-6.398438c0-1.152343.9375-2.089843 2.089843-2.089843zm0 0" fill="#7a509e" fill-rule="evenodd"/><path d="m2.25 6c0 2.070312 1.679688 3.75 3.75 3.75s3.75-1.679688 3.75-3.75-1.679688-3.75-3.75-3.75-3.75 1.679688-3.75 3.75zm0 0" fill="#fae8a2"/><path d="m6.355469 2.269531c.472656.042969.933593.179688 1.355469.394531-.019532.058594.003906.128907.074218.1875.046875.039063.082032.101563.082032.140626 0 .113281-.101563.285156-.179688.308593-.109375.035157-.074219.148438.066406.214844.0625.027344.140625.113281.175782.1875.03125.074219.078124.144531.105468.160156.023438.015625.046875.074219.046875.128907 0 .078124-.035156.117187-.152343.164062-.085938.03125-.183594.058594-.222657.054688-.222656-.023438-.238281.109374-.042969.363281.101563.132812.152344.167969.222657.152343.066406-.015624.101562 0 .132812.066407.03125.070312.082031.09375.222657.101562.136718.011719.195312.039063.246093.113281.039063.054688.09375.097657.121094.097657s.097656.039062.152344.082031c.109375.089844.152343.101562.1875.039062.050781-.078124.160156-.039062.324219.117188.144531.140625.164062.175781.140624.296875-.039062.214844-.15625.402344-.285156.46875-.117187.058594-.117187.0625-.050781.136719.042969.042968.109375.089844.15625.101562.125.039063.054687.085938-.171875.117188-.234375.027344-.304688.113281-.195312.226562.058593.0625.054687.078125-.039063.136719-.191406.117187-.339844.046875-.164063-.078125.113282-.078125.035157-.113281-.132812-.054688-.132812.046876-.160156.042969-.238281-.023437-.164063-.140625-.339844.066406-.191407.222656.09375.101563.066407.21875-.054687.238281-.054687.007813-.167969.054688-.25.109376-.085937.054687-.175781.097656-.203125.097656s-.105469.058594-.171875.125c-.136719.136718-.210937.152344-.25.054687-.046875-.113281-.027344-.171875.097656-.308593.097657-.109376.257813-.394532.257813-.464844 0-.042969-.160156-.003906-.253906.058594-.054688.039062-.148438.089843-.207032.109374-.058594.027344-.121094.101563-.148437.183594-.042969.132813-.0625.144532-.21875.144532h-.167969l-.027344.304687c-.027344.363281-.058594.4375-.183594.46875-.09375.023437-.191406.167969-.191406.277344 0 .03125.066406.105469.148438.164062.101562.074219.144531.136719.136718.195313-.007812.078125.007813.089844.117188.082031.070312-.003906.191406.019531.269531.054687.09375.042969.191407.054688.285157.039063.109374-.019531.144531-.011719.144531.03125 0 .027344.039062.085937.085937.128906.113282.097657.066406.148438-.109375.117188-.109375-.019531-.152343-.011719-.167969.035156-.042968.101563.058594.242187.152344.21875.0625-.011719.089844.007813.109375.078125.003907.023438.015625.046875.03125.0625-.191406.074219-.390625.132812-.59375.175781.019531-.035156.039063-.066406.0625-.082031.09375-.070312.03125-.246094-.101562-.277344-.136719-.035156-.113281-.121094.03125-.136718.128906-.015626.269531-.148438.226562-.214844-.03125-.042969-.15625-.039063-.40625.023437-.109375.023438-.1875-.027343-.449219-.316406-.152343-.164063-.269531-.234375-.394531-.234375-.050781 0-.222656-.042969-.386719-.097656-.308593-.105469-.429687-.101563-.421874.011718.027343.234376-.125.226563-.371094-.019531-.105469-.101562-.199219-.175781-.210938-.164062-.046875.046875.039063.265625.136719.355469.125.113281.132813.183593.023437.238281-.0625.03125-.085937.09375-.097656.238281l-.011718.191406h-.15625c-.054688 0-.101563.007813-.136719.019532-1.09375-.65625-1.777344-1.820313-1.820313-3.09375.058594-.121094.054688-.195313 0-.28125.003906-.070313.011719-.140626.019532-.207032.035156-.003906.066406-.003906.109374-.003906.1875.007812.351563-.066406.351563-.160156 0-.019532.066406-.101563.148437-.183594.09375-.09375.140626-.171875.125-.214844-.011718-.039062.015626-.101562.0625-.140625.046876-.042969.085938-.109375.085938-.148437 0-.0625.039062-.070313.328125-.0625l.332031.007812-.007812.324219c-.007813.566406-.09375.714844-.355469.621094-.117187-.042969-.410156-.011719-.496094.054687-.03125.023438-.074219.109375-.097656.195313-.023437.082031-.109375.222656-.191406.316406-.164063.183594-.175781.257813-.082031.476563.082031.1875.171874.167968.15625-.039063l-.015626-.152344.140626.023438c.078124.015625.175781.074219.21875.128906.0625.082031.09375.09375.140624.058594.03125-.027344.058594-.082031.058594-.121094 0-.042969.039063-.085937.089844-.101563.046875-.015624.113281-.089843.148438-.164062.050781-.121094.050781-.15625-.011719-.304688-.0625-.148437-.0625-.171874-.003907-.226562.050782-.050781.078126-.054688.148438-.011719.066406.042969.101562.039063.183594-.015625.054687-.039062.152344-.070312.214844-.070312.125 0 .164062-.058594.164062-.265625 0-.1875.113281-.253907.378906-.230469.183594.015625.226563.003906.375-.109375.09375-.070313.238282-.242187.324219-.378906.085937-.140625.179687-.285157.207031-.324219.039063-.054688.027344-.105469-.046875-.257812l-.097656-.1875.203125.027343c.363281.046875.4375.09375.28125.179688-.0625.03125-.0625.046875-.015625.101562.03125.035157.042969.089844.03125.125-.015625.03125.003906.109375.035156.171875.035157.0625.0625.148438.066407.195313.003906.140625.242187.25.507812.234375.402344-.019532.4375-.015625.582031.117187.175781.167969.199219.246094.117188.398438-.082031.152343-.222657.210937-.472657.199219-.222656-.011719-.246093.007812-.195312.15625.042969.125.1875.171874.285156.09375.074219-.058594.335938-.015626.417969.074218.03125.035156.082031.132813.109375.214844.046875.140625.0625.148438.269531.167969.210938.019531.230469.015625.382813-.125.167968-.15625.195312-.273438.113281-.476563-.035156-.089844-.0625-.105468-.15625-.089844-.191406.035157-.265625-.03125-.265625-.234374 0-.097657.019531-.1875.042969-.203126.023437-.011718.042969-.066406.042969-.117187 0-.046875.023437-.113281.050781-.140625.042969-.042969.039062-.0625-.03125-.113281-.046875-.03125-.121094-.054688-.167969-.046875-.046875.003906-.175781-.015625-.289062-.046875-.160157-.042969-.207032-.074219-.230469-.160157-.039063-.160156-.140625-.289062-.226563-.289062-.132812 0-.132812-.3125-.003906-.769531.019531-.066407.070312-.109375.164062-.132813.074219-.019531.15625-.070312.183594-.113281.023438-.046875.066406-.082031.097656-.082031s.089844-.035156.132813-.082032c.042969-.042968.132813-.078124.199219-.078124.15625 0 .160156-.109376.003906-.167969-.167969-.0625-.425781.019531-.488281.148437-.082031.179688-.179688.105469-.207031-.164062-.039063-.332032-.152344-.429688-.515626-.429688h-.257812l.113281-.113281c.035157-.035156.0625-.078125.085938-.121094zm-1.347657.117188c.003907.007812.011719.011719.019532.019531.085937.089844.128906.101562.261718.082031.234376-.035156.207032.058594-.054687.171875-.140625.0625-.230469.132813-.261719.203125-.148437.34375-.25.53125-.300781.546875-.105469.039063-.164063-.035156-.1875-.230468-.027344-.226563-.101563-.273438-.238281-.152344-.054688.050781-.128906.089844-.164063.089844-.117187 0-.203125.042968-.203125.109374 0 .03125-.039062.113282-.085937.175782-.074219.097656-.121094.121094-.253907.121094-.164062 0-.261718.027343-.46875.140624 0 .003907-.003906.003907-.007812.003907.496094-.621094 1.175781-1.070313 1.945312-1.28125zm4.742188 3.597656v.015625c0 .242188-.027344.484375-.074219.71875-.136719.058594-.171875.035156-.1875-.089844-.007812-.066406-.039062-.140625-.074219-.167968-.054687-.039063-.046874-.058594.066407-.132813.070312-.050781.140625-.132813.152343-.1875.015626-.054687.0625-.113281.117188-.15625zm-1.179688 1.238281c.035157-.003906.074219.015625.121094.0625.101563.09375.085938.285156-.027344.359375-.128906.085938-.175781.0625-.195312-.097656-.019531-.195313.023438-.316406.101562-.324219zm-.636718.566406c.039062.003907.078125.03125.121094.085938.046874.0625.058593.140625.039062.261719-.019531.148437-.011719.179687.066406.21875.097656.050781.121094.199219.039063.277343-.082031.078126-.15625.058594-.183594-.046874-.039063-.152344-.261719-.167969-.414063-.035157-.0625.058594-.113281.089844-.113281.066407 0-.023438.066407-.101563.148438-.179688.125-.113281.148437-.164062.148437-.3125 0-.210938.0625-.335938.148438-.335938zm1.042968.484376c-.027343.039062-.054687.074218-.085937.109374.027344-.039062.054687-.074218.085937-.109374zm-1.261718.578124c.019531.003907.027344.027344.027344.070313s.027343.085937.058593.097656c.042969.019531.054688.070313.039063.191407-.003906.019531-.007813.039062-.007813.058593-.050781.027344-.101562.054688-.15625.078125.003907-.0625-.007812-.140625-.042969-.234375-.058593-.164062-.058593-.203125-.011718-.230469.042968-.027343.074218-.039062.09375-.03125zm0 0" fill="#c8ba82"/></svg>