<svg height="12pt" viewBox="0 0 12 12" width="12pt" xmlns="http://www.w3.org/2000/svg"><path d="m2.800781.710938h6.398438c1.152343 0 2.089843.9375 2.089843 2.089843v6.398438c0 1.152343-.9375 2.089843-2.089843 2.089843h-6.398438c-1.152343 0-2.089843-.9375-2.089843-2.089843v-6.398438c0-1.152343.9375-2.089843 2.089843-2.089843zm0 0" fill="#9b6bca" fill-rule="evenodd"/><path d="m2.394531 1.953125c.289063.402344.4375.824219 0 1.445313-.046875.542968.144531.859374.792969.847656.152344-.011719.398438-.042969.523438-.164063.203124-.246093.125-.378906.042968-.394531-.085937-.027344-.296875.105469-.097656.199219.042969.175781-.441406.15625-.53125.011719-.335938-.605469.558594-1.039063 1.582031-.644532.207031 1.648438.445313 3.746094.1875 5.707032-.167969.386718-.347656.621093-.765625.796874v.289063c.578125-.289063 2.023438-.289063 2.890625-.289063v-.289062c-.375-.066406-.671875-.414062-.714843-.765625-.144532-1.941406-.253907-3.367187.136718-5.304687h1.433594c.179688.003906.253906.152343.300781.578124h.578125c-.203125-.480468-.289062-.867187-.289062-1.445312-2.160156.335938-3.734375.039062-6.070313-.578125zm6.171875 4.628906c-.398437-.003906-.703125.128907-.929687.464844-.035157.078125-.050781.132813-.054688.222656-.007812.105469.015625.1875.070313.28125.015625.027344.0625.078125.085937.09375.054688.042969.140625.085938.183594.089844.011719 0 .027344.003906.035156.003906.140625-.003906.210938-.117187.210938-.269531 0-.1875.34375-.5625.460937-.054688-.027344.320313-.199218.382813-.425781.546876-.023437.011718-.039063.03125-.039063.054687.074219.152344.144532.296875.199219.457031.019531.042969.027344.054688.050781.054688.011719 0 .019532-.003906.035157-.019532.085937-.121093.144531-.289062.234375-.132812.027344.054688.039062.09375.058594.175781.003906.023438.007812.050781.007812.113281.003906.0625 0 .085938-.011719.171876-.132812.351562-.347656.519531-.789062.421874-.039063-.023437-.082031-.0625-.082031-.082031 0-.011719.023437-.015625.070312-.015625.058594 0 .097656-.011718.125-.035156.003906-.003906.011719-.007812.019531-.015625.015625-.007813.035157-.035156.046875-.054687.003906-.007813.007813-.011719.007813-.015626.011719-.007812.027343-.054687.03125-.097656.007812-.089844 0-.085937-.039063-.15625-.046875-.078125-.148437-.148437-.242187-.171875-.046875-.007812-.054688-.007812-.101563-.011719-.195312 0-.371094.160157-.464844.417969-.019531.125-.023437.144531-.015624.230469.007812.078125.019531.136719.050781.207031.011719.027344.035156.074219.042969.085938 0 .003906.011718.019531.019531.039062.019531.03125.046875.070313.0625.085938.003906.003906.003906.007812.003906.007812 0 .007813.097656.105469.132813.132813.011718.011718.023437.019531.027343.023437.035157.035157.160157.105469.21875.125.007813.003907.035157.011719.054688.019531.035156.011719.128906.039063.15625.042969.003906 0 .023437.003907.039062.007813.019531.003906.050781.007812.074219.011718.019531.003907.070312.007813.109375.007813.085937 0 .246094-.007813.265625-.011719.007812-.003906.023438-.007812.03125-.007812.011719 0 .097656-.019532.109375-.023438.023437-.003906.042969-.011718.078125-.019531.023438-.007813.046875-.015625.058594-.015625.007812-.003906.019531-.007812.023437-.007812 0-.003907.011719-.007813.027344-.011719.042969-.015625.132813-.058594.179687-.089844.015626-.007813.03125-.019531.039063-.019531.003906-.003906.015625-.011719.03125-.023438.015625-.011718.027344-.019531.03125-.019531s.050781-.03125.070313-.050781c.007812-.007813.023437-.019532.035156-.03125.042968-.035156.105468-.101563.117187-.121094.003907-.003906.011719-.015625.019531-.023438.03125-.039062.054688-.070312.054688-.074218s.007812-.019532.019531-.035156c.011719-.015626.019531-.03125.019531-.035157 0 0 .007813-.015625.015626-.035156.011718-.019531.019531-.039063.023437-.046875.023437-.046875.050781-.152344.058594-.214844 0-.011718.003906-.035156.003906-.050781.003906-.03125.003906-.152344 0-.175781-.003906-.007813-.003906-.03125-.007813-.058594-.007812-.074219-.03125-.171875-.054687-.238281-.007813-.019531-.019531-.046875-.023437-.058594-.003907-.011719-.007813-.023437-.011719-.027344-.003907-.007812-.007813-.011719-.007813-.015625 0-.011718-.054687-.121094-.082031-.160156-.015625-.023438-.027344-.042969-.027344-.046875-.003906-.007813-.015625-.023437-.019531-.027344 0 0-.007812-.007812-.011719-.019531-.003906-.007812-.011719-.015625-.015625-.019531-.003906-.003907-.007812-.011719-.015625-.019531-.003906-.011719-.011719-.019532-.011719-.019532-.003906 0-.007812-.007812-.015624-.015625-.015626-.019531-.066407-.078125-.117188-.128906-.050781-.054687-.09375-.054687-.097656-.070313-.003906-.015624.007812-.035156.035156-.0625.03125-.03125.0625-.078124.082031-.117187.003907-.003906.007813-.011719.011719-.015625s.054688-.101562.058594-.117188c.003906-.003906.007812-.015624.007812-.027343.003906-.007813.011719-.027344.015625-.039063.011719-.03125.027344-.109375.027344-.152344.007813-.078124.003906-.203124-.007813-.25-.003906-.03125-.039062-.125-.050781-.144531-.003906-.011719-.015625-.03125-.023437-.046875-.019532-.046875-.042969-.078125-.097656-.136718-.027344-.027344-.109376-.101563-.136719-.117188-.046875-.03125-.078125-.050781-.101563-.0625-.054687-.023438-.078125-.035156-.089844-.039062-.011718-.003907-.019531-.007813-.023437-.011719 0 0-.003906-.003907-.007813-.003907-.003906 0-.011718 0-.019531-.003906-.035156-.015625-.113281-.039062-.203125-.046875zm0 0" fill="#fff"/></svg>