<svg height="12pt" viewBox="0 0 12 12" width="12pt" xmlns="http://www.w3.org/2000/svg" xmlns:xlink="http://www.w3.org/1999/xlink"><clipPath id="a"><path d="m0 0h12v12h-12z"/></clipPath><path d="m2.800781.710938h6.398438c1.152343 0 2.089843.9375 2.089843 2.089843v6.398438c0 1.152343-.9375 2.089843-2.089843 2.089843h-6.398438c-1.152343 0-2.089843-.9375-2.089843-2.089843v-6.398438c0-1.152343.9375-2.089843 2.089843-2.089843zm0 0" fill="#62c1ec" fill-rule="evenodd"/><g clip-path="url(#a)"><path d="m6 2.921875c-1.195312 0-2.214844.707031-2.652344 1.714844-1.113281.160156-1.964844 1.078125-1.964844 2.203125 0 1.238281 1.03125 2.238281 2.308594 2.238281h4.90625c1.117188 0 2.019532-.875 2.019532-1.957031 0-1.007813-.777344-1.832032-1.785157-1.941406-.261719-1.285157-1.429687-2.257813-2.832031-2.257813zm0 0" fill="#fff"/></g><path d="m5.078125 4.769531v1.539063h-.617187l1.539062 1.539062 1.539062-1.539062h-.617187v-1.539063zm0 0" fill="#62c1ec"/></svg>