<svg height="32" width="32" xmlns="http://www.w3.org/2000/svg"><rect fill="#929292" fill-rule="evenodd" height="28.203388" ry="5.575182" width="28.203388" x="1.898306" y="1.898306"/><g transform="translate(0 .380596)"><rect fill="#4f4f4f" height="21.313433" rx="4.349463" ry="4.262687" transform="matrix(0 -1 -1 0 0 0)" width="15.223881" x="-23.231344" y="-26.656715"/><path d="m23.611938 17.576759v-3.914713c0-1.445834-1.35797-2.609808-3.044776-2.609808h-9.134328c-1.686806 0-3.044776 1.163974-3.044776 2.609808v3.914713c0 1.445834 1.35797 2.609808 3.044776 2.609808h1.902985l2.664179-1.522388 2.664179 1.522388h1.902985c1.686806 0 3.044776-1.163974 3.044776-2.609808z" fill="#48aad5"/><rect fill="#929292" height="2.283582" rx=".475746" ry=".570895" stroke-linecap="round" stroke-linejoin="round" stroke-width=".234973" transform="rotate(90)" width="3.80597" x="13.335819" y="-6.865672"/><rect fill="#929292" height="2.283582" rx=".475746" ry=".570895" stroke-linecap="round" stroke-linejoin="round" stroke-width=".234973" transform="rotate(90)" width="3.80597" x="13.335819" y="-27.41791"/></g></svg>