<svg height="12pt" viewBox="0 0 12 12" width="12pt" xmlns="http://www.w3.org/2000/svg"><path d="m2.800781.710938h6.398438c1.152343 0 2.089843.9375 2.089843 2.089843v6.398438c0 1.152343-.9375 2.089843-2.089843 2.089843h-6.398438c-1.152343 0-2.089843-.9375-2.089843-2.089843v-6.398438c0-1.152343.9375-2.089843 2.089843-2.089843zm0 0" fill="#8e8e8e" fill-rule="evenodd"/><path d="m8.25 1.5c-1.449219 0-2.625 1.175781-2.625 2.625s1.175781 2.625 2.625 2.625 2.625-1.175781 2.625-2.625-1.175781-2.625-2.625-2.625zm-4.5 3.75c-1.449219 0-2.625 1.175781-2.625 2.625s1.175781 2.625 2.625 2.625 2.625-1.175781 2.625-2.625-1.175781-2.625-2.625-2.625zm0 0" fill="#4f4f4f"/></svg>