<svg height="12pt" viewBox="0 0 12 12" width="12pt" xmlns="http://www.w3.org/2000/svg" xmlns:xlink="http://www.w3.org/1999/xlink"><clipPath id="a"><path d="m0 0h12v12h-12z"/></clipPath><path d="m2.800781.710938h6.398438c1.152343 0 2.089843.9375 2.089843 2.089843v6.398438c0 1.152343-.9375 2.089843-2.089843 2.089843h-6.398438c-1.152343 0-2.089843-.9375-2.089843-2.089843v-6.398438c0-1.152343.9375-2.089843 2.089843-2.089843zm0 0" fill="#5f7c8a" fill-rule="evenodd"/><g clip-path="url(#a)"><path d="m10.5 9.375v-6.75h-9v6.75zm0 0" fill="#7f96a1"/></g><path d="m8.0625 3.375h1.5c.105469 0 .1875.082031.1875.1875v4.875c0 .105469-.082031.1875-.1875.1875h-1.5c-.105469 0-.1875-.082031-.1875-.1875v-4.875c0-.105469.082031-.1875.1875-.1875zm0 0" fill="#fff"/></svg>