<svg height="12pt" viewBox="0 0 12 12" width="12pt" xmlns="http://www.w3.org/2000/svg"><path d="m2.800781.710938h6.398438c1.152343 0 2.089843.9375 2.089843 2.089843v6.398438c0 1.152343-.9375 2.089843-2.089843 2.089843h-6.398438c-1.152343 0-2.089843-.9375-2.089843-2.089843v-6.398438c0-1.152343.9375-2.089843 2.089843-2.089843zm0 0" fill="#6eaa36" fill-rule="evenodd"/><path d="m5.867188 1.800781c-1.613282 0-2.53125.660157-3.132813 1.402344.460937.125.78125.230469.886719.265625 0-.070312.011718-.695312.011718-.695312l.007813-.019532.023437-.007812c.140626.019531 3.160157.464844 4.433594 1.207031.15625.09375.234375.1875.332032.289063.351562.363281.820312 1.875.867187 2.1875l-.019531.035156c-.015625.003906-.0625.035156-.121094.074218-.296875.210938-.988281.695313-1.878906.617188-.800782-.074219-1.84375-.53125-3.101563-1.359375.054688.128906.316407.75.359375.855469l.019532.019531c.179687.097656 1.929687.988281 2.796874.96875.703126-.011719 1.449219-.355469 1.75-.535156l.09375-.015625c.027344.019531.023438.058594.015626.097656-.019532.085938-.058594.242188-.089844.316406l-.023438.058594c-.035156.09375-.066406.179688-.128906.230469-.175781.160156-.460938.289062-.902344.480469-.679687.300781-1.785156.488281-2.8125.480468-.367187-.007812-.722656-.046875-1.035156-.085937-.652344-.074219-1.179688-.132813-1.496094.113281.765625.871094 1.890625 1.417969 3.144532 1.417969 2.320312 0 4.203124-1.878907 4.203124-4.199219s-1.882812-4.199219-4.203124-4.199219zm1.109374 2.222657c-.320312.003906-.625.125-.859374.347656-.253907.234375-.398438.554687-.414063.898437-.019531.710938.539063 1.3125 1.25 1.335938.347656.011719.675781-.109375.925781-.347657.253906-.234374.398438-.550781.410156-.898437.023438-.710937-.535156-1.308594-1.25-1.335937-.019531 0-.042968 0-.0625 0zm-.035156.378906h.089844c.496094.019531.886719.4375.871094.933594-.007813.238281-.109375.464843-.285156.628906-.179688.164062-.40625.246094-.648438.242187-.496094-.019531-.886719-.4375-.867188-.933593.003907-.242188.109376-.464844.285157-.628907.152343-.144531.347656-.226562.554687-.242187zm.238282.453125c-.222657 0-.402344.121093-.402344.265625 0 .148437.179687.269531.402344.269531.21875 0 .398437-.121094.398437-.269531 0-.144532-.179687-.265625-.398437-.265625zm0 0" fill="#fff"/></svg>