<svg height="12pt" viewBox="0 0 12 12" width="12pt" xmlns="http://www.w3.org/2000/svg"><path d="m2.800781.710938h6.398438c1.152343 0 2.089843.9375 2.089843 2.089843v6.398438c0 1.152343-.9375 2.089843-2.089843 2.089843h-6.398438c-1.152343 0-2.089843-.9375-2.089843-2.089843v-6.398438c0-1.152343.9375-2.089843 2.089843-2.089843zm0 0" fill="#2293da" fill-rule="evenodd"/><path d="m6.800781 3.203125c-.765625 0-1.453125.46875-1.734375 1.179687-.25-.242187-.582031-.378906-.929687-.382812-.738281 0-1.335938.597656-1.335938 1.332031.003907.199219.046875.394531.132813.574219-.417969.300781-.664063.78125-.664063 1.292969 0 .882812.714844 1.597656 1.597657 1.597656h3.730468c1.179688 0 2.132813-.953125 2.132813-2.128906 0-.769531-.414063-1.480469-1.085938-1.859375-.128906-.917969-.914062-1.605469-1.84375-1.605469zm0 0" fill="#46b4ff"/><g fill="#fff"><path d="m6 5.070312c-.632812 0-1.175781.445313-1.304688 1.066407h.550782c.113281-.320313.414062-.53125.753906-.53125s.640625.210937.753906.53125h.550782c-.125-.621094-.671876-1.066407-1.304688-1.066407zm-1.304688 1.597657c.125.621093.671876 1.066406 1.304688 1.066406s1.175781-.445313 1.304688-1.066406h-.550782c-.113281.320312-.414062.535156-.753906.535156s-.640625-.214844-.753906-.535156zm0 0"/><path d="m7.332031 6.136719h-1.066406l1.066406-1.066407zm0 0"/><path d="m4.667969 6.402344h1.066406l-1.066406 1.066406zm0 0"/></g></svg>