<svg height="12pt" viewBox="0 0 12 12" width="12pt" xmlns="http://www.w3.org/2000/svg"><path d="m2.800781.710938h6.398438c1.152343 0 2.089843.9375 2.089843 2.089843v6.398438c0 1.152343-.9375 2.089843-2.089843 2.089843h-6.398438c-1.152343 0-2.089843-.9375-2.089843-2.089843v-6.398438c0-1.152343.9375-2.089843 2.089843-2.089843zm0 0" fill="#80bbb2" fill-rule="evenodd"/><path d="m6.011719 2.003906c-.078125-.003906-.15625.015625-.222657.054688l-3.148437 1.792968c-.128906.074219-.207031.210938-.207031.355469v3.585938c0 .144531.078125.28125.207031.355469l3.148437 1.792968c.132813.074219.289063.074219.421876 0l3.148437-1.792968c.128906-.074219.207031-.210938.207031-.355469v-3.585938c0-.144531-.078125-.28125-.207031-.355469l-3.148437-1.792968c-.0625-.035156-.128907-.054688-.199219-.054688zm0 0" fill="#9ed5ca"/><path d="m6.144531 5.144531c0 .628907-.511719 1.140625-1.144531 1.140625-.628906 0-1.140625-.511718-1.140625-1.140625 0-.632812.511719-1.144531 1.140625-1.144531.632812 0 1.144531.511719 1.144531 1.144531zm0 0" fill="#ffd16d"/><path d="m6.285156 4.859375c-.429687 0-.832031.214844-1.070312.574219-.023438-.003906-.046875-.003906-.070313-.003906-.710937 0-1.285156.574218-1.285156 1.285156 0 .707031.574219 1.285156 1.285156 1.285156h2.425781c.472657 0 .855469-.386719.855469-.859375s-.382812-.855469-.855469-.855469c-.003906 0-.007812 0-.007812 0 .003906-.046875.007812-.09375.007812-.140625 0-.710937-.574218-1.285156-1.285156-1.285156zm0 0" fill="#e8f3f2"/></svg>