<svg height="12pt" viewBox="0 0 12 12" width="12pt" xmlns="http://www.w3.org/2000/svg" xmlns:xlink="http://www.w3.org/1999/xlink"><filter id="a" height="100%" width="100%" x="0%" y="0%"><feColorMatrix in="SourceGraphic" type="matrix" values="0 0 0 0 1 0 0 0 0 1 0 0 0 0 1 0 0 0 1 0"/></filter><mask id="b"><g filter="url(#a)"><path d="m0 0h12v12h-12z" fill-opacity=".501961"/></g></mask><clipPath id="c"><path d="m0 0h12v12h-12z"/></clipPath><path d="m2.800781.710938h6.398438c1.152343 0 2.089843.9375 2.089843 2.089843v6.398438c0 1.152343-.9375 2.089843-2.089843 2.089843h-6.398438c-1.152343 0-2.089843-.9375-2.089843-2.089843v-6.398438c0-1.152343.9375-2.089843 2.089843-2.089843zm0 0" fill="#5d5544" fill-rule="evenodd"/><path d="m2.796875 2.492188v.375h-.1875c-.308594 0-.5625.253906-.5625.5625 0 .3125.253906.5625.5625.5625h.1875v.375h-.714844c.078125.21875.285157.375.527344.375h.1875v.375h.375v-.375h.1875c.3125 0 .5625-.25.5625-.5625 0-.308594-.25-.5625-.5625-.5625h-.1875v-.375h.71875c-.078125-.21875-.285156-.375-.53125-.375h-.1875v-.375zm-.1875.75h.1875v.375h-.1875c-.101563 0-.1875-.082032-.1875-.1875 0-.101563.085937-.1875.1875-.1875zm.5625.75h.1875c.105469 0 .1875.085937.1875.1875 0 .105468-.082031.195312-.1875.1875h-.1875zm0 0" fill="#ffbe23"/><g clip-path="url(#c)" mask="url(#b)"><path d="m4.671875 2.492188h1.875v2.625h-1.875zm0 0" fill="#ffbe23"/></g></svg>