<svg height="12pt" viewBox="0 0 12 12" width="12pt" xmlns="http://www.w3.org/2000/svg"><path d="m2.800781.710938h6.398438c1.152343 0 2.089843.9375 2.089843 2.089843v6.398438c0 1.152343-.9375 2.089843-2.089843 2.089843h-6.398438c-1.152343 0-2.089843-.9375-2.089843-2.089843v-6.398438c0-1.152343.9375-2.089843 2.089843-2.089843zm0 0" fill="#7ec242" fill-rule="evenodd"/><g fill="#fff"><path d="m1.125 3.1875v1.125h.75v3.375h1.5v-3.375h.75v-1.125zm0 0"/><path d="m9 3.1875h-1.125l.894531 2.230469-.894531 2.269531h1.125l.375-1.125.375 1.125h1.125l-.894531-2.269531.894531-2.230469h-1.125l-.375 1.125zm0 0"/><path d="m4.5 4.3125v4.5h3v-1.125h-1.875v-.75h1.875v-.75h-1.875v-.75h1.875v-1.125zm0 0"/></g></svg>