<svg height="12pt" viewBox="0 0 12 12" width="12pt" xmlns="http://www.w3.org/2000/svg"><path d="m2.800781.710938h6.398438c1.152343 0 2.089843.9375 2.089843 2.089843v6.398438c0 1.152343-.9375 2.089843-2.089843 2.089843h-6.398438c-1.152343 0-2.089843-.9375-2.089843-2.089843v-6.398438c0-1.152343.9375-2.089843 2.089843-2.089843zm0 0" fill="#258dcb" fill-rule="evenodd"/><path d="m6.640625 2.175781-1.125 1.582031c-.328125.113282-.632813.28125-.90625.496094-1.117187-.265625-2.304687.625-2.304687.625l1.152343 2.363282c.261719 1.492187 1.566407 2.582031 3.09375 2.582031 1.734375 0 3.144531-1.398438 3.144531-3.121094-.003906-.984375-.46875-1.90625-1.261718-2.496094-.191406-1.304687-1.792969-2.03125-1.792969-2.03125zm0 0" fill="#50beee"/><g fill="#fff"><path d="m3.136719 5.078125c-.09375 0-.195313.007813-.300781.03125 0 0 .660156.074219.988281.519531-.136719.585938-.320313 1.03125-.320313 1.03125l.648438-1.132812s-.355469-.457032-1.015625-.449219zm0 0"/><path d="m6.527344 2.703125-.527344 1.054687.320312-.105468s.164063-.4375.207032-.949219zm0 0"/><path d="m5.128906 6.859375c-.175781.183594-.230468.445313-.144531.683594.125.34375.503906.519531.84375.394531.34375-.125.519531-.503906.394531-.847656-.085937-.234375-.296875-.402344-.546875-.429688v.042969l-.035156.71875-.484375-.527344zm0 0"/><path d="m7.238281 5.804688c-.171875.179687-.230469.445312-.144531.683593.125.34375.503906.519531.847656.394531.339844-.125.519532-.503906.394532-.847656-.085938-.238281-.300782-.402344-.546876-.429687l-.003906.042969-.03125.714843-.484375-.527343zm0 0"/><path d="m8.1875 7.714844c-.007812 0-.011719 0-.019531 0-.050781.003906-.09375.03125-.128907.070312-.078124.097656-.234374.117188-.40625.09375-.148437-.023437-.265624-.070312-.289062-.082031-.027344-.015625-.058594-.027344-.089844-.027344-.054687 0-.109375.019531-.144531.0625-.039063.042969-.058594.101563-.054687.164063-.011719.046875-.03125.15625-.085938.289062-.070312.171875-.167969.308594-.285156.332032-.105469.023437-.171875.132812-.152344.246093s.117188.1875.222656.167969c.304688-.0625.472656-.347656.5625-.574219.03125-.074219.050782-.144531.070313-.207031.058593.015625.121093.03125.195312.042969.226563.035156.53125.027343.742188-.226563.050781-.058594.066406-.148437.035156-.222656-.03125-.078125-.097656-.128906-.171875-.128906zm0 0"/></g></svg>