<svg height="32" width="32" xmlns="http://www.w3.org/2000/svg"><rect fill="#5f7c8a" fill-rule="evenodd" height="28.203388" ry="5.575182" width="28.203388" x="1.898306" y="1.898306"/><path d="m13.793908 5.2242849c-.228463.024862-.429701.2117906-.471459.437775l-.454609 2.3067203c-.816142.319175-1.583176.757705-2.256226 1.296529l-2.238984-.757719c-.232651-.08022-.514833.02371-.639829.235729l-2.155238 3.7379518c-.121401.214985-.06935.512508.117861.673504l1.784768 1.565857c-.06281.419864-.101027.842314-.101027 1.279673 0 .437375.03818.859786.101027 1.279672l-1.784768 1.565935c-.18719.160996-.239262.458519-.117861.673504l2.155238 3.737952c.124996.211983.407178.315943.639829.235722l2.239369-.75769c.673058.538787 1.440084.977324 2.256226 1.29653l.454609 2.30672c.04611.241464.276171.434427.521968.437775h4.310399c.245797-.0031.475876-.196311.52196-.437775l.454617-2.30672c.816142-.319175 1.583176-.757712 2.256226-1.29653l2.239369.75769c.232643.08022.514833-.02371.639829-.235722l2.155238-3.737952c.121394-.214985.06935-.512508-.117861-.673504l-1.784768-1.565935c.06281-.419863.101019-.842236.101019-1.279672 0-.437375-.03825-.859786-.101019-1.279673l1.784768-1.565857c.18719-.160996.239255-.458519.117861-.673504l-2.155238-3.7379518c-.124996-.211983-.407186-.31595-.639829-.235729l-2.239369.757689c-.673512-.539194-1.440931-.977708-2.256842-1.296915l-.454617-2.3067199c-.04611-.2414637-.276163-.4344344-.52196-.4377751h-4.310399c-.01686-.0003925-.03371-.0003925-.05049 0z" fill="#fff"/><path d="m11.381633 12.098051v3.078912h3.078912v6.157822h3.078911v-6.157822h3.078911v-3.078912z" fill="#5f7c8a"/></svg>