<svg height="12pt" viewBox="0 0 12 12" width="12pt" xmlns="http://www.w3.org/2000/svg"><path d="m2.800781.710938h6.398438c1.152343 0 2.089843.9375 2.089843 2.089843v6.398438c0 1.152343-.9375 2.089843-2.089843 2.089843h-6.398438c-1.152343 0-2.089843-.9375-2.089843-2.089843v-6.398438c0-1.152343.9375-2.089843 2.089843-2.089843zm0 0" fill="#243a85" fill-rule="evenodd"/><path d="m6.148438 9.386719c-.871094-.113281-1.703126-.371094-2.203126-.804688-.144531-.121093-.425781-.417969-.402343-.425781.082031.015625.25.089844.417969.09375.164062.007812.25-.167969.332031-.300781v-1.402344c0-1.542969.035156-1.515625-.074219-1.609375-.132812-.117188-.523438-.082031-.789062.097656-.402344.269532-.878907.867188-1.222657 1.488282-.058593.109374-.113281.207031-.121093.210937-.003907.007813-.007813-.113281 0-.265625.011718-.421875.089843-.714844.304687-1.148438.195313-.394531.292969-.503906.707031-.957031.691406-.75 1.371094-1.269531 2.046875-1.558593.160157-.066407.652344-.199219.6875-.199219.003907 0-.234375.140625-.289062.179687-.335938.246094-.449219.414063-.496094.710938-.039063.21875.085937.488281.183594.597656.050781.054688.070312.0625.136719.070312.097656-.007812.328124-.050781.425781-.058593v3.488281c0 .261719.113281.277344.375.277344s.488281-.199219.75-.367188v-2.9375l-.09375-.335937c-.039063-.140625-.140625-.304688-.28125-.5.269531.007812.441406.328125.675781.414062.683594-.542969 1.167969-.984375 1.949219-1.164062-.339844.539062-.386719.769531-.75 1.292969v3.140624c.039062.042969.234375.101563.324219.109376.617187-.089844.765624-.4375 1.175781-.792969.011719.011719-.316407.636719-.457031.84375-.425782.640625-1.039063 1.035156-1.605469 1.398437-.105469.066406-.105469.066406-.140625.035156-.269532-.121093-.421875-.1875-.734375-.421874-.300781.289062-.449219.5-.765625.808593-.011719-.003906-.039063-.007812-.066406-.007812zm0 0" fill="#fff"/></svg>