<svg height="12pt" viewBox="0 0 12 12" width="12pt" xmlns="http://www.w3.org/2000/svg"><g fill-rule="evenodd"><path d="m2.800781.710938h6.398438c1.152343 0 2.089843.9375 2.089843 2.089843v6.398438c0 1.152343-.9375 2.089843-2.089843 2.089843h-6.398438c-1.152343 0-2.089843-.9375-2.089843-2.089843v-6.398438c0-1.152343.9375-2.089843 2.089843-2.089843zm0 0" fill="#8e8e8e"/><path d="m10.175781 6.183594h-8.351562l4.175781-4.550782zm0 0" fill="#f9f9f9"/><path d="m4.453125 10.117188v-4.550782c0-.140625.179687-.25.398437-.25h2.371094c.21875 0 .398438.109375.398438.25v4.550782c0 .136718-.179688.25-.398438.25h-2.371094c-.21875 0-.398437-.113282-.398437-.25zm0 0" fill="#f9f9f9"/></g></svg>