<svg height="12pt" viewBox="0 0 12 12" width="12pt" xmlns="http://www.w3.org/2000/svg"><path d="m2.800781.710938h6.398438c1.152343 0 2.089843.9375 2.089843 2.089843v6.398438c0 1.152343-.9375 2.089843-2.089843 2.089843h-6.398438c-1.152343 0-2.089843-.9375-2.089843-2.089843v-6.398438c0-1.152343.9375-2.089843 2.089843-2.089843zm0 0" fill="#7cca3e" fill-rule="evenodd"/><path d="m1.875 4.171875v2.777344c0 .046875.007812.09375.019531.140625 0 0 .082031.320312.332031.613281.246094.296875.714844.59375 1.335938.59375s1.089844-.296875 1.335938-.59375c.25-.292969.332031-.613281.332031-.613281.011719-.046875.019531-.09375.019531-.140625v-1.03125c.148438.164062.136719.171875.300781.351562.109375.113281.230469.207031.339844.320313 0 .011718-.003906.023437-.007813.03125-.25 1.273437-.257812 2.902344-.257812 3.175781h1.125c0-.183594.082031-1.117187.175781-1.945313.3125.230469.621094.429688 1.039063.445313.644531.023437 1.214844-.21875 1.59375-.613281.375-.394532.566406-.917969.566406-1.449219 0-1.125-.9375-2.0625-2.0625-2.0625-1.339844.015625-1.445312.933594-1.796875 1.203125-.472656-.519531-.855469-1.003906-1.015625-1.203125h-1.125v.5625 2.101563c-.007812.019531-.015625.0625-.085938.140624-.082031.101563-.179687.195313-.476562.195313s-.394531-.09375-.476562-.195313c-.070313-.078124-.078126-.121093-.085938-.140624v-2.664063zm6.1875 1.125c.449219 0 .9375.488281.9375.9375 0 .257813-.09375.503906-.257812.671875-.160157.167969-.375.28125-.734376.265625.019532.003906-.289062-.109375-.609374-.363281-.066407-.054688-.144532-.140625-.214844-.203125.09375-.308594.167968-.660157.292968-.863281.203126-.335938.359376-.445313.585938-.445313zm0 0" fill="#fff" fill-rule="evenodd"/></svg>