<svg height="12pt" viewBox="0 0 12 12" width="12pt" xmlns="http://www.w3.org/2000/svg"><path d="m2.800781.710938h6.398438c1.152343 0 2.089843.9375 2.089843 2.089843v6.398438c0 1.152343-.9375 2.089843-2.089843 2.089843h-6.398438c-1.152343 0-2.089843-.9375-2.089843-2.089843v-6.398438c0-1.152343.9375-2.089843 2.089843-2.089843zm0 0" fill="#8e8e8e" fill-rule="evenodd"/><path d="m3.410156 2.773438c-.679687 0-1.226562.546874-1.226562 1.230468v3.257813c0 .679687.546875 1.226562 1.226562 1.226562h.664063c.054687.417969.40625.738281.839843.738281h2.171876c.433593 0 .785156-.320312.839843-.738281h.664063c.679687 0 1.226562-.546875 1.226562-1.226562v-3.257813c0-.683594-.546875-1.230468-1.226562-1.230468zm0 0" fill="#474747"/><path d="m3.457031 3.136719h5.085938c.515625 0 .929687.398437.929687.890625v3.207031c0 .492187-.414062.894531-.929687.894531h-5.085938c-.515625 0-.929687-.402344-.929687-.894531v-3.207031c0-.492188.414062-.890625.929687-.890625zm0 0" fill="#232323"/><path d="m7.238281 4.511719c-.308593 0-.558593.25-.558593.558593 0 .308594.25.558594.558593.558594.308594 0 .558594-.25.558594-.558594 0-.308593-.25-.558593-.558594-.558593zm0 0" fill="#c0ca33"/><path d="m4.773438 6.335938c-.613282 0-1.226563.445312-1.226563 1.574218v.207032h4.910156s-.410156-1.335938-1.023437-1.335938c-.613282 0-.613282.667969-1.023438.667969s-1.023437-1.113281-1.636718-1.113281zm0 0" fill="#c0ca33"/></svg>