<svg height="32" width="32" xmlns="http://www.w3.org/2000/svg"><path d="m7.4725768 1.8983064c-3.0886797 0-5.5742708 2.4855911-5.5742708 5.5742706v17.052893c0 3.088679 2.4855911 5.576224 5.5742708 5.576224h8.4219532v-7.580149c0-.772169.154177-1.506389.435551-2.173848.281375-.66746.68951-1.26764 1.19337-1.771502.503862-.50386 1.104042-.911995 1.771502-1.19337.667459-.281374 1.401679-.435551 2.173848-.435551h8.632893v-9.474697c-.000001-3.0886795-2.487545-5.5742706-5.576224-5.5742706z" fill="#642c68" fill-rule="evenodd"/><g fill="#fff" stroke-width="1.140018" transform="matrix(.87720932 0 0 .87714863 1.964651 1.965622)"><path d="m4 4v3h3v-3zm21 0v3h3v-3zm-21 7v3h3v-3zm21 0v3h3v-3zm-21 7v3h3v-3zm21 0v3h3v-3zm-21 7v3h3v-3zm21 0v3h3v-3z"/><path d="m9 5h14v9h-14z"/><path d="m9 18h14v9h-14z"/></g><path d="m30.101694 16.947274h-8.632893c-.772169 0-1.506389.154177-2.173848.435551-.66746.281375-1.26764.68951-1.771502 1.19337-.50386.503862-.911995 1.104042-1.19337 1.771502-.281374.667459-.435551 1.401679-.435551 2.173848v7.580149h8.63094c3.088679 0 5.576224-2.487545 5.576224-5.576224z" fill="#64bc68" fill-rule="evenodd"/><path d="m20.658595 19.591272c-.849016 0-1.538028.688965-1.538028 1.537922 0 .849627.688803 1.538422 1.538527 1.538422.274516 0 .52689-.08554.750014-.21153l1.212025 1.134943-1.211524 1.134542c-.223124-.125983-.475498-.211529-.750014-.211529-.849015 0-1.538028.688966-1.538028 1.538923 0 .848957.689013 1.537922 1.538028 1.537922.849686 0 1.53853-.688755 1.53853-1.538422 0-.141014-.02215-.274087-.05766-.40383l1.307724-1.269136 2.750052 2.596068h.923097v-.615348l-4.980893-4.826655c.03557-.129745.05766-.262808.05766-.40383 0-.849957-.689014-1.538922-1.53903-1.538922zm0 .923033c.339867 0 .615392.275506.615392.615349 0 .339842-.275525.615349-.615392.615349s-.61539-.275507-.61539-.615349c0-.339843.275523-.615349.61539-.615349zm5.538603-.307675-2.423146 2.288385.807706.78842 2.538547-2.461376v-.615349zm-5.538603 5.230536c.339867 0 .615392.275506.615392.615349 0 .339842-.275525.615348-.615392.615348s-.61539-.275506-.61539-.615348c0-.339843.275523-.615349.61539-.615349z" fill="#fff"/></svg>