<svg height="12pt" viewBox="0 0 12 12" width="12pt" xmlns="http://www.w3.org/2000/svg"><path d="m2.800781.710938h6.398438c1.152343 0 2.089843.9375 2.089843 2.089843v6.398438c0 1.152343-.9375 2.089843-2.089843 2.089843h-6.398438c-1.152343 0-2.089843-.9375-2.089843-2.089843v-6.398438c0-1.152343.9375-2.089843 2.089843-2.089843zm0 0" fill="#4f4f4f" fill-rule="evenodd"/><path d="m4.953125 9.640625c-.660156-.164063-1.226563-.5-1.804687-1.074219-.453126-.453125-.523438-.554687-.703126-1.007812-.175781-.453125-.195312-.566406-.195312-1.070313.003906-.800781.160156-1.285156.609375-1.882812.421875-.558594.613281-.714844 1.285156-1.042969.472657-.234375.777344-.324219 1.441407-.425781.269531-.042969.277343-.136719.027343-.3125-.320312-.222657-.664062-.535157-.628906-.570313.039063-.039062 1.300781.398438 1.882813.648438.734374.320312 1.640624.949218 2.054687 1.421875.164063.1875.238281.382812.148437.382812-.042968 0-.574218-.238281-1.113281-.503906-.222656-.109375-.433593-.183594-.464843-.164063-.035157.019532.003906.066407.085937.101563.078125.03125.15625.078125.171875.101563.015625.019531.140625.070312.277344.113281.140625.042969.253906.097656.253906.125 0 .027343.03125.050781.070312.054687.042969 0 .207032.066406.367188.140625l.289062.140625-.230468.0625c-.359375.101563-.515625.082032-1.179688-.140625-.78125-.261719-1.570312-.328125-2.285156-.183593-.703125.140624-.765625.246093-.417969.707031.269531.355469.539063.441406.941407.304687.167968-.058594.339843-.078125.433593-.054687.140625.039062.144531.046875.039063.085937-.109375.039063-.105469.050782.058594.136719.117187.066406.140624.097656.070312.097656-.109375.003907-.136719.09375-.042969.152344.113281.070313.0625.15625-.066406.117187-.101563-.035156-.121094-.023437-.089844.058594.03125.078125.011719.089844-.078125.0625s-.117187-.011718-.121094.070313c0 .082031-.039062.0625-.164062-.09375-.15625-.1875-.1875-.199219-.71875-.253907-.65625-.0625-.832031-.125-1.03125-.359374l-.144531-.175782-.160157.34375c-.203124.453125-.25 1.121094-.109374 1.550782.320312.96875.992187 1.378906 1.675781 1.027343.46875-.238281.597656-.683593.324219-1.082031-.160157-.230469-.160157-.484375 0-.351562.09375.078124.152343.027343.15625-.136719.003906-.113281.011718-.109375.066406.023437l.058594.148438.089843-.132813c.113281-.164062.195313-.171875.152344-.015625-.035156.136719.039063.15625.15625.046875.0625-.0625.070313-.050781.035156.0625-.039062.125-.027343.136719.097657.101563.117187-.035156.109374-.015625-.0625.132812l-.199219.171875.085937 1.304688-.179687.152343c-.179688.152344-.179688.152344-.046875.1875.191406.046876 1.015625-.054687 1.363281-.171874.585937-.195313 1.277344-.722657 1.5625-1.191407.359375-.585937.5625-1.726562.386719-2.207031-.070313-.203125-.074219-.25-.011719-.25.160156 0 .324219.648438.328125 1.277344.003906.777344-.28125 1.503906-.824219 2.121094-.859375.96875-2.601562 1.460937-3.972656 1.117187zm0 0" fill="#fecd38"/></svg>