<svg height="32" width="32" xmlns="http://www.w3.org/2000/svg"><g fill-rule="evenodd" transform=""><path d="m9.7070312 30.101562 6.2929688-14.101562-14.1015625-6.2929688v14.8203128c0 3.088651 2.485568 5.574219 5.5742187 5.574218z" fill="#a0002f"/><path d="m30.101562 22.292969-14.101562-6.292969-6.2929688 14.101562h14.8203128c3.088651.000001 5.57422-2.485567 5.574218-5.574218z" fill="#c3283a"/><path d="m22.292969 1.8984375-6.292969 14.1015625 14.101562 6.292969v-14.8203128c.000001-3.0886507-2.485567-5.5742187-5.574218-5.5742187z" fill="#a0002f"/><path d="m1.8984375 9.7070312 14.1015625 6.2929688 6.292969-14.1015625h-14.8203128c-3.0886508 0-5.5742187 2.4855679-5.5742187 5.5742187z" fill="#c3283a"/></g><g transform="translate(.268141 .36308)"><path d="m12.062881 25.881848c.0435-.04627.187027-.140879.319023-.210244.228396-.120016.267002-.128476.798871-.175025.678927-.05946 1.215794-.160554 1.456242-.274304.362877-.171673.577551-.481282.693413-1.000063.05166-.231391.06398-.491302.07567-1.601086.01436-1.362025-.0368-3.277358-.09547-3.571756-.06274-.315011-.112904-.3742-.666684-.786725-.598341-.445718-1.31798-1.137058-1.638767-1.574327-.579321-.789667-.902192-1.598318-1.065901-2.669661-.0446-.292017-.0607-.607244-.0607-1.191278.000029-1.310368.120606-2.156257.684188-4.7996431.204013-.9568767.264276-1.1630046.376036-1.2862353l.07047-.077692h2.715817 2.715817l.07207.077692c.102732.1107204.156356.3007864.392119 1.3898246.645538 2.9818668.796509 4.4637938.599375 5.8833438-.248777 1.791471-1.08135 3.067983-2.839469 4.353532-.214208.156632-.410432.325864-.436052.376074-.0893.174992-.126888.474842-.159622 1.273287-.04693 1.144863-.04831 3.520819-.0022 3.878507.103271.801712.330982 1.169121.850696 1.372632.225757.0884.704934.169247 1.359865.22943.488853.04489.552745.05888.777628.170034.134751.0666.282363.160852.328016.209449l.08301.08835h-3.741254-3.74126z" fill="#fff"/><path d="m12.390743 13.316135c-.183291 5.209867 6.291668 6.528956 6.775108.0024-1.498781 2.161719-5.138984-2.008781-6.775108-.0024z" fill="#bb002f"/></g><g stroke-width="1.6" transform="matrix(.625 0 0 .625 7.922872 7.639184)"><circle cx="23" cy="23" fill="#fa6257" r="8" stroke-width="2.56"/><path d="m23 26.292-3.09 1.708.59-3.618-2.5-2.562 3.455-.528 1.545-3.292 1.545 3.292 3.455.528-2.5 2.562.59 3.618z" fill="#fff" stroke-width="2.56"/></g></svg>