<svg height="12pt" viewBox="0 0 12 12" width="12pt" xmlns="http://www.w3.org/2000/svg"><path d="m2.800781.710938h6.398438c1.152343 0 2.089843.9375 2.089843 2.089843v6.398438c0 1.152343-.9375 2.089843-2.089843 2.089843h-6.398438c-1.152343 0-2.089843-.9375-2.089843-2.089843v-6.398438c0-1.152343.9375-2.089843 2.089843-2.089843zm0 0" fill="#41a5c7" fill-rule="evenodd"/><path d="m7.5 2.625-.75 3-.375-1.5-1.875.375-.5625 1.5-.5625-2.25-1.5.375 1.125 4.527344 1.5.234375.75-1.011719.363281 1.136719 2.261719.363281 2.25-6.375zm0 0" fill="#fff"/></svg>