<svg height="12pt" viewBox="0 0 12 12" width="12pt" xmlns="http://www.w3.org/2000/svg"><g fill-rule="evenodd"><g fill="#4269b0"><path d="m4.640625 3.992188c-.308594-.019532-.40625.003906-.40625.09375 0 .039062-.027344.113281-.054687.171874-.050782.097657-.050782.101563.027343.113282.082031.011718.128907.03125.148438.085937.023437.058594.019531.152344.007812.316407-.011719.171874-.03125.503906-.042969.742187-.007812.238281-.023437.507813-.035156.597656-.011718.089844-.035156.449219-.054687.796875-.015625.347656-.042969.699219-.054688.785156-.023437.148438-.023437.152344.082031.152344.054688 0 .15625.015625.222657.035156.097656.027344.128906.023438.179687-.03125.070313-.074218.050782-.042968.570313-.796874.214843-.308594.457031-.65625.535156-.769532.082031-.113281.230469-.320312.328125-.460937.097656-.136719.1875-.253907.203125-.253907.011719 0 .023437.566407.019531 1.257813l-.003906 1.253906.179688.023438c.101562.011719.207031.023437.242187.027343.035156.003907.160156-.144531.34375-.414062.15625-.230469.320313-.46875.367187-.53125.097657-.132812.613282-.875.996094-1.433594.714844-1.039062.664063-.976562.804688-.976562.066406 0 .128906-.023438.136718-.046875.007813-.023438.035157-.117188.058594-.203125.039063-.121094.039063-.160156.003906-.183594-.050781-.03125-1.234374-.113281-1.273437-.089844-.027344.015625-.140625.347656-.140625.410156 0 .023438.074219.039063.179688.039063.097656 0 .179687.011719.179687.023437 0 .015626-.058594.117188-.128906.226563-.074219.113281-.316407.488281-.542969.835937-.226562.347657-.425781.652344-.449219.675782-.070312.082031-.117187.050781-.09375-.058594.011719-.0625.03125-.277344.042969-.480469.011719-.207031.023438-.460937.03125-.570312.058594-.882813.0625-1.148438.03125-1.171875-.019531-.011719-.175781-.03125-.347656-.046875l-.308594-.023438-.265625.414063c-.148437.226562-.46875.730468-.71875 1.125-.246094.390625-.472656.710937-.5.710937-.039063.003907-.046875-.058593-.027344-.332031.011719-.183594.03125-.554688.042969-.820312.015625-.378907.019531-.558594.050781-.644532.03125-.085937.089844-.082031.210938-.085937l.203125-.011719.066406-.179688c.035156-.101562.0625-.191406.0625-.203124 0-.011719-.1875-.035157-.421875-.046876-.234375-.015624-.542969-.035156-.6875-.046874zm0 0"/><path d="m9.378906 11.25c-.242187-.027344-.421875-.050781-1.222656-.144531-1.34375-.160157-1.53125-.183594-1.824219-.21875-.691406-.085938-1.636719-.195313-2.027343-.238281-.109376-.007813-.296876-.03125-.414063-.050782-.121094-.015625-.226563-.019531-.242187-.007812-.011719.015625-.042969.148437-.0625.296875-.019532.148437-.046876.324219-.0625.386719 0 .015624.011718.003906.011718.015624h5.664063c.0625 0 .117187-.03125.179687-.039062zm0 0"/><path d="m11.207031 9.613281c-.085937-.011719-.160156-.019531-.25-.027343-.207031-.023438-.5-.054688-.648437-.074219-.148438-.015625-.441406-.050781-.652344-.070313-.207031-.023437-.597656-.0625-.867188-.09375-.269531-.03125-.714843-.078125-.992187-.105468-.820313-.089844-.863281-.09375-.996094-.109376-.070312-.011718-.222656-.027343-.34375-.039062-.121093-.007812-.355469-.035156-.523437-.054688-.171875-.015624-.472656-.046874-.667969-.070312-.199219-.019531-.445313-.042969-.542969-.054688-.59375-.0625-.78125-.074218-.8125-.035156-.015625.019532-.039062.125-.050781.234375s-.035156.273438-.050781.367188l-.03125.167969.199218.023437c.113282.011719.375.046875.582032.074219.207031.03125.519531.074218.6875.09375.167968.019531.4375.050781.597656.070312.15625.019532.425781.050782.59375.070313.171875.019531.640625.074219 1.050781.125.40625.054687 1.007813.128906 1.335938.167969 1.085937.128906 1.210937.144531 1.464843.179687.113282.015625.320313.039063.5.058594.210938-.257813.347657-.5625.417969-.898438zm0 0"/><path d="m11.289062 7.898438c-.035156-.003907-.070312-.007813-.113281-.015626-1.582031-.15625-1.558593-.15625-1.589843-.035156-.015626.050782-.035157.222656-.050782.382813l-.023437.292969.261719.027343c.144531.011719.320312.03125.390624.039063.070313.007812.296876.03125.503907.054687.210937.023438.46875.054688.578125.070313.011718 0 .03125 0 .042968.003906zm0 0"/><path d="m11.289062 6.175781c-.097656-.007812-.191406-.015625-.292968-.027343-.707032-.0625-1.171875-.09375-1.199219-.085938-.027344.015625-.121094.734375-.09375.757812.011719.011719.179687.039063.375.054688.195313.019531.535156.050781.753906.074219.136719.011719.300781.027343.457031.039062zm0 0"/><path d="m11.289062 4.457031c-.207031-.015625-.421874-.027343-.609374-.039062-.320313-.023438-.597657-.042969-.613282-.042969-.09375-.015625-.117187.019531-.136718.246094-.011719.132812-.03125.304687-.042969.375-.011719.082031-.015625.125.042969.148437.0625.023438.183593.03125.421874.046875.203126.011719.492188.035156.636719.054688.085938.011718.195313.015625.300781.023437zm0 0"/></g><path d="m11.289062 3.078125-7.9375-.523437-1.460937 8.507812c.277344.132812.582031.226562.914063.226562h.730468c0-.011718-.011718 0-.011718-.015624.015624-.0625.042968-.238282.0625-.386719.019531-.148438.050781-.28125.0625-.296875.015624-.011719.121093-.007813.242187.007812.117187.019532.304687.042969.414063.050782.390624.042968 1.335937.152343 2.027343.238281.292969.035156.480469.058593 1.824219.21875.800781.09375.980469.117187 1.222656.144531.574219-.050781 1.066406-.320312 1.410156-.738281-.179687-.019531-.386718-.042969-.5-.058594-.253906-.035156-.378906-.050781-1.464843-.179687-.328125-.039063-.929688-.113282-1.335938-.167969-.410156-.050781-.878906-.105469-1.050781-.125-.167969-.019531-.4375-.050781-.59375-.070313-.160156-.019531-.429688-.050781-.597656-.070312-.167969-.019532-.480469-.0625-.6875-.09375-.207032-.027344-.46875-.0625-.582032-.074219l-.199218-.023437.03125-.167969c.015625-.09375.039062-.257813.050781-.367188s.035156-.214843.050781-.234375c.03125-.039062.21875-.027344.8125.035156.097656.011719.34375.035157.542969.054688.195313.023438.496094.054688.667969.070312.167968.019532.402344.046876.523437.054688.121094.011719.273438.027344.34375.039062.132813.015626.175781.019532.996094.109376.277344.027343.722656.074218.992187.105468.269532.03125.660157.070313.867188.09375.210938.019532.503906.054688.652344.070313.148437.019531.441406.050781.648437.074219.089844.007812.164063.015624.25.027343.027344-.140625.082031-.269531.082031-.414062v-.480469c-.011718-.003906-.03125-.003906-.042968-.003906-.109375-.015625-.367188-.046875-.578125-.070313-.207031-.023437-.433594-.046875-.503907-.054687-.070312-.007813-.246093-.027344-.390624-.039063l-.261719-.027343.023437-.292969c.015625-.160157.035156-.332031.050782-.382813.03125-.121094.007812-.121094 1.589843.035156.042969.007813.078125.011719.113281.015626v-.910157c-.15625-.011719-.320312-.027343-.457031-.039062-.21875-.023438-.558593-.054688-.753906-.074219-.195313-.015625-.363281-.042969-.375-.054688-.027344-.023437.066406-.742187.09375-.757812.027344-.007812.492187.023438 1.199219.085938.101562.011718.195312.019531.292968.027343v-.90625c-.105468-.007812-.214843-.011719-.300781-.023437-.144531-.019532-.433593-.042969-.636719-.054688-.238281-.015625-.359374-.023437-.421874-.046875-.058594-.023437-.054688-.066406-.042969-.148437.011719-.070313.03125-.242188.042969-.375.019531-.226563.042968-.261719.136718-.246094.015625 0 .292969.019531.613282.042969.1875.011719.402343.023437.609374.039062zm-6.648437.914063c.144531.011718.453125.03125.6875.042968.234375.015625.421875.039063.421875.050782 0 .011718-.027344.101562-.0625.203124l-.066406.179688-.203125.011719c-.121094.003906-.179688 0-.210938.085937-.03125.085938-.035156.265625-.050781.644532-.011719.265624-.03125.636718-.042969.820312-.019531.273438-.011719.335938.027344.332031.027344 0 .253906-.320312.5-.710937.25-.394532.570313-.898438.71875-1.125l.265625-.414063.308594.023438c.171875.015625.328125.035156.347656.046875.03125.023437.027344.289062-.03125 1.171875-.007812.109375-.019531.363281-.03125.570312-.011719.203125-.03125.417969-.042969.476563-.023437.113281.023438.144531.09375.0625.023438-.023438.222657-.328125.449219-.675782.226562-.347656.46875-.722656.542969-.835937.070312-.109375.128906-.210937.128906-.226563 0-.011718-.082031-.023437-.179687-.023437-.105469 0-.179688-.015625-.179688-.039063 0-.0625.113281-.394531.140625-.410156.039063-.023437 1.222656.058594 1.273437.089844.035157.023438.035157.0625-.003906.183594-.023437.085937-.050781.179687-.058594.203125-.007812.023437-.070312.042969-.136718.042969-.140625 0-.089844-.058594-.804688.980468-.382812.558594-.898437 1.300782-.996094 1.433594-.046874.0625-.210937.300781-.367187.53125-.183594.269531-.308594.417969-.34375.414062-.035156-.003906-.140625-.015624-.242187-.027343l-.179688-.023438.003906-1.253906c.003906-.691406-.007812-1.257813-.019531-1.257813-.015625 0-.105469.117188-.203125.253907-.097656.140625-.246094.347656-.328125.460937-.078125.113282-.320313.460938-.535156.769532-.519531.753906-.5.722656-.570313.796874-.050781.054688-.082031.058594-.179687.03125-.066407-.019531-.167969-.035156-.222657-.035156-.105468 0-.105468-.003906-.082031-.152344.011719-.085937.039063-.4375.054688-.785156.019531-.347656.042969-.707031.054687-.796875.011719-.089843.027344-.359375.035156-.597656.011719-.238281.03125-.570313.042969-.742187.011719-.164063.015625-.257813-.007812-.316407-.019531-.054687-.066407-.074219-.148438-.085937-.078125-.011719-.078125-.015625-.027343-.113282.027343-.058593.054687-.132812.054687-.171874 0-.089844.097656-.113282.40625-.09375zm0 0" fill="#f2f7fa"/><path d="m2.804688.710938c-1.160157 0-2.09375.933593-2.09375 2.09375v6.394531c0 .824219.488281 1.523437 1.179687 1.863281l1.460937-8.507812 7.9375.523437v-.273437c0-1.160157-.933593-2.09375-2.089843-2.09375zm0 0" fill="#4269b0"/></g></svg>