<svg height="32" width="32" xmlns="http://www.w3.org/2000/svg"><g fill-rule="evenodd"><path d="m14.955078 10.779297-4.175781 1.042969-4.1777345 9.398437 9.3984375 4.177735 6.265625-5.220704-1.044922-6.265625z" fill="#fff"/><path d="m30.101562 24.285156c-1.342556-.80463-7.499774-4.087799-7.835937-4.107422l-6.265625 5.220704-.02344-.0098v4.71289h8.550782c3.088651.000001 5.574219-2.485567 5.574218-5.574218z" fill="#c4bea2"/><path d="m29.691406 5.4316406c-1.202706 1.4503712-6.195504 6.2999954-8.470703 8.4804684l1.044922 6.265625 7.835937 4.107422v-16.8124998c.000001-.7249443-.160638-1.4068598-.410156-2.0410156z" fill="#e9e6dd"/><path d="m14.955078 1.8984375v8.8808595l6.265625 3.132812c2.830493-2.78527 5.480284-5.2294941 8.470703-8.4804684-.813562-2.0676872-2.800356-3.5332031-5.164062-3.5332031z" fill="#3d65c8"/><path d="m1.8984375 23.291016v1.236328c0 3.088651 2.485568 5.57422 5.5742187 5.574218h8.5039058v-4.71289l-9.3378901-4.152344z" fill="#b0ab84"/><path d="m1.8984375 23.291016 4.7402344-2.054688-.0371094-.015625 4.1699215-9.378906-8.708984-5.185547c-.0422596.2777883-.1640625.5264285-.1640625.8164062z" fill="#d6d2c0"/><path d="m2.0625 6.65625 8.708984 5.185547.007813-.019531 4.175781-1.042969v-8.8808595h-7.4824218c-2.7986729 0-5.0022941 2.0767838-5.4101562 4.7578125z" fill="#dd5639"/></g></svg>