<svg height="12pt" viewBox="0 0 12 12" width="12pt" xmlns="http://www.w3.org/2000/svg"><path d="m2.800781.710938h6.398438c1.152343 0 2.089843.9375 2.089843 2.089843v6.398438c0 1.152343-.9375 2.089843-2.089843 2.089843h-6.398438c-1.152343 0-2.089843-.9375-2.089843-2.089843v-6.398438c0-1.152343.9375-2.089843 2.089843-2.089843zm0 0" fill="#fff" fill-rule="evenodd"/><g fill="#fa424e"><path d="m5.375 5.269531h1.246094v3.742188h-1.246094zm0 0"/><path d="m8.019531 2.988281.882813.882813-2.644532 2.644531-.882812-.878906zm0 0"/><path d="m3.980469 2.988281-.882813.882813 2.644532 2.644531.882812-.878906zm0 0"/></g></svg>