<svg height="24pt" viewBox="0 0 24 24" width="24pt" xmlns="http://www.w3.org/2000/svg"><path d="m5.605469 1.421875h12.789062c2.308594 0 4.183594 1.875 4.183594 4.183594v12.789062c0 2.308594-1.875 4.183594-4.183594 4.183594h-12.789062c-2.308594 0-4.183594-1.875-4.183594-4.183594v-12.789062c0-2.308594 1.875-4.183594 4.183594-4.183594zm0 0" fill="#355681" fill-rule="evenodd"/><path d="m15.958333 12.994792c0-.859375-.802083-5.5625 4.291667-5.578125 5.880208-.026042 5.604167 8.619791 0 8.583333h-8.583333c-5.791667 0-5.46875 8.541667 0 8.583333 4.677083.036459 4.317708-4.71875 4.291666-5.578125" fill="none" stroke="#fff" stroke-linejoin="round" stroke-width="2.575539" transform="scale(.75)"/></svg>