<svg height="24pt" viewBox="0 0 24 24" width="24pt" xmlns="http://www.w3.org/2000/svg" xmlns:xlink="http://www.w3.org/1999/xlink"><clipPath id="a"><path d="m0 0h24v24h-24z"/></clipPath><path d="m5.605469 1.421875h12.789062c2.308594 0 4.183594 1.875 4.183594 4.183594v12.789062c0 2.308594-1.875 4.183594-4.183594 4.183594h-12.789062c-2.308594 0-4.183594-1.875-4.183594-4.183594v-12.789062c0-2.308594 1.875-4.183594 4.183594-4.183594zm0 0" fill="#745145" fill-rule="evenodd"/><path d="m16.066406 7.980469c.160156.007812.332032 0 .519532.128906 1.679687.722656.554687 2.703125-1.585938 4.207031-.011719-.285156-.128906-.902344-.125-1.175781 1.824219-1.25 2.890625-2.464844 1.726562-2.949219-1.226562-.507812-1.605468.882813-1.625 2.898438-.117187.117187-.90625.640625-1.027343.726562.042969-1.839844 1.023437-3.714844 1.960937-3.824218.050782-.007813.105469-.007813.15625-.007813m-1.707031 3.195313.382813-.148438.316406.214844.0625.671875-.398438.304687-.164062.222656c-1.230469.816407-2.28125 1.445313-3.660156 1.964844l-.859376.128906h-.5625c-.523437-.308593-.210937-.425781-2.109374-.664062l2.136718.164062c1.648438-.636718 3.328125-1.554687 4.859375-2.554687m-3.761719 2.675781c-.246093 0-2.171874-.167968-2.9375-.238281-.761718-.117187-1.691406-.15625-1.515624.734375-.203126-.476562.257812-1.277344.90625-1.417969 1.007812-.226562 2.601562.390625 3.175781.578125m-.925781.246094c.300781.117188.984374.203125 1.308593.3125-.460937.234375-2.757812 1.082031-3.707031.90625-.148438 0-.789062-.460938-.804688-.792969.046876.605469 2.855469.152344 3.203126-.4375m-.625.011719c.246093-.117188 1.402343-.113281 1.65625-.207031 1.441406.503906 3.382812 1.691406 4.773437 2.488281l.402344.121094c.078125.550781.417969.742187.726562 1.097656l-.46875.472656-.367187-.601562c-1.628906-.980469-4.84375-2.570313-6.71875-3.332032m6.71875 3.332032c.199218.117187.386718.234375.566406.355468.417969 1.183594.90625 1.980469 1.371094 1.945313-.71875.34375-2.265625-1.347656-2.785156-2.9375m2.785156 2.9375c1.09375-.648437-1.222656-1.835937-1.742188-2.179687-.117187-.332032.203125-.878907.097656-1.269532 1.632813 1.015625 2.597657 2.488282 2.050782 3.1875-.132813.164063-.273438.246094-.410156.257813m-1.589844-2.476563c-.078125-.304687-1.085938-1-1.265625-1.105468-.246094-1.921876-.257813-2.113282-.464844-3.605469.125-.121094.886719-.714844 1.003906-.796875.148438 1.597656.421875 3.761718.8125 5.207031" fill="#ff3434"/><g clip-path="url(#a)"><path d="m6.101562 1.421875v9.179687l1.308594-1.3125 1.3125 1.3125v-9.179687zm0 0" fill="#ff3434"/></g></svg>