<svg height="24pt" viewBox="0 0 24 24" width="24pt" xmlns="http://www.w3.org/2000/svg"><path d="m5.605469 1.421875h12.789062c2.308594 0 4.183594 1.875 4.183594 4.183594v12.789062c0 2.308594-1.875 4.183594-4.183594 4.183594h-12.789062c-2.308594 0-4.183594-1.875-4.183594-4.183594v-12.789062c0-2.308594 1.875-4.183594 4.183594-4.183594zm0 0" fill="#4f4f4f" fill-rule="evenodd"/><path d="m5.472656 5.019531c-.566406.578125-.566406 3.347657-.566406 5.101563 0 6.367187 3.6875 8.972656 7.09375 8.972656s7.09375-2.605469 7.09375-8.972656c0-1.734375 0-4.523438-.566406-5.101563-.570313-.578125-4.328125 1.21875-5.464844 2.375h-2.125c-1.136719-1.15625-4.894531-2.953125-5.464844-2.375zm0 0" fill="#fff" fill-rule="evenodd"/><g fill="#4f4f4f"><path d="m13.519531 15.632812c0 .792969-.679687 1.433594-1.519531 1.433594s-1.519531-.640625-1.519531-1.433594c0-.789062 3.039062-.789062 3.039062 0zm0 0"/><path d="m8.960938 8.453125c-1.398438 0-2.535157 1.359375-2.535157 3.039063 0 1.679687 1.136719 3.042968 2.535157 3.042968 1.398437 0 2.53125-1.363281 2.53125-3.042968 0-1.679688-1.132813-3.039063-2.53125-3.039063zm0 1.011719c.839843 0 1.519531.910156 1.519531 2.027344 0 1.121093-.679688 2.027343-1.519531 2.027343-.839844 0-1.519532-.90625-1.519532-2.027343 0-1.117188.679688-2.027344 1.519532-2.027344zm0 0" fill-rule="evenodd"/><path d="m15.039062 8.453125c-1.398437 0-2.53125 1.359375-2.53125 3.039063 0 1.679687 1.132813 3.042968 2.53125 3.042968 1.398438 0 2.535157-1.363281 2.535157-3.042968 0-1.679688-1.136719-3.039063-2.535157-3.039063zm0 1.011719c.839844 0 1.519532.910156 1.519532 2.027344 0 1.121093-.679688 2.027343-1.519532 2.027343-.839843 0-1.519531-.90625-1.519531-2.027343 0-1.117188.679688-2.027344 1.519531-2.027344zm0 0" fill-rule="evenodd"/></g></svg>