<svg height="24pt" viewBox="0 0 24 24" width="24pt" xmlns="http://www.w3.org/2000/svg"><path d="m5.605469 1.421875h12.789062c2.308594 0 4.183594 1.875 4.183594 4.183594v12.789062c0 2.308594-1.875 4.183594-4.183594 4.183594h-12.789062c-2.308594 0-4.183594-1.875-4.183594-4.183594v-12.789062c0-2.308594 1.875-4.183594 4.183594-4.183594zm0 0" fill="#c2352a" fill-rule="evenodd"/><g fill="#fff"><path d="m3.375 9.375v5.25h5.25v-5.25zm.75.75h3v1.5h.75v2.25h-3.75zm.75.75v.75h1.5v-.75zm0 1.5v.75h2.25v-.75zm0 0"/><path d="m15.375 9.375v5.25h5.25v-5.25zm.75.75h3.75v.75h-3v2.25h3v .75h-3.75zm0 0"/><path d="m9.375 9.375v5.25h5.25v-5.25zm.75.75h3v1.5h.75v2.25h-3.75zm.75.75v.75h1.5v-.75zm0 1.5v.75h2.25v-.75zm0 0"/></g></svg>