<svg height="24pt" viewBox="0 0 24 24" width="24pt" xmlns="http://www.w3.org/2000/svg" xmlns:xlink="http://www.w3.org/1999/xlink"><filter id="a" height="100%" width="100%" x="0%" y="0%"><feColorMatrix in="SourceGraphic" type="matrix" values="0 0 0 0 1 0 0 0 0 1 0 0 0 0 1 0 0 0 1 0"/></filter><mask id="b"><g filter="url(#a)"><path d="m0 0h24v24h-24z" fill-opacity=".2"/></g></mask><clipPath id="c"><path d="m0 0h24v24h-24z"/></clipPath><path d="m5.605469 1.421875h12.789062c2.308594 0 4.183594 1.875 4.183594 4.183594v12.789062c0 2.308594-1.875 4.183594-4.183594 4.183594h-12.789062c-2.308594 0-4.183594-1.875-4.183594-4.183594v-12.789062c0-2.308594 1.875-4.183594 4.183594-4.183594zm0 0" fill="#f5ab35" fill-rule="evenodd"/><path d="m12 4.972656c-2.539062 0-4.59375 2.0625-4.59375 4.605469-.011719 1.378906 1.207031 2.582031 1.765625 3.894531.25.585938.707031 1.769532.707031 1.769532h4.242188s.457031-1.183594.707031-1.769532c.558594-1.3125 1.742187-2.53125 1.765625-3.894531 0-2.542969-2.054688-4.605469-4.59375-4.605469zm0 0" fill="#fff"/><path d="m14.121094 15.242188-.707032 3.082031c-.085937.378906-.316406.703125-.707031.703125h-1.414062c-.390625 0-.625-.320313-.707031-.703125l-.707032-3.082031zm0 0" fill="#434343"/><g clip-path="url(#c)" mask="url(#b)"><path d="m10.019531 15.785156.121094.539063h3.722656l.117188-.539063zm.242188 1.082032.117187.539062h3.242188l.121094-.539062zm.242187 1.078124.082032.378907c.011718.058593.035156.109375.054687.164062h2.71875c.019531-.054687.042969-.105469.054687-.164062l.085938-.378907zm0 0" fill="#fff"/></g><path d="m12.8125 6.054688-2.703125 4.324218h1.621094v3.242188l2.703125-4.324219h-1.621094zm0 0" fill="#f5ab35" fill-rule="evenodd"/></svg>