<svg height="24pt" viewBox="0 0 24 24" width="24pt" xmlns="http://www.w3.org/2000/svg" xmlns:xlink="http://www.w3.org/1999/xlink"><clipPath id="a"><path d="m0 0h24v24h-24z"/></clipPath><clipPath id="b"><path d="m0 0h24v24h-24z"/></clipPath><clipPath id="c"><path d="m0 0h24v24h-24z"/></clipPath><path d="m5.605469 1.421875h12.789062c2.308594 0 4.183594 1.875 4.183594 4.183594v12.789062c0 2.308594-1.875 4.183594-4.183594 4.183594h-12.789062c-2.308594 0-4.183594-1.875-4.183594-4.183594v-12.789062c0-2.308594 1.875-4.183594 4.183594-4.183594zm0 0" fill="#5f7c8a" fill-rule="evenodd"/><g clip-path="url(#a)"><path d="m8.648438 5.042969c-.050782-.011719-.101563-.011719-.148438.011719l-1.605469.773437c-.089843.042969-.144531.160156-.117187.257813l.246094.949218c-.121094.128906-.230469.261719-.332032.410156-.101562.148438-.1875.300782-.261718.460938l-.976563.117188c-.097656.011718-.1875.101562-.195313.203124l-.132812 1.777344c-.007812.097656.0625.203125.160156.226563l.941406.265625c.105469.339844.265626.667968.46875.964844l-.382812.890624c-.039062.09375-.007812.214844.078125.273438l1.46875 1c .085937.058594.207031.042969.277344-.027344l.695312-.679687c.351563.078125.714844.109375 1.070313.082031l.585937.777344c.0625.082031.179688.113281.273438.070312l1.601562-.773437c.09375-.046875.144531-.160157.117188-.257813l-.242188-.949218c.117188-.128907.226563-.261719.328125-.410157.105469-.152343.1875-.304687.265625-.460937l.972657-.121094c.101562-.011719.1875-.097656.195312-.199219l.136719-1.777343c.003906-.101563-.066407-.203126-.164063-.226563l-.941406-.261719c-.101562-.34375-.261719-.671875-.464844-.96875l.378906-.890625c.042969-.09375.007813-.214843-.074218-.273437l-1.46875-1c-.007813-.003906-.011719-.007813-.019532-.011719-.082031-.046875-.195312-.027344-.261718.039063l-.691406.679687c-.351563-.082031-.714844-.109375-1.070313-.082031l-.589844-.78125c-.027343-.039063-.074219-.066406-.121093-.078125zm.992187 2.503906c.367187 0 .738281.105469 1.0625.328125.871094.59375 1.09375 1.78125.5 2.648438-.589844.871093-1.777344 1.09375-2.648437.503906-.867188-.59375-1.09375-1.78125-.5-2.648438.371093-.546875.972656-.835937 1.585937-.832031zm0 0" fill="#fff"/></g><g clip-path="url(#b)"><path d="m15.84375 10.527344c-.070312-.003906-.144531.039062-.167969.109375l-.253906.679687c-.265625.054688-.523437.148438-.753906.277344l-.644531-.347656c-.066407-.035156-.15625-.019532-.207032.039062l-.847656 1.027344c-.046875.058594-.046875.152344 0 .210938l.464844.566406c-.042969.125-.074219.253906-.097656.386718-.023438.132813-.03125.261719-.035157.394532l-.625.382812c-.0625.042969-.09375.128906-.070312.203125l.464843 1.246094c.027344.070313.105469.117187.183594.105469l.71875-.117188c.175782.199219.386719.371094.621094.511719l.019531.726563c0 .074218.0625.144531.136719.160156l1.308594.222656c.078125.011719.15625-.035156.183594-.109375l.257812-.675781c.265625-.054688.519531-.148438.753906-.28125l.640625.347656c.066407.035156.160157.019531.207031-.039062l.847657-1.027344c.050781-.058594.046875-.152344 0-.210938l-.460938-.570312c.039063-.121094.070313-.25.09375-.382813.023438-.132812.035157-.261719.035157-.394531l.625-.382812c.066406-.039063.097656-.128907.070312-.199219l-.464844-1.25c-.023437-.070313-.105468-.117188-.179687-.105469l-.722657.117188c-.175781-.199219-.386718-.371094-.621093-.511719l-.015625-.726563c-.003906-.074218-.0625-.144531-.136719-.160156l-1.3125-.222656c-.007813 0-.011719 0-.015625 0zm .066406 1.96875c.09375-.003906.191406 0 .285156.019531.777344.128906 1.300782.867187 1.171876 1.640625-.132813.777344-.867188 1.300781-1.644532 1.167969-.777344-.128907-1.300781-.867188-1.167968-1.640625.113281-.679688.691406-1.164063 1.355468-1.1875zm0 0" fill="#fff"/></g><g clip-path="url(#c)"><path d="m9.316406 14.085938c-.050781 0-.097656.03125-.117187.074218l-.175781.46875c-.183594.039063-.359376.105469-.519532.195313l-.445312-.242188c-.046875-.023437-.109375-.011719-.140625.03125l-.585938.707031c-.035156.042969-.035156.105469 0 .144532l.320313.394531c-.03125.085937-.050782.171875-.066406.265625-.015626.089844-.023438.179688-.027344.269531l-.429688.269531c-.042968.027344-.066406.085938-.046875.136719l.320313.859375c.015625.050782.074218.082032.125.074219l.496094-.082031c.125.140625.269531.257812.429687.355468l.011719.5c0 .054688.042968.101563.09375.113282l.90625.152344c.054687.007812.109375-.027344.125-.074219l.179687-.46875c.183594-.039063.359375-.101563.519531-.191407l.445313.238282c.042969.023437.109375.011718.140625-.027344l.585938-.707031c.035156-.042969.035156-.109375 0-.148438l-.320313-.390625c.027344-.085937.050781-.175781.066406-.265625.015625-.09375.023438-.183593.023438-.273437l.433593-.265625c.042969-.027344.066407-.085938.046876-.136719l-.320313-.863281c-.015625-.050781-.074219-.082031-.125-.070313l-.496094.078125c-.125-.136719-.269531-.257812-.429687-.351562l-.011719-.503907c-.003906-.050781-.042969-.097656-.097656-.109374l-.902344-.152344c-.003906 0-.007813 0-.011719-.003906zm.046875 1.359374c.0625 0 .128907.003907.199219.015626.535156.089843.894531.597656.804688 1.132812-.089844.539062-.601563.898438-1.136719.808594-.535157-.09375-.894531-.601563-.804688-1.136719.078125-.46875.476563-.804687.9375-.820313zm0 0" fill="#fff"/></g></svg>