<svg height="24pt" viewBox="0 0 24 24" width="24pt" xmlns="http://www.w3.org/2000/svg" xmlns:xlink="http://www.w3.org/1999/xlink"><clipPath id="a"><path d="m0 0h24v24h-24z"/></clipPath><path d="m5.605469 1.421875h12.789062c2.308594 0 4.183594 1.875 4.183594 4.183594v12.789062c0 2.308594-1.875 4.183594-4.183594 4.183594h-12.789062c-2.308594 0-4.183594-1.875-4.183594-4.183594v-12.789062c0-2.308594 1.875-4.183594 4.183594-4.183594zm0 0" fill="#e74c3c" fill-rule="evenodd"/><g clip-path="url(#a)" fill="#fff" fill-rule="evenodd"><path d="m10.132812 16.101562s-.542968.332032.386719.445313c1.128907.136719 1.703125.117187 2.945313-.132813 0 0 .328125.214844.785156.402344-2.785156 1.257813-6.308594-.070312-4.117188-.714844zm0 0"/><path d="m9.789062 14.457031s-.609374.476563.324219.578125c1.203125.132813 2.15625.140625 3.804688-.191406 0 0 .226562.242188.585937.375-3.371094 1.039062-7.125.082031-4.714844-.761719zm0 0"/><path d="m12.660156 11.671875c.6875.832031-.179687 1.582031-.179687 1.582031s1.746093-.949218.945312-2.136718c-.75-1.105469-1.324219-1.65625 1.78125-3.554688 0 0-4.871093 1.285156-2.546875 4.109375zm0 0"/><path d="m16.347656 17.316406s.402344.347656-.441406.617188c-1.609375.515625-6.695312.667968-8.109375.023437-.507813-.234375.445313-.558593.742187-.625.3125-.070312.492188-.058593.492188-.058593-.566406-.417969-3.652344.824218-1.566406 1.179687 5.679687.96875 10.355468-.4375 8.882812-1.136719zm0 0"/><path d="m10.394531 12.757812s-2.589843.644532-.917969.882813c.707032.097656 2.113282.074219 3.421876-.039063 1.074218-.097656 2.148437-.296874 2.148437-.296874s-.378906.167968-.652344.367187c-2.628906.726563-7.703125.386719-6.242187-.355469 1.234375-.632812 2.242187-.558594 2.242187-.558594zm0 0"/><path d="m15.035156 15.488281c2.671875-1.460937 1.4375-2.867187.574219-2.675781-.210937.046875-.304687.085938-.304687.085938s.078124-.128907.226562-.1875c1.707031-.628907 3.015625 1.863281-.550781 2.851562 0 0 .042969-.039062.054687-.074219zm0 0"/><path d="m13.425781 4.5s1.476563 1.558594-1.402343 3.957031c-2.3125 1.921875-.527344 3.019531-.003907 4.273438-1.347656-1.285157-2.335937-2.414063-1.675781-3.464844.976562-1.542969 3.675781-2.289063 3.082031-4.765625zm0 0"/><path d="m10.65625 19.453125c2.5625.171875 6.5-.097656 6.59375-1.375 0 0-.179688.484375-2.117188.871094-2.191406.433593-4.890624.382812-6.488281.105469 0 0 .328125.285156 2.011719.398437zm0 0"/></g></svg>