<svg height="24pt" viewBox="0 0 24 24" width="24pt" xmlns="http://www.w3.org/2000/svg" xmlns:xlink="http://www.w3.org/1999/xlink"><clipPath id="a"><path d="m0 0h24v24h-24z"/></clipPath><path d="m6.8125 22.574219h11.582031c2.316407 0 4.179688-1.863281 4.179688-4.179688v-12.789062c0-2.316407-1.863281-4.183594-4.179688-4.183594h-11.582031zm0 0" fill="#0095cc" fill-rule="evenodd"/><path d="m6.8125 22.574219v-21.148438h-1.207031c-2.316407 0-4.183594 1.863281-4.183594 4.179688v12.789062c0 2.316407 1.867187 4.179688 4.183594 4.179688zm0 0" fill="#0077a3" fill-rule="evenodd"/><g clip-path="url(#a)"><path d="m14.992188 17.457031-1.5-.058593.058593-1.5 1.5.058593zm1.785156-5.746093-.703125.664062c-.5625.523438-.917969.960938-.960938 2.085938l-1.5-.0625.015625-.375c.03125-.824219.398438-1.558594.960938-2.082032l.96875-.910156c.289062-.257812.46875-.625.484375-1.039062.03125-.824219-.613281-1.523438-1.4375-1.558594-.824219-.03125-1.527344.613281-1.558594 1.4375l-1.5-.058594c.066406-1.65625 1.460937-2.945312 3.117187-2.875 1.65625.066406 2.945313 1.460938 2.878907 3.117188-.027344.660156-.320313 1.246093-.765625 1.65625zm0 0" fill="#fff"/></g></svg>