<svg height="24pt" viewBox="0 0 24 24" width="24pt" xmlns="http://www.w3.org/2000/svg"><path d="m5.605469 1.421875h12.789062c2.308594 0 4.183594 1.875 4.183594 4.183594v12.789062c0 2.308594-1.875 4.183594-4.183594 4.183594h-12.789062c-2.308594 0-4.183594-1.875-4.183594-4.183594v-12.789062c0-2.308594 1.875-4.183594 4.183594-4.183594zm0 0" fill="#4f4f4f" fill-rule="evenodd"/><path d="m5.5 7.125h13c .550781 0 1 .417969 1 .9375v1.875c0 .519531-.449219.9375-1 .9375h-13c-.550781 0-1-.417969-1-.9375v-1.875c0-.519531.449219-.9375 1-.9375zm0 0" fill="#fff"/><path d="m5.5 13.125h13c .550781 0 1 .417969 1 .9375v1.875c0 .519531-.449219.9375-1 .9375h-13c-.550781 0-1-.417969-1-.9375v-1.875c0-.519531.449219-.9375 1-.9375zm0 0" fill="#fff"/><path d="m7.5 9c0 .621094-.503906 1.125-1.125 1.125s-1.125-.503906-1.125-1.125.503906-1.125 1.125-1.125 1.125.503906 1.125 1.125zm0 0" fill="#4fa0ff"/><path d="m7.5 15c0 .621094-.503906 1.125-1.125 1.125s-1.125-.503906-1.125-1.125.503906-1.125 1.125-1.125 1.125.503906 1.125 1.125zm0 0" fill="#ff4f4f"/><path d="m11.25 9c0 .621094-.503906 1.125-1.125 1.125s-1.125-.503906-1.125-1.125.503906-1.125 1.125-1.125 1.125.503906 1.125 1.125zm0 0" fill="#4fa0ff"/><path d="m11.25 15c0 .621094-.503906 1.125-1.125 1.125s-1.125-.503906-1.125-1.125.503906-1.125 1.125-1.125 1.125.503906 1.125 1.125zm0 0" fill="#ff4f4f"/><path d="m15 9c0 .621094-.503906 1.125-1.125 1.125s-1.125-.503906-1.125-1.125.503906-1.125 1.125-1.125 1.125.503906 1.125 1.125zm0 0" fill="#4fa0ff"/><path d="m15 15c0 .621094-.503906 1.125-1.125 1.125s-1.125-.503906-1.125-1.125.503906-1.125 1.125-1.125 1.125.503906 1.125 1.125zm0 0" fill="#ff4f4f"/><path d="m5.605469 1.421875h12.789062c2.308594 0 4.183594 1.875 4.183594 4.183594v12.789062c0 2.308594-1.875 4.183594-4.183594 4.183594h-12.789062c-2.308594 0-4.183594-1.875-4.183594-4.183594v-12.789062c0-2.308594 1.875-4.183594 4.183594-4.183594zm0 0" fill="#4f4f4f" fill-rule="evenodd"/><path d="m5.5 7.125h13c .550781 0 1 .417969 1 .9375v1.875c0 .519531-.449219.9375-1 .9375h-13c-.550781 0-1-.417969-1-.9375v-1.875c0-.519531.449219-.9375 1-.9375zm0 0" fill="#fff"/><path d="m5.5 13.125h13c .550781 0 1 .417969 1 .9375v1.875c0 .519531-.449219.9375-1 .9375h-13c-.550781 0-1-.417969-1-.9375v-1.875c0-.519531.449219-.9375 1-.9375zm0 0" fill="#fff"/><path d="m7.5 9c0 .621094-.503906 1.125-1.125 1.125s-1.125-.503906-1.125-1.125.503906-1.125 1.125-1.125 1.125.503906 1.125 1.125zm0 0" fill="#4fa0ff"/><path d="m7.5 15c0 .621094-.503906 1.125-1.125 1.125s-1.125-.503906-1.125-1.125.503906-1.125 1.125-1.125 1.125.503906 1.125 1.125zm0 0" fill="#ff4f4f"/><path d="m11.25 9c0 .621094-.503906 1.125-1.125 1.125s-1.125-.503906-1.125-1.125.503906-1.125 1.125-1.125 1.125.503906 1.125 1.125zm0 0" fill="#4fa0ff"/><path d="m11.25 15c0 .621094-.503906 1.125-1.125 1.125s-1.125-.503906-1.125-1.125.503906-1.125 1.125-1.125 1.125.503906 1.125 1.125zm0 0" fill="#ff4f4f"/><path d="m15 9c0 .621094-.503906 1.125-1.125 1.125s-1.125-.503906-1.125-1.125.503906-1.125 1.125-1.125 1.125.503906 1.125 1.125zm0 0" fill="#4fa0ff"/><path d="m15 15c0 .621094-.503906 1.125-1.125 1.125s-1.125-.503906-1.125-1.125.503906-1.125 1.125-1.125 1.125.503906 1.125 1.125zm0 0" fill="#ff4f4f"/></svg>