<svg height="24pt" viewBox="0 0 24 24" width="24pt" xmlns="http://www.w3.org/2000/svg"><path d="m22.578125 8.851562h-21.15625v9.542969c0 2.316407 1.867187 4.183594 4.183594 4.183594h12.789062c2.316407 0 4.183594-1.867187 4.183594-4.183594zm0 0" fill="#b3b3b3" fill-rule="evenodd"/><path d="m5.605469 1.425781c-1.8125 0-3.3125 1.152344-3.894531 2.757813-.164063.445312-.285157.917968-.285157 1.421875v3.75h21.148438v-3.75c0-.503907-.121094-.976563-.28125-1.421875-.585938-1.605469-2.085938-2.757813-3.898438-2.757813zm0 0" fill="#4b88e8" fill-rule="evenodd"/><path d="m9 14.039062h6c .414062 0 .75.335938.75.75v.75c0 .414063-.335938.75-.75.75h-6c-.414062 0-.75-.335937-.75-.75v-.75c0-.414062.335938-.75.75-.75zm0 0" fill="#fff"/></svg>