<svg height="24pt" viewBox="0 0 24 24" width="24pt" xmlns="http://www.w3.org/2000/svg" xmlns:xlink="http://www.w3.org/1999/xlink"><clipPath id="a"><path d="m0 0h24v24h-24z"/></clipPath><path d="m5.605469 1.421875h12.789062c2.308594 0 4.183594 1.875 4.183594 4.183594v12.789062c0 2.308594-1.875 4.183594-4.183594 4.183594h-12.789062c-2.308594 0-4.183594-1.875-4.183594-4.183594v-12.789062c0-2.308594 1.875-4.183594 4.183594-4.183594zm0 0" fill="#7572b8" fill-opacity=".992157" fill-rule="evenodd"/><g clip-path="url(#a)"><path d="m7.902344 18.144531s.804687.234375 1.875.367188c.433594.054687 2.085937.242187 3.351562.238281 0 0 1.542969 0 2.390625-.121094.890625-.125 1.394531-.285156 1.675781-.609375.007813-.074219.136719-.324219-.210937-.566406-.882813-.617187-2.027344-.785156-4.25-1.316406-2.457031-.617188-3.1875-1.207031-3.554687-1.636719-.347657-.425781.0625-1.316406 2.042968-1.753906 1.003906-.246094 4.734375-.289063 4.734375-.289063-1.070312-.851562-3.082031-2.375-3.492187-2.695312-.359375-.285157-.941406-.722657-1.003906-1.109375-.082032-.378906.511718-.5625.828124-.582032 1.019532-.070312 2.410157.046876 3.644532.292969.621094.125.730468.105469.730468.105469.882813.042969 1.570313-.421875 1.535157-1.398438-.007813-.988281-.996094-1.78125-2.089844-1.816406-1.03125-.03125-3.574219.148438-3.574219.148438 2.960938.609375 3.445313.765625 3.601563 1.121094.089843.210937-.152344.421874-.96875.378906-.886719-.042969-2.710938-.257813-2.710938-.257813-1.730469-.265625-2.9375-.519531-3.464843.167969-.34375.449219.046874.996094.203124 1.320312.6875 1.199219 1.875 2.023438 2.632813 2.601563.28125.21875 1.148437.703125 1.148437.703125-2.695312-.738281-4.839843-.324219-6.203124.394531-1.566407.925781-1.296876 2.488281 1.1875 3.949219 1.464843.863281 2.195312 1.277344 4.597656 1.574219 1.402344.222656 1.613281.316406 1.601562.433593-.015625.164063-1.660156.226563-2.113281.257813-1.152344.078125-4.128906.097656-4.144531.097656zm0 0" fill="#fff"/></g></svg>