<svg height="24pt" viewBox="0 0 24 24" width="24pt" xmlns="http://www.w3.org/2000/svg"><path d="m5.605469 1.421875h12.789062c2.308594 0 4.183594 1.875 4.183594 4.183594v12.789062c0 2.308594-1.875 4.183594-4.183594 4.183594h-12.789062c-2.308594 0-4.183594-1.875-4.183594-4.183594v-12.789062c0-2.308594 1.875-4.183594 4.183594-4.183594zm0 0" fill="#74bfcc" fill-rule="evenodd"/><g stroke="#3f3f3f" transform="matrix(.75 0 0 .75 -.374907 .360994)"><g fill="none" stroke-linecap="round"><path d="m23.510292 15.581174s1.885417-2.520833.723959-4.953125c-1.166667-2.427083-6.8125-.692708-11.15625 2.34375-3.125 2.182292-4.635417 6.03125-4.578125 8.526042"/><path d="m12.499876 22.497841s.713541 2.911458 3.885416 3.036458 4.515625-5.239583 4.057292-10.520833c-.322917-3.796875-1.75-7.3125-3.942708-8.515625"/><path d="m13.499876 9.602007s-4.40625-2.666666-5.697917.411459c-1.286458 3.078125 2.984375 8.708333 8.09375 10.09375 3.567708.96875 7.572917-.1875 8.604167-.609375"/></g><path d="m17.562376 15.497841c0 .588541-.473959 1.067708-1.0625 1.067708-.588542 0-1.0625-.479167-1.0625-1.067708 0-.583334.473958-1.0625 1.0625-1.0625.588541 0 1.0625.479166 1.0625 1.0625zm0 0" fill="#3f3f3f" stroke-width=".874498"/></g><path d="m11.949219 4.113281c-.382813.015625-.730469.230469-.921875.558594-.3125.539063-.128906 1.226563.410156 1.539063.539062.308593 1.226562.125 1.535156-.414063.3125-.535156.128906-1.222656-.410156-1.535156-.1875-.109375-.398438-.160157-.613281-.148438zm6.023437 9.746094c-.1875.007813-.371094.058594-.535156.152344-.539062.3125-.722656 1-.410156 1.535156.308594.539063.996094.722656 1.535156.414063.539062-.3125.722656-1 .410156-1.539063-.203125-.355469-.585937-.570313-1-.5625zm-11.972656 1.5c-.621094 0-1.125.503906-1.125 1.125s.503906 1.125 1.125 1.125 1.125-.503906 1.125-1.125-.503906-1.125-1.125-1.125zm0 0" fill="#3f3f3f"/><path d="m12 4.859375c-.207031 0-.375.167969-.375.375s.167969.375.375.375.375-.167969.375-.375-.167969-.375-.375-.375zm6 9.75c-.207031 0-.375.167969-.375.375s.167969.375.375.375.375-.167969.375-.375-.167969-.375-.375-.375zm-12 1.5c-.207031 0-.375.167969-.375.375s.167969.375.375.375.375-.167969.375-.375-.167969-.375-.375-.375zm0 0" fill="#74bfcc"/></svg>