<svg height="24pt" viewBox="0 0 24 24" width="24pt" xmlns="http://www.w3.org/2000/svg"><path d="m5.605469 1.421875h12.789062c2.308594 0 4.183594 1.875 4.183594 4.183594v12.789062c0 2.308594-1.875 4.183594-4.183594 4.183594h-12.789062c-2.308594 0-4.183594-1.875-4.183594-4.183594v-12.789062c0-2.308594 1.875-4.183594 4.183594-4.183594zm0 0" fill="#7c5500" fill-rule="evenodd"/><path d="m12.542969 6.566406-8.691407.027344 3.800782 7.019531v5.449219h-1.628906v.542969h4.347656v-.542969h-1.632813v-5.414062zm0 0" fill="#e2e5e7"/><path d="m5.484375 7.652344c-.003906.007812-.003906.015625-.003906.023437.023437.097657 1.617187 3.015625 1.964843 3.597657.191407.320312.40625.582031.546876.667968.121093.074219.261718.078125.382812.011719.132812-.070313.394531-.386719.585938-.703125.328124-.554688 1.9375-3.496094 1.953124-3.574219 0-.011719-.007812-.015625-.027343-.023437zm0 0" fill="#b31f13"/><path d="m14.605469 8.867188c-.597657-.382813-.910157-1.25-1.34375-1.605469-.246094-.203125-.242188-.355469.078125-.335938.308594.015625.734375.101563 1.242187.351563 0 0-.335937-1.578125-1.144531-2.46875-.214844-.230469-.179688-.320313.125-.222656.664062.207031 1.75.660156 2.261719 1.507812 0 0 1.082031-1.738281 2.792969-1.699219.320312.007813.339843.191407.074218.367188-.625.417969-1.621094 1.28125-1.636718 2.535156 0 0 1.375-.847656 2.953124.449219.246094.203125.160157.382812-.160156.394531-.726562.03125-1.941406.179687-2.421875.796875 0 0 .738281-.09375.855469.164062.109375.25-.023438.597657-.460938.679688-1.089843.203125-2.285156-.3125-3.214843-.914062zm0 0" fill="#76ae17"/><path d="m18.289062 15.292969c-.777343 2.9375-3.246093 4.816406-5.519531 4.195312-2.269531-.617187-3.484375-3.5-2.710937-6.433593.777344-2.9375 3.246094-4.816407 5.515625-4.199219 2.273437.617187 3.488281 3.5 2.714843 6.4375zm0 0" fill="#9b7528"/><path d="m15.824219 8.9375c-.078125.121094-.089844.277344-.015625.410156l.390625.683594c.105469.1875.34375.25.527343.140625l.503907-.292969c-.402344-.433594-.878907-.753906-1.40625-.941406zm-.890625-.191406c-.519532-.035156-1.050782.050781-1.570313.25l.179688.316406c.109375.1875.34375.253906.53125.144531l.675781-.394531c.113281-.070312.175781-.1875.183594-.316406zm.304687.617187c-.097656-.027343-.203125-.015625-.296875.039063l-.671875.394531c-.1875.109375-.25.347656-.144531.535156l.390625.683594c.105469.1875.34375.253906.527344.144531l.675781-.394531c.1875-.109375.25-.351563.140625-.539063l-.386719-.679687c-.054687-.097656-.140625-.160156-.234375-.183594zm2.25.820313-.566406.328125c-.1875.109375-.25.351562-.140625.539062l.386719.683594c.105469.1875.34375.25.53125.140625l.515625-.300781c-.175782-.519531-.417969-.988281-.726563-1.390625zm-4.484375-1.03125c-.453125.222656-.882812.535156-1.273437.917968l.128906.226563c.109375.1875.34375.253906.53125.144531l.671875-.394531c.1875-.109375.253906-.347656.144531-.539063zm.550782 1.195312c-.097657-.027344-.203126-.015625-.296876.039063l-.671874.394531c-.1875.109375-.25.347656-.144532.539062l.386719.679688c.109375.1875.347656.253906.53125.144531l.675781-.394531c.1875-.109375.25-.347656.140625-.539062l-.386719-.679688c-.054687-.09375-.140624-.15625-.234374-.183594zm2.652343.71875c-.097656-.027344-.203125-.015625-.292969.039063l-.675781.394531c-.1875.109375-.25.347656-.140625.535156l.386719.683594c.105469.1875.34375.25.53125.144531l.671875-.394531c.1875-.109375.25-.351562.144531-.539062l-.390625-.679688c-.050781-.097656-.136718-.160156-.234375-.183594zm2.121094.894532-.4375.257812c-.183594.105469-.25.347656-.140625.535156l.386719.683594c.082031.136719.234375.210938.382812.191406.007813-.574218-.054687-1.140625-.191406-1.667968zm-6.878906-1.597657c-.28125.320313-.535157.675781-.753907 1.0625h.011719l.671875-.394531c.1875-.109375.25-.347656.144532-.539062zm.421875.96875c-.097656-.027343-.203125-.015625-.296875.039063l-.675781.394531c-.183594.109375-.25.347656-.140626.535156l.386719.683594c.109375.1875.347657.253906.53125.144531l.675781-.394531c.1875-.109375.25-.351563.140626-.539063l-.386719-.679687c-.054688-.09375-.140625-.160156-.234375-.183594zm2.652344.714844c-.097657-.023437-.203126-.011719-.296876.042969l-.671874.394531c-.1875.109375-.25.347656-.140626.535156l.386719.683594c.105469.1875.34375.25.53125.140625l.671875-.394531c.1875-.109375.25-.347657.144532-.535157l-.390626-.683593c-.050781-.09375-.136718-.15625-.234374-.183594zm2.652343.71875c-.09375-.027344-.199219-.015625-.292969.039063l-.675781.394531c-.183593.109375-.25.351562-.140625.539062l.386719.679688c.109375.191406.34375.253906.53125.144531l.675781-.394531c.1875-.109375.25-.347657.140625-.535157l-.386719-.683593c-.054687-.09375-.140624-.160157-.238281-.183594zm-4.335937.269531c-.097656-.027344-.203125-.015625-.296875.039063l-.671875.394531c-.1875.109375-.25.347656-.144532.535156l.390626.683594c.105468.1875.34375.25.53125.140625l.671874-.390625c.1875-.109375.25-.351562.144532-.539062l-.390625-.679688c-.054688-.097656-.136719-.160156-.234375-.1875zm2.652344.714844c-.09375-.023438-.199219-.011719-.292969.042969l-.675781.390625c-.183594.109375-.25.351562-.140626.539062l.386719.679688c.109375.191406.34375.253906.53125.144531l.675781-.394531c.183594-.109375.25-.347656.140626-.535156l-.386719-.683594c-.054688-.09375-.140625-.15625-.238281-.183594zm2.65625.71875c-.097657-.027344-.203126-.015625-.296876.039062l-.671874.394532c-.1875.109375-.25.347656-.144532.539062l.390625.679688c.105469.1875.335938.25.523438.144531.136719-.3125.25-.640625.339843-.976563.050782-.195312.09375-.390624.125-.585937l-.03125-.050781c-.050781-.09375-.136718-.15625-.234374-.183594zm-7.886719-2.113281c-.089844.226562-.164063.460937-.230469.699219-.09375.363281-.160156.734374-.195312 1.105468.054687-.003906.105468-.019531.15625-.046875l.675781-.394531c.183593-.109375.25-.347656.140625-.539062l-.386719-.679688c-.039063-.066406-.097656-.113281-.160156-.144531zm.894531 1.664062c-.097656-.027343-.203125-.015625-.296875.039063l-.671875.394531c-.1875.109375-.25.347656-.144531.535156l.390625.683594c.105468.1875.34375.253906.53125.144531l.671875-.394531c.1875-.109375.25-.351563.144531-.539063l-.386719-.679687c-.054687-.09375-.140625-.15625-.238281-.183594zm2.652344.71875c-.09375-.027343-.199219-.015625-.292969.039063l-.675781.394531c-.183594.109375-.25.347656-.140625.535156l.386719.683594c.109374.1875.34375.25.53125.140625l.671874-.394531c.1875-.105469.25-.347657.144532-.535157l-.386719-.683593c-.054687-.09375-.140625-.15625-.238281-.179688zm2.65625.714844c-.097656-.023437-.203125-.011719-.296875.039063l-.671875.394531c-.1875.109375-.25.351562-.144532.539062l.390626.679688c.105468.191406.34375.253906.527343.144531l.675781-.394531c.1875-.109375.25-.347657.144532-.535157l-.390625-.683593c-.054688-.09375-.140625-.15625-.234375-.183594zm-4.339844.269531c-.09375-.027344-.199219-.015625-.292969.039063l-.675781.394531c-.1875.109375-.25.347656-.140625.535156l.386719.683594c.109375.1875.34375.253906.53125.144531l.671875-.394531c.1875-.109375.25-.351562.144531-.539062l-.386719-.679688c-.054687-.09375-.140625-.160156-.238281-.183594zm2.65625.714844c-.097656-.023438-.203125-.011719-.296875.042969l-.671875.390625c-.1875.109375-.25.351562-.144531.539062l.386719.683594c.109374.1875.347656.25.53125.140625l.675781-.394531c.1875-.109375.25-.347656.140625-.535156l-.386719-.683594c-.054687-.09375-.140625-.15625-.234375-.183594zm2.652344.71875c-.09375-.023438-.199219-.015625-.292969.039062l-.675781.394532c-.1875.109375-.25.351562-.140625.539062l.148437.261719c.375-.347656.710938-.757813.996094-1.214844-.011719-.003906-.019531-.015625-.035156-.019531zm-7.605469-1.761719c.027344.335938.082031.664063.160156.976563.15625-.117188.207031-.328125.109375-.503906l-.273437-.472657zm.613281 1.3125c-.09375-.027343-.199218-.015625-.292968.039063l-.042969.023437c.175781.519531.421875.992188.726562 1.390625l.089844-.050781c.1875-.109375.25-.347656.144531-.539063l-.386718-.679687c-.054688-.09375-.140626-.15625-.238282-.183594zm2.65625.71875c-.097656-.027343-.203125-.015625-.296875.039063l-.671875.394531c-.1875.109375-.25.347656-.144531.535156l.386719.683594c.109375.1875.347656.25.53125.144531l.675781-.394531c.183594-.109375.25-.351563.140625-.539063l-.386719-.679687c-.054687-.097656-.140625-.160156-.234375-.183594zm2.652344.714844c-.097656-.023437-.203125-.011719-.296875.042969l-.671875.394531c-.1875.105469-.25.347656-.144531.535156l.167969.296875c.476562-.164062.9375-.421875 1.363281-.761718l-.183594-.324219c-.050781-.09375-.136719-.15625-.234375-.183594zm-4.335938.269531c-.097656-.027344-.203124-.015625-.296874.039063l-.027344.015625c.265625.289062.566406.527344.890625.710937l-.332031-.582031c-.054688-.09375-.140626-.160156-.234376-.183594zm2.652344.71875c-.097656-.027344-.203125-.015625-.296875.039063l-.671875.394531h-.003906c.433594.070312.878906.054688 1.324219-.046875l-.117188-.207031c-.050781-.09375-.136719-.15625-.234375-.183594zm0 0" fill="#7c5e20"/></svg>