<svg height="24pt" viewBox="0 0 24 24" width="24pt" xmlns="http://www.w3.org/2000/svg"><path d="m5.605469 1.421875h12.789062c2.308594 0 4.183594 1.875 4.183594 4.183594v12.789062c0 2.308594-1.875 4.183594-4.183594 4.183594h-12.789062c-2.308594 0-4.183594-1.875-4.183594-4.183594v-12.789062c0-2.308594 1.875-4.183594 4.183594-4.183594zm0 0" fill="#ccc" fill-rule="evenodd"/><path d="m16.125 6.75c-2.898438 0-5.25 2.351562-5.25 5.25s2.351562 5.25 5.25 5.25 5.25-2.351562 5.25-5.25-2.351562-5.25-5.25-5.25zm-9.75 1.5c-2.070312 0-3.75 1.679688-3.75 3.75s1.679688 3.75 3.75 3.75 3.75-1.679688 3.75-3.75-1.679688-3.75-3.75-3.75zm9.75 0c2.070312 0 3.75 1.679688 3.75 3.75s-1.679688 3.75-3.75 3.75-3.75-1.679688-3.75-3.75 1.679688-3.75 3.75-3.75zm-9.75 1.5c1.242188 0 2.25 1.007812 2.25 2.25s-1.007812 2.25-2.25 2.25-2.25-1.007812-2.25-2.25 1.007812-2.25 2.25-2.25zm0 0" fill="#f15990"/></svg>