<svg height="24pt" viewBox="0 0 24 24" width="24pt" xmlns="http://www.w3.org/2000/svg"><path d="m1.425781 18.394531c0 2.316407 1.863281 4.179688 4.179688 4.179688h12.789062c2.316407 0 4.179688-1.863281 4.179688-4.179688v-12.550781l-7.125 7.132812-.054688-1.902343-2.058593-.085938.042968-1.972656-2.132812-.070313 7.496094-7.453124c-.121094-.007813-.222657-.070313-.347657-.070313h-12.789062c-2.316407 0-4.183594 1.867187-4.183594 4.183594zm0 0" fill="#2d8d7b" fill-rule="evenodd"/><path d="m8.507812 5.15625h6.984376c1.941406 0 3.515624 1.574219 3.515624 3.515625v6.65625c0 1.941406-1.574218 3.515625-3.515624 3.515625h-6.984376c-1.941406 0-3.515624-1.574219-3.515624-3.515625v-6.65625c0-1.941406 1.574218-3.515625 3.515624-3.515625zm0 0" fill="#ccc"/><path d="m8.230469 14.996094h7.539062c.441407 0 .800781.359375.800781.800781s-.359374.800781-.800781.800781h-7.539062c-.441407 0-.800781-.359375-.800781-.800781s.359374-.800781.800781-.800781zm0 0" fill="#999"/><path d="m18.742188 1.496094-7.496094 7.449218 2.132812.070313-.042968 1.972656 2.058593.085938.054688 1.902343 7.125-7.132812v-.238281c0-2.195313-1.6875-3.929688-3.832031-4.109375zm0 0" fill="#fda002" fill-rule="evenodd"/><path d="m18.703125 9.722656-3.253906 3.25 3.253906-3.25s0 0 0-.003906zm0 0" fill="#fff" fill-rule="evenodd"/><path d="m9.25 7.605469h1.609375c1.003906 0 1.820313.816406 1.820313 1.820312v1.9375c0 1.003907-.816407 1.820313-1.820313 1.820313h-1.609375c-1.007812 0-1.820312-.816406-1.820312-1.820313v-1.9375c0-1.003906.8125-1.820312 1.820312-1.820312zm0 0" fill="#999"/><path d="m11.25 8.945312 2.128906.070313-.042968 1.972656 2.058593.085938.054688 1.898437 3.253906-3.25c-.625-1.929687-2.035156-3.5-3.886719-4.324218zm0 0" fill="#fda002" fill-rule="evenodd"/><path d="m9.402344 14.949219 6.046875-1.972657v-.003906l-.054688-1.898437-2.058593-.089844.042968-1.96875-2.128906-.070313h-.003906zm0 0" fill="#fff" fill-rule="evenodd"/><path d="m9.402344 14.945312 2.265625-.734374-1.570313-1.527344zm0 0"/></svg>