<svg height="24pt" viewBox="0 0 24 24" width="24pt" xmlns="http://www.w3.org/2000/svg"><g fill-rule="evenodd"><path d="m5.148438 12.734375v6.097656h7.113281zm0 0" fill="#ccc"/><path d="m21.136719 21.5-19.542969-16.75c-.058594.285156-.171875.550781-.171875.855469v12.789062c0 2.316407 1.867187 4.183594 4.183594 4.183594h12.789062c1.0625 0 2.003907-.429687 2.742188-1.078125zm-15.988281-8.765625 7.113281 6.097656h-7.113281zm0 0" fill="#8ac249"/><path d="m5.605469 1.421875c-2.011719 0-3.605469 1.4375-4.011719 3.328125l19.542969 16.75c.867187-.765625 1.4375-1.851562 1.4375-3.105469v-12.789062c0-2.316407-1.863281-4.183594-4.179688-4.183594zm0 0" fill="#ccc"/></g></svg>