<svg height="24pt" viewBox="0 0 24 24" width="24pt" xmlns="http://www.w3.org/2000/svg" xmlns:xlink="http://www.w3.org/1999/xlink"><filter id="a" height="100%" width="100%" x="0%" y="0%"><feColorMatrix in="SourceGraphic" type="matrix" values="0 0 0 0 1 0 0 0 0 1 0 0 0 0 1 0 0 0 1 0"/></filter><mask id="b"><g filter="url(#a)"><path d="m0 0h24v24h-24z" fill-opacity=".4"/></g></mask><clipPath id="c"><path d="m0 0h24v24h-24z"/></clipPath><mask id="d"><g filter="url(#a)"><path d="m0 0h24v24h-24z" fill-opacity=".2"/></g></mask><clipPath id="e"><path d="m0 0h24v24h-24z"/></clipPath><g clip-path="url(#c)" mask="url(#b)"><path d="m12 6.75v4.5h4.5l-4.5 7.5v-4.5h-4.5zm0 0" fill="#fff"/></g><g clip-path="url(#e)" mask="url(#d)"><path d="m12 1.5c-5.816406 0-10.5 4.683594-10.5 10.5 0 .125.019531.25.023438.375.199218-5.640625 4.785156-10.125 10.476562-10.125s10.277344 4.484375 10.476562 10.125c.003907-.125.023438-.25.023438-.375 0-5.816406-4.683594-10.5-10.5-10.5zm0 0" fill="#fff"/></g><path d="m5.605469 1.421875h12.789062c2.308594 0 4.183594 1.875 4.183594 4.183594v12.789062c0 2.308594-1.875 4.183594-4.183594 4.183594h-12.789062c-2.308594 0-4.183594-1.875-4.183594-4.183594v-12.789062c0-2.308594 1.875-4.183594 4.183594-4.183594zm0 0" fill="#fecd38" fill-rule="evenodd"/><path d="m12 6v4.5h4.5l-4.5 7.5v-4.5h-4.5zm0 0" fill="#3f3f3f"/></svg>