<svg height="24pt" viewBox="0 0 24 24" width="24pt" xmlns="http://www.w3.org/2000/svg"><path d="m5.605469 1.421875h12.789062c2.308594 0 4.183594 1.875 4.183594 4.183594v12.789062c0 2.308594-1.875 4.183594-4.183594 4.183594h-12.789062c-2.308594 0-4.183594-1.875-4.183594-4.183594v-12.789062c0-2.308594 1.875-4.183594 4.183594-4.183594zm0 0" fill="#ccc" fill-rule="evenodd"/><g fill="#4d4d4d"><path d="m14.625 12c0 1.242188-1.007812 2.25-2.25 2.25s-2.25-1.007812-2.25-2.25 1.007812-2.25 2.25-2.25 2.25 1.007812 2.25 2.25zm0 0"/><path d="m19.875 18c0 1.242188-1.007812 2.25-2.25 2.25s-2.25-1.007812-2.25-2.25 1.007812-2.25 2.25-2.25 2.25 1.007812 2.25 2.25zm0 0"/><path d="m8.625 6c0 1.242188-1.007812 2.25-2.25 2.25s-2.25-1.007812-2.25-2.25 1.007812-2.25 2.25-2.25 2.25 1.007812 2.25 2.25zm0 0"/><path d="m19.875 6c0-1.242188-1.007812-2.25-2.25-2.25s-2.25 1.007812-2.25 2.25 1.007812 2.25 2.25 2.25 2.25-1.007812 2.25-2.25zm0 0"/><path d="m8.625 18c0-1.242188-1.007812-2.25-2.25-2.25s-2.25 1.007812-2.25 2.25 1.007812 2.25 2.25 2.25 2.25-1.007812 2.25-2.25zm0 0"/></g></svg>