<svg height="24pt" viewBox="0 0 24 24" width="24pt" xmlns="http://www.w3.org/2000/svg"><path d="m5.605469 1.421875h12.789062c2.308594 0 4.183594 1.875 4.183594 4.183594v12.789062c0 2.308594-1.875 4.183594-4.183594 4.183594h-12.789062c-2.308594 0-4.183594-1.875-4.183594-4.183594v-12.789062c0-2.308594 1.875-4.183594 4.183594-4.183594zm0 0" fill="#ffc947" fill-rule="evenodd"/><path d="m12 7.214844c-1.949219 0-3.703125 1.183594-4.433594 2.992187h-.949218l-.597657 1.195313h1.238281c-.027343.199218-.042968.398437-.042968.597656l-.597656 1.195312h.757812c.542969 2.113282 2.445312 3.585938 4.625 3.589844 1.453125 0 2.828125-.660156 3.734375-1.792968h-1.753906c-.585938.386718-1.277344.597656-1.980469.597656-1.519531-.003906-2.875-.960938-3.378906-2.394532h3.976562l.597656-1.195312h-4.785156c.003906-.199219.019532-.402344.054688-.597656h4.730468l.597657-1.195313h-4.898438c.640625-1.109375 1.824219-1.792969 3.105469-1.796875.703125 0 1.390625.210938 1.980469.597656h1.75c-.90625-1.132812-2.277344-1.792968-3.730469-1.792968zm0 0" fill="#b38d32"/><path d="m12 4.222656c-4.308594 0-7.777344 3.46875-7.777344 7.777344s3.46875 7.777344 7.777344 7.777344 7.777344-3.46875 7.777344-7.777344-3.46875-7.777344-7.777344-7.777344zm0 1.199219c3.667969 0 6.578125 2.914063 6.578125 6.578125 0 3.667969-2.910156 6.578125-6.578125 6.578125-3.664062 0-6.578125-2.910156-6.578125-6.578125 0-3.664062 2.914063-6.578125 6.578125-6.578125zm0 0" fill="#b38d32"/></svg>