<svg height="24pt" viewBox="0 0 24 24" width="24pt" xmlns="http://www.w3.org/2000/svg"><path d="m5.605469 1.421875h12.789062c2.308594 0 4.183594 1.875 4.183594 4.183594v12.789062c0 2.308594-1.875 4.183594-4.183594 4.183594h-12.789062c-2.308594 0-4.183594-1.875-4.183594-4.183594v-12.789062c0-2.308594 1.875-4.183594 4.183594-4.183594zm0 0" fill="#8e8e8e" fill-rule="evenodd"/><path d="m5.765625 3.894531h12.46875v7.480469h-12.46875zm0 0" fill="#666" fill-rule="evenodd"/><path d="m15.742188 16.363281c0 2.066407-1.675782 3.742188-3.742188 3.742188s-3.742188-1.675781-3.742188-3.742188c0-2.066406 1.675782-3.738281 3.742188-3.738281s3.742188 1.671875 3.742188 3.738281zm0 0" fill="#666"/><path d="m13.871094 16.363281c0 1.035157-.839844 1.871094-1.871094 1.871094s-1.871094-.835937-1.871094-1.871094c0-1.03125.839844-1.871093 1.871094-1.871093s1.871094.839843 1.871094 1.871093zm0 0" fill="#e6e6e6"/></svg>