<svg height="24pt" viewBox="0 0 24 24" width="24pt" xmlns="http://www.w3.org/2000/svg"><path d="m5.605469 1.421875h12.789062c2.308594 0 4.183594 1.875 4.183594 4.183594v12.789062c0 2.308594-1.875 4.183594-4.183594 4.183594h-12.789062c-2.308594 0-4.183594-1.875-4.183594-4.183594v-12.789062c0-2.308594 1.875-4.183594 4.183594-4.183594zm0 0" fill="#43c22a" fill-rule="evenodd"/><path d="m12.464844 20.84375 8.378906-8.378906c.257812-.257813.257812-.671875 0-.929688l-8.378906-8.378906c-.257813-.257812-.671875-.257812-.929688 0l-8.378906 8.378906c-.257812.257813-.257812.671875 0 .929688l8.378906 8.378906c.257813.257812.671875.257812.929688 0zm0 0" fill="#fff"/><g fill="#43c22a"><path d="m8.175781 7.480469v.695312h.695313v8.34375h1.042968l4.519532-8.34375h.695312v-.695312h-2.78125v.695312h.695313l-2.78125 4.867188v-4.867188h.695312v-.695312zm0 0"/><path d="m11.652344 14.433594h.695312v2.085937h-.695312zm0 0"/><path d="m11.652344 13.042969h.695312v.695312h-.695312zm0 0"/><path d="m13.042969 14.433594v2.085937h.695312v-.859375l.695313.511719.695312-.523437v.871093h.695313v-2.085937h-.695313l-.695312.695312-.695313-.695312zm0 0"/></g></svg>