<svg height="24pt" viewBox="0 0 24 24" width="24pt" xmlns="http://www.w3.org/2000/svg" xmlns:xlink="http://www.w3.org/1999/xlink"><symbol id="a" overflow="visible"><path d="m .375-2.921875h.75v2.921875h-.75zm0 0"/></symbol><symbol id="b" overflow="visible"><path d="m .21875-1.4375h1.21875v.5625h-1.21875zm0 0"/></symbol><symbol id="c" overflow="visible"><path d="m .375-2.921875h.828125l1.0625 2v-2h .71875v2.921875h-.84375l-1.0625-2v2h-.703125zm0 0"/></symbol><symbol id="d" overflow="visible"><path d="m2.515625-1.09375v.1875h-1.625c.007813.167969.066406.292969.171875.375.101562.085938.242188.125.421875.125.144531 0 .296875-.019531.453125-.0625.15625-.050781.316406-.117188.484375-.203125v.53125c-.167969.0625-.335937.109375-.5.140625-.167969.0390625-.335937.0625-.5.0625-.398437 0-.703125-.0976562-.921875-.296875-.21875-.207031-.328125-.492187-.328125-.859375 0-.351562.101563-.628906.3125-.828125.21875-.207031.519531-.3125.90625-.3125.34375 0 .613281.105469.8125.3125.207031.199219.3125.476563.3125.828125zm-.71875-.234375c0-.132813-.042969-.242187-.125-.328125-.074219-.082031-.171875-.125-.296875-.125-.136719 0-.246094.042969-.328125.125-.085937.074219-.136719.183594-.15625.328125zm0 0"/></symbol><symbol id="e" overflow="visible"><path d="m .890625-1.125-.796875-1.0625h.75l.4375.640625.453125-.640625h.75l-.796875 1.0625.828125 1.125h-.734375l-.5-.6875-.484375.6875h-.734375zm0 0"/></symbol><path d="m5.605469 1.421875h12.789062c2.308594 0 4.183594 1.875 4.183594 4.183594v12.789062c0 2.308594-1.875 4.183594-4.183594 4.183594h-12.789062c-2.308594 0-4.183594-1.875-4.183594-4.183594v-12.789062c0-2.308594 1.875-4.183594 4.183594-4.183594zm0 0" fill="#598d68" fill-rule="evenodd"/><path d="m8.666667 5.625h14.666666c1.677084 0 3.041667 1.364583 3.041667 3.041667v14.666666c0 1.677084-1.364583 3.041667-3.041667 3.041667h-14.666666c-1.677084 0-3.041667-1.364583-3.041667-3.041667v-14.666666c0-1.677084 1.364583-3.041667 3.041667-3.041667zm0 0" fill="#a5a7a4" stroke="#b9bab8" stroke-linecap="round" stroke-width=".6" transform="scale(.75)"/><g fill="#333"><use x="5.753906" xlink:href="#a" y="13.475098"/><use x="7.289062" xlink:href="#b" y="13.475098"/><use x="9.002197" xlink:href="#c" y="13.475098"/><use x="12.456299" xlink:href="#d" y="13.475098"/><use x="15.255615" xlink:href="#e" y="13.475098"/></g><path d="m10.760417 26.338542-5.135417-5.130209v2.088542c0 1.6875 1.359375 3.041667 3.041667 3.041667zm0 0" fill="#a5a7a4" stroke="#b9bab8" stroke-linecap="round" stroke-width=".6" transform="scale(.75)"/></svg>