<svg height="24pt" viewBox="0 0 24 24" width="24pt" xmlns="http://www.w3.org/2000/svg"><path d="m5.605469 1.421875h12.789062c2.308594 0 4.183594 1.875 4.183594 4.183594v12.789062c0 2.308594-1.875 4.183594-4.183594 4.183594h-12.789062c-2.308594 0-4.183594-1.875-4.183594-4.183594v-12.789062c0-2.308594 1.875-4.183594 4.183594-4.183594zm0 0" fill="#e74c3c" fill-rule="evenodd"/><path d="m9.75 14.882812c-.355469-.019531-.761719.144532-1.089844.46875l-1.40625 1.410157c-.519531.519531-.625 1.253906-.234375 1.640625.390625.390625 1.121094.289062 1.640625-.234375l1.410156-1.40625c.519532-.519531.625-1.253907.234376-1.644531-.144532-.144532-.339844-.222657-.554688-.234376zm4.460938 0c-.210938.011719-.40625.089844-.550782.234376-.390625.390624-.285156 1.125.234375 1.644531l1.40625 1.40625c.519531.523437 1.253907.625 1.644531.234375.390626-.386719.285157-1.121094-.234374-1.640625l-1.410157-1.410157c-.324219-.324218-.734375-.488281-1.089843-.46875zm0 0" fill="#800000"/><path d="m6.78125 5.359375c-1.308594 0-2.371094 1.0625-2.371094 2.371094.003906.898437.507813 1.71875 1.308594 2.121093-.226562.671876-.359375 1.394532-.359375 2.148438 0 3.679688 2.960937 6.640625 6.640625 6.640625s6.640625-2.960937 6.640625-6.640625c0-.753906-.132813-1.476562-.359375-2.152344.800781-.398437 1.304688-1.21875 1.308594-2.117187 0-1.308594-1.0625-2.371094-2.371094-2.371094-.730469 0-1.417969.335937-1.867188.910156-.984374-.574219-2.125-.910156-3.351562-.910156s-2.371094.335937-3.351562.910156c-.449219-.574219-1.136719-.90625-1.867188-.910156zm0 0" fill="#800000"/><path d="m17.691406 12c0-3.144531-2.546875-5.691406-5.691406-5.691406s-5.691406 2.546875-5.691406 5.691406 2.546875 5.691406 5.691406 5.691406 5.691406-2.546875 5.691406-5.691406zm0 0" fill="#fff" fill-opacity=".921569"/><g fill="#9c3c3c"><path d="m11.351562 12.269531 1.03125 1.765625c.191407.324219.605469.433594.933594.246094s.441406-.597656.25-.921875l-1.023437-1.753906 2.367187-1.347657c.164063-.09375.222656-.296874.125-.460937-.09375-.160156-.300781-.214844-.464844-.121094l-2.84375 1.617188c-.386718.191406-.53125.6875-.375.976562zm0 0"/><path d="m12 6.78125c-.261719 0-.472656.214844-.472656.476562 0 .261719.210937.472657.472656.472657s.472656-.210938.472656-.472657c0-.261718-.210937-.476562-.472656-.476562zm0 0"/><path d="m12 16.269531c-.261719 0-.472656.210938-.472656.472657 0 .261718.210937.476562.472656.476562s.472656-.214844.472656-.476562c0-.261719-.210937-.472657-.472656-.472657zm0 0"/><path d="m17.21875 12c0-.261719-.214844-.472656-.476562-.472656-.261719 0-.472657.210937-.472657.472656s.210938.472656.472657.472656c.261718 0 .476562-.210937.476562-.472656zm0 0"/><path d="m7.730469 12c0-.261719-.210938-.472656-.472657-.472656-.261718 0-.476562.210937-.476562.472656s.214844.472656.476562.472656c.261719 0 .472657-.210937.472657-.472656zm0 0"/></g></svg>