<svg height="24pt" viewBox="0 0 24 24" width="24pt" xmlns="http://www.w3.org/2000/svg"><path d="m5.605469 1.421875h12.789062c2.308594 0 4.183594 1.875 4.183594 4.183594v12.789062c0 2.308594-1.875 4.183594-4.183594 4.183594h-12.789062c-2.308594 0-4.183594-1.875-4.183594-4.183594v-12.789062c0-2.308594 1.875-4.183594 4.183594-4.183594zm0 0" fill="#fecd38" fill-rule="evenodd"/><path d="m12.203125 4.582031c-4.109375 0-7.417969 3.308594-7.417969 7.417969s3.308594 7.417969 7.417969 7.417969c2.527344 0 4.753906-1.25 6.089844-3.167969l-6.089844-4.25 7.011719-2.445312c-1.007813-2.902344-3.757813-4.972657-7.011719-4.972657zm0 0" fill="#fff"/><path d="m13.917969 8.003906c0 .632813-.511719 1.140625-1.140625 1.140625-.632813 0-1.144532-.507812-1.144532-1.140625 0-.628906.511719-1.140625 1.144532-1.140625.628906 0 1.140625.511719 1.140625 1.140625zm0 0" fill="#3f3f3f"/></svg>