<svg height="24pt" viewBox="0 0 24 24" width="24pt" xmlns="http://www.w3.org/2000/svg" xmlns:xlink="http://www.w3.org/1999/xlink"><linearGradient id="a"><stop offset="0" stop-color="#808080" stop-opacity=".929412"/><stop offset="1" stop-color="#808080" stop-opacity="0"/></linearGradient><linearGradient id="b" gradientTransform="matrix(.142835 0 0 .142839 -41.838914 -79.055028)" gradientUnits="userSpaceOnUse" x1="457.59909" x2="457.59909" xlink:href="#a" y1="631.21771" y2="614.22644"/><linearGradient id="c" gradientTransform="matrix(.142835 0 0 .142839 -31.520832 -79.055028)" gradientUnits="userSpaceOnUse" x1="457.59909" x2="457.59909" xlink:href="#a" y1="631.21771" y2="614.22644"/><linearGradient id="d" gradientTransform="matrix(.226199 0 0 .226207 -81.997703 -131.503147)" gradientUnits="userSpaceOnUse" x1="457.26172" x2="458.41364" y1="601.77271" y2="645.99402"><stop offset="0" stop-color="#fff"/><stop offset="1" stop-color="#fff" stop-opacity="0"/></linearGradient><path d="m5.605469 1.421875h12.789062c2.308594 0 4.183594 1.875 4.183594 4.183594v12.789062c0 2.308594-1.875 4.183594-4.183594 4.183594h-12.789062c-2.308594 0-4.183594-1.875-4.183594-4.183594v-12.789062c0-2.308594 1.875-4.183594 4.183594-4.183594zm0 0" fill="#ececec" fill-rule="evenodd"/><g stroke-linecap="round" stroke-linejoin="round" transform="scale(.75)"><path d="m27.119792 16c0 6.140625-4.979167 11.125-11.119792 11.125s-11.119792-4.984375-11.119792-11.125 4.979167-11.125 11.119792-11.125 11.119792 4.984375 11.119792 11.125zm0 0" fill="#fff" stroke="#808080" stroke-opacity=".929412" stroke-width=".2"/><path d="m15.458333 16c0 2.552083-2.067708 4.619792-4.619791 4.619792-2.546875 0-4.614584-2.067709-4.614584-4.619792s2.067709-4.619792 4.614584-4.619792c2.552083 0 4.619791 2.067709 4.619791 4.619792zm0 0" fill="#06f" stroke="url(#b)" stroke-width=".132"/><path d="m25.776042 16c0 2.552083-2.067709 4.619792-4.614584 4.619792-2.552083 0-4.619791-2.067709-4.619791-4.619792s2.067708-4.619792 4.619791-4.619792c2.546875 0 4.614584 2.067709 4.614584 4.619792zm0 0" fill="#ff2a7f" stroke="url(#c)" stroke-width=".132"/></g><path d="m19.3125 11.933594c0 4.035156-3.40625-2.328125-7.441406-2.328125-4.039063 0-7.183594 6.363281-7.183594 2.328125s3.277344-7.3125 7.3125-7.3125 7.3125 3.277344 7.3125 7.3125zm0 0" fill="url(#d)"/></svg>