<svg height="24pt" viewBox="0 0 24 24" width="24pt" xmlns="http://www.w3.org/2000/svg"><path d="m22.574219 11.488281h-21.152344v6.90625c0 2.316407 1.867187 4.183594 4.183594 4.183594h12.789062c2.316407 0 4.179688-1.867187 4.179688-4.183594zm0 0" fill="#209dbb" fill-rule="evenodd"/><path d="m5.605469 1.425781c-2.316407 0-4.183594 1.863281-4.183594 4.179688v5.882812h21.152344v-5.882812c0-2.316407-1.863281-4.179688-4.179688-4.179688zm0 0" fill="#5fbb20" fill-rule="evenodd"/><g fill="#4c4c4c"><path d="m6.75 4.5h10.5v.75h-10.5zm0 0"/><path d="m6.75 6.75h10.5v.75h-10.5zm0 0"/><path d="m6.75 9h10.5v.75h-10.5zm0 0"/></g><g fill="#fff"><path d="m6.75 14.25h10.5v.75h-10.5zm0 0"/><path d="m6.75 16.5h10.5v.75h-10.5zm0 0"/><path d="m6.75 18.75h10.5v.75h-10.5zm0 0"/></g></svg>