<svg height="24pt" viewBox="0 0 24 24" width="24pt" xmlns="http://www.w3.org/2000/svg"><g fill-rule="evenodd"><path d="m5.605469 1.421875h12.789062c2.308594 0 4.183594 1.875 4.183594 4.183594v12.789062c0 2.308594-1.875 4.183594-4.183594 4.183594h-12.789062c-2.308594 0-4.183594-1.875-4.183594-4.183594v-12.789062c0-2.308594 1.875-4.183594 4.183594-4.183594zm0 0" fill="#2a9722"/><path d="m6.792969 22.578125h11.601562c2.316407 0 4.183594-1.867187 4.183594-4.183594v-11.84375c-.007813.351563-.027344.703125-.054687 1.050781-.054688.554688-.136719 1.101563-.25 1.648438-.109376.542969-.246094 1.082031-.410157 1.613281-.164062.53125-.355469 1.054688-.570312 1.566407-.21875.511718-.460938 1.011718-.726563 1.5-.265625.488281-.558594.960937-.871094 1.421874-.3125.457032-.652343.898438-1.007812 1.324219-.359375.425781-.738281.832031-1.136719 1.21875-.398437.386719-.816406.753907-1.25 1.101563-.4375.34375-.890625.667968-1.355469.96875-.46875.300781-.953124.578125-1.445312.828125-.496094.253906-1.003906.480469-1.523438.683593-.515624.199219-1.042968.375-1.582031.523438-.535156.148438-1.074219.269531-1.621093.363281-.550782.09375-1.101563.160157-1.65625.203125-.109376.003906-.21875.007813-.324219.011719zm0 0" fill="#8500db"/><path d="m6.792969 22.578125c.105469-.003906.214843-.007813.324219-.011719.554687-.042968 1.105468-.109375 1.65625-.203125.546874-.09375 1.085937-.214843 1.621093-.363281.539063-.148438 1.066407-.324219 1.582031-.523438.519532-.203124 1.027344-.429687 1.523438-.683593.492188-.25.976562-.527344 1.445312-.828125.464844-.300782.917969-.625 1.355469-.96875.433594-.347656.851563-.714844 1.25-1.101563.398438-.386719.777344-.792969 1.136719-1.21875.355469-.425781.695312-.867187 1.007812-1.324219.3125-.460937.605469-.933593.871094-1.421874.265625-.488282.507813-.988282.726563-1.5.214843-.511719.40625-1.035157.570312-1.566407.164063-.53125.300781-1.070312.410157-1.613281.113281-.546875.195312-1.09375.25-1.648438.027343-.347656.046874-.699218.054687-1.050781v-.945312c0-2.085938-1.496094-3.777344-3.402344-4.117188.070313.199219.179688.503907.242188.707031.125.449219.226562.90625.304687 1.363282.082032.460937.136719.925781.171875 1.390625.019531.328125.03125.660156.03125.988281 0 .46875-.023437.933594-.070312 1.398438-.042969.460937-.113281.925781-.207031 1.382812s-.207032.90625-.347657 1.355469c-.136719.445312-.296875.882812-.476562 1.3125-.183594.429687-.386719.847656-.609375 1.257812-.222656.410157-.46875.808594-.730469 1.191407-.261719.386718-.546875.757812-.847656 1.113281-.300781.359375-.617188.699219-.953125 1.023437-.335938.324219-.683594.632813-1.050782.921875-.363281.292969-.746093.5625-1.136718.816407-.394532.25-.796875.484374-1.214844.695312-.414062.210938-.839844.402344-1.273438.570312-.4375.167969-.878906.316407-1.328124.441407-.449219.125-.90625.226562-1.363282.304687-.460937.082032-.921875.136719-1.390625.171875-.328125.023438-.660156.035157-.988281.035157-.464844-.003907-.933594-.027344-1.398438-.070313-.460937-.046875-.921874-.117187-1.382812-.210937-.457031-.09375-.90625-.207032-1.351562-.347657-.074219-.023437-.21875-.042969-.289063-.070312.394531 1.902343 2.066406 3.347656 4.089844 3.347656zm0 0" fill="#5631d4"/><path d="m1.515625 19.230469c.070313.027343.214844.046875.289063.070312.445312.140625.894531.253907 1.355468.347657.457032.09375.917969.164062 1.382813.210937.460937.042969.929687.066406 1.394531.070313.328125 0 .660156-.015626.988281-.035157.46875-.035156.929688-.089843 1.390625-.171875.457032-.078125.914063-.179687 1.363282-.304687.449218-.125.890624-.273438 1.328124-.441407.433594-.167968.859376-.359374 1.273438-.570312.417969-.210938.820312-.445312 1.214844-.695312.390625-.253907.773437-.523438 1.136718-.816407.367188-.289062.714844-.597656 1.050782-.921875.335937-.324218.652344-.664062.953125-1.023437.300781-.355469.585937-.726563.847656-1.113281.261719-.382813.507813-.78125.730469-1.191407.222656-.410156.425781-.828125.609375-1.257812.179687-.429688.339843-.867188.476562-1.3125.140625-.449219.253907-.898438.347657-1.355469s.164062-.921875.210937-1.382812c.042969-.464844.066406-.929688.070313-1.398438-.003907-.328125-.015626-.660156-.035157-.988281-.035156-.464844-.089843-.929688-.171875-1.390625-.078125-.457032-.179687-.914063-.304687-1.363282-.0625-.203124-.171875-.507812-.242188-.707031-.273437-.058593-.488281-.0625-.78125-.0625h-1.734375c.042969.09375.089844.195313.132813.292969.140625.363281.261719.730469.363281 1.105469.105469.371093.191406.75.257812 1.132812.066407.382813.113282.769531.140626 1.15625.019531.273438.027343.550781.027343.824219 0 .390625-.019531.777344-.058593 1.164062-.039063.386719-.09375.769532-.171876 1.148438-.078124.382812-.175781.757812-.289062 1.128906s-.25.734375-.398438 1.09375c-.152343.355469-.320312.707032-.507812 1.046875-.183594.34375-.386719.671875-.605469.992188-.222656.320312-.457031.632812-.707031.929687s-.515625.578125-.792969.851563c-.277343.269531-.570312.527343-.875.765625-.304687.242187-.621093.46875-.945312.679687-.328125.207031-.664063.402344-1.011719.578125-.34375.175782-.699219.335938-1.0625.476563-.359375.140625-.730469.261719-1.101562.363281-.375.105469-.753907.191406-1.136719.257812-.382813.066407-.769531.113282-1.15625.140626-.273438.019531-.550781.027343-.824219.027343-.386719 0-.777344-.019531-1.160156-.058593-.386719-.039063-.773438-.09375-1.152344-.171876-.382812-.078124-.757812-.175781-1.128906-.289062-.363282-.113281-.722656-.242188-1.070313-.390625v1.722656c0 .296875.03125.558594.089844.835938zm0 0" fill="#018dc1"/><path d="m1.425781 16.671875c.347657.148437.707031.277344 1.070313.390625.371094.113281.746094.210938 1.128906.289062.378906.078126.765625.132813 1.152344.171876.382812.039062.773437.058593 1.160156.058593.273438 0 .550781-.007812.824219-.027343.386719-.027344.773437-.074219 1.15625-.140626.382812-.066406.761719-.152343 1.136719-.257812.371093-.101562.742187-.222656 1.101562-.363281.363281-.140625.71875-.300781 1.0625-.476563.347656-.175781.683594-.371094 1.011719-.578125.324219-.210937.640625-.4375.945312-.679687.304688-.238282.597657-.496094.875-.765625.277344-.273438.542969-.554688.792969-.851563s.484375-.609375.707031-.929687c.21875-.320313.421875-.648438.605469-.992188.1875-.339843.355469-.691406.507812-1.046875.148438-.359375.285157-.722656.398438-1.09375s.210938-.746094.289062-1.128906c.078126-.378906.132813-.761719.171876-1.148438.039062-.386718.058593-.773437.058593-1.164062 0-.273438-.007812-.550781-.027343-.824219-.027344-.386719-.074219-.773437-.140626-1.15625-.066406-.382812-.152343-.761719-.257812-1.132812-.101562-.375-.222656-.742188-.363281-1.105469-.042969-.097656-.089844-.199219-.132813-.292969h-2.859375c.078125.128907.152344.261719.226563.394531.136718.269532.261718.546876.371094.828126.109374.28125.203124.570312.285156.863281.082031.289062.148437.585937.199218.882812.050782.296875.085938.597657.109376.902344.015624.210937.023437.425781.023437.640625 0 .304688-.015625.605469-.046875.90625s-.074219.601562-.136719.898438c-.058593.296874-.132812.589843-.222656.878906-.089844.289062-.195313.574218-.3125.851562s-.25.550782-.394531.816406c-.144532.265626-.300782.523438-.472656.773438-.171876.25-.355469.492188-.550782.722656-.191406.230469-.398437.453125-.617187.664063-.21875.210937-.445313.410156-.683594.597656-.234375.1875-.480469.367187-.738281.53125-.253906.160156-.515625.3125-.785156.449219-.269532.136718-.546876.261718-.828126.371094-.28125.109374-.570312.203124-.859374.285156-.292969.082031-.589844.148437-.886719.199218-.296875.050782-.597657.089844-.898438.109376-.214843.015624-.429687.023437-.644531.023437-.304688 0-.605469-.015625-.90625-.046875s-.601562-.074219-.898438-.132812c-.296874-.0625-.589843-.136719-.878906-.226563-.289062-.089844-.574218-.191406-.851562-.3125-.277344-.117187-.550782-.25-.816406-.394531-.054688-.03125-.109376-.066406-.160157-.097656zm0 0" fill="#2a9722"/><path d="m1.425781 13.804688c.050781.03125.105469.066406.160157.097656.265624.144531.539062.277344.816406.394531.277344.121094.5625.222656.851562.3125.289063.089844.582032.164063.878906.226563.296876.058593.597657.101562.898438.132812s.601562.046875.90625.046875c.214844 0 .429688-.007813.644531-.023437.300781-.019532.601563-.058594.898438-.109376.296875-.050781.59375-.117187.886719-.199218.289062-.082032.578124-.175782.859374-.285156.28125-.109376.558594-.234376.828126-.371094.269531-.136719.53125-.289063.785156-.449219.257812-.164063.503906-.34375.738281-.53125.238281-.1875.464844-.386719.683594-.597656.21875-.210938.421875-.433594.617187-.664063.195313-.230468.378906-.472656.550782-.722656.171874-.25.328124-.507812.472656-.773438.144531-.265624.277344-.539062.394531-.816406s.222656-.5625.3125-.851562c.089844-.289063.164063-.582032.222656-.878906.0625-.296876.105469-.597657.136719-.898438s.046875-.601562.046875-.90625c0-.214844-.007813-.429688-.023437-.640625-.023438-.304687-.058594-.605469-.109376-.902344-.050781-.296875-.117187-.59375-.199218-.882812-.082032-.292969-.175782-.582031-.285156-.863281-.109376-.28125-.234376-.558594-.371094-.828126-.074219-.132812-.148438-.265624-.226563-.394531h-2.703125c.074219.078125.144532.160157.21875.246094.140625.179687.273438.363281.398438.558594.121094.191406.234375.390625.339844.59375.101562.203125.195312.414062.28125.628906.082031.210937.152343.429687.214843.648437s.113281.445313.152344.667969c.039063.226563.066406.453125.082031.683594.011719.160156.015625.324219.015625.484375 0 .230469-.011719.457031-.035156.683594-.023437.230468-.054687.457031-.101563.679687-.046874.222657-.101562.445313-.171874.664063-.066407.21875-.144532.433594-.234376.644531-.085937.210937-.1875.417969-.296874.621094-.109376.199219-.230469.394531-.359376.582031-.128906.1875-.265624.371094-.414062.546875s-.304688.34375-.46875.503906c-.164062.15625-.335938.308594-.515625.453125-.179687.140625-.363281.273438-.558594.398438-.191406.121094-.390625.234375-.59375.339844-.203125.101562-.414062.195312-.625.28125-.214843.082031-.429687.152343-.652343.214843-.21875.0625-.445313.113281-.667969.152344-.226563.039063-.453125.066406-.683594.082031-.160156.011719-.324219.015625-.484375.015625-.230469 0-.457031-.011719-.683594-.035156-.230468-.023437-.453125-.054687-.679687-.101563-.222657-.046874-.445313-.101562-.664063-.171874-.21875-.066407-.433594-.144532-.644531-.234376-.210937-.085937-.417969-.1875-.617187-.296874-.203126-.109376-.398438-.230469-.585938-.359376-.1875-.128906-.371094-.265624-.546875-.414062-.03125-.027344-.0625-.058594-.089844-.085938zm0 0" fill="#e8e022"/><path d="m1.425781 11.101562c.027344.027344.058594.058594.089844.085938.175781.148438.359375.285156.546875.414062.1875.128907.382812.25.585938.359376.199218.109374.40625.210937.617187.296874.210937.089844.425781.167969.644531.234376.21875.070312.441406.125.664063.171874.226562.046876.449219.078126.679687.101563.226563.023437.453125.035156.683594.035156.160156 0 .324219-.003906.484375-.015625.230469-.015625.457031-.042968.683594-.082031.222656-.039063.449219-.089844.667969-.152344.222656-.0625.4375-.132812.652343-.214843.210938-.085938.421875-.179688.625-.28125.203125-.105469.402344-.21875.59375-.339844.195313-.125.378907-.257813.558594-.398438.179687-.144531.351563-.296875.515625-.453125.164062-.160156.320312-.328125.46875-.503906s.285156-.359375.414062-.546875c.128907-.1875.25-.382812.359376-.582031.109374-.203125.210937-.410157.296874-.621094.089844-.210937.167969-.425781.234376-.644531.070312-.21875.125-.441406.171874-.664063.046876-.222656.078126-.449219.101563-.679687.023437-.226563.035156-.453125.035156-.683594 0-.160156-.003906-.324219-.015625-.484375-.015625-.230469-.042968-.457031-.082031-.683594-.039063-.222656-.089844-.449219-.152344-.667969s-.132812-.4375-.21875-.648437c-.082031-.214844-.175781-.425781-.277343-.628906-.105469-.203125-.21875-.402344-.34375-.59375-.121094-.195313-.253907-.378907-.398438-.558594-.070312-.085937-.140625-.167969-.214844-.246094h-3.777344.011719c.152344.046875.300781.101563.445313.164063.144531.058594.285156.128906.425781.203125.136719.074219.269531.160156.402344.246093.128906.089844.253906.1875.375.289063.121093.097656.234375.207031.34375.320313.109375.113281.214843.230468.3125.351562.097656.125.191406.253906.273437.386719.085938.132812.164063.269531.238282.410156.070312.140625.132812.28125.191406.429687.054687.144532.105468.296876.148437.449219.042969.152344.078125.304688.105469.460938.023438.152343.042969.308593.054688.464843.007812.113282.011718.226563.011718.335938 0 .15625-.007812.316406-.023437.472656s-.039063.3125-.070313.464844c-.03125.15625-.070312.308594-.117187.457031-.046875.152344-.101563.300781-.160157.445313-.0625.144531-.132812.285156-.207031.425781-.074219.136719-.15625.269531-.246093.402344-.089844.128906-.183594.253906-.285157.375-.101562.121093-.210937.234375-.320312.34375-.113281.109375-.234375.214843-.355469.3125-.125.097656-.253906.191406-.386719.273437-.132812.085938-.269531.164063-.40625.238282-.140625.070312-.285156.132812-.433593.191406-.144532.054687-.296876.105468-.445313.148437-.152344.042969-.308594.078125-.464844.105469-.152343.023438-.308593.042969-.464843.054688-.113282.007812-.222657.011718-.335938.011718-.15625 0-.316406-.007812-.46875-.023437-.160156-.015625-.316406-.039063-.46875-.070313-.15625-.03125-.308594-.070312-.457031-.117187-.152344-.046875-.300781-.101563-.445313-.160157-.144531-.0625-.285156-.132812-.421875-.207031-.140625-.074219-.273437-.15625-.40625-.246093-.128906-.089844-.253906-.183594-.375-.285157-.117187-.101562-.234375-.210937-.34375-.320312-.109375-.113281-.214843-.234375-.3125-.355469-.097656-.125-.1875-.253906-.273437-.386719-.085938-.132812-.164063-.269531-.234375-.40625-.074219-.140625-.136719-.285156-.195313-.433593-.039062-.109376-.078125-.222657-.109375-.335938zm0 0" fill="#d76100"/><path d="m1.425781 7.3125c.03125.113281.070313.226562.109375.335938.058594.148437.121094.292968.195313.433593.070312.136719.148437.273438.234375.40625.085937.132813.175781.261719.273437.386719.097657.121094.203125.242188.3125.355469.109375.109375.226563.21875.34375.320312.121094.101563.246094.195313.375.285157.132813.089843.265625.171874.40625.246093.136719.074219.277344.144531.421875.207031.144532.058594.292969.113282.445313.160157.148437.046875.300781.085937.457031.117187.152344.03125.308594.054688.46875.070313.152344.015625.3125.023437.46875.023437.113281 0 .222656-.003906.335938-.011718.15625-.011719.3125-.03125.464843-.054688.15625-.027344.3125-.0625.464844-.105469.148437-.042969.300781-.09375.445313-.148437.148437-.058594.292968-.121094.433593-.191406.136719-.074219.273438-.152344.40625-.238282.132813-.082031.261719-.175781.386719-.273437.121094-.097657.242188-.203125.355469-.3125.109375-.109375.21875-.222657.320312-.34375.101563-.121094.195313-.246094.285157-.375.089843-.132813.171874-.265625.246093-.402344.074219-.140625.144531-.28125.207031-.425781.058594-.144532.113282-.292969.160157-.445313.046875-.148437.085937-.300781.117187-.457031.03125-.152344.054688-.308594.070313-.464844s.023437-.316406.023437-.472656c0-.109375-.003906-.222656-.011718-.335938-.011719-.15625-.03125-.3125-.054688-.464843-.027344-.15625-.0625-.308594-.105469-.460938-.042969-.152343-.09375-.304687-.148437-.449219-.058594-.148437-.121094-.289062-.191406-.429687-.074219-.140625-.152344-.277344-.238282-.410156-.082031-.132813-.175781-.261719-.273437-.386719-.097657-.121094-.203125-.238281-.3125-.351562-.109375-.113282-.222657-.222657-.34375-.320313-.121094-.101563-.246094-.199219-.375-.289063-.132813-.085937-.265625-.171874-.402344-.246093-.140625-.074219-.28125-.144531-.425781-.203125-.144532-.0625-.292969-.117188-.445313-.164063-.003906 0-.007812 0-.011719-.003906h-1.714843c-2.316407 0-4.183594 1.867187-4.183594 4.183594zm0 0" fill="#ab1406"/></g><path d="m6.730469 7.21875v.703125l.933593.070313.152344.214843-1.503906 8.011719-.234375.222656-.949219.070313v.730469h4.164063v-.730469l-.925781-.0625-.160157-.230469.617188-3.355469h.941406l1.355469 2.847657c.550781 1.136718.941406 1.625 2.136718 1.640624.34375.003907.480469.027344 1.410157 0 3.199219-2.671874 4.832031-4.707031 5.089843-5.628906.15625-.558594-.09375-.898437-.625-.898437-.257812 0-.554687.109375-.890624.328125l-.238282 1.914062c-.65625.855469-1.527344 1.789063-2.59375 2.761719l.703125-3.679687c.148438-.75.195313-1.152344-.292969-1.308594l-2.179687.480468-.117187.410157 1.007812.160156c.070312.261719-.007812.824219-.160156 1.691406l-.492188 2.699219c-.007812.027344-.011718.058594-.015625.089844-.320312-.171875-.519531-.476563-.75-.933594l-1.914062-3.832031 3.5-3.542969 1.195312-.113281-.003906-.730469h-3.738281v.730469l.925781.070312.089844.238281-3.75 3.867188h-.445313l.742188-3.917969.195312-.214843.988282-.070313v-.703125zm0 0" fill="#fff"/></svg>