<svg height="24pt" viewBox="0 0 24 24" width="24pt" xmlns="http://www.w3.org/2000/svg"><g fill-rule="evenodd"><path d="m5.605469 1.421875h12.789062c2.308594 0 4.183594 1.875 4.183594 4.183594v12.789062c0 2.308594-1.875 4.183594-4.183594 4.183594h-12.789062c-2.308594 0-4.183594-1.875-4.183594-4.183594v-12.789062c0-2.308594 1.875-4.183594 4.183594-4.183594zm0 0" fill="#6929d8"/><path d="m5.441406 4.066406c-.503906 0-.929687.277344-1.175781.597656-.246094.324219-.359375.699219-.359375 1.097657v8.460937c0 .394532.113281.773438.359375 1.09375.246094.324219.671875.597656 1.175781.597656h10.203125c.5 0 .929688-.273437 1.175781-.597656.246094-.320312.359376-.699218.359376-1.09375v-8.460937c0-.398438-.113282-.773438-.359376-1.097657-.246093-.320312-.675781-.597656-1.175781-.597656zm0 0" fill="#6929d8"/><path d="m5.917969 4.933594c-.261719 0-.492188.140625-.632813.328125-.144531.1875-.21875.425781-.21875.679687v.664063.023437 7.773438c0 .257812.074219.492187.21875.679687.140625.1875.371094.328125.632813.328125h10.203125c.257812 0 .488281-.140625.632812-.328125.140625-.1875.214844-.421875.214844-.679687v-7.769532s.003906-.003906.003906-.003906c0-.011718 0-.023437-.003906-.035156v-.652344c0-.253906-.074219-.492187-.214844-.679687-.144531-.1875-.375-.328125-.632812-.328125zm0 .683594h10.203125c.019531 0 .046875.007812.085937.0625.039063.050781.078125.148437.078125.261718v.6875c0 .089844-.0625.15625-.15625.15625h-10.222656c-.09375 0-.15625-.066406-.15625-.15625v-.6875c0-.113281.039062-.210937.078125-.261718.042969-.054688.066406-.0625.089844-.0625zm9.503906.144531c-.085937 0-.160156.050781-.191406.128906s-.015625.167969.046875.226563l.097656.097656-.085938.085937c-.082031.078125-.082031.210938 0 .289063.078126.082031.210938.082031.289063.003906l.089844-.089844.085937.089844c.078125.078125.210938.078125.289063-.003906.082031-.078125.082031-.210938 0-.289063l-.085938-.085937.085938-.089844c.074219-.078125.074219-.207031-.003907-.28125-.078124-.078125-.207031-.082031-.285156-.007812l-.085937.085937-.101563-.097656c-.035156-.039063-.089844-.0625-.144531-.0625zm-9.671875 1.675781c.050781.011719.101562.03125.15625.03125h10.222656c.054688 0 .105469-.019531.15625-.03125v6.964844c0 .117187-.039062.210937-.078125.265625-.039062.054687-.066406.058593-.085937.058593h-10.203125c-.023438 0-.046875-.003906-.089844-.058593-.039063-.054688-.078125-.148438-.078125-.265625zm0 0" fill="#fff"/><path d="m8.355469 8.085938c-.5 0-.929688.277343-1.175781.597656-.246094.320312-.359376.699218-.359376 1.09375v8.464844c0 .394531.113282.773437.359376 1.09375.246093.320312.675781.597656 1.175781.597656h10.203125c.503906 0 .929687-.277344 1.175781-.597656.246094-.320313.359375-.699219.359375-1.09375v-8.464844c0-.394532-.113281-.773438-.359375-1.09375-.246094-.320313-.671875-.597656-1.175781-.597656zm0 0" fill="#6929d8"/><g fill="#fff"><path d="m8.355469 8.777344c-.257813 0-.484375.140625-.625.324218-.144531.1875-.21875.421876-.21875.675782v8.464844c0 .25.074219.488281.21875.671874.140625.1875.367187.328126.625.328126h10.203125c.257812 0 .484375-.140626.628906-.328126.140625-.183593.214844-.421874.214844-.671874v-8.464844c0-.253906-.074219-.488282-.214844-.675782-.144531-.183593-.371094-.324218-.628906-.324218zm0 .671875h10.203125c.023437 0 .050781.007812.09375.0625.042968.054687.078125.152343.078125.265625v8.464844c0 .113281-.035157.210937-.078125.265624-.042969.054688-.070313.0625-.09375.0625h-10.203125c-.023438 0-.050781-.007812-.09375-.0625-.039063-.054687-.078125-.152343-.078125-.265624v-8.464844c0-.113282.039062-.210938.078125-.265625.042969-.054688.070312-.0625.09375-.0625zm0 0"/><path d="m8.347656 8.75c-.457031 0-.835937.378906-.835937.835938v.878906c0 .457031.378906.835937.835937.835937h10.222656c.457032 0 .832032-.378906.832032-.835937v-.878906c0-.457032-.375-.835938-.832032-.835938zm0 .671875h10.222656c.09375 0 .160157.070313.160157.164063v.878906c0 .09375-.066407.164062-.160157.164062h-10.222656c-.097656 0-.164062-.070312-.164062-.164062v-.878906c0-.09375.066406-.164063.164062-.164063zm0 0"/><path d="m8.355469 8.769531c-.261719 0-.488281.140625-.632813.328125-.140625.1875-.214844.425782-.21875.679688v.664062.023438 7.773437c0 .257813.078125.496094.21875.679688.144532.1875.371094.328125.632813.328125h10.203125c.261718 0 .492187-.140625.632812-.328125.144532-.183594.21875-.421875.21875-.679688v-7.765625c0-.003906 0-.007812 0-.007812.003906-.011719 0-.023438 0-.035156v-.652344c0-.253906-.074218-.492188-.21875-.679688-.140625-.1875-.371094-.328125-.632812-.328125zm0 .683594h10.203125c.023437 0 .046875.007813.089844.0625.039062.050781.078124.148437.078124.261719v.6875c0 .089844-.0625.15625-.15625.15625h-10.222656c-.09375 0-.15625-.066406-.15625-.15625v-.6875c0-.113282.035156-.210938.078125-.261719.039063-.054687.066407-.0625.085938-.0625zm9.5.175781c-.074219.007813-.136719.058594-.160157.128906-.027343.070313-.007812.148438.046876.199219l.09375.09375-.082032.082031c-.058594.046876-.082031.121094-.066406.191407.019531.070312.074219.125.144531.140625.070313.019531.144531-.007813.191407-.0625l.082031-.082032.082031.082032c.046875.054687.121094.074218.1875.058594.070312-.015626.125-.070313.140625-.140626.019531-.066406-.003906-.140624-.054687-.1875l-.082032-.082031.082032-.082031c.074218-.074219.074218-.199219 0-.273438-.078126-.074218-.199219-.074218-.273438 0l-.082031.082032-.09375-.09375c-.035157-.035156-.085938-.054688-.136719-.054688-.003906 0-.011719 0-.019531 0zm-9.664063 1.644532c.050782.011718.101563.03125.15625.03125h10.222656c.054688 0 .105469-.019532.15625-.03125v6.964843c0 .117188-.039062.210938-.078124.265625-.042969.054688-.066407.058594-.089844.058594h-10.203125c-.019531 0-.046875-.003906-.085938-.058594-.042969-.054687-.078125-.148437-.078125-.265625zm5.429688.675781c-.117188-.003907-.210938.035156-.285156.109375-.070313.074218-.109376.167968-.109376.28125v3.035156c0 .113281.039063.203125.109376.273438.074218.070312.171874.101562.285156.101562.113281 0 .203125-.035156.277344-.109375.074218-.070313.109374-.160156.109374-.265625v-1.339844l1.347657 1.472656c.085937.089844.15625.152344.210937.1875.054688.039063.117188.054688.183594.054688.117188 0 .214844-.027344.292969-.089844s.117187-.152344.117187-.273437c0-.074219-.019531-.140625-.058594-.203125-.039062-.0625-.09375-.125-.164062-.191406l-1.199219-1.269532.984375-.976562c.085938-.089844.152344-.167969.195313-.226563.039062-.0625.058593-.128906.058593-.191406 0-.113281-.039062-.203125-.113281-.273437-.078125-.070313-.167969-.109376-.273437-.105469-.109375-.003907-.210938.046875-.300782.144531l-1.28125 1.378906v-1.132812c0-.125-.035156-.21875-.109374-.289063-.070313-.070312-.164063-.105469-.277344-.101562zm-1.6875.601562-.507813.417969.460938.789062-.261719.640626-.902344.152343v.683594l.925782.234375.257812.628906-.589844.753906.5.523438.808594-.546875.644531.285156.210938.9375.691406-.003906.191406-.964844.640625-.253906.8125.523437.378906-.523437-.917968-.867187c-2.355469 2.160156-4.386719-1.167969-2.367188-2.5625v-.5l-.238281.121093zm0 0"/></g></g></svg>