<svg height="24pt" viewBox="0 0 24 24" width="24pt" xmlns="http://www.w3.org/2000/svg" xmlns:xlink="http://www.w3.org/1999/xlink"><filter id="a" height="100%" width="100%" x="0%" y="0%"><feColorMatrix in="SourceGraphic" type="matrix" values="0 0 0 0 1 0 0 0 0 1 0 0 0 0 1 0 0 0 1 0"/></filter><mask id="b"><g filter="url(#a)"><path d="m0 0h24v24h-24z" fill-opacity=".2"/></g></mask><clipPath id="c"><path d="m0 0h24v24h-24z"/></clipPath><mask id="d"><g filter="url(#a)"><path d="m0 0h24v24h-24z" fill-opacity=".2"/></g></mask><clipPath id="e"><path d="m0 0h24v24h-24z"/></clipPath><path d="m5.605469 1.421875h12.789062c2.308594 0 4.183594 1.875 4.183594 4.183594v12.789062c0 2.308594-1.875 4.183594-4.183594 4.183594h-12.789062c-2.308594 0-4.183594-1.875-4.183594-4.183594v-12.789062c0-2.308594 1.875-4.183594 4.183594-4.183594zm0 0" fill="#4ab3e4" fill-rule="evenodd"/><g clip-path="url(#c)" mask="url(#b)"><path d="m14.25 7.875c0 1.863281-1.511719 3.375-3.375 3.375s-3.375-1.511719-3.375-3.375 1.511719-3.375 3.375-3.375 3.375 1.511719 3.375 3.375zm0 0"/></g><g clip-path="url(#e)" mask="url(#d)"><path d="m12.75 7.875c0 1.035156-.839844 1.875-1.875 1.875s-1.875-.839844-1.875-1.875.839844-1.875 1.875-1.875 1.875.839844 1.875 1.875zm0 0" fill="#041218"/></g><path d="m10.859375 7.5c-1.125 0-1.125.75-1.128906 1.5-.007813.464844-.003907 1.429688.003906 2.859375.011719 2.28125.007813 2.996094-.019531 3.09375-.777344-.082031-1.953125-.394531-2.480469-.8125-.34375-.273437-.683594-.523437-.757813-.554687-.300781-.132813-.730468-.050782-.972656.191406-.171875.167968-.234375.320312-.25.589844-.011718.203124-.003906.253906.058594.390624.039062.085938.113281.199219.160156.257813.046875.054687.703125.902344 1.457032 1.886719 1.390624 1.820312 2.777343 2.496094 3.019531 2.566406.144531.039062 7.675781.042969 7.828125 0 .070312-.019531.167968-.082031.238281-.152344.101563-.097656.136719-.167968.214844-.40625.222656-.683594.441406-1.722656.503906-2.296875.027344-.667969.011719-.695312 0-1.238281 0-.011719-.003906-.019531-.003906-.027344.003906-.484375.003906-.890625 0-1.097656.003906-.75.003906-1.5-1.117188-1.5-1.015625 0-1.109375.613281-1.121093 1.285156 0 .019532-.007813.035156-.007813.054688 0-.183594.003906-.480469 0-.589844.003906-.75.003906-1.5-1.121094-1.5-1.007812 0-1.105469.605469-1.117187 1.273438-.003906 0-.007813 0-.011719.003906 0-.003906 0-.042969 0-.050782 0-.132812 0-.386718 0-.476562 0-.75.003906-1.5-1.121094-1.5-.855469 0-1.058593.433594-1.109375.972656 0 0-.019531.003906-.019531.003906-.015625.003907-.003906-.910156-.003906-1.898437 0-.675781.007812-1.078125 0-1.328125.003906-.75.003906-1.5-1.121094-1.5zm0 0" fill="#ebebeb"/></svg>