<svg height="24pt" viewBox="0 0 24 24" width="24pt" xmlns="http://www.w3.org/2000/svg"><path d="m5.605469 1.421875h12.789062c2.308594 0 4.183594 1.875 4.183594 4.183594v12.789062c0 2.308594-1.875 4.183594-4.183594 4.183594h-12.789062c-2.308594 0-4.183594-1.875-4.183594-4.183594v-12.789062c0-2.308594 1.875-4.183594 4.183594-4.183594zm0 0" fill="#b3b3b3" fill-rule="evenodd"/><path d="m11.988281 3.523438c-1.625 0-3.027343 1.511718-3.027343 3.390624 0 4.238282-2.421876 4.660157-2.421876 7.628907 0 3.277343 2.4375 5.933593 5.449219 5.933593 3.007813 0 5.449219-2.65625 5.449219-5.933593 0-2.96875-2.421875-3.390625-2.421875-7.628907 0-1.878906-1.402344-3.390624-3.027344-3.390624zm0 0" fill="#4f4f4f"/><path d="m11.988281 8.367188c-1.085937 0-1.816406.917968-1.816406 2.058593 0 2.574219-1.816406 2.832031-1.816406 4.632813 0 1.988281 1.625 3.601562 3.632812 3.601562 2.003907 0 3.632813-1.613281 3.632813-3.601562 0-1.800782-1.816406-2.058594-1.816406-4.632813 0-1.140625-.734376-2.058593-1.816407-2.058593zm0 0" fill="#fff"/><path d="m9.273438 20.464844c-.183594-.027344-.34375-.082032-.695313-.234375-.527344-.230469-.773437-.300781-1.738281-.523438-.480469-.109375-.65625-.15625-1.074219-.292969-.152344-.046874-.355469-.109374-.449219-.136718-.261718-.078125-.328125-.105469-.421875-.179688-.132812-.101562-.191406-.257812-.167969-.433594.015626-.113281.054688-.222656.160157-.449218.144531-.300782.503906-.410156.527343-.707032.011719-.175781.003907-.371093-.042968-.78125-.027344-.246093-.03125-.332031-.03125-.488281 0-.167969 0-.050781.019531-.113281.0625-.242188.113281-.378906.34375-.441406.066406-.015625-.074219-.019532.238281-.023438.195313-.007812.304688-.011718.332032-.019531.132812-.027344.230468-.078125.320312-.167969.089844-.082031.148438-.527344.261719-.730468.175781-.3125.523437-.308594.808593-.320313.082032.015625.109376.027344.195313.078125.089844.050781.113281.074219.191406.15625.195313.207031.289063.332031.722657.996094.347656.523437.453124.691406.59375.933594.152343.269531.425781.699218.527343.828124.015625.023438.121094.15625.230469.296876.113281.140624.214844.273437.226562.292968.210938.292969.359376.628906.410157.964844.019531.117188.019531.136719.007812.269531-.011719.171875-.023437.242188-.042969.28125-.003906.015625-.023437.054688-.035156.089844-.160156.445313-.558594.78125-1.019531.855469-.097656.015625-.292969.015625-.398437 0zm0 0" fill="#eab108"/><path d="m16.355469 20.261719c.136719-.097657.25-.207031.480469-.472657.339843-.398437.332031-.558593 1.039062-1.128906.355469-.285156.480469-.398437.773438-.675781.105468-.101563.246093-.234375.3125-.296875.183593-.164062.230468-.214844.277343-.316406.066407-.132813.050781-.285156-.042969-.417969-.058593-.085937-.132812-.15625-.316406-.296875-.246094-.1875-.316406-.347656-.460937-.578125-.082031-.136719.027343-.480469-.105469-.832031-.078125-.207032-.113281-.28125-.175781-.40625-.070313-.136719-.082031-.160156-.125-.203125-.152344-.167969-.324219-.226563-.539063-.179688-.0625.011719-.097656.027344-.359375.148438-.160156.074219-.308593.140625-.332031.144531-.125.03125-.226562.03125-.335938-.003906-.109374-.03125-.191406.1875-.371093.070312-.121094-.078125-.25-.175781-.34375-.203125-.128907-.035156-.128907-.035156-.25-.023437-.117188.015625-.203125.046875-.296875.121094-.0625.046874-.078125.066406-.132813.144531-.050781.078125-.0625.105469-.09375.203125-.074219.246094-.097656.386718-.1875 1.101562-.070312.5625-.085937.742188-.101562 1-.011719.277344-.0625.738282-.09375.882813-.003907.023437-.035157.175781-.070313.335937-.03125.160156-.0625.308594-.066406.332032-.050781.320312-.035156.652343.0625.945312.035156.101562.039062.117188.105469.222656.078125.132813.117187.183594.148437.207032.011719.011718.042969.035156.070313.058593.316406.296875.785156.40625 1.199219.277344.089843-.027344.25-.105469.332031-.160156zm0 0" fill="#eab108"/><path d="m11.988281 6.550781c0 .667969-.542969 1.210938-1.210937 1.210938-.667969 0-1.210938-.542969-1.210938-1.210938s.542969-1.210937 1.210938-1.210937c.667968 0 1.210937.542968 1.210937 1.210937zm0 0" fill="#fff"/><path d="m11.382812 6.550781c0 .332031-.273437.605469-.605468.605469-.335938 0-.605469-.273438-.605469-.605469 0-.335937.269531-.605469.605469-.605469.332031 0 .605468.269532.605468.605469zm0 0" fill="#323232"/><path d="m13.804688 8.0625c0 1.171875-.8125 2.121094-1.816407 2.121094-1.003906 0-1.816406-.949219-1.816406-2.121094zm0 0" fill="#f77d00"/><path d="m14.410156 6.550781c0 .667969-.542968 1.210938-1.210937 1.210938s-1.210938-.542969-1.210938-1.210938.542969-1.210937 1.210938-1.210937 1.210937.542968 1.210937 1.210937zm0 0" fill="#fff"/><path d="m13.804688 6.550781c0 .332031-.273438.605469-.605469.605469-.335938 0-.605469-.273438-.605469-.605469 0-.335937.269531-.605469.605469-.605469.332031 0 .605469.269532.605469.605469zm0 0" fill="#323232"/><path d="m13.804688 8.164062c0 .203126-.8125 1.414063-1.816407 1.414063-1.003906 0-1.816406-1.210937-1.816406-1.414063 0-.554687.8125-1.007812 1.816406-1.007812 1.003907 0 1.816407.453125 1.816407 1.007812zm0 0" fill="#eab108"/><path d="m16.5 16.269531c-.699219 0-.703125-.582031-.84375-1.265625-.152344-.757812-.253906-1.199218.960938-1.261718 1.050781-.34375 1.214843 2.484374-.117188 2.527343zm0 0" fill="#4f4f4f"/></svg>