<svg height="24pt" viewBox="0 0 24 24" width="24pt" xmlns="http://www.w3.org/2000/svg"><path d="m5.605469 1.421875h12.789062c2.308594 0 4.183594 1.875 4.183594 4.183594v12.789062c0 2.308594-1.875 4.183594-4.183594 4.183594h-12.789062c-2.308594 0-4.183594-1.875-4.183594-4.183594v-12.789062c0-2.308594 1.875-4.183594 4.183594-4.183594zm0 0" fill="#225670" fill-rule="evenodd"/><path d="m4.65625 9.027344.054688 2.539062c.058593.40625.394531 1.136719.910156 1.710938.710937.800781 1.753906 1.304687 2.917968 1.304687h6.910157l2.589843 3.421875c1.292969 1.710938 2.753907.300782 2.589844-.855468l-.429687-8.125zm0 0" fill="#5f7c8a"/><path d="m7.703125 5.203125h8.625c2.148437 0 3.882813 1.695313 3.882813 3.808594 0 .964843-.363282 1.84375-.964844 2.515625-.710938.792968-1.753906 1.292968-2.917969 1.292968h-6.902344l-3.449219 5.074219c-1.304687 1.722657-2.859374.726563-2.585937-.84375l.429687-8.039062c.113282-2.109375 1.730469-3.808594 3.882813-3.808594zm0 0" fill="#7f96a1"/><g fill="#dfe5e8"><path d="m9.539062 8.292969v1.234375h-3.707031v-1.234375zm0 0"/><path d="m15.71875 8.910156c0 .339844-.277344.617188-.617188.617188-.339843 0-.617187-.277344-.617187-.617188 0-.34375.277344-.617187.617187-.617187.339844 0 .617188.273437.617188.617187zm0 0"/><path d="m18.191406 8.910156c0 .339844-.277344.617188-.617187.617188-.34375 0-.617188-.277344-.617188-.617188 0-.34375.273438-.617187.617188-.617187.339843 0 .617187.273437.617187.617187zm0 0"/><path d="m16.335938 8.292969c-.339844 0-.617188-.277344-.617188-.621094 0-.339844.277344-.617187.617188-.617187.34375 0 .621093.277343.621093.617187 0 .34375-.277343.621094-.621093.621094zm0 0"/><path d="m16.335938 10.765625c-.339844 0-.617188-.277344-.617188-.621094 0-.339843.277344-.617187.617188-.617187.34375 0 .621093.277344.621093.617187 0 .34375-.277343.621094-.621093.621094zm0 0"/><path d="m8.300781 10.765625h-1.234375v-3.710937h1.234375zm0 0"/></g></svg>