<svg height="24pt" viewBox="0 0 24 24" width="24pt" xmlns="http://www.w3.org/2000/svg" xmlns:xlink="http://www.w3.org/1999/xlink"><symbol id="a" overflow="visible"><path d="m .28125-2.1875h.9375c.269531 0 .476562.0625.625.1875.15625.125.234375.304688.234375.53125 0 .230469-.078125.40625-.234375.53125-.148438.117188-.355469.171875-.625.171875h-.375v.765625h-.5625zm.5625.40625v.609375h.3125c.101562 0 .1875-.023437.25-.078125.0625-.050781.09375-.125.09375-.21875 0-.101562-.03125-.179688-.09375-.234375-.0625-.050781-.148438-.078125-.25-.078125zm0 0"/></symbol><symbol id="b" overflow="visible"><path d="m .28125-2.1875h.625l.796875 1.5v-1.5h.53125v2.1875h-.625l-.796875-1.5v1.5h-.53125zm0 0"/></symbol><symbol id="c" overflow="visible"><path d="m2.234375-.15625c-.136719.0625-.28125.1171875-.4375.15625-.148437.03125-.304687.046875-.46875.046875-.367187 0-.652344-.0976562-.859375-.296875-.210938-.207031-.3125-.488281-.3125-.84375 0-.351562.101562-.628906.3125-.828125.21875-.207031.515625-.3125.890625-.3125.144531 0 .285156.015625.421875.046875.132812.03125.257812.074219.375.125v.453125c-.117188-.070313-.234375-.125-.359375-.15625s-.246094-.046875-.359375-.046875c-.230469 0-.40625.0625-.53125.1875-.117188.125-.171875.304688-.171875.53125 0 .230469.054687.414062.171875.546875.113281.125.28125.1875.5.1875.0625 0 .113281-.003906.15625-.015625.050781-.007812.097656-.019531.140625-.03125v-.4375h-.34375v-.375h.875zm0 0"/></symbol><symbol id="d" overflow="visible"><path d="m .453125-3.640625h1.5625c.46875 0 .820313.105469 1.0625.3125.25.199219.375.492187.375.875 0 .386719-.125.683594-.375.890625-.242187.199219-.59375.296875-1.0625.296875h-.609375v1.265625h-.953125zm.953125.671875v1.015625h.515625c.175781 0 .3125-.039063.40625-.125.101563-.09375.15625-.21875.15625-.375 0-.164063-.054687-.289063-.15625-.375-.09375-.09375-.230469-.140625-.40625-.140625zm0 0"/></symbol><symbol id="e" overflow="visible"><path d="m1.40625-2.9375v2.234375h.328125c.382813 0 .675781-.09375.875-.28125.207031-.195313.3125-.476563.3125-.84375 0-.363281-.105469-.640625-.3125-.828125-.199219-.1875-.492187-.28125-.875-.28125zm-.953125-.703125h1c .550781 0 .960937.042969 1.234375.125.269531.074219.503906.203125.703125.390625.164063.167969.289063.359375.375.578125.082031.210937.125.449219.125.71875 0 .28125-.042969.53125-.125.75-.085937.210937-.210937.398437-.375.5625-.199219.1875-.4375.324219-.71875.40625-.273437.0742188-.679687.109375-1.21875.109375h-1zm0 0"/></symbol><symbol id="f" overflow="visible"><path d="m .453125-3.640625h2.546875v.703125h-1.59375v.6875h1.5v.703125h-1.5v1.546875h-.953125zm0 0"/></symbol><g fill-rule="evenodd"><path d="m5.605469 1.320312h12.789062c2.308594 0 4.183594 1.875 4.183594 4.183594v12.789063c0 2.308593-1.875 4.179687-4.183594 4.179687h-12.789062c-2.308594 0-4.183594-1.871094-4.183594-4.179687v-12.789063c0-2.308594 1.875-4.183594 4.183594-4.183594zm0 0" fill="#6787c3"/><path d="m21.351562 21.355469-18.703124-18.710938c0 .003907-.0625-.042969-.0625-.042969-.796876.757813-1.164063 1.855469-1.164063 3.003907v12.789062c0 2.316407 1.867187 4.183594 4.183594 4.183594h12.789062c1.160157 0 2.203125-.46875 2.957031-1.222656zm0 0" fill="#d51f33"/><path d="m21.355469 21.355469c.753906-.757813 1.222656-1.800781 1.222656-2.960938v-12.789062c0-2.316407-1.867187-4.183594-4.183594-4.183594h-12.789062c-1.15625 0-2.203125.46875-2.957031 1.222656l18.703124 18.710938c0-.003907.003907 0 .003907 0zm0 0" fill="#6787c3"/></g><path d="m17 6.265625c1.921875 1.921875 3.496094 3.507813 3.496094 3.523437 0 .03125-6.980469 7.011719-7.011719 7.011719-.011719 0-.023437-1.039062-.023437-2.3125v-2.316406h-.367188c-3.105469.003906-5.238281.933594-6.144531 2.679687-.558594 1.082032-.664063 2.523438-.292969 4.046876.164062.675781.519531 1.632812.828125 2.230468.144531.285156.179687.363282.164063.363282-.035157 0-.671876-.785157-.914063-1.125-.148437-.210938-.578125-.855469-.578125-.871094 0-.003906-.066406-.128906-.152344-.277344-.78125-1.347656-1.269531-3.015625-1.335937-4.566406-.074219-1.707032.449219-3.375 1.453125-4.625.265625-.332032.390625-.460938.746094-.773438 1.457031-1.273437 3.570312-1.949218 6.105468-1.949218h.488282v-2.269532c0-1.25.011718-2.269531.023437-2.269531s1.59375 1.574219 3.515625 3.5zm0 0" fill="#fff"/><g fill="#6787c3"><use x="9.671875" xlink:href="#a" y="11.138184"/><use x="12.143066" xlink:href="#b" y="11.138184"/><use x="14.965088" xlink:href="#c" y="11.138184"/></g><g fill="#fff"><use x="7.519531" xlink:href="#d" y="21.433594"/><use x="10.850586" xlink:href="#e" y="21.433594"/><use x="14.623291" xlink:href="#f" y="21.433594"/></g></svg>