<svg height="24pt" viewBox="0 0 24 24" width="24pt" xmlns="http://www.w3.org/2000/svg"><path d="m5.605469 1.421875h12.789062c2.308594 0 4.183594 1.875 4.183594 4.183594v12.789062c0 2.308594-1.875 4.183594-4.183594 4.183594h-12.789062c-2.308594 0-4.183594-1.875-4.183594-4.183594v-12.789062c0-2.308594 1.875-4.183594 4.183594-4.183594zm0 0" fill="#4f4f4f" fill-rule="evenodd"/><g fill="none" stroke-linecap="round" stroke-width="2" transform="matrix(.75 0 0 .75 -.000071 .024135)"><path d="m5.000094 15.988653s4 .65625 4-1.916667c0-2.572916-3.984375-2.098958-3.984375-2.098958m0 8v-8" stroke="#a287e9" stroke-linejoin="bevel"/><path d="m19.000094 19.983445v-7.994792m-5.989583 0 2.989583 4.010417 3-4.010417m-5.989583 7.994792v-7.994792" stroke="#ffb042" stroke-linejoin="round"/><path d="m23.000094 16.988653h4m-4 2.984375v-5.869792m4 5.869792v-5.869792m-4 0s-.088541-2.130208 2-2.130208c2.088542 0 2 2.130208 2 2.130208" stroke="#ffb042" stroke-linejoin="bevel"/></g></svg>