<svg height="24pt" viewBox="0 0 24 24" width="24pt" xmlns="http://www.w3.org/2000/svg"><path d="m5.605469 1.421875h12.789062c2.308594 0 4.183594 1.875 4.183594 4.183594v12.789062c0 2.308594-1.875 4.183594-4.183594 4.183594h-12.789062c-2.308594 0-4.183594-1.875-4.183594-4.183594v-12.789062c0-2.308594 1.875-4.183594 4.183594-4.183594zm0 0" fill="#771b85" fill-rule="evenodd"/><path d="m17.875 5.105469-7.996094 1.84375c-1.125.140625-1.082031 1.296875-1.082031 1.296875v4.917968c-.261719-.074218-.53125-.113281-.800781-.113281-1.621094 0-2.9375 1.3125-2.9375 2.9375 0 1.621094 1.316406 2.933594 2.9375 2.933594 1.515625 0 2.785156-1.15625 2.921875-2.667969h.015625v-7.390625l5.871094-1.398437v4.097656c-.257813-.074219-.527344-.113281-.800782-.113281-1.621094 0-2.9375 1.3125-2.9375 2.933593 0 1.625 1.316406 2.9375 2.9375 2.9375 1.519532 0 2.785156-1.15625 2.925782-2.667968h.011718v-8.542969s.015625-1.230469-1.066406-1.003906zm0 0" fill="#eb743b"/><path d="m19.910156 14.085938c-.707031-1.222657-3.59375-.855469-4.226562-.503907l-5.164063 2.964844c-.273437.15625-.367187.5-.207031.769531l1.984375 3.425782c.160156.269531.503906.363281.777344.207031l5.164062-2.964844c.402344-.242187 2.382813-2.675781 1.671875-3.898437zm-.980468.566406c.15625.269531.0625.613281-.210938.769531-.269531.15625-.617188.066406-.773438-.207031-.15625-.269532-.066406-.613282.207032-.769532.269531-.15625.617187-.0625.777344.207032zm0 0" fill="#fff"/><path d="m11.085938 17.523438.285156.488281.492187-.28125 1.136719 1.957031.488281-.28125-1.132812-1.957031.492187-.285157-.285156-.488281-.492188.28125-.492187.285157zm1.96875-1.128907.28125.488281.285156.488282.285156.492187.566406.976563.492188-.28125-.566406-.980469.492187-.28125.566406.976563.492188-.28125-1.421875-2.445313-.980469.566406zm1.964843-1.128906.285157.488281 1.136718 1.957032.492188-.28125.984375-.566407-.285157-.488281-.140624-.246094.246093-.140625-.285156-.488281-.984375.5625.285156.492188.246094-.144532.140625.246094-.492187.28125-.851563-1.464844.984375-.566406-.285156-.488281zm-1.191406 1.335937.492187-.285156.285157.492188-.492188.28125zm0 0" fill="#999"/></svg>