<svg height="24pt" viewBox="0 0 24 24" width="24pt" xmlns="http://www.w3.org/2000/svg"><path d="m5.605469 1.421875h12.789062c2.308594 0 4.183594 1.875 4.183594 4.183594v12.789062c0 2.308594-1.875 4.183594-4.183594 4.183594h-12.789062c-2.308594 0-4.183594-1.875-4.183594-4.183594v-12.789062c0-2.308594 1.875-4.183594 4.183594-4.183594zm0 0" fill="#f2f2f2" fill-rule="evenodd"/><path d="m12.101562 12.03125c1.96875 3.585938 1.0625 10.402344-2.375 8.414062-1.007812-.578124-1.398437-1.191406-1.464843-1.761718-.527344.226562-1.253907.195312-2.261719-.386719-3.816406-2.203125 2.011719-6.179687 6.097656-6.261719" fill="#37a0f2"/><path d="m12.101562 12.03125c.136719 0 .277344-.007812.417969-.023438 4.027344-.34375 9.003907-4.324218 5.679688-6.242187-1.003907-.578125-1.730469-.613281-2.257813-.382813-.066406-.574218-.457031-1.183593-1.464844-1.765624-3.648437-2.109376-4.292968 4.226562-2.625 7.917968.078126.167969.046876.355469.132813.511719" fill="#e74c3c"/><path d="m11.96875 12.066406c.085938 4.089844 4.28125 9.539063 6.265625 6.101563.578125-1.007813.613281-1.734375.382813-2.261719.574218-.066406 1.183593-.457031 1.765624-1.460938 2.203126-3.820312-4.832031-4.347656-8.414062-2.378906" fill="#fecd38"/><path d="m11.96875 12.066406c-3.585938 1.96875-10.402344 1.0625-8.414062-2.375.582031-1.003906 1.191406-1.398437 1.761718-1.464844-.226562-.527343-.195312-1.25.386719-2.257812 2.203125-3.820312 6.179687 2.011719 6.265625 6.097656" fill="#a4c639"/></svg>