<svg height="24pt" viewBox="0 0 24 24" width="24pt" xmlns="http://www.w3.org/2000/svg"><path d="m5.605469 1.421875h12.789062c2.308594 0 4.183594 1.875 4.183594 4.183594v12.789062c0 2.308594-1.875 4.183594-4.183594 4.183594h-12.789062c-2.308594 0-4.183594-1.875-4.183594-4.183594v-12.789062c0-2.308594 1.875-4.183594 4.183594-4.183594zm0 0" fill="#e75177" fill-rule="evenodd"/><path d="m9.796875 4.847656c-.167969 0-.300781.140625-.300781.316406 0 .144532.089844.265626.210937.304688.1875.671875.625 1.304688 1.226563 1.765625-.121094.25-.183594.542969-.183594.839844 0 .457031.148438.894531.414062 1.199219v8.074218c0 .699219.335938 1.210938.835938 1.210938s.832031-.53125.835938-1.210938v-8.074218c.265624-.308594.414062-.742188.417968-1.203126-.003906-.292968-.066406-.585937-.1875-.835937.601563-.460937 1.039063-1.09375 1.226563-1.765625.121093-.039062.210937-.160156.210937-.304688 0-.175781-.132812-.316406-.300781-.316406-.164063 0-.296875.140625-.296875.316406 0 .097657.039062.183594.105469.242188-.171875.59375-.5625 1.152344-1.097657 1.566406-.234374-.328125-.566406-.511718-.914062-.511718s-.675781.183593-.914062.511718c-.535157-.414062-.925782-.972656-1.09375-1.566406.0625-.058594.101562-.144531.101562-.242188 0-.175781-.132812-.316406-.296875-.316406zm0 0" fill="#4f4f4f"/><path d="m7.410156 6.632812c-2.074218 0-3.757812 1.992188-3.757812 4.445313.003906 1.902344 1.03125 3.59375 2.554687 4.203125-.03125.210938-.050781.425781-.050781.640625 0 1.785156 1.121094 3.230469 2.503906 3.230469 1.382813 0 2.503906-1.445313 2.503906-3.230469v-4.84375c0-2.453125-1.679687-4.445313-3.753906-4.445313zm9.179688 0c-2.074219 0-3.753906 1.992188-3.753906 4.445313v4.84375c0 1.785156 1.121093 3.230469 2.503906 3.230469 1.382812 0 2.503906-1.445313 2.503906-3.230469 0-.214844-.019531-.429687-.050781-.640625 1.523437-.609375 2.550781-2.300781 2.554687-4.203125 0-2.453125-1.683594-4.445313-3.757812-4.445313zm0 0" fill="#fff"/><g fill="#ff85aa"><path d="m9.445312 10.910156c-.453124-1.621094-1.679687-2.71875-2.738281-2.445312-1.058593.269531-1.550781 1.808594-1.097656 3.429687.457031 1.625 1.683594 2.722657 2.742187 2.449219 1.058594-.273438 1.550782-1.808594 1.09375-3.433594zm0 0"/><path d="m14.554688 10.910156c.453124-1.621094 1.679687-2.71875 2.738281-2.445312 1.058593.269531 1.550781 1.808594 1.097656 3.429687-.457031 1.625-1.683594 2.722657-2.742187 2.449219-1.058594-.273438-1.550782-1.808594-1.09375-3.433594zm0 0"/><path d="m9.546875 16.175781c.21875.808594-.101563 1.59375-.722656 1.757813-.621094.160156-1.300781-.363282-1.523438-1.167969-.222656-.808594.101563-1.59375.722657-1.753906.617187-.164063 1.300781.359375 1.523437 1.164062zm0 0"/><path d="m14.453125 16.175781c-.21875.808594.101563 1.59375.722656 1.757813.621094.160156 1.300781-.363282 1.523438-1.167969.222656-.808594-.101563-1.59375-.722657-1.753906-.617187-.164063-1.300781.359375-1.523437 1.164062zm0 0"/><path d="m7.105469 8.425781c-.136719-.007812-.269531.003907-.398438.039063-1.058593.269531-1.550781 1.808594-1.097656 3.429687.457031 1.625 1.683594 2.722657 2.742187 2.449219 1.058594-.273438 1.550782-1.808594 1.09375-3.433594-.390624-1.398437-1.371093-2.4375-2.339843-2.484375zm9.789062 0c-.96875.046875-1.949219 1.085938-2.339843 2.484375-.457032 1.625.035156 3.160156 1.09375 3.433594 1.058593.273438 2.285156-.824219 2.742187-2.449219.453125-1.621093-.039063-3.160156-1.097656-3.429687-.128907-.035156-.261719-.046875-.398438-.039063zm-8.640625 6.554688c-.078125 0-.15625.011719-.230468.03125-.621094.160156-.945313.945312-.722657 1.753906.222657.804687.902344 1.328125 1.523438 1.167969.621093-.164063.941406-.949219.722656-1.753906-.191406-.695313-.734375-1.199219-1.292969-1.199219zm7.492188 0c-.5625 0-1.101563.503906-1.292969 1.199219-.21875.804687.101563 1.589843.722656 1.753906.621094.160156 1.300781-.363282 1.523438-1.167969.222656-.808594-.101563-1.59375-.722657-1.753906-.074218-.019531-.152343-.03125-.230468-.03125zm0 0"/></g></svg>