<svg height="24pt" viewBox="0 0 24 24" width="24pt" xmlns="http://www.w3.org/2000/svg"><path d="m5.605469 1.421875h12.789062c2.308594 0 4.183594 1.875 4.183594 4.183594v12.789062c0 2.308594-1.875 4.183594-4.183594 4.183594h-12.789062c-2.308594 0-4.183594-1.875-4.183594-4.183594v-12.789062c0-2.308594 1.875-4.183594 4.183594-4.183594zm0 0" fill="#303d75" fill-rule="evenodd"/><path d="m12 7.5c-.109375 0-.21875.007812-.328125.015625-.023437.003906-.050781.007813-.074219.007813-1.902344.207031-3.347656 1.8125-3.347656 3.726562v.027344c-1.289062.1875-2.25 1.292968-2.25 2.597656v.066406.058594c0 1.378906 1.121094 2.5 2.5 2.5h6.5c1.65625 0 3-1.34375 3-3-.003906-1.386719-.960938-2.59375-2.308594-2.910156-.289062-1.597656-1.574218-2.828125-3.179687-3.050782-.019531-.003906-.035157-.003906-.050781-.007812-.074219-.007812-.152344-.015625-.226563-.019531-.078125-.007813-.15625-.011719-.234375-.011719zm-.007812 1.5c.039062.003906.078124.003906.117187.007812h.035156c.046875.003907.089844.007813.136719.015626h.023438c.972656.136718 1.734374.867187 1.910156 1.832031.105468.585937.550781 1.054687 1.128906 1.191406.683594.164063 1.152344.753906 1.15625 1.453125-.003906.847656-.65625 1.5-1.5 1.5h-6.5c-.570312 0-1-.429688-1-1 0-.003906 0-.003906 0-.007812 0-.035157 0-.070313 0-.105469 0-.003907 0-.007813 0-.011719 0-.570312.402344-1.03125.964844-1.113281.75-.105469 1.296875-.753907 1.285156-1.511719 0-1.160156.855469-2.109375 2.007812-2.234375.011719 0 .023438-.003906.035157-.003906h.019531c.058594-.007813.121094-.007813.179688-.011719zm0 0" fill="#5d8cb9"/></svg>