<svg height="24pt" viewBox="0 0 24 24" width="24pt" xmlns="http://www.w3.org/2000/svg"><path d="m5.605469 1.421875h12.789062c2.308594 0 4.183594 1.875 4.183594 4.183594v12.789062c0 2.308594-1.875 4.183594-4.183594 4.183594h-12.789062c-2.308594 0-4.183594-1.875-4.183594-4.183594v-12.789062c0-2.308594 1.875-4.183594 4.183594-4.183594zm0 0" fill="#c2352a" fill-rule="evenodd"/><path d="m4.175781 4.175781v5.214844h5.214844v-5.214844zm6.519531 0v2.609375h1.304688v-1.304687h1.304688v-1.304688zm1.304688 2.609375v2.605469h1.304688v-2.605469zm0 2.605469h-1.304688v1.304687h1.304688zm0 1.304687v1.304688h1.304688v-1.304688zm1.304688 1.304688v1.304688h2.609374v-2.609376h-1.304687v1.304688zm2.609374 1.304688v1.304687h1.300782v1.304687h1.304687v-2.609374zm2.605469 0h1.304688v-2.609376h-2.609375v1.304688h1.304687zm-2.605469 1.304687h-1.304687v1.304687h1.304687zm-1.304687 1.304687h-1.304687v1.300782h1.304687zm0 1.300782v1.304687h1.304687v-1.304687zm1.304687 1.304687v1.304688h1.300782v-1.304688zm1.300782 0h2.609375v-1.304687h-2.609375zm-3.910156-1.304687h-2.609376v1.304687h1.304688v1.304688h1.304688zm0-1.300782v-2.609374h-2.609376v1.304687h1.304688v1.304687zm-2.609376-2.609374v-2.609376h-1.304687v1.304688h-1.304687v1.304688zm-2.609374-1.304688v-1.304688h-3.910157v2.609376h2.609375v-1.304688zm6.523437-7.824219v5.214844h5.214844v-5.214844zm-9.128906 1.304688h2.605469v2.605469h-2.605469zm10.433593 0h2.605469v2.605469h-2.605469zm-9.78125.652343v1.300782h1.300782v-1.300782zm10.433594 0v1.300782h1.300782v-1.300782zm-12.390625 8.476563v5.214844h5.214844v-5.214844zm1.304688 1.304687h2.605469v2.605469h-2.605469zm.652343.652344v1.300782h1.300782v-1.300782zm0 0" fill="#fef7c0"/></svg>