<svg height="24pt" viewBox="0 0 24 24" width="24pt" xmlns="http://www.w3.org/2000/svg"><path d="m5.605469 1.421875h12.789062c2.308594 0 4.183594 1.875 4.183594 4.183594v12.789062c0 2.308594-1.875 4.183594-4.183594 4.183594h-12.789062c-2.308594 0-4.183594-1.875-4.183594-4.183594v-12.789062c0-2.308594 1.875-4.183594 4.183594-4.183594zm0 0" fill="#02a8f3" fill-rule="evenodd"/><path d="m13.125 4.5c-.414062 0-.75.335938-.75.75v5.390625l-.796875.796875c-.277344-1.832031-1.851563-3.1875-3.703125-3.1875-2.070312 0-3.75 1.679688-3.75 3.75s1.679688 3.75 3.75 3.75c.8125 0 1.601562-.265625 2.25-.757812v3.757812c0 .414062.335938.75.75.75s.75-.335938.75-.75v-5.238281l.816406-.820313c.335938 1.773438 1.878906 3.058594 3.683594 3.058594 2.070312 0 3.75-1.679688 3.75-3.75s-1.679688-3.75-3.75-3.75c-.8125 0-1.601562.265625-2.25.757812v-3.757812c0-.414062-.335938-.75-.75-.75zm-5.25 5.25c1.242188 0 2.25 1.007812 2.25 2.25s-1.007812 2.25-2.25 2.25-2.25-1.007812-2.25-2.25 1.007812-2.25 2.25-2.25zm8.25 0c1.242188 0 2.25 1.007812 2.25 2.25s-1.007812 2.25-2.25 2.25-2.25-1.007812-2.25-2.25 1.007812-2.25 2.25-2.25zm0 0" fill="#015479"/></svg>