<svg height="24pt" viewBox="0 0 24 24" width="24pt" xmlns="http://www.w3.org/2000/svg" xmlns:xlink="http://www.w3.org/1999/xlink"><clipPath id="a"><path d="m0 0h24v24h-24z"/></clipPath><clipPath id="b"><path d="m0 0h24v24h-24z"/></clipPath><path d="m5.605469 1.421875h12.789062c2.308594 0 4.183594 1.875 4.183594 4.183594v12.789062c0 2.308594-1.875 4.183594-4.183594 4.183594h-12.789062c-2.308594 0-4.183594-1.875-4.183594-4.183594v-12.789062c0-2.308594 1.875-4.183594 4.183594-4.183594zm0 0" fill="#c4c4c4" fill-rule="evenodd"/><path d="m18.75 12c0 3.726562-3.023438 6.75-6.75 6.75s-6.75-3.023438-6.75-6.75 3.023438-6.75 6.75-6.75 6.75 3.023438 6.75 6.75zm0 0" fill="#3f3f3f"/><path d="m17.25 12c0-2.898438-2.351562-5.25-5.25-5.25s-5.25 2.351562-5.25 5.25 2.351562 5.25 5.25 5.25 5.25-2.351562 5.25-5.25zm0 0" fill="#ba174e"/><path d="m15 12c0 1.65625-1.34375 3-3 3s-3-1.34375-3-3 1.34375-3 3-3 3 1.34375 3 3zm0 0" fill="#d67495"/><g clip-path="url(#a)"><path d="m21.367188 16.617188c0 2.484374-2.015626 4.5-4.5 4.5-2.484376 0-4.5-2.015626-4.5-4.5 0-2.488282 2.015624-4.5 4.5-4.5 2.484374 0 4.5 2.011718 4.5 4.5zm0 0" fill="#55cc98"/></g><g clip-path="url(#b)"><path d="m16.300781 14.363281-.050781.59375c-.191406.070313-.367188.171875-.523438.300781l-.542968-.253906-.566406.972656.492187.339844c-.015625.097656-.027344.199219-.027344.296875 0 .101563.011719.203125.027344.300781l-.492187.339844.566406.972656.542968-.253906c.15625.128906.332032.230469.523438.300782l.050781.59375h1.132813l.050781-.59375c.191406-.070313.367187-.171876.523437-.300782l.542969.253906.566407-.972656-.492188-.339844c.015625-.097656.023438-.199218.027344-.296874 0-.101563-.011719-.203126-.027344-.300782l.492188-.339844-.566407-.972656-.542969.253906c-.15625-.128906-.332031-.230468-.523437-.296874l-.050781-.59375h-1.132813zm.566407 1.609375c.359374 0 .648437.289063.648437.640625 0 .355469-.289063.644531-.648437.644531-.359376 0-.648438-.289062-.648438-.644531 0-.351562.289062-.640625.648438-.640625zm0 0" fill="#fff"/></g></svg>