<svg height="24pt" viewBox="0 0 24 24" width="24pt" xmlns="http://www.w3.org/2000/svg"><path d="m5.605469 1.421875h12.789062c2.308594 0 4.183594 1.875 4.183594 4.183594v12.789062c0 2.308594-1.875 4.183594-4.183594 4.183594h-12.789062c-2.308594 0-4.183594-1.875-4.183594-4.183594v-12.789062c0-2.308594 1.875-4.183594 4.183594-4.183594zm0 0" fill="#d54747" fill-rule="evenodd"/><path d="m12.011719 6.003906c-.582031-.003906-1.164063.078125-1.726563.226563-2.621094.675781-4.324218 3.15625-4.285156 5.765625h-1.5l2.25 3.007812 2.25-3.007812h-1.5c-.003906-1.09375.171875-2.179688.929688-2.996094 1.320312-1.496094 3.941406-2.105469 5.832031-1.007812.628906.789062 2.023437-.078126 1.289062-.886719-1.039062-.777344-2.222656-1.097657-3.539062-1.101563zm5.238281 2.992188-2.25 3.007812h1.5c.003906 1.09375-.171875 2.183594-.929688 2.996094-1.421874 1.644531-3.941406 2.105469-5.832031 1.007812-.628906-.789062-2.023437.074219-1.289062.886719 1.039062.777344 2.222656 1.097657 3.539062 1.101563v-.003906c.585938.007812 1.164063-.074219 1.726563-.222657 2.621094-.675781 4.324218-3.15625 4.285156-5.765625h1.5zm0 0" fill="#fff"/></svg>