<svg height="24pt" viewBox="0 0 24 24" width="24pt" xmlns="http://www.w3.org/2000/svg"><path d="m5.605469 1.421875h12.789062c2.308594 0 4.183594 1.875 4.183594 4.183594v12.789062c0 2.308594-1.875 4.183594-4.183594 4.183594h-12.789062c-2.308594 0-4.183594-1.875-4.183594-4.183594v-12.789062c0-2.308594 1.875-4.183594 4.183594-4.183594zm0 0" fill="#31a3b3" fill-rule="evenodd"/><path d="m6.585938 4.285156 1.445312-.832031c.800781-.460937 1.867188-.105469 2.386719.789063l7.507812 13.007812c.519531.898438.292969 2-.507812 2.460938l-1.445313.835937c-.796875.460937-1.863281.105469-2.382812-.792969l-7.507813-13.007812c-.519531-.898438-.292969-2 .503907-2.460938zm0 0" fill="#fff"/><path d="m17.417969 4.289062-1.445313-.835937c-.800781-.460937-1.867187-.105469-2.386718.792969l-7.507813 13.007812c-.519531.898438-.292969 2 .507813 2.460938l1.445312.832031c.796875.460937 1.863281.105469 2.382812-.789063l7.507813-13.007812c.519531-.898438.292969-2-.503906-2.460938zm0 0" fill="#67bcc8"/><path d="m21.386719 12.832031v-1.667969c0-.921874-.839844-1.667968-1.878907-1.667968h-15.015624c-1.039063 0-1.878907.746094-1.878907 1.667968v1.667969c0 .921875.839844 1.667969 1.878907 1.667969h15.015624c1.039063 0 1.878907-.746094 1.878907-1.667969zm0 0" fill="#94d4de"/></svg>