<svg height="24pt" viewBox="0 0 24 24" width="24pt" xmlns="http://www.w3.org/2000/svg"><path d="m5.605469 1.421875h12.789062c2.308594 0 4.183594 1.875 4.183594 4.183594v12.789062c0 2.308594-1.875 4.183594-4.183594 4.183594h-12.789062c-2.308594 0-4.183594-1.875-4.183594-4.183594v-12.789062c0-2.308594 1.875-4.183594 4.183594-4.183594zm0 0" fill="#e73c4f" fill-rule="evenodd"/><path d="m12.601562 1.441406.007813 7.488282.007813 8.242187h2.273437l.003906-2.167969c.003907-1.714844.011719-2.164062.03125-2.15625.011719.003906.382813.660156.820313 1.457032.441406.796874.855468 1.539062.921875 1.648437.140625.230469.414062.546875.59375.683594.371093.285156.761719.429687 1.363281.511719.320312.042968 1.40625.058593 1.441406.019531.011719-.015625.019532-.40625.015625-1.242188l-.007812-1.214843-.398438-.015626c-.457031-.015624-.554687-.039062-.816406-.183593-.199219-.117188-.433594-.363281-.605469-.640625-.0625-.101563-.371094-.660156-.691406-1.246094-.558594-1.027344-.574219-1.0625-.546875-1.117188.019531-.03125.714844-1.152343 1.550781-2.496093.839844-1.34375 1.527344-2.457031 1.535156-2.476563.007813-.023437-.207031-.03125-1.347656-.03125h-1.359375l-1.222656 1.964844c-.671875 1.082031-1.234375 1.972656-1.25 1.976562-.019531.007813-.019531-6.257812-.007813-8.996093-.074218 0-.144531-.007813-.214843-.007813zm-5.058593 5.25c-.28125 0-.554688.015625-.683594.039063-1.082031.207031-1.847656.789062-2.261719 1.71875-.128906.292969-.210937.578125-.261718.925781-.035157.230469-.035157.332031-.027344.707031.007812.304688.019531.5.046875.652344.179687 1.023437.699219 1.671875 1.601562 2.007813.292969.109374.476563.152343 1.253907.28125.433593.074218.765624.140624.835937.167968.296875.121094.4375.339844.460937.730469.03125.472656-.199218.800781-.667968.9375-.1875.050781-.53125.082031-.769532.066406-.792968-.050781-1.3125-.246093-1.761718-.664062l-.050782-.050781-.679687.792968c-.371094.4375-.679687.8125-.679687.835938 0 .050781.3125.367187.554687.554687.605469.476563 1.25.703125 2.269531.789063.214844.019531 1.003906-.007813 1.1875-.039063 1.375-.242187 2.320313-1.0625 2.632813-2.285156.144531-.566406.140625-1.425781-.007813-2.0625-.109375-.464844-.25-.757813-.527344-1.082031-.285156-.339844-.535156-.515625-.96875-.6875-.292968-.113282-.539062-.167969-1.320312-.296875-.835938-.136719-.933594-.171875-1.125-.378907-.214844-.234374-.253906-.546874-.109375-.890624.105469-.242188.3125-.417969.613281-.515626.15625-.050781.78125-.054687 1.035156-.007812.335938.0625.648438.214844.875.425781.066407.0625.128907.113281.144532.113281.035156 0 1.335937-1.527343 1.335937-1.570312 0-.050781-.25-.300781-.496093-.492188-.46875-.367187-1.027344-.59375-1.726563-.695312-.15625-.023438-.441406-.03125-.722656-.027344zm0 0" fill="#fff"/></svg>