<svg height="24pt" viewBox="0 0 24 24" width="24pt" xmlns="http://www.w3.org/2000/svg"><path d="m5.605469 1.421875h12.789062c2.308594 0 4.183594 1.875 4.183594 4.183594v12.789062c0 2.308594-1.875 4.183594-4.183594 4.183594h-12.789062c-2.308594 0-4.183594-1.875-4.183594-4.183594v-12.789062c0-2.308594 1.875-4.183594 4.183594-4.183594zm0 0" fill="#3c6290" fill-rule="evenodd"/><path d="m16.160156 4.117188c-.382812-.003907-.765625.132812-1.050781.394531-.503906.460937-.628906 1.246093-.289063 1.855469.1875.339843.675782.671874 1.070313.734374.910156.136719 1.738281-.574218 1.738281-1.484374 0-.570313-.375-1.148438-.890625-1.375-.183593-.082032-.378906-.125-.578125-.125zm0 0" fill="#fff"/><path d="m11.999103 13.000121 2.598959-3h4.901041l3 3 2.5-3" fill="none" stroke="#fff" stroke-linecap="round" stroke-linejoin="round" stroke-width="2" transform="matrix(.75 0 0 .75 .379579 .367097)"/><path d="m6.499103 18.500121h5.302084l2.697916-3 4 3-1 6" fill="none" stroke="#fff" stroke-linecap="round" stroke-linejoin="round" stroke-width="3" transform="matrix(.75 0 0 .75 .379579 .367097)"/><path d="m9.90625 11.828125 3.753906-4.648437 2.285156 1.738281-3.753906 4.644531zm0 0" fill="#fff"/></svg>