<svg height="24pt" viewBox="0 0 24 24" width="24pt" xmlns="http://www.w3.org/2000/svg"><path d="m5.605469 1.421875h12.789062c2.308594 0 4.183594 1.875 4.183594 4.183594v12.789062c0 2.308594-1.875 4.183594-4.183594 4.183594h-12.789062c-2.308594 0-4.183594-1.875-4.183594-4.183594v-12.789062c0-2.308594 1.875-4.183594 4.183594-4.183594zm0 0" fill="#0d69bc" fill-rule="evenodd"/><path d="m12.023438 3.679688c-.058594 0-.113282.019531-.152344.058593-.578125.554688-1.164063 1.179688-1.691406 1.773438 0 .003906-.003907.003906-.003907.003906-1.304687 1.503906-2.296875 3.050781-3.015625 4.707031-.667968 1.542969-1.058594 2.878906-1.414062 4.824219-.078125.425781-.15625.941406-.210938 1.355469-.027344.207031-.050781.390625-.0625.523437-.003906.070313-.007812.125-.007812.167969-.003906.023438-.003906.042969 0 .066406 0 .011719.003906.023438.007812.042969.007813.023437.003906.0625.09375.117187.050782.027344.054688.023438.066406.023438.015626.003906.023438.003906.03125.007812.023438.003907.042969.003907.066407.007813.046875.003906.109375.007813.171875.011719.5.023437 1.238281.144531 1.726562.273437.328125.089844.546875.164063.871094.296875.074219.03125.140625.058594.191406.078125.027344.011719.046875.019531.0625.027344.007813 0 .015625.003906.019532.003906 0 0 0 0 .003906.003907 0 0 .003906 0 .007812.003906v-.003906c.003906.003906.007813.003906.011719.003906.003906.003906.003906.003906.007813.003906h-.007813c.015625.007812.03125.015625.054687.027344.054688.027344.128907.066406.210938.109375.789062.410156 1.378906.835937 2.324219 1.667969.121093.113281.238281.210937.324219.285156.046874.039062.082031.066406.109374.089844.015626.011718.027344.019531.039063.03125.007813.003906.015625.007812.023437.015624.007813.003907.015626.007813.027344.011719.011719.003907.023438.015625.078125.019531.066407.003907.082031-.011718.097657-.015624.011718-.007813.019531-.011719.023437-.015626.011719-.003906.019531-.011718.027344-.015624.011719-.007813.027343-.019532.042969-.03125.03125-.023438.070312-.058594.117187-.097657.097656-.078125.222656-.1875.359375-.304687.777344-.683594 1.15625-.972656 1.699219-1.308594 1.183593-.726562 2.242187-1.050781 3.863281-1.175781l.132812-.011719c.105469-.007812.183594-.089844.183594-.1875v-.070312c0-.152344-.035156-.457032-.089844-.839844-.050781-.382813-.117187-.816406-.175781-1.144532-.355469-1.960937-.761719-3.34375-1.4375-4.90625-.613281-1.40625-1.484375-2.828124-2.53125-4.117187-.003906-.003906-.003906-.003906-.007812-.007813-.703125-.769531-1.382813-1.578124-2.125-2.328124-.039063-.039063-.089844-.058594-.144531-.0625zm0 0" fill="#0278dc"/><path d="m12.023438 3.683594c-.058594 0-.113282.019531-.152344.058594-.488282.472656-.976563.992187-1.4375 1.5l1.570312 9.109374 1.558594-9.09375c-.453125-.511718-.910156-1.023437-1.394531-1.511718-.039063-.039063-.089844-.058594-.144531-.0625zm-.019532 10.667968 4.785156-4.210937c-.328124-.742187-.734374-1.484375-1.191406-2.207031zm0 0 5.921875-.851562c-.148437-.601562-.3125-1.164062-.496093-1.710938zm0 0 6.328125 3 .019531-.003906c.105469-.007812.1875-.089844.183594-.1875v-.0625c0-.148437-.035156-.453125-.089844-.835937-.023437-.191407-.058593-.375-.085937-.574219l-.117187-.421875zm0 0 2.320313 4.171876.125-.042969c.441406-.261719.867187-.472657 1.3125-.632813zm0 0-.980468 5.214844c.117187.097656.230468.191406.363281.308594.121093.109375.238281.207031.324219.28125.042968.039062.082031.066406.109374.089844.015626.011718.027344.023437.039063.03125.007813.003906.015625.007812.023437.015625.003907 0 .007813 0 .007813.003906l.113281.019531.324219-.195312c.09375-.078125.203125-.167969.328125-.277344.117188-.105469.183594-.152344.285156-.242188zm0 0-3.722656 3.511719c.074219.027344.136719.050781.21875.082031.074219.03125.140625.058594.191406.078126.027344.011718.046875.019531.0625.027343.007813 0 .015625.003907.019532.003907 0 0 .003906.003906.003906.003906s.003906 0 .007812.003906v-.003906.003906c.003906 0 .007813 0 .011719.003906h.007813s-.003907 0-.007813 0c .015625.007813.03125.015625.054687.027344.054688.03125.128907.066406.210938.109375.210938.109375.40625.222656.597656.339844zm0 0-6.277344.824219c-.070312.402344-.140624.863281-.191406 1.242188-.027344.207031-.050781.390625-.0625.523437-.003906.066406-.007812.121094-.007812.164063v.003906c-.003906.015625 0 .035156 0 .054687 0 .011719.003906.023438.007812.042969.007813.019531.003906.0625.09375.117188.050782.027343.054688.023437.066406.023437.015626.003906.023438.007813.03125.007813.023438.003906.042969.003906.066407.007812.050781.003907.109375.007813.171875.011719.089844.003906.195312.015625.300781.023438zm0 0-5.429687-2.5625c-.175781.523438-.335938 1.0625-.476563 1.640626zm0 0-3.578125-6.453124c-.433593.679687-.8125 1.375-1.136719 2.089843zm0 0" fill="#48a0f8" fill-rule="evenodd"/></svg>