<svg height="24pt" viewBox="0 0 24 24" width="24pt" xmlns="http://www.w3.org/2000/svg"><path d="m5.605469 1.421875h12.789062c2.308594 0 4.183594 1.875 4.183594 4.183594v12.789062c0 2.308594-1.875 4.183594-4.183594 4.183594h-12.789062c-2.308594 0-4.183594-1.875-4.183594-4.183594v-12.789062c0-2.308594 1.875-4.183594 4.183594-4.183594zm0 0" fill="#fb7a24" fill-rule="evenodd"/><path d="m8.25 4.5c-2.070312 0-3.75 1.679688-3.75 3.75s1.679688 3.75 3.75 3.75c-2.070312 0-3.75 1.679688-3.75 3.75s1.679688 3.75 3.75 3.75 3.75-1.679688 3.75-3.75c0-.085938-.003906-.171875-.011719-.257812.003907 0 .007813.003906.011719.003906h.007812c-.003906.082031-.007812.167968-.007812.253906 0 2.070312 1.679688 3.75 3.75 3.75s3.75-1.679688 3.75-3.75-1.679688-3.75-3.75-3.75c-.003906 0-.007812 0-.011719 0h .011719c2.070312 0 3.75-1.679688 3.75-3.75s-1.679688-3.75-3.75-3.75c-1.972656 0-3.605469 1.527344-3.742188 3.496094-.003906 0-.003906 0-.007812 0s-.007812 0-.011719 0c-.136719-1.964844-1.769531-3.492188-3.738281-3.496094zm7.492188 2.230469c.511718-.003907.988281.25 1.269531.675781s.324219.96875.117187 1.433594c-.441406 1.027344-.820312 2.066406-1.578125 3.007812-.757812.941406-2.058593 1.652344-3.550781 1.652344-.898438 0-.886719.039062-1.128906.324219-.242188.285156-.644532 1.144531-1.246094 2.527343-.207031.503907-.667969.859376-1.210938.925782-.542968.066406-1.078124-.167969-1.394531-.609375-.320312-.445313-.375-1.023438-.144531-1.519531.585938-1.339844.9375-2.355469 1.707031-3.265626.773438-.910156 2.0625-1.382812 3.417969-1.382812.757812 0 .882812-.121094 1.214844-.53125.332031-.410156.699218-1.246094 1.15625-2.308594.230468-.558594.769531-.921875 1.371094-.929687zm-7.492188.019531c.828125 0 1.5.671875 1.5 1.5s-.671875 1.5-1.5 1.5-1.5-.671875-1.5-1.5.671875-1.5 1.5-1.5zm7.5 7.5c.828125 0 1.5.671875 1.5 1.5s-.671875 1.5-1.5 1.5-1.5-.671875-1.5-1.5.671875-1.5 1.5-1.5zm0 0" fill="#fff"/></svg>