<svg height="24pt" viewBox="0 0 24 24" width="24pt" xmlns="http://www.w3.org/2000/svg" xmlns:xlink="http://www.w3.org/1999/xlink"><clipPath id="a"><path d="m0 0h24v24h-24z"/></clipPath><clipPath id="b"><path d="m0 0h24v24h-24z"/></clipPath><clipPath id="c"><path d="m0 0h24v24h-24z"/></clipPath><clipPath id="d"><path d="m0 0h24v24h-24z"/></clipPath><path d="m5.605469 1.421875h12.789062c2.308594 0 4.183594 1.875 4.183594 4.183594v12.789062c0 2.308594-1.875 4.183594-4.183594 4.183594h-12.789062c-2.308594 0-4.183594-1.875-4.183594-4.183594v-12.789062c0-2.308594 1.875-4.183594 4.183594-4.183594zm0 0" fill="#fecd38" fill-rule="evenodd"/><g clip-path="url(#a)"><path d="m6.15625 8.105469v-.972657h11.6875v.972657zm0 0" fill-opacity=".521569"/></g><g clip-path="url(#b)"><path d="m6.15625 11.027344v-.976563h11.6875v.976563zm0 0" fill-opacity=".521569"/></g><g clip-path="url(#c)"><path d="m6.15625 13.949219v-.976563h11.6875v.976563zm0 0" fill-opacity=".521569"/></g><g clip-path="url(#d)"><path d="m6.15625 16.867188v-.972657h7.792969v.972657zm0 0" fill-opacity=".521569"/></g></svg>