<svg height="24pt" viewBox="0 0 24 24" width="24pt" xmlns="http://www.w3.org/2000/svg"><path d="m5.605469 1.421875h12.789062c2.308594 0 4.183594 1.875 4.183594 4.183594v12.789062c0 2.308594-1.875 4.183594-4.183594 4.183594h-12.789062c-2.308594 0-4.183594-1.875-4.183594-4.183594v-12.789062c0-2.308594 1.875-4.183594 4.183594-4.183594zm0 0" fill="#109d8f" fill-rule="evenodd"/><g fill="#fff"><path d="m7.15625 10.160156c-.429688 0-.78125.398438-.78125.886719v3.476563c0 .488281.351562.886718.78125.886718.433594 0 .71875-.398437.71875-.886718v-3.476563c0-.488281-.285156-.886719-.71875-.886719"/><path d="m8.625 10.160156v6.375c0 .179688.199219.375.375.375h1.125v1.40625c0 .46875.296875.84375.75.84375.449219 0 .765625-.375.75-.84375v-1.40625h.75v1.40625c0 .46875.296875.84375.75.84375.449219 0 .75-.382812.75-.84375v-1.40625h1.125c.175781 0 .375-.195312.375-.375v-6.375zm0 0"/><path d="m16.90625 10.160156c-.429688 0-.78125.398438-.78125.886719v3.476563c0 .488281.351562.886718.78125.886718.433594 0 .71875-.398437.71875-.886718v-3.476563c0-.488281-.285156-.886719-.71875-.886719"/><path d="m10.023438 4.839844-.648438.375.898438 1.554687c-1.640626.792969-1.648438 2.640625-1.648438 2.640625h6.75s-.007812-1.847656-1.648438-2.640625l.898438-1.554687-.648438-.375-.972656 1.679687c-.296875-.066406-.625-.109375-1.003906-.109375-.375 0-.707031.042969-1.003906.109375zm.476562 3.070312c.210938 0 .375.167969.375.375 0 .207032-.167969.375-.375.375s-.375-.167968-.375-.375c0-.207031.167969-.375.375-.375zm3 0c .210938 0 .375.167969.375.375 0 .207032-.167969.375-.375.375s-.375-.167968-.375-.375c0-.207031.167969-.375.375-.375zm0 0"/></g></svg>