<svg height="24pt" viewBox="0 0 24 24" width="24pt" xmlns="http://www.w3.org/2000/svg"><path d="m5.605469 1.421875h12.789062c2.308594 0 4.183594 1.875 4.183594 4.183594v12.789062c0 2.308594-1.875 4.183594-4.183594 4.183594h-12.789062c-2.308594 0-4.183594-1.875-4.183594-4.183594v-12.789062c0-2.308594 1.875-4.183594 4.183594-4.183594zm0 0" fill="#e6e6e6" fill-rule="evenodd"/><path d="m11.480469 20.105469c-.050781-.050781-.09375-.125-.09375-.164063 0-.054687-.023438-.066406-.082031-.039062-.046876.019531-.269532.042968-.492188.054687l-.414062.019531-.074219-.140624c-.066407-.125-.089844-.136719-.195313-.097657-.296875.109375-.589844.023438-.589844-.167969 0-.121093 0-.121093-.304687-.089843-.171875.015625-.355469.007812-.429687-.019531-.105469-.039063-.121094-.070313-.109376-.195313l.015626-.148437-.289063-.023438c-.339844-.027344-.457031-.101562-.417969-.257812.027344-.101563.011719-.113282-.128906-.113282-.199219 0-.320312-.089844-.367188-.257812-.03125-.109375-.058593-.128906-.160156-.117188-.195312.023438-.296875-.167968-.289062-.53125.011718-.289062-.011719-.335937-.109375-.238281-.03125.027344-.105469.042969-.164063.03125-.144531-.019531-.175781-.242187-.070312-.496094.082031-.203125.0625-.238281-.109375-.203125-.230469.042969-.285157-.117187-.167969-.484375.03125-.097656.023438-.109375-.054688-.078125-.1875.074219-.230468.054688-.246093-.121094-.007813-.101562.023437-.238281.082031-.355468.101562-.195313.097656-.203125-.082031-.191406-.171875.015624-.175781-.117188-.015625-.371094.082031-.125.148437-.246094.148437-.265625s-.054687-.058594-.117187-.089844c-.152344-.066406-.152344-.164063.003906-.382813.128906-.183593.117188-.269531-.035156-.269531-.195313 0-.171875-.253906.050781-.527343.113281-.136719.136719-.203126.113281-.316407-.015625-.082031-.066406-.179687-.117187-.222656-.046875-.042969-.089844-.117187-.089844-.164063 0-.09375.191406-.289062.367187-.378906.128907-.0625.136719-.148437.03125-.304687-.070312-.105469-.070312-.121094.003907-.230469.042969-.0625.148437-.148438.234375-.191406.085937-.039063.195312-.132813.238281-.207032.078125-.128906.078125-.140624-.003906-.226562-.132813-.148438-.011719-.3125.3125-.417969.339843-.113281.425781-.191406.34375-.316406-.121094-.1875 0-.304687.394531-.390625.207031-.042969.257812-.101562.226562-.253906-.019531-.113282-.003906-.144532.101563-.191406.117187-.050782.128906-.074219.101563-.21875-.070313-.40625-.082032-.636719-.039063-.664063.023437-.015625.109375-.003906.191406.027344.082031.027343.160157.042969.175781.027343.011719-.011718 0-.183593-.027343-.375-.03125-.195312-.042969-.425781-.023438-.515624.027344-.148438.042969-.164063.195313-.164063.1875 0 .183594.027344.09375-.390625-.09375-.417969-.089844-.464844.015625-.570312.171875-.167969.199219-.589844.078125-1.207032-.097656-.503906-.074219-.777344.070312-.777344.046875 0 .128906.050782.179688.113282.109375.132812.175781.144531.21875.042968.054687-.136718.027344-.253906-.109375-.515624-.152344-.292969-.289063-.707032-.289063-.871094 0-.164063.109375-.132813.390625.121094.269531.238281.488281.589843.625 1.003906.132813.390625.210938.324218.242188-.199219.019531-.355469.042969-.433594.117187-.433594.089844 0 .1875.28125.289063.8125.085937.476563.09375.640625.066406 1.269531-.019531.394532-.019531.769532 0 .824219l.035156.105469.21875-.265625.035157.132813c.015624.070312.019531.453124.007812.847656-.011719.394531-.015625.746094-.003906.777344.054687.144531.316406.003906.351562-.191407.035156-.175781.160156-.195312.375-.054687.113282.070312.269532.148437.347656.171875.125.03125.160157.023437.230469-.0625.074219-.097657.089844-.101563.234375-.042969.296875.117188.347656.101562.335938-.113281-.007813-.125.011718-.210938.058594-.25.042968-.03125.074218-.136719.074218-.246094.003906-.105469.019532-.230469.039063-.28125.023437-.054687-.019531-.242187-.121094-.527344-.257813-.726562-.191406-1.1875.125-.855469.160156.160157.238281.148438.238281-.042968 0-.101563-.101562-.347656-.285156-.695313-.382812-.730469-.382812-.914062.011719-.671875.269531.167969.53125.464844.773437.886719.261719.460937.328125.46875.292969.03125-.042969-.566406.113281-.667969.34375-.222656.226563.433593.285156.734375.335937 1.703125.027344.496094.066407.917968.089844.941406.027344.023438.078125-.027344.128906-.128906.15625-.324219.238282-.136719.28125.664062.035157.667969.03125.660156.1875.589844.113282-.050781.136719-.046875.214844.050781.050782.058594.089844.164063.089844.234375 0 .195313.117188.265625.285156.167969.121094-.070313.140625-.070313.207032-.003906.039062.039062.085937.144531.101562.242187.042969.261719.105469.378906.207031.378906.121094 0 .183594.085938.222657.304688.042968.277344.089843.328125.199218.230469.207032-.179688.34375.050781.226563.378906-.042969.109375-.074219.210937-.074219.222656s.09375.003907.214844-.011719c.199218-.03125.210937-.023437.210937.074219 0 .058594-.03125.140625-.070312.183594-.113281.117187-.042969.367187.097656.367187.0625 0 .132813.039063.164063.09375.042968.074219.027343.136719-.070313.304688-.148437.261719-.148437.273438.007813.347656.171874.082032.179687.140625.039062.300782-.144531.167968-.152344.222656-.023438.257812.105469.023438.128907.207031.039063.296875-.042969.042969-.039063.078125.03125.148437.070313.078126.074219.113282.03125.207032-.03125.066406-.109375.140625-.175781.171875-.132813.058593-.148438.136719-.042969.222656.054687.042969.0625.109375.039063.269531-.035157.242188-.089844.328125-.210938.328125-.132812 0-.148438.070313-.042969.195313.160157.203125.078125.378906-.128906.273437-.109375-.054687-.203125-.023437-.203125.066407 0 .039062.054688.160156.121094.273437.148437.246094.140625.40625-.027344.425781-.183594.027344-.210938.082032-.101562.230469.128906.179687.132812.363281.007812.402344-.121094.035156-.121094.132812.003906.300781.117188.164062.101563.292969-.042968.3125-.128907.015625-.132813.058594-.003907.171875.183594.164063.207031.253906.085938.34375-.097657.074219-.105469.09375-.054688.203125.125.265625.039063.527344-.144531.433594-.105469-.054688-.097656-.066406-.167969.175781-.042969.144531-.089843.203125-.195312.238281-.085938.027344-.144531.085938-.152344.148438-.023437.15625-.15625.21875-.265625.121094-.125-.109376-.140625-.101563-.179688.109374-.027343.175782-.125.320313-.210937.320313-.023437 0-.085937-.054687-.136719-.121094-.113281-.136719-.226562-.121093-.25.03125-.007812.058594-.054687.125-.101562.152344-.066406.042969-.101563.027344-.195313-.085937l-.113281-.136719-.136719.125c-.152343.140625-.289062.164062-.328125.058593-.039062-.097656-.101562-.085937-.265625.046876-.074219.0625-.167969.113281-.207031.113281s-.089844-.050781-.113281-.117188c-.027344-.0625-.054688-.113281-.066407-.113281-.007812 0-.140624.050781-.292968.117188-.320313.136718-.5.132812-.566406-.015626-.03125-.066406-.070313-.09375-.117188-.074218-.359375.152344-.476562.175781-.570312.121094-.078126-.046876-.148438-.046876-.375.011718-.363282.09375-.457032.089844-.570313-.023437zm0 0" fill="#4f4f4f"/><path d="m13.34375 15.289062c-.0625 0-.125.003907-.1875.015626-.523438.105468-1.148438.484374-1.484375.90625-.246094.308593-.378906.671874-.414063 1.109374l-.023437.324219.25.265625c.417969.445313.859375.589844 1.753906.566406.394531-.011718.535157-.03125.691407-.113281.265624-.132812.378906-.285156.445312-.59375.070312-.328125.035156-1.378906-.058594-1.699219-.132812-.464843-.535156-.777343-.972656-.78125zm.480469 1.085938c.105469 0 .121093.019531.121093.140625 0 .101563-.023437.148437-.089843.167969-.082031.019531-.085938.035156-.023438.175781.082031.191406.089844.664063.011719.828125-.105469.226562-.492188.335938-.820312.238281-.226563-.070312-.308594-.199219-.308594-.511719 0-.558593.511718-1.039062 1.109375-1.039062zm0 0" fill="#929292"/><path d="m13.488281 17.660156c.328125-.144531.273438-.777344-.066406-.777344-.164063 0-.421875.285157-.421875.464844 0 .175782.03125.234375.164062.308594.121094.066406.183594.066406.324219.003906zm0 0" fill="#fff"/><path d="m16.613281 18.105469c.136719-.097657.191407-.535157.164063-1.292969-.023438-.722656-.085938-1.011719-.238282-1.101562-.070312-.042969-.105468-.027344-.195312.082031-.167969.199219-.445312.949219-.453125 1.210937 0 .03125.0625-.007812.136719-.078125.097656-.097656.1875-.136719.296875-.136719.144531 0 .167969.019532.269531.238282.128906.269531.125.636718-.011719.765625-.160156.15625-.652343.042969-.707031-.160157-.011719-.046874-.011719-.015624-.003906.070313.019531.195313.089844.277344.328125.382813.222656.097656.300781.101562.414062.019531zm0 0" fill="#929292"/><path d="m16.433594 17.59375c.105468-.105469.089844-.273438-.035156-.417969-.144532-.160156-.300782-.121093-.359376.089844-.058593.222656.019532.398437.183594.398437.074219 0 .167969-.03125.210938-.070312zm0 0" fill="#fff"/></svg>