<svg height="24pt" viewBox="0 0 24 24" width="24pt" xmlns="http://www.w3.org/2000/svg"><path d="m5.605469 1.421875h12.789062c2.308594 0 4.183594 1.875 4.183594 4.183594v12.789062c0 2.308594-1.875 4.183594-4.183594 4.183594h-12.789062c-2.308594 0-4.183594-1.875-4.183594-4.183594v-12.789062c0-2.308594 1.875-4.183594 4.183594-4.183594zm0 0" fill="#f7931a" fill-rule="evenodd"/><path d="m9.757812 5.25v2.25h-2.25v1.5s.859376-.015625.84375 0c .460938-.007812.605469.328125.65625.550781v4.949219c-.019531.140625-.003906.488281-.324218.5.011718.011719-1.175782 0-1.175782 0v1.5h1.625c.273438-.011719.359376 0 .625 0v2.25h1.5v-2.25h.734376l.03125 2.25h1.484374l-.015624-2.25c1.90625-.136719 3.015624-1.050781 3-2.625.015624-1.449219-1.144532-2.246094-1.859376-2.25.714844.003906 1.125-.777344 1.125-1.875 0-1.5-1.035156-2.25-2.25-2.25v-2.25h-1.5v2.25c-.300781 0-.449218-.011719-.75 0v-2.25zm1.5 3.75c1.5 0 2.25 0 2.25 1.125s-.75 1.125-2.25 1.125zm0 3.75c1.996094 0 3-.125 3 1.125s-1.003906 1.125-3 1.125zm0 0" fill="#fff"/></svg>