<svg height="24pt" viewBox="0 0 24 24" width="24pt" xmlns="http://www.w3.org/2000/svg" xmlns:xlink="http://www.w3.org/1999/xlink"><filter id="a" height="100%" width="100%" x="0%" y="0%"><feColorMatrix in="SourceGraphic" type="matrix" values="0 0 0 0 1 0 0 0 0 1 0 0 0 0 1 0 0 0 1 0"/></filter><mask id="b"><g filter="url(#a)"><path d="m0 0h24v24h-24z" fill-opacity=".101961"/></g></mask><clipPath id="c"><path d="m0 0h24v24h-24z"/></clipPath><mask id="d"><g filter="url(#a)"><path d="m0 0h24v24h-24z" fill-opacity=".2"/></g></mask><clipPath id="e"><path d="m0 0h24v24h-24z"/></clipPath><path d="m5.605469 1.421875h12.789062c2.308594 0 4.183594 1.875 4.183594 4.183594v12.789062c0 2.308594-1.875 4.183594-4.183594 4.183594h-12.789062c-2.308594 0-4.183594-1.875-4.183594-4.183594v-12.789062c0-2.308594 1.875-4.183594 4.183594-4.183594zm0 0" fill="#cbbb2e" fill-rule="evenodd"/><g fill="#fff"><path d="m19.999816 3.996565-7.998973 8.006831" stroke="#fff" stroke-width="6" transform="matrix(.497134 0 0 .497134 3.79569 4.294421)"/><path d="m10.257812 9.761719h-3.976562v8.453125h3.976562zm0 0"/><path d="m10.257812 17.21875c.496094 0 .496094.5.496094.5v.992188h-4.96875v-.992188c0-.5.496094-.5.496094-.5zm0 0"/></g><path d="m11.253906 17.71875c.496094 0 .496094.496094.496094.496094v.992187h-6.960938v-.992187c0-.496094.496094-.496094.496094-.496094zm0 0" fill="#4f4f4f"/><path d="m19.001909 5.00233 3.999487 3.999487" fill="#fff" stroke="#fff" stroke-linecap="square" stroke-width="4" transform="matrix(.497134 0 0 .497134 3.79569 4.294421)"/><path d="m8.269531 8.769531c-1.648437 0-2.984375 1.335938-2.984375 2.980469 0 1.648438 1.335938 2.984375 2.984375 2.984375 1.648438 0 2.984375-1.335937 2.984375-2.984375 0-1.644531-1.335937-2.980469-2.984375-2.980469zm0 0" fill="#fff"/><path d="m8.269531 9.761719c-1.097656 0-1.988281.890625-1.988281 1.988281 0 1.101562.890625 1.988281 1.988281 1.988281 1.097657 0 1.988281-.886719 1.988281-1.988281 0-1.097656-.890624-1.988281-1.988281-1.988281zm0 0" fill="#4f4f4f"/><g clip-path="url(#c)" mask="url(#b)"><path d="m8.269531 10.261719c-.824219 0-1.492187.667969-1.492187 1.488281 0 .824219.667968 1.492188 1.492187 1.492188s1.492188-.667969 1.492188-1.492188c0-.820312-.667969-1.488281-1.492188-1.488281zm0 0" fill="#fff"/></g><path d="m13.242188 4.792969c-1.097657 0-1.988282.890625-1.988282 1.988281s.890625 1.988281 1.988282 1.988281c1.097656 0 1.988281-.890625 1.988281-1.988281s-.890625-1.988281-1.988281-1.988281zm0 0" fill="#fff"/><path d="m24.99721 16.002882-1.995814-1.005764v-3.999487l1.995814-1.995814h3.999487l1.005764 1.995814" fill="none" stroke="#4f4f4f" stroke-linecap="round" stroke-width="2" transform="matrix(.497134 0 0 .497134 3.79569 4.294421)"/><path d="m13.242188 5.785156c-.550782 0-.996094.445313-.996094.996094 0 .546875.445312.992188.996094.992188.546874 0 .992187-.445313.992187-.992188 0-.550781-.445313-.996094-.992187-.996094zm0 0" fill="#4f4f4f"/><g clip-path="url(#e)" mask="url(#d)"><path d="m13.242188 4.792969c-1.101563 0-1.988282.886719-1.988282 1.988281 0 .082031.011719.164062.023438.246094.121094-.980469.949218-1.738282 1.964844-1.738282 1.015624 0 1.839843.757813 1.964843 1.738282.007813-.082032.023438-.164063.023438-.246094 0-1.101562-.886719-1.988281-1.988281-1.988281zm0 0" fill="#f9f9f9"/></g></svg>