<svg height="24pt" viewBox="0 0 24 24" width="24pt" xmlns="http://www.w3.org/2000/svg" xmlns:xlink="http://www.w3.org/1999/xlink"><clipPath id="a"><path d="m0 0h24v24h-24z"/></clipPath><path d="m5.605469 1.421875h12.789062c2.308594 0 4.183594 1.875 4.183594 4.183594v12.789062c0 2.308594-1.875 4.183594-4.183594 4.183594h-12.789062c-2.308594 0-4.183594-1.875-4.183594-4.183594v-12.789062c0-2.308594 1.875-4.183594 4.183594-4.183594zm0 0" fill="#2095f2" fill-rule="evenodd"/><g clip-path="url(#a)"><path d="m10.207031 10.605469.167969 1.023437-1.648438.914063v4.441406c0 .570313-.097656.96875-.285156 1.195313-.191406.230468-.515625.34375-.96875.34375-.53125 0-1.027344-.058594-1.480468-.171876l-.230469-1.195312c.496093.152344 1.007812.226562 1.539062.226562.191407 0 .285157-.226562.285157-.683593v-3.585938c-.609376.265625-1.253907.53125-1.9375.796875l-.398438-1.199218c.835938-.300782 1.613281-.605469 2.335938-.910157v-2.90625h-1.878907v-1.082031h1.878907v-2.390625h1.140624v2.390625h1.59375v1.082031h-1.59375v2.449219c.492188-.265625.984376-.511719 1.480469-.738281m5.695313-5.183594 1.253906.339844c-.417969.835937-.835938 1.578125-1.253906 2.222656h2.390625v1.082031h-1.59375v3.074219h2.050781v1.085937h-2.050781v5.296876h-1.140625v-5.296876h-2.503906c-.265626 2.429688-1.179688 4.214844-2.734376 5.351563l-.796874-.851563c1.328124-.988281 2.105468-2.488281 2.335937-4.5h-1.769531v-1.085937h1.882812c.035156-.300781.054688-.625.054688-.964844v-2.109375h-1.480469v-1.082031h4.160156c.453125-.796875.851563-1.652344 1.195313-2.5625m-.34375 6.71875v-3.074219h-2.390625v2.277344c0 .265625-.019531.53125-.058594.796875zm-3.074219-6.546875c.457031.53125.796875 1.117188 1.023437 1.765625l-1.195312.398437c-.226562-.683593-.550781-1.292968-.96875-1.824218z" fill="#fff"/></g></svg>