<svg height="24pt" viewBox="0 0 24 24" width="24pt" xmlns="http://www.w3.org/2000/svg"><path d="m22.625 5.125c-.046875-.394531-.082031-.796875-.234375-1.148438-.214844-.5-.523437-.953124-.90625-1.328124-.382813-.378907-.839844-.683594-1.347656-.898438-.507813-.210938-1.066407-.328125-1.652344-.328125h-12.96875c-.585937 0-1.144531.117187-1.652344.328125-.507812.214844-.964843.519531-1.347656.898438-.382813.375-.691406.828124-.90625 1.328124s-.332031 1.050782-.332031 1.628907v2.003906l4.214844 7.207031.121093.234375.03125.015625.265625.457032 2.445313 1.9375.679687-.285157.777344.484375c-.09375-.167968-.1875-.417968-.277344-.695312l4.574219-1.929688-4.730469-8.089844c.433594-.984374 1.1875-1.675781 2.519532-1.820312zm0 0" fill="#608ab5"/><path d="m13.875 22.574219h4.667969c.578125 0 1.128906-.113281 1.628906-.324219s.949219-.519531 1.328125-.894531c.378906-.378907.683594-.828125.894531-1.328125.210938-.503906.328125-1.050782.328125-1.632813v-12.789062c0-.171875-.078125-.316407-.097656-.480469h-10.566406c-.015625 0 2.183594.976562 3.113281 1.515625 2.371094 1.367187 2.617187 6.253906 2.621094 8.230469l.398437.230468-.40625.703126v.03125l-.152344.230468zm0 0" fill="#cddff0"/><path d="m1.28125 6.082031v12.3125c0 .582031.117188 1.128907.328125 1.632813.210937.5.515625.949218.894531 1.328125.378906.375.828125.683593 1.328125.894531s1.054688.328125 1.632813.328125h8.410156l4.605469-7.660156c-.519531.847656-2.695313 1.9375-3.621094 2.472656-2.96875 1.714844-6.738281.605469-8.449219-2.363281zm0 0" fill="#85b4df"/><path d="m18.921875 12c0-3.796875-3.078125-6.878906-6.875-6.878906-3.800781 0-6.878906 3.082031-6.878906 6.878906s3.078125 6.875 6.878906 6.875c3.796875 0 6.875-3.078125 6.875-6.875zm0 0" fill="#fff"/><path d="m16.957031 12c0-2.714844-2.199219-4.914062-4.910156-4.914062-2.714844 0-4.914063 2.199218-4.914063 4.914062 0 2.710938 2.199219 4.910156 4.914063 4.910156 2.710937 0 4.910156-2.199218 4.910156-4.910156zm0 0" fill="#779fd3"/></svg>