<svg height="24pt" viewBox="0 0 24 24" width="24pt" xmlns="http://www.w3.org/2000/svg" xmlns:xlink="http://www.w3.org/1999/xlink"><radialGradient id="a" cx="11.916094" cy="11.916091" gradientUnits="userSpaceOnUse" r="16.450402"><stop offset="0" stop-color="#56572b"/><stop offset="1" stop-color="#1a1c0e"/></radialGradient><g fill-rule="evenodd"><path d="m5.519531 1.339844h12.792969c2.308594 0 4.179688 1.871094 4.179688 4.179687v12.792969c0 2.308594-1.871094 4.179688-4.179688 4.179688h-12.792969c-2.308593 0-4.179687-1.871094-4.179687-4.179688v-12.792969c0-2.308593 1.871094-4.179687 4.179687-4.179687zm0 0" fill="#56572b"/><path d="m13.363281 22.492188c-.59375-.257813-1.347656-.476563-1.835937-.757813-1.117188-.636719-1.976563-1.324219-2.648438-2.046875-.675781-.71875-1.167968-1.46875-1.554687-2.226562-.386719-.757813-.664063-1.523438-.910157-2.273438-.246093-.75-.460937-1.484375-.71875-2.183594-.257812-.695312-.554687-1.359375-.976562-1.960937-.417969-.597657-.957031-1.140625-1.6875-1.601563-.433594-.269531-1.105469-.445312-1.691406-.65625v9.523438c0 2.320312 1.863281 4.183594 4.179687 4.183594zm0 0" fill="#222514"/><path d="m9.574219 1.339844h-4.054688c-2.316406 0-4.179687 1.863281-4.179687 4.179687v3.265625c.585937.210938 1.257812.386719 1.691406.65625.730469.460938 1.269531 1.003906 1.6875 1.601563.421875.601562.71875 1.265625.976562 1.960937.257813.699219.472657 1.433594.71875 2.183594.246094.75.523438 1.515625.910157 2.273438.386719.757812.878906 1.507812 1.554687 2.226562.671875.722656 1.53125 1.410156 2.648438 2.046875.488281.28125 1.242187.5 1.835937.757813h4.945313c2.320312 0 4.183594-1.863282 4.183594-4.183594v-2.886719c-.492188-.191406-1.097657-.335937-1.472657-.574219-.734375-.460937-1.273437-1-1.691406-1.601562-.417969-.601563-.71875-1.261719-.976563-1.960938-.257812-.695312-.472656-1.433594-.71875-2.183594-.246093-.75-.523437-1.515624-.910156-2.273437-.382812-.757813-.878906-1.507813-1.554687-2.226563-.671875-.71875-1.53125-1.410156-2.648438-2.046874-.785156-.445313-1.882812-.828126-2.945312-1.214844zm0 0" fill="url(#a)"/><path d="m9.574219 1.339844c1.0625.386718 2.160156.769531 2.945312 1.214844 1.117188.636718 1.976563 1.328124 2.648438 2.046874.675781.71875 1.171875 1.46875 1.554687 2.226563.386719.757813.664063 1.523437.910156 2.273437.246094.75.460938 1.488282.71875 2.183594.257813.699219.558594 1.359375.976563 1.960938.417969.601562.957031 1.140625 1.691406 1.601562.375.238282.980469.382813 1.472657.574219v-9.902344c0-2.316406-1.863282-4.179687-4.183594-4.179687zm0 0" fill="#56572b"/></g><path d="m13.851562 14.753906c.089844-.078125.066407-.234375-.054687-.410156-.109375-.152344-.109375-.15625-.1875-.75-.074219-.570312-.082031-.605469-.191406-.808594-.074219-.140625-.148438-.242187-.222657-.296875-.132812-.097656-.199218-.273437-.144531-.375.03125-.058593.023438-.085937-.117187-.257812-.082032-.109375-.167969-.210938-.1875-.230469-.019532-.023438-.074219-.09375-.125-.164062-.066406-.089844-.105469-.125-.140625-.113282-.039063.011719-.050781-.007812-.0625-.09375-.007813-.058594-.019531-.128906-.035157-.15625-.015624-.039062-.007812-.050781.054688-.050781.097656 0 .128906-.070313.128906-.292969v-.1875h.222656c.121094 0 .261719-.011718.316407-.027344.128906-.039062.253906-.15625.316406-.308593.054687-.125.109375-.148438.171875-.074219.019531.023438.070312.039062.121094.035156.082031-.007812.089844-.019531.097656-.117187.003906-.058594.019531-.105469.03125-.105469.007812 0 .078125.136719.148438.304688.121093.292968.128906.304687.207031.300781.042969-.003907.089843-.011719.097656-.023438.007813-.007812-.035156-.144531-.09375-.304687-.0625-.160156-.113281-.304688-.121094-.324219-.003906-.015625.046875-.050781.113281-.082031.097657-.039063.132813-.070313.152344-.136719l.023438-.089844.328125-.019531c.179687-.007812.332031-.015625.335937-.019531.003906-.003907.003906-.023438.003906-.042969 0-.027344-.035156-.046875-.089843-.050781-.09375-.007813-.09375-.011719-.101563-.171875 0-.054688-.097656-.050782-.148437-.078125 0 .078125-.007813.085937-.113281.085937-.082032 0-.113282-.011718-.113282-.042968 0-.046876-.046875-.058594-.0625-.015626-.003906.015626-.070312.035157-.144531.046876l-.132813.019531v-.089844c0-.046875-.019531-.089844-.039062-.097656-.046875-.019531-.105469.03125-.105469.085937 0 .027344-.070312.035156-.285156.035156h-.28125v-.085937c0-.078125-.007813-.085937-.101563-.085937-.066406 0-.097656.015624-.097656.039062 0 .050781-.0625.074219-.171875.074219-.054687 0-.09375.023437-.113281.058593-.039062.074219-.214844.082032-.1875.007813.171875-.449219-.074219-.875-.503906-.863281-.273438.003906-.445313.242187-.445313.617187 0 .203125 0 .203125-.089843.242188-.300782.121093-.515626.601562-.507813 1.117187.003906.164063-.011719.335938-.042969.472656-.035156.140626-.050781.351563-.054687.636719-.007813.390625-.015625.457031-.105469.78125-.085938.296875-.140625.554688-.210938.957031-.007812.03125-.082031.105469-.167968.167969-.171875.117188-.285156.246094-.378906.425781l-.054688.113282.101562.269531c.128907.335937.128907.335937.25.367187.078126.023438.128907.019532.199219-.011718l.09375-.039063v-.429687h.117188c.246093 0 .433593-.285156.679687-1.027344.222656-.667969.289063-.847656.316406-.847656.015626 0 .027344.011718.027344.027344 0 .015624.050782.109374.113282.210937.128906.207031.347656.425781.574218.566406.140625.089844.15625.113281.175782.222657.011718.066406.070312.277343.132812.464843s.132812.441407.152344.5625c.050781.285157.113281.363281.335937.457031.207031.085938.324219.09375.394531.027344zm-1.128906-4.847656c.007813-.066406.039063-.136719.066406-.15625.09375-.074219.488282-.023438.488282.0625 0 .039062-.085938.070312-.203125.070312-.046875 0-.097657.027344-.132813.070313-.039062.050781-.082031.074219-.148437.074219h-.089844zm-7.398437 3.578125c.257812-.125.292969-.195313.300781-.609375l.011719-.347656h-.863281l.011718.253906.007813.257812h-1.75v-1.480468h1.75l-.007813.246094-.011718.246093.195312-.015625c.246094-.023437.53125-.160156.628906-.304687.054688-.082031.0625-.121094.050782-.222657-.027344-.191406-.109376-.304687-.296876-.394531l-.160156-.078125h-2.472656l-.148438.066406c-.199218.089844-.339843.246094-.363281.40625-.011719.066407-.015625.46875-.011719.890626.011719.863281.015626.878906.230469 1.03125.207031.140624.28125.148437 1.558594.140624l1.179687-.003906zm3.640625.0625c.164062-.039063.339844-.164063.398437-.28125.039063-.078125.050781-.171875.050781-.449219 0-.414062-.03125-.507812-.199218-.617187-.207032-.136719-.355469-.15625-1.414063-.15625h-.976562v-.484375h1.292969c1.28125 0 1.296874 0 1.296874-.054688 0-.089844-.070312-.234375-.148437-.300781-.035156-.035156-.128906-.085937-.207031-.113281-.132813-.050782-.238282-.054688-1.378906-.054688h-1.238282l-.15625.078125c-.183594.085938-.300781.246094-.328125.4375-.03125.207031 0 .609375.054688.714844.0625.117187.265625.25.449219.289063.082031.015624.535156.027343 1.121093.027343h.976563v.457031h-1.308594c-1.183594 0-1.308594.003907-1.292969.042969.007813.027344.015625.0625.015625.085938 0 .117187.277344.328125.503906.378906.15625.039063 2.34375.039063 2.488282 0zm8.5625-.066406c.289062-.144531.300781-.171875.300781-.859375v-.578125h-2.21875v.089843c0 .128907.113281.261719.304687.355469.15625.078125.1875.082031.613282.089844l.445312.011719v.449218h-1.734375v-1.480468h2.597657l-.015626-.117188c-.019531-.144531-.152343-.289062-.332031-.355468-.117187-.046876-.253906-.050782-1.355469-.050782h-1.222656l-.183594.089844c-.121093.0625-.207031.128906-.253906.199219-.070312.105469-.070312.105469-.082031.90625-.003906.496093.003906.847656.023437.914062.050782.195313.222657.335938.5.40625.046876.015625.613282.019531 1.265626.019531l1.179687-.003906zm3.710937.023437c.070313-.03125.167969-.105468.21875-.164062l.09375-.105469v-.910156c0-.617188-.011719-.929688-.03125-.972657-.070312-.132812-.183593-.21875-.363281-.273437-.167969-.054687-.265625-.058594-1.308594-.058594-1.210937 0-1.300781.011719-1.511718.148438-.050782.035156-.121094.109375-.152344.164062-.054688.09375-.058594.144531-.058594.980469 0 .871094 0 .882812.066406.972656.035156.050782.109375.117188.164063.152344.21875.136719.261719.140625 1.546875.132812 1.15625-.003906 1.214844-.007812 1.335937-.066406zm-2.273437-1.203125v-.742187h1.746094l-.007813.742187-.007813.738281h-1.730468zm0 0" fill="#fff"/><path d="m12.164062 7.421875c-2.027343 0-3.722656 1.417969-4.15625 3.316406h.609376c.421874-1.574219 1.839843-2.734375 3.546874-2.734375 1.707032 0 3.125 1.160156 3.546876 2.734375h.609374c-.429687-1.898437-2.128906-3.316406-4.15625-3.316406zm-3.6875 6.402344c.738282 1.269531 2.113282 2.128906 3.6875 2.128906 1.574219 0 2.949219-.859375 3.6875-2.128906h-.695312c-.664062.933593-1.753906 1.546875-2.992188 1.546875-1.238281 0-2.324218-.613282-2.992187-1.546875zm0 0" fill="#fff"/></svg>