<svg height="24pt" viewBox="0 0 24 24" width="24pt" xmlns="http://www.w3.org/2000/svg" xmlns:xlink="http://www.w3.org/1999/xlink"><radialGradient id="a" cx="11.999848" cy="11.999846" gradientUnits="userSpaceOnUse" r="16.450402"><stop offset="0" stop-color="#56572b"/><stop offset="1" stop-color="#1a1c0e"/></radialGradient><g fill-rule="evenodd"><path d="m5.605469 1.421875h12.789062c2.308594 0 4.179688 1.875 4.179688 4.183594v12.789062c0 2.308594-1.871094 4.179688-4.179688 4.179688h-12.789062c-2.308594 0-4.183594-1.871094-4.183594-4.179688v-12.789062c0-2.308594 1.875-4.183594 4.183594-4.183594zm0 0" fill="#56572b"/><path d="m13.449219 22.578125c-.59375-.257813-1.351563-.480469-1.839844-.757813-1.113281-.636718-1.972656-1.328124-2.648437-2.046874-.675782-.71875-1.167969-1.46875-1.554688-2.226563-.382812-.757813-.660156-1.523437-.90625-2.273437s-.460938-1.488282-.71875-2.183594c-.257812-.699219-.558594-1.359375-.976562-1.960938-.421876-.601562-.957032-1.144531-1.691407-1.601562-.433593-.273438-1.105469-.449219-1.6875-.65625v9.523437c0 2.316407 1.863281 4.183594 4.179688 4.183594zm0 0" fill="#222514"/><path d="m9.65625 1.425781h-4.050781c-2.316407 0-4.179688 1.863281-4.179688 4.179688v3.265625c.582031.207031 1.253907.382812 1.6875.65625.734375.457031 1.269531 1 1.691407 1.601562.417968.601563.71875 1.261719.976562 1.960938.257812.695312.472656 1.433594.71875 2.183594s.523438 1.515624.90625 2.273437c.386719.757813.878906 1.507813 1.554688 2.226563.675781.71875 1.535156 1.410156 2.648437 2.046874.488281.277344 1.246094.5 1.839844.757813h4.945312c2.316407 0 4.183594-1.867187 4.183594-4.183594v-2.890625c-.496094-.1875-1.097656-.335937-1.476563-.574218-.730468-.457032-1.269531-1-1.6875-1.597657-.421874-.601562-.722656-1.261719-.980468-1.960937-.253906-.699219-.46875-1.433594-.714844-2.183594s-.523438-1.515625-.910156-2.273438c-.386719-.757812-.878906-1.507812-1.554688-2.226562-.675781-.722656-1.535156-1.410156-2.648437-2.046875-.785157-.449219-1.882813-.828125-2.949219-1.214844zm0 0" fill="url(#a)"/><path d="m9.65625 1.425781c1.066406.386719 2.164062.765625 2.949219 1.214844 1.113281.636719 1.972656 1.324219 2.648437 2.046875.675782.71875 1.167969 1.46875 1.554688 2.226562.386718.757813.664062 1.523438.910156 2.273438s.460938 1.484375.714844 2.183594c.257812.699218.558594 1.359375.980468 1.960937.417969.597657.957032 1.140625 1.6875 1.597657.378907.238281.980469.386718 1.476563.574218v-9.898437c0-2.316407-1.867187-4.179688-4.183594-4.179688zm0 0" fill="#56572b"/></g><g fill="#fff"><path d="m11.460938 18.628906c.308593-.148437.347656-.230468.363281-.730468l.007812-.417969h-1.03125l.007813.308593.011718.304688h-2.097656v-1.773438h2.097656l-.011718.292969-.007813.296875.230469-.019531c.296875-.027344.640625-.195313.757812-.367187.066407-.097657.074219-.144532.058594-.269532-.03125-.226562-.132812-.359375-.355468-.46875l-.191407-.097656h-2.972656l-.179687.082031c-.234376.105469-.40625.296875-.433594.488281-.011719.082032-.015625.5625-.011719 1.070313.011719 1.035156.015625 1.054687.277344 1.234375.246093.171875.335937.179688 1.867187.171875l1.417969-.007813zm4.371093.078125c.199219-.050781.40625-.199219.476563-.339843.046875-.09375.058594-.207032.058594-.539063 0-.496094-.035157-.609375-.234376-.742187-.25-.164063-.425781-.183594-1.703124-.183594l-1.167969-.003906v-.578126h1.554687c1.539063 0 1.550782 0 1.550782-.070312 0-.105469-.082032-.28125-.171876-.359375-.046874-.042969-.160156-.101563-.253906-.136719-.15625-.0625-.285156-.066406-1.65625-.066406h-1.484375l-.1875.09375c-.21875.105469-.359375.296875-.394531.527344-.039062.25 0 .730468.066406.859375.074219.140625.316406.296875.539063.34375.101562.023437.644531.035156 1.34375.035156h1.175781v.546875h-1.574219c-1.421875 0-1.570312.007812-1.550781.054688.011719.03125.019531.074218.019531.101562 0 .140625.335938.394531.605469.457031.1875.042969 2.816406.042969 2.988281 0zm0 0"/><path d="m12.136719 5.90625c-3.070313 0-5.566407 2.496094-5.566407 5.566406 0 1.535156.625 2.925782 1.632813 3.933594h.910156c-1.179687-.90625-1.941406-2.328125-1.941406-3.933594 0-2.746094 2.21875-4.96875 4.964844-4.96875 2.746093 0 4.964843 2.222656 4.964843 4.96875 0 1.605469-.761718 3.027344-1.945312 3.933594h.914062c1.007813-1.007812 1.632813-2.398438 1.632813-3.933594 0-3.070312-2.496094-5.566406-5.566406-5.566406zm0 0"/><path d="m13.695312 15.074219c.101563-.09375.078126-.273438-.066406-.476563-.125-.179687-.125-.179687-.214844-.871094-.089843-.660156-.097656-.703124-.222656-.941406-.085937-.160156-.175781-.28125-.257812-.339844-.15625-.117187-.230469-.316406-.167969-.4375.035156-.070312.023437-.097656-.136719-.300781-.097656-.125-.195312-.246093-.21875-.269531-.019531-.023438-.085937-.105469-.144531-.1875-.074219-.105469-.125-.144531-.164063-.128906-.042968.011718-.058593-.007813-.070312-.109375-.007812-.066407-.027344-.148438-.039062-.183594-.023438-.046875-.011719-.054687.058593-.054687.113281 0 .152344-.085938.152344-.347657v-.214843h.257813c.140624 0 .304687-.015626.367187-.03125.148437-.042969.292969-.183594.367187-.355469.066407-.148438.125-.175781.199219-.089844.023438.03125.082031.046875.144531.039063.089844-.007813.101563-.019532.109376-.132813.007812-.066406.023437-.125.035156-.125.011718 0 .089844.160156.171875.355469.140625.339844.152343.355468.242187.347656.050782-.003906.101563-.011719.113282-.023438.007812-.007812-.039063-.167968-.109376-.355468-.070312-.1875-.132812-.355469-.140624-.375-.003907-.019532.054687-.0625.132812-.09375.109375-.046875.152344-.085938.175781-.164063l.03125-.101562.378907-.019531c.207031-.011719.382812-.023438.386718-.027344.003906 0 .007813-.023438.007813-.050782 0-.027343-.039063-.050781-.105469-.058593-.105469-.007813-.109375-.011719-.117188-.195313 0-.066406-.117187-.0625-.171874-.09375 0 .09375-.007813.097656-.132813.097656-.09375 0-.132813-.011718-.132813-.050781 0-.054687-.054687-.066406-.070312-.015625-.007812.019532-.082031.042969-.167969.054688l-.15625.019531v-.097656c0-.054688-.019531-.109375-.046875-.117188-.050781-.019531-.117187.035157-.117187.097657 0 .035156-.082031.042968-.332031.042968h-.328126v-.097656c0-.089844-.011718-.097656-.117187-.097656-.078125 0-.117187.011718-.117187.042968 0 .054688-.070313.085938-.199219.085938-.058594 0-.105469.023438-.128907.066406-.046874.085938-.25.097656-.21875.011719.203126-.523437-.085937-1.015625-.582031-1.003906-.320312.003906-.519531.28125-.519531.71875 0 .230469 0 .234375-.105469.277343-.347656.144532-.597656.699219-.585937 1.296876.003906.191406-.015625.390624-.050782.546874-.039062.167969-.0625.414063-.066406.746094-.007812.449219-.015625.527344-.121094.90625-.097656.34375-.164062.640625-.246093 1.109375-.003907.035157-.09375.121094-.195313.191407-.199218.136718-.332031.289062-.4375.5l-.066406.128906.121094.316406c.148437.390625.148437.386719.289062.425781.089844.023438.148438.019531.230469-.015625l.113281-.046875v-.496093h.128906c.289063 0 .507813-.332032.792969-1.195313.257813-.777344.335938-.984375.367188-.984375.015625 0 .03125.015625.03125.035156 0 .015625.058593.125.128906.242188.152344.242187.410156.492187.667969.660156.164062.101562.183594.128906.207031.257812.011719.078126.082031.320313.152344.539063.074219.214844.15625.511719.179687.652344.058594.328125.128906.421875.386719.53125.242187.097656.375.105469.460937.03125zm-1.3125-5.632813c.011719-.074218.046876-.15625.074219-.179687.113281-.085938.570313-.027344.570313.074219 0 .046874-.097656.082031-.234375.082031-.054688 0-.113281.03125-.15625.082031-.042969.058594-.09375.082031-.171875.082031h-.105469zm0 0"/></g></svg>