<svg height="24pt" viewBox="0 0 24 24" width="24pt" xmlns="http://www.w3.org/2000/svg" xmlns:xlink="http://www.w3.org/1999/xlink"><radialGradient id="a" cx="11.999849" cy="11.999847" gradientUnits="userSpaceOnUse" r="16.450402"><stop offset="0" stop-color="#56572b"/><stop offset="1" stop-color="#1a1c0e"/></radialGradient><g fill-rule="evenodd"><path d="m5.605469 1.421875h12.789062c2.308594 0 4.179688 1.875 4.179688 4.183594v12.789062c0 2.308594-1.871094 4.179688-4.179688 4.179688h-12.789062c-2.308594 0-4.183594-1.871094-4.183594-4.179688v-12.789062c0-2.308594 1.875-4.183594 4.183594-4.183594zm0 0" fill="#56572b"/><path d="m13.449219 22.578125c-.59375-.257813-1.351563-.480469-1.839844-.757813-1.113281-.636718-1.972656-1.328124-2.648437-2.046874-.675782-.71875-1.167969-1.46875-1.554688-2.226563-.382812-.757813-.660156-1.523437-.90625-2.273437s-.460938-1.488282-.71875-2.183594c-.257812-.699219-.558594-1.359375-.976562-1.960938-.421876-.601562-.957032-1.144531-1.691407-1.601562-.433593-.273438-1.105469-.449219-1.6875-.65625v9.523437c0 2.316407 1.863281 4.183594 4.179688 4.183594zm0 0" fill="#222514"/><path d="m9.65625 1.425781h-4.050781c-2.316407 0-4.179688 1.863281-4.179688 4.179688v3.265625c.582031.207031 1.253907.382812 1.6875.65625.734375.457031 1.269531 1 1.691407 1.601562.417968.601563.71875 1.261719.976562 1.960938.257812.695312.472656 1.433594.71875 2.183594s.523438 1.515624.90625 2.273437c.386719.757813.878906 1.507813 1.554688 2.226563.675781.71875 1.535156 1.410156 2.648437 2.046874.488281.277344 1.246094.5 1.839844.757813h4.945312c2.316407 0 4.183594-1.867187 4.183594-4.183594v-2.890625c-.496094-.1875-1.097656-.335937-1.476563-.574218-.730468-.457032-1.269531-1-1.6875-1.597657-.421874-.601562-.722656-1.261719-.980468-1.960937-.253906-.699219-.46875-1.433594-.714844-2.183594s-.523438-1.515625-.910156-2.273438c-.386719-.757812-.878906-1.507812-1.554688-2.226562-.675781-.722656-1.535156-1.410156-2.648437-2.046875-.785157-.449219-1.882813-.828125-2.949219-1.214844zm0 0" fill="url(#a)"/><path d="m9.65625 1.425781c1.066406.386719 2.164062.765625 2.949219 1.214844 1.113281.636719 1.972656 1.324219 2.648437 2.046875.675782.71875 1.167969 1.46875 1.554688 2.226562.386718.757813.664062 1.523438.910156 2.273438s.460938 1.484375.714844 2.183594c.257812.699218.558594 1.359375.980468 1.960937.417969.597657.957032 1.140625 1.6875 1.597657.378907.238281.980469.386718 1.476563.574218v-9.898437c0-2.316407-1.867187-4.179688-4.183594-4.179688zm0 0" fill="#56572b"/></g><g fill="#fff"><path d="m9.230469 18.34375c.253906-.125.289062-.195312.300781-.609375l.007812-.347656h-.859374l.007812.253906.007812.257813h-1.746093v-1.476563h1.746093l-.007812.242187-.007812.246094.191406-.015625c.25-.023437.53125-.160156.628906-.304687.054688-.082032.066406-.121094.050781-.222656-.023437-.1875-.109375-.300782-.292969-.394532l-.164062-.078125h-2.472656l-.148438.066407c-.199218.089843-.339844.246093-.363281.40625-.007813.070312-.011719.46875-.007813.890624.007813.863282.011719.878907.230469 1.03125.203125.140626.28125.148438 1.554688.140626l1.179687-.003907zm3.640625.0625c.164062-.039062.335937-.164062.394531-.28125.039063-.078125.050781-.171875.050781-.449219 0-.410156-.03125-.507812-.195312-.617187-.210938-.136719-.355469-.15625-1.417969-.15625h-.972656v-.480469h1.292969c1.28125 0 1.292968-.003906 1.292968-.058594 0-.089843-.070312-.234375-.144531-.300781-.039063-.035156-.132813-.085938-.210937-.113281-.132813-.050781-.238282-.054688-1.378907-.054688h-1.234375l-.160156.078125c-.179688.089844-.296875.246094-.328125.4375-.03125.207032 0 .609375.054687.714844.0625.117188.265626.25.449219.289062.085938.015626.539063.03125 1.121094.03125h.980469v.453126h-1.3125c-1.183594 0-1.308594.003906-1.292969.042968.007813.027344.015625.066406.015625.085938 0 .117187.28125.328125.503906.378906.160156.039062 2.347656.039062 2.492188 0zm0 0"/><path d="m17.472656 18.40625c.164063-.039062.335938-.164062.398438-.28125.039062-.078125.046875-.171875.046875-.449219 0-.410156-.027344-.507812-.195313-.617187-.207031-.136719-.355468-.15625-1.417968-.15625h-.972657v-.480469h1.292969c1.28125 0 1.292969-.003906 1.292969-.058594 0-.089843-.070313-.234375-.144531-.300781-.035157-.035156-.132813-.085938-.210938-.113281-.128906-.050781-.234375-.054688-1.378906-.054688h-1.234375l-.15625.078125c-.183594.089844-.300781.246094-.328125.4375-.03125.207032 0 .609375.054687.714844.0625.117188.265625.25.449219.289062.082031.015626.535156.03125 1.117188.03125h.980468v.453126h-1.3125c-1.183594 0-1.308594.003906-1.292968.042968.011718.027344.019531.066406.019531.085938 0 .117187.277343.328125.503906.378906.15625.039062 2.34375.039062 2.488281 0zm0 0"/><path d="m12.171875 6.097656c-3.070313 0-5.566406 2.496094-5.566406 5.566406 0 1.535157.625 2.925782 1.632812 3.933594h.910157c-1.179688-.90625-1.945313-2.328125-1.945313-3.933594 0-2.746093 2.222656-4.96875 4.96875-4.96875s4.964844 2.222657 4.964844 4.96875c0 1.605469-.765625 3.027344-1.945313 3.933594h.914063c1.007812-1.007812 1.632812-2.398437 1.632812-3.933594 0-3.070312-2.496093-5.566406-5.566406-5.566406zm0 0"/><path d="m13.730469 15.265625c.101562-.09375.078125-.273437-.066407-.476563-.125-.179687-.128906-.179687-.21875-.871093-.085937-.660157-.09375-.703125-.21875-.941407-.085937-.160156-.175781-.28125-.257812-.339843-.15625-.117188-.234375-.316407-.167969-.4375.035157-.070313.023438-.097657-.136719-.300781-.097656-.125-.195312-.246094-.21875-.269532-.023437-.023437-.085937-.105468-.144531-.1875-.078125-.105468-.125-.144531-.164062-.128906-.046875.011719-.058594-.007812-.070313-.109375-.007812-.066406-.027344-.148437-.042968-.183594-.019532-.046875-.007813-.054687.0625-.054687.113281 0 .152343-.085938.152343-.347656v-.214844h.253907c.144531 0 .308593-.015625.371093-.03125.148438-.042969.292969-.183594.367188-.355469.0625-.148437.125-.175781.195312-.089844.027344.03125.085938.046875.144531.039063.09375-.007813.105469-.019532.113282-.132813.007812-.066406.019531-.121093.035156-.121093.011719 0 .089844.15625.171875.351562.140625.339844.152344.355469.242187.347656.050782-.003906.101563-.011718.113282-.023437.007812-.007813-.039063-.167969-.109375-.355469-.070313-.1875-.132813-.355469-.140625-.375-.003906-.019531.054687-.0625.132812-.09375.109375-.046875.152344-.085938.175782-.164062l.03125-.101563.378906-.019531c.207031-.011719.382812-.023438.386718-.027344.003907 0 .007813-.023438.007813-.050781 0-.027344-.039063-.050781-.105469-.058594-.105468-.007813-.109375-.011719-.117187-.195313-.003907-.066406-.117188-.0625-.171875-.09375 0 .09375-.007813.097657-.132813.097657-.097656 0-.132812-.011719-.132812-.050781 0-.054688-.054688-.066407-.070313-.015626-.007812.019532-.082031.042969-.167968.054688l-.15625.019531v-.097656c0-.054687-.023438-.109375-.046876-.117187-.050781-.019532-.121093.035156-.121093.097656 0 .035156-.078125.042968-.328125.042968h-.332032v-.097656c0-.089844-.007812-.097656-.113281-.097656-.078125 0-.117187.015625-.117187.042969 0 .058593-.070313.085937-.199219.085937-.0625 0-.105469.023438-.128906.066406-.046875.085938-.25.097657-.21875.011719.203125-.523437-.085938-1.015625-.582031-1.003906-.320313.003906-.519532.28125-.519532.71875 0 .230469 0 .234375-.105468.277344-.347657.144531-.601563.699219-.585938 1.296875.003906.191406-.015625.390625-.050781.546875-.039063.167969-.0625.414062-.066407.746093-.007812.449219-.019531.527344-.125.90625-.09375.34375-.160156.640626-.242187 1.109376-.007813.035156-.09375.121093-.195313.191406-.199218.136718-.332031.289062-.4375.5l-.066406.128906.121094.316406c.148438.390625.144531.386719.289062.425782.089844.023437.148438.019531.230469-.015626l.109375-.046874v-.496094h.132813c.289062 0 .507812-.332032.792969-1.195313.257812-.773437.335937-.984375.367187-.984375.015625 0 .027344.015625.027344.035156 0 .015626.0625.125.132812.242188.152344.242188.410157.492188.667969.660156.164062.101563.183594.128906.203125.257813.015625.078125.085937.320312.15625.539062.074219.214844.15625.511719.179687.652344.058594.328125.128907.421875.386719.53125.242188.097656.375.105469.460938.03125zm-1.3125-5.632813c.011719-.074218.046875-.15625.074219-.179687.113281-.085937.570312-.027344.570312.074219 0 .046875-.101562.082031-.234375.082031-.054687 0-.113281.03125-.15625.082031-.042969.058594-.097656.082032-.171875.082032h-.105469zm0 0"/></g></svg>