<svg height="24pt" viewBox="0 0 24 24" width="24pt" xmlns="http://www.w3.org/2000/svg"><path d="m5.605469 1.421875h12.789062c2.308594 0 4.183594 1.875 4.183594 4.183594v12.789062c0 2.308594-1.875 4.183594-4.183594 4.183594h-12.789062c-2.308594 0-4.183594-1.875-4.183594-4.183594v-12.789062c0-2.308594 1.875-4.183594 4.183594-4.183594zm0 0" fill="#4c636b" fill-rule="evenodd"/><path d="m13.5 11.25c0 2.898438-2.351562 5.25-5.25 5.25s-5.25-2.351562-5.25-5.25 2.351562-5.25 5.25-5.25 5.25 2.351562 5.25 5.25zm0 0" fill="#3d4f56"/><path d="m4.539062 7.539062c-.179687.175782-.339843.367188-.488281.570313l1.617188 1.617187c-.695313 1.179688-.503907 2.675782.460937 3.644532.96875.964844 2.464844 1.152344 3.640625.460937l1.621094 1.617188c.203125-.148438.394531-.3125.570313-.488281.179687-.175782.339843-.367188.492187-.570313l-1.621094-1.617187c.695313-1.179688.503907-2.675782-.460937-3.644532-.96875-.964844-2.464844-1.152344-3.640625-.460937l-1.621094-1.617188c-.203125.148438-.394531.3125-.570313.488281zm0 0" fill="#ee5858"/><path d="m9.75 11.25c0 .828125-.671875 1.5-1.5 1.5s-1.5-.671875-1.5-1.5.671875-1.5 1.5-1.5 1.5.671875 1.5 1.5zm0 0" fill="#f3c4c4"/><path d="m15.75 6.75h4.5c.414062 0 .75.335938.75.75s-.335938.75-.75.75h-4.5c-.414062 0-.75-.335938-.75-.75s.335938-.75.75-.75zm0 0" fill="#3d4f56"/><path d="m21 16.875c0 .621094-.503906 1.125-1.125 1.125s-1.125-.503906-1.125-1.125.503906-1.125 1.125-1.125 1.125.503906 1.125 1.125zm0 0" fill="#58c4ee"/><path d="m18 16.875c0 .621094-.503906 1.125-1.125 1.125s-1.125-.503906-1.125-1.125.503906-1.125 1.125-1.125 1.125.503906 1.125 1.125zm0 0" fill="#58c4ee"/><g fill="#3d4f56"><path d="m15.75 9h4.5c.414062 0 .75.335938.75.75s-.335938.75-.75.75h-4.5c-.414062 0-.75-.335938-.75-.75s.335938-.75.75-.75zm0 0"/><path d="m15.75 11.25h4.5c.414062 0 .75.335938.75.75s-.335938.75-.75.75h-4.5c-.414062 0-.75-.335938-.75-.75s.335938-.75.75-.75zm0 0"/><path d="m15.75 13.5h4.5c.414062 0 .75.335938.75.75s-.335938.75-.75.75h-4.5c-.414062 0-.75-.335938-.75-.75s.335938-.75.75-.75zm0 0"/></g></svg>