<svg height="24pt" viewBox="0 0 24 24" width="24pt" xmlns="http://www.w3.org/2000/svg"><path d="m5.605469 1.421875h12.789062c2.308594 0 4.183594 1.875 4.183594 4.183594v12.789062c0 2.308594-1.875 4.183594-4.183594 4.183594h-12.789062c-2.308594 0-4.183594-1.875-4.183594-4.183594v-12.789062c0-2.308594 1.875-4.183594 4.183594-4.183594zm0 0" fill="#8e8e8e" fill-rule="evenodd"/><g fill="#4d4d4d"><path d="m20.359375 4.703125c0 .59375-.484375 1.078125-1.078125 1.078125-.597656 0-1.078125-.484375-1.078125-1.078125 0-.597656.480469-1.082031 1.078125-1.082031.59375 0 1.078125.484375 1.078125 1.082031zm0 0"/><path d="m5.761719 4.703125c0 .59375-.484375 1.078125-1.078125 1.078125-.597656 0-1.078125-.484375-1.078125-1.078125 0-.597656.480469-1.082031 1.078125-1.082031.59375 0 1.078125.484375 1.078125 1.082031zm0 0"/><path d="m20.394531 19.296875c0 .597656-.480469 1.082031-1.078125 1.082031-.59375 0-1.078125-.484375-1.078125-1.082031 0-.59375.484375-1.078125 1.078125-1.078125.597656 0 1.078125.484375 1.078125 1.078125zm0 0"/><path d="m5.796875 19.296875c0 .597656-.480469 1.082031-1.078125 1.082031-.59375 0-1.078125-.484375-1.078125-1.082031 0-.59375.484375-1.078125 1.078125-1.078125.597656 0 1.078125.484375 1.078125 1.078125zm0 0"/><path d="m12 6.75c-2.898438 0-5.25 2.351562-5.25 5.25v5.25h5.25c2.898438 0 5.25-2.351562 5.25-5.25s-2.351562-5.25-5.25-5.25zm0 2.25c1.65625 0 3 1.34375 3 3s-1.34375 3-3 3-3-1.34375-3-3 1.34375-3 3-3zm0 0"/></g></svg>