<svg height="24pt" viewBox="0 0 24 24" width="24pt" xmlns="http://www.w3.org/2000/svg"><path d="m5.605469 1.421875h12.789062c2.308594 0 4.183594 1.875 4.183594 4.183594v12.789062c0 2.308594-1.875 4.183594-4.183594 4.183594h-12.789062c-2.308594 0-4.183594-1.875-4.183594-4.183594v-12.789062c0-2.308594 1.875-4.183594 4.183594-4.183594zm0 0" fill="#4f4f4f" fill-rule="evenodd"/><path d="m12 4.5c-4.140625 0-7.5 3.359375-7.5 7.5s3.359375 7.5 7.5 7.5v-2.25c-2.898438 0-5.25-2.351562-5.25-5.25s2.351562-5.25 5.25-5.25 5.25 2.351562 5.25 5.25h2.25c0-4.140625-3.359375-7.5-7.5-7.5zm0 0" fill="#fff"/><path d="m12 8.25c-2.070312 0-3.75 1.679688-3.75 3.75h2.25c0-.828125.671875-1.5 1.5-1.5s1.5.671875 1.5 1.5h2.25c0-2.070312-1.679688-3.75-3.75-3.75zm0 0" fill="#00adef"/></svg>