<svg height="24pt" viewBox="0 0 24 24" width="24pt" xmlns="http://www.w3.org/2000/svg"><path d="m5.605469 1.421875h12.789062c2.308594 0 4.183594 1.875 4.183594 4.183594v12.789062c0 2.308594-1.875 4.183594-4.183594 4.183594h-12.789062c-2.308594 0-4.183594-1.875-4.183594-4.183594v-12.789062c0-2.308594 1.875-4.183594 4.183594-4.183594zm0 0" fill="#ccc" fill-rule="evenodd"/><path d="m14.140625 7.777344c1.757813 1.757812 1.757813 4.605468 0 6.363281s-4.605469 1.757813-6.363281 0c-1.757813-1.757813-1.757813-4.605469 0-6.363281 1.757812-1.757813 4.605468-1.757813 6.363281 0zm0 0" fill="#484848"/><path d="m13.078125 13.078125c.292969-.292969.769531-.292969 1.0625 0l3.179687 3.183594c.292969.292969.292969.765625 0 1.058593-.292968.292969-.765624.292969-1.058593 0l-3.183594-3.179687c-.292969-.292969-.292969-.769531 0-1.0625zm0 0" fill="#484848"/><path d="m13.074219 8.824219c-1.175781-1.175781-3.058594-1.175781-4.234375 0-1.175782 1.175781-1.175782 3.058593 0 4.234375 1.179687 1.179687 3.058594 1.175781 4.234375 0 1.175781-1.175782 1.179687-3.054688 0-4.234375zm0 0" fill="#5d99ff"/></svg>