<svg height="24pt" viewBox="0 0 24 24" width="24pt" xmlns="http://www.w3.org/2000/svg" xmlns:xlink="http://www.w3.org/1999/xlink"><filter id="a" height="100%" width="100%" x="0%" y="0%"><feColorMatrix in="SourceGraphic" type="matrix" values="0 0 0 0 1 0 0 0 0 1 0 0 0 0 1 0 0 0 1 0"/></filter><mask id="b"><g filter="url(#a)"><path d="m0 0h24v24h-24z" fill-opacity=".101961"/></g></mask><clipPath id="c"><path d="m0 0h24v24h-24z"/></clipPath><mask id="d"><g filter="url(#a)"><path d="m0 0h24v24h-24z" fill-opacity=".101961"/></g></mask><clipPath id="e"><path d="m0 0h24v24h-24z"/></clipPath><path d="m5.605469 1.421875h12.789062c2.308594 0 4.183594 1.875 4.183594 4.183594v12.789062c0 2.308594-1.875 4.183594-4.183594 4.183594h-12.789062c-2.308594 0-4.183594-1.875-4.183594-4.183594v-12.789062c0-2.308594 1.875-4.183594 4.183594-4.183594zm0 0" fill="#3f3f3f" fill-rule="evenodd"/><path d="m12.554688 18.671875c2.964843-.15625 5.257812-.65625 6.144531-.929687-1.476563-.476563-1.4375-2.394532-.882813-3.394532zm0 0" fill="#ccc"/><g clip-path="url(#c)" mask="url(#b)"><path d="m11.003906 10.816406c.183594-1.046875-.296875-2.011718-1.066406-2.148437-.773438-.140625-1.546875.597656-1.726562 1.644531-.179688 1.046875.296874 2.011719 1.070312 2.148438.769531.140624 1.542969-.597657 1.722656-1.644532zm0 0" fill-rule="evenodd"/></g><g clip-path="url(#e)" mask="url(#d)"><path d="m15.789062 10.3125c-.183593-1.046875-.953124-1.785156-1.726562-1.644531-.769531.136719-1.25 1.097656-1.066406 2.148437.179687 1.046875.953125 1.785156 1.726562 1.644532.769532-.136719 1.25-1.097657 1.066406-2.148438zm0 0" fill-rule="evenodd"/></g><g fill-rule="evenodd"><g fill="#ccc"><path d="m18.21875 12c0-3.699219-2.785156-6.699219-6.21875-6.699219s-6.21875 3-6.21875 6.699219 2.785156 6.699219 6.21875 6.699219 6.21875-3 6.21875-6.699219zm0 0"/><path d="m19.175781 9.609375c0 .792969-.640625 1.433594-1.433593 1.433594-.792969 0-1.4375-.640625-1.4375-1.433594s.644531-1.4375 1.4375-1.4375c.792968 0 1.433593.644531 1.433593 1.4375zm0 0"/><path d="m7.695312 9.609375c0 .792969-.644531 1.433594-1.4375 1.433594-.792968 0-1.433593-.640625-1.433593-1.433594s.640625-1.4375 1.433593-1.4375c.792969 0 1.4375.644531 1.4375 1.4375zm0 0"/></g><path d="m11.003906 10.335938c.183594-1.046876-.296875-2.007813-1.066406-2.148438-.773438-.136719-1.546875.601562-1.726562 1.648438-.179688 1.046874.296874 2.007812 1.070312 2.148437.769531.136719 1.542969-.597656 1.722656-1.648437zm0 0" fill="#3f3f3f"/><path d="m15.789062 9.835938c-.183593-1.046876-.953124-1.785157-1.726562-1.648438-.769531.140625-1.25 1.101562-1.066406 2.148438.179687 1.046874.953125 1.785156 1.726562 1.648437.769532-.140625 1.25-1.101563 1.066406-2.148437zm0 0" fill="#3f3f3f"/></g></svg>