<svg height="24pt" viewBox="0 0 24 24" width="24pt" xmlns="http://www.w3.org/2000/svg"><path d="m5.605469 1.421875h12.789062c2.308594 0 4.183594 1.875 4.183594 4.183594v12.789062c0 2.308594-1.875 4.183594-4.183594 4.183594h-12.789062c-2.308594 0-4.183594-1.875-4.183594-4.183594v-12.789062c0-2.308594 1.875-4.183594 4.183594-4.183594zm0 0" fill="#4f4f4f" fill-rule="evenodd"/><path d="m6.753906 4.988281v.75h-.375c-.621094 0-1.125.503907-1.125 1.125 0 .625.503906 1.125 1.125 1.125h.375v.75h-1.429687c.15625.4375.566406.75 1.054687.75h.375v.75h.75v-.75h.375c.625 0 1.125-.5 1.125-1.125 0-.621093-.5-1.125-1.125-1.125h-.375v-.75h1.433594c-.15625-.4375-.566406-.75-1.058594-.75h-.375v-.75zm-.375 1.5h.375v.75h-.375c-.207031 0-.375-.167969-.375-.375s.167969-.375.375-.375zm1.125 1.5h.375c.210938 0 .375.167969.375.375s-.167968.386719-.375.375h-.375zm3 1.5v.75h4.5v-.75zm0 0" fill="#58ff00"/></svg>