<svg height="24pt" viewBox="0 0 24 24" width="24pt" xmlns="http://www.w3.org/2000/svg" xmlns:xlink="http://www.w3.org/1999/xlink"><clipPath id="a"><path d="m0 0h24v24h-24z"/></clipPath><clipPath id="b"><path d="m0 0h24v24h-24z"/></clipPath><clipPath id="c"><path d="m0 0h24v24h-24z"/></clipPath><clipPath id="d"><path d="m0 0h24v24h-24z"/></clipPath><path d="m22.578125 12v-6.394531c0-.582031-.117187-1.128907-.328125-1.632813-.214844-.5-.519531-.949218-.898438-1.328125-.375-.375-.828124-.683593-1.328124-.894531s-1.050782-.328125-1.628907-.328125h-6.394531v10.578125zm0 0" fill="#36862c"/><path d="m12 22.578125h6.394531c.582031 0 1.128907-.117187 1.632813-.328125.5-.214844.949218-.519531 1.328125-.898438.375-.375.679687-.828124.894531-1.328124.210938-.5.328125-1.050782.328125-1.628907v-6.394531h-10.578125zm0 0" fill="#4c922b"/><g clip-path="url(#a)"><path d="m21.988281 17.09375c0 2.617188-2.121093 4.738281-4.738281 4.738281s-4.738281-2.121093-4.738281-4.738281 2.121093-4.738281 4.738281-4.738281 4.738281 2.121093 4.738281 4.738281zm0 0" fill="#4b4b4b" fill-rule="evenodd"/></g><g clip-path="url(#b)"><path d="m15.023438 15.777344v.753906h4.53125v-.753906zm0 2.265625v.753906h4.53125v-.753906zm0 0" fill="#ebebeb"/></g><path d="m5.605469 1.421875c-.578125 0-1.128907.117187-1.632813.328125-.5.214844-.949218.519531-1.328125.894531-.375.378907-.679687.828125-.894531 1.328125-.210938.503906-.328125 1.054688-.328125 1.632813v6.394531h10.578125v-10.578125zm0 0" fill="#86d478"/><g clip-path="url(#c)"><path d="m6.710938 4.445312v2.265626h-2.265626v.757812h2.265626v2.265625h.757812v-2.265625h2.265625v-.757812h-2.265625v-2.265626zm0 0" fill="#fff"/></g><g clip-path="url(#d)"><path d="m15.023438 6.710938v.757812h4.53125v-.757812zm0 0" fill="#ebebeb"/></g><path d="m1.425781 12v6.394531c0 .578125.113281 1.128907.328125 1.628907.210938.5.515625.953124.890625 1.328124.378907.378907.828125.683594 1.328125.898438.503906.210938 1.050782.328125 1.632813.328125h6.394531v-10.578125zm0 0" fill="#71c454"/><path d="m4.710938 14.753906-.53125.535156 2 2-2 1.996094.53125.535156 2-2 2 2 .535156-.535156-2-1.996094 2-2-.535156-.535156-2 2zm0 0" fill="#ebebeb" fill-rule="evenodd"/></svg>