<svg height="24pt" viewBox="0 0 24 24" width="24pt" xmlns="http://www.w3.org/2000/svg"><path d="m1.421875 8.476562v9.917969c0 2.316407 1.867187 4.183594 4.183594 4.183594h12.789062c2.316407 0 4.183594-1.867187 4.183594-4.183594v-9.917969zm0 0" fill="#5b5b5b" fill-rule="evenodd"/><path d="m1.421875 8.476562h21.15625v-2.871093c0-2.316407-1.867187-4.183594-4.183594-4.183594h-12.789062c-2.316407 0-4.183594 1.867187-4.183594 4.183594zm0 0" fill="#63a535" fill-rule="evenodd"/><path d="m12 15.523438c0 2.484374-2.015625 4.5-4.5 4.5s-4.5-2.015626-4.5-4.5c0-2.484376 2.015625-4.5 4.5-4.5s4.5 2.015624 4.5 4.5zm0 0" fill="#cccccf" fill-opacity=".941176"/><path d="m9.75 15.523438c0 1.242187-1.007812 2.25-2.25 2.25s-2.25-1.007813-2.25-2.25c0-1.242188 1.007812-2.25 2.25-2.25s2.25 1.007812 2.25 2.25zm0 0" fill="#5b5b5b"/><path d="m21 15.523438c0 2.484374-2.015625 4.5-4.5 4.5s-4.5-2.015626-4.5-4.5c0-2.484376 2.015625-4.5 4.5-4.5s4.5 2.015624 4.5 4.5zm0 0" fill="#cccccf" fill-opacity=".941176"/><path d="m18.75 15.523438c0 1.242187-1.007812 2.25-2.25 2.25s-2.25-1.007813-2.25-2.25c0-1.242188 1.007812-2.25 2.25-2.25s2.25 1.007812 2.25 2.25zm0 0" fill="#5b5b5b"/><path d="m6.75 5.035156c0 .621094-.503906 1.125-1.125 1.125s-1.125-.503906-1.125-1.125.503906-1.125 1.125-1.125 1.125.503906 1.125 1.125zm0 0" fill="#5b5b5b"/><path d="m17.25 3.910156h2.25v2.25h-2.25zm0 0" fill="#983a0e"/><path d="m18 4.660156h.75v.75h-.75zm0 0" fill="#f7bf32"/><path d="m9.75 5.035156c0 .621094-.503906 1.125-1.125 1.125s-1.125-.503906-1.125-1.125.503906-1.125 1.125-1.125 1.125.503906 1.125 1.125zm0 0" fill="#5b5b5b"/><path d="m12.75 5.035156c0 .621094-.503906 1.125-1.125 1.125s-1.125-.503906-1.125-1.125.503906-1.125 1.125-1.125 1.125.503906 1.125 1.125zm0 0" fill="#5b5b5b"/></svg>