<svg height="24pt" viewBox="0 0 24 24" width="24pt" xmlns="http://www.w3.org/2000/svg"><path d="m5.605469 1.421875h12.789062c2.308594 0 4.183594 1.875 4.183594 4.183594v12.789062c0 2.308594-1.875 4.183594-4.183594 4.183594h-12.789062c-2.308594 0-4.183594-1.875-4.183594-4.183594v-12.789062c0-2.308594 1.875-4.183594 4.183594-4.183594zm0 0" fill="#498fb7" fill-rule="evenodd"/><path d="m8 18.5 2-10 1 15 1-14 1 13 1-11 1 7 2-9v12l2-13 2 15 1-11 2 5" fill="none" stroke="#a5bedc" stroke-linecap="round" stroke-linejoin="round" transform="scale(.75)"/></svg>