<svg height="24pt" viewBox="0 0 24 24" width="24pt" xmlns="http://www.w3.org/2000/svg"><path d="m5.605469 1.421875h12.789062c2.308594 0 4.183594 1.875 4.183594 4.183594v12.789062c0 2.308594-1.875 4.183594-4.183594 4.183594h-12.789062c-2.308594 0-4.183594-1.875-4.183594-4.183594v-12.789062c0-2.308594 1.875-4.183594 4.183594-4.183594zm0 0" fill="#8e8e8e" fill-rule="evenodd"/><g fill="#ff2f2f"><path d="m1.5 11.625h3v .75h-3zm0 0"/><path d="m6 11.625h3v .75h-3zm0 0"/><path d="m10.5 11.625h3v .75h-3zm0 0"/><path d="m15 11.625h3v .75h-3zm0 0"/><path d="m19.5 11.625h3v .75h-3zm0 0"/></g><path d="m6 21.791667s7.208333 4 10 2c5.411458-3.880209-5.307292-13.885417 1-16 4.166667-1.401042 9 8 9 8" fill="none" stroke="#2e2e2e" stroke-linecap="round" stroke-linejoin="round" transform="scale(.75)"/></svg>