<svg height="24pt" viewBox="0 0 24 24" width="24pt" xmlns="http://www.w3.org/2000/svg" xmlns:xlink="http://www.w3.org/1999/xlink"><clipPath id="a"><path d="m0 0h24v24h-24z"/></clipPath><g fill-rule="evenodd"><path d="m22.574219 9.167969v-3.5625c0-2.316407-1.863281-4.183594-4.179688-4.183594h-3.5625zm0 0" fill="#b3b3b3"/><path d="m13.582031 1.425781h-7.976562c-2.316407 0-4.183594 1.863281-4.183594 4.179688v12.789062c0 2.316407 1.867187 4.183594 4.183594 4.183594h12.789062c2.316407 0 4.179688-1.867187 4.179688-4.183594v-7.976562zm0 0" fill="#b3b3b3"/><path d="m13.582031 1.425781 8.992188 8.992188v-1.25l-7.742188-7.742188zm0 0" fill="#fff"/></g><g clip-path="url(#a)"><path d="m12.286458 13.192708h12.203125v1.171875h-11.25l-2.229166 10.661459-.369792 1.645833-.734375-1.5-2.34375-4.6875 1.026042-.515625 1.578125 3.1875 2.015625-9.489583zm2.822917 2.34375h1.171875l2.34375 3.734375 2.34375-3.734375h1.171875l-2.927083 4.6875 2.927083 4.692709h-1.171875l-2.34375-3.739584-2.34375 3.739584h-1.171875l2.932292-4.692709zm0 0" fill="#fff" stroke="#fff" stroke-width=".3" transform="scale(.75)"/></g></svg>