<svg height="24pt" viewBox="0 0 24 24" width="24pt" xmlns="http://www.w3.org/2000/svg"><path d="m5.605469 1.421875h12.789062c2.308594 0 4.183594 1.875 4.183594 4.183594v12.789062c0 2.308594-1.875 4.183594-4.183594 4.183594h-12.789062c-2.308594 0-4.183594-1.875-4.183594-4.183594v-12.789062c0-2.308594 1.875-4.183594 4.183594-4.183594zm0 0" fill="#8e8e8e" fill-rule="evenodd"/><path d="m6.6875 6.132812h10.625c1.394531 0 2.523438 1.128907 2.523438 2.523438v6.6875c0 1.394531-1.128907 2.523438-2.523438 2.523438h-10.625c-1.394531 0-2.523438-1.128907-2.523438-2.523438v-6.6875c0-1.394531 1.128907-2.523438 2.523438-2.523438zm0 0" fill="#474747"/><path d="m6.777344 6.875h10.445312c1.054688 0 1.910156.824219 1.910156 1.835938v6.578124c0 1.011719-.855468 1.835938-1.910156 1.835938h-10.445312c-1.054688 0-1.910156-.824219-1.910156-1.835938v-6.578124c0-1.011719.855468-1.835938 1.910156-1.835938zm0 0" fill="#232323"/><path d="m11.9375 9.601562c-.777344.007813-1.554688.183594-2.230469.566407-.269531.175781-.59375.402343-.835937.628906-.382813.375-.710938.8125-.933594 1.304687.609375 1.339844 1.941406 2.320313 3.410156 2.464844.964844.109375 1.972656-.054687 2.820313-.53125.269531-.175781.59375-.402344.835937-.632812.382813-.375.710938-.8125.933594-1.300782-.609375-1.339843-1.945312-2.324218-3.414062-2.46875-.195313-.023437-.390626-.03125-.585938-.03125zm0 1c .804688-.019531 1.515625.699219 1.5 1.5.023438.882813-.855469 1.644532-1.726562 1.480469-.878907-.105469-1.496094-1.089843-1.207032-1.925781.1875-.613281.789063-1.0625 1.433594-1.054688zm0 1c-.132812 0-.261719.050782-.355469.144532s-.144531.222656-.144531.355468c0 .277344.222656.5.5.5s.5-.222656.5-.5c0-.277343-.226562-.5-.5-.5zm0 0" fill="#fff" fill-rule="evenodd"/></svg>