<svg height="24pt" viewBox="0 0 24 24" width="24pt" xmlns="http://www.w3.org/2000/svg"><path d="m1.425781 10.273438v8.121093c0 2.316407 1.863281 4.183594 4.179688 4.183594h12.789062c2.316407 0 4.183594-1.867187 4.183594-4.183594v-8.121093zm0 0" fill="#005491" fill-rule="evenodd"/><path d="m1.425781 10.273438h21.152344v-4.667969c0-2.316407-1.867187-4.183594-4.183594-4.183594h-12.789062c-2.316407 0-4.179688 1.867187-4.179688 4.183594zm0 0" fill="#528ba7" fill-rule="evenodd"/><path d="m9 15.117188h6c .414062 0 .75.335937.75.75v.75c0 .414062-.335938.75-.75.75h-6c-.414062 0-.75-.335938-.75-.75v-.75c0-.414063.335938-.75.75-.75zm0 0" fill="#ececec"/></svg>