<svg height="24pt" viewBox="0 0 24 24" width="24pt" xmlns="http://www.w3.org/2000/svg"><g fill-rule="evenodd"><path d="m5.605469 1.421875h12.789062c2.308594 0 4.183594 1.875 4.183594 4.183594v12.789062c0 2.308594-1.875 4.183594-4.183594 4.183594h-12.789062c-2.308594 0-4.183594-1.875-4.183594-4.183594v-12.789062c0-2.308594 1.875-4.183594 4.183594-4.183594zm0 0" fill="#8e8e8e"/><g fill="#4f4f4f"><path d="m18.625 1.46875v10.867188c0 .46875.222656.84375.503906.84375h1.03125c.277344 0 .5-.375.5-.84375v-10.15625c-.597656-.398438-1.273437-.667969-2.035156-.710938zm0 0"/><path d="m15.566406 1.425781v10.910157c0 .46875.226563.84375.503906.84375h1.03125c.28125 0 .503907-.375.503907-.84375v-10.910157zm0 0"/><path d="m12.507812 1.425781v10.910157c0 .46875.226563.84375.503907.84375h1.03125c.28125 0 .503906-.375.503906-.84375v-10.910157zm0 0"/><path d="m6.394531 1.425781v10.910157c0 .46875.222657.84375.503907.84375h1.03125c.277343 0 .503906-.375.503906-.84375v-10.910157zm0 0"/></g><path d="m19.644531 13.179688v9.144531c1.691407-.535157 2.933594-2.054688 2.933594-3.929688v-12.789062c0-1.460938-.789063-2.679688-1.917969-3.425781v10.15625c0 .46875-.222656.84375-.5.84375zm0 0" fill="#a860a2"/><path d="m16.585938 13.179688v9.398437h1.808593c.445313 0 .847657-.125 1.25-.253906v-9.144531h-.515625c-.28125 0-.503906-.375-.503906-.84375v-10.867188c-.082031-.003906-.148438-.046875-.230469-.046875h-.789062v10.914063c0 .46875-.222657.84375-.503907.84375zm0 0" fill="#476eb9"/><path d="m13.527344 13.179688v9.398437h3.058594v-9.398437h-.515626c-.277343 0-.503906-.375-.503906-.84375v-10.910157h-1.019531v10.910157c0 .46875-.222656.84375-.503906.84375zm0 0" fill="#4cb094"/><path d="m10.472656 1.425781v21.152344h3.054688v-9.398437h-.515625c-.277344 0-.5-.375-.5-.84375v-10.910157zm0 0" fill="#40a95d"/><path d="m7.414062 13.179688v9.398437h3.058594v-21.152344h-2.039062v10.910157c0 .46875-.226563.84375-.503906.84375zm0 0" fill="#ecb554"/><path d="m4.355469 13.179688v9.144531c.402343.128906.804687.253906 1.25.253906h1.808593v-9.398437h-.515624c-.28125 0-.503907-.375-.503907-.84375v-10.910157h-.789062c-.082031 0-.148438.039063-.230469.042969v10.867188c0 .46875-.222656.84375-.503906.84375zm0 0" fill="#eb8644"/><path d="m4.355469 22.324219v-9.144531h-.511719c-.28125 0-.507812-.375-.507812-.84375v-10.15625c-1.125.75-1.914063 1.964843-1.914063 3.425781v12.789062c0 1.875 1.242187 3.394531 2.933594 3.929688zm0 0" fill="#da6156"/><path d="m3.335938 2.179688v10.15625c0 .46875.226562.84375.507812.84375h1.027344c.28125 0 .503906-.375.503906-.84375v-10.867188c-.765625.042969-1.4375.316406-2.039062.710938zm0 0" fill="#4f4f4f"/></g></svg>