<svg height="24pt" viewBox="0 0 24 24" width="24pt" xmlns="http://www.w3.org/2000/svg"><path d="m5.605469 1.421875h12.789062c2.308594 0 4.183594 1.875 4.183594 4.183594v12.789062c0 2.308594-1.875 4.183594-4.183594 4.183594h-12.789062c-2.308594 0-4.183594-1.875-4.183594-4.183594v-12.789062c0-2.308594 1.875-4.183594 4.183594-4.183594zm0 0" fill="#f8d7ae" fill-rule="evenodd"/><path d="m16.5 6.75c-1.308594 0-2.046875.679688-2.359375 1.339844-.308594.660156-.265625 1.308594-.265625 1.308594l.75-.046876s-.023438-.476562.195312-.941406.605469-.910156 1.679688-.910156c1.070312 0 1.460938.445312 1.679688.910156s.195312.941406.195312.941406l.75.046876s.042969-.648438-.269531-1.308594c-.308594-.660156-1.046875-1.339844-2.355469-1.339844zm0 2.25c-.207031 0-.375.167969-.375.375s.167969.375.375.375.375-.167969.375-.375-.167969-.375-.375-.375zm-9 .75c-1.308594 0-2.046875.679688-2.355469 1.339844-.3125.660156-.269531 1.308594-.269531 1.308594v4.851562h.75v-4.898438s-.023438-.476562.195312-.941406.609376-.910156 1.679688-.910156c1.074219 0 1.460938.445312 1.679688.910156s.195312.941406.195312.941406v4.898438h.75v-4.898438s-.023438-.476562.195312-.941406.609376-.910156 1.679688-.910156c1.074219 0 1.460938.445312 1.679688.910156s.195312.941406.195312.941406v2.25s-.042969.648438.265625 1.308594c.3125.660156 1.050781 1.339844 2.359375 1.339844s2.046875-.679688 2.355469-1.339844c.3125-.660156.269531-1.308594.269531-1.308594v-4.851562h-.75v4.898438s.023438.476562-.195312.941406-.609376.910156-1.679688.910156c-1.074219 0-1.460938-.445312-1.679688-.910156s-.195312-.941406-.195312-.941406v-2.25s.042969-.648438-.265625-1.308594c-.3125-.660156-1.050781-1.339844-2.359375-1.339844-1.179688 0-1.890625.554688-2.25 1.144531-.355469-.589843-1.070312-1.144531-2.25-1.144531zm0 0" fill="#2a567b" fill-rule="evenodd"/></svg>