<svg height="24pt" viewBox="0 0 24 24" width="24pt" xmlns="http://www.w3.org/2000/svg"><path d="m5.605469 1.421875h12.789062c2.308594 0 4.183594 1.875 4.183594 4.183594v12.789062c0 2.308594-1.875 4.183594-4.183594 4.183594h-12.789062c-2.308594 0-4.183594-1.875-4.183594-4.183594v-12.789062c0-2.308594 1.875-4.183594 4.183594-4.183594zm0 0" fill="#303877" fill-rule="evenodd"/><path d="m12 6.75c-1.648438 0-3.292969.40625-4.550781 1.203125-2.761719 1.753906-2.949219 4.789063-.414063 6.652344.234375.167969.445313.324219.472656.34375l-.703124 1.25 1.445312 1.050781 3.75-6.238281 3.75 6.238281 1.445312-1.050781-.703124-1.25c.027343-.019531.238281-.175781.472656-.34375 2.535156-1.863281 2.347656-4.898438-.414063-6.652344-1.257812-.796875-2.902343-1.203125-4.550781-1.203125zm-.378906.75-3.375 6c-3.75-3 .375-6 3.375-6zm .753906 0c3 0 7.125 3 3.375 6zm-.375 5.25-1.5 2.25 1.5 2.25 1.5-2.25zm0 0" fill="#9c9c9c"/></svg>