<svg height="24pt" viewBox="0 0 24 24" width="24pt" xmlns="http://www.w3.org/2000/svg"><g fill-rule="evenodd"><path d="m22.511719 5.292969c0 .351562-.011719.707031-.035157 1.058593-.050781.589844-.128906 1.175782-.238281 1.753907-.109375.582031-.246093 1.15625-.414062 1.722656-.164063.566406-.355469 1.125-.578125 1.671875s-.46875 1.082031-.746094 1.605469c-.273438.523437-.574219 1.03125-.902344 1.523437-.324218.492188-.675781.96875-1.046875 1.425782-.375.457031-.769531.894531-1.1875 1.3125-.257812.257812-.523437.511718-.800781.75-.441406.390624-.902344.757812-1.382812 1.101562-.480469.347656-.976563.667969-1.488282.960938-.511718.292968-1.035156.5625-1.574218.804687-.539063.242187-1.089844.457031-1.648438.644531s-1.128906.34375-1.703125.476563c-.574219.128906-1.15625.230469-1.742187.300781-.550782.066406-1.105469.109375-1.660157.121094.085938.003906.15625.046875.242188.046875h12.789062c2.316407 0 4.179688-1.863281 4.179688-4.179688v-12.789062c0-.109375-.050781-.203125-.0625-.3125zm0 0" fill="#7de63e"/><path d="m18.636719 1.472656c-.554688.011719-1.109375.054688-1.660157.121094-.585937.070312-1.164062.171875-1.742187.300781-.574219.132813-1.144531.289063-1.703125.476563s-1.109375.402344-1.648438.644531c-.535156.242187-1.0625.511719-1.574218.804687-.511719.296876-1.007813.617188-1.488282.960938-.480468.34375-.941406.710938-1.382812 1.101562-.273438.242188-.542969.492188-.800781.75-.417969.417969-.8125.855469-1.183594 1.3125-.375.457032-.726563.933594-1.050781 1.425782-.324219.492187-.625 1-.902344 1.523437-.273438.523438-.523438 1.058594-.746094 1.605469-.21875.546875-.414062 1.105469-.582031 1.671875-.164063.566406-.300781 1.140625-.410156 1.722656s-.1875 1.167969-.238281 1.753907c-.019532.355468-.035157.710937-.035157 1.066406.164063 2.074218 1.789063 3.6875 3.875 3.8125.554688-.011719 1.109375-.054688 1.660157-.121094.585937-.070312 1.167968-.171875 1.742187-.300781.574219-.132813 1.144531-.289063 1.703125-.476563s1.109375-.402344 1.648438-.644531c.539062-.242187 1.0625-.511719 1.574218-.804687.511719-.292969 1.007813-.613282 1.488282-.960938.480468-.34375.941406-.710938 1.382812-1.101562.277344-.238282.542969-.492188.800781-.75.417969-.417969.8125-.855469 1.1875-1.3125.371094-.457032.722657-.933594 1.046875-1.425782.328125-.492187.628906-1 .902344-1.523437.277344-.523438.523438-1.058594.746094-1.605469s.414062-1.105469.578125-1.671875c.167969-.566406.304687-1.140625.414062-1.722656.109375-.578125.1875-1.164063.238281-1.753907.023438-.351562.035157-.707031.035157-1.058593-.160157-2.078125-1.789063-3.695313-3.875-3.820313zm0 0" fill="#5abb3e"/><path d="m5.605469 1.421875c-2.316407 0-4.183594 1.867187-4.183594 4.183594v12.789062c0 .113281.058594.207031.066406.320313 0-.355469.015625-.710938.035157-1.066406.050781-.585938.128906-1.171876.238281-1.753907s.246093-1.15625.414062-1.722656c.164063-.566406.359375-1.125.578125-1.671875.222656-.546875.472656-1.082031.746094-1.605469.277344-.523437.578125-1.03125.902344-1.523437.324218-.492188.675781-.96875 1.050781-1.425782.371094-.457031.765625-.894531 1.183594-1.3125.257812-.257812.527343-.507812.800781-.75.441406-.390624.902344-.757812 1.382812-1.101562.480469-.34375.976563-.664062 1.488282-.960938.511718-.292968 1.039062-.5625 1.574218-.804687.539063-.242187 1.089844-.457031 1.648438-.644531s1.128906-.34375 1.703125-.476563c.578125-.128906 1.15625-.230469 1.742187-.300781.550782-.066406 1.105469-.109375 1.660157-.121094-.085938-.003906-.15625-.046875-.242188-.046875zm0 0" fill="#7de63e"/></g><path d="m16.515625 12c0 2.496094-2.019531 4.515625-4.515625 4.515625s-4.515625-2.019531-4.515625-4.515625 2.019531-4.515625 4.515625-4.515625 4.515625 2.019531 4.515625 4.515625zm0 0" fill="#3f832c"/><path d="m15.011719 12c0 1.664062-1.347657 3.011719-3.011719 3.011719s-3.011719-1.347657-3.011719-3.011719 1.347657-3.011719 3.011719-3.011719 3.011719 1.347657 3.011719 3.011719zm0 0" fill="#ffc20c"/><path d="m20.28125 5.976562c0 1.25-1.011719 2.261719-2.257812 2.261719-1.246094 0-2.257813-1.011719-2.257813-2.261719 0-1.246093 1.011719-2.257812 2.257813-2.257812 1.246093 0 2.257812 1.011719 2.257812 2.257812zm0 0" fill="#3f832c"/><path d="m19.527344 5.976562c0 .832032-.671875 1.507813-1.503906 1.507813-.832032 0-1.507813-.675781-1.507813-1.507813 0-.832031.675781-1.503906 1.507813-1.503906.832031 0 1.503906.671875 1.503906 1.503906zm0 0" fill="#ffc20c"/><path d="m8.234375 18.023438c0 1.246093-1.007813 2.257812-2.257813 2.257812-1.246093 0-2.257812-1.011719-2.257812-2.257812 0-1.246094 1.011719-2.257813 2.257812-2.257813 1.25 0 2.257813 1.011719 2.257813 2.257813zm0 0" fill="#3f832c"/><path d="m7.484375 18.023438c0 .832031-.675781 1.503906-1.507813 1.503906-.832031 0-1.503906-.671875-1.503906-1.503906 0-.832032.671875-1.507813 1.503906-1.507813.832032 0 1.507813.675781 1.507813 1.507813zm0 0" fill="#ffc20c"/></svg>