<svg height="24pt" viewBox="0 0 24 24" width="24pt" xmlns="http://www.w3.org/2000/svg"><path d="m5.605469 1.421875h12.789062c2.308594 0 4.183594 1.875 4.183594 4.183594v12.789062c0 2.308594-1.875 4.183594-4.183594 4.183594h-12.789062c-2.308594 0-4.183594-1.875-4.183594-4.183594v-12.789062c0-2.308594 1.875-4.183594 4.183594-4.183594zm0 0" fill="#f1d27a" fill-rule="evenodd"/><path d="m8.998966 14c0-6.302083 4.203125-5 14-5" fill="none" stroke="#454545" stroke-linecap="round" stroke-linejoin="round" stroke-width="6" transform="matrix(.75 0 0 .75 -.01485 0)"/><path d="m23.040633 18c0 6.302083-4.203125 5-14 5" fill="none" stroke="#454545" stroke-linecap="round" stroke-linejoin="round" stroke-width="6" transform="matrix(.75 0 0 .75 -.01485 0)"/></svg>