<svg height="24pt" viewBox="0 0 24 24" width="24pt" xmlns="http://www.w3.org/2000/svg"><path d="m5.605469 1.421875h12.789062c2.308594 0 4.183594 1.875 4.183594 4.183594v12.789062c0 2.308594-1.875 4.183594-4.183594 4.183594h-12.789062c-2.308594 0-4.183594-1.875-4.183594-4.183594v-12.789062c0-2.308594 1.875-4.183594 4.183594-4.183594zm0 0" fill="#3e50b4" fill-rule="evenodd"/><path d="m6.597656 4.816406c-.34375-.007812-.675781.105469-.921875.316406-.246093.214844-.386719.503907-.386719.808594v12.113282c0 .40625.242188.777343.636719.980468.390625.199219.878907.199219 1.269531-.003906l11.828126-6.054688c.390624-.203124.632812-.574218.632812-.976562s-.242188-.777344-.632812-.976562l-5.914063-3.027344-5.914063-3.03125c-.179687-.09375-.386718-.144532-.597656-.148438zm0 0" fill="#fff"/><path d="m11.914062 8.921875c.144532-.003906.289063.042969.394532.136719.105468.089844.164062.214844.164062.34375v5.191406c0 .175781-.101562.332031-.269531.421875-.171875.085937-.378906.085937-.546875 0l-2.535156-1.300781-2.53125-1.296875c-.171875-.085938-.273438-.246094-.273438-.417969s.101563-.332031.273438-.417969l2.53125-1.296875 2.535156-1.300781c.078125-.039063.167969-.0625.257812-.0625zm0 0" fill="#3e50b4"/></svg>