<svg height="24pt" viewBox="0 0 24 24" width="24pt" xmlns="http://www.w3.org/2000/svg"><path d="m5.605469 1.421875h12.789062c2.308594 0 4.183594 1.875 4.183594 4.183594v12.789062c0 2.308594-1.875 4.183594-4.183594 4.183594h-12.789062c-2.308594 0-4.183594-1.875-4.183594-4.183594v-12.789062c0-2.308594 1.875-4.183594 4.183594-4.183594zm0 0" fill="#3c8cf8" fill-rule="evenodd"/><path d="m17.980469 4.984375-8.136719 1.875c-1.148438.144531-1.105469 1.320313-1.105469 1.320313v5.003906c-.261719-.074219-.539062-.113282-.8125-.117188-1.652343 0-2.988281 1.339844-2.988281 2.992188 0 1.648437 1.335938 2.988281 2.988281 2.988281 1.542969-.003906 2.832031-1.179687 2.972657-2.71875h.015624v-7.519531l5.976563-1.421875v4.167969c-.265625-.074219-.539063-.117188-.816406-.117188-1.648438 0-2.988281 1.339844-2.988281 2.988281 0 1.652344 1.339843 2.988281 2.988281 2.988281 1.546875 0 2.835937-1.175781 2.976562-2.714843h.011719v-8.695313s.015625-1.25-1.082031-1.019531zm0 0" fill="#fff"/><path d="m21.074219 16.496094c0 2.488281-2.015625 4.5-4.5 4.5-2.488281 0-4.5-2.011719-4.5-4.5 0-2.484375 2.011719-4.5 4.5-4.5 2.484375 0 4.5 2.015625 4.5 4.5zm0 0" fill="#f5c839"/><path d="m14.886719 13.683594v1.125h-1.125v1.125h1.125v1.125h-1.125v1.125h1.125v1.125h1.125v-1.125h1.125v1.125h1.125v-1.125h1.125v-1.125h-1.125v-1.125h1.125v-1.125h-1.125v-1.125h-1.125v1.125h-1.125v-1.125zm1.125 2.25h1.125v1.125h-1.125zm0 0" fill="#fff"/></svg>