<svg height="24pt" viewBox="0 0 24 24" width="24pt" xmlns="http://www.w3.org/2000/svg"><path d="m5.605469 1.421875h12.789062c2.308594 0 4.183594 1.875 4.183594 4.183594v12.789062c0 2.308594-1.875 4.183594-4.183594 4.183594h-12.789062c-2.308594 0-4.183594-1.875-4.183594-4.183594v-12.789062c0-2.308594 1.875-4.183594 4.183594-4.183594zm0 0" fill="#4f4f4f" fill-rule="evenodd"/><g fill="#ffab36"><path d="m18 3.75-12 3.75v4.5l12-3.75zm0 0"/><path d="m18 12-12 3.75v4.5l12-3.75zm0 0"/><path d="m6 7.5 12 4.5v4.5l-12-4.5zm0 0"/></g></svg>