<svg height="24pt" viewBox="0 0 24 24" width="24pt" xmlns="http://www.w3.org/2000/svg"><path d="m5.605469 1.421875h12.789062c2.308594 0 4.183594 1.875 4.183594 4.183594v12.789062c0 2.308594-1.875 4.183594-4.183594 4.183594h-12.789062c-2.308594 0-4.183594-1.875-4.183594-4.183594v-12.789062c0-2.308594 1.875-4.183594 4.183594-4.183594zm0 0" fill="#6eaa36" fill-rule="evenodd"/><path d="m11.730469 3.601562c-3.21875 0-5.0625 1.316407-6.261719 2.804688.921875.253906 1.5625.460938 1.769531.53125.003907-.140625.027344-1.394531.027344-1.394531l.015625-.039063.046875-.015625c.285156.042969 6.324219.9375 8.867187 2.417969.316407.183594.46875.378906.664063.578125.703125.726563 1.636719 3.753906 1.738281 4.378906l-.042968.0625c-.035157.015625-.125.078125-.238282.15625-.59375.414063-1.984375 1.386719-3.761718 1.226563-1.597657-.140625-3.6875-1.058594-6.203126-2.71875.109376.261718.632813 1.503906.71875 1.714844l.039063.042968c.363281.1875 3.863281 1.972656 5.597656 1.933594 1.398438-.027344 2.894531-.710938 3.492188-1.070312l.191406-.035157c.054687.042969.046875.125.027344.199219-.035157.171875-.117188.484375-.175781.632812l-.046876.121094c-.066406.179688-.132812.355469-.261718.460938-.351563.320312-.917969.574218-1.796875.960937-1.363281.59375-3.574219.96875-5.628907.957031-.734374-.015624-1.445312-.097656-2.070312-.167968-1.304688-.148438-2.363281-.269532-2.996094.222656 1.539063 1.738281 3.785156 2.835938 6.292969 2.835938 4.636719 0 8.402344-3.757813 8.402344-8.398438s-3.765625-8.398438-8.402344-8.398438zm2.222656 4.445313c-.644531.007813-1.25.25-1.722656.691406-.503907.46875-.796875 1.109375-.820313 1.800781-.046875 1.421876 1.074219 2.621094 2.496094 2.675782.691406.023437 1.347656-.222656 1.851562-.695313.503907-.472656.792969-1.109375.820313-1.796875.046875-1.425781-1.070313-2.625-2.496094-2.675781-.042969 0-.085937 0-.128906 0zm-.070313.761719c.058594-.003906.117188-.003906.175782 0 .996094.035156 1.777344.867187 1.742187 1.863281-.015625.480469-.21875.929687-.570312 1.257813-.351563.328124-.808594.496093-1.292969.480468-.992188-.035156-1.769531-.871094-1.738281-1.867187.015625-.480469.222656-.925781.570312-1.253907.308594-.289062.699219-.457031 1.113281-.480468zm.472657.902344c-.441407 0-.800781.238281-.800781.535156 0 .292968.359374.535156.800781.535156.441406 0 .800781-.242188.800781-.535156 0-.296875-.359375-.535156-.800781-.535156zm0 0" fill="#fff"/></svg>