<svg height="24pt" viewBox="0 0 24 24" width="24pt" xmlns="http://www.w3.org/2000/svg"><g fill-rule="evenodd"><path d="m22.574219 11.578125h-21.148438v6.769531c0 2.316406 1.863281 4.179688 4.179688 4.179688h12.789062c2.316407 0 4.179688-1.863282 4.179688-4.179688zm0 0" fill="#334d5c"/><path d="m22.574219 7.640625h-21.148438v3.9375h21.148438zm0 0" fill="#d07e34"/><path d="m5.605469 1.375c-2.316407 0-4.179688 1.867188-4.179688 4.183594v2.082031h21.148438v-2.082031c.003906-2.316406-1.863281-4.183594-4.179688-4.183594zm0 0" fill="#808080"/><path d="m22.578125 10.996094h-21.15625v7.445312c0 2.316406 1.867187 4.183594 4.183594 4.183594h12.789062c2.316407 0 4.183594-1.867188 4.183594-4.183594zm0 0" fill="#eaad43"/><path d="m6.796875 13.503906c0 .425782-.347656.769532-.769531.769532-.425782 0-.769532-.34375-.769532-.769532 0-.425781.34375-.769531.769532-.769531.421875 0 .769531.34375.769531.769531zm0 0" fill="#cb7f2c"/><path d="m19.109375 13.515625c0 .425781-.34375.769531-.769531.769531-.421875 0-.769532-.34375-.769532-.769531s.347657-.769531.769532-.769531c.425781 0 .769531.34375.769531.769531zm0 0" fill="#cb7f2c"/></g><path d="m-37.340396 20.28893c.765625 11.786459 15.734375 10.671875 16.302084 0" fill="none" stroke="#fff" stroke-linecap="round" stroke-width="1.290687" transform="matrix(.75 0 0 .75 34.067797 -1.423729)"/><path d="m20.820312 16.691406c0 2.070313-1.675781 3.75-3.75 3.75-2.070312 0-3.75-1.679687-3.75-3.75 0-2.070312 1.679688-3.75 3.75-3.75 2.074219 0 3.75 1.679688 3.75 3.75zm0 0" fill="#00b200" fill-rule="evenodd"/><path d="m17.015625 19.179688-2.320313-4.019532h4.640626zm0 0" fill="#fff" fill-rule="evenodd"/></svg>