<svg height="24pt" viewBox="0 0 24 24" width="24pt" xmlns="http://www.w3.org/2000/svg"><path d="m5.605469 1.421875h12.789062c2.308594 0 4.183594 1.875 4.183594 4.183594v12.789062c0 2.308594-1.875 4.183594-4.183594 4.183594h-12.789062c-2.308594 0-4.183594-1.875-4.183594-4.183594v-12.789062c0-2.308594 1.875-4.183594 4.183594-4.183594zm0 0" fill="#4e91d9" fill-rule="evenodd"/><path d="m15.375 19.5c.625 0 1.125-.5 1.125-1.125v-9.75c0-.625-.5-1.125-1.125-1.125h-9.75c-.625 0-1.125.5-1.125 1.125v9.75c0 .625.5 1.125 1.125 1.125zm-1.875-3h-6v-6h6zm0 0" fill="#ffad53"/><path d="m18.375 16.5c.625 0 1.125-.5 1.125-1.125v-9.75c0-.625-.5-1.125-1.125-1.125h-9.75c-.625 0-1.125.5-1.125 1.125v1.875h9v6h-6v-3h-3v4.875c0 .625.5 1.125 1.125 1.125zm0 0" fill="#a3caf6"/></svg>