<svg height="24pt" viewBox="0 0 24 24" width="24pt" xmlns="http://www.w3.org/2000/svg"><path d="m5.605469 1.421875h12.789062c2.308594 0 4.183594 1.875 4.183594 4.183594v12.789062c0 2.308594-1.875 4.183594-4.183594 4.183594h-12.789062c-2.308594 0-4.183594-1.875-4.183594-4.183594v-12.789062c0-2.308594 1.875-4.183594 4.183594-4.183594zm0 0" fill="#f25b6f" fill-rule="evenodd"/><path d="m12.046875 3.332031c-.375-.007812-.742187.082031-1.066406.265625l-6.007813 3.347656c-.632812.351563-1.019531 1-1.019531 1.707032v6.695312c0 .703125.386719 1.355469 1.019531 1.707032l6.007813 3.347656c.628906.351562 1.410156.351562 2.039062 0l6.007813-3.347656c.632812-.351563 1.019531-1.003907 1.019531-1.707032v-6.695312c0-.707032-.386719-1.355469-1.019531-1.707032l-6.007813-3.351562c-.292969-.164062-.628906-.253906-.972656-.261719zm0 0" fill="#4f4f4f"/><path d="m14.355469 7.046875c-.929688 0-1.769531.472656-2.355469 1.195313-.585938-.722657-1.425781-1.195313-2.355469-1.195313-1.777343 0-3.214843 1.636719-3.214843 3.660156 0 .542969.082031 1.0625.230468 1.5625 0 0 .132813.449219.253906.699219 1.351563 3.167969 5.085938 5.222656 5.085938 5.222656s3.734375-2.054687 5.085938-5.222656c1.355468-3.167969.175781-.421875.253906-.699219.140625-.5.230468-1.019531.230468-1.5625 0-2.023437-1.4375-3.660156-3.214843-3.660156zm0 0" fill="#f25b6f"/></svg>