<svg height="24pt" viewBox="0 0 24 24" width="24pt" xmlns="http://www.w3.org/2000/svg"><path d="m5.605469 1.421875h12.789062c2.308594 0 4.183594 1.875 4.183594 4.183594v12.789062c0 2.308594-1.875 4.183594-4.183594 4.183594h-12.789062c-2.308594 0-4.183594-1.875-4.183594-4.183594v-12.789062c0-2.308594 1.875-4.183594 4.183594-4.183594zm0 0" fill="#4b5e83" fill-rule="evenodd"/><path d="m12 3.117188c-.257812 0-.515625.015624-.773438.039062-.125.011719-.246093.027344-.371093.046875-.171875.019531-.347657.046875-.519531.078125-.117188.023438-.234376.050781-.347657.078125-.171875.039063-.339843.082031-.507812.128906-.113281.035157-.222657.070313-.335938.109375-.175781.058594-.351562.125-.523437.195313-.085938.039062-.171875.078125-.257813.117187-.1875.082032-.371093.167969-.550781.261719-.078125.042969-.152344.089844-.230469.136719-.183593.101562-.363281.210937-.539062.328125-.078125.054687-.160157.113281-.238281.171875-.136719.097656-.277344.199218-.410157.304687v.003907l-2.066406-.003907v2.425781.003907c-.136719.230469-.257813.46875-.371094.710937-.015625.035156-.035156.070313-.050781.105469-.09375.214844-.183594.433594-.261719.660156-.023437.058594-.046875.121094-.070312.1875-.0625.199219-.121094.398438-.171875.601563-.023438.09375-.046875.183594-.070313.273437-.039062.191407-.074219.378907-.101562.570313-.015625.105468-.03125.207031-.046875.3125-.019532.167968-.03125.335937-.039063.507812-.015625.175782-.023437.351563-.027343.527344.003906.265625.015624.527344.042968.792969.007813.097656.019532.191406.035156.289062.023438.207031.054688.414063.09375.621094.015626.066406.027344.128906.042969.195313.050781.230468.109375.457031.175781.683593.015626.042969.027344.085938.042969.125.082031.253907.171875.503907.277344.75.144531.34375.3125.675781.5 1v2.429688h2.070313c.226562.183593.460937.355469.707031.519531.015625.007812.035156.019531.050781.03125.226562.148438.460938.285156.699219.414062.046875.023438.097656.046876.144531.070313.214844.109375.429688.207031.652344.300781.0625.023438.121094.042969.183594.066406.210937.082032.425781.15625.644531.222657.089843.023437.175781.046875.261719.066406.191406.054687.386718.101563.582031.140625.121093.019531.246093.039062.367187.054688.167969.027343.335938.050781.507813.070312.265625.023438.53125.039062.800781.039062.257812 0 .515625-.015624.773438-.039062.125-.011719.246093-.027344.371093-.046875.171875-.019531.347657-.046875.519531-.078125.117188-.023438.234376-.050781.347657-.078125.171875-.039063.339843-.082031.507812-.128906.113281-.035157.222657-.070313.335938-.109375.175781-.058594.351562-.125.523437-.195313.085938-.039062.171875-.078125.257813-.117187.1875-.082032.371093-.167969.550781-.261719.078125-.042969.152344-.089844.230469-.136719.183593-.101562.363281-.210937.539062-.328125.078125-.054687.160157-.113281.238281-.171875.136719-.097656.277344-.199218.410157-.304687h2.066406v-2.425781s0 0 0-.003907c.136719-.230469.257813-.46875.371094-.710937.015625-.035156.035156-.070313.050781-.105469.09375-.214844.183594-.433594.261719-.660156.023437-.058594.046875-.121094.070312-.1875.0625-.199219.121094-.398438.171875-.601563.023438-.09375.046875-.183594.070313-.273437.039062-.191407.074219-.378907.101562-.570313.015625-.105468.03125-.207031.046875-.3125.019532-.167968.03125-.335937.039063-.507812.015625-.175782.023437-.351563.027343-.527344-.003906-.265625-.015624-.527344-.042968-.792969-.007813-.097656-.019532-.191406-.035156-.289062-.023438-.207031-.054688-.414063-.09375-.621094-.015626-.066406-.027344-.128906-.042969-.195313-.050781-.230468-.109375-.457031-.179688-.683593-.011719-.042969-.023437-.085938-.039062-.125-.082031-.253907-.171875-.503907-.277344-.75-.144531-.34375-.3125-.675781-.5-1v-2.429688h-2.070313c-.226562-.183593-.460937-.355469-.707031-.519531 0 0-.003906-.003906-.007812-.003906-.011719-.007813-.027344-.019532-.042969-.027344-.226562-.148438-.460938-.285156-.699219-.414062-.046875-.023438-.097656-.046876-.144531-.070313-.214844-.109375-.429688-.207031-.652344-.300781-.0625-.023438-.121094-.042969-.183594-.066406-.210937-.082032-.425781-.15625-.644531-.226563-.089843-.019531-.175781-.042969-.261719-.0625-.191406-.054687-.386718-.101563-.582031-.140625-.121093-.019531-.246093-.039062-.367187-.054688-.167969-.027343-.335938-.050781-.507813-.070312-.265625-.023438-.53125-.039062-.800781-.039062zm0 0" fill="#ffd144"/><path d="m19.183594 12c0 3.96875-3.214844 7.183594-7.183594 7.183594s-7.183594-3.214844-7.183594-7.183594 3.214844-7.183594 7.183594-7.183594 7.183594 3.214844 7.183594 7.183594zm0 0" fill="#4b5e83"/><path d="m7.199219 7.097656 2.035156 8.875-.1875.925782 2.582031.003906-.214844-.851563.585938-2.121093.585938 2.121093-.214844.851563v.003906-.003906l2.582031-.003906-.1875-.925782 2.035156-8.875h-2.15625l.070313.914063-1.261719 5.484375-1.453125-5.773438-1.453125 5.773438-1.261719-5.484375.070313-.914063zm2.933593 8.851563h.414063l-.414063.003906zm3.320313 0h .414063v.003906zm0 0" fill="#fff"/></svg>