<svg height="24pt" viewBox="0 0 24 24" width="24pt" xmlns="http://www.w3.org/2000/svg"><path d="m5.605469 1.421875h12.789062c2.308594 0 4.183594 1.875 4.183594 4.183594v12.789062c0 2.308594-1.875 4.183594-4.183594 4.183594h-12.789062c-2.308594 0-4.183594-1.875-4.183594-4.183594v-12.789062c0-2.308594 1.875-4.183594 4.183594-4.183594zm0 0" fill="#3c8cf8" fill-rule="evenodd"/><path d="m5.980469 4.488281c-.828125.011719-1.492188.695313-1.480469 1.523438v11.996093c0 .597657.355469 1.140626.902344 1.378907.550781.238281 1.1875.128906 1.625-.28125l4.972656-4.640625 4.972656 4.640625c.4375.410156 1.074219.519531 1.625.28125.546875-.238281.902344-.78125.902344-1.378907v-11.996093c.007812-.539063-.277344-1.042969-.746094-1.316407-.464844-.273437-1.046875-.273437-1.511718 0-.46875.273438-.753907.777344-.746094 1.316407v8.539062l-3.472656-3.238281c-.574219-.539062-1.472657-.539062-2.046876 0l-3.472656 3.238281v-8.539062c.007813-.40625-.152344-.796875-.441406-1.082031-.285156-.289063-.675781-.445313-1.082031-.441407zm0 0" fill="#fff"/></svg>