<svg height="24pt" viewBox="0 0 24 24" width="24pt" xmlns="http://www.w3.org/2000/svg"><path d="m5.605469 1.421875h12.789062c2.308594 0 4.183594 1.875 4.183594 4.183594v12.789062c0 2.308594-1.875 4.183594-4.183594 4.183594h-12.789062c-2.308594 0-4.183594-1.875-4.183594-4.183594v-12.789062c0-2.308594 1.875-4.183594 4.183594-4.183594zm0 0" fill="#606060" fill-rule="evenodd"/><path d="m11.507812 7.316406c-3.453124 0-2.648437 3.042969-4.417968 3.992188-1.792969 1.015625-.804688 1.925781-.515625 2.910156.492187 1.640625 1.863281.480469 5.917969-.492188 4.054687-.972656 4.929687-.828124 4.4375-2.464843-.292969-.972657.671874-1.875-1.425782-1.960938-1.703125.09375-1.53125-1.984375-3.996094-1.984375zm0 0" fill="#4f4f4f"/><path d="m19.34375 10.976562c-.492188-1.640624-4.175781-2.179687-8.230469-1.203124-4.054687.972656-6.945312 3.089843-6.457031 4.730468.492188 1.636719 4.175781 2.175782 8.230469 1.203125 4.054687-.972656 6.945312-3.089843 6.457031-4.730469zm0 0" fill="#999"/><path d="m15.929688 14.136719c-.1875-.835938-1.875-1.148438-3.769532-.695313-1.898437.453125-3.289062 1.5-3.101562 2.335938.183594.839844 1.871094 1.152344 3.769531.699218 1.894531-.453124 3.285156-1.5 3.101563-2.339843zm0 0" fill="#fff"/></svg>