<svg height="24pt" viewBox="0 0 24 24" width="24pt" xmlns="http://www.w3.org/2000/svg" xmlns:xlink="http://www.w3.org/1999/xlink"><clipPath id="a"><path d="m0 0h24v24h-24z"/></clipPath><path d="m5.605469 1.421875h12.789062c2.308594 0 4.183594 1.875 4.183594 4.183594v12.789062c0 2.308594-1.875 4.183594-4.183594 4.183594h-12.789062c-2.308594 0-4.183594-1.875-4.183594-4.183594v-12.789062c0-2.308594 1.875-4.183594 4.183594-4.183594zm0 0" fill="#c2352a" fill-rule="evenodd"/><g clip-path="url(#a)"><path d="m18 4.503906v3.019532c-3.011719.050781-3.753906 2.988281-3.753906 2.988281h2.273437v3.019531h-3.523437c-2.121094 6.539062-6.996094 5.957031-6.996094 5.957031v-3.019531s3.09375.574219 4.671875-5.1875c1.972656-7.207031 7.328125-6.777344 7.328125-6.777344zm0 0" fill="#fff"/></g></svg>