<svg height="24pt" viewBox="0 0 24 24" width="24pt" xmlns="http://www.w3.org/2000/svg"><path d="m5.605469 1.421875h12.789062c2.308594 0 4.183594 1.875 4.183594 4.183594v12.789062c0 2.308594-1.875 4.183594-4.183594 4.183594h-12.789062c-2.308594 0-4.183594-1.875-4.183594-4.183594v-12.789062c0-2.308594 1.875-4.183594 4.183594-4.183594zm0 0" fill="#11ab66" fill-rule="evenodd"/><path d="m8.691406 5.382812c-1.828125 0-3.308594 1.480469-3.308594 3.308594 0 .898438.367188 1.753906 1.015626 2.378906-.042969.097657-.070313.207032-.070313.324219v2.023438c-.261719 0-.472656.210937-.472656.472656s.210937.472656.472656.472656v2.210938c0 .398437.273437.71875.609375.71875h2.140625l-.785156.824219c-.097657.101562-.097657.230468 0 .332031.097656.105469.28125.167969.480469.167969h5.039062c.148438 0 .292969-.035157.394531-.101563.105469-.066406.160157-.152344.15625-.242187-.003906-.054688-.027343-.109376-.074219-.15625l-.785156-.824219h2.140625c.335938 0 .609375-.320313.609375-.71875v-1.601563l.542969.355469 1.320313.875c.101562.070313.230468.066406.332031 0 .105469-.070313.167969-.195313.167969-.332031v-3.488282c0-.105468-.035157-.203124-.101563-.273437-.066406-.074219-.152344-.113281-.242187-.109375-.054688.003906-.109376.019531-.15625.050781l-1.320313.871094-.542969.359375v-1.886719c0-.117187-.027344-.226562-.066406-.324219.644531-.621093 1.011719-1.480468 1.011719-2.378906 0-1.828125-1.480469-3.308594-3.308594-3.308594-1.015625 0-1.972656.46875-2.597656 1.265626-.628907-.796876-1.585938-1.265626-2.601563-1.265626zm0 0" fill="#fff"/><path d="m8.457031 6.800781c-.914062 0-1.65625.742188-1.65625 1.65625 0 .910157.742188 1.652344 1.65625 1.652344.910157 0 1.652344-.742187 1.652344-1.652344 0-.914062-.742187-1.65625-1.652344-1.65625zm5.667969 0c-.910156 0-1.652344.742188-1.652344 1.65625 0 .910157.742188 1.652344 1.652344 1.652344.914062 0 1.65625-.742187 1.65625-1.652344 0-.914062-.742188-1.65625-1.65625-1.65625zm-5.667969.472657c.652344 0 1.179688.527343 1.179688 1.183593 0 .652344-.527344 1.179688-1.179688 1.179688-.65625 0-1.183593-.527344-1.183593-1.179688 0-.65625.527343-1.183593 1.183593-1.183593zm5.667969 0c .65625 0 1.183594.527343 1.183594 1.183593 0 .652344-.527344 1.179688-1.183594 1.179688-.652344 0-1.179688-.527344-1.179688-1.179688 0-.65625.527344-1.183593 1.179688-1.183593zm0 0" fill="#11ab66"/></svg>