<svg height="24pt" viewBox="0 0 24 24" width="24pt" xmlns="http://www.w3.org/2000/svg"><path d="m5.605469 1.421875h12.789062c2.308594 0 4.183594 1.875 4.183594 4.183594v12.789062c0 2.308594-1.875 4.183594-4.183594 4.183594h-12.789062c-2.308594 0-4.183594-1.875-4.183594-4.183594v-12.789062c0-2.308594 1.875-4.183594 4.183594-4.183594zm0 0" fill="#ccc" fill-rule="evenodd"/><path d="m10.632812 5.40625c-.519531.128906-.921874.539062-1.027343 1.054688l-.59375 2.914062-2.800781 1.171875c-.488282.203125-.816407.664063-.84375 1.179687-.027344.519532.25 1.007813.710937 1.261719l2.660156 1.453125.28125 2.953125c.046875.519531.394531.964844.890625 1.148438.5.1875 1.0625.082031 1.453125-.269531l2.238281-2.015626 2.972657.65625c.523437.113282 1.0625-.070312 1.398437-.472656.335938-.40625.40625-.957031.183594-1.429687l-1.273438-2.695313 1.554688-2.550781c.273438-.449219.261719-1.003906-.027344-1.441406-.289062-.433594-.808594-.671875-1.339844-.613281l-3.027343.347656-2.007813-2.230469c-.347656-.386719-.890625-.546875-1.402344-.421875zm0 0" fill="#1e9ce0"/></svg>