<svg height="24pt" viewBox="0 0 24 24" width="24pt" xmlns="http://www.w3.org/2000/svg" xmlns:xlink="http://www.w3.org/1999/xlink"><clipPath id="a"><path d="m0 0h24v24h-24z"/></clipPath><clipPath id="b"><path d="m0 0h24v24h-24z"/></clipPath><path d="m5.605469 1.421875h12.789062c2.308594 0 4.183594 1.875 4.183594 4.183594v12.789062c0 2.308594-1.875 4.183594-4.183594 4.183594h-12.789062c-2.308594 0-4.183594-1.875-4.183594-4.183594v-12.789062c0-2.308594 1.875-4.183594 4.183594-4.183594zm0 0" fill="#7ec242" fill-rule="evenodd"/><g clip-path="url(#a)"><path d="m15.617188 10.355469h-.65625v-1.316407h.65625v-1.972656h1.972656v1.972656h1.316406l.003906 1.316407h-1.316406l-.003906 3.214843c0 .335938.066406.734376.988281.734376h.328125l.003906 1.96875s-2.109375.007812-2.105468 0c-.835938.003906-1.1875-.785157-1.1875-1.191407 0-.953125 0-4.726562 0-4.726562zm0 0" fill="#fff"/></g><g clip-path="url(#b)"><path d="m6.992188 5.089844c-.953126 0-1.902344.921875-1.902344 1.84375v7.5c0 .921875.949218 1.84375 1.902344 1.84375h1.941406c.03125.003906.074218-.015625.105468.035156v1.664062c0 .457032.574219.929688.949219.929688 0 .003906 2.339844 0 2.339844 0v-1.972656h-.441406c-.949219 0-.871094-.300782-.871094-.636719 0-.019531-.003906 0-.007813-.019531h.007813.726563c.953124 0 1.902343-.921875 1.902343-1.84375v-7.5c0-.921875-.949219-1.84375-1.902343-1.84375zm1.453124 1.976562h1.84375c.765626 0 1.382813.605469 1.382813 1.355469v4.523437c0 .753907-.617187 1.359376-1.382813 1.359376h-1.84375c-.765624 0-1.382812-.605469-1.382812-1.359376v-4.523437c0-.75.617188-1.355469 1.382812-1.355469zm0 0" fill="#fff"/></g></svg>