<svg height="24pt" viewBox="0 0 24 24" width="24pt" xmlns="http://www.w3.org/2000/svg"><g fill-rule="evenodd"><path d="m5.605469 1.421875h12.789062c2.308594 0 4.183594 1.875 4.183594 4.183594v12.789062c0 2.308594-1.875 4.183594-4.183594 4.183594h-12.789062c-2.308594 0-4.183594-1.875-4.183594-4.183594v-12.789062c0-2.308594 1.875-4.183594 4.183594-4.183594zm0 0" fill="#c74ab4"/><path d="m6.8125 22.578125h11.582031c2.316407 0 4.179688-1.867187 4.179688-4.183594v-12.789062c0-2.316407-1.863281-4.183594-4.179688-4.183594h-11.582031zm0 0" fill="#c74ab4"/><path d="m6.8125 22.578125v-21.15625h-1.207031c-2.316407 0-4.183594 1.867187-4.183594 4.183594v12.789062c0 2.316407 1.867187 4.183594 4.183594 4.183594zm0 0" fill="#9f3b90"/></g><path d="m14.902344 1.421875v10.5l1.5-1.5 1.5 1.5v-10.5zm0 0" fill="#97e964"/></svg>