<svg height="24pt" viewBox="0 0 24 24" width="24pt" xmlns="http://www.w3.org/2000/svg"><g fill-rule="evenodd"><path d="m6.8125 22.578125h11.582031c2.316407 0 4.179688-1.867187 4.179688-4.183594v-12.789062c0-2.316407-1.863281-4.179688-4.179688-4.179688h-11.582031zm0 0" fill="#009587"/><path d="m6.8125 22.578125v-21.152344h-1.207031c-2.316407 0-4.183594 1.863281-4.183594 4.179688v12.789062c0 2.316407 1.867187 4.183594 4.183594 4.183594zm0 0" fill="#00776c"/><path d="m15.039062 9.523438c-.871093.007812-1.742187.207031-2.5.636718-.300781.195313-.664062.449219-.9375.703125-.425781.421875-.792968.910157-1.042968 1.460938.679687 1.5 2.175781 2.601562 3.820312 2.761719 1.078125.121093 2.210938-.0625 3.15625-.597657.304688-.195312.664063-.449219.9375-.707031.429688-.417969.796875-.910156 1.042969-1.457031-.679687-1.5-2.175781-2.601563-3.820313-2.761719-.21875-.027344-.4375-.039062-.65625-.039062zm0 1.121093c.898438-.019531 1.695313.785157 1.679688 1.679688.027344.988281-.957031 1.84375-1.933594 1.65625-.984375-.113281-1.675781-1.21875-1.351562-2.152344.207031-.6875.882812-1.191406 1.605468-1.183594zm0 1.117188c-.148437 0-.292968.0625-.398437.164062-.105469.105469-.164063.25-.164063.398438 0 .308593.253907.558593.5625.558593.308594 0 .558594-.25.558594-.558593 0-.308594-.25-.558594-.558594-.558594zm0 0" fill="#fff"/></g></svg>