<svg height="24pt" viewBox="0 0 24 24" width="24pt" xmlns="http://www.w3.org/2000/svg"><path d="m5.605469 1.421875h12.789062c2.308594 0 4.183594 1.875 4.183594 4.183594v12.789062c0 2.308594-1.875 4.183594-4.183594 4.183594h-12.789062c-2.308594 0-4.183594-1.875-4.183594-4.183594v-12.789062c0-2.308594 1.875-4.183594 4.183594-4.183594zm0 0" fill="#54abed" fill-rule="evenodd"/><path d="m4.6875 5.988281c-.484375 0-.875.386719-.875.863281v10.269532c0 .476562.390625.832031.875.832031h5.421875l1.890625 1.890625 1.890625-1.890625h5.421875c.484375 0 .875-.355469.875-.832031v-10.269532c0-.476562-.390625-.863281-.875-.863281zm0 0" fill="#fff"/><path d="m17.039062 8.84375c-.371093.164062-.769531.277344-1.1875.324219.425782-.253907.753907-.660157.910157-1.140625-.402344.234375-.84375.40625-1.316407.5-.375-.402344-.914062-.652344-1.507812-.652344-1.140625 0-2.066406.925781-2.066406 2.066406 0 .164063.019531.320313.054687.472656-1.71875-.085937-3.242187-.910156-4.261719-2.160156-.179687.304688-.28125.660156-.28125 1.039063 0 .71875.363282 1.351562.917969 1.71875-.335937-.007813-.65625-.101563-.933593-.257813v.027344c0 1 .710937 1.835938 1.65625 2.027344-.171876.046875-.355469.070312-.542969.070312-.132813 0-.261719-.011718-.390625-.035156.265625.820312 1.027344 1.417969 1.933594 1.433594-.707032.554687-1.601563.886718-2.570313.886718-.164063 0-.328125-.007812-.492187-.027343.914062.585937 2.003906.925781 3.171874.925781 3.800782 0 5.878907-3.148438 5.878907-5.878906 0-.089844 0-.179688-.003907-.269532.402344-.289062.753907-.65625 1.03125-1.070312" fill="#54abed"/></svg>