<svg height="24pt" viewBox="0 0 24 24" width="24pt" xmlns="http://www.w3.org/2000/svg"><path d="m5.605469 1.421875h12.789062c2.308594 0 4.183594 1.875 4.183594 4.183594v12.789062c0 2.308594-1.875 4.183594-4.183594 4.183594h-12.789062c-2.308594 0-4.183594-1.875-4.183594-4.183594v-12.789062c0-2.308594 1.875-4.183594 4.183594-4.183594zm0 0" fill="#38738f" fill-rule="evenodd"/><path d="m12 4.136719c-4.34375 0-7.863281 3.519531-7.863281 7.863281s3.519531 7.863281 7.863281 7.863281 7.863281-3.519531 7.863281-7.863281-3.519531-7.863281-7.863281-7.863281zm0 0" fill="#fff"/><g fill="#38738f"><path d="m9.507812 9.613281h1.6875v7.480469l-.84375.960938-.84375-.960938zm0 0"/><path d="m9.816406 9.050781c-.316406.003907-.570312.007813-.863281.078125-.300781.066406-.570313.125-.570313.5l.394532.1875s.203125-.152344.394531-.1875c.214844-.035156.457031.085938.644531.207032v.167968h.816406s.539063-.433594.898438-.375c.191406.035156.398438.1875.398438.1875l.390624-.1875c0-.375-.269531-.433594-.570312-.5-.375-.085937-.632812-.074218-1.117188-.078125zm0 0"/><path d="m10.632812 7.136719v2.25h-.5625v-2.25zm0 0"/><path d="m11.195312 6.796875c0 .3125-.378906.5625-.84375.5625-.464843 0-.84375-.25-.84375-.5625zm0 0"/><path d="m9.507812 12.148438.84375.84375-.84375.84375-.84375-.84375zm0 0"/><path d="m12.691406 9.050781c.113282.167969.191406.378907.191406.578125 0 .15625-.0625.300782-.171874.40625.464843.324219.734374.90625.734374 1.480469 0 1.066406-.59375 1.160156-1.6875 1.472656.65625 1.605469 1.96875 3.027344 3.261719 3.761719 1.105469.667969 2.117188 1.136719 3.492188 1.304688-1.519531-1.855469-3.882813-2.671876-5.066407-4.503907.792969-.414062 1.691407-.773437 1.691407-2.140625 0-1.109375-1.015625-2.359375-1.769531-2.359375zm0 0"/></g></svg>