<svg height="24pt" viewBox="0 0 24 24" width="24pt" xmlns="http://www.w3.org/2000/svg" xmlns:xlink="http://www.w3.org/1999/xlink"><filter id="a" height="100%" width="100%" x="0%" y="0%"><feColorMatrix in="SourceGraphic" type="matrix" values="0 0 0 0 1 0 0 0 0 1 0 0 0 0 1 0 0 0 1 0"/></filter><mask id="b"><g filter="url(#a)"><path d="m0 0h24v24h-24z" fill-opacity=".2"/></g></mask><clipPath id="c"><path d="m0 0h24v24h-24z"/></clipPath><mask id="d"><g filter="url(#a)"><path d="m0 0h24v24h-24z" fill-opacity=".501961"/></g></mask><clipPath id="e"><path d="m0 0h24v24h-24z"/></clipPath><path d="m5.605469 1.421875h12.789062c2.308594 0 4.183594 1.875 4.183594 4.183594v12.789062c0 2.308594-1.875 4.183594-4.183594 4.183594h-12.789062c-2.308594 0-4.183594-1.875-4.183594-4.183594v-12.789062c0-2.308594 1.875-4.183594 4.183594-4.183594zm0 0" fill="#5aa9f0" fill-rule="evenodd"/><path d="m6.75 13.5 5.25 6 5.25-6h-3v-2.25c0 .75-.75.75-.75.75s-.75 0-.75-.75-.75-.75-.75-.75-.75 0-.75.75-.75.75-.75.75-.75 0-.75-.75v2.25zm0 0" fill="#fff"/><g clip-path="url(#c)" mask="url(#b)"><path d="m12 4.5s-.75 0-.75.75-.75.75-.75.75-.75 0-.75-.75v10.5h4.5v-10.5c0 .75-.75.75-.75.75s-.75 0-.75-.75-.75-.75-.75-.75zm0 0" fill="#fff"/></g><g clip-path="url(#e)" mask="url(#d)"><path d="m10.5 7.5s-.75 0-.75.75v4.5h4.5v-4.5c0-.75-.75-.75-.75-.75s-.75 0-.75.75-.75.75-.75.75-.75 0-.75-.75-.75-.75-.75-.75zm0 0" fill="#fff"/></g></svg>