<svg height="24pt" viewBox="0 0 24 24" width="24pt" xmlns="http://www.w3.org/2000/svg"><path d="m23.869792 8.432292c.015625 3.088541.057291 5.53125.057291 8.104166 0 4.421875-3.583333 8.005209-8.005208 8.005209s-8.010417-3.583334-8.010417-8.005209c0-4.427083 3.588542-8.010416 8.078125-8.020833 3.052084-.145833 5.916667-.098958 7.880209-.083333zm0 0" fill="none" stroke="#fff" stroke-miterlimit="4.5" stroke-width=".914724" transform="scale(.75)"/><g fill-rule="evenodd"><path d="m5.605469 1.421875h12.789062c2.308594 0 4.183594 1.875 4.183594 4.183594v12.789062c0 2.308594-1.875 4.183594-4.183594 4.183594h-12.789062c-2.308594 0-4.183594-1.875-4.183594-4.183594v-12.789062c0-2.308594 1.875-4.183594 4.183594-4.183594zm0 0" fill="#007eff"/><path d="m6.914062 22.578125h11.480469c2.316407 0 4.183594-1.867187 4.183594-4.183594v-12.789062c0-2.316407-1.867187-4.179688-4.183594-4.179688h-11.480469zm0 0" fill="#007eff"/><path d="m6.914062 22.578125v-21.152344h-1.308593c-2.316407 0-4.179688 1.863281-4.179688 4.179688v12.789062c0 2.316407 1.863281 4.183594 4.179688 4.183594zm0 0" fill="#005ea3"/></g><path d="m14.742188 6.539062c-.730469 0-1.332032.601563-1.332032 1.332032 0 .722656.582032 1.332031 1.316406 1.332031.734376 0 1.347657-.601563 1.347657-1.332031 0-.730469-.601563-1.332032-1.332031-1.332032zm1.175781 3.429688-.554688.03125-3.109375.183594v1.617187h1.234375c.050781 0 .058594.003907.089844.007813-.011719-.007813-.015625-.03125-.015625.164062v3.882813c0 .0625-.003906.0625-.003906.09375-.007813-.011719-.136719.03125-.515625.03125h-.621094v1.550781h4.652344v-1.550781h-.621094c-.386719 0-.519531-.042969-.527344-.03125 0-.03125-.007812-.035157-.007812-.09375zm0 0" fill="#fff"/></svg>