<svg height="24pt" viewBox="0 0 24 24" width="24pt" xmlns="http://www.w3.org/2000/svg"><path d="m5.605469 1.421875h12.789062c2.308594 0 4.183594 1.875 4.183594 4.183594v12.789062c0 2.308594-1.875 4.183594-4.183594 4.183594h-12.789062c-2.308594 0-4.183594-1.875-4.183594-4.183594v-12.789062c0-2.308594 1.875-4.183594 4.183594-4.183594zm0 0" fill="#8e8e8e" fill-rule="evenodd"/><path d="m6.6875 6.132812h10.625c1.394531 0 2.523438 1.128907 2.523438 2.523438v6.6875c0 1.394531-1.128907 2.523438-2.523438 2.523438h-10.625c-1.394531 0-2.523438-1.128907-2.523438-2.523438v-6.6875c0-1.394531 1.128907-2.523438 2.523438-2.523438zm0 0" fill="#474747"/><path d="m6.777344 6.875h10.445312c1.054688 0 1.910156.824219 1.910156 1.835938v6.578124c0 1.011719-.855468 1.835938-1.910156 1.835938h-10.445312c-1.054688 0-1.910156-.824219-1.910156-1.835938v-6.578124c0-1.011719.855468-1.835938 1.910156-1.835938zm0 0" fill="#232323"/><path d="m12 9.097656c-.859375 0-1.550781.753906-1.550781 1.683594v.636719h-.386719c-.214844 0-.386719.351562-.386719.582031v2.488281c0 .230469.171875.414063.386719.414063h3.875c.214844 0 .386719-.183594.386719-.414063v-2.488281c0-.230469-.171875-.582031-.386719-.582031h-.390625v-.636719c.003906-.929688-.6875-1.683594-1.546875-1.683594zm0 1.160156c.429688 0 .582031.039063.582031.496094v.664063h-1.164062v-.664063c0-.457031.152343-.496094.582031-.496094zm0 0" fill="#8e8e8e"/></svg>