<svg height="24pt" viewBox="0 0 24 24" width="24pt" xmlns="http://www.w3.org/2000/svg"><path d="m5.1875 22.492188v-16.769532h-3.765625v12.671875c0 2.167969 1.65625 3.878907 3.765625 4.097657zm0 0" fill="#b7b7b7" fill-rule="evenodd"/><path d="m5.605469 1.421875c-2.316407 0-4.183594 1.867187-4.183594 4.183594v.117187h3.765625v16.769532c.144531.015624.269531.082031.417969.082031h12.789062c2.316407 0 4.179688-1.863281 4.179688-4.179688v-12.789062c0-2.316407-1.863281-4.183594-4.179688-4.183594zm0 0" fill="#419d45" fill-rule="evenodd"/><g fill="#f8c44e"><path d="m8.710938 19h1.789062v3.574219h-1.789062zm0 0"/><path d="m11.390625 19h1.789063v3.574219h-1.789063zm0 0"/><path d="m14.074219 19h1.789062v3.574219h-1.789062zm0 0"/><path d="m16.753906 19h1.789063v3.574219h-1.789063zm0 0"/></g><g fill="#b7b7b7"><path d="m11.535156 7.53125h.894532v1.789062h-.894532zm0 0"/><path d="m14.214844 7.53125h.894531v1.789062h-.894531zm0 0"/><path d="m11.535156 14.679688h.894532v1.789062h-.894532zm0 0"/><path d="m14.214844 14.679688h.894531v1.789062h-.894531zm0 0"/><path d="m17.792969 10.210938v.894531h-1.789063v-.894531zm0 0"/><path d="m17.792969 12.894531v.894531h-1.789063v-.894531zm0 0"/><path d="m10.640625 10.210938v.894531h-1.789063v-.894531zm0 0"/><path d="m10.640625 12.894531v.894531h-1.789063v-.894531zm0 0"/></g><path d="m11.714844 9.320312h3.214844c.59375 0 1.074218.476563 1.074218 1.070313v3.21875c0 .59375-.480468 1.070313-1.074218 1.070313h-3.214844c-.59375 0-1.074219-.476563-1.074219-1.070313v-3.21875c0-.59375.480469-1.070313 1.074219-1.070313zm0 0" fill="#4e4e4e"/></svg>