<svg height="24pt" viewBox="0 0 24 24" width="24pt" xmlns="http://www.w3.org/2000/svg"><path d="m5.605469 1.421875h12.789062c2.308594 0 4.183594 1.875 4.183594 4.183594v12.789062c0 2.308594-1.875 4.183594-4.183594 4.183594h-12.789062c-2.308594 0-4.183594-1.875-4.183594-4.183594v-12.789062c0-2.308594 1.875-4.183594 4.183594-4.183594zm0 0" fill="#fec786" fill-rule="evenodd"/><path d="m16.5 13.4375c.414062 2.886719-1.648438 6.875-2.332031 6.675781-.230469.269531-4.507813-2.351562-5.003907-5.1875-.046874-.261719-1.234374-2.113281-.691406-1.535156.773438.820313-.800781-1.628906-.449218-2.382813.515624-1.109374 3.386718-1.273437 4.730468-1.273437 1.226563 0 2.664063-.554687 3.277344.144531.515625.589844.292969 2.3125.46875 3.558594zm0 0" fill="#fff"/><g fill="#4f4f4f"><path d="m12.871094 17.730469c0-.082031.175781-.179688.71875-.410157.25-.109374.335937-.117187.394531-.046874.039063.046874.058594.105468.042969.125-.027344.035156-1.0625.410156-1.125.410156-.019532 0-.03125-.035156-.03125-.078125zm0 0"/><path d="m13.140625 16.757812c-.292969-.128906-.378906-.316406-.097656-.226562.449219.144531.464843.121094.429687-.695312-.019531-.507813 0-.742188.066406-.691407.050782.042969.113282.449219.132813.902344.039063.910156.015625.941406-.53125.710937zm0 0"/><path d="m6.953125 13.941406c-.277344-.191406-.503906-.359375-.503906-.378906s.144531-.148438.320312-.292969c.300781-.25.34375-.46875.34375-.640625-.003906-.089844-1.125-1.644531-1.828125-2.519531-.269531-.339844-.511718-.671875-.535156-.738281-.027344-.074219.007812-.183594.089844-.292969.277344-.363281.746094-.9375 1.003906-1.433594.257812-.492187.566406-.898437.617188-.8125.078124.125.15625.046875.765624-.769531.613282-.820312 1.117188-1.585938 1.238282-1.585938.140625 0 .082031.136719-.179688.4375-.472656.503907-.621094 1.195313-.621094 1.652344-.039062.855469.65625 1.472656 1.414063 1.820313.972656.230469 1.875.125 2.046875-.683594.140625-.675781-.335938-1.089844-.886719-1.253906-.136719.0625-.527343.472656-.652343.867187-.042969.136719-.167969.085938-.167969-.066406 0-.324219.363281-1.148438.558593-1.5.269532-.492188.566407-.515625.808594-.464844.136719.027344.238282-.058594.363282-.15625l.171874-.136718c.597657.441406 1.269532.765624 1.910157 1.136718.71875.511719 1.410156.800782 1.417969.875.003906.042969.003906.042969-.003907.355469-.015625.546875-.007812.570313.125.570313.269531 0 .539063-.148438.898438-.582032.628906-.761718.710937-.769531.710937-1.40625.046875-.488281-.597656-1.535156-1-1.140625-.171875.167969-.367187.765625-.304687.921875.039062.109375.296875.183594.441406.128906.148437-.058593.125.0625-.042969.214844-.222656.203125-.464844.234375-.640625.09375-.222656-.179687-.28125-.890625-.113281-1.34375.15625-.433594.722656-.890625.84375-.9375.132812-.050781.285156.054688.820312.761719.859376 1.296875 1.800782 2.457031 2.644532 3.695313.101562.15625.203125.378906.222656.5.035156.203124-.003906.269531-.464844.796874-.757812.867188-1.269531 1.570313-1.269531 1.75 0 .191407.394531.347657.738281.398438.246094.039062.414063.125.414063.214844-.410157.558594-2.023438 2.835937-2.21875 2.683594-.019531-.03125-.050781-.398438-.070313-.816407-.148437-1.128906-.203125-1.738281-.335937-2.839843-.039063-.214844-.042969-.21875-.308594-.183594-.640625.089844-1.433594.140625-2.070313.246094-.507812.085937-.957031.441406-1.164062.332031-.214844-.117188-1.339844-.316407-2.007812-.402344-1.96875-.246094-1.644532-.203125-1.644532.039063l.429688 3.492187s.207031.9375.035156.9375c-.941406-.359375-1.628906-1.039063-2.359375-1.546875zm0 0"/><path d="m12.289062 14.902344c0 .324218-.257812.582031-.578124.582031-.320313 0-.582032-.257813-.582032-.582031 0-.320313.261719-.578125.582032-.578125.320312 0 .578124.257812.578124.578125zm0 0"/><path d="m10.125 13.742188c-.039062 0-.066406.007812-.074219.011718-.03125.019532-.0625.140625-.070312.265625l-.011719.226563.800781.039062c.449219.039063.949219.050782 1.375.023438.148438 0 .164063-.011719.128907-.089844-.09375-.203125-.246094-.320312-.425782-.332031-.097656-.003907-.53125-.046875-.960937-.089844-.367188-.039063-.632813-.058594-.761719-.054687zm0 0"/><path d="m13.589844 13.160156c-.054688 0-.089844.007813-.097656.015625-.03125.027344-.046876.164063-.035157.304688.015625.230469.03125.253906.175781.246093.398438.019532.800782.015626 1.207032.015626.320312-.011719.710937-.214844.933594-.324219 0-.03125-.027344-.058594-.066407-.058594-.035156 0-.539062-.054687-1.113281-.117187-.460938-.054688-.832031-.082032-1.003906-.082032zm0 0"/><path d="m14.613281 14.324219c0 .320312-.257812.578125-.582031.578125-.320312 0-.578125-.257813-.578125-.578125 0-.320313.257813-.582031.578125-.582031.324219 0 .582031.261718.582031.582031zm0 0"/></g></svg>