<svg height="24pt" viewBox="0 0 24 24" width="24pt" xmlns="http://www.w3.org/2000/svg"><path d="m5.605469 1.421875h12.789062c2.308594 0 4.183594 1.875 4.183594 4.183594v12.789062c0 2.308594-1.875 4.183594-4.183594 4.183594h-12.789062c-2.308594 0-4.183594-1.875-4.183594-4.183594v-12.789062c0-2.308594 1.875-4.183594 4.183594-4.183594zm0 0" fill="#478f30" fill-rule="evenodd"/><path d="m12 3.472656c-1.347656 0-2.4375 1.085938-2.4375 2.4375v2.84375l-1.078125-1.078125c-.730469-.730469-1.90625-.730469-2.636719 0-.730468.730469-.730468 1.90625 0 2.636719l3.515625 3.515625-3.515625 3.515625c-.730468.726562-.730468 1.90625 0 2.636719.730469.730469 1.90625.730469 2.636719 0l2.25-2.253907c.371094.226563.800781.363282 1.265625.363282s.894531-.136719 1.265625-.363282l2.25 2.253907c.730469.730469 1.90625.730469 2.636719 0 .730468-.730469.730468-1.910157 0-2.636719l-3.515625-3.515625 3.515625-3.515625c.730468-.730469.730468-1.90625 0-2.636719-.730469-.730469-1.90625-.730469-2.636719 0l-1.078125 1.078125v-2.84375c0-1.351562-1.089844-2.4375-2.4375-2.4375zm0 0" fill="#fff"/><path d="m17.480469 13.523438c0-3.53125-2.453125-6.394532-5.480469-6.394532s-5.480469 2.863282-5.480469 6.394532 2.453125 6.394531 5.480469 6.394531 5.480469-2.863281 5.480469-6.394531zm0 0" fill="#b08e57"/></svg>