<svg height="24pt" viewBox="0 0 24 24" width="24pt" xmlns="http://www.w3.org/2000/svg"><path d="m5.605469 1.421875h12.789062c2.308594 0 4.183594 1.875 4.183594 4.183594v12.789062c0 2.308594-1.875 4.183594-4.183594 4.183594h-12.789062c-2.308594 0-4.183594-1.875-4.183594-4.183594v-12.789062c0-2.308594 1.875-4.183594 4.183594-4.183594zm0 0" fill="#3b80ae" fill-rule="evenodd"/><path d="m5.722656 5.625c-.46875 0-.847656.410156-.847656.921875v3.410156c0 .507813.378906.917969.847656.917969h3.53125l2.046875 3.75h-.539062c-.351563 0-.636719.292969-.636719.65625v2.4375c0 .363281.285156.65625.636719.65625h3.226562c.351563 0 .636719-.292969.636719-.65625v-2.4375c0-.167969-.066406-.320312-.167969-.433594l1.292969-1.722656h2.632812c.410157 0 .742188-.351562.742188-.789062v-2.921876c0-.4375-.332031-.789062-.742188-.789062h-3.765624c-.363282 0-.652344.28125-.714844.652344l-3.027344-.757813v-1.972656c0-.511719-.378906-.921875-.847656-.921875zm5.152344 3.667969 3 .75v2.292969c0 .4375.332031.789062.742188.789062h.195312l-1.125 1.5h-1.53125l-2.050781-3.757812c.433593-.042969.769531-.429688.769531-.910157zm0 0" fill="#c9d0ff"/></svg>