<svg height="24pt" viewBox="0 0 24 24" width="24pt" xmlns="http://www.w3.org/2000/svg"><g fill-rule="evenodd"><path d="m5.605469 1.421875h12.789062c2.308594 0 4.183594 1.875 4.183594 4.183594v12.789062c0 2.308594-1.875 4.183594-4.183594 4.183594h-12.789062c-2.308594 0-4.183594-1.875-4.183594-4.183594v-12.789062c0-2.308594 1.875-4.183594 4.183594-4.183594zm0 0" fill="#4f4f4f"/><path d="m18.902344 22.558594c4.261718-7.5-1-11.820313-6.199219-12.9375 5.503906 3.566406.628906 10.589844-6.394531 12.949218 3.035156-.015624 9.5625.027344 12.59375-.011718zm0 0" fill="#ff6363"/><path d="m6.152344 1.4375c-6.2265628 7.1875-.050782 11.824219 5.152344 12.941406-5.503907-3.566406-1.023438-10.234375 3.59375-12.949218-3.03125.015624-5.714844-.027344-8.746094.011718zm0 0" fill="#ff6363"/></g><path d="m13.796875 13.808594c-.601563.605468-1.902344.28125-2.898437-.714844-1-1-1.320313-2.300781-.71875-2.902344.601562-.605468 1.902343-.28125 2.902343.714844 1 1 1.320313 2.300781.714844 2.902344zm0 0" fill="#ff6363"/></svg>