<svg height="24pt" viewBox="0 0 24 24" width="24pt" xmlns="http://www.w3.org/2000/svg"><path d="m5.605469 1.421875h12.789062c2.308594 0 4.183594 1.875 4.183594 4.183594v12.789062c0 2.308594-1.875 4.183594-4.183594 4.183594h-12.789062c-2.308594 0-4.183594-1.875-4.183594-4.183594v-12.789062c0-2.308594 1.875-4.183594 4.183594-4.183594zm0 0" fill="#0b4263" fill-rule="evenodd"/><path d="m8.246094 19.167969c-.007813-.328125-.019532-1.152344-.019532-1.835938v-1.238281h-.074218c-.042969 0-.183594-.027344-.3125-.054688-.964844-.234374-1.730469-1.039062-1.914063-2.011718-.039062-.210938-.042969-.503906-.035156-2.328125.007813-2.285157 0-2.175781.183594-2.613281.261719-.632813.800781-1.167969 1.425781-1.410157.460938-.179687.265625-.171875 4.597656-.164062l3.941406.007812.207032.0625c.964844.300781 1.664062 1.078125 1.828125 2.039063.039062.21875.042969.550781.035156 2.296875-.007813 2.007812-.007813 2.046875-.070313 2.269531-.136718.496094-.46875 1.015625-.835937 1.320312-.328125.269532-.613281.414063-1.058594.535157-.210937.058593-.277343.0625-2.015625.074219l-1.796875.007812-.605469.542969c-.332031.296875-1.203124 1.078125-1.933593 1.730469-.730469.65625-1.375 1.230468-1.429688 1.277343l-.097656.089844zm0 0" fill="#fff"/></svg>