<svg height="24pt" viewBox="0 0 24 24" width="24pt" xmlns="http://www.w3.org/2000/svg"><path d="m5.605469 1.421875h12.789062c2.308594 0 4.183594 1.875 4.183594 4.183594v12.789062c0 2.308594-1.875 4.183594-4.183594 4.183594h-12.789062c-2.308594 0-4.183594-1.875-4.183594-4.183594v-12.789062c0-2.308594 1.875-4.183594 4.183594-4.183594zm0 0" fill="#999" fill-rule="evenodd"/><path d="m12 4.253906c-3.613281 0-4.015625 3.242188-4.015625 6.886719h1.71875c-.039063-3.644531.785156-5.164063 2.296875-5.164063s2.335938 1.519532 2.296875 5.164063h1.71875c0-3.644531-.402344-6.886719-4.015625-6.886719zm0 0" fill="#ccc"/><path d="m17.738281 14.007812c0-3.167968-2.570312-5.738281-5.738281-5.738281s-5.738281 2.570313-5.738281 5.738281c0 3.167969 2.570312 5.738282 5.738281 5.738282s5.738281-2.570313 5.738281-5.738282zm0 0" fill="#fff"/><path d="m16.015625 14.007812c0-2.21875-1.796875-4.015624-4.015625-4.015624s-4.015625 1.796874-4.015625 4.015624 1.796875 4.015626 4.015625 4.015626 4.015625-1.796876 4.015625-4.015626zm0 0" fill="#4f4f4f"/><path d="m14.230469 11.777344-.910157.304687-.835937.277344c-.601563-.179687-1.253906-.011719-1.703125.433594-.671875.671875-.671875 1.761719 0 2.433593.671875.671876 1.765625.671876 2.4375 0 .445312-.449218.609375-1.101562.429688-1.707031l.277343-.828125zm0 0" fill="#ff5969"/></svg>