<svg height="24pt" viewBox="0 0 24 24" width="24pt" xmlns="http://www.w3.org/2000/svg"><g fill-rule="evenodd"><path d="m12 12h-11.085938v6.703125c0 2.429687 1.953126 4.382813 4.382813 4.382813h6.703125zm0 0" fill="#4785e2"/><path d="m12 12v11.085938h6.703125c2.429687 0 4.382813-1.953126 4.382813-4.382813v-6.703125zm0 0" fill="#77e247"/><path d="m5.296875.914062c-2.429687 0-4.382813 1.953126-4.382813 4.382813v6.703125h11.085938v-11.085938zm0 0" fill="#f2ae37"/><path d="m12 .914062v11.085938h11.085938v-6.703125c0-2.429687-1.953126-4.382813-4.382813-4.382813zm0 0" fill="#4785e2"/></g><g fill="#3f3f3f"><path d="m6.835938 3.085938 1.15625 2.46875 2.59375.394531-1.875 1.921875.441406 2.714844-2.316406-1.28125-2.320313 1.28125.445313-2.714844-1.875-1.921875 2.589843-.394531zm0 0"/><path d="m21.085938 6.835938c0 2.070312-1.679688 3.75-3.75 3.75-2.070313 0-3.75-1.679688-3.75-3.75 0-2.070313 1.679687-3.75 3.75-3.75 2.070312 0 3.75 1.679687 3.75 3.75zm0 0"/><path d="m13.585938 13.585938h7.5v7.5h-7.5zm0 0"/><path d="m10.585938 17.335938c0 2.070312-1.679688 3.75-3.75 3.75-2.070313 0-3.75-1.679688-3.75-3.75 0-2.070313 1.679687-3.75 3.75-3.75 2.070312 0 3.75 1.679687 3.75 3.75zm0 0"/></g></svg>