<svg height="24pt" viewBox="0 0 24 24" width="24pt" xmlns="http://www.w3.org/2000/svg"><path d="m5.605469 1.421875h12.789062c2.308594 0 4.183594 1.875 4.183594 4.183594v12.789062c0 2.308594-1.875 4.183594-4.183594 4.183594h-12.789062c-2.308594 0-4.183594-1.875-4.183594-4.183594v-12.789062c0-2.308594 1.875-4.183594 4.183594-4.183594zm0 0" fill="#974fa4" fill-rule="evenodd"/><path d="m11.785156 4.171875c-.160156.003906-.324218.015625-.488281.03125-2.578125.285156-4.457031 2.410156-4.277344 4.785156l-.605469.066407.347657 3.125 2.011719-.222657-.347657-3.125-.742187.082031c-.140625-2.03125 1.472656-3.847656 3.683594-4.09375 2.207031-.242187 4.1875 1.171876 4.5 3.1875l-.65625.070313.34375 3.121094 1.945312-.214844-.347656-3.121094-.621094.070313c-.332031-2.199219-2.371094-3.800782-4.746094-3.761719zm0 0" fill="#4d4d4d"/><path d="m11.488281 5.867188c-.273437.011718-.511719.15625-.699219.371093-.191406.214844-.339843.503907-.464843.839844-.25.671875-.40625 2.109375-.492188 3.015625-.082031.910156-.097656 1.285156-.058593 2.070312.039062.78125.113281 1.390626.273437 1.730469.144531.296875.304687.636719.378906.945313.070313.304687.054688.550781-.125.75-.183593.195312-.582031.375-1.347656.417968-.769531.039063-1.886719-.277343-3.476563-.574218-.257812-.046875-.46875-.050782-.65625.011718-.183593.0625-.332031.199219-.417968.371094-.179688.34375-.195313 1.601563-.21875 2.257813-.007813.214843.070312.417969.207031.582031s.328125.300781.566406.421875c.472657.238281 1.140625.40625 1.964844.53125 1.65625.242187 3.953125.28125 6.558594.128906h.007812c.957031-.078125 2.476563-.132812 3.789063-.46875.652344-.164062 1.257812-.398437 1.71875-.757812.464844-.359375.78125-.855469.8125-1.492188.027344-.589843-.003906-1.484375-.121094-1.769531s-.371094-.4375-.632812-.441406c-.523438-.011719-1.136719.273437-1.933594.460937-.917969.214844-1.5625.125-2.003906.089844-.4375-.03125-.660157.003906-.792969-.167969-.136719-.175781-.199219-.433594-.226563-.765625-.027344-.328125-.027344-.714843-.070312-1.125-.082032-.789062-.238282-2.070312-.59375-3.710937-.175782-.824219-.402344-2.15625-.703125-2.734375-.152344-.292969-.320313-.539063-.527344-.714844-.203125-.175781-.449219-.28125-.714844-.273437zm0 0" fill="#f2f2f2"/><path d="m10.875 10.417969c-.046875 1.207031-.414062 2.308593-.960938 2.890625-.546874.582031-1.1875.546875-1.679687-.085938-.492187-.632812-.757813-1.765625-.695313-2.972656.046876-1.203125.414063-2.308594.960938-2.890625.546875-.578125 1.191406-.546875 1.679688.085937.492187.632813.757812 1.769532.695312 2.972657zm0 0" fill="#fff"/><path d="m10.320312 10.921875c-.042968.617187-.453124 1.105469-.914062 1.089844s-.796875-.527344-.753906-1.144531c.042968-.617188.453125-1.105469.914062-1.089844.460938.011718.796875.527344.753906 1.144531zm0 0" fill="#4d4d4d"/><path d="m15.875 10.15625c.203125 1.847656-.492188 3.425781-1.550781 3.523438-1.0625.097656-2.085938-1.320313-2.289063-3.167969-.203125-1.847657.488282-3.425781 1.550782-3.523438 1.058593-.097656 2.085937 1.320313 2.289062 3.167969zm0 0" fill="#fff"/><path d="m14.761719 10.96875c-.121094.613281-.582031 1.074219-1.027344 1.035156-.445313-.042968-.707031-.570312-.589844-1.183594.078125-.402343.304688-.757812.59375-.933593.292969-.175781.601563-.148438.8125.074219.210938.226562.292969.609374.210938 1.007812zm0 0" fill="#4d4d4d"/></svg>