<svg height="24pt" viewBox="0 0 24 24" width="24pt" xmlns="http://www.w3.org/2000/svg"><path d="m5.605469 1.421875h12.789062c2.308594 0 4.183594 1.875 4.183594 4.183594v12.789062c0 2.308594-1.875 4.183594-4.183594 4.183594h-12.789062c-2.308594 0-4.183594-1.875-4.183594-4.183594v-12.789062c0-2.308594 1.875-4.183594 4.183594-4.183594zm0 0" fill="#999" fill-rule="evenodd"/><path d="m9.058594 19.882812c-.105469-.160156-.300782-.503906-.433594-.769531-.277344-.566406-.390625-.585937-.996094-.160156-.761718.53125-1.050781.386719-.820312-.410156.078125-.265625.09375-.523438.035156-.578125-.054688-.054688-.40625.011718-.78125.144531-.851562.308594-1.109375.203125-.8125-.34375.113281-.210937.175781-.414063.132812-.453125-.039062-.039062-.316406.011719-.617187.109375-1.035156.347656-1.175781.167969-.515625-.660156.222656-.277344.402344-.609375.40625-.742188 0-.132812.183594-.4375.410156-.679687.507813-.550782 1.078125-1.609375 1.074219-1.996094-1.300781-1.898438-.714844-2.785156.136719-4.414062.222656-.46875.519531-1.394532.792968-1.640626 1.160157-1.5 3.410157-1.457031 4.628907-.019531.367187.226563 1 1.527344 1.121093 1.996094 1.503907 1.804687-.328124 3.1875-.125 4.152344.109376.496093.625 1.363281 1.152344 1.933593.214844.234376.394532.558594.394532.71875 0 .160157.152343.480469.335937.710938.5625.703125.40625.925781-.445313.640625-.65625-.21875-.75-.15625-.488281.332031.183594.335938.179688.378906-.019531.449219-.125.046875-.519531-.003906-.875-.113281-.359375-.109375-.683594-.171875-.71875-.136719s-.03125.347656.011719.691406c.066406.546875.046875.628907-.164063.628907-.132812 0-.441406-.144532-.683594-.320313-.246093-.175781-.507812-.320313-.585937-.320313s-.328125.34375-.550781.769532c-.4375.820312-.6875.941406-1 .480468zm0 0" fill="#248afd"/><path d="m6.761719 5.023438s.394531 2.363281 2.640625 2.902343c0 0 .1875-1.648437-.441406-2.21875-.628907-.566406-2.199219-.683593-2.199219-.683593zm0 0" fill="#d19e01"/><path d="m12 4.976562s-.351562 2.332032-2.597656 2.949219c0 0-.210938-1.644531.410156-2.226562.621094-.578125 2.1875-.722657 2.1875-.722657zm0 0" fill="#d19e01"/><path d="m9.410156 3.847656s-2.25 2.09375-.007812 4.078125c2.132812-2.066406.007812-4.078125.007812-4.078125zm0 0" fill="#fecd38"/><path d="m8.214844 10.691406c0 1.042969-.847656 1.890625-1.890625 1.890625-1.046875 0-1.894531-.847656-1.894531-1.890625 0-1.046875.847656-1.894531 1.894531-1.894531 1.042969 0 1.890625.847656 1.890625 1.894531zm0 0" fill="#fecd38"/><path d="m6.324219 9.527344c-.644531 0-1.164063.519531-1.164063 1.164062 0 .640625.519532 1.164063 1.164063 1.164063.640625 0 1.164062-.523438 1.164062-1.164063 0-.644531-.523437-1.164062-1.164062-1.164062zm0 .773437c.214843 0 .386719.175781.386719.390625s-.171876.386719-.386719.386719c-.214844 0-.390625-.171875-.390625-.386719s.175781-.390625.390625-.390625zm0 0" fill="#535353"/><path d="m14.621094 10.691406c0 1.042969-.847656 1.890625-1.894532 1.890625-1.042968 0-1.890624-.847656-1.890624-1.890625 0-1.046875.847656-1.894531 1.890624-1.894531 1.046876 0 1.894532.847656 1.894532 1.894531zm0 0" fill="#fecd38"/><path d="m12.726562 9.527344c-.640624 0-1.164062.519531-1.164062 1.164062 0 .640625.523438 1.164063 1.164062 1.164063.644532 0 1.164063-.523438 1.164063-1.164063 0-.644531-.519531-1.164062-1.164063-1.164062zm0 .773437c.214844 0 .390626.175781.390626.390625s-.175782.386719-.390626.386719c-.214843 0-.386718-.171875-.386718-.386719s.171875-.390625.386718-.390625zm0 0" fill="#535353"/><path d="m6.761719 12.035156s.933593-.910156 2.566406-.910156 2.671875 1.109375 2.671875 1.109375-.035156.640625-.417969.839844c-.378906.203125-1.421875-.9375-2.394531-.9375-.96875 0-1.976562.804687-1.976562.804687zm0 0" fill="#fecd38"/><path d="m9.347656 11.679688c-.71875 0-1.410156.160156-1.933594.476562l-.578124.347656.519531.988282c.332031.632812.761719 1.222656 1.203125 1.640624.375.359376.78125.652344.898437.652344.359375 0 1.621094-1.375 2.113281-2.296875.253907-.472656.40625-.828125.335938-.789062-.070312.042969-.179688-.054688-.242188-.21875-.074218-.179688-.320312-.367188-.648437-.492188-.53125-.203125-1.109375-.304687-1.667969-.308593zm0 0" fill="#535353"/><path d="m18.25 9.128906h-1.144531l-.304688 1.085938h1.144531zm-.488281-2.367187-.417969 1.523437h1.144531l.421875-1.523437h.957032l-.417969 1.523437h.703125v.84375h-.933594l-.300781 1.085938h1.234375v.851562h-1.460938l-.414062 1.515625h-.960938l.417969-1.515625h-1.144531l-.417969 1.515625h-.964844l.414063-1.515625h-.710938v-.851562h.925782l.300781-1.085938h-1.226563v-.84375h1.46875l.414063-1.523437zm0 0" fill="#f2f2f2"/></svg>