<svg height="24pt" viewBox="0 0 24 24" width="24pt" xmlns="http://www.w3.org/2000/svg" xmlns:xlink="http://www.w3.org/1999/xlink"><clipPath id="a"><path d="m0 0h24v24h-24z"/></clipPath><path d="m5.605469 1.421875h12.789062c2.308594 0 4.183594 1.875 4.183594 4.183594v12.789062c0 2.308594-1.875 4.183594-4.183594 4.183594h-12.789062c-2.308594 0-4.183594-1.875-4.183594-4.183594v-12.789062c0-2.308594 1.875-4.183594 4.183594-4.183594zm0 0" fill="#0095cc" fill-rule="evenodd"/><g clip-path="url(#a)"><path d="m12.445312 17.261719-1.5-.058594.0625-1.5 1.5.058594zm1.785157-5.746094-.703125.664063c-.558594.523437-.914063.960937-.960938 2.085937l-1.5-.0625.015625-.375c.035157-.824219.402344-1.558594.964844-2.085937l.964844-.90625c.289062-.257813.46875-.625.484375-1.039063.035156-.824219-.613282-1.523437-1.4375-1.558594-.824219-.03125-1.523438.613281-1.558594 1.4375l-1.5-.058593c.066406-1.65625 1.464844-2.945313 3.121094-2.875 1.65625.066406 2.941406 1.460937 2.875 3.117187-.027344.660156-.320313 1.246094-.765625 1.65625zm0 0" fill="#fff"/></g></svg>