<svg height="24pt" viewBox="0 0 24 24" width="24pt" xmlns="http://www.w3.org/2000/svg"><path d="m5.605469 1.421875h12.789062c2.308594 0 4.183594 1.875 4.183594 4.183594v12.789062c0 2.308594-1.875 4.183594-4.183594 4.183594h-12.789062c-2.308594 0-4.183594-1.875-4.183594-4.183594v-12.789062c0-2.308594 1.875-4.183594 4.183594-4.183594zm0 0" fill="#ececec" fill-rule="evenodd"/><path d="m11.421875 16.320312c0 2.070313-1.675781 3.746094-3.742187 3.746094-2.070313 0-3.746094-1.675781-3.746094-3.746094 0-2.066406 1.675781-3.742187 3.746094-3.742187 2.066406 0 3.742187 1.675781 3.742187 3.742187zm0 0" fill="#c2352a"/><path d="m10.269531 16.320312c0 1.433594-1.160156 2.59375-2.589843 2.59375-1.433594 0-2.59375-1.160156-2.59375-2.59375 0-1.429687 1.160156-2.589843 2.59375-2.589843 1.429687 0 2.589843 1.160156 2.589843 2.589843zm0 0" fill="#e67a73"/><path d="m16.035156 7.679688c0 2.066406-1.679687 3.742187-3.746094 3.742187-2.070312 0-3.746093-1.675781-3.746093-3.742187 0-2.070313 1.675781-3.746094 3.746093-3.746094 2.066407 0 3.746094 1.675781 3.746094 3.746094zm0 0" fill="#46a249"/><path d="m14.882812 7.679688c0 1.429687-1.164062 2.589843-2.59375 2.589843-1.433593 0-2.59375-1.160156-2.59375-2.589843 0-1.433594 1.160157-2.59375 2.59375-2.59375 1.429688 0 2.59375 1.160156 2.59375 2.59375zm0 0" fill="#7bde7f"/><path d="m20.066406 16.320312c0 2.070313-1.675781 3.746094-3.746094 3.746094-2.066406 0-3.742187-1.675781-3.742187-3.746094 0-2.066406 1.675781-3.742187 3.742187-3.742187 2.070313 0 3.746094 1.675781 3.746094 3.742187zm0 0" fill="#8e53ab"/><path d="m18.914062 16.320312c0 1.433594-1.160156 2.59375-2.59375 2.59375-1.429687 0-2.589843-1.160156-2.589843-2.59375 0-1.429687 1.160156-2.589843 2.589843-2.589843 1.433594 0 2.59375 1.160156 2.59375 2.589843zm0 0" fill="#ba96cc"/></svg>