<svg height="24pt" viewBox="0 0 24 24" width="24pt" xmlns="http://www.w3.org/2000/svg"><path d="m5.605469 1.421875h12.789062c2.308594 0 4.183594 1.875 4.183594 4.183594v12.789062c0 2.308594-1.875 4.183594-4.183594 4.183594h-12.789062c-2.308594 0-4.183594-1.875-4.183594-4.183594v-12.789062c0-2.308594 1.875-4.183594 4.183594-4.183594zm0 0" fill="#913b3b" fill-rule="evenodd"/><path d="m12 3.613281-2.457031 2.457031h-3.472657v3.472657l-2.457031 2.457031 2.457031 2.457031v3.472657h3.472657l2.457031 2.457031 2.457031-2.457031h3.472657v-3.472657l2.457031-2.457031-2.457031-2.457031v-3.472657h-3.472657zm0 0" fill="#fec006"/><path d="m8.789062 4.253906-1.328124 3.207032-3.207032 1.332031 1.328125 3.207031-1.328125 3.207031 3.207032 1.332031 1.328124 3.207032 3.210938-1.328125 3.207031 1.328125 1.332031-3.207032 3.207032-1.332031-1.328125-3.207031 1.328125-3.210938-3.207032-1.328124-1.332031-3.210938-3.207031 1.332031-3.210938-1.332031zm0 0" fill="#fecd38"/><path d="m18.449219 12c0-3.5625-2.886719-6.449219-6.449219-6.449219s-6.449219 2.886719-6.449219 6.449219 2.886719 6.449219 6.449219 6.449219 6.449219-2.886719 6.449219-6.449219zm0 0" fill="#fed96a"/><path d="m10.066406 10.066406c0 .710938-.578125 1.289063-1.292968 1.289063-.710938 0-1.289063-.578125-1.289063-1.289063 0-.714844.578125-1.292968 1.289063-1.292968.714843 0 1.292968.578124 1.292968 1.292968zm0 0" fill="#3f3f3f"/><path d="m16.515625 10.066406c0 .710938-.578125 1.289063-1.289063 1.289063-.714843 0-1.292968-.578125-1.292968-1.289063 0-.714844.578125-1.292968 1.292968-1.292968.710938 0 1.289063.578124 1.289063 1.292968zm0 0" fill="#3f3f3f"/><path d="m8.5625 13.933594c.710938 1.472656 2.019531 2.578125 3.4375 2.582031 1.417969-.003906 2.722656-1.109375 3.433594-2.582031h-3.433594c-1.289062 0-3.4375 0-3.4375 0zm0 0" fill="#913b3b"/></svg>