<svg height="24pt" viewBox="0 0 24 24" width="24pt" xmlns="http://www.w3.org/2000/svg"><path d="m5.605469 1.421875h12.789062c2.308594 0 4.183594 1.875 4.183594 4.183594v12.789062c0 2.308594-1.875 4.183594-4.183594 4.183594h-12.789062c-2.308594 0-4.183594-1.875-4.183594-4.183594v-12.789062c0-2.308594 1.875-4.183594 4.183594-4.183594zm0 0" fill="#ff8a00" fill-rule="evenodd"/><path d="m7.773438 17.425781c-.839844-1.269531-1.53125-2.332031-1.53125-2.359375 0-.042968.511718-.292968 2.476562-1.195312 1.367188-.625 2.5-1.136719 2.519531-1.140625.019531 0 .039063.027343.039063.058593 0 .035157-.136719.558594-.304688 1.164063-.214844.78125-.292968 1.113281-.273437 1.140625.050781.058594.519531.21875.84375.285156.445312.089844 1.113281.128906 1.53125.09375 1.277343-.109375 2.628906-.710937 3.859375-1.71875.382812-.316406.402344-.332031.414062-.316406.023438.023438-.25.652344-.402344.9375-.269531.488281-.515624.847656-.894531 1.292969-.953125 1.113281-2.160156 1.785156-3.625 2.011719-.40625.0625-1.402343.070312-1.835937.015624-.148438-.019531-.339844-.046874-.425782-.054687l-.15625-.019531-.15625.53125c-.316406 1.042968-.484374 1.558594-.515624 1.570312-.015626.003906-.71875-1.027344-1.5625-2.296875zm4.882812-6.148437c.0625-.214844.628906-2.285156.628906-2.300782 0-.078124-.691406-.296874-1.179687-.371093-.449219-.070313-1.292969-.070313-1.679688 0-1.210937.210937-2.457031.832031-3.59375 1.78125-.140625.117187-.265625.214843-.28125.214843-.042969 0-.023437-.0625.117188-.390624.332031-.78125.804687-1.492188 1.421875-2.125.957031-.988282 2.027344-1.539063 3.414062-1.765626.464844-.074218 1.433594-.074218 2.003906.003907.230469.027343.429688.046875.4375.035156.011719-.011719.160157-.472656.332032-1.027344.171875-.554687.324218-1.023437.34375-1.039062.023437-.023438.050781-.019531.089844.023437.117187.121094 3.046874 4.578125 3.046874 4.636719 0 .03125-.015624.070313-.039062.089844-.019531.015625-.867188.40625-1.878906.867187-1.011719.460938-2.121094.96875-2.460938 1.128906-.632812.296876-.75.335938-.722656.238282zm0 0" fill="#fff"/></svg>