<svg height="24pt" viewBox="0 0 24 24" width="24pt" xmlns="http://www.w3.org/2000/svg"><path d="m5.648438 1.5h12.703124c2.289063 0 4.148438 1.859375 4.148438 4.148438v12.703124c0 2.289063-1.859375 4.148438-4.148438 4.148438h-12.703124c-2.289063 0-4.148438-1.859375-4.148438-4.148438v-12.703124c0-2.289063 1.859375-4.148438 4.148438-4.148438zm0 0" fill="#c23f2c" fill-rule="evenodd"/><path d="m12 3.855469c4.496094 0 8.144531 3.648437 8.144531 8.144531s-3.648437 8.144531-8.144531 8.144531-8.144531-3.648437-8.144531-8.144531 3.648437-8.144531 8.144531-8.144531zm0 0" fill="#9b200d"/><path d="m12 3.855469c-1.027344 0-2.003906.195312-2.910156.539062-.0625.0625-.148438.109375-.214844.101563-.011719 0-.023438-.003906-.03125-.011719-.441406.1875-.867188.417969-1.269531.675781.054687.082032.070312.179688-.035157.226563-.019531.007812-.246093.027343-.324218.027343-1.140625.828126-2.054688 1.941407-2.636719 3.238282.007813 0 .015625-.003906.023437-.003906.089844 0 .21875.023437.304688.042968.078125.015625.140625.066406.207031.070313.195313.015625.242188-.132813.398438-.214844.160156.019531.269531-.03125.417969-.015625.101562.015625.171874.121094.25.125.066406.007812.125-.058594.1875-.050781.0625.011719.167968.144531.175781.21875.015625.09375-.066407.179687-.039063.28125.097656.101562.277344.121093.414063.179687.09375-.074218.015625-.214844 0-.324218 0-.046876.007812-.09375 0-.136719-.007813-.074219-.039063-.140625-.039063-.207031 0-.296876.238282-.4375.4375-.550782.085938-.054687.152344-.144531.230469-.179687.105469-.054688.183594-.066407.273437-.117188.15625-.085937.289063-.160156.414063-.261719.058594-.132812.007813-.3125.011719-.445312.054687-.039062.105468.015625.167968.007812.09375-.019531.101563-.152343.15625-.207031.03125-.03125.117188-.050781.15625-.082031.097657-.078125.125-.1875.210938-.222656.03125-.007813.097656-.007813.144531-.019532.0625-.015624.148438-.089843.25-.125.066407-.023437.21875-.027343.238281-.050781.03125-.035156 0-.121093.011719-.167969.050781-.234374.40625-.285156.617188-.363281.144531-.058593.296875-.160156.457031-.128906-.027344.113281-.179688.074219-.152344.210937.03125.1875.285156-.054687.351563-.082031.128906-.054687.347656-.089843.511719-.148437.148437-.054688.414062-.132813.273437-.300782-.113281-.007812-.171875.132813-.273437.175782-.066407.011718-.050782-.058594-.113282-.0625-.054687-.007813-.085937.050781-.144531.039062-.058594-.007812-.136719-.097656-.148437-.164062-.019532-.175782.148437-.246094.21875-.378906-.046876-.15625-.261719-.03125-.394532-.09375.011719-.089844.109375-.15625.21875-.175782.089844-.015625.289063-.007812.34375.039063.03125.03125.003906.09375.050782.136719.054687.050781.121093.046874.191406.03125.023437-.117188-.15625-.085938-.136719-.167969.140625-.089844.371094-.015625.542969-.039063.097656-.015625.203125-.085937.292968-.136718.082032-.046876.191407-.128907.28125-.050782.023438.085938-.078124.113282-.125.15625-.160156.140625-.324218.304688-.449218.46875.078125.074219.214844.039063.34375.050782.050781.007812.113281.023437.167968.03125.0625.011718.128907.007812.175782.023437.089844.023437.113281.117187.199218.117187.144532 0 .144532-.15625.0625-.253906.027344-.101562.066407-.148437.03125-.21875-.0625-.128906-.300781-.007812-.3125-.167968-.007812-.101563.089844-.097657.125-.175782-.015624-.203125.164063-.21875.148438-.394531-.011719-.078125-.074219-.078125-.128906-.148437-.023438-.035157-.039063-.101563-.070313-.132813-.242187-.019531-.488281-.035156-.738281-.035156zm-4.203125 1.644531c.050781.007812.109375.058594.167969.0625.054687.003906.101562-.027344.136718-.019531.085938.023437.125.152343.039063.21875-.066406.007812-.09375-.027344-.144531-.019531-.140625.019531-.195313.300781-.300782.289062-.101562-.007812-.15625-.25-.054687-.320312.007813-.066407-.042969-.078126-.042969-.140626.03125-.035156.117188-.078124.199219-.070312zm-.46875.03125c.027344.003906.050781.011719.0625.019531-.011719.113281-.101563.105469-.1875.160157-.148437.085937-.234375.222656-.28125.414062-.011719.058594-.160156.203125-.230469.1875-.164062-.03125.042969-.335938.082032-.382812.042968-.050782.097656-.097657.148437-.160157.046875-.054687.078125-.132812.125-.164062.050781-.035157.191406-.078125.28125-.074219zm1.234375.378906c.054688 0 .101562.007813.121094.027344-.03125.140625-.328125.101562-.4375.054688.007812-.054688.085937-.066407.15625-.074219.046875 0 .105468-.011719.160156-.007813zm-.671875.25c.03125 0 .066406.007813.105469.019532-.097656.082031-.199219.125-.367188.175781-.074218.027343-.214844.058593-.230468-.03125-.015626-.109375.117187-.082031.191406-.09375.09375-.011719.191406-.066407.300781-.070313zm10.367187.621094c-.011718.03125-.019531.058594-.019531.085938.007813.050781.058594.097656.074219.167968.007812.035156-.015625.113282 0 .148438.050781.09375.183594.023437.277344.03125-.109375-.148438-.214844-.296875-.332032-.433594zm.535157.71875c-.015625.070312-.066407.164062-.105469.222656-.089844.140625-.214844.148438-.34375.21875-.109375.0625-.15625.167969-.222656.273438-.066406.117187-.109375.1875-.082032.355468-.09375.183594-.234374.296876-.425781.386719-.058593.027344-.136719.035157-.1875.070313-.042969.03125-.066406.113281-.125.175781-.074219.085937-.148437.117187-.1875.179687-.03125.050782-.042969.144532-.078125.210938-.042968.085938-.136718.132812-.195312.21875-.027344.042969-.042969.125-.074219.179688-.066406.117187-.179687.207031-.164063.3125.007813.101562.125.117187.132813.207031.003906.050781-.035156.082031-.03125.136719.003906.078124.058594.136718.0625.199218.015625.15625-.050781.214844-.082031.324219-.015625.046875-.007813.105469-.023438.144531-.023437.078125-.128906.148438-.132812.238282 0 .066406.066406.121093.074218.210937 0 .0625-.03125.128906-.023437.1875.023437.113281.226563.246094.3125.332031.121094.121094.273437.210938.324219.335938.042968.105468.042968.242187.125.324218.0625.058594.164062.09375.242187.15625.074219.058594.148438.105469.226563.164063.128906.101563.320312.296875.523437.28125.105469-.007813.214844-.089844.332031-.113281.125-.023438.285157-.03125.410157-.019532.09375.011719.195312.066407.292969.0625.105468-.007812.222656-.085937.34375-.136718.09375-.042969.214843-.089844.34375-.121094.054687-.398438.089843-.804688.089843-1.21875 0-1.667969-.5-3.214844-1.351562-4.5zm-13.472657 2.734375c-.171874.011719-.285156.019531-.382812.0625-.226562.101563-.183594.40625-.40625.480469-.082031.027344-.1875.027344-.273438.042968-.074218.011719-.164062.054688-.242187.050782-.019531 0-.050781-.015625-.078125-.023438-.019531.144532-.035156.289063-.046875.433594.214844.042969.324219.324219.515625.417969.050781.027343.117188.03125.1875.042969.054688.011718.09375.035156.144531.054687.109375.035156.246094.03125.335938.070313.132812.058593.230469.3125.34375.375.007812.070312-.015625.160156.007812.210937.054688.070313.132813.054687.222657.105469.105468.058594.136718.203125.238281.25.039062.015625.121093.011718.179687.027344.136719.046874.183594.207031.300782.167968.078124-.019531.070312-.101562.085937-.175781.050781-.054687.105469-.144531.1875-.144531.128906-.007813.140625.132812.1875.261718.027344.066407.097656.128907.113281.207032.035156.128906.015625.519531-.007812.59375-.035156.097656-.164063.136718-.242188.242187-.039062.050781-.054687.121094-.085937.15625-.050781.0625-.125.078125-.164063.136719-.019531.03125-.042968.101562-.0625.144531-.066406.132813-.148437.226563-.09375.386719.019532.066406.125.109375.125.1875 0 .089844-.195312.171875-.210937.269531-.007813.078125.0625.207031.085937.304688.015625.074219.152344.117187.195313.167969.074219.082031.132812.199218.199219.300781.132812.207031.238281.453125.367187.648437.066406.105469.160156.199219.207031.304688.023438.054687.023438.117187.042969.167968.074219.167969.402344.34375.574219.425782.078125.039062.167968.050781.238281.09375.113281.0625.332031.226562.386719.324218.050781.085938.082031.296876.105468.4375.03125.183594 0 .324219.011719.523438.007813.109375.039063.214844.039063.324219 0 .035156-.015625.0625-.019532.101562 0 .007813.003907.011719.003907.019531 1.023437.464844 2.160156.730469 3.363281.730469.21875 0 .433594-.011719.644531-.027343.007813-.015626.015625-.035157.03125-.050782.046875-.0625.09375-.117187.125-.175781.027344-.191406-.078125-.324219-.03125-.492187.046875-.183594.308594-.300782.488281-.382813.0625-.03125.128907-.078125.175782-.097656.128906-.042969.285156-.019531.398437-.0625.199219-.066407.21875-.28125.3125-.457031.046875-.085938.109375-.167969.117188-.230469.003906-.054688-.019531-.105469-.011719-.167969.011719-.0625.066406-.117188.082031-.1875.023438-.089844.035157-.222656.035157-.324219 0-.082031-.039063-.152343-.042969-.230469-.011719-.269531.097656-.296874.195312-.445312.054688-.074219.070313-.160156.105469-.210938.171875-.25.460938-.371093.4375-.75-.003906-.125-.082031-.410156-.175781-.449218-.054688-.023438-.175781-.003906-.25-.03125-.246094-.09375-.390625-.398438-.648438-.417969-.054687-.007813-.101562.023437-.164062.019531-.101563-.003906-.253907-.070312-.367188-.082031-.070312-.007813-.167969.019531-.207031 0-.070312-.03125-.074219-.152344-.128906-.1875-.039063-.03125-.125-.039063-.183594-.0625-.105469-.039063-.1875-.085937-.304688-.09375-.039062-.003906-.082031.015625-.125.011719-.066406-.011719-.117187-.089844-.179687-.128906-.074219-.046876-.144531-.066407-.175781-.132813.066406-.226563-.121094-.289063-.167969-.417969-.019531-.0625-.011719-.132812-.03125-.1875-.027344-.078125-.101563-.125-.1875-.1875-.152344-.117187-.285156-.226562-.503906-.253906-.089844-.011719-.1875.03125-.300781.023438-.121094-.007813-.273438-.113282-.363282-.21875-.089844-.101563-.132812-.195313-.210937-.238282-.074219-.046875-.167969-.046875-.21875-.09375-.023438-.023437-.019531-.058594-.042969-.105468-.035156-.078126-.097656-.121094-.050781-.210938-.082031-.042969-.085938.078125-.179688.0625-.078125-.113281-.148437-.167969-.332031-.136719-.082031.015625-.132812.121094-.230469.125-.082031.007813-.140625-.085937-.25-.101562-.082031-.011719-.171875.019531-.230469.007812-.089843-.015625-.113281-.089843-.199218-.144531-.058594-.039062-.175782-.105469-.207032-.105469-.105468.007813-.179687.226563-.324218.148438-.070313-.089844.113281-.136719.03125-.21875-.0625-.066407-.117188.027343-.167969.0625-.058594.039062-.109375.078125-.175781.105469-.140625.050781-.234375.023437-.34375.082031-.105469.054687-.109375.140625-.167969.25-.050781.089843-.15625.214843-.230469.21875-.085937.007812-.171875-.121094-.25-.152344-.238281-.105469-.355468.089844-.554687.089844-.183594.007812-.445313-.296875-.4375-.46875 0-.105469.0625-.265625.074219-.394531.011718-.105469.082031-.167969.082031-.265626.003906-.125-.167969-.222656-.25-.238281-.195313-.035156-.464844.078125-.6875-.007812-.042969-.074219.046875-.125.070312-.191407.015625-.039062.007813-.09375.023438-.132812.023437-.066406.09375-.121094.125-.1875.023437-.054688.027343-.132812.050781-.199219.027344-.078125.078125-.125.082031-.179687.007813-.070313-.015625-.152344-.070312-.195313zm2.792969 2.210937c.070313.007813.082031.152344.007813.164063-.078125.015625-.117188-.121094-.039063-.15625.007813-.007813.023438-.007813.03125-.003906zm0 0" fill="#e57452"/></svg>