<svg height="24pt" viewBox="0 0 24 24" width="24pt" xmlns="http://www.w3.org/2000/svg"><path d="m5.605469 1.421875h12.789062c2.308594 0 4.183594 1.875 4.183594 4.183594v12.789062c0 2.308594-1.875 4.183594-4.183594 4.183594h-12.789062c-2.308594 0-4.183594-1.875-4.183594-4.183594v-12.789062c0-2.308594 1.875-4.183594 4.183594-4.183594zm0 0" fill="#267eb6" fill-rule="evenodd"/><path d="m15.90625 16.910156c.988281-.566406 2.492188-1.894531 2.492188-2.203125 0-.148437-.257813-.042969-.765626.316407-1.757812 1.25-2.457031 1.332031-2.449218.289062.007812-1.285156 1.34375-3.640625 3.289062-5.792969l1.066406-1.179687-.296874-.511719c-.164063-.28125-.410157-.53125-.550782-.558594-.355468-.066406-3.042968 2.234375-4.734375 4.054688-.78125.84375-1.445312 1.507812-1.476562 1.476562-.03125-.027343.285156-.625.695312-1.320312 1.648438-2.78125 1.988281-3.785157 1.441407-4.242188-.132813-.109375-.402344-.15625-.605469-.105469-.617188.15625-2.394531 1.746094-3.660157 3.28125-.664062.804688-1.226562 1.445313-1.25 1.421876-.023437-.023438.292969-.75.703126-1.613282.636718-1.347656.734374-1.675781.664062-2.296875-.046875-.414062-.21875-.859375-.398438-1.039062-.285156-.285157-.390624-.296875-1.019531-.128907-.382812.105469-1.261719.472657-1.949219.816407-.6875.347656-1.300781.628906-1.363281.628906s.0625-.195313.277344-.429687l.390625-.433594-.480469.335937c-.84375.585938-1.242187 1.132813-1.386719 1.902344-.078124.414063-.101562.816406-.054687.894531.121094.195313.902344-.152344 2.671875-1.195312 2.171875-1.277344 2.5-1.324219 2.390625-.351563-.074219.675781-1.632813 3.265625-3.410156 5.667969l-.503907.679688.28125.730468c.152344.402344.375.730469.492188.730469.121094 0 .839844-.929687 1.601562-2.066406 1.570313-2.351563 3.667969-4.953125 4.429688-5.496094.390625-.277344.558594-.320313.699219-.175781.265625.265625-.574219 1.828125-2.242188 4.164062-.742187 1.035156-1.394531 2.054688-1.449219 2.261719-.117187.421875.195313 1.632813.421876 1.632813.078124 0 .742187-.742188 1.46875-1.648438 1.445312-1.800781 4.964843-5.433594 5.265624-5.433594.339844 0 .199219.25-.964843 1.699219-1.992188 2.480469-2.59375 4.390625-1.671875 5.308594.511718.515625.953125.5 1.941406-.070313zm0 0" fill="#fff"/></svg>