<svg height="24pt" viewBox="0 0 24 24" width="24pt" xmlns="http://www.w3.org/2000/svg"><g fill-rule="evenodd"><path d="m22.660156 11.582031h-21.308594v6.816407c0 2.335937 1.878907 4.210937 4.210938 4.210937h12.886719c2.332031 0 4.210937-1.875 4.210937-4.210937zm0 0" fill="#334d5c"/><path d="m22.660156 7.613281h-21.308594v3.96875h21.308594zm0 0" fill="#d07e34"/><path d="m5.5625 1.304688c-2.332031 0-4.210938 1.878906-4.210938 4.210937v2.097656h21.308594v-2.097656c0-2.332031-1.878906-4.210937-4.210937-4.210937zm0 0" fill="#808080"/><path d="m22.660156 10.992188h-21.308594v7.503906c0 2.332031 1.878907 4.210937 4.210938 4.210937h12.882812c2.332032 0 4.214844-1.878906 4.214844-4.210937zm0 0" fill="#eaad43"/><path d="m6.761719 13.519531c0 .429688-.34375.773438-.773438.773438-.425781 0-.773437-.34375-.773437-.773438 0-.425781.347656-.773437.773437-.773437.429688 0 .773438.347656.773438.773437zm0 0" fill="#cb7f2c"/><path d="m19.167969 13.53125c0 .429688-.347657.777344-.777344.777344-.425781 0-.773437-.347656-.773437-.777344 0-.425781.347656-.773438.773437-.773438.429687 0 .777344.347657.777344.773438zm0 0" fill="#cb7f2c"/></g><path d="m6.035156 13.34375c-.128906 0-.253906.050781-.34375.144531s-.132812.222657-.125.351563c.304688 4.648437 3.515625 6.90625 6.6875 6.792968 3.175782-.113281 6.320313-2.554687 6.546875-6.796874.015625-.167969-.0625-.328126-.203125-.421876-.140625-.089843-.320312-.101562-.46875-.023437-.148437.078125-.242187.230469-.246094.394531-.203124 3.820313-2.925781 5.832032-5.660156 5.929688-2.730468.097656-5.460937-1.675782-5.738281-5.933594-.011719-.242188-.207031-.433594-.449219-.4375zm0 0" fill="#fff"/></svg>