<svg height="24pt" viewBox="0 0 24 24" width="24pt" xmlns="http://www.w3.org/2000/svg"><path d="m5.605469 1.421875h12.789062c2.308594 0 4.183594 1.875 4.183594 4.183594v12.789062c0 2.308594-1.875 4.183594-4.183594 4.183594h-12.789062c-2.308594 0-4.183594-1.875-4.183594-4.183594v-12.789062c0-2.308594 1.875-4.183594 4.183594-4.183594zm0 0" fill="#234780" fill-rule="evenodd"/><path d="m12 3.933594c-4.453125 0-8.066406 3.613281-8.066406 8.066406s3.613281 8.066406 8.066406 8.066406 8.066406-3.613281 8.066406-8.066406-3.613281-8.066406-8.066406-8.066406zm0 0" fill="#63bfd7"/><path d="m12 5.804688 4.035156 6.339843-4.035156 2.304688-4.035156-2.304688zm0 0" fill="#fff"/><path d="m12 18.195312 4.035156-5.1875-4.035156 2.304688-4.035156-2.304688zm0 0" fill="#fff"/></svg>