<svg height="24pt" viewBox="0 0 24 24" width="24pt" xmlns="http://www.w3.org/2000/svg"><path d="m5.605469 1.421875h12.789062c2.308594 0 4.183594 1.875 4.183594 4.183594v12.789062c0 2.308594-1.875 4.183594-4.183594 4.183594h-12.789062c-2.308594 0-4.183594-1.875-4.183594-4.183594v-12.789062c0-2.308594 1.875-4.183594 4.183594-4.183594zm0 0" fill="#e32e2e" fill-rule="evenodd"/><path d="m13.166667 8.458333c-4.9375 2.286459-6.260417 6.026042-5.385417 9.864584 1.994792 8.739583 8.760417 7.083333 9.9375 6.885416 1.947917-.328125 5.84375-1.255208 6.625-6.119791.802083-4.96875-2.4375-6.932292-4.390625-7.364584-2.453125-.541666-4.46875-.197916-5.583333 1.53125-1.036459 1.604167-1.119792 3.588542-.46875 4.921875.598958 1.21875 1.151041 1.260417 2.072916 1.28125 3.1875.072917 3.614584-1.385416 3.270834-3.25-.807292-3.963541-2.661459-5.088541-2.026042-8.151041.65625-2.0625 2.802083-1.776042 4.25-.598959" fill="none" stroke="#fff" stroke-linecap="round" stroke-linejoin="round" stroke-width="3" transform="scale(.75)"/></svg>