<svg height="24pt" viewBox="0 0 24 24" width="24pt" xmlns="http://www.w3.org/2000/svg" xmlns:xlink="http://www.w3.org/1999/xlink"><filter id="a" height="100%" width="100%" x="0%" y="0%"><feColorMatrix in="SourceGraphic" type="matrix" values="0 0 0 0 1 0 0 0 0 1 0 0 0 0 1 0 0 0 1 0"/></filter><mask id="b"><g filter="url(#a)"><path d="m0 0h24v24h-24z" fill-opacity=".501961"/></g></mask><clipPath id="c"><path d="m0 0h24v24h-24z"/></clipPath><path d="m5.605469 1.421875h12.789062c2.308594 0 4.183594 1.875 4.183594 4.183594v12.789062c0 2.308594-1.875 4.183594-4.183594 4.183594h-12.789062c-2.308594 0-4.183594-1.875-4.183594-4.183594v-12.789062c0-2.308594 1.875-4.183594 4.183594-4.183594zm0 0" fill="#dcdcbe" fill-rule="evenodd"/><g clip-path="url(#c)" mask="url(#b)"><path d="m3.75 7.5v.75h16.5v-.75zm0 2.25v.75h16.5v-.75zm0 2.25v.75h16.5v-.75zm0 2.25v.75h16.5v-.75zm0 2.25v.75h16.5v-.75zm0 0" fill="#2a2a2a" fill-rule="evenodd"/></g><path d="m10.648438 12.289062c-.445313-.464843-1.078126-.753906-1.839844-.695312-.0625-.117188-.316406-1.28125-.316406-1.28125s.886718-1.21875 1.078124-1.453125c.949219-1.394531 1.011719-2.5.441407-3.605469-.1875-.40625-.695313-.753906-1.203125-.753906-.378906 0-.699219.289062-.886719.640625-.636719.988281-.636719 2.847656-.316406 4.125 0 0-.320313.292969-.636719.640625-.632812.640625-1.332031 1.339844-1.582031 2.269531-.320313 1.046875-.066407 2.035157.632812 2.789063.761719.871094 1.902344 1.28125 3.296875 1.164062.253906 1.105469.441406 1.800782.0625 2.441406-.125.230469-.378906.464844-.824218.464844-.125 0-.191407 0-.316407-.058594.378907-.175781.695313-.523437.695313-.929687 0-.582031-.503906-1.046875-1.140625-1.046875-1.078125.058594-1.140625 1.046875-1.140625 1.046875 0 .347656.128906.699219.382812.929687.316406.289063.820313.523438 1.394532.523438.695312 0 1.394531-.234375 1.648437-1.164062.25-.753907-.191406-1.976563-.253906-2.382813.695312-.289063 1.328125-1.164063 1.394531-1.742187.125-.640626-.128906-1.398438-.570312-1.921876zm-2.03125-6.453124c.0625-.113282.191406-.171876.316406-.171876.066406 0 .191406.058594.253906.113282.253906.117187.316406.351562.316406.699218-.0625.871094-.886718 1.917969-1.328125 2.269532-.191406-.816406-.066406-2.328125.441407-2.910156zm-1.835938 9.128906c-.445312-.40625-.636719-.988282-.570312-1.570313.125-.929687.824218-1.683593 1.394531-2.265625.125-.117187.25-.234375.316406-.351562.0625.292968.253906.757812.316406.988281-.761719.292969-1.203125 1.222656-1.140625 1.980469 0 .347656.125.578125.316406.8125.0625.058594.125.117187.191407.117187.0625 0 .1875-.058593.1875-.117187.0625-.058594.0625-.175782 0-.234375-.0625-.058594-.0625-.113281-.0625-.230469-.0625-.523438.316406-.929688.761719-1.105469.0625.347657.507812 2.152344.570312 2.558594-.824219.230469-1.710938 0-2.28125-.582031zm2.851562.347656c-.128906-.40625-.191406-.871094-.316406-1.394531-.0625-.347657-.128906-.753907-.253906-1.105469.824219 0 1.078125.640625 1.140625.875.191406.636719 0 1.277344-.570313 1.625zm0 0" fill="#2a2a2a"/></svg>