<svg height="24pt" viewBox="0 0 24 24" width="24pt" xmlns="http://www.w3.org/2000/svg" xmlns:xlink="http://www.w3.org/1999/xlink"><clipPath id="a"><path d="m0 0h24v24h-24z"/></clipPath><path d="m5.605469 1.421875h12.789062c2.308594 0 4.183594 1.875 4.183594 4.183594v12.789062c0 2.308594-1.875 4.183594-4.183594 4.183594h-12.789062c-2.308594 0-4.183594-1.875-4.183594-4.183594v-12.789062c0-2.308594 1.875-4.183594 4.183594-4.183594zm0 0" fill="#4f4f4f" fill-rule="evenodd"/><g clip-path="url(#a)"><path d="m10.394531 16.90625c.714844-.21875 1.570313-.820312 1.972657-1.382812l.128906-.1875-.164063-.5c-.605469-1.832032.492188-3.679688 2.378907-4 1.371093-.230469 2.804687.609374 3.300781 1.925781.121093.316406.121093.320312.085937.078125-.113281-.714844-.46875-1.371094-1.042968-1.9375-.597657-.589844-1.292969-.925782-2.160157-1.042969-.269531-.035156-.296875-.027344-.394531.144531-.15625.261719-.605469.699219-.9375.910156-.894531.574219-2.277344.574219-3.171875 0-1.015625-.644531-1.589844-1.882812-1.402344-3.019531.101563-.621093.375-1.175781.8125-1.636719.316407-.335937.335938-.371093.15625-.265624-.308593.175781-1.03125.957031-1.234375 1.335937-.234375.441406-.425781 1.214844-.425781 1.726563 0 .441406.117187 1.027343.285156 1.453124.097657.246094.113281.253907.476563.292969.207031.023438.535156.097657.726562.164063 1.703125.585937 2.507813 2.550781 1.710938 4.175781-.546875 1.109375-1.804688 1.824219-2.976563 1.691406-.480469-.054687-.429687.011719.101563.132813.46875.105468 1.328125.078125 1.773437-.058594zm0 0" fill="#fff"/><path d="m12 4.5c-4.136719 0-7.5 3.363281-7.5 7.5s3.363281 7.5 7.5 7.5 7.5-3.363281 7.5-7.5-3.363281-7.5-7.5-7.5zm0 .804688c3.703125 0 6.695312 2.992187 6.695312 6.695312s-2.992187 6.695312-6.695312 6.695312-6.695312-2.992187-6.695312-6.695312 2.992187-6.695312 6.695312-6.695312zm0 0" fill="#fff"/></g></svg>