<svg height="24pt" viewBox="0 0 24 24" width="24pt" xmlns="http://www.w3.org/2000/svg"><path d="m5.605469 1.421875h12.789062c2.308594 0 4.183594 1.875 4.183594 4.183594v12.789062c0 2.308594-1.875 4.183594-4.183594 4.183594h-12.789062c-2.308594 0-4.183594-1.875-4.183594-4.183594v-12.789062c0-2.308594 1.875-4.183594 4.183594-4.183594zm0 0" fill="#afafb1" fill-rule="evenodd"/><path d="m3.898438 6.75h9.453124c.289063 0 .523438.234375.523438.523438v9.453124c0 .289063-.234375.523438-.523438.523438h-9.453124c-.289063 0-.523438-.234375-.523438-.523438v-9.453124c0-.289063.234375-.523438.523438-.523438zm0 0" fill="#3798a0"/><path d="m6 15.5h2.302083l1.395834-3 1.401041 8 2.098959-9 1.401041 4h3.5" fill="none" stroke="#fff" stroke-linejoin="round" transform="matrix(.75 0 0 .75 -.375 0)"/><g fill="#fff"><path d="m17.625 11.625c0 .621094-.503906 1.125-1.125 1.125s-1.125-.503906-1.125-1.125.503906-1.125 1.125-1.125 1.125.503906 1.125 1.125zm0 0"/><path d="m19.875 7.125c0 1.035156-.839844 1.875-1.875 1.875s-1.875-.839844-1.875-1.875.839844-1.875 1.875-1.875 1.875.839844 1.875 1.875zm0 0"/><path d="m17.625 14.625c0 .621094-.503906 1.125-1.125 1.125s-1.125-.503906-1.125-1.125.503906-1.125 1.125-1.125 1.125.503906 1.125 1.125zm0 0"/><path d="m17.625 17.625c0 .621094-.503906 1.125-1.125 1.125s-1.125-.503906-1.125-1.125.503906-1.125 1.125-1.125 1.125.503906 1.125 1.125zm0 0"/><path d="m20.625 11.625c0 .621094-.503906 1.125-1.125 1.125s-1.125-.503906-1.125-1.125.503906-1.125 1.125-1.125 1.125.503906 1.125 1.125zm0 0"/><path d="m20.625 14.625c0 .621094-.503906 1.125-1.125 1.125s-1.125-.503906-1.125-1.125.503906-1.125 1.125-1.125 1.125.503906 1.125 1.125zm0 0"/></g><path d="m20.625 17.625c0 .621094-.503906 1.125-1.125 1.125s-1.125-.503906-1.125-1.125.503906-1.125 1.125-1.125 1.125.503906 1.125 1.125zm0 0" fill="#0b7ce1"/></svg>