<svg height="24pt" viewBox="0 0 24 24" width="24pt" xmlns="http://www.w3.org/2000/svg"><path d="m5.605469 1.421875h12.789062c2.308594 0 4.183594 1.875 4.183594 4.183594v12.789062c0 2.308594-1.875 4.183594-4.183594 4.183594h-12.789062c-2.308594 0-4.183594-1.875-4.183594-4.183594v-12.789062c0-2.308594 1.875-4.183594 4.183594-4.183594zm0 0" fill="#394e6f" fill-rule="evenodd"/><g fill="#fff" stroke="#394e6f" stroke-linecap="round" stroke-linejoin="round" stroke-width=".5" transform="matrix(.75 0 0 .75 33.315789 2.921053)"><path d="m-22.671052 10.605263c0 1.796875-1.453125 3.25-3.25 3.25s-3.25-1.453125-3.25-3.25 1.453125-3.25 3.25-3.25 3.25 1.453125 3.25 3.25zm0 0"/><path d="m-16.671052 17.105263c0 .96875-.78125 1.75-1.75 1.75s-1.75-.78125-1.75-1.75.78125-1.75 1.75-1.75 1.75.78125 1.75 1.75zm0 0"/><path d="m-18.671052 15.105263c0 2.072916-1.677083 3.75-3.75 3.75s-3.75-1.677084-3.75-3.75c0-2.072917 1.677083-3.75 3.75-3.75s3.75 1.677083 3.75 3.75zm0 0"/><path d="m-33.671052 15.605263c0 1.796875-1.453125 3.25-3.25 3.25s-3.25-1.453125-3.25-3.25 1.453125-3.25 3.25-3.25 3.25 1.453125 3.25 3.25zm0 0"/><path d="m-32.171052 9.105263c0 .96875-.78125 1.75-1.75 1.75s-1.75-.78125-1.75-1.75.78125-1.75 1.75-1.75 1.75.78125 1.75 1.75zm0 0"/><path d="m-29.671052 13.105263c0 2.072916-1.677083 3.75-3.75 3.75s-3.75-1.677084-3.75-3.75c0-2.072917 1.677083-3.75 3.75-3.75s3.75 1.677083 3.75 3.75zm0 0"/><path d="m-31.671052 17.105263c0 .96875-.78125 1.75-1.75 1.75s-1.75-.78125-1.75-1.75.78125-1.75 1.75-1.75 1.75.78125 1.75 1.75zm0 0"/><path d="m-26.671052 8.605263c0 1.796875-1.453125 3.25-3.25 3.25s-3.25-1.453125-3.25-3.25 1.453125-3.25 3.25-3.25 3.25 1.453125 3.25 3.25zm0 0"/><path d="m-23.671052 14.105263c0 2.625-2.125 4.75-4.75 4.75s-4.75-2.125-4.75-4.75 2.125-4.75 4.75-4.75 4.75 2.125 4.75 4.75zm0 0"/></g></svg>