<svg height="24pt" viewBox="0 0 24 24" width="24pt" xmlns="http://www.w3.org/2000/svg" xmlns:xlink="http://www.w3.org/1999/xlink"><clipPath id="a"><path d="m0 0h24v24h-24z"/></clipPath><path d="m22.574219 16.390625c-.777344-.25-1.429688-.492187-1.683594-.515625-.515625-.039062-1.195313.125-1.8125.304688-.617187.179687-1.167969.375-1.433594.394531-.261719.019531-1.175781.003906-1.746093-.050781-.570313-.050782-1.0625-.117188-1.273438-.136719-.214844-.019531-.8125-.09375-1.160156-.140625s-.652344-.09375-.910156-.117188c-.261719-.023437-1.40625-.109375-2.238282-.160156-.835937-.050781-1.617187-.09375-1.929687-.09375s-1.316407.03125-1.921875.066406c-.605469.035156-1.128906.074219-1.417969.0625-.289063-.007812-1.210937-.167968-1.832031-.285156-.617188-.117188-1.21875-.203125-1.730469-.097656-.011719.003906-.046875.03125-.058594.035156v1.988281h21.152344zm0 0"/><path d="m5.605469 1.472656c-.578125 0-1.128907.117188-1.628907.328125-.5.210938-.953124.515625-1.332031.894531-.375.378907-.679687.828126-.894531 1.328126-.210938.5-.328125 1.050781-.328125 1.632812v10c .015625-.003906.050781-.03125.0625-.035156.511719-.105469 1.113281-.019532 1.730469.097656.621094.117188 1.542968.277344 1.832031.285156.289063.011719.8125-.027344 1.417969-.0625.605468-.035156 1.609375-.066406 1.921875-.066406s1.09375.042969 1.929687.09375c.832032.054688 1.976563.136719 2.238282.160156.257812.023438.5625.070313.910156.117188s.945312.121094 1.160156.140625c.210938.019531.703125.085937 1.273438.136719.570312.054687 1.484374.070312 1.746093.050781.265625-.019531.816407-.214844 1.433594-.394531.617187-.179688 1.296875-.34375 1.8125-.304688.253906.023438.90625.265625 1.683594.515625v-10.734375c0-.582031-.113281-1.132812-.324219-1.632812s-.519531-.949219-.894531-1.328126c-.378907-.378906-.828125-.683593-1.328125-.894531-.503906-.210937-1.050782-.328125-1.632813-.328125zm0 0" fill="#8c93dd"/><g clip-path="url(#a)"><path d="m16.515625 5.964844c1.648437 0 2.984375 1.335937 2.984375 2.980468 0 1.648438-1.335938 2.984376-2.984375 2.984376-1.644531 0-2.980469-1.335938-2.980469-2.984376 0-1.644531 1.335938-2.980468 2.980469-2.980468zm0 0" fill="#fffca3" fill-rule="evenodd"/></g><path d="m1.425781 17.644531v.699219c0 .578125.113281 1.128906.328125 1.628906.210938.5.515625.953125.890625 1.332032.378907.378906.832031.683593 1.332031.894531.5.210937 1.050782.328125 1.628907.328125h12.789062c.582031 0 1.128907-.117188 1.632813-.328125.5-.210938.949218-.515625 1.328125-.894531.375-.378907.683593-.832032.894531-1.332032s.324219-1.050781.324219-1.628906v-.699219zm0 0" fill="#5184b0"/></svg>