<svg height="24pt" viewBox="0 0 24 24" width="24pt" xmlns="http://www.w3.org/2000/svg"><path d="m22.5 5.226562c-.039062-.433593-.089844-.867187-.25-1.253906-.214844-.5-.519531-.949218-.898438-1.328125-.375-.375-.828124-.683593-1.328124-.894531-.382813-.160156-.816407-.210938-1.25-.25h-6.773438v10.5h10.5zm0 0" fill="#2086e7"/><path d="m5.222656 1.5c-.433594.039062-.863281.089844-1.25.25-.5.210938-.949218.519531-1.328125.894531-.375.378907-.683593.828125-.894531 1.328125-.160156.386719-.210938.816406-.25 1.25v6.777344h10.5v-10.5zm0 0" fill="#c72566"/><path d="m18.777344 22.5c.433594-.039062.863281-.089844 1.25-.25.5-.210938.949218-.519531 1.328125-.894531.375-.378907.683593-.828125.894531-1.328125.160156-.386719.210938-.816406.25-1.25v-6.777344h-10.5v10.5zm0 0" fill="#c72566"/><path d="m1.5 18.773438c.039062.433593.089844.867187.25 1.253906.214844.5.519531.949218.898438 1.328125.375.375.828124.683593 1.328124.894531.382813.160156.816407.210938 1.25.25h6.773438v-10.5h-10.5zm0 0" fill="#ff8c2a"/><path d="m7.140625 3.964844h9.71875c1.753906 0 3.175781 1.421875 3.175781 3.175781v9.71875c0 1.753906-1.421875 3.175781-3.175781 3.175781h-9.71875c-1.753906 0-3.175781-1.421875-3.175781-3.175781v-9.71875c0-1.753906 1.421875-3.175781 3.175781-3.175781zm0 0" fill="#3f3f3f" fill-rule="evenodd"/><g fill="none" stroke="#fff" stroke-linecap="round" stroke-width="2" transform="matrix(.673905 0 0 .673905 -30.085808 24.165546)"><path d="m56.457137-11.032828h7.999088"/><path d="m64.456225-17.032143s4.045916.347786 3.999544-3.999544c-.040575-4.353127-3.999544-3.999544-3.999544-3.999544m-.011593 7.999088v-7.999088" stroke-linejoin="bevel"/><path d="m60.456681-17.032143-1.999772-3.002557m-1.999772-.996987s3.999544.463715 3.999544-1.999772c0-2.469284-3.999544-1.999772-3.999544-1.999772m0 7.999088v-7.999088"/></g></svg>