<svg height="24pt" viewBox="0 0 24 24" width="24pt" xmlns="http://www.w3.org/2000/svg"><path d="m5.605469 1.421875h12.789062c2.308594 0 4.183594 1.875 4.183594 4.183594v12.789062c0 2.308594-1.875 4.183594-4.183594 4.183594h-12.789062c-2.308594 0-4.183594-1.875-4.183594-4.183594v-12.789062c0-2.308594 1.875-4.183594 4.183594-4.183594zm0 0" fill="#007eff" fill-rule="evenodd"/><path d="m16.589844 18.371094h-9.179688v-4.585938h9.179688zm0 0" fill="#b7b7b7"/><path d="m17.78125 14.242188h-11.5625c-.355469 0-.644531-.289063-.644531-.648438v-6.503906c0-.359375.289062-.648438.644531-.648438h11.5625c.355469 0 .644531.289063.644531.648438v6.503906c0 .359375-.289062.648438-.644531.648438zm0 0" fill="#999"/><g fill="#666"><path d="m15.671875 12.40625h-7.34375v-.917969h7.34375zm0 0"/><path d="m14.753906 10.570312h-5.507812v-.917968h5.507812zm0 0"/><path d="m13.835938 8.734375h-3.671876v-.917969h3.671876zm0 0"/><path d="m15.671875 17.453125h-2.296875v-1.375h2.296875zm0 0"/><path d="m10.625 17.453125h-2.296875v-1.375h2.296875zm0 0"/></g></svg>