<svg height="24pt" viewBox="0 0 24 24" width="24pt" xmlns="http://www.w3.org/2000/svg" xmlns:xlink="http://www.w3.org/1999/xlink"><clipPath id="a"><path d="m0 0h24v24h-24z"/></clipPath><path d="m5.605469 1.421875h12.789062c2.308594 0 4.183594 1.875 4.183594 4.183594v12.789062c0 2.308594-1.875 4.183594-4.183594 4.183594h-12.789062c-2.308594 0-4.183594-1.875-4.183594-4.183594v-12.789062c0-2.308594 1.875-4.183594 4.183594-4.183594zm0 0" fill="#4f4f4f" fill-rule="evenodd"/><path d="m5.78125 4.480469v.75h-.375c-.621094 0-1.125.5-1.125 1.125 0 .621093.503906 1.125 1.125 1.125h.375v.75h-1.429688c.15625.4375.566407.75 1.054688.75h.375v.75h.75v-.75h.375c.625 0 1.125-.503907 1.125-1.125 0-.625-.5-1.125-1.125-1.125h-.375v-.75h1.433594c-.15625-.4375-.566406-.75-1.058594-.75h-.375v-.75zm-.375 1.5h.375v.75h-.375c-.207031 0-.375-.167969-.375-.375s.167969-.375.375-.375zm1.125 1.5h.375c.210938 0 .375.167969.375.375s-.164062.382812-.375.375h-.375zm3 1.5v.75h4.5v-.75zm0 0" fill="#fff"/><path d="m21.316406 16.65625c0 2.488281-2.015625 4.5-4.5 4.5s-4.5-2.011719-4.5-4.5c0-2.484375 2.015625-4.5 4.5-4.5s4.5 2.015625 4.5 4.5zm0 0" fill="#bb46da" fill-rule="evenodd"/><g clip-path="url(#a)" fill="#fff"><path d="m14.566406 14.410156h.378906c2.277344 0 4.121094 1.84375 4.121094 4.121094v.378906h-.378906c-.203125 0-.367188-.171875-.367188-.378906 0-1.863281-1.511718-3.375-3.375-3.375-.203124 0-.378906-.164062-.378906-.371094zm0 0"/><path d="m14.566406 15.910156h.378906c1.449219 0 2.617188 1.171875 2.617188 2.621094v.378906h-.367188c-.203124 0-.378906-.171875-.378906-.378906 0-1.035156-.835937-1.871094-1.871094-1.871094-.203124 0-.378906-.171875-.378906-.378906zm0 0"/><path d="m15.3125 17.40625c.414062 0 .757812.339844.757812.753906 0 .414063-.34375.75-.753906.75-.417968 0-.75-.335937-.75-.75 0-.414062.335938-.753906.75-.753906zm0 0"/></g></svg>