<svg height="24pt" viewBox="0 0 24 24" width="24pt" xmlns="http://www.w3.org/2000/svg"><path d="m5.605469 1.421875h12.789062c2.308594 0 4.183594 1.875 4.183594 4.183594v12.789062c0 2.308594-1.875 4.183594-4.183594 4.183594h-12.789062c-2.308594 0-4.183594-1.875-4.183594-4.183594v-12.789062c0-2.308594 1.875-4.183594 4.183594-4.183594zm0 0" fill="#eac046" fill-rule="evenodd"/><path d="m10.757812 4.339844v2.160156c-2.730468.625-4.671874 3.050781-4.675781 5.855469 0 3.320312 2.691407 6.007812 6.011719 6.007812 3.058594-.003906 5.625-2.300781 5.964844-5.339843 0 0 .046875-.667969-.621094-.667969s-.722656.667969-.722656.667969c-.332032 2.296874-2.300782 4.003906-4.621094 4.003906-2.582031 0-4.675781-2.089844-4.675781-4.671875.003906-2.066407 1.359375-3.886719 3.339843-4.476563v1.804688l2.671876-2.671875zm0 0" fill="#fff"/></svg>