<svg height="24pt" viewBox="0 0 24 24" width="24pt" xmlns="http://www.w3.org/2000/svg"><path d="m5.605469 1.421875h12.789062c2.308594 0 4.183594 1.875 4.183594 4.183594v12.789062c0 2.308594-1.875 4.183594-4.183594 4.183594h-12.789062c-2.308594 0-4.183594-1.875-4.183594-4.183594v-12.789062c0-2.308594 1.875-4.183594 4.183594-4.183594zm0 0" fill="#29dc47" fill-rule="evenodd"/><path d="m10.742188 18.160156c-.933594-.585937-1.695313-1.082031-1.695313-1.109375 0-.046875 3.378906-2.171875 3.457031-2.171875.023438 0 .046875.246094.046875.550782v.554687l.273438-.050781c.878906-.164063 1.796875-.757813 2.386719-1.535156 1.074218-1.421876 1.082031-3.359376.019531-4.777344-.191407-.253906-.335938-.484375-.328125-.507813.011718-.027343.335937-.335937.722656-.6875l.699219-.640625.375.414063c.519531.566406 1.039062 1.652343 1.226562 2.566406.1875.917969.1875 1.546875-.003906 2.46875-.472656 2.300781-2.375 4.21875-4.632813 4.671875l-.703124.140625-.019532.59375c-.015625.328125-.050781.59375-.078125.589844-.03125-.003907-.816406-.488281-1.746093-1.070313zm-3.507813-2.4375c-.777344-.988281-1.300781-2.492187-1.300781-3.726562 0-1.789063.964844-3.726563 2.386718-4.804688.8125-.613281 2-1.113281 2.867188-1.203125l.234375-.023437.019531-.609375c.015625-.335938.050782-.597657.085938-.585938.171875.070313 3.433594 2.136719 3.433594 2.175781 0 .046876-3.382813 2.171876-3.460938 2.171876-.023438 0-.042969-.246094-.042969-.546876 0-.636718 0-.636718-.777343-.359374-.652344.230468-1.101563.519531-1.570313 1.003906-1.375 1.4375-1.503906 3.609375-.308594 5.195312.179688.234375.320313.441406.316407.464844-.007813.054688-1.378907 1.28125-1.453126 1.304688-.03125.007812-.226562-.195313-.429687-.457032zm0 0" fill-opacity=".666667"/></svg>