<svg height="24pt" viewBox="0 0 24 24" width="24pt" xmlns="http://www.w3.org/2000/svg" xmlns:xlink="http://www.w3.org/1999/xlink"><filter id="a" height="100%" width="100%" x="0%" y="0%"><feColorMatrix in="SourceGraphic" type="matrix" values="0 0 0 0 1 0 0 0 0 1 0 0 0 0 1 0 0 0 1 0"/></filter><mask id="b"><g filter="url(#a)"><path d="m0 0h24v24h-24z" fill-opacity=".4"/></g></mask><clipPath id="c"><path d="m0 0h24v24h-24z"/></clipPath><mask id="d"><g filter="url(#a)"><path d="m0 0h24v24h-24z" fill-opacity=".4"/></g></mask><clipPath id="e"><path d="m0 0h24v24h-24z"/></clipPath><mask id="f"><g filter="url(#a)"><path d="m0 0h24v24h-24z" fill-opacity=".4"/></g></mask><clipPath id="g"><path d="m0 0h24v24h-24z"/></clipPath><path d="m5.605469 1.421875h12.789062c2.308594 0 4.183594 1.875 4.183594 4.183594v12.789062c0 2.308594-1.875 4.183594-4.183594 4.183594h-12.789062c-2.308594 0-4.183594-1.875-4.183594-4.183594v-12.789062c0-2.308594 1.875-4.183594 4.183594-4.183594zm0 0" fill="#8e8e8e" fill-rule="evenodd"/><path d="m15.117188 15.898438h-11.511719s2.519531 3.597656 10.074219 3.597656c5.035156 0 6.714843-2.519532 6.714843-3.777344 0-1.089844 0-1.621094-.839843-1.621094h-3.597657c-.839843 0-.839843.792969-.839843 1.800782zm0 0" fill="#784421"/><path d="m13.800781 6.902344v8.996094s-3.601562-2.054688-3.601562-4.5c0-2.441407 3.601562-4.496094 3.601562-4.496094zm0 0" fill="#ccc"/><path d="m13.800781 6.902344v-2.398438l2.996094 1.199219zm0 0" fill="#c83737"/><path d="m8.402344 9.902344v5.996094s-2.398438-1.371094-2.398438-3c0-1.628907 2.398438-2.996094 2.398438-2.996094zm0 0" fill="#ccc"/><g clip-path="url(#c)" mask="url(#b)"><path d="m15.597656 15.097656s0-.398437.300782-.398437c.300781 0 .300781.398437.300781.398437v.800782h-.601563zm0 0"/></g><g clip-path="url(#e)" mask="url(#d)"><path d="m17.398438 15.097656s0-.398437.296874-.398437c.300782 0 .300782.398437.300782.398437v.800782h-.597656zm0 0"/></g><g clip-path="url(#g)" mask="url(#f)"><path d="m19.195312 15.097656s0-.398437.300782-.398437c.300781 0 .300781.398437.300781.398437v.800782h-.601563zm0 0"/></g></svg>