<svg height="24pt" viewBox="0 0 24 24" width="24pt" xmlns="http://www.w3.org/2000/svg"><path d="m5.605469 1.421875c-2.316407 0-4.183594 1.867187-4.183594 4.183594v12.789062c0 2.316407 1.867187 4.183594 4.183594 4.183594h6.316406v-5.6875c0-.578125.113281-1.128906.324219-1.628906.210937-.5.519531-.953125.898437-1.328125.375-.378906.824219-.683594 1.328125-.894532.5-.214843 1.050782-.328124 1.628906-.328124h6.476563v-7.105469c0-2.316407-1.867187-4.183594-4.183594-4.183594zm0 0" fill="#642c68" fill-rule="evenodd"/><g fill="#fff"><path d="m4.105469 4.105469v1.972656h1.972656v-1.972656zm13.816406 0v1.972656h1.972656v-1.972656zm-13.816406 4.605469v1.972656h1.972656v-1.972656zm13.816406 0v1.972656h1.972656v-1.972656zm-13.816406 4.605468v1.972656h1.972656v-1.972656zm13.816406 0v1.972656h1.972656v-1.972656zm-13.816406 4.605469v1.972656h1.972656v-1.972656zm13.816406 0v1.972656h1.972656v-1.972656zm0 0"/><path d="m7.394531 4.761719h9.210938v5.921875h-9.210938zm0 0"/><path d="m7.394531 13.316406h9.210938v5.921875h-9.210938zm0 0"/></g><path d="m22.578125 12.710938h-6.476563c-.578124 0-1.128906.113281-1.628906.328124-.503906.210938-.953125.515626-1.328125.894532-.378906.375-.6875.828125-.898437 1.328125-.210938.5-.324219 1.050781-.324219 1.628906v5.6875h6.472656c2.316407 0 4.183594-1.867187 4.183594-4.183594zm0 0" fill="#64bc68" fill-rule="evenodd"/><path d="m15.492188 14.695312c-.636719 0-1.152344.515626-1.152344 1.152344 0 .636719.515625 1.152344 1.15625 1.152344.203125 0 .394531-.0625.5625-.15625l.90625.847656-.90625.851563c-.167969-.09375-.359375-.15625-.5625-.15625-.636719 0-1.15625.515625-1.15625 1.152343 0 .636719.519531 1.152344 1.15625 1.152344.636718 0 1.152344-.515625 1.152344-1.152344 0-.105468-.015626-.207031-.042969-.300781l.980469-.953125 2.0625 1.945313h.691406v-.460938l-3.734375-3.621093c.027343-.09375.042969-.195313.042969-.300782 0-.636718-.515626-1.15625-1.152344-1.15625zm0 .691407c.257812 0 .464843.207031.464843.460937s-.207031.460938-.464843.460938c-.253907 0-.460938-.207032-.460938-.460938s.207031-.460937.460938-.460937zm4.15625-.230469-1.816407 1.714844.605469.589844 1.902344-1.84375v-.460938zm-4.15625 3.921875c.257812 0 .464843.207031.464843.460937 0 .253907-.207031.460938-.464843.460938-.253907 0-.460938-.207031-.460938-.460938 0-.253906.207031-.460937.460938-.460937zm0 0" fill="#fff"/></svg>