<svg height="48" width="48" xmlns="http://www.w3.org/2000/svg"><g fill="#e4e4e4"><path d="m29 4v4c6.3273 2.1143 11 8.6571 11 16s-4.6727 13.886-11 16v4c8.591-2.229 15-10.286 15-20s-6.409-17.771-15-20z"/><path d="m4 14v20h9.0912l10.909 10v-40l-10.909 10z"/><path d="m34 24c0-3.9-2.011-7.26-5-9v18c2.9609-1.74 5-5.1 5-9z"/></g><path d="m29 8v1c6.1827 2.066 10.773 8.3626 10.98 15.5.005-.167.02-.332.02-.5 0-7.343-4.673-13.886-11-16zm4.9668 16.494c-.166 3.686-2.133 6.841-4.967 8.506v1c2.9609-1.74 5-5.1 5-9 0-.1718-.02549-.33624-.0332-.50586zm10.012.006c-.218 9.488-6.537 17.31-14.979 19.5v1c8.5909-2.2286 15-10.286 15-20 0-.16859-.01765-.33243-.02148-.5zm-39.979 9.5v1h9.092l10.908 10v-1l-10.908-10z" opacity=".2"/><path d="m24 4-10.908 10h-9.092v1h9.092l10.908-10zm5 0v1c8.442 2.1899 14.761 10.012 14.979 19.5.003-.168.021-.331.021-.5 0-9.714-6.409-17.771-15-20zm0 11v1c2.857 1.663 4.799 4.813 4.967 8.494.007-.166.033-.326.033-.494 0-3.9-2.011-7.26-5-9zm10.98 9.5c-.207 7.137-4.797 13.434-10.98 15.5v1c6.327-2.114 11-8.657 11-16 0-.168-.015-.333-.02-.5z" fill="#fff" opacity=".2"/></svg>