<svg height="48" width="48" xmlns="http://www.w3.org/2000/svg"><path d="m4 14v20h9.0912l10.909 10v-40l-10.909 10z" fill="#e4e4e4"/><path d="m4 34v1h9.0918l10.908 10v-1l-10.908-10z" opacity=".2"/><path d="m24 4-10.908 10h-9.092v1h9.092l10.908-10z" fill="#fff" opacity=".2"/><circle cx="28" cy="36" fill="#db3c30" r="10"/><path d="m37.979 36.414a10 10 0 0 1 -9.979 9.586 10 10 0 0 1 -9.979-9.414 10 10 0 0 0 -.021.414 10 10 0 0 0 10 10 10 10 0 0 0 10-10 10 10 0 0 0 -.021-.586z" opacity=".2"/><g fill="#fff" transform="matrix(.70711 -.70711 .70711 .70711 -21.497 34.846)"><path d="m28 35h12v2h-12z"/><path d="m-42 33h12v2h-12z" transform="rotate(-90)"/></g></svg>