<svg viewBox="0 0 32 32" xmlns="http://www.w3.org/2000/svg" xmlns:xlink="http://www.w3.org/1999/xlink"><linearGradient id="a" gradientUnits="userSpaceOnUse" x1="27.558" x2="22.09" xlink:href="#c" y1="-133.46" y2="-134.43"/><linearGradient id="b" gradientUnits="userSpaceOnUse" x1="15.879" x2="30.32" xlink:href="#c" y1="-141.91" y2="-129.74"/><linearGradient id="c"><stop offset="0" stop-color="#55c03f"/><stop offset="1" stop-color="#198b26"/></linearGradient><linearGradient id="d"><stop offset="0" stop-color="#f9f9f9"/><stop offset="1" stop-color="#999"/></linearGradient><linearGradient id="e" gradientUnits="userSpaceOnUse" x1="17.658" x2="15.02" xlink:href="#d" y1="-133.51" y2="-125.58"/><radialGradient id="f" cx="-176.59" cy="-120.91" gradientTransform="matrix(2.21087 .05719 -.05496 2.12455 412.97 145.84)" gradientUnits="userSpaceOnUse" r="3.01" xlink:href="#d"/><rect fill="#816130" fill-rule="evenodd" height="28.2" rx="5.575" width="28.2" x="1.898" y="1.898"/><g fill="#fff" transform="translate(0 -.333)"><path d="m12 10c1.657 0 3 1.343 3 3s-1.343 3-3 3-3-1.343-3-3 1.343-3 3-3"/><path d="m12 17.667c6-.003 6 4 6 4v .999h-12v-.999s0-3.997 6-4"/><path d="m22 10c1.105 0 2 .895 2 2s-.895 2-2 2-2-.895-2-2c0-1.104.895-2 2-2"/><path d="m22 15c4-.002 4 3.201 4 3.201v.799h-8v-.799s0-3.198 4-3.201"/></g><g transform="translate(-.916 143.06)"><path d="m15.583-142.61c-5.577-1.531-5.951 3.24-4.58 5.493 4.381 6.983 6.796 6.577 9.398 7.895 1.712 2.064 3.451 3.4 6.469 4.1 11.69 1.559 3.242-8.417.92-8.649-5.065.012-7.547-6.123-12.206-8.838" fill="url(#e)"/><path d="m15.583-142.61c3.76.276 5.616-.626 8.93-.421 4.319.283 8.307 2.053 7.838 6.574-.347 2.567-.37 2.25.186 4.296.532 1.535-.252 4.232-.487 4.654-2.715 4.963-1.536 4.965-2.656 7.742l-.906-.418-2.508-11.358c-7.177-.909-10.754-10.11-10.398-11.07" fill="url(#b)"/><path d="m22.374-132.67c.362.274 1.553-5.105 1.172-5.653 1.379 2.44 1.919 4.616 2.435 6.783-1.276-.283-2.289-.554-3.607-1.13" fill="url(#a)"/><circle cx="29.06" cy="-119.45" fill="url(#f)" r="3.01"/></g></svg>