<svg viewBox="0 0 32 32" xmlns="http://www.w3.org/2000/svg" xmlns:xlink="http://www.w3.org/1999/xlink"><linearGradient id="a" gradientTransform="matrix(2.54182 0 0 2.58531 -153.47 -277.37)" gradientUnits="userSpaceOnUse" x1="67.894" x2="67.854" y1="108.69" y2="113.11"><stop offset="0" stop-color="#f9f9f9"/><stop offset="1" stop-color="#999"/></linearGradient><rect fill="#6993c4" fill-rule="evenodd" height="28.2" rx="5.575" width="28.2" x="1.898" y="1.898"/><g fill="#ffdd73" transform="translate(.502 .415)"><g transform="translate(-.504 -2.999)"><path d="m10.939 9a .58872.58872 0 0 0 -.496.2324c-.673.8676-1.373 2.0276-2.045 3.0686l-.796-1.367a.589077.589077 0 1 0 -1.0176.59375l1.272 2.18a.58872.58872 0 0 0  .99609.0332c.828-1.228 1.764-2.815 2.52-3.783a.58872.58872 0 0 0 -.432-.9578" fill-rule="evenodd"/><rect height="2" rx="1" width="13" x="12.5" y="11"/></g><rect height="2" rx="1" width="13" x="11.996" y="15"/><circle cx="7.996" cy="16" r="1"/><rect height="2" rx="1" width="13" x="11.996" y="21"/><circle cx="7.996" cy="22" r="1"/></g>

   xmlns:dc="http://purl.org/dc/elements/1.1/"
   xmlns:cc="http://creativecommons.org/ns#"
   xmlns:rdf="http://www.w3.org/1999/02/22-rdf-syntax-ns#"
   xmlns:svg="http://www.w3.org/2000/svg"
   xmlns="http://www.w3.org/2000/svg"
   xmlns:xlink="http://www.w3.org/1999/xlink"
   xmlns:sodipodi="http://sodipodi.sourceforge.net/DTD/sodipodi-0.dtd"
   xmlns:inkscape="http://www.inkscape.org/namespaces/inkscape"
   height="32"
   width="32"
   version="1"
   id="svg8"
   sodipodi:docname="snow-top-2.svg"
   inkscape:version="0.92.1 r"&gt;
  <path d="m24.646 6.111c2.995 2.684 1.381 7.817 3.674 8.291 2.031.613 3.541-1.385 3.66-4.503.35-8.627-3.911-9.427-6.879-9.524-28.342-2.047-1.762 4.92-.455 5.736" fill="url(#a)"/></svg>