<svg height="32" width="32" xmlns="http://www.w3.org/2000/svg" xmlns:xlink="http://www.w3.org/1999/xlink"><linearGradient id="a" gradientTransform="matrix(2.62891 0 0 2.71269 -160.16236 -291.42002)" gradientUnits="userSpaceOnUse" x1="67.893997" x2="67.853996" y1="108.69" y2="113.11"><stop offset="0" stop-color="#f9f9f9"/><stop offset="1" stop-color="#999"/></linearGradient><rect fill="#4c7590" fill-rule="evenodd" height="28.203388" ry="5.575182" width="28.203388" x="1.898306" y="1.898306"/><g transform="matrix(.09038399 0 0 .09038399 46.587564 17.596753)"><path d="m-450.50391 76.279297 1.12696 11.496094 6.32226 8.15039c17.25258 2.37 14.56055-5.817972 12.02539-13.923828 4.13341-31.734011 113.42903-124.149946 162.03125-174.056641l-16.36523-16.367192z" fill="#5f4d37" stroke="#5f4d37"/><path d="m-450.50391 76.279297 165.14063-184.701177-11.48242-11.48242-90.50977 90.509769c4.85734 9.087363 2.428 19.5756884-8.22851 31.6464841l-55.95313 63.4785159z" fill="#806749" stroke="#806749"/></g><path d="m21.194971 8.0029601c-.485127-.5068608-.92852-.9839637-1.380299-1.369706.196635.2085455.397187.4237028.60974.6411616.22752.2327725.467126.466708.725189.6932381.01402.012306.03124.023045.04537.035306z"/><path d="m24.824099 15.529193-.932614-.914256c-.0541.05996-.103476.127416-.159054.184829-.181521.187508-.370508.361571-.563665.523062-.193158.16149-.390454.310315-.589085.447506-.19863.137192-.398558.262635-.596499.377247-.197941.114613-.393937.218532-.585025.312284-.382174.187505-.744584.33489-1.062364.449272-.03514.01265-.0539.01587-.08791.02772.02309.400958-.01788.806308-.14758 1.222478.21136-.0484 2.90252-.618333 4.723799-2.630138z" fill="#c6c5ca" stroke="#c6c5ca" stroke-width=".090384"/><path d="m25.523869 10.571843c-.005.09772.0027.204938-.0058.299926-.03089.34339-.08448.669032-.157819.977807-.07334.308774-.166466.600598-.276094.876477-.109631.275879-.235901.535742-.37566.780445-.139756.244702-.292965.474285-.456685.689531-.113591.14934-.2377.283037-.360301.418908l.932615.914256c1.009831-1.115471 1.756005-2.66826 1.654804-4.835367-.339567-.02102-.652872-.06644-.955034-.121983z" fill="#e0e0e2" stroke="#e0e0e2" stroke-width=".090384"/><path d="m15.410218 10.406962-.000904.000886c.464926.435281.8551.822901 1.274555 1.227245-.0053-.0055-.0095-.0106-.01483-.01606-.373602-.381757-.831527-.805391-1.258845-1.212064z"/><path d="m23.87595 14.632943c.128234-.141127.257355-.281147.375835-.436914.163721-.215246.31693-.444829.456686-.689531.139758-.244703.266029-.504566.375659-.780445.109628-.275879.202756-.567703.276094-.876477.07334-.308775.126935-.634417.15782-.977807.0085-.09499.000813-.202206.0058-.299926-2.072716-.381008-3.311389-1.5057851-4.328899-2.5688829-.01413-.012261-.03135-.023-.04537-.035306-.258042-.2265304-.497648-.4604659-.725168-.6932384-.212552-.2174588-.413104-.432616-.609739-.6411616-.114073-.0973987-.226435-.2046592-.343706-.287216l-2.003276 2.0034527z" fill="#ff5023" stroke="#ff5023" stroke-width=".090384"/><path d="m23.87595 14.632943-6.40826-6.2834522-2.057472 2.0574712c.427317.406673.885242.830307 1.258845 1.212064.0053.0055.0095.0106.01483.01606 2.00647 1.934183 3.465265 3.587505 3.563989 5.301763.03401-.01185.05278-.01507.08791-.02772.31778-.114382.680191-.261767 1.062364-.449272.191088-.09375.387084-.197671.585025-.312284.197941-.114612.397869-.240055.596499-.377247.198631-.137191.395927-.286016.589085-.447506.193157-.161491.382144-.335554.563665-.523062.05016-.05181.09455-.112935.143519-.166823z" fill="#cd2a00" stroke="#cd2a00" stroke-width=".090384"/><path d="m7.2856396.0089794c-8.27599962-.356-9.3599996 9.9919996-4.0199996 9.973.679.003 1.6039996-.207 2.9699996-1.543 7.2559994-10.531 14.7059994 3.5729996 17.5299994.919 1.71-1.912 3.496-.418 4.448.115 2.1.6429996 3.662.041 3.785-3.231.188-3.321-1.889-6.344-5.923-6.223-5.914.14-12.989-.047-18.7869994-.01" fill="url(#a)"/></svg>