<svg viewBox="0 0 32 32" xmlns="http://www.w3.org/2000/svg" xmlns:xlink="http://www.w3.org/1999/xlink"><linearGradient id="a" gradientTransform="matrix(2.62891 0 0 2.71269 -160.16 -291.42)" gradientUnits="userSpaceOnUse" x1="67.894" x2="67.854" y1="108.69" y2="113.11"><stop offset="0" stop-color="#f9f9f9"/><stop offset="1" stop-color="#999"/></linearGradient><rect fill="#41a5c7" fill-rule="evenodd" height="28.2" rx="5.575" width="28.2" x="1.898" y="1.898"/><g fill="#fff" transform="matrix(.85033 0 0 .85033 2.672 2.125)"><path d="m16 11a5 5 0 0 0 -5 5 5 5 0 0 0 5 5 5 5 0 0 0 5-5 5 5 0 0 0 -5-5m0 2a3 3 0 0 1 3 3 3 3 0 0 1 -3 3 3 3 0 0 1 -3-3 3 3 0 0 1 3-3"/><path d="m4 15c-.554 0-1 .446-1 1-.071 2.637.094 5.422 0 8 0 2.761 2.239 5 5 5s5-2.239 5-5-2.239-5-5-5c-1.083.002-2.136.356-3 1.01v-4.01c0-.554-.446-1-1-1m4 6c1.657 0 3 1.343 3 3s-1.343 3-3 3-3-1.343-3-3 1.343-3 3-3"/><path d="m21 3.635c-.256 0-.511.097-.707.293-.392.392-.392 1.022 0 1.414l2.475 2.475-2.475 2.475c-.392.392-.392 1.024 0 1.416s1.024.392 1.416 0l2.475-2.475 2.475 2.475c.392.392 1.022.392 1.414 0s .392-1.024 0-1.416l-2.475-2.475 2.475-2.475c.392-.392.392-1.022 0-1.414s-1.022-.392-1.414 0l-2.474 2.475-2.475-2.475c-.196-.196-.453-.293-.709-.293"/></g>

   xmlns:dc="http://purl.org/dc/elements/1.1/"
   xmlns:cc="http://creativecommons.org/ns#"
   xmlns:rdf="http://www.w3.org/1999/02/22-rdf-syntax-ns#"
   xmlns:svg="http://www.w3.org/2000/svg"
   xmlns="http://www.w3.org/2000/svg"
   xmlns:xlink="http://www.w3.org/1999/xlink"
   xmlns:sodipodi="http://sodipodi.sourceforge.net/DTD/sodipodi-0.dtd"
   xmlns:inkscape="http://www.inkscape.org/namespaces/inkscape"
   version="1"
   width="32"
   height="32"
   id="svg12"
   sodipodi:docname="snow-top-1.svg"
   inkscape:version="0.92.1 r"&gt;
  <path d="m7.288.009c-8.276-.356-9.36 9.992-4.02 9.973.679.003 1.604-.207 2.97-1.543 7.256-10.531 14.706 3.573 17.53.919 1.71-1.912 3.496-.418 4.448.115 2.1.643 3.662.041 3.785-3.231.188-3.321-1.889-6.344-5.923-6.223-5.914.14-12.989-.047-18.787-.01" fill="url(#a)"/><path d="m0 0h32v32h-32z" fill="none"/></svg>