<svg viewBox="0 0 32 32" xmlns="http://www.w3.org/2000/svg" xmlns:xlink="http://www.w3.org/1999/xlink"><linearGradient id="a" gradientTransform="matrix(-2.54182 0 0 2.58531 185.47 -277.37)" gradientUnits="userSpaceOnUse" x1="67.894" x2="67.854" y1="108.69" y2="113.11"><stop offset="0" stop-color="#f9f9f9"/><stop offset="1" stop-color="#999"/></linearGradient><path d="m7.678 1.695c-3.089 0-5.576 2.486-5.576 5.574v17.05c0 1.181.446 2.215 1.068 3.115.394-1.139.688-2.462.688-4.314 0-1.935-.295-4.404-1.055-7.713.838.431 1.599.97 2.283 1.594s1.289 1.334 1.811 2.107.961 1.61 1.313 2.49c.351.88.615 1.803.787 2.748 0 0 .382-.187.637-.912.127-.363.223-.859.223-1.535s-.096-1.53-.352-2.607c.629 1.396 1.69 2.716 2.629 3.723.939 1.01 1.754 1.7 1.895 1.844.215-.665.57-1.173.953-1.6.383-.426.794-.771 1.127-1.105.333-.335.587-.662.652-1.053s-.057-.847-.477-1.441c1.347.309 2.369.736 3.15 1.205s1.321.982 1.703 1.467c.763.969.893 1.825 1.055 1.986.376-1.985.695-2.524.789-3.07.094-.547-.038-1.101-.563-3.117 1.07 1.952 1.798 2.911 2.254 3.17.228.129.388.084.488-.102s.143-.511.133-.939c-.02-.857-.243-2.129-.6-3.525s-.849-2.919-1.404-4.277c1.528 1.304 2.726 2.342 3.637 3.236.911.895 1.535 1.646 1.918 2.381s.523 1.452.467 2.277c-.057.825-.312 1.757-.719 2.922 1.016-1.216 1.238-1.52 1.713-2.174v-13.832c0-3.089-2.486-5.574-5.574-5.574h-17.05" fill="#e63200" fill-rule="evenodd"/><text x="-171.05" y="-91.11"><tspan x="-171.05" y="-55.718"/></text><text style="font-family:sans-serif;fill:#fff;stroke:#fff;word-spacing:0;stroke-linecap:round;stroke-width:.4;letter-spacing:0;font-size:11.686" transform="matrix(1.0011 0 0 .99895 38.17 1.928)" x="19.676" y="25.978"><tspan fill="#fff" stroke="#fff" stroke-width=".4" x="19.676" y="25.978">B</tspan></text><g stroke-width=".748"><path d="m16 10.38862a5.61138 5.61138 0 0 0 -5.61138 5.61138 5.61138 5.61138 0 0 0 5.61138 5.61138 5.61138 5.61138 0 0 0 5.61138-5.61138 5.61138 5.61138 0 0 0 -5.61138-5.61138m0 3.367c1.24 0 2.245 1 2.245 2.245 0 1.24-1 2.245-2.245 2.245-1.24 0-2.245-1-2.245-2.245 0-1.24 1-2.245 2.245-2.245z" fill="#858585"/><path d="m16 5.525c-5.803 0-10.475 4.672-10.475 10.475s4.672 10.475 10.475 10.475 10.475-4.672 10.475-10.475-4.672-10.475-10.475-10.475m0 5.985472a4.489104 4.489104 0 0 1 4.489104 4.489104 4.489104 4.489104 0 0 1 -4.489104 4.489104 4.489104 4.489104 0 0 1 -4.489104-4.489104 4.489104 4.489104 0 0 1 4.489104-4.489104" fill="#e6e6e6"/></g><path d="m16 12.965c-1.676 0-3.035 1.359-3.035 3.035s1.359 3.035 3.035 3.035 3.035-1.359 3.035-3.035-1.359-3.035-3.035-3.035" fill="#fff" stroke-width=".405"/><path d="m30.3 21.1c-.475.654-.697.958-1.713 2.174.407-1.165.662-2.097.719-2.922s-.084-1.542-.467-2.277-1.01-1.486-1.918-2.381c-.911-.895-2.108-1.932-3.637-3.236.556 1.359 1.047 2.881 1.404 4.277s.58 2.668.6 3.525c.01.429-.032.754-.133.939-.1.186-.26.231-.488.102-.456-.259-1.184-1.218-2.254-3.17.525 2.02.656 2.571.563 3.117-.094.547-.413 1.085-.789 3.07-.161-.161-.291-1.017-1.055-1.986-.382-.485-.922-.997-1.703-1.467-.781-.469-1.803-.896-3.15-1.205.42.595.542 1.05.477 1.441s-.319.718-.652 1.053-.744.679-1.127 1.105-.738.934-.953 1.6c-.141-.144-.956-.837-1.895-1.844-.939-1.01-2-2.327-2.629-3.723.255 1.077.351 1.932.352 2.607 0 .676-.095 1.172-.223 1.535-.254.725-.637.912-.637.912-.173-.945-.436-1.868-.787-2.748s-.791-1.717-1.313-2.49-1.127-1.484-1.811-2.107c-.684-.624-1.446-1.162-2.283-1.594.759 3.309 1.055 5.778 1.055 7.713 0 1.853-.293 3.175-.688 4.314 1 1.452 2.601 2.461 4.508 2.461h17.05c3.089 0 5.574-2.488 5.574-5.576v-3.221" fill="#ffb700" fill-rule="evenodd"/>

   xmlns:dc="http://purl.org/dc/elements/1.1/"
   xmlns:cc="http://creativecommons.org/ns#"
   xmlns:rdf="http://www.w3.org/1999/02/22-rdf-syntax-ns#"
   xmlns:svg="http://www.w3.org/2000/svg"
   xmlns="http://www.w3.org/2000/svg"
   xmlns:xlink="http://www.w3.org/1999/xlink"
   xmlns:sodipodi="http://sodipodi.sourceforge.net/DTD/sodipodi-0.dtd"
   xmlns:inkscape="http://www.inkscape.org/namespaces/inkscape"
   height="32"
   width="32"
   version="1"
   id="svg8"
   sodipodi:docname="snow-top-3.svg"
   inkscape:version="0.92.1 r"&gt;
  <path id="b" d="m0 0h32v32h-32z" fill="none"/><path d="m7.354 6.111c-2.995 2.684-1.381 7.817-3.674 8.291-2.031.613-3.541-1.385-3.66-4.503-.35-8.627 3.911-9.427 6.879-9.524 28.342-2.047 1.762 4.92.455 5.736" fill="url(#a)"/><use xlink:href="#b"/></svg>