<svg viewBox="0 0 32 32" xmlns="http://www.w3.org/2000/svg" xmlns:xlink="http://www.w3.org/1999/xlink"><linearGradient id="a" gradientTransform="matrix(-2.54182 0 0 2.58531 185.47 -277.37)" gradientUnits="userSpaceOnUse" x1="67.894" x2="67.854" y1="108.69" y2="113.11"><stop offset="0" stop-color="#f9f9f9"/><stop offset="1" stop-color="#999"/></linearGradient><rect fill="#4f4f4f" fill-rule="evenodd" height="28.2" rx="5.575" width="28.2" x="1.898" y="1.898"/><g transform="translate(39.608 -.895)"><path d="m-23.608 8.76h5.695s-3.651.778-4.068 2.131c-.314 1.02 1.845 1.86 1.627 2.905-.262 1.253-2.994 1.264-3.254 2.518-.246 1.187 2.645 2.098 2.441 3.293-.215 1.259-3.231 1.434-3.254 2.712-.022 1.233 3.254 2.712 3.254 2.712h-8.135z" fill="#ccc"/><path d="m-33.371 7.133v2.441h2.441v-2.441m14.643 0v2.441h2.441v-2.441m-19.524 5.695v2.441h2.441v-2.441zm17.08 0v2.441h2.441v-2.441zm-17.08 5.695v2.441h2.441v-2.441zm17.08 0v2.441h2.441v-2.441zm-17.08 5.695v2.441h2.441v-2.441zm17.08 0v2.441h2.441v-2.441z" fill="#989898"/></g>

   xmlns:dc="http://purl.org/dc/elements/1.1/"
   xmlns:cc="http://creativecommons.org/ns#"
   xmlns:rdf="http://www.w3.org/1999/02/22-rdf-syntax-ns#"
   xmlns:svg="http://www.w3.org/2000/svg"
   xmlns="http://www.w3.org/2000/svg"
   xmlns:xlink="http://www.w3.org/1999/xlink"
   xmlns:sodipodi="http://sodipodi.sourceforge.net/DTD/sodipodi-0.dtd"
   xmlns:inkscape="http://www.inkscape.org/namespaces/inkscape"
   height="32"
   width="32"
   version="1"
   id="svg8"
   sodipodi:docname="snow-top-3.svg"
   inkscape:version="0.92.1 r"&gt;
  <path id="b" d="m0 0h32v32h-32z" fill="none"/><path d="m7.354 6.111c-2.995 2.684-1.381 7.817-3.674 8.291-2.031.613-3.541-1.385-3.66-4.503-.35-8.627 3.911-9.427 6.879-9.524 28.342-2.047 1.762 4.92.455 5.736" fill="url(#a)"/><use xlink:href="#b"/></svg>