<svg height="16" width="16" xmlns="http://www.w3.org/2000/svg"><rect fill="#4f4f4f" height="16" rx=".857" transform="matrix(0 -1 -1 0 0 0)" width="16" x="-16" y="-16"/><path d="m3 3c-.554 0-1 .3717-1 .8333v8.3337c0 .461.446.833 1 .833s1-.372 1-.833v-8.3337c0-.4616-.446-.8333-1-.8333z" opacity=".3"/><path d="m3 6.1667c-.554 0-1 .3717-1 .8333v5.167c0 .461.446.833 1 .833s1-.372 1-.833v-5.167c0-.4616-.446-.8333-1-.8333z" fill="#00ab43"/><path d="m5 6a2 2 0 0 1 -2 2 2 2 0 0 1 -2-2 2 2 0 0 1 2-2 2 2 0 0 1 2 2z" fill="#828282"/><path d="m8 3c-.554 0-1 .3717-1 .8333v8.3337c0 .461.446.833 1 .833s1-.372 1-.833v-8.3337c0-.4616-.446-.8333-1-.8333z" opacity=".3"/><path d="m8 10.167c-.554 0-1 .371-1 .833v1.167c0 .461.446.833 1 .833s1-.372 1-.833v-1.167c0-.462-.446-.833-1-.833z" fill="#00ab43"/><path d="m10 10a2 2 0 0 1 -2 2 2 2 0 0 1 -2-2 2 2 0 0 1 2-2 2 2 0 0 1 2 2z" fill="#828282"/><path d="m13 3c-.554 0-1 .37167-1 .83333v8.3333c0 .461.446.833 1 .833s1-.37167 1-.83333v-8.3337c0-.4616-.446-.8333-1-.8333z" opacity=".3"/><path d="m13 8.1674c-.554 0-1 .3717-1 .8333v3.1663c0 .461.446.833 1 .833s1-.372 1-.834v-3.166c0-.4616-.446-.8333-1-.8333z" fill="#00ab43"/><path d="m15 8a2 2 0 0 1 -2 2 2 2 0 0 1 -2-2 2 2 0 0 1 2-2 2 2 0 0 1 2 2z" fill="#828282"/></svg>