<svg viewBox="0 0 32 32" xmlns="http://www.w3.org/2000/svg" xmlns:xlink="http://www.w3.org/1999/xlink"><linearGradient id="a" gradientTransform="matrix(-2.54182 0 0 2.58531 185.47 -277.37)" gradientUnits="userSpaceOnUse" x1="67.894" x2="67.854" y1="108.69" y2="113.11"><stop offset="0" stop-color="#f9f9f9"/><stop offset="1" stop-color="#999"/></linearGradient><g fill-rule="evenodd"><path d="m10.848 30.1h13.68c3.089 0 5.574-2.486 5.574-5.574v-17.05c0-3.089-2.486-5.576-5.574-5.576h-13.68" fill="#961a1a"/><path d="m10.848 30.1v-28.2h-3.375c-3.089 0-5.574 2.488-5.574 5.576v17.05c0 3.089 2.486 5.574 5.574 5.574z" fill="#781515"/></g><g fill="#fff" stroke-linecap="round" stroke-linejoin="round" transform="translate(-32.681 -.34)"><path d="m50.723 6.681h4v20h-4z" stroke-width=".707"/><path d="m11.681-59.723h4v14h-4z" stroke-width=".592" transform="rotate(90)"/></g>

   xmlns:dc="http://purl.org/dc/elements/1.1/"
   xmlns:cc="http://creativecommons.org/ns#"
   xmlns:rdf="http://www.w3.org/1999/02/22-rdf-syntax-ns#"
   xmlns:svg="http://www.w3.org/2000/svg"
   xmlns="http://www.w3.org/2000/svg"
   xmlns:xlink="http://www.w3.org/1999/xlink"
   xmlns:sodipodi="http://sodipodi.sourceforge.net/DTD/sodipodi-0.dtd"
   xmlns:inkscape="http://www.inkscape.org/namespaces/inkscape"
   height="32"
   width="32"
   version="1"
   id="svg8"
   sodipodi:docname="snow-top-3.svg"
   inkscape:version="0.92.1 r"&gt;
  <path id="b" d="m0 0h32v32h-32z" fill="none"/><path d="m7.354 6.111c-2.995 2.684-1.381 7.817-3.674 8.291-2.031.613-3.541-1.385-3.66-4.503-.35-8.627 3.911-9.427 6.879-9.524 28.342-2.047 1.762 4.92.455 5.736" fill="url(#a)"/><use xlink:href="#b"/></svg>