<svg height="24" width="24" xmlns="http://www.w3.org/2000/svg"><path d="m6 5.5c-.554 0-1 .446-1 1v11c0 .554.446 1 1 1h1.5v-2h5v2h9.5c.554 0 1-.446 1-1v-11c0-.554-.446-1-1-1z" opacity=".2"/><path d="m6 5c-.554 0-1 .446-1 1v11c0 .554.446 1 1 1h1.5v-2h5v2h9.5c.554 0 1-.446 1-1v-11c0-.554-.446-1-1-1z" fill="#419d45"/><path d="m6 4.9849c-.554 0-1 .446-1 1v .5c0-.554.446-1 1-1h16c .554 0 1 .446 1 1v-.5c0-.554-.446-1-1-1z" fill="#fff" opacity=".2"/><g opacity=".2"><path d="m13 16.5h2v3h-2z"/><path d="m15.5 16.5h2v3h-2z"/><path d="m18 16.5h2v3h-2z"/><path d="m20.5 16.5h2v3h-2z"/></g><g fill="#f8c44e"><path d="m13 16h2v3h-2z"/><path d="m15.5 16h2v3h-2z"/><path d="m18 16h2v3h-2z"/><path d="m20.5 16h2v3h-2z"/></g><rect fill="#4e4e4e" height="5" rx="1" width="5" x="11" y="8"/><g fill="#b7b7b7"><path d="m12 7h1v1.5h-1z"/><path d="m14 7h1v1.5h-1z"/><path d="m12 12.5h1v1.5h-1z"/><path d="m14 12.5h1v1.5h-1z"/><g transform="rotate(90)"><path d="m9-17h1v1.5h-1z"/><path d="m11-17h1v1.5h-1z"/><path d="m9-11.5h1v1.5h-1z"/><path d="m11-11.5h1v1.5h-1z"/></g></g><path d="m3 5h2v15.5" style="fill:none;stroke:#000;stroke-width:2;stroke-linecap:round;stroke-linejoin:round;opacity:.2"/><path d="m3 4h2v16" fill="none" stroke="#b7b7b7" stroke-linecap="round" stroke-linejoin="round" stroke-width="2"/><path d="m3 3a1.0001 1.0001 0 0 0 -.9805 1.2461 1.0001 1.0001 0 0 1  .9805-.7461h2a1.0001 1.0001 0 0 1 1 1v-.5a1.0001 1.0001 0 0 0 -1-1z" fill="#fff" opacity=".2"/></svg>