<svg height="32" width="32" xmlns="http://www.w3.org/2000/svg"><path d="m27.90368 6.7271311c1.168734-.000739 2.109629.940894 2.109629 2.109629v17.6105189c0 1.168735-.940895 2.109629-2.109629 2.109629h-23.807359c-1.168735 0-2.109682-.940894-2.10963-2.109629l.000732-16.244506.000731-5.066908c0-.9377962.754977-1.6927731 1.692773-1.6927731h9.09082c.937797 0 1.704839.3713213 2.299888 1.0961521l1.801865 2.19486z" fill="#f5ce46"/><path d="m18.646 13.627126c-.15.001-.287.052-.417.15-.33.252-1.017.848993-2.229.849993s-1.899-.597993-2.229-.849993c-.13-.098-.254-.147-.406-.146-.151.001-.326.045-.504.146-.648.365-1.244 1.562-1.568 3.112-.276 1.316-.378 3.115-.213 3.84.144.622.391.898.832.898 1.413013-.000007 1.475-1.091007 1.996-2.138007.377-.58 1.25-.844 2.092-.814.842-.032 1.715.234 2.092.814.521 1.047.582987 2.138 1.996 2.138007.441 0 .688-.276.832-.898.165-.725.063-2.524-.213-3.84-.324-1.55-.92-2.747-1.568-3.112-.178-.101-.342-.151-.493-.15zm-5.646 1h1v1h1v1h-1v1h-1v-1h-1v-1h1zm5 0h1v1h-1zm1 2h1v1h-1z" fill-opacity=".65098"/></svg>