<svg height="32" width="32" xmlns="http://www.w3.org/2000/svg"><g transform="translate(35.661042 -.135593)"><path d="m-7.7573385 6.8627232c1.168734-.000738 2.109629.940894 2.109629 2.10963v17.6105198c0 1.168735-.940895 2.109629-2.109629 2.109629h-23.8073595c-1.168734 0-2.109681-.940894-2.109629-2.109629l.000731-16.244507.000732-5.0669078c0-.937797.754977-1.692774 1.692773-1.692774h9.09082c.937797 0 1.704839.371322 2.299888 1.096152l1.801865 2.19486z" fill="#5ca543"/><path d="m-33.284065 9.4207492c-.152241 0-.25027.1186872-.388672.1601563v.7578125 2.177734l27.1406245 15.669922c.508217-.384514.884766-.914269.884766-1.603515v-1.519532l-27.0957035-15.6425778zm6.833984 0 20.8027345 12.0097658v-3.632813l-14.5117185-8.3769528zm12.582032 0 8.2207025 4.7441408v-3.632813l-1.927734-1.1113278zm-19.804688 6.7285158-.002 3.632812 15.431641 8.910157h6.292969zm-.002 7.263672v3.169922c-.000011.238629.179577.395811.251953.609375l2.595703 1.5h6.292969z" fill="#203a17"/></g></svg>