<svg height="32" width="32" xmlns="http://www.w3.org/2000/svg"><path d="m27.90368 6.7271308c1.168734-.000739 2.109629.940895 2.109629 2.10963v17.6105182c0 1.168735-.940895 2.109629-2.109629 2.109629h-23.8073589c-1.168735 0-2.109682-.940894-2.10963-2.109629l.000732-16.244506.000731-5.0669082c0-.937796.754977-1.692773 1.692773-1.692773h9.0908199c.937797 0 1.704839.371321 2.299888 1.096152l1.801865 2.19486z" fill="#5ca543"/><path d="m15.319016 13.008665c-2.666744 0-2.046342 2.236356-3.411717 2.970171-.04703.0267-.0735.05129-.115729.07764.900438-.535957 2.010289-.984077 3.189059-1.287633.998202-.256791 2.010686-.400855 2.944417-.418957.024-.000086.04793-.000086.07178 0-.90046-.255882-.998923-1.34122-2.677807-1.34122zm2.906331 2.016532c-.933732.01811-1.946215.162165-2.944417.418956-3.289952.846595-5.6346444 2.687587-5.236968 4.111932.229154.813925 1.333214 1.550863 2.978115 1.648609-.00075-.0061-.0023-.01142-.003-.01758-.08879-.770089.399821-1.439995.972679-1.894096.572866-.454103 1.309739-.783837 2.137267-.959501.827528-.175663 1.60236-.167172 2.250063.02783.608935.183333 1.181846.58337 1.32279 1.270055 1.648605-.924276 2.503697-2.238522 2.255927-3.139863-.262477-.943671-1.693967-1.506041-3.732523-1.466346zm-.978545 3.948478c-.331184-.0039-.682358.03245-1.032741.106937-1.447255.307132-2.548543 1.18016-2.459544 1.949762.0892.769495 1.334729 1.144008 2.781812.836448 1.446871-.30748 2.547374-1.180404 2.458082-1.949761-.06481-.559648-.7531-.931199-1.747609-.943386z" fill-opacity=".65098"/></svg>