<svg height="32" width="32" xmlns="http://www.w3.org/2000/svg"><path d="m27.90368 6.727131c1.168734-.000739 2.109629.9408943 2.109629 2.1096293v17.6105187c0 1.168735-.940895 2.109629-2.109629 2.109629h-23.807359c-1.168735 0-2.109682-.940894-2.10963-2.109629l.000732-16.244506.000731-5.0669081c0-.9377959.754977-1.6927729 1.692773-1.6927729h9.09082c.937797 0 1.704839.371321 2.299888 1.0961519l1.801865 2.19486z" fill="#856b35"/><path d="m17.989732 12.084405c-.496.018-1.097.29-1.453.656-.319.325-.6.842-.525 1.34.553.038 1.12-.247 1.465-.613.344-.367.577-.875.513-1.383zm-.328 2.006c-.657.052-1.258.484-1.598.484-.387 0-.984-.469-1.619-.457-.834.014-1.604.519-2.033 1.321-.866 1.613-.223 4.002.621 5.31.413.64.907 1.362 1.553 1.336.622-.027.857-.434 1.609-.434s.963.434 1.621.42c.67-.013 1.093-.652 1.502-1.295.474-.742.67-1.463.682-1.5-.015-.007-1.305-.536-1.318-2.13-.013-1.335 1.016-1.977 1.062-2.008-.577-.906-1.476-1.031-1.797-1.045-.095-.011-.191-.01-.285-.002z" fill="#2e2512"/></svg>