<svg height="32" width="32" xmlns="http://www.w3.org/2000/svg"><g transform="translate(45.830508 -.949153)"><path d="m-17.926828 7.6762825c1.168734-.000738 2.109629.940894 2.109629 2.10963v17.6105195c0 1.168735-.940895 2.109629-2.109629 2.109629h-23.80736c-1.168735 0-2.109682-.940894-2.109629-2.109629l.000731-16.244507.000731-5.0669075c0-.937797.754977-1.692774 1.692773-1.692774h9.090821c.937797 0 1.704839.371322 2.299888 1.096152l1.801865 2.19486z" fill="#bf4b4b"/><path d="m-15.817199 16.271188v11.125245c0 1.168735-.940895 2.109629-2.109629 2.109629h-23.80736c-1.168735 0-2.109682-.940894-2.109629-2.109629l.000501-11.125244c10.665105 0 20.259927-.000001 28.026117-.000001z" fill="#e25252"/></g></svg>