<svg height="32" width="32" xmlns="http://www.w3.org/2000/svg"><path d="m27.90368 6.7271308c1.168734-.0007388 2.109629.940894 2.109629 2.1096296v17.6105186c0 1.168735-.940895 2.109629-2.109629 2.109629h-23.8073588c-1.168735 0-2.109682-.940894-2.10963-2.109629l.000732-16.244506.000731-5.0669077c0-.9377965.754977-1.6927734 1.692773-1.6927734h9.0908198c.937797 0 1.704839.3713213 2.299888 1.0961521l1.801865 2.1948598z" fill="#e25252"/><path d="m19.952642 10.991525c-2.539 0-3.0153 3.8584-1.5868 3.8584 1.428 0 4.1261-3.8584 1.5868-3.8584zm-3.9109.5936c-.04-.000148-.08347.0037-.12849.0084-1.4396.1816-.9332 2.617-.167 2.6624.741.0442 1.553-2.6664.294-2.6706zm-2.4951.899c-.0881-.0056-.1855.0111-.294.0555-1.1565.475-.1755 2.4355.472 2.3037.5876-.1194.6718-2.3041-.178-2.3593zm-1.8877 1.6028c-.1005-.0028-.209.0319-.325.1183-.92572.69095.31147 2.3602.85617 2.1014.47646-.2267.17248-2.1941-.53135-2.2196zm5.4678 1.5936c-2.006-.0345-4.6524.983-5.1038 3.029-.4885 2.212 2.0123 5.282 4.6208 5.282 1.2833 0 2.7636-1.173 3.0407-2.6584.21148-1.1326-2.4891-.6787-2.3922.07066.11649.8984-.65134 1.3425-1.4032.76345-2.3933-1.8437 3.9629-2.7638 3.5436-5.2825-.13049-.7841-1.1034-1.1834-2.3068-1.204z" fill-opacity=".65098"/></svg>