<svg height="32" width="32" xmlns="http://www.w3.org/2000/svg"><rect fill="#f4b400" height="28" rx="1.4" transform="matrix(0 -1 -1 0 0 0)" width="28" x="-30" y="-30"/><path d="m3.4004 2c-.7756 0-1.4004.6248-1.4004 1.4004v1c0-.7756.6248-1.4004 1.4004-1.4004h25.2c.775 0 1.4.6248 1.4 1.4004v-1c0-.7756-.625-1.4004-1.4-1.4004z" fill="#fff" opacity=".2"/><path d="m2 28.6v1c0 .775.6248 1.4 1.4004 1.4h25.2c.775 0 1.4-.625 1.4-1.4v-1c0 .775-.625 1.4-1.4 1.4h-25.2c-.7752 0-1.4-.625-1.4-1.4z" opacity=".2"/><path d="m16 7c-3.866 0-7 3.134-7 7 0 1.9612.81186 3.729 2.1113 5h-.111v7h2v1h6v-1h2v-7h-.11523c1.301-1.271 2.115-3.037 2.115-5 0-3.866-3.134-7-7-7zm0 2c2.7614 0 5 2.2386 5 5 0 1.5197-.67802 2.8818-1.748 3.7988-.874.749-2.01 1.201-3.252 1.201-1.216 0-2.331-.435-3.197-1.156-1.102-.917-1.803-2.299-1.803-3.844 0-2.761 2.239-5 5-5zm-3 12h6v1h-6zm0 3h6v1h-6z" opacity=".2"/><path d="m16 6c-3.866 0-7 3.134-7 7 0 1.9612.81186 3.729 2.1113 5h-.111v7h2v1h6v-1h2v-7h-.11523c1.301-1.271 2.115-3.037 2.115-5 0-3.866-3.134-7-7-7zm0 2c2.7614 0 5 2.2386 5 5 0 1.5197-.67802 2.8818-1.748 3.7988-.874.749-2.01 1.201-3.252 1.201-1.216 0-2.331-.435-3.197-1.156-1.102-.917-1.803-2.299-1.803-3.844 0-2.761 2.239-5 5-5zm-3 12h6v1h-6zm0 3h6v1h-6z" fill="#fff"/></svg>