<svg height="32" width="32" xmlns="http://www.w3.org/2000/svg"><path d="m16 3c-7.756 0-14 6.244-14 14s6.244 14 14 14 14-6.244 14-14-6.244-14-14-14zm0 8.4a5.6 5.6 0 0 1 5.6 5.6 5.6 5.6 0 0 1 -5.6 5.6 5.6 5.6 0 0 1 -5.6-5.6 5.6 5.6 0 0 1 5.6-5.6z" opacity=".2"/><path d="m16 8.5a7.5 7.5 0 0 0 -7.5 7.5 7.5 7.5 0 0 0 7.5 7.5 7.5 7.5 0 0 0 7.5-7.5 7.5 7.5 0 0 0 -7.5-7.5zm0 4.5c1.6569 0 3 1.3431 3 3s-1.3431 3-3 3-3-1.3431-3-3 1.3431-3 3-3z" fill="#848484"/><path d="m16 2c-7.756 0-14 6.244-14 14s6.244 14 14 14 14-6.244 14-14-6.244-14-14-14zm0 8a6 6 0 0 1 6 6 6 6 0 0 1 -6 6 6 6 0 0 1 -6-6 6 6 0 0 1 6-6z" fill="#e4e4e4"/><path d="m16 2c-7.756 0-14 6.244-14 14 0 .169.0195.333.0254.5.2637-7.5206 6.3874-13.5 13.975-13.5 7.587 0 13.711 5.9794 13.975 13.5.005-.167.025-.331.025-.5 0-7.756-6.244-14-14-14zm-5.975 14.498a6 6 0 0 0 -.025.502 6 6 0 0 0 6 6 6 6 0 0 0 6-6 6 6 0 0 0 -.025-.498 6 6 0 0 1 -5.975 5.498 6 6 0 0 1 -5.975-5.502z" fill="#fff" opacity=".2"/></svg>