<svg height="12pt" viewBox="0 0 12 12" width="12pt" xmlns="http://www.w3.org/2000/svg"><path d="m9.816406 7.089844c0 1.507812-1.21875 2.726562-2.726562 2.726562-1.503906 0-2.726563-1.21875-2.726563-2.726562 0-1.503906 1.222657-2.726563 2.726563-2.726563 1.507812 0 2.726562 1.222657 2.726562 2.726563zm0 0" fill="#fdbc4b"/><path d="m7.636719 7.089844c0 1.507812-1.222657 2.726562-2.726563 2.726562-1.507812 0-2.726562-1.21875-2.726562-2.726562 0-1.503906 1.21875-2.726563 2.726562-2.726563 1.503906 0 2.726563 1.222657 2.726563 2.726563zm0 0" fill="#5294e2"/><path d="m8.726562 4.910156c0 1.503906-1.21875 2.726563-2.726562 2.726563s-2.726562-1.222657-2.726562-2.726563c0-1.507812 1.21875-2.726562 2.726562-2.726562s2.726562 1.21875 2.726562 2.726562zm0 0" fill="#4fef42"/></svg>