<svg height="48" width="48" xmlns="http://www.w3.org/2000/svg"><rect height="26" opacity=".2" rx="2" width="40" x="4" y="17"/><path d="m4 34c0 1.108.892 2 2 2h36c1.108 0 2-.892 2-2v-22c0-1.108-.892-2-2-2h-20v-2c0-1.108-.892-2-2-2h-14c-1.108 0-2 .892-2 2" fill="#727272"/><rect height="26" opacity=".2" rx="2" width="40" x="4" y="15"/><rect fill="#e4e4e4" height="16" rx="2" width="36" x="6" y="13"/><rect fill="#8e8e8e" height="26" rx="2" width="40" x="4" y="16"/><path d="m6 6c-1.108 0-2 .892-2 2v1c0-1.108.892-2 2-2h14c1.108 0 2 .892 2 2v-1c0-1.108-.892-2-2-2zm16 4v1h20c1.108 0 2 .892 2 2v-1c0-1.108-.892-2-2-2z" fill="#fff" opacity=".1"/><g fill="#323232" stroke="#8e8e8e" stroke-linecap="round" stroke-linejoin="round" stroke-width=".5"><circle cx="26.5" cy="27.5" r="3.25"/><circle cx="34" cy="34" r="1.75"/><circle cx="30" cy="32" r="3.75"/><circle cx="15.5" cy="32.5" r="3.25"/><circle cx="18.5" cy="26" r="1.75"/><circle cx="19" cy="30" r="3.75"/><circle cx="19" cy="34" r="1.75"/><circle cx="22.5" cy="25.5" r="3.25"/><circle cx="24" cy="31" r="4.75"/></g></svg>