<svg height="48" width="48" xmlns="http://www.w3.org/2000/svg"><path d="m8 41v2c0 1.108.892 2 2 2h28c1.108 0 2-.892 2-2v-2c0 1.108-.892 2-2 2h-28c-1.108 0-2-.892-2-2z" opacity=".2"/><path d="m40 42v-32c0-1.108-.892-2-2-2h-28c-1.108 0-2 .892-2 2v32c0 1.108.892 2 2 2h28c1.108 0 2-.892 2-2z" fill="#5b5b5b"/><path d="m14 4h20v4h-20z" fill="#8e8e8e"/><g fill="#c0f957"><path d="m11 31h26v8h-26z"/><path d="m11 21h26v8h-26z"/><path d="m11 11h26v8h-26z"/></g><path d="m14 4v1h20v-1z" fill="#fff" opacity=".2"/></svg>