<svg height="48" width="48" xmlns="http://www.w3.org/2000/svg"><rect height="20" opacity=".2" rx="10" transform="matrix(0 -1 -1 0 0 0)" width="24" x="-29" y="-34"/><path d="m11 18a2 2 0 0 0 -2 2v2.5c0 6.358104 5.644991 11.564906 13 12.376953v6.123047h-8a2 2 0 0 0 -2 2 2 2 0 0 0 2 2h20a2 2 0 0 0 2-2 2 2 0 0 0 -2-2h-8v-6.123047c7.355009-.812047 13-6.018849 13-12.376953v-2.5a2 2 0 0 0 -2-2 2 2 0 0 0 -2 2v1.833984c0 5.078-4.906 9.166016-11 9.166016s-11-4.088016-11-9.166016v-1.833984a2 2 0 0 0 -2-2z" opacity=".2"/><path d="m11 17a2 2 0 0 0 -2 2v2.5c0 6.358104 5.644991 11.564906 13 12.376953v6.123047h-8a2 2 0 0 0 -2 2 2 2 0 0 0 2 2h20a2 2 0 0 0 2-2 2 2 0 0 0 -2-2h-8v-6.123047c7.355009-.812047 13-6.018849 13-12.376953v-2.5a2 2 0 0 0 -2-2 2 2 0 0 0 -2 2v1.833984c0 5.078-4.906 9.166016-11 9.166016s-11-4.088016-11-9.166016v-1.833984a2 2 0 0 0 -2-2z" fill="#c4c4c4"/><rect fill="#5d5d5d" height="20" rx="10" transform="matrix(0 -1 -1 0 0 0)" width="24" x="-28" y="-34"/><path d="m11 17a2 2 0 0 0 -2 2v1a2 2 0 0 1 2-2 2 2 0 0 1 2 2v-1a2 2 0 0 0 -2-2zm26 0a2 2 0 0 0 -2 2v1a2 2 0 0 1 2-2 2 2 0 0 1 2 2v-1a2 2 0 0 0 -2-2zm-24 3.833984v1c0 5.078 4.906 9.166016 11 9.166016s11-4.088016 11-9.166016v-1c0 5.078-4.906 9.166016-11 9.166016s-11-4.088016-11-9.166016zm1 19.166016a2 2 0 0 0 -2 2 2 2 0 0 0  .064453.496094 2 2 0 0 1 1.935547-1.496094h8v-1zm12 0v1h8a2 2 0 0 1 1.935547 1.503906 2 2 0 0 0  .064453-.503906 2 2 0 0 0 -2-2z" fill="#fff" opacity=".1"/><path d="m24 4c-5.54 0-10 4.46-10 10v1c0-5.54 4.46-10 10-10s10 4.46 10 10v-1c0-5.54-4.46-10-10-10z" fill="#fff" opacity=".1"/><circle cx="36" cy="37" fill="#db3c30" r="10"/><path d="m45.979 37.414a10 10 0 0 1 -9.979 9.586 10 10 0 0 1 -9.979-9.414 10 10 0 0 0 -.021.414 10 10 0 0 0 10 10 10 10 0 0 0 10-10 10 10 0 0 0 -.021-.586z" opacity=".2"/><g fill="#fff" transform="matrix(.70711 -.70711 .70711 .70711 -13.497 35.846)"><path d="m28 35h12v2h-12z"/><path d="m-42 33h12v2h-12z" transform="rotate(-90)"/></g></svg>