<svg height="36pt" viewBox="0 0 36 36" width="36pt" xmlns="http://www.w3.org/2000/svg"><path d="m8.40625 2.136719h19.1875c3.460938 0 6.269531 2.808593 6.269531 6.269531v19.1875c0 3.460938-2.808593 6.269531-6.269531 6.269531h-19.1875c-3.460938 0-6.269531-2.808593-6.269531-6.269531v-19.1875c0-3.460938 2.808593-6.269531 6.269531-6.269531zm0 0" fill="#3e50b4" fill-rule="evenodd"/><path d="m18 7.875c-1.242188 0-2.25 1.007812-2.25 2.25s1.007812 2.25 2.25 2.25 2.25-1.007812 2.25-2.25-1.007812-2.25-2.25-2.25zm-7.875 5.625v1.125h5.625v13.5h1.125v-6.75h2.25v6.75h1.125v-13.5h5.625v-1.125zm0 0" fill="#fff"/></svg>