<svg height="36pt" viewBox="0 0 36 36" width="36pt" xmlns="http://www.w3.org/2000/svg" xmlns:xlink="http://www.w3.org/1999/xlink"><clipPath id="a"><path d="m0 0h36v36h-36z"/></clipPath><clipPath id="b"><path d="m0 0h36v36h-36z"/></clipPath><clipPath id="c"><path d="m0 0h36v36h-36z"/></clipPath><clipPath id="d"><path d="m0 0h36v36h-36z"/></clipPath><path d="m33.863281 18v-9.59375c0-.867188-.175781-1.695312-.492187-2.445312s-.773438-1.425782-1.339844-1.992188c-.570312-.566406-1.242188-1.027344-1.996094-1.34375-.75-.316406-1.574218-.488281-2.445312-.488281h-9.589844v15.863281zm0 0" fill="#595959"/><path d="m18 33.863281h9.59375c.867188 0 1.695312-.175781 2.445312-.492187s1.425782-.773438 1.992188-1.339844c.566406-.570312 1.023438-1.242188 1.339844-1.996094.316406-.75.492187-1.574218.492187-2.445312v-9.589844h-15.863281zm0 0" fill="#666"/><g clip-path="url(#a)"><path d="m32.980469 25.640625c0 3.925781-3.179688 7.105469-7.105469 7.105469s-7.105469-3.179688-7.105469-7.105469 3.179688-7.105469 7.105469-7.105469 7.105469 3.179688 7.105469 7.105469zm0 0" fill="#07ce8e" fill-rule="evenodd"/></g><g clip-path="url(#b)"><path d="m22.53125 23.664062v1.132813h6.800781v-1.132813zm0 3.398438v1.136719h6.800781v-1.136719zm0 0" fill="#ebebeb"/></g><path d="m8.410156 2.136719c-.871094 0-1.699218.175781-2.449218.492187s-1.425782.773438-1.992188 1.339844-1.023438 1.242188-1.339844 1.992188-.492187 1.578124-.492187 2.449218v9.589844h15.863281v-15.863281zm0 0" fill="#a6a6a6"/><g clip-path="url(#c)"><path d="m10.070312 6.667969v3.398437h-3.402343v1.136719h3.402343v3.398437h1.132813v-3.398437h3.398437v-1.136719h-3.398437v-3.398437zm0 0" fill="#ebebeb"/></g><g clip-path="url(#d)"><path d="m22.53125 10.066406v1.132813h6.800781v-1.132813zm0 0" fill="#ebebeb"/></g><path d="m2.136719 18v9.589844c0 .871094.175781 1.695312.492187 2.445312.316406.753906.773438 1.425782 1.339844 1.996094.566406.566406 1.242188 1.023438 1.992188 1.339844s1.578124.492187 2.445312.492187h9.59375v-15.863281zm0 0" fill="#8c8c8c"/><path d="m7.070312 22.132812-.800781.800782 2.996094 3-2.996094 2.996094.800781.804687 2.996094-3 3 3 .800782-.804687-3-2.996094 3-3-.800782-.800782-3 3zm0 0" fill="#ebebeb" fill-rule="evenodd"/></svg>