<svg height="36pt" viewBox="0 0 36 36" width="36pt" xmlns="http://www.w3.org/2000/svg"><path d="m8.40625 2.136719h19.1875c3.460938 0 6.269531 2.808593 6.269531 6.269531v19.1875c0 3.460938-2.808593 6.269531-6.269531 6.269531h-19.1875c-3.460938 0-6.269531-2.808593-6.269531-6.269531v-19.1875c0-3.460938 2.808593-6.269531 6.269531-6.269531zm0 0" fill="#4f4f4f" fill-rule="evenodd"/><g fill="#ff6363"><path d="m7.921875 23.042969h3.625c.863281 0 1.5625.65625 1.5625 1.46875v3.8125c0 .8125-.699219 1.46875-1.5625 1.46875h-3.625c-.863281 0-1.5625-.65625-1.5625-1.46875v-3.8125c0-.8125.699219-1.46875 1.5625-1.46875zm0 0"/><path d="m7.921875 12.917969h3.625c.863281 0 1.5625.65625 1.5625 1.46875v3.8125c0 .8125-.699219 1.46875-1.5625 1.46875h-3.625c-.863281 0-1.5625-.65625-1.5625-1.46875v-3.8125c0-.8125.699219-1.46875 1.5625-1.46875zm0 0"/><path d="m18.046875 23.042969h3.625c.863281 0 1.5625.65625 1.5625 1.46875v3.8125c0 .8125-.699219 1.46875-1.5625 1.46875h-3.625c-.863281 0-1.5625-.65625-1.5625-1.46875v-3.8125c0-.8125.699219-1.46875 1.5625-1.46875zm0 0"/><path d="m18.046875 12.917969h3.625c.863281 0 1.5625.65625 1.5625 1.46875v3.8125c0 .8125-.699219 1.46875-1.5625 1.46875h-3.625c-.863281 0-1.5625-.65625-1.5625-1.46875v-3.8125c0-.8125.699219-1.46875 1.5625-1.46875zm0 0"/></g></svg>