<svg height="36pt" viewBox="0 0 36 36" width="36pt" xmlns="http://www.w3.org/2000/svg"><g fill-rule="evenodd"><path d="m11.136719 2.136719v9h-9v2.285156h9v9.140625h-9v2.285156h9v9.015625h2.285156v-9.015625h9.140625v9.015625h2.285156v-9.015625h9.015625v-2.285156h-9.015625v-9.140625h9.015625v-2.285156h-9.015625v-9h-2.285156v9h-9.140625v-9zm0 0" fill="#fff"/><path d="m13.371094 13.492188v9.0625h9.140625v-9.0625zm0 0" fill="#fe8e8e"/><path d="m13.371094 13.492188h9.140625v9.0625h-9.140625zm0 0" fill="#eb6253"/><g fill="#4a99e4"><path d="m22.5625 2.136719h-9.140625v9h9.140625zm0 0"/><path d="m33.863281 11.136719v-2.730469c0-3.472656-2.796875-6.269531-6.269531-6.269531h-2.746094v9zm0 0"/><path d="m33.863281 22.5625v-9.140625h-9.015625v9.140625zm0 0"/></g><path d="m24.847656 33.863281h2.746094c3.472656 0 6.269531-2.796875 6.269531-6.269531v-2.746094h-9.015625zm0 0" fill="#eb6253"/><g fill="#5eaf3e"><path d="m13.421875 33.863281h9.140625v-9.015625h-9.140625zm0 0"/><path d="m2.136719 24.847656v2.746094c0 3.472656 2.796875 6.269531 6.269531 6.269531h2.730469v-9.015625zm0 0"/><path d="m2.136719 13.421875v9.140625h9v-9.140625zm0 0"/></g><path d="m11.136719 2.136719h-2.730469c-3.472656 0-6.269531 2.796875-6.269531 6.269531v2.730469h9zm0 0" fill="#eb6253"/></g></svg>