<svg height="36pt" viewBox="0 0 36 36" width="36pt" xmlns="http://www.w3.org/2000/svg"><path d="m8.40625 2.136719h19.1875c3.460938 0 6.269531 2.808593 6.269531 6.269531v19.1875c0 3.460938-2.808593 6.269531-6.269531 6.269531h-19.1875c-3.460938 0-6.269531-2.808593-6.269531-6.269531v-19.1875c0-3.460938 2.808593-6.269531 6.269531-6.269531zm0 0" fill="#8e8e8e" fill-rule="evenodd"/><path d="m24.453125 26.972656v-14.820312c0-.585938-.480469-1.058594-1.074219-1.058594h-10.757812c-.59375 0-1.074219.472656-1.074219 1.058594v14.820312c0 .585938.480469 1.058594 1.074219 1.058594h10.757812c.59375 0 1.074219-.472656 1.074219-1.058594zm0 0" fill="#474747"/><path d="m28.488281 24.601562v-14.113281c0-.558593-.472656-1.007812-1.050781-1.007812h-18.875c-.578125 0-1.050781.449219-1.050781 1.007812v14.113281c0 .558594.472656 1.011719 1.050781 1.011719h18.875c.578125 0 1.050781-.453125 1.050781-1.011719zm0 0" fill="#474747"/><path d="m26.875 24v-12.90625h-17.75v12.90625zm0 0" fill="#dc4f47"/><path d="m14.585938 15.410156h5.34375c.398437 0 .398437.394532.398437.394532v4.121093c0 .398438-.398437.398438-.398437.398438h-5.34375s-.398438 0-.398438-.398438v-4.121093s0-.394532.398438-.394532zm8.199218.613282v3.992187l-2.457031-2.148437zm0 0" fill="#fff"/></svg>