<svg height="36pt" viewBox="0 0 36 36" width="36pt" xmlns="http://www.w3.org/2000/svg"><path d="m8.40625 2.136719h19.1875c3.460938 0 6.269531 2.808593 6.269531 6.269531v19.1875c0 3.460938-2.808593 6.269531-6.269531 6.269531h-19.1875c-3.460938 0-6.269531-2.808593-6.269531-6.269531v-19.1875c0-3.460938 2.808593-6.269531 6.269531-6.269531zm0 0" fill="#02a8f3" fill-rule="evenodd"/><path d="m7.347656 8.675781c-.734375 0-1.328125.589844-1.328125 1.316407v15.820312c0 .730469.59375 1.078125 1.328125 1.078125h12.089844l2.875 2.875 2.398438-2.875h3.941406c.738281 0 1.328125-.347656 1.328125-1.078125v-15.820312c0-.726563-.589844-1.316407-1.328125-1.316407zm0 0" fill="#fff"/><path d="m18 11.550781c-3.441406 0-6.230469 2.789063-6.230469 6.230469s2.789063 6.230469 6.230469 6.230469 6.230469-2.789063 6.230469-6.230469-2.789063-6.230469-6.230469-6.230469zm1.191406 1.105469c.902344.210938 1.734375.65625 2.410156 1.289062-.21875.207032-.449218.402344-.703124.566407-.449219-.726563-1.042969-1.359375-1.746094-1.847657.015625-.003906.027344-.003906.039062-.007812zm-2.378906 0c .011719.003906.023438.003906.035156.007812-.703125.488282-1.296875 1.121094-1.746094 1.847657-.253906-.164063-.484374-.359375-.703124-.566407.675781-.632812 1.507812-1.078124 2.414062-1.289062zm.707031.71875v1.988281c-.554687-.050781-1.085937-.183593-1.578125-.394531.40625-.636719.945313-1.179688 1.578125-1.59375zm.960938 0c .632812.414062 1.171875.957031 1.578125 1.59375-.492188.210938-1.023438.34375-1.578125.394531zm-4.714844 1.285156c.277344.257813.566406.5.890625.703125-.257812.605469-.414062 1.257813-.464844 1.941407h-1.441406c.09375-.957032.441406-1.871094 1.015625-2.644532zm8.46875 0c .570313.773438.921875 1.6875 1.011719 2.644532h-1.4375c-.050782-.683594-.207032-1.335938-.464844-1.941407.320312-.203125.613281-.445312.890625-.703125zm-6.730469 1.160156c.625.273438 1.304688.441407 2.015625.5v.984376h-2.371093c.046874-.519532.171874-1.019532.355468-1.484376zm4.988282 0c .1875.464844.3125.964844.359374 1.484376h-2.371093v-.984376c.710937-.058593 1.386719-.226562 2.011719-.5zm-7.738282 2.441407h1.4375c.050782.683593.207032 1.335937.464844 1.9375-.308594.199219-.695312.367187-.953125.621093-.535156-.753906-.863281-1.636718-.949219-2.558593zm2.394532 0h2.371093v.984375c-.710937.054687-1.390625.222656-2.015625.5-.183594-.46875-.308594-.964844-.355468-1.484375zm3.332031 0h2.371093c-.046874.519531-.171874 1.015625-.359374 1.484375-.625-.277344-1.300782-.445313-2.011719-.5zm3.328125 0h1.441406c-.09375.960937-.445312 1.875-1.019531 2.648437-.277344-.257812-.5625-.503906-.886719-.710937.257812-.601563.414062-1.253907.464844-1.9375zm-4.289063 1.941406v1.984375c-.632812-.414062-1.171875-.953125-1.578125-1.59375.492188-.207031 1.023438-.339844 1.578125-.390625zm.960938 0c .554687.050781 1.085937.183594 1.578125.390625-.40625.640625-.945313 1.179688-1.578125 1.59375zm-3.378907.847656c.449219.730469 1.042969 1.363281 1.746094 1.851563-.015625 0-.027344.003906-.039062.007812-.902344-.210937-1.730469-.65625-2.40625-1.289062.21875-.207032.445312-.402344.699218-.570313zm5.796876 0c .253906.167969.484374.363281.703124.566407-.675781.636718-1.507812 1.082031-2.414062 1.289062-.011719-.003906-.023438-.003906-.035156-.003906.703125-.488282 1.296875-1.121094 1.746094-1.851563zm0 0" fill="#999"/></svg>