<svg height="36pt" viewBox="0 0 36 36" width="36pt" xmlns="http://www.w3.org/2000/svg"><g fill-rule="evenodd"><path d="m8.40625 2.136719h19.1875c3.460938 0 6.269531 2.808593 6.269531 6.269531v19.1875c0 3.460938-2.808593 6.269531-6.269531 6.269531h-19.1875c-3.460938 0-6.269531-2.808593-6.269531-6.269531v-19.1875c0-3.460938 2.808593-6.269531 6.269531-6.269531zm0 0" fill="#009587"/><path d="m10.375 33.863281h17.21875c3.472656 0 6.269531-2.796875 6.269531-6.273437v-19.183594c0-3.472656-2.796875-6.269531-6.269531-6.269531h-17.21875zm0 0" fill="#009587"/><path d="m10.375 33.863281v-31.726562h-1.96875c-3.472656 0-6.269531 2.796875-6.269531 6.269531v19.183594c0 3.476562 2.796875 6.273437 6.269531 6.273437zm0 0" fill="#00776c"/></g><path d="m26.03125 18.414062c0-1.277343-.707031-2.378906-1.761719-2.949218v5.898437c1.042969-.570312 1.761719-1.671875 1.761719-2.949219zm-10.515625-2.859374v5.71875h2.769531l4.019532 4.019531v-13.761719l-4.019532 4.023438zm8.753906-4.023438v1.476562c2.28125.726563 3.933594 2.878907 3.933594 5.40625 0 2.523438-1.652344 4.679688-3.933594 5.40625v1.472657c3.097657-.765625 5.40625-3.539063 5.40625-6.878907 0-3.34375-2.308593-6.113281-5.40625-6.882812zm0 0" fill="#d8f5cd"/></svg>