<svg height="36pt" viewBox="0 0 36 36" width="36pt" xmlns="http://www.w3.org/2000/svg" xmlns:xlink="http://www.w3.org/1999/xlink"><clipPath id="a"><path d="m0 0h36v36h-36z"/></clipPath><path d="m8.40625 2.136719h19.1875c3.460938 0 6.269531 2.808593 6.269531 6.269531v19.1875c0 3.460938-2.808593 6.269531-6.269531 6.269531h-19.1875c-3.460938 0-6.269531-2.808593-6.269531-6.269531v-19.1875c0-3.460938 2.808593-6.269531 6.269531-6.269531zm0 0" fill="#e91e63" fill-rule="evenodd"/><g clip-path="url(#a)"><path d="m16.660156 14.6875 3.746094 3.75c.542969.539062 1.417969.539062 1.960938 0 .542968-.542969.542968-1.421875 0-1.964844l-3.746094-3.746094c-2.679688-2.679687-7.015625-2.726562-9.753906-.136718-.023438.023437-.050782.042968-.074219.066406-.011719.011719-.019531.023438-.03125.039062-.011719.007813-.027344.019532-.035157.03125-.027343.023438-.046874.046876-.066406.074219-2.589844 2.738281-2.546875 7.070313.132813 9.753907l3.75 3.746093c.539062.542969 1.417969.542969 1.960937 0 .539063-.542969.539063-1.421875 0-1.960937l-3.75-3.746094c-1.632812-1.636719-1.644531-4.289062-.03125-5.9375 1.648438-1.613281 4.300782-1.601562 5.9375.03125zm0 0" fill="#ff8bff"/><path d="m21.496094 9.699219c-.539063.542969-.539063 1.421875 0 1.960937l3.75 3.746094c1.632812 1.636719 1.644531 4.289062.03125 5.9375-1.648438 1.613281-4.300782 1.601562-5.9375-.03125l-3.746094-3.75c-.542969-.539062-1.421875-.539062-1.960938 0-.542968.542969-.542968 1.421875 0 1.964844l3.746094 3.746094c2.679688 2.683593 7.015625 2.726562 9.753906.136718.023438-.023437.050782-.042968.074219-.066406.011719-.011719.019531-.023438.03125-.035156.011719-.011719.023438-.023438.035157-.035156.027343-.023438.046874-.046876.066406-.074219 2.589844-2.738281 2.546875-7.070313-.132813-9.753907l-3.746093-3.746093c-.542969-.542969-1.421876-.542969-1.964844 0zm0 0" fill="#ff8bff"/></g></svg>