<svg height="36pt" viewBox="0 0 36 36" width="36pt" xmlns="http://www.w3.org/2000/svg" xmlns:xlink="http://www.w3.org/1999/xlink"><clipPath id="a"><path d="m0 0h36v36h-36z"/></clipPath><clipPath id="b"><path d="m0 0h36v36h-36z"/></clipPath><clipPath id="c"><path d="m0 0h36v36h-36z"/></clipPath><clipPath id="d"><path d="m0 0h36v36h-36z"/></clipPath><path d="m8.40625 2.136719h19.1875c3.460938 0 6.269531 2.808593 6.269531 6.269531v19.1875c0 3.460938-2.808593 6.269531-6.269531 6.269531h-19.1875c-3.460938 0-6.269531-2.808593-6.269531-6.269531v-19.1875c0-3.460938 2.808593-6.269531 6.269531-6.269531zm0 0" fill="#fecd38" fill-rule="evenodd"/><g clip-path="url(#a)"><path d="m9.238281 12.15625v-1.460938h17.523438v1.460938zm0 0" fill-opacity=".521569"/></g><g clip-path="url(#b)"><path d="m9.238281 16.539062v-1.460937h17.523438v1.460937zm0 0" fill-opacity=".521569"/></g><g clip-path="url(#c)"><path d="m9.238281 20.921875v-1.460937h17.523438v1.460937zm0 0" fill-opacity=".521569"/></g><g clip-path="url(#d)"><path d="m9.238281 25.304688v-1.460938h11.683594v1.460938zm0 0" fill-opacity=".521569"/></g></svg>