<svg height="36pt" viewBox="0 0 36 36" width="36pt" xmlns="http://www.w3.org/2000/svg"><g fill-rule="evenodd"><path d="m2.132812 10.375v17.21875c0 3.472656 2.800782 6.269531 6.273438 6.269531h19.1875c3.472656 0 6.273438-2.796875 6.273438-6.269531v-17.21875zm0 0" fill="#45b445"/><path d="m2.132812 10.375h31.734376v-1.964844c0-3.476562-2.800782-6.273437-6.273438-6.273437h-19.1875c-3.472656 0-6.273438 2.796875-6.273438 6.273437zm0 0" fill="#6ac36a"/><path d="m19.574219 22.277344c0 1.074218.027343 1.972656-.527344 2.925781-.449219.773437-1.160156 1.25-1.957031 1.25-1.082032 0-1.710938-.804687-1.710938-1.996094 0-2.347656 2.15625-2.777343 4.195313-2.777343zm2.847656 6.71875c-.183594.164062-.453125.175781-.664063.070312-.9375-.761718-1.105468-1.117187-1.625-1.839844-1.550781 1.542969-2.644531 2.003907-4.65625 2.003907-2.375 0-4.226562-1.429688-4.226562-4.292969 0-2.238281 1.242188-3.765625 3.007812-4.507812 1.53125-.660157 3.675782-.777344 5.3125-.957032v-.359375c0-.65625.054688-1.429687-.339843-1.996093-.34375-.507813-1.003907-.714844-1.585938-.714844-1.078125 0-2.035156.535156-2.269531 1.652344-.050781.25-.234375.492187-.492188.507812l-2.738281-.289062c-.230469-.050782-.484375-.234376-.421875-.578126.632813-3.234374 3.632813-4.214843 6.316406-4.214843 1.375 0 3.171876.355469 4.253907 1.371093 1.375 1.253907 1.242187 2.925782 1.242187 4.742188v4.296875c0 1.292969.546875 1.859375 1.0625 2.554687.183594.25.222656.550782-.003906.734376-.578125.472656-1.601562 1.339843-2.167969 1.832031l-.007812-.011719" fill="#fff"/></g></svg>