<svg height="36pt" viewBox="0 0 36 36" width="36pt" xmlns="http://www.w3.org/2000/svg"><path d="m8.40625 2.136719h19.1875c3.460938 0 6.269531 2.808593 6.269531 6.269531v19.1875c0 3.460938-2.808593 6.269531-6.269531 6.269531h-19.1875c-3.460938 0-6.269531-2.808593-6.269531-6.269531v-19.1875c0-3.460938 2.808593-6.269531 6.269531-6.269531zm0 0" fill="#c2352a" fill-rule="evenodd"/><path d="m18 7.875c-5.59375 0-10.125 4.53125-10.125 10.125s4.53125 10.125 10.125 10.125 10.125-4.53125 10.125-10.125-4.53125-10.125-10.125-10.125zm0 2.25c4.347656 0 7.875 3.527344 7.875 7.875s-3.527344 7.875-7.875 7.875-7.875-3.527344-7.875-7.875 3.527344-7.875 7.875-7.875zm0 3.375c-.625 0-1.125.5-1.125 1.125v6.75c0 .625.5 1.125 1.125 1.125s1.125-.5 1.125-1.125v-6.75c0-.625-.5-1.125-1.125-1.125zm0 0" fill="#fff"/></svg>