<svg height="36pt" viewBox="0 0 36 36" width="36pt" xmlns="http://www.w3.org/2000/svg"><path d="m8.40625 2.136719h19.1875c3.460938 0 6.269531 2.808593 6.269531 6.269531v19.1875c0 3.460938-2.808593 6.269531-6.269531 6.269531h-19.1875c-3.460938 0-6.269531-2.808593-6.269531-6.269531v-19.1875c0-3.460938 2.808593-6.269531 6.269531-6.269531zm0 0" fill="#e65100" fill-rule="evenodd"/><path d="m7.3125 5.625h21.375c.933594 0 1.6875.753906 1.6875 1.6875v21.375c0 .933594-.753906 1.6875-1.6875 1.6875h-21.375c-.933594 0-1.6875-.753906-1.6875-1.6875v-21.375c0-.933594.753906-1.6875 1.6875-1.6875zm0 0" fill="#fff"/><path d="m9.554688 9.554688v16.890624h7.507812v-3.753906h-3.753906v-9.382812h3.753906v-3.753906zm9.382812 0v3.753906h3.753906v9.382812h-3.753906v3.753906h7.507812v-16.890624zm0 0" fill="#424242"/></svg>