<svg height="36pt" viewBox="0 0 36 36" width="36pt" xmlns="http://www.w3.org/2000/svg"><path d="m8.40625 2.136719h19.1875c3.460938 0 6.269531 2.808593 6.269531 6.269531v19.1875c0 3.460938-2.808593 6.269531-6.269531 6.269531h-19.1875c-3.460938 0-6.269531-2.808593-6.269531-6.269531v-19.1875c0-3.460938 2.808593-6.269531 6.269531-6.269531zm0 0" fill="#a7d285" fill-rule="evenodd"/><path d="m10.316406 12.710938c0 .777343.019532 1.660156.058594 2.351562h-1.707031c-.910157 0-1.644531.730469-1.644531 1.644531v6.9375c0 .914063.734374 1.609375 1.644531 1.609375h3.453125c.769531 0 1.175781-.785156 1.175781-.785156 1.871094 1.566406 4.597656 1.566406 6.625 1.566406 4.113281 0 9.054687-.15625 9.054687-13.328125zm-.710937 3.917968h.820312c.324219 3.25 1.046875 5.449219 2 6.929688-.136719.078125-.292969.125-.457031.125h-2.363281c-.5625 0-1.015625-.523438-1.015625-1.175782v-4.703124c0-.652344.453125-1.175782 1.015625-1.175782zm0 0" fill="#fff"/></svg>