<svg height="36pt" viewBox="0 0 36 36" width="36pt" xmlns="http://www.w3.org/2000/svg"><path d="m8.40625 2.136719h19.1875c3.460938 0 6.269531 2.808593 6.269531 6.269531v19.1875c0 3.460938-2.808593 6.269531-6.269531 6.269531h-19.1875c-3.460938 0-6.269531-2.808593-6.269531-6.269531v-19.1875c0-3.460938 2.808593-6.269531 6.269531-6.269531zm0 0" fill="#ccc" fill-rule="evenodd"/><path d="m12.066406 12.414062c-1.363281 0-2.621094.726563-3.304687 1.90625-.679688 1.179688-.679688 2.632813 0 3.8125.507812.871094 1.335937 1.507813 2.308593 1.769532.105469.03125.210938.054687.320313.074218.070313.011719.144531.023438.214844.035157.035156.003906.070312.007812.105469.011719.800781.085937 1.609374-.082032 2.308593-.484376 1.179688-.679687 1.90625-1.941406 1.90625-3.300781h-3.859375zm0 0" fill="#ff5e42"/><g fill="#666"><path d="m18.683594 13.296875h8.328125c.40625 0 .734375.328125.734375.734375s-.328125.734375-.734375.734375h-8.328125c-.40625 0-.734375-.328125-.734375-.734375s.328125-.734375.734375-.734375zm0 0"/><path d="m18.683594 17.707031h8.328125c.40625 0 .734375.328125.734375.734375s-.328125.734375-.734375.734375h-8.328125c-.40625 0-.734375-.328125-.734375-.734375s.328125-.734375.734375-.734375zm0 0"/><path d="m9.863281 22.117188h13.238281c.40625 0 .734376.328124.734376.734374s-.328126.734376-.734376.734376h-13.238281c-.40625 0-.734375-.328126-.734375-.734376s.328125-.734374.734375-.734374zm0 0"/></g></svg>