<svg height="36pt" viewBox="0 0 36 36" width="36pt" xmlns="http://www.w3.org/2000/svg" xmlns:xlink="http://www.w3.org/1999/xlink"><clipPath id="a"><path d="m0 0h36v36h-36z"/></clipPath><path d="m8.40625 2.097656h19.1875c3.460938 0 6.269531 2.808594 6.269531 6.273438v19.183594c0 3.464843-2.808593 6.273437-6.269531 6.273437h-19.1875c-3.460938 0-6.269531-2.808594-6.269531-6.273437v-19.183594c0-3.464844 2.808593-6.273438 6.269531-6.273438zm0 0" fill="#3b5999" fill-rule="evenodd"/><g clip-path="url(#a)"><path d="m24.539062 9.152344s-4.5 0-4.5 4.5v4.5h-3.375v4.5h3.375v11.25h4.5v-11.25h3.9375l.5625-4.5h-4.5v-3.375c0-1.125 1.125-1.125 1.125-1.125h3.375v-4.5zm0 0" fill="#fff"/></g></svg>