<svg height="36pt" viewBox="0 0 36 36" width="36pt" xmlns="http://www.w3.org/2000/svg"><path d="m8.40625 2.136719h19.1875c3.460938 0 6.269531 2.808593 6.269531 6.269531v19.1875c0 3.460938-2.808593 6.269531-6.269531 6.269531h-19.1875c-3.460938 0-6.269531-2.808593-6.269531-6.269531v-19.1875c0-3.460938 2.808593-6.269531 6.269531-6.269531zm0 0" fill="#0286c2" fill-rule="evenodd"/><path d="m14.058594 6.609375c-.730469 0-1.316406.585937-1.316406 1.316406v12.265625c0 .726563.585937 1.3125 1.316406 1.3125h12.265625c.726562 0 1.3125-.585937 1.3125-1.3125v-10.953125l2.628906-2.628906zm0 0" fill="#fff"/><path d="m5.734375 14.496094 2.628906 2.628906v10.949219c0 .730469.585938 1.316406 1.3125 1.316406h12.265625c.730469 0 1.316406-.585937 1.316406-1.316406v-12.265625c0-.726563-.585937-1.3125-1.316406-1.3125zm0 0" fill="#35b9f5"/><path d="m10.992188 18.875v.878906h9.636718v-.878906zm0 2.628906v.875h9.636718v-.875zm0 2.628906v.875h7.359374v-.875zm0 0" fill="#aee3fb"/></svg>