<svg height="36pt" viewBox="0 0 36 36" width="36pt" xmlns="http://www.w3.org/2000/svg"><path d="m8.40625 2.136719h19.1875c3.460938 0 6.269531 2.808593 6.269531 6.269531v19.1875c0 3.460938-2.808593 6.269531-6.269531 6.269531h-19.1875c-3.460938 0-6.269531-2.808593-6.269531-6.269531v-19.1875c0-3.460938 2.808593-6.269531 6.269531-6.269531zm0 0" fill="#f56e2c" fill-rule="evenodd"/><path d="m27.324219 16.875c-.292969-2.296875-1.460938-4.390625-3.257813-5.847656-.367187.136718-.753906.222656-1.164062.222656-1.417969 0-2.632813-.894531-3.132813-2.140625-.453125-.070313-.910156-.109375-1.367187-.109375-1.199219 0-2.386719.238281-3.492188.707031l1.710938 2.964844c.574218-.195313 1.175781-.292969 1.78125-.296875 2.667968.003906 4.96875 1.882812 5.503906 4.5zm-.003907 2.25h-3.40625c-.535156 2.617188-2.839843 4.5-5.511718 4.5-.605469 0-1.207032-.101562-1.78125-.292969l-1.707032 2.957031c1.105469.464844 2.289063.707032 3.488282.710938.457031-.003906.917968-.042969 1.371094-.117188.5-1.242187 1.714843-2.132812 3.128906-2.132812.410156 0 .800781.085938 1.167968.222656 1.792969-1.457031 2.957032-3.550781 3.25-5.847656zm-2.167968-11.25c0-1.242188-1.007813-2.25-2.25-2.25-1.242188 0-2.25 1.007812-2.25 2.25s1.007812 2.25 2.25 2.25c1.242187 0 2.25-1.007812 2.25-2.25zm0 20.25c0-1.242188-1.007813-2.25-2.25-2.25-1.242188 0-2.25 1.007812-2.25 2.25s1.007812 2.25 2.25 2.25c1.242187 0 2.25-1.007812 2.25-2.25zm-10.476563-14.328125-1.707031-2.957031c-1.625 1.234375-2.785156 2.984375-3.285156 4.964844.515625.589843.84375 1.355468.84375 2.195312s-.324219 1.601562-.839844 2.195312c.496094 1.980469 1.652344 3.734376 3.277344 4.96875l1.710937-2.957031c-1.207031-1.066406-1.898437-2.597656-1.898437-4.207031.003906-1.609375.691406-3.136719 1.898437-4.203125zm-5.273437 4.203125c0-1.242188-1.007813-2.25-2.25-2.25-1.242188 0-2.25 1.007812-2.25 2.25s1.007812 2.25 2.25 2.25c1.242187 0 2.25-1.007812 2.25-2.25zm0 0" fill="#fff"/></svg>