<svg height="36pt" viewBox="0 0 36 36" width="36pt" xmlns="http://www.w3.org/2000/svg" xmlns:xlink="http://www.w3.org/1999/xlink"><clipPath id="a"><path d="m0 0h36v36h-36z"/></clipPath><path d="m8.40625 2.136719h19.1875c3.460938 0 6.269531 2.808593 6.269531 6.269531v19.1875c0 3.460938-2.808593 6.269531-6.269531 6.269531h-19.1875c-3.460938 0-6.269531-2.808593-6.269531-6.269531v-19.1875c0-3.460938 2.808593-6.269531 6.269531-6.269531zm0 0" fill="#666" fill-rule="evenodd"/><path d="m14.207031 8.511719-2.222656 2.222656h-3.144531v3.144531l-2.222656 2.222656 2.222656 2.222657v3.144531h3.144531l2.222656 2.222656 2.222657-2.222656h3.144531v-3.144531l2.21875-2.222657-2.21875-2.222656v-3.144531h-3.144531zm0 0" fill="#fec006"/><path d="m11.304688 9.089844-1.203126 2.902344-2.90625 1.207031 1.203126 2.902343-1.203126 2.902344 2.90625 1.207032 1.203126 2.902343 2.902343-1.203125 2.90625 1.203125 1.203125-2.902343 2.902344-1.207032-1.203125-2.902344 1.203125-2.902343-2.902344-1.207031-1.203125-2.902344-2.90625 1.203125zm0 0" fill="#fecd38"/><path d="m20.46875 16.105469c0-3.457031-2.800781-6.261719-6.261719-6.261719-3.457031 0-6.257812 2.804688-6.257812 6.261719s2.800781 6.261719 6.257812 6.261719c3.460938 0 6.261719-2.804688 6.261719-6.261719zm0 0" fill="#fed96a"/><g clip-path="url(#a)"><path d="m18 12.308594c-2.945312 0-5.457031 1.75-6.535156 4.226562-2.746094.394532-4.847656 2.664063-4.847656 5.433594 0 3.046875 2.546874 5.519531 5.691406 5.519531h12.09375c2.75 0 4.980468-2.164062 4.980468-4.832031 0-2.476562-1.921874-4.507812-4.402343-4.785156-.644531-3.164063-3.527344-5.5625-6.980469-5.5625zm0 0" fill="#d8d8d8"/></g></svg>