<svg height="36pt" viewBox="0 0 36 36" width="36pt" xmlns="http://www.w3.org/2000/svg"><path d="m8.40625 2.136719h19.1875c3.460938 0 6.269531 2.808593 6.269531 6.269531v19.1875c0 3.460938-2.808593 6.269531-6.269531 6.269531h-19.1875c-3.460938 0-6.269531-2.808593-6.269531-6.269531v-19.1875c0-3.460938 2.808593-6.269531 6.269531-6.269531zm0 0" fill="#46bcea" fill-rule="evenodd"/><path d="m19.722656 10.125c-1.917968 0-3.578125 1.085938-4.402344 2.660156-.535156-.335937-1.164062-.53125-1.84375-.53125-1.902343 0-3.449218 1.523438-3.449218 3.40625 0 .296875.050781.585938.125.863282-1.375.917968-2.277344 2.476562-2.277344 4.242187 0 2.832031 2.304688 5.109375 5.171875 5.109375h9.90625c2.867187 0 5.171875-2.277344 5.171875-5.109375 0-2.257813-1.476562-4.164063-3.527344-4.839844.054688-.292969.082032-.597656.082032-.90625 0-2.703125-2.21875-4.894531-4.957032-4.894531zm0 0" fill="#fff"/></svg>