<svg height="36pt" viewBox="0 0 36 36" width="36pt" xmlns="http://www.w3.org/2000/svg"><path d="m33.867188 13.277344h-31.734376v14.3125c0 3.476562 2.800782 6.273437 6.273438 6.273437h19.1875c3.472656 0 6.273438-2.796875 6.273438-6.273437zm0 0" fill="#b3b3b3" fill-rule="evenodd"/><path d="m8.410156 2.136719c-2.71875 0-4.972656 1.730469-5.847656 4.136719-.242188.671874-.425781 1.375-.425781 2.132812v5.628906h31.726562v-5.628906c0-.757812-.179687-1.460938-.425781-2.132812-.875-2.40625-3.128906-4.136719-5.847656-4.136719zm0 0" fill="#4b88e8" fill-rule="evenodd"/><path d="m13.5 21.058594h9c .621094 0 1.125.503906 1.125 1.125v1.125c0 .621094-.503906 1.125-1.125 1.125h-9c-.621094 0-1.125-.503906-1.125-1.125v-1.125c0-.621094.503906-1.125 1.125-1.125zm0 0" fill="#fff"/></svg>