<svg height="36pt" viewBox="0 0 36 36" width="36pt" xmlns="http://www.w3.org/2000/svg" xmlns:xlink="http://www.w3.org/1999/xlink"><clipPath id="a"><path d="m0 0h36v36h-36z"/></clipPath><path d="m8.40625 2.136719h19.1875c3.460938 0 6.269531 2.808593 6.269531 6.269531v19.1875c0 3.460938-2.808593 6.269531-6.269531 6.269531h-19.1875c-3.460938 0-6.269531-2.808593-6.269531-6.269531v-19.1875c0-3.460938 2.808593-6.269531 6.269531-6.269531zm0 0" fill="#7572b8" fill-opacity=".992157" fill-rule="evenodd"/><g clip-path="url(#a)"><path d="m11.855469 27.214844s1.207031.351562 2.8125.550781c.652343.082031 3.125.367187 5.023437.359375 0 0 2.3125.003906 3.589844-.179688 1.335938-.1875 2.09375-.429687 2.511719-.914062.011719-.113281.203125-.492188-.316407-.851562-1.324218-.925782-3.039062-1.179688-6.371093-1.972657-3.6875-.925781-4.789063-1.8125-5.339844-2.453125-.519531-.644531.101563-1.980468 3.070313-2.636718 1.5-.367188 7.101562-.433594 7.101562-.433594-1.605469-1.273438-4.621094-3.558594-5.238281-4.042969-.542969-.425781-1.414063-1.082031-1.507813-1.664063-.125-.570312.769532-.84375 1.242188-.875 1.527344-.105468 3.613281.074219 5.464844.441407.933593.1875 1.097656.160156 1.097656.160156 1.324218.0625 2.355468-.632813 2.304687-2.09375-.011719-1.484375-1.496093-2.675781-3.136719-2.726563-1.546874-.050781-5.359374.21875-5.359374.21875 4.441406.917969 5.167968 1.148438 5.398437 1.683594.140625.316406-.226563.632813-1.449219.570313-1.335937-.066407-4.066406-.390625-4.066406-.390625-2.601562-.398438-4.410156-.777344-5.199219.253906-.515625.671875.070313 1.496094.304688 1.980469 1.03125 1.796875 2.816406 3.035156 3.945312 3.902343.429688.328126 1.726563 1.054688 1.726563 1.054688-4.039063-1.105469-7.261719-.484375-9.304688.589844-2.347656 1.390625-1.945312 3.734375 1.777344 5.925781 2.203125 1.296875 3.296875 1.917969 6.898438 2.359375 2.109374.335938 2.421874.472656 2.40625.648438-.023438.246093-2.492188.339843-3.171876.386718-1.726562.121094-6.195312.148438-6.214843.148438zm0 0" fill="#fff"/></g></svg>