<svg height="36pt" viewBox="0 0 36 36" width="36pt" xmlns="http://www.w3.org/2000/svg" xmlns:xlink="http://www.w3.org/1999/xlink"><filter id="a" height="100%" width="100%" x="0%" y="0%"><feColorMatrix in="SourceGraphic" type="matrix" values="0 0 0 0 1 0 0 0 0 1 0 0 0 0 1 0 0 0 1 0"/></filter><mask id="b"><g filter="url(#a)"><path d="m0 0h36v36h-36z" fill-opacity=".2"/></g></mask><clipPath id="c"><path d="m0 0h36v36h-36z"/></clipPath><mask id="d"><g filter="url(#a)"><path d="m0 0h36v36h-36z" fill-opacity=".2"/></g></mask><clipPath id="e"><path d="m0 0h36v36h-36z"/></clipPath><mask id="f"><g filter="url(#a)"><path d="m0 0h36v36h-36z" fill-opacity=".2"/></g></mask><clipPath id="g"><path d="m0 0h36v36h-36z"/></clipPath><mask id="h"><g filter="url(#a)"><path d="m0 0h36v36h-36z" fill-opacity=".2"/></g></mask><clipPath id="i"><path d="m0 0h36v36h-36z"/></clipPath><mask id="j"><g filter="url(#a)"><path d="m0 0h36v36h-36z" fill-opacity=".2"/></g></mask><clipPath id="k"><path d="m0 0h36v36h-36z"/></clipPath><mask id="l"><g filter="url(#a)"><path d="m0 0h36v36h-36z" fill-opacity=".2"/></g></mask><clipPath id="m"><path d="m0 0h36v36h-36z"/></clipPath><path d="m2.136719 18v9.589844c0 3.476562 2.796875 6.273437 6.269531 6.273437h19.183594c3.476562 0 6.273437-2.796875 6.273437-6.273437v-9.589844zm0 0" fill="#6469bb" fill-rule="evenodd"/><path d="m2.136719 18h31.726562v-9.59375c0-3.472656-2.796875-6.269531-6.273437-6.269531h-19.183594c-3.472656 0-6.269531 2.796875-6.269531 6.269531zm0 0" fill="#9293ff" fill-rule="evenodd"/><path d="m9.867188 5.800781h16.265624v9.148438h-16.265624m0-9.148438" fill="#3e3e3e"/><path d="m11.902344 21.050781h12.195312v9.148438h-12.195312m0-9.148438" fill="#3e3e3e"/><g fill="#ccc"><path d="m6.820312 22.066406h2.03125v6.097656h-2.03125zm0 0"/><path d="m10.886719 24.097656v2.035156h-6.101563v-2.035156zm0 0"/><path d="m31.214844 25.113281c0 .5625-.457032 1.019531-1.015625 1.019531-.5625 0-1.019531-.457031-1.019531-1.019531 0-.558593.457031-1.015625 1.019531-1.015625.558593 0 1.015625.457032 1.015625 1.015625zm0 0"/><path d="m27.148438 25.113281c0 .5625-.457032 1.019531-1.015626 1.019531-.5625 0-1.019531-.457031-1.019531-1.019531 0-.558593.457031-1.015625 1.019531-1.015625.558594 0 1.015626.457032 1.015626 1.015625zm0 0"/><path d="m28.164062 24.097656c-.5625 0-1.015624-.453125-1.015624-1.015625s.453124-1.015625 1.015624-1.015625 1.015626.453125 1.015626 1.015625-.453126 1.015625-1.015626 1.015625zm0 0"/><path d="m28.164062 28.164062c-.5625 0-1.015624-.453124-1.015624-1.015624s.453124-1.015626 1.015624-1.015626 1.015626.453126 1.015626 1.015626-.453126 1.015624-1.015626 1.015624zm0 0"/></g><g clip-path="url(#c)" mask="url(#b)"><path d="m4.785156 13.933594h4.066406v1.015625h-4.066406zm0 0"/></g><g clip-path="url(#e)" mask="url(#d)"><path d="m4.785156 11.902344h4.066406v1.015625h-4.066406zm0 0"/></g><g clip-path="url(#g)" mask="url(#f)"><path d="m4.785156 9.867188h4.066406v1.019531h-4.066406zm0 0"/></g><g clip-path="url(#i)" mask="url(#h)"><path d="m27.148438 13.933594h4.066406v1.015625h-4.066406zm0 0"/></g><g clip-path="url(#k)" mask="url(#j)"><path d="m27.148438 11.902344h4.066406v1.015625h-4.066406zm0 0"/></g><g clip-path="url(#m)" mask="url(#l)"><path d="m27.148438 9.867188h4.066406v1.019531h-4.066406zm0 0"/></g></svg>