<svg height="36pt" viewBox="0 0 36 36" width="36pt" xmlns="http://www.w3.org/2000/svg"><path d="m8.40625 2.136719h19.1875c3.460938 0 6.269531 2.808593 6.269531 6.269531v19.1875c0 3.460938-2.808593 6.269531-6.269531 6.269531h-19.1875c-3.460938 0-6.269531-2.808593-6.269531-6.269531v-19.1875c0-3.460938 2.808593-6.269531 6.269531-6.269531zm0 0" fill="#d95951" fill-rule="evenodd"/><path d="m6.890625 8.742188v3.703124h4.535156c.417969 0 1.019531.507813 1.019531.925782v9.257812c0 .417969-.601562.949219-1.019531.925782h-4.535156v3.703124h7.933594c.734375 0 1.324219-.589843 1.324219-1.324218v-15.867188c0-.734375-.589844-1.324218-1.324219-1.324218zm0 0" fill="#fff"/><path d="m29.109375 8.742188v3.703124h-4.535156c-.417969 0-1.019531.507813-1.019531.925782v9.257812c0 .417969.601562.949219 1.019531.925782h4.535156v3.703124h-7.933594c-.734375 0-1.324219-.589843-1.324219-1.324218v-15.867188c0-.734375.589844-1.324218 1.324219-1.324218zm0 0" fill="#fff"/></svg>