<svg height="36pt" viewBox="0 0 36 36" width="36pt" xmlns="http://www.w3.org/2000/svg"><g fill-rule="evenodd"><path d="m8.40625 2.136719h19.1875c3.460938 0 6.269531 2.808593 6.269531 6.269531v19.1875c0 3.460938-2.808593 6.269531-6.269531 6.269531h-19.1875c-3.460938 0-6.269531-2.808593-6.269531-6.269531v-19.1875c0-3.460938 2.808593-6.269531 6.269531-6.269531zm0 0" fill="#4f4f4f"/><path d="m2.136719 9.027344v18.566406c0 3.472656 2.796875 6.269531 6.269531 6.269531h19.183594c3.476562 0 6.273437-2.796875 6.273437-6.269531v-18.566406zm0 0" fill="#4f4f4f"/><path d="m33.410156 6.164062-2.863281 2.863282h3.316406v-.617188c0-.800781-.183593-1.546875-.453125-2.246094zm0 0" fill="#3f3f3f"/><path d="m33.070312 5.515625h-3.695312l-3.511719 3.511719h4.683594l2.863281-2.863282c-.089844-.234374-.222656-.429687-.339844-.648437zm0 0" fill="#656565"/><path d="m22.347656 9.027344 3.515625-3.511719h-4.6875l-3.511719 3.511719zm0 0" fill="#656565"/><path d="m22.484375 2.136719 3.378906 3.378906-3.515625 3.511719h3.515625l3.511719-3.511719-3.378906-3.378906zm0 0" fill="#3f3f3f"/><path d="m17.664062 5.515625-3.515624 3.511719h3.515624l3.511719-3.511719-3.378906-3.378906h-3.511719zm0 0" fill="#3f3f3f"/><path d="m12.976562 5.515625-3.511718 3.511719h4.6875l3.511718-3.511719zm0 0" fill="#656565"/><path d="m5.628906 2.851562 2.664063 2.664063v3.511719h1.171875l3.511718-3.511719-3.378906-3.378906h-1.191406c-1.011719 0-1.929688.292969-2.777344.714843zm0 0" fill="#3f3f3f"/><g fill="#656565"><path d="m2.136719 9.027344h6.15625v-3.511719l-2.664063-2.664063c-2.054687 1.027344-3.492187 3.097657-3.492187 5.558594zm0 0"/><path d="m9.597656 2.136719 3.378906 3.378906h4.6875l-3.378906-3.378906zm0 0"/><path d="m17.796875 2.136719 3.378906 3.378906h4.6875l-3.382812-3.378906zm0 0"/><path d="m25.996094 2.136719 3.378906 3.378906h3.695312c-1.050781-1.984375-3.066406-3.378906-5.480468-3.378906zm0 0"/></g></g><path d="m23.929688 21.316406-10.125 5.625v-11.25zm0 0" fill="#bababa"/></svg>