<svg height="36pt" viewBox="0 0 36 36" width="36pt" xmlns="http://www.w3.org/2000/svg"><path d="m8.40625 2.136719h19.1875c3.460938 0 6.269531 2.808593 6.269531 6.269531v19.1875c0 3.460938-2.808593 6.269531-6.269531 6.269531h-19.1875c-3.460938 0-6.269531-2.808593-6.269531-6.269531v-19.1875c0-3.460938 2.808593-6.269531 6.269531-6.269531zm0 0" fill="#6493a6" fill-rule="evenodd"/><path d="m16.425781 6.1875c-3.492187 0-6.300781 2.808594-6.300781 6.300781v15.75c0 .871094.816406 1.574219 1.6875 1.574219s1.6875-.703125 1.6875-1.574219v-6.300781h4.5v-3.375h-1.5c-1.714844 0-3-1.285156-3-3v-3c0-1.714844 1.285156-3 3-3h1.5v-3.375zm0 0" fill="#3f3f3f"/><path d="m18 6.1875v3.375h1.5c1.714844 0 3 1.285156 3 3v3c0 1.714844-1.285156 3-3 3h-1.5v3.375h1.574219c3.492187 0 6.300781-2.808594 6.300781-6.300781v-3.148438c0-3.492187-2.808594-6.300781-6.300781-6.300781zm0 0" fill="#fff"/></svg>