<svg height="36pt" viewBox="0 0 36 36" width="36pt" xmlns="http://www.w3.org/2000/svg"><path d="m8.40625 2.136719h19.1875c3.460938 0 6.269531 2.808593 6.269531 6.269531v19.1875c0 3.460938-2.808593 6.269531-6.269531 6.269531h-19.1875c-3.460938 0-6.269531-2.808593-6.269531-6.269531v-19.1875c0-3.460938 2.808593-6.269531 6.269531-6.269531zm0 0" fill="#f18d00" fill-rule="evenodd"/><path d="m29.25 14.589844c-2.109375-8.914063-10.207031-8.839844-15.097656-6.511719-5.144532 2.601563-8.871094 9.265625-6.835938 14.847656 3.140625 8.417969 14.703125 8.292969 18.613282.460938 1.160156-2.871094 2.015624-4.910157-1.179688-7.636719v3.375l-1.125-2.25s-1 2.359375-2.058594 3.4375c-1.476562 1.496094-3.566406 1.0625-3.566406 1.0625.394531 1.492188 3.375 2.25 3.375 2.25-7.738281 3.660156-7.964844-2.457031-7.875-3.9375.253906-4.257812 3.675781-7.5625 8.1875-7.324219 1.4375.109375 4.1875 1.136719 4.1875 1.136719-1.035156-2.367188-2.507812-2.929688-3.375-3.375 3.394531-1.121094 5.207031 2.421875 6.75 4.464844zm0 0" fill="#fff" fill-rule="evenodd"/></svg>