<svg height="36pt" viewBox="0 0 36 36" width="36pt" xmlns="http://www.w3.org/2000/svg"><path d="m8.40625 2.136719h19.1875c3.460938 0 6.269531 2.808593 6.269531 6.269531v19.1875c0 3.460938-2.808593 6.269531-6.269531 6.269531h-19.1875c-3.460938 0-6.269531-2.808593-6.269531-6.269531v-19.1875c0-3.460938 2.808593-6.269531 6.269531-6.269531zm0 0" fill="#91dd48" fill-rule="evenodd"/><g fill="#fff"><path d="m16.871094 7.5h2.257812c2.507813 0 4.523438 1.972656 4.523438 4.421875v12.15625c0 2.449219-2.015625 4.421875-4.523438 4.421875h-2.257812c-2.507813 0-4.523438-1.972656-4.523438-4.421875v-12.15625c0-2.449219 2.015625-4.421875 4.523438-4.421875zm0 0"/><path d="m9.5 6.679688c-.664062.007812-1.199219.558593-1.191406 1.226562v5.652344c0 .667968.542968 1.210937 1.210937 1.210937h5.652344c.4375.003907.84375-.222656 1.066406-.601562.21875-.375.21875-.84375 0-1.222657-.222656-.375-.628906-.605468-1.066406-.597656h-4.441406v-4.441406c.007812-.328125-.121094-.644531-.355469-.875-.230469-.230469-.546875-.359375-.875-.351562zm0 0"/><path d="m7.097656 9.117188c-.4375-.007813-.84375.222656-1.0625.601562-.21875.375-.21875.84375 0 1.21875.21875.378906.625.609375 1.0625.601562h1.617188c.433594.007813.839844-.222656 1.0625-.601562.21875-.375.21875-.84375 0-1.21875-.222656-.378906-.628906-.609375-1.0625-.601562zm0 0"/><path d="m9.519531 21.230469c-.667969 0-1.210937.542969-1.210937 1.210937v5.652344c-.003906.4375.222656.84375.601562 1.0625.378906.222656.84375.222656 1.222656 0 .375-.21875.605469-.625.597657-1.0625v-4.441406h4.441406c.4375.007812.84375-.222656 1.066406-.601563.21875-.375.21875-.84375 0-1.21875-.222656-.378906-.628906-.609375-1.066406-.601562zm0 0"/><path d="m7.097656 24.460938c-.4375-.007813-.84375.222656-1.0625.597656-.21875.378906-.21875.847656 0 1.222656.21875.378906.625.605469 1.0625.601562h1.617188c.433594.003907.839844-.222656 1.0625-.601562.21875-.375.21875-.84375 0-1.222656-.222656-.375-.628906-.605469-1.0625-.597656zm0 0"/><path d="m26.460938 6.679688c-.667969.007812-1.203126.558593-1.191407 1.226562v4.441406h-4.441406c-.4375-.007812-.84375.222656-1.066406.597656-.21875.378907-.21875.847657 0 1.222657.222656.378906.628906.605469 1.066406.601562h5.652344c.667969 0 1.210937-.542969 1.210937-1.210937v-5.652344c.003906-.328125-.125-.644531-.355468-.875-.234376-.230469-.546876-.359375-.875-.351562zm0 0"/><path d="m27.285156 9.117188c-.433594-.007813-.839844.222656-1.0625.601562-.21875.375-.21875.84375 0 1.21875.222656.378906.628906.609375 1.0625.601562h1.617188c.4375.007813.84375-.222656 1.0625-.601562.21875-.375.21875-.84375 0-1.21875-.21875-.378906-.625-.609375-1.0625-.601562zm0 0"/><path d="m20.828125 21.230469c-.4375-.007813-.84375.222656-1.066406.601562-.21875.375-.21875.84375 0 1.21875.222656.378907.628906.609375 1.066406.601563h4.441406v4.441406c-.007812.4375.222657.84375.597657 1.0625.378906.222656.84375.222656 1.222656 0 .378906-.21875.605468-.625.601562-1.0625v-5.652344c0-.667968-.542968-1.210937-1.210937-1.210937zm0 0"/><path d="m27.285156 24.460938c-.433594-.007813-.839844.222656-1.0625.597656-.21875.378906-.21875.847656 0 1.222656.222656.378906.628906.605469 1.0625.601562h1.617188c.4375.003907.84375-.222656 1.0625-.601562.21875-.375.21875-.84375 0-1.222656-.21875-.375-.625-.605469-1.0625-.597656zm0 0"/></g><path d="m16.386719 9.117188c0 1.335937-1.085938 2.421874-2.425781 2.421874-1.335938 0-2.421876-1.085937-2.421876-2.421874 0-1.339844 1.085938-2.421876 2.421876-2.421876 1.339843 0 2.425781 1.082032 2.425781 2.421876zm0 0" fill="#9a48dd"/><path d="m15.578125 9.117188c0 .890624-.722656 1.613281-1.617187 1.613281-.890626 0-1.613282-.722657-1.613282-1.613281 0-.890626.722656-1.613282 1.613282-1.613282.894531 0 1.617187.722656 1.617187 1.613282zm0 0" fill="#fff"/><path d="m24.460938 9.117188c0 1.335937-1.085938 2.421874-2.421876 2.421874-1.339843 0-2.425781-1.085937-2.425781-2.421874 0-1.339844 1.085938-2.421876 2.425781-2.421876 1.335938 0 2.421876 1.082032 2.421876 2.421876zm0 0" fill="#9a48dd"/><path d="m23.652344 9.117188c0 .890624-.722656 1.613281-1.613282 1.613281-.894531 0-1.617187-.722657-1.617187-1.613281 0-.890626.722656-1.613282 1.617187-1.613282.890626 0 1.613282.722656 1.613282 1.613282zm0 0" fill="#fff"/></svg>