<svg height="36pt" viewBox="0 0 36 36" width="36pt" xmlns="http://www.w3.org/2000/svg"><path d="m8.40625 2.136719h19.1875c3.460938 0 6.269531 2.808593 6.269531 6.269531v19.1875c0 3.460938-2.808593 6.269531-6.269531 6.269531h-19.1875c-3.460938 0-6.269531-2.808593-6.269531-6.269531v-19.1875c0-3.460938 2.808593-6.269531 6.269531-6.269531zm0 0" fill="#ccc" fill-rule="evenodd"/><path d="m21.210938 11.664062c2.636718 2.636719 2.636718 6.910157 0 9.546876-2.636719 2.636718-6.910157 2.636718-9.546876 0-2.636718-2.636719-2.636718-6.910157 0-9.546876 2.636719-2.636718 6.910157-2.636718 9.546876 0zm0 0" fill="#484848"/><path d="m19.617188 19.617188c.441406-.4375 1.152343-.4375 1.59375 0l4.773437 4.773437c.4375.441406.4375 1.152344 0 1.59375-.441406.4375-1.152344.4375-1.59375 0l-4.773437-4.773437c-.4375-.441407-.4375-1.152344 0-1.59375zm0 0" fill="#484848"/><path d="m19.613281 13.238281c-1.769531-1.769531-4.585937-1.765625-6.351562 0s-1.765625 4.582031 0 6.351563c1.765625 1.765625 4.585937 1.761718 6.351562 0 1.765625-1.765625 1.765625-4.585938 0-6.351563zm0 0" fill="#5d99ff"/></svg>