<svg height="36pt" viewBox="0 0 36 36" width="36pt" xmlns="http://www.w3.org/2000/svg"><path d="m8.40625 2.136719h19.1875c3.460938 0 6.269531 2.808593 6.269531 6.269531v19.1875c0 3.460938-2.808593 6.269531-6.269531 6.269531h-19.1875c-3.460938 0-6.269531-2.808593-6.269531-6.269531v-19.1875c0-3.460938 2.808593-6.269531 6.269531-6.269531zm0 0" fill="#1d81e8" fill-rule="evenodd"/><path d="m18 6.75c-6.214844 0-11.25 5.035156-11.25 11.25s5.035156 11.25 11.25 11.25 11.25-5.035156 11.25-11.25-5.035156-11.25-11.25-11.25zm-5.375 7.875c1.332031-.03125 2.582031 1.070312 2.992188 2.640625.476562 1.816406-.339844 3.621094-1.816407 4.027344-1.480469.410156-3.066406-.738281-3.542969-2.558594-.472656-1.816406.339844-3.621094 1.816407-4.027344.179687-.050781.363281-.078125.550781-.082031zm10.75 0c .1875.003906.371094.03125.550781.082031 1.476563.40625 2.292969 2.210938 1.816407 4.027344-.230469.875-.730469 1.636719-1.394532 2.117187-.664062.480469-1.4375.636719-2.148437.441407-1.476563-.40625-2.292969-2.210938-1.816407-4.027344.410157-1.570313 1.660157-2.671875 2.992188-2.640625zm0 0" fill="#ffc05b"/></svg>