<svg height="36pt" viewBox="0 0 36 36" width="36pt" xmlns="http://www.w3.org/2000/svg" xmlns:xlink="http://www.w3.org/1999/xlink"><symbol id="a" overflow="visible"><path d="m5.953125-1.046875v-1.953125h-1.609375v-.8125h2.578125v3.140625c-.375.261719-.792969.464844-1.25.609375-.460937.1328125-.949219.203125-1.46875.203125-1.148437 0-2.042969-.332031-2.6875-1-.636719-.664063-.953125-1.59375-.953125-2.78125s.316406-2.113281.953125-2.78125c.644531-.664063 1.539063-1 2.6875-1 .46875 0 .914063.058594 1.34375.171875.4375.117188.832031.289062 1.1875.515625v1.0625c-.367187-.3125-.75-.546875-1.15625-.703125s-.839844-.234375-1.296875-.234375c-.898438 0-1.570312.25-2.015625.75-.4375.492187-.65625 1.230469-.65625 2.21875 0 .992187.21875 1.734375.65625 2.234375.445313.492188 1.117187.734375 2.015625.734375.351562 0 .664062-.023437.9375-.078125.269531-.0625.515625-.160156.734375-.296875zm0 0"/></symbol><path d="m8.40625 2.136719h19.1875c3.460938 0 6.269531 2.808593 6.269531 6.269531v19.1875c0 3.460938-2.808593 6.269531-6.269531 6.269531h-19.1875c-3.460938 0-6.269531-2.808593-6.269531-6.269531v-19.1875c0-3.460938 2.808593-6.269531 6.269531-6.269531zm0 0" fill="#4bae4f" fill-rule="evenodd"/><path d="m27.335938 27.597656c-.304688-.101562-.640626-.304687-.832032-.511718-.109375-.117188-.199218-.230469-.199218-.25 0-.019532.289062-.199219.644531-.398438s.699219-.394531.761719-.429688c.0625-.035156.410156-.234374.773437-.441406l.660156-.378906.097657.210938c.140624.296874.132812.847656-.015626 1.238281-.128906.347656-.410156.640625-.808593.84375-.265625.136719-.839844.199219-1.082031.117187zm-1.457032-1.515625c-.160156-.265625-.714844-1.230469-.882812-1.53125-.082032-.144531-.292969-.503906-.46875-.804687-.472656-.792969-.71875-1.253906-.6875-1.285156.015625-.015626.515625-.308594 1.117187-.652344.597657-.347656 1.222657-.707032 1.386719-.804688l.300781-.179687.308594.527343c.171875.292969.421875.722657.558594.960938.132812.234375.378906.660156.542969.945312.703124 1.21875.78125 1.363282.734374 1.40625-.039062.039063-.714843.433594-1.394531.816407-.109375.0625-.464843.265625-.785156.453125-.324219.183594-.59375.335937-.605469.335937-.007812 0-.066406-.082031-.125-.1875zm-4.734375-4.011719c-2.261719-.140624-4.203125-1.402343-5.378906-3.488281-.191406-.34375-.472656-1.097656-.609375-1.636719-.183594-.738281-.183594-2.230468.003906-2.980468.324219-1.304688.886719-2.304688 1.8125-3.21875.964844-.953125 1.996094-1.511719 3.300782-1.78125 3.417968-.714844 6.757812 1.277344 7.75 4.621094.683593 2.308593.042968 4.84375-1.660157 6.546874-1.203125 1.199219-2.609375 1.832032-4.363281 1.960938-.109375.007812-.496094-.003906-.855469-.023438zm1.886719-1.230468c3.03125-.769532 4.847656-3.953125 3.953125-6.929688-.515625-1.710937-1.714844-3.007812-3.371094-3.644531-1.4375-.554687-3.269531-.4375-4.585937.289063-.554688.308593-.820313.511718-1.273438.960937-.648437.648437-.964844 1.117187-1.273437 1.890625-.832031 2.09375-.308594 4.492188 1.316406 6.046875 1.4375 1.371094 3.324219 1.871094 5.234375 1.386719zm0 0" fill="#fff"/><use fill="#c6fbcf" x="17.378906" xlink:href="#a" y="18.89978"/><path d="m6.921875 15.808594c-.355469-.222656-.351563-.972656.007813-1.191406.109374-.0625.714843-.078126 3.261718-.078126h3.128906l-.027343.132813c-.011719.070313-.046875.34375-.070313.601563-.023437.257812-.050781.503906-.058594.542968-.023437.113282-6.0625.101563-6.242187-.007812zm-.042969-3.101563c-.121094-.085937-.222656-.355469-.222656-.609375 0-.167968.03125-.261718.140625-.417968l.140625-.199219h3.679688c2.023437 0 3.679687.019531 3.679687.039062 0 .023438-.082031.214844-.183594.429688-.097656.210937-.210937.484375-.253906.605469l-.070313.21875-3.410156-.003907c-2.207031 0-3.445312-.023437-3.5-.0625zm.039063-3.046875c-.148438-.085937-.261719-.347656-.261719-.617187 0-.3125.171875-.585938.402344-.640625.222656-.050782 10.359375-.046875 10.359375.007812 0 .023438-.136719.105469-.296875.179688-.347656.15625-.910156.554687-1.265625.890625l-.25.238281-4.300781-.003906c-2.363282-.003906-4.335938-.027344-4.386719-.054688zm0 0" fill="#c6fbcf"/></svg>