<svg height="36pt" viewBox="0 0 36 36" width="36pt" xmlns="http://www.w3.org/2000/svg"><path d="m8.40625 2.136719h19.1875c3.460938 0 6.269531 2.808593 6.269531 6.269531v19.1875c0 3.460938-2.808593 6.269531-6.269531 6.269531h-19.1875c-3.460938 0-6.269531-2.808593-6.269531-6.269531v-19.1875c0-3.460938 2.808593-6.269531 6.269531-6.269531zm0 0" fill="#7e100e" fill-rule="evenodd"/><path d="m12.167969 8h11.664062l.835938 1.667969v17.5l-.835938.832031h-11.664062l-.835938-.832031v-17.5zm0 0" fill="#c2352a"/><g fill="#fff"><path d="m12.167969 7.167969h11.664062v.832031h-11.664062zm0 0"/><path d="m11.332031 9.667969h13.335938v.832031h-13.335938zm0 0"/><path d="m11.332031 26.332031h13.335938v.835938h-13.335938zm0 0"/><path d="m12.167969 28h11.664062v.832031h-11.664062zm0 0"/></g><path d="m-34.097236 4.339745 7.650503 8.06013" fill="none" stroke="#fff" stroke-width="1.191641" transform="matrix(.944076 0 0 .944076 44.331006 6.000607)"/><path d="m-30.096134 8.316021v7.042269" fill="none" stroke="#fff" stroke-width="1.191641" transform="matrix(.944076 0 0 .944076 44.331006 6.000607)"/><g fill="#fff"><path d="m22.167969 18.417969c0 1.148437-.933594 2.082031-2.085938 2.082031-1.148437 0-2.082031-.933594-2.082031-2.082031 0-1.152344.933594-2.085938 2.082031-2.085938 1.152344 0 2.085938.933594 2.085938 2.085938zm0 0"/><path d="m18 21.75c0 1.152344-.933594 2.082031-2.082031 2.082031-1.152344 0-2.085938-.929687-2.085938-2.082031s.933594-2.082031 2.085938-2.082031c1.148437 0 2.082031.929687 2.082031 2.082031zm0 0"/><path d="m18 14.25c0 1.152344-.933594 2.082031-2.082031 2.082031-1.152344 0-2.085938-.929687-2.085938-2.082031s.933594-2.082031 2.085938-2.082031c1.148437 0 2.082031.929687 2.082031 2.082031zm0 0"/></g></svg>