<svg height="36pt" viewBox="0 0 36 36" width="36pt" xmlns="http://www.w3.org/2000/svg" xmlns:xlink="http://www.w3.org/1999/xlink"><clipPath id="a"><path d="m0 0h36v36h-36z"/></clipPath><clipPath id="b"><path d="m0 0h36v36h-36z"/></clipPath><clipPath id="c"><path d="m0 0h36v36h-36z"/></clipPath><path d="m8.40625 2.136719h19.1875c3.460938 0 6.269531 2.808593 6.269531 6.269531v19.1875c0 3.460938-2.808593 6.269531-6.269531 6.269531h-19.1875c-3.460938 0-6.269531-2.808593-6.269531-6.269531v-19.1875c0-3.460938 2.808593-6.269531 6.269531-6.269531zm0 0" fill="#ccc" fill-rule="evenodd"/><g clip-path="url(#a)"><path d="m15.414062 13.5c-1.671874 0-3.039062 1.257812-3.039062 2.8125 0 .808594.367188 1.546875.953125 2.0625l4.597656 4.125 4.746094-4.125c.585937-.511719.953125-1.253906.953125-2.0625 0-1.554688-1.367188-2.8125-3.039062-2.8125-1.101563 0-2.054688.542969-2.585938 1.359375-.53125-.816406-1.484375-1.359375-2.585938-1.359375zm0 0" fill="#e74c3c"/></g><g clip-path="url(#b)"><path d="m9.089844 11.25c-.667969 0-1.214844.472656-1.214844 1.054688 0 .304687.144531.582031.382812.773437l1.835938 1.546875 1.898438-1.546875c.238281-.191406.382812-.46875.382812-.773437 0-.582032-.546875-1.054688-1.214844-1.054688-.441406 0-.824218.203125-1.035156.507812-.210938-.304687-.59375-.507812-1.035156-.507812zm0 0" fill="#e74c3c"/></g><path d="m11.140625 9.304688h-1.8125l-.285156.820312h-1.167969l1.667969-4.5h1.382812l1.667969 4.5h-1.167969zm-1.523437-.835938h1.234374l-.617187-1.789062zm0 0" fill="#e74c3c"/><g clip-path="url(#c)"><path d="m26.910156 24.75c.667969 0 1.214844-.472656 1.214844-1.054688 0-.304687-.144531-.582031-.382812-.773437l-1.835938-1.546875-1.898438 1.546875c-.238281.191406-.382812.46875-.382812.773437 0 .582032.546875 1.054688 1.214844 1.054688.441406 0 .824218-.203125 1.035156-.507812.210938.304687.59375.507812 1.035156.507812zm0 0" fill="#e74c3c"/></g><path d="m24.859375 26.695312h1.8125l.285156-.820312h1.167969l-1.667969 4.5h-1.382812l-1.667969-4.5h1.167969zm1.523437.835938h-1.234374l.617187 1.789062zm0 0" fill="#e74c3c"/></svg>