<svg height="36pt" viewBox="0 0 36 36" width="36pt" xmlns="http://www.w3.org/2000/svg"><path d="m8.40625 2.136719h19.1875c3.460938 0 6.269531 2.808593 6.269531 6.269531v19.1875c0 3.460938-2.808593 6.269531-6.269531 6.269531h-19.1875c-3.460938 0-6.269531-2.808593-6.269531-6.269531v-19.1875c0-3.460938 2.808593-6.269531 6.269531-6.269531zm0 0" fill="#ececec" fill-rule="evenodd"/><path d="m21.976562 7.195312c-.269531-.160156-.617187-.066406-.773437.207032l-.773437 1.335937c-4.417969-1.089843-9.023438.871094-11.300782 4.808594-2.824218 4.890625-1.148437 11.144531 3.742188 13.964844 4.886718 2.824219 11.140625 1.148437 13.964844-3.742188 2.269531-3.941406 1.664062-8.910156-1.488282-12.1875l.773438-1.339843c.15625-.273438.0625-.617188-.207032-.777344zm0 0" fill="#4f4f4f"/><path d="m27.800781 8.382812c-.214843-.148437-.464843-.25-.722656-.320312-.515625-.140625-1.09375-.175781-1.652344-.175781-1.109375.003906-2.144531.058593-2.144531.058593l1.40625.8125c.238281-.015624.488281-.019531.742188-.019531.511718 0 1.035156.042969 1.421874.148438.390626.105469.597657.261719.660157.414062.171875.429688.074219.726563-.257813 1.136719-.335937.40625-.921875.847656-1.570312 1.296875-.644532.445313-1.351563.910156-1.941406 1.4375-.589844.53125-1.082032 1.140625-1.199219 1.90625-.128907.828125.324219 1.683594.742187 2.394531.421875.714844.863282 1.269532.863282 1.269532.347656.472656 1.046874-.082032.667968-.53125 0 0-.410156-.515626-.796875-1.167969-.382812-.65625-.691406-1.46875-.632812-1.835938.070312-.46875.40625-.933593.925781-1.402343.519531-.464844 1.199219-.917969 1.859375-1.371094.65625-.457032 1.296875-.914063 1.742187-1.460938.445313-.546875.679688-1.269531.382813-1.992187-.101563-.257813-.28125-.453125-.492187-.597657zm0 0" fill="#bbb673" fill-rule="evenodd"/><path d="m28.433594 16.824219-1.011719 2.378906 2.328125 1.222656-2.515625.667969.515625 2.550781-2.132812-1.539062-1.683594 1.957031-.136719-2.59375-2.617187-.105469 1.957031-1.691406-1.578125-2.097656 2.582031.484375.648437-2.503906 1.257813 2.296874zm0 0" fill="#ff6363"/></svg>