<svg height="36pt" viewBox="0 0 36 36" width="36pt" xmlns="http://www.w3.org/2000/svg" xmlns:xlink="http://www.w3.org/1999/xlink"><clipPath id="a"><path d="m0 0h36v36h-36z"/></clipPath><path d="m8.40625 2.136719h19.1875c3.460938 0 6.269531 2.808593 6.269531 6.269531v19.1875c0 3.460938-2.808593 6.269531-6.269531 6.269531h-19.1875c-3.460938 0-6.269531-2.808593-6.269531-6.269531v-19.1875c0-3.460938 2.808593-6.269531 6.269531-6.269531zm0 0" fill="#4f4f4f" fill-rule="evenodd"/><g clip-path="url(#a)"><path d="m14.664062 26.714844c0-.464844.066407-.859375.199219-1.183594.132813-.324219.320313-.582031.558594-.78125s.519531-.34375.84375-.433594c.320313-.089844.664063-.132812 1.035156-.132812.347657 0 .675781.042968.988281.132812s.589844.234375.828126.433594c.238281.199219.425781.457031.566406.78125.136718.324219.207031.71875.207031 1.183594 0 .449218-.070313.832031-.207031 1.148437-.140625.316407-.328125.582031-.566406.789063-.238282.210937-.515626.359375-.828126.457031-.3125.09375-.640624.140625-.988281.140625-.371093 0-.714843-.046875-1.035156-.140625-.324219-.09375-.605469-.246094-.84375-.453125-.238281-.210938-.425781-.476562-.558594-.792969-.132812-.316406-.199219-.699219-.199219-1.148437m.488282-5.09375v-1.101563c0-.507812.054687-.96875.160156-1.378906.101562-.414063.261719-.804687.476562-1.175781.210938-.375.488282-.738282.824219-1.089844.339844-.351562.746094-.71875 1.222657-1.09375.417968-.328125.769531-.621094 1.058593-.878906.289063-.257813.519531-.515625.699219-.769532.179688-.253906.308594-.519531.386719-.796874.082031-.277344.121093-.601563.121093-.96875 0-.566407-.191406-1.03125-.574218-1.398438-.382813-.367188-.96875-.550781-1.75-.550781-.6875 0-1.425782.140625-2.214844.429687-.789062.289063-1.605469.640625-2.449219 1.058594l-1.519531-3.292969c.425781-.25.890625-.484375 1.390625-.707031.503906-.222656 1.027344-.421875 1.566406-.597656.542969-.171875 1.089844-.308594 1.644531-.410156.558594-.097657 1.105469-.148438 1.640626-.148438 1.011718 0 1.925781.121094 2.742187.367188.8125.242187 1.503906.597656 2.070313 1.0625.566406.46875 1 1.035156 1.304687 1.699218.300781.667969.453125 1.425782.453125 2.28125 0 .625-.070312 1.183594-.207031 1.675782-.140625.492187-.347657.949218-.617188 1.371093-.277343.421875-.617187.828125-1.03125 1.222657-.410156.390624-.890625.804687-1.4375 1.242187-.417969.328125-.757812.613281-1.019531.855469-.265625.246094-.46875.476562-.617188.695312-.152343.21875-.253906.445313-.308593.675782-.054688.234374-.082031.507812-.082031.828124v.894532zm0 0" fill="#b7b7b7"/></g></svg>