<svg height="36pt" viewBox="0 0 36 36" width="36pt" xmlns="http://www.w3.org/2000/svg"><path d="m8.40625 2.136719h19.1875c3.460938 0 6.269531 2.808593 6.269531 6.269531v19.1875c0 3.460938-2.808593 6.269531-6.269531 6.269531h-19.1875c-3.460938 0-6.269531-2.808593-6.269531-6.269531v-19.1875c0-3.460938 2.808593-6.269531 6.269531-6.269531zm0 0" fill="#4f4f4f" fill-rule="evenodd"/><path d="m17.578125 7.878906.03125 21.085938h1.65625v-21.085938zm0 0" fill="#f38577"/><path d="m14.203125 11.253906v1.6875h1.6875v-1.6875zm-1.683594 2.527344v1.6875h3.371094v-1.6875zm-3.375 2.53125v1.6875h6.746094v-1.6875zm-1.6875 2.53125v1.6875h8.433594v-1.6875zm1.6875 2.53125v1.683594h6.746094v-1.683594zm3.375 2.527344v1.6875h3.371094v-1.6875zm0 0" fill="#83b9f5" fill-rule="evenodd"/><path d="m21.796875 7.035156h-6.75l3.375 5.0625zm0 0" fill="#d85656"/><path d="m21.609375 13.53125c-.3125.015625-.648437.289062-.644531.59375l-.011719 8.933594c0 .402344.59375.753906.933594.515625l6.398437-4.484375c.34375-.238282.34375-.792969 0-1.03125l-6.386718-4.449219c-.085938-.058594-.1875-.085937-.289063-.078125zm0 0" fill="#527eb2"/></svg>