<svg height="36pt" viewBox="0 0 36 36" width="36pt" xmlns="http://www.w3.org/2000/svg"><path d="m8.40625 2.136719h19.1875c3.460938 0 6.269531 2.808593 6.269531 6.269531v19.1875c0 3.460938-2.808593 6.269531-6.269531 6.269531h-19.1875c-3.460938 0-6.269531-2.808593-6.269531-6.269531v-19.1875c0-3.460938 2.808593-6.269531 6.269531-6.269531zm0 0" fill="#e6e6e6" fill-rule="evenodd"/><path d="m9.675781 21.167969c-.425781-.089844-.804687-.289063-1.109375-.585938-.304687-.292969-.515625-.65625-.601562-1.042969l-.050782-.214843.007813-5.15625.007813-5.160157.078124-.222656c.140626-.414062.371094-.742187.695313-1 .367187-.296875.78125-.457031 1.273437-.503906.183594-.015625 1.621094-.019531 4.308594-.015625 4.378906.011719 4.09375 0 4.476563.136719.707031.242187 1.234375.808594 1.421875 1.527344.054687.195312.054687.210937.0625 2.488281l.007812 2.289062h-2.253906v-4.289062h-7.855469v9.660156h4.480469v2.132813h-2.375c-2.199219 0-2.390625-.003907-2.574219-.042969zm0 0" fill="#8400ff"/><path d="m17.773438 28.714844c-.949219-.09375-1.730469-.753906-1.960938-1.65625l-.050781-.207032v-5.101562c0-4.757812 0-5.109375.039062-5.257812.109375-.425782.296875-.757813.582031-1.042969.277344-.277344.574219-.449219 1-.585938l.207032-.0625 4.25-.007812c4.097656-.007813 4.257812-.003907 4.46875.039062.472656.097657.875.320313 1.203125.664063.203125.21875.300781.367187.417969.644531.164062.378906.152343 0 .152343 5.621094 0 4.355469-.003906 5.097656-.03125 5.238281-.199219.945312-1 1.625-2.015625 1.714844-.3125.027344-7.976562.027344-8.261718 0zm8.082031-6.964844v-4.828125h-7.855469v9.660156h7.855469zm0 0" fill="#00b471"/><path d="m10.882812 27.730469c-1.003906-.964844-1.835937-1.757813-1.847656-1.757813-.007812 0-.015625.621094-.015625 1.382813v1.382812h-2.226562v-6.445312h6.730469l-.007813 1.070312-.007813 1.074219-2.875.023438 1.824219 1.746093c1.003907.957031 1.828125 1.75 1.832031 1.757813.007813.015625-1.421874 1.398437-1.527343 1.480468-.046875.035157-.113281-.023437-1.878907-1.714843zm0 0" fill="#00b471"/><path d="m25.117188 8.269531c1.003906.964844 1.835937 1.757813 1.847656 1.757813.007812 0 .015625-.621094.015625-1.382813v-1.382812h2.226562v6.445312h-6.730469l.007813-1.070312.007813-1.074219 2.875-.023438-1.824219-1.746093c-1.003907-.957031-1.828125-1.75-1.832031-1.757813-.007813-.015625 1.421874-1.398437 1.527343-1.480468.046875-.035157.113281.023437 1.878907 1.714843zm0 0" fill="#8400ff"/></svg>