<svg height="36pt" viewBox="0 0 36 36" width="36pt" xmlns="http://www.w3.org/2000/svg"><path d="m8.40625 2.136719h19.1875c3.460938 0 6.269531 2.808593 6.269531 6.269531v19.1875c0 3.460938-2.808593 6.269531-6.269531 6.269531h-19.1875c-3.460938 0-6.269531-2.808593-6.269531-6.269531v-19.1875c0-3.460938 2.808593-6.269531 6.269531-6.269531zm0 0" fill="#2c80c2" fill-rule="evenodd"/><path d="m29.816406 18c0 6.527344-5.289062 11.816406-11.816406 11.816406s-11.816406-5.289062-11.816406-11.816406 5.289062-11.816406 11.816406-11.816406 11.816406 5.289062 11.816406 11.816406zm0 0" fill="#37a0f2"/><path d="m16.882812 6.246094c-1.492187.140625-2.941406.5625-4.277343 1.242187.0625.1875-.007813.402344-.226563.589844-.144531.128906-.265625.328125-.265625.441406 0 .355469.320313.898438.574219.976563.339844.105468.226562.46875-.210938.667968-.203124.09375-.449218.359376-.550781.59375-.101562.234376-.253906.464844-.335937.511719-.078125.050781-.148438.234375-.148438.40625 0 .246094.113282.367188.480469.511719.265625.105469.582031.183594.703125.171875.703125-.066406.753906.34375.136719 1.144531-.328125.425782-.484375.53125-.707031.480469-.207032-.050781-.320313.007813-.414063.214844-.101563.214843-.261719.289062-.699219.320312-.429687.03125-.625.117188-.785156.351563-.117188.171875-.289062.3125-.378906.3125s-.304688.117187-.472656.257812c-.347657.285156-.480469.316406-.601563.128906-.160156-.25-.503906-.125-1.019531.367188-.453125.4375-.507813.550781-.441406.929688.121093.671874.488281 1.265624.902343 1.476562.363281.179688.371094.199219.152344.433594-.128906.132812-.34375.277344-.484375.320312-.398438.121094-.175781.273438.539062.363282.730469.09375.957032.359374.617188.71875-.191406.203124-.179688.238281.125.429687.597656.375 1.070312.144531.511719-.246094-.359375-.25-.109375-.355469.417969-.171875.421874.144532.507812.136719.753906-.078125.511718-.441406 1.066406.210938.601562.707031-.296875.3125-.207031.695313.175782.746094.171874.023438.523437.179688.785156.351563.261718.171875.550781.3125.636718.3125.085938 0 .328126.171875.539063.382812.429687.429688.667969.484375.789063.179688.144531-.363281.085937-.550781-.304688-.976563-.3125-.339844-.816406-1.242187-.816406-1.460937 0-.132813.511718-.019531.800781.175781.179687.125.472656.285156.648437.355469.1875.078125.382813.316406.472657.578125.140625.410156.195312.445312.6875.445312h.53125l.082031.957032c.097656 1.15625.191406 1.390624.585938 1.484374.292968.070313.605468.523438.605468.878907 0 .09375-.210937.324219-.46875.507812-.316406.234375-.453125.429688-.433594.625.027344.242188-.027343.277344-.371093.253907-.21875-.015626-.601563.0625-.847657.171874-.292968.132813-.605468.171876-.902343.121094-.339844-.0625-.457031-.039062-.457031.09375 0 .097656-.117188.28125-.261719.410156-.359375.308594-.210938.472657.339843.375.339844-.0625.476563-.035156.535157.113282.125.3125-.195313.761718-.488281.6875-.1875-.046875-.28125.019531-.335938.242187-.023438.078125-.058594.144531-.101562.199219.605468.238281 1.230468.421875 1.867187.554688-.058594-.113282-.125-.214844-.191406-.261719-.304688-.214844-.101563-.773438.320312-.875.425781-.101563.359375-.378907-.105469-.433594-.40625-.046875-.839843-.457031-.703124-.667969.089843-.144531.480468-.121094 1.265624.066406.355469.082032.601563-.085937 1.421876-.988281.480468-.523437.84375-.738281 1.25-.738281.152343 0 .699218-.144531 1.214843-.316406.976563-.324219 1.355469-.3125 1.320313.042968-.074219.738282.402344.714844 1.179687-.058593.324219-.324219.621094-.558594.65625-.523438.148438.144531-.117187.835938-.429687 1.117188-.394532.355469-.414063.578125-.066406.757812.191406.097657.273437.296875.300781.742188l.042969.605469h.492187c.171875 0 .316406.023437.433594.066406 3.441406-2.066406 5.597656-5.738282 5.722656-9.75-.179687-.386719-.167969-.621094 0-.882813-.011719-.222656-.027344-.441406-.050781-.664062-.109375-.003907-.21875-.007813-.34375-.003907-.597656.027344-1.105469-.210937-1.105469-.507812 0-.0625-.210937-.324219-.472656-.578125-.292969-.289063-.441407-.542969-.398438-.675781.039063-.121094-.046875-.316406-.199219-.449219-.148437-.125-.269531-.332031-.269531-.457031 0-.199219-.125-.222656-1.035156-.203125l-1.035156.027343.015625 1.019532c.03125 1.789062.296875 2.253906 1.121094 1.957031.375-.140625 1.300781-.035156 1.5625.171875.09375.078125.234374.351562.304687.609375.074219.261719.34375.710937.601563 1 .527343.585937.566406.8125.265624 1.503906-.261718.597657-.542968.53125-.488281-.121093l.042969-.484376-.445312.082032c-.242188.046875-.550782.226562-.6875.40625-.199219.253906-.289063.292968-.4375.175781-.101563-.082031-.183594-.253906-.183594-.382813 0-.125-.128906-.269531-.28125-.3125-.152344-.046874-.363282-.28125-.46875-.519531-.164063-.378906-.160156-.496093.03125-.957031.195312-.46875.199218-.546875.015625-.71875-.164063-.160156-.25-.164062-.464844-.035156-.21875.132812-.324219.121094-.582031-.054688-.175782-.113281-.476563-.210937-.675782-.210937-.398437 0-.519531-.195313-.519531-.835938 0-.589843-.351562-.808593-1.191406-.730469-.585937.054688-.714844.015626-1.183594-.347656-.292969-.222656-.75-.761718-1.023437-1.199218-.273438-.433594-.566406-.890626-.648438-1.011719-.125-.171875-.09375-.339844.144532-.816407l.304687-.59375-.640625.085938c-1.140625.152344-1.375.300781-.882812.566406.191406.101563.199218.152344.050781.324219-.09375.109375-.140625.289063-.097657.390625.039063.105469-.011718.351562-.117187.546875-.109375.195313-.199219.472656-.203125.613281-.007812.4375-.761719.789063-1.601562.742188-1.273438-.070313-1.378907-.050782-1.828126.371094-.566406.523437-.640624.769531-.375 1.253906.253907.472656.707032.660156 1.488282.621094.703125-.035157.78125.027343.621094.492187-.136719.394531-.59375.542969-.902344.296875-.238282-.1875-1.0625-.042969-1.316406.234375-.105469.117187-.261719.421875-.347657.679687-.148437.4375-.191406.464844-.851562.53125-.660157.0625-.726563.042969-1.199219-.394531-.53125-.488281-.621094-.863281-.367188-1.507812.113282-.28125.199219-.328125.5-.273438.601563.109375.835938-.097656.835938-.738281 0-.3125-.058594-.601562-.132812-.644531-.074219-.042969-.132813-.207031-.132813-.367188 0-.15625-.078125-.359375-.167969-.449219-.136718-.128906-.117187-.199218.097656-.351562.148438-.101562.390626-.171875.535157-.15625.148437.019531.554687-.042969.90625-.140625.507812-.136719.65625-.238281.722656-.503906.128906-.507813.449219-.914063.714844-.914063.417969 0 .425781-.988281.019531-2.421875-.0625-.214843-.226562-.347656-.519531-.421875-.238281-.058594-.496094-.21875-.574219-.359375s-.21875-.253906-.316406-.253906-.285156-.113281-.417969-.253906c-.132813-.144531-.410156-.257813-.621094-.257813-.5 0-.507812-.34375-.011719-.523437.523438-.191407 1.335938.058593 1.53125.472656.269532.558594.5625.324219.660157-.519531.117187-1.050782.476562-1.351563 1.617187-1.351563h.820313l-.359375-.359375c-.113282-.109375-.203125-.246094-.269532-.382812zm4.25.371094c-.023437.023437-.046874.039062-.070312.0625-.273438.28125-.402344.320312-.824219.253906-.742187-.113282-.644531.1875.171875.546875.445313.195312.726563.414062.824219.640625.46875 1.082031.789063 1.664062.949219 1.722656.328125.121094.523437-.121094.59375-.734375.082031-.707031.324218-.855469.753906-.472656.164062.152343.398438.273437.515625.273437.367187 0 .636719.148438.636719.347656 0 .105469.125.355469.277344.5625.222656.300782.375.371094.792968.371094.511719 0 .828125.097656 1.472656.449219.007813.007813.019532.007813.027344.015625-1.558594-1.960938-3.703125-3.375-6.121094-4.039062zm-14.945312 11.332031c-.003906.015625-.003906.035156-.003906.050781.003906.761719.082031 1.523438.230468 2.269531.429688.175781.546876.105469.589844-.292969.023438-.207031.132813-.441406.242188-.519531.167968-.125.136718-.1875-.207032-.425781-.226562-.152344-.445312-.417969-.492187-.59375-.042969-.167969-.191406-.351562-.359375-.488281zm3.71875 3.90625c-.109375-.011719-.246094.046875-.390625.1875-.3125.300781-.265625.902343.085937 1.140625.40625.269531.5625.191406.617188-.3125.0625-.617188-.070312-.992188-.3125-1.015625zm2.003906 1.785156c-.121094.003906-.253906.089844-.386718.273437-.140626.191407-.179688.441407-.125.820313.066406.460937.039062.5625-.207032.6875-.308594.160156-.375.632813-.121094.878906.253907.242188.496094.179688.582032-.15625.125-.472656.820312-.527343 1.296875-.101562.203125.179687.367187.273437.367187.203125 0-.070313-.210937-.324219-.46875-.5625-.394531-.363282-.46875-.519532-.46875-.992188 0-.664062-.203125-1.058594-.46875-1.050781zm-3.292968 1.527344c.089843.117187.179687.230469.273437.34375-.078125-.125-.171875-.242188-.273437-.34375zm3.984374 1.8125c-.0625.019531-.085937.097656-.085937.226562 0 .132813-.085937.273438-.191406.3125-.136719.050781-.167969.210938-.117188.59375.011719.070313.015625.128907.019531.1875.160157.089844.324219.171875.488282.253907-.007813-.207032.03125-.445313.136718-.746094.183594-.511719.1875-.640625.042969-.730469-.140625-.085937-.234375-.117187-.292969-.097656zm0 0" fill="#2c80c2"/><path d="m27.921875 31.265625h-8.953125v-4.476563h8.953125zm0 0" fill="#b7b7b7"/><path d="m29.085938 27.234375h-11.28125c-.347657 0-.625-.285156-.625-.632813v-6.34375c0-.351562.277343-.632812.625-.632812h11.28125c.347656 0 .628906.28125.628906.632812v6.34375c0 .347657-.28125.632813-.628906.632813zm0 0" fill="#999"/><g fill="#808080"><path d="m27.027344 25.445312h-7.164063v-.894531h7.164063zm0 0"/><path d="m26.132812 23.652344h-5.371093v-.894532h5.371093zm0 0"/><path d="m25.238281 21.863281h-3.582031v-.894531h3.582031zm0 0"/><path d="m27.027344 30.367188h-2.238282v-1.339844h2.238282zm0 0"/><path d="m22.101562 30.367188h-2.238281v-1.339844h2.238281zm0 0"/></g></svg>