<svg height="36pt" viewBox="0 0 36 36" width="36pt" xmlns="http://www.w3.org/2000/svg"><path d="m8.40625 2.136719h19.1875c3.460938 0 6.269531 2.808593 6.269531 6.269531v19.1875c0 3.460938-2.808593 6.269531-6.269531 6.269531h-19.1875c-3.460938 0-6.269531-2.808593-6.269531-6.269531v-19.1875c0-3.460938 2.808593-6.269531 6.269531-6.269531zm0 0" fill="#eba229" fill-rule="evenodd"/><path d="m19.699219 10.121094c-3.410157 0-6.222657 2.785156-6.222657 6.1875 0 1.296875.4375 2.484375 1.125 3.484375l-4.148437 4.148437c-.445313.433594-.453125 1.148438-.015625 1.59375.433594.449219 1.148438.457032 1.597656.023438l4.148438-4.148438c.996094.683594 2.21875 1.089844 3.515625 1.089844 3.40625 0 6.1875-2.785156 6.1875-6.1875 0-3.40625-2.78125-6.1875-6.1875-6.1875zm0 2.25c2.191406 0 3.9375 1.75 3.9375 3.9375 0 2.191406-1.746094 3.9375-3.9375 3.9375-2.191407 0-3.9375-1.746094-3.9375-3.9375 0-2.1875 1.746093-3.9375 3.9375-3.9375zm0 0" fill="#fff"/></svg>