<svg height="36pt" viewBox="0 0 36 36" width="36pt" xmlns="http://www.w3.org/2000/svg"><path d="m8.40625 2.136719h19.1875c3.460938 0 6.269531 2.808593 6.269531 6.269531v19.1875c0 3.460938-2.808593 6.269531-6.269531 6.269531h-19.1875c-3.460938 0-6.269531-2.808593-6.269531-6.269531v-19.1875c0-3.460938 2.808593-6.269531 6.269531-6.269531zm0 0" fill="#1da6e8" fill-rule="evenodd"/><path d="m14.625 21.375c0 2.175781-1.761719 3.9375-3.9375 3.9375s-3.9375-1.761719-3.9375-3.9375 1.761719-3.9375 3.9375-3.9375 3.9375 1.761719 3.9375 3.9375zm0 0" fill="#ffe174"/><path d="m15.75 16.3125c0 1.863281-1.511719 3.375-3.375 3.375s-3.375-1.511719-3.375-3.375 1.511719-3.375 3.375-3.375 3.375 1.511719 3.375 3.375zm0 0" fill="#ffd338"/><path d="m23.625 15.75c0 2.796875-2.265625 5.0625-5.0625 5.0625s-5.0625-2.265625-5.0625-5.0625 2.265625-5.0625 5.0625-5.0625 5.0625 2.265625 5.0625 5.0625zm0 0" fill="#ffb822"/><path d="m29.25 20.25c0 2.796875-2.265625 5.0625-5.0625 5.0625s-5.0625-2.265625-5.0625-5.0625 2.265625-5.0625 5.0625-5.0625 5.0625 2.265625 5.0625 5.0625zm0 0" fill="#ff7c2d"/><path d="m23.625 19.6875c0 3.105469-2.519531 5.625-5.625 5.625s-5.625-2.519531-5.625-5.625 2.519531-5.625 5.625-5.625 5.625 2.519531 5.625 5.625zm0 0" fill="#ff972d"/></svg>