<svg height="36pt" viewBox="0 0 36 36" width="36pt" xmlns="http://www.w3.org/2000/svg"><path d="m8.40625 2.136719h19.1875c3.460938 0 6.269531 2.808593 6.269531 6.269531v19.1875c0 3.460938-2.808593 6.269531-6.269531 6.269531h-19.1875c-3.460938 0-6.269531-2.808593-6.269531-6.269531v-19.1875c0-3.460938 2.808593-6.269531 6.269531-6.269531zm0 0" fill="#fecd38" fill-rule="evenodd"/><path d="m18.660156 12.347656-2.910156 10.867188 1.628906.4375 2.914063-10.867188zm2.152344.054688v2.25l2.8125 2.8125-2.8125 2.8125v2.25l5.625-5.0625zm-5.625 1.125-5.625 5.0625 5.625 5.0625v-2.25l-2.8125-2.8125 2.8125-2.8125zm0 0" fill="#7f661c"/></svg>