<svg height="36pt" viewBox="0 0 36 36" width="36pt" xmlns="http://www.w3.org/2000/svg"><path d="m8.40625 2.136719h19.1875c3.460938 0 6.269531 2.808593 6.269531 6.269531v19.1875c0 3.460938-2.808593 6.269531-6.269531 6.269531h-19.1875c-3.460938 0-6.269531-2.808593-6.269531-6.269531v-19.1875c0-3.460938 2.808593-6.269531 6.269531-6.269531zm0 0" fill="#8f2713" fill-rule="evenodd"/><path d="m17.386719 12.285156h1.226562c1.015625 0 1.835938.765625 1.835938 1.714844v13.71875c0 .945312-.820313 1.714844-1.835938 1.714844h-1.226562c-1.015625 0-1.835938-.769532-1.835938-1.714844v-13.71875c0-.949219.820313-1.714844 1.835938-1.714844zm0 0" fill="#b83229"/><path d="m16.65625 17.988281c-2.699219-.050781-3.792969-.09375-4.464844-.183593-.492187-.0625-.730468-.128907-1.003906-.261719-.449219-.222657-.730469-.53125-.929688-1.03125-.1875-.457031-.261718-.820313-.328124-1.585938-.078126-.867187-.085938-1.023437-.09375-2.375-.007813-1.585937.011718-2.105469.117187-3.15625.054687-.554687.136719-.921875.289063-1.308593.140624-.355469.265624-.550782.5-.765626.289062-.273437.609374-.4375 1.011718-.523437.601563-.128906 3.320313-.230469 6.246094-.230469s5.648438.101563 6.25.230469c.433594.09375.753906.265625 1.066406.578125.242188.246094.367188.464844.519532.914062.152343.464844.210937.875.300781 2.089844.039062.574219.039062 3.230469 0 3.804688-.050781.675781-.109375 1.273437-.148438 1.488281-.105469.554687-.304687 1.070313-.53125 1.363281-.15625.203125-.460937.441406-.71875.5625-.257812.125-.503906.183594-.902343.222656-1.234376.121094-5.007813.210938-7.179688.167969zm0 0" fill="#d54c41"/><g fill="none" stroke="#fefefe" stroke-width="1.377649" transform="matrix(.816608 0 0 .816608 4.934271 4.934266)"><g stroke-linecap="round" stroke-linejoin="round"><path d="m8.499458 11.498722v-4.998762l2.099958 1.999504 1.899051-1.999504v4.998762"/><path d="m14.502756 11.498722 2.099958-4.998762 2.099959 4.998762"/><path d="m21.501023 11.498722v-4.998762"/><path d="m19.506301 6.49996h3.994227"/></g><path d="m15.201147 10.498969h2.803134"/></g></svg>