<svg height="36pt" viewBox="0 0 36 36" width="36pt" xmlns="http://www.w3.org/2000/svg"><path d="m33.75 7.839844c-.0625-.652344-.132812-1.300782-.378906-1.878906-.316406-.75-.773438-1.425782-1.339844-1.992188-.570312-.566406-1.242188-1.027344-1.996094-1.34375-.574218-.242188-1.222656-.3125-1.871094-.375h-10.164062v15.75h15.75zm0 0" fill="#21d789"/><path d="m7.835938 2.25c-.648438.0625-1.300782.132812-1.875.375-.75.316406-1.425782.777344-1.992188 1.34375s-1.027344 1.242188-1.34375 1.992188c-.242188.574218-.3125 1.226562-.375 1.875v10.164062h15.75v-15.75zm0 0" fill="#f7c73c"/><path d="m28.164062 33.75c.648438-.0625 1.300782-.132812 1.875-.375.75-.316406 1.425782-.777344 1.992188-1.34375s1.027344-1.242188 1.34375-1.992188c.242188-.574218.3125-1.226562.375-1.875v-10.164062h-15.75v15.75zm0 0" fill="#2086e7"/><path d="m2.25 28.160156c.0625.652344.136719 1.300782.378906 1.878906.316406.75.773438 1.425782 1.339844 1.992188.570312.566406 1.242188 1.027344 1.996094 1.34375.574218.242188 1.222656.3125 1.871094.375h10.164062v-15.75h-15.75zm0 0" fill="#21d789"/><path d="m10.714844 5.949219h14.570312c2.632813 0 4.765625 2.132812 4.765625 4.765625v14.570312c0 2.632813-2.132812 4.765625-4.765625 4.765625h-14.570312c-2.632813 0-4.765625-2.132812-4.765625-4.765625v-14.570312c0-2.632813 2.132812-4.765625 4.765625-4.765625zm0 0" fill="#3f3f3f" fill-rule="evenodd"/><g fill="none" stroke="#fff" stroke-linecap="round" transform="matrix(.901483 0 0 .901483 -1.315951 38.381472)"><path d="m12.929573-15.602135h8.003302"/><path d="m17.925678-21.607861v-7.998969m-4.996105 0 2.495886 3.999484 2.500219-3.999484m-4.996105 7.998969v-7.998969" stroke-linejoin="round"/><path d="m19.93192-25.577014s3.999485.463646 3.999485-1.997576c0-2.465554-3.999485-2.001908-3.999485-2.001908m0 7.998968v-7.998968" stroke-linejoin="bevel"/><path d="m25.92898-22.60015s.502644 1.000955 1.997576.996622c1.494932 0 2.001909-.996622 2.001909-1.997576 0-4.216141-3.999485.207991-3.990819-3.990818-.008666-1.009621.472312-2.010575 1.98891-2.010575 1.516597 0 2.001909 1.000954 2.001909 1.000954" stroke-linejoin="round"/></g></svg>