<svg height="36pt" viewBox="0 0 36 36" width="36pt" xmlns="http://www.w3.org/2000/svg"><path d="m8.40625 2.136719h19.1875c3.460938 0 6.269531 2.808593 6.269531 6.269531v19.1875c0 3.460938-2.808593 6.269531-6.269531 6.269531h-19.1875c-3.460938 0-6.269531-2.808593-6.269531-6.269531v-19.1875c0-3.460938 2.808593-6.269531 6.269531-6.269531zm0 0" fill="#4f4f4f" fill-rule="evenodd"/><path d="m14.757812 6.75c-.066406.003906-.132812.023438-.199218.070312-.066406.046876-.121094.132813-.132813.203126-.027343.148437.007813.21875.066407.34375.277343.519531.554687.921874.660156 1.230468.1875.425782.183594.824219.132812 1.09375l-.328125 1.640625c-1.671875.402344-3.285156.804688-4.898437 1.367188-.3125.105469-.550782.210937-.792969.34375-.023437-.003907-.042969-.003907-.066406 0-.085938.050781-.089844.128906-.132813.203125-.019531.039062-.058594.085937-.066406.136718-.003906.054688.019531.144532.066406.207032.140625.199218.332032.285156.597656.410156.261719.125.566407.257812.792969.339844 1.121094.425781 2.566407.765625 3.703125.890625-.304687 1.429687-.601562 2.84375-1.058594 4.238281-.109374.339844-.25.695312-.394531 1.027344-.417969.957031-.945312 1.828125-1.457031 2.667968-.539062.78125-.996094 1.546876-1.585938 2.253907-.113281.121093-.289062.226562-.398437.34375-.054687.058593-.09375.152343-.132813.203125-.019531.027344-.050781.039062-.066406.070312s-.003906.046875 0 .136719c-.003906.023437-.003906.046875 0 .066406.015625.027344.039063.050781.066406.070313.015626.027344.039063.050781.066407.066406.023437.003906.042969.003906.066406 0 .117187.019531.214844-.03125.332031-.066406.113282-.039063.191406-.070313.328125-.136719.277344-.132813.628907-.285156.925781-.480469.429688-.277344.746094-.5625.996094-.75.433594-.328125 1.414063-1.273437 1.917969-1.914062.574219-.679688 1.1875-1.40625 1.652344-2.328125.007812-.015625-.007813-.050781 0-.066407.03125-.054687.214843-.417968.265625-.546874.097656-.257813.164062-.511719.199218-.617188l1.453126-4.582031 5.097656-1.230469c-.128906 1.105469-.269532 2.175781-.398438 3.285156-.097656.910156-.164062 1.277344-.265625 2.253906-.003906.03125.003907.039063 0 .070313-.054687.300781-.21875 1.144531-.265625 1.367187-.335937 1.699219-.699218 3.238282-1.453125 4.582032-.179687.261718-.390625.535156-.597656.75-.207031-.101563-.5-.25-.925781-.273438-.007813 0-.042969.003906-.066406 0-.019532-.003906-.042969-.003906-.066407 0 0 0-.0625.070313-.066406.070313-.023437.015625-.046875.039062-.0625.066406-.03125.15625.019531.277344.0625.410156.046875.136719.082031.289063.132813.410157.382812.898437.832031 1.667968 1.257812 2.464843.015625.027344.039062.050781.066406.066407.015625.027343.039063.050781.066406.070312.023438.003906.042969.003906.066407 0 .023437.003906.042969.003906.066406 0 .027344-.019531.050781-.042969.066406-.070312.636719-.621094 1.382813-1.625 1.917969-2.460938 1.054688-1.636719 1.949219-3.464844 2.582031-5.539062.09375-.324219.167969-.648438.261719-1.027344l1.984375-7.863282c.085937-.347656.183594-.734374.199219-1.023437.003906-.023437.003906-.046875 0-.070313-.039063-.101562-.128906-.152343-.199219-.203124-.066406-.050782-.109375-.09375-.195313-.136719-.171874-.09375-.394531-.199219-.59375-.277344-.953124-.332031-1.988281-.628906-3.109374-.890625-.121094-.050781-.203126-.074219-.332032-.066406-.128906.007812-.320312.039062-.464844.066406-.285156.058594-.582031.160156-.792968.207031l-2.648438.613281c.113282-.363281.296875-.898437.132813-1.570312-.226563-.765625-.808594-1.210938-1.453125-1.4375-.550782-.191406-1.089844-.363281-1.65625-.546875-.089844-.027344-.507813-.179687-.925782-.203125zm0 0" fill="#b7b7b7"/></svg>