<svg height="36pt" viewBox="0 0 36 36" width="36pt" xmlns="http://www.w3.org/2000/svg" xmlns:xlink="http://www.w3.org/1999/xlink"><filter id="a" height="100%" width="100%" x="0%" y="0%"><feColorMatrix in="SourceGraphic" type="matrix" values="0 0 0 0 1 0 0 0 0 1 0 0 0 0 1 0 0 0 1 0"/></filter><mask id="b"><g filter="url(#a)"><path d="m0 0h36v36h-36z" fill-opacity=".501961"/></g></mask><clipPath id="c"><path d="m0 0h36v36h-36z"/></clipPath><path d="m8.40625 2.136719h19.1875c3.460938 0 6.269531 2.808593 6.269531 6.269531v19.1875c0 3.460938-2.808593 6.269531-6.269531 6.269531h-19.1875c-3.460938 0-6.269531-2.808593-6.269531-6.269531v-19.1875c0-3.460938 2.808593-6.269531 6.269531-6.269531zm0 0" fill="#dcdcbe" fill-rule="evenodd"/><g clip-path="url(#c)" mask="url(#b)"><path d="m5.625 11.25v1.125h24.75v-1.125zm0 3.375v1.125h24.75v-1.125zm0 3.375v1.125h24.75v-1.125zm0 3.375v1.125h24.75v-1.125zm0 3.375v1.125h24.75v-1.125zm0 0" fill="#2a2a2a" fill-rule="evenodd"/></g><path d="m15.96875 18.4375c-.664062-.699219-1.613281-1.136719-2.757812-1.046875-.09375-.175781-.472657-1.917969-.472657-1.917969s1.328125-1.832031 1.617188-2.183594c1.425781-2.089843 1.519531-3.75.664062-5.40625-.285156-.609374-1.046875-1.132812-1.808593-1.132812-.570313 0-1.042969.4375-1.328126.960938-.953124 1.480468-.953124 4.273437-.476562 6.191406 0 0-.476562.433594-.953125.957031-.949219.960937-1.996094 2.007813-2.375 3.402344-.476563 1.570312-.097656 3.050781.949219 4.1875 1.140625 1.304687 2.855468 1.917969 4.945312 1.742187.382813 1.65625.667969 2.703125.09375 3.664063-.1875.347656-.570312.695312-1.234375.695312-.191406 0-.285156 0-.476562-.085937.570312-.261719 1.046875-.785156 1.046875-1.394532 0-.871093-.761719-1.570312-1.710938-1.570312-1.617187.085938-1.710937 1.570312-1.710937 1.570312 0 .523438.1875 1.046876.570312 1.394532.472657.4375 1.234375.785156 2.089844.785156 1.046875 0 2.09375-.347656 2.472656-1.746094.382813-1.132812-.285156-2.964844-.378906-3.574218 1.046875-.433594 1.996094-1.742188 2.089844-2.617188.191406-.957031-.1875-2.089844-.855469-2.875zm-3.042969-9.683594c.097657-.171875.285157-.257812.476563-.257812.09375 0 .285156.085937.378906.171875.382812.175781.476562.523437.476562 1.046875-.09375 1.308594-1.332031 2.878906-1.996093 3.402344-.285157-1.222657-.09375-3.488282.664062-4.363282zm-2.757812 13.695313c-.664063-.613281-.949219-1.484375-.855469-2.355469.191406-1.394531 1.238281-2.53125 2.09375-3.402344.191406-.175781.378906-.347656.476562-.523437.09375.4375.378907 1.132812.472657 1.484375-1.140625.433594-1.804688 1.832031-1.710938 2.964844 0 .523437.191407.871093.476563 1.21875.09375.089843.191406.175781.285156.175781s.285156-.085938.285156-.175781c.09375-.085938.09375-.261719 0-.347657-.09375-.085937-.09375-.175781-.09375-.347656-.097656-.785156.472656-1.394531 1.140625-1.65625.09375.519531.757813 3.226563.855469 3.835937-1.238281.347657-2.570312 0-3.425781-.871093zm4.28125.523437c-.191407-.613281-.285157-1.308594-.476563-2.09375-.09375-.523437-.191406-1.132812-.378906-1.65625 1.234375 0 1.617188.957032 1.710938 1.304688.285156.960937 0 1.921875-.855469 2.445312zm0 0" fill="#2a2a2a"/></svg>