<svg height="36pt" viewBox="0 0 36 36" width="36pt" xmlns="http://www.w3.org/2000/svg"><path d="m8.40625 2.136719h19.1875c3.460938 0 6.269531 2.808593 6.269531 6.269531v19.1875c0 3.460938-2.808593 6.269531-6.269531 6.269531h-19.1875c-3.460938 0-6.269531-2.808593-6.269531-6.269531v-19.1875c0-3.460938 2.808593-6.269531 6.269531-6.269531zm0 0" fill="#1d3c65" fill-rule="evenodd"/><path d="m15.480469 17.257812c-6.734375-3.042968-9.277344-4.320312-9.332031-4.6875-.039063-.242187.097656-.484374.371093-.660156.234375-.15625 2.671875-1.320312 5.421875-2.585937 4.480469-2.070313 5.097656-2.308594 5.992188-2.308594.898437 0 1.515625.238281 5.996094 2.308594 2.746093 1.265625 5.183593 2.429687 5.410156 2.578125.839844.550781.550781.941406-1.355469 1.832031-10.496094 4.910156-9.84375 4.726563-12.503906 3.523437zm0 0" fill="#2aaadf"/><path d="m16.488281 23.101562c-.484375-.195312-6.027343-2.722656-8.203125-3.746093-1.160156-.546875-2.160156-1.128907-2.222656-1.296875-.164062-.421875.269531-.738282 2.277344-1.660156l1.734375-.796876 3.523437 1.628907c2.789063 1.289062 3.699219 1.628906 4.34375 1.628906.648438 0 1.558594-.339844 4.34375-1.628906l3.523438-1.628907 1.738281.796876c.953125.441406 1.882813.925781 2.0625 1.082031.726563.621093.652344.667969-7.300781 4.339843-2.546875 1.175782-2.132813.949219-2.871094 1.292969-1.0625.4375-1.851562.429688-2.949219-.011719zm0 0" fill="#81ae21"/><path d="m16.558594 28.648438c-.484375-.195313-6.027344-2.722657-8.203125-3.746094-1.160157-.546875-2.160157-1.128906-2.222657-1.296875-.160156-.421875.273438-.738281 2.277344-1.660157l1.738282-.796874 3.523437 1.628906c2.785156 1.289062 3.695313 1.628906 4.34375 1.628906.644531 0 1.554687-.339844 4.339844-1.628906l3.527343-1.628906 1.734376.796874c.953124.441407 1.882812.925782 2.066406 1.082032.726562.621094.648437.664062-7.304688 4.339844-2.542968 1.175781-2.128906.949218-2.867187 1.292968-1.066407.4375-1.851563.429688-2.953125-.011718zm0 0" fill="#eb541d"/></svg>