<svg height="36pt" viewBox="0 0 36 36" width="36pt" xmlns="http://www.w3.org/2000/svg"><g fill-rule="evenodd"><g fill="#4e91d9"><path d="m8.40625 2.136719h19.1875c3.460938 0 6.269531 2.808593 6.269531 6.269531v19.1875c0 3.460938-2.808593 6.269531-6.269531 6.269531h-19.1875c-3.460938 0-6.269531-2.808593-6.269531-6.269531v-19.1875c0-3.460938 2.808593-6.269531 6.269531-6.269531zm0 0"/><path d="m17.972656 17.675781-.230468.289063-.027344.359375.515625-.042969.054687-.363281zm0 0"/><path d="m18.410156 17.535156-.28125.003906-.148437.378907h-.710938v.367187h.171875s.007813.078125.023438.179688l.433594-.035156.273437-.171876.070313-.339843.351562-.03125.136719-.285157zm0 0"/></g><path d="m22.734375 26.683594.15625-.878906-.515625-.140626v-4.25s-1.441406-1.09375-1.523438-1.09375c-.082031 0-.765624-.183593-.765624-.183593l-.140626-.800781-1.878906-2.351563.1875-.84375.0625-1.378906 1.296875-.910157-.1875-1.546874-1.894531-.140626-1.480469-1.691406-1.054687-.289062-.675782-.128906.082032-.617188-.867188-.121094v.351563l-.425781-.105469v10.847656c0 3.476563 2.800781 6.273438 6.273437 6.273438zm0 0" fill="#83b2e4"/><path d="m18.269531 2.132812.035157.839844.945312.578125-.039062.867188-.90625.308593.058593.285157 1.09375.496093-.019531.597657-.316406.027343c-.003906-.011718-.007813-.015624-.007813-.015624l-1.375-.425782-.058593-.441406.402343-.277344v-.402344l-.433593-.109374-.109376.371093-.757812.121094-.078125-.027344v.035157l-.261719.042968-.214844-.433594-.246093-.109374h-.542969l-.246094.203124v.449219l.460938.152344.457031.0625-.101563.046875-.417968.464844-.183594-.234375-.402344-.105469-1.097656 1.035156.140625.113282-1.621094.902343-1.527343 1.585938-.105469.707031-1.53125 1.003906-.757813.761719.085938 1.523437-1.054688-.488281.007813-.890625h-2.929688l-1.515625.765625-.65625 1.214844-.261718.960937.425781.933594 1.195312.144532 1.898438-1.269532.167969.628906-.582032 1.09375 1.445313.246094.144531 2.230469 1.980469.335937 1.257812-1.449218 1.527344.304687.535156.75 1.464844-.085937.042969-.433594.804687.386719.90625 1.421875 1.566407.023437.578124 1.011719.082032 1.234375 1.734375.660156 2.183593.019531.640626 1.050782.972656.308594-.1875.871093-1.0625 1.34375-.308594 2.988281-.957031.753907-1.425781-.039063-.472657.824219.351563 1.546875-1.042969 1.335938h9.492187c3.480469 0 6.28125-2.800782 6.28125-6.273438v-7.0625l-.628906-.066406-.574218-.578125h-1.054688l-.535156.496093h-1.855469l-.0625.164063h-1.035156l-2.371094-2.699219.019531-2.097656.394532-.144531.144531-.804688h-.558594l-.226563-.84375 2.742188-1.980469v-1.398437l1.34375-.746094.542969.050781h1.105469l.863281-.460937 1.746093-.136719v-.878906c0-.414062-.160156-.773438-.234374-1.164062l-.667969-.136719-1.214844 1.578125-.242187.617187-.773438.070313-1.148438.007812-.691406-.320312-.199218-1.363282.246093-.652343 1.167969-.253907 1.277344.253907.15625-.703125-.542969-.128906.1875-1.097657 1.28125-.203125.101563-.140625c-.082032-.113281-.144532-.242187-.238282-.351562l-.183594.226562-.960937.089844h-.722656l.082031-.855469.597656-.121094-.050781-.402343-.558594-.351563-.390625-.265625v-.035156c-.785156-.351563-1.640625-.570313-2.558594-.570313zm11.65625.808594.472657.207032-.042969.535156-1.019531.722656h-.578126v-.515625h.003907l.496093-.792969zm-13.023437 3.011719h.003906l.320312.066406-.140624.285157-.351563.03125-.070313.339843-.273437.167969-.433594.039062c-.015625-.101562-.023437-.179687-.023437-.179687h-.171875v-.367187h.710937l.148438-.378907zm-1.882813.382813.308594.242187-.054687.363281-.511719.042969.023437-.359375zm0 0" fill="#83b2e4"/><path d="m17.75 17.992188-.003906.015624h.476562l.03125-.015624zm0 0" fill="#4e91d9"/><path d="m15.820312 16.835938.09375.347656.617188.40625 1.238281.167968v1.40625l.570313-.09375.527344-1.097656 1.3125-.414062v-.722656zm0 0" fill="#83b2e4"/></g><path d="m13.398438 7.878906c-5.691407.210938-6.378907 2.988282-4.765626 6.761719.488282 1.144531 2.050782 1.046875 1.171876-.113281-3.671876-11.445313 20.746093-.984375 15.84375 5.808594-1.386719 1.535156-3.578126 1.945312-5.335938 1.167968-.800781-.351562-2.261719.109375-1.082031.769532 2.390625 1.347656 8.054687.578124 8.734375-2.625 1.691406-7.976563-10.460938-11.917969-14.566406-11.769532m7.726562 5.828125c-3.367188 3.675781-6.664062 11.300781-8.464844 13.105469-.976562.972656-2.332031-.808594-2.742187-.253906-.742188 1.015625.773437 1.546875 2.304687 1.566406 3.609375.066406 10.335938-15.695312 8.902344-14.417969zm0 0" fill="#333"/></svg>