<svg height="36pt" viewBox="0 0 36 36" width="36pt" xmlns="http://www.w3.org/2000/svg" xmlns:xlink="http://www.w3.org/1999/xlink"><symbol id="a" overflow="visible"><path d="m .453125-3.640625h1.5625c.46875 0 .820313.105469 1.0625.3125.25.199219.375.492187.375.875 0 .386719-.125.683594-.375.890625-.242187.199219-.59375.296875-1.0625.296875h-.609375v1.265625h-.953125zm.953125.671875v1.015625h.515625c.175781 0 .3125-.039063.40625-.125.101563-.09375.15625-.21875.15625-.375 0-.164063-.054687-.289063-.15625-.375-.09375-.09375-.230469-.140625-.40625-.140625zm0 0"/></symbol><symbol id="b" overflow="visible"><path d="m .453125-3.640625h1.0625l1.3125 2.5v-2.5h.890625v3.640625h-1.046875l-1.328125-2.5v2.5h-.890625zm0 0"/></symbol><symbol id="c" overflow="visible"><path d="m3.734375-.265625c-.230469.117187-.476563.203125-.734375.265625-.25.0507812-.511719.078125-.78125.078125-.605469 0-1.085938-.171875-1.4375-.515625-.355469-.34375-.53125-.800781-.53125-1.375 0-.59375.175781-1.054688.53125-1.390625.363281-.34375.863281-.515625 1.5-.515625.238281 0 .46875.027344.6875.078125.226562.042969.4375.109375.625.203125v.75c-.199219-.113281-.402344-.195312-.609375-.25-.199219-.0625-.398437-.09375-.59375-.09375-.375 0-.667969.105469-.875.3125-.199219.210938-.296875.511719-.296875.90625 0 .386719.097656.683594.296875.890625.195313.210937.472656.3125.828125.3125.101562 0 .195312-.003906.28125-.015625.082031-.007812.15625-.03125.21875-.0625v-.703125h-.578125v-.640625h1.46875zm0 0"/></symbol><symbol id="d" overflow="visible"><path d="m .640625-5.109375h2.1875c.644531 0 1.140625.148437 1.484375.4375.351562.292969.53125.703125.53125 1.234375s-.179688.945312-.53125 1.234375c-.34375.292969-.839844.4375-1.484375.4375h-.875v1.765625h-1.3125zm1.3125.953125v1.4375h.734375c.25 0 .441406-.0625.578125-.1875.144531-.125.21875-.300781.21875-.53125 0-.226562-.074219-.40625-.21875-.53125-.136719-.125-.328125-.1875-.578125-.1875zm0 0"/></symbol><symbol id="e" overflow="visible"><path d="m1.953125-4.109375v3.109375h.484375c.53125 0 .9375-.128906 1.21875-.390625.289062-.269531.4375-.660156.4375-1.171875 0-.5-.148438-.878906-.4375-1.140625-.28125-.269531-.6875-.40625-1.21875-.40625zm-1.3125-1h1.390625c.769531 0 1.34375.058594 1.71875.171875.382812.117188.710938.304688.984375.5625.238281.230469.414063.496094.53125.796875.113281.304687.171875.640625.171875 1.015625 0 .386719-.058594.730469-.171875 1.03125-.117187.304688-.292969.570312-.53125.796875-.273437.273437-.601563.464844-.984375.578125-.386719.1054688-.960938.15625-1.71875.15625h-1.390625zm0 0"/></symbol><symbol id="f" overflow="visible"><path d="m .640625-5.109375h3.546875v1h-2.234375v.953125h2.109375v1h-2.109375v2.15625h-1.3125zm0 0"/></symbol><g fill-rule="evenodd"><path d="m8.40625 1.984375h19.1875c3.460938 0 6.269531 2.808594 6.269531 6.269531v19.1875c0 3.460938-2.808593 6.269532-6.269531 6.269532h-19.1875c-3.460938 0-6.269531-2.808594-6.269531-6.269532v-19.1875c0-3.460937 2.808593-6.269531 6.269531-6.269531zm0 0" fill="#6787c3"/><path d="m32.03125 32.03125-28.0625-28.0625s-.085938-.066406-.089844-.066406c-1.195312 1.136718-1.742187 2.78125-1.742187 4.503906v19.1875c0 3.472656 2.796875 6.273438 6.273437 6.273438h19.183594c1.734375 0 3.300781-.703126 4.4375-1.835938zm0 0" fill="#d51f33"/><path d="m32.03125 32.03125c1.132812-1.132812 1.832031-2.703125 1.832031-4.4375v-19.1875c0-3.472656-2.796875-6.273438-6.269531-6.273438h-19.183594c-1.738281 0-3.304687.703126-4.441406 1.835938zm0 0" fill="#6787c3"/></g><path d="m25.5 9.398438c2.882812 2.882812 5.242188 5.261718 5.242188 5.28125 0 .050781-10.46875 10.523437-10.515626 10.523437-.019531 0-.035156-1.5625-.035156-3.472656v-3.472657l-.550781.003907c-4.660156 0-7.859375 1.394531-9.214844 4.019531-.839843 1.621094-.996093 3.78125-.441406 6.066406.246094 1.011719.78125 2.449219 1.242187 3.347656.21875.425782.269532.542969.246094.542969-.054687 0-1.011718-1.175781-1.371094-1.6875-.226562-.3125-.863281-1.28125-.863281-1.304687 0-.011719-.105469-.199219-.234375-.417969-1.171875-2.019531-1.902344-4.523437-2.003906-6.847656-.109375-2.566407.675781-5.0625 2.179688-6.9375.398437-.5.585937-.691407 1.125-1.160157 2.179687-1.910156 5.351562-2.921874 9.15625-2.925781h.730468v-3.40625c0-1.871093.015625-3.402343.035156-3.402343.019532.003906 2.394532 2.363281 5.277344 5.25zm0 0" fill="#fff"/><g fill="#6787c3"><use x="14.507812" xlink:href="#a" y="16.706177"/><use x="18.2146" xlink:href="#b" y="16.706177"/><use x="22.447632" xlink:href="#c" y="16.706177"/></g><g fill="#fff"><use x="11.28125" xlink:href="#d" y="32.152344"/><use x="16.277832" xlink:href="#e" y="32.152344"/><use x="21.93689" xlink:href="#f" y="32.152344"/></g></svg>