<svg height="36pt" viewBox="0 0 36 36" width="36pt" xmlns="http://www.w3.org/2000/svg"><g fill-rule="evenodd"><path d="m2.136719 19.816406c.144531-.105468.324219-.246094.351562-.246094.074219 0 .652344-.355468.90625-.554687.054688-.042969.550781-.296875 1.105469-.566406s1.421875-.6875 1.925781-.933594c.507813-.246094.949219-.445313.984375-.445313s.335938-.167968.671875-.371093c.332031-.203125.699219-.402344.8125-.4375.347657-.109375 2.136719-1.316407 2.933594-1.976563.871094-.722656 2.082031-2.027344 2.328125-2.511718.09375-.175782.199219-.34375.238281-.371094.078125-.046875.253907-.390625.753907-1.441406.621093-1.355469 1.011718-3.050782 1.03125-4.726563.011718-.835937-.070313-1.664063-.261719-2.441406-.058594-.238281-.203125-.429688-.285157-.65625h-7.226562c-3.472656 0-6.269531 2.796875-6.269531 6.269531zm0 0" fill="#4eaf44"/><path d="m30.839844 32.832031c-.25-.074219-.675782-.199219-1.050782-.292969-1.203124-.3125-3.878906-1.527343-4.773437-2.164062-.261719-.183594-.511719-.339844-.558594-.339844s-.3125-.167968-.59375-.378906c-1.222656-.921875-2.582031-1.796875-4.03125-2.53125-1.453125-.738281-2.992187-1.335938-4.570312-1.710938-1.011719-.222656-3.015625-.242187-3.988281-.039062-1.335938.28125-2.59375.710938-3.671876 1.242188-1.082031.527343-1.980468 1.164062-2.613281 1.847656-.613281.667968-1.21875 1.859375-1.308593 2.566406-.035157.289062.222656.621094.316406 1.019531 1.128906 1.117188 2.683594 1.8125 4.410156 1.8125h19.1875c1.21875 0 2.285156-.433593 3.246094-1.03125zm0 0" fill="#4eaf44"/><g fill="#fff"><path d="m33.863281 27.167969v-2.25c-.070312-.003907-.140625.03125-.210937.023437-.875-.121094-1.75-.40625-2.605469-.84375-.851563-.4375-1.683594-1.023437-2.453125-1.746094-1.058594-.988281-1.421875-1.386718-1.925781-2.109374-.945313-1.367188-1.523438-2.785157-2.011719-4.949219-.207031-.921875-.167969-5.496094.066406-7.203125.257813-1.921875.222656-4-.082031-5.953125h-2.410156c.007812.046875.042969.125.046875.167969.167968 1.1875.195312 3.738281.058594 4.90625-.238282 1.996093-.328126 4.75-.210938 6.449218.128906 1.847656.25 2.542969.699219 4.003906.320312 1.042969 1.113281 2.773438 1.464843 3.203126.117188.144531.3125.425781.433594.621093.117188.199219.246094.363281.285156.363281.035157 0 .140626.117188.226563.265626.21875.351562.867187 1.042968 1.523437 1.617187.292969.257813.675782.597656.855469.757813.175781.15625.460938.375.628907.480468.171874.105469.453124.304688.632812.441406.535156.417969 1.386719.839844 2.28125 1.171876.894531.328124 1.832031.5625 2.542969.609374.0625 0 .105469-.03125.164062-.027343zm0 0"/><path d="m2.21875 27.988281c.101562 1.582031.722656 3.015625 1.777344 4.0625-.09375-.398437-.351563-.730469-.316406-1.019531.089843-.707031.695312-1.898438 1.308593-2.566406.632813-.683594 1.53125-1.320313 2.613281-1.847656 1.078126-.53125 2.335938-.960938 3.671876-1.242188.972656-.203125 2.976562-.183594 3.988281.039062 1.578125.375 3.117187.972657 4.570312 1.710938 1.449219.734375 2.808594 1.609375 4.03125 2.53125.28125.210938.546875.378906.59375.378906s.296875.15625.558594.339844c.894531.636719 3.570313 1.851562 4.773437 2.164062.375.09375.800782.21875 1.050782.292969.929687-.578125 1.679687-1.386719 2.21875-2.332031-1.195313-.230469-3.019532-.660156-3.667969-.933594-.316406-.132812-.742187-.304687-.941406-.378906-.203125-.078125-.707031-.332031-1.125-.566406-.417969-.238282-.785157-.433594-.8125-.433594-.027344 0-.261719-.148438-.519531-.335938-.257813-.183593-.496094-.335937-.53125-.335937-.035157 0-.3125-.179687-.613282-.40625-.300781-.222656-.621094-.453125-.707031-.503906-.457031-.273438-1.699219-1.058594-1.921875-1.210938-.503906-.347656-1.667969-.953125-2.914062-1.519531-.863282-.390625-1.410157-.570312-3.121094-1.035156-.84375-.230469-1.066406-.25-2.929688-.253906-2.09375 0-2.550781.0625-3.890625.511718-.289062.097656-.75.246094-1.019531.328125-.59375.179688-2.378906 1.011719-2.421875 1.125-.019531.046875-.070313.085938-.117187.085938-.105469 0-1.144532.652343-1.324219.832031-.070313.070312-.285157.25-.476563.394531-.378906.285157-1.039062.972657-1.265625 1.320313-.082031.121094-.277343.410156-.4375.636718-.023437.03125-.058593.125-.082031.167969zm0 0"/><path d="m18.378906 2.136719h-2.746094c.082032.226562.226563.417969.285157.65625.191406.777343.273437 1.605469.261719 2.441406-.019532 1.675781-.410157 3.371094-1.03125 4.726563-.5 1.050781-.675782 1.394531-.753907 1.441406-.039062.027344-.144531.195312-.238281.371094-.246094.484374-1.457031 1.789062-2.328125 2.511718-.796875.660156-2.585937 1.867188-2.933594 1.976563-.113281.035156-.480469.234375-.8125.4375-.335937.203125-.636719.371093-.671875.371093s-.476562.199219-.984375.445313c-.503906.246094-1.371093.664063-1.925781.933594s-1.050781.523437-1.105469.566406c-.253906.199219-.832031.554687-.90625.554687-.027343 0-.207031.140626-.351562.246094v2.898438c.0625-.050782.121093-.121094.171875-.152344.15625-.101562.507812-.355469.78125-.566406.617187-.480469 1.046875-.75 1.90625-1.207032 1.113281-.589843 1.210937-.640624 2.207031-1.09375 1.054687-.484374 1.277344-.597656 2.6875-1.375 1.664063-.914062 2.410156-1.390624 3.015625-1.914062.230469-.203125.46875-.382812.527344-.402344.25-.089844 1.769531-1.625 2.398437-2.425781.714844-.90625 1.621094-2.609375 2.160157-4.070313.128906-.339843.34375-1.34375.597656-2.738281.203125-1.128906.242187-2.78125.085937-3.742187-.054687-.339844-.195312-.511719-.296875-.890625zm0 0"/></g><path d="m18.378906 2.136719c.101563.378906.242188.550781.296875.890625.15625.960937.117188 2.613281-.085937 3.742187-.253906 1.394531-.46875 2.398438-.597656 2.738281-.539063 1.460938-1.445313 3.164063-2.160157 4.070313-.628906.800781-2.148437 2.335937-2.398437 2.425781-.058594.019532-.296875.199219-.527344.402344-.605469.523438-1.351562 1-3.015625 1.914062-1.410156.777344-1.632813.890626-2.6875 1.375-.996094.453126-1.09375.503907-2.207031 1.09375-.859375.457032-1.289063.726563-1.90625 1.207032-.273438.210937-.625.464844-.78125.566406-.050782.03125-.109375.101562-.171875.152344v4.878906c0 .140625.070312.257812.082031.394531.023438-.042969.058594-.136719.082031-.167969.160157-.226562.355469-.515624.4375-.636718.226563-.347656.886719-1.035156 1.265625-1.320313.191406-.144531.40625-.324219.476563-.394531.179687-.179688 1.21875-.832031 1.324219-.832031.046874 0 .097656-.039063.117187-.085938.042969-.113281 1.828125-.945312 2.421875-1.125.269531-.082031.730469-.230469 1.019531-.328125 1.339844-.449218 1.796875-.511718 3.890625-.511718 1.863282.003906 2.085938.023437 2.929688.253906 1.710937.464844 2.257812.644531 3.121094 1.035156 1.246093.566406 2.410156 1.171875 2.914062 1.519531.222656.152344 1.464844.9375 1.921875 1.210938.085937.050781.40625.28125.707031.503906.300782.226563.578125.40625.613282.40625.035156 0 .273437.152344.53125.335937.257812.1875.492187.335938.519531.335938.027343 0 .394531.195312.8125.433594.417969.234375.921875.488281 1.125.566406.199219.074219.625.246094.941406.378906.648437.273438 2.472656.703125 3.667969.933594.488281-.859375.804687-1.832031.804687-2.90625v-.425781c-.058593-.003907-.101562.027343-.164062.027343-.710938-.046874-1.648438-.28125-2.542969-.609374-.894531-.332032-1.746094-.753907-2.28125-1.171876-.179688-.136718-.460938-.335937-.632812-.441406-.167969-.105468-.453126-.324218-.628907-.480468-.179687-.160157-.5625-.5-.855469-.757813-.65625-.574219-1.304687-1.265625-1.523437-1.617187-.085937-.148438-.191406-.265626-.226563-.265626-.039062 0-.167968-.164062-.285156-.363281-.121094-.195312-.316406-.476562-.433594-.621093-.351562-.429688-1.144531-2.160157-1.464843-3.203126-.449219-1.460937-.570313-2.15625-.699219-4.003906-.117188-1.699218-.027344-4.453125.210938-6.449218.136718-1.167969.109374-3.71875-.058594-4.90625-.003906-.042969-.039063-.121094-.046875-.167969zm0 0" fill="#f08d25"/><path d="m24.640625 2.136719c.304687 1.953125.339844 4.03125.082031 5.953125-.234375 1.707031-.273437 6.28125-.066406 7.203125.488281 2.164062 1.066406 3.582031 2.011719 4.949219.503906.722656.867187 1.121093 1.925781 2.109374.769531.722657 1.601562 1.308594 2.453125 1.746094.855469.4375 1.730469.722656 2.605469.84375.070312.007813.140625-.027344.210937-.023437v-16.511719c0-3.472656-2.796875-6.269531-6.269531-6.269531zm0 0" fill="#4eaf44"/></g></svg>