<svg height="36pt" viewBox="0 0 36 36" width="36pt" xmlns="http://www.w3.org/2000/svg"><path d="m8.40625 2.136719h19.1875c3.460938 0 6.269531 2.808593 6.269531 6.269531v19.1875c0 3.460938-2.808593 6.269531-6.269531 6.269531h-19.1875c-3.460938 0-6.269531-2.808593-6.269531-6.269531v-19.1875c0-3.460938 2.808593-6.269531 6.269531-6.269531zm0 0" fill="#28287b" fill-rule="evenodd"/><path d="m18.6875 7.3125c-.402344 0-.820312.015625-1.246094.054688-3.78125.316406-6.488281 2.226562-8.679687 4.488281-1.542969 1.597656-2.691407 3.839843-3.015625 6.085937-.46875 3.257813.414062 6.167969 2.636718 8.261719 1.882813 1.777344 4.867188 2.40625 7.996094 2.476563 2.195313.050781 4.257813-.132813 6.101563-.558594.921875-.210938 1.828125-.484375 2.40625-.832032.582031-.347656.976562-.796874.988281-1.347656v-.003906c0-.894531-.515625-1.628906-1.269531-2.230469-2.175781-1.535156-3.957031-2.421875-6.375-3.640625-.664063-.316406-1.265625-.730468-1.355469-1.386718-.113281-.84375 1.171875-1.097657 1.796875-1.167969.875-.078125 1.609375-.042969 2.5.042969.886719.089843 1.878906.886718 2.183594 1.003906l.023437.011718.027344.003907c.058594.007812.148438-.027344.1875-.070313.042969-.042968.046875-.078125.054688-.101562.011718-.050782.007812-.070313.003906-.09375-.003906-.050782-.011719-.09375-.023438-.152344-.027344-.117188-.070312-.269531-.128906-.457031-.199219-1.152344-.882812-2.8125-1.359375-3.804688-.113281-.203125-.226563-.378906-.34375-.519531-.117187-.136719-.230469-.25-.398437-.296875-.222657-.058594-.542969-.074219-.972657-.070313-.429687.007813-1.035156.039063-1.625.097657-1.183593.117187-2.460937.335937-3.816406.660156s-2.632813.75-3.523437 1.300781c-.449219.273438-.914063.578125-1.125.9375-.210938.355469-.265626 1.230469-.101563 1.648438.347656.90625 1.335937 1.585937 2.414063 2.171875 2.257812 1.230469 4.25 2.011719 6.382812 3.328125.785156.425781 1.3125 1.0625 1.195312 1.703125-.125.675781-.9375 1.011719-1.640624 1.246093-1.261719.417969-2.53125.375-3.648438.335938-2.59375-.113281-5.019531-.65625-6.800781-2.671875-1.105469-1.253906-1.253907-2.539063-1.375-4.382813-.117188-1.804687.585937-3.820312 1.597656-5.320312 2.25-3.332031 5.179687-5.261719 9.058594-5.777344 4.582031-.585937 7.710937 1.058594 9.714843 2.828125 1 .882813 1.71875 1.953125 2.179688 2.640625.230469.34375.398438.625.507812.820313.054688.097656.097657.171875.121094.21875.015625.023437.023438.042969.035156.058593.003907.011719-.003906.007813.035157.050782.011719.007812.070312.046875.070312.046875.003907 0 .261719-.085938.261719-.085938.003906 0 .03125-.101562.03125-.117187 0-.019532-.003906-.027344-.003906-.035156-.011719-.058594-.015625-.054688-.027344-.078126-.007812-.023437-.023438-.054687-.039062-.085937-.03125-.070313-.078126-.164063-.140626-.277344-.125-.230469-.3125-.542969-.5625-.914062-.496093-.734375-1.25-1.84375-2.292968-2.773438-1.820313-1.625-4.523438-3.160156-8.21875-3.261719-.132813-.003906-.265625-.007812-.402344-.007812zm0 0" fill="#9868ff"/></svg>