<svg height="36pt" viewBox="0 0 36 36" width="36pt" xmlns="http://www.w3.org/2000/svg"><path d="m8.40625 2.136719h19.1875c3.460938 0 6.269531 2.808593 6.269531 6.269531v19.1875c0 3.460938-2.808593 6.269531-6.269531 6.269531h-19.1875c-3.460938 0-6.269531-2.808593-6.269531-6.269531v-19.1875c0-3.460938 2.808593-6.269531 6.269531-6.269531zm0 0" fill="#cd8652" fill-rule="evenodd"/><path d="m25 12.1875c.414062-.367188.972656-.457031 1.394531-.246094l.078125-.078125c.253906-.601562.707032-1.269531 1.339844-1.882812s1.316406-1.058594 1.933594-1.304688c0 0 .121094-.117187.273437-.261719.152344-.148437.058594-.472656-.203125-.730468l-1.546875-1.503906c-.265625-.257813-.597656-.347657-.746093-.203126l-.269532.261719c-.25.605469-.707031 1.273438-1.34375 1.890625-.632812.617188-1.324218 1.0625-1.945312 1.308594l-.054688.054688c.265625.410156.183594 1-.214844 1.425781l-4.15625 4.019531c-.179687-.011719-.46875-.152344-.855468-.734375-.691406-1.042969-2.304688-1.636719-3.632813.605469-1.328125 2.246094-.226562 2.617187-4.011719 3.042968-1.335937.074219-2.601562.570313-3.570312 1.511719-2.289062 2.226563-2.03125 6.097657.582031 8.640625 2.617188 2.542969 6.59375 2.796875 8.882813.566406.042968-.039062.082031-.082031.121094-.121093 0 0 .015624-.015625.039062-.042969.183594-.195312.351562-.402344.496094-.617188.589844-.8125 1.433594-2.277343 1.242187-3.808593-.28125-2.308594 1.941407-2.203125 2.863281-2.785157.921876-.578124 1.246094-1.082031 1.273438-1.660156 0 0-1.097656.75-2.101562-.226562-.804688-.785156-.449219-2.121094-.101563-2.828125zm0 0" fill="#fff"/></svg>