<svg height="36pt" viewBox="0 0 36 36" width="36pt" xmlns="http://www.w3.org/2000/svg"><g fill-rule="evenodd"><path d="m8.40625 2.136719h19.1875c3.460938 0 6.269531 2.808593 6.269531 6.269531v19.1875c0 3.460938-2.808593 6.269531-6.269531 6.269531h-19.1875c-3.460938 0-6.269531-2.808593-6.269531-6.269531v-19.1875c0-3.460938 2.808593-6.269531 6.269531-6.269531zm0 0" fill="#5a4080"/><path d="m20.132812 33.863281c.1875-.808593.398438-1.550781.472657-2.613281.109375-1.597656.09375-3.167969-.046875-3.769531-.1875-.738281-.671875-2.066407-.640625-2.117188s.824219.027344 1.5.027344c.792969 0 1.378906.03125 1.796875-.097656.359375-.109375.785156-.285157 1.035156-.269531.5625.027343 1.199219-.085938 1.742188-.332032.542968-.246094.992187-.625 1.179687-1.125.117187-.308594.609375-.710937.738281-.886718.210938-.292969.320313-.535157.1875-.992188-.191406-.648438-.976562-1.027344-1.804687-1.785156-.628907-.574219-.941407-.632813-.972657-1.246094-.023437-.453125.097657-.765625-.148437-.996094-.277344-.261718-.976563-.09375-1.023437-.097656-.144532-.171875-.285157-.34375-.324219-.535156-.039063-.191406.023437-.402344.289062-.648438.40625-.367187.644531-.535156.644531-.9375 0-.398437-.238281-.515625-.589843-.824218-.230469-.203126-.476563-.367188-.550781-.367188-.074219 0-.449219-.296875-.828126-.660156-.371093-.351563-.683593-.5-.980468-.5625-.292969-.066406-.566406-.039063-.851563-.039063-.234375 0-.40625-.113281-.523437-.308593-.117188-.199219-.175782-.480469-.175782-.816407.308594-1.121093.917969-2.117187 1.570313-2.894531.648437-.78125 1.339844-1.347656 1.804687-1.605469-1.175781-.167969-2.191406.039063-3.109374.46875-.917969.425781-1.738282 1.074219-2.515626 1.78125-.074218-.824219 1.035157-2.839843 1.125-3.371093-.832031.433593-1.488281 1.1875-2.03125 2.015624-.539062.832032-.964843 1.738282-1.34375 2.480469-.476562-.648437-.375-2.007812-.5625-2.8125-.734374.96875-1.265624 2.289063-1.6875 3.609375-.417968 1.316406-.730468 2.636719-1.027343 3.605469-.421875 1.378906-.898438 2.492187-1.460938 3.382813-.5625.894531-1.214843 1.5625-1.976562 2.054687-.910157.585937-1.722657.886719-3.480469 1.285156-.273438.082031-2.023438.691407-3.425781 1.183594v4.546875c0 3.472656 2.796875 6.269531 6.273437 6.269531zm0 0" fill="#7abccb"/><path d="m8.410156 2.136719c-3.476562 0-6.273437 2.796875-6.273437 6.273437v14.636719c1.402343-.492187 3.152343-1.101563 3.425781-1.183594 1.757812-.398437 2.570312-.699219 3.480469-1.285156.761719-.492187 1.414062-1.160156 1.976562-2.054687.5625-.890626 1.039063-2.003907 1.460938-3.382813.296875-.96875.609375-2.289063 1.027343-3.605469.421876-1.320312.953126-2.640625 1.6875-3.609375.1875.804688.085938 2.164063.5625 2.8125.378907-.742187.804688-1.648437 1.34375-2.480469.542969-.828124 1.199219-1.582031 2.03125-2.015624v-.003907.003907c-.089843.53125-1.199218 2.546874-1.125 3.371093.777344-.707031 1.597657-1.355469 2.515626-1.78125.917968-.429687 1.933593-.636719 3.109374-.46875-.464843.257813-1.15625.824219-1.804687 1.605469-.652344.777344-1.261719 1.773438-1.570313 2.894531 0 .335938.058594.617188.175782.816407.117187.195312.289062.308593.523437.308593.285157 0 .558594-.027343.851563.035157.296875.066406.609375.214843.980468.566406.378907.363281.753907.660156.828126.660156.074218 0 .320312.164062.550781.367188.351562.308593.589843.425781.589843.824218 0 .402344-.238281.570313-.644531.9375-.265625.246094-.328125.457032-.289062.648438.039062.191406.179687.363281.324219.53125.046874.007812.746093-.160156 1.023437.101562.246094.230469.125.542969.148437.996094.03125.613281.34375.671875.972657 1.246094.828125.757812 1.613281 1.136718 1.804687 1.785156.132813.457031.023438.699219-.1875.992188-.128906.175781-.621094.578124-.738281.886718-.1875.5-.636719.878906-1.179687 1.125-.542969.246094-1.179688.359375-1.742188.332032-.25-.015626-.675781.160156-1.035156.269531-.417969.128906-1.003906.097656-1.796875.097656-.675781 0-1.46875-.078125-1.5-.027344s.453125 1.378907.640625 2.117188c.140625.601562.15625 2.171875.046875 3.769531-.074219 1.0625-.285157 1.804688-.472657 2.613281h7.460938c3.472656 0 6.269531-2.796875 6.269531-6.269531v-19.183594c0-3.476562-2.796875-6.273437-6.269531-6.273437zm0 0" fill="#5a4080"/></g></svg>