<svg height="36pt" viewBox="0 0 36 36" width="36pt" xmlns="http://www.w3.org/2000/svg"><g fill-rule="evenodd"><path d="m8.40625 2.132812h19.1875c3.460938 0 6.269531 2.808594 6.269531 6.273438v19.183594c0 3.464844-2.808593 6.273437-6.269531 6.273437h-19.1875c-3.460938 0-6.269531-2.808593-6.269531-6.273437v-19.183594c0-3.464844 2.808593-6.273438 6.269531-6.273438zm0 0" fill="#008295"/><path d="m10.21875 33.867188v-31.730469h-1.8125c-3.472656 0-6.269531 2.796875-6.269531 6.269531v19.1875c0 3.472656 2.796875 6.273438 6.269531 6.273438zm0 0" fill="#006877"/><path d="m21.90625 10.125c-3.320312 0-6.160156 2.066406-7.304688 4.972656-.0625.148438-.117187.296875-.167968.449219-.007813.035156-.019532.0625-.03125.09375-.25.761719-.390625 1.570313-.390625 2.414063 0 4.3125 3.519531 7.820312 7.851562 7.820312 3.292969 0 6.109375-2.027344 7.277344-4.890625h.003906c.082031-.199219.152344-.402344.222657-.605469.253906-.769531.394531-1.585937.394531-2.4375 0-4.3125-3.523438-7.816406-7.855469-7.816406zm-.5625 1.21875v2.632812c-.75-.027343-1.46875-.105468-2.132812-.230468.101562-.234375.207031-.457032.320312-.660156.523438-.941407 1.15625-1.527344 1.8125-1.742188zm1.121094.042969c.058594.011719.117187.019531.175781.027343.59375.257813 1.160156.816407 1.636719 1.671876.113281.199218.214844.417968.3125.648437-.660156.125-1.375.210937-2.125.238281zm-3.515625.539062c-.140625.195313-.277344.398438-.398438.617188-.164062.292969-.308593.609375-.441406.9375-.332031-.09375-.632813-.203125-.917969-.320313.511719-.5 1.105469-.914062 1.757813-1.234375zm6.03125.167969c.304687.125.542969.238281.777343.351562.296876.207032.582032.4375.839844.691407-.28125.117187-.582031.226562-.90625.324219-.132812-.320313-.273437-.632813-.433594-.917969-.085937-.15625-.179687-.304688-.277343-.449219zm2.351562 1.886719c.714844.96875 1.175781 2.136719 1.277344 3.40625h-2.109375c-.042969-1.019531-.195312-1.988281-.445312-2.863281.449218-.136719.871093-.292969 1.253906-.472657.011718-.023437.015625-.046875.023437-.070312zm-10.902343.074219c.402343.183593.847656.347656 1.316406.488281-.246094.871093-.394532 1.832031-.4375 2.84375h-2.105469c.101563-1.238281.542969-2.378907 1.226563-3.332031zm8.535156.742187c.222656.785156.367187 1.660156.410156 2.589844h-2.910156v-2.296875c.878906-.03125 1.722656-.128906 2.5-.292969zm-6.128906.019531c.78125.15625 1.625.25 2.507812.277344v2.292969h-2.914062c.042968-.925781.1875-1.792969.40625-2.570313zm-3.632813 3.6875h2.105469c.042968 1.042969.199218 2.027344.457031 2.917969-.460937.136719-.894531.296875-1.289063.476563-.710937-.96875-1.167968-2.128907-1.273437-3.394532zm3.226563 0h2.914062v2.375c-.875.027344-1.710938.117188-2.488281.273438-.230469-.796875-.382813-1.695313-.425781-2.648438zm4.035156 0h2.910156c-.042969.960938-.195312 1.863282-.429688 2.664063-.773437-.160157-1.609374-.257813-2.480468-.289063zm4.035156 0h2.109375c-.105469 1.28125-.570313 2.453125-1.296875 3.425782-.003906-.003907-.003906-.007813-.003906-.007813-.390625-.183594-.816406-.339844-1.273438-.480469.261719-.894531.421875-1.886718.464844-2.9375zm-5.15625 3.492188v2.550781c-.65625-.214844-1.289062-.800781-1.8125-1.738281-.101562-.183594-.199219-.382813-.289062-.589844.65625-.121094 1.363281-.199219 2.101562-.222656zm1.121094 0c .738281.03125 1.441406.109375 2.09375.234375-.089844.203125-.179688.398437-.28125.578125-.523438.9375-1.160156 1.523437-1.8125 1.738281zm-4.328125.484375c.125.304687.261719.597656.414062.867187.117188.214844.25.414063.382813.605469-.617188-.304687-1.183594-.699219-1.675782-1.167969.273438-.109375.5625-.214844.878907-.304687zm7.527343.019531c.308594.089844.597657.199219.867188.308594-.488281.460937-1.050781.847656-1.660156 1.148437.136718-.195312.265625-.394531.386718-.609375.148438-.265625.28125-.550781.40625-.847656zm0 0" fill="#fff"/></g></svg>