<svg height="36pt" viewBox="0 0 36 36" width="36pt" xmlns="http://www.w3.org/2000/svg"><path d="m33.75 7.839844c-.0625-.652344-.132812-1.300782-.378906-1.878906-.316406-.75-.773438-1.425782-1.339844-1.992188-.570312-.566406-1.242188-1.027344-1.996094-1.34375-.574218-.242188-1.222656-.3125-1.871094-.375h-10.164062v15.75h15.75zm0 0" fill="#cf4f8c"/><path d="m7.835938 2.25c-.648438.0625-1.300782.132812-1.875.375-.75.316406-1.425782.777344-1.992188 1.34375s-1.027344 1.242188-1.34375 1.992188c-.242188.574218-.3125 1.226562-.375 1.875v10.164062h15.75v-15.75zm0 0" fill="#ff8c2a"/><path d="m28.164062 33.75c.648438-.0625 1.300782-.132812 1.875-.375.75-.316406 1.425782-.777344 1.992188-1.34375s1.027344-1.242188 1.34375-1.992188c.242188-.574218.3125-1.226562.375-1.875v-10.164062h-15.75v15.75zm0 0" fill="#ff8c2a"/><path d="m2.25 28.160156c.0625.652344.136719 1.300782.378906 1.878906.316406.75.773438 1.425782 1.339844 1.992188.570312.566406 1.242188 1.027344 1.996094 1.34375.574218.242188 1.222656.3125 1.871094.375h10.164062v-15.75h-15.75zm0 0" fill="#c72566"/><path d="m10.714844 5.949219h14.570312c2.632813 0 4.765625 2.132812 4.765625 4.765625v14.570312c0 2.632813-2.132812 4.765625-4.765625 4.765625h-14.570312c-2.632813 0-4.765625-2.132812-4.765625-4.765625v-14.570312c0-2.632813 2.132812-4.765625 4.765625-4.765625zm0 0" fill="#3f3f3f" fill-rule="evenodd"/><g fill="none" stroke="#fff" stroke-linecap="round" stroke-width="2" transform="matrix(1.044652 0 0 1.044652 -40.925724 31.419785)"><path d="m49.407085-5.337695h7.998325"/><path d="m53.408117-11.339243-2.000516-2.998905m-2.000516-1.002128s4.001032.467411 4.001032-2.000516c0-2.464187-4.001032-1.996777-4.001032-1.996777m0 7.998326v-7.998326"/><path d="m56.407022-13.33976h4.001032m-2.000516 2.000517v-4.001033"/><path d="m59.405926-18.33918h4.001033m-2.000516 2.000516v-4.001033"/></g></svg>