<svg height="36pt" viewBox="0 0 36 36" width="36pt" xmlns="http://www.w3.org/2000/svg"><path d="m8.40625 2.136719h19.1875c3.460938 0 6.269531 2.808593 6.269531 6.269531v19.1875c0 3.460938-2.808593 6.269531-6.269531 6.269531h-19.1875c-3.460938 0-6.269531-2.808593-6.269531-6.269531v-19.1875c0-3.460938 2.808593-6.269531 6.269531-6.269531zm0 0" fill="#007eff" fill-rule="evenodd"/><path d="m13.71875 21.886719h8.996094v7.078125h-8.996094zm0 0" fill="#999"/><g fill="#4d4d4d"><path d="m13.523438 8.511719h9.382812c1.113281 0 2.019531.902343 2.019531 2.019531v10.765625c0 1.117187-.90625 2.019531-2.019531 2.019531h-9.382812c-1.113282 0-2.015626-.902344-2.015626-2.019531v-10.765625c0-1.117188.902344-2.019531 2.015626-2.019531zm0 0"/><path d="m15.140625 26.3125h2.398437v1.363281h-2.398437zm0 0"/><path d="m18.894531 26.3125h2.394531v1.363281h-2.394531zm0 0"/></g></svg>