<svg height="36pt" viewBox="0 0 36 36" width="36pt" xmlns="http://www.w3.org/2000/svg"><path d="m8.40625 2.136719h19.1875c3.460938 0 6.269531 2.808593 6.269531 6.269531v19.1875c0 3.460938-2.808593 6.269531-6.269531 6.269531h-19.1875c-3.460938 0-6.269531-2.808593-6.269531-6.269531v-19.1875c0-3.460938 2.808593-6.269531 6.269531-6.269531zm0 0" fill="#ccc" fill-rule="evenodd"/><path d="m11.460938 6.519531c-4.34375 2.324219-6.960938 6.515625-6.96875 11.207031.011718 6.460938 5.136718 12.109376 11.945312 13.074219.488281.050781.632812.027344.992188 0 3.300781 0 5.972656-2.507812 5.972656-5.601562-.003906-2.125-1.277344-4.019531-3.21875-4.96875 0 0-2.144532-.921875-3.09375-1.398438-1.371094-.644531-2.886719-1.214843-4.324219-2.039062-.722656-.414063-1.449219-.898438-2.101563-1.640625-.652343-.746094-1.195312-1.863282-1.195312-3.027344 0-2.265625.875-3.992188 1.992188-5.605469zm0 0" fill="#4893d5"/><path d="m24.539062 29.480469c4.34375-2.324219 6.960938-6.515625 6.96875-11.207031-.011718-6.460938-5.136718-12.109376-11.945312-13.074219-.488281-.050781-.632812-.027344-.992188 0-3.300781 0-5.972656 2.507812-5.972656 5.601562.003906 2.125 1.277344 4.019531 3.21875 4.96875 0 0 2.144532.921875 3.09375 1.398438 1.371094.644531 2.886719 1.214843 4.324219 2.039062.722656.414063 1.449219.898438 2.101563 1.640625.65625.746094 1.195312 1.863282 1.195312 3.027344 0 2.265625-.875 3.992188-1.992188 5.605469zm0 0" fill="#4893d5"/></svg>