<svg height="36pt" viewBox="0 0 36 36" width="36pt" xmlns="http://www.w3.org/2000/svg"><path d="m8.40625 2.136719h19.1875c3.460938 0 6.269531 2.808593 6.269531 6.269531v19.1875c0 3.460938-2.808593 6.269531-6.269531 6.269531h-19.1875c-3.460938 0-6.269531-2.808593-6.269531-6.269531v-19.1875c0-3.460938 2.808593-6.269531 6.269531-6.269531zm0 0" fill="#929292" fill-rule="evenodd"/><path d="m29.988281 21.671875v-7.34375c0-2.699219-2.148437-4.890625-4.796875-4.890625h-14.382812c-2.648438 0-4.796875 2.191406-4.796875 4.890625v7.34375c0 2.699219 2.148437 4.890625 4.796875 4.890625h14.382812c2.648438 0 4.796875-2.191406 4.796875-4.890625zm0 0" fill="#4f4f4f"/><path d="m26.5625 20.203125v-4.40625c0-1.625-1.527344-2.933594-3.425781-2.933594h-10.273438c-1.898437 0-3.425781 1.308594-3.425781 2.933594v4.40625c0 1.625 1.527344 2.933594 3.425781 2.933594h2.140625l2.996094-1.710938 2.996094 1.710938h2.140625c1.898437 0 3.425781-1.308594 3.425781-2.933594zm0 0" fill="#48aad5"/><path d="m7.722656 15.964844v3.210937c0 .296875-.285156.535157-.640625.535157h-1.285156c-.355469 0-.640625-.238282-.640625-.535157v-3.210937c0-.292969.285156-.535156.640625-.535156h1.285156c.355469 0 .640625.242187.640625.535156zm0 0" fill="#929292"/><path d="m30.84375 15.964844v3.210937c0 .296875-.285156.535157-.640625.535157h-1.285156c-.355469 0-.640625-.238282-.640625-.535157v-3.210937c0-.292969.285156-.535156.640625-.535156h1.285156c.355469 0 .640625.242187.640625.535156zm0 0" fill="#929292"/></svg>