<svg height="36pt" viewBox="0 0 36 36" width="36pt" xmlns="http://www.w3.org/2000/svg"><path d="m8.40625 2.136719h19.1875c3.460938 0 6.269531 2.808593 6.269531 6.269531v19.1875c0 3.460938-2.808593 6.269531-6.269531 6.269531h-19.1875c-3.460938 0-6.269531-2.808593-6.269531-6.269531v-19.1875c0-3.460938 2.808593-6.269531 6.269531-6.269531zm0 0" fill="#7a509e" fill-rule="evenodd"/><path d="m6.75 18c0 6.214844 5.035156 11.25 11.25 11.25s11.25-5.035156 11.25-11.25-5.035156-11.25-11.25-11.25-11.25 5.035156-11.25 11.25zm0 0" fill="#fae8a2"/><path d="m19.0625 6.808594c1.417969.132812 2.800781.535156 4.070312 1.183594-.054687.179687.011719.382812.21875.5625.140626.121093.253907.308593.253907.421874 0 .335938-.304688.851563-.546875.929688-.324219.097656-.214844.445312.199218.636719.191407.085937.429688.339843.527344.5625.097656.222656.238282.441406.316406.488281.078126.046875.140626.21875.140626.386719 0 .234375-.105469.347656-.457032.488281-.25.097656-.550781.171875-.667968.160156-.667969-.0625-.714844.328125-.128907 1.089844.308594.40625.457031.507812.671875.457031.195313-.046875.304688.007813.394532.203125.09375.207032.25.277344.667968.308594.410156.027344.59375.109375.746094.335938.113281.164062.273438.296874.359375.296874s.289063.109376.453125.242188c.328125.273438.457031.300781.570312.121094.152344-.234375.480469-.117188.96875.351562.433594.414063.488282.527344.421876.886719-.117188.640625-.464844 1.207031-.859376 1.40625-.347656.171875-.351562.1875-.144531.410156.121094.128907.328125.265625.460938.304688.378906.117187.164062.261719-.511719.347656-.699219.089844-.914062.339844-.589844.683594.183594.191406.171875.230469-.117187.410156-.570313.355469-1.019531.140625-.488281-.234375.34375-.238281.101562-.339844-.398438-.164062-.402344.140624-.480469.132812-.71875-.074219-.484375-.421875-1.015625.203125-.570312.671875.285156.300781.199218.660156-.167969.710937-.164063.023438-.5.171875-.75.335938-.25.160156-.519531.292969-.601563.292969-.082031 0-.316406.167968-.515625.367187-.410156.410156-.636719.460937-.75.171875-.140625-.34375-.085937-.523438.289063-.929688.296875-.324218.777344-1.183593.777344-1.390624 0-.128907-.488282-.019532-.765626.167968-.167968.117188-.449218.269532-.617187.335938-.175781.074218-.363281.300781-.449219.550781-.132812.390625-.183594.425781-.652344.425781h-.507812l-.078125.914063c-.089844 1.097656-.179687 1.320312-.554687 1.410156-.28125.066406-.578126.5-.578126.835937 0 .089844.203126.308594.445313.484376.304687.222656.433594.410156.414063.59375-.027344.230468.027343.265624.351562.242187.210938-.015625.574219.058594.808594.164063.277344.125.578125.164062.859375.113281.324219-.058594.433593-.035157.433593.09375 0 .089843.113282.265625.253907.386719.339843.296874.199219.453124-.324219.359374-.328125-.058593-.457031-.035156-.511719.105469-.121093.300781.183594.726563.464844.65625.179687-.042969.265625.019531.320313.230469.019531.074219.054687.136719.097656.191406-.578125.222656-1.171875.398438-1.78125.523438.058594-.105469.121094-.203125.183594-.246094.289062-.207031.09375-.738281-.304688-.835938-.40625-.097656-.339844-.359374.101562-.410156.386719-.042968.800782-.4375.671876-.636718-.089844-.136719-.460938-.117188-1.210938.0625-.335938.078124-.570312-.082032-1.351562-.941407-.457032-.496093-.804688-.703125-1.1875-.703125-.148438 0-.667969-.132812-1.160157-.296875-.925781-.3125-1.289062-.300781-1.257812.039063.074219.703125-.382813.679687-1.121094-.058594-.308594-.308594-.589844-.53125-.625-.496094-.144531.136719.113281.796875.410156 1.0625.375.339844.394531.554688.0625.722656-.183593.09375-.257812.28125-.289062.707032l-.035157.578125h-.472656c-.164062 0-.300781.019531-.410156.0625-3.277344-1.96875-5.328125-5.464844-5.453125-9.285157.175781-.367187.160156-.589843 0-.839843.011719-.210938.03125-.421875.050781-.628907.105469-.007812.207032-.011718.328125-.003906.566407.023438 1.054688-.203125 1.054688-.484375 0-.0625.199219-.308593.445312-.550781.28125-.277344.421875-.519531.378907-.644531-.035157-.113281.046874-.300781.191406-.425781.140625-.121094.257812-.320313.257812-.4375 0-.1875.117188-.210938.984375-.191407l.988281.023438-.015624.972656c-.03125 1.703125-.285157 2.144531-1.066407 1.859375-.359375-.128906-1.238281-.03125-1.488281.167969-.09375.070312-.222656.332031-.292969.582031-.070312.246094-.328125.671875-.574219.949219-.496093.558593-.535156.773437-.25 1.429687.25.570313.519532.503906.464844-.113281l-.039062-.460937.421875.078124c.234375.042969.523437.214844.65625.386719.1875.242188.273437.277344.414062.167969.097657-.078125.175781-.242188.175781-.363281 0-.121094.121094-.257813.269532-.300781.144531-.046876.347656-.265626.445312-.492188.15625-.363281.152344-.472656-.03125-.914062-.1875-.445313-.1875-.519532-.015625-.683594.15625-.152344.238281-.15625.445313-.03125.207031.125.308594.113281.554687-.050782.164063-.113281.453125-.203124.640625-.203124.378906 0 .492188-.183594.492188-.796876 0-.5625.339844-.765624 1.140625-.695312.554687.050781.675781.015625 1.125-.328125.277343-.214844.714843-.726563.972656-1.140625.261719-.417969.539063-.851562.621094-.964844.117187-.167968.085937-.324218-.140625-.777344l-.289063-.566406.609375.082032c1.085938.144531 1.308594.285156.839844.539062-.183594.09375-.191406.144531-.050781.308594.09375.105468.136719.273437.097656.371094-.042969.101562.007813.335937.109375.519531.101562.1875.1875.449219.191406.585937.011719.417969.730469.75 1.527344.707032 1.210938-.066407 1.3125-.046876 1.742188.351562.535156.5.605468.730469.355468 1.195312-.242187.449219-.671875.628907-1.417968.59375-.667969-.035156-.742188.023438-.589844.464844.128906.375.5625.519532.859375.285156.226562-.179687 1.011719-.042968 1.25.222657.101562.109375.25.402343.332031.644531.140625.417969.183594.445312.8125.503906.628906.0625.691406.042969 1.140625-.375.507813-.464844.589844-.820312.347656-1.429687-.105469-.273438-.1875-.316407-.476562-.265625-.570313.105468-.792969-.09375-.792969-.703125 0-.292969.054688-.570313.125-.613281.070312-.039063.128906-.195313.128906-.347657 0-.148437.070313-.34375.160156-.425781.125-.125.109376-.191406-.09375-.335938-.140624-.097656-.371093-.164062-.511718-.148437s-.527344-.042969-.859375-.132813c-.484375-.132812-.625-.230468-.691407-.484374-.121093-.480469-.425781-.867188-.679687-.867188-.398437 0-.40625-.941406-.019531-2.308594.058594-.203125.21875-.328125.496094-.398437.226562-.058594.472656-.210938.546874-.34375.074219-.132813.207032-.242188.300782-.242188.089844 0 .269531-.109375.398437-.242187.125-.136719.390625-.242188.589844-.242188.476563 0 .484375-.328125.011719-.5-.496094-.183594-1.273438.054688-1.457032.449219-.253906.535156-.539062.3125-.628906-.496094-.109375-.996093-.457031-1.285156-1.539062-1.285156h-.78125l.339844-.339844c.109374-.105469.195312-.238281.257812-.367187zm-4.042969.355468c.019531.019532.042969.035157.0625.058594.261719.265625.382813.304688.789063.242188.703125-.105469.613281.175781-.167969.519531-.421875.183594-.691406.394531-.785156.609375-.441407 1.03125-.75 1.585938-.902344 1.640625-.3125.113281-.496094-.113281-.566406-.699219-.078125-.671875-.304688-.816406-.714844-.449218-.15625.144531-.378906.261718-.492187.261718-.347657 0-.605469.136719-.605469.328125 0 .101563-.117188.339844-.261719.535157-.214844.285156-.359375.355468-.757812.355468-.488282 0-.789063.089844-1.402344.429688-.007813.003906-.015625.003906-.027344.011718 1.488281-1.867187 3.527344-3.214843 5.832031-3.84375zm14.226563 10.789063c.003906.015625.003906.03125.003906.046875-.003906.726562-.078125 1.449219-.21875 2.160156-.410156.167969-.519531.101563-.5625-.277344-.023438-.195312-.125-.417968-.230469-.496093-.160156-.117188-.132812-.179688.199219-.40625.210938-.144531.421875-.398438.464844-.5625.042968-.160157.183594-.335938.34375-.464844zm-3.539063 3.71875c.105469-.011719.230469.042969.371094.179687.296875.285157.253906.855469-.082031 1.082032-.386719.257812-.535156.183594-.585938-.292969-.058594-.589844.066406-.945313.296875-.96875zm-1.910156 1.699219c.117187.003906.242187.085937.367187.257812.136719.183594.171876.421875.121094.78125-.0625.441406-.035156.535156.195313.65625.296875.152344.359375.601563.117187.835938-.242187.230468-.472656.171875-.554687-.144532-.117188-.453124-.78125-.507812-1.234375-.101562-.191406.175781-.347656.261719-.347656.195312 0-.066406.199218-.308593.445312-.535156.375-.347656.445312-.496094.445312-.945312 0-.632813.191407-1.007813.445313-1zm3.136719 1.453125c-.085938.109375-.171875.21875-.261719.328125.078125-.117188.164063-.230469.261719-.328125zm-3.792969 1.726562c.058594.019531.082031.089844.082031.214844 0 .128906.082032.261719.179688.296875.132812.050781.164062.203125.113281.566406-.011719.066406-.015625.121094-.015625.179688-.15625.082031-.3125.164062-.46875.238281.007812-.195313-.027344-.421875-.128906-.710937-.175782-.484376-.179688-.609376-.039063-.691407.132813-.082031.222657-.113281.277344-.09375zm0 0" fill="#c8ba82"/></svg>