<svg height="36pt" viewBox="0 0 36 36" width="36pt" xmlns="http://www.w3.org/2000/svg"><path d="m8.40625 2.136719h19.1875c3.460938 0 6.269531 2.808593 6.269531 6.269531v19.1875c0 3.460938-2.808593 6.269531-6.269531 6.269531h-19.1875c-3.460938 0-6.269531-2.808593-6.269531-6.269531v-19.1875c0-3.460938 2.808593-6.269531 6.269531-6.269531zm0 0" fill="#e74c3c" fill-rule="evenodd"/><path d="m18 6.75c6.214844 0 11.25 5.035156 11.25 11.25 0 3.023438-1.21875 5.917969-3.375 8.03125v-13.1875c0-.882812-.800781-1.59375-1.800781-1.59375h-.898438c-1 0-1.800781.710938-1.800781 1.59375v3.515625l-4.101562-2.300781-4.824219-2.707032c-.117188-.0625-.246094-.097656-.382813-.101562-.214844-.003906-.421875.074219-.574218.222656-.15625.144532-.242188.34375-.242188.550782v10.824218c0 .277344.152344.535156.398438.671875.25.140625.554687.140625.800781.003907l4.824219-2.707032 4.101562-2.300781v10.203125c-1.089844.347656-2.230469.527344-3.375.53125-6.214844 0-11.25-5.035156-11.25-11.25s5.035156-11.25 11.25-11.25zm0 0" fill="#fff"/></svg>