<svg height="36pt" viewBox="0 0 36 36" width="36pt" xmlns="http://www.w3.org/2000/svg"><path d="m8.40625 2.136719h19.1875c3.460938 0 6.269531 2.808593 6.269531 6.269531v19.1875c0 3.460938-2.808593 6.269531-6.269531 6.269531h-19.1875c-3.460938 0-6.269531-2.808593-6.269531-6.269531v-19.1875c0-3.460938 2.808593-6.269531 6.269531-6.269531zm0 0" fill="#7cca3e" fill-rule="evenodd"/><path d="m5.625 12.519531v8.324219c0 .144531.019531.285156.054688.425781 0 0 .25.960938.996093 1.84375.746094.882813 2.152344 1.78125 4.011719 1.78125s3.265625-.898437 4.011719-1.78125c.746093-.882812.996093-1.84375.996093-1.84375.035157-.140625.054688-.28125.054688-.425781v-3.09375c.441406.5.40625.523438.90625 1.054688.320312.34375.683594.628906 1.019531.96875-.003906.03125-.015625.0625-.023437.09375-.757813 3.8125-.777344 8.699218-.777344 9.527343h3.375c0-.558593.242188-3.359375.53125-5.84375.929688.699219 1.859375 1.289063 3.113281 1.339844 1.9375.074219 3.648438-.65625 4.777344-1.839844 1.128906-1.183593 1.703125-2.753906 1.703125-4.34375 0-3.382812-2.808594-6.1875-6.1875-6.1875-4.015625.046875-4.335938 2.792969-5.390625 3.601563-1.414063-1.550782-2.5625-3.007813-3.046875-3.601563h-3.375v1.6875 6.300781c-.019531.058594-.046875.183594-.253906.425782-.253906.300781-.539063.585937-1.433594.585937s-1.179688-.285156-1.433594-.585937c-.207031-.242188-.234375-.367188-.253906-.425782v-7.988281zm18.5625 3.375c1.34375 0 2.8125 1.464844 2.8125 2.8125 0 .769531-.285156 1.507813-.769531 2.011719-.480469.507812-1.132813.84375-2.203125.800781.054687.003907-.867188-.328125-1.832032-1.089843-.199218-.164063-.433593-.429688-.648437-.617188.28125-.921875.511719-1.976562.878906-2.582031.613281-1.015625 1.078125-1.335938 1.761719-1.335938zm0 0" fill="#fff" fill-rule="evenodd"/></svg>