<svg height="36pt" viewBox="0 0 36 36" width="36pt" xmlns="http://www.w3.org/2000/svg" xmlns:xlink="http://www.w3.org/1999/xlink"><filter id="a" height="100%" width="100%" x="0%" y="0%"><feColorMatrix in="SourceGraphic" type="matrix" values="0 0 0 0 1 0 0 0 0 1 0 0 0 0 1 0 0 0 1 0"/></filter><mask id="b"><g filter="url(#a)"><path d="m0 0h36v36h-36z" fill-opacity=".101961"/></g></mask><clipPath id="c"><path d="m0 0h36v36h-36z"/></clipPath><path d="m8.40625 2.136719h19.1875c3.460938 0 6.269531 2.808593 6.269531 6.269531v19.1875c0 3.460938-2.808593 6.269531-6.269531 6.269531h-19.1875c-3.460938 0-6.269531-2.808593-6.269531-6.269531v-19.1875c0-3.460938 2.808593-6.269531 6.269531-6.269531zm0 0" fill="#fff" fill-rule="evenodd"/><path d="m17.277344 7.179688c-5.578125 0-10.097656 4.199218-10.097656 9.378906 0 2.769531 1.320312 5.398437 3.605468 7.183594v3.636718l2.683594-2.140625c1.210938.457031 2.503906.695313 3.808594.695313 5.578125 0 10.101562-4.195313 10.101562-9.375 0-5.179688-4.523437-9.378906-10.101562-9.378906zm0 0" fill="#50bcff"/><path d="m13.671875 14.394531c0 .796875-.644531 1.441407-1.441406 1.441407s-1.445313-.644532-1.445313-1.441407.648438-1.445312 1.445313-1.445312 1.441406.648437 1.441406 1.445312zm0 0" fill="#3f3f3f"/><g clip-path="url(#c)" mask="url(#b)"><path d="m23.769531 15.113281c0 .796875-.644531 1.445313-1.441406 1.445313s-1.441406-.648438-1.441406-1.445313.644531-1.441406 1.441406-1.441406 1.441406.644531 1.441406 1.441406zm0 0"/></g><path d="m23.769531 14.394531c0 .796875-.644531 1.441407-1.441406 1.441407s-1.441406-.644532-1.441406-1.441407.644531-1.445312 1.441406-1.445312 1.441406.648437 1.441406 1.445312zm0 0" fill="#3f3f3f"/><path d="m21.609375 14.394531c.207031 0 .410156.007813.613281.027344.152344.011719.296875.03125.441406.050781.078126.011719.15625.019532.230469.035156.207031.035157.414063.078126.613281.128907.011719.003906.027344.007812.039063.011719 3.046875.792968 5.273437 3.398437 5.273437 6.488281v.066406.042969c-.003906 2.125-1.042968 4.125-2.8125 5.421875v2.152343l-1.984374-1.125c-.777344.265626-1.59375.402344-2.417969.402344-3.835938-.003906-7-2.859375-7.195313-6.5-.003906-.082031-.007812-.160156-.011718-.242187-.003907-.035157-.003907-.074219-.003907-.109375 0-.015625 0-.03125 0-.042969 0-.023437 0-.042969 0-.066406 0-3.492188 2.839844-6.371094 6.492188-6.710938.199219-.015625.402343-.027343.601562-.027343.039063 0 .078125-.003907.121094-.003907zm0 0" fill="#ccc"/><path d="m19.441406 20.164062c0 .796876-.644531 1.441407-1.441406 1.441407s-1.441406-.644531-1.441406-1.441407c0-.796874.644531-1.441406 1.441406-1.441406s1.441406.644532 1.441406 1.441406zm0 0" fill="#3f3f3f"/><path d="m26.65625 20.164062c0 .796876-.644531 1.441407-1.441406 1.441407s-1.445313-.644531-1.445313-1.441407c0-.796874.648438-1.441406 1.445313-1.441406s1.441406.644532 1.441406 1.441406zm0 0" fill="#3f3f3f"/></svg>