<svg height="36pt" viewBox="0 0 36 36" width="36pt" xmlns="http://www.w3.org/2000/svg"><path d="m8.40625 2.136719h19.1875c3.460938 0 6.269531 2.808593 6.269531 6.269531v19.1875c0 3.460938-2.808593 6.269531-6.269531 6.269531h-19.1875c-3.460938 0-6.269531-2.808593-6.269531-6.269531v-19.1875c0-3.460938 2.808593-6.269531 6.269531-6.269531zm0 0" fill="#41a5c7" fill-rule="evenodd"/><path d="m22.5 7.875-2.25 9-1.125-4.5-5.625 1.125-1.6875 4.5-1.6875-6.75-4.5 1.125 3.375 13.578125 4.5.710937 2.25-3.039062 1.089844 3.414062 6.785156 1.085938 6.75-19.125zm0 0" fill="#fff"/></svg>