<svg height="16" width="16" xmlns="http://www.w3.org/2000/svg"><path d="m3 1c-2 0-2 2-2 2v10c0 2 2 2 2 2h10c2 0 2-2 2-2v-10c0-2-2-2-2-2zm2.5 3c .8284 0 1.5.6716 1.5 1.5s-.6716 1.5-1.5 1.5-1.5-.6716-1.5-1.5.6716-1.5 1.5-1.5zm3 5c .45 0 .8303.2107 1.0703.4707.24.27.7397 1.2693.8497 1.3793.1.11.15.15.33.15h1.25v1h-1.25c-.45 0-.8303-.211-1.0703-.471-.24-.27-.7396-1.269-.8496-1.379-.1-.11-.1501-.15-.3301-.15s-.2301.04-.3301.15c-.11.11-.6096 1.109-.8496 1.379-.24.26-.6203.471-1.0703.471h-2.25v-1h2.25c.18 0 .2301-.04.3301-.15.11-.11.6096-1.1093.8496-1.3793.24-.26.6203-.4707 1.0703-.4707z" fill="#d3dae3"/></svg>