<svg height="32" width="32" xmlns="http://www.w3.org/2000/svg"><g transform="translate(38.915279 .542373)"><path d="m-11.011576 6.1847571c1.1687342-.000738 2.1096292.940894 2.1096292 2.10963v17.6105199c0 1.168735-.940895 2.109629-2.1096292 2.109629h-23.80736c-1.168734 0-2.109681-.940894-2.109629-2.109629l.000731-16.2445071.000732-5.0669078c0-.937797.754977-1.692774 1.692773-1.692774h9.09082c.937797 0 1.704839.371322 2.299888 1.096152l1.801865 2.19486z" fill="#9a9a9a"/><path d="m-36.538303 8.7427831c-.15224 0-.250269.1186872-.388672.1601563v.7578125 2.1777341l27.1406252 15.669922c.508217-.384514.884766-.914269.884766-1.603515v-1.519532l-27.0957032-15.6425779zm6.833985 0 20.8027342 12.0097659v-3.632813l-14.5117192-8.3769529zm12.582031 0 8.2207032 4.7441409v-3.6328131l-1.9277342-1.1113278zm-19.804688 6.7285159-.002 3.632812 15.431641 8.910157h6.292969zm-.002 7.263672v3.169922c-.00001.238629.179577.395811.251953.609375l2.595704 1.5h6.292968z" fill="#363636"/></g></svg>