<svg height="32" width="32" xmlns="http://www.w3.org/2000/svg"><path d="m27.90368 6.7271304c1.168734-.0007391 2.109629.940894 2.109629 2.10963v17.6105186c0 1.168735-.940895 2.109629-2.109629 2.109629h-23.807359c-1.168735 0-2.109682-.940894-2.10963-2.109629l.000732-16.244506.000731-5.0669081c0-.9377961.754977-1.692773 1.692773-1.692773h9.09082c.937797 0 1.704839.371321 2.299888 1.0961519l1.801865 2.1948595z" fill="#f49940"/><path d="m15.008 10.635593s.577.353.17 1.281c-.616 1.399.568 1.719.568 1.719s-.376-.328.125-1.482c.554-1.28-.863-1.518-.863-1.518zm1.592 1.928s-1.049.465-.373 1.738c.446.843-.049 1.262-.049 1.262s1.267-.418.656-1.582c-.549-1.053-.234-1.418-.234-1.418zm-3.264.072s-.751.799-.008 1.781c.492.654.17 1.219.17 1.219s.931-.825.258-1.729c-.608-.814-.42-1.271-.42-1.271zm.162 3h-2.498l1.5 6h5.5l.34-.984c.166.041.338.07.517.07 1.184 0 2.143-.76 2.143-1.943 0-1.005-.693-1.84-1.625-2.073l.197-1.07zm5.705 1.76a.71429 1.4286 15 0 1  .024.004.71429 1.4286 15 0 1  .32 1.564.71429 1.4286 15 0 1 -1.035 1.199z" fill-opacity=".65098"/></svg>