<svg height="32" width="32" xmlns="http://www.w3.org/2000/svg"><path d="m21.186981 2.0000001h-13.65097c-3.066406 0-5.536011 2.4676662-5.536011 5.5340721v16.9299168c0 3.066406 2.469605 5.536011 5.536011 5.536011h16.929917c3.066406 0 5.534072-2.469605 5.534072-5.536011v-13.65097z" fill="#ccc" fill-rule="evenodd"/><path d="m30 10.813019-8.813019-8.8130188v3.2789473c0 3.0664056 2.467666 5.5340715 5.534072 5.5340715z" fill="#999" fill-rule="evenodd"/><path d="m16.271186 11.559322c-1.657 0-3 1.343-3 3s1.343 3 3 3 3-1.343 3-3-1.343-3-3-3zm-2.857 7c-2.143 0-2.143 4-2.143 4h10s0-4-2.143-4z" fill="#999"/></svg>