<svg height="24pt" viewBox="0 0 24 24" width="24pt" xmlns="http://www.w3.org/2000/svg"><path d="m5.605469 1.421875h12.789062c2.308594 0 4.183594 1.875 4.183594 4.183594v12.789062c0 2.308594-1.875 4.183594-4.183594 4.183594h-12.789062c-2.308594 0-4.183594-1.875-4.183594-4.183594v-12.789062c0-2.308594 1.875-4.183594 4.183594-4.183594zm0 0" fill="#8bc34a" fill-rule="evenodd"/><g fill="#fff"><path d="m12 8.902344c-.828125 0-1.5.675781-1.5 1.5v3c0 .824218.671875 1.5 1.5 1.5s1.5-.675782 1.5-1.5v-3c0-.824219-.671875-1.5-1.5-1.5zm0 .75c.414062 0 .75.300781.75.75 0 .375-.335938.75-.75.75s-.75-.375-.75-.75c0-.449219.335938-.75.75-.75zm0 2.25c.414062 0 .75.335937.75.75v.75c0 .414062-.335938.75-.75.75s-.75-.335938-.75-.75v-.75c0-.414063.335938-.75.75-.75zm0 0"/><path d="m11.25 1.402344v.75h.75v-.75zm0 1.5v.75h.75v-.75zm0 1.5v.75h.75v-.75zm0 1.5v.75h.75v-.75zm0 1.5v.75h.75v-.75zm0 0"/><path d="m12 2.152344v.75h.75v-.75zm0 1.5v.75h.75v-.75zm0 1.5v.75h.75v-.75zm0 1.5v.75h.75v-.75zm0 1.5v.75h.75v-.75zm0 0"/></g></svg>