<svg height="32" width="32" xmlns="http://www.w3.org/2000/svg" xmlns:xlink="http://www.w3.org/1999/xlink"><linearGradient id="a" gradientTransform="matrix(-2.5418245 0 0 2.5853088 185.47078 -277.37464)" gradientUnits="userSpaceOnUse" x1="67.894455" x2="67.854446" y1="108.691" y2="113.1134"><stop offset="0" stop-color="#f9f9f9"/><stop offset="1" stop-color="#999"/></linearGradient><rect fill="#549efc" fill-rule="evenodd" height="28.203388" ry="5.575182" width="28.203388" x="1.898306" y="1.898306"/><g transform="matrix(.7078483 0 0 .7078483 5.548373 5.327505)"><path d="m13.255609 9.1862013-11.7215472 17.4445817h7.190917l11.6972242-17.7375945-4.410429-5.5609753h-7.4785532z" fill="#fff"/><path d="m17.065033 16.042246 6.712931-.05402 4.218671 5.369218-4.122792 5.465096h-6.999159l4.31455-5.752733z" fill="#fcffff"/></g>


   xmlns:dc="http://purl.org/dc/elements/1.1/"
   xmlns:cc="http://creativecommons.org/ns#"
   xmlns:rdf="http://www.w3.org/1999/02/22-rdf-syntax-ns#"
   xmlns:svg="http://www.w3.org/2000/svg"
   xmlns="http://www.w3.org/2000/svg"
   xmlns:xlink="http://www.w3.org/1999/xlink"
   xmlns:sodipodi="http://sodipodi.sourceforge.net/DTD/sodipodi-0.dtd"
   xmlns:inkscape="http://www.inkscape.org/namespaces/inkscape"
   height="32"
   width="32"
   version="1"
   id="svg8"
   sodipodi:docname="snow-top-5.svg"
   inkscape:version="0.92.1 r">
  <path d="m7.3539743 6.110562c-2.99527 2.68427-1.38112 7.8168-3.67373 8.29097-2.03077.6129-3.54094997-1.38483-3.65998997-4.5031399-.34993-8.6273901 3.91063997-9.42665011 6.87900997-9.52374011 28.3423887-2.04651999 1.76227 4.92046001.45471 5.73591001z" fill="url(#a)"/></svg>