<svg height="22" viewBox="0 0 22 22" width="22" xmlns="http://www.w3.org/2000/svg"><path d="m6.7142852 2.8131871-1.4285714 1.4285714h-1.4285714c-2.85714293 0-2.85714293 2.8571429-2.85714293 2.8571429v9.9999996c0 2.857143 2.85714293 2.857143 2.85714293 2.857143h14.2857146c2.857143 0 2.857143-2.857143 2.857143-2.857143v-9.9999996c0-2.8571429-2.857143-2.8571429-2.857143-2.8571429h-1.428571l-1.428571-1.4285714zm4.2857148 4.2857143c2.366858 0 4.285715 1.9188571 4.285715 4.2857136 0 2.366857-1.918857 4.285715-4.285715 4.285715-2.3668575 0-4.2857148-1.918858-4.2857148-4.285715 0-2.3668565 1.9188573-4.2857136 4.2857148-4.2857136z" fill="#d3dae3"/></svg>