<svg height="22" width="22" xmlns="http://www.w3.org/2000/svg"><path d="m13 9c-1.11 0-2 .91-2 2.03v.97h-1v4h6v-4h-1v-.97c0-1.12-.89-2.03-2-2.03zm0 1c .55 0 1 .44 1 1v1h-2v-1c0-.56.45-1 1-1z" fill="#d1d9e3"/><path d="m12 4.9999906c-3.3137 0-6 2.6863-6 6.0000004h-2l3 4 3-4h-2c0-2.2091004 1.7909-4.0000004 4-4.0000004 2.209 0 4 1.7909 4 4.0000004h2c0-3.3137004-2.686-6.0000004-6-6.0000004zm1 9.8570004c-.3214.084-.6526.143-1 .143a1 1 0 0 0 -1 1 1 1 0 0 0 1 1 1 1 0 0 0  .0957-.004c.3085-.005.6087-.04.9043-.09z" fill="#d1d9e3" opacity=".3"/></svg>