<svg height="64" width="64" xmlns="http://www.w3.org/2000/svg"><rect height="32" opacity=".2" rx="2.5" width="50" x="7" y="24"/><path d="m7 44.5c0 1.385 1.115 2.5 2.5 2.5h45c1.385 0 2.5-1.115 2.5-2.5v-27c0-1.385-1.115-2.5-2.5-2.5h-25.5v-2.5c0-1.385-1.115-2.5-2.5-2.5h-17c-1.385 0-2.5 1.115-2.5 2.5" fill="#0096aa"/><rect height="32" opacity=".2" rx="2.5" width="50" x="7" y="22"/><rect fill="#e4e4e4" height="20" rx="2.5" width="44" x="10" y="18"/><rect fill="#00bcd4" height="32" rx="2.5" width="50" x="7" y="23"/><path d="m9.5 10c-1.385 0-2.5 1.115-2.5 2.5v1c0-1.385 1.115-2.5 2.5-2.5h17c1.385 0 2.5 1.115 2.5 2.5v-1c0-1.385-1.115-2.5-2.5-2.5zm19.5 5v1h25.5c1.39 0 2.5 1.115 2.5 2.5v-1c0-1.385-1.11-2.5-2.5-2.5z" fill="#fff" opacity=".1"/><path d="m35.98 29c-.991.035-2.195.579-2.906 1.311-.639.65-1.201 1.685-1.051 2.68 1.107.076 2.241-.495 2.93-1.227.688-.734 1.154-1.749 1.027-2.764zm-.656 4.01c-1.315.105-2.516.969-3.196.969-.774 0-1.969-.939-3.238-.914-1.668.027-3.208 1.038-4.067 2.641-1.732 3.226-.446 8.005 1.243 10.622.825 1.281 1.836 2.672 3.105 2.672s1.715-.867 3.219-.867 1.915.867 3.243.867 2.184-1.333 3.004-2.617c.947-1.486 1.34-2.927 1.363-3.001-.03-.014-2.611-1.072-2.637-4.262-.025-2.67 2.034-3.952 2.125-4.015-1.154-1.813-2.953-2.062-3.594-2.09-.191-.021-.382-.019-.57-.004z" fill="#00424a"/></svg>