<svg height="16" viewBox="0 0 16 16" width="16" xmlns="http://www.w3.org/2000/svg"><path d="m2.75 1c-.4172 0-.75.3328-.75.75v13.5c0 .417.3328.75.75.75h10.5c.418 0 .75-.332.75-.75v-9.25l-4.125-.875-.875-4.125z" fill="#e4e4e4"/><path d="m9 1v4.1667c0 .4584.3749.8333.8333.8333h4.1667z" fill="#fafafa"/><path d="m6.0416 7.0002v4.2063c-.1822-.082-.3827-.123-.5833-.123-.8066 0-1.4583.652-1.4583 1.458 0 .80663.65168 1.4583 1.4583 1.4583.79296 0 1.4447-.63802 1.4583-1.431v-3.8184h3.2083v2.4558c-.18223-.08166-.38278-.1225-.58332-.1225-.80663 0-1.4583.65168-1.4583 1.4583 0 .80663.65168 1.4583 1.4583 1.4583.77472 0 1.4172-.61067 1.4538-1.3854l.0047-.0082v-5.6057z" fill="#fff"/><path d="m6.0416 7.0002v4.2063c-.1822-.082-.3827-.123-.5833-.123-.8066 0-1.4583.652-1.4583 1.458 0 .80663.65168 1.4583 1.4583 1.4583.79296 0 1.4447-.63802 1.4583-1.431v-3.8184h3.2083v2.4558c-.18223-.08166-.38278-.1225-.58332-.1225-.80663 0-1.4583.65168-1.4583 1.4583 0 .80663.65168 1.4583 1.4583 1.4583.77472 0 1.4172-.61067 1.4538-1.3854l.0047-.0082v-5.6057z" opacity=".6"/></svg>