<svg height="17pt" viewBox="0 0 17 17" width="17pt" xmlns="http://www.w3.org/2000/svg"><path d="m15.9375 3.703125c-.027344-.308594-.0625-.617187-.179688-.886719-.148437-.355468-.363281-.675781-.632812-.941406-.269531-.269531-.585938-.484375-.941406-.636719-.269532-.113281-.578125-.148437-.882813-.175781h-4.800781v7.4375h7.4375zm0 0" fill="#2086e7"/><path d="m3.699219 1.0625c-.304688.027344-.613281.0625-.882813.175781-.355468.152344-.675781.367188-.941406.636719-.269531.265625-.484375.585938-.636719.941406-.113281.269532-.148437.578125-.175781.882813v4.800781h7.4375v-7.4375zm0 0" fill="#14ddb1"/><path d="m13.300781 15.9375c.304688-.027344.613281-.0625.882813-.175781.355468-.152344.675781-.367188.941406-.636719.269531-.265625.484375-.585938.636719-.941406.113281-.269532.148437-.578125.175781-.882813v-4.800781h-7.4375v7.4375zm0 0" fill="#14ddb1"/><path d="m1.0625 13.296875c.027344.308594.0625.617187.179688.886719.148437.355468.363281.675781.632812.941406.269531.269531.585938.484375.941406.636719.269532.113281.578125.148437.882813.175781h4.800781v-7.4375h-7.4375zm0 0" fill="#2086e7"/><path d="m5.058594 2.808594h6.882812c1.242188 0 2.25 1.007812 2.25 2.25v6.882812c0 1.242188-1.007812 2.25-2.25 2.25h-6.882812c-1.242188 0-2.25-1.007812-2.25-2.25v-6.882812c0-1.242188 1.007812-2.25 2.25-2.25zm0 0" fill="#3f3f3f" fill-rule="evenodd"/><g fill="none" stroke="#fff" stroke-linecap="round" stroke-width="2" transform="matrix(.468222 0 0 .468222 1.479872 1.008486)"><path d="m20.999941 15.999928s0 1.001129-2.002257 1.001129c-1.993914 0-1.993914-2.002257-1.993914-4.004514 0-1.993913 0-3.99617 1.993914-3.99617 2.002257 0 2.002257 1.001128 2.002257 1.001128" stroke-linejoin="bevel"/><path d="m9.003086 13.997672h3.996171m-3.996171 3.003385v-5.998427m3.996171 5.998427v-5.998427m-3.996171 0s0-2.002257 1.993914-2.002257c2.002257 0 2.002257 2.002257 2.002257 2.002257" stroke-linejoin="bevel"/><path d="m9.003086 22.999484h8.000684"/></g></svg>