<svg height="17pt" viewBox="0 0 17 17" width="17pt" xmlns="http://www.w3.org/2000/svg" xmlns:xlink="http://www.w3.org/1999/xlink"><clipPath id="a"><path d="m0 0h17v17h-17z"/></clipPath><path d="m3.96875 1.007812h9.0625c1.632812 0 2.960938 1.328126 2.960938 2.960938v9.0625c0 1.632812-1.328126 2.960938-2.960938 2.960938h-9.0625c-1.632812 0-2.960938-1.328126-2.960938-2.960938v-9.0625c0-1.632812 1.328126-2.960938 2.960938-2.960938zm0 0" fill="#636e73" fill-rule="evenodd"/><g clip-path="url(#a)"><path d="m6.804688 5.445312h5.53125v.53125h-5.097657l-1.011719 4.832032-.167968.746094-.332032-.679688-1.0625-2.125.464844-.234375.714844 1.445313.914062-4.300782zm1.28125 1.0625h.53125l1.0625 1.695313 1.0625-1.695313h.53125l-1.328126 2.125 1.328126 2.125h-.53125l-1.0625-1.695312-1.0625 1.695312h-.53125l1.328124-2.125zm0 0" fill="#ce8081"/></g></svg>