<svg height="17pt" viewBox="0 0 17 17" width="17pt" xmlns="http://www.w3.org/2000/svg"><path d="m3.96875 1.007812h9.0625c1.632812 0 2.960938 1.328126 2.960938 2.960938v9.0625c0 1.632812-1.328126 2.960938-2.960938 2.960938h-9.0625c-1.632812 0-2.960938-1.328126-2.960938-2.960938v-9.0625c0-1.632812 1.328126-2.960938 2.960938-2.960938zm0 0" fill="#19979d" fill-rule="evenodd"/><path d="m5.773438 5.84375c-.335938 0-.671876.066406-.984376.199219-.3125.132812-.597656.328125-.839843.570312-.238281.246094-.433594.539063-.5625.863281-.132813.324219-.199219.671876-.199219 1.023438s.066406.699219.199219 1.019531c.128906.324219.324219.617188.5625.863281.242187.246094.527343.4375.839843.570313.304688.128906.632813.195313.960938.199219h.023438c.800781.039062 1.445312-.277344 1.917968-.738282.324219-.316406.578125-.691406.808594-1.070312.230469.378906.484375.753906.808594 1.070312.472656.460938 1.117187.777344 1.917968.738282h.023438c.328125-.003906.65625-.070313.960938-.199219.3125-.132813.597656-.324219.835937-.570313l.003906-.003906c.238281-.246094.433594-.535156.5625-.859375.132813-.320312.199219-.671875.199219-1.019531 0-.351562-.066406-.699219-.199219-1.023438l-.003906-.003906c-.128906-.320312-.320313-.613281-.5625-.859375-.238281-.242187-.523437-.4375-.835937-.570312-.3125-.132813-.648438-.199219-.984376-.199219-.84375 0-1.511718.347656-2.003906.828125-.28125.28125-.511718.597656-.722656.925781-.210938-.328125-.441406-.644531-.722656-.925781-.492188-.480469-1.160156-.828125-2.003906-.828125zm.097656 1.0625c.597656 0 .980468.203125 1.332031.539062.277344.265626.523437.625.765625 1.019532-.277344.460937-.542969.882812-.84375 1.167968-.332031.316407-.671875.488282-1.234375.457032h-.019531c-.214844 0-.429688-.042969-.625-.121094-.195313-.082031-.375-.199219-.519532-.34375l-.007812-.007812c-.148438-.144532-.269531-.324219-.347656-.515626-.082032-.191406-.121094-.398437-.121094-.601562 0-.207031.039062-.414062.121094-.605469.078125-.191406.199218-.367187.347656-.515625l.007812-.007812c.144532-.144532.324219-.261719.519532-.339844.195312-.082031.410156-.125.625-.125zm5.257812 0c .214844 0 .429688.042969.625.125.195313.078125.371094.195312.519532.339844l.007812.007812c.148438.148438.269531.324219.347656.515625.082032.191407.121094.398438.121094.601563 0 .207031-.039062.414062-.121094.605468-.078125.191407-.199218.367188-.347656.515626l-.007812.007812c-.144532.144531-.324219.261719-.519532.34375-.195312.078125-.410156.121094-.625.121094h-.019531c-.5625.03125-.902344-.140625-1.234375-.457032-.300781-.285156-.566406-.707031-.84375-1.167968.242188-.394532.484375-.753906.765625-1.019532.351563-.335937.734375-.539062 1.332031-.539062zm-.503906.53125v.53125h-.53125v1.0625h.53125v.53125h1.0625v-.53125h.53125v-1.0625h-.53125v-.53125zm-5.84375.53125v1.0625h2.125v-1.0625zm0 0" fill="#79ff88"/></svg>