<svg height="17pt" viewBox="0 0 17 17" width="17pt" xmlns="http://www.w3.org/2000/svg" xmlns:xlink="http://www.w3.org/1999/xlink"><filter id="a" height="100%" width="100%" x="0%" y="0%"><feColorMatrix in="SourceGraphic" type="matrix" values="0 0 0 0 1 0 0 0 0 1 0 0 0 0 1 0 0 0 1 0"/></filter><mask id="b"><g filter="url(#a)"><path d="m0 0h17v17h-17z" fill-opacity=".964706"/></g></mask><clipPath id="c"><path d="m0 0h17v17h-17z"/></clipPath><path d="m3.96875 1.007812h9.0625c1.632812 0 2.960938 1.328126 2.960938 2.960938v9.0625c0 1.632812-1.328126 2.960938-2.960938 2.960938h-9.0625c-1.632812 0-2.960938-1.328126-2.960938-2.960938v-9.0625c0-1.632812 1.328126-2.960938 2.960938-2.960938zm0 0" fill="#3f5979" fill-rule="evenodd"/><path d="m8.699219 3.984375c-.039063 0-.078125.003906-.121094.011719-.484375.066406-.621094.183594-.917969.816406-.199218.425781-.296875.476562-.558594.53125-1.203124-.886719-1.203124.46875-1.441406.84375-.328125-.289062-.75-.914062-1.167968-1.261719-.371094-.3125-.742188-.503906-1.035157-.304687-.234375.164062-.429687.519531-.503906 1.332031-.097656 1.109375 0 1.734375.699219 2.652344.785156 1.039062 1.960937 2.078125 3.816406 3.382812.804688.566407 1.476562 1.027344 1.5 1.027344.109375 0-1.078125-1.5625-1.796875-2.359375-1.078125-1.195312-1.273437-1.621094-1.296875-2.15625-.023438-.484375.183594-.804688.457031-.804688.101563 0 .550781.34375 1.050781.914063.414063.453125.6875 1.09375 1.019532 1.558594.703125.890625 1.515625 1.003906 1.820312.253906.292969-.726563.101563-2.003906-.570312-2.894531-.074219-.328125.070312-.375.398437-.375.417969 0 1.207031.285156 1.683594.703125.585937.515625.6875.511719 1.339844 1.824219.386719.777343.769531 1.5.851562 1.605468.148438.195313.148438.191406.152344-.046875-.125-2.007812-.8125-3.914062-2.296875-5.285156-.253906-.222656-.992188-.765625-1.644531-1.207031-.945313-.640625-1.164063-.769532-1.4375-.761719zm0 0" fill="#8d8069"/><g clip-path="url(#c)" mask="url(#b)"><path d="m9.347656 8.082031c-.40625-.449219-.875-.507812-1.046875-.128906-.175781.378906.011719 1.046875.414063 1.496094.40625.449219.875.507812 1.046875.128906.175781-.378906-.011719-1.050781-.414063-1.496094zm0 0" fill="#fff"/></g></svg>