<svg height="17pt" viewBox="0 0 17 17" width="17pt" xmlns="http://www.w3.org/2000/svg"><g fill-rule="evenodd"><path d="m1.007812 4.898438v8.132812c0 1.640625 1.320313 2.960938 2.960938 2.960938h9.0625c1.640625 0 2.960938-1.320313 2.960938-2.960938v-8.132812zm0 0" fill="#45b445"/><path d="m1.007812 4.898438h14.984376v-.925782c0-1.644531-1.320313-2.964844-2.960938-2.964844h-9.0625c-1.640625 0-2.960938 1.320313-2.960938 2.964844zm0 0" fill="#6ac36a"/><path d="m9.242188 10.519531c0 .507813.015624.929688-.25 1.382813-.210938.363281-.546876.589844-.921876.589844-.511718 0-.808593-.378907-.808593-.941407 0-1.109375 1.019531-1.3125 1.980469-1.3125zm1.347656 3.171875c-.089844.078125-.214844.085938-.316406.035156-.441407-.359374-.523438-.527343-.765626-.871093-.730468.730469-1.25.949219-2.199218.949219-1.121094 0-1.996094-.675782-1.996094-2.03125 0-1.054688.585938-1.773438 1.421875-2.125.722656-.3125 1.734375-.367188 2.507813-.453126v-.167968c0-.3125.023437-.675782-.160157-.945313-.164062-.238281-.476562-.335937-.75-.335937-.507812 0-.960937.253906-1.070312.78125-.023438.117187-.113281.230468-.234375.238281l-1.292969-.136719c-.109375-.023437-.230469-.109375-.199219-.273437.300782-1.527344 1.714844-1.988281 2.984375-1.988281.648438 0 1.496094.167968 2.007813.648437.648437.589844.585937 1.378906.585937 2.238281v2.027344c0 .609375.257813.878906.503907 1.207031.085937.117188.105468.257813-.003907.347657-.273437.222656-.757812.632812-1.023437.863281l-.003906-.003907" fill="#fff"/></g></svg>