<svg height="17pt" viewBox="0 0 17 17" width="17pt" xmlns="http://www.w3.org/2000/svg" xmlns:xlink="http://www.w3.org/1999/xlink"><linearGradient id="a" gradientTransform="matrix(-1.410747 0 0 1.373445 102.938809 -147.544689)" gradientUnits="userSpaceOnUse" x1="67.894455" x2="67.854446" y1="108.691" y2="113.1134"><stop offset="0" stop-color="#f9f9f9"/><stop offset="1" stop-color="#999"/></linearGradient><path d="m3.96875 1.007812h9.0625c1.632812 0 2.960938 1.328126 2.960938 2.960938v9.0625c0 1.632812-1.328126 2.960938-2.960938 2.960938h-9.0625c-1.632812 0-2.960938-1.328126-2.960938-2.960938v-9.0625c0-1.632812 1.328126-2.960938 2.960938-2.960938zm0 0" fill="#549efc" fill-rule="evenodd"/><path d="m7.933594 6.285156-4.410156 6.558594h2.707031l4.398437-6.667969-1.660156-2.09375h-2.8125zm0 0" fill="#fff"/><path d="m9.363281 8.863281 2.527344-.019531 1.585937 2.019531-1.550781 2.054688h-2.632812l1.621093-2.164063zm0 0" fill="#fcffff"/><path d="m13.082031.00390625c4.441407-.17968725 5.023438 5.05859375 2.160157 5.05078175-.363282 0-.859376-.105469-1.59375-.78125-7.789063-5.429688-7.730469 1.574218-9.40625.464843-.917969-.96875-.925782 2.472657-2.199219 2.722657-1.128907.324218-1.964844-.734376-2.0312502-2.390626-.1953128-4.585937 2.1718752-5.007812 3.8164062-5.0624995 3.175781.0742187 6.144531-.0234375 9.253906-.00390625zm0 0" fill="url(#a)"/></svg>