<svg height="17pt" viewBox="0 0 17 17" width="17pt" xmlns="http://www.w3.org/2000/svg"><path d="m3.96875 1.007812h9.0625c1.632812 0 2.960938 1.328126 2.960938 2.960938v9.0625c0 1.632812-1.328126 2.960938-2.960938 2.960938h-9.0625c-1.632812 0-2.960938-1.328126-2.960938-2.960938v-9.0625c0-1.632812 1.328126-2.960938 2.960938-2.960938zm0 0" fill="#c72828" fill-rule="evenodd"/><path d="m21.502202 19.497692s-2.770752-4.470539-3.006561-6.995657c-.284935-3.065512 2.004374-9.00003 2.004374-9.00003" fill="none" stroke="#1f711f" stroke-linecap="round" stroke-linejoin="round" stroke-width="3" transform="matrix(.397568 0 0 .397568 2.13891 2.142871)"/><path d="m10.497798 21.502065s.167031-7.762034 2.004374-11.004403c1.748914-3.075338 7.997843-6.995657 7.997843-6.995657" fill="none" stroke="#248424" stroke-linecap="round" stroke-linejoin="round" stroke-width="3" transform="matrix(.397568 0 0 .397568 2.13891 2.142871)"/><path d="m13.667969 10.09375c0 1.539062-1.246094 2.785156-2.78125 2.785156-1.539063 0-2.785157-1.246094-2.785157-2.785156 0-1.535156 1.246094-2.78125 2.785157-2.78125 1.535156 0 2.78125 1.246094 2.78125 2.78125zm0 0" fill="#fff"/><path d="m8.898438 11.285156c0 1.539063-1.246094 2.785156-2.785157 2.785156-1.535156 0-2.78125-1.246093-2.78125-2.785156 0-1.535156 1.246094-2.78125 2.78125-2.78125 1.539063 0 2.785157 1.246094 2.785157 2.78125zm0 0" fill="#ff3737"/></svg>