<svg height="17pt" viewBox="0 0 17 17" width="17pt" xmlns="http://www.w3.org/2000/svg"><path d="m15.9375 3.703125c-.027344-.308594-.0625-.617187-.179688-.886719-.148437-.355468-.363281-.675781-.632812-.941406-.269531-.269531-.585938-.484375-.941406-.636719-.269532-.113281-.578125-.148437-.882813-.175781h-4.800781v7.4375h7.4375zm0 0" fill="#cf4f8c"/><path d="m3.699219 1.0625c-.304688.027344-.613281.0625-.882813.175781-.355468.152344-.675781.367188-.941406.636719-.269531.265625-.484375.585938-.636719.941406-.113281.269532-.148437.578125-.175781.882813v4.800781h7.4375v-7.4375zm0 0" fill="#21d789"/><path d="m13.300781 15.9375c.304688-.027344.613281-.0625.882813-.175781.355468-.152344.675781-.367188.941406-.636719.269531-.265625.484375-.585938.636719-.941406.113281-.269532.148437-.578125.175781-.882813v-4.800781h-7.4375v7.4375zm0 0" fill="#21d789"/><path d="m1.0625 13.296875c.027344.308594.0625.617187.179688.886719.148437.355468.363281.675781.632812.941406.269531.269531.585938.484375.941406.636719.269532.113281.578125.148437.882813.175781h4.800781v-7.4375h-7.4375zm0 0" fill="#2086e7"/><path d="m5.058594 2.808594h6.882812c1.242188 0 2.25 1.007812 2.25 2.25v6.882812c0 1.242188-1.007812 2.25-2.25 2.25h-6.882812c-1.242188 0-2.25-1.007812-2.25-2.25v-6.882812c0-1.242188 1.007812-2.25 2.25-2.25zm0 0" fill="#3f3f3f" fill-rule="evenodd"/><g fill="none" stroke="#fff" stroke-linecap="round" stroke-width="2" transform="matrix(.432292 0 0 .432292 -18.617202 15.888658)"><path d="m56.72889-10.088813h7.99698"/><path d="m60.731898-17.082782s0 .993975-2.006022.993975c-1.996986 0-1.996986-1.996986-1.996986-3.993972 0-2.006022 0-4.003008 1.996986-4.003008 2.006022 0 2.006022 1.003011 2.006022 1.003011" stroke-linejoin="bevel"/><path d="m64.72587-24.085787v7.99698h4.003008" stroke-linejoin="round"/></g></svg>