<svg height="17pt" viewBox="0 0 17 17" width="17pt" xmlns="http://www.w3.org/2000/svg"><g fill-rule="evenodd"><path d="m3.96875 1.007812h9.0625c1.632812 0 2.960938 1.328126 2.960938 2.960938v9.0625c0 1.632812-1.328126 2.960938-2.960938 2.960938h-9.0625c-1.632812 0-2.960938-1.328126-2.960938-2.960938v-9.0625c0-1.632812 1.328126-2.960938 2.960938-2.960938zm0 0" fill="#009587"/><path d="m4.898438 15.992188h8.132812c1.640625 0 2.960938-1.320313 2.960938-2.964844v-9.058594c0-1.640625-1.320313-2.960938-2.960938-2.960938h-8.132812zm0 0" fill="#009587"/><path d="m4.898438 15.992188v-14.984376h-.929688c-1.640625 0-2.960938 1.320313-2.960938 2.960938v9.058594c0 1.644531 1.320313 2.964844 2.960938 2.964844zm0 0" fill="#00776c"/></g><path d="m12.292969 8.695312c0-.605468-.335938-1.125-.832031-1.394531v2.785157c.492187-.265626.832031-.789063.832031-1.390626zm-4.96875-1.351562v2.703125h1.308593l1.898438 1.898437v-6.5l-1.898438 1.898438zm4.136719-1.898438v.695313c1.078124.34375 1.855468 1.363281 1.855468 2.554687 0 1.191407-.777344 2.210938-1.855468 2.554688v.695312c1.460937-.363281 2.554687-1.671874 2.554687-3.25 0-1.578124-1.09375-2.886718-2.554687-3.25zm0 0" fill="#d8f5cd"/></svg>