<svg height="22" viewBox="0 0 22 22" width="22" xmlns="http://www.w3.org/2000/svg"><rect fill="#3f3f3f" height="18" rx=".581" ry=".546" width="18" x="2" y="2"/><path d="m1.5000051 1.499985c-.2769997 0-.5000001.22299-.5000001.49999v5.00001c0 .27704.2230004.5.5000001.5h4.9999989c.2769978 0 .4999997-.223.4999997-.5v-5.00001c0-.27704-.2229996-.49999-.4999997-.49999zm6.9999985 0c-.2770016 0-.5000001.22299-.5000001.49999v5.00001c0 .27704.2229997.5.5000001.5h4.9999984c.277001 0 .5-.223.5-.5v-5.00001c0-.27704-.223-.49999-.5-.49999zm6.9999974 0c-.277001 0-.499999.22299-.499999.49999v5.00001c0 .27704.222999.5.499999.5h4.999999c.276998 0 .500001-.223.500001-.5v-5.00001c0-.27704-.223003-.49999-.500001-.49999zm-13.9999959 6.99998c-.2769997 0-.5000001.223-.5000001.50003v4.99998c0 .27704.2230004.49999.5000001.49999h4.9999989c.2769978 0 .4999997-.22299.4999997-.49999v-4.99998c0-.27703-.2229996-.50003-.4999997-.50003zm6.9999985 0c-.2770016 0-.5000001.223-.5000001.50003v4.99998c0 .27704.2229997.49999.5000001.49999h4.9999984c.277001 0 .5-.22299.5-.49999v-4.99998c0-.27703-.223-.50003-.5-.50003zm6.9999974 0c-.277001 0-.499999.223-.499999.50003v4.99998c0 .27704.222999.49999.499999.49999h4.999999c.276998 0 .500001-.22299.500001-.49999v-4.99998c0-.27703-.223003-.50003-.500001-.50003zm-13.9999959 7.00003c-.2769997 0-.5000001.22299-.5000001.49999v5.00001c0 .27704.2230004.5.5000001.5h4.9999989c.2769978 0 .4999997-.22299.4999997-.5v-5.00001c0-.27704-.2229996-.49999-.4999997-.49999zm6.9999985 0c-.2770016 0-.5000001.22299-.5000001.49999v5.00001c0 .27704.2229997.5.5000001.5h4.9999984c.277001 0 .5-.22299.5-.5v-5.00001c0-.27704-.223-.49999-.5-.49999zm6.9999974 0c-.277001 0-.499999.22299-.499999.49999v5.00001c0 .27704.222999.5.499999.5h4.999999c.276998 0 .500001-.22299.500001-.5v-5.00001c0-.27704-.223003-.49999-.500001-.49999z" opacity=".2"/><path d="m1.5000051.999985c-.2769997 0-.4999999.223-.4999999.5v5.00001c0 .27704.223.49999.4999999.49999h4.9999989c.2770016 0 .5000001-.22299.5000001-.49999v-5.00001c0-.27704-.2229997-.5-.5000001-.5z" fill="#e4e4e4"/><path d="m8.5000036.999985c-.2770016 0-.5000001.223-.5000001.5v5.00001c0 .27704.2229997.49999.5000001.49999h4.9999984c.277001 0 .5-.22299.5-.49999v-5.00001c0-.27704-.223-.5-.5-.5z" fill="#f57e26"/><path d="m15.500002.999985c-.277002 0-.5.223-.5.5v5.00001c0 .27704.222999.49999.5.49999h4.999998c.276998 0 .500001-.22299.500001-.49999v-5.00001c0-.27704-.223003-.5-.500001-.5z" fill="#b130ae"/><path d="m1.5000051 7.999975c-.2769997 0-.4999999.22299-.4999999.49999v5.00002c0 .27703.223.49999.4999999.49999h4.9999989c.2770016 0 .5000001-.22299.5000001-.49999v-5.00002c0-.27704-.2229997-.49999-.5000001-.49999z" fill="#b130ae"/><path d="m8.5000036 7.999975c-.2770016 0-.5000001.22299-.5000001.49999v5.00002c0 .27703.2229997.49999.5000001.49999h4.9999984c.277001 0 .5-.22299.5-.49999v-5.00002c0-.27704-.223-.49999-.5-.49999z" fill="#e4e4e4"/><path d="m15.500002 7.999975c-.277002 0-.5.22299-.5.49999v5.00002c0 .27703.222999.49999.5.49999h4.999998c.276998 0 .500001-.22299.500001-.49999v-5.00002c0-.27704-.223003-.49999-.500001-.49999z" fill="#e4e4e4"/><path d="m1.5000051 14.999995c-.2769997 0-.4999999.223-.4999999.5v4.99997c0 .27704.223.50003.4999999.50003h4.9999989c.2770016 0 .5000001-.22299.5000001-.50003v-4.99997c0-.27704-.2229997-.5-.5000001-.5z" fill="#23992b"/><path d="m8.5000036 14.999995c-.2770016 0-.5000001.223-.5000001.5v4.99997c0 .27704.2229997.50003.5000001.50003h4.9999984c.277001 0 .5-.22299.5-.50003v-4.99997c0-.27704-.223-.5-.5-.5z" fill="#f57e26"/><path d="m15.500002 14.999995c-.277002 0-.5.223-.5.5v4.99997c0 .27704.222999.50003.5.50003h4.999998c.276998 0 .500001-.22299.500001-.50003v-4.99997c0-.27704-.223003-.5-.500001-.5z" fill="#23992b"/><path d="m1.500005.999985c-.2769997 0-.4999999.223-.4999999.5v.49999c0-.27704.223-.49999.4999999-.49999h4.999999c.2769978 0 .4999997.22299.4999997.49999v-.49999c0-.27704-.2229996-.5-.4999997-.5zm6.9999986 0c-.2770016 0-.5000001.223-.5000001.5v.49999c0-.27704.2229997-.49999.5000001-.49999h4.9999984c.277002 0 .5.22299.5.49999v-.49999c0-.27704-.223-.5-.5-.5zm6.9999984 0c-.277002 0-.5.223-.5.5v.49999c0-.27704.222999-.49999.5-.49999h4.999999c.276997 0 .499999.22299.499999.49999v-.49999c0-.27704-.222999-.5-.499999-.5zm-13.999997 6.99999c-.2769997 0-.4999999.22299-.4999999.49999v.5c0-.27704.223-.5.4999999-.5h4.999999c.2769978 0 .4999997.223.4999997.5v-.5c0-.27704-.2229996-.49999-.4999997-.49999zm6.9999986 0c-.2770016 0-.5000001.22299-.5000001.49999v.5c0-.27704.2229997-.5.5000001-.5h4.9999984c.277002 0 .5.223.5.5v-.5c0-.27704-.223-.49999-.5-.49999zm6.9999984 0c-.277002 0-.5.22299-.5.49999v.5c0-.27704.222999-.5.5-.5h4.999999c.276997 0 .499999.223.499999.5v-.5c0-.27704-.222999-.49999-.499999-.49999zm-13.999997 6.99999c-.2769997 0-.4999999.22299-.4999999.49999v.50003c0-.27704.223-.50003.4999999-.50003h4.999999c.2769978 0 .4999997.22299.4999997.50003v-.50003c0-.27704-.2229996-.49999-.4999997-.49999zm6.9999986 0c-.2770016 0-.5000001.22299-.5000001.49999v.50003c0-.27704.2229997-.50003.5000001-.50003h4.9999984c.277002 0 .5.22299.5.50003v-.50003c0-.27704-.223-.49999-.5-.49999zm6.9999984 0c-.277002 0-.5.22299-.5.49999v.50003c0-.27704.222999-.50003.5-.50003h4.999999c.276997 0 .499999.22299.499999.50003v-.50003c0-.27704-.222999-.49999-.499999-.49999z" fill="#fff" opacity=".2"/></svg>