<svg height="22" viewBox="0 0 22 22" width="22" xmlns="http://www.w3.org/2000/svg"><g transform="matrix(1.25 0 0 -1.25 0 22.00033)"><path d="m10.000085 16.400091a7.5999149 7.5987764 0 0 1 -.540619-.01953c-.0228-.000453-.04514.0022-.06797.0016-.4479046-.01279-.901709-.06372-1.3546719-.155443h-.0008c-.4531189-.09218-.894505-.221908-1.3179537-.388219-.04678-.01839-.092661-.03899-.1374985-.06171-.3785658.123469-.7719874.212788-1.1874867.216372-.2164076.0019-.4371776-.01459-.6585866-.05077-1.949305-.317405-3.1728437-2.00718-3.4311911-3.872071-.1608306-.082279-.32944392-.145498-.48749452-.234338-.5631981-.316689-.88062918-.940979-.80467853-1.582557.07252789-.610735.21229353-1.3457918.47968213-2.1473108.1368694-.4103895.3072961-.8348897.51718172-1.2685458l.00078-.00155.00078-.0008v-.0008c.0363906-.0739557.0784422-.1449894.1257798-.2124661.2206349-.4312322.4615106-.8655093.7687414-1.296666 0 0 .00078-.0008.00078-.0008.0003552-.0004985.0004272-.00105.00078-.00155.1157661-.1627832.2363721-.3230644.3632822-.4811406 1.3330783-1.6662776 2.904539-2.6005208 4.0921416-3.1096553.1523598-.0651678.31392-.1062764.4789007-.1218555.1031503-.0428567.2105051-.0747968.3203094-.0952971l.6554612-.1210741-.0726552.0148412c.2761524-.0643688.4806821-.0874531.6031177-.1085761l-.077343.014841c.3608159-.080642.6187261-.080657.760929-.089829.00911-.0006.018225-.00111.027345-.00156.090196-.00427.3358439-.043246.7234299-.010154l-.05859-.00391.07344.00313a7.5999149 7.5987764 0 0 1  .204677-.0101587 7.5999149 7.5987764 0 0 1 7.599915 7.5987768 7.5999149 7.5987764 0 0 1 -7.599915 7.5987761z" opacity=".2"/><path d="m10.000085 16.800087a7.5999149 7.5987764 0 0 1 -.540619-.01953c-.0228-.000453-.04514.0022-.06797.0015-.4479046-.01279-.901709-.06372-1.3546719-.155444h-.0008c-.4531169-.09213-.894503-.221858-1.3179517-.388168-.04678-.0184-.092661-.03899-.1374985-.06171-.3785658.123468-.7719874.212788-1.1874867.216371-.2164076.0019-.4371776-.01459-.6585866-.05077-1.949307-.317354-3.1728457-2.007129-3.4311931-3.872021-.1608306-.082279-.32944392-.145497-.48749452-.234337-.5631981-.31669-.88062918-.94098-.80467853-1.582558.07252789-.610734.21229353-1.345791.47968213-2.1473103.1368694-.4103894.3072961-.8348897.51718172-1.2685458l.00078-.00155.00078-.0008v-.0008c.036391-.073956.078442-.1449894.1257798-.2124661.2206349-.4312322.4615106-.8655093.7687414-1.296666 0 0 .00078-.0008.00078-.0008.0003552-.0004985.0004272-.00105.00078-.00155.1157661-.1627831.2363721-.3230643.3632822-.4811406 1.3330783-1.6662776 2.904539-2.6005208 4.0921416-3.1096552.1523598-.0651679.31392-.1062765.4789007-.1218556.1031503-.0428567.2105051-.0747967.3203094-.0952971l.6554612-.1210741-.0726552.0148412c.2761524-.0643688.4806821-.0874531.6031177-.1085761l-.077343.014841c.3608159-.080642.6187261-.080657.760929-.089829.00911-.0006.018225-.00111.027345-.00157.090196-.00427.3358439-.043246.7234299-.010154l-.05859-.0039.07344.00312a7.5999149 7.5987764 0 0 1  .204677-.0101487 7.5999149 7.5987764 0 0 1 7.599915 7.5987764 7.5999149 7.5987764 0 0 1 -7.599915 7.598777z" fill="#e4e4e4"/><path d="m9.981049 10.903358c-.002.04535-.0066.09214-.0094.136492-.02577.332629-.06857.641019-.117002.919432-.0094.04275-.01642.08541-.02426.125941-.0032.01842-.007.03555-.01026.05414-.0047.01689-.0079.03533-.01155.05154-.510581.09612-1.0240508.159051-1.539269.188873-.2857078.0172-.5731796.02271-.8591914.01935-.5858299-.007-1.1729144-.05712-1.7581513-.150792-.060789-.0086-.1229166-.01957-.1839794-.02997-.023155-.0046-.04635-.0075-.068475-.01284-.403648-.0724-.8016215-.16492-1.1932086-.27855-.084752-.02324-.1686454-.04764-.2529567-.07501-.048139-.01399-.096726-.02913-.1433519-.04412-.2755524-.089178-.5431816-.186978-.8102483-.293573-.4784148-.193765-.9454032-.417811-1.3995662-.673133.0618307-.520736.1814554-1.14818.4088144-1.8298095.1160286-.3479526.2595782-.7079711.4386236-1.0779614l.00258-.00365c.2039043-.4226447.4535689-.8523249.7581764-1.2796111.1005501-.141547.2023545-.2765869.3079298-.408109 1.1322256-1.4163861 2.4679697-2.2100231 3.4748839-2.6417599.00754.00726.016035.013473.02328.02073.017135.016425.035905.033423.053134.049466.2783184.2542507.5742516.559275.8715453.9176805.02209.027902.045229.054964.067114.083279.01824.02109.03466.043435.052807.064515.039105.051561.080822.1037718.1215707.1572372.3295668.4381296.6475772.942448.9265876 1.5194405.02045.041525.039834.081666.058539.1230346.1474111.3171825.2821261.6566242.3989001 1.0192426.01292.040055.0263.080734.04014.1233861.0019.00774.0037.01524.0072.022885l-.000228.001c.107651.3534125.188084.7015176.247232 1.0364174.0039.019445.007.039964.01102.057854.0081.046445.0152.091225.02144.136684.05413.341384.08568.66902.100049.984581.0016.04756.0034.09344.0032.140698.0111.296078.0041.577933-.01368.84503" fill="#4282de"/><path d="m5.599991 9.208042a.79999104.79999104 0 0 1 -.799991-.7999909.79999104.79999104 0 0 1  .4054644-.6953047c-.00198-.034289-.00547-.054687-.00547-.1046864v-.799991l-.014845-.00781 1.1187375.0039-.3039016.803906s.013865.06254.03125.1265611c.0000275.0001015.00075-.0001015.0008 0a .79999104.79999104 0 0 1  .3679458.67343.79999104.79999104 0 0 1 -.799991.7999909z" opacity=".2"/><path d="m5.599991 9.608226a.79999104.79999104 0 0 1 -.799991-.7999913.79999104.79999104 0 0 1  .4054642-.6953051c-.00198-.034289-.00547-.054687-.00547-.1046864v-.7999911l-.014844-.00781 1.1187375.00392-.3039026.803883s.013868.062541.031252.126561c.0000276.0001016.00076-.0001012.0008 0a .79999104.79999104 0 0 1  .3679438.6734306.79999104.79999104 0 0 1 -.799991.7999913z" fill="#fff"/><path d="m9.43681 15.182915c-.3577826-.010219-.7195989-.050819-1.0820189-.124217-.3648431-.074235-.7171079-.177999-1.051551-.309372.3177348-.213281.6109868-.475903.8687407-.779679.1262822.03526.2538875.06555.3835893.09062 1.4536119.294735 2.8899639-.03644 4.0343299-.802335l1.001551.482807.02969.01484c-1.156182.941959-2.633937 1.471609-4.184329 1.427328zm4.617136-1.815605-.01406-.007c-.09589-.04688-.188254-.09342-.284371-.139843-.09824-.04323-.195469-.08785-.295309-.133592-.124307-.05653-.250177-.109496-.381246-.160936-.07826-.03138-.159984-.06447-.239842-.09844-.106678-.04323-.21798-.08054-.326558-.121874-.110555-.03632-.220702-.08077-.334372-.116405-.451561-.15166-.923368-.280119-1.406234-.395308-.176222-.03964-.355506-.07353-.534369-.10703.0024-.01311.0056-.03119.0078-.04141l.0016-.0086.0024-.0094c.04824-.277326.09004-.586341.117186-.918739.223803.07265.446865.147276.664837.227341.492667.187448.967001.388434 1.412484.610149.111922.05136.221962.113977.330465.166405.10797.0601.214976.111424.319527.17031.140035.081.277759.158303.411715.236717.06603.03837.128816.07717.192185.115623.09574.0601.190838.119726.284372.176561.09224.05835.181334.121863.270309.179685.03123.02089.0617.04176.0914.0625-.03845.04825-.07953.09305-.121092.137498-.05433.05813-.11047.118033-.168748.175779zm1.940603-3.313244-.107811-.05703c-.09293-.04885-.186238-.101337-.277341-.151561-.09019-.04911-.179836-.09562-.27109-.137499l-.562494-.266403-1.127331-.532025-.280466-.1328113c-.09125-.04331-.191792-.078467-.285934-.1164047-.976024-.4191625-1.996237-.684298-3.05231-.928896-.0028-.0097-.005-.0192-.0078-.028908l.01016-.044531-.04687-.1031237c-.01416-.043675-.02741-.084113-.03984-.122655-.117157-.3638063-.252967-.7046633-.399996-1.0249885.603128-.00405 2.977097.00657 5.107755 1.8374794.066614-.4327169-.675403-1.4772656-.946887-1.8101351-1.145223-1.4090602-3.271396-1.7658346-5.0944742-1.6265446-.0372555-.0516218-.0741487-.1055228-.1117175-.155467v-.0008l-.00156-.0008c-.0444111-.0582378-.085413-.1102332-.1203114-.1562483l-.00781-.010936-.00781-.00859c-.00348-.00407-.022372-.026468-.039843-.047656l-.014064-.017968c-.021904-.02752-.043635-.054376-.056249-.070312l-.00236-.00312-.00312-.00392c-.2703715-.3259929-.5377549-.601917-.7960897-.8460855l.6554615-.1210926c.1690905-.03942.341741-.061295.5117131-.090624.1682241-.037604.340535-.043442.5148378-.054687.1730874-.00819.3436604-.029588.5179634-.014064l.524994.023436.500775.074999.124999.017968c.025.00517.03452.00364.07031.0125l.0625.014844.25156.064062c.08259.021876.167502.03922.250778.066406l.244529.084374.242966.085156.236716.1062488.235935.1054676c.07689.039708.150599.081646.227341.1234362l.227341.1234359c.07401.042087.144166.095899.217185.1414048.143759.093374.288382.1870811.419527.2992154.136312.1062304.273605.2100285.396089.3335899.127954.1171491.256967.2335726.365621.3609335l.171873.1859356.04219.048437.04609.052343c.02614.033572.05347.067621.07969.1007801.101132.1370641.21329.2695538.30234.414839l.142186.2148415c.0449.073878.08651.1507764.128905.2257787.09087.1496767.162895.3023166.235154.4539009.07553.1471852.142436.322838.198435.4765575l.0875.2414033c.02553.08061.04695.1647573.07187.2476536l.06875.2484348.05156.2492156c.03738.1623814.05876.340569.08125.5085883.02416.1718185.02682.3346439.04141.5117139.0061.166985-.0012.342655-.0039.51015l-.0008.120311z" fill="#3f3f3f"/><path d="m14.0375 11.469009c-1.24917-.418055-2.507442-.979817-3.642187-1.310937-.00076-.03303.0012-.06506 0-.09844v-.0078c.000021-.05467-.0016-.104097-.0031-.148437v-.0016-.0016c-.01458-.320186-.04634-.654176-.1-1.0000004 1.124209.2412176 3.01683.9454164 4.164062 1.3734374-.335409.269432-.500499.680711-.445312 1.0875.0048.03627.01836.07172.02656.107813z" fill="#4282de"/><path d="m15.866965 10.757525c-.202516-.302765-.575463-.425012-.905907-.320618-.06993.02099-.139128.05335-.203144.09675-.264805.175596-.390586.479671-.350648.774059.01539.115703.05621.231249.125729.335172.244233.367579.741495.468205 1.109574.223919.367608-.24418.468054-.740813.224396-1.109283" fill="#4282de"/><path d="m5.3790432 14.793076c-.1283933.0011-.2578871-.0084-.3874956-.02969-1.2674226-.206376-2.1546527-1.440665-2.1898194-2.899186.016051.0066.03158.01458.047656.02109h.00078l.00156.0008c.2599273.103745.5215406.19926.7906164.287497.1264426.924626.6922306 1.663866 1.479671 1.792949.1786488.02918.3571344.02368.5289001-.0094.069539-.01299.1366689-.03054.2031229-.05234.283892-.09323.5480683-.261847.7765537-.493744.043424-.04354.084792-.08816.1234362-.136718.1219587-.142945.2234095-.312641.3148401-.491401.1122312.0044.2245383.01506.3367151.01641.1823767.0021.3663398-.0068.5499938-.0125-.1205419.311823-.2724886.603004-.4624948.853897-.044845.05942-.090137.11543-.1359361.169529-.1994222.230682-.4257952.427608-.6703049.581244-.065087.04255-.1335029.08195-.2015601.117967-.3450534.178997-.7210588.280269-1.1062377.283591z" fill="#3f3f3f"/><path d="m10.000085 16.800084a7.5999149 7.5987765 0 0 1 -.540619-.01953c-.0228-.000452-.04514.0022-.06797.0016-.4479047-.01279-.9017092-.06374-1.3546721-.155467h-.0008c-.4531189-.09218-.8945052-.221966-1.317954-.388277-.046779-.01839-.092661-.039-.1374985-.06172-.3785658.123469-.7719874.212821-1.1874867.216404-.2164076.0018-.4371775-.0146-.6585862-.05078-1.9492864-.317389-3.1728436-2.006977-3.431191-3.871869-.1608306-.082279-.32944392-.145532-.48749452-.234372-.5631981-.31669-.88062918-.941217-.80467851-1.582795.00106-.0089.002816-.01914.003908-.02812.0582691.501542.34786381.956251.80077221 1.210924.1580506.08884.32666402.152093.48749462.234373.2583474 1.864891 1.4819045 3.554479 3.4312116 3.871831.2214087.03618.4421786.05263.6585862.05078.4154993-.0036.8089209-.09294 1.1874867-.216404.044837.02271.090719.04332.1374985.06172.4234488.166311.8648351.296095 1.317954.388277h.0008c.4529629.09172.9067674.142677 1.3546727.155467.02282.000652.04517-.002.06797-.0016a7.5999149 7.5987765 0 0 0  .540598.01953 7.5999149 7.5987765 0 0 0 7.591321-7.4358544 7.5999149 7.5987765 0 0 1  .0086.2367164 7.5999149 7.5987765 0 0 1 -7.599915 7.599133z" fill="#fff" opacity=".2"/></g></svg>