<svg height="22" viewBox="0 0 22 22" width="22" xmlns="http://www.w3.org/2000/svg"><circle cx="10.5" cy="11" opacity=".2" r="10.5"/><circle cx="10.5" cy="10.5" fill="#4f4f4f" r="10.5"/><path d="m10.5 2.5a1.5 1.5 0 0 0 -1.5 1.5 1.5 1.5 0 0 0 1.5 1.5 1.5 1.5 0 0 0 1.5-1.5 1.5 1.5 0 0 0 -1.5-1.5zm-3.535156.9384765a1.5 1.5 0 0 0 -.714844.2001955 1.5 1.5 0 0 0 -.548828 2.048828 1.5 1.5 0 0 0 2.048828.5498045 1.5 1.5 0 0 0  .548828-2.0498045 1.5 1.5 0 0 0 -1.333984-.7490235zm6.964844.000975a1.5 1.5 0 0 0 -1.228516.7480485 1.5 1.5 0 0 0  .548828 2.0498045 1.5 1.5 0 0 0 2.048828-.5498045 1.5 1.5 0 0 0 -.548828-2.048828 1.5 1.5 0 0 0 -.820312-.1992189zm2.596679 2.5605485a1.5 1.5 0 0 0 -.713867.201172 1.5 1.5 0 0 0 -.549805 2.048828 1.5 1.5 0 0 0 2.049805.548828 1.5 1.5 0 0 0  .548828-2.048828 1.5 1.5 0 0 0 -1.334961-.75zm-12.1591795.00195a1.5 1.5 0 0 0 -1.2285156.74805 1.5 1.5 0 0 0  .5488281 2.048828 1.5 1.5 0 0 0 2.0498045-.548828 1.5 1.5 0 0 0 -.5498045-2.048828 1.5 1.5 0 0 0 -.8203125-.199219zm-.8671875 3.49805a1.5 1.5 0 0 0 -1.5 1.5 1.5 1.5 0 0 0 1.5 1.5 1.5 1.5 0 0 0 1.5-1.5 1.5 1.5 0 0 0 -1.5-1.5zm14 0a1.5 1.5 0 0 0 -1.5 1.5 1.5 1.5 0 0 0 1.5 1.5 1.5 1.5 0 0 0 1.5-1.5 1.5 1.5 0 0 0 -1.5-1.5zm-13.097656 3.5a1.5 1.5 0 0 0 -.714844.201172 1.5 1.5 0 0 0 -.5488281 2.048828 1.5 1.5 0 0 0 2.0488281.548828 1.5 1.5 0 0 0  .5498045-2.048828 1.5 1.5 0 0 0 -1.3349605-.75zm12.088867.002a1.5 1.5 0 0 0 -1.228516.748 1.5 1.5 0 0 0  .549805 2.048828 1.5 1.5 0 0 0 2.048828-.548828 1.5 1.5 0 0 0 -.548828-2.048828 1.5 1.5 0 0 0 -.821289-.199219zm-2.526367 2.5605a1.5 1.5 0 0 0 -.714844.200195 1.5 1.5 0 0 0 -.548828 2.049805 1.5 1.5 0 0 0 2.048828.548828 1.5 1.5 0 0 0  .548828-2.048828 1.5 1.5 0 0 0 -1.333984-.75zm-7.0351565.001a1.5 1.5 0 0 0 -1.2285155.749 1.5 1.5 0 0 0  .548828 2.048828 1.5 1.5 0 0 0 2.048828-.548828 1.5 1.5 0 0 0 -.548828-2.049805 1.5 1.5 0 0 0 -.8203125-.199219zm3.5703125.9365a1.5 1.5 0 0 0 -1.5 1.5 1.5 1.5 0 0 0 1.5 1.5 1.5 1.5 0 0 0 1.5-1.5 1.5 1.5 0 0 0 -1.5-1.5z" opacity=".2"/><path d="m10.5 2a1.5 1.5 0 0 0 -1.5 1.5 1.5 1.5 0 0 0 1.5 1.5 1.5 1.5 0 0 0 1.5-1.5 1.5 1.5 0 0 0 -1.5-1.5zm-3.535156.9384765a1.5 1.5 0 0 0 -.714844.2001954 1.5 1.5 0 0 0 -.548828 2.0488281 1.5 1.5 0 0 0 2.048828.5498045 1.5 1.5 0 0 0  .548828-2.0498045 1.5 1.5 0 0 0 -1.333984-.7490235zm6.964844.000975a1.5 1.5 0 0 0 -1.228516.7480485 1.5 1.5 0 0 0  .548828 2.0498045 1.5 1.5 0 0 0 2.048828-.5498045 1.5 1.5 0 0 0 -.548828-2.0488281 1.5 1.5 0 0 0 -.820312-.1992188zm2.596679 2.5605485a1.5 1.5 0 0 0 -.713867.201172 1.5 1.5 0 0 0 -.549805 2.048828 1.5 1.5 0 0 0 2.049805.548828 1.5 1.5 0 0 0  .548828-2.048828 1.5 1.5 0 0 0 -1.334961-.75zm-12.1591795.00195a1.5 1.5 0 0 0 -1.2285156.74805 1.5 1.5 0 0 0  .5488281 2.048828 1.5 1.5 0 0 0 2.0498045-.548828 1.5 1.5 0 0 0 -.5498045-2.048828 1.5 1.5 0 0 0 -.8203125-.199219zm-.8671875 3.49805a1.5 1.5 0 0 0 -1.5 1.5 1.5 1.5 0 0 0 1.5 1.5 1.5 1.5 0 0 0 1.5-1.5 1.5 1.5 0 0 0 -1.5-1.5zm14 0a1.5 1.5 0 0 0 -1.5 1.5 1.5 1.5 0 0 0 1.5 1.5 1.5 1.5 0 0 0 1.5-1.5 1.5 1.5 0 0 0 -1.5-1.5zm-13.097656 3.5a1.5 1.5 0 0 0 -.714844.201172 1.5 1.5 0 0 0 -.5488281 2.048828 1.5 1.5 0 0 0 2.0488281.548828 1.5 1.5 0 0 0  .5498045-2.048828 1.5 1.5 0 0 0 -1.3349605-.75zm12.088867.002a1.5 1.5 0 0 0 -1.228516.748 1.5 1.5 0 0 0  .549805 2.048828 1.5 1.5 0 0 0 2.048828-.548828 1.5 1.5 0 0 0 -.548828-2.048828 1.5 1.5 0 0 0 -.821289-.199219zm-2.526367 2.5605a1.5 1.5 0 0 0 -.714844.200195 1.5 1.5 0 0 0 -.548828 2.049805 1.5 1.5 0 0 0 2.048828.548828 1.5 1.5 0 0 0  .548828-2.048828 1.5 1.5 0 0 0 -1.333984-.75zm-7.0351565.001a1.5 1.5 0 0 0 -1.2285155.749 1.5 1.5 0 0 0  .548828 2.048828 1.5 1.5 0 0 0 2.048828-.548828 1.5 1.5 0 0 0 -.548828-2.049805 1.5 1.5 0 0 0 -.8203125-.199219zm3.5703125.9365a1.5 1.5 0 0 0 -1.5 1.5 1.5 1.5 0 0 0 1.5 1.5 1.5 1.5 0 0 0 1.5-1.5 1.5 1.5 0 0 0 -1.5-1.5z" fill="#fff"/><circle cx="10.5" cy="10.5" opacity=".3" r="3.5"/><path d="m15.368191 12.500341c-.230947-.008-.261653.122719-.329822.468812-.343058 2.278561 1.657172 3.54278 4.285281 4.527741.768105.07089.926989-1.088717 1.173748-1.718409.319747-.815946.83203-1.547788.207678-1.884044l-5.030964-1.342284c-.130623-.03053-.228938-.04917-.30592-.05182z" opacity=".2"/><path d="m15.368193 12.000433c-.230947-.008-.261653.122719-.329822.468812-.343058 2.278561 1.657172 3.54278 4.285281 4.527741.768105.07089.926989-1.088717 1.173748-1.718409.319747-.815945.83203-1.547788.207678-1.884044l-5.030964-1.342284c-.130623-.03053-.228938-.04917-.30592-.05182z" fill="#8e8e8e"/><path d="m15.368164 12c-.230948-.008-.261909.122657-.330078.46875-.04032.267815-.04508.520737-.02343.761719.0063-.0865.0099-.172125.02343-.261719.06817-.346093.09913-.476705.330078-.46875.07698.0026.175041.02122.305664.05176l5.03125 1.342773c.132115.07115.205126.162975.248047.266602.0915-.329055.06557-.597696-.248047-.766602l-5.03125-1.342773c-.130623-.030537-.228681-.049113-.305664-.05176z" fill="#fff" opacity=".2"/><path d="m10.5 0a10.5 10.5 0 0 0 -10.5 10.5 10.5 10.5 0 0 0  .0097656.296875 10.5 10.5 0 0 1 10.4902344-10.296875 10.5 10.5 0 0 1 10.490234 10.203125 10.5 10.5 0 0 0  .009766-.203125 10.5 10.5 0 0 0 -10.5-10.5z" fill="#fff" opacity=".1"/><path d="m8 4.5a4 4 0 0 1 -4 4 4 4 0 0 1 -3.9999996-4 4 4 0 0 1 3.9999996-3.9999998 4 4 0 0 1 4 3.9999998z" opacity=".2"/><path d="m8 4a4 4 0 0 1 -4 4 4 4 0 0 1 -3.9999996-4 4 4 0 0 1 3.9999996-3.9999998 4 4 0 0 1 4 3.9999998z" fill="#ffae4a"/><path d="m4 0a4 4 0 0 0 -4 4 4 4 0 0 0  .0107422.288086 4 4 0 0 1 3.9892578-3.788086 4 4 0 0 1 3.989258 3.711914 4 4 0 0 0  .010742-.211914 4 4 0 0 0 -4-4z" fill="#fff" opacity=".2"/></svg>