<svg height="22" width="22" xmlns="http://www.w3.org/2000/svg"><path d="m11 1c-5.5400001 0-10 4.4599999-10 10 0 5.54 4.4599999 10 10 10 5.54 0 10-4.46 10-10 0-5.5400001-4.46-10-10-10z" fill="#4f4f4f"/><path d="m11 1c-5.5395076 0-9.9991111 4.4599999-9.9991111 10 0 .084-.002.1665 0 .25.1321882-5.4230001 4.543596-9.75 9.9991111-9.75 5.455515 0 9.867123 4.3269999 9.999111 9.75.002-.0835 0-.166 0-.25 0-5.5400001-4.459604-10-9.999111-10z" fill="#fff" opacity=".1"/><path d="m1.00585 11.25c-.00205.0835-.00585.166-.00585.25 0 5.54 4.4599999 10 10 10 5.54 0 10-4.46 10-10 0-.084-.004-.1665-.006-.25-.132 5.423-4.538 9.75-9.994 9.75-5.4560001 0-9.862-4.327-9.994-9.75z" opacity=".2"/><path d="m8.281745 16.750066c-.338153-.723404-.3376055-.708219-.04149-1.14994.410666-.612633 1.30209-1.702309 1.30209-1.999681 0-.187454-.184304-.335215-.640865-.513796-.983689-.384766-2.2469785-1.035252-2.9342804-1.546648-.84181-.626358-1.628031-1.130357-1.8729375-1.948431-.172178-.575135-.1149105-.6993609.2249955-.488057 1.7835149 1.032441 2.3408669 1.235279 4.1083754 1.396907 1.098155-.0482 1.67555-.914478 1.632553-1.6938884-.03516-.587931-.235938-1.5880738-.469743-2.3406662-.131854-.4244155-.05853-.573122-.03447-.736106.01657-.112335.05906-.2155125.09438-.2292845.473692.399601 1.03247.4305165 1.395375.564576 1.071401.408884 1.446391.643554 1.60023 1.2818799.07681.318683.496835.533891.713834.7472215.102841.1011005.186986.210226.186986.242499 0 .164097-.741013.2040225-1.177658.079562-.383906-.1094265-.42412.6690457-.384669 1.0232687.05904.941788.995518.979022 2.036883 1.060938.868471.06832 2.349679-.329248 3.475128-.816685.235704-.102086.462292-.178475.503536-.169755-.383876 1.658326-2.034876 2.640977-3.461677 3.245878-.703803.286845-1.719931.614067-2.025139.652149-.75882.09469-1.018956.194843-1.141623.439549-.13983.278932-.345355 1.563044-.421559 2.539589-.117641.527402-.504097.833579-.904416.98604-.830241.2987-1.2911231.05606-1.763839-.627119z" opacity=".2"/><path d="m8.281745 16.24959c-.338153-.723404-.3376055-.708219-.04149-1.14994.410666-.612633 1.30209-1.702309 1.30209-1.999681 0-.187454-.184304-.335215-.640865-.513796-.983689-.384766-2.2469785-1.035252-2.9342804-1.546648-.84181-.626358-1.628031-1.130357-1.8729375-1.948431-.172178-.5751354-.1149105-.6993609.2249955-.4880569 1.7835149 1.0324409 2.3408669 1.2352789 4.1083754 1.3969069 1.098155-.0482 1.67555-.914478 1.632553-1.6938884-.03516-.587931-.235938-1.5880738-.469743-2.3406662-.131854-.4244155-.05853-.573122-.03447-.736106.01657-.112335.05906-.2155125.09438-.2292845.473692.399601 1.03247.4305165 1.395375.564576 1.071401.408884 1.446391.643554 1.60023 1.2818799.07681.318683.496835.533891.713834.7472215.102841.1011005.186986.210226.186986.242499 0 .164097-.741013.2040225-1.177658.079562-.383906-.1094265-.42412.6690453-.384669 1.0232688.05904.9417879.995518.9790219 2.036883 1.0609379.868471.06832 2.349679-.329248 3.475128-.816685.235704-.102086.462292-.178475.503536-.169755-.383876 1.658326-2.034876 2.640977-3.461677 3.245878-.703803.286845-1.719931.614067-2.025139.652149-.75882.09469-1.018956.194843-1.141623.439549-.13983.278932-.345355 1.563044-.421559 2.539589-.117641.527402-.504097.833579-.904416.98604-.830241.2987-1.2911231.05606-1.763839-.627119z" fill="#4895fb"/><path d="m9.650391 5c-.03532.013772-.07718.1161806-.09375.2285156-.01835.1242947-.03916.27932-.002.515625.000668-.00411.0013-.00954.002-.013672.01657-.112335.05843-.2166968.09375-.2304688.473692.399601 1.031626.4303936 1.394531.5644531 1.071401.408884 1.447723.6448772 1.601562 1.2832031.06266.2599783.339576.4456374.5625.6230469.189165-.021624.337891-.064617.337891-.1347656 0-.032273-.08466-.141087-.1875-.2421875-.216999-.2133303-.636081-.4293637-.712891-.7480467-.153839-.6383259-.530161-.872366-1.601562-1.28125-.362905-.1340595-.920839-.1648521-1.394531-.5644531zm-5.5332035 3.5097656c-.1418563-.0255228-.1446526.1414244-.0390625.5156254.052159-.01182.1228453.0051.2402344.07813 1.7835149 1.032436 2.3418665 1.234851 4.109375 1.396479 1.0981546-.0482 1.6758096-.913949 1.6328126-1.6933594-.002569-.0429575-.019152-.1150079-.023438-.1621094-.11385.6730218-.668723 1.3141818-1.6093746 1.3554688-1.7675085-.161628-2.3258601-.364043-4.109375-1.3964844-.0849765-.052826-.1506941-.084668-.2011719-.09375zm7.8750005.4648438c-.01659.1704296-.02152.3417986-.0078.4648436.05904.941788.995744.978631 2.037109 1.060547.868471.06832 2.349161-.328969 3.47461-.816406.145365-.06296.213455-.07599.310547-.105469.079666-.179615.147406-.365995.193346-.564453-.04124-.0087-.268202.06784-.503906.169922-1.125449.487437-2.606139.884726-3.47461.816406-1.026658-.080759-1.946809-.121905-2.029296-1.0253906zm-2.564454 4.4042966c-.24019.450311-.8582783 1.22957-1.1874996 1.720703-.2230667.332753-.2773115.407179-.1464844.732422.036053-.06552.081556-.135567.1464844-.232422.410666-.612633 1.3027346-1.702628 1.3027346-2 0-.07925-.0427-.150312-.115235-.220703z" fill="#fff" opacity=".1"/></svg>