<svg height="22" viewBox="0 0 22 22" width="22" xmlns="http://www.w3.org/2000/svg"><rect fill="#e4e4e4" height="20" rx="1" transform="matrix(0 -1 -1 0 0 0)" width="20" x="-21" y="-21"/><path d="m2 .9999998c-.554 0-1 .446-1 1v .5c0-.554.446-1 1-1h18c .554 0 1 .446 1 1v-.5c0-.554-.446-1-1-1z" fill="#fff" opacity=".2"/><path d="m2 21.5c-.554 0-1-.446-1-1v-.5c0 .554.446 1 1 1h18c .554 0 1-.446 1-1v .5c0 .554-.446 1-1 1z" opacity=".2"/><rect fill="#182d33" height="16" rx=".8" transform="matrix(0 -1 -1 0 0 0)" width="16" x="-19" y="-19"/><g fill-rule="evenodd"><circle cx="11" cy="11.5" opacity=".2" r="6"/><circle cx="11" cy="11" fill="#223f48" r="6"/><circle cx="11" cy="11.5" opacity=".2" r="4"/><circle cx="11" cy="11" fill="#325e6a" r="4"/><circle cx="11" cy="11.5" opacity=".2" r="2"/><circle cx="11" cy="11" fill="#1996b4" r="2"/><g fill="#fff"><path d="m11 5a6 6 0 0 0 -6 6 6 6 0 0 0  .00977.285156 6 6 0 0 1 5.99023-5.785156 6 6 0 0 1 5.990234 5.714844 6 6 0 0 0  .009766-.214844 6 6 0 0 0 -6-6z" opacity=".1"/><path d="m11 7a4 4 0 0 0 -4 4 4 4 0 0 0  .00977.283203 4 4 0 0 1 3.99023-3.783203 4 4 0 0 1 3.990234 3.710938 4 4 0 0 0  .009766-.210938 4 4 0 0 0 -4-4z" opacity=".1"/><path d="m11 9a2 2 0 0 0 -2 2 2 2 0 0 0  .01758.244141 2 2 0 0 1 1.98242-1.744141 2 2 0 0 1 1.982422 1.755859 2 2 0 0 0  .017578-.255859 2 2 0 0 0 -2-2z" opacity=".2"/></g></g></svg>