<svg height="32" width="32" xmlns="http://www.w3.org/2000/svg"><g transform="translate(44.298508 1.074627)"><path d="m-23.111527.92537318h-13.65097c-3.066406 0-5.536011 2.46766602-5.536011 5.53407202v16.9299168c0 3.066406 2.469605 5.536011 5.536011 5.536011h16.929917c3.066406 0 5.534072-2.469605 5.534072-5.536011v-13.6509698z" fill="#fa752a" fill-rule="evenodd"/><path d="m-14.298508 9.7383922-8.813019-8.81301902v3.27894702c0 3.066406 2.467666 5.534072 5.534072 5.534072z" fill="#fdba95" fill-rule="evenodd"/></g><path d="m11 11.074627c-.554 0-1 .446-1 1v10c0 .554.446 1 1 1h10c .554 0 1-.446 1-1v-10c0-.554-.446-1-1-1zm0 1h10v10h-10zm6 1v3h3a3 3 0 0 0 -3-3m-1 1a3 3 0 0 0 -3 3 3 3 0 0 0 3 3 3 3 0 0 0 3-3h-3z" fill="#fdba95"/></svg>