<svg height="32" width="32" xmlns="http://www.w3.org/2000/svg"><g transform="translate(33.791045 -.358209)"><path d="m21.186981 1.9999999h-13.65097c-3.066406 0-5.536011 2.4676663-5.536011 5.5340721v16.929917c0 3.066406 2.469605 5.536011 5.536011 5.536011h16.929917c3.066406 0 5.534072-2.469605 5.534072-5.536011v-13.65097z" fill="#61b7ee" fill-rule="evenodd" transform="translate(-33.791045 .358209)"/><path d="m-3.7910448 11.171228-8.8130192-8.8130189v3.2789473c0 3.0664059 2.467666 5.5340716 5.5340722 5.5340716z" fill="#d3ebfa" fill-rule="evenodd"/><path d="m-21.469032 11.171787-.000044.5v6.5s-.15572.000385-.49996-.000009c-1.3807 0-2.5 1.1193-2.5 2.5s1.1193 2.5 2.5 2.5c1.3622-.000835 2.473-1.0921 2.498-2.4541l.002-.0039v-6.542h5v4s-.15572.000394-.49995 0c-1.3807 0-2.5 1.1193-2.5 2.5s1.1193 2.5 2.5 2.5c1.3311-.0015 2.4276-1.0456 2.4941-2.375l.0059-.01172v-9.6133h-9z" fill="#d3ebfa" stroke-width="3"/></g></svg>