<svg height="32" width="32" xmlns="http://www.w3.org/2000/svg"><g transform="translate(46.777122 2.696383)"><path d="m-25.590141-.69638273h-13.65097c-3.066406 0-5.536011 2.46766623-5.536011 5.53407203v16.9299167c0 3.066406 2.469605 5.536011 5.536011 5.536011h16.929917c3.066406 0 5.534072-2.469605 5.534072-5.536011v-13.6509698z" fill="#bf9a66" fill-rule="evenodd"/><g fill="#faeda7"><path d="m-16.777122 8.1166362-8.813019-8.81301893v3.27894733c0 3.0664056 2.467666 5.5340716 5.534072 5.5340716z" fill-rule="evenodd"/><g transform="translate(-45.777122 -4.682085)"><path d="m15 14c-1.105333 0-2 .9-2 2v4c0 1.1.895 2 2 2s2-.9 2-2v-4c0-1.1-.894667-2-2-2zm0 1c .552 0 1 .4 1 1 0 .499999-.448 1-1 1s-1-.500001-1-1c0-.6.448-1 1-1zm0 3c .552285 0 1 .447715 1 1v1c0 .552285-.447715 1-1 1s-1-.447715-1-1v-1c0-.552285.447715-1 1-1z"/><path d="m14 4v1h1v-1zm0 2v1h1v-1zm0 2v1h1v-1zm0 2v1h1v-1zm0 2v1h1v-1z"/><path d="m15 5v1h1v-1zm0 2v1h1v-1zm0 2v1h1v-1zm0 2v1h1v-1zm0 2v1h1v-1z"/></g><path d="m-40.560894 16.686771a1.802699 1.802699 0 0 0 -1.802699 1.802699 1.802699 1.802699 0 0 0 1.802699 1.802699 1.802699 1.802699 0 0 0  .84079-.208437l1.799882 2.099863a1.802699 1.802699 0 0 0 -.116893.632353 1.802699 1.802699 0 0 0 1.802699 1.802699 1.802699 1.802699 0 0 0 1.774532-1.502719l2.967411-.592919a1.802699 1.802699 0 0 0 1.747773 1.374558 1.802699 1.802699 0 0 0 1.802699-1.802699 1.802699 1.802699 0 0 0 -1.802699-1.802699 1.802699 1.802699 0 0 0 -1.774532 1.50131l-2.966003.594328a1.802699 1.802699 0 0 0 -1.749181-1.374558 1.802699 1.802699 0 0 0 -1.280199.536585l-1.649187-1.923818a1.802699 1.802699 0 0 0  .405607-1.136546 1.802699 1.802699 0 0 0 -1.802699-1.802699z"/></g></g></svg>