<svg height="24" viewBox="0 0 24 24" width="24" xmlns="http://www.w3.org/2000/svg"><path d="m6 5c-1.1046 0-2 .89543-2 2v2.53125h.0019531a1.5 1.5 0 0 0 1.4980469 1.46875 1.5 1.5 0 0 0 1.5-1.5 1.5 1.5 0 0 0 -1.5-1.5 1.5 1.5 0 0 0 -.03125.0019531v-.0019531h-.46875v-1c0-.55228.44772-1 1-1zm4 0c-1.1046 0-2 .89543-2 2v2.53125h.0019531a1.5 1.5 0 0 0 1.4980469 1.46875 1.5 1.5 0 0 0 1.5-1.5 1.5 1.5 0 0 0 -1.5-1.5 1.5 1.5 0 0 0 -.03125.0019531v-.0019531h-.46875v-1c0-.55228.44772-1 1-1z" fill="#d3dae3" transform="translate(4 4)"/></svg>