<svg height="24" viewBox="0 0 24 24" width="24" xmlns="http://www.w3.org/2000/svg"><path d="m5.9902344 1.0195312.0097656 6h-2.3417969l3.3398438 4.8613278v-1.9863278c0-1.0105999.90116-1.84375 1.875-1.84375h2.7832031l.716797-1.03125h-2.3750001l-.0097657-6zm2.890625 8.03125c-.49245 0-.875.3555901-.875.84375v5.2187498c0 .48816.38255.84375.875.84375h6.2499996c.49245 0 .875-.35559.875-.84375v-5.2187498c0-.4881599-.38255-.84375-.875-.84375zm1.1249996.9687498h3v1h-1v3h1v1h-3v-1h1v-3h-1zm-9.005859 4.011719v1.96875h6.2578125c-.15641-.26492-.2558594-.564459-.2558594-.886719v-1.082031z" fill="#d3dae3" transform="translate(4 4)"/></svg>