<svg height="12pt" viewBox="0 0 12 12" width="12pt" xmlns="http://www.w3.org/2000/svg"><path d="m9.816406 6c0 .300781-.246094.546875-.546875.546875h-.871093l-3.375-3.378906-.132813-.40625c-.144531-.574219-.144531-.578125.289063-.578125.234374 0 .234374.003906.394531.269531l2.007812 3h1.6875c.300781 0 .546875.242187.546875.546875zm-2.519531.972656-1.722656 2.574219c-.148438.242187-.160157.269531-.359375.269531h-.035156c-.433594 0-.425782-.019531-.289063-.558594l.882813-2.710937h-2.453126l-.664062.96875c-.078125.117187-.066406.121094-.1875.121094h-.117188c-.238281 0-.15625-.242188-.15625-.242188l.15625-1.394531-.15625-1.402344s-.074218-.234375.136719-.234375h.136719c.117188 0 .109375.003907.1875.121094l.664062.96875h2.453126zm0 0" fill="#d1d9e3"/><path d="m9.816406 9.054688-6.871094-6.871094-.761718.761718 6.871094 6.871094zm0 0" fill="#d1d9e3"/></svg>