<svg height="12pt" viewBox="0 0 12 12" width="12pt" xmlns="http://www.w3.org/2000/svg" xmlns:xlink="http://www.w3.org/1999/xlink"><filter id="a" height="100%" width="100%" x="0%" y="0%"><feColorMatrix in="SourceGraphic" type="matrix" values="0 0 0 0 1 0 0 0 0 1 0 0 0 0 1 0 0 0 1 0"/></filter><mask id="b"><g filter="url(#a)"><path d="m0 0h12v12h-12z" fill-opacity=".301961"/></g></mask><clipPath id="c"><path d="m0 0h12v12h-12z"/></clipPath><g fill="#d1d9e3"><path d="m4.363281 6c0 .601562-.488281 1.089844-1.089843 1.089844-.601563 0-1.089844-.488282-1.089844-1.089844s.488281-1.089844 1.089844-1.089844c.601562 0 1.089843.488282 1.089843 1.089844zm0 0"/><path d="m7.089844 6c0 .601562-.488282 1.089844-1.089844 1.089844s-1.089844-.488282-1.089844-1.089844.488282-1.089844 1.089844-1.089844 1.089844.488282 1.089844 1.089844zm0 0"/><path d="m9.816406 6c0 .601562-.488281 1.089844-1.089844 1.089844-.601562 0-1.089843-.488282-1.089843-1.089844s.488281-1.089844 1.089843-1.089844c.601563 0 1.089844.488282 1.089844 1.089844zm0 0"/></g><g clip-path="url(#c)" mask="url(#b)"><path d="m6 2.726562c-1.664062 0-3.230469.585938-4.363281 1.636719h8.726562c-1.132812-1.050781-2.699219-1.636719-4.363281-1.636719zm-1.453125 4.910157 1.453125 1.636719 1.453125-1.636719zm0 0" fill="#d1d9e3"/></g></svg>