<svg height="12pt" viewBox="0 0 12 12" width="12pt" xmlns="http://www.w3.org/2000/svg"><path d="m4.910156 5.453125v2.730469h.542969v2.179687l1.636719-2.726562h-.542969l.816406-2.183594zm0 0" fill="#d1d9e3"/><path d="m6 1.636719c-1.128906 0-2.089844.691406-2.503906 1.667969-1.050782.160156-1.859375 1.054687-1.859375 2.148437 0 1.207031.976562 2.183594 2.179687 2.183594h.546875v-2.726563h3.785157l-.816407 2.179688h.722657l-.324219.546875h.722656c1.054687 0 1.910156-.855469 1.910156-1.910157 0-.980468-.734375-1.78125-1.683593-1.890624-.253907-1.25-1.355469-2.199219-2.679688-2.199219zm0 0" fill="#d1d9e3"/></svg>