<svg height="12pt" viewBox="0 0 12 12" width="12pt" xmlns="http://www.w3.org/2000/svg"><path d="m7.636719 6.546875c-.714844 0-1.308594.46875-1.53125 1.105469-.671875.085937-1.195313.65625-1.195313 1.347656 0 .753906.609375 1.363281 1.363282 1.363281h2.726562c.753906 0 1.363281-.609375 1.363281-1.363281 0-.691406-.523437-1.261719-1.195312-1.347656-.21875-.636719-.816407-1.105469-1.53125-1.105469zm0 0" fill="#d1d9e3"/><path d="m5.453125 1.636719-.269531.5625c.085937-.007813.179687-.015625.269531-.015625h.273437zm0 1.089843c-1.503906 0-2.726563 1.222657-2.726563 2.726563 0 1.230469.824219 2.25 1.941407 2.59375.121093-.175781.269531-.328125.441406-.460937.019531-.007813.039063-.027344.054687-.035157.039063-.027343.082032-.054687.125-.078125.144532-.085937.296876-.164062.453126-.210937.039062-.078125.082031-.15625.125-.226563.257812-.40625.628906-.730468 1.078124-.902344h.003907c.085937-.039062.183593-.066406.277343-.082031.023438-.007812.050782-.019531.070313-.019531.109375-.019531.226563-.03125.339844-.03125.082031 0 .164062.003906.238281.023438.082031.003906.164062.019531.242188.042968.042968-.199218.066406-.398437.066406-.613281 0-1.503906-1.222656-2.726563-2.730469-2.726563zm-2.691406.035157.1875.582031c.121093-.140625.253906-.273438.394531-.394531zm5.386719 0-.597657.207031h-.035156c.078125.058594.152344.117188.222656.183594.074219.066406.144531.132812.203125.207031zm-5.964844 2.421875-.546875.269531.5625.273437c-.007813-.09375-.015625-.179687-.015625-.273437 0-.015625 0-.042969 0-.085937.003906-.058594.007812-.125.015625-.183594zm6.527344 0c .003906.089844.015624.179687.015624.269531v.089844c-.003906.058593-.011718.125-.015624.183593h.015624l.546876-.273437zm-5.742188 2.367187-.207031.597657.597656-.207032h.035156c-.078125-.058594-.15625-.121094-.226562-.183594-.070313-.066406-.140625-.132812-.199219-.207031zm0 0" fill="#d1d9e3"/></svg>