<svg height="24pt" viewBox="0 0 24 24" width="24pt" xmlns="http://www.w3.org/2000/svg"><path d="m5.605469 1.421875h12.789062c2.308594 0 4.183594 1.875 4.183594 4.183594v12.789062c0 2.308594-1.875 4.183594-4.183594 4.183594h-12.789062c-2.308594 0-4.183594-1.875-4.183594-4.183594v-12.789062c0-2.308594 1.875-4.183594 4.183594-4.183594zm0 0" fill="#93b133" fill-rule="evenodd"/><g fill="#fff"><path d="m6.933594 11.074219c-.441406 0-.796875.304687-.796875.6875v3.425781c0 .378906.355469.6875.796875.6875.445312 0 .800781-.308594.800781-.6875v-3.425781c0-.382813-.355469-.6875-.800781-.6875zm0 0"/><path d="m9.917969 4.929688c-.046875-.003907-.09375-.003907-.140625.011718-.191406.050782-.304688.242188-.253906.433594l.449218 1.675781c-2.234375 1.074219-2.238281 3.847657-2.238281 3.847657v4.523437c0 .839844.636719 1.519531 1.421875 1.519531h.710938v1.421875c0 .390625.316406.710938.710937.710938s.710937-.320313.710937-.710938v-1.421875h1.421876v1.421875c0 .390625.316406.710938.710937.710938s.710937-.320313.710937-.710938v-1.421875h.710938c.789062 0 1.421875-.679687 1.421875-1.519531v-4.523437s0-2.773438-2.238281-3.847657l.449218-1.675781c.050782-.191406-.0625-.382812-.253906-.433594-.1875-.054687-.382812.058594-.433594.25l-.429687 1.613282c-.398437-.109376-.847656-.171876-1.359375-.171876s-.960938.0625-1.355469.171876l-.433593-1.613282c-.039063-.144531-.15625-.242187-.292969-.261718zm0 0"/><path d="m17.066406 11.074219c-.445312 0-.800781.304687-.800781.6875v3.425781c0 .378906.355469.6875.800781.6875.441406 0 .796875-.308594.796875-.6875v-3.425781c0-.382813-.355469-.6875-.796875-.6875zm0 0"/></g><g fill="#93b133"><path d="m8.960938 10.542969h6.078124c.089844 0 .160157.117187.160157.265625 0 .148437-.070313.265625-.160157.265625h-6.078124c-.089844 0-.160157-.117188-.160157-.265625 0-.148438.070313-.265625.160157-.265625zm0 0"/><path d="m10.402344 8.941406c0 .296875-.242188.535156-.535156.535156-.292969 0-.53125-.238281-.53125-.535156 0-.292968.238281-.53125.53125-.53125.292968 0 .535156.238282.535156.53125zm0 0"/><path d="m14.664062 8.941406c0 .296875-.238281.535156-.53125.535156-.292968 0-.535156-.238281-.535156-.535156 0-.292968.242188-.53125.535156-.53125.292969 0 .53125.238282.53125.53125zm0 0"/></g></svg>