<svg height="24pt" viewBox="0 0 24 24" width="24pt" xmlns="http://www.w3.org/2000/svg"><path d="m5.605469 1.421875h12.789062c2.308594 0 4.183594 1.875 4.183594 4.183594v12.789062c0 2.308594-1.875 4.183594-4.183594 4.183594h-12.789062c-2.308594 0-4.183594-1.875-4.183594-4.183594v-12.789062c0-2.308594 1.875-4.183594 4.183594-4.183594zm0 0" fill="#e3ac33" fill-rule="evenodd"/><path d="m12.191406 4.507812c-.070312.214844-.136718.40625-.21875.667969-.261718.867188-.511718 1.933594-.507812 2.535157.003906.578124.253906 1.601562.511718 2.433593.066407.214844.101563.296875.160157.460938.078125-.152344.109375-.238281.210937-.429688.421875-.808593.953125-1.742187 1.546875-2.339843.609375-.617188 1.570313-1.179688 2.40625-1.625.109375-.058594.175781-.085938.277344-.140626-1.257813-.972656-2.792969-1.519531-4.386719-1.5625zm-1.148437.0625c-1.578125.203126-3.050781.898438-4.203125 1.992188.097656.203125.183594.378906.3125.617188.425781.796874 1 1.726562 1.441406 2.171874.433594.4375 1.398438 1.046876 2.226562 1.5.125.070313.210938.113282.328126.171876-.066407-.191407-.113282-.304688-.191407-.558594-.273437-.871094-.558593-1.90625-.5625-2.75-.003906-.867188.277344-1.945313.554688-2.851563.035156-.113281.0625-.183593.09375-.292969zm6.394531 2.265626c-.207031.101562-.386719.191406-.628906.320312-.800782.425781-1.730469 1.003906-2.15625 1.433594-.40625.410156-.953125 1.308594-1.355469 2.082031-.105469.199219-.136719.28125-.214844.4375.160157-.054687.265625-.09375.453125-.152344.871094-.273437 1.90625-.558593 2.75-.5625.867188-.003906 1.945313.277344 2.851563.554688.113281.035156.183593.0625.292969.09375-.203126-1.578125-.898438-3.050781-1.992188-4.207031zm-11.367188.585937c-.972656 1.257813-1.519531 2.792969-1.5625 4.382813.214844.074218.398438.136718.65625.214843.863282.261719 1.925782.511719 2.550782.515625.621094.003906 1.730468-.246094 2.640625-.511718.09375-.027344.15625-.050782.246093-.078126-.105468-.054687-.183593-.089843-.296874-.152343-.863282-.476563-1.855469-1.0625-2.472657-1.6875-.617187-.621094-1.179687-1.585938-1.625-2.417969-.054687-.101562-.085937-.167969-.136719-.265625zm10.21875 4.042969c-.578124.003906-1.601562.253906-2.433593.511718-.195313.0625-.300781.105469-.460938.160157.148438.074219.253907.121093.429688.210937.808593.421875 1.742187.953125 2.339843 1.546875.617188.609375 1.179688 1.570313 1.625 2.40625.058594.109375.085938.175781.140626.277344.972656-1.257813 1.519531-2.792969 1.5625-4.386719-.214844-.070312-.40625-.136718-.667969-.21875-.867188-.261718-1.933594-.511718-2.535157-.507812zm-5.316406 1.488281c-.113281.035156-.195312.0625-.320312.097656-.945313.277344-2.058594.558594-2.941406.554688-.875-.003907-1.953126-.285157-2.855469-.558594-.113281-.035156-.179688-.058594-.285157-.09375.199219 1.578125.898438 3.050781 1.992188 4.207031.203125-.097656.378906-.183594.617188-.3125.796874-.425781 1.726562-1 2.171874-1.441406.4375-.433594 1.046876-1.398438 1.5-2.226562.050782-.085938.078126-.144532.121094-.226563zm2.011719.171875c.023437.082031.042969.136719.066406.222656.277344.945313.558594 2.058594.554688 2.941406-.003907.875-.285157 1.953126-.558594 2.855469-.035156.113281-.058594.179688-.09375.285157 1.578125-.199219 3.054687-.898438 4.210937-1.992188-.101562-.207031-.191406-.386719-.320312-.628906-.425781-.800782-1.003906-1.730469-1.433594-2.15625-.410156-.40625-1.308594-.953125-2.082031-1.355469-.144531-.074219-.21875-.109375-.34375-.171875zm-1.039063.273438c-.054687.105468-.089843.183593-.152343.296874-.476563.863282-1.0625 1.855469-1.6875 2.472657-.621094.617187-1.585938 1.179687-2.417969 1.625-.101562.054687-.167969.085937-.265625.136719 1.257813.972656 2.792969 1.519531 4.382813 1.5625.074218-.214844.136718-.398438.214843-.65625.261719-.863282.511719-1.925782.515625-2.550782.003906-.621094-.246094-1.730468-.511718-2.640625-.027344-.09375-.050782-.15625-.078126-.246093zm0 0" fill="#383838"/><path d="m15 12c0 1.65625-1.34375 3-3 3s-3-1.34375-3-3 1.34375-3 3-3 3 1.34375 3 3zm0 0" fill="#ccc"/></svg>