<svg height="24pt" viewBox="0 0 24 24" width="24pt" xmlns="http://www.w3.org/2000/svg"><path d="m5.605469 1.421875h12.789062c2.308594 0 4.183594 1.875 4.183594 4.183594v12.789062c0 2.308594-1.875 4.183594-4.183594 4.183594h-12.789062c-2.308594 0-4.183594-1.875-4.183594-4.183594v-12.789062c0-2.308594 1.875-4.183594 4.183594-4.183594zm0 0" fill="#35b9f5" fill-rule="evenodd"/><g fill="#fff"><path d="m10.285156 10.8125h1.917969c.445313 0 .808594-.324219.816406-.769531.007813-.449219-.351562-.855469-.800781-.859375h-1.910156c-.449219-.003906-.820313.351562-.828125.800781-.003907.449219.351562.820313.804687.828125zm0 0"/><path d="m13.894531 12.914062h-3.816406c-.449219 0-.8125.367188-.8125.816407s.363281.8125.8125.8125h3.816406c.449219 0 .816407-.363281.816407-.8125s-.367188-.816407-.816407-.816407zm0 0"/><path d="m12 5.226562c-3.742188 0-6.773438 3.03125-6.773438 6.773438s3.03125 6.773438 6.773438 6.773438 6.773438-3.03125 6.773438-6.773438-3.03125-6.773438-6.773438-6.773438zm3.867188 10.675782c-.523438.539062-1.261719.828125-2.136719.835937h-3.417969c-.023438 0-.042969 0-.066406 0-.980469 0-1.738282-.277343-2.25-.824219-.511719-.542968-.675782-1.28125-.675782-2.304687 0-.074219-.003906-.140625 0-.210937v-3.601563c.042969-.894531.441407-1.445313.742188-1.761719.484375-.511718 1.171875-.769531 2.042969-.769531h.023437l2.230469-.003906h.023437c1.460938.042969 2.511719 1.058593 2.523438 2.472656.035156.425781.011719.816406-.070312 1.171875.492187.011719 1.097656.097656 1.488281.605469.347656.449219.351562.957031.351562 1.664062 0 .144531.007813.511719.007813.511719-.011719.910156-.292969 1.675781-.816406 2.214844zm0 0"/></g></svg>