<svg height="24pt" viewBox="0 0 24 24" width="24pt" xmlns="http://www.w3.org/2000/svg"><g fill-rule="evenodd"><path d="m22.578125 9.355469h-21.15625v9.039062c0 2.316407 1.867187 4.183594 4.183594 4.183594h12.789062c2.316407 0 4.183594-1.867187 4.183594-4.183594zm0 0" fill="#8e8e8e"/><path d="m22.578125 6.753906h-21.15625v2.601563h21.15625zm0 0" fill="#ffcd54"/><path d="m22.292969 4.183594h-20.585938c-.160156.445312-.285156.917968-.285156 1.421875v1.148437h21.15625v-1.148437c0-.503907-.125-.976563-.285156-1.421875zm0 0" fill="#89e058"/><path d="m5.605469 1.425781c-1.8125 0-3.3125 1.152344-3.898438 2.757813h20.585938c-.585938-1.605469-2.085938-2.757813-3.898438-2.757813zm0 0" fill="#5895dc"/></g><path d="m9 14.328125h6c .414062 0 .75.335937.75.75v.75c0 .414063-.335938.75-.75.75h-6c-.414062 0-.75-.335937-.75-.75v-.75c0-.414063.335938-.75.75-.75zm0 0" fill="#ececec"/><path d="m21.257812 17.539062c0 2.074219-1.679687 3.75-3.75 3.75-2.074218 0-3.75-1.675781-3.75-3.75 0-2.070312 1.675782-3.75 3.75-3.75 2.070313 0 3.75 1.679688 3.75 3.75zm0 0" fill="#6ec149"/><path d="m17.039062 15.664062-.042968.496094c-.15625.058594-.300782.140625-.429688.25l-.449218-.214844-.46875.8125.40625.285157c-.011719.082031-.019532.164062-.019532.246093 0 .085938.003906.167969.019532.25l-.40625.28125.46875.8125.449218-.210937c.128906.109375.273438.191406.429688.25l.042968.492187h.9375l.039063-.492187c.15625-.058594.304687-.144531.429687-.25l.449219.210937.46875-.8125-.40625-.28125c.015625-.082031.023438-.164062.023438-.25 0-.082031-.007813-.164062-.023438-.25l.40625-.28125-.46875-.8125-.445312.210938c-.128907-.105469-.277344-.1875-.433594-.246094l-.039063-.496094zm.46875 1.339844c.292969 0 .535157.242188.535157.535156 0 .296876-.242188.539063-.535157.539063-.296874 0-.535156-.242187-.535156-.539063 0-.292968.238282-.535156.535156-.535156zm0 0" fill="#fff"/></svg>