<svg height="24pt" viewBox="0 0 24 24" width="24pt" xmlns="http://www.w3.org/2000/svg"><path d="m5.605469 1.421875h12.789062c2.308594 0 4.183594 1.875 4.183594 4.183594v12.789062c0 2.308594-1.875 4.183594-4.183594 4.183594h-12.789062c-2.308594 0-4.183594-1.875-4.183594-4.183594v-12.789062c0-2.308594 1.875-4.183594 4.183594-4.183594zm0 0" fill="#eb4d27" fill-rule="evenodd"/><path d="m18.375 11.117188-11.851562-6.769532c-.507813-.285156-.960938-.257812-1.234376.007813-.195312.1875-.304687.492187-.304687.886719v13.511718c0 .390625.117187.695313.304687.882813.28125.277343.726563.304687 1.234376.007812l11.851562-6.769531c.851562-.480469.851562-1.265625 0-1.757812zm0 0" fill="#fff"/><path d="m12 5.828125c-.765625 0-1.492188.148437-2.160156.414063h-.003906c-.007813 0-.011719.003906-.019532.007812-.152344.0625-.304687.128906-.449218.203125-.03125.015625-.058594.027344-.085938.042969-.144531.074218-.285156.15625-.421875.246094-.027344.015624-.054687.03125-.082031.046874-.132813.085938-.253906.179688-.378906.273438-.035157.027344-.066407.050781-.101563.078125-.109375.089844-.214844.183594-.316406.28125-.042969.035156-.082031.070313-.121094.109375-.128906.125-.25.257812-.367187.394531-.003907.007813-.011719.015625-.019532.023438-.496094.597656-.878906 1.296875-1.109375 2.058593-.003906.007813-.003906.019532-.007812.027344-.050781.175782-.097657.359375-.132813.542969-.003906.023437-.007812.042969-.011718.066406-.03125.164063-.058594.328125-.074219.5-.019531.191407-.027344.382813-.027344.574219 0 .1875.007813.367188.027344.550781.003906.035157.007812.074219.011719.109375.019531.15625.042968.3125.070312.464844.007812.027344.011719.050781.015625.078125.121094.574219.324219 1.121094.597656 1.621094.191407.347656.414063.671875.664063.972656.625.738281 1.421875 1.324219 2.335937 1.683594.011719.003906.019531 0 .027344 0 .195313.078125.394531.144531.597656.199219l7.21875-4.121094c.140625-.507813.214844-1.03125.214844-1.558594 0-.253906-.019531-.503906-.050781-.746094-.007813-.058594-.015625-.117187-.023438-.175781h-.003906c-.445312-2.816406-2.875-4.96875-5.8125-4.96875zm0 0" fill="#ffd739"/><path d="m15.648438 11.71875c0 2.015625-1.632813 3.648438-3.648438 3.648438s-3.648438-1.632813-3.648438-3.648438 1.632813-3.648438 3.648438-3.648438 3.648438 1.632813 3.648438 3.648438zm0 0" fill="#ff8c00"/></svg>