<svg height="24pt" viewBox="0 0 24 24" width="24pt" xmlns="http://www.w3.org/2000/svg"><path d="m1.421875 12.101562v6.292969c0 2.316407 1.867187 4.183594 4.183594 4.183594h12.789062c2.316407 0 4.179688-1.867187 4.179688-4.183594v-6.292969zm0 0" fill="#75a9e4" fill-rule="evenodd"/><path d="m1.421875 12.101562h21.152344v-6.496093c0-2.316407-1.863281-4.183594-4.179688-4.183594h-12.789062c-2.316407 0-4.183594 1.867187-4.183594 4.183594zm0 0" fill="#4384f1" fill-rule="evenodd"/><path d="m7.179688 13.820312c.015624.390626.101562.699219.25.921876.152343.21875.320312.382812.503906.492187.191406.105469.371094.167969.539062.191406.175782.023438.296875.039063.359375.039063.25 0 .472657-.050782.671875-.144532.199219-.105468.367188-.234374.503906-.382812.136719-.160156.238282-.335938.3125-.527344.070313-.191406.105469-.386718.105469-.578125 0-.238281-.046875-.457031-.140625-.65625-.089844-.199219-.210937-.367187-.359375-.503906-.152343-.136719-.328125-.242187-.527343-.3125-.203126-.078125-.410157-.121094-.625-.121094h-.457032v-1.246093h.433594c.320312 0 .566406-.058594.742188-.179688.175781-.125.304687-.265625.382812-.417969.089844-.152343.136719-.292969.144531-.417969.015625-.128906.023438-.203124.023438-.21875 0-.160156-.027344-.308593-.082031-.453124-.058594-.152344-.136719-.285157-.242188-.394532-.101562-.113281-.230469-.203125-.382812-.265625-.144532-.070312-.300782-.109375-.476563-.109375-.066406 0-.15625.015625-.277344.039063-.113281.015625-.230469.0625-.359375.140625-.128906.082031-.242187.207031-.347656.375-.105469.167968-.171875.398437-.203125.691406h-1.246094c.03125-.5.148438-.910156.347657-1.21875.199218-.3125.429687-.554688.695312-.71875.261719-.175781.527344-.292969.789062-.347656.265626-.066406.476563-.097656.636719-.097656.351563 0 .671875.0625.957031.191406.296876.121094.546876.292968.753907.515625.21875.214843.386719.476562.503906.777343.121094.296876.179687.621094.179687.972657 0 .238281-.023437.445312-.070312.621093-.046875.175782-.113281.332032-.191406.46875-.074219.128907-.15625.242188-.253906.347657-.09375.097656-.195313.191406-.296876.289062.253907.160157.457032.339844.609376.539063.160156.199218.285156.398437.371093.597656.089844.199219.144531.394531.167969.585938.03125.183593.046875.34375.046875.480468 0 .449219-.078125.847656-.238281 1.199219-.152344.34375-.359375.632813-.621094.875-.265625.238281-.574219.421875-.925781.550781-.34375.128906-.707031.191406-1.089844.191406-.375 0-.734375-.066406-1.078125-.203124-.34375-.136719-.648438-.328126-.910156-.574219-.265625-.25-.476563-.539063-.636719-.875-.160156-.34375-.238281-.71875-.238281-1.128907zm0 0" fill="#fff"/><path d="m16.644531 16.433594h-1.25v-7.730469h-1.304687v-1.136719h2.554687zm0 0" fill="#fff"/></svg>