<svg height="32" width="32" xmlns="http://www.w3.org/2000/svg"><rect fill="#4f4f4f" fill-rule="evenodd" height="28.203388" ry="5.575182" width="28.203388" x="1.898306" y="1.898306"/><g transform="translate(61.157895 6.263158)"><path d="m-39.204895 7.8168421-.053.088a8 8 0 0 1  .2 1.732 8 8 0 0 1 -.11 1.2719999 3 3 0 0 1 2.01 2.828 3 3 0 0 1 -3 3 3 3 0 0 1 -2.008-.777 8 8 0 0 1 -2.758 1.388l-.007.012a6 6 0 0 0 4.773 2.377 6 6 0 0 0 6-6 6 6 0 0 0 -5.047-5.9199999z" fill="#3facd2"/><path d="m-51.141895 7.8268421a6 6 0 0 0 -5.016 5.9099999 6 6 0 0 0 6 6 6 6 0 0 0 4.773-2.371 8 8 0 0 1 -2.808-1.369 3 3 0 0 1 -1.965.74 3 3 0 0 1 -3-3 3 3 0 0 1 1.9102-2.795 8 8 0 0 1 -.1094-1.3049999 8 8 0 0 1  .2152-1.81z" fill="#e16262"/><path d="m-45.157895-.26315789a6 6 0 0 0 -6 5.99999999 6 6 0 0 0  .338 1.957 8 8 0 0 1 2.672-1.771 3 3 0 0 1 -.01-.186 3 3 0 0 1 3-3 3 3 0 0 1 3 3 3 3 0 0 1 -.01.188 8 8 0 0 1 2.674 1.767 6 6 0 0 0  .336-1.955 6 6 0 0 0 -6-5.99999999z" fill="#69db3e"/><circle cx="-45.157894" cy="5.736842" fill="#a5e98c" r="2"/><circle cx="-50.157894" cy="13.736842" fill="#eb9595" r="2"/><circle cx="-40.157894" cy="13.736842" fill="#8ccde4" r="2"/></g></svg>