<svg height="24pt" viewBox="0 0 24 24" width="24pt" xmlns="http://www.w3.org/2000/svg"><path d="m5.605469 1.421875h12.789062c2.308594 0 4.183594 1.875 4.183594 4.183594v12.789062c0 2.308594-1.875 4.183594-4.183594 4.183594h-12.789062c-2.308594 0-4.183594-1.875-4.183594-4.183594v-12.789062c0-2.308594 1.875-4.183594 4.183594-4.183594zm0 0" fill="#4f4f4f" fill-rule="evenodd"/><g fill="#999"><path d="m16.464844 10.558594-.039063.066406c.097657.425781.148438.863281.148438 1.300781 0 .320313-.027344.636719-.082031.953125.902343.316406 1.507812 1.164063 1.507812 2.121094 0 1.242188-1.007812 2.25-2.25 2.25-.558594 0-1.09375-.207031-1.507812-.582031-.613282.476562-1.316407.832031-2.066407 1.039062l-.003906.011719c.847656 1.121094 2.171875 1.777344 3.578125 1.78125 2.484375 0 4.5-2.015625 4.5-4.5 0-2.207031-1.605469-4.089844-3.785156-4.441406zm0 0"/><path d="m7.511719 10.566406c-2.167969.363282-3.757813 2.234375-3.761719 4.433594 0 2.484375 2.015625 4.5 4.5 4.5 1.40625 0 2.730469-.660156 3.578125-1.777344-.761719-.203125-1.476563-.550781-2.105469-1.027344-.40625.355469-.929687.554688-1.472656.554688-1.242188 0-2.25-1.007812-2.25-2.25 0-.925781.570312-1.757812 1.433594-2.097656-.054688-.320313-.082032-.648438-.082032-.976563 0-.457031.054688-.914062.160157-1.359375zm0 0"/><path d="m12 4.5c-2.484375 0-4.5 2.015625-4.5 4.5.003906.5.089844.996094.253906 1.46875.570313-.574219 1.253906-1.027344 2.003906-1.328125-.003906-.046875-.007812-.09375-.007812-.140625 0-1.242188 1.007812-2.25 2.25-2.25s2.25 1.007812 2.25 2.25c0 .046875-.003906.09375-.007812.140625.75.300781 1.433593.753906 2.003906 1.324219.167968-.46875.25-.964844.253906-1.464844 0-2.484375-2.015625-4.5-4.5-4.5zm0 0"/></g><path d="m13.5 9c0 .828125-.671875 1.5-1.5 1.5s-1.5-.671875-1.5-1.5.671875-1.5 1.5-1.5 1.5.671875 1.5 1.5zm0 0" fill="#a5e98c"/><path d="m9.75 15c0 .828125-.671875 1.5-1.5 1.5s-1.5-.671875-1.5-1.5.671875-1.5 1.5-1.5 1.5.671875 1.5 1.5zm0 0" fill="#eb9595"/><path d="m17.25 15c0 .828125-.671875 1.5-1.5 1.5s-1.5-.671875-1.5-1.5.671875-1.5 1.5-1.5 1.5.671875 1.5 1.5zm0 0" fill="#8ccde4"/></svg>