<svg height="32" width="32" xmlns="http://www.w3.org/2000/svg"><rect fill="#4f4f4f" fill-rule="evenodd" height="28.203388" ry="5.575182" width="28.203388" x="1.898306" y="1.898306"/><g transform="translate(34.526316 33.038795)"><path d="m-25.124204-20.006015a4.7894737 4.7894737 0 0 0 -4.004 4.717631 4.7894737 4.7894737 0 0 0 4.789474 4.789474 4.7894737 4.7894737 0 0 0 3.810026-1.89264 6.385965 6.385965 0 0 1 -2.241473-1.092798 2.3947369 2.3947369 0 0 1 -1.568553.590701 2.3947369 2.3947369 0 0 1 -2.394737-2.394737 2.3947369 2.3947369 0 0 1 1.524809-2.231096 6.385965 6.385965 0 0 1 -.08733-1.041711 6.385965 6.385965 0 0 1  .171782-1.444824z" fill="#e16262"/><path d="m-20.347502-26.463822a4.7894737 4.7894737 0 0 0 -4.789474 4.789474 4.7894737 4.7894737 0 0 0  .269807 1.562166 6.385965 6.385965 0 0 1 2.132913-1.413693 2.3947369 2.3947369 0 0 1 -.008-.148473 2.3947369 2.3947369 0 0 1 2.394737-2.394737 2.3947369 2.3947369 0 0 1 2.394737 2.394737 2.3947369 2.3947369 0 0 1 -.008.15007 6.385965 6.385965 0 0 1 2.134509 1.4105 4.7894737 4.7894737 0 0 0  .268211-1.56057 4.7894737 4.7894737 0 0 0 -4.789474-4.789474z" fill="#69db3e"/><circle cx="-20.347504" cy="-21.674349" fill="#a5e98c" r="1.596491"/><circle cx="-24.33873" cy="-15.288383" fill="#eb9595" r="1.596491"/><g stroke-width="1.333333" transform="matrix(.75 0 0 .75 -5.319164 -30.023019)"><circle cx="-11.473684" cy="21.842106" fill="#e16262" r="8" stroke-width="1.333333"/><path d="m-11.473684 17.842105c-2.2091 0-4 1.7909-4 4s1.7909 4 4 4c1.8141998 0 3.3494998-1.2018 3.8392998-2.8571h-1.2321c-.44244 1.0054-1.4381998 1.7143-2.6070998 1.7143-1.578 0-2.8571-1.2792-2.8571-2.8571 0-1.578 1.2792-2.8571 2.8571-2.8571.78946 0 1.4945998.3286 2.0088998.84821l-1.4374998 1.4375h3.4285998v-3.428l-1.173 1.173c-.725-.723-1.7219998-1.173-2.8269998-1.173z" fill="#fff" stroke-width="1.333333"/></g><g stroke-width="1.333333" transform="matrix(.75 0 0 .75 -31.946537 -29.363767)"><circle cx="24" cy="21" fill="#69db3e" r="8" stroke-width="1.777778"/><g fill="#fff" stroke-width="1.777778" transform="matrix(.70711 -.70711 .70711 .70711 -8.8701 21.393)"><path d="m20.66 18.76h3v7h-3z" stroke-width="1.333333"/><path d="m-25.76 20.66h3v9h-3z" stroke-width="1.333333" transform="rotate(-90)"/></g></g></g></svg>