<svg height="24pt" viewBox="0 0 24 24" width="24pt" xmlns="http://www.w3.org/2000/svg" xmlns:xlink="http://www.w3.org/1999/xlink"><clipPath id="a"><path d="m0 0h24v24h-24z"/></clipPath><path d="m5.605469 1.421875h12.789062c2.308594 0 4.183594 1.875 4.183594 4.183594v12.789062c0 2.308594-1.875 4.183594-4.183594 4.183594h-12.789062c-2.308594 0-4.183594-1.875-4.183594-4.183594v-12.789062c0-2.308594 1.875-4.183594 4.183594-4.183594zm0 0" fill="#5f7c8a" fill-rule="evenodd"/><g clip-path="url(#a)"><path d="m20.25 12c0-4.554688-3.695312-8.25-8.25-8.25s-8.25 3.695312-8.25 8.25 3.695312 8.25 8.25 8.25 8.25-3.695312 8.25-8.25zm0 0" fill="#7f96a1"/></g><path d="m12 5.8125-1.671875 2.003906c-1.660156.664063-2.828125 2.285156-2.828125 4.183594 0 2.484375 2.015625 4.5 4.5 4.5s4.5-2.015625 4.5-4.5c0-1.898438-1.167969-3.523438-2.828125-4.183594zm0 0" fill="#dfe5e8"/></svg>