<svg height="24pt" viewBox="0 0 24 24" width="24pt" xmlns="http://www.w3.org/2000/svg"><path d="m5.605469 1.421875h12.789062c2.308594 0 4.183594 1.875 4.183594 4.183594v12.789062c0 2.308594-1.875 4.183594-4.183594 4.183594h-12.789062c-2.308594 0-4.183594-1.875-4.183594-4.183594v-12.789062c0-2.308594 1.875-4.183594 4.183594-4.183594zm0 0" fill="#e6e6e6" fill-rule="evenodd"/><path d="m12.316406 4.292969c1.667969 3.691406 9.039063 12.78125-8.871094 11.394531 12.804688 5.609375 22.820313.808594 8.871094-11.394531zm0 0" fill="#f27423"/><path d="m16.171875 8.183594c1.257813-.039063 2.710937 0 4.382813.128906-2.113282-.925781-4.136719-1.542969-6.003907-1.914062.019531.023437.046875.046874.070313.070312.34375.351562.667968.695312.96875 1.03125.207031.234375.394531.460938.582031.683594zm0 0" fill="#1d4a6c"/><path d="m10.988281 6.003906c-5.832031-.03125-8.472656 3.445313-3.195312 9.785156.476562.574219 1.011719 1.167969 1.621093 1.789063.671876.683594 1.425782 1.390625 2.269532 2.128906-.242188-.53125-.605469-1.195312-.992188-1.910156-.363281-.671875-.742187-1.390625-1.074218-2.140625-1.394532-3.148438-1.777344-6.597656 4.730468-7.335938-.078125-.175781-.148437-.351562-.230468-.519531-.273438-.570312-.566407-1.105469-.847657-1.625-.800781-.109375-1.566406-.167969-2.28125-.171875zm0 0" fill="#1d4a6c"/><path d="m13.269531 6.175781c.28125.519531.574219 1.054688.847657 1.625.082031.167969.152343.34375.230468.519531.558594-.066406 1.15625-.113281 1.824219-.136718-.1875-.222656-.375-.449219-.582031-.683594-.300782-.335938-.625-.679688-.96875-1.03125-.023438-.023438-.050782-.046875-.070313-.070312-.4375-.089844-.863281-.164063-1.28125-.222657zm0 0" fill="#f27423"/></svg>