<svg height="24pt" viewBox="0 0 24 24" width="24pt" xmlns="http://www.w3.org/2000/svg"><path d="m5.605469 1.421875h12.789062c2.308594 0 4.183594 1.875 4.183594 4.183594v12.789062c0 2.308594-1.875 4.183594-4.183594 4.183594h-12.789062c-2.308594 0-4.183594-1.875-4.183594-4.183594v-12.789062c0-2.308594 1.875-4.183594 4.183594-4.183594zm0 0" fill="#59a7d1" fill-rule="evenodd"/><path d="m4.125 7.125v2.25h8.035156c.59375 0 .964844.320312.964844.820312v3.609376c0 .5-.371094.8125-.964844.820312h-5.773437v-4.308594h-2.261719v6.558594h9.640625c.890625 0 1.609375-.722656 1.609375-1.625v-6.5c0-.898438-.71875-1.625-1.609375-1.625zm0 0" fill="#fff"/><path d="m17.625 7.125v2.25h2.25v-2.25zm0 3v6.75h2.25v-6.75zm0 0" fill="#fff"/></svg>