<svg height="24pt" viewBox="0 0 24 24" width="24pt" xmlns="http://www.w3.org/2000/svg"><g fill-rule="evenodd"><path d="m11.171875 11.308594c-.023437 0-.050781 0-.074219 0-.039062.003906-.074218.007812-.109375.015625-.035156.003906-.070312.015625-.105469.023437-.035156.011719-.070312.019532-.105468.035156-.03125.011719-.066406.027344-.097656.042969s-.0625.035157-.09375.054688-.0625.039062-.089844.0625c-.027344.023437-.054688.046875-.082032.070312-.023437.027344-.050781.054688-.074218.082031-.019532.027344-.042969.054688-.0625.085938-.023438.03125-.042969.0625-.058594.09375s-.03125.0625-.046875.097656c-.015625.03125-.027344.066406-.035156.101563-.011719.035156-.023438.070312-.03125.105469-.003907.035156-.011719.070312-.015625.105468 0 .035156-.003906.074219-.003906.109375 0 .027344 0 .050781.003906.078125 0 .035156.003906.070313.011718.105469.007813.035156.015626.070313.023438.109375.011719.03125.023438.066406.035156.101562.011719.03125.027344.066407.042969.097657s.035156.0625.054687.09375c.019532.03125.042969.0625.0625.089843.023438.027344.046876.054688.074219.082032.023438.023437.050781.050781.078125.074218.027344.019532.054688.042969.085938.0625.03125.023438.0625.042969.09375.058594s.0625.03125.097656.046875c.03125.015625.066406.027344.101562.039063.035157.007812.070313.019531.105469.027344.035157.003906.070313.011718.105469.015624.039062.003907.074219.003907.109375.003907.027344 0 .050781 0 .078125-.003907.035156 0 .070312-.003906.105469-.011718.039062-.007813.074219-.015625.109375-.023438.035156-.011718.066406-.023437.101562-.035156s.066406-.027344.097656-.042969c.035157-.015625.066407-.035156.09375-.054687.03125-.019532.0625-.039063.089844-.0625.027344-.023438.054688-.046875.082032-.074219.027343-.023437.050781-.050781.074218-.078125.023438-.027344.042969-.054688.066406-.085938.019532-.03125.039063-.0625.054688-.09375.019531-.03125.035156-.0625.046875-.097656.015625-.03125.027344-.066406.039063-.101562.011718-.035156.019531-.070313.027343-.105469.007813-.035156.011719-.070313.015625-.105469.003906-.039062.003906-.074218.003906-.109375 0-.027343 0-.050781 0-.078125-.003906-.035156-.007812-.070312-.015624-.105468-.003907-.035157-.011719-.070313-.023438-.105469-.007812-.035157-.019531-.070313-.035156-.105469-.011719-.035156-.027344-.066406-.042969-.097656s-.035156-.0625-.054687-.09375c-.019532-.03125-.039063-.0625-.0625-.089844-.023438-.027344-.046876-.054688-.070313-.082031-.027344-.023438-.054687-.050781-.082031-.074219s-.054688-.042969-.085938-.066406c-.027344-.019532-.058594-.039063-.089844-.054688-.035156-.019531-.066406-.035156-.101562-.046875-.03125-.015625-.066406-.027343-.101562-.039062-.035157-.007813-.070313-.019531-.105469-.027344-.035157-.007813-.070313-.011719-.105469-.015625s-.074219-.003906-.109375-.003906zm0 0" fill="#fff"/><path d="m16.574219 22.578125c-.011719-.011719-.023438-.023437-.035157-.035156-.25-.265625-.496093-.535157-.773437-.742188-.273437-.203125-.578125-.34375-.929687-.355469-.355469-.007812-.679688.117188-.976563.316407-.300781.199219-.578125.472656-.84375.742187-.027344.027344-.050781.046875-.074219.070313zm0 0" fill="#80cbc4"/><path d="m20.941406 21.632812c-.082031-.066406-.234375-.117187-.308594-.1875h-.40625c-.128906.324219-.316406.574219-.484374.859376.445312-.152344.835937-.386719 1.199218-.671876zm0 0" fill="#80cbc4"/><path d="m22.574219 10.710938c-.382813-.671876-.746094-1.371094-1.289063-1.914063-.785156-.785156-1.71875-1.421875-2.757812-1.859375-1.039063-.441406-2.183594-.683594-3.382813-.683594-1.195312 0-2.339843.242188-3.378906.683594-1.039063.4375-1.972656 1.074219-2.757813 1.859375-.785156.785156-1.421874 1.71875-1.859374 2.757813-.441407 1.039062-.683594 2.183593-.683594 3.382812 0 .03125.003906.0625.003906.09375 0 .035156-.003906.066406-.003906.101562 0 .457032.035156.910157.105468 1.347657.023438.105469.058594.195312.089844.292969.210938.691406.59375 1.175781.921875 1.488281s.605469.449219.605469.449219c.265625.214843.601562.4375.984375.65625h-.03125s.199219 1.070312.585937 2.136718c.140626.390625.332032.734375.523438 1.074219h2.691406c.023438-.027344.046875-.046875.074219-.070313.265625-.273437.542969-.546874.84375-.746093.296875-.199219.621094-.324219.976563-.316407.351562.011719.65625.152344.929687.359376.277344.203124.523437.472656.773437.738281.011719.011719.023438.023437.035157.035156h1.820312c.480469 0 .921875-.125 1.347657-.273437.167968-.285157.355468-.535157.484374-.859376h.40625c.074219.070313.226563.121094.308594.1875.972656-.765624 1.632813-1.898437 1.632813-3.238281zm-11.402344.597656c.035156 0 .074219 0 .109375.003906s.070312.007812.105469.015625c.035156.007813.070312.019531.105469.027344.035156.011719.070312.023437.101562.039062.035156.011719.066406.027344.101562.046875.03125.015625.0625.035156.089844.054688.03125.023437.058594.042968.085938.066406s.054687.050781.082031.074219c.023437.027343.046875.054687.070313.082031.023437.027344.042968.058594.0625.089844.019531.03125.039062.0625.054687.09375s.03125.0625.042969.097656c.015625.035156.027344.070312.035156.105469.011719.035156.019531.070312.023438.105469.007812.035156.011718.070312.015624.105468v.078125c0 .035157 0 .070313-.003906.109375-.003906.035156-.007812.070313-.015625.105469-.007812.035156-.015625.070313-.027343.105469-.011719.035156-.023438.070312-.039063.101562-.011719.035156-.027344.066406-.046875.097656-.015625.03125-.035156.0625-.054688.09375-.023437.03125-.042968.058594-.066406.085938-.023437.027344-.046875.054688-.074218.078125-.027344.027344-.054688.050781-.082032.074219-.027344.023437-.058594.042968-.089844.0625-.027343.019531-.058593.039062-.09375.054687-.03125.015625-.0625.03125-.097656.042969s-.066406.023438-.101562.035156c-.035156.007813-.070313.015625-.109375.023438-.035157.007812-.070313.011718-.105469.011718-.027344.003907-.050781.003907-.078125.003907-.035156 0-.070313 0-.109375-.003907-.035156-.003906-.070312-.011718-.105469-.015624-.035156-.007813-.070312-.019532-.105469-.027344-.035156-.011719-.070312-.023438-.101562-.039063-.035156-.015625-.066406-.03125-.097656-.046875s-.0625-.035156-.09375-.058594c-.03125-.019531-.058594-.042968-.085938-.0625-.027344-.023437-.054687-.050781-.078125-.074218-.027343-.027344-.050781-.054688-.074219-.082032-.019531-.027343-.042968-.058593-.0625-.089843-.019531-.03125-.039062-.0625-.054687-.09375s-.03125-.066407-.042969-.097657c-.011718-.035156-.023437-.070312-.035156-.101562-.007812-.039062-.015625-.074219-.023438-.109375-.007812-.035156-.011718-.070313-.011718-.105469-.003906-.027344-.003906-.050781-.003906-.078125 0-.035156.003906-.074219.003906-.109375.003906-.035156.011718-.070312.015625-.105468.007812-.035157.019531-.070313.03125-.105469.007812-.035157.019531-.070313.035156-.101563.015625-.035156.03125-.066406.046875-.097656s.035156-.0625.058594-.09375c.019531-.03125.042968-.058594.0625-.085938.023437-.027343.050781-.054687.074218-.082031.027344-.023437.054688-.046875.082032-.070312.027344-.023438.058594-.042969.089844-.0625s.0625-.039063.09375-.054688.066406-.03125.097656-.042969c.035156-.015624.070312-.023437.105468-.035156.035157-.007812.070313-.019531.105469-.023437.035157-.007813.070313-.011719.109375-.015625zm0 0" fill="#009688"/><path d="m6.625 16.65625c.03125.160156.023438.332031.0625.492188.148438.554687.363281 1.082031.644531 1.566406.351563.726562.800781 1.394531 1.332031 1.988281.335938.378906.753907.671875 1.152344.984375-.027344-.0625-.066406-.117188-.089844-.183594-.386718-1.066406-.585937-2.136718-.585937-2.136718h.03125c-.382813-.21875-.71875-.441407-.984375-.65625 0 0-.277344-.136719-.605469-.449219s-.710937-.796875-.921875-1.488281c-.011718-.039063-.023437-.078126-.035156-.117188zm0 0" fill="#80cbc4"/><path d="m6.484375 15.382812c0 .003907-.019531.042969-.019531.042969 0 .15625.050781.300781.058594.453125-.011719-.164062-.035157-.328125-.039063-.496094zm0 0" fill="#8e8e8e"/><path d="m13.609375 6.5625c.519531-.09375.992187-.308594 1.535156-.308594.8125 0 1.542969.253906 2.285157.460938-.144532-.328125-.191407-.46875-.441407-.9375-.226562-.429688-.480469-.855469-.726562-1.175782-.242188-.320312-.480469-.535156-.679688-.535156s-.453125.214844-.722656.535156c-.273437.320313-.558594.75-.820313 1.179688-.238281.390625-.261718.472656-.429687.78125zm0 0" fill="#455a64"/><path d="m9.433594 8.507812c.703125-.621093 1.453125-1.199218 2.332031-1.570312.136719-.058594.304687-.039062.445313-.089844-.253907-.191406-.292969-.234375-.613282-.453125-.78125-.53125-1.632812-1.023437-1.890625-.875-.230469.128907-.292969 1.125-.296875 2.085938-.003906.460937.011719.558593.023438.902343zm0 0" fill="#455a64"/><path d="m22.574219 10.597656c-.011719 0-.066407-.003906-.078125-.003906.023437.042969.054687.078125.078125.117188zm0 0" fill="#8e8e8e"/><path d="m22.574219 9.40625c-.105469.382812-.222657.824219-.253907.929688.054688.089843.125.167968.175782.257812.011718 0 .066406.003906.078125.003906zm0 0" fill="#8e8e8e"/><path d="m22.574219 6.359375c-.433594-.011719-1.285157.140625-2.34375.425781-.6875.1875-.886719.253906-1.347657.390625.878907.425781 1.71875.9375 2.402344 1.621094.4375.4375.726563.996094 1.035156 1.539063.03125-.105469.148438-.546876.253907-.929688zm0 0" fill="#455a64"/><path d="m5.605469 1.425781c-2.316407 0-4.183594 1.863281-4.183594 4.179688v12.789062c0 2.316407 1.867187 4.183594 4.183594 4.183594h4.644531c-.15625-.28125-.304688-.578125-.433594-.890625-.398437-.3125-.816406-.605469-1.152344-.984375-.53125-.59375-.980468-1.261719-1.332031-1.988281-.28125-.484375-.496093-1.011719-.644531-1.566406-.039062-.160157-.03125-.332032-.0625-.492188-.019531-.058594-.039062-.113281-.054688-.175781-.03125-.195313-.027343-.402344-.046874-.601563-.007813-.152344-.058594-.296875-.058594-.449218 0-.003907.019531-.042969.019531-.046876-.003906-.082031-.019531-.164062-.019531-.25 0-.035156.003906-.066406.003906-.101562 0-.03125-.003906-.0625-.003906-.09375 0-1.199219.242187-2.34375.683594-3.382812.4375-1.039063 1.074218-1.972657 1.859374-2.757813.121094-.121094.296876-.175781.425782-.289063-.011719-.34375-.027344-.441406-.023438-.902343.003906-.960938.066406-1.957031.296875-2.085938.257813-.148437 1.109375.34375 1.890625.875.320313.21875.359375.265625.613282.453125.441406-.160156.929687-.195312 1.398437-.285156.167969-.308594.191406-.390625.429687-.78125.261719-.429688.546876-.859375.820313-1.179688.269531-.320312.523437-.535156.722656-.535156s.4375.214844.679688.535156c.246093.320313.5.746094.726562 1.175782.25.46875.296875.609375.441407.9375.359374.097656.761718.078125 1.097656.222656.132812.054688.222656.175781.355468.238281.460938-.136719.660157-.203125 1.347657-.390625 1.058593-.285156 1.910156-.4375 2.34375-.425781v-.753906c0-2.316407-1.863281-4.179688-4.179688-4.179688zm0 0" fill="#8e8e8e"/></g></svg>