<svg height="24pt" viewBox="0 0 24 24" width="24pt" xmlns="http://www.w3.org/2000/svg"><path d="m5.605469 1.421875h12.789062c2.308594 0 4.183594 1.875 4.183594 4.183594v12.789062c0 2.308594-1.875 4.183594-4.183594 4.183594h-12.789062c-2.308594 0-4.183594-1.875-4.183594-4.183594v-12.789062c0-2.308594 1.875-4.183594 4.183594-4.183594zm0 0" fill="#666" fill-rule="evenodd"/><path d="m17.324219 17.324219c-1.410157 1.414062-3.328125 2.207031-5.324219 2.207031v-7.53125zm0 0" fill="#ee813a"/><path d="m12 19.53125c-1.996094 0-3.914062-.792969-5.324219-2.207031-1.414062-1.410157-2.207031-3.328125-2.207031-5.324219h7.53125zm0 0" fill="#fff"/><path d="m4.46875 12c0-1.996094.792969-3.914062 2.207031-5.324219l5.324219 5.324219zm0 0" fill="#fad62f"/><path d="m6.675781 6.675781c2.941407-2.941406 7.707031-2.941406 10.648438 0 2.941406 2.941407 2.941406 7.707031 0 10.648438zm0 0" fill="#97cd78"/><path d="m14.488281 12c0 1.375-1.113281 2.488281-2.488281 2.488281s-2.488281-1.113281-2.488281-2.488281 1.113281-2.488281 2.488281-2.488281 2.488281 1.113281 2.488281 2.488281zm0 0" fill="#5aa142"/></svg>