<svg height="24pt" viewBox="0 0 24 24" width="24pt" xmlns="http://www.w3.org/2000/svg"><g fill-rule="evenodd"><path d="m5.605469 1.421875h12.789062c2.308594 0 4.183594 1.875 4.183594 4.183594v12.789062c0 2.308594-1.875 4.183594-4.183594 4.183594h-12.789062c-2.308594 0-4.183594-1.875-4.183594-4.183594v-12.789062c0-2.308594 1.875-4.183594 4.183594-4.183594zm0 0" fill="#4f4f4f"/><g fill="#f45c49"><path d="m1.421875 14.304688c.070313.148437.070313.332031.1875.449218.242187.242188.578125.394532.953125.394532h1.796875c.375 0 .710937-.152344.953125-.394532.246094-.246094.394531-.582031.394531-.957031v-3.59375c0-.375-.148437-.710937-.394531-.957031-.242188-.242188-.578125-.390625-.953125-.390625h-1.796875c-.375 0-.710938.148437-.953125.390625-.117187.117187-.117187.300781-.1875.449218zm0 0"/><path d="m10.859375 22.578125c.109375-.191406.242187-.367187.242187-.601563v-3.773437c0-.347656-.140624-.664063-.363281-.890625-.222656-.226562-.53125-.367188-.875-.367188h-7.414062c-.339844 0-.652344.140626-.875.367188-.09375.09375-.089844.25-.152344.375v.707031c0 2.316407 1.867187 4.183594 4.183594 4.183594zm0 0"/><path d="m22.578125 17.6875c-.0625-.125-.058594-.28125-.152344-.375-.222656-.226562-.535156-.367188-.875-.367188h-7.414062c-.34375 0-.652344.140626-.875.367188-.222657.226562-.363281.542969-.363281.890625v3.773437c0 .234376.132812.410157.242187.601563h5.253906c2.316407 0 4.183594-1.867187 4.183594-4.183594zm0 0"/><path d="m13.140625 1.425781c-.109375.1875-.242187.363281-.242187.597657v3.773437c0 .347656.140624.664063.363281.890625.222656.226562.53125.367188.875.367188h7.414062c.339844 0 .652344-.140626.875-.367188.09375-.09375.089844-.25.152344-.375v-.707031c0-2.316407-1.867187-4.179688-4.183594-4.179688zm0 0"/></g><path d="m1.421875 6.3125v3.382812c.070313-.148437.070313-.332031.1875-.449218.242187-.242188.578125-.390625.953125-.390625h1.796875c.375 0 .710937.148437.953125.390625.246094.246094.394531.582031.394531.957031v3.59375c0 .375-.148437.710937-.394531.957031-.242188.242188-.578125.394532-.953125.394532h-1.796875c-.375 0-.710938-.152344-.953125-.394532-.117187-.117187-.117187-.300781-.1875-.449218v3.382812c.0625-.125.058594-.28125.152344-.375.222656-.226562.535156-.367188.875-.367188h7.414062c.34375 0 .652344.140626.875.367188.222657.226562.363281.542969.363281.890625v3.773437c0 .234376-.132812.410157-.242187.601563h2.28125c-.109375-.191406-.242187-.367187-.242187-.601563v-3.773437c0-.347656.140624-.664063.363281-.890625.222656-.226562.53125-.367188.875-.367188h7.414062c.339844 0 .652344.140626.875.367188.09375.09375.089844.25.152344.375v-3.382812c-.070313.148437-.070313.332031-.1875.449218-.242187.242188-.578125.394532-.953125.394532h-1.796875c-.375 0-.710937-.152344-.953125-.394532-.246094-.246094-.394531-.582031-.394531-.957031v-3.59375c0-.375.148437-.710937.394531-.957031.242188-.242188.578125-.390625.953125-.390625h1.796875c.375 0 .710938.148437.953125.390625.117187.117187.117187.300781.1875.449218v-3.382812c-.0625.125-.058594.28125-.152344.375-.222656.226562-.535156.367188-.875.367188h-7.414062c-.34375 0-.652344-.140626-.875-.367188-.222657-.226562-.363281-.542969-.363281-.890625v-3.773437c0-.234376.132812-.410157.242187-.597657h-2.28125c.109375.1875.242187.363281.242187.597657v3.773437c0 .347656-.140624.664063-.363281.890625-.222656.226562-.53125.367188-.875.367188h-7.414062c-.339844 0-.652344-.140626-.875-.367188-.09375-.09375-.089844-.25-.152344-.375zm0 0" fill="#4f4f4f"/><path d="m1.421875 6.3125c.0625.125.058594.28125.152344.375.222656.226562.535156.367188.875.367188h7.414062c.34375 0 .652344-.140626.875-.367188.222657-.226562.363281-.542969.363281-.890625v-3.773437c0-.234376-.132812-.410157-.242187-.597657h-5.253906c-2.316407 0-4.183594 1.863281-4.183594 4.179688zm0 0" fill="#f45c49"/><path d="m8.628906 8.855469c-.308594 0-.589844.140625-.792968.367187-.203126.226563-.328126.542969-.328126.890625v3.773438c0 .347656.125.664062.328126.890625.203124.226562.484374.371094.792968.371094h6.742188c.308594 0 .589844-.144532.792968-.371094.203126-.226563.328126-.542969.328126-.890625v-3.773438c0-.347656-.125-.664062-.328126-.890625-.203124-.226562-.484374-.367187-.792968-.367187zm0 0" fill="#4f4f4f"/><path d="m8.628906 8.855469h6.742188c.308594 0 .589844.140625.792968.367187.203126.226563.328126.542969.328126.890625v3.773438c0 .347656-.125.664062-.328126.890625-.203124.226562-.484374.371094-.792968.371094h-6.742188c-.308594 0-.589844-.144532-.792968-.371094-.203126-.226563-.328126-.542969-.328126-.890625v-3.773438c0-.347656.125-.664062.328126-.890625.203124-.226562.484374-.367187.792968-.367187zm0 0" fill="#f45c49"/><path d="m22.578125 9.695312c-.070313-.148437-.070313-.332031-.1875-.449218-.242187-.242188-.578125-.390625-.953125-.390625h-1.796875c-.375 0-.710937.148437-.953125.390625-.246094.246094-.394531.582031-.394531.957031v3.59375c0 .375.148437.710937.394531.957031.242188.242188.578125.394532.953125.394532h1.796875c.375 0 .710938-.152344.953125-.394532.117187-.117187.117187-.300781.1875-.449218zm0 0" fill="#f45c49"/></g></svg>