<svg height="24pt" viewBox="0 0 24 24" width="24pt" xmlns="http://www.w3.org/2000/svg"><path d="m5.605469 1.421875h12.789062c2.308594 0 4.183594 1.875 4.183594 4.183594v12.789062c0 2.308594-1.875 4.183594-4.183594 4.183594h-12.789062c-2.308594 0-4.183594-1.875-4.183594-4.183594v-12.789062c0-2.308594 1.875-4.183594 4.183594-4.183594zm0 0" fill="#c2352a" fill-rule="evenodd"/><path d="m13.503906 4.296875c-.246094.007813-.511718.03125-.804687.082031-.550781.089844-1.394531.296875-2.175781.917969-.8125.644531-1.257813 1.585937-1.382813 2.648437-.648437.121094-1.300781.390626-1.722656.867188-.542969.601562-.753907 1.3125-.753907 1.988281 0 .679688.210938 1.386719.753907 1.992188.082031.09375.21875.140625.320312.226562-.277343.601563-.476562 1.246094-.476562 1.9375v.003907c0 2.585937 2.140625 4.746093 4.734375 4.746093 2.589844 0 4.730468-2.160156 4.730468-4.746093v-.003907c0-.691406-.199218-1.335937-.476562-1.941406.101562-.082031.238281-.128906.320312-.222656.542969-.605469.753907-1.3125.753907-1.988281 0-.59375-.207031-1.207032-.609375-1.757813.296875-.410156.515625-.847656.585937-1.300781.101563-.675782-.003906-1.414063-.457031-2.097656-.445312-.675782-1.289062-1.171876-2.082031-1.28125-.054688-.007813-.570313-.097657-1.257813-.070313zm0 0" fill="#fff"/><path d="m13.59375 6.667969c-.160156.003906-.335938.019531-.511719.050781-.355469.054688-.742187.164062-1.082031.4375-.34375.269531-.59375.738281-.59375 1.269531v1.78125h-1.773438c-.210937 0-.410156.109375-.515624.296875-.109376.183594-.109376.414063 0 .597656.105468.183594.304687.296876.515624.292969h1.773438v1.269531c-1.042969.269532-1.769531 1.214844-1.773438 2.296876 0 1.3125 1.058594 2.375 2.363282 2.375 1.304687 0 2.359375-1.0625 2.359375-2.375 0-1.082032-.726563-2.027344-1.769531-2.300782v-1.265625h1.769531c.214843.003907.414062-.109375.519531-.292969.105469-.183593.105469-.414062 0-.597656-.105469-.1875-.304688-.296875-.519531-.296875h-1.769531v-1.78125c0-.214843.042968-.257812.144531-.339843.101562-.078126.304687-.160157.539062-.195313.472657-.078125 1-.007813 1-.007813.210938.039063.425781-.039062.5625-.207031s.171875-.398437.089844-.597656-.261719-.339844-.476563-.367187c0 0-.367187-.0625-.851562-.042969zm-1.597656 7.699219c.324218 0 .589844.265624.589844.59375 0 .328124-.265626.59375-.589844.59375-.328125 0-.589844-.265626-.589844-.59375 0-.328126.261719-.59375.589844-.59375zm0 0" fill="#c2352a"/></svg>