<svg height="24pt" viewBox="0 0 24 24" width="24pt" xmlns="http://www.w3.org/2000/svg"><g fill-rule="evenodd"><path d="m5.605469 1.421875h12.789062c2.308594 0 4.183594 1.875 4.183594 4.183594v12.789062c0 2.308594-1.875 4.183594-4.183594 4.183594h-12.789062c-2.308594 0-4.183594-1.875-4.183594-4.183594v-12.789062c0-2.308594 1.875-4.183594 4.183594-4.183594zm0 0" fill="#ff7d00"/><path d="m21.355469 2.644531c-.757813-.753906-1.800781-1.21875-2.960938-1.21875h-12.789062c-2.316407 0-4.183594 1.863281-4.183594 4.179688v12.789062c0 2.316407 1.867187 4.183594 4.183594 4.183594h6.394531v-10.578125zm0 0" fill="#ff7d00"/><path d="m21.355469 2.644531-9.355469 9.355469v10.574219h6.394531c2.316407 0 4.179688-1.863281 4.179688-4.179688v-12.789062c0-1.160157-.464844-2.203125-1.21875-2.960938zm0 0" fill="#ff9025"/></g><path d="m17.671875 5.957031-6.042969 5.671875.742188.742188 5.671875-6.042969zm0 0" fill="#5e5e5e"/><path d="m11.742188 12v8.25h.515624v-8.25zm0 0" fill="#fff"/><path d="m8.0625 7.6875-.367188.371094 3.933594 4.3125.742188-.742188zm0 0" fill="#3f3f3f"/><path d="m12.515625 12c0 .285156-.230469.515625-.515625.515625s-.515625-.230469-.515625-.515625.230469-.515625.515625-.515625.515625.230469.515625.515625zm0 0" fill="#3f3f3f"/></svg>