<svg height="24pt" viewBox="0 0 24 24" width="24pt" xmlns="http://www.w3.org/2000/svg"><path d="m5.605469 1.421875h12.789062c2.308594 0 4.183594 1.875 4.183594 4.183594v12.789062c0 2.308594-1.875 4.183594-4.183594 4.183594h-12.789062c-2.308594 0-4.183594-1.875-4.183594-4.183594v-12.789062c0-2.308594 1.875-4.183594 4.183594-4.183594zm0 0" fill="#e94a63" fill-rule="evenodd"/><path d="m17.246094 19.09375c.835937-.234375 1.382812-.957031 1.382812-1.820312.003906-.988282-.710937-1.792969-1.683594-1.902344l-.191406-.019532-2.992187-2.992187-.0625.0625c-.03125.035156-.058594.074219-.058594.082031 0 .011719.042969.078125.097656.148438.140625.183594.191407.386718.171875.683594-.027344.402343-.140625.578124-.734375 1.144531l-.109375.105469-.175781-.042969c-.242187-.0625-.476563-.023438-.636719.105469-.027344.023437.261719.328124 1.269532 1.339843l1.308593 1.3125.019531.203125c.042969.480469.316407.960938.71875 1.265625.238282.179688.4375.277344.699219.335938.109375.023437.222657.050781.253907.058593.109374.023438.535156-.015624.722656-.070312zm-.738282-1.082031c-.582031-.179688-.796874-.855469-.417968-1.332031.160156-.207032.363281-.300782.65625-.300782.179687 0 .246094.015625.351562.070313.167969.085937.304688.226562.398438.414062.066406.132813.074218.175781.066406.363281-.007812.15625-.03125.25-.082031.347657-.085938.171875-.285157.351562-.460938.414062-.140625.050781-.386719.0625-.511719.023438zm-6.699218-5.945313c.089844-.1875.097656-.386718.03125-.667968-.015625-.082032 0-.101563.296875-.390626.351562-.339843.550781-.460937.851562-.515624.277344-.046876.59375.03125.828125.210937.09375.074219.101563.074219.152344.023437.03125-.027343.054688-.0625.054688-.078124 0-.015626-.226563-.257813-.507813-.535157-.277344-.277343-.574219-.574219-.652344-.65625l-.148437-.152343.03125-.136719c.164062-.695313.144531-1.113281-.078125-1.832031-.039063-.132813-.238281-.496094-.371094-.683594-.429687-.609375-1.105469-1.054688-1.808594-1.195313-.351562-.070312-.636719-.089843-.882812-.058593-.304688.035156-.648438.109374-.648438.132812 0 .011719.367188.382812.808594.828125.445313.441406.820313.824219.835937.851563.015626.027343.011719.066406-.011718.109374-.015625.039063-.0625.136719-.097656.222657-.035157.082031-.082032.1875-.101563.234375-.023437.046875-.105469.246094-.1875.441406l-.152344.359375-.484375.207031c-.265625.113282-.546875.234375-.621094.269532-.078124.035156-.164062.074218-.195312.082031-.046875.015625-.210938-.132813-.890625-.816407-.460937-.460937-.84375-.835937-.851563-.835937-.019531 0-.074218.199219-.113281.417969-.042969.230468-.039062.78125.003907.992187.179687.894531.636718 1.566407 1.398437 2.050781.089844.058594.167969.105469.171875.105469.007812 0 .082031.027344.160156.066407.355469.164062.828125.265624 1.242188.265624.203125 0 .640625-.0625.855468-.125.042969-.011718.148438.078126.515626.445313.25.253906.472656.460937.488281.460937.019531 0 .054687-.042968.078125-.097656zm0 0" fill="#fff"/><path d="m7.695312 19.292969c.140626-.066407.261719-.183594 3.042969-2.9375l.867188-.863281-.015625-.210938c-.035156-.457031.207031-.859375.644531-1.074219.152344-.074219.195313-.082031.453125-.082031l.285156-.003906.207032-.203125c.273437-.273438.335937-.394531.335937-.667969-.003906-.257812-.042969-.34375-.269531-.566406-.089844-.085938-.164063-.167969-.164063-.179688 0-.011718.875-.894531 1.941407-1.960937l1.945312-1.9375.304688-.160157c.886718-.460937.90625-.472656.96875-.59375.054687-.105468.210937-.390624.269531-.492187.027343-.046875.109375-.195313.183593-.332031.074219-.140625.183594-.339844.246094-.445313.0625-.109375.132813-.230469.152344-.273437l.042969-.078125-.964844-.964844-.15625.089844c-.085937.046875-.242187.136719-.347656.191406-.101563.058594-.234375.128906-.292969.160156-.054688.035157-.183594.105469-.28125.160157-.101562.054687-.273438.152343-.386719.21875-.113281.066406-.210937.117187-.222656.117187-.023437 0-.046875.039063-.199219.320313-.066406.125-.140625.261718-.167968.308593-.027344.046875-.113282.207031-.191407.359375l-.148437.28125-1.925782 1.925782c-1.058593 1.0625-1.929687 1.929687-1.9375 1.929687-.007812-.003906-.09375-.078125-.195312-.171875-.21875-.207031-.351562-.273438-.554688-.273438-.242187 0-.414062.089844-.671874.347657l-.226563.222656.019531.15625c.035156.300781-.066406.613281-.273437.851563-.210938.238281-.472657.347656-.84375.34375-.242188 0-.253907.003906-.351563.089843-.054687.050781-.902344.886719-1.886718 1.859375-1.640626 1.621094-1.796876 1.78125-1.867188 1.941406-.097656.207032-.105469.390626-.027344.566407.074219.171875 1.949219 2.035156 2.089844 2.078125.148438.046875.410156.023437.570312-.046875zm0 0" fill="#a43445"/></svg>