<svg height="24pt" viewBox="0 0 24 24" width="24pt" xmlns="http://www.w3.org/2000/svg"><path d="m5.605469 1.421875h12.789062c2.308594 0 4.183594 1.875 4.183594 4.183594v12.789062c0 2.308594-1.875 4.183594-4.183594 4.183594h-12.789062c-2.308594 0-4.183594-1.875-4.183594-4.183594v-12.789062c0-2.308594 1.875-4.183594 4.183594-4.183594zm0 0" fill="#d13232" fill-rule="evenodd"/><g fill="#fff"><path d="m19.902344 14.433594v.605468h-15.804688v-.605468zm0 0"/><path d="m19.902344 16.257812v.605469h-15.804688v-.605469zm0 0"/><path d="m19.902344 18.078125v.609375h-15.804688v-.609375zm0 0"/><path d="m19.902344 8.960938v.605468h-15.804688v-.605468zm0 0"/><path d="m19.902344 10.785156v.605469h-15.804688v-.605469zm0 0"/><path d="m19.902344 12.609375v.605469h-15.804688v-.605469zm0 0"/><path d="m19.902344 7.136719v.605469h-15.804688v-.605469zm0 0"/><path d="m19.902344 5.3125v.609375h-15.804688v-.609375zm0 0"/><path d="m9.566406 19.902344h-.605468v-15.804688h.605468zm0 0"/><path d="m7.742188 19.902344h-.605469v-15.804688h.605469zm0 0"/><path d="m5.921875 19.902344h-.609375v-15.804688h.609375zm0 0"/><path d="m15.039062 19.902344h-.605468v-15.804688h.605468zm0 0"/><path d="m13.214844 19.902344h-.605469v-15.804688h.605469zm0 0"/><path d="m11.390625 19.902344h-.605469v-15.804688h.605469zm0 0"/><path d="m16.863281 19.902344h-.605469v-15.804688h.605469zm0 0"/><path d="m18.6875 19.902344h-.609375v-15.804688h.609375zm0 0"/></g><path d="m19.296875 18.566406v-13.132812c0-.402344-.410156-.730469-.914063-.730469h-12.765624c-.503907 0-.914063.328125-.914063.730469v13.132812c0 .402344.410156.730469.914063.730469h12.765624c.503907 0 .914063-.328125.914063-.730469zm0 0" fill="#b7b7b7"/><path d="m7.136719 6.527344h9.726562c.335938 0 .609375.273437.609375.609375v9.726562c0 .335938-.273437.609375-.609375.609375h-9.726562c-.335938 0-.609375-.273437-.609375-.609375v-9.726562c0-.335938.273437-.609375.609375-.609375zm0 0" fill="#d13232"/></svg>