<svg height="24pt" viewBox="0 0 24 24" width="24pt" xmlns="http://www.w3.org/2000/svg"><path d="m5.605469 1.421875h12.789062c2.308594 0 4.183594 1.875 4.183594 4.183594v12.789062c0 2.308594-1.875 4.183594-4.183594 4.183594h-12.789062c-2.308594 0-4.183594-1.875-4.183594-4.183594v-12.789062c0-2.308594 1.875-4.183594 4.183594-4.183594zm0 0" fill="#768c5a" fill-rule="evenodd"/><g fill="#ffff80"><path d="m7.5 18h9v2.25h-9zm0 0"/><path d="m15 15c0 .828125-.671875 1.5-1.5 1.5s-1.5-.671875-1.5-1.5.671875-1.5 1.5-1.5 1.5.671875 1.5 1.5zm0 0"/><path d="m10.5 3.75h3v3h-3zm0 0"/><path d="m14.25 3.75h3v3h-3zm0 0"/><path d="m18 3.75h3v3h-3zm0 0"/><path d="m3 7.5h3v3h-3zm0 0"/><path d="m10.5 7.5h3v3h-3zm0 0"/><path d="m14.25 7.5h3v3h-3zm0 0"/></g></svg>