<svg height="24pt" viewBox="0 0 24 24" width="24pt" xmlns="http://www.w3.org/2000/svg"><path d="m5.605469 1.421875h12.789062c2.308594 0 4.183594 1.875 4.183594 4.183594v12.789062c0 2.308594-1.875 4.183594-4.183594 4.183594h-12.789062c-2.308594 0-4.183594-1.875-4.183594-4.183594v-12.789062c0-2.308594 1.875-4.183594 4.183594-4.183594zm0 0" fill="#f5b35d" fill-rule="evenodd"/><path d="m12 5.25c-2.070312 0-3.75 1.679688-3.75 3.75s1.679688 3.75 3.75 3.75 3.75-1.679688 3.75-3.75-1.679688-3.75-3.75-3.75zm-5.25 13.5h10.5c0-3.75-2.246094-4.5-5.246094-4.5-3.003906 0-5.253906.75-5.253906 4.5zm0 0" fill="#4d4d4d"/></svg>