<svg height="24pt" viewBox="0 0 24 24" width="24pt" xmlns="http://www.w3.org/2000/svg" xmlns:xlink="http://www.w3.org/1999/xlink"><clipPath id="a"><path d="m0 0h24v24h-24z"/></clipPath><path d="m5.605469 1.421875h12.789062c2.308594 0 4.183594 1.875 4.183594 4.183594v12.789062c0 2.308594-1.875 4.183594-4.183594 4.183594h-12.789062c-2.308594 0-4.183594-1.875-4.183594-4.183594v-12.789062c0-2.308594 1.875-4.183594 4.183594-4.183594zm0 0" fill="#4d4d4d" fill-rule="evenodd"/><g clip-path="url(#a)"><path d="m3.839844 18.265625.007812-6.261719-.007812-3.144531 2.726562-1.558594 5.441406-3.136719 5.441407 3.136719 2.710937 1.558594v9.40625l-2.71875 1.570313-2.722656-1.570313.007812-3.125 2.714844-1.578125v-3.132812l-2.714844-1.5625-2.71875-1.566407-2.71875 1.566407-2.730468 1.5625v3.132812l2.722656 1.570312v3.132813l-2.722656 1.566406zm0 0" fill="#25c65f"/></g></svg>