<svg height="24pt" viewBox="0 0 24 24" width="24pt" xmlns="http://www.w3.org/2000/svg"><g fill-rule="evenodd"><path d="m2.648438 21.351562 18.707031-18.707031c-.757813-.753906-1.800781-1.222656-2.960938-1.222656h-12.789062c-2.316407 0-4.183594 1.867187-4.183594 4.183594v12.789062c0 1.160157.46875 2.203125 1.226563 2.957031zm0 0" fill="#f8b417"/><path d="m12.96875 22.574219v-6.171875h-1.714844v6.171875zm0 0" fill="#ccc"/><path d="m11.757812 12.242188-9.109374 9.109374v.003907c.753906.753906 1.800781 1.222656 2.957031 1.222656h5.648437v-6.175781h1.714844v6.175781h5.425781c1.035157 0 1.945313-.414063 2.671875-1.027344zm0 0" fill="#662c8f"/><path d="m11.757812 12.242188 9.308594 9.308593c.90625-.765625 1.511719-1.871093 1.511719-3.15625v-12.789062c0-1.15625-.46875-2.203125-1.222656-2.960938zm0 0" fill="#02a8d8"/><path d="m18.078125 12.207031c0 3.296875-2.671875 5.96875-5.96875 5.96875s-5.96875-2.671875-5.96875-5.96875 2.671875-5.96875 5.96875-5.96875 5.96875 2.671875 5.96875 5.96875zm0 0" fill="#496220"/><path d="m7.273438 5.105469c-.128907 0-.246094.070312-.3125.179687-.066407.109375-.066407.25-.003907.363282l.859375 1.609374c-1.386718 1.203126-2.207031 2.9375-2.257812 4.773438h13.105468c-.054687-1.835938-.875-3.566406-2.261718-4.769531l.863281-1.613281c.0625-.113282.058594-.253907-.003906-.363282-.066407-.109375-.1875-.179687-.316407-.179687-.136718 0-.261718.074219-.324218.195312l-.804688 1.507813c-1.089844-.75-2.382812-1.15625-3.707031-1.160156-1.324219 0-2.617187.402343-3.707031 1.152343l-.800782-1.5c-.0625-.121093-.191406-.195312-.328124-.195312zm-1.707032 7.574219c.25 3.429687 3.105469 6.085937 6.542969 6.089843 3.4375-.003906 6.289063-2.660156 6.535156-6.089843zm0 0" fill="#92c642"/><path d="m10.558594 9.609375c0 .570313-.460938 1.03125-1.035156 1.03125-.570313 0-1.03125-.460937-1.03125-1.03125 0-.574219.460937-1.035156 1.03125-1.035156.574218 0 1.035156.460937 1.035156 1.035156zm0 0" fill="#fff"/><path d="m15.730469 9.609375c0 .570313-.464844 1.03125-1.035157 1.03125-.570312 0-1.035156-.460937-1.035156-1.03125 0-.574219.464844-1.035156 1.035156-1.035156.570313 0 1.035157.460937 1.035157 1.035156zm0 0" fill="#fff"/></g></svg>