<svg height="24pt" viewBox="0 0 24 24" width="24pt" xmlns="http://www.w3.org/2000/svg"><path d="m5.605469 1.421875h12.789062c2.308594 0 4.183594 1.875 4.183594 4.183594v12.789062c0 2.308594-1.875 4.183594-4.183594 4.183594h-12.789062c-2.308594 0-4.183594-1.875-4.183594-4.183594v-12.789062c0-2.308594 1.875-4.183594 4.183594-4.183594zm0 0" fill="#246e9a" fill-rule="evenodd"/><path d="m12 4.5c-4.140625 0-7.5 3.359375-7.5 7.5s3.359375 7.5 7.5 7.5 7.5-3.359375 7.5-7.5-3.359375-7.5-7.5-7.5zm0 2.25c.832031 0 1.5.601562 1.5 1.351562v6.296876c0 .75-.667969 1.351562-1.5 1.351562s-1.5-.601562-1.5-1.351562v-6.296876c0-.75.667969-1.351562 1.5-1.351562zm-4.5 3c .832031 0 1.5.667969 1.5 1.5v3c0 .832031-.667969 1.5-1.5 1.5s-1.5-.667969-1.5-1.5v-3c0-.832031.667969-1.5 1.5-1.5zm9 0c .832031 0 1.5.667969 1.5 1.5v3c0 .832031-.667969 1.5-1.5 1.5s-1.5-.667969-1.5-1.5v-3c0-.832031.667969-1.5 1.5-1.5zm0 0" fill="#fff"/></svg>