<svg height="24pt" viewBox="0 0 24 24" width="24pt" xmlns="http://www.w3.org/2000/svg"><path d="m22.5 5.226562c-.039062-.433593-.089844-.867187-.25-1.253906-.214844-.5-.519531-.949218-.898438-1.328125-.375-.375-.828124-.683593-1.328124-.894531-.382813-.160156-.816407-.210938-1.25-.25h-6.773438v10.5h10.5zm0 0" fill="#21d789"/><path d="m5.222656 1.5c-.433594.039062-.863281.089844-1.25.25-.5.210938-.949218.519531-1.328125.894531-.375.378907-.683593.828125-.894531 1.328125-.160156.386719-.210938.816406-.25 1.25v6.777344h10.5v-10.5zm0 0" fill="#f7c73c"/><path d="m18.777344 22.5c.433594-.039062.863281-.089844 1.25-.25.5-.210938.949218-.519531 1.328125-.894531.375-.378907.683593-.828125.894531-1.328125.160156-.386719.210938-.816406.25-1.25v-6.777344h-10.5v10.5zm0 0" fill="#2086e7"/><path d="m1.5 18.773438c.039062.433593.089844.867187.25 1.253906.214844.5.519531.949218.898438 1.328125.375.375.828124.683593 1.328124.894531.382813.160156.816407.210938 1.25.25h6.773438v-10.5h-10.5zm0 0" fill="#21d789"/><path d="m7.140625 3.964844h9.71875c1.753906 0 3.175781 1.421875 3.175781 3.175781v9.71875c0 1.753906-1.421875 3.175781-3.175781 3.175781h-9.71875c-1.753906 0-3.175781-1.421875-3.175781-3.175781v-9.71875c0-1.753906 1.421875-3.175781 3.175781-3.175781zm0 0" fill="#3f3f3f" fill-rule="evenodd"/><g fill="none" stroke="#fff" stroke-linecap="round" transform="matrix(.600989 0 0 .600989 -.877301 25.587648)"><path d="m12.931739-15.602135h8.001136"/><path d="m17.930011-21.607861v-8.001136m-5.004772 0 2.495887 3.997318 2.508885-3.997318m-5.004772 8.001136v-8.001136" stroke-linejoin="round"/><path d="m19.93192-25.572681s3.997318.461479 3.997318-2.001909c0-2.463387-3.997318-2.001908-3.997318-2.001908m0 8.001135v-8.001135" stroke-linejoin="bevel"/><path d="m25.924647-22.602316s.506977 1.000954 2.001909 1.000954 2.001909-1.000954 2.001909-2.001909c0-4.211808-4.003818.214491-3.990819-3.990818-.012999-1.007454.474479-2.008408 1.98891-2.008408s2.001909 1.000954 2.001909 1.000954" stroke-linejoin="round"/></g></svg>