<svg height="24pt" viewBox="0 0 24 24" width="24pt" xmlns="http://www.w3.org/2000/svg"><g fill-rule="evenodd"><path d="m5.605469 1.421875h12.789062c2.308594 0 4.183594 1.875 4.183594 4.183594v12.789062c0 2.308594-1.875 4.183594-4.183594 4.183594h-12.789062c-2.308594 0-4.183594-1.875-4.183594-4.183594v-12.789062c0-2.308594 1.875-4.183594 4.183594-4.183594zm0 0" fill="#e45d5d"/><path d="m22.574219 5.898438-10.574219 6.238281v10.4375h6.394531c2.316407.003906 4.179688-1.863281 4.179688-4.179688zm0 0" fill="#e45d5d"/><path d="m12 12.136719-10.574219-6.238281v12.496093c0 2.316407 1.863281 4.183594 4.179688 4.179688h6.394531zm0 0" fill="#ed7d7d"/><path d="m5.605469 1.425781c-2.316407 0-4.179688 1.863281-4.179688 4.179688v.292969l10.574219 6.238281 10.574219-6.238281v-.292969c.003906-2.316407-1.863281-4.179688-4.179688-4.179688zm0 0" fill="#e36d6d"/></g></svg>