<svg height="24pt" viewBox="0 0 24 24" width="24pt" xmlns="http://www.w3.org/2000/svg" xmlns:xlink="http://www.w3.org/1999/xlink"><clipPath id="a"><path d="m0 0h24v24h-24z"/></clipPath><path d="m5.605469 1.421875h12.789062c2.308594 0 4.183594 1.875 4.183594 4.183594v12.789062c0 2.308594-1.875 4.183594-4.183594 4.183594h-12.789062c-2.308594 0-4.183594-1.875-4.183594-4.183594v-12.789062c0-2.308594 1.875-4.183594 4.183594-4.183594zm0 0" fill="#fa9f5a" fill-rule="evenodd"/><g clip-path="url(#a)"><path d="m12 7.101562c-1.902344 0-3.523438 1.128907-4.21875 2.726563-1.769531.257813-3.128906 1.71875-3.128906 3.507813 0 1.96875 1.644531 3.5625 3.671875 3.5625h7.808593c1.777344 0 3.214844-1.394532 3.214844-3.117188 0-1.601562-1.242187-2.910156-2.839844-3.089844-.417968-2.042968-2.277343-3.589844-4.507812-3.589844zm0 0" fill="#fff"/></g><path d="m14.449219 12.488281-3.917969 2.449219v-4.898438zm0 0" fill="#fa9f5a"/></svg>