<svg height="24pt" viewBox="0 0 24 24" width="24pt" xmlns="http://www.w3.org/2000/svg"><g fill-rule="evenodd"><path d="m1.421875 17.566406c1.167969-1.296875 2.34375-2.441406 3.53125-3.375 1.277344-1.003906 2.566406-1.804687 3.875-2.433594 1.304687-.625 2.628906-1.078124 3.96875-1.367187 1.339844-.292969 2.699219-.429687 4.074219-.429687.757812 0 1.710937.339843 2.480468.414062-1.226562-.539062-3.445312-1.78125-6.003906-2.886719-1.28125-.550781-2.644531-1.070312-4.015625-1.449219-1.367187-.382812-2.738281-.625-4.03125-.625-.722656 0-1.414062.023438-2.097656.140626-.59375.097656-1.183594.316406-1.78125.601562zm0 0" fill="#fff"/><path d="m10.257812 12.855469c-.628906.042969-1.238281.179687-1.824218.394531-.585938.210938-1.148438.496094-1.695313.835938-1.09375.675781-2.117187 1.5625-3.09375 2.488281 1.167969-.464844 2.269531-.753907 3.304688-.855469 1.035156-.101562 2.003906-.015625 2.921875.277344.316406.097656 1.261718.523437 2.097656.9375 1.066406.53125 1.859375.886718 2.574219 1.132812.714843.246094 1.347656.382813 2.085937.480469.882813.085937 1.75.023437 2.613282-.125.859374-.148437 1.71875-.375 2.589843-.609375l-2-.707031c-.929687-.398438-2.058593-1.003907-3.671875-1.933594-1.089844-.589844-2.035156-1.207031-2.976562-1.65625-.46875-.226563-.9375-.410156-1.417969-.527344-.484375-.117187-.980469-.171875-1.507813-.132812zm0 0" fill="#7ed1f3"/><path d="m5.605469 1.421875c-2.316407 0-4.183594 1.867187-4.183594 4.183594v.550781c.597656-.285156 1.1875-.503906 1.78125-.601562.683594-.117188 1.375-.140626 2.097656-.140626 1.292969 0 2.664063.242188 4.03125.625 1.371094.378907 2.734375.898438 4.015625 1.449219 2.558594 1.105469 4.777344 2.347657 6.003906 2.886719-.769531-.074219-1.722656-.414062-2.480468-.414062-1.375 0-2.734375.136718-4.074219.425781-1.339844.292969-2.664063.746093-3.96875 1.371093-1.308594.628907-2.597656 1.429688-3.875 2.433594-1.1875.933594-2.363281 2.078125-3.53125 3.375v.828125c0 2.316407 1.867187 4.179688 4.183594 4.179688h12.789062c2.316407 0 4.179688-1.863281 4.179688-4.179688v-12.789062c0-2.316407-1.863281-4.183594-4.179688-4.183594zm4.652343 11.433594c.527344-.039063 1.023438.015625 1.507813.132812.480469.117188.949219.300781 1.417969.527344.941406.449219 1.886718 1.066406 2.976562 1.65625 1.613282.929687 2.742188 1.535156 3.671875 1.933594l2 .707031c-.871093.234375-1.730469.460938-2.589843.609375-.863282.148437-1.730469.210937-2.613282.125-.738281-.097656-1.371094-.234375-2.085937-.480469-.714844-.246094-1.507813-.601562-2.574219-1.132812-.835938-.414063-1.78125-.839844-2.097656-.9375-.917969-.292969-1.886719-.378906-2.921875-.277344-1.035157.101562-2.136719.390625-3.304688.855469.976563-.925781 2-1.8125 3.09375-2.488281.546875-.339844 1.109375-.625 1.695313-.835938.585937-.214844 1.195312-.351562 1.824218-.394531zm0 0" fill="#0286c2"/></g></svg>