<svg height="24pt" viewBox="0 0 24 24" width="24pt" xmlns="http://www.w3.org/2000/svg"><g fill-rule="evenodd"><path d="m5.605469 1.421875h12.789062c2.308594 0 4.183594 1.875 4.183594 4.183594v12.789062c0 2.308594-1.875 4.183594-4.183594 4.183594h-12.789062c-2.308594 0-4.183594-1.875-4.183594-4.183594v-12.789062c0-2.308594 1.875-4.183594 4.183594-4.183594zm0 0" fill="#5a4080"/><path d="m13.421875 22.574219c.125-.539063.265625-1.03125.316406-1.738281.074219-1.066407.0625-2.113282-.03125-2.515626-.125-.492187-.449219-1.378906-.429687-1.410156.023437-.035156.550781.015625 1 .015625.53125 0 .917968.019531 1.199218-.0625.238282-.074219.523438-.191406.691407-.183593.375.019531.800781-.054688 1.160156-.21875.363281-.164063.664063-.414063.789063-.75.078124-.207032.402343-.472657.488281-.59375.140625-.191407.214843-.351563.125-.660157-.128907-.429687-.648438-.683593-1.203125-1.1875-.417969-.382812-.625-.425781-.648438-.832031-.015625-.300781.066406-.511719-.097656-.664062-.183594-.175782-.652344-.0625-.683594-.066407-.097656-.113281-.191406-.226562-.214844-.355469-.027343-.128906.015626-.269531.195313-.429687.269531-.25.425781-.359375.425781-.628906 0-.265625-.15625-.34375-.390625-.546875-.15625-.136719-.320312-.246094-.371093-.246094-.046876 0-.296876-.199219-.550782-.441406-.246094-.234375-.457031-.332032-.652344-.375-.195312-.042969-.378906-.023438-.570312-.023438-.152344 0-.269531-.078125-.347656-.207031-.078125-.132813-.117188-.320313-.117188-.542969.207032-.75.613282-1.410156 1.046875-1.933594.433594-.519531.894531-.894531 1.203125-1.066406-.785156-.113281-1.460937.027344-2.074218.3125-.609376.28125-1.15625.714844-1.675782 1.1875-.046875-.550781.691406-1.894531.75-2.25-.554687.289063-.992187.792969-1.351562 1.347656-.359375.550782-.644532 1.15625-.898438 1.652344-.316406-.433594-.25-1.339844-.375-1.875-.488281.644532-.84375 1.523438-1.125 2.402344-.277344.878906-.484375 1.761719-.683594 2.40625-.28125.917969-.597656 1.664062-.972656 2.257812-.378906.59375-.808594 1.039063-1.320312 1.367188-.605469.390625-1.148438.589844-2.320313.855469-.183593.054687-1.347656.464843-2.285156.789062v3.03125c0 2.316407 1.867187 4.183594 4.183594 4.183594zm0 0" fill="#7abccb"/><path d="m5.605469 1.425781c-2.316407 0-4.183594 1.863281-4.183594 4.179688v9.757812c.9375-.324219 2.101563-.734375 2.285156-.789062 1.171875-.265625 1.714844-.464844 2.320313-.855469.511718-.328125.941406-.773438 1.320312-1.367188.375-.59375.691406-1.339843.972656-2.257812.199219-.644531.40625-1.527344.683594-2.40625.28125-.878906.636719-1.757812 1.125-2.402344.125.535156.058594 1.441406.375 1.875.253906-.496094.539063-1.101562.898438-1.652344.359375-.554687.796875-1.058593 1.351562-1.347656-.058594.355469-.796875 1.699219-.75 2.25.519532-.472656 1.066406-.90625 1.675782-1.1875.613281-.285156 1.289062-.425781 2.074218-.3125-.308594.171875-.769531.546875-1.203125 1.066406-.433593.523438-.839843 1.183594-1.046875 1.933594 0 .222656.039063.410156.117188.542969.078125.128906.195312.207031.347656.207031.191406 0 .375-.019531.570312.023438.195313.042968.40625.140625.652344.375.253906.242187.503906.441406.550782.441406.050781 0 .214843.109375.371093.246094.234375.203125.390625.28125.390625.546875 0 .269531-.15625.378906-.425781.628906-.179687.160156-.222656.300781-.195313.429687.023438.128907.117188.242188.214844.355469.03125.003907.5-.109375.683594.066407.164062.152343.082031.363281.097656.664062.023438.40625.230469.449219.648438.832031.554687.503907 1.074218.757813 1.203125 1.1875.089843.308594.015625.46875-.125.660157-.085938.121093-.410157.386718-.488281.59375-.125.335937-.425782.585937-.789063.75-.359375.164062-.785156.238281-1.160156.21875-.167969-.007813-.453125.109374-.691407.183593-.28125.082031-.667968.0625-1.199218.0625-.449219 0-.976563-.050781-1-.015625-.019532.03125.304687.917969.429687 1.410156.09375.402344.105469 1.449219.03125 2.515626-.050781.707031-.191406 1.199218-.316406 1.738281h4.972656c2.316407 0 4.183594-1.863281 4.183594-4.179688v-12.789062c0-2.316407-1.867187-4.179688-4.183594-4.179688zm0 0" fill="#5a4080"/></g></svg>