<svg height="24pt" viewBox="0 0 24 24" width="24pt" xmlns="http://www.w3.org/2000/svg" xmlns:xlink="http://www.w3.org/1999/xlink"><filter id="a" height="100%" width="100%" x="0%" y="0%"><feColorMatrix in="SourceGraphic" type="matrix" values="0 0 0 0 1 0 0 0 0 1 0 0 0 0 1 0 0 0 1 0"/></filter><mask id="b"><g filter="url(#a)"><path d="m0 0h24v24h-24z" fill-opacity=".988235"/></g></mask><clipPath id="c"><path d="m0 0h24v24h-24z"/></clipPath><path d="m5.605469 1.421875h12.789062c2.308594 0 4.183594 1.875 4.183594 4.183594v12.789062c0 2.308594-1.875 4.183594-4.183594 4.183594h-12.789062c-2.308594 0-4.183594-1.875-4.183594-4.183594v-12.789062c0-2.308594 1.875-4.183594 4.183594-4.183594zm0 0" fill="#007eff" fill-rule="evenodd"/><path d="m11.691406 18.507812c-1.324218-.058593-2.582031-.546874-3.617187-1.410156-.171875-.144531-.484375-.453125-.644531-.632812-.640626-.726563-1.097657-1.597656-1.328126-2.53125-.160156-.648438-.214843-1.292969-.160156-1.964844.011719-.167969.039063-.382812.046875-.390625.003907-.003906.039063.003906.074219.011719.039062.011718.117188.019531.179688.019531h.105468l.109375.109375.109375.105469h.210938l.003906.402343.003906.398438v-.398438l.003906-.402343.214844.109375c.210938.105468.21875.113281.320313.214844l.101562.101562h.441407l.097656.109375.101562.109375h.445313v.210938l-.113281.117187-.113282.113281-.105468.316406-.105469.320313.109375.222656.113281.21875.414063.421875h.441406v.433594l.4375.875v.433594l.105468.210937c.085938.171875.125.265625.210938.53125l.109375.320313.109375.113281.113281.109375h.4375l-.113281-.109375c-.105469-.109375-.113281-.117187-.214844-.324219l-.105468-.214844.105468-.320312.109375-.324219.214844-.105469.214844-.109374v-.648438l.4375-.21875v-.433594l.429687-.21875.109375-.324218.105469-.324219-.105469-.21875-.109375-.214844-.222656-.113281c-.21875-.109375-.226562-.113282-.328125-.21875l-.101563-.101563h-.214843l-.105469-.214843-.109375-.214844-.214844-.109375-.210937-.105469h-.441406l-.210938.210938-.109375-.214844-.105469-.214844h-.4375l-.21875.21875h-.429687v-.222656l-.21875-.21875v-.210938h-.210938l-.105469.101563c-.054687.058593-.105468.105469-.109374.105469 0 0-.050782-.09375-.105469-.207032l-.105469-.207031.21875-.21875h.625l.21875.109375.222656.109375.441406-.441406.210938-.851563.21875-.21875.21875-.222656h.636719v-.210938c0-.117187.003906-.214843.003906-.214843.003906 0 .148437.050781.328125.109375l.320312.109375.433594-.433594h-.210937l-.113281-.226563c-.113282-.222656-.117188-.230468-.21875-.328124l-.101563-.101563-.4375.21875h-.867187l-.109376.214844-.105468.214843-.210938-.210937h-.210937v-.433594l.316406-.105469.320313-.105468.101562.105468c.058594.054688.113281.101563.121094.101563.007812 0 .15625-.046875.328125-.101563l.308593-.105468h.222657c.121093 0 .21875-.003906.21875-.003906 0-.003907-.046875-.101563-.105469-.214844-.101562-.207032-.105469-.214844-.214844-.324219l-.109375-.109375h-.4375l-.105469.105469c-.105468.105469-.109374.109375-.324218.214843l-.21875.109376-.109375-.113282c-.109375-.105468-.121094-.113281-.3125-.210937l-.203125-.101563-.109375-.003906-.109375-.007812.105468-.066407c.839844-.558593 1.792969-.890625 2.828126-.984375.207031-.019531.765624-.019531.976562 0 1.0625.09375 2.027344.425782 2.867188.992188l.109374.070312.003907.320313.003906.324219.105469.105468c.105468.105469.109375.109375.324218.214844l.214844.109375-.105468.109375-.109376.109375h-.4375l-.210937.210937v.425782l-.105469-.105469-.105468-.109375h-.4375l-.21875.4375.21875.4375h.4375l.101562-.105469c.101562-.101562.109375-.105469.328125-.214843.21875-.113282.226563-.117188.328125-.21875l.101562-.105469.105469.210937.105469.207032v.21875l.222656.222656.4375-.21875-.214844-.214844-.214843-.210938.105469-.109374.109374-.105469.429688.429687v.214844h.210938l.21875.21875h.246093l.023438.066406c.046875.117188.09375.257813.132812.398438.023438.074218.042969.144531.046875.15625.003906.019531-.011718.019531-.21875.019531h-.226562l-.214844-.109375-.21875-.109375-.222656.113281c-.214844.105469-.222656.109375-.328125.214844l-.105469.101562-.207031-.101562c-.203125-.101562-.207031-.105469-.316407-.214844l-.113281-.113281h-.660156l-.21875.109375-.214844.109375h-.433593l-.105469.105469-.105469.109375v.652343l-.21875.21875v.640626l.21875.65625.210938.105468.214843.105469h.445313l.4375-.21875h.414062l.21875.109375.214844.109375v.425781l.113281.21875.109375.222656-.21875.214844-.214844.214844.214844.433594.214844.429687v.429688l.136719.132812.132812.136719-.027343.03125c-.273438.296875-.453126.472656-.691407.671875-.925781.769531-2.039062 1.242187-3.234375 1.367187-.152344.015626-.609375.042969-.675781.039063-.015625 0-.121094-.003906-.230469-.007813zm-4.894531-5.664062c-.003906-.007812-.007813-.003906-.007813.007812 0 .011719.003907.019532.007813.015626.003906-.003907.003906-.011719 0-.023438zm3.988281-2.640625.109375-.109375-.117187-.113281-.113282-.113281.21875.226562-.109374.105469-.105469.105469-.109375-.109376-.113282-.109374.109376.113281c.058593.0625.109374.113281.113281.113281.003906 0 .054687-.050781.117187-.109375zm.433594-.21875.105469-.105469-.007813-.226562-.003906.113281v.117187l-.105469.101563-.101562.101563-.109375-.109376-.109375-.105468v-.109375l-.003907-.109375-.003906.105468-.003906.109376.113281.113281c.058594.0625.113281.113281.117188.113281.003906 0 .054687-.050781.113281-.109375zm3.019531-1.078125.109375-.109375-.113281-.113281-.117187-.113282.21875.226563-.210938.210937-.105469-.101562-.101562-.105469-.003907-.113281v-.117188l-.003906.117188-.003906.113281.105469.105469c.058593.058594.109375.109375.113281.109375s.054688-.050781.113281-.109375zm.558594.039062c.007813-.019531.015625-.035156.011719-.035156s-.015625.015625-.023438.035156c-.011718.019532-.015625.035157-.011718.035157 0 0 .011718-.015625.023437-.035157zm.066406-.125c.011719-.019531.015625-.035156.011719-.035156 0 0-.011719.015625-.023438.035156-.007812.015626-.011718.03125-.011718.03125.003906 0 .015625-.015624.023437-.03125zm-.40625-.132812-.109375-.109375.210938-.210937.207031.105468c.113281.058594.210937.105469.214844.105469.007812 0-.085938-.050781-.207031-.109375l-.214844-.109375-.113282.109375-.109374.109375.109374.109375c.058594.058594.113282.109375.113282.109375.003906 0-.042969-.050781-.101563-.109375zm.472657.015625c.011718-.023437.019531-.046875.015624-.046875-.003906 0-.015624.023438-.027343.046875-.015625.027344-.023438.046875-.019531.046875.003906 0 .015624-.019531.03125-.046875zm.054687-.109375c-.003906-.003906-.011719.003906-.015625.015625-.007812.015625-.003906.015625.007812.003906.007813-.007812.011719-.015625.007813-.019531zm0 0" fill="#52a8ea"/><g fill="none" stroke="#fff" transform="matrix(.641761 0 0 .641761 1.709675 1.785232)"><path d="m25.408124 6.04404c-.383466 3.29294-.237383 6.482405-.048694 9.647523.024347.286078.042608.596503.042608.906928 0 5.198097-4.218129 9.416225-9.416226 9.416225s-9.416226-4.218128-9.416226-9.416225c0-5.204184 4.218129-9.416226 9.501441-9.428399 3.262506-.115649 6.555446-.255644 9.337097-1.126052zm0 0" stroke-miterlimit="4.5" stroke-width="1.069"/><path d="m6.624367 15.253316c3.04947-8.673641 17.079463-7.158036 18.710716.45042" stroke-opacity=".74902" stroke-width=".10965"/><path d="m9.351238 23.318279c3.323374 1.046924 11.662242-5.898075 14.078688-12.465694 1.838203-4.997235 1.679947-4.139001 1.978198-4.808545" stroke-miterlimit="4.5" stroke-opacity=".988235" stroke-width="1.069"/><g stroke-width=".10965"><g stroke-dasharray=".657899 .657899" stroke-opacity=".647059"><path d="m8.943425 22.916553c-.17043-3.299027 3.079903-7.20673 6.841524-10.219679 7.01804-5.618084 10.158811-6.518925 9.623175-6.652834"/><path d="m15.352788 26.020803c11.382251-1.126051 10.864876-15.162132 3.579018-18.284642"/><path d="m10.105997 9.221331c3.822488-.20695 15.009963 8.819723 12.356133 14.157816"/></g><path d="m9.004292 10.237821c-1.272133 5.368527 10.444889 15.515165 13.457838 13.141326" stroke-opacity=".619608"/><path d="m6.691322 18.053228c2.562528 7.024127 16.769038 8.424083 18.668108-1.107792" stroke-dasharray=".657899 .657899" stroke-opacity=".647059"/></g></g><g clip-path="url(#c)" mask="url(#b)"><path d="m16.217109 7.206612c4.650289.103475 8.497124 3.731187 9.130148 8.235393" style="fill:none;stroke-width:.109435;stroke-linecap:round;stroke-linejoin:bevel;stroke:#fff;stroke-opacity:.552941" transform="matrix(.641761 0 0 .641761 1.709675 1.785232)"/></g><path d="m7.710938 16.75c7.09375-1.535156 8.167968-6.625 10.304687-11.085938-.050781 4.269532.476563 9.449219-1.464844 10.742188-3.953125 3.339844-6.496093 2.160156-8.839843.34375zm0 0" fill="#fff"/><path d="m7.710938 16.75c7.59375-.894531 8.3125-6.765625 10.304687-11.085938-3.476563 1.128907-7.355469.128907-9.269531 1.839844-4.164063 3.160156-2.789063 7.707032-1.035156 9.246094zm0 0" fill="#fff"/><path d="m10.21875 13.839844h3.851562v3.027344h-3.851562zm0 0" fill="#999"/><g fill="#4d4d4d"><path d="m10.136719 8.113281h4.015625c.476562 0 .863281.386719.863281.867188v4.605469c0 .480468-.386719.867187-.863281.867187h-4.015625c-.476563 0-.863281-.386719-.863281-.867187v-4.605469c0-.480469.386718-.867188.863281-.867188zm0 0"/><path d="m10.828125 15.734375h1.027344v.582031h-1.027344zm0 0"/><path d="m12.433594 15.734375h1.027344v.582031h-1.027344zm0 0"/></g></svg>