<svg height="24pt" viewBox="0 0 24 24" width="24pt" xmlns="http://www.w3.org/2000/svg"><path d="m5.605469 1.421875h12.789062c2.308594 0 4.183594 1.875 4.183594 4.183594v12.789062c0 2.308594-1.875 4.183594-4.183594 4.183594h-12.789062c-2.308594 0-4.183594-1.875-4.183594-4.183594v-12.789062c0-2.308594 1.875-4.183594 4.183594-4.183594zm0 0" fill="#d5b380" fill-rule="evenodd"/><path d="m5.001708 21.5h3.697917c2.088542 0 2.802083-.697917 2.802083-2.098958 0-5.8125-5-.010417-5-5.802084-.020833-1.40625.083334-2.098958 2.197917-2.098958h4.302083" fill="none" stroke="#ff4141" stroke-width="3" transform="matrix(.75 0 0 .75 .002625 -1.125)"/><path d="m20.001708 15.5h7m-3.5 7.5v-7.5" fill="none" stroke="#fff" stroke-width="3" transform="matrix(.75 0 0 .75 .002625 -1.125)"/><g fill="#353535"><path d="m12.003906 10.875h.75v2.25h-.75zm0 0"/><path d="m12.003906 7.875h.75v2.25h-.75zm0 0"/><path d="m12.003906 4.875h.75v2.25h-.75zm0 0"/><path d="m12.003906 16.875h.75v2.25h-.75zm0 0"/><path d="m12.003906 13.875h.75v2.25h-.75zm0 0"/></g></svg>