<svg height="24pt" viewBox="0 0 24 24" width="24pt" xmlns="http://www.w3.org/2000/svg"><path d="m5.605469 1.421875h12.789062c2.308594 0 4.183594 1.875 4.183594 4.183594v12.789062c0 2.308594-1.875 4.183594-4.183594 4.183594h-12.789062c-2.308594 0-4.183594-1.875-4.183594-4.183594v-12.789062c0-2.308594 1.875-4.183594 4.183594-4.183594zm0 0" fill="#0086ff" fill-rule="evenodd"/><path d="m9.832031 18.738281c.457031-.324219.246094-.824219-.753906-1.796875-.800781-.78125-1.074219-1.289062-1.078125-2.015625 0-.457031.039062-.5625.332031-.839843.453125-.429688.890625-.636719 1.710938-.808594 1.003906-.214844.945312-.253906.945312.640625 0 .671875.03125.828125.222657 1.03125.433593.464843.769531.347656 2.328124-.8125 4.757813-3.53125 4.558594-3.355469 4.558594-3.992188 0-.496093-.101562-.597656-2.042968-2.039062-4.363282-3.242188-4.09375-3.066407-4.484376-2.917969-.492187.1875-.582031.378906-.582031 1.25v.816406h-.402343c-.222657 0-.71875.097656-1.105469.214844-2.277344.703125-3.570313 2.691406-3.578125 5.503906-.003906 1.261719.183594 2.046875.800781 3.300782.546875 1.113281 1.242187 1.859374 2.148437 2.3125.726563.363281.683594.355468.980469.152343zm0 0" fill="#fff"/></svg>