<svg height="24pt" viewBox="0 0 24 24" width="24pt" xmlns="http://www.w3.org/2000/svg"><path d="m5.605469 1.421875h12.789062c2.308594 0 4.183594 1.875 4.183594 4.183594v12.789062c0 2.308594-1.875 4.183594-4.183594 4.183594h-12.789062c-2.308594 0-4.183594-1.875-4.183594-4.183594v-12.789062c0-2.308594 1.875-4.183594 4.183594-4.183594zm0 0" fill="#37a0f2" fill-rule="evenodd"/><path d="m18 12.011719-4.125 1.113281-5.375 4.125 2.367188-4.125-3.367188-.375-1.5 1.5.75-2.25-.75-2.25 1.5 1.5 3.382812-.375-2.382812-4.125 5.375 4.125zm0 0" fill="#fff"/></svg>