<svg height="24pt" viewBox="0 0 24 24" width="24pt" xmlns="http://www.w3.org/2000/svg" xmlns:xlink="http://www.w3.org/1999/xlink"><filter id="a" height="100%" width="100%" x="0%" y="0%"><feColorMatrix in="SourceGraphic" type="matrix" values="0 0 0 0 1 0 0 0 0 1 0 0 0 0 1 0 0 0 1 0"/></filter><mask id="b"><g filter="url(#a)"><path d="m0 0h24v24h-24z" fill-opacity=".2"/></g></mask><clipPath id="c"><path d="m0 0h24v24h-24z"/></clipPath><mask id="d"><g filter="url(#a)"><path d="m0 0h24v24h-24z" fill-opacity=".2"/></g></mask><clipPath id="e"><path d="m0 0h24v24h-24z"/></clipPath><path d="m5.605469 1.421875h12.789062c2.308594 0 4.183594 1.875 4.183594 4.183594v12.789062c0 2.308594-1.875 4.183594-4.183594 4.183594h-12.789062c-2.308594 0-4.183594-1.875-4.183594-4.183594v-12.789062c0-2.308594 1.875-4.183594 4.183594-4.183594zm0 0" fill="#9f3830" fill-rule="evenodd"/><path d="m12 4.542969c-2.226562.0625-4.71875.40625-6.640625.898437-.523437.136719-.71875.210938-.816406.355469v12.953125c0 .464844 2.796875.695312 3.25.707031.480469-.011719 2.609375-.242187 2.609375-.707031v-1.425781h3.195312v1.425781c0 .464844 2.128906.695312 2.609375.707031.453125-.011719 3.25-.242187 3.25-.707031v-12.953125c-.097656-.144531-.292969-.21875-.816406-.355469-1.921875-.492187-4.414063-.835937-6.640625-.898437zm0 0" fill="#e84343"/><path d="m7.753906 10.667969c.644532-.0625.644532-.070313 1.792969-.167969.125-.363281.238281-.578125-.214844-1.253906-.5-.753906-1.304687-.429688-1.628906.140625-.277344.636719-.203125 1.039062.050781 1.28125m0 0" fill="#2f2f2f"/><path d="m8.804688 9.550781c0 .144531-.117188.265625-.265626.265625-.148437 0-.265624-.121094-.265624-.265625s.117187-.265625.265624-.265625c.148438 0 .265626.121094.265626.265625m0 0" fill="#fff"/><g clip-path="url(#c)" mask="url(#b)"><path d="m14.296875 10.929688c.65625.011718 1.609375 0 1.691406 0 .265625-.191407.453125-.925782-.015625-1.652344-.519531-.808594-1.355468-.460938-1.691406.152344-.289062.6875-.09375 1.140624.015625 1.496093"/></g><path d="m14.296875 10.398438c.65625.011718 1.609375-.003907 1.691406-.003907.265625-.1875.453125-.925781-.015625-1.648437-.519531-.808594-1.355468-.460938-1.691406.148437-.289062.6875-.09375 1.140625.015625 1.5" fill="#2f2f2f"/><path d="m15.195312 9.070312c0 .148438-.121093.265626-.265624.265626-.148438 0-.265626-.117188-.265626-.265626 0-.144531.117188-.265624.265626-.265624.144531 0 .265624.121093.265624.265624m0 0" fill="#fff"/><path d="m7.738281 11.636719c2.832031-.179688 5.667969-.269531 8.523438 0-.472657 2.933593-2.191407 2.96875-3.90625 3.015625-1.929688.125-4.273438-.761719-4.617188-3.015625m0 0" fill="#2f2f2f"/><path d="m8.273438 12.585938c.035156.164062-.058594.332031.097656.4375.957031.636718 2.757812 1.082031 3.976562 1.105468 1.617188.007813 2.890625-.285156 3.324219-.839844.097656-.125.035156-.535156.042969-.714843l-.910156-.023438.910156-.082031v-.433594h-4.246094l-.003906.496094h-1.058594l-.007812-.53125h-2.125l.003906.511719.699218.023437" fill="#fff"/><g clip-path="url(#e)" mask="url(#d)"><path d="m7.214844 11.132812v.019532c-.007813.023437-.007813.050781 0 .078125.007812.03125.027344.054687.046875.082031.082031.085938.203125.140625.324219.152344.125.011718.519531-.015625.632812-.066406.097656-.046876.179688-.113282.277344-.160157.09375-.046875.195312-.070312.304687-.074219.15625-.007812.308594.027344.46875.011719.078125-.003906.152344-.027343.214844-.066406.03125-.019531.0625-.046875.082031-.074219.019532-.03125.035156-.0625.035156-.101562.003907-.042969-.007812-.082032-.027343-.121094s-.050781-.074219-.082031-.101562c-.070313-.058594-.152344-.101563-.234376-.148438-.039062-.027344-.085937-.054688-.136718-.070312-.0625-.015626-.128906-.003907-.191406-.011719-.070313-.007813-.132813-.03125-.199219-.046875-.128907-.035156-.273438-.039063-.410157-.015625-.132812.019531-.261718.070312-.378906.136719-.109375.0625-.480468.144531-.53125.253906-.007812.019531-.015625.042968-.027344.066406-.039062.09375-.097656.179688-.167968.257812"/></g><path d="m7.214844 10.597656v.019532c-.007813.027343-.007813.054687 0 .078124.007812.03125.027344.058594.046875.082032.082031.089844.203125.140625.324219.15625.125.011718.519531-.015625.632812-.070313.097656-.046875.179688-.109375.277344-.160156.09375-.042969.195312-.066406.304687-.074219.15625-.003906.308594.03125.46875.015625.078125-.007812.152344-.027343.214844-.066406.03125-.023437.0625-.046875.082031-.074219.019532-.035156.035156-.066406.035156-.101562.003907-.042969-.007812-.085938-.027343-.121094-.019531-.039062-.050781-.074219-.082031-.101562-.070313-.058594-.152344-.101563-.234376-.152344-.039062-.023438-.085937-.054688-.136718-.066406-.0625-.015626-.128906-.007813-.191406-.015626-.070313-.003906-.132813-.03125-.199219-.046874-.128907-.035157-.273438-.035157-.410157-.015626-.132812.023438-.261718.074219-.378906.140626-.109375.0625-.480468.144531-.53125.253906-.007812.019531-.015625.042968-.027344.0625-.039062.09375-.097656.183594-.167968.257812" fill="#cd5d82"/><path d="m8.695312 5.539062.625-.421874c.113282-.078126.269532-.035157.339844.078124l.34375.683594 1.074219 1.601563c.078125.113281-.15625.347656-.269531.417969l-.519532.335937c-.113281.074219-.269531.035156-.339843-.082031l-.648438-1.21875-.773437-1.0625c-.078125-.109375.054687-.253906.167968-.332032zm0 0" fill="#e6e6e6"/><path d="m10.933594 5.253906.484375.574219c.085937.101563.054687.257813-.054688.335937l-.667969.390626-1.539062 1.1875c-.109375.082031-.367188-.128907-.449219-.234376l-.386719-.476562c-.082031-.105469-.054687-.257812.054688-.335938l1.1875-.734374 1.019531-.84375c.105469-.085938.261719.03125.351563.136718zm0 0" fill="#efefef"/></svg>