<svg height="24pt" viewBox="0 0 24 24" width="24pt" xmlns="http://www.w3.org/2000/svg"><path d="m5.605469 1.421875h12.789062c2.308594 0 4.183594 1.875 4.183594 4.183594v12.789062c0 2.308594-1.875 4.183594-4.183594 4.183594h-12.789062c-2.308594 0-4.183594-1.875-4.183594-4.183594v-12.789062c0-2.308594 1.875-4.183594 4.183594-4.183594zm0 0" fill="#d99800" fill-rule="evenodd"/><path d="m12 3.769531-2.410156 2.410157h-3.410156v3.410156l-2.410157 2.410156 2.410157 2.410156v3.410156h3.410156l2.410156 2.410157 2.410156-2.410157h3.410156v-3.410156l2.410157-2.410156-2.410157-2.410156v-3.410156h-3.410156zm0 0" fill="#fec006"/><path d="m8.851562 4.394531-1.308593 3.152344-3.148438 1.304687 1.304688 3.148438-1.304688 3.148438 3.148438 1.304687 1.308593 3.152344 3.148438-1.304688 3.148438 1.304688 1.304687-3.152344 3.152344-1.304687-1.304688-3.148438 1.300781-3.152344-3.148437-1.304687-1.304687-3.148438-3.148438 1.304688zm0 0" fill="#fecd38"/><path d="m18.332031 12c0-3.496094-2.835937-6.332031-6.332031-6.332031s-6.332031 2.835937-6.332031 6.332031 2.835937 6.332031 6.332031 6.332031 6.332031-2.835937 6.332031-6.332031zm0 0" fill="#4d4d4d"/></svg>