<svg height="24pt" viewBox="0 0 24 24" width="24pt" xmlns="http://www.w3.org/2000/svg" xmlns:xlink="http://www.w3.org/1999/xlink"><filter id="a" height="100%" width="100%" x="0%" y="0%"><feColorMatrix in="SourceGraphic" type="matrix" values="0 0 0 0 1 0 0 0 0 1 0 0 0 0 1 0 0 0 1 0"/></filter><mask id="b"><g filter="url(#a)"><path d="m0 0h24v24h-24z" fill-opacity=".501961"/></g></mask><clipPath id="c"><path d="m0 0h24v24h-24z"/></clipPath><path d="m5.605469 1.421875h12.789062c2.308594 0 4.183594 1.875 4.183594 4.183594v12.789062c0 2.308594-1.875 4.183594-4.183594 4.183594h-12.789062c-2.308594 0-4.183594-1.875-4.183594-4.183594v-12.789062c0-2.308594 1.875-4.183594 4.183594-4.183594zm0 0" fill="#ccc" fill-rule="evenodd"/><path d="m12 7.007812c-1.9375 0-3.589844 1.152344-4.300781 2.78125-1.804688.257813-3.1875 1.75-3.1875 3.574219 0 2.003907 1.675781 3.628907 3.742187 3.628907h7.957032c1.8125 0 3.277343-1.421876 3.277343-3.175782 0-1.632812-1.265625-2.96875-2.894531-3.148437-.425781-2.082031-2.320312-3.660157-4.59375-3.660157zm0 0" fill="#666"/><g clip-path="url(#c)" mask="url(#b)"><path d="m11 10.003906h2c .996094 0 .996094.996094.996094.996094v3.996094h-.996094v-1.5h-2v1.5h-.996094v-3.996094c0-.996094.996094-.996094.996094-.996094zm0 .996094v1.5h2v-1.5zm0 0" fill="#fff"/></g></svg>