<svg height="24pt" viewBox="0 0 24 24" width="24pt" xmlns="http://www.w3.org/2000/svg"><path d="m5.605469 1.421875h12.789062c2.308594 0 4.183594 1.875 4.183594 4.183594v12.789062c0 2.308594-1.875 4.183594-4.183594 4.183594h-12.789062c-2.308594 0-4.183594-1.875-4.183594-4.183594v-12.789062c0-2.308594 1.875-4.183594 4.183594-4.183594zm0 0" fill="#c2352a" fill-rule="evenodd"/><path d="m17.097656 5.625c-.273437 0-.546875.058594-.765625.171875-.320312.164063-.644531.515625-.785156.851563-.152344.359374-.175781.992187-.046875 1.328124.054688.140626.148438.386719.207031.542969.136719.351563.183594 1.128907.097657 1.566407-.097657.492187-.398438 1.058593-.75 1.414062-1.058594 1.070312-2.660157 1.089844-3.710938.042969-.363281-.359375-.414062-.445313-2.050781-3.4375-.558594-1.015625-1.054688-1.863281-1.160157-1.976563-.324218-.351562-.777343-.476562-1.191406-.480468-.890625-.011719-1.507812.699218-1.65625 1.464843-.105468.613281-.15625.507813 2.722656 5.753907 1.816407 3.3125 2.679688 4.839843 2.820313 4.992187.5.53125 1.214844.664063 1.882813.347656.175781-.085937.375-.234375.503906-.378906.25-.28125 5.398437-9.632813 5.480468-9.957031.089844-.335938.066407-.816406-.050781-1.148438-.148437-.410156-.550781-.832031-.949219-.992187-.179687-.070313-.386718-.105469-.597656-.105469zm0 0" fill="#fff"/></svg>