<svg height="24pt" viewBox="0 0 24 24" width="24pt" xmlns="http://www.w3.org/2000/svg"><path d="m5.605469 1.421875h12.789062c2.308594 0 4.183594 1.875 4.183594 4.183594v12.789062c0 2.308594-1.875 4.183594-4.183594 4.183594h-12.789062c-2.308594 0-4.183594-1.875-4.183594-4.183594v-12.789062c0-2.308594 1.875-4.183594 4.183594-4.183594zm0 0" fill="#6184a6" fill-rule="evenodd"/><g fill="#fff"><path d="m11.949219 13.207031h.8125s.25-.027343.375-.167969c.113281-.128906.113281-.371093.113281-.371093s-.019531-1.136719.492188-1.300781c.5-.164063 1.140624 1.09375 1.824218 1.578124.515625.367188.90625.289063.90625.289063l1.824219-.027344s.953125-.0625.5-.835937c-.035156-.066406-.261719-.578125-1.355469-1.625-1.140625-1.101563-.988281-.921875.386719-2.824219.839844-1.15625 1.175781-1.863281 1.070313-2.167969-.097657-.289062-.714844-.210937-.714844-.210937l-2.054688.011719s-.152344-.019532-.265625.050781c-.109375.066406-.179687.226562-.179687.226562s-.324219.898438-.757813 1.660157c-.914062 1.605468-1.28125 1.691406-1.429687 1.589843-.347656-.230469-.261719-.933593-.261719-1.433593 0-1.554688.230469-2.207032-.445313-2.375-.222656-.054688-.386718-.09375-.957031-.097657-.730469-.007812-1.351562.003907-1.703125.179688-.234375.117187-.414062.382812-.304687.398437.136719.019532.445312.085938.605469.316406.210937.296876.203124.960938.203124.960938s.121094 1.832031-.28125 2.0625c-.277343.15625-.65625-.164062-1.472656-1.621094-.414062-.75-.730468-1.574218-.730468-1.574218s-.0625-.152344-.171876-.238282c-.128906-.097656-.3125-.128906-.3125-.128906l-1.953124.011719s-.292969.007812-.398438.140625c-.097656.117187-.007812.359375-.007812.359375s1.527343 3.703125 3.257812 5.566406c1.585938 1.710937 3.386719 1.597656 3.386719 1.597656" fill-rule="evenodd"/><path d="m6.855469 17.769531c0 .164063-.027344.308594-.085938.441407-.054687.128906-.132812.238281-.242187.332031-.105469.089843-.234375.160156-.390625.210937-.152344.046875-.332031.074219-.53125.074219-.175781 0-.34375-.019531-.507813-.054687-.160156-.039063-.3125-.09375-.449218-.164063v-.714844c.078124.039063.160156.074219.238281.113281.082031.035157.164062.066407.246093.09375.085938.027344.167969.050782.25.066407.085938.015625.167969.023437.25.023437.085938 0 .15625-.007812.214844-.027344.0625-.019531.109375-.046874.148438-.078124.035156-.035157.0625-.074219.082031-.121094.015625-.046875.027344-.101563.027344-.15625 0-.066406-.015625-.128906-.046875-.179688-.027344-.050781-.066406-.101562-.121094-.144531-.050781-.046875-.113281-.089844-.1875-.132813-.074219-.042968-.15625-.089843-.246094-.136718-.074218-.039063-.160156-.089844-.253906-.144532-.09375-.054687-.183594-.125-.269531-.207031-.082031-.085937-.152344-.1875-.207031-.304687-.054688-.117188-.085938-.257813-.085938-.425782 0-.160156.027344-.304687.082031-.433593.054688-.128907.128907-.234375.230469-.324219.097656-.089844.21875-.15625.359375-.203125s.300781-.070313.472656-.070313c.089844 0 .175781.007813.257813.019532.082031.011718.167968.027344.246094.046875.082031.023437.167968.050781.25.082031.082031.03125.167968.066406.253906.109375l-.246094.597656c-.074219-.035156-.144531-.066406-.210938-.09375-.0625-.027343-.125-.046875-.1875-.066406s-.121093-.03125-.179687-.039063c-.058594-.011718-.117187-.015624-.175781-.015624-.128906 0-.230469.035156-.296875.105468-.070313.066406-.101563.15625-.101563.269532 0 .0625.007813.117187.027344.164062.023438.046875.054688.089844.101562.132812.042969.039063.101563.082032.175782.125.070312.042969.160156.09375.261718.148438.125.066406.238282.132812.339844.203125.105469.066406.195313.140625.269532.226563.074218.082031.132812.175781.175781.28125.039062.105468.0625.230468.0625.371093zm0 0"/><path d="m9.59375 18.777344-.25-.863282h-1.25l-.25.863282h-.773438l1.175782-3.636719h.941406l1.179688 3.636719zm-.429688-1.507813-.230468-.792969c-.011719-.027343-.027344-.078124-.046875-.144531-.019531-.066406-.039063-.140625-.0625-.222656-.023438-.082031-.042969-.164063-.0625-.25-.019531-.082031-.035157-.152344-.042969-.210937-.003906.039062-.015625.082031-.027344.128906-.007812.050781-.019531.105468-.035156.160156s-.027344.109375-.042969.167969c-.015625.054687-.027343.105469-.042969.15625-.011718.050781-.023437.09375-.035156.132812-.011718.035157-.019531.066407-.023437.082031l-.230469.792969zm0 0"/><path d="m12.539062 15.15625h.777344l-1.128906 3.621094h-.839844l-1.125-3.621094h.773438l.613281 2.179688c.007813.027343.019531.074218.035156.140624.011719.066407.027344.136719.042969.21875.015625.078126.03125.15625.046875.238282.015625.078125.027344.144531.035156.199218.007813-.054687.019531-.121093.035157-.199218.015624-.082032.03125-.160156.046874-.238282.015626-.078124.03125-.152343.046876-.214843.015624-.066407.027343-.117188.035156-.144531zm0 0"/><path d="m15.855469 18.777344h-2.085938v-3.621094h2.085938v.628906h-1.320313v.792969h1.226563v.628906h-1.226563v.9375h1.320313zm0 0"/><path d="m17.378906 16.761719h.210938c.210937 0 .363281-.042969.457031-.125.09375-.085938.140625-.210938.140625-.378907 0-.171874-.050781-.292968-.148438-.363281-.101562-.074219-.253906-.109375-.460937-.109375h-.199219zm0 .625v1.390625h-.765625v-3.621094h.992188c.460937 0 .804687.089844 1.027343.269531.21875.175781.332032.449219.332032.8125 0 .125-.015625.238281-.050782.339844-.03125.097656-.078124.1875-.132812.269531-.054688.078125-.117188.144532-.191406.203125-.070313.058594-.144532.109375-.226563.148438.183594.292969.347657.554687.492188.785156.066406.101563.125.199219.183593.292969.058594.09375.113282.175781.15625.25.046876.074218.085938.136718.117188.179687l.039062.070313h-.851562l-.785156-1.390625zm0 0"/></g></svg>