<svg height="32" width="32" xmlns="http://www.w3.org/2000/svg"><rect height="28" opacity=".2" rx="1.4" transform="matrix(0 -1 -1 0 0 0)" width="28" x="-31" y="-30"/><rect fill="#2ac4c4" height="28" rx="1.4" transform="matrix(0 -1 -1 0 0 0)" width="28" x="-30" y="-30"/><path d="m16.000001 8c-2.954655 0-5.000001 1.8323032-5.000001 4.277v1.813908c-1.4773121 0-3 .973099-3 2.181807v6.545478c0 1.208705 1.189344 2.181807 2.666656 2.181807h10.666687c1.477315 0 2.666657-.973102 2.666657-2.181807v-6.545478c0-1.208708-1.522686-2.181807-3-2.181807v-1.813908c0-2.4446968-2.045344-4.277-4.999999-4.277zm0 2c1.477342 0 2.999999.892333 2.999999 2.109v1.981908h-6v-1.981908c0-1.216667 1.522656-2.109 3.000001-2.109z" opacity=".2"/><path d="m16.000001 7c-2.954655 0-5.000001 1.8323032-5.000001 4.277v1.813908c-1.4773121 0-3 .973099-3 2.181807v6.545478c0 1.208705 1.189344 2.181807 2.666656 2.181807h10.666687c1.477315 0 2.666657-.973102 2.666657-2.181807v-6.545478c0-1.208708-1.522686-2.181807-3-2.181807v-1.813908c0-2.4446968-2.045344-4.277-4.999999-4.277zm0 2c1.477342 0 2.999999.892333 2.999999 2.109v1.981908h-6v-1.981908c0-1.216667 1.522656-2.109 3.000001-2.109z" fill="#fff"/><path d="m3.4003906 2c-.7756 0-1.4003906.6247906-1.4003906 1.4003906v1c0-.7756.6247906-1.4003906 1.4003906-1.4003906h25.1992184c.7756 0 1.400391.6247906 1.400391 1.4003906v-1c0-.7756-.624791-1.4003906-1.400391-1.4003906z" fill="#fff" opacity=".2"/></svg>