<svg height="32" width="32" xmlns="http://www.w3.org/2000/svg"><path d="m29 19.053297c0 3.743715-1.469444 7.144222-3.863026 9.656215-2.549942 2.676088-6.788946.0043-10.777218.0043-4.049447 0-7.0570979 2.62018-9.6133267-.128209-2.3246163-2.499309-3.7464293-5.849767-3.7464293-9.532306 0-7.731986 6.2680136-14.0000008 14-14.0000008 7.731987 0 14 6.2680148 14 14.0000008z" fill="#0d0d08" opacity=".2"/><path d="m29 18.053297c0 3.743715-1.469444 7.144222-3.863026 9.656215-2.549942 2.676088-6.788946.0043-10.777218.0043-4.049447 0-7.0570979 2.62018-9.6133267-.128209-2.3246163-2.499309-3.7464293-5.849767-3.7464293-9.532306 0-7.731986 6.2680136-14.0000005 14-14.0000005 7.731987 0 14 6.2680145 14 14.0000005z" fill="#0091cf"/><path d="m15 4.0527344c-7.7319864 0-14 6.2680136-14 13.9999996 0 .171888.019248.339378.0253906.509766.2604147-7.503017 6.4081122-13.5097656 13.9746094-13.5097656 7.565183 0 13.712188 6.0046676 13.974609 13.5058596.00606-.169237.025391-.335144.025391-.50586 0-7.731986-6.268013-13.9999996-14-13.9999996z" fill="#fff" opacity=".1"/><path d="m21 2.9999997-3 3h-4v4l-3 3.0000003 3 3v4h4l3 3 3-3h4v-4l3-3-3-3.0000003v-4h-4z" fill="#0d0d08" opacity=".2"/><path d="m21 2-3 3h-4v4l-3 3 3 3v4h4l3 3 3-3h4v-4l3-3-3-3v-4h-4z" fill="#ff8a47"/><circle cx="21" cy="13" fill="#0d0d08" opacity=".2" r="6"/><circle cx="21" cy="12" fill="#ffcc42" r="6"/><circle cx="15.286" cy="22.143" opacity=".2" r="5.714"/><path d="m15 16a6 6 0 0 0 -6 6 6 6 0 0 0  .00977.267578 4.5 4.5 0 0 0 -1.50977-.267578 4.5 4.5 0 0 0 -4.5 4.5 4.5 4.5 0 0 0 4.5 4.5 4.5 4.5 0 0 0  .5-.033203v.033203h14.5.5v-.0332a4.5 4.5 0 0 0 4-4.4668 4.5 4.5 0 0 0 -4.5-4.5 4.5 4.5 0 0 0 -1.513672.267578 6 6 0 0 0  .013672-.267578 6 6 0 0 0 -6-6z" opacity=".2"/><g fill="#fff"><circle cx="7.5" cy="25.5" r="4.5"/><circle cx="15" cy="21" r="6"/><circle cx="22.5" cy="25.5" r="4.5"/><path d="m8 24h15v6h-15z"/><path d="m21 2-3 3h-4v1h4l3-3 3 3h4v-1h-4zm-7 7-3 3 .5.5 2.5-2.5zm14 0v1l2.5 2.5.5-.5z" opacity=".2"/><path d="m21 6a6 6 0 0 0 -6 6 6 6 0 0 0  .025391.498047 6 6 0 0 1 5.974609-5.498047 6 6 0 0 1 5.974609 5.501953 6 6 0 0 0  .025391-.501953 6 6 0 0 0 -6-6z" opacity=".2"/></g></svg>