<svg height="32" width="32" xmlns="http://www.w3.org/2000/svg"><circle cx="16" cy="17" opacity=".2" r="14"/><circle cx="16" cy="16" fill="#e97247" r="14"/><circle cx="16" cy="17" opacity=".2" r="10"/><circle cx="16" cy="16" fill="#fff" r="10"/><path d="m23.321428 9.2017304-2.321428 2.1554126-5 4.642857 5 4.642857 2.318638 2.152622a9.9999994 9.9999994 0 0 0 2.681361-6.795479 9.9999994 9.9999994 0 0 0 -2.678571-6.7982696z" fill="#666"/><path d="m22.504623 15.000004s1.044992.642406 1.000377 1.99985c-.04461 1.357444-1.000377 2.00015-1.000377 2.00015" fill="none" opacity=".2" stroke="#000" stroke-linecap="round" stroke-linejoin="round"/><path d="m22.504623 14s1.044992.642406 1.000377 1.99985c-.04461 1.357444-1.000377 2.00015-1.000377 2.00015" fill="none" stroke="#f3f3f3" stroke-linecap="round" stroke-linejoin="round"/><path d="m16 2a14 14 0 0 0 -14 14 14 14 0 0 0  .0214844.585938 14 14 0 0 1 13.9785156-13.585938 14 14 0 0 1 13.978516 13.414062 14 14 0 0 0  .021484-.414062 14 14 0 0 0 -14-14z" fill="#fff" opacity=".2"/></svg>