<svg height="32" viewBox="0 0 32 32" width="32" xmlns="http://www.w3.org/2000/svg"><g transform="translate(0 -1020.3622)"><path d="m1.0000001 1041.8622c0-4.6912 6.7212746-8.5 14.9999999-8.5 8.278725 0 15 3.8088 15 8.5 0 4.6913-6.721275 8.5-15 8.5-8.2787253 0-14.9999999-3.8087-14.9999999-8.5z" opacity=".2" stroke-miterlimit="3"/><path d="m1.0000001 1040.8622c0-4.6912 6.7212746-8.5 14.9999999-8.5 8.278725 0 15 3.8088 15 8.5 0 4.6913-6.721275 8.5-15 8.5-8.2787253 0-14.9999999-3.8087-14.9999999-8.5z" fill="#3ca13c" stroke-miterlimit="3"/><path d="m29.999999 1039.5206c0 4.3279-6.273189 7.8416-13.999999 7.8416-7.7268099 0-14-3.5137-14-7.8416v-8.3167h27.999999z" opacity=".2"/><path d="m29.505338 1038.2621c0 4.3454-6.05154 7.8733-13.505338 7.8733-7.4537989 0-13.505338-3.5279-13.505338-7.8733v-8.3505h27.010676z" fill="none"/><path d="m29.999999 1038.5206c0 4.3279-6.273189 7.8416-13.999999 7.8416-7.7268099 0-14-3.5137-14-7.8416v-8.3167h27.999999z" fill="#e4e4e4"/><path d="m2 1031.3623c0-4.4154 6.2731901-8.0001 14-8.0001 7.72681 0 13.999999 3.5847 13.999999 8.0001s-6.273189 7.9999-13.999999 7.9999c-7.7268099 0-14-3.5845-14-7.9999z" opacity=".1" stroke-miterlimit="3"/><path d="m2 1030.3623c0-4.4154 6.2731901-8.0001 14-8.0001 7.72681 0 13.999999 3.5847 13.999999 8.0001s-6.273189 7.9999-13.999999 7.9999c-7.7268099 0-14-3.5845-14-7.9999z" fill="#f7f7f7" stroke-miterlimit="3"/><path d="m8 1027.74h16v3.056h-16z" fill="#3ca13c"/><g stroke-miterlimit="3"><path d="m8.0000134 1030.7933c0-1.9698 3.5846766-3.5689 7.9999916-3.5689 4.415316 0 7.999992 1.5991 7.999992 3.5689 0 1.9697-3.584676 3.5689-7.999992 3.5689-4.415315 0-7.9999916-1.5992-7.9999916-3.5689z" fill="#3ca13c"/><path d="m8.0000134 1028.8622c0-1.9317 3.5846766-3.5 7.9999916-3.5 4.415316 0 7.999992 1.5683 7.999992 3.5s-3.584676 3.5-7.999992 3.5c-4.415315 0-7.9999916-1.5683-7.9999916-3.5z" opacity=".2"/><path d="m8.0000134 1027.8622c0-1.9317 3.5846766-3.5 7.9999916-3.5 4.415316 0 7.999992 1.5683 7.999992 3.5s-3.584676 3.5-7.999992 3.5c-4.415315 0-7.9999916-1.5683-7.9999916-3.5z" fill="#4ccc4c"/><path d="m8.13286 1028.0708c-.02208-.1008-.033367-.2029-.033367-.3062 0-1.8281 3.539283-3.3129 7.898687-3.3129 4.359405 0 7.898687 1.4848 7.898687 3.3129 0 .2333-.05764.4611-.167255.6809" fill="none"/></g><path d="m16 1022.3622c-7.7268099 0-14 3.5846-14 8 0 .1686.02689.3339.044922.5.4551206-4.1813 6.5240657-7.5 13.9550781-7.5 7.431012 0 13.499958 3.3187 13.955078 7.5.01803-.1661.04492-.3314.04492-.5 0-4.4154-6.27319-8-14-8z" fill="#fff" opacity=".2"/></g></svg>