<svg height="32" width="32" xmlns="http://www.w3.org/2000/svg"><rect height="28" opacity=".2" rx="1.4" transform="matrix(0 -1 -1 0 0 0)" width="28" x="-31" y="-30"/><rect fill="#642c68" height="28" rx="1.4" transform="matrix(0 -1 -1 0 0 0)" width="28" x="-30" y="-30"/><path d="m4 5v3h3v-3zm21 0v3h3v-3zm-21 7v3h3v-3zm21 0v3h3v-3zm-21 7v3h3v-3zm21 0v3h3v-3zm-21 7v3h3v-3zm21 0v3h3v-3z" opacity=".2"/><path d="m4 4v3h3v-3zm21 0v3h3v-3zm-21 7v3h3v-3zm21 0v3h3v-3zm-21 7v3h3v-3zm21 0v3h3v-3zm-21 7v3h3v-3zm21 0v3h3v-3z" fill="#fff"/><path d="m3.4003906 2c-.7756 0-1.4003906.6247906-1.4003906 1.4003906v1c0-.7756.6247906-1.4003906 1.4003906-1.4003906h25.1992184c.7756 0 1.400391.6247906 1.400391 1.4003906v-1c0-.7756-.624791-1.4003906-1.400391-1.4003906z" fill="#fff" opacity=".1"/><path d="m9 6h14v9h-14z" opacity=".2"/><path d="m9 5h14v9h-14z" fill="#fff"/><path d="m9 19h14v9h-14z" opacity=".2"/><path d="m9 18h14v9h-14z" fill="#fff"/><circle cx="24" cy="23" fill="#96be4e" r="8"/><path d="m21.538 19c-.849 0-1.538.689-1.538 1.538 0 .84967.68879 1.5385 1.5385 1.5385.27451 0 .52688-.08555.75-.21154l1.212 1.135-1.2115 1.1346c-.22312-.12599-.47549-.21154-.75-.21154-.849 0-1.538.689-1.538 1.539 0 .849.689 1.538 1.538 1.538.84967 0 1.5385-.68879 1.5385-1.5385 0-.14102-.02215-.2741-.05766-.40385l1.3077-1.2692 2.75 2.5962h.92308v-.61538l-4.9808-4.8269c.03557-.12975.05766-.26282.05766-.40385 0-.85-.689-1.539-1.539-1.539zm0 .92308c.33986 0 .61538.27552.61538.61538s-.27552.61538-.61538.61538-.61538-.27552-.61538-.61538.27552-.61538.61538-.61538zm5.5385-.30769-2.4231 2.2885.80769.78846 2.5385-2.4615v-.61538zm-5.5385 5.2308c.33986 0 .61538.27552.61538.61538s-.27552.61538-.61538.61538-.61538-.27552-.61538-.61538.27552-.61538.61538-.61538z" fill="#fff"/><path d="m31.979 23.424a8 8 0 0 1 -7.979 7.576 8 8 0 0 1 -7.979-7.424 8 8 0 0 0 -.021.424 8 8 0 0 0 8 8 8 8 0 0 0 8-8 8 8 0 0 0 -.02148-.57617z" opacity=".2"/></svg>