<svg height="32" width="32" xmlns="http://www.w3.org/2000/svg"><path d="m12.333333 3.0000003c-.777917.0001429-1.523924.2952167-2.073959.8203282l-4.3999985 4.2000803c-.4812018.4604558-.7715766 1.0577576-.8407006 1.6851605l-.0186749 1.6945917v9.26971c.0001498.742572.3092687 1.454682.8593755 1.979725l2.8445309 2.715287 3.0221346 2.715287 2.2 2.10004c1.145555 1.093053 3.002363 1.093053 4.147917 0l2.2-2.10004 3.022136-2.715287 2.84453-2.715287c.550107-.525043.859226-1.237153.859376-1.979725v-9.26971l-.004-1.4786616c-.0202-.7050681-.319322-1.3879844-.855414-1.9010906l-4.4-4.2000803c-.549995-.5251115-1.296002-.8201853-2.073919-.8203282z" opacity=".2"/><path d="m12.333333 2.0000001c-.777917.0001429-1.523924.2952167-2.073959.8203282l-4.3999985 4.2000802c-.4812018.4604558-.7715766 1.0577576-.8407006 1.6851606l-.0186749 1.6945919v9.26971c.0001498.742572.3092687 1.454682.8593755 1.979725l2.8445309 2.715287 3.0221346 2.715287 2.2 2.10004c1.145555 1.093053 3.002363 1.093053 4.147917 0l2.2-2.10004 3.022136-2.715287 2.84453-2.715287c.550107-.525043.859226-1.237153.859376-1.979725v-9.26971l-.004-1.4786619c-.0202-.705068-.319322-1.3879843-.855414-1.9010906l-4.4-4.2000802c-.549995-.5251115-1.296002-.8201853-2.073919-.8203282z" fill="#4f4f4f"/><path d="m12.5 6-4.1992188 4h5.6992188v15.888672l2 2.111328 2-2.111328v-15.888672h5.699219l-4.199219-4zm-4.5 6v8.652344l3.115234 2.990234 2.769532-2.884766-1.884766-1.810546v-6.947266zm12 0v6.947266l-1.884766 1.810546 2.769532 2.884766 3.115234-2.990234v-8.652344z" opacity=".2"/><path d="m14 8h4v16.888889l-2 2.111111-2-2.111111z" fill="#c2c4c1"/><path d="m10 11v7.8l2.5 2.4" fill="none" stroke="#c2c4c1" stroke-width="4"/><path d="m22 11v7.8l-2.5 2.4" fill="none" stroke="#c2c4c1" stroke-width="4"/><path d="m19.5 5.0000001 4.2 4h-15.4l4.2-4z" fill="#c2c4c1"/><path d="m12.5 5-4.1992188 4h1.0507813l3.1484375-3h7l3.148438 3h1.050781l-4.199219-4zm-4.5 6v1h4v-1zm12 0v1h4v-1zm-8 6.947266v1l1.384766 1.330078.5-.519532zm8 0-1.884766 1.810546.5.519532 1.384766-1.330078z" fill="#fff" opacity=".2"/><path d="m12.333984 2c-.777917.0001429-1.524183.295201-2.074218.8203125l-4.400391 4.1992187c-.4812018.4604559-.7707197 1.0581439-.8398438 1.6855469l-.0195312 1.6953129v1l .0195312-1.6953129c.0691241-.6274029.358642-1.225091.8398438-1.6855469l4.400391-4.1992187c.550035-.5251115 1.296301-.8201696 2.074218-.8203125h7.332032c.777917.0001429 1.524223.295201 2.074218.8203125l4.400391 4.1992187c.536092.5131062.835269 1.1972757.855469 1.9023438l.003906 1.478516v-1l-.003906-1.478516c-.0202-.705068-.319377-1.3892374-.855469-1.9023438l-4.400391-4.1992187c-.549995-.5251115-1.296301-.8201696-2.074218-.8203125z" fill="#fff" opacity=".1"/></svg>