<svg height="32" width="32" xmlns="http://www.w3.org/2000/svg"><rect fill="#74b336" height="28" rx="1.5" transform="matrix(0 -1 -1 0 0 0)" width="28" x="-30" y="-30"/><path d="m3.5 2c-.831 0-1.5.669-1.5 1.5v1c0-.831.669-1.5 1.5-1.5h25c .831 0 1.5.669 1.5 1.5v-1c0-.831-.669-1.5-1.5-1.5z" fill="#fff" opacity=".1"/><path d="m2 28.5v1c0 .831.669 1.5 1.5 1.5h25c .831 0 1.5-.669 1.5-1.5v-1c0 .831-.669 1.5-1.5 1.5h-25c-.831 0-1.5-.669-1.5-1.5z" opacity=".2"/><path d="m25.213 9.0312-11.313 11.313-7.0719-7.071-2.8281 2.829 7.072 7.07 2.828 2.828 2.8281-2.8281 11.312-11.312-2.8281-2.8281z" opacity=".2"/><path d="m25.213 8.0312-11.313 11.313-7.0719-7.071-2.8281 2.829 7.072 7.07 2.828 2.828 2.8281-2.8281 11.312-11.312-2.8281-2.8281z" fill="#fff"/></svg>