<svg height="32" width="32" xmlns="http://www.w3.org/2000/svg"><path d="m30 29.6v-25.2c0-.7756-.6244-1.4-1.4-1.4h-25.2c-.7756 0-1.4.6244-1.4 1.4v25.2c0 .7756.6244 1.4 1.4 1.4h25.2c.7756 0 1.4-.6244 1.4-1.4z" opacity=".2"/><path d="m30 28.6v-25.2c0-.7756-.6244-1.4-1.4-1.4h-25.2c-.7756 0-1.4.6244-1.4 1.4v25.2c0 .7756.6244 1.4 1.4 1.4h25.2c.7756 0 1.4-.6244 1.4-1.4z" fill="#4f4f4f"/><path d="m30 28.6v-25.2c0-.7756-.6244-1.4-1.4-1.4h-12.6v28h12.6c.7756 0 1.4-.6244 1.4-1.4z" fill="#8e8e8e"/><path d="m5.5 9.9996363a1.50015 1.50015 0 0 0 -1.5 1.4999997v11a1.50015 1.50015 0 0 0 1.5 1.5h1.6621094c2.3131303.000036 4.1599276-.387918 5.3808596-1.716797s1.457031-3.129757 1.457031-5.283203c0-2.14256-.236854-3.941004-1.455078-5.271484-1.218225-1.330481-3.0669462-1.7284806-5.3828126-1.7285157zm15 0a1.50015 1.50015 0 0 0 -1.5 1.4999997v8.5h-.5a1.50015 1.50015 0 0 0 -1.5 1.5v3a1.50015 1.50015 0 1 0 3 0v-1.5h6v1.5a1.50015 1.50015 0 0 0 1.5 1.5 1.50015 1.50015 0 0 0 1.5-1.740234v-2.759766a1.50015 1.50015 0 0 0 -1.5-1.5h-.5v-8.5a1.50015 1.50015 0 0 0 -1.5-1.4999997zm-13.5 2.9999997h.1621094c1.9716336.00003 2.7912718.340364 3.1699216.753906.378651.413542.667969 1.364456.667969 3.246094 0 1.894025-.290073 2.844725-.666016 3.253906-.3759423.409182-1.197505.746125-3.1718746.746094h-.1621094zm15 0h2v7h-2z" fill-rule="evenodd" opacity=".2"/><g fill="none" stroke-linecap="round" stroke-linejoin="round" stroke-width="3"><path d="m5.5 10.499988v10.999999l1.6625.000026c4.2875.000067 5.3375-1.452353 5.3375-5.499824 0-4.024198-1.05-5.500112-5.3375-5.500177z" stroke="#fff"/><path d="m20.5 20.5v-10h5v10z" stroke="#3f3f3f"/><path d="m18.5 23.5v-3h9v3" stroke="#3f3f3f"/></g><path d="m3.4003906 2c-.7756 0-1.4003906.6247906-1.4003906 1.4003906v1c0-.7756.6247906-1.4003906 1.4003906-1.4003906h25.1992184c.7756 0 1.400391.6247906 1.400391 1.4003906v-1c0-.7756-.624791-1.4003906-1.400391-1.4003906z" fill="#fff" opacity=".1"/></svg>