<svg height="32" width="32" xmlns="http://www.w3.org/2000/svg"><g transform="matrix(0 -1 -1 0 0 0)"><rect height="16" opacity=".2" rx="1.25" width="21" x="-29" y="-24"/><rect fill="#8e8e8e" height="16" rx="1.25" width="21" x="-28" y="-24"/><rect height="26" opacity=".2" rx="1.25" width="20" x="-26" y="-29"/><rect fill="#4f4f4f" height="26" rx="1.25" width="20" x="-25" y="-29"/><path d="m-22.463327-25.971377 15.463327-1.028623v22h-16z" opacity=".4"/></g><path d="m4.25 5c-.6925 0-1.25.5575-1.25 1.25v1c0-.6925.5575-1.25 1.25-1.25h23.5c.692 0 1.25.5575 1.25 1.25v-1c0-.6925-.558-1.25-1.25-1.25z" fill="#fff" opacity=".1"/><path d="m27 8-22 16h20.871094s1.128906 0 1.128906-1zm-4 8v4h-5z" opacity=".2"/><path d="m27 7-22 16h20.871094s1.128906 0 1.128906-1zm-4 8v4h-5z" fill="#cd3840"/><path d="m27 7-22 16h1.375l20.625-15zm-7.75 12-1.25 1h5v-1z" fill="#fff" opacity=".2"/></svg>