<svg height="32" width="32" xmlns="http://www.w3.org/2000/svg"><rect fill="#ff4646" height="28" rx="1.4" transform="matrix(0 -1 -1 0 0 0)" width="28" x="-30" y="-30"/><g opacity=".2" transform="matrix(1.039 0 0 1.0204 -.62338 .67347)"><path d="m17.444 25.8h6.2562l-8.6625-8.82-3.3688 2.45z"/><path d="m17.444 6.2h6.2562l-12.031 13.23-3.369-3.43z"/></g><g transform="matrix(1.039 0 0 1.0204 -.62338 -.32653)"><path d="m17.444 25.8h6.2562l-8.6625-8.82-3.3688 2.45z" fill="#ffabab"/><path d="m17.444 6.2h6.2562l-12.031 13.23-3.369-3.43z" fill="#fff"/></g><path d="m3.4004 2c-.7756 0-1.4004.6248-1.4004 1.4004v1c0-.7756.6248-1.4004 1.4004-1.4004h25.2c.775 0 1.4.6248 1.4 1.4004v-1c0-.7756-.625-1.4004-1.4-1.4004z" fill="#fff" opacity=".2"/><path d="m2 28.6v1c0 .775.6248 1.4 1.4004 1.4h25.2c.775 0 1.4-.625 1.4-1.4v-1c0 .775-.625 1.4-1.4 1.4h-25.2c-.7752 0-1.4-.625-1.4-1.4z" opacity=".2"/></svg>