<svg height="32" width="32" xmlns="http://www.w3.org/2000/svg"><path d="m3.4 3c-.7756 0-1.4.6244-1.4 1.4v25.2c0 .7756.6244 1.4 1.4 1.4h6.6v-20h10v-8zm18.6 0v28h6.6c.7756 0 1.4-.6244 1.4-1.4v-25.2c0-.7756-.6244-1.4-1.4-1.4zm-10 10v18h8v-18z" opacity=".2"/><path d="m3.4 2c-.7756 0-1.4.6244-1.4 1.4v25.2c0 .7756.6244 1.4 1.4 1.4h6.6v-20h10v-8zm18.6 0v28h6.6c.7756 0 1.4-.6244 1.4-1.4v-25.2c0-.7756-.6244-1.4-1.4-1.4zm-10 10v18h8v-18z" fill="#16a085"/><path d="m3.4003906 2c-.7756 0-1.4003906.6247906-1.4003906 1.4003906v1c0-.7756.6247906-1.4003906 1.4003906-1.4003906h16.5996094v-1zm18.5996094 0v1h6.599609c.7756 0 1.400391.6247906 1.400391 1.4003906v-1c0-.7756-.624791-1.4003906-1.400391-1.4003906zm-10 10v1h8v-1z" fill="#fff" opacity=".2"/></svg>