<svg height="32" width="32" xmlns="http://www.w3.org/2000/svg"><path d="m16 3c-7.756 0-14 6.244-14 14s6.244 14 14 14 14-6.244 14-14-6.244-14-14-14zm0 8a6 6 0 0 1 6 6 6 6 0 0 1 -6 6 6 6 0 0 1 -6-6 6 6 0 0 1 6-6z" opacity=".2"/><path d="m16 8.5a7.5 7.5 0 0 0 -7.5 7.5 7.5 7.5 0 0 0 7.5 7.5 7.5 7.5 0 0 0 7.5-7.5 7.5 7.5 0 0 0 -7.5-7.5zm0 4.5c1.6569 0 3 1.3431 3 3s-1.3431 3-3 3-3-1.3431-3-3 1.3431-3 3-3z" fill="#858585"/><path d="m16 2c-7.756 0-14 6.244-14 14s6.244 14 14 14 14-6.244 14-14-6.244-14-14-14zm0 8a6 6 0 0 1 6 6 6 6 0 0 1 -6 6 6 6 0 0 1 -6-6 6 6 0 0 1 6-6z" fill="#e4e4e4"/><path d="m16 2c-7.756 0-14 6.244-14 14 0 .168842.019521.33264.025391.5.2637416-7.5205675 6.3874508-13.5 13.974609-13.5 7.587158 0 13.710867 5.9794325 13.974609 13.5.00587-.16736.025391-.331158.025391-.5 0-7.756-6.244-14-14-14zm-5.974609 14.498047a6 6 0 0 0 -.025391.501953 6 6 0 0 0 6 6 6 6 0 0 0 6-6 6 6 0 0 0 -.025391-.498047 6 6 0 0 1 -5.974609 5.498047 6 6 0 0 1 -5.974609-5.501953z" fill="#fff" opacity=".2"/><circle cx="24" cy="23" fill="#ffb522" r="8"/><path d="m31.979 23.424a8 8 0 0 1 -7.979 7.576 8 8 0 0 1 -7.979-7.424 8 8 0 0 0 -.021.424 8 8 0 0 0 8 8 8 8 0 0 0 8-8 8 8 0 0 0 -.02148-.57617z" opacity=".2"/><path d="m27.99996 25.218v1.782h-1.7819l-4.5004-4.5004 1.7819-1.7819zm-7.8586-4.2891c-.18848-.18847-.18848-.48545 0-.67393l1.1137-1.1137c.18848-.18848.48546-.18848.67393 0l .931.937-1.782 1.782z" fill="#fff"/></svg>