<svg height="32" width="32" xmlns="http://www.w3.org/2000/svg"><path d="m8.6942464 30.990452c-1.0724397-.01218-1.6548828-.03108-1.6942464-.07957 0 .089097.0449214-27.4923489.0449214-27.4923489.138434-.1415958.8676935-.2099997 3.6576046-.3430836 1.838907-.08771 5.650959-.1022838 6.824502-.02611 2.008738.1304309 3.003813.2751068 4.303602.6257083 1.294062.3490546 2.322881.8659061 2.462211 1.2369266.04866.1295558.29243 1.4556413.465416 2.5317363.123789.7700345.220253 1.580564.220253 1.8506157 0 .377986-.154612.4987361-.818778.6394634-.816054.1729002-1.37434.076987-4.779009.066213-3.656195-.01155-3.827172.120161-4.343268.378293-.680271.340445-1.073769 1.046355-1.122644 1.789708-.01549 1.253585.90256 2.215424 1.752355 2.396393 1.140113.235179 2.476826.350552 6.225695.571661.504004.02975 1.004205.07305 1.027274.09628.07476.07528.05681.31483.08686 1.020079.03463.812671-.0325 1.019645-.285902 1.564538-.541499 1.164512-1.937279 1.759615-4.23935 2.05405-.742474.09496-1.557215.149856-2.242677.151116-.429858.0007-.789132.02842-.988712.07614-.76299.1823-1.263115.846984-1.334553 1.773658-.03558.461425.04298 1.100805.257372 1.547153.361354.75243.95912 1.165184 1.932297 1.334247 1.364725.237076 2.54237.230633 5.94203.266941l2.942011.03143-.000144.489394c-.000143.415092.03548 2.682238-.02385 3.634153l-.03073.493339c-.417918.231647-1.046546.387408-1.440381.524159-.364352.167874-1.754172.465772-2.74909.589259-1.595209.197995-2.126826.206955-6.425549.215775-2.321053.0049-4.8525256.0014-5.6255005-.0073z" opacity=".2"/><path d="m8.6942464 29.990457c-1.0724397-.01218-1.6548828-.03108-1.6942464-.07957 0 .089097.0449214-27.4923493.0449214-27.4923493.138434-.1415958.8676935-.2099997 3.6576046-.3430836 1.838907-.08771 5.650959-.1022838 6.824502-.02611 2.008738.1304309 3.003813.2751068 4.303602.6257083 1.294062.3490546 2.322881.8659061 2.462211 1.2369266.04866.1295558.29243 1.4556413.465416 2.5317363.123789.7700345.220253 1.580564.220253 1.8506157 0 .377986-.154612.4987361-.818778.6394634-.816054.1729-1.37434.076987-4.779009.066213-3.656195-.01155-3.827172.1201613-4.343268.3782934-.680271.3404451-1.073769 1.0463552-1.122644 1.7897082-.01549 1.253585.90256 2.215424 1.752355 2.396393 1.140113.235179 2.476826.350552 6.225695.571661.504004.02975 1.004205.07305 1.027274.09628.07476.07528.05681.31483.08686 1.020079.03463.812671-.0325 1.019645-.285902 1.564538-.541499 1.164512-1.937279 1.759615-4.23935 2.05405-.742474.09496-1.557215.149856-2.242677.151116-.429858.0007-.789132.02842-.988712.07614-.76299.1823-1.263115.846984-1.334553 1.773658-.03558.461425.04298 1.100805.257372 1.547153.361354.75243.95912 1.165184 1.932297 1.334247 1.364725.237076 2.54237.230633 5.94203.266941l2.942011.03143-.000144.489394c-.000143.415092.03548 2.682238-.02385 3.634153l-.03073.493339c-.417918.231647-1.046546.387408-1.440381.524159-.364352.167874-1.754172.465772-2.74909.589259-1.595209.197995-2.126826.206955-6.425549.215775-2.321053.0049-4.8525256.0014-5.6255005-.0073z" fill="#c06e00"/><path d="m14.365234 2c-1.329569.0050855-2.742656.0323169-3.662109.0761719-2.7899111.1330839-3.5197691.2002011-3.6582031.3417969 0-.0000001-.0449219 27.5812842-.0449219 27.4921872.0000826.000102.0018658-.000101.0019531 0 .0030346-1.783457.0429688-26.4921872.0429688-26.4921872.138434-.1415958.868292-.208713 3.6582031-.3417969 1.838907-.08771 5.650676-.1035176 6.824219-.0273438 2.008738.1304309 3.002945.2763517 4.302734.6269531 1.294062.3490546 2.323561.8653077 2.462891 1.2363282.04866.1295558.291858 1.455155.464843 2.53125.077166.4800105.097537.7835422.136719 1.1542968.05166-.0806535.083985-.1720189.083985-.3027343 0-.2700517-.096915-1.081528-.220704-1.8515625-.172985-1.076095-.416183-2.4016942-.464843-2.53125-.13933-.3710205-1.168829-.8872735-2.462891-1.2363282-1.299789-.3506014-2.293996-.4965222-4.302734-.6269531-.586772-.0380869-1.83254-.0539136-3.16211-.0488281zm-.376953 9.765625c-.032123.132556-.0652.265177-.074219.402344-.015489 1.253585.904112 2.215515 1.753907 2.396484 1.140113.235179 2.47574.351157 6.224609.572266.504004.02975 1.004275.072473 1.027344.095703.058028.058432.064053.288221.076172.685547.016981-.17771.023974-.378408.011718-.666016-.03005-.705249-.01313-.944251-.08789-1.019531-.023069-.02323-.52334-.065953-1.027344-.095703-3.748869-.221109-5.084496-.337087-6.224609-.572266-.707703-.150709-1.455923-.847491-1.679688-1.798828zm-.03125 9.908203c-.01047.067988-.035528.126086-.041015.197266-.03558.461425.04342 1.10248.257812 1.548828.361354.75243.958464 1.164921 1.931641 1.333984 1.364725.237076 2.541746.229317 5.941406.265625l2.943359.03125v.490235c-.000038.11218.003254.552844.00586.873046.000771-.843872-.00594-1.639006-.00586-1.873046v-.490235l-2.943359-.03125c-3.39966-.036308-4.576681-.028549-5.941406-.265625-.973177-.169063-1.570287-.581554-1.931641-1.333984-.104065-.216656-.174258-.480905-.216797-.746094z" fill="#fff" opacity=".1"/><path d="m7.1284545 2.3855247c-.022306.011411-.071662.020364-.083834.032813v.045117c3.0484015 3.5162304 4.9505545 8.7724023 4.9553795 14.0864943-.0048 5.1629-1.809499 9.889634-4.7092873 13.395348.2581455.02184.6702346.03679 1.4035337.04511.7729749.0087 3.3038976.01174 5.6249516.0069 4.298722-.0088 4.831568-.01665 6.426777-.214649.994918-.123487 2.384572-.421384 2.748924-.589258.393835-.136751 1.022123-.293353 1.440042-.525l.0311-.493555c.05933-.951915.02285-3.21802.02298-3.633113v-.489453l-2.94093-.03144c-3.399659-.03631-4.577981-.03089-5.942706-.267969-.973177-.169064-1.570871-.581946-1.932226-1.334376-.214393-.446348-.292493-1.085378-.256909-1.546802.07144-.926674.571584-1.590942 1.334575-1.773243.199579-.04772.558565-.07586.988422-.07656.685463-.0013 1.499394-.05543 2.241868-.150391 2.30207-.294434 3.697868-.890372 4.239367-2.054883.253398-.544893.321287-.751392.286656-1.564063-.03005-.705249-.01178-.944638-.08654-1.019922-.02307-.02323-.523632-.06732-1.027635-.09707-3.748869-.221109-5.085567-.336305-6.225679-.571484-.849795-.180968-1.767882-1.142088-1.752389-2.395672.04888-.743353.442015-1.4492031 1.122286-1.7896482.5161-.2581552.68692-.3902844 4.343115-.3787344 3.40467.010773 3.963802.107275 4.779856-.065625.664166-.1407273.818053-.2618589.818053-.6398435 0-.090777-.02409-.3054402-.04327-.4962897-4.643202-3.0559749-10.976319-4.9810891-17.8064805-5.4127385z" fill="#d39447"/><path d="m22.949001 14.296824c-6.433957.768555-10.941065 3.833873-10.949001 7.253444.0068 3.836434 5.556041 6.724575 12.941702 7.021005l.02434-.396485c.05933-.951914.02285-3.21802.02298-3.633112v-.489454l-2.94093-.03144c-3.399659-.03631-4.577981-.03089-5.942706-.267969-.973177-.169063-1.570871-.581946-1.932225-1.334375-.214394-.446348-.292494-1.085378-.256909-1.546803.07144-.926673.571583-1.590942 1.334574-1.773242.199579-.04772.558565-.07586.988422-.07656.685463-.0013 1.499394-.05543 2.241868-.150391 2.30207-.294434 3.697869-.890371 4.239368-2.054883.253397-.544893.321285-.751392.286655-1.564063-.02478-.581611-.01973-.838441-.05814-.955664z" fill="#fdd161"/><path d="m7.1289062 2.3847656c-.022306.011411-.0718123.0207542-.0839843.0332032v.0449218c.2686969.309933.5172066.6485577.7675781.984375 6.500668.508849 12.509435 2.3650237 16.982422 5.2675782.135438-.0967496.183594-.2220706.183594-.4199219 0-.090777-.023789-.3052443-.042969-.4960938-4.643202-3.0559749-10.976479-4.9824131-17.8066408-5.4140625zm6.8593748 9.3828124c-.031835.131933-.06329.263899-.072265.400391-.015493 1.253584.902158 2.215516 1.751953 2.396484 1.140112.235179 2.47574.351157 6.224609.572266.504003.02975 1.006227.072473 1.029297.095703.058028.058435.062187.288264.074219.685547.017103-.177633.023975-.378408.011718-.666016-.030049-.705249-.01313-.944247-.08789-1.019531-.02307-.02323-.523341-.067906-1.027344-.097656-3.748869-.221109-5.084497-.335134-6.224609-.570313-.7074-.150644-1.455557-.846336-1.679688-1.796875zm-2.009765 5.291016c-.119306 4.96289-1.883872 9.497257-4.6875004 12.886718.1355435.011468.4916887.015732.7363282.023438 2.4590962-3.386058 3.9682832-7.714511 3.9726562-12.417969-.000149-.164422-.017725-.327925-.021484-.492187zm1.978515 4.617187c-.010361.067519-.035567.124644-.041015.195313-.035584.461424.043419 1.100527.257812 1.546875.361355.75243.958464 1.166873 1.931641 1.335937 1.364725.237079 2.5437.231268 5.943359.267578l2.941406.03125v.488282c-.000035.113686.003123.558411.00586.884765.00066-.848128-.007886-1.64952-.007813-1.884765v-.488282l-2.939453-.03125c-3.399659-.03631-4.578634-.032452-5.943359-.269531-.973177-.169064-1.570286-.581554-1.931641-1.333984-.103802-.216108-.174328-.477771-.216797-.742188z" fill="#fff" opacity=".2"/><path d="m22.949219 14.296875c-6.433957.768555-10.941283 3.834335-10.949219 7.253906.000286.161603.023291.318448.042969.476563.439645-3.204488 4.802852-6.0014 10.90625-6.730469.026942.082223.031546.386422.041015.669922.022093-.187635.030975-.400463.017578-.714844-.024779-.581611-.020183-.837855-.058593-.955078zm-8.992188 7.376953c-.010471.067984-.035528.126086-.041015.197266-.035585.461425.043418 1.100527.257812 1.546875.361354.752429.958464 1.164921 1.931641 1.333984 1.364725.237079 2.5437.233221 5.943359.269531l2.939453.03125v.488282c-.000037.118453.003011.575504.00586.921875.001088-.86245-.005935-1.682784-.00586-1.921875v-.488282l-2.939453-.03125c-3.399659-.03631-4.578634-.032452-5.943359-.269531-.973177-.169063-1.570287-.581555-1.931641-1.333984-.104051-.216626-.174367-.479075-.216797-.744141z" fill="#fff" opacity=".2"/><path d="m12.042969 22.027344c-.02381.173554-.04256.347749-.04297.523437.0068 3.836434 5.555745 6.723102 12.941406 7.019531l.02539-.396484c.0424-.680269.03448-1.843536.02734-2.710937-.000801.63487-.0022 1.307321-.02734 1.710937l-.02539.396484c-7.074552-.283943-12.450959-2.947456-12.898436-6.542968z" opacity=".2"/></svg>