<svg height="32" width="32" xmlns="http://www.w3.org/2000/svg"><rect fill="#4f4f4f" height="28" rx="1.4" transform="matrix(0 -1 -1 0 0 0)" width="28" x="-30" y="-30"/><path d="m10 8h12v4h-8.9996v4h5v3h-4.9996v7h-3z" opacity=".2"/><path d="m10 7h12v4h-8.9996v4h5v3h-4.9996v7h-3z" fill="#ff6363"/><path d="m3.4004 2c-.7756 0-1.4004.6248-1.4004 1.4004v1c0-.7756.6248-1.4004 1.4004-1.4004h25.2c.775 0 1.4.6248 1.4 1.4004v-1c0-.7756-.625-1.4004-1.4-1.4004z" fill="#fff" opacity=".1"/><path d="m2 28.6v1c0 .775.6248 1.4 1.4004 1.4h25.2c.775 0 1.4-.625 1.4-1.4v-1c0 .775-.625 1.4-1.4 1.4h-25.2c-.7752 0-1.4-.625-1.4-1.4z" opacity=".2"/><circle cx="24" cy="23" fill="#3f92e7" fill-rule="evenodd" r="8"/><path d="m23 19-.0882 1.0536a3.1429 3.1429 0 0 0 -.91852.53126l-.95759-.4509-1 1.7321.86941.6038a3.1429 3.1429 0 0 0 -.048.53013 3.1429 3.1429 0 0 0  .0457.53237l-.86719.60156 1 1.7321.95536-.44978a3.1429 3.1429 0 0 0  .92075.5279l.0882 1.0558h2l .0882-1.0536a3.1429 3.1429 0 0 0  .91854-.53126l.95758.4509 1-1.7321-.86942-.6038a3.1429 3.1429 0 0 0  .048-.53013 3.1429 3.1429 0 0 0 -.0457-.53237l.86719-.60156-1-1.7321-.95536.44978a3.1429 3.1429 0 0 0 -.921-.528l-.088-1.056h-2zm1 2.8572a1.1429 1.1429 0 0 1 1.143 1.143 1.1429 1.1429 0 0 1 -1.143 1.143 1.1429 1.1429 0 0 1 -1.143-1.143 1.1429 1.1429 0 0 1 1.143-1.143z" fill="#fff"/><path d="m31.979 23.424a8 8 0 0 1 -7.979 7.576 8 8 0 0 1 -7.979-7.424 8 8 0 0 0 -.021.424 8 8 0 0 0 8 8 8 8 0 0 0 8-8 8 8 0 0 0 -.02148-.57617z" opacity=".2"/></svg>