<svg height="32" width="32" xmlns="http://www.w3.org/2000/svg"><rect fill="#959595" fill-rule="evenodd" height="28.203388" ry="5.575182" width="28.203388" x="1.898306" y="1.898306"/><path d="m15.999935 7.3977808c-3.00745 0-5.576845.9895162-6.6413682 2.3898718-.0893603.117565-.1686117.2372954-.2360477.3603374-.0640951.116934-.1188842.235331-.1620301.35661a7.169472 3.8237662 0 0 0 -.030011.11203c-.024577.08219-.051419.164468-.066016.248322a7.169472 3.8237662 0 0 0 -.033998.356609c.0003943.124247.013048.248337.036019.371537a7.169472 3.8237662 0 0 0  .098021.358473 7.169472 3.8237662 0 0 0  .1660307.35661 7.169472 3.8237662 0 0 0  .2280465.347275 7.169472 3.8237662 0 0 0 6.6413688 2.389872 7.169472 3.8237662 0 0 0 6.641369-2.389872 7.169472 3.8237662 0 0 0  .0022-.0037 7.169472 3.8237662 0 0 0  .194035-.294995c.01133-.01939.02521-.03842.036-.05787a7.169472 3.8237662 0 0 0  .118024-.253914c.01672-.04001.03773-.07922.05202-.119487a7.169472 3.8237662 0 0 0  .05801-.212847c.01377-.05606.02886-.111643.03801-.168038a7.169472 3.8237662 0 0 0  .02995-.322999 7.169472 3.8237662 0 0 0 -.03801-.380871c-.065993-.372843-.236627-.725581-.487558-1.0553766-1.065384-1.4009148-3.634922-2.3903023-6.641799-2.3903023zm-6.6413682 7.1694722a7.169472 3.8237662 0 0 0 -.5281033 1.433894 7.169472 3.8237662 0 0 0 7.1694715 3.823766 7.169472 3.8237662 0 0 0 7.169472-3.824196 7.169472 3.8237662 0 0 0 -.527673-1.433894 7.169472 3.8237662 0 0 1 -6.641799 2.390302 7.169472 3.8237662 0 0 1 -6.6417984-2.390302zm0 4.7796a7.169472 3.8237662 0 0 0 -.5281033 1.433894 7.169472 3.8237662 0 0 0 7.1694715 3.824197 7.169472 3.8237662 0 0 0 7.169472-3.823766 7.169472 3.8237662 0 0 0 -.528103-1.433895 7.169472 3.8237662 0 0 1 -6.641799 2.390302 7.169472 3.8237662 0 0 1 -6.6417986-2.390302z" fill="#4d4d4d"/></svg>