<svg height="32" width="32" xmlns="http://www.w3.org/2000/svg"><rect fill="#8e8e8e" height="22" rx="2" transform="matrix(0 -1 -1 0 0 0)" width="28" x="-30" y="-27"/><path d="m16 6c-3.866 0-7 3.134-7 7v7h7c3.866 0 7-3.134 7-7s-3.134-7-7-7zm0 3a4 4 0 0 1 4 4 4 4 0 0 1 -4 4 4 4 0 0 1 -4-4 4 4 0 0 1 4-4z" opacity=".5"/><path d="m7 2c-1.108 0-2 .892-2 2v1c0-1.108.892-2 2-2h18c1.108 0 2 .892 2 2v-1c0-1.108-.892-2-2-2z" fill="#fff" opacity=".2"/><path d="m5 28v1c0 1.108.892 2 2 2h18c1.108 0 2-.892 2-2v-1c0 1.108-.892 2-2 2h-18c-1.108 0-2-.892-2-2z" opacity=".2"/><circle cx="24" cy="23" fill="#4daaf5" fill-rule="evenodd" r="8"/><g fill="#fff"><path d="m23 22h3v6h-3z"/><path d="m23 18h3v3h-3z"/></g><path d="m31.979 23.424a8 8 0 0 1 -7.979 7.576 8 8 0 0 1 -7.979-7.424 8 8 0 0 0 -.021.424 8 8 0 0 0 8 8 8 8 0 0 0 8-8 8 8 0 0 0 -.02148-.57617z" opacity=".2"/></svg>