<svg height="32" width="32" xmlns="http://www.w3.org/2000/svg"><path d="m13.134 2.0005c-.29681.0323-.55825.27515-.6125.56874l-.59061 2.9968c-1.0603.41466-2.0568.98438-2.9312 1.6844l-2.909-.9844c-.30225-.10422-.66885.0308-.83124.30625l-2.8 4.8562c-.15772.2793-.0901.66583.15312.87499l2.3187 2.0343c-.0816.54547-.13125 1.0943-.13125 1.6625 0 .56822.0496 1.117.13125 1.6625l-2.3187 2.0344c-.24319.20916-.31084.59569-.15312.87499l2.8 4.8562c.16239.2754.52899.41046.83124.30624l2.9093-.98436c.87441.69997 1.8709 1.2697 2.9312 1.6844l.59061 2.9968c.0599.3137.35879.56439.67812.56874h5.5999c.31933-.004.61824-.25504.67811-.56874l.59062-2.9968c1.0603-.41466 2.0568-.98439 2.9312-1.6844l2.9093.98436c.30224.10422.66885-.0308.83124-.30624l2.8-4.8562c.15771-.2793.0901-.66583-.15312-.87499l-2.3187-2.0344c.0816-.54547.13124-1.0942.13124-1.6625 0-.56822-.0497-1.117-.13124-1.6625l2.3187-2.0343c.24319-.20916.31083-.59569.15312-.87499l-2.8-4.8562c-.16239-.2754-.529-.41047-.83124-.30625l-2.9093.98436c-.875-.7005-1.871-1.2702-2.931-1.6849l-.59062-2.9968c-.0599-.3137-.35878-.5644-.67811-.56874h-5.5999c-.0219-.00051-.0438-.00051-.0656 0z" fill="#6f7368"/><path d="m13.125 2.0001c-.29681.0323-.5395.26891-.59375.5625l-.59375 3c-1.0603.41466-2.0631.98753-2.9375 1.6875l-2.9058-.9688c-.30225-.10422-.68136.006-.84375.28125l-2.6875 4.6875c.01904.0215.04057.0436.0625.0625l.3125.28125 2.3125-4.0312c.16239-.27545.5415-.38547.84375-.28125l2.9062.96875c.87441-.69997 1.8772-1.2728 2.9375-1.6875l.59375-3c .0542-.29359.29694-.5302.59375-.5625.0218-.00051.0406-.00051.0625 0h5.625c.31933.004.59635.2488.65625.5625l.59375 3c1.0603.41466 2.0631.98753 2.9375 1.6875l2.9062-.96875c.30224-.10422.68136.006.84375.28125l2.3125 4.0312.3125-.28125c.0219-.0189.0435-.041.0625-.0625l-2.6875-4.6875c-.16239-.2754-.54151-.38547-.84375-.28125l-2.9062.96875c-.87441-.69997-1.8772-1.2728-2.9375-1.6875l-.59375-3c-.0599-.3137-.33692-.55816-.65625-.5625h-5.625c-.0219-.00051-.0407-.00051-.0625 0zm-10.719 9.6562c-.01685.0926-.01947.15743 0 .25-.01419-.0788-.01174-.17122 0-.25zm27.188 0c .0118.0788.0142.17115 0 .25.0195-.0926.0169-.15743 0-.25zm-24.75 3.5938c-.006.082.0046.1671 0 .25.0085.16951.02035.33388.03125.5.01435-.21861.02988-.43823.0625-.65625zm22.312 0-.0937.0937c.0326.21802.0482.43764.0625.65625.0109-.16612.0228-.33049.0312-.5-.005-.0829.006-.16804 0-.25zm-22.312 2.5-2.2188 1.9375c-.02193.0189-.04342.041-.0625.0625l.375.65625 2-1.75c-.04536-.303-.07118-.59845-.09375-.90625zm22.312 0c-.0226.3078-.0484.60325-.0937.90625l2 1.75.375-.65625c-.0191-.0215-.0406-.0436-.0625-.0625z" fill="#fff" opacity=".1"/><path d="m2.5664 12.2429-.10742.18555c-.15772.2793-.088923.66584.1543.875l2.2187 1.947c.022588-.30668.054444-.6102.099609-.91211l-2.3183-2.035c-.0196-.018-.0296-.042-.0469-.061zm26.867 0c-.01729.019-.02729.0437-.04687.06055l-2.3184 2.0352c.04513.30191.07701.60543.09961.91211l2.2188-1.9473c.24319-.20916.31201-.5957.1543-.875l-.107-.186zm-24.611 4.258c-.00833.16613-.021484.33085-.021484.5 0 .25372.013035.5026.03125.75l.099609-.08789c-.0574-.383-.0898-.77-.1094-1.162zm22.355 0c-.01966.39194-.05207.77902-.10938 1.1621l.09961.08789c.01822-.2474.03125-.49628.03125-.75 0-.16915-.01315-.33387-.02148-.5zm-24.611 4.258c-.1973.217-.2524.557-.1074.814l2.8008 4.8555c.16239.2754.52783.41086.83008.30664l2.9101-.985c.87441.69997 1.8714 1.2709 2.9316 1.6855l.58984 2.9961c.0599.3137.3584.56401.67774.56836h5.6016c.31933-.004.61786-.25466.67774-.56836l.58984-2.9961c1.059-.415 2.056-.986 2.93-1.686l2.9102.98438c.30224.10422.66769-.0312.83008-.30664l2.8008-4.8555c.14501-.2568.0899-.59757-.10742-.81445l-2.6934 4.6699c-.16239.27544-.52784.41086-.83008.30664l-2.911-.985c-.87441.69997-1.8714 1.2689-2.9316 1.6836l-.58984 2.998c-.059.313-.358.564-.677.568h-5.6016c-.31933-.0043-.61784-.25466-.67774-.56836l-.589-2.998c-1.061-.415-2.0576-.984-2.932-1.684l-2.9102.984c-.3022.105-.6676-.031-.83-.306l-2.6934-4.67z" opacity=".2"/><path d="m19.699219 2.000383c-.7 0-.699219.7324219-.699219.7324219v9.0777421c-.883343-.511817-1.905636-.810547-3-.810547-3.3137 0-6 2.6863-6 6s2.6863 6 6 6 6-2.6863 6-6v-11.999617s1.409456 1.2171676 1.884766 2.4785156c.242945.644713.241823 1.30062-.316407 1.8125-.453263.259997-.601109.6618441-.521484 1.0117184.120915.531315.766055.944649 1.664063.5625 1.349274-.703481 1.789062-1.9656234 1.789062-3.0156246 0-3.15-4.000781-5.8496094-6.800781-5.8496094z" opacity=".2"/><path d="m19.699219 1.000283c-.7 0-.699219.7324219-.699219.7324219v9.0777421c-.883343-.511817-1.905636-.810547-3-.810547-3.3137 0-6 2.6863-6 6s2.6863 6 6 6 6-2.6863 6-6v-11.999617s1.409456 1.2171676 1.884766 2.4785156c.242945.644713.241823 1.30062-.316407 1.8125-.453263.259997-.601109.6618441-.521484 1.0117184.120915.531315.766055.944649 1.664063.5625 1.349274-.703481 1.789062-1.9656234 1.789062-3.0156246 0-3.15-4.000781-5.8496094-6.800781-5.8496094z" fill="#5dcd18"/><path d="m19.699219 1c-.7 0-.699219.7324219-.699219.7324219v1s-.000781-.7324219.699219-.7324219c2.624433 0 6.304769 2.3724126 6.755859 5.2636719.015093-.13836.044922-.2809509.044922-.4140625 0-3.15-4.000781-5.8496094-6.800781-5.8496094zm4.246093 6.6992188c-.07201.2096018-.180032.4112264-.376953.5917968-.453263.259997-.601109.6618445-.521484 1.0117188.026233.1152718.089297.2191598.162109.3164062.087535-.1203562.197329-.235173.359375-.328125.494575-.4535098.539274-1.0201275.376953-1.5917968zm-7.945312 2.3007812c-3.3137 0-6 2.6863-6 6 0 .168849.011714.334681.025391.5.254737-3.079097 2.829758-5.5 5.974609-5.5 1.094364 0 2.116657.29873 3 .810547v-1c-.883343-.511817-1.905636-.810547-3-.810547z" fill="#fff" opacity=".2"/></svg>