<svg height="32" width="32" xmlns="http://www.w3.org/2000/svg"><path d="m13.697671 26.982025c-4.627959-.089757-6.5063808-.169009-7.6550249-.322972-.8423449-.112912-1.2560169-.222988-1.7225739-.458371-.7705739-.388757-1.2498079-.930858-1.5956568-1.804978-.316204-.799169-.444955-1.433912-.563115-2.776204-.133343-1.514785-.143766-1.789015-.157612-4.149165-.01631-2.775543.01652-3.685064.199185-5.527319.095788-.965804.235396-1.607662.497721-2.2883106.2389029-.6198536.4570159-.9619436.8536849-1.3389236.49854-.4737936 1.0460589-.7618129 1.7372529-.9138572 1.031688-.2269464 5.6947588-.401925 10.7108748-.401925s9.679187.1749786 10.710874.401925c.746109.1641264 1.293705.4672843 1.827987 1.0120007.418166.4263315.633542.8137236.889847 1.6005967.264096.810781.365379 1.528316.515445 3.651661.07126 1.008346.07125 5.650096 0 6.657946-.08338 1.179026-.185696 2.228978-.253827 2.604671-.175154.96589-.519162 1.87023-.907011 2.384407-.266098.352765-.791392.773091-1.230649.984729-.444787.214304-.86856.320549-1.551724.389055-2.116947.212278-8.58142.367272-12.30565.295034z" opacity=".2"/><path d="m13.697671 25.982025c-4.627959-.089757-6.5063808-.169009-7.6550249-.322972-.8423449-.112912-1.2560169-.222988-1.7225739-.458371-.7705739-.388757-1.2498079-.930858-1.5956568-1.804978-.316204-.799169-.444955-1.433912-.563115-2.776204-.133343-1.514785-.143766-1.789015-.157612-4.149165-.01631-2.775543.01652-3.685064.199185-5.527319.095788-.9658038.235396-1.6076616.497721-2.2883102.2389029-.6198536.4570159-.9619436.8536849-1.3389236.49854-.4737936 1.0460589-.7618129 1.7372529-.9138572 1.031688-.2269464 5.6947588-.401925 10.7108748-.401925s9.679187.1749786 10.710874.401925c.746109.1641264 1.293705.4672843 1.827987 1.0120007.418166.4263315.633542.8137236.889847 1.6005965.264096.8107807.365379 1.5283158.515445 3.6516608.07126 1.008346.07125 5.650096 0 6.657946-.08338 1.179026-.185696 2.228978-.253827 2.604671-.175154.96589-.519162 1.87023-.907011 2.384407-.266098.352765-.791392.773091-1.230649.984729-.444787.214304-.86856.320549-1.551724.389055-2.116947.212278-8.58142.367272-12.30565.295034z" fill="#c2352a"/><path d="m16.116582 19.265163c3.968607-2.257951 3.883277-2.208427 3.883277-2.253758 0-.04242-6.946498-4.034251-6.980369-4.011279-.02288.01553-.02713 7.967633-.0046 7.992726.0085.0092.03251.0096.05341.000733.02091-.0089 1.392524-.786648 3.047958-1.728509z" opacity=".2"/><path d="m16.116582 18.265149c3.968607-2.257951 3.883277-2.208427 3.883277-2.253758 0-.04242-6.946498-4.034251-6.980369-4.011279-.02288.01553-.02713 7.967633-.0046 7.992726.0085.0092.03251.0096.05341.000733.02091-.0089 1.392524-.786648 3.047958-1.728509z" fill="#fff"/><path d="m16.001953 6c-5.016116 0-9.6792494.1753973-10.7109374.4023438-.691194.1520442-1.2377881.4402688-1.7363281.9140624-.396669.37698-.6146127.7180371-.8535156 1.3378907-.262325.6806486-.4022589 1.3232587-.4980469 2.2890621-.182665 1.842255-.2155288 2.751801-.1992188 5.527344.00107.182223.00477.210256.00586.369141-.0047804-2.180336.0292011-3.240884.1933588-4.896485.095788-.965804.2357219-1.608414.4980469-2.2890621.2389029-.6198536.4568466-.9609107.8535156-1.3378907.49854-.4737935 1.0451341-.7620182 1.7363281-.9140624 1.031688-.2269465 5.6948214-.4023438 10.7109374-.4023438s9.679251.1753974 10.710938.4023438c.746109.1641263 1.293843.4670023 1.828125 1.0117187.418166.4263315.63432.8127363.890625 1.5996095.264096.810781.365559 1.528999.515625 3.652344.03028.428473.04038 1.64708.04492 2.830078.0062-1.601057-.0039-3.250161-.04492-3.830078-.150066-2.123345-.251529-2.8415634-.515625-3.6523441-.256305-.7868729-.472459-1.1732779-.890625-1.5996094-.534282-.5447164-1.082016-.8475924-1.828125-1.0117187-1.031687-.2269465-5.694822-.4023438-10.710938-.4023438z" fill="#fff" opacity=".2"/><circle cx="24.5" cy="23.5" fill="#03a9f4" r="7.5"/><path d="m26 19v4h1.5l-3 4-3-4h1.5v-4zm-5 8.0002h7v1h-7z" fill="#fff"/><path d="m31.979 23.947a7.5 7.5 0 0 1 -7.479 7.053 7.5 7.5 0 0 1 -7.479-6.947 7.5 7.5 0 0 0 -.021.447 7.5 7.5 0 0 0 7.5 7.5 7.5 7.5 0 0 0 7.5-7.5 7.5 7.5 0 0 0 -.021-.553z" opacity=".2"/></svg>