<svg height="32" width="32" xmlns="http://www.w3.org/2000/svg"><path d="m3.4003906 31c-.7756 0-1.4003906-.624791-1.4003906-1.400391v-1c0 .7756.6247906 1.400391 1.4003906 1.400391h12.5996094 12.599609c.7756 0 1.400391-.624791 1.400391-1.400391v1c0 .7756-.624791 1.400391-1.400391 1.400391h-12.599609z" opacity=".2"/><path d="m16 2h-12.6c-.7756 0-1.4.6244-1.4 1.4v12.6h14z" fill="#fe4b71"/><path d="m16 2h12.6c.7756 0 1.4.6244 1.4 1.4v12.6h-14z" fill="#2086e7"/><path d="m16 30h-12.6c-.7756 0-1.4-.6244-1.4-1.4v-12.6h14z" fill="#ff8c2a"/><path d="m16 30h12.6c.7756 0 1.4-.6244 1.4-1.4v-12.6h-14z" fill="#6655e4"/><path d="m3.4003906 2c-.7756 0-1.4003906.6247906-1.4003906 1.4003906v1c0-.7756.6247906-1.4003906 1.4003906-1.4003906h12.5996094 12.599609c.7756 0 1.400391.6247906 1.400391 1.4003906v-1c0-.7756-.624791-1.4003906-1.400391-1.4003906h-12.599609z" fill="#fff" opacity=".2"/><path d="m6 6h20v20h-20z" fill="#3f3f3f"/><g fill="none" stroke-linecap="round" stroke-width="2"><path d="m9.0002434 23.9999h7.9999996" opacity=".2" stroke="#000"/><path d="m9.0002434 23h7.9999996" stroke="#fff"/><path d="m9.0002424 17.999758h3.9999976m-3.9999976-8.0000024h3.9999976m-1.999997 8.0000024v-8.0000024" opacity=".2" stroke="#000"/><path d="m9.0002424 16.999858h3.9999976m-3.9999976-8.0000024h3.9999976m-1.999997 8.0000024v-8.0000024" stroke="#fff"/><path d="m17.000244 16.999755v1.000003h.999999c3.915832-.115049 2.999191-6.887989 3-8.0000024" opacity=".2" stroke="#000" stroke-linejoin="round"/><path d="m17.000244 15.999855v1.000003h.999999c3.915832-.115049 2.999191-6.887989 3-8.0000024" stroke="#fff" stroke-linejoin="round"/></g></svg>