<svg height="32" width="32" xmlns="http://www.w3.org/2000/svg"><path d="m12.5 4c-3.0376 0-5.5 2.462-5.5 5.5s2.4624 5.5 5.5 5.5c.508-.002 1.012-.074 1.5-.215v12.215c0 2 2 2 4 2 7 0 7-8.333 7-11-1 1-7 8-7 2.666 0-3.782.024-7.597 0-11.363-.106-2.9573-2.542-5.3-5.5-5.303z" fill="#4f4f4f"/><path d="m12.5 9a1.5 1.5 0 0 1 1.5 1.5 1.5 1.5 0 0 1 -1.5 1.5 1.5 1.5 0 0 1 -1.5-1.5 1.5 1.5 0 0 1 1.5-1.5z" opacity=".2"/><path d="m12.5 8a1.5 1.5 0 0 1 1.5 1.5 1.5 1.5 0 0 1 -1.5 1.5 1.5 1.5 0 0 1 -1.5-1.5 1.5 1.5 0 0 1 1.5-1.5z" fill="#fff"/><path d="m12.5 4c-3.0376 0-5.5 2.462-5.5 5.5 0 .1688.0105.3351.0254.5.2529-2.8033 2.6057-5 5.4746-5 2.958.003 5.394 2.3454 5.5 5.303-.001-.3324.002-.6688 0-1.0003-.106-2.9573-2.542-5.2997-5.5-5.3027zm12.5 14c-1 1-7 8-7 2.666v1c0 5.324 5.971-1.634 6.988-2.654.008-.376.012-.74.012-1.012z" fill="#fff" opacity=".1"/><path d="m7.0254 10c-.0149.165-.0254.331-.0254.5 0 3.038 2.4624 5.5 5.5 5.5.508-.002 1.012-.07384 1.5-.21484v-1c-.488.141-.992.213-1.5.215-2.8689 0-5.2217-2.197-5.4746-5zm17.975 9-.01172.01172c-.065 3.302-.703 9.988-6.988 9.988-2 0-4 0-4-2v1c0 2 2 2 4 2 7 0 7-8.333 7-11z" opacity=".2"/></svg>