<svg height="32" width="32" xmlns="http://www.w3.org/2000/svg"><rect fill="#826f3d" height="24" rx="1.4" ry="1.5" transform="scale(-1 1)" width="28" x="-30" y="4"/><path d="m4 7h24v14h-24z" opacity=".2"/><path d="m4 6h24v14h-24z" fill="#fff"/><g fill="#ff6e6e" transform="translate(1)"><path d="m12-13h2v6h-2z" transform="rotate(90)"/><path d="m8-13h2v6h-2z" transform="rotate(90)"/><path d="m7 8h2v10h-2z"/></g><circle cx="26.5" cy="24.5" fill="#01d900" r="1.5"/><path d="m4 21h14v1h-14z" opacity=".4"/><path d="m3.4004 4c-.7756 0-1.4004.669-1.4004 1.5v1c0-.831.6248-1.5 1.4004-1.5h25.2c.775 0 1.4.669 1.4 1.5v-1c0-.831-.625-1.5-1.4-1.5z" fill="#fff" opacity=".2"/><path d="m2 26.5v1c0 .831.6248 1.5 1.4004 1.5h25.2c.775 0 1.4-.669 1.4-1.5v-1c0 .831-.625 1.5-1.4 1.5h-25.2c-.7752 0-1.4-.669-1.4-1.5z" opacity=".2"/><g fill="#ff6e6e" transform="matrix(0 1 -1 0 33 5)"><g transform="rotate(90)"><path d="m16-13h2v6h-2z"/><path d="m12-13h2v6h-2z"/><path d="m8-13h2v6h-2z"/></g><path d="m7 8h2v10h-2z"/></g><path d="m4 23h14v1h-14z" opacity=".4"/><path d="m4 25h14v1h-14z" opacity=".4"/></svg>