<svg height="32" viewBox="0 0 32 32" width="32" xmlns="http://www.w3.org/2000/svg"><rect height="20" opacity=".2" rx="1.5" width="20" x="2" y="3"/><rect fill="#fecd38" height="20" rx="1.5" width="20" x="2" y="2"/><path d="m2 8.5v10h7.5c-2.590571-7.292861-5.181077-9.859282-7.5-10z" opacity=".2"/><rect height="20" opacity=".2" rx="1.5" width="20" x="6" y="7"/><path d="m2 8v10h7.5c-2.590571-7.292861-5.181077-9.859282-7.5-10z" fill="#9d9d9d"/><rect fill="#e97e10" height="20" rx="1.5" width="20" x="6" y="6"/><path d="m6 12v10h7.5c-2.590571-7.292861-5.181077-9.859282-7.5-10z" opacity=".2"/><rect height="20" opacity=".2" rx="1.5" width="20" x="10" y="11"/><path d="m6 11.5v10h7.5c-2.590571-7.292861-5.181077-9.859282-7.5-10z" fill="#7d7d7d"/><rect fill="#df574d" height="20" rx="1.5" width="20" x="10" y="10"/><circle cx="16" cy="20.5" fill="#fecd38" r="3"/><path d="m3.5 2c-.831 0-1.5.669-1.5 1.5v1c0-.831.669-1.5 1.5-1.5h17c .831 0 1.5.669 1.5 1.5v-1c0-.831-.669-1.5-1.5-1.5z" fill="#fff" opacity=".2"/><g opacity=".2" transform="matrix(.5 0 0 .5 0 .5)"><path d="m20 31v20h15c-5.181142-14.585722-10.362154-19.718564-15-20z"/><path d="m28 51h32c-16-45-32 0-32 0z"/></g><path d="m16 17.5c-1.656854 0-3 1.343146-3 3 0-1.380712 1.343146-2.5 3-2.5s3 1.119288 3 2.5c0-1.656854-1.343146-3-3-3zm3 3h-6z" fill="#fff" opacity=".2"/><path d="m10 15.5v10h7.5c-2.590571-7.292861-5.181077-9.859282-7.5-10z" fill="#5d5d5d"/><path d="m14 25.5h16c-8-22.5-16 0-16 0z" fill="#e4e4e4"/><path d="m22.407226 15.501953c-4.796295-.158701-8.407226 9.998047-8.407226 9.998047s8-21.375 16 0c-2.625-7.382813-5.250397-9.920542-7.592774-9.998047z" fill="#fff" opacity=".2"/></svg>