<svg height="32" width="32" xmlns="http://www.w3.org/2000/svg"><rect height="24" opacity=".2" rx="12" transform="matrix(0 -1 -1 0 0 0)" width="24" x="-29" y="-28"/><rect fill="#4ca341" height="24" rx="12" transform="matrix(0 -1 -1 0 0 0)" width="24" x="-28" y="-28"/><path d="m16 4c-6.648 0-12 5.352-12 12 0 .168838.018553.3329.0253906.5.2623937-6.412456 5.4954474-11.5 11.9746094-11.5s11.712216 5.087544 11.974609 11.5c.006838-.1671.025391-.331162.025391-.5 0-6.648-5.352-12-12-12z" fill="#fff" opacity=".2"/><path d="m16 3a14 14 0 0 0 -6.5 1.609375 14 14 0 0 1 7.5 12.390625 14 14 0 0 1 -7.5 12.390625 14 14 0 0 0 6.5 1.609375 14 14 0 0 0 14-14 14 14 0 0 0 -14-14z" opacity=".2"/><path d="m16 2a14 14 0 0 0 -6.5 1.609375 14 14 0 0 1 7.5 12.390625 14 14 0 0 1 -7.5 12.390625 14 14 0 0 0 6.5 1.609375 14 14 0 0 0 14-14 14 14 0 0 0 -14-14z" fill="#e4e4e4"/><path d="m16 2a14 14 0 0 0 -6.5 1.609375 14 14 0 0 1  .939453.5546875 14 14 0 0 1 5.560547-1.1640625 14 14 0 0 1 13.978516 13.585938 14 14 0 0 0  .021484-.585938 14 14 0 0 0 -14-14zm .976562 14.470703a14 14 0 0 1 -7.476562 11.919922 14 14 0 0 0  .958984.443359 14 14 0 0 0 6.541016-11.833984 14 14 0 0 0 -.023438-.529297z" fill="#fff" opacity=".2"/></svg>