<svg height="32" width="32" xmlns="http://www.w3.org/2000/svg"><rect fill="#ffbd8e" height="28" rx="14" transform="matrix(0 -1 -1 0 0 0)" width="28" x="-30" y="-30"/><path d="m16 2c-7.756 0-14 6.244-14 14 0 .169.0195.333.0254.5.2637-7.5206 6.3874-13.5 13.975-13.5 7.5872 0 13.711 5.9794 13.975 13.5.006-.16736.0254-.33116.0254-.5 0-7.756-6.244-14-14-14z" fill="#fff" opacity=".1"/><path d="m2.0254 16.5c-.0059.167-.0254.331-.0254.5 0 7.756 6.244 14 14 14s14-6.244 14-14c0-.16884-.01952-.33264-.02539-.5-.264 7.521-6.388 13.5-13.975 13.5-7.5872 0-13.711-5.979-13.975-13.5z" opacity=".2"/><g fill="#4d4d4d" transform="matrix(.7 0 0 .7 -37.937 2.2578)"><ellipse cx="69.91" cy="12.489" rx="2.857" ry="2.857"/><circle cx="84.196" cy="12.489" r="2.857"/><path d="m69.444 24.355a8.7947 10.554 0 0 0 7.6094 5.2768 8.7947 10.554 0 0 0 7.6026-5.2768h-1.0684a8.7947 10.554 0 0 1 -6.5342 3.5179 8.7947 10.554 0 0 1 -6.5376-3.5179z"/></g><path d="m16 14a4 3 0 0 0 -4 3 4 3 0 0 0 4 3 4 3 0 0 0 4-3 4 3 0 0 0 -4-3zm-2 2a1 1 0 0 1 1 1 1 1 0 0 1 -1 1 1 1 0 0 1 -1-1 1 1 0 0 1 1-1zm4 0a1 1 0 0 1 1 1 1 1 0 0 1 -1 1 1 1 0 0 1 -1-1 1 1 0 0 1 1-1z" fill="#4d4d4d"/></svg>