<svg height="32" width="32" xmlns="http://www.w3.org/2000/svg"><rect height="8" opacity=".2" ry=".667" width="10" x="19" y="20"/><path d="m4.375 3c-.76175 0-1.375.6244-1.375 1.4v25.2c0 .7756.61325 1.4 1.375 1.4h2.7352296 16.5147704c.76175 0 1.375-.6244 1.375-1.4v-25.2c0-.7756-.61325-1.4-1.375-1.4h-9.63977-6.8750004z" opacity=".2"/><rect fill="#55b65a" height="8" ry=".667" width="10" x="17" y="5"/><path d="m17.666016 5c-.369334 0-.666016.2966823-.666016.6660156v1c0-.3693333.296682-.6660156.666016-.6660156h8.667968c.369334 0 .666016.2966823.666016.6660156v-1c0-.3693333-.296682-.6660156-.666016-.6660156z" fill="#fff" opacity=".2"/><rect fill="#fec006" height="8" ry=".667" width="10" x="18" y="12"/><rect fill="#fe6c06" height="8" ry=".667" width="10" x="19" y="19"/><path d="m19.666016 19c-.369334 0-.666016.296682-.666016.666016v1c0-.369334.296682-.666016.666016-.666016h8.667968c.369334 0 .666016.296682.666016.666016v-1c0-.369334-.296682-.666016-.666016-.666016z" fill="#fff" opacity=".2"/><path d="m18.666016 12c-.369334 0-.666016.296682-.666016.666016v1c0-.369334.296682-.666016.666016-.666016h8.667968c.369334 0 .666016.296682.666016.666016v-1c0-.369334-.296682-.666016-.666016-.666016z" fill="#fff" opacity=".2"/><path d="m4.375 2c-.76175 0-1.375.6244-1.375 1.4v25.2c0 .7756.61325 1.4 1.375 1.4h2.7352296 16.5147704c.76175 0 1.375-.6244 1.375-1.4v-25.2c0-.7756-.61325-1.4-1.375-1.4h-9.63977-6.8750004z" fill="#3f89db"/><path d="m14 9.0002c-4.4183 0-8 3.5817-8 8s3.5817 8 8 8h5s .9375 0 1-1c0-1-1-1-1-1h-5c-3.3137 0-6-2.6863-6-6s2.6863-6 6-6 6 2.6863 6 6v1c0 .55228-.44772 1-1 1s-1-.44772-1-1v-1c0-2.2091-1.7909-4-4-4s-4 1.7909-4 4 1.7909 4 4 4c1.0462 0 1.9903-.4109 2.7031-1.0684.57.677 1.411 1.068 2.297 1.068 1.6568 0 3-1.3432 3-3v-1c0-4.418-3.582-8-8-8zm0 6c1.1046 0 2 .89543 2 2s-.89543 2-2 2-2-.89543-2-2 .89543-2 2-2z" opacity=".2"/><path d="m14 8.0002c-4.4183 0-8 3.5817-8 8s3.5817 8 8 8h5s .9375 0 1-1c0-1-1-1-1-1h-5c-3.3137 0-6-2.6863-6-6s2.6863-6 6-6 6 2.6863 6 6v1c0 .55228-.44772 1-1 1s-1-.44772-1-1v-1c0-2.2091-1.7909-4-4-4s-4 1.7909-4 4 1.7909 4 4 4c1.0462 0 1.9903-.4109 2.7031-1.0684.57.677 1.411 1.068 2.297 1.068 1.6568 0 3-1.3432 3-3v-1c0-4.418-3.582-8-8-8zm0 6c1.1046 0 2 .89543 2 2s-.89543 2-2 2-2-.89543-2-2 .89543-2 2-2z" fill="#fff"/><path d="m4.375 2c-.76175 0-1.375.6247906-1.375 1.4003906v1c0-.7756.61325-1.4003906 1.375-1.4003906h2.734375 6.875 9.640625c.76175 0 1.375.6247906 1.375 1.4003906v-1c0-.7756-.61325-1.4003906-1.375-1.4003906h-9.640625-6.875z" fill="#fff" opacity=".2"/></svg>