<svg height="32" width="32" xmlns="http://www.w3.org/2000/svg"><path d="m15.618 2.965045c-.28986.00468-.58326.023504-.87774.056055-4.615.5102-7.9769 4.3174-7.6599 8.5679l-1.0801.121.618 5.59 3.603-.398-.6185-5.592-1.3343.148c-.2473-3.6425 2.6398-6.8947 6.5978-7.3322 3.9556-.43725 7.4995 2.0993 8.0582 5.7039l-1.1744.12988.61797 5.5904 3.4781-.38418-.61797-5.5904-1.117.12305c-.589-3.9395-4.246-6.8025-8.493-6.734z" opacity=".2"/><path d="m15.087 6.0009751c-.48969.018861-.91996.27905-1.2578.66455-.3378.3855-.60464.89892-.82939 1.5015-.4495 1.2052-.72584 3.7770179-.87887 5.4027179s-.1792 2.302122-.10937 3.703622.20622 2.4922.49477 3.1012c.25238.53262.54559 1.1414.67185 1.6912s.09985.98796-.22395 1.3424c-.3238.35439-1.0381.67314-2.4114.74678-1.3732.07365-3.3799-.49235-6.225-1.02184-.45826-.08528-.84056-.0929-1.1731.01724-.33257.11015-.59292.35514-.75127.66455-.31671.61881-.34518 2.869718-.39191 4.045918-.01511.38033.12456.7429.36978 1.0399.24522.29703.58856.54051 1.0143.75342.85145.42582 2.0438.73278 3.5246.95106 2.9615.43654 7.0733.50534 11.744.23478l.0039-.0013h.0052c1.7191-.14157 4.4385-.24088 6.7836-.83698 1.1725-.29805 2.2567-.71792 3.0845-1.3596.82778-.64168 1.3947-1.5326 1.4505-2.6688.05188-1.0564-.0027-2.664378-.21484-3.172678-.21216-.50831-.66684-.77947-1.1341-.78923-.93446-.01952-2.0355.49228-3.4647.82768-1.64.38488-2.7971.220635-3.5845.160935-.78741-.05971-1.181.0062-1.4244-.306845-.2434-.31305-.35276-.77614-.40363-1.3649-.05086-.58877-.04493-1.2859-.12239-2.0202-.149-1.407-.43-3.702022-1.065-6.645022-.317-1.4712-.72-3.8558179-1.261-4.8971179-.271-.5206-.575-.9584-.94-1.2747-.365-.3162-.805-.5078-1.281-.4894z" opacity=".2"/><path d="m15.618 1.9650449c-.28986.00468-.58326.023504-.87774.056055-4.615.5102-7.9769 4.3174-7.6599 8.5679001l-1.0801.121.618 5.59 3.603-.398-.6185-5.592-1.3343.148c-.2473-3.6425001 2.6398-6.8947001 6.5978-7.3322001 3.9556-.43725 7.4995 2.0993 8.0582 5.7039l-1.1744.12988.61797 5.5904001 3.4781-.38418-.61797-5.5904001-1.117.12305c-.589-3.9395-4.246-6.8025-8.493-6.734z" fill="#4d4d4d"/><path d="m15.087 5.000975c-.48969.018861-.91996.27905-1.2578.66455-.3378.3855-.60464.89892-.82939 1.5015-.4495 1.2052-.72584 3.777018-.87887 5.402718s-.1792 2.302122-.10937 3.703622.20622 2.4922.49477 3.1012c.25238.53262.54559 1.1414.67185 1.6912s.09985.98796-.22395 1.3424c-.3238.35439-1.0381.67314-2.4114.74678-1.3732.07365-3.3799-.49235-6.225-1.02184-.45826-.08528-.84056-.0929-1.1731.01724-.33257.11015-.59292.35514-.75127.66455-.31671.61881-.34518 2.869718-.39191 4.045918-.01511.38033.12456.7429.36978 1.0399.24522.29703.58856.54051 1.0143.75342.85145.42582 2.0438.73278 3.5246.95106 2.9615.43654 7.0733.50534 11.744.23478l.0039-.0013h.0052c1.7191-.14157 4.4385-.24088 6.7836-.83698 1.1725-.29805 2.2567-.71792 3.0845-1.3596.82778-.64168 1.3947-1.5326 1.4505-2.6688.05188-1.0564-.0027-2.664378-.21484-3.172678-.21216-.50831-.66684-.77947-1.1341-.78923-.93446-.01952-2.0355.49228-3.4647.82768-1.64.38488-2.7971.220635-3.5845.160935-.78741-.05971-1.181.0062-1.4244-.306845-.2434-.31305-.35276-.77614-.40363-1.3649-.05086-.58877-.04493-1.2859-.12239-2.0202-.149-1.407-.43-3.702022-1.065-6.645022-.317-1.4712-.72-3.855818-1.261-4.897118-.271-.5206-.575-.9584-.94-1.2747-.365-.3162-.805-.5078-1.281-.4894z" fill="#974fa4"/><path d="m15.087891 5c-.48969.018861-.919973.2805156-1.257813.6660156-.3378.3855-.605328.8993732-.830078 1.5019532-.4495 1.2051999-.725876 3.7766432-.878906 5.4023432-.111687 1.186494-.136463 1.921926-.125 2.748047.020208-.501141.055898-1.013946.125-1.748047.15303-1.625699.429406-4.1971433.878906-5.4023432.22475-.60258.492278-1.1164532.830078-1.5019532.33784-.3855.768123-.6471546 1.257813-.6660156l-.001953.0019531c.475999-.0184.91625.1740344 1.28125.4902344.364999.3163.668453.7528375.939453 1.2734375.541 1.0413.944718 3.425284 1.261718 4.896484.635 2.943.915453 5.239485 1.064453 6.646485.077461.7343.072187 1.430761.123047 2.019531.05087.58876.160897 1.052184.404297 1.365234.2434.313045.636418.246931 1.423828.306641.7874.0597 1.943985.224724 3.583985-.160156 1.4292-.3354 2.530383-.847645 3.464843-.828125.467261.00976.922606.280752 1.134766.789062.154767.370832.202097 1.30288.208984 2.203125.000639-.010994.005318-.020209.00586-.03125.05188-1.0564-.002704-2.663575-.214844-3.171875-.21216-.50831-.667505-.779302-1.134766-.789062-.93446-.01952-2.035643.492725-3.464843.828125-1.64.38488-2.796585.219856-3.583985.160156-.78741-.05971-1.180428.006404-1.423828-.306641-.2434-.31305-.353427-.776474-.404297-1.365234-.05086-.58877-.045586-1.285231-.123047-2.019531-.149-1.407-.429453-3.703485-1.064453-6.646485-.317-1.4712-.720718-3.855184-1.261718-4.896484-.271-.5206-.574454-.9571375-.939453-1.2734375-.365-.3162-.805251-.5086344-1.28125-.4902344zm-1.917969 17.041016c-.047475.130592-.111841.254437-.214844.367187-.3238.35439-1.038809.672454-2.412109.746094-1.3732003.07365-3.3795096-.491994-6.2246096-1.021485-.45826-.08528-.8412882-.092561-1.1738282.017579-.33257.11015-.5936031.354652-.7519531.664062-.31671.61881-.343895 2.870675-.390625 4.046875-.0044583.11222.0061165.222179.0273438.330078.040926-1.222042.0940892-2.850987.3632812-3.376953.15835-.30941.4193831-.553912.7519531-.664062.33254-.11014.7155682-.102859 1.1738282-.017579 2.8451.52949 4.8514093 1.095135 6.2246096 1.021485 1.3733-.07364 2.088309-.391704 2.412109-.746094.3238-.35444.348916-.791997.222656-1.341797-.00186-.008101-.00588-.017264-.007812-.02539z" fill="#fff" opacity=".2"/><path d="m13.987 14.14989a2.9911 6.0006 2.5216 1 1 -5.9743-.301 2.9911 6.0006 2.5216 1 1 5.9743.301z" opacity=".2"/><path d="m13.987 13.14989a2.9911 6.0006 2.5216 1 1 -5.9743-.301 2.9911 6.0006 2.5216 1 1 5.9743.301z" fill="#fff"/><path d="m12.993 14.04789a1.4913261 2.0080352 6.8892 0 1 -2.9863-.09601 1.4913261 2.0080352 6.8892 0 1 2.9863.09601z" fill="#4d4d4d"/><path d="m22.937 13.68289a6.0260829 3.4507475 83.212 0 1 -6.874.63353 6.0260829 3.4507475 83.212 1 1 6.874-.63353z" opacity=".2"/><path d="m22.937 12.68289a6.0260829 3.4507475 83.212 0 1 -6.874.63353 6.0260829 3.4507475 83.212 1 1 6.874-.63353z" fill="#fff"/><path d="m20.947 14.13689a1.4388 2.0445 16.98 0 1 -2.8949-.27097 1.4388 2.0445 16.98 1 1 2.8949.27097z" fill="#4d4d4d"/></svg>