<svg height="32" viewBox="0 0 32 32" width="32" xmlns="http://www.w3.org/2000/svg"><path d="m13 3.0003076c-2.191009.0584775-3.476277 2.1282747-4.3984375 3.921875-.1752338.0928541-.3508928.1825808-.5253906.2792969-1.740689 1.1702912-3.1665066 2.7912729-4.2675781 4.5644535-.9685411 1.709584-1.5552729 3.611818-1.7734376 5.560547-.1296482 1.975741.0958554 3.987536.8398438 5.835937 1.4083891 3.174878 4.8947028 6.877482 8.125 6.837891-.699845-.404632-2.4515387-1.99068-3-5 .5822585 1.140374 3.211045 2.65286 4 3-.391947-.366012-1.896881-2.560828-2-3.849609l-5.0253906-1.544922c-.4434977-1.402891-.7075547-2.854548-.8691406-4.337891-.020632-.331459-.0627824-.689916.0566406-.601562.4467322.708033 1.0623852.931983 1.8378906 1.333984-.7354588-1.156737-1.0701174-2.482406-.9492188-3.857422.1213107-1.379702.8989846-2.717813 1.7539063-3.708984.1013172-.11599.2149118-.225854.3203125-.339844.045713.354968.1052068.709414.1464844 1.052734-.012278.265666.1509049.822721.023437.878907-.2571483.776811-.5035642 1.780706.1113281 2.458984.1947603-.877979 1.1531078-1.302589 1.9082031-1.671875.8535809-.370582 1.5454569-.930835 2.3906249-1.320312 1.113704-.638871 2.188496.302734 3.619141.302734 1.367777 0 2.812533-.791781 4.166015-1.400391.315001.325857.878677.855519 1.125 1.242188h-.0039c.705491 1.128284 1.194812 2.43931 1.355469 3.726562.200478 1.683718.03266 3.361753-.962891 4.636719.02052.0027 1.805098.130409 2.996094-1-.849742 6.570236-4.87845 10.082465-7 11 2.824197.190066 5-2 5-2 .410709-.584957-.992748 1.398133-2 2 1.845469-.516751 3.081511-.70496 4.246094-1.554688-.000436 0 .946341-.514535 1.933594-1.640624.131339-.14981.356974-.358689.492187-.529297.08405-.106058.161991-.21375.244141-.320313.01448-.01752.031-.03496.04492-.05273 2.077909-2.541944 3.088697-5.702434 3.013671-8.566406.0145865-3.471781-1.3947025-6.485127-3.7617215-8.9765674-1.711803-1.801781-3.655444-3.0030651-5.40625-3.5996094-2.268383-.6513838-5.066376-.9295734-7.06836-.5507812-.189587.063386.02773-1.042627.261719-1.2089844-.49911.046723-1.030395 1.0027346-1.462891 1.4160156-.03138.00734-.06991.013685-.09961.021484.266095-.5348561.149597-.9000548.562501-1.4374996-1.199026.2238524-1.4337 1.007868-1.849609 1.7910156-.158128.0533847-.311348.1186946-.466797.1777344.394019-1.3063348 1.110814-1.97161 2.316406-2.96875z" opacity=".2"/><path d="m40.403656-54.31234a20.426046 20.426046 0 1 1 40.153647-7.521834 20.426046 20.426046 0 1 1 -40.153647 7.521834z" fill="none"/><path d="m6.4261835 24.917543c1.2149782 1.747454 2.7833392 3.806382 4.5738165 4.082457-.699845-.404632-2.4515387-1.99068-3-5 .5822585 1.140374 3.211045 2.65286 4 3-.391947-.366012-1.896881-2.561219-2-3.85l-5.0443221-1.550755c.031428.04782.1430917 1.451275 1.4705056 3.318298z" fill="#304776"/><path d="m24.387733 13.494081-9.094871-3.189467-9.7467697.649475-2.4875753 3.104352c.4426297 2.869627.1676173 5.976021 1.709075 8.483118l17.232408 5.458441 2.373175-6.624157z" opacity=".2"/><path d="m24.387733 12.494081-9.094871-3.1894668-9.7467697.6494745-2.4875753 3.1043523c.4426297 2.869627.1676173 5.976021 1.709075 8.483118l17.232408 5.458441 2.373175-6.624157z" fill="#ebebeb"/><path d="m5.7794092 9.767613 1.6420561.23452.4508152-2.1975526-.9016311.4395103z" fill="#3f7da7" fill-rule="evenodd"/><path d="m23.647957 15.243162-1.349349-4.432597-16.5042791-.165645-.0935758.115305-.1546608.193864 6.2487427 8.836441z" opacity=".2"/><path d="m23.647957 14.243162-1.349349-4.4325967-16.5042791-.1656449-.0935758.1153048-.1546608.1938635 6.2487427 8.8364413z" fill="#f7f7f7"/><path d="m15.257336 4.1685036c-.0017.000396-2.075098.00999-2.980156.3006117-1.508106.3480266-2.8611361.9895862-4.2017312 1.7326162-1.740689 1.1702912-3.1662484 2.7906523-4.26732 4.5638325-.9685411 1.709584-1.5554445 3.61122-1.7736091 5.559949-.1296483 1.975741.096358 3.988932.8403464 5.837333 1.4083891 3.174878 4.8948367 6.876745 8.1251339 6.837154-.410318-.063267-.722764-.478786-1.1081722-.704109-1.296372-.757905-2.5290988-2.031352-3.4656443-3.378348-1.327414-1.867022-1.4388369-3.269835-1.4702645-3.31766l.017763.0055c-.4434977-1.402891-.7074548-2.853698-.8690407-4.337041-.020632-.331459-.062033-.690944.05739-.60259.4467322.708033 1.0624633.932247 1.8379687 1.334248-.7354588-1.156737-1.0708987-2.483004-.95-3.85802.1213106-1.379702.8997596-2.717284 1.7546813-3.708455 2.2397958-2.5641647 5.5079797-4.6385584 8.4526547-6.2650214z" fill="#2f67a4"/><path d="m15.257812 4.1679688c-.0017.000396-2.07541.01016-2.980468.3007812-1.508106.3480266-2.860577.9893919-4.2011721 1.7324219-1.740689 1.1702912-3.1665066 2.7912729-4.2675781 4.5644531-.9685411 1.709584-1.5552729 3.611818-1.7734376 5.560547-.036687.559089-.037621 1.119184-.013672 1.679687.00528-.22685-.00117-.453515.013672-.679687.2181646-1.948729.8048965-3.850963 1.7734376-5.560547 1.1010716-1.77318 2.5268891-3.3941619 4.2675781-4.5644531 1.3405951-.74303 2.6930661-1.3843953 4.2011721-1.7324219.276735-.0888619.663831-.1453683 1.066406-.1894531.643146-.3872462 1.287196-.7650847 1.914062-1.1113281z" fill="#fff" opacity=".1"/><path d="m12.999992 2.0000033c-2.369664.0632458-3.7004247 2.4899344-4.6342819 4.3628684-.336373.5953114-.6850355 1.3017253-.9788488 1.8640164-.5623358.8861034-.2322701 1.9502919-.1157137 2.9197349-.012278.265666.1504684.823433.023001.879619-.2571483.776811-.5021886 1.779195.1127037 2.457473.1947603-.877979 1.1529417-1.301021 1.908037-1.670307.8535807-.370582 1.5445067-.931983 2.3896747-1.32146 1.113704-.63887 2.189087.302528 3.619732.302528 1.367777 0 2.812717-.790601 4.166199-1.399211.315001.325857.878397.855127 1.12472 1.241796h-.0035c.705491 1.128284 1.194628 2.439901 1.355285 3.727153.200478 1.683718.0325 3.35997-.96305 4.634936-.000118.00002-.0079.0017-.0079.0017.000023 0 .0069-.000018.007 0 .02052.0027 1.805954.129559 2.99695-1.00085-.849742 6.570236-4.87845 10.082465-7 11 2.824197.190066 5-2 5-2 .410709-.584957-.992748 1.398133-2 2 1.845469-.516751 3.080933-.704546 4.245516-1.554273-.000436 0 .946324-.515161 1.933576-1.64125.131339-.14981.356986-.357691.492199-.528299.08405-.106058.161748-.214819.243898-.321382.01448-.01752.03099-.03418.04491-.05195 2.07791-2.541944 3.089855-5.702403 3.014829-8.566375.01459-3.471777-1.394493-6.485542-3.761512-8.9769823-1.711803-1.801781-3.655902-3.004055-5.406708-3.6005993-2.268383-.6513838-5.0671-.9290839-7.069084-.5502917-.189587.063386.028387-1.0422403.262376-1.2085977-.561305.052545-1.169684 1.296728-1.624507 1.5736653.373262-.6184114.175519-.9892535.624507-1.5736653-1.669122.3116171-1.464162 1.7042094-2.490267 2.67696.33806-1.8075407 1.08349-2.5134204 2.490267-3.67696z" fill="#4a96e1"/><path d="m8.310329 12c3.33365-.09595 1.2405084-2.1620208 5.689671-6.0000005-3.624709 1.8767704-7.0747441 1.8741709-5.6853704 6.0000005h-.0042z" fill="#4271a3"/><path d="m10.806094 10.319479c-.319638.583826-1.0654622.819131-1.4780492.599364-.421651-.219767-.419384-.9545437-.0929804-1.5383706.3151044-.5838269 1.7070056-.3218805 1.7138066-.3218805.0066 0 .176817.6792796-.142824 1.2608871z" fill="#fff"/><path d="m8.9104789 12.984083s.1795104-.173232.085935-.490002c-1.1190202.369987-1.6685026-.701151-1.6645981-.701151.00378 0-.8383575 2.20707.1668883 3.20707.087079-.823605 1.3701833-1.972836 1.3740878-1.972836" fill="#5c5f60"/><path d="m13 2c-2.369664.0632458-3.7009084 2.4903472-4.6347656 4.3632812-.336373.5953114-.6847024 1.3009902-.9785156 1.8632813-.3426631.5399529-.3452253 1.1473397-.2753907 1.7578125.0432797-.2611514.1228377-.5174264.2753907-.7578125.2938132-.5622911.6421426-1.2679699.9785156-1.8632813.7173483-1.438706 1.6756046-3.1929363 3.1523436-3.9628906.383835-.4653024.86598-.8905343 1.482422-1.4003906zm0 1c-1.406777 1.1635396-2.152174 1.8701937-2.490234 3.6777344.925838-.8776978.862143-2.0899778 2.064453-2.5488282.115716-.3831717.094961-.6983039.425781-1.1289062zm1 0c-.370443.034678-.75755.5810509-1.111328 1.0332031.040203-.0093345.068736-.0252514.111328-.0332031-.448988.5844118-.251738.9558073-.625 1.5742188.369374-.2249084.840223-1.0794073 1.304688-1.4238282-.058017-.2158319.123799-1.010677.320312-1.1503906zm1.367188 1.0429688c-.525978.015484-1.021819.065387-1.484376.1445312-.178331.3554668-.300838 1.0737436-.144531 1.0214844 2.001984-.3787922 4.799977-.1006026 7.06836.5507812 1.750806.5965443 3.694447 1.7978284 5.40625 3.5996094 2.298812 2.419649 3.682908 5.335591 3.748047 8.681641.0082-.235855.01976-.47264.01367-.705078.014591-3.471777-1.394698-6.485123-3.761717-8.976563-1.711803-1.801781-3.655444-3.0030651-5.40625-3.5996094-1.701288-.4885378-3.701397-.767963-5.439453-.7167968z" fill="#fff" opacity=".1"/></svg>