<svg height="32" width="32" xmlns="http://www.w3.org/2000/svg"><rect fill="#b87425" height="28" rx="14" transform="rotate(-90)" width="28" x="-30" y="2"/><path d="m14.4799 9.9965c3.0288 0 5.5312 2.4746 5.5312 5.5 0 1.1499-.38921 2.2078-1 3.0938l3.6875 3.6875a1.0055 1.0055 0 0 1 -1.4063 1.4375l-3.6875-3.6875c-.88729.61091-1.973.96875-3.125.96875-3.0289 0-5.5-2.4746-5.5-5.5s2.4711-5.5 5.5-5.5zm0 2c-1.9474 0-3.5 1.5548-3.5 3.5 0 1.9451 1.5526 3.5 3.5 3.5s3.5-1.5549 3.5-3.5c0-1.9452-1.5526-3.5-3.5-3.5z" opacity=".2"/><path d="m16.0008 2c7.756 0 14 6.244 14 14 0 .169-.0195.333-.0254.5-.2637-7.5206-6.3874-13.5-13.975-13.5-7.5872 0-13.711 5.9794-13.975 13.5-.006-.16736-.0254-.33116-.0254-.5 0-7.756 6.244-14 14-14z" fill="#fff" opacity=".2"/><path d="m14.4799 8.9945c3.0288 0 5.5312 2.4746 5.5312 5.5 0 1.1499-.38921 2.2078-1 3.0938l3.6875 3.6875a1.0055 1.0055 0 0 1 -1.4063 1.4375l-3.6875-3.6875c-.88729.61091-1.973.96875-3.125.96875-3.0289 0-5.5-2.4746-5.5-5.5s2.4711-5.5 5.5-5.5zm0 2c-1.9474 0-3.5 1.5548-3.5 3.5 0 1.9451 1.5526 3.5 3.5 3.5s3.5-1.5549 3.5-3.5c0-1.9452-1.5526-3.5-3.5-3.5z" fill="#fff"/><path d="m29.9754 16.5c.0059.167.0254.331.0254.5 0 7.756-6.244 14-14 14s-14-6.244-14-14c0-.16884.01952-.33264.02539-.5.264 7.521 6.388 13.5 13.975 13.5 7.5872 0 13.711-5.979 13.975-13.5z" opacity=".2"/></svg>