<svg height="32" viewBox="0 0 32 32" width="32" xmlns="http://www.w3.org/2000/svg"><path d="m11.324874 16.5h10.15c2.4099 0 5.196172 2.09354 4.35 4.35l-2.175 5.8c-.846172 2.25646-1.9401 4.35-4.35 4.35h-5.8c-2.4099 0-3.503828-2.09354-4.3500004-4.35l-2.175-5.8c-.8461724-2.25646 1.9401-4.35 4.3500004-4.35z" opacity=".2"/><path d="m11.324874 15.5h10.15c2.4099 0 5.196172 2.09354 4.35 4.35l-2.175 5.8c-.846172 2.25646-1.9401 4.35-4.35 4.35h-5.8c-2.4099 0-3.503828-2.09354-4.3500004-4.35l-2.175-5.8c-.8461724-2.25646 1.9401-4.35 4.3500004-4.35z" fill="#991a37"/><path d="m16.5 15a2.3333323 1.111111 0 0 0 -1.330079.198102 2.3333323 1.111111 0 0 0 -1.388671-.0279 2.3333323 1.111111 0 0 0 -1.174804.354353 2.3333323 1.111111 0 0 0 -1.356446.145087 2.3333323 1.111111 0 0 0 -.943359.488282 2.3333323 1.111111 0 0 0 -1.2304696.306919 2.3333323 1.111111 0 0 0 -.6474607.588728 2.3333323 1.111111 0 0 0 -1.0224607.446429 2.3333323 1.111111 0 0 0 -.3032227.647321 2.3333323 1.111111 0 0 0 -.7456059.558037 2.3333323 1.111111 0 0 0  .0600593.662667 2.3333323 1.111111 0 0 0 -.4174807.631975 2.3333323 1.111111 0 0 0  .4174807.63337 2.3333323 1.111111 0 0 0 -.060059.661273 2.3333323 1.111111 0 0 0  .7456058.559431 2.3333323 1.111111 0 0 0  .3032227.645926 2.3333323 1.111111 0 0 0 1.025391.449219 2.3333323 1.111111 0 0 0  .6445306.585938 2.3333323 1.111111 0 0 0 1.2348632.308314 2.3333323 1.111111 0 0 0  .938965.486886 2.3333323 1.111111 0 0 0 1.360839.145089 2.3333323 1.111111 0 0 0 1.170411.354353 2.3333323 1.111111 0 0 0 1.393067-.0279 2.3333323 1.111111 0 0 0 1.325683.198101 2.3333323 1.111111 0 0 0 1.330079-.198102 2.3333323 1.111111 0 0 0 1.388671.0279 2.3333323 1.111111 0 0 0 1.174804-.354353 2.3333323 1.111111 0 0 0 1.356446-.145089 2.3333323 1.111111 0 0 0  .943359-.488281 2.3333323 1.111111 0 0 0 1.23047-.306919 2.3333323 1.111111 0 0 0  .64746-.588728 2.3333323 1.111111 0 0 0 1.022461-.446428 2.3333323 1.111111 0 0 0  .303222-.647321 2.3333323 1.111111 0 0 0  .745607-.558036 2.3333323 1.111111 0 0 0 -.06006-.662668 2.3333323 1.111111 0 0 0  .417481-.631975 2.3333323 1.111111 0 0 0 -.417481-.63337 2.3333323 1.111111 0 0 0  .06006-.661272 2.3333323 1.111111 0 0 0 -.745607-.559432 2.3333323 1.111111 0 0 0 -.303222-.645926 2.3333323 1.111111 0 0 0 -1.025391-.449219 2.3333323 1.111111 0 0 0 -.64453-.585938 2.3333323 1.111111 0 0 0 -1.234864-.308314 2.3333323 1.111111 0 0 0 -.938965-.486887 2.3333323 1.111111 0 0 0 -1.360839-.145088 2.3333323 1.111111 0 0 0 -1.170411-.354353 2.3333323 1.111111 0 0 0 -1.393067.027901 2.3333323 1.111111 0 0 0 -1.325683-.198102z" opacity=".2"/><path d="m16.5 14a2.3333323 1.111111 0 0 0 -1.330079.198102 2.3333323 1.111111 0 0 0 -1.388671-.0279 2.3333323 1.111111 0 0 0 -1.174804.354353 2.3333323 1.111111 0 0 0 -1.356446.145087 2.3333323 1.111111 0 0 0 -.943359.488282 2.3333323 1.111111 0 0 0 -1.2304696.306919 2.3333323 1.111111 0 0 0 -.6474607.588728 2.3333323 1.111111 0 0 0 -1.0224607.446429 2.3333323 1.111111 0 0 0 -.3032227.647321 2.3333323 1.111111 0 0 0 -.7456059.558037 2.3333323 1.111111 0 0 0  .0600593.662667 2.3333323 1.111111 0 0 0 -.4174807.631975 2.3333323 1.111111 0 0 0  .4174807.63337 2.3333323 1.111111 0 0 0 -.060059.661273 2.3333323 1.111111 0 0 0  .7456058.559431 2.3333323 1.111111 0 0 0  .3032227.645926 2.3333323 1.111111 0 0 0 1.025391.449219 2.3333323 1.111111 0 0 0  .6445306.585938 2.3333323 1.111111 0 0 0 1.2348632.308314 2.3333323 1.111111 0 0 0  .938965.486886 2.3333323 1.111111 0 0 0 1.360839.145089 2.3333323 1.111111 0 0 0 1.170411.354353 2.3333323 1.111111 0 0 0 1.393067-.0279 2.3333323 1.111111 0 0 0 1.325683.198101 2.3333323 1.111111 0 0 0 1.330079-.198102 2.3333323 1.111111 0 0 0 1.388671.0279 2.3333323 1.111111 0 0 0 1.174804-.354353 2.3333323 1.111111 0 0 0 1.356446-.145089 2.3333323 1.111111 0 0 0  .943359-.488281 2.3333323 1.111111 0 0 0 1.23047-.306919 2.3333323 1.111111 0 0 0  .64746-.588728 2.3333323 1.111111 0 0 0 1.022461-.446428 2.3333323 1.111111 0 0 0  .303222-.647321 2.3333323 1.111111 0 0 0  .745607-.558036 2.3333323 1.111111 0 0 0 -.06006-.662668 2.3333323 1.111111 0 0 0  .417481-.631975 2.3333323 1.111111 0 0 0 -.417481-.63337 2.3333323 1.111111 0 0 0  .06006-.661272 2.3333323 1.111111 0 0 0 -.745607-.559432 2.3333323 1.111111 0 0 0 -.303222-.645926 2.3333323 1.111111 0 0 0 -1.025391-.449219 2.3333323 1.111111 0 0 0 -.64453-.585938 2.3333323 1.111111 0 0 0 -1.234864-.308314 2.3333323 1.111111 0 0 0 -.938965-.486887 2.3333323 1.111111 0 0 0 -1.360839-.145088 2.3333323 1.111111 0 0 0 -1.170411-.354353 2.3333323 1.111111 0 0 0 -1.393067.027901 2.3333323 1.111111 0 0 0 -1.325683-.198102z" fill="#e33d43"/><path d="m16.5 14a2.3333323 1.111111 0 0 0 -1.330078.197266 2.3333323 1.111111 0 0 0 -1.388672-.027344 2.3333323 1.111111 0 0 0 -1.173828.355469 2.3333323 1.111111 0 0 0 -1.357422.144531 2.3333323 1.111111 0 0 0 -.943359.488281 2.3333323 1.111111 0 0 0 -1.2304691.306641 2.3333323 1.111111 0 0 0 -.6484375.58789 2.3333323 1.111111 0 0 0 -1.0214844.447266 2.3333323 1.111111 0 0 0 -.3027344.646484 2.3333323 1.111111 0 0 0 -.7460937.558594 2.3333323 1.111111 0 0 0  .0605469.66211 2.3333323 1.111111 0 0 0 -.4179688.632812 2.3333323 1.111111 0 0 0  .2539062.501953 2.3333323 1.111111 0 0 1  .1640626-.134765 2.3333323 1.111111 0 0 1 -.0605469-.66211 2.3333323 1.111111 0 0 1  .7460937-.558594 2.3333323 1.111111 0 0 1  .3027344-.646484 2.3333323 1.111111 0 0 1 1.0214844-.447266 2.3333323 1.111111 0 0 1  .6484375-.58789 2.3333323 1.111111 0 0 1 1.2304691-.306641 2.3333323 1.111111 0 0 1  .943359-.488281 2.3333323 1.111111 0 0 1 1.357422-.144531 2.3333323 1.111111 0 0 1 1.173828-.355469 2.3333323 1.111111 0 0 1 1.388672.027344 2.3333323 1.111111 0 0 1 1.330078-.197266 2.3333323 1.111111 0 0 1 1.326172.197266 2.3333323 1.111111 0 0 1 1.392578-.027344 2.3333323 1.111111 0 0 1 1.169922.355469 2.3333323 1.111111 0 0 1 1.361328.144531 2.3333323 1.111111 0 0 1  .939453.486328 2.3333323 1.111111 0 0 1 1.234375.308594 2.3333323 1.111111 0 0 1  .644531.585937 2.3333323 1.111111 0 0 1 1.025391.449219 2.3333323 1.111111 0 0 1  .302734.646484 2.3333323 1.111111 0 0 1  .746094.558594 2.3333323 1.111111 0 0 1 -.060547.66211 2.3333323 1.111111 0 0 1  .164063.130859 2.3333323 1.111111 0 0 0  .253906-.498047 2.3333323 1.111111 0 0 0 -.417969-.632812 2.3333323 1.111111 0 0 0  .060547-.66211 2.3333323 1.111111 0 0 0 -.746094-.558594 2.3333323 1.111111 0 0 0 -.302734-.646484 2.3333323 1.111111 0 0 0 -1.025391-.449219 2.3333323 1.111111 0 0 0 -.644531-.585937 2.3333323 1.111111 0 0 0 -1.234375-.308594 2.3333323 1.111111 0 0 0 -.939453-.486328 2.3333323 1.111111 0 0 0 -1.361328-.144531 2.3333323 1.111111 0 0 0 -1.169922-.355469 2.3333323 1.111111 0 0 0 -1.392578.027344 2.3333323 1.111111 0 0 0 -1.326172-.197266z" fill="#fff" opacity=".2"/><ellipse cx="19.5" cy="22" opacity=".2" rx="1.5" ry="1"/><ellipse cx="19.5" cy="21" fill="#ffd428" rx="1.5" ry="1"/><ellipse cx="22.5" cy="20" opacity=".2" rx="1.5" ry="1"/><ellipse cx="22.5" cy="19" fill="#72ba3e" rx="1.5" ry="1"/><ellipse cx="16.5" cy="17.5" fill="#3f3f3f" rx="3.5" ry="1.5"/><path d="m16.5 16.5v-9.7" fill="none" stroke="#e4e4e4" stroke-linecap="round" stroke-width="3"/><circle cx="16.5" cy="6.5" opacity=".2" r="4.5"/><circle cx="16.5" cy="5.5" fill="#e33d43" r="4.5"/><path d="m16.5 1a4.5 4.5 0 0 0 -4.5 4.5 4.5 4.5 0 0 0  .033203.4882812 4.5 4.5 0 0 1 4.466797-3.9882812 4.5 4.5 0 0 1 4.466797 4.0117188 4.5 4.5 0 0 0  .033203-.5117188 4.5 4.5 0 0 0 -4.5-4.5z" fill="#fff" opacity=".2"/></svg>