<svg height="32" width="32" xmlns="http://www.w3.org/2000/svg"><rect fill="#325f78" height="28" rx="1.5" transform="matrix(0 -1 -1 0 0 0)" width="22" x="-27" y="-30"/><path d="m-25-28h18v24h-18z" opacity=".2" transform="matrix(0 -1 -1 0 0 0)"/><path d="m3.5 4.9999c-.831 0-1.5.669-1.5 1.5v1c0-.831.669-1.5 1.5-1.5h25c .831 0 1.5.669 1.5 1.5v-1c0-.831-.669-1.5-1.5-1.5z" fill="#fff" opacity=".1"/><path d="m2 25.5v1c0 .831.669 1.5 1.5 1.5h25c .831 0 1.5-.669 1.5-1.5v-1c0 .831-.669 1.5-1.5 1.5h-25c-.831 0-1.5-.669-1.5-1.5z" opacity=".2"/><circle cx="24" cy="23" fill="#4aa4e9" fill-rule="evenodd" r="8"/><path d="m22.5 19-1 1h-.70312c-.76551 0-.76563.74219-.76563.74219v4.5156c0 .74523.76563.74219.76563.74219h6.4492c.75 0 .75-.74219.75-.74219v-4.5156c0-.74227-.75-.74219-.75-.74219h-.74609l-1-1h-3zm1.5 2c1.0927 0 2 .90728 2 2s-.90728 2-2 2-2-.90728-2-2 .90728-2 2-2z" fill="#fff"/><path d="m31.979 23.426a8 8 0 0 1 -7.979 7.576 8 8 0 0 1 -7.979-7.424 8 8 0 0 0 -.021.422 8 8 0 0 0 8 8 8 8 0 0 0 8-8 8 8 0 0 0 -.02148-.57422z" fill-rule="evenodd" opacity=".2"/><circle cx="24" cy="23" fill="#fff" r="1"/></svg>