<svg height="32" viewBox="0 0 32 32" width="32" xmlns="http://www.w3.org/2000/svg"><g transform="translate(0 -1020.3622)"><path d="m15.452646 1023.3622c-3.258805.043-6.7139367 1.659-8.5556924 5.0237-.0168.031-.033055.062-.048756.094-.7012268 1.3948-.8561544 2.779-.8561544 4.0979 0 1.517.4052629 2.9571 1.0550786 4.139.036522.067.075555.1317.1170142.1953.2417122.3703.5371601.5819.7898462.9024-1.172192.5977-1.3173266 1.1512-1.4548772 1.3458h-.00195c-.3043353.4304-.7734241 1.0523-1.2032966 1.6641-.2149364.3059-.4208208.6076-.6201756.9455-.1993549.3379-.47386.4673-.6182253 1.6661-.2412763 1.2475.3469321 1.9276.9497656 2.7756.3220198.4058.6872135.7998 1.1096853 1.2128.8313868.8129 1.7809927 1.6565 3.0969774 2.2932 1.8474182.9817 4.1613312 1.6446 6.6912652 1.6446 1.206664 0 2.455183-.1418 3.703501-.4824h.0039c1.223742-.3351 2.431566-.8462 3.531881-1.6212 1.122826-.7908 2.061113-1.8263 2.747885-3.0256.785949-1.3721 1.109688-2.9204 1.109688-4.4749 0-1.2794-.258225-2.5127-.717687-3.68-.05328-.2562-.139827-.5044-.257431-.7382h-.002c-.416263-.817-1.031992-1.5099-1.64015-2.2013.203445-.2353.414584-.4712.544116-.7169.01751-.033.03442-.066.05071-.1-.173956.3614.599246-.8612 1.160392-1.7286.02128-.032.33866-.344.614325-1.2072.276019-.8641-.03546-2.7992-.977069-3.6545-.951218-.864-2.394447-2.1238-4.524551-3.0334-1.398818-.6299-3.331989-1.334-5.757102-1.334-.01365-.0001-.0273-.0001-.04095 0z" opacity=".2"/><path d="m15.452646 1022.3622c-3.258805.043-6.7139367 1.659-8.5556924 5.0237-.0168.031-.033055.062-.048756.094-.7012268 1.3948-.8561544 2.779-.8561544 4.0979 0 1.517.4052629 2.9571 1.0550786 4.139.036522.067.075555.1317.1170142.1953.2417122.3703.5371601.5819.7898462.9024-1.172192.5977-1.3173266 1.1512-1.4548772 1.3458h-.00195c-.3043353.4304-.7734241 1.0523-1.2032966 1.6641-.2149364.3059-.4208208.6076-.6201756.9455-.1993549.3379-.47386.4673-.6182253 1.6661-.2412763 1.2475.3469321 1.9276.9497656 2.7756.3220198.4058.6872135.7998 1.1096853 1.2128.8313868.8129 1.7809927 1.6565 3.0969774 2.2932 1.8474182.9817 4.1613312 1.6446 6.6912652 1.6446 1.206664 0 2.455183-.1418 3.703501-.4824h.0039c1.223742-.3351 2.431566-.8462 3.531881-1.6212 1.122826-.7908 2.061113-1.8263 2.747885-3.0256.785949-1.3721 1.109688-2.9204 1.109688-4.4749 0-1.2794-.258225-2.5127-.717687-3.68-.05328-.2562-.139827-.5044-.257431-.7382h-.002c-.416263-.817-1.031992-1.5099-1.64015-2.2013.203445-.2353.414584-.4712.544116-.7169.01751-.033.03442-.066.05071-.1-.173956.3614.599246-.8612 1.160392-1.7286.02128-.032.33866-.344.614325-1.2072.276019-.8641-.03546-2.7992-.977069-3.6545-.951218-.864-2.394447-2.1238-4.524551-3.0334-1.398818-.6299-3.331989-1.334-5.757102-1.334-.01365-.0001-.0273-.0001-.04095 0z" fill="#4f4f4f"/><path d="m23.349386 1038.7005c.433312.851.650614 1.8817.650614 3.0582 0 1.1345-.2382 2.1507-.714172 2.9804-.476113.8302-1.111923 1.5296-1.873904 2.0654-.761693.5359-1.641431.9177-2.603963 1.1808-.963246.2624-1.948339.3769-2.921465.3769-1.947107 0-4.043573-.607-5.365982-1.3207-1.5093108-.7144-3.5608905-2.9066-3.5199096-3.2462.053274-.4417 1.2127604-1.9095 1.9155993-2.9022.3423038-.4834.4779686-.7118.9907725-.2601.6408608.7804 1.5309058 1.2819 2.3514008 1.7012.719288.3408 2.238846.8309 3.035.9304.666488.098 1.661986.098 1.734432-.9437 0-.3987-.336292-.7618-.769603-1.1195-.433883-.3568-.724116-.662-1.369431-1.0511-2.559862-1.9924-3.942991-2.8916-5.2429838-4.8804-.4338813-.7879-.684709-1.6626-.684709-2.6923 0-1.0086.1564305-1.9921.5373512-2.7486 1.2373246-2.257 3.7380206-3.4372 5.9773966-3.4668 1.91331 0 3.317049.5139 4.576037 1.0827 1.700285.7212 2.782172 1.6659 3.706227 2.5039.360184.3267.04928.7209-.138501 1.0107-.471932.7284-1.139607 1.6266-1.347935 2.0587-.165822.3141-.472328.4322-.72656.2133 0 0-.628434-.5299-1.136183-.8561-1.348266-.7485-2.747751-1.8508-4.17392-1.9883-.380919 0-.763632.1114-.943141.3004-.180081.1892-.245294.5699-.235876.8639.01696.5301.165923.6288.667859 1.1065.43331.3259.774822.5604 1.651593 1.0254.655383.3474 1.459527.8358 2.210916 1.2664.750957.4308 1.505611.9847 2.161806 1.5938.656051.61 1.16706 1.3061 1.60123 2.1569z" opacity=".2"/><path d="m23.349386 1037.7005c.433312.851.650614 1.8817.650614 3.0582 0 1.1345-.2382 2.1507-.714172 2.9804-.476113.8302-1.111923 1.5296-1.873904 2.0654-.761693.5359-1.641431.9177-2.603963 1.1808-.963246.2624-1.948339.3769-2.921465.3769-1.947107 0-4.043573-.607-5.365982-1.3207-1.5093108-.7144-3.5608905-2.9066-3.5199096-3.2462.053274-.4417 1.2127604-1.9095 1.9155993-2.9022.3423038-.4834.4779686-.7118.9907725-.2601.6408608.7804 1.5309058 1.2819 2.3514008 1.7012.719288.3408 2.238846.8309 3.035.9304.666488.098 1.661986.098 1.734432-.9437 0-.3987-.336292-.7618-.769603-1.1195-.433883-.3568-.724116-.662-1.369431-1.0511-2.559862-1.9924-3.942991-2.8916-5.2429838-4.8804-.4338813-.7879-.684709-1.6626-.684709-2.6923 0-1.0086.1564305-1.9921.5373512-2.7486 1.2373246-2.257 3.7380206-3.4372 5.9773966-3.4668 1.91331 0 3.317049.5139 4.576037 1.0827 1.700285.7212 2.782172 1.6659 3.706227 2.5039.360184.3267.04928.7209-.138501 1.0107-.471932.7284-1.139607 1.6266-1.347935 2.0587-.165822.3141-.472328.4322-.72656.2133 0 0-.628434-.5299-1.136183-.8561-1.348266-.7485-2.747751-1.8508-4.17392-1.9883-.380919 0-.763632.1114-.943141.3004-.180081.1892-.245294.5699-.235876.8639.01696.5301.165923.6288.667859 1.1065.43331.3259.774822.5604 1.651593 1.0254.655383.3474 1.459527.8358 2.210916 1.2664.750957.4308 1.505611.9847 2.161806 1.5938.656051.61 1.16706 1.3061 1.60123 2.1569z" fill="#8dc808"/><path d="m15.453125 2c-3.258805.043-6.7148849 1.6587375-8.5566406 5.0234375-.0168.031-.0331272.06175-.0488282.09375-.7012267 1.3948-.8554687 2.7787563-.8554687 4.0976565 0 .117616.0186401.231048.0234375.347656.0510049-1.120408.2451678-2.2779909.8320312-3.4453125.015701-.032.0320282-.06275.0488282-.09375 1.8417557-3.3647 5.2978356-4.9804375 8.5566406-5.0234375v.0019531c.01365-.0001.027366-.0001.041016 0 2.425113 0 4.357041.7040844 5.755859 1.3339844 2.130104.9096 3.574173 2.1692031 4.525391 3.0332031.591733.5374942.932499 1.5008401 1.037109 2.3574219.141695-.9513448-.190114-2.5880635-1.037109-3.3574219-.951218-.864-2.395287-2.1236031-4.525391-3.0332031-1.398818-.6299-3.330746-1.3339844-5.755859-1.3339844-.01365-.0001-.027366-.0001-.041016 0zm9.337891 12.259766c-.121371.174185-.261146.347494-.408204.517578.608159.6914 1.224362 1.384172 1.640626 2.201172h.001953c.117604.2338.204532.482081.257812.738281.396488 1.00731.631247 2.065385.691406 3.158203.007012-.159699.025391-.3185.025391-.478516 0-1.2794-.257335-2.512387-.716797-3.679687-.05328-.2562-.140208-.504481-.257812-.738281h-.001953c-.320967-.629961-.769187-1.180152-1.232422-1.71875zm-17.4121098 2.548828c-.6316109.450401-.7695254.835487-.8789062.990234h-.0019531c-.3043353.4304-.7752056 1.052263-1.2050781 1.664063-.2149365.3059-.4197859.607412-.6191407.945312-.1993549.3379-.4747753.467216-.6191406 1.666016-.0747444.38646-.0621917.714256-.0019531 1.013672.0009117-.004827.0010164-.008829.0019531-.013672.1443653-1.1988.4197857-1.328116.6191406-1.666016.1993548-.3379.4042042-.639412.6191407-.945312.4298725-.6118.9007428-1.233663 1.2050781-1.664063h.0019531c.1375506-.1946.280933-.748003 1.453125-1.345703-.1831974-.232363-.3828411-.424673-.5742188-.644531z" fill="#fff" opacity=".1" transform="translate(0 1020.3622)"/><path d="m15.476562 5c-2.239375.0296-4.741191 1.2097969-5.9785151 3.4667969-.3809207.7565-.5371094 1.7394471-.5371094 2.7480471 0 .13784.0165637.265989.0253906.398437.0524521-.791239.2073814-1.542077.5117188-2.1464841 1.2373241-2.257 3.7391401-3.4371969 5.9785151-3.4667969 1.91331 0 3.317184.5132312 4.576172 1.0820312 1.651316.7004288 2.714452 1.6101196 3.621094 2.4296876.185073-.2793921.411357-.6288422.083984-.9257813-.924055-.838-2.004793-1.7827063-3.705078-2.5039063-1.258988-.5688-2.662862-1.0820312-4.576172-1.0820312zm-.335937 5.611328c-.061576.183011-.089843.395252-.083984.578125.01696.5301.166032.627769.667968 1.105469.43331.3259.77362.560391 1.650391 1.02539.655383.347401 1.459548.836979 2.210938 1.267579.750956.4308 1.505914.98465 2.162109 1.59375.656051.61 1.167392 1.30545 1.601562 2.15625.366041.718882.568029 1.572428.625 2.527343.009539-.15561.025391-.308208.025391-.46875 0-1.1765-.217079-2.207593-.650391-3.058593-.43417-.8508-.945511-1.54625-1.601562-2.15625-.656195-.6091-1.411153-1.16295-2.162109-1.59375-.75139-.4306-1.555555-.920178-2.210938-1.267579-.876771-.464999-1.217081-.69949-1.650391-1.02539-.328223-.312376-.495839-.468741-.583984-.683594zm-5.6816406 8.416016c-.1950271-.000878-.3290289.201781-.5429688.503906-.7028389.9927-1.8627416 2.460644-1.9160156 2.902344-.0088208.073096.0951077.24158.2539062.453125.3897955-.646915 1.1460753-1.626615 1.6621094-2.355469.3423038-.4834.4774305-.711466.9902344-.259766.640861.7804 1.531067 1.281872 2.351562 1.701172.719289.3408 2.239003.830188 3.035157.929688.666488.098 1.661929.09834 1.734375-.94336 0-.164454-.068376-.322102-.166016-.476562-.321675.504583-1.043727.497063-1.568359.419922-.796154-.0995-2.315868-.588888-3.035157-.929688-.820495-.4193-1.710701-.920772-2.351562-1.701172-.1923015-.169387-.3302494-.243613-.4472656-.24414z" fill="#fff" opacity=".2" transform="translate(0 1020.3622)"/></g></svg>