<svg height="32" width="32" xmlns="http://www.w3.org/2000/svg"><rect height="28" opacity=".2" rx="1.4" transform="matrix(0 -1 -1 0 0 0)" width="28" x="-31" y="-30"/><rect fill="#1493ca" height="28" rx="1.4" transform="matrix(0 -1 -1 0 0 0)" width="28" x="-30" y="-30"/><path d="m3.4003906 2c-.7756 0-1.4003906.6247906-1.4003906 1.4003906v1c0-.7756.6247906-1.4003906 1.4003906-1.4003906h25.1992184c.7756 0 1.400391.6247906 1.400391 1.4003906v-1c0-.7756-.624791-1.4003906-1.400391-1.4003906z" fill="#fff" opacity=".2"/><path d="m16 8c-2.8204 0-5 2.293378-5 5.142578v1.857422h-1.109375c-.4932 0-.890625.472703-.890625.970703v9.128906c0 .498.397425.900391.890625.900391h12.21875c.493 0 .890625-.402391.890625-.900391v-9.128906c0-.498-.398625-1.002703-.890625-.970703h-1.109375v-1.857422c0-2.8493-2.18-5.142578-5-5.142578zm0 2c1.7627 0 3 1.361778 3 3.142578v1.857422h-6v-1.857422c0-1.781 1.237-3.142578 3-3.142578zm0 7a2 2 0 0 1 2 2 2 2 0 0 1 -1.048828 1.757812c.020184.079445.048828.156291.048828.242188v2c0 .554-.446 1-1 1s-1-.446-1-1v-2c0-.08523.02895-.161347.04883-.240234a2 2 0 0 1 -1.04883-1.759766 2 2 0 0 1 2-2z" opacity=".2"/><path d="m16 7c-2.8204 0-5 2.2933782-5 5.142578v1.857422h-1.109375c-.4932 0-.890625.472703-.890625.970703v9.128906c0 .498.397425.900391.890625.900391h12.21875c.493 0 .890625-.402391.890625-.900391v-9.128906c0-.498-.398625-1.002703-.890625-.970703h-1.109375v-1.857422c0-2.8492997-2.18-5.142578-5-5.142578zm0 2c1.7627 0 3 1.361778 3 3.142578v1.857422h-6v-1.857422c0-1.781 1.237-3.142578 3-3.142578zm0 7a2 2 0 0 1 2 2 2 2 0 0 1 -1.048828 1.757812c.020184.079445.048828.156291.048828.242188v2c0 .554-.446 1-1 1s-1-.446-1-1v-2c0-.085231.028946-.161347.048828-.240234a2 2 0 0 1 -1.048828-1.759766 2 2 0 0 1 2-2z" fill="#fff"/></svg>