<svg height="32" width="32" xmlns="http://www.w3.org/2000/svg"><path d="m16 3c-7.756 0-14 6.244-14 14s6.244 14 14 14 14-6.244 14-14-6.244-14-14-14z" opacity=".2"/><path d="m16 2c-7.756 0-14 6.244-14 14s6.244 14 14 14 14-6.244 14-14-6.244-14-14-14z" fill="#4f4f4f"/><path d="m14.736434 26c-.406627-.11282-.952948-.316653-1.304794-1.063081-.483077-1.024823-.482295-1.003311-.05928-1.629082.586664-.867896 1.645401-2.411604 1.645401-2.832881 0-.26556-.263291-.474888-.915521-.727878-1.405264-.545084-3.310094-1.466606-4.2919542-2.191083-1.202586-.887342-2.3257591-2.551348-2.6756257-3.710288-.2459686-.814776-.1641579-.99076.3214223-.691414 2.5478796 1.462626 3.3440966 1.691736 5.8691086 1.920709 1.568795-.06829 2.793233-.995512 2.731809-2.099677-.05022-.832901-.601168-1.541516-.935176-2.607689-.188362-.6012548-.08361-.8119224-.04924-1.0428163.02368-.1591412.08437-.3053094.134833-.3248197.2781.157271.462723.4306658.729823.536138.632014.2495701 1.298511.2529564 1.96977.547322.686302.350981.991781.703272 1.144568 1.331946.10972.451468.409862.756345.71986 1.058564.146915.143226.267124.29782.267124.34354 0 .232471-.758689.189403-1.382467.01308-.54844-.15502-.705452.539595-.649095 1.041412.08435 1.334198 1.821534 1.086948 3.309198 1.202996 1.240674.09678 3.356686-.06622 4.96447-.756755.33672-.14462.660417-.252839.719337-.240486-.548394 2.349297-2.906966 4.34942-4.945254 5.206364-1.005433.406364-2.457045.869928-2.893055.923878-1.084029.134135-1.455653.276027-1.630891.622694-.199758.395153-.493365 2.214312-.602228 3.59775-.260388 1.15763-1.442657 1.562905-2.192123 1.571547z" opacity=".2"/><path d="m14.736434 25c-.406627-.11282-.952948-.316653-1.304794-1.063081-.483077-1.024823-.482295-1.003311-.05928-1.629082.586664-.867896 1.645401-2.411604 1.645401-2.832881 0-.26556-.263291-.474888-.915521-.727878-1.405264-.545084-3.310094-1.466606-4.2919542-2.191083-1.202586-.887342-2.3257591-2.551348-2.6756257-3.710288-.2459686-.814776-.1641579-.99076.3214223-.691414 2.5478796 1.462626 3.3440966 1.691736 5.8691086 1.920709 1.568795-.06829 2.793233-.995512 2.731809-2.099677-.05022-.832901-.601168-1.541516-.935176-2.6076886-.188362-.6012552-.08361-.8119228-.04924-1.0428167.02368-.1591412.08437-.3053094.134833-.3248197.2781.157271.462723.4306658.729823.536138.632014.2495701 1.298511.2529564 1.96977.5473224.686302.3509802.991781.7032721 1.144568 1.3319456.10972.451468.409862.756345.71986 1.058564.146915.143226.267124.29782.267124.34354 0 .232471-.758689.189403-1.382467.01308-.54844-.15502-.705452.539595-.649095 1.041412.08435 1.334198 1.821534 1.086948 3.309198 1.202996 1.240674.09678 3.356686-.06622 4.96447-.756755.33672-.14462.660417-.252839.719337-.240486-.548394 2.349297-2.906966 4.34942-4.945254 5.206364-1.005433.406364-2.457045.869928-2.893055.923878-1.084029.134135-1.455653.276027-1.630891.622694-.199758.395153-.493365 2.214312-.602228 3.59775-.260388 1.15763-1.442657 1.562905-2.192123 1.571547z" fill="#4895fb"/><path d="m16 2c-7.756 0-14 6.244-14 14 0 .168842.0195214.33264.0253906.5.263742-7.5205675 6.3874512-13.5 13.9746094-13.5 7.587158 0 13.710867 5.9794325 13.974609 13.5.00587-.16736.025391-.331158.025391-.5 0-7.756-6.244-14-14-14z" fill="#fff" opacity=".1"/><path d="m15.207031 8c-.05046.01951-.111085.1650776-.134765.3242188-.03173.2131825-.114838.4237407.01953.9257812.029-.1252259.07347-.2338515.115234-.25.2781.157271.463369.4316372.730469.5371094.632014.2495701 1.297491.252509 1.96875.5468746.686302.350981.991744.703358 1.144531 1.332032.0499.205305.142234.376944.253907.535156.399897.04418.734374.01946.734374-.132813 0-.04572-.120663-.200524-.267578-.34375-.309997-.302219-.610982-.607125-.720702-1.058593-.152787-.6286739-.458229-.9810514-1.144531-1.3320316-.671259-.294366-1.336736-.2973049-1.96875-.546875-.2671-.1054722-.452369-.3798384-.730469-.5371094zm-8.0410154 4.021484c-.2163336-.0386-.2157264.213137-.03125.824219.01848.06121.061292.135375.083984.199219.066246.02002.1387848.04804.2382812.109375 2.5478798 1.462626 3.3421758 1.690949 5.8671878 1.919922 1.568795-.06829 2.793846-.995445 2.732422-2.09961-.0094-.155394-.05028-.303253-.08984-.453125-.292119.847359-1.343393 1.496181-2.642578 1.552735-2.5250156-.228973-3.3193116-.457296-5.8671914-1.919922-.121395-.074837-.2189044-.119946-.2910156-.132813zm19.8339844 1.056641c-.05892-.01235-.38203.09561-.71875.240234-1.607784.690535-3.72417.85264-4.964844.75586-1.352258-.105486-2.896581.07705-3.232422-.888672-.07554.208027-.101306.461744-.07617.685547.08435 1.334198 1.82093 1.087077 3.308594 1.203125 1.240674.09678 3.35706-.06532 4.964844-.75586.132822-.05705.169885-.05515.283203-.0957.184092-.37106.343455-.750023.435545-1.144534zm-12.222656 7.009766c-.343969.654048-.986847 1.603138-1.404297 2.220703-.348959.516219-.39312.622975-.132813 1.208984.04247-.06683.07366-.121472.132813-.208984.586664-.867896 1.644531-2.412708 1.644531-2.833985 0-.139221-.0774-.264014-.240234-.386718z" fill="#fff" opacity=".1"/></svg>