<svg height="32" width="32" xmlns="http://www.w3.org/2000/svg"><path d="m30 29.55v-26.1c0-.8033-.6467-1.45-1.45-1.45h-26.1c-.8033 0-1.45.6467-1.45 1.45v26.1c0 .8033.6467 1.45 1.45 1.45h26.1c.8033 0 1.45-.6467 1.45-1.45z" opacity=".2"/><path d="m30 28.55v-26.1c0-.8033-.6467-1.45-1.45-1.45h-26.1c-.8033 0-1.45.6467-1.45 1.45v26.1c0 .8033.6467 1.45 1.45 1.45h26.1c.8033 0 1.45-.6467 1.45-1.45z" fill="#4f4f4f"/><path d="m4 5v3h3v-3zm6.445312 0c-.8002217 0-1.445312.6247906-1.445312 1.4003906v4.1992184c0 .7756.6450903 1.400391 1.445312 1.400391h10.109376c.800222 0 1.445312-.624791 1.445312-1.400391v-4.1992184c0-.7756-.64509-1.4003906-1.445312-1.4003906zm13.554688 0v3h3v-3zm-20 5v3h3v-3zm20 0v3h3v-3zm-13.554688 3c-.8002217 0-1.445312.624791-1.445312 1.400391v4.199218c0 .7756.6450903 1.400391 1.445312 1.400391h10.109376c.800222 0 1.445312-.624791 1.445312-1.400391v-4.199218c0-.7756-.64509-1.400391-1.445312-1.400391zm-6.445312 2v3h3v-3zm20 0v3h3v-3zm-20 5v3h3v-3zm20 0v3h3v-3zm-13.554688 1c-.8002217 0-1.445312.624791-1.445312 1.400391v4.199218c0 .7756.6450903 1.400391 1.445312 1.400391h10.109376c.800222 0 1.445312-.624791 1.445312-1.400391v-4.199218c0-.7756-.64509-1.400391-1.445312-1.400391zm-6.445312 4v3h3v-3zm20 0v3h3v-3z" opacity=".2"/><path d="m4 4v3h3v-3z" fill="#fff"/><rect fill="#28a1e1" height="7" rx="1.444" ry="1.4" width="13" x="9" y="4"/><g fill="#fff"><path d="m4 9v3h3v-3z"/><path d="m4 14v3h3v-3z"/><path d="m4 19v3h3v-3z"/><path d="m4 24v3h3v-3z"/></g><rect fill="#28a1e1" height="7" rx="1.444" ry="1.4" width="13" x="9" y="12"/><rect fill="#28a1e1" height="7" rx="1.444" ry="1.4" width="13" x="9" y="20"/><g fill="#fff"><path d="m24 4v3h3v-3z"/><path d="m24 9v3h3v-3z"/><path d="m24 14v3h3v-3z"/><path d="m24 19v3h3v-3z"/><path d="m24 24v3h3v-3z"/><path d="m2.4492188 1c-.8033001 0-1.4492188.6459187-1.4492188 1.4492188v1c0-.8033001.6459187-1.4492188 1.4492188-1.4492188h26.1015622c.8033 0 1.449219.6459187 1.449219 1.4492188v-1c0-.8033001-.645919-1.4492188-1.449219-1.4492188z" opacity=".1"/></g></svg>