<svg height="64" viewBox="0 0 64 64" width="64" xmlns="http://www.w3.org/2000/svg"><circle cx="32.001" cy="53" opacity=".2" r="8"/><circle cx="32.001" cy="51.999" fill="#8e8e8e" r="8"/><path d="m8.895344 5.0125924c-.210433-.01768-.3995596-.01136-.5703124.01954-.2276704.041178-.4215542.122828-.5820312.25-1.3135936 1.0409784-.9027928 5.1760306 1.3710936 13.7773436 1.27508 4.823178 2.32627 7.389432 4.136719 10.109374 1.188784 1.785936 1.763024 2.46586 3.726562 4.40625 1.758515 1.937264 3.977964 4.646188 4.023438 6.925782-.504967 4.500014-3.800004 6.85694-4 10.6875 0 4.637876 2.161634 7.8125 6.800782 7.8125 2.909864.291178 5.594006-3.475052 8.199218-4 2.605212.524948 5.289354 4.291178 8.199218 4 4.639148 0 6.800782-3.174624 6.800782-7.8125-.2-3.83056-3.495034-6.187486-4-10.6875.04548-2.279594 2.264922-4.988522 4.023438-6.925782 1.963538-1.94039 2.537778-2.620314 3.726562-4.40625 1.81045-2.719942 2.861638-5.286198 4.136718-10.109374 2.273886-8.601313 2.684688-12.7363652 1.371094-13.7773436-.16048-.127174-.35436-.208822-.58203-.25-.17076-.03088-.359882-.037212-.570314-.01954-.6313.053052-1.444584.3248176-2.460936.8203124-2.015574.9826538-3.986568 2.4323002-6.207032 4.5703122-3.33194 3.208196-4.522338 5.04718-8.445312 13.031251-1.171704 2.37883-2.60947 4.691768-4.367188 7.21875-.510796.35165-1.625.347656-1.625.347656s-1.114204.004-1.625-.347656c-1.757718-2.526982-3.195484-4.83992-4.367188-7.21875-3.922974-7.984071-5.113371-9.823055-8.445312-13.031251-2.220463-2.138012-4.191458-3.5876584-6.207031-4.5703122-1.016354-.4954948-1.8296396-.7672608-2.460938-.8203124z" opacity=".2"/><path d="m29.750813 52h1.5c.4155 0 .75.3345.75.75v3.9c0 .4155-.3345 1.35-.75 1.35h-1.5c-.4155 0-.75-.3345-.75-.75v-4.5c0-.4155.3345-.75.75-.75z" opacity=".2"/><path d="m29.750813 51h1.5c.4155 0 .75.3345.75.75v3.9c0 .4155-.3345 1.35-.75 1.35h-1.5c-.4155 0-.75-.3345-.75-.75v-4.5c0-.4155.3345-.75.75-.75z" fill="#fff"/><path d="m32.750813 52h1.5c.4155 0 .75.3345.75.75v4.5c0 .4155-.3345.75-.75.75h-1.5c-.4155 0-.75-.9345-.75-1.35v-3.9c0-.4155.3345-.75.75-.75z" opacity=".2"/><path d="m32.750813 51h1.5c.4155 0 .75.3345.75.75v4.5c0 .4155-.3345.75-.75.75h-1.5c-.4155 0-.75-.9345-.75-1.35v-3.9c0-.4155.3345-.75.75-.75z" fill="#fff"/><path d="m8.895344 4.0117188c-.210433-.0176838-.3995596-.0113522-.5703124.0195312-.2276704.0411776-.4215542.1228278-.5820312.25-1.3135936 1.0409784-.9027928 5.1760308 1.3710936 13.777344 1.27508 4.823178 2.32627 7.389432 4.136719 10.109374 1.188784 1.785936 1.763024 2.46586 3.726562 4.40625 1.758515 1.937264 3.977964 4.646188 4.023438 6.925782-.504967 4.500014-3.800004 6.85694-4 10.6875 0 4.637876 2.161634 7.8125 6.800782 7.8125 2.909864.291178 5.594006-3.475052 8.199218-4 2.605212.524948 5.289354 4.291178 8.199218 4 4.639148 0 6.800782-3.174624 6.800782-7.8125-.2-3.83056-3.495034-6.187486-4-10.6875.04548-2.279594 2.264922-4.988522 4.023438-6.925782 1.963538-1.94039 2.537778-2.620314 3.726562-4.40625 1.81045-2.719942 2.861638-5.286198 4.136718-10.109374 2.273886-8.6013132 2.684688-12.7363656 1.371094-13.777344-.16048-.127174-.35436-.208822-.58203-.25-.17076-.03088-.359882-.037212-.570314-.01954-.6313.053052-1.444584.3248176-2.460936.8203124-2.015574.9826626-3.986568 2.432309-6.207032 4.5703214-3.33194 3.2081952-4.522338 5.0471792-8.445312 13.0312502-1.171704 2.37883-2.60947 4.691768-4.367188 7.21875-.510796.35165-1.625.347656-1.625.347656s-1.114204.004-1.625-.347656c-1.757718-2.526982-3.195484-4.83992-4.367188-7.21875-3.922974-7.984071-5.113371-9.823055-8.445312-13.0312502-2.220463-2.1380124-4.191458-3.5876588-6.207031-4.5703126-1.016354-.4954948-1.8296396-.7672608-2.460938-.8203124z" fill="#e4e4e4"/><path d="m9.8605332 7.2324244c.00428.3014846-.033148.412154.0082.8284956.1935178 1.948454.8330798 5.050948 1.9522968 9.285714 1.240638 4.69418 2.125283 6.82012 3.762409 9.280246h-.0028c1.13917 1.711868 1.439944 2.060938 3.365935 3.964748l.05468.05196.04922.05742c.823812.9078 1.83486 1.95379 2.717903 3.182736 1.438872-1.614014 3.23205-2.872794 5.238938-3.677646-1.413176-2.282922-2.56816-4.617854-3.510854-6.532266v-.0028c-3.898823-7.937187-4.687077-9.176794-7.874738-12.246912-2.08058-2.0038736-3.808463-3.255255-5.493228-4.0768546-.2324908-.1133708-.081987-.0475236-.2679618-.114841zm44.6786138.01368c-.125.054454-.1267.032284-.267962.10117-1.684766.8215996-3.412648 2.0729812-5.493228 4.0768556-3.187662 3.070117-3.975916 4.309724-7.87481 12.24697v.0028c-.943136 1.915306-2.0995 4.251066-3.513588 6.535 2.007872.804484 3.80202 2.063288 5.24167 3.677646.883338-1.229738 1.893664-2.27723 2.717904-3.18547l.04922-.05742.05468-.05196c1.92599-1.90381 2.226764-2.252882 3.365934-3.964748h-.0028c1.63706-2.46013 2.521772-4.586066 3.76241-9.280246 1.119218-4.234766 1.758778-7.33726 1.952296-9.285714.04072-.409472.0036-.5163048.0082-.8148242z" opacity=".3"/><path d="m31.999998 54c-2.575385-.19758-4.786948-3.065764-3.729691-4.47926 1.128155-1.114636 2.544091-1.533812 3.729691-1.52043 1.185603-.0132 2.601539.405794 3.729694 1.52043 1.057257 1.413496-1.154302 4.28169-3.729694 4.47926z" fill="#bf3667"/><path d="m25.653045 47c-1.901648 0-4.648374-1.343146-4.648374-3s-.180028-3 1.72162-3c4.887988.506736 5.16486 6 2.926754 6z" opacity=".2"/><path d="m25.653045 45.99946c-1.901648 0-4.648374-1.343146-4.648374-3s-.180028-3 1.72162-3c4.887988.506736 5.16486 6 2.926754 6z" fill="#fff"/><circle cx="25.5" cy="44.5" fill="#323232" r="1.5"/><path d="m38.348581 47c1.901648 0 4.648374-1.343146 4.648374-3s .18002-3-1.72162-3c-4.887988.506736-5.16486 6-2.926754 6z" opacity=".2"/><path d="m38.348581 45.99946c1.901648 0 4.648374-1.343146 4.648374-3s .18002-3-1.72162-3c-4.887988.506736-5.16486 6-2.926754 6z" fill="#fff"/><circle cx="-38.5" cy="44.5" fill="#323232" r="1.5" transform="scale(-1 1)"/><path d="m8.8945312 4.0117188c-.210433-.0176838-.3995597-.0113522-.5703124.0195312-.2276705.0411776-.4215543.1228278-.5820313.25-.5540114.4390352-.7807845 1.4686345-.7109375 3.1113281.0548299-1.0561668.2799463-1.7697822.7109375-2.1113281.160477-.1271722.3543608-.2088224.5820313-.25.1707527-.0308834.3598794-.037215.5703124-.0195312.6312984.0530515 1.4445838.3248176 2.4609378.8203124 2.015573.9826538 3.986568 2.4323 6.207031 4.5703128 3.331941 3.208195 4.522338 5.047179 8.445312 13.03125 1.171704 2.37883 2.60947 4.691768 4.367188 7.21875.510796.351656 1.625.347656 1.625.347656s1.114204.003994 1.625-.347656c1.757718-2.526982 3.195484-4.83992 4.367188-7.21875 3.922974-7.984071 5.113372-9.823055 8.445312-13.03125 2.220464-2.1380128 4.191457-3.5876501 6.207031-4.5703128 1.016352-.4954947 1.829638-.7672604 2.460938-.8203124.210432-.0176721.399552-.0113488.570312.0195312.22767.041178.421552.122826.582031.25.430992.3415459.658061 1.0551613.712891 2.1113281.069847-1.6426936-.158879-2.6722929-.712891-3.1113281-.160479-.127174-.354361-.208822-.582031-.25-.17076-.03088-.35988-.0372032-.570312-.0195312-.6313.053052-1.444586.3248176-2.460938.8203124-2.015574.9826627-3.986567 2.4323001-6.207031 4.5703126-3.33194 3.2081952-4.522338 5.0471792-8.445312 13.0312502-1.171704 2.37883-2.60947 4.691768-4.367188 7.21875-.510796.35165-1.625.347656-1.625.347656s-1.114204.004-1.625-.347656c-1.757718-2.526982-3.195484-4.83992-4.367188-7.21875-3.922974-7.984071-5.113371-9.823055-8.445312-13.0312502-2.220463-2.1380125-4.191458-3.5876587-6.207031-4.5703126-1.016354-.4954948-1.8296394-.7672608-2.4609378-.8203124zm12.0351568 35.9472652c-.668696 4.202234-3.736687 6.531928-3.929688 10.228516 0 .263942.009377.521242.023438.775391.315144-3.697447 3.481706-6.052983 3.976562-10.462891-.003523-.176584-.041925-.359837-.070312-.541016zm22.140624.001954c-.028188.180467-.066803.363156-.070312.539062.494855 4.409908 3.661414 6.765444 3.976562 10.462891.014061-.254149.023438-.511449.023438-.775391-.192979-3.69608-3.260423-6.025424-3.929688-10.226562z" fill="#fff" opacity=".2"/></svg>