<svg height="32" width="32" xmlns="http://www.w3.org/2000/svg"><rect fill="#dcdcbe" fill-rule="evenodd" height="28.203388" ry="5.575182" width="28.203388" x="1.898306" y="1.898306"/><path d="m8.0112995 5.3483993a2.6629002 2.6629002 0 0 0 -2.6629002 2.6629002 2.6629002 2.6629002 0 0 0 2.6629002 2.6629005 2.6629002 2.6629002 0 0 0 2.6629005-2.6629005 2.6629002 2.6629002 0 0 0 -2.6629005-2.6629002zm0 1.3314501a1.3314501 1.3314501 0 0 1 1.3314501 1.3314501 1.3314501 1.3314501 0 0 1 -1.3314501 1.3314501 1.3314501 1.3314501 0 0 1 -1.3314501-1.3314501 1.3314501 1.3314501 0 0 1 1.3314501-1.3314501z" fill="#3c79e7"/><path d="m12.00565 4.0169492v7.9887008h-7.9887008v1.33145h7.9887008v5.3258h-7.9887008v1.33145h7.9887008v7.988701h1.33145v-7.988701h5.3258v7.988701h1.33145v-7.988701h7.988701v-1.33145h-7.988701v-5.3258h7.988701v-1.33145h-7.988701v-7.9887008h-1.33145v7.9887008h-5.3258v-7.9887008zm1.33145 9.3201508h5.3258v5.3258h-5.3258z" fill="#808080"/><path d="m23.988701 21.3258a2.6629002 2.6629002 0 0 0 -2.662901 2.662901 2.6629002 2.6629002 0 0 0 2.662901 2.6629 2.6629002 2.6629002 0 0 0 2.6629-2.6629 2.6629002 2.6629002 0 0 0 -2.6629-2.662901zm0 1.331451a1.3314501 1.3314501 0 0 1 1.33145 1.33145 1.3314501 1.3314501 0 0 1 -1.33145 1.33145 1.3314501 1.3314501 0 0 1 -1.33145-1.33145 1.3314501 1.3314501 0 0 1 1.33145-1.33145z" fill="#3c79e7"/><path d="m17.412669 13.645996-1.412669 1.412669-1.412668-1.412669-.941336.941336 1.412669 1.412668-1.412669 1.412669.941336.941335 1.412668-1.412669 1.412669 1.412669.941335-.941335-1.412669-1.412669 1.412669-1.412668z" fill="#e74c3c"/></svg>