<svg height="32" viewBox="0 0 32 32" width="32" xmlns="http://www.w3.org/2000/svg"><rect fill="#4bae4f" fill-rule="evenodd" height="28.203388" ry="5.575182" width="28.203388" x="1.898306" y="1.898306"/><path d="m8.7799079 25.942202c-1.270448-.336332-2.241514-1.268283-2.655012-2.54807-.100269-.31034-.11104-.408564-.144844-1.321331-.02007-.542338-.02938-3.666202-.02063-6.941921l.01588-5.9558531.08622-.335263c.175413-.6820499.647406-1.4598936 1.150872-1.8966301.486008-.4215938.903441-.6493038 1.559512-.8507112l.351055-.1077703 6.3236781-.015141c6.468971-.015488 7.415169.0003602 7.855986.131669.841515.2506473 1.654334.8421988 2.105316 1.5322056.241139.3689427.369924.6505047.524735 1.1472123l.11064.354985.000275 6.8630358.000279 6.863035-.09207.335264c-.242466.882964-.714364 1.595504-1.401599 2.116338-.319597.242215-.949872.538515-1.363583.641038-.331506.08216-.361885.08249-7.198298.08061l-6.8653621-.0019zm12.0772961-1.438419 1.991858-.02498.354986-.173344c.495879-.242143.863632-.609975 1.094895-1.095119l.166214-.34869.02593-1.262168c.03333-1.621968.0337-9.514303.000655-11.162293l-.02541-1.2621641-.173343-.354985c-.238405-.4882174-.595242-.8459066-1.085504-1.0880991l-.351665-.1737233-1.32465-.0316c-.728562-.01738-3.756298-.024598-6.728307-.016047-5.9869571.017232-5.5884151-.0007209-6.1104121.2751235-.308161.1628422-.756223.6104436-.916962.9160175-.28572.543173-.264812-.04104-.262566 7.3363485l.002 6.626379.08321.256379c.199102.613455.625043 1.098653 1.21977 1.389466l.344631.168522 1.7552021.02106c2.558262.0307 7.643334.03271 9.939569.0039z" fill="#7eec65"/><path d="m14.194664 22.578116c-.08147-.03035-.250089-.131525-.374706-.224833-.236944-.177416-3.768631-3.6682-4.3168279-4.26683-.361041-.394259-.418593-.537817-.340283-.84882.0411-.163231.120249-.261127.634498-.784823.3231459-.32908.6558699-.645681.7393839-.703558.21323-.147768.417965-.167702.627022-.06105.102175.05213.685487.593904 1.495777 1.389273 1.254884 1.231776 1.568813 1.523622 1.600242 1.487679.01258-.01437 1.013552-1.488281 4.015095-5.91205 2.132723-3.1432756 2.089289-3.0826736 2.284176-3.1870496.137291-.07353.21879-.08982.390691-.07812.198856.01355.265508.04712.788854.397421.909794.6089716 1.011587.6984786 1.086176.9550596.03917.134761.05286.26581.03584.3433-.04003.182234-2.989597 4.584158-6.520903 9.731762-.964167 1.405469-1.115027 1.59638-1.349338 1.707568-.199093.09447-.613009.123121-.795696.05506z" fill="#b0ff89"/></svg>