<svg height="32" width="32" xmlns="http://www.w3.org/2000/svg"><g transform="translate(29.966103 -2.169491)"><rect fill="#ffecac" fill-rule="evenodd" height="28.203388" ry="5.575182" width="28.203388" x="-28.067797" y="4.067797"/><g transform="matrix(.73633306 0 0 .73633306 -25.747431 6.388163)"><path d="m14.811531 2.0025458c.07765-.048746 1.103238.6092876 2.158313 1.384548 1.544536 1.1349209 2.526106 2.138408 3.386245 3.4680666.212534.3285826.38824.6706975.546278 1.0175259.09191.1432458.178796.2902705.260387.4407731 1.670125 3.1444366.763531 7.1125546-2.024589 8.8628216-2.788121 1.750268-6.401964.619893-8.071742-2.524761-.07681-.144755-.149184-.292225-.215494-.443006-.0807-.141683-.169778-.278735-.238683-.424745-.9461621-2.005535-.7538634-4.1525517.288931-5.979834.552086-.9674175 1.658745-1.9537468 2.455637-2.4563965.994166-.6270808 1.329305-1.8952882 1.392322-2.9981453.01008-.1765361.03914-.3322508.06235-.3468179z" fill="#975a34"/><path d="m11.091015 12a1.0909945 1.2001198 0 0 0 -1.0536 1.51172l3.8181 15.599999a1.0909945 1.2001198 0 0 0 1.053599.888281h2.181772a1.0909945 1.2001198 0 0 0 1.0536-.888281l3.818099-15.599999a1.0909945 1.2001198 0 0 0 -1.0536-1.51172z" fill="#f1b65c" stroke-linecap="round" stroke-linejoin="round" stroke-width="1.51882"/><rect fill="#ffcf88" height="2" rx=".727" ry="1" stroke-linecap="round" stroke-linejoin="round" stroke-width="3.491486" width="16" x="8" y="11"/></g></g></svg>