<svg height="32" width="32" xmlns="http://www.w3.org/2000/svg"><rect fill="#f1ca42" fill-rule="evenodd" height="28.203388" ry="5.575182" width="28.203388" x="1.898306" y="1.898306"/><path d="m15.999658 4.0638448c-.625256 0-1.250929.2330515-1.718323.700434l-9.5170744 9.5181342c-.9347873.934765-.9334616 2.499102.00135 3.433867l9.5170774 9.518135c.934788.934765 2.50052.936091 3.435308.0014l9.517074-9.518122c.934788-.934765.934789-2.500442 0-3.435207l-9.517088-9.5182072c-.467394-.4673825-1.093068-.700434-1.718324-.700434z" fill="#696853"/><g stroke-width="1.256685" transform="matrix(.79574448 0 0 .79574448 3.268088 3.268073)"><path d="m15.999833 4.0000392c-.261915 0-.524006.097624-.719794.2934074l-3.986641 3.9870853c-.391577.3915661-.391022 1.0468572.000612 1.4384242l3.98664 3.9870839c.391577.391567 1.047452.392122 1.439028.000611l3.98664-3.9870839c.391576-.391567.391576-1.0474184 0-1.4389853l-3.98669-3.9871352c-.195789-.1957836-.45788-.2934074-.719795-.2934074z" fill="#3fa7e2"/><path d="m15.999833 18.00004c-.261915 0-.524006.09762-.719794.293406l-3.986641 3.987086c-.391577.391565-.391022 1.046856.000612 1.438424l3.98664 3.987084c.391577.391567 1.047452.392122 1.439028.000611l3.98664-3.987084c.391576-.391567.391576-1.047419 0-1.438985l-3.986667-3.987112c-.195788-.195784-.457878-.293408-.719795-.293408z" fill="#3f3f3f"/><path d="m28 15.999812c0-.261916-.09762-.524008-.293408-.719796l-3.987101-3.986656c-.391568-.391578-1.046861-.391023-1.43843.000611l-3.9871 3.986657c-.391568.391577-.392124 1.047454-.000611 1.439033l3.987099 3.986655c.391569.391578 1.047424.391578 1.438993 0l3.98715-3.986705c.195785-.19579.293408-.457881.293408-.719799z" fill="#f1ca42"/><path d="m14 15.999831c0-.261916-.09762-.524008-.293409-.719796l-3.9870995-3.986656c-.3915681-.391578-1.0468614-.391023-1.4384304.000611l-3.9870999 3.986657c-.3915683.391577-.392124 1.047455-.0006112 1.439034l3.9870999 3.986655c.3915684.391578 1.0474229.391578 1.4389916 0l3.9871275-3.986684c.195784-.195788.293408-.45788.293408-.719798z" fill="#ea72bb"/></g></svg>