<svg height="64" width="64" xmlns="http://www.w3.org/2000/svg"><path d="m12 6h40v20h-40z" fill="#b7b7b7"/><rect fill="#4f4f4f" height="34" rx="2.8" ry="2.834" width="56" x="4" y="24"/><g opacity=".4" stroke-width="2"><path d="m16 32h32v4h-32z"/><path d="m20 40h24v4h-24z"/><path d="m24 48h16v4h-16z"/></g><path d="m4 55.167969v1c0 1.57 1.2496033 2.832031 2.8007812 2.832031h50.398438c1.549978 0 2.800781-1.262031 2.800781-2.832031v-1c0 1.57-1.250803 2.832031-2.800781 2.832031h-50.398438c-1.5511777 0-2.800781-1.262031-2.800781-2.832031z" opacity=".2"/><path d="m12 6v1h40v-1z" fill="#fff" opacity=".2"/><circle cx="48" cy="47" opacity=".2" r="16"/><path d="m16 10h10v6h-10z" opacity=".5"/><path d="m38 10h10v6h-10z" opacity=".5"/><circle cx="48" cy="46" fill="#3c92d2" r="16"/><path d="m40 46c0 4.4184 3.5818 8 8 8 4.3734 0 7.9204-3.2112 7.9922-7.5676.0048-.0441.0076-.08842.008-.1328 0-.736384-.763816-1.2996-1.5002-1.2996s-1.5.563216-1.5 1.2996c0 2.9454-2.05428 4.7004-4.99988 4.7004-2.9454 0-5.00012-2.0544-5.00012-5 0-2.9454 2.05452-5 5.00012-5v3l5.99988-4.5-5.99908-4.5v2.9986c-4.4184 0-8 3.5818-8 8z" fill="#fff"/></svg>