<svg height="64" width="64" xmlns="http://www.w3.org/2000/svg"><rect height="56" opacity=".2" rx="2.8" transform="matrix(0 -1 -1 0 0 0)" width="56" x="-61" y="-60"/><rect fill="#8e8e8e" height="56" rx="2.8" transform="matrix(0 -1 -1 0 0 0)" width="56" x="-60" y="-60"/><g fill="none" stroke-linecap="round" stroke-linejoin="round" stroke-width="6"><path d="m13 15.9997 9 10 9-10" opacity=".2" stroke="#000"/><path d="m13 15 9 10 9-10" stroke="#3f3f3f"/><path d="m13 37.9997v12h12" opacity=".2" stroke="#000"/><path d="m13 37v12h12" stroke="#3f3f3f"/><path d="m51.028682 25.967716-9-10.000001-9 10.000001" opacity=".2" stroke="#000"/></g><path d="m6.8007812 4c-1.5512 0-2.8007812 1.2495812-2.8007812 2.8007812v1c0-1.5511999 1.2495812-2.8007812 2.8007812-2.8007812h50.3984378c1.5512 0 2.800781 1.2495812 2.800781 2.8007812v-1c0-1.5511999-1.249581-2.8007812-2.800781-2.8007812z" fill="#fff" opacity=".2"/><path d="m51.028682 24.968016-9-10.000001-9 10.000001" fill="none" stroke="#3f3f3f" stroke-linecap="round" stroke-linejoin="round" stroke-width="6"/><path d="m51.028682 49.967864-9-10-9 10" style="opacity:.2;fill:none;stroke:#000;stroke-width:6;stroke-linecap:round;stroke-linejoin:round"/><path d="m51.028682 48.968164-9-10-9 10" fill="none" stroke="#3f3f3f" stroke-linecap="round" stroke-linejoin="round" stroke-width="6"/></svg>