<svg height="32" width="32" xmlns="http://www.w3.org/2000/svg"><rect fill="#a559d6" fill-rule="evenodd" height="28.203388" ry="5.575182" width="28.203388" x="1.898306" y="1.898306"/><g transform="translate(57.612329 -1.68421)"><path d="m-46.202952 10.473684c-2.212029 0-4.005848 1.793818-4.005848 4.005848 0 2.212029 1.793819 4.005848 4.005848 4.005848s4.005848-1.793819 4.005848-4.005848c0-2.21203-1.793819-4.005848-4.005848-4.005848zm-5.608187 14.421052h11.216374c0-4.005848-2.399503-4.807017-5.605784-4.807017-3.207082 0-5.61059.801169-5.61059 4.807017z" fill="#f9f9f9"/><path d="m-39.413479 23.08642v1.782h1.7819l4.5004-4.5004-1.7819-1.7819zm7.8586-4.2891c.18848-.18847.18848-.48545 0-.67393l-1.1137-1.1137c-.18848-.18848-.48546-.18848-.67393 0l-.931.937 1.782 1.782z" fill="#fff"/></g></svg>