<svg height="32" viewBox="0 0 32 32" width="32" xmlns="http://www.w3.org/2000/svg"><rect fill="#1c75bc" fill-rule="evenodd" height="28.203388" ry="5.575182" width="28.203388" x="1.898306" y="1.898306"/><path d="m16 4.496454a11.503546 11.503546 0 0 0 -11.5035461 11.503546 11.503546 11.503546 0 0 0 11.5035461 11.503546 11.503546 11.503546 0 0 0 11.503546-11.503546 11.503546 11.503546 0 0 0 -11.503546-11.503546z" fill="#fff"/><path d="m11.435744 11.48075-.70772 2.465045h9.822534l-1.706527 4.10841h-9.5314468l-.707721 2.465045h10.1902818c1.134991-.02058 2.301713-.704074 2.747555-1.786295l1.782077-5.32027c.420695-1.722587-1.132654-1.931935-2.334254-1.931935zm-1.9776168 3.286727-.853264 2.465046h5.6884268l.853264-2.465046z" fill="#1c75bc"/></svg>