<svg height="32" width="32" xmlns="http://www.w3.org/2000/svg"><g stroke-width=".7"><path d="m30.000001 6.96875c-.054134-.578542-.119792-1.157197-.335937-1.669922-.281373-.667454-.689503-1.267628-1.19336-1.771485s-1.10403-.911987-1.771484-1.193359c-.511546-.215648-1.088925-.279572-1.666016-.333984h-9.033204v14h14.000001z" fill="#cf4f8c"/><path d="m6.964844 2c-.57709.05441-1.15447.118337-1.666016.333985-.667454.281372-1.267627.689502-1.771483 1.193359-.503857.503857-.911987 1.104031-1.193359 1.771485-.215648.511545-.279573 1.088925-.333985 1.666015v9.035156h13.999999v-14z" fill="#21d789"/><path d="m25.035157 30c .577089-.05441 1.154471-.118337 1.666017-.333985.667454-.281372 1.267627-.689502 1.771483-1.193359.503857-.503857.911987-1.104031 1.193359-1.771485.215647-.511545.279573-1.088925.333985-1.666015v-9.035156h-14v14z" fill="#6655e4" opacity=".99"/><path d="m2 25.03125c.05413.578542.119792 1.157197.335937 1.669922.281373.667454.689503 1.267628 1.19336 1.771485s1.10403.911987 1.771484 1.193359c.511546.215648 1.088926.279572 1.666017.333984h9.033203v-14h-14.000001z" fill="#2086e7"/></g><rect fill="#3f3f3f" fill-rule="evenodd" height="21.423727" ry="4.234994" width="21.423727" x="5.288137" y="5.288137"/><g fill="none" stroke="#fff" stroke-linecap="round" stroke-width="2" transform="matrix(.84759559 0 0 .84759559 35.616605 3.593806)"><path d="m-29.643825 21.644068h7.999999"/><path d="m-29.629727 15.650339s4.043782.350249 3.999999-3.999999c-.04378-4.3502633-3.999999-4.0000023-3.999999-4.0000023m-.0141 7.9935873v-7.9999983" stroke-linejoin="bevel"/><path d="m-18.643826 12.643925h1.999998m-.999999 0s .490904 3-2.000001 3c-1.999998 0-1.999998-2.000001-1.999998-4.000002 0-1.9999982 0-3.9999993 1.999998-3.9999993 2.000001 0 1.992378.999999 1.992378.999999" stroke-linejoin="bevel"/></g></svg>