<svg height="32" width="32" xmlns="http://www.w3.org/2000/svg"><path d="m7.472656 1.8984375c-3.08865 0-5.574218 2.4855679-5.574218 5.5742189v8.9160156h28.203125v-8.9160156c.000001-3.088651-2.485567-5.5742189-5.574219-5.5742189z" fill="#8e8e8e" fill-rule="evenodd"/><g stroke-width=".634941"><path d="m7.107841 6.79661h17.789534v10.657478h-17.789534z" fill="#e6e6e6"/><path d="m8.886795 11.059603h4.447383v3.197244h-4.447383z" fill="#808080"/><path d="m18.671038 11.059603h4.447383v3.197244h-4.447383z" fill="#808080"/></g><path d="m30.101563 16.388672h-28.203125v8.138671c0 3.088651 2.485568 5.574219 5.574218 5.574219h17.054688c3.088651.000001 5.574219-2.485567 5.574219-5.574219z" fill="#505686" fill-rule="evenodd"/><rect fill="#808080" height="2.131496" rx="1.065748" stroke-width=".634941" width="17.051966" x="7.476625" y="20.651331"/><rect fill="#808080" height="2.131496" rx="1.065748" stroke-width=".634941" width="12.788974" x="9.608122" y="24.914322"/></svg>