<svg height="32" viewBox="0 0 32 32" width="32" xmlns="http://www.w3.org/2000/svg"><rect fill="#39c" fill-rule="evenodd" height="28.203388" ry="5.575182" width="28.203388" x="1.898306" y="1.898306"/><path d="m19.531892 5.6221094c-1.131877-.05246-2.342749.268832-3.531892.867304-1.976188-.994411-4.016839-1.203127-5.645945-.262562-1.6289558.940478-2.4665648 2.810898-2.5934408 5.0191806-1.848316 1.214129-3.049115 2.876064-3.049115 4.756619 0 1.880556 1.200799 3.54249 3.049115 4.756619.126964 2.208132.966179 4.078704 2.5951358 5.019182 1.629105.940565 3.668149.731698 5.64425-.262562 1.975949.994347 4.013451 1.203127 5.642556.262562 1.628957-.940478 2.469714-2.810964 2.59683-5.019182 1.848315-1.214129 3.049115-2.876063 3.049115-4.756619 0-1.880555-1.2008-3.54249-3.049115-4.756619-.127028-2.2083696-.966179-4.0803966-2.595136-5.0208756-.648739-.374549-1.363361-.56833-2.112358-.603047zm-.06098.89102c.62613.02735 1.208182.187121 1.726139.486164 1.16577.673057 1.877435 1.984899 2.095419 3.6911226-1.032203-.536707-2.219151-.9558736-3.513258-1.2365846-.890379-.980424-1.846096-1.798597-2.827207-2.424047.882036-.369454 1.735503-.550878 2.518907-.516655zm-6.943511.0017c.782966-.03421 1.635702.147627 2.517214.516656-.980242.6252-1.935666 1.443021-2.825514 2.422352-1.294341.280899-2.4810038.7012856-3.5132568 1.2382786.217789-1.7068446.929359-3.0178976 2.0954178-3.6911216.517957-.299042 1.100009-.458813 1.726139-.486165zm3.472603.980799c.763027.431543 1.527356 1.004905 2.264814 1.693952-.731949-.09061-1.489143-.138904-2.264814-.138904-.776954 0-1.535129.0497-2.268203.140598.738575-.690404 1.50396-1.263562 2.268203-1.695646zm0 2.449455c1.158825 0 2.269943.1173716 3.309983.3235446.698559.797445 1.354972 1.701481 1.934494 2.705242.579547 1.003806 1.035691 2.024776 1.377184 3.028788-.341323 1.003647-.795994 2.023377-1.37549 3.027093-.579958 1.004518-1.23857 1.908781-1.937882 2.706937-1.03957.205966-2.150075.323545-3.308289.323545-1.159436 0-2.271169-.117164-3.311678-.323545-.69872-.797723-1.356666-1.701481-1.936188-2.705242-.579155-1.003126-1.0325338-2.024016-1.3737958-3.027094.341591-1.00492.7953998-2.02743 1.3754898-3.032176.579522-1.003761 1.235935-1.906103 1.934494-2.703548 1.040509-.206381 2.152242-.3235446 3.311678-.3235446zm-4.768477.6877446c-.444535.588451-.864034 1.220462-1.2518308 1.892145-.388697.673243-.725123 1.355212-1.012984 2.036132-.228402-.984251-.343282-1.93453-.335403-2.811962.755413-.445284 1.6340818-.822032 2.6002178-1.116315zm9.53526 0c .96621.294186 1.844687.671114 2.600217 1.116315.0079.876841-.105621 1.825033-.333709 2.808573-.2876-.679379-.625121-1.359251-1.012984-2.031048-.388209-.672398-.808605-1.304775-1.253524-1.89384zm-6.457348 1.033311-.945225 4.151878-1.483903.228684-.216826.867303 1.502536-.232071-.635233 2.78994h6.287953l.606435-1.734607h-3.897785l.335402-1.472046 1.699035-.262562.216826-.867304-1.717669.265951.850365-3.735166zm-6.5555968.674194c.05096 1.163528.280167 2.401297.684357 3.664019-.403554 1.261625-.63338 2.498266-.684357 3.660632-1.36942-1.042151-2.147932-2.315603-2.147932-3.662326s.778512-2.620175 2.147932-3.662325zm16.4923228 0c1.369421 1.04215 2.147932 2.315602 2.147932 3.662325s-.778511 2.620175-2.147932 3.662326c-.05111-1.162702-.280199-2.400445-.684357-3.662326.404268-1.262071.633293-2.49927.684357-3.662325zm-15.2794528 5.107267c.287322.679117.623543 1.359452 1.01129 2.031049.3882088.672398.8083828 1.304715 1.2535248 1.893839-.966136-.294283-1.8448048-.67103-2.6002178-1.116315-.0079-.876467.107358-1.825215.335403-2.808573zm14.0665828 0c .228181.983662.341574 1.931852.333709 2.808573-.75553.445201-1.634007.822129-2.600217 1.116315.445008-.589212.865309-1.223125 1.253524-1.895533.387856-.671786.725469-1.350129 1.012984-2.029355zm-14.3274508 3.8656c1.032253.536993 2.2189158.95738 3.5132568 1.238279.889944.979497 1.845335 1.797118 2.825514 2.422352-1.586259.663811-3.076006.701787-4.241659.0288-1.1660578-.673225-1.8791348-1.98291-2.0971118-3.689429zm14.5866258.0017c-.218235 1.705693-.931439 3.016427-2.097114 3.689429-1.166014.6732-2.656541.635614-4.243351-.02879.980704-.625266 1.936996-1.442221 2.827207-2.422353 1.294246-.280711 2.480961-.701523 3.513258-1.238279zm-9.560669 1.499149c.733074.0909 1.491249.140598 2.268203.140598.776266 0 1.534036-.04816 2.266508-.138904-.737621.68933-1.503473 1.262396-2.266508 1.693952-.764251-.432098-1.529464-1.004958-2.268203-1.695646z" fill="#fff" stroke-width="1.030983"/></svg>