<svg height="32" viewBox="0 0 32 32" width="32" xmlns="http://www.w3.org/2000/svg"><rect fill="#afba0d" fill-rule="evenodd" height="28.203388" ry="5.575182" width="28.203388" x="1.898306" y="1.898306"/><path d="m20.470703 4.5292956-.896484 1.7929687a8 8 0 0 1 4.425781 7.1484377 8 8 0 0 1 -4.423828 7.152344l.890625 1.78125a10 10 0 0 0 5.533203-8.933594 10 10 0 0 0 -5.529297-8.9414064zm-8.9375.00781a10 10 0 0 0 -5.533203 8.9335944 10 10 0 0 0 5.529297 8.941406l.896484-1.792968a8 8 0 0 1 -4.425781-7.148438 8 8 0 0 1 4.423828-7.1523444zm7.148438 3.5683598-.894532 1.791015a4 4 0 0 1 2.212891 3.5742196 4 4 0 0 1 -2.210938 3.576172l.890626 1.783203a6 6 0 0 0 3.320312-5.359375 6 6 0 0 0 -3.318359-5.3652346zm-5.361329.00586a6 6 0 0 0 -3.320312 5.3593756 6 6 0 0 0 3.318359 5.365234l.894532-1.791015a4 4 0 0 1 -2.212891-3.574219 4 4 0 0 1 2.210938-3.5761726zm2.679688 3.3593746a2 2 0 0 0 -2 2.000001 2 2 0 0 0 1 1.730469v12.177734a10 15.294114 0 0 0 1 .0918 10 15.294114 0 0 0 1-.07617v-12.195316a2 2 0 0 0 1-1.728516 2 2 0 0 0 -2-2z" fill="#3f3f3f"/></svg>