<svg height="32" width="32" xmlns="http://www.w3.org/2000/svg" xmlns:xlink="http://www.w3.org/1999/xlink"><clipPath id="a"><circle cx="286" cy="26" r="10"/></clipPath><rect fill="#cba606" fill-rule="evenodd" height="28.203388" ry="5.575182" width="28.203388" x="1.898306" y="1.898306"/><circle clip-path="url(#a)" cx="286" cy="26" opacity="0" r="10" stroke-width="1.056767" transform="matrix(1.3247951 0 0 1.3247951 -362.8914 -18.444674)"/><circle cx="15.999996" cy="15.999999" fill="#cba606" r="13.247952" stroke-linecap="round" stroke-linejoin="round" stroke-width="1.620269"/><circle clip-path="url(#a)" cx="286" cy="26" opacity="0" r="10" stroke-width="1.056767" transform="matrix(1.3247951 0 0 1.3247951 -362.8914 -18.444674)"/><circle cx="15.999996" cy="15.999999" fill="#e4d487" r="11.355387" stroke-linecap="round" stroke-linejoin="round" stroke-width="1.388802"/><path d="m14.927481 4.7055904a11.355387 11.355387 0 0 0 -4.109515 1.1920886c.05735.181743-.0096.3867645-.218592.5677693-.141373.1225252-.257199.313352-.257199.4247483 0 .3404913.307731.8632934.553575.9392609.326468.101063.216889.4494462-.203261.6419204-.194178.089133-.433209.3457716-.530865.5700396-.09822.2248372-.2424366.4462665-.3207895.4922559-.077786.046559-.1419429.2219985-.1419429.3906261 0 .2356245.1078701.3497465.4615974.4911195.253225.101625.556414.175442.673942.164087.676213-.06359.723338.330441.13229 1.100336-.313976.408795-.465003.511561-.679052.459894-.199287-.04769-.3082984.0085-.3991411.206099-.095392.209508-.2520901.280479-.6728079.309435-.4139029.02895-.5989964.112984-.753997.339526-.1135501.165221-.2770716.299215-.3639403.299215-.087095 0-.2916064.111276-.4546697.246411-.3318045.275369-.4613694.303189-.5777054.123202-.1537519-.238463-.4854995-.1181-.9791749.354855-.4366147.417878-.489474.529729-.4236128.892534.1171869.645553.467331 1.218433.8671541 1.418287.3488942.174305.3557075.193042.1441567.416743-.1216732.128884-.3304418.266852-.4635269.307164-.3843799.116955-.168003.263445.5178624.350881.7019901.08915.920127.3435.5921834.690407-.1828785.193609-.1726018.229946.1208777.413904.5734471.359965 1.02948.139671.491234-.237327-.3459419-.242438-.1040149-.34123.4036847-.165221.4048199.140239.4848743.132289.7239054-.07551.4911212-.425259 1.0248236.20383.5757184.678486-.2855885.302621-.1992873.667127.1708983.71766.1635182.02215.5030439.174305.7551339.33839.252089.163518.526889.298079.609784.298079.08289 0 .316816.166357.520077.369618.412201.411633.641012.463867.757405.173737.13967-.34861.08345-.528593-.29297-.939091-.299215-.327035-.785793-1.195722-.785793-1.404093 0-.128316.494528-.0193.771599.169764.173169.118664.453648.271393.62341.34066.180551.07382.367915.303189.453648.554143.133426.394032.186229.428098.658613.428098h.513263l.07779.922626c.09312 1.109989.182253 1.334825.563226 1.426237.280479.06757.579693.501907.579693.841433 0 .09028-.201558.311707-.447971.491689-.30546.223133-.437182.412768-.416742.598429.02553.232217-.02726.268554-.355991.24414-.211779-.0159-.579693.05848-.815885.165221-.27991.126041-.583099.166357-.867552.115259-.327035-.05848-.43775-.03578-.43775.09197 0 .09425-.114694.270257-.254361.391761-.345203.299214-.202693.457621.327603.362236.329307-.05905.457623-.03292.514399.109014.12094.301485-.18566.732989-.470112.662018-.180551-.04542-.266852.01646-.323061.229379-.0193.07552-.05506.139671-.09765.194178a11.355387 11.355387 0 0 0 1.79699.530863c-.05678-.108448-.121505-.207235-.184525-.251522-.292401-.206667-.09652-.743778.306028-.840298.410497-.0988.345771-.365076-.100494-.416175-.391193-.04428-.807368-.440589-.676781-.643283.088-.135696.462164-.115825 1.219001.06359.341797.08063.57515-.08176 1.367188-.948176.45819-.501907.810775-.710846 1.197426-.710846.147619 0 .673942-.135698 1.170172-.301487.93682-.313976 1.303031-.302621 1.268398.03975-.07154.711984.38665.688136 1.133267-.05791.311137-.310569.595589-.535406.632494-.500204.142511.136832-.114115.802825-.413903 1.072516-.379837.341798-.398574.55755-.06415.728448.182821.09425.260605.284452.289562.711982l.0386.583668h.474655c.166357 0 .304325.02271.415607.06529a11.355387 11.355387 0 0 0 5.501686-9.371599c-.173738-.371322-.161247-.595591 0-.848248a11.355387 11.355387 0 0 0 -.0511-.63647c-.103334-.005-.20894-.0096-.330442-.0045-.572312.02385-1.062297-.201558-1.062297-.48885 0-.06075-.203262-.311137-.451377-.555845-.281613-.277072-.425826-.522348-.383812-.649529.0386-.115825-.04428-.302622-.190771-.429234-.142509-.123779-.25947-.322493-.25947-.441725 0-.190203-.120939-.214049-.995867-.193042l-.995868.02442.01704.981673c.02952 1.719207.285588 2.165473 1.075355 1.877614.361669-.132289 1.250228-.03237 1.502886.16806.09141.07267.223701.33612.293536.585938.0704.249251.330442.681323.579125.958962.503043.563228.542219.782955.253793 1.443839-.251522.576853-.522915.510424-.468978-.115259l.03975-.465572-.425827.07948c-.235624.04485-.530864.218592-.663154.390626-.188501.244709-.276505.280478-.417879.168628-.0988-.07835-.178847-.243574-.178847-.366212 0-.122636-.121505-.258903-.269123-.303756-.148188-.04486-.350881-.267988-.450241-.496799-.159543-.365643-.155569-.477494.03008-.92149.187931-.450241.189635-.524618.01646-.690975-.158976-.152162-.241302-.157272-.45024-.03179-.210076.125476-.309435.11639-.559254-.0511-.166356-.111854-.457622-.204396-.646121-.204396-.383244 0-.499069-.186229-.499069-.802827 0-.569473-.339526-.776141-1.14803-.701763-.560956.05167-.68473.01477-1.137242-.333849-.27991-.215183-.721634-.732989-.982809-1.152003-.261174-.419014-.54222-.856764-.624546-.972589-.118099-.167493-.08915-.328171.141943-.78409l.291832-.5734461-.616596.083466c-1.09693.1481891-1.318929.2901311-.847112.5433561.183957.09822.191905.148755.04996.31284-.09312.106739-.136833.276504-.09652.376999.04031.09993-.0108.33612-.112985.524052-.102768.188499-.188499.452512-.191905.588208-.0108.422988-.735262.759676-1.54263.714822-1.222975-.06757-1.322335-.04825-1.756678.354856-.542787.504179-.612624.738669-.359966 1.206511.244709.454216.67962.635333 1.432483.597861.673374-.0335.749455.02611.595589.471249-.131154.378134-.570609.523483-.868687.287291-.229379-.182255-1.020282-.04144-1.262719.225404-.101624.111288-.252658.404252-.334984.649528-.141942.423556-.18339.449674-.819291.510993-.634767.06188-.696086.04143-1.152573-.37927-.5092791-.468978-.595579-.827808-.3503038-1.445541.1090139-.273664.189635-.318519.4803328-.265148.575718.105043.802827-.09483.802827-.709712 0-.298079-.05791-.576854-.128884-.618869-.0704-.04201-.128316-.199854-.128316-.351449 0-.151594-.07267-.346907-.160678-.432639-.128884-.124911-.110145-.191907.09539-.337256.140807-.09936.372456-.166357.514398-.149323.141374.01703.532567-.04428.869255-.135697.486578-.131155.629656-.230515.695518-.486578.12491-.486011.4298-.876069.685297-.876069.403684 0 .4122-.949311.01988-2.3301252-.05792-.20383-.21746-.3332806-.499074-.403116-.228243-.056775-.476358-.2123464-.551304-.3462263-.07438-.13388-.211211-.2428917-.303756-.2428917-.09255 0-.273666-.1108284-.401413-.2461848-.128884-.1362647-.395168-.2461849-.597862-.2461849-.479765 0-.487713-.3303283-.01195-.5045198.502476-.1841844 1.284862.057231 1.473929.4546129.256063.5388699.540516.3140333.631928-.5000912.112984-1.006939.46046-1.296331 1.555687-1.296331h.7875l-.345203-.3449081c-.107308-.107649-.196448-.2392013-.258334-.3681985zm4.082261.3570703c-.02214.019986-.04372.036337-.0653.058764-.263445.2688957-.387219.30722-.79431.2451061-.710846-.1083867-.619435.1778253.167492.5234265.425259.186853.698925.39988.792039.6154053.448538 1.0399263.757404 1.5998037.912405 1.6565806.313409.1152567.500205-.1160523.57004-.707327.08006-.678371.309435-.8221869.721635-.45132.160112.1439296.383813.261685.496799.261685.352584 0 .61319.1415449.61319.3327129 0 .1007224.11923.3434436.265149.539835.215184.2889938.361101.3582625.763081.3582625.493392 0 .796013.092552 1.413746.4337755.0096.00501.0193.00681.02895.011951a11.355387 11.355387 0 0 0 -5.884916-3.8788574zm-14.3628615 10.8886803a11.355387 11.355387 0 0 0 -.00221.04883 11.355387 11.355387 0 0 0  .2217709 2.181371c.4114056.167492.5250731.101059.5677693-.281614.022082-.198157.1255299-.422425.2306807-.50021.1624416-.1198.1331448-.181119-.1996248-.408226-.2154121-.147049-.4277011-.403682-.4713058-.570037-.0422421-.161247-.1850928-.337257-.3470773-.470114zm3.5741649 3.753524c-.1061725-.0108-.2340913.04598-.3760337.182253-.3002931.287292-.2549283.864713.085393 1.092957.3900003.261741.5404594.18566.5898556-.296944.060746-.595023-.066426-.953852-.2992149-.978266zm1.9270096 1.716933c-.115825.0039-.2435728.08687-.3713219.261743-.135696.185092-.1726011.424123-.1209394.786928.064151.446267.036342.541652-.1970165.661451-.3003502.153299-.3645081.609786-.1186648.844842.2441406.23392.4769262.172602.5609566-.14762.11923-.456487.787495-.509857 1.243981-.09993.194747.174874.353721.263445.353721.196449 0-.06699-.202694-.310571-.450241-.539949-.378702-.352018-.449106-.501909-.449106-.954989 0-.639308-.19588-1.016874-.451376-1.008927zm-3.1646901 1.465981a11.355387 11.355387 0 0 0  .2628205.331578c-.077387-.1198-.1657319-.23449-.2628205-.331578zm3.8267081 1.743052c-.05735.01987-.08176.09197-.08176.218591 0 .128316-.08176.262878-.181687.299215-.132858.04883-.163518.202694-.112419.570041.0096.0687.01247.123779.0159.181118a11.355387 11.355387 0 0 0  .472384.242437c-.008-.196447.02781-.42753.130586-.717092.174307-.491689.180551-.614894.0386-.701196-.132858-.08063-.223701-.112984-.281613-.09312z" fill="#897f51"/><path d="m29.225769 15.373457c-.69663.378815-6.550985 3.465389-13.225772 3.465389-6.6594451 0-12.4969657-3.069071-13.2165321-3.459845a13.247951 13.247951 0 0 0 -.031419.620998 13.247951 13.247951 0 0 0  .2846239 2.663267c2.576526 1.174422 7.4622242 3.014426 12.9633282 3.014426 5.511934 0 10.405866-1.847792 12.978112-3.021818a13.247951 13.247951 0 0 0  .269839-2.655875 13.247951 13.247951 0 0 0 -.02218-.626542z" fill="#cba606" stroke-width="3"/><g stroke-width="1.333333" transform="matrix(.75 0 0 .75 4.586169 5.477633)"><circle cx="24" cy="23" fill="#4f4f4f" fill-rule="evenodd" r="8" stroke-width="1.333333"/><path d="m23 19-.0882 1.0536a3.1429 3.1429 0 0 0 -.91852.53126l-.95759-.4509-1 1.7321.86941.6038a3.1429 3.1429 0 0 0 -.048.53013 3.1429 3.1429 0 0 0  .0457.53237l-.86719.60156 1 1.7321.95536-.44978a3.1429 3.1429 0 0 0  .92075.5279l.0882 1.0558h2l .0882-1.0536a3.1429 3.1429 0 0 0  .91854-.53126l.95758.4509 1-1.7321-.86942-.6038a3.1429 3.1429 0 0 0  .048-.53013 3.1429 3.1429 0 0 0 -.0457-.53237l.86719-.60156-1-1.7321-.95536.44978a3.1429 3.1429 0 0 0 -.921-.528l-.088-1.056h-2zm1 2.8572a1.1429 1.1429 0 0 1 1.143 1.143 1.1429 1.1429 0 0 1 -1.143 1.143 1.1429 1.1429 0 0 1 -1.143-1.143 1.1429 1.1429 0 0 1 1.143-1.143z" fill="#fff" stroke-width="1.333333"/></g></svg>