<svg height="32" width="32" xmlns="http://www.w3.org/2000/svg"><rect fill="#ccc" fill-rule="evenodd" height="28.203388" ry="5.575182" width="28.203388" x="1.898306" y="1.898306"/><path d="m21.5 8.9999999a7 7 0 0 0 -7 7.0000001 7 7 0 0 0 7 7 7 7 0 0 0 7-7 7 7 0 0 0 -7-7.0000001zm-13.0000002 2.0000001a5 5 0 0 0 -5 5 5 5 0 0 0 5 5 5 5 0 0 0 5.0000002-5 5 5 0 0 0 -5.0000002-5zm13.0000002 0a5 5 0 0 1 5 5 5 5 0 0 1 -5 5 5 5 0 0 1 -5-5 5 5 0 0 1 5-5zm-13.0000002 2a3 3 0 0 1 3.0000002 3 3 3 0 0 1 -3.0000002 3 3 3 0 0 1 -3-3 3 3 0 0 1 3-3z" fill="#f15990"/></svg>