<svg height="32" width="32" xmlns="http://www.w3.org/2000/svg"><rect fill="#999" fill-rule="evenodd" height="28.203388" ry="5.575182" width="28.203388" x="1.898306" y="1.898306"/><g transform="translate(43.3007 2.84965)"><path d="m-27.300699 2.8223777c-4.819863 0-5.355387 4.3201974-5.355245 9.1804203h2.295105c-.05668-4.8602229 1.044417-6.8853154 3.06014-6.8853154 2.015722 0 3.116537 2.0250925 3.06014 6.8853154h2.295105c-.000143-4.8602229-.535667-9.1804203-5.355245-9.1804203z" fill="#ccc" stroke-linecap="round" stroke-width=".685315"/><rect fill="#fff" height="15.300699" rx="7.65035" stroke-width=".625" transform="matrix(0 -1 -1 0 0 0)" width="15.300699" x="-23.478323" y="19.650351"/><rect fill="#4f4f4f" height="10.710489" rx="5.355245" stroke-width=".4375" transform="matrix(0 -1 -1 0 0 0)" width="10.710489" x="-21.183218" y="21.945456"/><path d="m-24.325411 12.852684-1.217163.405721-1.11045.370855a2.2951049 2.2951049 0 0 0 -2.270559.575828 2.2951049 2.2951049 0 0 0 0 3.245769 2.2951049 2.2951049 0 0 0 3.245769 0 2.2951049 2.2951049 0 0 0  .576884-2.273729l.369798-1.107281z" fill="#ff5969"/></g></svg>