<svg height="32" width="32" xmlns="http://www.w3.org/2000/svg"><g transform="translate(46.508474 -2.305085)"><rect fill="#74d159" fill-rule="evenodd" height="28.203388" ry="5.575182" width="28.203388" x="-44.610168" y="4.203391"/><path d="m-38.474577 8.3559322v1h-.5c-.831 0-1.5.6689998-1.5 1.4999998 0 .831001.669 1.500001 1.5 1.500001h.5v1h-1.9082c.206.582.754 1 1.4082 1h .5v1h1v-1h .5c.831 0 1.5-.669 1.5-1.5s-.669-1.500001-1.5-1.500001h-.5v-1h1.9082c-.206-.5819998-.754-.9999998-1.408-.9999998h-.5v-1h-1zm-.5 1.9999998h.5v1h-.5c-.277 0-.5-.223-.5-.5s.223-.5.5-.5zm1.5 2.000001h.5c.277 0 .5.223.5.5s-.2233.513-.5.5h-.5zm3.999999 2v1h6v-1z" fill="#fff"/></g></svg>