<svg height="32" viewBox="0 0 32 32" width="32" xmlns="http://www.w3.org/2000/svg"><rect fill="#999" fill-rule="evenodd" height="28.203388" ry="5.575182" width="28.203388" x="1.898306" y="1.898306"/><g transform="translate(30.341651 1.84261)"><path d="m-18.262209 24.66803c-.143035-.211692-.402855-.67357-.577378-1.02639-.374447-.757004-.522081-.78073-1.330443-.213837-1.013509.710768-1.401681.515877-1.0925-.54851.102032-.351254.123514-.697577.04774-.769606-.07578-.07203-.544906.0161-1.042509.195812-1.138596.411238-1.480822.266812-1.086275-.458425.153857-.282818.235157-.55659.180665-.608388-.05449-.0518-.425874.01542-.825293.149378-1.378243.462226-1.564537.223053-.685973-.880666.294189-.369584.537144-.815764.539898-.991516.0028-.175751.248109-.582736.545237-.904411.679199-.735308 1.440853-2.148516 1.434747-2.662099-1.736544-2.530868-.954473-3.715723.181905-5.886433.297427-.6235224.694604-1.8594325 1.059364-2.1864369 1.544719-1.999571 4.547713-1.9423564 6.168816-.027302.490118.3052558 1.336568 2.0396048 1.498749 2.6647519 2.002452 2.402041-.441233 4.249181-.168212 5.533908.14518.663236.831794 1.816696 1.533835 2.576736.290465.314463.528119.746772.528119.960685s.202462.641245.449913.949628c.74921.93369.54061 1.232672-.594445.852007-.875273-.293546-1.003907-.206611-.651841.440542.243425.447451.240696.504926-.02864.60317-.163736.05973-.688381-.01019-1.165881-.155313-.477498-.145148-.908415-.225658-.957594-.178911-.04917.04674-.04248.461662.01488.922037.0907.727937.06219.837041-.218727.837041-.177662 0-.58846-.192451-.912888-.427665-.324428-.235216-.675091-.427663-.77925-.427663-.104161 0-.434668.461878-.734461 1.026395-.582451 1.096766-.915526 1.257228-1.33156.641494z" fill="#248afd"/><g stroke-width="1.288237"><g transform="matrix(.49364117 0 0 .52476725 -38.367973 -50.961487)"><path d="m34.519066 106.36484s1.066583 6.00352 7.132428 7.37148c0 0 .50691-4.185-1.191821-5.62994-1.698732-1.44493-5.940607-1.74154-5.940607-1.74154z" fill="#d19e01" stroke-width=".340846"/><path d="m48.671634 106.24133s-.954355 5.92666-7.02014 7.49499c0 0-.562423-4.17566 1.110832-5.65004 1.673256-1.47435 5.909308-1.84495 5.909308-1.84495z" fill="#d19e01" stroke-width=".340846"/><path d="m41.671494 103.38167s-6.067618 5.31429-.02 10.35465c5.764135-5.24442.02-10.35465.02-10.35465z" fill="#fecd38" stroke-width=".349794"/></g><g transform="matrix(.38812723 0 0 .38812723 -30.254867 1.349191)"><circle cx="21.5" cy="28.5" fill="#fecd38" r="6.5" stroke-linecap="round" stroke-linejoin="bevel" stroke-width="2.763129"/><path d="m21.499999 24.5a4.0002443 3.9998988 0 0 0 -3.999999 3.999655 4.0002443 3.9998988 0 0 0 3.999999 4.000345 4.0002443 3.9998988 0 0 0 4.000001-4.000345 4.0002443 3.9998988 0 0 0 -4.000001-3.999655zm0 2.666438a1.3334147 1.3332995 0 0 1 1.333335 1.333217 1.3334147 1.3332995 0 0 1 -1.333335 1.333217 1.3334147 1.3332995 0 0 1 -1.333331-1.333217 1.3334147 1.3332995 0 0 1 1.333331-1.333217z" fill="#535353" stroke-linecap="round" stroke-linejoin="bevel" stroke-width="1.331863"/></g><g transform="matrix(.38812723 0 0 .38812723 -29.478613 1.349191)"><circle cx="41.5" cy="28.5" fill="#fecd38" r="6.5" stroke-linecap="round" stroke-linejoin="bevel" stroke-width="2.763129"/><path d="m41.5 24.5a4.0002443 3.9999003 0 0 0 -4 3.999646 4.0002443 3.9999003 0 0 0 4 4.000354 4.0002443 3.9999003 0 0 0 4-4.000354 4.0002443 3.9999003 0 0 0 -4-3.999646zm0 2.66644a1.3334147 1.3333 0 0 1 1.333335 1.333206 1.3334147 1.3333 0 0 1 -1.333335 1.33322 1.3334147 1.3333 0 0 1 -1.333331-1.33322 1.3334147 1.3333 0 0 1 1.333331-1.333206z" fill="#535353" stroke-linecap="round" stroke-linejoin="bevel" stroke-width="1.331863"/></g><g transform="matrix(.75328179 0 0 .72943941 -29.887305 2.243576)"><path d="m11.362765 16.394915s1.658349-1.658349 4.545105-1.658349 4.729366 2.026872 4.729366 2.026872-.06142 1.166986-.737044 1.535508c-.675624.368523-2.518234-1.719769-4.238003-1.719769-1.71977 0-3.50096 1.474087-3.50096 1.474087z" fill="#fecd38" stroke-width=".644119"/><path d="m15.940966 15.750077c-1.272224-.0055-2.491866.286564-3.420262.864817l-1.020703.635816.91484 1.808016c.58649 1.159216 1.3502 2.235599 2.128143 2.999646.667336.655417 1.385484 1.19163 1.596187 1.19163.62999 0 2.867233-2.511117 3.739501-4.19743.447634-.865386.713811-1.512924.591644-1.438768-.122167.07415-.315107-.105978-.429057-.400343-.128239-.331268-.565977-.675993-1.148663-.904978-.940856-.369733-1.962121-.554144-2.95163-.558406z" fill="#535353" stroke-width="1.288237"/></g></g><path d="m63.745563 117.94995h-2.857236l-.7576 2.96546h2.857235zm-1.222984-6.47207-1.038994 4.1668h2.857235l1.049817-4.1668h2.391853l-1.049818 4.1668h1.753508v2.30527h-2.327119l-.746778 2.96546h3.073897l-.000204 2.32692h-3.636482l-1.038994 4.14515h-2.391853l1.038995-4.14515h-2.857235l-1.038995 4.14515h-2.413498l1.038995-4.14515h-1.775058v-2.32692h2.305378l.7576-2.96546h-3.062978l.000108-2.30527h3.658127l1.038995-4.1668z" fill="#f2f2f2" transform="matrix(.53435172 0 0 .48791576 -40.069796 -47.220715)"/></g></svg>