<svg height="32" width="32" xmlns="http://www.w3.org/2000/svg"><rect fill="#7767c0" fill-rule="evenodd" height="28.203388" ry="5.575182" width="28.203388" x="1.898306" y="1.898306"/><g transform="translate(42.628906 -1.119141)"><g fill-rule="evenodd"><path d="m-20.699219 31.220703v-15.015625c0-.772162-.156127-1.506374-.4375-2.173828-.281372-.667454-.687549-1.269581-1.191406-1.773438-.503857-.503856-1.104031-.910033-1.771484-1.191406-.667454-.281372-1.403619-.4375-2.175782-.4375h-13.015625c-.510821 0-.970095.161561-1.439453.289063v14.726562c0 3.088651 2.485568 5.576172 5.574219 5.576172z" fill="#9182d7"/><path d="m-20.699219 24.951172v6.269531h2.595703c3.088651 0 5.576172-2.487521 5.576172-5.576172v-.693359z" fill="#a79bdf"/><path d="m-33.791016 3.0175781h-1.365234c-3.088651 0-5.574219 2.485568-5.574219 5.5742188v2.3261721c.469358-.127502.928632-.289063 1.439453-.289063h5.5z" fill="#a79bdf"/><path d="m-33.791016 3.0175781v7.6113279h7.515625c.772163 0 1.508328.156128 2.175782.4375.667453.281373 1.267627.687551 1.771484 1.191406.503857.503857.910034 1.105984 1.191406 1.773438.281373.667454.4375 1.401666.4375 2.173828v8.746094h8.171875v-16.3593751c0-3.0886508-2.487521-5.5742188-5.576172-5.5742188z" fill="#7767c0"/></g><path d="m-31.195804 14.132867c-3.866004 0-6.999988 3.134022-6.999988 7.000025s3.133984 6.999988 6.999988 6.999988c3.866003 0 7.000025-3.133985 7.000025-6.999988s-3.134022-7.000025-7.000025-7.000025zm-.701178 1.337915c.08164-.0076.185197.0038.26759 0 .01134.03893-.05934.177638-.152315.380863-.592667 1.29479-.62623 2.812535-.07635 3.623017.0994.147024.189355.286488.189355.30463 0 .0189-.107339.03779-.228662.03779-.284976 0-.554532-.173102-1.105474-.609373-.244914-.19389-.562281-.356409-.685569-.380863-.193512-.03855-.245669-.02268-.496101.228662-.232819.232819-.30463.359055-.30463.572258 0 .808705.959547 1.449827 2.744126 1.82812 2.423585.513675 3.021052.975609 3.087912 2.250028.08391 1.598022-.767357 2.803465-2.630853 3.736328-.222236.111496-.363591.153448-.457059.189354-.0412-.0037-.07219.0037-.113385 0-.01512-.04951-.03893-.163654-.03893-.380863 0-.848769-.333733-1.722369-.837922-2.21091-.135307-.13115-.515376-.408529-.839811-.609411-.324283-.200693-.651666-.433663-.724611-.533178-.120945-.165166-.130016-.267213-.03779-.572259.169323-.557329.370016-.868573.761726-1.220711.205228-.184441.411515-.338268.45702-.34167.04535-.0037-.260787-.09676-.722645-.191244-.461859-.09449-1.138999-.293669-1.488303-.419905-.638702-.230929-1.499376-.715276-1.828119-1.066432l-.03893-.03893c.471042-1.876309 1.792554-3.413216 3.544932-4.154305.366614-.154961.745549-.2623 1.144554-.34356.198803-.04082.404145-.05518.609373-.07635zm5.718765 2.859364c.143244.08844.683452 1.259187.837883 1.830085.199559.737045.184819 2.011956 0 2.744126-.0703.278551-.159496.53983-.189354.572258-.03024.03402-.139464-.153827-.26759-.380863-.128126-.226772-.537109-.709757-.876964-1.068359-.980939-1.035099-1.135522-1.574249-.724611-2.400378.207118-.416579 1.10982-1.365317 1.220712-1.296869z" fill="#fff"/><g stroke-width="1.333333" transform="matrix(.75 0 0 .75 -35.463287 5.847902)"><circle cx="21" cy="23" fill="#4f4f4f" fill-rule="evenodd" r="8" stroke-width="1.777778"/><path d="m22 18.999955v4.000045h1.5l-2.50002 3-2.49998-3h1.5v-4.000045z" fill="#fff" stroke-width="1.333333"/></g></g></svg>