<svg height="32" width="32" xmlns="http://www.w3.org/2000/svg"><rect fill="#ccc" fill-rule="evenodd" height="28.203388" ry="5.575182" width="28.203388" x="1.898306" y="1.898306"/><g transform="translate(88.59402 10.198037)"><path d="m-83.619802-.10929982a1.1760602 1.1760602 0 1 0  .125556 2.34729162c3.78719-.2034143 5.498798 1.1272713 6.923975 2.9551682s2.282955 4.2612297 4.086707 5.944022c1.454194 1.356677 3.548818 2.191716 5.591852 2.772958 2.043033.581244 3.99208.87277 5.285616.87277a1.1760602 1.1760602 0 1 0 0-2.351885c-.901556 0-2.793055-.256693-4.640992-.78243-1.847937-.525738-3.694204-1.354769-4.633336-2.2309229-1.155899-1.0783842-2.119664-3.4726265-3.834063-5.6714727-1.714399-2.1988463-4.460907-4.09421352-8.905315-3.85549922z" fill="#4a61cc"/><path d="m-68.972579-3.1639944c-1.164596-.1195796-2.051313.4943392-2.586156 1.0075132-.267421.2565871-.467688.5062112-.607876.6997472-.07009.096768-.124019.179256-.165367.244988-.0074.011745-.01333.021422-.0199.032155l-.774775.96770273a1.1760602 1.1760602 0 0 0  .362888 1.78841267c-.148335.2086395-.301942.4094777-.382793.7609941-.347368 1.5102345.360681 2.8488892 1.221878 3.7682222.622552.6645775 1.383443.9779384 2.077804 1.2280026.347181.1250321.676354.2200517.964641.2863298.288286.066278.434622.1308011.862051.099526 1.244934-.091093 2.240775-.4757651 2.965887-1.0672291.725111-.591464 1.144742-1.3257879 1.462272-1.9782785.652183-1.3401688.254388-2.6687624-.04288-3.618167a1.1760602 1.1760602 0 0 0 -.02297-.0673717c-.975149-2.5598749-3.32114-3.9182346-5.299398-4.1494849a1.1760602 1.1760602 0 0 0 -.01531-.00307zm-.24652 2.34269804c1.032614.12505734 2.73534 1.07180353 3.344086 2.61371616.240162.7861283.316407 1.5471129.16843 1.8511908-.261031.5363898-.506251.9186384-.832959 1.1851297-.326708.2664912-.769966.480437-1.65367.5450984.246203-.018015.02394-.00312-.162304-.045936-.186236-.042816-.437745-.114558-.693623-.2067086-.511755-.1843014-1.049924-.5081747-1.159099-.6247195-.440894-.4706577-.725717-1.2863298-.646156-1.6322328-.07275.3162938.07464-.047491.329203-.2495816.254564-.2020907.502225-.3506391.502225-.3506391a1.1760602 1.1760602 0 0 0 -.349108-2.17273768 1.1760602 1.1760602 0 0 0  .07962-.15771107c-.0042.01109776-.0086.02445334-.01072.02909204-.01944.04349498-.02524.0540667-.03062.06430916-.0056.0106901-.0055.00995-.0077.01378048.01399-.02224256.04149-.06525541.07962-.11790047.07626-.10528983.195177-.25119725.330734-.3812627.268812-.25792081.525148-.37953311.711997-.36288851zm-.984546.3475768c.000004.00000439.0016.001529.0016.001529 0-.00000235-.0013.0125951-.0016.0137805a1.1760602 1.1760602 0 0 0 0-.0153116zm-.04747.29092333c-.00009.00054297-.0016.00919-.0016.009187.000018-.00006131-.0097.0260299-.01531.0413414a1.1760602 1.1760602 0 0 0  .01684-.0505287z" fill="#e84343"/></g></svg>