<svg height="32" width="32" xmlns="http://www.w3.org/2000/svg"><rect fill="#37a0f2" fill-rule="evenodd" height="28.203388" ry="5.575182" width="28.203388" x="1.898306" y="1.898306"/><path d="m10.859839 5.4384099a11.197392 11.197392 0 0 0 -.875876.4702104h.114821l.05795.1869885-.165082.1541241.705276.019755.108295.2547411-.793895-.0295131-.03935-.1957144-.462532-.1006166a11.197392 11.197392 0 0 0 -.47349.338961h.276655v.184797l-.121379.1618343h-.579553v-.0240568a11.197392 11.197392 0 0 0 -3.492627 4.9973956l.06123.02952v.934903l.469107.803732.382726.05905.04921-.275559-.451615-.696558-.08748-.67797h.26353l.111534.697653.65172.952418-.167305.307273.414432.635324 1.02904.25594v-.167305l.411152.05905-.03827.294148.322581.05905.499724.136688.705308.805892.902109.06779.08748.737012-.616728.431932-.02843.658286-.08857.402403.892272 1.119739.0678.382727s.323397.08857.363044.08857c.03911 0 .724983.520503.724983.520503v2.022969l.244943.06889-.166209.932743.411152.550031-.07546.925065.543466.957937.693278.605795a11.197392 11.197392 0 0 0  .03718.0066l.670308.01203.0678-.226355-.515032-.43521.02952-.21651.09185-.264626.01968-.270098-.348823-.01093-.176055-.220885.289773-.279934.03937-.209951-.323677-.09295.01968-.195738.460365-.06998.700933-.337889.235105-.431932.734829-.94258-.166209-.737012.225259-.392565.675779.02078.454894-.361948.147622-1.422628.504098-.641883.08857-.413343-.460356-.147622-.303994-.498636-1.038798-.01093-.823408-.314927-.03827-.588303-.27556-.481136-.744666-.01093-.42974-.676875-.382727-.186988-.01968.205576-.695462.04155-.254789-.355389-.724983-.147622-.598141.692183-.938981-.158363-.06894-1.062953-.68672-.116773.275616-.521478-.07878-.29993-.90211.604659-.567548-.06878-.202273-.445496.123571-.457494.312744-.577369.720616-.365227 1.390956-.0011-.0033.425373.499731.232913-.03937-.726079.359757-.364131.727174-.477856.0503-.336794.724991-.756696.770916-.427556-.0678-.056861.521598-.4920694.191364.050299.08857.1104463.197922-.2208845.04812-.020777-.21651-.030619-.220884-.074358v-.2122091l.117005-.095138h.256972l.1181.051396.101697.2066719.125754-.018588v-.018588l.03499.012032.361948-.054677.0514-.1771427.205576.051396v.1924512l-.190268.1312174.02843.2099511.653911.2022969s.0012.00342.0022.00875l.150901-.013123.0098-.2843098-.519407-.2372887-.02952-.1355924.430836-.1476216.01859-.4133437-.449432-.2744641-.02952-.6965578-.617824.3039932h-.22526l.05905-.5303485-.839805-.1990176-.347735.2635306v.8026131l-.625478.1990176-.250414.523782-.27228.043743v-.6703153l-.587863-.081101-.293532-.1913955-.118372-.4340589 1.050955-.6167363.51348-.1563636.05249.3455435.286493-.014216.02187-.1738635.299618-.043739.0055-.060124-.129034-.053581-.02952-.184797.368506-.030618.22198-.2329138.01203-.016403.0033.00109.0678-.069984.774196-.098417.342264.291964-.897791.4789525 1.142694.270097.147622-.3827268h.499723l.176055-.3335143-.35211-.088571v-.422088l-1.107742-.4921254-.763822.088539-.431099.2263473.02952.5500319-.451615-.06889-.06889-.3039932.431931-.3936603-.784033-.038272-.22526.067797-.09732.2646263.29306.050301-.05795.2941475-.499723.029524-.07764.1957384-.724983.020776s-.02013-.4122479-.04921-.4122479c-.02909.0000196.567524-.00984.567524-.00984l.431899-.4231827-.235145-.1181325-.313527.305129-.519079-.0295931-.278095-.3815912zm12.138773 1.6238618-.356477.1399673-.228539.249318.05249.2908682.281031.039365.1684.4242772.484415-.1957385.07982.5664281h-.145438l-.398036-.059049-.440681.074358-.426461.6036113-.610169.096226-.08857.523782.258068.060142-.07436.3367937-.605795-.12138-.555494.12138-.118101.309456.09623.650632.32586.153093.546745-.0033.369602-.0328.112629-.295244.57737-.751233.380535.07764.373977-.3389847.06998.2646267.920745.623295-.112629.1509-.415528-.02187.159651.226356.255877.05577.298522-.124659-.0066-.360852.133409-.0667-.107159-.113726-.614545-.34336-.160747-.4559898h.510665l.16293.1618343.439586.3805355.01859.459269.455989.485511.169489-.665941.314926-.172776.05905.544561.308368.338985.143247-.0022a11.197392 11.197392 0 0 0 -1.662813-2.8353602l-.742483-.00656-.0503-.1684008.44177-.2252595a11.197392 11.197392 0 0 0 -1.049756-1.0475961zm-13.69601.1158929c.02219 0 0 .2569722 0 .2569722l-.580665.037191-.110454-.1323691.411184-.1180526s.257732-.043739.279935-.043739zm.706395 1.2520285.278815.066704-.09622.3751126-.30185.096218-.190196-.3915088zm.76435.8901126h.462549v.1410632h.101696v.2427594h-.705308l-.263698-.073263.06558-.1694805.338961-.1410872zm.69.1038798.242759.2208846-.242759.059049v-.2799352zm.533627.3389851.179334.1126297-.144342.1191883-.142159-.1191883.107159-.1126297zm-1.355924.037181h.389285l-.499243.6987174-.205552-.110374.04375-.294172.272257-.2941714zm.625478 0h .395844v.2351054l-.176055.113725-.219789.04155v-.3903773zm.49207.2580684h.02952l.448335.132313v.228539h-.375072l-.102791-.148718v-.212135zm-.184805.212134v.229635l-.168401.169488h-.375073l.05905-.256972.177142-.01531.03608-.08857.271185-.03827zm11.656485.973213-1.323132.102793-.410064.220884h-.524878l-.258068-.02624-.637508.355389v.668125l-1.304576.94258.108255.402402h.264626l-.06889.382727-.185893.06889-.01093 1.001607 1.127418 1.285941h.489886l.03062-.07764h.881394l.253693-.236193h.50082l.273376.275559.745762.07764-.09842.992889.826688 1.463099-.435211.834366.02952.392565.342264.34336v.94474l.450519.60689v.413344a11.197392 11.197392 0 0 0 2.583399-7.147135 11.197392 11.197392 0 0 0 -.475889-3.198456h-.556591l-.572994-.427556-.602516.05905v.368506h-.191363l-.205577-.147621-1.045356-.265722v-.676875z" fill="#a2f46a"/><g stroke-width="1.333333" transform="matrix(.75 0 0 .75 4.047399 5.01614)"><circle cx="24" cy="23" fill="#ffc921" r="8" stroke-width="1.777778"/><path d="m23.983 27-2.9828-4h2v-4h2v4h2z" fill="#2e2e2e" stroke-width="1.777778"/></g></svg>