<svg height="32" width="32" xmlns="http://www.w3.org/2000/svg"><rect fill="#35b9f5" fill-rule="evenodd" height="28.203388" ry="5.575182" width="28.203388" x="1.898306" y="1.898306"/><g fill="#fff" transform="matrix(.18483429 0 0 .18483429 6.966224 6.966224)"><path d="m36.491 40.31s13.827-.006 13.858-.006c3.201 0 5.82-2.344 5.873-5.556.051-3.244-2.537-6.15-5.781-6.201l-13.766.016c-3.249-.031-5.914 2.537-5.966 5.78-.051 3.243 2.538 5.915 5.782 5.967z"/><path d="m62.55 55.48h-27.529c-3.244 0-5.875 2.631-5.875 5.875s2.631 5.873 5.875 5.873h27.529c3.244 0 5.875-2.629 5.875-5.873s-2.631-5.875-5.875-5.875z"/><path d="m48.875 0c-26.992 0-48.875 21.882-48.875 48.875s21.883 48.875 48.875 48.875 48.875-21.882 48.875-48.875-21.883-48.875-48.875-48.875zm27.902 77.021c-3.776 3.889-9.108 5.972-15.42 6.024h-24.669c-.155.002-.31.003-.463.003-7.074 0-12.534-1.994-16.227-5.927-3.694-3.935-4.878-9.256-4.878-16.649.007-.51-.042-1.006-.011-1.496l.013-25.991c.305-6.445 3.185-10.431 5.353-12.713 3.503-3.689 8.455-5.56 14.721-5.56h.174l16.11-.012.15.004c10.533.292 18.123 7.623 18.197 17.822.275 3.063.104 5.896-.493 8.452 3.541.105 7.91.725 10.741 4.383 2.5 3.23 2.516 6.903 2.537 11.985.006 1.04.035 3.688.035 3.688-.068 6.579-2.098 12.109-5.87 15.987z"/></g></svg>