<svg height="32" width="32" xmlns="http://www.w3.org/2000/svg"><g transform="translate(.016684 .076801)"><path d="m30.084879 15.9232v-8.5273443c0-.772163-.156128-1.506374-.4375-2.173828-.281373-.667454-.689502-1.267627-1.19336-1.771485-.503857-.503857-1.10403-.911986-1.771484-1.193359-.667454-.281372-1.401665-.435547-2.173828-.435547h-8.525391v14.1015633z" fill="#595959" stroke-width="1.00725"/><path d="m15.983316 30.024762h8.527344c.772163 0 1.506374-.156128 2.173828-.4375s1.267627-.689502 1.771484-1.193359.910034-1.104031 1.191407-1.771484c.281372-.667454.4375-1.401666.4375-2.173829v-8.52539h-14.101563z" fill="#666" stroke-width="1.00725"/><circle cx="22.983156" cy="22.715195" fill="#07ce8e" fill-rule="evenodd" r="6.31723" stroke-width=".789654"/><path d="m20.012284 20.95872v1.007249h6.043499v-1.007249zm0 3.02175v1.007249h6.043499v-1.007249z" fill="#ebebeb" stroke-width="1.00725"/><g transform="translate(39.186441 5.016949)"><path d="m-31.728516-3.1953125c-.772162 0-1.508327.1561275-2.175781.4375s-1.267627.6875492-1.771484 1.1914063c-.503857.503857-.910034 1.10403051-1.191407 1.77148432-.281372.66745382-.4375 1.40361858-.4375 2.17578128v8.5253906h14.101563v-14.1015625z" fill="#a6a6a6" stroke-width="1.00725"/><path d="m-30.253439.83414503v3.02175057h-3.021751v1.007249h3.021751v3.0217511h1.007249v-3.0217511h3.021751v-1.007249h-3.021751v-3.02175057z" fill="#ebebeb" stroke-width="1.00725"/></g><g stroke-width="1.00725"><path d="m20.01238 8.8724507v1.007249h6.043499v-1.007249z" fill="#ebebeb"/><path d="m1.881754 15.923199v8.525391c0 .772163.156127 1.506375.4375 2.173828.281372.667454.687549 1.267628 1.191406 1.771485s1.104031.911987 1.771484 1.193359c.667454.281373 1.401666.4375 2.173828.4375h8.527344v-14.101563z" fill="#8c8c8c"/><path d="m6.266879 19.595695-.712126.713133 2.665687 2.665184-2.665687 2.665184.712126.713133 2.665688-2.666191 2.665182 2.666191.713133-.713133-2.66619-2.665184 2.66619-2.665184-.713133-.713133-2.665182 2.666192z" fill="#ebebeb" fill-rule="evenodd"/></g></g></svg>