<svg height="32" width="32" xmlns="http://www.w3.org/2000/svg"><path d="m-46.97-10.51h32v32h-32z" opacity="0"/><rect fill="#7e8687" fill-rule="evenodd" height="28.203388" ry="5.575182" width="28.203388" x="1.898306" y="1.898306"/><g transform="matrix(.8779661 0 0 .8779661 1.952542 1.513559)"><path d="m7.5 25h3c .831 0 1.5.669 1.5 1.5s-.669 1.5-1.5 1.5h-3c-.831 0-1.5-.669-1.5-1.5s.669-1.5 1.5-1.5z" fill="#92e763"/><path d="m21.5 25h3c .831 0 1.5.669 1.5 1.5s-.669 1.5-1.5 1.5h-3c-.831 0-1.5-.669-1.5-1.5s.669-1.5 1.5-1.5z" fill="#e76363"/><path d="m17.327 5-2.8108.25567v10.955l2.7808-.3977v-4.6706l3.7417 5.1819 2.9309-.88069-3.8318-4.983 3.8619-4.6989-2.991-.64776-3.7117 4.699.02999-4.8126zm-6.3724 2.6705c-.03173.0059-.06616.011237-.09009.03429l-1.1053 1.0455c-.046385.044335-.052036.11144-.017986.16477l1.2913 2.0171c-.22929.36464-.41548.75577-.54655 1.1704l-2.3724.46591c-.066043.01273-.11411.0722-.11411.1362v1.4773c0 .06249.050196.11599.11411.1307l2.3003.5284c.123.48012.31303.93952.56456 1.358l-1.3333 1.9205c-.0372.05335-.029935.12519.017985.17044l1.1051 1.0455c.04652.04382.11796.04937.17418.0168l2.0901-1.1989c.40994.22389.85377.40326 1.3213.52273l.48649 2.2159c.015.064.071.109.139.109h1.5616c.06553 0 .12258-.04153.13814-.10229l.57658-2.2273c.48221-.12301.93685-.30558 1.3574-.5398l2.0601 1.2784c.05677.03477.13204.02804.18019-.01684l1.0991-1.0455c.04668-.04433.05824-.11155.02407-.16478l-.75076-1.1704-.24625.07382c-.03557.01064-.07496-.0059-.0961-.03429 0 0-.47424-.66-1.0931-1.517-.74013 1.3701-2.2495 2.3068-3.988 2.3068-2.4703 0-4.4745-1.896-4.4745-4.233 0-1.719 1.0866-3.1955 2.6426-3.858v-1.0909c-.2832.093755-.55678.20688-.81682.34089-.000327-.0002306.000532-.0059 0-.0059l-2.108-1.3055c-.02833-.01736-.05835-.020175-.09009-.016822z" fill="#fff"/></g></svg>