<svg height="32" width="32" xmlns="http://www.w3.org/2000/svg"><rect fill="#600490" fill-rule="evenodd" height="28.203388" ry="5.575182" width="28.203388" x="1.898306" y="1.898306"/><path d="m23.835261 6.8060633-10.661456 2.4579992c-1.502749.1894328-1.445501 1.7282115-1.445501 1.7282115v1.423896 5.136592c-.347211-.100014-.706595-.151488-1.067922-.152958-2.1625878 0-3.9157128 1.753125-3.9157128 3.915713 0 2.162589 1.753125 3.915713 3.9157128 3.915713 2.023943-.000996 3.713642-1.544177 3.897636-3.559739h.01808v-.355974-9.498663l7.831426-1.8626424v5.4627074c-.347211-.100014-.706595-.151489-1.067921-.152958-2.162589 0-3.915713 1.753124-3.915713 3.915713 0 2.162588 1.753124 3.915713 3.915713 3.915713 2.023942-.000997 3.713641-1.544178 3.897636-3.559739h.01808v-10.1807518-1.2104135s.01853-1.6412787-1.420052-1.3384194z" fill="#ae66e0"/><path d="m26.548828 18.782564c-.946406-1.63068-4.792648-1.144097-5.63857-.675536l-6.885336 3.953825c-.363309.208608-.486926.667454-.277171 1.028759l2.650373 4.565413c.209755.361321.671113.484261 1.034439.275653l6.885881-3.95377c.535274-.318895 3.177532-3.563686 2.230963-5.194202zm-1.311589.753084a.75723399.75308357 0 0 1 -.277172 1.028759.75723399.75308357 0 0 1 -1.034439-.275654.75723399.75308357 0 0 1  .277172-1.028759.75723399.75308357 0 0 1 1.034439.275654z" fill="#f6dd79"/><path d="m14.781883 23.36496.378623.652218.655767-.376553 1.514468 2.608815.655767-.376553-1.514468-2.608815.655767-.376552-.378623-.652218-.655767.376553-.655767.376553zm2.623178-1.506221.378622.652217.378623.652217.378622.652218.757234 1.304434.655767-.376552-.757234-1.304435.655767-.376553.757234 1.304435.655767-.376553-1.893085-3.261032-1.311588.753084-.655768.376552zm2.623177-1.506222.378623.652217 1.514468 2.608815.655767-.376553 1.311588-.753083-.378622-.652218-.189314-.326103.327894-.188276-.378622-.652218-1.311589.753084.378623.652217.327894-.188276.189309.326103-.655768.376553-1.13585-1.956597 1.311588-.753084-.378622-.652217-1.967356 1.129625zm-1.588739 1.781843.655767-.376553.378623.652217-.655767.376553z" fill-opacity=".290196"/></svg>