<svg height="32" width="32" xmlns="http://www.w3.org/2000/svg"><rect fill="#309fff" fill-rule="evenodd" height="28.203388" ry="5.575182" width="28.203388" x="1.898306" y="1.898306"/><g transform="translate(120.86183 -4.915469)"><circle cx="-104.86185" cy="20.91547" fill="#e6e6e6" fill-rule="evenodd" r="9.220339"/><g fill-rule="evenodd" transform="translate(10.353001 -4.03375)"><path d="m-111.20312 33.236328-1.0918-2.208984 1.05078 2.230468a9.2203388 9.2203388 0 0 0  .041-.02148z" fill="#f2f2f2"/><path d="m-109.55078 32.210938-5.26367-6.539063 2.51953 5.355469 1.0918 2.208984a9.2203388 9.2203388 0 0 0 1.65234-1.02539z" fill="#fff"/><path d="m-115.16992 24.917969.35547.753906 5.26367 6.539063a9.2203388 9.2203388 0 0 0  .95117-.837891 9.2203388 9.2203388 0 0 0  .5957-.679688 9.2203388 9.2203388 0 0 0  .0195-.02344 9.2203388 9.2203388 0 0 0  .49415-.689453 9.2203388 9.2203388 0 0 0  .0605-.09375 9.2203388 9.2203388 0 0 0  .39063-.679688 9.2203388 9.2203388 0 0 0  .0723-.142578 9.2203388 9.2203388 0 0 0  .29688-.664062 9.2203388 9.2203388 0 0 0  .0801-.205079 9.2203388 9.2203388 0 0 0  .21484-.644531 9.2203388 9.2203388 0 0 0  .0723-.253906 9.2203388 9.2203388 0 0 0  .0996-.445313z" fill="#f2f2f2"/><path d="m-115.21484 15.728516a9.2203388 9.2203388 0 0 0 -4.99024 1.46875l4.95899 7.802734-9.15235-.791016a9.2203388 9.2203388 0 0 0 -.0371.740235 9.2203388 9.2203388 0 0 0 9.22071 9.220703 9.2203388 9.2203388 0 0 0 3.9707-.91211l-3.92578-8.339843 8.9668 1.933593a9.2203388 9.2203388 0 0 0  .20898-1.902343 9.2203388 9.2203388 0 0 0 -9.2207-9.220703z" fill="#e6e6e6"/><path d="m-121.76953 18.478516a9.2203388 9.2203388 0 0 0 -2.62891 5.730468l9.15235.791016z" fill="#f2f2f2"/><path d="m-121.76953 18.478516 6.52344 6.521484-4.95899-7.802734a9.2203388 9.2203388 0 0 0 -1.56445 1.28125z" fill="#fff"/><circle cx="-115.21519" cy="24.949152" fill="#b3b3b3" r="3.303588"/><circle cx="-115.21519" cy="24.949152" fill="#fff" r="2.440678"/></g></g><path d="m30.102536 17.808595c-.534737.08427-1.118304.248922-1.640625.3125-2.016078.245398-3.942616.339404-5.787109.298828-1.844494-.04058-3.608539-.214787-5.302734-.50586-1.694196-.291072-3.317628-.698988-4.882813-1.205078s-3.071835-1.111246-4.529297-1.796875c-1.457458-.685629-2.865298-1.451561-4.236328-2.28125-.63733-.385688-1.20415-.889578-1.82617-1.300781v13.197266c0 3.08865 2.48752 5.574218 5.57617 5.574218h17.052734c3.088651 0 5.576172-2.485568 5.576172-5.574218z" fill="#2f7dbc" fill-rule="evenodd"/><g stroke-width="1.214554" transform="matrix(.82334778 0 0 .82334778 4.216547 4.206699)"><path d="m21.693726 23.81345-5.640476 3.25653v-6.51306z" fill="#fff" fill-rule="evenodd"/><path d="m8.082342 20.556919h6.479383v6.479383h-6.479383z" fill="#fff" fill-rule="evenodd"/></g></svg>