<svg height="32" width="32" xmlns="http://www.w3.org/2000/svg"><rect fill="#f29237" fill-rule="evenodd" height="28.203388" ry="5.575182" width="28.203388" x="1.898306" y="1.898306"/><path d="m15.048305 5.9698321a10.156879 10.156879 0 0 0 -3.675931 1.0662383c.05111.162525-.0086.345912-.195403.507844-.126453.109577-.230116.280267-.230116.37989 0 .304543.2754.7721891.494953.840131.292261.09044.19391.402017-.181512.574301-.173525.07985-.387132.309003-.474794.509874-.08766.2008726-.216967.3991666-.286659.4404186-.06971.04123-.126961.198278-.126961.349146 0 .21067.09617.312801.41262.439403.226623.09067.497741.156713.603068.146798.6046-.0569.646978.295292.118031.983968-.280814.365615-.415823.457582-.607031.411634-.178464-.04289-.276001.0076-.357077.184488-.08571.187003-.225732.250695-.6020755.276736-.369922.0256-.535721.100745-.67448.303519-.101151.147821-.247445.267806-.325341.267806-.0779 0-.26086.09912-.406674.2202-.296822.246485-.41272.271291-.516774.110101-.137508-.213294-.434246-.105472-.875835.317207-.390493.374242-.43784.474249-.378929.798487.104814.577474.418017 1.089912.775649 1.268595.312073.155955.318144.172776.128945.372945-.108851.115171-.295572.238577-.414604.274751-.343794.104474-.15029.235515.463209.313433.627874.07974.823019.307582.529666.617945-.163596.173081-.154385.205294.108115.369976.513001.322676.920839.125008.439481-.211732-.309472-.21642-.09313-.304707.361038-.147666.361882.12529.433472.118164.647696-.06745.4390595-.380446.9163075.182246.5147905.60703-.255539.270352-.178089.59667.152752.64175.146173.01993.449895.155963.675471.302527.225568.146564.471342.266814.545534.266814.07419 0 .283471.148681.465192.330302.368727.368491.573435.415283.677457.155728.125078-.31209.07476-.472897-.261861-.840131-.268-.292385-.703246-1.069597-.703246-1.255702 0-.115101.442629-.0175.690348.15176.155033.105944.405884.242546.55744.30451.161784.06612.329231.271267.405682.495937.11982.352092.167033.382868.589177.382868h.459239l.06943.825207c.08356.99264.163143 1.193668.503876 1.275548.250999.06032.518751.44895.518751.752843 0 .08077-.180582.278635-.400721.439403-.273313.199598-.391134.369272-.372945.535619.02269.207692-.02432.240062-.318395.218216-.189684-.01412-.518384.05238-.73003.147791-.250091.112733-.521405.14883-.775649.103159-.292557-.05257-.391789-.03214-.391789.08232 0 .08417-.102183.241851-.227139.350132-.309043.267789-.181347.409478.292604.324348.29458-.05291.409501-.02939.46023.09721.108149.269845-.16597.655901-.420556.592154-.161143-.04033-.23864.0146-.288635.205317-.0177.06755-.04932.124758-.08729.173582a10.156879 10.156879 0 0 0 1.606818.475107c-.0507-.09739-.108324-.185324-.164651-.225155-.261751-.185082-.08665-.665236.27376-.751844.366881-.08816.309089-.326355-.09026-.371951-.349522-.03991-.722123-.393932-.605046-.575295.07849-.121608.413253-.103882 1.090068.05654.305637.07245.514829-.07288 1.222966-.848022.410049-.448855.725132-.635797 1.071239-.635797.131806 0 .602483-.121274 1.046471-.269791.838177-.280392 1.165619-.270266 1.134679.03571-.06422.636664.34596.615647 1.013736-.05158.278306-.278096.532353-.478952.565371-.447341.127742.122305-.101996.718107-.369977.959122-.339607.305473-.356451.498484-.05752.651665.163776.08392.23324.254414.258883.63679l.03471.521727h.424526c.148923 0 .272165.02042.371953.05852a10.156879 10.156879 0 0 0 4.920696-8.382551c-.155385-.332013-.144212-.532743 0-.758789a10.156879 10.156879 0 0 0 -.04563-.56934c-.09262-.0042-.186902-.0084-.295581-.0039-.511688.02131-.950215-.180433-.950215-.437417 0-.05416-.181511-.277884-.403697-.496938-.251672-.248109-.381024-.467122-.343193-.581238.03431-.10351-.03979-.270501-.170604-.38386-.127352-.110351-.232101-.288198-.232101-.394766 0-.17016-.108303-.191536-.89068-.172589l-.890681.02182.01487.877789c.02644 1.537751.255422 1.936917.962092 1.679244.323472-.117921 1.118194-.02864 1.343989.150768.08172.06495.200083.300533.262852.523711.06278.223178.29555.609413.517767.857944.450231.503625.485186.700106.227139 1.291408-.22513.515892-.46753.45642-.419566-.103159l.03571-.416588-.380883.07142c-.210738.0397-.474888.195591-.593145.349147-.168574.218889-.247577.251171-.373937.150767-.08804-.06996-.159697-.217732-.159697-.327317 0-.109586-.108804-.231593-.241031-.271775-.132227-.04018-.313481-.239905-.402705-.444363-.142728-.327051-.139173-.427058.02677-.82427.168385-.402932.170041-.469405.01487-.617945-.142291-.136234-.215639-.140633-.402705-.02877-.188067.112452-.276534.104157-.499907-.04562-.149298-.10012-.409424-.182503-.57827-.182503-.342803 0-.446348-.166784-.446348-.718123 0-.509273-.303792-.694363-1.026625-.627858-.50197.04618-.612601.01312-1.017642-.298558-.249991-.192364-.645063-.65576-.878805-1.030611-.233755-.374813-.48524-.766407-.558433-.869898-.105813-.149619-.08009-.293222.126962-.701262l.260867-.512805-.551487.07439c-.981388.13272-1.179839.259907-.757796.486023.164362.08807.171541.133313.04464.279712-.08313.0959-.122242.247531-.08629.337239.03597.08971-.0094.300808-.101174.469163-.09172.168353-.168535.404619-.171597.525697-.0097.378711-.657829.679604-1.379695.639765-1.093974-.06037-1.182651-.04311-1.571112.317403-.485593.45063-.548347.660759-.322364 1.079129.219271.405986.607881.568012 1.281485.534627.602412-.02989.670542.02329.532643.42155-.117062.338052-.510477.468396-.776642.256899-.205216-.163073-.912712-.03705-1.129758.201356-.09098.09995-.226006.36171-.29955.581239-.12696.378976-.163971.40201-.732998.457255-.567683.05513-.622218.03694-1.030533-.339224-.455817-.419902-.533025-.740429-.313434-1.29344.09722-.244797.169723-.284604.429489-.237061.514968.09425.718122-.08478.718122-.634806 0-.266719-.05183-.516055-.115062-.553471-.0632-.03742-.115061-.178762-.115061-.314426 0-.135665-.06478-.310113-.143822-.386837-.115194-.111819-.09854-.171642.0853-.301534.126148-.08912.333465-.149127.46023-.133906.126775.01522.476374-.03952.777635-.121008.435292-.117742.563113-.206606.621914-.435434.11171-.434745.384406-.783563.612982-.783563.361195 0 .368586-.849194.01786-2.0839576-.05235-.182511-.194545-.29869-.446905-.361194-.203919-.05063-.425808-.1897769-.492999-.3094719-.06641-.119695-.189074-.217201-.271892-.217201-.08281 0-.244617-.09912-.359062-.220201-.115195-.121875-.353554-.220201-.534626-.220201-.429089 0-.436207-.295487-.01086-.45131.449591-.164713 1.149056.05119 1.318207.406674.229358.481975.483537.280853.565371-.44734.101216-.900681.411729-1.159525 1.391649-1.159525h.704239l-.308473-.308472c-.0961-.09626-.175792-.21392-.231264-.3293177zm3.651085.3193873c-.01955.01789-.03882.03246-.05852.05257-.235499.240476-.345904.274759-.710184.219209-.635796-.09696-.553972.159049.149775.468169.380571.167167.625016.35771.708201.550495.40136.930136.677495 1.43087.816301 1.481889.280548.103076.447573-.10396.509827-.632821.07144-.606795.276908-.735436.645712-.403696.143119.128734.342958.234084.444363.234084.315028 0 .548511.126571.548511.297566 0 .09012.106306.307222.237062.483045.192254.258509.322957.32038.682418.32038.441152 0 .711981.08254 1.264687.387827.0086.0047.01718.0064.02579.01086a10.156879 10.156879 0 0 0 -5.262825-3.469697zm-12.8461095 9.7388836a10.156879 10.156879 0 0 0 -.002.04375 10.156879 10.156879 0 0 0  .198372 1.950902c.367967.149916.469638.0905.507843-.251937.01972-.176949.112265-.37793.20631-.44734.145244-.107041.11907-.16173-.178526-.364867-.192669-.131258-.382603-.36096-.421589-.510188-.03781-.143759-.165557-.301581-.310488-.420339zm3.196838 3.357553c-.09474-.01-.209293.04113-.336247.162665-.268603.257173-.228046.773853.07638.97803.348655.233827.483624.165721.527682-.265822.0544-.532462-.05937-.852943-.267806-.874819zm1.7238595 1.535407c-.103729.0034-.217999.07786-.332279.234085-.121281.165784-.154595.379578-.108116.704239.05714.398993.0322.484186-.176558.591162-.2682215.137438-.3255995.545681-.10613.755811.218591.209295.426776.154612.50189-.131922.106986-.408103.704318-.456254 1.112882-.08927.17387.156181.31641.235554.31641.175566 0-.05997-.181402-.277681-.402704-.483046-.338959-.314559-.401713-.44884-.401713-.854037 0-.572145-.175488-.909823-.403697-.902635zm-2.8308025 1.311253a10.156879 10.156879 0 0 0  .235077.296573c-.06923-.106251-.14829-.209388-.235092-.296111zm3.4230265 1.559237c-.05169.01773-.07339.08217-.07339.195403 0 .114601-.07329.234976-.162667.267805-.118671.04357-.146196.181308-.100175.50983.0087.06155.01086.110826.01388.161673a10.156879 10.156879 0 0 0  .422542.217225c-.0069-.175675.02513-.382524.117039-.641751.155869-.43959.161439-.549956.03471-.626867-.119241-.07237-.200246-.101041-.251936-.08332z" fill="#c2752c"/><path d="m16 5.7792969c-5.665371 0-10.2617188 4.5778301-10.2617188 10.2207031.0000001 5.642873 4.5963478 10.220703 10.2617188 10.220703s10.261719-4.57783 10.261719-10.220703-4.596348-10.2207031-10.261719-10.2207031zm0 .3007812c5.503912 0 9.960938 4.4398569 9.960938 9.9199219s-4.457026 9.919922-9.960938 9.919922-9.9609375-4.439857-9.9609375-9.919922 4.4570255-9.9199219 9.9609375-9.9199219z" fill="#c2752c"/></svg>