<svg height="32" width="32" xmlns="http://www.w3.org/2000/svg"><rect fill="#a94912" fill-rule="evenodd" height="28.203388" ry="5.575182" width="28.203388" x="1.898306" y="1.898306"/><g transform="translate(40.736842 -1.131579)"><path d="m-26.736842 17.631579h4l-1 10h-2z" fill="#eda458"/><g transform="translate(-40.736842 .631579)"><path d="m16 6a6 6 0 0 0 -6 6 6 6 0 0 0 6 6 6 6 0 0 0 6-6 6 6 0 0 0 -6-6zm0 1a4 4 0 0 1 4 4 4 4 0 0 1 -4 4 4 4 0 0 1 -4-4 4 4 0 0 1 4-4z" fill="#eda458"/><path d="m18-20h2v8h-2z" fill="#f56161" transform="rotate(90)"/></g></g></svg>