<svg height="32" width="32" xmlns="http://www.w3.org/2000/svg"><rect fill="#42ba4f" fill-rule="evenodd" height="28.203388" ry="5.575182" width="28.203388" x="1.898306" y="1.898306"/><g transform="translate(0 .29877)"><path d="m19.121155 7.6859439c-.185821-.082929-.423126-.030809-.5559.12339l-1.377061 1.5618277c-.766601-.1200724-1.549356-.1267193-2.304532-.0149562l-1.373703-1.5793522c-.142134-.1651647-.404339-.2113071-.594543-.1049295l-3.3165147 1.8978127c-.1887767.1102478-.2821314.3600306-.2107907.5666966l.6676294 1.995015c-.2353864.293082-.4533183.598685-.6484751.933174-.1951638.334502-.3539791.674559-.4932724 1.023728l-2.0652865.400504c-.215001.0396-.3875131.245462-.3905958.464052l-.019161 3.81938c.00101.217897.170184.423485.383909.465945l2.0508775.418706c.2743347.712389.6652919 1.390548 1.1470373 1.99885l-.6820228 1.967346c-.072487.205241.018441.455056.2049311.567294l3.2963697 1.923255c.189344.107346.45171.06335.5947-.100752l1.377061-1.561828c.766602.120073 1.54936.126715 2.304533.01496l1.373703 1.579352c.142127.16516.404342.211303.594542.104929l3.31553-1.896124c.18877-.110252.283118-.361716.211775-.568384l-.667629-1.995015c.235382-.293083.453284-.598627.648475-.933175.195163-.334501.353919-.674592.493273-1.023727l2.065286-.400504c.215-.0396.386522-.243778.389611-.462365l.02014-3.821067c-.001-.217899-.17019-.423489-.383909-.465945l-2.050877-.418707c-.2745-.712903-.665468-1.39065-1.147037-1.99885l.682028-1.967349c.072482-.2052436-.018438-.4550607-.204932-.5672944l-3.296368-1.9232546c-.01272-.00782-.02579-.01545-.0388-.022638zm-.06993 3.9955341c2.888602 1.685345 3.863776 5.392275 2.178432 8.280877-1.685345 2.888602-5.392275 3.863775-8.280878 2.178431-2.888602-1.685345-3.8637758-5.392275-2.178431-8.280877 1.685345-2.888602 5.392275-3.8637759 8.280877-2.178431z" fill="#fff" stroke-width=".681554"/><circle cx="16" cy="6.144118" fill="#fff" fill-rule="evenodd" r="1.762712"/><path d="m16 13.440315v6.941668" fill="none" stroke="#fff" stroke-linecap="round" stroke-width="3.2"/></g></svg>