<svg height="32" width="32" xmlns="http://www.w3.org/2000/svg"><rect fill="#6993c4" fill-rule="evenodd" height="28.203388" ry="5.575182" width="28.203388" x="1.898306" y="1.898306"/><g fill="#ffdd73" transform="translate(.501897 .415061)"><g transform="translate(-.50371 -2.999)"><path d="m10.939 9a .58872.58872 0 0 0 -.496.2324c-.6731.8626-1.3758 2.0276-2.0446 3.0686l-.79688-1.3672a.58907742.58907742 0 1 0 -1.0176.59375l1.2715 2.1797a.58872.58872 0 0 0  .99609.0332c.82755-1.2279 1.7643-2.8153 2.5195-3.7832a.58872.58872 0 0 0 -.432-.9578z" fill-rule="evenodd"/><rect height="2" rx="1" width="13" x="12.5" y="11"/></g><rect height="2" rx="1" width="13" x="11.99629" y="15.00018"/><circle cx="7.99629" cy="16.00018" r="1"/><rect height="2" rx="1" width="13" x="11.99629" y="21"/><circle cx="7.99629" cy="22" r="1"/></g></svg>