<svg height="32" width="32" xmlns="http://www.w3.org/2000/svg"><rect fill="#8e8e8e" fill-rule="evenodd" height="28.203388" ry="5.575182" width="28.203388" x="1.898306" y="1.898306"/><path d="m7.2289766 27.16312h17.5420464v-7.973657h-17.5420464z" fill="#b7b7b7"/><path d="m9.621074-25.568388h3.189463v2.392097h-3.189463z" fill="#666" stroke-width="1.25413" transform="scale(1 -1)"/><path d="m19.189463-25.568388h3.189463v2.392097h-3.189463z" fill="#666" stroke-width="1.25413" transform="scale(1 -1)"/><path d="m16 4.8368794a11.163121 11.163121 0 0 0 -11.1631206 11.1631206 11.163121 11.163121 0 0 0 1.0901485 4.784194h20.1443861a11.163121 11.163121 0 0 0 1.091706-4.784194 11.163121 11.163121 0 0 0 -11.16312-11.1631206z" fill="#5161a2"/><path d="m18.79078 7.2289766c-1.981678 0-3.588146 1.6064676-3.588146 3.5881464v1.993414h-1.993414c-1.981678 0-3.5881461 1.606468-3.5881461 3.588146s1.6064681 3.588146 3.5881461 3.588146 3.588146-1.606468 3.588146-3.588146v-1.993415h1.993414c1.981678 0 3.588146-1.606468 3.588146-3.588145 0-1.9816788-1.606468-3.5881464-3.588146-3.5881464zm0 1.5947316c1.100932 0 1.993414.8924823 1.993414 1.9934148 0 1.100932-.892482 1.993414-1.993414 1.993414h-1.586944c-.184629 0-.40647.00028-.40647-.437617v-1.555797c0-1.1009325.892482-1.9934148 1.993414-1.9934148zm-5.58156 5.5815598h1.586945c.184628 0 .406469-.000279.406469.437617v1.555798c0 1.100931-.892482 1.993414-1.993414 1.993414s-1.993415-.892483-1.993415-1.993414c0-1.100933.892483-1.993415 1.993415-1.993415z" fill="#fff" fill-opacity=".453815" stroke-width="1.25413"/><path d="m18.79078 7.2289766c-1.981678 0-3.588146 1.6064676-3.588146 3.5881464v1.993414h-1.993414a.79736575.79736575 0 0 0 -.07943.0039c-.000518.000011-.001-.000012-.0016 0a .79736575.79736575 0 0 0 -.716345.793459.79736575.79736575 0 0 0  .797366.797365h1.586945c.184628 0 .406469-.000279.406469.437617v1.555798c0 1.100931-.892482 1.993414-1.993414 1.993414-.306214 0-.59263-.07442-.851873-.197784-.107626-.05159-.224594-.08105-.344176-.08098-.440372 0-.797366.356994-.797366.797366.000399.301307.170612.576653.439953.711712.000023.0025-.000024.0045 0 .007.470596.226747.996115.357404 1.553462.357404 1.981678 0 3.588146-1.606468 3.588146-3.588146v-1.993415h1.594731a.79736575.79736575 0 0 0  .797366-.797365.79736575.79736575 0 0 0 -.797366-.797366h-1.188261c-.184629 0-.40647.00028-.40647-.437617v-1.555797c0-1.1009325.892482-1.9934148 1.993414-1.9934148.20101 0 .390937.03888.573886.09422-.000225-.00227-.000558-.00477-.000798-.00701.07282.021525.14833.032536.224259.032704.440373 0 .797366-.356993.797366-.7973658-.00003-.07455-.01051-.1487274-.03115-.2203655.000439-.012232.0031-.023415.0031-.035818-.0065-.010433-.01919-.021365-.02647-.031926v-.0007974c-.09934-.2552577-.322794-.441689-.591768-.4936625-.0057-.003-.01148-.00561-.01713-.00857-.297446-.0798407-.608617-.1261194-.931286-.1261194z" fill="#fff"/></svg>