<svg height="32" viewBox="0 0 32 32" width="32" xmlns="http://www.w3.org/2000/svg"><rect fill="#d75908" fill-rule="evenodd" height="28.203388" ry="5.575182" width="28.203388" x="1.898306" y="1.898306"/><g transform="translate(75.524475 -4.086826)"><path d="m-62.189593 21.02162c2.975371 1.7627 3.275666 3.114794 2.665117 4.200298-.610548 1.085505-1.901357 1.49458-4.876192-.268886-2.974758-1.762701-6.338827-5.329469-6.614685-6.541373 1.160426-.360814 5.851308.846494 8.82576 2.609961z" fill="#fec8a4"/><path d="m-59.786468 20.216492c1.717504 3.053509 1.319919 4.378791.261992 5.005426-1.057926.626636-2.374781.317915-4.092284-2.735594-1.717197-3.053509-2.893403-7.868953-2.542012-9.060174 1.180726.283212 4.654801 3.736833 6.372304 6.790342z" fill="#fba66f"/><path d="m-57.312865 20.752733c0 3.526167-.990054 4.469185-2.211457 4.469185-1.221327 0-2.211458-.943018-2.211458-4.469185s1.32689-8.300244 2.211458-9.151334c.884567.851244 2.211457 5.625091 2.211457 9.151334z" fill="#f8863b"/><path d="m-55.432191 22.486324c-1.717503 3.053509-3.034358 3.36223-4.092285 2.735594-1.057926-.626635-1.455511-1.951917.261992-5.005426 1.717504-3.053509 5.191579-6.50713 6.372075-6.790266.351621 1.191145-.824279 6.006589-2.541782 9.060174z" fill="#f76d12"/><path d="m-54.648513 24.953032c-2.974605 1.763466-4.265414 1.354391-4.875963.268886-.610548-1.085504-.310253-2.437598 2.665118-4.200298 2.974605-1.763467 7.665181-2.970775 8.82576-2.609961-.275889 1.211981-3.639851 4.778519-6.614686 6.541603z" fill="#fff"/><path d="m-59.141446 28.071656c-1.089187-.08437-.775897-1.516204-.766059-2.298176" fill="none" stroke="#3aa03d" stroke-linecap="round" stroke-linejoin="bevel"/></g></svg>