<svg height="32" width="32" xmlns="http://www.w3.org/2000/svg"><rect fill="#37a0f2" fill-rule="evenodd" height="28.203388" ry="5.575182" width="28.203388" x="1.898306" y="1.898306"/><path d="m7.0040813 7.4892531a1.50015 1.50015 0 0 0 -1.445313 1.9316406l4 13.9999993a1.50015 1.50015 0 0 0 2.7832027.259766l3.658203-7.316406 3.658203 7.316406a1.50015 1.50015 0 0 0 2.785157-.259766l4-13.9999993a1.50015 1.50015 0 1 0 -2.884766-.8242188l-2.941406 10.2929681-3.275391-6.550781a1.50015 1.50015 0 0 0 -2.683594 0l-3.27539 6.548828-2.9394527-10.2910151a1.50015 1.50015 0 0 0 -1.439453-1.1074218z" fill="#fff" opacity=".99" stroke-linecap="round" stroke-linejoin="round" stroke-width="3"/></svg>