<svg height="32" width="32" xmlns="http://www.w3.org/2000/svg" xmlns:xlink="http://www.w3.org/1999/xlink"><radialGradient id="a" cx="-27.763472" cy="19.76371" gradientTransform="matrix(3.8453738 -.04601641 .03084555 2.5776175 117.34206 -32.95748)" gradientUnits="userSpaceOnUse" r="14.101694"><stop offset="0" stop-color="#ff7730"/><stop offset="1" stop-color="#8e80cb" stop-opacity="0"/></radialGradient><radialGradient id="b" cx="-23.549536" cy="10.597532" gradientTransform="matrix(1.3456004 -.05032045 .0535613 1.4322625 38.785977 5.882962)" gradientUnits="userSpaceOnUse" r="14.101694"><stop offset="0" stop-color="#ffff1d"/><stop offset="1" stop-color="#ffff6f" stop-opacity="0"/></radialGradient><g fill-rule="evenodd"><rect fill="#8e80cb" height="28.203388" ry="5.575182" width="28.203388" x="1.92673" y="1.886191"/><rect fill="url(#a)" height="28.203388" ry="5.575182" width="28.203388" x="1.92673" y="1.886191"/><rect fill="url(#b)" height="28.203388" opacity=".977" ry="5.575182" width="28.203388" x="1.92673" y="1.88619"/><path d="m13.263169 30.09051a8.3389835 8.3389835 0 0 0  .230469-.203125 8.3389835 8.3389835 0 0 0  .56836-.609375 8.3389835 8.3389835 0 0 0  .505859-.664062 8.3389835 8.3389835 0 0 0  .435547-.710938 8.3389835 8.3389835 0 0 0  .361328-.75 8.3389835 8.3389835 0 0 0  .287109-.783203 8.3389835 8.3389835 0 0 0  .205078-.808594 8.3389835 8.3389835 0 0 0  .125-.824218 8.3389835 8.3389835 0 0 0  .04102-.832032 8.3389835 8.3389835 0 0 0 -.01953-.589843 8.3389835 8.3389835 0 0 0 -.101563-.828125 8.3389835 8.3389835 0 0 0 -.18164-.8125 8.3389835 8.3389835 0 0 0 -.263672-.791016 8.3389835 8.3389835 0 0 0 -.339844-.759766 8.3389835 8.3389835 0 0 0 -.414063-.724609 8.3389835 8.3389835 0 0 0 -.486328-.677734 8.3389835 8.3389835 0 0 0 -.548828-.625 8.3389835 8.3389835 0 0 0 -.611328-.56836 8.3389835 8.3389835 0 0 0 -.662109-.505859 8.3389835 8.3389835 0 0 0 -.710938-.435547 8.3389835 8.3389835 0 0 0 -.751953-.361328 8.3389835 8.3389835 0 0 0 -.78125-.287109 8.3389835 8.3389835 0 0 0 -.808594-.205079 8.3389835 8.3389835 0 0 0 -.824218-.125 8.3389835 8.3389835 0 0 0 -.832032-.04101 8.3389835 8.3389835 0 0 0 -.589843.01953 8.3389835 8.3389835 0 0 0 -.828125.101563 8.3389835 8.3389835 0 0 0 -.812496.18164 8.3389835 8.3389835 0 0 0 -.79102.263672 8.3389835 8.3389835 0 0 0 -.76172.339844 8.3389835 8.3389835 0 0 0 -.72266.414062 8.3389835 8.3389835 0 0 0 -.67773.486328 8.3389835 8.3389835 0 0 0 -.5957.521485v6.61914c0 3.088651 2.48557 5.576172 5.574216 5.576172z" fill="#fff" opacity=".977"/><path d="m30.074261 25.326826-.72852-1.851563s-2.30859 2.402449-2.30859 2.167969c0-.234479-.49805-2.167969-.49805-2.167969l-1.900391 2.34375-.90625-1.40625-2.306639 1.523438-.859371-1.933594-1.494139 2.228516-2.037111-2.228516-1.447269 2.345703-1.177731-2.46289-1.175779 2.404297-1.81055-2.462891-.81445 2.755859-1.3125-2.521484-.951181 1.582031-2.21679-2.050781s-.589179 2.052396-.67969 2.814453c-.0452.381028-.47616-.558551-.89453-1.591797-.41838-1.033245-.82422-2.160156-.82422-2.160156s-.83484 1.954579-1.40625 3.304688c.64577 2.365009 2.70986 4.130859 5.285161 4.130859h17.052729c2.800011 0 5.005711-2.080608 5.412111-4.763672z" fill="#96c503" opacity=".977"/><path d="m30.117233 23.545573c-.63293 1.011289-1.14335 2.220185-1.54883 3.599609.10845-2.211136.3573-4.359639.5918-6.513672-.48814 1.865777-.9433 3.726082-1.33985 5.576172-.10718-.543219-.23808-1.035816-.36328-1.539063.11281-1.115702.28128-2.053891.54688-2.660156-.19727.334178-.37293.709902-.53907 1.101563.0628-.570825.11355-1.147545.17578-1.71875-.17802.680448-.347221 1.360417-.515621 2.039062-.1731-.542983-.36037-1.057477-.57812-1.501953.18802.517162.30876 1.303864.40234 2.199219-.1727.712081-.33061 1.419302-.48828 2.128906-.14423-.557586-.30832-1.114607-.46485-1.673828.12691-1.426946.28151-2.84291.43555-4.257813-.26793 1.024098-.52312 2.046585-.76758 3.066407-.26095-.891192-.53054-1.78529-.8125-2.679688.0998.761097.20372 1.521843.30274 2.283203-.0443-.09987-.0843-.211731-.13086-.30664.0755.207537.12825.51447.1875.787109.0531.420519.0994.842778.14648 1.265625-.0197.08697-.0409.172837-.0605.259766-.1736-.438067-.35731-.857946-.56446-1.230469.18691.452889.32067 1.093625.42774 1.828125-.0218.100376-.0489.202409-.0703.302734-.32505-1.646048-.71552-3.144472-1.27148-4.279296.41786 1.149349.56684 3.372462.58398 6.126953-.18125-.671826-.37273-1.329305-.59961-1.91211-.13122-.441623-.24723-.882014-.38281-1.324219.15743-.420602.31022-.83936.50781-1.267578-.19322.325471-.40136.63553-.60546.947266-.11051-.357621-.20161-.712355-.31446-1.070312.0569.433977.11389.867208.17188 1.300781-.15095.230473-.3008.463121-.44727.699219-.21681-.603244-.45482-1.166036-.72851-1.658204.21102.511321.36215 1.235663.47265 2.101563-.0982.170509-.20001.339978-.29101.519531-.23962.214826-.45026.495832-.65235.798828-.14057-.125301-.28683-.243734-.4414-.347656-.0257.01263-.0473.03865-.0723.05273-.021-.02655-.0413-.05391-.0625-.08008.13791-.95023.29805-1.837.52735-2.535156-.33958.587917-.63397 1.279446-.89454 2.042969-.20678-.394897-.4294-.772972-.66601-1.13086.0143-.04638.0244-.107242.0391-.152343-.0216.03722-.0413.0831-.0625.121093-.40652-.610267-.84611-1.182277-1.35156-1.669921.0831.141015.11767.356267.1914.511718.005-.0093.0104-.02015.0156-.0293-.004.01204-.006.02858-.01.04102.28415.601964.54761 1.236394.74219 1.976563-.0155.03542-.0314.07152-.0469.107421-.085.07746-.16314.168481-.24219.259766-.19776-.584498-.40692-1.144527-.60742-1.722656.0523-.204187.0966-.43233.15429-.621094-.002-.0037-.004-.008-.006-.01172-.0761.136804-.14404.291083-.21679.435547-.0117-.03368-.0239-.06372-.0352-.09766.0103.03972.0154.07753.0254.117187-.15482.30915-.29946.639491-.43555.990235-.0157-.964522-.0101-1.841079.16211-2.419922-.42601.875128-.56263 2.29724-.75195 3.552734-.17607-.489061-.35554-.972979-.52344-1.480469.15695.610408.29162 1.213241.4043 1.808594-.16555.231749-.31605.490988-.44922.779297-.10626-.490609-.22693-.952571-.36328-1.375-.018-1.009022-.0165-1.927735.16211-2.527344-.21377.43918-.35571 1.017683-.4668 1.642579-.16644-.459815-.33395-.916248-.49218-1.394532.1647.640553.30178 1.272432.41796 1.896485-.0755.492729-.14919.988556-.22265 1.46875-.16063-.341072-.35188-.669927-.58789-1.082032-.0208-1.46907-.0957-2.790363.14453-3.597656-.29129.598386-.43851 1.459603-.56836 2.341797-.0892-.470267-.18727-.92708-.32422-1.330078.0349-.07859.0648-.165175.10156-.240234-.0464.05389-.0836.120288-.1289.175781-.0817-.229974-.17162-.451762-.28125-.638672.0818.228221.13289.497858.16406.796875-.17342.222573-.3499.441775-.50781.6875.0174-.05809.0268-.113636.0449-.171875-.0502.12582-.10259.244404-.1543.367187-.34184.556919-.64745 1.170426-.92187 1.828125-.0986-.164529-.21286-.379571-.33594-.597656.16799-.622728.36005-1.197733.59961-1.6875-.31344.364354-.59263.776885-.85938 1.210938-.0117-.02269-.0198-.03121-.0312-.05469.0103.02634.0137.04235.0234.06836-.20405.333095-.40083.678665-.58008 1.048829-.14986-.369735-.32401-.701183-.49609-1.03711.19674-.857766.42287-1.661866.73633-2.302734-.40466.470415-.75593 1.020654-1.08399 1.605469-.0103-.01941-.0189-.04114-.0293-.06055.0482-.433573.0973-.866804.14453-1.300781-.0936.357956-.17395.712691-.26563 1.070312-.16939-.311737-.33964-.621796-.5-.947266.14205.370904.25261.733288.36524 1.097657-.0754-.120754-.14352-.255425-.22266-.369141.0881.222816.14945.507202.22461.759766-.0438.172865-.078.344796-.12109.517578-.1822.383583-.35508.782253-.51368 1.201172-.20272-.43502-.41161-.862596-.63281-1.269532.0482-.433572.0973-.868756.14453-1.302734-.0936.357956-.17197.714645-.26367 1.072266-.0513-.09441-.0994-.192376-.15039-.28711.12325-1.322611.26322-2.639411.40625-3.953125-.35747 1.366284-.69124 2.727587-1.00391 4.085938-.11569-.223576-.219-.462929-.33789-.681641.0482-.433573.0954-.868756.14258-1.302734-.0936.357957-.17198.714644-.26367 1.072265-.0876-.161307-.17314-.327156-.25977-.490234.0701-.639368.12958-1.284223.19922-1.923828-.13615.520413-.26183 1.039214-.39258 1.558594-.0158-.03158-.0331-.06191-.0488-.09375.016.04161.0259.08353.041.125-.0379.150684-.078.300582-.11523.451171-.17369-.543925-.36003-1.05875-.57813-1.503906.1886.518723.30838 1.307959.40235 2.207032-.22955.946736-.44844 1.887834-.65039 2.830078-.11086-.561519-.24452-1.071332-.375-1.589844.0368-.476235.091-.943871.13671-1.416016.0343-.0829.0586-.194881.0957-.269531-.0292.04353-.0534.09613-.082.140625.11504-1.170496.23251-2.340647.35937-3.505859-.31918 1.220013-.61783 2.436591-.90234 3.65039-.15498-.460852-.31896-.903577-.50781-1.289062.16599.456529.28134 1.129545.37304 1.884765-.0103.04567-.0209.09107-.0312.136719-.20111-.539442-.4155-1.049119-.66406-1.496094.22375.542168.36866 1.362864.48047 2.300782-.009.03935-.0187.0798-.0273.11914-.0271.0663-.0499.137734-.0762.205078-.29564-1.484952-.65362-2.835161-1.13281-3.914062.009-.02246.0159-.05251.0254-.07422-.0103.01862-.0185.04173-.0293.06055-.0417-.0934-.0794-.198071-.12304-.287109.0348.09539.0529.251849.084.361328-.4514.799603-.7936 1.796954-1.09961 2.863281-.2419-.714613-.51356-1.374166-.83008-1.943359.27265.660675.44217 1.686343.55274 2.919922-.0263.106172-.0603.197196-.0859.304687-.25271-.978519-.56717-1.965686-.85547-2.949219-.443672 4.688329 2.529204 6.994548 6.220193 6.827359 2.198934.06013 8.43651.0047 10.998557.0047.0464-.524572.0836-1.078843.13867-1.580079.0569.531631.0867 1.054478.12696 1.580079h2.94726l.21094-.164063c.0263.05489.0511.109882.0781.164063h1.9082c2.201105 0 4.121961-1.180084 5.029293-3.158204.0217-.275416-.02686-.66343.0019-.917968.10913-.965213.31143-1.659104.54297-2.265625zm-22.365241.06055c.0642.199673.13742.400678.19922.59961-.0518.203221-.0954.406261-.14648.609375-.0425-.172121-.0799-.357081-.125-.523438.0239-.228219.0475-.457743.0723-.685547zm6.73243.140626c.0685.965001-.0143 2.205182.008 3.537109-.0389.14108-.08.278227-.12696.400391-.16575-.319122-.37486-.650164-.62304-1.101563.1864-1.058539.42439-2.021653.74219-2.835937zm4.08789.666015c.15636.645766.28592 1.282581.39453 1.912109-.26433.36123-.50699.777024-.75196 1.183594.27491-.235911.54432-.526945.81836-.769531.006.03022.0106.05967.0156.08984-.27765.82348-.5148 1.734727-.71875 2.722656-.067-.524614-.1618-.990913-.26758-1.427734.0179-.339461.0269-.672369.0293-1.003907.11868-1.015634.28266-1.910033.48047-2.707031zm-10.47852.224609c.0874.304077.15553.603617.22852.904297-.0553.248517-.11671.497911-.16993.746094-.0448-.226473-.10285-.422273-.15039-.642578.0349-.334417.0551-.674214.0918-1.007813zm15.15625.306641c.0691.52163.13262 1.046251.19531 1.570313-.13229-.145348-.26779-.285101-.41211-.41211-.0227-.07632-.043-.157276-.0664-.232422.0897-.307896.17523-.614328.2832-.925781zm-14.19531.02148c.0316.101919.0698.204802.10156.30664-.0434.170348-.0782.339491-.12109.509766-.0161.009-.0309.02207-.0469.03125-.002-.0062-.006-.01339-.008-.01953.0214-.27752.0497-.55213.0742-.828124zm.24414.738281c.0259.09037.0456.177525.0703.267578-.0293-.01818-.06-.03588-.0898-.05273.008-.07166.0122-.143204.0195-.214843zm3.25.158203c.0772.242391.17448.509528.22851.726562-.17661.453009-.33722.92275-.48828 1.414063-.0281-.147816-.072-.274285-.10547-.414063.10236-.610954.22716-1.181996.36524-1.726562zm-1.54297.460937c.07.382059.14396.752574.20117 1.164063-.15649.411236-.3055.833338-.44141 1.27539-.0192-.100838-.0487-.186166-.0703-.283203.0359-.292377.0798-.565775.11914-.851562.0792.06269.15644.132562.23633.189453-.0725-.09979-.14846-.190785-.2207-.291016.0567-.404619.10861-.817998.17578-1.203125zm8.65234.01367h.002c.0009.0016.00057.0047.004.0059.10236.456298.19241.933808.27539 1.419921-.0722.111898-.1425.223721-.21289.339844-.073-.397554-.15464-.778223-.25-1.125.0303-.194161.054-.407126.0879-.591797.0312-.01311.0622-.03862.0937-.04883zm-4.28906.125c.16446.565463.28205 1.087143.33984 1.554688-.14131-.296881-.2562-.648482-.34765-1.044922.002-.170141.008-.342691.008-.509766zm-6.05469.181641c.0853.02171.1668.06979.25.107422.0443.187498.0877.374226.12696.560547-.0427.130382-.0899.2517-.13086.384765-.0708-.372167-.162-.715854-.26367-1.041015.007-.0035.0114-.0082.0176-.01172zm4.39649.142578c.17129.517603.30672 1.000499.38476 1.419922-.10535.136206-.2255.23839-.36718.292969-.057-.300143-.10917-.477198-.16407-.695313.0481-.341554.0911-.689693.14649-1.017578zm8.06445.246094c-.008.02153-.0142.04665-.0215.06836-.009-.0094-.018-.01808-.0273-.02734.0162-.01462.0326-.02679.0488-.04102zm.85156.162109c.0199.327527.0305.687434.043 1.041016-.0651-.09462-.13621-.179616-.20312-.271485.047-.255407.10358-.512286.16015-.769531zm-2.63867.839844c.006.03325.009.06431.0137.09766-.051.220998-.10513.431105-.15234.660156-.0248-.194389-.065-.350483-.0957-.53125.0785-.07753.15584-.149458.23437-.226562zm3.57617.130859c.0202.0375.0446.06942.0645.107422.0117.12554.0247.249087.0352.375-.0333-.16085-.0651-.324131-.0996-.482422zm-7.00195.238282c.001.01.00095.0193.002.0293-.001.0039-.00095.0078-.002.01172.00042-.01389-.00039-.02717 0-.04102z" fill="#addb1f" opacity=".977"/><path d="m3.558397 21.016289c.28218 2.620306.514083 5.263205.551611 7.996094.455699.312241.92752.569869 1.468312.740234-.01214-1.604768.000457-3.109995.08136-4.33789.08829-1.340128.243504-2.406437.492089-3.097657-.55152 1.138067-.939529 2.640266-1.26196 4.291016-.393372-1.855375-.847171-3.720689-1.331407-5.591797zm19.51073.08008c.317479 2.948193.664488 5.881216.625026 8.994141h.916705c.16832 0 .333161-.0094.497664-.02344-.01561-1.693132-.02014-3.318404.06585-4.601563.08889-1.326305.243466-2.382589.490099-3.068359-.551531 1.138093-.941505 2.640217-1.263941 4.291015-.393372-1.855375-.847178-3.720688-1.331404-5.591797zm-8.676951 2.015625c.208141.706898.183119 1.783426.162709 3.025391-.02012 1.223838-.02784 2.609451.192465 3.953125h2.02985c.02487-.656274.0492-1.263641.1508-1.927734.104682-.684263.289654-1.430193.6409-2.357422-.365203.749333-.620321 1.091458-.833368 1.501953-.213048.410495-.384028.88936-.57542 1.90625-.305516-.118975-.514947-.451493-.672647-.910156-.157701-.458664-.262818-1.04355-.355174-1.667969-.184704-1.248838-.322025-2.655178-.740115-3.523438zm7.159031.400391c.04686.435218.09511.871831.142863 1.306641-.562953 1.047009-1.11763 2.106127-1.396883 3.589843-.29458-.968626-.63529-1.867963-1.033773-2.679687-.398484-.811724-.854742-1.535836-1.38101-2.154297.388358.80267.666635 1.811436.882974 2.9375.212855 1.107935.36464 2.332055.503989 3.578125h1.633004 1.242115.936547c-.346008-1.718493-.752112-3.447736-1.188542-5.181641.129605-.421805.254011-.843995.416684-1.273437-.159079.326401-.328026.638545-.496052.951172-.09095-.358643-.169015-.715238-.261916-1.074219zm5.944691.169922c-.449881.817847-.81144 1.805693-1.119094 2.904297-.285061 1.017925-.505494 2.246613-.720454 3.402343.396603-.07423.806673-.185302 1.168886-.335937.01788-1.234824.05204-2.412547.146831-3.373047.108726-1.101769.276357-1.991437.523831-2.597656zm-19.544461.482422c-.419989.763511-.761103 1.679826-1.053616 2.695312-.268344.931595-.526106 2.011215-.731158 3.067296.362255.07106.735974.163173 1.120061.163173h1.057588c.280341-.575276.547111-1.178928.847253-1.712891.310473-.552322.655824-1.030832 1.087354-1.332031.501466.155609.95559.763661 1.430611 1.175781-.491398-.824538-.96197-1.698877-1.654834-2.044921-.593193.403181-1.071313.981047-1.511966 1.61914-.440643.638093-.843809 1.336411-1.2818 1.978516.04826-2.519411.243189-4.513644.690507-5.609375zm3.222361.203125c.462556 1.423835.690527 3.505033.869074 5.722656h1.220297c.144931-1.835645.385235-3.705175.882973-5.662109-.490433 1.498666-1.094232 2.737705-1.351249 4.771484-.395587-1.937252-.914374-3.595112-1.621095-4.832031z" fill="#73a00c" opacity=".977"/><path d="m7.328919 22.891291c-.538693 1.502483-1.042808 3.000379-1.480469 4.490234-.358739-1.325454-.792704-2.531465-1.406249-3.445312.27392.549762.446146 1.397832.544921 2.460938.08068.868299.04216 2.031479.03979 3.141793.483482.240959 1.067864.390025 1.619696.482363-.01872-2.42286.338854-4.82789.682311-7.130016zm18.826172.980469c.276103.554145.448715 1.410139.546875 2.484375.08487.928754.13132 2.096485.12327 3.296875.420451-.180454.791016-.420876 1.150055-.694145-.165318-.747819-.384024-1.593958-.589728-2.276558-.324289-1.076107-.715181-2.043044-1.230469-2.810547zm-9.169922.636719c-.465226.697384-.616853 1.826618-.822266 2.830078-.102705.50173-.219092.971297-.394531 1.339844-.175438.368545-.410039.636861-.75.732421-.212977-.816763-.401422-1.199871-.638672-1.529297-.237249-.329425-.523301-.605168-.929687-1.207031.399274.760797.60479 1.347235.71875 1.884766.109762.51773.132039.993518.160156 1.53125h2.265625c.239699-1.073662.233166-2.179002.210938-3.15625-.02264-.99539-.05147-1.859108.179687-2.425781zm-7.966797.324218c-.10345.288532-.191688.575021-.292969.863282-.186863-.250956-.373867-.50166-.550781-.763672.181166.34521.320536.682417.464844 1.021484-.478199 1.371289-.962073 2.766057-1.343357 4.125277.0694.0025.165896.01144.235935.01144h.828125 1.375 1.828125c.154378-.994288.320822-1.971448.556641-2.855469.240662-.902178.551205-1.710208.982422-2.353516-.585613.496747-1.093588 1.078452-1.53711 1.730469-.443522.652018-.822591 1.374347-1.15039 2.152344-.31065-1.191362-.928446-2.042102-1.554688-2.882813.05315-.349356.106032-.699143.158203-1.048828zm-6.613281.136719c.27489.486034.46122 1.197748.58203 2.080078.0224.163464.02821.747508.04621.922248.31289.453635.646058.698613 1.076678 1.040641-.152299-.511316-.280846-1.247558-.462727-1.716795-.3411-.880004-.74296-1.671086-1.24219-2.326172zm21.748047.386719c.248731.439788.42585 1.058976.548828 1.822266.122978.763289.191814 1.67068.21875 2.68164-.487143-.515621-.935187-1.076047-1.425781-1.58789-.490595-.511845-1.023739-.975109-1.683594-1.298829-.771.277943-1.294989.978358-1.841797 1.640625.52859-.331015 1.035723-.820329 1.59375-.945312.47731.240471.859847.623038 1.203125 1.064453.328969.423015.620958.900958.927734 1.357422h.890626c.520289 0 1.058046-.0593 1.535156-.191407-.217595-.795259-.515707-1.679907-.796875-2.384765-.324443-.813342-.703754-1.546506-1.169922-2.158203zm-3.585938.162109c-.786408.993491-1.364491 2.324865-1.804687 3.88086-.286007-1.633525-.958175-2.628308-1.503906-3.832032.550596 1.56254.818304 3.056972.980468 4.523438h1.363282c.198747-1.770891.452952-3.434926.964843-4.572266z" fill="#4d8304" opacity=".977"/></g><path d="m7.481031 24.30926c.459963 1.438379.686775 3.538018.863281 5.78125h1.183594c.14208-1.853943.38389-3.743478.878906-5.720704-.482743 1.498666-1.077081 2.737706-1.330078 4.771485-.38939-1.937252-.900059-3.595112-1.595703-4.832031z" fill="#73a00c"/></svg>