<svg height="64" viewBox="0 0 64 64" width="64" xmlns="http://www.w3.org/2000/svg"><path d="m32 5a28 28 0 0 0 -28 28 28 28 0 0 0 28 28 28 28 0 0 0 28-28 28 28 0 0 0 -28-28z" opacity=".2"/><path d="m32 4a28 28 0 0 0 -28 28 28 28 0 0 0 28 28 28 28 0 0 0 28-28 28 28 0 0 0 -28-28z" fill="#144379"/><path d="m32 13c-4.782442.0085-9.403534 1.730381-13.025391 4.853516l5.460938 5.460937c.479954-.202956 1.00889-.314453 1.564453-.314453h12c .555563 0 1.084499.111497 1.564453.314453l5.470703-5.470703c-3.625797-3.121793-8.250599-4.84033-13.035156-4.84375zm-15.15625 6.964844c-3.121793 3.625797-4.84033 8.250599-4.84375 13.035156.0085 4.782442 1.730381 9.403534 4.853516 13.025391l5.146484-5.146485v-1.878906-2-10c0-.555563.111497-1.084499.314453-1.564453zm30.302734.0098-5.460937 5.460938c.202956.479884.314453 1.008855.314453 1.564418v12c0 .555563-.111497 1.084499-.314453 1.564453l5.470703 5.470703c3.121793-3.625797 4.84033-8.250599 4.84375-13.035156-.008471-4.782442-1.730381-9.403534-4.853516-13.025391zm-7.582031 22.710903c-.479954.202956-1.00889.314453-1.564453.314453h-9l-7 7v-4.878906l-3.035156 3.035156c3.625797 3.121793 8.250599 4.84033 13.035156 4.84375 4.782442-.0085 9.403534-1.730381 13.025391-4.853516z" opacity=".2"/><path d="m32 12c-4.782442.0085-9.403534 1.730381-13.025391 4.853516l5.460938 5.460937c.479954-.202956 1.00889-.314453 1.564453-.314453h12c .555563 0 1.084499.111497 1.564453.314453l5.470703-5.470703c-3.625797-3.121793-8.250599-4.84033-13.035156-4.84375z" fill="#00cea5"/><path d="m16.84375 18.964844c-3.121793 3.625797-4.84033 8.250599-4.84375 13.035156.0085 4.782442 1.730381 9.403534 4.853516 13.025391l5.146484-5.146485v-1.878906-2-10c0-.555563.111497-1.084499.314453-1.564453z" fill="#d152ac"/><path d="m47.146484 18.974609-5.460937 5.460938c.202956.479919.314453 1.00889.314453 1.564453v12c0 .555563-.111497 1.084499-.314453 1.564453l5.470703 5.470703c3.121793-3.625797 4.84033-8.250599 4.84375-13.035156-.008471-4.782442-1.730381-9.403534-4.853516-13.025391z" fill="#d75950"/><path d="m39.564453 41.685547c-.479954.202956-1.00889.314453-1.564453.314453h-9l-7 7v-4.878906l-3.035156 3.035156c3.625797 3.121793 8.250599 4.84033 13.035156 4.84375 4.782442-.0085 9.403534-1.730381 13.025391-4.853516z" fill="#e88a19"/><path d="m32 4a28 28 0 0 0 -28 28 28 28 0 0 0  .0214844.414062 28 28 0 0 1 27.9785156-27.414062 28 28 0 0 1 27.978516 27.585938 28 28 0 0 0  .021484-.585938 28 28 0 0 0 -28-28z" fill="#fff" opacity=".1"/><path d="m32 12c-4.782442.0085-9.403534 1.730381-13.025391 4.853516l.558594.558593c3.534092-2.834284 7.922494-4.404032 12.466797-4.412109 4.546042.00325 8.936906 1.571798 12.474609 4.404297l.560547-.560547c-3.625797-3.121793-8.250599-4.84033-13.035156-4.84375zm-15.15625 6.964844c-3.121793 3.625797-4.84033 8.250599-4.84375 13.035156.000298.167445.018953.332987.023438.5.118827-4.60525 1.807821-9.036307 4.820312-12.535156l5.236328 5.236328c.053269-.26576.13142-.522156.234375-.765625zm30.302734.009765-5.460937 5.460938c.102955.243451.181106.49986.234375.765625l5.226562-5.226563c3.013787 3.495047 4.706491 7.922288 4.830078 12.525391.004312-.167091.023318-.332481.023438-.5-.008471-4.782442-1.730381-9.403534-4.853516-13.025391zm-5.146484 19.025391c0 .555563-.111497 1.084499-.314453 1.564453l.234375.234375c.051741-.258136.080078-.525089.080078-.798828zm-2.435547 3.685547c-.479954.202956-1.00889.314453-1.564453.314453h-9l-7 7v .306641c.148079.085676.303043.158464.453125.240234l6.546875-6.546875h9c .555563 0 1.084499-.111497 1.564453-.314453l4.902344 4.902344c.1852-.148528.378245-.285892.558594-.441407zm-17.564453 2.435547-3.035156 3.035156c.18075.155625.374936.290842.560547.439453l2.474609-2.474609z" fill="#fff" opacity=".2"/></svg>