<svg height="32" width="32" xmlns="http://www.w3.org/2000/svg"><rect fill="#303877" fill-rule="evenodd" height="28.203388" ry="5.575182" width="28.203388" x="1.898306" y="1.898306"/><path d="m16.000015 9c-2.198.0021-4.392.5401-6.0664 1.604-3.6813 2.338-3.9348 6.384-.5527 8.869.3109.224.5935.433.6291.461l-.9358 1.664 1.9258 1.402 5-8.32 5 8.32 1.926-1.402-.936-1.664c.036-.028.318-.237.629-.461 3.382-2.485 3.129-6.532-.553-8.869-1.674-1.0639-3.868-1.6019-6.066-1.604zm-.506 1-4.5 8c-4.9999-4 .5-8 4.5-8zm1.006 0c4 0 9.5 4 4.5 8zm-.5 7-2 2.998 2 3.002 2-3.002z" fill="#9c9c9c"/></svg>