<svg height="32" width="32" xmlns="http://www.w3.org/2000/svg"><rect fill="#fff" fill-rule="evenodd" height="28.203388" ry="5.575182" width="28.203388" x="1.898306" y="1.898306"/><path d="m16 4.9830509c-6.1033897 0-11.0169491 4.9135594-11.0169491 11.0169491 0 6.10339 4.9135594 11.016949 11.0169491 11.016949 6.10339 0 11.016949-4.913559 11.016949-11.016949 0-6.1033897-4.913559-11.0169491-11.016949-11.0169491zm0 4.7215497a4.7215496 6.2953995 0 0 1 4.72155 6.2953994 4.7215496 6.2953995 0 0 1 -4.72155 6.2954 4.7215496 6.2953995 0 0 1 -4.72155-6.2954 4.7215496 6.2953995 0 0 1 4.72155-6.2953994z" fill="#e74c3c" stroke-width=".786925"/></svg>