<svg height="32" viewBox="0 0 32 32" width="32" xmlns="http://www.w3.org/2000/svg"><rect fill="#e3ac33" fill-rule="evenodd" height="28.203388" ry="5.575182" width="28.203388" x="1.898306" y="1.898306"/><path d="m16.256697 6.0125001c-.09621.2866886-.185891.5383157-.291576.8872821-.350252 1.1565172-.683267 2.5779836-.679411 3.3831118.0036.768901.337354 2.134023.684992 3.243599.08912.2844.135226.394793.21066.616634.102639-.207592.148892-.32055.281812-.57478.564528-1.079777 1.270953-2.32505 2.060555-3.122228.815077-.8229302 2.098376-1.5688108 3.21291-2.1651913.14189-.075925.233678-.1159035.368305-.1855475a10.000056 10.000056 0 0 0 -5.848247-2.0828801zm-1.530422.080915a10.000056 10.000056 0 0 0 -5.608289 2.6576603c.133645.2676293.24782.5046256.418529.8231074.568645 1.0608872 1.333417 2.3005462 1.919652 2.8920362.581891.587099 1.865333 1.397649 2.968768 2.004754.168785.09286.284936.147943.438061.228798-.08786-.255463-.149593-.409027-.255302-.746379-.364335-1.162699-.745206-2.542896-.750564-3.664919-.0055-1.1582456.374408-2.5932378.740797-3.8030347.04664-.154068.08237-.2475363.128348-.3920232zm8.521254 3.0231755c-.271745.1351516-.513857.2511664-.83706.4241095-1.065447.5701149-2.305921 1.3392469-2.872503 1.9112849-.541089.546303-1.270671 1.747232-1.809443 2.777637-.137638.263262-.182699.373457-.285993.583152.212475-.07164.355694-.127249.604078-.20508 1.162698-.364335 2.542896-.745206 3.664919-.750564 1.158246-.0055 2.593236.374409 3.803033.740797.154068.04664.247537.08237.392025.128351a10.000056 10.000056 0 0 0 -2.659056-5.6096874zm-15.152149.7784642a10.000056 10.000056 0 0 0 -2.08288 5.8468522c.282715.09432.529241.180659.87333.2846 1.152253.348066 2.569863.684069 3.402643.687783.8266.0036 2.307503-.331243 3.51704-.682202.129285-.03752.209559-.0669.329241-.103237-.140848-.0746-.243508-.12246-.396206-.206475-1.149339-.632364-2.470808-1.41711-3.296615-2.25029-.821451-.828801-1.571916-2.113239-2.166585-3.222676-.07344-.137014-.112478-.224222-.179968-.3543552zm13.621726 5.3906552c-.768901.0036-2.134023.337355-3.243599.684993-.259892.08145-.400742.136585-.615239.209265.201304.09979.34216.162315.573385.283206 1.079777.564528 2.32505 1.270957 3.122228 2.060557.82293.815076 1.568811 2.098376 2.165191 3.212908.07593.141892.115904.233678.185546.368306a10.000056 10.000056 0 0 0 2.082882-5.848248c-.286689-.096212-.538316-.185888-.887282-.291575-1.156518-.350252-2.577984-.683268-3.383112-.679412zm-7.085698 1.98383c-.15252.04693-.259293.08531-.426899.133928-1.259853.365557-2.748535.744616-3.921616.739402-1.166905-.0051-2.60642-.383775-3.811406-.747774-.149012-.04503-.238161-.07983-.378072-.124161a10.000056 10.000056 0 0 0 2.65766 5.611079c.267629-.133645.504626-.247818.823108-.418528 1.060886-.568646 2.300545-1.333418 2.892036-1.919653.587098-.581892 1.397649-1.865333 2.004753-2.968768.06485-.117868.102872-.197406.160436-.305525zm2.679983.23298c.03221.106144.05868.177928.09207.292971.365557 1.259853.744617 2.748535.739402 3.921616-.0051 1.166904-.383777 2.606421-.747773 3.811406-.04503.149011-.07984.23816-.124163.378073a10.000056 10.000056 0 0 0 5.612476-2.659056c-.135151-.271743-.251164-.513856-.424108-.837059-.570115-1.065446-1.339246-2.305922-1.911284-2.872505-.546303-.541089-1.747233-1.270669-2.777637-1.80944-.189868-.099277-.292671-.142906-.458987-.226006zm-1.38254.362726c-.07285.138005-.122477.243535-.206476.396206-.632363 1.149339-1.417108 2.470807-2.25029 3.296615-.828802.821452-2.113238 1.571917-3.222676 2.166587-.137013.07345-.224222.112478-.354354.179967a10.000056 10.000056 0 0 0 5.846852 2.082879c.09432-.282714.180658-.529242.284599-.87333.348067-1.152254.684068-2.569861.687784-3.402643.0036-.8266-.331244-2.307503-.682203-3.51704-.03752-.129285-.06748-.212014-.103236-.329241z" fill="#383838" stroke-linecap="round" stroke-linejoin="round" stroke-width="1.695979"/><circle cx="16" cy="16" fill="#ccc" r="4" stroke-linecap="round" stroke-linejoin="round" stroke-width=".678388"/></svg>