<svg height="32" viewBox="0 0 32 32" width="32" xmlns="http://www.w3.org/2000/svg"><rect fill="#f4b932" fill-rule="evenodd" height="28.203388" ry="5.575182" width="28.203388" x="1.898306" y="1.898306"/><g transform="translate(41.684211 -8.421053)"><path d="m-24.839715 14.421053c-6.140338 0-9.423237 4.390604-10.016427 9.181702-.408422 3.298762.340902 6.386662 1.320174 8.44566 1.433857 2.634382 1.81376 2.785944 4.063878 1.847702 4.572467-1.907987 9.125013-4.110208 12.600618-5.949474 1.331779-.704768 1.251955-3.543455 1.116029-5.192475-.338966-4.112228-2.943935-8.333115-9.084272-8.333115z" fill="#fff"/><path d="m-26.684022 20.564345c-.127945.0039-.253884.03371-.37058.08778-1.506918.593696-2.316396 1.338923-4.048806 1.557744-1.014395.128128-2.469686.153824-3.48234.03061-.581934-.07891-1.098475.386778-1.098463.990322v4.191666c.000168.563225.452927 1.014936 1.000443.998127 1.570731-.118961 3.190665-.312799 4.660478-.823713 0 0 4.339079-1.432897 4.339079-6.033765.000179-.563217-.452292-1.015219-.999811-.998777z" fill="#444"/><circle cx="-27.112782" cy="22.278196" fill="#fff" r=".714286"/></g></svg>