<svg height="32" width="32" xmlns="http://www.w3.org/2000/svg"><rect fill="#5f7c8a" fill-rule="evenodd" height="28.203388" ry="5.575182" width="28.203388" x="1.898306" y="1.898306"/><path d="m15.097686 25.691885c-1.803605-.204275-3.539556-.973575-4.897531-2.170385-1.4072523-1.240233-2.4085383-2.966167-2.8220253-4.864356-.101032-.463806-.116973-.698855-.118693-1.750076-.0014-1.069996.01236-1.281229.118637-1.777367.370622-1.730121 1.135329-3.164432 2.355581-4.418203 1.1499223-1.1815045 2.5464443-1.9870695 4.1761173-2.4089315l.633556-.164003.01552-.380604.01552-.380605h-1.005442-1.005436v-.252888c0-1.1360879.92215-2.2133863 2.088715-2.4401369.212808-.041362.752397-.055189 1.610284-.041271 1.199325.019466 1.312562.029642 1.607012.1444043.414021.1613634.825718.4355455 1.063083.7079897.360208.4134418.652798 1.1773349.652798 1.7043189v.17758h-.976728-.976736v.390673.390671l.409176.09095c1.007072.223856 2.118743.716937 3.075373 1.364079.688001.4654175 1.68369 1.4456835 2.179459 2.1457085.42985.606937.983133 1.698277 1.196467 2.360019.565404 1.753778.564442 3.786661-.0028 5.52464-.704117 2.15807-2.275174 4.008345-4.323644 5.092056-1.509906.798791-3.36521 1.148637-5.068436.955731zm.273614-2.647259c.01777-.460217.0448-.627257.120077-.741846.268214-.40825.910759-.398251 1.156642.018.06594.111671.08635.284475.08635.731991 0 .677607-.05456.634015.631085.503945.857508-.162666 1.88458-.604569 2.642278-1.136848.21778-.152993.610944-.494432.873696-.758754 2.285062-2.298727 2.632939-5.842933.838119-8.53896-.992044-1.490165-2.519836-2.518265-4.312893-2.902279-.701863-.150318-1.958175-.160619-2.597813-.0213-2.044705.445356-3.662272 1.604945-4.647399 3.331602-.3861493.676813-.7420953 1.719351-.8329863 2.439759l-.0283.224384h.554561c.7853313 0 1.0275773.135793 1.1000343.616638.03954.262198-.10627.53921-.349211.663587-.138601.07096-.311599.09233-.7478743.09239-.312154.000045-.567559.0093-.567559.02065 0 .01131.03659.219196.08128.461967.510608 2.772844 2.6545753 4.963559 5.3894313 5.506932.635754.126314.584188.16955.61048-.51186zm7.577135-12.910833-1.203813-1.2051815.658058-.640385c.68944-.670923.842817-.758626 1.181649-.675682.09112.0223.476212.365669 1.029874.918267l.884334.882641v.284678.28468l-.673148.6780815-.673149.678082z" fill="#f2f2f2"/><path d="m16.137797 13.694288v-3.167772l.277176.000212c.432434.000316 1.230778.146825 1.754026.321857 2.214915.740919 3.880515 2.660617 4.275969 4.928296.04466.256001.08117.604892.08117.775317v.309861h-3.194171-3.194165z" fill="#72dba9"/></svg>