<svg height="32" viewBox="0 0 32 32" width="32" xmlns="http://www.w3.org/2000/svg"><g fill-rule="evenodd"><path d="m19.138672 1.8984375h-11.6660158c-3.0886508 0-5.5742187 2.4855679-5.5742187 5.5742187v17.0546878c0 3.088651 2.4855679 5.574218 5.5742187 5.574218h17.0546878c3.088651.000001 5.574218-2.485567 5.574218-5.574218v-17.0546878c.000001-3.0886508-2.485567-5.5742187-5.574218-5.5742187h-3.50586c-.450212.4806592-.963149.9691142-1.324218 1.4394531-.64278.8373025-1.153959 1.659428-1.56836 2.4746094-.828801 1.6303629-1.270377 3.230301-1.601562 4.853516l-1.371094-.279297c.344881-1.6903418.838566-3.4278384 1.742188-5.2031252.45181-.8876435 1.005278-1.7833863 1.695312-2.6894532.149806-.1967066.382004-.3981819.544922-.5957031z" fill="#83a7e6"/><path d="m19.138672 1.8984375c-.162918.1975212-.395116.3989965-.544922.5957031-.690034.9060669-1.243502 1.8018097-1.695312 2.6894532-.903622 1.7752868-1.397307 3.5127834-1.742188 5.2031252l1.371094.279297c.331185-1.623215.772761-3.2231531 1.601562-4.853516.414401-.8151814.92558-1.6373069 1.56836-2.4746094.361069-.4703389.874006-.9587939 1.324218-1.4394531z" fill="#003870"/><path d="m26.304688 29.744141-1.664063-2.089844c-1.766131-2.216931-1.837037-2.294418-2.0625-2.255859-.785194.134281-1.539305.135976-2.027344.003906-.609042-.16486-1.294366-.592604-1.701172-1.060547-.326992-.376132-.720124-1.131589-.794921-1.529297l-.046876-.253906h-2.044921-2.042969l-.171875.52539c-.264403.808475-.717461 1.431716-1.322266 1.84375-.604805.412035-1.359884.612124-2.226562.574219l-.7207034-.03125-1.9726562 2.28125c-1.0377326 1.199908-1.479683 1.719984-1.8125 1.992188.5653519.191996 1.1473215.357421 1.7792968.357421h17.0546878c.631308.000001 1.212501-.165813 1.777344-.357421z" fill="#83a7e6"/><path d="m30.101562 22.195312c-.014797-.062022-.029415-.124925-.042968-.18164-.107429-.449545-.564939-2.393695-1.017578-4.320313-.65353-2.781694-.883093-3.631565-1.113282-4.125-.273556-.586402-.625267-1.11806-1.052734-1.595703-.427467-.477642-.93159-.901252-1.505859-1.265625-1.148539-.7287447-2.582287-1.226002-4.275391-1.4746091-.99879-.1466543-9.402739-.1449913-10.230469.0019531-1.3052288.2317136-2.3224696.51314-3.1816404.904297s-1.5615526.891708-2.234375 1.560547c-.6773448.673335-.8312028.87791-1.1464844 1.517578-.3835901.778256-.4178157.901433-1.7988281 6.539062-.1894041.773194-.3905994 1.597737-.6035156 2.466797v2.304688c0 2.456675 1.5972314 4.470451 3.7949219 5.216797.332817-.272204.7747674-.79228 1.8125-1.992188l1.9726562-2.28125.7207034.03125c.866678.037905 1.621757-.162184 2.226562-.574219.604805-.412034 1.057863-1.035275 1.322266-1.84375l.171875-.52539h2.042969 2.044921l.046876.253906c.074797.397708.467929 1.153165.794921 1.529297.406806.467943 1.09213.895687 1.701172 1.060547.488039.13207 1.24215.130375 2.027344-.003906.225463-.038559.296369.038928 2.0625 2.255859l1.664063 2.089844c2.198626-.745827 3.796875-2.759455 3.796874-5.216797zm-7.546874-10.044921c.383012.257742.507853.680704.335937 1.130859-.112634.294929-.330334.497487-.587891.585938-.257557.088448-.553422.06236-.822265-.101563-.287017-.175005-.449621-.446103-.476563-.730469-.026941-.284366.081246-.582509.330078-.810547.348938-.319778.814504-.347567 1.220704-.074218zm-13.5527349.289062h1.0117189 1.011719v.970703.970703l.992187.021485.992188.021484.021484.992188.023438.99414h-1.015626-1.013671v1.011719 1.011719h-1.011719-1.0117189v-1.011719-1.011719h-.9726562-.9746094v-1.013672-1.011718h.9746094.9726562v-.972657zm5.9941409 6.927735h1.011718 1.011719v.544921.544922h-1.011719-1.011718v-.544922zm-4.220703 1.060546c.453115.076713.870538.361044 1.095703.826172.155231.320665.187916.645034.128906.941406-.05901.296373-.210494.564907-.419922.773438s-.477414.356923-.773437.414062c-.296024.057141-.618704.023035-.9375004-.134765-.4631012-.229229-.7449818-.647767-.8203125-1.099609-.0753306-.451844.0557511-.938563.4199219-1.302735.365182-.365181.853526-.494681 1.306641-.417969z" fill="#0061ac"/><g fill="#e6e6e6"><path d="m21.134766 20.449219c-.41609.098561-.784507.375677-.992188.804687-.187246.3868-.200743.797012-.070312 1.158203.13043.361192.406078.671684.800781.859375.451841.214864.946619.165212 1.345703-.070312s.701346-.656772.771484-1.179688c.052009-.387764-.251404-1.082759-.570312-1.30664-.404532-.283992-.869066-.364187-1.285156-.265625z"/><path d="m21.134766 20.449219c.41609-.098562.880624-.018367 1.285156.265625.318908.223881.622321.918876.570312 1.30664-.070138.522916-.3724.944164-.771484 1.179688s-.893862.285176-1.345703.070312c-.394703-.187691-.670351-.498183-.800781-.859375-.130431-.361191-.116934-.771403.070312-1.158203.207681-.42901.576098-.706126.992188-.804687z"/><path d="m10.775391 20.427734c-.453115-.076712-.941459.052788-1.306641.417969-.3641708.364172-.4952525.850891-.4199219 1.302735.0753307.451843.3572113.87038.8203125 1.099609.3187964.1578.6414764.191905.9375004.134765.296023-.057139.564009-.205531.773437-.414062s.360912-.477065.419922-.773438c.05901-.296372.026325-.620741-.128906-.941406-.225165-.465128-.642588-.749459-1.095703-.826172z"/><path d="m14.996094 19.367188v.544921.544922h1.011718 1.011719v-.544922-.544921h-1.011719z"/><path d="m21.824219 15.966797c-.409862.054963-.686878.336128-.783203.673828-.096326.3377-.012502.731033.302734 1.007813.272489.239249.622881.299776.927734.214843.304854-.084933.565884-.31482.660157-.65625.1005-.363982.013412-.699752-.19336-.93164-.206771-.231889-.534403-.359503-.914062-.308594z"/><path d="m21.824219 15.966797c.379659-.050909.707291.076705.914062.308594.206772.231888.29386.567658.19336.93164-.094273.34143-.355303.571317-.660157.65625-.304853.084933-.655245.024406-.927734-.214843-.315236-.27678-.39906-.670113-.302734-1.007813.096325-.3377.373341-.618865.783203-.673828z"/><path d="m20.423828 14.0625c-.408832-.20857-.777568-.140401-1.123047.205078-.223387.223382-.257812.31057-.257812.644531 0 .445642.1932.752325.578125.919922.324992.141502.409373.135921.791015-.048828.373636-.180884.56231-.516154.564453-.853515.002144-.337362-.181435-.677766-.552734-.867188z"/><path d="m20.423828 14.0625c.371299.189422.554878.529826.552734.867188-.002143.337361-.190817.672631-.564453.853515-.381642.184749-.466023.19033-.791015.048828-.384925-.167597-.578125-.47428-.578125-.919922 0-.333961.034425-.421149.257812-.644531.345479-.345479.714215-.413648 1.123047-.205078z"/><path d="m24.361328 14.023438c-.388762-.162435-.769277-.076427-1.089844.24414-.223387.223382-.257812.31057-.257812.644531 0 .445642.191248.752325.576172.919922.311202.135531.46003.134708.787109-.001953.382649-.159882.571461-.531049.568359-.902344-.003101-.371295-.198652-.743295-.583984-.904296z"/><path d="m24.361328 14.023438c.385332.161001.580883.533001.583984.904296.003102.371295-.18571.742462-.568359.902344-.327079.136661-.475907.137484-.787109.001953-.384924-.167597-.576172-.47428-.576172-.919922 0-.333961.034425-.421149.257812-.644531.320567-.320567.701082-.406575 1.089844-.24414z"/><path d="m9.0019531 12.439453v.972656.972657h-.9726562-.9746094v1.011718 1.013672h.9746094.9726562v1.011719 1.011719h1.0117189 1.011719v-1.011719-1.011719h1.013671 1.015626l-.023438-.99414-.021484-.992188-.992188-.021484-.992187-.021485v-.970703-.970703h-1.011719z"/><path d="m22.554688 12.150391c-.406199-.273349-.871766-.24556-1.220704.074218-.248832.228038-.357019.526181-.330078.810547.026942.284366.189546.555464.476563.730469.268843.163923.564708.190012.822265.101563.257557-.08845.475257-.291009.587891-.585938.171916-.450155.047075-.873117-.335937-1.130859z"/></g></g></svg>