<svg height="64" viewBox="0 0 64 64" width="64" xmlns="http://www.w3.org/2000/svg"><path d="m32.001291 27.000008c-1.857226-.000342-3.714544.418448-5.088925 1.252892l-20.8520582 12.658031c-2.7487673 1.668886-2.7462151 4.510489.00252 6.179377l20.8494982 12.658032c2.748765 1.668881 7.42909 1.668879 10.177852 0l20.849545-12.658032c2.748762-1.668882 2.746174-4.510495-.0026-6.179377l-20.846909-12.658031c-1.374382-.834444-3.231698-1.252552-5.088923-1.252892z" opacity=".2"/><path d="m32.001291 26c-1.857226-.000342-3.714544.418448-5.088925 1.252892l-20.8520582 12.658032c-2.7487673 1.668885-2.7462151 4.510489.00252 6.179376l20.8494982 12.658032c2.748765 1.668882 7.42909 1.66888 10.177852 0l20.849545-12.658032c2.748762-1.668881 2.746174-4.510495-.0026-6.179376l-20.846909-12.658032c-1.374382-.834444-3.231698-1.252552-5.088923-1.252892z" fill="#af2d2c"/><path d="m32.001289 16.000007c-1.857226-.000341-3.714544.418449-5.088925 1.252893l-20.8520596 12.658034c-2.7487673 1.668884-2.7462151 4.510485.00252 6.179373l20.8494996 12.658032c2.748765 1.668881 7.429088 1.668881 10.17785 0l20.849547-12.658032c2.74876-1.66888 2.746174-4.510495-.0026-6.179373l-20.846909-12.658034c-1.374382-.834444-3.231698-1.252551-5.088923-1.252893z" opacity=".2"/><path d="m32.001289 15c-1.857226-.000341-3.714544.41845-5.088925 1.252893l-20.8520596 12.658034c-2.7487673 1.668883-2.7462151 4.510485.00252 6.179372l20.8494996 12.658032c2.748765 1.668882 7.429088 1.668882 10.17785 0l20.849547-12.658032c2.74876-1.668879 2.746174-4.510495-.0026-6.179372l-20.846909-12.658034c-1.374382-.834443-3.231698-1.252551-5.088923-1.252893z" fill="#da3837"/><path d="m32.001291 5.0000066c-1.857226-.0003414-3.714544.4184493-5.088925 1.2528927l-20.8520582 12.6580317c-2.7487673 1.668884-2.7462151 4.510489.00252 6.179377l20.8494982 12.65803c2.748765 1.668883 7.42909 1.668881 10.177852 0l20.849545-12.65803c2.748762-1.668882 2.746174-4.510497-.0026-6.179377l-20.846909-12.6580317c-1.374382-.8344434-3.231698-1.2525514-5.088923-1.2528927z" opacity=".2"/><path d="m32.001291 3.9999998c-1.857226-.0003414-3.714544.4184493-5.088925 1.2528927l-20.8520582 12.6580325c-2.7487673 1.668884-2.7462151 4.510488.00252 6.179375l20.8494982 12.65803c2.748765 1.668884 7.42909 1.668882 10.177852 0l20.849545-12.65803c2.748762-1.668881 2.746174-4.510497-.0026-6.179375l-20.846909-12.6580325c-1.374382-.8344434-3.231698-1.2525514-5.088923-1.2528927z" fill="#e0504d"/><path d="m911.2 296.75-123.63 12.83-27.68 66.59-44.7-74.31-142.75-12.83 106.52-38.41-31.96-58.96 99.72 39 94.02-30.78-25.41 60.97z" opacity=".2" transform="matrix(.04132815 0 0 .05419789 2.341989 -1.387509)"/><path d="m840.74 199.88-25.41 60.97 95.87 35.9-123.63 12.83-27.68 66.59-44.7-74.31-142.75-12.83 106.52-38.41-31.96-58.96 99.72 39z" fill="#fff" transform="matrix(.04132815 0 0 .05419789 2.341989 -2.387515)"/><path d="m852.4 473.38-99.89 146.43-230.72-95.7z" opacity=".2" transform="matrix(.03629631 0 0 .05463249 5.061092 1.138346)"/><path d="m752.51 619.81-230.72-95.7 330.61-50.73z" fill="#fff" transform="matrix(.03629631 0 0 .05463249 5.061092 .138339)"/><ellipse cx="19" cy="21" opacity=".2" rx="7" ry="4"/><ellipse cx="19" cy="20" fill="#fff" rx="7" ry="4"/><path d="m1046.891 477.818-206.066-77.243 206.066-85.628z" opacity=".25" transform="matrix(.03882251 0 0 .06139827 3.357064 -3.337206)"/><path d="m1252.957 392.274-206.066 85.544v-162.871z" opacity=".4" transform="matrix(.03882251 0 0 .06139827 3.357064 -3.337206)"/><path d="m32.001953 4c-1.857226-.0003414-3.715463.4175097-5.089844 1.2519531l-20.8515621 12.6582029c-1.57674.957301-2.2426259 2.301535-2.0097657 3.587891.173745-.954064.8401693-1.877783 2.0097657-2.587891l20.8515621-12.6582029c1.374381-.8344434 3.232618-1.2522945 5.089844-1.2519531 1.857225.0003413 3.713509.4175097 5.087891 1.2519531l20.847656 12.6582029c1.17203.711581 1.838615 1.637571 2.011719 2.59375.234572-1.288164-.432544-2.634977-2.011719-3.59375l-20.847656-12.6582029c-1.374382-.8344434-3.230666-1.2516118-5.087891-1.2519531z" fill="#fff" opacity=".2"/></svg>