<svg height="32" width="32" xmlns="http://www.w3.org/2000/svg"><rect fill="#e74c3c" fill-rule="evenodd" height="28.203388" ry="5.575182" width="28.203388" x="1.898306" y="1.898306"/><g stroke-width="1.382041" transform="matrix(.7235673 0 0 .7235673 4.784779 4.422923)"><path d="m15.5 3c-4.694 0-8.4999 3.8133-8.4999 8.517-.0174 2.551 2.235 4.78 3.2689 7.207.461 1.082 1.308 3.276 1.308 3.276h7.8461s.84678-2.1943 1.3077-3.2759c1.034-2.427 3.224-4.684 3.269-7.207 0-4.7037-3.806-8.517-8.5-8.517z" fill="#fff"/><path d="m19.423 22-1.308 5.7c-.161.702-.583 1.3-1.307 1.3h-2.6154c-.72446 0-1.1559-.59578-1.3077-1.3l-1.308-5.7z" fill="#4f4f4f"/><path d="m11.834 23 .223 1h6.886l.223-1zm .447 2 .223 1h5.992l.223-1zm .448 2 .156.699c.023.106.064.202.099.301h5.03c.036-.099.078-.195.101-.301l.156-.699z" fill="#fff" opacity=".2"/></g></svg>