<svg height="32" viewBox="0 0 32 32" width="32" xmlns="http://www.w3.org/2000/svg"><rect fill="#38738f" fill-rule="evenodd" height="28.203388" ry="5.575182" width="28.203388" x="1.898306" y="1.898306"/><path d="m16 5.51773a10.48227 10.48227 0 0 0 -10.4822695 10.48227 10.48227 10.48227 0 0 0 10.4822695 10.482269 10.48227 10.48227 0 0 0 10.482269-10.482269 10.48227 10.48227 0 0 0 -10.482269-10.48227z" fill="#fff"/><g fill="#38738f" stroke-width="1.332703" transform="matrix(.75035461 0 0 .75035461 3.67234 4.561702)"><path d="m12 11h3v13.295455l-1.5 1.704545-1.5-1.704545z"/><path d="m12.550781 10v .0059c-.567365.0042-1.012333.01414-1.537109.134766-.533826.122672-1.013672.22666-1.013672.893326l.699219.332032s.366053-.275148.701172-.332032c.383497-.06509.812496.152555 1.15039.365235v.300781h.449219 1s .959589-.77465 1.599609-.666016c.335119.05688.701172.332032.701172.332032l.699219-.332032c0-.666666-.479846-.770654-1.013672-.893367-.664794-.152817-1.127336-.131125-1.986328-.140625h-1z"/><path d="m6.6-14h4v1h-4z" transform="rotate(90)"/><path d="m15 6c0 .5522845-.671574 1-1.5 1s-1.5-.4477155-1.5-1z"/><path d="m19.450001 2.48h2.121v2.121h-2.121z" transform="matrix(.70710678 .70710678 -.70710678 .70710678 0 0)"/><path d="m17.660156 10c .200319.303301.339844.674471.339844 1.033203a1.0001 1.0001 0 0 1 -.306641.720703c.821693.572436 1.306641 1.607937 1.306641 2.628906 0 1.892176-1.054841 2.058556-3 2.617188 1.167345 2.853612 3.493869 5.378553 5.794922 6.685547 1.963172 1.18683 3.762165 2.021911 6.205078 2.314453-2.697845-3.293166-6.899301-4.742803-9-8 1.403877-.736202 3-1.371915 3-3.804688 0-1.973542-1.800196-4.195312-3.138672-4.195312z"/></g></svg>