<svg height="32" width="32" xmlns="http://www.w3.org/2000/svg"><rect fill="#d5b380" fill-rule="evenodd" height="28.203388" ry="5.575182" width="28.203388" x="1.898306" y="1.898306"/><g transform="translate(.0035 -1.5)"><path d="m5.0001431 21.5s1.6116403.000672 3.7001344 0c2.0884885-.000673 2.8000025-.7 2.8000025-2.1 0-5.809545-5.0001369-.0079-5.0001369-5.8-.016933-1.409393.082959-2.1 2.2001344-2.1h4.2998655" fill="none" stroke="#ff4141" stroke-width="3"/><path d="m20 15.5h7m-3.5 7.5v-7.5" fill="none" stroke="#fff" stroke-width="3"/><g fill="#353535"><path d="m16 16h1v3h-1z"/><path d="m16 12h1v3h-1z"/><path d="m16 8h1v3h-1z"/><path d="m16 24h1v3h-1z"/><path d="m16 20h1v3h-1z"/></g></g></svg>