<svg height="64" width="64" xmlns="http://www.w3.org/2000/svg"><path d="m50.16374 11.000587c-5.142627 0-9.55794 3.305936-10.849828 7.66982-.05294.177586.0077.379104-.03126.562493-2.103892-.787062-4.523501-1.19725-7.188936-1.19725-8.37476-.022489-16.702442-.035156-25.0929149-.035156-2.2102529.000221-4.0016592 1.792119-4.0008011 4.0019.092391 3.485581-.00104 6.613122.00781 10.007679.0056 2.205203 1.7951196 3.989968 4.000801 3.990181h3.91094l-3.6550293 11.656094c-.01674.05305-.032372.10645-.046884.160154-.4943163 1.841577.1775794 4.148034 1.5745364 5.447193 1.3969579 1.29916 3.1466469 1.736305 4.8486289 1.736305h10.093818c11.070009 0 18.454187-6.60374 20.888947-14.480276l.002-.01172 1.379137-4.50775h.03126c.265716 0 .51899-.00069.76187 0 5.284307.02325 9.720039-3.386678 11.035414-7.845599.576839-1.951965.168381-4.172791-.789221-5.841719 1.206757-.532497 2.289371-1.259707 3.068973-2.271453 1.208127-1.567901 1.007309-3.769783.427821-4.943294-.579492-1.173512-1.364085-1.861712-2.217245-2.427702-1.706319-1.13198-3.848661-1.691223-6.448557-1.6699-.576775.000028-1.140081.00074-1.70542 0h-.0059z" opacity=".2"/><path d="m50.16374 10.000587c-5.142627 0-9.55794 3.305936-10.849828 7.66982-.05294.177586.0077.379104-.03126.562493-2.103892-.787062-4.523501-1.19725-7.188936-1.19725-8.37476-.022489-16.702442-.035156-25.0929149-.035156-2.2102529.000221-4.0016592 1.792119-4.0008011 4.0019.092391 3.485581-.00104 6.613122.00781 10.007679.0056 2.205203 1.7951196 3.989968 4.000801 3.990181h3.91094l-3.6550293 11.656094c-.01674.05305-.032372.10645-.046884.160154-.4943163 1.841577.1775794 4.148034 1.5745364 5.447193 1.3969579 1.29916 3.1466469 1.736305 4.8486289 1.736305h10.093818c11.070009 0 18.454187-6.60374 20.888947-14.480276l.002-.01172 1.379137-4.50775h.03126c.265716 0 .51899-.00069.76187 0 5.284307.02325 9.720039-3.386678 11.035414-7.845599.576839-1.951965.168381-4.172791-.789221-5.841719 1.206757-.532497 2.289371-1.259707 3.068973-2.271453 1.208127-1.567901 1.007309-3.769783.427821-4.943294-.579492-1.173512-1.364085-1.861712-2.217245-2.427702-1.706319-1.13198-3.848661-1.691223-6.448557-1.6699-.576775.000028-1.140081.00074-1.70542 0h-.0059z" fill="#4f4f4f"/><path d="m50.154297 15c-3.76348 0-6.173882 1.95194-7.015625 4.810547-1.600109 5.356851 6.830823 4.083879 5.839844 7.40625-.381817 1.28764-1.438113 1.844227-2.998047 1.871094h-1.97461l-.251953 2.912109h2.273438c.259878 0 .519146-.000763.779297 0 3.762995.01656 6.337928-2.119781 7.179687-4.978516 1.643541-5.562755-7.155413-4.069298-6.167969-7.339843.286883-1.032456 1.335436-1.752809 2.404297-1.767579.980003-.01654 1.749449.188214 2.0625.433594 1.600735 1.254659 3.544821.684504 4.648438-.748047.583584-.757534-1.123476-2.631698-5.035156-2.599609-.584942 0-1.160965.000764-1.744141 0zm-43.154297 7 .00195 5h6.2109379 4.175781 9.443359.810547.648438c4.200979.302003 5.961832 2.897166 4.716796 7.011719l-1.857421 5.416015c-1.2551819 4.117188-4.3924499 6.572266-9.2148409 6.572266h-.568359l3.8125-12h-9.44336l-4.65625 14.853516c-.291394 1.085816.597853 2.146484 2.558594 2.146484h10.091797c9.644798 0 15.048911-5.146687 17.0625-11.662109l1.544922-5.052735c2.08642-6.787108-.605218-12.25-10.25-12.25h-3.242188c-7.275433-.02362-14.528731-.035156-21.845703-.035156zm0 7.005859.0078125 2.994141h7.4003905 13.449219c.491375-1.551063-.366409-3.112221-1.378906-2.994141h-11.730469z" opacity=".2"/><path d="m26.478214 28.006194h-11.730215-7.747999l.00775 2.993696h7.399589 13.45014c.491375-1.551063-.366034-3.111776-1.378531-2.993696z" fill="#fff"/><path d="m43.754622 30.999889h2.271843c.259878 0 .519192-.000763.779343 0 3.762995.01656 6.339433-2.119203 7.181192-4.977938 1.643541-5.562755-7.156262-4.070307-6.168818-7.340852.286883-1.032456 1.33625-1.751329 2.405111-1.766099.980003-.01654 1.749156.187421 2.062207.432801 1.600735 1.254659 3.544666.68495 4.648283-.747601.583584-.757534-1.123833-2.631875-5.035514-2.599786-.584941 0-1.161052.000764-1.744228 0-3.76348 0-6.174298 1.952088-7.016041 4.810695-1.600109 5.356851 6.830979 4.08368 5.84 7.406051-.381817 1.28764-1.437027 1.843344-2.996961 1.870211h-1.97566" fill="#fff"/><path d="m7.0001192 21 .00167 5h6.2113458 4.174752 9.443845.810629.648503c4.200979.302003 5.962063 2.897855 4.717027 7.012408l-1.856721 5.414923c-1.255185 4.117188-4.393983 6.572669-9.216374 6.572669h-.567436l3.811895-12h-9.443844l-4.655411 14.854469c-.291394 1.085816.597862 2.145531 2.558603 2.145531h10.092347c9.644798 0 15.048065-5.14685 17.061654-11.662272l1.54516-5.052597c2.08642-6.787108-.604917-12.250593-10.249699-12.250593h-3.242524c-7.275433-.02362-14.52849-.03427-21.845462-.03427h-.000116l.0001042.000661.0000091-.000661z" fill="#f35654"/><path d="m50.154297 14c-3.76348 0-6.173882 1.95194-7.015625 4.810547-.206756.692177-.240533 1.270615-.154297 1.765625.031863-.242117.071941-.489913.154297-.765625.841743-2.858607 3.252145-4.810547 7.015625-4.810547.583176.000764 1.159199 0 1.744141 0 2.757577-.022621 4.395453.899862 4.93164 1.712891.032991-.039627.071879-.072215.103516-.113282.583584-.757534-1.123477-2.631698-5.035156-2.599609-.584942 0-1.160965.000764-1.744141 0zm-2.316406 5.630859c-.00535.017479-.014624.033119-.019532.050782-.861823 2.854473 5.729388 2.080069 6.328125 5.535156.50665-4.049194-5.488038-3.638482-6.308593-5.585938zm-40.837891 1.369141v1c7.316972 0 14.57027.011536 21.845703.035156h3.242188c7.39865 0 10.693454 3.220094 10.890625 7.78125.261541-5.08519-2.961119-8.78125-10.890625-8.78125h-3.242188c-7.275433-.02362-14.528731-.035156-21.845703-.035156zm41.966797 5.248047c-.390079 1.26395-1.439904 1.813209-2.986328 1.839844h-1.97461l-.251953 2.912109h.085938l.166015-1.912109h1.97461c1.559934-.026867 2.61623-.583454 2.998047-1.871094.113044-.378993.09157-.69269-.011719-.96875zm-41.966797 1.757812.0019531 1h7.7460939 11.730469c.692518-.080763 1.301222.630233 1.466796 1.580079.236182-1.401538-.544935-2.687589-1.466796-2.580079h-11.730469zm26.373047 3.103516c-.044434.592114-.160041 1.224226-.365235 1.902344l-1.857421 5.416015c-1.255185 4.117188-4.392453 6.572266-9.214844 6.572266h-.25l-.318359 1h .568359c4.822391 0 7.959662-2.455078 9.214844-6.572266l1.857421-5.416015c.325955-1.077204.441181-2.047306.365235-2.902344zm-17.636719 1.890625-4.65625 14.853516c-.081092.302172-.060364.599041.039063.875l4.617187-14.728516h9.125l.31836-1z" fill="#fff" opacity=".2"/><path d="m50.164062 10c-5.142626 0-9.557721 3.306038-10.849609 7.669922-.05294.177586.00771.379111-.03125.5625-2.103892-.787062-4.524018-1.197266-7.189453-1.197266-8.37476-.022489-16.703277-.035156-25.09375-.035156-2.2102529.000221-4.0008581 1.792172-4 4.001953.0078346.295571.008334.576385.0136719.867188.0708701-2.146862 1.8215811-3.868925 3.9863281-3.869141 8.390473 0 16.71899.012667 25.09375.035156 2.665435 0 5.085561.410204 7.189453 1.197266.03896-.183389-.02169-.384914.03125-.5625 1.291888-4.363884 5.706983-7.669922 10.849609-7.669922h.00586c.565339.00074 1.128303.000028 1.705078 0 2.599896-.021323 4.7429.537942 6.449219 1.669922.85316.56599 1.637305 1.254222 2.216797 2.427734.210464.426208.368479.989555.429687 1.607422.084627-.995596-.109592-1.959203-.429687-2.607422-.579492-1.173512-1.363637-1.861744-2.216797-2.427734-1.706319-1.13198-3.849323-1.691245-6.449219-1.669922-.576775.000028-1.139739.00074-1.705078 0zm7.273438 12.117188c-.131396.064435-.257838.135856-.392578.195312.577624 1.006695.94896 2.215184 1.03125 3.443359.086877-1.248609-.159769-2.521693-.638672-3.638671zm-54.4003906 2.347656c-.0005833 2.183043-.0351267 4.308814-.0292969 6.544922.0000442.017415.0055933.033419.0058594.050781.0053496-2.222726.0364432-4.372891.0234375-6.595703zm7.5683596 11.535156-3.3417971 10.65625c-.01674.05305-.032363.106452-.046875.160156-.1466115.546202-.1779173 1.133076-.1308594 1.722656.0260375-.246498.0679241-.48819.1308594-.722656.014512-.053704.030135-.107106.046875-.160156l3.6562501-11.65625z" fill="#fff" opacity=".1"/></svg>