<svg height="32" width="32" xmlns="http://www.w3.org/2000/svg" xmlns:xlink="http://www.w3.org/1999/xlink"><radialGradient id="a" cx="-61.844184" cy="14.184184" gradientUnits="userSpaceOnUse" r="21.933862"><stop offset="0" stop-color="#56572b"/><stop offset="1" stop-color="#1a1c0e"/></radialGradient><g transform="translate(77.843971 1.815603)"><g fill-rule="evenodd"><rect fill="#56572b" height="28.203388" ry="5.575182" width="28.203388" x="-75.945877" y=".082489"/><path d="m-59.911986 28.286305c-.791887-.342472-1.799597-.637879-2.451171-1.009765-1.488042-.8493-2.632598-1.768898-3.533203-2.728516-.900606-.959618-1.556327-1.95875-2.070313-2.96875s-.884708-2.030803-1.212891-3.03125c-.328182-1.000446-.613836-1.981153-.957031-2.912109-.343195-.930957-.74371-1.811752-1.302734-2.613282-.559024-.801529-1.276285-1.524551-2.251953-2.136718-.578271-.362827-1.473098-.59546-2.253907-.875v12.699218c0 3.088651 2.485568 5.576172 5.574219 5.576172z" fill="#222514"/><path d="m-64.968626.08318084h-5.402344c-3.088651 0-5.574219 2.48556796-5.574219 5.57421876v4.3535154c.780809.27954 1.675636.512173 2.253907.875.975668.612167 1.692929 1.33519 2.251953 2.136718.559024.80153.959539 1.682325 1.302734 2.613282.343195.930956.628849 1.911663.957031 2.912109.328183 1.000447.698905 2.02125 1.212891 3.03125s1.169706 2.009132 2.070313 2.96875c.900604.959618 2.045161 1.879216 3.533203 2.728516.651574.371886 1.659285.667293 2.451171 1.009765h6.59375c3.088651 0 5.576172-2.487521 5.576172-5.576172v-3.851562c-.656957-.253829-1.462094-.448958-1.966796-.765625-.975669-.612167-1.69293-1.333236-2.251954-2.134766-.559023-.80153-.959539-1.682325-1.302734-2.613281s-.628849-1.911663-.957031-2.912109c-.328183-1.0004465-.698905-2.0212495-1.212891-3.0312497-.513986-1.0100004-1.17166-2.0091321-2.072266-2.96875-.900605-.959618-2.045161-1.8792164-3.533203-2.7285157-1.04499-.5964278-2.5107-1.10422976-3.929687-1.62109376z" fill="url(#a)"/><path d="m-64.968626.08318084c1.418987.516864 2.884697 1.02466596 3.929687 1.62109376 1.488042.8492993 2.632598 1.7688977 3.533203 2.7285157.900606.9596179 1.55828 1.9587496 2.072266 2.96875.513986 1.0100002.884708 2.0308032 1.212891 3.0312497.328182 1.000446.613836 1.981153.957031 2.912109s.743711 1.811751 1.302734 2.613281c.559024.80153 1.276285 1.522599 2.251954 2.134766.504702.316667 1.309839.511796 1.966796.765625v-13.2011714c0-3.0886508-2.487521-5.57421876-5.576172-5.57421876z" fill="#56572b"/></g><g fill="#fff" transform="translate(-.453901 .680851)"><path d="m-62.109305 22.344175c.41097-.201813.46475-.31052.482758-.975847l.01511-.557606h-.689726-.689727l.0146.409775.0146.409773-1.399707-.00009-1.399702-.000119v-1.183491-1.183491l1.399702-.000091 1.399707-.000092-.0149.39393-.01494.39393.310797-.02837c.395478-.03609.851196-.256041 1.007318-.486169.08817-.129969.10316-.196039.08137-.358679-.04053-.302454-.176793-.48371-.473001-.629166l-.259377-.127397h-1.980076-1.980069l-.238598.107855c-.317354.143462-.542781.396266-.58055.651039-.01604.108347-.02266.750054-.01469 1.426009.0163 1.381265.02216 1.407389.368247 1.647241.328261.227486.450997.238745 2.491184.228511l1.889035-.0095zm5.830119.102186c.263082-.06693.53947-.264383.634588-.453355.06286-.124868.07961-.27566.07966-.717182.00009-.661668-.04873-.815411-.314811-.991493-.332918-.220314-.568586-.245948-2.268318-.246724l-1.559019-.000721v-.386905-.386911h2.071106c2.051676 0 2.07111-.000891 2.07111-.09249 0-.141747-.112695-.374655-.233104-.481781-.05955-.05298-.210704-.134917-.335881-.182076-.210164-.07918-.379249-.08575-2.207667-.08575h-1.980066l-.250358.123053c-.292329.143685-.480746.395543-.527085.704563-.04957.330618.000424.975543.08887 1.143671.09954.189474.424585.398226.718052.461163.13428.0288.859107.04832 1.793517.04832h1.568162v.364152.36415h-2.09874c-1.895075 0-2.096059.007-2.071111.072.01519.03959.02763.100337.02763.134973 0 .186434.447357.523567.807256.608359.252293.05945 3.753045.0603 3.986214.000976z"/><path d="m-61.208942 5.3759595c-4.093721 0-7.421874 3.328153-7.421874 7.4218755 0 2.04785.832836 3.904138 2.177734 5.248046h1.214844c-1.573635-1.209593-2.591797-3.106206-2.591797-5.248046 0-3.6613705 2.959723-6.6210942 6.621093-6.6210942 3.661371 0 6.621094 2.9597237 6.621094 6.6210942 0 2.14184-1.018162 4.038453-2.591797 5.248046h1.214844c1.344898-1.343908 2.177735-3.200196 2.177735-5.248046 0-4.0937225-3.328154-7.4218755-7.421876-7.4218755z"/><path d="m-59.130852 17.602588c.137151-.124119.104142-.363416-.0876-.635171-.167549-.237452-.168475-.241193-.288557-1.1605-.115254-.882401-.128001-.936636-.294695-1.2543-.113675-.216624-.23319-.375523-.343869-.457184-.20638-.152267-.309358-.421588-.222943-.583058.04865-.09089.03119-.129125-.182678-.400306-.130052-.164896-.260709-.325221-.290345-.356276-.02963-.03106-.117578-.145151-.19542-.253547-.09999-.13923-.163682-.190054-.216984-.173136-.06023.01911-.07941-.0096-.0951-.142549-.0108-.09157-.03488-.201152-.05348-.243512-.02729-.06216-.01198-.07702.07935-.07702.153858 0 .204303-.113384.204303-.459217v-.288962h.341374c.187753 0 .409067-.01941.491805-.04315.197747-.05671.38976-.242215.490628-.473982.08533-.196084.167441-.233245.262437-.118781.03447.04156.109785.06307.192436.05501.122301-.01194.137135-.02963.149438-.17829.0075-.09078.02778-.165039.04505-.165039.01728 0 .1208.212901.230072.473113.189395.451003.204509.472692.323384.464095.06859-.005.135523-.01983.148744-.03306.01321-.01323-.05197-.227014-.144887-.475097-.09291-.248084-.176289-.472486-.185292-.498672-.0089-.02618.07025-.08333.176125-.1269901.147144-.06068.202013-.111666.232924-.216454l.04042-.137071.506124-.02722c.278365-.01497.511071-.02983.517124-.03301.006-.0033.01103-.03424.01103-.06902 0-.03917-.05443-.06847-.143037-.07702-.141113-.01361-.14321-.01714-.156116-.262942-.0013-.08653-.15265-.08156-.228975-.122342 0 .121666-.01057.129434-.176042.129434-.127143 0-.176043-.01833-.176043-.06601 0-.07343-.07238-.09059-.09535-.02261-.0081.02387-.108739.05627-.223718.072l-.209052.02859v-.133305c0-.07331-.02729-.143779-.06065-.156581-.0695-.02667-.159402.04816-.159402.132687 0 .04314-.108334.05721-.440105.05721h-.440149v-.132032c0-.121552-.01223-.132031-.154034-.132031-.102319 0-.154038.02059-.154038.06131 0 .07388-.09475.114731-.266114.114731-.08185 0-.143607.03125-.17399.08803-.06176.115405-.333228.12903-.289287.01451.267817-.697918-.114627-1.356075-.779282-1.341101-.426245.0096-.690628.375971-.691423.958155-.000411.311133-.0016.314219-.140887.371916-.465181.192683-.798701.9314351-.781842 1.7317891.0053.253871-.01966.519415-.06873.729313-.05174.22139-.08036.547456-.08692.990237-.0089.603657-.02294.707242-.163699 1.210291-.12867.459876-.215814.856695-.324418 1.47721-.0088.05025-.125174.166133-.260372.259249-.264529.182187-.443198.384953-.583768.6625l-.08935.176427.160515.417717c.199979.520407.196499.515311.388123.568221.118526.03273.195695.02816.306485-.01813l.148075-.06187v-.332298-.332325h.175915c.384603 0 .676618-.439933 1.057174-1.592683.34123-1.033627.444731-1.312015.487787-1.312015.02175 0 .03956.02029.03956.04509s.07912.170369.175829.323491c.203201.321747.543285.657877.890052.8797.216919.138762.245537.174969.272387.344601.0165.104246.109727.427203.207185.717672.09745.29047.204706.682404.23834.870963.0785.440102.169616.565003.515312.706435.323018.132154.501686.145027.613129.04417zm-1.750112-7.507982c.016-.1028761.06194-.2118021.102063-.2420591.15014-.11321.760308-.0344.760308.0982 0 .06246-.134289.1093321-.315884.1102491-.07277.000352-.150932.04267-.204382.110633-.06044.07684-.129478.110029-.228871.110029h-.142332z"/></g></g></svg>