<svg height="32" width="32" xmlns="http://www.w3.org/2000/svg"><rect fill="#324b6c" fill-rule="evenodd" height="28.203388" ry="5.575182" width="28.203388" x="1.898306" y="1.898306"/><g fill="#fff" transform="translate(4)"><path d="m11 17a3 3 0 0 0 -3 3 3 3 0 0 0 3 3 3 3 0 0 0 3-3 3 3 0 0 0 -3-3zm0 1a2 2 0 0 1 2 2 2 2 0 0 1 -2 2 2 2 0 0 1 -2-2 2 2 0 0 1 2-2z"/><path d="m18 9a4 4 0 0 0 -4 4 4 4 0 0 0 4 4 4 4 0 0 0 4-4 4 4 0 0 0 -4-4zm0 1a3 3 0 0 1 3 3 3 3 0 0 1 -3 3 3 3 0 0 1 -3-3 3 3 0 0 1 3-3z"/><path d="m10.963662 17.2 3.500693-4.797834.904271 2.854564 3.166946 1.099266-4.872213 3.603959-1.123382-1.62814z"/><path d="m2.09375 14.421875c-.0577325.518473-.09375 1.04375-.09375 1.578125 0 .565652.042835 1.120236.1074219 1.667969l7.8535156 3.21875c.7689475.315087 1.6419435-.04941 1.9570315-.81836.315087-.768948-.04941-1.641943-.81836-1.957031z"/><circle cx="18" cy="13" r="2"/></g></svg>