<svg height="32" viewBox="0 0 32 32" width="32" xmlns="http://www.w3.org/2000/svg"><rect fill="#2293da" fill-rule="evenodd" height="28.203388" ry="5.575182" width="28.203388" x="1.898306" y="1.898306"/><path d="m18.13157 8.5395038a4.9736641 4.9736641 0 0 0 -4.621177 3.1487852 3.5526173 3.5526173 0 0 0 -2.484057-1.017215 3.5526173 3.5526173 0 0 0 -3.5526175 3.552617 3.5526173 3.5526173 0 0 0  .346935 1.52374 4.2631407 4.2631407 0 0 0 -1.767982 3.449924 4.2631407 4.2631407 0 0 0 4.2631415 4.263141h9.947328a5.6841876 5.6841876 0 0 0 5.684188-5.684187 5.6841876 5.6841876 0 0 0 -2.894829-4.950073 4.9736641 4.9736641 0 0 0 -4.92093-4.2867322z" fill="#46b4ff"/><g fill="#fff" stroke-width="1.407413" transform="matrix(.71052345 0 0 .71052345 4.631625 4.285205)"><path d="m16 13a5 5 0 0 0 -4.894531 4h2.070312a3 3 0 0 1 2.824219-2 3 3 0 0 1 2.826172 2h2.072266a5 5 0 0 0 -4.898438-4zm-4.898438 6a5 5 0 0 0 4.898438 4 5 5 0 0 0 4.894531-4h-2.070312a3 3 0 0 1 -2.824219 2 3 3 0 0 1 -2.826172-2z"/><path d="m21 17h-4l4-4z"/><path d="m11 18h4l-4 4z"/></g></svg>