<svg height="32" viewBox="0 0 32 32" width="32" xmlns="http://www.w3.org/2000/svg"><rect fill="#4f4f4f" fill-rule="evenodd" height="28.203388" ry="5.575182" width="28.203388" x="1.898306" y="1.898306"/><path d="m11.5 10.5v1h3v1h-4v3h-1v-3h-1v7h1v-3h1v3l2 2h6.5l1-1h1.5v1h1l1-.9998v-6l-1-1.0002h-1v1l-.87501.0002-2-2h-3.125v-1l3-.0002v-1zm0 3h6.5l2 2h2.5v4h-3l-1 1h-5.375l-1.625-1.7z" fill="#ffa92c"/><g stroke-width="1.333333" transform="matrix(.75 0 0 .75 41.617717 8.127432)"><circle cx="-25.244905" cy="19.441324" fill="#3f92e7" fill-rule="evenodd" r="8" stroke-width="1.333333"/><path d="m-26.244906 15.441324-.0882 1.0536a3.1429 3.1429 0 0 0 -.91852.53126l-.95759-.4509-1 1.7321.86941.6038a3.1429 3.1429 0 0 0 -.048.53013 3.1429 3.1429 0 0 0  .0457.53237l-.86719.60156 1 1.7321.95536-.44978a3.1429 3.1429 0 0 0  .92075.5279l.0882 1.0558h2l .0882-1.0536a3.1429 3.1429 0 0 0  .91854-.53126l.95758.4509 1-1.7321-.86942-.6038a3.1429 3.1429 0 0 0  .048-.53013 3.1429 3.1429 0 0 0 -.0457-.53237l.86719-.60156-1-1.7321-.95536.44978a3.1429 3.1429 0 0 0 -.921-.528l-.088-1.056h-2zm1 2.8572a1.1429 1.1429 0 0 1 1.143 1.143 1.1429 1.1429 0 0 1 -1.143 1.143 1.1429 1.1429 0 0 1 -1.143-1.143 1.1429 1.1429 0 0 1 1.143-1.143z" fill="#fff" stroke-width="1.333333"/></g></svg>