<svg height="32" width="32" xmlns="http://www.w3.org/2000/svg"><rect fill="#3d6080" fill-rule="evenodd" height="28.203388" ry="5.575182" width="28.203388" x="1.898306" y="1.898306"/><g transform="translate(43.46289 -1.19336)"><path d="m-28.716797 31.294922v-2.044922l2.791016-.03516c.607142 0 1.192728-.253452 1.626953-.658203.434225-.404752.716797-.959882.716797-1.564453v-2.890626l1.230469-.01758c.57945-.0077.996187-.172475 1.201171-.46289.204985-.290416.197768-.708031-.07227-1.222656l-2.345703-3.701172-.01367-.712891v-1.916016c0-.03212-.002-.06358-.002-.0957.01028-.161906.01107-.326377.01367-.488281 0-.06296-.01107-.122583-.01367-.185547.0032-.0669.0059-.132271.0078-.199219 0-1.419323-.288415-2.772112-.808594-4.001953-.520178-1.2298404-1.272999-2.3374523-2.203125-3.2675779-.930125-.9301256-2.037737-1.6829462-3.267578-2.203125-1.22984-.5201787-2.582629-.8085937-4.001953-.8085937-.72729.00221-2.351284-.013969-3.960937.042969-1.005608.035571-1.646161.1878787-2.416016.3046875-.79371.9628787-1.330078 2.1510121-1.330078 3.5019532v17.0527369c0 3.088651 2.487521 5.574219 5.576172 5.574219z" fill="#7a9bbb" fill-rule="evenodd"/><path d="m-35.988281 3.0917969c-1.73771 0-3.225148.835672-4.246094 2.0742187.769855-.1168088 1.410408-.2691165 2.416016-.3046875 1.609653-.056938 3.233647-.040754 3.960937-.042969 1.419324 0 2.772113.288415 4.001953.8085937 1.229841.5201788 2.337453 1.2729994 3.267578 2.203125.930126.9301256 1.682947 2.0377375 2.203125 3.2675779.520179 1.229841.808594 2.58263.808594 4.001953-.0019.06695-.0046.132319-.0078.199219.0026.06296.01367.122587.01367.185547-.0026.161904-.0034.326375-.01367.488281 0 .03212.002.06358.002.0957v1.916016l.01367.712891 2.345703 3.701172c.270033.514625.27725.93224.07227 1.222656-.204984.290415-.621721.45518-1.201171.46289l-1.230469.01758v2.890626c0 .604571-.282572 1.159701-.716797 1.564453-.434225.404751-1.019811.658203-1.626953.658203l-2.791078.0351573v2.044922h9.78125c3.088651 0 5.574219-2.485568 5.574219-5.574219v-17.0527342c0-3.0886509-2.485568-5.5761719-5.574219-5.5761719z" fill="#3d6080" fill-rule="evenodd"/><rect fill="#4c4c4c" height="7.70974" rx="1.927435" width="3.85487" x="-37.711353" y="4.819095"/><circle cx="-24.219309" cy="26.02088" fill="#4c4c4c" r="1.927435"/><path d="m-35.783918 15.741226 11.56461 10.279653" fill="none" stroke="#4c4c4c"/><path d="m-31.28657 15.741226a4.497348 4.497348 0 0 1 -4.497348 4.497348 4.497348 4.497348 0 0 1 -4.497348-4.497348 4.497348 4.497348 0 0 1 4.497348-4.497348 4.497348 4.497348 0 0 1 4.497348 4.497348z" fill="#4cff83"/></g></svg>