<svg height="32" width="32" xmlns="http://www.w3.org/2000/svg"><rect fill="#d65c2f" fill-rule="evenodd" height="28.203388" ry="5.575182" width="28.203388" x="1.898306" y="1.898306"/><path d="m16.866071 5.0401448a11 11 0 0 0 -10.7889998 6.2307992l6.0162998 1.6121a5 5 0 0 1 3.1589-1.8206l1.6136-6.0218992zm3.8632 1.0371996-1.6121 6.0162996a5 5 0 0 1 1.8206 3.1589l6.0219 1.6136a11 11 0 0 0 -6.231-10.7899996zm-15.6889998 9.0565996a11 11 0 0 0 6.2304998 10.789l1.6121-6.0163a5 5 0 0 1 -1.821-3.16l-6.0217998-1.613zm14.8659998 3.9834a5 5 0 0 1 -3.1589 1.8206l-1.6136 6.0219a11 11 0 0 0 10.789-6.2305l-6.0163-1.6121z" fill="#fff"/></svg>