<svg height="32" width="32" xmlns="http://www.w3.org/2000/svg"><rect fill="#666" fill-rule="evenodd" height="28.203388" ry="5.575182" width="28.203388" x="1.898306" y="1.898306"/><path d="m14.182 2-12.182 26.459v.041c0 .82835.66488 1.4957 1.4922 1.5l12.508-27.164 12.508 27.164c.827-.004 1.492-.672 1.492-1.5v-.041l-12.182-26.459h-3.636z" fill="#ed5050" stroke-width="1.547615" transform="matrix(.80383795 0 0 .80383795 3.138612 3.138593)"/><path d="m5.8892655 4.7525386c-.6167045.0320732-1.1046341.5200028-1.1367073 1.1367073l10.1106738 10.1106741-10.1106738 10.110673c.03205.616657.5200269 1.104634 1.1367073 1.136708l10.1106735-10.110674 10.110674 10.110674c.616656-.03205 1.104634-.520027 1.136707-1.136708l-10.110674-10.110673 10.110674-10.1106741c-.032153-.6167849-.520083-1.1047145-1.136627-1.1367876l-10.110673 10.1106737-10.1106741-10.1106737z" fill="#70ed50"/><path d="m5.9520452 4.7462687c-.6679893 0-1.2057569.5377676-1.2057569 1.2057569v.401919h10.4498937v20.8997864h1.607676v-20.8997864h10.449893v-.401919c0-.6679893-.537768-1.2057569-1.205757-1.2057569z" fill="#5093ed"/></svg>