<svg height="32" width="32" xmlns="http://www.w3.org/2000/svg"><rect fill="#29dc47" fill-rule="evenodd" height="28.203388" ry="5.575182" width="28.203388" x="1.898306" y="1.898306"/><path d="m14.320452 24.212141c-1.240656-.77934-2.256627-1.443796-2.257716-1.47657-.0019-.06409 4.502789-2.898798 4.606765-2.898798.03432 0 .0624.332178.0624.738173v.738173l.369302-.06928c1.167558-.219035 2.39154-1.007619 3.178685-2.047955 1.431148-1.891487 1.441908-4.476686.02651-6.369009-.253741-.33924-.449457-.644363-.434926-.678051.01453-.03369.446824-.444915.96065-.913835l.934227-.852582.501432.549111c.688227.753668 1.380807 2.206108 1.631671 3.421854.252685 1.224562.252307 2.062633-.0015 3.292625-.633235 3.068951-3.169756 5.625617-6.179938 6.229017l-.934227.187269-.03032.793731c-.01668.436551-.06339.789091-.103803.78342-.04042-.0057-1.088571-.647952-2.329228-1.427292zm-4.6760041-3.249298c-1.0334139-1.315337-1.7330849-3.320495-1.7330849-4.966783 0-2.385071 1.2840245-4.969152 3.183548-6.4068506 1.081169-.8183088 2.665712-1.4840804 3.82043-1.6052159l.311409-.032669.03043-.8116253c.01674-.4463941.06715-.7967293.111995-.7785222.228463.092736 4.577841 2.8446468 4.579113 2.8972638.0015.062704-4.512596 2.8969072-4.61398 2.8969072-.03062 0-.0557-.32698-.0557-.726622 0-.850718-.000211-.850796-1.038031-.483392-.87079.30826-1.471373.693237-2.093108 1.341691-1.835091 1.913967-2.007224 4.809463-.411623 6.924136.235769.312468.425183.592736.420927.622818-.01002.07076-1.837506 1.708465-1.93922 1.737832-.04244.01226-.300376-.261778-.5731527-.608968z" fill-opacity=".66805"/></svg>