<svg height="32" viewBox="0 0 32 32" width="32" xmlns="http://www.w3.org/2000/svg"><rect fill="#8e8e8e" fill-rule="evenodd" height="28.203388" ry="5.575182" width="28.203388" x="1.898306" y="1.898306"/><g stroke-width="1.250667" transform="matrix(.79957356 0 0 .79957356 37.906204 9.287854)"><path d="m-22.197359 14.894657h-19.2s4.2 6 16.8 6c8.4 0 11.2-4.2 11.2-6.3 0-1.816718 0-2.7-1.4-2.7h-6c-1.4 0-1.4 1.321299-1.4 3z" fill="#784421" stroke-width="1.329929"/><path d="m-24.397359-.1053434v15.0000004s-6-3.4275-6-7.5000014c0-4.072499 6-7.499999 6-7.499999z" fill="#ccc" stroke-width="1.057006"/><path d="m-24.397359-.1053434v-4l5 2z" fill="#c83737" stroke-width="2.283394"/><path d="m-33.397359 4.8946566v10.0000004s-4-2.285-4-5.0000004c0-2.715 4-5 4-5z" fill="#ccc" stroke-width=".704671"/><g stroke-linecap="round" stroke-linejoin="round" stroke-width="1.531748"><path d="m-21.397359 13.561324s0-.666667.5-.666667.5.666667.5.666667v1.333333h-1z" opacity=".4"/><path d="m-18.397359 13.561324s0-.666667.5-.666667.5.666667.5.666667v1.333333h-1z" opacity=".4"/><path d="m-15.397359 13.561324s0-.666667.5-.666667.5.666667.5.666667v1.333333h-1z" opacity=".4"/></g></g></svg>