<svg height="32" width="32" xmlns="http://www.w3.org/2000/svg"><rect fill="#4e91d9" fill-rule="evenodd" height="28.203388" ry="5.575182" width="28.203388" x="1.898306" y="1.898306"/><g transform="translate(33.432836 -1.552239)"><path d="m-12.932836 27.552239c.831 0 1.5-.669 1.5-1.5v-13c0-.831-.669-1.5-1.5-1.5h-13c-.831 0-1.5.669-1.5 1.5v13c0 .831.669 1.5 1.5 1.5zm-2.5-4h-8v-8h8z" fill="#ffad53"/><path d="m-8.9328358 23.552239c.831 0 1.5-.669 1.5-1.5v-13.0000002c0-.831-.669-1.5-1.5-1.5h-13.0000002c-.831 0-1.5.669-1.5 1.5v2.5000002h12v8h-8v-4h-4v6.5c0 .831.669 1.5 1.5 1.5z" fill="#a3caf6"/></g></svg>