<svg height="32" viewBox="0 0 32 32" width="32" xmlns="http://www.w3.org/2000/svg"><rect fill="#4f4f4f" fill-rule="evenodd" height="28.203388" ry="5.575182" width="28.203388" x="1.898306" y="1.898306"/><path d="m9.5 6.90625a1.50015 1.50015 0 0 0 -1.046875 2.5761719l5.941406 5.9394531-5.9394529 5.939453a1.50015 1.50015 0 1 0 2.1210939 2.121094l5.939453-5.939453 5.9375 5.939453a1.5005327 1.5005327 0 1 0 2.123047-2.121094l-5.939453-5.939453 5.939453-5.9394531a1.50015 1.50015 0 0 0 -1.089844-2.5761719 1.50015 1.50015 0 0 0 -1.03125.4550781l-5.939453 5.9394529-5.939453-5.9394529a1.50015 1.50015 0 0 0 -1.076172-.4550781z" fill="#fff" transform="translate(-.512823 .5754)"/></svg>