<svg height="64" viewBox="0 0 64 64" width="64" xmlns="http://www.w3.org/2000/svg"><path d="m23.357082 8.0082511c-.27899.0169-.561222.060992-.842148.1357201-2.247409.5978276-3.571583 2.8774358-2.96939 5.1085588l1.632344 6.053181c-1.416071.837041-2.728678 1.798204-3.950984 2.836583l-4.650953-4.818207c-1.610063-1.667963-4.2962985-1.633296-5.9415171 0-1.6452183 1.633296-1.6104079 4.228114 0 5.895746l4.6974341 4.864349c-2.0764027 2.310445-3.9812375 4.473007-5.8704255 5.890314-1.9485898 1.42035-1.94859 4.972134 0 6.392485 8.3388365 5.150872 13.9384065 17.669131 26.5358575 17.632941h.0054c12.597451.0362 18.197021-12.482069 26.535857-17.632941 1.94859-1.420351 1.94859-4.972135 0-6.392485-1.888434-1.416725-3.792294-3.578243-5.867692-5.887602l4.700169-4.867061c1.610428-1.667612 1.645218-4.26245 0-5.895746-1.64522-1.633296-4.32869-1.667934-5.938784 0l-4.656359 4.823635c-1.215115-1.032609-2.517137-1.991678-3.923634-2.825723l1.637812-6.069468c.60219-2.231123-.721981-4.5107308-2.969391-5.1085584-2.247409-.5978274-4.540925.7194634-5.143116 2.9505864l-1.460089 5.21183c-.934325-.127388-1.904494-.200744-2.917439-.200868h-.0028c-1.000153.00012-1.95569.07386-2.879161.198154l-1.460022-5.209117c-.526919-1.9522313-2.348044-3.2046225-4.300969-3.0863069z" opacity=".2"/><path d="m23.357082 7.0082497c-.27899.0169-.561222.060992-.842148.1357201-2.247409.5978276-3.571583 2.8774352-2.96939 5.1085582l1.632344 6.053181c-1.416071.837041-2.728678 1.798203-3.950984 2.836583l-4.650953-4.818207c-1.610063-1.667962-4.2962985-1.633296-5.9415171 0-1.6452183 1.633297-1.6104079 4.228114 0 5.895746l4.6974341 4.864349c-2.0764027 2.310445-3.9812375 4.473007-5.8704255 5.890314-1.9485898 1.42035-1.94859 4.972134 0 6.392485 8.3388365 5.150871 13.9384065 17.669131 26.5358575 17.632941h.0054c12.597451.0362 18.197021-12.48207 26.535857-17.632941 1.94859-1.420351 1.94859-4.972135 0-6.392485-1.888434-1.416725-3.792294-3.578243-5.867692-5.887602l4.700169-4.867061c1.610428-1.667612 1.645218-4.262449 0-5.895746-1.64522-1.633296-4.32869-1.667934-5.938784 0l-4.656359 4.823635c-1.215115-1.03261-2.517137-1.991677-3.923634-2.825722l1.637812-6.069468c.60219-2.231123-.721981-4.5107312-2.969391-5.1085588-2.247409-.5978274-4.540925.7194634-5.143116 2.9505858l-1.460089 5.211831c-.934325-.127389-1.904494-.200745-2.917439-.200868h-.0028c-1.000153.000119-1.95569.07386-2.879161.198154l-1.460022-5.209118c-.526919-1.9522312-2.348044-3.2046219-4.300969-3.0863063z" fill="#ef9202"/><circle cx="32" cy="37" opacity=".2" r="16"/><circle cx="32" cy="36" fill="#fff" r="16"/><circle cx="32" cy="36" fill="#ff5a2e" r="10"/><path d="m23.357422 7.0078125c-.27899.0169-.560871.0619906-.841797.1367187-2.030165.5400391-3.2922 2.4516217-3.076172 4.4609378.221076-1.6136625 1.387937-3.0118547 3.076172-3.4609378.280926-.0747281.562807-.1198187.841797-.1367187 1.952925-.1183156 3.773862 1.133706 4.300781 3.0859375l1.458985 5.208984c.923471-.124294 1.880706-.197146 2.880859-.197265h.001953c1.012945.000123 1.983644.073783 2.917969.201172l1.458984-5.212891c.602191-2.2311227 2.897122-3.5470461 5.144531-2.9492188 1.688236.4490831 2.853143 1.8472751 3.074219 3.4609378.216026-2.0093161-1.044053-3.9208987-3.074219-4.4609378-2.247409-.5978273-4.54234.7180964-5.144531 2.9492188l-1.458984 5.212891c-.934325-.127389-1.905024-.201049-2.917969-.201172h-.001953c-1.000153.000119-1.957388.072971-2.880859.197265l-1.458985-5.208984c-.526919-1.9522312-2.347856-3.2042531-4.300781-3.0859375zm-13.7382814 8.0781255c-1.078469.004333-2.1617657.421633-2.984375 1.238281-.9472045.940341-1.3204429 2.198683-1.1738281 3.416015.1081235-.881026.4859456-1.733117 1.1738281-2.416015 1.6452186-1.633296 4.3313434-1.667962 5.9414064 0l4.65039 4.818359c1.222306-1.03838 2.535101-1.998896 3.951172-2.835937l-.230468-.855469c-1.326867.803538-2.566085 1.710529-3.720704 2.691406l-4.65039-4.818359c-.805032-.833981-1.878562-1.242615-2.9570314-1.238281zm44.7695314 0c-1.077782-.00433-2.151984.404314-2.957031 1.238281l-4.65625 4.824219c-1.147552-.975195-2.375988-1.880991-3.69336-2.681641l-.230469.855469c1.406498.834045 2.708714 1.793562 3.923829 2.826172l4.65625-4.824219c1.610094-1.667934 4.294233-1.633296 5.939453 0 .686329.681356 1.062704 1.531252 1.171875 2.410156.144702-1.215556-.226155-2.471289-1.171875-3.410156-.82261-.816648-1.90464-1.233952-2.982422-1.238281zm-43.523438 12.515624c-1.8944833 2.109939-3.6593698 4.063968-5.4042965 5.373047-1.1061012.806251-1.5617469 2.295188-1.4121094 3.695313.1139751-1.066439.5696208-2.081213 1.4121094-2.695313 1.889188-1.417307 3.7946911-3.58018 5.8710935-5.890625zm42.271485.001954-.466797.482422c2.075398 2.309359 3.980707 4.471946 5.86914 5.888671.842489.6141 1.298135 1.628874 1.41211 2.695313.149637-1.400125-.306008-2.889062-1.41211-3.695313-1.74423-1.308541-3.508782-3.26215-5.402343-5.371093z" fill="#fff" opacity=".2"/></svg>