<svg height="32" viewBox="0 0 32 32" width="32" xmlns="http://www.w3.org/2000/svg"><rect fill="#2caac6" fill-rule="evenodd" height="28.203388" ry="5.575182" width="28.203388" x="1.898306" y="1.898306"/><path d="m6.698149 12.03308v3.96692c0 .880542-.07013 2.396325.509705 3.101891.964427 1.615941 3.031118 5.112868 3.824296 6.713642.258861.478782.833384.605519 1.558382.60552h3.409468 3.409468c.724998-.000001 1.299521-.126738 1.558383-.60552.793178-1.600774 2.859868-5.097701 3.824296-6.713642.579829-.705566.509704-2.221349.509704-3.101891v-3.96692c0-3.3278172-4.134156-6.4541329-9.301851-6.4541329s-9.301851 3.1263157-9.301851 6.4541329z" fill="#6e6e6e"/><path d="m7.997878 15.98219c-.602752.0042-1.205662.01321-1.29936.02747v.511726c0 .880542-.07099 1.874932.50884 2.580498.964428 1.615941 3.031202 5.112868 3.824381 6.713642.258861.478785.83383.605522 1.558828.605523h3.409433 3.409433c.724999-.000001 1.299967-.126738 1.558828-.60552.793179-1.600774 2.859953-5.097701 3.824381-6.713642.579829-.705566.50884-1.699956.50884-2.580498v-.511726c-.108402.000005-2.266687-.01476-2.361464-.0097-2.101672-.01781-2.013951.732723-2.878785 2.08455-.811472 1.401259-.814814 3.149242-1.220207 4.168081-.570555-1.966368-.25644-5.880451-2.841026-5.880451s-2.270471 3.914083-2.841026 5.880451c-.405393-1.018839-.185427-2.766822-.996899-4.168081-.56177-.951763-1.493527-2.022098-2.725849-2.100326-.08309-.0053-.834191-.0063-1.438348-.002z" fill="#585858"/><path d="m12.590567 26.421053h3.409433 3.409433l-.568407-4.168422c-.570555-1.966367-.25644-5.731578-2.841026-5.731578s-2.270471 3.765211-2.841026 5.731578z" fill="#4b4b4b"/><path d="m8.928571 14.511278v1.488722c1.54045-.241165 2.298564 1.004099 2.936091 2.08421.811471 1.401259.888919 3.224018 1.294312 4.242858.570555-1.966368.25644-5.582707 2.841026-5.582707s2.270471 3.616339 2.841026 5.582707c.405393-1.01884.48284-2.841599 1.294312-4.242858.922942-1.442654 1.295961-2.08421 2.936091-2.08421v-1.488722h-7.071429z" fill="#7ac4eb"/></svg>