<svg height="22" width="22" xmlns="http://www.w3.org/2000/svg"><path d="m4 1.5c-.554 0-1 .446-1 1v18c0 .554.446 1 1 1h14c .554 0 1-.446 1-1v-13l-5.5-.5-.5-5.5z" opacity=".2"/><path d="m4 1c-.554 0-1 .446-1 1v18c0 .554.446 1 1 1h14c .554 0 1-.446 1-1v-13l-5.5-.5-.5-5.5z" fill="#13a553"/><path d="m4 1c-.554 0-1 .446-1 1v .5c0-.554.446-1 1-1h9l5.5 5.5h.5l-6-6z" fill="#fff" opacity=".2"/><path d="m13 1.5v5c0 .5523.447715 1 1 1h5z" opacity=".2"/><path d="m13 1v5c0 .5523.447715 1 1 1h5z" fill="#70c896"/><path d="m19 8.5-8 8-3.5-3.5-4.5 4.5v2l4.5-4.5 3.5 3.5 8-8z" opacity=".2"/><path d="m19 8-8 8-3.5-3.5-4.5 4.5v2l4.5-4.5 3.5 3.5 8-8z" fill="#fff"/></svg>