<svg height="22" width="22" xmlns="http://www.w3.org/2000/svg"><g transform="translate(-1 -1)"><path d="m2 5.5v16c0 .554.446 1 1 1h18c .554 0 1-.446 1-1v-16z" opacity=".2"/><path d="m2 5v16c0 .554.446 1 1 1h18c .554 0 1-.446 1-1v-16z" fill="#e74c3c"/><path d="m22 5.4995559v-2c0-.554-.446-1-1-1h-18c-.554 0-1 .446-1 1v2z" opacity=".2"/><path d="m22 5v-2c0-.554-.446-1-1-1h-18c-.554 0-1 .446-1 1v2z" fill="#ccc"/><path d="m3 2c-.554 0-1 .446-1 1v .5c0-.554.446-1 1-1h18c .554 0 1 .446 1 1v-.5c0-.554-.446-1-1-1z" fill="#fff" opacity=".2"/><path d="m14.980469 9.4995567-1.980469.5v1.0000003l1.992188-.5v7h-1.992188v1h5v-1h-2v-8.0000003zm-7.4570315.002c-.443085.008236-.8146176.042922-1.0234375.042922v1.0000003c.5824601 0 1.5161208-.109293 2.2714844.05078.3776818.08004.6858581.219927.8886718.425781.202814.205854.3398438.482988.3398438 1 0 .550717-.1099107.877997-.2421875 1.074219s-.2942027.294693-.5253906.363281c-.3695905.109651-.8959674.05341-1.3847657.0332-.093116-.0023-.2436314-.0317-.3164062-.0293-.068836.0023-.1272475.0055-.1816406.01172-.027197.0031-.052918.0069-.085937.01367-.033021.0067-.04854-.01538-.1894531.07422-.017614.0112-.062192.04465-.0625.04492-.0003086.000269-.07989.08958-.080078.08984-.0001885.000267-.076104.165751-.076172.166015-.0000677.000264-.00591.226302-.00586.226563.0000544.000261.077947.181383.078125.18164.0001775.000257.091495.09936.091797.09961.0003018.000253.050236.0391.070313.05078s.038091.01895.052734.02539c.1171446.05152.1352352.04107.1679688.04492.065467.0077.1166458.0078.1894531.0078.069136 0 .2451338-.01953.3339844-.01367.2033636.0065.4099531.0056.6875.06445.387144.08204.7825183.2357 1.0488281.458985.2663096.223315.4296873.485481.4296873.96878 0 .500154-.148152.762308-.3925781.976562-.2444261.214255-.6268202.364306-1.0742188.447266-.8947971.165918-1.9507447.054687-2.5332031.054687v1c .4176416 0 1.611469.134642 2.7167969-.07031.5526639-.102478 1.1076668-.29127 1.5507811-.679688.443115-.388421.732422-.992421.732422-1.728517 0-.752952-.334616-1.356941-.787109-1.736328-.08403-.07046-.186056-.0671-.275391-.125.229891-.133901.482211-.216308.648438-.462891.273994-.406451.414062-.947274.414062-1.632813 0-.719242-.237948-1.306306-.628906-1.703125-.3909585-.3968183-.8952227-.5957743-1.3925784-.7011713-.4973557-.105399-1.0119931-.123518-1.4550781-.115235z" opacity=".2"/><path d="m14.980469 8.9999997-1.980469.5v1.0000003l1.992188-.5000003v7.0000003h-1.992188v1h5v-1h-2v-8.0000003zm-7.4570315.00195c-.443085.008286-.8146176.042972-1.0234375.042972v1.0000003c.5824601 0 1.5161208-.1092933 2.2714844.05078.3776818.08004.6858581.219927.8886718.425781.202814.205854.3398438.482988.3398438 1 0 .550717-.1099107.877997-.2421875 1.074219s-.2942027.294693-.5253906.363281c-.3695905.109651-.8959674.05341-1.3847657.0332-.093116-.0023-.2436314-.0317-.3164062-.0293-.068836.0023-.1272475.0055-.1816406.01172-.027197.0031-.052918.0069-.085937.01367-.033021.0067-.04854-.01538-.1894531.07422-.017614.0112-.062192.04465-.0625.04492-.0003086.000269-.07989.08958-.080078.08984-.0001885.000267-.076104.165751-.076172.166015-.0000677.000264-.00591.226302-.00586.226563.0000544.000261.077947.181383.078125.18164.0001775.000257.091495.09936.091797.09961.0003018.000253.050236.0391.070313.05078s.038091.01895.052734.02539c.1171446.05152.1352352.04107.1679688.04492.0654667.007739.1166456.007829.1894529.007829.069136 0 .2451338-.01953.3339844-.01367.2033636.0065.4099531.0056.6875.06445.387144.08204.7825183.2357 1.0488281.458985.2663098.223286.4296875.485452.4296875.968751 0 .500154-.148152.762308-.3925781.976562-.2444261.214255-.6268202.364306-1.0742188.447266-.8947971.165918-1.9507447.054687-2.5332031.054687v1c .4176416 0 1.611469.134642 2.7167969-.07031.5526639-.102478 1.1076668-.29127 1.5507811-.679688.443115-.388421.732422-.992421.732422-1.728517 0-.752952-.334616-1.356941-.787109-1.736328-.08403-.07046-.186056-.0671-.275391-.125.229891-.133901.482211-.216308.648438-.462891.273994-.406451.414062-.947274.414062-1.632813 0-.719242-.237948-1.306306-.628906-1.7031253-.3909585-.396818-.8952227-.595774-1.3925784-.701171-.4973557-.105399-1.0119931-.1235181-1.4550781-.115235z" fill="#fff"/></g></svg>