<svg height="12pt" viewBox="0 0 12 12" width="12pt" xmlns="http://www.w3.org/2000/svg"><path d="m2.835938.71875h6.472656c1.164062 0 2.113281.949219 2.113281 2.117188v6.472656c0 1.164062-.949219 2.113281-2.113281 2.113281h-6.472656c-1.167969 0-2.117188-.949219-2.117188-2.113281v-6.472656c0-1.167969.949219-2.117188 2.117188-2.117188zm0 0" fill="#248afd" fill-rule="evenodd"/><path d="m9.683594 6.070312c0 1.996094-1.617188 3.613282-3.613282 3.613282-1.992187 0-3.613281-1.617188-3.613281-3.613282 0-1.992187 1.621094-3.613281 3.613281-3.613281 1.996094 0 3.613282 1.621094 3.613282 3.613281zm0 0" fill="#fff"/><path d="m7.789062 7.457031c-1.195312.605469-2.425781 1.175781-3.730468 1.480469-.421875-.003906-.214844-.5625-.144532-.820312.328126-1.082032.832032-2.097657 1.3125-3.113282.191407-.320312.324219-.765625.710938-.886718.371094-.046876.617188.324218.808594.59375.792968 1.246093 1.539062 2.519531 2.195312 3.847656.164063.34375.324219.691406.488282 1.039062-.480469-2.003906-1.125-3.992187-2.160157-5.773437-.234375-.347657-.441406-.730469-.757812-1.011719-.304688-.242188-.679688.015625-.90625.25-.707031.730469-1.140625 1.6875-1.566407 2.605469-.492187 1.09375-.816406 2.257812-1.054687 3.429687-.082031.394532.3125.683594.664063.558594.976562-.207031 1.890624-.644531 2.753906-1.144531.496094-.300781.972656-.640625 1.386718-1.054688zm0 0" fill="#ccc"/></svg>