<svg height="12pt" viewBox="0 0 12 12" width="12pt" xmlns="http://www.w3.org/2000/svg"><path d="m2.835938.71875h6.472656c1.164062 0 2.113281.949219 2.113281 2.117188v6.472656c0 1.164062-.949219 2.113281-2.113281 2.113281h-6.472656c-1.167969 0-2.117188-.949219-2.117188-2.113281v-6.472656c0-1.167969.949219-2.117188 2.117188-2.117188zm0 0" fill="#5b5b5b" fill-rule="evenodd"/><path d="m9.105469 6.070312c0 1.679688-1.355469 3.035157-3.035157 3.035157-1.675781 0-3.035156-1.355469-3.035156-3.035157 0-1.675781 1.359375-3.035156 3.035156-3.035156 1.679688 0 3.035157 1.359375 3.035157 3.035156zm0 0" fill="#373737"/><path d="m8.726562 6.070312c0-1.464843-1.1875-2.65625-2.65625-2.65625-1.464843 0-2.65625 1.191407-2.65625 2.65625 0 1.46875 1.191407 2.65625 2.65625 2.65625 1.46875 0 2.65625-1.1875 2.65625-2.65625zm0 0" fill="#ba174e"/><path d="m7.589844 6.070312c0 .839844-.679688 1.519532-1.519532 1.519532-.835937 0-1.515624-.679688-1.515624-1.519532 0-.835937.679687-1.515624 1.515624-1.515624.839844 0 1.519532.679687 1.519532 1.515624zm0 0" fill="#d67495"/></svg>