<svg height="12pt" viewBox="0 0 12 12" width="12pt" xmlns="http://www.w3.org/2000/svg"><path d="m2.835938.71875h6.472656c1.164062 0 2.113281.949219 2.113281 2.117188v6.472656c0 1.164062-.949219 2.113281-2.113281 2.113281h-6.472656c-1.167969 0-2.117188-.949219-2.117188-2.113281v-6.472656c0-1.167969.949219-2.117188 2.117188-2.117188zm0 0" fill="#f59335" fill-rule="evenodd"/><path d="m2.65625 3.226562c0 .402344.171875.566407.570312.566407 2.828126 0 5.121094 2.296875 5.121094 5.125 0 .355469.191406.570312.570313.570312.386719 0 .570312-.226562.570312-.570312 0-3.457031-2.804687-6.261719-6.261719-6.261719-.378906 0-.570312.183594-.570312.570312zm0 2.277344c0 .390625.160156.566406.570312.566406 1.570313 0 2.84375 1.277344 2.84375 2.847657 0 .335937.195313.570312.570313.570312.367187 0 .570313-.207031.570313-.570312 0-2.203125-1.785157-3.984375-3.984376-3.984375-.371093 0-.570312.160156-.570312.570312zm1.136719 1.707032c-.625 0-1.136719.507812-1.136719 1.136718s.511719 1.140625 1.136719 1.140625c.628906 0 1.140625-.511719 1.140625-1.140625s-.511719-1.136718-1.140625-1.136718zm0 0" fill="#fff"/></svg>