<svg height="12pt" viewBox="0 0 12 12" width="12pt" xmlns="http://www.w3.org/2000/svg"><path d="m2.835938.71875h6.472656c1.164062 0 2.113281.949219 2.113281 2.117188v6.472656c0 1.164062-.949219 2.113281-2.113281 2.113281h-6.472656c-1.167969 0-2.117188-.949219-2.117188-2.113281v-6.472656c0-1.167969.949219-2.117188 2.117188-2.117188zm0 0" fill="#d1ff42" fill-rule="evenodd"/><path d="m10.246094 6.832031c-.691406.757813-1.460938 1.570313-2.539063 1.492188-.445312-.066407-.933593-.5625-1.289062-1.054688-.457031-.625-.835938-1.359375-1.246094-2.039062-.34375-.511719-.773437-1.015625-1.601563-.398438-.285156.203125-.5625.5625-.777343.945313-.347657.613281.253906 1.4375.8125 1.433594 2.304687-.023438 4.859375-2.351563 6.261719-3.417969-1.269532 1.359375-1.949219 2.140625-4.539063 3.65625-.636719.367187-1.199219.597656-2.019531.796875-.492188.121094-1.214844.234375-1.371094-.289063-.164062-.542969.226562-1.378906.3125-1.5625.617188-1.371093 1.542969-2.789062 3.15625-2.578125 1.542969.203125 1.613281 2.605469 2.761719 3.238282.566406.3125.988281.34375 2.078125-.222657zm0 0" fill="#4f4f4f"/></svg>