<svg height="12pt" viewBox="0 0 12 12" width="12pt" xmlns="http://www.w3.org/2000/svg"><path d="m2.835938.71875h6.472656c1.164062 0 2.113281.949219 2.113281 2.117188v6.472656c0 1.164062-.949219 2.113281-2.113281 2.113281h-6.472656c-1.167969 0-2.117188-.949219-2.117188-2.113281v-6.472656c0-1.167969.949219-2.117188 2.117188-2.117188zm0 0" fill="#45b449" fill-rule="evenodd"/><path d="m7.96875 7.96875c0 1.050781-.847656 1.898438-1.898438 1.898438-1.046874 0-1.894531-.847657-1.894531-1.898438s.847657-1.898438 1.894531-1.898438c1.050782 0 1.898438.847657 1.898438 1.898438zm0 0" fill="#393939"/><path d="m9.488281 5.691406c0 1.886719-1.53125 3.414063-3.417969 3.414063-1.886718 0-3.414062-1.527344-3.414062-3.414063 0-1.886718 1.527344-3.414062 3.414062-3.414062 1.886719 0 3.417969 1.527344 3.417969 3.414062zm0 0" fill="#393939"/><path d="m3.453125 5.730469c.59375-.121094 1.238281.046875 1.699219.503906.457031.460937.625 1.101563.5 1.695313-.59375.121093-1.234375-.042969-1.695313-.503907-.457031-.457031-.625-1.101562-.503906-1.695312zm0 0" fill="#df574d"/><path d="m8.6875 5.730469c-.59375-.121094-1.234375.046875-1.695312.503906-.460938.460937-.625 1.101563-.503907 1.695313.597657.121093 1.238281-.042969 1.699219-.503907.457031-.457031.625-1.101562.5-1.695312zm0 0" fill="#df574d"/></svg>