<svg height="32" width="32" xmlns="http://www.w3.org/2000/svg"><rect fill="#d53068" fill-rule="evenodd" height="28.203388" ry="5.575182" width="28.203388" x="1.898306" y="1.898306"/><path d="m636 528c-1.6568 0-3 1.3432-3 3 0 .23127.0442.44001.0937.65625l-3.2188 2c-.51341-.41127-1.1659-.65625-1.875-.65625-1.6568 0-3 1.3432-3 3s1.3432 3 3 3c .70904 0 1.3615-.24498 1.875-.65625l3.2188 2c-.0495.21624-.0937.42498-.0937.65625 0 1.6568 1.3432 3 3 3s3-1.3432 3-3-1.3432-3-3-3c-.70904 0-1.3615.24498-1.875.65625l-3.2188-2c .0495-.21624.0937-.42498.0937-.65625s-.0442-.44001-.0937-.65625l3.2188-2c .51341.41127 1.1659.65625 1.875.65625 1.6568 0 3-1.3432 3-3s-1.3432-3-3-3z" fill="#fff" transform="translate(-615.99995 -520)"/></svg>