<svg height="17pt" viewBox="0 0 17 17" width="17pt" xmlns="http://www.w3.org/2000/svg"><path d="m3.96875 1.007812h9.0625c1.632812 0 2.960938 1.328126 2.960938 2.960938v9.0625c0 1.632812-1.328126 2.960938-2.960938 2.960938h-9.0625c-1.632812 0-2.960938-1.328126-2.960938-2.960938v-9.0625c0-1.632812 1.328126-2.960938 2.960938-2.960938zm0 0" fill="#4f4f4f" fill-rule="evenodd"/><g fill="#ff6363"><path d="m3.742188 10.882812h1.710937c.40625 0 .738281.308594.738281.691407v1.800781c0 .382812-.332031.695312-.738281.695312h-1.710937c-.410157 0-.738282-.3125-.738282-.695312v-1.800781c0-.382813.328125-.691407.738282-.691407zm0 0"/><path d="m3.742188 6.101562h1.710937c.40625 0 .738281.308594.738281.691407v1.800781c0 .382812-.332031.695312-.738281.695312h-1.710937c-.410157 0-.738282-.3125-.738282-.695312v-1.800781c0-.382813.328125-.691407.738282-.691407zm0 0"/><path d="m8.523438 10.882812h1.710937c.40625 0 .738281.308594.738281.691407v1.800781c0 .382812-.332031.695312-.738281.695312h-1.710937c-.410157 0-.738282-.3125-.738282-.695312v-1.800781c0-.382813.328125-.691407.738282-.691407zm0 0"/><path d="m8.523438 6.101562h1.710937c.40625 0 .738281.308594.738281.691407v1.800781c0 .382812-.332031.695312-.738281.695312h-1.710937c-.410157 0-.738282-.3125-.738282-.695312v-1.800781c0-.382813.328125-.691407.738282-.691407zm0 0"/></g></svg>