<svg height="12pt" viewBox="0 0 12 12" width="12pt" xmlns="http://www.w3.org/2000/svg"><path d="m11.382812 2.644531c-.019531-.21875-.042968-.441406-.128906-.632812-.105468-.253907-.257812-.484375-.449218-.671875-.195313-.191406-.417969-.347656-.671876-.457032-.195312-.078124-.414062-.105468-.632812-.125h-3.429688v5.3125h5.3125zm0 0" fill="#2086e7"/><path d="m2.640625.757812c-.214844.019532-.4375.046876-.628906.125-.253907.109376-.484375.265626-.671875.457032-.191406.1875-.347656.417968-.457032.671875-.078124.191406-.105468.414062-.125.628906v3.429687h5.3125v-5.3125zm0 0" fill="#14ddb1"/><path d="m9.5 11.382812c.21875-.019531.4375-.042968.632812-.125.253907-.109374.480469-.261718.671876-.453124.191406-.191407.34375-.417969.453124-.671876.082032-.195312.105469-.414062.125-.632812v-3.429688h-5.3125v5.3125zm0 0" fill="#14ddb1"/><path d="m .757812 9.496094c.019532.222656.046876.441406.128907.636718.105469.253907.261719.480469.453125.671876.191406.191406.417968.34375.671875.453124.191406.082032.414062.105469.628906.125h3.429687v-5.3125h-5.3125zm0 0" fill="#2086e7"/><path d="m3.613281 2.007812h4.917969c.886719 0 1.605469.71875 1.605469 1.605469v4.917969c0 .886719-.71875 1.605469-1.605469 1.605469h-4.917969c-.886719 0-1.605469-.71875-1.605469-1.605469v-4.917969c0-.886719.71875-1.605469 1.605469-1.605469zm0 0" fill="#3f3f3f" fill-rule="evenodd"/><g fill="none" stroke="#fff" stroke-linecap="round" stroke-width="2" transform="matrix(.334444 0 0 .334444 1.057051 .720347)"><path d="m21.004933 15.996582s0 1.004465-2.00893 1.004465c-1.997249 0-1.997249-1.99725-1.997249-4.00618 0-1.997249 0-3.994499 1.997249-3.994499 2.00893 0 2.00893 1.004465 2.00893 1.004465" stroke-linejoin="bevel"/><path d="m8.998075 13.999332h4.006179m-4.006179 3.001715v-6.003429m4.006179 6.003429v-6.003429m-4.006179 0s0-1.99725 1.99725-1.99725c2.008929 0 2.008929 1.99725 2.008929 1.99725" stroke-linejoin="bevel"/><path d="m8.998075 23.004475h8.000679"/></g></svg>