<svg height="12pt" viewBox="0 0 12 12" width="12pt" xmlns="http://www.w3.org/2000/svg"><path d="m2.835938.71875h6.472656c1.164062 0 2.113281.949219 2.113281 2.117188v6.472656c0 1.164062-.949219 2.113281-2.113281 2.113281h-6.472656c-1.167969 0-2.117188-.949219-2.117188-2.113281v-6.472656c0-1.167969.949219-2.117188 2.117188-2.117188zm0 0" fill="#6de588" fill-rule="evenodd"/><path d="m2.507812 2.804688v6.164062c0 .558594.5625.558594.5625.558594h7.285157zm1.402344 3.042968 2.65625 2.28125h-2.65625zm0 0" fill="#009688"/><path d="m5.886719 5.324219c.148437.003906.28125.089843.351562.21875l2.101563 3.78125.054687 1.042969-.789062-.636719-1.734375-3.117188v-1.285156c.003906 0 .011718-.003906.015625-.003906zm0 0" fill="#a2a2a2" fill-rule="evenodd"/><path d="m5.855469 5.324219c-.148438.003906-.28125.089843-.351563.21875l-2.101562 3.78125-.054688 1.042969.789063-.636719.296875-.527344c.449218.214844.941406.324219 1.4375.324219 1.859375 0 3.363281-1.503906 3.363281-3.359375h-.839844c0 1.390625-1.132812 2.519531-2.523437 2.519531-.355469 0-.707032-.078125-1.027344-.226562l1.027344-1.847657v-1.285156c-.007813 0-.007813-.003906-.015625-.003906zm0 0" fill="#ccc"/><path d="m5.308594 3.644531v.839844h-.277344c-.5625 0-.5625.558594-.5625.558594v1.402343s.703125.699219.984375.980469c.25.195313.667969.214844.882813-.046875l.933593-.933594v-1.402343s0-.558594-.554687-.558594h-.285156v-.839844zm0 0" fill="#4f4f4f"/><path d="m6.429688 5.605469c0 .308593-.25.5625-.558594.5625s-.5625-.253907-.5625-.5625c0-.308594.253906-.5625.5625-.5625s.558594.253906.558594.5625zm0 0" fill="#fff"/></svg>