<svg height="12pt" viewBox="0 0 12 12" width="12pt" xmlns="http://www.w3.org/2000/svg"><path d="m8.039062.757812h-5.179687c-1.164063 0-2.101563.9375-2.101563 2.101563v6.421875c0 1.164062.9375 2.101562 2.101563 2.101562h6.421875c1.164062 0 2.101562-.9375 2.101562-2.101562v-5.175781zm0 0" fill="#707070" fill-rule="evenodd"/><path d="m11.382812 4.105469-3.34375-3.347657v1.246094c0 1.164063.9375 2.101563 2.101563 2.101563zm0 0" fill="#b8b8b8" fill-rule="evenodd"/><path d="m3.792969 4.4375v4.171875h4.554687v-4.171875zm.382812.757812h3.792969v3.035157h-3.792969zm1.515625.378907v1.519531h.757813v-1.519531zm0 1.898437v.378906h.757813v-.378906zm0 0" fill="#b8b8b8"/></svg>