<svg height="12pt" viewBox="0 0 12 12" width="12pt" xmlns="http://www.w3.org/2000/svg"><path d="m2.835938.71875h6.472656c1.164062 0 2.113281.949219 2.113281 2.117188v6.472656c0 1.164062-.949219 2.113281-2.113281 2.113281h-6.472656c-1.167969 0-2.117188-.949219-2.117188-2.113281v-6.472656c0-1.167969.949219-2.117188 2.117188-2.117188zm0 0" fill="#808080" fill-rule="evenodd"/><path d="m6.070312 6.070312c-.21875 0-.4375.046876-.601562.132813l-2.464844 1.328125c-.324218.175781-.324218.472656 0 .648438l2.464844 1.328124c.328125.175782.878906.175782 1.207031 0l2.460938-1.328124c.328125-.175782.328125-.472657 0-.648438l-2.460938-1.328125c-.164062-.085937-.382812-.132813-.605469-.132813zm0 0" fill="#ea6e41"/><path d="m6.070312 4.289062c-.21875 0-.4375.042969-.601562.128907l-2.464844 1.328125c-.324218.175781-.324218.472656 0 .648437l2.464844 1.328125c.328125.175782.878906.175782 1.207031 0l2.460938-1.328125c.328125-.175781.328125-.472656 0-.648437l-2.460938-1.328125c-.167969-.085938-.382812-.128907-.605469-.128907zm0 0" fill="#aed351"/><path d="m6.070312 2.503906c-.21875 0-.4375.046875-.601562.132813l-2.464844 1.328125c-.324218.175781-.324218.472656 0 .648437l2.464844 1.328125c.328125.175782.878906.175782 1.207031 0l2.460938-1.328125c.328125-.175781.328125-.472656 0-.648437l-2.460938-1.328125c-.167969-.085938-.382812-.132813-.605469-.132813zm0 0" fill="#3b9dda"/></svg>