<svg height="12pt" viewBox="0 0 12 12" width="12pt" xmlns="http://www.w3.org/2000/svg"><path d="m2.800781.710938h6.398438c1.152343 0 2.089843.9375 2.089843 2.089843v6.398438c0 1.152343-.9375 2.089843-2.089843 2.089843h-6.398438c-1.152343 0-2.089843-.9375-2.089843-2.089843v-6.398438c0-1.152343.9375-2.089843 2.089843-2.089843zm0 0" fill="#858585" fill-rule="evenodd"/><path d="m5.25 3.195312c.980469.566407 1.316406 1.824219.75 2.804688s-1.824219 1.316406-2.804688.75c-.980468-.566406-1.316406-1.820312-.75-2.804688.566407-.980468 1.820313-1.316406 2.804688-.75zm0 0" fill="#4f4f4f"/><path d="m8.804688 5.25c-.566407.980469-1.824219 1.316406-2.804688.75s-1.316406-1.824219-.75-2.804688c.566406-.980468 1.820312-1.316406 2.800781-.75.984375.566407 1.320313 1.820313.753907 2.804688zm0 0" fill="#ccc"/><path d="m8.804688 5.25c.980468.566406 1.316406 1.820312.75 2.800781-.566407.984375-1.820313 1.320313-2.804688.753907-.980469-.566407-1.316406-1.824219-.75-2.804688s1.824219-1.320312 2.804688-.75zm0 0" fill="#4f4f4f"/><path d="m6.75 8.804688c-.566406.980468-1.820312 1.316406-2.804688.75-.980468-.566407-1.316406-1.820313-.75-2.804688.566407-.980469 1.824219-1.316406 2.804688-.75s1.316406 1.824219.75 2.804688zm0 0" fill="#ccc"/></svg>