<svg height="12pt" viewBox="0 0 12 12" width="12pt" xmlns="http://www.w3.org/2000/svg"><path d="m2.800781.710938c-1.15625 0-2.089843.933593-2.089843 2.089843v5.265625c.195312.117188.449218.234375.765624.335938.339844.105468.738282.195312 1.179688.246094.445312.050781.929688.070312 1.441406.039062.511719-.035156 1.046875-.117188 1.589844-.265625.546875-.148437 1.097656-.367187 1.636719-.664063.542969-.296874 1.070312-.679687 1.574219-1.15625.503906-.480468.976562-1.058593 1.402343-1.75.371094-.597656.6875-1.324218.976563-2.101562-.03125-1.132812-.941406-2.039062-2.078125-2.039062zm0 0" fill="#ececec" fill-rule="evenodd"/><g fill="#c6c6c6"><path d="m2.386719 3.425781h3.992187c.097656 0 .175782.09375.175782.214844v3.148437c0 .121094-.078126.21875-.175782.21875h-3.992187c-.097657 0-.175781-.097656-.175781-.21875v-3.148437c0-.121094.078124-.214844.175781-.214844zm0 0"/><path d="m7.058594 3.425781v.199219h3.046875v-.199219zm0 0"/><path d="m7.058594 4.253906v.199219h3.046875v-.199219zm0 0"/><path d="m7.058594 5.082031v.199219h3.046875v-.199219zm0 0"/><path d="m7.058594 6.738281v.199219h3.046875v-.199219zm0 0"/><path d="m7.058594 5.910156v.203125h3.046875v-.203125zm0 0"/></g><path d="m3.097656 11.289062c-.082031-.285156-.136718-.578124-.28125-.847656-.230468-.429687-.539062-.839844-.902344-1.238281-.351562-.382813-.761718-.753906-1.203124-1.113281v1.109375c0 1.15625.933593 2.089843 2.089843 2.089843zm0 0" fill="#ececec" fill-rule="evenodd"/><path d="m11.277344 2.75c-.289063.777344-.605469 1.503906-.976563 2.101562-.425781.691407-.898437 1.269532-1.402343 1.75-.503907.476563-1.03125.859376-1.574219 1.15625-.539063.296876-1.089844.515626-1.636719.664063-.542969.148437-1.078125.230469-1.589844.265625-.511718.03125-.996094.011719-1.441406-.039062-.441406-.050782-.839844-.140626-1.179688-.246094-.316406-.101563-.570312-.21875-.765624-.335938v.023438c.441406.359375.851562.730468 1.203124 1.113281.363282.398437.671876.808594.902344 1.238281.144532.269532.199219.5625.28125.847656h6.101563c1.15625 0 2.089843-.933593 2.089843-2.089843v-6.398438c0-.015625-.011718-.03125-.011718-.050781zm0 0" fill="#bd0c1e" fill-rule="evenodd"/><g fill="#fff"><path d="m5.726562 8.722656v2.027344h.402344v-.753906h.242188c.21875 0 .394531-.050782.519531-.160156.125-.113282.183594-.277344.183594-.476563s-.058594-.363281-.183594-.476563c-.125-.109374-.300781-.160156-.519531-.160156zm.402344.359375h.242188c.101562 0 .171875.023438.21875.070313s.070312.109375.070312.207031-.023437.160156-.070312.207031c-.046875.042969-.117188.070313-.21875.070313h-.242188zm0 0"/><path d="m7.265625 8.722656v2.027344h.589844c.367187 0 .648437-.078125.839843-.246094.1875-.167968.277344-.433594.277344-.769531s-.089844-.597656-.277344-.765625-.472656-.246094-.839843-.246094zm.398437.359375h.230469c.242188 0 .40625.054688.507813.152344.101562.097656.15625.261719.15625.5 0 .242187-.054688.402344-.15625.5-.101563.101563-.265625.15625-.507813.15625h-.230469zm0 0"/><path d="m9.222656 8.722656v2.027344h.398438v-.894531h.738281v-.367188h-.738281v-.402343h.816406v-.363282zm0 0"/></g></svg>