<svg height="12pt" viewBox="0 0 12 12" width="12pt" xmlns="http://www.w3.org/2000/svg"><path d="m2.835938.71875h6.472656c1.164062 0 2.113281.949219 2.113281 2.117188v6.472656c0 1.164062-.949219 2.113281-2.113281 2.113281h-6.472656c-1.167969 0-2.117188-.949219-2.117188-2.113281v-6.472656c0-1.167969.949219-2.117188 2.117188-2.117188zm0 0" fill="#ccc" fill-rule="evenodd"/><path d="m6.625 2.65625c1.914062 0 1.914062 2.277344 1.914062 3.003906-.273437-.273437-1.898437-2.183594-1.898437-.726562 0 1.007812.003906 2.027344 0 3.035156v.070312c0 .007813-.003906.011719-.003906.023438-.003907.066406-.011719.136719-.027344.203125-.007813.039063-.011719.074219-.023437.109375-.003907.007812-.007813.015625-.007813.023438-.015625.050781-.03125.097656-.050781.144531-.015625.035156-.027344.070312-.046875.105469-.03125.058593-.0625.113281-.097657.164062-.015624.023438-.03125.046875-.050781.070312-.042969.058594-.089843.113282-.140625.164063-.015625.011719-.027344.023437-.042968.039063-.058594.054687-.121094.101562-.1875.148437-.007813.003906-.019532.007813-.027344.015625-.074219.046875-.152344.089844-.234375.121094 0 0-.003907.003906-.007813.003906-.089844.035156-.179687.0625-.273437.082031-.097657.019531-.195313.03125-.296875.03125-.09375 0-.191406-.011719-.285156-.03125-.015626 0-.027344-.003906-.039063-.007812-.085937-.019531-.171875-.046875-.25-.078125-.007813 0-.011719-.003906-.019531-.007813-.558594-.238281-.921875-.785156-.921875-1.394531 0-.835938.679687-1.519531 1.515625-1.519531.128906 0 .257812.019531.382812.050781v-3.296875c0-.546875.574219-.546875 1.121094-.546875zm0 0" fill="#3c8cf8"/></svg>