<svg height="12pt" viewBox="0 0 12 12" width="12pt" xmlns="http://www.w3.org/2000/svg"><path d="m2.800781.710938h6.398438c1.152343 0 2.089843.9375 2.089843 2.089843v6.398438c0 1.152343-.9375 2.089843-2.089843 2.089843h-6.398438c-1.152343 0-2.089843-.9375-2.089843-2.089843v-6.398438c0-1.152343.9375-2.089843 2.089843-2.089843zm0 0" fill="#3e50b4" fill-rule="evenodd"/><path d="m6 2.625c-.414062 0-.75.335938-.75.75s.335938.75.75.75.75-.335938.75-.75-.335938-.75-.75-.75zm-2.625 1.875v.375h1.875v4.5h.375v-2.25h.75v2.25h.375v-4.5h1.875v-.375zm0 0" fill="#fff"/></svg>