<svg height="12pt" viewBox="0 0 12 12" width="12pt" xmlns="http://www.w3.org/2000/svg" xmlns:xlink="http://www.w3.org/1999/xlink"><linearGradient id="a" gradientUnits="userSpaceOnUse" x1="6.206736" x2="6.056991" y1="1.194853" y2="6.801762"><stop offset="0" stop-color="#ffa001"/><stop offset="1" stop-color="#ff7f01" stop-opacity="0"/></linearGradient><linearGradient id="b" gradientUnits="userSpaceOnUse" x1="5.173009" x2="5.277184" y1="11.195869" y2="7.798219"><stop offset="0" stop-color="#f8b249"/><stop offset="1" stop-color="#f8b249" stop-opacity="0"/></linearGradient><g fill-rule="evenodd"><path d="m2.804688.710938h6.394531c1.15625 0 2.09375.9375 2.09375 2.089843v6.398438c0 1.152343-.9375 2.089843-2.09375 2.089843h-6.394531c-1.152344 0-2.089844-.9375-2.089844-2.089843v-6.398438c0-1.152343.9375-2.089843 2.089844-2.089843zm0 0" fill="#443919"/><path d="m2.804688.710938h6.394531c1.15625 0 2.09375.9375 2.09375 2.089843v6.398438c0 1.152343-.9375 2.089843-2.09375 2.089843h-6.394531c-1.152344 0-2.089844-.9375-2.089844-2.089843v-6.398438c0-1.152343.9375-2.089843 2.089844-2.089843zm0 0" fill="#ffdb60"/><path d="m2.804688.710938h6.394531c1.15625 0 2.09375.9375 2.09375 2.089843v6.398438c0 1.152343-.9375 2.089843-2.09375 2.089843h-6.394531c-1.152344 0-2.089844-.9375-2.089844-2.089843v-6.398438c0-1.152343.9375-2.089843 2.089844-2.089843zm0 0" fill="url(#a)"/></g><path d="m6.507812 3.203125c-.734374 0-1.328124.582031-1.328124 1.300781 0 .328125.125.640625.351562.882813-.125.1875-.191406.414062-.191406.644531 0 .621094.46875 1.125 1.042968 1.125.289063 0 .5625-.128906.761719-.355469.070313.042969.152344.066407.234375.066407.253906 0 .46875-.214844.507813-.507813.164062.074219.339843.113281.519531.113281.699219 0 1.265625-.566406 1.265625-1.265625s-.566406-1.269531-1.265625-1.269531c-.222656 0-.441406.0625-.632812.171875-.175782-.539063-.6875-.90625-1.265626-.90625zm0 0" fill="#716300"/><path d="m8 7.433594c-.011719-.039063-.078125-.261719-.078125-.261719-.175781-.34375-.417969-.585937-.679687-.804687-.949219.144531-1.035157.386718-1.183594.433593l-.082032-.03125c.230469-.261719.570313-.320312.871094-.457031l-.574218-.214844.015624-.085937.828126.265625c-.03125-.128906-.191407-.257813-.335938-.386719l.074219-.074219c.128906.125.261719.273438.378906.363282.210937.28125.425781.375.636719.558593l.015625-.378906c-.433594-.414063-.800781-.589844-1.136719-.621094l-.03125-.085937c.292969.074218.539062.070312.964844.359375-.121094-.160157-.226563-.355469-.300782-.613281l.085938-.015626c.097656.386719.25.523438.382812.722657.003907-.636719.117188-.996094.242188-1.324219l.097656.089844c-.421875.917968-.089844 1.871094.15625 2.375zm0 0" fill="#4d3a02"/><path d="m7.929688 11.28125 1.363281-2.796875-2.503907-.445313-2.53125-.390624.023438-.089844-1.175781-.007813 2.054687.476563-1.96875.203125-.140625.40625 1.589844.394531-3.535156.839844.683593.882812c.042969.003906.808594.519532.851563.519532zm0 0" fill="#fffba0" fill-rule="evenodd"/><path d="m7.929688 11.28125 1.363281-2.796875-2.503907-.445313-2.53125-.390624.023438-.089844-1.175781-.007813 2.054687.476563-1.96875.203125-.140625.40625 1.589844.394531-3.535156.839844.683593.882812c.042969.003906.800782.527344.84375.527344 1.324219.015625 3.53125 0 5.296876 0zm0 0" fill="url(#b)" fill-rule="evenodd"/><path d="m3.210938 7.640625 4.757812.082031-.011719-.375-1.335937-.0625-.199219-.171875-.199219.164063-.339844-.058594-.398437.222656-.765625-.296875-.164062.082031-.113282.09375-.414062.023438zm0 0" fill="#feb202"/><g fill-rule="evenodd"><path d="m3.402344 8.558594.390625.125s-.230469-.183594-.242188-.246094c-.011719-.058594.003907-.136719.097657-.203125.191406-.132813 1.816406-.078125 1.804687-.140625-.015625-.058594-2.253906-.511719-2.78125-.695312-.09375-.074219-.675781-.171876-1.070313-.214844-.191406-.070313-.660156-.222656-.890624-.210938v1.363282c.457031-.003907.875-.015626 1.535156.011718.386718.046875.769531.144532 1.15625.210938zm0 0" fill="#dcba44"/><path d="m1.105469 9.871094c1.359375-.320313 2.324219-.484375 3.722656-.785156-.042969-.082032-.125-.210938-.46875-.28125-.730469-.234376-1.378906-.355469-2.113281-.457032-.625-.03125-1.101563-.015625-1.535156-.011718.003906.441406-.027344.996093.042968 1.246093zm0 0" fill="#c2a525"/><path d="m2.675781 11.285156.167969-.175781c.09375-.078125.128906-.152344.125-.226563 0-.070312-.039062-.140624-.085938-.210937-.667968-.394531-1.324218-.726563-1.964843-1.019531-.0625-.027344-.101563-.042969-.164063-.070313.167969.9375.933594 1.671875 1.921875 1.703125zm0 0" fill="#3f3303"/></g><path d="m6.082031 8.046875c.617188.195313 1.257813.316406 1.957031.246094l.621094-.746094c-1.335937-.027344-2.117187.167969-2.578125.5zm0 0" fill="#dcba44"/><g fill-rule="evenodd"><path d="m11.292969 7.070312-.148438.0625c-.148437-.089843-.285156-.03125-.480469-.007812-.144531-.078125-.632812-.195312-.996093-.261719-.238281-.171875-.566407-.164062-.878907-.183593-.292968.140624-.796874.375-.875.511718l-.359374.355469c-.097657.179687-.089844.230469.019531.421875-.09375.066406-.246094.191406-.363281.324219-.117188.136719-.199219.28125-.167969.394531l.164062.148438c-.410156.339843-.609375.636718-.875 1.105468 0 0-.074219.074219-.039062.164063.023437.058593.1875.199219.234375.265625.070312.09375.027344.105468.066406.167968l.527344.746094h2.078125c1.160156 0 2.09375-.929687 2.09375-2.089844zm0 0" fill="#443919"/><path d="m9.820312 11.179688c-.582031-.285157-1.753906-1.015626-1.667968-.964844.09375.058594.429687 1.035156.429687 1.035156s-1.003906-1.128906-1.21875-1.332031c-.21875-.203125-.058593-.152344-.386719-.199219-.167968-.019531-.21875.023438-.25.097656-.027343.074219-.035156.171875-.105468.257813-.074219.085937-.074219.085937-.121094.070312-.007812 0-.050781 0-.0625-.003906.050781.066406.160156.171875.199219.226563.070312.09375.027343.105468.066406.167968l.492187.699219.046876.046875h2.066406c.183594 0 .34375-.058594.511718-.101562zm0 0" fill="#2c1c0d"/><path d="m7.164062 8.84375.019532.027344s.234375-.21875.429687-.296875c.191407-.074219.449219.015625.449219.015625s.035156-.058594.457031-.03125 1.488281.398437 1.488281.398437-.554687-.460937-1.03125-.679687c-.238281-.105469-.457031-.136719-.617187-.140625-.160156-.007813-.261719.015625-.261719.015625l-.957031.273437c-.035156.070313-.105469.144531-.089844.203125l.164063.148438c-.023438.019531-.027344.046875-.050782.066406zm0 0" fill="#2c1c0d"/></g><path d="m4.960938 11.195312c.152343.042969.300781.089844.464843.089844h3.097657l-1.828126-.875c-.363281.03125-.722656-.023437-1.082031.117188-.375.167968-.464843.296875-.652343.4375-.0625.105468-.035157.167968 0 .230468zm0 0" fill="#443919"/><path d="m7.164062.710938c-.007812.007812-.011718.011718-.019531.019531-.039062.039062-.074219.078125-.105469.121093-.035156.042969-.066406.085938-.097656.132813-.019531.03125-.039062.066406-.058594.097656-.023437.046875-.046874.097657-.070312.148438-.019531.050781-.039062.101562-.054688.152343-.015624.050782-.027343.105469-.039062.160157-.011719.050781-.019531.105469-.023438.160156-.003906.054687-.007812.109375-.007812.164063.003906.054687.007812.109374.011719.164062.007812.054688.015625.109375.027343.160156.003907.023438.007813.046875.015626.070313-.039063.023437-.078126.046875-.117188.070312-.039062.027344-.078125.054688-.113281.082031-.035157.03125-.070313.0625-.101563.09375-.035156.03125-.066406.066407-.097656.101563-.027344.035156-.054688.074219-.082031.113281-.027344.039063-.050781.078125-.074219.117188-.003906.007812-.007812.011718-.011719.019531-.023437.039063-.042969.082031-.058593.125-.019532.042969-.035157.085937-.050782.132813-.015625.042968-.027344.089843-.039062.132812-.007813.046875-.015625.089844-.023438.136719-.003906.046875-.007812.09375-.007812.140625-.003906.042968 0 .089844 0 .136718.003906.046876.007812.089844.015625.136719.007812.042969.019531.089844.03125.132813.011719.042968.023437.085937.042969.128906.015624.039062.03125.082031.050781.121094.019531.039062.042969.078125.066406.113281.023437.039063.050781.074219.078125.109375s.054688.066406.085938.097656.0625.058594.097656.085938c.035156.03125.070312.054687.105468.078125.027344.015625.050782.03125.078126.046875.039062.019531.078124.039062.117187.054687.042969.019531.082031.03125.125.042969.042969.015625.085937.023438.128906.03125s.085938.015625.128907.015625c.042968.003906.089843.003906.132812.003906.042969-.003906.089844-.007812.132812-.011719.042969-.007812.089844-.015624.132813-.027343.042969-.007813.085937-.023438.128906-.035157.007813-.003906.015625-.007812.023438-.011718.011719.019531.023437.039062.035156.058594.011719.015624.027344.03125.042969.046874.011718.019532.027344.03125.042968.046876.019532.015624.035157.027343.050782.039062s.03125.019531.046875.027344c.019531.011718.039062.019531.058593.027344.019532.007812.039063.015624.058594.019531.023438.007812.042969.011719.066406.015625.019532.003906.042969.003906.0625.003906h.066407c.023437 0 .046875-.003906.066406-.007812.023437-.003907.046875-.011719.066406-.015626.023438-.007812.046875-.015624.066407-.023437.023437-.007813.042968-.019531.066406-.03125.019531-.007813.039062-.019531.0625-.035156.019531-.011719.039062-.027344.058594-.042969.019531-.011719.035156-.03125.054687-.046875s.035156-.035156.050781-.050781c.019532-.019532.035156-.039063.046875-.058594.003907-.003906.003907-.007812.007813-.007812.03125.042968.066406.082031.101562.121093.035156.039063.074219.074219.113282.109375.039062.035156.082031.070313.125.097656.042968.03125.085937.0625.132812.085938.007812.007812.019531.011719.03125.019531.042969.023438.09375.046875.140625.070313.050781.019531.097656.035156.148437.050781.050782.015625.101563.03125.15625.039063.050782.011718.101563.019531.15625.023437.050782.007813.105469.007813.15625.007813.054688 0 .105469 0 .160157-.007813.050781-.003906.105469-.011719.15625-.023437.050781-.007813.101562-.023438.152343-.039063.050782-.015625.101563-.035156.148438-.054687.050781-.019532.097656-.042969.144531-.066407.046875-.027343.089844-.054687.132813-.085937.046875-.027344.085937-.058594.128906-.09375.039062-.035156.078125-.070313.113281-.109375.039063-.039063.074219-.078125.105469-.121094.015625-.015625.027344-.035156.042969-.058594v-1.902343c0-1.160157-.933594-2.09375-2.09375-2.09375zm0 0" fill="#514b01" fill-rule="evenodd"/><path d="m9.222656 7.152344c-.300781.472656-.128906-.5625-.128906-.5625.128906-.390625-.378906-1.546875-.410156-1.644532-.867188-.273437-.410156-.234374-.554688-.257812l-.054687-.0625c.234375.03125.441406.15625.671875.117188.027344-.121094-.054688-.296876-.125-.46875l.09375-.027344c.054687.15625.109375.335937.167968.464844.34375.765624.28125.558593.386719.804687-.035156-.695313.078125-1.101563.390625-1.625l.4375-.039063c-.808594.582032-.648437 2.707032-.5 3.285157zm0 0" fill="#4d3a02"/></svg>