<svg height="12pt" viewBox="0 0 12 12" width="12pt" xmlns="http://www.w3.org/2000/svg"><path d="m2.800781.710938h6.398438c1.152343 0 2.089843.9375 2.089843 2.089843v6.398438c0 1.152343-.9375 2.089843-2.089843 2.089843h-6.398438c-1.152343 0-2.089843-.9375-2.089843-2.089843v-6.398438c0-1.152343.9375-2.089843 2.089843-2.089843zm0 0" fill="#324090" fill-rule="evenodd"/><path d="m8.878906 6.863281v-1.726562c0-1.75-1.289062-3.167969-2.878906-3.167969s-2.878906 1.417969-2.878906 3.167969v1.726562c0 1.75 1.289062 3.167969 2.878906 3.167969s2.878906-1.417969 2.878906-3.167969zm0 0" fill="#324090"/><path d="m12.53125 12.541667 6.90625 6.916666-3.447917 3.260417v-13.4375l3.447917 3.260417-6.90625 6.145833" fill="none" stroke="#fff" stroke-linecap="square" stroke-width=".767554" transform="scale(.375)"/></svg>