<svg height="12pt" viewBox="0 0 12 12" width="12pt" xmlns="http://www.w3.org/2000/svg"><path d="m2.835938.71875h6.472656c1.164062 0 2.113281.949219 2.113281 2.117188v6.472656c0 1.164062-.949219 2.113281-2.113281 2.113281h-6.472656c-1.167969 0-2.117188-.949219-2.117188-2.113281v-6.472656c0-1.167969.949219-2.117188 2.117188-2.117188zm0 0" fill="#e75177" fill-rule="evenodd"/><path d="m6.070312 2.65625c-.386718 0-.773437.070312-1.136718.199219v4.355469c0 .207031-.171875.378906-.378906.378906-.210938 0-.378907-.171875-.378907-.378906v-3.976563c-.949219.632813-1.519531 1.699219-1.519531 2.835937 0 1.886719 1.527344 3.417969 3.414062 3.417969 1.886719 0 3.417969-1.53125 3.417969-3.417969 0-1.886718-1.53125-3.414062-3.417969-3.414062zm-.210937 1.898438c.027344 0 .054687.007812.082031.019531l1.160156.675781 1.164063.671875c.050781.03125.082031.089844.082031.148437 0 .0625-.03125.121094-.082031.148438l-1.164063.675781-1.160156.671875c-.054687.03125-.117187.027344-.164062-.003906-.054688-.027344-.085938-.085938-.085938-.144531v-2.695313c0-.042968.015625-.089844.050782-.117187.03125-.035157.074218-.050781.117187-.050781zm0 0" fill="#fff"/></svg>