<svg height="12pt" viewBox="0 0 12 12" width="12pt" xmlns="http://www.w3.org/2000/svg" xmlns:xlink="http://www.w3.org/1999/xlink"><linearGradient id="a"><stop offset="0" stop-color="#f9f9f9"/><stop offset="1" stop-color="#999"/></linearGradient><linearGradient id="b" gradientUnits="userSpaceOnUse" x1="6.355888" x2="5.354335" xlink:href="#a" y1="3.625527" y2="6.635508"/><linearGradient id="c"><stop offset="0" stop-color="#13a9ea"/><stop offset="1" stop-color="#372db5"/></linearGradient><linearGradient id="d" gradientUnits="userSpaceOnUse" x1="5.68084" x2="11.162228" xlink:href="#c" y1=".43962" y2="5.056359"/><linearGradient id="e" gradientUnits="userSpaceOnUse" x1="10.627189" x2="8.03738" xlink:href="#c" y1="4.366225" y2="3.274998"/><radialGradient id="f" cx="-176.58716" cy="-120.91499" gradientTransform="matrix(.838945 .0217013 -.020854 .80619 156.364399 109.628466)" gradientUnits="userSpaceOnUse" r="3.005466" xlink:href="#a"/><path d="m2.835938.71875h6.472656c1.164062 0 2.113281.949219 2.113281 2.117188v6.472656c0 1.164062-.949219 2.113281-2.113281 2.113281h-6.472656c-1.167969 0-2.117188-.949219-2.117188-2.113281v-6.472656c0-1.167969.949219-2.117188 2.117188-2.117188zm0 0" fill="#fecd38" fill-rule="evenodd"/><path d="m6.070312 1.894531 1.335938 2.839844 2.84375.335937-2.003906 2.171876.5 3.007812-2.675782-1.503906-2.671874 1.503906.5-3.007812-2.003907-2.171876 2.839844-.335937zm0 0" fill="#fff"/><g fill="#f9f9f9"><path d="m10.257812 5.109375-.101562.84375-.046875-.902344zm0 0"/><path d="m10.367188 4.84375-.101563.84375-.046875-.90625zm0 0"/><path d="m10.453125 4.863281-.101563.609375-.042968-.652344zm0 0"/></g><path d="m5.570312.175781c-2.117187-.582031-2.261718 1.226563-1.738281 2.085938 1.660157 2.644531 2.578125 2.492187 3.566407 2.992187.648437.785156 1.308593 1.292969 2.453124 1.558594 4.4375.589844 1.230469-3.195312.347657-3.28125-1.921875 0-2.863281-2.324219-4.628907-3.355469zm0 0" fill="url(#b)"/><path d="m5.570312.175781c1.425782.101563 2.128907-.238281 3.386719-.160156 1.640625.105469 3.152344.78125 2.972657 2.492187-.128907.976563-.136719.855469.074218 1.632813.199219.582031-.097656 1.605469-.1875 1.765625-1.03125 1.882812-.582031 1.882812-1.007812 2.9375l-.34375-.15625-.949219-4.3125c-2.722656-.347656-4.082031-3.832031-3.945313-4.199219" fill="url(#d)"/><path d="m8.144531 3.945312c.140625.105469.589844-1.9375.445313-2.144531.523437.925781.730468 1.75.925781 2.574219-.488281-.109375-.867187-.210938-1.371094-.429688zm0 0" fill="url(#e)"/><path d="m11.824219 8.960938c0 .632812-.511719 1.140624-1.140625 1.140624s-1.136719-.507812-1.136719-1.140624c0-.628907.507813-1.140626 1.136719-1.140626s1.140625.511719 1.140625 1.140626zm0 0" fill="url(#f)"/></svg>