<svg height="12pt" viewBox="0 0 12 12" width="12pt" xmlns="http://www.w3.org/2000/svg"><path d="m2.835938.71875h6.472656c1.164062 0 2.113281.949219 2.113281 2.117188v6.472656c0 1.164062-.949219 2.113281-2.113281 2.113281h-6.472656c-1.167969 0-2.117188-.949219-2.117188-2.113281v-6.472656c0-1.167969.949219-2.117188 2.117188-2.117188zm0 0" fill="#5f7c8a" fill-rule="evenodd"/><g fill="#fff"><path d="m4.375 2.550781c-.023438-.007812-.054688-.007812-.074219.003907l-.8125.394531c-.046875.023437-.074219.082031-.058593.128906l.121093.480469c-.058593.066406-.113281.132812-.167969.207031-.046874.078125-.09375.15625-.128906.234375l-.496094.058594c-.046874.007812-.09375.050781-.097656.105468l-.066406.898438c-.003906.050781.03125.101562.082031.113281l.472657.132813c.054687.175781.136718.339844.238281.488281l-.191407.453125c-.019531.046875-.003906.109375.039063.136719l.742187.507812c.042969.027344.105469.023438.140626-.015625l.351562-.34375c.175781.042969.359375.054688.539062.042969l.300782.390625c.027344.042969.089844.058594.136718.039062l.808594-.390624c.050782-.023438.074219-.082032.058594-.132813l-.121094-.480469c.0625-.0625.117188-.132812.167969-.207031.050781-.078125.09375-.15625.132813-.234375l.492187-.058594c.050781-.007812.09375-.050781.101563-.101562l.066406-.898438c0-.054687-.035156-.105468-.082032-.117187l-.476562-.132813c-.054688-.171875-.132812-.335937-.234375-.488281l.191406-.449219c.019531-.050781.003907-.109375-.039062-.140625l-.746094-.503906c0-.003906-.003906-.007813-.007813-.007813-.039062-.023437-.097656-.011718-.128906.019532l-.351562.34375c-.179688-.042969-.363282-.054688-.542969-.042969l-.296875-.390625c-.015625-.019531-.039062-.035156-.0625-.042969zm.503906 1.265625c.183594.003906.371094.054688.535156.167969.441407.300781.554688.902344.253907 1.34375-.300781.4375-.898438.550781-1.335938.25-.441406-.300781-.558593-.898437-.253906-1.339844.183594-.273437.488281-.421875.800781-.421875zm0 0"/><path d="m8.015625 5.328125c-.035156-.003906-.070313.019531-.082031.050781l-.132813.347656c-.132812.027344-.261719.074219-.382812.136719l-.324219-.175781c-.03125-.015625-.078125-.007812-.105469.019531l-.425781.523438c-.023438.027343-.023438.074219 0 .105469l.234375.289062c-.023437.058594-.039063.128906-.050781.195312-.011719.066407-.015625.128907-.015625.195313l-.316407.195313c-.03125.019531-.050781.066406-.035156.101562l.234375.632812c.011719.035157.054688.058594.089844.050782l.367187-.054688c.089844.101563.195313.1875.3125.257813l.011719.367187c0 .039063.03125.070313.070313.082032l.660156.109374c.039062.007813.078125-.015624.09375-.050781l.128906-.34375c.132813-.027343.261719-.078125.382813-.144531l.324219.175781c.03125.019531.082031.007813.105468-.019531l.425782-.519531c.027343-.027344.027343-.078125 0-.105469l-.234376-.289062c.023438-.0625.039063-.125.050782-.191407.011718-.066406.015625-.136719.015625-.203125l.316406-.195312c.035156-.019532.050781-.0625.035156-.097656l-.234375-.632813c-.011718-.035156-.054687-.058594-.089844-.050781l-.367187.058594c-.089844-.101563-.195313-.191407-.3125-.261719l-.011719-.363281c0-.039063-.027344-.078126-.066406-.085938l-.664062-.109375s-.003907 0-.007813 0zm .035156.996094c.046875-.003907.09375 0 .144531.007812.394532.066407.65625.4375.589844.832031-.066406.390626-.4375.65625-.832031.589844-.390625-.066406-.65625-.4375-.589844-.832031.058594-.34375.351563-.589844.6875-.597656zm0 0"/><path d="m4.710938 7.128906c-.019532-.003906-.046876.015625-.058594.035156l-.085938.238282c-.09375.019531-.183594.054687-.265625.097656l-.222656-.121094c-.023437-.011718-.054687-.007812-.074219.015625l-.296875.355469c-.015625.023438-.015625.054688 0 .074219l.164063.199219c-.015625.042968-.027344.085937-.035156.136718-.003907.042969-.011719.089844-.011719.136719l-.214844.132813c-.023437.011718-.035156.042968-.027344.070312l.164063.4375c.007812.023438.035156.039062.0625.035156l.25-.042968c.0625.070312.136718.132812.21875.179687l.003906.253906c0 .027344.023438.054688.050781.054688l.457031.078125c.027344.003906.054688-.007813.0625-.035156l.089844-.238282c.09375-.019531.183594-.050781.265625-.097656l.222657.121094c.023437.015625.054687.007812.074218-.011719l.296875-.359375c.015625-.023438.015625-.050781-.003906-.074219l-.160156-.199219c.011719-.042968.023437-.085937.03125-.132812.011719-.046875.011719-.09375.015625-.136719l.21875-.136719c.019531-.015624.03125-.042968.023437-.066406l-.160156-.4375c-.011719-.027344-.039063-.039062-.066406-.039062l-.25.039062c-.0625-.066406-.136719-.128906-.21875-.175781l-.003907-.253906c-.003906-.027344-.023437-.050781-.050781-.054688l-.457031-.078125s-.003906 0-.007812 0zm .027343.6875c.03125 0 .066407 0 .101563.003906.269531.046876.449218.304688.40625.574219-.046875.273438-.304688.457031-.574219.410157-.273437-.046876-.457031-.304688-.410156-.574219.039062-.238281.246093-.40625.476562-.414063zm0 0"/></g></svg>