<svg height="17pt" viewBox="0 0 17 17" width="17pt" xmlns="http://www.w3.org/2000/svg"><path d="m3.96875 1.007812h9.0625c1.632812 0 2.960938 1.328126 2.960938 2.960938v9.0625c0 1.632812-1.328126 2.960938-2.960938 2.960938h-9.0625c-1.632812 0-2.960938-1.328126-2.960938-2.960938v-9.0625c0-1.632812 1.328126-2.960938 2.960938-2.960938zm0 0" fill="#3c8cf8" fill-rule="evenodd"/><path d="m9.324219 3.359375c-.824219 0-1.648438 0-1.648438.824219v5.023437c-.199219-.058593-.40625-.089843-.613281-.089843-1.25 0-2.261719 1.011718-2.261719 2.261718s1.011719 2.261719 2.261719 2.261719c1.214844 0 2.214844-.964844 2.261719-2.179687.007812-1.550782 0-3.117188 0-4.675782 0-2.191406 2.464843.6875 2.875 1.097656 0-1.097656 0-4.523437-2.875-4.523437zm0 0" fill="#fff"/></svg>