<svg height="12pt" viewBox="0 0 12 12" width="12pt" xmlns="http://www.w3.org/2000/svg"><path d="m2.800781.710938h6.398438c1.152343 0 2.089843.9375 2.089843 2.089843v6.398438c0 1.152343-.9375 2.089843-2.089843 2.089843h-6.398438c-1.152343 0-2.089843-.9375-2.089843-2.089843v-6.398438c0-1.152343.9375-2.089843 2.089843-2.089843zm0 0" fill="#248afd" fill-rule="evenodd"/><path d="m6 2.058594c-2.171875 0-3.941406 1.769531-3.941406 3.941406s1.769531 3.941406 3.941406 3.941406 3.941406-1.769531 3.941406-3.941406-1.769531-3.941406-3.941406-3.941406zm0 .304687c.945312 0 1.84375.425781 2.488281 1.019531-.015625 0-.03125-.003906-.046875-.003906-.355468 0-.808594.34375-.808594.679688.007813.957031.808594 1.21875.824219 1.757812 0 .3125-.121093.671875-.277343 1.175782l-.363282 1.210937-1.316406-3.84375c.21875-.011719.351562-.035156.351562-.035156.195313-.023438.171876-.308594-.023437-.296875 0 0-.523437.042968-.902344.042968-.359375 0-1.089843-.042968-1.089843-.042968-.195313-.011719-.21875.285156-.023438.296875 0 0 .316406.023437.511719.035156l.566406 1.488281-.792969 2.386719-1.328125-3.875c.222657-.011719.449219-.035156.449219-.035156.199219-.023438.175781-.308594-.023438-.296875 0 0-.621093.042968-1 .042968-.070312 0-.183593 0-.265624-.003906.648437-.984375 1.800781-1.703125 3.070312-1.703125zm3.191406 1.890625c.285156.519532.445313 1.113282.445313 1.746094 0 1.34375-.726563 2.511719-1.808594 3.144531l1.113281-3.210937c.207032-.519532.273438-.9375.273438-1.304688 0-.132812-.007813-.257812-.023438-.375zm-6.515625.265625 1.738281 4.753907c-1.214843-.589844-2.050781-1.832032-2.050781-3.273438 0-.527344.113281-1.027344.3125-1.480469zm3.386719 1.796875 1.121094 3.066406c.007812.015626.015625.03125.023437.046876-.378906.132812-.785156.207031-1.207031.207031-.355469 0-.703125-.050781-1.027344-.148438zm0 0" fill="#fff"/></svg>