<svg height="12pt" viewBox="0 0 12 12" width="12pt" xmlns="http://www.w3.org/2000/svg"><path d="m2.800781.710938h6.398438c1.152343 0 2.089843.9375 2.089843 2.089843v6.398438c0 1.152343-.9375 2.089843-2.089843 2.089843h-6.398438c-1.152343 0-2.089843-.9375-2.089843-2.089843v-6.398438c0-1.152343.9375-2.089843 2.089843-2.089843zm0 0" fill="#f2f2f2" fill-rule="evenodd"/><path d="m10.160156 7.109375-1.527344 2.496094h-5.265624l1.386718-2.496094zm0 0" fill="#4e8dcc"/><path d="m4.753906 2.394531h2.769532l2.636718 4.714844h-2.773437zm0 0" fill="#fcc345"/><path d="m4.753906 2.394531-2.914062 4.714844 1.527344 2.496094 2.75-4.769531zm0 0" fill="#6cbf48"/></svg>