<svg height="12pt" viewBox="0 0 12 12" width="12pt" xmlns="http://www.w3.org/2000/svg"><path d="m2.835938.71875h6.472656c1.164062 0 2.113281.949219 2.113281 2.117188v6.472656c0 1.164062-.949219 2.113281-2.113281 2.113281h-6.472656c-1.167969 0-2.117188-.949219-2.117188-2.113281v-6.472656c0-1.167969.949219-2.117188 2.117188-2.117188zm0 0" fill="#feb625" fill-rule="evenodd"/><path d="m8.726562 8.960938c-.613281.328124-1.289062.523437-1.925781.527343-1.042969 0-1.863281-.308593-2.472656-.917969-.609375-.617187-.914063-1.445312-.914063-2.496093s.304688-1.886719.914063-2.496094c.609375-.613281 1.429687-.921875 2.472656-.921875.695313.007812 1.363281.21875 1.925781.523438v1.40625c-.550781-.335938-1.203124-.539063-1.796874-.546876-.578126 0-1.15625.195313-1.484376.585938-.332031.386719-.496093.765625-.496093 1.449219 0 .679687.164062 1.058593.496093 1.445312.328126.386719.90625.582031 1.484376.582031.640624-.035156 1.335937-.214843 1.796874-.542968zm0 0" fill="#424242"/></svg>