<svg height="12pt" viewBox="0 0 12 12" width="12pt" xmlns="http://www.w3.org/2000/svg"><path d="m2.800781.710938h6.398438c1.152343 0 2.089843.9375 2.089843 2.089843v6.398438c0 1.152343-.9375 2.089843-2.089843 2.089843h-6.398438c-1.152343 0-2.089843-.9375-2.089843-2.089843v-6.398438c0-1.152343.9375-2.089843 2.089843-2.089843zm0 0" fill="#4d4d4d" fill-rule="evenodd"/><path d="m6.003906 2.273438c-.257812-.011719-.5.109374-.628906.3125l-3.21875 5.074218c-.125.492188.246094.859375.804688 1.125 1.042968.503906 2.734374.664063 3.011718.667969.457032.007813 1.839844-.199219 2.828125-.59375.75-.296875 1.273438-.703125.984375-1.199219l-3.214844-5.074218c-.117187-.1875-.332031-.304688-.566406-.3125zm0 0" fill="#8e8e8e"/><path d="m6.003906 2.269531c-.257812-.007812-.5.113281-.628906.316407l-.480469.753906v5.605468c0 .585938.632813.785157 1.105469.785157s1.105469-.199219 1.105469-.785157v-5.515624l-.535157-.84375c-.117187-.1875-.332031-.304688-.566406-.316407zm0 0" fill="#686868"/><path d="m3.652344 4.757812c.226562 0 .414062.261719.414062.585938v3.523438c0 .324218-.1875.585937-.414062.585937-.230469 0-.414063-.261719-.414063-.585937v-3.523438c0-.324219.183594-.585938.414063-.585938zm0 0" fill="#afafb1"/><path d="m6.828125 7.382812c0-.535156-.371094-.96875-.828125-.96875s-.828125.433594-.828125.96875c0 .53125.371094.964844.828125.964844s.828125-.433594.828125-.964844zm0 0" fill="#64b0ff"/><path d="m8.347656 4.757812c.230469 0 .414063.261719.414063.585938v3.523438c0 .324218-.183594.585937-.414063.585937-.226562 0-.414062-.261719-.414062-.585937v-3.523438c0-.324219.1875-.585938.414062-.585938zm0 0" fill="#afafb1"/></svg>