<svg height="12pt" viewBox="0 0 12 12" width="12pt" xmlns="http://www.w3.org/2000/svg"><path d="m11.449219 2.59375c-.027344-.199219-.042969-.402344-.121094-.582031-.109375-.253907-.265625-.480469-.457031-.671875-.195313-.191406-.425782-.347656-.683594-.453125-.257812-.109375-.539062-.167969-.835938-.167969h-6.5625c-.292968 0-.578124.058594-.832031.167969-.257812.105469-.488281.261719-.683593.453125-.195313.191406-.351563.417968-.457032.671875-.109375.253906-.167968.53125-.167968.824219v1.015624l2.128906 3.644532.0625.117187.015625.007813.132812.234375 1.238281.980469.34375-.148438.394532.246094c-.046875-.082032-.09375-.207032-.140625-.351563l2.316406-.976562-2.394531-4.089844c.21875-.5.601562-.847656 1.273437-.921875zm0 0" fill="#608ab5"/><path d="m7.019531 11.421875h2.359375c.292969 0 .574219-.058594.828125-.164063.253907-.109374.480469-.261718.671875-.453124.191406-.191407.347656-.417969.453125-.671876.105469-.253906.164063-.53125.164063-.824218v-6.472656c0-.085938-.039063-.160157-.046875-.242188h-5.347657c-.007812 0 1.105469.496094 1.574219.765625 1.199219.691406 1.324219 3.164063 1.324219 4.164063l.203125.117187-.203125.355469v.015625l-.078125.117187zm0 0" fill="#cddff0"/><path d="m .648438 3.078125v6.230469c0 .292968.058593.570312.167968.824218.105469.253907.261719.480469.449219.671876.195313.191406.417969.34375.671875.453124.253906.105469.535156.164063.828125.164063h4.253906l2.332031-3.875c-.265624.429687-1.363281.980469-1.835937 1.25-1.5.867187-3.40625.308594-4.273437-1.195313zm0 0" fill="#85b4df"/><path d="m9.574219 6.070312c0-1.921874-1.558594-3.476562-3.480469-3.476562-1.917969 0-3.480469 1.554688-3.480469 3.476562 0 1.921876 1.5625 3.480469 3.480469 3.480469 1.921875 0 3.480469-1.558593 3.480469-3.480469zm0 0" fill="#fff"/><path d="m8.578125 6.070312c0-1.371093-1.113281-2.484374-2.484375-2.484374s-2.484375 1.113281-2.484375 2.484374c0 1.375 1.113281 2.488282 2.484375 2.488282s2.484375-1.113282 2.484375-2.488282zm0 0" fill="#779fd3"/></svg>