<svg height="12pt" viewBox="0 0 12 12" width="12pt" xmlns="http://www.w3.org/2000/svg"><path d="m2.835938.71875h6.472656c1.164062 0 2.113281.949219 2.113281 2.117188v6.472656c0 1.164062-.949219 2.113281-2.113281 2.113281h-6.472656c-1.167969 0-2.117188-.949219-2.117188-2.113281v-6.472656c0-1.167969.949219-2.117188 2.117188-2.117188zm0 0" fill="#c2352a" fill-rule="evenodd"/><path d="m7.523438 2.460938c-.085938.003906-.175782.03125-.25.074218l-4.488282 2.515625-2.066406-.972656v1.257813l1.84375.867187c.167969.078125.363281.070313.523438-.015625l4.742187-2.65625c.222656-.125.339844-.382812.285156-.628906-.058593-.25-.273437-.429688-.53125-.441406-.019531-.003907-.039062-.003907-.054687 0zm0 1.898437c-.085938 0-.175782.03125-.25.074219l-4.488282 2.515625-2.066406-.976563v1.257813l1.84375.871093c.167969.078126.363281.070313.523438-.019531l4.742187-2.65625c.226563-.121093.339844-.378906.285156-.625-.058593-.253906-.273437-.429687-.53125-.441406-.019531-.003906-.039062-.003906-.054687 0zm0 1.894531c-.085938.003906-.175782.03125-.25.078125l-4.488282 2.511719-2.066406-.972656v1.257812l1.84375.867188c.167969.078125.363281.074218.523438-.015625l4.742187-2.65625c.226563-.121094.339844-.378907.285156-.628907-.058593-.25-.273437-.429687-.53125-.441406-.019531 0-.039062 0-.054687 0zm0 0" fill="#fff" fill-rule="evenodd"/></svg>