<svg height="12pt" viewBox="0 0 12 12" width="12pt" xmlns="http://www.w3.org/2000/svg"><g fill-rule="evenodd"><g fill="#ccc"><path d="m2.835938.71875h6.472656c1.164062 0 2.113281.949219 2.113281 2.117188v6.472656c0 1.164062-.949219 2.113281-2.113281 2.113281h-6.472656c-1.167969 0-2.117188-.949219-2.117188-2.113281v-6.472656c0-1.167969.949219-2.117188 2.117188-2.117188zm0 0"/><path d="m2.632812 11.382812c-.121093-.027343-.242187-.058593-.363281-.09375-.117187-.035156-.238281-.082031-.355469-.132812-.058593-.023438-.113281-.050781-.171874-.078125.265624.164063.5625.273437.890624.304687zm0 0"/><path d="m2.894531 11.421875c-.078125-.011719-.164062-.019531-.242187-.035156.0625.003906.117187.035156.183594.035156zm0 0"/><path d="m4.9375 4.140625c-.011719.121094-.019531.242187-.019531.367187 0 .085938.003906.179688.011719.269532.007812.128906.023437.253906.046874.378906.019532.125.046876.25.082032.375.035156.121094.074218.242188.121094.359375.046874.121094.097656.238281.15625.351563.058593.109374.121093.222656.1875.328124.070312.109376.144531.210938.222656.3125.078125.097657.164062.195313.253906.285157.089844.09375.183594.179687.28125.261719.097656.082031.199219.160156.304688.230468.101562.074219.210937.136719.324218.199219.097656.054687.195313.101563.292969.144531.015625-.121094.019531-.246094.019531-.367187 0-.089844 0-.179688-.007812-.269531-.011719-.125-.023438-.253907-.046875-.378907-.023438-.128906-.050781-.25-.082031-.371093-.035157-.125-.078126-.246094-.121094-.363282-.046875-.121094-.097656-.234375-.15625-.351562-.058594-.113282-.125-.222656-.191406-.332032-.070313-.105468-.144532-.210937-.222657-.308593-.078125-.101563-.160156-.195313-.25-.285157-.089843-.09375-.183593-.179687-.28125-.265624-.097656-.078126-.199219-.15625-.304687-.226563-.105469-.074219-.210938-.140625-.324219-.203125-.097656-.050781-.195313-.097656-.296875-.140625zm0 0"/><path d="m3.441406 3.816406c-.011718 0-.027344 0-.039062-.003906-.089844 0-.183594.003906-.273438.011719-.125.007812-.253906.027343-.378906.046875-.125.019531-.246094.050781-.371094.082031-.121094.035156-.246094.074219-.363281.121094s-.234375.101562-.347656.15625c-.113281.058593-.226563.121093-.332031.1875-.109376.070312-.210938.148437-.3125.226562-.097657.078125-.195313.164063-.285157.25-.007812.007813-.011719.011719-.019531.019531v4.394532c0 .761718.421875 1.394531 1.023438 1.769531.058593.027344.113281.054687.171874.078125.117188.050781.238282.097656.355469.132812.121094.035157.242188.066407.363281.09375.007813 0 .011719 0 .019532.003907.078125.015625.164062.023437.242187.035156h1.007813c.046875-.003906.097656-.011719.148437-.019531.125-.019532.25-.046875.375-.082032.121094-.035156.242188-.074218.359375-.121093.121094-.046875.238282-.097657.351563-.15625.113281-.058594.222656-.121094.328125-.1875.109375-.070313.214844-.144531.3125-.226563.097656-.078125.195312-.160156.289062-.25.089844-.089844.175782-.179687.257813-.277344.082031-.097656.160156-.203124.234375-.304687.066406-.105469.136718-.210937.195312-.324219-.148437-.058594-.292968-.125-.441406-.199218-.15625-.078126-.3125-.167969-.460938-.265626-.152343-.097656-.296874-.199218-.4375-.3125-.136718-.105468-.273437-.226562-.398437-.351562-.128906-.125-.253906-.253906-.367187-.390625-.113282-.136719-.222657-.277344-.324219-.425781-.101563-.148438-.195313-.296875-.277344-.457032-.085937-.15625-.164063-.316406-.234375-.480468-.070312-.164063-.132812-.332032-.183594-.5-.050781-.171875-.097656-.34375-.132812-.519532-.035156-.175781-.0625-.351562-.078125-.53125-.019531-.175781-.027344-.355468-.027344-.53125 0-.128906.003906-.253906.011719-.382812.011718-.101562.023437-.203125.039062-.308594zm0 0"/></g><path d="m3.441406 3.816406c-.015625.105469-.027344.207032-.039062.308594-.007813.128906-.011719.253906-.011719.382812 0 .175782.007813.355469.027344.53125.015625.179688.042969.355469.078125.53125.035156.175782.082031.347657.132812.519532.050782.167968.113282.335937.183594.5.070312.164062.148438.324218.234375.480468.082031.160157.175781.308594.277344.457032.101562.148437.210937.289062.324219.425781.113281.136719.238281.265625.367187.390625.125.125.261719.246094.398437.351562.140626.113282.285157.214844.4375.3125.148438.097657.304688.1875.460938.265626.148438.074218.292969.140624.441406.199218v-.003906c.0625-.109375.117188-.226562.167969-.34375s.09375-.234375.132813-.359375c.035156-.121094.070312-.246094.09375-.367187 0-.003907 0-.003907 0-.003907.023437-.121093.042968-.25.054687-.375 0-.007812 0-.011719 0-.015625-.097656-.042968-.195313-.089844-.292969-.144531-.113281-.0625-.222656-.125-.324218-.199219-.105469-.070312-.207032-.148437-.304688-.230468-.097656-.082032-.191406-.167969-.28125-.261719-.089844-.089844-.175781-.1875-.253906-.285157-.078125-.101562-.152344-.203124-.222656-.3125-.066407-.105468-.128907-.21875-.1875-.328124-.058594-.113282-.109376-.230469-.15625-.351563-.046876-.117187-.085938-.238281-.121094-.359375-.035156-.125-.0625-.25-.082032-.375-.023437-.125-.039062-.25-.046874-.378906-.007813-.089844-.011719-.183594-.011719-.269532 0-.125.007812-.246093.019531-.367187-.015625-.007813-.03125-.015625-.046875-.023437h-.003906c-.117188-.050782-.234375-.09375-.355469-.128907-.121094-.039062-.246094-.070312-.371094-.097656s-.25-.042969-.375-.058594c-.117187-.007812-.230468-.015625-.34375-.015625zm0 0" fill="#7bc450"/><path d="m7.179688 11.421875c.019531-.019531.042968-.039063.0625-.058594.121093-.125.242187-.261719.351562-.402343.109375-.136719.214844-.28125.3125-.433594.097656-.148438.183594-.304688.265625-.464844.078125-.15625.152344-.320312.21875-.488281.0625-.164063.121094-.332031.167969-.507813.046875-.167968.085937-.34375.117187-.519531s.050781-.351563.0625-.53125c.007813-.125.015625-.253906.015625-.378906 0-.179688-.007812-.355469-.027344-.53125-.019531-.179688-.042968-.355469-.078124-.53125-.039063-.175781-.082032-.347657-.132813-.519531-.054687-.171876-.113281-.335938-.183594-.503907-.070312-.164062-.148437-.320312-.234375-.476562-.085937-.160157-.179687-.3125-.28125-.460938-.097656-.144531-.207031-.289062-.320312-.421875-.117188-.136718-.238282-.269531-.367188-.394531-.128906-.121094-.261718-.242187-.402344-.351563-.140624-.109374-.285156-.214843-.433593-.3125-.148438-.09375-.304688-.183593-.464844-.265624-.160156-.078126-.320313-.152344-.488281-.21875-.167969-.066407-.335938-.121094-.507813-.167969s-.34375-.085938-.519531-.117188-.355469-.054687-.53125-.0625c-.125-.011719-.253906-.015625-.378906-.015625-.179688 0-.359375.007813-.535156.027344-.175782.015625-.351563.046875-.527344.078125-.175782.035156-.351563.082031-.519532.132813-.171874.054687-.339843.117187-.503906.1875-.164062.066406-.324218.144531-.480468.230468-.039063.023438-.078126.046875-.117188.070313v1.902343c.007812-.007812.011719-.011718.019531-.019531.089844-.085937.1875-.171875.285157-.25.101562-.078125.203124-.15625.3125-.226562.105468-.066407.21875-.128907.332031-.1875.113281-.054688.230469-.109375.347656-.15625s.242187-.085938.363281-.121094c.125-.03125.246094-.0625.371094-.082031.125-.019532.253906-.039063.378906-.046875.089844-.007813.183594-.011719.273438-.011719.128906 0 .253906.007812.382812.019531.125.015625.25.03125.375.058594s.25.058594.371094.097656c.121094.035157.238281.078125.355469.128907h.003906c.117187.046874.230469.105468.34375.164062.113281.0625.21875.128906.324219.199219.105468.074219.207031.152343.304687.230469.097657.085937.191407.171874.28125.265624.089844.089844.171875.183594.25.285157.078125.097656.152344.203125.222657.308593.066406.109376.132812.21875.191406.332032.058594.117187.109375.230468.15625.351562.042968.117188.085937.238282.121094.363282.03125.121093.058593.242187.082031.371093.023437.125.035156.253907.046875.378907.007812.089843.007812.179687.007812.269531 0 .128906-.003906.253906-.019531.382812-.011719.125-.03125.253907-.054687.375v.003907c-.023438.121093-.058594.246093-.09375.367187-.039063.125-.082032.242187-.132813.359375s-.105469.234375-.167969.34375c-.058594.113281-.128906.222656-.195312.328125-.074219.101563-.152344.207031-.234375.304687-.082031.097657-.167969.1875-.257813.277344-.09375.089844-.191406.171875-.289062.25-.097656.082032-.203125.15625-.3125.226563-.105469.066406-.214844.128906-.328125.1875-.113281.058593-.230469.109375-.351563.15625-.117187.046875-.238281.085937-.359375.121093-.125.035157-.25.0625-.375.082032-.050781.007812-.101562.015625-.148437.019531zm0 0" fill="#318bcf"/><g fill="#ccc"><path d="m9.789062.816406c.039063.007813.074219.019532.109376.027344.125.039062.242187.082031.359374.132812.011719.003907.019532.007813.03125.015626-.15625-.085938-.324218-.132813-.5-.175782zm0 0"/><path d="m8.703125 8.316406c.023437 0 .042969.003906.066406.003906.089844 0 .179688-.003906.269531-.011718.128907-.007813.253907-.023438.378907-.042969.128906-.023437.253906-.050781.375-.085937.125-.03125.242187-.074219.363281-.117188.117188-.050781.234375-.097656.347656-.15625.113282-.058594.222656-.125.332032-.191406.105468-.070313.210937-.144532.3125-.222656.09375-.074219.183593-.15625.273437-.242188v-4.414062c0-.8125-.46875-1.492188-1.132813-1.84375-.011718-.007813-.019531-.011719-.03125-.015626-.117187-.050781-.234374-.09375-.359374-.132812-.035157-.007812-.070313-.019531-.109376-.027344-.15625-.039062-.3125-.097656-.480468-.097656h-1.101563c-.027343.003906-.058593.007812-.085937.011719-.128906.023437-.25.050781-.371094.085937-.125.03125-.246094.070313-.363281.117188-.121094.046875-.238281.097656-.351563.15625-.113281.058594-.222656.121094-.332031.191406-.105469.070312-.210937.140625-.308594.222656-.101562.078125-.199219.160156-.285156.25 0 0 0 0-.003906 0-.089844.089844-.175781.183594-.261719.28125-.078125.097656-.15625.199219-.230469.304688-.070312.105468-.136719.214844-.199219.324218 0 .007813-.003906.011719-.003906.015626.140625.058593.28125.117187.417969.1875.160156.082031.316406.171874.464844.265624.148437.097657.292969.203126.433593.3125.140626.109376.273438.230469.402344.351563.128906.125.25.257813.367188.394531.113281.132813.222656.277344.320312.421875.101563.148438.195313.300781.28125.460938.085938.15625.164063.3125.234375.476562.070313.167969.128907.332031.183594.503907.050781.171874.09375.34375.132813.519531.035156.175781.058593.351562.078124.53125.019532.175781.027344.351562.027344.53125 0 .125-.007812.253906-.015625.378906-.007812.101563-.019531.203125-.035156.300781zm0 0"/><path d="m8.277344 9.820312c-.03125.085938-.070313.164063-.105469.242188-.082031.160156-.167969.316406-.265625.464844-.097656.152344-.203125.296875-.3125.433594-.109375.140624-.230469.277343-.351562.402343-.019532.019531-.042969.039063-.0625.058594h2.128906c1.171875 0 2.113281-.941406 2.113281-2.113281v-.167969c-.027344.015625-.058594.035156-.085937.054687-.15625.085938-.316407.164063-.480469.230469-.167969.070313-.332031.128907-.503907.183594-.171874.054687-.34375.097656-.519531.132813-.175781.035156-.351562.0625-.527343.078124-.179688.019532-.355469.027344-.535157.027344-.125 0-.25-.003906-.378906-.011718-.035156-.003907-.074219-.007813-.113281-.015626zm0 0"/></g><path d="m8.277344 9.820312c.039062.007813.078125.011719.113281.015626.128906.007812.253906.011718.378906.011718.179688 0 .355469-.007812.535157-.027344.175781-.015624.351562-.042968.527343-.078124.175781-.035157.347657-.078126.519531-.132813.171876-.054687.335938-.113281.503907-.183594.164062-.066406.324219-.144531.480469-.230469.027343-.019531.058593-.039062.085937-.054687v-1.890625c-.089844.085938-.179687.167969-.273437.242188-.101563.078124-.207032.152343-.3125.222656-.109376.066406-.21875.132812-.332032.191406-.113281.058594-.230468.105469-.347656.15625-.121094.042969-.238281.085938-.363281.117188-.121094.035156-.246094.0625-.375.085937-.125.019531-.25.035156-.378907.042969-.089843.007812-.179687.011718-.269531.011718-.023437 0-.042969-.003906-.066406-.003906-.007813.078125-.015625.15625-.027344.230469-.03125.175781-.070312.351563-.117187.519531-.046875.175782-.105469.34375-.167969.507813-.035156.085937-.074219.167969-.113281.246093zm0 0" fill="#7bc450"/><path d="m4.984375.71875h-2.148437c-1.171876 0-2.117188.945312-2.117188 2.117188v.175781c.039062-.023438.078125-.046875.117188-.070313.15625-.085937.316406-.164062.480468-.230468.164063-.070313.332032-.132813.503906-.1875.167969-.050782.34375-.097657.519532-.132813.175781-.03125.351562-.0625.527344-.078125.175781-.019531.355468-.027344.535156-.027344.125 0 .253906.003906.378906.015625.035156 0 .070312.007813.109375.011719.035156-.082031.070313-.160156.109375-.242188.082031-.160156.171875-.316406.265625-.464843.097656-.148438.203125-.292969.3125-.433594s.230469-.277344.351563-.40625c.015624-.011719.035156-.027344.054687-.046875zm0 0" fill="#ccc"/><path d="m4.984375.71875c-.019531.019531-.039063.035156-.054687.046875-.121094.128906-.242188.265625-.351563.40625s-.214844.285156-.3125.433594c-.09375.148437-.183594.304687-.265625.464843-.039062.082032-.074219.160157-.109375.242188.140625.011719.28125.027344.421875.050781.175781.03125.347656.070313.519531.117188s.339844.101562.507813.167969c.023437.011718.046875.023437.070312.03125 0-.003907.003906-.007813.003906-.015626.0625-.109374.128907-.21875.199219-.324218.074219-.105469.152344-.207032.230469-.304688.085938-.097656.171875-.191406.261719-.28125h.003906c.085937-.089844.183594-.171875.285156-.25.097657-.082031.203125-.152344.308594-.222656.109375-.070312.21875-.132812.332031-.191406.113282-.058594.230469-.109375.351563-.15625.117187-.046875.238281-.085938.363281-.117188.121094-.035156.242188-.0625.371094-.085937.027344-.003907.058594-.007813.085937-.011719zm0 0" fill="#7bc450"/></g></svg>