<svg height="12pt" viewBox="0 0 12 12" width="12pt" xmlns="http://www.w3.org/2000/svg"><g fill-rule="evenodd"><path d="m8.433594.71875h-4.648438l2.332032 8.488281zm0 0" fill="#c2352a"/><path d="m8.585938 11.421875h.71875c1.175781 0 2.117187-.941406 2.117187-2.117187v-6.46875c0-.28125-.058594-.546876-.15625-.789063zm0 0" fill="#c2352a"/><path d="m8.585938 11.421875 2.679687-9.375c-.3125-.777344-1.066406-1.328125-1.960937-1.328125h-.871094l-2.316406 8.488281.613281 2.214844zm0 0" fill="#fecd38"/><path d="m .929688 1.949219c-.128907.273437-.210938.566406-.210938.886719v6.46875c0 1.175781.945312 2.117187 2.117188 2.117187h.800781zm0 0" fill="#c2352a"/><path d="m .929688 1.949219 2.707031 9.472656h3.09375l-2.945313-10.703125h-.949218c-.851563 0-1.570313.507812-1.90625 1.230469zm0 0" fill="#fed760"/></g></svg>