<svg height="12pt" viewBox="0 0 12 12" width="12pt" xmlns="http://www.w3.org/2000/svg"><path d="m2.800781.710938h6.398438c1.152343 0 2.089843.9375 2.089843 2.089843v6.398438c0 1.152343-.9375 2.089843-2.089843 2.089843h-6.398438c-1.152343 0-2.089843-.9375-2.089843-2.089843v-6.398438c0-1.152343.9375-2.089843 2.089843-2.089843zm0 0" fill="#7289da" fill-rule="evenodd"/><path d="m5.316406 3.5625s-.742187-.015625-1.53125.5625c-.785156.578125-1.160156 1.773438-1.160156 3.496094 0 0 .835938.777344 2.042969.816406 0 0 .199219-.238281.363281-.441406-.691406-.207032-.957031-.820313-.957031-.820313.640625.355469 1.074219.503907 1.738281.511719.664062-.007812 1.472656-.15625 2.113281-.511719 0 0-.265625.613281-.957031.820313.164062.203125.363281.441406.363281.441406 1.207031-.039062 2.042969-.816406 2.042969-.816406 0-1.722656-.375-2.917969-1.160156-3.496094-.789063-.578125-1.53125-.5625-1.53125-.5625l-.054688.066406c.984375.273438 1.429688.886719 1.429688.886719s-.117188-.0625-.320313-.148437c-.613281-.296876-1.363281-.429688-1.925781-.429688s-.9375.132812-1.550781.429688c-.203125.085937-.320313.148437-.320313.148437s.445313-.613281 1.429688-.886719zm-.253906 2.25c.3125 0 .566406.25.5625.5625 0 .3125-.25.5625-.5625.5625-.308594 0-.5625-.25-.5625-.5625s.25-.5625.5625-.5625zm1.875 0c .3125 0 .5625.25.5625.5625s-.253906.5625-.5625.5625c-.3125 0-.5625-.25-.5625-.5625-.003906-.3125.25-.5625.5625-.5625zm0 0" fill="#fff"/></svg>