<svg height="12pt" viewBox="0 0 12 12" width="12pt" xmlns="http://www.w3.org/2000/svg" xmlns:xlink="http://www.w3.org/1999/xlink"><filter id="a" height="100%" width="100%" x="0%" y="0%"><feColorMatrix in="SourceGraphic" type="matrix" values="0 0 0 0 1 0 0 0 0 1 0 0 0 0 1 0 0 0 1 0"/></filter><mask id="b"><g filter="url(#a)"><path d="m0 0h12v12h-12z" fill-opacity=".501961"/></g></mask><clipPath id="c"><path d="m0 0h12v12h-12z"/></clipPath><path d="m11.289062 8.292969c-.109374-.257813-.257812-.5-.449218-.703125-.195313-.210938-.429688-.386719-.691406-.519532-.261719-.132812-.550782-.222656-.855469-.253906-.082031-.394531-.230469-.761718-.433594-1.089844-.207031-.332031-.46875-.625-.773437-.871093-.304688-.246094-.652344-.445313-1.03125-.582031-.378907-.132813-.785157-.207032-1.210938-.207032-.367188 0-.714844.054688-1.046875.152344-.328125.101562-.636719.246094-.914063.433594-.28125.183594-.53125.40625-.746093.660156-.214844.253906-.390625.535156-.523438.839844-.339843.050781-.660156.15625-.945312.3125-.289063.152344-.546875.351562-.761719.589844-.082031.09375-.125.210937-.195312.3125v1.832031c0 1.15625.933593 2.089843 2.089843 2.089843h6.398438c1.15625 0 2.089843-.933593 2.089843-2.089843zm0 0" fill="#f9f9f9" fill-rule="evenodd"/><path d="m2.800781.710938c-1.15625 0-2.089843.933593-2.089843 2.09375v4.5625c.070312-.101563.113281-.21875.195312-.3125.214844-.238282.472656-.4375.761719-.589844.285156-.15625.605469-.261719.945312-.3125.132813-.304688.308594-.585938.523438-.839844.214843-.253906.464843-.476562.746093-.660156.277344-.1875.585938-.332032.914063-.433594.332031-.097656.679687-.152344 1.046875-.152344.425781 0 .832031.074219 1.210938.207032.378906.136718.726562.335937 1.03125.582031.304687.246093.566406.539062.773437.871093.203125.328126.351563.695313.433594 1.085938.304687.035156.59375.125.855469.257812.261718.132813.496093.308594.691406.519532.191406.203125.339844.445312.449218.703125v-5.488281c0-1.160157-.933593-2.09375-2.089843-2.09375zm0 0" fill="#23cdff" fill-rule="evenodd"/><g clip-path="url(#c)" mask="url(#b)"><path d="m6 5.898438c-.519531 0-.9375.417968-.9375.9375 0 .515624.417969.9375.9375.9375s.9375-.421876.9375-.9375c0-.519532-.417969-.9375-.9375-.9375zm0 2.25c-1.6875 0-1.6875 1.199218-1.6875 1.199218v.300782h3.375v-.300782s0-1.199218-1.6875-1.199218zm0 0" fill="#808080"/></g></svg>