<svg height="12pt" viewBox="0 0 12 12" width="12pt" xmlns="http://www.w3.org/2000/svg" xmlns:xlink="http://www.w3.org/1999/xlink"><radialGradient id="a" cx="5.999912" cy="5.999915" gradientUnits="userSpaceOnUse" r="8.225194"><stop offset="0" stop-color="#56572b"/><stop offset="1" stop-color="#1a1c0e"/></radialGradient><g fill-rule="evenodd"><path d="m2.800781.710938h6.398438c1.152343 0 2.089843.9375 2.089843 2.089843v6.398438c0 1.152343-.9375 2.089843-2.089843 2.089843h-6.398438c-1.152343 0-2.089843-.9375-2.089843-2.089843v-6.398438c0-1.152343.9375-2.089843 2.089843-2.089843zm0 0" fill="#56572b"/><path d="m6.722656 11.289062c-.296875-.128906-.671875-.238281-.917968-.378906-.558594-.320312-.988282-.664062-1.324219-1.023437-.335938-.359375-.582031-.734375-.777344-1.113281-.191406-.378907-.332031-.761719-.453125-1.136719-.125-.375-.230469-.742188-.359375-1.09375-.128906-.347657-.277344-.679688-.488281-.980469-.210938-.296875-.480469-.570312-.84375-.800781-.21875-.132813-.554688-.222657-.847656-.328125v4.761718c0 1.160157.933593 2.09375 2.089843 2.09375zm0 0" fill="#222514"/><path d="m4.828125.710938h-2.027344c-1.15625 0-2.089843.933593-2.089843 2.089843v1.632813c.292968.105468.628906.195312.847656.328125.363281.230469.632812.503906.84375.800781.210937.300781.359375.632812.488281.980469.128906.351562.234375.71875.359375 1.09375.121094.375.261719.757812.453125 1.136719.195313.378906.441406.753906.777344 1.113281.335937.359375.765625.703125 1.324219 1.023437.246093.140625.621093.25.917968.378906h2.472656c1.160157 0 2.09375-.933593 2.09375-2.09375v-1.441406c-.246093-.097656-.550781-.167968-.738281-.289062-.367187-.230469-.636719-.5-.84375-.800782-.210937-.300781-.359375-.628906-.488281-.980468-.128906-.347656-.238281-.714844-.359375-1.089844-.125-.375-.261719-.757812-.457031-1.136719-.191406-.378906-.4375-.753906-.777344-1.113281-.335938-.359375-.765625-.707031-1.324219-1.023438-.390625-.222656-.941406-.414062-1.472656-.609374zm0 0" fill="url(#a)"/><path d="m4.828125.710938c.53125.195312 1.082031.386718 1.472656.609374.558594.316407.988281.664063 1.324219 1.023438.339844.359375.585938.734375.777344 1.113281.195312.378907.332031.761719.457031 1.136719.121094.375.230469.742188.359375 1.089844.128906.351562.277344.679687.488281.980468.207031.300782.476563.570313.84375.800782.1875.121094.492188.191406.738281.289062v-4.953125c0-1.15625-.933593-2.089843-2.09375-2.089843zm0 0" fill="#56572b"/></g><g fill="#fff"><path d="m4.613281 9.171875c.128907-.0625.148438-.097656.152344-.304687l.003906-.175782h-.429687l.007812.257813h-.875v-.738281h.875l-.003906.121093-.003906.125.097656-.011719c.121094-.007812.265625-.078124.3125-.148437.027344-.042969.03125-.0625.027344-.113281-.015625-.09375-.054688-.152344-.148438-.195313l-.082031-.042969h-1.234375l-.074219.035157c-.101562.046875-.171875.125-.183593.203125-.003907.035156-.007813.234375-.003907.445312.003907.433594.007813.441406.113281.515625.105469.070313.140626.074219.78125.070313l.589844-.003906zm1.820313.03125c.082031-.019531.171875-.082031.199218-.140625.019532-.039062.023438-.085938.023438-.222656.003906-.207032-.011719-.257813-.097656-.3125-.101563-.066406-.175782-.074219-.707032-.074219h-.488281v-.242187h.648438c.640625 0 .648437 0 .648437-.03125 0-.042969-.039062-.117188-.074218-.148438-.019532-.015625-.066407-.042969-.105469-.058594-.066407-.023437-.117188-.027344-.6875-.027344h-.621094l-.078125.039063c-.089844.046875-.148438.125-.164062.222656-.015626.101563 0 .304688.027343.355469.03125.058594.132813.125.226563.144531.039062.007813.265625.015625.558594.015625h.488281v.226563h-.652344c-.59375 0-.65625.003906-.648437.023437.003906.011719.007812.03125.007812.042969 0 .054687.140625.160156.253906.1875.078125.019531 1.171875.019531 1.242188 0zm0 0"/><path d="m8.738281 9.203125c.082031-.019531.167969-.082031.195313-.140625.019531-.039062.027344-.085938.027344-.222656 0-.207032-.015626-.257813-.101563-.3125-.101563-.066406-.175781-.074219-.707031-.074219h-.484375v-.242187h.644531c.640625 0 .648438 0 .648438-.03125 0-.042969-.035157-.117188-.074219-.148438-.019531-.015625-.066407-.042969-.105469-.058594-.066406-.023437-.117188-.027344-.6875-.027344h-.621094l-.078125.039063c-.089843.046875-.148437.125-.164062.222656-.015625.101563 0 .304688.027343.355469.03125.058594.132813.125.226563.144531.042969.007813.265625.015625.558594.015625h.488281v.226563h-.652344c-.59375 0-.65625.003906-.648437.023437.003906.011719.007812.03125.007812.042969 0 .054687.140625.160156.253907.1875.078124.019531 1.171874.019531 1.246093 0zm0 0"/><path d="m6.085938 3.046875c-1.535157 0-2.785157 1.25-2.785157 2.785156 0 .765625.3125 1.464844.816407 1.96875h.457031c-.589844-.457031-.972657-1.167969-.972657-1.96875 0-1.375 1.109376-2.484375 2.484376-2.484375 1.371093 0 2.480468 1.109375 2.480468 2.484375 0 .800781-.378906 1.511719-.96875 1.96875h.453125c.503907-.503906.816407-1.203125.816407-1.96875 0-1.535156-1.246094-2.785156-2.78125-2.785156zm0 0"/><path d="m6.863281 7.632812c.050781-.046874.039063-.136718-.03125-.238281-.0625-.089843-.0625-.089843-.109375-.433593-.042968-.332032-.046875-.351563-.109375-.472657-.042969-.082031-.085937-.140625-.128906-.171875-.078125-.054687-.117187-.15625-.082031-.21875.015625-.03125.007812-.046875-.070313-.148437-.050781-.0625-.097656-.121094-.109375-.132813-.011718-.011718-.042968-.054687-.074218-.097656-.035157-.050781-.058594-.070312-.078126-.0625-.023437.007812-.03125-.003906-.039062-.054688-.003906-.035156-.011719-.074218-.019531-.089843-.007813-.023438-.003907-.03125.03125-.03125.058593 0 .074219-.042969.074219-.171875v-.109375h.128906c.070312 0 .15625-.003907.183594-.015625.074218-.019532.148437-.089844.1875-.175782.03125-.074218.0625-.089843.097656-.046874.011718.015624.039062.023437.070312.023437.046875-.003906.050782-.011719.058594-.066406 0-.035157.007812-.0625.015625-.0625s.042969.078125.085937.175781c.070313.167969.078126.179688.121094.175781.027344-.003906.050782-.007812.054688-.011719.007812-.007812-.019532-.085937-.054688-.179687s-.066406-.175781-.066406-.1875c-.003906-.007813.023438-.03125.066406-.046875.054688-.023438.074219-.042969.085938-.082031l.015625-.050781.1875-.011719c.105469-.003907.191406-.011719.195312-.011719.003907 0 .003907-.011719.003907-.023438 0-.015624-.019532-.027343-.054688-.03125-.050781-.003906-.050781-.007812-.058594-.097656 0-.03125-.054687-.03125-.085937-.046875 0 .046875-.003907.050781-.066407.050781-.046874 0-.0625-.007812-.0625-.027343 0-.027344-.027343-.03125-.039062-.007813 0 .007813-.039062.019532-.082031.027344l-.078125.011719v-.050781c0-.027344-.011719-.054688-.023438-.058594-.027344-.011719-.058594.019531-.058594.050781 0 .015625-.042968.019531-.167968.019531h-.164063v-.050781c0-.042969-.003906-.046875-.058593-.046875-.035157 0-.054688.007812-.054688.023438 0 .027343-.035156.042968-.101562.042968-.03125 0-.054688.011719-.066407.03125-.023437.042969-.125.050782-.105469.007813.097657-.261719-.042968-.511719-.292968-.503907-.160156.003907-.257813.140626-.261719.359376 0 .117187 0 .117187-.050781.136718-.175782.074219-.300782.351563-.292969.652344 0 .09375-.007813.195312-.027344.273438-.019531.082031-.027343.203124-.03125.371093-.003906.226563-.007812.265625-.0625.453125-.046875.171875-.082031.320313-.121093.554688-.003907.019531-.046876.0625-.097657.097656-.097656.066406-.164062.144531-.21875.246094l-.035156.066406.0625.15625c.074219.195312.074219.195312.144531.214844.042969.011718.074219.011718.117188-.007813l.054687-.023437v-.25h.066407c.144531 0 .253906-.164063.394531-.597656.128906-.386719.167969-.488282.183593-.488282.007813 0 .015626.003906.015626.015625 0 .007813.027343.0625.066406.121094.074218.121094.203125.246094.332031.328125.082031.054688.09375.066406.101563.128906.007812.039063.042968.160156.078124.269532.035157.109374.078126.257812.089844.328124.03125.164063.0625.210938.191406.265626.121094.046874.191407.054687.230469.015624zm-.65625-2.816406c.007813-.039062.023438-.078125.039063-.089844.058594-.042968.285156-.011718.285156.035157 0 .023437-.050781.042969-.117188.042969-.027343 0-.058593.015624-.078124.042968-.023438.027344-.046876.039063-.085938.039063h-.050781zm0 0"/></g></svg>