<svg height="32" width="32" xmlns="http://www.w3.org/2000/svg"><g transform="translate(47.660156 -2.722656)"><path d="m-40.185547 4.6210938c-3.088651 0-5.576172 2.487521-5.576172 5.5761722v17.052734c0 2.634932 1.849502 4.729828 4.298828 5.318359v-11.314453c0-1.485187.244795-2.900586.705079-4.1875.460283-1.286914 1.134851-2.44663 1.996093-3.419922.861243-.973291 1.908451-1.760367 3.111328-2.304687s2.561688-.845703 4.046875-.845703c1.485188 0 2.843998.301383 4.046875.845703 1.202878.54432 2.250086 1.331396 3.111329 2.304687.861242.973292 1.537763 2.133008 1.998046 3.419922.460284 1.286914.705078 2.702313.705078 4.1875v11.291016c2.392344-.627691 4.183594-2.700279 4.183594-5.294922v-17.052734c0-3.0886512-2.485568-5.5761722-5.574218-5.5761722z" fill="#ccc" fill-rule="evenodd"/><circle cx="-37.429386" cy="15.426612" fill="#6d4c41" r="4.033765"/><circle cx="-25.776287" cy="15.426612" fill="#6d4c41" r="4.033765"/><path d="m-21.742188 32.544922v-11.291016c0-1.485187-.244794-2.900586-.705078-4.1875-.460283-1.286914-1.136804-2.44663-1.998046-3.419922-.861243-.973291-1.908451-1.760367-3.111329-2.304687-1.202877-.54432-2.561687-.845703-4.046875-.845703-1.485187 0-2.843998.301383-4.046875.845703s-2.250085 1.331396-3.111328 2.304687c-.861242.973292-1.53581 2.133008-1.996093 3.419922-.460284 1.286914-.705079 2.702313-.705079 4.1875v11.314453c.421759.101342.823625.25586 1.277344.25586h17.052735c.494008 0 .935133-.159788 1.390624-.279297z" fill="#a1887f" fill-rule="evenodd"/><path d="m-34.292015 23.942337h2.689177v3.585569h-2.689177z" fill="#fff"/><path d="m-31.602837 23.494141h2.689177v4.033765h-2.689177z" fill="#f2f2f2"/><path d="m-34.200582 21.119599c-1.237021-.03765-1.884216 2.033017-1.884216 3.270935 0 1.237649 1.003332 2.24098 2.24098 2.24098 1.140839 0 2.225922-.995981 2.225922-.995981h.03164s1.084187.994637 2.224487.995981c1.237649 0 2.240981-1.003331 2.240981-2.24098s-.607736-3.075074-1.844865-3.112543z" fill="#6d4c41"/><path d="m-29.025709 21.029063c.264041 1.159035-1.463271 2.465079-2.577128 2.465079s-2.897588-1.292239-2.633152-2.465079c.202638-.898812 1.519295-.840368 2.633152-.840368s2.376426-.04061 2.577128.840368z" fill="#3e2723"/><g stroke-width="1.115583" transform="matrix(.09804738 0 0 .09804738 -85.834567 690.01555)"><circle cx="502.85999" cy="-6853.1001" fill="#fefefe" r="22.857" stroke-width="1.115583"/><circle cx="-498.29001" cy="-6857.7002" fill="#333" r="9.143" stroke-width="1.115583" transform="scale(-1 1)"/></g><g stroke-width="1.115583" transform="matrix(.09804738 0 0 .09804738 -75.974252 690.01555)"><circle cx="502.85999" cy="-6853.1001" fill="#fefefe" r="22.857" stroke-width="1.115583"/><circle cx="-498.29001" cy="-6857.7002" fill="#333" r="9.143" stroke-width="1.115583" transform="scale(-1 1)"/></g></g></svg>