<svg height="12pt" viewBox="0 0 12 12" width="12pt" xmlns="http://www.w3.org/2000/svg"><path d="m2.800781.710938h6.398438c1.152343 0 2.089843.9375 2.089843 2.089843v6.398438c0 1.152343-.9375 2.089843-2.089843 2.089843h-6.398438c-1.152343 0-2.089843-.9375-2.089843-2.089843v-6.398438c0-1.152343.9375-2.089843 2.089843-2.089843zm0 0" fill="#4c636b" fill-rule="evenodd"/><path d="m6.75 5.625c0 1.449219-1.175781 2.625-2.625 2.625s-2.625-1.175781-2.625-2.625 1.175781-2.625 2.625-2.625 2.625 1.175781 2.625 2.625zm0 0" fill="#3d4f56"/><path d="m2.269531 3.769531c-.089843.089844-.171875.183594-.246093.285157l.808593.808593c-.34375.589844-.25 1.339844.230469 1.824219.484375.480469 1.234375.574219 1.824219.226562l.808593.8125c.101563-.074218.195313-.15625.285157-.246093.089843-.089844.171875-.183594.246093-.285157l-.8125-.808593c.347657-.589844.253907-1.339844-.230468-1.820313-.480469-.484375-1.230469-.578125-1.820313-.230468l-.808593-.8125c-.101563.074218-.195313.15625-.285157.246093zm0 0" fill="#ee5858"/><path d="m4.875 5.625c0 .414062-.335938.75-.75.75s-.75-.335938-.75-.75.335938-.75.75-.75.75.335938.75.75zm0 0" fill="#f3c4c4"/><path d="m7.875 3.375h2.25c.207031 0 .375.167969.375.375s-.167969.375-.375.375h-2.25c-.207031 0-.375-.167969-.375-.375s.167969-.375.375-.375zm0 0" fill="#3d4f56"/><path d="m10.5 8.4375c0 .3125-.25.5625-.5625.5625s-.5625-.25-.5625-.5625.25-.5625.5625-.5625.5625.25.5625.5625zm0 0" fill="#58c4ee"/><path d="m9 8.4375c0 .3125-.25.5625-.5625.5625s-.5625-.25-.5625-.5625.25-.5625.5625-.5625.5625.25.5625.5625zm0 0" fill="#58c4ee"/><g fill="#3d4f56"><path d="m7.875 4.5h2.25c.207031 0 .375.167969.375.375s-.167969.375-.375.375h-2.25c-.207031 0-.375-.167969-.375-.375s.167969-.375.375-.375zm0 0"/><path d="m7.875 5.625h2.25c.207031 0 .375.167969.375.375s-.167969.375-.375.375h-2.25c-.207031 0-.375-.167969-.375-.375s.167969-.375.375-.375zm0 0"/><path d="m7.875 6.75h2.25c.207031 0 .375.167969.375.375s-.167969.375-.375.375h-2.25c-.207031 0-.375-.167969-.375-.375s.167969-.375.375-.375zm0 0"/></g></svg>