<svg height="12pt" viewBox="0 0 12 12" width="12pt" xmlns="http://www.w3.org/2000/svg"><g fill-rule="evenodd"><path d="m1.976562.882812c-.742187.316407-1.265624 1.054688-1.265624 1.917969v6.394531c0 .84375.503906 1.558594 1.21875 1.890626.160156-.140626.320312-.277344.464843-.441407.164063-.1875.3125-.40625.429688-.664062.207031-.472657.277343-.933594.292969-1.433594.015624-.496094-.023438-1.035156-.023438-1.65625v-4.671875c0-.203125-.011719-.335938-.054688-.449219-.046874-.113281-.125-.207031-.261718-.335937-.246094-.195313-.53125-.375-.800782-.550782zm0 0" fill="#333"/><path d="m1.976562.882812c.269532.175782.554688.355469.800782.550782.136718.128906.214844.222656.261718.335937.042969.113281.054688.246094.054688.449219v4.671875c0 .621094.039062 1.160156.023438 1.65625-.015626.5-.085938.960937-.292969 1.433594-.117188.257812-.265625.476562-.429688.664062-.144531.164063-.304687.300781-.464843.441407.265624.121093.558593.203124.875.203124h6.394531c1.15625 0 2.089843-.933593 2.089843-2.09375v-6.394531c0-1.15625-.933593-2.089843-2.089843-2.089843h-6.394531c-.296876 0-.574219.0625-.828126.171874zm0 0" fill="#e97e10"/><path d="m5.4375 2.597656c.644531.003906 1.960938.019532 2.222656.144532 1.128906.636718 1.296875 1.398437 1.273438 2.480468.03125.984375-.328125 2.042969-1.273438 2.542969-.347656.167969-2.519531.167969-2.519531.167969l-.058594-5.335938zm0 0" fill="#fff"/><path d="m4.1875 5.273438c-.03125.011718.050781.210937.136719.332031.136719.1875.222656.296875.410156.464843.242187.222657.304687.257813.40625.363282.105469.101562.234375.296875.234375.296875v3.007812c0 .207031-.207031.335938-.277344.363281-.09375.03125-.304687.101563-.304687.101563v.101563h2.367187v-.101563s-.242187-.070313-.339844-.101563c-.066406-.027343-.238281-.15625-.242187-.363281v-3.058593c0-.222657.195313-.277344.273437-.3125.105469-.042969.257813-.050782.308594-.152344.050782-.105469-.066406-.054688-.105468-.054688-.363282.003906-1.320313 0-1.320313 0-.25 0-.492187-.03125-.695313-.140625-.140624-.078125-.277343-.179687-.40625-.308593l-.410156-.414063c-.019531-.019531-.03125-.027344-.035156-.023437zm6.253906 0c-.007812-.003907-.019531.003906-.039062.023437l-.40625.414063c-.132813.128906-.269532.230468-.410156.308593-.203126.109375-.445313.140625-.695313.140625 0 0-.953125.003906-1.320313 0-.039062 0-.152343-.050781-.101562.054688.050781.101562.199219.109375.304688.152344.078124.035156.273437.089843.273437.3125v3.058593c0 .207031-.171875.335938-.242187.363281-.09375.03125-.332032.101563-.332032.101563v.101563h2.359375v-.101563s-.207031-.070313-.304687-.101563c-.066406-.027343-.277344-.15625-.277344-.363281v-3.007812s.132812-.195313.234375-.296875c.101563-.105469.164063-.140625.40625-.363282.1875-.167968.277344-.277343.410156-.464843.085938-.121094.167969-.320313.140625-.332031zm0 0" fill="#c2352a"/></g></svg>