<svg height="12pt" viewBox="0 0 12 12" width="12pt" xmlns="http://www.w3.org/2000/svg" xmlns:xlink="http://www.w3.org/1999/xlink"><radialGradient id="a" cx="15.959587" cy="15.968227" gradientTransform="matrix(.352825 0 0 .353565 .369059 .354195)" gradientUnits="userSpaceOnUse" r="5.990716"><stop offset="0" stop-color="#99efff"/><stop offset="1" stop-color="#4d86cb" stop-opacity="0"/></radialGradient><path d="m2.824219.75h6.351562c1.144531 0 2.074219.929688 2.074219 2.074219v6.351562c0 1.144531-.929688 2.074219-2.074219 2.074219h-6.351562c-1.144531 0-2.074219-.929688-2.074219-2.074219v-6.351562c0-1.144531.929688-2.074219 2.074219-2.074219zm0 0" fill="#4d6682" fill-rule="evenodd"/><path d="m6 1.976562c-2.230469 0-4.023438 1.792969-4.023438 4.023438s1.792969 4.023438 4.023438 4.023438 4.023438-1.792969 4.023438-4.023438-1.792969-4.023438-4.023438-4.023438zm0 0" fill="#2b2d2c"/><path d="m6 2.699219c-1.828125 0-3.300781 1.472656-3.300781 3.300781s1.472656 3.300781 3.300781 3.300781 3.300781-1.472656 3.300781-3.300781-1.472656-3.300781-3.300781-3.300781zm0 0" fill="#1b1d1c"/><path d="m6 8.726562c-1.503906 0-2.726562-1.222656-2.726562-2.726562s1.222656-2.726562 2.726562-2.726562 2.726562 1.222656 2.726562 2.726562-1.222656 2.726562-2.726562 2.726562zm0-.113281c1.445312 0 2.613281-1.167969 2.613281-2.613281s-1.167969-2.613281-2.613281-2.613281-2.613281 1.167969-2.613281 2.613281 1.167969 2.613281 2.613281 2.613281zm0 0" fill="#5a5d66"/><path d="m8.246094 6c0 1.242188-1.003906 2.246094-2.246094 2.246094s-2.246094-1.003906-2.246094-2.246094 1.003906-2.246094 2.246094-2.246094 2.246094 1.003906 2.246094 2.246094zm0 0" fill="#010729"/><path d="m5.804688 8.199219c-.277344-.027344-.734376-.160157-.757813-.226563-.023437-.0625-.046875-.441406-.046875-.753906-.003906-.34375.011719-.542969.058594-.777344.019531-.109375.03125-.125.082031-.125.046875 0 .058594.011719.125.121094.125.214844.378906.5.613281.695312.257813.210938.519532.378907.910156.578126.136719.070312.253907.136718.257813.148437.007813.011719.007813.035156.003906.054687-.007812.027344-.027343.039063-.121093.085938-.34375.160156-.742188.230469-1.125.199219zm-1.046876-.375c-.4375-.292969-.769531-.769531-.902343-1.300781-.027344-.109376-.058594-.316407-.050781-.34375.011718-.023438.109374-.101563.3125-.238282.34375-.230468.722656-.429687 1.050781-.542968.074219-.027344.117187-.019532.136719.023437.011718.027344.003906.050781-.078126.210937-.164062.328126-.257812.664063-.304687 1.09375-.023437.210938-.023437.710938-.003906.9375.011719.128907.011719.152344-.007813.179688-.027344.039062-.074218.035156-.152344-.019531zm2.285157-.089844c-.40625-.191406-.757813-.398437-1.039063-.625-.152344-.121094-.175781-.144531-.175781-.179687 0-.058594.035156-.070313.242187-.082032.570313-.023437 1.179688-.257812 1.851563-.703125.148437-.101562.1875-.121093.21875-.117187.058594.003906.070313.039062.054687.183594-.035156.363281-.164062.714843-.375 1.035156-.144531.214844-.507812.566406-.585937.5625-.015625 0-.101563-.035156-.191406-.074219zm-.335938-1.144531c-.03125-.039063-.035156-.03125.074219-.242188.238281-.476562.347656-1.105468.308594-1.816406-.019532-.363281-.019532-.367188.007812-.386719.035156-.027343.070313-.019531.140625.027344.4375.292969.765625.761719.898438 1.28125.035156.128906.0625.335937.054687.367187-.007812.023438-.105468.101563-.308594.238282-.339843.230468-.695312.414062-1.023437.53125-.101563.035156-.125.035156-.152344 0zm-2.894531-.632813c-.03125-.035156-.011719-.25.039062-.460937.085938-.375.277344-.730469.539063-1.003906.140625-.144532.308594-.285157.355469-.296876.042968-.011718.410156.15625.6875.316407.246094.140625.566406.367187.703125.496093.039062.035157.042969.082032.007812.113282-.023437.019531-.054687.023437-.210937.03125-.574219.027344-1.21875.273437-1.882813.71875-.15625.105468-.207031.125-.238281.085937zm2.984375-.292969c-.007813-.011718-.035156-.058593-.0625-.101562-.082031-.140625-.214844-.308594-.386719-.480469-.328125-.328125-.648437-.550781-1.210937-.835937-.097657-.046875-.179688-.097656-.1875-.105469-.003907-.011719-.007813-.035156-.003907-.054687.007813-.027344.03125-.042969.121094-.085938.421875-.199219.910156-.257812 1.371094-.164062.222656.046874.5.152343.515625.191406.027344.101562.058594.628906.050781.898437-.011718.316407-.0625.699219-.09375.742188-.019531.023437-.089844.019531-.113281-.003907zm0 0" fill="url(#a)"/><g fill="#5a5d66"><path d="m6 8.527344c-1.394531 0-2.527344-1.132813-2.527344-2.527344s1.132813-2.527344 2.527344-2.527344 2.527344 1.132813 2.527344 2.527344-1.132813 2.527344-2.527344 2.527344zm0-.105469c1.335938 0 2.421875-1.082031 2.421875-2.421875 0-1.335938-1.085937-2.421875-2.421875-2.421875-1.339844 0-2.421875 1.085937-2.421875 2.421875 0 1.339844 1.082031 2.421875 2.421875 2.421875zm0 0"/><path d="m6 8.34375c-1.292969 0-2.34375-1.050781-2.34375-2.34375s1.050781-2.34375 2.34375-2.34375 2.34375 1.050781 2.34375 2.34375-1.050781 2.34375-2.34375 2.34375zm0-.097656c1.242188 0 2.246094-1.003906 2.246094-2.246094s-1.003906-2.246094-2.246094-2.246094-2.246094 1.003906-2.246094 2.246094 1.003906 2.246094 2.246094 2.246094zm0 0"/><path d="m6 8.9375c-1.621094 0-2.9375-1.316406-2.9375-2.9375s1.316406-2.9375 2.9375-2.9375 2.9375 1.316406 2.9375 2.9375-1.316406 2.9375-2.9375 2.9375zm0-.121094c1.554688 0 2.816406-1.261718 2.816406-2.816406s-1.261718-2.816406-2.816406-2.816406-2.816406 1.261718-2.816406 2.816406 1.261718 2.816406 2.816406 2.816406zm0 0"/></g></svg>