<svg height="12pt" viewBox="0 0 12 12" width="12pt" xmlns="http://www.w3.org/2000/svg"><path d="m2.800781.710938h6.398438c1.152343 0 2.089843.9375 2.089843 2.089843v6.398438c0 1.152343-.9375 2.089843-2.089843 2.089843h-6.398438c-1.152343 0-2.089843-.9375-2.089843-2.089843v-6.398438c0-1.152343.9375-2.089843 2.089843-2.089843zm0 0" fill="#8e8e8e" fill-rule="evenodd"/><g fill="#4d4d4d"><path d="m10.179688 2.351562c0 .296876-.242188.539063-.539063.539063s-.539063-.242187-.539063-.539063c0-.296874.242188-.539062.539063-.539062s.539063.242188.539063.539062zm0 0"/><path d="m2.882812 2.351562c0 .296876-.242187.539063-.542968.539063-.296875 0-.539063-.242187-.539063-.539063 0-.296874.242188-.539062.539063-.539062.300781 0 .542968.242188.542968.539062zm0 0"/><path d="m10.199219 9.648438c0 .296874-.242188.539062-.539063.539062-.300781 0-.542968-.242188-.542968-.539062 0-.296876.242187-.539063.542968-.539063.296875 0 .539063.242187.539063.539063zm0 0"/><path d="m2.898438 9.648438c0 .296874-.242188.539062-.539063.539062s-.539063-.242188-.539063-.539062c0-.296876.242188-.539063.539063-.539063s.539063.242187.539063.539063zm0 0"/><path d="m6 3.375c-1.449219 0-2.625 1.175781-2.625 2.625v2.625h2.625c1.449219 0 2.625-1.175781 2.625-2.625s-1.175781-2.625-2.625-2.625zm0 1.125c.828125 0 1.5.671875 1.5 1.5s-.671875 1.5-1.5 1.5-1.5-.671875-1.5-1.5.671875-1.5 1.5-1.5zm0 0"/></g></svg>