<svg height="12pt" viewBox="0 0 12 12" width="12pt" xmlns="http://www.w3.org/2000/svg"><path d="m2.800781.710938h6.398438c1.152343 0 2.089843.9375 2.089843 2.089843v6.398438c0 1.152343-.9375 2.089843-2.089843 2.089843h-6.398438c-1.152343 0-2.089843-.9375-2.089843-2.089843v-6.398438c0-1.152343.9375-2.089843 2.089843-2.089843zm0 0" fill="#69c561" fill-rule="evenodd"/><path d="m8.9375 2.550781-3.996094.921875c-.566406.074219-.542968.648438-.542968.648438v2.460937c-.128907-.039062-.265626-.054687-.402344-.058593-.808594 0-1.46875.660156-1.46875 1.46875 0 .8125.660156 1.46875 1.46875 1.46875.761718 0 1.394531-.578126 1.464844-1.335938h.003906v-3.695312l2.9375-.695313v2.046875c-.128906-.039062-.265625-.058594-.398438-.058594-.8125 0-1.46875.660156-1.46875 1.46875 0 .8125.65625 1.46875 1.46875 1.46875.757813 0 1.390625-.578125 1.460938-1.335937h.007812v-4.269531s.003906-.617188-.535156-.503907zm0 0" fill="#4f4f4f"/><path d="m10.53125 8.535156c0 1.035156-.839844 1.875-1.875 1.875s-1.875-.839844-1.875-1.875.839844-1.875 1.875-1.875 1.875.839844 1.875 1.875zm0 0" fill="#fff"/><g fill="#69c561"><path d="m8.65625 8.066406h.234375v1.40625h-.234375zm0 0"/><path d="m9.125 7.597656h.234375v1.875h-.234375zm0 0"/><path d="m8.1875 8.535156h.234375v.9375h-.234375zm0 0"/><path d="m7.71875 9.003906h.234375v.46875h-.234375zm0 0"/></g></svg>