<svg height="12pt" viewBox="0 0 12 12" width="12pt" xmlns="http://www.w3.org/2000/svg"><path d="m2.800781.710938h6.398438c1.152343 0 2.089843.9375 2.089843 2.089843v6.398438c0 1.152343-.9375 2.089843-2.089843 2.089843h-6.398438c-1.152343 0-2.089843-.9375-2.089843-2.089843v-6.398438c0-1.152343.9375-2.089843 2.089843-2.089843zm0 0" fill="#5f7c8a" fill-rule="evenodd"/><path d="m2.550781 3.984375c-.066406 0-.117187.050781-.117187.117187v.695313c0 .066406.050781.117187.117187.117187h.695313c.066406 0 .117187-.050781.117187-.117187v-.695313c0-.066406-.050781-.117187-.117187-.117187zm1.550781 0c-.066406 0-.117187.050781-.117187.117187v.695313c0 .066406.050781.117187.117187.117187h.695313c.066406 0 .117187-.050781.117187-.117187v-.695313c0-.066406-.050781-.117187-.117187-.117187zm1.550782 0c-.066406 0-.117188.050781-.117188.117187v.695313c0 .066406.050782.117187.117188.117187h.695312c.066406 0 .117188-.050781.117188-.117187v-.695313c0-.066406-.050782-.117187-.117188-.117187zm1.550781 0c-.066406 0-.117187.050781-.117187.117187v.695313c0 .066406.050781.117187.117187.117187h.695313c.066406 0 .117187-.050781.117187-.117187v-.695313c0-.066406-.050781-.117187-.117187-.117187zm1.550781 0c-.066406 0-.117187.050781-.117187.117187v.695313c0 .066406.050781.117187.117187.117187h.695313c.066406 0 .117187-.050781.117187-.117187v-.695313c0-.066406-.050781-.117187-.117187-.117187zm-6.203125 1.550781c-.066406 0-.117187.050782-.117187.117188v.695312c0 .066406.050781.117188.117187.117188h.695313c.066406 0 .117187-.050782.117187-.117188v-.695312c0-.066406-.050781-.117188-.117187-.117188zm1.550781 0c-.066406 0-.117187.050782-.117187.117188v.695312c0 .066406.050781.117188.117187.117188h.695313c.066406 0 .117187-.050782.117187-.117188v-.695312c0-.066406-.050781-.117188-.117187-.117188zm1.550782 0c-.066406 0-.117188.050782-.117188.117188v.695312c0 .066406.050782.117188.117188.117188h.695312c.066406 0 .117188-.050782.117188-.117188v-.695312c0-.066406-.050782-.117188-.117188-.117188zm1.550781 0c-.066406 0-.117187.050782-.117187.117188v.695312c0 .066406.050781.117188.117187.117188h.695313c.066406 0 .117187-.050782.117187-.117188v-.695312c0-.066406-.050781-.117188-.117187-.117188zm1.550781 0c-.066406 0-.117187.050782-.117187.117188v.695312c0 .066406.050781.117188.117187.117188h.695313c.066406 0 .117187-.050782.117187-.117188v-.695312c0-.066406-.050781-.117188-.117187-.117188zm-4.652344 1.550782c-.066406 0-.117187.050781-.117187.117187v.695313c0 .066406.050781.117187.117187.117187h3.796876c.066406 0 .117187-.050781.117187-.117187v-.695313c0-.066406-.050781-.117187-.117187-.117187zm0 0" fill="#ebebeb"/></svg>