<svg height="12pt" viewBox="0 0 12 12" width="12pt" xmlns="http://www.w3.org/2000/svg"><path d="m2.800781.710938h6.398438c1.152343 0 2.089843.9375 2.089843 2.089843v6.398438c0 1.152343-.9375 2.089843-2.089843 2.089843h-6.398438c-1.152343 0-2.089843-.9375-2.089843-2.089843v-6.398438c0-1.152343.9375-2.089843 2.089843-2.089843zm0 0" fill="#ccc" fill-rule="evenodd"/><path d="m9.253906 4.027344c.789063 0 .722656.847656.722656.847656v.738281c0 .273438-.34375.835938-.34375.835938v.519531l.691407.320312v.542969h-2.769531v-.542969l.691406-.320312v-.519531s-.34375-.5625-.339844-.835938v-.738281s-.070312-.847656.71875-.847656" fill="#808080"/><path d="m2.367188 6.796875-.691407-.691406.691407-.691407zm0 0" fill="#289b36"/><path d="m3.015625 5.066406h1.816406c.15625 0 .304688.171875.304688.347656v1.382813c0 .175781-.148438.34375-.304688.34375h-1.816406c-.152344 0-.300781-.167969-.300781-.34375v-1.382813c0-.175781.148437-.347656.300781-.347656zm0 0" fill="#ecb64e"/><path d="m5.480469 4.035156c1.148437 0 2.074219.929688 2.074219 2.074219 0 1.148437-.925782 2.074219-2.074219 2.074219-1.144531 0-2.074219-.925782-2.074219-2.074219 0-1.144531.929688-2.074219 2.074219-2.074219zm0 0" fill="#484848"/><path d="m6.335938 6.964844c.203124-.203125.527343-.207032.722656-.011719l1.246094 1.246094c.195312.195312.191406.519531-.011719.722656s-.523438.207031-.722657.011719l-1.242187-1.246094c-.199219-.195312-.191406-.519531.007813-.722656zm0 0" fill="#484848"/><path d="m4.746094 5.375c-.40625.410156-.40625 1.0625 0 1.46875.410156.40625 1.0625.410156 1.46875 0 .410156-.40625.40625-1.058594 0-1.46875-.40625-.40625-1.058594-.40625-1.46875 0zm0 0" fill="#5d99ff"/></svg>