<svg height="12pt" viewBox="0 0 12 12" width="12pt" xmlns="http://www.w3.org/2000/svg"><path d="m11.289062 7.925781c-.148437-.371093-.304687-.734375-.492187-1.050781-.230469-.398438-.492187-.753906-.773437-1.070312-.28125-.316407-.582032-.59375-.902344-.828126-.320313-.238281-.65625-.4375-1.003906-.59375-.347657-.160156-.707032-.277343-1.066407-.359374-.363281-.078126-.734375-.121094-1.101562-.121094-.367188 0-.738281.039062-1.101563.117187-.359375.074219-.71875.191407-1.0625.347657s-.679687.351562-.996094.582031c-.316406.234375-.617187.507812-.898437.820312-.277344.308594-.53125.660157-.761719 1.050781-.160156.273438-.285156.589844-.417968.902344v1.476563c0 1.15625.933593 2.089843 2.089843 2.089843h6.398438c1.15625 0 2.089843-.933593 2.089843-2.089843zm0 0" fill="#47ad5d" fill-rule="evenodd"/><path d="m2.800781.710938c-1.15625 0-2.089843.933593-2.089843 2.089843v4.921875c.132812-.3125.257812-.628906.417968-.902344.230469-.390624.484375-.742187.761719-1.050781.28125-.3125.582031-.585937.898437-.820312.316407-.230469.652344-.425781.996094-.582031s.703125-.273438 1.0625-.347657c.363282-.078125.734375-.117187 1.101563-.117187.367187 0 .738281.042968 1.101562.121094.359375.082031.71875.199218 1.066407.359374.347656.15625.683593.355469 1.003906.59375.320312.234376.621094.511719.902344.828126.28125.316406.542968.671874.773437 1.070312.1875.316406.34375.679688.492187 1.050781v-5.125c0-1.15625-.933593-2.089843-2.089843-2.089843zm0 0" fill="#00512d" fill-rule="evenodd"/><path d="m3.105469 8.300781c2.269531.449219 3.140625.589844 5.644531.027344-3.59375 2.417969-1.605469 1.910156-5.644531-.027344zm0 0" fill="#ffe700"/><g fill-rule="evenodd"><path d="m9.425781 6c0-.855469-.355469-1.546875-.800781-1.546875-.441406 0-.800781.691406-.800781 1.546875s.359375 1.546875.800781 1.546875c.445312 0 .800781-.691406.800781-1.546875zm0 0" fill="#d00b5a"/><path d="m9.171875 6c0-.324219-.226563-.585938-.507813-.585938s-.511718.261719-.511718.585938.230468.585938.511718.585938.507813-.261719.507813-.585938zm0 0" fill="#333"/><path d="m4.175781 6c0-.855469-.359375-1.546875-.800781-1.546875-.445312 0-.800781.691406-.800781 1.546875s.355469 1.546875.800781 1.546875c.441406 0 .800781-.691406.800781-1.546875zm0 0" fill="#d00b5a"/><path d="m3.921875 6c0-.324219-.230469-.585938-.511719-.585938s-.507812.261719-.507812.585938.226562.585938.507812.585938.511719-.261719.511719-.585938zm0 0" fill="#333"/></g></svg>