<svg height="12pt" viewBox="0 0 12 12" width="12pt" xmlns="http://www.w3.org/2000/svg"><path d="m2.800781.710938h6.398438c1.152343 0 2.089843.9375 2.089843 2.089843v6.398438c0 1.152343-.9375 2.089843-2.089843 2.089843h-6.398438c-1.152343 0-2.089843-.9375-2.089843-2.089843v-6.398438c0-1.152343.9375-2.089843 2.089843-2.089843zm0 0" fill="#ccc" fill-rule="evenodd"/><g fill="none" stroke="#259cda" stroke-width="1.224702"><path d="m28.50582 15.999649c0-4.146672-5.603498-7.501143-12.50582-7.501143s-12.50582 3.354471-12.50582 7.501143c0 4.146671 5.603498 7.501142 12.50582 7.501142s12.50582-3.354471 12.50582-7.501142zm0 0" transform="matrix(.31579 0 0 .315577 .947352 .95088)"/><path d="m34.359262-5.850976c-.007307-4.146393-5.600961-7.504441-12.50419-7.504965-6.903229-.000523-12.498717 3.353549-12.50213 7.493753.007307 4.146393 5.600961 7.504441 12.50419 7.504964 6.903229.000524 12.498718-3.353548 12.50213-7.493752zm0 0" transform="matrix(.157895 .273298 -.273483 .157788 .947352 .95088)"/><path d="m18.359262 21.861837c-.007307-4.146393-5.600961-7.504441-12.50419-7.504965-6.903229-.000523-12.498717 3.353549-12.50213 7.493753.007307 4.146393 5.600961 7.504441 12.50419 7.504964 6.903229.000524 12.498718-3.353548 12.50213-7.493752zm0 0" transform="matrix(-.157895 .273298 .273483 .157788 .947352 .95088)"/></g><path d="m5.367188 4.105469v.632812c-.078126.003907-.21875 0-.292969 0h-.335938v.316407s.113281-.007813.109375 0c .144532-.003907.191406.101562.203125.171874v1.5625c-.003906.042969 0 .15625-.101562.15625.003906.003907-.210938 0-.210938 0v .316407h.355469c.085938-.003907.191406 0 .273438 0v .632812l.316406-.007812v-.625h.3125l.007812.632812h.316406l-.007812-.632812c.601562-.042969.949219-.113281.949219-.789063 0-.472656-.316407-.628906-.6875-.628906.234375-.019531.371093-.160156.375-.554688 0-.234374-.140625-.550781-.316407-.550781h-.316406v-.632812h-.316406v.632812c-.09375 0-.21875-.003906-.316406 0v-.632812zm.316406.949219c.445312 0 .632812 0 .632812.3125 0 .316406-.230468.316406-.632812.316406zm0 .945312c.632812 0 .949218 0 .949218.472656s-.316406.472656-.949218.472656zm0 0" fill="#259cda"/></svg>