<svg height="12pt" viewBox="0 0 12 12" width="12pt" xmlns="http://www.w3.org/2000/svg"><path d="m2.800781.710938h6.398438c1.152343 0 2.089843.9375 2.089843 2.089843v6.398438c0 1.152343-.9375 2.089843-2.089843 2.089843h-6.398438c-1.152343 0-2.089843-.9375-2.089843-2.089843v-6.398438c0-1.152343.9375-2.089843 2.089843-2.089843zm0 0" fill="#c41f5b" fill-rule="evenodd"/><path d="m9 7.5h-3v3zm0 0" fill="#fff"/><path d="m9 4.5h-3v3zm0 0" fill="#fff"/><path d="m9 1.5h-3v3zm0 0" fill="#ea7aa2"/><path d="m3 7.5h3v3zm0 0" fill="#e0e0e0"/><path d="m3 1.5h3v6h-3zm0 0" fill="#e0e0e0"/></svg>