<svg height="12pt" viewBox="0 0 12 12" width="12pt" xmlns="http://www.w3.org/2000/svg"><path d="m2.800781.710938h6.398438c1.152343 0 2.089843.9375 2.089843 2.089843v6.398438c0 1.152343-.9375 2.089843-2.089843 2.089843h-6.398438c-1.152343 0-2.089843-.9375-2.089843-2.089843v-6.398438c0-1.152343.9375-2.089843 2.089843-2.089843zm0 0" fill="#ccc" fill-rule="evenodd"/><path d="m7.070312 3.886719c.878907.878906.878907 2.304687 0 3.183593-.878906.878907-2.304687.878907-3.183593 0-.878907-.878906-.878907-2.304687 0-3.183593.878906-.878907 2.304687-.878907 3.183593 0zm0 0" fill="#484848"/><path d="m6.539062 6.539062c.148438-.144531.382813-.144531.53125 0l1.589844 1.589844c.148438.148438.148438.386719 0 .53125-.144531.148438-.382812.148438-.53125 0l-1.589844-1.589844c-.144531-.148437-.144531-.382812 0-.53125zm0 0" fill="#484848"/><path d="m6.539062 4.414062c-.589843-.589843-1.53125-.589843-2.117187 0-.589844.585938-.589844 1.527344 0 2.117188.585937.585938 1.527344.585938 2.117187 0 .585938-.589844.585938-1.53125 0-2.117188zm0 0" fill="#5d99ff"/></svg>