<svg height="12pt" viewBox="0 0 12 12" width="12pt" xmlns="http://www.w3.org/2000/svg"><g fill-rule="evenodd"><path d="m2.800781.710938h6.398438c1.152343 0 2.089843.9375 2.089843 2.089843v6.398438c0 1.152343-.9375 2.089843-2.089843 2.089843h-6.398438c-1.152343 0-2.089843-.9375-2.089843-2.089843v-6.398438c0-1.152343.9375-2.089843 2.089843-2.089843zm0 0" fill="#4f4f4f"/><path d="m9.453125 11.28125c2.128906-3.75-.5-5.910156-3.101563-6.472656 2.75 1.785156.3125 5.296875-3.195312 6.476562 1.515625-.007812 4.78125.011719 6.296875-.003906zm0 0" fill="#ff6363"/><path d="m3.074219.71875c-3.1093752 3.59375-.023438 5.910156 2.578125 6.472656-2.753906-1.785156-.511719-5.117187 1.796875-6.476562-1.515625.007812-2.855469-.011719-4.375.003906zm0 0" fill="#ff6363"/></g><path d="m6.898438 6.90625c-.300782.300781-.949219.140625-1.449219-.359375s-.660157-1.148437-.359375-1.453125c.300781-.300781.949218-.140625 1.449218.359375s.660157 1.148437.359376 1.453125zm0 0" fill="#ff6363"/></svg>