<svg height="12pt" viewBox="0 0 12 12" width="12pt" xmlns="http://www.w3.org/2000/svg"><path d="m2.800781.710938h6.398438c1.152343 0 2.089843.9375 2.089843 2.089843v6.398438c0 1.152343-.9375 2.089843-2.089843 2.089843h-6.398438c-1.152343 0-2.089843-.9375-2.089843-2.089843v-6.398438c0-1.152343.9375-2.089843 2.089843-2.089843zm0 0" fill="#4d4d4d" fill-rule="evenodd"/><path d="m6.269531 2.644531c0 .148438-.121093.269531-.269531.269531s-.269531-.121093-.269531-.269531c0-.148437.121093-.265625.269531-.265625s.269531.117188.269531.265625zm0 0" fill="#535353"/><path d="m5.996094 2.644531c-.019532 0-.039063.003907-.058594.007813-.027344 0-.050781.003906-.074219.007812-.007812 0-.011719.003906-.019531.003906-.632812.136719-.953125 1.066407-.914062 1.953126-.003907.027343-.003907.054687-.003907.078124l-2.605469 1.671876c-.050781.023437-.074218.066406-.078124.125v.84375c0 .050781.023437.089843.0625.121093.042968.027344.09375.035157.144531.023438l2.421875-.757813.375 1.769532-.964844.429687c-.03125.03125-.046875.066406-.046875.105469l.074219.59375 1.691406-.265625 1.691406.265625.074219-.59375c0-.039063-.015625-.074219-.046875-.105469l-.972656-.429687.382812-1.769532 2.425782.757813c.050781.011719.097656.003906.140624-.023438.039063-.03125.0625-.070312.0625-.121093v-.84375c-.003906-.058594-.027343-.101563-.078124-.125l-2.605469-1.671876c0-.023437 0-.050781 0-.078124.039062-.886719-.285157-1.816407-.917969-1.953126-.007812 0-.011719-.003906-.019531-.003906-.023438-.003906-.046875-.007812-.074219-.007812-.019531-.003906-.039062-.007813-.058594-.007813h-.003906zm0 0" fill="#fead00"/><path d="m4.121094 5.210938-.535156.34375v1.570312l.535156-.167969zm3.757812 0v1.746093l.535156.167969v-1.570312zm-4.5625.515624-.535156.34375v1.304688l.535156-.167969zm5.367188 0v1.480469l.535156.167969v-1.304688zm0 0" fill="#fe5600"/><path d="m4.824219 2.644531h2.351562c.089844 0 .164063.0625.164063.136719s-.074219.132812-.164063.132812h-2.351562c-.089844 0-.164063-.058593-.164063-.132812s.074219-.136719.164063-.136719zm0 0" fill="#292929"/><path d="m7.074219 5.6875c0 .691406-.480469 1.25-1.074219 1.25s-1.074219-.558594-1.074219-1.25.480469-.894531 1.074219-.894531 1.074219.203125 1.074219.894531zm0 0" fill="#292929"/></svg>