<svg height="12pt" viewBox="0 0 12 12" width="12pt" xmlns="http://www.w3.org/2000/svg"><path d="m2.800781.710938h6.398438c1.152343 0 2.089843.9375 2.089843 2.089843v6.398438c0 1.152343-.9375 2.089843-2.089843 2.089843h-6.398438c-1.152343 0-2.089843-.9375-2.089843-2.089843v-6.398438c0-1.152343.9375-2.089843 2.089843-2.089843zm0 0" fill="#7e100e" fill-rule="evenodd"/><path d="m4.054688 2.667969h3.890624l.277344.554687v5.832032l-.277344.277343h-3.890624l-.277344-.277343v-5.832032zm0 0" fill="#c2352a"/><g fill="#fff"><path d="m4.054688 2.390625h3.890624v.277344h-3.890624zm0 0"/><path d="m3.777344 3.222656h4.445312v.277344h-4.445312zm0 0"/><path d="m3.777344 8.777344h4.445312v.277344h-4.445312zm0 0"/><path d="m4.054688 9.332031h3.890624v.277344h-3.890624zm0 0"/></g><path d="m-34.097236 4.343883 7.646366 8.055992" fill="none" stroke="#fff" stroke-width="1.191641" transform="matrix(.314692 0 0 .314692 14.777002 2.000202)"/><path d="m-30.100272 8.316021v7.038132" fill="none" stroke="#fff" stroke-width="1.191641" transform="matrix(.314692 0 0 .314692 14.777002 2.000202)"/><g fill="#fff"><path d="m7.390625 6.140625c0 .382813-.3125.691406-.695313.691406-.382812 0-.695312-.308593-.695312-.691406 0-.386719.3125-.695313.695312-.695313.382813 0 .695313.308594.695313.695313zm0 0"/><path d="m6 7.25c0 .382812-.3125.695312-.695312.695312-.382813 0-.695313-.3125-.695313-.695312s.3125-.695312.695313-.695312c.382812 0 .695312.3125.695312.695312zm0 0"/><path d="m6 4.75c0 .382812-.3125.695312-.695312.695312-.382813 0-.695313-.3125-.695313-.695312s.3125-.695312.695313-.695312c.382812 0 .695312.3125.695312.695312zm0 0"/></g></svg>