<svg height="12pt" viewBox="0 0 12 12" width="12pt" xmlns="http://www.w3.org/2000/svg"><path d="m2.800781.710938h6.398438c1.152343 0 2.089843.9375 2.089843 2.089843v6.398438c0 1.152343-.9375 2.089843-2.089843 2.089843h-6.398438c-1.152343 0-2.089843-.9375-2.089843-2.089843v-6.398438c0-1.152343.9375-2.089843 2.089843-2.089843zm0 0" fill="#e11966" fill-rule="evenodd"/><g fill="#fff"><path d="m2.625 2.0625h1.125v5.25h-1.125zm0 0"/><path d="m4.5 3.5625h1.125v6.375h-1.125zm0 0"/><path d="m6.375 3.5625h1.125v6.375h-1.125zm0 0"/><path d="m8.25 3.5625h1.125v3.75h-1.125zm0 0"/></g></svg>