<svg height="32" width="32" xmlns="http://www.w3.org/2000/svg"><rect fill="#ee8827" fill-rule="evenodd" height="28.203388" ry="5.575182" width="28.203388" x="1.898306" y="1.898306"/><g transform="translate(48 .72695)"><path d="m-34.104143 8.609929a3.5072563 3.5072563 0 0 0 -3.506906 3.506906v2.104143h-.701381a3.5072563 3.5072563 0 0 0 -3.506906 3.506906v.701381a3.5072563 3.5072563 0 0 0 3.506906 3.506906h12.62486a3.5072563 3.5072563 0 0 0 3.506906-3.506906v-4.208287a3.5072563 3.5072563 0 0 0 -3.506906-3.506906h-.294525a3.5072563 3.5072563 0 0 0 -3.212381-2.104143z" fill="#fff" stroke-linecap="round" stroke-linejoin="round" stroke-width="10"/><path d="m-34.104143 12.116835v2.805524h7.715192v2.805525h-11.923479v.701381h12.62486v-4.208287h-7.715192v-1.402762h4.208286v-.701381z" fill="#ee8827"/></g></svg>