<svg height="12pt" viewBox="0 0 12 12" width="12pt" xmlns="http://www.w3.org/2000/svg"><g fill-rule="evenodd"><path d="m2.800781.710938h6.398438c1.152343 0 2.089843.9375 2.089843 2.089843v6.398438c0 1.152343-.9375 2.089843-2.089843 2.089843h-6.398438c-1.152343 0-2.089843-.9375-2.089843-2.089843v-6.398438c0-1.152343.9375-2.089843 2.089843-2.089843zm0 0" fill="#ff7d00"/><path d="m10.675781 1.324219c-.375-.378907-.898437-.613281-1.476562-.613281h-6.394531c-1.160157 0-2.09375.933593-2.09375 2.089843v6.394531c0 1.160157.933593 2.09375 2.09375 2.09375h3.195312v-5.289062zm0 0" fill="#ff7d00"/><path d="m10.675781 1.324219-4.675781 4.675781v5.289062h3.199219c1.15625 0 2.089843-.933593 2.089843-2.09375v-6.394531c0-.578125-.234374-1.101562-.613281-1.476562zm0 0" fill="#ff9025"/></g><path d="m8.835938 2.980469-3.019532 2.835937.367188.371094 2.835937-3.023438zm0 0" fill="#5e5e5e"/><path d="m5.871094 6v4.125h.257812v-4.125zm0 0" fill="#fff"/><path d="m4.03125 3.84375-.183594.183594 1.96875 2.160156.371094-.371094zm0 0" fill="#3f3f3f"/><path d="m6.257812 6c0 .144531-.113281.257812-.257812.257812-.140625 0-.257812-.113281-.257812-.257812 0-.140625.117187-.257812.257812-.257812.144531 0 .257812.117187.257812.257812zm0 0" fill="#3f3f3f"/></svg>