<svg height="32" width="32" xmlns="http://www.w3.org/2000/svg"><rect fill="#5db43e" fill-rule="evenodd" height="28.203388" ry="5.575182" width="28.203388" x="1.898306" y="1.898306"/><g transform="translate(35.334038 1.751473)"><path d="m-23.240017 3.8502783c-.151468.016483-.285273.141198-.312959.2910241l-.301262 1.5282419c-.541096.2116117-1.049842.5026739-1.496069.8599113l-1.484369-.5016147c-.154246-.053181-.341234.014446-.424105.1550182l-1.428798 2.478824c-.08048.1425334-.04661.3393025.07751.446042l1.183109 1.0383269c-.04164.278366-.06726.558244-.06726.848211 0 .289976.0256.571291.06726.849673l-1.183109 1.036866c-.124106.106736-.157997.30497-.07751.447505l1.428798 2.477361c.08287.140543.269859.209667.424105.15648l1.484369-.501615c.446233.357212.954973.64828 1.496069.859912l.301262 1.528242c.03056.160088.183635.288803.346596.291023h2.857595c.162961-.002.31458-.130935.345134-.291023l.301261-1.528242c.541096-.211611 1.049843-.502679 1.496069-.859912l1.484369.501615c.154241.05318.342698-.01592.425569-.15648l1.428796-2.477361c.08048-.142535.04515-.340766-.07897-.447505l-1.183107-1.036866c.04164-.278366.06726-.559656.06726-.849673 0-.289977-.02566-.56983-.06726-.848211l1.183107-1.0383269c.124106-.106736.159456-.3035086.07897-.446042l-1.428796-2.478824c-.08287-.1405434-.271328-.208204-.425569-.1550182l-1.484369.5016147c-.446534-.3574826-.955126-.6482797-1.496069-.8599113l-.301261-1.5297043c-.03056-.1600886-.182173-.287347-.345134-.2895617h-2.857595c-.01121-.0002603-.0225-.0002603-.03363 0zm1.462435 4.0831128c1.69106 0 3.060872 1.369811 3.060872 3.0608719 0 1.691061-1.369812 3.062335-3.060872 3.062335-1.691062 0-3.062336-1.371274-3.062336-3.062335 0-1.6910609 1.371274-3.0608719 3.062336-3.0608719z" fill="#fff" stroke-width=".681554"/><path d="m-15.098008 15.072837c-.100459-.000044-.197094.07213-.225963.168359l-.306837.980152c-.369814.09998-.724111.254353-1.042164.456576l-.937056-.435022c-.09729-.0459-.22471-.01488-.289081.07126l-1.113928 1.522533c-.06295.08767-.05483.219066.01888.297912l.701179.76526c-.04721.17948-.08404.361097-.104791.55116-.02075.19007-.02411.376293-.01672.561747l-.849693.59496c-.08899.06108-.125388.188591-.08282.287778l.759234 1.72608c.04426.09805.161878.156743.266788.132917l1.008854-.22256c.266926.266074.579558.493269.919083.67071l.0881 1.023272c.0086.10712.0997.202442.206356.21556l1.873057.204507c.106955.01037.215568-.06331.247052-.166057l.306836-.980152c.369815-.09998.724111-.254356 1.042163-.456575l.937057.435022c.0973.0459.225768.01408.290145-.07211l1.113822-1.521573c.06296-.08767.05398-.22013-.01974-.298977l-.701283-.7643c.04721-.17948.08414-.362023.104896-.55212.02075-.19007.02396-.37534.01661-.560787l.849796-.595919c.088985-.06108.1262357-.187529.083684-.286714l-.759128-1.72704c-.04426-.09804-.162946-.155888-.267852-.132069l-1.008854.222562c-.267104-.266275-.579657-.49328-.919083-.670711l-.08799-1.024229c-.0086-.107122-.09884-.201384-.205501-.214499l-1.873058-.204507c-.0073-.000973-.01473-.0018-.02205-.0024zm.666365 2.781006c1.108432.121022 1.908267 1.116919 1.787244 2.225354-.121022 1.108433-1.117024 1.909225-2.225457 1.788203-1.108435-.121023-1.909123-1.117983-1.788101-2.226416.121023-1.108435 1.117879-1.908164 2.226314-1.787141z" fill="#9ce173" stroke-width=".681554"/></g></svg>