<svg height="12pt" viewBox="0 0 12 12" width="12pt" xmlns="http://www.w3.org/2000/svg"><path d="m2.800781.710938h6.398438c1.152343 0 2.089843.9375 2.089843 2.089843v6.398438c0 1.152343-.9375 2.089843-2.089843 2.089843h-6.398438c-1.152343 0-2.089843-.9375-2.089843-2.089843v-6.398438c0-1.152343.9375-2.089843 2.089843-2.089843zm0 0" fill="#66a6de" fill-rule="evenodd"/><path d="m5.652344 3.570312c0 .957032-.777344 1.734376-1.734375 1.734376s-1.734375-.777344-1.734375-1.734376c0-.957031.777344-1.734374 1.734375-1.734374s1.734375.777343 1.734375 1.734374zm0 0" fill="#fff"/><path d="m5.652344 8.429688c0 .957031-.777344 1.734374-1.734375 1.734374s-1.734375-.777343-1.734375-1.734374c0-.957032.777344-1.734376 1.734375-1.734376s1.734375.777344 1.734375 1.734376zm0 0" fill="#4d4d4d"/><path d="m9.816406 8.429688c0-.957032-.777344-1.734376-1.734375-1.734376s-1.734375.777344-1.734375 1.734376c0 .957031.777344 1.734374 1.734375 1.734374s1.734375-.777343 1.734375-1.734374zm0 0" fill="#fff"/><path d="m9.816406 3.570312c0-.957031-.777344-1.734374-1.734375-1.734374s-1.734375.777343-1.734375 1.734374c0 .957032.777344 1.734376 1.734375 1.734376s1.734375-.777344 1.734375-1.734376zm0 0" fill="#4d4d4d"/></svg>