<svg height="12pt" viewBox="0 0 12 12" width="12pt" xmlns="http://www.w3.org/2000/svg"><path d="m2.800781.710938h6.398438c1.152343 0 2.089843.9375 2.089843 2.089843v6.398438c0 1.152343-.9375 2.089843-2.089843 2.089843h-6.398438c-1.152343 0-2.089843-.9375-2.089843-2.089843v-6.398438c0-1.152343.9375-2.089843 2.089843-2.089843zm0 0" fill="#0286c2" fill-rule="evenodd"/><path d="m6.03125 4.6875c-.480469-.011719-.929688.238281-1.167969.65625-.363281.625-.148437 1.429688.480469 1.792969.628906.359375 1.429688.144531 1.792969-.480469.363281-.628906.148437-1.433594-.480469-1.792969-.191406-.113281-.40625-.171875-.625-.175781zm-.058594.75c.109375-.007812.214844.019531.308594.074219.269531.15625.359375.5.207031.769531-.15625.265625-.5.359375-.769531.203125s-.359375-.5-.207031-.765625c.097656-.167969.269531-.273438.460937-.28125zm0 0" fill="#cae8ff"/><path d="m6.796875 4.40625 1.589844-1.589844.398437 1.191406-1.195312 1.195313zm0 0" fill="#71c1ff"/><path d="m3.214844 3.214844c-1.535156 1.535156-1.535156 4.03125 0 5.566406 1.539062 1.539062 4.03125 1.539062 5.570312 0 1.535156-1.535156 1.535156-4.03125 0-5.566406-.136718-.132813-.277344-.253906-.429687-.367188l-.808594.804688c.160156.105468.308594.222656.441406.355468 1.097657 1.101563 1.097657 2.878907 0 3.980469-1.097656 1.097657-2.878906 1.097657-3.976562 0-1.097657-1.101562-1.097657-2.878906 0-3.980469.625-.621093 1.507812-.917968 2.382812-.792968l.925781-.921875c-1.433593-.511719-3.027343-.152344-4.105468.921875zm0 0" fill="#71c1ff"/></svg>