<svg height="12pt" viewBox="0 0 12 12" width="12pt" xmlns="http://www.w3.org/2000/svg"><path d="m2.800781.710938h6.398438c1.152343 0 2.089843.9375 2.089843 2.089843v6.398438c0 1.152343-.9375 2.089843-2.089843 2.089843h-6.398438c-1.152343 0-2.089843-.9375-2.089843-2.089843v-6.398438c0-1.152343.9375-2.089843 2.089843-2.089843zm0 0" fill="#43c22a" fill-rule="evenodd"/><path d="m6.234375 10.421875 4.1875-4.1875c.128906-.128906.128906-.339844 0-.46875l-4.1875-4.1875c-.128906-.128906-.339844-.128906-.46875 0l-4.1875 4.1875c-.128906.128906-.128906.339844 0 .46875l4.1875 4.1875c.128906.128906.339844.128906.46875 0zm0 0" fill="#fff"/><g fill="#43c22a"><path d="m4.089844 3.742188v.347656h.347656v4.167968h.519531l2.257813-4.167968h.347656v-.347656h-1.390625v.347656h.347656l-1.386719 2.429687v-2.429687h.347657v-.347656zm0 0"/><path d="m5.828125 7.214844h.34375v1.042968h-.34375zm0 0"/><path d="m5.828125 6.519531h.34375v.347657h-.34375zm0 0"/><path d="m6.519531 7.214844v1.042968h.347657v-.425781l.347656.253907.347656-.261719v.433593h.347656v-1.042968h-.347656l-.347656.347656-.347656-.347656zm0 0"/></g></svg>