<svg height="12pt" viewBox="0 0 12 12" width="12pt" xmlns="http://www.w3.org/2000/svg"><path d="m2.800781.710938h6.398438c1.152343 0 2.089843.9375 2.089843 2.089843v6.398438c0 1.152343-.9375 2.089843-2.089843 2.089843h-6.398438c-1.152343 0-2.089843-.9375-2.089843-2.089843v-6.398438c0-1.152343.9375-2.089843 2.089843-2.089843zm0 0" fill="#2a5083" fill-rule="evenodd"/><path d="m6 2.625c-1.84375 0-3.375 1.453125-3.375 3.210938 0 1.761718 1.53125 3.164062 3.375 3.164062.257812 0 .511719-.050781.765625-.105469.515625.339844 1.148437.574219 1.867187.445313.328126-.0625.460938-.386719.230469-.628906-.246093-.261719-.402343-.421876-.410156-.769532.5625-.574218.921875-1.308594.921875-2.105468 0-1.757813-1.53125-3.210938-3.375-3.210938zm0 .75c1.449219 0 2.625 1.136719 2.625 2.460938 0 .570312-.257812 1.121093-.707031 1.582031-.140625.144531-.21875.339843-.214844.539062.007813.222657.089844.425781.175781.613281-.242187-.054687-.476562-.152343-.703125-.300781-.167969-.113281-.375-.152343-.574219-.109375-.238281.054688-.4375.089844-.601562.089844-1.460938 0-2.625-1.089844-2.625-2.414062 0-1.320313 1.175781-2.460938 2.625-2.460938zm0 0" fill="#fff"/><path d="m13 17.995263s1.604167 1 3 1 3-1 3-1" fill="none" stroke="#fff" stroke-linecap="round" stroke-linejoin="round" stroke-width="2" transform="matrix(.375 0 0 .375 0 -.006036)"/></svg>