<svg height="12pt" viewBox="0 0 12 12" width="12pt" xmlns="http://www.w3.org/2000/svg"><g fill-rule="evenodd"><g fill="#ccc"><path d="m .710938 5.6875c.015624.058594.046874.117188.101562.117188h2.117188c.066406 0 .121093-.0625.121093-.140626v-2.078124c0-.078126-.054687-.140626-.121093-.140626h-2.117188c-.054688 0-.085938.058594-.101562.117188zm0 0"/><path d="m .710938 8.4375c.015624.058594.046874.117188.101562.117188h2.117188c.066406 0 .121093-.0625.121093-.140626v-2.078124c0-.078126-.054687-.140626-.121093-.140626h-2.117188c-.054688 0-.085938.058594-.101562.117188zm0 0"/><path d="m2.949219 11.289062c.050781-.015624.101562-.054687.101562-.121093v-2.078125c0-.078125-.054687-.140625-.121093-.140625h-2.117188c-.054688 0-.085938.058593-.101562.117187v.132813c0 1.15625.933593 2.089843 2.089843 2.089843zm0 0"/><path d="m5.699219 11.289062c.054687-.015624.105469-.054687.105469-.121093v-2.078125c0-.078125-.054688-.140625-.121094-.140625h-2.121094c-.066406 0-.117188.0625-.117188.140625v2.078125c0 .066406.050782.105469.101563.121093zm0 0"/><path d="m8.453125 11.289062c.050781-.015624.101563-.054687.101563-.121093v-2.078125c0-.078125-.050782-.140625-.117188-.140625h-2.121094c-.066406 0-.121094.0625-.121094.140625v2.078125c0 .066406.050782.105469.105469.121093zm0 0"/><path d="m11.289062 9.066406c-.015624-.058594-.046874-.117187-.101562-.117187h-2.117188c-.066406 0-.121093.0625-.121093.140625v2.078125c0 .066406.050781.105469.101562.121093h.148438c1.15625 0 2.089843-.933593 2.089843-2.089843zm0 0"/><path d="m9.050781.710938c-.050781.015624-.101562.054687-.101562.121093v2.078125c0 .078125.054687.140625.121093.140625h2.117188c.054688 0 .085938-.058593.101562-.117187v-.132813c0-1.15625-.933593-2.089843-2.089843-2.089843zm0 0"/></g><path d="m6.300781.710938c-.054687.015624-.105469.054687-.105469.121093v2.078125c0 .078125.054688.140625.121094.140625h2.121094c.066406 0 .117188-.0625.117188-.140625v-2.078125c0-.066406-.050782-.105469-.101563-.121093zm0 0" fill="#ff5757"/><path d="m3.546875.710938c-.050781.015624-.101563.054687-.101563.121093v2.078125c0 .078125.050782.140625.117188.140625h2.121094c.066406 0 .121094-.0625.121094-.140625v-2.078125c0-.066406-.050782-.105469-.105469-.121093zm0 0" fill="#ccc"/><path d="m .710938 2.933594v.628906c.015624-.058594.046874-.117188.101562-.117188h2.117188c.066406 0 .121093.0625.121093.140626v2.078124c0 .078126-.054687.140626-.121093.140626h-2.117188c-.054688 0-.085938-.058594-.101562-.117188v.625c.015624-.058594.046874-.117188.101562-.117188h2.117188c.066406 0 .121093.0625.121093.140626v2.078124c0 .078126-.054687.140626-.121093.140626h-2.117188c-.054688 0-.085938-.058594-.101562-.117188v.628906c.015624-.058594.046874-.117187.101562-.117187h2.117188c.066406 0 .121093.0625.121093.140625v2.078125c0 .066406-.050781.105469-.101562.121093h.597656c-.050781-.015624-.101563-.054687-.101563-.121093v-2.078125c0-.078125.050782-.140625.117188-.140625h2.121094c.066406 0 .121094.0625.121094.140625v2.078125c0 .066406-.050782.105469-.105469.121093h.601562c-.054687-.015624-.105469-.054687-.105469-.121093v-2.078125c0-.078125.054688-.140625.121094-.140625h2.121094c.066406 0 .117188.0625.117188.140625v2.078125c0 .066406-.050782.105469-.101563.121093h.597656c-.050781-.015624-.101562-.054687-.101562-.121093v-2.078125c0-.078125.054687-.140625.121093-.140625h2.117188c.054688 0 .085938.058593.101562.117187v-.628906c-.015624.058594-.046874.117188-.101562.117188h-2.117188c-.066406 0-.121093-.0625-.121093-.140626v-2.078124c0-.078126.054687-.140626.121093-.140626h2.117188c.054688 0 .085938.058594.101562.121094v-.632812c-.015624.0625-.046874.121094-.101562.121094h-2.117188c-.066406 0-.121093-.0625-.121093-.140626v-2.078124c0-.078126.054687-.140626.121093-.140626h2.117188c.054688 0 .085938.058594.101562.117188v-.628906c-.015624.058594-.046874.117187-.101562.117187h-2.117188c-.066406 0-.121093-.0625-.121093-.140625v-2.078125c0-.066406.050781-.105469.101562-.121093h-.597656c.050781.015624.101563.054687.101563.121093v2.078125c0 .078125-.050782.140625-.117188.140625h-2.121094c-.066406 0-.121094-.0625-.121094-.140625v-2.078125c0-.066406.050782-.105469.105469-.121093h-.601562c.054687.015624.105469.054687.105469.121093v2.078125c0 .078125-.054688.140625-.121094.140625h-2.121094c-.066406 0-.117188-.0625-.117188-.140625v-2.078125c0-.066406.050782-.105469.101563-.121093h-.597656c.050781.015624.101562.054687.101562.121093v2.078125c0 .078125-.054687.140625-.121093.140625h-2.117188c-.054688 0-.085938-.058593-.101562-.117187zm0 0" fill="#ececec"/><path d="m .710938 2.933594c.015624.058594.046874.117187.101562.117187h2.117188c.066406 0 .121093-.0625.121093-.140625v-2.078125c0-.066406-.050781-.105469-.101562-.121093h-.148438c-1.15625 0-2.089843.933593-2.089843 2.089843zm0 0" fill="#4f4f4f"/><path d="m6.316406 6.195312c-.066406 0-.121094.0625-.121094.140626v2.078124c0 .078126.054688.140626.121094.140626h2.121094c.066406 0 .117188-.0625.117188-.140626v-2.078124c0-.078126-.050782-.140626-.117188-.140626zm0 0" fill="#0286c2"/><path d="m6.316406 6.195312h2.121094c.066406 0 .117188.0625.117188.140626v2.078124c0 .078126-.050782.140626-.117188.140626h-2.121094c-.066406 0-.121094-.0625-.121094-.140626v-2.078124c0-.078126.054688-.140626.121094-.140626zm0 0" fill="#ccc"/><path d="m3.5625 6.195312c-.066406 0-.117188.0625-.117188.140626v2.078124c0 .078126.050782.140626.117188.140626h2.121094c.066406 0 .121094-.0625.121094-.140626v-2.078124c0-.078126-.054688-.140626-.121094-.140626zm0 0" fill="#0286c2"/><path d="m3.5625 6.195312h2.121094c.066406 0 .121094.0625.121094.140626v2.078124c0 .078126-.054688.140626-.121094.140626h-2.121094c-.066406 0-.117188-.0625-.117188-.140626v-2.078124c0-.078126.050782-.140626.117188-.140626zm0 0" fill="#4f4f4f"/><path d="m6.316406 3.445312c-.066406 0-.121094.0625-.121094.140626v2.078124c0 .078126.054688.140626.121094.140626h2.121094c.066406 0 .117188-.0625.117188-.140626v-2.078124c0-.078126-.050782-.140626-.117188-.140626zm0 0" fill="#0286c2"/><path d="m6.316406 3.445312h2.121094c.066406 0 .117188.0625.117188.140626v2.078124c0 .078126-.050782.140626-.117188.140626h-2.121094c-.066406 0-.121094-.0625-.121094-.140626v-2.078124c0-.078126.054688-.140626.121094-.140626zm0 0" fill="#ff5757"/><path d="m3.5625 3.445312c-.066406 0-.117188.0625-.117188.140626v2.078124c0 .078126.050782.140626.117188.140626h2.121094c.066406 0 .121094-.0625.121094-.140626v-2.078124c0-.078126-.054688-.140626-.121094-.140626zm0 0" fill="#0286c2"/><path d="m3.5625 3.445312h2.121094c.066406 0 .121094.0625.121094.140626v2.078124c0 .078126-.054688.140626-.121094.140626h-2.121094c-.066406 0-.117188-.0625-.117188-.140626v-2.078124c0-.078126.050782-.140626.117188-.140626zm0 0" fill="#ccc"/><path d="m11.289062 6.316406c-.015624-.0625-.046874-.121094-.101562-.121094h-2.117188c-.066406 0-.121093.0625-.121093.140626v2.078124c0 .078126.054687.140626.121093.140626h2.117188c.054688 0 .085938-.058594.101562-.117188zm0 0" fill="#4ac73e"/><path d="m11.289062 3.5625c-.015624-.058594-.046874-.117188-.101562-.117188h-2.117188c-.066406 0-.121093.0625-.121093.140626v2.078124c0 .078126.054687.140626.121093.140626h2.117188c.054688 0 .085938-.058594.101562-.121094zm0 0" fill="#ccc"/></g></svg>