<svg height="12pt" viewBox="0 0 12 12" width="12pt" xmlns="http://www.w3.org/2000/svg"><path d="m2.800781.710938h6.398438c1.152343 0 2.089843.9375 2.089843 2.089843v6.398438c0 1.152343-.9375 2.089843-2.089843 2.089843h-6.398438c-1.152343 0-2.089843-.9375-2.089843-2.089843v-6.398438c0-1.152343.9375-2.089843 2.089843-2.089843zm0 0" fill="#d13232" fill-rule="evenodd"/><g fill="#fff"><path d="m9.953125 7.214844v.304687h-7.90625v-.304687zm0 0"/><path d="m9.953125 8.128906v.304688h-7.90625v-.304688zm0 0"/><path d="m9.953125 9.039062v.304688h-7.90625v-.304688zm0 0"/><path d="m9.953125 4.480469v.304687h-7.90625v-.304687zm0 0"/><path d="m9.953125 5.390625v.304687h-7.90625v-.304687zm0 0"/><path d="m9.953125 6.304688v.304687h-7.90625v-.304687zm0 0"/><path d="m9.953125 3.566406v.304688h-7.90625v-.304688zm0 0"/><path d="m9.953125 2.65625v.304688h-7.90625v-.304688zm0 0"/><path d="m4.785156 9.953125h-.304687v-7.90625h.304687zm0 0"/><path d="m3.871094 9.953125h-.304688v-7.90625h.304688zm0 0"/><path d="m2.960938 9.953125h-.304688v-7.90625h.304688zm0 0"/><path d="m7.519531 9.953125h-.304687v-7.90625h.304687zm0 0"/><path d="m6.609375 9.953125h-.304687v-7.90625h.304687zm0 0"/><path d="m5.695312 9.953125h-.304687v-7.90625h.304687zm0 0"/><path d="m8.433594 9.953125h-.304688v-7.90625h.304688zm0 0"/><path d="m9.34375 9.953125h-.304688v-7.90625h.304688zm0 0"/></g><path d="m9.648438 9.28125v-6.5625c0-.203125-.203126-.367188-.457032-.367188h-6.382812c-.253906 0-.457032.164063-.457032.367188v6.5625c0 .203125.203126.367188.457032.367188h6.382812c.253906 0 .457032-.164063.457032-.367188zm0 0" fill="#b7b7b7"/><path d="m3.566406 3.265625h4.867188c.167968 0 .300781.132813.300781.300781v4.867188c0 .167968-.132813.300781-.300781.300781h-4.867188c-.167968 0-.300781-.132813-.300781-.300781v-4.867188c0-.167968.132813-.300781.300781-.300781zm0 0" fill="#d13232"/></svg>