<svg height="12pt" viewBox="0 0 12 12" width="12pt" xmlns="http://www.w3.org/2000/svg"><path d="m2.800781.710938h6.398438c1.152343 0 2.089843.9375 2.089843 2.089843v6.398438c0 1.152343-.9375 2.089843-2.089843 2.089843h-6.398438c-1.152343 0-2.089843-.9375-2.089843-2.089843v-6.398438c0-1.152343.9375-2.089843 2.089843-2.089843zm0 0" fill="#ccc" fill-rule="evenodd"/><path d="m3.375 2.4375h5.25v3h-5.25zm0 0" fill="#4d4d4d" fill-rule="evenodd"/><path d="m3.675781 6.9375c-.144531 0-.261719.117188-.261719.261719v.527343h-.527343c-.144531 0-.261719.117188-.261719.261719v.523438c0 .144531.117188.261719.261719.261719h.527343v.527343c0 .144531.117188.261719.261719.261719h.523438c.144531 0 .261719-.117188.261719-.261719v-.527343h.527343c.144531 0 .261719-.117188.261719-.261719v-.523438c0-.144531-.117188-.261719-.261719-.261719h-.527343v-.527343c0-.144531-.117188-.261719-.261719-.261719zm0 0" fill="#4f4f4f"/><path d="m9.375 7.5c0 .3125-.25.5625-.5625.5625s-.5625-.25-.5625-.5625.25-.5625.5625-.5625.5625.25.5625.5625zm0 0" fill="#ef5646"/><path d="m7.875 7.5c0 .3125-.25.5625-.5625.5625s-.5625-.25-.5625-.5625.25-.5625.5625-.5625.5625.25.5625.5625zm0 0" fill="#ef5646"/><path d="m9.375 9c0 .3125-.25.5625-.5625.5625s-.5625-.25-.5625-.5625.25-.5625.5625-.5625.5625.25.5625.5625zm0 0" fill="#eb9200"/><path d="m7.875 9c0 .3125-.25.5625-.5625.5625s-.5625-.25-.5625-.5625.25-.5625.5625-.5625.5625.25.5625.5625zm0 0" fill="#eb9200"/></svg>