<svg height="12pt" viewBox="0 0 12 12" width="12pt" xmlns="http://www.w3.org/2000/svg"><path d="m2.800781.710938h6.398438c1.152343 0 2.089843.9375 2.089843 2.089843v6.398438c0 1.152343-.9375 2.089843-2.089843 2.089843h-6.398438c-1.152343 0-2.089843-.9375-2.089843-2.089843v-6.398438c0-1.152343.9375-2.089843 2.089843-2.089843zm0 0" fill="#0286c2" fill-rule="evenodd"/><path d="m9.570312 6c0-1.972656-1.597656-3.570312-3.570312-3.570312s-3.574219 1.597656-3.574219 3.570312 1.601563 3.570312 3.574219 3.570312 3.570312-1.597656 3.570312-3.570312zm0 0" fill="#ccc"/><path d="m5.664062 3.960938c-.523437-.015626-1.023437.089843-1.484374.199218-.679688.160156-1.800782.65625-1.800782.65625-.273437.121094-.277344.503906-.007812.625.386718.199219.96875.28125 1.050781.726563.121094.652343-.570313 1.253906-.933594 1.859375-.21875.347656.246094.714844.53125.421875 0 0 1.765625-1.640625 4.070313-1.703125.429687-.011719 1 .179687 1.445312.386718.449219.207032.765625.363282.765625.363282.28125.183594.628907-.1875.496094-.5-.660156-1.542969-2.027344-2.8125-3.90625-3.019532h-.003906c-.074219-.007812-.148438-.015624-.222657-.015624zm0 0" fill="#f2f2f2"/></svg>