<svg height="12pt" viewBox="0 0 12 12" width="12pt" xmlns="http://www.w3.org/2000/svg"><path d="m2.800781.710938h6.398438c1.152343 0 2.089843.9375 2.089843 2.089843v6.398438c0 1.152343-.9375 2.089843-2.089843 2.089843h-6.398438c-1.152343 0-2.089843-.9375-2.089843-2.089843v-6.398438c0-1.152343.9375-2.089843 2.089843-2.089843zm0 0" fill="#4f4f4f" fill-rule="evenodd"/><path d="m5.859375 2.625.011719 7.03125h.550781v-7.03125zm0 0" fill="#f38577"/><path d="m4.734375 3.75v.5625h.5625v-.5625zm-.5625.84375v.5625h1.125v-.5625zm-1.125.84375v.5625h2.25v-.5625zm-.5625.84375v.5625h2.8125v-.5625zm.5625.84375v.5625h2.25v-.5625zm1.125.84375v.5625h1.125v-.5625zm0 0" fill="#83b9f5" fill-rule="evenodd"/><path d="m7.265625 2.34375h-2.25l1.125 1.6875zm0 0" fill="#d85656"/><path d="m7.203125 4.511719c-.105469.003906-.214844.09375-.214844.195312l-.003906 2.980469c0 .132812.199219.25.3125.171875l2.132813-1.496094c.113281-.078125.113281-.265625 0-.34375l-2.128907-1.484375c-.03125-.019531-.0625-.027344-.097656-.023437zm0 0" fill="#527eb2"/></svg>