<svg height="12pt" viewBox="0 0 12 12" width="12pt" xmlns="http://www.w3.org/2000/svg"><path d="m2.800781.710938h6.398438c1.152343 0 2.089843.9375 2.089843 2.089843v6.398438c0 1.152343-.9375 2.089843-2.089843 2.089843h-6.398438c-1.152343 0-2.089843-.9375-2.089843-2.089843v-6.398438c0-1.152343.9375-2.089843 2.089843-2.089843zm0 0" fill="#5b5b5b" fill-rule="evenodd"/><path d="m3.539062.710938c-.042968.074218-.070312.160156-.070312.25v3c0 .277343.226562.5.5.5h5c .277344 0 .5-.222657.5-.5v-3c0-.089844-.023438-.175782-.066406-.25zm3.574219.75h1.339844c.148437 0 .265625.113281.265625.25v1.75c0 .140624-.117188.25-.265625.25h-1.339844c-.148437 0-.269531-.109376-.269531-.25v-1.75c0-.136719.121094-.25.269531-.25zm0 0" fill="#b7b7b7"/><path d="m2.71875 5.402344c-.257812 0-.46875.222656-.46875.5v2.875h7.5v-2.875c0-.277344-.210938-.5-.46875-.5zm-.332031 4.355468c.0625.066407.144531.113282.238281.132813-.09375-.019531-.175781-.066406-.238281-.132813zm7.226562 0c-.0625.066407-.144531.113282-.238281.132813.09375-.019531.175781-.066406.238281-.132813zm0 0" fill="#fff"/><path d="m9.75 8.777344v.625c0 .277344-.210938.5-.46875.5h-6.5625c-.257812 0-.46875-.222656-.46875-.5v-.625zm0 0" fill="#ffae3f"/></svg>