<svg height="12pt" viewBox="0 0 12 12" width="12pt" xmlns="http://www.w3.org/2000/svg"><g fill-rule="evenodd"><path d="m5.785156.710938h-.609375c.003907.015624.011719.03125.015625.046874.011719.03125.019532.066407.027344.101563s.015625.066406.019531.101563c.003907.035156.007813.070312.007813.105468s0 .070313-.003906.105469c0 .035156-.003907.070313-.011719.105469-.007813.035156-.015625.070312-.023438.101562-.011719.035156-.019531.070313-.035156.101563-.011719.03125-.027344.066406-.042969.097656s-.035156.0625-.050781.089844c-.019531.03125-.042969.058593-.0625.085937-.023437.027344-.046875.054688-.070313.078125-.027343.027344-.050781.050781-.078124.070313-.027344.023437-.054688.046875-.085938.066406-.027344.019531-.058594.035156-.089844.054688-.03125.015624-.0625.03125-.09375.042968-.023437.011719-.046875.019532-.070312.027344-.035156.011719-.070313.019531-.101563.027344-.035156.007812-.070312.015625-.105469.019531-.035156.003906-.070312.007813-.105468.007813s-.070313 0-.105469-.003907c-.035156 0-.070313-.007812-.105469-.011719-.03125-.007812-.066406-.015624-.101562-.023437-.035156-.011719-.066406-.023437-.101563-.035156-.03125-.011719-.0625-.027344-.09375-.042969s-.0625-.035156-.09375-.054688c-.027343-.019531-.054687-.039062-.082031-.0625-.027344-.019531-.054688-.042968-.082031-.070312-.023438-.023438-.046875-.046875-.070313-.074219-.023437-.027343-.042968-.054687-.0625-.085937-.019531-.027344-.039062-.058594-.054687-.089844s-.03125-.0625-.046875-.09375c-.007813-.023438-.015625-.046875-.023438-.070312-.011718-.035157-.023437-.070313-.03125-.101563-.007812-.035156-.011718-.070313-.015625-.105469-.007812-.035156-.007812-.070312-.007812-.105468-.003907-.035157 0-.070313 0-.105469.003906-.035157.007812-.070313.015625-.105469.003906-.035156.011718-.066406.023437-.101562.007813-.03125.019531-.0625.03125-.09375h-.40625c-.402343 0-.753906.144531-1.074219.339843h.003907c.035156 0 .070312 0 .105469.003907.035156 0 .070312.007812.101562.011718.035156.007813.070312.015625.105469.023438.03125.011718.066406.023437.097656.035156.035156.011719.066406.027344.097656.042969s.0625.035156.089844.054687c.03125.019532.058594.039063.085937.058594.027344.023438.054688.046875.078126.070312.027343.027344.050781.050782.074218.078126.023438.027343.042969.054687.0625.085937.019532.027344.039063.058594.054688.089844s.03125.0625.046875.09375c.007812.023437.015625.046875.023437.070312.011719.035157.023438.070313.027344.101563.011719.035156.015625.070312.019531.105468.003907.035157.007813.070313.007813.105469 0 .035157 0 .070313-.003906.105469 0 .035156-.003907.070312-.011719.105469-.007813.035156-.015625.066406-.023438.101562-.011719.035157-.019531.066407-.035156.101563-.011719.03125-.027344.0625-.042969.09375s-.035156.0625-.050781.09375c-.019531.027344-.042969.058594-.0625.085937-.023437.027344-.046875.050781-.070313.078125-.027343.023438-.050781.046875-.078124.070313-.027344.023437-.054688.042969-.085938.0625-.027344.019531-.058594.039062-.089844.054687s-.0625.03125-.09375.046875c-.023437.007813-.046875.019531-.070312.027344-.035156.007813-.066406.019531-.101563.027344-.035156.007812-.070312.011719-.105469.019531-.035156.003906-.070312.003906-.105468.003906-.035156.003906-.070313.003906-.105469 0s-.070313-.007812-.105469-.015625c-.03125-.003906-.066406-.011719-.101562-.023437-.035156-.007813-.066406-.019532-.101563-.03125-.03125-.015625-.0625-.027344-.09375-.046875-.03125-.015625-.0625-.03125-.09375-.050781-.027343-.019532-.054687-.039063-.082031-.0625-.027344-.023438-.054688-.046876-.082031-.070313-.023438-.023437-.046875-.050781-.070313-.078125-.019531-.027344-.042968-.054688-.0625-.082031-.019531-.03125-.039062-.0625-.054687-.09375-.015625-.027344-.03125-.0625-.046875-.09375 0-.003907-.003906-.011719-.003906-.015625-.015626.105468-.0625.199218-.0625.308594v1.769531h.007812c.03125.015625.066406.027343.09375.046875.035156.015625.0625.03125.09375.050781.027344.019531.058594.039063.085938.0625.027343.019531.050781.042969.078124.070313.023438.023437.050782.050781.070313.078124.023437.027344.042969.054688.0625.082032.023437.03125.039063.0625.054687.089844.019532.03125.035157.066406.046876.097656.011718.023437.019531.046875.027343.070312.011719.03125.019531.066406.027344.101563.007813.035156.015625.066406.019531.101562.003906.035157.007813.070313.007813.105469s0 .070312-.003907.105469c-.003906.035156-.007812.070312-.011718.105469-.007813.035156-.015625.070312-.027344.101562-.007812.035156-.019531.070312-.03125.101562s-.027344.066407-.042969.097657-.035156.058593-.054687.089843c-.019532.03125-.039063.058594-.0625.085938-.019532.027344-.042969.054688-.070313.078125-.023437.027344-.050781.050781-.078125.070313-.023437.023437-.054687.046874-.082031.066406-.03125.019531-.058594.035156-.089844.054687-.03125.015625-.0625.03125-.097656.042969-.007813.003906-.015625.007812-.023437.007812v.613282c.015624-.011719.027343-.023438.042968-.03125.027344-.019532.058594-.039063.089844-.054688.03125-.019531.0625-.035156.09375-.046875.023438-.007812.046875-.019531.070312-.027343.035157-.007813.066407-.019532.101563-.027344.035156-.007813.070313-.011719.105469-.019532.035156-.003906.070312-.003906.105468-.007812.035157 0 .070313 0 .105469.003906.035157.003906.070313.007813.105469.011719.03125.007813.066406.015625.101562.027344.03125.007812.066407.019531.097657.03125.035156.015625.066406.027343.097656.046875.03125.015625.0625.03125.089844.050781.03125.019531.058593.039063.085937.0625.027344.019531.054688.042969.078125.070313.027344.023437.050781.050781.074219.078124.019531.027344.042969.054688.0625.082032.019531.03125.039062.0625.054688.089844.015624.03125.03125.066406.046874.097656.007813.023437.015626.046875.023438.070312.011719.03125.019531.066406.027344.101563.011718.035156.015625.066406.019531.101562.003906.035157.007813.070313.007813.105469v.105469c-.003907.035156-.007813.070312-.015626.105469-.003906.035156-.015624.070312-.023437.101562-.011719.035156-.019531.070312-.035156.101562-.011719.03125-.027344.066407-.042969.097657s-.035156.058593-.050781.089843c-.019531.03125-.042969.058594-.0625.085938-.023438.027344-.046875.054688-.070313.078125-.027344.027344-.050781.050781-.078125.070313-.027343.023437-.054687.046874-.085937.066406-.027344.019531-.058594.035156-.089844.054687-.03125.015625-.0625.03125-.09375.042969-.023438.011719-.046875.019531-.070312.027344-.035157.011718-.066407.019531-.101563.027344-.035156.007812-.070313.015624-.105469.019531-.035156.003906-.070312.007812-.105468.007812-.035157 0-.070313 0-.105469-.003906-.035157 0-.070313-.007813-.105469-.011719-.03125-.007812-.066406-.015625-.101562-.023437-.035157-.011719-.066407-.023438-.097657-.035157-.035156-.011718-.066406-.027343-.097656-.042968s-.0625-.035156-.089844-.054688c-.019531-.011718-.039062-.027344-.058593-.039062v.359375c0 .582031.238281 1.105469.621093 1.484375 0-.007813-.003906-.011719-.003906-.019532-.007813-.035156-.015625-.066406-.019531-.101562s-.007813-.070312-.007813-.105469c0-.035156 0-.070312.003907-.105469 0-.035156.007812-.070312.011718-.105468.007813-.035156.015625-.070313.023438-.105469.011718-.03125.023437-.066406.035156-.097656s.027344-.066407.042969-.097657.035156-.058593.054687-.089843c.019532-.03125.039063-.058594.0625-.085938.019532-.027343.042969-.054687.066406-.078125.027344-.023437.050782-.050781.078126-.070312.027343-.023438.058593-.042969.085937-.066406.03125-.019532.058594-.035157.089844-.054688.03125-.015625.0625-.03125.097656-.042969.019531-.011719.042969-.019531.070313-.027343.03125-.011719.066406-.019532.101562-.027344.03125-.007813.066406-.015625.101562-.019532.035157-.003906.070313-.007812.105469-.007812.035157 0 .070313 0 .105469.003906s.070312.007813.105469.011719c.035156.007813.070312.015625.101562.023437.035157.011719.066407.023438.101563.035157.03125.011719.0625.027343.09375.042969.03125.015624.0625.035156.09375.054687.027344.019531.058594.039063.085937.0625.027344.019531.050781.042969.078125.070313.023438.023437.046875.050781.070313.074218.023437.027344.042969.058594.0625.085938.019531.03125.039062.058594.054687.089844.019532.03125.03125.0625.046875.097656.007813.023437.019531.046875.027344.070312.011719.03125.019531.066406.027344.101563.007812.03125.015625.066406.019531.101562.003906.035157.003906.070313.007812.105469 0 .035156 0 .070312-.003906.105469-.003906.035156-.007812.070312-.015625.105469-.003906.035156-.011719.070312-.023437.101562-.007813.035156-.019532.070312-.03125.101562-.015625.03125-.027344.0625-.042969.09375-.019531.035157-.035156.0625-.054687.09375-.019532.027344-.039063.058594-.0625.085938-.023438.027344-.046876.050781-.070313.078125-.023437.023437-.050781.050781-.078125.070313-.019531.015624-.039062.03125-.058594.046874h1.941406c.003907-.003906.003907-.007812.007813-.011718.019531-.027344.039063-.058594.0625-.085938.019531-.027344.042969-.050781.070313-.078125.023437-.023437.050781-.046875.074218-.070312.027344-.023438.058594-.042969.085938-.0625.03125-.019531.058594-.039063.089844-.054688.03125-.019531.0625-.03125.097656-.046875.019531-.007812.042968-.019531.066406-.027344.035156-.007812.070312-.019531.101562-.027343.035157-.007813.070313-.015625.105469-.019531.035157-.003907.070313-.003907.105469-.007813.035156 0 .070312 0 .105469.003906.035156.003907.070312.007813.105469.015625.035156.003906.070312.011719.101562.023438.035156.007812.066406.019531.101562.03125.03125.015625.0625.027344.09375.046875.03125.015625.0625.03125.09375.050781.027344.019531.058594.039062.085938.0625s.050781.046875.078125.070312c.023437.023438.046875.050782.070313.078126.023437.027343.042968.054687.0625.082031.007812.007812.011718.019531.015624.027343h.59375c-.007812-.015624-.015624-.027343-.019531-.042968-.011719-.023438-.019531-.046875-.027343-.070313-.011719-.03125-.019532-.066406-.027344-.101562-.007813-.035157-.015625-.070313-.019532-.105469-.003906-.035156-.007812-.070312-.007812-.105469 0-.035156 0-.070312.003906-.105469.003906-.035156.007813-.070312.011719-.101562.007813-.035156.015625-.070312.023437-.105469.011719-.03125.023438-.066406.035157-.097656.011719-.035156.027343-.066406.042969-.097656.015624-.03125.035156-.0625.054687-.089844.019531-.03125.039063-.058594.0625-.085937.019531-.027344.042969-.054688.070313-.078126.023437-.027343.050781-.050781.074218-.074218.027344-.019532.058594-.042969.085938-.0625.027344-.019532.058594-.039063.089844-.054688s.0625-.03125.09375-.042968c.023437-.011719.046874-.019532.070312-.027344.035156-.011719.070312-.019532.101562-.027344.035157-.007812.070313-.015625.105469-.019531.035157-.003907.070313-.007813.105469-.007813s.070312 0 .105469.003906c.035156 0 .070312.003907.105469.011719.035156.007813.066406.015625.101562.023438.035156.011719.066406.019531.101562.035156.03125.011719.0625.027344.09375.042969s.0625.035156.09375.054687c.027344.015625.058594.039063.085938.058594.027344.023437.050781.046875.078125.070313.023437.027343.046875.050781.070313.078124.023437.027344.042968.054688.0625.085938.019531.027344.039062.058594.054687.089844.019531.03125.03125.0625.046875.09375.007812.023437.019531.046875.027344.070312.007812.035156.019531.066406.027344.101563.007812.035156.015624.070312.019531.105469.003906.035156.003906.070312.003906.105468.003906.035156 0 .070313 0 .105469-.003906.035156-.007813.070313-.015625.105469-.003906.03125-.011719.066406-.023438.101562-.007812.035156-.019531.066406-.03125.101563-.011718.019531-.019531.039062-.027343.058593.464843 0 .875-.183593 1.222656-.441406-.007813 0-.019531-.003906-.03125-.003906-.03125-.011719-.066406-.023438-.097656-.035156-.035157-.011719-.066407-.027344-.097657-.042969s-.0625-.035156-.089843-.054687c-.03125-.019532-.058594-.039063-.085938-.0625-.027343-.019532-.054687-.042969-.078125-.070313-.027344-.023437-.050781-.050781-.070312-.074219-.023438-.027344-.046875-.058594-.066406-.085937-.019532-.03125-.039063-.058594-.054688-.089844s-.03125-.0625-.042969-.097656c-.011719-.019531-.019531-.042969-.027343-.066407-.011719-.035156-.019532-.070312-.027344-.101562-.007813-.035156-.015625-.070312-.019532-.105469-.003906-.035156-.007812-.070312-.007812-.105469 0-.035156 0-.070312.003906-.105468 0-.035156.003906-.070313.011719-.105469s.015625-.070313.023437-.101563c.011719-.035156.023438-.066406.035157-.101562.011719-.03125.027343-.0625.042969-.09375.015624-.03125.035156-.0625.054687-.09375.019531-.027344.039063-.058594.0625-.085938.019531-.027343.042969-.050781.066406-.078124.027344-.023438.050781-.046876.078125-.070313s.054688-.042969.085938-.0625c.027344-.019531.058594-.039063.089844-.054687.03125-.019532.0625-.03125.09375-.046876.023437-.007812.046874-.019531.070312-.027343.035156-.007813.070312-.019531.101562-.027344.035157-.007813.070313-.015625.105469-.019531.035157-.003906.070313-.003906.105469-.007813.035156 0 .070312 0 .105469.003907.035156.003906.070312.007812.105469.015624.035156.003907.066406.011719.101562.023438.035156.007812.066406.019531.101562.03125.03125.015625.0625.027344.09375.042969.03125.019531.0625.035156.089844.054687.011719.007813.023438.015625.035156.023438v-1.917969c-.019531-.027344-.039062-.050781-.058593-.078125-.019531-.03125-.039063-.058594-.054688-.089844s-.03125-.0625-.046875-.097656c-.007812-.023438-.015625-.046875-.023437-.070312-.011719-.03125-.023438-.066407-.03125-.101563-.007813-.035156-.011719-.066406-.015625-.101563-.003906-.035156-.007813-.070312-.007813-.105468-.003906-.035156 0-.070313 0-.105469.003907-.035156.007813-.070313.015625-.105469.003906-.035156.011719-.070312.023438-.105468.007812-.03125.019531-.066407.035156-.097657.011719-.03125.027344-.066406.042969-.097656s.03125-.058594.050781-.089844.039062-.058593.0625-.085937c.003906-.003906.003906-.003906.007812-.007813v-.730469c-.023437.003907-.042968.007813-.066406.011719-.035156.003907-.070312.007813-.105468.007813-.035157 0-.070313 0-.105469-.003906-.035157-.003907-.070313-.007813-.105469-.011719-.035156-.007813-.066406-.015625-.101562-.027344-.035157-.007813-.066407-.019531-.101563-.03125-.03125-.011719-.0625-.027344-.09375-.042969s-.0625-.035156-.09375-.054687c-.027344-.019531-.058594-.039063-.085937-.0625-.027344-.019531-.050782-.042969-.078126-.070313-.023437-.023437-.046874-.050781-.070312-.078125-.023438-.023437-.042969-.054687-.0625-.082031-.019531-.03125-.039062-.058594-.054688-.089844-.019531-.03125-.03125-.0625-.046874-.097656-.007813-.023438-.019532-.046875-.027344-.070312-.007813-.03125-.019532-.066407-.027344-.101563-.007812-.03125-.015625-.066406-.019531-.101563-.003907-.035156-.003907-.070312-.007813-.105468 0-.035156.003906-.070313.003906-.105469.003907-.035156.007813-.070313.015626-.105469.003906-.035156.011718-.070312.023437-.101562.007813-.035156.019531-.066406.03125-.101563.015625-.03125.027344-.066406.042969-.097656.019531-.03125.035156-.058594.054687-.089844.019531-.027343.039063-.058593.0625-.085937.023438-.027344.046875-.054688.070313-.078125.023437-.023438.050781-.046875.078125-.070313.027343-.023437.054687-.042968.082031-.066406.03125-.019531.0625-.035156.089844-.050781.03125-.019531.0625-.035157.097656-.046875.023438-.007813.046875-.019532.070312-.027344.03125-.011719.066407-.019531.101563-.027344.035156-.007812.070313-.015625.101563-.019531.035156-.003906.070312-.003906.105468-.007813.035156 0 .070313 0 .105469.003907.035156.003906.070313.007812.105469.011719.003906.003906.007812.003906.011718.003906v-.097656c0-.332032-.09375-.636719-.230468-.914063-.011719.035156-.027344.066406-.042969.097656s-.03125.058594-.050781.089844c-.019532.03125-.042969.058594-.0625.085937-.023438.027344-.046875.054688-.070313.078126-.023437.027343-.050781.050781-.078125.070312-.027344.023438-.054687.046875-.085937.066406-.027344.019532-.058594.035156-.089844.050782-.03125.019531-.0625.035156-.09375.046874-.023437.011719-.046875.019532-.070313.027344-.035156.011719-.066406.019532-.101562.027344s-.070312.015625-.105469.019531c-.035156.003907-.070312.007813-.105469.007813-.035156 0-.070312 0-.105468-.003906-.035156-.003907-.070313-.007813-.101563-.011719-.035156-.007813-.070312-.015625-.105469-.023438-.035156-.011719-.066406-.023437-.097656-.035156-.035156-.011719-.066406-.027344-.097656-.042969s-.0625-.035156-.089844-.054687c-.03125-.019531-.058594-.039063-.085937-.0625-.027344-.019531-.054688-.042969-.078125-.070313-.027344-.023437-.050782-.046875-.074219-.074218-.019531-.027344-.042969-.058594-.0625-.085938-.019531-.03125-.039063-.058594-.054687-.089844-.015626-.03125-.03125-.0625-.046876-.097656-.007812-.019531-.015624-.042969-.023437-.070312-.011719-.03125-.023437-.066407-.03125-.101563-.007813-.03125-.011719-.066406-.015625-.101563-.003906-.035156-.007812-.070312-.007812-.105468s0-.070313.003906-.105469c0-.035156.003906-.070313.011718-.105469.007813-.035156.015626-.070312.023438-.101562.011719-.035156.019531-.066406.035156-.101563.011719-.03125.027344-.0625.042969-.09375s.035156-.0625.050781-.09375c.019532-.027343.042969-.058593.0625-.085937.023438-.027344.046875-.050782.070313-.078125.007812-.007813.015625-.011719.023437-.019531-.054687-.003907-.097656-.03125-.152344-.03125h-1.722656c-.007812.011718-.015625.019531-.023437.03125-.019531.027343-.042969.050781-.066407.078124-.027343.023438-.050781.046876-.078124.070313-.027344.023437-.054688.042969-.085938.0625-.027344.019531-.058594.039063-.089844.054687-.03125.015626-.0625.03125-.09375.046876-.023437.007812-.046875.019531-.070312.027343-.035156.007813-.070313.019531-.101563.027344-.035156.007813-.070312.011719-.105469.015625-.035156.007812-.070312.007812-.105468.007812-.035156.003907-.070313 0-.105469 0-.035156-.003906-.070313-.007812-.105469-.015624-.03125-.003907-.066406-.011719-.101562-.023438-.035156-.007812-.066406-.019531-.101563-.035156-.03125-.011719-.0625-.023438-.09375-.042969-.03125-.015625-.0625-.03125-.09375-.050781-.027343-.019532-.054687-.039063-.082031-.0625-.027344-.023438-.054688-.046875-.082031-.070313-.023438-.023437-.046875-.050781-.070313-.078125-.011718-.011718-.019531-.027344-.03125-.042968zm1.832032.75c.035156 0 .070312 0 .105468.003906.035156 0 .070313.003906.105469.011718.035156.007813.066406.015626.101563.023438.035156.011719.066406.023438.101562.035156.03125.011719.0625.027344.09375.042969s.0625.035156.09375.054687c.027344.015626.054688.039063.082031.058594.03125.023438.054688.046875.082031.070313.023438.027343.046876.050781.070313.078125s.042969.054687.0625.085937c.019531.027344.039063.058594.054687.089844.015626.03125.03125.0625.046876.09375.007812.023437.015624.046875.023437.070313.011719.035156.023437.066406.03125.101562s.011719.070312.015625.105469c.007812.035156.007812.070312.011719.105469 0 .035156 0 .070312-.003907.105468-.003906.035156-.007812.070313-.015624.105469-.003907.035156-.011719.066406-.023438.101563-.007812.035156-.019531.066406-.03125.101562-.015625.03125-.027344.0625-.046875.09375-.015625.03125-.03125.0625-.050781.089844-.019532.03125-.039063.058594-.0625.085937-.023438.027344-.046875.054688-.070313.082031-.023437.023438-.050781.046876-.078125.070313s-.054687.042969-.082031.0625c-.03125.019531-.0625.039063-.09375.054687-.027344.015626-.0625.03125-.09375.046876-.023437.007812-.046875.015624-.070313.023437-.03125.011719-.066406.023437-.101562.03125s-.066406.011719-.101562.015625c-.035157.003906-.070313.007812-.105469.007812-.035157.003907-.070313 0-.105469 0-.035156-.003906-.070312-.007812-.105469-.015624-.035156-.003907-.070312-.011719-.101562-.023438-.035157-.007812-.070313-.019531-.101563-.035156-.035156-.011719-.066406-.027344-.097656-.042969s-.0625-.03125-.089844-.050781c-.03125-.019532-.058594-.042969-.085937-.0625-.027344-.023438-.054688-.046875-.078125-.070313-.027344-.023437-.050782-.050781-.074219-.078125-.019531-.027344-.042969-.054687-.0625-.085937-.019531-.027344-.035156-.058594-.054687-.089844-.015626-.03125-.03125-.0625-.042969-.09375-.011719-.023437-.019531-.046875-.027344-.070313-.011719-.035156-.019531-.066406-.027344-.101562-.007812-.035156-.015625-.070312-.019531-.105469-.003906-.035156-.007812-.070312-.007812-.105469 0-.035156 0-.070312.003906-.105468 0-.035156.007812-.070313.011718-.101563.007813-.035156.015626-.070312.023438-.105469.011719-.03125.023438-.066406.035156-.097656.011719-.035156.027344-.066406.042969-.097656s.035156-.0625.054687-.089844c.019532-.03125.039063-.058594.058594-.085937.023438-.027344.046875-.054688.070313-.078125.027343-.027344.050781-.050782.078125-.074219.027344-.019531.054687-.042969.085937-.0625.027344-.019531.058594-.039063.089844-.054687.03125-.015626.0625-.03125.09375-.046876.023437-.007812.046875-.015624.070313-.023437.035156-.011719.070312-.019531.101562-.027344.035156-.007812.070312-.015625.105469-.019531.035156-.003906.070312-.007812.105469-.007812zm-2.4375 1.011718c.035156 0 .070312 0 .105468.003906.035156.003907.070313.007813.105469.011719.035156.007813.070313.015625.101563.027344.035156.007813.066406.019531.101562.03125.03125.015625.0625.027344.09375.042969.03125.019531.0625.035156.09375.054687.027344.019531.058594.039063.082031.0625.03125.019531.054688.042969.082031.070313.023438.023437.046876.050781.070313.078125.023437.027343.042969.054687.0625.082031.019531.03125.039063.0625.054687.089844.019532.03125.03125.066406.046876.097656.007812.023438.019531.046875.027343.070312.011719.03125.019531.066407.027344.101563s.011719.066406.015625.101563c.007812.035156.007812.070312.011719.105468 0 .035156 0 .070313-.003907.105469-.003906.035156-.007812.070313-.015624.105469-.003907.035156-.011719.070312-.023438.101562-.007812.035156-.019531.070313-.03125.101563-.015625.03125-.027344.066406-.042969.097656-.019531.03125-.035156.058594-.054687.089844-.019532.03125-.039063.058593-.0625.085937-.023438.027344-.046875.054688-.070313.078125-.023437.027344-.050781.050781-.078125.070313-.027344.023437-.054687.046875-.082031.066406-.03125.019531-.058594.035156-.089844.050781-.03125.019531-.066406.035157-.097656.046875-.023437.011719-.046875.019532-.070313.027344-.03125.011719-.066406.019531-.101562.027344-.035156.007812-.066406.015625-.101562.019531-.035157.003906-.070313.007813-.105469.007813-.035157 0-.070313 0-.105469-.003907-.035156-.003906-.070312-.007812-.105469-.011719-.035156-.007812-.070312-.015624-.105469-.023437-.03125-.011719-.066406-.023437-.097656-.035156s-.066406-.027344-.097656-.042969-.058594-.035156-.089844-.054688c-.03125-.019531-.058594-.039062-.085937-.0625-.027344-.019531-.054688-.042968-.078125-.070312-.027344-.023438-.050782-.046875-.070313-.074219-.023437-.027343-.046875-.058593-.066406-.085937-.019531-.03125-.035156-.058594-.054687-.089844-.015626-.03125-.03125-.0625-.042969-.097656-.011719-.019532-.019531-.042969-.027344-.070313-.011719-.03125-.019531-.066406-.027344-.097656-.007812-.035156-.015625-.070313-.019531-.105469s-.007812-.070312-.007812-.105468c0-.035157 0-.070313.003906-.105469.003906-.035157.007812-.070313.011718-.105469.007813-.035156.015626-.066406.023438-.101562.011719-.035157.023438-.066407.035156-.101563.011719-.03125.027344-.0625.042969-.09375s.035156-.0625.054687-.09375c.019532-.027344.039063-.058594.0625-.085937.019532-.027344.042969-.050782.070313-.078126.023437-.023437.050781-.046874.074219-.070312.027344-.023438.058594-.042969.085937-.0625.03125-.019531.058594-.039062.089844-.054688.03125-.019531.0625-.035156.09375-.046874.023437-.007813.046875-.019532.070313-.027344.035156-.007813.070312-.019532.105468-.027344.03125-.007812.066406-.011719.101563-.019531.035156-.003907.070312-.003907.105469-.007813zm-2.4375 1.015625c.035156 0 .070312 0 .105468.003907.035156 0 .070313.003906.105469.011718.035156.007813.070313.015625.101563.023438.035156.011718.066406.023437.101562.035156.03125.011719.0625.027344.09375.042969s.0625.035156.09375.054687c.027344.015625.058594.039063.085938.058594.027343.023438.050781.046875.078124.070312.023438.027344.046876.050782.070313.078126.023437.027343.042969.054687.0625.085937.019531.027344.039063.058594.054687.089844.019532.03125.03125.0625.046876.09375.007812.023437.019531.046875.027343.070312.011719.035157.019531.066407.027344.101563s.015625.070312.019531.105468c.003906.035157.003906.070313.007813.105469 0 .035157 0 .070313-.003907.105469-.003906.035156-.007812.070312-.015624.105469-.003907.035156-.011719.066406-.023438.101562-.007812.035157-.019531.066407-.03125.101563-.015625.03125-.027344.0625-.042969.09375-.019531.03125-.035156.0625-.054687.089844-.019532.03125-.039063.058593-.0625.085937-.023438.027344-.046875.054687-.070313.082031-.023437.023438-.050781.046875-.078125.070313-.027344.023437-.054687.042969-.082031.0625-.03125.019531-.058594.039062-.089844.054687s-.0625.03125-.097656.046875c-.023437.007813-.046875.015625-.070313.023438-.03125.011719-.066406.023437-.101562.03125-.035156.007812-.066406.011719-.101562.015625-.035157.007812-.070313.007812-.105469.007812-.035157.003906-.070313 0-.105469 0-.035156-.003906-.070312-.007812-.105469-.015625-.035156-.003906-.070312-.011719-.101562-.023437-.035157-.007813-.070313-.019532-.101563-.035156-.03125-.011719-.066406-.027344-.097656-.042969s-.058594-.03125-.089844-.050781c-.03125-.019532-.058594-.042969-.085937-.0625-.027344-.023438-.054688-.046876-.078125-.070313-.023438-.023437-.050782-.050781-.070313-.078125-.023437-.027344-.042969-.054688-.0625-.085938-.023437-.027343-.039062-.058593-.058593-.089843-.015626-.03125-.03125-.0625-.042969-.09375-.011719-.023438-.019531-.046875-.027344-.070313-.011719-.035156-.019531-.066406-.027344-.101562-.007812-.035156-.015625-.070313-.019531-.105469s-.007812-.070313-.007812-.105469 0-.070312.003906-.105468c.003906-.035157.007812-.070313.011718-.101563.007813-.035156.015626-.070313.023438-.105469.011719-.03125.023438-.066406.035156-.097656.011719-.035156.027344-.066406.042969-.097656s.035156-.0625.054687-.089844c.019532-.03125.039063-.058594.0625-.085938.019532-.027343.042969-.054687.070313-.078124.023437-.027344.050781-.050782.078125-.074219.023438-.019531.054688-.042969.082031-.0625.03125-.019531.058594-.039063.089844-.054688s.0625-.03125.097656-.046875c.023438-.007812.042969-.015625.070313-.023437.03125-.011719.066406-.019531.101562-.027344.03125-.007813.066406-.015625.101563-.019531.035156-.003906.070312-.007813.105469-.007813zm1.011718 2.4375c.039063 0 .074219 0 .105469.003907.035156 0 .070313.003906.105469.011718.035156.007813.070312.015625.105468.023438.03125.011718.066407.023437.097657.035156.035156.011719.066406.027344.097656.042969s.0625.035156.089844.054687c.03125.015625.058593.039063.085937.058594.027344.023438.054688.046875.078125.070312.027344.027344.050781.050782.074219.078126.019531.027343.042969.054687.0625.085937.019531.027344.039062.058594.054688.089844.015624.03125.03125.0625.042968.09375.011719.023437.019532.046875.027344.070312.011719.035157.019531.066407.027344.101563.011718.035156.015625.070312.019531.105468.003906.035157.007813.070313.007813.105469 0 .035157 0 .070313-.003907.105469 0 .035156-.003906.070312-.011719.105469-.007812.035156-.015624.066406-.023437.101562-.011719.035157-.019531.066407-.035156.101563-.011719.03125-.027344.0625-.042969.09375s-.035156.0625-.054688.089844c-.019531.03125-.039062.058593-.058593.085937-.023438.027344-.046875.054687-.070313.082031-.027344.023438-.050781.046875-.078125.070313-.027343.023437-.054687.042969-.085937.0625-.027344.019531-.058594.039062-.089844.054687s-.0625.03125-.09375.046875c-.023438.007813-.046875.015625-.070312.023438-.035157.011719-.070313.023437-.101563.03125-.035156.007812-.070313.011719-.105469.015625s-.070312.007812-.105468.007812c-.035157.003906-.070313 0-.105469 0-.035157-.003906-.070313-.007812-.105469-.015625-.03125-.003906-.066406-.011719-.101562-.023437-.035157-.007813-.066407-.019532-.097657-.035156-.035156-.011719-.066406-.027344-.097656-.042969s-.0625-.03125-.089844-.050781c-.03125-.019532-.058593-.042969-.085937-.0625-.027344-.023438-.054688-.046876-.078125-.070313-.027344-.023437-.050781-.050781-.074219-.078125s-.042969-.054688-.0625-.085938c-.019531-.027343-.039062-.058593-.054688-.089843-.015624-.03125-.03125-.0625-.046874-.09375-.007813-.023438-.015626-.046875-.023438-.070313-.011719-.035156-.023438-.066406-.03125-.101562s-.011719-.070313-.015625-.105469c-.007813-.035156-.007813-.070313-.007813-.105469-.003906-.035156 0-.070312 0-.105468.003907-.035157.007813-.070313.015626-.101563.003906-.035156.011718-.070313.023437-.105469.007813-.03125.019531-.066406.035156-.097656.011719-.035156.027344-.066406.042969-.097656s.03125-.0625.050781-.089844c.019531-.03125.042969-.058594.0625-.085938.023438-.027343.046875-.054687.070313-.078124.023437-.027344.050781-.050782.078125-.074219.027343-.019531.054687-.042969.085937-.0625.027344-.019531.058594-.039063.089844-.054688l.09375-.046875c.023438-.007812.046875-.015625.070312-.023437.035157-.011719.066407-.019531.101563-.027344s.070313-.015625.105469-.019531.070312-.007813.105468-.007813zm1.015625 2.4375c.035157-.003906.070313 0 .105469 0 .035156.003907.070312.007813.105469.015625.03125.003906.066406.011719.101562.023438.035157.007812.066407.019531.101563.035156.03125.011719.0625.027344.09375.042969s.0625.03125.09375.050781c.027344.019531.054687.042969.082031.0625.027344.023438.054687.046875.082031.070312.023438.023438.046875.050782.070313.078126.023437.027343.042969.054687.0625.085937.019531.027344.039062.058594.054687.089844l.046875.09375c.007813.023437.015625.046875.023438.070312.011719.035157.023437.066407.03125.101563.007812.035156.011719.070312.015625.105468.003906.035157.007812.070313.007812.105469.003906.035157 0 .070313 0 .105469-.003906.035156-.007812.070312-.015625.101562-.003906.035157-.011719.070313-.023437.105469-.007813.03125-.019532.066407-.035156.097657-.011719.035156-.027344.066406-.042969.097656s-.03125.0625-.050781.089844c-.019532.03125-.039063.058593-.0625.085937-.023438.027344-.046876.054687-.070313.078125-.023437.027344-.050781.050781-.078125.074219-.027344.019531-.054688.042969-.082031.0625-.03125.019531-.0625.039062-.09375.054687s-.0625.03125-.09375.042969c-.023438.011719-.046875.019531-.070313.027344-.03125.011719-.066406.019531-.101562.027343-.035156.007813-.070313.015626-.105469.019532s-.070313.007812-.105469.007812-.070312 0-.105468-.003906c-.035157 0-.070313-.003906-.101563-.011719-.035156-.007812-.070313-.015625-.105469-.023437-.03125-.011719-.066406-.019532-.097656-.035156-.035156-.011719-.066406-.027344-.097656-.042969s-.0625-.035157-.089844-.050781c-.03125-.019532-.058594-.042969-.085938-.0625-.027343-.023438-.054687-.046876-.078124-.070313-.027344-.027344-.050782-.050781-.074219-.078125-.019531-.027344-.042969-.054688-.0625-.085938-.019531-.027343-.039063-.058593-.054688-.089843s-.03125-.0625-.042969-.09375c-.011718-.023438-.019531-.046875-.027343-.070313-.011719-.035156-.019531-.066406-.027344-.101562s-.015625-.070313-.019531-.105469-.007813-.070313-.007813-.105469 0-.070312.003907-.105468c0-.035157.003906-.070313.011718-.105469.007813-.03125.015625-.066407.023438-.101563.011718-.035156.019531-.066406.035156-.101562.011719-.03125.027344-.0625.042969-.09375s.035156-.0625.054687-.09375c.015625-.027344.039063-.054688.058594-.082032.023438-.027343.046875-.054687.070312-.082031.027344-.023437.050782-.046875.078126-.070312.027343-.023438.054687-.042969.085937-.0625.027344-.019531.058594-.039063.089844-.054688l.09375-.046875c.023437-.007812.046875-.015625.070312-.023437.035157-.011719.066407-.023438.101563-.03125.035156-.007813.070312-.011719.105468-.015625.035157-.003906.070313-.007813.105469-.007813zm0 0" fill="#ccc"/><path d="m4.769531 8.363281c-.035156 0-.070312.003907-.105469.007813-.035156.003906-.070312.007812-.105468.015625-.035156.007812-.066406.019531-.101563.03125-.023437.007812-.046875.015625-.070312.023437-.03125.015625-.0625.03125-.09375.046875s-.0625.035157-.089844.054688c-.03125.019531-.058594.039062-.085937.0625-.027344.023437-.050782.046875-.078126.070312-.023437.027344-.046874.054688-.070312.082031-.019531.027344-.042969.054688-.0625.082032-.015625.03125-.035156.0625-.050781.09375s-.03125.0625-.042969.09375c-.015625.035156-.023438.066406-.035156.101562-.007813.035156-.015625.070313-.023438.101563-.007812.035156-.011718.070312-.011718.105469-.003907.035156-.003907.070312-.003907.105468s.003907.070313.007813.105469.011718.070313.019531.105469.015625.066406.027344.101562c.007812.023438.015625.046875.027343.070313.011719.03125.027344.0625.042969.09375s.035157.0625.054688.089843c.019531.03125.042969.058594.0625.085938.023437.027344.046875.050781.074219.078125.023437.023437.050781.046875.078124.070313.027344.019531.054688.042968.085938.0625.027344.015624.058594.035156.089844.050781s.0625.03125.097656.042969c.03125.015624.066406.023437.097656.035156.035156.007812.070313.015625.105469.023437.03125.007813.066406.011719.101563.011719.035156.003906.070312.003906.105468.003906s.070313-.003906.105469-.007812.070313-.007813.105469-.019532c.035156-.007812.066406-.015624.101562-.027343.023438-.007813.046875-.015625.070313-.027344.03125-.011719.0625-.027344.09375-.042969s.0625-.035156.089843-.054687c.03125-.019531.058594-.042969.085938-.0625.027344-.023438.054688-.046875.078125-.074219.023437-.023438.046875-.050781.070313-.078125.023437-.027344.042968-.054687.0625-.085937.019531-.027344.035156-.058594.050781-.089844s.03125-.0625.042969-.097656c.015624-.03125.027343-.066407.035156-.097657.011718-.035156.019531-.070312.023437-.105469.007813-.03125.011719-.066406.015625-.101562 0-.035156.003906-.070312 0-.105469 0-.035156-.003906-.070312-.007812-.105469-.003906-.035156-.007813-.070312-.015625-.105468-.007813-.035156-.019531-.066406-.03125-.101563-.007813-.023437-.015625-.046875-.023438-.070312-.015625-.03125-.03125-.0625-.046875-.09375s-.035156-.0625-.054687-.089844c-.019531-.03125-.039063-.058594-.0625-.085937-.023438-.027344-.046875-.054688-.070313-.078126-.027344-.023437-.054687-.046874-.082031-.070312-.027344-.019531-.054687-.042969-.082031-.0625-.03125-.019531-.0625-.035156-.09375-.050781s-.0625-.03125-.09375-.042969c-.035156-.015625-.066406-.027344-.101563-.035156-.035156-.011719-.070312-.019532-.101562-.023438-.035157-.007812-.070313-.011718-.105469-.015625-.035156 0-.070312-.003906-.105469 0zm0 0" fill="#f2f2f2"/><path d="m7.207031 7.347656c-.035156 0-.070312.003906-.105469.007813-.035156.003906-.070312.011719-.105468.019531s-.066406.015625-.101563.027344c-.023437.007812-.046875.015625-.070312.027344-.03125.011718-.0625.027343-.09375.042968-.03125.019532-.0625.035156-.089844.054688-.03125.023437-.058594.042968-.085937.066406-.027344.019531-.050782.046875-.078126.070312-.023437.023438-.046874.050782-.070312.078126-.019531.027343-.042969.054687-.0625.085937-.015625.03125-.035156.058594-.050781.089844s-.03125.066406-.042969.097656c-.015625.03125-.027344.066406-.035156.097656-.011719.035157-.019532.070313-.023438.105469-.007812.035156-.011718.070312-.011718.105469-.003907.035156-.003907.070312-.003907.105469 0 .035156.003907.070312.007813.105468s.007812.066406.015625.101563c.007812.035156.019531.070312.03125.101562.007812.023438.015625.046875.023437.070313.015625.035156.03125.066406.046875.097656s.035157.058594.054688.089844c.019531.027344.042969.054687.0625.082031.023437.027344.046875.054687.074219.078125.023437.023438.050781.046875.078124.070312.027344.023438.054688.042969.085938.0625.027344.019532.058594.035157.089844.054688.03125.015625.0625.027344.097656.042969.03125.011719.0625.023437.097656.03125.035156.011719.070313.019531.105469.023437.03125.007813.066406.011719.101563.015625.035156.003907.070312.003907.105468.003907.035156-.003907.070313-.003907.105469-.007813s.070313-.011719.105469-.019531c.035156-.007813.066406-.015625.101562-.027344.023438-.007812.046875-.019531.070313-.027344.03125-.015625.0625-.027344.09375-.046875.03125-.015625.0625-.035156.089843-.054687.03125-.019532.058594-.039063.085938-.0625.027344-.023438.050781-.046875.078125-.070313.023437-.027343.046875-.050781.070313-.078125.019531-.027344.042968-.058594.0625-.085937.019531-.03125.035156-.0625.050781-.09375s.03125-.0625.042969-.09375c.015624-.035157.027343-.066407.035156-.101563.011718-.03125.019531-.066406.023437-.101562.007813-.035156.011719-.070313.015625-.105469 0-.035156 0-.070313 0-.105469s-.003906-.070312-.007812-.105468c-.003906-.035157-.007813-.070313-.015625-.101563-.007813-.035156-.019531-.070313-.03125-.105469-.007813-.023437-.015625-.042968-.023438-.066406-.015625-.035156-.03125-.066406-.046875-.097656s-.035156-.058594-.054687-.089844c-.019531-.027344-.039063-.058594-.0625-.085938-.023438-.023437-.046875-.050781-.070313-.074218-.027344-.027344-.054687-.050782-.082031-.070313-.027344-.023437-.054687-.042969-.085937-.0625-.027344-.019531-.058594-.039062-.089844-.054687s-.0625-.03125-.097656-.042969c-.03125-.011719-.0625-.023437-.097657-.035156-.035156-.007813-.070312-.015625-.101562-.023438-.035157-.003906-.070313-.007812-.105469-.011719-.035156-.003906-.070312-.003906-.105469-.003906zm0 0" fill="#ccc"/><path d="m7.207031 7.347656c.035157 0 .070313 0 .105469.003906.035156.003907.070312.007813.105469.011719.03125.007813.066406.015625.101562.023438.035157.011719.066407.023437.097657.035156.035156.011719.066406.027344.097656.042969s.0625.035156.089844.054687c.03125.019531.058593.039063.085937.0625.027344.019531.054687.042969.082031.070313.023438.023437.046875.050781.070313.074218.023437.027344.042969.058594.0625.085938.019531.03125.039062.058594.054687.089844s.03125.0625.046875.097656c.007813.023438.015625.042969.023438.066406.011719.035156.023437.070313.03125.105469.007812.03125.011719.066406.015625.101563.003906.035156.007812.070312.007812.105468v.105469c-.003906.035156-.007812.070313-.015625.105469-.003906.035156-.015625.070312-.023437.101562-.007813.035156-.019532.066406-.035156.101563-.011719.03125-.027344.0625-.042969.09375s-.03125.0625-.050781.09375c-.019532.027343-.042969.058593-.0625.085937-.023438.027344-.046876.050782-.070313.078125-.027344.023438-.050781.046875-.078125.070313-.027344.023437-.054688.042968-.085938.0625-.027343.019531-.058593.039062-.089843.054687-.03125.019531-.0625.03125-.09375.046875-.023438.007813-.046875.019532-.070313.027344-.035156.011719-.066406.019531-.101562.027344-.035156.007812-.070313.015625-.105469.019531s-.070313.003906-.105469.007813c-.035156 0-.070312 0-.105468-.003907-.035157-.003906-.070313-.007812-.101563-.015625-.035156-.003906-.070313-.011718-.105469-.023437-.035156-.007813-.066406-.019531-.097656-.03125-.035156-.015625-.066406-.027344-.097656-.042969-.03125-.019531-.0625-.035156-.089844-.054688-.03125-.019531-.058594-.039062-.085938-.0625-.027343-.023437-.054687-.046874-.078124-.070312-.027344-.023438-.050782-.050781-.074219-.078125-.019531-.027344-.042969-.054687-.0625-.082031-.019531-.03125-.039063-.058594-.054688-.089844s-.03125-.0625-.046875-.097656c-.007812-.023438-.015625-.046875-.023437-.070313-.011719-.03125-.023438-.066406-.03125-.101562-.007813-.035157-.011719-.066407-.015625-.101563s-.007813-.070312-.007813-.105468c0-.035157 0-.070313.003907-.105469 0-.035157.003906-.070313.011718-.105469.003906-.035156.011719-.070312.023438-.105469.007812-.03125.019531-.066406.035156-.097656.011719-.03125.027344-.066406.042969-.097656s.035156-.058594.050781-.089844c.019531-.03125.042969-.058594.0625-.085937.023438-.027344.046875-.054688.070312-.078126.027344-.023437.050782-.050781.078126-.070312.027343-.023438.054687-.042969.085937-.066406.027344-.019532.058594-.035156.089844-.054688.03125-.015625.0625-.03125.09375-.042968.023437-.011719.046875-.019532.070312-.027344.035157-.011719.066407-.019532.101563-.027344s.070312-.015625.105468-.019531c.035157-.003907.070313-.007813.105469-.007813zm0 0" fill="#f2f2f2"/><path d="m9.644531 6.335938c-.035156 0-.070312.003906-.105469.007812-.035156.003906-.070312.007812-.105468.015625s-.066406.019531-.101563.03125c-.023437.007813-.046875.015625-.070312.023437-.03125.015626-.0625.03125-.09375.046876-.03125.015624-.0625.035156-.089844.054687-.03125.019531-.058594.039063-.085937.0625-.027344.023437-.050782.046875-.078126.070313-.023437.027343-.046874.054687-.070312.082031-.019531.027343-.042969.054687-.0625.082031-.019531.03125-.035156.0625-.050781.09375s-.03125.0625-.042969.09375c-.015625.035156-.027344.066406-.035156.101562-.011719.035157-.019532.070313-.023438.101563-.007812.035156-.011718.070313-.015625.105469v.105468c0 .035157.003907.070313.007813.105469.003906.035157.007812.070313.015625.105469.007812.03125.019531.066406.03125.101562.007812.023438.015625.046876.023437.070313l.046875.09375c.015625.03125.035157.0625.054688.089844.019531.03125.039062.058593.0625.085937.023437.027344.046875.050782.070312.078125.027344.023438.054688.046875.082031.070313.027344.019531.054688.042968.085938.0625.027344.015625.058594.035156.089844.050781s.0625.03125.097656.042969c.03125.015625.0625.023437.097656.035156.035156.007812.070313.015625.101563.023438.035156.007812.070312.011718.105469.011718.035156.003906.070312.003906.105468.003906s.070313-.003906.105469-.007812.070313-.011719.105469-.019531c.035156-.007813.066406-.015625.101562-.027344.023438-.007813.046875-.015625.070313-.027344.03125-.011719.0625-.027343.09375-.042969.03125-.015624.0625-.035156.089843-.054687.03125-.019531.058594-.042969.085938-.0625.027344-.023437.050781-.046875.078125-.074219.023437-.023437.046875-.050781.070313-.078125.019531-.027343.042968-.054687.058593-.085937.019531-.027344.039063-.058594.054688-.089844s.03125-.0625.042969-.097656c.015624-.03125.023437-.066406.035156-.097656.007812-.035157.015625-.070313.023437-.105469.007813-.035157.011719-.066407.011719-.101563.003906-.035156.003906-.070312.003906-.109375 0-.03125-.003906-.066406-.007812-.101562-.003906-.035157-.011719-.070313-.019532-.105469-.007812-.035156-.015624-.066406-.027343-.101562-.007813-.023438-.015625-.046876-.023438-.070313-.015625-.03125-.03125-.0625-.046875-.09375s-.035156-.0625-.054687-.089844c-.019531-.03125-.042969-.058593-.0625-.085937-.023438-.027344-.046875-.054688-.074219-.078125-.023438-.023438-.050781-.046875-.078125-.070313-.027344-.019531-.054687-.042968-.085937-.0625-.027344-.019531-.058594-.035156-.089844-.050781s-.0625-.03125-.097656-.042969c-.03125-.015625-.066407-.027344-.097657-.035156-.035156-.011719-.070312-.019531-.105469-.023438-.03125-.007812-.066406-.011718-.101562-.015624-.035156 0-.070312-.003907-.105469 0zm0 0" fill="#ccc"/><path d="m3.753906 5.925781c-.03125 0-.066406.003907-.101562.007813s-.070313.011718-.105469.019531-.066406.015625-.101563.027344c-.023437.007812-.046874.015625-.070312.023437-.03125.015625-.0625.03125-.09375.046875s-.0625.035157-.089844.054688c-.03125.019531-.058594.042969-.085937.0625-.027344.023437-.054688.046875-.078125.074219-.023438.023437-.046875.050781-.070313.078124-.019531.027344-.042969.054688-.0625.085938-.019531.027344-.035156.058594-.050781.089844s-.03125.0625-.042969.097656c-.015625.03125-.027343.066406-.035156.097656-.011719.035156-.019531.070313-.023437.105469-.007813.03125-.011719.066406-.015626.101563 0 .035156-.003906.070312 0 .105468 0 .035156 0 .070313.007813.105469.003906.035156.007813.070313.015625.105469s.019531.066406.03125.101562c.007812.023438.015625.046875.023438.070313.015624.03125.03125.0625.046874.09375.015626.03125.035157.0625.054688.089843.019531.03125.039062.058594.0625.085938s.046875.054688.070312.078125c.027344.023437.054688.046875.082032.070313.027344.019531.054687.042968.082031.0625.03125.019531.0625.035156.09375.050781s.0625.03125.09375.042969c.035156.015624.066406.027343.101563.035156.035156.011718.070312.019531.101562.023437.035156.007813.070312.011719.105469.015625.035156 0 .070312.003906.105469 0 .035156 0 .070312-.003906.105468-.007812s.070313-.007813.105469-.015625c.03125-.007813.066406-.019531.101563-.03125.023437-.007813.046874-.015625.070312-.023438.03125-.015625.0625-.03125.09375-.046875s.0625-.035156.089844-.054687c.03125-.019531.058594-.039063.085937-.0625.027344-.023438.050781-.046875.078125-.070313.023438-.027344.046875-.054687.070313-.082031.019531-.027344.039062-.054687.058593-.085937.019532-.027344.039063-.058594.054688-.089844s.03125-.0625.042969-.09375c.015625-.035156.023437-.066406.035156-.101563.007813-.035156.015625-.066406.023437-.101562.007813-.035157.011719-.070313.011719-.105469.003907-.035156.003907-.070312.003907-.105469 0-.035156-.003907-.070312-.007813-.105469-.003906-.035156-.007813-.070312-.019531-.105468-.007813-.035156-.015625-.066406-.027344-.101563-.007812-.023437-.015625-.046875-.027344-.070312-.011718-.03125-.027344-.0625-.042968-.09375-.015626-.03125-.035157-.0625-.054688-.089844-.019531-.03125-.042969-.058594-.0625-.085937-.023438-.027344-.046875-.050782-.074219-.078126-.023437-.023437-.050781-.046874-.078125-.070312-.027344-.019531-.054687-.042969-.085937-.058594-.027344-.019531-.058594-.039062-.089844-.054687s-.0625-.03125-.097656-.042969c-.03125-.011719-.066407-.023438-.097657-.035156-.035156-.007813-.070312-.015625-.105468-.023438-.035156-.007812-.070313-.011718-.105469-.011718-.03125-.003907-.066406-.003907-.105469-.003907zm0 0" fill="#f2f2f2"/><path d="m6.191406 4.910156c-.035156.003906-.070312.003906-.105468.007813-.03125.007812-.066407.011719-.101563.019531s-.070313.019531-.101563.027344c-.023437.007812-.046874.019531-.070312.027344-.03125.011718-.0625.027343-.09375.046874-.03125.015626-.0625.035157-.089844.054688-.03125.019531-.058594.039062-.085937.0625-.027344.023438-.054688.046875-.078125.070312-.023438.027344-.046875.050782-.070313.078126-.023437.027343-.042969.058593-.0625.085937-.019531.03125-.035156.0625-.050781.09375s-.03125.0625-.046875.09375c-.011719.035156-.023437.066406-.03125.101563-.011719.035156-.019531.066406-.023437.101562-.007813.035156-.011719.070312-.015626.105469 0 .035156-.003906.070312 0 .105469 0 .035156 0 .070312.007813.105468.003906.035156.007813.070313.015625.105469.007812.03125.019531.066406.03125.097656.007812.027344.015625.050781.023438.070313.015624.035156.03125.066406.046874.097656.015626.03125.035157.058594.054688.089844.019531.027344.039062.058594.0625.085937.023438.027344.046875.050781.070312.074219.027344.027344.054688.050781.082032.070312.027344.023438.054687.042969.085937.0625.027344.019532.058594.039063.089844.054688s.0625.03125.09375.042969c.035156.011719.066406.023437.101563.035156.035156.007813.066406.015625.101562.023437.035156.003907.070312.007813.105469.011719.035156.003907.070312.003907.105469.003907.035156 0 .070312-.003907.105468-.007813s.070313-.011719.105469-.019531c.03125-.007813.066406-.015625.101563-.027344.023437-.007812.046874-.015625.070312-.027344.03125-.011718.0625-.027344.09375-.046875.03125-.015625.0625-.03125.089844-.050781.03125-.019531.058594-.042969.085937-.066406.027344-.019532.050781-.042969.078125-.070313.023438-.023437.046875-.050781.070313-.078125.019531-.027344.039062-.054687.058593-.085937.019532-.03125.039063-.058594.054688-.089844s.03125-.066406.042969-.097656.023437-.066407.035156-.101563c.007813-.03125.015625-.066406.023437-.101562.007813-.035156.011719-.070313.011719-.105469.003907-.035156.003907-.070313.003907-.105469s-.003907-.070312-.007813-.105468c-.003906-.035157-.011719-.066407-.019531-.101563-.007813-.035156-.015625-.070313-.027344-.101563-.007812-.023437-.015625-.046874-.027344-.070312-.011718-.03125-.027344-.066406-.042968-.097656-.015626-.027344-.035157-.058594-.054688-.089844-.019531-.027344-.042969-.054688-.0625-.082031-.023438-.027344-.046875-.054688-.074219-.078125-.023437-.027344-.050781-.050782-.078125-.070313-.027344-.023437-.054687-.042969-.085937-.0625-.027344-.019531-.058594-.035156-.089844-.054687-.03125-.015625-.0625-.027344-.097656-.042969-.03125-.011719-.066407-.023437-.097657-.03125-.035156-.011719-.070312-.019531-.105468-.027344-.035156-.003906-.070313-.007812-.105469-.011719-.03125-.003906-.066406-.003906-.105469-.003906zm0 0" fill="#ccc"/><path d="m6.191406 4.910156c.039063 0 .074219 0 .105469.003906.035156.003907.070313.007813.105469.011719.035156.007813.070312.015625.105468.027344.03125.007813.066407.019531.097657.03125.035156.015625.066406.027344.097656.042969.03125.019531.0625.035156.089844.054687.03125.019531.058593.039063.085937.0625.027344.019531.054688.042969.078125.070313.027344.023437.050781.050781.074219.078125.019531.027343.042969.054687.0625.082031.019531.03125.039062.0625.054688.089844.015624.03125.03125.066406.042968.097656.011719.023438.019532.046875.027344.070312.011719.03125.019531.066407.027344.101563.007812.035156.015625.066406.019531.101563.003906.035156.007813.070312.007813.105468s0 .070313-.003907.105469c0 .035156-.003906.070313-.011719.105469-.007812.035156-.015624.070312-.023437.101562-.011719.035156-.023437.070313-.035156.101563s-.027344.066406-.042969.097656-.035156.058594-.054688.089844c-.019531.03125-.039062.058593-.058593.085937-.023438.027344-.046875.054688-.070313.078125-.027344.027344-.050781.050781-.078125.070313-.027343.023437-.054687.046875-.085937.066406-.027344.019531-.058594.035156-.089844.050781-.03125.019531-.0625.035157-.09375.046875-.023438.011719-.046875.019532-.070312.027344-.035157.011719-.070313.019531-.101563.027344-.035156.007812-.070313.015625-.105469.019531s-.070312.007813-.105468.007813c-.035157 0-.070313 0-.105469-.003907-.035157-.003906-.070313-.007812-.105469-.011719-.035156-.007812-.066406-.015624-.101562-.023437-.035157-.011719-.066407-.023437-.101563-.035156-.03125-.011719-.0625-.027344-.09375-.042969s-.0625-.035156-.089844-.054688c-.03125-.019531-.058593-.039062-.085937-.0625-.027344-.019531-.054688-.042968-.082032-.070312-.023437-.023438-.046874-.046875-.070312-.074219-.023438-.027343-.042969-.058593-.0625-.085937-.019531-.03125-.039062-.058594-.054688-.089844-.015624-.03125-.03125-.0625-.046874-.097656-.007813-.019532-.015626-.042969-.023438-.070313-.011719-.03125-.023438-.066406-.03125-.097656-.007812-.035156-.011719-.070313-.015625-.105469-.007813-.035156-.007813-.070312-.007813-.105468-.003906-.035157 0-.070313 0-.105469.003907-.035157.007813-.070313.015626-.105469.003906-.035156.011718-.066406.023437-.101562.007813-.035157.019531-.066407.03125-.101563l.046875-.09375c.015625-.03125.03125-.0625.050781-.09375.019531-.027344.039063-.058594.0625-.085937.023438-.027344.046875-.050782.070313-.078126.023437-.023437.050781-.046874.078125-.070312.027343-.023438.054687-.042969.085937-.0625.027344-.019531.058594-.039062.089844-.054688.03125-.019531.0625-.035156.09375-.046874.023438-.007813.046875-.019532.070312-.027344.03125-.007813.066407-.019532.101563-.027344s.070313-.011719.105469-.019531c.03125-.003907.066406-.003907.105468-.007813zm3.453125 1.425782c.035157-.003907.070313 0 .105469 0 .035156.003906.070312.007812.101562.015624.035157.003907.070313.011719.105469.023438.03125.007812.066407.019531.097657.035156.035156.011719.066406.027344.097656.042969s.0625.03125.089844.050781c.03125.019532.058593.042969.085937.0625.027344.023438.054687.046875.078125.070313.027344.023437.050781.050781.074219.078125.019531.027344.042969.054687.0625.085937.019531.027344.039062.058594.054687.089844l.046875.09375c.007813.023437.015625.046875.023438.070313.011719.035156.019531.066406.027343.101562.007813.035156.015626.070312.019532.105469.003906.035156.007812.070312.007812.101562 0 .039063 0 .074219-.003906.109375 0 .035156-.003906.066406-.011719.101563-.007812.035156-.015625.070312-.023437.105469-.011719.03125-.019532.066406-.035156.097656-.011719.035156-.027344.066406-.042969.097656s-.035157.0625-.050781.089844c-.019532.03125-.042969.058594-.0625.085937-.023438.027344-.046876.054688-.070313.078125-.027344.027344-.050781.050782-.078125.074219-.027344.019531-.054688.042969-.085938.0625-.027343.019531-.058593.039063-.089843.054687-.03125.015626-.0625.03125-.09375.042969-.023438.011719-.046875.019531-.070313.027344-.035156.011719-.066406.019531-.101562.027344-.035156.007812-.070313.015625-.105469.019531s-.070313.007812-.105469.007812-.070312 0-.105468-.003906c-.035157 0-.070313-.003906-.105469-.011718-.03125-.007813-.066407-.015626-.101563-.023438-.035156-.011719-.066406-.019531-.097656-.035156-.035156-.011719-.066406-.027344-.097656-.042969s-.0625-.035156-.089844-.050781c-.03125-.019532-.058594-.042969-.085938-.0625-.027343-.023438-.054687-.046875-.082031-.070313-.023437-.027343-.046875-.050781-.070312-.078125-.023438-.027344-.042969-.054687-.0625-.085937-.019531-.027344-.039063-.058594-.054688-.089844s-.03125-.0625-.046875-.09375c-.007812-.023437-.015625-.046875-.023437-.070313-.011719-.035156-.023438-.070312-.03125-.101562-.007813-.035156-.011719-.070312-.015625-.105469-.003906-.035156-.007813-.070312-.007813-.105469 0-.035156 0-.070312 0-.105468.003907-.035156.007813-.070313.015625-.105469.003906-.03125.015625-.066406.023438-.101563.007812-.035156.019531-.066406.035156-.101562.011719-.03125.027344-.0625.042969-.09375s.03125-.0625.050781-.09375c.019531-.027344.042969-.054688.0625-.082031.023438-.027344.046875-.054688.070312-.082031.027344-.023438.050782-.046876.078126-.070313.027343-.023437.054687-.042969.085937-.0625.027344-.019531.058594-.039063.089844-.054687.03125-.015626.0625-.03125.09375-.046876.023437-.007812.046875-.015624.070312-.023437.035157-.011719.066407-.023437.101563-.03125s.070312-.011719.105468-.015625c.035157-.003906.070313-.007812.105469-.007812zm0 0" fill="#f2f2f2"/><path d="m8.628906 3.898438c-.035156 0-.070312.003906-.105468.007812-.03125.003906-.066407.007812-.101563.015625s-.070313.019531-.101563.03125c-.023437.007813-.046874.015625-.070312.023437-.03125.015626-.0625.03125-.09375.046876-.03125.015624-.0625.035156-.09375.054687-.027344.019531-.054688.042969-.082031.0625-.027344.023437-.054688.046875-.078125.070313-.023438.027343-.046875.054687-.070313.082031-.023437.027343-.042969.054687-.0625.085937-.019531.027344-.035156.058594-.050781.089844s-.03125.0625-.046875.097656c-.011719.03125-.023437.066406-.03125.097656-.011719.035157-.019531.070313-.023437.101563-.007813.035156-.011719.070313-.015626.105469 0 .035156-.003906.070312 0 .105468 0 .035157 0 .070313.007813.105469.003906.035157.007813.070313.015625.105469s.019531.066406.03125.101562c.007812.023438.015625.046876.023438.070313.015624.03125.027343.0625.046874.09375.015626.03125.035157.0625.054688.089844.019531.03125.039062.058593.0625.085937s.046875.050782.070312.078125c.027344.023438.054688.046875.082032.070313.027344.019531.054687.042968.082031.0625.03125.019531.0625.035156.09375.050781s.0625.03125.09375.042969c.035156.015625.066406.027344.101563.035156.035156.011719.066406.019531.101562.023438.035156.007812.070312.011718.105469.011718.035156.003906.070312.003906.105469.003906.035156 0 .070312-.003906.105468-.007812s.070313-.007812.105469-.015625c.03125-.007813.066406-.019531.101563-.03125.023437-.007813.046874-.015625.070312-.023437.03125-.015626.0625-.03125.09375-.046876.03125-.015624.0625-.035156.089844-.054687.03125-.019531.058594-.039063.085937-.0625.027344-.023437.050781-.046875.078125-.074219.023438-.023437.046875-.050781.066406-.078125.023438-.027343.042969-.054687.0625-.085937.019532-.027344.039063-.058594.054688-.089844s.03125-.0625.042969-.097656c.011719-.03125.023437-.066406.035156-.097656.007813-.035157.015625-.070313.023437-.105469.003907-.03125.011719-.066407.011719-.101563.003907-.035156.003907-.070312.003907-.105468 0-.035157-.003907-.070313-.007813-.105469-.003906-.035157-.011719-.070313-.019531-.105469-.007813-.035156-.015625-.066406-.027344-.101562-.007812-.023438-.015625-.046876-.027344-.070313-.011718-.03125-.027344-.0625-.042968-.09375-.019532-.03125-.035157-.0625-.054688-.089844-.019531-.03125-.042969-.058593-.066406-.085937-.019532-.027344-.042969-.050782-.070313-.078125-.023437-.023438-.050781-.046875-.078125-.070313-.027344-.019531-.054687-.042968-.085937-.0625-.027344-.019531-.058594-.035156-.089844-.050781s-.0625-.03125-.097656-.042969c-.03125-.015625-.066407-.027344-.097657-.035156-.035156-.007812-.070312-.015625-.105468-.023438-.035156-.007812-.070313-.011718-.105469-.015624-.03125 0-.066406 0-.101563 0zm0 0" fill="#ccc"/><g fill="#f2f2f2"><path d="m8.628906 3.898438h.105469c.035156.003906.070313.007812.105469.015624.035156.007813.070312.015626.105468.023438.03125.007812.066407.019531.097657.035156.035156.011719.066406.027344.097656.042969s.0625.03125.089844.050781c.03125.019532.058593.042969.085937.0625.027344.023438.054688.046875.078125.070313.027344.027343.050781.050781.070313.078125.023437.027344.046875.054687.066406.085937.019531.027344.035156.058594.054688.089844.015624.03125.03125.0625.042968.09375.011719.023437.019532.046875.027344.070313.011719.035156.019531.066406.027344.101562.007812.035156.015625.070312.019531.105469.003906.035156.007813.070312.007813.105469 0 .035156 0 .070312-.003907.105468 0 .035156-.007812.070313-.011719.101563-.007812.035156-.015624.070312-.023437.105469-.011719.03125-.023437.066406-.035156.097656-.011719.035156-.027344.066406-.042969.097656s-.035156.0625-.054688.089844c-.019531.03125-.039062.058594-.0625.085937-.019531.027344-.042968.054688-.066406.078125-.027344.027344-.050781.050782-.078125.074219-.027343.023437-.054687.042969-.085937.0625-.027344.019531-.058594.039063-.089844.054687-.03125.015626-.0625.03125-.09375.046876-.023438.007812-.046875.015624-.070312.023437-.035157.011719-.070313.023437-.101563.03125-.035156.007813-.070313.011719-.105469.015625s-.070312.007812-.105468.007812c-.035157 0-.070313 0-.105469-.003906-.035157 0-.070313-.003906-.105469-.011718-.035156-.003907-.066406-.011719-.101562-.023438-.035157-.007812-.066407-.019531-.101563-.035156-.03125-.011719-.0625-.027344-.09375-.042969s-.0625-.03125-.09375-.050781c-.027344-.019532-.054687-.042969-.082031-.0625-.027344-.023438-.054688-.046875-.082032-.070313-.023437-.027343-.046874-.050781-.070312-.078125s-.042969-.054687-.0625-.085937c-.019531-.027344-.039062-.058594-.054688-.089844-.019531-.03125-.03125-.0625-.046874-.09375-.007813-.023437-.015626-.046875-.023438-.070313-.011719-.035156-.023438-.066406-.03125-.101562s-.011719-.070312-.015625-.105469c-.007813-.035156-.007813-.070312-.007813-.105469-.003906-.035156 0-.070312 0-.105468.003907-.035156.007813-.070313.015626-.105469.003906-.03125.011718-.066406.023437-.101563.007813-.03125.019531-.066406.03125-.097656.015625-.035156.03125-.066406.046875-.097656s.03125-.0625.050781-.089844c.019531-.03125.039063-.058594.0625-.085937.023438-.027344.046875-.054688.070313-.082031.023437-.023438.050781-.046876.078125-.070313.027343-.019531.054687-.042969.082031-.0625.03125-.019531.0625-.039063.09375-.054687.03125-.015626.0625-.03125.09375-.046876.023438-.007812.046875-.015624.070312-.023437.03125-.011719.066407-.023437.101563-.03125s.070313-.011719.101563-.015625c.035156-.003906.070312-.007812.105468-.007812zm0 0"/><path d="m2.742188 3.488281c-.035157 0-.070313.003907-.105469.007813-.035157.003906-.070313.011718-.101563.019531-.035156.007813-.070312.015625-.105468.027344-.023438.007812-.042969.015625-.066407.023437-.035156.015625-.066406.03125-.097656.046875s-.058594.035157-.089844.054688c-.027343.019531-.058593.042969-.085937.0625-.023438.023437-.050782.046875-.074219.074219-.027344.023437-.050781.050781-.070313.078124-.023437.027344-.042968.054688-.0625.085938-.019531.027344-.039062.058594-.054687.089844s-.03125.0625-.042969.097656c-.011718.03125-.023437.066406-.035156.097656-.007812.035156-.015625.070313-.023438.105469-.003906.03125-.007812.066406-.011718.101563-.003906.035156-.003906.070312-.003906.105468s.003906.070313.007812.105469.011719.070313.019531.105469c.007813.035156.015625.066406.027344.101562.007813.023438.015625.046875.027344.070313.011719.03125.027343.0625.042969.09375.019531.03125.035156.0625.054687.089843.023437.03125.042969.058594.066406.085938.019531.027344.046875.054688.070313.078125.023437.023437.050781.046875.078125.070313.027343.019531.054687.042968.085937.0625.03125.019531.058594.035156.089844.050781s.066406.03125.097656.042969c.03125.015624.066406.027343.097656.035156.035157.011718.070313.019531.105469.023437.035157.007813.070313.011719.105469.015625.035156 0 .070312.003906.105469 0 .035156 0 .070312 0 .105469-.007812.035156-.003906.066406-.007813.101562-.015625.035156-.007813.070312-.019531.101562-.03125.023438-.007813.046876-.015625.070313-.023438.035156-.015625.066406-.03125.097656-.046875s.058594-.035156.089844-.054687c.027344-.019531.054687-.039063.082031-.0625.027344-.023438.054688-.046875.078125-.070313.023438-.027344.046875-.054687.070313-.082031.023437-.027344.042968-.054687.0625-.085937.019531-.027344.035156-.058594.054687-.089844.015625-.03125.027344-.0625.042969-.09375.011719-.035156.023438-.066406.03125-.101563.011719-.035156.019531-.066406.023438-.101562.007812-.035157.011718-.070313.015624-.105469.003907-.035156.003907-.070312.003907-.105469-.003907-.035156-.003907-.070312-.007813-.105469-.003906-.035156-.011718-.070312-.019531-.105468s-.015625-.066406-.027344-.101563c-.007812-.023437-.019531-.046875-.027343-.070312-.015626-.03125-.027344-.0625-.046876-.09375-.015624-.03125-.035156-.0625-.054687-.089844-.019531-.03125-.039063-.058594-.0625-.085937-.023437-.027344-.046875-.050782-.070313-.078126-.027343-.023437-.050781-.046874-.078124-.070312-.027344-.019531-.058594-.042969-.085938-.058594-.03125-.019531-.0625-.039062-.09375-.054687s-.0625-.03125-.09375-.042969c-.035156-.011719-.066406-.023438-.101562-.035156-.03125-.007813-.066407-.015625-.101563-.023438-.035156-.007812-.070313-.011718-.105469-.011718-.035156-.003907-.070312-.003907-.105468-.003907zm0 0"/><path d="m5.179688 2.472656c-.035157.003906-.070313.003906-.105469.007813-.035157.007812-.070313.011719-.101563.019531-.035156.007812-.070312.019531-.105468.027344-.023438.007812-.046876.019531-.070313.027344-.03125.011718-.0625.027343-.09375.046874-.03125.015626-.058594.035157-.089844.054688-.027343.019531-.058593.039062-.085937.0625-.023438.023438-.050782.046875-.074219.070312-.027344.027344-.050781.050782-.070313.078126-.023437.027343-.042968.058593-.0625.085937-.019531.03125-.039062.0625-.054687.09375s-.03125.0625-.042969.09375c-.011718.035156-.023437.066406-.035156.101563-.007812.035156-.015625.066406-.023438.101562-.003906.035156-.007812.070312-.011718.105469-.003906.035156-.003906.070312-.003906.105469 0 .035156.003906.070312.007812.105468s.011719.070313.019531.105469c.007813.03125.015625.066406.027344.097656.007813.027344.015625.050781.027344.070313.011719.035156.027343.066406.042969.097656.019531.03125.035156.058594.054687.089844.019531.027344.042969.058594.066406.085937.019531.027344.042969.050781.070313.074219.023437.027344.050781.050781.078125.070312.027343.023438.054687.042969.085937.0625.03125.019532.058594.039063.089844.054688s.066406.03125.097656.042969.066406.023437.101563.035156c.03125.007813.066406.015625.101562.023437.035157.003907.070313.007813.105469.011719.035156.003907.070312.003907.105469.003907.035156 0 .070312-.003907.105469-.007813.035156-.003906.066406-.011719.101562-.019531.035156-.007813.070312-.015625.101562-.027344.023438-.007812.046876-.015625.070313-.027344.03125-.011718.066406-.027344.097656-.046875.03125-.015625.058594-.03125.089844-.050781.027344-.019531.054687-.042969.082031-.066406.027344-.019532.054688-.042969.078125-.070313.023438-.023437.046875-.050781.070313-.078125.023437-.027344.042968-.054687.0625-.085937.019531-.03125.035156-.058594.054687-.089844.015625-.03125.027344-.066406.042969-.097656.011719-.03125.023438-.066407.03125-.101563.011719-.03125.019531-.066406.023438-.101562.007812-.035156.011718-.070313.015624-.105469.003907-.035156.003907-.070313.003907-.105469-.003907-.035156-.003907-.070312-.007813-.105468-.007812-.035157-.011718-.066407-.019531-.101563s-.015625-.070313-.027344-.101563c-.007812-.023437-.019531-.046874-.027343-.070312-.015626-.03125-.027344-.066406-.046876-.097656-.015624-.027344-.035156-.058594-.054687-.089844-.019531-.027344-.039063-.054688-.0625-.082031-.023437-.027344-.046875-.054688-.070313-.078125-.027343-.027344-.050781-.050782-.078124-.070313-.027344-.023437-.058594-.042969-.085938-.0625-.03125-.019531-.0625-.035156-.09375-.054687-.03125-.015625-.0625-.027344-.09375-.042969-.035156-.011719-.066406-.023437-.101562-.03125-.03125-.011719-.066407-.019531-.101563-.027344-.035156-.003906-.070313-.007812-.105469-.011719-.035156-.003906-.070312-.003906-.105468-.003906zm0 0"/><path d="m7.617188 1.460938c-.035157 0-.070313.003906-.105469.007812-.035157.003906-.070313.011719-.105469.019531-.03125.007813-.066406.015625-.101562.027344-.023438.007813-.046876.015625-.070313.023437-.03125.015626-.0625.03125-.09375.046876-.03125.015624-.0625.035156-.089844.054687-.03125.019531-.058593.042969-.085937.0625-.027344.023437-.050782.046875-.078125.074219-.023438.023437-.046875.050781-.070313.078125-.019531.027343-.039062.054687-.058594.085937-.019531.027344-.039062.058594-.054687.089844s-.03125.0625-.042969.097656c-.011718.03125-.023437.066406-.035156.097656-.007812.035157-.015625.070313-.023438.105469-.003906.03125-.011718.066407-.011718.101563-.003906.035156-.003906.070312-.003906.105468 0 .035157.003906.070313.007812.105469.003906.035157.011719.070313.019531.105469.007813.035156.015625.066406.027344.101562.007813.023438.015625.046876.027344.070313.011719.03125.027343.0625.042969.09375.019531.03125.035156.0625.054687.089844.019531.03125.042969.058593.0625.085937.023437.027344.046875.054688.074219.078125.023437.023438.050781.046875.078125.070313.027343.019531.054687.042968.085937.0625.027344.019531.058594.035156.089844.050781s.0625.03125.097656.042969c.03125.015625.066406.027344.101563.035156.03125.011719.066406.019531.101562.023438.035157.007812.070313.011718.105469.015624.035156 0 .070312.003907.105469 0 .035156 0 .070312-.003906.105469-.007812.035156-.003906.066406-.007812.101562-.015625s.070312-.019531.101562-.03125c.023438-.007813.046876-.015625.070313-.023437.03125-.015626.066406-.03125.09375-.046876.03125-.015624.0625-.035156.09375-.054687.027344-.019531.054687-.039063.082031-.0625s.054688-.046875.078125-.070313c.023438-.027343.046875-.054687.070313-.082031.023437-.027343.042968-.054687.0625-.085937.019531-.027344.035156-.058594.050781-.089844.019531-.03125.03125-.0625.046875-.09375.011719-.035156.023438-.066406.03125-.101562.011719-.035157.019531-.066407.023438-.101563.007812-.035156.011718-.070313.015624-.105469.003907-.035156.003907-.070312.003907-.105468-.003907-.035157-.003907-.070313-.011719-.105469-.003906-.035157-.007812-.070313-.015625-.105469s-.019531-.066406-.03125-.101562c-.007813-.023438-.015625-.046876-.023437-.070313-.015626-.03125-.03125-.0625-.046876-.09375-.015624-.03125-.035156-.0625-.054687-.089844-.019531-.03125-.039063-.058593-.0625-.085937s-.046875-.050782-.070313-.078125c-.027343-.023438-.050781-.046875-.082031-.070313-.027343-.019531-.054687-.042968-.082031-.058594-.03125-.019531-.0625-.039062-.09375-.054687s-.0625-.03125-.09375-.042969c-.035156-.011718-.066406-.023437-.101562-.035156-.035157-.007812-.066407-.015625-.101563-.023438-.035156-.007812-.070313-.011718-.105469-.011718-.035156-.003906-.070312-.003906-.105468-.003906zm0 0"/><path d="m3.207031.710938c-.011719.03125-.023437.0625-.03125.09375-.011719.035156-.019531.066406-.023437.101562-.007813.035156-.011719.070312-.015625.105469 0 .035156-.003907.070312 0 .105469 0 .035156 0 .070312.007812.105468.003907.035156.007813.070313.015625.105469.007813.03125.019532.066406.03125.101563.007813.023437.015625.046874.023438.070312l.046875.09375c.015625.03125.035156.0625.054687.089844.019532.03125.039063.058594.0625.085937.023438.027344.046875.050781.070313.074219.027343.027344.054687.050781.082031.070312.027344.023438.054688.042969.082031.0625.03125.019532.0625.039063.09375.054688s.0625.03125.09375.042969c.035157.011719.066407.023437.101563.035156.035156.007813.070312.015625.101562.023437.035156.003907.070313.011719.105469.011719.035156.003907.070313.003907.105469.003907s.070312-.003907.105468-.007813c.035157-.003906.070313-.011719.105469-.019531.03125-.007813.066407-.015625.101563-.027344.023437-.007812.046875-.015625.070312-.027344.03125-.011718.0625-.027344.09375-.042968.03125-.019532.0625-.035157.089844-.054688.03125-.019531.058594-.042969.085938-.066406.027343-.019532.050781-.042969.078124-.070313.023438-.023437.046876-.050781.070313-.078125.019531-.027344.042969-.054687.0625-.085937.015625-.027344.035156-.058594.050781-.089844s.03125-.066406.042969-.097656c.015625-.03125.023437-.066407.035156-.101563.007813-.03125.015625-.066406.023438-.101562.007812-.035156.011719-.070313.011719-.105469.003906-.035156.003906-.070313.003906-.105469s-.003906-.070312-.007813-.105468c-.003906-.035157-.011719-.066407-.019531-.101563s-.015625-.070313-.027344-.101563c-.003906-.015624-.011718-.03125-.015625-.046874zm0 0"/><path d="m .773438 2.496094c0 .003906.003906.011718.007812.015625.011719.03125.027344.066406.042969.09375.015625.03125.035156.0625.054687.09375.019532.027343.042969.054687.0625.082031.023438.027344.046875.054688.074219.078125.023437.023437.050781.046875.078125.070313.027344.023437.054688.042968.085938.0625.027343.019531.058593.035156.089843.050781.03125.019531.0625.03125.097657.046875.03125.011718.0625.023437.097656.03125.035156.011718.070312.019531.101562.023437.035156.007813.070313.011719.105469.015625s.070313.003906.105469 0c .035156 0 .070312 0 .105468-.003906.035157-.007812.070313-.011719.105469-.019531.035157-.007813.066407-.019531.101563-.027344.023437-.007813.046875-.019531.070312-.027344l.09375-.046875s.0625-.035156.089844-.054687c.03125-.019531.058594-.039063.085938-.0625.027343-.023438.050781-.046875.078124-.070313.023438-.027344.046876-.050781.070313-.078125.019531-.027343.042969-.058593.0625-.085937.015625-.03125.035156-.0625.050781-.09375s.03125-.0625.042969-.09375c.015625-.035156.023437-.066406.035156-.101563.007813-.035156.019531-.066406.023438-.101562.007812-.035157.011719-.070313.011719-.105469.003906-.035156.003906-.070312.003906-.105469 0-.035156-.003906-.070312-.007813-.105469-.003906-.035156-.007812-.070312-.019531-.105468-.003906-.03125-.015625-.066406-.027344-.101563-.007812-.023437-.015625-.046875-.023437-.070312-.015625-.03125-.03125-.0625-.046875-.09375s-.035156-.0625-.054688-.089844c-.019531-.03125-.039062-.058594-.0625-.085937-.023437-.027344-.046875-.050782-.074218-.078126-.023438-.023437-.050782-.046874-.078126-.070312-.027343-.019531-.054687-.039062-.085937-.058594-.027344-.019531-.058594-.039062-.089844-.054687s-.0625-.03125-.097656-.042969c-.03125-.011719-.066406-.023438-.097656-.035156-.035157-.007813-.070313-.015625-.105469-.023438-.03125-.003906-.066406-.011718-.101562-.011718-.035157-.003907-.070313-.003907-.105469-.003907-.003907 0-.003907 0-.003907 0-.511718.316407-.859374.828125-.953124 1.445313zm0 0"/><path d="m .710938 6.539062c.007812 0 .015624-.003906.023437-.007812.035156-.011719.066406-.027344.097656-.042969.03125-.019531.058594-.035156.089844-.054687.027344-.019532.058594-.042969.082031-.066406.027344-.019532.054688-.042969.078125-.070313.027344-.023437.050781-.050781.070313-.078125.023437-.027344.042968-.054688.0625-.085938.019531-.03125.039062-.058593.054687-.089843s.03125-.066407.042969-.097657.023438-.066406.03125-.101562c.011719-.03125.019531-.066406.027344-.101562.003906-.035157.007812-.070313.011718-.105469.003907-.035157.003907-.070313.003907-.105469s-.003907-.070312-.007813-.105469c-.003906-.035156-.011718-.066406-.019531-.101562-.007813-.035157-.015625-.070313-.027344-.101563-.007812-.023437-.015625-.046875-.027343-.070312-.011719-.03125-.027344-.066406-.046876-.097656-.015624-.027344-.03125-.058594-.054687-.089844-.019531-.027344-.039063-.054688-.0625-.082032-.019531-.027343-.046875-.054687-.070313-.078124-.027343-.027344-.050781-.050782-.078124-.070313-.027344-.023437-.058594-.042969-.085938-.0625-.03125-.019531-.058594-.035156-.09375-.050781-.027344-.019532-.0625-.03125-.09375-.046875-.003906 0-.003906 0-.007812 0zm0 0"/><path d="m .710938 8.839844c.019531.011718.039062.027344.058593.039062.027344.019532.058594.039063.089844.054688s.0625.03125.09375.042968c.035156.011719.066406.023438.101563.035157.035156.007812.070312.015625.101562.023437.035156.003906.070312.011719.105469.011719.035156.003906.070312.003906.105469.003906.035156 0 .070312-.003906.105468-.007812.035156-.003907.070313-.011719.105469-.019531.035156-.007813.066406-.015626.101563-.027344.023437-.007813.046874-.015625.070312-.027344.03125-.011719.0625-.027344.09375-.042969.03125-.019531.0625-.035156.089844-.054687.03125-.019532.058594-.042969.085937-.066406.027344-.019532.050781-.042969.078125-.070313.023438-.023437.046875-.050781.070313-.078125.019531-.027344.042969-.054688.0625-.085938.015625-.03125.035156-.058593.050781-.089843s.03125-.066407.042969-.097657c.015625-.03125.023437-.066406.035156-.101562.007813-.03125.015625-.066406.023437-.101562.007813-.035157.011719-.070313.011719-.105469.003907-.035157.003907-.070313.003907-.105469s-.003907-.070312-.007813-.105469c-.003906-.035156-.007813-.066406-.019531-.101562-.007813-.035157-.015625-.070313-.027344-.101563-.007812-.023437-.015625-.046875-.023438-.070312-.015624-.03125-.03125-.066406-.046874-.097656-.015626-.027344-.035157-.058594-.054688-.089844-.019531-.027344-.042969-.054688-.0625-.082032-.023438-.027343-.046875-.054687-.074219-.078124-.023437-.027344-.050781-.050782-.078125-.070313-.027344-.023437-.054687-.042969-.085937-.0625-.027344-.019531-.058594-.035156-.089844-.050781-.03125-.019532-.0625-.03125-.097656-.046875-.03125-.011719-.066407-.023438-.097657-.03125-.035156-.011719-.070312-.019531-.105468-.027344-.03125-.003906-.066406-.007813-.101563-.011719-.035156-.003906-.070312-.003906-.105469-.003906-.035156.003906-.070312.003906-.105468.007812-.035156.007813-.070313.011719-.105469.019532-.035156.007812-.066406.019531-.101563.027344-.023437.007812-.046874.019531-.070312.027343-.03125.011719-.0625.027344-.09375.046875-.03125.015625-.0625.035156-.089844.054688-.015625.007812-.027344.019531-.042968.03125zm0 0"/><path d="m2.972656 11.289062c.019532-.015624.039063-.03125.058594-.046874.027344-.019532.054688-.046876.078125-.070313.023437-.027344.046875-.050781.070313-.078125.023437-.027344.042968-.058594.0625-.085938.019531-.03125.035156-.058593.054687-.09375.015625-.03125.027344-.0625.042969-.09375.011718-.03125.023437-.066406.03125-.101562.011718-.03125.019531-.066406.023437-.101562.007813-.035157.011719-.070313.015625-.105469.003906-.035157.003906-.070313.003906-.105469-.003906-.035156-.003906-.070312-.007812-.105469-.003906-.035156-.011719-.070312-.019531-.101562-.007813-.035157-.015625-.070313-.027344-.101563-.007813-.023437-.019531-.046875-.027344-.070312-.015625-.035156-.027343-.066406-.046875-.097656-.015625-.03125-.035156-.058594-.054687-.089844-.019531-.027344-.039063-.058594-.0625-.085938-.023438-.023437-.046875-.050781-.070313-.074218-.027344-.027344-.050781-.050782-.078125-.070313-.027343-.023437-.058593-.042969-.085937-.0625-.03125-.019531-.0625-.039063-.09375-.054687-.03125-.015626-.0625-.03125-.09375-.042969-.035156-.011719-.066406-.023438-.101563-.035157-.03125-.007812-.066406-.015624-.101562-.023437-.035157-.003906-.070313-.007813-.105469-.011719s-.070312-.003906-.105469-.003906c-.035156 0-.070312.003906-.105469.007812-.035156.003907-.070312.011719-.101562.019532-.035156.007812-.070312.015625-.105469.027344-.023437.007812-.046875.015624-.070312.027343-.03125.011719-.0625.027344-.09375.042969-.03125.019531-.058594.035156-.089844.054688-.027344.023437-.058594.042968-.085937.066406-.027344.019531-.050782.046875-.078126.070312-.023437.023438-.046874.050782-.066406.078125-.023437.027344-.042968.054688-.0625.085938-.019531.03125-.039062.058593-.054687.089843s-.03125.066407-.042969.097657-.023438.066406-.035156.097656c-.007813.035156-.015625.070313-.023438.105469-.003906.035156-.011718.070312-.011718.105468-.003907.035157-.003907.070313-.003907.105469 0 .035157.003907.070313.007813.105469s.011718.066406.019531.101562c0 .007813.003906.011719.003906.019532.378907.375.894531.605468 1.46875.605468zm0 0"/><path d="m6.695312 11.289062c-.003906-.007812-.007812-.019531-.015624-.027343-.019532-.027344-.039063-.054688-.0625-.082031-.023438-.027344-.046876-.054688-.070313-.078126-.027344-.023437-.050781-.046874-.078125-.070312s-.058594-.042969-.085938-.0625c-.03125-.019531-.0625-.035156-.09375-.054688-.03125-.015624-.0625-.027343-.09375-.042968-.035156-.011719-.066406-.023438-.101562-.03125-.03125-.011719-.066406-.019532-.101562-.023438-.035157-.007812-.070313-.011718-.105469-.015625-.035157-.003906-.070313-.003906-.105469-.003906-.035156.003906-.070312.003906-.105469.007813-.035156.003906-.070312.011718-.105469.019531-.03125.007812-.066406.015625-.101562.027343-.023438.007813-.046875.019532-.066406.027344-.035156.015625-.066406.027344-.097656.046875-.03125.015625-.058594.035157-.089844.054688-.027344.019531-.058594.039062-.085938.0625-.023437.023437-.050781.046875-.074218.070312-.027344.027344-.050782.050781-.070313.078125-.023437.027344-.042969.058594-.0625.085938-.003906.003906-.003906.007812-.007813.011718zm0 0"/><path d="m9.199219 11.289062c.007812-.019531.015625-.039062.027343-.058593.011719-.035157.023438-.066407.03125-.101563.011719-.035156.019532-.070312.023438-.101562.007812-.035156.011719-.070313.015625-.105469 0-.035156.003906-.070313 0-.105469 0-.035156 0-.070312-.003906-.105468-.003907-.035157-.011719-.070313-.019531-.105469-.007813-.035157-.019532-.066407-.027344-.101563-.007813-.023437-.019532-.046875-.027344-.070312-.015625-.03125-.027344-.0625-.046875-.09375-.015625-.03125-.035156-.0625-.054687-.089844-.019532-.03125-.039063-.058594-.0625-.085938-.023438-.027343-.046876-.050781-.070313-.078124-.027344-.023438-.050781-.046876-.078125-.070313-.027344-.019531-.058594-.042969-.085938-.0625-.03125-.015625-.0625-.035156-.09375-.050781s-.0625-.03125-.09375-.042969c-.035156-.015625-.066406-.023437-.101562-.035156-.035156-.007813-.066406-.015625-.101562-.023438-.035157-.007812-.070313-.011719-.105469-.011719-.035157-.003906-.070313-.003906-.105469-.003906s-.070312.003906-.105469.007813c-.035156.003906-.070312.011719-.105469.019531-.03125.007812-.066406.015625-.101562.027344-.023438.007812-.046875.015625-.070312.027344-.03125.011718-.0625.027343-.09375.042968s-.0625.035156-.089844.054688c-.027344.019531-.058594.042968-.085938.0625-.023437.023437-.050781.046875-.074218.074218-.027344.023438-.050782.050782-.070313.078126-.023437.027343-.042969.054687-.0625.085937-.019531.027344-.039063.058594-.054687.089844-.015626.03125-.03125.0625-.042969.097656-.011719.03125-.023438.066406-.035157.097656-.007812.035157-.015624.070313-.023437.105469-.003906.03125-.007813.066406-.011719.101562-.003906.035157-.003906.070313-.003906.105469 0 .035157.003906.070313.007812.105469.003907.035156.011719.070312.019532.105469.007812.035156.015625.066406.027344.101562.007812.023438.015624.046875.027343.070313.003907.015625.011719.027344.019531.042968h1.90625zm0 0"/><path d="m11.289062 8.964844c-.011718-.007813-.023437-.015625-.035156-.023438-.027344-.019531-.058594-.035156-.089844-.054687-.03125-.015625-.0625-.027344-.09375-.042969-.035156-.011719-.066406-.023438-.101562-.03125-.035156-.011719-.066406-.019531-.101562-.023438-.035157-.007812-.070313-.011718-.105469-.015624-.035157-.003907-.070313-.003907-.105469-.003907-.035156.003907-.070312.003907-.105469.007813-.035156.003906-.070312.011718-.105469.019531-.03125.007813-.066406.015625-.101562.027344-.023438.007812-.046875.019531-.070312.027343-.03125.015626-.0625.027344-.09375.046876-.03125.015624-.0625.035156-.089844.054687-.03125.019531-.058594.039063-.085938.0625s-.050781.046875-.078125.070313c-.023437.027343-.046875.050781-.066406.078124-.023437.027344-.042969.058594-.0625.085938-.019531.03125-.039063.0625-.054687.09375-.015626.03125-.03125.0625-.042969.09375-.011719.035156-.023438.066406-.035157.101562-.007812.03125-.015624.066407-.023437.101563s-.011719.070313-.011719.105469c-.003906.035156-.003906.070312-.003906.105468 0 .035157.003906.070313.007812.105469.003907.035157.011719.070313.019532.101563.007812.035156.015625.070312.027344.105468.007812.023438.015624.046876.027343.066407.011719.035156.027344.066406.042969.097656s.035156.058594.054688.089844c.019531.027343.042968.058593.066406.085937.019531.023438.042968.050782.070312.074219.023438.027344.050782.050781.078125.070313.027344.023437.054688.042968.085938.0625.027343.019531.058593.039062.089843.054687s.0625.03125.097657.042969c.03125.011718.066406.023437.097656.035156.011719 0 .023437.003906.03125.003906.511719-.378906.867187-.960937.867187-1.648437zm0 0"/><path d="m11.289062 5.707031c-.003906.003907-.003906.003907-.007812.007813-.023438.027344-.042969.054687-.0625.085937s-.035156.058594-.050781.089844-.03125.066406-.042969.097656c-.015625.03125-.027344.066407-.035156.097657-.011719.035156-.019532.070312-.023438.105468-.007812.035156-.011718.070313-.015625.105469 0 .035156-.003906.070313 0 .105469 0 .035156.003907.070312.007813.105468.003906.035157.007812.066407.015625.101563.007812.035156.019531.070313.03125.101563.007812.023437.015625.046874.023437.070312.015625.035156.03125.066406.046875.097656s.035157.058594.054688.089844c.019531.027344.039062.050781.058593.078125zm0 0"/><path d="m11.289062 2.902344c-.003906 0-.007812 0-.011718-.003906-.035156-.003907-.070313-.007813-.105469-.011719-.035156-.003907-.070313-.003907-.105469-.003907-.035156.003907-.070312.003907-.105468.007813-.03125.003906-.066407.011719-.101563.019531-.035156.007813-.070313.015625-.101563.027344-.023437.007812-.046874.019531-.070312.027344-.035156.011718-.066406.027344-.097656.046875-.027344.015625-.058594.03125-.089844.050781-.027344.023438-.054688.042969-.082031.066406-.027344.023438-.054688.046875-.078125.070313-.023438.023437-.046875.050781-.070313.078125-.023437.027344-.042969.058594-.0625.085937-.019531.03125-.035156.058594-.050781.089844-.019531.03125-.03125.066406-.046875.097656-.011719.035157-.023437.066407-.03125.101563-.011719.03125-.019531.066406-.023437.101562-.007813.035156-.011719.070313-.015626.105469 0 .035156-.003906.070313 0 .105469 0 .035156 0 .070312.003907.105468.003906.035157.011719.070313.019531.101563.007812.035156.019531.070313.027344.101563.007812.023437.019531.046874.027344.070312.015624.035156.027343.066406.046874.097656.015626.03125.035157.058594.054688.089844.019531.027344.039062.058594.0625.082031.023438.027344.046875.054688.070312.078125.027344.027344.050782.050782.078126.070313.027343.023437.058593.042969.085937.0625.03125.019531.0625.039062.09375.054687s.0625.03125.09375.042969c.035156.011719.066406.023437.101563.03125.035156.011719.066406.019531.101562.027344.035156.003906.070312.007812.105469.011719.035156.003906.070312.003906.105469.003906.035156 0 .070312-.003906.105468-.007813.023438-.003906.042969-.007812.066406-.011719zm0 0"/><path d="m9.347656.742188c-.007812.007812-.015625.011718-.023437.019531-.023438.027343-.046875.050781-.070313.078125-.019531.027344-.042968.058594-.058594.085937-.019531.03125-.039062.0625-.054687.09375s-.03125.0625-.042969.09375c-.015625.035157-.023437.066407-.035156.101563-.007812.03125-.015625.066406-.023438.101562-.007812.035156-.011718.070313-.011718.105469-.003906.035156-.003906.070313-.003906.105469s.003906.070312.007812.105468c.003906.035157.007812.070313.015625.101563.007813.035156.019531.070313.03125.101563.007813.027343.015625.050781.023437.070312.015626.035156.03125.066406.046876.097656.015624.03125.035156.058594.054687.089844.019531.027344.042969.058594.0625.085938.023437.027343.046875.050781.074219.074218.023437.027344.050781.050782.078125.070313.027343.023437.054687.042969.085937.0625.027344.019531.058594.039062.089844.054687s.0625.03125.097656.042969c.03125.011719.0625.023437.097656.035156.035157.007813.070313.015625.105469.023438.03125.003906.066407.007812.101563.011719.035156.003906.070312.003906.105468.003906.035157 0 .070313-.003906.105469-.007813.035157-.003906.070313-.011719.105469-.019531s.066406-.015625.101562-.027344c.023438-.007812.046876-.015625.070313-.027344.03125-.011718.0625-.027343.09375-.046874.03125-.015626.0625-.03125.089844-.050782.03125-.019531.058593-.042968.085937-.066406.027344-.019531.054688-.042969.078125-.070312.023438-.023438.046875-.050782.070313-.078126.019531-.027343.042968-.054687.0625-.085937.019531-.03125.035156-.058594.050781-.089844s.03125-.0625.042969-.097656c-.316406-.648437-.953125-1.09375-1.710938-1.148437zm0 0"/><path d="m5.785156.710938c.011719.015624.019532.03125.03125.042968.023438.027344.046875.054688.074219.078125.023437.023438.050781.046875.078125.070313.027344.023437.054688.042968.085938.0625.027343.019531.058593.035156.089843.050781.03125.019531.0625.03125.09375.042969.035157.015625.066407.027344.101563.035156.035156.011719.070312.019531.101562.023438.035156.007812.070313.011718.105469.015624.035156 0 .070313.003907.105469 0 .035156 0 .070312 0 .105468-.007812.035157-.003906.070313-.007812.105469-.015625.03125-.007813.066407-.019531.101563-.027344.023437-.007812.046875-.019531.070312-.027343.03125-.015626.0625-.03125.09375-.046876.03125-.015624.0625-.035156.089844-.054687.03125-.019531.058594-.039063.085938-.0625.027343-.023437.050781-.046875.078124-.070313.023438-.027343.046876-.050781.066407-.078124.007812-.011719.015625-.019532.023437-.03125zm0 0"/></g></g></svg>