<svg height="12pt" viewBox="0 0 12 12" width="12pt" xmlns="http://www.w3.org/2000/svg"><path d="m2.800781.710938h6.398438c1.152343 0 2.089843.9375 2.089843 2.089843v6.398438c0 1.152343-.9375 2.089843-2.089843 2.089843h-6.398438c-1.152343 0-2.089843-.9375-2.089843-2.089843v-6.398438c0-1.152343.9375-2.089843 2.089843-2.089843zm0 0" fill="#769edc" fill-rule="evenodd"/><path d="m6.253906 2.8125c-.039062 0-.03125.15625.011719.191406.046875.042969.117187.183594.136719.28125l.015625.074219-.128907.027344c-.3125.066406-.375.28125-.171874.609375.070312.113281.070312.117187.058593.367187-.011719.183594-.007812.28125.019531.367188.039063.140625.152344.265625.269532.308593.132812.042969.484375.023438.617187-.039062.144531-.0625.332031-.257812.382813-.398438.0625-.164062.039062-.390624-.058594-.589843-.09375-.1875-.339844-.449219-.511719-.535157-.089843-.046874-.132812-.085937-.164062-.152343-.042969-.097657-.429688-.511719-.476563-.511719zm-2.238281.75c-.007813 0-.011719 0-.015625.003906-.046875.050782-.085938.296875-.082031.527344.003906.214844 0 .261719-.042969.332031-.144531.242188-.167969.683594-.050781.933594.101562.222656.273437.359375.53125.421875.183593.046875.304687.039062.476562-.023438.46875-.167968.550781-.503906.210938-.882812-.136719-.152344-.199219-.277344-.199219-.390625 0-.136719-.050781-.273437-.136719-.363281-.074219-.082032-.078125-.082032-.226562-.070313-.082031.007813-.175781.019531-.214844.03125-.058594.015625-.066406.007813-.109375-.089843-.027344-.058594-.046875-.152344-.050781-.214844 0-.09375-.054688-.210938-.089844-.214844zm4.765625.375c-.058594-.011719-.078125.125-.03125.226562.023438.042969.035156.121094.03125.171876l-.007812.089843h-.125c-.097657.003907-.144532.019531-.210938.070313-.082031.0625-.203125.269531-.203125.34375 0 .015625-.074219.179687-.167969.359375-.089844.183593-.171875.367187-.179687.410156-.054688.238281.089843.414063.429687.535156.144532.050781.296875.054688.457032.011719.265624-.070312.4375-.203125.539062-.421875.054688-.117187.0625-.164063.0625-.371094 0-.273437-.054688-.445312-.191406-.640625-.042969-.0625-.097656-.179687-.117188-.265625-.046875-.171875-.230468-.507812-.285156-.519531zm-6.125 1.875c-.007812 0-.011719 0-.015625.003906-.046875.050782.023437.5625.097656.683594.019531.03125.046875.132812.058594.226562.0625.429688.363281.828126.703125.941407.113281.035156.367188.023437.527344-.03125.136718-.042969.179687-.074219.28125-.1875.210937-.238281.25-.472657.109375-.660157-.039063-.050781-.152344-.144531-.253907-.207031-.101562-.066406-.28125-.183593-.394531-.265625-.335937-.234375-.371093-.257812-.464843-.285156-.117188-.035156-.238282.003906-.335938.105469l-.074219.078125-.046875-.085938c-.027344-.046875-.050781-.105468-.050781-.136718 0-.050782-.097656-.167969-.140625-.179688zm4.28125.375c-.144531 0-.316406.023438-.511719.070312-.554687.136719-.820312.296876-.9375.570313-.050781.121094-.054687.160156-.042969.390625.015626.230469.011719.265625-.042968.378906-.054688.117188-.121094.183594-.414063.433594-.089843.078125-.101562.09375-.109375.238281-.011718.132813 0 .179688.066406.320313.144532.304687.402344.511718.730469.574218.152344.03125.253907.03125.519531 0 1.027344-.113281 2.207032-.484374 2.542969-.796874.179688-.164063.25-.316407.261719-.554688.019531-.457031-.1875-.734375-.554688-.734375-.289062 0-.578124-.167969-.695312-.402344-.089844-.175781-.269531-.347656-.433594-.421875-.105468-.042968-.230468-.066406-.378906-.066406zm0 0" fill="#313131"/></svg>