<svg height="12pt" viewBox="0 0 12 12" width="12pt" xmlns="http://www.w3.org/2000/svg"><path d="m2.800781.710938h6.398438c1.152343 0 2.089843.9375 2.089843 2.089843v6.398438c0 1.152343-.9375 2.089843-2.089843 2.089843h-6.398438c-1.152343 0-2.089843-.9375-2.089843-2.089843v-6.398438c0-1.152343.9375-2.089843 2.089843-2.089843zm0 0" fill="#246e9a" fill-rule="evenodd"/><path d="m6 2.25c-2.070312 0-3.75 1.679688-3.75 3.75s1.679688 3.75 3.75 3.75 3.75-1.679688 3.75-3.75-1.679688-3.75-3.75-3.75zm0 1.125c.414062 0 .75.300781.75.675781v3.148438c0 .375-.335938.675781-.75.675781s-.75-.300781-.75-.675781v-3.148438c0-.375.335938-.675781.75-.675781zm-2.25 1.5c.414062 0 .75.335938.75.75v1.5c0 .414062-.335938.75-.75.75s-.75-.335938-.75-.75v-1.5c0-.414062.335938-.75.75-.75zm4.5 0c .414062 0 .75.335938.75.75v1.5c0 .414062-.335938.75-.75.75s-.75-.335938-.75-.75v-1.5c0-.414062.335938-.75.75-.75zm0 0" fill="#fff"/></svg>