<svg height="12pt" viewBox="0 0 12 12" width="12pt" xmlns="http://www.w3.org/2000/svg"><path d="m2.800781.710938h6.398438c1.152343 0 2.089843.9375 2.089843 2.089843v6.398438c0 1.152343-.9375 2.089843-2.089843 2.089843h-6.398438c-1.152343 0-2.089843-.9375-2.089843-2.089843v-6.398438c0-1.152343.9375-2.089843 2.089843-2.089843zm0 0" fill="#1da6e8" fill-rule="evenodd"/><path d="m4.875 7.125c0 .726562-.585938 1.3125-1.3125 1.3125s-1.3125-.585938-1.3125-1.3125.585938-1.3125 1.3125-1.3125 1.3125.585938 1.3125 1.3125zm0 0" fill="#ffe174"/><path d="m5.25 5.4375c0 .621094-.503906 1.125-1.125 1.125s-1.125-.503906-1.125-1.125.503906-1.125 1.125-1.125 1.125.503906 1.125 1.125zm0 0" fill="#ffd338"/><path d="m7.875 5.25c0 .933594-.753906 1.6875-1.6875 1.6875s-1.6875-.753906-1.6875-1.6875.753906-1.6875 1.6875-1.6875 1.6875.753906 1.6875 1.6875zm0 0" fill="#ffb822"/><path d="m9.75 6.75c0 .933594-.753906 1.6875-1.6875 1.6875s-1.6875-.753906-1.6875-1.6875.753906-1.6875 1.6875-1.6875 1.6875.753906 1.6875 1.6875zm0 0" fill="#ff7c2d"/><path d="m7.875 6.5625c0 1.035156-.839844 1.875-1.875 1.875s-1.875-.839844-1.875-1.875.839844-1.875 1.875-1.875 1.875.839844 1.875 1.875zm0 0" fill="#ff972d"/></svg>