<svg height="12pt" viewBox="0 0 12 12" width="12pt" xmlns="http://www.w3.org/2000/svg" xmlns:xlink="http://www.w3.org/1999/xlink"><linearGradient id="a" gradientTransform="matrix(-.953184 0 0 .969491 69.551542 -104.01549)" gradientUnits="userSpaceOnUse" x1="67.894455" x2="67.854446" y1="108.691" y2="113.1134"><stop offset="0" stop-color="#f9f9f9"/><stop offset="1" stop-color="#999"/></linearGradient><path d="m2.800781.710938h6.398438c1.152343 0 2.089843.9375 2.089843 2.089843v6.398438c0 1.152343-.9375 2.089843-2.089843 2.089843h-6.398438c-1.152343 0-2.089843-.9375-2.089843-2.089843v-6.398438c0-1.152343.9375-2.089843 2.089843-2.089843zm0 0" fill="#5294e2" fill-rule="evenodd"/><path d="m6 2.765625c-1.785156 0-3.234375 1.449219-3.234375 3.234375s1.449219 3.234375 3.234375 3.234375 3.234375-1.449219 3.234375-3.234375-1.449219-3.234375-3.234375-3.234375zm-.300781.644531c.035156-.003906.078125 0 .113281 0 .003906.015625-.023438.078125-.066406.164063-.253906.558593-.269532 1.210937-.03125 1.5625.042968.0625.082031.125.082031.132812 0 .007813-.046875.015625-.097656.015625-.125 0-.242188-.074218-.480469-.261718-.105469-.085938-.242188-.15625-.292969-.167969-.085937-.015625-.105469-.007813-.214843.101562-.101563.097657-.132813.152344-.132813.246094 0 .347656.414063.625 1.183594.789063 1.046875.222656 1.304687.417968 1.332031.96875.039062.691406-.328125 1.210937-1.132812 1.613281-.097657.046875-.15625.066406-.199219.082031-.015625 0-.03125 0-.046875 0-.007813-.019531-.015625-.070312-.015625-.164062 0-.367188-.144531-.742188-.363281-.953126-.058594-.058593-.222657-.175781-.363282-.265624-.136718-.085938-.28125-.1875-.3125-.230469-.050781-.070313-.054687-.113281-.015625-.246094.074219-.238281.160157-.375.328125-.527344.089844-.078125.179688-.144531.199219-.144531.019531-.003906-.113281-.042969-.3125-.082031-.199219-.042969-.492187-.128907-.640625-.183594-.277344-.097656-.648438-.308594-.789062-.460937-.007813-.003907-.011719-.007813-.019532-.015626.203125-.808593.773438-1.472656 1.53125-1.792968.15625-.066406.320313-.113282.492188-.148438.085937-.015625.175781-.023437.265625-.03125zm2.464843 1.234375c.0625.035157.296876.542969.363282.789063.085937.316406.078125.867187 0 1.183594-.03125.121093-.070313.230468-.082032.246093-.015624.015625-.0625-.066406-.117187-.164062-.054687-.097657-.230469-.304688-.378906-.460938-.421875-.445312-.488281-.679687-.3125-1.035156.089843-.179687.480469-.589844.527343-.558594zm0 0" fill="#1d344f"/><path d="m2.757812 2.292969c-1.125 1.003906-.519531 2.929687-1.378906 3.109375-.761718.226562-1.3281248-.519532-1.3710935-1.691406-.1328125-3.234376 1.4648435-3.535157 2.5781255-3.570313 10.628906-.765625.664062 1.84375.171874 2.152344zm0 0" fill="url(#a)"/></svg>