<svg height="12pt" viewBox="0 0 12 12" width="12pt" xmlns="http://www.w3.org/2000/svg" xmlns:xlink="http://www.w3.org/1999/xlink"><filter id="a" height="100%" width="100%" x="0%" y="0%"><feColorMatrix in="SourceGraphic" type="matrix" values="0 0 0 0 1 0 0 0 0 1 0 0 0 0 1 0 0 0 1 0"/></filter><mask id="b"><g filter="url(#a)"><path d="m0 0h12v12h-12z" fill-opacity=".501961"/></g></mask><clipPath id="c"><path d="m0 0h12v12h-12z"/></clipPath><path d="m2.800781.710938h6.398438c1.152343 0 2.089843.9375 2.089843 2.089843v6.398438c0 1.152343-.9375 2.089843-2.089843 2.089843h-6.398438c-1.152343 0-2.089843-.9375-2.089843-2.089843v-6.398438c0-1.152343.9375-2.089843 2.089843-2.089843zm0 0" fill="#dcdcbe" fill-rule="evenodd"/><g clip-path="url(#c)" mask="url(#b)"><path d="m1.875 3.75v.375h8.25v-.375zm0 1.125v.375h8.25v-.375zm0 1.125v.375h8.25v-.375zm0 1.125v.375h8.25v-.375zm0 1.125v.375h8.25v-.375zm0 0" fill="#2a2a2a" fill-rule="evenodd"/></g><path d="m5.324219 6.144531c-.222657-.230469-.539063-.378906-.921875-.347656-.03125-.058594-.15625-.640625-.15625-.640625s.441406-.609375.539062-.726562c.476563-.695313.507813-1.25.222656-1.800782-.097656-.203125-.351562-.378906-.605468-.378906-.1875 0-.347656.144531-.441406.320312-.316407.492188-.316407 1.425782-.160157 2.0625 0 0-.15625.144532-.316406.320313-.316406.320313-.664063.667969-.792969 1.132813-.15625.523437-.03125 1.019531.316406 1.398437.382813.433594.953126.636719 1.648438.578125.128906.554688.222656.902344.03125 1.222656-.0625.117188-.1875.230469-.410156.230469-.0625 0-.09375 0-.160156-.027344.191406-.085937.351562-.261719.351562-.464843 0-.289063-.253906-.523438-.570312-.523438-.539063.027344-.570313.523438-.570313.523438 0 .175781.0625.347656.1875.464843.160156.144531.414063.261719.699219.261719.347656 0 .695312-.117188.824218-.582031.125-.378907-.097656-.988281-.128906-1.191407.351563-.144531.667969-.582031.699219-.871093.0625-.320313-.0625-.699219-.285156-.960938zm-1.015625-3.226562c.03125-.058594.09375-.085938.160156-.085938.03125 0 .09375.027344.125.058594.128906.058594.160156.171875.160156.347656-.03125.4375-.445312.960938-.667968 1.132813-.09375-.40625-.03125-1.160156.222656-1.453125zm-.917969 4.566406c-.222656-.207031-.316406-.496094-.285156-.785156.0625-.464844.410156-.84375.695312-1.136719.066407-.058594.128907-.113281.160157-.171875.03125.144531.125.375.15625.492187-.378907.144532-.601563.613282-.570313.988282 0 .175781.066406.292968.160156.40625.03125.03125.0625.058594.09375.058594s.097657-.027344.097657-.058594c.03125-.027344.03125-.085938 0-.113282-.03125-.03125-.03125-.058593-.03125-.117187-.035157-.261719.15625-.464844.378906-.550781.03125.171875.253906 1.074218.285156 1.277344-.414062.117187-.855469 0-1.140625-.289063zm1.425781.171875c-.0625-.203125-.09375-.433594-.160156-.695312-.03125-.175782-.0625-.378907-.125-.554688.410156 0 .539062.320312.570312.4375.09375.320312 0 .640625-.285156.8125zm0 0" fill="#2a2a2a"/></svg>