<svg height="12pt" viewBox="0 0 12 12" width="12pt" xmlns="http://www.w3.org/2000/svg" xmlns:xlink="http://www.w3.org/1999/xlink"><clipPath id="a"><path d="m0 0h12v12h-12z"/></clipPath><path d="m2.800781.710938h6.398438c1.152343 0 2.089843.9375 2.089843 2.089843v6.398438c0 1.152343-.9375 2.089843-2.089843 2.089843h-6.398438c-1.152343 0-2.089843-.9375-2.089843-2.089843v-6.398438c0-1.152343.9375-2.089843 2.089843-2.089843zm0 0" fill="#4f4f4f" fill-rule="evenodd"/><g clip-path="url(#a)"><path d="m5.199219 8.453125c.355469-.109375.78125-.410156.984375-.691406l.066406-.09375-.085938-.25c-.300781-.917969.25-1.839844 1.191407-2 .683593-.113281 1.402343.304687 1.652343.964843.058594.15625.058594.15625.039063.035157-.054687-.355469-.230469-.683594-.519531-.964844-.296875-.296875-.644532-.464844-1.082032-.523437-.132812-.019532-.144531-.011719-.195312.070312-.078125.132812-.304688.351562-.46875.457031-.449219.285157-1.136719.285157-1.585938 0-.507812-.320312-.792968-.941406-.699218-1.511719.050781-.308593.1875-.585937.402344-.816406.160156-.167968.171874-.1875.078124-.132812-.152343.085937-.511718.480468-.617187.667968-.117187.21875-.210937.609376-.210937.863282 0 .222656.058593.515625.144531.726562.046875.121094.054687.125.238281.148438.101562.011718.265625.046875.363281.082031.847657.292969 1.25 1.273437.851563 2.085937-.269532.554688-.898438.914063-1.488282.847657-.238281-.027344-.210937.003906.050782.0625.238281.054687.664062.039062.890625-.027344zm0 0" fill="#fff"/><path d="m6 2.25c-2.070312 0-3.75 1.679688-3.75 3.75s1.679688 3.75 3.75 3.75 3.75-1.679688 3.75-3.75-1.679688-3.75-3.75-3.75zm0 .402344c1.851562 0 3.347656 1.496094 3.347656 3.347656s-1.496094 3.347656-3.347656 3.347656-3.347656-1.496094-3.347656-3.347656 1.496094-3.347656 3.347656-3.347656zm0 0" fill="#fff"/></g></svg>