<svg height="12pt" viewBox="0 0 12 12" width="12pt" xmlns="http://www.w3.org/2000/svg"><g fill-rule="evenodd"><path d="m2.800781.710938h6.398438c1.152343 0 2.089843.9375 2.089843 2.089843v6.398438c0 1.152343-.9375 2.089843-2.089843 2.089843h-6.398438c-1.152343 0-2.089843-.9375-2.089843-2.089843v-6.398438c0-1.152343.9375-2.089843 2.089843-2.089843zm0 0" fill="#ececec"/><path d="m2.800781.710938c-1.15625 0-2.089843.933593-2.089843 2.089843v6.035157c.066406-.015626.171874-.058594.230468-.070313.6875-.128906 1.21875-.191406 1.683594-.1875.464844.007813.859375.082031 1.273438.222656.382812.132813.492187.148438.898437.128907.347656-.019532.730469-.085938 1.105469-.191407s.738281-.25 1.046875-.414062c.277343-.152344.390625-.277344.554687-.460938-.058594.007813-.113281.015625-.167968.023438-.175782.011719-.347657.011719-.515626.003906-.167968-.011719-.332031-.035156-.492187-.070313-.160156-.03125-.3125-.078124-.460937-.136718-.148438-.054688-.292969-.121094-.429688-.203125-.097656-.054688-.191406-.117188-.28125-.183594-.128906-.09375-.246094-.199219-.359375-.3125-.117187-.117187-.222656-.242187-.320313-.375-.097656-.136719-.1875-.28125-.269531-.433594-.082031-.152343-.15625-.3125-.21875-.484375-.066406-.167968-.121093-.347656-.167969-.53125-.046874-.183594-.085937-.375-.113281-.574218-.027343-.199219-.046875-.402344-.058593-.609376-.007813-.210937-.007813-.425781 0-.644531.007812-.21875.027343-.4375.050781-.664062.027343-.226563.066406-.453125.109375-.683594.046875-.230469.101562-.460937.164062-.695313.050782-.191406.113282-.382812.175782-.578124zm0 0" fill="#ececec"/><path d="m4.148438.710938c-.0625.195312-.125.386718-.175782.578124-.0625.234376-.117187.464844-.164062.695313-.042969.230469-.082032.457031-.109375.683594-.023438.226562-.042969.445312-.050781.664062-.007813.21875-.007813.433594 0 .644531.011718.207032.03125.410157.058593.609376.027344.199218.066407.390624.113281.574218.046876.183594.101563.363282.167969.53125.0625.171875.136719.332032.21875.484375.082031.152344.171875.296875.269531.433594.097657.132813.203126.257813.320313.375.113281.113281.230469.21875.359375.3125.089844.066406.183594.128906.28125.183594.136719.082031.28125.148437.429688.203125.148437.058594.300781.105468.460937.136718.160156.035157.324219.058594.492187.070313.167969.007813.339844.007813.515626-.003906.175781-.011719.351562-.035157.53125-.074219.183593-.035156.367187-.082031.550781-.140625.183593-.058594.367187-.128906.554687-.207031.1875-.082032.371094-.171875.558594-.273438.1875-.101562.371094-.214844.554688-.339844.183593-.121093.367187-.253906.546874-.394531.179688-.140625.359376-.292969.535157-.449219.039062-.042968.078125-.082031.121093-.121093v-1.070313c-.035156.039063-.066406.082032-.101562.121094-.121094.140625-.25.277344-.378906.410156-.128906.128906-.261719.253906-.394532.371094-.136718.117188-.273437.230469-.410156.332031-.140625.105469-.28125.203125-.421875.289063-.140625.089844-.28125.171875-.425781.246094-.140625.074218-.285156.136718-.425781.195312-.140625.054688-.28125.105469-.421875.144531-.140625.039063-.277344.070313-.414063.089844-.140625.023437-.273437.035156-.40625.039063-.132812.003906-.261719 0-.386719-.011719-.128906-.015625-.25-.035157-.371093-.066407-.117188-.03125-.234375-.070312-.34375-.121093-.078125-.03125-.15625-.070313-.230469-.113281-.105469-.0625-.203125-.128907-.296875-.207032s-.183594-.160156-.265625-.253906c-.085938-.089844-.164062-.191406-.234375-.296875-.070313-.109375-.136719-.222656-.195313-.34375-.058593-.121094-.109374-.246094-.15625-.378906-.042968-.132813-.082031-.273438-.113281-.417969s-.058593-.292969-.074219-.445312c-.019531-.15625-.03125-.3125-.03125-.476563-.003906-.160156 0-.328125.007813-.496094.011719-.167969.03125-.339843.054687-.511719.023438-.171874.054688-.347656.09375-.523437.039063-.175781.085938-.355469.136719-.53125.050781-.179687.109375-.355469.175781-.53125.066407-.179687.136719-.355469.214844-.53125.011719-.027344.027344-.054687.039063-.085937zm0 0" fill="#3191cd"/></g><path d="m23.083333 17.96875c-.520833-.010417-1.072916.020833-1.75.15625-.1875.03125-.65625.15625-.895833.229167-.822917.260416-1.927083.791666-2.458333 1.197916l-.104167.083334c-.25.197916-.489583.416666-.625.729166l-.052083.09375c-.041667.104167-.052084.104167-.104167.09375-.03125-.010416-.260417-.010416-.5-.010416-.40625 0-.458333 0-.677083.052083-.5625.114583-1.09375.354167-1.572917.6875l-.135417.104167-.09375-.072917c-.125-.104167-.489583-.270833-.65625-.322917-.375-.104166-.78125-.145833-1.364583-.125-1.510417.041667-2.760417.34375-3.9375.958334-.65625.333333-1.322917.78125-1.666667 1.135416-.229166.21875-.322916.385417-.354166.625-.020834.145834-.020834.145834-.083334.177084-.125.041666-.614583.291666-.708333.354166-.072917.0625-.083333.072917-.083333.145834 0 .083333.041666.1875.072916.21875.020834.010416.020834 0 .010417-.020834-.03125-.09375-.052083-.197916-.03125-.239583.03125-.052083.354167-.239583.614583-.34375l.229167-.09375.010417.104167c.010416.052083.03125.145833.052083.1875.03125.0625.03125.09375.010417.09375-.010417.010416-.135417.052083-.28125.09375-.135417.052083-.302084.104166-.364584.114583-.114583.03125-.15625.0625-.166666.135417 0 .020833 0 .052083-.010417.0625 0 .020833.03125.052083.072917.072916.125.0625.28125.052084.552083-.052083.135417-.052083.239583-.083333.25-.072917 0 0 .03125.0625.052083.125.125.3125.354167.697917.541667.916667.1875.229167.479167.427083.760417.510417l.09375.03125-.395834.395833c-.447916.4375-1.135416 1.166667-1.135416 1.197917 0 .020833.09375.208333.15625.291666.072916.104167.197916.229167.322916.333334.052084.041666.104167.072916.114584.072916.010416 0 .3125-.291666.6875-.65625.364583-.364583.864583-.84375 1.09375-1.0625l.427083-.395833h.229167c.208333 0 .614583-.03125.885416-.072917.260417.375.552084.927084.302084-.03125 0-.010416.09375-.03125.197916-.052083 1.59375-.322917 2.958334-1.041667 3.697917-1.96875.28125-.34375.364583-.583333.375-1v-.260417l.083333-.020833c.041667-.020833.229167-.083333.416667-.15625.729167-.270833.864583-.3125 1.197917-.375.427083-.072917 1.104166-.1875 1.114583-.1875 0 0 .03125.052083.052083.114583.145834.28125.375.53125.59375.65625.260417.145834.708334.28125 1.145834.354167 1.302083.21875 2.989583-.083333 4.40625-.791667.114583-.0625.25-.135416.3125-.166666.083333-.052084.114583-.052084.166666-.041667.15625.020833 1 .21875 1.010417.239583.145833.03125.364583.09375.364583.09375.010417-.010416.0625 0 .854167.208334.364583.09375.666667.166666.6875.166666.020833-.010416.104167-.197916.145833-.354166.03125-.104167.041667-.364584.03125-.46875l-.010416-.083334-.291667-.09375c-.302083-.09375-1.135417-.333333-1.46875-.416666l-.21875-.052084-.020833-.083333c-.020834-.072917-.010417-.072917.072916-.208333.114584-.166667.197917-.354167.260417-.583334.03125-.145833.041667-.21875.041667-.572916 0-.270834-.010417-.458334-.03125-.552084-.010417-.072916-.020834-.145833-.010417-.145833 0-.010417.114583-.03125.229167-.052083.322916-.052084.46875-.125.541666-.270834.03125-.0625.03125-.072916 0-.072916-.020833 0-.03125-.010417-.03125-.020834 0-.020833-.020833-.041666-.052083-.052083-.052083-.020833-.083333-.020833-.25.020833-.166667.041667-.541667.125-.59375.125-.010417 0-.020833-.052083-.03125-.114583s-.03125-.135417-.052083-.177083l-.041667-.083334.0625-.010416c.208333-.03125.427083-.052084.645833-.041667h.260417l.041667.09375c.010416.041667.03125.09375.041666.114583.020834.072917.03125.020834.020834-.072916-.010417-.041667-.03125-.104167-.0625-.145834l-.052084-.052083h-.208333c-.208333 0-.583333.020833-.6875.052083-.052083 0-.0625-.010416-.114583-.09375-.104167-.15625-.302084-.291666-.552084-.385416-.010416 0-.041666 0-.052083-.010417-.010417 0-.010417.010417-.020833.010417-.552084-.083334-1.041667-.15625-1.552084-.166667zm-.15625.041667c.364584 0 .71875.020833.916667.041666.583333.072917.8125.125 1.010417.239584.072916.03125.114583.0625.09375.052083-.333334-.09375-.6875-.177083-1.072917-.229167-.385417-.0625-1.1875-.083333-1.583333-.052083-.989584.09375-1.90625.354167-2.958334.84375-.5625.291667-1.15625.583333-1.666666 1.0625-.166667.166667-.25.302083-.3125.479167-.020834.0625-.052084.166666-.052084.239583l-.020833.114583v-.104166c0-.09375-.010417-.114584-.041667-.125-.052083-.010417-.052083-.020834.020834-.177084.208333-.385416.59375-.770833 1.104166-1.072916.166667-.104167.510417-.28125.5625-.302084.052084-.020833.052084-.020833.010417.010417-.083333.0625.03125.020833.364583-.15625.833334-.416667 1.75-.697917 2.71875-.822917.1875-.020833.552084-.041666.90625-.041666zm-.208333.0625c.25-.010417.510417 0 .666667.010416.270833.020834.708333.083334.6875.09375 0 0-.09375 0-.197917-.010416-1.041667-.104167-2.041667-.041667-2.947917.197916-.34375.083334-.375.09375-.208333.03125.34375-.114583.875-.229166 1.322917-.28125.166666-.020833.427083-.041666.677083-.041666zm.53125.104166c.15625 0 .3125.010417.46875.03125.010417-.010416.020833-.010416.03125-.020833.302083.03125.510417.072917.677083.104167.020834.010416.041667.010416.0625.010416l-.020833.010417c.104167.020833.197917.052083.28125.09375.197917.09375.270833.1875.395833.458333.072917.166667.072917.166667.03125.177084-.125.052083-.71875.1875-1.364583.3125-.802083.166666-1.083333.229166-1.333333.3125-.145834.052083-.333334.135416-.239584.114583.458334-.135417 1.770834-.4375 2.447917-.5625.09375-.010417.260417-.052083.364583-.072917l.1875-.041666.020834.083333.03125.09375-.270834.072917c-1.604166.46875-2.270833.65625-2.71875.739583-.364583.083333-.375.083333-.375-.104167 0-.072916.010417-.09375.041667-.104166.052083-.03125.052083-.072917-.020833-.125-.052084-.020834-.083334-.03125-.135417-.020834-.177083.020834-2.4375.760417-3.916667 1.270834-.25.083333-.458333.145833-.46875.145833-.010416 0-.020833-.052083-.041666-.197917l.104166-.333333-.083333.03125c.291667-1.114583 2.96875-2.5625 5.84375-2.479167zm.885417.010417c.020833-.010417.03125-.010417.041666 0 0 .010417-.010416.010417-.03125.010417-.020833 0-.020833-.010417-.010416-.010417zm.708333.166667c.03125 0 .28125.083333.302083.104166.020834.020834.03125.0625.041667.104167.010417.03125.083333.291667.177083.5625.135417.427083.229167.78125.208334.8125 0 0-.020834.010417-.052084.010417-.020833 0-.052083.010416-.072916.020833-.020834.010417-.03125-.020833-.041667-.177083-.03125-.520834-.239583-1.104167-.46875-1.333334-.052083-.0625-.104167-.104166-.09375-.104166zm.375.208333s.010417.010417.020833.020833c.010417.020834.020834.041667.010417.052084 0 0-.010417-.010417-.020833-.020834-.010417-.03125-.010417-.041666-.010417-.052083zm.0625.208333c0-.010416.010417-.010416.020833.020834.020834.03125.03125.083333.041667.125.020833.09375 0 .083333-.03125-.010417-.020833-.072917-.03125-.114583-.03125-.135417zm.697917.21875c.03125 0 .041666 0 .0625.010417.020833.03125.020833.041667-.020834.083333-.03125.03125-.125.072917-.208333.09375-.072917.03125-.166667.052084-.197917.0625-.0625.010417-.0625.010417-.083333-.0625-.020833-.09375-.052083-.072916.291667-.15625.083333-.020833.135416-.03125.15625-.03125zm-.541667.125c.041667 0 .052083.010417.072917.135417.020833.072917.052083.21875.0625.322917.041666.229166.03125.291666 0 .114583-.020834-.09375-.125-.416667-.177084-.541667 0-.020833 0-.03125.041667-.03125zm-.145833.3125c.041666 0 .052083.052084.083333.395834.020833.270833 0 .625-.052083.822916-.0625.239584-.291667.604167-.291667.604167-.010417.020833-.052083.0625-.09375.104167l-.072917.0625-.333333-.072917c-.9375-.197917-2.083333-.354167-2.9375-.395833-.385417-.020834-.5625-.010417-1.052083.010416l-.15625.010417.4375-.15625c1.020833-.34375 1.197916-.416667 1.25-.479167.03125-.03125.052083-.072916.052083-.104166 0-.020834 0-.041667.010417-.041667.114583 0 .6875-.135417 1.166666-.270833.875-.25 1.875-.489584 1.989584-.489584zm-7.25.260417c-.010417.020833-.052084.0625-.135417.145833-.208333.197917-.354167.395834-.46875.635417-.0625.125-.072917.15625-.083333.354167 0 .114583 0 .25.020833.322916.020833.125.197917.65625.260417.802084.03125.052083.041666.104166.041666.104166-.020833.010417-.135416-.28125-.21875-.53125-.135416-.416666-.166666-.677083-.114583-.9375.072917-.322916.291667-.614583.645833-.864583.041667-.03125.0625-.052083.052084-.03125zm1.875.135417-.145834.052083c.041667-.020833.09375-.03125.145834-.052083zm-3.354167.729166h.15625l.020833.052084c.010417.041666.010417.0625.010417.072916 0 0-.125.010417-.270833.020834-.479167.041666-1.0625.197916-1.46875.395833-.104167.041667-.229167.104167-.28125.145833-.104167.0625-.125.052084-.125-.052083 0-.052083.104166-.125.395833-.260417.46875-.229166 1.072917-.375 1.5625-.375zm.729167.260417v.114583c0 .15625.041666.322917.145833.635417.145833.447917.322917.75.5625.989583.15625.145834.416667.333334.46875.322917.010417-.010417.020833-.010417.010417 0-.010417.020833.208333.125.40625.1875.5.145833 1.53125.208333 2.239583.114583.8125-.104166 1.708333-.375 2.458333-.75.270834-.135416.427084-.229166.791667-.46875.166667-.104166.291667-.1875.302083-.177083 0 0-.020833.020833-.0625.052083-1.010416.770834-2.489583 1.302084-3.927083 1.427084-.270833.020833-.802083.020833-1.0625 0-.427083-.041667-.885417-.145834-1.229167-.28125-.416666-.177084-.645833-.395834-.854166-.854167-.197917-.395833-.4375-1.208333-.364584-1.1875.010417 0 .041667-.03125.072917-.0625zm-1.427084.010417c.020834 0 .03125.010416.041667.020833.010417.020833.020833.041667.020833.052083 0 .010417-.0625.03125-.135416.052084-.072917.020833-.177084.052083-.229167.072916-.114583.03125-.135417.03125-.135417-.020833s.052084-.072917.3125-.145833c.0625-.020834.104167-.03125.125-.03125zm.895834.020833c.125 0 .229166.010417.28125.03125.072916.03125.072916.03125.09375.197917.010416.09375.020833.177083.010416.1875-.010416 0-.291666.104166-.645833.229166l-.625.21875-.635417.114584c-.34375.072916-.645833.125-.677083.135416-.041667.010417-.052083 0-.09375-.104166-.020833-.0625-.041667-.125-.041667-.145834 0-.052083.177084-.21875.322917-.3125.375-.229166 1.03125-.447916 1.604167-.53125.125-.020833.270833-.03125.40625-.020833zm-4.28125.041667c.395833 0 .791666.0625 1.052083.15625.197917.072916.458333.208333.489583.260416.010417.020834.03125.052084.0625.072917.020834.020833.0625.09375.09375.166667.041667.072916.083334.145833.09375.15625.052084.041666.135417.25.197917.46875.197917.71875.208333 1.270833.010417 1.645833-.15625.3125-.697917.854167-1.166667 1.166667-.979167.645833-2.21875 1.072916-3.5625 1.197916-.510417.041667-1.21875.020834-1.5-.052083-.072917-.010417-.072917-.020833.03125-.010417.052083.010417.177083.020834.260417.03125.25.03125.96875.03125 1.302083-.010416.84375-.083334 1.635417-.291667 2.364583-.614584.322917-.145833.697917-.354166.78125-.427083.020834-.020833.135417-.104167.239584-.1875.59375-.416667 1.052083-.927083 1.166666-1.291667.010417-.052083.03125-.083333.03125-.072916.041667.020833.072917-.208334.072917-.458334-.010417-.229166-.020833-.322916-.072917-.635416-.104166-.510417-.125-.572917-.21875-.729167-.104166-.15625-.208333-.260417-.385416-.364583-.447917-.260417-1-.375-1.885417-.385417l-.229167-.010417.1875-.020833.177084-.020833-.125-.010417c-.09375 0-.0625 0 .145833-.020833.125-.010417.260417-.010417.385417 0zm-.802084.083333c0 .010417-.125.03125-.28125.041667-1.59375.197916-2.791666.625-3.979166 1.427083-.40625.270833-.677084.479167-.833334.635417-.166666.166666-.197916.21875-.239583.40625-.052083.28125.0625.822916.291667 1.375.052083.09375.083333.1875.083333.197916 0 .010417-.020833.020834-.041667.03125-.041666.010417-.125-.09375-.239583-.333333-.083333-.1875-.1875-.520833-.166667-.53125.0625-.020833.0625-.03125.010417-.145833-.03125-.072917-.052083-.15625-.0625-.302084-.03125-.25 0-.34375.135417-.552083.125-.1875.28125-.354167.583333-.583333 1.052083-.8125 2.239583-1.333334 3.53125-1.5625.427083-.072917 1.208333-.135417 1.208333-.104167zm.802084.072917c.583333.020833.989583.145833 1.375.395833.15625.104167.21875.177083.3125.364583.104166.208334.104166.208334.010416.229167-.541666.083333-3.041666.59375-4.239583.864583-.34375.083334-.364583.114584-.302083.375.010416.0625.020833.125.020833.145834 0 .03125-.260417.125-.708333.25-.552084.15625-2.260417.583333-2.3125.583333-.03125 0-.083334 0-.104167.010417-.052083.020833-.0625 0-.072917-.104167 0-.072917-.03125-.0625.927084-.364583.90625-.302084 1.208333-.395834 1.583333-.489584.354167-.09375.364583-.104166.239583-.083333-.197916.020833-.520833.114583-1.21875.34375-1.135416.375-1.520833.489583-1.5625.447917-.03125-.03125-.041666-.427084-.020833-.53125.052083-.21875.239583-.427084.635417-.729167.916666-.71875 1.84375-1.166667 2.9375-1.447917.572916-.145833 1.125-.21875 1.854166-.260416.239584-.010417.458334-.010417.645834 0zm8.3125.791666c.802083.010417 1.5625.09375 2.53125.270834.260416.052083.46875.083333.479166.083333.052084 0-.041666.0625-.291666.1875-.78125.385417-1.645834.645833-2.520834.739583-.302083.041667-.90625.052084-1.166666.03125-.739584-.0625-1.395834-.270833-1.697917-.541666-.15625-.145834-.375-.447917-.34375-.479167.010417-.010417.125-.03125.25-.052083 1.114583-.166667 1.958333-.239584 2.760417-.239584zm-2.177084 1.09375c0-.010416.020834 0 .041667.010417s.145833.052083.270833.083333c.125.041667.208334.0625.1875.0625-.083333 0-.520833-.145833-.5-.15625zm-4.197916.083334c.010416 0 .020833.072916.010416.21875-.020833.364583-.114583.583333-.395833.916666-.697917.833334-1.90625 1.479167-3.322917 1.78125-.177083.03125-.3125.0625-.322916.0625-.03125-.135416-.072917-.291666-.09375-.4375l-.052084-.125-.020833-.15625.166667-.145833c.854166-.65625 1.854166-1.229167 3-1.697917.479166-.208333 1.010416-.416666 1.03125-.416666zm4.760416.083333h.041667c.020833.010417.010417.010417-.020833.010417-.020834 0-.03125 0-.020834-.010417zm.114584.020833h.052083c.010417.010417 0 .010417-.03125.010417-.020833 0-.03125 0-.020833-.010417zm.135416.020834c.010417-.010417.03125-.010417.041667 0 0 .010416-.010417.010416-.03125.010416s-.020833-.010416-.010417-.010416zm-7.885416.1875c.010416 0-.114584.0625-.260417.145833-.822917.427083-1.572917.947917-2.635417 1.84375-.1875.145833-.427083.354167-.53125.447917-.104166.09375-.197916.177083-.197916.177083-.041667-.010417-.333334-.125-.40625-.166667-.3125-.177083-.583334-.5-.802084-.9375-.083333-.145833-.177083-.385416-.177083-.40625 0-.041666.96875-.322916 1.979167-.572916.572916-.145834.708333-.177084 1.052083-.302084l.114583-.052083.052084.052083c.020833.03125.0625.0625.09375.0625.052083.010417.34375-.03125 1.15625-.1875.302083-.0625.552083-.104166.5625-.104166zm-5.333334.927083c0 .010417.010417.041667.020834.083333v.0625l-.166667.041667c-.15625.041667-.28125.052083-.333333.03125-.03125-.010417-.03125-.072917-.010417-.09375.052083-.020833.46875-.135417.489583-.125zm3.8125 1.302083c.010417.020834.010417.083334.03125.135417.010417.083333.020834.09375.0625.09375.041667 0 .052084.020833.072917.208333 0 .020834-.041667.041667-.166667.052084-.09375.010416-.3125.03125-.479166.041666l-.3125.010417.09375-.083333c.052083-.052084.21875-.197917.385416-.333334zm0 0" fill="#666" stroke="#666" stroke-width=".3" transform="scale(.375)"/></svg>