<svg height="12pt" viewBox="0 0 12 12" width="12pt" xmlns="http://www.w3.org/2000/svg"><path d="m2.800781.710938h6.398438c1.152343 0 2.089843.9375 2.089843 2.089843v6.398438c0 1.152343-.9375 2.089843-2.089843 2.089843h-6.398438c-1.152343 0-2.089843-.9375-2.089843-2.089843v-6.398438c0-1.152343.9375-2.089843 2.089843-2.089843zm0 0" fill="#afafb1" fill-rule="evenodd"/><path d="m1.949219 3.375h4.726562c.144531 0 .261719.117188.261719.261719v4.726562c0 .144531-.117188.261719-.261719.261719h-4.726562c-.144531 0-.261719-.117188-.261719-.261719v-4.726562c0-.144531.117188-.261719.261719-.261719zm0 0" fill="#3798a0"/><path d="m6 15.5h2.302083l1.395834-3 1.40625 8 2.09375-9 1.40625 4h3.5" fill="none" stroke="#fff" stroke-linejoin="round" transform="matrix(.375 0 0 .375 -.1875 0)"/><g fill="#fff"><path d="m8.8125 5.8125c0 .3125-.25.5625-.5625.5625s-.5625-.25-.5625-.5625.25-.5625.5625-.5625.5625.25.5625.5625zm0 0"/><path d="m9.9375 3.5625c0 .519531-.417969.9375-.9375.9375s-.9375-.417969-.9375-.9375.417969-.9375.9375-.9375.9375.417969.9375.9375zm0 0"/><path d="m8.8125 7.3125c0 .3125-.25.5625-.5625.5625s-.5625-.25-.5625-.5625.25-.5625.5625-.5625.5625.25.5625.5625zm0 0"/><path d="m8.8125 8.8125c0 .3125-.25.5625-.5625.5625s-.5625-.25-.5625-.5625.25-.5625.5625-.5625.5625.25.5625.5625zm0 0"/><path d="m10.3125 5.8125c0 .3125-.25.5625-.5625.5625s-.5625-.25-.5625-.5625.25-.5625.5625-.5625.5625.25.5625.5625zm0 0"/><path d="m10.3125 7.3125c0 .3125-.25.5625-.5625.5625s-.5625-.25-.5625-.5625.25-.5625.5625-.5625.5625.25.5625.5625zm0 0"/></g><path d="m10.3125 8.8125c0 .3125-.25.5625-.5625.5625s-.5625-.25-.5625-.5625.25-.5625.5625-.5625.5625.25.5625.5625zm0 0" fill="#0b7ce1"/></svg>