<svg height="12pt" viewBox="0 0 12 12" width="12pt" xmlns="http://www.w3.org/2000/svg"><g fill-rule="evenodd"><path d="m .710938 6.605469c.050781-.035157.109374-.082031.117187-.082031.027344 0 .21875-.117188.304687-.183594.015626-.015625.183594-.101563.367188-.191406.183594-.089844.472656-.226563.640625-.308594.171875-.082032.316406-.148438.328125-.148438s.113281-.058594.226562-.125c.109376-.066406.230469-.132812.269532-.144531.117187-.039063.710937-.441406.976562-.660156.292969-.242188.695313-.675781.777344-.835938.03125-.058593.066406-.117187.078125-.125.027344-.015625.085937-.128906.253906-.480469.207031-.453124.335938-1.015624.34375-1.574218.003907-.28125-.023437-.554688-.089843-.816406-.019532-.078126-.066407-.140626-.09375-.21875h-2.410157c-1.15625 0-2.089843.933593-2.089843 2.089843zm0 0" fill="#4eaf44"/><path d="m10.28125 10.945312c-.085938-.027343-.226562-.066406-.351562-.097656-.402344-.105468-1.292969-.511718-1.589844-.722656-.089844-.0625-.171875-.113281-.1875-.113281s-.105469-.054688-.199219-.125c-.40625-.308594-.859375-.601563-1.34375-.84375-.484375-.246094-.996094-.445313-1.523437-.570313-.335938-.074218-1.003907-.082031-1.328126-.015625-.445312.09375-.863281.238281-1.222656.414063-.363281.175781-.660156.390625-.871094.617187-.207031.222657-.40625.621094-.4375.855469-.011718.097656.074219.207031.105469.339844.375.371094.894531.605468 1.46875.605468h6.398438c.40625 0 .761719-.144531 1.082031-.34375zm0 0" fill="#4eaf44"/><g fill="#fff"><path d="m11.289062 9.054688v-.75c-.023437 0-.046874.011718-.070312.007812-.292969-.039062-.585938-.132812-.871094-.28125-.28125-.144531-.558594-.339844-.816406-.582031-.351562-.328125-.472656-.460938-.640625-.703125-.316406-.453125-.507813-.925782-.671875-1.648438-.070312-.308594-.054688-1.832031.023438-2.402344.085937-.640624.074218-1.332031-.027344-1.984374h-.804688c.003906.015624.015625.042968.015625.058593.054688.394531.066407 1.246094.019531 1.632813-.078124.667968-.109374 1.585937-.070312 2.152344.042969.613281.082031.847656.234375 1.332031.105469.347656.371094.925781.488281 1.070312.039063.046875.101563.140625.144532.207031.039062.066407.082031.121094.09375.121094.011718 0 .046874.039063.074218.085938.074219.117187.289063.347656.507813.539062.097656.085938.226562.199219.285156.253906.058594.050782.15625.125.210937.160157.058594.035156.152344.101562.210938.148437.179688.136719.460938.277344.761719.390625.296875.109375.609375.1875.847656.203125.019531 0 .035156-.011718.054687-.011718zm0 0"/><path d="m .738281 9.328125c.035157.527344.242188 1.007813.59375 1.355469-.03125-.132813-.117187-.242188-.105469-.339844.03125-.234375.230469-.632812.4375-.855469.210938-.226562.507813-.441406.871094-.617187.359375-.175782.777344-.320313 1.222656-.414063.324219-.066406.992188-.058593 1.328126.015625.527343.125 1.039062.324219 1.523437.570313.484375.242187.9375.535156 1.34375.84375.09375.070312.183594.125.199219.125s.097656.050781.1875.113281c.296875.210938 1.1875.617188 1.589844.722656.125.03125.265624.070313.351562.097656.308594-.195312.558594-.464843.738281-.777343-.398437-.078125-1.007812-.222657-1.222656-.3125-.105469-.042969-.246094-.101563-.3125-.125-.070313-.027344-.238281-.113281-.375-.191407-.140625-.078124-.261719-.144531-.273437-.144531-.007813 0-.085938-.046875-.171876-.109375-.085937-.0625-.164062-.113281-.175781-.113281s-.105469-.058594-.207031-.136719c-.097656-.074218-.207031-.148437-.234375-.167968-.152344-.089844-.566406-.351563-.640625-.402344-.167969-.117188-.554688-.316406-.972656-.507813-.285156-.128906-.46875-.1875-1.039063-.34375-.28125-.078125-.355469-.082031-.976562-.082031-.699219-.003906-.851563.019531-1.296875.167969-.097656.03125-.25.082031-.339844.109375-.199219.058594-.792969.335937-.808594.375-.003906.015625-.023437.027344-.039062.027344-.035156 0-.378906.21875-.441406.28125-.023438.019531-.09375.082031-.15625.128906-.128907.09375-.347657.324218-.421876.441406-.027343.039062-.09375.136719-.148437.210938-.007813.011718-.019531.042968-.027344.054687zm0 0"/><path d="m6.125.710938h-.914062c.027343.078124.074218.140624.09375.21875.066406.261718.09375.535156.089843.816406-.007812.558594-.136719 1.121094-.34375 1.574218-.167969.351563-.226562.464844-.253906.480469-.011719.007813-.046875.066407-.078125.125-.082031.160157-.484375.59375-.777344.835938-.265625.21875-.859375.621093-.976562.660156-.039063.011719-.160156.078125-.269532.144531-.113281.066406-.214843.125-.226562.125s-.15625.066406-.328125.148438c-.167969.082031-.457031.21875-.640625.308594-.183594.089843-.351562.175781-.367188.191406-.085937.066406-.277343.183594-.304687.183594-.007813 0-.066406.046874-.117187.082031v.964843c.023437-.015624.042968-.039062.058593-.050781.050781-.03125.167969-.117187.261719-.1875.203125-.160156.347656-.25.632812-.402343.371094-.195313.40625-.214844.738282-.363282.351562-.164062.425781-.199218.894531-.460937.554687-.304688.804687-.460938 1.003906-.636719.078125-.066406.15625-.128906.175781-.132812.085938-.03125.589844-.542969.800782-.808594.238281-.304688.539062-.871094.71875-1.359375.042968-.113281.117187-.445313.199218-.910157.070313-.378906.082032-.929687.03125-1.25-.019531-.113281-.066406-.167968-.101562-.296874zm0 0"/></g><path d="m6.125.710938c.035156.128906.082031.183593.101562.296874.050782.320313.039063.871094-.03125 1.25-.082031.464844-.15625.796876-.199218.910157-.179688.488281-.480469 1.054687-.71875 1.359375-.210938.265625-.714844.777344-.800782.808594-.019531.003906-.097656.066406-.175781.132812-.199219.175781-.449219.332031-1.003906.636719-.46875.261719-.542969.296875-.894531.460937-.332032.148438-.367188.167969-.738282.363282-.285156.152343-.429687.242187-.632812.402343-.09375.070313-.210938.15625-.261719.1875-.015625.011719-.035156.035157-.058593.050781v1.628907c0 .046875.023437.085937.027343.128906.007813-.011719.019531-.042969.027344-.054687.054687-.074219.121094-.171876.148437-.210938.074219-.117188.292969-.347656.421876-.441406.0625-.046875.132812-.109375.15625-.128906.0625-.0625.40625-.28125.441406-.28125.015625 0 .035156-.011719.039062-.027344.015625-.039063.609375-.316406.808594-.375.089844-.027344.242188-.078125.339844-.109375.445312-.148438.597656-.171875 1.296875-.167969.621093 0 .695312.003906.976562.082031.570313.15625.753907.214844 1.039063.34375.417968.191407.804687.390625.972656.507813.074219.050781.488281.3125.640625.402344.027344.019531.136719.09375.234375.167968.101562.078125.195312.136719.207031.136719s.089844.050781.175781.113281c.085938.0625.164063.109375.171876.109375.011718 0 .132812.066407.273437.144531.136719.078126.304687.164063.375.191407.066406.023437.207031.082031.3125.125.214844.089843.824219.234375 1.222656.3125.164063-.289063.269531-.613281.269531-.96875v-.144531c-.019531 0-.035156.011718-.054687.011718-.238281-.015625-.550781-.09375-.847656-.203125-.300781-.113281-.582031-.253906-.761719-.390625-.058594-.046875-.152344-.113281-.210938-.148437-.054687-.035157-.152343-.109375-.210937-.160157-.058594-.054687-.1875-.167968-.285156-.253906-.21875-.191406-.433594-.421875-.507813-.539062-.027344-.046875-.0625-.085938-.074218-.085938-.011719 0-.054688-.054687-.09375-.121094-.042969-.066406-.105469-.160156-.144532-.207031-.117187-.144531-.382812-.722656-.488281-1.070312-.152344-.484375-.191406-.71875-.234375-1.332031-.039062-.566407-.007812-1.484376.070312-2.152344.046876-.386719.035157-1.238282-.019531-1.632813 0-.015625-.011719-.042969-.015625-.058593zm0 0" fill="#f08d25"/><path d="m8.214844.710938c.101562.652343.113281 1.34375.027344 1.984374-.078126.570313-.09375 2.09375-.023438 2.402344.164062.722656.355469 1.195313.671875 1.648438.167969.242187.289063.375.640625.703125.257812.242187.535156.4375.816406.582031.285156.148438.578125.242188.871094.28125.023438.003906.046875-.007812.070312-.007812v-5.503907c0-1.15625-.933593-2.089843-2.089843-2.089843zm0 0" fill="#4eaf44"/></g></svg>