<svg height="12pt" viewBox="0 0 12 12" width="12pt" xmlns="http://www.w3.org/2000/svg"><path d="m2.800781.710938h6.398438c1.152343 0 2.089843.9375 2.089843 2.089843v6.398438c0 1.152343-.9375 2.089843-2.089843 2.089843h-6.398438c-1.152343 0-2.089843-.9375-2.089843-2.089843v-6.398438c0-1.152343.9375-2.089843 2.089843-2.089843zm0 0" fill="#e04c7f" fill-rule="evenodd"/><path d="m4.3125 3.375h3.375c.519531 0 .9375.417969.9375.9375v3.375c0 .519531-.417969.9375-.9375.9375h-3.375c-.519531 0-.9375-.417969-.9375-.9375v-3.375c0-.519531.417969-.9375.9375-.9375zm0 0" fill="#fff"/><path d="m4.6875 4.125h2.625c.3125 0 .5625.25.5625.5625v2.625c0 .3125-.25.5625-.5625.5625h-2.625c-.3125 0-.5625-.25-.5625-.5625v-2.625c0-.3125.25-.5625.5625-.5625zm0 0" fill="#ab4367"/></svg>