<svg height="12pt" viewBox="0 0 12 12" width="12pt" xmlns="http://www.w3.org/2000/svg"><path d="m2.800781.710938h6.398438c1.152343 0 2.089843.9375 2.089843 2.089843v6.398438c0 1.152343-.9375 2.089843-2.089843 2.089843h-6.398438c-1.152343 0-2.089843-.9375-2.089843-2.089843v-6.398438c0-1.152343.9375-2.089843 2.089843-2.089843zm0 0" fill="#5f7c8a" fill-rule="evenodd"/><path d="m5.660156 9.632812c-.675781-.074218-1.324218-.363281-1.835937-.8125-.527344-.464843-.902344-1.113281-1.058594-1.824218-.035156-.171875-.042969-.261719-.042969-.65625 0-.402344.003906-.480469.042969-.667969.140625-.648437.425781-1.183594.882813-1.65625.433593-.441406.957031-.742187 1.566406-.902344l.238281-.0625.007813-.140625.003906-.144531h-.753906v-.09375c0-.425781.347656-.832031.785156-.914063.078125-.015624.28125-.023437.601562-.015624.449219.007812.492188.011718.601563.054687.15625.058594.3125.160156.402343.265625.132813.152344.242188.441406.242188.636719v.066406h-.730469v.292969l.152344.035156c.378906.082031.792969.269531 1.152344.511719.257812.175781.632812.542969.816406.804687.164063.226563.371094.636719.449219.882813.214844.660156.210937 1.421875 0 2.074219-.265625.808593-.851563 1.503906-1.621094 1.910156-.566406.296875-1.261719.429687-1.902344.355468zm.105469-.992187c.003906-.171875.015625-.234375.042969-.277344.101562-.152343.34375-.148437.433594.007813.027343.042968.03125.105468.03125.273437 0 .253907-.019532.238281.238281.1875.320312-.058593.707031-.226562.992187-.425781.082032-.054688.226563-.183594.328125-.285156.855469-.859375.984375-2.1875.3125-3.199219-.371093-.558594-.945312-.945313-1.617187-1.089844-.261719-.054687-.734375-.058593-.972656-.007812-.769532.167969-1.375.601562-1.746094 1.25-.144532.253906-.277344.644531-.308594.914062l-.011719.085938h.207031c.292969 0 .386719.050781.414063.230469.011719.097656-.042969.203124-.132813.25-.050781.023437-.117187.03125-.28125.03125-.117187 0-.210937.003906-.210937.007812s.011719.082031.03125.175781c.191406 1.039063.992187 1.859375 2.019531 2.0625.238282.050781.21875.066407.230469-.191406zm2.839844-4.839844-.453125-.453125.25-.238281c.257812-.253906.316406-.285156.441406-.253906.035156.007812.179688.136719.386719.34375l.332031.332031v.210938l-.253906.253906-.25.257812zm0 0" fill="#f2f2f2"/><path d="m6.050781 5.136719v-1.1875h.105469c.160156 0 .460938.054687.65625.117187.832031.28125 1.457031 1 1.605469 1.851563.015625.09375.03125.226562.03125.289062v.117188h-2.398438zm0 0" fill="#72dba9"/></svg>