<svg height="12pt" viewBox="0 0 12 12" width="12pt" xmlns="http://www.w3.org/2000/svg" xmlns:xlink="http://www.w3.org/1999/xlink"><clipPath id="a"><path d="m0 0h12v12h-12z"/></clipPath><path d="m2.800781.710938h6.398438c1.152343 0 2.089843.9375 2.089843 2.089843v6.398438c0 1.152343-.9375 2.089843-2.089843 2.089843h-6.398438c-1.152343 0-2.089843-.9375-2.089843-2.089843v-6.398438c0-1.152343.9375-2.089843 2.089843-2.089843zm0 0" fill="#37dbad" fill-rule="evenodd"/><g clip-path="url(#a)"><path d="m6 3c-1.65625 0-3 1.34375-3 3s1.34375 3 3 3h1.875s.351562 0 .375-.375c0-.375-.375-.375-.375-.375h-1.875c-1.242188 0-2.25-1.007812-2.25-2.25s1.007812-2.25 2.25-2.25 2.25 1.007812 2.25 2.25v.375c0 .207031-.167969.375-.375.375s-.375-.167969-.375-.375v-.375c0-.828125-.671875-1.5-1.5-1.5s-1.5.671875-1.5 1.5.671875 1.5 1.5 1.5c.390625 0 .746094-.152344 1.011719-.402344.214843.253906.53125.402344.863281.402344.621094 0 1.125-.503906 1.125-1.125v-.375c0-1.65625-1.34375-3-3-3zm0 2.25c.414062 0 .75.335938.75.75s-.335938.75-.75.75-.75-.335938-.75-.75.335938-.75.75-.75zm0 0" fill="#fff"/></g></svg>