<svg height="12pt" viewBox="0 0 12 12" width="12pt" xmlns="http://www.w3.org/2000/svg"><path d="m2.800781.710938h6.398438c1.152343 0 2.089843.9375 2.089843 2.089843v6.398438c0 1.152343-.9375 2.089843-2.089843 2.089843h-6.398438c-1.152343 0-2.089843-.9375-2.089843-2.089843v-6.398438c0-1.152343.9375-2.089843 2.089843-2.089843zm0 0" fill="#8e8e8e" fill-rule="evenodd"/><path d="m4.117188 9.667969c-.09375-.023438-.152344-.101563-.152344-.195313 0-.0625.023437-.109375.105468-.195312.152344-.15625.359376-.40625.535157-.640625.105469-.140625.347656-.496094.339843-.5 0 0-.027343.003906-.058593.011719-.167969.054687-.347657.074218-.550781.066406-.367188-.011719-.683594-.113282-.988282-.316406-.117187-.078126-.164062-.113282-.28125-.230469-.246094-.242188-.417968-.546875-.503906-.886719-.046875-.183594-.0625-.417969-.042969-.613281.074219-.820313.664063-1.484375 1.476563-1.667969.074218-.015625.085937-.019531.085937-.035156-.03125-.3125-.019531-.480469.042969-.722656.035156-.140626.0625-.214844.121094-.335938.179687-.386719.484375-.695312.871094-.882812.519531-.257813 1.125-.261719 1.644531-.011719.386719.1875.691406.488281.875.867187.152343.3125.214843.628906.191406.988282l-.003906.0625.09375.015624c.382812.066407.71875.234376 1 .507813.21875.214844.378906.46875.472656.753906.160156.476563.125.984375-.097656 1.429688-.203125.414062-.539063.726562-.960938.90625-.21875.09375-.421875.132812-.675781.140625-.234375.003906-.394531-.015625-.589844-.078125-.046875-.011719-.085937-.023438-.089844-.019531-.007812.003906.164063.273437.269532.425781.183594.265625.398437.535156.59375.742187.054687.058594.109375.121094.113281.136719.035156.074219.011719.179687-.050781.230469-.066406.054687.097656.050781-1.925782.050781-1.007812 0-1.84375 0-1.859374-.003906zm0 0" fill="#ccc"/><path d="m4.117188 9.667969c-.09375-.023438-.152344-.101563-.152344-.195313 0-.0625.023437-.109375.105468-.195312.152344-.15625.359376-.40625.535157-.640625.105469-.140625.347656-.496094.339843-.5 0 0-.027343.003906-.058593.011719-.167969.054687-.347657.074218-.550781.066406-.367188-.011719-.683594-.113282-.988282-.316406-.117187-.078126-.164062-.113282-.28125-.230469-.246094-.242188-.417968-.546875-.503906-.886719-.046875-.183594-.0625-.417969-.042969-.613281.074219-.820313.664063-1.484375 1.476563-1.667969.074218-.015625.085937-.019531.085937-.035156-.03125-.3125-.019531-.480469.042969-.722656.035156-.140626.0625-.214844.121094-.335938.179687-.386719.484375-.695312.871094-.882812.519531-.257813 1.125-.261719 1.644531-.011719.386719.1875.691406.488281.875.867187.152343.3125.214843.628906.191406.988282l-.003906.0625.09375.015624c.382812.066407.71875.234376 1 .507813.21875.214844.378906.46875.472656.753906.160156.476563.125.984375-.097656 1.429688-.203125.414062-.539063.726562-.960938.90625-.21875.09375-.421875.132812-.675781.140625-.234375.003906-.394531-.015625-.589844-.078125-.046875-.011719-.085937-.023438-.089844-.019531-.007812.003906.164063.273437.269532.425781.183594.265625.398437.535156.59375.742187.054687.058594.109375.121094.113281.136719.035156.074219.011719.179687-.050781.230469-.066406.054687.097656.050781-1.925782.050781-1.007812 0-1.84375 0-1.859374-.003906zm3.1875-.40625c-.003907-.007813-.035157-.042969-.066407-.082031-.1875-.234376-.464843-.628907-.613281-.886719-.160156-.277344-.347656-.648438-.367188-.730469-.027343-.125.070313-.238281.203126-.238281.058593 0 .101562.019531.160156.070312.054687.050781.191406.152344.261718.195313.132813.074218.300782.136718.457032.167968.121094.027344.433594.023438.554687-.003906.207031-.042968.40625-.128906.5625-.238281.117188-.085937.292969-.261719.367188-.378906.246093-.367188.320312-.785157.214843-1.203125-.132812-.519532-.550781-.933594-1.078124-1.066406-.101563-.023438-.1875-.035157-.3125-.039063-.128907-.003906-.160157-.015625-.207032-.058594-.0625-.058593-.074218-.121093-.046875-.257812.101563-.476563-.039062-.972657-.382812-1.324219-.199219-.207031-.414063-.335938-.6875-.40625-.132813-.035156-.230469-.046875-.375-.046875-.152344 0-.257813.011719-.394531.050781-.601563.164063-1.035157.695313-1.082032 1.324219-.007812.15625.003906.304687.046875.46875.023438.097656.011719.160156-.042969.222656-.039062.042969-.082031.058594-.183593.066407-.390625.035156-.707031.183593-.976563.464843-.25.257813-.386718.585938-.398437.949219-.011719.261719.035156.480469.15625.71875.199219.394531.558593.679688.996093.777344.175782.042968.429688.046875.59375.011718.230469-.050781.441407-.152343.644532-.3125.082031-.0625.109375-.078124.171875-.078124.152343 0 .242187.148437.179687.292968-.011718.027344-.058594.125-.109375.21875-.230469.421875-.484375.808594-.792969 1.195313-.070312.085937-.128906.160156-.128906.160156 0 .003906.605469.003906 1.34375.003906 1.070313 0 1.335938 0 1.332032-.007812zm0 0" fill="#333"/></svg>