<svg height="12pt" viewBox="0 0 12 12" width="12pt" xmlns="http://www.w3.org/2000/svg"><path d="m2.800781.710938h6.398438c1.152343 0 2.089843.9375 2.089843 2.089843v6.398438c0 1.152343-.9375 2.089843-2.089843 2.089843h-6.398438c-1.152343 0-2.089843-.9375-2.089843-2.089843v-6.398438c0-1.152343.9375-2.089843 2.089843-2.089843zm0 0" fill="#cd8652" fill-rule="evenodd"/><path d="m8.332031 4.0625c.140625-.121094.324219-.152344.464844-.082031l.027344-.027344c.085937-.199219.234375-.421875.445312-.625.210938-.207031.441407-.355469.644531-.4375 0 0 .042969-.039063.09375-.085937.050782-.050782.019532-.15625-.070312-.242188l-.515625-.503906c-.085937-.085938-.199219-.113282-.246094-.066406l-.089843.085937c-.085938.203125-.238282.425781-.449219.632813-.210938.203124-.441407.351562-.648438.433593l-.019531.019531c.089844.136719.0625.332032-.070312.476563l-1.386719 1.339844c-.058594-.003907-.15625-.050781-.285157-.246094-.230468-.347656-.765624-.546875-1.210937.203125-.441406.746094-.074219.871094-1.335937 1.011719-.445313.027343-.867188.191406-1.191407.503906-.761719.742187-.675781 2.035156.195313 2.882813.871094.847656 2.199218.929687 2.960937.1875.015625-.011719.027344-.027344.039063-.039063 0 0 .007812-.007813.015625-.015625.058593-.066406.117187-.132812.164062-.207031.195313-.269531.476563-.757813.414063-1.269531-.09375-.769532.648437-.734376.953125-.925782.308593-.195312.417969-.363281.425781-.554687 0 0-.367188.25-.699219-.074219-.269531-.261719-.152343-.707031-.035156-.945312zm0 0" fill="#fff"/></svg>