<svg height="12pt" viewBox="0 0 12 12" width="12pt" xmlns="http://www.w3.org/2000/svg" xmlns:xlink="http://www.w3.org/1999/xlink"><clipPath id="a"><path d="m0 0h12v12h-12z"/></clipPath><path d="m2.800781.710938h6.398438c1.152343 0 2.089843.9375 2.089843 2.089843v6.398438c0 1.152343-.9375 2.089843-2.089843 2.089843h-6.398438c-1.152343 0-2.089843-.9375-2.089843-2.089843v-6.398438c0-1.152343.9375-2.089843 2.089843-2.089843zm0 0" fill="#e74c3c" fill-rule="evenodd"/><g clip-path="url(#a)"><path d="m1.5 6.136719c0-2.273438 1.175781-3.445313 1.863281-3.445313s.800781.339844.800781.898438c0 1.082031-1.273437.636718-1.273437 2.671875 0 .671875.292969 1.503906 1.0625 1.503906.613281 0 .839844-.734375 1.152344-2.046875.519531-1.976562 1.042969-3.46875 2.816406-3.46875 1.71875 0 2.578125 1.445312 2.578125 3.722656 0 2.273438-1.332031 3.71875-2.019531 3.71875s-.863281-.273437-.863281-.832031c0-1.082031 1.445312-.925781 1.445312-2.960937 0-.671876-.296875-1.664063-1.0625-1.664063-.617188 0-.835938.042969-1.214844 1.484375-.203125 1.539062-.691406 4.03125-2.5625 4.03125-1.722656 0-2.722656-1.339844-2.722656-3.613281zm0 0" fill="#fff"/></g></svg>