<svg height="12pt" viewBox="0 0 12 12" width="12pt" xmlns="http://www.w3.org/2000/svg"><path d="m2.800781.710938h6.398438c1.152343 0 2.089843.9375 2.089843 2.089843v6.398438c0 1.152343-.9375 2.089843-2.089843 2.089843h-6.398438c-1.152343 0-2.089843-.9375-2.089843-2.089843v-6.398438c0-1.152343.9375-2.089843 2.089843-2.089843zm0 0" fill="#d65c2f" fill-rule="evenodd"/><path d="m6.324219 1.890625c-1.703125-.132813-3.308594.792969-4.046875 2.335937l2.257812.605469c.292969-.371093.71875-.613281 1.183594-.683593zm1.449219.386719-.605469 2.257812c.371093.292969.613281.71875.683593 1.183594l2.257813.605469c.132813-1.703125-.792969-3.3125-2.335937-4.046875zm-5.882813 3.398437c-.132813 1.703125.792969 3.308594 2.335937 4.046875l.605469-2.257812c-.371093-.292969-.613281-.71875-.683593-1.183594zm5.574219 1.492188c-.292969.371093-.71875.613281-1.183594.683593l-.605469 2.257813c1.703125.132813 3.308594-.792969 4.046875-2.335937zm0 0" fill="#fff"/></svg>