<svg height="12pt" viewBox="0 0 12 12" width="12pt" xmlns="http://www.w3.org/2000/svg"><path d="m2.800781.710938h6.398438c1.152343 0 2.089843.9375 2.089843 2.089843v6.398438c0 1.152343-.9375 2.089843-2.089843 2.089843h-6.398438c-1.152343 0-2.089843-.9375-2.089843-2.089843v-6.398438c0-1.152343.9375-2.089843 2.089843-2.089843zm0 0" fill="#0d69bc" fill-rule="evenodd"/><path d="m6.011719 1.839844c-.027344 0-.058594.011718-.078125.027344-.285156.28125-.578125.59375-.84375.890624-.652344.753907-1.148438 1.527344-1.507813 2.355469-.335937.769531-.53125 1.4375-.710937 2.410157-.039063.210937-.078125.46875-.105469.679687-.011719.101563-.023437.191406-.027344.261719-.003906.03125-.007812.058594-.007812.082031 0 .011719 0 .019531.003906.03125 0 .007813 0 .011719.003906.023437 0 .011719 0 .03125.042969.058594.027344.015625.03125.011719.035156.011719.007813 0 .011719.003906.015625.003906.011719 0 .019531.003907.035157.003907.023437.003906.050781.003906.082031.003906.25.015625.621093.074218.863281.140625.167969.042969.277344.082031.4375.148437.035156.011719.070312.027344.097656.039063.011719.003906.023438.007812.03125.011719 0 0 .003906 0 .007813.003906h.007812c-.003906 0-.003906 0-.003906 0h .003906s0 .003906.003907.003906h.003906-.003906c.007812.003906.015624.007812.027343.015625.027344.011719.066407.03125.105469.054687.394531.203126.691406.414063 1.160156.832032.0625.054687.121094.105468.164063.144531.023437.015625.039062.03125.054687.042969.007813.007812.015625.011718.019532.015625.003906 0 .007812.003906.011718.007812.003906 0 .007813.003907.011719.007813.007813 0 .011719.007812.042969.007812s.039062-.003906.046875-.007812c.007812-.003906.007812-.003906.011719-.007813.007812-.003906.011718-.003906.011718-.007812.007813-.003907.015625-.007813.023438-.015625.015625-.011719.035156-.027344.058594-.046875.046874-.042969.109374-.09375.179687-.15625.390625-.339844.578125-.484375.847656-.652344.59375-.363281 1.121094-.523437 1.933594-.589844l.066406-.003906c.050781-.003906.09375-.042969.09375-.09375v-.035156c0-.074219-.019531-.230469-.046875-.421875-.023437-.1875-.058594-.40625-.089844-.570313-.175781-.980469-.378906-1.671875-.71875-2.453125-.304687-.703125-.742187-1.414062-1.261718-2.058594-.003906 0-.003906-.003906-.003906-.003906-.351563-.386718-.695313-.789062-1.066407-1.164062-.015625-.019532-.042969-.03125-.070312-.03125zm0 0" fill="#0278dc"/><path d="m6.011719 1.84375c-.027344-.003906-.058594.007812-.078125.027344-.242188.234375-.488282.496094-.71875.75l.789062 4.554687.777344-4.546875c-.226562-.257812-.457031-.511718-.699219-.757812-.015625-.015625-.042969-.027344-.070312-.027344zm-.007813 5.332031 2.390625-2.105469c-.164062-.371093-.367187-.742187-.597656-1.105468zm0 0 2.957032-.425781c-.070313-.300781-.152344-.582031-.246094-.855469zm0 0 3.164063 1.5h.007812c.050781-.003906.09375-.046875.09375-.09375v-.03125c0-.074219-.019531-.230469-.046875-.417969-.011718-.097656-.027344-.191406-.042968-.289062l-.058594-.210938zm0 0 1.15625 2.085938.0625-.019531c.222656-.132813.433594-.238282.65625-.320313zm0 0-.492187 2.605469c.058593.050781.113281.097656.179687.15625.0625.054688.121094.105469.164063.140625.023437.019531.039062.035156.054687.046875.007813.003906.011719.007812.019532.011719.003906.003906.007812.007812.011718.007812 0 .003907.003906.003907.003906.003907l.058594.007812.160156-.09375c.046876-.039062.101563-.085938.164063-.140625.058594-.054687.09375-.078125.144531-.121094zm0 0-1.863281 1.757813c.035156.011718.070313.023437.109375.039062.035156.015625.070312.03125.097656.039063.011719.003906.019532.011719.027344.011719.003906.003906.007812.003906.011719.003906.003906 0 .003906.003906.003906.003906h.003906.003907s.003906.003906.003906.003906h-.003906c.007812.003906.015624.007813.027343.011719.027344.015625.066407.035156.105469.054687.105469.054688.203125.109376.300781.171876zm0 0-3.140625.414063c-.035156.199218-.070312.429687-.097656.621094-.011719.101562-.023437.191406-.027344.261718-.003906.03125-.007812.058594-.007812.078125v.003907c0 .007812 0 .015624.003906.027343 0 .003907 0 .011719.003906.023438 0 .007812 0 .03125.042969.054687.027344.015625.03125.011719.035156.015625h.015625c.011719.003907.023438.003907.035157.003907.023437.003906.050781.007812.082031.007812.046875.003906.101562.007812.152343.011719zm0 0-2.714844-1.28125c-.089843.261719-.167968.53125-.242187.820313zm0 0-1.792968-3.226562c-.214844.339843-.402344.6875-.566407 1.046875zm0 0" fill="#48a0f8" fill-rule="evenodd"/></svg>