<svg height="12pt" viewBox="0 0 12 12" width="12pt" xmlns="http://www.w3.org/2000/svg"><path d="m2.800781.710938h6.398438c1.152343 0 2.089843.9375 2.089843 2.089843v6.398438c0 1.152343-.9375 2.089843-2.089843 2.089843h-6.398438c-1.152343 0-2.089843-.9375-2.089843-2.089843v-6.398438c0-1.152343.9375-2.089843 2.089843-2.089843zm0 0" fill="#3e913a" fill-rule="evenodd"/><path d="m7.199219 8.980469c.582031-.222657 1.046875-.632813 1.308593-1.148438.136719-.273437.214844-.539062.246094-.863281.007813-.085938.007813-.34375 0-.433594-.042968-.457031-.179687-.898437-.410156-1.332031l-.050781-.097656h-4.261719l-.050781.097656c-.230469.433594-.367188.875-.410157 1.332031-.007812.089844-.007812.347656 0 .433594.03125.324219.109376.589844.25.863281.261719.515625.730469.929688 1.304688 1.148438l.066406.027343h1.945313zm1.8125-1.332031c.289062-.144532.535156-.328126.703125-.523438.09375-.113281.152344-.191406.207031-.304688.066406-.132812.105469-.253906.128906-.414062.011719-.074219.015625-.238281.003907-.296875-.035157-.195313-.125-.371094-.269532-.515625-.167968-.175781-.367187-.277344-.613281-.3125-.074219-.011719-.261719-.015625-.351563-.003906-.03125.003906-.0625.007812-.066406.007812s.007813.035156.03125.089844c.019532.046875.046875.117188.0625.152344l.023438.066406h.109375c.113281 0 .160156.007812.238281.027344.222656.058594.398438.214844.480469.429687.039062.089844.046875.160157.035156.269531-.023437.242188-.128906.453126-.316406.648438-.101563.101562-.222657.199219-.339844.273438-.023437.011718-.039063.027343-.039063.03125 0 .015624-.039062.167968-.054687.230468-.011719.035156-.027344.089844-.039063.121094-.011718.035156-.019531.0625-.019531.0625.003907 0 .039063-.015625.085938-.039062zm-5.632813-.019532s-.003906-.011718-.007812-.023437c-.03125-.089844-.074219-.269531-.097656-.394531-.070313-.433594-.039063-.898438.101562-1.375l.015625-.050782-.035156-.035156c-.050781-.054688-.074219-.082031-.109375-.144531-.054688-.085938-.082032-.15625-.132813-.328125-.042969-.152344-.066406-.214844-.09375-.273438-.054687-.117187-.128906-.183594-.230469-.210937-.03125-.007813-.0625-.011719-.378906-.011719h-.347656l-.03125.015625c-.058594.027344-.09375.078125-.09375.144531 0 .035156.003906.042969.019531.074219s.023438.039063.054688.0625c.042969.035156.058593.054687.089843.121094.046876.101562.078126.210937.203126.722656.109374.460937.226562.769531.390624 1.042969.148438.246094.328126.4375.550782.585937.0625.039063.132812.082031.132812.078125zm4.714844-2.859375c-.0625-.078125-.195312-.210937-.28125-.28125-.234375-.183593-.496094-.320312-.800781-.40625-.089844-.027343-.230469-.058593-.285157-.066406-.015624-.003906-.023437-.003906-.023437-.003906 0-.003907.007813-.023438.023437-.046875.097657-.171875.113282-.386719.035157-.570313-.066407-.160156-.203125-.296875-.367188-.359375-.152343-.058594-.328125-.054687-.480469.007813-.160156.066406-.296874.203125-.359374.367187-.066407.183594-.050782.386719.042968.554688.015625.023437.027344.042968.027344.046875-.003906 0-.03125.003906-.066406.011719-.367188.066406-.730469.222656-1.007813.4375-.109375.085937-.25.21875-.316406.308593-.007813.011719.085937.011719 1.929687.011719s1.933594 0 1.929688-.011719zm-2-.808593c-.058594-.011719-.113281-.046876-.160156-.089844-.128906-.128906-.128906-.328125 0-.457032.128906-.128906.328125-.128906.457031 0 .128906.128907.128906.328126 0 .457032-.078125.078125-.1875.109375-.296875.089844zm0 0" fill="#fff"/></svg>