<svg height="12pt" viewBox="0 0 12 12" width="12pt" xmlns="http://www.w3.org/2000/svg" xmlns:xlink="http://www.w3.org/1999/xlink"><linearGradient id="a"><stop offset="0" stop-color="#86959c"/><stop offset="1" stop-color="#86959c" stop-opacity="0"/></linearGradient><linearGradient id="b" gradientUnits="userSpaceOnUse" x1="8.761584" x2="9.726327" xlink:href="#a" y1="7.562745" y2="10.149566"/><linearGradient id="c" gradientUnits="userSpaceOnUse" x1="3.181152" x2="2.436907" xlink:href="#a" y1="9.051799" y2="10.50405"/><linearGradient id="d" gradientUnits="userSpaceOnUse" x1="1.295327" x2="3.005825" xlink:href="#a" y1="8.605492" y2="8.605492"/><linearGradient id="e"><stop offset="0" stop-color="#565c66"/><stop offset="1" stop-color="#565c66" stop-opacity="0"/></linearGradient><linearGradient id="f" gradientUnits="userSpaceOnUse" x1="3.932368" x2="7.131988" xlink:href="#e" y1="7.750119" y2="7.750119"/><linearGradient id="g" gradientUnits="userSpaceOnUse" x1="2.919465" x2="4.086255" xlink:href="#e" y1="7.901957" y2="7.901957"/><linearGradient id="h" gradientUnits="userSpaceOnUse" x1="4.598376" x2="5.153674" y1="1.82804" y2="3.643353"><stop offset="0" stop-color="#7e8c93"/><stop offset="1" stop-color="#7e8c93" stop-opacity="0"/></linearGradient><linearGradient id="i" gradientUnits="userSpaceOnUse" x1="5.928217" x2="6.615606" xlink:href="#a" y1="8.106721" y2="10.807"/><linearGradient id="j" gradientUnits="userSpaceOnUse" x1="5.206608" x2="5.557256" y1="3.90233" y2="5.988202"><stop offset="0" stop-color="#fe9212"/><stop offset="1" stop-color="#fe9212" stop-opacity="0"/></linearGradient><path d="m2.800781.710938h6.398438c1.152343 0 2.089843.9375 2.089843 2.089843v6.398438c0 1.152343-.9375 2.089843-2.089843 2.089843h-6.398438c-1.152343 0-2.089843-.9375-2.089843-2.089843v-6.398438c0-1.152343.9375-2.089843 2.089843-2.089843zm0 0" fill="#282838" fill-rule="evenodd"/><path d="m11.042969 9.433594c-.011719-.226563-.023438-.347656-.046875-.429688-.082032-.277344-.191406-.535156-.320313-.757812-.125-.21875-.269531-.402344-.421875-.519532-.382812-.308593-.84375-.550781-1.515625-.789062-.136719-.050781-.253906-.113281-.53125-.28125-.292969-.179688-.429687-.25-.761719-.398438-.226562-.101562-.601562-.25-.835937-.332031s-.441406-.160156-.457031-.171875c-.046875-.03125-.085938-.121094-.109375-.242187-.023438-.128907 0-.34375.089843-.78125.097657-.496094.097657-.582031.003907-1.085938-.15625-.84375-.25-1.109375-.5-1.410156-.03125-.039063-.105469-.109375-.171875-.15625-.183594-.144531-.421875-.246094-.671875-.304687-.246094-.058594-.507813-.070313-.742188-.023438-.402343.074219-.785156.285156-1.082031.570312-.296875.285157-.507812.644532-.566406 1.011719-.035156.226563-.015625.410157.113281.949219.0625.273438.121094.511719.132813.539062.027343.074219.101562.171876.257812.335938l.148438.15625.222656.492188c.125.273437.21875.503906.214844.519531-.003907.011719-.105469.105469-.226563.210937-.242187.207032-.335937.296875-.476563.453125-.097656.105469-.101562.109375-.214843.128907-.222657.039062-.515625.222656-.785157.496093-.316406.316407-.503906.671875-.570312 1.089844-.03125.175781-.03125.183594.007812 1.035156-.03125.789063.824219 1.171875 1.390626 1.179688h6.863281c.316406.058593 1.292969-.503907 1.5625-1.484375zm0 0" fill="#33333f" fill-rule="evenodd"/><path d="m7.675781 7.800781c.003907.015625.007813.007813.011719.035157.054688.199218.117188.296874.351562.546874.261719.273438.382813.46875.449219.707032.074219.265625.210938.453125.46875.632812.15625.109375.382813.226563.539063.28125.183594.066406.484375.203125.621094.285156.191406.121094.28125.164063.414062.207032.152344.050781.214844.042968.324219-.035156.09375-.070313.136719-.125.152343-.191407l.011719-.050781s0 0-.011719-.800781c-.019531-.3125-.023437-.332031-.085937-.523438-.074219-.230469-.28125-.667969-.304687-.652343-.011719.003906-.015626 0-.011719-.011719.003906-.011719-.003907-.039063-.015625-.054688-.015625-.019531-.023438-.023437-.015625-.007812.003906.011719 0 .007812-.015625-.007813s-.027344-.042968-.027344-.054687c0-.035157-.050781-.101563-.066406-.089844-.011719.003906-.015625.003906-.007813-.007813.019531-.027343-.175781-.226562-.335937-.339843-.183594-.132813-.449219-.289063-.660156-.390625-.199219-.097656-.613282-.265625-.675782-.277344-.023437-.003906-.089844-.023438-.148437-.046875-.152344-.066406-.242188-.054687-.292969.035156-.023438.039063-.03125.039063-.179688.042969-.140624 0-.164062.003906-.234374.046875-.203126.117187-.253907.210937-.273438.464844l-.007812.117187zm0 0" fill="url(#b)"/><path d="m3.6875 10.71875c-.0625-.382812-.046875-.769531-.007812-.980469.015624-.070312 0-.117187 0-.132812 0-.0625-.058594-.148438-.183594-.277344-.136719-.136719-.183594-.210937-.410156-.609375-.085938-.15625-.21875-.296875-.339844-.367188-.105469-.0625-.304688-.109374-.382813-.09375-.066406.011719-.144531.09375-.203125.214844-.023437.042969-.054687.089844-.070312.109375-.019532.015625-.070313.109375-.117188.203125l-.085937.175782.003906.261718c.003906.210938.007813.285156.039063.390625.019531.074219.039062.183594.046874.242188.199219 1.132812 1.078126.976562 1.730469.992187zm0 0" fill="url(#c)"/><path d="m1.902344 9.890625.050781-.074219-.03125-.117187c-.0625-.253907-.082031-.585938-.039063-.722657.058594-.183593.320313-.585937.421876-.648437.042968-.027344.070312-.03125.15625-.023437.117187.011718.261718.054687.339843.101562.023438.015625.082031.0625.125.101562l.078125.078126-.011718-.089844c-.003907-.050782-.023438-.152344-.042969-.230469-.027344-.109375-.035157-.191406-.039063-.367187 0-.207032.003906-.242188.046875-.382813l.046875-.15625-.023437-.171875c-.015625-.09375-.027344-.191406-.03125-.210938 0-.039062-.007813-.03125-.09375.058594-.089844.097656-.09375.101563-.21875.125-.230469.046875-.464844.1875-.726563.441406-.261718.25-.425781.496094-.527344.785157-.027343.082031-.054687.191406-.058593.246093-.003907.054688-.011719.195313-.019531.3125-.011719.125-.011719.296876-.003907.421876.007813.117187.019531.359374.027344.539062.066406.316406.429687.3125.574219-.015625zm0 0" fill="url(#d)"/><path d="m4.234375 9.421875c.128906-.0625.273437-.164063.398437-.285156.117188-.109375.828126-.722657.921876-.796875.035156-.023438.0625-.0625.070312-.09375.011719-.0625.109375-.261719.175781-.355469.027344-.039063.195313-.222656.371094-.402344.449219-.457031.472656-.488281.554687-.734375.050782-.160156.152344-.363281.21875-.441406.03125-.035156.085938-.082031.121094-.097656.105469-.046875.109375-.042969-.179687-.144532-.140625-.050781-.160157-.054687-.203125-.035156-.128906.058594-.242188.175782-.261719.269532-.003906.023437-.039063.144531-.074219.269531-.082031.292969-.15625.441406-.265625.542969-.132812.128906-.582031.371093-.933593.503906-.328126.128906-.738282.308594-.769532.339844-.019531.019531-.039062.054687-.042968.078124-.011719.039063-.003907.046876.042968.070313.035156.011719.078125.050781.105469.09375.039063.058594.042969.082031.042969.195313 0 .113281-.003906.132812-.046875.195312-.027344.039062-.082031.09375-.125.125-.039063.03125-.078125.058594-.089844.066406-.007813.007813-.035156.019532-.054687.027344-.019532.003906-.035157.019531-.035157.03125 0 .042969-.082031.191406-.128906.234375-.035156.027344-.042969.046875-.035156.058594.03125.03125.019531.070312-.039063.148437-.042968.054688-.050781.074219-.03125.082032.027344.011718.03125.0625.003906.089843-.039062.039063.183594.011719.289063-.035156zm0 0" fill="url(#f)"/><path d="m3.644531 9.316406c.015625-.003906.015625-.03125.007813-.089844-.011719-.097656-.007813-.113281.027344-.113281.019531 0 .019531-.003906.007812-.03125-.027344-.050781-.019531-.113281.015625-.113281.027344 0 .03125-.003906.003906-.066406-.023437-.0625-.023437-.070313 0-.089844.027344-.019531.027344-.023438-.019531-.074219-.058594-.058593-.082031-.136719-.082031-.257812 0-.097657.023437-.167969.085937-.242188.070313-.082031.214844-.167969.296875-.179687.070313-.007813.074219-.011719.074219-.058594 0-.023438.007812-.058594.019531-.074219.03125-.050781-.109375-.257812-.308593-.457031-.128907-.132812-.179688-.199219-.226563-.289062-.136719-.28125-.136719-.476563 0-.6875.128906-.195313.046875-.179688-.140625.023437-.042969.046875-.082031.082031-.089844.078125-.019531-.007812-.238281.195312-.285156.265625-.050781.078125-.0625.167969-.03125.277344.035156.132812.03125.21875-.023438.441406-.03125.121094-.058593.25-.058593.28125 0 .101563.054687.445313.078125.503906.011718.03125.046875.128907.078125.21875.089843.261719.3125.644531.460937.792969l.078125.074219.003907-.0625c.003906-.03125.015624-.066407.027343-.070313zm0 0" fill="url(#g)"/><g fill="#232729"><path d="m4.773438 7.710938c.46875-.191407.726562-.304688.929687-.417969.089844-.050781.199219-.113281.238281-.132813.039063-.023437.089844-.054687.109375-.074218.0625-.058594.179688-.320313.25-.570313.039063-.128906.074219-.238281.082031-.242187.007813-.003907.023438-.03125.039063-.0625.035156-.070313.101563-.128907.1875-.167969.089844-.042969.09375-.039063-.167969-.128907-.269531-.09375-.347656-.136718-.382812-.222656-.019532-.039062-.035156-.09375-.042969-.121094-.007813-.042968-.015625-.046874-.027344-.03125-.011719.015626-.011719.007813-.007812-.027343.015625-.085938.027343-.246094.015625-.222657-.003906.011719-.015625.015626-.027344.007813s-.011719 0-.003906.019531c.003906.011719.003906.023438-.003906.015625-.007813-.003906-.050782.050781-.09375.125-.042969.070313-.078126.128907-.082032.125-.003906-.003906.042969-.085937.101563-.1875l.109375-.175781.003906-.179688c.007812-.195312.023438-.253906.027344-.089843 0 .058593.003906.085937.007812.066406.003906-.023437.023438-.128906.046875-.230469.066407-.324218.089844-.488281.089844-.617187 0-.109375-.082031-.648438-.109375-.722657-.007812-.011718-.023438.050782-.039062.140626-.015626.089843-.046876.207031-.070313.261718-.101563.242188-.175781.539063-.207031.835938-.007813.09375-.019532.40625-.027344.695312-.007812.390625-.015625.535156-.03125.558594-.011719.019531-.054688.054688-.101562.074219-.070313.035156-.09375.039062-.320313.039062-.277344 0-.316406-.011719-.324219-.09375-.003906-.050781-.011718-.054687-.199218-.136719-.109376-.046874-.203126-.085937-.214844-.085937-.03125 0 .167968.183594.253906.234375.160156.09375.292969.128906.507812.132812.179688 0 .191407-.003906.296876-.054687.058593-.03125.125-.074219.144531-.097656.015625-.023438.035156-.039063.039062-.03125.019531.015625-.140625.140625-.214843.164062-.25.089844-.660157.027344-.84375-.125-.042969-.035156-.152344-.089843-.265626-.132812-.566406-.222657-1.035156-.59375-1.238281-.980469-.046875-.09375-.050781-.109375-.050781-.269531 0-.160157.003906-.179688.050781-.269531.066407-.125.101563-.15625.246094-.226563l.121094-.050781-.09375-.074219c-.109375-.089844-.28125-.269531-.351563-.375-.085937-.128906-.140625-.226563-.132812-.238281.007812-.003906.03125.03125.058594.078125.078124.136719.246093.34375.378906.464843.070312.058594.132812.113282.144531.117188.007813.003906-.050781-.066406-.132813-.160156-.078124-.089844-.183593-.210938-.230468-.273438-.152344-.203125-.308594-.574218-.3125-.742187 0-.03125-.007813-.070313-.015625-.089844-.011719-.023437-.015625-.019531-.015625.03125 0 .140625.039062.328125.105468.507813.011719.019531.007813.027343-.003906.019531-.015625-.007813-.058594.023437-.117187.082031-.082031.082031-.101563.113281-.136719.226562-.035156.105469-.042969.117188-.035156.058594.015625-.121094.066406-.210937.167968-.308594l.09375-.09375-.039062-.128906c-.019531-.074218-.042969-.175781-.046875-.234375-.011719-.105469.003906-.289062.023437-.277343.007813.003906.011719-.023438.015626-.058594v-.066406l-.042969.054687c-.09375.121094-.214844.324219-.261719.4375-.089844.214844-.105469.300781-.105469.558594 0 .214843.007813.257812.058594.464843.035156.128907.070313.257813.085937.296876.011719.035156.023438.082031.023438.105468.003906.089844.070312.371094.109375.433594.089844.15625.429687.460938.6875.613281.035156.023438.105469.066407.160156.101563.054688.035156.164063.097656.246094.144531.203125.113281.304687.183594.445313.300781.117187.101563.304687.222656.378906.246094.023437.003906.050781.019531.0625.03125.03125.03125.238281.074219.40625.085938.214844.011718.347656-.03125.527344-.175782.097656-.078125.125-.128906.167968-.3125.039063-.175781.070313-.234375.054688-.097656-.023438.167969-.0625.296875-.113282.363281-.164062.214844-.492187.304688-.835937.234375-.0625-.015625-.128906-.023437-.144531-.023437-.042969 0-.3125-.140625-.367188-.1875-.226562-.207031-.671875-.511719-.671875-.460938 0 .003907.03125.089844.066407.191407.082031.226562.171874.425781.296874.652343.289063.535157.304688.703125.097657.957031-.027344.039063-.046875.074219-.039063.078126.007813.003906.027344.042968.042969.085937.019531.042969.03125.082031.035156.085937.003907.003907.042969-.027343.089844-.066406.152344-.128906.5-.339844.554687-.339844.035157 0 .355469-.167968.472657-.246093.058593-.039063.179687-.144531.273437-.238281.148438-.148438.175782-.183594.246094-.335938.082031-.167969.132812-.355469.160156-.574219.003906-.050781.015625-.089843.023438-.082031.007812.003906.011718.011719.007812.019531-.003906.003907-.011718.074219-.015625.148438-.003906.078125-.019531.179687-.03125.230469-.015625.046874-.027343.113281-.035156.144531-.019531.125-.117187.289062-.269531.464843-.101563.113282-.496094.371094-.792969.515626-.210937.101562-.367187.195312-.511719.308593-.078125.0625-.082031.070313-.066406.109375.011719.023438.023438.039063.027344.039063s.171875-.0625.371094-.144531zm0 0"/><path d="m4.167969 7.785156c.023437-.019531.027343-.03125.011719-.082031-.011719-.03125-.070313-.121094-.128907-.199219-.148437-.203125-.183593-.296875-.234375-.632812-.011718-.085938-.039062-.15625-.101562-.273438-.042969-.089844-.085938-.15625-.09375-.148437-.003906.003906-.03125.054687-.054688.109375-.125.289062-.039062.578125.265625.878906.085938.085938.1875.203125.222657.261719.035156.058593.070312.109375.074218.109375s.019532-.011719.039063-.023438zm0 0"/><path d="m4.214844 7.480469c.0625-.074219.113281-.195313.121094-.285157.011718-.125-.027344-.234374-.203126-.578124-.164062-.324219-.269531-.5625-.351562-.785157-.027344-.078125-.0625-.152343-.074219-.167969-.011719-.015624-.074219-.058593-.132812-.09375-.0625-.035156-.179688-.117187-.261719-.179687-.085938-.0625-.15625-.113281-.160156-.109375-.003906.007812.445312 1 .476562 1.046875.011719.019531.066406.125.125.230469.085938.167968.101563.21875.121094.34375.027344.179687.089844.359375.152344.457031.082031.117187.121094.171875.136718.171875.003907 0 .027344-.023438.050782-.050781zm0 0"/><path d="m5.074219 5.898438c0-.140626-.027344-.324219-.070313-.441407-.015625-.039062-.019531-.078125-.015625-.085937.007813-.011719.003907-.015625-.007812-.007813-.007813.003907-.019531 0-.023438-.015625-.007812-.015625-.003906-.019531.007813-.015625.054687.035157-.09375-.25-.222656-.421875-.128907-.175781-.371094-.410156-.550782-.535156-.433594-.300781-.65625-.503906-.742187-.667969-.019531-.039062-.09375-.132812-.164063-.203125-.070312-.074218-.15625-.160156-.183594-.195312l-.054687-.066406.050781.097656c.03125.054687.09375.152344.144532.21875.082031.109375.320312.390625.351562.410156.007812.007812.011719.019531.003906.03125-.003906.007812 0 .019531.011719.027344.011719.007812.011719.003906.003906-.011719-.007812-.011719.027344.011719.074219.058594.050781.042969.117188.097656.152344.121093.03125.019532.058594.042969.058594.046876 0 .011718-.109376-.058594-.207032-.132813l-.085937-.0625-.046875.035156c-.113282.078125-.28125.296875-.28125.363281 0 .011719.039062.050782.082031.085938.046875.035156.089844.070312.09375.078125.015625.023437-.070313-.03125-.148437-.09375-.058594-.050781-.058594-.054687-.039063-.105469.027344-.085937.089844-.175781.171875-.257812l.078125-.074219-.101563.050781c-.082031.042969-.109374.066406-.15625.144532-.113281.175781-.121093.375-.03125.554687.097657.195313.351563.46875.585938.636719.152344.109375.285156.183594.308594.175781.011718-.003906.039062.011719.066406.035156.023438.023438.050781.035157.058594.03125.007812-.003906.011718 0 .011718.007813 0 .011718.007813.015625.015626.011718.007812-.003906.066406.015626.128906.046876.0625.027343.128906.058593.152344.066406l.039062.011718-.046875-.050781c-.023437-.03125-.039063-.0625-.03125-.074219.003906-.007812.003906-.011718-.003906-.003906-.015625.011719-.074219-.035156-.074219-.058594 0-.011718.015625-.007812.03125.007813.027344.023437.363281.175781.4375.199219.035156.011718.039062.007812.027344-.042969-.003906-.03125-.011719-.0625-.011719-.074219-.003906-.011718-.089844-.0625-.1875-.109375-.101563-.050781-.179687-.09375-.179687-.097656s.070312.023437.160156.066406.171875.070313.175781.066407c.007813-.007813-.003906-.046876-.019531-.089844l-.03125-.078125-.316406-.160157c-.34375-.175781-.332032-.171874-.265626-.015624.027344.058593.046876.078124.160157.132812.070312.035156.121093.066406.113281.066406s-.054688-.019531-.109375-.046875c-.054687-.027343-.101563-.050781-.105469-.046875s.023438.050782.058594.101563.058594.101562.054688.109375c-.003907.007812 0 .03125.007812.046875.011719.019531.011719.035156.003906.03125-.015625 0-.160156-.246094-.15625-.269531 0-.011719-.003906-.019532-.011718-.015626-.003907 0-.0625-.0625-.121094-.144531-.125-.164062-.269532-.316406-.367188-.378906-.035156-.023437-.0625-.046875-.058594-.050781.011719-.011719.199219.136718.285157.230468.042969.050782.121093.144532.167969.207032.046874.0625.085937.113281.089843.113281.003907 0-.011719-.027344-.03125-.0625-.019531-.03125-.039062-.078125-.039062-.101563 0-.019531-.007813-.070312-.011719-.105468-.003906-.039063-.003906-.046875.003906-.023438.007813.03125.066406.070313.300782.1875.15625.082032.292968.140625.300781.132813.003906-.003907-.019531-.058594-.058594-.113281-.050781-.078126-.054687-.089844-.015625-.042969.066406.074219.203125.359375.226562.46875.007813.046875.015626.121093.015626.160156 0 .074219.023437.105469.085937.105469.023437 0 .027344-.015625.027344-.128906zm0 0"/></g><path d="m5.558594 5.988281c.121094-.050781.121094-.054687.121094-.285156 0-.28125.027343-.859375.050781-1.046875.027343-.246094.074219-.445312.179687-.757812.113282-.335938.128906-.433594.089844-.582032-.015625-.058594-.03125-.109375-.03125-.113281-.003906-.003906-.023438.003906-.042969.011719-.035156.019531-.097656.132812-.132812.238281-.011719.035156-.042969.101563-.070313.148437-.152344.234376-.414062.347657-.777344.328126-.226562-.011719-.480468-.066407-1.03125-.226563-.253906-.070313-.460937-.125-.464843-.121094-.015625.015625.050781.148438.128906.25.085937.117188.265625.269531.542969.464844.347656.242187.679687.605469.828125.90625.085937.167969.160156.503906.160156.714844 0 .046875.003906.09375.011719.101562.023437.023438.367187 0 .4375-.03125zm0 0" fill="#fefa12"/><path d="m5.207031 3.902344c.125-.019532.3125-.105469.390625-.179688.109375-.105468.179688-.261718.242188-.53125.015625-.0625.015625-.0625.019531-.011718v.054687l.046875-.035156c.027344-.019531.058594-.03125.070312-.027344.019532.007813.019532-.007813.003907-.082031-.117188-.566406-.351563-.917969-.753907-1.121094-.125-.0625-.367187-.140625-.441406-.140625-.035156 0-.070312-.007813-.082031-.019531-.007813-.007813-.105469-.019532-.234375-.023438-.25-.011718-.417969.011719-.648438.09375-.238281.085938-.589843.28125-.589843.328125 0 .007813-.007813.011719-.015625.003907-.011719-.003907-.082032.050781-.15625.128906l-.140625.132812v.199219c0 .222656.027343.34375.113281.488281.066406.109375.347656.40625.363281.382813.015625-.027344.089844-.011719.324219.066406.105469.035156.230469.074219.277344.085937l.089844.027344-.058594-.050781c-.03125-.03125-.175782-.152344-.320313-.273437-.273437-.226563-.484375-.441407-.542969-.558594-.046874-.089844-.097656-.296875-.097656-.390625.003906-.0625.007813-.054688.023438.058593.027344.175782.066406.289063.136718.394532.058594.089844.300782.328125.488282.476562.171875.136719.378906.3125.390625.328125.003906.007813.09375.042969.199219.074219.28125.085938.261718.085938.214843.03125-.035156-.042969-.03125-.042969.019531.003906.050782.046875.078126.058594.203126.078125.179687.027344.324218.03125.464843.007813zm0 0" fill="url(#h)"/><path d="m7.644531 7.71875v-.175781c-.003906-.160157 0-.1875.039063-.265625.042968-.097656.109375-.160156.242187-.230469.074219-.042969.097657-.046875.230469-.046875.136719.003906.148438 0 .175781-.039062.019531-.019532.058594-.050782.085938-.0625.03125-.011719.054687-.023438.054687-.027344 0-.023438-.257812-.164063-.332031-.179688-.578125-.203125-.972656.546875-.9375.6875-.113281.230469-.179687.328125-.285156.425782-.066407.058593-.113281.089843-.296875.210937l-.050782.027344.113282.011719c.082031.007812.035156.011718-.152344.011718-.398438.003906-.5625.046875-.828125.222656-.132813.089844-.261719.195313-.90625.761719-.421875.371094-.554687.449219-.792969.464844-.0625.007813-.132812.019531-.152344.027344-.164062.0625-.214843.542969-.125 1.160156.011719.082031.027344.152344.03125.15625.03125.03125 1.042969.03125 1.351563.078125.519531.078125 1.0625.089844 1.488281-.042969.40625-.121093.539063-.039062.925782-.316406.445312-.320313.8125-.617187 1.105468-.894531l.097656-.089844-.050781-.0625c-.085937-.109375-.164062-.269531-.210937-.425781-.023438-.078125-.058594-.179688-.078125-.226563-.0625-.128906-.195313-.308594-.289063-.386718-.042968-.035157-.078125-.074219-.070312-.082032.003906-.007812-.039063-.058594-.097656-.117187-.175782-.203125-.1875-.253907-.285157-.574219zm0 0" fill="url(#i)"/><path d="m4.820312 4.011719.609376-.09375c-.003907.050781-.027344.0625.050781.183593.042969.0625.050781.066407.121093.140626.109376.117187-.175781 1.128906.042969 1.640624l-.378906.121094c-.042969-.367187-.058594-.722656-.375-1.183594-.0625-.183593-.167969-.378906-.042969-.503906.0625-.097656.074219-.199218-.027344-.304687zm0 0" fill="url(#j)"/></svg>