<svg height="12pt" viewBox="0 0 12 12" width="12pt" xmlns="http://www.w3.org/2000/svg"><path d="m11.25 2.613281c-.019531-.21875-.042969-.433593-.125-.625-.105469-.25-.257812-.476562-.449219-.664062-.1875-.191407-.414062-.34375-.664062-.449219-.191407-.082031-.40625-.105469-.625-.125h-3.386719v5.25h5.25zm0 0" fill="#ff8c2a"/><path d="m2.613281.75c-.21875.019531-.433593.042969-.625.125-.25.105469-.476562.257812-.664062.449219-.191407.1875-.34375.414062-.449219.664062-.082031.191407-.105469.40625-.125.625v3.386719h5.25v-5.25zm0 0" fill="#2086e7"/><path d="m9.386719 11.25c.21875-.019531.433593-.042969.625-.125.25-.105469.476562-.257812.664062-.449219.191407-.1875.34375-.414062.449219-.664062.082031-.191407.105469-.40625.125-.625v-3.386719h-5.25v5.25zm0 0" fill="#2086e7"/><path d="m .75 9.386719c.019531.21875.046875.433593.125.625.105469.25.257812.476562.449219.664062.1875.191407.414062.34375.664062.449219.191407.082031.40625.105469.625.125h3.386719v-5.25h-5.25zm0 0" fill="#6655e4"/><path d="m3.570312 1.984375h4.859376c.875 0 1.585937.710937 1.585937 1.585937v4.859376c0 .875-.710937 1.585937-1.585937 1.585937h-4.859376c-.875 0-1.585937-.710937-1.585937-1.585937v-4.859376c0-.875.710937-1.585937 1.585937-1.585937zm0 0" fill="#3f3f3f" fill-rule="evenodd"/><g fill="none" stroke="#fff" stroke-linecap="round" stroke-width="2.139934" transform="matrix(.350222 0 0 .350734 1.822097 12.493839)"><path d="m5.939792-11.498454h7.997154"/><path d="m9.932792-25.498103v6.003032c0 1.514679-1.037287 2.026997-1.9965 1.993585-.89229.011138-1.9965-.456631-1.9965-1.993585v-6.003032" stroke-linejoin="bevel"/><path d="m13.936946-21.499794s4.004154.467768 4.004154-1.993586c0-2.472492-4.004154-2.004723-4.004154-2.004723m0 7.996617v-7.996617" stroke-linejoin="bevel"/></g></svg>