<svg height="12pt" viewBox="0 0 12 12" width="12pt" xmlns="http://www.w3.org/2000/svg"><path d="m2.800781.710938h6.398438c1.152343 0 2.089843.9375 2.089843 2.089843v6.398438c0 1.152343-.9375 2.089843-2.089843 2.089843h-6.398438c-1.152343 0-2.089843-.9375-2.089843-2.089843v-6.398438c0-1.152343.9375-2.089843 2.089843-2.089843zm0 0" fill="#4f4f4f" fill-rule="evenodd"/><path d="m1.6875 4.5 1.210938 3h .859374l1.191407-3h-.816407l-.8125 1.976562-.808593-1.976562zm0 0" fill="#6a2537"/><path d="m5.746094 4.5c-.40625 1.003906-.816406 2.003906-1.246094 3h .863281l.804688-1.96875.796875 1.96875h.863281l.796875-2.023438.824219 2.023438h.863281c-.429688-.996094-.851562-1.996094-1.257812-3h-.859376l-.796874 1.976562-.816407-1.976562zm0 0" fill="#a6aaad" fill-opacity=".941176"/></svg>