<svg height="12pt" viewBox="0 0 12 12" width="12pt" xmlns="http://www.w3.org/2000/svg" xmlns:xlink="http://www.w3.org/1999/xlink"><clipPath id="a"><path d="m0 0h12v12h-12z"/></clipPath><g fill-rule="evenodd"><path d="m2.800781.710938h6.398438c1.152343 0 2.089843.9375 2.089843 2.089843v6.398438c0 1.152343-.9375 2.089843-2.089843 2.089843h-6.398438c-1.152343 0-2.089843-.9375-2.089843-2.089843v-6.398438c0-1.152343.9375-2.089843 2.089843-2.089843zm0 0" fill="#a0002f"/><path d="m3.640625 11.289062 2.359375-5.289062-5.289062-2.359375v5.558594c0 1.15625.933593 2.089843 2.089843 2.089843zm0 0" fill="#a0002f"/><path d="m11.289062 8.359375-5.289062-2.359375-2.359375 5.289062h5.558594c1.15625 0 2.089843-.933593 2.089843-2.089843zm0 0" fill="#c3283a"/><path d="m8.359375.710938-2.359375 5.289062 5.289062 2.359375v-5.558594c0-1.15625-.933593-2.089843-2.089843-2.089843zm0 0" fill="#a0002f"/><path d="m .710938 3.640625 5.289062 2.359375 2.359375-5.289062h-5.558594c-1.15625 0-2.089843.933593-2.089843 2.089843zm0 0" fill="#c3283a"/></g><path d="m4.625 9.84375c.015625-.019531.070312-.054688.117188-.082031.085937-.042969.101562-.046875.300781-.0625.253906-.023438.457031-.0625.546875-.105469.136718-.0625.214844-.179688.257812-.375.019532-.085938.027344-.183594.03125-.601562.003906-.507813-.015625-1.226563-.035156-1.335938-.023438-.121094-.042969-.140625-.25-.296875-.226562-.167969-.496094-.425781-.617188-.589844-.214843-.296875-.335937-.601562-.398437-1-.015625-.109375-.023437-.230469-.023437-.449219 0-.492187.046874-.808593.257812-1.796874.074219-.359376.097656-.4375.140625-.484376l.027344-.027343h2.035156l.027344.027343c.039062.042969.058593.113282.148437.519532.242188 1.121094.296875 1.675781.222656 2.207031-.09375.671875-.40625 1.152344-1.0625 1.632813-.082031.058593-.15625.121093-.164062.140624-.035156.066407-.046875.179688-.0625.480469-.015625.425781-.015625 1.320313 0 1.453125.039062.300782.125.4375.320312.515625.085938.03125.265626.0625.507813.085938.183594.015625.207031.019531.292969.0625.050781.023437.105468.058593.125.078125l.03125.035156h-2.808594zm0 0" fill="#fff"/><path d="m4.746094 5.128906c-.066406 1.953125 2.359375 2.449219 2.542968 0-.5625.8125-1.929687-.75-2.542968 0zm0 0" fill="#bb002f"/><path d="m10.300781 8.46875c0 1.035156-.839843 1.875-1.875 1.875-1.035156 0-1.875-.839844-1.875-1.875s.839844-1.875 1.875-1.875c1.035157 0 1.875.839844 1.875 1.875zm0 0" fill="#fa6257"/><g clip-path="url(#a)"><path d="m8.078125 9.375c0-.046875.007813-.089844.019531-.121094.015625-.035156.035156-.0625.058594-.082031.027344-.019531.054688-.035156.089844-.046875.03125-.007812.066406-.011719.105468-.011719.039063 0 .070313.003907.105469.011719.03125.011719.058594.027344.085938.046875.023437.019531.042969.046875.058593.082031.015626.03125.019532.074219.019532.121094s-.003906.085938-.019532.121094c-.015624.03125-.035156.058594-.058593.082031-.027344.019531-.054688.039063-.085938.046875-.035156.011719-.066406.015625-.105469.015625-.039062 0-.074218-.003906-.105468-.015625-.035156-.007812-.0625-.027344-.089844-.046875-.023438-.023437-.042969-.050781-.058594-.082031-.011718-.035156-.019531-.074219-.019531-.121094m.050781-.53125v-.113281c0-.054688.003906-.101563.015625-.144531.011719-.042969.027344-.082032.050781-.121094.023438-.039063.050782-.078125.085938-.113282.035156-.039062.078125-.074218.128906-.113281.042969-.035156.078125-.066406.109375-.09375.03125-.027343.054688-.050781.070313-.078125.019531-.027344.035156-.054687.042968-.082031.007813-.03125.011719-.066406.011719-.101563 0-.058593-.019531-.109374-.058593-.148437-.039063-.035156-.101563-.054687-.183594-.054687-.070313 0-.148438.011718-.230469.042968s-.167969.066406-.253906.109375l-.160157-.339843c.042969-.027344.09375-.050782.144532-.074219.054687-.023438.109375-.046875.164062-.0625.054688-.019531.113282-.035157.171875-.042969.058594-.011719.113281-.015625.171875-.015625.105469 0 .199219.011719.285156.039063.082032.023437.15625.0625.214844.109374.058594.046876.105469.109376.136719.175782.03125.070312.046875.148437.046875.238281 0 .066406-.007812.125-.023438.175781-.011718.050782-.035156.097656-.0625.140625-.03125.046875-.066406.085938-.109374.128907-.042969.039062-.089844.082031-.148438.128906-.042969.035156-.078125.0625-.105469.089844-.027343.023437-.050781.050781-.066406.070312-.015625.023438-.023437.046875-.03125.074219-.003906.023437-.007813.050781-.007813.085937v.089844zm0 0" fill="#fff"/></g></svg>