<svg height="12pt" viewBox="0 0 12 12" width="12pt" xmlns="http://www.w3.org/2000/svg"><path d="m2.800781.710938h6.398438c1.152343 0 2.089843.9375 2.089843 2.089843v6.398438c0 1.152343-.9375 2.089843-2.089843 2.089843h-6.398438c-1.152343 0-2.089843-.9375-2.089843-2.089843v-6.398438c0-1.152343.9375-2.089843 2.089843-2.089843zm0 0" fill="#ccc" fill-rule="evenodd"/><path d="m6 1.984375c-.542969 0-1.050781.257813-1.375.691406-.539062-.078125-1.082031.101563-1.464844.484375-.382812.382813-.5625.925782-.484375 1.460938-.433593.324218-.691406.835937-.691406 1.378906s.257813 1.050781.691406 1.378906c-.078125.535156.101563 1.078125.484375 1.460938.382813.382812.925782.5625 1.460938.484375.324218.433593.835937.691406 1.378906.691406s1.050781-.257813 1.375-.691406c.539062.078125 1.082031-.101563 1.464844-.484375.382812-.382813.5625-.925782.484375-1.460938.433593-.324218.691406-.835937.691406-1.378906s-.257813-1.050781-.691406-1.378906c.078125-.535156-.101563-1.078125-.484375-1.460938-.382813-.382812-.925782-.5625-1.460938-.484375-.324218-.433593-.835937-.691406-1.378906-.691406zm0 0" fill="#fff"/><g fill="#d09e73"><path d="m4.992188 5.132812c-.34375-.34375-.898438-.34375-1.242188 0l-1.242188 1.242188c-.34375.34375-.34375.898438 0 1.242188s.898438.34375 1.242188 0l1.242188-1.242188c.34375-.34375.34375-.898438 0-1.242188zm0 0"/><path d="m8.253906 6c0 1.242188-1.007812 2.25-2.25 2.25-1.246094 0-2.25-1.007812-2.25-2.25s1.003906-2.25 2.25-2.25c1.242188 0 2.25 1.007812 2.25 2.25zm0 0"/><path d="m7.007812 5.132812c.34375-.34375.898438-.34375 1.242188 0l1.242188 1.242188c.34375.34375.34375.898438 0 1.242188s-.898438.34375-1.242188 0l-1.242188-1.242188c-.34375-.34375-.34375-.898438 0-1.242188zm0 0"/></g><path d="m5.628906 5.4375c0 .3125-.253906.5625-.5625.5625-.3125 0-.5625-.25-.5625-.5625s.25-.5625.5625-.5625c.308594 0 .5625.25.5625.5625zm0 0" fill="#4d4d4d"/><path d="m7.503906 5.4375c0 .3125-.253906.5625-.5625.5625-.3125 0-.5625-.25-.5625-.5625s.25-.5625.5625-.5625c.308594 0 .5625.25.5625.5625zm0 0" fill="#4d4d4d"/></svg>