<svg height="32" width="32" xmlns="http://www.w3.org/2000/svg"><rect fill="#fb7a24" fill-rule="evenodd" height="28.203388" ry="5.575182" width="28.203388" x="1.898306" y="1.898306"/><path d="m11.00014 5.9999a5 5 0 0 0 -5 5 5 5 0 0 0 5 5 5 5 0 0 0 -5 5 5 5 0 0 0 5 5 5 5 0 0 0 5-5 5 5 0 0 0 -.01758-.3418 5 5 0 0 0  .01758.002 5 5 0 0 0  .01172 0 5 5 0 0 0 -.012.34 5 5 0 0 0 5 5 5 5 0 0 0 5-5 5 5 0 0 0 -5-5 5 5 0 0 0 -.01758.002 5 5 0 0 0 0-.002 5 5 0 0 0  .01758 0 5 5 0 0 0 5-5 5 5 0 0 0 -5-5 5 5 0 0 0 -4.9883 4.6602 5 5 0 0 0 -.01172 0 5 5 0 0 0 -.01758 0 5 5 0 0 0 -4.982-4.66zm9.9902 2.9746a2.0002 2.0002 0 0 1 1.8477 2.8125c-.586 1.367-1.093 2.756-2.104 4.012-1.01 1.255-2.742 2.201-4.734 2.201-1.1954 0-1.1831.05375-1.5059.43359-.32271.37984-.85679 1.5261-1.6621 3.3672a2.0002 2.0002 0 1 1 -3.664-1.602c.7822-1.788 1.247-3.142 2.277-4.355 1.031-1.213 2.75-1.844 4.555-1.844 1.0081 0 1.1782-.1611 1.6191-.70898.44097-.54788.93446-1.6583 1.543-3.0781a2.0002 2.0002 0 0 1 1.828-1.2384zm-9.99.0254a2 2 0 0 1 2 2 2 2 0 0 1 -2 2 2 2 0 0 1 -2-2 2 2 0 0 1 2-2zm10 10a2 2 0 0 1 2 2 2 2 0 0 1 -2 2 2 2 0 0 1 -2-2 2 2 0 0 1 2-2z" fill="#fff"/></svg>