<svg height="12pt" viewBox="0 0 12 12" width="12pt" xmlns="http://www.w3.org/2000/svg"><path d="m2.800781.710938h6.398438c1.152343 0 2.089843.9375 2.089843 2.089843v6.398438c0 1.152343-.9375 2.089843-2.089843 2.089843h-6.398438c-1.152343 0-2.089843-.9375-2.089843-2.089843v-6.398438c0-1.152343.9375-2.089843 2.089843-2.089843zm0 0" fill="#fb7a24" fill-rule="evenodd"/><path d="m4.125 2.25c-1.035156 0-1.875.839844-1.875 1.875s.839844 1.875 1.875 1.875c-1.035156 0-1.875.839844-1.875 1.875s.839844 1.875 1.875 1.875 1.875-.839844 1.875-1.875c0-.042969-.003906-.085938-.007812-.128906h.007812.003906c-.003906.042968-.003906.085937-.003906.128906 0 1.035156.839844 1.875 1.875 1.875s1.875-.839844 1.875-1.875-.839844-1.875-1.875-1.875c-.003906 0-.003906 0-.007812 0h .007812c1.035156 0 1.875-.839844 1.875-1.875s-.839844-1.875-1.875-1.875c-.984375 0-1.804688.765625-1.871094 1.746094h-.003906c-.003906 0-.003906 0-.007812 0-.066407-.980469-.882813-1.746094-1.867188-1.746094zm3.746094 1.117188c.253906-.003907.496094.125.632812.335937.140625.214844.164063.484375.058594.71875-.21875.511719-.40625 1.03125-.789062 1.503906-.375.46875-1.027344.824219-1.773438.824219-.449219 0-.445312.019531-.566406.164062-.121094.140626-.320313.570313-.621094 1.261719-.101562.253907-.335938.429688-.605469.460938-.269531.035156-.539062-.082031-.699219-.304688-.160156-.21875-.1875-.511719-.070312-.757812.292969-.671875.46875-1.179688.855469-1.632813s1.03125-.691406 1.707031-.691406c.378906 0 .441406-.058594.605469-.265625.167969-.207031.351562-.621094.582031-1.15625.113281-.277344.382812-.460937.683594-.460937zm-3.746094.007812c.414062 0 .75.335938.75.75s-.335938.75-.75.75-.75-.335938-.75-.75.335938-.75.75-.75zm3.75 3.75c.414062 0 .75.335938.75.75s-.335938.75-.75.75-.75-.335938-.75-.75.335938-.75.75-.75zm0 0" fill="#fff"/></svg>