<svg height="12pt" viewBox="0 0 12 12" width="12pt" xmlns="http://www.w3.org/2000/svg"><path d="m2.800781.710938h6.398438c1.152343 0 2.089843.9375 2.089843 2.089843v6.398438c0 1.152343-.9375 2.089843-2.089843 2.089843h-6.398438c-1.152343 0-2.089843-.9375-2.089843-2.089843v-6.398438c0-1.152343.9375-2.089843 2.089843-2.089843zm0 0" fill="#4f4f4f" fill-rule="evenodd"/><path d="m7.695312 3.855469c-.160156.011719-.335937.046875-.535156.105469l-.171875-.105469-3.289062 1.972656c.5-.191406.917969-.28125 1.175781-.304687l-.847656.964843.660156-.363281c-.273438.753906-.589844 1.460938-1.320312 1.78125-.003907.011719-.003907.019531-.007813.03125.554687.621094 1.308594 1.0625 2.164063 1.179688l.46875.648437.019531-.003906.464843-.644531c.902344-.125 1.691407-.605469 2.253907-1.28125-.03125-.003907-.058594-.011719-.097657-.011719-1.039062.011719-1.875-.160157-1.976562-1.292969-.027344-.144531-.046875-1.066406 1.480469-1.523438-.152344-.101562-.667969-.109374-1.03125-.109374-.015625-.132813.015625-.648438 1.195312-.714844-.183593-.179688-.339843-.339844-.605469-.328125zm-.988281.402343c.078125.03125.085938.074219.101563.125-.132813.027344-.320313.085938-.371094.019532-.023438-.023438.136719-.109375.273438-.144532zm0 0" fill="#ee4f47"/><path d="m4.199219 2.210938c-1.460938.65625-2.476563 2.089843-2.476563 3.753906 0 2.285156 1.914063 4.140625 4.277344 4.140625s4.277344-1.855469 4.277344-4.140625c0-1.644532-.992188-3.0625-2.425782-3.726563l-.042968.042969c1.132812.613281 1.808594 1.785156 1.808594 3.128906 0 1.808594-1.347657 3.457032-3.140626 3.707032l-.476562.660156-.476562-.660156c-1.792969-.25-3.140626-1.898438-3.140626-3.707032 0-1.359375.695313-2.539062 1.84375-3.148437-.007812-.015625-.019531-.035157-.027343-.050781" fill="#309be8"/></svg>