<svg height="12pt" viewBox="0 0 12 12" width="12pt" xmlns="http://www.w3.org/2000/svg"><path d="m2.800781.710938h6.398438c1.152343 0 2.089843.9375 2.089843 2.089843v6.398438c0 1.152343-.9375 2.089843-2.089843 2.089843h-6.398438c-1.152343 0-2.089843-.9375-2.089843-2.089843v-6.398438c0-1.152343.9375-2.089843 2.089843-2.089843zm0 0" fill="#c2352a" fill-rule="evenodd"/><path d="m5.800781 7.167969c2.046875-1.164063 2-1.140625 2-1.160157 0-.023437-3.574219-2.078124-3.59375-2.066406-.011719.007813-.011719 4.101563 0 4.113282.003907.003906.015625.007812.027344 0 .007813-.003907.714844-.402344 1.566406-.886719zm0 0" fill="#fff"/><path d="m10.753906 8.582031c0 1.242188-1.007812 2.25-2.25 2.25-1.242187 0-2.25-1.007812-2.25-2.25 0-1.246093 1.007813-2.25 2.25-2.25 1.242188 0 2.25 1.003907 2.25 2.25zm0 0" fill="#8c1b0b"/><path d="m8.953125 7.230469v1.199219h.449219l-.898438 1.199218-.898437-1.199218h.449219v-1.199219zm-1.5 2.398437h2.101563v.300782h-2.101563zm0 0" fill="#fff"/></svg>