<svg height="12pt" viewBox="0 0 12 12" width="12pt" xmlns="http://www.w3.org/2000/svg"><path d="m2.800781.710938h6.398438c1.152343 0 2.089843.9375 2.089843 2.089843v6.394531c0 1.15625-.9375 2.09375-2.089843 2.09375h-6.398438c-1.152343 0-2.089843-.9375-2.089843-2.09375v-6.394531c0-1.152343.9375-2.089843 2.089843-2.089843zm0 0" fill="#c4411a" fill-rule="evenodd"/><path d="m3.40625 11.289062v-10.578124h-.605469c-1.15625 0-2.089843.933593-2.089843 2.089843v6.398438c0 1.15625.933593 2.089843 2.089843 2.089843zm0 0" fill="#4f4f4f" fill-rule="evenodd"/><path d="m-31.109649-5.316899h11l-11 14h11" fill="none" stroke="#fff" stroke-linecap="round" stroke-linejoin="round" stroke-width="2" transform="matrix(.375 0 0 .375 16.697368 5.446962)"/></svg>