<svg height="12pt" viewBox="0 0 12 12" width="12pt" xmlns="http://www.w3.org/2000/svg"><path d="m6 2.183594c-.976562 0-1.953125.371094-2.699219 1.117187-1.492187 1.492188-1.492187 3.90625 0 5.398438 1.492188 1.492187 3.90625 1.492187 5.398438 0 1.492187-1.492188 1.492187-3.90625 0-5.398438-.746094-.746093-1.722657-1.117187-2.699219-1.117187zm-.039062 1.089844c.738281-.011719 1.445312.277343 1.96875.796874 1.0625 1.066407 1.0625 2.792969 0 3.859376-1.066407 1.0625-2.792969 1.0625-3.859376 0-1.0625-1.066407-1.0625-2.792969 0-3.859376.503907-.5 1.179688-.789062 1.890626-.796874zm-.507813.542968v2.410156l1.316406 1.316407.386719-.386719.382812-.386719-.996093-.996093v-1.957032zm0 0" fill="#5c616c"/></svg>