<svg height="32" width="32" xmlns="http://www.w3.org/2000/svg"><path d="m21.186981 2h-13.65097c-3.066406 0-5.536011 2.467666-5.536011 5.5340722v16.9299168c0 3.066406 2.469605 5.536011 5.536011 5.536011h16.929917c3.066406 0 5.534072-2.469605 5.534072-5.536011v-13.65097z" fill="#ccc" fill-rule="evenodd"/><path d="m30 10.813019-8.813019-8.813019v3.278948c0 3.0664051 2.467666 5.534071 5.534072 5.534071z" fill="#999" fill-rule="evenodd"/><path d="m16.177424 10.525424c-2.947191 0-4.422557 2.253184-4.422557 4.175142h2.653535c.04394-.245554.0027-.470316 0-.695858 0-.768615.792025-1.391713 1.769022-1.391713s1.769023.623098 1.769023 1.391713c-.000643.07654-.0093.152909-.02592.228325-.0032.01592-.0049.03159-.0086.04757-.300734 1.317953-2.593388 2.780644-2.618154 4.85708v.434911h2.653534c0-1.304731-.165492-1.826346.630551-2.461385l.995075-.800514c.631541-.49545 1.029571-1.191307 1.029571-1.95675 0-1.921956-1.475365-3.827212-4.422557-3.827212zm-.884511 10.437853v2.087571h2.653534v-2.087571z" fill="#999" stroke-width="1.331266"/></svg>