<svg height="48" width="48" xmlns="http://www.w3.org/2000/svg"><path d="m10 5c-1.108 0-2 .892-2 2v36c0 1.108.892 2 2 2h28c1.108 0 2-.892 2-2v-26l-11-1-1-11z" opacity=".2"/><path d="m10 4c-1.108 0-2 .892-2 2v36c0 1.108.892 2 2 2h28c1.108 0 2-.892 2-2v-26l-11-1-1-11z" fill="#e4e4e4"/><path d="m10 4c-1.108 0-2 .892-2 2v1c0-1.108.892-2 2-2h18l11 11h1l-12-12z" fill="#fff" opacity=".2"/><path d="m28 5v10c0 1.1046.89543 2 2 2h10z" opacity=".2"/><path d="m28 4v10c0 1.1046.89543 2 2 2h10z" fill="#fafafa"/><path d="m24 22a10 10 0 0 0 -1.005859.05273c-.317771.03197-.631049.07945-.939453.140625a10 10 0 0 0 -.04102.0059c-.289894.05875-.573211.13541-.853516.21875a10 10 0 0 0 -.11914.03125c-.316146.09827-.625771.209877-.927735.33789a10 10 0 0 0 -.875.421875 10 10 0 0 0 -1.59375 1.078125 10 10 0 0 0 -.710937.646485 10 10 0 0 0 -.617188.677734c-.01153.01384-.0237.02711-.03516.04102a10 10 0 0 0 -.451172.603515c-.05071.07188-.103496.141597-.152344.214844a10 10 0 0 0 -.310546.507813c-.06933.118654-.140559.235741-.205079.357422a10 10 0 0 0 -.228515.470703c-.06692.143955-.133192.288003-.19336.435547a10 10 0 0 0 -.167968.457031c-.05687.161702-.113462.322932-.16211.488281a10 10 0 0 0 -.113281.4375c-.04271.17411-.08572.347874-.119141.525391a10 10 0 0 0 -.07617.505859c-.02127.15698-.04278.313484-.05664.472656a10 10 0 0 0 -.044916.871054 10 10 0 0 0  .05273 1.005859c.171933 1.708955.777435 3.291501 1.703125 4.638672.0085.01237.01684.02478.02539.03711a10 10 0 0 0  .220703.304687c.000531-.0032.0014-.0066.002-.0098 1.826098 2.435954 4.726623 4.023472 7.996052 4.023472 1.877967 0 3.631344-.530194 5.134766-1.435547l.002.002a10 10 0 0 0  .06055-.04102c.238519-.146037.470451-.29994.695312-.464844a10 10 0 0 0  .154297-.115235c.197444-.150693.38866-.308016.574219-.472656a10 10 0 0 0  .222656-.205078c.154589-.14567.304118-.296043.449219-.451172a10 10 0 0 0  .253906-.279297c.136318-.157118.266102-.31894.392578-.484375a10 10 0 0 0  .203125-.271484c.132874-.186513.256851-.378558.376953-.574219a10 10 0 0 0  .146485-.240234c.118943-.206581.227765-.419292.332031-.634766a10 10 0 0 0  .119141-.248047c.09347-.207595.176455-.419996.255859-.634765a10 10 0 0 0  .111328-.306641c.06891-.207128.128153-.418022.183594-.630859a10 10 0 0 0  .081981-.322308c.04524-.201201.08042-.405796.113281-.611328a10 10 0 0 0  .06055-.40625c.02073-.176121.03156-.354445.04297-.533203a10 10 0 0 0  .033199-.638672c0-.337165-.01797-.669327-.05078-.998047a10 10 0 0 0 -.002-.0078c-.03197-.317771-.07945-.631049-.140625-.939453-.0027-.01345-.0031-.02758-.0059-.04102-.05875-.289894-.13541-.573211-.21875-.853516-.01125-.03784-.01761-.07758-.0293-.115234a10 10 0 0 0 -.0039-.01367c-.09759-.312867-.209199-.619012-.335937-.917969a10 10 0 0 0 -.421875-.875 10 10 0 0 0 -1.078125-1.59375 10 10 0 0 0 -.646485-.710937 10 10 0 0 0 -.677734-.617188 10 10 0 0 0 -.0332-.0293c-.0025-.0021-.0053-.0038-.0078-.0059a10 10 0 0 0 -.603515-.451172c-.07188-.05071-.141597-.103496-.214844-.152344a10 10 0 0 0 -.507813-.310546c-.118654-.06933-.235741-.140559-.357422-.205079a10 10 0 0 0 -.470703-.228515c-.143955-.06692-.288003-.133192-.435547-.19336a10 10 0 0 0 -.456964-.167934c-.161702-.056866-.322932-.113462-.488281-.16211a10 10 0 0 0 -.4375-.113281c-.17411-.04271-.347874-.08572-.525391-.119141a10 10 0 0 0 -.505859-.07617c-.15698-.02127-.313484-.04278-.472656-.05664a10 10 0 0 0 -.871094-.044924zm-1.519531 1.443359 1.279297 3.171875 2.240234-1.96289v5.484375l5.5 4.363281-1.646484 1.523438-4.576172-.04688 2.5625 3.046876c-1.138965.622134-2.4463.976566-3.839844.976566-3.333502 0-6.177876-2.02205-7.382812-4.910156.630681-2.436666 1.572664-4.789207 2.921874-6.101563.57558-2.118187 1.698766-3.871442 2.941407-5.544922zm1.519531 7.556641.072266.851562 1.927734.148438c-.248024-.599537-.85885-.875701-2-1z" opacity=".1"/><path d="m24 21a10 10 0 0 0 -1.005859.052734c-.317771.03197-.631049.079452-.939453.140625a10 10 0 0 0 -.041016.00586c-.289894.058752-.573211.13541-.853516.21875a10 10 0 0 0 -.11914.03125c-.316146.098269-.625771.209877-.927735.33789a10 10 0 0 0 -.875.421875 10 10 0 0 0 -1.59375 1.078125 10 10 0 0 0 -.710937.646485 10 10 0 0 0 -.617188.677734c-.011533.013843-.023697.027111-.035156.041016a10 10 0 0 0 -.451172.603515c-.05071.071877-.103496.141597-.152344.214844a10 10 0 0 0 -.310546.507813c-.069333.118654-.140559.235741-.205079.357422a10 10 0 0 0 -.228515.470703c-.066924.143955-.133192.288003-.19336.435547a10 10 0 0 0 -.167968.457031c-.056866.161702-.113462.322932-.16211.488281a10 10 0 0 0 -.113281.4375c-.04271.17411-.085718.347874-.119141.525391a10 10 0 0 0 -.076172.505859c-.021272.15698-.042779.313484-.05664.472656a10 10 0 0 0 -.044922.871094 10 10 0 0 0  .052734 1.005859c.171933 1.708955.777435 3.291501 1.703125 4.638672.008499.012368.016839.024782.025391.03711a10 10 0 0 0  .220703.304687c.000531-.003206.001421-.006558.001953-.009766 1.82614 2.43592 4.726665 4.023438 7.996094 4.023438 1.877967 0 3.631344-.530194 5.134766-1.435547l.001953.001953a10 10 0 0 0  .060547-.041015c.238519-.146037.470451-.29994.695312-.464844a10 10 0 0 0  .154297-.115235c.197444-.150693.38866-.308016.574219-.472656a10 10 0 0 0  .222656-.205078c.154589-.14567.304118-.296043.449219-.451172a10 10 0 0 0  .253906-.279297c.136318-.157118.266102-.31894.392578-.484375a10 10 0 0 0  .203125-.271484c.132874-.186513.256851-.378558.376953-.574219a10 10 0 0 0  .146485-.240234c.118943-.206581.227765-.419292.332031-.634766a10 10 0 0 0  .119141-.248047c.093467-.207595.176455-.419996.255859-.634765a10 10 0 0 0  .111328-.306641c.068908-.207128.128153-.418022.183594-.630859a10 10 0 0 0  .082031-.322266c.045242-.201201.08042-.405796.113281-.611328a10 10 0 0 0  .060547-.40625c.020733-.176121.031563-.354445.042969-.533203a10 10 0 0 0  .033203-.638672c0-.337165-.01797-.669327-.050781-.998047a10 10 0 0 0 -.001953-.007812c-.03197-.317771-.079452-.631049-.140625-.939453-.002669-.013453-.003137-.027583-.00586-.041016-.058752-.289894-.13541-.573211-.21875-.853516-.011249-.037836-.017612-.077585-.029297-.115234a10 10 0 0 0 -.003906-.013672c-.097593-.312867-.209199-.619012-.335937-.917969a10 10 0 0 0 -.421875-.875 10 10 0 0 0 -1.078125-1.59375 10 10 0 0 0 -.646485-.710937 10 10 0 0 0 -.677734-.617188 10 10 0 0 0 -.033203-.029297c-.00251-.002072-.005301-.003789-.007813-.005859a10 10 0 0 0 -.603515-.451172c-.071877-.05071-.141597-.103496-.214844-.152344a10 10 0 0 0 -.507813-.310546c-.118654-.069333-.235741-.140559-.357422-.205079a10 10 0 0 0 -.470703-.228515c-.143955-.066924-.288003-.133192-.435547-.19336a10 10 0 0 0 -.457031-.167968c-.161702-.056866-.322932-.113462-.488281-.16211a10 10 0 0 0 -.4375-.113281c-.17411-.04271-.347874-.085718-.525391-.119141a10 10 0 0 0 -.505859-.076172c-.15698-.021272-.313484-.042779-.472656-.05664a10 10 0 0 0 -.871094-.044922zm-1.519531 1.443359 1.279297 3.171875 2.240234-1.96289v5.484375l5.5 4.363281-1.646484 1.523438-4.576172-.046876 2.5625 3.046876c-1.138965.62213-2.4463.976562-3.839844.976562-3.333502 0-6.177876-2.02205-7.382812-4.910156.630681-2.436666 1.572664-4.789207 2.921874-6.101563.57558-2.118187 1.698766-3.871442 2.941407-5.544922zm1.519531 7.556641.072266.851562 1.927734.148438c-.248024-.599537-.85885-.875701-2-1z" fill="#d6342a"/></svg>