<svg height="48" width="48" xmlns="http://www.w3.org/2000/svg" xmlns:xlink="http://www.w3.org/1999/xlink"><linearGradient id="a" gradientUnits="userSpaceOnUse" x1="24" x2="44" y1="24" y2="24"><stop offset="0"/><stop offset="1" stop-opacity="0"/></linearGradient><path d="m44 41v-32c0-1.108-.892-2-2-2h-36c-1.108 0-2 .892-2 2v32c0 1.108.892 2 2 2h36c1.108 0 2-.892 2-2z" opacity=".2"/><path d="m44 40v-32c0-1.108-.892-2-2-2h-36c-1.108 0-2 .892-2 2v32c0 1.108.892 2 2 2h36c1.108 0 2-.892 2-2z" fill="#ddd6a7"/><path d="m6 9h16v1h-16z" opacity=".5"/><path d="m6 12h14v1h-14z" opacity=".5"/><path d="m6 15h12v1h-12z" opacity=".5"/><path d="m6 18h16v1h-16z" opacity=".5"/><path d="m6 21h10v1h-10z" opacity=".5"/><path d="m6 24h16v1h-16z" opacity=".5"/><path d="m6 27h16v1h-16z" opacity=".5"/><path d="m6 30h14v1h-14z" opacity=".5"/><path d="m6 33h10v1h-10z" opacity=".5"/><path d="m6 36h16v1h-16z" opacity=".5"/><path d="m6 39h12v1h-12z" opacity=".5"/><g transform="scale(1 -1)"><path d="m26-25h16v1h-16z" opacity=".5"/><path d="m26-22h16v1h-16z" opacity=".5"/><path d="m26-19h14v1h-14z" opacity=".5"/><path d="m26-16h10v1h-10z" opacity=".5"/><path d="m26-13h16v1h-16z" opacity=".5"/><path d="m26-10h12v1h-12z" opacity=".5"/></g><path d="m16 6h6v16l-3-4-3 4z" fill="#ff5959"/><path d="m6 6c-1.108 0-2 .892-2 2v1c0-1.108.892-2 2-2h36c1.108 0 2 .892 2 2v-1c0-1.108-.892-2-2-2z" fill="#fff" opacity=".2"/><path d="m44 40v-32c0-1.108-.892-2-2-2h-18v36h18c1.108 0 2-.892 2-2z" fill="url(#a)" opacity=".1"/></svg>