<svg height="32" width="32" xmlns="http://www.w3.org/2000/svg"><g transform="translate(46.779661 -.542373)"><path d="m-39.307005 2.4408104c-3.088651 0-5.574219 2.4855679-5.574219 5.5742187v8.9160159h28.203125v-8.9160159c.000001-3.0886508-2.485567-5.5742187-5.574219-5.5742187z" fill="#8e8e8e" fill-rule="evenodd"/><g stroke-width=".634941"><path d="m-39.671818 7.338983h17.789534v10.657478h-17.789534z" fill="#e6e6e6"/><path d="m-37.892864 11.601974h4.447383v3.197244h-4.447383z" fill="#808080"/><path d="m-28.108624 11.601974h4.447383v3.197244h-4.447383z" fill="#808080"/></g><path d="m-16.678099 16.931045h-28.203125v8.138671c0 3.088651 2.485568 5.574219 5.574219 5.574219h17.054687c3.088651.000001 5.574219-2.485567 5.574219-5.574219z" fill="#4d4d4d" fill-rule="evenodd"/><rect fill="#808080" height="2.131496" rx="1.065748" stroke-width=".634941" width="17.051966" x="-39.303036" y="21.193705"/><rect fill="#808080" height="2.131496" rx="1.065748" stroke-width=".634941" width="12.788974" x="-37.171539" y="25.456696"/></g></svg>