<svg height="32" width="32" xmlns="http://www.w3.org/2000/svg"><g transform="translate(49.416478 -3.390118)"><path d="m-19.248907 10.222149c-.06377-.52646-.111917-1.061069-.312879-1.53125-.28528-.667454-.697096-1.267627-1.20795-1.771484-.510853-.503858-1.121341-.911987-1.798062-1.19336-.676722-.281372-1.421129-.4375-2.204014-.4375h-17.289524c-.782883 0-1.527291.156128-2.204013.4375-.676722.281373-1.285229.689502-1.796082 1.19336-.510854.503857-.924651 1.10403-1.209931 1.771484-.285278.667454-.441593 1.401665-.441593 2.173828v2.671875l5.621915 9.607422.15842.3125.0396.02344.354463.609375 3.261465 2.583985.904972-.382813 1.037649.646485c-.122785-.223192-.24645-.557053-.366346-.929688l6.099156-2.570312-6.311042-10.785157c.577346-1.313665 1.586162-2.234091 3.358496-2.429687z" fill="#608ab5" stroke-width="1.318987"/><g stroke-width="1.309924"><path d="m-30.914922 33.49168h6.220703c.772162 0 1.506374-.154174 2.173828-.435547.667453-.281372 1.267627-.689502 1.771484-1.193359s.911987-1.104031 1.193359-1.771485c.281373-.667453.435547-1.401665.435547-2.173828v-17.052734c0-.22826-.102506-.421656-.128906-.642578h-14.08789c-.02026 0 2.911869 1.305595 4.148437 2.019531 3.160107 1.824514 3.488641 8.340979 3.496094 10.978516l.53125.30664-.541016.935547c-.000042.000922 0 .04297 0 .04297l-.205078.308594z" fill="#cddff0"/><path d="m-47.705938 11.501445v16.416016c0 .772163.156128 1.506374.4375 2.173828.281373.667454.68755 1.267627 1.191407 1.771485.503857.503857 1.10403.911986 1.771484 1.193359.667454.281372 1.403619.435547 2.175781.435547h11.214844l6.140625-10.212891c-.695596 1.133018-3.593379 2.584789-4.830078 3.298828-3.957279 2.284769-8.982811.806995-11.267578-3.15039z" fill="#85b4df"/><rect fill="#fff" height="18.338932" rx="9.169466" transform="matrix(0 -1 -1 0 0 0)" width="18.338932" x="-28.559296" y="24.186249"/><rect fill="#779fd3" height="13.099236" rx="6.549618" transform="matrix(0 -1 -1 0 0 0)" width="13.099236" x="-25.939447" y="26.806097"/></g></g></svg>