<svg height="32" width="32" xmlns="http://www.w3.org/2000/svg"><g transform="translate(47.322035 -4.067797)"><rect fill="#959595" fill-rule="evenodd" height="28.203388" ry="5.575182" width="28.203388" x="-45.423729" y="5.966103"/><path d="m-31.322099 11.465577c-3.00745 0-5.576845.989517-6.641368 2.389872-.08936.117565-.168612.237296-.236048.360338-.0641.116934-.118884.235331-.16203.35661a7.169472 3.8237662 0 0 0 -.03001.11203c-.02458.08219-.05142.164468-.06602.248322a7.169472 3.8237662 0 0 0 -.034.356609c.000394.124247.01305.248337.03602.371537a7.169472 3.8237662 0 0 0  .09802.358473 7.169472 3.8237662 0 0 0  .166031.35661 7.169472 3.8237662 0 0 0  .228046.347275 7.169472 3.8237662 0 0 0 6.641369 2.389872 7.169472 3.8237662 0 0 0 6.641369-2.389872 7.169472 3.8237662 0 0 0  .0022-.0037 7.169472 3.8237662 0 0 0  .194035-.294995c.01133-.01939.02521-.03842.036-.05787a7.169472 3.8237662 0 0 0  .118024-.253914c.01672-.04001.03773-.07922.05202-.119487a7.169472 3.8237662 0 0 0  .05801-.212847c.01377-.05606.02886-.111643.03801-.168038a7.169472 3.8237662 0 0 0  .02995-.322999 7.169472 3.8237662 0 0 0 -.03801-.380871c-.06599-.372843-.236627-.725581-.487558-1.055377-1.065384-1.400915-3.634922-2.390302-6.641799-2.390302zm-6.641368 7.169473a7.169472 3.8237662 0 0 0 -.528103 1.433894 7.169472 3.8237662 0 0 0 7.169471 3.823766 7.169472 3.8237662 0 0 0 7.169472-3.824196 7.169472 3.8237662 0 0 0 -.527673-1.433894 7.169472 3.8237662 0 0 1 -6.641799 2.390302 7.169472 3.8237662 0 0 1 -6.641798-2.390302zm0 4.7796a7.169472 3.8237662 0 0 0 -.528103 1.433894 7.169472 3.8237662 0 0 0 7.169471 3.824197 7.169472 3.8237662 0 0 0 7.169472-3.823766 7.169472 3.8237662 0 0 0 -.528103-1.433895 7.169472 3.8237662 0 0 1 -6.641799 2.390302 7.169472 3.8237662 0 0 1 -6.641799-2.390302z" fill="#4d4d4d"/></g><g stroke-width=".833333" transform="matrix(.75 0 0 .75 4.432516 5.241102)"><circle cx="24" cy="23" fill="#cc5e55" fill-rule="evenodd" r="8" stroke-width=".833333"/><path d="m23 19-.0882 1.0536a3.1429 3.1429 0 0 0 -.91852.53126l-.95759-.4509-1 1.7321.86941.6038a3.1429 3.1429 0 0 0 -.048.53013 3.1429 3.1429 0 0 0  .0457.53237l-.86719.60156 1 1.7321.95536-.44978a3.1429 3.1429 0 0 0  .92075.5279l.0882 1.0558h2l .0882-1.0536a3.1429 3.1429 0 0 0  .91854-.53126l.95758.4509 1-1.7321-.86942-.6038a3.1429 3.1429 0 0 0  .048-.53013 3.1429 3.1429 0 0 0 -.0457-.53237l.86719-.60156-1-1.7321-.95536.44978a3.1429 3.1429 0 0 0 -.921-.528l-.088-1.056h-2zm1 2.8572a1.1429 1.1429 0 0 1 1.143 1.143 1.1429 1.1429 0 0 1 -1.143 1.143 1.1429 1.1429 0 0 1 -1.143-1.143 1.1429 1.1429 0 0 1 1.143-1.143z" fill="#fff" stroke-width=".833333"/></g></svg>