<svg height="32" width="32" xmlns="http://www.w3.org/2000/svg"><g stroke-width=".7"><path d="m30.000001 6.9687498c-.05413-.578542-.119792-1.157197-.335937-1.669922-.281373-.6674538-.689503-1.2676278-1.19336-1.7714848s-1.10403-.911987-1.771484-1.193359c-.511546-.215648-1.088925-.279572-1.666016-.333984h-9.033204v14h14.000001z" fill="#21d789"/><path d="m6.964844 2c-.57709.05441-1.15447.118337-1.666016.333985-.667454.281372-1.267627.689502-1.771483 1.193359-.503857.503857-.911987 1.104031-1.193359 1.7714848-.215648.511545-.279573 1.088925-.333985 1.666015v9.0351562h13.999999v-14z" fill="#2086e7"/><path d="m25.035157 30c .577089-.05441 1.154471-.118337 1.666017-.333985.667454-.281372 1.267627-.689502 1.771483-1.193359.503857-.503857.911987-1.104031 1.193359-1.771485.215647-.511545.279573-1.088925.333985-1.666015v-9.035156h-14v14z" fill="#6655e4"/><path d="m2 25.03125c.05413.578542.119792 1.157197.335937 1.669922.281373.667454.689503 1.267628 1.19336 1.771485s1.10403.911987 1.771484 1.193359c.511546.215648 1.088926.279572 1.666017.333984h9.033203v-14h-14.000001z" fill="#21d789"/></g><rect fill="#3f3f3f" fill-rule="evenodd" height="21.423727" ry="4.234994" width="21.423727" x="5.288137" y="5.288137"/><g fill="none" stroke="#fff" stroke-linecap="round" transform="matrix(.89831036 0 0 .89831036 -8.71054 36.707098)"><path d="m21.47482-16.050847h7.999999" stroke-width="2"/><path d="m24.475223-25.050909h1.99987m-.999936 0s .490873 2.999811-1.999875 2.999811c-1.999871 0-1.999871-1.999875-1.999871-3.999751 0-1.999871 0-3.999747 1.999871-3.999747 1.999875 0 1.992253.999936 1.992253.999936" stroke-linejoin="bevel" stroke-width="1.999874"/><path d="m31.517702-30.05154c2.399528 0 1.999875 1.999876 1.999875 3.999747 0 1.999876.355556 4.060847-1.999875 3.999751-2.348439 0-1.999872-1.999875-1.999872-3.999751 0-1.999871-.435423-3.999747 1.999872-3.999747" stroke-linejoin="bevel" stroke-width="1.999874"/></g></svg>