<svg height="32" width="32" xmlns="http://www.w3.org/2000/svg"><g transform="translate(58.210937 6.841797)"><path d="m-50.736328-4.9433594c-3.088651 0-5.576172 2.485568-5.576172 5.57421878v17.05273462c0 .17325.08234.319153.09766.488281.03021-.321222.135254-.626601.353516-.841797.246527-.243064.587276-.394531.964844-.394531h1.302734c.377568 0 .718317.151467.964844.394531s.398437.579397.398437.951172v1.677734c0-.69554.290068-1.358249.808594-1.960937.518526-.602689 1.266967-1.145748 2.185547-1.601563.91858-.455814 2.006868-.82516 3.207031-1.080078s2.511726-.394531 3.875-.394531 2.674837.139613 3.875.394531 2.288451.624264 3.207031 1.080078c.918581.455815 1.667021.998874 2.185547 1.601563.517461.601451.805457 1.263054.806641 1.957031v-1.673828c0-.371775.152351-.708108.398437-.951172.24566-.242642.585856-.394011.962891-.394531h.002 1.302735c.377819 0 .718253.151467.964843.394531.171095.168648.21646.421119.277344.660156.0061-.10732.0625-.19774.0625-.30664v-17.05273462c0-3.08865078-2.485568-5.57421878-5.574219-5.57421878z" fill="#fecd38" fill-rule="evenodd"/><path d="m24.002 4c-7.384 0-13.371 5.8328-13.371 13.031 0 1.2664.19247 2.487.53906 3.6445 0 0-2.0468 7.2865-1.3867 10.883.19231 1.0477.5872 2.0562 1.1094 3.0059 2.034-2.741 7.26-4.561 13.107-4.565 5.8442.0017 11.071 1.8183 13.111 4.5566.52053-.94737.91546-1.9531 1.1074-2.998.66062-3.5962-1.3867-10.883-1.3867-10.883.34789-1.1576.53906-2.3782.53906-3.6445.001-7.1969-5.982-13.031-13.368-13.031z" fill="#4f4f4f" stroke-width=".992537" transform="matrix(.70526631 0 0 .70526207 -59.080654 -6.035145)"/><g fill="#fff"><circle cx="-47.19194" cy="3.838536" r="2.015038"/><circle cx="-37.116753" cy="3.838536" r="2.015038"/><ellipse cx="-42.154346" cy="14.417486" rx="7.052633" ry="7.757896"/></g><circle cx="-47.19194" cy="3.838536" fill="#303030" r="1.007519"/><circle cx="-37.116753" cy="3.838536" fill="#303030" r="1.007519"/><path d="m-44.169385 4.8460548h4.030076c-.323081 3.1049721-2.015038 6.0451142-2.015038 6.0451142s-2.015038-3.4897437-2.015038-6.0451142z" fill="#cd5252"/><path d="m-42.154347 10.891169a4.030076 4.030076 0 0 0 -4.030076 4.030076 4.030076 4.030076 0 0 0 4.030076 4.030076 4.030076 4.030076 0 0 0 4.030076-4.030076 4.030076 4.030076 0 0 0 -4.030076-4.030076zm0 1.61203a2.4180456 2.4180456 0 0 1 1.571126.580895l-1.570723.906767-1.569714-.905759a2.4180456 2.4180456 0 0 1 1.569714-.582346zm2.377141 1.975644a2.4180456 2.4180456 0 0 1  .04131.442301 2.4180456 2.4180456 0 0 1 -1.61203 2.2779v-1.813535l1.571125-.906767zm-4.752669.0016 1.569513.905155v1.811922a2.4180456 2.4180456 0 0 1 -1.61203-2.275985 2.4180456 2.4180456 0 0 1  .04232-.441293z" fill="#303030"/><ellipse cx="-33.873173" cy="-26.817554" fill="#4f4f4f" rx="2.503679" ry="4.42704" transform="matrix(.70175164 -.71242167 .86960968 .49373982 0 0)"/><ellipse cx="9.217595" cy="35.358669" fill="#4f4f4f" rx="2.503679" ry="4.42704" transform="matrix(-.70175164 -.71242167 -.86960968 .49373982 0 0)"/><g fill-rule="evenodd"><path d="m-32.080078 19.955078c-.0012-.693977-.28918-1.35558-.806641-1.957031-.518526-.602689-1.266966-1.145748-2.185547-1.601563-.91858-.455814-2.006868-.82516-3.207031-1.080078s-2.511726-.394531-3.875-.394531-2.674837.139613-3.875.394531-2.288451.624264-3.207031 1.080078c-.91858.455815-1.667021.998874-2.185547 1.601563-.518526.602688-.808594 1.265397-.808594 1.960937-.003 1.013745 0 1.944675 0 3 .485246.137051.963862.300782 1.494141.300782h17.052734c.569552 0 1.086729-.164979 1.603516-.322266v-1.970703s-.0059-.517951 0-1.003906z" fill="#f5432a"/><g fill="#fff"><path d="m-40.474609 18.615234c-.186048 0-.335938.299768-.335938.671875v1.341797c0 .372117.14988.671875.335938.671875.186049 0 .335937-.299768.335937-.671875v-1.341797c0-.371774-.149546-.671875-.335937-.671875z"/><path d="m-40.474609 18.615234c.186391 0 .335937.300101.335937.671875v1.341797c0 .372107-.149888.671875-.335937.671875-.186058 0-.335938-.299758-.335938-.671875v-1.341797c0-.372107.14989-.671875.335938-.671875z"/><path d="m-43.833984 18.615234c-.186391 0-.335938.300101-.335938.671875v1.341797c0 .372107.14989.671875.335938.671875.186059 0 .335937-.299758.335937-.671875v-1.341797c0-.372107-.149888-.671875-.335937-.671875z"/><path d="m-43.833984 18.615234c.186049 0 .335937.299768.335937.671875v1.341797c0 .372117-.149878.671875-.335937.671875-.186048 0-.335938-.299768-.335938-.671875v-1.341797c0-.371774.149547-.671875.335938-.671875z"/><path d="m-42.490234 17.943359c-.186059 0-.335938.449647-.335938 1.007813v2.015625c0 .558165.149889 1.007812.335938 1.007812.185383 0 .335937-.449647.335937-1.007812 0 .558165.150555 1.007812.335938 1.007812.186049 0 .335937-.449647.335937-1.007812v-2.015625c0-.558166-.149878-1.007813-.335937-1.007813-.186049 0-.335938.449647-.335938 1.007813 0-.558166-.149888-1.007813-.335937-1.007813z"/><path d="m-42.490234 17.943359c.186049 0 .335937.449647.335937 1.007813 0-.558166.149889-1.007813.335938-1.007813.186059 0 .335937.449647.335937 1.007813v2.015625c0 .558165-.149888 1.007812-.335937 1.007812-.185383 0-.335938-.449647-.335938-1.007812 0 .558165-.150554 1.007812-.335937 1.007812-.186049 0-.335938-.449647-.335938-1.007812v-2.015625c0-.558166.149879-1.007813.335938-1.007813z"/><path d="m-36.613281 18.144531a1.5112785 1.4105266 0 0 0 -.107422.0039 1.5112785 1.4105266 0 0 0 -.148438.01758 1.5112785 1.4105266 0 0 0 -.148437.03125 1.5112785 1.4105266 0 0 0 -.142578.04297 1.5112785 1.4105266 0 0 0 -.138672.05859 1.5112785 1.4105266 0 0 0 -.13086.07031 1.5112785 1.4105266 0 0 0 -.123046.08203 1.5112785 1.4105266 0 0 0 -.113282.09375 1.5112785 1.4105266 0 0 0 -.103515.101562 1.5112785 1.4105266 0 0 0 -.08984.113282 1.5112785 1.4105266 0 0 0 -.08008.11914 1.5112785 1.4105266 0 0 0 -.06641.126953 1.5112785 1.4105266 0 0 0 -.05078.132813 1.5112785 1.4105266 0 0 0 -.03711.136719 1.5112785 1.4105266 0 0 0 -.02344.138671 1.5112785 1.4105266 0 0 0 -.0078.142579 1.5112785 1.4105266 0 0 0  .0039.09961 1.5112785 1.4105266 0 0 0  .01953.138672 1.5112785 1.4105266 0 0 0  .0332.138672 1.5112785 1.4105266 0 0 0  .04687.132812 1.5112785 1.4105266 0 0 0  .0625.128906 1.5112785 1.4105266 0 0 0  .07422.123047 1.5112785 1.4105266 0 0 0  .08789.115235 1.5112785 1.4105266 0 0 0  .09961.105468 1.5112785 1.4105266 0 0 0  .111328.0957 1.5112785 1.4105266 0 0 0  .119141.08594 1.5112785 1.4105266 0 0 0  .128906.07227 1.5112785 1.4105266 0 0 0  .136719.0625 1.5112785 1.4105266 0 0 0  .140625.04883 1.5112785 1.4105266 0 0 0  .146485.0332 1.5112785 1.4105266 0 0 0  .15039.02148 1.5112785 1.4105266 0 0 0  .150391.0078 1.5112785 1.4105266 0 0 0  .107422-.0039 1.5112785 1.4105266 0 0 0  .15039-.01758 1.5112785 1.4105266 0 0 0  .146485-.03125 1.5112785 1.4105266 0 0 0  .144531-.04297 1.5112785 1.4105266 0 0 0  .136719-.05859 1.5112785 1.4105266 0 0 0  .130859-.07031 1.5112785 1.4105266 0 0 0  .123047-.08203 1.5112785 1.4105266 0 0 0  .113281-.0918 1.5112785 1.4105266 0 0 0  .103516-.103515 1.5112785 1.4105266 0 0 0  .0918-.113282 1.5112785 1.4105266 0 0 0  .07813-.11914 1.5112785 1.4105266 0 0 0  .06641-.126953 1.5112785 1.4105266 0 0 0  .05078-.132813 1.5112785 1.4105266 0 0 0  .03711-.136718 1.5112785 1.4105266 0 0 0  .02344-.138672 1.5112785 1.4105266 0 0 0  .0078-.140625 1.5112785 1.4105266 0 0 0 -.0039-.09961 1.5112785 1.4105266 0 0 0 -.01758-.140625 1.5112785 1.4105266 0 0 0 -.0332-.138672 1.5112785 1.4105266 0 0 0 -.04883-.132812 1.5112785 1.4105266 0 0 0 -.06055-.128906 1.5112785 1.4105266 0 0 0 -.07617-.123047 1.5112785 1.4105266 0 0 0 -.08789-.113281 1.5112785 1.4105266 0 0 0 -.09961-.107422 1.5112785 1.4105266 0 0 0 -.109375-.0957 1.5112785 1.4105266 0 0 0 -.121094-.08398 1.5112785 1.4105266 0 0 0 -.128906-.07422 1.5112785 1.4105266 0 0 0 -.136719-.0625 1.5112785 1.4105266 0 0 0 -.140625-.04687 1.5112785 1.4105266 0 0 0 -.146484-.03516 1.5112785 1.4105266 0 0 0 -.150391-.02148 1.5112785 1.4105266 0 0 0 -.15039-.0078z"/><path d="m-36.613281 18.144531a1.5112785 1.4105266 0 0 1  .15039.0078 1.5112785 1.4105266 0 0 1  .150391.02148 1.5112785 1.4105266 0 0 1  .146484.03516 1.5112785 1.4105266 0 0 1  .140625.04687 1.5112785 1.4105266 0 0 1  .136719.0625 1.5112785 1.4105266 0 0 1  .128906.07422 1.5112785 1.4105266 0 0 1  .121094.08398 1.5112785 1.4105266 0 0 1  .109375.0957 1.5112785 1.4105266 0 0 1  .09961.107422 1.5112785 1.4105266 0 0 1  .08789.113281 1.5112785 1.4105266 0 0 1  .07617.123047 1.5112785 1.4105266 0 0 1  .06055.128906 1.5112785 1.4105266 0 0 1  .04883.132812 1.5112785 1.4105266 0 0 1  .0332.138672 1.5112785 1.4105266 0 0 1  .01758.140625 1.5112785 1.4105266 0 0 1  .0039.09961 1.5112785 1.4105266 0 0 1 -.0078.140625 1.5112785 1.4105266 0 0 1 -.02344.138672 1.5112785 1.4105266 0 0 1 -.03711.136718 1.5112785 1.4105266 0 0 1 -.05078.132813 1.5112785 1.4105266 0 0 1 -.06641.126953 1.5112785 1.4105266 0 0 1 -.07813.11914 1.5112785 1.4105266 0 0 1 -.0918.113282 1.5112785 1.4105266 0 0 1 -.103516.103515 1.5112785 1.4105266 0 0 1 -.113281.0918 1.5112785 1.4105266 0 0 1 -.123047.08203 1.5112785 1.4105266 0 0 1 -.130859.07031 1.5112785 1.4105266 0 0 1 -.136719.05859 1.5112785 1.4105266 0 0 1 -.144531.04297 1.5112785 1.4105266 0 0 1 -.146485.03125 1.5112785 1.4105266 0 0 1 -.15039.01758 1.5112785 1.4105266 0 0 1 -.107422.0039 1.5112785 1.4105266 0 0 1 -.150391-.0078 1.5112785 1.4105266 0 0 1 -.15039-.02148 1.5112785 1.4105266 0 0 1 -.146485-.0332 1.5112785 1.4105266 0 0 1 -.140625-.04883 1.5112785 1.4105266 0 0 1 -.136719-.0625 1.5112785 1.4105266 0 0 1 -.128906-.07227 1.5112785 1.4105266 0 0 1 -.119141-.08594 1.5112785 1.4105266 0 0 1 -.111328-.0957 1.5112785 1.4105266 0 0 1 -.09961-.105468 1.5112785 1.4105266 0 0 1 -.08789-.115235 1.5112785 1.4105266 0 0 1 -.07422-.123047 1.5112785 1.4105266 0 0 1 -.0625-.128906 1.5112785 1.4105266 0 0 1 -.04687-.132812 1.5112785 1.4105266 0 0 1 -.0332-.138672 1.5112785 1.4105266 0 0 1 -.01953-.138672 1.5112785 1.4105266 0 0 1 -.0039-.09961 1.5112785 1.4105266 0 0 1  .0078-.142579 1.5112785 1.4105266 0 0 1  .02344-.138671 1.5112785 1.4105266 0 0 1  .03711-.136719 1.5112785 1.4105266 0 0 1  .05078-.132813 1.5112785 1.4105266 0 0 1  .06641-.126953 1.5112785 1.4105266 0 0 1  .08008-.11914 1.5112785 1.4105266 0 0 1  .08984-.113282 1.5112785 1.4105266 0 0 1  .103515-.101562 1.5112785 1.4105266 0 0 1  .113282-.09375 1.5112785 1.4105266 0 0 1  .123046-.08203 1.5112785 1.4105266 0 0 1  .13086-.07031 1.5112785 1.4105266 0 0 1  .138672-.05859 1.5112785 1.4105266 0 0 1  .142578-.04297 1.5112785 1.4105266 0 0 1  .148437-.03125 1.5112785 1.4105266 0 0 1  .148438-.01758 1.5112785 1.4105266 0 0 1  .107422-.0039z"/><path d="m-47.785533 18.381991a1.5112785 1.4105266 0 0 1  .15039.0078 1.5112785 1.4105266 0 0 1  .150391.02148 1.5112785 1.4105266 0 0 1  .146484.03516 1.5112785 1.4105266 0 0 1  .140625.04687 1.5112785 1.4105266 0 0 1  .136719.0625 1.5112785 1.4105266 0 0 1  .128906.07422 1.5112785 1.4105266 0 0 1  .121094.08398 1.5112785 1.4105266 0 0 1  .109375.0957 1.5112785 1.4105266 0 0 1  .09961.107422 1.5112785 1.4105266 0 0 1  .08789.113281 1.5112785 1.4105266 0 0 1  .07617.123047 1.5112785 1.4105266 0 0 1  .06055.128906 1.5112785 1.4105266 0 0 1  .04883.132812 1.5112785 1.4105266 0 0 1  .0332.138672 1.5112785 1.4105266 0 0 1  .01758.140625 1.5112785 1.4105266 0 0 1  .0039.09961 1.5112785 1.4105266 0 0 1 -.0078.140625 1.5112785 1.4105266 0 0 1 -.02344.138672 1.5112785 1.4105266 0 0 1 -.03711.136718 1.5112785 1.4105266 0 0 1 -.05078.132813 1.5112785 1.4105266 0 0 1 -.06641.126953 1.5112785 1.4105266 0 0 1 -.07813.11914 1.5112785 1.4105266 0 0 1 -.0918.113282 1.5112785 1.4105266 0 0 1 -.103516.103515 1.5112785 1.4105266 0 0 1 -.113281.0918 1.5112785 1.4105266 0 0 1 -.123047.08203 1.5112785 1.4105266 0 0 1 -.130859.07031 1.5112785 1.4105266 0 0 1 -.136719.05859 1.5112785 1.4105266 0 0 1 -.144531.04297 1.5112785 1.4105266 0 0 1 -.146485.03125 1.5112785 1.4105266 0 0 1 -.15039.01758 1.5112785 1.4105266 0 0 1 -.107422.0039 1.5112785 1.4105266 0 0 1 -.150391-.0078 1.5112785 1.4105266 0 0 1 -.15039-.02148 1.5112785 1.4105266 0 0 1 -.146485-.0332 1.5112785 1.4105266 0 0 1 -.140625-.04883 1.5112785 1.4105266 0 0 1 -.136719-.0625 1.5112785 1.4105266 0 0 1 -.128906-.07227 1.5112785 1.4105266 0 0 1 -.119141-.08594 1.5112785 1.4105266 0 0 1 -.111328-.0957 1.5112785 1.4105266 0 0 1 -.09961-.105468 1.5112785 1.4105266 0 0 1 -.08789-.115235 1.5112785 1.4105266 0 0 1 -.07422-.123047 1.5112785 1.4105266 0 0 1 -.0625-.128906 1.5112785 1.4105266 0 0 1 -.04687-.132812 1.5112785 1.4105266 0 0 1 -.0332-.138672 1.5112785 1.4105266 0 0 1 -.01953-.138672 1.5112785 1.4105266 0 0 1 -.0039-.09961 1.5112785 1.4105266 0 0 1  .0078-.142579 1.5112785 1.4105266 0 0 1  .02344-.138671 1.5112785 1.4105266 0 0 1  .03711-.136719 1.5112785 1.4105266 0 0 1  .05078-.132813 1.5112785 1.4105266 0 0 1  .06641-.126953 1.5112785 1.4105266 0 0 1  .08008-.11914 1.5112785 1.4105266 0 0 1  .08984-.113282 1.5112785 1.4105266 0 0 1  .103515-.101562 1.5112785 1.4105266 0 0 1  .113282-.09375 1.5112785 1.4105266 0 0 1  .123046-.08203 1.5112785 1.4105266 0 0 1  .13086-.07031 1.5112785 1.4105266 0 0 1  .138672-.05859 1.5112785 1.4105266 0 0 1  .142578-.04297 1.5112785 1.4105266 0 0 1  .148437-.03125 1.5112785 1.4105266 0 0 1  .148438-.01758 1.5112785 1.4105266 0 0 1  .107422-.0039z"/></g><path d="m-28.171875 17.990234c-.06088-.239037-.106249-.491508-.277344-.660156-.24659-.243064-.587024-.394531-.964843-.394531h-1.302735-.002c-.377035.00052-.717231.151889-.962891.394531-.246086.243064-.398437.579397-.398437.951172v4.65625c2.186912-.665601 3.773206-2.572027 3.908203-4.947266z" fill="#303030"/><path d="m-52.230469 22.958984v-4.677734c0-.371775-.15191-.708108-.398437-.951172s-.587276-.394531-.964844-.394531h-1.302734c-.377568 0-.718317.151467-.964844.394531-.218262.215196-.323302.520575-.353516.841797.210834 2.328381 1.801804 4.170675 3.984375 4.787109z" fill="#303030"/></g></g></svg>