<svg height="32" width="32" xmlns="http://www.w3.org/2000/svg"><rect fill="#ccc" fill-rule="evenodd" height="28.203388" ry="5.575182" width="28.203388" x="1.898306" y="1.898306"/><path d="m16 9.0279719c-2.62517 0-4.860829 1.6072851-5.823315 3.8820251-2.44369.363475-4.317817 2.446717-4.317817 4.991508 0 2.800431 2.270185 5.070523 5.070566 5.070523h10.774953c2.450466 0 4.436744-1.986564 4.436744-4.436534 0-2.277529-1.712468-4.143708-3.921852-4.397491-.5762-2.90687-3.142828-5.1100311-6.219279-5.1100311z" fill="#fff"/><path d="m16.930924 12.164889a.95082615.95082615 0 0 0 -.429562 1.773956s1.362962.690705 1.362962 3.037883c0 1.169296-.374631 1.882403-.731617 2.340927-.356986.458525-.635059.600397-.635059.600397a.95082615.95082615 0 1 0  .906166 1.671207s.654247-.364424 1.229265-1.102997c.575019-.738573 1.132707-1.913068 1.132707-3.509534 0-3.18435-2.290172-4.671952-2.290172-4.671952a.95082615.95082615 0 0 0 -.54469-.139887z" fill="#808080"/><path d="m13.123048 13.459766a.95082615.95082615 0 0 0 -.321862 1.840803s1.297203.511829 1.297352 1.702155c.000148 1.190108-1.254025 1.582076-1.254025 1.582076a.95088045.95088045 0 1 0  .606587 1.802428s2.549212-.886928 2.5489-3.384504c-.000312-2.497359-2.505573-3.472396-2.505573-3.472396a.95082615.95082615 0 0 0 -.371379-.07056z" fill="#808080"/></svg>