<svg height="24" viewBox="0 0 24 24" width="24" xmlns="http://www.w3.org/2000/svg"><path d="m10.84375 5.5c-2.1829295.0007582-4.1207383 1.2922346-5.0800781 3.1523438-2.1478409.7939031-3.7636719 2.7939302-3.7636719 5.2265622 0 3.139019 2.6704735 5.621094 5.734375 5.621094h8.53125c3.063901 0 5.734375-2.482075 5.734375-5.621094 0-3.139018-2.670474-5.6191404-5.734375-5.6191404-.0293-.0004291-.0586-.0004291-.08789 0-.01637.0004836-.03053.00914-.04687.00977-.165859-.0856175-.340468-.1259523-.515631-.1933637-1.423616-1.6556304-2.011166-2.5914446-4.769531-2.5761719h-.002z" opacity=".2"/><path d="m10.84375 5c-2.1829295.0007582-4.1207383 1.2922346-5.0800781 3.1523438-2.1478409.7939031-3.7636719 2.7939302-3.7636719 5.2265622 0 3.139019 2.6704735 5.621094 5.734375 5.621094h8.53125c3.063901 0 5.734375-2.482075 5.734375-5.621094 0-3.139018-2.670474-5.6191404-5.734375-5.6191404-.0293-.0004291-.0586-.0004291-.08789 0-.01637.0004836-.03053.00914-.04687.00977-.165859-.0856175-.340468-.1259523-.515631-.1933637-1.423616-1.6556304-2.011166-2.5914446-4.769531-2.5761719h-.002z" fill="#006680"/><path d="m10.8449 8.5c-1.5102 0-2.7344 1.1732-2.7344 2.6204.0021.0661.00707.13118.014663.1952-.12442-.02395-.25451-.04303-.39082-.05638-1.5102 0-2.7344 1.1732-2.7344 2.6204s1.2242 2.6204 2.7344 2.6204h8.5312c1.5102 0 2.7344-1.1732 2.7344-2.6204s-1.2242-2.6204-2.7344-2.6204c-.30122.0089-.582.06908-.839.17013-.38282-.46466-.97584-.76296-1.6416-.76296-.08463.0045-.16598.007-.24438.01375-.219-1.2374-1.343-2.1799-2.6961-2.1799z" opacity=".2"/><path d="m10.8449 8c-1.5102 0-2.7344 1.1732-2.7344 2.6204.0021.0661.00707.13118.014663.1952-.12442-.02395-.25451-.04303-.39082-.05638-1.5102 0-2.7344 1.1732-2.7344 2.6204s1.2242 2.6204 2.7344 2.6204h8.5312c1.5102 0 2.7344-1.1732 2.7344-2.6204s-1.2242-2.6204-2.7344-2.6204c-.30122.0089-.582.06908-.839.17013-.38282-.46466-.97584-.76296-1.6416-.76296-.08463.0045-.16598.007-.24438.01375-.219-1.2374-1.343-2.1799-2.6961-2.1799z" fill="#33b3bc"/><path d="m10.84375 5c-2.1829295.0007582-4.1207383 1.2922345-5.0800781 3.1523438-2.1478409.793903-3.7636719 2.7939302-3.7636719 5.2265622 0 .102376.010023.20182.015625.302735.0861598-2.341445 1.6596517-4.257367 3.7480469-5.0292972.9593398-1.8601093 2.8971486-3.1515856 5.0800781-3.1523438h.001953c2.758365-.0152727 3.345915.9205415 4.769531 2.5761719.175163.0674114.349766.1077419.515625.1933593.01634-.00063.030505-.009282.046875-.0097656.02929-.0004291.058591-.0004291.087891 0 2.981368 0 5.582316 2.3505064 5.720703 5.3691404.003831-.083567.013672-.165443.013672-.25 0-3.139018-2.670474-5.6191404-5.734375-5.6191404-.0293-.0004291-.058601-.0004291-.087891 0-.01637.0004836-.030535.0091356-.046875.0097656-.165859-.0856174-.340462-.1259479-.515625-.1933593-1.423616-1.6556304-2.011166-2.5914446-4.769531-2.5761719z" fill="#fff" opacity=".1"/></svg>