<svg height="24" width="24" xmlns="http://www.w3.org/2000/svg"><rect fill="#4f4f4f" height="20" rx="1" transform="matrix(0 -1 -1 0 0 0)" width="20" x="-22" y="-22"/><path d="m3 2c-.554 0-1 .446-1 1v .5c0-.554.446-1 1-1h18c .554 0 1 .446 1 1v-.5c0-.554-.446-1-1-1z" fill="#fff" opacity=".1"/><path d="m3 22.5c-.554 0-1-.446-1-1v-.5c0 .554.446 1 1 1h18c .554 0 1-.446 1-1v .5c0 .554-.446 1-1 1z" opacity=".2"/><rect height="4" opacity=".2" rx=".927" ry=".87" width="4" x="4" y="16.5"/><rect height="4" opacity=".2" rx=".927" ry=".87" width="4" x="4" y="10.5"/><rect height="4" opacity=".2" rx=".927" ry=".87" width="4" x="10" y="16.5"/><rect height="4" opacity=".2" rx=".927" ry=".87" width="4" x="10" y="10.5"/><g fill="#ff6363"><rect height="4" rx=".927" ry=".87" width="4" x="4" y="16"/><rect height="4" rx=".927" ry=".87" width="4" x="4" y="10"/><rect height="4" rx=".927" ry=".87" width="4" x="10" y="16"/><rect height="4" rx=".927" ry=".87" width="4" x="10" y="10"/></g></svg>