<svg height="24" width="24" xmlns="http://www.w3.org/2000/svg"><path d="m314.02 17.679c-36.879 0-70.09 14.37-93.344 40.599-23.26-26.229-56.47-40.599-93.35-40.599-70.322 0-127.33 59.675-127.33 133.29 0 19.779 3.338 38.813 9.184 56.989 0 0 5.301 16.4 9.997 25.428 53.671 115.43 201.49 190.28 201.49 190.28s147.82-74.852 201.49-190.28 6.925-15.38 9.997-25.428c5.582-18.26 9.184-37.21 9.184-56.989 0-73.615-57.008-133.29-127.33-133.29z" fill="#c2352a" transform="matrix(.045314 0 0 .049261 2.0001 1.12912)"/><path d="m15.539 4c-6.3732 0-11.539 5.8799-11.539 13.133 0 .183.0162.361.0215.543.2132-7.04 5.2798-12.676 11.518-12.676 3.341 0 6.353 1.4158 8.46 4 2.108-2.5842 5.119-4 8.461-4 6.233 0 11.297 5.628 11.518 12.66.005-.176.021-.349.021-.527 0-7.2531-5.166-13.133-11.54-13.133-3.342 0-6.353 1.4158-8.461 4-2.107-2.5842-5.119-4-8.461-4z" fill="#fff" opacity=".2" transform="matrix(.49999468 0 0 .49999915 .000212 .000058)"/><path d="m43.979 16.66c-.053 1.758-.351 3.453-.811 5.088-.278.99-.906 2.504-.906 2.504-4.865 11.372-18.262 18.748-18.262 18.748s-13.397-7.375-18.262-18.748c-.4253-.89-.906-2.504-.906-2.504-.4801-1.623-.7597-3.319-.8105-5.072-.0046.153-.0215.303-.0215.457 0 1.949.3022 3.824.832 5.615 0 0 .4807 1.614.9063 2.504 4.8647 11.373 18.262 18.748 18.262 18.748s13.397-7.376 18.262-18.748.628-1.514.906-2.504c.506-1.799.832-3.666.832-5.615 0-.16-.017-.315-.021-.473z" opacity=".2" transform="matrix(.49999468 0 0 .49999915 .000212 .500058)"/></svg>