<svg height="24" width="24" xmlns="http://www.w3.org/2000/svg"><rect height="20" opacity=".2" rx="6" transform="matrix(0 -1 -1 0 0 0)" width="20" x="-22.5" y="-22"/><rect fill="#c33131" height="20" rx="6" transform="matrix(0 -1 -1 0 0 0)" width="20" x="-22" y="-22"/><path d="m10.9756 5.5c-.2636 0-.4756.3312-.4756.7432v.9668a5.5 5.5 0 0 0 -1.1758.4921l-.6875-.6875c-.2913-.2913-.6759-.3748-.8623-.1884l-1.4482 1.4482c-.1864.1864-.1029.571.1884.8623l.6846.6836a5.5 5.5 0 0 0 -.4853 1.1797h-.9707c-.412 0-.7432.212-.7432.476v2.0488c0 .263.3312.475.7432.475h.9668a5.5 5.5 0 0 0  .49219 1.1758l-.6875.6875c-.2914.291-.3749.675-.1885.862l1.4482 1.4482c.1864.1864.571.10283.8623-.18848l.68359-.68457a5.5 5.5 0 0 0 1.1797.485v.9707c0 .412.212.743.4756.743h2.0488c.264 0 .476-.331.476-.743v-.9668a5.5 5.5 0 0 0 1.1758-.49219l.6875.6875c.29131.29131.6759.37488.8623.18848l1.4482-1.4482c.1864-.1864.10283-.571-.18848-.8623l-.68457-.68359a5.5 5.5 0 0 0  .485-1.18h.9707c.412 0 .743-.212.743-.476v-2.0488c0-.263-.331-.475-.743-.475h-.9668a5.5 5.5 0 0 0 -.492-1.1758l.6875-.6875c.291-.2913.374-.6759.188-.8623l-1.448-1.4482c-.187-.1864-.571-.1029-.863.1884l-.683.6846a5.5 5.5 0 0 0 -1.18-.4853v-.9707c0-.412-.212-.7432-.476-.7432h-2.0488zm1.0244 4a3 3 0 0 1 3 3 3 3 0 0 1 -3 3 3 3 0 0 1 -3-3 3 3 0 0 1 3-3z" opacity=".2"/><path d="m10.9756 5c-.2636 0-.4756.3312-.4756.7432v.9668a5.5 5.5 0 0 0 -1.1758.4921l-.6875-.6875c-.2913-.2913-.6759-.3748-.8623-.1884l-1.4482 1.4482c-.1864.1864-.1029.571.1884.8623l.6846.6836a5.5 5.5 0 0 0 -.4853 1.1797h-.9707c-.412 0-.7432.212-.7432.4756v2.0488c0 .264.3312.476.7432.476h.9668a5.5 5.5 0 0 0  .49219 1.1758l-.6875.6875c-.2914.291-.3749.675-.1885.862l1.4482 1.4482c.1864.1864.571.10283.8623-.18848l.68359-.68457a5.5 5.5 0 0 0 1.1797.485v.9707c0 .412.212.743.4756.743h2.0488c.264 0 .476-.331.476-.743v-.9668a5.5 5.5 0 0 0 1.1758-.49219l.6875.6875c.29131.29131.6759.37488.8623.18848l1.4482-1.4482c.1864-.1864.10283-.571-.18848-.8623l-.68457-.68359a5.5 5.5 0 0 0  .485-1.18h.9707c.412 0 .743-.212.743-.476v-2.0484c0-.2636-.331-.4756-.743-.4756h-.9668a5.5 5.5 0 0 0 -.492-1.1758l.6875-.6875c.291-.2913.374-.6759.188-.8623l-1.448-1.4482c-.187-.1864-.571-.1029-.863.1884l-.683.6846a5.5 5.5 0 0 0 -1.18-.4853v-.9707c0-.412-.212-.7432-.476-.7432h-2.0484zm1.0244 4a3 3 0 0 1 3 3 3 3 0 0 1 -3 3 3 3 0 0 1 -3-3 3 3 0 0 1 3-3z" fill="#ffaa56"/><path d="m8 2c-3.324 0-6 2.676-6 6v .5c0-3.324 2.676-6 6-6h8c3.324 0 6 2.676 6 6v-.5c0-3.324-2.676-6-6-6z" fill="#fff" opacity=".1"/></svg>