<svg height="24" width="24" xmlns="http://www.w3.org/2000/svg"><g transform="translate(1.0009 1)"><rect fill="#2095f2" height="20" rx="10" transform="matrix(0 -1 -1 0 0 0)" width="20" x="-21" y="-21"/><path d="m11 1c-2.258 0-4.3295.7499-6 2.0029.0015 5.5385 4.461 9.997 10 9.997 2.258 0 4.3295-.75 6-2.003-.002-5.5385-4.461-9.997-10-9.997z" fill="#fff" opacity=".2"/><path d="m11 1c-5.54 0-10 4.46-10 10 0 .084-.002.1665 0 .25.1322-5.423 4.544-9.75 10-9.75s9.868 4.327 10 9.75c.002-.0835 0-.166 0-.25 0-5.54-4.46-10-10-10z" fill="#fff" opacity=".2"/><path d="m1.0059 11.25c-.00205.0835-.00585.166-.00585.25 0 5.54 4.46 10 10 10s10-4.46 10-10c0-.084-.004-.1665-.006-.25-.132 5.423-4.538 9.75-9.994 9.75s-9.862-4.327-9.994-9.75z" opacity=".2"/><path d="m10 5.5c-.277 0-1.0173.2235-1 .5v7.5h-2l4 5 4-5h-2v-7.5c0-.277-.723-.5-1-.5z" opacity=".2"/><path d="m10 5c-.277 0-1.0173.2235-1 .5v7.5h-2l4 5 4-5h-2v-7.5c0-.277-.723-.5-1-.5z" fill="#fff"/></g></svg>