<svg height="24" viewBox="0 0 24 24" width="24" xmlns="http://www.w3.org/2000/svg"><path d="m12 2.5v9.5h-9.9746094a10 10 0 0 0 -.0253906.5 10 10 0 0 0 10 10 10 10 0 0 0 10-10 10 10 0 0 0 -10-10z" opacity=".2"/><path d="m11.5 2c-.828427 0-1.5.6715729-1.5 1.5s.671573 1.5 1.5 1.5c.216218 0 .341623-.0091793.5-.0136719v7.0136719h-7.0136719c.0044926-.158377.0136719-.283782.0136719-.5 0-.828427-.6715729-1.5-1.5-1.5s-1.5.671573-1.5 1.5c0 .216218.0091793.341623.0136719.5h-.0136719a10 10 0 0 0 10 10 10 10 0 0 0 10-10 10 10 0 0 0 -10-10v .0136719c-.158377-.0044926-.283782-.0136719-.5-.0136719z" fill="#4c91d9"/><circle cx="12" cy="12.5" opacity=".2" r="7"/><circle cx="12" cy="12" fill="#fff" r="7"/><path d="m11.5 2c-.828427 0-1.5.6715729-1.5 1.5 0 .085501.01165.1684069.02539.25.1194-.708974.731684-1.25 1.47461-1.25.216218 0 .341623.00918.5.013672v-.013672c5.439199.00415 9.877627 4.3549343 9.990234 9.792969.004687-.097603.007942-.19527.009766-.292969 0-5.5228475-4.477153-10-10-10v .013672c-.158377-.0044927-.283782-.013672-.5-.013672zm-8 8c-.8284271 0-1.5.671573-1.5 1.5 0 .170621.0071.276184.011719.394531.0550523-.778309.6959596-1.394531 1.488281-1.394531s1.4332287.616222 1.4882812 1.394531c.0046185-.118347.0117188-.22391.0117188-.394531 0-.828427-.6715729-1.5-1.5-1.5zm1.5 2c0 .216218-.00918.341623-.013672.5z" fill="#fff" opacity=".2"/></svg>