<svg height="24" width="24" xmlns="http://www.w3.org/2000/svg"><rect fill="#325f78" height="20" rx="1" transform="matrix(0 -1 -1 0 0 0)" width="16" x="-20" y="-22"/><path d="m-18-20h12v16h-12z" opacity=".2" transform="matrix(0 -1 -1 0 0 0)"/><path d="m3 4c-.554 0-1 .446-1 1v .5c0-.554.446-1 1-1h18c .554 0 1 .446 1 1v-.5c0-.554-.446-1-1-1z" fill="#fff" opacity=".1"/><path d="m4.5 15.5h2c .277 0 .5.223.5.5v2c0 .277-.223.5-.5.5h-2c-.277 0-.5-.223-.5-.5v-2c0-.277.223-.5.5-.5z" opacity=".2"/><path d="m8.5 15.5h2c .277 0 .5.223.5.5v2c0 .277-.223.5-.5.5h-2c-.277 0-.5-.223-.5-.5v-2c0-.277.223-.5.5-.5z" opacity=".2"/><path d="m12.5 15.5h2c .277 0 .5.223.5.5v2c0 .277-.223.5-.5.5h-2c-.277 0-.5-.223-.5-.5v-2c0-.277.223-.5.5-.5z" opacity=".2"/><path d="m16.5 15.5h2c .277 0 .5.223.5.5v2c0 .277-.223.5-.5.5h-2c-.277 0-.5-.223-.5-.5v-2c0-.277.223-.5.5-.5z" opacity=".2"/><g fill="#fff"><path d="m4.5 15h2c .277 0 .5.223.5.5v2c0 .277-.223.5-.5.5h-2c-.277 0-.5-.223-.5-.5v-2c0-.277.223-.5.5-.5z"/><path d="m8.5 15h2c .277 0 .5.223.5.5v2c0 .277-.223.5-.5.5h-2c-.277 0-.5-.223-.5-.5v-2c0-.277.223-.5.5-.5z"/><path d="m12.5 15h2c .277 0 .5.223.5.5v2c0 .277-.223.5-.5.5h-2c-.277 0-.5-.223-.5-.5v-2c0-.277.223-.5.5-.5z"/><path d="m16.5 15h2c .277 0 .5.223.5.5v2c0 .277-.223.5-.5.5h-2c-.277 0-.5-.223-.5-.5v-2c0-.277.223-.5.5-.5z"/></g><path d="m2 19v .5c0 .554.446 1 1 1h18c .554 0 1-.446 1-1v-.5c0 .554-.446 1-1 1h-18c-.554 0-1-.446-1-1z" opacity=".2"/></svg>