<svg height="24" width="24" xmlns="http://www.w3.org/2000/svg"><path d="m12 2h-9c-.554 0-1 .446-1 1v9h10z" fill="#cf4f8c"/><path d="m12 2h9c .554 0 1 .446 1 1v9h-10z" fill="#c72566"/><path d="m12 22h-9c-.554 0-1-.446-1-1v-9h10z" fill="#6655e4"/><path d="m12 22h9c .554 0 1-.446 1-1v-9h-10z" fill="#cf4f8c"/><path d="m3 2c-.554 0-1 .446-1 1v .5c0-.554.446-1 1-1h18c .554 0 1 .446 1 1v-.5c0-.554-.446-1-1-1z" fill="#fff" opacity=".2"/><path d="m3 22.5c-.554 0-1-.446-1-1v-.5c0 .554.446 1 1 1h18c .554 0 1-.446 1-1v .5c0 .554-.446 1-1 1z" opacity=".2"/><path d="m5 5h14v14h-14z" fill="#3f3f3f"/><g fill="none" stroke-linecap="round"><path d="m7.5071212 15.99995h3.9999998" opacity=".2" stroke="#000"/><path d="m7.5071212 15.5h3.9999998" stroke="#fff"/><path d="m7.5071212 11.99995s2.021891.175125 1.9999995-1.999999c-.02189-2.175132-1.9999995-2.0000015-1.9999995-2.0000015m-.00705 3.9967935v-3.999999" opacity=".2" stroke="#000" stroke-linejoin="bevel"/><path d="m7.5071212 11.5s2.021891.175125 1.9999995-1.999999c-.02189-2.175132-1.9999995-2.0000015-1.9999995-2.0000015m-.00705 3.9967935v-3.999999" stroke="#fff" stroke-linejoin="bevel"/><path d="m11.50712 7.99995h2m-.999999 4.000001v-4.000001" opacity=".2" stroke="#000"/><path d="m11.50712 7.5h2m-.999999 4.000001v-4.000001" stroke="#fff"/></g></svg>