<svg height="24" width="24" xmlns="http://www.w3.org/2000/svg"><rect height="21" opacity=".2" rx="1.05" transform="matrix(0 -1 -1 0 0 0)" width="21" x="-22.5" y="-22"/><rect fill="#4f4f4f" height="21" rx="1.05" transform="matrix(0 -1 -1 0 0 0)" width="21" x="-22" y="-22"/><path d="m3 6.5v2 2 2 5h2v-5h3v-2h-3v-2h3v-2h-3zm6 0v11h2 3v-2h-3v-3h3v-2h-3v-2h3v-2h-3zm6 0v11h2v-5h1v5h2v-5-2-4h-2v4h-1v-4z" opacity=".2"/><g fill="#df4545"><path d="m3 6h2v11h-2z"/><path d="m6-8h2v5h-2z" transform="rotate(90)"/><path d="m10-8h2v5h-2z" transform="rotate(90)"/><path d="m9 6h2v11h-2z"/><path d="m6-14h2v5h-2z" transform="rotate(90)"/><path d="m10-14h2v5h-2z" transform="rotate(90)"/><path d="m15 6h2v11h-2z"/><path d="m10-20h2v5h-2z" transform="rotate(90)"/><path d="m15-14h2v5h-2z" transform="rotate(90)"/><path d="m18 6h2v11h-2z"/></g><path d="m2.0507812 1c-.5816999 0-1.0507812.4690813-1.0507812 1.0507812v.5c0-.5816999.4690813-1.0507812 1.0507812-1.0507812h18.8984378c.5817 0 1.050781.4690813 1.050781 1.0507812v-.5c0-.5816999-.469081-1.0507812-1.050781-1.0507812z" fill="#fff" opacity=".1"/><path d="m3 6v .5h2 3v-.5h-3zm6 0v .5h2 3v-.5h-3zm6 0v .5h2v-.5zm3 0v .5h2v-.5zm-13 4v .5h3v-.5zm6 0v .5h3v-.5zm6 0v .5h1v-.5zm-6 5v .5h3v-.5z" fill="#fff" opacity=".1"/></svg>