<svg height="24" width="24" xmlns="http://www.w3.org/2000/svg"><g transform="translate(1 1)"><path d="m11 1c-5.54 0-10 4.46-10 10 0 .68528.068154 1.3542.19824 2h19.604c.13-.646.198-1.315.198-2 0-5.54-4.46-10-10-10zm-9.8008 12.004c.010426.05166.026871.10098.038086.15234-.011214-.05135-.027661-.10069-.038086-.15234zm19.602 0c-.01043.05165-.02687.10099-.03809.15234.01121-.05136.02766-.10069.03809-.15234zm-19.369.91c.031119.10296.069208.2022.10352.30371-.034279-.10142-.07242-.20084-.10352-.30371zm19.137 0c-.03109.10287-.06924.20229-.10352.30371.03431-.10151.0724-.20075.10352-.30371zm-18.825.877c.045316.11107.095386.21912.14453.32812-.04906-.10883-.099288-.21724-.14453-.32812zm18.512 0c-.04524.11089-.09547.21929-.14453.32812.04914-.10901.09922-.21706.14453-.32812zm-18.127.828c.05758.11078.11716.21985.17871.32812-.06151-.10821-.12117-.21742-.17871-.32812zm17.742 0c-.05754.1107-.1172.21992-.17871.32812.06156-.10828.12113-.21735.17871-.32812zm-17.275.803c.065513.10161.13114.20274.2002.30176-.069013-.09896-.13472-.20021-.2002-.30176zm16.809 0c-.06547.10155-.13118.2028-.2002.30176.06906-.09901.13468-.20015.2002-.30176zm-16.271.753c.070597.08995.1393.18114.21289.26856-.0735-.088-.1424-.179-.2129-.269zm15.732 0c-.07054.08987-.13937.18122-.21289.26856.07359-.08741.14229-.17861.21289-.26856zm-15.084.748c.058245.06073.1131.12436.17285.18359-.059683-.05917-.11468-.12294-.17285-.18359zm14.436 0c-.05818.06066-.11317.12442-.17285.18359.05975-.05924.11461-.12286.17285-.18359zm-12.868 1.336c.089532.06123.18378.11547.27539.17383-.091615-.05835-.18585-.1126-.27539-.17383zm11.301 0c-.08954.06123-.18378.11547-.27539.17383.09161-.05836.18586-.1126.27539-.17383zm-10.527.476c.1051.059.213.112.3203.167-.1072-.054-.2153-.108-.3203-.167zm9.752 0c-.10495.0585-.21306.11221-.32031.16699.10737-.05485.21525-.10842.32031-.16699zm-8.9209.41211c.1105.04872.22238.09388.33496.13867-.11246-.04474-.22458-.09002-.33496-.13867zm8.0898 0c-.11038.04866-.22251.09393-.33496.13867.11258-.0448.22446-.08996.33496-.13867zm-7.2275.33105c.12162.04059.2435.07922.36719.11524-.1236-.035-.2459-.074-.3673-.114zm6.3652 0c-.12144.04053-.24369.07927-.36719.11524.12368-.03601.24556-.07464.36719-.11524zm-5.4658.25195c.14712.03417.29281.07101.44238.09863-.14954-.02762-.29529-.06448-.44238-.09863zm4.5664 0c-.14709.03416-.29284.07101-.44238.09863.14958-.02763.29526-.06447.44238-.09863zm-3.9912.12207c.25338.04328.5099.07858.76953.10254-.25982-.02397-.51597-.05923-.76953-.10254zm3.416 0c-.25356.04331-.50972.07857-.76953.10254.25963-.02397.51615-.05926.76953-.10254zm-2.543.111c.275.022.553.037.834.037-.281 0-.559-.015-.834-.037zm.834.037c.28125 0 .55875-.01457.83398-.03711-.275.022-.553.037-.834.037z" fill="#ffc567"/><path d="m1.1982 13c .9216 4.575 4.9471 8 9.8018 8s8.8802-3.4247 9.8018-8h-19.604z" fill="#4a78c9"/><path d="m11 1c-5.54 0-10 4.46-10 10 0 .084.004.166.0058.25.1324-5.423 4.5382-9.75 9.9942-9.75 5.4558 0 9.862 4.327 9.994 9.75.002-.08343.0059-.16606.0059-.25 0-5.54-4.46-10-10-10z" fill="#fff" opacity=".2"/><path d="m1.0058 11.25c-.002.084-.0058.166-.0058.25 0 5.54 4.46 10 10 10s10-4.46 10-10c0-.084-.004-.1665-.006-.25-.132 5.423-4.538 9.75-9.994 9.75s-9.862-4.327-9.994-9.75z" opacity=".2"/><circle cx="15" cy="7.5" opacity=".2" r="3"/><circle cx="15" cy="7" fill="#ff7e30" r="3"/></g></svg>