<svg height="24" width="24" xmlns="http://www.w3.org/2000/svg"><g fill-rule="evenodd" transform="translate(1 1)"><path d="m15.655 1.5008c-.0165.0046-.031.01355-.047.018551-.086.37091-.22751.81967-.33601.95998-.0605.078302-.177-.027201-.23951.049801-.105.1307.0395.39346-.035.54492-.0685.1392-.32601.037101-.37501.18461-.0365.1106-.046.37186.044.44531.0905-.062502.27451-.0149.33101-.1299.0745-.15145-.07-.41421.035-.54492.0625-.077002.179.028501.23951-.049801.1925-.24926.51201-1.5157.38301-1.4785zm1.3495 1.3633c-.034.44916-.137.91393-.24601 1.2276-.112.32071-.51401.71772-.88102 1.0302.0025.16-.0065.32801-.0215.49901-.67952.44001-1.731.95503-2.5606.67002-.23101-.079002-.53802-.122-.87302-.1405l-.0225-.58602c-.034.1365-.0455.23001-.011.21651l.0335.86952c.33501.018501.64202.061502.87302.1405.82952.28501 1.8811-.23001 2.5606-.67002.015-.171.024-.33901.0215-.49901.367-.3124.769-.7095.881-1.03.152-.435.287-1.1561.246-1.7278z" opacity=".2"/><path d="m15.655 1.0008c-2.1526.61827-3.4971 4.3686-3.2661 4.2801l.0335.86952c.33501.018501.64202.061502.87302.1405.82952.28501 1.8811-.23001 2.5606-.67002.015-.171.024-.33901.0215-.49901.36701-.31251.76902-.70952.88102-1.03.22001-.63267.41801-1.8789.066-2.3743-.177-.24976-.43251.80087-.44001.88677-.014.1575-.39151-.16445-.50902-.061552-.21851.19146-.0085.61797-.0945.60647-.113-.015-.15-.21706-.26201-.19826-.29651.25131-.46501.55602-.59452.85357-.083-.022951-.165-.047701-.24251-.081052-.1115-.048251-.0985-.34676-.0595-.46486.049-.1475.30651-.045451.37501-.18461.0745-.15145-.07-.41421.035-.54492.0625-.077002.179.028501.23951-.049801.1925-.24926.51201-1.5157.38301-1.4785z" fill="#1eceec"/><path d="m18.91 3.6698c-.21301.75262-.48201 1.2456-.79752 1.5616.0445-.19151.0425-.40251-.016-.63602l-.92153 1.005c.06-.171.097-.35251.0545-.56552l-.881.761c.144-.187.221-.4075.201-.6985.013.0245-1.912 1.6536-3.253 1.1936-1.117-.3836-3.7694-.1061-4.9444 1.325-3.5696.36-6.6092 3.672-6.3332 6.209.28801 2.6446 2.8536 4.2651 3.4701 4.4261.147.0475.28151.0685.40901.076.152 1.0335.82002 2.1471 1.6415 2.5921.71802.38851 2.6026-.75302 2.6026-.75302-1.237-.73802-2.0191-1.4605-2.6026-2.1971.92053-.0615 2.2381.27801 3.4711.53302.1585-.0115-.0145-1.7495-1.5805-2.2286-.80902-.24751-2.3336-.38401-3.1006.37501-.27901-.66052-.51201-1.7946.057502-2.5411.59302-.77652 2.4986-1.351 3.3546-1.427.080502.0355.158.0785.23951.1085 2.8341.92353 9.8953-4.5291 8.9308-9.1193z" fill="#1888b7"/><path d="m18.988 4.8009c-.23701 4.3021-6.4042 8.8367-9.0083 7.9882-.081502-.03-.159-.073-.23951-.1085-.85602.076-2.7616.65052-3.3546 1.427-.30801.40401-.37751.92053-.33551 1.415.032501-.32801.131-.64702.33551-.91503.59302-.77652 2.4986-1.351 3.3546-1.427.080502.0355.158.0785.23951.1085 2.7056.88152 9.2568-4.0466 9.0083-8.4882zm-.874.417c-.001.004 0 .009-.001.0135.001-.001.0015-.003.0025-.004-.0005-.0035-.001-.0065-.0015-.0095zm-.88402.31701-.049.042001c-.0025.0075-.003.016-.0055.023501l.0555-.060502c-.0005-.0015-.0005-.003-.001-.005zm-.68152.062502c.0015.003-.1035.085502-.1585.132-.0145.022001-.0265.045001-.043.066502l.2015-.17301c-.0005-.009.0005-.0165 0-.025501zm-14.533 8.1496c-.01495.1955-.018551.38951.002.57802.28791 2.6446 2.8535 4.2651 3.47 4.4261.147.0475.28151.0685.40901.076.152 1.0335.82002 2.1471 1.6415 2.5921.71802.38851 2.6026-.75302 2.6026-.75302-.153-.0915-.27901-.1815-.41901-.27251-.59302.31051-1.673.80152-2.1836.52552-.82152-.44501-1.4895-1.5585-1.6415-2.5921-.1275-.0075-.26201-.0285-.40901-.076-.61652-.161-3.1821-1.7816-3.47-4.4261-.0028-.0255.00015-.052-.002-.078zm5.8862 4.2171c-.1265-.004-.24851-.003-.36351.005.1325.167.27901.33351.43451.50001.87552.0395 1.9856.31551 3.0366.53302.0535-.004.063-.21451-.001-.50001-1.0783-.223-2.2209-.511-3.1064-.538z" opacity=".2"/><path d="m10.722 13.3c-.01527.03095-.49675-.23952-.66817-.29967-.19494-.06839-.46156.43022-.33957.59937.17389.24108.71927.29889.69012.32187l.31766-.62152z" fill="#1888b7" stroke="#000" stroke-width=".087"/><path d="m18.91 3.6698c-.21201.75012-.48051 1.2411-.79502 1.5576.0295.18051.033.35001-.0025.50401.31551-.31601.58452-.80902.79752-1.5615.044.20851.0655.41951.0775.63102.0205-.38001.001-.75852-.0775-1.1311zm-.81352.92563-.86602.94453c.041.21051.004.39051-.0555.56052l.923-1.005c.011.043001.01.081002.017.1225.0415-.18851.0405-.39401-.017-.62252zm-.866.4395-.682.588c.0135.27751-.0615.49201-.2015.67302l.83402-.71902c.0555-.1645.0895-.33851.049-.54202zm-.68152.062502c.013.0245-1.912 1.6536-3.253 1.1936-1.117-.3836-3.7694-.1061-4.9444 1.325-3.5336.3565-6.5427 3.604-6.3352 6.131.1869-2.436 3.0311-5.298 6.3352-5.631 1.175-1.431 3.8274-1.7085 4.9444-1.325 1.172.4025 2.715-.7386 3.095-1.0616.114-.173.176-.374.158-.632zm-10.498 10.426c-.058502.58552.099503 1.203.27801 1.626.76702-.75902 2.2916-.62252 3.1006-.37501 1.0335.31601 1.453 1.174 1.5785 1.7285h.002c.1585-.0115-.0145-1.7495-1.5805-2.2286-.8089-.247-2.3334-.383-3.1004.376-.128-.303-.2425-.707-.278-1.126zm1.8516 2.9416c-.1265-.004-.24851-.003-.36351.005.51101.64502 1.1945 1.28 2.1826 1.9236.24151-.1265.42001-.22651.42001-.22651-.95603-.57052-1.637-1.1315-2.1681-1.697-.023001-.0015-.048001-.0045-.071002-.005z" fill="#fff" opacity=".2"/><path d="m11.451 10.86c-.21063.0025-.46315.06839-.73287.21946-.39913.22356-1.0113 1.8047-1.2164 2.3344-.83342.72342-.90013 2.3884-.43671 3.2154 1.7989 3.2101 6.7317 5.1216 8.1137 3.4777-.29293-.45365-.80862-.51996-1.4777-.98428-.14296.02635-.26674.08264-.35929.18728l-.363-.61487c-.13968.02165-.2554-.18118-.39261.05839-.25989-.18791-.24514-.25808-.19581-.40694.04402-.11218.0987-.2005.15504-.28658.39172.12916.80907.27247 1.0814.38251.15564.06289.02956-.4519.1966-.46533.23238-.0187.28446.58157.51706.59702.20022.0133.28565-.58692.46199-.48995.26654.14659 1.2827 1.0096 1.2127.57277-.15285-.95423-1.3572-2.0192-2.0787-2.4309-.3639-.20766-1.0639-.3066-1.6263-.3553-.63352-.88908-1.6764-1.9435-2.494-2.3938-.04564-.02515-.08898-.04545-.13348-.06812.22891-.65447.61397-1.6857.31988-2.2871-.07942-.16244-.28095-.26476-.55177-.26176z" fill="#1eceec"/><circle cx="12" cy="8.5" opacity=".2" r="1"/><circle cx="12" cy="8" fill="#fff" r="1"/><path d="m11.45 10.86c-.21051.0025-.46251.0685-.73202.21951-.39951.22351-1.012 1.8046-1.217 2.3341-.55552.48251-.76402 1.38-.70802 2.1721.047001-.64552.26751-1.2895.70802-1.672.20501-.52952.81752-2.1106 1.217-2.3341.26951-.151.52151-.21701.73202-.21951.27101-.003.47251.099.55202.26151.0475.097.072.20751.088.32351.0375-.30701.023-.59602-.088-.82352-.0795-.1625-.28101-.26451-.55202-.26151zm.37801 2.6241c-.05.149-.101.29801-.1455.42451.0445.023.0885.0435.134.0685.81752.45051 1.8596 1.5045 2.4931 2.3936.56252.049 1.263.148 1.627.35551.62552.35701 1.611 1.204 1.9631 2.0451.084.018.132-.0085.115-.1145-.1525-.95403-1.3565-2.0186-2.0781-2.4306-.36401-.20751-1.0645-.30651-1.627-.35551-.63052-.88502-1.6655-1.9331-2.4816-2.3866zm2.9496 5.1581c-.0625-.0165-.1245-.006-.19151.1115-.0445-.032-.071-.057-.1005-.083-.033.056-.069.1065-.096.1755-.049.149-.0635.21951.1965.40751.137-.23951.25301-.037.39251-.0585l.36351.61402c.0925-.1045.21601-.16.35901-.1865.50801.35251.92603.47601 1.2265.71302.0925-.0675.178-.1415.25101-.22851-.29251-.45351-.80852-.52001-1.4775-.98453-.143.0265-.26651.082-.35901.1865l-.35001-.59052c-.0375-.0135-.0675-.025-.1065-.0385-.02-.007-.0405-.013-.0605-.0215-.017-.0055-.03-.0105-.0475-.0165z" fill="#fff" opacity=".2"/><path d="m12.09 11.945c-.0625.50402-.26501 1.0565-.40751 1.4635.0445.023.0885.0435.134.0685.0035.002.008.005.0115.007.1665-.49701.32451-1.075.26201-1.539zm-3.2969 3.64c-.042001.57602.053001 1.153.27151 1.543 1.7991 3.2101 6.7322 5.1221 8.1142 3.4786-.0705-.1095-.155-.196-.25101-.27151-1.647 1.207-6.16-.667-7.8634-3.707-.1545-.276-.2435-.647-.2715-1.043zm7.0302 2.3916c-.167.0135-.0405.52801-.19601.46501-.27251-.11-.69052-.25301-1.082-.38201-.0565.086-.1115.174-.1555.28601-.041.1235-.048.19701.096.32451.0205-.035.0375-.0775.0595-.1105.084.028.1475.0535.23251.082.0155.0045.032.01.0475.0165.022.0075.039.014.0605.0215.0305.011.061.02.093.015l.0135.0235c.22551.0775.47501.159.63502.22351.1555.063.029-.45151.19601-.46501.23251-.0185.28401.58152.51701.59652.20001.0135.28551-.58702.46201-.49001.26651.1465 1.2825 1.01 1.2125.57302-.02-.127-.061-.25601-.115-.38551-.26351-.0555-.89552-.57652-1.0975-.68752-.1765-.097-.26201.50351-.46201.49001-.23301-.015-.28451-.61502-.51701-.59652z" opacity=".2"/><path d="m15.655 1.0008c-2.1526.61827-3.4971 4.3686-3.2661 4.2801l.011.28551c.188-.76252 1.4035-3.4862 3.2071-4.0471.067-.28831.1045-.53482.048-.51856zm1.1005.67967c-.168.034851-.36451.84872-.37101.92388-.014.1575-.39151-.16445-.50902-.061552-.21851.19146-.0085.61797-.0945.60647-.113-.015-.15-.21706-.26201-.19826-.29651.25131-.46501.55602-.59452.85357-.083-.022951-.165-.047701-.24251-.081052-.007-.0031-.0095-.01455-.0155-.01955-.019.01315-.0355.029101-.044.054701-.039.1181-.052.41671.0595.46471.0775.033501.1595.058002.24251.081002.1295-.29751.29801-.60207.59452-.85337.112-.018801.149.18326.26201.19826.086.0115-.124-.41501.0945-.60647.1175-.1029.49501.21906.50902.061552.0075-.085902.26301-1.1365.44001-.88677.11.15485.1615.38676.18.64652.0345-.45636-.0025-.89678-.18-1.1465-.022-.031201-.045-.042051-.069-.037101z" fill="#fff" opacity=".2"/></g></svg>