<svg height="24" width="24" xmlns="http://www.w3.org/2000/svg"><g transform="translate(1 1)"><rect fill="#d2d2d2" height="20" rx="1" transform="matrix(0 -1 -1 0 0 0)" width="20" x="-21" y="-21"/><path d="m2 1c-.554 0-1 .446-1 1v .5c0-.554.446-1 1-1h18c .554 0 1 .446 1 1v-.5c0-.554-.446-1-1-1z" fill="#fff" opacity=".2"/><path d="m2 21.5c-.554 0-1-.446-1-1v-.5c0 .554.446 1 1 1h18c .554 0 1-.446 1-1v .5c0 .554-.446 1-1 1z" opacity=".2"/><g stroke="#4d4d4d" stroke-linecap="round" stroke-linejoin="round" transform="translate(-.5 -1)"><g fill="none"><g stroke-width=".519"><path d="m5.763 5.695 2.746.01667 1.5496 1.563v4.168" display="block"/><path d="m12.312 11.443v-4.168l-1.5496-1.563" display="block"/><path d="m14.191 11.443v-4.168l-1.5496-1.563" display="block"/><path d="m16.258 11.443v-5.731" display="block"/></g><g stroke-width="1.038"><path d="m10.058 11.443v1.042" display="block"/><path d="m12.125 11.443v1.042" display="block"/><path d="m14.191 11.443v1.042" display="block"/><path d="m16.258 11.443v1.042" display="block"/><path d="m16.258 15.09v1.042" display="block"/><path d="m14.191 15.09v1.042" display="block"/><path d="m12.125 15.09v1.042" display="block"/><path d="m10.058 15.09v1.042" display="block"/></g><g stroke-width=".519"><path d="m10.058 16.132v1.563l-1.0331 1.042h-3.0993" display="block"/><path d="m12.26 16.132v2.605" display="block"/><path d="m14.191 16.132v1.563l1.0331 1.042h3.0993" display="block"/><path d="m16.258 16.132 1.0331 1.042h1.0331" display="block"/></g></g><path d="m4.7739 6.774h2.3014l1.1508 1.043v9.3875l-.57535.52155h-2.8768v-10.952z" display="block" fill="#4d4d4d" stroke-width=".548"/><rect display="block" fill="none" height="6.773" ry="1.057" stroke-width=".519" width="8.265" x="9.03" y="10.4"/></g><circle cx="16" cy="16" fill="#c03630" r="6"/><path d="m16 14c-.7754.0076-1.556.18472-2.2314.5675-.2692.17535-.5924.40183-.83595.63-.38324.37529-.71125.81315-.9326 1.303.60745 1.34 1.943 2.3222 3.4121 2.4673.9637.10908 1.9722-.05744 2.8194-.5343.2692-.17535.5924-.40183.83595-.63.38325-.3753.71125-.8132.9326-1.303-.6075-1.34-1.9429-2.3224-3.4121-2.4673-.19494-.02275-.39164-.03325-.5879-.03325zm0 1.0002c.8035-.0178 1.5152.70105 1.5 1.5004.02575.8834-.8545 1.6458-1.7246 1.4808-.8788-.10318-1.496-1.0891-1.207-1.9242.18458-.6148.7879-1.0645 1.4316-1.0569zm0 1.0002a.5.5001 0 0 0 -.5.5001.5.5001 0 0 0  .5.5001.5.5001 0 0 0  .5-.5001.5.5001 0 0 0 -.5-.5001z" fill="#fff" fill-rule="evenodd"/></g></svg>