<svg height="24" width="24" xmlns="http://www.w3.org/2000/svg"><rect height="8.986" opacity=".2" rx="4.498" ry="4.493" transform="matrix(0 -1 -1 0 0 0)" width="8.995" x="-16.99" y="-16.48"/><path d="m3.3478 17.021c1.7514 3.037 4.8367 4.794 8.0782 4.979 3.4563-1.9071 5.2884-4.3315 4.3936-7.6245-.37892.61782-.90432 1.1538-1.578 1.5431-1.0705.61867-2.0616-.03158-3.1649-.32134-1.1189-.293-2.3466-.238-2.9732-1.325l-4.4624-7.736c-2.0082 3.0544-2.2514 7.091-.294 10.485z" fill="#f66f6f"/><path d="m11.985 2c-5.5318 0-9.985 4.4576-9.985 9.995 0 .08396.00379.16641.00584.24987.1319-5.4206 4.5312-9.7448 9.9788-9.7448 5.4475 0 9.847 4.3242 9.9788 9.7448.002-.08338.0059-.16598.0059-.24987 0-5.5374-4.453-9.995-9.985-9.995z" fill="#fff" opacity=".2"/><path d="m2.0058 12.255c-.00205.08346-.00584.16591-.00584.24987 0 5.5371 4.4532 9.9947 9.9848 9.9947s9.9848-4.4576 9.9848-9.9947c0-.08396-.004-.16641-.006-.24987-.1318 5.4201-4.5311 9.7448-9.9788 9.7448s-9.847-4.3247-9.9788-9.7448z" opacity=".2"/><path d="m12.126953 2.0097656c-.20693-.00292-.412426-.0001563-.619141.00977-1.7310578.086359-3.4379584.6676671-4.9199214 1.5742188-.00111.0006783-.0028.00127-.00391.00195l-.00195.00195c-.2180621.1426894-.4304638.2938465-.6367181.4531268-.233767.1790616-.4595031.368205-.6757813.5664063-.0426382.0373997-.0849574.0751615-.1269531.1132813-.8095147.767599-1.4889569 1.6643793-2.0039062 2.6601562l4.5703125 7.177734c-.3720329-.621399-.1798089-1.605419-.2128906-2.382812-.0564879-1.329362 1.1124284-1.94437 1.9902343-2.8046876.7647039-.7495155 2.5636449-1.7774177 2.2396719-2.3808594h8.918531c-.210921-.3686989-.445119-.7235845-.701172-1.0625-.033802-.0415252-.067095-.0840231-.101562-.125-.195838-.2491227-.402971-.48798-.621094-.7167969-.097267-.1009429-.197394-.2001176-.298828-.296875l-.01563-.015625c-.0063-.00607-.01318-.01153-.01953-.017578-.180889-.1723426-.369233-.3356088-.562496-.4941407-.058169-.0496764-.118446-.0962057-.177735-.1445313-.08868-.069876-.178536-.1382452-.269531-.2050781-.221614-.1615875-.452638-.3119179-.6875-.4550781-.076175-.0485649-.153006-.0960953-.230469-.1425781-.110941-.0599917-.222801-.120026-.335937-.1757813-.218889-.1144142-.439979-.2240496-.667969-.3222656-.120926-.0522165-.242343-.101043-.365234-.1484375-.055159-.0206709-.1105-.040854-.166016-.0605469-.268446-.0976372-.541669-.1850463-.820312-.2597656l-.01172-.00391c-.144976-.0403931-.290847-.0775119-.437499-.1113244-.172184-.0370467-.345639-.0678021-.519531-.0957031-.153094-.0263637-.306782-.0491563-.460938-.0683594-.16287-.0188808-.326643-.032119-.490234-.0429688-.126818-.0089308-.253794-.0154424-.38086-.0195312-.05859-.00173-.116845-.00518-.175781-.00586z" fill="#e64646"/><path d="m20.644531 6.9980469-8.509765.00391c.72399.01959 1.4513.7102994 2.125 1.0996094 1.152.6658 1.044028 1.9811937 1.298828 3.1835937.22201 1.0475 1.502985 1.763734.923515 2.768334l-5.034843 7.919166c.05727.0031.114562.0057.171875.0078.378591.01539.757311.01587 1.132812-.01172.08672-.0093.173317-.0197.259766-.03125.315309-.03154.629317-.07743.939453-.138672.144583-.02936.288498-.06192.43164-.09766.2513-.06135.498318-.136073.744141-.216797.146269-.04484.291489-.09303.435547-.144531.345071-.131252.684117-.281713 1.013672-.451172.138564-.07553.275321-.154327.410156-.236328.214017-.123288.425626-.250964.63086-.390625.135121-.09178.267974-.186865.398437-.285157.252881-.191092.496691-.394557.732422-.611328.06984-.05959.138858-.120146.207031-.18164.0036-.0035.0081-.0062.01172-.0098.01241-.01299.02477-.02601.03711-.03906.193649-.192193.379351-.39223.556641-.59961.05444-.0633.109052-.126486.162109-.191406.138482-.169422.271367-.343344.398438-.521484.08222-.115166.162235-.231996.240234-.351563.113524-.173035.221649-.349552.324219-.529297.856184-1.506974 1.282063-3.259107 1.3125-4.996094.000023-.0013-.000023-.0026 0-.0039.0039-.225455-.01613-.447553-.02539-.671875-.11449-1.5058485-.568558-2.9662087-1.328125-4.2714843z" fill="#e58989"/><g transform="matrix(0 -1 -1 0 0 0)"><rect height="10" opacity=".2" rx="5" width="10" x="-17.5" y="-17"/><rect fill="#fff" height="10" rx="5" width="10" x="-17" y="-17"/><rect fill="#e64646" height="8" rx="4" width="8" x="-16" y="-16"/></g><path d="m12 2a10 10 0 0 0 -10 10 10 10 0 0 0  .0097656.292969 10 10 0 0 1 9.9902344-9.792969 10 10 0 0 1 9.990234 9.707031 10 10 0 0 0  .009766-.207031 10 10 0 0 0 -10-10z" fill="#fff" opacity=".2"/></svg>