<svg height="24" viewBox="0 0 24 24" width="24" xmlns="http://www.w3.org/2000/svg"><path d="m12 2.5v5h-5l-5 5h5v5l5 5v-5h5l4.5-4.5.5-.5h-5v-5z" opacity=".2"/><path d="m7 7-5 5h10v-5" fill="#fec006"/><path d="m17 7-5-5v10h5" fill="#f34235"/><path d="m7 17 5 5v-10h-5" fill="#4bae4f"/><path d="m17 17 5-5h-10v5" fill="#2095f2"/><path d="m12 12v .5h9.5l.5-.5z" fill="#fff" opacity=".2"/><path d="m17 7-5 5h5z" fill="#9c27b0"/><path d="m7 12v5l5-5z" fill="#1ea362"/><path d="m12 12v5h5z" fill="#3e50b4"/><path d="m7 7 5 5v-5z" fill="#fe9700"/><path d="m12 2v .5l5 5v-.5zm-5 5-5 5h .5l4.5-4.5h5v-.5z" fill="#fff" opacity=".2"/><path d="m12 9.5-1 2-2 1 2 1 1 2 1-2 2-1-2-1z" opacity=".2"/><path d="m12 9-1 2-2 1 2 1 1 2 1-2 2-1-2-1z" fill="#fff"/><path d="m9 12 2 1 1 2v-3z" fill="#ebebeb"/><path d="m15 12-2 1-1 2v-3z" fill="#dfdfdf"/></svg>