<svg height="24" viewBox="0 0 24 24" width="24" xmlns="http://www.w3.org/2000/svg"><path d="m5.8102822 21.352053c-2.8023358-1.530498-2.9206364-1.624894-2.7674691-2.208439 1.3456682-1.763072 2.8835392-2.983965 4.9388198-3.643614l.7967342.603412c1.0033614.759903 1.4252189 1.077375 2.6584359 1.087524 1.237752.01019 1.229484-.250726 2.383388-1.049371l.925618-.640643c1.640448.202371 2.857941 1.161097 3.944924 2.170004 1.922194 1.787833 1.917997 1.799369-1.295934 3.564423-.894463.49123-1.725418.925721-2.243492 1.177324-.571562.341784-.639926-.405455-.964606-.765133-.477768-.447966-1.361711-1.042913-2.686701-1.042913-1.444506 0-2.3158026.707119-2.7257045 1.160002-.2933456.486872-.4707741.819015-.8716182.653496-.5104282-.232568-1.283509-.624299-2.0923951-1.066072z" opacity=".2"/><path d="m5.8102822 20.852053c-2.8023358-1.530498-2.9206364-1.624894-2.7674691-2.208439 1.3456682-1.763072 2.8835392-2.983965 4.9388198-3.643614l.7967342.603412c1.0033614.759903 1.4252189 1.077375 2.6584359 1.087524 1.237752.01019 1.229484-.250726 2.383388-1.049371l.925618-.640643c1.640448.202371 2.857941 1.161097 3.944924 2.170004 1.922194 1.787833 1.917997 1.799369-1.295934 3.564423-.894463.49123-1.725418.925721-2.243492 1.177324-.571562.341784-.639926-.405455-.964606-.765133-.477768-.447966-1.361711-1.042913-2.686701-1.042913-1.444506 0-2.3158026.707119-2.7257045 1.160002-.2933456.486872-.4707741.819015-.8716182.653496-.5104282-.232568-1.283509-.624299-2.0923951-1.066072z" fill="#4061dc"/><path d="m2.1258169 15.38049c-.069195-.070652-.1258076-1.351932-.1258076-2.847291v-2.7188348l.8864583-.3887367c1.5137528-.663821 2.3781496-1.7364034 2.1586671-3.3242768-.0530684-.3839079-.0415089-.7862351.0257305-.8940609.1572438-.2522906 4.2624088-2.7072884 4.5525067-2.7072884.1206945 0 .292221.093561.3811711.2079134.570611.7335555 1.153398 4.3691075.956349 5.4106474-.088668.4686663-.226059.5941838-.9844969.8994228-1.0686473.4300834-1.9653884 1.306217-2.4489111 2.39264-.2898326.651215-.3487064.18915-.3018263 1.205655l.058238 1.262837-.5607199.375341c-1.2089601.809261-4.1920075 1.539903-4.5973366 1.126032z" opacity=".2"/><path d="m2.1258169 14.88049c-.069195-.070652-.1258076-1.351932-.1258076-2.847291v-2.718836l.8864583-.3887375c1.5137528-.663821 2.3781496-1.7364034 2.1586671-3.3242768-.0530684-.3839079-.0415089-.7862351.0257305-.8940609.1572438-.2522906 4.2624088-2.7072884 4.5525067-2.7072884.1206945 0 .292221.093561.3811711.2079134.570611.7335555 1.153398 4.3691075.956349 5.4106474-.088668.4686663-.226059.5941838-.9844969.8994228-1.0686473.4300834-1.9653884 1.3062189-2.4489111 2.392642-.2898326.651215-.3487064.18915-.3018263 1.205655l.058238 1.262837-.5607199.375341c-1.2089601.809261-4.1920075 1.539903-4.5973366 1.126032z" fill="#088aff"/><path d="m20.874192 15.380491c.069195-.070651.125808-1.351933.125808-2.847292v-2.7188338l-.886458-.3887375c-1.513754-.663821-2.33016-1.7364033-2.110678-3.3242767.05307-.3839079.04151-.786235-.02573-.8940609-.157247-.2522906-4.3104-2.7072882-4.600499-2.7072882-.120695 0-.29222.093561-.381171.2079133-.57061.7335555-1.153398 4.3691074-.956349 5.4106472.08867.4686664.226059.5941838.984497.8994228 1.068647.4300834 1.965388 1.3062168 2.44891 2.3926398.289833.651215.348706.18915.301827 1.205655l-.05823 1.262838.56072.37534c1.208961.809261 4.192008 1.539903 4.597336 1.126033z" opacity=".2"/><path d="m20.874192 14.880491c.069195-.070651.125808-1.351933.125808-2.847292v-2.7188358l-.886458-.3887375c-1.513754-.663821-2.33016-1.7364033-2.110678-3.3242767.05307-.3839079.04151-.786235-.02573-.8940609-.157247-.2522906-4.3104-2.7072882-4.600499-2.7072882-.120695 0-.29222.093561-.381171.2079133-.57061.7335555-1.153398 4.3691074-.956349 5.4106472.08867.4686664.226059.5941838.984497.8994228 1.068647.4300834 1.965388 1.3062187 2.44891 2.3926418.289833.651215.348706.18915.301827 1.205655l-.05823 1.262838.56072.37534c1.208961.809261 4.192008 1.539903 4.597336 1.126033z" fill="#5fbbff"/><circle cx="11.5" cy="13" fill-rule="evenodd" opacity=".2" r="4.5"/><g fill="#fff"><circle cx="11.5" cy="12.5" fill-rule="evenodd" r="4.5"/><path d="m9.6230469 2c-.2900979 0-4.3954906 2.4547407-4.5527344 2.7070312-.0562728.0902396-.0621254.3954887-.0351563.7148438.0098646-.0816439.0141478-.1811543.0351563-.2148438.1572438-.2522905 4.2626365-2.7070312 4.5527344-2.7070312.1206945 0 .2919093.0926788.3808591.2070312.46383.5962819.929845 3.0929059.984375 4.5722657.064717-1.31931-.462065-4.4008039-.984375-5.0722657-.0889498-.1143523-.2601646-.2070312-.3808591-.2070312zm-4.5644531 4.3339844c-.1027584 1.1902725-.9052284 2.0363385-2.171875 2.5917968l-.8867188.3886719v.5l.8867188-.3886719c1.4368991-.6301186 2.2768074-1.633946 2.171875-3.0917968zm2.1660156 5.6914066c-.0115049.106923-.0133197.260635.0019531.591797l.0351563.77539.0214843-.013672-.0566406-1.261718c-.0020399-.044232-.000324-.052951-.0019531-.091797z" opacity=".2"/><path d="m13.376953 2c-.120695 0-.291908.0926789-.380859.2070312-.522309.6714618-1.049092 3.7529558-.984375 5.0722657.05453-1.4793597.520546-3.9759838.984375-4.5722657.088951-.1143523.260164-.2070312.380859-.2070312.290099 0 4.442362 2.4547406 4.599609 2.7070312.020835.0334107.027233.1322385.03711.2128907.026717-.3185531.01904-.6228491-.03711-.7128907-.157247-.2522906-4.30951-2.7070312-4.599609-2.7070312zm4.611328 4.34375c-.104977 1.4525329.691318 2.4533239 2.125 3.0820312l.886719.3886719v-.5l-.886719-.3886719c-1.263088-.5538976-2.029623-1.397056-2.125-2.5820312zm-2.21289 5.681641c-.001629.038846.000086.047565-.001953.091797l-.056641 1.261718.021484.013672.035157-.77539c.015272-.331162.013458-.484874.001953-.591797z" opacity=".2"/></g></svg>