<svg height="24" width="24" xmlns="http://www.w3.org/2000/svg"><rect fill="#333" height="20" opacity=".2" rx="1" transform="matrix(0 -1 -1 0 0 0)" width="16" x="-20.5" y="-22"/><rect fill="#4f4f4f" height="20" rx="1" transform="matrix(0 -1 -1 0 0 0)" width="16" x="-20" y="-22"/><path d="m3 4c-.554 0-1 .446-1 1v .5c0-.554.446-1 1-1h18c .554 0 1 .446 1 1v-.5c0-.554-.446-1-1-1z" fill="#fff" opacity=".1"/><circle cx="17.5" cy="17.5" fill="#1ea362" r="5.5"/><path d="m15 18.582v1.4182h1.4182l3.582-3.582-1.418-1.418z" fill="#fff"/><path d="m-4-5v2c0 .554-.446 1-1 1h-14c-.554 0-1-.446-1-1v-2z" fill="#fff" opacity=".1" transform="matrix(0 -1 -1 0 0 0)"/></svg>