<svg height="24" width="24" xmlns="http://www.w3.org/2000/svg"><rect fill="#ba9e7b" height="20" rx="10" transform="matrix(0 -1 -1 0 0 0)" width="20" x="-22" y="-22"/><path d="m12 4.5c-4.432 0-8 3.568-8 8s3.568 8 8 8v-2a6 6 0 0 1 -6-6 6 6 0 0 1 6-6z" opacity=".2"/><path d="m12 4c-4.432 0-8 3.568-8 8s3.568 8 8 8v-2a6 6 0 0 1 -6-6 6 6 0 0 1 6-6z" fill="#fff"/><path d="m2.0058 12.25c-.002.084-.0058.166-.0058.25 0 5.54 4.46 10 10 10s10-4.46 10-10c0-.084-.004-.1665-.006-.25-.132 5.423-4.538 9.75-9.994 9.75s-9.862-4.327-9.994-9.75z" opacity=".2"/><path d="m12 4v2a6 6 0 0 1 6 6 6 6 0 0 1 -6 6v2c4.432 0 8-3.568 8-8s-3.568-8-8-8z" fill="#fff" opacity=".5"/><path d="m16 12.5c0 2.2092-1.7908 4-4 4s-4-1.7908-4-4z" opacity=".2"/><g fill="#fff"><path d="m16 12c0 2.2092-1.7908 4-4 4s-4-1.7908-4-4z"/><path d="m16 12c0-2.2092-1.791-4-4-4-2.2092 0-4 1.7908-4 4z" opacity=".5"/><path d="m12 2c-5.54 0-10 4.46-10 10 0 .084.0097.166.0117.25.1331-5.4224 4.5327-9.75 9.9883-9.75s9.8552 4.3276 9.9883 9.75c.002-.084.012-.166.012-.25 0-5.54-4.46-10-10-10z" opacity=".2"/></g></svg>