<svg height="24" width="24" xmlns="http://www.w3.org/2000/svg"><g transform="translate(1 1)"><rect fill="#dcdcbe" height="20" rx="1" transform="matrix(0 -1 -1 0 0 0)" width="20" x="-21" y="-21"/><path d="m2 1c-.554 0-1 .446-1 1v .5c0-.554.446-1 1-1h18c .554 0 1 .446 1 1v-.5c0-.554-.446-1-1-1z" fill="#fff" opacity=".2"/><path d="m2 21.5c-.554 0-1-.446-1-1v-.5c0 .554.446 1 1 1h18c .554 0 1-.446 1-1v .5c0 .554-.446 1-1 1z" opacity=".2"/><path d="m7 6v1h .004l2.2959 3.9746-2.2998 3.9824v1.043h8v-2h-1v1h-5.869l2.0205-3.5.30274-.5244v-.001l-.30274-.5244-1.9922-3.4502h4.8408v.5h1v-1.5h-7z" fill="#2a2a2a"/></g></svg>