<svg height="24" viewBox="0 0 21.42 19.89" width="24" xmlns="http://www.w3.org/2000/svg"><path d="m14.105211.57473426c-.189046-.002475-.854262.40814557-1.099764.77558614-.559647.8376205-1.08169 1.7530878-1.654003 2.907141-.564717 1.1387381-.619733 1.1080222-.554239 3.4578943-.368083.0355485-.701364.1161235-1.0056477.2318045l-.0174286-.0278863c-1.0240496-1.5223815-2.7027324-3.3622383-4.7528618-4.5297718-.1767759-.1006709-.3046835-.1433906-.3938932-.1376884-.6244672.039915.6914828 2.7527233 1.078849 3.3515781.3513582.5431531 1.2228582 1.5322888 1.9206651 2.2814433.0896221.0962116.2760517.3052799.4583802.5089235-.0552646.0904764-.1112202.1813659-.1603459.2771197-.0854332.2674286-.1307168.5642487-.1307168.8888737 0 1.122857.3469027 1.98942.2474905 3.130232-.1347179 1.546132-1.2833739 2.48043-.7738434 3.87793.01057.03418.013743.06453.026143.09934.1051997.295434.3158575.601501.6100116.942904.04763.05528.1041652.104261.1620888.151631.2311405.192983.5356989.326589.887131.413065.2403375.05914.5014036.0988.7703573.122003.091568.0079.1839823.01281.2771199.01743l.07843-.01046c.943868.03728 1.933201-.06962 2.511504-.101088.138137-.0075.276566-.02296.414808-.04531.427037-.06908.848952-.207333 1.237453-.400865h.0035c.01879-.0096.03539-.0215.05403-.03137.148026-.07657.29293-.158853.42875-.250977.434697-.294798.797905-.665267 1.035278-1.087563.202569-.360369.311866-.759348.296291-1.179937-.0052-.435566-.137116-.894578-.437466-1.362941-.978542-1.525832-2.039825-3.399882-2.094968-5.4395598-.029634-.2971576-.133719-.5562248-.294548-.7773284-.145789-.1807365-.332328-.325048-.538554-.4461804.05401-.1007037.108562-.2481662.158604-.348578.839921-1.6858213 1.147624-4.2521095 1.38734-6.2883481.08425-.71561837.01109-.96712008-.135945-.96904704z" opacity=".2"/><circle cx="13.832" cy="18.422" fill="#ff4e4e" r="1.339"/><path d="m14.105207.12851417c-1.923363 1.35428173-3.40395 4.27396433-3.408489 5.98729353.000498.3171291.0094.7055167.0232 1.1962172.425238.023575 1.568741.247424 1.965703.4461809.05791-.099852.114679-.2640425.168189-.3714133.839921-1.6858213 1.1485-4.2529909 1.388217-6.2892295.08425-.71561829.01022-.96712188-.13682-.96904883zm-9.4778557 2.67751883c-.6244672.039915.6914849 2.7522517 1.0788511 3.3511064.3513582.5431531 1.2237334 1.5331645 1.9215403 2.282319.1495283.1605223.6383054.715912.7648662.8475057 0 0-.2738229.1419199-.2205976.093768.3009345-.2722484 1.2791735-1.6859487 1.6524382-1.8297334l-.049465-.07793c-1.0240496-1.5223815-2.7027384-3.3626848-4.7528679-4.5302183-.1767759-.1006709-.3055556-.1425197-.3947653-.1368174z" fill="#895c33"/><path d="m15.806641 1c-2.155367 1.5176409-3.815226 4.7889862-3.820313 6.7089844.000173.1101805.005946.2894467.007813.4160156.048851-1.9295243 1.686219-5.1278396 3.8125-6.625.087177.0011425.148557.0879319.175781.28125.036848-.5536212-.035721-.7794145-.175781-.78125zm-10.6210941 3c-.1910498.0122116-.2122048.2579176-.1445313.6074219.0295804-.0607225.0734482-.1028784.1445313-.1074219.0999705-.0063901.2433069.0414826.4414062.1542969 2.1929465 1.2488667 3.9880347 3.1768115 5.1464849 4.8339843.090039-.0809657.172645-.1453908.236328-.1699218l-.056641-.0878906c-1.1475747-1.7060176-3.0287472-3.7678056-5.3261719-5.0761719-.1980993-.1128143-.3414357-.160687-.4414062-.1542969z" fill="#fff" opacity=".1" transform="matrix(.89235982 0 0 .89235982 0 -.763809)"/><path d="m10.807669 7.2674068c-1.4044723.1321683-2.3332692.8865677-2.8825817 1.9572698-.0854332.2674286-.1316603.5642497-.1316603.8888754 0 1.122856.3470387 1.990298.2476265 3.131109-.1347178 1.546132-1.2820555 2.479567-.772525 3.877067.01057.03418.01376.0654.02616.100216.1051997.295434.3144486.601504.6086027.942906.04763.05528.1042542.10339.1621778.15076.2311405.192983.5361876.32659.8876198.413066.240337.05914.500955.09793.769909.121131.091567.0079.1841344.01368.2772722.0183l.07934-.01046c.943869.03728 1.932839-.06962 2.511143-.101088.138136-.0075.276794-.02296.415036-.04531.427036-.06908.84876-.207335 1.23726-.400866h.0026c.01879-.0096.03542-.02237.05406-.03224.148026-.07657.293167-.157981.428988-.250105.434697-.294798.798472-.66527 1.035845-1.087566.20257-.360369.31203-.758478.296455-1.179068-.0052-.435565-.137356-.895452-.437706-1.363814-.978528-1.525833-2.040089-3.399031-2.095232-5.4387094-.029635-.2971576-.133881-.5562261-.29471-.7773305-.552432-.6848573-1.655225-.9105033-2.425694-.9141478z" fill="#c37e3f"/><path d="m12.111328 9c-1.573886.148111-2.6148958.9935047-3.2304686 2.193359-.0957385.299687-.1464844.632311-.1464844.996094 0 .091649.0137955.172878.0175781.261719.017948-.269599.0550446-.526606.1289063-.757813.6155728-1.199854 1.6565826-2.045248 3.2304686-2.193359.863406.0040841 2.099681.2559698 2.71875 1.023438.180229.247774.296869.538091.330078.871093.061795 2.285713 1.251094 4.385818 2.347656 6.095703.302318.471431.446836.933716.478516 1.376954.012592-.114415.016082-.231779.011719-.34961-.005827-.488105-.153655-1.002486-.490235-1.527344-1.096562-1.709885-2.285861-3.80999-2.347656-6.095703-.033209-.333002-.149849-.623319-.330078-.871093-.619069-.7674682-1.855344-1.0193539-2.71875-1.023438zm-3.0996092 6.277344c-.0009021.140214.0128496.272465 0 .419922-.1328213 1.524366-1.1418137 2.519562-.9941407 3.802734.1085882-1.057512.8790416-1.981764.9941407-3.302734.0281733-.323306.021439-.626217 0-.919922z" fill="#fff" opacity=".2" transform="matrix(.89235982 0 0 .89235982 0 -.763809)"/><path d="m13.528131 8.9628356c-.248009-2.4844263-5.731754-2.3514156-5.731754 1.1519554 0 1.121164.3473657 1.987645.248008 3.126736-.1653388 1.895654-1.8628686 2.867579-.1377823 4.909524.8712177 1.031253 3.5579253.665959 4.6846063.603406 2.160521-.119974 4.452623-2.146593 3.031215-4.360975-.977994-1.523527-2.039181-3.394042-2.094293-5.4306464z" fill="none"/><path d="m12.847822 13.515868c.507757 0 .977194-.01001 1.3278.104062.378405.123092.618296.390754.618296.971575 0 .531177-.885466 1.310234-1.148769 2.038515.08859.625663.304133 1.24517.600774 1.722841.168022-.07744.329668-.164478.4825-.260219.43446-.27212.797885-.614233 1.035129-1.004043.400213-.657567.441392-1.450847-.141128-2.272672-1.411836-2.567059-6.9819773-.730326-8.0407244.355121-.054646.34494-.7013464 1.093671-.2833601 2.177801.1051422.272708.3142697.55476.6082632.869899.237627.254692.6102497.41534 1.0494816.513122.2402055.05347.5003025.08814.769109.109117.091518.0071.1840119.01268.2770977.01687-.0006-.400895.03035-.800315.02107-1.181741-.0008-.03317-.0019-.06619-.0034-.09907-.092389-.875426-1.8170572-1.043609-1.8170572-2.273958 0-.255134.090473-.47494.2477645-.664098.7817205-.940017 3.2139737-1.123116 4.3971617-1.123116z" fill="#8e8e8e"/><path d="m12.062637 12.360183c.303657.213168 1.765004.473995 1.768544-.02544.0035-.491815-.01585-.909497-.08662-1.185996-.07078-.2765-.214884-.800428-.505328-1.026032-.182509-.1417594-.660719-.223167-.931014-.1520149-.270295.071152-.707075 1.1685919-.707549 1.5275259-.00065.468963.158308.648797.461966.861965z" fill="none"/><path d="m12.166709 10.416872c-.216236.07115-.565659 1.168593-.566038 1.527526-.00052.468963.126646.648798.369572.861965.242925.213168 1.412002.473995 1.414834-.02544.0028-.491815-.01268-.909497-.0693-1.185996-.05662-.2765-.171907-.800428-.404262-1.026032-.146006-.141765-.528574-.223172-.74481-.15202z" opacity=".2"/><path d="m12.166709 9.9706926c-.216236.071151-.565659 1.1685924-.566038 1.5275254-.00052.468963.126646.648798.369572.861965.242925.213168 1.412002.473995 1.414834-.02544.0028-.491815-.01268-.909497-.0693-1.185996-.05662-.2765-.171907-.800428-.404262-1.026032-.146006-.1417644-.528574-.223172-.74481-.1520199z" fill="#fff"/><ellipse cx="12.047" cy="12.175" fill="#3f3f3f" rx=".446" ry=".446"/><g fill="none"><path d="m10.002291 18.857851c-.0014-.832438.133741-1.65847-.2388461-2.330198-.3735283-.673424-.7868061-1.256161-1.3127841-1.88867"/><path d="m14.245923 18.352861c-.394326-.634988-.645366-1.52065-.645366-2.338205 0-.63392.254663-1.74749.575065-2.394756"/><path d="m10.023368 17.676109c.03279-.963599-1.8204712-1.097649-1.8204712-2.373028 0-1.523006 3.2236582-1.787213 4.6449252-1.787213 1.055787 0 1.946096-.04326 1.946096 1.075637 0 .531177-.885466 1.310234-1.148769 2.038515"/><path d="m9.5444884 13.023053c.7034626-.326283 1.2792126-.688015 1.1439996-1.678215-.05266-.385829-.569295-1.038526-.8959036-1.245549-.8248941-.5228807-1.3783112.385333-1.309396 1.140662.051187.561352.3578377 2.109385 1.0613 1.783102z"/></g><path d="m10.692462 12.037164c-.04213-.33071-.455435-.890164-.7167214-1.067612-.6599139-.448182-1.1026467.330285-1.0475147.977709.040949.481157.2862696 1.80804.8490383 1.52837.5627688-.279671 1.0233678-.589726.9151978-1.438467z" opacity=".2"/><path d="m10.692462 11.590984c-.04213-.33071-.455435-.890164-.7167214-1.067612-.6599139-.448182-1.1026467.330285-1.0475147.977709.040949.481157.2862696 1.80804.8490383 1.52837.5627688-.279671 1.0233678-.589726.9151978-1.438467z" fill="#fff"/><circle cx="10.262" cy="12.175" fill="#3f3f3f" r=".446"/><path d="m12.847822 13.515868c-1.183187 0-3.6154407.183099-4.3971612 1.123115.525978.632509.7609783 1.215246 1.1345066 1.88867.1775318.320101.2398221.675213.2565081 1.049386.0034.03206.0045.06503.0034.09907.0093.381427-.02171.780847-.02107 1.181742.9667765.04334 2.1730405-.06281 2.7671955-.09267.138061-.0069.27668-.02094.414846-.04158.4277-.0639.850907-.191514 1.239868-.37075-.296642-.477671-.512181-1.097179-.600773-1.722842-.02919-.206084-.04459-.412796-.04459-.615364 0-.63392.254662-1.74749.575064-2.394756-.350605-.114049-.820042-.104032-1.327799-.104032z" fill="#e4e4e4"/><path d="m9.5850826 16.527653c-.3735283-.673424-.6084438-1.256161-1.1344218-1.88867-.1572913.189159-.247764.408965-.247764.664098 0 1.23035 1.5463051 1.398532 1.6386939 2.273958-.01668-.374173-.078976-.729285-.2565081-1.049386z" fill="#3f3f3f"/><path d="m14.175622 13.6199c-.320402.647266-.575065 1.760836-.575065 2.394756 0 .202568.0154.40928.04459.615364.263302-.728281 1.148769-1.507338 1.148769-2.038515 0-.580821-.239892-.848483-.618296-.971605z" fill="#3f3f3f"/><path d="m14.398438 16.001953c-1.325908 0-4.05172.204408-4.9277349 1.257813.0853494.102636.1514727.203912.2246094.304687 1.0383015-.875232 3.4683565-1.0625 4.7031255-1.0625.489522 0 .928369.008831 1.296874.087891.060955-.1665.121866-.334165.189454-.470703-.392897-.127806-.917324-.117188-1.486328-.117188zm.861328 3.064453c-.005045.076928-.019532.168323-.019532.236328 0 .227003.018071.458511.050782.689454.075261.531518.232827 1.058276.449218 1.515624.074049-.029996.152511-.052713.22461-.085937-.332424-.53529-.57455-1.228554-.673828-1.929687-.020201-.14262-.023261-.283885-.03125-.425782zm-4.232422 1.964844c-.006092.315971-.018097.632346-.017578.957031.003098.000139.006662-.000136.009765 0 .009069-.277198.020159-.558179.013672-.824219.001233-.038146-.000096-.0754-.003906-.111328-.000328-.00736-.001593-.014137-.001953-.021484z" fill="#fff" opacity=".2" transform="matrix(.89235982 0 0 .89235982 0 -.763809)"/></svg>