<svg height="24" width="24" xmlns="http://www.w3.org/2000/svg"><g transform="translate(1 1)"><path d="m11 1.0001c-5.54 0-10 4.46-10 9.9999 0 5.54 4.46 10 10 10 3.4053 0 6.4025-1.6851 8.207-4.2704l-8.207-5.7295 9.4475-3.2975c-1.357-3.9107-5.065-6.7029-9.448-6.7029z" fill="#fecd38"/><circle cx="11.5" cy="5.5" fill="#3f3f3f" r="1.5"/><path d="m11 1.0001c-5.54 0-10 4.46-10 9.9999 0 .084.0038.1665.00585.25.13235-5.423 4.5381-9.75 9.994-9.75 4.2158 0 7.8 2.5857 9.2755 6.2615l.17187-.05957c-1.357-3.9099-5.064-6.7019-9.447-6.7019zm.4775 10.333-.4775.167 7.962 5.5585c.08281-.10884.16674-.2168.24511-.3291l-7.7295-5.3965z" fill="#fff" opacity=".2"/><path d="m20.275 7.7615-9.2755 3.2385.47754.33301 8.9695-3.1308c-.053-.1495-.114-.2943-.173-.4404zm-19.269 3.4885c-.00205.0835-.00585.166-.00585.25 0 5.54 4.46 10 10 10 3.4053 0 6.403-1.6852 8.207-4.2705l-.245-.171c-1.8235 2.397-4.7045 3.9415-7.962 3.9415-5.456 0-9.862-4.327-9.994-9.75z" opacity=".2"/></g></svg>