<svg height="24" width="24" xmlns="http://www.w3.org/2000/svg"><g transform="translate(1 1)"><path d="m19 20v-18c0-.554-.446-1-1-1h-14c-.554 0-1 .446-1 1v18c0 .554.446 1 1 1h14c .554 0 1-.446 1-1z" fill="#e4e4e4"/><path d="m4 1c-.554 0-1 .446-1 1v .5c0-.554.446-1 1-1h14c .554 0 1 .446 1 1v-.5c0-.554-.446-1-1-1z" fill="#fff" opacity=".1"/><g fill="#4c4c4c" transform="matrix(1.0909 0 0 1 -1.5455 -1)"><path d="m6 5h11v1h-11z"/><path d="m6 8h11v1h-11z"/><path d="m6 11h11v1h-11z"/></g><path d="m18 21c .554 0 1-.446 1-1v-8.5h-16v8.5c0 .554.446 1 1 1z" opacity=".5"/><path d="m3 20v .5c0 .554.446 1 1 1h14c .554 0 1-.446 1-1v-.5c0 .554-.446 1-1 1h-14c-.554 0-1-.446-1-1z" opacity=".2"/><g fill="#e4e4e4" transform="matrix(1.0909 0 0 1 -1.5455 7)"><path d="m6 5h11v1h-11z"/><path d="m6 8h11v1h-11z"/><path d="m6 11h11v1h-11z"/></g><path d="m3 20v .5c0 .554.446 1 1 1h14c .554 0 1-.446 1-1v-.5c0 .554-.446 1-1 1h-14c-.554 0-1-.446-1-1z" opacity=".2"/></g></svg>