<svg height="24" width="24" xmlns="http://www.w3.org/2000/svg"><path d="m22 12v-7c0-.554-.446-1-1-1h-18c-.554 0-1 .446-1 1v14c0 .554.446 1 1 1h11z" fill="#8847bd"/><path d="m20 12.905538v-6.905538h-16v12h10.908706z" fill="#a675ce"/><path d="m9.764261 8.5002022a.74727215.78102555 0 0 0 -.764261.780726v2.7192618 2.719263a.74727215.78102555 0 0 0 1.120721.676022l2.252444-1.359632 2.253177-1.359632a.74727215.78102555 0 0 0 0-1.352802l-2.253177-1.3596307-2.252444-1.3596311a.74727215.78102555 0 0 0 -.35646-.103945z" opacity=".2"/><path d="m9.764261 8.0002022a.74727215.78102555 0 0 0 -.764261.780726v2.7192618 2.719263a.74727215.78102555 0 0 0 1.120721.676022l2.252444-1.359632 2.253177-1.359632a.74727215.78102555 0 0 0 0-1.352802l-2.253177-1.3596303-2.252444-1.3596315a.74727215.78102555 0 0 0 -.35646-.103945z" fill="#fff"/><path d="m3 4c-.554 0-1 .446-1 1v .5c0-.554.446-1 1-1h18c .554 0 1 .446 1 1v-.5c0-.554-.446-1-1-1z" fill="#fff" opacity=".1"/><path d="m22 12h-7c-.5523 0-1 .44772-1 1v7z" fill="#cfb2dd"/><path d="m15 12c-.5523 0-1 .44772-1 1v .5c0-.5523.447715-1 1-1h6.5l.5-.5z" fill="#fff" opacity=".2"/><path d="m22 12-8 8h-11c-.554 0-1-.446-1-1v .5c0 .554.446 1 1 1h11l8-8z" opacity=".2"/></svg>