<svg height="24" width="24" xmlns="http://www.w3.org/2000/svg"><g transform="translate(.99978 1)"><path d="m11.023 1.0005a.95997.93718 0 0 0 -.503.1258l-8.04 4.5314a.95997.93718 0 0 0 -.4798.8113v9.0627a.95997.93718 0 0 0  .47978.81128l8.0402 4.5313a.95997.93718 0 0 0  .95956 0l8.0393-4.5313a.95997.93718 0 0 0  .48065-.81128v-9.0627a.95997.93718 0 0 0 -.481-.8116l-8.039-4.5314a.95997.93718 0 0 0 -.457-.1258z" fill="#fecd38"/><path d="m7.9187 16.945c-.029999-.02994-.054551-.14017-.054551-.24496 0-.23358-.12724-.24769-.24548-.02721-.13998.26099-.25461.18933-.22857-.14289.018725-.239-.003-.29926-.09874-.27462-.54697.1407-.55024.13606-.18411-.26211.39121-.42545.46259-.68192.16366-.58803-.10126.0318-.39566.07724-.65421.10096-.79625.07306-1.6165-.44379-1.6165-1.0186 0-.24246.42337-.58207 1.0324-.82814.3097-.125.5726-.279.5842-.342.0115-.063-.1094-.199-.2687-.301-.3651-.235-.5696-.564-.7855-1.265-.2488-.808-.1937-2.2029.1231-3.1215 1.0988-3.1857 4.2925-4.507 7.3063-3.0228 1.9289.94993 3.3227 2.4544 3.6264 3.9142.08223.39526.0742.48004-.07265.76728-.19316.3778-.62473.8317-.79079.8317-.0637 0-.2166-.11942-.33978-.26537-.322-.383-1.778-1.8204-2.384-2.3562l-.518-.4574.058-.4588c.05498-.43906.04831-.46301-.1545-.55522-.30853-.14028-.73887-.00265-.77487.24786-.0204.14188.08517.30556.40634.63008l.4339.43841-.48817.00115c-.88624.00205-1.0575.14214-.62129.50838.32303.27123.43538.5096.40705.86362l-.02404.30075.38649-.0198c.297-.01521.3865.0084.3865.10206 0 .06702-.03681.12186-.08183.12186-.13596 0-.09182.23097.06137.32106.1112.0654.11972.09969.03814.15348-.05778.03809-.08146.13062-.05262.20562.07923.20603-.0835.16898-.71719-.1633-.523-.275-.588-.339-.772-.7529-.325-.7341-.603-.9302-.603-.4258 0 .12489-.07754.51771-.17232.87294-.30176 1.131-.33731 1.0132.30598 1.0138.64463.000472 1.1106.10884 1.2646.29393.11279.13561.12635.5074.03604.9878-.05243.27886-.04665.28777.15391.23754.19554-.04897.20534-.03702.15906.19387-.04758.23744-.03891.24605.2473.24605.16315 0 .29663.03674.29663.08165s-.02978.08165-.06619.08165c-.03642 0-.13718.0518-.22394.1151-.1548.11295-.15486.1183-.003.28578.17687.19502.15628.20237-.48428.17297-.48351-.02219-.58497-.08957-.65739-.43661-.08441-.40446-.27155-.65715-.4049-.54672-.25291.20944.23681 1.0727.84564 1.4907.86035.59066 1.8418.72904 2.7451.38705.61416-.23252 1.5056-1.0954 1.9976-1.9338.54836-.93422.66826-.91782.46886.06413-.33156 1.6328-1.4561 2.8607-3.1065 3.392-.52956.17049-.82378.21309-1.4793.21417-1.3663.0023-2.1482-.38102-3.4134-1.6733-.7963-.813-1.0338-.876-.6265-.165l.26113.45542-.26406.80388c-.14523.44214-.27394.80388-.28601.80388-.012085 0-.046499-.0245-.076503-.05444zm.3631-4.404c-.7098-1.416-.8677-1.987-.8677-3.1348 0-.86113.018215-.97343.21959-1.3542.60945-1.1525 1.9121-1.8259 3.5378-1.829.76235-.00145 1.6253.1327 1.9706.30625.42526.21377 1.0317.76905 1.6515 1.512.7252.86946.78407 1.0351.25302.71202-.148-.0896-.348-.1631-.446-.1632-.314-.0006-.431-.0917-.485-.3794-.038-.2065-.152-.3576-.427-.5666-.619-.4721-.855-.2597-.427.3849.361.544 2.35 2.4551 2.522 2.4231.25-.046.441-.546.4-1.0469-.069-.8477-.667-1.7288-1.602-2.3602-.854-.5763-2.472-1.3121-3.201-1.4555-2.3245-.4569-4.5928.9885-4.9264 3.1388-.19977 1.2878.51383 2.9905 1.8501 4.4144.22173.23627.41678.41597.43344.39935.016675-.01662-.18869-.46714-.45634-1.0011z" fill="#3f3f3f"/><path d="m11.022 1.0002a.95997.93718 0 0 0 -.501.126l-8.0413 4.5311a.95997.93718 0 0 0 -.4795.8115v.49999a.95997.93718 0 0 1  .4795-.8115l8.0413-4.5311a.95997.93718 0 0 1  .50194-.12597.95997.93718 0 0 1  .45702.12597l8.0398 4.5311a.95997.93718 0 0 1  .48046.8115v-.49999a.95997.93718 0 0 0 -.481-.8115l-8.04-4.5311a.95997.93718 0 0 0 -.457-.126z" fill="#fff" opacity=".2"/><path d="m2.0002 15.532v.49999a.95997.93718 0 0 0  .47948.81053l8.0408 4.5321a.95997.93718 0 0 0  .95896 0l8.0398-4.5321a.95997.93718 0 0 0  .48046-.81053v-.49999a.95997.93718 0 0 1 -.48046.81053l-8.0398 4.5321a.95997.93718 0 0 1 -.95896 0l-8.0403-4.532a.95997.93718 0 0 1 -.4795-.811z" opacity=".2"/></g></svg>