<svg height="24" width="24" xmlns="http://www.w3.org/2000/svg"><path d="m11.99984 2.0002931c-.240996 0-.478492.01175-.714988.0283-.0295.0022-.059.0044-.0885.00685-3.5724389.2818952-6.5978876 2.4266088-8.1258616 5.4669072-.00055.0005-.00085.0015-.00115.002-.098897.196496-.2000956.3924927-.2861441.5964892-.4681421 1.0569821-.7223378 2.1789635-.768537 3.3534435-.00205.038-.0023.0765-.0039.114498-.0031.111998-.00955.223496-.0088.336994-.0003.0315-.00195.0625-.00195.0945 0 1.162981.2066464 2.272962.5683403 3.309444.1455975.464492.3132947.933984.5156412 1.409476.5039915 1.18398.5665904 1.506975.4872918 2.495958-.055249.688988-.2420459 1.392476-.475592 1.788969-.2116964.358994-.3847434.729988-.3847434.823986 0 .291995 1.6885713.189997 3.180496-.192496 1.7479703-.447493 1.9009677-.446493 3.3339434.003.6554888.205996 1.4039764.316994 2.2479624.347994.0355.0015.071.0015.106498.003.115498.003.226496.0105.345994.0105.0095 0 .0185-.000999.028-.000999.0155 0 .0305.000999.046.000999.278995 0 .55499-.014.827986-.036 2.472458-.175997 4.457924-1.090981 6.244894-2.874951 1.472475-1.469975 2.384959-3.284944 2.745453-5.183412.033-.173997.0605-.348994.085-.525491.0145-.108498.03-.216496.041-.325495.024-.232996.0385-.469992.0465-.707988.002-.06.0045-.119498.005-.179497.001-.056.004-.110998.004-.166997 0-5.4474072-4.313427-9.8473325-9.724335-9.99283-.042-.0014-.084-.00245-.125998-.0031-.05-.0007-.0995-.0039-.149497-.0039z" fill="#1891d1"/><path d="m2.0078094 12.17862c-.00279.07533-.00637.150473-.00586.226556-.0003.032-.00195.063-.00195.095 0 1.16273.2066614 2.273161.5683403 3.309494.1455625.464597.3132647.933784.5155912 1.409176.3256695.765087.4660221 1.17183.5038915 1.629872.028-.710989-.071848-1.114982-.5038408-2.129465-.2023465-.475492-.3700437-.944984-.5156412-1.409476-.3429442-.982483-.5403408-2.033465-.5605405-3.130947zm19.9861606.07324c-.00095.03156-.002.06311-.003.09472-.0081.237926-.02263.474662-.04687.707988-.01103.108799-.02639.216742-.04101.32519-.02419.176662-.05174.351839-.08496.525391-.360579 1.898868-1.272678 3.713537-2.745053 5.183412-1.78717 1.78417-3.772836 2.699154-6.244894 2.874951-.273496.0225-.549491.0365-.828486.0365-.01541 0-.0305-.000899-.0459-.000999-.0097.00005-.01862.000999-.02832.000999-.119343 0-.230166-.0076-.345699-.01074-.03541-.0015-.07113-.0012-.106443-.003-.844186-.03059-1.5923733-.141908-2.2480121-.347649-1.4332757-.449773-1.5860231-.450443-3.3339434-.0029-1.236779.316649-2.594106.436602-3.0272986.303705-.088689.181926-.1533174.334474-.1533174.388663 0 .291775 1.6885713.189627 3.180596-.192382 1.7479203-.447512 1.9006677-.446822 3.3339434.0029.6556388.205742 1.4038261.317055 2.2480121.347649.03531.0018.07103.0015.106443.003.115528.0031.226356.01074.345699.01074.0097 0 .01863-.00095.02832-.001.01539.000069.03049.001.0459.001.279235 0 .55479-.01391.828086-.03613 2.472208-.175812 4.457874-1.090782 6.244894-2.874952 1.472425-1.469975 2.384509-3.284594 2.745053-5.183412.03322-.173542.06077-.348719.08496-.525391.01462-.108448.02998-.216391.04101-.325189.02424-.233331.03882-.470072.04687-.707988.0018-.05996.0042-.119703.0049-.179687.00155-.056501.00455-.1115.00455-.167499 0-.08315-.0038-.165392-.0059-.248041z" opacity=".2"/><path d="m11.99984 2.0002931c-.240996 0-.478492.01175-.714988.0283-.0295.0022-.059.0044-.0885.00685-3.5724389.2818952-6.5978876 2.4266088-8.1258616 5.4669072-.00055.0005-.00085.0015-.00115.002-.098897.196496-.2000956.3924927-.2861441.5964892-.4681421 1.0569821-.7223378 2.1789635-.768537 3.3534435-.00205.038-.0023.0765-.0039.114498-.0031.111998-.00955.223496-.0088.336994-.0003.0315-.00195.0625-.00195.0945 0 .06.0067.118998.0078.178497.00135-.0365.00195-.0735.00295-.109998.0016-.038.00185-.0765.0039-.114498.046199-1.17448.3003949-2.2964609.768537-3.353443.086048-.2039965.1872468-.3999932.2861451-.5964899.0003-.0005.0006-.0015.00095-.002 1.528424-3.0401484 4.5536227-5.184912 8.1258616-5.4669072.0295-.0023.059-.0045.0885-.0067.236496-.01655.473992-.028299.714988-.028299.05 0 .0995.0032.149497.0039.042.00065.084.0017.125998.00295 5.32841.1432475 9.589337 4.413075 9.718335 9.7448341.001-.0285.002-.0565.002-.085.001-.056.004-.110998.004-.166997 0-5.4474068-4.313427-9.8473321-9.724335-9.9928296-.042-.0014-.084-.00245-.125998-.0031-.05-.0007-.0995-.0039-.149497-.0039zm-8.4118574 16.8482139c-.00465.118498-.0053.224996-.0166.366494-.055249.688988-.2420459 1.392476-.475592 1.788969-.2116964.358994-.3847434.729988-.3847434.823986 0 .05.063899.084.1532974.111499.065749-.134998.1412976-.282496.231446-.435493.2335461-.396493.4203429-1.099981.475592-1.78897.028049-.349994.037349-.615489.0166-.866485z" fill="#fff" opacity=".2"/><g fill-rule="evenodd"><path d="m8 14.00006v3.49994h1v-3.49994z" opacity=".2"/><path d="m8 13.500068v3.499941h1v-3.499941z" fill="#e4e4e4"/><path d="m15.5 10.500119v2.999949h1.499975v-2.999949z" opacity=".2"/><path d="m15.5 10.000128v2.999949h1.499975v-2.999949z" fill="#e4e4e4"/><path d="m15.458104 7.5003617a.52635946.45004316 0 0 0 -.132605.01846l-8.9472159 2.2499883a.52635946.45004316 0 0 0 -.3782831.43154v3.599986a.52635946.45004316 0 0 0  .3782831.431541l8.9472159 2.249991a.52635946.45004316 0 0 0  .674331-.431541v-5.785817-2.3141504a.52635946.45004316 0 0 0 -.541726-.4499979z" opacity=".2"/><path d="m15.458104 7.0001787a.52635946.45004316 0 0 0 -.132605.01846l-8.9472159 2.249988a.52635946.45004316 0 0 0 -.3782831.4315403v3.599986a.52635946.45004316 0 0 0  .3782831.431541l8.9472159 2.249991a.52635946.45004316 0 0 0  .674331-.431541v-5.785817-2.3141504a.52635946.45004316 0 0 0 -.541726-.4499979z" fill="#fff"/></g></svg>