<svg height="24" width="24" xmlns="http://www.w3.org/2000/svg"><g transform="translate(1.0001 1)"><path d="m20.227 7.1656c-2.125-5.112-7.95-7.517-13.061-5.393-5.1118 2.1243-7.5166 7.9499-5.3927 13.061 2.1241 5.112 7.9493 7.518 13.061 5.393 5.112-2.124 7.517-7.95 5.393-13.061z" fill="#d2d2d2"/><path d="m11.064 1c-1.204-.00615-2.4279.2113-3.6187.666l2.4882 6.5293a3 3 0 0 1 1.0665-.1953 3 3 0 0 1 1.066.1992l2.491-6.5351c-1.108-.4217-2.288-.6579-3.493-.6641zm-9.398 6.4434c-.4547 1.1909-.67031 2.4171-.6641 3.6206.00615 1.2045.2404 2.3827.66211 3.4902l6.5312-2.4883a3 3 0 0 1 -.1953-1.066 3 3 0 0 1  .1993-1.0664l-6.5332-2.4902zm18.668 0-6.5312 2.4883a3 3 0 0 1  .19727 1.0684 3 3 0 0 1 -.19922 1.0645l6.5352 2.4902c.42146-1.1075.65806-2.2858.66406-3.4902.006-1.204-.21156-2.4301-.66602-3.6211zm-10.4 6.3576-2.4882 6.533c1.1909.45449 2.4147.67202 3.6191.66602s2.3848-.24257 3.4922-.66406l-2.4902-6.5312a3 3 0 0 1 -1.067.195 3 3 0 0 1 -1.0665-.199z" fill="#e74c3c"/><path d="m11 1.0001c-5.5395 0-9.9991 4.4599-9.9991 9.9999 0 .084-.002.1665 0 .25.13219-5.4229 4.5436-9.7499 9.9991-9.7499s9.8671 4.3269 9.9991 9.7499c.002-.0835 0-.166 0-.25 0-5.5399-4.4596-9.9999-9.9991-9.9999z" fill="#fff" opacity=".2"/><path d="m1.0067 11.25c-.00205.0835-.00585.166-.00585.25 0 5.5399 4.4596 9.9999 9.9991 9.9999s9.9991-4.4599 9.9991-9.9999c0-.08393-.0038-.16657-.0059-.25-.13199 5.4229-4.5376 9.7499-9.9931 9.7499s-9.8611-4.3269-9.9931-9.7499z" opacity=".2"/></g></svg>