<svg height="24" viewBox="0 0 24 24" width="24" xmlns="http://www.w3.org/2000/svg"><path d="m12 2a10 10 0 0 0 -10 10 10 10 0 0 0 10 10 10 10 0 0 0 10-10 10 10 0 0 0 -10-10z" fill="#769edc"/><path d="m2.01075 12.209a10 10 0 0 0 -.01075.291 10 10 0 0 0 10 10 10 10 0 0 0 10-10 10 10 0 0 0 -.0105-.209 10 10 0 0 1 -9.9895 9.709 10 10 0 0 1 -9.989-9.791z" opacity=".2"/><path d="m12 2a10 10 0 0 0 -10 10 10 10 0 0 0  .01075.209 10 10 0 0 1 9.989-9.709 10 10 0 0 1 9.9895 9.791 10 10 0 0 0  .0105-.291 10 10 0 0 0 -10-10z" fill="#fff" opacity=".2"/><path d="m12.095703 5.5003985c-.09433 0-.07536.350125.02343.4296875.111225.089571.274176.4028625.322266.6191405l.03808.1689455-.306641.061523c-.729254.1469035-.870955.6253745-.40039 1.350586.165224.254647.16698.261535.134765.8134765-.02416.413918-.01187.624936.04883.823242.09421.3078425.356704.5910375.631836.6806645.304291.09913 1.131404.05172 1.438477-.08203.335954-.14633.772655-.580936.894541-.890626.143541-.3647115.089332-.868266-.139648-1.3076175-.220134-.422374-.794481-.9962515-1.19336-1.1923825-.210892-.103698-.310228-.1926755-.380859-.3408205-.100847-.211517-1.004762-1.133789-1.111328-1.133789zm-3.9765625 1c-.012565-.0011-.024605.0036-.035155.01367-.10916.1042935-.197495.651668-.1875 1.163086.00945.484002-.0039.583783-.1044925.745117-.3342225.5360455-.3913955 1.5189545-.120117 2.0761725.239853.49267.637558.792544 1.243164.936523.4227605.100509.708825.08672 1.106446-.05176 1.095722-.381604 1.285217-1.125853.499023-1.9648435-.318769-.340176-.467773-.6166245-.467773-.8681625 0-.3061575-.1171975-.605948-.3154305-.807617-.1784535-.1815485-.187965-.1840785-.5292965-.1552735-.191354.016145-.417152.04546-.500977.06543-.1391645.033165-.161354.015935-.2617185-.1962895-.060453-.127829-.110578-.342688-.111328-.4785155-.00105-.2097905-.126875-.4699605-.214844-.477539zm9.6914065 2.001953c-.118172-.025995-.155177.278939-.06055.5.04367.1019835.07263.2744895.06445.383789l-.01465.199219-.250977.0049c-.195407.0042-.290015.03868-.426757.1542965-.160041.135318-.404124.594037-.405274.761719-.000257.03707-.149126.397697-.331055.800781-.181926.403083-.346074.812496-.365234.910156-.102741.523724.182311.91656.864258 1.189453.287964.115237.588566.124018.915039.02735.530597-.157119.871722-.455153 1.078125-.941406.108838-.256434.124278-.359992.122078-.826195-.00285-.604262-.105681-.985833-.383789-1.420898-.086818-.135817-.193523-.399953-.236328-.5869145-.087624-.3826875-.456188-1.13135-.569336-1.15625zm-12.746094 3.4990235c-.013015-.003-.023215-.00075-.030275.0068-.1044741.112229.052756 1.201228.2109375 1.460938.038835.06377.094189.281079.1240235.482422.1353125.913178.7721395 1.765833 1.4951175 2.002929.2469765.08099.782369.05201 1.128906-.06152.2866025-.093862.3834855-.159118.5996095-.402312.4485245-.504705.5293875-1.003058.2285155-1.407226-.079642-.106985-.3227275-.307095-.540039-.444336-.2173145-.137242-.5953455-.389472-.839844-.561524-.716185-.503974-.791872-.551563-.9892575-.610351-.250553-.074622-.5064495.004699-.714844.221679l-.1630855.169922-.1025395-.180664c-.056539-.099631-.102438-.231225-.1025375-.291991-.0001845-.10905-.2135935-.36361-.3046875-.384766zm8.688477.999023c-.303888.0016-.654896.05359-1.05957.15625-1.143651.29012-1.684685.63528-1.930664 1.232422-.106506.25854-.114893.346881-.08594.841797.02945.503169.02135.576999-.09082.828125-.113991.255187-.244628.397696-.8486335.931641-.1917935.169548-.2089185.209329-.2304685.520507-.020065.289766-.00115.386352.137695.696289.2965295.661974.831956 1.10517 1.501954 1.243165.317172.06531.526671.06578 1.071289.002 2.116997-.248095 4.550828-1.050109 5.246093-1.729493.363503-.355201.507901-.683009.532227-1.203125.04642-.992966-.37872-1.588496-1.137696-1.591796-.59415-.0026-1.191462-.365899-1.436523-.873047-.181492-.37559-.549542-.749234-.893554-.908203-.215016-.09936-.471503-.148101-.775392-.146484z" opacity=".2"/><path d="m12.095703 5c-.09433 0-.07536.350125.02343.4296875.111225.089571.274176.4028625.322266.6191405l.03808.1689455-.306641.061523c-.729254.1469035-.870955.6253745-.40039 1.350586.165224.254647.16698.261535.134765.8134765-.02416.413918-.01187.624936.04883.823242.09421.307842.356704.5910365.631836.680664.304291.099128 1.131404.051722 1.438477-.082031.335954-.146329.772655-.5809345.894541-.8906245.143542-.3647115.089334-.868266-.139647-1.3076175-.220133-.422374-.794481-.9962515-1.193359-1.1923825-.210893-.103698-.310229-.1926755-.38086-.3408205-.100847-.211517-1.004761-1.133789-1.111328-1.133789zm-3.9765625 1c-.012565-.0011-.024605.0036-.035155.01367-.10916.1042935-.197495.651668-.1875 1.163086.00945.484002-.0039.583783-.1044925.745117-.3342225.5360455-.3913955 1.5189545-.120117 2.076172.239853.49267.637558.792544 1.243164.936523.4227605.100509.708825.08672 1.106446-.05176 1.095722-.381604 1.285217-1.125854.499023-1.964844-.318769-.340175-.467773-.6166235-.467773-.8681615 0-.3061575-.1171975-.605948-.3154305-.807617-.1784535-.1815485-.187965-.1840785-.5292965-.1552735-.191354.016145-.417152.04546-.500977.06543-.1391645.033165-.161354.01593-.2617185-.1962895-.060454-.127827-.110579-.342686-.111329-.4785135-.001035-.2097905-.126875-.4699605-.214844-.477539zm9.6914065 2.001953c-.118172-.025995-.155177.278939-.06055.5.04367.1019835.07263.2744895.06445.383789l-.01465.199219-.250977.0049c-.195407.0042-.290015.03868-.426757.1542965-.160041.135318-.404124.5940375-.405274.7617185-.000257.03707-.149126.397698-.331055.800781-.181926.403084-.346074.812497-.365234.910157-.102741.523723.182311.916559.864258 1.189453.287964.115237.588566.124018.915039.02735.530597-.15712.871722-.455154 1.078125-.941407.108838-.256433.124278-.359991.122078-.826194-.00285-.604262-.105681-.985833-.383789-1.420899-.086818-.135817-.193523-.3999525-.236328-.586914-.087624-.3826875-.456188-1.13135-.569336-1.15625zm-12.746094 3.499024c-.013015-.003-.023215-.00075-.030275.0068-.1044741.112229.052756 1.201227.2109375 1.460937.038835.06377.094189.281079.1240235.482422.1353125.913179.7721395 1.765833 1.4951175 2.00293.2469765.08099.782369.05201 1.128906-.06152.2866025-.093863.3834855-.159118.5996095-.402312.4485245-.504705.5293875-1.003058.2285155-1.407227-.079642-.106984-.3227275-.307094-.540039-.444336-.2173145-.137241-.5953455-.389472-.839844-.561523-.716185-.503974-.791872-.551563-.9892575-.610352-.250553-.07462-.5064495.0047-.714844.22168l-.1630855.169922-.1025395-.180664c-.056539-.099632-.102438-.231226-.1025375-.291992-.0001845-.109049-.2135935-.363609-.3046875-.384765zm8.688477.999023c-.303888.0016-.654896.05359-1.05957.15625-1.143651.29012-1.684685.635279-1.930664 1.232422-.106506.258539-.114893.34688-.08594.841797.02945.503169.02135.576999-.09082.828125-.113991.255187-.244628.397695-.8486335.93164-.1917935.169548-.2089185.20933-.2304685.520508-.020065.289766-.00115.386352.137695.696289.2965295.661973.831956 1.10517 1.501954 1.243164.317172.06531.526671.06578 1.071289.002 2.116997-.248095 4.550828-1.050108 5.246093-1.729492.363503-.355202.507901-.68301.532227-1.203125.04642-.992966-.37872-1.588496-1.137696-1.591796-.59415-.0026-1.191462-.365899-1.436523-.873047-.181492-.375588-.549542-.749231-.893554-.9082-.215014-.099411-.471501-.148152-.775389-.146535z" fill="#313131"/></svg>