<svg height="24" width="24" xmlns="http://www.w3.org/2000/svg"><g transform="translate(1 1)"><rect fill="#e4e4e4" height="20" rx="10" transform="matrix(0 -1 -1 0 0 0)" width="20" x="-21" y="-21"/><g transform="scale(1 -1)"><circle cx="9.5" cy="-14" opacity=".2" r="3.5"/><circle cx="9.5" cy="-13.5" fill="#ee9736" r="3.5"/><circle cx="13.5" cy="-12" opacity=".2" r="3.5"/><circle cx="8.5" cy="-9" opacity=".2" r="3.5"/><circle cx="8.5" cy="-8.5" fill="#ffb271" r="3.5"/><circle cx="13.5" cy="-11.5" fill="#535353" r="3.5"/></g><path d="m11 1c-5.54 0-10 4.46-10 10 0 .084.0038.167.0059.25.1323-5.4231 4.538-9.75 9.9941-9.75s9.8618 4.3269 9.9941 9.75c.002-.083.006-.166.006-.25 0-5.54-4.46-10-10-10z" fill="#fff" opacity=".2"/><path d="m1.0059 11.25c-.0021.083-.0059.166-.0059.25 0 5.54 4.46 10 10 10s10-4.46 10-10c0-.08394-.0038-.16657-.0059-.25-.132 5.423-4.538 9.75-9.994 9.75-5.4561 0-9.8618-4.327-9.9941-9.75z" opacity=".2"/></g></svg>