<svg height="24" viewBox="0 0 24 24" width="24" xmlns="http://www.w3.org/2000/svg"><path d="m2.0098 12.207a10 10 0 0 0 -.0098.293 10 10 0 0 0 10 10 10 10 0 0 0 10-10 10 10 0 0 0 -.0098-.20703 10 10 0 0 1 -9.99 9.707 10 10 0 0 1 -9.9902-9.793z" opacity=".2"/><circle cx="12" cy="12.053" fill="#fff" r="8.571"/><path d="m12 2.0525735a10.000179 10.007685 0 0 0 -10 10.007852 10.000179 10.007685 0 0 0  .007673.145061 10.000179 10.007685 0 0 1 9.992327-9.7958389 10.000179 10.007685 0 0 1 9.992327 9.8572109 10.000179 10.007685 0 0 0  .007673-.206433 10.000179 10.007685 0 0 0 -10-10.007852z" fill="#fff" opacity=".2"/><path d="m12 1.9999997a10 10 0 0 0 -10 10.0000003 10 10 0 0 0 10 10 10 10 0 0 0 9.999999-10 10 10 0 0 0 -9.999999-10.0000003z" fill="#4f4f4f"/><path d="m12.000001 5.4999981a7.0000009 7.0000009 0 0 1 6.999999 7.0000009 7.0000009 7.0000009 0 0 1 -6.999999 7.000001 7.0000009 7.0000009 0 0 1 -7.000001-7.000001 7.0000009 7.0000009 0 0 1 7.000001-7.0000009z" opacity=".2"/><path d="m12.000001 4.9999991a7.0000009 7.0000009 0 0 1 6.999999 7.0000009 7.0000009 7.0000009 0 0 1 -6.999999 7.000001 7.0000009 7.0000009 0 0 1 -7.000001-7.000001 7.0000009 7.0000009 0 0 1 7.000001-7.0000009z" fill="#fff"/><path d="m10.1 6-1.3340703 4.257115-1.1014229.385742-.6645067 2.642857 1.0030692-.350865-1.0030692 3.065151h4.2857139 5.049779l.664507-3h-4.860047l.616186-1.728795 1.586607-.485491.664507-2.6428573-1.487556.450614.880303-2.5934707z" fill="#4f4f4f"/><path d="m12 2a10 10 0 0 0 -10 10 10 10 0 0 0  .0097656.207031 10 10 0 0 1 9.9902344-9.707031 10 10 0 0 1 9.990234 9.792969 10 10 0 0 0  .009766-.292969 10 10 0 0 0 -10-10z" fill="#fff" opacity=".1"/></svg>