<svg height="24" viewBox="0 0 24 24" width="24" xmlns="http://www.w3.org/2000/svg"><g transform="translate(0 -1028.3622)"><circle cx="12" cy="1040.862" opacity=".2" r="10"/><circle cx="12" cy="1040.362" fill="#e4e4e4" r="10"/><path d="m12 1030.3622a10 10 0 0 0 -10 10 10 10 0 0 0  .010742.291 10 10 0 0 1 9.9892578-9.791 10 10 0 0 1 9.989258 9.709 10 10 0 0 0  .01074-.209 10 10 0 0 0 -10-10z" fill="#fff" opacity=".2"/><rect fill="#469961" height="2" ry="1" width="10" x="13" y="1039.36"/><rect fill="#438f96" height="2" ry="1" width="10" x="1" y="1036.36"/><rect fill="#469961" height="2" ry="1" width="10" x="1" y="1042.36"/><path d="m8 1045.3622c1.337-4 1.337-6 0-10 6.230865 0 9 5 9 5s-2.769135 5-9 5z" fill="#3f3f3f"/></g></svg>