<svg height="24" viewBox="0 0 24 24" width="24" xmlns="http://www.w3.org/2000/svg"><path d="m11.682849 2.5008771c-5.2314866-.00469-9.5419473 4.3035041-9.6794693 9.7380619-.139869 5.52082 4.0790475 10.113239 9.4226393 10.257582 2.60331.07027 4.992417-.928299 6.775238-2.609316.190362-.158825.293939-.257807.293939-.257807s1.933308-2.029095 2.037064-3.704019c-.493308.81498-.945818 1.630977-2.17378 2.235302-.56316.260866-1.079346.482813-1.599573.658188-.03331.0085-.06675.01634-.100584.02442-.246407.05882-.504663.108215-.775373.145504-.03281.0045-.06649.0085-.09961.0127-.280761.03561-.570659.06153-.870098.07422-.03082.0013-.06277.0009-.09375.0019-.295407.01011-.597535.0092-.904277-.0029-.02002-.0008-.03952-.000086-.05957-.001-.311939-.01384-.62827-.04212-.945291-.0791-.04524-.0053-.09047-.0089-.135739-.01465-.308599-.03921-.617075-.09102-.923808-.15234-.04955-.0099-.09901-.01979-.148434-.03027-.300166-.0637-.597639-.138462-.889628-.223628-.09362-.02731-.186884-.05543-.279291-.08496-.06984-.02231-.139924-.04379-.208979-.06738-.09868-.0337-.195088-.07014-.291986-.106443-.079031-.0296-.1586161-.0585-.2363229-.08984-.090048-.03632-.177528-.0756-.265619-.114256-.074656-.03275-.1505021-.0642-.223628-.09863-.1592029-.074988-.3157014-.153393-.466779-.236341-.1202343-.066509-.2346622-.136145-.3437422-.20898-.2505044-.167266-.4691365-.351625-.6650246-.544909-1.0198235-1.040721-.9724751-2.264416-.9189243-3.057549.067471-.996264.9027272-3.182091 3.651285-4.3397457 1.698221-.5996201 3.695459-1.0189826 5.365114-.4814347 1.255953.2833791 2.159082.6954403 3.35344 1.1171624 0 0-.0097.02078.320305.102537 2.322781.367945 2.062049-1.5456001 2.062049-1.5456001l-.182066-.4478034c-.04027-.2359757.136478-.4220805.136478-.4220805s-.143173-.5276616-.119043-.8763853c.02446-.3485631.0047-.7953576-.07129-1.4325848-.076003-.6372726-.494264-.8910824-.629866-.9901379-.135912-.098877-.769201-.5763018-1.375945-.8144348-.607116-.2381362-1.220719-.4141242-1.976519-.3076103-.08392.011866-.163349.024698-.246087.037109-.01465-.00465-.02614-.00995-.04199-.014648-.288205-.085591-.492074-.5519799-.727522-.5463388-.01802.0004321-.03624.00198-.05469.0039-.01816.0019-.037.00433-.05566.00781h-.001c-.01903.00355-.03795.00834-.05762.013672-.02147.00583-.04215.013459-.06152.02246-.137787.064054-.222196.3051313-.274387.4632596-1.208907-.6110508-2.560607-.9701385-3.994051-1.0087663-.08349-.00226-.165979-.00383-.249018-.00391zm-2.8358735 5.3758555c-.3375849.2451355-1.6636176 1.2197855-2.469671 2.5780674.8060534-1.3582809 1.1921342-1.7218477 2.469671-2.5780674zm8.5193395 10.7585474c-.177469.06614-.370112.122111-.568346.173824.198122-.05169.390996-.10773.568346-.173824z" opacity=".2"/><path d="m13.500191 5.5003826a7.4998313 7.4998313 0 0 0 -7.499831 7.4998314 7.4998313 7.4998313 0 0 0 7.499831 7.499831 7.4998313 7.4998313 0 0 0 7.499832-7.499831 7.4998313 7.4998313 0 0 0 -7.499832-7.4998314z" fill="#f8952b"/><path d="m13.350195 8.2299176c.929013.2198221 1.029812 1.4038465 1.777094 1.692193.997142.4050434 1.08218-.8629551.567356-1.5334465" fill="#946857"/><path d="m15.902126 5.5107116c-1.046433-.0012499-2.180865.3049522-3.009399.5930968-1.57123.5560009-3.2725062.8632664-4.5456117 1.7730849-.3375849.2451355-1.5533619 1.2191786-2.3594153 2.5774597-2.2275649 3.938307-.040685 8.33472 2.8399309 9.284906 3.1670661 1.184415 6.5554461 1.311803 10.3685431-2.058039-.328209.262668-.925193.655635-1.830112.953655-2.157024.803883-5.967402.54566-8.5258889-.859052-2.0582882-1.138563-1.8944386-2.814996-1.8271731-3.81126.067471-.996264.8025762-3.182464 3.551134-4.340117 1.698221-.59962 3.695104-1.0189526 5.364759-.4814046 1.255953.2833791 2.158731.7963807 3.353089 1.2181026 0 0-.0098.02047.320135.102231 2.322781.367896 2.397883-1.6764666 2.397883-1.6764666l-.066229-.3724592-.202207-.5053601-.096363-.2165181-.058123-.1173374s-.01675-.1477356-.04023-.2978453c-.044488.5610889-.267914.7232093-.267914.7232093-1.805328-.3422843-2.128005-1.6136002-4.031507-2.2669595-.402308-.1582194-.85965-.222359-1.335301-.2229265zm3.294048 12.1705084c.210278-.168286.312151-.283274.312182-.283197-.104424.09757-.208392.191473-.312182.283197z" opacity=".2"/><path d="m11.682849 2.0004613c-5.2314866-.00469-9.5419473 4.3035042-9.6794693 9.7380617-.139869 5.52082 4.0790475 10.113239 9.4226393 10.257582 2.60331.07027 4.992417-.928299 6.775238-2.609316.190362-.158824.293939-.257807.293939-.257807s1.933308-2.029095 2.037064-3.704018c-.493308.814979-.945818 1.630977-2.17378 2.235301-.56316.260866-1.079346.482814-1.599573.658189-.03331.0085-.06675.01634-.100584.02441-.246407.05882-.504663.108215-.775373.145504-.03281.0045-.06649.0085-.09961.0127-.280761.03561-.570659.06153-.870098.07422-.03082.0013-.06277.0009-.09375.002-.295407.01011-.597535.0092-.904277-.003-.02002-.0008-.03952-.000086-.05957-.001-.311939-.01383-.62827-.04212-.945291-.0791-.04524-.0053-.09047-.0089-.135739-.01465-.308599-.03921-.617075-.09102-.923808-.15234-.04955-.0099-.09901-.01979-.148434-.03027-.300166-.0637-.597639-.138463-.889628-.223628-.09362-.02731-.186884-.05543-.279291-.08496-.06984-.02231-.139924-.04379-.208979-.06738-.09868-.03371-.195088-.07014-.291986-.106444-.079031-.0296-.1586161-.0585-.2363229-.08984-.090048-.03632-.177528-.0756-.265619-.114255-.074656-.03276-.1505021-.0642-.223628-.09863-.1592029-.074979-.3157014-.153384-.466779-.236332-.1202343-.066508-.2346622-.136144-.3437422-.20898-.2505044-.167266-.4691365-.351624-.6650246-.544909-1.0198235-1.040721-.9724751-2.264415-.9189243-3.057549.067471-.996264.9027272-3.182091 3.651285-4.3397455 1.698221-.59962 3.695459-1.0189826 5.365114-.4814347 1.255953.2833792 2.159082.6954404 3.35344 1.1171624 0 0-.0097.020784.320305.1025367 2.322781.3679451 2.062049-1.5455997 2.062049-1.5455997l-.182066-.4478034c-.04027-.2359757.136478-.4220805.136478-.4220805s-.143173-.5276617-.119043-.8763853c.02446-.3485632.0047-.7953576-.07129-1.4325848-.076-.6372725-.494265-.8910825-.629867-.990138-.135911-.098877-.7692-.5763018-1.375944-.8144348-.607116-.2381362-1.220719-.4141242-1.976519-.3076103-.08392.011866-.163349.024698-.246087.037109-.01465-.00465-.02614-.00995-.04199-.014648-.288205-.085591-.492074-.5519799-.727522-.5463388-.01802.0004321-.03624.00197-.05469.0039-.01816.0019-.037.00433-.05566.00781h-.001c-.01903.00355-.03795.00834-.05762.013672-.02147.00583-.04215.013459-.06152.022461-.137787.064055-.222196.3051313-.274387.4632596-1.208907-.6110508-2.560607-.9701385-3.994051-1.0087663-.08349-.00226-.165979-.00383-.249018-.00391zm-2.8358735 5.3758555c-.3375849.2451355-1.6636176 1.2197856-2.469671 2.578067.8060534-1.3582804 1.1921342-1.7218472 2.469671-2.578067zm8.5193395 10.7585472c-.177469.06614-.370112.122111-.568346.173824.198122-.05168.390996-.10773.568346-.173824z" fill="#946857"/><path d="m15.902126 5.0104516c-1.046433-.0012499-2.180865.3049522-3.009399.5930968-1.57123.5560009-3.2725062.8632664-4.5456117 1.7730849-.3375849.2451355-1.5533619 1.2191786-2.3594153 2.57746-2.2275649 3.9383077-.0406852 8.3347207 2.8399309 9.2849067 3.1670661 1.184415 6.5554461 1.311803 10.3685431-2.058039-.328209.262668-.925193.655635-1.830112.953655-2.157024.803883-5.967402.54566-8.5258889-.859052-2.0582882-1.138563-1.8944386-2.814996-1.8271731-3.81126.067471-.996264.8025762-3.182464 3.551134-4.340118 1.698221-.59962 3.695104-1.0189526 5.364759-.4814046 1.255953.2833791 2.158731.7963807 3.353089 1.2181027 0 0-.0098.020474.320135.1022318 2.322781.3678961 2.397883-1.6764675 2.397883-1.6764675l-.066229-.3724592-.202207-.5053601-.096363-.2165181-.058123-.1173374s-.01675-.1477356-.04023-.2978453c-.044488.5610889-.267914.7232093-.267914.7232093-1.805328-.3422843-2.128005-1.6136002-4.031507-2.2669595-.402308-.1582194-.85965-.222359-1.335301-.2229265zm3.294048 12.1705094c.210278-.168286.312151-.283274.312182-.283197-.104424.09757-.208392.191473-.312182.283197z" fill="#d3c9c6"/><path d="m16.891834 3.7339343c.03327-.000705.07732.038248.108279.053581-.207555.1373203-.148762.3696713-.371862.4995783-.185871.1265383-.421108.1850044-.628116.213311.09314-.2812131-.01732-.8168489.270556-.9796124.195281-.1004216.233857.2038753.472229.1907333.00013-.0001786.101868.023251.148914.022409z" opacity=".2"/><path d="m16.891834 3.2339458c.03327-.000705.07732.038248.108279.053581-.207555.1373203-.148762.3696713-.371862.4995783-.185871.1265383-.421108.1850044-.628116.213311.09314-.2812131-.01732-.8168489.270556-.9796124.195281-.1004216.233857.2038753.472229.1907333.00013-.0001786.101868.023251.148914.022409z" fill="#3f3f3f"/><path d="m11.682849 2.0004613c-5.2314866-.00469-9.5419473 4.3035042-9.6794693 9.7380617-.00425.167615-.0037.334184 0 .499989.137522-5.4345578 4.4479827-9.7427527 9.6794693-9.7380619.08304.000075.165526.00164.249018.0039 1.433444.038628 2.785144.3977155 3.994051 1.0087663.05219-.1581283.136621-.3988258.274408-.4628802.01937-.009.04005-.016634.06152-.022461.01966-.00533.03858-.010122.05762-.013672h.001c.01867-.00348.03751-.00591.05566-.00781.01844-.00193.03667-.00347.05469-.0039.235448-.00564.439317.4612721.727522.5468627.01585.0047.02734.01.04199.014648.08274-.01241.162169-.025243.246087-.037109.7558-.1065138 1.369403.069474 1.976519.3076103.606744.238133 1.240033.7155577 1.375945.8144348.135602.099056.553865.3519628.629869.989236.03718.3118129.05962.576178.07129.8075988.01368-.331738-.0031-.7358215-.07129-1.3075876-.076028-.6372737-.494291-.8911577-.629893-.9902133-.135912-.098877-.769201-.5763017-1.375945-.8144348-.607116-.2381361-1.220719-.4141241-1.976519-.3076103-.08392.011866-.163349.024698-.246087.037109-.01465-.00465-.02614-.00995-.04199-.014648-.288206-.085591-.492075-.5515273-.727523-.5458862-.01802.0004321-.03624.00197-.05469.0039-.01816.0019-.03699.00433-.05566.00781h-.001c-.01903.00355-.03795.00834-.05761.013672-.02147.00583-.04215.013459-.06152.022461-.137764.064055-.222194.304753-.274385.4628813-1.208907-.6110508-2.560607-.9701385-3.994051-1.0087663-.08349-.00226-.165979-.00383-.249018-.00391zm9.818139 4.6170836c.0038.1621269.0081.3231047-.001.4531148-.01047.1513871.01285.333107.04004.4941294.03783-.070429.0791-.1181613.0791-.1181613s-.128578-.4817412-.118162-.8290829zm.05273 1.4267259c-.04728.076103-.09564.1825179-.07129.3251877l.163082.399405c.03857-.2517633.01953-.4521383.01953-.4521383z" fill="#fff" opacity=".2"/><path d="m5.8274175 9.6491714-.010835.08922c.7264331-.0368 2.5171771.1206062 3.1776157.5838276.5120325.345675.9732836.861552 1.6297828.628162.44883-.157404.473768-.423946.301722-.862232-.145286-.3563654-.385447-.9717404-.682423-1.2076755-.4278165-.3385524-1.5338001-.2203301-1.5892883-.9283062-.0416991-.3346519.159023-.7082593.3460083-.9521673-.000345 0-3.0320562.6602584-3.1725825 2.6491714z" fill="#946857"/><path d="m21.268934 8.0003263s-.08641.2724609-.492138.2963698c-.405572.024224-.335426.5882463.01626.9040317.351847.3159469.627011.4025949.861521.1601394.234193-.2419741.80939-.6434445-.385643-1.3605409z" opacity=".2"/><path d="m21.268934 7.5003376s-.08641.2724608-.492138.2963698c-.405572.024224-.335426.5882463.01626.9040316.351847.3159469.627011.402595.861521.1601394.234193-.241974.80939-.6434445-.385643-1.3605408z" fill="#3f3f3f"/><path d="m19.341534 7.21416c-.255081.3254762-.726326.3815024-1.052787.1259177-.326459-.2568953-.384927-.7283406-.129661-1.0540048.254529-.3249147.726143-.3811284 1.052419-.1251687.326643.2565212.384374.7277786.130029 1.0532558z" opacity=".2"/><path d="m19.341534 6.7141712c-.255081.3254762-.726326.3815025-1.052787.1259177-.326459-.2568952-.384927-.7283406-.129661-1.0540048.254529-.3249147.726143-.3811284 1.052419-.1251687.326643.2565213.384374.7277787.130029 1.0532558z" fill="#3f3f3f"/><path d="m21.801792 7.2679203c-.02101.2755113-.196343.4823226-.391371.4614451-.194865-.020339-.33572-.2598082-.314213-.5358544.02118-.2751538.196177-.4817867.391043-.4612662.194864.021055.335718.2603432.314541.5356755z" opacity=".2"/><path d="m21.801792 6.7679315c-.02101.2755113-.196343.4823227-.391371.4614452-.194865-.02034-.33572-.2598082-.314213-.5358545.02118-.2751538.196177-.4817866.391043-.4612661.194864.021054.335718.2603431.314541.5356754z" fill="#3f3f3f"/></svg>