<svg height="24" viewBox="-2.01 0 24 24" width="24" xmlns="http://www.w3.org/2000/svg"><path d="m6.99 2.502a6 6 0 0 0 -6 6 6 6 0 0 0 1.5371094 4 6 6 0 0 0 -1.5371094 4 6 6 0 0 0 6 6 6 6 0 0 0 5.654297-4.017578 6 6 0 0 0  .345703.01758 6 6 0 0 0 6-6 6 6 0 0 0 -6-6 6 6 0 0 0 -.345703.013672 6 6 0 0 0 -5.654297-4.013674z" opacity=".2"/><circle cx="12.99" cy="12.002" fill="#5f81d4" r="6"/><circle cx="6.99" cy="8.002" fill="#5f81d4" r="6"/><path d="m9 2a6 6 0 0 0 -6 6 6 6 0 0 0  .0097656.2148438 6 6 0 0 1 5.9902344-5.7148438 6 6 0 0 1 5.654297 4.0136719 6 6 0 0 1  .345703-.0136719 6 6 0 0 1 5.990234 5.785156 6 6 0 0 0  .009766-.285156 6 6 0 0 0 -6-6 6 6 0 0 0 -.345703.0136719 6 6 0 0 0 -5.654297-4.0136719z" fill="#fff" opacity=".2" transform="translate(-2.01 .002)"/><circle cx="6.99" cy="16.002" fill="#5f81d4" r="6"/><path d="m10.49 5.502a3.5 3.5 0 0 0 -3.5 3.5 3.5 3.5 0 0 0 3.5 3.5 3.5 3.5 0 0 0 3.5-3.5 3.5 3.5 0 0 0 -3.5-3.5zm0 7a3.5 3.5 0 0 0 -2.5585938 1.119141 3.5 3.5 0 0 0  .0585938-.619141 3.5 3.5 0 0 0 -3.5-3.5 3.5 3.5 0 0 0 -3.5 3.5 3.5 3.5 0 0 0 3.5 3.5 3.5 3.5 0 0 0 2.5585938-1.119141 3.5 3.5 0 0 0 -.0585938.619141 3.5 3.5 0 0 0 3.5 3.5 3.5 3.5 0 0 0 3.5-3.5 3.5 3.5 0 0 0 -3.5-3.5z" opacity=".2"/><g fill="#f2f2f2"><circle cx="4.49" cy="12.502" r="3.5"/><circle cx="10.49" cy="15.502" r="3.5"/><circle cx="10.49" cy="8.502" r="3.5"/></g><path d="m4.2203885 5.5410755c.2427275-.1186895.475915.07086.475915.07086l5.5685895 3.21916 5.384159 3.1157055s.340948.162623.340948.551289c0 .389729-.343774.516568-.343774.516568l-5.393699 3.115705-5.6940165 3.288958s-.1660575.144199-.380166.05173c-.244494-.10629-.180897-.37662-.180897-.37662v-6.613699-6.5070545c.000353 0-.02685-.3103655.222941-.432599z" opacity=".2"/><path d="m4.2203885 5.0410748c.2427275-.1186897.475915.07086.475915.07086l5.5685895 3.21916 5.384159 3.1157062s.340948.162623.340948.551289c0 .389729-.343774.516568-.343774.516568l-5.393699 3.115705-5.6940165 3.288958s-.1660575.144199-.380166.05173c-.244494-.10629-.180897-.37662-.180897-.37662v-6.613699-6.5070552c.000353 0-.02685-.3103655.222941-.432599z" fill="#ffbf00"/></svg>