<svg height="24" viewBox="0 0 24 24" width="24" xmlns="http://www.w3.org/2000/svg"><g transform="translate(1 1)"><rect fill="#be212e" height="20" rx="1.053" width="20" x="1" y="1"/><path d="m6.4766 5.5019c-.6964.0222-1.3676.3427-1.8828.8301-.5237.4954-.8986 1.1765-.9747 1.9082-.038016.36588-.00158.74054.11523 1.0879.1168.3474.31391.66689.57617.91406.30931.29152.69554.47509 1.0508.70312.17762.11404.34897.24059.49609.39453.14713.15394.27053.33758.33789.54297.059934.18275.073634.3793.046875.57031-.026757.19107-.09424.37579-.19336.53906-.19824.32659-.51838.56426-.86914.69141-.40684.14745-.85395.15427-1.2461.33984-.3103.14684-.57159.40346-.73438.71484s-.22707.67729-.1875 1.0293c.04649.41361.23593.80558.52148 1.0977.28555.29207.66453.48205 1.0605.54492.58071.09218 1.2009-.10074 1.623-.52539.21107-.21232.37301-.47695.46289-.76758.089879-.29069.10722-.60702.048828-.90625-.0445-.229-.1314-.445-.2128-.662-.0813-.217-.1581-.44-.1777-.672-.0346-.41.1169-.826.3789-1.135.26202-.30867.62717-.51177 1.0137-.60156.24937-.05794.50987-.07224.76172-.02734.25185.04496.49515.14877.69922.30859.20407.15983.36838.37666.45898.625s.10545.52842.0332.7832c-.07399.26094-.23341.48484-.39453.69922s-.32809.42847-.42383.68164c-.10559.2792-.11726.5943-.044922.88476.072339.29041.22555.5574.42578.77344.22151.23902.50156.41773.80664.51562.30508.09795.61821.11523.9375.11523s.65195-.01728.95703-.11523c.30508-.0979.58513-.2766.80664-.51562.20023-.21604.35344-.48303.42578-.77344.07234-.29046.06067-.60557-.04492-.88476-.09575-.25317-.26271-.46726-.42383-.68164s-.32054-.43828-.39453-.69922c-.07224-.25478-.0574-.53486.0332-.7832s.25492-.46517.45898-.625c.20407-.15983.44737-.26364.69922-.30859.25185-.04489.51235-.03059.76172.02734.3865.08979.75165.2929 1.0137.60156.26202.30867.41352.72471.37891 1.1348-.01961.23225-.09641.45455-.17773.67188-.08132.21727-.1683.43364-.21289.66211-.0584.29923-.04105.61556.04883.90625.08988.29063.25182.55525.46289.76758.42214.42465 1.0423.61757 1.623.52539.39602-.06288.77499-.25285 1.0605-.54492.28555-.29207.47499-.68405.52148-1.0977.03957-.35201-.02471-.71791-.1875-1.0293-.16279-.31138-.42407-.568-.73438-.71484-.39214-.18558-.83925-.19239-1.2461-.33984-.35076-.12714-.6709-.36482-.86914-.69141-.09912-.16327-.1666-.34799-.19336-.53906-.02676-.19102-.01307-.38757.04688-.57031.06736-.20539.19076-.38902.33789-.54297s.31847-.28049.49609-.39453c.35524-.22803.74147-.4116 1.0508-.70312.262-.247.459-.5665.576-.9139.116-.3473.153-.722.115-1.0879-.076-.7317-.451-1.4128-.975-1.9082-.515-.4874-1.186-.8079-1.883-.8301-.34819-.0111-.70053.050672-1.0215.19141-.32096.14074-.61.35964-.83203.63867-.25454.31988-.41405.70956-.56055 1.0957-.1465.38619-.28599.77982-.50781 1.125-.365.5692-.942 1.1094-1.601 1.1094s-1.2358-.5402-1.6016-1.1094c-.2218-.3452-.3613-.7388-.5078-1.125-.1465-.3861-.306-.7758-.5605-1.0957-.222-.279-.5111-.4979-.8321-.6386-.3209-.1408-.6733-.2025-1.0214-.1915zm4.5234 4.9981a1 1 0 0 1 1 1 1 1 0 0 1 -1 1 1 1 0 0 1 -1-1 1 1 0 0 1 1-1z" opacity=".2"/><path d="m6.4766 5.002c-.6964.0222-1.3676.3426-1.8828.83-.5237.4954-.8986 1.1765-.9747 1.9082-.038016.36588-.00158.74054.11523 1.0879.1168.3474.31391.66689.57617.91406.30931.29152.69554.47509 1.0508.70312.17762.11404.34897.24059.49609.39453.14713.15394.27053.33758.33789.54297.059934.18275.073634.3793.046875.57031-.026757.19107-.09424.37579-.19336.53906-.19824.32659-.51838.56426-.86914.69141-.40684.14745-.85395.15427-1.2461.33984-.3103.14684-.57159.40346-.73438.71484s-.22707.67729-.1875 1.0293c.04649.41361.23593.80558.52148 1.0977.28555.29207.66453.48205 1.0605.54492.58071.09218 1.2009-.10074 1.623-.52539.21107-.21232.37301-.47695.46289-.76758.089879-.29069.10722-.60702.048828-.90625-.0445-.229-.1314-.445-.2128-.662-.0813-.217-.1581-.44-.1777-.672-.0346-.41.1169-.826.3789-1.135.26202-.30867.62717-.51177 1.0137-.60156.24937-.05794.50987-.07224.76172-.02734.25185.04496.49515.14877.69922.30859.20407.15983.36838.37666.45898.625s.10545.52842.0332.7832c-.07399.26094-.23341.48484-.39453.69922s-.32809.42847-.42383.68164c-.10559.2792-.11726.5943-.044922.88476.072339.29041.22555.5574.42578.77344.22151.23902.50156.41773.80664.51562.305.099.618.116.937.116.31929 0 .65195-.01728.95703-.11523.30508-.0979.58513-.2766.80664-.51562.20023-.21604.35344-.48303.42578-.77344.07234-.29046.06067-.60557-.04492-.88476-.09575-.25317-.26271-.46726-.42383-.68164s-.32054-.43828-.39453-.69922c-.07224-.25478-.0574-.53486.0332-.7832s.25492-.46517.45898-.625c.20407-.15983.44737-.26364.69922-.30859.25185-.04489.51235-.03059.76172.02734.3865.08979.75165.2929 1.0137.60156.26202.30867.41352.72471.37891 1.1348-.01961.23225-.09641.45455-.17773.67188-.08132.21727-.1683.43364-.21289.66211-.0584.29923-.04105.61556.04883.90625.08988.29063.25182.55525.46289.76758.42214.42465 1.0423.61757 1.623.52539.39602-.06288.77499-.25285 1.0605-.54492.28555-.29207.47499-.68405.52148-1.0977.03957-.35201-.02471-.71791-.1875-1.0293-.16279-.31138-.42407-.568-.73438-.71484-.39214-.18558-.83925-.19239-1.2461-.33984-.35076-.12714-.6709-.36482-.86914-.69141-.09912-.16327-.1666-.34799-.19336-.53906-.02676-.19102-.01307-.38757.04688-.57031.06736-.20539.19076-.38902.33789-.54297s.31847-.28049.49609-.39453c.35524-.22803.74147-.4116 1.0508-.70312.263-.2473.46-.5668.577-.9142.116-.3473.153-.722.115-1.0879-.076-.7317-.451-1.4128-.975-1.9082-.515-.4874-1.186-.8078-1.883-.83-.34819-.0111-.70053.050672-1.0215.19141-.32096.14074-.61.35964-.83203.63867-.25454.31988-.41405.70956-.56055 1.0957-.1465.38619-.28599.77982-.50781 1.125-.365.5692-.942 1.1093-1.601 1.1093s-1.2358-.5401-1.6016-1.1094c-.2218-.3451-.3613-.7388-.5078-1.125-.1465-.3861-.306-.7758-.5605-1.0957-.222-.279-.5111-.4979-.8321-.6386-.3209-.1408-.6733-.2025-1.0214-.1914zm4.5234 4.998a1 1 0 0 1 1 1 1 1 0 0 1 -1 1 1 1 0 0 1 -1-1 1 1 0 0 1 1-1z" fill="#fff"/><path d="m2.0527 1c-.5831 0-1.0527.4696-1.0527 1.0527v.5c0-.5831.4696-1.0527 1.0527-1.0527h17.895c.582 0 1.052.4696 1.052 1.0527v-.5c0-.5831-.47-1.0527-1.053-1.0527z" fill="#fff" opacity=".2"/><path d="m1 19.947v.5c0 .583.4696 1.053 1.0527 1.053h17.895c.582 0 1.052-.47 1.052-1.053v-.5c0 .583-.47 1.053-1.053 1.053h-17.894c-.5834 0-1.053-.47-1.053-1.053z" opacity=".2"/></g></svg>