<svg height="24" width="24" xmlns="http://www.w3.org/2000/svg"><g transform="translate(1 1)"><rect fill="#e4e4e4" height="20" rx="1" transform="matrix(0 -1 -1 0 0 0)" width="20" x="-21" y="-21"/><path d="m2 1c-.554 0-1 .446-1 1v .5c0-.554.446-1 1-1h18c .554 0 1 .446 1 1v-.5c0-.554-.446-1-1-1z" fill="#fff" opacity=".2"/><path d="m2 21.5c-.554 0-1-.446-1-1v-.5c0 .554.446 1 1 1h18c .554 0 1-.446 1-1v .5c0 .554-.446 1-1 1z" opacity=".2"/><path d="m16.09 8.5481a6.4169 4.7612 59 0 1 -8.1622 4.9039 6.4169 4.7612 59 1 1 8.1622-4.9039z" fill="none" stroke="#474747" stroke-width=".534"/><path d="m12 7.4923c-2.1236 0-3.8442 1.7201-3.8442 3.8442s1.7201 3.8442 3.8442 3.8442 3.8442-1.7201 3.8442-3.8442-1.7201-3.8442-3.8442-3.8442zm-.68753 2.0316c1.4441 0 2.6251 1.1656 2.6251 2.6096 0 1.4441-1.1811 2.6251-2.6251 2.6251-1.4441 0-2.6096-1.1811-2.6096-2.6251 0-1.4441 1.1656-2.6096 2.6096-2.6096z" fill="#2a58ae"/><path d="m4.1735 11.371s-1.5004 1.4328-1.3832 2.3276c.1617 1.2342 1.7116 1.4311 2.9348 1.4168 2.9656-.0341 13.528-3.4996 13.493-7.6571-.011-1.3442-2.4288-1.463-2.4288-1.3832 0 0 1.793.4499 1.754 1.3156-.146 3.2263-8.9684 6.8493-12.887 6.9483-.8218.021-1.9664-.156-2.2936-.911-.2932-.676.8096-2.057.8096-2.057z" fill="#474747"/><path d="m16.048 7.5067a1.8723 1.8723 0 0 1 -3.7447 0 1.8723 1.8723 0 1 1 3.7447 0z" fill="#d24646"/><path d="m10.938 13.731a1.1976 1.1976 0 0 1 -2.3952 0 1.1976 1.1976 0 1 1 2.3952 0z" fill="#606060"/></g></svg>