<svg height="24" viewBox="0 0 24 24" width="24" xmlns="http://www.w3.org/2000/svg"><g transform="translate(0 -1)"><path d="m9.681 15.111c2.589 1.507 2.85 2.662 2.319 3.59s-1.6547 1.277-4.2435-.229c-2.5888-1.507-5.5164-4.556-5.7565-5.592 1.0099-.308 5.0921.724 7.681 2.231z" opacity=".2"/><path d="m9.681 14.611c2.589 1.507 2.85 2.662 2.319 3.59s-1.6547 1.277-4.2435-.229c-2.5888-1.507-5.5164-4.556-5.7565-5.592 1.0099-.308 5.0921.724 7.681 2.231z" fill="#fec8a4"/><path d="m11.772 14.423c1.4947 2.6101 1.1483 3.7424.22776 4.2782-.92.536-2.0664.272-3.5611-2.338s-2.5183-6.7255-2.2124-7.7436c1.0275.242 4.0511 3.1936 5.5455 5.8036z" opacity=".2"/><path d="m11.772 13.923c1.4947 2.6101 1.1483 3.7424.22776 4.2782-.92.536-2.0664.272-3.5611-2.338s-2.5183-6.7255-2.2124-7.7436c1.0275.242 4.0511 3.1936 5.5455 5.8036z" fill="#fba66f"/><path d="m13.924 14.881c0 3.0138-.86163 3.8198-1.9245 3.8198s-1.9245-.80602-1.9245-3.8198 1.1547-7.094 1.9245-7.8216c.7698.72759 1.9245 4.8078 1.9245 7.8216z" opacity=".2"/><path d="m13.924 14.381c0 3.0138-.86163 3.8198-1.9245 3.8198s-1.9245-.80602-1.9245-3.8198 1.1547-7.094 1.9245-7.8216c.7698.72759 1.9245 4.8078 1.9245 7.8216z" fill="#f8863b"/><path d="m15.561 16.363c-1.4947 2.6101-2.6406 2.8738-3.5611 2.338-.92048-.5358-1.2669-1.6682.22776-4.2782s4.5182-5.5615 5.5457-5.8035c.30582 1.0181-.71772 5.1338-2.2124 7.7438z" opacity=".2"/><path d="m15.561 15.863c-1.4947 2.6101-2.6406 2.8738-3.5611 2.338-.92048-.5358-1.2669-1.6682.22776-4.2782s4.5182-5.5615 5.5457-5.8035c.30582 1.0181-.71772 5.1338-2.2124 7.7438z" fill="#f76d12"/><path d="m16.244 18.472c-2.5889 1.5069-3.7121 1.1576-4.2435.22963-.53143-.92802-.26987-2.0833 2.319-3.5902s6.6711-2.5388 7.681-2.2305c-.24009 1.0359-3.1676 4.0842-5.7565 5.5911z" opacity=".2"/><path d="m16.244 17.972c-2.5889 1.5069-3.7121 1.1576-4.2435.22963-.53143-.92802-.26987-2.0833 2.319-3.5902s6.6711-2.5388 7.681-2.2305c-.24009 1.0359-3.1676 4.0842-5.7565 5.5911z" fill="#d75908"/><path d="m12.5 20.99995c-.995816 0-1.006395-1.491749-1-2" fill="none" opacity=".2" stroke="#000" stroke-linecap="round" stroke-linejoin="bevel"/><path d="m12.5 20.5c-.995816 0-1.006395-1.491749-1-2" fill="none" stroke="#3aa03d" stroke-linecap="round" stroke-linejoin="bevel"/></g></svg>