<svg height="24" width="24" xmlns="http://www.w3.org/2000/svg"><rect fill="#5294e2" height="12" rx=".75" width="18" x="3" y="2"/><rect height="12" opacity=".1" rx=".75" width="18" x="3" y="3.5"/><rect fill="#89e058" height="12" rx=".75" width="18" x="3" y="4"/><rect height="12" opacity=".1" rx=".75" width="18" x="3" y="5.5"/><rect fill="#ffcd54" height="12" rx=".75" width="18" x="3" y="6"/><rect height="14" opacity=".2" rx="1" width="20" x="2" y="8.5"/><rect fill="#8e8e8e" height="14" rx="1" width="20" x="2" y="8"/><rect height="2" opacity=".2" rx=".5" width="6" x="9" y="13.5"/><rect fill="#ececec" height="2" rx=".5" width="6" x="9" y="13"/><g fill="#fff"><path d="m3.75 2c-.4155 0-.75.3345-.75.75v.5c0-.4155.3345-.75.75-.75h16.5c.416 0 .75.3345.75.75v-.5c0-.4155-.334-.75-.75-.75z" opacity=".1"/><path d="m3.75 4c-.4155 0-.75.3345-.75.75v.5c0-.4155.3345-.75.75-.75h16.5c.416 0 .75.3345.75.75v-.5c0-.4155-.334-.75-.75-.75z" opacity=".1"/><path d="m3.75 6c-.4155 0-.75.3345-.75.75v.5c0-.4155.3345-.75.75-.75h16.5c.416 0 .75.3345.75.75v-.5c0-.4155-.334-.75-.75-.75z" opacity=".1"/></g><circle cx="18" cy="18" fill="#6ec149" r="5"/><path d="m17.223 15-.06613.7902a2.3572 2.3572 0 0 0 -.6889.39844l-.7182-.33818-.75 1.2991.65205.45285a2.3572 2.3572 0 0 0 -.036.3976 2.3572 2.3572 0 0 0  .0343.39928l-.6505.4515.75 1.2991.7165-.33733a2.3572 2.3572 0 0 0  .69055.39592l.06613.79185h1.5l.06612-.7902a2.3572 2.3572 0 0 0  .6889-.39844l.7182.33817.75-1.2991-.65205-.45285a2.3572 2.3572 0 0 0  .036-.3976 2.3572 2.3572 0 0 0 -.0343-.39928l.6504-.45118-.75-1.2991-.7165.33734a2.3572 2.3572 0 0 0 -.6905-.395l-.06612-.79185h-1.5zm.75 2.1428a.85715.85715 0 0 1  .857.857.85715.85715 0 0 1 -.857.857.85715.85715 0 0 1 -.857-.857.85715.85715 0 0 1  .857-.857z" fill="#fff"/></svg>