<svg height="24" viewBox="0 0 24 24" width="24" xmlns="http://www.w3.org/2000/svg"><g transform="translate(0 -1028.3622)"><path d="m3.3613281 1035.8622a9.9999992 9.9999992 0 0 0 -1.3613281 5 9.9999992 9.9999992 0 0 0 10 10 9.9999992 9.9999992 0 0 0 10-10 9.9999992 9.9999992 0 0 0 -1.353516-5z" opacity=".2"/><circle cx="12" cy="1038.862" fill="#e96ca2" r="8.5"/><path d="m11.999999 1030.3622a8.4999993 8.4999993 0 0 0 -8.4999991 8.5 8.4999993 8.4999993 0 0 0  .010742.29 8.4999993 8.4999993 0 0 1 8.4892569-8.29 8.4999993 8.4999993 0 0 1 8.489258 8.21 8.4999993 8.4999993 0 0 0  .01074-.21 8.4999993 8.4999993 0 0 0 -8.5-8.5z" fill="#fff" opacity=".2"/><path d="m3.3613281 7a9.9999992 9.9999992 0 0 0 -1.3613281 5 9.9999992 9.9999992 0 0 0 10 10 9.9999992 9.9999992 0 0 0 10-10 9.9999992 9.9999992 0 0 0 -1.353516-5z" fill="#4f84be" transform="translate(0 1028.3622)"/><circle cx="9.5" cy="1042.362" opacity=".2" r="3.5"/><circle cx="14.5" cy="1042.362" opacity=".2" r="3.5"/><circle cx="14.5" cy="1041.862" fill="#fff" r="3.5"/><circle cx="9.5" cy="1041.862" fill="#fff" r="3.5"/><path d="m11.996524 1042.8626c-.147311 0-.297309.054-.419466.1894l-2.4053272 2.005c-.013969.015-.025181.032-.037397.048-.00339.01-.00712.01-.010265.013-.032626.045-.055668.094-.075533.1438-.00765.02-.012288.04-.018332.059-.011753.039-.023214.078-.027864.1187-.0039.029-.00223.059-.00223.089.0002477.029-.00154.06.00223.089.00465.04.016116.079.027864.1187.00601.021.010677.04.018332.059.019862.05.042912.098.075533.144.003.01.00699.01.010265.013.012207.015.023454.033.037397.049l2.4053272 2.6716c.122156.1355.272155.1891.419466.1894h.0029.0029c.147381-.0002.297248-.054.419465-.1894l2.406804-2.6716c.01395-.015.02518-.033.03739-.049.0033-.01.0073-.01.01026-.013.03264-.045.05563-.094.07553-.1441.0076-.02.01232-.039.01833-.059.01175-.04.02248-.078.02714-.1188.0038-.029.0027-.059.0029-.089 0-.03.000943-.06-.0029-.089-.0046-.04-.01539-.079-.02714-.1187-.0061-.021-.01067-.04-.01833-.059-.01988-.05-.04289-.098-.07553-.144-.0032-.01-.0069-.01-.01026-.013-.01222-.015-.02343-.033-.0374-.048l-2.406795-2.005c-.122217-.1356-.272083-.188-.419465-.1894-.001 0-.002 0-.0029 0-.000942 0-.002 0-.0029 0z" fill-rule="evenodd" opacity=".2"/><path d="m11.996524 1042.3626c-.147311 0-.297309.054-.419466.1894l-2.4053272 2.005c-.013969.015-.025181.032-.037397.048-.00339.01-.00712.01-.010265.013-.032626.045-.055668.094-.075533.1438-.00765.02-.012288.04-.018332.059-.011753.039-.023214.078-.027864.1187-.0039.029-.00223.059-.00223.089.0002477.029-.00154.06.00223.089.00465.04.016116.079.027864.1187.00601.021.010677.04.018332.059.019862.05.042912.098.075533.144.003.01.00699.01.010265.013.012207.015.023454.033.037397.049l2.4053272 2.6716c.122156.1355.272155.1891.419466.1894h.0029.0029c.147381-.0002.297248-.054.419465-.1894l2.406804-2.6716c.01395-.015.02518-.033.03739-.049.0033-.01.0073-.01.01026-.013.03264-.045.05563-.094.07553-.1441.0076-.02.01232-.039.01833-.059.01175-.04.02248-.078.02714-.1188.0038-.029.0027-.059.0029-.089 0-.03.000943-.06-.0029-.089-.0046-.04-.01539-.079-.02714-.1187-.0061-.021-.01067-.04-.01833-.059-.01988-.05-.04289-.098-.07553-.144-.0032-.01-.0069-.01-.01026-.013-.01222-.015-.02343-.033-.0374-.048l-2.406795-2.005c-.122217-.1356-.272083-.188-.419465-.1894-.001 0-.002 0-.0029 0-.000942 0-.002 0-.0029 0z" fill="#fcb700" fill-rule="evenodd"/><circle cx="15" cy="1042.362" opacity=".6" r="1"/><circle cx="9" cy="1042.362" opacity=".6" r="1"/></g></svg>