<svg height="24" width="24" xmlns="http://www.w3.org/2000/svg"><g transform="matrix(1.0454545 0 0 1.0454453 .499895 .067869)"><path d="m5 15.501 1.4999-7.0002 1 11.5 1-10.5.42199 9.2342 1.078-7.7343.49999 5.4998.99997-6.9998.49999 8.9998 1.5-9.9997 1.5 11 .49999-7.9998 1.5 3.9999" fill="none" opacity=".2" stroke="#000" stroke-linecap="round" stroke-linejoin="round"/><path d="m5 15 1.4999-6.9998 1 11.5 1-10.5.42199 9.2342 1.078-7.7343.49999 5.4998.99997-6.9998.49999 8.9998 1.5-9.9997 1.5 11 .49999-7.9998 1.5 3.9999" fill="none" stroke="#fbc34f" stroke-linecap="round" stroke-linejoin="round"/><path d="m6.4909 7.5002a.50004.50004 0 0 0 -.4804.3955l-1.5 6.9993a.50029.50029 0 0 0  .038084.3203l1.4619-6.8205a.50004.50004 0 0 1  .4804-.3955.50004.50004 0 0 1  .5068.457l.5244 6.03.4795-5.0345a.50004.50004 0 0 1  .99702.025389l.1748 3.828.33105-2.3749a.50004.50004 0 0 1  .99312.02442l.1123 1.2363.39452-2.7616a.50004.50004 0 0 1  .99412.042969l.22948 4.1337.77733-5.1804a.50004.50004 0 0 1  .98922.00683l.82028 6.0123.18554-2.9765a.50004.50004 0 0 1  .96677-.14453l1.4756 3.9354a.50004.50004 0 0 0  .02442-.43456l-1.501-3.999a.50004.50004 0 0 0 -.96677.14453l-.18554 2.9765-.82028-6.0123a.50004.50004 0 0 0 -.989-.0069l-.777 5.1807-.229-4.134a.50004.50004 0 0 0 -.995-.043l-.39452 2.7616-.1123-1.2363a.50004.50004 0 0 0 -.9925-.024l-.3311 2.375-.1748-3.8281a.50004.50004 0 0 0 -.997-.0254l-.4795 5.0345-.5245-6.03a.50004.50004 0 0 0 -.5069-.457z" fill="#fff" fill-rule="evenodd" opacity=".2"/><path d="m11 1.932c-2.2795 0-4.3584.71168-5.8918 1.9067-1.5338 1.1951-2.5301 2.905-2.5301 4.807v.68748c-1.5225.7718-2.578 2.7948-2.578 5.1668 0 3.0359 1.7272 5.4998 3.953 5.4998v-11.354c0-1.4245.73728-2.7355 2.0033-3.722 1.266-.9872 3.054-1.6172 5.0436-1.6172 1.9894 0 3.7772.63008 5.0434 1.6167 1.2661.98657 2.0033 2.2976 2.0033 3.722v11.354c2.2259 0 3.9529-2.4639 3.9529-5.4998 0-2.3719-1.0555-4.3954-2.5779-5.1669v-.68748c0-1.9021-.99617-3.612-2.5297-4.807-1.534-1.195-3.613-1.9067-5.892-1.9067zm-6.531 7.2403v10.828c.34374 0 .68748-.17187.85938-.51559v-9.9687c-.1725-.1711-.516-.3431-.8595-.3431zm13.062 0c-.34374 0-.68748.17187-.85938.34374v9.9687c.172.34299.51549.51499.85898.51499v-10.828z" fill="#319dd5"/><path d="m11 1.932c-2.2795 0-4.3589.71118-5.8923 1.9062-1.5336 1.1951-2.5293 2.9055-2.5293 4.8075v.49999c0-1.9021.99572-3.6125 2.5292-4.8075 1.5335-1.1951 3.6129-1.9063 5.8923-1.9063 2.2795 0 4.3589.71118 5.8923 1.9062 1.5335 1.195 2.5292 2.9053 2.5292 4.8075v-.49999c0-1.9021-.99572-3.6125-2.5292-4.8075-1.533-1.195-3.613-1.9062-5.892-1.9062zm-6.5308 7.2403v.49999c.34374 0 .68748.17187.85938.34374v-.49999c-.1727-.172-.5162-.344-.8597-.344zm13.062 0c-.34374 0-.68748.17187-.85938.34374v.49999c.17187-.17187.51559-.34374.85938-.34374zm-14.953.161c-1.5225.7717-2.578 2.7947-2.578 5.1667 0 .10344.0067803.20459.010742.30663.056508-2.2865 1.087-4.2235 2.5673-4.9735v-.49999zm16.844 0v .49999c1.4803.75003 2.5108 2.687 2.5673 4.9735.0035-.102.0105-.203.0105-.30649 0-2.3719-1.0555-4.3954-2.5779-5.1669z" fill="#fff" opacity=".2"/><path d="m11 3.307c-1.9896 0-3.7769.6305-5.0431 1.6171-1.266.9866-2.0038 2.2971-2.0038 3.7216v.49999c0-1.4245.73778-2.735 2.0038-3.7216 1.266-.9868 3.0535-1.6173 5.0431-1.6173 1.9894 0 3.7767.63053 5.0429 1.6172 1.2661.98657 2.0038 2.2971 2.0038 3.7216v-.49999c0-1.4245-.73778-2.735-2.0038-3.7216-1.266-.9868-3.054-1.6173-5.043-1.6173zm-10.989 11.5c-.0016002.065-.01075.127-.01075.193.00000008 3.036 1.7272 5.5 3.953 5.5v-.49999c-2.1499 0-3.8299-2.3004-3.9422-5.1934zm21.978 0c-.112 2.8929-1.792 5.1934-3.9419 5.1934v.49999c2.226 0 3.953-2.464 3.953-5.5 0-.066-.009-.128-.0105-.1935zm-16.66 4.678c-.172.34349-.51549.51549-.85898.51549v.49999c.34374 0 .68748-.17187.85938-.51559v-.49999zm11.344 0v .49999c.172.343.516.515.859.515v-.49999c-.34374 0-.68748-.17187-.85938-.51559z" opacity=".2"/></g></svg>