<svg height="24" width="24" xmlns="http://www.w3.org/2000/svg"><path d="m38.0578 4.1033393-20.231418 4.2133783c-3.540675.425971-3.826722 3.6829394-3.826382 3.6786264v14.270656c-.653-.173-1.325-.262-2-.266-4.4183 0-8 3.5817-8 8s3.5817 8 8 8c4.0287-.0038 7.4261-3.0029 7.9297-7 0 0 .07031-.72732.07031-1v-20.07l16-3.458025v11.793682c-.653-.173-1.325-.262-2-.266-4.4183 0-8 3.5817-8 8s3.5817 8 8 8c4.0287-.0038 7.4261-3.0029 7.9297-7l .07-1v-22.7027095s.0273-3.9023963-3.94191-3.1936082z" opacity=".2" transform="matrix(.5 0 0 .5 .00017 1.5)"/><path d="m38.0578 4.1033393-20.231418 4.2133783c-3.540675.425971-3.826722 3.6829394-3.826382 3.6786264v14.270656c-.653-.173-1.325-.262-2-.266-4.4183 0-8 3.5817-8 8s3.5817 8 8 8c4.0287-.0038 7.4261-3.0029 7.9297-7 0 0 .07031-.72732.07031-1v-20.07l16-3.458025v11.793682c-.653-.173-1.325-.262-2-.266-4.4183 0-8 3.5817-8 8s3.5817 8 8 8c4.0287-.0038 7.4261-3.0029 7.9297-7l .07-1v-22.7027095s.0273-3.9023963-3.94191-3.1936082z" fill="#5fbb20" transform="matrix(.5 0 0 .5 .00017 1.000171)"/><path d="m19.683594 3.0195312c-.18956-.0194364-.406221-.0110961-.654297.0332032l-10.1152345 2.1054687c-1.7703375.2129855-1.9142325 1.8420003-1.9140625 1.8398438v.5c-.00017.0021565.143725-1.6268583 1.9140625-1.8398438l10.1152345-2.1074219c1.984605-.354394 1.970703 1.5976563 1.970703 1.5976563v-.5s.010511-1.4928511-1.316406-1.6289063zm-2.683594 8.9804688c-2.20915 0-4 1.79085-4 4 0 .085583.020095.165752.025391.25.131401-2.090432 1.851042-3.75 3.974609-3.75.3375.002.6735.046313 1 .132812v-.5c-.3265-.086499-.6625-.130812-1-.132812zm-11 2c-2.20915 0-4 1.79085-4 4 0 .085583.0200949.165752.0253906.25.1314009-2.090432 1.8510428-3.75 3.9746094-3.75.3375.002.6735.046313 1 .132812v-.5c-.3265-.086499-.6625-.130812-1-.132812z" fill="#fff" opacity=".2" transform="translate(0 -.000001)"/></svg>