<svg height="24" width="24" xmlns="http://www.w3.org/2000/svg"><g transform="translate(1 1)"><circle cx="11" cy="11" fill="#37a0f2" r="10"/><path d="m10.056 1.0537a10 10 0 0 0 -3.6195 1.0498c.0505.1601-.0085.3406-.1925.5-.1245.1079-.2265.2759-.2265.3741 0 .2998.271.7602.4875.8271.2875.089.191.3958-.179.5653-.171.0785-.3815.3045-.4675.502-.0865.198-.2135.393-.2825.4335-.0685.041-.125.1955-.125.344 0 .2075.095.308.4065.4325.223.0895.49.1545.5935.1445.5955-.056.637.291.1165.969-.2765.36-.4095.4505-.598.405-.1755-.042-.2715.0075-.3515.1815-.084.1845-.222.247-.5925.2725-.3645.0255-.5275.0995-.664.299-.1.1455-.244.2635-.3205.2635-.0767 0-.2568.098-.4004.217-.2922.2425-.4063.267-.5088.1085-.1354-.21-.4275-.104-.8622.3125-.3846.368-.4311.4665-.3731.786.1032.5685.41155 1.073.76365 1.249.30725.1535.31325.17.12695.367-.10715.1135-.291.235-.4082.2705-.3385.103-.14795.232.45605.309.6182.0785.8103.3025.5215.608-.1611.171-.1521.203.1064.365.505.317.9066.123.4326-.209-.3047-.214-.0916-.3.3555-.146.3565.124.427.117.6375-.066.4325-.374.9025.18.507.598-.2515.266-.1755.587.1505.632.144.0195.443.1535.665.298.222.144.464.2625.537.2625s.279.1465.458.3255c.363.3625.5645.4085.667.153.123-.307.0735-.4655-.258-.827-.2635-.288-.692-1.053-.692-1.2365 0-.113.4355-.017.6795.1495.1525.1045.3995.239.549.3.159.065.324.267.3995.488.1175.347.164.377.58.377h.452l.0685.8125c.082.9775.1605 1.1755.496 1.256.247.0595.5105.442.5105.741 0 .0795-.1775.2745-.3945.433-.269.1965-.385.3635-.367.527.0225.205-.024.237-.3135.215-.1865-.014-.5105.052-.7185.146-.2465.11-.5135.146-.764.101-.288-.051-.3855-.031-.3855.081 0 .083-.101.238-.224.345-.304.2635-.1785.403.2885.319.29-.052.403-.029.453.096.1065.2655-.1635.6455-.414.583-.159-.04-.235.0145-.2845.202-.017.0665-.0485.123-.086.171a10 10 0 0 0 1.5825.4675c-.05-.096-.107-.183-.1625-.222-.2575-.182-.085-.655.2695-.74.3615-.087.3045-.322-.0885-.366-.3445-.04-.711-.388-.596-.567.0775-.1195.407-.102 1.0735.056.301.071.5065-.072 1.204-.835.4035-.442.714-.626 1.0545-.626.13 0 .5935-.1195 1.0305-.2655.825-.2765 1.1475-.2665 1.117.035-.063.627.3405.606.998-.051.274-.2735.5245-.4715.557-.4405.1255.1205-.1005.707-.3645.9445-.3345.301-.351.491-.0565.6415.161.083.2295.2505.255.627l.034.514h.418c.1465 0 .268.02.366.0575a10 10 0 0 0 4.845-8.253c-.153-.327-.142-.5245 0-.747a10 10 0 0 0 -.045-.56c-.092-.004-.184-.0085-.292-.004-.504.021-.935-.1775-.935-.4305 0-.0535-.179-.274-.397-.4895-.248-.244-.376-.46-.338-.572.034-.102-.04-.2665-.168-.378-.126-.109-.229-.284-.229-.389 0-.1675-.1065-.1885-.877-.17l-.877.0215.015.8645c.026 1.514.2515 1.907.947 1.6535.3185-.1165 1.101-.0285 1.3235.148.0805.064.197.296.2585.516.062.2195.291.6.51.8445.443.496.4775.6895.2235 1.2715-.2215.508-.4605.4495-.413-.1015l.035-.41-.375.07c-.2075.0395-.4675.1925-.584.344-.166.2155-.2435.247-.368.1485-.087-.069-.1575-.2145-.1575-.3225s-.107-.228-.237-.2675c-.1305-.0395-.309-.236-.3965-.4375-.1405-.322-.137-.4205.0265-.8115.1655-.3965.167-.462.0145-.6085-.14-.134-.2125-.1385-.3965-.028-.185.1105-.2725.1025-.4925-.045-.1465-.0985-.403-.18-.569-.18-.3375 0-.4395-.164-.4395-.707 0-.5015-.299-.6835-1.011-.618-.495.0455-.604.013-1.002-.294-.247-.1895-.636-.6455-.866-1.0145s-.478-.7545-.55-.8565c-.104-.1475-.078-.289.125-.6905l.257-.505-.543.0735c-.966.1305-1.1615.2555-.746.4785.162.0865.169.131.044.2755-.082.094-.1205.2435-.085.332.0355.088-.0095.296-.0995.4615-.0905.166-.166.3985-.169.518-.01.3725-.648.669-1.359.6295-1.077-.0595-1.1645-.0425-1.547.3125-.478.444-.5395.6505-.317 1.0625.2155.4.5985.5595 1.2615.5265.593-.0295.66.023.5245.415-.1155.333-.5025.461-.765.253-.202-.161-.8985-.037-1.112.198-.0895.098-.2225.356-.295.572-.125.373-.1615.396-.7215.45-.559.054-.613.036-1.015-.334-.4485-.413-.5245-.729-.3085-1.273.096-.241.167-.281.423-.233.507.092.707-.084.707-.6255 0-.2625-.051-.508-.1135-.545-.062-.037-.113-.176-.113-.3095s-.064-.3055-.1415-.381c-.1135-.11-.097-.169.084-.297.124-.0875.328-.1465.453-.1315.1245.015.469-.039.7655-.1195.4285-.1155.5545-.203.6125-.4285.11-.428.3785-.7715.6035-.7715.3555 0 .363-.836.0175-2.052-.051-.1795-.1915-.2935-.4395-.355-.201-.05-.4195-.187-.4855-.3049-.0655-.1179-.186-.2139-.2675-.2139s-.241-.0976-.3535-.2168c-.1135-.12-.348-.2168-.5265-.2168-.4225 0-.4295-.2909-.0105-.4443.4425-.1622 1.1315.0504 1.298.4003.2255.4746.476.2766.5565-.4404.0995-.8867.4055-1.1416 1.37-1.1416h.6935l-.304-.3037c-.095-.0947-.173-.2106-.227-.3242zm3.595.31445c-.02.0176-.039.032-.058.0517-.232.2368-.341.2705-.699.2159-.626-.0955-.546.1566.147.4609.3745.16455.6155.35215.6975.54195.395.9158.667 1.4088.8035 1.4588.276.1015.4405-.1022.502-.6229.0705-.5974.2725-.72405.6355-.39745.141.12675.338.23045.4375.23045.3105 0 .54.12465.54.293 0 .0887.105.30245.2335.4754.1895.2545.318.3155.672.3155.4345 0 .701.0815 1.245.382.0085.0045.017.006.0255.0105a10 10 0 0 0 -5.183-3.4158zm-12.648 9.589a10 10 0 0 0 -.00195.043 10 10 0 0 0  .1953 1.921c.3623.1475.4624.089.5-.248.01945-.1745.11055-.372.20315-.4405.14305-.1055.11725-.1595-.1758-.3595-.1897-.1295-.37665-.3555-.41505-.502-.0372-.142-.163-.297-.30565-.414zm3.1476 3.3055c-.0935-.0095-.20615.0405-.33115.1605-.26445.253-.2245.7615.0752.9625.34345.2305.47595.1635.51945-.2615.0535-.524-.0585-.84-.2635-.8615zm1.697 1.512c-.102.0035-.2145.0765-.327.2305-.1195.163-.152.3735-.1065.693.0565.393.032.477-.1735.5825-.2645.135-.321.537-.1045.744.215.206.42.152.494-.13.105-.402.6935-.449 1.0955-.088.1715.154.3115.232.3115.173s-.1785-.2735-.3965-.4755c-.3335-.31-.3955-.442-.3955-.841 0-.563-.1725-.8955-.3975-.8885zm-2.787 1.291a10 10 0 0 0  .23145.292c-.0691-.105-.1469-.206-.2324-.291zm3.37 1.535c-.0505.0175-.072.081-.072.1925 0 .113-.072.2315-.16.2635-.117.043-.144.1785-.099.502.0085.0605.011.109.014.1595a10 10 0 0 0  .416.2135c-.007-.173.0245-.3765.115-.6315.1535-.433.159-.5415.034-.6175-.117-.071-.197-.0995-.248-.082z" opacity=".2"/><path d="m11 1c-5.5395 0-9.999 4.46-9.999 10 0 .08386-.002.16664 0 .25.1321-5.423 4.5435-9.75 9.999-9.75s9.867 4.3268 9.999 9.75c.002-.08335 0-.16614 0-.25 0-5.54-4.459-10-9.999-10z" fill="#fff" opacity=".2"/><path d="m20.99 11.209a10 10 0 0 1 -9.99 9.791 10 10 0 0 1 -9.989-9.709 10 10 0 0 0 -.011.209 10 10 0 0 0 10 10 10 10 0 0 0 10-10 10 10 0 0 0 -.0105-.291z" opacity=".2"/></g></svg>