<svg height="24" width="24" xmlns="http://www.w3.org/2000/svg"><rect fill="#8e8e8e" height="16" rx="1" transform="matrix(0 -1 -1 0 0 0)" width="20" x="-22" y="-20"/><path d="m4 21v .5c0 .554.446 1 1 1h14c .554 0 1-.446 1-1v-.5c0 .554-.446 1-1 1h-14c-.554 0-1-.446-1-1z" opacity=".2"/><path d="m12 5c2.7614 0 5 2.2386 5 5s-2.2386 5-5 5h-5v-5c0-2.7614 2.2386-5 5-5zm0 2.5c-1.3807 0-2.5 1.1193-2.5 2.5s1.1193 2.5 2.5 2.5 2.5-1.1193 2.5-2.5-1.1193-2.5-2.5-2.5z" opacity=".5"/><path d="m5 2c-.554 0-1 .446-1 1v .5c0-.554.446-1 1-1h14c .554 0 1 .446 1 1v-.5c0-.554-.446-1-1-1z" fill="#fff" opacity=".2"/><circle cx="18" cy="18" fill="#8561c5" r="5"/><path d="m17.223 15-.06613.7902a2.3572 2.3572 0 0 0 -.6889.39844l-.7182-.33818-.75 1.2991.65205.45285a2.3572 2.3572 0 0 0 -.036.3976 2.3572 2.3572 0 0 0  .0343.39928l-.6505.4515.75 1.2991.7165-.33733a2.3572 2.3572 0 0 0  .69055.39592l.06613.79185h1.5l.06612-.7902a2.3572 2.3572 0 0 0  .6889-.39844l.7182.33817.75-1.2991-.65205-.45285a2.3572 2.3572 0 0 0  .036-.3976 2.3572 2.3572 0 0 0 -.0343-.39928l.6504-.45118-.75-1.2991-.7165.33734a2.3572 2.3572 0 0 0 -.6905-.395l-.06612-.79185h-1.5zm.75 2.1428a.85715.85715 0 0 1  .857.857.85715.85715 0 0 1 -.857.857.85715.85715 0 0 1 -.857-.857.85715.85715 0 0 1  .857-.857z" fill="#fff"/></svg>