<svg height="24" viewBox="0 0 24 24" width="24" xmlns="http://www.w3.org/2000/svg"><path d="m12 2.5a10 10 0 0 0 -10 10 10 10 0 0 0 10 10 10 10 0 0 0 10-10 10 10 0 0 0 -10-10z" opacity=".2"/><path d="m12 2a10 10 0 0 0 -10 10 10 10 0 0 0 10 10 10 10 0 0 0 10-10 10 10 0 0 0 -10-10z" fill="#ff8e20"/><path d="m12 2.5c-1.631909.00197-3.23854.404269-4.6796875 1.1699219l-2.9238281 14.8203121a10 10 0 0 0 3.5566406 2.640625l1.0683594-5.603515c1.0696116.06078 2.3832986.06527 3.7499996-.121094 1.581339-.215637 3.280791-.667349 4.732422-1.789062 1.451631-1.121716 2.496094-2.843378 2.496094-5.117188 0-.881536-.128149-1.6998125-.355469-2.4453125-1.899958-2.2532491-4.697164-3.5545621-7.644531-3.5546875zm.265625 2.9199219c.402994-.0016.799852.0205977 1.193359.0585937.796659.1171559 1.429162.3820718 1.820313.7617188.391151.3796473.720703.9145276.720703 2.2597656 0 1.2261905-.330537 2.379526-.941406 2.851562-.610869.472035-1.661417.883606-2.830078 1.042969-.825428.112558-1.66949.12776-2.4238285.105469l1.2304685-6.9902344c.418348-.061869.827475-.088243 1.230469-.0898437z" opacity=".2"/><path d="m12 2c-1.631909.00197-3.23854.4032924-4.6796875 1.1689453l-3.0029297 15.2285157c.9647997 1.152992 2.1771542 2.073607 3.5468752 2.693359l1.15625-6.063242c1.069612.06078 2.383299.06527 3.75-.121094 1.581339-.215637 3.281767-.667348 4.733398-1.789062 1.451631-1.121715 2.496094-2.843612 2.496094-5.117422 0-.881536-.128149-1.700789-.355469-2.446289-1.899958-2.2532491-4.697164-3.5535856-7.644531-3.553711zm.265625 2.9189453c.402994-.0016.799853.021574 1.19336.05957.796659.1171559 1.429161.3820719 1.820312.7617189.391151.3796473.720703.9145278.720703 2.2597658 0 1.2261905-.330537 2.379634-.941406 2.85167-.610869.472035-1.660441.882852-2.829102 1.042215-.825428.112558-1.670466.128736-2.4248045.106445l1.2304685-6.991541c.418348-.061869.827475-.088243 1.230469-.089844z" fill="#fff"/><path d="m12 2a10 10 0 0 0 -9.9295 8.926 10 9.5 0 0 1 9.9295-8.426 10 9.5 0 0 1 9.961 8.7235 10 10 0 0 0 -9.961-9.2235zm9.961 9.2235a10 10 0 0 1  .039.7765 10 9.5 0 0 0 -.039-.7765zm-19.8905-.2975a10 9.5 0 0 0 -.0244.196 10 10 0 0 1  .0244-.196zm-.0244.196a10 10 0 0 0 -.0459.878 10 9.5 0 0 1  .0459-.878z" fill="#fff" opacity=".2"/></svg>