<svg height="24" width="24" xmlns="http://www.w3.org/2000/svg"><g transform="translate(1 1)"><path d="m2 2c-.554 0-1 .446-1 1v12h20v-12c0-.554-.446-1-1-1z" fill="#8c93dd"/><path d="m15 6.5001c1.6568 0 2.9999 1.3431 2.9999 2.9999s-1.3431 2.9999-2.9999 2.9999-2.9999-1.3431-2.9999-2.9999 1.3431-2.9999 2.9999-2.9999z" fill-rule="evenodd" opacity=".2"/><path d="m15 6.0001c1.6568 0 2.9999 1.3431 2.9999 2.9999s-1.3431 2.9999-2.9999 2.9999-2.9999-1.3431-2.9999-2.9999 1.3431-2.9999 2.9999-2.9999z" fill="#fffca3" fill-rule="evenodd"/><path d="m2.0005 2.0002c-.554 0-1 .446-1 1v .49999c0-.55399.44599-.99998.99998-.99998h18c .554 0 1 .446 1 1v-.5c0-.554-.446-1-1-1z" fill="#fff" opacity=".2"/><path d="m1.0005 15v3.9999c0 .55399.44599.99998.99998.99998h18c .554 0 1-.446 1-1v-3.9999z" fill="#5184b0"/><path d="m1.0005 15.071v-.57149s1.4422-.95233 1.8477-1.0354c.40547-.08309.88433-.01545 1.3764.07742.49212.09257 1.2268.21777 1.4561.2256.2293.008.64423-.02 1.1264-.04915.48213-.02855 1.2804-.05486 1.5294-.052.24899 0 .87058.0343 1.5332.07474.66258.04055 1.5727.10834 1.7792.12731.20649.01885.44921.05371.72468.09171.27544.0377.75228.09468.92103.11034.16869.0154.55979.0692 1.0136.11097.45378.0417 1.18.056 1.3897.04055.20971-.01545.64928-.17074 1.1392-.31388.48986-.14308 1.03-.27411 1.4409-.24171.411.033 2.722.834 2.722.834v.57144h-17.571z"/><path d="m1.0005 19v .49999c0 .554.446 1 1 1h18c .554 0 1-.446 1-1v-.49999c0 .55399-.44599.99998-.99998.99998h-18c-.55399 0-.99998-.44599-.99998-.99998z" opacity=".2"/></g></svg>