<svg height="24" width="24" xmlns="http://www.w3.org/2000/svg"><rect fill="#b87425" height="19.998" rx="10" ry="9.999" transform="rotate(-90)" width="20" x="-22" y="2"/><path d="m11 7.4995095a4 4 0 0 1 4 4.0000025 4 4 0 0 1 -.558594 2.027344l2.265625 2.265625a1.0001 1.0001 0 1 1 -1.414062 1.414062l-2.265625-2.265625a4 4 0 0 1 -2.027344.558594 4 4 0 0 1 -4-4 4 4 0 0 1 4-4.0000025zm0 2c-1.112821 0-2 .8885165-2 2.0000025 0 1.111485.887179 2 2 2s2-.888515 2-2c0-1.111486-.887179-2.0000025-2-2.0000025z" opacity=".2"/><path d="m11 7a4 4 0 0 1 4 4 4 4 0 0 1 -.558594 2.027344l2.265625 2.265625a1.0001 1.0001 0 1 1 -1.414062 1.414062l-2.265625-2.265625a4 4 0 0 1 -2.027344.558594 4 4 0 0 1 -4-4 4 4 0 0 1 4-4zm0 2c-1.112821 0-2 .888515-2 2s .887179 2 2 2 2-.888515 2-2-.887179-2-2-2z" fill="#fff"/><path d="m12 2c5.5395 0 9.999 4.46 9.999 10 0 .08386.002.16664 0 .25-.1321-5.423-4.5435-9.75-9.999-9.75s-9.867 4.3268-9.999 9.75c-.002-.08335 0-.16614 0-.25 0-5.54 4.459-10 9.999-10z" fill="#fff" opacity=".2"/><path d="m21.9942 12.25c.002.084.0058.166.0058.25 0 5.54-4.46 10-10 10s-10-4.46-10-10c0-.084.004-.1665.006-.25.132 5.423 4.538 9.75 9.994 9.75s9.862-4.327 9.994-9.75z" opacity=".2"/></svg>