<svg height="24" width="24" xmlns="http://www.w3.org/2000/svg"><g transform="translate(1 1)"><rect fill="#4f4f4f" height="10" rx="3" width="20" x="1" y="6"/><path d="m2.6 9.5c-.2216 0-.4.1784-.4.4v.8h-.8c-.2216 0-.4.178-.4.4v.8c0 .2216.1784.4.4.4h.8v.8c0 .2215.1784.4.4.4h.8c.2216-.000001.4-.1784.4-.4v-.8h.8c.2216 0 .4-.178.4-.4v-.8c0-.222-.1785-.4-.4-.4h-.8v-.8c0-.2215-.1785-.4-.4-.4z" opacity=".2"/><path d="m2.6 9c-.2216 0-.4.1784-.4.4v.8h-.8c-.2216 0-.4.178-.4.4v.8c0 .2216.1784.4.4.4h.8v.8c0 .2215.1784.4.4.4h.8c.2216-.000001.4-.1784.4-.4v-.8h.8c.2216 0 .4-.178.4-.4v-.8c0-.222-.1785-.4-.4-.4h-.8v-.8c0-.2215-.1785-.4-.4-.4z" fill="#697e83"/><path d="m6 7h9v8h-9z" fill="#0093cd"/><g fill="none" stroke="#fff" stroke-width=".5"><path d="m6.25 13v-2.25h2v-2h-2.25"/><path d="m11.5 8.75h-1.25v4h-1.25"/><path d="m12.25 13v-2.25h2v-2h-2.25"/></g><path d="m1 13v .5c0 1.662 1.338 3 3 3h14c1.662 0 3-1.338 3-3v-.5c0 1.662-1.338 3-3 3h-14c-1.662 0-3-1.338-3-3z" opacity=".2"/><path d="m4 6c-1.662 0-3 1.338-3 3v .5c0-1.662 1.338-3 3-3h14c1.662 0 3 1.338 3 3v-.5c0-1.662-1.338-3-3-3z" fill="#fff" opacity=".1"/><g opacity=".2" transform="translate(-1 -.5)"><circle cx="19" cy="10" r="1"/><circle cx="14" cy="-19" r="1" transform="rotate(90)"/><circle cx="12" cy="-21" r="1" transform="rotate(90)"/><circle cx="-17" cy="-12" r="1" transform="scale(-1)"/></g><g fill="#697e83" transform="translate(-1 -1)"><circle cx="19" cy="10" r="1"/><circle cx="14" cy="-19" r="1" transform="rotate(90)"/><circle cx="12" cy="-21" r="1" transform="rotate(90)"/><circle cx="-17" cy="-12" r="1" transform="scale(-1)"/></g></g></svg>