<svg height="24" width="24" xmlns="http://www.w3.org/2000/svg"><rect fill="#4ab367" height="19.998" rx="10" ry="9.999" transform="matrix(0 -1 -1 0 0 0)" width="20" x="-22" y="-22"/><path d="m12 2c-5.5395 0-9.9991 4.46-9.9991 10 0 .084-.002.1665 0 .25.1322-5.423 4.5436-9.75 9.9991-9.75s9.8671 4.327 9.9991 9.75c.002-.0835 0-.166 0-.25 0-5.54-4.459-10-9.999-10z" fill="#fff" opacity=".2"/><path d="m2.0067 12.25c-.00205.0835-.00585.166-.00585.25 0 5.54 4.4596 10 9.9991 10s9.9991-4.46 9.9991-10c0-.084-.004-.1665-.006-.25-.132 5.423-4.537 9.75-9.993 9.75-5.4555 0-9.8611-4.327-9.9931-9.75z" opacity=".2"/><g opacity=".2" transform="translate(1 .49999)"><path d="m5.5 8h1.9998c.27548 0 .49996.19782.49996.44276v7.1127c0 .24494-.22448.44454-.49996.44454h-1.9998c-.2755-.001-.5-.201-.5-.446v-7.1122c0-.245.2245-.4428.5-.4428"/><path d="m9.4719 8c-.2611 0-.4719.1978-.4719.4427v7.1111c0 .24489.21083.44444.47189.44444 1.4214 0 2.8418.0018 4.2641.0018 2.355 0 4.264-1.791 4.264-4 0-2.2089-1.9094-4-4.2641-4h-4.2641z"/></g><g fill="#f9f9f9" transform="translate(1)"><path d="m5.5 8h1.9998c.27548 0 .49996.19782.49996.44276v7.1127c0 .24494-.22448.44454-.49996.44454h-1.9998c-.2755-.001-.5-.201-.5-.446v-7.1122c0-.245.2245-.4428.5-.4428"/><path d="m9.4719 8c-.2611 0-.4719.1978-.4719.4427v7.1111c0 .24489.21083.44444.47189.44444 1.4214 0 2.8418.0018 4.2641.0018 2.355 0 4.264-1.791 4.264-4 0-2.2089-1.9094-4-4.2641-4h-4.2641z"/></g></svg>