<svg height="24" width="24" xmlns="http://www.w3.org/2000/svg"><path d="m12 2h-9c-.554 0-1 .446-1 1v9h10z" fill="#a2e36e"/><path d="m12 2h9c .554 0 1 .446 1 1v9h-10z" fill="#2cbfeb"/><path d="m12 22h-9c-.554 0-1-.446-1-1v-9h10z" fill="#21d789"/><path d="m12 22h9c .554 0 1-.446 1-1v-9h-10z" fill="#f7c73c"/><path d="m3 2c-.554 0-1 .446-1 1v .5c0-.554.446-1 1-1h18c .554 0 1 .446 1 1v-.5c0-.554-.446-1-1-1z" fill="#fff" opacity=".2"/><path d="m3 22.5c-.554 0-1-.446-1-1v-.5c0 .554.446 1 1 1h18c .554 0 1-.446 1-1v .5c0 .554-.446 1-1 1z" opacity=".2"/><path d="m5 5h14v14h-14z" fill="#3f3f3f"/><g fill="none" stroke-linecap="round"><path d="m7.5071212 15.99995h3.9999998" opacity=".2" stroke="#000"/><path d="m7.5071212 15.5h3.9999998" stroke="#fff"/><g stroke-linejoin="bevel"><path d="m7.5071212 9.99995s2.000002.23225 2.000002-.9999985c0-1.2322505-2.000002-1.0000005-2.000002-1.0000005m.000049 4.000049v-4" opacity=".2" stroke="#000"/><path d="m7.5071212 9.5s2.000002.23225 2.000002-.9999985c0-1.2322505-2.000002-1.0000005-2.000002-1.0000005m.000049 4.00005v-4.000001" stroke="#fff"/><path d="m11.507121 11.999828h2.000001m-2.000001-1.999999h2.000001m-2.000001-2h2.000001m-1.999951 4.00005v-4.000001" opacity=".2" stroke="#000"/><path d="m11.507121 11.5h2.000001m-2.000001-2h2.000001m-2.000001-1.9999995h2.000001m-1.999951 4.0000505v-4.0000015" stroke="#fff"/></g></g></svg>