<svg height="24" width="24" xmlns="http://www.w3.org/2000/svg"><path d="m3.8102 2.0006a1.7691 1.5694 0 0 0 -1.8102 1.5688v16.863a1.7691 1.5694 0 0 0 2.6536 1.358l8.2314-4.215 8.231-4.215a1.7691 1.5694 0 0 0 0-2.7182l-8.231-4.2161-8.2314-4.2156a1.7691 1.5694 0 0 0 -.8434-.2097z" fill="#4f4f4f"/><path d="m5 5.5v14l6.832-3.679 6.168-3.321-6.168-3.3213z" opacity=".2"/><path d="m5 5v14l6.832-3.679 6.168-3.321-6.168-3.3213z" fill="#00e382"/><path d="m3.8105 2.0002a1.7691 1.5694 0 0 0 -1.8105 1.5693v.5a1.7691 1.5694 0 0 1 1.8105-1.5693 1.7691 1.5694 0 0 1  .8428.2099l8.2314 4.2158 8.2305 4.2158a1.7691 1.5694 0 0 1  .86133 1.1074 1.7691 1.5694 0 0 0 -.86133-1.6074l-8.23-4.2161-8.2317-4.2158a1.7691 1.5694 0 0 0 -.8428-.2099z" fill="#fff" opacity=".1"/><path d="m21.977 12.249a1.7691 1.5694 0 0 1 -.86133 1.1104l-8.2305 4.2158-8.2314 4.2148a1.7691 1.5694 0 0 1 -2.654-1.358v.5a1.7691 1.5694 0 0 0 2.6533 1.3584l8.2314-4.2148 8.2305-4.2158a1.7691 1.5694 0 0 0  .86133-1.6104z" opacity=".2"/></svg>