<svg height="24" width="24" xmlns="http://www.w3.org/2000/svg"><rect fill="#765a4d" height="20" rx="1" transform="matrix(0 -1 -1 0 0 0)" width="20" x="-22" y="-22"/><path d="m3 2h2v3h-2z" fill="#e15a5a"/><path d="m5 2h2v3h-2z" fill="#f1a24a"/><path d="m7 2h2v3h-2z" fill="#50b449"/><path d="m9 2h2v3h-2z" fill="#498fb4"/><path d="m3 2c-.554 0-1 .446-1 1v .5c0-.554.446-1 1-1h18c .554 0 1 .446 1 1v-.5c0-.554-.446-1-1-1z" fill="#fff" opacity=".2"/><path d="m3 22.5c-.554 0-1-.446-1-1v-.5c0 .554.446 1 1 1h18c .554 0 1-.446 1-1v .5c0 .554-.446 1-1 1z" opacity=".2"/><path d="m18.5 4a1.5 1.5 0 0 1 1.5 1.5 1.5 1.5 0 0 1 -1.5 1.5 1.5 1.5 0 0 1 -1.5-1.5 1.5 1.5 0 0 1 1.5-1.5z" fill="#383838"/><path d="m12 6.5a6 6 0 0 1 6 6 6 6 0 0 1 -6 6 6 6 0 0 1 -6-6 6 6 0 0 1 6-6z" opacity=".2"/><path d="m12 6a6 6 0 0 1 6 6 6 6 0 0 1 -6 6 6 6 0 0 1 -6-6 6 6 0 0 1 6-6z" fill="#9b9b9b"/><path d="m12 8.5a4 4 0 0 0 -4 4 4 4 0 0 0 4 4 4 4 0 0 0 4-4 4 4 0 0 0 -4-4z" opacity=".2"/><path d="m12 8a4 4 0 0 0 -4 4 4 4 0 0 0 4 4 4 4 0 0 0 4-4 4 4 0 0 0 -4-4z" fill="#e8e8e8"/></svg>