<svg height="24" width="24" xmlns="http://www.w3.org/2000/svg"><path d="m12 2h-9c-.554 0-1 .446-1 1v9h10z" fill="#c72566"/><path d="m12 2h9c .554 0 1 .446 1 1v9h-10z" fill="#ff8c2a"/><path d="m12 22h-9c-.554 0-1-.446-1-1v-9h10z" fill="#cf4f8c"/><path d="m12 22h9c .554 0 1-.446 1-1v-9h-10z" fill="#c72566"/><path d="m3 2c-.554 0-1 .446-1 1v .5c0-.554.446-1 1-1h18c .554 0 1 .446 1 1v-.5c0-.554-.446-1-1-1z" fill="#fff" opacity=".2"/><path d="m3 22.5c-.554 0-1-.446-1-1v-.5c0 .554.446 1 1 1h18c .554 0 1-.446 1-1v .5c0 .554-.446 1-1 1z" opacity=".2"/><path d="m5 5h14v14h-14z" fill="#3f3f3f"/><g fill="none" stroke-linecap="round"><path d="m7.5071212 15.99995h3.9999998" opacity=".2" stroke="#000"/><path d="m7.5071212 15.5h3.9999998" stroke="#fff"/><path d="m9.5071232 11.999951-1.0000015-1.5m-1.0000005-.500002s2.000002.232251 2.000002-.9999985c0-1.2322505-2.000002-1.0000005-2.000002-1.0000005m.000049 4.00005v-4.000001" opacity=".2" stroke="#000"/><path d="m9.5071232 11.500001-1.0000015-1.5m-1.0000005-.500002s2.000002.232251 2.000002-.9999985c0-1.2322505-2.000002-1.0000005-2.000002-1.0000005m.000049 4.000049v-4" stroke="#fff"/><path d="m11.507121 10.999904h4m-4-2.000051h4m-.999975 3.000026v-4.000001m-2.00005 4.000001v-4.000001" opacity=".2" stroke="#000"/><path d="m11.507121 10.500025h4m-4-2.00005h4m-.999975 3.000025v-4m-2.00005 4v-4" stroke="#fff"/></g></svg>