<svg height="24" viewBox="0 0 24 24" width="24" xmlns="http://www.w3.org/2000/svg"><g transform="translate(0 -1028.3622)"><path d="m5.7505114 1031.6391c-.6180399.3847-1.1527424.9249-1.4255252 1.5554-.3965422.9164-.3181896 1.6123-.3181896 2.1335v11.486c0 .5191-.061492 1.0199.185448 1.7975.2469404.7775 1.1146545 1.614 1.8564316 1.8873l.013665.01c.4089542.147.800649.2268 1.2083398.2852h.00195c.7651468.1092 1.514546.072 2.2097587-.076h.00781c.2644576-.057.5163543-.1371.7730253-.2384.576509-.2108 1.310929-.8136 1.567522-1.4829.01169-.031-.0025-.029.0078-.059.236506.4833.562516 1.0318 1.036557 1.3148.575352.3433 1.038904.4174 1.47968.4983.529953.097.947487.1018 1.460158.1074.343495.01.774461 0 1.186866-.014.416475-.014.580771.028 1.204437-.1035h.002c.717854-.1518 1.46597-.3325 2.135581-1.2426.275966-.3756.616664-.9721.651996-1.7584.05134-1.1423-.377717-1.9126-.81597-2.6766-.256811-.4478-.429128-.8783-1.050223-1.6157-.185655-.2204-.306677-.3066-.478259-.4748.139541-.119.197538-.1571.351375-.3009.938935-.8774 1.509039-1.8932 1.795917-2.7607.190821-.5771.204474-1.0327.19716-1.5062-.01522-.9846-.199188-1.992-.597337-2.9678-.36768-.901-1.01705-1.757-1.848624-2.3699-.831573-.6129-1.793159-1.0295-2.971071-1.4301-.603586-.2052-1.143296-.3499-1.749067-.4611-.802423-.1475-1.789273-.2261-2.756371-.2775-1.9180217-.089-3.7146041-.071-5.3228281.7403z" opacity=".2"/><path d="m5.7505114 1031.1391c-.6180399.3847-1.1527424.9249-1.4255252 1.5554-.3965422.9164-.3181896 1.6123-.3181896 2.1335v11.486c0 .5191-.061492 1.0199.185448 1.7975.2469404.7775 1.1146545 1.614 1.8564316 1.8873l.013665.01c.4089542.147.800649.2268 1.2083398.2852h.00195c.7651468.1092 1.514546.072 2.2097587-.076h.00781c.2644576-.057.5163543-.1371.7730253-.2384.576509-.2108 1.310929-.8136 1.567522-1.4829.01169-.031-.0025-.029.0078-.059.236506.4833.562516 1.0318 1.036557 1.3148.575352.3433 1.038904.4174 1.47968.4983.529953.097.947487.1018 1.460158.1074.343495.01.774461 0 1.186866-.014.416475-.014.580771.028 1.204437-.1035h.002c.717854-.1518 1.46597-.3325 2.135581-1.2426.275966-.3756.616664-.9721.651996-1.7584.05134-1.1423-.377717-1.9126-.81597-2.6766-.256811-.4478-.429128-.8783-1.050223-1.6157-.185655-.2204-.306677-.3066-.478259-.4748.139541-.119.197538-.1571.351375-.3009.938935-.8774 1.509039-1.8932 1.795917-2.7607.190821-.5771.204474-1.0327.19716-1.5062-.01522-.9846-.199188-1.992-.597337-2.9678-.36768-.901-1.01705-1.757-1.848624-2.3699-.831573-.6129-1.793159-1.0295-2.971071-1.4301-.603586-.2052-1.143296-.3499-1.749067-.4611-.802423-.1475-1.789273-.2261-2.756371-.2775-1.9180217-.089-3.7146041-.071-5.3228281.7403z" fill="#4f4f4f"/><path d="m9.6583105 1032.866c-.8135993-.018-1.6363221.031-2.3750628.2539-1.2999701.4558-1.2832372 1.1587-1.2832372 2.2217v11.4824c0 1.0378-.0000201 1.5376.7334178 1.8076.2225899.08.4946357.1404.816428.1865.5258757.075 1.0337309.05 1.5143814-.052.1855186-.04.3642118-.095.5127096-.1573.4431717-.1575.4402027-.4404.422862-.8114.08526-1.2997.5691807-1.9708 1.3790967-1.9225 1.621094-.013 1.787432 1.0993 2.131004 2.1521.16147.4848.467768.6255 1.205176.7606.234385.043.668569.068 1.1221.073.582852.01 1.696535-.018 1.957875-.073.454499-.096.786927-.2622.940454-.4707.141397-.1922.252372-.4117.263679-.6631.01934-.4299-.187417-.9525-.552749-1.5889-.330006-.5748-.316401-.6976-.843773-1.3232-.642154-.7619-1.456492-1.2548-1.575051-1.6875-.149374-.5452.826609-1.1054 1.611186-1.8379.732809-.6842 1.044795-1.2663 1.263705-1.9277.07099-.2145.100918-.5108.09571-.8477-.0108-.6978-.174195-1.5687-.449231-2.2422-.50047-1.2253-1.454539-1.9276-3.613377-2.6611-.541797-.184-.941162-.2899-1.46879-.3867-.613222-.1126-1.585596-.1995-2.502019-.2481-.26595-.017-1.0352902-.031-1.3064905-.037zm1.8037595 3.9961c.685699.01 1.287357.5652 1.484414 1.3916.07119.2985.0716.9429.001 1.3047-.183371.9448-.818038 1.4201-1.70903 1.2783-.305595-.048-.514497-.1686-.725605-.4151-.327488-.3824-.511748-.9794-.512709-1.6582-.00155-1.1016.500069-1.821 1.323277-1.8965.04637-.01.09296-.01.138676-.01z" opacity=".2"/><path d="m9.6583105 1032.366c-.8135993-.018-1.6363221.031-2.3750628.2539-1.2999701.4558-1.2832372 1.1587-1.2832372 2.2217v11.4824c0 1.0378-.0000201 1.5376.7334178 1.8076.2225899.08.4946357.1404.816428.1865.5258757.075 1.0337309.05 1.5143814-.052.1855186-.04.3642118-.095.5127096-.1573.4431717-.1575.4402027-.4404.422862-.8114.08526-1.2997.5691807-1.9708 1.3790967-1.9225 1.621094-.013 1.787432 1.0993 2.131004 2.1521.16147.4848.467768.6255 1.205176.7606.234385.043.668569.068 1.1221.073.582852.01 1.696535-.018 1.957875-.073.454499-.096.786927-.2622.940454-.4707.141397-.1922.252372-.4117.263679-.6631.01934-.4299-.187417-.9525-.552749-1.5889-.330006-.5748-.316401-.6976-.843773-1.3232-.642154-.7619-1.456492-1.2548-1.575051-1.6875-.149374-.5452.826609-1.1054 1.611186-1.8379.732809-.6842 1.044795-1.2663 1.263705-1.9277.07099-.2145.100918-.5108.09571-.8477-.0108-.6978-.174195-1.5687-.449231-2.2422-.50047-1.2253-1.454539-1.9276-3.613377-2.6611-.541797-.184-.941162-.2899-1.46879-.3867-.613222-.1126-1.585596-.1995-2.502019-.2481-.26595-.017-1.0352902-.031-1.3064905-.037zm1.8037595 3.9961c.685699.01 1.287357.5652 1.484414 1.3916.07119.2985.0716.9429.001 1.3047-.183371.9448-.818038 1.4201-1.70903 1.2783-.305595-.048-.514497-.1686-.725605-.4151-.327488-.3824-.511748-.9794-.512709-1.6582-.00155-1.1016.500069-1.821 1.323277-1.8965.04637-.01.09296-.01.138676-.01z" fill="#ed9f21"/><path d="m9.6582031 2c-1.3898397.0055453-2.7020351.1688688-3.9082031.7773438-.6180399.3847-1.1529985.9241875-1.4257812 1.5546874-.3965422.9164001-.3183594 1.6116126-.3183594 2.1328126v.5c0-.5212-.0781828-1.2164125.3183594-2.1328126.2727827-.6304999.8077413-1.1699874 1.4257812-1.5546874 1.608224-.8113 3.406197-.8292344 5.324219-.7402344.967098.0514 1.953436.1298437 2.755859.2773437.605771.1112 1.144461.2557375 1.748047.4609375 1.177912.4006 2.141083.8167875 2.972656 1.4296875.831574.6129 1.479976 1.4681406 1.847657 2.3691407.37326.9148028.551724 1.8576774.585937 2.7832031.002082-.103902.013328-.2103026.011719-.3144531-.01522-.9846001-.199507-1.9929501-.597656-2.96875-.367681-.9010001-1.016083-1.7562407-1.847657-2.3691407-.831573-.6129-1.794744-1.0290875-2.972656-1.4296875-.603586-.2052-1.142276-.3497375-1.748047-.4609375-.802423-.1475-1.788761-.2259437-2.755859-.2773437-.479506-.02225-.952736-.0389578-1.4160159-.0371094zm9.2617189 12.378906c-.090999.080162-.160636.141223-.267578.232422.171582.1682.290907.25421.476562.47461.621095.737399.793971 1.167434 1.050782 1.615234.388874.677918.751681 1.375028.796874 2.318359.004691-.048927.017263-.092077.019532-.142578.05134-1.1423-.378153-1.911781-.816406-2.675781-.256811-.4478-.429687-.877835-1.050782-1.615234-.0812-.096398-.142874-.143889-.208984-.207032z" fill="#fff" opacity=".1" transform="translate(0 1028.3622)"/><path d="m9.6582031 4.0039062c-.8135993-.018-1.6362593.0310063-2.375.2539063-1.2999701.4558-1.2832031 1.1577031-1.2832031 2.2207031v.5c0-1.063-.016767-1.7649031 1.2832031-2.2207031.7387407-.2229 1.5614007-.2719063 2.375-.2539063.2712003.0060001 1.0406909.0201094 1.3066409.0371094.916423.0486 1.888731.1354469 2.501953.2480469.527628.0968.926953.2027188 1.46875.3867187 2.158838.7335001 3.112811 1.4348563 3.613281 2.6601563.258375.6327013.406222 1.4315153.433594 2.1054687.008796-.115554.017635-.233266.015625-.3632812-.0108-.6978-.174183-1.5686875-.449219-2.2421875-.50047-1.2253-1.454443-1.9266562-3.613281-2.6601563-.541797-.1839999-.941122-.2899187-1.46875-.3867187-.613222-.1126-1.58553-.1994469-2.501953-.2480469-.26595-.017-1.0354406-.0311093-1.3066409-.0371094zm.3632809 6.2089848c-.003785.065761-.0215808.118692-.021484.1875.000961.6788.186184 1.275803.513672 1.658203.211108.2465.419014.368015.724609.416015.890992.1418 1.525614-.334497 1.708985-1.279297.048781-.249986.052148-.603517.033203-.916015-.008282.146606-.011469.304637-.033203.416015-.183371.9448-.817993 1.421097-1.708985 1.279297-.305595-.048-.513501-.169515-.724609-.416015-.275516-.321713-.443282-.799286-.492188-1.345703zm6.074219 4.089843c-.072037.131764-.103448.260603-.068359.388672.118559.4327.934018.9256 1.576172 1.6875.527372.6256.513744.749419.84375 1.324219.268803.468249.449319.873125.519531 1.226563.00937-.046907.030984-.089344.033203-.138672.01934-.4299-.187402-.951491-.552734-1.587891-.330006-.5748-.316378-.698619-.84375-1.324219-.589451-.699369-1.299516-1.168623-1.507813-1.576172z" fill="#fff" opacity=".2" transform="translate(0 1028.3622)"/></g></svg>