<svg height="24" width="24" xmlns="http://www.w3.org/2000/svg"><path d="m2.7672918 13.5c-.081743-.000216-1.6342759-.000471-.076813 1.391602l8.2816431 7.200195c.3075431.267398.6248001.403115 1.0278781.408203.403078-.0051.720336-.140805 1.027878-.408203l8.281643-7.200195c1.557463-1.392073.00493-1.391818-.076813-1.391602h-9.232708z" fill-rule="evenodd" opacity=".2"/><path d="m7 2c-.4155 0-.994724.4460251-1 1v10.5h6 6v-10.5c0-.554-.5845-1-1-1z" fill="#58992d"/><path d="m2.7672918 13c-.081743-.000216-1.6342759-.000471-.076813 1.391602l8.2816431 7.200195c.3075431.267398.6248001.403115 1.0278781.408203.403078-.0051.720336-.140805 1.027878-.408203l8.281643-7.200195c1.557463-1.392073.00493-1.391818-.076813-1.391602h-9.232708z" fill="#81d547" fill-rule="evenodd"/><path d="m2.7675781 13c-.0649693-.000172-1.0544641.002318-.6777343.701172.1918543-.199426.6349558-.201285.6777343-.201172h9.2324219 9.232422c.04278-.000113.48588.0017.677734.201172.37673-.698854-.612765-.701344-.677734-.701172h-9.232422z" fill="#fff" fill-rule="evenodd" opacity=".2"/><path d="m7 2c-.4155 0-.994724.4460251-1 1v .5c.005276-.5539749.5845-1 1-1h10c .4155 0 1 .446 1 1v-.5c0-.554-.5845-1-1-1z" fill="#fff" opacity=".1"/></svg>