<svg height="24" width="24" xmlns="http://www.w3.org/2000/svg"><path d="m12 2h-9c-.554 0-1 .446-1 1v9h10z" fill="#6655e4"/><path d="m12 2h9c .554 0 1 .446 1 1v9h-10z" fill="#ff8c2a"/><path d="m12 22h-9c-.554 0-1-.446-1-1v-9h10z" fill="#c72566"/><path d="m12 22h9c .554 0 1-.446 1-1v-9h-10z" fill="#fe4b71"/><path d="m3 2c-.554 0-1 .446-1 1v .5c0-.554.446-1 1-1h18c .554 0 1 .446 1 1v-.5c0-.554-.446-1-1-1z" fill="#fff" opacity=".2"/><path d="m3 22.5c-.554 0-1-.446-1-1v-.5c0 .554.446 1 1 1h18c .554 0 1-.446 1-1v .5c0 .554-.446 1-1 1z" opacity=".2"/><path d="m5 5h14v14h-14z" fill="#3f3f3f"/><g fill="none" stroke-linecap="round"><path d="m7.5071212 15.99995h3.9999998" opacity=".2" stroke="#000"/><path d="m7.5071212 15.5h3.9999998" stroke="#fff"/><path d="m14.507121 11.999951v-4.000001m-3 0 1.5 1.999999 1.5-1.999999m-3 4.000001v-4.000001" opacity=".2" stroke="#000" stroke-linejoin="round"/><path d="m14.507121 11.500001v-4.000001m-3 0 1.5 1.999999 1.5-1.999999m-3 4v-4" stroke="#fff" stroke-linejoin="round"/><path d="m9.5071222 11.99995-1.000001-1.5m-1.0000005-.500001s2.0000015.23225 2.0000015-.999999c0-1.2322505-2.0000015-1.0000005-2.0000015-1.0000005m.000049 4.0000495v-4.0000005" opacity=".2" stroke="#000"/><path d="m9.5071222 11.5-1.000001-1.5m-1.0000005-.5000015s2.0000015.2322505 2.0000015-.9999985c0-1.2322505-2.0000015-1.0000005-2.0000015-1.0000005m.000049 4.0000495v-4.0000005" stroke="#fff"/></g></svg>