<svg height="24" width="24" xmlns="http://www.w3.org/2000/svg"><g transform="scale(.5)"><path d="m24 5c-11.08 0-20 8.92-20 20s8.92 20 20 20 20-8.92 20-20-8.92-20-20-20z" opacity=".2"/><path d="m24 4c-11.08 0-20 8.92-20 20s8.92 20 20 20 20-8.92 20-20-8.92-20-20-20z" fill="#d2d2d2"/><circle cx="34.648" cy=".707" opacity=".1" r="14" transform="matrix(.70710678 .70710678 -.70710678 .70710678 0 0)"/><path d="m24 4c-11.08 0-20 8.92-20 20 0 .168.0076.333.0117.5.2647-10.846 9.0763-19.5 19.988-19.5s19.724 8.654 19.988 19.5c.004-.167.012-.332.012-.5 0-11.08-8.92-20-20-20z" fill="#fff" opacity=".2"/><circle cx="33.941" fill="#4d4d4d" r="14" transform="matrix(.70710678 .70710678 -.70710678 .70710678 0 0)"/><path d="m32.485 16.515c-1.313-1.314-2.854-2.248-4.49-2.827l-1.5206 3.8877-3.182 8.1317 8.1317-3.182 3.8877-1.5206c-.57979-1.6355-1.5134-3.1762-2.827-4.4899z" opacity=".2"/><path d="m32.485 15.515c-1.313-1.314-2.854-2.248-4.49-2.827l-1.5206 3.8877-3.182 8.1317 8.1317-3.182 3.8877-1.5206c-.57979-1.6355-1.5134-3.1762-2.827-4.4899z" fill="#57beff"/><circle cx="24" cy="15" opacity=".2" r="2"/><circle cx="24" cy="14" fill="#94ff57" r="2"/><circle cx="24" cy="35" opacity=".2" r="2"/><circle cx="24" cy="34" fill="#94ff57" r="2"/><g transform="rotate(90)"><circle cx="25" cy="-34" opacity=".2" r="2"/><circle cx="24" cy="-34" fill="#94ff57" r="2"/><circle cx="25" cy="-14" opacity=".2" r="2"/><circle cx="24" cy="-14" fill="#94ff57" r="2"/></g></g></svg>