<svg height="24" width="24" xmlns="http://www.w3.org/2000/svg"><rect height="20" opacity=".2" rx="1" width="20" x="2" y="2.5"/><rect fill="#4f4f4f" height="20" rx="1" width="20" x="2" y="2"/><path d="m6 4.5214844a2 2 0 0 0 -2 2 2 2 0 0 0 2 2 2 2 0 0 0 2-2 2 2 0 0 0 -2-2zm6 .029297c-1.108 0-2 .892-2 2 0 1.1080001.892 2 2 2h6c1.108 0 2-.892 2-2s-.892-2-2-2zm-6 5.9199216a2 2 0 0 0 -2 2.001953 2 2 0 0 0 2 2 2 2 0 0 0 2-2 2 2 0 0 0 -2-2.001953zm6 .029297c-1.108 0-2 .892-2 2s .892 2 2 2h6c1.108 0 2-.892 2-2s-.892-2-2-2zm-6 5.972656a2 2 0 0 0 -2 1.998047 2 2 0 0 0 2 2 2 2 0 0 0 2-2 2 2 0 0 0 -2-1.998047zm6 .027344c-1.108 0-2 .892-2 2s .892 2 2 2h6c1.108 0 2-.892 2-2s-.892-2-2-2z" opacity=".2"/><g fill="#fff"><path d="m3 2c-.554 0-1 .446-1 1v .5c0-.554.446-1 1-1h18c .554 0 1 .446 1 1v-.5c0-.554-.446-1-1-1z" opacity=".1"/><path d="m6 9.9716795a2 2 0 0 0 -2 2.0000005 2 2 0 0 0 2 2 2 2 0 0 0 2-2 2 2 0 0 0 -2-2.0000005z"/><path d="m12 10c-1.108 0-2 .892-2 2s .892 2 2 2h6c1.108 0 2-.892 2-2s-.892-2-2-2z"/></g><path d="m6 15.97168a2 2 0 0 0 -2 1.999999 2 2 0 0 0 2 2 2 2 0 0 0 2-2 2 2 0 0 0 -2-1.999999z" fill="#ff9448"/><path d="m12 16c-1.108 0-2 .892-2 2s .892 2 2 2h6c1.108 0 2-.892 2-2s-.892-2-2-2z" fill="#ff9448"/><path d="m6 4.0216795a2 2 0 0 0 -2 2 2 2 0 0 0 2 2 2 2 0 0 0 2-2 2 2 0 0 0 -2-2z" fill="#fff"/><path d="m12 4.0499995c-1.108 0-2 .892-2 2s .892 2 2 2h6c1.108 0 2-.892 2-2s-.892-2-2-2z" fill="#fff"/></svg>