<svg height="24" width="24" xmlns="http://www.w3.org/2000/svg"><path d="m324.48 51.943-146.49-51.658c-1.076-.38-2.25-.38-3.326 0l-146.49 51.658c-1.999.705-3.337 2.595-3.337 4.715 0 52.278 13.834 112.71 37.956 165.8 19.566 43.069 54.751 100.52 111.25 129.62.719.37 1.504.555 2.29.555s1.571-.185 2.29-.555c56.496-29.106 91.68-86.556 111.25-129.62 24.121-53.094 37.955-113.53 37.955-165.8 0-2.12-1.338-4.01-3.337-4.715z" fill="#59c156" transform="matrix(.056109 0 0 .056714 1.60682 2)"/><path d="m324.48 51.943-146.49-51.658c-1.076-.38-2.25-.38-3.326 0l-146.49 51.658c-1.999.705-3.337 2.595-3.337 4.715 0 52.278 13.834 112.71 37.956 165.8 19.566 43.069 54.751 100.52 111.25 129.62.719.37 1.504.555 2.29.555s1.571-.185 2.29-.555c56.496-29.106 91.68-86.556 111.25-129.62 24.121-53.094 37.955-113.53 37.955-165.8 0-2.12-1.338-4.01-3.337-4.715z" opacity=".2" transform="matrix(.029704 0 0 .031193 6.2624 6.5004)"/><path d="m324.48 51.943-146.49-51.658c-1.076-.38-2.25-.38-3.326 0l-146.49 51.658c-1.999.705-3.337 2.595-3.337 4.715 0 52.278 13.834 112.71 37.956 165.8 19.566 43.069 54.751 100.52 111.25 129.62.719.37 1.504.555 2.29.555s1.571-.185 2.29-.555c56.496-29.106 91.68-86.556 111.25-129.62 24.121-53.094 37.955-113.53 37.955-165.8 0-2.12-1.338-4.01-3.337-4.715z" fill="#fff" transform="matrix(.029704 0 0 .031193 6.2624 6.0004)"/><path d="m24 4c-.063 0-.125.0117-.186.0332l-16.439 5.8594c-.2243.0799-.375.2924-.375.5334 0 .27.0209.552.0273.826.0528-.166.1795-.299.3477-.359l16.439-5.8598c.121-.0431.253-.0431.374 0l16.437 5.8598c.168.06.295.193.348.359.006-.274.027-.556.027-.826 0-.241-.151-.4535-.375-.5334l-16.437-5.8594c-.061-.0215-.125-.0332-.188-.0332z" fill="#fff" opacity=".2" transform="matrix(.50000974 0 0 .4999963 -.500073 .000038)"/><path d="m7.0273 10.258c-.0164.053-.0273.11-.0273.168 0 5.93 1.5529 12.786 4.26 18.808 2.195 4.886 6.142 11.402 12.482 14.704.081.041.17.062.258.062s.177-.021.258-.062c6.34-3.302 10.286-9.818 12.482-14.704 2.707-6.022 4.26-12.878 4.26-18.808 0-.058-.011-.115-.027-.168-.136 5.735-1.65 12.231-4.233 17.976-2.196 4.886-6.142 11.402-12.482 14.704-.081.041-.17.062-.258.062s-.177-.021-.258-.062c-6.34-3.302-10.287-9.818-12.482-14.704-2.5827-5.745-4.0974-12.241-4.2327-17.976z" opacity=".2" transform="matrix(.50000974 0 0 .4999963 -.500073 .500038)"/></svg>