<svg height="24" width="24" xmlns="http://www.w3.org/2000/svg"><g transform="translate(1 1)"><path d="m9 3c-2.071 0-3.8347 1.2679-4.5938 3.0625-1.9278.2866-3.4062 1.9299-3.4062 3.9375 0 2.2092 1.7908 4 4 4h8.5c1.933 0 3.5-1.567 3.5-3.5 0-1.7966-1.351-3.2687-3.094-3.4688-.454-2.2934-2.479-4.0312-4.906-4.0312z" fill="#a1bde8"/><path d="m9 3c-2.071 0-3.8347 1.2679-4.5938 3.0625-1.9278.2866-3.4062 1.9299-3.4062 3.9375 0 .079.0072.157.0117.235.1237-1.8852 1.5524-3.3986 3.3945-3.6725.7591-1.7946 2.5228-3.0625 4.5938-3.0625 2.4268 0 4.4517 1.7378 4.9062 4.0312 1.657.19019 2.9566 1.5307 3.0811 3.2061.006-.079.013-.157.013-.237 0-1.7966-1.351-3.2687-3.094-3.4688-.454-2.2934-2.479-4.0312-4.906-4.0312z" fill="#fff" opacity=".1"/><path d="m1.0117 10.235c-.0057.088-.0117.176-.0117.265 0 2.2092 1.7908 4 4 4h8.5c1.933 0 3.5-1.567 3.5-3.5 0-.089-.006-.176-.013-.263-.122 1.822-1.634 3.263-3.487 3.263h-8.5c-2.1297 0-3.8659-1.666-3.9883-3.765z" opacity=".2"/><path d="m13 8c-2.071 0-3.8347 1.2679-4.5938 3.062-1.9278.287-3.4062 1.93-3.4062 3.938 0 2.2092 1.7908 4 4 4h8.5c1.933 0 3.5-1.567 3.5-3.5 0-1.797-1.351-3.269-3.094-3.469-.454-2.2932-2.479-4.031-4.906-4.031z" fill="#5481c5"/><path d="m5.0117 15.235c-.0057.088-.0117.176-.0117.265 0 2.2092 1.7908 4 4 4h8.5c1.933 0 3.5-1.567 3.5-3.5 0-.089-.006-.176-.013-.263-.122 1.822-1.634 3.263-3.487 3.263h-8.5c-2.1297 0-3.8659-1.666-3.9883-3.765z" opacity=".2"/></g></svg>