<svg height="24" viewBox="0 0 24 24" width="24" xmlns="http://www.w3.org/2000/svg"><path d="m21.999844 12.556018a9.999923 9.999923 0 1 0 -19.9995335 0 9.999923 9.999923 0 0 0 19.9995335 0" opacity=".2"/><path d="m21.999844 12.056023a9.999923 9.999923 0 1 0 -19.9995335 0 9.999923 9.999923 0 0 0 19.9995335 0" fill="#4f4f4f"/><path d="m5 12.5c0 3.859827 3.1401734 7 7.000001 7 3.859826 0 6.999999-3.140173 6.999999-7 0-3.8598266-3.140173-7.0000001-6.999999-7.0000001-3.8598276 0-7.000001 3.1401735-7.000001 7.0000001z" opacity=".2"/><path d="m5 12c0 3.859827 3.1401734 7 7.000001 7 3.859826 0 6.999999-3.140173 6.999999-7 0-3.8598266-3.140173-7.0000001-6.999999-7.0000001-3.8598276 0-7.000001 3.1401735-7.000001 7.0000001z" fill="#fff"/><path d="m12.000077 6.5239272v5.7361518c-.480625-.170051-.963634-.259161-1.499988-.259998-1.932982 0-3.4999734 1.119279-3.4999734 2.499981 0 1.380701 1.5669914 2.499981 3.4999734 2.499981 1.932981 0 3.499973-1.11928 3.499973-2.499981v-5.999954s2.585055 1.1985745 1.406223 2.27953c-.323757.185711-.429918.472741-.373044.72265.08637.379508.548016.674326 1.189444.401364.963761-.502482 1.27735-1.403309 1.27735-2.1533035 0-2.2499831-2.999977-3.7502212-4.999962-3.7502212-.499996 0-.499996.5237999-.499996.5237999z" fill="#366adb"/><path d="m11.7636 2.0030877a9.999769 9.999923 0 0 0 -9.7634459 10.0526573 9.999769 9.999923 0 0 0  .00781.133788 9.999769 9.999923 0 0 1 19.9839136.185545 9.999769 9.999923 0 0 0  .0078-.319333 9.999769 9.999923 0 0 0 -10.2360777-10.0526573z" fill="#fff" opacity=".1"/></svg>