<svg height="24" width="24" xmlns="http://www.w3.org/2000/svg"><rect fill="#8a4b2c" height="20" rx="1" transform="matrix(0 -1 -1 0 0 0)" width="20" x="-22" y="-22"/><path d="m2 3.5v-.5c0-.554.446-1 1-1h18c .554 0 1 .446 1 1v .5c0-.554-.446-1-1-1h-18c-.554 0-1 .446-1 1z" fill="#fff" opacity=".1"/><path d="m2 21v .5c0 .554.446 1 1 1h18c .554 0 1-.446 1-1v-.5c0 .554-.446 1-1 1h-18c-.554 0-1-.446-1-1z" opacity=".2"/><path d="m8.2857457 17.310809c.060909-.100071.2341915-.32137.38507-.491774s.274324-.27705.274324-.297899c0-.02617-.043775-.0309-.141318-.01527-.8038217-.005866-.8038217-.005866-.8038217-.005866s0 0-.011558-2.48667c-.014936-3.213497-.036265-2.905465.2584195-3.053379.2131711-.107002.478672-.2733.713573-.310816.3999641-.06388.6714381.232742.8697596.619549.054322.105949.1162395.185914.138309.178623.063025-.02082.074553-2.914661.011625-2.914661-.02517 0-.072574.069614-.1053405.1546975-.083204.2160605-.2786726.71379-.5120805.817667-.2438591.108529-1.0205731.383048-1.18266.383048-.065669 0-.1373511-.017805-.159298-.03957-.03019-.02994-.03978-.537655-.03939-2.085674.0003325-1.1253575.012025-2.064077.0261-2.086044.1250214-.1950939.7908095-.2758723 1.4684455-.1250335.6566394.1170379 1.1035274.6297363 1.3942004.9045255.01443.027205.04704.049465.07248.049465.03856 0 .0478-.01382.05551-1.0857906.0051-.7073156.00075-1.8210556-.0097-1.8634629-.016-.065176-.02686-.070582-.07016-.034948 0 0-.226311.7764451-.345848.9035154l-.104053.0868442-.6375387-.0112706c-.3505916-.0061979-.6716251.0001649-1.9348111-.00123-1.263186-.001385-3.8222764.0196005-3.8529842.0312865.3969979.3251442 1.5610479.9625731 1.9276565 1.408826.069984.2607085.067467 3.743816-.0029 4.039884-.050698.4747755-.9677565.9529365-.9677565.9529365l.978597.851818c.04832.192117.04086 6.10983.04086 6.10983l-1.019457.606034 1 1 1 1c .2742171-1.121327.7086947-2.19008 1.2857457-3.189191z" opacity=".2"/><path d="m8.2857457 16.810809c.060909-.100071.2341915-.32137.38507-.491774s.274324-.27705.274324-.297899c0-.02617-.043775-.0309-.141318-.01527-.8038217-.005866-.8038217-.005866-.8038217-.005866s0 0-.011558-2.48667c-.014936-3.213497-.036265-2.905465.2584195-3.053379.2131711-.107002.478672-.2733.713573-.310816.3999641-.06388.6714381.232742.8697596.619549.054322.105949.1162395.185914.138309.178623.063025-.02082.074553-2.914661.011625-2.914661-.02517 0-.072574.069614-.1053405.1546975-.083204.2160605-.2786726.71379-.5120805.817667-.2438591.108529-1.0205731.383048-1.18266.383048-.065669 0-.1373511-.017805-.159298-.03957-.03019-.02994-.03978-.537655-.03939-2.085674.0003325-1.1253575.012025-2.064077.0261-2.086044.1250214-.1950939.7908095-.2758723 1.4684455-.1250335.6566392.1170379 1.1035272.6297363 1.3942002.9045255.01443.027205.04704.049465.07248.049465.03856 0 .0478-.01382.05551-1.0857906.0051-.7073156.00075-1.8210556-.0097-1.8634629-.016-.065176-.02686-.070582-.07016-.034948 0 0-.226311.7764451-.345848.9035154l-.1040528.0868442-.6375387-.0112706c-.3505916-.0061979-.6716251.0001649-1.9348111-.00123-1.263186-.001385-3.8222764.0196005-3.8529842.0312865.3969979.3251442 1.5610479.9625731 1.9276565 1.408826.069984.2607085.067467 3.743816-.0029 4.039884-.050698.4747759-.9677565.9529365-.9677565.9529365l.978597.851818c.04832.192117.04086 6.10983.04086 6.10983l-1.019457.606034 1 1 1 1c .2742171-1.121327.7086947-2.19008 1.2857457-3.189191z" fill="#fbb64a"/><path d="m13.038086 5.5c-.03523.021605-.04251.8804225-.03515 1.805171.0107 1.3446485.01792 1.3742505.241211.986328.154533-.268486.443096-.7083015.668941-.7910155.13142-.04813-.18359.00694.29933-.0049.552131-.013515.685983-.00795.738281.043945.05352.053096.103826-.2024015.05859 1.02979v1.37207l-1.009289.5586115.991705.825178.01074 3.146484c.0098 3.125395.0086 2.966253-.06348 3.028329-.152862.075733-.938965.500009-.938965.500009s.981701.373027 1.182129.499991l.867871 1.000009.95-.999992c0-.000008.752042-.346075 1-.500008-.136197-.09867-.780045-.421332-.939453-.499992-.07211-.06208-.07327.09706-.06348-3.028328l.01074-3.146484.992193-.825196-1.00977-.558594v-1.37207c-.04523-1.2321915.0051-.976694.05859-1.02979.0523-.05189.186151-.057461.738281-.043945.48292.011825.1684-.043245.299821.0049.225844.082714.514407.5225295.668945.7910155.223284.3879225.230516.3583205.241211-.986328.0074-.9247485.000074-1.7835835-.03515-1.8051885l-.409179.9770635c-.05394.027332-.936736.023078-2.302749.02342-1.366013-.0003425-2.748796.0039-2.802734-.023435z" opacity=".2"/><path d="m13.038086 5c-.03523.021605-.04251.8804225-.03515 1.805171.0107 1.3446485.01792 1.3742505.241211.986328.154533-.268486.443096-.7083015.668941-.7910155.13142-.04813-.18359.00694.29933-.0049.552131-.013515.685983-.00795.738281.043945.05352.053096.103826-.2024015.05859 1.02979v1.37207l-1.009289.5586115.991705.825178.01074 3.146484c.0098 3.125395.0086 2.966253-.06348 3.028329-.152862.075733-.938965.500009-.938965.500009s.981701.373027 1.182129.499991l.867871 1.000009.95-.999992c0-.000008.752042-.346075 1-.500008-.136197-.09867-.780045-.421332-.939453-.499992-.07211-.06208-.07327.09706-.06348-3.028328l.01074-3.146484.992193-.825196-1.00977-.558594v-1.37207c-.04523-1.2321915.0051-.976694.05859-1.02979.0523-.05189.186151-.057461.738281-.043945.48292.011825.1684-.043245.299821.0049.225844.082714.514407.5225295.668945.7910155.223284.3879225.230516.3583205.241211-.986328.0074-.9247485.000074-1.7835835-.03515-1.8051885l-.409179.9770635c-.05394.027332-.936736.023078-2.302749.02342-1.366013-.0003425-2.748796.0039-2.802734-.023435z" fill="#fbb64a"/></svg>