<svg height="24" width="24" xmlns="http://www.w3.org/2000/svg"><path d="m20 21v-18c0-.554-.446-1-1-1h-14c-.554 0-1 .446-1 1v18c0 .554.446 1 1 1h14c .554 0 1-.446 1-1z" fill="#4f4f4f"/><path d="m5 2c-.554 0-1 .446-1 1v .5c0-.554.446-1 1-1h14c .554 0 1 .446 1 1v-.5c0-.554-.446-1-1-1z" fill="#fff" opacity=".1"/><path d="m4 21v .5c0 .554.446 1 1 1h14c .554 0 1-.446 1-1v-.5c0 .554-.446 1-1 1h-14c-.554 0-1-.446-1-1z" opacity=".2"/><g opacity=".2" stroke-width=".5"><path d="m5 3.5h2v2h-2z"/><path d="m5 7.5h2v2h-2z"/><path d="m5 11.5h2v2h-2z"/><path d="m5 15.5h2v2h-2z"/><path d="m5 19.5h2v2h-2z"/><path d="m17 3.5h2v2h-2z"/><path d="m17 7.5h2v2h-2z"/><path d="m17 11.5h2v2h-2z"/><path d="m17 15.5h2v2h-2z"/><path d="m17 19.5h2v2h-2z"/></g><g fill="#fff" stroke-width=".5"><path d="m5 3h2v2h-2z"/><path d="m5 7h2v2h-2z"/><path d="m5 11h2v2h-2z"/><path d="m5 15h2v2h-2z"/><path d="m5 19h2v2h-2z"/><path d="m17 3h2v2h-2z"/><path d="m17 7h2v2h-2z"/><path d="m17 11h2v2h-2z"/><path d="m17 15h2v2h-2z"/><path d="m17 19h2v2h-2z"/></g><path d="m8 4h8v7h-8z" opacity=".2"/><path d="m8 13h8v7h-8z" opacity=".2"/><circle cx="17.5" cy="17.5" fill="#4269cd" fill-rule="evenodd" r="5.5"/><path d="m17.5 14c-1.933 0-3.5 1.567-3.5 3.5s1.567 3.5 3.5 3.5c1.5874 0 2.9308-1.0516 3.3594-2.5h-1.0781c-.38714.87975-1.2584 1.5-2.2812 1.5-1.3807 0-2.5-1.1193-2.5-2.5s1.1193-2.5 2.5-2.5c.6908 0 1.3078.28752 1.7578.7422l-1.258 1.258h3v-3l-1.0264 1.0264c-.634-.6325-1.5065-1.0265-2.4735-1.0265z" fill="#fff"/></svg>