<svg height="24" width="24" xmlns="http://www.w3.org/2000/svg"><path d="m10 2.5c-3.8304593 0-7 3.1695407-7 7 0 2.772762 1.6885002 5.158503 4.0585938 6.287109.161775 3.693176 3.2124252 6.712891 6.9414062 6.712891 3.830459 0 7-3.169541 7-7 .000058-.399264-.110123-.785339-.177734-1.177734.04738-.27491.176909-.532079.177734-.8125a3.0003 3.0003 0 0 0 0-.009766c0-2.416453-1.818338-4.3814826-4.123047-4.8183594-.014342-.1206541-.034087-.2396384-.054687-.359375.047378-.27491.176909-.5320781.177734-.8125a3.0003 3.0003 0 0 0 0-.0097656c0-2.7258898-2.27411-5-5-5a3.0003 3.0003 0 0 0 -.01367 0c-.280483.00121-.537614.1319151-.8125.1796875-.387063-.0674444-.768152-.1781102-1.162111-.1796875a3.0003 3.0003 0 0 0 -.011719 0z" opacity=".2"/><path d="m10 2c-3.8304593 0-7 3.1695407-7 7 0 2.772762 1.6885002 5.158503 4.0585938 6.287109.161775 3.693176 3.2124252 6.712891 6.9414062 6.712891 3.830459 0 7-3.169541 7-7 .000058-.399264-.110123-.785339-.177734-1.177734.04738-.27491.176909-.532079.177734-.8125a3.0003 3.0003 0 0 0 0-.009766c0-2.416453-1.818338-4.3814826-4.123047-4.8183594-.014342-.1206541-.034087-.2396384-.054687-.359375.047378-.27491.176909-.5320781.177734-.8125a3.0003 3.0003 0 0 0 0-.0097656c0-2.7258898-2.27411-5-5-5a3.0003 3.0003 0 0 0 -.01367 0c-.280483.00121-.537614.1319151-.8125.1796875-.387063-.0674444-.768152-.1781102-1.162111-.1796875a3.0003 3.0003 0 0 0 -.011719 0z" fill="#a32b58"/><path d="m10 5.5a4 4 0 0 0 -4 4 4 4 0 0 0 4 4 4 4 0 0 0 4-4 4 4 0 0 0 -4-4zm .5.5a3 3 0 0 1 3 3 3 3 0 0 1 -3 3 3 3 0 0 1 -3-3 3 3 0 0 1 3-3z" opacity=".2"/><path d="m14 11.5a4 4 0 0 0 -4 4 4 4 0 0 0 4 4 4 4 0 0 0 4-4 4 4 0 0 0 -4-4zm .5.5a3 3 0 0 1 3 3 3 3 0 0 1 -3 3 3 3 0 0 1 -3-3 3 3 0 0 1 3-3z" opacity=".2"/><path d="m10 5a4 4 0 0 0 -4 4 4 4 0 0 0 4 4 4 4 0 0 0 4-4 4 4 0 0 0 -4-4zm .5.5a3 3 0 0 1 3 3 3 3 0 0 1 -3 3 3 3 0 0 1 -3-3 3 3 0 0 1 3-3z" fill="#f3ab6f"/><circle cx="12" cy="7.5" opacity=".2" r="2"/><circle cx="12" cy="7" fill="#f7c39a" r="2"/><path d="m14 11a4 4 0 0 0 -4 4 4 4 0 0 0 4 4 4 4 0 0 0 4-4 4 4 0 0 0 -4-4zm .5.5a3 3 0 0 1 3 3 3 3 0 0 1 -3 3 3 3 0 0 1 -3-3 3 3 0 0 1 3-3z" fill="#f3ab6f"/><circle cx="16" cy="13.5" opacity=".2" r="2"/><circle cx="16" cy="13" fill="#f7c39a" r="2"/><path d="m10 2c-3.8304593 0-7 3.1695407-7 7 0 .069055.013546.1345635.015625.203125.1598862-3.6948496 3.2541634-6.703125 6.984375-6.703125a3.0003 3.0003 0 0 1  .011719 0c .393959.0015773.775046.1122431 1.162109.1796875.274886-.0477724.532017-.1784775.8125-.1796875a3.0003 3.0003 0 0 1  .013672 0c2.596957 0 4.779401 2.0648306 4.980469 4.6171875.004091-.036215.019422-.070494.019531-.1074219a3.0003 3.0003 0 0 0 0-.0097656c0-2.7258898-2.27411-5-5-5a3.0003 3.0003 0 0 0 -.013672 0c-.280483.00121-.537614.1319151-.8125.1796875-.387063-.0674444-.76815-.1781102-1.162109-.1796875a3.0003 3.0003 0 0 0 -.011719 0zm6.871094 6.1386719c-.016785.0611445-.038058.121097-.048828.1835937.0206.1197366.040345.2387209.054687.359375 2.199564.4169456 3.938053 2.2313334 4.09375 4.4960934.009222-.056058.029127-.1103.029297-.167968a3.0003 3.0003 0 0 0 0-.009766c0-2.416453-1.818338-4.3814826-4.123047-4.8183594-.001711-.0143921-.004002-.02862-.005859-.0429687zm4.005859 5.9707031c-.019992.0706-.042225.140581-.054687.212891.058351.338654.136619.673845.160156 1.015625.005558-.112855.017578-.223797.017578-.337891.000044-.301496-.063168-.595769-.123047-.890625z" fill="#fff" opacity=".1"/></svg>