<svg height="24" width="24" xmlns="http://www.w3.org/2000/svg"><g transform="translate(1.0001 1)"><path d="m9.9989 10.333-1.241 1.408-.957.927-1.0655.711-1.2815.671-1.4842.5485-.9297.216-.04005.12.0537.3225.21585.537.458.8855.44545.6565.863.8995.391.3885.3505.122 1.5905-.0145-.943.6435-.014.162.5665.4425.7685.4425c.9935.551 1.889-.538 1.889-.538s-.482.8255-.4525 1.116h.9445l.499-.08.5665-.2825-.1895.295 1.0265.013c1.082-.024 1.798-.646 2.439-1.313l.674-.792.5265-.791.3905-.725.621-1.4355.472-1.167.2295-.618h-.224l-1.705-.1965c-1.369-.385-2.107-1.391-3.376-2.16l-1.0515-.6445-.836-.496-.121-.175-.0245-.068-.045999-.0295z" fill="#fed24c"/><path d="m17.654 1.5234-.991 1.8597-.858 1.8971-1.049 2.0691-.725 1.702-.806-.3369-1.16-.4976h-.28392l-.24213.067395-.39058.51045-1.1328 1.4884.05333.14769.12106.17493.83595.49613 1.0521.6438c1.2689.7691 2.0064 1.7743 3.3756 2.1602l1.7048.19722h.28681l.01873-.07456.2479-1.5185.20322-1.2274.02017-.2624-.14845-.27531-.9988-.45598-.5794-.24806-.35455-.22655-.04035-.01721.04756-.075995.59235-1.4611.53325-1.2905.6673-1.745.51595-1.2346.43814-1.0998.35989-1.0657c.216-.7959-.731-1.2265-1.314-.3006z" fill="#c2352a"/><path d="m18.383 1.002c-.2405.01795-.5105.1743-.7285.5215l-.991 1.8593-.858 1.8977-1.049 2.069-.725 1.7025-.806-.337-1.16-.498h-.2845l-.242.067-.3905.511-1.133 1.488.054.1475.1025.1475.9765-1.283.3905-.511.242-.067h.2845l1.16.497.8055.338.725-1.7025 1.0495-2.069.8575-1.8977.9915-1.8593c.4555-.7244 1.127-.61305 1.2975-.1514l.017-.04785c.134-.4975-.186-.85212-.586-.8222zm-2.392 8.8995-.1295.319-.047.0765.04.0175.3545.2265.579.248.999.456.1035.1915.0255-.1545.0195-.2615-.1485-.2755-.999-.456-.579-.248z" fill="#fff" opacity=".2"/><path d="m18.952 1.8721-.3435 1.0176-.4375 1.0996-.5165 1.2352-.667 1.745-.5335 1.2905-.5925 1.4605-.047.0765.04.0175.1365.087.463-1.1415.5335-1.2905.667-1.745.5165-1.2352.4375-1.0996.3605-1.0654c.0465-.1732.0305-.3237-.017-.45215zm-8.78 8.706-.1565.205.054.1475.121.175.836.496 1.0515.6445c1.269.769 2.007 1.7745 3.376 2.16l1.705.1965h.2865l.0195-.074.247-1.5185.204-1.228.0195-.2615-.045-.084-.1785 1.0735-.247 1.5185-.0195.074h-.2865l-1.705-.1965c-1.369-.385-2.107-1.391-3.376-2.16l-1.0515-.6445-.836-.496z" opacity=".2"/><path d="m9.9989 10.333-1.241 1.408-.957.927-1.0655.711-1.2815.671-1.4842.5485-.9297.216-.04005.12.0537.3225.01955.0495.8965-.208 1.4842-.5485 1.2815-.671 1.0655-.711.957-.927 1.241-1.408.045999.0295.0245.068.121.175.836.496 1.0515.6445c1.269.769 2.007 1.7745 3.376 2.16l1.705.1965h.0385l.1855-.5h-.224l-1.705-.1965c-1.369-.385-2.107-1.391-3.376-2.16l-1.0515-.6445-.836-.496-.121-.175-.0245-.068zm-2.631 8.8985-.743.007-.2.1365-.014.162.2375.1855zm2.267 1.1525s-.158.184-.4065.363c-.0315.0995-.0525.19-.046.253h.1445c.1335-.307.308-.616.308-.616z" fill="#fff" opacity=".2"/><path d="m17.197 14.603-.044.118-.472 1.167-.621 1.4355-.3905.725-.5265.791-.674.792c-.641.6665-1.357 1.289-2.44 1.3145l-1.0265-.013.1895-.295-.5665.2825-.499.08h-.8c-.0846.194-.1566.388-.1451.5h.9445l.499-.08.5665-.2825-.1895.295 1.0265.013c1.083-.026 1.799-.648 2.44-1.315l.674-.792.5265-.791.3905-.725.621-1.4355.472-1.167.2295-.618h-.1855zm-14.124.704-.0332.008-.04005.12.0537.3225.21585.537.458.8855.44545.6565.863.8995.391.3885.3505.122.8475-.0075.743-.507-1.5905.0145-.3505-.122-.3906-.388-.863-.9-.4455-.656-.458-.886-.1963-.487zm3.5752 4.416-.2235.1525-.014.162.5665.4425.7685.4425c.584.3235 1.1285.08 1.4825-.175.114-.359.4065-.863.4065-.863s-.8955 1.089-1.889.538l-.768-.442-.329-.257z" opacity=".2"/></g></svg>