<svg height="24" viewBox="0 0 24 24" width="24" xmlns="http://www.w3.org/2000/svg"><path d="m14 5.5v11s-4-2.5135-4-5.5 4-5.5 4-5.5z" opacity=".2"/><path d="m14 5.5v-3l4 1.5z" opacity=".2"/><path d="m8 9.5v7s-3-1.5995-3-3.5 3-3.5 3-3.5z" opacity=".2"/><path d="m15 16.5h-13s3 5 12 5c6 0 8-3.5 8-5 0-1.297655 0-2-1-2h-5c-1 0-1 .800928-1 2z" opacity=".2"/><path d="m14 5v11s-4-2.5135-4-5.5 4-5.5 4-5.5z" fill="#e4e4e4"/><path d="m14 5v-3l4 1.5z" fill="#c83737"/><path d="m8 9v7s-3-1.5995-3-3.5 3-3.5 3-3.5z" fill="#e4e4e4"/><path d="m15 16h-13s3 5 12 5c6 0 8-3.5 8-5 0-1.297655 0-2-1-2h-5c-1 0-1 .800928-1 2z" fill="#784421"/><path d="m16 15.5s0-.5.5-.5.5.5.5.5v1.5h-1z" opacity=".4"/><path d="m18 15.5s0-.5.5-.5.5.5.5.5v1.5h-1z" opacity=".4"/><path d="m20 15.5s0-.5.5-.5.5.5.5.5v1.5h-1z" opacity=".4"/><g fill="#fff"><path d="m14 5s-4 2.5135-4 5.5c0 .084107.013365.166688.019531.25.212789-2.8749283 3.980469-5.25 3.980469-5.25z" opacity=".1"/><path d="m14 2v .5l3.333984 1.25.666016-.25z" opacity=".1"/><path d="m8 9s-3 1.5995-3 3.5c0 .084461.0121138.166842.0234375.25.2434754-1.788023 2.9765625-3.25 2.9765625-3.25z" opacity=".1"/><path d="m16 14c-1 0-1 .800928-1 2h-13s .1472581.213374.3789062.5h12.6210938c0-1.199072 0-2 1-2h5c .869888 0 .977461.560254.992188 1.552734.00042-.015745.007812-.037401.007812-.052734 0-1.297655 0-2-1-2z" opacity=".1"/></g></svg>