<svg height="24" width="24" xmlns="http://www.w3.org/2000/svg"><g transform="translate(1 1)"><rect fill="#4289d6" height="20" rx="1" transform="matrix(0 -1 -1 0 0 0)" width="20" x="-21" y="-21"/><path d="m2 1c-.554 0-1 .446-1 1v .5c0-.554.446-1 1-1h18c .554 0 1 .446 1 1v-.5c0-.554-.446-1-1-1z" fill="#fff" opacity=".2"/><path d="m2 21.5c-.554 0-1-.446-1-1v-.5c0 .554.446 1 1 1h18c .554 0 1-.446 1-1v .5c0 .554-.446 1-1 1z" opacity=".2"/><path d="m10 4.5-2.5 9-1.539-5h-2.961v1.5h2.031l2.469 8.5 2.5-9.5 1.5 5 2-5.5 1.5 5.5h3v-1.5h-2c-.818-2.6155-2.5-7.5-2.5-7.5l-2 5z" opacity=".2"/><path d="m10 4-2.5 9-1.539-5h-2.961v1.5h2.031l2.469 8.5 2.5-9.5 1.5 5 2-5.5 1.5 5.5h3v-1.5h-2c-.818-2.6155-2.5-7.5-2.5-7.5l-2 5z" fill="#fff"/></g></svg>