<svg height="24" width="24" xmlns="http://www.w3.org/2000/svg"><g transform="translate(1 1)"><rect fill="#4f4f4f" height="20" rx="10" transform="matrix(0 -1 -1 0 0 0)" width="20" x="-21" y="-21"/><path d="m13.669 5.4902c-.07723 0-.15201.00873-.22852.011719-.14382.0025-.28846.00967-.43164.023437-2.834.2541-5.0058 2.6291-5.0081 5.4746.00103.09024.0043.18141.00977.27148-.0001405.01803-.00195.03466-.00195.05274v.7793l-.0078.397-1.3809 2.057c-.3002.57225-.015209.92902.62891.9375l.75977.0098v1.7501c0 .67231.55112 1.2266 1.2266 1.2266l.7657.019v2.4512c.32888.03237.66234.04883 1 .04883 2.2627 0 4.3377-.75202 6.0098-2.0098v-3.4902c0-.25642-.0063-.49201-.01953-.71289 1.469-.742 2.007-2.376 2.01-3.787-.003-2.8792-2.2261-5.2679-5.0977-5.4785-.08221-.01973-.16124-.03125-.23438-.03125z" opacity=".2"/><path d="m13.669 4.9902c-.07723 0-.15201.00873-.22852.011719-.14382.0025-.28846.00967-.43164.023437-2.834.2541-5.0058 2.6291-5.0081 5.4746.00103.09024.0043.18141.00977.27148-.0001405.01803-.00195.03467-.00195.05274v.7793l-.0078.397-1.3809 2.057c-.3002.57225-.015209.92902.62891.9375l.75977.0098v1.7501c0 .67231.55112 1.2266 1.2266 1.2266l.7657.019v2.9512c.32888.03237.66234.04883 1 .04883 2.2627 0 4.3377-.75202 6.0098-2.0098v-3.9902c0-.25642-.0063-.49201-.01953-.71289 1.4691-.74203 2.0073-2.3765 2.0098-3.7871-.003-2.8792-2.2261-5.2679-5.0977-5.4785-.08221-.01973-.16124-.03125-.23438-.03125z" fill="#6084ff"/><path d="m11.001 1c-5.5401 0-10 4.46-10 10 0 .084-.002.1665 0 .25.1322-5.423 4.544-9.75 10-9.75s9.868 4.327 10 9.75c.002-.0835 0-.166 0-.25 0-5.54-4.46-10-10-10z" fill="#fff" opacity=".1"/><path d="m1.0067 11.25c-.00205.0835-.00585.166-.00585.25 0 5.54 4.46 10 10 10s10-4.46 10-10c0-.084-.004-.1665-.006-.25-.132 5.423-4.538 9.75-9.994 9.75s-9.862-4.327-9.994-9.75z" opacity=".2"/><g opacity=".2" transform="matrix(.5 0 0 .5 .000889 -1)"><path d="m28 17a6 6 0 0 0 -6 6 6 6 0 0 0 6 6 6 6 0 0 0 6-6 6 6 0 0 0 -6-6zm0 2a4 4 0 0 1 4 4 4 4 0 0 1 -4 4 4 4 0 0 1 -4-4 4 4 0 0 1 4-4z"/><circle cx="28" cy="23" r="2"/></g><g fill="#fff" transform="matrix(.5 0 0 .5 .000889 -1.5)"><path d="m28 17a6 6 0 0 0 -6 6 6 6 0 0 0 6 6 6 6 0 0 0 6-6 6 6 0 0 0 -6-6zm0 2a4 4 0 0 1 4 4 4 4 0 0 1 -4 4 4 4 0 0 1 -4-4 4 4 0 0 1 4-4z"/><circle cx="28" cy="23" r="2"/></g><path d="m1.0067 11.25c-.00205.0835-.00585.166-.00585.25 0 5.54 4.46 10 10 10s10-4.46 10-10c0-.084-.004-.1665-.006-.25-.132 5.423-4.538 9.75-9.994 9.75s-9.862-4.327-9.994-9.75z" opacity=".2"/></g></svg>