<svg height="24" viewBox="0 0 24 24" width="24" xmlns="http://www.w3.org/2000/svg"><path d="m11.997.99983a10 9.5 0 0 0 -.853.041c-.2061.0163-.4079.0426-.6098.0703a10 9.5 0 0 0 -.3203.0459c-.2877.0485-.5702.1098-.8487.1807a10 9.5 0 0 0 -.0547.0137c-4.2212 1.0992-7.3105 4.7111-7.3105 8.9984.0000505.03108.00255.06173.00293.09277a10 9.5 0 0 0 -.0029.057 10 9.5 0 0 0 3.9014 7.514v2.9863l2.751-1.5605a10 9.5 0 0 0 3.3476.56 10 9.5 0 0 0 9.975-9.015c.008-.11057.01377-.22143.01758-.33301a10 9.5 0 0 0  .007-.152 10 9.5 0 0 0 -.002-.062c0-.029.002-.059.002-.088 0-4.8425-3.938-8.8334-9.002-9.3021a10 9.5 0 0 0 -.832-.0401c-.056-.0009-.111-.0078-.167-.0078-.00065 0-.0013-.0000001-.002 0z" fill="#50bcff"/><path d="m11.997.99983a10 9.5 0 0 0 -.853.041c-.2061.0163-.4079.0426-.6098.0703a10 9.5 0 0 0 -.3203.0459c-.2877.0485-.5702.1098-.8487.1807a10 9.5 0 0 0 -.0547.0137c-4.2212 1.0992-7.3105 4.7111-7.3105 8.9984.0000505.03108.00255.06173.00293.09277a10 9.5 0 0 0 -.0029.057 10 9.5 0 0 0  .0088.159c.0906-4.2023 3.1436-7.7246 7.3017-8.8074a10 9.5 0 0 1  .0547-.0137c.2785-.0709.561-.1322.8487-.1807a10 9.5 0 0 1  .3203-.0459c.2019-.0277.4037-.054.6098-.0703a10 9.5 0 0 1  .853-.041h.002c.05639 0 .11083.00695.16699.00781a10 9.5 0 0 1  .83203.040039c5.0015.46297 8.8983 4.3642 8.9932 9.126.000262-.0072.00075-.01429.001-.02149a10 9.5 0 0 0  .008-.152 10 9.5 0 0 0 -.002-.062c0-.029.002-.059.002-.088 0-4.8425-3.938-8.8334-9.002-9.3021a10 9.5 0 0 0 -.832-.0401c-.056-.0009-.111-.0078-.167-.0078h-.002z" fill="#fff" opacity=".2"/><path d="m2.0088 10.65883c-.0014.064-.0088.127-.0088.191.0000505.03108.00255.06173.00293.09277a10 9.5 0 0 0 -.0029.057 10 9.5 0 0 0 3.9014 7.514v-.5a10 9.5 0 0 1 -3.8926-7.355zm19.982.01465c-.0038.1043-.0092.20809-.0166.31152a10 9.5 0 0 1 -9.974 9.014 10 9.5 0 0 1 -3.3477-.561l-2.7509 1.561v.5l2.751-1.5605a10 9.5 0 0 0 3.3476.56 10 9.5 0 0 0 9.975-9.015c.008-.11057.01377-.22143.01758-.33301a10 9.5 0 0 0  .007-.152 10 9.5 0 0 0 -.002-.062c0-.029.002-.059.002-.088 0-.06-.008-.117-.009-.176z" opacity=".2"/><circle cx="17" cy="8" fill="#3f3f3f" r="2"/><circle cx="7" cy="8.5" opacity=".1" r="2"/><circle cx="7" cy="8" fill="#3f3f3f" r="2"/><path d="m15.96289 7.5000002c3.9018 0 7.1471 2.5953998 7.8535 6.0272998a8 7.5 0 0 1  .18361 1.5762 8 7.5 0 0 1 -3.0371 5.8735v2.523l-1.7773-1.52a8 7.5 0 0 1 -3.1856.624 8 7.5 0 0 1 -7.8550996-6.1079c-.117-.5057-.182-1.0302-.182-1.5684 0-4.1027 3.5819996-7.4276998 7.9999996-7.4276998z" opacity=".2"/><path d="m15.96289 7.0000002c3.9018 0 7.1471 2.5953998 7.8535 6.0272998a8 7.5 0 0 1  .18361 1.5762 8 7.5 0 0 1 -3.0371 5.8735v2.523l-1.7773-1.52a8 7.5 0 0 1 -3.1856.624 8 7.5 0 0 1 -7.8550996-6.1079c-.117-.5057-.182-1.0302-.182-1.5684 0-4.1027 3.5819996-7.4276998 7.9999996-7.4276998z" fill="#fff"/><path d="m15.962891 7c-4.418 0-8.0000004 3.325034-8.0000004 7.427734 0 .08112.010763.159758.013672.240235.1485777-3.981374 3.6627294-7.167969 7.9863284-7.167969 3.9018 0 7.147115 2.595444 7.853515 6.027344a8 7.5 0 0 1  .169922 1.308594 8 7.5 0 0 0  .013672-.232422 8 7.5 0 0 0 -.183594-1.576172c-.7064-3.4319-3.951715-6.027344-7.853515-6.027344z" fill="#fff" opacity=".2"/><circle cx="12" cy="13.5" opacity=".1" r="2"/><circle cx="12" cy="13" fill="#3f3f3f" r="2"/><circle cx="20" cy="13.5" opacity=".1" r="2"/><circle cx="20" cy="13" fill="#3f3f3f" r="2"/></svg>