<svg height="24" width="24" xmlns="http://www.w3.org/2000/svg"><g transform="translate(1.0001 1)"><path d="m11 1c-5.54 0-10 4.46-10 10s4.46 10 10 10 10-4.46 10-10-4.46-10-10-10z" fill="#e4e4e4"/><path d="m11 1c5.535 0 9.991 4.46 9.991 10 0 .08394-.004.16657-.0058.25-.132-5.423-4.534-9.75-9.985-9.75s-9.853 4.327-9.985 9.75c-.002-.08343-.00584-.16606-.00584-.25 0-5.54 4.456-10 9.991-10z" fill="#fff" opacity=".2"/><path d="m1.0059 11.25c-.00205.0835-.00585.166-.00585.25 0 5.54 4.46 10 10 10s10-4.46 10-10c0-.084-.004-.1665-.006-.25-.132 5.423-4.538 9.75-9.994 9.75s-9.862-4.327-9.994-9.75z" opacity=".2"/><path d="m6.4999 7v6s0 2.5 3 2.5 3-2.5 3-2.5v-4.5s0-1-1-1-1 1-1 1v4.5s0 2.5 3 2.5 3-2.5 3-2.5v-6" fill="none" stroke="#313131"/></g></svg>