<svg height="24" viewBox="0 0 24 24" width="24" xmlns="http://www.w3.org/2000/svg"><g fill-rule="evenodd"><path d="m12.023791 1.5005218a.59912637.60006444 0 0 0 -.542319.2968772l-1.7940787 3.076585-3.2574237-1.432237a.59912637.60006444 0 0 0 -.8367821.6091843l.3541353 3.5455338-3.4758333.7589899a.59912637.60006444 0 0 0 -.3196191.9855543l2.3672094 2.6599807-2.3668194 2.660372a.59912637.60006444 0 0 0  .3198141.985359l3.4760288.758209-.3533558 3.545535a.59912637.60006444 0 0 0  .8369769.608987l3.2572284-1.432823 1.7948592 3.076195a.59912637.60006444 0 0 0 1.034521-.000201l1.794274-3.076584 3.257229 1.432042a.59912637.60006444 0 0 0  .836977-.609185l-.354137-3.545143 3.475834-.759186a.59912637.60006444 0 0 0  .31962-.985554l-2.36721-2.65978 2.366819-2.6605673a.59912637.60006444 0 0 0 -.319813-.985359l-3.476224-.7582087.353356-3.545534a.59912637.60006444 0 0 0 -.836978-.6089888l-3.257033 1.4330182-1.795054-3.0763896a.59912637.60006444 0 0 0 -.492202-.296682z" opacity=".2"/><path d="m12.023791 1.0005214a.59912637.60006444 0 0 0 -.542319.2968772l-1.7940787 3.076585-3.2574237-1.432237a.59912637.60006444 0 0 0 -.8367821.6091843l.3541353 3.5455338-3.4758333.7589899a.59912637.60006444 0 0 0 -.3196191.9855543l2.3672094 2.6599801-2.3668194 2.660372a.59912637.60006444 0 0 0  .3198141.985359l3.4760288.758209-.3533558 3.545535a.59912637.60006444 0 0 0  .8369769.608987l3.2572284-1.432823 1.7948592 3.076195a.59912637.60006444 0 0 0 1.034521-.000201l1.794274-3.076584 3.257229 1.432042a.59912637.60006444 0 0 0  .836977-.609185l-.354137-3.545143 3.475834-.759186a.59912637.60006444 0 0 0  .31962-.985554l-2.36721-2.65978 2.366819-2.6605667a.59912637.60006444 0 0 0 -.319813-.985359l-3.476224-.7582087.353356-3.545534a.59912637.60006444 0 0 0 -.836978-.6089888l-3.257033 1.4330182-1.795054-3.0763896a.59912637.60006444 0 0 0 -.492202-.296682z" fill="#d6342a"/><path d="m12.023438 1a .59912637.60006444 0 0 0 -.541016.296875l-1.794922 3.0761719-3.2578125-1.4316407a.59912637.60006444 0 0 0 -.8359375.609375l.0253906.2558594a.59912637.60006444 0 0 1  .8105469-.3652344l3.2578125 1.4316407 1.794922-3.0761719a.59912637.60006444 0 0 1  .541016-.296875.59912637.60006444 0 0 1  .492187.296875l1.794922 3.0761719 3.257812-1.4316407a.59912637.60006444 0 0 1  .810547.3652344l.025391-.2578125a.59912637.60006444 0 0 0 -.835938-.6074219l-3.257812 1.4316407-1.794922-3.0761719a.59912637.60006444 0 0 0 -.492187-.296875zm-6.1250005 6.1054688-3.4277344.75a.59912637.60006444 0 0 0 -.4160156.8359374.59912637.60006444 0 0 1  .4160156-.3359374l3.4765625-.7597657zm12.2011715 0-.048828.4902343 3.476563.7578125a.59912637.60006444 0 0 1  .417968.3359375.59912637.60006444 0 0 0 -.417968-.8359375zm1.603516 4.6445312-.222656.25 2.367187 2.658203a.59912637.60006444 0 0 1  .097656.150391.59912637.60006444 0 0 0 -.097656-.650391zm-15.40625.001953-2.1445312 2.410156a.59912637.60006444 0 0 0 -.0976563.648438.59912637.60006444 0 0 1  .0976563-.148438l2.3671874-2.660156zm1.6015625 4.642578-.3027344 3.056641a.59912637.60006444 0 0 0  .0253907.242187l.3261718-3.289062zm12.2031245 0-.048828.009766.328125 3.285156a.59912637.60006444 0 0 0  .025391-.240234z" fill="#fff" opacity=".2"/></g><path d="m11.193359 7.5c-2.3586119-.0000264-4.193432 1.891676-4.193359 4.115234.0000335 2.223486 1.6570887 3.884792 4.015625 3.884766 2.973285-.183424 3.564141-4.256879.970703-3.779297-.0313.09678.727205.375361.78125.882813.106227.997402-.721943 1.599505-1.755859 1.410156-.755399-.138343-1.6666513-.747455-1.8437502-1.353516-.1637451-.560367-.0820932-1.233062.0917968-1.679687.8209454-2.1085873 3.7185214-2.6670667 4.7402344-2.6406252-.799349-.5732612-1.678207-.8387445-2.806641-.8398438zm1.791016 2c-2.973285.183424-3.5641411 4.256879-.970703 3.779297.0313-.09678-.727205-.375361-.78125-.882813-.106227-.997402.721943-1.599505 1.755859-1.410156.755399.138343 1.668604.747455 1.845703 1.353516.163745.560367.08209 1.233062-.0918 1.679687-.820943 2.108587-3.720471 2.667066-4.742184 2.640625.799349.573261 1.678207.838745 2.806641.839844 2.358613.000026 4.193432-1.891676 4.193359-4.115234-.000034-2.223486-1.657088-3.884792-4.015625-3.884766z" opacity=".2"/><path d="m11.193359 7c-2.3586119-.0000264-4.193432 1.891676-4.193359 4.115234.0000335 2.223486 1.6570887 3.884792 4.015625 3.884766 2.973285-.183424 3.564141-4.256879.970703-3.779297-.0313.09678.727205.375361.78125.882813.106227.997402-.721943 1.599505-1.755859 1.410156-.755399-.138343-1.6666513-.747455-1.8437502-1.353516-.1637451-.560367-.0820932-1.233062.0917968-1.679687.8209454-2.1085873 3.7185214-2.6670667 4.7402344-2.6406252-.799349-.5732612-1.678207-.8387445-2.806641-.8398438zm1.791016 2c-2.973285.183424-3.5641411 4.256879-.970703 3.779297.0313-.09678-.727205-.375361-.78125-.882813-.106227-.997402.721943-1.599505 1.755859-1.410156.755399.138343 1.668604.747455 1.845703 1.353516.163745.560367.082094 1.233062-.091796 1.679687-.820947 2.108587-3.720475 2.667066-4.742188 2.640625.799349.573261 1.678207.838745 2.806641.839844 2.358613.000026 4.193432-1.891676 4.193359-4.115234-.000034-2.223486-1.657088-3.884792-4.015625-3.884766z" fill="#fff"/></svg>