<svg height="24" viewBox="0 0 48 48" width="24" xmlns="http://www.w3.org/2000/svg"><path d="m34.158694 7.001891c-2.339941-.051114-4.593769.9363666-6.144072 2.6910582-.0012.0014-.0027.0025-.0039.0039l-4.015616 4.4240828-4.01174-4.4162958c-1.424465-1.6183716-3.450682-2.592914-5.603207-2.6949526-.260519-.012616-.51772-.013001-.778224 0a5.977352 5.9824591 0 0 0 -.01945 0c-6.3391418.3359162-9.7357536 8.7710204-5.4008818 13.4124494l5.0428858 5.553472-4.9650635 5.467795c-1.5192901 1.580887-2.4400962 4.078962-2.2296097 6.266155.2104868 2.187194 1.2500876 3.924619 2.6187213 5.167923 1.3686339 1.243304 3.1976469 2.112373 5.3930859 2.110788 2.19544-.0016 4.590268-1.161185 6.015666-2.827365l3.937809-4.330618 4.054544 4.463029-.147863-.167461c1.418645 1.683037 3.819828 2.866353 6.02734 2.874097 2.20751.0078 4.047562-.863731 5.420324-2.110787 1.372761-1.247055 2.417086-2.995369 2.622612-5.195185.205525-2.199813-.739595-4.705945-2.276302-6.281731l-4.933937-5.43664 5.050669-5.561261c2.191468-2.3538 2.626913-5.893796 1.513644-8.536614-1.113268-2.6428173-3.949803-4.8028356-7.163544-4.875839a5.977352 5.9824591 0 0 0 -.0039 0z" opacity=".2"/><path d="m34.158694 6.0018906c-2.339941-.051114-4.593769.9363666-6.144072 2.6910586-.0012.00139-.0027.0025-.0039.0039l-4.015616 4.4240828-4.01174-4.4162959c-1.424465-1.6183719-3.450682-2.5929143-5.603207-2.6949529-.260519-.012616-.51772-.013001-.778224 0a5.977352 5.9824591 0 0 0 -.01945 0c-6.3391418.3359162-9.7357536 8.7710208-5.4008818 13.4124498l5.0428858 5.553472-4.9650635 5.467795c-1.5192901 1.580887-2.4400962 4.078962-2.2296097 6.266155.2104868 2.187194 1.2500876 3.924619 2.6187213 5.167923 1.3686339 1.243304 3.1976469 2.112373 5.3930859 2.110788 2.19544-.0016 4.590268-1.161185 6.015666-2.827365l3.937809-4.330618 4.054544 4.463029-.147863-.167461c1.418645 1.683037 3.819828 2.866353 6.02734 2.874097 2.20751.0078 4.047562-.863731 5.420324-2.110787 1.372761-1.247055 2.417086-2.995369 2.622612-5.195185.205525-2.199813-.739595-4.705945-2.276302-6.281731l-4.933937-5.43664 5.050669-5.561261c2.191468-2.3538 2.626913-5.893796 1.513644-8.536614-1.113268-2.6428177-3.949803-4.802836-7.163544-4.8758394a5.977352 5.9824591 0 0 0 -.0039 0z" fill="#4f4f4f"/><path d="m13.875 12.980111a2.0002 2.0002 0 0 0 -1.355469 3.363282l8.789063 9.667968-8.769532 9.644532a2.0002 2.0002 0 1 0 2.960938 2.6875l8.507812-9.359374 8.51172 9.359374a2.0006762 2.0006762 0 1 0 2.960936-2.6875l-8.76953-9.644532 8.789062-9.667968a2.0002 2.0002 0 0 0 -1.417968-3.363282 2.0002 2.0002 0 0 0 -1.54297.675782l-8.53125 9.382812-8.527343-9.382812a2.0002 2.0002 0 0 0 -1.40625-.675782 2.0002 2.0002 0 0 0 -.199219 0z" opacity=".2"/><path d="m6.9375 5.9902344a1.0001 1.0001 0 0 0 -.6777344 1.6816406l4.3945314 4.833984-4.3847658 4.822266a1.0001 1.0001 0 1 0 1.4804688 1.34375l4.253906-4.679687 4.25586 4.679687a1.0003381 1.0003381 0 1 0 1.480468-1.34375l-4.384765-4.822266 4.394531-4.833984a1.0001 1.0001 0 0 0 -.708984-1.6816406 1.0001 1.0001 0 0 0 -.771485.3378906l-4.265625 4.691406-4.2636716-4.691406a1.0001 1.0001 0 0 0 -.703125-.3378906 1.0001 1.0001 0 0 0 -.0996094 0z" fill="#fff" transform="scale(2)"/><path d="m17.080078 3c-1.16997-.025557-2.297114.4683571-3.072266 1.3457031 0 0-.001953.0019531-.001953.0019531l-2.007812 2.2128907-2.0058595-2.2089844c-.7122325-.809186-1.7264719-1.296637-2.8027344-1.3476563-.1302595-.006308-.2584199-.0065004-.3886719 0a2.988676 2.9912295 0 0 0 -.0097656 0c-2.2749242.1205501-3.7825072 2.3276843-3.65625 4.421875.1194782-1.9311037 1.5624635-3.8109235 3.65625-3.921875a2.988676 2.9912295 0 0 1  .0097656 0c .130252-.0065005.2584124-.006308.3886719 0 1.0762625.0510194 2.0905019.5384705 2.8027344 1.3476563l2.0058595 2.2089844 2.007812-2.2128907s.001953-.0019531.001953-.0019531c.775152-.8773458 1.902296-1.3712601 3.072266-1.3457031a2.988676 2.9912295 0 0 0  .001953 0c1.606871.0365017 3.023444 1.1180442 3.580078 2.4394531.16598.3940229.255721.8292143.28125 1.2753907.038528-.6193247-.053565-1.2348847-.28125-1.7753907-.556634-1.3214088-1.973207-2.4029514-3.580078-2.4394531a2.988676 2.9912295 0 0 0 -.001953 0zm-10.6953124 9.738281-2.2558594 2.484375c-.7462708.776527-1.199139 1.994686-1.1152343 3.074219.0635567-.939898.4824865-1.915817 1.1152343-2.574219l2.4824219-2.734375zm11.2226564 0-.226563.25 2.466797 2.71875c.646214.662647 1.079159 1.652595 1.140625 2.605469.089792-1.091494-.380318-2.325827-1.140625-3.105469z" fill="#fff" opacity=".2" transform="scale(2)"/></svg>