<svg height="24" width="24" xmlns="http://www.w3.org/2000/svg"><g transform="translate(1 1)"><circle cx="11" cy="11" fill="#ea882b" r="10"/><path d="m11 5.5c-2.4175 0-3 .86667-3 3v2h-1.2364c-.4227 0-.7636.312-.7636.7v4.6c0 .3875.34091.7.76364.7h8.4727c.423 0 .764-.312.764-.7v-4.6c0-.3875-.34091-.7-.76364-.7h-1.0545v-2c0-2.216-.76436-3-3.1818-3zm0 2c1 0 1-.051032 1 1v2h-2v-2c0-1 0-1 1-1z" opacity=".2"/><path d="m11 5c-2.4175 0-3 .8667-3 3v2h-1.2364c-.4227 0-.7636.312-.7636.7v4.6c0 .388.3409.7.7636.7h8.4727c.423 0 .764-.312.764-.7v-4.6c0-.388-.341-.7-.764-.7h-1.0545v-2c0-2.216-.765-3-3.182-3zm0 2c1 0 1-.051032 1 1v2h-2v-2c0-1 0-1 1-1z" fill="#fff"/><path d="m11 1a10 10 0 0 0 -10 10 10 10 0 0 0  .0098.293 10 10 0 0 1 9.9902-9.793 10 10 0 0 1 9.99 9.707 10 10 0 0 0  .01-.207 10 10 0 0 0 -10-10z" fill="#fff" opacity=".2"/><path d="m20.99 11.207a10 10 0 0 1 -9.99 9.793 10 10 0 0 1 -9.9902-9.707 10 10 0 0 0 -.0098.207 10 10 0 0 0 10 10 10 10 0 0 0 10-10 10 10 0 0 0 -.0098-.29297z" opacity=".2"/></g></svg>