<svg height="24" width="24" xmlns="http://www.w3.org/2000/svg"><g transform="translate(1 1)"><circle cx="11" cy="11.5" opacity=".2" r="10"/><circle cx="11" cy="11" fill="#5e5e5e" r="10"/><g transform="matrix(0 -1 -1 0 0 0)"><circle cx="-10.5" cy="-11" fill="#fff" opacity=".1" r="8"/><circle cx="-11" cy="-11" fill="#4f4f4f" r="8"/><circle cx="-11" cy="-11" fill="#fec006" r="6"/><circle cx="-11" cy="-11" fill="#4f4f4f" r="3"/></g><path d="m11 1a10 10 0 0 0 -10 10 10 10 0 0 0  .0098.293 10 10 0 0 1 9.9902-9.793 10 10 0 0 1 9.99 9.707 10 10 0 0 0  .01-.207 10 10 0 0 0 -10-10z" fill="#fff" opacity=".1"/></g></svg>