<svg height="24" viewBox="0 0 24 24" width="24" xmlns="http://www.w3.org/2000/svg"><path d="m17.374023 3.5800781c-.546526.1018278-1.092325.2197266-1.374023.2197266-2.308791 0-4.995744.9718226-6.5878905 2.9218748-1.3594925 1.6650985-1.794867 4.1585785-1.893555 6.1054695.098108-.966049 1.389365-1.158393 2.0507815-1.701172.719563-.590496 1.351529-2.7255865 2.430664-2.7255865.135351-.000025.270616.00682.405274.02051.004.0002025.0077.00075.01172.001 4.223228.218144 7.333006 3.3005705 7.333006 7.5780995 0 .857241-.138999 1.680901-.388672 2.455078.07014.03117.13667.05525.203125.07813a10 10 0 0 0  .0039-.0049c.141068-.163359.269872-.33466.399414-.505859a10 10 0 0 0  .186524-.245118c.109508-.154384.209313-.314789.30957-.474609a10 10 0 0 0  .202148-.330078c.08758-.152417.168756-.308302.248047-.464844a10 10 0 0 0  .181641-.375976c.07194-.15808.139548-.317971.203125-.479492a10 10 0 0 0  .148437-.404297c.05373-.155916.106359-.312228.152344-.470703a10 10 0 0 0  .120117-.473633c.03391-.142561.07001-.284575.09766-.428711a10 10 0 0 0  .08496-.561524c.0167-.125205.03881-.248962.05078-.375a10 10 0 0 0  .04688-.938464c-.00085-.210145-.0084-.42021-.02246-.629883-.000062-.00095.000065-.002 0-.003-.0039-.05941-.01072-.11849-.01563-.177734-.02194-.277974-.0555-.554909-.100586-.830078-.01039-.06189-.0234-.12303-.03515-.184571a10 10 0 0 0 -.002-.01074c-.04268-.226285-.09317-.4510285-.151367-.673828-.000181-.0007-.000801-.00125-.001-.00195-.02994-.1145935-.06176-.228489-.0957-.3417965-.056327-.1876-.118202-.373553-.185501-.5575675-.052247-.143194-.10732-.285214-.166015-.425781-.067096-.1613465-.13841-.3209065-.213868-.4785155-.055928-.1163805-.11158-.2334185-.171875-.3476565a10 10 0 0 0 -.0029-.00683l-.001-.001c-.09287-.174063-.190917-.3453855-.293946-.513672-.0018-.003-.004-.00579-.0059-.00879-.08048-.1319395-.163337-.262371-.25-.390625l-.002-.00295a10 10 0 0 0 -.002-.0039c-.100981-.149322-.207047-.29646-.316315-.4404345-.101313-.1334905-.20623-.263994-.314453-.392578a10 10 0 0 0 -.0039-.0049c-.03579-.04131-.07193-.082329-.108398-.123047-.201683-.2315295-.412804-.4553997-.636719-.6689451-.0029-.00268-.0059-.00513-.0088-.00781a10 10 0 0 0 -.048767-.0458315c-.120023-.1126738-.242054-.2238875-.368164-.3310547.0024-.00246.0034-.00439.0059-.00684a10 10 0 0 0 -1.107463-.8076131zm1.878906 15.0078119c-.04856.05457-.09772.108613-.14746.16211.04975-.0535.0989-.107536.14746-.16211zm-.567382.586914c-.06175.05907-.124256.11734-.1875.174805-.0036.0077-.0062.0158-.0098.02343.06668-.06516.132439-.131248.197266-.198242z" fill="#ffc42e"/><path d="m12.40918 8.020508c2.017024.20484 2.94043 1.9582285 2.94043 4.029297.000025.135351-.0068.270616-.02051.405273-.000203.004-.00075.0077-.001.01172-.218144 4.22323-3.050571 7.333006-7.3281 7.333006-.857241 0-2.102776-.64974-2.876953-.899414.025365.02161-.01035.127617-.072266.275391a10 10 0 0 0 6.949219 2.824219c.210145-.00085.42021-.0084.629883-.02246.00095-.000062.002.000065.003 0 .05941-.0039.118491-.01072.177734-.01563.277975-.02194.554909-.0555.830079-.100586.06189-.01039.12303-.0234.18457-.03515a10 10 0 0 0  .01074-.002c.226285-.04268.451028-.09317.673828-.151367.0007-.000181.0013-.000801.002-.001.114594-.02994.228489-.06176.341797-.0957.187649-.05637.373602-.118248.557617-.185547.143194-.05225.285214-.10732.425781-.166015.161347-.0671.320906-.13841.478515-.213868.116381-.05593.233419-.11158.347657-.171875a10 10 0 0 0  .0068-.0029l.001-.001c.174086-.09289.345385-.190917.513672-.293946.003-.0018.0058-.004.0088-.0059.131939-.08048.262371-.163337.390625-.25l.003-.002a10 10 0 0 0  .0039-.002c.149316-.101066.296455-.207138.440429-.316406.133491-.101313.263994-.20623.392578-.314453a10 10 0 0 0  .0049-.0039c.04131-.03579.08233-.07193.123047-.108398.23153-.201683.4554-.412804.668945-.636719.0027-.0029.0051-.0059.0078-.0088a10 10 0 0 0  .0459-.04883c.112674-.120023.223888-.242054.331055-.368164.253592-.779819.394348-1.610688.394348-2.475386 0-4.280207-3.363861-7.765227-7.59082-7.979492zm-7.7822269 10.517578c.065158.06668.1312451.132438.1982422.197265-.059067-.06175-.11734-.124255-.1748047-.1875-.00765-.0036-.015797-.0062-.023437-.0098z" fill="#ff8514"/><path d="m5.461914 4.6269531c-.066676.065158-.1324375.1312451-.1972655.1982422.061751-.059067.1242555-.11734.1875-.1748047.00355-.00765.00619-.015797.00976-.023437zm-.6171875.6230469c-.0497441.0534965-.098901.107536-.1474609.1621095.0485599-.0545735.0977168-.108613.1474609-.1621095zm-.3242187.1259765a10 10 0 0 0 -2.5205078 6.6240235 10 10 0 0 0  .022461.629883c.0039.06039.010638.120451.015625.180664a10 10 0 0 0  .100586.830078c.010991.06548.024831.130145.037109.195313a10 10 0 0 0  .1513672.673828c.030098.115296.062529.229758.09668.34375a10 10 0 0 0  .1855467.557617c.052247.143194.1073209.285214.1660156.425781a10 10 0 0 0  .2138672.478515c.057.118609.1131505.238189.1748047.354493.0002041.000385.00077.0006.000975.001a10 10 0 0 0  .2939454.513672c.082188.135025.1672233.268239.2558593.399414.1024148.151565.2094532.301195.3203125.447265.1025716.13515.2087039.267329.3183593.397461a10 10 0 0 0  .1083985.123047c.2016825.23153.4128041.4554.636719.668946a10 10 0 0 0  .057617.05371c.1200226.112674.2420546.223888.3681641.331055.7800385.253774 1.610889.394508 2.4755875.394508 4.280207 0 7.765227-3.363861 7.979492-7.59082-.20484 2.017024-1.908424 3.44043-3.979492 3.44043-.135351.000025-.270616-.0068-.405273-.02051-.004-.000203-.0077-.00075-.01172-.001-4.223231-.21817-7.3828117-3.550571-7.3828117-7.8281 0-.857241.1389984-1.680901.3886719-2.455078-.0226965-.062584-.045609-.110013-.0683594-.1689455z" fill="#ff5757"/><path d="m12 7.999953c-1.75492 0-3.242297 1.1319595-3.78125 2.704102-.103144.449591-.174168.911788-.198242 1.386718.20484-2.017024 1.908424-3.59082 3.979492-3.59082.135351-.000025.270616.00682.405274.02051.004.0002025.0077.00075.01172.001 4.148705.2143445 7.456542 3.581149 7.572265 7.754882.003236-.092231.010741-.183375.010741-.276392 0-4.277528-3.359776-7.7603205-7.583008-7.9785155-.004-.00025-.0077-.00075-.01172-.001-.134656-.0136665-.269921-.0205095-.405272-.0204845zm9.987304 4.254883a10 10 0 0 1 -2.175781 5.939453c-.05634.257711-.120191.51267-.200195.760742a10 10 0 0 0 2.388672-6.455078 10 10 0 0 0 -.0127-.245117zm-2.484375 6.333008a10 10 0 0 1 -.14746.162109 10 10 0 0 0  .14746-.162109zm0 .5a10 10 0 0 1 -.14746.162109 10 10 0 0 0  .14746-.162109zm-.567382.586914a10 10 0 0 1 -.1875.174804c-.0036.0077-.0062.0158-.0098.02344a10 10 0 0 0  .197266-.198242z" opacity=".2"/><path d="m16 4.000008c-4.277528 0-7.7603205 3.359776-7.9785155 7.583008-.00025.0039-.00075.0077-.001.01172-.01369.134657-.020535.269923-.02051.405274 0 .0863.00731.170917.012695.255859.0033-.05369.00235-.1076.00782-.161133.0002025-.004.00075-.0077.001-.01172.21819-4.223232 3.7009815-7.583008 7.9785105-7.583008.857241 0 1.680901.1389983 2.455078.3886719a10 10 0 0 0 -1.024414-.7539063c-.464489-.0853134-.941334-.1347656-1.430664-.1347656zm2.58789.4970703a10 10 0 0 1  .16211.1474609 10 10 0 0 0 -.16211-.1474609zm0 .5a10 10 0 0 1  .16211.1474612 10 10 0 0 0 -.16211-.1474612zm.586914.5673827a10 10 0 0 1  .174805.1875c.0077.00355.0158.00619.02343.00977a10 10 0 0 0 -.198235-.19727zm-15.1640618 2.663086c-.0031389.091011-.0107422.180667-.0107422.272461 0 4.280207 3.3638615 7.765227 7.590821 7.979492-.816748-.082945-1.557961-.41474-2.1542975-.914062-3.0906325-1.044018-5.329369-3.917997-5.4257813-7.337891z" opacity=".2"/><path d="m4 8c0 .075485.00866.1486565.010742.223633zm-1.9873047 4.245117c-.0053157.084904-.0095478.169872-.0126953.254883.0043 2.928964 1.2924922 5.708794 3.524414 7.605469.780037.253797 1.6108875.394531 2.475586.394531 4.280207 0 7.765227-3.363861 7.979492-7.59082-.03127.307898-.10115.603498-.198242.886719-.814856 3.551846-3.981956 6.204101-7.78125 6.204101-.8646985 0-1.695549-.140734-2.475586-.394531-2.1632593-1.842997-3.4401889-4.519365-3.5117187-7.360352z" opacity=".2"/><path d="m12.40918 8.520508c1.932977.1963045 3.454314 1.770096 3.578125 3.723633.004966-.081367.01271-.162599.012695-.244141 0-1.232436-.56016-2.331636-1.436523-3.0654295-.682103-.230415-1.403776-.3760185-2.154297-.4140625zm7.580078 7.751953c-.02643.76631-.156934 1.505894-.383789 2.203125a10 10 0 0 1 -7.605469 3.524414 10 10 0 0 1 -5.430664-1.634766c-.349233-.064144-.692153-.146751-1.024414-.253906a10 10 0 0 0 6.455078 2.388672 10 10 0 0 0 7.605469-3.524414c.253797-.780037.394531-1.610888.394531-2.475586 0-.07675-.0086-.151311-.01074-.227539zm-15.3623049 2.96582a10 10 0 0 0  .1982422.197266 10 10 0 0 1 -.1748047-.1875c-.00765-.0036-.015797-.0062-.023437-.0098zm.6230469.117188a10 10 0 0 0  .1621095.14746 10 10 0 0 1 -.1621095-.14746zm0 .5a10 10 0 0 0  .1621095.14746 10 10 0 0 1 -.1621095-.14746z" opacity=".2"/><path d="m11.590821 15.979492c-.532278-.05406 2.303266-.676161 1.874003-.918171-1.197398-.675065-5.264824-1.536793-5.264824-3.061321-.000025-.135351-.19318-.270616-.17949-.405273.0002025-.004.00075-.0077.001-.01172.218195-4.2232325 3.700961-7.583007 7.97849-7.583007.857241 0 1.680901.1389985 2.455078.388672-1.80126-1.5349583-4.088524-2.3813501-6.455078-2.388672-2.9289645.0043047-5.708794 1.2924922-7.605469 3.524414-.2537975.780037-.394531 1.6108875-.394531 2.475586 0 4.280207 3.3638615 7.765227 7.590821 7.979492zm7.782226-10.717773c-.06516-.066676-.131246-.132438-.198243-.197266.05907.06175.11734.1242555.174805.1875.0077.00355.0158.00619.02343.00976zm-.623047-.617188c-.0535-.049744-.107536-.098901-.16211-.1474605.05457.04856.108613.097716.16211.1474605z" fill="#baff41"/><path d="m12 2a10 10 0 0 0 -10 10 10 10 0 0 0  .0107422.291016 10 10 0 0 1 9.9892578-9.791016 10 10 0 0 1 9.989258 9.708985 10 10 0 0 0  .010742-.208985 10 10 0 0 0 -10-10z" fill="#fff" opacity=".2"/><path d="m15.989258 12.211914a4 4 0 0 1 -3.989258 3.788086 4 4 0 0 1 -3.989258-3.711914 4 4 0 0 0 -.010742.211914 4 4 0 0 0 4 4 4 4 0 0 0 4-4 4 4 0 0 0 -.01074-.288086z" opacity=".2"/><circle cx="12" cy="12" fill="#555" r="4"/></svg>