<svg height="24" width="24" xmlns="http://www.w3.org/2000/svg"><g fill-rule="evenodd"><path d="m12.226251 22.498583c1.721933-.0301 3.439586-.529768 4.945553-1.494188 2.220872-1.422246 3.65868-3.69567 4.144863-6.212111.244892-.185776.513345-.334898.700237-.602558.610098-.873759.675207-2.379992.0058-3.345809a2.4969199 2.500329 0 0 0 -.002-.003l-.705014-1.0136557a2.4969199 2.500329 0 0 0 -.002-.00195l-.70609-1.0127102a2.4969199 2.500329 0 0 0 -.002-.00295c-.671202-.9603407-1.674205-1.3095914-2.553135-1.3095914s-1.881931.3492302-2.553235 1.3096119a2.4969199 2.500329 0 0 0 -.003.0039l-.705114 1.0127277-.70609 1.0127287a2.4969199 2.500329 0 0 0 -.0029.0049c-.668819.965045-.605116 2.469963.0039 3.343856.026.03731.07022.04826.09753.08399-.192745.325697-.442886.619862-.777285.834011-.801783.513461-1.796785.531393-2.615652.04687-.823757-.488252-1.942299-.629632-2.837036-.342785s-1.541812.87887-1.951498 1.572315c-.409688.693446-.616656 1.547402-.436918 2.470782.179738.923379.841773 1.837382 1.665747 2.325269v-.001c1.538631.911106 3.273273 1.351419 4.99534 1.32132z" opacity=".2"/><path d="m12.226251 21.998559c1.721933-.0301 3.439586-.529768 4.945553-1.494188 2.220872-1.422246 3.65868-3.69567 4.144863-6.21211.244892-.185776.513345-.334899.700237-.602558.610098-.873759.675207-2.379992.0058-3.34581a2.4969199 2.500329 0 0 0 -.002-.003l-.705014-1.0136556a2.4969199 2.500329 0 0 0 -.002-.00195l-.70609-1.0127101a2.4969199 2.500329 0 0 0 -.002-.00295c-.671202-.9603408-1.674205-1.3095915-2.553135-1.3095915s-1.881931.3492302-2.553235 1.309612a2.4969199 2.500329 0 0 0 -.003.0039l-.705114 1.0127276-.70609 1.0127276a2.4969199 2.500329 0 0 0 -.0029.0049c-.668819.965047-.605116 2.469964.0039 3.343857.026.03731.07022.04826.09753.08399-.192745.325698-.442886.619862-.777285.834011-.801783.513461-1.796785.531393-2.615652.04687-.823757-.488252-1.942299-.629632-2.837036-.342784-.894737.286846-1.541812.878869-1.951498 1.572314-.409688.693446-.616656 1.547402-.436918 2.470782.179738.923379.841773 1.837382 1.665747 2.325269v-.001c1.538631.911106 3.273273 1.351419 4.99534 1.32132z" fill="#ff9932"/><path d="m11.773736 2.0014306c-1.721934.030098-3.439587.5297677-4.945553 1.4941878-2.220872 1.4222454-3.658681 3.6956697-4.144863 6.2121106-.244893.185776-.513346.334898-.700238.602558-.610097.873759-.675207 2.379992-.0058 3.345809a2.4969199 2.500329 0 0 0  .002.003l.705114 1.013704a2.4969199 2.500329 0 0 0  .002.0019l.706091 1.01271a2.4969199 2.500329 0 0 0  .002.003c.671303.960341 1.674306 1.309592 2.553236 1.309592s1.88193-.349231 2.553235-1.309612a2.4969199 2.500329 0 0 0  .0029-.0039l.705113-1.012778.706089-1.012727a2.4969199 2.500329 0 0 0  .0029-.0049c.668819-.965045.605116-2.469963-.0039-3.343855-.026-.03731-.07022-.04826-.09753-.08399.192745-.325695.442885-.619859.777284-.8340085.801783-.5134614 1.796785-.5313933 2.615652-.046875.823757.4882515 1.942299.6296315 2.837036.3427845.894641-.2868466 1.541717-.8788697 1.951403-1.5723151.409687-.6934459.616655-1.5474019.436917-2.4707813-.179737-.9233793-.841773-1.8373826-1.665747-2.3252689v.000975c-1.53863-.9111064-3.273273-1.3514196-4.995339-1.3213201z" fill="#ffda43"/><path d="m11.773407 2.0009627c-1.721934.030098-3.439335.5306936-4.945301 1.4951137-2.220872 1.4222454-3.65834 3.6954592-4.144522 6.2118996-.244892.185776-.513302.334878-.700194.602538-.355784.509541-.519262 1.233312-.466796 1.940425.03885-.536244.195169-1.051411.466796-1.440426.186892-.26766.455302-.416762.700194-.602538.486182-2.5164406 1.92365-4.7896543 4.144522-6.2118998 1.505966-.96442 3.223367-1.4650161 4.945301-1.4951137 1.722066-.030099 3.457451.4111561 4.996082 1.3222626v-.000975c.823974.4878862 1.485298 1.4018105 1.665035 2.3251899.02745.1410042.04365.2795488.05371.416991.02154-.2956593.0077-.6014871-.05371-.9169899-.179737-.9233793-.841061-1.8373036-1.665035-2.3251899v.000975c-1.538631-.9111064-3.274016-1.352362-4.996082-1.3222625zm-1.775387 8.4579883c-.06498.08668-.126636.176586-.18164.269531.02731.03572.07165.04667.09766.08398.270661.388379.427003.902627.465819 1.437497.04767-.643191-.08878-1.294166-.381835-1.791012z" fill="#fff" opacity=".2"/><path d="m11.877898 5.5028761c-1.271828.0222-2.537794.3896791-3.649405 1.1005835-2.022853 1.2936685-3.223662 3.5276764-3.223625 5.8974474h-.416015a.58819019.48744813 0 0 0 -.510741.730467l.706053 1.01367.70703 1.012693a.58819019.48744813 0 0 0 1.017575 0l .706054-1.012693.707029-1.01367a.58819019.48744813 0 0 0 -.509764-.730467h-.40332c-.00065-1.694433.849266-3.286123 2.29687-4.2119043 1.59101-1.0174932 3.613695-1.0531446 5.239246-.091797a1.0002019 1.0002019 0 1 0 1.018552-1.7216753c-1.135743-.671677-2.41371-.9948537-3.685539-.9726543z" opacity=".2"/><path d="m11.877898 5.0019943c-1.271828.0222-2.537794.3896791-3.649405 1.1005835-2.022853 1.2936685-3.223662 3.5276768-3.223625 5.8974472h-.416015a.58819019.48744813 0 0 0 -.510741.730468l.706053 1.013669.70703 1.012693a.58819019.48744813 0 0 0 1.017575 0l .706054-1.012693.707029-1.013669a.58819019.48744813 0 0 0 -.509764-.730468h-.40332c-.00065-1.694433.849266-3.2861228 2.29687-4.2119042 1.59101-1.0174931 3.613695-1.0531445 5.239246-.091797a1.0002019 1.0002019 0 1 0 1.018552-1.7216753c-1.135743-.6716769-2.41371-.9948538-3.685539-.9726542z" fill="#3f3f3f"/><path d="m22.497488 12.132322c.0241-.632157-.125141-1.284-.474734-1.788429l-.002-.003-.705114-1.0137056-.002-.00195-.70609-1.0127101-.002-.00295c-.671152-.9602908-1.674155-1.3095415-2.553085-1.3095415s-1.881931.3492302-2.553235 1.309612l-.003.0039-.705114 1.0127276-.70609 1.0127276-.0029.0049c-.215497.310944-.354946.677935-.42461 1.061806z" fill="#ff9932"/><path d="m12.122088 19.498938c1.271828-.0222 2.537794-.389679 3.649405-1.100584 2.022853-1.293668 3.223662-3.527676 3.223625-5.897447h.416015a.58819019.48744813 0 0 0  .510741-.730467l-.706053-1.013669-.707029-1.0126937a.58819019.48744813 0 0 0 -1.017576 0l-.706053 1.0126937-.70703 1.013669a.58819019.48744813 0 0 0  .509765.730467h.403319c.00065 1.694434-.849265 3.286123-2.29687 4.211904-1.591009 1.017493-3.613695 1.053145-5.239245.0918a1.0002023 1.0002023 0 1 0 -1.018553 1.721676c1.135744.671677 2.41371.994853 3.685539.972654z" opacity=".2"/><path d="m12.122088 18.998056c1.271828-.0222 2.537794-.389679 3.649405-1.100583 2.022853-1.293669 3.223662-3.527677 3.223625-5.897448h.416015a.58819019.48744813 0 0 0  .510741-.730467l-.706053-1.013669-.707029-1.0126935a.58819019.48744813 0 0 0 -1.017576 0l-.706053 1.0126935-.70703 1.013669a.58819019.48744813 0 0 0  .509765.730467h.403319c.00065 1.694434-.849265 3.286123-2.29687 4.211904-1.591009 1.017494-3.613695 1.053145-5.239245.0918a1.0002019 1.0002019 0 1 0 -1.018553 1.721673c1.135744.671677 2.41371.994853 3.685539.972654z" fill="#3f3f3f"/><path d="m11.8945 8.9970404c-.451226.0081-.899887.1407292-1.300778.3974596-.334399.21415-.584597.508285-.777342.833983.02731.03573.07165.04667.09766.08398.0315.0452.05543.09807.08398.146484.162714-.21707.35673-.411414.595701-.564452.801783-.513461 1.796362-.531393 2.615228-.04687.163525.09692.340682.176169.523437.245117.04439-.151793.102215-.297618.170898-.437499-.245176-.078637-.480017-.1805892-.694334-.3076179-.409433-.2422585-.863224-.3586857-1.31445-.3505847zm-1.514645 3.2529226c-.0375.505878-.182694 1.003359-.461913 1.406246a2.4969199 2.500329 0 0 1 -.0029.0049l-.706052 1.012693-.705077 1.012693a2.4969199 2.500329 0 0 1 -.0029.0039c-.671265.960371-1.674734 1.309557-2.553665 1.309557-.87893 0-1.881425-.349227-2.552728-1.309568a2.4969199 2.500329 0 0 1 -.002-.0029l-.706106-1.012723a2.4969199 2.500329 0 0 1 -.002-.002l-.70507-1.013622a2.4969199 2.500329 0 0 1 -.0019-.003c-.279017-.402521-.423437-.899758-.46094-1.4052-.04853.668367.08949 1.369307.460937 1.905269a2.4969199 2.500329 0 0 0  .002.003l.705076 1.01367a2.4969199 2.500329 0 0 0  .002.002l.70605 1.012675a2.4969199 2.500329 0 0 0  .002.0029c.671301.960321 1.673796 1.309547 2.552726 1.309547.878931 0 1.8824-.349185 2.553705-1.309567a2.4969199 2.500329 0 0 0  .0029-.0039l.705072-1.012743.706053-1.012693a2.4969199 2.500329 0 0 0  .003-.0049c.37158-.536156.510436-1.237604.461913-1.906245z" opacity=".2"/></g></svg>