<svg height="24" width="24" xmlns="http://www.w3.org/2000/svg"><rect fill="#8e8e8e" height="16" rx="1" transform="matrix(0 -1 -1 0 0 0)" width="20" x="-22" y="-20"/><path d="m4 21v .5c0 .554.446 1 1 1h14c .554 0 1-.446 1-1v-.5c0 .554-.446 1-1 1h-14c-.554 0-1-.446-1-1z" opacity=".2"/><path d="m12 5c2.7614 0 5 2.2386 5 5s-2.2386 5-5 5h-5v-5c0-2.7614 2.2386-5 5-5zm0 2.5c-1.3807 0-2.5 1.1193-2.5 2.5s1.1193 2.5 2.5 2.5 2.5-1.1193 2.5-2.5-1.1193-2.5-2.5-2.5z" opacity=".5"/><path d="m5 2c-.554 0-1 .446-1 1v .5c0-.554.446-1 1-1h14c .554 0 1 .446 1 1v-.5c0-.554-.446-1-1-1z" fill="#fff" opacity=".1"/><circle cx="18" cy="18" fill="#cc5e55" r="5"/><path d="m17.244 15-.06673.7902a2.3784 2.3572 0 0 0 -.6951.39844l-.72465-.33818-.75675 1.2991.65795.45285a2.3784 2.3572 0 0 0 -.03632.3976 2.3784 2.3572 0 0 0  .03461.39928l-.657.4515.75675 1.2991.72295-.33733a2.3784 2.3572 0 0 0  .6968.39592l.06672.79185h1.5135l.06672-.7902a2.3784 2.3572 0 0 0  .6951-.39844l.72465.33817.75675-1.2991-.65795-.45285a2.3784 2.3572 0 0 0  .03632-.3976 2.3784 2.3572 0 0 0 -.03461-.39928l.6565-.4505-.75675-1.2991-.723.33734a2.3784 2.3572 0 0 0 -.6965-.396l-.06672-.79185h-1.5135zm.75675 2.1428a.86485.85715 0 0 1  .864.857.86485.85715 0 0 1 -.865.857.86485.85715 0 0 1 -.865-.857.86485.85715 0 0 1  .865-.857z" fill="#fff"/></svg>