<svg height="24" width="24" xmlns="http://www.w3.org/2000/svg"><path d="m10.355479 19.487417c-3.3056846-.062829-4.6474145-.118306-5.4678746-.22608-.6016749-.079038-.8971549-.156092-1.2304099-.32086-.5504099-.272129-.8927199-.6516-1.1397549-1.263484-.22586-.559418-.317825-1.003738-.4022249-1.943343-.095245-1.060349-.10269-1.25231-.11258-2.904415-.01165-1.94288.0118-2.579544.1422749-3.8691229.06842-.6760624.16814-1.1253629.355515-1.6018169.170645-.4338974.32644-.6733604.609775-.9372464.3560999-.3316555.7471849-.5332689 1.2408949-.6396999.73692-.1588625 4.0676847-.2813475 7.6506245-.2813475 3.58294 0 6.913705.122485 7.650625.2813475.532935.1148885.924075.3270989 1.305705.7084004.29869.298432.45253.5696065.635605 1.1204174.18864.5675465.260985 1.0698209.368175 2.5561623.0509.705842.05089 3.955067 0 4.660562-.05956.825318-.13264 1.560285-.181305 1.823269-.12511.676123-.37083 1.309161-.647865 1.669085-.19007.246935-.56528.541164-.879035.68931-.317705.150013-.6204.224384-1.108375.272339-1.512105.148594-6.129585.25709-8.78975.206523z" opacity=".2"/><path d="m10.355479 18.987417c-3.3056846-.06283-4.6474145-.118306-5.4678746-.226081-.6016749-.079038-.8971549-.156091-1.2304099-.320859-.5504099-.27213-.8927199-.651601-1.1397549-1.263485-.22586-.559418-.317825-1.003737-.4022249-1.943342-.095245-1.060349-.10269-1.252311-.11258-2.904415-.01165-1.94288.0118-2.579545.1422749-3.8691234.06842-.6760624.16814-1.1253629.355515-1.6018168.170645-.4338975.32644-.6733605.609775-.9372465.3560999-.3316554.7471849-.5332689 1.2408949-.6396999.73692-.1588625 4.0676847-.2813475 7.6506245-.2813475 3.58294 0 6.913705.122485 7.650625.2813475.532935.1148885.924075.327099 1.305705.7084004.29869.298432.45253.5696065.635605 1.1204175.18864.5675464.260985 1.0698209.368175 2.5561623.0509.7058424.05089 3.9550664 0 4.6605614-.05956.825318-.13264 1.560285-.181305 1.82327-.12511.676122-.37083 1.30916-.647865 1.669084-.19007.246936-.56528.541164-.879035.689311-.317705.150012-.6204.224384-1.108375.272338-1.512105.148595-6.129585.25709-8.78975.206524z" fill="#c2352a"/><path d="m12.226131 14.198843c2.83472-1.693461 2.77377-1.656318 2.77377-1.690317 0-.03181-4.961785-3.0256824-4.985978-3.0084539-.01634.011645-.01938 5.9757159-.0033 5.9945359.006.007.02322.0072.03815.00055.01493-.0066.99466-.589985 2.177113-1.29638z" opacity=".2"/><path d="m12.226131 13.698844c2.83472-1.693461 2.77377-1.656318 2.77377-1.690317 0-.03182-4.961785-3.0256824-4.985978-3.0084539-.01634.011645-.01938 5.9757159-.0033 5.9945359.006.007.02322.0072.03815.00055.01493-.0066.99466-.589985 2.177113-1.29638z" fill="#fff"/><path d="m12.001953 5.0000009c-3.5829398 0-6.91347.1223875-7.6503899.28125-.49371.106431-.8851109.307993-1.2412109.6396484-.283335.263886-.4397065.5036025-.6103515.9375-.187375.4764539-.2870487.9254999-.3554687 1.6015623-.130475 1.2895784-.1532515 1.9262604-.1416015 3.8691404.000525.08772.0024.0979.00293.177734-.00562-1.630319.017842-2.352628.1386718-3.5468744.06842-.6760624.1680934-1.1251084.3554684-1.6015624.170645-.4338974.3270165-.6736139.6103515-.9374999.3561-.3316555.7475009-.5332174 1.2412109-.6396484.7369199-.1588625 4.0674501-.28125 7.6503899-.28125 3.58294 0 6.91347.1223875 7.65039.28125.532935.1148885.924034.3276829 1.305664.7089844.29869.298432.452667.569306.635742 1.1201169.18864.5675465.260974 1.0693224.368164 2.5556638.02319.321507.03407 1.184923.03614 2.081055.0024-1.071291-.0084-2.196697-.03614-2.5810549-.10719-1.4863414-.179524-1.9881174-.368164-2.5556638-.183075-.550811-.337052-.821685-.635742-1.120117-.38163-.3813014-.772729-.5940959-1.305664-.7089844-.73692-.1588625-4.06745-.28125-7.65039-.28125z" fill="#fff" opacity=".2"/></svg>