<svg height="24" viewBox="0 0 24 24" width="24" xmlns="http://www.w3.org/2000/svg"><path d="m12 2a10 10 0 0 0 -10 10 10 10 0 0 0 10 10 10 10 0 0 0 10-10 10 10 0 0 0 -10-10z" fill="#9aca3c"/><path d="m2.01075 12.209a10 10 0 0 0 -.01075.291 10 10 0 0 0 10 10 10 10 0 0 0 10-10 10 10 0 0 0 -.0105-.209 10 10 0 0 1 -9.9895 9.709 10 10 0 0 1 -9.989-9.791z" opacity=".2"/><path d="m9.0004958 17.499737 7.0000002-9.000016" style="opacity:.2;stroke-linejoin:round;stroke:#000;stroke-linecap:round;stroke-width:2;fill:none"/><path d="m12 2a10 10 0 0 0 -10 10 10 10 0 0 0  .01075.209 10 10 0 0 1 9.989-9.709 10 10 0 0 1 9.9895 9.791 10 10 0 0 0  .0105-.291 10 10 0 0 0 -10-10z" fill="#fff" opacity=".2"/><g fill="none" stroke-linecap="round" stroke-linejoin="round" stroke-width="2"><path d="m8.0004958 8.499721 3.9995042 5.000002" opacity=".2" stroke="#000"/><path d="m9.0004958 17.000014 7.0000002-9.000014" stroke="#fff"/><path d="m8.0004958 8 3.9995042 5" stroke="#fff"/></g><circle cx="17.5" cy="18" opacity=".2" r="5.5"/><circle cx="17.5" cy="17.5" fill="#ff8c10" r="5.5"/><path d="m15.5 19.5v-4h4v2h-4" fill="none" stroke="#fff" stroke-linecap="round" stroke-linejoin="round"/></svg>