<svg height="24" width="24" xmlns="http://www.w3.org/2000/svg"><path d="m4.0625 2.5c-.588625 0-1.0625.446-1.0625 1v18c0 .554.473875 1 1.0625 1h2.4375 12.4375c.588625 0 1.0625-.446 1.0625-1v-18c0-.554-.473875-1-1.0625-1h-7.448242-4.989258z" opacity=".2"/><path d="m4.0625 2c-.588625 0-1.0625.446-1.0625 1v18c0 .554.473875 1 1.0625 1h1.9375v-20z" fill="#4f4f4f"/><path d="m6 2v20h12.9375c.588625 0 1.0625-.446 1.0625-1v-18c0-.554-.473875-1-1.0625-1h-7.448656z" fill="#c4411a"/><path d="m8.5 7.99995h8l-8 10h8" fill="none" opacity=".2" stroke="#000" stroke-linecap="round" stroke-linejoin="round"/><path d="m8.5 7.5h8l-8 10h8" fill="none" stroke="#fff" stroke-linecap="round" stroke-linejoin="round"/><path d="m4.0625 2c-.588625 0-1.0625.446-1.0625 1v .5c0-.554.473875-1 1.0625-1h2.4375 4.989258 7.448242c.588625 0 1.0625.446 1.0625 1v-.5c0-.554-.473875-1-1.0625-1h-7.448242-4.989258z" fill="#fff" opacity=".1"/></svg>