<svg height="24" width="24" xmlns="http://www.w3.org/2000/svg"><path d="m22 20.5v-16c0-.554-.446-1-1-1h-18c-.554 0-1 .446-1 1v16c0 .554.446 1 1 1h18c .554 0 1-.446 1-1z" opacity=".2"/><path d="m22 20v-16c0-.554-.446-1-1-1h-18c-.554 0-1 .446-1 1v16c0 .554.446 1 1 1h18c .554 0 1-.446 1-1z" fill="#7282d9"/><path d="m3 3c-.554 0-1 .446-1 1v .5c0-.554.446-1 1-1h18c .554 0 1 .446 1 1v-.5c0-.554-.446-1-1-1z" fill="#fff" opacity=".2"/><g opacity=".2" transform="translate(4 5.5)"><path d="m3 5v-1h10v1z"/><path d="m3 8v-1h10v1z"/><path d="m3 11v-1h6v1z"/></g><g fill="#fff" transform="translate(4 5)"><path d="m3 5v-1h10v1z"/><path d="m3 8v-1h10v1z"/><path d="m3 11v-1h6v1z"/></g></svg>