<svg height="24" viewBox="0 0 24 24" width="24" xmlns="http://www.w3.org/2000/svg"><path d="m5 2.5c-.554 0-1 .446-1 1v18c0 .554.446 1 1 1h14c .554 0 1-.446 1-1v-13l-5.5-.5-.5-5.5z" opacity=".2"/><path d="m5 2c-.554 0-1 .446-1 1v18c0 .554.446 1 1 1h14c .554 0 1-.446 1-1v-13l-5.5-.5-.5-5.5z" fill="#607d8b"/><path d="m5 2c-.554 0-1 .446-1 1v .5c0-.554.446-1 1-1h9l5.5 5.5h.5l-6-6z" fill="#fff" opacity=".1"/><path d="m14 2.5v5c0 .5523.44772 1 1 1h5z" opacity=".2"/><path d="m14 2v5c0 .5523.44772 1 1 1h5z" fill="#b1d1e0"/><path d="m13 19.5v-1h4v1zm-6-6v-1h7v1zm3 2v-1h7v1zm3 2v-1h4v1z" opacity=".2"/><path d="m13 19v-1h4v1zm-6-6v-1h7v1zm3 2v-1h7v1zm3 2v-1h4v1z" fill="#fff"/></svg>