<svg height="24" viewBox="0 0 24 24" width="24" xmlns="http://www.w3.org/2000/svg"><path d="m5 2.5c-.554 0-1 .446-1 1v18c0 .554.446 1 1 1h14c .554 0 1-.446 1-1v-13l-5.5-.5-.5-5.5z" opacity=".2"/><path d="m5 2c-.554 0-1 .446-1 1v18c0 .554.446 1 1 1h14c .554 0 1-.446 1-1v-13l-5.5-.5-.5-5.5z" fill="#fec006"/><path d="m5 2c-.554 0-1 .446-1 1v .5c0-.554.446-1 1-1h9l5.5 5.5h.5l-6-6z" fill="#fff" opacity=".2"/><path d="m14 2.5v5c0 .5523.44772 1 1 1h5z" opacity=".2"/><path d="m14 2v5c0 .5523.44772 1 1 1h5z" fill="#fed861"/><path d="m7.503 15.839004.75352.01682c1.483.03266 2.8917.40606 3.4173 1.2302 1.2262 1.9228-1.2025 2.5463-2.1782 1.1883-.91186-1.4905-.59676-4.5871.71704-4.9467 2.3773-.54736 2.771 3.2646 4.2345 2.5204 1.1305-.57482-.71474-3.1874.39122-3.8089.47401-.26638 1.4656.71469 1.4656.71469" fill="none" opacity=".2" stroke="#000" stroke-linecap="square"/><path d="m7.503 15.339.75352.01682c1.483.03266 2.8917.40606 3.4173 1.2302 1.2262 1.9228-1.2025 2.5463-2.1782 1.1883-.91186-1.4905-.59676-4.5871.71704-4.9467 2.3773-.54736 2.771 3.2646 4.2345 2.5204 1.1305-.57482-.71474-3.1874.39122-3.8089.47401-.26638 1.4656.71469 1.4656.71469" fill="none" stroke="#fff" stroke-linecap="square"/></svg>