<svg height="24" width="24" xmlns="http://www.w3.org/2000/svg"><path d="m5 2.5c-.554 0-1 .446-1 1v18c0 .554.446 1 1 1h14c .554 0 1-.446 1-1v-13l-6-6z" opacity=".2"/><path d="m5 2c-.554 0-1 .446-1 1v18c0 .554.446 1 1 1h14c .554 0 1-.446 1-1v-13l-6-6z" fill="#e4e4e4"/><path d="m20 8.5-6-6v5c0 .554.446 1 1 1z" opacity=".2"/><path d="m20 8-6-6v5c0 .554.446 1 1 1z" fill="#fafafa"/><path d="m5 2c-.554 0-1 .446-1 1v .5c0-.554.446-1 1-1h9v-.5z" fill="#fff" opacity=".2"/><path d="m12.000002 10.5c-.16798.000336-.335836.0091-.50293.02637-.158885.01599-.315524.03973-.469726.07031-.0068.000953-.01367.0019-.02051.0029-.144947.02938-.286606.06771-.426758.109375-.01989.0051-.03975.0103-.05957.01563-.158073.04913-.312886.104939-.463868.168945-.1491644.06318-.2951701.13358-.4375004.210938-.2823347.153655-.5491944.334178-.796874.539062-.1236011.101989-.2422277.209861-.355469.323243-.1079903.108179-.2109632.221254-.308594.338867-.0058.0069-.01185.01356-.01758.02051-.07896.09772-.1542084.198373-.225586.301757-.02535.03594-.05175.0708-.07617.107422-.054266.08308-.1060463.167749-.155273.253907-.03467.05933-.07028.117871-.102539.178711-.040132.07744-.078231.155918-.114258.235351-.03346.07198-.0666.144002-.09668.217774-.029844.07548-.057846.151673-.08398.228515-.02843.08085-.05673.161467-.08105.244141-.020525.07248-.03941.145416-.05664.21875-.02135.08705-.04286.173937-.05957.262695-.014851.08397-.027552.168309-.03809.25293-.01064.07849-.02139.156742-.02832.236328-.01382.144794-.021316.290122-.022465.435569.0003362.16798.00914.335835.02637.502929.08597.854478.388717 1.645751.851563 2.319336.0042.0062.0084.01239.0127.01855.035825.05147.072616.102259.110352.152344.000265-.0016.00071-.0033.000976-.0049.913062 1.217982 2.3633244 2.011741 3.9980394 2.011741.938983 0 1.815672-.265097 2.567382-.717774l.000976.000977c.01011-.0068.0202-.01364.03027-.02051.119259-.07302.235225-.14997.347656-.232422.0259-.01896.05162-.03817.07715-.05762.09872-.07535.19433-.154008.28711-.236328.03763-.03362.07474-.0678.111328-.102539.07729-.07283.152059-.148021.224609-.225586.04319-.04575.08552-.0923.126953-.139649.06816-.07856.133052-.159469.196289-.242187.03462-.04467.06848-.08992.101563-.135742.06644-.09326.128425-.189279.188476-.28711.02497-.03969.04939-.07974.07324-.120117.05947-.10329.113882-.209646.166015-.317383.02042-.04107.04028-.08241.05957-.124023.04673-.103797.08823-.209998.127929-.317383.01939-.0508.03794-.101914.05566-.15332.03445-.103564.06408-.209011.0918-.31543.01457-.05348.02824-.107195.04102-.161128.02262-.1006.04021-.202897.05664-.305664.01148-.06749.02157-.135217.03027-.203125.01037-.08806.01578-.177222.02148-.266601.0089-.106241.01448-.212741.01661-.319336 0-.168583-.009-.334663-.02539-.499024l-.000976-.0039c-.01599-.158885-.03973-.315524-.07031-.469726-.0013-.0067-.0016-.01379-.0029-.02051-.02938-.144947-.06771-.286606-.109375-.426758-.0056-.01892-.0088-.03879-.01465-.05762l-.002-.0068c-.0488-.156433-.1046-.309506-.167969-.458985-.06318-.149164-.133579-.29517-.210937-.4375-.153655-.282335-.334178-.549195-.539063-.796875-.101989-.123601-.209861-.242227-.323242-.355468-.108179-.10799-.221254-.210963-.338867-.308594-.0055-.0049-.01106-.0098-.0166-.01465-.0013-.001-.0027-.0019-.0039-.0029-.09771-.07898-.198366-.154252-.301748-.225651-.03594-.02536-.0708-.05175-.107422-.07617-.08308-.05427-.167749-.106046-.253906-.155273-.05933-.03467-.117871-.07028-.178711-.10254-.07744-.04013-.155918-.07823-.235351-.114257-.07198-.03346-.144001-.0666-.217773-.09668-.07548-.02984-.151674-.05785-.228516-.08398-.08085-.02843-.161466-.05673-.24414-.08105-.07248-.02052-.145416-.03941-.21875-.05664-.08705-.02135-.173937-.04286-.262696-.05957-.08397-.01485-.168308-.02755-.252929-.03809-.07849-.01064-.156742-.02139-.236328-.02832-.144786-.013821-.290107-.021318-.435547-.022469zm-.759766.922031.759764 1.585938 1.000002-.580969v2.141359l2.749999 2.181641-.823242.761719-2.288085-.02344 1.28125 1.523438c-.569483.311067-1.22315.488283-1.919922.488283-1.666751 0-3.0889384-1.011025-3.6914064-2.455078.315341-1.218333.786332-2.394604 1.460937-3.050782.2877904-1.059093.8493834-1.735369 1.4707034-2.572109zm.759766 3.577969.03613.425781.963867.07422c-.124012-.299769-.429425-.43785-1-.5z" opacity=".1"/><path d="m12.000002 10c-.16798.000336-.335836.0091-.50293.02637-.158885.01599-.315524.03973-.469726.07031-.0068.000953-.01367.0019-.02051.0029-.144947.02938-.286606.06771-.426758.109375-.01989.0051-.03975.0103-.05957.01563-.158073.04913-.312886.104939-.463868.168945-.1491644.06318-.2951701.13358-.4375004.210938-.2823347.153655-.5491944.334178-.796874.539062-.1236011.101989-.2422277.209861-.355469.323243-.1079903.108179-.2109632.221254-.308594.338867-.0058.0069-.01185.01356-.01758.02051-.07896.09772-.1542084.198373-.225586.301757-.02535.03594-.05175.0708-.07617.107422-.054266.08308-.1060463.167749-.155273.253907-.03467.05933-.07028.117871-.102539.178711-.040132.07744-.078231.155918-.114258.235351-.03346.07198-.0666.144002-.09668.217774-.029844.07548-.057846.151673-.08398.228515-.02843.08085-.05673.161467-.08105.244141-.020525.07248-.03941.145416-.05664.21875-.02135.08705-.04286.173937-.05957.262695-.014851.08397-.027552.168309-.03809.25293-.01064.07849-.02139.156742-.02832.236328-.01382.144794-.021316.290122-.022465.435569.0003362.16798.00914.335835.02637.502929.08597.854478.388717 1.645751.851563 2.319336.0042.0062.0084.01239.0127.01855.035825.05147.072616.102259.110352.152344.000265-.0016.00071-.0033.000976-.0049.913062 1.217982 2.3633244 2.011741 3.9980394 2.011741.938983 0 1.815672-.265097 2.567382-.717774l.000976.000977c.01011-.0068.0202-.01364.03027-.02051.119259-.07302.235225-.14997.347656-.232422.0259-.01896.05162-.03817.07715-.05762.09872-.07535.19433-.154008.28711-.236328.03763-.03362.07474-.0678.111328-.102539.07729-.07283.152059-.148021.224609-.225586.04319-.04575.08552-.0923.126953-.139649.06816-.07856.133052-.159469.196289-.242187.03462-.04467.06848-.08992.101563-.135742.06644-.09326.128425-.189279.188476-.28711.02497-.03969.04939-.07974.07324-.120117.05947-.10329.113882-.209646.166015-.317383.02042-.04107.04028-.08241.05957-.124023.04673-.103797.08823-.209998.127929-.317383.01939-.0508.03794-.101914.05566-.15332.03445-.103564.06408-.209011.0918-.31543.01457-.05348.02824-.107195.04102-.161128.02262-.1006.04021-.202897.05664-.305664.01148-.06749.02157-.135217.03027-.203125.01037-.08806.01578-.177222.02148-.266601.0089-.106241.01448-.212741.01661-.319336 0-.168583-.009-.334663-.02539-.499024l-.000976-.0039c-.01599-.158885-.03973-.315524-.07031-.469726-.0013-.0067-.0016-.01379-.0029-.02051-.02938-.144947-.06771-.286606-.109375-.426758-.0056-.01892-.0088-.03879-.01465-.05762l-.002-.0068c-.0488-.156433-.1046-.309506-.167969-.458985-.06318-.149164-.133579-.29517-.210937-.4375-.153655-.282335-.334178-.549195-.539063-.796875-.101989-.123601-.209861-.242227-.323242-.355468-.108179-.10799-.221254-.210963-.338867-.308594-.0055-.0049-.01106-.0098-.0166-.01465-.0013-.001-.0027-.0019-.0039-.0029-.09771-.07898-.198366-.154252-.301748-.225651-.03594-.02536-.0708-.05175-.107422-.07617-.08308-.05427-.167749-.106046-.253906-.155273-.05933-.03467-.117871-.07028-.178711-.10254-.07744-.04013-.155918-.07823-.235351-.114257-.07198-.03346-.144001-.0666-.217773-.09668-.07548-.02984-.151674-.05785-.228516-.08398-.08085-.02843-.161466-.05673-.24414-.08105-.07248-.02052-.145416-.03941-.21875-.05664-.08705-.02135-.173937-.04286-.262696-.05957-.08397-.01485-.168308-.02755-.252929-.03809-.07849-.01064-.156742-.02139-.236328-.02832-.144786-.013821-.290107-.021318-.435547-.022469zm-.759766.922031.759764 1.585938 1.000002-.580969v2.141359l2.749999 2.181641-.823242.761719-2.288085-.02344 1.28125 1.523438c-.569483.311067-1.22315.488283-1.919922.488283-1.666751 0-3.0889384-1.011025-3.6914064-2.455078.315341-1.218333.786332-2.394604 1.460937-3.050782.2877904-1.059093.8493834-1.735369 1.4707034-2.572109zm.759766 3.577969.03613.425781.963867.07422c-.124012-.299769-.429425-.43785-1-.5z" fill="#d6342a"/></svg>