<svg height="24" width="24" xmlns="http://www.w3.org/2000/svg"><path d="m5 2.5c-.554 0-1 .446-1 1v18c0 .554.446 1 1 1h14c .554 0 1-.446 1-1v-13l-5.5-.5-.5-5.5z" opacity=".2"/><path d="m5 2c-.554 0-1 .446-1 1v18c0 .554.446 1 1 1h14c .554 0 1-.446 1-1v-13l-5.5-.5-.5-5.5z" fill="#1e98d1"/><path d="m5 2c-.554 0-1 .446-1 1v .5c0-.554.446-1 1-1h9l5.5 5.5h.5l-6-6z" fill="#fff" opacity=".2"/><path d="m14 2.5v5c0 .5523.44772 1 1 1h5z" opacity=".2"/><path d="m14 2v5c0 .5523.44772 1 1 1h5z" fill="#67bbe9"/><path d="m8.799569 10.500212a.78133646.78170941 0 0 0 -.799569.781632v7.436692a.78133646.78170941 0 0 0 1.171887.676803l6.437752-3.718346a.78133646.78170941 0 0 0 0-1.353606l-6.437752-3.718348a.78133646.78170941 0 0 0 -.372318-.104827z" opacity=".2"/><path d="m8.799569 10.000212a.78133646.78170941 0 0 0 -.799569.781632v7.436692a.78133646.78170941 0 0 0 1.171887.676803l6.437752-3.718346a.78133646.78170941 0 0 0 0-1.353606l-6.437752-3.718348a.78133646.78170941 0 0 0 -.372318-.104827z" fill="#fff"/></svg>