<svg height="24" width="24" xmlns="http://www.w3.org/2000/svg"><path d="m5 2.5c-.554 0-1 .446-1 1v18c0 .554.446 1 1 1h14c .554 0 1-.446 1-1v-13l-5.5-.5-.5-5.5z" opacity=".2"/><path d="m5 2c-.554 0-1 .446-1 1v18c0 .554.446 1 1 1h14c .554 0 1-.446 1-1v-13l-5.5-.5-.5-5.5z" fill="#9052ff"/><path d="m5 2c-.554 0-1 .446-1 1v .5c0-.554.446-1 1-1h9l5.5 5.5h.5l-6-6z" fill="#fff" opacity=".2"/><path d="m14 2.5v5c0 .5523.44772 1 1 1h5z" opacity=".2"/><path d="m14 2v5c0 .5523.44772 1 1 1h5z" fill="#ac7cf5"/><path d="m11.457031 11.546875-1.8886716 5.666016-.6777344-2.712891h-4.890625v1h4.109375l1.3222656 5.287109 2.1113284-6.333984 1.050781 2.626953 1.259766-1.935547.785156 2.355469h5.361328v-1h-4.638672l-1.214844-3.642578-1.339843 2.0625z" opacity=".2"/><path d="m11.457031 11.046875-1.8886716 5.666016-.6777344-2.712891h-4.890625v1h4.109375l1.3222656 5.287109 2.1113284-6.333984 1.050781 2.626953 1.259766-1.935547.785156 2.355469h5.361328v-1h-4.638672l-1.214844-3.642578-1.339843 2.0625z" fill="#fff"/></svg>