<svg height="64" width="64" xmlns="http://www.w3.org/2000/svg"><path d="m60 58.2v-50.4c0-1.5512-1.2488-2.8-2.8-2.8h-50.4c-1.5512 0-2.8 1.2488-2.8 2.8v50.4c0 1.5512 1.2488 2.8 2.8 2.8h50.4c1.5512 0 2.8-1.2488 2.8-2.8z" opacity=".2"/><path d="m60 57.2v-50.4c0-1.5512-1.2488-2.8-2.8-2.8h-50.4c-1.5512 0-2.8 1.2488-2.8 2.8v50.4c0 1.5512 1.2488 2.8 2.8 2.8h50.4c1.5512 0 2.8-1.2488 2.8-2.8z" fill="#89c025"/><path d="m11 11v6h6v-6zm9 0v6h6v-6zm9 0v6h6v-6zm9 0v6h6v-6zm9 0v6h6v-6zm-36 9v6h6v-6zm9 0v6h6v-6zm9 0v6h6v-6zm9 0v6h6v-6zm9 0v6h6v-6zm-36 9v6h6v-6zm9 0v6h6v-6zm9 0v6h6v-6zm9 0v6h6v-6zm9 0v6h6v-6zm-36 9v6h6v-6zm9 0v6h6v-6zm9 0v6h6v-6zm9 0v6h6v-6zm9 0v6h6v-6zm-36 9v6h6v-6zm9 0v6h6v-6zm9 0v6h6v-6zm9 0v6h6v-6zm9 0v6h6v-6z" opacity=".4"/><path d="m6.8007812 4c-1.5511999 0-2.8007812 1.2495813-2.8007812 2.8007812v1c0-1.5512 1.2495813-2.8007812 2.8007812-2.8007812h50.3984378c1.5512 0 2.800781 1.2495813 2.800781 2.8007812v-1c0-1.5511999-1.249581-2.8007812-2.800781-2.8007812z" fill="#fff" opacity=".2"/></svg>