<svg height="64" width="64" xmlns="http://www.w3.org/2000/svg"><path d="m4.0545956 32.001976c-.011739.334698-.050778.662275-.050778.999932-.0000005 15.510943 12.4871484 27.998092 27.9980914 27.998092s27.998092-12.487149 27.998092-27.998092c0-.337657-.03904-.665234-.05078-.999932-.527964 15.040975-12.775129 26.99816-27.948095 26.99816-15.173366 0-27.4201313-11.957185-27.9480953-26.99816z" opacity=".2"/><rect fill="#e74c3c" height="55.996" rx="27.998" transform="matrix(0 -1 -1 0 0 0)" width="55.996" x="-60" y="-60"/><g clip-rule="evenodd" enable-background="new" fill-rule="evenodd" opacity=".2" transform="matrix(.6500557 0 0 .68491332 83.36459 -4.023368)"><path d="m-86.682 70.021s-2.2303 1.2982 1.5891 1.7362c4.6278.52836 6.9927.45227 12.091-.51144 0 0 1.3431.84021 3.2156 1.5679-11.433 4.8982-25.875-.28382-16.896-2.7927z"/><path d="m-88.08 63.628s-2.5019 1.8524 1.3204 2.2474c4.944.5104 8.8468.55226 15.604-.74823 0 0 .93244.94717 2.4009 1.4648-13.821 4.0426-29.214.31805-19.326-2.964z"/><path d="m-76.304 52.781c2.8185 3.2444-.73906 6.1616-.73906 6.1616s7.1525-3.6917 3.8684-8.3168c-3.0684-4.3112-5.4208-6.4528 7.3147-13.839.000129 0-19.992 4.9918-10.444 15.994z"/><path d="m-61.183 74.75s1.6511 1.3611-1.8185 2.4137c-6.5975 1.9983-27.465 2.6011-33.261.07996-2.082-.90686 1.8242-2.1638 3.0532-2.4293 1.2815-.27723 2.0132-.22659 2.0132-.22659-2.3172-1.6317-14.977 3.2046-6.4297 4.5917 23.308 3.7781 42.488-1.7017 36.442-4.4294z"/><path d="m-85.609 57.003s-10.613 2.5215-3.7582 3.4379c2.8952.38742 8.6634.29828 14.04-.15282 4.393-.36869 8.8016-1.1572 8.8016-1.1572s-1.5479.664-2.6685 1.4288c-10.78 2.8352-31.6 1.5148-25.605-1.3838 5.0675-2.4515 9.1898-2.1729 9.1898-2.1729z"/><path d="m-66.569 67.644c10.957-5.6922 5.8904-11.163 2.3541-10.426-.86475.18047-1.2527.33678-1.2527.33678s.32218-.50472.93567-.72187c6.9959-2.4584 12.375 7.2531-2.256 11.099-.00013 0 .1682-.15244.21896-.28808z"/><path d="m-73.174 24.859s6.0668 6.0703-5.756 15.402c-9.4811 7.4886-2.1617 11.757-.0034 16.636-5.5348-4.9933-9.5945-9.3895-6.8715-13.48 3.9987-6.0043 15.078-8.9163 12.631-18.558z"/><path d="m-84.532 83.074c10.515.67227 26.667-.37411 27.049-5.3501 0 0-.73479 1.8863-8.6909 3.383-8.9758 1.6898-20.049 1.4931-26.614.40912 0 0 1.3449 1.1132 8.2557 1.5579z"/></g><g clip-rule="evenodd" enable-background="new" fill="#fff" fill-rule="evenodd" transform="matrix(.6500557 0 0 .68491332 83.36459 -5.023032)"><path d="m-86.682 70.021s-2.2303 1.2982 1.5891 1.7362c4.6278.52836 6.9927.45227 12.091-.51144 0 0 1.3431.84021 3.2156 1.5679-11.433 4.8982-25.875-.28382-16.896-2.7927z"/><path d="m-88.08 63.628s-2.5019 1.8524 1.3204 2.2474c4.944.5104 8.8468.55226 15.604-.74823 0 0 .93244.94717 2.4009 1.4648-13.821 4.0426-29.214.31805-19.326-2.964z"/><path d="m-76.304 52.781c2.8185 3.2444-.73906 6.1616-.73906 6.1616s7.1525-3.6917 3.8684-8.3168c-3.0684-4.3112-5.4208-6.4528 7.3147-13.839.000129 0-19.992 4.9918-10.444 15.994z"/><path d="m-61.183 74.75s1.6511 1.3611-1.8185 2.4137c-6.5975 1.9983-27.465 2.6011-33.261.07996-2.082-.90686 1.8242-2.1638 3.0532-2.4293 1.2815-.27723 2.0132-.22659 2.0132-.22659-2.3172-1.6317-14.977 3.2046-6.4297 4.5917 23.308 3.7781 42.488-1.7017 36.442-4.4294z"/><path d="m-85.609 57.003s-10.613 2.5215-3.7582 3.4379c2.8952.38742 8.6634.29828 14.04-.15282 4.393-.36869 8.8016-1.1572 8.8016-1.1572s-1.5479.664-2.6685 1.4288c-10.78 2.8352-31.6 1.5148-25.605-1.3838 5.0675-2.4515 9.1898-2.1729 9.1898-2.1729z"/><path d="m-66.569 67.644c10.957-5.6922 5.8904-11.163 2.3541-10.426-.86475.18047-1.2527.33678-1.2527.33678s.32218-.50472.93567-.72187c6.9959-2.4584 12.375 7.2531-2.256 11.099-.00013 0 .1682-.15244.21896-.28808z"/><path d="m-73.174 24.859s6.0668 6.0703-5.756 15.402c-9.4811 7.4886-2.1617 11.757-.0034 16.636-5.5348-4.9933-9.5945-9.3895-6.8715-13.48 3.9987-6.0043 15.078-8.9163 12.631-18.558z"/><path d="m-84.532 83.074c10.515.67227 26.667-.37411 27.049-5.3501 0 0-.73479 1.8863-8.6909 3.383-8.9758 1.6898-20.049 1.4931-26.614.40912 0 0 1.3449 1.1132 8.2557 1.5579z"/></g><path d="m31.998047 4.0039062c-15.510943 0-27.998047 12.4871048-27.998047 27.9980468 0 .113548.0112849.22404.0175781.335938.3515192-15.20072 12.6922379-27.3339848 27.9804689-27.3339848 15.28693 0 27.628891 12.1311738 27.982422 27.3300778.006256-.11059.015625-.219822.015625-.332031 0-15.510942-12.487104-27.9980468-27.998047-27.9980468z" fill="#fff" opacity=".2"/></svg>