<svg height="64" viewBox="0 0 64 64" width="64" xmlns="http://www.w3.org/2000/svg"><g transform="translate(0 -988.3622)"><path d="m11.716797 995.33106c-.489522.0135-.96803.0581-1.435547.13281-3.7401302.59753-6.5918524 3.40365-7.1582031 7.03513-.3940004 2.5264.6441948 5.4208 3.0195312 7.7637 1.7185423 1.6951 4.2965359 2.8754 7.4374999 2.8359-.06682.1779-.657834 1.8476-1.335937 3.7715-1.059696 3.0064-1.244141 3.7068-1.244141 4.9278 0 1.3791.06227 1.5568 1.664062 4.7343.91542 1.8159 1.9471 3.6938 2.292969 4.1719.838963 1.1597 2.308795 1.6621 4.119141 1.6621 2.367002 0 3.820142-1.3811 2.345703-4.1074-.225176-.374-.509369-.8403-.867187-1.4473-1.076892-1.8269-1.352643-1.9425-1.117188-2.2265.40399-.4875 1.591855-.2651 3.259766.5547.993758.4884 1.864352 1.1654 3.048828 2.3691 2.598555 2.6405 4.283426 5.4869 5.628906 10.2324.714318 2.5194 1.161296 3.3668 2.097656 3.9844 1.534043 1.0119 3.305977.8352 4.105469-.3867.351767-.5375.549762-2.5179.392578-4.3828-.118614-1.4069.192982-1.6942 3.328125-1.5821 2.820148.1003 3.905284-.282 4.939453.6992.324585.3079 1.703554 2.1212 3.0625 4.0313 2.828593 3.9757 4.586305 6.2028 5.839844 6.8242 1.043093.5172 2.989486.5842 3.861328.1328.680237-.3523 1.154974-1.3433.951172-1.9863-.07838-.2471-.795416-1.1184-1.591797-1.9355-1.646068-1.6892-2.333865-1.686-5.591797-8.8633-1.243265-2.739-2.513559-4.4267-2.822265-4.752-1.601249-1.6875-2.775338-1.586-5.572266.4785-2.414576 1.7824-2.881875 1.7476-4.066406 1.9102-1.279993.1757-2.406045-.2051-4.19336-1.4141-3.825395-2.6317-5.146635-14.4114.138672-10.373 1.019544 1.3906.801504-.7099 1.78125-.416.681384.2043 1.066452 1.9464 1.964844 1.6523l.830078-.1191c3.352851 5.3142 6.859405 1.1289.730469-.5723l.111328-1.3184-3.28125-3.4492c-4.436692-4.7104-7.05387-6.946-8.310547-7.6933-2.037615-1.2117-3.736819-1.7151-6.046875-1.8243-2.502957-.1185-2.963351.186-5.580078 1.3575-.977408.4376-1.787693.7524-2.542969.998-3.529455.9893-5.550933.059-6.957031-1.3281-1.4506303-1.4308-1.9633055-3.7432-1.8769531-4.2969.3248807-2.0832 1.5484947-3.33766 3.8359371-3.70311 2.287444-.36545 5.776863.43258 9.826172 3.53711a2.0002 2.0002 0 0 0  .990235.3965 2.0002 2.0002 0 0 0  .191406.016 2.0002 2.0002 0 0 0  .03516 0 2.0002 2.0002 0 0 0  .878906-3.80859c-3.374056-2.51229-6.657453-3.88792-9.617187-4.16992-.509944-.0486-1.010478-.0662-1.5-.0527zm29.955078 24.02144c1.037731 1.7954 3.893955 3.1011 6.25 3.9922-.06155-.5178-.152919-1.0617-.294922-1.6543-.975691-4.0715-1.789203-5.3421-2.757812-5.3281-.496314.01-1.035292.018-1.65625.8496-.512621.6866-1.020503 1.4876-1.523438 2.0899l-.01758.051z" fill-rule="evenodd" opacity=".2"/><path d="m16.822844 1009.571c-8.6221737 2.6473-12.2031967-4.6837-11.722844-7.7638.8912315-5.71476 8.146525-8.12166 16.855-1.445" fill="none" stroke="#4e4e4e" stroke-linecap="round" stroke-linejoin="round" stroke-width="4"/><path d="m55.139997 1045.9291c-1.253539-.6214-3.011357-2.8481-5.83995-6.8238-1.358946-1.9101-2.736393-3.7247-3.060978-4.0326-1.034169-.9812-2.120174-.598-4.940322-.6983-3.135143-.1121-3.447071.1746-3.328457 1.5815.157184 1.8649-.04127 3.8455-.393037 4.383-.799492 1.2219-2.569879 1.3991-4.103922.3872-.93636-.6176-1.383066-1.4665-2.097384-3.9859-1.34548-4.7455-3.030581-7.5912-5.629136-10.2317-1.184476-1.2037-2.056223-1.881-3.049981-2.3694-1.667911-.8198-2.855847-1.0427-3.259837-.5552-.235455.284.04118.4 1.118071 2.2269.357818.607.642026 1.0741.867202 1.4481 1.474439 2.7263.02047 4.1103-2.346532 4.1077-1.810346 0-3.279148-.5036-4.118111-1.6633-.345869-.4781-1.377827-2.3549-2.293247-4.1708-1.601795-3.1775-1.664376-3.3556-1.664376-4.7347 0-1.221.18406-1.9206 1.243756-4.927.684071-1.9408 1.291113-3.6531 1.348973-3.8054.08309-.2186-.341135-.2812-2.021188-.2982-.524546-1.2475.31894-3.3119 1.665684-3.4291 1.615643-.1828 3.028466-.6148 5.216033-1.5942 2.616727-1.1715 3.077147-1.4764 5.580104-1.3579 2.310056.1092 4.009727.6113 6.047342 1.823 1.256677.7473 3.873922 2.983 8.310614 7.6934l3.280513 3.4502-.110632 1.3187c6.128936 1.7012 2.62262 5.8854-.730231.5712l-.830968.1197c-.898392.2941-1.283083-1.4484-1.964467-1.6527-.979746-.2939-.761536 1.8062-1.78108.4156-5.285307-4.0384-3.964812 7.7423-.139417 10.374 1.787315 1.209 2.914054 1.5887 4.194047 1.413 1.184531-.1626 1.651879-.127 4.066455-1.9094 2.796928-2.0645 3.970776-2.165 5.572025-.4775.308706.3253 1.57852 2.013 2.821785 4.752 3.257932 7.1773 3.946423 7.1739 5.592491 8.8631.796381.8171 1.512091 1.6882 1.590471 1.9353.203802.643-.270381 1.6335-.950618 1.9858-.871842.4514-2.818606.3847-3.861699-.1325z" fill="#4f4f4f"/><path d="m35.131324 1016.3622c-.968608-.014-1.781858 1.2566-2.757549 5.3281-.254899 1.0637-.385032 1.9962-.373011 2.836.0351 2.45 1.689105 4.5065 4.593311 6.4355 1.414359.9395 2.415645 1.3509 3.405925 1.4004.990281-.05 1.991566-.4609 3.405925-1.4004 2.904207-1.929 4.558215-3.9855 4.593312-6.4355.0067-.47-.03107-.969-.110335-1.5038-.06237-.4208-.955382-.6161-1.067631-1.0845-.975675-4.0715-.983986-3.9489-1.952595-3.9349-.496314.01-.632656-.1988-1.253614.6328-.461441.6181-1.321609-.088-1.775236.4886-.189514.2409-.378319.457-.566391.6308-1.017433.9035-1.363721.792-2.362974.1618-.697839-.5829-1.405915-1.7449-2.123045-2.7053-.620959-.8316-1.159777-.8438-1.656092-.8496z" opacity=".2"/><path d="m35.131324 1015.3622c-.968608-.014-1.781858 1.2566-2.757549 5.3281-.254899 1.0637-.385032 1.9962-.373011 2.836.0351 2.45 1.689105 4.5065 4.593311 6.4355 1.414359.9395 2.415645 1.3509 3.405925 1.4004.990281-.05 1.991566-.4609 3.405925-1.4004 2.904207-1.929 4.558215-3.9855 4.593312-6.4355.0067-.47-.03107-.969-.110335-1.5038-.06237-.4208-.955382-.6161-1.067631-1.0845-.975675-4.0715-.983986-3.9489-1.952595-3.9349-.496314.01-.632656-.1988-1.253614.6328-.461441.6181-1.321609-.088-1.775236.4886-.189514.2409-.378319.457-.566391.6308-1.017433.9035-1.363721.792-2.362974.1618-.697839-.5829-1.405915-1.7449-2.123045-2.7053-.620959-.8316-1.159777-.8438-1.656092-.8496z" fill="#fff"/><g fill="#4f4f4f"><path d="m44.869141 27c-.496314.01-1.035292.018009-1.65625.849609-.512621.686557-1.020503 1.487569-1.523438 2.089844l-.017578.050781c1.037731 1.795322 3.893955 3.101084 6.25 3.992188-.061553-.517801-.152919-1.061716-.294922-1.654297-.975691-4.0715-1.789203-5.342125-2.757812-5.328125z" transform="translate(0 988.3622)"/><path d="m35.342947 1023.3634c1.046594-.031 1.657053.5729 1.657053 1.7118 0 1.2829-.153925 1.4323-1.249626 1.1908-1.034176-.2283-1.666973-.6105-1.960576-1.1797-.466633-.9044-.387966-1.2128.369146-1.4776.438894-.1533.835137-.2354 1.184003-.2453z"/><path d="m40 1027.3622c1.103079.018 2 .066 2 .1395 0 .082-.533227.923-1.184252 1.6709l-.815748 1.1896-.815746-1.1896c-.651026-.7479-1.184254-1.5874-1.184254-1.6709 0-.074.896923-.1275 2-.1395z"/><path d="m44.657053 1023.3634c-1.046594-.031-1.657053.5729-1.657053 1.7118 0 1.2829.153925 1.4323 1.249626 1.1908 1.034176-.2283 1.666973-.6105 1.960576-1.1797.466633-.9044.387966-1.2128-.369146-1.4776-.438894-.1533-.835137-.2354-1.184003-.2453z"/></g><path d="m11.716797 5.96875c-.489522.0135-.96803.0581125-1.435547.1328125-3.7401302.59753-6.5918524 3.4036457-7.1582031 7.0351565-.0800666.513401-.0862522 1.044001-.0488281 1.580078.0134669-.194046.0191557-.389814.0488281-.580078.5663507-3.63148 3.4180729-6.4376265 7.1582031-7.0351565.467517-.07471.946025-.1193125 1.435547-.1328125s.990056.0041344 1.5.0527344c2.959734.282 6.243131 1.6576321 9.617187 4.1699216a2.0002 2.0002 0 0 1 1.080078 1.308594 2.0002 2.0002 0 0 0 -1.080078-2.308594c-3.374056-2.5122894-6.657453-3.8879216-9.617187-4.1699216-.509944-.0486-1.010478-.0662344-1.5-.0527344zm-4.5820314 8.517578c-.018297.090471-.0439591.173738-.0585937.267578-.0863524.5537.4263228 2.866075 1.8769531 4.296875 1.406098 1.3871 3.427576 2.317425 6.957031 1.328125.755276-.2456 1.565561-.560447 2.542969-.998047 2.616727-1.1715 3.077121-1.475922 5.580078-1.357421 2.310056.109199 4.00926.612518 6.046875 1.824218 1.256677.7473 3.873855 2.98296 8.310547 7.69336l3.203125 3.367187.078125-.917969-3.28125-3.449218c-4.436692-4.7104-7.05387-6.94606-8.310547-7.69336-2.037615-1.2117-3.736819-1.715019-6.046875-1.824218-2.502957-.118501-2.963351.185921-5.580078 1.357421-.977408.437598-1.787693.752408-2.542969.998047-3.529455.989293-5.550933.058752-6.957031-1.328125-1.0778936-1.063158-1.637157-2.610998-1.8183594-3.564453zm34.5371094 15.503906c.098534.170469.228082.332435.357422.494141.391799-.524089.785996-1.102227 1.183594-1.634766.620958-.8316 1.159936-.839609 1.65625-.849609.968609-.014 1.782121 1.256625 2.757812 5.328125.048465.202252.083597.392179.121094.583984.056551.021657.117811.049126.173828.070313-.061553-.517801-.152919-1.061716-.294922-1.654297-.975691-4.0715-1.789203-5.342125-2.757812-5.328125-.496314.01-1.035292.018009-1.65625.849609-.512621.686557-1.020503 1.487569-1.523438 2.089844zm-28.441406-5.265625c-.229882.64549-.48589 1.363392-.986328 2.783203-1.059696 3.0064-1.244141 3.706735-1.244141 4.927735 0 .222423.014001.386903.023438.564453.050386-.991105.294982-1.865881 1.220703-4.492188.678103-1.923899 1.269117-3.593584 1.335937-3.771484-.11931.001501-.23194-.009738-.349609-.011719zm6.457031 11.328125c-.099313.041881-.187307.09427-.25.169922-.235455.284.040295.399663 1.117188 2.226563.357818.607.642011 1.073265.867187 1.447265.287178.531004.459125 1.008824.539063 1.4375.141471-.634301-.002737-1.445811-.539063-2.4375-.225176-.374-.509369-.840265-.867187-1.447265-.444507-.754086-.675284-1.093327-.867188-1.396485zm27.921875 2.941407c-.168015.014445-.347389.061429-.529297.113281-.345366.552512-.786357 1.087012-1.316406 1.607422 1.844414-1.092453 2.879657-.926908 4.183594.447265.308706.3253 1.579 2.012953 2.822265 4.751953 3.257932 7.177301 3.945729 7.174082 5.591797 8.863282.7095.727958 1.329534 1.474308 1.517578 1.808594.105299-.305375.155728-.615885.074219-.873047-.07838-.2471-.795416-1.118447-1.591797-1.935547-1.646068-1.6892-2.333865-1.685981-5.591797-8.863282-1.243265-2.739-2.513559-4.426653-2.822265-4.751953-.800625-.84375-1.494597-1.240472-2.337891-1.167968zm-9.626953 8.884765c-.031733.19972-.035872.428356-.011719.714844.023962.284298.025036.567419.033203.851562.017189-.506433.013363-1.029073-.021484-1.566406z" fill="#fff" fill-rule="evenodd" opacity=".1" transform="translate(0 988.3622)"/></g></svg>