<svg height="64" width="64" xmlns="http://www.w3.org/2000/svg"><rect height="48" opacity=".2" rx="4" width="56" x="4" y="9"/><rect fill="#f13c3c" height="48" rx="4" width="56" x="4" y="8"/><g opacity=".2" transform="matrix(2 0 0 2 0 1)"><path d="m6.5929 13.231 1.2714 2.18c.81026-1.2023 1.7427-2.7904 2.5428-3.8158" fill="none" stroke="#000" stroke-linecap="round" stroke-linejoin="round" stroke-width="1.177"/><circle cx="8" cy="9" r="1"/><rect height="2" rx="1" width="13" x="12" y="8"/><rect height="2" rx="1" width="13" x="12" y="13"/><rect height="2" rx="1" width="13" x="12" y="18"/><rect height="2" rx="1" width="13" x="12" y="23"/><circle cx="8" cy="19" r="1"/><circle cx="8" cy="24" r="1"/></g><g transform="scale(2)"><path d="m6.5929 13.231 1.2714 2.18c.81026-1.2023 1.7427-2.7904 2.5428-3.8158" fill="none" stroke="#fff" stroke-linecap="round" stroke-linejoin="round" stroke-width="1.177"/><g fill="#fff"><circle cx="8" cy="9" r="1"/><rect height="2" rx="1" width="13" x="12" y="8"/><rect height="2" rx="1" width="13" x="12" y="13"/><rect height="2" rx="1" width="13" x="12" y="18"/><rect height="2" rx="1" width="13" x="12" y="23"/><circle cx="8" cy="19" r="1"/><circle cx="8" cy="24" r="1"/></g></g><path d="m8 8c-2.216 0-4 1.784-4 4v1c0-2.216 1.784-4 4-4h48c2.216 0 4 1.784 4 4v-1c0-2.216-1.784-4-4-4z" fill="#fff" opacity=".2"/></svg>