<svg height="64" width="64" xmlns="http://www.w3.org/2000/svg"><path d="m4.050798 32.000828c-.0118.33399-.050799.661981-.050799.999971.0000004 15.511558 12.487644 27.999201 27.999201 27.999201s27.999201-12.487643 27.999201-27.999201c0-.33767-.03904-.665261-.05078-.999971-.527985 15.041571-12.775635 26.999229-27.949202 26.999229-15.173967 0-27.4212171-11.957658-27.949202-26.999229z" opacity=".2"/><path d="m31.9992 4.0016559c-15.511557 0-27.9992006 12.4876431-27.9992006 27.9992001 0 15.511558 12.4876436 27.999201 27.9992006 27.999201s27.999201-12.487643 27.999201-27.999201c0-15.511557-12.487644-27.9992001-27.999201-27.9992001z" fill="#e4e4e4"/><path d="m20 20h23.999v23.999h-23.999z" fill="#a26b4e"/><path d="m21.999486 5.8610028c-.680841.2593126-1.346062.5458444-1.999943.8554356v13.2848206h-13.2848211c-.3095911.653881-.596143 1.319102-.8554356 1.999943h14.1401967v19.999429h-14.1401967c.2593126.680841.5458445 1.346062.8554356 1.999943h13.2848211v13.284821c.653881.309591 1.319102.596143 1.999943.855435v-14.141596h19.999429v14.140196c.68084-.259312 1.346061-.545844 1.999942-.855435v-13.283621h13.284821c.309591-.653881.596143-1.319102.855436-1.999943h-14.141597v-19.999429h14.139597c-.257993-.679981-.545985-1.345962-.853976-1.999943h-13.285621v-13.2848206c-.653981-.3095912-1.319962-.596183-1.999942-.8553756v14.1401962h-19.999429v-14.1401962zm0 16.1401392h19.999429v19.999429h-19.999429z" opacity=".2"/><path d="m32 4.0019531c-15.511557 0-28 12.4864899-28 27.9980469 0 .113553.0112846.224036.0175781.335938.3515332-15.201323 12.6935859-27.335938 27.9824219-27.335938s27.630889 12.134615 27.982422 27.335938c.006271-.111822.017578-.222493.017578-.335938 0-15.511557-12.488443-27.9980469-28-27.9980469z" fill="#fff" opacity=".2"/><path d="m34.349667 31.019523c.809088.172977 1.439619.532882 1.891593 1.079714.457553.546832.68633 1.222002.68633 2.025511 0 1.233162-.424074 2.187328-1.272222 2.862498-.848147.67517-2.05341 1.012755-3.615787 1.012755-.524513 0-1.065765-.05301-1.623757-.159028-.552411-.100438-.824353-.253886-1.415824-.460343v-1.38063c.975844.430434 1.971746.505324 2.989362.577122 1.060184 0 1.866482-.209247 2.418894-.627741.557992-.418494.836988-1.026705.836988-1.824633 0-.736549-.259466-1.311281-.778399-1.724195-.513352-.418494-1.230371-.627741-2.151058-.627741h-1.315787v-1.3894h1.382746c.831408 0 1.467519-.164608 1.908332-.493823.440813-.334795.66122-.814668.66122-1.439619 0-.641691-.228777-1.132723-.68633-1.473098-.451973-.345955-1.102034-.518933-1.950181-.518933-.463133 0-.959746.05022-1.489838.150658-.530093.100439-1.189838.256676-1.825949.468713v-1.506578c.641691-.178557 1.318176-.312475 1.876168-.401754.563571-.08928 1.093664-.133918 1.590277-.133918 1.283381 0 2.298926.292946 3.046635.878837.747709.580312 1.121564 1.367081 1.121564 2.360306 0 .69191-.198087 1.277801-.594262 1.757674-.396174.474293-.959746.803509-1.690715.987646z" opacity=".2" transform="translate(0 .999999)"/><path d="m34.349667 31.019523c.809088.172977 1.439619.532882 1.891593 1.079714.457553.546832.68633 1.222002.68633 2.025511 0 1.233162-.424074 2.187328-1.272222 2.862498-.848147.67517-2.05341 1.012755-3.615787 1.012755-.524513 0-1.065765-.05301-1.623757-.159028-.552411-.100438-.824353-.253886-1.415824-.460343v-1.38063c.975844.430434 1.971746.505324 2.989362.577122 1.060184 0 1.866482-.209247 2.418894-.627741.557992-.418494.836988-1.026705.836988-1.824633 0-.736549-.259466-1.311281-.778399-1.724195-.513352-.418494-1.230371-.627741-2.151058-.627741h-1.315787v-1.3894h1.382746c.831408 0 1.467519-.164608 1.908332-.493823.440813-.334795.66122-.814668.66122-1.439619 0-.641691-.228777-1.132723-.68633-1.473098-.451973-.345955-1.102034-.518933-1.950181-.518933-.463133 0-.959746.05022-1.489838.150658-.530093.100439-1.189838.256676-1.825949.468713v-1.506578c.641691-.178557 1.318176-.312475 1.876168-.401754.563571-.08928 1.093664-.133918 1.590277-.133918 1.283381 0 2.298926.292946 3.046635.878837.747709.580312 1.121564 1.367081 1.121564 2.360306 0 .69191-.198087 1.277801-.594262 1.757674-.396174.474293-.959746.803509-1.690715.987646z" fill="#fff"/><path d="m8 37.497808v-1.540057c.4240738.200877.9972359.354324 1.4324696.460343.4352336.106019.8620974.159028 1.2805914.159028 1.115984 0 1.966922-.373855 2.552813-1.121564.591471-.753289.929056-1.894382 1.012755-3.42328-.323635.479873-.733759.848148-1.230372 1.104824s-1.046235.385014-1.648866.385014c-1.249902 0-2.5404904-.376644-3.2714597-1.129933-.7253894-.758869-1.0880841-1.793944-1.0880841-3.105225 0-1.283381.3794345-2.312876 1.1383034-3.088485s2.0689874-1.163413 3.3300484-1.163413c1.445199 0 2.547233.555202 3.306102 1.665606.764449 1.104824 1.146673 2.711841 1.146673 4.82105 0 1.969711-.468713 3.543248-1.406139 4.720611-.931847 1.171783-2.187328 1.757674-3.766445 1.757674-.424074 0-.8537278-.04185-1.2889614-.125548-.4352337-.0837-1.0307155-.209247-1.4994286-.376645zm3.508199-5.298132c.758869 0 1.358711-.259466 1.799524-.778399.446393-.518933.66959-1.230372.66959-2.134319 0-.898367-.223197-1.607016-.66959-2.125949-.440813-.524512-1.040655-.786768-1.799524-.786768s-1.6616527.262256-2.1080462.786768c-.4408136.518933-.6612204 1.227582-.6612204 2.125949 0 .903947.2204068 1.615386.6612204 2.134319.4463935.518933 1.3491772.778399 2.1080462.778399z" fill="#555"/></svg>