<svg height="64" width="64" xmlns="http://www.w3.org/2000/svg"><path d="m25.718 47.738c-.238 1.152-.854 2.34-1.854 3.34l-5.9422 5.938c-2.1936 2.194-5.2804 2.634-6.9258.988-.4408-.44-.7194-.986-.867-1.59-.2856 1.372-.0276 2.696.867 3.59 1.6454 1.646 4.7322 1.206 6.9258-.988l5.9422-5.942c1.606-1.606 2.258-3.688 1.854-5.336zm12.41 0c-.402 1.648.25 3.73 1.856 5.336l5.938 5.942c2.194 2.194 5.284 2.634 6.93.988.894-.894 1.152-2.218.866-3.59-.146.604-.426 1.15-.866 1.59-1.646 1.646-4.736 1.206-6.93-.988l-5.938-5.938c-1-1-1.616-2.188-1.856-3.34z" opacity=".2"/><path d="m22.514 44.158c-1.49994-.07952-3.22.6086-4.591 1.97968l-5.939 5.939c-2.1938 2.1938-2.6352 5.2836-.98984 6.929 1.6453 1.6453 4.7352 1.20388 6.929-.98984l5.939-5.939c2.1938-2.1938 2.6352-5.2836.98984-6.929-.61698-.61698-1.43792-.94212-2.3378-.98984zm18.8152 0c-.89996.04772-1.71816.37286-2.3352.98984-1.6453 1.6453-1.20388 4.7352.98984 6.929l5.939 5.939c2.1938 2.1938 5.2836 2.6352 6.929.98984 1.6453-1.6453 1.20388-4.7352-.98984-6.929l-5.939-5.939c-1.37108-1.37108-3.0938-2.0592-4.5938-1.97968z" fill="#4f4f4f"/><path d="m10 4a10 10 0 0 0 -10 10 10 10 0 0 0 10 10 10 10 0 0 0 10-10 10 10 0 0 0 -10-10zm44 0a10 10 0 0 0 -10 10 10 10 0 0 0 10 10 10 10 0 0 0 10-10 10 10 0 0 0 -10-10z" fill="#48a040"/><path d="m10 4a10 10 0 0 0 -10 10 10 10 0 0 0  .02148438.414062 10 10 0 0 1 9.97851562-9.414062 10 10 0 0 1 9.972656 9.474609 10 10 0 0 0  .027344-.474609 10 10 0 0 0 -10-10zm44 0a10 10 0 0 0 -10 10 10 10 0 0 0  .021484.414062 10 10 0 0 1 9.978516-9.414062 10 10 0 0 1 9.972656 9.474609 10 10 0 0 0  .027344-.474609 10 10 0 0 0 -10-10z" fill="#fff" opacity=".2"/><path d="m4.0508 32c-.0118.334-.0508.662-.0508 1 0 15.512 12.488 28 28 28s28-12.488 28-28c0-.338-.04-.666-.05-1-.528 15.042-12.776 27-27.95 27-15.1744 0-27.422-11.958-27.95-27z" opacity=".2"/><rect fill="#48a040" height="56" rx="28" transform="matrix(0 -1 -1 0 0 0)" width="56" x="-60" y="-60"/><path d="m32 4c-15.512 0-28 12.488-28 28 0 .113556.0112845.224032.0175781.335938.3515432-15.201757 12.6931499-27.335938 27.9824219-27.335938 15.287972 0 27.630821 12.13209 27.984375 27.332031.006256-.110598.015625-.219814.015625-.332031 0-15.512-12.488-28-28-28z" fill="#fff" opacity=".2"/><rect fill="#fff" height="46" opacity=".7" rx="23" transform="matrix(0 -1 -1 0 0 0)" width="46" x="-55" y="-55"/><path d="m32 11a3 3 0 0 0 -3 3 3 3 0 0 0 3 3 3 3 0 0 0 3-3 3 3 0 0 0 -3-3zm11.658203 11.003906c-.276795-.019033-.562833.041711-.822265.189453l-11.982422 6.824219c-1.63474.80296-2.254397 2.903541-1.591797 4.119141l4.357422 7.441406c.7981 1.36352 2.5539 1.827003 3.9375 1.039063 1.38362-.78796 1.85474-2.519213 1.05664-3.882813l-4.326172-7.390625 9.990235-5.689453c.6918-.39398.928557-1.259286.529297-1.941406-.249538-.426325-.687113-.677262-1.148438-.708985zm-29.658203 6.996094a3 3 0 0 0 -3 3 3 3 0 0 0 3 3 3 3 0 0 0 3-3 3 3 0 0 0 -3-3zm36 0a3 3 0 0 0 -3 3 3 3 0 0 0 3 3 3 3 0 0 0 3-3 3 3 0 0 0 -3-3zm-18 18a3 3 0 0 0 -3 3 3 3 0 0 0 3 3 3 3 0 0 0 3-3 3 3 0 0 0 -3-3z" opacity=".7"/></svg>