<svg height="64" width="64" xmlns="http://www.w3.org/2000/svg"><path d="m24.333333 5.0000007c-1.520474.0002858-2.978579.5904334-4.053647 1.6406564l-8.599998 8.4001599c-.940531.920912-1.508081 2.115515-1.643187 3.370321l-.036501 3.389184v18.53942c.000293 1.485144.604479 2.909364 1.679688 3.95945l5.559766 5.430574 5.906899 5.430574 4.3 4.20008c2.239039 2.186106 5.868255 2.186106 8.107292 0l4.3-4.20008 5.906902-5.430574 5.559764-5.430574c1.075209-1.050086 1.679396-2.474306 1.679689-3.95945v-18.53942l-.0078-2.957324c-.0395-1.410136-.624148-2.775967-1.671964-3.802181l-8.6-8.4001599c-1.07499-1.050223-2.533095-1.6403706-4.053569-1.6406564z" opacity=".2"/><path d="m24.333333 4.0000002c-1.520474.0002858-2.978579.5904334-4.053647 1.6406564l-8.599998 8.4001604c-.940531.920912-1.508081 2.115515-1.643187 3.370321l-.036501 3.389184v18.53942c.000293 1.485144.604479 2.909364 1.679688 3.95945l5.559766 5.430574 5.906899 5.430574 4.3 4.20008c2.239039 2.186106 5.868255 2.186106 8.107292 0l4.3-4.20008 5.906902-5.430574 5.559764-5.430574c1.075209-1.050086 1.679396-2.474306 1.679689-3.95945v-18.53942l-.0078-2.957324c-.0395-1.410136-.624148-2.775968-1.671964-3.802181l-8.6-8.4001604c-1.07499-1.050223-2.533095-1.6403706-4.053569-1.6406564z" fill="#4f4f4f"/><path d="m24.955078 11-8.455078 8h11.5v31.777344l4 4.222656 4-4.222656v-31.777344h11.5l-8.455078-8zm-7.955078 11v19.1875l5.207031 5.076172 5.585938-5.728516-2.792969-2.722656v-15.8125zm22 0v15.8125l-2.792969 2.722656 5.585938 5.728516 5.207031-5.076172v-19.1875z" opacity=".2"/><path d="m28 16h8v33.777778l-4 4.222222-4-4.222222z" fill="#c2c4c1"/><path d="m21 21v17.5l4 3.9" fill="none" stroke="#c2c4c1" stroke-width="8"/><path d="m43 21v17.5l-4 3.9" fill="none" stroke="#c2c4c1" stroke-width="8"/><path d="m39.045455 10 8.454545 8h-31l8.454545-8z" fill="#c2c4c1"/><path d="m24.955078 10-8.455078 8h1.056641l7.398437-7h14.089844l7.398437 7h1.056641l-8.455078-8zm-7.955078 11v1h8v-1zm22 0v1h8v-1zm-14 15.8125v1l2.292969 2.234375.5-.511719zm14 0-2.792969 2.722656.5.511719 2.292969-2.234375z" fill="#fff" opacity=".2"/><path d="m24.333984 4c-1.520474.0002858-2.979619.590402-4.054687 1.640625l-8.599609 8.400391c-.940532.920912-1.507473 2.116287-1.642579 3.371093l-.037109 3.388672v1l .037109-3.388672c.135106-1.254806.702047-2.450181 1.642579-3.371093l8.599609-8.400391c1.075068-1.050223 2.534213-1.6403392 4.054687-1.640625h14.332032c1.520474.0002858 2.979697.590402 4.054687 1.640625l8.599609 8.400391c1.047817 1.026214 1.632376 2.392598 1.671876 3.802734l.007812 2.957031v-1l-.007812-2.957031c-.0395-1.410136-.624059-2.776521-1.671876-3.802734l-8.599609-8.400391c-1.07499-1.050223-2.534213-1.6403392-4.054687-1.640625z" fill="#fff" opacity=".1"/></svg>