<svg height="64" width="64" xmlns="http://www.w3.org/2000/svg"><path d="m4 52v2c0 1.662 1.338 3 3 3h50c1.662 0 3-1.338 3-3v-2c0 1.662-1.338 3-3 3h-50c-1.662 0-3-1.338-3-3z" opacity=".2"/><path d="m7 8c-1.662 0-3 1.338-3 3v33h56v-33c0-1.662-1.338-3-3-3zm52.188 47c-.5061.50534-1.2244.8095-2 .8125l-50.188.188h50c .87988 0 1.6396-.40044 2.1876-1z" fill="#ff766a"/><path d="m7 8c-1.662 0-3 1.338-3 3v1c0-1.662 1.338-3 3-3h50c1.662 0 3 1.338 3 3v-1c0-1.662-1.338-3-3-3z" fill="#fff" opacity=".2"/><path d="m44 19c4.4182 0 8 3.5818 8 8s-3.5818 8-8 8-8-3.5818-8-8 3.5818-8 8-8z" fill-rule="evenodd" opacity=".2"/><path d="m44 18c4.4182 0 8 3.5818 8 8s-3.5818 8-8 8-8-3.5818-8-8 3.5818-8 8-8z" fill="#fffee4" fill-rule="evenodd"/><path d="m4 44v9s0 3.012 3 3l50.2-.2c1.552-.006 2.8-1.248 2.8-2.8v-9z" fill="#d22f7a"/><path d="m4 43.999979v-1.737364s4.0385587-2.895534 5.1738033-3.148103c1.1354047-.252613 2.4762977-.04713 3.8543517.235412 1.378034.281453 3.435335 1.06208 4.07736 1.085883.642105.02432 1.804031-.06081 3.154124-.149414 1.350053-.08687 3.585341-.166786 4.282568-.1581.697247 0 2.437896.104242 4.293169.227226 1.855413.123354 4.403773.329426 4.981995.387085.578223.05733 1.25787.163313 2.02928.278869.77129.114666 2.106683.28786 2.578901.335485.472359.04669 1.567502.210438 2.838112.337396 1.27065.126828 3.30413.170261 3.891353.123352.587243-.04713 1.818131-.519043 3.189925-.954253 1.371694-.435036 2.884313-.833414 4.034759-.734905 1.148045.0999 7.620299 2.134328 7.620299 2.134328v1.737364h-49.201933z" fill="#3f3f3f"/><path d="m4 44v1h56v-1z" fill="#fff" opacity=".1"/><path d="m63.957999 45.848057a15.999946 15.999946 0 0 1 -15.957946 15.151949 15.999946 15.999946 0 0 1 -15.957947-14.84795 15.999946 15.999946 0 0 0 -.042.847997 15.999946 15.999946 0 0 0 15.999947 15.999947 15.999946 15.999946 0 0 0 15.999946-15.999947 15.999946 15.999946 0 0 0 -.04296-1.152336z" fill-rule="evenodd" opacity=".2"/><circle cx="48" cy="46" fill="#4254cd" fill-rule="evenodd" r="16"/><path d="m45.927734 38-.175781 2.107422a6.2858 6.2858 0 0 0 -1.837891 1.0625l-1.914062-.902344-2 3.464844 1.738281 1.207031a6.2858 6.2858 0 0 0 -.0957 1.060547 6.2858 6.2858 0 0 0  .0918 1.064453l-1.734378 1.205078 2 3.462891 1.910156-.898438a6.2858 6.2858 0 0 0 1.841797 1.054688l.175781 2.111328h4l .177735-2.105469a6.2858 6.2858 0 0 0 1.835937-1.064453l1.916016.902344 2-3.462891-1.740234-1.208984a6.2858 6.2858 0 0 0  .09766-1.060547 6.2858 6.2858 0 0 0 -.0918-1.064453l1.734375-1.203125-2-3.462891-1.91211.898438a6.2858 6.2858 0 0 0 -1.83984-1.054688l-.175781-2.113281h-4-.002zm2.072266 5a3 3 0 0 1 3 3 3 3 0 0 1 -3 3 3 3 0 0 1 -3-3 3 3 0 0 1 3-3z" fill="#fff"/></svg>