<svg height="64" width="64" xmlns="http://www.w3.org/2000/svg"><path d="m5 44v12.8c0 2.3268 1.8661578 4.2 4.1842104 4.2h44.6315776c2.318053 0 3.681355-1.928608 4.18421-4.2v-12.8z" opacity=".2"/><path d="m9.1842104 4c-2.3180526 0-4.1842104 1.8732-4.1842104 4.2v35.14h52.999998v-35.14c0-2.3268-1.866157-4.2-4.18421-4.2z" fill="#ffbf3f"/><path d="m5 43v12.8c0 2.3268 1.8661578 4.2 4.1842104 4.2h44.6315776c2.318053 0 3.681355-1.928608 4.18421-4.2v-12.8z" fill="#e4e4e4"/><rect fill="#4f4f4f" height="3" opacity=".6" rx="1.5" width="18" x="8" y="53"/><rect fill="#4f4f4f" height="3" rx="1.5" width="36" x="8" y="47"/><path d="m9.1835938 4c-2.3180526 0-4.1835938 1.8724187-4.1835938 4.1992188v1c0-2.3268001 1.8655412-4.1992188 4.1835938-4.1992188h44.6328122c2.318053 0 4.183594 1.8724187 4.183594 4.1992188v-1c0-2.3268001-1.865541-4.1992188-4.183594-4.1992188z" fill="#fff" opacity=".2"/><path d="m5 43v1h53v-1z" fill="#fff" opacity=".2"/><path d="m5 42v1h53v-1z" opacity=".1"/></svg>