<svg height="64" width="64" xmlns="http://www.w3.org/2000/svg"><path d="m25.980675 10.501304 2.941857 5.166206c1.517851 2.665015.767241 5.980485-1.619842 7.760997-.175.13048-.33643.271692-.528556.384958l5.225881 9.187493 28.814477-16.886006c-.08422-.197481-.15229-.398266-.261104-.589311-1.630043-2.861967-5.215859-3.83467-8.03919-2.182313l-5.096364 2.980068-5.886066-10.3310376c-1.086699-1.9079752-3.475165-2.5565724-5.357383-1.4550018z" opacity=".2"/><path d="m32.000015 33.000958 5.225881 9.187489c.0016-.000946.0032-.0019.0048-.0028.1943-.11372.398274-.18338.598894-.272493 2.714695-1.205305 5.922422-.210204 7.440292 2.454799l2.941858 5.166207 10.192356-5.966446c1.88222-1.101573 2.52435-3.522543 1.437651-5.430521l-5.886067-10.331036 5.097425-2.983871c2.823324-1.652361 3.783221-5.286789 2.153174-8.148752-.11218-.196965-.254627-.361087-.384441-.539923-.0028-.0061-.0048-.01246-.0072-.01862z" opacity=".2"/><path d="m3.1855394 49.88696c.084212.19748.1522901.398268.2611024.589313 1.6300508 2.861964 5.2158592 3.834669 8.0391892 2.182314l5.096364-2.980067 5.886017 10.331066c1.086701 1.907975 3.475163 2.556572 5.357383 1.455001l10.193786-5.963936-2.941857-5.166207c-1.517852-2.665014-.767239-5.980483 1.619841-7.760993.174921-.13048.336373-.271664.528499-.384926l-5.225905-9.187535z" opacity=".2"/><path d="m25.980675 9.5013029 2.941857 5.1662061c1.517851 2.665015.767241 5.980484-1.619842 7.760996-.175.13048-.33643.271692-.528556.384958l5.225881 9.187493 28.814477-16.886005c-.08422-.197482-.15229-.398266-.261104-.589311-1.630043-2.861967-5.215859-3.83467-8.03919-2.182314l-5.096364 2.980068-5.886066-10.331037c-1.086699-1.9079752-3.475165-2.5565725-5.357383-1.4550018z" fill="#ea257b"/><path d="m5.5959517 21.43418c-1.8822204 1.101571-2.5243502 3.522545-1.4376496 5.430521l5.8860169 10.331066-5.0974228 2.983871c-2.8233258 1.652361-3.7832235 5.286787-2.1531732 8.148752.1121821.19696.2546186.36109.3844344.539926.00266.006.00474.0124.00734.0186l28.8144816-16.885996-5.225881-9.187491c-.0016.000946-.0032.0019-.0048.003-.1943.11372-.39826.18342-.598895.272493-2.714674 1.205363-5.922399.21026-7.440269-2.454741l-2.941878-5.166404z" fill="#1a96f7"/><path d="m3.1855394 48.886958c.084212.19748.1522901.398268.2611024.589313 1.6300508 2.861964 5.2158592 3.834669 8.0391892 2.182314l5.096364-2.980067 5.886017 10.331066c1.086701 1.907976 3.475163 2.556572 5.357383 1.455001l10.193786-5.963936-2.941857-5.166206c-1.517852-2.665015-.767239-5.980484 1.619841-7.760994.174921-.13048.336373-.271664.528499-.384926l-5.225905-9.187535z" fill="#3fa807"/><path d="m32.000015 32.000956 5.225881 9.187489c.0016-.000946.0032-.0019.0048-.0028.1943-.11372.398274-.18338.598894-.272492 2.714695-1.205306 5.922422-.210205 7.440292 2.454798l2.941858 5.166207 10.192356-5.966446c1.88222-1.101573 2.52435-3.522543 1.437651-5.430521l-5.886067-10.331036 5.097425-2.983871c2.823324-1.652361 3.783221-5.286788 2.153174-8.148752-.11218-.196964-.254627-.361086-.384441-.539922-.0028-.0061-.0048-.01246-.0072-.01862z" fill="#f6c319"/><path d="m3.6699219 25.410437c-.096408.821588.046809 1.679963.4882812 2.455078l5.4589844 9.580078.4277345-.25-5.8867189-10.330078c-.2640057-.463528-.4213423-.957268-.4882812-1.455078zm27.9042971 6.841797-28.3886721 16.634766c-.0026-.0062-.00515-.01158-.00781-.01758-.1298183-.178834-.272586-.344054-.3847681-.541014-.4527593-.794933-.6988764-1.648809-.7675782-2.503906-.1015745 1.177554.1377619 2.398105.7675782 3.503906.1121821.19696.2549498.36218.3847656.541016.00266.006.00521.01138.00781.01758l28.8144556-16.886721z" opacity=".2"/><g fill="#fff"><path d="m38.410156 3.0097656c-.752869-.0532642-1.530496.1142548-2.236328.5273438l-10.193359 5.9648437.427734.7499999 9.765625-5.7148436c1.882218-1.1015707 4.270723-.4528971 5.357422 1.4550781l5.886719 10.3320315 5.095703-2.980469c2.759019-1.614717 6.241317-.718151 7.919922 1.994141l.380859-.222657c-.08422-.197482-.152905-.398798-.261719-.589843-1.630043-2.861967-5.215731-3.833997-8.039062-2.181641l-5.095703 2.980469-5.886719-10.3320315c-.679187-1.1924845-1.866311-1.8936482-3.121094-1.9824219zm-8.742187 15.1347654c-.145536 1.661079-.963905 3.237959-2.365235 4.283203-.175.13048-.33717.2715-.529296.384766l.402343.707031c.040878-.031881.08513-.060613.126953-.091797 1.681403-1.254148 2.528549-3.269673 2.365235-5.283203z" opacity=".2"/><path d="m15.789062 15.46875-10.1933589 5.964844c-1.4254901.834269-2.1351565 2.424729-1.9257812 3.976562.1409045-1.200781.8082129-2.322504 1.9257812-2.976562l10.1933589-5.964844 2.941407 5.166016c1.51787 2.665001 4.724779 3.660441 7.439453 2.455078.200635-.089073.405309-.159718.599609-.273438.0016-.0011.002307-.001007.003907-.001953l4.798828 8.435547.427734-.25-5.226562-9.1875c-.0016.000946-.002307.002806-.003907.003906-.1943.11372-.398974.184365-.599609.273438-2.714674 1.205363-5.921583.209923-7.439453-2.455078zm-6.1718745 21.976562-4.6699219 2.734376c-2.0391248 1.193404-3.1005173 3.421058-2.921875 5.644531.1613142-1.870117 1.1894213-3.630607 2.921875-4.644531l5.0976564-2.984376z" opacity=".2"/><path d="m60.814453 15.115234-28.814453 16.884766.427734.751953 28.386719-16.636719c.0024.00616.005013.011479.007813.017578.129814.178837.272585.344052.384765.541016.452759.794933.698877 1.64881.767578 2.503906.101575-1.177554-.137763-2.398105-.767578-3.503906-.11218-.196964-.254951-.362179-.384765-.541016-.0028-.006099-.005413-.011418-.007813-.017578zm-6.431641 12.441407-.427734.25 5.886719 10.330078c.263693.46298.421197.957867.488281 1.455078.096409-.821587-.04681-1.679962-.488281-2.455078z" opacity=".2"/></g></svg>