<svg height="64" viewBox="0 0 64 64" width="64" xmlns="http://www.w3.org/2000/svg"><path d="m61.364176 14.417591c-.249397 2.783967-1.506082 5.603534-3.761756 7.859107l-8.488099 8.484299c-4.700744 4.700945-11.84866 5.11994-16.02721.941389l-1.882798-1.882777c-1.69174-1.69178-2.615169-3.873755-2.820366-6.179527-.273057 3.021364.644572 6.003929 2.820366 8.179503l1.882798 1.882778c4.17855 4.17855 11.326266 3.759555 16.02721-.941389l8.488099-8.4843c2.800367-2.800167 4.066552-6.467123 3.761756-9.859083z" opacity=".2"/><path d="m49.23032 26.417282c-.194358 1.118387-.693492 2.170174-1.531222 3.007764l-19.089574 19.093574c-1.573001 1.573181-2.810967 2.793967-4.949141 2.120975l-7.074117 7.070316c-2.350372 2.350372-7.2869133 1.197586-9.8982823-1.413983-1.3744638-1.374584-2.3253725-3.38916-2.5937693-5.335937-.3588158 2.444771.7334713 5.475535 2.5937693 7.335913 2.611569 2.611569 7.5479103 3.764355 9.8982823 1.413983l7.074117-7.070316c2.138174.672992 3.37616-.547793 4.949141-2.120975l19.089574-19.093574c1.327344-1.327184 1.808438-3.176962 1.531222-5.00774zm-36.913563 12.785048c-.02119.062-.02969.129999-.04687.195998l.07422-.074c-.0134-.042-.01544-.08-.02734-.119999z" opacity=".2"/><path d="m42.514399 16.61742c-2.611569-2.611569-6.606122-2.821767-8.956494-.471395l-19.091574 19.091774c-1.573061 1.572982-2.794366 2.811567-2.121374 4.949542l-7.0709166 7.070916c-2.3503721 2.350572-1.1973658 7.287913 1.4142433 9.899482 2.611609 2.611569 7.5489103 3.764556 9.8992823 1.414184l7.070917-7.070917c2.138174.672992 3.37656-.548193 4.949741-2.121374l19.091774-19.091774c2.350372-2.350172 2.140174-6.344925-.471315-8.956494z" fill="#e4e4e4"/><path d="m37.333984 14.615234c-1.40392.061008-2.746928.598666-3.77539 1.626954l-19.091797 19.089843c-1.403661 1.403717-2.504051 2.552326-2.25 4.300781.204964-1.225607 1.131337-2.182074 2.25-3.300781l19.091797-19.089843c1.175386-1.175187 2.760006-1.711001 4.378906-1.625 1.618981.085198 3.272381.787964 4.578125 2.09375l4.714844 4.714843c1.246839 1.246899 1.934216 2.806929 2.064453 4.353516.137627-1.856509-.547188-3.836178-2.064453-5.353516l-4.714844-4.714843c-1.305744-1.305786-2.959144-2.008551-4.578125-2.09375-.202362-.01075-.402956-.010669-.603516-.001954zm-25.152343 25.830078-6.9062504 6.910157c-.9953822.995578-1.3436588 2.45711-1.234375 4.007812.0792896-1.166156.4571936-2.230478 1.234375-3.007812l6.9082034-6.91211c-.023712-.285277-.012137-.555224.033203-.8125-.008754-.060459-.029631-.126502-.035156-.185547zm.02539 1.236329c-.038503.24172-.045583.495282-.023437.761718l.162109-.162109c-.065877-.209288-.109081-.407023-.138672-.599609z" fill="#fff" opacity=".2"/><rect fill="#ffbc48" height="36" rx="10.666" ry="12" transform="matrix(.70710678 .70710678 -.70710678 .70710678 0 0)" width="24" x="33.21" y="-36.25"/><path d="m49.921875 2.6171875c-3.228761-.1219985-6.6488 1.1683314-9.292969 3.8125l-8.484375 8.4882815c-2.647766 2.647766-3.905822 6.066547-3.779297 9.298828.144867-2.925595 1.403779-5.92331 3.779297-8.298828l8.484375-8.4882815c2.644169-2.6441686 6.064208-3.9344985 9.292969-3.8125 2.511371.0941989 4.906296 1.0431155 6.734375 2.8710937l1.886719 1.8867188c1.80356 1.803378 2.72899 4.162482 2.841797 6.636719.122763-2.833527-.796056-5.5911845-2.841797-7.636719l-1.886719-1.8867188c-1.828079-1.8279783-4.223004-2.7768948-6.734375-2.8710937z" fill="#fff" opacity=".2"/><path d="m20.454661 19.017405c-.489595.644392-.509154 1.502382.02344 2.035175l23.335724 23.335724c.587593.587593 1.585361.535794 2.238173-.117999l4.714744-4.714744c.641333-.641392.695592-1.611781.140619-2.203174-.05056.066-.07952.141999-.140619.203198l-4.714744 4.714744c-.652892.652992-1.65066.704792-2.238173.117999l-23.335725-23.335724c-.0104-.02-.0134-.024-.02344-.036z" opacity=".2"/><rect fill="#ffbc48" height="10" rx="1.5" ry="1.666" transform="matrix(.70710678 .70710678 -.70710678 .70710678 0 0)" width="36" x="27.21" y="-10.25"/><rect fill="#4e79ff" height="24" rx="4" ry="3" transform="matrix(.70710678 .70710678 -.70710678 .70710678 0 0)" width="8" x="41.21" y="7.75"/><path d="m26.455078 12.615234v.001954c-.404715.022-.818095.198041-1.144531.523437l-4.714844 4.714844c-.486267.486312-.633941 1.160818-.435547 1.716797.083131-.256952.224606-.505837.435547-.716797l4.714844-4.714844c.326436-.325396.739816-.501437 1.144531-.523437v-.001954c.404736-.0214.799954.112454 1.09375.40625l23.335938 23.335938c.141814.141814.241571.308548.30664.486328.172227-.528832.084658-1.09503-.30664-1.486328l-23.335938-23.335938c-.293796-.293796-.689014-.42765-1.09375-.40625z" fill="#fff" opacity=".2"/></svg>