<svg height="64" width="64" xmlns="http://www.w3.org/2000/svg"><circle cx="32" cy="33" opacity=".2" r="28"/><circle cx="32" cy="32" fill="#a43b84" r="28"/><path d="m20 35.8s0 11.2 9 11.2h15v-28h-6v21h-7.5c-4.5 0-4.5-5.6-4.5-5.6v-15.4h-6z" opacity=".2"/><path d="m20 34.8s0 11.2 9 11.2h15v-28h-6v21h-7.5c-4.5 0-4.5-5.6-4.5-5.6v-15.4h-6z" fill="#fff"/><path d="m32 4a28 28 0 0 0 -28 28 28 28 0 0 0  .0215.586 28 28 0 0 1 27.9785-27.586 28 28 0 0 1 27.979 27.414 28 28 0 0 0  .021-.414 28 28 0 0 0 -28-28z" fill="#fff" opacity=".1"/></svg>