<svg height="64" viewBox="0 0 64 64" width="64" xmlns="http://www.w3.org/2000/svg"><rect height="11" opacity=".2" rx="2.8" ry="2.75" width="56" x="4" y="47"/><path d="m6.8 7c-1.5512 0-2.8 1.2488-2.8 2.8v2.8 40.6c0 1.5512 1.2488 2.8 2.8 2.8h50.4c1.5512 0 2.8-1.2488 2.8-2.8v-40.6-2.8c0-1.5512-1.2488-2.8-2.8-2.8z" fill="#4ab3e4"/><rect height="11" opacity=".1" rx="2.8" ry="2.75" width="56" x="4" y="45"/><path d="m15 17.75v19.125c0 1.17725.94775 2.125 2.125 2.125h29.75c1.17725 0 2.125-.94775 2.125-2.125v-19.125z" opacity=".2"/><rect fill="#4f4f4f" height="11" rx="2.8" ry="2.75" width="56" x="4" y="46"/><g fill="#fff"><rect height="11" opacity=".2" rx="2.8" ry="2.75" width="14" x="25" y="46"/><rect height="11" opacity=".1" rx="2.8" ry="2.75" width="14" x="8" y="46"/><rect height="11" opacity=".1" rx="2.8" ry="2.75" width="14" x="42" y="46"/><path d="m32 50a7 7 0 0 0 -6.775782 5.299218c.426086 1.000762 1.415902 1.700782 2.575782 1.700782h8.4c1.15988 0 2.149696-.70002 2.575782-1.700782a7 7 0 0 0 -6.775782-5.299218z" opacity=".2"/><path d="m32 54a3 3 0 0 0 -3 3h6a3 3 0 0 0 -3-3z" opacity=".2"/><path d="m15 16.75v19.125c0 1.17725.94775 2.125 2.125 2.125h29.75c1.17725 0 2.125-.94775 2.125-2.125v-19.125z"/></g><path d="m17.125 12h29.75c1.17725 0 2.125.94775 2.125 2.125v2.875h-34v-2.875c0-1.17725.94775-2.125 2.125-2.125z" fill="#4f4f4f"/><g fill="#fff"><path d="m6.8007812 7c-1.5511999 0-2.8007812 1.2495812-2.8007812 2.8007812v.9999998c0-1.5511998 1.2495813-2.800781 2.8007812-2.800781h50.3984378c1.5512 0 2.800781 1.2495812 2.800781 2.800781v-.9999998c0-1.5512-1.249581-2.8007812-2.800781-2.8007812z" opacity=".2"/><path d="m32 50a7 7 0 0 0 -6.775391 5.298828c.055495.130343.121562.255743.195313.375a7 7 0 0 1 6.580078-4.673828 7 7 0 0 1 6.583984 4.667969c.072219-.117445.136848-.240996.191407-.369141a7 7 0 0 0 -6.775391-5.298828z" opacity=".2"/><path d="m32 54a3 3 0 0 0 -3 3h .173828a3 3 0 0 1 2.826172-2 3 3 0 0 1 2.824219 2h .175781a3 3 0 0 0 -3-3z" opacity=".2"/></g></svg>