<svg height="64" viewBox="0 0 64 64" width="64" xmlns="http://www.w3.org/2000/svg"><g opacity=".2" transform="matrix(2.063158 0 0 2.0533334 -1.010525 -1.146669)"><path d="m29.571426 5.4285716v14.2965204c-3.295918 1.257835-8.905442 4.642318-10.663264 7.132051l-2.908162-6.211369 4.284693-6.483682s.348979-1.098395-1.376531-1.915338c2.849524-2.8114601 6.998093-5.2194744 10.663264-6.8181824z"/><path d="m2.4285714 5.4285716v14.2965204c3.2959186 1.257835 8.9054416 4.642318 10.6632646 7.132051l2.908162-6.211369-4.284693-6.483682s-.348979-1.098395 1.376531-1.915338c-2.849524-2.8114601-6.9980939-5.2194744-10.6632646-6.8181824z"/></g><path d="m45.999998 20.974756a14 14.016286 0 0 0 -20.121818-12.5636898 14.101818 14.118223 0 0 1 1.603634-.101938 13.923636 13.939834 0 0 1 6.45273 1.5927592 14 14.016286 0 1 0 12.065454 13.8761246c0-.471456 0-.942914-.07638-1.414368-.07636-.471458.07638-.917434.07638-1.388888z" fill="#502e02"/><path d="m31.548828 7.0078125a14 14.016286 0 0 0 -5.669922 1.4023437 14.101818 14.118223 0 0 1 1.603516-.1015624 13.923636 13.939834 0 0 1 1.308594.0664062 14 14.016286 0 0 1 17.175781 12.957031c.013692-.118644.033203-.236277.033203-.357422a14 14.016286 0 0 0 -14.451172-13.9667965zm-.478516 2.7929687a14 14.016286 0 0 0 -13.046874 14.4492188 14 14.016286 0 0 1 15.910156-13.347656 13.923636 13.939834 0 0 0 -2.863282-1.1015628zm14.873047 12.7695308c-.03475.262373-.063182.523462-.019531.792969.041882.258514.057862.516876.066406.775391a14 14.016286 0 0 0  .009766-.361328c0-.402428-.009138-.804604-.056641-1.207032z" fill="#fff" opacity=".1"/><circle cx="32" cy="29" fill="#d9af4f" r="10"/><g transform="matrix(2.063158 0 0 2.0533334 -1.010525 -2.146669)"><path d="m29.571426 5.4285716v14.2965204c-3.295918 1.257835-8.905442 4.642318-10.663264 7.132051l-2.908162-6.211369 4.284693-6.483682s.348979-1.098395-1.376531-1.915338c2.849524-2.8114601 6.998093-5.2194744 10.663264-6.8181824z" fill="#385ca9"/><path d="m2.4285714 5.4285716v14.2965204c3.2959186 1.257835 8.9054416 4.642318 10.6632646 7.132051l2.908162-6.211369-4.284693-6.483682s-.348979-1.098395 1.376531-1.915338c-2.849524-2.8114601-6.9980939-5.2194744-10.6632646-6.8181824z" fill="#385ca9"/></g><path d="m32 30.857144c-6.938862 0-10-4.285716-10-4.285716l3.753738 28.068164s.936296 3.360408 6.002566 3.360408 6.002566-3.347578 6.002566-3.347578l4.24113-28.080994s-3.061136 4.285716-10 4.285716z" opacity=".2"/><path d="m32 29.857144c-6.938862 0-10-4.285716-10-4.285716l3.753738 28.068164s.936296 3.360408 6.002566 3.360408 6.002566-3.347578 6.002566-3.347578l4.24113-28.080994s-3.061136 4.285716-10 4.285716z" fill="#2a457e"/><path d="m14.425781 10c-2.346748-.101071-4.367532-.309584-6.8068253 1.664738 6.2598743 3.025144 11.5984103 7.355604 16.5958883 12.198544-1.383168.857704-2.214844 1.949144-2.214844 3.136718 0 2.761424 4.477152 5 10 5s10-2.238576 10-5c0-1.182272-.838888-2.261242-2.210938-3.117188 4.943178-4.77856 10.076718-9.047846 16.253394-12.05266-2.344262-1.923366-4.139414-1.836229-6.401832-1.830152-6.859478.01842-13.125274 7.055941-17.472656 14.792968l-.1836.320314-.125.230468-.332032-.589844c-4.259036-7.596198-10.380784-14.464454-17.101555-14.753906z" opacity=".2"/><path d="m14.425781 9c-2.346748-.1010706-4.367532-.3095844-6.8068253 1.664738 6.2598743 3.025144 11.5984103 7.355604 16.5958883 12.198544-1.383168.857704-2.214844 1.949144-2.214844 3.136718 0 2.761424 4.477152 5 10 5s10-2.238576 10-5c0-1.182272-.838888-2.261242-2.210938-3.117188 4.943178-4.778561 10.076718-9.047846 16.253394-12.05266-2.344262-1.9233664-4.139414-1.8362292-6.401832-1.830152-6.859478.01842-13.125274 7.055941-17.472656 14.792968l-.1836.320314-.125.230468-.332032-.589844c-4.259036-7.596198-10.380784-14.4644542-17.101555-14.753906z" fill="#e4e4e4"/><path d="m1.9999999 25.939698c0 6.219866 2.3834738 8.060302 3.972458 8.060302 3.9724592 0 6.3691761-4.903348-.7944912-5.25263 6.3029683-.537352 6.5545563-5.198892 0-5.373534 6.5545563-.49705 5.2966123-5.373532.7944912-5.373532-1.8273308-.02687-3.972458 1.71953-3.972458 7.939394z" opacity=".2"/><path d="m1.9999999 24.939698c0 6.219866 2.3834738 8.060302 3.972458 8.060302 3.9724592 0 6.3691761-4.903348-.7944912-5.25263 6.3029683-.537352 6.5545563-5.198892 0-5.373534 6.5545563-.49705 5.2966123-5.373532.7944912-5.373532-1.8273308-.02687-3.972458 1.71953-3.972458 7.939394z" fill="#d9af4f"/><path d="m62 25.939698c0 6.219866-2.383474 8.060302-3.972458 8.060302-3.97246 0-6.369176-4.903348.794492-5.25263-6.30297-.537352-6.554558-5.198892 0-5.373534-6.554558-.49705-5.296614-5.373532-.794492-5.373532 1.82733-.026867 3.972458 1.71953 3.972458 7.939394z" opacity=".2"/><path d="m62 24.939698c0 6.219866-2.383474 8.060302-3.972458 8.060302-3.97246 0-6.369176-4.903348.794492-5.25263-6.30297-.537352-6.554558-5.198892 0-5.373534-6.554558-.49705-5.296614-5.373532-.794492-5.373532 1.82733-.026867 3.972458 1.71953 3.972458 7.939394z" fill="#d9af4f"/><path d="m5.9726562 17c-1.8273308-.02687-3.9726562 1.719589-3.9726562 7.939453 0 .168159.0082972.320615.0117188.482422.1190202-5.788931 2.1867032-7.447964 3.9609374-7.421875 1.9951743 0 3.3485733.958523 3.671875 2.068359.4165388-1.462633-1.088236-3.068359-3.671875-3.068359zm1.8535157 5.789062c-.6821335.28731-1.5460816.50039-2.6484375.583985 2.8158752.075027 4.3670486.980816 4.7304687 2.029297.3512049-1.000027-.3379504-2.049003-2.0820312-2.613282zm-.0742188 5.398438c-.7016461.268443-1.5493284.473171-2.5742187.560547 2.8680875.13984 4.1863664 1.011034 4.5019531 2.003906.2902081-.965035-.2085303-1.989756-1.9277344-2.564453z" fill="#fff" opacity=".2"/><path d="m58.027344 17c-2.58364 0-4.088414 1.605726-3.671875 3.068359.323302-1.109836 1.6767-2.068359 3.671875-2.068359 1.774233-.026086 3.841917 1.632944 3.960937 7.421875.003422-.161807.011719-.314263.011719-.482422 0-6.219864-2.145326-7.96632-3.972656-7.939453zm-1.853516 5.789062c-1.744081.564279-2.433236 1.613255-2.082031 2.613282.36342-1.048481 1.914593-1.95427 4.730469-2.029297-1.102357-.083595-1.966304-.296675-2.648438-.583985zm.074219 5.398438c-1.719204.574697-2.217942 1.599418-1.927735 2.564453.315587-.992872 1.633866-1.864066 4.501954-2.003906-1.024891-.087376-1.872573-.292104-2.574219-.560547z" fill="#fff" opacity=".2"/></svg>