<svg height="64" width="64" xmlns="http://www.w3.org/2000/svg"><path d="m9.6674688 4.9999981a5.6683524 6.3464722 0 0 0 -5.2617206 8.7044129l15.4719168 43.306762a5.6683524 6.3464722 0 0 0 5.019849 3.983114 5.6683524 6.3464722 0 0 0 4.135624-1.730118l19.972334-21.14588a5.6683524 6.3464722 0 0 0 1.245048-1.93004l9.218916-22.160883a5.6683524 6.3464722 0 0 0 -5.138802-9.0273679z" fill-rule="evenodd" opacity=".2"/><path d="m9.6674688 3.9999998a5.6683524 6.3464722 0 0 0 -5.2617206 8.7044132l15.4719168 43.306761a5.6683524 6.3464722 0 0 0 5.019849 3.983114 5.6683524 6.3464722 0 0 0 4.135624-1.730118l19.972334-21.14588a5.6683524 6.3464722 0 0 0 1.245048-1.93004l9.218916-22.160882a5.6683524 6.3464722 0 0 0 -5.138802-9.0273682z" fill="#4f4f4f" fill-rule="evenodd"/><path d="m10 10.999998c.648597 2.209333 13.473912 39.211701 15.242188 44.000001l5.757812-6.198999v-37.801002zm26.699218 0c-.09074.911589-.543854 7.769107-1.058594 16.031251-.547902 8.794866-1.0428 16.531788-1.101562 17.191406-.0253.283434-.03996.499852-.04296.671876l3.628898-3.960938c1.111248-4.710994 5.941708-27.427699 6.355468-29.933595zm9.933594 0c-.56624 2.142561-6.085788 24.839013-6.835936 28.105469l2.027342-2.210936c1.542556-4.50406 7.608564-23.530312 8.246094-25.894533zm5.191406 0c-.716628 1.774736-7.475622 21.464105-8.230468 23.964845l1.324218-1.44922c2.077312-4.815768 8.544716-20.801908 9.082032-22.515625z" opacity=".2"/><path d="m10 10c .648597 2.209332 13.473912 39.2117 15.242188 44l5.757812-6.199v-37.801zm26.699218 0c-.09074.911589-.543854 7.769106-1.058594 16.03125-.547902 8.794866-1.0428 16.531788-1.101562 17.191406-.0253.283434-.03996.499852-.04296.671876l3.628898-3.960938c1.111248-4.710994 5.941708-27.427699 6.355468-29.933594zm9.933594 0c-.56624 2.142561-6.085788 24.839012-6.835936 28.105468l2.027342-2.210936c1.542556-4.50406 7.608564-23.530311 8.246094-25.894532zm5.191406 0c-.716628 1.774736-7.475622 21.464104-8.230468 23.964844l1.324218-1.44922c2.077312-4.815768 8.544716-20.801908 9.082032-22.515624z" fill="#feab07"/><path d="m9.6679688 4a5.6683524 6.3464722 0 0 0 -5.640625 6.822266 5.6683524 6.3464722 0 0 1 5.640625-5.822266h44.6640622a5.6683524 6.3464722 0 0 1 5.642578 5.859375 5.6683524 6.3464722 0 0 0 -5.642578-6.859375z" fill="#fff" fill-rule="evenodd" opacity=".1"/><path d="m10 10c .015415.052514.185174.545014.341797 1h19.658203v-1zm26.699219 0c-.09074.911589-.543854 7.769106-1.058594 16.03125-.547902 8.794866-1.0428 16.531788-1.101563 17.191406-.0253.283434-.039968.499851-.042968.671875l.068359-.074219c.077118-.96446.541092-8.200016 1.076172-16.789062.51474-8.262144.967854-15.119661 1.058594-16.03125h7.574219c.091034-.432106.192399-.911382.207031-1zm9.933593 0c-.56624 2.142561-6.085789 24.839013-6.835937 28.105469l.326172-.357422c1.120856-4.766027 5.970073-24.705937 6.509765-26.748047h3.125c.134612-.425242.286247-.902641.3125-1zm5.191407 0c-.716628 1.774736-7.475623 21.464104-8.230469 23.964844l.517578-.56836c1.553727-4.754302 7.058022-20.774695 7.712891-22.396484h1.783203c.169687-.425634.365964-.915116.392578-1z" fill="#fff" opacity=".2"/></svg>