<svg height="64" width="64" xmlns="http://www.w3.org/2000/svg"><path d="m29.601562 5c-3.1024 0-5.601562 2.4991626-5.601562 5.601562v16.796876c0 .36635.03894.723944.10546 1.070312a9.4811476 7.7379792 0 0 0 -.316406.398438l-7.257812 10.265624-7.2617188 10.26172a9.4811476 7.7379792 0 0 0 8.2109458 11.605468h14.519531 14.519532a9.4811476 7.7379792 0 0 0 8.210936-11.605468l-7.261718-10.26172-7.257812-10.265624a9.4811476 7.7379792 0 0 0 -.316406-.398438c.066538-.346368.105468-.703962.105468-1.070312v-16.796876c0-3.1023994-2.499162-5.601562-5.601562-5.601562z" opacity=".2"/><rect fill="#e4e4e4" height="28" ry="5.6" width="16" x="24" y="4"/><path d="m32.446272 24.008538a9.4811476 7.7379792 0 0 0 -8.65563 3.85964l-7.260815 10.263296-7.2608194 10.26329a9.4811476 7.7379792 0 0 0 8.2110554 11.605236h14.519935 14.51994a9.4811476 7.7379792 0 0 0 8.211056-11.605236l-7.26082-10.26329-7.259122-10.263294a9.4811476 7.7379792 0 0 0 -7.76478-3.859642z" fill="#e4e4e4"/><g fill="#b343ff"><path d="m33 12a3 3 0 0 0 -3 3 3 3 0 0 0 3 3 3 3 0 0 0 3-3 3 3 0 0 0 -3-3z"/><path d="m29 20a3 3 0 0 0 -3 3 3 3 0 0 0 3 3 3 3 0 0 0 3-3 3 3 0 0 0 -3-3z"/><path d="m35 26a3 3 0 0 0 -3 3 3 3 0 0 0 3 3 3 3 0 0 0 3-3 3 3 0 0 0 -3-3z"/><path d="m29 34a3 3 0 0 0 -3 3 3 3 0 0 0 3 3 3 3 0 0 0 3-3 3 3 0 0 0 -3-3z"/><path d="m21.38677 44.000742-2.638399 3.978516c-2.126796 3.209832.532678 6.02075 4.787381 6.020742h8.464246 8.46425c4.254702.000006 6.914176-2.81091 4.78738-6.020742l-2.6384-3.978516z"/></g><path d="m29.601562 4c-3.1024 0-5.601562 2.4991631-5.601562 5.6015625v.9999995c0-3.1023989 2.499162-5.601562 5.601562-5.601562h4.796876c3.1024 0 5.601562 2.4991631 5.601562 5.601562v-.9999995c0-3.1023994-2.499162-5.6015625-5.601562-5.6015625zm-5.591796 23.589844a9.4811476 7.7379792 0 0 0 -.220704.277344l-7.257812 10.265624-7.2617188 10.261719a9.4811476 7.7379792 0 0 0 -1.2421874 4.431641 9.4811476 7.7379792 0 0 1 1.2421874-3.431641l7.2617188-10.261719 7.257812-10.265624a9.4811476 7.7379792 0 0 1  .316407-.398438c-.054795-.285315-.084686-.579737-.095703-.878906zm15.980468 0c-.011015.299169-.040893.593591-.095703.878906a9.4811476 7.7379792 0 0 1  .316407.398438l7.257812 10.265624 7.261719 10.261719a9.4811476 7.7379792 0 0 1 1.24414 3.425781 9.4811476 7.7379792 0 0 0 -1.24414-4.425781l-7.261719-10.261719-7.257812-10.265624a9.4811476 7.7379792 0 0 0 -.220704-.277344z" fill="#fff" opacity=".2"/></svg>