<svg height="64" width="64" xmlns="http://www.w3.org/2000/svg"><path d="m4.0508 32c-.0118.334-.0508.662-.0508 1 0 15.512 12.488 28 28 28s28-12.488 28-28c0-.33768-.03904-.66528-.05078-1-.528 15.042-12.776 27-27.95 27-15.1744 0-27.422-11.958-27.95-27z" opacity=".2"/><rect fill="#c2352a" height="56" rx="28" transform="matrix(0 -1 -1 0 0 0)" width="56" x="-60" y="-60"/><path d="m32 4c-15.512 0-28 12.488-28 28 0 .113556.0112845.224032.0175781.335938.3515432-15.201757 12.6931499-27.335938 27.9824219-27.335938h.001953c15.289273 0 27.630879 12.134181 27.982422 27.335938.006271-.111825.017578-.22249.017578-.335938 0-15.512-12.488-28-28-28z" fill="#fff" opacity=".1"/><path d="m24.10743 42.905407c-.640244-.088-1.77914-.464-2.538816-.8354-4.949585-2.4088-6.973745-8.4756-4.535889-13.5858 2.785064-5.843 10.384279-7.3324 14.957105-2.9314 1.322352 1.2706 1.909652 2.3548 3.900568 7.1624 2.078332 5.0276 2.46248 5.818 3.135968 6.4882.721506.713 1.39007.953 2.669328.953 2.101726 0 3.602608-1.3194 3.602608-3.1604 0-1.5582-.539284-2.0572-3.289874-3.049-4.188678-1.5346-5.545504-2.9214-5.55043-5.7066 0-1.4858.370604-2.4764 1.312502-3.503 1.351902-1.4658 3.68387-1.9498 5.747428-1.222.880338.3178 2.722272 1.9736 2.722272 2.4476 0 .23-1.067484.933-1.659712 1.0992-.312734.082-.582376-.024-.943128-.3764-.731358-.7128-1.226316-.933-2.101728-.933-1.510732 0-2.447704.923-2.447704 2.4138 0 1.4858.59592 1.9884 3.573058 3.009 4.102492 1.407 5.314032 2.6776 5.338656 5.6178.02462 2.5402-1.10196 4.3724-3.342816 5.4566-1.019466.489-1.365446.5516-3.030082.5516-2.376292 0-3.443778-.449-4.77598-1.9736-.89511-1.0254-1.803766-2.9502-4.713186-9.9764-1.206614-2.9114-2.755514-4.3384-5.338656-4.9-1.308808-.2838-3.131044-.02-4.31919.6154-1.158598.6154-2.45263 2.0036-3.063327 3.273-.504808 1.0304-.552826 1.3194-.552826 3.1116 0 1.7096.06772 2.1148.490034 3.0528.640244 1.432 1.899803 2.755 3.284949 3.468 1.000998.5128 1.312502.5766 2.90942.5766 1.534124 0 1.928122-.074 2.842932-.5178 1.044092-.5178 2.447706-1.7884 3.020232-2.7402l.29796-.494.587302 1.3632c.32751.7528.590996 1.4608.590996 1.5882 0 .3766-1.327278 1.6072-2.543742 2.3738-1.84686 1.1582-3.968286 1.592-6.233768 1.2794m-.005 0" opacity=".2"/><path d="m24.10743 41.90539c-.640244-.088-1.77914-.464-2.538816-.8354-4.949585-2.4088-6.973745-8.4756-4.535889-13.5858 2.785064-5.843 10.384279-7.3324 14.957105-2.9314 1.322352 1.2706 1.909652 2.3548 3.900568 7.1624 2.078332 5.0276 2.46248 5.818 3.135968 6.4882.721506.713 1.39007.953 2.669328.953 2.101726 0 3.602608-1.3194 3.602608-3.1604 0-1.5582-.539284-2.0572-3.289874-3.049-4.188678-1.5346-5.545504-2.9214-5.55043-5.7066 0-1.4858.370604-2.4764 1.312502-3.503 1.351902-1.4658 3.68387-1.9498 5.747428-1.222.880338.3178 2.722272 1.9736 2.722272 2.4476 0 .23-1.067484.933-1.659712 1.0992-.312734.082-.582376-.024-.943128-.3764-.731358-.7128-1.226316-.933-2.101728-.933-1.510732 0-2.447704.923-2.447704 2.4138 0 1.4858.59592 1.9884 3.573058 3.009 4.102492 1.407 5.314032 2.6776 5.338656 5.6178.02462 2.5402-1.10196 4.3724-3.342816 5.4566-1.019466.489-1.365446.5516-3.030082.5516-2.376292 0-3.443778-.449-4.77598-1.9736-.89511-1.0254-1.803766-2.9502-4.713186-9.9764-1.206614-2.9114-2.755514-4.3384-5.338656-4.9-1.308808-.2838-3.131044-.02-4.31919.6154-1.158598.6154-2.45263 2.0036-3.063327 3.273-.504808 1.0304-.552826 1.3194-.552826 3.1116 0 1.7096.06772 2.1148.490034 3.0528.640244 1.432 1.899803 2.755 3.284949 3.468 1.000998.5128 1.312502.5766 2.90942.5766 1.534124 0 1.928122-.074 2.842932-.5178 1.044092-.5178 2.447706-1.7884 3.020232-2.7402l.29796-.494.587302 1.3632c.32751.7528.590996 1.4608.590996 1.5882 0 .3766-1.327278 1.6072-2.543742 2.3738-1.84686 1.1582-3.968286 1.592-6.233768 1.2794m-.005 0" fill="#fff"/></svg>