<svg height="64" width="64" xmlns="http://www.w3.org/2000/svg"><rect height="58" opacity=".2" rx="2.9" transform="matrix(0 -1 -1 0 0 0)" width="58" x="-62" y="-61"/><rect fill="#fadd00" height="58" rx="2.9" transform="matrix(0 -1 -1 0 0 0)" width="58" x="-61" y="-61"/><path d="m7 8v4h4v-4zm6 0v4h4v-4zm6 0v4h4v-4zm6 0v4h4v-4zm6 0v4h4v-4zm6 0v4h4v-4zm10 0v4h4v-4zm6 0v4h4v-4zm-46 6v4h4v-4zm6 0v4h4v-4zm6 0v4h4v-4zm6 0v4h4v-4zm6 0v4h4v-4zm6 0v4h4v-4zm10 0v4h4v-4zm6 0v4h4v-4zm-6 6v4h4v-4zm6 0v4h4v-4zm-46 4v4h4v-4zm6 0v4h4v-4zm34 2v4h4v-4zm6 0v4h4v-4zm-46 4v4h4v-4zm6 0v4h4v-4zm34 2v4h4v-4zm6 0v4h4v-4zm-46 4v4h4v-4zm6 0v4h4v-4zm34 2v4h4v-4zm6 0v4h4v-4zm-46 4v4h4v-4zm6 0v4h4v-4zm-6 6v4h4v-4zm6 0v4h4v-4zm10 0v4h4v-4zm6 0v4h4v-4zm6 0v4h4v-4zm6 0v4h4v-4zm6 0v4h4v-4zm6 0v4h4v-4zm-46 6v4h4v-4zm6 0v4h4v-4zm10 0v4h4v-4zm6 0v4h4v-4zm6 0v4h4v-4zm6 0v4h4v-4zm6 0v4h4v-4zm6 0v4h4v-4z" opacity=".1"/><path d="m7 7v4h4v-4zm6 0v4h4v-4zm6 0v4h4v-4zm6 0v4h4v-4zm6 0v4h4v-4zm6 0v4h4v-4zm10 0v4h4v-4zm6 0v4h4v-4zm-46 6v4h4v-4zm6 0v4h4v-4zm6 0v4h4v-4zm6 0v4h4v-4zm6 0v4h4v-4zm6 0v4h4v-4zm10 0v4h4v-4zm6 0v4h4v-4zm-6 6v4h4v-4zm6 0v4h4v-4zm-46 4v4h4v-4zm6 0v4h4v-4zm34 2v4h4v-4zm6 0v4h4v-4zm-46 4v4h4v-4zm6 0v4h4v-4zm34 2v4h4v-4zm6 0v4h4v-4zm-46 4v4h4v-4zm6 0v4h4v-4zm34 2v4h4v-4zm6 0v4h4v-4zm-46 4v4h4v-4zm6 0v4h4v-4zm-6 6v4h4v-4zm6 0v4h4v-4zm10 0v4h4v-4zm6 0v4h4v-4zm6 0v4h4v-4zm6 0v4h4v-4zm6 0v4h4v-4zm6 0v4h4v-4zm-46 6v4h4v-4zm6 0v4h4v-4zm10 0v4h4v-4zm6 0v4h4v-4zm6 0v4h4v-4zm6 0v4h4v-4zm6 0v4h4v-4zm6 0v4h4v-4z" fill="#234fa7"/><path d="m5.8984375 3c-1.6066002 0-2.8984375 1.2918373-2.8984375 2.8984375v1c0-1.6066002 1.2918373-2.8984375 2.8984375-2.8984375h52.2031245c1.606601 0 2.898438 1.2918373 2.898438 2.8984375v-1c0-1.6066002-1.291837-2.8984375-2.898438-2.8984375z" fill="#fff" opacity=".2"/></svg>