<svg height="64" viewBox="0 0 64 64" width="64" xmlns="http://www.w3.org/2000/svg"><path d="m4.0000004 56.200069v1.999971c0 1.549978 1.2495821 2.79996 2.80076 2.79996h50.3992796c1.549977 0 2.79996-1.249982 2.79996-2.79996v-1.999971c0 1.549977-1.249983 2.79996-2.79996 2.79996h-50.3992796c-1.5503779 0-2.79996-1.249983-2.79996-2.79996z" opacity=".2"/><rect fill="#e11966" height="55.999" rx="2.8" transform="matrix(0 -1 -1 0 0 0)" width="55.999" x="-60" y="-60"/><g opacity=".2" stroke-width="1.999971"><path d="m13.9998578 13.0006864h5.9999142v27.9995996h-5.9999142z"/><path d="m23.9997148 21.000572h5.9999142v33.9995138h-5.9999142z"/><path d="m33.9995718 21.000572h5.9999142v33.9995138h-5.9999142z"/><path d="m43.9994288 21.000572h5.9999142v19.999714h-5.9999142z"/></g><g fill="#fff" stroke-width="1.999971"><path d="m13.9998578 12.0007154h5.9999142v27.9995996h-5.9999142z"/><path d="m23.9997148 20.000601h5.9999142v33.9995138h-5.9999142z"/><path d="m33.9995718 20.000601h5.9999142v33.9995138h-5.9999142z"/><path d="m43.9994288 20.000601h5.9999142v19.999714h-5.9999142z"/></g><path d="m6.8007812 4c-1.5511778 0-2.8007812 1.2496034-2.8007812 2.8007812v1.0019532c0-1.5511778 1.2496034-2.8007813 2.8007812-2.8007813h50.3984378c1.549977 0 2.800781 1.2496035 2.800781 2.8007813v-1.0019532c0-1.5511777-1.250804-2.8007812-2.800781-2.8007812z" fill="#fff" opacity=".2"/></svg>