<svg height="64" viewBox="0 0 64 64" width="64" xmlns="http://www.w3.org/2000/svg"><circle cx="32" cy="33" opacity=".2" r="28"/><circle cx="32" cy="32" fill="#2e6cb9" r="28"/><path d="m44 19c0 14-8.2 26-18 26m-4-26v30" fill="none" opacity=".2" stroke="#000" stroke-width="8"/><path d="m44 18c0 14-8.2 26-18 26m-4-26v30" fill="none" stroke="#fff" stroke-width="8"/><path d="m32 4a28 28 0 0 0 -28 28 28 28 0 0 0  .0175781.492188 28 28 0 0 1 27.9824219-27.492188 28 28 0 0 1 27.974609 27.492188 28 28 0 0 0  .025391-.492188 28 28 0 0 0 -28-28z" fill="#fff" opacity=".1"/></svg>