<svg height="64" width="64" xmlns="http://www.w3.org/2000/svg"><path d="m10 56v2c0 1.662 1.338 3 3 3h38c1.662 0 3-1.338 3-3v-2c0 1.662-1.338 3-3 3h-38c-1.662 0-3-1.338-3-3z" opacity=".2"/><path d="m54 57v-50c0-1.662-1.338-3-3-3h-38c-1.662 0-3 1.338-3 3v50c0 1.662 1.338 3 3 3h38c1.662 0 3-1.338 3-3z" fill="#636e73"/><path d="m14 9v48h36v-31.172l-16.828-16.828zm24.828 0 11.172 11.172v-11.172z" opacity=".1"/><path d="m14 8v48h36v-31.172l-16.828-16.828zm24.828 0 11.172 11.1718v-11.1718z" fill="#f5f5f5"/><path d="m13 4c-1.662 0-3 1.338-3 3v1c0-1.662 1.338-3 3-3h38c1.662 0 3 1.338 3 3v-1c0-1.662-1.338-3-3-3z" fill="#fff" opacity=".1"/><path d="m26.062 30h20.812v2h-19.1876l-3.81 18.188-.626 2.812-1.25-2.562-4-8 1.75-.875 2.6876 5.4374 3.4376-16.1874zm4.8124 4h2l4 6.375 4-6.375h2l-5 8 5 8h-2l-4-6.375-4 6.375h-2l5-8z" opacity=".5"/></svg>