<svg height="64" width="64" xmlns="http://www.w3.org/2000/svg"><rect height="56" opacity=".2" rx="2.8" transform="matrix(0 -1 -1 0 0 0)" width="56" x="-61" y="-60"/><rect fill="#e4e4e4" height="56" rx="2.8" transform="matrix(0 -1 -1 0 0 0)" width="55" x="-60" y="-60"/><path d="m4 18v1h56v-1z" opacity=".2"/><path d="m6.8008 4c-1.5512 0-2.8008 1.25-2.8008 2.8v11.2h56v-11.2c0-1.55-1.25-2.8-2.8-2.8z" fill="#086cd6"/><path d="m12 26v3h40v-3zm0 7v3h32v-3zm0 7v3h36v-3zm0 7v3h28v-3z" opacity=".2"/><path d="m6.8008 4c-1.5512 0-2.8008 1.2508-2.8008 2.8008v1c0-1.55 1.2496-2.8008 2.8008-2.8008h50.3982c1.55 0 2.801 1.2508 2.801 2.8008v-1c0-1.55-1.251-2.8008-2.801-2.8008z" fill="#fff" opacity=".2"/></svg>