<svg height="64" width="64" xmlns="http://www.w3.org/2000/svg"><rect height="56" opacity=".2" rx="2.75" ry="2.8" transform="scale(-1 1)" width="44" x="-54" y="5"/><rect fill="#e4e4e4" height="56" rx="2.75" ry="2.8" transform="scale(-1 1)" width="44" x="-54" y="4"/><circle cx="-38" cy="32" fill="#3f3f3f" r="18" transform="rotate(-90)"/><circle cx="-39" cy="-32" opacity=".2" r="14" transform="matrix(0 -1 -1 0 0 0)"/><circle cx="-38" cy="-32" fill="#fec006" r="14" transform="matrix(0 -1 -1 0 0 0)"/><g fill="#3f3f3f"><circle cx="-38" cy="-32" r="6" transform="matrix(0 -1 -1 0 0 0)"/><circle cx="13" cy="-18" r="3" transform="rotate(90)"/><circle cx="13" cy="-46" r="3" transform="rotate(90)"/></g><path d="m12.75 4c-1.5235 0-2.75 1.2495812-2.75 2.8007812v1c0-1.5511999 1.2265-2.8007812 2.75-2.8007812h38.5c1.5235 0 2.75 1.2495812 2.75 2.8007812v-1c0-1.5511999-1.2265-2.8007812-2.75-2.8007812z" fill="#fff" opacity=".1"/></svg>