<svg height="64" width="64" xmlns="http://www.w3.org/2000/svg"><path d="m9 55.20008v1.999967c0 1.549974 1.249579 2.799953 2.800753 2.799953h38.399361c1.549974 0 2.799953-1.249979 2.799953-2.799953v-1.999967c0 1.549974-1.249979 2.799953-2.799953 2.799953h-38.399361c-1.551174 0-2.800753-1.249979-2.800753-2.799953z" opacity=".2"/><path d="m11.799953 3.0004829c-1.551174 0-2.799953 1.2487792-2.799953 2.7999533v50.3991608c0 1.551974 1.248779 2.799953 2.799953 2.799953h5.569908l4.19993-27.999533-4.19993-27.9995341z" fill="#4f4f4f"/><path d="m38.42751 9.000383h17.142515c.791986 0 1.429976.59459 1.429976 1.333378v13.333178c0 .739987-.63799 1.333978-1.427976 1.333978h-17.142515c-.791987 0-1.429976-.593991-1.429976-1.333978v-13.332378c0-.738788.637989-1.3333781 1.427976-1.3333781z" fill="#4bae4f"/><path d="m38.42751 23.00015h17.142515c.791986 0 1.429976.59399 1.429976 1.333978v13.333178c0 .737987-.63799 1.331977-1.427976 1.331977h-17.142515c-.791987 0-1.429976-.59399-1.429976-1.333977v-13.333178c0-.737988.637989-1.331978 1.427976-1.331978z" fill="#2095f2"/><path d="m38.42751 36.999917h17.142515c.791986 0 1.429976.59399 1.429976 1.333978v13.333178c0 .737987-.63799 1.331977-1.427976 1.331977h-17.142515c-.791987 0-1.429976-.59399-1.429976-1.333977v-13.333178c0-.737988.637989-1.331978 1.427976-1.331978z" fill="#fec006"/><g opacity=".2" transform="matrix(1.00000001 0 0 1.00000001 0 -1.000031)"><path d="m38.429688 9c-.791987 0-1.429688.5934435-1.429688 1.332031v1c0-.738587.637701-1.332031 1.429688-1.332031h17.138671c.791987 0 1.431641.593444 1.431641 1.332031v-1c0-.7385875-.639654-1.332031-1.431641-1.332031z"/><path d="m38.429688 23c-.791987 0-1.429688.594044-1.429688 1.332031v1c0-.737987.637701-1.332031 1.429688-1.332031h17.140624c.791407 0 1.429688.593384 1.429688 1.332031v-1c0-.738647-.638281-1.332031-1.429688-1.332031z"/><path d="m38.429688 37c-.791987 0-1.429688.594044-1.429688 1.332031v1c0-.737987.637701-1.332031 1.429688-1.332031h17.140624c.791407 0 1.429688.593384 1.429688 1.332031v-1c0-.738647-.638281-1.332031-1.429688-1.332031z"/></g><g fill="#fff" opacity=".2" transform="scale(1.00000001)"><path d="m38.429688 9c-.791987 0-1.429688.5934435-1.429688 1.332031v1c0-.738587.637701-1.332031 1.429688-1.332031h17.138671c.791987 0 1.431641.593444 1.431641 1.332031v-1c0-.7385875-.639654-1.332031-1.431641-1.332031z"/><path d="m38.429688 23c-.791987 0-1.429688.594044-1.429688 1.332031v1c0-.737987.637701-1.332031 1.429688-1.332031h17.140624c.791407 0 1.429688.593384 1.429688 1.332031v-1c0-.738647-.638281-1.332031-1.429688-1.332031z"/><path d="m38.429688 37c-.791987 0-1.429688.594044-1.429688 1.332031v1c0-.737987.637701-1.332031 1.429688-1.332031h17.140624c.791407 0 1.429688.593384 1.429688 1.332031v-1c0-.738647-.638281-1.332031-1.429688-1.332031z"/></g><path d="m16.999867 3.0004829v55.9990671h33.199447c1.551974 0 2.799953-1.247979 2.799953-2.799953v-50.3991608c0-1.5511741-1.247979-2.7999533-2.799953-2.7999533h-18.62969z" fill="#f34235"/><path d="m25 20.003906v23.996094h7.111328c12.443793 0 12.888672-7.554121 12.888672-11.998047s-.446879-12.217443-12.888672-11.998047zm6 4.996094h1.111328c5.333311 0 6.888672 1.399999 6.888672 7 0 5.6-1.555501 7-6.888672 7h-1.111328z" opacity=".2"/><path d="m25 19.003906v23.996094h7.111328c12.443793 0 12.888672-7.554121 12.888672-11.998047s-.446879-12.217443-12.888672-11.998047zm6 4.996094h1.111328c5.333311 0 6.888672 1.399999 6.888672 7 0 5.6-1.555501 7-6.888672 7h-1.111328z" fill="#f9f9f9"/><path d="m11.800781 3c-1.551174 0-2.800781 1.249607-2.800781 2.8007812v1c0-1.5511742 1.249607-2.8007812 2.800781-2.8007812h38.398438c1.549974 0 2.800781 1.249607 2.800781 2.8007812v-1c0-1.5511742-1.250807-2.8007812-2.800781-2.8007812z" fill="#fff" opacity=".2"/></svg>