<svg height="64" width="64" xmlns="http://www.w3.org/2000/svg"><path d="m32 7.0003846c-14.444293 0-25.9998076 11.5555144-25.9998076 25.9998074s11.5555146 25.999808 25.9998076 25.999808c2.311183 0 4-2.022185 4-4.333368 0-1.155552.04449-2.022185-.822184-2.888779-.577775-.866653-1.155551-1.733327-1.155551-2.888778 0-2.311183 2.022385-3.88909 4.333368-3.88909h5.199961c8.087941 0 14.443894-6.800231 14.443894-14.888171 0-12.711906-11.555915-23.1118294-25.999808-23.1118294z" opacity=".2"/><path d="m32 6.0003996c-14.444293 0-25.9998076 11.5555144-25.9998076 25.9998074s11.5555146 25.999808 25.9998076 25.999808c2.311183 0 4-2.022185 4-4.333368 0-1.155552.04449-2.022185-.822184-2.888779-.577775-.866653-1.155551-1.733327-1.155551-2.888778 0-2.311183 2.022385-3.88909 4.333368-3.88909h5.199961c8.087941 0 14.443894-6.800231 14.443894-14.888171 0-12.711906-11.555915-23.1118294-25.999808-23.1118294z" fill="#4f4f4f"/><g opacity=".2" transform="matrix(1.9999852 0 0 1.9999852 .000237 1.000237)"><path d="m7 16c-1.0667 0-2-.933-2-2s .9333-2 2-2 2 .933 2 2-.9333 2-2 2z"/><path d="m12 10c-1.0667 0-2-.93333-2-2s .93333-2 2-2 2 .93333 2 2-.93333 2-2 2z"/><path d="m19 10c-1.0667 0-2-.93333-2-2s .93333-2 2-2 2 .93333 2 2-.93333 2-2 2z"/><path d="m24 16c-1.0667 0-2-.93333-2-2s .93333-2 2-2 2 .93333 2 2-.93333 2-2 2z"/></g><path d="m14.000133 32.000207c-2.133384 0-3.99997-1.865986-3.99997-3.99997s1.866586-3.999971 3.99997-3.999971 3.999971 1.865987 3.999971 3.999971-1.866587 3.99997-3.999971 3.99997z" fill="#f1a443"/><path d="m24.000059 20.000296c-2.133384 0-3.99997-1.866646-3.99997-3.99997 0-2.133325 1.866646-3.999971 3.99997-3.999971s3.999971 1.866646 3.999971 3.999971c0 2.133324-1.866647 3.99997-3.999971 3.99997z" fill="#3f90dc"/><path d="m37.999956 20.000296c-2.133385 0-3.999971-1.866646-3.999971-3.99997 0-2.133325 1.866646-3.999971 3.999971-3.999971 2.133324 0 3.99997 1.866646 3.99997 3.999971 0 2.133324-1.866646 3.99997-3.99997 3.99997z" fill="#56a913"/><path d="m47.999882 32.000207c-2.133385 0-3.999971-1.866646-3.999971-3.99997s1.866646-3.999971 3.999971-3.999971c2.133324 0 3.99997 1.866647 3.99997 3.999971s-1.866646 3.99997-3.99997 3.99997z" fill="#f35b5b"/><path d="m32 6c-14.444293 0-26 11.555707-26 26 0 .110263.011662.217482.017578.326172.3538986-14.127183 11.764157-25.326172 25.982422-25.326172 14.200335 0 25.601696 10.052316 25.982422 22.470703.005487-.120524.017578-.239356.017578-.361328 0-12.711706-11.556107-23.109375-26-23.109375zm2.171875 42.855469c-.09.333998-.148437.681158-.148437 1.035156 0 .169365.01607.330521.03906.488281.02582-.177144.0632-.352071.109375-.523437.205998.703995.603816 1.31388 1.007813 1.921875.731637.731637.73936 1.475853.820314 2.382812.02238-.161954 0-.325717 0-.492187 0-1.155992.04568-2.024631-.820312-2.890625-.403997-.607995-.801815-1.21788-1.007813-1.921875z" fill="#fff" opacity=".1"/></svg>