<svg height="64" width="64" xmlns="http://www.w3.org/2000/svg"><path d="m31.234864 4.9305978c-.579715.00936-1.16651.047008-1.755465.112109-9.229916 1.0203908-15.953655 8.6347222-15.319661 17.135645l-2.16018.241997 1.235988 11.179899 7.205935-.795993-1.236989-11.183898-2.668575.295997c-.494596-7.284934 5.279552-13.789275 13.19548-14.664267 7.911129-.8744923 14.998864 4.198562 16.116254 11.407696l-2.348778.259758 1.235928 11.180699 6.956137-.768353-1.235928-11.180699-2.23398.246098c-1.17799-7.878929-8.491923-13.604877-16.985846-13.467878z" opacity=".2"/><path d="m30.172873 11.002403c-.979371.03772-1.839903.558095-2.515577 1.329088-.675594.770993-1.209269 1.797824-1.658765 3.002973-.898992 2.410378-1.451667 7.553967-1.757724 10.805338-.306057 3.25137-.358397 4.604202-.218738 7.407177.139659 2.802974.412436 4.984355.989531 6.202344.504755 1.06523 1.09117 2.282779 1.343688 3.382369.252517 1.09959.199698 1.975902-.447896 2.684776-.647594.708773-2.076181 1.346268-4.822757 1.493546-2.746375.147299-6.759738-.984691-12.449887-2.043661-.9165116-.170559-1.6811047-.185799-2.3461787.034479-.665134.220298-1.1858293.710274-1.5025264 1.329088-.6334143 1.237609-.6903537 5.739384-.7838129 8.091763-.03022.760653.2491177 1.485787.7395533 2.079781.4904356.594055 1.1771094 1.081011 2.0285816 1.506827 1.7028846.851632 4.0875631 1.465546 7.0491361 1.902102 5.922947.873073 14.146472 1.010671 23.487788.469556l.0078-.0026h.0104c3.438169-.283137 8.87692-.481755 13.567078-1.673945 2.344978-.596094 4.513359-1.435827 6.168944-2.719175 1.655545-1.283348 2.789375-3.065172 2.900974-5.337552.103759-2.112781-.0054-5.328707-.429677-6.345298-.424316-1.016611-1.333667-1.558926-2.268179-1.578446-1.868903-.03904-4.070963.984551-6.929337 1.655345-3.279971.769753-5.59415 1.441121-7.168935 1.321722-1.574806-.119419-2.361979-.987455-2.848775-1.613539-.486796-.626095-.705514-1.552266-.807253-2.729776-.101719-1.177529-.08986-2.571776-.244778-4.040363-.297997-2.813975-.859992-7.403977-2.129981-13.289924-.633994-2.942373-1.439987-7.711566-2.521977-9.794147-.541995-1.041191-1.14999-1.916783-1.879983-2.549377-.729993-.632394-1.609985-1.015591-2.561977-.978791z" opacity=".2"/><path d="m31.234864 3.9306156c-.579715.00936-1.16651.047008-1.755465.112109-9.229916 1.0203908-15.953655 8.6347214-15.319661 17.135645l-2.16018.241998 1.235988 11.179898 7.205935-.795992-1.236989-11.183899-2.668575.295997c-.494596-7.284934 5.279552-13.789275 13.19548-14.664267 7.911129-.8744925 14.998864 4.198562 16.116254 11.407696l-2.348778.259758 1.235928 11.180699 6.956137-.768353-1.235928-11.180699-2.23398.246098c-1.17799-7.8789289-8.491923-13.604877-16.985846-13.467878z" fill="#4d4d4d"/><path d="m30.172873 10.002421c-.979371.03772-1.839903.558095-2.515577 1.329088-.675594.770993-1.209269 1.797824-1.658765 3.002973-.898992 2.410378-1.451667 7.553967-1.757724 10.805338-.306057 3.25137-.358397 4.604202-.218738 7.407177.139659 2.802974.412436 4.984355.989531 6.202344.504755 1.06523 1.09117 3.282411 1.343688 4.382002.252517 1.099589.199698 1.975901-.447896 2.684776-.647594.708772-2.076181 1.346267-4.822757 1.493545-2.746375.147299-6.759738-.984691-12.449887-2.043661-.9165116-.170559-1.6811047-.185799-2.3461787.034479-.665134.220298-1.1858293.710274-1.5025264 1.329088-.6334143 1.23761-.6903537 4.739753-.7838129 7.092131-.03022.760653.2491177 1.485787.7395533 2.079781.4904356.594055 1.1771094 1.081011 2.0285816 1.506827 1.7028846.851632 4.0875631 1.465546 7.0491361 1.902103 5.922947.873072 14.146472 1.01067 23.487788.469555l.0078-.0026h.0104c3.438169-.283137 8.87692-.481755 13.567078-1.673945 2.344978-.596094 4.513359-1.435827 6.168944-2.719175 1.655545-1.283348 2.789375-3.065172 2.900974-5.337552.103759-2.11278-.0054-4.329075-.429677-5.345666-.424316-1.016611-1.333667-1.558926-2.268179-1.578446-1.868903-.03904-4.070963.984551-6.929337 1.655345-3.279971.769753-5.59415 1.441471-7.168935 1.322072-1.574806-.119419-2.361979-.987805-2.848775-1.613889-.486796-.626094-.705514-1.552266-.807253-2.729776-.101719-1.177528-.08986-3.571408-.244778-5.039995-.297997-2.813975-.859992-7.403977-2.129981-13.289924-.633994-2.942373-1.439987-7.711566-2.521977-9.794147-.541995-1.041191-1.14999-1.916783-1.879983-2.549377-.729993-.632394-1.609985-1.0155908-2.561977-.978791z" fill="#974fa4"/><path d="m30.173828 10.001953c-.979371.03772-1.839951.559085-2.515625 1.330078-.675594.770993-1.21066 1.796804-1.660156 3.001953-.898992 2.410378-1.451756 7.55527-1.757813 10.806641-.235338 2.500094-.315925 3.888536-.279296 5.666016.009338-1.35499.089458-2.649285.279296-4.666016.306057-3.251371.858821-8.396263 1.757813-10.806641.449496-1.205149.984562-2.23096 1.660156-3.001953.675674-.770993 1.536254-1.292358 2.515625-1.330078l-.001953.001953c.951992-.0368 1.832507.346122 2.5625.978516.729993.632594 1.336911 1.50959 1.878906 2.550781 1.08199 2.082581 1.887491 6.850596 2.521485 9.792969 1.269989 5.885947 1.832862 10.477041 2.130859 13.291016.154918 1.468587.142422 3.861534.244141 5.039062.101739 1.17751.321797 2.104375.808593 2.730469.486796.626084 1.272851 1.493862 2.847657 1.613281 1.574785.119399 3.88995-.552513 7.169922-1.322266 2.858373-.670794 5.058831-1.693336 6.927734-1.654296.934512.01952 1.845215.561514 2.269531 1.578124.290862.696921.423577 1.970304.451172 3.375.030586-1.790046-.091897-3.514156-.451172-4.375-.424316-1.01661-1.335019-1.558604-2.269531-1.578124-1.868903-.03904-4.069361.983502-6.927734 1.654296-3.279971.769753-5.595137 1.441665-7.169922 1.322266-1.574806-.119419-2.360861-.987197-2.847657-1.613281-.486796-.626094-.706854-1.552959-.808593-2.730469-.101719-1.177528-.089223-3.570475-.244141-5.039062-.297997-2.813975-.86087-7.405069-2.130859-13.291016-.633994-2.942373-1.439495-7.710388-2.521485-9.792969-.541995-1.041191-1.148913-1.918187-1.878906-2.550781-.729993-.632394-1.610508-1.0153156-2.5625-.978516zm-3.726562 34.693359c-.071481.41358-.234305.787497-.539063 1.121094-.647594.708772-2.077643 1.346863-4.824219 1.494141-2.746375.147299-6.759069-.985952-12.449218-2.044922-.9165121-.170559-1.6806295-.185122-2.3457035.035156-.665134.220298-1.1872091.709311-1.5039063 1.328125-.6334143 1.23761-.6897439 4.741372-.7832031 7.09375-.0052126.131204.0107354.25812.0234375.386719.084248-2.313747.1767307-5.341293.7597656-6.480469.3166972-.618814.8387723-1.107827 1.5039063-1.328125.665074-.220278 1.4291914-.205715 2.3457031-.035156 5.6901494 1.05897 9.7028434 2.192221 12.449218 2.044922 2.746576-.147278 4.176625-.785369 4.824219-1.494141.530904-.581143.648165-1.284118.539063-2.121094z" fill="#fff" opacity=".2"/><path d="m27.972893 27.300085a5.9821459 12.001091 2.5216 1 1 -11.948492-.601994 5.9821459 12.001091 2.5216 1 1 11.948492.601994z" opacity=".2"/><path d="m27.972893 26.300103a5.9821459 12.001091 2.5216 1 1 -11.948492-.601994 5.9821459 12.001091 2.5216 1 1 11.948492.601994z" fill="#fff"/><path d="m25.984911 28.096087a2.9826253 4.0160341 6.8892 0 1 -5.972546-.192018 2.9826253 4.0160341 6.8892 1 1 5.972546.192018z" fill="#4d4d4d"/><path d="m45.872731 26.366094a12.052057 6.9014327 83.212 0 1 -13.747876 1.267048 12.052057 6.9014327 83.212 1 1 13.747876-1.267048z" opacity=".2"/><path d="m45.872731 25.366112a12.052057 6.9014325 83.212 0 1 -13.747876 1.267048 12.052057 6.9014325 83.212 1 1 13.747876-1.267048z" fill="#fff"/><path d="m41.892767 28.274086a2.877574 4.088963 16.98 0 1 -5.789748-.541936 2.877574 4.088963 16.98 1 1 5.789748.541936z" fill="#4d4d4d"/><path d="m31.234375 3.9296875c-.579715.00936-1.166904.0481803-1.755859.1132813-8.942193.9885822-15.510312 8.1687032-15.335938 16.345703.356803-7.755469 6.759803-14.39759 15.335938-15.345703.588955-.0651013 1.176144-.1039215 1.755859-.1132815 8.493923-.1369987 15.808338 5.5878675 16.986328 13.466796l2.234375-.246093 1.126953 10.193359.109375-.011719-1.236328-11.18164-2.234375.246093c-1.17799-7.8789285-8.492405-13.603795-16.986328-13.466796zm14.408203 13.753906-2.144531.236328.109375.988281 2.240234-.248047c-.051435-.331848-.128843-.654139-.205078-.976562zm-29.115234 2.740234c-.024116.493084-.026276.990101.007812 1.492188l2.669922-.296875 1.126953 10.197265.109375-.011718-1.236328-11.183594-2.669922.294922c-.011225-.165332-.002997-.327717-.007812-.492188zm-2.388672.75586-2.138672.240234.109375.988281 2.050781-.230469c-.024997-.335177-.019066-.665975-.021484-.998046z" fill="#fff" opacity=".1"/></svg>