<svg height="64" width="64" xmlns="http://www.w3.org/2000/svg"><rect height="56" opacity=".2" rx="2.8" transform="matrix(0 -1 -1 0 0 0)" width="56" x="-61" y="-60"/><rect fill="#6e85e9" height="56" rx="2.8" transform="matrix(0 -1 -1 0 0 0)" width="56" x="-60" y="-60"/><path d="m37.30051 18.999579-1.749999 1.275682-4.454543 1.753972-.986361 1.020444-.763632.574052-.1591 1.339415.318178.70156.29949 1.304024 1.081817 2.104749 1.177272 1.498882-1.845453 3.029581-1.099092 4.52846-1.272728 2.040964-1.787925 2.583115-.09546 1.179924-1.362074 1.020515 1.654546 1.49888-.273892 1.785869.1591 4.482839.62389 4.960851.636369 3.316643h5.896643l-.445456-.12758.572726-.510258-.09546-1.43509.604543-1.243713-.509089.06352.782849-1.594498v-1.995127l.604546-.829144v-1.084236l1.240908-2.250507.09546-1.435086-.254546-1.179925.433238-1.3394.668184-1.084308v-.669663l.763633-.09568.66818-.669738.604548-1.690182 1.336361-1.498877 1.590908-.605876.986366.861038 2.449997.733458 1.940905 1.819625.922726 1.179924 1.590908.15948 5.02727 2.200439 2.577271.92483 2.099996 1.594495.445472-.12758v-.605876l-1.113636-.861037 1.113636.28699v-2.391742h-.1909l-.986366-.414642-.668186-.350784.986366-.829139.254548-.605876-.1591-.414642-.922722.15948-1.940907 1.020516-.254544.51026-.668186-.15948-2.418177-1.371298-.09546-.92483-1.431818-.733458-2.418177-1.275609-.604548.414572.09546-.574048-1.336362-1.275612-.477743-1.117993-1.081818-1.27561-.349998-.414572 1.081816.765352-.15908-.861038.859088.446468-.254544-1.275612 1.177273 1.084236-.509091-.733456 1.177269.478364-1.018179-1.403193.763635.255094-.35-1.371226.604544.510188-.859088-1.243716.859088.255166-.763632-1.020518 1.018178-.09568-1.113634-.669663.66818-.318956-.731816-.09568.986362-.92483-.922726.09568.09546-.605872.09546-1.658287-.509093 1.148029-.604544-1.658287.09546 1.339403-.35.09568h-.827274l-1.622256-1.371297h-.922723l-1.08182-.924832-.50909.51026-1.272726.440404h-1.234063l-.349998.829144.349998 1.345463-.1909.98855-.82727-.478292-.668182-1.27568-1.852301-.318884-.572726-.605875-1.272728-.574048-.872213-1.399712.09546-1.084235 3.531815-2.710712 1.654543.765352.254544 1.174938v.701574l.445458.574047.827268.255094.572728-.510258.09546-.573991-.254543-.510258-.509092-.255094-.31818-1.01546.731818-.35078-.15908-.829211v-.510188l-.509128-.510262-.254544-.765353-.986364-.22327-.859088-.191373z" fill-rule="evenodd" opacity=".1"/><path d="m37.30051 17.99958-1.749999 1.275682-4.454543 1.753972-.986361 1.020444-.763632.574052-.1591 1.339415.318178.70156.29949 1.304024 1.081817 2.104749 1.177272 1.498882-1.845453 3.029581-1.099092 4.52846-1.272728 2.040964-1.787925 2.583115-.09546 1.179924-1.362074 1.020515 1.654546 1.49888-.273892 1.785869.1591 4.482839.62389 4.960851.636369 3.316643h5.896643l-.445456-.12758.572726-.510258-.09546-1.43509.604543-1.243713-.509089.06352.782849-1.594498v-1.995127l.604546-.829144v-1.084236l1.240908-2.250507.09546-1.435086-.254546-1.179925.433238-1.3394.668184-1.084308v-.669663l.763633-.09568.66818-.669738.604548-1.690182 1.336361-1.498877 1.590908-.605876.986366.861038 2.449997.733458 1.940905 1.819625.922726 1.179924 1.590908.15948 5.02727 2.200439 2.577271.92483 2.099996 1.594495.445472-.12758v-.605876l-1.113636-.861037 1.113636.28699v-2.391742h-.1909l-.986366-.414642-.668186-.350784.986366-.829139.254548-.605876-.1591-.414642-.922722.15948-1.940907 1.020516-.254544.51026-.668186-.15948-2.418177-1.371298-.09546-.92483-1.431818-.733458-2.418177-1.275609-.604548.414572.09546-.574048-1.336362-1.275612-.477743-1.117993-1.081818-1.27561-.349998-.414572 1.081816.765352-.15908-.861038.859088.446468-.254544-1.275612 1.177273 1.084236-.509091-.733456 1.177269.478364-1.018179-1.403193.763635.255094-.35-1.371226.604544.510188-.859088-1.243716.859088.255166-.763632-1.020518 1.018178-.09568-1.113634-.669663.66818-.318956-.731816-.09568.986362-.92483-.922726.09568.09546-.605872.09546-1.658287-.509093 1.148029-.604544-1.658287.09546 1.339403-.35.09568h-.827274l-1.622256-1.371297h-.922723l-1.08182-.924832-.50909.51026-1.272726.440404h-1.234063l-.349998.829144.349998 1.345463-.1909.98855-.82727-.478292-.668182-1.27568-1.852301-.318884-.572726-.605875-1.272728-.574048-.872213-1.399712.09546-1.084235 3.531815-2.710712 1.654543.765352.254544 1.174938v.701574l.445458.574047.827268.255094.572728-.510258.09546-.573991-.254543-.510258-.509092-.255094-.31818-1.01546.731818-.35078-.15908-.829211v-.510188l-.509128-.510262-.254544-.765353-.986364-.22327-.859088-.191373z" fill="#3f3f3f" fill-rule="evenodd"/><path d="m6.8007812 4c-1.5511996 0-2.8007812 1.2495816-2.8007812 2.8007812v1c0-1.5511995 1.2495816-2.8007812 2.8007812-2.8007812h50.3984378c1.5512 0 2.800781 1.2495816 2.800781 2.8007812v-1c0-1.5511996-1.249581-2.8007812-2.800781-2.8007812z" fill="#fff" opacity=".1"/></svg>