<svg height="64" width="64" xmlns="http://www.w3.org/2000/svg"><rect fill="#0a7cb4" height="56" rx="3" transform="matrix(0 -1 -1 0 0 0)" width="56" x="-60" y="-60"/><path d="m7 4c-1.662 0-3 1.338-3 3v1c0-1.662 1.338-3 3-3h50c1.662 0 3 1.338 3 3v-1c0-1.662-1.338-3-3-3z" fill="#fff" opacity=".1"/><path d="m4 57v1c0 1.662 1.338 3 3 3h50c1.662 0 3-1.338 3-3v-1c0 1.662-1.338 3-3 3h-50c-1.662 0-3-1.338-3-3z" opacity=".2"/><path d="m22.034762 21.000633c-2.469737-.02808-5.412463 2.554-5.945249 9.8906-.567686 7.8258 1.656818 8.5976 4.070297 8.5976 2.010349 0 3.624508-1.0063 5.394463-3.0742.266973-.31304.566366-.476.683583-.35938.117817.11664.205355.20648.195315.19922-.0094-.0086-.139517.3007-.265613.69532-.347472 1.08774-.878278 3.1994-.343752 4.6836.139717.38856.431789.3333.550766-.0625.283533-.94392.829899-2.569 1.421844-3.3868.240914-.33418.520227-.14442.507807.26952-.07578 2.5188.736282 7.107 4.441288 10.0234 3.874902 3.0518 9.523959 2.9714 12.585681 1.66796.374711-.16074.959176-.15126 1.359346-.07812.246254.0447.559106.07252.949196.05078 1.134171-.06526-.760621-1.0281-.886698-1.54296-.124917-.51608.885598-.61652 1.089813-2.2578.205414-1.6437-1.085913-.0625-1.085913-.0625s-.949316 1.11402-4.73428.8711c-3.487112-.22178-7.644006-2.0188-7.50381-8.3398.0102-.41516.137997-.78518.261713-.83594.123717-.04956.467169.13598.679663.48828.526247.86898.997555 2.2778 1.253868 3.1328.119577.39522.40929.45436.550766.0664.464689-1.2914.123637-3.0592-.203114-4.211-.111278-.39824.0068-.90008.269533-1.14844.261633-.24836.663883-.20754.929656.10546 1.780595 2.0878 3.401914 3.1094 5.421663 3.1094 2.412739 0 4.637882-.77134 4.070297-8.5976-.568866-7.8258-3.883702-10.2422-6.437437-9.8554-1.646798.24836-2.78633 1.0978-3.386714 1.67188-.297153.28282-.499988.57404-.499988.60546-.000592.03082-.235854-.17914-.550766-.4414-1.376285-1.14938-3.105321-1.83594-4.984274-1.83594-1.853993 0-3.564909.66808-4.933475 1.78906-.316112.25924-.549586.48056-.550766.46484 0-.017-.204014-.29532-.499987-.57812-.601425-.57348-1.739836-1.42682-3.386714-1.67578-.159576-.02444-.323632-.0372-.488268-.03906zm6.964624 6c .552046 0 .999974.44794.999974 1s-.447928 1-.999974 1-.999975-.44794-.999975-1 .447929-1 .999975-1zm5.999848 0c .552046 0 .999975.44794.999975 1s-.447929 1-.999975 1-.999975-.44794-.999975-1 .447929-1 .999975-1z" opacity=".2"/><path d="m22.036 20.000633c-2.4706-.028-5.4134 2.554-5.9462 9.89-.5676 7.826 1.657 8.598 4.0702 8.598 2.01 0 3.624-1.006 5.394-3.074.268-.312.568-.476.684-.36.118.118.206.208.196.2s-.14.3-.266.696c-.348 1.086-.878 3.198-.344 4.682.14.39.432.334.552-.062.282-.944.828-2.568 1.42-3.386.242-.334.522-.144.508.27-.076 2.518.736 7.106 4.442 10.022 3.876 3.052 9.524 2.972 12.586 1.668.374-.16.96-.15 1.36-.078.246.046.558.072.948.052 1.134-.066-.76-1.028-.886-1.544s.886-.616 1.09-2.258c.206-1.644-1.086-.062-1.086-.062s-.95 1.114-4.734.87c-3.488-.22-7.644-2.018-7.504-8.338.01-.416.138-.786.262-.836.122-.05.466.136.678.488.528.868.998 2.278 1.254 3.132.12.396.41.454.552.066.464-1.29.124-3.058-.204-4.21-.11-.398.008-.9.27-1.148.262-.25.664-.208.93.104 1.78 2.088 3.402 3.11 5.422 3.11 2.412 0 4.638-.772 4.07-8.598s-3.884-10.2416-6.438-9.854c-1.646.248-2.786 1.096-3.386 1.67-.298.284-.5.574-.5.606s-.236-.178-.552-.44c-1.376-1.15-3.104-1.836-4.984-1.836-1.854 0-3.564.668-4.934 1.788-.316.26-.548.48-.55.464 0-.016-.204-.294-.5-.578-.602-.572-1.74-1.426-3.386-1.674-.16-.026-.324-.038-.488-.04zm6.964 6c .552 0 1 .448 1 1s-.448 1-1 1-1-.448-1-1 .448-1 1-1zm6 0c .552 0 1 .448 1 1s-.448 1-1 1-1-.448-1-1 .448-1 1-1z" fill="#fff"/></svg>