<svg height="64" width="64" xmlns="http://www.w3.org/2000/svg"><path d="m36.871787 5-10.292982 41.171877c-2.093396-.610793-3.44784-1.345021-4.207018-2.007781-1.012864-.884282-1.325219-1.554345-1.386702-3.140646-.08629-2.221822 1.52776-6.990778 3.101534-13.08205.101101-.391157.65986-1.538592 1.054712-3.195302.197389-.828362.425646-1.908363-.0058-3.378902-.434665-1.470555-1.932145-2.968603-3.329324-3.476578-1.451044-.5275-2.842063-.774034-4.144662-.835935-3.907829-.185684-7.028107 1.291683-8.6289246 1.843753l2.6092516 7.562512c2.12759-.733806 3.492817-1.176377 4.945165-1.25783-.105263.327436-.146479.352695-.246099.73828-1.435517 5.555241-3.548205 10.221862-3.347856 15.390639.12741 3.286969 1.528183 6.599002 4.117185 8.859331 2.003249 1.749014 4.517611 2.914021 7.527345 3.742254l-1.765817 7.066378h8.242155l1.519546-6.078157c4.492292-.265781 8.523945-1.943484 11.699213-4.179685 4.323333-3.044571 7.26988-6.901845 8.535164-10.808552 2.47884-6.308236 2.070327-12.128697 2.070327-18.933613h-7.999994c0 7.133592.255171 11.66783-1.531229 16.124999a4.0003981 4.0003981 0 0 0 -.105376.289079c-.475595 1.512104-2.584174 4.683341-5.574239 6.789077-1.508813 1.062566-3.183769 1.90226-5.007801 2.371081l10.394459-41.574229z" opacity=".2"/><path d="m10.337889 21.680332c2.687528-.926843 5.706661-2.627816 10.100409-1.030391 1.946392.707628.289114 3.307806-.223588 5.292113-1.504549 5.823249-3.368164 10.540301-3.224933 14.235613.188893 4.873229 3.423835 7.969506 11.172494 9.482307 10.756688 2.100134 19.23796-6.584413 20.955687-12.045738 2.170572-5.415757 1.819951-10.614245 1.819951-17.61424" fill="none" stroke="#3669e9" stroke-linejoin="round" stroke-width="7.999991"/><path d="m36.871787 4-13.999992 56.000001h8.242155l14.000014-56.000001z" fill="#3669e9"/><path d="m36.871094 4-10.292969 41.171875c-2.093396-.610793-3.447853-1.345052-4.207031-2.007813-.933095-.814639-1.259856-1.479575-1.355469-2.814453-.017901.236396-.038907.476685-.03125.673829.061483 1.5863.373855 2.256343 1.386719 3.140624.759178.662761 2.113635 1.39702 4.207031 2.007813l10.292969-41.171875h7.992187l.25-1zm-19.208985 12.054688c-3.907829-.185685-7.028088 1.29168-8.6289059 1.84375l.3066407.886718c1.6655292-.607974 4.6177332-1.906493 8.3222652-1.730468 1.302599.0619 2.693488.308437 4.144532.835937 1.397179.507975 2.89346 2.006007 3.328125 3.476563.122165.416386.182785.793473.214843 1.15039.055182-.610731.031426-1.311007-.214843-2.15039-.434665-1.470556-1.930946-2.968588-3.328125-3.476563-1.451044-.5275-2.841933-.774037-4.144532-.835937zm29.275391 3.945312c0 .363784.000931.649401.001953 1h7.998047c0 1.46857.016559 2.873957.021484 4.265625.004503-1.704879-.021484-3.44837-.021484-5.265625zm.009766 5.072266c-.016622 4.406278-.218781 7.753683-1.541016 11.052734a4.0003981 4.0003981 0 0 0 -.105469.289062c-.475595 1.512105-2.584154 4.683327-5.574219 6.789063-1.432439 1.00878-3.018995 1.806734-4.736328 2.287109l-.271484 1.083985c1.824032-.468821 3.498999-1.308528 5.007812-2.371094 2.990065-2.105736 5.098624-5.276958 5.574219-6.789063a4.0003981 4.0003981 0 0 1  .105469-.289062c1.41542-3.531552 1.546508-7.169793 1.541016-12.052734zm-30.359375.130859c-.109543.006144-.21921.02884-.328125.039063-1.417222 5.363485-3.417142 9.91841-3.269532 14.927734.122052-4.715553 2.024479-9.092895 3.351563-14.228516.09962-.385585.140831-.410845.246094-.738281zm7.816406 28.65625-1.533203 6.140625h.25l1.515625-6.066406c-.08085-.022249-.152287-.051479-.232422-.074219z" fill="#fff" opacity=".1"/></svg>