<svg height="64" viewBox="0 0 64 64" width="64" xmlns="http://www.w3.org/2000/svg"><circle cx="31.5" cy="32.5" opacity=".2" r="28.5"/><circle cx="31.5" cy="31.5" fill="#86c14d" r="28.5"/><path d="m24.208333 16.617838a17.5 17.5 0 0 0 -10.208333 15.882162 17.5 17.5 0 0 0 17.5 17.5 17.5 17.5 0 0 0 17.5-17.5 17.5 17.5 0 0 0 -10.208333-15.870767v.341795a14.583333 14.583333 0 0 1 7.291666 12.612305 14.583333 14.583333 0 0 1 -14.583333 14.583334 14.583333 14.583333 0 0 1 -14.583333-14.583334 14.583333 14.583333 0 0 1 7.291666-12.606608z" opacity=".2"/><path d="m24.208333 15.617838a17.5 17.5 0 0 0 -10.208333 15.882162 17.5 17.5 0 0 0 17.5 17.5 17.5 17.5 0 0 0 17.5-17.5 17.5 17.5 0 0 0 -10.208333-15.870767v.341795a14.583333 14.583333 0 0 1 7.291666 12.612305 14.583333 14.583333 0 0 1 -14.583333 14.583334 14.583333 14.583333 0 0 1 -14.583333-14.583334 14.583333 14.583333 0 0 1 7.291666-12.606608z" fill="#3f3f3f"/><path d="m29 41v14.375l2.5 8.625 2.5-8.625v-14.375l-2.5-7z" opacity=".2"/><path d="m29 40v14.375l2.5 8.625 2.5-8.625v-14.375l-2.5-7z" fill="#3f3f3f"/><path d="m31.5 3a28.5 28.5 0 0 0 -28.5 28.5 28.5 28.5 0 0 0  .0214844.582031 28.5 28.5 0 0 1 28.4785156-28.082031 28.5 28.5 0 0 1 28.478516 27.917969 28.5 28.5 0 0 0  .021484-.417969 28.5 28.5 0 0 0 -28.5-28.5z" fill="#fff" opacity=".1"/></svg>