<svg height="64" viewBox="0 0 64 64" width="64" xmlns="http://www.w3.org/2000/svg"><circle cx="31.5" cy="32.5" opacity=".2" r="28.5"/><circle cx="31.5" cy="31.5" fill="#4f4f4f" r="28.5"/><path d="m24.208333 16.617838a17.5 17.5 0 0 0 -10.208333 15.882162 17.5 17.5 0 0 0 17.5 17.5 17.5 17.5 0 0 0 17.5-17.5 17.5 17.5 0 0 0 -10.208333-15.870767v.341795a14.583333 14.583333 0 0 1 7.291666 12.612305 14.583333 14.583333 0 0 1 -14.583333 14.583334 14.583333 14.583333 0 0 1 -14.583333-14.583334 14.583333 14.583333 0 0 1 7.291666-12.606608z" opacity=".2"/><path d="m24.208333 15.617838a17.5 17.5 0 0 0 -10.208333 15.882162 17.5 17.5 0 0 0 17.5 17.5 17.5 17.5 0 0 0 17.5-17.5 17.5 17.5 0 0 0 -10.208333-15.870767v.341795a14.583333 14.583333 0 0 1 7.291666 12.612305 14.583333 14.583333 0 0 1 -14.583333 14.583334 14.583333 14.583333 0 0 1 -14.583333-14.583334 14.583333 14.583333 0 0 1 7.291666-12.606608z" fill="#ffb16a"/><path d="m24.208984 15.617188a17.5 17.5 0 0 0 -10.208984 15.882812 17.5 17.5 0 0 0  .01563.308594 17.5 17.5 0 0 1 6.873047-13.179688 14.583333 14.583333 0 0 1 3.320312-2.652344zm14.582032.01172v.341797a14.583333 14.583333 0 0 1 3.43164 2.746094 17.5 17.5 0 0 1 6.75586 13.384765 17.5 17.5 0 0 0  .021484-.601564 17.5 17.5 0 0 0 -10.208984-15.871094zm7.27539 13.294922a14.583333 14.583333 0 0 1 -14.566406 14.242186 14.583333 14.583333 0 0 1 -14.5625-13.990235 14.583333 14.583333 0 0 0 -.021484.408203 14.583333 14.583333 0 0 0 14.583984 14.582032 14.583333 14.583333 0 0 0 14.583984-14.582032 14.583333 14.583333 0 0 0 -.017578-.660156z" fill="#fff" opacity=".2"/><path d="m25.8 34 3.2 2.85v18.525l2.5 8.625 2.5-8.625v-18.525l3.2-2.85h-2.85-5.7z" opacity=".2"/><path d="m25.8 33 3.2 2.85v18.525l2.5 8.625 2.5-8.625v-18.525l3.2-2.85h-2.85-5.7z" fill="#ffb16a"/><path d="m31.5 3a28.5 28.5 0 0 0 -28.5 28.5 28.5 28.5 0 0 0  .0214844.582031 28.5 28.5 0 0 1 28.4785156-28.082031 28.5 28.5 0 0 1 28.478516 27.917969 28.5 28.5 0 0 0  .021484-.417969 28.5 28.5 0 0 0 -28.5-28.5z" fill="#fff" opacity=".1"/><path d="m25.800781 33 1.123047 1h1.726563 5.699218 1.726563l1.123047-1h-2.84961-5.699218z" fill="#fff" opacity=".2"/></svg>