<svg height="64" width="64" xmlns="http://www.w3.org/2000/svg"><path d="m59.958 31.828a28 28 0 0 1 -27.958 27.172 28 28 0 0 1 -27.956-26.828 28 28 0 0 0 -.044.828 28 28 0 0 0 28 28 28 28 0 0 0 28-28 28 28 0 0 0 -.042-1.172z" opacity=".2"/><circle cx="32" cy="32" fill="#37a0f2" r="28"/><path d="m34 15c-4.495 7.748-8.3096 15.5704-10.612 23.322-1.21964 4.1488-2.3196 8.5096-3.388 12.678h2c3.682-5.882 10.376-10.043476 16-11.999476.06-4.252-.368-9.142 1.324-12.87.692-1.55 1.78-3.724 2.676-5.13 0-4-4.465963-9.192279-8-6z" fill-rule="evenodd" opacity=".2"/><path d="m34 14c-4.495 7.748-8.3096 15.5704-10.612 23.322-1.21964 4.1488-2.3196 8.5096-3.388 12.678h2c3.682-5.882 10.376-10.043476 16-11.999476.06-4.252-.368-9.142 1.324-12.87.692-1.55 1.78-3.724 2.676-5.13 0-4-4.465963-9.192279-8-6z" fill="#fff" fill-rule="evenodd"/><path d="m31.998047 4a28 28 0 0 0 -27.998047 28 28 28 0 0 0  .0175781.492188 28 28 0 0 1 27.9804689-27.492188h.001953a28 28 0 0 1 27.972656 27.5 28 28 0 0 0  .025391-.5 28 28 0 0 0 -27.998047-28z" fill="#fff" opacity=".2"/></svg>