<svg height="64" viewBox="0 0 64 64" width="64" xmlns="http://www.w3.org/2000/svg"><path d="m4.042999 29.828556a27.9995 25.999536 0 0 0 -.042999 1.171979 27.9995 25.999536 0 0 0 9.999821 19.913645v-1.999964a27.9995 25.999536 0 0 1 -9.956822-19.08566zm55.915002.343994a27.9995 25.999536 0 0 1 -27.957501 24.827557 27.9995 25.999536 0 0 1 -10.557812-1.933965l-7.441867 5.933894v1.999964l7.441867-5.933894a27.9995 25.999536 0 0 0 10.557812 1.933965 27.9995 25.999536 0 0 0 27.9995-25.999536 27.9995 25.999536 0 0 0 -.042-.827985z" opacity=".2"/><path d="m31.9995 4.0010353a27.9995 25.999536 0 0 0 -27.9995002 25.9995357 27.9995 25.999536 0 0 0 9.9998212 19.913645v10.08582l7.441867-5.933894a27.9995 25.999536 0 0 0 10.557812 1.933965 27.9995 25.999536 0 0 0 27.9995-25.999536 27.9995 25.999536 0 0 0 -27.9995-25.9995357z" fill="#2090ea"/><path d="m31.998047 4.0019531a27.9995 25.999536 0 0 0 -27.998047 25.9980469 27.9995 25.999536 0 0 0  .0214844.425781 27.9995 25.999536 0 0 1 27.9765626-25.4238279h.001953a27.9995 25.999536 0 0 1 27.976562 25.5957029 27.9995 25.999536 0 0 0  .021485-.597656 27.9995 25.999536 0 0 0 -27.998047-25.9980469z" fill="#fff" opacity=".2"/><ellipse cx="32" cy="31.001" fill="none" opacity=".2" rx="19" ry="17" stroke="#000" stroke-dasharray="11.999786 5.999893" stroke-width="5.999893"/><ellipse cx="32" cy="30.001" fill="none" rx="19" ry="17" stroke="#fff" stroke-dasharray="11.999786 5.999893" stroke-width="5.999893"/></svg>