<svg height="64" viewBox="0 0 64 64" width="64" xmlns="http://www.w3.org/2000/svg"><path d="m32 5v28h28a28 28 0 0 0 -28-28zm0 28h-28a28 28 0 0 0 28 28z" opacity=".2"/><path d="m32 4v28h28a28 28 0 0 0 -28-28zm0 28h-28a28 28 0 0 0 28 28z" fill="#e4e4e4"/><path d="m32 4v1a28 28 0 0 1 27.949219 27h .050781a28 28 0 0 0 -28-28zm-28 28a28 28 0 0 0  .0507812 1h27.9492188v-1z" fill="#fff" opacity=".2"/><circle cx="32" cy="33" opacity=".2" r="22"/><circle cx="32" cy="32" fill="#fff" r="22"/><circle cx="32" cy="32" fill="#3ca2e4" r="17"/><path d="m26 22.9997h12v10h-12v10h12" style="opacity:.2;fill:none;stroke:#000;stroke-width:6;stroke-linecap:round;stroke-linejoin:round"/><path d="m26 22h12v10h-12v10h12" fill="none" stroke="#ffc34c" stroke-linecap="round" stroke-linejoin="round" stroke-width="6"/><path d="m26 19a3.0003 3.0003 0 0 0 -2.998047 3.492188 3.0003 3.0003 0 0 1 2.998047-2.492188h12a3.0003 3.0003 0 0 1 3 3v-1a3.0003 3.0003 0 0 0 -3-3zm0 10a3.0003 3.0003 0 0 0 -3 3v1a3.0003 3.0003 0 0 1 3-3h9v-1zm3 10v1h9a3.0003 3.0003 0 0 1 2.998047 2.505859 3.0003 3.0003 0 0 0 -2.998047-3.505859z" fill="#fff" fill-rule="evenodd" opacity=".2"/></svg>