<svg height="64" width="64" xmlns="http://www.w3.org/2000/svg"><path d="m60 8.9507124c-3.576884 1.8483956-7.868308 3.6763096-12.550782 3.7092876-11.834472.083349-25.899372-3.583274-35.620702-3.8-3.1404814-.0700134-5.8163028 1.217089-7.828516 2.584462v46.755538c0 1.5512 1.2488 2.8 2.8 2.8h50.4c1.5512 0 2.8-1.2488 2.8-2.8z" opacity=".2"/><path d="m60 7.9507124c-3.576884 1.8483952-7.868308 3.6763096-12.550782 3.7092876-11.834472.083349-25.899372-3.583274-35.620702-3.8-3.1404814-.0700134-5.8163028 1.2170888-7.828516 2.584462v46.755538c0 1.5512 1.2488 2.8 2.8 2.8h50.4c1.5512 0 2.8-1.2488 2.8-2.8z" fill="#2c5a98"/><path d="m6.8 4.9986717c-1.5512 0-2.8 1.2488-2.8 2.8v3.7843753c2.0122132-1.367374 4.6880346-2.6543887 7.828516-2.5843753 9.72133.2167262 23.78623 4.0833493 35.620702 4.0000003 4.682474-.032978 8.973898-2.06098 12.550782-3.9093751v-1.2906252c0-1.5512-1.2488-2.8-2.8-2.8z" opacity=".2"/><path d="m6.8 4c-1.5512 0-2.8 1.2488-2.8 2.8v3.784375c2.0122132-1.3673738 4.6880346-2.6543884 7.828516-2.584375 9.72133.2167258 23.78623 4.083349 35.620702 4 4.682474-.032978 8.973898-2.06098 12.550782-3.909375v-1.290625c0-1.5512-1.2488-2.8-2.8-2.8z" fill="#28bae4"/><path d="m28.568 14.9998-.621592.0164s1.25338 1.642673 2.141016 2.341684l-.12852.54961c-.0714.611368-.15274 1.267564-.17774 1.458124l-.04376.344532-.33906-.240624-.61797-.240626.243358.401952.243362.39922h-.620704-.620704v-.393752-.391014l-.593358.232422-.596096.232422.20508.333594.202342.333592-.801172.771094-.798436.571486.295312.330858.295312.33086-.522266-.30625-.525-.30625.686328-.76836.683596-.768358-.360938-.03554c-.19814-.0186-.726632-.07628-1.17578-.12852l-.81758-.0957-.05468.732812-.05196.732812-.967968.913282-.965234.910546-.89961 3.639454c-.49429 2.001226-1.07472 4.209982-1.175226 4.667534l-.18318.831262c.899992.37808 1.700304.554442 2.55518.60429.224698-.141.533006-.755194.683594-1.364454.15058-.60926.48236-1.301518.622882-1.301518h.257032l.03554 1.3125c.0198.722664.333756 2.369182.697266 3.658592.36352 1.28941.551324 2.790412.658984 3.311328l.200052.96797-.404688.254296-.404688.254298.64633.371874.226954.371876-.571484-.22422-.56875-.221484-.902346 1.889454-.899608 1.886718-1.952344 1.271484-1.255079 1.274218.314454 1.410938.311719 1.413672-.06562 2.253126-.06288 2.25586.287108.473046.289838.475778h.724608 1.42461l.891406-.467578.555078-.735548-.746484-.710938c-.1554-.391958-.370912-1.853758-.478516-3.245702l-.19414-2.529298 1.08828-1.889452 1.091016-1.889452 1.665234-1.64336 1.665234-1.646094.248828-2.135546.24883-2.135548-.48125.276172-.478516.273438.453906-.500392.453906-.500388.940624.492186c.516206.27086 1.519624.93177 2.23125 1.471094l1.293362.98164v1.017188 1.014452l.987108 2.1875c.54184 1.202806 1.101544 1.691992 1.246876 2.3094.14526.617406.428756 1.33503.628904 1.59414l.363672.470312 1.11836-.325388c.614994-.1791 1.512702-.537226 1.99336-.798438.480658-.261214 2.505112.0349 4.50078-.562134l3.628516-1.085548.1668-.505858.16406-.705212h-1.378126c-.757306 0-1.933332.11332-2.61406.251564l-1.23594.25156.213282.35.21328.35-.620702-.240622-.617968-.240626-1.59961.650782c-.87988.357504-1.950406.541642-2.346092.648046h-.74375l-.637112-1.416666-.637108-1.616014-.254296-2.203906-.257032-2.206642-1.572266-2.141014c-.864932-1.177886-2.139002-2.65084-2.832814-3.273046l-1.279692-1.238164c.467864.0036.51572.05352.983362-.0138l-.289842-.1427-.09844-.50586.497656.10118.497656.10118-.10664-.661718-.10664-.06244.604298-.235154c.21558-.0839.396124-.41214.503126-.582312h-.497658-.596092v-1.014654c0-.333538.11416-.607032.254296-.607032.602886.410496 1.130908.491428 1.709996.738042.562816-.423222 1.813848-.641942 2.46181-.896874l.2625-1.85664c.14448-1.020928-.0515-2.032046.07972-2.247658l.240624-.39102-.596092-.604296c-.326582-.33161-1.418976-.681684-1.696622-.776562l-.50586-.17226.514062-.628908.10664-.552342.04922-1.246877c-.106682-.597803-.255904-.922515-.530456-1.258523-.719964-.418102-.967128-.510044-1.75-.434766l-1.233202-.0164zm3.432262 7.253324h.37461c.20591 0 .97466.19108.97466.426562v.429298l.369142-.23242.371874-.232424.28711.473046.289842.473048-.459372-.28711-.13672.0082-.05468.844924v.868742l-.66719.02462v.0028l-1.36841-.03282c-.02494-.16676.08514-.99007.0138-1.601556z" opacity=".2"/><path d="m28.568 13.9998-.621592.0164s1.25338 1.642673 2.141016 2.341684l-.12852.54961c-.0714.611368-.15274 1.267563-.17774 1.458124l-.04376.344532-.33906-.240625-.61797-.240625.243358.401953.243362.399218h-.620704-.620704v-.39375-.391014l-.593358.232421-.596096.232422.20508.333593.202342.333594-.801172.771093-.798436.571486.295312.330858.295312.33086-.522266-.30625-.525-.30625.686328-.76836.683596-.768358-.360938-.03555c-.19814-.01854-.726632-.07629-1.17578-.12852l-.81758-.0957-.05468.732812-.05196.732812-.967968.913282-.965234.910546-.89961 3.639454c-.49429 2.001226-1.07472 4.209982-1.175226 4.667534l-.18318.831262c.899992.37808 1.700304.554442 2.55518.60429.224698-.141.533006-.755194.683594-1.364454.15058-.60926.48236-1.301518.622882-1.301518h.257032l.03554 1.3125c.0198.722664.333756 2.369182.697266 3.658592.36352 1.28941.551324 2.790412.658984 3.311328l.200052.96797-.404688.254296-.404688.254298.64633.371874.226954.371876-.571484-.22422-.56875-.221484-.902346 1.889454-.899608 1.886718-1.952344 1.271484-1.255079 1.274218.314454 1.410938.311719 1.413672-.06562 2.253126-.06288 2.25586.287108.473046.289838.475788h.724608 1.42461l.891406-.467578.555078-.735548-.746484-.710938c-.1554-.391958-.370912-1.853758-.478516-3.245702l-.19414-2.529298 1.08828-1.889452 1.091016-1.889452 1.665234-1.64336 1.665234-1.646094.248828-2.135546.24883-2.135548-.48125.276172-.478516.273438.453906-.500392.453906-.500388.940624.492186c.516206.27086 1.519624.93177 2.23125 1.471094l1.293362.98164v1.017188 1.014452l.987108 2.1875c.54184 1.202806 1.101544 1.691992 1.246876 2.3094.14526.617406.428756 1.33503.628904 1.59414l.363672.470312 1.11836-.325388c.614994-.1791 1.512702-.537226 1.99336-.798438.480658-.261214 2.505112.0349 4.50078-.562134l3.628516-1.085548.1668-.505858.16406-.705212h-1.378126c-.757306 0-1.933332.11332-2.61406.251564l-1.23594.25156.213282.35.21328.35-.620702-.240622-.617968-.240626-1.59961.650782c-.87988.357504-1.950406.541642-2.346092.648046h-.74375l-.637112-1.416666-.637108-1.616014-.254296-2.203906-.257032-2.206642-1.572266-2.141014c-.864932-1.177886-2.139002-2.65084-2.832814-3.273046l-1.279692-1.238164c.467864.0036.51572.05352.983362-.0138l-.289842-.1427-.09844-.50586.497656.10118.497656.10118-.10664-.661718-.10664-.06244.604298-.235154c.21558-.0839.396124-.41214.503126-.582312h-.497658-.596092v-1.014654c0-.333538.11416-.607032.254296-.607032.602886.410496 1.130908.491428 1.709996.738042.562816-.423222 1.813848-.641942 2.46181-.896874l.2625-1.85664c.14448-1.020928-.0515-2.032046.07972-2.247658l.240624-.39102-.596092-.604296c-.326582-.33161-1.418976-.681684-1.696622-.776562l-.50586-.17226.514062-.628907.10664-.552344.04922-1.246876c-.106682-.597803-.255904-.922515-.530456-1.258523-.719964-.418102-.967128-.510044-1.75-.434766l-1.233202-.0164zm3.432262 7.253324h.37461c.20591 0 .97466.19108.97466.426562v.429298l.369142-.23242.371874-.232424.28711.473046.289842.473048-.459372-.28711-.13672.0082-.05468.844924v.868742l-.66719.02462v.0028l-1.36841-.03282c-.02494-.16676.08514-.99007.0138-1.601556z" fill="#fff"/><path d="m6.8007812 4c-1.5512 0-2.8007812 1.2495812-2.8007812 2.8007812v1c0-1.5512 1.2495812-2.8007812 2.8007812-2.8007812h50.3984378c1.5512 0 2.800781 1.2495813 2.800781 2.8007812v-1c0-1.5512-1.249581-2.8007812-2.800781-2.8007812z" fill="#fff" opacity=".2"/></svg>