<svg height="64" viewBox="0 0 64 64" width="64" xmlns="http://www.w3.org/2000/svg"><circle cx="32" cy="33" opacity=".2" r="28"/><circle cx="32" cy="31.999" fill="#7861e6" r="28"/><path d="m32 3.9980469a28.000487 28.000487 0 0 0 -28 28.0019531 28.000487 28.000487 0 0 0  .0175781.492188 28.000487 28.000487 0 0 1 27.9824219-27.4941411 28.000487 28.000487 0 0 1 27.974609 27.4902341 28.000487 28.000487 0 0 0  .025391-.488281 28.000487 28.000487 0 0 0 -28-28.0019531z" fill="#fff" opacity=".2"/><circle cx="32" cy="33" opacity=".2" r="20"/><circle cx="32" cy="31.999" fill="#acc0ff" r="20"/><path d="m24.000348 27.000108 8.000139 12.000209 22.000383-28.000487" style="opacity:.2;fill:none;stroke:#000;stroke-width:12.000209;stroke-linecap:round;stroke-linejoin:round"/><path d="m24.000348 25.999374 8.000139 12.000208 22.000383-28.0004868" fill="none" stroke="#3f3f3f" stroke-linecap="round" stroke-linejoin="round" stroke-width="12.000209"/></svg>