<svg height="32" width="32" xmlns="http://www.w3.org/2000/svg"><rect fill="#606060" fill-rule="evenodd" height="28.203388" ry="5.575182" width="28.203388" x="1.898306" y="1.898306"/><g stroke-width=".657447"><path d="m15.342528 9.7542961c-4.602126 0-3.531709 4.0570289-5.888002 5.3234089-2.39051 1.35622-1.073461 2.570338-.686464 3.880843.652899 2.185176 2.481832.641288 7.889359-.657446 5.407264-1.298436 6.569999-1.102219 5.917019-3.287233-.391533-1.295891.893546-2.496906-1.900772-2.611268-2.271194.124397-2.043908-2.6483049-5.33114-2.6483049z" fill="#b3b3b3"/><ellipse cx="10.479826" cy="20.283594" fill="#ffcb00" rx="10.068794" ry="4.129422" transform="matrix(.97235312 -.23351535 .28643384 .95810002 0 0)"/><ellipse cx="11.980068" cy="23.27281" fill="#fff" rx="4.70929" ry="2.072929" transform="matrix(.97262806 -.23236752 .21506239 .97660031 0 0)"/></g></svg>