<svg height="12pt" viewBox="0 0 12 12" width="12pt" xmlns="http://www.w3.org/2000/svg"><g fill="#d1d9e3"><path d="m6 2.183594c-.648438 0-1.1875.429687-1.363281 1.023437l2.796875 2.792969v-2.386719c0-.792969-.640625-1.429687-1.433594-1.429687zm-1.433594 2.625v1.191406c0 .792969.640625 1.433594 1.433594 1.433594.335938 0 .640625-.121094.882812-.3125zm-1.429687.714844v.476562c0 1.417969 1.03125 2.589844 2.386719 2.820312v.996094h.953124v-.996094c.542969-.089843 1.027344-.335937 1.417969-.683593l-.671875-.675781c-.328125.277343-.753906.449218-1.222656.449218-1.0625 0-1.910156-.847656-1.910156-1.910156v-.476562zm4.773437 0v .476562c0 .144531-.027344.285156-.058594.421875l.75.746094c.164063-.355469.261719-.75.261719-1.167969v-.476562zm0 0"/><path d="m3.375 2.660156 5.964844 5.964844-.714844.714844-5.964844-5.964844zm0 0"/><path d="m3.375 2.660156 5.964844 5.964844-.714844.714844-5.964844-5.964844zm0 0"/></g></svg>