<svg height="12pt" viewBox="0 0 12 12" width="12pt" xmlns="http://www.w3.org/2000/svg" xmlns:xlink="http://www.w3.org/1999/xlink"><filter id="a" height="100%" width="100%" x="0%" y="0%"><feColorMatrix in="SourceGraphic" type="matrix" values="0 0 0 0 1 0 0 0 0 1 0 0 0 0 1 0 0 0 1 0"/></filter><mask id="b"><g filter="url(#a)"><path d="m0 0h12v12h-12z" fill-opacity=".301961"/></g></mask><clipPath id="c"><path d="m0 0h12v12h-12z"/></clipPath><g clip-path="url(#c)" mask="url(#b)"><path d="m3.816406 2.453125v1.09375h4.367188v-1.09375zm-1.089844 1.636719c-.273437 0-.542968.273437-.542968.546875h7.632812c0-.273438-.269531-.546875-.542968-.546875zm1.089844 3.820312v1.636719h4.367188v-1.636719zm0 0" fill="#d1d9e3"/></g><g fill="#d1d9e3"><path d="m4.363281 6.273438c0 .601562-.488281 1.089843-1.089843 1.089843-.601563 0-1.089844-.488281-1.089844-1.089843 0-.601563.488281-1.089844 1.089844-1.089844.601562 0 1.089843.488281 1.089843 1.089844zm0 0"/><path d="m7.089844 6.273438c0 .601562-.488282 1.089843-1.089844 1.089843s-1.089844-.488281-1.089844-1.089843c0-.601563.488282-1.089844 1.089844-1.089844s1.089844.488281 1.089844 1.089844zm0 0"/><path d="m9.816406 6.273438c0 .601562-.488281 1.089843-1.089844 1.089843-.601562 0-1.089843-.488281-1.089843-1.089843 0-.601563.488281-1.089844 1.089843-1.089844.601563 0 1.089844.488281 1.089844 1.089844zm0 0"/></g></svg>