<svg height="12pt" viewBox="0 0 12 12" width="12pt" xmlns="http://www.w3.org/2000/svg"><path d="m5.453125 2.183594c-.902344 0-1.636719.730468-1.636719 1.632812s.734375 1.636719 1.636719 1.636719c.90625 0 1.636719-.734375 1.636719-1.636719s-.730469-1.632812-1.636719-1.632812zm0 4.363281c-3.269531 0-3.269531 2.179687-3.269531 2.179687v.546876h3.683594c-.269532-.402344-.414063-.878907-.414063-1.363282 0-.480468.140625-.949218.40625-1.347656-.132813-.011719-.261719-.015625-.40625-.015625zm0 0" fill="#d1d9e3"/><path d="m7.910156 6c-1.054687 0-1.910156.855469-1.910156 1.910156 0 1.054688.855469 1.90625 1.910156 1.90625 1.054688 0 1.90625-.851562 1.90625-1.90625 0-1.054687-.851562-1.910156-1.90625-1.910156zm-1.363281 1.636719h2.726563v.546875h-2.726563zm0 0" fill="#5294e2"/></svg>