<svg height="48" width="48" xmlns="http://www.w3.org/2000/svg"><path d="m24 5a20 20 0 0 0 -20 20 20 20 0 0 0 20 20 20 20 0 0 0 20-20 20 20 0 0 0 -20-20z" opacity=".2"/><path d="m24 4a20 20 0 0 0 -20 20 20 20 0 0 0 20 20 20 20 0 0 0 20-20 20 20 0 0 0 -20-20z" fill="#ffbf23"/><path d="m24 13a9 12 0 0 1 9 12 9 12 0 0 1 -9 12 9 12 0 0 1 -9-12 9 12 0 0 1 9-12z" opacity=".2"/><path d="m24 12a9 12 0 0 1 9 12 9 12 0 0 1 -9 12 9 12 0 0 1 -9-12 9 12 0 0 1 9-12z" fill="#fff"/><path d="m24 25 1.811626 6.884178 1.811626 6.884179 2.898601-2.898601 8.407546 8.407545c.963599.963598 2.515524.963598 3.479123 0l .86878-.868779c.963597-.963599.963597-2.515524 0-3.479123l-8.407546-8.407546 2.900603-2.898602-6.88618-1.811625z" opacity=".2"/><path d="m24 24 1.8125 6.884766 1.810547 6.884765 2.900391-2.898437 8.40625 8.40625c.963576.963576 2.514939.963576 3.478515 0l .869141-.869141c.963576-.963576.963576-2.514939 0-3.478515l-8.40625-8.40625 2.898437-2.900391-6.884765-1.810547z" fill="#336f33"/><path d="m24 4a20 20 0 0 0 -20 20 20 20 0 0 0  .0214844.417969 20 20 0 0 1 19.9785156-19.417969 20 20 0 0 1 19.978516 19.582031 20 20 0 0 0  .021484-.582031 20 20 0 0 0 -20-20z" fill="#fff" opacity=".2"/></svg>