<svg height="16" viewBox="0 0 16 16" width="16" xmlns="http://www.w3.org/2000/svg"><path d="m5.3808594.00195313c-.7444144.0330147-1.4895889.34834941-2.0019532 1.08203127l.1933594-.23632815-3.0488281 3.19921875-.0859375.1230469c-.55286994.7902848-.50399667 2.0348697.00390625 2.7558593.38668863.5489209.95879565.81818 1.55859375.9472657v2.2441411c0 1.777306 1.3331289 2.882812 2.9335938 2.882812h1.1328124c.1292985 0 .208738-.110798.3339844-.125l2.171875 2.277344-.1933594-.236328c.513223.734892 1.2602136 1.049904 2.0058598 1.082031.827128.03588 1.667759-.267677 2.236328-1.082031l-.19336.236328 3.048828-3.199219.08594-.123047c.552868-.790285.503995-2.0348709-.003908-2.7558592-.386689-.5489199-.958797-.8181799-1.558594-.9472657v-2.2441406c0-1.7773098-1.333125-2.8828125-2.933594-2.8828125h-1.1328122c-.1292988 0-.2087377.1107985-.3339844.125l-2.171875-2.27734375.1933594.23632815c-.5686516-.81447809-1.4096336-1.1177564-2.2363282-1.08203127h-.00391z" fill="#4f4f4f"/><path d="m5.4702806 2.0006638c-.1873497.00807-.3570454.094068-.4509429.228525l-2.9438873 3.0873044c-.2141149.3060607.052999.6839515.4802246.6835068h1.4438877v4.117955c0 .488694.4717913.882045.9330823.882045h1.1338354c.4612907 0 .9330823-.393357.9330823-.882045v-4.117955h1.4438877c.4272255.00045.6943389-.3774461.4802246-.6835068l-2.943887-3.0873044c-.1043621-.1494777-.3012593-.2377903-.5095074-.228525z" fill="#ffd42b"/><path d="m9.9330824 4.9999979c-.461291 0-.9330824.3933575-.9330824.8820445v4.1179576h-1.4438877c-.4272256-.00045-.69434.377446-.4802247.683507l2.9438904 3.0873c.0939.134457.263594.220453.450943.228525.208249.0093.405146-.07905.509507-.228525l2.943884-3.0873c.214115-.306061-.053-.683951-.480225-.683507h-1.443887v-4.1179576c0-.4886938-.471792-.8820445-.933082-.8820445z" fill="#71d716"/></svg>