<svg height="16" width="16" xmlns="http://www.w3.org/2000/svg"><path d="m1.9998919 0a2.0000919 2.0002 0 0 0 -1.80068393 2.8710938c-.07387928-.152523.35937901.9298347.76753666 2.0898437.40815767 1.160009.91229127 2.6246363 1.40031497 4.0585937.9760475 2.8679148 1.8924758 5.6132818 1.8924758 5.6132808a2.0000919 2.0002 0 0 0 3.3709117.71875l5.3668979-5.8593745a2.0000919 2.0002 0 0 0  .380838-.6035156l2.476429-6.140625a2.0000919 2.0002 0 0 0 -1.855368-2.7480469z" fill="#4f4f4f" fill-rule="evenodd"/><path d="m2 2c .17689.6025452 3.6739924 10.6941 4.15625 12l1.84375-2.122v-9.878zm7.28125 0c-.0247425.2486152-.1467259 2.1197349-.2871094 4.3730469-.1494274 2.3986001-.286708 4.5076041-.3027344 4.6875001-.0069.0773-.00894.136677-.00977.183594l.9882857-1.080079c.3030696-1.2848154 1.6215311-7.480636 1.7343751-8.164062zm2.708984 0c-.154429.5843348-1.658696 6.7732105-1.863281 7.6640625l.552735-.6015625c.420697-1.22838 2.074174-6.4177124 2.248046-7.0625zm1.416016 0c-.195444.4840188-2.038274 5.8531362-2.244141 6.5351562l.361329-.3945312c.566539-1.3133917 2.330021-5.6732478 2.476562-6.140625z" fill="#feab07"/></svg>