<svg height="16" width="16" xmlns="http://www.w3.org/2000/svg"><g fill-rule="evenodd"><path d="m16 8.0000062c0 4.4182778-3.581722 7.9999998-8.0000002 7.9999998-3.3079108 0-3.6743447-2.053891-4.8923715-4.917192-.4088552-.961125-3.10762826-1.9724407-3.10762826-3.0828078 0-4.4182779 3.58172186-7.99999992 7.99999976-7.99999992 2.0920302 0 3.0952932 1.63490022 4.5208002 2.94950642 1.585104 1.4617863 3.4792 2.7242455 3.4792 5.0504935z" fill="#e14e4e"/><path d="m8.0000258-.00000592v6.00000612c2.8895752 0 5.6000832.3232164 7.9404902 1.1094908-.453034-4.0446531-3.870548-7.10451472-7.9404902-7.10949692z" fill="#4f4f4f"/><path d="m8.0000258 6.0000002c-2.8920088 0-5.6047186.3239404-7.946472 1.111444-.0343196.2949604-.05218996.5916024-.0535278.8885496 0 4.4182782 3.5817219 8.0000002 7.9999998 8.0000002z" fill="#4f4f4f"/><path d="m8.3649178 15.999408c6.2141492-.04471 7.1070462-2.241892 7.4637182-3.044548.37762-.849796.149982-2.95486-.871099-2.95486-2.973573 0-3.767979 2-6.4741614 2-1.1331679-.021904-1.8419447-1.560987-2.187583-2.2531883-.3422096-.6853352-.8750334-2.7688051-.8750334-2.7688051l-1.4403613.37058s.6586809 2.0557379.6849322 2.7435584c.046485 1.217988-.2625104 1.938522-.9450361 1.907855-.6650613-.029884-1.0964488-.700174-1.8329783-.89994-.7352377-.199416-1.65200088.700662-1.85786199 1.544712-.07483243.306819.0029441.591272.12091551.871168.42894687 1.017683 2.92772888 2.521505 8.21454858 2.483468z" fill="#e4e4e4"/></g><rect fill="#e4e4e4" height="13.6" rx=".8" transform="matrix(.9603695 -.27873001 .27873001 .9603695 0 0)" width="1.6" x="1.66" y=".76"/></svg>