<svg height="16" viewBox="0 0 16 16" width="16" xmlns="http://www.w3.org/2000/svg"><circle cx="8" cy="8" fill="#c44652" r="8"/><path d="m4 1.5v1.9824219l-.4550781.7070312c-.9553982.5518786-1.8178591.7216698-2.5449219 1.3105469l1.5 1-2.5 1.5 3 .5-2 2.5 2-.482422v.982422l2-.5-.5 1 2.7382812-1.111328.7617188.111328.7617188-.111328 2.7382812 1.111328-.5-1 2 .5v-.982422l2 .482422-2-2.5 3-.5-2.5-1.5 1.5-1c-.727063-.5888771-1.589524-.7586683-2.544922-1.3105469l-.455078-.7070312v-1.9824219l-2 1.2402344v-.7695313l-1 .7695313v-.7695313l-1 .7695313-1-.7695313v.7695313l-1-.7695313v.7695313z" fill="#393939"/><path d="m2.5 1.0000003-.4980084.5974247c-.027749.9073824.2383205 1.7134385.5578453 2.5017161.5555803 1.3135699 2.0568167 1.8014118 2.9626738 2.6092524.5747173.5249292.7295336.9877952.8117664 1.4502482.095256.5356917.1527306 1.1164474.2125125 2.0103343.1999073 1.163244.3088405 3.058621.4586205 3.69059.1372144.146653.9945895.140395.9945895.140395s.8573751.0062.9945896-.140395c.1497799-.631969.2587131-2.527346.4586205-3.69059.0597823-.8938869.1172565-1.4746426.2125124-2.0103343.0822324-.462453.2370492-.925319.8117669-1.4502482.905856-.8078406 2.407093-1.2956825 2.962673-2.6092524.319525-.7882776.585595-1.5943337.557846-2.5017161l-.498008-.5974247v.5959312l-2.49748 1.424605-3.0025204-.041073-3.0025197.041073-2.4974799-1.424605z" fill="#505050"/><path d="m5.089304 4a1.1119557 1.4364671 0 0 0 -.089304.563533 1.1119557 1.4364671 0 0 0 1.1119556 1.436467 1.1119557 1.4364671 0 0 0  .8880444-.5749241z" fill="#eb6b00"/><path d="m9.2000701 8.4026294c-.4166069.1599837-.7721098.4142564-1.2000705.3823519v.00821c-.4279607.0319078-.7834635-.2223637-1.2000703-.3823474l.4101804 4.1707711c.031254.312021.038278.353713.3109555.382351.178188.02862.3149892.03947.4789344.0351v-.0082c.1639453.0044.3007465-.0065.4789346-.0351.2726787-.02863.279702-.06959.3109554-.381605z" opacity=".4"/><path d="m7.5999761 11c-.1736469.136771-.325353.778301-.4492451.978216l.059379.603399c.031254.312021.038278.353713.3109555.382351.057785.0092.1071858.01378.1586033.01941h.3203309.2523585c.071595-.0059.1440307-.01437.2265761-.02763.2726787-.02863.279702-.06959.3109554-.381606l.058598-.596678c-.1237951-.199559-.2750692-.840888-.4484646-.977462v1.026352h-.4000235-.4000235z" fill="#fff"/><path d="m9.2000701 7.9955194s-.7669554.5032024-1.2000701.5044806-1.1985082-.4955206-1.1985082-.4955206c.0464074.5373313.3502869 1.6424995.7984843 1.9955206v-1h .4000235.4000235v1c .4506493-.3549531.7562307-1.4653312.800047-2.0044806z" fill="#fff"/><path d="m10.910696 4a1.1119557 1.4364671 0 0 1  .0893.563533 1.1119557 1.4364671 0 0 1 -1.1119516 1.436467 1.1119557 1.4364671 0 0 1 -.8880444-.5749241z" fill="#eb6b00"/></svg>