<svg height="32" width="32" xmlns="http://www.w3.org/2000/svg"><path d="m27.90368 6.7271308c1.168734-.0007388 2.109629.940894 2.109629 2.1096295v17.6105187c0 1.168735-.940895 2.109629-2.109629 2.109629h-23.807359c-1.168735 0-2.109682-.940894-2.10963-2.109629l.000732-16.244506.000731-5.0669078c0-.9377964.754977-1.6927733 1.692773-1.6927733h9.09082c.937797 0 1.704839.3713213 2.299888 1.096152l1.801865 2.1948599z" fill="#f5ce46"/><g fill="#444015" stroke="#f5ce46" stroke-linecap="round" stroke-linejoin="round" stroke-width=".5"><circle cx="18" cy="17.012712" r="2.25"/><circle cx="22.5" cy="21.012712" r="1.25"/><circle cx="19.75" cy="19.762712" r="2.5"/><circle cx="10.5" cy="20.012712" r="2.25"/><circle cx="12.75" cy="15.262712" r="1.5"/><circle cx="13" cy="18.012712" r="2.75"/><circle cx="12.75" cy="21.012712" r="1.25"/><circle cx="15.25" cy="15.762712" r="2.5"/><circle cx="15.999" cy="19.013711" r="3.249"/></g></svg>