<svg height="22" width="22" xmlns="http://www.w3.org/2000/svg"><path d="m602.53 934.27v2.25c-3.1734.39894-5.7497 2.7342-6.5312 5.7969h2.0059c.82341-2.2107 3.0041-3.9341 5.3867-3.918.0578-.002.11616-.002.17383-.002.86503.005 1.7156.22099 2.4863.60937 1.3883.63033 2.4201 1.8762 2.9238 3.3106h2.0215c-.78152-3.0626-3.3578-5.3979-6.5312-5.7969v-2.25h-1.9356zm.9707 5.5762c-2.3546 0-4.2637 1.9164-4.2637 4.3008 0 0-.0288.40327.0937.85937h6.5469c-.17675.49799-.49333.9459-.92383 1.2441-.9904.78868-2.4903.50208-3.334-.38281h-2.0273c.65817 1.518 2.1605 2.5801 3.9082 2.5801 2.3546 0 4.2617-1.9259 4.2617-4.3008 0 0 .00082-.44129-.084-.85938h-6.5508c.36857-.93967 1.2486-1.7021 2.2715-1.7109.0512-.002.10327-.003.1543-.002.68566.014 1.3499.34192 1.8125.85156h2.041c-.65816-1.518-2.1585-2.5801-3.9062-2.5801zm-7.5 6.38c.78152 3.0626 3.3578 5.3979 6.5312 5.7969v2.25h1.9356v-2.25c3.1734-.39893 5.7497-2.7342 6.5312-5.7969h-1.9941c-.78261 2.3287-3.2009 4.0025-5.6465 3.916-2.3811.0121-4.5423-1.7028-5.3476-3.916z" fill="#d3dae3" transform="translate(-593 -933.27)"/></svg>