<svg height="22" width="22" xmlns="http://www.w3.org/2000/svg"><path d="m3.8008 3c-.4432 0-.8008.3576-.8008.8008v14.398c0 .443.3576.801.8008.801h14.398c.443 0 .801-.358.801-.801v-14.398c0-.4434-.358-.801-.801-.801h-14.398zm1.873 2h10.652c.373 0 .674.2406.674.5391v3.9218c0 .2985-.301.5391-.674.5391h-10.652c-.3732 0-.674-.2406-.674-.5391v-3.9218c0-.2985.3008-.5391.6738-.5391zm3.5762 2c-.1385 0-.25.1115-.25.25v.5c0 .1385.1115.25.25.25h3.5c.138 0 .25-.1115.25-.25v-.5c0-.1385-.112-.25-.25-.25zm-3.5762 5h10.652c.373 0 .674.241.674.539v3.9219c0 .298-.301.539-.674.539h-10.652c-.3732 0-.674-.241-.674-.539v-3.922c0-.298.3008-.539.6738-.539zm3.5762 2c-.1385 0-.25.112-.25.25v.5c0 .138.1115.25.25.25h3.5c.138 0 .25-.112.25-.25v-.5c0-.138-.112-.25-.25-.25z" fill="#d3dae3"/></svg>