<svg height="36pt" viewBox="0 0 36 36" width="36pt" xmlns="http://www.w3.org/2000/svg"><path d="m8.40625 2.136719h19.1875c3.460938 0 6.269531 2.808593 6.269531 6.269531v19.1875c0 3.460938-2.808593 6.269531-6.269531 6.269531h-19.1875c-3.460938 0-6.269531-2.808593-6.269531-6.269531v-19.1875c0-3.460938 2.808593-6.269531 6.269531-6.269531zm0 0" fill="#70c74d" fill-rule="evenodd"/><g fill="#fff"><path d="m9.5625 14.0625s-.539062-.011719-1.09375.269531c-.558594.277344-1.15625.949219-1.15625 1.980469h1.125c0-1.125 1.125-1.125 1.125-1.125s1.125 0 1.125 1.125c0 .421875-.144531.738281-.40625 1.078125-.265625.335937-.65625.667969-1.078125 1.019531-.421875.351563-.875.722656-1.242187 1.195313-.371094.46875-.648438 1.066406-.648438 1.769531v.5625h4.5v-1.125h-3.273438c.070313-.175781.171876-.34375.304688-.515625.265625-.335937.65625-.667969 1.078125-1.019531.421875-.351563.875-.722656 1.242187-1.195313.371094-.46875.648438-1.066406.648438-1.769531 0-1.03125-.597656-1.703125-1.15625-1.980469-.554688-.277343-1.09375-.269531-1.09375-.269531zm0 0" fill-rule="evenodd"/><path d="m15.1875 14.0625c-1.238281 0-2.25 1.011719-2.25 2.25v3.375c0 1.238281 1.011719 2.25 2.25 2.25s2.25-1.011719 2.25-2.25v-3.375c0-1.238281-1.011719-2.25-2.25-2.25zm0 1.125c.632812 0 1.125.492188 1.125 1.125v3.375c0 .632812-.492188 1.125-1.125 1.125s-1.125-.492188-1.125-1.125v-3.375c0-.632812.492188-1.125 1.125-1.125zm0 0"/><path d="m19.6875 14.0625v3.375h2.25v-3.375h1.125v7.875h-1.125v-3.375h-3.375v-4.5z" fill-rule="evenodd"/><path d="m26.4375 14.0625c-1.238281 0-2.25 1.011719-2.25 2.25 0 .675781.308594 1.273438.78125 1.6875-.472656.414062-.78125 1.011719-.78125 1.6875 0 1.238281 1.011719 2.25 2.25 2.25s2.25-1.011719 2.25-2.25c0-.675781-.308594-1.273438-.78125-1.6875.472656-.414062.78125-1.011719.78125-1.6875 0-1.238281-1.011719-2.25-2.25-2.25zm0 1.125c.632812 0 1.125.492188 1.125 1.125s-.492188 1.125-1.125 1.125-1.125-.492188-1.125-1.125.492188-1.125 1.125-1.125zm0 3.375c.632812 0 1.125.492188 1.125 1.125s-.492188 1.125-1.125 1.125-1.125-.492188-1.125-1.125.492188-1.125 1.125-1.125zm0 0"/></g></svg>