<svg height="36pt" viewBox="0 0 36 36" width="36pt" xmlns="http://www.w3.org/2000/svg" xmlns:xlink="http://www.w3.org/1999/xlink"><clipPath id="a"><path d="m0 0h36v36h-36z"/></clipPath><g fill-rule="evenodd"><path d="m21.109375 33.863281v-16.636719c0-.4375-.175781-.828124-.460937-1.113281-.285157-.28125-.675782-.460937-1.113282-.460937h-16.78125c-.242187 0-.414062.160156-.617187.257812v11.679688c0 3.476562 2.796875 6.273437 6.273437 6.273437zm0 0" fill="#00c5ec"/><path d="m21.109375 18.972656v14.890625h6.484375c3.472656 0 6.269531-2.796875 6.269531-6.273437v-8.625c-.003906 0-.011719.007812-.015625.007812zm0 0" fill="#c2c2c2"/><path d="m17.25 2.136719h-8.839844c-3.476562 0-6.273437 2.796875-6.273437 6.269531v7.503906c.203125-.097656.375-.257812.617187-.257812h14.425782v-13.347656c0-.066407.0625-.105469.070312-.167969zm0 0" fill="#c2c2c2"/><path d="m17.25 2.136719c-.007812.0625-.070312.101562-.070312.167969v13.347656h2.355468c.4375 0 .828125.179687 1.113282.460937.285156.285157.460937.675781.460937 1.113281v1.746094h12.738281c.003906 0 .011719-.007812.015625-.007812v-10.558594c0-3.472656-2.796875-6.269531-6.269531-6.269531zm0 0" fill="#d8dadc"/></g><path d="m29.035156 10.667969v.589843h-5.566406c.050781.835938.300781 1.472657.75 1.910157.453125.433593 1.078125.652343 1.882812.652343.464844 0 .914063-.058593 1.347657-.171874.4375-.113282.875-.285157 1.304687-.515626v1.148438c-.433594.183594-.878906.324219-1.335937.417969-.457031.097656-.921875.144531-1.390625.144531-1.175782 0-2.105469-.339844-2.796875-1.023438-.683594-.6875-1.023438-1.613281-1.023438-2.777343 0-1.207031.324219-2.164063.972657-2.871094.652343-.710937 1.53125-1.066406 2.636718-1.066406.992188 0 1.777344.320312 2.351563.960937.578125.636719.867187 1.503906.867187 2.601563m-1.210937-.355469c-.007813-.664062-.195313-1.191406-.558594-1.585938-.359375-.394531-.839844-.59375-1.433594-.59375-.675781 0-1.21875.191407-1.625.574219-.40625.378907-.636719.917969-.699219 1.609375zm-1.460938-5.871094h1.335938v1.328125h-1.335938zm-2.574219 0h1.335938v1.328125h-1.335938z" fill="#9d9d9d"/><g clip-path="url(#a)"><path d="m12.769531 24.96875c-1.058593 0-1.789062.117188-2.195312.351562-.40625.234376-.609375.636719-.609375 1.203126 0 .449218.148437.808593.453125 1.078124.308593.261719.722656.394532 1.25.394532.722656 0 1.304687-.25 1.738281-.746094.441406-.503906.660156-1.167969.660156-1.996094v-.285156zm2.605469-.523438v4.414063h-1.304688v-1.175781c-.300781.46875-.671874.816406-1.117187 1.042968-.445313.222657-.988281.332032-1.632813.332032-.8125 0-1.460937-.21875-1.945312-.664063-.476562-.445312-.71875-1.042969-.71875-1.789062 0-.867188.300781-1.523438.894531-1.96875.601563-.441407 1.496094-.660157 2.6875-.660157h1.832031v-.125c0-.585937-.199218-1.039062-.597656-1.355468-.394531-.320313-.945312-.484375-1.660156-.484375-.457031 0-.898438.054687-1.328125.160156-.433594.105469-.847656.265625-1.246094.476563v-1.175782c.480469-.179687.945313-.3125 1.394531-.398437.449219-.09375.886719-.140625 1.3125-.140625 1.152344 0 2.011719.292968 2.578126.871094.566406.582031.851562 1.460937.851562 2.640624m-4.402344-6.902343 2.003906 2.585937h-1.085937l-2.316406-2.585937z" fill="#fff"/></g></svg>