<svg height="36pt" viewBox="0 0 36 36" width="36pt" xmlns="http://www.w3.org/2000/svg"><path d="m8.40625 2.136719h19.1875c3.460938 0 6.269531 2.808593 6.269531 6.269531v19.1875c0 3.460938-2.808593 6.269531-6.269531 6.269531h-19.1875c-3.460938 0-6.269531-2.808593-6.269531-6.269531v-19.1875c0-3.460938 2.808593-6.269531 6.269531-6.269531zm0 0" fill="#c2352a" fill-rule="evenodd"/><path d="m18 6.828125-11.171875 22.34375h3.988281v-1.59375h.796875v1.59375h1.597657v-3.191406h.796874v3.191406h1.597657v-6.382813h.796875v6.382813h1.597656v-4.785156h.796875v4.785156h1.597656v-3.191406h.796875v3.191406h1.597656v-1.59375h.796876v1.59375h1.597656v-.796875h.796875v.796875h3.191406zm0 0" fill="#fff"/></svg>