<svg height="36pt" viewBox="0 0 36 36" width="36pt" xmlns="http://www.w3.org/2000/svg"><path d="m8.40625 2.136719h19.1875c3.460938 0 6.269531 2.808593 6.269531 6.269531v19.1875c0 3.460938-2.808593 6.269531-6.269531 6.269531h-19.1875c-3.460938 0-6.269531-2.808593-6.269531-6.269531v-19.1875c0-3.460938 2.808593-6.269531 6.269531-6.269531zm0 0" fill="#8bc34a" fill-rule="evenodd"/><g fill="#fff"><path d="m18 13.355469c-1.242188 0-2.25 1.011719-2.25 2.25v4.5c0 1.234375 1.007812 2.25 2.25 2.25s2.25-1.015625 2.25-2.25v-4.5c0-1.238281-1.007812-2.25-2.25-2.25zm0 1.125c.621094 0 1.125.449219 1.125 1.125 0 .5625-.503906 1.125-1.125 1.125s-1.125-.5625-1.125-1.125c0-.675781.503906-1.125 1.125-1.125zm0 3.375c.621094 0 1.125.503906 1.125 1.125v1.125c0 .621093-.503906 1.125-1.125 1.125s-1.125-.503907-1.125-1.125v-1.125c0-.621094.503906-1.125 1.125-1.125zm0 0"/><path d="m16.875 2.105469v1.125h1.125v-1.125zm0 2.25v1.125h1.125v-1.125zm0 2.25v1.125h1.125v-1.125zm0 2.25v1.125h1.125v-1.125zm0 2.25v1.125h1.125v-1.125zm0 0"/><path d="m18 3.230469v1.125h1.125v-1.125zm0 2.25v1.125h1.125v-1.125zm0 2.25v1.125h1.125v-1.125zm0 2.25v1.125h1.125v-1.125zm0 2.25v1.125h1.125v-1.125zm0 0"/></g></svg>