<svg height="36pt" viewBox="0 0 36 36" width="36pt" xmlns="http://www.w3.org/2000/svg"><path d="m8.40625 2.136719h19.1875c3.460938 0 6.269531 2.808593 6.269531 6.269531v19.1875c0 3.460938-2.808593 6.269531-6.269531 6.269531h-19.1875c-3.460938 0-6.269531-2.808593-6.269531-6.269531v-19.1875c0-3.460938 2.808593-6.269531 6.269531-6.269531zm0 0" fill="#808080" fill-rule="evenodd"/><path d="m18 18c-.652344 0-1.300781.128906-1.785156.390625l-7.308594 3.933594c-.964844.519531-.964844 1.402343 0 1.921875l7.308594 3.9375c.964844.519531 2.605468.519531 3.570312 0l7.308594-3.9375c.964844-.519532.964844-1.402344 0-1.921875l-7.308594-3.933594c-.480468-.261719-1.132812-.390625-1.785156-.390625zm0 0" fill="#ea6e41"/><path d="m18 12.714844c-.652344 0-1.300781.128906-1.785156.386718l-7.308594 3.9375c-.964844.519532-.964844 1.402344 0 1.921876l7.308594 3.9375c.964844.515624 2.605468.515624 3.570312 0l7.308594-3.9375c.964844-.519532.964844-1.402344 0-1.921876l-7.308594-3.9375c-.480468-.257812-1.132812-.386718-1.785156-.386718zm0 0" fill="#aed351"/><path d="m18 7.425781c-.652344 0-1.300781.132813-1.785156.390625l-7.308594 3.9375c-.964844.519532-.964844 1.402344 0 1.921875l7.308594 3.933594c.964844.519531 2.605468.519531 3.570312 0l7.308594-3.933594c.964844-.519531.964844-1.402343 0-1.921875l-7.308594-3.9375c-.480468-.257812-1.132812-.390625-1.785156-.390625zm0 0" fill="#3b9dda"/></svg>