<svg height="36pt" viewBox="0 0 36 36" width="36pt" xmlns="http://www.w3.org/2000/svg" xmlns:xlink="http://www.w3.org/1999/xlink"><clipPath id="a"><path d="m0 0h36v36h-36z"/></clipPath><clipPath id="b"><path d="m0 0h36v36h-36z"/></clipPath><path d="m8.40625 2.136719h19.1875c3.460938 0 6.269531 2.808593 6.269531 6.269531v19.1875c0 3.460938-2.808593 6.269531-6.269531 6.269531h-19.1875c-3.460938 0-6.269531-2.808593-6.269531-6.269531v-19.1875c0-3.460938 2.808593-6.269531 6.269531-6.269531zm0 0" fill="#7ec242" fill-rule="evenodd"/><g clip-path="url(#a)"><path d="m23.425781 15.53125h-.984375v-1.972656h.984375v-2.960938h2.960938v2.960938h1.972656l.003906 1.972656h-1.972656l-.003906 4.824219c0 .503906.097656 1.097656 1.480469 1.097656h.492187l.003906 2.960937s-3.160156.003907-3.160156 0c-1.246094 0-1.777344-1.183593-1.777344-1.792968 0-1.429688 0-7.089844 0-7.089844zm0 0" fill="#fff"/></g><g clip-path="url(#b)"><path d="m10.488281 7.636719c-1.425781 0-2.851562 1.382812-2.851562 2.765625v11.25c0 1.382812 1.425781 2.761718 2.851562 2.761718h2.914063c.046875.007813.109375-.023437.15625.054688v2.492188c0 .691406.863281 1.398437 1.425781 1.398437 0 .007813 3.511719 0 3.511719 0l-.003906-2.957031h-.660157c-1.421875 0-1.304687-.449219-1.304687-.957032 0-.027343-.011719 0-.015625-.027343.003906 0 .007812-.003907.015625-.003907h1.085937c1.425781 0 2.851563-1.378906 2.851563-2.761718v-11.25c0-1.382813-1.425782-2.765625-2.851563-2.765625zm2.179688 2.960937h2.765625c1.148437 0 2.070312.90625 2.070312 2.035156v6.785157c0 1.128906-.921875 2.035156-2.070312 2.035156h-2.765625c-1.148438 0-2.070313-.90625-2.070313-2.035156v-6.785157c0-1.128906.921875-2.035156 2.070313-2.035156zm0 0" fill="#fff"/></g></svg>