<svg height="36pt" viewBox="0 0 36 36" width="36pt" xmlns="http://www.w3.org/2000/svg"><path d="m8.40625 2.136719h19.1875c3.460938 0 6.269531 2.808593 6.269531 6.269531v19.1875c0 3.460938-2.808593 6.269531-6.269531 6.269531h-19.1875c-3.460938 0-6.269531-2.808593-6.269531-6.269531v-19.1875c0-3.460938 2.808593-6.269531 6.269531-6.269531zm0 0" fill="#d1002f" fill-rule="evenodd"/><path d="m8.40625 2.136719h19.1875c3.460938 0 6.269531 2.808593 6.269531 6.269531v19.1875c0 3.460938-2.808593 6.269531-6.269531 6.269531h-19.1875c-3.460938 0-6.269531-2.808593-6.269531-6.269531v-19.1875c0-3.460938 2.808593-6.269531 6.269531-6.269531zm0 0" fill="#b81f04" fill-rule="evenodd"/><path d="m14.613281 25.894531c.039063-.132812.480469-1.410156.519531-1.507812l.027344-.070313h2.277344l-.007812-.890625-.003907-.886719-.242187-.042968c-1.089844-.179688-2.054688-.671875-2.824219-1.441406-.164063-.164063-.402344-.449219-.566406-.675782-.09375-.128906-.292969-.453125-.292969-.476562 0-.007813-.027344-.054688-.058594-.105469-.125-.210937-.324218-.722656-.417968-1.09375-.144532-.570313-.144532-.558594-.15625-3.007813l-.007813-2.265624.117187-.101563c.082032-.074219.164063-.117187.277344-.148437.210938-.054688.363282-.023438.578125.121093l.152344.101563.003906 2.011718c0 1.105469.003907 2.058594.011719 2.113282.003906.054687.015625.195312.023438.304687.054687.890625.4375 1.78125 1.023437 2.414063.46875.5 1.070313.851562 1.816406 1.050781.257813.070313.773438.128906 1.136719.128906s.878906-.058593 1.136719-.128906c.730469-.195313 1.253906-.492187 1.738281-.984375.675781-.679688 1.03125-1.496094 1.113281-2.554688.011719-.140624.019531-1.175781.023438-2.300781l.003906-2.042969.082031-.085937c.253906-.265625.621094-.265625.933594.007813l.109375.09375-.007813 2.265624c-.011718 2.449219-.011718 2.4375-.15625 3.007813-.226562.894531-.707031 1.730469-1.363281 2.375-.765625.757813-1.722656 1.242187-2.78125 1.417969l-.257812.042968-.003907.886719-.007812.890625h2.109375l.570313 1.6875h-6.664063zm2.847657-5.644531c-.214844-.03125-.574219-.136719-.796876-.234375-.605468-.261719-1.117187-.828125-1.335937-1.464844-.171875-.507812-.195313-.882812-.1875-2.929687l.007813-1.570313 2.886718-.007812 2.882813-.007813-.011719 1.964844c-.007812 1.910156-.007812 1.96875-.0625 2.171875-.28125 1.070313-.929688 1.730469-1.972656 2.003906-.269532.070313-.339844.082031-.769532.089844-.257812.003906-.546874-.003906-.640624-.015625zm-2.316407-7.242188c.019531-.597656.042969-.789062.136719-1.101562.269531-.925781.949219-1.589844 1.847656-1.796875.632813-.148437 1.105469-.148437 1.714844-.007813 1.027344.242188 1.746094.964844 1.996094 2.007813.042968.1875.054687.335937.066406.820313l.015625.597656h-5.792969zm0 0" fill="#ececec"/></svg>