<svg height="36pt" viewBox="0 0 36 36" width="36pt" xmlns="http://www.w3.org/2000/svg"><g fill-rule="evenodd"><path d="m18 33.863281v-15.863281h-15.863281v9.59375c0 3.472656 2.796875 6.269531 6.269531 6.269531zm0 0" fill="#3c88e7"/><path d="m33.863281 18h-15.863281v15.863281h9.59375c3.472656 0 6.269531-2.796875 6.269531-6.269531zm0 0" fill="#5dc15c"/><path d="m18 2.136719v15.863281h15.863281v-9.59375c0-3.472656-2.796875-6.269531-6.269531-6.269531zm0 0" fill="#c2352a"/><path d="m2.136719 18h15.863281v-15.863281h-9.59375c-3.472656 0-6.269531 2.796875-6.269531 6.269531zm0 0" fill="#e7a73c"/></g><path d="m25.875 18c0 4.347656-3.527344 7.875-7.875 7.875s-7.875-3.527344-7.875-7.875 3.527344-7.875 7.875-7.875 7.875 3.527344 7.875 7.875zm0 0" fill="#2e2e2e"/></svg>