<svg height="36pt" viewBox="0 0 36 36" width="36pt" xmlns="http://www.w3.org/2000/svg" xmlns:xlink="http://www.w3.org/1999/xlink"><filter id="a" height="100%" width="100%" x="0%" y="0%"><feColorMatrix in="SourceGraphic" type="matrix" values="0 0 0 0 1 0 0 0 0 1 0 0 0 0 1 0 0 0 1 0"/></filter><mask id="b"><g filter="url(#a)"><path d="m0 0h36v36h-36z" fill-opacity=".8"/></g></mask><clipPath id="c"><path d="m0 0h36v36h-36z"/></clipPath><path d="m8.40625 2.136719h19.1875c3.460938 0 6.269531 2.808593 6.269531 6.269531v19.1875c0 3.460938-2.808593 6.269531-6.269531 6.269531h-19.1875c-3.460938 0-6.269531-2.808593-6.269531-6.269531v-19.1875c0-3.460938 2.808593-6.269531 6.269531-6.269531zm0 0" fill="#b44842" fill-rule="evenodd"/><g clip-path="url(#c)" mask="url(#b)"><path d="m11.753906 12.375c-.621094 0-1.125.5-1.125 1.125v9c0 .625.503906 1.125 1.125 1.125h10.125c.625 0 1.125-.5 1.125-1.125v-9c0-.625-.5-1.125-1.125-1.125zm11.25 5.625 4.5 3.375v-6.75zm0 0" fill="#fff"/></g></svg>