<svg height="36pt" viewBox="0 0 36 36" width="36pt" xmlns="http://www.w3.org/2000/svg"><path d="m8.40625 2.136719h19.1875c3.460938 0 6.269531 2.808593 6.269531 6.269531v19.1875c0 3.460938-2.808593 6.269531-6.269531 6.269531h-19.1875c-3.460938 0-6.269531-2.808593-6.269531-6.269531v-19.1875c0-3.460938 2.808593-6.269531 6.269531-6.269531zm0 0" fill="#4f4f4f" fill-rule="evenodd"/><path d="m7.605469 5.003906v13.515625l5.714843-3.378906 5.71875-3.378906-5.71875-3.378907zm12.472656 7.277344v10.398438l4.160156-2.601563 4.15625-2.597656-4.15625-2.597657zm-9.355469 6.238281v12.476563l5.199219-3.121094 5.195313-3.117188-5.195313-3.121093zm0 0" fill="#b0b0b0"/></svg>