<svg height="36pt" viewBox="0 0 36 36" width="36pt" xmlns="http://www.w3.org/2000/svg"><path d="m8.40625 2.136719h19.1875c3.460938 0 6.269531 2.808593 6.269531 6.269531v19.1875c0 3.460938-2.808593 6.269531-6.269531 6.269531h-19.1875c-3.460938 0-6.269531-2.808593-6.269531-6.269531v-19.1875c0-3.460938 2.808593-6.269531 6.269531-6.269531zm0 0" fill="#c72828" fill-rule="evenodd"/><path d="m21.498108 19.497692s-2.760653-4.468083-2.997281-6.996748c-.287665-3.062238 1.999734-9.001122 1.999734-9.001122" fill="none" stroke="#1f711f" stroke-linecap="round" stroke-linejoin="round" stroke-width="3" transform="matrix(.841909 0 0 .841909 4.529457 4.537844)"/><path d="m10.501892 21.502065s.157752-7.762307 1.999734-11.000855c1.744547-3.085436 7.998935-7.001388 7.998935-7.001388" fill="none" stroke="#248424" stroke-linecap="round" stroke-linejoin="round" stroke-width="3" transform="matrix(.841909 0 0 .841909 4.529457 4.537844)"/><path d="m28.945312 21.375c0 3.253906-2.640624 5.894531-5.894531 5.894531-3.253906 0-5.894531-2.640625-5.894531-5.894531s2.640625-5.890625 5.894531-5.890625c3.253907 0 5.894531 2.636719 5.894531 5.890625zm0 0" fill="#fff"/><path d="m18.84375 23.902344c0 3.253906-2.640625 5.894531-5.894531 5.894531-3.253907 0-5.894531-2.640625-5.894531-5.894531s2.640624-5.894532 5.894531-5.894532c3.253906 0 5.894531 2.640626 5.894531 5.894532zm0 0" fill="#ff3737"/></svg>