<svg height="36pt" viewBox="0 0 36 36" width="36pt" xmlns="http://www.w3.org/2000/svg"><path d="m8.40625 2.136719h19.1875c3.460938 0 6.269531 2.808593 6.269531 6.269531v19.1875c0 3.460938-2.808593 6.269531-6.269531 6.269531h-19.1875c-3.460938 0-6.269531-2.808593-6.269531-6.269531v-19.1875c0-3.460938 2.808593-6.269531 6.269531-6.269531zm0 0" fill="#c2352a" fill-rule="evenodd"/><path d="m22.3125 7.292969c-.265625.015625-.519531.09375-.75.226562l-13.308594 7.449219-6.117187-2.878906v3.730468l5.46875 2.570313c.492187.234375 1.066406.214844 1.542969-.050781l14.0625-7.878906c.664062-.359376 1.011718-1.121094.839843-1.859376-.167969-.738281-.808593-1.277343-1.566406-1.308593-.058594-.003907-.113281-.003907-.171875 0zm0 5.625c-.265625.015625-.519531.089843-.75.226562l-13.308594 7.449219-6.117187-2.878906v3.730468l5.46875 2.570313c.492187.234375 1.066406.214844 1.542969-.050781l14.0625-7.875c.667968-.363282 1.011718-1.125.84375-1.863282-.171876-.742187-.8125-1.277343-1.570313-1.308593-.058594-.003907-.113281-.003907-.171875 0zm0 5.625c-.265625.015625-.519531.089843-.75.226562l-13.308594 7.449219-6.117187-2.878906v3.730468l5.46875 2.570313c.492187.234375 1.066406.214844 1.542969-.050781l14.0625-7.875c.667968-.363282 1.011718-1.125.84375-1.863282-.171876-.742187-.8125-1.277343-1.570313-1.308593-.058594-.003907-.113281-.003907-.171875 0zm0 0" fill="#fff" fill-rule="evenodd"/></svg>