<svg height="36pt" viewBox="0 0 36 36" width="36pt" xmlns="http://www.w3.org/2000/svg"><path d="m8.40625 2.136719h19.1875c3.460938 0 6.269531 2.808593 6.269531 6.269531v19.1875c0 3.460938-2.808593 6.269531-6.269531 6.269531h-19.1875c-3.460938 0-6.269531-2.808593-6.269531-6.269531v-19.1875c0-3.460938 2.808593-6.269531 6.269531-6.269531zm0 0" fill="#c2352a" fill-rule="evenodd"/><path d="m18.65625 21.324219c5.828125-3.3125 5.703125-3.242188 5.703125-3.308594 0-.0625-10.199219-5.921875-10.25-5.886719-.03125.019532-.039063 11.695313-.007813 11.734375.015626.011719.050782.011719.082032 0 .027344-.011719 2.042968-1.15625 4.472656-2.539062zm0 0" fill="#fff"/></svg>