<svg height="36pt" viewBox="0 0 36 36" width="36pt" xmlns="http://www.w3.org/2000/svg"><path d="m8.40625 2.136719h19.1875c3.460938 0 6.269531 2.808593 6.269531 6.269531v19.1875c0 3.460938-2.808593 6.269531-6.269531 6.269531h-19.1875c-3.460938 0-6.269531-2.808593-6.269531-6.269531v-19.1875c0-3.460938 2.808593-6.269531 6.269531-6.269531zm0 0" fill="#eb4d27" fill-rule="evenodd"/><path d="m27.5625 16.675781-17.777344-10.15625c-.761718-.425781-1.441406-.386719-1.851562.015625-.296875.28125-.453125.734375-.453125 1.324219v20.269531c0 .589844.171875 1.046875.453125 1.328125.425781.414063 1.089844.453125 1.851562.011719l17.777344-10.15625c1.277344-.722656 1.277344-1.898438 0-2.636719zm0 0" fill="#fff"/><path d="m18 8.742188c-1.144531 0-2.238281.222656-3.242188.621093l-.003906-.003906c-.007812.007813-.019531.011719-.027344.015625-.230468.089844-.457031.195312-.679687.308594-.039063.019531-.082031.039062-.125.058594-.214844.113281-.425781.238281-.632813.367187-.042968.027344-.085937.050781-.125.078125-.195312.125-.382812.265625-.566406.40625-.050781.039062-.101562.078125-.152344.117188-.164062.132812-.320312.277343-.476562.421874-.0625.054688-.121094.109376-.179688.164063-.191406.1875-.375.386719-.550781.59375-.007812.011719-.019531.023437-.03125.035156-.746093.894531-1.316406 1.941407-1.660156 3.082031-.003906.015626-.007813.03125-.011719.042969-.082031.269531-.148437.539063-.203125.816407-.007812.03125-.011719.066406-.015625.101562-.046875.246094-.085937.492188-.109375.746094-.03125.289062-.042969.574218-.046875.863281 0 .277344.019532.554687.042969.824219.007813.054687.011719.113281.019531.167968.027344.234376.0625.46875.105469.699219.007813.035157.015625.074219.023437.113281.179688.863282.484376 1.679688.898438 2.433594.28125.519532.617188 1.003906.996094 1.453125.933594 1.109375 2.132812 1.988281 3.503906 2.53125.015625.003907.023438-.003906.039062 0 .292969.113281.589844.214844.894532.296875l10.832031-6.183594c.210937-.761718.320313-1.546874.324219-2.335937 0-.378906-.035156-.753906-.082032-1.121094-.007812-.085937-.019531-.175781-.035156-.261719h-.003906c-.667969-4.222656-4.3125-7.453124-8.71875-7.453124zm0 0" fill="#ffd739"/><path d="m23.472656 17.578125c0 3.023437-2.449218 5.472656-5.472656 5.472656s-5.472656-2.449219-5.472656-5.472656c0-3.019531 2.449218-5.46875 5.472656-5.46875s5.472656 2.449219 5.472656 5.46875zm0 0" fill="#ff8c00"/></svg>