<svg height="36pt" viewBox="0 0 36 36" width="36pt" xmlns="http://www.w3.org/2000/svg"><path d="m33.9375 7.6875c-.070312-.59375-.125-1.195312-.351562-1.722656-.320313-.753906-.785157-1.425782-1.359376-1.996094-.574218-.566406-1.261718-1.023438-2.023437-1.339844-.757813-.316406-1.597656-.492187-2.476563-.492187h-19.453124c-.878907 0-1.71875.175781-2.476563.492187-.761719.316406-1.449219.773438-2.023437 1.339844-.574219.570312-1.039063 1.242188-1.359376 1.996094-.320312.75-.496093 1.574218-.496093 2.445312v3.003906l6.324219 10.808594.175781.351563.046875.027343.398437.683594 3.667969 2.910156 1.019531-.433593 1.167969.730469c-.140625-.253907-.277344-.628907-.414062-1.046876l6.863281-2.890624-7.101563-12.136719c.648438-1.476563 1.785156-2.511719 3.777344-2.730469zm0 0" fill="#dd4d3e"/><path d="m20.8125 33.863281h7c .867188 0 1.695312-.171875 2.445312-.488281s1.425782-.777344 1.992188-1.34375 1.027344-1.242188 1.34375-1.992188.488281-1.578124.488281-2.445312v-19.183594c0-.257812-.113281-.476562-.144531-.722656h-15.847656c-.023438 0 3.277344 1.46875 4.667968 2.269531 3.554688 2.054688 3.921876 9.382813 3.933594 12.351563l.597656.34375-.609374 1.054687v.046875l-.230469.347656zm0 0" fill="#ffce41"/><path d="m1.925781 9.125v18.46875c0 .867188.175781 1.695312.492188 2.445312.316406.75.773437 1.425782 1.339843 1.992188.566407.566406 1.242188 1.027344 1.992188 1.34375s1.578125.488281 2.449219.488281h12.613281l6.910156-11.488281c-.78125 1.273438-4.042968 2.90625-5.433594 3.710938-4.453124 2.570312-10.105468.90625-12.675781-3.542969zm0 0" fill="#109f5b"/><path d="m28.382812 18c0-5.699219-4.617187-10.316406-10.3125-10.316406-5.699218 0-10.316406 4.617187-10.316406 10.316406 0 5.695312 4.617188 10.316406 10.316406 10.316406 5.695313 0 10.3125-4.621094 10.3125-10.316406zm0 0" fill="#fff"/><path d="m25.4375 18c0-4.070312-3.300781-7.367188-7.367188-7.367188-4.070312 0-7.371093 3.296876-7.371093 7.367188s3.300781 7.367188 7.371093 7.367188c4.066407 0 7.367188-3.296876 7.367188-7.367188zm0 0" fill="#4587f3"/></svg>