<svg height="36pt" viewBox="0 0 36 36" width="36pt" xmlns="http://www.w3.org/2000/svg"><path d="m8.40625 2.136719h19.1875c3.460938 0 6.269531 2.808593 6.269531 6.269531v19.1875c0 3.460938-2.808593 6.269531-6.269531 6.269531h-19.1875c-3.460938 0-6.269531-2.808593-6.269531-6.269531v-19.1875c0-3.460938 2.808593-6.269531 6.269531-6.269531zm0 0" fill="#4ca341" fill-rule="evenodd"/><path d="m9.046875 16.90625s2.644531-3.175781 6.703125-3.503906v-1.152344c-4.496094.382812-9 4.414062-9 4.414062s2.8125 6.746094 9 7.363282v-1.222656c-4.539062-.605469-6.703125-5.898438-6.703125-5.898438zm6.703125 3.460938v1.125c-3.429688-.648438-4.988281-4.421876-4.988281-4.421876s2.253906-1.933593 4.988281-2.246093v1.230469s0 0-.003906 0c-1.433594-.183594-3.164063 1.238281-3.164063 1.238281s1.234375 2.386719 3.171875 3.074219m0-10.242188v2.125c.128906-.011719-.34375-.019531-.210937-.023438 5.113281-.183593 8.445312 4.4375 8.445312 4.4375s-3.824219 4.921876-7.8125 4.921876c-.367187 0-.101562-.035157-.421875-.09375v1.3125c.273438.035156-.046875.058593.25.058593 3.710938 0 6.394532-2.003906 8.992188-4.378906.429687.367187 2.195312 1.253906 2.554687 1.644531-2.46875 2.1875-8.226562 3.949219-11.492187 3.949219-.3125 0-.007813-.019531-.304688-.050781v1.847656h13.496094v-15.75zm0 4.699219v-1.421875c.128906-.007813-.347656-.019532-.210937-.023438 3.675781-.121094 6.089843 3.34375 6.089843 3.34375s-2.605468 3.832032-5.398437 3.832032c-.402344 0-.15625-.070313-.480469-.183594v-4.316406c1.429688.183593 1.386719.851562 2.246094 2.371093l1.640625-1.707031s-1.398437-1.941406-3.753906-1.941406c-.253907 0 .105469.019531-.132813.046875" fill="#262626"/></svg>