<svg height="36pt" viewBox="0 0 36 36" width="36pt" xmlns="http://www.w3.org/2000/svg"><path d="m8.40625 2.136719h19.1875c3.460938 0 6.269531 2.808593 6.269531 6.269531v19.1875c0 3.460938-2.808593 6.269531-6.269531 6.269531h-19.1875c-3.460938 0-6.269531-2.808593-6.269531-6.269531v-19.1875c0-3.460938 2.808593-6.269531 6.269531-6.269531zm0 0" fill="#b3b3b3" fill-rule="evenodd"/><path d="m18 5.960938c-.011719 0-.023438 0-.035156 0h-.003906c-4.441407.023437-8.867188 4.023437-8.867188 7.023437v9.921875c0 4.074219 3.339844 7.132812 8.90625 7.132812 5.566406.003907 8.90625-3.054687 8.90625-7.132812v-9.648438c0-3.117187-4.449219-7.269531-8.90625-7.296874zm0 0" fill="#5b5b5b"/><path d="m18 5.960938c-.011719 0-.023438 0-.035156 0h-.003906c-4.441407.023437-8.867188 4.023437-8.867188 7.023437v5.015625h17.8125v-4.742188c0-3.117187-4.449219-7.269531-8.90625-7.292968zm0 0" fill="#666"/><path d="m18 5.960938c-.011719 0-.023438 0-.035156 0h-.003906c-4.441407.023437-8.867188 4.023437-8.867188 7.023437v5.015625h8.90625v-12.035156zm0 0" fill="#333"/><path d="m18 9.398438c.546875 0 .988281.496093.988281 1.105468v2.949219c0 .609375-.441406 1.105469-.988281 1.105469s-.988281-.496094-.988281-1.105469v-2.949219c0-.609375.441406-1.105468.988281-1.105468" fill="#ccc"/></svg>