<svg height="36pt" viewBox="0 0 36 36" width="36pt" xmlns="http://www.w3.org/2000/svg" xmlns:xlink="http://www.w3.org/1999/xlink"><clipPath id="a"><path d="m0 0h36v36h-36z"/></clipPath><path d="m8.40625 2.136719h19.1875c3.460938 0 6.269531 2.808593 6.269531 6.269531v19.1875c0 3.460938-2.808593 6.269531-6.269531 6.269531h-19.1875c-3.460938 0-6.269531-2.808593-6.269531-6.269531v-19.1875c0-3.460938 2.808593-6.269531 6.269531-6.269531zm0 0" fill="#5f7c8a" fill-rule="evenodd"/><g clip-path="url(#a)"><path d="m30.375 18c0-6.835938-5.539062-12.375-12.375-12.375s-12.375 5.539062-12.375 12.375 5.539062 12.375 12.375 12.375 12.375-5.539062 12.375-12.375zm0 0" fill="#7f96a1"/></g><path d="m18 8.71875-2.503906 3.007812c-2.492188.992188-4.246094 3.429688-4.246094 6.273438 0 3.726562 3.023438 6.75 6.75 6.75s6.75-3.023438 6.75-6.75c0-2.84375-1.753906-5.28125-4.246094-6.277344zm0 0" fill="#dfe5e8"/></svg>