<svg height="36pt" viewBox="0 0 36 36" width="36pt" xmlns="http://www.w3.org/2000/svg"><path d="m8.40625 2.136719h19.1875c3.460938 0 6.269531 2.808593 6.269531 6.269531v19.1875c0 3.460938-2.808593 6.269531-6.269531 6.269531h-19.1875c-3.460938 0-6.269531-2.808593-6.269531-6.269531v-19.1875c0-3.460938 2.808593-6.269531 6.269531-6.269531zm0 0" fill="#e6e6e6" fill-rule="evenodd"/><path d="m18.476562 6.4375c2.5 5.535156 13.554688 19.175781-13.308593 17.09375 19.207031 8.414062 34.230469 1.210938 13.308593-17.09375zm0 0" fill="#f27423"/><path d="m24.257812 12.277344c1.882813-.0625 4.0625-.003906 6.574219.191406-3.171875-1.390625-6.207031-2.316406-9.007812-2.871094.035156.03125.074219.070313.105469.101563.519531.53125 1.003906 1.046875 1.457031 1.554687.308593.347656.585937.683594.871093 1.023438zm0 0" fill="#1d4a6c"/><path d="m16.480469 9.007812c-8.746094-.050781-12.707031 5.164063-4.792969 14.675782.71875.863281 1.515625 1.753906 2.433594 2.683594 1.007812 1.023437 2.136718 2.089843 3.402344 3.195312-.363282-.800781-.90625-1.796875-1.484376-2.863281-.550781-1.011719-1.117187-2.089844-1.613281-3.214844-2.089843-4.726563-2.667969-9.894531 7.09375-11.003906-.117187-.261719-.222656-.523438-.34375-.78125-.410156-.851563-.847656-1.65625-1.269531-2.433594-1.203125-.167969-2.351562-.253906-3.425781-.257813zm0 0" fill="#1d4a6c"/><path d="m19.90625 9.265625c.421875.777344.859375 1.582031 1.269531 2.433594.121094.257812.226563.519531.34375.78125.839844-.097657 1.738281-.171875 2.738281-.203125-.285156-.339844-.5625-.675782-.871093-1.023438-.453125-.507812-.9375-1.023437-1.457031-1.554687-.03125-.03125-.070313-.070313-.105469-.101563-.652344-.132812-1.292969-.246094-1.917969-.332031zm0 0" fill="#f27423"/></svg>