<svg height="36pt" viewBox="0 0 36 36" width="36pt" xmlns="http://www.w3.org/2000/svg"><path d="m8.40625 2.136719h19.1875c3.460938 0 6.269531 2.808593 6.269531 6.269531v19.1875c0 3.460938-2.808593 6.269531-6.269531 6.269531h-19.1875c-3.460938 0-6.269531-2.808593-6.269531-6.269531v-19.1875c0-3.460938 2.808593-6.269531 6.269531-6.269531zm0 0" fill="#1c75bc" fill-rule="evenodd"/><path d="m18 5.058594c-7.148438 0-12.941406 5.792968-12.941406 12.941406s5.792968 12.941406 12.941406 12.941406 12.941406-5.792968 12.941406-12.941406-5.792968-12.941406-12.941406-12.941406zm0 0" fill="#fff"/><path d="m12.863281 12.914062-.792969 2.773438h11.050782l-1.921875 4.625h-10.722657l-.796874 2.773438h11.464843c1.277344-.023438 2.589844-.792969 3.089844-2.011719l2.007813-5.984375c.472656-1.9375-1.277344-2.175782-2.628907-2.175782zm-2.222656 3.699219-.960937 2.773438h6.398437l.960937-2.773438zm0 0" fill="#1c75bc"/></svg>