<svg height="36pt" viewBox="0 0 36 36" width="36pt" xmlns="http://www.w3.org/2000/svg"><path d="m8.40625 2.136719h19.1875c3.460938 0 6.269531 2.808593 6.269531 6.269531v19.1875c0 3.460938-2.808593 6.269531-6.269531 6.269531h-19.1875c-3.460938 0-6.269531-2.808593-6.269531-6.269531v-19.1875c0-3.460938 2.808593-6.269531 6.269531-6.269531zm0 0" fill="#f9548f" fill-rule="evenodd"/><path d="m9.078125 14.328125c.121094-.371094.140625-.59375.1875-.808594-.328125.425781-.152344.515625-.1875.808594m.605469-2.578125c.0625.554688-.410156.773438.105468.40625.277344-.636719-.105468-.175781-.105468-.40625m9.011718-4.878906c.253907-.09375.628907-.050782.902344-.113282-.355468.027344-.707031.046876-1.058594.09375zm8.242188 10.402344-.054688.144531c-.101562.738281-.324218 1.46875-.660156 2.148437.371094-.714844.613282-1.5.714844-2.292968m-10.433594 2.3125c-.132812-.152344-.207031-.328126-.296875-.507813.082031.3125.253907.582031.414063.855469zm-.589844.023437-.054687.269531c.25.34375.449219.71875.769531.988282-.230468-.453126-.402344-.644532-.714844-1.257813m3.109376-12.4375-.144532.03125.132813-.011719zm-.40625-.113281c.203124.035156.4375.066406.40625.113281.222656-.050781.269531-.09375-.40625-.113281m4.226562 9.511718c.046875-.695312-.132812-.476562-.195312-.210937.070312.035156.128906.488281.195312.210937m-.75 1.992188c.226562-.320312.390625-.667969.449219-1.027344-.050781.257813-.1875.480469-.316407.710938-.707031.457031-.066406-.269532 0-.542969-.761718.976563-.105468.585937-.132812.859375m-2.035156.515625c-.378906.003906.070312.199219.566406.277344.136719-.109375.261719-.21875.371094-.328125-.308594.078125-.621094.078125-.9375.050781m-10.980469-4.75c.121094-.371094.140625-.59375.1875-.808594-.328125.425781-.152344.519531-.1875.808594m.609375-2.578125c.058594.558594-.414062.773438.101562.40625.277344-.636719-.105468-.175781-.101562-.40625m9.007812-4.878906c.253907-.09375.628907-.050782.902344-.113282-.355468.027344-.710937.046876-1.058594.09375zm8.242188 10.40625-.054688.140625c-.101562.738281-.324218 1.472656-.660156 2.148437.371094-.714844.613282-1.496094.714844-2.289062m-10.433594 2.308594c-.128906-.148438-.207031-.328126-.296875-.507813.085938.3125.257813.582031.414063.859375zm-.589844.023437-.050781.269531c.25.34375.445313.71875.765625.988282-.230468-.453126-.398437-.644532-.714844-1.257813m3.109376-12.4375-.144532.03125.132813-.015625zm5.65625 9.6875c.023437.582031-.164063.867187-.328126 1.367187l-.300781.15625c-.246093.496094.023438.316407-.152343.710938-.382813.355469-1.164063 1.109375-1.414063 1.179688-.183594-.003907.125-.226563.164063-.308594-.515626.363281-.414063.546875-1.199219.773437l-.023438-.054687c-1.933593.949218-4.625-.929688-4.589843-3.492188-.023438.160156-.058594.121094-.101563.1875-.101563-1.320312.585937-2.644531 1.742187-3.183594 1.128907-.582031 2.453126-.34375 3.265626.441407-.445313-.605469-1.332032-1.25-2.378907-1.191407-1.03125.019532-1.992187.699219-2.3125 1.4375-.527343.34375-.589843 1.328126-.816406 1.507813-.308594 2.359375.578125 3.378906 2.085937 4.578125.234376.167969.066407.191406.097657.320312-.5-.246093-.957031-.613281-1.335938-1.0625.199219.304688.417969.601563.695313.832032-.472656-.164063-1.101563-1.1875-1.285156-1.230469.8125 1.515625 3.296874 2.65625 4.597656 2.089844-.601563.023437-1.367188.011719-2.042969-.25-.285156-.148438-.671875-.464844-.601563-.523438 1.777344.6875 3.609376.523438 5.144532-.757812.390625-.316407.820312-.855469.941406-.863281-.183594.289062.03125.140624-.109375.394531.386719-.652344-.167969-.265625.402344-1.125l.210937.300781c-.078125-.542969.648438-1.199219.574219-2.058594.167969-.261718.183594.28125.007813.886719.246093-.671875.066406-.777344.128906-1.332031.066406.1875.15625.382812.203125.582031-.160157-.648437.164062-1.089844.242187-1.464844-.078125-.039062-.246094.285157-.285156-.480469.007812-.332031.089844-.171874.121094-.253906-.0625-.039062-.226563-.292968-.324219-.78125.070313-.113281.191406.296875.289063.3125-.0625-.386718-.171876-.679687-.175782-.980468-.289062-.625-.101562.085937-.335937-.269532-.304688-.992187.253906-.230468.292969-.679687.464843.699219.730468 1.785156.851562 2.234375-.09375-.546875-.242188-1.078125-.425781-1.59375.140625.0625-.226563-1.128906.183593-.339844-.441406-1.679688-1.878906-3.25-3.203124-3.984375.160156.152344.367187.347656.292968.378906-.660156-.410156-.542968-.441406-.636718-.613281-.539063-.226562-.574219.019531-.929688 0-1.011719-.558594-1.203125-.5-2.136719-.847656l.042969.207031c-.667969-.234375-.78125.085937-1.503906 0-.042969-.035156.230468-.128906.460937-.164063-.648437.089844-.617187-.132812-1.253906.023438.15625-.113281.324219-.1875.488281-.285156-.527344.03125-1.261718.320312-1.035156.058594-.859375.398437-2.390625.960937-3.25 1.796874l-.027344-.1875c-.390625.492188-1.714844 1.46875-1.820312 2.105469l-.105469.027344c-.203125.359375-.335937.765625-.5 1.136719-.265625.476562-.390625.183594-.351563.257812-.527343 1.113282-.789062 2.042969-1.015624 2.808594.160156.25.003906 1.507812.0625 2.515625-.261719 4.96875 3.355468 9.792969 7.308593 10.90625.578125.214844 1.441407.207031 2.171875.226563-.863281-.253907-.976562-.132813-1.816406-.441407-.609375-.296875-.742188-.636719-1.171875-1.023437l.167969.3125c-.84375-.3125-.488282-.386719-1.175782-.613282l.179688-.246093c-.269531-.019531-.722656-.476563-.84375-.734375l-.300781.015625c-.359375-.460938-.550781-.796875-.539063-1.054688l-.09375.179688c-.109375-.195313-1.324218-1.730469-.695312-1.371094-.117188-.113281-.273438-.183594-.441406-.5l.128906-.152344c-.300782-.40625-.558594-.925781-.539063-1.097656.164063.226563.273438.265625.386719.304687-.765625-1.972656-.808594-.105468-1.386719-2.007812l.121094-.011719c-.09375-.144531-.152344-.304687-.226563-.460937l.054688-.554688c-.550781-.664062-.15625-2.816406-.074219-3.996094.054688-.480468.457031-.996093.765625-1.796874l-.1875-.03125c.359375-.652344 2.046875-2.613282 2.828125-2.511719.378907-.496094-.074219-.003907-.148437-.128907.832031-.894531 1.09375-.632812 1.65625-.792968.605468-.371094-.519532.148437-.234375-.140625 1.046875-.277344.742187-.632813 2.109375-.773438.140625.085938-.335938.128907-.457032.242188.871094-.445313 2.761719-.34375 3.988282.246093 1.421875.691407 3.019531 2.734376 3.085937 4.660157l.070313.019531c-.035156.765625.113281 1.648438-.144532 2.460938l.171876-.386719m-6.058594-9.800781c.203125.039062.4375.066406.402344.117187.222656-.050781.273437-.097656-.402344-.117187m4.226562 9.511718c.046875-.695312-.132812-.472656-.195312-.210937.070312.039062.128906.492187.195312.210937m-.75 1.992188c.226563-.316406.390625-.664063.449219-1.023438-.050781.257813-.1875.476563-.316406.710938-.710938.453125-.066407-.269532 0-.546875-.765625.980469-.105469.585937-.132813.859375m-2.039062.519531c-.378906.003906.074218.199219.566406.277344.140625-.109375.261719-.21875.375-.328125-.308594.078125-.625.078125-.941406.050781" fill="#fff"/></svg>