<svg height="36pt" viewBox="0 0 36 36" width="36pt" xmlns="http://www.w3.org/2000/svg"><path d="m8.40625 2.136719h19.1875c3.460938 0 6.269531 2.808593 6.269531 6.269531v19.1875c0 3.460938-2.808593 6.269531-6.269531 6.269531h-19.1875c-3.460938 0-6.269531-2.808593-6.269531-6.269531v-19.1875c0-3.460938 2.808593-6.269531 6.269531-6.269531zm0 0" fill="#8e8e8e" fill-rule="evenodd"/><path d="m17.257812 29.796875c-.675781-.03125-1.660156-.171875-2.308593-.328125-1.847657-.445312-3.621094-1.40625-4.714844-2.546875l-.132813-.136719-.121093.0625c-.335938.179688-.8125.210938-1.140625.074219-.210938-.089844-.457032-.335937-.578125-.582031-.257813-.527344-.378907-1.503906-.378907-3.0625v-.757813l-.082031-.019531c-.222656-.054688-.570312-.371094-.695312-.632812-.265625-.558594-.136719-1.335938.414062-2.496094.164063-.347656.515625-.988282.746094-1.359375l.121094-.199219-.066407-.132812c-.226562-.441407.003907-1.246094.539063-1.878907l.214844-.253906-.285157-.035156c-.507812-.058594-.867187-.296875-.988281-.648438-.078125-.226562-.050781-.535156.066407-.75.128906-.226562.75-.8125 1.105468-1.042969.613282-.394531 1.378906-.722656 2.285156-.972656l.515626-.140625.011718-1.058593c.007813-1.125.042969-1.503907.195313-2.257813.195312-.964844.640625-2.058594.925781-2.285156.222656-.179688.582031-.222657.832031-.101563.210938.101563.328125.246094.5.625.183594.402344 1.121094 2.183594 1.570313 2.980469l.277344.496094.539062.128906c.296875.074219.824219.214844 1.179688.3125.351562.097656.648437.179687.65625.179687.007812 0 .011718-.074218.011718-.164062 0-.328125.1875-.632812.480469-.789062.347656-.164063.726563-.082032.980469.039062.144531.070312.394531.222656.554687.339844.164063.117187.300781.210937.304688.210937.046875 0 2.253906-2.429687 2.746093-3.019531.171876-.207031.363282-.433594.421876-.5.347656-.40625 1.03125-.328125 1.28125.144531.078124.144531.207031.769531.25 1.203125.128906 1.359375-.132813 3-.757813 4.753906-.097656.28125-.191406.535157-.203125.5625-.015625.039063.050781.089844.304688.238282.371093.214844.949218.597656 1.273437.839844.351563.261718 1.003906.902343 1.183594 1.164062.4375.621094.589843 1.28125.386719 1.679688l-.066407.132812.121094.199219c.230469.371093.582031 1.011719.746094 1.359375.550781 1.160156.679687 1.9375.414062 2.496094-.125.261718-.472656.578124-.695312.632812l-.082031.019531v.789063c0 1.542968-.121094 2.503906-.378907 3.03125-.121093.246094-.367187.496094-.578125.582031-.347656.144531-.890625.097656-1.191406-.101563l-.113281-.074218-.410157.382812c-.726562.675782-1.417968 1.140625-2.371093 1.589844-.878907.410156-1.695313.679688-2.640625.859375-1.023438.195313-2.113282.273437-3.175782.21875zm0 0" fill="#ee3434"/><path d="m23.511719 18.789062c0-2.613281-2.46875-4.726562-5.511719-4.726562s-5.511719 2.113281-5.511719 4.726562c0 2.609376 2.46875 4.722657 5.511719 4.722657s5.511719-2.113281 5.511719-4.722657zm0 0" fill="#fff"/><path d="m18 16.425781c-.183594 0-.371094.039063-.542969.121094.335938.171875.542969.503906.542969.863281 0 .542969-.46875.984375-1.050781.984375-.183594 0-.359375-.046875-.519531-.132812-.003907.046875-.003907.089843-.003907.132812 0 1.085938.703125 1.96875 1.574219 1.96875s1.574219-.882812 1.574219-1.96875c0-1.089843-.703125-1.96875-1.574219-1.96875zm0 0" fill="#272727"/><path d="m18 26.757812c0 .636719-.621094 1.480469-1.316406 1.480469-.691406 0-1.046875-.875-1.046875-1.511719 0-.632812.652343-.277343 1.34375-.277343.695312 0 1.019531-.328125 1.019531.308593zm0 0" fill="#fff"/><path d="m16.285156 26.199219c-1.34375 0-2.65625-.316407-3.796875-.90625 1.203125.886719 2.714844 1.371093 4.277344 1.371093 3.726563 0 6.746094-1.398437 6.746094-4.726562-.914063 3.285156-3.796875 4.175781-7.226563 4.261719zm0 0" fill="#791414"/><path d="m12.488281 12.207031.003907-.8125c.007812-.867187.03125-1.160156.144531-1.742187.140625-.742188.460937-1.585938.667969-1.761719.160156-.136719.421874-.171875.601562-.078125.152344.078125.238281.191406.363281.484375.128907.308594.808594 1.683594 1.132813 2.292969l.199218.386718c.398438 1.265626-2.847656 1.917969-3.113281 1.230469zm0 0" fill="#fff"/><path d="m23.574219 13.113281.242187-.792969c.261719-.84375.332032-1.132812.414063-1.71875.105469-.75.089843-1.632812-.035157-1.84375-.09375-.164062-.308593-.246093-.492187-.191406-.15625.046875-.261719.136719-.457031.398438-.207032.273437-1.210938 1.476562-1.675782 2.007812l-.289062.332032c-.730469 1.15625 1.855469 2.421874 2.292969 1.808593zm0 0" fill="#fff"/></svg>