<svg height="36pt" viewBox="0 0 36 36" width="36pt" xmlns="http://www.w3.org/2000/svg"><g fill-rule="evenodd"><path d="m8.40625 2.136719h19.1875c3.460938 0 6.269531 2.808593 6.269531 6.269531v19.1875c0 3.460938-2.808593 6.269531-6.269531 6.269531h-19.1875c-3.460938 0-6.269531-2.808593-6.269531-6.269531v-19.1875c0-3.460938 2.808593-6.269531 6.269531-6.269531zm0 0" fill="#fff"/><path d="m3.167969 5.160156 29.773437 25.519532c.535156-.921876.921875-1.9375.921875-3.085938v-19.183594c0-3.476562-2.796875-6.273437-6.273437-6.273437h-19.183594c-2.253906 0-4.136719 1.246093-5.238281 3.023437zm14.179687 3.242188h12.828125v10.996094zm0 0" fill="#3e50b4"/><path d="m32.941406 30.679688-29.773437-25.519532c-.597657.960938-1.03125 2.03125-1.03125 3.25v19.183594c0 3.472656 2.796875 6.269531 6.269531 6.269531h19.183594c2.328125 0 4.269531-1.3125 5.351562-3.183593zm-27.117187-14.335938 12.828125 11h-12.828125zm0 0" fill="#02a8f3"/></g></svg>