<svg height="36pt" viewBox="0 0 36 36" width="36pt" xmlns="http://www.w3.org/2000/svg"><path d="m8.40625 2.136719h19.1875c3.460938 0 6.269531 2.808593 6.269531 6.269531v19.1875c0 3.460938-2.808593 6.269531-6.269531 6.269531h-19.1875c-3.460938 0-6.269531-2.808593-6.269531-6.269531v-19.1875c0-3.460938 2.808593-6.269531 6.269531-6.269531zm0 0" fill="#ffc35a" fill-rule="evenodd"/><path d="m18.839844 6.492188 10.667968 10.667968c.464844.464844.464844 1.214844 0 1.679688l-10.667968 10.667968c-.464844.464844-1.214844.464844-1.679688 0l-10.667968-10.667968c-.464844-.464844-.464844-1.214844 0-1.679688l10.667968-10.667968c.464844-.464844 1.214844-.464844 1.679688 0zm0 0" fill="#fff"/><path d="m18.457031 11.777344v3.785156l-2.738281 2.726562.007812.007813h-.007812v5.925781h1.824219v-5.445312l.914062-.9375v6.382812h1.824219v-12.445312zm0 0" fill="#2e2e2e"/></svg>