<svg height="36pt" viewBox="0 0 36 36" width="36pt" xmlns="http://www.w3.org/2000/svg"><g fill-rule="evenodd"><path d="m16.757812 16.960938c-.039062 0-.074218.003906-.113281.003906-.054687.003906-.109375.011718-.164062.019531-.050781.011719-.105469.023437-.15625.039063-.054688.011718-.105469.03125-.15625.050781s-.101563.039062-.148438.066406c-.046875.023437-.097656.050781-.140625.078125-.046875.03125-.089844.0625-.132812.097656-.042969.03125-.085938.066406-.125.105469-.035156.039063-.074219.078125-.109375.117187-.035157.042969-.066407.085938-.097657.132813-.03125.042969-.058593.089844-.085937.140625-.027344.046875-.050781.09375-.070313.144531-.019531.050781-.039062.101563-.054687.152344s-.03125.105469-.042969.160156c-.007812.050781-.019531.105469-.023437.160157-.003907.054687-.007813.105468-.007813.160156 0 .039062 0 .078125.003906.117187.003907.054688.011719.109375.019532.160157.007812.054687.023437.109374.039062.160156.011719.054687.03125.105468.050782.15625.015624.050781.039062.097656.0625.148437.027343.046875.054687.09375.082031.140625.03125.046875.0625.089844.09375.132813.035156.042969.070312.082031.109375.121093.039062.039063.078125.074219.117187.109376.042969.035156.085938.070312.128907.101562.046874.027344.09375.058594.140624.085938.050782.023437.097657.046874.148438.070312.046875.019531.101562.039062.152344.054688.050781.015624.105468.03125.15625.039062.054687.011719.109375.019531.164062.023438.050782.007812.105469.011718.160156.011718.039063 0 .078126-.003906.117188-.003906.054688-.003906.105469-.011719.160156-.019531.054688-.011719.109375-.023438.160156-.035157.050782-.015624.105469-.035156.152344-.054687.054688-.019531.101563-.042969.152344-.066406.046875-.023438.09375-.050781.140625-.082031.042969-.027344.089844-.058594.128906-.09375.042969-.035157.085938-.070313.125-.105469.039063-.039063.074219-.078125.109375-.121094.035156-.039063.070313-.085937.097656-.128906.03125-.042969.0625-.089844.085938-.136719.027344-.050781.050781-.097656.070312-.148438.023438-.050781.042969-.101562.058594-.152343.015625-.054688.027344-.105469.039063-.15625.011719-.054688.019531-.109375.023437-.164063.007813-.054687.011719-.109375.011719-.164062 0-.035156-.003906-.074219-.007813-.113282-.003906-.054687-.007812-.109374-.019531-.164062-.007812-.050781-.019531-.105469-.035156-.15625-.011719-.054688-.03125-.105469-.050781-.15625-.019532-.050781-.042969-.097656-.066406-.148438-.023438-.046874-.050782-.09375-.082032-.140624-.027344-.046876-.058594-.089844-.09375-.132813s-.070312-.082031-.109375-.121094c-.035156-.039062-.074219-.078125-.117187-.113281-.042969-.035156-.085938-.066406-.128906-.097656-.046876-.03125-.089844-.058594-.140626-.085938-.046874-.023437-.09375-.046875-.144531-.070312-.050781-.019532-.101562-.039063-.15625-.054688-.050781-.015625-.101562-.03125-.15625-.042968-.054687-.007813-.105469-.015626-.160156-.023438-.054687-.003906-.109375-.007812-.164063-.003906zm0 0" fill="#fff"/><path d="m24.859375 33.863281c-.015625-.015625-.035156-.03125-.050781-.046875-.371094-.402344-.746094-.804687-1.160156-1.113281-.414063-.304687-.863282-.515625-1.398438-.53125-.53125-.019531-1.011719.171875-1.460938.472656-.449218.300781-.867187.707031-1.269531 1.113281-.035156.039063-.070312.070313-.109375.105469zm0 0" fill="#80cbc4"/><path d="m31.410156 32.449219c-.121094-.101563-.351562-.179688-.460937-.277344h-.613281c-.1875.480469-.472657.859375-.722657 1.285156.667969-.230469 1.253907-.578125 1.796875-1.007812zm0 0" fill="#80cbc4"/><path d="m33.863281 16.070312c-.578125-1.011718-1.117187-2.058593-1.9375-2.875-1.175781-1.179687-2.578125-2.132812-4.136719-2.792968-1.558593-.65625-3.269531-1.023438-5.070312-1.023438-1.796875 0-3.511719.367188-5.066406 1.023438-1.558594.660156-2.964844 1.613281-4.140625 2.792968-1.179688 1.175782-2.132813 2.582032-2.792969 4.140626-.65625 1.554687-1.019531 3.269531-1.019531 5.066406 0 .050781.003906.097656.007812.144531-.003906.054687-.007812.101563-.007812.152344 0 .6875.054687 1.363281.15625 2.019531.035156.160156.089843.296875.136719.441406.316406 1.035156.886718 1.761719 1.382812 2.230469.492188.46875.90625.675781.90625.675781.402344.324219.898438.65625 1.476562.980469h-.050781s.304688 1.609375.882813 3.210937c.210937.585938.5 1.101563.785156 1.605469h4.035156c.039063-.035156.074219-.066406.109375-.105469.402344-.40625.820313-.8125 1.269531-1.113281.449219-.300781.929688-.492187 1.460938-.472656.535156.015625.984375.226563 1.398438.53125.414062.308594.789062.710937 1.160156 1.113281.015625.015625.035156.03125.050781.046875h2.734375c.714844 0 1.378906-.1875 2.019531-.40625.25-.425781.535157-.804687.722657-1.285156h.613281c.109375.097656.339843.175781.460937.277344 1.460938-1.148438 2.453125-2.851563 2.453125-4.859375zm-17.105469.894532c.054688-.003906.109376 0 .164063.003906.054687.007812.105469.015625.160156.023438.054688.011718.105469.027343.15625.042968.054688.015625.105469.035156.15625.054688.050781.023437.097657.046875.144531.070312.050782.027344.09375.054688.140626.085938.042968.03125.085937.0625.128906.097656.042968.035156.082031.074219.117187.113281.039063.039063.074219.078125.109375.121094s.066406.085937.09375.132813c.03125.046874.058594.09375.082032.140624.023437.050782.046874.097657.066406.148438.019531.050781.039062.101562.050781.15625.015625.050781.027344.105469.035156.15625.011719.054688.015625.109375.019531.164062.003907.039063.007813.078126.007813.113282 0 .054687-.003906.109375-.011719.164062-.003906.054688-.011718.109375-.023437.164063-.011719.050781-.023438.101562-.039063.15625-.015625.050781-.035156.101562-.058594.152343-.019531.050782-.042968.097657-.070312.148438-.023438.046875-.054688.09375-.085938.136719-.027343.042969-.0625.089843-.097656.128906-.035156.042969-.070312.082031-.109375.121094-.039062.035156-.082031.070312-.125.105469-.039062.035156-.085937.066406-.128906.09375-.046875.03125-.09375.058593-.140625.082031-.050781.023437-.097656.046875-.152344.066406-.046875.019531-.101562.039063-.152344.054687-.050781.011719-.105468.023438-.160156.035157-.054687.007812-.105468.015625-.160156.019531-.039062 0-.078125.003906-.117188.003906-.054687 0-.109374-.003906-.160156-.011718-.054687-.003907-.109375-.011719-.164062-.023438-.050782-.007812-.105469-.023438-.15625-.039062-.050782-.015626-.105469-.035157-.152344-.054688-.050781-.023438-.097656-.046875-.148438-.070312-.046874-.027344-.09375-.058594-.140624-.085938-.042969-.03125-.085938-.066406-.128907-.101562-.039062-.035157-.078125-.070313-.117187-.109376-.039063-.039062-.074219-.078124-.109375-.121093-.03125-.042969-.0625-.085938-.09375-.132813-.027344-.046875-.054688-.09375-.082031-.140625-.023438-.050781-.046876-.097656-.0625-.148437-.019532-.050782-.039063-.101563-.050782-.15625-.015625-.050782-.03125-.105469-.039062-.160156-.007813-.050782-.015625-.105469-.019532-.160157-.003906-.039062-.003906-.078125-.003906-.117187 0-.054688.003906-.105469.007813-.160156.003906-.054688.015625-.109376.023437-.160157.011719-.054687.027344-.109375.042969-.160156s.035156-.101563.054687-.152344c.019532-.050781.042969-.097656.070313-.144531.027344-.050781.054687-.097656.085937-.140625.03125-.046875.0625-.089844.097657-.132813.035156-.039062.074219-.078124.109375-.117187.039062-.039063.082031-.074219.125-.105469.042968-.035156.085937-.066406.132812-.097656.042969-.027344.09375-.054688.140625-.078125.046875-.027344.097657-.046875.148438-.066406s.101562-.039063.15625-.050781c.050781-.015626.105469-.027344.15625-.039063.054687-.007813.109375-.015625.164062-.019531.039063 0 .074219-.003906.113281-.003906zm0 0" fill="#009688"/><path d="m9.9375 24.984375c.042969.242187.03125.5.09375.738281.222656.832032.546875 1.625.96875 2.347656.527344 1.089844 1.199219 2.09375 1.996094 2.984376.503906.570312 1.132812 1.007812 1.726562 1.476562-.039062-.09375-.097656-.171875-.132812-.273438-.578125-1.601562-.882813-3.210937-.882813-3.210937h.050781c-.578124-.324219-1.074218-.65625-1.476562-.980469 0 0-.414062-.207031-.90625-.675781-.496094-.46875-1.066406-1.195313-1.382812-2.230469-.019532-.058594-.035157-.121094-.054688-.175781zm0 0" fill="#80cbc4"/><path d="m9.726562 23.074219c0 .007812-.027343.0625-.027343.066406 0 .234375.070312.449219.085937.679687-.019531-.246093-.050781-.492187-.058594-.746093zm0 0" fill="#8e8e8e"/><path d="m20.414062 9.847656c.777344-.144531 1.488282-.46875 2.304688-.46875 1.214844 0 2.3125.382813 3.429688.691406-.222657-.492187-.292969-.703124-.667969-1.40625-.339844-.640624-.71875-1.28125-1.085938-1.761718-.367187-.480469-.726562-.800782-1.023437-.800782s-.679688.316407-1.085938.800782c-.402344.480468-.832031 1.125-1.222656 1.769531-.359375.585937-.398438.710937-.648438 1.175781zm0 0" fill="#455a64"/><path d="m14.148438 12.765625c1.054687-.9375 2.183593-1.804687 3.503906-2.363281.203125-.085938.457031-.054688.667968-.132813-.382812-.28125-.441406-.347656-.925781-.675781-1.171875-.796875-2.445312-1.539062-2.832031-1.316406-.34375.195312-.4375 1.6875-.449219 3.128906-.003906.691406.015625.835938.035157 1.359375zm0 0" fill="#455a64"/><path d="m33.863281 15.898438c-.023437 0-.097656-.003907-.117187-.003907.035156.058594.082031.113281.117187.175781zm0 0" fill="#8e8e8e"/><path d="m33.863281 14.109375c-.160156.574219-.332031 1.238281-.382812 1.394531.078125.136719.1875.25.265625.390625.019531 0 .09375.003907.117187.003907zm0 0" fill="#8e8e8e"/><path d="m33.863281 9.539062c-.648437-.019531-1.929687.214844-3.515625.640626-1.035156.277343-1.332031.378906-2.023437.585937 1.320312.636719 2.574219 1.402344 3.601562 2.429687.65625.65625 1.09375 1.492188 1.554688 2.308594.050781-.15625.222656-.820312.382812-1.394531zm0 0" fill="#455a64"/><path d="m8.410156 2.136719c-3.476562 0-6.273437 2.796875-6.273437 6.269531v19.183594c0 3.476562 2.796875 6.273437 6.273437 6.273437h6.964844c-.238281-.417969-.457031-.863281-.652344-1.332031-.59375-.46875-1.222656-.90625-1.726562-1.476562-.796875-.890626-1.46875-1.894532-1.996094-2.984376-.421875-.722656-.746094-1.515624-.96875-2.347656-.0625-.238281-.050781-.496094-.09375-.738281-.03125-.085937-.058594-.167969-.082031-.265625-.046875-.292969-.042969-.597656-.070313-.898438-.015625-.230468-.085937-.445312-.085937-.679687 0-.003906.027343-.058594.027343-.066406-.003906-.125-.027343-.246094-.027343-.375 0-.050781.003906-.097657.007812-.152344-.003906-.046875-.007812-.09375-.007812-.144531 0-1.796875.363281-3.511719 1.019531-5.066406.660156-1.558594 1.613281-2.964844 2.792969-4.140626.179687-.183593.445312-.261718.636719-.429687-.019532-.523437-.039063-.667969-.035157-1.355469.011719-1.445312.105469-2.9375.449219-3.132812.386719-.222656 1.660156.519531 2.832031 1.316406.484375.328125.542969.394531.925781.675781.660157-.238281 1.390626-.292969 2.09375-.421875.25-.464844.289063-.589844.648438-1.175781.390625-.644531.820312-1.289063 1.222656-1.769531.40625-.484375.789063-.800782 1.085938-.800782s.65625.320313 1.023437.800782c.367188.480468.746094 1.121094 1.085938 1.765625.375.699219.445312.910156.667969 1.40625.535156.148437 1.136718.117187 1.640624.328125.199219.085937.339844.265625.535157.363281.691406-.207031.988281-.308594 2.023437-.585937 1.585938-.425782 2.867188-.660157 3.515625-.640626v-1.132812c0-3.472656-2.796875-6.269531-6.269531-6.269531zm0 0" fill="#8e8e8e"/></g></svg>