<svg height="36pt" viewBox="0 0 36 36" width="36pt" xmlns="http://www.w3.org/2000/svg"><path d="m8.40625 2.136719h19.1875c3.460938 0 6.269531 2.808593 6.269531 6.269531v19.1875c0 3.460938-2.808593 6.269531-6.269531 6.269531h-19.1875c-3.460938 0-6.269531-2.808593-6.269531-6.269531v-19.1875c0-3.460938 2.808593-6.269531 6.269531-6.269531zm0 0" fill="#39c" fill-rule="evenodd"/><path d="m21.972656 6.324219c-1.273437-.058594-2.636718.304687-3.972656.976562-2.222656-1.117187-4.519531-1.355469-6.351562-.296875-1.832032 1.058594-2.773438 3.164063-2.917969 5.648438-2.078125 1.367187-3.429688 3.234375-3.429688 5.351562 0 2.113282 1.351563 3.984375 3.429688 5.351563.144531 2.484375 1.085937 4.585937 2.917969 5.644531 1.835937 1.058594 4.128906.824219 6.351562-.292969 2.222656 1.117188 4.515625 1.351563 6.347656.292969 1.832032-1.058594 2.777344-3.160156 2.921875-5.644531 2.078125-1.367188 3.429688-3.238281 3.429688-5.351563 0-2.117187-1.351563-3.984375-3.429688-5.351562-.144531-2.484375-1.085937-4.589844-2.917969-5.648438-.730468-.421875-1.535156-.640625-2.378906-.679687zm-.066406 1.003906c.703125.03125 1.359375.210937 1.941406.546875 1.308594.757812 2.109375 2.230469 2.355469 4.152344-1.160156-.605469-2.496094-1.074219-3.953125-1.390625-1-1.105469-2.074219-2.023438-3.179688-2.726563.992188-.417968 1.953126-.621094 2.835938-.582031zm-7.8125 0c .878906-.039063 1.839844.167969 2.832031.582031-1.101562.703125-2.179687 1.625-3.179687 2.726563-1.457032.316406-2.789063.789062-3.953125 1.390625.246093-1.917969 1.046875-3.394532 2.359375-4.152344.582031-.335938 1.238281-.515625 1.941406-.546875zm3.90625 1.105469c.859375.484375 1.71875 1.128906 2.546875 1.90625-.824219-.101563-1.675781-.15625-2.546875-.15625-.875 0-1.726562.054687-2.550781.15625.828125-.777344 1.691406-1.421875 2.550781-1.90625zm0 2.753906c1.304688 0 2.554688.132812 3.722656.363281.785156.898438 1.527344 1.914063 2.175782 3.042969.652343 1.132812 1.167968 2.28125 1.550781 3.410156-.382813 1.128906-.894531 2.273438-1.546875 3.40625-.652344 1.128906-1.394532 2.144532-2.179688 3.042969-1.171875.230469-2.417968.363281-3.722656.363281s-2.554688-.128906-3.726562-.363281c-.785157-.898437-1.523438-1.914063-2.175782-3.042969s-1.164062-2.277344-1.546875-3.40625c.382813-1.128906.894531-2.28125 1.546875-3.410156s1.390625-2.144531 2.175782-3.042969c1.171874-.230469 2.421874-.363281 3.726562-.363281zm-5.363281.773438c-.5.664062-.972657 1.375-1.410157 2.128906-.4375.757812-.816406 1.523437-1.140624 2.292968-.253907-1.109374-.382813-2.179687-.375-3.164062.847656-.5 1.835937-.925781 2.925781-1.257812zm10.726562 0c1.085938.332031 2.074219.757812 2.925781 1.257812.007813.984375-.121093 2.050781-.375 3.160156-.324218-.765625-.703124-1.53125-1.140624-2.285156-.4375-.757812-.910157-1.46875-1.410157-2.132812zm-7.265625 1.164062-1.0625 4.671875-1.667968.253906-.246094.976563 1.691406-.261719-.714844 3.140625h7.074219l.679687-1.953125h-4.382812l.375-1.65625 1.914062-.292969.242188-.976562-1.929688.300781.953126-4.203125zm-7.375.757812c.058594 1.308594.316406 2.703126.769532 4.121094-.453126 1.421875-.710938 2.8125-.769532 4.121094-1.539062-1.175781-2.414062-2.605469-2.414062-4.121094s.875-2.949218 2.414062-4.121094zm18.554688 0c1.539062 1.171876 2.414062 2.605469 2.414062 4.121094s-.875 2.945313-2.414062 4.121094c-.058594-1.308594-.316406-2.703125-.769532-4.121094.453126-1.421875.710938-2.8125.769532-4.121094zm-17.191406 5.746094c.324218.761719.703124 1.527344 1.140624 2.285156.433594.757813.90625 1.46875 1.410157 2.128907-1.089844-.328125-2.078125-.753907-2.925781-1.253907-.007813-.988281.121093-2.054687.375-3.160156zm15.828124 0c .253907 1.105469.382813 2.171875.375 3.160156-.851562.5-1.839843.925782-2.925781 1.253907.5-.660157.972657-1.375 1.410157-2.132813.4375-.753906.816406-1.515625 1.140624-2.28125zm-16.121093 4.347656c1.164062.605469 2.496093 1.078126 3.953125 1.394532 1 1.101562 2.078125 2.019531 3.179687 2.722656-1.785156.75-3.460937.792969-4.773437.035156-1.3125-.757812-2.113282-2.230468-2.359375-4.152344zm16.410156.003907c-.246094 1.917969-1.046875 3.390625-2.359375 4.148437-1.3125.757813-2.988281.714844-4.773438-.03125 1.105469-.703125 2.179688-1.621094 3.179688-2.726562 1.457031-.316406 2.792969-.789063 3.953125-1.390625zm-10.753906 1.683593c.824219.105469 1.675781.160157 2.550781.160157s1.726562-.054688 2.550781-.15625c-.832031.773437-1.691406 1.421875-2.550781 1.90625-.859375-.488281-1.71875-1.132813-2.550781-1.910157zm0 0" fill="#fff"/></svg>