<svg height="36pt" viewBox="0 0 36 36" width="36pt" xmlns="http://www.w3.org/2000/svg"><path d="m8.40625 2.136719h19.1875c3.460938 0 6.269531 2.808593 6.269531 6.269531v19.1875c0 3.460938-2.808593 6.269531-6.269531 6.269531h-19.1875c-3.460938 0-6.269531-2.808593-6.269531-6.269531v-19.1875c0-3.460938 2.808593-6.269531 6.269531-6.269531zm0 0" fill="#4c636b" fill-rule="evenodd"/><path d="m20.25 16.875c0 4.347656-3.527344 7.875-7.875 7.875s-7.875-3.527344-7.875-7.875 3.527344-7.875 7.875-7.875 7.875 3.527344 7.875 7.875zm0 0" fill="#3d4f56"/><path d="m6.804688 11.304688c-.261719.269531-.507813.554687-.730469.859374l2.425781 2.429688c-1.039062 1.765625-.753906 4.011719.691406 5.464844 1.453125 1.445312 3.699219 1.730468 5.464844.6875l2.429688 2.429687c.300781-.222656.589843-.46875.859374-.734375.261719-.265625.507813-.554687.730469-.855468l-2.429687-2.429688c1.042968-1.765625.757812-4.011719-.691406-5.460938-1.449219-1.449218-3.695313-1.734374-5.460938-.691406l-2.429688-2.429687c-.300781.222656-.589843.46875-.859374.734375zm0 0" fill="#ee5858"/><path d="m14.625 16.875c0 1.242188-1.007812 2.25-2.25 2.25s-2.25-1.007812-2.25-2.25 1.007812-2.25 2.25-2.25 2.25 1.007812 2.25 2.25zm0 0" fill="#f3c4c4"/><path d="m23.625 10.125h6.75c.621094 0 1.125.503906 1.125 1.125s-.503906 1.125-1.125 1.125h-6.75c-.621094 0-1.125-.503906-1.125-1.125s.503906-1.125 1.125-1.125zm0 0" fill="#3d4f56"/><path d="m31.5 25.3125c0 .933594-.753906 1.6875-1.6875 1.6875s-1.6875-.753906-1.6875-1.6875.753906-1.6875 1.6875-1.6875 1.6875.753906 1.6875 1.6875zm0 0" fill="#58c4ee"/><path d="m27 25.3125c0 .933594-.753906 1.6875-1.6875 1.6875s-1.6875-.753906-1.6875-1.6875.753906-1.6875 1.6875-1.6875 1.6875.753906 1.6875 1.6875zm0 0" fill="#58c4ee"/><g fill="#3d4f56"><path d="m23.625 13.5h6.75c.621094 0 1.125.503906 1.125 1.125s-.503906 1.125-1.125 1.125h-6.75c-.621094 0-1.125-.503906-1.125-1.125s.503906-1.125 1.125-1.125zm0 0"/><path d="m23.625 16.875h6.75c.621094 0 1.125.503906 1.125 1.125s-.503906 1.125-1.125 1.125h-6.75c-.621094 0-1.125-.503906-1.125-1.125s.503906-1.125 1.125-1.125zm0 0"/><path d="m23.625 20.25h6.75c.621094 0 1.125.503906 1.125 1.125s-.503906 1.125-1.125 1.125h-6.75c-.621094 0-1.125-.503906-1.125-1.125s.503906-1.125 1.125-1.125zm0 0"/></g></svg>