<svg height="36pt" viewBox="0 0 36 36" width="36pt" xmlns="http://www.w3.org/2000/svg"><path d="m8.40625 2.136719h19.1875c3.460938 0 6.269531 2.808593 6.269531 6.269531v19.1875c0 3.460938-2.808593 6.269531-6.269531 6.269531h-19.1875c-3.460938 0-6.269531-2.808593-6.269531-6.269531v-19.1875c0-3.460938 2.808593-6.269531 6.269531-6.269531zm0 0" fill="#ffba39" fill-rule="evenodd"/><path d="m16.074219 27.34375c-1.460938-.914062-2.65625-1.695312-2.660157-1.738281 0-.136719 5.285157-3.386719 5.394532-3.316407.0625.039063.113281.414063.113281.839844v.769532l.4375-.070313c.785156-.128906 2.082031-.863281 2.8125-1.589844 2.183594-2.183593 2.394531-5.515625.496094-7.917969-.246094-.3125-.417969-.625-.386719-.695312.140625-.300781 2.164062-1.957031 2.316406-1.898438.09375.03125.40625.367188.699219.738282 2.386719 3.042968 2.445313 7.777344.136719 10.917968-.597656.808594-1.910156 2.023438-2.707032 2.5-.816406.488282-2.054687.949219-3.082031 1.152344l-.722656.140625v.859375c0 .46875-.042969.878906-.09375.910156-.050781.035157-1.289063-.6875-2.753906-1.601562zm-5.175781-3.507812c-.691407-.800782-1.195313-1.71875-1.597657-2.90625-.320312-.9375-.386719-1.320313-.429687-2.515626-.058594-1.636718.125-2.757812.667968-4.035156 1.167969-2.742187 3.789063-4.84375 6.714844-5.386718l.792969-.148438v-.855469c0-.472656.042969-.886719.097656-.921875.058594-.035156.914063.453125 1.90625 1.078125.992188.628907 2.183594 1.378907 2.652344 1.664063.464844.289062.847656.558594.847656.601562 0 .128906-5.296875 3.378906-5.402343 3.3125-.058594-.035156-.101563-.402344-.101563-.816406 0-.652344-.03125-.753906-.214844-.753906-.390625 0-1.359375.382812-2 .789062-3.050781 1.9375-3.742187 5.984375-1.5 8.804688.226563.285156.386719.574218.351563.644531-.089844.195313-2.109375 1.945313-2.242188 1.945313-.066406 0-.308594-.226563-.542968-.5zm0 0" fill="#fff"/></svg>