<svg height="36pt" viewBox="0 0 36 36" width="36pt" xmlns="http://www.w3.org/2000/svg" xmlns:xlink="http://www.w3.org/1999/xlink"><linearGradient id="a" gradientTransform="matrix(1.13952 -.126133 .126133 1.13952 6.728058 8.192384)" gradientUnits="userSpaceOnUse" x1="13.69913" x2="13.57665" y1="10.763234" y2="23.940351"><stop offset="0" stop-color="#fff"/><stop offset="1" stop-color="#fff" stop-opacity="0"/></linearGradient><symbol id="b" overflow="visible"><path d="m .234375-.703125c-.054687 0-.089844.03125-.109375.09375-.011719.054687-.011719.132813 0 .234375.007812.09375.03125.167969.0625.21875.03125.042969.070312.0625.125.0625.050781-.007812.082031-.039062.09375-.09375.019531-.050781.023438-.125.015625-.21875-.011719-.101562-.03125-.179688-.0625-.234375-.03125-.050781-.074219-.070313-.125-.0625zm0-.078125c.082031-.007812.144531.015625.1875.078125.050781.0625.082031.15625.09375.28125.019531.117187.007813.210937-.03125.28125-.03125.0742188-.089844.1171875-.171875.125-.074219.01171875-.136719-.015625-.1875-.078125-.0546875-.0625-.0898438-.148438-.109375-.265625-.01171875-.125.0039062-.222656.046875-.296875.039062-.070312.097656-.113281.171875-.125zm0 0"/></symbol><symbol id="c" overflow="visible"><path d="m .109375-.140625.09375-.015625.015625.125-.09375.015625zm-.046875-.390625.09375-.015625.015625.125-.09375.015625zm0 0"/></symbol><symbol id="d" overflow="visible"><path d="m .109375-.09375.15625-.015625-.0625-.5625-.15625.046875-.015625-.078125.171875-.0625.109375-.015625.0625.65625.15625-.015625.015625.078125-.421875.046875zm0 0"/></symbol><g fill-rule="evenodd"><path d="m8.40625 2.136719h19.1875c3.464844 0 6.269531 2.804687 6.269531 6.269531v19.1875c0 3.460938-2.804687 6.269531-6.269531 6.269531h-19.1875c-3.460938 0-6.269531-2.808593-6.269531-6.269531v-19.1875c0-3.464844 2.808593-6.269531 6.269531-6.269531zm0 0" fill="#c0f371"/><path d="m8.410156 2.136719c-3.476562 0-6.273437 2.796875-6.273437 6.269531v12.050781c1.128906-.230469 2.417969-.5625 3.347656-.675781 1.710937-.203125 3.121094-.214844 4.351563-.097656 1.226562.121094 2.277343.375 3.261718.703125.988282.332031 1.914063.742187 2.898438 1.171875.980468.429687 2.023437.878906 3.242187 1.292968 1.214844.417969 2.609375.800782 4.296875 1.089844 1.691406.292969 3.675782.492188 6.074219.542969 1.191406.027344 2.84375-.113281 4.257813-.167969v-15.910156c0-3.472656-2.800782-6.269531-6.273438-6.269531zm0 0" fill="#4d9fc3"/><path d="m21.730469 23.128906c-5.53125.503906-9.757813 3.535156-16.242188 3.203125-1.324219-.121093-2.417969-.375-3.355469-.726562v1.988281c0 .710938.113282 1.390625.328126 2.023438 1.058593-.5625 2.179687-1.039063 3.21875-1.292969 1.175781-.289063 2.34375-.410157 3.519531-.425781 2.351562-.027344 4.730469.378906 7.242187.726562 1.257813.175781 2.542969.335938 3.878906.425781 1.332032.085938 2.710938.101563 4.144532-.019531 1.4375-.121094 2.929687-.375 4.492187-.820312 1.5625-.449219 3.195313-1.09375 4.90625-1.992188-5.027343-2.785156-8.8125-3.394531-12.132812-3.089844zm0 0" fill="#97c607"/></g><path d="m8.324219 24.972656h2.617187v3.929688h-2.617187zm0 0" fill="#986005"/><path d="m15.300781 26.484375h-11.078125l5.539063-9.59375zm0 0" fill="#74a10d"/><path d="m14.421875 23.121094h-9.519531l4.761718-8.242188zm0 0" fill="#98c305"/><path d="m13.570312 19.339844h-7.570312l3.785156-6.554688zm0 0" fill="#addb1e"/><path d="m33.863281 26.21875c-1.710937.898438-3.34375 1.542969-4.90625 1.992188-1.5625.445312-3.054687.699218-4.492187.820312-1.433594.121094-2.8125.105469-4.144532.019531-1.335937-.089843-2.621093-.25-3.878906-.425781-2.511718-.347656-4.890625-.753906-7.242187-.726562-1.175781.015624-2.34375.136718-3.519531.425781-1.039063.253906-2.160157.730469-3.21875 1.292969.839843 2.476562 3.179687 4.246093 5.945312 4.246093h19.183594c3.476562 0 6.273437-2.792969 6.273437-6.269531zm0 0" fill="#74a10d" fill-rule="evenodd"/><path d="m17.371094 6.921875 9.613281-1.066406c.742187-.082031 1.402344.449219 1.484375 1.191406l2.054688 18.546875c-.710938 7.765625-11.125 6.464844-12.292969 1.359375l-2.050781-18.546875c-.082032-.742188.449218-1.402344 1.191406-1.484375zm0 0" fill="#cdced0"/><path d="m17.261719 7.679688.957031 9.402343c.242188 1.570313.332031 3.152344 1.914062 4.574219 1.238282-1.71875 4.390626-2.726562 7.15625-.792969.875-.898437 1.355469-2.371093 1.019532-5.035156l-1.023438-9.230469zm0 0"/><path d="m29.65625 23.875c.328125 2.964844-1.808594 5.636719-4.773438 5.964844-2.964843.328125-5.636718-1.808594-5.964843-4.777344-.328125-2.964844 1.808593-5.632812 4.773437-5.960938 2.96875-.328124 5.636719 1.808594 5.964844 4.773438zm0 0" fill="#808080"/><path d="m23.691406 19.101562c-1.253906.140626-2.417968.714844-3.292968 1.625l3.878906 3.550782 2.898437-4.367188c-1.035156-.65625-2.265625-.941406-3.484375-.808594zm3.675782.933594-2.851563 4.292969 5.121094-.566406c-.199219-1.503907-1.023438-2.859375-2.269531-3.726563zm-7.125.859375c-.980469 1.113281-1.460938 2.578125-1.328126 4.054688l5.136719-.566407zm-1.308594 4.28125c.199218 1.507813 1.027344 2.859375 2.273437 3.730469l2.847657-4.296875zm5.640625-.621093 3.78125 3.460937c.964843-1.109375 1.4375-2.5625 1.304687-4.023437zm-.253907.074218-2.921874 4.402344c1.035156.65625 2.261718.941406 3.480468.808594 1.269532-.144532 2.445313-.730469 3.320313-1.65625zm0 0" fill="url(#a)"/><path d="m15.390218 15.795097c.000398.95645-.774373 1.731113-1.730823 1.731511-.953063.000773-1.727726-.773998-1.728124-1.730448-.000773-.953063.773998-1.727726 1.730447-1.728124.953064-.000773 1.727727.773998 1.7285 1.727061zm0 0" fill="#cdced0" stroke="#808080" stroke-linecap="round" stroke-width=".196253" transform="matrix(1.13952 -.126133 .126133 1.13952 6.728058 8.192384)"/><path d="m24.417969 20.027344c.035156.316406-.191407.601562-.507813.636718-.316406.035157-.601562-.191406-.636718-.511718-.035157-.316406.191406-.601563.507812-.636719s.601562.195313.636719.511719zm0 0" fill="#ab1609"/><path d="m-45.12812 45.746569c-.000401-.05832-.067393-.103443-.156567-.10303-.085786.000789-.155752.044464-.155352.102784.000776.054933.071155.100431.156942.099643.085412.002598.155752-.044463.154977-.099397zm0 0" fill="#ab1609" stroke="#e73424" stroke-linecap="round" stroke-width=".196253" transform="matrix(1.13952 -.126133 .126133 1.13952 69.537059 -37.969743)"/><path d="m18.578125 17.230469.007813.054687.070312.632813 2.320312-.257813.113282-.011718 2.324218-.257813 2.320313-.257813 2.320313-.253906-.074219-.691406-2.320313.257812-2.324218.257813-2.320313.257813-.117187.011718zm.128906.101562 2.207031-.246093.050782.460937-2.210938.242187zm2.320313-.257812 2.207031-.246094.050781.460937-2.207031.242188zm2.324218-.257813 2.207032-.242187.050781.457031-2.207031.242188zm2.320313-.257812 2.207031-.242188.050782.457032-2.207032.246093zm0 0" fill="#0062cd"/><g fill="#0062cd"><use x="20.742634" xlink:href="#b" y="16.390861"/><use x="21.470414" xlink:href="#b" y="16.310304"/><use x="22.198193" xlink:href="#c" y="16.229746"/><use x="22.583227" xlink:href="#b" y="16.187126"/><use x="23.311006" xlink:href="#b" y="16.106569"/><use x="24.038786" xlink:href="#c" y="16.026011"/><use x="24.423819" xlink:href="#b" y="15.983392"/><use x="25.151599" xlink:href="#d" y="15.902834"/></g><g fill="#808080"><path d="m20.5 23.667969-.605469-.851563 1.039063-.097656zm0 0"/><path d="m21.296875 24.078125-.605469-.851563 1.039063-.097656zm0 0"/><path d="m27.210938 22.121094 1.039062-.097656-.4375.949218zm0 0"/><path d="m26.453125 22.609375 1.039063-.097656-.433594.949219zm0 0"/><path d="m28.511719 25.335938-.113281.328124-1.492188-.5-.0625.183594 1.488281.5-.105469.308594.644532-.226562zm0 0"/><path d="m20.824219 27.113281-.183594-.292969 1.324219-.851562-.105469-.164062-1.320313.847656-.171874-.277344-.230469.648438zm0 0"/><path d="m22.863281 28.195312-.285156.617188c2.164063.734375 3.625.128906 4.71875-1.1875-1.589844.886719-3.117187 1.378906-4.433594.570312zm0 0"/></g></svg>