<svg height="36pt" viewBox="0 0 36 36" width="36pt" xmlns="http://www.w3.org/2000/svg"><path d="m8.40625 2.136719h19.1875c3.460938 0 6.269531 2.808593 6.269531 6.269531v19.1875c0 3.460938-2.808593 6.269531-6.269531 6.269531h-19.1875c-3.460938 0-6.269531-2.808593-6.269531-6.269531v-19.1875c0-3.460938 2.808593-6.269531 6.269531-6.269531zm0 0" fill="#ccc" fill-rule="evenodd"/><path d="m29.25 18c0 6.214844-5.035156 11.25-11.25 11.25s-11.25-5.035156-11.25-11.25 5.035156-11.25 11.25-11.25 11.25 5.035156 11.25 11.25zm0 0" fill="#3f3f3f"/><path d="m13.5 11.25v13.5h3.375v-4.5h3.375v-3.375h-3.375v-2.25h5.625v-3.375zm0 0" fill="#fff"/></svg>