<svg height="36pt" viewBox="0 0 36 36" width="36pt" xmlns="http://www.w3.org/2000/svg" xmlns:xlink="http://www.w3.org/1999/xlink"><filter id="a" height="100%" width="100%" x="0%" y="0%"><feColorMatrix in="SourceGraphic" type="matrix" values="0 0 0 0 1 0 0 0 0 1 0 0 0 0 1 0 0 0 1 0"/></filter><mask id="b"><g filter="url(#a)"><path d="m0 0h36v36h-36z" fill-opacity=".980392"/></g></mask><clipPath id="c"><path d="m0 0h36v36h-36z"/></clipPath><g clip-path="url(#c)" mask="url(#b)"><path d="m8.40625 2.136719h19.1875c3.460938 0 6.269531 2.808593 6.269531 6.269531v19.1875c0 3.460938-2.808593 6.269531-6.269531 6.269531h-19.1875c-3.460938 0-6.269531-2.808593-6.269531-6.269531v-19.1875c0-3.460938 2.808593-6.269531 6.269531-6.269531zm0 0" fill="#4f4f4f" fill-rule="evenodd"/></g><path d="m26.222656 10.261719c-.476562-.023438-1.828125.082031-3.941406 1.550781-2.257812-.683594-4.683594-.789062-7.398438 0-2.109374-1.46875-3.191406-1.574219-3.667968-1.550781-.160156.007812-.238282.03125-.238282.03125-.804687 2.082031-.296874 3.625-.144531 4.007812-.941406 1.054688-1.519531 2.40625-1.519531 4.058594 0 5.796875 3.445312 7.09375 6.71875 7.476563-.421875.378906-.804688 1.046874-.9375 2.023437-.839844.390625-2.976562 1.054687-4.289062-1.257813 0 0-.78125-1.453124-2.257813-1.558593 0 0-1.441406-.019531-.101563.917969 0 0 .964844.46875 1.636719 2.214843 0 0 .863281 2.945313 4.964844 2.03125.007813 1.109375.015625 1.828125.015625 2.265625.96875.1875 1.953125.285156 2.9375.285156 1.484375-.003906 2.957031-.214843 4.378906-.632812.003906-.707031.015625-1.792969.015625-3.496094 0-1.410156-.472656-2.335937-1-2.804687 3.285157-.371094 6.730469-1.652344 6.730469-7.464844 0-1.652344-.570312-3.003906-1.515625-4.058594.148437-.382812.65625-1.925781-.148437-4.007812 0 0-.074219-.023438-.234376-.03125zm0 0" fill="#fff"/></svg>