<svg height="36pt" viewBox="0 0 36 36" width="36pt" xmlns="http://www.w3.org/2000/svg"><path d="m33.75 7.839844c-.0625-.652344-.132812-1.300782-.378906-1.878906-.316406-.75-.773438-1.425782-1.339844-1.992188-.570312-.566406-1.242188-1.027344-1.996094-1.34375-.574218-.242188-1.222656-.3125-1.871094-.375h-10.164062v15.75h15.75zm0 0" fill="#21d789"/><path d="m7.835938 2.25c-.648438.0625-1.300782.132812-1.875.375-.75.316406-1.425782.777344-1.992188 1.34375s-1.027344 1.242188-1.34375 1.992188c-.242188.574218-.3125 1.226562-.375 1.875v10.164062h15.75v-15.75zm0 0" fill="#2086e7"/><path d="m28.164062 33.75c.648438-.0625 1.300782-.132812 1.875-.375.75-.316406 1.425782-.777344 1.992188-1.34375s1.027344-1.242188 1.34375-1.992188c.242188-.574218.3125-1.226562.375-1.875v-10.164062h-15.75v15.75zm0 0" fill="#6655e4"/><path d="m2.25 28.160156c.0625.652344.136719 1.300782.378906 1.878906.316406.75.773438 1.425782 1.339844 1.992188.570312.566406 1.242188 1.027344 1.996094 1.34375.574218.242188 1.222656.3125 1.871094.375h10.164062v-15.75h-15.75zm0 0" fill="#21d789"/><path d="m10.714844 5.949219h14.570312c2.632813 0 4.765625 2.132812 4.765625 4.765625v14.570312c0 2.632813-2.132812 4.765625-4.765625 4.765625h-14.570312c-2.632813 0-4.765625-2.132812-4.765625-4.765625v-14.570312c0-2.632813 2.132812-4.765625 4.765625-4.765625zm0 0" fill="#3f3f3f" fill-rule="evenodd"/><g fill="none" stroke="#fff" stroke-linecap="round" transform="matrix(1.010599 0 0 1.010599 -9.799358 41.295485)"><path d="m21.474094-16.051138h8.001132" stroke-width="2"/><path d="m24.473552-25.049513h2.002216m-1.001108 0s .490891 2.999458-1.99835 2.999458c-2.002216 0-2.002216-2.002215-2.002216-4.000566 0-1.99835 0-4.000566 2.002216-4.000566 1.99835 0 1.99062 1.001108 1.99062 1.001108" stroke-linejoin="bevel" stroke-width="1.999874"/><path d="m31.516095-30.051187c2.40034 0 2.002216 1.998351 2.002216 4.000566 0 1.998351.355605 4.058546-2.002216 3.996701-2.346226 0-1.998351-1.99835-1.998351-3.996701 0-2.002215-.436776-4.000566 1.998351-4.000566" stroke-linejoin="bevel" stroke-width="1.999874"/></g></svg>