<svg height="36pt" viewBox="0 0 36 36" width="36pt" xmlns="http://www.w3.org/2000/svg"><path d="m8.40625 2.136719h19.1875c3.460938 0 6.269531 2.808593 6.269531 6.269531v19.1875c0 3.460938-2.808593 6.269531-6.269531 6.269531h-19.1875c-3.460938 0-6.269531-2.808593-6.269531-6.269531v-19.1875c0-3.460938 2.808593-6.269531 6.269531-6.269531zm0 0" fill="#285b1f" fill-rule="evenodd"/><path d="m24.699219 24.230469c-4.410157 5.015625-8.253907 4.871093-10.894531 2.574219-3.960938-3.453126-7.625-15.996094-5.535157-18.367188 2.089844-2.375 15.238281 1.238281 18.058594 3.863281 2.820313 2.628907 3.011719 6.652344-1.628906 11.929688zm0 0" fill="#fff"/><path d="m15.429688 15.046875c-1.046876 0-1.863282.292969-2.453126.878906-.589843.582031-.882812 1.398438-.882812 2.445313s.292969 1.859375.882812 2.445312c.589844.582032 1.40625.875 2.453126.875.476562 0 .925781-.058594 1.347656-.179687.421875-.121094.875-.304688 1.222656-.539063v-2.972656h-2.214844v.738281h1.472656v1.914063c-.199218.113281-.425781.195312-.675781.25-.25.050781-.757812.078125-1.078125.078125-.816406 0-1.617187-.21875-2.027344-.65625-.410156-.4375-.644531-1.089844-.644531-1.953125 0-.867188.234375-1.519532.644531-1.957032.410157-.4375 1.210938-.65625 2.027344-.65625.417969 0 .699219.070313 1.078125.207032.375.136718.714844.339844 1.046875.613281v-.921875c-.328125-.203125-.675781-.351562-1.070312-.457031-.390625-.101563-.695313-.152344-1.128906-.152344zm4.046874 0v6.644531h.738282v-2.214844h1.304687c.75-.007812 1.425781-.152343 1.808594-.472656.382813-.324218.574219-1.023437.574219-1.65625 0-.625-.191406-1.46875-.574219-1.792968-.382813-.328126-1.058594-.507813-1.808594-.507813zm.738282.738281h1.367187c.503907-.011718.898438.101563 1.171875.308594.277344.203125.414063.863281.414063 1.238281 0 .378907-.136719.894531-.414063 1.097657-.273437.207031-.664062.308593-1.171875.308593h-1.367187zm0 0" fill="#b7d161"/></svg>