<svg height="36pt" viewBox="0 0 36 36" width="36pt" xmlns="http://www.w3.org/2000/svg"><path d="m8.40625 2.136719h19.1875c3.460938 0 6.269531 2.808593 6.269531 6.269531v19.1875c0 3.460938-2.808593 6.269531-6.269531 6.269531h-19.1875c-3.460938 0-6.269531-2.808593-6.269531-6.269531v-19.1875c0-3.460938 2.808593-6.269531 6.269531-6.269531zm0 0" fill="#4f4f4f" fill-rule="evenodd"/><path d="m7.898438 10.125.054687.464844c.101563.867187.210937 1.144531.503906 1.296875.148438.078125.300781.242187.332031.371093.0625.246094.222657.3125.222657.089844 0-.074218-.167969-.460937-.371094-.855468-.207031-.394532-.375-.761719-.375-.8125 0-.050782-.082031-.195313-.183594-.324219zm20.203124 0-.183593.230469c-.101563.128906-.183594.273437-.183594.324219-.003906.050781-.171875.417968-.375.8125-.203125.394531-.371094.78125-.371094.855468 0 .222656.160157.15625.222657-.089844.03125-.128906.183593-.292968.332031-.371093.292969-.152344.398437-.429688.503906-1.296875zm-21.152343.511719c-.054688 0-.066407.066406-.027344.160156.15625.371094.160156.578125.007813.578125-.082032 0-.148438.03125-.148438.070312 0 .144532.304688.5.496094.578126.230468.09375.433594.113281.433594.046874 0-.027343-.042969-.125-.09375-.210937-.046876-.089844-.132813-.335937-.1875-.550781-.097657-.390625-.300782-.671875-.480469-.671875zm22.097656 0c-.179687 0-.382813.28125-.480469.671875-.054687.214844-.136718.460937-.1875.550781-.050781.085937-.089844.183594-.089844.210937 0 .066407.203126.046876.433594-.046874.191406-.078126.496094-.433594.496094-.578126 0-.039062-.070312-.070312-.152344-.070312-.152344 0-.148437-.207031.011719-.578125.039063-.09375.027344-.160156-.03125-.160156zm-11.078125.226562c.03125.082031.003906.140625-.070312.140625-.308594 0-.425782 1.113282-.195313 1.804688.0625.183594.0625.183594-.050781 0-.1875-.308594-.484375-.601563-.605469-.601563-.066406 0-.148437.125-.179687.277344-.035157.152344-.101563.277344-.152344.277344-.050782 0-.066406-.039063-.035156-.089844s.019531-.160156-.027344-.246094c-.078125-.140625-.097656-.136719-.191406.042969-.085938.152344-.078126.269531.03125.535156.179687.421875.179687.496094-.003907.496094-.195312 0-.117187.226562.089844.265625.183594.035156.519531-.230469.519531-.410156 0-.066407.046875-.148438.101563-.179688.148437-.089843.308593.101563.214843.25-.042968.066407-.082031.152344-.082031.183594 0 .035156-.117187.15625-.261719.265625-.332031.261719-.320312.675781.015626.722656.128906.019532.195312-.003906.164062-.058594-.035156-.054687.035156-.050781.164062.007813.121094.058594.261719.21875.316407.363281.09375-.003906.183593-.015625.269531-.035156.085938.019531.171875.03125.269531.035156.054688-.144531.195313-.304687.316407-.363281.128906-.058594.195312-.0625.160156-.007813-.03125.054688.039062.078126.164062.058594.339844-.046875.347656-.460937.015625-.722656-.144531-.109375-.261719-.230469-.261719-.265625 0-.03125-.035156-.117187-.078124-.183594-.097657-.148437.066406-.339843.210937-.25.054687.03125.101563.113281.101563.179688 0 .179687.335937.445312.519531.410156.207031-.039063.285156-.265625.09375-.265625-.183594 0-.183594-.074219-.007813-.496094.109375-.265625.117188-.382812.035156-.535156-.09375-.179688-.113281-.183594-.191406-.042969-.046875.085938-.0625.195313-.03125.246094s.015625.089844-.035156.089844-.117188-.125-.148438-.277344c-.035156-.152344-.117187-.277344-.179687-.277344-.125 0-.417969.292969-.605469.601563-.113281.183594-.117187.183594-.054687 0 .234375-.691406.113281-1.804688-.195313-1.804688-.070312 0-.101562-.058594-.070312-.140625-.007813.011719-.019532.023438-.027344.035157-.011719-.011719-.019531-.023438-.03125-.035157zm-12.242188.261719c-.171874.058594-.113281 1.21875.078126 1.511719.144531.21875.144531.238281.011718.1875-.1875-.070313-.191406.054687-.019531.382812.199219.378907.597656.710938 1.238281 1.027344.320313.160156.582032.304687.582032.320313 0 .101562-.886719-.152344-1.085938-.308594-.371094-.289063-.539062-.242188-.296875.082031.109375.148437.175781.335937.148437.410156-.058593.152344.191407.40625.679688.699219.40625.242188.492188.246094.417969.007812-.078125-.242187-.035157-.234374.234375.050782.1875.199218.191406.226562.046875.171875-.132813-.050781-.15625-.039063-.097657.054687.074219.121094-.085937.105469-.636718-.058594-.144532-.042968-.160156-.015624-.105469.167969.152344.484375.402344.699219 1.011719.871094.332031.09375.578125.207031.554687.246094-.058593.09375-.6875-.011719-.847656-.136719-.167969-.132812-.152344.207031.019531.453125.15625.21875.78125.539063 1.539063.78125l.507812.160156-.464843-.042969c-.253907-.023437-.574219-.058593-.707032-.078124-.207031-.03125-.242187-.011719-.199218.140624.070312.265626.542968.632813.886718.683594.164063.023438.507813.082032.765625.125l.464844.082032-.417969.117187c-.226562.066406-.578125.097656-.773437.070313-.347657-.046876-.351563-.042969-.222657.152343.1875.28125.636719.527344 1.15625.621094l.441407.082031-.535157-.035156c-.292968-.019531-.53125-.003906-.53125.035156 0 .039063.109376.183594.246094.320313.257813.257812.363282.277343 1.378906.253906l.652344-.015625-.558594.242188c-.675781.292968-.789062.386718-.605468.503906.113281.070312.078125.144531-.199219.433594-.183594.195312-.492187.558593-.683594.8125-.871093 1.15625-1.328125 1.527343-1.878906 1.527343-.480469 0-.527344.152344-.074219.238281.457032.085938 1.074219-.023437 1.578125-.273437.605469-.308594.570313-.148437-.089843.363281-.179688.140625-.179688.144532.046874.085938.128907-.03125.433594-.179688.675782-.324219.464844-.28125.539062-.292969.289062-.046875-.210937.210938-.085937.289062.21875.144531.140625-.070312.332032-.117187.417969-.105469.085937.011719.355469-.160156.59375-.378906.246094-.222656.394531-.3125.335937-.203125-.054687.105469-.167968.246094-.25.3125-.078124.0625-.140624.15625-.140624.199219 0 .179688.21875.058594.691406-.386719.292968-.273437.523437-.425781.558594-.371093.03125.054687.011718.097656-.046876.097656-.0625 0-.085937.066406-.054687.140625.03125.085937 0 .136719-.085937.136719-.074219 0-.132813.042968-.132813.089843 0 .1875.566406-.117187.699219-.375.183594-.347656.238281-.339843.164062.023438-.039062.210937-.027344.273437.050782.226562.058593-.035156.105468-.128906.105468-.203125 0-.078125.070313-.128906.160156-.113281.109376.019531.242188-.117187.417969-.433594.203125-.367187.257813-.417969.257813-.242187 0 .171875.039062.207031.1875.171875.148437-.039063.125.019531-.132813.332031-.335937.410156-.519531.894531-.339843.894531.054687 0 .101562-.035156.101562-.082031s.136719-.128906.304688-.1875l.300781-.101562-.304688.242187c-.417969.328125-.855469 1.113281-.851562 1.519531.003906.289063.015625.304688.117187.148438.304688-.492188.699219-.820313 1.371094-1.152344l.734375-.367188v.269532c0 .148437.042969.269531.09375.269531s.09375-.085937.09375-.191406c0-.101563.082031-.347657.183594-.546875.226562-.4375 1.476562-1.425782 1.832031-1.476563.339844.027344 1.601562 1.03125 1.832031 1.476563.097657.199218.183594.445312.183594.546875 0 .105469.042969.191406.09375.191406s.089844-.121094.089844-.269531v-.269532l.738281.367188c.667969.332031 1.0625.660156 1.371094 1.152344.097656.15625.113281.140625.117187-.148438.003907-.40625-.433593-1.1875-.851562-1.519531l-.304688-.242187.300781.101562c.167969.058594.304688.140625.304688.1875s.042969.082031.101562.082031c.179688 0-.007812-.484375-.34375-.894531-.257812-.3125-.277343-.371094-.128906-.332031.144532.035156.183594 0 .1875-.171875 0-.175782.054688-.121094.257813.242187.175781.316407.308593.453125.414062.433594.09375-.011719.160157.035156.160157.113281 0 .074219.050781.167969.109374.203125.078126.046875.089844-.015625.046876-.226562-.070313-.363281-.015626-.371094.164062-.023438.132812.257813.703125.5625.703125.375 0-.046875-.058594-.089843-.136719-.089843-.082031 0-.113281-.050782-.082031-.136719.03125-.074219.003906-.140625-.054687-.140625-.058594 0-.082032-.042969-.046876-.097656.035157-.054688.265626.097656.558594.371093.46875.445313.691406.570313.691406.390625 0-.046875-.0625-.140625-.140624-.203125-.082032-.066406-.195313-.207031-.25-.3125-.058594-.109375.089843-.019531.332031.207031.242187.21875.507812.386719.597656.375.085937-.011718.273437.035157.414063.105469.308593.144531.429687.066407.222656-.144531-.25-.246094-.175782-.234375.289062.046875.242188.144531.546875.292969.675782.324219.222656.058594.226562.054687.042968-.085938-.65625-.511718-.695312-.671875-.085937-.363281.5.25 1.121093.359375 1.574219.273437.453124-.085937.40625-.238281-.070313-.238281-.554687 0-1.011719-.371093-1.878906-1.523437-.191407-.253906-.5-.621094-.6875-.816406-.277344-.289063-.3125-.363282-.199219-.433594.1875-.117188.074219-.210938-.601562-.503906l-.558594-.242188.648437.015625c1.019531.023437 1.121094.003906 1.382813-.253906.136718-.136719.246094-.28125.246094-.320313 0-.039062-.238282-.054687-.535157-.035156l-.535156.035156.445313-.082031c.515624-.09375.964843-.335937 1.15625-.621094.128906-.195312.125-.199219-.226563-.152343-.195313.027343-.542969-.003907-.773437-.070313l-.414063-.117187.464844-.082032c.257812-.046875.601562-.101562.765625-.125.34375-.054687.816406-.417968.886718-.683594.042969-.152343.007813-.175781-.199218-.140624-.132813.019531-.453125.054687-.707032.078124l-.464843.042969.507812-.164062c.757813-.238281 1.382813-.558594 1.539063-.777344.171875-.246094.1875-.589844.019531-.457031-.160156.128906-.789063.234375-.847656.140625-.023438-.042969.222656-.152344.554687-.246094.609375-.175781.859375-.386719 1.011719-.871094.054687-.183593.039063-.210937-.105469-.167969-.550781.164063-.710937.175782-.636718.058594.058593-.09375.035156-.105468-.097657-.054687-.144531.054687-.140625.023437.046875-.171875.269532-.285156.3125-.292969.234375-.050782-.074219.234376.011719.230469.417969-.011718.488281-.289063.738281-.546875.679688-.695313-.027344-.078125.039062-.261719.148437-.410156.242187-.328125.074219-.375-.296875-.082031-.199219.15625-1.085938.410156-1.085938.308594 0-.015626.261719-.160157.582032-.320313.640625-.320313 1.039062-.648437 1.238281-1.027344.171875-.328125.167969-.453125-.019531-.382812-.132813.050781-.132813.03125.011718-.1875.191407-.292969.25-1.453125.078126-1.515625-.0625-.019532-.132813.046875-.167969.148437-.03125.101563-.234375.359375-.449219.570313-.214844.214844-.320312.367187-.238281.335937.25-.082031.28125.046875.066406.277344-.234375.25-.433594.277344-.511719.078125-.066406-.179688-.121094-.175781-.886718.050781l-.640626.1875-.296874.613281c-.246094.511719-.390626.683594-.945313 1.089844-.359375.269532-.734375.574219-.832031.679688-.222656.25-.136719.617187.1875.785156.238281.125.222656.132812-.617188.433594-1.199218.429687-1.628906.394531-1.558594-.136719.023438-.179687.222657-.308594.792969-.515625.375-.136719.390625-.273438.03125-.273438-.449219 0-.414062-.15625.085938-.410156 1.003906-.5 2.226562-1.554687 2.464843-2.125.113282-.273437.089844-.800781-.035156-.792968-.035156 0-.160156.210937-.277344.46875-.34375.722656-1.625 1.625-2.804687 1.96875-.703125.203124-1.429687.636718-1.738281 1.042968-.496094.644532-.816406.941406-1.097656 1.003906l-.277344.0625.316406-.214843c.425781-.289063.488281-.476563.132812-.394531l-.261718.058593.230468-.164062c.359376-.25.742188-.621094.742188-.71875 0-.046875-.082031-.0625-.183594-.035157-.152344.039063-.125-.023437.132813-.335937.335937-.410156.519531-.894531.339843-.894531-.054687 0-.101562.039062-.101562.082031 0 .046875-.136719.132813-.304688.1875l-.300781.101563.304688-.242188c.417969-.328125.855469-1.113281.851562-1.515625-.003906-.289063-.015625-.304687-.117187-.148437-.304688.488281-.699219.820312-1.371094 1.148437l-.734375.367187v-.269531c0-.144531-.042969-.265625-.09375-.265625s-.09375.085938-.09375.1875c0 .382813-.382813.929688-.980469 1.398438-.691406.539062-.839844.773437-.9375 1.476562l-.097656.136719-.097656-.136719c-.09375-.703125-.242188-.9375-.933594-1.476562-.597656-.46875-.984375-1.015625-.984375-1.394532 0-.105468-.042969-.191406-.09375-.191406s-.089844.121094-.089844.269532v.269531l-.738281-.367188c-.667969-.332031-1.0625-.664062-1.371094-1.152343-.097656-.15625-.113281-.140626-.117187.148437-.003907.402344.433593 1.1875.851562 1.519531l.304688.242188-.300781-.105469c-.167969-.054687-.300782-.140625-.300782-.1875 0-.042969-.046875-.082031-.105468-.082031-.179688 0 .007812.484375.34375.894531.257812.3125.28125.375.128906.335937-.101563-.027343-.183594-.007812-.183594.039063 0 .09375.382812.464844.742188.714844l.234374.164062-.265624-.058593c-.355469-.082032-.289063.105468.132812.394531l.316406.214843-.277344-.0625c-.277343-.0625-.601562-.359374-1.09375-1.003906-.3125-.402344-1.039062-.839844-1.742187-1.042968-1.175781-.34375-2.460937-1.25-2.800781-1.96875-.121094-.257813-.246094-.464844-.277344-.46875-.128906-.007813-.152344.519531-.039062.792968.242187.570313 1.460937 1.625 2.464843 2.125.5.253906.535157.410156.089844.410156-.363281 0-.347656.136719.027344.273438.574219.207031.769531.335938.792969.519531.070312.527344-.359376.566407-1.558594.132813-.839844-.300782-.851563-.308594-.617188-.433594.324219-.167969.414063-.535156.1875-.785156-.097656-.105469-.46875-.410156-.832031-.679688-.554687-.40625-.699219-.578125-.945313-1.09375l-.292968-.605468-.644532-.191407c-.765624-.226562-.816406-.230469-.886718-.050781-.078125.199219-.273438.171875-.507813-.078125-.21875-.230469-.1875-.359375.0625-.273437.085938.027343-.023437-.125-.238281-.339844s-.417969-.46875-.449219-.570313c-.03125-.101562-.105469-.167969-.164062-.148437zm1.824219 2.066406c.046875-.011718.160157.015625.324219.085938.171875.070312.375.257812.464844.425781s.292968.441406.453125.605469v.003906c.160156.167969.265625.300781.234375.296875-.144532-.007813-.640625-.316406-.898438-.558594-.152344-.144531-.382812-.300781-.511718-.351562-.164063-.0625-.183594-.09375-.070313-.097657.191406-.007812.210937-.109374.054687-.261718-.085937-.089844-.101562-.140625-.050781-.148438zm20.898438 0c .050781.011719.035156.058594-.050781.148438-.15625.15625-.136719.253906.054687.261718.113281.003907.089844.035157-.070313.097657-.128906.050781-.359374.207031-.511718.351562-.257813.242188-.753906.550781-.898438.558594-.03125.003906.074219-.128906.234375-.296875v-.003906c.160157-.164063.363281-.4375.453125-.605469.085938-.167969.292969-.355469.464844-.425781.164062-.070313.277344-.097656.324219-.085938zm-10.605469.082032c.050781-.03125.066406.003906.035156.085937-.0625.160156-.128906.191406-.128906.058594 0-.050781.042969-.113281.09375-.144531zm.261719 0c .007812-.015626.023437-.015626.050781 0 .050781.03125.09375.09375.09375.144531 0 .132812-.066406.101562-.128906-.058594-.015625-.039063-.019532-.070313-.015625-.085937zm0 0" fill="#b4b4b4"/></svg>