<svg height="36pt" viewBox="0 0 36 36" width="36pt" xmlns="http://www.w3.org/2000/svg"><path d="m8.40625 2.136719h19.1875c3.460938 0 6.269531 2.808593 6.269531 6.269531v19.1875c0 3.460938-2.808593 6.269531-6.269531 6.269531h-19.1875c-3.460938 0-6.269531-2.808593-6.269531-6.269531v-19.1875c0-3.460938 2.808593-6.269531 6.269531-6.269531zm0 0" fill="#999" fill-rule="evenodd"/><path d="m13.589844 29.824219c-.160156-.238281-.453125-.757813-.648438-1.15625-.421875-.851563-.589844-.875-1.5-.238281-1.136718.800781-1.574218.578124-1.226562-.617188.113281-.394531.136718-.785156.054687-.867188-.085937-.078124-.613281.019532-1.175781.222657-1.28125.460937-1.664062.296875-1.222656-.515625.175781-.320313.265625-.628906.203125-.6875-.058594-.058594-.476563.019531-.925781.167968-1.550782.523438-1.761719.253907-.773438-.988281.332031-.417969.605469-.917969.609375-1.117187.003906-.195313.277344-.65625.613281-1.015625.761719-.828125 1.621094-2.417969 1.613282-2.996094-1.953126-2.847656-1.074219-4.179687.203124-6.621094.335938-.703125.78125-2.09375 1.191407-2.460937 1.738281-2.25 5.117187-2.183594 6.941406-.03125.550781.34375 1.503906 2.296875 1.6875 3 2.25 2.699218-.496094 4.777344-.191406 6.222656.164062.746094.9375 2.046875 1.726562 2.902344.328125.351562.59375.839844.59375 1.078125 0 .242187.226563.722656.507813 1.070312.839844 1.050781.605468 1.386719-.671875.957031-.984375-.328124-1.128907-.230468-.730469.496094.273438.503906.269531.566406-.035156.679688-.183594.066406-.773438-.011719-1.308594-.175782-.539062-.164062-1.023438-.253906-1.078125-.203124-.054687.054687-.046875.519531.015625 1.039062.101562.820312.070312.941406-.246094.941406-.199218 0-.660156-.214844-1.027344-.480468-.363281-.265626-.757812-.480469-.875-.480469-.117187 0-.488281.519531-.828124 1.152343-.652344 1.234376-1.027344 1.414063-1.496094.722657zm0 0" fill="#248afd"/><path d="m10.140625 7.535156s.59375 3.542969 3.960937 4.351563c0 0 .28125-2.46875-.660156-3.324219-.945312-.851562-3.300781-1.027344-3.300781-1.027344zm0 0" fill="#d19e01"/><path d="m18 7.460938s-.53125 3.5-3.898438 4.425781c0 0-.3125-2.464844.617188-3.335938.929688-.871093 3.28125-1.089843 3.28125-1.089843zm0 0" fill="#d19e01"/><path d="m14.113281 5.773438s-3.371093 3.136718-.011719 6.113281c3.199219-3.097657.011719-6.113281.011719-6.113281zm0 0" fill="#fecd38"/><path d="m12.324219 16.035156c0 1.566406-1.269531 2.839844-2.839844 2.839844-1.566406 0-2.835937-1.273438-2.835937-2.839844s1.269531-2.839844 2.835937-2.839844c1.570313 0 2.839844 1.273438 2.839844 2.839844zm0 0" fill="#fecd38"/><path d="m9.484375 14.289062c-.964844 0-1.746094.78125-1.746094 1.746094s.78125 1.746094 1.746094 1.746094 1.746094-.78125 1.746094-1.746094-.78125-1.746094-1.746094-1.746094zm0 1.164063c.324219 0 .582031.261719.582031.582031 0 .320313-.257812.582032-.582031.582032-.320313 0-.582031-.261719-.582031-.582032 0-.320312.261718-.582031.582031-.582031zm0 0" fill="#535353"/><path d="m21.929688 16.035156c0 1.566406-1.269532 2.839844-2.839844 2.839844-1.566406 0-2.835938-1.273438-2.835938-2.839844s1.269532-2.839844 2.835938-2.839844c1.570312 0 2.839844 1.273438 2.839844 2.839844zm0 0" fill="#fecd38"/><path d="m19.089844 14.289062c-.960938 0-1.746094.78125-1.746094 1.746094s.78125 1.746094 1.746094 1.746094 1.75-.78125 1.75-1.746094-.785156-1.746094-1.75-1.746094zm0 1.164063c.324218 0 .582031.261719.582031.582031 0 .320313-.257813.582032-.582031.582032-.320313 0-.582032-.261719-.582032-.582032 0-.320312.261719-.582031.582032-.582031zm0 0" fill="#535353"/><path d="m10.140625 18.050781s1.40625-1.359375 3.851563-1.359375c2.445312 0 4.007812 1.660156 4.007812 1.660156s-.050781.960938-.625 1.261719c-.570312.300781-2.132812-1.410156-3.589844-1.410156-1.457031 0-2.96875 1.207031-2.96875 1.207031zm0 0" fill="#fecd38"/><path d="m14.019531 17.523438c-1.078125-.007813-2.109375.234374-2.898437.707031l-.863282.523437.773438 1.484375c.496094.949219 1.144531 1.832031 1.804688 2.460938.566406.539062 1.171874.976562 1.351562.976562.535156 0 2.429688-2.058593 3.167969-3.445312.382812-.707031.605469-1.238281.503906-1.179688-.105469.0625-.269531-.085937-.363281-.328125-.109375-.273437-.480469-.554687-.972656-.742187-.800782-.304688-1.664063-.457031-2.503907-.457031zm0 0" fill="#535353"/><path d="m27.375 13.691406h-1.714844l-.457031 1.628906h1.71875zm-.734375-3.550781-.625 2.285156h1.71875l.628906-2.285156h1.441407l-.632813 2.285156h1.054687v1.265625h-1.398437l-.449219 1.628906h1.847656v1.277344h-2.1875l-.625 2.277344h-1.4375l.625-2.277344h-1.71875l-.621093 2.277344h-1.453125l.625-2.277344h-1.066406v-1.277344h1.386718l.453125-1.628906h-1.839843v-1.265625h2.199218l.625-2.285156zm0 0" fill="#f2f2f2"/></svg>