<svg height="36pt" viewBox="0 0 36 36" width="36pt" xmlns="http://www.w3.org/2000/svg"><path d="m33.75 7.839844c-.0625-.652344-.136719-1.300782-.378906-1.878906-.316406-.75-.773438-1.425782-1.339844-1.992188-.570312-.566406-1.242188-1.027344-1.996094-1.34375-.574218-.242188-1.222656-.3125-1.871094-.375h-10.164062v15.75h15.75zm0 0" fill="#2cbfeb"/><path d="m7.835938 2.25c-.648438.0625-1.300782.132812-1.875.375-.75.316406-1.425782.777344-1.992188 1.34375s-1.027344 1.242188-1.34375 1.992188c-.242188.574218-.3125 1.226562-.375 1.875v10.164062h15.75v-15.75zm0 0" fill="#6655e4"/><path d="m28.164062 33.75c.648438-.0625 1.300782-.132812 1.875-.375.75-.316406 1.425782-.777344 1.992188-1.34375s1.027344-1.242188 1.34375-1.992188c.242188-.574218.3125-1.226562.375-1.875v-10.164062h-15.75v15.75zm0 0" fill="#f7c73c"/><path d="m2.25 28.160156c.0625.652344.132812 1.300782.378906 1.878906.316406.75.773438 1.425782 1.339844 1.992188.570312.566406 1.242188 1.027344 1.996094 1.34375.574218.242188 1.222656.3125 1.871094.375h10.164062v-15.75h-15.75zm0 0" fill="#2cbfeb"/><path d="m10.714844 5.949219h14.570312c2.632813 0 4.765625 2.132812 4.765625 4.765625v14.570312c0 2.632813-2.132812 4.765625-4.765625 4.765625h-14.570312c-2.632813 0-4.765625-2.132812-4.765625-4.765625v-14.570312c0-2.632813 2.132812-4.765625 4.765625-4.765625zm0 0" fill="#3f3f3f" fill-rule="evenodd"/><g fill="none" stroke="#fff" stroke-linecap="round" stroke-width="1.800018" transform="matrix(1.125 0 0 1.125 1.196754 44.219692)"><path d="m9.543857-17.000837h7.197917"/><path d="m9.543857-26.000837h3.597223m0 3.600694v-7.201389m-3.597223 7.201389v-7.201389"/><path d="m16.741774-26.000837s3.600694-.416667 3.600694 1.802083c0 2.215278-3.600694 1.798611-3.600694 1.798611m0-7.201389v7.201389m0-3.579861s3.600694.420139 3.600694-1.798611-3.600694-1.802084-3.600694-1.802084m0 7.201389v-7.201389" stroke-linejoin="bevel"/></g></svg>