<svg height="36pt" viewBox="0 0 36 36" width="36pt" xmlns="http://www.w3.org/2000/svg"><path d="m8.40625 2.136719h19.1875c3.460938 0 6.269531 2.808593 6.269531 6.269531v19.1875c0 3.460938-2.808593 6.269531-6.269531 6.269531h-19.1875c-3.460938 0-6.269531-2.808593-6.269531-6.269531v-19.1875c0-3.460938 2.808593-6.269531 6.269531-6.269531zm0 0" fill="#d13232" fill-rule="evenodd"/><g fill="#fff"><path d="m29.855469 21.648438v.910156h-23.710938v-.910156zm0 0"/><path d="m29.855469 24.382812v.914063h-23.710938v-.914063zm0 0"/><path d="m29.855469 27.121094v.910156h-23.710938v-.910156zm0 0"/><path d="m29.855469 13.441406v.910156h-23.710938v-.910156zm0 0"/><path d="m29.855469 16.175781v.914063h-23.710938v-.914063zm0 0"/><path d="m29.855469 18.910156v.914063h-23.710938v-.914063zm0 0"/><path d="m29.855469 10.703125v.914063h-23.710938v-.914063zm0 0"/><path d="m29.855469 7.96875v.910156h-23.710938v-.910156zm0 0"/><path d="m14.351562 29.855469h-.910156v-23.710938h.910156zm0 0"/><path d="m11.617188 29.855469h-.914063v-23.710938h.914063zm0 0"/><path d="m8.878906 29.855469h-.910156v-23.710938h.910156zm0 0"/><path d="m22.558594 29.855469h-.910156v-23.710938h.910156zm0 0"/><path d="m19.824219 29.855469h-.914063v-23.710938h.914063zm0 0"/><path d="m17.089844 29.855469h-.914063v-23.710938h.914063zm0 0"/><path d="m25.296875 29.855469h-.914063v-23.710938h.914063zm0 0"/><path d="m28.03125 29.855469h-.910156v-23.710938h.910156zm0 0"/></g><path d="m28.945312 27.847656v-19.695312c0-.605469-.613281-1.097656-1.371093-1.097656h-19.148438c-.757812 0-1.371093.492187-1.371093 1.097656v19.695312c0 .605469.613281 1.097656 1.371093 1.097656h19.148438c.757812 0 1.371093-.492187 1.371093-1.097656zm0 0" fill="#b7b7b7"/><path d="m10.703125 9.792969h14.59375c.503906 0 .910156.40625.910156.910156v14.59375c0 .503906-.40625.910156-.910156.910156h-14.59375c-.503906 0-.910156-.40625-.910156-.910156v-14.59375c0-.503906.40625-.910156.910156-.910156zm0 0" fill="#d13232"/></svg>