<svg height="36pt" viewBox="0 0 36 36" width="36pt" xmlns="http://www.w3.org/2000/svg"><path d="m8.40625 2.136719h19.1875c3.460938 0 6.269531 2.808593 6.269531 6.269531v19.1875c0 3.460938-2.808593 6.269531-6.269531 6.269531h-19.1875c-3.460938 0-6.269531-2.808593-6.269531-6.269531v-19.1875c0-3.460938 2.808593-6.269531 6.269531-6.269531zm0 0" fill="#b28a63" fill-rule="evenodd"/><path d="m27 18c0 4.96875-4.027344 9-9 9-4.96875 0-9-4.03125-9-9s4.03125-9 9-9c4.972656 0 9 4.03125 9 9zm0 0" fill="#fff"/><path d="m9.566406 10.800781c-1.535156-.019531-2.585937.367188-3.03125 1.121094-1.292968 2.207031 2.796875 6.917969 9.132813 10.523437 6.328125 3.601563 12.507812 4.734376 13.800781 2.53125.710938-1.230468-.238281-3.316406-2.578125-5.65625-.027344.195313-.054687.390626-.09375.578126.898437 1.308593 1.148437 2.433593.710937 3.195312-1.105468 1.890625-6.109374 1.085938-11.175781-1.792969-5.070312-2.882812-8.285156-6.75-7.175781-8.640625.382812-.640625 1.246094-.988281 2.484375-1.007812.171875-.171875.347656-.339844.535156-.5-.960937-.214844-1.839843-.335938-2.609375-.351563zm0 0" fill="#fede7b"/></svg>