<svg height="36pt" viewBox="0 0 36 36" width="36pt" xmlns="http://www.w3.org/2000/svg"><path d="m8.40625 2.136719h19.1875c3.460938 0 6.269531 2.808593 6.269531 6.269531v19.1875c0 3.460938-2.808593 6.269531-6.269531 6.269531h-19.1875c-3.460938 0-6.269531-2.808593-6.269531-6.269531v-19.1875c0-3.460938 2.808593-6.269531 6.269531-6.269531zm0 0" fill="#ccc" fill-rule="evenodd"/><path d="m15.75 12.917969c-1.011719.003906-2.128906.183593-2.636719.492187-.503906.308594-.738281.785156-.738281 1.441406v1.441407c0 .394531-.183594.652343-.492188.84375-.304687.191406-1.128906.320312-1.757812.316406v1.125c1.238281.003906 2.25.414063 2.25 1.195313v1.234374c0 .71875.234375 1.257813.703125 1.578126.476563.328124 1.59375.484374 2.671875.492187v-1.15625c-.535156-.011719-1.660156-.105469-1.898438-.28125-.238281-.179687-.351562-.429687-.351562-.773437v-1.335938c0-.347656-.128906-1.363281-1.195312-1.511719v-.070312c1.066406-.167969 1.195312-.984375 1.195312-1.480469v-1.335938c0-.34375.113281-.5625.351562-.738281.242188-.175781 1.367188-.292969 1.898438-.316406zm4.5 0v1.160156c.53125.023437 1.65625.140625 1.898438.316406.238281.175781.351562.394531.351562.738281v1.335938c0 .496094.128906 1.3125 1.195312 1.476562v.070313c-1.066406.152344-1.195312 1.167969-1.195312 1.515625v1.335938c0 .34375-.113281.59375-.351562.773437-.238282.175781-1.363282.269531-1.898438.28125v1.160156c1.078125-.011719 2.195312-.167969 2.671875-.492187.46875-.324219.703125-.863282.703125-1.582032v-1.230468c0-.785156 1.011719-1.195313 2.25-1.195313v-1.125c-.628906 0-1.453125-.128906-1.757812-.316406-.308594-.195313-.492188-.453125-.492188-.847656v-1.441407c0-.65625-.234375-1.132812-.738281-1.441406-.507813-.308594-1.625-.488281-2.636719-.492187zm0 0" fill="#446f7d"/></svg>