<svg height="36pt" viewBox="0 0 36 36" width="36pt" xmlns="http://www.w3.org/2000/svg"><path d="m8.40625 2.136719h19.1875c3.460938 0 6.269531 2.808593 6.269531 6.269531v19.1875c0 3.460938-2.808593 6.269531-6.269531 6.269531h-19.1875c-3.460938 0-6.269531-2.808593-6.269531-6.269531v-19.1875c0-3.460938 2.808593-6.269531 6.269531-6.269531zm0 0" fill="#19416f" fill-rule="evenodd"/><path d="m20.25 6.1875c-1.242188 0-2.25 1.007812-2.25 2.25s1.007812 2.25 2.25 2.25 2.25-1.007812 2.25-2.25-1.007812-2.25-2.25-2.25zm-2.625 5.625c-1.039062 0-1.875.753906-1.875 1.6875s.835938 1.6875 1.875 1.6875h1.5v9.898438c0 .898437-.324219 1.628906-1.167969 2.058593-.199219-1.0625-1.128906-1.832031-2.207031-1.832031-1.242188 0-2.25 1.007812-2.25 2.25s1.007812 2.25 2.25 2.25c4.21875 0 6.75 0 6.75-4.726562v-13.273438zm0 0" fill="#fff"/></svg>