<svg height="36pt" viewBox="0 0 36 36" width="36pt" xmlns="http://www.w3.org/2000/svg"><path d="m8.40625 2.136719h19.1875c3.460938 0 6.269531 2.808593 6.269531 6.269531v19.1875c0 3.460938-2.808593 6.269531-6.269531 6.269531h-19.1875c-3.460938 0-6.269531-2.808593-6.269531-6.269531v-19.1875c0-3.460938 2.808593-6.269531 6.269531-6.269531zm0 0" fill="#4f3b21" fill-rule="evenodd"/><path d="m21.554688 7.308594c-3.753907.058594-11.867188.632812-13.351563 3.007812-.257813.683594-.722656 3.085938-.945313 4.925782-.054687.421874-.105468.964843-.15625 1.460937-.925781.949219-1.445312 2.222656-1.445312 3.550781 0 1.035156.320312 2.050782.910156 2.898438-.007812.144531-.050781.757812-.050781.757812-.070313 2.351563-.015625 2.4375 2.21875 3.367188 1.785156.742187 3.71875 1.128906 6.652344 1.332031 2.511719.171875 5.050781.09375 6.988281-.21875 3.40625-.546875 6.359375-1.660156 6.6875-2.523437.089844-.234376.226562-1.203126.300781-2.148438.015625-.191406.023438-.351562.039063-.53125.609375-.855469.9375-1.882812.941406-2.933594 0-1.257812-.46875-2.464844-1.308594-3.394531-.148437-.960937-.328125-2.050781-.566406-3.472656-.417969-2.207031-.921875-4.324219-1.113281-4.699219-.558594-1.101562-1.246094-1.3125-4.492188-1.378906-.328125-.007813-.773437-.007813-1.308593 0zm0 0" fill="#7a6143"/><path d="m20.039062 26.742188c.757813-.339844 1.082032-.804688.636719-.917969-.148437-.039063-.539062.082031-.867187.261719-.734375.410156-1.75.4375-2.648438.078124-1.125-.453124-1.664062-.203124-.765625.351563.992188.617187 2.5625.714844 3.644531.226563zm0 0" fill="#372c1e"/><path d="m15.53125 20.058594c0 2.5-2.027344 4.523437-4.527344 4.523437s-4.523437-2.023437-4.523437-4.523437 2.023437-4.527344 4.523437-4.527344 4.527344 2.027344 4.527344 4.527344zm0 0" fill="#37a643"/><path d="m11.417969 19.644531c0 .457031-.371094.824219-.824219.824219s-.824219-.367188-.824219-.824219c0-.453125.371094-.820312.824219-.820312s.824219.367187.824219.820312zm0 0" fill="#372c1e"/><path d="m29.519531 20.058594c0 2.5-2.027343 4.523437-4.523437 4.523437-2.5 0-4.527344-2.023437-4.527344-4.523437s2.027344-4.527344 4.527344-4.527344c2.496094 0 4.523437 2.027344 4.523437 4.527344zm0 0" fill="#37a643"/><g fill="#372c1e"><path d="m26.230469 19.644531c0 .457031-.371094.824219-.824219.824219s-.824219-.367188-.824219-.824219c0-.453125.371094-.820312.824219-.820312s.824219.367187.824219.820312zm0 0"/><path d="m26.183594 9.824219c.035156.085937-2.421875 1.085937-4.507813 2.015625-2.085937.929687-3.011719 1.433594-3.046875 1.347656-.023437-.050781 1.261719-.867188 2.132813-1.285156 1.679687-.726563 3.371093-1.503906 5.421875-2.078125zm0 0"/><path d="m24.414062 14.140625c-.089843.023437-1.113281-.960937-2.09375-2.269531-.976562-1.3125-1.539062-2.453125-1.449218-2.476563.089844-.023437.714844 1.019531 1.695312 2.332031.976563 1.308594 1.9375 2.390626 1.847656 2.414063zm0 0"/></g></svg>