<svg height="36pt" viewBox="0 0 36 36" width="36pt" xmlns="http://www.w3.org/2000/svg"><path d="m8.40625 2.136719h19.1875c3.460938 0 6.269531 2.808593 6.269531 6.269531v19.1875c0 3.460938-2.808593 6.269531-6.269531 6.269531h-19.1875c-3.460938 0-6.269531-2.808593-6.269531-6.269531v-19.1875c0-3.460938 2.808593-6.269531 6.269531-6.269531zm0 0" fill="#ececec" fill-rule="evenodd"/><path d="m17.136719 24.480469c0 3.105469-2.515625 5.621093-5.617188 5.621093-3.105469 0-5.621093-2.515624-5.621093-5.621093 0-3.101563 2.515624-5.617188 5.621093-5.617188 3.101563 0 5.617188 2.515625 5.617188 5.617188zm0 0" fill="#c2352a"/><path d="m15.40625 24.480469c0 2.148437-1.742188 3.890625-3.886719 3.890625-2.148437 0-3.890625-1.742188-3.890625-3.890625 0-2.144531 1.742188-3.886719 3.890625-3.886719 2.144531 0 3.886719 1.742188 3.886719 3.886719zm0 0" fill="#e67a73"/><path d="m24.050781 11.519531c0 3.101563-2.515625 5.617188-5.617187 5.617188-3.105469 0-5.621094-2.515625-5.621094-5.617188 0-3.105469 2.515625-5.621093 5.621094-5.621093 3.101562 0 5.617187 2.515624 5.617187 5.621093zm0 0" fill="#46a249"/><path d="m22.320312 11.519531c0 2.144531-1.742187 3.886719-3.886718 3.886719-2.148438 0-3.890625-1.742188-3.890625-3.886719 0-2.148437 1.742187-3.890625 3.890625-3.890625 2.144531 0 3.886718 1.742188 3.886718 3.890625zm0 0" fill="#7bde7f"/><path d="m30.101562 24.480469c0 3.105469-2.515624 5.621093-5.621093 5.621093-3.101563 0-5.617188-2.515624-5.617188-5.621093 0-3.101563 2.515625-5.617188 5.617188-5.617188 3.105469 0 5.621093 2.515625 5.621093 5.617188zm0 0" fill="#8e53ab"/><path d="m28.371094 24.480469c0 2.148437-1.742188 3.890625-3.890625 3.890625-2.144531 0-3.886719-1.742188-3.886719-3.890625 0-2.144531 1.742188-3.886719 3.886719-3.886719 2.148437 0 3.890625 1.742188 3.890625 3.886719zm0 0" fill="#ba96cc"/></svg>