<svg height="36pt" viewBox="0 0 36 36" width="36pt" xmlns="http://www.w3.org/2000/svg"><path d="m8.40625 2.136719h19.1875c3.460938 0 6.269531 2.808593 6.269531 6.269531v19.1875c0 3.460938-2.808593 6.269531-6.269531 6.269531h-19.1875c-3.460938 0-6.269531-2.808593-6.269531-6.269531v-19.1875c0-3.460938 2.808593-6.269531 6.269531-6.269531zm0 0" fill="#e9a84a" fill-rule="evenodd"/><path d="m17.496094 4.894531c-.800782-.015625-1.503906.535157-1.675782 1.316407 0 0-.328124 1.414062-.683593 3.507812-.003907 0-.011719 0-.011719-.003906 0 .007812.007812.019531.007812.019531v.015625c-.023437-.003906-.066406-.027344-.160156-.085938.03125.019532.109375.035157.152344.050782-.027344-.0625-.199219-.257813-.289062-.5-.148438-.382813-.230469-.738282-.230469-.738282-.171875-.800781-.894531-1.367187-1.714844-1.332031-.507813.019531-.976563.261719-1.28125.667969-.304687.402344-.414063.921875-.296875 1.414062 0 0 .125.550782.363281 1.183594.238281.632813.410157 1.441406 1.519531 2.125.464844.289063.945313.488282 1.4375.640625-.128906 1.089844-.238281 2.234375-.304687 3.414063-.007813.140625 0 .28125-.007813.417968-.890624.152344-1.777343.316407-2.597656.613282-2.050781.75-3.902344 2.03125-4.804687 4.039062-.433594.96875-.320313 2.042969.027343 2.863282.347657.820312.890626 1.472656 1.511719 2.035156 1.242188 1.121094 2.757813 1.933594 4.457031 1.980468 1.132813.03125 2.160157-.328124 3.140626-.816406.703124 1.234375 1.609374 2.308594 2.957031 2.917969 2.410156 1.09375 4.996093.105469 7.035156-1.300781 1.015625-.707032 1.914063-1.570313 2.546875-2.617188.628906-1.050781.996094-2.378906.613281-3.714844-.601562-2.078124-2.226562-3.554687-4.117187-4.542968.199218-.3125.5625-.863282.5625-.863282.339844-.515624.367187-1.175781.078125-1.722656-.292969-.542968-.855469-.886718-1.476563-.890625-.617187-.003906-1.1875.328125-1.488281.867188 0 0-.789063 1.042969-1.007813 1.378906-1.078124-.261719-2.195312-.425781-3.324218-.488281-.246094-.015625-.488282.027344-.738282.019531.066407-1.121094.171876-2.214844.296876-3.253906.589843-.027344 1.167968-.082031 1.722656-.140625 2.0625-.210938 3.769531-.628906 3.769531-.628906.601563-.128907 1.082031-.574219 1.261719-1.160157.175781-.589843.023437-1.226562-.40625-1.667969-.429688-.441406-1.0625-.613281-1.652344-.449218 0 0-1.515625.367187-3.316406.550781-.285156.027344-.582032.03125-.875.042969.316406-1.847656.605468-3.066406.605468-3.066406.125-.496094.015626-1.027344-.296874-1.4375-.3125-.40625-.792969-.652344-1.308594-.660157zm.746094 15.21875c.4375.027344.847656.128907 1.273437.191407-.175781.214843-.136719.21875-.320313.4375-.414062.484374-.886718.832031-1.332031 1.285156-.074219-.628906-.164062-1.21875-.191406-1.894532.195313.003907.378906-.03125.570313-.019531zm-3.949219.351563c.0625 1.410156.210937 2.796875.511719 4.101562-.699219.367188-1.34375.613282-1.796876.597656-.421874-.007812-1.589843-.476562-2.285156-1.109374-.351562-.3125-.585937-.652344-.667968-.847657-.085938-.199219-.054688-.164062-.054688-.164062.40625-.902344 1.378906-1.703125 2.882812-2.25.417969-.152344.933594-.222657 1.410157-.328125zm8.753906.785156c.125.058594.289063.089844.40625.148438 1.402344.714843 2.238281 1.605468 2.511719 2.546874.0625.21875.039062.53125-.265625 1.035157-.304688.507812-.878907 1.105469-1.574219 1.585937-1.390625.960938-3.191406 1.238282-3.71875 1-.644531-.292968-1.148438-.964844-1.582031-1.820312 1.035156-.890625 2.078125-1.808594 2.933593-2.808594.527344-.613281.847657-1.105469 1.289063-1.6875zm0 0" fill-opacity=".4" fill-rule="evenodd"/></svg>