<svg height="36pt" viewBox="0 0 36 36" width="36pt" xmlns="http://www.w3.org/2000/svg"><path d="m8.40625 2.136719h19.1875c3.460938 0 6.269531 2.808593 6.269531 6.269531v19.1875c0 3.460938-2.808593 6.269531-6.269531 6.269531h-19.1875c-3.460938 0-6.269531-2.808593-6.269531-6.269531v-19.1875c0-3.460938 2.808593-6.269531 6.269531-6.269531zm0 0" fill="#6688be" fill-rule="evenodd"/><g fill="none" stroke="#5b5b5b" stroke-linejoin="round" stroke-width="2" transform="matrix(1.125 0 0 1.125 .5625 0)"><path d="m7 16h14"/><path d="m13.899306 16 3.100694-7"/><path d="m14 16 3 7h7"/></g><g fill="#fff"><path d="m10.6875 18c0 1.242188-1.007812 2.25-2.25 2.25s-2.25-1.007812-2.25-2.25 1.007812-2.25 2.25-2.25 2.25 1.007812 2.25 2.25zm0 0"/><path d="m18.5625 18c0 1.242188-1.007812 2.25-2.25 2.25s-2.25-1.007812-2.25-2.25 1.007812-2.25 2.25-2.25 2.25 1.007812 2.25 2.25zm0 0"/><path d="m26.4375 18c0 1.242188-1.007812 2.25-2.25 2.25s-2.25-1.007812-2.25-2.25 1.007812-2.25 2.25-2.25 2.25 1.007812 2.25 2.25zm0 0"/><path d="m21.9375 25.875c0 1.242188-1.007812 2.25-2.25 2.25s-2.25-1.007812-2.25-2.25 1.007812-2.25 2.25-2.25 2.25 1.007812 2.25 2.25zm0 0"/><path d="m29.8125 25.875c0 1.242188-1.007812 2.25-2.25 2.25s-2.25-1.007812-2.25-2.25 1.007812-2.25 2.25-2.25 2.25 1.007812 2.25 2.25zm0 0"/><path d="m21.9375 10.125c0 1.242188-1.007812 2.25-2.25 2.25s-2.25-1.007812-2.25-2.25 1.007812-2.25 2.25-2.25 2.25 1.007812 2.25 2.25zm0 0"/></g></svg>