<svg height="36pt" viewBox="0 0 36 36" width="36pt" xmlns="http://www.w3.org/2000/svg"><path d="m8.40625 2.136719h19.1875c3.460938 0 6.269531 2.808593 6.269531 6.269531v19.1875c0 3.460938-2.808593 6.269531-6.269531 6.269531h-19.1875c-3.460938 0-6.269531-2.808593-6.269531-6.269531v-19.1875c0-3.460938 2.808593-6.269531 6.269531-6.269531zm0 0" fill="#38a334" fill-rule="evenodd"/><path d="m22.5 7.875c-3.105469 0-5.625 2.519531-5.625 5.625 0 .859375.199219 1.707031.578125 2.476562l-9.578125 9.578126v2.570312h2.570312l1.125-1.125h3.054688v-3.054688l1.445312-1.445312h3.054688v-3.054688l.902344-.898437c.769531.378906 1.613281.574219 2.472656.578125 3.105469 0 5.625-2.519531 5.625-5.625s-2.519531-5.625-5.625-5.625zm1.125 2.25c1.242188 0 2.25 1.007812 2.25 2.25s-1.007812 2.25-2.25 2.25-2.25-1.007812-2.25-2.25 1.007812-2.25 2.25-2.25zm0 0" fill="#fff"/><path d="m7.875 12.695312v-2.570312h2.570312l15.429688 15.429688v2.570312h-2.570312zm0 0" fill="#454545"/></svg>