<svg height="36pt" viewBox="0 0 36 36" width="36pt" xmlns="http://www.w3.org/2000/svg"><path d="m8.40625 2.136719h19.1875c3.460938 0 6.269531 2.808593 6.269531 6.269531v19.1875c0 3.460938-2.808593 6.269531-6.269531 6.269531h-19.1875c-3.460938 0-6.269531-2.808593-6.269531-6.269531v-19.1875c0-3.460938 2.808593-6.269531 6.269531-6.269531zm0 0" fill="#dea71e" fill-rule="evenodd"/><path d="m20.679688 29.308594c0-.007813.132812-.359375.292968-.78125l.292969-.765625-.046875-.101563c-.027344-.058594-.296875-.546875-.59375-1.089844-.605469-1.09375-1.769531-3.203124-2.671875-4.84375-.320313-.582031-.589844-1.082031-.597656-1.105468-.011719-.03125.023437-.066406.121093-.121094.175782-.09375.246094-.171875.246094-.265625 0-.039063-.101562-.261719-.230468-.492187l-.234376-.421876.167969-.230468c1.074219-1.457032 1.242188-3.4375.4375-5.070313-.75-1.511719-2.167969-2.507812-3.863281-2.71875-.859375-.109375-1.929688.070313-2.667969.445313l-.179687.089844.097656.226562c.195312.453125.375.679688.78125.992188.203125.152343.214844.160156.3125.128906.054688-.015625.230469-.03125.390625-.03125.5-.003906.917969.179687 1.269531.554687.539063.570313.632813 1.410157.234375 2.09375-.203125.347657-.667969.691407-1.082031.800781-.261719.066407-.757812.046876-1.011719-.042968-.359375-.128906-.734375-.433594-.910156-.742188-.082031-.144531-.097656-.15625-.3125-.230468-.664063-.234376-1.253906-.757813-1.691406-1.507813l-.128907-.226563-.109374.226563c-.355469.742187-.535157 1.726563-.460938 2.519531.207031 2.1875 1.707031 3.910156 3.839844 4.402344.402344.09375.785156.128906 1.246094.113281l.429687-.011719.238281.425782c.128906.238281.257813.4375.28125.445312.089844.035156.191406.019532.332032-.054687.078124-.039063.152343-.070313.167968-.070313.027344 0 .085938.105469.683594 1.191406.222656.40625.417969.75.4375.757813.015625.011719.203125.03125.414062.039063.214844.011718.40625.039062.429688.054687.019531.019531.105469.15625.1875.308594l.148438.277343-.238282.316407-.238281.3125.136719.253906.132812.25.15625.019531c.085938.011719.28125.027344.4375.039063l.28125.019531.164063.289062c.089843.160157.15625.308594.144531.332032-.007812.027344-.113281.171875-.234375.328125l-.21875.28125.1875.359375.421875.078125c.234375.042969.4375.085937.460938.097656.023437.011719-.027344.117187-.167969.351563-.113281.183593-.203125.34375-.203125.359374 0 .015626.097656.207032.21875.425782l.21875.398437.761718.148438c.417969.085937.789063.160156.828126.167969.035156.007812.0625.011718.0625.003906zm6.800781-4.738282-.007813-.792968-1.367187-1.484375c-.753907-.816407-1.914063-2.070313-2.578125-2.789063-1.800782-1.945312-2.132813-2.308594-2.144532-2.335937-.003906-.015625.046876-.074219.113282-.132813.234375-.214844.253906-.34375.078125-.539062-.066407-.074219-.199219-.222656-.292969-.324219l-.167969-.191406.390625-1.054688c.214844-.582031.460938-1.238281.542969-1.464843.132813-.363282.148437-.421876.136719-.582032-.019532-.285156-.085938-.371094-.625-.835937-1.789063-1.542969-3.058594-2.617188-3.160156-2.671875-.164063-.089844-.503907-.089844-.667969 0-.097657.050781-1.214844 1.058594-1.636719 1.476562l-.125.125.269531.152344c1.214844.679688 2.109375 1.707031 2.609375 2.984375.246094.636719.351563 1.175781.371094 1.910156.027344 1.03125-.160156 1.894531-.605469 2.785157l-.144531.289062.140625.144531c.128906.132813.148437.140625.25.128907.074219-.011719.160156-.058594.273437-.152344l.160157-.140625.121093.132812c.136719.15625 1.59375 1.734375 1.894532 2.054688l.203125.214843.269531-.25c.152344-.140624.296875-.253906.328125-.253906.0625 0 .488281.433594.527344.535156.019531.050782-.019531.101563-.257813.332032l-.285156.269531.101562.109375c.054688.058594.183594.199219.285157.308594.105469.113281.265625.289062.359375.386718l.171875.183594.261719-.25c.175781-.164062.28125-.246094.328124-.246094.078126 0 .539063.46875.539063.554688 0 .042969-.265625.320312-.480469.5l-.082031.070312.460937.476563.261719-.25c.242188-.230469.328125-.277344.40625-.226563.097657.066407.449219.492188.449219.542969 0 .039063-.09375.148438-.265625.3125l-.269531.25.082031.097657c.046875.054687.140625.160156.210937.234374l.125.140626.980469.027343c.539063.015625 1.089844.03125 1.222657.03125h.242187zm-13.9375-9.035156c.15625-.265625.226562-.636718.171875-.925781l-.023438-.128906-.261718-.019531c-.859376-.0625-1.574219-.386719-2.167969-.984376-.609375-.617187-.933594-1.40625-.933594-2.296874-.003906-.839844.265625-1.5625.8125-2.179688.46875-.535156 1.003906-.859375 1.707031-1.039062.257813-.066407.351563-.074219.757813-.074219.742187 0 1.28125.164062 1.878906.566406.242187.160156.707031.628906.863281.867187.070313.105469.136719.191407.148438.191407.035156 0 .855468-.742188.867187-.78125.011719-.050781-.296875-.441407-.542969-.695313-1.371093-1.410156-3.515624-1.753906-5.265624-.84375-.859376.445313-1.589844 1.203125-1.992188 2.058594-.847656 1.816406-.417969 3.941406 1.070312 5.265625.714844.640625 1.648438 1.042969 2.613282 1.125l.222656.019531zm0 0" fill="#fff"/></svg>