<svg height="36pt" viewBox="0 0 36 36" width="36pt" xmlns="http://www.w3.org/2000/svg"><path d="m8.40625 2.136719h19.1875c3.460938 0 6.269531 2.808593 6.269531 6.269531v19.1875c0 3.460938-2.808593 6.269531-6.269531 6.269531h-19.1875c-3.460938 0-6.269531-2.808593-6.269531-6.269531v-19.1875c0-3.460938 2.808593-6.269531 6.269531-6.269531zm0 0" fill="#7767c0" fill-rule="evenodd"/><path d="m10.125 6.75v22.5h3.375v-13.035156l6.09375-6.089844h1.78125v5.824219c-1.347656.476562-2.246094 1.746093-2.25 3.175781 0 1.863281 1.511719 3.375 3.375 3.375s3.375-1.511719 3.375-3.375c0-1.429688-.902344-2.703125-2.25-3.179688v-5.820312h2.25v-3.375zm3.375 3.375h2.90625l-2.90625 2.90625zm9 7.875c.621094 0 1.125.503906 1.125 1.125s-.503906 1.125-1.125 1.125-1.125-.503906-1.125-1.125.503906-1.125 1.125-1.125zm0 0" fill="#7fffff"/></svg>