<svg height="36pt" viewBox="0 0 36 36" width="36pt" xmlns="http://www.w3.org/2000/svg"><path d="m8.40625 2.136719h19.1875c3.460938 0 6.269531 2.808593 6.269531 6.269531v19.1875c0 3.460938-2.808593 6.269531-6.269531 6.269531h-19.1875c-3.460938 0-6.269531-2.808593-6.269531-6.269531v-19.1875c0-3.460938 2.808593-6.269531 6.269531-6.269531zm0 0" fill="#1da6e8" fill-rule="evenodd"/><path d="m28.898438 18c0-6.019531-4.878907-10.898438-10.898438-10.898438s-10.898438 4.878907-10.898438 10.898438 4.878907 10.898438 10.898438 10.898438 10.898438-4.878907 10.898438-10.898438zm0 0" fill="#fff"/><path d="m10.605469 12.550781v10.898438h2.335937v-3.269531l3.113282 3.269531h2.335937l-3.894531-5.449219 3.894531-5.449219h-2.335937l-3.113282 3.269531v-3.269531zm8.5625 2.335938v3.890625h6.226562v-3.890625h-1.554687v2.335937h-.78125v-2.335937h-1.554688v2.335937h-.777344v-2.335937zm0 4.671875v1.554687h6.226562v-1.554687zm0 2.332031v1.558594h1.558593v-1.558594zm2.335937 0v1.558594h3.890625v-1.558594zm0 0" fill="#1da6e8"/></svg>