<svg height="36pt" viewBox="0 0 36 36" width="36pt" xmlns="http://www.w3.org/2000/svg"><path d="m8.40625 2.136719h19.1875c3.460938 0 6.269531 2.808593 6.269531 6.269531v19.1875c0 3.460938-2.808593 6.269531-6.269531 6.269531h-19.1875c-3.460938 0-6.269531-2.808593-6.269531-6.269531v-19.1875c0-3.460938 2.808593-6.269531 6.269531-6.269531zm0 0" fill="#8e8e8e" fill-rule="evenodd"/><path d="m18.773438 5.238281 11.988281 11.988281c.429687.429688.40625 1.140626-.050781 1.601563l-11.882813 11.882813c-.460937.457031-1.171875.480468-1.601563.050781l-11.988281-11.988281c-.429687-.429688-.40625-1.140626.050781-1.601563l11.882813-11.882813c.460937-.457031 1.171875-.480468 1.601563-.050781zm0 0" fill="#fff"/><path d="m17.980469 4.929688c-.289063.011718-.578125.132812-.808594.359374l-3.839844 3.839844v12.027344l10.679688-10.679688-5.238281-5.238281c-.214844-.214843-.5-.316406-.789063-.308593 0 0 0 0-.003906 0zm-7.449219 7-5.242188 5.242187c-.226562.226563-.34375.519531-.355468.808594v.011719c-.007813.289062.09375.570312.304687.78125l5.238281 5.238281.054688-.058594zm15.460938.527343-5.855469 5.851563 5.546875 5.546875 5.027344-5.027344c.226562-.226563.34375-.519531.355468-.808594 0-.003906 0-.007812 0-.011719.007813-.289062-.09375-.570312-.304687-.78125zm-7.835938 7.832031-4.824219 4.824219v1.753907l3.894531 3.894531c.210938.214843.496094.316406.785157.308593h.003906c.289063-.011718.582031-.132812.8125-.359374l4.871094-4.875zm0 0" fill="#31afe1"/></svg>