<svg height="36pt" viewBox="0 0 36 36" width="36pt" xmlns="http://www.w3.org/2000/svg" xmlns:xlink="http://www.w3.org/1999/xlink"><clipPath id="a"><path d="m0 0h36v36h-36z"/></clipPath><clipPath id="b"><path d="m0 0h36v36h-36z"/></clipPath><path d="m8.40625 2.136719h19.1875c3.460938 0 6.269531 2.808593 6.269531 6.269531v19.1875c0 3.460938-2.808593 6.269531-6.269531 6.269531h-19.1875c-3.460938 0-6.269531-2.808593-6.269531-6.269531v-19.1875c0-3.460938 2.808593-6.269531 6.269531-6.269531zm0 0" fill="#8e8e8e" fill-rule="evenodd"/><path d="m10.027344 9.203125h15.945312c2.085938 0 3.78125 1.691406 3.78125 3.78125v10.03125c0 2.089844-1.695312 3.78125-3.78125 3.78125h-15.945312c-2.085938 0-3.78125-1.691406-3.78125-3.78125v-10.03125c0-2.089844 1.695312-3.78125 3.78125-3.78125zm0 0" fill="#474747"/><path d="m10.167969 10.316406h15.664062c1.582031 0 2.867188 1.230469 2.867188 2.75v9.867188c0 1.519531-1.285157 2.75-2.867188 2.75h-15.664062c-1.582031 0-2.867188-1.230469-2.867188-2.75v-9.867188c0-1.519531 1.285157-2.75 2.867188-2.75zm0 0" fill="#232323"/><g clip-path="url(#a)"><path d="m31.515625 24.636719c0 3.730469-3.023437 6.75-6.75 6.75s-6.75-3.019531-6.75-6.75c0-3.726563 3.023437-6.75 6.75-6.75s6.75 3.023437 6.75 6.75zm0 0" fill="#48cd42" fill-rule="evenodd"/></g><g clip-path="url(#b)" fill="#fff"><path d="m21.390625 21.265625h.566406c3.417969 0 6.183594 2.765625 6.183594 6.179687v.570313h-.566406c-.304688 0-.550781-.257813-.550781-.570313 0-2.792968-2.269532-5.0625-5.0625-5.0625-.304688 0-.566407-.242187-.566407-.550781v-.566406zm0 0"/><path d="m21.390625 23.519531h.566406c2.175781 0 3.929688 1.753907 3.929688 3.929688v.566406h-.554688c-.304687 0-.566406-.257813-.566406-.570313 0-1.550781-1.253906-2.804687-2.808594-2.804687-.304687 0-.566406-.257813-.566406-.570313zm0 0"/><path d="m22.511719 25.757812c.621093 0 1.136719.515626 1.136719 1.136719 0 .621094-.515626 1.121094-1.132813 1.121094-.625 0-1.121094-.5-1.121094-1.121094 0-.621093.5-1.136719 1.121094-1.136719zm0 0"/></g></svg>