<svg height="36pt" viewBox="0 0 36 36" width="36pt" xmlns="http://www.w3.org/2000/svg"><path d="m8.40625 2.136719h19.1875c3.460938 0 6.269531 2.808593 6.269531 6.269531v19.1875c0 3.460938-2.808593 6.269531-6.269531 6.269531h-19.1875c-3.460938 0-6.269531-2.808593-6.269531-6.269531v-19.1875c0-3.460938 2.808593-6.269531 6.269531-6.269531zm0 0" fill="#8e8e8e" fill-rule="evenodd"/><path d="m21.40625 12.070312c-4.789062 0-8.675781 3.886719-8.675781 8.675782v8.675781h8.675781c4.789062 0 8.675781-3.882813 8.675781-8.675781 0-4.789063-3.886719-8.675782-8.675781-8.675782zm0 3.71875c2.738281 0 4.957031 2.21875 4.957031 4.957032 0 2.738281-2.21875 4.957031-4.957031 4.957031s-4.957031-2.21875-4.957031-4.957031c0-2.738282 2.21875-4.957032 4.957031-4.957032zm0 0" fill="#666"/><path d="m21.117188 15.023438c0-2.808594-2.417969-5.085938-5.402344-5.085938-2.988282 0-5.40625 2.277344-5.40625 5.085938 0 2.808593 2.417968 5.085937 5.40625 5.085937 2.984375 0 5.402344-2.277344 5.402344-5.085937zm0 0" fill="#8e8e8e"/><path d="m15.589844 6.550781c-4.789063 0-8.671875 3.886719-8.671875 8.675781v8.675782h8.671875c4.792968 0 8.675781-3.882813 8.675781-8.675782 0-4.789062-3.882813-8.675781-8.675781-8.675781zm0 3.71875c2.738281 0 4.957031 2.21875 4.957031 4.957031 0 2.738282-2.21875 4.957032-4.957031 4.957032-2.738282 0-4.957032-2.21875-4.957032-4.957032 0-2.738281 2.21875-4.957031 4.957032-4.957031zm0 0" fill="#333"/></svg>