<svg height="36pt" viewBox="0 0 36 36" width="36pt" xmlns="http://www.w3.org/2000/svg"><path d="m8.40625 2.136719h19.1875c3.460938 0 6.269531 2.808593 6.269531 6.269531v19.1875c0 3.460938-2.808593 6.269531-6.269531 6.269531h-19.1875c-3.460938 0-6.269531-2.808593-6.269531-6.269531v-19.1875c0-3.460938 2.808593-6.269531 6.269531-6.269531zm0 0" fill="#fff" fill-rule="evenodd"/><path d="m8.40625 2.136719c-3.472656 0-6.269531 2.796875-6.269531 6.269531v19.183594c0 .75.136719 1.460937.375 2.125h1.460937v.714844h-1.15625c1.035156 2.039062 3.140625 3.433593 5.589844 3.433593h19.1875c3.472656 0 6.269531-2.796875 6.269531-6.273437v-19.183594c0-3.472656-2.796875-6.269531-6.269531-6.269531zm-5.0625 3.433593h2.855469v.714844h-2.855469zm4.285156 0h2.855469v.714844h-2.855469zm4.285156 0h2.859376v.714844h-2.859376zm4.285157 0h2.859375v.714844h-2.859375zm4.289062 0h2.855469v.714844h-2.855469zm4.285157 0h .5625l.964843.097657.070313.015625.894531.273437.066406.027344.371094.203125-.339844.628906-.335937-.183594-.828125-.257812-.914063-.089844h-.511718zm4.1875 1.535157.574218.695312.039063.054688.4375.8125.027343.0625.277344.898437.015625.070313.011719.097656-.714844.070313-.003906-.054688-.257812-.839844-.402344-.738281-.554688-.675781zm.753906 4.148437h.714844v2.859375h-.714844zm0 4.289063h.714844v2.855469h-.714844zm0 4.285156h.714844v2.855469h-.714844zm0 4.285156h.714844v1.1875l-.003907.035157-.09375.964843-.015625.070313-.207031.667968-.679687-.210937.195312-.640625.089844-.902344zm-.902344 3.839844.550781.453125-.410156.5-.046875.046875-.707031.582031-.058594.039063-.808594.4375-.066406.027343-.359375.113282-.210938-.683594.324219-.101562.757813-.40625.644531-.535157zm-3.445312 1.753906.070312.710938-.101562.011719h-2.789063v-.714844h2.738281zm-19.964844.007813h2.855468v.714844h-2.855468zm4.285156 0h2.855469v.714844h-2.855469zm4.285156 0h2.859375v.714844h-2.859375zm4.285156 0h2.859376v.714844h-2.859376zm0 0" fill="#c49a6c" fill-rule="evenodd"/><path d="m27.5625 13.5h6.300781v9h-6.300781c-.871094 0-1.574219-.667969-1.574219-1.5v-6c0-.832031.703125-1.5 1.574219-1.5zm0 0" fill="#9b6e3e"/><path d="m28.019531 14.0625v.1875l-.019531-.1875-.074219.007812.042969.371094.050781-.003906h.796875v-.375zm1.191407 0v .375h.796874v-.375zm1.191406 0v .375h.796875v-.375zm1.191406 0v .375h.796875v-.375zm1.191406 0v .375h.515625v-.375zm-5.285156.097656-.035156.007813-.019532.007812-.015624.007813-.214844.117187-.019532.007813-.015624.011718-.1875.152344-.011719.011719-.015625.011719-.152344.1875-.011719.011718-.007812.019532-.007813.007812.226563.109375.109375.082031.148437-.171874.152344-.125.183594-.097657.015625-.007812.003906-.003907-.007812-.011718-.117188-.339844zm-.882812.9375-.03125.097656-.003907.015626-.003906.019531-.023437.25-.003907.007812v.410157h.398438v-.398438l.023437-.21875.023438-.074219zm-.066407 1.175782v.75h.398438v-.75zm0 1.125v.75h.398438v-.75zm0 1.125v.75h.398438v-.75zm0 1.125v.75h.398438v-.75zm.421875 1.066406-.378906.109375.066406.214843.003906.019532.011719.015625.117188.210937.007812.015625.011719.015625.152344.183594.027344.027344.039062.03125.257812-.285156-.019531-.019532-.132812-.15625-.101563-.183594zm.609375.75-.195312.328125.042969.023437.015624.007813.019532.003906.238281.074219.019531.007812h.019532l.257812.027344h.261719v-.375h-.242188l-.21875-.023438-.199219-.0625zm1.074219.097656v.375h.792969v-.375zm1.191406 0v .375h.792969v-.375zm1.191406 0v .375h.792969v-.375zm1.191407 0v .375h.792969v-.375zm0 0" fill="#fff"/><path d="m30.636719 18.074219c0 .585937-.472657 1.0625-1.058594 1.0625-.582031 0-1.058594-.476563-1.058594-1.0625 0-.585938.476563-1.0625 1.058594-1.0625.585937 0 1.058594.476562 1.058594 1.0625zm0 0" fill="#fff"/><path d="m12.097656 17.226562-1.976562.179688v7.703125l1.957031-.28125v-3.285156l2.632813 3.644531 2.058593-.621094-2.695312-3.5 2.71875-3.304687-2.105469-.457031-2.609375 3.304687zm-4.480468 1.875c-.019532.003907-.046876.007813-.0625.027344l-.777344.734375c-.03125.03125-.035156.078125-.011719.117188l.90625 1.417969c-.160156.253906-.289063.53125-.382813.820312l-1.667968.328125c-.046875.007813-.082032.050781-.082032.09375v1.039063c0 .046874.035157.082031.082032.09375l1.617187.371093c.085938.335938.21875.660157.398438.953125l-.9375 1.351563c-.027344.039062-.023438.089843.011719.121093l.777343.734376c.03125.03125.082031.035156.121094.011718l1.46875-.84375c.289063.160156.601563.285156.929687.367188l.34375 1.558594c.007813.046874.050782.078124.097657.078124h1.097656c.046875 0 .085937-.03125.097656-.074218l.402344-1.566406c.339844-.085938.660156-.214844.957031-.378907l1.449219.898438c.039063.023437.089844.019531.125-.011719l.773437-.734375c.03125-.03125.039063-.078125.015626-.117187l-.527344-.820313-.171875.050781c-.027344.007813-.054688-.003906-.070313-.023437 0 0-.332031-.464844-.765625-1.066407-.523437.960938-1.582031 1.621094-2.804687 1.621094-1.738282 0-3.148438-1.332031-3.148438-2.976562 0-1.207032.765625-2.246094 1.859375-2.710938v-.769531c-.199219.066406-.390625.144531-.574219.242187v-.007812l-1.480468-.917969c-.023438-.011719-.042969-.011719-.066406-.011719zm0 0" fill-opacity=".494118"/></svg>