<svg height="36pt" viewBox="0 0 36 36" width="36pt" xmlns="http://www.w3.org/2000/svg"><g fill-rule="evenodd"><path d="m33.863281 13.75v-5.34375c0-3.472656-2.796875-6.269531-6.269531-6.269531h-5.34375zm0 0" fill="#4bae4f"/><path d="m20.375 2.136719h-11.964844c-3.476562 0-6.273437 2.796875-6.273437 6.269531v19.183594c0 3.476562 2.796875 6.273437 6.273437 6.273437h19.183594c3.472656 0 6.269531-2.796875 6.269531-6.273437v-11.964844zm0 0" fill="#4bae4f"/><path d="m20.375 2.136719 13.488281 13.488281v-1.875l-11.613281-11.613281zm0 0" fill="#fff"/></g><path d="m9.5625 14.019531v14.0625h16.875v-14.0625zm1.40625 1.40625h5.625v2.8125h-5.625zm7.027344 0h7v2.8125h-7zm-7.023438 4.21875h5.625v2.8125h-5.625zm7.027344 0h7v2.8125h-7zm-7.027344 4.21875h5.625v2.8125h-5.625zm7.027344 0h7v2.8125h-7zm0 0" fill="#fff"/></svg>