<svg height="36pt" viewBox="0 0 36 36" width="36pt" xmlns="http://www.w3.org/2000/svg"><g fill-rule="evenodd"><path d="m33.863281 13.75v-5.34375c0-3.472656-2.796875-6.269531-6.269531-6.269531h-5.34375zm0 0" fill="#e81d62"/><path d="m20.375 2.136719h-11.964844c-3.476562 0-6.273437 2.796875-6.273437 6.269531v19.183594c0 3.476562 2.796875 6.273437 6.273437 6.273437h19.183594c3.472656 0 6.269531-2.796875 6.269531-6.273437v-11.964844zm0 0" fill="#e81d62"/><path d="m20.375 2.136719 13.488281 13.488281v-1.875l-11.613281-11.613281zm0 0" fill="#fff"/></g><path d="m18.105469 10.699219c-3.734375 0-6.929688 1.011719-8.25 2.441406-.113281.121094-.210938.242187-.292969.367187-.082031.121094-.148438.242188-.203125.363282-.011719.039062-.023437.078125-.035156.117187-.03125.082031-.066407.167969-.082031.253907-.027344.121093-.042969.242187-.042969.363281 0 .125.015625.253906.042969.378906.027343.121094.070312.246094.121093.367187.058594.121094.125.242188.207031.363282.082032.121094.175782.238281.285157.355468 1.359375 1.472657 4.621093 2.4375 8.25 2.4375 3.628906 0 6.890625-.964843 8.25-2.4375 0-.003906.003906-.003906.003906-.003906.089844-.101562.167969-.199218.242187-.304687.011719-.019531.03125-.039063.042969-.058594.054688-.085937.105469-.171875.148438-.257813.019531-.039062.046875-.082031.0625-.121093.03125-.074219.054687-.144531.074219-.21875.015624-.058594.035156-.113281.046874-.171875.023438-.109375.035157-.21875.035157-.328125 0-.128907-.015625-.261719-.046875-.390625-.082032-.378906-.292969-.738282-.605469-1.078125-1.324219-1.429688-4.515625-2.4375-8.25-2.4375zm-8.25 7.320312c-.433594.464844-.65625.960938-.65625 1.464844 0 2.15625 3.988281 3.902344 8.90625 3.902344 4.921875 0 8.910156-1.746094 8.90625-3.902344 0-.503906-.222657-1-.652344-1.464844-1.363281 1.472657-4.625 2.4375-8.253906 2.441407-3.625-.003907-6.890625-.96875-8.25-2.441407zm0 4.878907c-.433594.464843-.65625.960937-.65625 1.464843 0 2.15625 3.988281 3.902344 8.90625 3.902344s8.90625-1.746094 8.90625-3.902344c0-.503906-.222657-1-.65625-1.464843-1.359375 1.476562-4.621094 2.441406-8.25 2.441406-3.628907 0-6.890625-.964844-8.25-2.441406zm0 0" fill="#fff"/></svg>