<svg height="36pt" viewBox="0 0 36 36" width="36pt" xmlns="http://www.w3.org/2000/svg"><path d="m8.40625 2.136719h19.1875c3.460938 0 6.269531 2.808593 6.269531 6.269531v19.1875c0 3.460938-2.808593 6.269531-6.269531 6.269531h-19.1875c-3.460938 0-6.269531-2.808593-6.269531-6.269531v-19.1875c0-3.460938 2.808593-6.269531 6.269531-6.269531zm0 0" fill="#999" fill-rule="evenodd"/><path d="m18.050781 8.664062c-4.925781 0-9.359375 1.75-13.039062 4.464844l13.039062 14.207032 12.9375-14.257813c-3.664062-2.683594-8.046875-4.414063-12.9375-4.414063zm0 0" fill="#4f4f4f"/><path d="m18 12.394531c-3.925781 0-7.566406 1.285157-10.492188 3.460938l10.546876 11.480469 10.4375-11.480469c-2.925782-2.171875-6.566407-3.460938-10.492188-3.460938zm0 0" fill="#797979"/><path d="m18 16.128906c-2.941406 0-5.675781.964844-7.867188 2.597656l7.910157 8.609376 7.824219-8.609376c-2.191407-1.632812-4.925782-2.597656-7.867188-2.597656zm0 0" fill="#ccc"/></svg>