<svg height="36pt" viewBox="0 0 36 36" width="36pt" xmlns="http://www.w3.org/2000/svg"><path d="m8.40625 2.136719h19.1875c3.460938 0 6.269531 2.808593 6.269531 6.269531v19.1875c0 3.460938-2.808593 6.269531-6.269531 6.269531h-19.1875c-3.460938 0-6.269531-2.808593-6.269531-6.269531v-19.1875c0-3.460938 2.808593-6.269531 6.269531-6.269531zm0 0" fill="#ccc" fill-rule="evenodd"/><path d="m21.375 22.5c0-3.105469-2.519531-5.625-5.625-5.625s-5.625 2.519531-5.625 5.625 2.519531 5.625 5.625 5.625 5.625-2.519531 5.625-5.625zm0 0" fill="#ee9736"/><path d="m19.125 13.5c0-3.105469-2.519531-5.625-5.625-5.625s-5.625 2.519531-5.625 5.625 2.519531 5.625 5.625 5.625 5.625-2.519531 5.625-5.625zm0 0" fill="#ffb271"/><path d="m28.125 18c0-3.105469-2.519531-5.625-5.625-5.625s-5.625 2.519531-5.625 5.625 2.519531 5.625 5.625 5.625 5.625-2.519531 5.625-5.625zm0 0" fill="#535353"/></svg>