<svg height="36pt" viewBox="0 0 36 36" width="36pt" xmlns="http://www.w3.org/2000/svg"><path d="m8.40625 2.136719h19.1875c3.460938 0 6.269531 2.808593 6.269531 6.269531v19.1875c0 3.460938-2.808593 6.269531-6.269531 6.269531h-19.1875c-3.460938 0-6.269531-2.808593-6.269531-6.269531v-19.1875c0-3.460938 2.808593-6.269531 6.269531-6.269531zm0 0" fill="#8e8e8e" fill-rule="evenodd"/><path d="m10.027344 9.203125h15.945312c2.085938 0 3.78125 1.691406 3.78125 3.78125v10.03125c0 2.089844-1.695312 3.78125-3.78125 3.78125h-15.945312c-2.085938 0-3.78125-1.691406-3.78125-3.78125v-10.03125c0-2.089844 1.695312-3.78125 3.78125-3.78125zm0 0" fill="#474747"/><path d="m10.167969 10.316406h15.664062c1.582031 0 2.867188 1.230469 2.867188 2.75v9.867188c0 1.519531-1.285157 2.75-2.867188 2.75h-15.664062c-1.582031 0-2.867188-1.230469-2.867188-2.75v-9.867188c0-1.519531 1.285157-2.75 2.867188-2.75zm0 0" fill="#1d83af"/><path d="m25.699219 15.007812c0 1.652344-1.34375 2.992188-2.996094 2.992188s-2.992187-1.339844-2.992187-2.992188c0-1.65625 1.339843-2.996093 2.992187-2.996093s2.996094 1.339843 2.996094 2.996093zm0 0" fill="#f0f9fd"/><path d="m14.578125 18.425781c0 1.183594-.957031 2.140625-2.136719 2.140625-1.179687 0-2.140625-.957031-2.140625-2.140625 0-1.179687.960938-2.136719 2.140625-2.136719 1.179688 0 2.136719.957032 2.136719 2.136719zm0 0" fill="#c4e7f5"/><path d="m21.421875 22.277344c0 .945312-.765625 1.710937-1.710937 1.710937-.945313 0-1.710938-.765625-1.710938-1.710937 0-.945313.765625-1.710938 1.710938-1.710938.945312 0 1.710937.765625 1.710937 1.710938zm0 0" fill="#a6daf0"/><path d="m18 15.007812c0 .707032-.574219 1.28125-1.28125 1.28125-.710938 0-1.285156-.574218-1.285156-1.28125 0-.710937.574218-1.285156 1.285156-1.285156.707031 0 1.28125.574219 1.28125 1.285156zm0 0" fill="#c4e7f5"/><path d="m25.390625 21.148438c0 .621093-.503906 1.125-1.125 1.125s-1.125-.503907-1.125-1.125c0-.621094.503906-1.125 1.125-1.125s1.125.503906 1.125 1.125zm0 0" fill="#d3edf8"/></svg>