<svg height="36pt" viewBox="0 0 36 36" width="36pt" xmlns="http://www.w3.org/2000/svg" xmlns:xlink="http://www.w3.org/1999/xlink"><clipPath id="a"><path d="m0 0h36v36h-36z"/></clipPath><path d="m8.40625 2.136719h19.1875c3.460938 0 6.269531 2.808593 6.269531 6.269531v19.1875c0 3.460938-2.808593 6.269531-6.269531 6.269531h-19.1875c-3.460938 0-6.269531-2.808593-6.269531-6.269531v-19.1875c0-3.460938 2.808593-6.269531 6.269531-6.269531zm0 0" fill="#4d4d4d" fill-rule="evenodd"/><g clip-path="url(#a)"><path d="m5.757812 27.398438.011719-9.394532-.011719-4.714844 4.09375-2.335937 8.160157-4.703125 8.160156 4.703125 4.070313 2.335937v14.109376l-4.082032 2.351562-4.078125-2.351562.011719-4.691407 4.066406-2.363281v-4.699219l-4.066406-2.339843-4.082031-2.351563-4.082031 2.351563-4.089844 2.339843v4.699219l4.078125 2.351562v4.703126l-4.078125 2.351562zm0 0" fill="#25c65f"/></g></svg>