<svg height="36pt" viewBox="0 0 36 36" width="36pt" xmlns="http://www.w3.org/2000/svg"><path d="m8.40625 2.136719h19.1875c3.460938 0 6.269531 2.808593 6.269531 6.269531v19.1875c0 3.460938-2.808593 6.269531-6.269531 6.269531h-19.1875c-3.460938 0-6.269531-2.808593-6.269531-6.269531v-19.1875c0-3.460938 2.808593-6.269531 6.269531-6.269531zm0 0" fill="#0286c2" fill-rule="evenodd"/><path d="m18 11.320312c-3.6875 0-6.679688 2.992188-6.679688 6.679688s2.992188 6.679688 6.679688 6.679688 6.679688-2.992188 6.679688-6.679688-2.992188-6.679688-6.679688-6.679688zm0 4.007813c1.476562 0 2.671875 1.195313 2.671875 2.671875s-1.195313 2.671875-2.671875 2.671875-2.671875-1.195313-2.671875-2.671875 1.195313-2.671875 2.671875-2.671875zm0 0" fill="#848484"/><path d="m18 5.53125c-6.90625 0-12.46875 5.5625-12.46875 12.46875s5.5625 12.46875 12.46875 12.46875 12.46875-5.5625 12.46875-12.46875-5.5625-12.46875-12.46875-12.46875zm0 7.125c2.953125 0 5.34375 2.390625 5.34375 5.34375s-2.390625 5.34375-5.34375 5.34375-5.34375-2.390625-5.34375-5.34375 2.390625-5.34375 5.34375-5.34375zm0 0" fill="#ccc"/><path d="m10.367188 21.5625h15.265624c.703126 0 1.273438.570312 1.273438 1.273438v6.359374c0 .703126-.570312 1.273438-1.273438 1.273438h-15.265624c-.703126 0-1.273438-.570312-1.273438-1.273438v-6.359374c0-.703126.570312-1.273438 1.273438-1.273438zm0 0" fill="#64cd4a"/><g fill="none" stroke="#fff" stroke-linecap="round" transform="matrix(1.125 0 0 1.125 50.853147 7.812876)"><path d="m-31.977103 18.152443v-3.944444m-3.159722 0 1.579861 1.972222 1.579861-1.972222m-3.159722 3.944444v-3.944444" stroke-linejoin="round" stroke-width=".999897"/><path d="m-27.227103 18.152443-2.368055-2.465278m2.368055-1.479166-2.368055 2.465278m0 1.479166v-3.944444" stroke-width=".999663"/><path d="m-23.265297 14.204527-1.1875 3.954861-1.1875-3.954861" stroke-linejoin="round" stroke-width=".999599"/></g></svg>