<svg height="36pt" viewBox="0 0 36 36" width="36pt" xmlns="http://www.w3.org/2000/svg"><path d="m8.40625 2.136719h19.1875c3.460938 0 6.269531 2.808593 6.269531 6.269531v19.1875c0 3.460938-2.808593 6.269531-6.269531 6.269531h-19.1875c-3.460938 0-6.269531-2.808593-6.269531-6.269531v-19.1875c0-3.460938 2.808593-6.269531 6.269531-6.269531zm0 0" fill="#fcc733" fill-rule="evenodd"/><path d="m19.832031 24.832031c4.375-1.589843 7.980469-2.914062 8.007813-2.941406.066406-.058594-.328125-1.121094-.566406-1.527344-.390626-.667969-.769532-.972656-1.527344-1.230469-.730469-.246093-1.289063-.65625-1.6875-1.234374-.210938-.308594-.738282-1.523438-1.359375-3.140626-.785157-2.050781-1.34375-2.953124-2.320313-3.753906-1.066406-.878906-2.054687-1.226562-3.675781-1.292968l-.972656-.042969-.226563-.460938c-.273437-.5625-.34375-.648437-.65625-.808593-.835937-.425782-1.910156.3125-1.773437 1.21875.019531.15625.085937.390624.136719.515624.140624.339844.074218.488282-.378907.855469-1.648437 1.316407-2.40625 2.96875-2.296875 4.988281.050782.96875.105469 1.1875.878906 3.503907.769532 2.304687.808594 2.472656.773438 3.257812-.027344.644531-.085938.804688-.652344 1.839844-.203125.363281-.210937.417969-.210937 1.066406 0 .632813.019531.742188.25 1.382813.136719.382812.261719.695312.273437.695312.015625 0 3.605469-1.300781 7.984375-2.890625zm.828125 2.597657c.699219-.191407 1.414063-.804688 1.78125-1.519532.210938-.417968.339844-.84375.253906-.84375-.085937 0-4.75 1.695313-4.8125 1.75-.066406.0625.496094.421875.867188.550782.613281.21875 1.269531.238281 1.910156.0625zm0 0" fill="#fff"/></svg>