<svg height="36pt" viewBox="0 0 36 36" width="36pt" xmlns="http://www.w3.org/2000/svg"><g fill-rule="evenodd"><g fill="#8e8e8e"><path d="m8.40625 2.136719h19.1875c3.460938 0 6.269531 2.808593 6.269531 6.269531v19.1875c0 3.460938-2.808593 6.269531-6.269531 6.269531h-19.1875c-3.460938 0-6.269531-2.808593-6.269531-6.269531v-19.1875c0-3.460938 2.808593-6.269531 6.269531-6.269531zm0 0"/><path d="m33.386719 29.96875c.296875-.730469.476562-1.53125.476562-2.375v-19.1875c0-3.472656-2.796875-6.269531-6.269531-6.269531h-2.585938c.15625.082031.359376.085937.476563.21875.261719.296875.441406.699219.558594 1.128906zm0 0"/><path d="m10.992188 2.136719h-2.585938c-3.472656 0-6.269531 2.796875-6.269531 6.269531v19.1875c0 .84375.179687 1.644531.476562 2.375l7.34375-26.484375c.117188-.429687.296875-.832031.558594-1.128906.117187-.132813.320313-.136719.476563-.21875zm0 0"/></g><path d="m14.703125 2.136719h-3.710937c-.15625.082031-.359376.085937-.476563.21875-.261719.296875-.441406.699219-.558594 1.128906l-7.34375 26.484375c.9375 2.289062 3.164063 3.894531 5.792969 3.894531h19.1875c2.628906 0 4.855469-1.605469 5.792969-3.894531l-7.34375-26.484375c-.117188-.429687-.296875-.832031-.558594-1.128906-.117187-.132813-.320313-.136719-.476563-.21875h-3.710937l-3.296875 5.496093zm0 0" fill="#3cb2d4"/><path d="m14.703125 2.136719 3.296875 5.496093 3.296875-5.496093zm0 0" fill="#fff"/></g><path d="m22.609375 27.214844c0 2.546875-2.066406 4.609375-4.609375 4.609375-2.546875 0-4.609375-2.0625-4.609375-4.609375 0-2.542969 2.0625-4.605469 4.609375-4.605469 2.542969 0 4.609375 2.0625 4.609375 4.605469zm0 0" fill="#fff"/><path d="m29.152344 7.679688.113281.066406c.796875.460937 1.019531 1.558594.5 2.460937l-10.214844 17.695313c-.519531.898437-1.585937 1.253906-2.378906.796875l-.113281-.066407c-.796875-.460937-1.019532-1.5625-.5-2.460937l10.214844-17.695313c.519531-.898437 1.585937-1.253906 2.378906-.796874zm0 0" fill="#febe43"/></svg>