<svg height="36pt" viewBox="0 0 36 36" width="36pt" xmlns="http://www.w3.org/2000/svg"><path d="m8.40625 2.136719h19.1875c3.460938 0 6.269531 2.808593 6.269531 6.269531v19.1875c0 3.460938-2.808593 6.269531-6.269531 6.269531h-19.1875c-3.460938 0-6.269531-2.808593-6.269531-6.269531v-19.1875c0-3.460938 2.808593-6.269531 6.269531-6.269531zm0 0" fill="#234780" fill-rule="evenodd"/><path d="m18 5.898438c-6.683594 0-12.101562 5.417968-12.101562 12.101562s5.417968 12.101562 12.101562 12.101562 12.101562-5.417968 12.101562-12.101562-5.417968-12.101562-12.101562-12.101562zm0 0" fill="#63bfd7"/><path d="m18 8.710938 6.050781 9.503906-6.050781 3.457031-6.050781-3.457031zm0 0" fill="#fff"/><path d="m18 27.289062 6.050781-7.777343-6.050781 3.457031-6.050781-3.457031zm0 0" fill="#fff"/></svg>