<svg height="36pt" viewBox="0 0 36 36" width="36pt" xmlns="http://www.w3.org/2000/svg" xmlns:xlink="http://www.w3.org/1999/xlink"><radialGradient id="a" cx="-27.763472" cy="19.76371" gradientTransform="matrix(4.326046 -.0517685 .0347012 2.89982 131.978216 -37.063899)" gradientUnits="userSpaceOnUse" r="14.101694"><stop offset="0" stop-color="#ff7730"/><stop offset="1" stop-color="#8e80cb" stop-opacity="0"/></radialGradient><filter id="b" height="100%" width="100%" x="0%" y="0%"><feColorMatrix in="SourceGraphic" type="matrix" values="0 0 0 0 1 0 0 0 0 1 0 0 0 0 1 0 0 0 1 0"/></filter><mask id="c"><g filter="url(#b)"><path d="m0 0h36v36h-36z" fill-opacity=".976471"/></g></mask><clipPath id="d"><path d="m0 0h36v36h-36z"/></clipPath><g fill-rule="evenodd"><path d="m8.40625 2.136719h19.1875c3.464844 0 6.269531 2.804687 6.269531 6.269531v19.1875c0 3.460938-2.804687 6.269531-6.269531 6.269531h-19.1875c-3.460938 0-6.269531-2.808593-6.269531-6.269531v-19.1875c0-3.464844 2.808593-6.269531 6.269531-6.269531zm0 0" fill="#a77da8"/><path d="m8.410156 2.136719c-3.476562 0-6.273437 2.796875-6.273437 6.269531v12.050781c1.128906-.230469 2.417969-.5625 3.347656-.675781 1.710937-.203125 3.121094-.214844 4.351563-.097656 1.226562.121094 2.277343.375 3.261718.703125.988282.332031 1.914063.742187 2.898438 1.171875.980468.429687 2.023437.878906 3.242187 1.292968 1.214844.417969 2.609375.800782 4.296875 1.089844 1.691406.292969 3.675782.492188 6.074219.542969 1.191406.027344 2.84375-.113281 4.257813-.167969v-15.910156c0-3.472656-2.800782-6.269531-6.273438-6.269531zm0 0" fill="#a77da8"/><path d="m8.40625 2.136719h19.1875c3.464844 0 6.269531 2.804687 6.269531 6.269531v19.1875c0 3.460938-2.804687 6.269531-6.269531 6.269531h-19.1875c-3.460938 0-6.269531-2.808593-6.269531-6.269531v-19.1875c0-3.464844 2.808593-6.269531 6.269531-6.269531zm0 0" fill="url(#a)"/></g><g clip-path="url(#d)" mask="url(#c)"><path d="m14.921875 33.152344c.089844-.074219.175781-.148438.261719-.226563.222656-.21875.4375-.445312.636718-.6875.203126-.238281.394532-.488281.570313-.746093.175781-.257813.339844-.523438.488281-.800782.152344-.273437.285156-.554687.410156-.84375.121094-.285156.226563-.582031.320313-.878906.09375-.300781.167969-.601562.230469-.910156s.109375-.617188.140625-.925782c.03125-.3125.046875-.625.046875-.9375 0-.222656-.007813-.441406-.023438-.664062-.019531-.3125-.058594-.621094-.113281-.929688-.050781-.308593-.121094-.613281-.203125-.914062-.085938-.304688-.183594-.601562-.296875-.890625-.113281-.292969-.242187-.578125-.382813-.855469-.140624-.28125-.296874-.550781-.464843-.816406-.171875-.261719-.351563-.515625-.546875-.761719-.195313-.246093-.402344-.480469-.617188-.703125-.21875-.222656-.449218-.4375-.6875-.640625-.238281-.199219-.488281-.390625-.746094-.566406-.257812-.179687-.523437-.339844-.800781-.492187-.273437-.148438-.554687-.285157-.84375-.40625-.289062-.121094-.582031-.230469-.878906-.320313-.300781-.09375-.605469-.171875-.910156-.234375-.308594-.0625-.617188-.109375-.929688-.140625-.308593-.027344-.621093-.042969-.933593-.042969-.222657 0-.445313.003906-.664063.019532-.3125.023437-.625.0625-.933594.117187-.304687.050781-.613281.117187-.914062.203125-.300781.082031-.597657.183594-.886719.296875-.292969.113281-.578125.238281-.859375.382813-.277344.140624-.550781.296874-.8125.464843s-.515625.351563-.761719.546875c-.234375.183594-.457031.378906-.671875.585938v7.445312c0 3.476563 2.796875 6.273438 6.273438 6.273438zm0 0" fill="#fff" fill-rule="evenodd"/></g><path d="m18.503906 22.289062h1.035156v1.550782h-1.035156zm0 0" fill="#986005"/><path d="m21.261719 22.886719h-4.375l2.1875-3.789063zm0 0" fill="#74a10d"/><path d="m20.914062 21.558594h-3.757812l1.878906-3.257813zm0 0" fill="#98c305"/><path d="m20.578125 20.0625h-2.992187l1.496093-2.589844zm0 0" fill="#addb1e"/><path d="m21.730469 23.128906c-5.53125.503906-9.757813 3.535156-16.242188 3.203125-1.324219-.121093-2.417969-.375-3.355469-.726562v1.988281c0 .710938.1875 1.363281.402344 1.996094 1.058594-.5625 2.105469-1.011719 3.144532-1.265625 1.175781-.289063 2.34375-.410157 3.519531-.425781 2.351562-.027344 4.730469.378906 7.242187.726562 1.257813.175781 2.542969.335938 3.878906.425781 1.332032.085938 2.710938.101563 4.144532-.019531 1.4375-.121094 2.929687-.375 4.492187-.820312 1.5625-.449219 3.195313-1.09375 4.90625-1.992188-5.027343-2.785156-8.8125-3.394531-12.132812-3.089844zm0 0" fill="#97c607" fill-rule="evenodd"/><path d="m25.148438 24.980469h2.621093v3.929687h-2.621093zm0 0" fill="#986005"/><path d="m32.128906 26.492188h-11.078125l5.539063-9.59375zm0 0" fill="#74a10d"/><path d="m31.25 23.128906h-9.519531l4.761719-8.246094zm0 0" fill="#98c305"/><path d="m30.398438 19.347656h-7.570313l3.785156-6.558594zm0 0" fill="#addb1e"/><path d="m33.863281 26.21875c-1.710937.898438-3.34375 1.542969-4.90625 1.992188-1.5625.445312-3.054687.699218-4.492187.820312-1.433594.121094-2.8125.105469-4.144532.019531-1.335937-.089843-2.621093-.25-3.878906-.425781-2.511718-.347656-4.890625-.753906-7.242187-.726562-1.175781.015624-2.34375.136718-3.519531.425781-1.039063.253906-2.085938.703125-3.144532 1.265625.839844 2.476562 3.105469 4.273437 5.871094 4.273437h19.183594c3.476562 0 6.273437-2.792969 6.273437-6.269531zm0 0" fill="#74a10d" fill-rule="evenodd"/></svg>