<svg height="36pt" viewBox="0 0 36 36" width="36pt" xmlns="http://www.w3.org/2000/svg"><path d="m8.40625 2.136719h19.1875c3.460938 0 6.269531 2.808593 6.269531 6.269531v19.1875c0 3.460938-2.808593 6.269531-6.269531 6.269531h-19.1875c-3.460938 0-6.269531-2.808593-6.269531-6.269531v-19.1875c0-3.460938 2.808593-6.269531 6.269531-6.269531zm0 0" fill="#b3b3b3" fill-rule="evenodd"/><path d="m17.980469 5.285156c-2.4375 0-4.539063 2.265625-4.539063 5.085938 0 6.355468-3.632812 6.992187-3.632812 11.445312 0 4.914063 3.65625 8.898438 8.171875 8.898438s8.175781-3.984375 8.175781-8.898438c0-4.453125-3.632812-5.089844-3.632812-11.445312 0-2.820313-2.105469-5.085938-4.542969-5.085938zm0 0" fill="#4f4f4f"/><path d="m17.980469 12.550781c-1.625 0-2.722657 1.375-2.722657 3.085938 0 3.863281-2.726562 4.246093-2.726562 6.949219 0 2.984374 2.441406 5.40625 5.449219 5.40625 3.011719 0 5.449219-2.421876 5.449219-5.40625 0-2.703126-2.722657-3.085938-2.722657-6.949219 0-1.710938-1.101562-3.085938-2.726562-3.085938zm0 0" fill="#fff"/><path d="m13.910156 30.695312c-.273437-.042968-.515625-.125-1.046875-.351562-.789062-.339844-1.15625-.453125-2.601562-.78125-.71875-.164062-.988281-.238281-1.613281-.441406-.230469-.074219-.53125-.167969-.675782-.207032-.386718-.113281-.492187-.15625-.632812-.269531-.195313-.152343-.285156-.386719-.25-.648437.023437-.171875.082031-.332032.242187-.671875.21875-.453125.757813-.617188.789063-1.0625.019531-.261719.003906-.558594-.0625-1.175781-.039063-.363282-.050782-.496094-.050782-.726563 0-.253906.003907-.078125.03125-.175781.09375-.359375.167969-.566406.511719-.65625.101563-.027344-.105469-.03125.359375-.039063.292969-.007812.460938-.015625.496094-.023437.203125-.046875.351562-.125.488281-.253906.128907-.125.21875-.796876.386719-1.097657.265625-.46875.789062-.460937 1.214844-.480469.121094.027344.160156.042969.292968.117188.132813.078125.171876.109375.289063.230469.292969.3125.429687.503906 1.085937 1.496093.515626.785157.675782 1.035157.882813 1.40625.230469.402344.640625 1.042969.792969 1.238282.023437.035156.183594.234375.351562.445312.164063.214844.320313.410156.339844.441406.3125.4375.53125.941407.613281 1.445313.023438.175781.027344.203125.011719.40625-.019531.253906-.035156.363281-.0625.417969-.011719.023437-.035156.085937-.054688.136718-.242187.667969-.839843 1.167969-1.53125 1.285157-.148437.023437-.441406.023437-.597656 0zm0 0" fill="#eab108"/><path d="m24.53125 30.394531c.210938-.148437.375-.3125.722656-.714843.511719-.59375.5-.835938 1.558594-1.691407.53125-.425781.722656-.59375 1.160156-1.011719.15625-.152343.367188-.351562.46875-.445312.277344-.246094.34375-.324219.417969-.472656.097656-.203125.074219-.433594-.0625-.628906-.089844-.128907-.207031-.234376-.480469-.445313-.367187-.277344-.472656-.519531-.6875-.867187-.125-.203126.039063-.722657-.160156-1.246094-.121094-.3125-.167969-.425782-.261719-.613282-.105469-.203124-.125-.238281-.1875-.304687-.230469-.253906-.484375-.335937-.808593-.269531-.09375.019531-.148438.042968-.539063.226562-.246094.113282-.464844.207032-.5.214844-.183594.046875-.339844.042969-.503906-.007812-.160157-.046876-.289063.285156-.554688.109374-.183593-.121093-.378906-.269531-.519531-.308593-.191406-.050781-.191406-.050781-.375-.03125-.175781.019531-.304688.070312-.445312.183593-.089844.070313-.117188.097657-.195313.214844-.078125.117188-.097656.15625-.140625.304688-.113281.367187-.152344.582031-.28125 1.648437-.105469.847657-.132812 1.117188-.152344 1.5-.023437.417969-.09375 1.105469-.140625 1.328125-.007812.035156-.054687.261719-.105469.503906-.050781.238282-.097656.460938-.101562.492188-.078125.484375-.050781.980469.09375 1.421875.050781.152344.0625.175781.15625.332031.121094.199219.179688.28125.226562.3125.019532.015625.0625.054688.101563.089844.476563.441406 1.179687.605469 1.804687.414062.128907-.039062.371094-.160156.492188-.242187zm0 0" fill="#eab108"/><path d="m17.980469 9.824219c0 1.003906-.8125 1.816406-1.816407 1.816406-1.003906 0-1.816406-.8125-1.816406-1.816406 0-1.003907.8125-1.816407 1.816406-1.816407 1.003907 0 1.816407.8125 1.816407 1.816407zm0 0" fill="#fff"/><path d="m17.074219 9.824219c0 .503906-.40625.910156-.910157.910156-.5 0-.90625-.40625-.90625-.910156 0-.5.40625-.90625.90625-.90625.503907 0 .910157.40625.910157.90625zm0 0" fill="#323232"/><path d="m20.707031 12.097656c0 1.753906-1.222656 3.175782-2.726562 3.175782-1.503907 0-2.722657-1.421876-2.722657-3.175782zm0 0" fill="#f77d00"/><path d="m21.613281 9.824219c0 1.003906-.8125 1.816406-1.816406 1.816406s-1.816406-.8125-1.816406-1.816406c0-1.003907.8125-1.816407 1.816406-1.816407s1.816406.8125 1.816406 1.816407zm0 0" fill="#fff"/><path d="m20.707031 9.824219c0 .503906-.40625.910156-.910156.910156-.5 0-.90625-.40625-.90625-.910156 0-.5.40625-.90625.90625-.90625.503906 0 .910156.40625.910156.90625zm0 0" fill="#323232"/><path d="m20.707031 12.246094c0 .304687-1.222656 2.121094-2.726562 2.121094-1.503907 0-2.722657-1.816407-2.722657-2.121094 0-.835938 1.21875-1.511719 2.722657-1.511719 1.503906 0 2.726562.675781 2.726562 1.511719zm0 0" fill="#eab108"/><path d="m24.75 24.402344c-1.046875 0-1.054688-.871094-1.265625-1.894532-.230469-1.140624-.378906-1.800781 1.441406-1.894531 1.578125-.515625 1.820313 3.726563-.175781 3.789063zm0 0" fill="#4f4f4f"/></svg>