<svg height="36pt" viewBox="0 0 36 36" width="36pt" xmlns="http://www.w3.org/2000/svg"><g fill-rule="evenodd"><path d="m8.40625 1.957031h19.1875c3.460938 0 6.269531 2.804688 6.269531 6.269531v19.183594c0 3.464844-2.808593 6.273438-6.269531 6.273438h-19.1875c-3.460938 0-6.269531-2.808594-6.269531-6.273438v-19.183594c0-3.464843 2.808593-6.269531 6.269531-6.269531zm0 0" fill="#4966ff"/><path d="m33.863281 22.515625c-.386719.289063-1.199219.90625-2.695312 1.8125-.90625.546875-1.902344 1.097656-2.855469 1.507813-.949219.414062-1.855469.6875-2.582031.6875-.722657 0-1.628907-.304688-2.640625-.757813-1.011719-.457031-2.128906-1.066406-3.277344-1.671875-1.148438-.609375-2.324219-1.21875-3.457031-1.671875-1.132813-.457031-2.222657-.757813-3.1875-.757813-.964844 0-1.875.300782-2.71875.757813-.847657.453125-1.632813 1.0625-2.355469 1.671875-.726562.605469-1.390625 1.214844-1.992188 1.671875-.605468.453125-1.148437.757813-1.632812.757813s-.90625-.273438-1.269531-.6875c-.363281-.410157-.664063-.960938-.90625-1.507813-.105469-.238281-.074219-.25-.15625-.480469v4.046875c0 3.476563 2.796875 6.273438 6.269531 6.273438h19.1875c3.472656 0 6.269531-2.796875 6.269531-6.273438zm0 0" fill="#19c171"/><path d="m8.40625 1.832031c-3.472656 0-6.269531 2.796875-6.269531 6.273438v8.453125c.285156-.347656.511719-.691406 1.367187-1.382813.601563-.492187 1.328125-.984375 2.144532-1.351562.8125-.367188 1.71875-.613281 2.6875-.613281.964843 0 1.878906.203124 2.765624.503906.882813.300781 1.742188.699218 2.59375 1.097656.851563.398438 1.703126.789062 2.574219 1.082031.871094.289063 1.761719.476563 2.699219.457031.464844-.011718.921875-.140624 1.367188-.363281.449218-.21875.886718-.527343 1.3125-.898437.855468-.738282 1.675781-1.714844 2.46875-2.691406.792968-.972657 1.558593-1.949219 2.308593-2.675782.746094-.730468 1.480469-1.214844 2.207031-1.214844 1.449219 0 2.898438.511719 3.984376 1.019532.75.351562.960937.515625 1.246093.703125v-2.125c0-3.476563-2.796875-6.273438-6.269531-6.273438zm0 0" fill="#494949"/></g></svg>