<svg height="36pt" viewBox="0 0 36 36" width="36pt" xmlns="http://www.w3.org/2000/svg"><g fill-rule="evenodd"><path d="m8.40625 2.136719h19.1875c3.460938 0 6.269531 2.808593 6.269531 6.269531v19.1875c0 3.460938-2.808593 6.269531-6.269531 6.269531h-19.1875c-3.460938 0-6.269531-2.808593-6.269531-6.269531v-19.1875c0-3.460938 2.808593-6.269531 6.269531-6.269531zm0 0" fill="#37a0f2"/><g fill="#fff"><path d="m7.875 19.96875 9 3.375v2.25l-9-3.375zm0 0"/><path d="m7.875 15.46875 9 3.375v2.25l-9-3.375zm0 0"/><path d="m7.875 10.96875 9 3.375v2.25l-9-3.375zm0 0"/><path d="m19.125 19.40625 9 3.375v2.25l-9-3.375zm0 0"/><path d="m19.125 14.90625 9 3.375v2.25l-9-3.375zm0 0"/><path d="m19.125 10.40625 9 3.375v2.25l-9-3.375zm0 0"/></g></g></svg>