<svg height="36pt" viewBox="0 0 36 36" width="36pt" xmlns="http://www.w3.org/2000/svg"><path d="m8.40625 2.136719h19.1875c3.460938 0 6.269531 2.808593 6.269531 6.269531v19.1875c0 3.460938-2.808593 6.269531-6.269531 6.269531h-19.1875c-3.460938 0-6.269531-2.808593-6.269531-6.269531v-19.1875c0-3.460938 2.808593-6.269531 6.269531-6.269531zm0 0" fill="#62aeff" fill-rule="evenodd"/><path d="m19.472656 21.835938 6.875 6.878906c1.59375 1.65625 4.042969-.796875 2.386719-2.386719l-6.980469-6.980469c-2.667968.886719-1.542968.886719-2.28125 2.488282zm0 0" fill="#a27fbd"/><path d="m15.710938 6.734375c-4.96875 0-9 4.027344-9 9 0 4.96875 4.03125 9 9 9 4.972656 0 9-4.03125 9-9 0-4.972656-4.027344-9-9-9zm0 0" fill="#fff"/><path d="m11.210938 11.714844v8.035156c0 1.609375 1.125 1.609375 1.125 1.609375s1.125 0 1.125-1.609375v-1.765625h4.5v1.765625c0 1.609375 1.125 1.609375 1.125 1.609375s1.125 0 1.125-1.609375v-8.035156s0-1.605469-1.5-1.605469h-6c-1.5 0-1.5 1.605469-1.5 1.605469zm2.25.644531h4.5v3.375h-4.5zm0 0" fill="#62aeff"/></svg>