<svg height="36pt" viewBox="0 0 36 36" width="36pt" xmlns="http://www.w3.org/2000/svg"><g fill-rule="evenodd"><path d="m8.40625 2.136719h19.1875c3.460938 0 6.269531 2.808593 6.269531 6.269531v19.1875c0 3.460938-2.808593 6.269531-6.269531 6.269531h-19.1875c-3.460938 0-6.269531-2.808593-6.269531-6.269531v-19.1875c0-3.460938 2.808593-6.269531 6.269531-6.269531zm0 0" fill="#ececec"/><path d="m8.40625 2.136719c-3.472656 0-6.269531 2.796875-6.269531 6.269531v18.105469c.199219-.046875.511719-.179688.6875-.210938 2.058593-.390625 3.65625-.578125 5.050781-.5625s2.582031.238281 3.820312.667969c1.152344.398438 1.476563.445312 2.695313.378906 1.046875-.054687 2.195313-.257812 3.316406-.570312 1.121094-.316406 2.210938-.746094 3.136719-1.246094.839844-.453125 1.171875-.828125 1.667969-1.378906-.171875.027344-.339844.050781-.507813.066406-.527344.039062-1.042968.042969-1.546875.011719-.503906-.035157-.996093-.101563-1.472656-.203125-.476563-.101563-.941406-.238282-1.386719-.410156-.445312-.167969-.875-.371094-1.285156-.609376-.292969-.167968-.574219-.351562-.84375-.550781-.382812-.285156-.742188-.597656-1.082031-.945312-.34375-.34375-.660157-.71875-.953125-1.125-.296875-.402344-.566406-.835938-.808594-1.292969-.246094-.460938-.46875-.945312-.660156-1.453125-.195313-.511719-.363282-1.042969-.5-1.597656-.140625-.554688-.257813-1.128907-.34375-1.722657-.085938-.59375-.140625-1.207031-.171875-1.832031-.03125-.628906-.03125-1.269531-.007813-1.925781.027344-.65625.082032-1.320312.160156-1.996094.082032-.679687.191407-1.363281.328126-2.054687.132812-.6875.296874-1.382813.484374-2.078125.160157-.578125.339844-1.15625.535157-1.734375zm0 0" fill="#ececec"/><path d="m12.449219 2.136719c-.195313.578125-.375 1.15625-.535157 1.734375-.1875.695312-.351562 1.390625-.484374 2.078125-.136719.691406-.246094 1.375-.328126 2.054687-.078124.675782-.132812 1.339844-.160156 1.996094-.023437.65625-.023437 1.296875.007813 1.925781.03125.625.085937 1.238281.171875 1.832031.085937.59375.203125 1.167969.34375 1.722657.136718.554687.304687 1.085937.5 1.597656.191406.507813.414062.992187.660156 1.453125.242188.457031.511719.890625.808594 1.292969.292968.40625.609375.78125.953125 1.125.339843.347656.699219.660156 1.082031.945312.269531.199219.550781.382813.84375.550781.410156.238282.839844.441407 1.285156.609376.445313.171874.910156.308593 1.386719.410156.476563.101562.96875.167968 1.472656.203125.503907.03125 1.019531.027343 1.546875-.011719.527344-.035156 1.0625-.105469 1.601563-.214844.542969-.105468 1.09375-.246094 1.644531-.421875.554688-.175781 1.109375-.386719 1.667969-.628906.558593-.238281 1.117187-.515625 1.675781-.820313.558594-.304687 1.113281-.644531 1.667969-1.011718.550781-.367188 1.097656-.761719 1.636719-1.183594.542968-.425781 1.078124-.878906 1.601562-1.355469.121094-.121093.242188-.238281.363281-.359375v-3.214844c-.097656.125-.199219.246094-.296875.367188-.371094.425781-.75.835938-1.140625 1.226562-.386719.390626-.785156.765626-1.1875 1.121094-.40625.351563-.816406.683594-1.230469.996094-.417968.3125-.835937.601562-1.261718.867188-.421875.269531-.847656.511718-1.273438.730468-.425781.222656-.855468.417969-1.277344.585938-.425781.171875-.851562.316406-1.273437.433594-.417969.117187-.832031.210937-1.242187.277343-.414063.066407-.816407.105469-1.214844.117188-.398438.011719-.785156 0-1.164063-.042969-.378906-.039062-.75-.105469-1.109375-.199219-.355468-.089843-.703125-.210937-1.035156-.355469-.234375-.101562-.464844-.21875-.6875-.347656-.3125-.179687-.609375-.386718-.894531-.617187-.28125-.230469-.546875-.484375-.796875-.757813-.25-.277344-.484375-.578125-.699219-.898437-.210937-.324219-.40625-.664063-.582031-1.027344-.175782-.359375-.332032-.742187-.46875-1.140625-.136719-.398438-.253906-.816406-.347656-1.25-.09375-.429688-.167969-.878906-.222657-1.339844-.050781-.460937-.085937-.9375-.097656-1.421875-.007813-.488281.003906-.984375.035156-1.488281s.085938-1.019531.15625-1.539062c.074219-.519532.171875-1.042969.289063-1.574219.113281-.527344.25-1.058594.40625-1.589844.15625-.535156.332031-1.066406.527344-1.597656.195312-.53125.410156-1.0625.640624-1.585938.042969-.085937.082032-.171875.125-.257812zm0 0" fill="#3191cd"/></g><path d="m23.079861 17.96875c-.517361-.013889-1.065972.024306-1.746528.15625-.1875.034722-.652777.152778-.892361.229167-.826389.260416-1.930555.795139-2.458333 1.194444l-.111111.083333c-.25.201389-.482639.423612-.621528.729167l-.048611.100695c-.045139.097222-.052083.100694-.107639.090277-.03125-.006944-.256944-.013889-.5-.013889-.40625.003473-.461806.006945-.680556.052084-.5625.121528-1.09375.354166-1.565972.694444l-.138889.097222-.09375-.072916c-.128472-.097222-.486111-.270834-.652777-.319445-.378473-.107639-.784723-.145833-1.368056-.128472-1.513889.045139-2.763889.347222-3.940972.958333-.649306.333334-1.315972.788195-1.666667 1.135417-.225694.222222-.315972.388889-.350694.628472-.017361.149306-.020834.149306-.086806.173611-.125.045139-.611111.291667-.701389.357639-.079861.059028-.090278.072917-.090278.142361 0 .083334.041667.194445.079862.21875.017361.010417.020833.006945.010416-.020833-.038194-.090278-.052083-.197917-.03125-.236111.03125-.055556.354167-.243056.611111-.347222l.225695-.090278.013889.104167c.006944.055555.03125.142361.052083.190972.027778.0625.03125.086805.013889.09375-.013889.003472-.138889.045139-.28125.09375-.142361.045139-.309028.097222-.368056.114583-.118055.03125-.15625.0625-.163194.131945-.003472.020833-.006945.052083-.010417.065972s.027778.045139.069445.065972c.128472.069445.28125.055556.555555-.048611.128472-.048611.236111-.083333.243056-.076389.006944.006945.034722.065972.059028.128472.118055.309028.347222.697917.534722.920139.190972.222222.486111.423611.760416.510417l.097223.03125-.392361.388889c-.447917.444444-1.135417 1.166666-1.135417 1.197916 0 .027778.090278.208334.152778.298612.069444.100694.194444.225694.322916.326388.055556.045139.107639.079862.114584.079862.006944 0 .315972-.298612.684027-.663195.371528-.364583.868056-.840278 1.100695-1.059028l.420139-.395833h.232639c.204861 0 .618055-.034722.888889-.069444.260416.368055.548611.923611.298611-.038195.003472-.003472.09375-.024305.197916-.045139 1.597223-.326389 2.954861-1.048611 3.701389-1.972222.277778-.34375.364584-.579861.371528-1.003472l.003472-.253472.076389-.027778c.041667-.013889.232639-.083334.423611-.152778.729167-.270833.857639-.309028 1.190972-.371528.434028-.079861 1.111112-.194444 1.118056-.1875 0 0 .027778.052084.055556.107639.142361.284722.368055.534722.59375.659722.260416.145834.708333.284723 1.138888.354167 1.309028.215278 2.993056-.086806 4.413195-.795139.111111-.055555.25-.128472.305555-.159722.083334-.052083.114584-.059028.173612-.048611.15625.027778.993055.225694 1.006944.239583.145833.03125.364583.100695.364583.100695.013889-.013889.059028-.003473.854167.208333.361111.09375.670139.166667.684028.163194.027778-.010416.107639-.201389.145833-.350694.03125-.107639.048611-.368056.03125-.472222l-.010417-.086806-.284722-.090278c-.309028-.097222-1.138889-.333333-1.475694-.420139l-.211806-.052083-.020833-.076389c-.020833-.072916-.017361-.079861.072917-.211805.111111-.166667.197916-.357639.253472-.579861.034722-.145834.041666-.21875.041666-.576389 0-.267361-.006944-.461806-.024305-.552084-.013889-.076389-.020833-.145833-.017361-.149305.006944-.006945.114583-.03125.236111-.048611.315972-.052084.461805-.121528.538194-.267361.034723-.065973.034723-.072917 0-.072917-.017361 0-.03125-.010417-.03125-.027778 0-.013889-.024305-.034722-.055555-.048611-.048611-.020833-.083334-.017361-.246528.024306-.166667.041666-.538194.118055-.590278.118055-.010416 0-.027778-.048611-.034722-.107639-.006944-.0625-.027778-.142361-.052083-.184028l-.038195-.076388.0625-.010417c.204861-.034722.420139-.052083.645834-.045139l.260416.003472.034722.086806c.017362.045139.038195.100694.041667.121528.020833.065972.034722.017361.020833-.072917-.006944-.048611-.03125-.111111-.059027-.145833l-.048611-.055556h-.215278c-.204861 0-.579861.024306-.6875.048611-.045139.006945-.059028-.003472-.114584-.086805-.104166-.163195-.295138-.295139-.552083-.385417-.006944 0-.041667-.006945-.052083-.010417-.006945 0-.010417.003472-.017361.003472-.555556-.083333-1.038195-.149305-1.555556-.163194zm-.149305.045139c.357638 0 .71875.013889.913194.038194.583333.076389.8125.128473 1.010417.236111.069444.034723.111111.0625.090277.055556-.329861-.097222-.684027-.177083-1.072916-.232639-.385417-.059028-1.184028-.083333-1.576389-.048611-.989583.090278-1.913195.354167-2.958333.84375-.569445.295139-1.159723.579861-1.670139 1.059028-.170139.173611-.253473.302083-.3125.482639-.024306.0625-.048611.170139-.055556.236111l-.017361.121528v-.111112c-.003472-.09375-.010417-.111111-.041667-.121527-.052083-.013889-.052083-.020834.024306-.173611.201389-.392362.586805-.770834 1.100694-1.076389.166667-.100695.510417-.284723.565973-.305556.045138-.013889.045138-.013889.010416.013889-.083333.0625.027778.017361.357639-.152778.840278-.423611 1.753472-.701389 2.71875-.826389.190972-.024305.552083-.038194.913195-.038194zm-.211806.059028c.253472-.006945.506944-.003473.663194.010416.277778.024306.708334.079861.694445.090278-.003472.003472-.097222 0-.204861-.010417-1.041667-.104166-2.038195-.038194-2.944445.197917-.340277.086806-.378472.09375-.208333.038195.34375-.114584.878472-.229167 1.326389-.288195.163194-.020833.420139-.034722.673611-.038194zm.53125.100694c.15625.003472.3125.017361.46875.03125.010417-.006944.020833-.010417.03125-.017361.305556.034722.510417.069444.673611.107639.020833.003472.041667.006944.0625.010417l-.017361.003472c.104167.027778.201389.055555.277778.09375.197916.100694.277778.190972.399305.461805.072917.163195.069445.166667.03125.180556-.121527.045139-.722222.180555-1.361111.309028-.809028.163194-1.090278.229166-1.340278.315972-.142361.052083-.329861.135417-.236111.107639.454861-.131945 1.767361-.430556 2.451389-.555556.09375-.017361.256945-.052083.361111-.076389l.1875-.045139.024306.090278.024305.086806-.270833.079861c-1.600694.465278-2.270833.649305-2.715278.739583-.364583.076389-.371527.076389-.371527-.104166 0-.072917.006944-.097223.038194-.111112.055556-.03125.048611-.072916-.024306-.118055-.045138-.027778-.083333-.034722-.128472-.027778-.177083.027778-2.440972.760417-3.923611 1.270833-.246528.083334-.454861.152778-.465278.152778-.013889 0-.024305-.052083-.041666-.204861l.104166-.326389-.079861.027778c.288195-1.118056 2.96875-2.5625 5.840278-2.482639zm.888889.013889c.013889-.006944.03125-.006944.038194 0 .003473.006944-.006944.010417-.027777.010417-.020834 0-.027778-.006945-.010417-.010417zm.701389.163194c.038194 0 .28125.086806.305555.111112.017361.013888.034723.059027.045139.097222.006945.038194.083334.291666.173611.5625.138889.427083.232639.788194.208334.8125-.003473.003472-.024306.010416-.048611.013889-.024306.003472-.059028.010416-.076389.017361-.024306.010416-.03125-.013889-.041667-.173611-.034722-.520834-.239583-1.107639-.46875-1.336806-.055556-.055555-.100694-.104167-.097222-.104167zm.378472.215278c.003472-.003472.010417.003472.020833.020834.013889.020833.017361.038194.010417.045138-.003472.003473-.013889-.006944-.017361-.020833-.010417-.024305-.013889-.041667-.013889-.045139zm.065972.204861c-.003472-.013889.003472-.006944.017361.020834.017361.027777.034723.079861.041667.121527.017361.09375.003472.090278-.027778-.010416-.020833-.072917-.03125-.114584-.03125-.131945zm.697917.215278c.03125 0 .041667.003472.055555.017361.027778.027778.024306.034722-.020833.079861-.03125.027778-.121528.069445-.201389.097223-.079861.024305-.170139.052083-.204861.059027-.055555.010417-.0625.006945-.079861-.065972-.020833-.086805-.048611-.072917.288194-.152778.086806-.020833.135417-.03125.163195-.034722zm-.548611.128472c.045139 0 .052083.013889.079861.135417.017361.072917.045139.222222.0625.326389.034722.222222.027778.288194-.006945.114583-.020833-.09375-.121527-.416666-.170138-.541666-.006945-.024306 0-.034723.034722-.034723zm-.142361.309028c.045139 0 .055555.052083.079861.395833.020833.270834 0 .631945-.048611.822917-.065973.239583-.295139.611111-.295139.611111-.010417.017361-.052084.0625-.090278.097222l-.072917.069445-.336805-.072917c-.934028-.201389-2.083334-.357639-2.934028-.395833-.385417-.020833-.5625-.017361-1.048611.006944l-.163195.010417.444445-.152778c1.013889-.350694 1.197917-.423611 1.25-.482639.024305-.03125.048611-.076389.048611-.100694 0-.024306.003472-.048611.013889-.048611.114583 0 .680555-.128472 1.166667-.267361.871527-.246528 1.868055-.493056 1.986111-.493056zm-7.246528.263889c-.013889.017361-.059028.0625-.142361.145833-.204861.201389-.347222.392361-.465278.631945-.065972.131944-.072917.159722-.079861.354166-.006945.118056 0 .256945.013889.322917.024305.125.201389.663195.267361.809028.024305.052083.038194.097222.034722.100694-.013889.013889-.135417-.28125-.215278-.527777-.138889-.420139-.170139-.680556-.114583-.940973.069444-.322916.288194-.618055.645833-.864583.045139-.034722.065973-.048611.055556-.03125zm1.868055.135417-.145833.048611c.048611-.013889.097222-.03125.145833-.048611zm-3.354166.725694h.15625l.020833.059028c.013889.034722.017361.0625.017361.065972-.003472 0-.125.013889-.270833.024306-.482639.041666-1.0625.197916-1.475695.392361-.100694.045139-.225694.111111-.28125.145833-.104166.0625-.121527.055556-.121527-.048611 0-.048611.107639-.121528.395833-.260417.465278-.232639 1.069444-.378472 1.559028-.378472zm.736111.260417v.118055c0 .15625.038194.326389.142361.638889.145833.444445.319444.743056.5625.986111.15625.149306.420139.333334.465278.319445.013889-.006945.020833-.003472.013889.006944-.013889.020834.208333.118056.402777.180556.506945.152778 1.534723.208333 2.239584.118055.8125-.104166 1.708333-.378472 2.461805-.753472.270834-.135417.423611-.225694.795139-.46875.159722-.100694.291667-.180555.295139-.177083s-.020833.027778-.055555.055555c-1.017362.770834-2.493056 1.305556-3.927084 1.427084-.270833.024305-.809028.020833-1.069444-.003473-.420139-.038194-.885417-.145833-1.225695-.28125-.420139-.173611-.642361-.392361-.857639-.847222-.190972-.399305-.4375-1.215278-.361111-1.194444.010417.003472.041667-.024306.069445-.059028zm-1.430556.017361c.020834 0 .03125.006944.041667.020833.013889.017361.024306.041667.024306.048611 0 .006945-.0625.03125-.138889.055556-.076389.020833-.177084.052083-.225695.065972-.114583.038195-.135416.034722-.135416-.017361s.052083-.076389.309027-.145833c.065973-.017361.104167-.027778.125-.027778zm.892361.013889c.128473.003472.236112.013889.288195.038194.069444.027778.069444.027778.09375.197917.010417.09375.013889.173611.006944.180555-.006944.006945-.295139.111112-.642361.232639l-.628472.222223-.631944.114583c-.34375.065972-.652778.121528-.680556.128472-.045139.010417-.052083 0-.090278-.104167-.020833-.059027-.041666-.125-.041666-.145833 0-.052083.170138-.215278.319444-.309028.375-.232639 1.034722-.451389 1.604167-.534722.128472-.017361.274305-.024305.402777-.020833zm-4.277777.041666c.392361.006945.788194.069445 1.052083.163195.201389.072917.458333.208333.486111.256944.010417.020834.038195.055556.0625.072917.020833.017361.069445.09375.100695.166667.034722.072916.076388.145833.09375.15625.045138.038194.131944.253472.194444.472222.197917.715278.204861 1.267361.010417 1.645833-.159723.3125-.701389.850695-1.170139 1.163195-.975695.649305-2.21875 1.069444-3.5625 1.194444-.503472.048611-1.215278.027778-1.5-.045139-.072917-.017361-.069445-.020833.03125-.010416.059028.006944.177083.017361.267361.03125.246528.027777.965278.024305 1.298611-.010417.840278-.090278 1.631944-.298611 2.364583-.621528.319445-.138889.701389-.347222.777778-.420139.027778-.027778.138889-.111111.243056-.1875.59375-.416666 1.052083-.930555 1.163194-1.298611.013889-.045139.03125-.076389.038195-.072917.034722.020834.065972-.201388.065972-.458333-.003472-.225694-.013889-.322917-.072917-.631944-.100694-.510417-.121528-.572917-.215278-.725695-.100694-.163194-.204861-.260416-.385416-.368055-.444445-.263889-1-.375-1.881945-.388889l-.232639-.003472.184028-.020834.184028-.024305-.125-.006945c-.097222-.003472-.0625-.006944.142361-.020833.125-.010417.256944-.010417.385417-.006945zm-.798611.086806c0 .006944-.128473.027778-.284723.045139-1.590277.190972-2.795139.621528-3.982639 1.420139-.402777.270833-.677083.482639-.833333.642361-.163194.163194-.194444.21875-.236111.40625-.055556.277778.059028.815972.295139 1.368055.045139.100695.079861.194445.079861.204862 0 .006944-.017361.020833-.038194.027777-.048612.010417-.125-.09375-.239584-.336805-.086805-.184028-.194444-.513889-.170139-.524306.0625-.020833.0625-.038194.013889-.145833-.034722-.076389-.055555-.163195-.069444-.305556-.024306-.25 0-.340277.142361-.555555.121528-.1875.28125-.347222.583333-.579861 1.052084-.8125 2.232639-1.333334 3.527778-1.559028.423611-.072917 1.211806-.142361 1.211806-.107639zm.802083.069444c.583333.024306.989583.149306 1.375.402778.149305.097222.21875.177084.3125.361111.104167.208334.104167.211806.006944.225695-.538194.083333-3.041666.59375-4.236111.868055-.34375.079861-.371528.114584-.309028.375.013889.0625.027778.128473.027778.145834 0 .034722-.263889.128472-.711805.253472-.555556.15625-2.260417.579861-2.315973.579861-.03125-.003472-.076388.003472-.100694.013889-.048611.013889-.0625-.006945-.069444-.104167-.003473-.076389-.03125-.0625.920138-.371528.913195-.295138 1.211806-.388888 1.586806-.489583.354167-.09375.368056-.097222.243056-.083333-.204862.020833-.524306.114583-1.222223.34375-1.138889.378472-1.524305.489583-1.559027.454861-.03125-.03125-.045139-.430556-.020834-.538195.052084-.211805.236111-.423611.628472-.725694.923612-.715278 1.850695-1.170139 2.944445-1.447917.572917-.142361 1.118055-.222222 1.854167-.256944.236111-.013889.451388-.013889.645833-.006945zm8.305555.798612c.802084.003472 1.569445.09375 2.538195.270833.253472.045139.465278.083333.475694.083333.048611 0-.041666.055556-.291666.180556-.784723.388889-1.645834.645833-2.520834.746528-.302083.038194-.909722.052083-1.163194.027777-.743056-.0625-1.399306-.274305-1.701389-.545139-.15625-.142361-.375-.447916-.340278-.479166.006945-.006945.118056-.027778.246528-.048611 1.114583-.163195 1.954861-.243056 2.756944-.236111zm-2.177083 1.086805c.003472-.006944.027778 0 .048611.013889.020834.010417.142361.048611.263889.083333.125.038195.211806.065973.190972.065973-.083333 0-.524305-.145834-.503472-.163195zm-4.194444.090278c.013889 0 .017361.069444.010416.215278-.020833.364583-.111111.579861-.392361.913194-.697916.833333-1.909722 1.482639-3.326389 1.784722-.173611.034723-.315972.065973-.322916.065973-.03125-.138889-.076389-.295139-.097223-.444445l-.048611-.121528-.024305-.15625.166666-.145833c.857639-.659722 1.854167-1.225694 3-1.701389.482639-.201389 1.010417-.409722 1.034723-.409722zm4.760416.083333c.010417-.006944.034723-.006944.045139 0 .013889.003472.003472.006945-.024305.006945-.024306 0-.034723-.003473-.020834-.006945zm.114584.017361c.013889-.003472.034722-.003472.048611 0 .013889.006945 0 .010417-.024306.010417-.027778 0-.038194-.003472-.024305-.010417zm.135416.020834c.013889-.006945.03125-.006945.038195 0 .006944.006944-.006945.010416-.027778.010416s-.024306-.006944-.010417-.013889zm-7.885416.184027c.006944 0-.111111.065973-.263889.145834-.822917.430555-1.569445.951389-2.635417 1.84375-.184028.152778-.420139.357639-.527778.454861-.104166.09375-.194444.170139-.201389.170139-.038194-.003472-.326388-.118056-.402777-.163195-.309028-.173611-.586806-.496527-.805556-.934027-.079861-.152778-.177083-.385417-.177083-.413195 0-.038194.972222-.319444 1.979166-.569444.572917-.142361.711806-.180556 1.052084-.305556l.114583-.045139.052083.052084c.024306.024305.069445.055555.09375.059027.052084.013889.34375-.034722 1.163195-.190972.298611-.059028.548611-.104167.559028-.104167zm-5.336806.934028c.006945.006945.017361.041667.020833.079861l.003473.065973-.163195.041666c-.15625.038195-.288194.052084-.340278.03125-.03125-.013889-.03125-.076389-.003472-.09375.045139-.027778.46875-.138889.482639-.125zm3.819445 1.295139c.003472.024306.010416.086806.024305.138889.017361.083333.027778.097222.065972.097222.045139 0 .052084.013889.072917.208334.003472.020833-.038194.034722-.170139.052083-.09375.010417-.3125.027778-.479167.034722l-.309027.010417.090277-.083334c.052084-.048611.225695-.197916.385417-.329861zm0 0" fill="#666" stroke="#666" stroke-width=".3" transform="scale(1.125)"/></svg>