<svg height="36pt" viewBox="0 0 36 36" width="36pt" xmlns="http://www.w3.org/2000/svg"><path d="m8.40625 2.136719h19.1875c3.460938 0 6.269531 2.808593 6.269531 6.269531v19.1875c0 3.460938-2.808593 6.269531-6.269531 6.269531h-19.1875c-3.460938 0-6.269531-2.808593-6.269531-6.269531v-19.1875c0-3.460938 2.808593-6.269531 6.269531-6.269531zm0 0" fill="#394e6f" fill-rule="evenodd"/><g fill="#fff" stroke="#394e6f" stroke-linecap="round" stroke-linejoin="round" stroke-width=".5" transform="matrix(1.125 0 0 1.125 49.973684 4.381579)"><path d="m-22.671052 10.605263c0 1.795139-1.454861 3.25-3.25 3.25s-3.25-1.454861-3.25-3.25 1.454861-3.25 3.25-3.25 3.25 1.454861 3.25 3.25zm0 0"/><path d="m-16.671052 17.105263c0 .965278-.784722 1.75-1.75 1.75s-1.75-.784722-1.75-1.75.784722-1.75 1.75-1.75 1.75.784722 1.75 1.75zm0 0"/><path d="m-18.671052 15.105263c0 2.069444-1.680556 3.75-3.75 3.75s-3.75-1.680556-3.75-3.75c0-2.069445 1.680556-3.75 3.75-3.75s3.75 1.680555 3.75 3.75zm0 0"/><path d="m-33.671052 15.605263c0 1.795139-1.454861 3.25-3.25 3.25s-3.25-1.454861-3.25-3.25 1.454861-3.25 3.25-3.25 3.25 1.454861 3.25 3.25zm0 0"/><path d="m-32.171052 9.105263c0 .965278-.784722 1.75-1.75 1.75s-1.75-.784722-1.75-1.75.784722-1.75 1.75-1.75 1.75.784722 1.75 1.75zm0 0"/><path d="m-29.671052 13.105263c0 2.069444-1.680556 3.75-3.75 3.75s-3.75-1.680556-3.75-3.75c0-2.069445 1.680556-3.75 3.75-3.75s3.75 1.680555 3.75 3.75zm0 0"/><path d="m-31.671052 17.105263c0 .965278-.784722 1.75-1.75 1.75s-1.75-.784722-1.75-1.75.784722-1.75 1.75-1.75 1.75.784722 1.75 1.75zm0 0"/><path d="m-26.671052 8.605263c0 1.795139-1.454861 3.25-3.25 3.25s-3.25-1.454861-3.25-3.25 1.454861-3.25 3.25-3.25 3.25 1.454861 3.25 3.25zm0 0"/><path d="m-23.671052 14.105263c0 2.625-2.125 4.75-4.75 4.75s-4.75-2.125-4.75-4.75 2.125-4.75 4.75-4.75 4.75 2.125 4.75 4.75zm0 0"/></g></svg>