<svg height="36pt" viewBox="0 0 36 36" width="36pt" xmlns="http://www.w3.org/2000/svg"><path d="m8.40625 2.136719h19.1875c3.460938 0 6.269531 2.808593 6.269531 6.269531v19.1875c0 3.460938-2.808593 6.269531-6.269531 6.269531h-19.1875c-3.460938 0-6.269531-2.808593-6.269531-6.269531v-19.1875c0-3.460938 2.808593-6.269531 6.269531-6.269531zm0 0" fill="#4ab367" fill-rule="evenodd"/><path d="m9.1875 11.8125h3c .414062 0 .75.304688.75.683594v11.003906c0 .378906-.335938.6875-.75.6875h-3c-.414062 0-.75-.308594-.75-.6875v-11.003906c0-.378906.335938-.683594.75-.683594" fill="#f9f9f9"/><path d="m14.769531 11.8125c-.390625 0-.707031.304688-.707031.683594v11c0 .378906.316406.6875.707031.6875 2.132813 0 4.261719.003906 6.398438.003906 3.53125 0 6.394531-2.769531 6.394531-6.1875s-2.863281-6.1875-6.394531-6.1875zm0 0" fill="#f9f9f9"/></svg>