<svg height="36pt" viewBox="0 0 36 36" width="36pt" xmlns="http://www.w3.org/2000/svg" xmlns:xlink="http://www.w3.org/1999/xlink"><clipPath id="a"><path d="m0 0h36v36h-36z"/></clipPath><path d="m33.863281 24.589844c-1.171875-.382813-2.148437-.746094-2.527343-.773438-.777344-.0625-1.792969.183594-2.71875.453125-.925782.269531-1.753907.5625-2.148438.59375-.394531.027344-1.765625 0-2.621094-.078125-.855468-.078125-1.59375-.179687-1.914062-.207031-.316406-.03125-1.214844-.136719-1.738282-.210937-.519531-.070313-.976562-.136719-1.363281-.171876-.390625-.035156-2.109375-.164062-3.359375-.238281-1.25-.078125-2.421875-.140625-2.890625-.140625-.46875-.007812-1.976562.042969-2.886719.09375-.910156.054688-1.691406.109375-2.125.097656-.429687-.015624-1.816406-.253906-2.746093-.429687-.925781-.171875-1.832031-.300781-2.597657-.144531-.019531.003906-.066406.046875-.089843.050781v2.980469h31.726562zm0 0"/><path d="m8.410156 2.210938c-.871094 0-1.695312.175781-2.445312.492187-.753906.316406-1.429688.773437-1.996094 1.339844-.566406.566406-1.023438 1.242187-1.339844 1.992187-.316406.753906-.492187 1.578125-.492187 2.449219v15c .023437-.003906.070312-.046875.089843-.050781.765626-.15625 1.671876-.027344 2.597657.144531.929687.175781 2.316406.414063 2.746093.429687.433594.011719 1.214844-.042968 2.125-.097656.910157-.050781 2.417969-.101562 2.886719-.09375.46875 0 1.640625.0625 2.890625.140625 1.25.074219 2.96875.203125 3.359375.238281.386719.035157.84375.101563 1.363281.171876.523438.074218 1.421876.179687 1.738282.210937.320312.027344 1.058594.128906 1.914062.207031.855469.078125 2.226563.105469 2.621094.078125.394531-.03125 1.222656-.324219 2.148438-.59375.925781-.269531 1.941406-.515625 2.71875-.453125.378906.027344 1.355468.390625 2.527343.773438v-16.105469c0-.871094-.171875-1.695313-.488281-2.449219-.316406-.75-.777344-1.425781-1.34375-1.992187-.566406-.566407-1.242188-1.023438-1.992188-1.339844s-1.578124-.492187-2.445312-.492187zm0 0" fill="#8c93dd"/><g clip-path="url(#a)"><path d="m24.773438 8.949219c2.472656 0 4.472656 2 4.472656 4.472656 0 2.46875-2 4.472656-4.472656 4.472656-2.46875 0-4.472657-2.003906-4.472657-4.472656 0-2.472656 2.003907-4.472656 4.472657-4.472656zm0 0" fill="#fffca3" fill-rule="evenodd"/></g><path d="m2.136719 26.464844v1.050781c0 .867187.175781 1.695313.492187 2.445313s.773438 1.429687 1.339844 1.996093c.566406.566407 1.242188 1.023438 1.996094 1.339844.75.316406 1.574218.492187 2.445312.492187h19.183594c.867188 0 1.695312-.175781 2.445312-.492187s1.425782-.773437 1.992188-1.339844c.566406-.566406 1.027344-1.246093 1.34375-1.996093s.488281-1.578126.488281-2.445313v-1.050781zm0 0" fill="#5184b0"/></svg>