<svg height="36pt" viewBox="0 0 36 36" width="36pt" xmlns="http://www.w3.org/2000/svg"><path d="m8.40625 2.136719h19.1875c3.460938 0 6.269531 2.808593 6.269531 6.269531v19.1875c0 3.460938-2.808593 6.269531-6.269531 6.269531h-19.1875c-3.460938 0-6.269531-2.808593-6.269531-6.269531v-19.1875c0-3.460938 2.808593-6.269531 6.269531-6.269531zm0 0" fill="#c12d25" fill-rule="evenodd"/><path d="m31.617188 18c0-7.519531-6.097657-13.617188-13.617188-13.617188s-13.617188 6.097657-13.617188 13.617188 6.097657 13.617188 13.617188 13.617188 13.617188-6.097657 13.617188-13.617188zm0 0" fill="#c12d25"/><path d="m18 4.382812c-1.003906 0-1.976562.113282-2.917969.316407v6.257812l-4.421875-4.425781c-1.660156 1.058594-3.070312 2.46875-4.128906 4.128906l4.425781 4.421875h-6.257812c-.203125.941407-.316407 1.914063-.316407 2.917969s.113282 1.976562.316407 2.917969h6.257812l-4.425781 4.421875c1.058594 1.660156 2.46875 3.070312 4.128906 4.128906l4.421875-4.425781v6.257812c.941407.203125 1.914063.316407 2.917969.316407s1.976562-.113282 2.917969-.316407v-6.257812l4.421875 4.425781c1.660156-1.058594 3.070312-2.46875 4.128906-4.128906l-4.425781-4.421875h6.257812c.203125-.941407.316407-1.914063.316407-2.917969s-.113282-1.976562-.316407-2.917969h-6.257812l4.425781-4.421875c-1.058594-1.660156-2.46875-3.070312-4.128906-4.128906l-4.421875 4.425781v-6.257812c-.941407-.203125-1.914063-.316407-2.917969-.316407zm0 0" fill="#fff"/><path d="m29.671875 18c0-6.445312-5.226563-11.671875-11.671875-11.671875s-11.671875 5.226563-11.671875 11.671875 5.226563 11.671875 11.671875 11.671875 11.671875-5.226563 11.671875-11.671875zm0 0" fill="#ffcb05"/><path d="m27.726562 18c0-5.371094-4.355468-9.726562-9.726562-9.726562s-9.726562 4.355468-9.726562 9.726562 4.355468 9.726562 9.726562 9.726562 9.726562-4.355468 9.726562-9.726562zm0 0" fill="#c12d25"/><g fill="#fffcf7"><path d="m13.136719 13.136719h1.945312v9.726562h-1.945312zm0 0"/><path d="m17.027344 13.136719v1.945312h-5.835938v-1.945312zm0 0"/><path d="m18 13.136719h1.945312v9.726562h-1.945312zm0 0"/><path d="m23.835938 17.027344v1.945312h-5.835938v-1.945312zm0 0"/><path d="m21.890625 13.136719h1.945313v9.726562h-1.945313zm0 0"/></g></svg>