<svg height="36pt" viewBox="0 0 36 36" width="36pt" xmlns="http://www.w3.org/2000/svg"><g fill-rule="evenodd"><path d="m24.75 24.75v8.4375c0 .265625-.171875.453125-.277344.675781h3.121094c3.472656 0 6.269531-2.796875 6.269531-6.269531v-3.121094c-.222656.105469-.410156.277344-.675781.277344zm0 0" fill="#4f4f4f"/><path d="m11.25 11.25h-8.4375c-.265625 0-.453125.171875-.675781.277344v16.066406c0 3.472656 2.796875 6.269531 6.269531 6.269531h16.066406c.105469-.222656.277344-.410156.277344-.675781v-8.4375h-11.8125c-.46875 0-.890625-.1875-1.195312-.492188-.304688-.304687-.492188-.726562-.492188-1.195312zm0 0" fill="#2297fd"/><path d="m8.40625 2.136719c-3.472656 0-6.269531 2.796875-6.269531 6.269531v3.121094c.222656-.105469.410156-.277344.675781-.277344h8.4375v-8.4375c0-.265625.171875-.453125.277344-.675781zm0 0" fill="#4f4f4f"/></g><path d="m14.976562 27.914062h-5.195312l-.816406 2.460938h-3.339844l4.769531-13.5h3.960938l4.769531 13.5h-3.339844zm-4.367187-2.503906h3.53125l-1.761719-5.371094zm0 0" fill="#fff"/><path d="m11.527344 2.136719c-.105469.222656-.277344.410156-.277344.675781v20.25c0 .46875.1875.890625.492188 1.195312.304687.304688.726562.492188 1.195312.492188h20.25c.265625 0 .453125-.171875.675781-.277344v-16.066406c0-3.472656-2.796875-6.269531-6.269531-6.269531zm0 0" fill="#f3af3f" fill-rule="evenodd"/><path d="m23.472656 11.976562c.558594 0 .976563-.121093 1.265625-.363281.285157-.238281.429688-.59375.429688-1.066406 0-.464844-.144531-.816406-.429688-1.058594-.289062-.246093-.707031-.367187-1.265625-.367187h-1.949218v2.855468zm.121094 5.90625c.707031 0 1.238281-.148437 1.59375-.445312.359375-.292969.539062-.742188.539062-1.335938 0-.585937-.175781-1.023437-.53125-1.3125-.355468-.296874-.886718-.441406-1.601562-.441406h-2.070312v3.535156zm3.277344-4.855468c.757812.214844 1.339844.617187 1.757812 1.199218.414063.585938.621094 1.304688.621094 2.152344 0 1.304688-.445312 2.273438-1.335938 2.914063-.890624.636719-2.246093.957031-4.066406.957031h-5.847656v-13.5h5.292969c1.894531 0 3.269531.285156 4.117187.851562.855469.566407 1.28125 1.472657 1.28125 2.71875 0 .660157-.15625 1.21875-.464844 1.683594-.3125.457032-.765624.800782-1.355468 1.023438zm0 0" fill="#fff"/></svg>