<svg height="36pt" viewBox="0 0 36 36" width="36pt" xmlns="http://www.w3.org/2000/svg" xmlns:xlink="http://www.w3.org/1999/xlink"><filter id="a" height="100%" width="100%" x="0%" y="0%"><feColorMatrix in="SourceGraphic" type="matrix" values="0 0 0 0 1 0 0 0 0 1 0 0 0 0 1 0 0 0 1 0"/></filter><mask id="b"><g filter="url(#a)"><path d="m0 0h36v36h-36z" fill-opacity=".6"/></g></mask><clipPath id="c"><path d="m0 0h36v36h-36z"/></clipPath><mask id="d"><g filter="url(#a)"><path d="m0 0h36v36h-36z" fill-opacity=".6"/></g></mask><clipPath id="e"><path d="m0 0h36v36h-36z"/></clipPath><mask id="f"><g filter="url(#a)"><path d="m0 0h36v36h-36z" fill-opacity=".6"/></g></mask><clipPath id="g"><path d="m0 0h36v36h-36z"/></clipPath><mask id="h"><g filter="url(#a)"><path d="m0 0h36v36h-36z" fill-opacity=".6"/></g></mask><clipPath id="i"><path d="m0 0h36v36h-36z"/></clipPath><mask id="j"><g filter="url(#a)"><path d="m0 0h36v36h-36z" fill-opacity=".6"/></g></mask><clipPath id="k"><path d="m0 0h36v36h-36z"/></clipPath><path d="m18 33.863281h9.59375c3.472656 0 6.269531-2.796875 6.269531-6.273437v-19.183594c0-3.472656-2.796875-6.269531-6.269531-6.269531h-9.59375zm0 0" fill="#ccc" fill-rule="evenodd"/><path d="m18 33.863281v-31.726562h-9.589844c-3.476562 0-6.273437 2.796875-6.273437 6.269531v19.183594c0 3.476562 2.796875 6.273437 6.273437 6.273437zm0 0" fill="#aeaeae" fill-rule="evenodd"/><g clip-path="url(#c)" mask="url(#b)"><path d="m4.855469 7.933594h6.75v1.125h-6.75zm0 0"/></g><g clip-path="url(#e)" mask="url(#d)"><path d="m4.855469 11.308594h10.125v1.125h-10.125zm0 0"/></g><g clip-path="url(#g)" mask="url(#f)"><path d="m4.855469 14.683594h11.25v1.125h-11.25zm0 0"/></g><g clip-path="url(#i)" mask="url(#h)"><path d="m4.855469 18.058594h7.875v1.125h-7.875zm0 0"/></g><g clip-path="url(#k)" mask="url(#j)"><path d="m4.855469 21.433594h10.125v1.125h-10.125zm0 0"/></g><path d="m19.894531 7.875v20.25h3.375v-9l3.375 9h4.5v-3.375h-2.25l-2.25-5.625h4.5v-11.25zm3.375 3.375h4.5v4.5h-4.5zm0 0" fill="#c2352a"/></svg>