<svg height="36pt" viewBox="0 0 36 36" width="36pt" xmlns="http://www.w3.org/2000/svg"><path d="m8.40625 2.136719h19.1875c3.460938 0 6.269531 2.808593 6.269531 6.269531v19.1875c0 3.460938-2.808593 6.269531-6.269531 6.269531h-19.1875c-3.460938 0-6.269531-2.808593-6.269531-6.269531v-19.1875c0-3.460938 2.808593-6.269531 6.269531-6.269531zm0 0" fill="#ff4848" fill-rule="evenodd"/><path d="m10.890625 2.125c.066406.234375.171875.640625.171875.640625l.195312.585937-.007812.003907.011719.039062c.050781.152344.089843.3125.121093.472657.035157.15625.058594.324218.074219.484374.011719.164063.019531.324219.015625.484376 0 .164062-.011718.324218-.03125.480468-.019531.160156-.046875.316406-.082031.472656-.039063.152344-.082031.308594-.132813.453126-.054687.148437-.113281.289062-.179687.425781-.070313.136719-.148437.265625-.234375.390625l.015625-.003906c-.089844.125-.171875.261718-.246094.394531-.078125.136719-.144531.277343-.203125.421875-.058594.140625-.113281.285156-.15625.4375-.042968.148437-.078125.304687-.101562.457031-.027344.15625-.046875.316406-.054688.476563-.007812.15625-.007812.3125.003906.472656.011719.164062.035157.324218.066407.488281.03125.160156.066406.316406.117187.476563.042969.132812.09375.261718.148438.386718.054687.125.113281.246094.179687.363282.128907.234374.277344.449218.449219.644531.167969.199219.359375.378906.558594.539062.203125.15625.414062.296875.640625.410157.226562.117187.46875.210937.714843.28125.242188.074218.496094.121093.75.144531.257813.023437.515626.019531.777344-.007813.128906-.015625.261719-.039062.394532-.066406.128906-.03125.261718-.070312.394531-.113281.128906-.042969.257812-.085938.378906-.140625.125-.054688.238281-.121094.355469-.1875.226562-.132813.441406-.285156.636718-.457032.195313-.171874.371094-.359374.527344-.566406.15625-.203125.292969-.421875.40625-.652344.113282-.230468.207032-.46875.277344-.71875s.121094-.511718.144531-.769531c.019531-.261719.015625-.523437-.011719-.789062-.015624-.132813-.035156-.269531-.066406-.402344-.027344-.132813-.0625-.269531-.105468-.402344-.054688-.160156-.117188-.3125-.183594-.460937-.066406-.144532-.144532-.289063-.226563-.421875-.085937-.136719-.175781-.269531-.273437-.394531-.097656-.121094-.203125-.238282-.316406-.347657-.109376-.109375-.226563-.210937-.347657-.308593-.121093-.09375-.253906-.183594-.382812-.261719-.132813-.082031-.269531-.152344-.410157-.21875-.136718-.0625-.285156-.117188-.429687-.167969l.023437-.007812c-.140624-.050782-.277343-.105469-.414062-.175782-.136719-.066406-.269531-.148437-.394531-.234375-.128907-.089843-.253907-.183593-.375-.289062-.117188-.101563-.234375-.210938-.34375-.328125-.109375-.117188-.210938-.238282-.304688-.367188-.097656-.128906-.1875-.265625-.269531-.40625s-.160156-.285156-.226562-.429687c-.054688-.113281-.09375-.230469-.136719-.347657l.007812-.003906-.25-.75s-.03125-.105468-.035156-.128906zm11.292969 7.941406c-.15625-.007812-.316406-.003906-.476563.007813-.164062.011719-.320312.035156-.480469.066406-.164062.035156-.320312.074219-.480468.125-.132813.042969-.261719.09375-.386719.152344-.121094.054687-.242187.113281-.359375.179687-.230469.132813-.445312.285156-.640625.457032-.195313.171874-.371094.359374-.527344.558593-.160156.203125-.300781.421875-.414062.648438-.113281.226562-.203125.46875-.273438.710937-.070312.246094-.113281.503906-.132812.757813-.019531.257812-.011719.515625.019531.777343.015625.132813.035156.261719.066406.394532.03125.128906.066406.261718.113282.390625.042968.128906.09375.257812.148437.378906s.121094.242187.1875.355469c.132813.226562.289063.4375.464844.628906.171875.195312.363281.371094.570312.523438.207031.15625.425781.289062.65625.402343.230469.117188.46875.203125.71875.273438.25.066406.507813.113281.769531.132812.257813.019531.527344.015625.792969-.015625.132813-.019531.261719-.039062.394531-.070312.132813-.027344.265626-.070313.398438-.113282.160156-.050781.3125-.113281.460938-.183593.148437-.070313.289062-.144531.421874-.230469.136719-.085938.265626-.175781.386719-.277344.121094-.097656.238281-.203125.347657-.316406.109374-.113281.210937-.234375.304687-.355469.09375-.125.175781-.25.253906-.382812.082031-.132813.152344-.269531.21875-.410157.0625-.140624.113281-.285156.160157-.433593l.011718.023437c.046875-.140625.105469-.277344.171875-.414062.066407-.136719.148438-.273438.234375-.402344.082032-.128906.179688-.253906.28125-.371094.101563-.121094.210938-.238281.328125-.347656.113281-.109375.234375-.214844.359375-.3125.128906-.097656.265625-.1875.40625-.269531.136719-.085938.28125-.160157.429688-.230469.109375-.050781.222656-.097656.339844-.140625l.003906.007813c.679687-.136719 1.3125-.140626 2.039062-.140626v-1.582031c-.734375.003907-1.496094.011719-2.398437.179688l-.003907-.003907-.035156.011719c-.15625.050781-.316406.09375-.476562.128907-.160156.035156-.320313.054687-.480469.074218-.160156.015625-.324219.023438-.484375.023438s-.324219-.015625-.484375-.03125c-.15625-.019532-.3125-.039063-.46875-.074219-.152344-.035156-.308594-.082031-.457031-.132813-.144532-.050781-.285156-.105468-.425782-.175781-.136718-.066406-.265624-.144531-.394531-.230469l.007813.019532c-.125-.089844-.261719-.171875-.398438-.246094-.136718-.074219-.273437-.136719-.417968-.195312-.144532-.058594-.292969-.113282-.441407-.15625-.152343-.042969-.304687-.074219-.457031-.097657-.15625-.023437-.3125-.042969-.472656-.046875zm-11.707032 4.535156c-.132812.003907-.265624.007813-.398437.023438-.132813.019531-.265625.042969-.398437.074219-.132813.027343-.265626.0625-.398438.109375-.15625.050781-.308594.113281-.457031.183594-.148438.066406-.289063.148437-.425781.234374-.136719.082032-.261719.171876-.386719.273438-.121094.097656-.238281.207031-.347657.320312-.105468.113282-.207031.226563-.300781.351563-.09375.121094-.179687.25-.261719.382813-.078124.132812-.144531.269531-.207031.410156-.066406.140625-.125.285156-.171875.429687l-.003906-.019531c-.050781.140625-.109375.277344-.175781.414062-.066407.136719-.144531.273438-.226563.402344-.203125.25-.480468.382813-.789062.460938v2.515625h.476562c.164063.003906.320313.011719.480469.027343.160156.019532.316406.042969.46875.078126.15625.035156.3125.078124.457031.128906.148438.050781.289063.113281.425782.179687.136718.066407.269531.140625.394531.222657l-.007813-.015626c.128906.089844.261719.171876.398438.246094.136718.074219.277344.140625.421875.195313.140625.058593.289062.113281.441406.15625.148437.039062.300781.070312.457031.09375.152344.023437.316406.046875.472656.054687.160157.003906.316407 0 .476563-.011718.160156-.011719.320313-.03125.480469-.066407.160156-.03125.320312-.070312.476562-.125.132813-.042969.265625-.09375.390625-.148437.121094-.058594.242188-.117188.355469-.183594.234375-.132812.449219-.285156.644531-.457031.195313-.171875.371094-.359375.53125-.5625.15625-.203125.292969-.417969.40625-.644531.117188-.230469.203125-.46875.273438-.714844.070312-.246094.117187-.496094.136719-.753906.019531-.257813.015624-.515626-.015626-.777344-.019531-.132813-.039062-.265625-.070312-.394532-.027344-.132812-.070312-.261718-.113281-.394531-.046875-.128906-.09375-.253906-.148438-.375-.058593-.121093-.125-.238281-.191406-.351562-.136719-.230469-.289063-.441407-.460937-.632813-.175782-.195312-.367188-.371094-.570313-.523437-.207031-.15625-.425781-.289063-.65625-.402344s-.472656-.203125-.722656-.269531c-.25-.070313-.507813-.113282-.769531-.132813-.128907-.011719-.257813-.015625-.390626-.011719zm8.042969 3.429688c-.132812.003906-.261719.011719-.394531.027344-.128906.015625-.261719.035156-.394531.0625-.128907.03125-.261719.066406-.390625.113281-.128906.042969-.257813.089844-.382813.144531-.121093.054688-.234375.117188-.351562.183594-.226563.132812-.441407.285156-.636719.457031s-.371094.363281-.527344.566407c-.15625.203124-.292968.421874-.410156.652343-.113281.230469-.207031.472657-.277344.722657-.070312.25-.121094.503906-.140625.765624-.023437.261719-.019531.527344.007813.792969.015625.132813.039062.265625.066406.398438.03125.132812.066406.269531.109375.402343.050781.160157.113281.3125.179687.460938.066407.148438.144532.292969.226563.425781.085937.136719.175781.265625.273437.386719.097657.125.203126.246094.316407.355469.109375.109375.230469.210937.351562.304687.121094.09375.25.179688.378907.261719.132812.078125.269531.152344.410156.21875.140625.0625.285156.121094.429687.171875l-.023437.003906c.140625.046875.277344.109375.414062.179688.136719.066406.269532.144531.398438.230468.125.089844.253906.1875.371094.289063.121093.101563.234374.214844.34375.328125.109374.117188.214843.242188.3125.371094.09375.128906.183593.261718.265624.402344.082032.140624.15625.28125.226563.429687.050781.113281.089844.230469.132813.347656l-.007813.003907.257813.753906s.691406 2.097656.765624 4.628906h1.570313c-.074219-2.828125-.855469-5.144531-.855469-5.144531l-.195312-.582031.007812-.003907-.011718-.039062c-.050782-.15625-.089844-.316407-.121094-.476563s-.058594-.316406-.074219-.480468c-.011719-.160157-.015625-.324219-.011719-.484376 0-.164062.011719-.324218.03125-.484374.019532-.160157.046875-.316407.082032-.472657.035156-.152343.082031-.308593.132812-.453125.054688-.148437.109375-.289062.179688-.425781.066406-.136719.148437-.265625.234374-.390625l-.019531.007812c.089844-.125.171875-.261718.246094-.398437.078125-.136719.144531-.273437.203125-.417969.058594-.144531.113281-.292968.15625-.441406.046875-.148438.078125-.300781.101562-.457031.027344-.15625.042969-.3125.050782-.472657.007812-.15625.011718-.316406 0-.476562-.007813-.160156-.035156-.324219-.0625-.484375-.03125-.160156-.070313-.320313-.121094-.480469-.042969-.132812-.089844-.261718-.144531-.382812-.054688-.125-.117188-.25-.183594-.363282-.128906-.234374-.277344-.449218-.449219-.648437-.167968-.195313-.355468-.375-.558594-.535156-.199218-.160157-.414062-.296875-.636718-.414063-.226563-.117187-.46875-.214844-.710938-.285156-.246094-.070312-.496094-.117188-.753906-.140625-.128906-.011719-.257812-.015625-.386719-.015625zm0 0" fill="#fff"/></svg>