<svg height="36pt" viewBox="0 0 36 36" width="36pt" xmlns="http://www.w3.org/2000/svg"><path d="m8.40625 2.136719h19.1875c3.460938 0 6.269531 2.808593 6.269531 6.269531v19.1875c0 3.460938-2.808593 6.269531-6.269531 6.269531h-19.1875c-3.460938 0-6.269531-2.808593-6.269531-6.269531v-19.1875c0-3.460938 2.808593-6.269531 6.269531-6.269531zm0 0" fill="#f4b400" fill-rule="evenodd"/><path d="m18 7.875c-4.28125.011719-8.09375 2.714844-9.519531 6.75h-2.855469l4.5 6.75 4.5-6.75h-2.457031c1.203125-2.085938 3.425781-3.371094 5.832031-3.375 2.867188.003906 5.417969 1.816406 6.363281 4.519531l1.511719-2.269531 2.164062 3.242188c-.632812-5.0625-4.9375-8.863282-10.039062-8.867188zm7.875 6.75-4.5 6.75h2.457031c-1.203125 2.085938-3.425781 3.371094-5.832031 3.375-2.867188-.003906-5.417969-1.816406-6.363281-4.519531l-1.511719 2.269531-2.164062-3.242188c.636718 5.0625 4.9375 8.863282 10.039062 8.867188 4.28125-.011719 8.09375-2.714844 9.519531-6.75h2.855469zm0 0" fill="#fff"/></svg>