<svg height="36pt" viewBox="0 0 36 36" width="36pt" xmlns="http://www.w3.org/2000/svg"><path d="m8.40625 2.136719h19.1875c3.460938 0 6.269531 2.808593 6.269531 6.269531v19.1875c0 3.460938-2.808593 6.269531-6.269531 6.269531h-19.1875c-3.460938 0-6.269531-2.808593-6.269531-6.269531v-19.1875c0-3.460938 2.808593-6.269531 6.269531-6.269531zm0 0" fill="#661e1a" fill-rule="evenodd"/><path d="m17.664062 7.3125c-2.378906 0-4.179687 1.089844-5.039062 3.050781-.285156.652344-.339844.890625-.378906 1.644531-.082032 1.542969.394531 2.789063 1.425781 3.75.753906.699219 1.039063.863282 3.585937 2.054688 3.152344 1.46875 3.6875 1.78125 4.417969 2.570312.992188 1.070313 1.5 2.539063 1.253907 3.617188-.316407 1.386719-1.195313 2.78125-2.253907 3.332031-1.589843.828125-3.707031.804688-5.167969-.058593-.597656-.351563-1.640624-1.046876-2-1.703126-.160156-.292968-.378906-.90625-.484374-1.363281-.441407-1.90625.519531-3.054687 2.035156-3.40625 1.003906-.230469 2.40625.152344 3.003906 1.023438.328125.472656.328125 1.136719-.066406 1.722656-.039063-.902344-.78125-1.609375-1.683594-1.609375-.933594 0-1.6875.753906-1.6875 1.6875s.753906 1.6875 1.6875 1.6875c2.203125-.042969 2.75-2.132812 2.773438-3.527344 0-2.046875-4.582032-3.015625-6.636719-.671875-1.171875 1.351563-1.605469 2.882813-.75 5.105469.152343.394531.253906.363281.285156.804688.03125.433593.085937.6875.125.757812.054687.097656.261719.101562.96875.015625.839844-.097656.957031.066406 1.773437.296875 1.382813.65625 2.949219.6875 4.445313.480469 2.152344-.324219 4.082031-1.597657 4.855469-3.203125.472656-.984375.605468-1.636719.597656-2.914063-.011719-1.988281-.492188-3.378906-1.5625-4.542969-.730469-.792968-1.449219-1.214843-3.769531-2.222656-2.800781-1.214844-3.703125-1.738281-4.566407-2.652344-.671874-.707031-.824218-2.097656-.363281-3.15625.242188-.566406.964844-1.253906 1.585938-1.511718.703125-.296875 1.863281-.367188 2.597656-.160156 1.234375.347656 2.414063 1.285156 2.882813 2.289062.285156.605469.375 2.0625.199218 2.976562-.0625.324219-.089844.617188-.058594.648438.101563.117188.671876-.070312 1.039063-.339844.417969-.308594.738281-.777344.898437-1.320312.152344-.507813-.089843-1.625-.257812-2.429688-.078125-.375-.136719-.941406-.125-1.257812.019531-.59375-.085938-.796875-.371094-.710938-.074218.023438-.4375.09375-.808594.160156-.675781.121094-.453124.039063-1.261718-.3125-1.003906-.4375-1.871094-.601562-3.144532-.601562zm0 0" fill="#fff"/></svg>