<svg height="36pt" viewBox="0 0 36 36" width="36pt" xmlns="http://www.w3.org/2000/svg"><path d="m8.40625 2.136719h19.1875c3.460938 0 6.269531 2.808593 6.269531 6.269531v19.1875c0 3.460938-2.808593 6.269531-6.269531 6.269531h-19.1875c-3.460938 0-6.269531-2.808593-6.269531-6.269531v-19.1875c0-3.460938 2.808593-6.269531 6.269531-6.269531zm0 0" fill="#fecd38" fill-rule="evenodd"/><path d="m8.273438 5.609375c.886718 1.222656 1.339843 2.523437 0 4.425781-.140626 1.660156.441406 2.625 2.429687 2.589844.46875-.03125 1.214844-.125 1.609375-.496094.621094-.761718.378906-1.160156.125-1.210937-.265625-.078125-.910156.320312-.292969.613281.128907.535156-1.355469.480469-1.628906.03125-1.035156-1.847656 1.710937-3.175781 4.839844-1.972656.640625 5.046875 1.367187 11.472656.582031 17.476562-.515625 1.191406-1.066406 1.90625-2.351562 2.441406v.882813c1.769531-.882813 6.195312-.882813 8.851562-.882813v-.886718c-1.148438-.207032-2.054688-1.269532-2.191406-2.339844-.445313-5.949219-.769532-10.308594.417968-16.246094h4.398438c.550781.011719.773438.464844.914062 1.769532h1.769532c-.617188-1.476563-.886719-2.65625-.886719-4.425782-6.609375 1.023438-11.4375.113282-18.585937-1.769531zm0 0" fill="#fff"/></svg>