<svg height="36pt" viewBox="0 0 36 36" width="36pt" xmlns="http://www.w3.org/2000/svg"><path d="m8.40625 2.136719h19.1875c3.460938 0 6.269531 2.808593 6.269531 6.269531v19.1875c0 3.460938-2.808593 6.269531-6.269531 6.269531h-19.1875c-3.460938 0-6.269531-2.808593-6.269531-6.269531v-19.1875c0-3.460938 2.808593-6.269531 6.269531-6.269531zm0 0" fill="#fecd38" fill-rule="evenodd"/><path d="m6.75 13.5v4.5h4.5v-4.5zm4.5 4.5v4.5h4.5v-4.5zm4.5 0h4.5v-4.5h-4.5zm4.5 0v4.5h4.5v-4.5zm4.5 0h4.5v-4.5h-4.5zm0 0" fill-opacity=".537255"/></svg>