<svg height="36pt" viewBox="0 0 36 36" width="36pt" xmlns="http://www.w3.org/2000/svg"><g fill-rule="evenodd"><path d="m33.863281 17.367188h-31.726562v10.15625c0 3.472656 2.796875 6.269531 6.269531 6.269531h19.1875c3.472656 0 6.269531-2.796875 6.269531-6.269531zm0 0" fill="#334d5c"/><path d="m33.863281 11.460938h-31.726562v5.90625h31.726562zm0 0" fill="#d07e34"/><path d="m8.40625 2.066406c-3.472656 0-6.269531 2.796875-6.269531 6.269532v3.125h31.726562v-3.125c0-3.472657-2.796875-6.269532-6.269531-6.269532zm0 0" fill="#808080"/><path d="m33.863281 16.492188h-31.726562v11.171874c0 3.472657 2.796875 6.269532 6.269531 6.269532h19.183594c3.476562 0 6.273437-2.796875 6.273437-6.269532zm0 0" fill="#eaad43"/><path d="m10.191406 20.253906c0 .636719-.515625 1.152344-1.152344 1.152344-.636718 0-1.152343-.515625-1.152343-1.152344 0-.636718.515625-1.152344 1.152343-1.152344.636719 0 1.152344.515626 1.152344 1.152344zm0 0" fill="#cb7f2c"/><path d="m28.664062 20.273438c0 .636718-.515624 1.152343-1.152343 1.152343s-1.152344-.515625-1.152344-1.152343c0-.636719.515625-1.152344 1.152344-1.152344s1.152343.515625 1.152343 1.152344zm0 0" fill="#cb7f2c"/></g><path d="m-37.336923 20.290666c.763888 11.784723 15.729166 10.666667 16.302083 0" fill="none" stroke="#fff" stroke-linecap="round" stroke-width="1.290687" transform="matrix(1.125 0 0 1.125 51.101695 -2.135593)"/><path d="m31.234375 25.035156c0 3.109375-2.519531 5.625-5.625 5.625-3.109375 0-5.625-2.515625-5.625-5.625 0-3.105468 2.515625-5.625 5.625-5.625 3.105469 0 5.625 2.519532 5.625 5.625zm0 0" fill="#00b200" fill-rule="evenodd"/><g fill="#fff"><path d="m23.078125 25.339844c.089844.03125.175781.09375.257813.191406.085937.097656.167968.234375.253906.40625l.417968.832031h-.441406l-.390625-.78125c-.101562-.203125-.199219-.339843-.296875-.40625-.09375-.066406-.222656-.101562-.382812-.101562h-.453125v1.289062h-.410157v-3.050781h.929688c.351562 0 .609375.074219.78125.21875s.257812.367188.257812.660156c0 .191406-.042968.351563-.132812.480469-.089844.125-.21875.214844-.390625.261719zm-1.035156-1.28125v1.082031h.519531c.199219 0 .351562-.042969.453125-.136719.101563-.089844.152344-.226562.152344-.40625 0-.179687-.050781-.3125-.152344-.402344-.101563-.089843-.253906-.136718-.453125-.136718zm0 0"/><path d="m24.957031 24.058594v1.148437h.519531c.191407 0 .339844-.050781.445313-.152343.105469-.097657.15625-.238282.15625-.425782 0-.179687-.050781-.320312-.15625-.421875-.105469-.097656-.253906-.148437-.445313-.148437zm-.414062-.339844h.933593c.339844 0 .597657.078125.773438.234375.175781.152344.265625.378906.265625.675781 0 .304688-.089844.53125-.265625.683594-.175781.15625-.433594.230469-.773438.230469h-.519531v1.226562h-.414062zm0 0"/><path d="m27.070312 23.71875h.613282l.78125 2.078125.78125-2.078125h.617187v3.050781h-.402343v-2.679687l-.789063 2.09375h-.414063l-.789062-2.09375v2.679687h-.398438zm0 0"/></g></svg>