<svg height="36pt" viewBox="0 0 36 36" width="36pt" xmlns="http://www.w3.org/2000/svg" xmlns:xlink="http://www.w3.org/1999/xlink"><clipPath id="a"><path d="m0 0h36v36h-36z"/></clipPath><path d="m8.40625 2.136719h19.1875c3.460938 0 6.269531 2.808593 6.269531 6.269531v19.1875c0 3.460938-2.808593 6.269531-6.269531 6.269531h-19.1875c-3.460938 0-6.269531-2.808593-6.269531-6.269531v-19.1875c0-3.460938 2.808593-6.269531 6.269531-6.269531zm0 0" fill="#5f7c8a" fill-rule="evenodd"/><g clip-path="url(#a)"><path d="m15.519531 5.878906c-.257812.027344-.484375.238282-.53125.492188l-.511719 2.59375c-.917968.359375-1.78125.851562-2.539062 1.457031l-2.519531-.851563c-.261719-.089843-.578125.027344-.71875.265626l-2.425781 4.207031c-.136719.242187-.078126.574219.132812.757812l2.007812 1.761719c-.070312.46875-.113281.945312-.113281 1.4375s.042969.96875.113281 1.441406l-2.007812 1.761719c-.210938.179687-.269531.515625-.132812.757813l2.425781 4.203124c.140625.238282.457031.355469.71875.265626l2.519531-.851563c.757812.605469 1.621094 1.097656 2.539062 1.457031l.511719 2.597656c.050781.269532.3125.488282.585938.492188h4.851562c.273438-.003906.535157-.222656.585938-.492188l.511719-2.597656c.917968-.359375 1.78125-.851562 2.539062-1.457031l2.519531.851563c.261719.089843.578125-.027344.71875-.265626l2.425781-4.203124c.136719-.242188.078126-.578126-.132812-.757813l-2.007812-1.761719c.070312-.472656.113281-.949218.113281-1.441406s-.042969-.96875-.113281-1.4375l2.007812-1.761719c.210938-.183593.269531-.515625.132812-.757812l-2.425781-4.207031c-.140625-.238282-.457031-.355469-.71875-.265626l-2.519531.851563c-.757812-.605469-1.621094-1.097656-2.539062-1.457031l-.511719-2.59375c-.050781-.273438-.3125-.492188-.585938-.496094h-4.851562c-.019531 0-.039063 0-.054688 0zm0 0" fill="#fff"/></g><path d="m12.804688 13.609375v3.464844h3.464843v6.925781h3.460938v-6.925781h3.464843v-3.464844zm0 0" fill="#5f7c8a"/></svg>