<svg height="36pt" viewBox="0 0 36 36" width="36pt" xmlns="http://www.w3.org/2000/svg"><g fill-rule="evenodd"><path d="m8.40625 2.136719h19.1875c3.460938 0 6.269531 2.808593 6.269531 6.269531v19.1875c0 3.460938-2.808593 6.269531-6.269531 6.269531h-19.1875c-3.460938 0-6.269531-2.808593-6.269531-6.269531v-19.1875c0-3.460938 2.808593-6.269531 6.269531-6.269531zm0 0" fill="#8e8e8e"/><path d="m30.523438 18.550781h-25.046876l12.523438-13.652343zm0 0" fill="#f9f9f9"/><path d="m13.359375 30.351562v-13.65625c0-.414062.535156-.75 1.191406-.75h7.121094c.65625 0 1.1875.335938 1.1875.75v13.65625c0 .414063-.53125.75-1.1875.75h-7.121094c-.65625 0-1.191406-.335937-1.191406-.75zm0 0" fill="#f9f9f9"/></g></svg>