<svg height="36pt" viewBox="0 0 36 36" width="36pt" xmlns="http://www.w3.org/2000/svg"><path d="m33.75 7.839844c-.0625-.652344-.132812-1.300782-.378906-1.878906-.316406-.75-.773438-1.425782-1.339844-1.992188-.570312-.566406-1.242188-1.027344-1.996094-1.34375-.574218-.242188-1.222656-.3125-1.871094-.375h-10.164062v15.75h15.75zm0 0" fill="#ff8c2a"/><path d="m7.835938 2.25c-.648438.0625-1.300782.132812-1.875.375-.75.316406-1.425782.777344-1.992188 1.34375s-1.027344 1.242188-1.34375 1.992188c-.242188.574218-.3125 1.226562-.375 1.875v10.164062h15.75v-15.75zm0 0" fill="#2086e7"/><path d="m28.164062 33.75c.648438-.0625 1.300782-.132812 1.875-.375.75-.316406 1.425782-.777344 1.992188-1.34375s1.027344-1.242188 1.34375-1.992188c.242188-.574218.3125-1.226562.375-1.875v-10.164062h-15.75v15.75zm0 0" fill="#2086e7"/><path d="m2.25 28.160156c.0625.652344.136719 1.300782.378906 1.878906.316406.75.773438 1.425782 1.339844 1.992188.570312.566406 1.242188 1.027344 1.996094 1.34375.574218.242188 1.222656.3125 1.871094.375h10.164062v-15.75h-15.75zm0 0" fill="#6655e4"/><path d="m10.714844 5.949219h14.570312c2.632813 0 4.765625 2.132812 4.765625 4.765625v14.570312c0 2.632813-2.132812 4.765625-4.765625 4.765625h-14.570312c-2.632813 0-4.765625-2.132812-4.765625-4.765625v-14.570312c0-2.632813 2.132812-4.765625 4.765625-4.765625zm0 0" fill="#3f3f3f" fill-rule="evenodd"/><g fill="none" stroke="#fff" stroke-linecap="round" stroke-width="2.139934" transform="matrix(1.050667 0 0 1.052203 5.46629 37.481517)"><path d="m5.936074-11.494742h8.000872"/><path d="m9.93651-25.498103v6.003032c0 1.514679-1.044723 2.023285-2.000218 1.997298-.896008.003712-2.000218-.464057-2.000218-1.997298v-6.003032" stroke-linejoin="bevel"/><path d="m13.936946-21.496082s4.000437.464056 4.000437-2.001011c0-2.465066-4.000437-2.00101-4.000437-2.00101m0 8.00033v-8.00033" stroke-linejoin="bevel"/></g></svg>