<svg height="36pt" viewBox="0 0 36 36" width="36pt" xmlns="http://www.w3.org/2000/svg"><path d="m8.40625 2.136719h19.1875c3.460938 0 6.269531 2.808593 6.269531 6.269531v19.1875c0 3.460938-2.808593 6.269531-6.269531 6.269531h-19.1875c-3.460938 0-6.269531-2.808593-6.269531-6.269531v-19.1875c0-3.460938 2.808593-6.269531 6.269531-6.269531zm0 0" fill="#6184a6" fill-rule="evenodd"/><g fill="#fff"><path d="m17.921875 19.808594h1.222656s.371094-.039063.558594-.25c.175781-.195313.167969-.558594.167969-.558594s-.023438-1.699219.738281-1.953125c.753906-.246094 1.71875 1.644531 2.742187 2.375.773438.546875 1.359376.429687 1.359376.429687l2.734374-.042968s1.429688-.089844.753907-1.253906c-.058594-.097657-.398438-.863282-2.035157-2.4375-1.714843-1.648438-1.484374-1.382813.582032-4.234376 1.257812-1.734374 1.757812-2.796874 1.601562-3.25-.148437-.433593-1.074218-.316406-1.074218-.316406l-3.078126.019532s-.230468-.035157-.398437.070312c-.167969.101562-.273437.34375-.273437.34375s-.488282 1.34375-1.136719 2.484375c-1.371094 2.414063-1.917969 2.539063-2.144531 2.390625-.519532-.347656-.390626-1.402344-.390626-2.148438 0-2.339843.34375-3.3125-.664062-3.566406-.335938-.082031-.582031-.136718-1.4375-.148437-1.101562-.011719-2.03125.003906-2.554688.273437-.351562.175782-.621093.570313-.457031.59375.203125.03125.664063.128906.90625.472656.316407.445313.304688 1.445313.304688 1.445313s.183593 2.75-.421875 3.09375c-.414063.234375-.984375-.246094-2.207032-2.433594-.625-1.121093-1.097656-2.359375-1.097656-2.359375s-.09375-.230468-.253906-.355468c-.199219-.148438-.472656-.199219-.472656-.199219l-2.925782.019531s-.441406.015625-.601562.210938c-.144531.175781-.011719.542968-.011719.542968s2.289063 5.550782 4.882813 8.347656c2.378906 2.566407 5.082031 2.398438 5.082031 2.398438" fill-rule="evenodd"/><path d="m10.28125 26.65625c0 .242188-.042969.460938-.125.65625s-.203125.359375-.363281.5c-.160157.136719-.355469.242188-.589844.316406-.230469.074219-.496094.109375-.792969.109375-.265625 0-.519531-.027343-.761718-.082031-.242188-.054688-.46875-.132812-.675782-.242188v-1.070312c.117188.054688.238282.109375.359375.164062.121094.054688.242188.101563.367188.144532.125.039062.25.074218.375.097656.125.027344.25.039062.375.039062.128906 0 .234375-.015624.324219-.042968.089843-.027344.164062-.066406.21875-.117188.058593-.050781.097656-.113281.121093-.183594.027344-.070312.042969-.148437.042969-.234374 0-.101563-.023438-.1875-.066406-.265626-.042969-.078124-.105469-.152343-.183594-.21875-.078125-.070312-.171875-.136718-.28125-.203124-.109375-.0625-.230469-.132813-.367188-.203126-.113281-.058593-.242187-.132812-.382812-.214843-.140625-.085938-.277344-.1875-.402344-.3125s-.226562-.277344-.3125-.453125c-.082031-.179688-.125-.390625-.125-.640625 0-.242188.039063-.457031.117188-.648438.082031-.195312.199218-.355469.347656-.488281s.328125-.234375.539062-.304688c.210938-.070312.449219-.101562.710938-.101562.132812 0 .257812.007812.382812.023438.128907.019531.25.042968.371094.074218.125.03125.25.074219.371094.121094.125.046875.253906.101562.382812.160156l-.371093.898438c-.109375-.054688-.214844-.097656-.3125-.136719-.09375-.042969-.1875-.074219-.28125-.101563-.089844-.027343-.179688-.046874-.269531-.058593-.089844-.015625-.175782-.023438-.265626-.023438-.191406 0-.339843.050781-.445312.15625-.101562.101563-.152344.238281-.152344.410157 0 .089843.015625.171874.042969.242187.035156.070313.082031.136719.148437.199219.070313.0625.160157.125.265626.1875.109374.066406.238281.136718.394531.21875.183593.101562.355469.203125.511719.304687.15625.101563.289062.21875.402343.34375s.203125.265625.261719.421875c.0625.160156.09375.347656.09375.558594zm0 0"/><path d="m14.386719 28.164062-.371094-1.292968h-1.871094l-.375 1.292968h-1.164062l1.765625-5.453124h1.40625l1.773437 5.453124zm-.636719-2.257812-.351562-1.191406c-.015626-.042969-.035157-.117188-.066407-.21875-.03125-.101563-.0625-.210938-.097656-.332032-.03125-.125-.0625-.25-.089844-.371093-.03125-.125-.050781-.230469-.066406-.316407-.007813.054688-.023437.117188-.039063.191407-.015624.074219-.035156.15625-.054687.238281s-.042969.164062-.066406.25c-.019531.082031-.042969.164062-.0625.238281s-.039063.140625-.054688.195313c-.015625.058594-.027343.101562-.035156.125l-.34375 1.191406zm0 0"/><path d="m18.808594 22.730469h1.164062l-1.695312 5.433593h-1.253906l-1.691407-5.433593h1.164063l.921875 3.273437c.011719.039063.027343.109375.046875.210938.023437.097656.042968.207031.066406.328125.023438.117187.046875.234375.070312.355469.023438.117187.039063.21875.050782.300781.015625-.082031.03125-.183594.054687-.300781.019531-.121094.042969-.238282.070313-.355469.023437-.117188.046875-.226563.070312-.324219.023438-.101562.042969-.171875.054688-.214844zm0 0"/><path d="m23.78125 28.164062h-3.128906v-5.433593h3.128906v.945312h-1.976562v1.191407h1.839843v.945312h-1.839843v1.402344h1.976562zm0 0"/><path d="m26.070312 25.144531h.3125c.320313 0 .550782-.0625.6875-.191406.140626-.128906.207032-.316406.207032-.5625 0-.257813-.074219-.441406-.222656-.550781-.148438-.109375-.378907-.164063-.691407-.164063h-.292969zm0 .933594v2.085937h-1.152343v-5.433593h1.488281c.695312 0 1.210938.136719 1.542969.40625s.496093.675781.496093 1.222656c0 .1875-.023437.355469-.074218.503906-.050782.152344-.117188.289063-.199219.40625-.082031.117188-.179687.21875-.289063.308594-.105468.085937-.21875.160156-.335937.21875.273437.441406.519531.835937.738281 1.183594.09375.148437.183594.292969.273438.433593.085937.140626.167968.265626.238281.378907.066406.113281.125.199219.167969.269531l.0625.101562h-1.277344l-1.175781-2.085937zm0 0"/></g></svg>