<svg height="36pt" viewBox="0 0 36 36" width="36pt" xmlns="http://www.w3.org/2000/svg"><path d="m8.40625 2.136719h19.1875c3.460938 0 6.269531 2.808593 6.269531 6.269531v19.1875c0 3.460938-2.808593 6.269531-6.269531 6.269531h-19.1875c-3.460938 0-6.269531-2.808593-6.269531-6.269531v-19.1875c0-3.460938 2.808593-6.269531 6.269531-6.269531zm0 0" fill="#4f4f4f" fill-rule="evenodd"/><path d="m19.125 5.0625c-4.96875 0-9 4.03125-9 9 0 .058594.003906.117188.007812.175781-.003906.054688-.015624.109375-.015624.164063.003906.140625.003906.285156.015624.425781 0 .027344-.003906.054687-.003906.082031v1.679688l-.011718.625-2.054688 3.238281c-.472656.902344-.023438 1.460937.992188 1.476563l1.074218.015624v2.53125c0 1.058594.988282 1.945313 2.050782 1.945313l2.445312.03125v4.425781c.375.027344.746094.058594 1.125.058594 3.359375 0 6.464844-1.050781 9.015625-2.832031v-6.617188c0-.148437-.007813-.269531-.011719-.40625 2.128906-1.707031 3.371094-4.289062 3.371094-7.019531 0-4.96875-4.03125-9-9-9zm0 0" fill="#6084ff"/><path d="m19.6875 8.4375c-2.796875 0-5.0625 2.265625-5.0625 5.0625s2.265625 5.0625 5.0625 5.0625 5.0625-2.265625 5.0625-5.0625-2.265625-5.0625-5.0625-5.0625zm0 2.25c1.554688 0 2.8125 1.257812 2.8125 2.8125s-1.257812 2.8125-2.8125 2.8125-2.8125-1.257812-2.8125-2.8125 1.257812-2.8125 2.8125-2.8125zm0 0" fill="#fff"/><path d="m21.375 13.5c0 .933594-.753906 1.6875-1.6875 1.6875s-1.6875-.753906-1.6875-1.6875.753906-1.6875 1.6875-1.6875 1.6875.753906 1.6875 1.6875zm0 0" fill="#fff"/></svg>