<svg height="36pt" viewBox="0 0 36 36" width="36pt" xmlns="http://www.w3.org/2000/svg"><path d="m8.40625 2.136719c-3.472656 0-6.269531 2.796875-6.269531 6.269531v10.03125h31.726562v-10.03125c0-3.472656-2.796875-6.269531-6.269531-6.269531zm0 0" fill="#8e8e8e" fill-rule="evenodd"/><path d="m7.996094 7.644531h20.011718v11.992188h-20.011718zm0 0" fill="#e6e6e6"/><path d="m9.996094 12.441406h5.003906v3.597656h-5.003906zm0 0" fill="#666"/><path d="m21.003906 12.441406h5.003906v3.597656h-5.003906zm0 0" fill="#666"/><path d="m33.863281 18.4375h-31.726562v9.15625c0 3.472656 2.796875 6.269531 6.269531 6.269531h19.1875c3.472656 0 6.269531-2.796875 6.269531-6.269531zm0 0" fill="#4d4d4d" fill-rule="evenodd"/><path d="m9.609375 23.234375h16.785156c.664063 0 1.199219.535156 1.199219 1.199219 0 .660156-.535156 1.195312-1.199219 1.195312h-16.785156c-.660156 0-1.199219-.535156-1.199219-1.195312 0-.664063.539063-1.199219 1.199219-1.199219zm0 0" fill="#666"/><path d="m12.007812 28.027344h11.988282c.664062 0 1.199218.539062 1.199218 1.199218 0 .664063-.535156 1.199219-1.199218 1.199219h-11.988282c-.660156 0-1.199218-.535156-1.199218-1.199219 0-.660156.539062-1.199218 1.199218-1.199218zm0 0" fill="#666"/><path d="m32.289062 25.535156c0 3.726563-3.023437 6.75-6.75 6.75-3.726562 0-6.75-3.023437-6.75-6.75 0-3.730468 3.023438-6.75 6.75-6.75 3.726563 0 6.75 3.019532 6.75 6.75zm0 0" fill="#48aeff"/><g fill="#fff"><path d="m22.34375 22.160156h2.171875c.097656 0 .179687.078125.179687.179688v2.167968c0 .101563-.082031.183594-.179687.183594h-2.171875c-.097656 0-.179688-.082031-.179688-.183594v-2.167968c0-.101563.082032-.179688.179688-.179688zm0 0"/><path d="m26.5625 22.160156h2.171875c.097656 0 .179687.078125.179687.179688v2.167968c0 .101563-.082031.183594-.179687.183594h-2.171875c-.097656 0-.179688-.082031-.179688-.183594v-2.167968c0-.101563.082032-.179688.179688-.179688zm0 0"/><path d="m22.34375 26.378906h2.171875c.097656 0 .179687.078125.179687.179688v2.167968c0 .101563-.082031.183594-.179687.183594h-2.171875c-.097656 0-.179688-.082031-.179688-.183594v-2.167968c0-.101563.082032-.179688.179688-.179688zm0 0"/><path d="m26.5625 26.378906h2.171875c.097656 0 .179687.078125.179687.179688v2.167968c0 .101563-.082031.183594-.179687.183594h-2.171875c-.097656 0-.179688-.082031-.179688-.183594v-2.167968c0-.101563.082032-.179688.179688-.179688zm0 0"/></g></svg>