<svg height="36pt" viewBox="0 0 36 36" width="36pt" xmlns="http://www.w3.org/2000/svg"><path d="m8.40625 2.136719h19.1875c3.460938 0 6.269531 2.808593 6.269531 6.269531v19.1875c0 3.460938-2.808593 6.269531-6.269531 6.269531h-19.1875c-3.460938 0-6.269531-2.808593-6.269531-6.269531v-19.1875c0-3.460938 2.808593-6.269531 6.269531-6.269531zm0 0" fill="#fb7a24" fill-rule="evenodd"/><path d="m12.375 6.75c-3.105469 0-5.625 2.519531-5.625 5.625s2.519531 5.625 5.625 5.625c-3.105469 0-5.625 2.519531-5.625 5.625s2.519531 5.625 5.625 5.625 5.625-2.519531 5.625-5.625c-.003906-.128906-.007812-.257812-.019531-.382812h.019531.011719c-.007813.128906-.011719.253906-.011719.382812 0 3.105469 2.519531 5.625 5.625 5.625s5.625-2.519531 5.625-5.625-2.519531-5.625-5.625-5.625c-.007812 0-.011719 0-.019531.003906 0-.003906 0-.003906 0-.003906h.019531c3.105469 0 5.625-2.519531 5.625-5.625s-2.519531-5.625-5.625-5.625c-2.957031 0-5.410156 2.292969-5.613281 5.242188-.003907 0-.007813 0-.011719 0-.007812 0-.011719 0-.019531 0-.203125-2.949219-2.648438-5.238282-5.605469-5.242188zm11.238281 3.347656c.765625-.007812 1.484375.375 1.902344 1.011719.421875.640625.488281 1.453125.175781 2.152344-.65625 1.535156-1.226562 3.097656-2.367187 4.511719-1.132813 1.414062-3.082031 2.476562-5.324219 2.476562-1.34375 0-1.332031.058594-1.695312.488281-.363282.425781-.960938 1.714844-1.867188 3.789063-.308594.757812-1.003906 1.289062-1.816406 1.386718-.8125.097657-1.613282-.25-2.09375-.914062-.480469-.664062-.5625-1.535156-.214844-2.277344.882812-2.011718 1.40625-3.535156 2.5625-4.898437 1.160156-1.363281 3.09375-2.074219 5.125-2.074219 1.132812 0 1.324219-.179688 1.820312-.796875.496094-.617187 1.050782-1.867187 1.738282-3.464844.34375-.832031 1.152344-1.382812 2.054687-1.390625zm-11.238281.027344c1.242188 0 2.25 1.007812 2.25 2.25s-1.007812 2.25-2.25 2.25-2.25-1.007812-2.25-2.25 1.007812-2.25 2.25-2.25zm11.25 11.25c1.242188 0 2.25 1.007812 2.25 2.25s-1.007812 2.25-2.25 2.25-2.25-1.007812-2.25-2.25 1.007812-2.25 2.25-2.25zm0 0" fill="#fff"/></svg>