<svg height="36pt" viewBox="0 0 36 36" width="36pt" xmlns="http://www.w3.org/2000/svg"><path d="m7.78125 33.738281v-25.152343h-5.644531v19.007812c0 3.253906 2.480469 5.820312 5.644531 6.144531zm0 0" fill="#b7b7b7" fill-rule="evenodd"/><path d="m8.40625 2.136719c-3.472656 0-6.269531 2.796875-6.269531 6.273437v.175782h5.644531v25.152343c.21875.023438.402344.125.625.125h19.183594c3.476562 0 6.273437-2.796875 6.273437-6.269531v-19.183594c0-3.476562-2.796875-6.273437-6.273437-6.273437zm0 0" fill="#920000" fill-rule="evenodd"/><g fill="#f8c44e"><path d="m13.066406 28.5h2.683594v5.363281h-2.683594zm0 0"/><path d="m17.089844 28.5h2.679687v5.363281h-2.679687zm0 0"/><path d="m21.109375 28.5h2.683594v5.363281h-2.683594zm0 0"/><path d="m25.132812 28.5h2.683594v5.363281h-2.683594zm0 0"/></g><path d="m20.949219 6.421875c-1.292969.011719-2.574219.066406-2.574219.148437 0 .078126.171875.507813.382812.953126.816407 1.730468 1.386719 3.921874 1.386719 5.324218 0 .621094-.023437.667969-.273437.632813-.21875-.03125-.34375-.242188-.613282-1.050781-.53125-1.574219-1.445312-3.277344-2.480468-4.613282-1.039063-1.335937-.710938-1.421875-2.839844.703125-1.269531 1.269531-1.828125 1.90625-1.722656 1.972657.085937.054687.550781.253906 1.039062.441406.488282.1875 1.160156.5 1.492188.695312.332031.199219.636718.355469.675781.355469.160156 0 2.035156 1.40625 2.441406 1.824219.339844.355468.402344.488281.28125.609375-.171875.167969-.128906.183593-2.015625-.648438-.644531-.285156-1.695312-.628906-2.339844-.769531-1.273437-.273438-3.253906-.519531-3.40625-.425781-.117187.070312-.136718 5.148437-.019531 5.261719.042969.042968.351563-.058594.6875-.226563 1.742188-.882813 4.210938-1.578125 5.617188-1.578125.535156 0 .695312.046875.695312.191406 0 .332032-.046875.363282-.949219.667969-1.09375.367187-2.179687.878906-3.308593 1.5625-1.082031.652344-2.441407 1.722656-2.441407 1.921875 0 .078125.816407.964844 1.820313 1.964844l1.816406 1.816406.257813-.574219c.136718-.316406.292968-.707031.34375-.871093.289062-.914063 1.820312-3.324219 2.769531-4.355469.414063-.457031.457031-.472657.652344-.277344.199219.199219.195312.242187-.074219.691406-.828125 1.398438-1.570312 3.964844-1.722656 5.972657l-.085938 1.148437h2.671875c1.472657 0 2.675781-.035156 2.675781-.082031 0-.042969-.195312-.484375-.429687-.976563-.765625-1.597656-1.238281-3.292969-1.414063-5.101562-.078124-.800781-.058593-.917969.121094-.917969.113282 0 .242188-.003906.289063-.007812.046875-.003907.265625.496093.484375 1.105468.503906 1.394532 1.054687 2.488282 1.867187 3.707032.824219 1.226562 1.378907 1.890624 1.582031 1.894531.214844 0 3.71875-3.519531 3.636719-3.652344-.035156-.058594-.335937-.203125-.667969-.328125-1.652343-.621094-3.523437-1.71875-4.804687-2.824219-.625-.539062-.648437-.585937-.457031-.800781.199218-.21875.234375-.210938.914062.140625 1.738282.90625 3.617188 1.425781 5.785156 1.601563l1.054688.082031v-2.671875c0-1.46875-.027344-2.671875-.066406-2.671875-.035156 0-.390625.164062-.789063.367187-1.613281.808594-4.277343 1.53125-5.660156 1.53125-.5 0-.5625-.03125-.558594-.285156.003907-.238281.144531-.332031.917969-.585938 1.703125-.5625 3.597656-1.570312 4.765625-2.535156.3125-.257812.699219-.539062.855469-.621094.15625-.085937.285156-.21875.285156-.296874 0-.15625-3.53125-3.765626-3.683594-3.765626-.050781 0-.210937.324219-.359375.726563-.613281 1.640625-2.273437 4.34375-3.191406 5.1875-.28125.261719-.332031.269531-.480469.085937-.144531-.167968-.097656-.347656.28125-1.171874.765625-1.648438.851563-1.894532 1.113282-3.097657.257812-1.203125.507812-3.238281.414062-3.40625-.046875-.082031-1.347656-.113281-2.644531-.097656zm-.929688 7.828125c1.050781 0 1.902344.851562 1.90625 1.90625 0 1.050781-.855469 1.90625-1.90625 1.90625-.507812 0-.992187-.203125-1.347656-.558594-.359375-.359375-.558594-.84375-.558594-1.347656 0-1.054688.851563-1.90625 1.90625-1.90625zm0 0" fill="#b7b7b7"/></svg>