<svg height="36pt" viewBox="0 0 36 36" width="36pt" xmlns="http://www.w3.org/2000/svg"><path d="m8.40625 2.136719h19.1875c3.460938 0 6.269531 2.808593 6.269531 6.269531v19.1875c0 3.460938-2.808593 6.269531-6.269531 6.269531h-19.1875c-3.460938 0-6.269531-2.808593-6.269531-6.269531v-19.1875c0-3.460938 2.808593-6.269531 6.269531-6.269531zm0 0" fill="#ab47bc" fill-rule="evenodd"/><path d="m7.5 9.5c4.5 0 4.5 6.5 8.5 6.5s4-6.5 8.5-6.5" fill="none" stroke="#fff" stroke-linecap="round" transform="scale(1.125)"/><path d="m7.5 22.5c4.5 0 4.5-6.5 8.5-6.5s4 6.5 8.5 6.5" fill="none" stroke="#fff" stroke-linecap="round" transform="scale(1.125)"/></svg>