<svg height="36pt" viewBox="0 0 36 36" width="36pt" xmlns="http://www.w3.org/2000/svg"><path d="m8.40625 2.136719h19.1875c3.460938 0 6.269531 2.808593 6.269531 6.269531v19.1875c0 3.460938-2.808593 6.269531-6.269531 6.269531h-19.1875c-3.460938 0-6.269531-2.808593-6.269531-6.269531v-19.1875c0-3.460938 2.808593-6.269531 6.269531-6.269531zm0 0" fill="#9aca3c" fill-rule="evenodd"/><path d="m12.499841 22.5 10-13" fill="none" stroke="#fff" stroke-linecap="round" stroke-linejoin="round" stroke-width="3" transform="matrix(1.125 0 0 1.125 -1.124821 0)"/><path d="m11.499841 9.5 5.201389 6.5" fill="none" stroke="#fff" stroke-linecap="round" stroke-linejoin="round" stroke-width="3" transform="matrix(1.125 0 0 1.125 -1.124821 0)"/><path d="m31.738281 24.75c0 3.726562-3.023437 6.75-6.75 6.75-3.730469 0-6.75-3.023438-6.75-6.75s3.019531-6.75 6.75-6.75c3.726563 0 6.75 3.023438 6.75 6.75zm0 0" fill="#4f4f4f"/><path d="m23.300781 21.375c-1.867187 0-3.375 1.511719-3.375 3.375s1.507813 3.375 3.375 3.375c1.535157 0 2.878907-1.042969 3.261719-2.53125h1.800781v1.6875h.84375v-1.6875h.84375v-1.6875h-3.488281c-.382812-1.488281-1.726562-2.527344-3.261719-2.53125zm0 1.6875c.929688 0 1.6875.753906 1.6875 1.6875s-.757812 1.6875-1.6875 1.6875c-.933593 0-1.6875-.753906-1.6875-1.6875s.753907-1.6875 1.6875-1.6875zm0 0" fill="#fff"/></svg>