<svg height="16" viewBox="0 0 16 16" width="16" xmlns="http://www.w3.org/2000/svg"><circle cx="8" cy="8" fill="#252a35" r="7"/><path d="m8 2c-1.318273 0-2.4877238.6889204-2.8632812 2h1.09375c.3864704-.6933045 1.1836232-1 1.7695312-1 .8000001 0 2 .5498156 2 1.9160156v1.0839844h-2-2-1-.3339844c-.3693333 0-.6660156.3660044-.6660156.7617188v4.5234372c0 .395714.2966823.714844.6660156.714844h6.6679684c.369334 0 .666016-.31913.666016-.714844v-4.5234372c0-.3957143-.342796-.7617188-.666016-.7617188h-.333984v-1.0839844c0-1.9166643-1.3999999-2.9160156-3-2.9160156z" fill="#fff"/></svg>