<svg height="32" viewBox="0 0 8.47 8.47" width="32" xmlns="http://www.w3.org/2000/svg"><g transform="translate(0 -288.53332)"><path d="m .92604134 289.32707c-.21986875 0-.396875.17701-.396875.39687v6.61459c0 .21987.17700625.39687.396875.39687h4.36562496l2.6458333-2.64583v-4.36563c0-.21986-.1770063-.39687-.396875-.39687z" opacity=".2"/><path d="m1.058333 289.06249s-.52916666 0-.52916666.52916v6.35c0 .52917.52916666.52917.52916666.52917h4.2333333l2.6458333-2.64583v-4.23334c0-.52916-.5291667-.52916-.5291667-.52916z" fill="#ffa234"/><path d="m7.9374996 293.82499h-2.2489583c-.2191888 0-.396875.17768-.396875.39687v2.24896z" fill="#ffcd82"/><path d="m1.058333 289.06249c-.21986875 0-.52916666.30929-.52916666.52916v.26459c0-.21987.30929791-.52917.52916666-.52917h6.3499999c.2198688 0 .5291667.3093.5291667.52917v-.26459c0-.21987-.3092979-.52916-.5291667-.52916z" fill="#fff" opacity=".2"/><path d="m5.6885413 293.82499c-.2191888 0-.396875.17768-.396875.39687v.26458c0-.21918.1776862-.39687.396875-.39687h1.9843749l.2645834-.26458z" fill="#fff" opacity=".2"/><path d="m2.9104163 290.3854a1.3229166 1.3229166 0 0 0 -1.2118128.79375h.097668 1.1141445v1.05834h-1.1136256-.0971524a1.3229166 1.3229166 0 0 0 1.2107783.79375 1.3229166 1.3229166 0 0 0 1.2107783-.79375h2.4933883v-1.05834h-2.4923538a1.3229166 1.3229166 0 0 0 -1.2118128-.79375z" fill="#4b4b4b"/></g></svg>