<svg height="32" width="32" xmlns="http://www.w3.org/2000/svg"><path d="m4.5499 2.001a2.4767 2.197 0 0 0 -2.5499 2.1957v23.606a2.4767 2.197 0 0 0 3.7158 1.903l11.522-5.903 11.523-5.901a2.4767 2.197 0 0 0 0-3.8059l-11.523-5.8997-11.522-5.9026a2.4767 2.197 0 0 0 -1.1661-.2927z" fill="#3e50b4"/><path d="m14.907 11a1.0615.94156 0 0 1 1.093.941v10.117a1.0615.94156 0 0 1 -1.5925.81556l-4.9385-2.53-4.9385-2.529a1.0615.94156 0 0 1 0-1.6311l4.9385-2.5287 4.938-2.5297a1.0615.94156 0 0 1  .49964-.12547z" opacity=".2"/><path d="m14.907 10a1.0615.94156 0 0 1 1.093.941v10.117a1.0615.94156 0 0 1 -1.5925.81556l-4.9385-2.53-4.9385-2.529a1.0615.94156 0 0 1 0-1.6311l4.9385-2.5287 4.938-2.5297a1.0615.94156 0 0 1  .49964-.12547z" fill="#fff"/><path d="m4.5508 2a2.4767 2.197 0 0 0 -2.5508 2.1973v.998a2.4767 2.197 0 0 1 2.5508-2.1953 2.4767 2.197 0 0 1 1.164.293l11.523 5.9043 11.524 5.8987a2.4767 2.197 0 0 1 1.172 1.402 2.4767 2.197 0 0 0 -1.172-2.402l-11.524-5.8987-11.523-5.9043a2.4767 2.197 0 0 0 -1.1642-.293z" fill="#fff" opacity=".1"/><path d="m29.934 16.499a2.4767 2.197 0 0 1 -1.1719 1.4043l-11.524 5.9-11.523 5.903a2.4767 2.197 0 0 1 -3.715-1.903v1a2.4767 2.197 0 0 0 3.7148 1.9023l11.523-5.9023 11.523-5.9004a2.4767 2.197 0 0 0 1.1719-2.4043z" opacity=".2"/></svg>