<svg height="32" viewBox="0 0 32 32" width="32" xmlns="http://www.w3.org/2000/svg"><path d="m15.5 2a14.5 14.5 0 0 0 -14.5 14.5 14.5 14.5 0 0 0 14.5 14.5 14.5 14.5 0 0 0 14.5-14.5 14.5 14.5 0 0 0 -14.5-14.5z" opacity=".2"/><path d="m14.05 5.35v2.2160647c-1.306208.0788459-2.473656.2993547-3.503222.8609375-1.3968681.7619268-2.296778 2.3604978-2.296778 4.1729978 0 1.933334 1.2476017 3.436004 2.657862 4.082373 1.410259.646369 2.962304.800049 4.412304.981299s2.797955.39007 3.562696.740576c.76474.350506.967138.479086.967138 1.445752 0 .67884-.19754 1.025583-.858106 1.437256-.660565.411672-1.858744.737744-3.491894.737744-2.5375 0-3.391036-.813019-3.868555-1.529297-.477518-.716277-.481445-1.370703-.481445-1.370703h-2.9s-.00391 1.520574.968555 2.979297c.818287 1.227432 2.407709 2.37643 4.831445 2.713085v2.282618h2.9v-2.242969c1.37661-.13703 2.57976-.487338 3.576856-1.10874 1.333184-.830857 2.223144-2.297252 2.223144-3.898291 0-1.933334-1.247602-3.436004-2.657862-4.082373-1.410259-.646369-2.962304-.800049-4.412304-.981299s-2.797955-.39007-3.562696-.740576c-.76474-.350506-.967138-.479086-.967138-1.445752 0-1.0875.18759-1.301429.784472-1.627002.596884-.325572 1.849694-.547998 3.565528-.547998 2.597916 0 3.511759.730714 3.942187 1.26875.430429.538036.407813.90625.407813.90625h2.9s-.02261-1.444286-1.042188-2.71875c-.854415-1.0680185-2.399056-1.9914779-4.757812-2.265625v-2.265625z" opacity=".2"/><path d="m15.5 1a14.5 14.5 0 0 0 -14.5 14.5 14.5 14.5 0 0 0 14.5 14.5 14.5 14.5 0 0 0 14.5-14.5 14.5 14.5 0 0 0 -14.5-14.5z" fill="#4f8d28"/><path d="m14 6v2.03125c-1.271481.0562783-2.432049.2204246-3.486328.7050781-1.4558529.6692579-2.513672 2.2791889-2.513672 4.1386719 0 1.967241 1.3142297 3.490851 2.767578 4.134766 1.453349.643914 3.052734.797265 4.552734.978515s2.900615.39118 3.697266.744141c.796652.352961.982422.459819.982422 1.392578 0 .619079-.146312.84441-.847656 1.21875-.701345.37434-1.990895.65625-3.652344.65625-2.598276 0-3.585594-.716724-4.052734-1.244141-.467141-.527416-.449219-.841797-.449219-.841797l-2.9960939.171876s.1163593 1.435619 1.1992188 2.658203c.9012041 1.017488 2.4597891 1.89531 4.7988281 2.164062v2.091797h3v-2.0625c1.342652-.114487 2.542118-.400556 3.566406-.947266 1.392406-.74319 2.433594-2.204434 2.433594-3.865234 0-1.967241-1.31423-3.490851-2.767578-4.134766-1.453349-.643914-3.052735-.797265-4.552734-.978515-1.5-.18125-2.900615-.39118-3.697266-.744141-.796652-.352961-.982422-.459819-.982422-1.392578 0-1.040517.129681-1.118867.767578-1.412109.637897-.293243 1.985439-.462891 3.732422-.462891 2.598276 0 3.585594.716724 4.052734 1.244141.467141.527416.449219.841796.449219.841797l2.996094-.171876s-.116359-1.435619-1.199219-2.658203c-.901203-1.017488-2.459789-1.89531-4.798828-2.1640621v-2.0917969z" opacity=".2"/><path d="m21.5 12s-.2-3.5-6-3.5c-3.625 0-6 .475-6 3.375 0 5.8 12 1.45 12 7.25 0 2.279879-2.375 3.375-6 3.375-5.8 0-6-3.5-6-3.5" fill="none" stroke="#fff" stroke-linejoin="round" stroke-width="3"/><g fill="#fff"><path d="m14 5h3v3h-3z"/><path d="m14 23h3v3h-3z"/><path d="m15.5 1a14.5 14.5 0 0 0 -14.5 14.5 14.5 14.5 0 0 0  .0214844.419922 14.5 14.5 0 0 1 14.4785156-13.919922 14.5 14.5 0 0 1 14.478516 14.080078 14.5 14.5 0 0 0  .021484-.580078 14.5 14.5 0 0 0 -14.5-14.5z" opacity=".1"/></g></svg>