<svg height="32" viewBox="0 0 32 32" width="32" xmlns="http://www.w3.org/2000/svg"><g transform="translate(0 -1020.4)"><path d="m29.968 1049-6.9839-25.2c-.20711-.7473-.62296-1.4-1.3968-1.4h-11.174c-.77382 0-1.1897.6527-1.3968 1.4l-6.9839 25.2c-.20711.7473.62296 1.4 1.3968 1.4h25.142c.77382 0 1.6039-.6527 1.3968-1.4z" fill="#62ad21"/><path d="m10.412 1022.4c-.77382 0-1.1894.6531-1.3965 1.4004l-6.9844 25.199c-.066073.2384-.017752.465.091797.666l6.8926-24.865c.20711-.7473.62267-1.4004 1.3965-1.4004h11.176c.77382 0 1.1894.6531 1.3965 1.4004l6.8926 24.865c.10955-.201.15787-.4276.0918-.666l-6.9844-25.199c-.20711-.7473-.62267-1.4004-1.3965-1.4004h-11.176z" fill="#fff" opacity=".2"/><circle cx="16" cy="1045.4" opacity=".2" r="4"/><circle cx="16" cy="1044.4" fill="#fff" r="4"/><rect height="21" opacity=".2" rx="1.443" ry="1.631" transform="matrix(.8660254 .5 -.5 .8660254 0 0)" width="3" x="535.02" y="877.82"/><rect fill="#4f4f4f" height="21" rx="1.443" ry="1.631" transform="matrix(.8660254 .5 -.5 .8660254 0 0)" width="3" x="534.52" y="876.95"/><path d="m19 1022.4-3 5-3-5z" fill="#fff"/><path d="m2.1543 1049.6-.091797.334c-.20711.7473.62267 1.4004 1.3965 1.4004h25.143c.77382 0 1.6036-.6531 1.3965-1.4004l-.0918-.332c-.23456.4278-.77869.7324-1.3047.7324h-25.143c-.52695 0-1.0709-.3053-1.3047-.7344z" opacity=".2"/></g></svg>