<svg height="32" viewBox="0 0 32 32" width="32" xmlns="http://www.w3.org/2000/svg"><g transform="translate(0 -1090.5197)"><circle cx="15.5" cy="1107.02" opacity=".2" r="14.5"/><circle cx="15.5" cy="1106.02" fill="#88ba53" r="14.5"/><path d="m16.778974 1104.4702-2.511474 1.45 7.975 13.813 2.705737 1.7865-.194263-3.2365z" opacity=".1"/><path d="m16.778974 1103.4702-2.511474 1.45 7.975 13.813 2.705737 1.7865-.194263-3.2365z" fill="#e4e4e4"/><path d="m14.244141 1104.4709-7.9746098 13.8125-.1953124 3.2363 2.7070312-1.7871 1.449219-2.5098c1.623159.8415 3.42747 1.2936 5.269531 1.2969 6.351275 0 11.5-5.1487 11.5-11.5-.0048-.1668-.0133-.3335-.02539-.5h-2.992187c.01076.1665.01663.3332.01758.5 0 4.6944-3.80558 8.5-8.5 8.5-1.325421 0-2.606549-.3277-3.765625-.9043l5.021484-8.6953z" opacity=".2"/><path d="m14.244263 1103.4702 2.511474 1.45-7.975 13.813-2.705737 1.7865.194263-3.2365z" fill="#fff"/><path d="m14 1097.5197v3h-1.500001c-1.499999 0-1.499999 1.4417-1.499999 1.4417v5.9682l3 2.9473c.99648.7912 2.075587.9206 3 0l3-2.9473v-5.9682c0-1.4737-1.499999-1.4417-1.499999-1.4417h-1.500001v-3z" opacity=".1"/><path d="m14 1096.5197v3h-1.500001c-1.499999 0-1.499999 1.4417-1.499999 1.4417v5.9682l3 2.9473c.99648.7912 2.075587.9206 3 0l3-2.9473v-5.9682c0-1.4737-1.499999-1.4417-1.499999-1.4417h-1.500001v-3z" fill="#4f4f4f"/><circle cx="15.5" cy="1105.02" opacity=".2" r="1.5"/><g fill="#fff"><circle cx="15.5" cy="1104.02" r="1.5"/><path d="m23.982422 15c .01076.166458.01663.333197.01758.5 0 4.69442-3.80558 8.5-8.5 8.5-1.612826-.0023-3.172045-.462537-4.508402-1.301661-.742299-.466102-.415834-.011994-.9916-.698339l-1 2.972656c1.912353 1.316405 4.178363 2.023171 6.5 2.027344 6.351275 0 11.5-5.148725 11.5-11.5-.004834-.166831-.0133-.333537-.025391-.5z" transform="translate(0 1090.5197)"/><path d="m15.5 1a14.5 14.5 0 0 0 -14.5 14.5 14.5 14.5 0 0 0  .0214844.580078 14.5 14.5 0 0 1 14.4785156-14.080078 14.5 14.5 0 0 1 14.478516 13.919922 14.5 14.5 0 0 0  .021484-.419922 14.5 14.5 0 0 0 -14.5-14.5z" opacity=".2" transform="translate(0 1090.5197)"/></g></g></svg>