<svg height="32" width="32" xmlns="http://www.w3.org/2000/svg"><path d="m12.990326 5.2501768 1.470927 2.5831007c.758925 1.332506.38362 2.9902395-.80992 3.8804945-.0875.06524-.168215.135846-.264278.192479l2.612938 4.593742 14.407225-8.4429949c-.04211-.0987407-.076145-.1991329-.130552-.2946553-.815021-1.430982-2.607927-1.917333-4.019591-1.0911556l-2.54818 1.4900325-2.94303-5.1655137c-.543349-.9539867-1.737581-1.278285-2.678689-.7275002z" opacity=".2"/><path d="m15.999993 16.499993 2.612938 4.59374c.000786-.000473.0016-.000942.0024-.0014.09715-.05686.199137-.09169.299447-.136246 1.357346-.602652 2.961208-.105102 3.720142 1.227398l1.470928 2.583101 5.096173-2.98322c.941109-.550786 1.262174-1.76127.718825-2.715258l-2.943031-5.165513 2.54871-1.491934c1.411661-.82618 1.891609-2.6433919 1.076586-4.0743724-.05609-.098482-.127313-.1805432-.19222-.269961-.0014-.00305-.0024-.00623-.0036-.00931z" opacity=".2"/><path d="m1.5927689 24.942986c.042106.09874.076145.199134.1305511.294656.8150246 1.430981 2.6079271 1.917333 4.0195908 1.091156l2.5481795-1.490032 2.9430057 5.165528c.54335.953987 1.73758 1.278285 2.678689.7275l5.096888-2.981965-1.470927-2.583101c-.758925-1.332506-.383619-2.990239.80992-3.880493.08746-.06524.168186-.135832.264249-.192463l-2.61295-4.593763z" opacity=".2"/><path d="m12.990326 4.2501771 1.470927 2.5831007c.758925 1.332506.38362 2.990239-.80992 3.8804942-.0875.06524-.168215.135846-.264278.192479l2.612938 4.593742 14.407225-8.4429946c-.04211-.0987407-.076145-.1991329-.130552-.2946553-.815021-1.430982-2.607927-1.917333-4.019591-1.0911556l-2.54818 1.4900325-2.94303-5.1655137c-.543349-.9539867-1.737581-1.27828505-2.678689-.7275002z" fill="#ea257b"/><path d="m2.7979739 10.21661c-.9411093.550785-1.2621739 1.761271-.7188241 2.715258l2.9430056 5.165528-2.5487089 1.491934c-1.4116616.82618-1.89160996 2.643391-1.0765856 4.074372.056091.09848.1273092.180545.192217.269963.00133.003.00237.0062.00367.0093l14.4072271-8.44299-2.612938-4.593741c-.000785.000473-.0016.000943-.0024.0015-.09715.05686-.19913.09171-.299447.136246-1.357336.602681-2.961197.10513-3.720131-1.2273689l-1.4709378-2.5831999z" fill="#1a96f7"/><path d="m1.5927689 23.942986c.042106.09874.076145.199134.1305511.294656.8150246 1.430981 2.6079271 1.917333 4.0195908 1.091156l2.5481795-1.490032 2.9430057 5.165528c.54335.953987 1.73758 1.278285 2.678689.7275l5.096888-2.981965-1.470927-2.583101c-.758925-1.332506-.383619-2.990239.80992-3.880493.08746-.06524.168186-.135832.264249-.192463l-2.61295-4.593763z" fill="#3fa807"/><path d="m15.999993 15.499993 2.612938 4.59374c.000786-.000473.0016-.000942.0024-.0014.09715-.05686.199137-.09169.299447-.136246 1.357346-.602652 2.961208-.105102 3.720142 1.227398l1.470928 2.583101 5.096173-2.98322c.941109-.550786 1.262174-1.76127.718825-2.715258l-2.943031-5.165513 2.54871-1.491934c1.411661-.82618 1.891609-2.6433916 1.076586-4.0743721-.05609-.098482-.127313-.1805432-.19222-.269961-.0014-.00305-.0024-.00623-.0036-.00931z" fill="#f6c319"/><path d="m1.8828125 12.421875c-.1305902.491187-.0747365 1.032198.1972656 1.509766l2.5136719 4.416015.4277344-.25-2.9414063-5.166015c-.0933842-.16396-.1537077-.335305-.1972656-.509766zm13.6914065 3.328125-13.9824221 8.193359c-.0013-.0031-.0006231-.006765-.0019531-.009765-.0649079-.089418-.1372684-.171052-.1933594-.269532-.1790506-.314368-.2838922-.649281-.3417969-.986328-.10983431.659733-.0154935 1.359015.3417969 1.986328.056091.09848.1284515.180114.1933594.269532.00133.003.0006531.006665.0019531.009765l14.4082031-8.443359z" opacity=".2"/><g fill="#fff"><path d="m19.205078 1.0039062c-.376434-.02663204-.764272.0571276-1.117187.2636719l-5.097657 2.9824219.427735.75 4.669922-2.7324219c.941108-.5507849 2.134385-.2254711 2.677734.7285157l2.943359 5.1660156 2.548828-1.4902344c1.252041-.7327574 2.799533-.429045 3.703126.6464844l.445312-.2617188c-.04211-.0987407-.074499-.1993994-.128906-.2949218-.815021-1.4309821-2.607868-1.9160212-4.019532-1.0898438l-2.548828 1.4902344-2.943359-5.1660156c-.339593-.5962417-.933156-.9478007-1.560547-.9921876zm-4.40039 7.8027344c-.124661.7426627-.519974 1.4331114-1.154297 1.9062504-.0875.06524-.167609.136726-.263672.193359l.392578.691406c.820993-.690098 1.204761-1.7547416 1.025391-2.7910154z" opacity=".2"/><path d="m7.8945312 7.234375-5.0957031 2.982422c-.779706.456323-1.1245319 1.364138-.9140625 2.205078.1303818-.489745.4442823-.930139.9140625-1.205078l5.0957031-2.982422 1.4707032 2.582031c.7589336 1.332499 2.3633666 1.831197 3.7207036 1.228516.100316-.044536.201678-.079859.298828-.136719 0 0 .001953-.001953.001953-.001953l2.1875 3.84375.425781-.25-2.613281-4.59375s-.001953.001953-.001953.001953c-.09715.05686-.198511.092183-.298828.136719-1.357337.602681-2.96177.103983-3.7207036-1.2285158zm-3.3007812 11.113281-2.1210938 1.242188c-1.1015372.644678-1.62364174 1.890727-1.4179687 3.08789.1407116-.845201.6251514-1.623891 1.4179687-2.08789l2.5488282-1.492188z" opacity=".2"/><path d="m30.408203 7.0566406-14.408203 8.4433594.425781.75 13.982422-8.1933594c.0012.00308.000553.0067157.001953.0097656.064907.0894178.13727.1710493.19336.2695313.17905.3143684.283892.6492814.341796.9863281.109835-.6597331.015493-1.3590148-.341796-1.9863281-.05609-.098482-.128453-.1801134-.19336-.2695313-.0014-.0030499-.000753-.0066856-.001953-.0097656zm-3.001953 6.5957034-.427734.25 2.941406 5.166015c.093186.163612.151744.335687.195312.509766.130812-.491359.076809-1.031987-.195312-1.509766z" opacity=".2"/></g></svg>