<svg height="32" viewBox="0 0 32 32" width="32" xmlns="http://www.w3.org/2000/svg"><path d="m29.387815 3.4750088c-.05208-.1554031-.04755-.3511999-.145484-.479674-1.338807.1929916-2.664026.5234337-3.9032 1.0693083-1.312766.5638272-2.739225 1.5103732-3.742339 2.5230182 1.63457 1.7019663 2.900674 3.7781817 4.383047 5.3922687.690632 1.000302 1.386335 2.55236 1.976202 3.612692.130767-.236751.920594-1.249492 1.029849-1.498025.86329-1.777879 1.045572-3.790826.999719-5.7381345-.019815-1.6426728-.263799-3.2741252-.597794-4.8814537z" opacity=".2"/><path d="m2.6043027 3.4750088c.0520803-.1554031.0475516-.3511999.1454854-.479674 1.3388061.1929916 2.6640259.5234337 3.9031992 1.0693083 1.312766.5638272 2.739225 1.5103732 3.7423387 2.5230182-1.6345696 1.7019663-2.9006736 3.7781817-4.3830469 5.3922687-.6906313 1.000302-1.386335 2.55236-1.9762022 3.612692-.1307671-.236751-.9205938-1.249492-1.0298493-1.498025-.8632894-1.777879-1.0455709-3.790826-.9997175-5.7381345.0198133-1.6426728.2637987-3.2741252.5977926-4.8814537z" opacity=".2"/><path d="m11.140894 5.5927028c-.270335.1784123-.533062.3670701-.789537.5636474-.6047426.4504106-1.157416.9690062-1.695918 1.4945494-.20478.2093969-.4050835.4226564-.6015839.6391638-.090015.0983967-.1794015.197315-.2676581.2971092-.0673685.0775687-.134288.1555036-.2007228.2338201-.000427.0004909-.00084.0009721-.00126.00146-.00126.00153-.00259.00306-.00385.00451-1.8533499 2.1667233-3.3243437 4.6445923-4.5016956 7.2290943-.1226985.277814-.2414096.557322-.3567105.838201-.025448.06068-.051087.121297-.076199.182099-.00865.02366-.017754.04718-.026541.07081-.1305326.325604-.2559024.653259-.375489.982954-.014172.03874-.027964.07763-.04173.116497-.057504.16056-.1141172.321394-.1688453.482924-.021072.0465-.027492.09314-.024955.139631-.0001701.00066-.0003308.0013-.0005008.002.0003162.000973.0006852.002.001.003.00682.100175.054009.199553.084796.294795.2025813.568312.4392812 1.125047.7079125 1.666156.0006688.0013.00134.0027.002.0041.042872.08629.086581.17216.1311165.257616.00367.007.00734.01405.011016.02107.4767143.911198 1.0472021 1.773887 1.7101902 2.563348.4360962.531843.9148884 1.026827 1.4248388 1.488435.04563.04155.091979.08229.1381273.123272.015519.01371.030835.02765.046403.04131.1841483.162154.3722444.319825.5642775.47268 1.1773118.950045 2.5573448 1.725624 3.9706392 2.249303.04784.01762.09557.03539.143635.05238.395739.144841.797613.272544 1.204587.382209.09999.02694.200243.0531.300791.07791.984927.245016 1.995744.385119 3.010673.421868.0041.00017.0083.000428.01244.00058.08855.0031.177141.0051.265739.0065.02999.000554.05997.0015.08997.0018.05995.000689.119904.000444.179858.000423.05992.000028.119851.000296.179774-.000423.03003-.000382.06004-.0013.09005-.0018.08853-.0015.177005-.0035.265488-.0065.0044-.000169.0088-.000423.01328-.00058 1.014709-.03679 2.025376-.176899 3.010089-.421868.09924-.02449.198097-.05036.296786-.07692.0014-.000381.0028-.000695.0042-.0011.407289-.109758.809555-.237547 1.205588-.38254.04707-.01665.09386-.03404.140714-.0513.00068-.000255.0013-.000576.002-.000833 1.429706-.523822 2.796923-1.310581 3.972058-2.250627.192071-.152934.380265-.310689.564444-.472927.06123-.05394.122362-.107995.182695-.16293.509917-.461586.988685-.956542 1.424755-1.488355.662387-.788744 1.232402-1.650587 1.708855-2.560867.0047-.0089.0093-.01778.01394-.02668.04396-.0844.08711-.16918.129448-.254394.000696-.0014.0014-.0028.0021-.0043.26861-.541077.50526-1.097795.707828-1.666073.03079-.09524.07805-.19462.08488-.294795.000301-.000973.000685-.002.000981-.003-.000171-.00066-.000342-.0013-.0005-.002.0025-.04649-.0038-.09314-.02495-.139631-.05452-.160918-.110985-.321149-.168257-.481108-.01423-.04018-.02858-.08033-.04323-.12038-.119653-.329803-.244968-.657575-.375572-.983284-.0085-.02281-.01726-.04557-.02562-.06841-.0245-.05934-.04946-.118502-.07428-.17772-.115861-.282359-.235208-.563317-.358545-.84258-1.177328-2.584448-2.648319-5.062238-4.501612-7.2289294-.000911-.00104-.0017-.00208-.0026-.00313-.000611-.0006944-.0013-.00146-.0018-.00215-.000256-.0002959-.000495-.0006091-.000769-.0009028-.066455-.0782132-.133372-.156149-.200742-.2337175-.08427-.0952866-.169602-.1897906-.255474-.2838063-.200371-.2211082-.404775-.4387601-.613768-.6524668-.538235-.5252757-1.090628-1.0436385-1.695009-1.4938892-.256757-.1968261-.519805-.3856878-.790454-.5643083-1.657989-1.0802719-3.043031-1.5423309-4.923509-1.5927344-1.707714.0100478-3.606381.8108386-4.810076 1.5927345z" opacity=".2"/><path d="m29.387815 2.4750406c-.05208-.1554031-.04755-.3511999-.145484-.479674-1.338807.1929916-2.664026.5234337-3.9032 1.0693083-1.312766.5638272-2.739225 1.5103732-3.742339 2.5230182 1.63457 1.7019663 2.900674 3.7781819 4.383047 5.3922689.690632 1.000302 1.386335 2.55236 1.976202 3.612692.130767-.236751.920594-1.249492 1.029849-1.498025.86329-1.777879 1.045572-3.7908264.999719-5.7381347-.019815-1.6426728-.263799-3.2741252-.597794-4.8814537z" fill="#db3d7f"/><path d="m29.242188 1.9960938c-1.338807.1929916-2.66317.5224847-3.902344 1.0683593-1.312766.5638272-2.739074 1.5107925-3.742188 2.5234375.171119.1781743.324568.3731759.488282.5585938.951098-.8395368 2.136162-1.6019654 3.253906-2.0820313 1.239174-.5458746 2.563537-.8753677 3.902344-1.0683593.097934.1284741.094404.3231125.146484.4785156.320876 1.5441947.554087 3.1121683.589844 4.6894531.003497-.2694196.014116-.5389209.007812-.8066406-.019815-1.6426728-.263661-3.275484-.597656-4.8828125-.05208-.1554031-.04855-.3500415-.146484-.4785156z" fill="#fff" opacity=".1"/><path d="m2.6043027 2.4750406c.0520803-.1554031.0475516-.3511999.1454854-.479674 1.3388061.1929916 2.6640259.5234337 3.9031992 1.0693083 1.312766.5638272 2.739225 1.5103732 3.7423387 2.5230182-1.6345696 1.7019663-2.9006736 3.7781819-4.3830469 5.3922689-.6906313 1.000302-1.386335 2.55236-1.9762022 3.612692-.1307671-.236751-.9205938-1.249492-1.0298493-1.498025-.8632894-1.777879-1.0455709-3.7908264-.9997175-5.7381347.0198133-1.6426728.2637987-3.2741252.5977926-4.8814537z" fill="#db3d7f"/><path d="m2.75 1.9960938c-.0979338.1284741-.0944041.3231125-.1464844.4785156-.3339939 1.6073285-.5778429 3.2401397-.5976562 4.8828125-.006304.2677197.0043156.537221.0078125.8066406.0357548-1.5772848.2689687-3.1452584.5898437-4.6894531.0520803-.1554031.0485506-.3500415.1464844-.4785156 1.3388061.1929916 2.6631704.5224847 3.9023438 1.0683593 1.1177434.4800659 2.3028081 1.2424945 3.2539062 2.0820313.163713-.1854179.317163-.3804195.488281-.5585938-1.0031135-1.012645-2.4294213-1.9596103-3.7421872-2.5234375-1.2391734-.5458746-2.5635377-.8753677-3.9023438-1.0683593z" fill="#fff" opacity=".1"/><path d="m11.140894 4.5927346c-.270335.1784123-.533062.3670701-.789537.5636474-.6047426.4504106-1.157416.9690062-1.695918 1.4945494-.20478.2093969-.4050835.4226564-.6015839.6391638-.090015.0983967-.1794015.197315-.2676581.2971092-.0673685.0775687-.134288.1555036-.2007228.2338201-.000427.0004909-.00084.0009721-.00126.00146-.00126.00153-.00259.00306-.00385.00451-1.8533499 2.1667238-3.3243437 4.6445925-4.5016956 7.2290945-.1226985.277814-.2414096.557322-.3567105.838201-.025448.06068-.051087.121297-.076199.182099-.00865.02366-.017754.04718-.026541.07081-.1305326.325604-.2559024.653259-.375489.982954-.014172.03874-.027964.07763-.04173.116497-.057504.16056-.1141172.321394-.1688453.482924-.021072.0465-.027492.09314-.024955.139631-.0001701.00066-.0003308.0013-.0005008.002.0003162.000973.0006852.002.001.003.00682.100175.054009.199553.084796.294795.2025813.568312.4392812 1.125047.7079125 1.666156.0006688.0013.00134.0027.002.0041.042872.08629.086581.17216.1311165.257616.00367.007.00734.01405.011016.02107.4767143.911198 1.0472021 1.773887 1.7101902 2.563348.4360962.531843.9148884 1.026827 1.4248388 1.488435.04563.04155.091979.08229.1381273.123272.015519.01371.030835.02765.046403.04131.1841483.162154.3722444.319825.5642775.47268 1.1773118.950045 2.5573448 1.725624 3.9706392 2.249303.04784.01762.09557.03539.143635.05238.395739.144841.797613.272544 1.204587.382209.09999.02694.200243.0531.300791.07791.984927.245016 1.995744.385119 3.010673.421868.0041.00017.0083.000428.01244.00058.08855.0031.177141.0051.265739.0065.02999.000554.05997.0015.08997.0018.05995.000689.119904.000444.179858.000423.05992.000028.119851.000296.179774-.000423.03003-.000382.06004-.0013.09005-.0018.08853-.0015.177005-.0035.265488-.0065.0044-.000169.0088-.000423.01328-.00058 1.014709-.03679 2.025376-.176899 3.010089-.421868.09924-.02449.198097-.05036.296786-.07692.0014-.000381.0028-.000695.0042-.0011.407289-.109758.809555-.237547 1.205588-.38254.04707-.01665.09386-.03404.140714-.0513.00068-.000255.0013-.000576.002-.000833 1.429706-.523822 2.796923-1.310581 3.972058-2.250627.192071-.152934.380265-.310689.564444-.472927.06123-.05394.122362-.107995.182695-.16293.509917-.461586.988685-.956542 1.424755-1.488355.662387-.788744 1.232402-1.650587 1.708855-2.560867.0047-.0089.0093-.01778.01394-.02668.04396-.0844.08711-.16918.129448-.254394.000696-.0014.0014-.0028.0021-.0043.26861-.541077.50526-1.097795.707828-1.666073.03079-.09524.07805-.19462.08488-.294795.000301-.000973.000685-.002.000981-.003-.000171-.00066-.000342-.0013-.0005-.002.0025-.04649-.0038-.09314-.02495-.139631-.05452-.160918-.110985-.321149-.168257-.481108-.01423-.04018-.02858-.08033-.04323-.12038-.119653-.329803-.244968-.657575-.375572-.983284-.0085-.02281-.01726-.04557-.02562-.06841-.0245-.05934-.04946-.118502-.07428-.17772-.115861-.282359-.235208-.563317-.358545-.84258-1.177328-2.584448-2.648319-5.0622383-4.501612-7.2289296-.000911-.00104-.0017-.00208-.0026-.00313-.000611-.0006944-.0013-.00146-.0018-.00215-.000256-.0002959-.000495-.0006091-.000769-.0009028-.066455-.0782132-.133372-.156149-.200742-.2337175-.08427-.0952866-.169602-.1897906-.255474-.2838063-.200371-.2211082-.404775-.4387601-.613768-.6524668-.538235-.5252757-1.090628-1.0436385-1.695009-1.4938892-.256757-.1968261-.519805-.3856878-.790454-.5643083-1.657989-1.0802719-3.043031-1.5423309-4.923509-1.5927344-1.707714.0100478-3.606381.8108386-4.810076 1.5927345z" fill="#e4e4e4"/><g fill="#3f3f3f"><path d="m9.04704 15.000005c-.6403318.000469-1.2810724.09046-1.8924535.276316-.177822 1.076108-.2670802 2.207188.098123 3.257082.2861722.926927 1.0115113 1.713994 1.9280255 2.07977 1.116643.462528 2.389411.479407 3.558315.2135.150416-.673503.275994-1.35883.258148-2.051059.02932-.849529-.169582-1.734083-.685839-2.430059-.594652-.821438-1.625248-1.241479-2.625254-1.316383-.212239-.0195-.425622-.02932-.639065-.02917zm-.01316.885727c.343044-.0064.68668.02079 1.02129.08906.14659.06055.367761.02749.471012.148581-.468454.181017-.869424.55926-.999444 1.043634-.1587.507469-.0019 1.088028.377371 1.464417.546212.606715 1.629043.634789 2.197561.04616-.01465.466274-.02997.941866-.144057 1.39191-.472917.04743-.959789.06685-1.431431-.008-.861704-.09238-1.7514658-.510028-2.184866-1.277162-.4926741-.840789-.4971599-1.845054-.3760634-2.7776.1389435-.07615.3015066-.05936.4538346-.07434.2033955-.02668.4089637-.04274.6147908-.04663z"/><path d="m13.008695 22.324627c-.04274.0867.08346.145582.131625.21302.702226.662077 1.395632 1.330041 2.11007 1.984089.144515.137555.360272.197499.569243.247811.0014.390181.0047.780898-.0014 1.171614.08141.07975.230684.06798.336526.02622-.0075-.394463.0081-.789461-.0088-1.183387.215078-.06798.445762-.127385.604525-.271362.716474-.682415 1.444482-1.358943 2.15892-2.042963.02646-.04495.118734-.0851.0821-.140766-.803998-.199639-1.641919-.28367-2.478483-.320601-1.181232-.03639-2.371283.04282-3.504344.316319z"/><path d="m15.950972 3.0000299c-.724214.00427-1.482618.1509767-2.207948.3779132.648538 2.3323741 1.264485 4.6735228 1.904486 7.0079989.08888-.0096.177775-.01808.266657-.0271.174579-2.4443214.430829-4.8852723.596659-7.3301424-.182095-.013897-.368288-.023536-.559854-.028671zm-2.514916.479373c-.86881.3022256-1.674472.7101416-2.295166 1.1133317-.360832.2596997-1.082891.7482717-.428653.3074365 1.280245 2.0305187 2.575931 4.0519601 3.861303 6.0796579.08091-.03158.161798-.06372.242703-.09699-.185741-.9199454-.329365-1.8466538-.517955-2.7660275-.156684-.7665215-.272305-1.5397757-.428989-2.3057327-.16014-.7749793-.282176-1.5559208-.433243-2.3316759z"/></g><path d="m9.2087804 25.754376-6.4499997 4.489489" style="opacity:.2;fill:none;stroke:#000;stroke-width:1.5;stroke-linecap:round;stroke-linejoin:round"/><path d="m9.2087804 24.754376-6.4499997 4.489489" fill="none" stroke="#db3d7f" stroke-linecap="round" stroke-linejoin="round" stroke-width="1.5"/><path d="m23.00813 15.000005c.640332.000469 1.281072.09046 1.892453.276316.177822 1.076108.267081 2.207188-.09812 3.257082-.286172.926927-1.011511 1.713994-1.928025 2.07977-1.116643.462528-2.389411.479407-3.558315.2135-.150416-.673503-.275994-1.35883-.258148-2.051059-.02932-.849529.169582-1.734083.685839-2.430059.594652-.821438 1.625248-1.241479 2.625254-1.316383.212239-.0195.425622-.02932.639065-.02917zm.01316.885727c-.343044-.0064-.68668.02079-1.02129.08906-.14659.06055-.367761.02749-.471012.148581.468454.181017.869424.55926.999444 1.043634.1587.507469.0019 1.088028-.377371 1.464417-.546212.606715-1.629043.634789-2.197561.04616.01465.466274.02997.941866.144057 1.39191.472917.04743.959789.06685 1.431431-.008.861704-.09238 1.751466-.510028 2.184866-1.277162.492674-.840789.49716-1.845054.376063-2.7776-.138943-.07615-.301506-.05936-.453834-.07434-.203396-.02668-.408964-.04274-.614791-.04663z" fill="#3f3f3f"/><g fill="none" stroke-linecap="round" stroke-linejoin="round" stroke-width="1.5"><path d="m13.20878 25.754376-6.4499993 4.489489" opacity=".2" stroke="#000"/><path d="m13.20878 24.754376-6.4499993 4.489489" stroke="#db3d7f"/><path d="m22.758781 25.754376 6.449999 4.489489" opacity=".2" stroke="#000"/><path d="m22.758781 24.754376 6.449999 4.489489" stroke="#db3d7f"/><path d="m18.758781 25.754376 6.449999 4.489489" opacity=".2" stroke="#000"/><path d="m18.758781 24.754376 6.449999 4.489489" stroke="#db3d7f"/></g></svg>