<svg height="32" viewBox="0 0 32 32" width="32" xmlns="http://www.w3.org/2000/svg"><g opacity=".2" transform="matrix(1.031579 0 0 1.0266667 -.505263 .426666)"><path d="m29.571426 5.4285716v14.2965204c-3.295918 1.257835-8.905442 4.642318-10.663264 7.132051l-2.908162-6.211369 4.284693-6.483682s.348979-1.098395-1.376531-1.915338c2.849524-2.8114601 6.998093-5.2194744 10.663264-6.8181824z"/><path d="m2.4285714 5.4285716v14.2965204c3.2959186 1.257835 8.9054416 4.642318 10.6632646 7.132051l2.908162-6.211369-4.284693-6.483682s-.348979-1.098395 1.376531-1.915338c-2.849524-2.8114601-6.9980939-5.2194744-10.6632646-6.8181824z"/></g><path d="m22.999999 10.987378a7 7.0081431 0 0 0 -10.060909-6.2818449 7.0509089 7.0591115 0 0 1  .801817-.050969 6.9618178 6.9699168 0 0 1 3.226365.7963796 7 7.0081431 0 1 0 6.032727 6.9380623c0-.235728 0-.471457-.03819-.707184-.03818-.235729.03819-.458717.03819-.694444z" fill="#502e02"/><path d="m15.775391 4.0039062a7 7.0081431 0 0 0 -2.835938.7011719 7.0509089 7.0591115 0 0 1  .800781-.0507812 6.9618178 6.9699168 0 0 1 2.166016.3515625 7 7.0081431 0 0 1 7.060547 6.3476566c.014478-.121131.033203-.240752.033203-.365235a7 7.0081431 0 0 0 -7.224609-6.9843748zm-1.734375 1.6660157a7 7.0081431 0 0 0 -5.0156254 7.2402341 7 7.0081431 0 0 1 7.9414064-6.4589841 6.9618178 6.9699168 0 0 0 -2.925781-.78125zm8.945312 6.4648441c-.018748.182445-.055484.361075-.02539.546875.012556.077505.008014.154916.013671.232421a7 7.0081431 0 0 0  .025391-.52539c0-.084647-.011904-.169259-.013672-.253906z" fill="#fff" opacity=".1"/><circle cx="16" cy="15" fill="#d9af4f" r="5"/><g transform="matrix(1.031579 0 0 1.0266667 -.505263 -.573334)"><path d="m29.571426 5.4285716v14.2965204c-3.295918 1.257835-8.905442 4.642318-10.663264 7.132051l-2.908162-6.211369 4.284693-6.483682s.348979-1.098395-1.376531-1.915338c2.849524-2.8114601 6.998093-5.2194744 10.663264-6.8181824z" fill="#385ca9"/><path d="m2.4285714 5.4285716v14.2965204c3.2959186 1.257835 8.9054416 4.642318 10.6632646 7.132051l2.908162-6.211369-4.284693-6.483682s-.348979-1.098395 1.376531-1.915338c-2.849524-2.8114601-6.9980939-5.2194744-10.6632646-6.8181824z" fill="#385ca9"/></g><path d="m16 16.428572c-3.469431 0-5-2.142858-5-2.142858l1.876869 14.034082s.468148 1.680204 3.001283 1.680204 3.001283-1.673789 3.001283-1.673789l2.120565-14.040497s-1.530568 2.142858-5 2.142858z" opacity=".2"/><path d="m16 15.428572c-3.469431 0-5-2.142858-5-2.142858l1.876869 14.034082s.468148 1.680204 3.001283 1.680204 3.001283-1.673789 3.001283-1.673789l2.120565-14.040497s-1.530568 2.142858-5 2.142858z" fill="#2a457e"/><path d="m7.2128906 6c-1.1733742-.0505353-2.1837663-.1547922-3.4034128.8323689 3.1299373 1.5125719 5.7992054 3.6778021 8.2979442 6.0992721-.691584.428852-1.107422.974572-1.107422 1.568359 0 1.380712 2.238576 2.5 5 2.5s5-1.119288 5-2.5c0-.591136-.419444-1.130621-1.105469-1.558594 2.471589-2.38928 5.038359-4.5239228 8.126697-6.0263302-1.172131-.961683-2.069707-.9181144-3.200916-.9150758-3.429739.00921-6.562637 3.5279704-8.736328 7.396484l-.0918.160157-.0625.115234-.166016-.294922c-2.129518-3.7980989-5.190392-7.2322271-8.5507774-7.376953z" opacity=".2"/><path d="m7.2128906 5c-1.1733742-.0505353-2.1837663-.1547922-3.4034128.8323689 3.1299373 1.5125719 5.7992054 3.6778022 8.2979442 6.0992721-.691584.428852-1.107422.974572-1.107422 1.568359 0 1.380712 2.238576 2.5 5 2.5s5-1.119288 5-2.5c0-.591136-.419444-1.130621-1.105469-1.558594 2.471589-2.3892804 5.038359-4.5239228 8.126697-6.0263302-1.172131-.961683-2.069707-.9181144-3.200916-.9150758-3.429739.00921-6.562637 3.5279704-8.736328 7.396484l-.0918.160157-.0625.115234-.166016-.294922c-2.129518-3.7980989-5.190392-7.2322271-8.5507774-7.376953z" fill="#e4e4e4"/><path d="m .99999994 13.969849c0 3.109933 1.19173686 4.030151 1.98622896 4.030151 1.9862296 0 3.184588-2.451674-.3972456-2.626315 3.1514842-.268676 3.2772782-2.599446 0-2.686767 3.2772782-.248525 2.6483063-2.686766.3972456-2.686766-.9136654-.013433-1.98622896.859765-1.98622896 3.969697z" opacity=".2"/><path d="m .99999994 12.969849c0 3.109933 1.19173686 4.030151 1.98622896 4.030151 1.9862296 0 3.184588-2.451674-.3972456-2.626315 3.1514842-.268676 3.2772782-2.599446 0-2.686767 3.2772782-.248525 2.6483063-2.6867661.3972456-2.6867661-.9136654-.0134333-1.98622896.8597653-1.98622896 3.9696971z" fill="#d9af4f"/><path d="m31 13.969849c0 3.109933-1.191737 4.030151-1.986229 4.030151-1.98623 0-3.184588-2.451674.397246-2.626315-3.151485-.268676-3.277279-2.599446 0-2.686767-3.277279-.248525-2.648307-2.686766-.397246-2.686766.913665-.0134334 1.986229.859765 1.986229 3.969697z" opacity=".2"/><path d="m31 12.969849c0 3.109933-1.191737 4.030151-1.986229 4.030151-1.98623 0-3.184588-2.451674.397246-2.626315-3.151485-.268676-3.277279-2.599446 0-2.686767-3.277279-.248525-2.648307-2.6867661-.397246-2.6867661.913665-.0134333 1.986229.8597653 1.986229 3.9696971z" fill="#d9af4f"/><path d="m2.9863281 9c-.9136654-.0134333-1.9863281.8607713-1.9863281 3.970703 0 .175462.0161358.318719.0234375.480469.1185803-2.668659 1.1049653-3.4637855 1.9628906-3.451172.8404501 0 1.4552616.340395 1.7246094.779297.4831114-.7837643-.2857517-1.779297-1.7246094-1.779297zm1.4277344 3.105469c-.3615655.29047-.9491892.515675-1.8242187.582031 1.1790567.031415 1.9089148.35395 2.2246093.765625.3349464-.459988.2111749-.98823-.4003906-1.347656zm-.0117187 2.730469c-.4038752.265956-1.0075132.468481-1.8125.537109 1.2006848.058542 1.8540849.375419 2.1308593.767578.2673469-.434447.224744-.942379-.3183593-1.304687z" fill="#fff" opacity=".2"/><path d="m29.013672 9c-1.438858 0-2.207721.9955327-1.72461 1.779297.269348-.438902.88416-.779297 1.72461-.779297.857925-.0126139 1.84431.782513 1.96289 3.451172.007302-.16175.023438-.305007.023438-.480469 0-3.1099317-1.072663-3.9841363-1.986328-3.970703zm-1.427734 3.105469c-.611566.359426-.735338.887668-.400391 1.347656.315694-.411675 1.045552-.73421 2.224609-.765625-.875029-.066356-1.462653-.291561-1.824218-.582031zm.011718 2.730469c-.543103.362308-.585706.87024-.318359 1.304687.276774-.392159.930174-.709036 2.130859-.767578-.804987-.068628-1.408624-.271153-1.8125-.537109z" fill="#fff" opacity=".2"/></svg>