<svg height="32" width="32" xmlns="http://www.w3.org/2000/svg"><rect height="29" opacity=".2" rx="1.45" width="29" x="1" y="2"/><rect fill="#3c4553" height="29" rx="1.45" width="29" x="1" y="1"/><path d="m13.79342 6.0010369c-.624042-.00851-.756701.01641-.936055.1699257-.133277.114078-.242384.3411001-.282719.5903435-.01819.112398-.0277.8994757-.02783 2.1401798-.000158 1.5675401-.0074 1.9614651-.03515 1.9614651-.0191 0-1.019076-.9852816-2.222213-2.1899857-1.2031424-1.2047041-2.2402302-2.2259575-2.3042515-2.2705534-.1742464-.1213689-.4849394-.2619524-.730972-.3295963-.2025266-.0556811-.2922862-.0603687-1.209985-.0703139-.5453037-.0059101-.9917194-.0007312-.9917194.0117227.0000016.01245 2.0829784 2.1050746 4.6290001 4.6509726 2.3647308 2.364618 4.0403708 4.031504 4.3184418 4.299399v-8.9606295zm3.413154 0-.206547.00293v8.9606291c.278071-.267895 1.95371-1.934782 4.318446-4.299403 2.54602-2.5458973 4.628998-4.6385209 4.628999-4.6509719 0-.01245-.446416-.017626-.991719-.011723-.917699.00994-1.007459.014633-1.209986.070314-.246032.067644-.556725.2082273-.730971.3295963-.06403.044595-1.101109 1.0658494-2.304245 2.2705535-1.203137 1.2047041-2.203118 2.1899851-2.222213 2.1899851-.02773 0-.03501-.393925-.03515-1.9614646-.000137-1.2407041-.0096-2.0277818-.02783-2.1401798-.040342-.2492438-.149448-.4762658-.282727-.5903438-.179353-.1535138-.312012-.1784372-.936054-.1699256zm-12.1774899 3.8233185c-.02985 0-.03379.1688652-.024901.9360536.010485.904811.012247.945832.080568 1.196801.086119.316365.2012703.575081.3691484.832048.093356.1429.587852.655917 1.8794319 1.951211l1.7519885 1.757848-1.7519885 1.756383c-1.2915799 1.295295-1.7860761 1.808311-1.8794319 1.951211-.1678781.256968-.2830294.515684-.3691484.832048-.068319.250969-.070081.291991-.080568 1.196801-.00889.767189-.00492.936054.024901.936054.050558 0 6.6695679-6.621908 6.6695679-6.672497 0-.05059-6.6190086-6.6739616-6.6695679-6.6739616zm20.9418259 0c-.05056 0-6.669568 6.6233746-6.669568 6.6739616 0 .05059 6.619013 6.672497 6.669568 6.672497.02982 0 .03379-.168865.0249-.936054-.01048-.90481-.01225-.945832-.08057-1.196801-.08612-.316364-.20127-.57508-.369148-.832048-.09335-.1429-.587852-.655916-1.879432-1.951211l-1.751988-1.756383 1.751988-1.757848c1.29158-1.295294 1.786077-1.808311 1.879432-1.951211.167878-.256967.283029-.515683.369148-.832048.06832-.250969.07008-.29199.08057-1.196801.0089-.7671884.005-.9360536-.0249-.9360536zm-11.970943 8.2076846c-.639079.613932-8.9474441 8.92172-8.9474449 8.948909.0000008.01243.4464157.01911.9917193.01318.9176989-.0099 1.0074585-.0161 1.2099851-.07177.2460326-.06765.5567256-.206762.730972-.328132.064021-.0446 1.1011091-1.067314 2.3042445-2.272018 1.203137-1.204704 2.203118-2.189985 2.222213-2.189985.02773 0 .035.393926.03515 1.961465.000135 1.240704.0096 2.027781.02784 2.14018.06236.385356.250163.642362.528819.725111.09987.02966.279351.04102.673845.04102.118564 0 .131399-.0053.22266-.0073zm3.00006 0v8.960628c.09126.0021.104096.0073.22266.0073.394494 0 .573972-.01136.673842-.04102.278656-.08275.466461-.339755.528819-.725111.01819-.112399.0277-.899476.02783-2.14018.000165-1.56754.0074-1.961464.03515-1.961464.0191 0 1.019076.985279 2.222213 2.189985 1.203135 1.204703 2.240225 2.227424 2.304244 2.272017.174247.121369.484939.260489.730972.328132.202527.05568.292287.06183 1.209985.07177.545304.0059.991719-.00075.99172-.01319 0-.02719-8.308366-8.334976-8.947445-8.948909z" opacity=".2"/><path d="m13.79342 5.0010369c-.624042-.00851-.756701.01641-.936055.1699257-.133277.114078-.242384.3411001-.282719.5903435-.01819.112398-.0277.8994757-.02783 2.1401798-.000158 1.5675397-.0074 1.9614649-.03515 1.9614649-.0191 0-1.019076-.9852814-2.222213-2.1899855-1.2031424-1.2047041-2.2402302-2.2259575-2.3042515-2.2705534-.1742464-.1213689-.4849394-.2619524-.730972-.3295963-.2025266-.0556811-.2922862-.0603687-1.209985-.0703139-.5453037-.0059101-.9917194-.0007312-.9917194.0117227.0000016.01245 2.0829784 2.1050746 4.6290001 4.6509721 2.3647308 2.3646185 4.0403708 4.0315045 4.3184418 4.2993995v-8.9606295zm3.413154 0-.206547.00293v8.9606291c.278071-.267895 1.95371-1.934782 4.318446-4.2994028 2.54602-2.5458975 4.628998-4.6385211 4.628999-4.6509721 0-.01245-.446416-.017626-.991719-.011723-.917699.00994-1.007459.014633-1.209986.070314-.246032.067644-.556725.2082273-.730971.3295963-.06403.044595-1.101109 1.0658494-2.304245 2.2705535-1.203137 1.2047041-2.203118 2.1899849-2.222213 2.1899849-.02773 0-.03501-.3939247-.03515-1.9614644-.000137-1.2407041-.0096-2.0277818-.02783-2.1401798-.040342-.2492438-.149448-.4762658-.282727-.5903438-.179353-.1535138-.312012-.1784372-.936054-.1699256zm-12.1774899 3.8233185c-.02985 0-.03379.1688652-.024901.936054.010485.9048106.012247.9458316.080568 1.1968006.086119.316365.2012703.575081.3691484.832048.093356.1429.587852.655917 1.8794319 1.951211l1.7519885 1.757848-1.7519885 1.756383c-1.2915799 1.295295-1.7860761 1.808311-1.8794319 1.951211-.1678781.256968-.2830294.515684-.3691484.832048-.068319.250969-.070081.291991-.080568 1.196801-.00889.767189-.00492.936054.024901.936054.050558 0 6.6695679-6.621908 6.6695679-6.672497 0-.05059-6.6190086-6.6739616-6.6695679-6.6739616zm20.9418259 0c-.05056 0-6.669568 6.6233746-6.669568 6.6739616 0 .05059 6.619013 6.672497 6.669568 6.672497.02982 0 .03379-.168865.0249-.936054-.01048-.90481-.01225-.945832-.08057-1.196801-.08612-.316364-.20127-.57508-.369148-.832048-.09335-.1429-.587852-.655916-1.879432-1.951211l-1.751988-1.756383 1.751988-1.757848c1.29158-1.295294 1.786077-1.808311 1.879432-1.951211.167878-.256967.283029-.515683.369148-.832048.06832-.250969.07008-.29199.08057-1.1968006.0089-.7671888.005-.936054-.0249-.936054zm-11.970943 8.2076846c-.639079.613932-8.9474441 8.92172-8.9474449 8.948909.0000008.01243.4464157.01911.9917193.01318.9176989-.0099 1.0074585-.0161 1.2099851-.07177.2460326-.06765.5567256-.206762.730972-.328132.064021-.0446 1.1011091-1.067314 2.3042445-2.272018 1.203137-1.204704 2.203118-2.189985 2.222213-2.189985.02773 0 .035.393926.03515 1.961465.000135 1.240704.0096 2.027781.02784 2.14018.06236.385356.250163.642362.528819.725111.09987.02966.279351.04102.673845.04102.118564 0 .131399-.0053.22266-.0073zm3.00006 0v8.960628c.09126.0021.104096.0073.22266.0073.394494 0 .573972-.01136.673842-.04102.278656-.08275.466461-.339755.528819-.725111.01819-.112399.0277-.899476.02783-2.14018.000165-1.56754.0074-1.961464.03515-1.961464.0191 0 1.019076.985279 2.222213 2.189985 1.203135 1.204703 2.240225 2.227424 2.304244 2.272017.174247.121369.484939.260489.730972.328132.202527.05568.292287.06183 1.209985.07177.545304.0059.991719-.00075.99172-.01319 0-.02719-8.308366-8.334976-8.947445-8.948909z" fill="#12a1ff"/><path d="m2.4492188 1c-.8033001 0-1.4492188.6459187-1.4492188 1.4492188v1c0-.8033001.6459187-1.4492188 1.4492188-1.4492188h26.1015622c.8033 0 1.449219.6459187 1.449219 1.4492188v-1c0-.8033001-.645919-1.4492188-1.449219-1.4492188z" fill="#fff" opacity=".1"/><path d="m6.0449219 5.0019531c-.5453037-.0059101-.9921875-.0007351-.9921875.0117188.0000003.0026461.8117355.8133159.984375.9882812.0042807.0000452.0035193-.0000465.0078125 0 .9176988.0099452 1.0064578.0146314 1.2089843.0703125.2460327.0676439.5562224.2087093.7304688.3300782.0640213.0445959 1.1015451 1.0667802 2.304687 2.2714843 1.203137 1.2047041 2.203557 2.1894529 2.222657 2.1894529.02775 0 .034998-.393397.035156-1.9609372.00013-1.2407041.009154-2.0282271.027344-2.140625.040335-.2492434.149926-.4757658.283203-.5898438.179354-.1535157.311505-.1784319.935547-.1699219l.207031.0019531v-1l-.207031-.0019531c-.624042-.00851-.756193.0164062-.935547.1699219-.133277.114078-.242868.3406003-.283203.5898438-.01819.1123979-.027214.8999209-.027344 2.140625-.000158 1.5675396-.007406 1.9609374-.035156 1.9609374-.0191 0-1.01952-.984749-2.222657-2.1894531-1.2031419-1.2047041-2.2406657-2.2268884-2.304687-2.2714843-.1742464-.1213689-.4844361-.2624343-.7304688-.3300782-.2025265-.0556811-.2912855-.0603673-1.2089843-.0703125zm11.1621091 0-.207031.0019531v1l .207031-.0019531c.624042-.0085116.756194.0164081.935547.1699219.133279.114078.242861.3405999.283203.5898438.01823.112398.027207.8999208.027344 2.140625.00014 1.5675392.007426 1.9609372.035156 1.9609372.019095 0 1.01952-.9847488 2.222657-2.1894529 1.203136-1.2047041 2.240657-2.2268893 2.304687-2.2714843.174246-.1213691.484437-.2624342.730469-.3300782.202527-.055681.291285-.0603725 1.208984-.0703125.004293-.0000464.003532.0000451.007813 0 .172639-.1749654.984374-.9856349.984375-.9882812 0-.01245-.446885-.0176218-.992188-.0117188-.917699.00994-1.006457.0146315-1.208984.0703125-.246032.067644-.556223.2087091-.730469.3300782-.06403.044595-1.101551 1.0667802-2.304687 2.2714843-1.203137 1.2047041-2.203562 2.1894531-2.222657 2.1894531-.02773 0-.035016-.3933978-.035156-1.9609374-.000137-1.2407042-.009114-2.028227-.027344-2.140625-.040342-.2492439-.149924-.4757658-.283203-.5898438-.179353-.1535138-.311505-.1784335-.935547-.1699219zm-12.1777341 3.8222657c-.02985 0-.0342796.168358-.0253907.9355468.0033493.2890274.0076959.3913164.0117188.5390624.0035143-.143004-.0014719-.4746092.0136719-.4746092.0467925 0 5.3307411 5.2883872 6.1757811 6.1738282.068026-.071263.494141-.496231.494141-.5 0-.05059-6.6193628-6.6738282-6.6699221-6.6738282zm20.9414061 0c-.05056 0-6.669922 6.6232412-6.669922 6.6738282 0 .003769.426115.428737.494141.5.845039-.885439 6.128988-6.1738282 6.175781-6.1738282.015169 0 .010163.3316052.013672.4746092.004023-.147746.008368-.250035.011719-.5390624.0089-.7671888.004509-.9355468-.025391-.9355468zm-17.3828124 7.1738282-1.2539062 1.255859c-1.2915799 1.295295-1.7875036 1.808272-1.8808594 1.951172-.1678781.256968-.2830216.515667-.3691406.832031-.068319.250969-.0695911.292456-.0800782 1.197266-.0043798.377971.0083023.322066.0117188.460937.0085714-.314778.0218638-.487402.0683594-.658203.086119-.316364.2012625-.575063.3691406-.832031.0933558-.1429.5892795-.655877 1.8808594-1.951172l1.7519531-1.755859zm13.8242184 0-.498047.5 1.751954 1.755859c1.29158 1.295295 1.787509 1.808272 1.880859 1.951172.167878.256968.283021.515667.369141.832031.046496.170801.059787.343425.068359.658203.003416-.138871.016099-.082966.011719-.460937-.01048-.90481-.011758-.946297-.080078-1.197266-.08612-.316364-.201263-.575063-.369141-.832031-.09335-.1429-.589279-.655877-1.880859-1.951172zm-8.412109 1.033203c-.639079.613932-8.9472648 8.92203-8.9472656 8.949219.0000008.012356.4454171.019419.9863281.013672 1.4569787-1.475759 7.3923015-7.41663 7.9609375-7.962891zm3 0v1c .568636.546262 6.503959 6.487132 7.960938 7.962891.540911.005718.986327-.001306.986328-.013672 0-.02719-8.308187-8.335286-8.947266-8.949219z" fill="#fff" opacity=".2"/></svg>