<svg height="32" width="32" xmlns="http://www.w3.org/2000/svg"><rect height="28" opacity=".2" rx="1.4" width="28" x="2" y="3"/><rect fill="#e4e4e4" height="28" rx="1.4" width="28" x="2" y="2"/><path d="m17 7.7293907c0 .029914-.0039.076694-.01091.1401364-.0074.063643-.01635.134515-.02726.213015-.0109.078501-.02726.1608158-.04906.2465436-.02161.085929-.04711.1664372-.07612.2411229-.029.074686-.06152.1345143-.09773.1792857-.03641.044771-.07612.067257-.119538.067257-.05082 0-.114087-.014857-.19021-.044771-.07631-.029714-.165094-.061636-.266526-.095365-.101432-.033529-.221164-.06545-.358614-.095365-.137838-.029714-.289888-.044971-.45654-.044971-.311693 0-.578025.048786-.798995.1457578-.221163.097171-.411373.2485507-.570627.4539372-.159448.2055864-.293392.46518-.402223.7789807-.108634.3138-.202863.683815-.282685 1.109645l-.184758 1.00886h2.322768c.07963 0 .142901.0281.19021.08412.04711.05601.07068.147565.07068.274652 0 .08232-.0074.168043-.0218.257786-.0146.08975-.03251.177679-.05432.263408-.02161.08593-.04888.168042-.08138.246743-.03251.0785-.06892.07626-.108831.136086-.0399.05983-.08527.108414-.135891.145757-.05082.03754-.101455.05446-.152245.05601h-2.333086l-1.858676 9.836545c-.123239.627603-.289891 1.171285-.499959 1.630843-.21027.459562-.4674516.840822-.7717475 1.143379-.304295.302558-.6558997.526816-1.0544236.672574-.3985155.145758-.8478525.218637-1.3478087.218637-.3261005 0-.5924319-.0263-.7989946-.0785-.2065628-.0524-.335056-.100986-.3858692-.145957-.028814-.03755-.050619-.0785-.06522-.123072-.014407-.044973-.0216104-.104802-.0216104-.179487 0-.02992.00545-.08031.016159-.15138.010903-.07107.023753-.145758.037964-.224058.014601-.0787.032708-.161015.054318-.246743.021805-.08613.047309-.166438.076123-.240922.029009-.07489.061521-.134716.097733-.179487.036407-.04497.079822-.06725.1304401-.06725.050813 0 .09968.0054.1467939.01687.047114.01124.097733.02229.1520503.03353.05432.01124.1195377.02229.1956604.03372.076122.01124.1721032.01666.2879416.01666.3042957 0 .5671228-.04858.7880922-.145758.2209694-.09717.4092316-.248551.5651759-.453936.1557497-.205587.2861897-.465181.3913209-.779182.1049358-.313801.2011109-.691245.2879415-1.132133l1.7827462-9.455285h-1.3912323c-.072619 0-.1288829-.02409-.168599-.07288-.039909-.04858-.059771-.06883-.059771-.203343 0-.05983.00372-.132707.010903-.218637.00721-.08593.019855-.173664.037964-.263408.017909-.08975.041663-.175471.070672-.257786.028813-.08211.065223-.157.1088298-.224258.043416-.06725.088583-.121264.1358913-.162622.047114-.04096.1068829-.06163.1793062-.06163h1.369622l.271782-1.401167c.115839-.612745.282686-1.1489976.499956-1.6085561.217271-.4595586.479904-.8388093.788093-1.1377536.307994-.2987429.663103-.5211943 1.065132-.6669522.402225-.1457585.846111-.2186371 1.331659-.2186371.159254 0 .326101.00944.499956.028107.174051.018671.335055.044772.483796.0785.148352.033529.278792.072879.391321.11765.112141.044971.190209.089744.233625.134515.04341.037543.07612.089744.09773.1570008.022.067857.0329.1391321.0329.2136178z" opacity=".1"/><path d="m17 6.7293907c0 .029914-.0039.076694-.01091.1401364-.0074.063643-.01635.134515-.02726.213015-.0109.078501-.02726.1608158-.04906.2465436-.02161.085929-.04711.1664372-.07612.2411229-.029.074686-.06152.1345143-.09773.1792857-.03641.044771-.07612.067257-.119538.067257-.05082 0-.114087-.014857-.19021-.044771-.07631-.029714-.165094-.061636-.266526-.095365-.101432-.033529-.221164-.06545-.358614-.095365-.137838-.029714-.289888-.044971-.45654-.044971-.311693 0-.578025.048786-.798995.1457578-.221163.097171-.411373.2485507-.570627.4539372-.159448.2055864-.293392.46518-.402223.7789807-.108634.3138-.202863.683815-.282685 1.109645l-.184758 1.00886h2.322768c.07963 0 .142901.0281.19021.08412.04711.05601.07068.147565.07068.274652 0 .08232-.0074.168043-.0218.257786-.0146.08975-.03251.177679-.05432.263408-.02161.08593-.04888.168042-.08138.246743-.03251.0785-.06892.07626-.108831.136086-.0399.05983-.08527.108414-.135891.145757-.05082.03754-.101455.05446-.152245.05601h-2.333086l-1.858676 9.836545c-.123239.627603-.289891 1.171285-.499959 1.630843-.21027.459562-.4674516.840822-.7717475 1.143379-.304295.302558-.6558997.526816-1.0544236.672574-.3985155.145758-.8478525.218637-1.3478087.218637-.3261005 0-.5924319-.0263-.7989946-.0785-.2065628-.0524-.335056-.100986-.3858692-.145957-.028814-.03755-.050619-.0785-.06522-.123072-.014407-.044973-.0216104-.104802-.0216104-.179487 0-.02992.00545-.08031.016159-.15138.010903-.07107.023753-.145758.037964-.224058.014601-.0787.032708-.161015.054318-.246743.021805-.08613.047309-.166438.076123-.240922.029009-.07489.061521-.134716.097733-.179487.036407-.04497.079822-.06725.1304401-.06725.050813 0 .09968.0054.1467939.01687.047114.01124.097733.02229.1520503.03353.05432.01124.1195377.02229.1956604.03372.076122.01124.1721032.01666.2879416.01666.3042957 0 .5671228-.04858.7880922-.145758.2209694-.09717.4092316-.248551.5651759-.453936.1557497-.205587.2861897-.465181.3913209-.779182.1049358-.313801.2011109-.691245.2879415-1.132133l1.7827462-9.455285h-1.3912323c-.072619 0-.1288829-.02409-.168599-.07288-.039909-.04858-.059771-.06883-.059771-.203343 0-.05983.00372-.132707.010903-.218637.00721-.08593.019855-.173664.037964-.263408.017909-.08975.041663-.175471.070672-.257786.028813-.08211.065223-.157.1088298-.224258.043416-.06725.088583-.121264.1358913-.162622.047114-.04096.1068829-.06163.1793062-.06163h1.369622l.271782-1.401167c.115839-.612745.282686-1.1489976.499956-1.6085561.217271-.4595586.479904-.8388093.788093-1.1377536.307994-.2987429.663103-.5211943 1.065132-.6669522.402225-.1457585.846111-.2186371 1.331659-.2186371.159254 0 .326101.00944.499956.028107.174051.018671.335055.044772.483796.0785.148352.033529.278792.072879.391321.11765.112141.044971.190209.089744.233625.134515.04341.037543.07612.089744.09773.1570008.022.067857.0329.1391321.0329.2136178z" fill="#e57025"/><path d="m26.99999 15.778663c0 .453205-.04026.9537-.120601 1.501281-.08034.547784-.210162.808065-.389098 1.363155-.179326.555294-.404222 1.095365-.674487 1.620418-.27066.525256-.601619.989826-.992484 1.393712-.391261.404293-.840853.729229-1.348978.974606-.508125.245376-1.080087.368165-1.716077.368165-.65799 0-1.221112-.128472-1.688972-.385213-.467861-.256743-.884654-.626937-1.249985-1.110385l-.197397 1.069675c-.01472.128473-.0933.219196-.235894.271966-.142597.05277-.360029.07936-.652293.07936-.306997 0-.511858-.03024-.61419-.09052-.102333-.06048-.139062-.147552-.109796-.260599l2.917154-15.2115989c.01454-.06048.0383-.1134531.07129-.1587128.0328-.045462.0876-.083009.1644-.1134538.0768-.030036.175595-.052771.296194-.067992.120602-.015018.272233-.022526.455096-.022526.175398 0 .317996.00751.427596.02253.109796.015222.197395.037957.263194.067993.0658.03024.106066.067992.120599.1134538.01453.045258.01825.098232.0112.1587127l-.877384 4.846351c-.03673.196464-.08053.400639-.131598.611919-.05127.211483-.1041.421138-.159096.628968-.0548.207828-.109796.404293-.164596.589186-.0548.185302-.1041.345638-.148097.48162.116867-.264454.301497-.538245.553694-.821575.252196-.283328.54839-.543927.888187-.781998.339996-.237867.711022-.436156 1.113084-.594869.402062-.158714.807855-.237867 1.21738-.237867.438398 0 .814924.06048 1.129386.181242.31446.120963.581192.281503.800586.48162.219199.200115.396561.428849.531891.685592.135133.256945.239431.521196.312497.79316.07306.271963.124331.542102.153596.810209.02927.268513.044.515919.044.742421zm-1.897173.158713c0-.203972-.01826-.437983-.0546-.70264-.03693-.264253-.108028-.50983-.213896-.736535-.106064-.226705-.259661-.417282-.46079-.57214-.200933-.154857-.469824-.232388-.806085-.232388-.394795 0-.797051.117311-1.206382.351322-.409525.234213-.789587.557323-1.140581.968922-.350797.411802-.663489.895247-.937488 1.450338-.274195.555091-.473359.870372-.597691 1.527551l-.361796 1.881219c.34353.521197.71279.90641 1.107584 1.155644.394794.249231.840655.374051 1.337978.374051.380063 0 .723789-.09053 1.030785-.271964.306998-.181444.584924-.422964.83339-.725169.248661-.302002.464129-.64764.647186-1.036711.182666-.38907.334299-.797015.454897-1.223837.120598-.426821.211933-.564514.274196-.994987.06227-.430475.0933-.834768.0933-1.212676z" opacity=".1"/><path d="m26.99999 14.778663c0 .453205-.04026.9537-.120601 1.501281-.08034.547784-.210162.808065-.389098 1.363155-.179326.555294-.404222 1.095365-.674487 1.620418-.27066.525256-.601619.989826-.992484 1.393712-.391261.404293-.840853.729229-1.348978.974606-.508125.245376-1.080087.368165-1.716077.368165-.65799 0-1.221112-.128472-1.688972-.385213-.467861-.256743-.884654-.626937-1.249985-1.110385l-.197397 1.069675c-.01472.128473-.0933.219196-.235894.271966-.142597.05277-.360029.07936-.652293.07936-.306997 0-.511858-.03024-.61419-.09052-.102333-.06048-.139062-.147552-.109796-.260599l2.917154-15.2115989c.01454-.06048.0383-.1134531.07129-.1587128.0328-.045462.0876-.083009.1644-.1134538.0768-.030036.175595-.052771.296194-.067992.120602-.015018.272233-.022526.455096-.022526.175398 0 .317996.00751.427596.02253.109796.015222.197395.037957.263194.067993.0658.03024.106066.067992.120599.1134538.01453.045258.01825.098232.0112.1587127l-.877384 4.846351c-.03673.196464-.08053.400639-.131598.611919-.05127.211483-.1041.421138-.159096.628968-.0548.207828-.109796.404293-.164596.589186-.0548.185302-.1041.345638-.148097.48162.116867-.264454.301497-.538245.553694-.821575.252196-.283328.54839-.543927.888187-.781998.339996-.237867.711022-.436156 1.113084-.594869.402062-.158714.807855-.237867 1.21738-.237867.438398 0 .814924.06048 1.129386.181242.31446.120963.581192.281503.800586.48162.219199.200115.396561.428849.531891.685592.135133.256945.239431.521196.312497.79316.07306.271963.124331.542102.153596.810209.02927.268513.044.515919.044.742421zm-1.897173.158713c0-.203972-.01826-.437983-.0546-.70264-.03693-.264253-.108028-.50983-.213896-.736535-.106064-.226705-.259661-.417282-.46079-.57214-.200933-.154857-.469824-.232388-.806085-.232388-.394795 0-.797051.117311-1.206382.351322-.409525.234213-.789587.557323-1.140581.968922-.350797.411802-.663489.895247-.937488 1.450338-.274195.555091-.473359.870372-.597691 1.527551l-.361796 1.881219c.34353.521197.71279.90641 1.107584 1.155644.394794.249231.840655.374051 1.337978.374051.380063 0 .723789-.09053 1.030785-.271964.306998-.181444.584924-.422964.83339-.725169.248661-.302002.464129-.64764.647186-1.036711.182666-.38907.334299-.797015.454897-1.223837.120598-.426821.211933-.564514.274196-.994987.06227-.430475.0933-.834768.0933-1.212676z" fill="#3f8caa"/><path d="m3.4003906 2c-.7756 0-1.4003906.6247906-1.4003906 1.4003906v1c0-.7756.6247906-1.4003906 1.4003906-1.4003906h25.1992184c.7756 0 1.400391.6247906 1.400391 1.4003906v-1c0-.7756-.624791-1.4003906-1.400391-1.4003906z" fill="#fff" opacity=".2"/></svg>