<svg height="32" width="32" xmlns="http://www.w3.org/2000/svg"><rect fill="#c2352a" height="28" rx="1.4" transform="matrix(0 -1 -1 0 0 0)" width="28" x="-30" y="-30"/><path d="m3.4004 2c-.7756 0-1.4004.6248-1.4004 1.4004v1c0-.7756.6248-1.4004 1.4004-1.4004h25.2c.775 0 1.4.6248 1.4 1.4004v-1c0-.7756-.625-1.4004-1.4-1.4004z" fill="#fff" opacity=".2"/><path d="m2 28.6v1c0 .775.6248 1.4 1.4004 1.4h25.2c.775 0 1.4-.625 1.4-1.4v-1c0 .775-.625 1.4-1.4 1.4h-25.2c-.7752 0-1.4-.625-1.4-1.4z" opacity=".2"/><path d="m19.936 5.9904a1.5002 1.5002 0 0 0 -.668.2011l-11.828 6.6235-5.44-2.561v3.316l4.8613 2.288a1.5002 1.5002 0 0 0 1.3711-.04883l12.5-7.0003a1.5002 1.5002 0 0 0 -.64648-2.8184 1.5002 1.5002 0 0 0 -.15039 0zm0 5a1.5002 1.5002 0 0 0 -.66797.20117l-11.828 6.624-5.44-2.561v3.316l4.8613 2.288a1.5002 1.5002 0 0 0 1.3711-.04883l12.5-7a1.5002 1.5002 0 0 0 -.64648-2.8184 1.5002 1.5002 0 0 0 -.15039 0zm0 5a1.5002 1.5002 0 0 0 -.66797.20117l-11.828 6.624-5.44-2.561v3.316l4.8613 2.288a1.5002 1.5002 0 0 0 1.3711-.04883l12.5-7a1.5002 1.5002 0 0 0 -.64648-2.8184 1.5002 1.5002 0 0 0 -.15039 0z" fill-rule="evenodd" opacity=".2"/><path d="m19.936 4.9902a1.5002 1.5002 0 0 0 -.668.2012l-11.828 6.6226-5.44-2.5601v3.3161l4.8613 2.287a1.5002 1.5002 0 0 0 1.3711-.048l12.5-7.0004a1.5002 1.5002 0 0 0 -.646-2.8184 1.5002 1.5002 0 0 0 -.15 0zm0 5a1.5002 1.5002 0 0 0 -.668.2008l-11.828 6.623-5.44-2.56v3.316l4.8613 2.287a1.5002 1.5002 0 0 0 1.3711-.048l12.5-7a1.5002 1.5002 0 0 0 -.646-2.8188 1.5002 1.5002 0 0 0 -.15 0zm0 4.9998a1.5002 1.5002 0 0 0 -.668.201l-11.828 6.623-5.44-2.56v3.316l4.8613 2.287a1.5002 1.5002 0 0 0 1.3711-.048l12.5-7a1.5002 1.5002 0 0 0 -.646-2.819 1.5002 1.5002 0 0 0 -.15 0z" fill="#fff" fill-rule="evenodd"/></svg>