<svg height="32" width="32" xmlns="http://www.w3.org/2000/svg"><path d="m30 27.611111v-22.2222221c0-.7694445-.6244-1.3888889-1.4-1.3888889h-25.2c-.7756 0-1.4.6194444-1.4 1.3888889v22.2222221c0 .769445.6244 1.388889 1.4 1.388889h25.2c.7756 0 1.4-.619444 1.4-1.388889z" opacity=".2"/><path d="m30 26.611111v-22.2222221c0-.7694445-.6244-1.3888889-1.4-1.3888889h-25.2c-.7756 0-1.4.6194444-1.4 1.3888889v22.2222221c0 .769445.6244 1.388889 1.4 1.388889h25.2c.7756 0 1.4-.619444 1.4-1.388889z" fill="#f28b42"/><path d="m7 20 5-7 6 4 7-6" fill="none" stroke="#fff" stroke-width="1.5"/><path d="m25 10a2 2 0 0 0 -2 2 2 2 0 0 0 2 2 2 2 0 0 0 2-2 2 2 0 0 0 -2-2zm-13 2a2 2 0 0 0 -2 2 2 2 0 0 0 2 2 2 2 0 0 0 2-2 2 2 0 0 0 -2-2zm6 4a2 2 0 0 0 -2 2 2 2 0 0 0 2 2 2 2 0 0 0 2-2 2 2 0 0 0 -2-2zm-11 3a2 2 0 0 0 -2 2 2 2 0 0 0 2 2 2 2 0 0 0 2-2 2 2 0 0 0 -2-2z" opacity=".1"/><g fill="#3f3f3f"><circle cx="7" cy="20" r="2"/><circle cx="12" cy="13" r="2"/><circle cx="18" cy="17" r="2"/><circle cx="25" cy="11" r="2"/></g><path d="m3.4003906 3c-.7756 0-1.4003906.6192274-1.4003906 1.3886719v1c0-.7694445.6247906-1.3886719 1.4003906-1.3886719h25.1992184c.7756 0 1.400391.6192274 1.400391 1.3886719v-1c0-.7694445-.624791-1.3886719-1.400391-1.3886719z" fill="#fff" opacity=".2"/></svg>