<svg height="32" viewBox="0 0 32 32" width="32" xmlns="http://www.w3.org/2000/svg"><path d="m2.181722 21.825325c-.0999475-.103259-.1817221-1.975901-.1817221-4.161426v-3.973682l1.28044-.568155c2.1865318-.9702 3.1458369-2.53782 2.8288066-4.8585585-.0766542-.5610961-.0599575-1.1491126.0371663-1.3067043.2271298-.3687324 6.4460802-3.9568061 6.8651102-3.9568061.174337 0 .422098.1367429.550581.3038735.824215 1.0721195 1.66602 5.1196247 1.381394 6.6418751-.128081.6849743-.326531.8684223-1.422052 1.3145413-1.543602.628583-2.838894 1.909089-3.5373164 3.496937-.4186468.951776-.5036866 1.542444-.435971 3.028106l.084123 1.845685-.8099288.548576c-1.7462759 1.182765-6.0551219 2.250627-6.6405973 1.645738z" opacity=".2"/><path d="m29.818278 21.825325c.09995-.103259.181722-1.975901.181722-4.161426v-3.973682l-1.28044-.568155c-2.186532-.9702-3.076897-2.53782-2.759867-4.8585585.07665-.5610961.05996-1.1491126-.03716-1.3067043-.227133-.3687324-6.515023-3.9568061-6.934053-3.9568061-.174338 0-.422097.1367429-.55058.3038735-.824215 1.0721195-1.66602 5.1196247-1.381394 6.6418751.128079.6849743.32653.8684223 1.422052 1.3145413 1.543601.628583 2.838893 1.909089 3.537315 3.496937.418647.951776.503687 1.542444.435971 3.028106l-.08412 1.845685.809929.548576c1.746275 1.182765 6.055122 2.250627 6.640596 1.645738z" opacity=".2"/><path d="m8.6368357 29.254736c-3.6265521-2.158876-3.7796472-2.292027-3.5814305-3.11516.1964549-.81583 3.1605905-3.718897 4.6121656-4.517134l1.1318932-.622442 1.031067.851154c1.298468 1.071899 2.491757 1.519718 4.087684 1.534032 1.601797.01437 2.625991-.353666 4.119277-1.480212l1.197859-.903674 1.13452.617414c.623989.339578 1.945089 1.439167 2.935783 2.443531 2.487547 2.521866 2.482114 2.538138-1.67709 5.027872-1.157541.692914-2.232895 1.305795-2.903343 1.660698-.739669.482111-.82814.142388-1.248315-.364966-.618288-.631886-1.762212-1.385856-3.476906-1.385856-1.869361 0-2.996921.912195-3.527382 1.55102-.379624.686768-.609237.44097-1.127976.207494-.660555-.328055-1.6610126-.880619-2.7078063-1.503771z" opacity=".2"/><path d="m8.6368357 28.254743c-3.6265521-2.158876-3.7796472-2.292027-3.5814305-3.11516.1964549-.81583 3.1605905-3.718897 4.6121656-4.517134l1.1318932-.622442 1.031067.851154c1.298468 1.071899 2.491757 1.519718 4.087684 1.534032 1.601797.01437 2.625991-.353666 4.119277-1.480212l1.197859-.903674 1.13452.617414c.623989.339578 1.945089 1.439167 2.935783 2.443531 2.487547 2.521866 2.482114 2.538138-1.67709 5.027872-1.157541.692914-2.232895 1.305795-2.903343 1.660698-.739669.482111-.82814.142388-1.248315-.364966-.618288-.631886-1.762212-1.385856-3.476906-1.385856-1.869361 0-2.996921.912195-3.527382 1.55102-.379624.686768-.609237.44097-1.127976.207494-.660555-.328055-1.6610126-.880619-2.7078063-1.503771z" fill="#4061dc"/><path d="m2.181722 20.825332c-.0999475-.103259-.1817221-1.975901-.1817221-4.161426v-3.973682l1.28044-.568155c2.1865318-.9702 3.1458369-2.5378204 2.8288066-4.8585586-.0766542-.5610961-.0599575-1.1491126.0371663-1.3067043.2271298-.3687324 6.4460802-3.9568061 6.8651102-3.9568061.174337 0 .422098.1367429.550581.3038735.824215 1.0721195 1.66602 5.1196247 1.381394 6.6418751-.128081.6849739-.326531.8684225-1.422052 1.3145414-1.543602.628583-2.838894 1.909089-3.5373164 3.496937-.4186468.951776-.5036866 1.542444-.435971 3.028106l.084123 1.845685-.8099288.548576c-1.7462759 1.182765-6.0551219 2.250627-6.6405973 1.645738z" fill="#088aff"/><path d="m29.818278 20.825332c.09995-.103259.181722-1.975901.181722-4.161426v-3.973682l-1.28044-.568155c-2.186532-.9702-3.076897-2.5378204-2.759867-4.8585586.076655-.5610961.059958-1.1491126-.037164-1.3067043-.227133-.3687324-6.515023-3.9568061-6.934053-3.9568061-.174338 0-.422097.1367429-.55058.3038735-.824215 1.0721195-1.66602 5.1196247-1.381394 6.6418751.128079.6849739.32653.8684225 1.422052 1.3145414 1.543601.628583 2.838893 1.909089 3.537315 3.496937.418647.951776.503687 1.542444.435971 3.028106l-.08412 1.845685.809929.548576c1.746275 1.182765 6.055122 2.250627 6.640596 1.645738z" fill="#5fbbff"/><circle cx="16" cy="17" fill-rule="evenodd" opacity=".2" r="7"/><g fill="#fff"><circle cx="16" cy="16" fill-rule="evenodd" r="7"/><path d="m13.011719 2c-.41903 0-6.6381048 3.5882989-6.8652346 3.9570312-.087692.1422878-.0998251.6429568-.046875 1.1503907.0127834-.06084.0277674-.1193869.046875-.1503907.2271298-.3687323 6.4462046-3.9570312 6.8652346-3.9570312.174337 0 .422298.1375569.550781.3046875.641552.8345154 1.284857 3.4588546 1.408203 5.3046875.140197-1.7016371-.635047-5.2989841-1.408203-6.3046875-.128483-.1671306-.376444-.3046875-.550781-.3046875zm-6.8808596 6.578125c-.1589516 1.610631-1.1072301 2.769847-2.8496094 3.542969l-1.28125.568359v1l1.28125-.568359c2.0837315-.924586 3.037466-2.398499 2.8496094-4.542969zm3.4140625 8.023437c-.0159934.335052-.0179286.704544.0039062 1.183594l.0390625.875.0449219-.029297-.0839844-1.845703c-.0032148-.070533-.0013993-.116961-.0039062-.183594z" opacity=".2"/><path d="m18.988281 2c-.174338 0-.422298.1375569-.550781.3046875-.773156 1.0057034-1.5484 4.6030504-1.408203 6.3046875.123346-1.8458329.766651-4.4701721 1.408203-5.3046875.128483-.1671306.376443-.3046875.550781-.3046875.41903 0 6.706457 3.5882989 6.933594 3.9570312.019107.0310038.034092.0895507.046875.1503907.052951-.5074339.040815-1.0081029-.046875-1.1503907-.227133-.3687323-6.514564-3.9570312-6.933594-3.9570312zm6.945313 6.6210938c-.177696 2.1209442.715474 3.5816482 2.785156 4.5000002l1.28125.568359v-1l-1.28125-.568359c-1.72704-.766316-2.631648-1.911538-2.785156-3.5000002zm-3.478516 7.9804682c-.002507.066633-.000691.113061-.003906.183594l-.083984 1.845703.044921.029297.039063-.875c.021835-.47905.019899-.848542.003906-1.183594z" opacity=".2"/></g></svg>