<svg height="32" width="32" xmlns="http://www.w3.org/2000/svg"><rect height="26" opacity=".2" rx="1.45" ry="1.444" width="29" x="1" y="4"/><rect fill="#8e8e8e" height="26" rx="1.45" ry="1.444" width="29" x="1" y="3"/><path d="m1 6h29v20h-29z" fill="#35454e"/><path d="m8 10v2 12h2 1.5v-2h-1.5v-10h1.5v-2zm10.5 0v2h1.5v10h-1.5v2h3.5v-2-11-1zm5.5 3a1 1 0 0 0 -1 1 1 1 0 0 0 1 1 1 1 0 0 0 1-1 1 1 0 0 0 -1-1zm0 7a1 1 0 0 0 -1 1 1 1 0 0 0 1 1 1 1 0 0 0 1-1 1 1 0 0 0 -1-1z" opacity=".2"/><g fill="#267edb"><path d="m8 10h2v13h-2z"/><path d="m8 9h3.5v2h-3.5z"/><path d="m8 21h3.5v2h-3.5z"/><g transform="scale(-1 1)"><path d="m-22 10h2v13h-2z"/><path d="m-22 9h3.5v2h-3.5z"/><path d="m-22 21h3.5v2h-3.5z"/></g></g><path d="m12.962891 13.062891-1.525391.748047 3.332031 6.798828c-.07988.142072-.161319.320431-.240234.447266-.25521.41018-.506862.732829-.699219.914062s-.29053.179688-.230469.179688h-.599609v1.699218h.599609c.585062 0 1.033764-.300834 1.396485-.642578s.67396-.765602.976562-1.251953c.605205-.972701 1.163049-2.199713 1.654297-3.419922.982496-2.440417 1.689453-4.859375 1.689453-4.859375l-1.632812-.478515s-.692261 2.362042-1.634766 4.703125c-.106595.264771-.223615.51313-.335937.773437z" opacity=".2"/><path d="m12.2 12.437 3.5 7.141948" fill="none" stroke="#fff" stroke-width="1.7"/><path d="m18.5 12.437s-2.8 9.563-4.9 9.563h-.6" fill="none" stroke="#fff" stroke-width="1.7"/><path d="m25 13a1 1 0 0 1 -1 1 1 1 0 0 1 -1-1 1 1 0 0 1 1-1 1 1 0 0 1 1 1z" fill="#267edb"/><path d="m25 20a1 1 0 0 1 -1 1 1 1 0 0 1 -1-1 1 1 0 0 1 1-1 1 1 0 0 1 1 1z" fill="#267edb"/><path d="m2.4492188 3c-.8033001 0-1.4492188.6450903-1.4492188 1.4453125v1c0-.8002222.6459187-1.4453125 1.4492188-1.4453125h26.1015622c.8033 0 1.449219.6450903 1.449219 1.4453125v-1c0-.8002222-.645919-1.4453125-1.449219-1.4453125z" fill="#fff" opacity=".1"/><path d="m1 6h29v1h-29z" opacity=".2"/><path d="m1 26h29v1h-29z" fill="#fff" opacity=".1"/></svg>