<svg height="32" width="32" xmlns="http://www.w3.org/2000/svg"><g transform="translate(-2 -3)"><path d="m27.005399 4.1200596-14.975053 3.4524991c-2.1107573.2660768-2.030346 2.4274413-2.030346 2.4274413v2 7.214844c-.4876926-.140479-.9924823-.21278-1.5-.214844-3.0375661 0-5.5 2.462434-5.5 5.5s2.4624339 5.5 5.5 5.5c2.842824-.0014 5.216171-2.168948 5.474609-5h .025391v-.5-13.341797l11-2.6162626v7.6729036c-.487693-.140479-.992482-.21278-1.5-.214844-3.037566 0-5.5 2.462434-5.5 5.5s2.462434 5.5 5.5 5.5c2.842824-.0014 5.216171-2.168948 5.474609-5h .025391v-14.2998565-1.7001435s.02603-2.3053357-1.994601-1.8799404z" opacity=".2"/><path d="m27.005399 3.1200596-14.975053 3.4524991c-2.1107573.2660768-2.030346 2.4274413-2.030346 2.4274413v2 7.214844c-.4876926-.140479-.9924823-.21278-1.5-.214844-3.0375661 0-5.5 2.462434-5.5 5.5s2.4624339 5.5 5.5 5.5c2.842824-.0014 5.216171-2.168948 5.474609-5h .025391v-.5-13.341797l11-2.6162626v7.6729036c-.487693-.140479-1.118984 2.507018-1.626502 2.504954-3.037566 0-5.373498-.257364-5.373498 2.780202s2.462434 5.5 5.5 5.5c2.842824-.0014 5.216171-2.168948 5.474609-5h .025391v-14.2998565-1.7001435s.02603-2.3053357-1.994601-1.8799404z" fill="#ae66e0"/><path d="m27.361328 3.0703125c-.110806.00648-.229179.022241-.355469.048828l-14.974609 3.4531251c-2.1107573.2660768-2.03125 2.4277344-2.03125 2.4277344v1s-.079507-2.1616576 2.03125-2.4277344l14.974609-3.453125c2.020631-.4253953 1.994141 1.8808594 1.994141 1.8808594v-1s .02342-2.0269307-1.638672-1.9296875zm-18.861328 14.9296875c-3.0375661 0-5.5 2.462434-5.5 5.5 0 .168742.010516.335131.0253906.5.2528865-2.802974 2.6057856-5 5.4746094-5 .5075177.0021 1.0123074.07437 1.5.214844v-1c-.4876926-.140479-.9924823-.21278-1.5-.214844z" fill="#fff" opacity=".2"/></g><path d="m30.628 14.063c-1.733-2.986-8.776-2.095-10.325-1.237l-12.608 7.24c-.66527.38199-.89163 1.2222-.50754 1.8838l4.8532 8.3599c.38409.66163 1.2289.88675 1.8942.50476l12.609-7.2399c.98016-.58394 5.8185-6.5256 4.0852-9.5113zm-2.4017 1.379a1.3866 1.379 0 0 1 -.50754 1.8838 1.3866 1.379 0 0 1 -1.8942-.50476 1.3866 1.379 0 0 1  .50754-1.8838 1.3866 1.379 0 0 1 1.8942.50476z" fill="#f6dd79"/><path d="m28.227 15.442a1.3866 1.379 0 0 0 -1.8942-.50476 1.3866 1.379 0 0 0 -.50754 1.8838 1.3866 1.379 0 0 0 1.8942.50476 1.3866 1.379 0 0 0  .50754-1.8838zm-.60042.34476c.19556.33686.08495.74741-.25377.9419s-.75152.08449-.94708-.25238c-.19556-.33686-.08495-.74741.25377-.9419s.75152-.08449.94708.25238z" fill="#fff"/><path d="m9.0811 22.454.69331 1.1943 1.2008-.68952 2.7732 4.7771 1.2008-.68952-2.7732-4.7771 1.2008-.68952-.69331-1.1943-1.2008.68952-1.2008.68952zm4.8034-2.7581.69331 1.1943.69331 1.1943.69331 1.1943 1.3866 2.3886 1.2008-.68952-1.3866-2.3886 1.2008-.68952 1.3866 2.3886 1.2008-.68952-3.4665-5.9714-2.4017 1.379-1.2008.68952zm4.8034-2.7581.69331 1.1943 2.7732 4.7771 1.2008-.68952 2.4017-1.379-.69331-1.1943-.34666-.59714.60042-.34476-.69331-1.1943-2.4017 1.379.69331 1.1943.60042-.34476.34665.59714-1.2008.68952-2.0799-3.5828 2.4017-1.379-.69331-1.1943-3.6025 2.0685zm-2.9092 3.2628 1.2008-.68952.69331 1.1943-1.2008.68952z" opacity=".3"/><path d="m25.396 12.004c-2.1711-.04328-4.3197.39345-5.0938.82227l-12.607 7.24c-.6038.3467-.84129 1.0679-.59375 1.6934.11048-.28145.309-.52986.59375-.69336l12.608-7.24c1.5481-.85763 8.5929-1.7494 10.326 1.2363.18608.32054.28258.68019.33008 1.0586.09092-.75803.01296-1.4677-.33008-2.0586-.86664-1.4928-3.0614-2.0153-5.2324-2.0586z" fill="#fff" opacity=".2"/><path d="m26.992 14.751a1.3866 1.379 0 0 0 -.66016.18555 1.3866 1.379 0 0 0 -.59766 1.6914 1.3866 1.379 0 0 1  .59766-.69141 1.3866 1.379 0 0 1 1.8945.50391 1.3866 1.379 0 0 1  .08984.19141 1.3866 1.379 0 0 0 -.08984-1.1914 1.3866 1.379 0 0 0 -1.2344-.68945zm3.9688 1.3691c-.36844 3.0721-3.6318 6.9848-4.418 7.4531l-12.607 7.2402c-.6653.38199-1.5104.15577-1.8945-.50586l-4.8545-8.358c-.0359-.062-.0606-.127-.0859-.192-.1488.377-.1343.812.0859 1.192l4.8535 8.3613c.38409.66163 1.2292.8859 1.8945.50391l12.607-7.24c.87497-.52127 4.8134-5.307 4.418-8.4531z" opacity=".2"/></svg>