<svg height="32" width="32" xmlns="http://www.w3.org/2000/svg"><circle cx="16" cy="17" fill-rule="evenodd" opacity=".2" r="14"/><path d="m26.607697 9.617953c-3.772232-6.5336973-10.019824-8.63540714-16.6423116-5.1788561-.1797488.0938207-.781942-.6552681-.9592821-.5528806-6.7110373 3.8746185-8.9945072 12.3966447-5.1198882 19.1076807 3.874619 6.711037 12.3966439 8.994507 19.1076819 5.119888.199834-.115374-.216104-.940848-.02416-1.064294 6.253886-4.022219 7.397211-10.920337 3.637968-17.431538z" fill="#fbd713"/><path d="m28.113785 9.0061033c-3.874619-6.7110372-12.396645-8.99450714-19.1076817-5.1198884l13.9877937 24.2275691c6.711037-3.874619 8.994507-12.396645 5.119888-19.1076807z" fill="#f88301"/><g fill-rule="evenodd"><circle cx="16" cy="17" opacity=".2" r="10"/><path d="m24.658807 20.999165c-2.760962 4.782127-8.875845 6.420606-13.657972 3.659642-.17411-.100522.04042-.686087-.12529-.795274-4.3858374-2.889785-4.5127055-7.437666-1.8522655-12.045683 2.6508425-4.5913947 6.2307155-6.2368456 10.9170225-3.9210295.194678.096203.868129-.6657489 1.058863-.5556287 4.782128 2.7609622 6.420606 8.8758452 3.659642 13.6579732z" fill="#425dbb"/><path d="m16.267578 7.0039062c-.873046-.0226746-1.739274.0784165-2.582031.2792969-1.797602.7021921-3.344986 2.2538315-4.6621095 4.5351559-2.66044 4.608017-2.5342749 9.155137 1.8515625 12.044922.16571.109187-.04911.6944.125.794922.146003.084295.296958.152387.445312.228516l9.554688-16.5449221c-.300719-.17362-.607875-.3296119-.917969-.46875-.057418.0258117-.108872.0400935-.142578.0234375-.38822-.1918456-.765537-.3463223-1.138672-.484375-.834435-.2443482-1.685055-.3861751-2.533203-.4082032z" opacity=".2"/><path d="m11.000835 24.658807c-4.7821279-2.760962-6.4206057-8.875845-3.6596432-13.657972 2.7609622-4.7821272 8.8758452-6.4206055 13.6579732-3.6596432z" fill="#4c8ee6"/><path d="m16 2a14 14 0 0 0 -14 14 14 14 0 0 0  .0214844.585938 14 14 0 0 1 13.9785156-13.585938 14 14 0 0 1 13.978516 13.414062 14 14 0 0 0  .021484-.414062 14 14 0 0 0 -14-14z" fill="#fff" opacity=".2"/><path d="m16.267578 6.0039062c-3.545724-.0920891-7.0276196 1.7083813-8.9257811 4.9960938-1.0007106 1.733281-1.4157157 3.64166-1.3203125 5.501953.0754194-1.535856.4985694-3.076699 1.3203125-4.5 2.6766671-4.6361239 8.5021051-6.3060371 13.2128911-3.8886718l.445312-.7714843c-1.494415-.8628007-3.120729-1.296032-4.732422-1.3378907z" fill="#fff" opacity=".2"/></g></svg>