<svg height="32" viewBox="0 0 32 32" width="32" xmlns="http://www.w3.org/2000/svg"><g transform="translate(0 -288.53333)"><rect fill="#3f3f3f" height="26" rx=".839" ry=".788" width="26" x="3" y="291.53"/><path d="m2.6660166 291.53338c-.3693342 0-.6660147.29669-.6660147.66603v6.66794c0 .36926.2966804.66603.6660147.66603h6.6679597c.3693349 0 .6660146-.29669.6660146-.66603v-6.66794c0-.36926-.2966812-.66603-.6660146-.66603zm9.9999864 0c-.369335 0-.666015.29669-.666015.66603v6.66794c0 .36926.296681.66603.666015.66603h6.667959c.369335 0 .666015-.29669.666015-.66603v-6.66794c0-.36926-.296681-.66603-.666015-.66603zm9.999986 0c-.369334 0-.666015.29669-.666015.66603v6.66794c0 .36926.296682.66603.666015.66603h6.667959c.369335 0 .666015-.29669.666015-.66603v-6.66794c0-.36926-.296685-.66603-.666015-.66603zm-19.9999724 9.99997c-.3693323 0-.6660147.2967-.6660147.66603v6.66795c0 .36926.2966823.66603.6660147.66603h6.6679597c.3693311 0 .6660146-.2967.6660146-.66603v-6.66795c0-.36926-.296685-.66603-.6660146-.66603zm9.9999864 0c-.369331 0-.666015.2967-.666015.66603v6.66795c0 .36926.296681.66603.666015.66603h6.667959c.369335 0 .666015-.2967.666015-.66603v-6.66795c0-.36926-.296685-.66603-.666015-.66603zm9.999986 0c-.369331 0-.666015.2967-.666015.66603v6.66795c0 .36926.296682.66603.666015.66603h6.667959c.369332 0 .666015-.2967.666015-.66603v-6.66795c0-.36926-.296685-.66603-.666015-.66603zm-19.9999724 10.00002c-.3693323 0-.6660147.29669-.6660147.66598v6.66799c0 .36926.2966823.66599.6660147.66599h6.6679597c.3693311 0 .6660146-.29669.6660146-.66599v-6.66799c0-.36925-.296685-.66598-.6660146-.66598zm9.9999864 0c-.369331 0-.666015.29669-.666015.66598v6.66799c0 .36926.296681.66599.666015.66599h6.667959c.369335 0 .666015-.29669.666015-.66599v-6.66799c0-.36925-.296685-.66598-.666015-.66598zm9.999986 0c-.369331 0-.666015.29669-.666015.66598v6.66799c0 .36926.296682.66599.666015.66599h6.667959c.369332 0 .666015-.29669.666015-.66599v-6.66799c0-.36925-.296685-.66598-.666015-.66598z" opacity=".2"/><path d="m2.6666721 290.53339c-.3693342 0-.6666683.29745-.6666683.66671v6.66666c0 .36926.2973339.66664.6666683.66664h6.666684c.3693349 0 .6666689-.29745.6666689-.66664v-6.66666c0-.36926-.2973355-.66671-.6666689-.66671z" fill="#b7e267"/><path d="m12.666659 290.53339c-.369335 0-.666669.29745-.666669.66671v6.66666c0 .36926.297335.66664.666669.66664h6.666683c.369335 0 .666669-.29745.666669-.66664v-6.66666c0-.36926-.297335-.66671-.666669-.66671z" fill="#3bd3e0"/><path d="m22.666645 290.53339c-.369335 0-.666668.29745-.666668.66671v6.66666c0 .36926.297335.66664.666668.66664h6.666683c.369335 0 .66667-.29745.66667-.66664v-6.66666c0-.36926-.297339-.66671-.66667-.66671z" fill="#3bd3e0"/><path d="m2.6666691 300.53337c-.3693323 0-.6666653.29745-.6666653.66667v6.6667c0 .36926.2973328.66663.6666653.66663h6.6666533c.3693312 0 .6666658-.29745.6666658-.66663v-6.6667c0-.36926-.297335-.66667-.6666658-.66667z" fill="#b7e267"/><path d="m12.666655 300.53337c-.369331 0-.666665.29745-.666665.66667v6.6667c0 .36926.297331.66663.666665.66663h6.666654c.369335 0 .666666-.29745.666666-.66663v-6.6667c0-.36926-.297335-.66667-.666666-.66667z" fill="#509b1e"/><path d="m22.666642 300.53337c-.369331 0-.666665.29745-.666665.66667v6.6667c0 .36926.297331.66663.666665.66663h6.666653c.369331 0 .666667-.29745.666667-.66663v-6.6667c0-.36926-.297339-.66667-.666667-.66667z" fill="#3bd3e0"/><path d="m2.6666685 310.53334c-.3693323 0-.6666653.29745-.6666653.66667v6.66666c0 .36926.2973327.66667.6666653.66667h6.6666536c.3693311 0 .6666658-.29745.6666658-.66667v-6.66666c0-.36926-.2973351-.66667-.6666658-.66667z" fill="#509b1e"/><path d="m12.666655 310.53334c-.369331 0-.666665.29745-.666665.66667v6.66666c0 .36926.297331.66667.666665.66667h6.666654c.369335 0 .666666-.29745.666666-.66667v-6.66666c0-.36926-.297335-.66667-.666666-.66667z" fill="#007aa0"/><path d="m22.666642 310.53334c-.369331 0-.666665.29745-.666665.66667v6.66666c0 .36926.297331.66667.666665.66667h6.666653c.369331 0 .666667-.29745.666667-.66667v-6.66666c0-.36926-.297339-.66667-.666667-.66667z" fill="#007aa0"/><path d="m2.6660166 290.53338c-.3693342 0-.6660147.29675-.6660147.66601v1c0-.36933.2966805-.66601.6660147-.66601h6.6679596c.3693334 0 .6660147.29675.6660147.66601v-1c0-.36926-.2966813-.66601-.6660147-.66601zm9.9999864 0c-.369335 0-.666015.29675-.666015.66601v1c0-.36933.29668-.66601.666015-.66601h6.667959c.369334 0 .666015.29675.666015.66601v-1c0-.36926-.296682-.66601-.666015-.66601zm9.999986 0c-.369335 0-.666015.29675-.666015.66601v1c0-.36933.29668-.66601.666015-.66601h6.667959c.369331 0 .666015.29675.666015.66601v-1c0-.36926-.296683-.66601-.666015-.66601zm-19.9999724 9.99998c-.3693323 0-.6660147.2968-.6660147.66602v1c0-.36934.2966824-.66602.6660147-.66602h6.6679596c.3693296 0 .6660147.29676.6660147.66602v-1c0-.36926-.296684-.66602-.6660147-.66602zm9.9999864 0c-.369331 0-.666015.2968-.666015.66602v1c0-.36934.296684-.66602.666015-.66602h6.667959c.36933 0 .666015.29676.666015.66602v-1c0-.36926-.296684-.66602-.666015-.66602zm9.999986 0c-.369331 0-.666015.2968-.666015.66602v1c0-.36934.296684-.66602.666015-.66602h6.667959c.369331 0 .666015.29676.666015.66602v-1c0-.36926-.296686-.66602-.666015-.66602zm-19.9999724 9.99999c-.3693323 0-.6660147.29679-.6660147.66601v1c0-.36929.2966824-.66601.6660147-.66601h6.6679596c.3693296 0 .6660147.29675.6660147.66601v-1c0-.36925-.296684-.66601-.6660147-.66601zm9.9999864 0c-.369331 0-.666015.29679-.666015.66601v1c0-.36929.296684-.66601.666015-.66601h6.667959c.36933 0 .666015.29675.666015.66601v-1c0-.36925-.296684-.66601-.666015-.66601zm9.999986 0c-.369331 0-.666015.29679-.666015.66601v1c0-.36929.296684-.66601.666015-.66601h6.667959c.369331 0 .666015.29675.666015.66601v-1c0-.36925-.296686-.66601-.666015-.66601z" fill="#fff" opacity=".2"/></g></svg>