<svg height="32" width="32" xmlns="http://www.w3.org/2000/svg"><path d="m2.637 10.827c-.02875.0187-.05481.0408-.08204.0615l-.0164.0123v.002c-.3259.2559-.53868.64951-.53868 1.0979l.000015 12.199c.000002 2 1.5771 2 2 2h24s2 0 2-2l-.00002-12.199c0-.45851-.22188-.86056-.56054-1.1156l.006-.008-13.445-9.876s-13.445 9.8886-13.363 9.8271z" fill="#fe9700"/><path d="m16 1.002s-13.445 9.888-13.363 9.826l-.0003-.002c-.0287.019-.0548.042-.082.063l-.0156.011v.002c-.3259.256-.5391.65-.5391 1.098v1.002c0-.448.2132-.844.5391-1.1v-.002l.0156-.011c.0272-.021.0533-.042.082-.061-.082.062 13.363-9.826 13.363-9.826l13.445 9.875-.006.008c.339.255.561.658.561 1.117v-1.002c0-.459-.222-.86-.561-1.115l.006-.008-13.445-9.875z" fill="#fff" opacity=".1"/><rect fill="#ebebeb" height="18" rx="1.5" ry="1.499" width="22" x="5" y="4"/><path d="m2 12 26 18h-24c-1-.000008-2-.4945-2-1.978z" fill="#fec006"/><path d="m28 30c2 0 2-1.978 2-1.978v-16.022l-26 18z" fill="#fecd38"/><path d="m16 7a5 5 0 0 0 -5 5 5 5 0 0 0 5 5h3.5c.277 0 .5-.223.5-.5s-.223-.5-.5-.5h-3.5a4 4 0 0 1 -4-4 4 4 0 0 1 4-4 4 4 0 0 1 4 4v1.5c0 .277-.223.5-.5.5s-.5-.223-.5-.5v-1.5a3 3 0 0 0 -3-3 3 3 0 0 0 -3 3 3 3 0 0 0 3 3 3 3 0 0 0 2.1309-.89062c.233.525.756.891 1.369.891.831 0 1.5-.669 1.5-1.5v-1.5a5 5 0 0 0 -5-5zm0 3a2 2 0 0 1 2 2 2 2 0 0 1 -2 2 2 2 0 0 1 -2-2 2 2 0 0 1 2-2z" fill="#848484"/><path d="m2 28v1c0 1.2374.68276 1.7863 1.4824 1.9434l-.082.057h25.2l-.0957-.06641c1.4803-.31236 1.4961-1.9336 1.4961-1.9336v-1s-.01579 1.6212-1.4961 1.9336l.096.066h-25.2l.082-.057c-.7996-.157-1.4824-.706-1.4824-1.943z" opacity=".2"/></svg>