<svg height="32" width="32" xmlns="http://www.w3.org/2000/svg"><rect fill="#6966b2" fill-opacity=".992" height="28" rx="14" transform="matrix(0 -1 -1 0 0 0)" width="28" x="-30" y="-30"/><path d="m10.537 25.193s1.073.31156 2.5013.48967c.57842.07213 2.7792.32424 4.4666.31764 0 0 2.0551.0019 3.1895-.15882 1.187-.16861 1.8594-.3838 2.2337-.81323.0098-.10239.18064-.43615-.28076-.75801-1.1796-.82288-2.7045-1.0481-5.6665-1.7516-3.2754-.82349-4.2542-1.6121-4.7433-2.1827-.46362-.57196.08703-1.7598 2.7263-2.3425 1.3363-.32519 6.3132-.38494 6.3132-.38494-1.4279-1.1336-4.1085-3.1632-4.6564-3.5948-.48056-.37855-1.255-.95947-1.3382-1.4786-.11229-.50534.68314-.74866 1.1043-.77673 1.3569-.09358 3.2099.06551 4.8569.39304.8279.16464.97325.14038.97325.14038 1.1791.05615 2.0962-.56149 2.0494-1.8623-.0094-1.3195-1.3286-2.3776-2.7887-2.4238-1.375-.043533-4.7633.19652-4.7633.19652 3.9492.81417 4.5948 1.0219 4.8008 1.4973.122.2809-.203.56-1.291.5055-1.185-.0594-3.613-.3463-3.613-.3463-2.311-.3556-3.921-.6925-4.623.2246-.45854.59915.06552 1.3289.27139 1.7593.9171 1.6003 2.503 2.6982 3.5093 3.4719.37865.29113 1.5347.93582 1.5347.93582-3.5935-.98261-6.4571-.43048-8.2726.52406-2.0869 1.2353-1.7299 3.3198 1.5815 5.2687 1.9559 1.1511 2.9297 1.704 6.132 2.0972 1.8718.29846 2.1507.42058 2.1365.57638-.02007.21936-2.2155.30248-2.8189.3441-1.5352.10587-5.5056.13234-5.5254.13234z" opacity=".2"/><path d="m16 2c-7.756 0-14 6.244-14 14 0 .169.0195.333.0254.5.2637-7.5206 6.3874-13.5 13.975-13.5 7.5872 0 13.711 5.9794 13.975 13.5.006-.16736.0254-.33116.0254-.5 0-7.756-6.244-14-14-14z" fill="#fff" opacity=".1"/><path d="m2.0254 16.5c-.0059.167-.0254.331-.0254.5 0 7.756 6.244 14 14 14s14-6.244 14-14c0-.16884-.01952-.33264-.02539-.5-.264 7.521-6.388 13.5-13.975 13.5-7.5872 0-13.711-5.979-13.975-13.5z" opacity=".2"/><path d="m10.537 24.193s1.073.31156 2.5013.48967c.57842.07213 2.7792.32424 4.4666.31764 0 0 2.0551.0019 3.1895-.15882 1.187-.16861 1.8594-.3838 2.2337-.81323.0098-.10239.18064-.43615-.28076-.75801-1.1796-.82288-2.7045-1.0481-5.6665-1.7516-3.2754-.82349-4.2542-1.6121-4.7433-2.1827-.46362-.57196.08703-1.7598 2.7263-2.3425 1.3363-.32519 6.3132-.38494 6.3132-.38494-1.4279-1.1336-4.1085-3.1632-4.6564-3.5948-.48056-.37855-1.255-.95947-1.3382-1.4786-.11229-.50534.68314-.74866 1.1043-.77673 1.3569-.09358 3.2099.06551 4.8569.39304.8279.16464.97325.14038.97325.14038 1.1791.05615 2.0962-.56149 2.0494-1.8623-.0094-1.3195-1.3286-2.3776-2.7887-2.4238-1.375-.043533-4.7633.19652-4.7633.19652 3.9492.81417 4.5948 1.0219 4.8008 1.4973.122.2809-.203.56-1.291.5055-1.185-.0594-3.613-.3463-3.613-.3463-2.311-.3556-3.921-.6925-4.623.2246-.45854.59915.06552 1.3289.27139 1.7593.9171 1.6003 2.503 2.6982 3.5093 3.4719.37865.29113 1.5347.93582 1.5347.93582-3.5935-.98261-6.4571-.43048-8.2726.52406-2.0869 1.2353-1.7299 3.3198 1.5815 5.2687 1.9559 1.1511 2.9297 1.704 6.132 2.0972 1.8718.29846 2.1507.42058 2.1365.57638-.02007.21936-2.2155.30248-2.8189.3441-1.5352.10587-5.5056.13234-5.5254.13234z" fill="#fff"/></svg>