<svg height="32" viewBox="0 0 32 32" width="32" xmlns="http://www.w3.org/2000/svg"><path d="m16 2a14 13 0 0 0 -14 13 14 13 0 0 0 5 9.957v5.043l3.721-2.967a14 13 0 0 0 5.279.967 14 13 0 0 0 14-13 14 13 0 0 0 -14-13z" fill="#2090ea"/><path d="m16 2a14 13 0 0 0 -14 13 14 13 0 0 0  .0215.414 14 13 0 0 1 13.978-12.414 14 13 0 0 1 13.979 12.586 14 13 0 0 0  .021-.586 14 13 0 0 0 -14-13z" fill="#fff" opacity=".2"/><path d="m2.0215 15.414a14 13 0 0 0 -.0215.586 14 13 0 0 0 5 9.957v-1a14 13 0 0 1 -4.9785-9.543zm27.958.172a14 13 0 0 1 -13.979 12.414 14 13 0 0 1 -5.279-.967l-3.721 2.967v1l3.721-2.967a14 13 0 0 0 5.279.967 14 13 0 0 0 14-13 14 13 0 0 0 -.021-.414z" opacity=".2"/><ellipse cx="16" cy="16" fill="none" opacity=".2" rx="9.5" ry="8.5" stroke="#000" stroke-dasharray="6 3" stroke-width="3"/><ellipse cx="16" cy="15" fill="none" rx="9.5" ry="8.5" stroke="#fff" stroke-dasharray="6 3" stroke-width="3"/></svg>