<svg height="32" width="32" xmlns="http://www.w3.org/2000/svg"><rect height="16" opacity=".2" rx="1.25" width="25" x="3" y="12"/><path d="m3 21.75c0 .692.5575 1.25 1.25 1.25h22.5c.692 0 1.25-.558 1.25-1.25v-13.5c0-.6925-.558-1.25-1.25-1.25h-12.75v-.75c0-.6925-.557-1.25-1.25-1.25h-8.5c-.6925 0-1.25.5575-1.25 1.25" fill="#dd772f"/><rect height="16" opacity=".2" rx="1.25" width="25" x="3" y="10"/><rect fill="#dcdcdc" height="10" rx="1.25" width="21" x="5" y="9"/><rect fill="#ee923a" height="16" rx="1.25" width="25" x="3" y="11"/><path d="m4.25 5c-.6925 0-1.25.5575-1.25 1.25v1c0-.6925.5575-1.25 1.25-1.25h8.5c.693 0 1.25.5575 1.25 1.25v.75h12.75c.692 0 1.25.5575 1.25 1.25v-1c0-.6925-.558-1.25-1.25-1.25h-12.75v-.75c0-.6925-.557-1.25-1.25-1.25z" fill="#fff" opacity=".1"/><path d="m15.546875 14.000193a1.3075637 1.2560185 0 0 0 -1.28125.84375l-.984375 2.722656-3 .05664a1.3075637 1.2560185 0 0 0 -.7636719 2.257812l2.3906249 1.740235-.869141 2.757812a1.3075637 1.2560185 0 0 0 2 1.394532l2.460938-1.646484 2.460938 1.646485a1.3075637 1.2560185 0 0 0 2-1.394532l-.869141-2.757812 2.390625-1.740235a1.3075637 1.2560185 0 0 0 -.763672-2.257812l-3-.05664-.984375-2.722656a1.3075637 1.2560185 0 0 0 -1.1875-.84375zm-.046875 1.841797.808594 2.234375a1.50015 1.50015 0 0 0 1.382812.990234l2.300782.04297-1.783204 1.298828a1.50015 1.50015 0 0 0 -.548828 1.664063l.679688 2.15039-2.00586-1.341797a1.50015 1.50015 0 0 0 -1.667968 0l-2.00586 1.341797.679688-2.15039a1.50015 1.50015 0 0 0 -.548828-1.664063l-1.783204-1.298828 2.300782-.04297a1.50015 1.50015 0 0 0 1.382812-.990234z" opacity=".2"/><path d="m15.546875 13a1.3075637 1.2560185 0 0 0 -1.28125.84375l-.984375 2.722656-3 .056641a1.3075637 1.2560185 0 0 0 -.7636719 2.257812l2.3906249 1.740235-.869141 2.757812a1.3075637 1.2560185 0 0 0 2 1.394532l2.460938-1.646485 2.460938 1.646485a1.3075637 1.2560185 0 0 0 2-1.394532l-.869141-2.757812 2.390625-1.740235a1.3075637 1.2560185 0 0 0 -.763672-2.257812l-3-.056641-.984375-2.722656a1.3075637 1.2560185 0 0 0 -1.1875-.84375zm-.046875 1.841797.808594 2.234375a1.50015 1.50015 0 0 0 1.382812.990234l2.300782.042969-1.783204 1.298828a1.50015 1.50015 0 0 0 -.548828 1.664063l.679688 2.15039-2.00586-1.341797a1.50015 1.50015 0 0 0 -1.667968 0l-2.00586 1.341797.679688-2.15039a1.50015 1.50015 0 0 0 -.548828-1.664063l-1.783204-1.298828 2.300782-.042969a1.50015 1.50015 0 0 0 1.382812-.990234z" fill="#fff"/></svg>