<svg height="32" viewBox="0 0 32 32" width="32" xmlns="http://www.w3.org/2000/svg"><path d="m17 3a11 11 0 0 0 -11 11 11 11 0 0 0  .0136719.402344h-.0136719v1.986328.371094l-1.8125 3.140625a1.40014 1.40014 0 0 0 1.2128906 2.099609h.5996094v3.009766c0 1.102169.888066 1.990234 1.9902344 1.990234h3.0097656v1.947266c0 1.137157.915577 2.052734 2.052734 2.052734h8.894532c1.137157 0 2.052734-.915577 2.052734-2.052734v-6.472657a11 11 0 0 0 4-8.474609 11 11 0 0 0 -11-11z" opacity=".2"/><g fill="#18b2d6"><circle cx="17" cy="13" r="11"/><path d="m7.9894736 13.4h8.6210534c1.102168 0 1.989473.887305 1.989473 1.989473v8.621053c0 1.102169-.887305 1.989474-1.989473 1.989474h-8.6210534c-1.1021684 0-1.9894736-.887305-1.9894736-1.989474v-8.621053-1.986308z"/><rect height="13" rx="2.053" width="13" x="11" y="17"/><path d="m9.0368759 11.772851a1.40014 1.40014 0 0 0 -1.1375.698633l-1.8566407 3.214258-1.8552732 3.214258a1.40014 1.40014 0 0 0 1.2126951 2.1h3.7105471 3.7119148a1.40014 1.40014 0 0 0 1.212694-2.1l-1.855273-3.214258-1.85664-3.214258a1.40014 1.40014 0 0 0 -1.1470708-.698633 1.40014 1.40014 0 0 0 -.1394533 0z"/></g><path d="m17.154564 6.0277829c-.221841-.00699-.446089-.00535-.669864.00272-1.269593.045763-2.553625.3337085-3.68086.8383502-1.164611.6066796-2.169678 1.4795381-2.9335456 2.5476605-.813553 1.2887914-1.1327461 2.8082554-.6277435 3.7749084.5961325 1.141089 1.8365401 1.834316 3.1034941 1.834316.656547 0 .70791.03533.70791.506814 0 1.033012 1.345075 1.521679 3.231008 1.521679 1.00692 0 1.176309.04363 1.085643.279902-.138428.360736.437114 1.587976 1.057109 2.165333.265488.247228.592276.612811.726932.934208.262614.626806.520738.704217 1.243259.375015.551886-.251456.571129-.396576.09918-1.17063-.197413-.323786-.359699-.495659-.360069-.553787-.000377-.05813-.137306-.09996.629101-.0924 2.223476.02197 3.230688-.767286 3.232102-2.581571.000226-.294198.150569-.508123.353561-.683726.686842-.333271.614597-.692194.648215-1.382937-.003477-3.579722-2.288838-6.8283749-5.680939-7.9720907-.078971-.0231893-.154783-.0503453-.235064-.072014-.612314-.1607173-1.263906-.2507726-1.929429-.2717504z" opacity=".2"/><path d="m17.154564 5.027601c-.221841-.00699-.446089-.00535-.669864.00272-1.269593.045763-2.553625.3337085-3.68086.8383502-1.164611.6066796-2.169678 1.4795381-2.9335456 2.5476605-.813553 1.2887916-1.1327461 2.8082553-.6277435 3.7749083.5961325 1.141089 1.8365401 1.834316 3.1034941 1.834316.656547 0 .70791.03533.70791.506814 0 1.033012 1.345075 1.521679 3.231008 1.521679 1.00692 0 1.176309.04363 1.085643.279902-.138428.360736.437114 1.587976 1.057109 2.165333.265488.247228.592276.612811.726932.934208.262614.626806.520738.704217 1.243259.375015.551886-.251456.571129-.396576.09918-1.17063-.197413-.323786-.359699-.495659-.360069-.553787-.000377-.05813-.137306-.09996.629101-.0924 2.223476.02197 3.230688-.767286 3.232102-2.581571.000226-.294198.150569-.508123.353561-.683726.686842-.333271.614597-.692194.648215-1.382937-.003477-3.5797214-2.288838-6.8283748-5.680939-7.9720906-.078971-.0231893-.154783-.0503453-.235064-.072014-.612314-.1607173-1.263906-.2507726-1.929429-.2717504z" fill="#fff"/><path d="m17 2a11 11 0 0 0 -11 11 11 11 0 0 0  .0136719.402344h-.0136719v.597656a11 11 0 0 1 11-11 11 11 0 0 1 10.978516 10.554688 11 11 0 0 0  .021484-.554688 11 11 0 0 0 -11-11zm-11 12v .402344h.0136719a11 11 0 0 1 -.0136719-.402344zm0 1.759766-1.8125 3.140625a1.40014 1.40014 0 0 0 -.09375 1.201171 1.40014 1.40014 0 0 1  .09375-.201171l1.8125-3.140625v-.371094z" fill="#fff" opacity=".2"/></svg>