<svg height="32" width="32" xmlns="http://www.w3.org/2000/svg"><path d="m16 2c-7.756 0-14 6.244-14 14s6.244 14 14 14 14-6.244 14-14-6.244-14-14-14z" fill="#f8d7ae"/><path d="m16 2c-7.756 0-14 6.244-14 14 0 .169.0195.333.0254.5.2641-7.5206 6.3878-13.5 13.975-13.5s13.711 5.9794 13.975 13.5c.006-.16736.0254-.33116.0254-.5 0-7.756-6.244-14-14-14z" fill="#fff" opacity=".2"/><path d="m21.5 9c-1.745 0-2.728.9065-3.143 1.787-.414.881-.357 1.742-.357 1.742l1-.058s-.03-.639.262-1.258c.291-.62.808-1.213 2.238-1.213s1.947.593 2.238 1.213c.292.619.262 1.258.262 1.258l1 .058s.057-.861-.357-1.742c-.415-.8805-1.398-1.787-3.143-1.787zm0 3a .5.5 0 0 0 -.5.5.5.5 0 0 0  .5.5.5.5 0 0 0  .5-.5.5.5 0 0 0 -.5-.5zm-11.998 1c-1.7446 0-2.7279.907-3.1426 1.787-.4148.881-.3574 1.742-.3574 1.742v6.471h1v-6.529s-.0301-.639.2617-1.258c.2917-.62.8087-1.213 2.2383-1.213 1.429 0 1.946.593 2.238 1.213.292.619.262 1.258.262 1.258v6.529h1v-6.529s-.03-.639.262-1.258c.291-.62.808-1.213 2.238-1.213 1.429 0 1.946.593 2.238 1.213.292.619.262 1.258.262 1.258v.013l-.002 2.016v.971s-.057.861.357 1.742c.415.88 1.398 1.787 3.143 1.787s2.728-.907 3.143-1.787c.414-.881.357-1.742.357-1.742v-6.471h-1v6.529s.03.639-.262 1.258c-.291.62-.808 1.213-2.238 1.213s-1.947-.593-2.238-1.213c-.292-.619-.262-1.258-.262-1.258v-1.029l.002-1.971s.057-.861-.357-1.742c-.415-.88-1.398-1.787-3.143-1.787-1.573 0-2.524.737-3 1.527-.476-.79-1.427-1.527-3-1.527z" fill="#2a567b" fill-rule="evenodd"/><path d="m2.0254 16.5c-.0059.167-.0254.331-.0254.5 0 7.756 6.244 14 14 14s14-6.244 14-14c0-.16884-.01952-.33264-.02539-.5-.264 7.521-6.388 13.5-13.975 13.5-7.5872 0-13.711-5.979-13.975-13.5z" opacity=".2"/></svg>