<svg height="32" width="32" xmlns="http://www.w3.org/2000/svg"><rect fill="#dd4545" height="28" rx="1.5" transform="matrix(0 -1 -1 0 0 0)" width="22" x="-27" y="-30"/><path d="m3.5 5c-.831 0-1.5.669-1.5 1.5v1c0-.831.669-1.5 1.5-1.5h25c .831 0 1.5.669 1.5 1.5v-1c0-.831-.669-1.5-1.5-1.5z" fill="#fff" opacity=".1"/><path d="m2 25.5v1c0 .831.669 1.5 1.5 1.5h25c .831 0 1.5-.669 1.5-1.5v-1c0 .831-.669 1.5-1.5 1.5h-25c-.831 0-1.5-.669-1.5-1.5z" opacity=".2"/><g fill="#323232"><path d="m24 16c0-8.3077-3.333-9-10-9-6.6667 0-10 .6923-10 9 0 8.308 3.3333 9 10 9 6.667 0 10-.692 10-9z"/><path d="m25 20v1h4v-1z"/><path d="m25 22v1h4v-1z"/><path d="m25 24v1h4v-1z"/></g><g opacity=".2"><circle cx="27" cy="12" r="2"/><circle cx="27" cy="17" r="2"/></g><circle cx="27" cy="11" fill="#c7c7c7" r="2"/><circle cx="27" cy="16" fill="#c7c7c7" r="2"/><path d="m-11.519 7.322-9.9708 5.7566-9.9708 5.7566v-23.026l9.9708 5.7566z" opacity=".2" transform="matrix(.40117 0 0 .43428 23.621 13.82)"/><path d="m-11.519 7.322-9.9708 5.7566-9.9708 5.7566v-23.026l9.9708 5.7566z" fill="#c7c7c7" transform="matrix(.40117 0 0 .43428 23.621 12.82)"/></svg>