<svg height="32" width="32" xmlns="http://www.w3.org/2000/svg"><rect fill="#d95951" height="28" rx="1.5" transform="matrix(0 -1 -1 0 0 0)" width="28" x="-30" y="-30"/><path d="m3.5 2c-.831 0-1.5.669-1.5 1.5v1c0-.831.669-1.5 1.5-1.5h25c .831 0 1.5.669 1.5 1.5v-1c0-.831-.669-1.5-1.5-1.5z" fill="#fff" opacity=".1"/><path d="m10.648 8-3.648 16.184h2.9644l1.722-7.2426h8.092l-7.5781 6.7836 1.976 2.275 1.012-.521c1.9135-.98386 2.7161-.40858 4.1679-.0058 1.4124.39196 2.7401.81146 5.4949-.77642l-.54706-2.8026c-3.0064 2.1376-3.9575.23044-6.0987.15473l6.1302-5.1871.66517-2.769h-12.841l.8266-3.3233h8.4165l.57719-2.769h-11.331z" opacity=".2"/><path d="m10.648 7.0001-3.648 16.184h2.9644l1.722-7.2426h8.092l-7.5781 6.7836 1.976 2.275 1.012-.521c1.9135-.98386 2.7161-.40858 4.1679-.0058 1.4124.39196 2.7401.81146 5.4949-.77642l-.54706-2.8026c-3.0064 2.1376-3.9575.23044-6.0987.15473l6.1302-5.1871.66517-2.769h-12.841l.8266-3.3233h8.4165l.57719-2.769h-11.331z" fill="#fff"/><path d="m2 28.5v1c0 .831.669 1.5 1.5 1.5h25c .831 0 1.5-.669 1.5-1.5v-1c0 .831-.669 1.5-1.5 1.5h-25c-.831 0-1.5-.669-1.5-1.5z" opacity=".2"/></svg>