<svg height="32" width="32" xmlns="http://www.w3.org/2000/svg"><rect fill="#8e8e8e" height="22" rx="2" transform="matrix(0 -1 -1 0 0 0)" width="28" x="-30" y="-27"/><path d="m16 6c-3.866 0-7 3.134-7 7v7h7c3.866 0 7-3.134 7-7s-3.134-7-7-7zm0 3a4 4 0 0 1 4 4 4 4 0 0 1 -4 4 4 4 0 0 1 -4-4 4 4 0 0 1 4-4z" opacity=".5"/><path d="m7 2c-1.108 0-2 .892-2 2v1c0-1.108.892-2 2-2h18c1.108 0 2 .892 2 2v-1c0-1.108-.892-2-2-2z" fill="#fff" opacity=".2"/><path d="m5 28v1c0 1.108.892 2 2 2h18c1.108 0 2-.892 2-2v-1c0 1.108-.892 2-2 2h-18c-1.108 0-2-.892-2-2z" opacity=".2"/><circle cx="24" cy="23" fill="#8561c5" fill-rule="evenodd" r="8"/><path d="m23 19-.0882 1.0536a3.1429 3.1429 0 0 0 -.91852.53126l-.95759-.4509-1 1.7321.86941.6038a3.1429 3.1429 0 0 0 -.048.53013 3.1429 3.1429 0 0 0  .0457.53237l-.86719.60156 1 1.7321.95536-.44978a3.1429 3.1429 0 0 0  .92075.5279l.0882 1.0558h2l .0882-1.0536a3.1429 3.1429 0 0 0  .91854-.53126l.95758.4509 1-1.7321-.86942-.6038a3.1429 3.1429 0 0 0  .048-.53013 3.1429 3.1429 0 0 0 -.0457-.53237l.86719-.60156-1-1.7321-.95536.44978a3.1429 3.1429 0 0 0 -.921-.528l-.088-1.056h-2zm1 2.8572a1.1429 1.1429 0 0 1 1.143 1.143 1.1429 1.1429 0 0 1 -1.143 1.143 1.1429 1.1429 0 0 1 -1.143-1.143 1.1429 1.1429 0 0 1 1.143-1.143z" fill="#fff"/><path d="m31.979 23.424a8 8 0 0 1 -7.979 7.576 8 8 0 0 1 -7.979-7.424 8 8 0 0 0 -.021.424 8 8 0 0 0 8 8 8 8 0 0 0 8-8 8 8 0 0 0 -.02148-.57617z" opacity=".2"/></svg>