<svg height="32" viewBox="0 0 32 32" width="32" xmlns="http://www.w3.org/2000/svg"><path d="m5.0909092 5.0000001h24.48052s1.428571 0 1.428571 1.4117646v18.352941l-4.090909 4.235294h-24.480519s-1.4285715 0-1.4285715-1.411765v-18.352941z" opacity=".2"/><path d="m5.0909092 4.0000001h24.48052s1.428571 0 1.428571 1.4117646v18.352941l-4.090909 4.235294h-24.480519s-1.4285715 0-1.4285715-1.411765v-18.352941z" fill="#00cc5c"/><path d="m20 10v3h-2v2h2v4.117188c0 2.823529.999201 3.882812 2.792969 3.882812h2.207031v-2h-1.984375c-.964787 0-1.015625-.670265-1.015625-2.082031v-3.917969h3v-2h-3v-3zm-7.974609.02148c-3.9704432.000004-5.025391 2.243226-5.025391 6.47852s1.0363906 6.527344 5.025391 6.527344h1.132812l1.650391 2.822265 1.912109-.705078-1.558594-2.824219c1.484278-.705882 1.837891-2.996783 1.837891-5.820312 0-4.235294-1.004166-6.478516-4.974609-6.478516zm-.017579 1.97852c2.422006 0 2.992194 1.75699 2.992188 4.654297 0 2.897306-.55183 4.345703-2.992188 4.345703-2.4403562 0-3.007812-1.448397-3.007812-4.345703 0-2.897307.5858083-4.654297 3.007812-4.654297z" opacity=".2"/><path d="m20 9v3h-2v2h2v4.117188c0 2.823529.999201 3.882812 2.792969 3.882812h2.207031v-2h-1.984375c-.964787 0-1.015625-.670265-1.015625-2.082031v-3.917969h3v-2h-3v-3zm-7.974609.0214844c-3.9704432 0-5.025391 2.2432216-5.025391 6.4785156s1.0363906 6.527344 5.025391 6.527344h1.132812l1.650391 2.822265 1.912109-.705078-1.558594-2.824219c1.484278-.705882 1.837891-2.996783 1.837891-5.820312 0-4.235294-1.004166-6.4785156-4.974609-6.4785156zm-.017579 1.9785156c2.422006 0 2.992194 1.75699 2.992188 4.654297 0 2.897306-.55183 4.345703-2.992188 4.345703-2.4403562 0-3.007812-1.448397-3.007812-4.345703 0-2.897307.5858083-4.654297 3.007812-4.654297z" fill="#fff"/><path d="m5.0917969 4-4.0917969 4.234375v1l4.0917969-4.234375h24.480469s1.427734.0003448 1.427734 1.4121094v-1c0-1.4117646-1.427734-1.4121094-1.427734-1.4121094z" fill="#fff" opacity=".2"/></svg>