<svg height="32" viewBox="0 0 32 32" width="32" xmlns="http://www.w3.org/2000/svg"><g transform="translate(0 -1020.3622)"><path d="m2.0000001 1023.362.2665824 5.5273 13.7600055 13.7795 2.628354-2.6284 2.628366-2.6283-13.7600047-13.7795-5.5195894-.2669z" opacity=".2"/><path d="m23.151966 1046.0492c-.0414.041-.07645.086-.109459.1322.04841.037.09375.09.149864.1653.125857.1695.460543.4224.743448.5617.750407.3695 1.972962 1.7569 2.3192 2.6325l.263945.666.554902.1083c.738114.1429.97928.2877 1.227781.7367.257154.4646 1.060837.3085 1.551619.1634.144985-.4915.300644-1.2961-.163392-1.5536-.448324-.2488-.593142-.4896-.735708-1.2288l-.106331-.5567-.666063-.2639c-.874317-.3468-2.260591-1.5708-2.629572-2.3222-.139117-.2833-.39156-.6184-.560734-.7445-.08243-.062-.135064-.1116-.171112-.1652l-1.668606 1.6686z" opacity=".2"/><path d="m2.0000001 1022.3621.2665824 5.5273 13.7600055 13.7795 2.628354-2.6284 2.628366-2.6283-13.7600047-13.7795-5.5195894-.2669z" fill="#8e8e8e"/><path d="m2.0000001 1022.3621s16.4748559 16.4749 16.6549379 16.6784l2.628367-2.6283-13.7600059-13.7795-5.5196303-.2669z" fill="#fff" opacity=".3"/><path d="m2 2 .0488281 1.0058594 5.4746094.265625 13.2597655 13.2792966.5-.5-13.7597655-13.7812498-5.5195313-.265625z" fill="#fff" opacity=".2" transform="translate(0 1020.3622)"/><path d="m23.151966 1045.0493c-.0414.041-.07645.086-.109459.1322.04841.037.09375.09.149864.1653.125857.1695.460543.4224.743448.5617.750407.3695 1.972962 1.7569 2.3192 2.6325l.263945.666.554902.1083c.738114.1429.97928.2877 1.227781.7367.257154.4646 1.060837.3085 1.551619.1634.144985-.4915.300644-1.2961-.163392-1.5536-.448324-.2488-.593142-.4896-.735708-1.2288l-.106331-.5567-.666063-.2639c-.874317-.3468-2.260591-1.5708-2.629572-2.3222-.139117-.2833-.39156-.6184-.560734-.7445-.08243-.062-.135064-.1116-.171112-.1652l-1.668606 1.6686z" fill="#bc7538"/><path d="m23.094329 1028.341c-.254686-.033-.347013.4419-.673357 1.3822-.442958 1.2761-.502385 2.0731-.293944 3.1652.244581 1.2815.107386 1.6029-.650082 1.5203-.697134-.076-.840623.013-.330859.2037.231332.087.430807.284.741015.7355.33393.4862.425837.6796.432031 1.2007.0043.3644-.04514.7659-.110742.8928-.148831.2875-.578997.2404-.920116-.1012l-.246094-.2461-.508594.6153c-.662383.8-1.172351 1.0486-2.151952 1.0486-.430587-.0001-1.330773-.4469-1.381635-.3959-.05089.051.413675.9341.413665 1.3652.00001.981-.24843 1.4913-1.047264 2.1547l-.613868.51.246094.2461c.341119.3416.38841.7711.101172.9201-.127043.066-.248687.1164-.6125.1121-.520434-.01-.992465-.099-1.477882-.4334-.450875-.3106-.649024-.5093-.735546-.741-.190611-.5105-.278246-.3672-.202344.3308.08249.7586-.23916.8947-1.518944.6498-1.090484-.2087-1.8873866-.1482-3.1617139.2953-.6706901.2335-1.1041033.3224-1.2851561.496-.1063979.1064-.1270954.1955-.050582.272.06391.064.5394037.2218 1.0568351.35.9322463.2312 1.5953276.3521 1.4567843.4908-.03941.039-.1260921.2265-.5582621.4157-.4322085.189-.8372263.3969-.9009766.4607-.3282971.3289.6425834.6658 1.9063093.5852.414258-.027.781132-.019.816211.016.09133.091-.755652.7774-1.3931644 1.1279-.7641421.4206-.7485419.669.053319.8326.9096234.1854 1.7061164.01 2.5388664-.5756 1.249083-.8716 1.409497-.7167.583788.5661-.449524.6983-.548845.9592-.541405 1.4382.005.3222.04901.5866.09707.5866.229568-.0001 2.442111-1.7958 2.895702-2.3502.633791-.7748.809443-.6638.538671.3418-.106234.3942-.162703 1.0265-.125781 1.4041l.06699.6849.538672-.5387c.670408-.6712 1.197966-1.4787 1.533984-2.346.142356-.3673.312162-.6553.377343-.6399.06488.015.217156.2771.337695.5811.120619.3041.381228.7693.579687 1.0336.331839.4419.376477.4658.546875.2953.304828-.3053.50822-.9348.661719-2.0481l.144922-1.0527.601562.2174c.520569.1878.700585.1768 1.348046-.081.52308-.208.687893-.2595.825781-.1558.03284-.046.06823-.09.109375-.1313l1.667968-1.6693c.000292.0004.001.0009.0014 0-.09286-.1361-.04231-.3033.159961-.8135.257118-.6484.268278-.8296.08066-1.3508l-.217382-.6016 1.051366-.1449c1.111698-.1538 1.740467-.3577 2.045312-.6631.170397-.1704.145712-.2147-.295312-.5468-.263881-.1988-.727218-.4605-1.03086-.5811-.303744-.1209-.565681-.2724-.581054-.3377-.01516-.065.273315-.2359.639844-.3787.866078-.3366 1.671686-.8653 2.341991-1.5367l.538671-.5387-.68496-.067c-.376813-.037-1.007584.02-1.401367.1258-1.004043.271-1.115473.095-.341797-.54.553722-.4541 2.346118-2.6697 2.346093-2.8998-.000159-.048-.263517-.091-.585156-.096-.478376-.01-.739542.09-1.436913.54-1.280899.8269-1.43494.6685-.564649-.5824.580253-.834.760743-1.6334.575586-2.5444-.163139-.8027-.411309-.8188-.831249-.053-.350317.6381-1.036631 1.4873-1.127929 1.3959-.03523-.035-.04141-.4027-.01504-.8176.08046-1.2656-.256874-2.238-.585156-1.9091-.0638.064-.270562.4695-.459375.9023-.188794.4328-.374808.5189-.414258.5584-.138543.1387-.261421-.523-.492187-1.4564-.128122-.5183-.284713-.9943-.348633-1.0582-.0255-.026-.05659-.041-.09297-.045zm5.753122 19.5348.10664.5578c.03564.1848.07148.3371.11211.4676-.04055-.1305-.07511-.2829-.110743-.4676zm-2.328319 2.331.46621.089-.46621-.09zm3.480857.1436c.00098.2947-.0738.6197-.146288.8654.07249-.2457.147314-.5707.146288-.8654z" opacity=".2"/><path d="m23.094329 1027.3411c-.254686-.033-.347013.4419-.673357 1.3822-.442958 1.2761-.502385 2.0731-.293944 3.1652.244581 1.2815.107386 1.6029-.650082 1.5203-.697134-.076-.840623.013-.330859.2037.231332.087.430807.284.741015.7355.33393.4862.425837.6796.432031 1.2007.0043.3644-.04514.7659-.110742.8928-.148831.2875-.578997.2404-.920116-.1012l-.246094-.2461-.508594.6153c-.662383.8-1.172351 1.0486-2.151952 1.0486-.430587-.0001-1.330773-.4469-1.381635-.3959-.05089.051.413675.9341.413665 1.3652.00001.981-.24843 1.4913-1.047264 2.1547l-.613868.51.246094.2461c.341119.3416.38841.7711.101172.9201-.127043.066-.248687.1164-.6125.1121-.520434-.01-.992465-.099-1.477882-.4334-.450875-.3106-.649024-.5093-.735546-.741-.190611-.5105-.278246-.3672-.202344.3308.08249.7586-.23916.8947-1.518944.6498-1.090484-.2087-1.8873866-.1482-3.1617139.2953-.6706901.2335-1.1041033.3224-1.2851561.496-.1063979.1064-.1270954.1955-.050582.272.06391.064.5394037.2218 1.0568351.35.9322463.2312 1.5953276.3521 1.4567843.4908-.03941.039-.1260921.2265-.5582621.4157-.4322085.189-.8372263.3969-.9009766.4607-.3282971.3289.6425834.6658 1.9063093.5852.414258-.027.781132-.019.816211.016.09133.091-.755652.7774-1.3931644 1.1279-.7641421.4206-.7485419.669.053319.8326.9096234.1854 1.7061164.01 2.5388664-.5756 1.249083-.8716 1.409497-.7167.583788.5661-.449524.6983-.548845.9592-.541405 1.4382.005.3222.04901.5866.09707.5866.229568-.0001 2.442111-1.7958 2.895702-2.3502.633791-.7748.809443-.6638.538671.3418-.106234.3942-.162703 1.0265-.125781 1.4041l.06699.6849.538672-.5387c.670408-.6712 1.197966-1.4787 1.533984-2.346.142356-.3673.312162-.6553.377343-.6399.06488.015.217156.2771.337695.5811.120619.3041.381228.7693.579687 1.0336.331839.4419.376477.4658.546875.2953.304828-.3053.50822-.9348.661719-2.0481l.144922-1.0527.601562.2174c.520569.1878.700585.1768 1.348046-.081.52308-.208.687893-.2595.825781-.1558.03284-.046.06823-.09.109375-.1313l1.667968-1.6693c.000292.0004.001.0009.0014 0-.09286-.1361-.04231-.3033.159961-.8135.257118-.6484.268278-.8296.08066-1.3508l-.217382-.6016 1.051366-.1449c1.111698-.1538 1.740467-.3577 2.045312-.6631.170397-.1704.145712-.2147-.295312-.5468-.263881-.1988-.727218-.4605-1.03086-.5811-.303744-.1209-.565681-.2724-.581054-.3377-.01516-.065.273315-.2359.639844-.3787.866078-.3366 1.671686-.8653 2.341991-1.5367l.538671-.5387-.68496-.067c-.376813-.037-1.007584.02-1.401367.1258-1.004043.271-1.115473.095-.341797-.54.553722-.4541 2.346118-2.6697 2.346093-2.8998-.000159-.048-.263517-.091-.585156-.096-.478376-.01-.739542.09-1.436913.54-1.280899.8269-1.43494.6685-.564649-.5824.580253-.834.760743-1.6334.575586-2.5444-.163139-.8027-.411309-.8188-.831249-.053-.350317.6381-1.036631 1.4873-1.127929 1.3959-.03523-.035-.04141-.4027-.01504-.8176.08046-1.2656-.256874-2.238-.585156-1.9091-.0638.064-.270562.4695-.459375.9023-.188794.4328-.374808.5189-.414258.5584-.138543.1387-.261421-.523-.492187-1.4564-.128122-.5183-.284713-.9943-.348633-1.0582-.0255-.026-.05659-.041-.09297-.045zm5.753122 19.5348.10664.5578c.03564.1848.07148.3371.11211.4676-.04055-.1305-.07511-.2829-.110743-.4676zm-2.328319 2.331.46621.089-.46621-.09zm3.480857.1436c.00098.2947-.0738.6197-.146288.8654.07249-.2457.147314-.5707.146288-.8654z" fill="#f4955b"/><path d="m23.09375 6.9765625v.0019531c-.254686-.033-.345531.4425125-.671875 1.3828125-.355916 1.0253435-.45626 1.7463539-.376953 2.5546879.051062-.46712.169441-.9568753.376953-1.5546879.326344-.9403.417189-1.4158125.671875-1.3828125v-.0019531c.03638.004.06825.0189219.09375.0449219.06392.0639.219534.5402937.347656 1.0585937.230766.9333999.353645 1.5957309.492188 1.4570309.03945-.0395.227221-.125793.416015-.5585934.188813-.4328.395185-.8383437.458985-.9023437.2612-.2616918.518516.3132553.576172 1.1914061.002542-.095293.001057-.176914.007812-.283203.08046-1.2656-.255702-2.2371031-.583984-1.9082031-.0638.064-.270172.4695437-.458985.9023437-.188794.4328-.376565.5190938-.416015.5585938-.138543.1387-.261422-.5236313-.492188-1.4570313-.128122-.5183-.283736-.9946937-.347656-1.0585937-.0255-.026-.05737-.0409219-.09375-.0449219zm4.048828 1.8691406c-.134927-.0086375-.301749.1776469-.511719.5605469-.350317.6381-1.037608 1.487884-1.128906 1.396484-.011009-.010937-.014302-.09881-.019531-.166015-.000182.118691.01188.222223.003906.347656-.02637.4149-.019605.783359.015625.818359.091298.0914.778589-.758384 1.128906-1.396484.41994-.7658.666939-.7480125.830079.054688.01075.052892.007346.102127.015624.154296.06422-.372087.066309-.7531246-.015624-1.1562496-.08157-.40135-.183432-.6046438-.31836-.6132813zm1.744141 3.2011719c-.478376-.01-.738176.089062-1.435547.539063-.207258.133797-.337641.199499-.486328.28125-.029563.045789-.048091.090743-.080078.136718-.870291 1.2509-.714493 1.408932.566406.582032.683863-.441284.949057-.542649 1.410156-.53711.336322-.437928.611337-.82126.611328-.90625-.000159-.048-.264298-.090703-.585937-.095703zm-6.720703.769531c-.102891.212982-.322401.270495-.689454.230469-.697133-.076-.839842.012425-.330078.203125.231332.087.430027.284828.740235.736328.010986.015996.011016.023679.021484.039063.320046-.094149.373724-.463595.257813-1.208985zm6.703125 2.640625c-.342443-.033625-.878043.015798-1.271485.103516-.181417.196775-.361919.393209-.470703.482422-.773676.635-.662246.810062.341797.539062.310036-.083299.74123-.120355 1.105469-.121093.151347-.127487.301212-.258015.441406-.398438l.539063-.539062zm-7.826172.275391-.509766.615234c-.662383.8-1.172743 1.048828-2.152344 1.048828-.430587-.0001-1.329997-.447484-1.380859-.396484-.042901.042994.266547.664711.369141 1.121094.313901.117478.725965.275324 1.011718.27539.979601 0 1.489961-.248828 2.152344-1.048828l.509766-.615234.246093.246094c.341119.3416.771091.389062.919922.101562.065602-.1269.113675-.528178.109375-.892578-.001969-.165687-.016691-.294689-.041015-.414062-.019225.130845-.040226.252218-.06836.30664-.148831.2875-.578803.240038-.919922-.101562zm5.90039 2.74414c-.090297.039909-.177788.087392-.269531.123047-.366529.1428-.655785.313907-.640625.378907.015373.0653.278287.21699.582031.33789.234435.093112.543205.26615.802735.433594.222195-.090369.406166-.189156.523437-.306641.170397-.1704.146102-.214775-.294922-.546875-.182101-.137189-.449082-.289865-.703125-.419922zm-9.58789.570313c-.111263.57394-.398491.982859-.988281 1.472656l-.615235.509766.246094.246094c.114713.114875.18376.238629.230469.359375l.138672-.115235c.798833-.6634 1.046884-1.173297 1.046874-2.154297.000003-.088248-.028067-.203245-.058593-.318359zm-4.25 1.783203c-.065539-.021304-.080642.198516-.033203.634766.08249.7586-.239748.89529-1.519532.65039-1.090484-.2087-1.8877817-.148578-3.162109.294922-.6706901.2335-1.1041035.322494-1.2851562.496094-.106398.1064-.1272947.194984-.0507813.271484.0619475.062035.5149633.211978 1.0136719.337891.1126737-.03625.1914175-.059914.3222656-.105469 1.2743273-.4435 2.071625-.503622 3.162109-.294922 1.279784.2449 1.602022.10821 1.519532-.65039-.075902-.698.01056-.840578.201172-.330078.086521.2317.285453.429634.736328.740234.485417.3344.956128.423594 1.476562.433594.363813.0043.486238-.045328.613281-.111328.287238-.149.239557-.580275-.101562-.921875l-.029297-.029297c-.102167.037014-.228433.065502-.482422.0625-.520434-.01-.991145-.099194-1.476562-.433594-.450875-.3106-.649807-.508534-.736328-.740234-.07148-.191438-.128646-.291906-.167969-.304688zm12.060547.376953-.322266.044922.21875.601563c.009153.025427.01133.042503.019531.066406.098242-.289177.129365-.487523.083985-.712891zm-16.5742191 3.439453c-.182041.09196-.448234.213833-.4824219.248047-.228616.229036.1931898.453768.8847656.546875.0074463-.003274.008161-.004548.015625-.007812.43217-.1892.5191838-.375063.5585938-.414063.1091169-.10924-.3512977-.223305-.9765625-.373047zm1.9746091 1.81836c-.147885-.003-.343652.002125-.550781.015625-.1224292.007808-.2238267-.004265-.3398438-.003907-.0794704.049386-.1608271.104975-.2363281.146485-.7641421.4206-.7491265.670384.0527344.833984.0628743.012815.1217511.01018.1835937.019531.5914338-.367609 1.2367428-.900266 1.1562498-.980468-.017539-.0175-.117739-.02825-.265625-.03125zm18.28125.048828.105469.558594c.03564.1848.072651.336297.113281.466796-.04055-.130499-.075695-.282096-.111328-.466796zm-15.865234.826172c-.087693.017159-.256475.114556-.425781.21289-.377766.601082-.489372.884601-.482422 1.332032.003708.238968.030137.406958.0625.498046.06895-.24895.204659-.510132.478515-.935546.516069-.80175.646564-1.162088.367188-1.107422zm2.603516.285156c-.002299.00086-.005458.004889-.007813.005859-.082726.391142-.132159.90344-.099609 1.236329l.023437.226562c.023722-.226197.056261-.455512.103516-.630859.169232-.6285.162865-.906149-.019531-.837891zm10.933593 1.21875.464844.089844z" fill="#fff" opacity=".2" transform="translate(0 1020.3622)"/><path d="m17.066406 1037.5087c.21218.4073.311444.8091.510436 2.0665.121356.7668.215921 1.1019.379274 1.3438.198355.2937.505349.4558.837952.4424.223643-.01.390471-.084.555912-.2487.27275-.2724.333432-.6531.171877-1.0786-.04626-.1218-.06953-.2203-.05173-.219.0178 0 .08802.028.156039.059.294817.1357.662115.141.911642.012.169184-.087.374014-.3402.427522-.529.148945-.5255-.189803-1.0109-.867807-1.2432-.266456-.091-.469711-.132-1.096649-.2193-.87642-.1219-1.48381-.2745-1.85562-.4661-.07649-.039-.141743-.07-.145018-.066-.0032 0 .02651.069.06617.1445z" fill="#f12a2a"/></g></svg>