<svg height="32" viewBox="0 0 32 32" width="32" xmlns="http://www.w3.org/2000/svg"><path d="m-29.6-25.4 3.704651-4.6h21.495349c.7756 0 1.4.6244 1.4 1.4v25.2c0 .7756-.6244 1.4-1.4 1.4h-25.2c-.7756 0-1.4-.6244-1.4-1.4v-20.6c0-.7756.913515-.79594 1.4-1.4z" opacity=".2" transform="matrix(0 -1 -1 0 0 0)"/><path d="m-28.6-25.4 6.847093-4.6h18.352907c.7756 0 1.4.6244 1.4 1.4v25.2c0 .7756-.6244 1.4-1.4 1.4h-25.2c-.7756 0-1.4-.6244-1.4-1.4v-20.6c0-.7756.756197-.967481 1.4-1.4z" fill="#e4e4e4" transform="matrix(0 -1 -1 0 0 0)"/><g fill="none" stroke-linecap="round" stroke-linejoin="round" stroke-width="3"><path d="m14.5 7.4996363c-2.893896 3.8088387-8 2.5-8 6.3499997 0 4.667761 6.428161 4.316014 5.321364 9.85-.7 3.5-4.221364 2.8-6.321364 2.8" opacity=".2" stroke="#000"/><path d="m14.5 6.5c-2.893896 3.808839-8 2.5-8 6.35 0 4.667761 6.428161 4.316014 5.321364 9.85-.7 3.5-4.221364 2.8-6.321364 2.8" stroke="#4f4f4f"/><path d="m16.50015 27.499636v-15.721c.764854-2.5086099 1.351545-4.2789997 3.79985-4.2789997 2.8 0 4.2 1.4790001 4.2 4.2789997 0 2.8-5 5.199636-5 6.949636s5.6 7.371364 7 8.771364" opacity=".2" stroke="#000"/><path d="m16.50015 26.5v-15.721c.764854-2.5086102 1.351545-4.279 3.79985-4.279 2.8 0 4.2 1.4790001 4.2 4.279 0 2.8-5 5.199636-5 6.949636s5.6 7.371364 7 8.771364" stroke="#85722f"/></g><path d="m3.4003906 2c-.7756 0-1.4003906.6247906-1.4003906 1.4003906v1c0-.7756.6247906-1.4003906 1.4003906-1.4003906h25.1992184c.7756 0 1.400391.6247906 1.400391 1.4003906v-1c0-.7756-.624791-1.4003906-1.400391-1.4003906z" fill="#fff" opacity=".2"/><circle cx="24" cy="23" fill="#61b12f" fill-rule="evenodd" r="8"/><path d="m31.979 23.424a8 8 0 0 1 -7.979 7.576 8 8 0 0 1 -7.979-7.424 8 8 0 0 0 -.021.424 8 8 0 0 0 8 8 8 8 0 0 0 8-8 8 8 0 0 0 -.02148-.57617z" fill-rule="evenodd" opacity=".2"/><path d="m22.96431 18.99962-.0882 1.0536a3.1429 3.1429 0 0 0 -.91852.53126l-.95759-.4509-1 1.7321.86941.6038a3.1429 3.1429 0 0 0 -.048.53013 3.1429 3.1429 0 0 0  .0457.53237l-.867.602 1 1.7321.95536-.44978a3.1429 3.1429 0 0 0  .92075.5279l.0882 1.0558h2l .0882-1.0536a3.1429 3.1429 0 0 0  .91854-.53126l.95758.4509 1-1.7321-.86942-.6038a3.1429 3.1429 0 0 0  .048-.53013 3.1429 3.1429 0 0 0 -.0457-.53237l.86719-.60156-1-1.7321-.95536.44978a3.1429 3.1429 0 0 0 -.92076-.5279l-.088-1.056h-2zm1 2.8572a1.1429 1.1429 0 0 1 1.143 1.143 1.1429 1.1429 0 0 1 -1.1429 1.1428 1.1429 1.1429 0 0 1 -1.1429-1.1428 1.1429 1.1429 0 0 1 1.1428-1.1428z" fill="#fff"/></svg>