<svg height="32" width="32" xmlns="http://www.w3.org/2000/svg"><path d="m32 0c17.7 0 32 14.3 32 32s-14.3 32-32 32-32-14.3-32-32 14.3-32 32-32z" opacity=".2" transform="matrix(.4375 0 0 .4375 2 3)"/><path d="m32 0c17.7 0 32 14.3 32 32s-14.3 32-32 32-32-14.3-32-32 14.3-32 32-32z" fill="#725750" transform="matrix(.4375 0 0 .4375 2 2)"/><path d="m21.451172 7.0019531c-3.539964.089694-6.913337 3.0393969-9.34961 5.0332029-.87363.714967-2.1606113 2.154299-2.099609 2.214844.06101.06054 1.354949-.999189 1.992188-1.513672 2.905943-2.346145 6.242982-3.6700155 8.507812-3.6660155.844852.00153 2.087089.4982663 2.611328 1.0937505.599222.680655.794339 1.20515.808594 2.751953.008.866932-.385496 2.144765-.283203 2.082031.250662-.153727 1.221375-3.016895 1.33789-4.123047.176157-1.6724307-.674023-3.394854-1.998046-3.7246094-.510212-.1149774-1.021635-.1612507-1.527344-.1484375zm-12.2753908.9980469c-.683965-.007457-1.2303382.1035009-1.6660156.3457031-4.2858203 2.7883409 1.6706386 10.5794569 4.0800784 12.9843749.611716.599787 1.872379 1.669922 1.947265 1.669922.07488 0-1.221713-1.451468-2.02539-2.517578-2.2755863-3.018658-3.5375078-5.856124-3.4843752-7.976563.0302908-1.208862.4549601-2.184698 1.2949218-2.8281246.5002618-.3832103 1.0906984-.8368486 2.3203124-.6875l2.357422.5136718c-1.437871-.8968615-3.006834-1.4615229-4.8242188-1.5039062zm9.2871098 3c-.07488 0 1.221713 1.451468 2.02539 2.517578 2.275586 3.018658 3.537508 5.856124 3.484375 7.976563-.03029 1.208862-.45496 2.184698-1.294922 2.828125-.500262.38321-1.090698.836848-2.320312.6875l-2.357422-.513672c1.437871.896862 3.006834 1.461523 4.824219 1.503906.683965.0075 1.230337-.103501 1.666015-.345703 4.28582-2.788341-1.670638-10.579457-4.080078-12.984375-.611716-.599787-1.872379-1.669922-1.947265-1.669922zm-2.462891 4a2 2 0 0 0 -2 2 2 2 0 0 0 2 2 2 2 0 0 0 2-2 2 2 0 0 0 -2-2zm-7.6386719 4.001953c-.250662.153727-1.2213746 3.016895-1.3378906 4.123047-.1761568 1.672431.6740239 3.394854 1.9980469 3.724609.510212.114977 1.0216346.161251 1.5273436.148438 3.539964-.08969 6.913338-3.039397 9.34961-5.033203.873629-.714967 2.160612-2.154299 2.099609-2.214844-.06101-.06054-1.354949.999189-1.992188 1.513672-2.905943 2.346145-6.242982 3.670016-8.507812 3.666016-.844852-.001501-2.0870893-.498268-2.6113282-1.09375-.599222-.680656-.7943388-1.205151-.8085938-2.751954-.008-.866932.3854961-2.144765.2832031-2.082031z" opacity=".2"/><path d="m21.451172 6.0019531c-3.539964.089694-6.913337 3.039397-9.34961 5.0332029-.87363.714967-2.1606113 2.154299-2.099609 2.214844.06101.06054 1.354949-.999189 1.992188-1.513672 2.905943-2.3461449 6.242982-3.6700155 8.507812-3.6660155.844852.00153 2.087089.4982663 2.611328 1.09375.599222.6806554.794339 1.2051505.808594 2.7519535.008.866932-.385496 2.144765-.283203 2.082031.250662-.153727 1.221375-3.016895 1.33789-4.123047.176157-1.6724307-.674023-3.394854-1.998046-3.7246094-.510212-.1149774-1.021635-.1612507-1.527344-.1484375zm-12.2753908.9980469c-.683965-.007457-1.2303382.1035009-1.6660156.3457031-4.2858203 2.7883409 1.6706386 10.5794569 4.0800784 12.9843749.611716.599787 1.872379 1.669922 1.947265 1.669922.07488 0-1.221713-1.451468-2.02539-2.517578-2.2755863-3.018658-3.5375078-5.856124-3.4843752-7.976563.0302908-1.208862.4549601-2.1846978 1.2949218-2.8281246.5002618-.3832103 1.0906984-.8368486 2.3203124-.6875l2.357422.5136718c-1.437871-.8968615-3.006834-1.4615229-4.8242188-1.5039062zm9.2871098 3c-.07488 0 1.221713 1.451468 2.02539 2.517578 2.275586 3.018658 3.537508 5.856124 3.484375 7.976563-.03029 1.208862-.45496 2.184698-1.294922 2.828125-.500262.38321-1.090698.836848-2.320312.6875l-2.357422-.513672c1.437871.896862 3.006834 1.461523 4.824219 1.503906.683965.0075 1.230337-.103501 1.666015-.345703 4.28582-2.788341-1.670638-10.579457-4.080078-12.984375-.611716-.599787-1.872379-1.669922-1.947265-1.669922zm-2.462891 4a2 2 0 0 0 -2 2 2 2 0 0 0 2 2 2 2 0 0 0 2-2 2 2 0 0 0 -2-2zm-7.6386719 4.001953c-.250662.153727-1.2213746 3.016895-1.3378906 4.123047-.1761568 1.672431.6740239 3.394854 1.9980469 3.724609.510212.114977 1.0216346.161251 1.5273436.148438 3.539964-.08969 6.913338-3.039397 9.34961-5.033203.873629-.714967 2.160612-2.154299 2.099609-2.214844-.06101-.06054-1.354949.999189-1.992188 1.513672-2.905943 2.346145-6.242982 3.670016-8.507812 3.666016-.844852-.001501-2.0870893-.498268-2.6113282-1.09375-.599222-.680656-.7943388-1.205151-.8085938-2.751954-.008-.866932.3854961-2.144765.2832031-2.082031z" fill="#fff"/><path d="m16 2c-7.74375 0-14 6.25625-14 14 0 .168804.0194943.332659.0253906.5.2645948-7.5092914 6.3996637-13.5 13.9746094-13.5 7.574946 0 13.710015 5.9907086 13.974609 13.5.005897-.167341.025391-.331196.025391-.5 0-7.74375-6.25625-14-14-14z" fill="#fff" opacity=".1" transform="scale(1.00000001)"/></svg>