<svg height="32" width="32" xmlns="http://www.w3.org/2000/svg"><rect height="25" opacity=".2" rx="1.25" ry="1.389" width="5" x="2" y="4"/><rect height="25" opacity=".2" rx="1.25" ry="1.389" width="5" x="24" y="4"/><path d="m4.2500001 6c-.6925001 0-1.2500001.4707773-1.2500001 1.0555558v16.8888882c0 .584779.5575 1.055556 1.2500001 1.055556h20.6249999c.692501 0 1.250001-.470777 1.250001-1.055556v-16.8888882c0-.5847785-.5575-1.0555558-1.250001-1.0555558zm19.9999999 0c-.6925 0-1.25.4707773-1.25 1.0555558v16.8888882c0 .584779.5575 1.055556 1.25 1.055556h2.500001c.692499 0 1.249999-.470777 1.249999-1.055556v-16.8888882c0-.5847785-.5575-1.0555558-1.249999-1.0555558z" fill="#8e8e8e"/><rect fill="#ff9205" height="25" rx="1.25" ry="1.389" width="5" x="2" y="3"/><rect fill="#00c1ee" height="25" rx="1.25" ry="1.389" width="5" x="24" y="3"/><path d="m15.5 10.499999v10m0-10-9 10h18z" fill="none" stroke="#3f3f3f" stroke-linecap="round" stroke-linejoin="round" stroke-width="3"/><path d="m15.5 9c-1.380712-.0000001-2.5 1.119288-2.5 2.5s1.119288 2.5 2.5 2.5 2.5-1.119288 2.5-2.5-1.119288-2.5000001-2.5-2.5zm-8 10c-1.3807118 0-2.4999997 1.119288-2.5 2.5.0000003 1.380712 1.1192882 2.5 2.5 2.5s2.4999997-1.119288 2.5-2.5c-.0000003-1.380712-1.1192882-2.5-2.5-2.5zm8 0c-1.380712 0-2.5 1.119288-2.5 2.5s1.119288 2.5 2.5 2.5 2.5-1.119288 2.5-2.5-1.119288-2.5-2.5-2.5zm9 0c-1.380712 0-2.5 1.119288-2.5 2.5s1.119288 2.5 2.5 2.5 2.5-1.119288 2.5-2.5-1.119288-2.5-2.5-2.5z" opacity=".2"/><g fill="#fff"><path d="m15.5 8c-1.380712-.0000001-2.5 1.1192881-2.5 2.5 0 1.380712 1.119288 2.5 2.5 2.5s2.5-1.119288 2.5-2.5c0-1.3807119-1.119288-2.5000001-2.5-2.5zm-9 10c-1.3807118 0-2.4999997 1.119288-2.5 2.5.0000003 1.380712 1.1192882 2.5 2.5 2.5s2.4999997-1.119288 2.5-2.5c-.0000003-1.380712-1.1192882-2.5-2.5-2.5zm9 0c-1.380712 0-2.5 1.119288-2.5 2.5s1.119288 2.5 2.5 2.5 2.5-1.119288 2.5-2.5-1.119288-2.5-2.5-2.5zm9 0c-1.380712 0-2.5 1.119288-2.5 2.5s1.119288 2.5 2.5 2.5 2.5-1.119288 2.5-2.5-1.119288-2.5-2.5-2.5z"/><path d="m3.25 3c-.6925 0-1.25.6192275-1.25 1.3886719v1c0-.7694444.5575-1.3886719 1.25-1.3886719h2.5c.6925 0 1.25.6192275 1.25 1.3886719v-1c0-.7694444-.5575-1.3886719-1.25-1.3886719z" opacity=".1"/><path d="m25.25 3c-.6925 0-1.25.6192275-1.25 1.3886719v1c0-.7694444.5575-1.3886719 1.25-1.3886719h2.5c.6925 0 1.25.6192275 1.25 1.3886719v-1c0-.7694444-.5575-1.3886719-1.25-1.3886719z" opacity=".1"/></g></svg>