<svg height="32" viewBox="0 0 32 32" width="32" xmlns="http://www.w3.org/2000/svg"><path d="m16.077891 3.0009318a3.2973503 3.1835035 0 0 0 -1.726819.4246865l-9.7022524 5.408155a3.2973503 3.1835035 0 0 0 -1.6488196 2.7572767v10.817009a3.2973503 3.1835035 0 0 0 1.6486752 2.756998l9.7022528 5.408434a3.2973503 3.1835035 0 0 0 3.29735 0l9.702253-5.408434a3.2973503 3.1835035 0 0 0 1.648819-2.757278v-10.817009a3.2973503 3.1835035 0 0 0 -1.648819-2.7572767l-9.702253-5.408155a3.2973503 3.1835035 0 0 0 -1.57082-.4246865z" opacity=".2"/><path d="m16.077891 2.0009313a3.2973503 3.1835035 0 0 0 -1.726819.4246865l-9.7022524 5.408155a3.2973503 3.1835035 0 0 0 -1.6488196 2.7572772v10.817009a3.2973503 3.1835035 0 0 0 1.6486752 2.756998l9.7022528 5.408434a3.2973503 3.1835035 0 0 0 3.29735 0l9.702253-5.408434a3.2973503 3.1835035 0 0 0 1.648819-2.757278v-10.817009a3.2973503 3.1835035 0 0 0 -1.648819-2.7572772l-9.702253-5.408155a3.2973503 3.1835035 0 0 0 -1.57082-.4246865z" fill="#4f4f4f"/><path d="m16.078125 2a3.2973503 3.1835035 0 0 0 -1.726563.4257812l-9.7031245 5.4082032a3.2973503 3.1835035 0 0 0 -1.6484375 2.7578126v1a3.2973503 3.1835035 0 0 1 1.6484375-2.7578126l9.7031245-5.4082032a3.2973503 3.1835035 0 0 1 1.726563-.4257812 3.2973503 3.1835035 0 0 1 1.570313.4257812l9.701171 5.4082032a3.2973503 3.1835035 0 0 1 1.650391 2.7558596v-1a3.2973503 3.1835035 0 0 0 -1.650391-2.7558596l-9.701171-5.4082032a3.2973503 3.1835035 0 0 0 -1.570313-.4257812z" fill="#fff" opacity=".1"/><path d="m4.9299225 8.3746401c-.8178559.4573069-1.6738842.6903224-1.8605875 1.5848239l11.486341 6.187839v1.585924l1.444432-1.033585-.722215-1.82518.722215.425191-1.450074-2.358379-8.8584335-4.7728109.016927-.00957z" opacity=".3"/><g fill="#fff" transform="matrix(.94831716 -.31732406 .3743147 .92730173 0 0)"><ellipse cx=".9" cy="11.523" rx="2.052" ry="2.547"/><ellipse cx="7.245" cy="18.601" rx="2.052" ry="2.547"/><ellipse cx="4.06" cy="15.095" rx="2.052" ry="2.547"/></g><path d="m3.3331132 9.1993138a3.2973503 3.1835035 0 0 0 -.3328965 1.3917852v10.817097a3.2973503 3.1835035 0 0 0 1.6489663 2.756227l9.701959 5.408549a3.2973503 3.1835035 0 0 0 1.648966.425192v-13.973907z" fill="#d87900"/><path d="m28.675567 9.2252905-12.676869 6.8290445.0015 13.943829a3.2973503 3.1835035 0 0 0 1.647555-.425192l9.703327-5.408549a3.2973503 3.1835035 0 0 0 1.64892-2.756227v-10.817097a3.2973503 3.1835035 0 0 0 -.324433-1.3658085z" fill="#ad6200"/><path d="m28.675781 9.2246094-12.677734 6.8300786v4.003906l12.677734-6.830078a3.2973503 3.1835035 0 0 1  .324219 1.367187v-4.003906a3.2973503 3.1835035 0 0 0 -.324219-1.3671876z" fill="#fff" opacity=".2"/><g fill="none" stroke="#fff" stroke-width=".711018"><path d="m8.2259341 7.8643682 5.7826139-1.2581954 2.242239-3.088297" opacity=".2"/><path d="m11.76631 9.8088512 5.664602-1.2010038 2.242238-3.3742509" opacity=".2"/><path d="m15.070661 11.638953 5.605595-1.258195 2.242238-3.2026781" opacity=".2"/></g><path d="m3.3339844 9.1992188a3.2973503 3.1835035 0 0 0 -.3339844 1.3925782v1a3.2973503 3.1835035 0 0 1  .3339844-1.392578l12.6660156 6.824219v-1z" opacity=".1"/><path d="m28.675781 9.2246094-12.677734 6.8300786v1l12.677734-6.830079a3.2973503 3.1835035 0 0 1  .324219 1.367188v-1a3.2973503 3.1835035 0 0 0 -.324219-1.3671876z" fill="#fff" opacity=".1"/><path d="m28.675781 13.228516-12.677734 6.830078v1l12.677734-6.830078a3.2973503 3.1835035 0 0 1  .324219 1.367187v-1a3.2973503 3.1835035 0 0 0 -.324219-1.367187z" opacity=".1"/><path d="m8 14.075588v3.462178l-4.9831648-2.993765v3.462177l4.9831648 2.993765v3.462177l8-.71612z" fill="#fff" opacity=".3"/><path d="m3.0175781 18.005859v1l4.9824219 2.994141v-1zm12.2128909 5.808594-7.230469.648438v1l8-.716797z" opacity=".1"/><path d="m8 14.076172v1l7.230469 8.738281.769531-.068359zm-4.9824219.46875v.998047l4.9824219 2.99414v-1z" fill="#fff" opacity=".2"/></svg>