<svg height="32" width="32" xmlns="http://www.w3.org/2000/svg"><path d="m24.590095 29.55 1.40718-23.2c.048626-.8017352-.561654-1.2405802-1.18716-1.45l-8.31012-2.9-8.3101204 2.9c-.6229407.2173888-1.235789.6482648-1.1871601 1.45l1.4071804 23.2c.0486261.801735.5294734 1.45 1.1871601 1.45h13.80588c.657686 0 1.138531-.648265 1.18716-1.45z" opacity=".2"/><path d="m24.590095 28.55 1.40718-23.2c.048626-.8017352-.561654-1.2405802-1.18716-1.45l-8.31012-2.9-8.3101204 2.9c-.6229407.2173888-1.235789.6482648-1.1871601 1.45l1.4071804 23.2c.0486261.801735.5294734 1.45 1.1871601 1.45h13.80588c.657686 0 1.138531-.648265 1.18716-1.45z" fill="#ffd787"/><path d="m15.5 7 .5 2.5.5 2.5.5-2.5.5-2.5h-1zm-2.416016 1-.542968.4394531-.541016.4414063 1 1.5585936 1 1.560547-.458984-2zm6.832032 0-.457032 2-.458984 2 1-1.560547 1-1.5585936-.541016-.4414063zm-7.416016 4c-1.380712 0-2.5 1.790861-2.5 4 0 2.209138 1.119288 4 2.5 4s2.5-1.790862 2.5-4c0-2.209139-1.119288-4-2.5-4zm8 0c-1.380712 0-2.5 1.790861-2.5 4 0 2.20914 1.119288 4 2.5 4s2.5-1.79086 2.5-4c0-2.209139-1.119288-4-2.5-4zm-4.025391 5c-.20541.01031-.383986.144632-.449218.339844l-.5 1.5-.498047 1.5c-.146421.440159.33285.826318.730468.58789.681536-.516071.799985-.410442 1.484376 0 .397618.238428.876889-.147731.730468-.58789l-.498047-1.5-.5-1.5c-.07115-.212959-.275942-.35141-.5-.339844zm-3.27539 5c-1.2188 0-2.199219 1.041076-2.199219 2.333984v.666016 1 .666016c0 1.292907.980419 2.333984 2.199219 2.333984h6.599609c1.2188 0 2.201172-1.041077 2.201172-2.333984v-2.332032c0-1.292908-.982372-2.333984-2.201172-2.333984zm.800781 1h2v2h-2zm3 0h2v2h-2zm-4 .021484v1.978516h-1v-.666016c0-.704901.441356-1.213138 1-1.3125zm7 0c .558074.10035 1 .609341 1 1.3125v.666016h-1zm-8 2.978516h1v1.978516c-.558644-.09936-1-.6076-1-1.3125zm2 0h2v2h-2zm3 0h2v2h-2zm3 0h1v .666016c0 .703158-.441926 1.21215-1 1.3125z" opacity=".2"/><path d="m15.5 6 .5 2.5.5 2.5.5-2.5.5-2.5h-1zm-2.416016 1-.542968.4394531-.541016.4414063 1 1.5585937 1 1.5605469-.458984-2zm6.832032 0-.457032 2-.458984 2 1-1.5605469 1-1.5585937-.541016-.4414063zm-7.416016 4c-1.380712 0-2.5 1.790861-2.5 4 0 2.209138 1.119288 4 2.5 4s2.5-1.790862 2.5-4c0-2.209139-1.119288-4-2.5-4zm8 0c-1.380712 0-2.5 1.790861-2.5 4 0 2.20914 1.119288 4 2.5 4s2.5-1.79086 2.5-4c0-2.209139-1.119288-4-2.5-4zm-4.025391 5c-.20541.01031-.383986.144632-.449218.339844l-.5 1.5-.498047 1.5c-.146421.440159.33285.826318.730468.58789.681536-.516071.799985-.410442 1.484376 0 .397618.238428.876889-.147731.730468-.58789l-.498047-1.5-.5-1.5c-.07115-.212959-.275942-.35141-.5-.339844zm-3.27539 5c-1.2188 0-2.199219 1.041076-2.199219 2.333984v.666016 1 .666016c0 1.292907.980419 2.333984 2.199219 2.333984h6.599609c1.2188 0 2.201172-1.041077 2.201172-2.333984v-2.332032c0-1.292908-.982372-2.333984-2.201172-2.333984zm.800781 1h2v2h-2zm3 0h2v2h-2zm-4 .021484v1.978516h-1v-.666016c0-.704901.441356-1.213138 1-1.3125zm7 0c .558074.10035 1 .609341 1 1.3125v.666016h-1zm-8 2.978516h1v1.978516c-.558644-.099362-1-.6076-1-1.3125zm2 0h2v2h-2zm3 0h2v2h-2zm3 0h1v .666016c0 .703158-.441926 1.21215-1 1.3125z" fill="#593333"/><path d="m16.5 1-8.3105469 2.9003906c-.6229407.2173888-1.2361289.6474836-1.1875 1.4492188l.0371094.6191406c.1335044-.5598649.6356921-.888744 1.1503906-1.0683594l8.3105469-2.9003906 8.310547 2.9003906c.517039.173105 1.017692.5063646 1.150391 1.0683594l.037109-.6191406c.048626-.8017352-.561994-1.239799-1.1875-1.4492188z" fill="#fff" opacity=".2"/></svg>