<svg height="32" viewBox="0 0 32 32" width="32" xmlns="http://www.w3.org/2000/svg"><path d="m3.4004 4c-.7756 0-1.4004.6192-1.4004 1.3887v20.612h28v-20.611c0-.7695-.625-1.3887-1.4-1.3887h-25.2z" fill="#4ab3e4"/><path d="m3.4 29c-.7756 0-1.4-.619-1.4-1.389v-1.611h28v1.6111c0 .77-.624 1.389-1.4 1.389z" fill="#253951"/><path d="m3.4004 4c-.7756 0-1.4004.6192-1.4004 1.3887v1c0-.7695.6248-1.3887 1.4004-1.3887h25.2c.775 0 1.4.6192 1.4 1.3887v-1c0-.7695-.625-1.3887-1.4-1.3887z" fill="#fff" opacity=".1"/><path d="m2 27.611v1c0 .77.6248 1.389 1.4004 1.389h25.2c.775 0 1.4-.619 1.4-1.389v-1c0 .77-.625 1.389-1.4 1.389h-25.2c-.7752 0-1.4-.619-1.4-1.389z" opacity=".2"/></svg>