<svg height="32" width="32" xmlns="http://www.w3.org/2000/svg"><path d="m15.999625 6.000002c-.680985 0-1.362421.253823-1.871473.7628622l-10.3652997 10.3664698c-1.0181022 1.018078-1.0166583 2.721843.00147 3.739921l10.3653177 10.36647c1.018102 1.018078 2.723383 1.019522 3.741485.0014l10.365299-10.366381c1.018101-1.018079 1.018102-2.7233 0-3.741378l-10.365328-10.3665018c-.509051-.5090392-1.190489-.7628622-1.871471-.7628622z" opacity=".2"/><path d="m15.999625 4.9999964c-.680985 0-1.362421.253823-1.871473.7628622l-10.3652997 10.3664694c-1.0181022 1.018078-1.0166583 2.721843.00147 3.739921l10.3653177 10.36647c1.018102 1.018078 2.723383 1.019522 3.741485.0014l10.365299-10.366381c1.018101-1.018079 1.018102-2.7233 0-3.741378l-10.365328-10.3665014c-.509051-.5090392-1.190489-.7628622-1.871471-.7628622z" fill="#a42a2a"/><path d="m15.999625 2.0000061c-.680985 0-1.362421.2538232-1.871472.7628625l-10.3653003 10.3664694c-1.0181022 1.018078-1.0166582 2.721842.00146 3.739921l10.3653263 10.366469c1.018101 1.018079 2.723382 1.019522 3.741484.0014l10.3653-10.366425c1.018102-1.018079 1.018103-2.7233 0-3.741378l-10.365327-10.3664564c-.509051-.5090393-1.190489-.7628625-1.871471-.7628625z" opacity=".2"/><path d="m15.999625 1.0000005c-.680985 0-1.362421.2538232-1.871472.7628625l-10.3653003 10.366469c-1.0181022 1.018078-1.0166582 2.721842.00146 3.739921l10.3653263 10.366469c1.018101 1.018079 2.723382 1.019522 3.741484.0014l10.3653-10.366425c1.018102-1.018079 1.018103-2.7233 0-3.741378l-10.365327-10.366456c-.509051-.5090393-1.190489-.7628625-1.871471-.7628625z" fill="#cf3d3d"/><path d="m16 9.0000056-5 5.0000004 4.376953 4.376953.623047.623047 5.054688 5.054688 2.121093-2.121094-5.054687-5.054688 2.878906-2.878906z" opacity=".2"/><path d="m16 8-5 5 4.376953 4.376953.623047.623047 5.054688 5.054688 2.121093-2.121094-5.054687-5.054688 2.878906-2.878906z" fill="#fff"/><path d="m16 1c-.680985 0-1.362043.2546326-1.871094.7636719l-10.3652341 10.3652341c-.6319024.631888-.8697222 1.529043-.7167969 2.361328.0954254-.501638.3354745-.980014.7167969-1.361328l10.3652341-10.3652341c.509051-.5090393 1.190109-.7636719 1.871094-.7636719.680982 0 1.362043.2546326 1.871094.7636719l10.365234 10.3652341c.38373.383721.622328.865727.716797 1.371094.156174-.83546-.082424-1.736736-.716797-2.371094l-10.365234-10.3652341c-.509051-.5090393-1.190112-.7636719-1.871094-.7636719z" fill="#fff" opacity=".2"/></svg>