<svg height="16" width="16" xmlns="http://www.w3.org/2000/svg"><path d="m8 1 1.79 1.79-1.79 1.8-3-3-1.41 1.41 3.7 3.71c.3912.3943 1.0288.3943 1.42 0l2.501-2.5 1.789 1.79v-5z" fill="#5c616c" opacity=".3"/><path d="m8.14 8.01c-2.67-.04-5.25 1.01-7.15 2.9l-.7.71c-.39.38-.39 1.01 0 1.4l2.1 2.1c.39.39 1.02.39 1.41 0l1.2-1.2v-2.26l.2-.08c1.78-.79 3.82-.79 5.601.01l.2.07v2.26l.5.5.71.7c.379.39 1.01.39 1.399 0l2.101-2.1c.389-.39.389-1.02 0-1.4l-.701-.71c-1.83-1.82-4.289-2.86-6.87-2.9z" fill="#5c616c"/></svg>