<svg height="16" viewBox="0 0 16 16" width="16" xmlns="http://www.w3.org/2000/svg" xmlns:xlink="http://www.w3.org/1999/xlink"><linearGradient id="a" gradientUnits="userSpaceOnUse" x1="8" x2="24" y1="24" y2="8"><stop offset="0" stop-color="#e81877"/><stop offset=".313" stop-color="#dd1d8c"/><stop offset=".563" stop-color="#6d57b1"/><stop offset=".75" stop-color="#2a78c1"/><stop offset="1" stop-color="#018dcb"/></linearGradient><linearGradient id="b" gradientTransform="matrix(1 0 0 -1 384.57 547.8)" gradientUnits="userSpaceOnUse" x1="8" x2="24" y1="24" y2="8"><stop offset="0" stop-color="#e51561"/><stop offset=".313" stop-color="#e4156c"/><stop offset=".563" stop-color="#e71e2c"/><stop offset=".75" stop-color="#e8301e"/><stop offset="1" stop-color="#e6320e"/></linearGradient><linearGradient id="c" gradientTransform="matrix(-1 0 0 1 432.57 499.8)" gradientUnits="userSpaceOnUse" x1="8" x2="24" y1="24" y2="8"><stop offset="0" stop-color="#bec900"/><stop offset=".313" stop-color="#9ec80a"/><stop offset=".563" stop-color="#71b93d"/><stop offset=".75" stop-color="#35a48f"/><stop offset="1" stop-color="#018fca"/></linearGradient><linearGradient id="d" gradientTransform="matrix(-1 0 0 -1 432.57 547.8)" gradientUnits="userSpaceOnUse" x1="8" x2="24" y1="24" y2="8"><stop offset="0" stop-color="#c1cc00"/><stop offset=".313" stop-color="#dfcd00"/><stop offset=".563" stop-color="#f0cc00"/><stop offset=".75" stop-color="#fd8c08"/><stop offset="1" stop-color="#f25c13"/></linearGradient><g transform="matrix(.42220582 .11313241 -.11313241 .42220582 -105.243942 -259.388083)"><path d="m24 8c-8.864 0-16 7.136-16 16h16z" fill="url(#a)" transform="translate(384.57 499.8)"/><path d="m408.57 539.8c-8.864 0-16-7.136-16-16h16z" fill="url(#b)"/><path d="m408.57 507.8c8.864 0 16 7.136 16 16h-16z" fill="url(#c)"/><path d="m408.57 539.8c8.864 0 16-7.136 16-16h-16z" fill="url(#d)"/></g><g opacity=".7" transform="matrix(.4371 0 0 .4371 -170.588207 -220.966993)"><path d="m24 8c-8.864 0-16 7.136-16 16h16z" fill="url(#a)" transform="translate(384.57 499.8)" visibility="hidden"/><path d="m408.57 539.8c-8.864 0-16-7.136-16-16h16z" fill="url(#b)" visibility="hidden"/><path d="m408.57 539.8c8.864 0 16-7.136 16-16h-16z" fill="url(#d)" visibility="hidden"/><path d="m408.57 507.8c8.864 0 16 7.136 16 16h-16z" fill="url(#c)" visibility="hidden"/></g><path d="m24 8c-8.864 0-16 7.136-16 16h16z" fill="url(#a)" opacity=".35" transform="matrix(.30907341 .30907341 -.30907341 .30907341 7.999926 -6.831703)"/><path d="m408.57 539.8c-8.864 0-16-7.136-16-16h16z" fill="url(#b)" opacity=".35" transform="matrix(.30907341 .30907341 -.30907341 .30907341 43.613741 -280.183116)"/><path d="m408.57 539.8c8.864 0 16-7.136 16-16h-16z" fill="url(#d)" opacity=".35" transform="matrix(.30907341 .30907341 -.30907341 .30907341 43.613741 -280.183116)"/><path d="m408.57 507.8c8.864 0 16 7.136 16 16h-16z" fill="url(#c)" opacity=".35" transform="matrix(.30907341 .30907341 -.30907341 .30907341 43.613741 -280.183116)"/><path d="m24 8c-8.864 0-16 7.136-16 16h16z" fill="url(#a)" opacity=".3" transform="matrix(.11313241 .42220582 -.42220582 .11313241 15.416208 -4.864092)"/><path d="m408.57 539.8c-8.864 0-16-7.136-16-16h16z" fill="url(#b)" opacity=".3" transform="matrix(.11313241 .42220582 -.42220582 .11313241 182.927341 -223.775362)"/><path d="m408.57 539.8c8.864 0 16-7.136 16-16h-16z" fill="url(#d)" opacity=".3" transform="matrix(.11313241 .42220582 -.42220582 .11313241 182.927341 -223.775362)"/><path d="m408.57 507.8c8.864 0 16 7.136 16 16h-16z" fill="url(#c)" opacity=".3" transform="matrix(.11313241 .42220582 -.42220582 .11313241 182.927341 -223.775362)"/></svg>