<svg height="48pt" viewBox="0 0 48 48" width="48pt" xmlns="http://www.w3.org/2000/svg"><path d="m11.210938 2.847656h25.578124c4.621094 0 8.363282 3.742188 8.363282 8.363282v25.578124c0 4.621094-3.742188 8.363282-8.363282 8.363282h-25.578124c-4.621094 0-8.363282-3.742188-8.363282-8.363282v-25.578124c0-4.621094 3.742188-8.363282 8.363282-8.363282zm0 0" fill="#f13c3c" fill-rule="evenodd"/><g fill="#fff"><path d="m18.140625 16.476562h18.40625c.921875 0 1.671875.75 1.671875 1.671876 0 .925781-.75 1.671874-1.671875 1.671874h-18.40625c-.921875 0-1.671875-.746093-1.671875-1.671874 0-.921876.75-1.671876 1.671875-1.671876zm0 0"/><path d="m15.621094 13.121094c-.273438.003906-.527344.148437-.679688.378906-.851562 1.277344-1.746094 2.992188-2.601562 4.550781l-.972656-1.949219c-.207032-.414062-.710938-.582031-1.125-.375-.414063.207032-.578126.710938-.375 1.125l1.675781 3.34375c.136719.277344.414062.453126.722656.464844.308594.007813.597656-.152344.75-.421875 1.085937-1.878906 2.320313-4.316406 3.316406-5.808593.179688-.257813.199219-.59375.046875-.871094-.148437-.277344-.441406-.449219-.757812-.4375zm0 0" fill-rule="evenodd"/><path d="m18.140625 24.003906h18.40625c.921875 0 1.671875.75 1.671875 1.675782 0 .921874-.75 1.671874-1.671875 1.671874h-18.40625c-.921875 0-1.671875-.75-1.671875-1.671874 0-.925782.75-1.675782 1.671875-1.675782zm0 0"/><path d="m13.960938 25.679688c0 .921874-.75 1.671874-1.675782 1.671874-.921875 0-1.671875-.75-1.671875-1.671874 0-.925782.75-1.675782 1.671875-1.675782.925782 0 1.675782.75 1.675782 1.675782zm0 0"/><path d="m18.140625 31.535156h18.40625c.921875 0 1.671875.75 1.671875 1.671875 0 .925781-.75 1.671875-1.671875 1.671875h-18.40625c-.921875 0-1.671875-.746094-1.671875-1.671875 0-.921875.75-1.671875 1.671875-1.671875zm0 0"/><path d="m13.960938 33.207031c0 .925781-.75 1.671875-1.675782 1.671875-.921875 0-1.671875-.746094-1.671875-1.671875 0-.921875.75-1.671875 1.671875-1.671875.925782 0 1.675782.75 1.675782 1.671875zm0 0"/></g></svg>