<svg height="48pt" viewBox="0 0 48 48" width="48pt" xmlns="http://www.w3.org/2000/svg"><path d="m11.210938 2.847656h25.578124c4.621094 0 8.363282 3.742188 8.363282 8.363282v25.578124c0 4.621094-3.742188 8.363282-8.363282 8.363282h-25.578124c-4.621094 0-8.363282-3.742188-8.363282-8.363282v-25.578124c0-4.621094 3.742188-8.363282 8.363282-8.363282zm0 0" fill="#ec8a2b" fill-rule="evenodd"/><path d="m19.945312 22.894531h8.105469v12.066407l-4.054687 4.148437-4.050782-4.148437zm0 0" fill="#afafb1"/><path d="m19.945312 22.894531h4.050782v16.214844l-4.050782-4.148437zm0 0" fill="#ccc"/><path d="m34.136719 21.375v.003906c0 1.398438-1.296875 2.53125-2.898438 2.53125h-14.476562c-1.601563 0-2.898438-1.132812-2.898438-2.53125v-.003906c0-1.398438 1.296875-2.53125 2.898438-2.53125h14.476562c1.601563 0 2.898438 1.132812 2.898438 2.53125zm0 0" fill="#e6e6e6"/><path d="m20.957031 11.757812h6.082031v7.09375h-6.082031zm0 0" fill="#d13808"/><path d="m20.617188 10.722656h6.757812c.933594 0 1.6875.679688 1.6875 1.519532 0 .839843-.753906 1.519531-1.6875 1.519531h-6.757812c-.933594 0-1.6875-.679688-1.6875-1.519531 0-.839844.753906-1.519532 1.6875-1.519532zm0 0" fill="#e6e6e6"/></svg>