<svg height="48pt" viewBox="0 0 48 48" width="48pt" xmlns="http://www.w3.org/2000/svg"><g fill-rule="evenodd"><path d="m11.210938 2.847656h25.578124c4.621094 0 8.363282 3.742188 8.363282 8.363282v25.578124c0 4.621094-3.742188 8.363282-8.363282 8.363282h-25.578124c-4.621094 0-8.363282-3.742188-8.363282-8.363282v-25.578124c0-4.621094 3.742188-8.363282 8.363282-8.363282zm0 0" fill="#3f5979"/><path d="m25.714844 22.3125c0 1.261719.035156 2.308594-.574219 3.425781-.492187.910157-1.269531 1.46875-2.140625 1.46875-1.183594 0-1.871094-.945312-1.871094-2.339843 0-2.753907 2.355469-3.253907 4.589844-3.253907v.699219m3.113281 7.875c-.203125.191406-.496093.203125-.726562.078125-1.023438-.890625-1.210938-1.304687-1.773438-2.15625-1.695312 1.808594-2.894531 2.351563-5.09375 2.351563-2.597656 0-4.625-1.675782-4.625-5.035157 0-2.621093 1.359375-4.410156 3.292969-5.28125 1.671875-.773437 4.015625-.910156 5.808594-1.121093v-.417969c0-.769531.058594-1.675781-.371094-2.339844-.378906-.597656-1.101562-.839844-1.734375-.839844-1.179687 0-2.230469.628907-2.484375 1.9375-.054688.292969-.253906.578125-.539062.59375l-2.996094-.335937c-.25-.0625-.527344-.273438-.460938-.675782.691406-3.792968 3.976563-4.941406 6.910156-4.941406 1.503907 0 3.46875.417969 4.652344 1.609375 1.503906 1.464844 1.359375 3.421875 1.359375 5.554688v5.035156c0 1.511719.597657 2.175781 1.164063 2.996094.199218.289062.242187.640625-.007813.859375-.628906.554687-1.75 1.570312-2.367187 2.144531l-.011719-.011719" fill="#fff"/><path d="m34.238281 30.457031c-.839843.011719-1.832031.203125-2.582031.746094-.234375.164063-.195312.394531.066406.363281.84375-.105468 2.726563-.335937 3.0625.105469.339844.4375-.375 2.257813-.6875 3.066406-.097656.246094.109375.347657.324219.160157 1.414063-1.207032 1.773437-3.738282 1.484375-4.105469-.140625-.179688-.828125-.347657-1.667969-.335938zm-22.0625.484375c-.175781.023438-.253906.242188-.070312.410156 3.132812 2.902344 7.273437 4.644532 11.871093 4.644532 3.28125 0 7.085938-1.058594 9.714844-3.042969v-.003906c.4375-.332031.066406-.820313-.378906-.628907-2.945312 1.28125-6.148438 1.898438-9.058594 1.898438-4.316406 0-8.5-1.210938-11.878906-3.226562-.074219-.042969-.140625-.058594-.199219-.050782zm0 0" fill="#f90"/></g></svg>