<svg height="48pt" viewBox="0 0 48 48" width="48pt" xmlns="http://www.w3.org/2000/svg"><path d="m11.210938 2.847656h25.578124c4.621094 0 8.363282 3.742188 8.363282 8.363282v25.578124c0 4.621094-3.742188 8.363282-8.363282 8.363282h-25.578124c-4.621094 0-8.363282-3.742188-8.363282-8.363282v-25.578124c0-4.621094 3.742188-8.363282 8.363282-8.363282zm0 0" fill="#e6e6e6" fill-rule="evenodd"/><path d="m23.976562 8.332031c-3.003906 0-5.59375 2.796875-5.59375 6.265625 0 7.835938-4.476562 8.617188-4.476562 14.101563 0 6.058593 4.507812 10.96875 10.070312 10.96875s10.070313-4.910157 10.070313-10.96875c0-5.484375-4.472656-6.265625-4.472656-14.101563 0-3.46875-2.59375-6.265625-5.597657-6.265625zm0 0" fill="#5095ab"/><path d="m23.976562 17.285156c-2.003906 0-3.355468 1.695313-3.355468 3.804688 0 4.757812-3.359375 5.230468-3.359375 8.5625 0 3.675781 3.007812 6.65625 6.714843 6.65625 3.707032 0 6.714844-2.980469 6.714844-6.65625 0-3.332032-3.355468-3.804688-3.355468-8.5625 0-2.109375-1.355469-3.804688-3.359376-3.804688zm0 0" fill="#fff"/><path d="m18.960938 39.644531c-.335938-.054687-.632813-.15625-1.289063-.4375-.972656-.417969-1.425781-.554687-3.207031-.960937-.886719-.203125-1.21875-.292969-1.988282-.542969-.28125-.089844-.652343-.207031-.832031-.257813-.476562-.136718-.605469-.191406-.78125-.328124-.238281-.1875-.347656-.480469-.304687-.804688.027344-.207031.097656-.40625.296875-.824219.269531-.558593.933593-.757812.972656-1.308593.023437-.324219.003906-.6875-.078125-1.445313-.046875-.449219-.058594-.617187-.058594-.902344-.003906-.308593 0-.09375.035156-.210937.117188-.445313.210938-.699219.632813-.808594.125-.035156-.132813-.039062.441406-.050781.359375-.011719.566407-.019531.613281-.03125.25-.054688.429688-.148438.597657-.308594.160156-.152344.269531-.980469.480469-1.355469.324218-.574218.96875-.570312 1.496093-.589844.148438.03125.199219.050782.359375.144532.164063.09375.210938.132812.355469.285156.359375.382812.53125.621094 1.335937 1.839844.640626.96875.835938 1.277344 1.09375 1.734375.28125.492187.785157 1.285156.972657 1.527343.03125.039063.226562.289063.433593.546876.203126.261718.394532.507812.417969.546874.386719.539063.65625 1.15625.753907 1.777344.03125.214844.035156.253906.015624.5-.023437.3125-.042968.449219-.078124.515625-.011719.027344-.042969.105469-.066407.167969-.292969.824219-1.03125 1.441406-1.886719 1.582031-.179687.03125-.539062.03125-.734374 0zm0 0" fill="#eab108"/><path d="m32.046875 39.269531c.257813-.179687.464844-.382812.886719-.875.632812-.738281.617187-1.03125 1.925781-2.085937.652344-.527344.890625-.734375 1.425781-1.25.195313-.1875.457032-.433594.582032-.546875.339843-.304688.421874-.402344.511718-.582031.121094-.25.089844-.53125-.078125-.777344-.109375-.15625-.25-.289063-.589843-.546875-.453126-.34375-.585938-.640625-.847657-1.066407-.152343-.253906.046875-.890624-.199219-1.539062-.144531-.382812-.203124-.523438-.320312-.753906-.128906-.25-.15625-.292969-.230469-.375-.285156-.3125-.597656-.417969-.996093-.332032-.117188.023438-.183594.050782-.664063.277344-.300781.136719-.574219.257813-.613281.269532-.230469.054687-.417969.050781-.625-.011719-.199219-.058594-.355469.351562-.683594.132812-.222656-.144531-.464844-.332031-.636719-.378906-.242187-.066406-.238281-.066406-.464843-.039063-.214844.027344-.375.085938-.550782.222657-.109375.085937-.140625.125-.238281.265625-.097656.144531-.121094.195312-.175781.375-.136719.457031-.183594.71875-.34375 2.035156-.128906 1.042969-.164063 1.375-.1875 1.847656-.027344.515625-.117188 1.363282-.175782 1.632813-.007812.046875-.066406.324219-.128906.621093-.0625.296876-.117187.570313-.121094.609376-.097656.597656-.066406 1.207031.113282 1.75.0625.1875.074218.21875.191406.410156.152344.246094.222656.34375.28125.386718.019531.015626.078125.066407.121094.109376.589844.546874 1.457031.746093 2.222656.511718.164062-.050781.460938-.195312.609375-.300781zm0 0" fill="#eab108"/><path d="m23.976562 13.929688c0 1.234374-1 2.238281-2.238281 2.238281-1.234375 0-2.238281-1.003907-2.238281-2.238281 0-1.238282 1.003906-2.238282 2.238281-2.238282 1.238281 0 2.238281 1 2.238281 2.238282zm0 0" fill="#fff"/><path d="m22.859375 13.929688c0 .617187-.503906 1.117187-1.121094 1.117187-.617187 0-1.117187-.5-1.117187-1.117187 0-.621094.5-1.121094 1.117187-1.121094.617188 0 1.121094.5 1.121094 1.121094zm0 0" fill="#323232"/><path d="m27.335938 16.726562c0 2.164063-1.503907 3.917969-3.359376 3.917969-1.855468 0-3.355468-1.753906-3.355468-3.917969zm0 0" fill="#f77d00"/><path d="m28.453125 13.929688c0 1.234374-1 2.238281-2.238281 2.238281-1.234375 0-2.238282-1.003907-2.238282-2.238281 0-1.238282 1.003907-2.238282 2.238282-2.238282 1.238281 0 2.238281 1 2.238281 2.238282zm0 0" fill="#fff"/><path d="m27.335938 13.929688c0 .617187-.503907 1.117187-1.121094 1.117187-.617188 0-1.117188-.5-1.117188-1.117187 0-.621094.5-1.121094 1.117188-1.121094.617187 0 1.121094.5 1.121094 1.121094zm0 0" fill="#323232"/><path d="m27.335938 16.914062c0 .371094-1.503907 2.609376-3.359376 2.609376-1.855468 0-3.355468-2.238282-3.355468-2.609376 0-1.03125 1.5-1.867187 3.355468-1.867187 1.855469 0 3.359376.835937 3.359376 1.867187zm0 0" fill="#eab108"/><path d="m32.316406 31.886719c-1.289062 0-1.300781-1.070313-1.558594-2.332031-.285156-1.40625-.46875-2.21875 1.777344-2.335938 1.941406-.636719 2.242188 4.59375-.21875 4.667969zm0 0" fill="#5095ab"/></svg>