<svg height="48pt" viewBox="0 0 48 48" width="48pt" xmlns="http://www.w3.org/2000/svg"><path d="m11.210938 2.847656h25.578124c4.621094 0 8.363282 3.742188 8.363282 8.363282v25.578124c0 4.621094-3.742188 8.363282-8.363282 8.363282h-25.578124c-4.621094 0-8.363282-3.742188-8.363282-8.363282v-25.578124c0-4.621094 3.742188-8.363282 8.363282-8.363282zm0 0" fill="#02a8f3" fill-rule="evenodd"/><path d="m9.800781 11.566406c-.984375 0-1.777343.785156-1.777343 1.757813v21.089843c0 .972657.792968 1.4375 1.777343 1.4375h16.117188l3.832031 3.835938 3.195312-3.835938h5.257813c.980469 0 1.773437-.464843 1.773437-1.4375v-21.089843c0-.972657-.792968-1.757813-1.777343-1.757813zm0 0" fill="#fff"/><path d="m24 15.402344c-4.589844 0-8.308594 3.71875-8.308594 8.308594 0 4.585937 3.71875 8.308593 8.308594 8.308593s8.308594-3.722656 8.308594-8.308593c0-4.589844-3.71875-8.308594-8.308594-8.308594zm1.589844 1.472656c1.203125.28125 2.3125.875 3.214844 1.71875-.292969.277344-.601563.535156-.9375.757812-.601563-.972656-1.394532-1.816406-2.328126-2.464843.015626-.003907.035157-.007813.050782-.011719zm-3.175782.003906c.015626.003906.03125.003906.046876.003906-.9375.652344-1.726563 1.496094-2.328126 2.46875-.335937-.222656-.644531-.480468-.9375-.757812.902344-.84375 2.015626-1.4375 3.21875-1.714844zm.945313.957032v2.648437c-.738281-.066406-1.445313-.246094-2.101563-.523437.539063-.851563 1.257813-1.574219 2.101563-2.125zm1.28125 0c .84375.550781 1.5625 1.273437 2.101563 2.125-.65625.277343-1.363282.457031-2.101563.523437zm-6.289063 1.710937c.371094.34375.757813.664063 1.1875.9375-.339843.804687-.550781 1.675781-.621093 2.585937h-1.914063c.117188-1.277343.585938-2.496093 1.347656-3.523437zm11.296876 0c .761718 1.03125 1.226562 2.25 1.347656 3.523437h-1.914063c-.070312-.910156-.28125-1.78125-.621093-2.585937.425781-.273437.816406-.59375 1.1875-.9375zm-8.972657 1.546875c.832031.367188 1.738281.589844 2.683594.664062v1.3125h-3.160156c.0625-.691406.226562-1.355468.476562-1.976562zm6.648438 0c .25.621094.414062 1.285156.476562 1.976562h-3.160156v-1.3125c.945313-.074218 1.851563-.296874 2.683594-.664062zm-10.320313 3.253906h1.914063c.070312.910156.28125 1.78125.621093 2.585938-.410156.265625-.921874.492187-1.269531.824218-.710937-1.003906-1.148437-2.179687-1.265625-3.410156zm3.195313 0h3.160156v1.3125c-.945313.074219-1.851563.300782-2.683594.667969-.25-.625-.414062-1.285156-.476562-1.980469zm4.441406 0h3.160156c-.0625.695313-.226562 1.355469-.476562 1.980469-.832031-.367187-1.738281-.59375-2.683594-.667969zm4.441406 0h1.914063c-.121094 1.28125-.589844 2.503906-1.355469 3.535156-.371094-.34375-.753906-.675781-1.179687-.949218.339843-.804688.550781-1.675782.621093-2.585938zm-5.722656 2.589844v2.648438c-.84375-.554688-1.5625-1.273438-2.101563-2.125.65625-.28125 1.363282-.457032 2.101563-.523438zm1.28125 0c .738281.066406 1.445313.242188 2.101563.523438-.539063.851562-1.257813 1.570312-2.101563 2.125zm-4.507813 1.128906c.601563.972656 1.390626 1.816406 2.328126 2.46875-.015626.003906-.035157.003906-.050782.011719-1.199218-.28125-2.304687-.875-3.207031-1.71875.292969-.273437.59375-.539063.929687-.761719zm7.734376 0c .335937.222656.644531.484375.9375.757813-.90625.847656-2.015626 1.4375-3.21875 1.71875-.015626-.003907-.035157-.003907-.046876-.007813.933594-.652344 1.726563-1.496094 2.328126-2.46875zm0 0" fill="#999"/></svg>