<svg height="48pt" viewBox="0 0 48 48" width="48pt" xmlns="http://www.w3.org/2000/svg"><path d="m11.210938 2.847656h25.578124c4.621094 0 8.363282 3.742188 8.363282 8.363282v25.578124c0 4.621094-3.742188 8.363282-8.363282 8.363282h-25.578124c-4.621094 0-8.363282-3.742188-8.363282-8.363282v-25.578124c0-4.621094 3.742188-8.363282 8.363282-8.363282zm0 0" fill="#5db43e" fill-rule="evenodd"/><path d="m32.300781 10.5c-5.332031 0-6.332031 8.011719-3.332031 8.011719s8.664062-8.011719 3.332031-8.011719zm-8.214843 1.234375c-.082032-.003906-.175782.007813-.269532.015625-3.019531.378906-1.957031 5.433594-.347656 5.53125 1.554688.089844 3.261719-5.539062.617188-5.546875zm-5.238282 1.867187c-.183594-.011718-.390625.019532-.617187.113282-2.429688.988281-.371094 5.058594.992187 4.785156 1.234375-.25 1.410156-4.785156-.375-4.898438zm-3.964844 3.328126c-.210937-.007813-.4375.066406-.683593.246093-1.941407 1.433594.65625 4.898438 1.800781 4.363281 1-.472656.359375-4.558593-1.117188-4.609374zm11.484376 3.308593c-4.214844-.070312-9.769532 2.042969-10.71875 6.289063-1.023438 4.597656 4.226562 10.972656 9.703124 10.972656 2.695313 0 5.804688-2.4375 6.386719-5.519531.445313-2.355469-5.226562-1.410157-5.023437.144531.246094 1.867188-1.367188 2.789062-2.945313 1.585938-5.027343-3.828126 8.320313-5.738282 7.441407-10.972657-.273438-1.628906-2.316407-2.457031-4.84375-2.5zm0 0" fill="#fff"/></svg>