<svg height="48pt" viewBox="0 0 48 48" width="48pt" xmlns="http://www.w3.org/2000/svg"><path d="m11.210938 2.847656h25.578124c4.621094 0 8.363282 3.742188 8.363282 8.363282v25.578124c0 4.621094-3.742188 8.363282-8.363282 8.363282h-25.578124c-4.621094 0-8.363282-3.742188-8.363282-8.363282v-25.578124c0-4.621094 3.742188-8.363282 8.363282-8.363282zm0 0" fill="#f85b79" fill-rule="evenodd"/><path d="m14.25 11.25v3h4.5v-3zm15 0v3h4.5v-3zm-22.5 3v3h4.5v-3zm30 0v3h4.5v-3zm-15 1.5v3h4.5v-3zm-7.5 1.5v3h4.5v-3zm15 0v3h4.5v-3zm-22.5 3v3h4.5v-3zm30 0v3h4.5v-3zm-15 1.5v3h4.5v-3zm-7.5 1.5v3h4.5v-3zm15 0v3h4.5v-3zm-22.5 3v3h4.5v-3zm30 0v3h4.5v-3zm-15 1.5v3h4.5v-3zm-7.5 1.5v3h4.5v-3zm15 0v3h4.5v-3zm-7.5 4.5v3h4.5v-3zm0 0" fill="#fff"/></svg>