<svg height="48pt" viewBox="0 0 48 48" width="48pt" xmlns="http://www.w3.org/2000/svg"><g fill-rule="evenodd"><path d="m24 45.152344v-21.152344h-21.152344v12.792969c0 4.632812 3.726563 8.359375 8.359375 8.359375zm0 0" fill="#3c88e7"/><path d="m45.152344 24h-21.152344v21.152344h12.792969c4.632812 0 8.359375-3.726563 8.359375-8.359375zm0 0" fill="#5dc15c"/><path d="m24 2.847656v21.152344h21.152344v-12.792969c0-4.632812-3.726563-8.359375-8.359375-8.359375zm0 0" fill="#c2352a"/><path d="m2.847656 24h21.152344v-21.152344h-12.792969c-4.632812 0-8.359375 3.726563-8.359375 8.359375zm0 0" fill="#e7a73c"/></g><path d="m34.5 24c0 5.800781-4.699219 10.5-10.5 10.5s-10.5-4.699219-10.5-10.5 4.699219-10.5 10.5-10.5 10.5 4.699219 10.5 10.5zm0 0" fill="#2e2e2e"/></svg>