<svg height="48pt" viewBox="0 0 48 48" width="48pt" xmlns="http://www.w3.org/2000/svg"><g fill-rule="evenodd"><g fill="#ccc"><path d="m45.152344 12.898438v-1.6875c0-4.636719-3.726563-8.363282-8.363282-8.363282h-16.945312c-.035156 1.535156-.265625 3.082032-.164062 4.570313 2.671874-.371094 5.316406-.464844 7.90625-.292969 2.589843.171875 5.128906.601562 7.585937 1.273438 2.453125.667968 4.828125 1.578124 7.089844 2.707031 1.019531.503906 1.921875 1.203125 2.890625 1.792969zm0 0"/><path d="m45.152344 27.996094v-12.453125c-.285156-.183594-.527344-.425781-.816406-.601563-1.964844-1.191406-4.039063-2.210937-6.203126-3.039062-2.164062-.824219-4.414062-1.460938-6.734374-1.886719-2.316407-.429687-4.699219-.644531-7.125-.640625-1.445313.003906-2.902344.082031-4.371094.25.332031 1.988281.828125 3.976562 1.523437 5.9375.691407 1.960938 1.578125 3.894531 2.6875 5.773438 2.476563.050781 4.882813.328124 7.210938.804687s4.570312 1.152344 6.71875 2.015625c2.152343.859375 4.203125 1.90625 6.140625 3.117188.34375.210937.632812.5.96875.722656zm0 0"/><path d="m22.304688 45.152344h14.484374c4.636719 0 8.363282-3.726563 8.363282-8.363282v-5.71875c-.421875-.316406-.78125-.6875-1.21875-.988281-1.761719-1.207031-3.640625-2.289062-5.625-3.226562-1.191406 2.804687-2.691406 5.425781-4.4375 7.828125-1.75 2.402344-3.75 4.589844-5.953125 6.527344-1.726563 1.515624-3.664063 2.746093-5.613281 3.941406zm0 0"/><path d="m3.511719 40.0625c1.269531 2.996094 4.226562 5.089844 7.695312 5.089844h6.5c.0625-.03125.136719-.039063.199219-.066406 2.671875-1.277344 5.191406-2.875 7.5-4.765626 2.308594-1.886718 4.410156-4.070312 6.246094-6.507812 1.835937-2.441406 3.40625-5.136719 4.65625-8.0625-1.882813-.664062-3.878906-1.214844-5.929688-1.601562-2.050781-.386719-4.15625-.609376-6.265625-.609376-1.300781 2.160157-2.785156 4.148438-4.425781 5.957032s-3.429688 3.4375-5.34375 4.882812c-1.914062 1.445313-3.945312 2.707032-6.066406 3.78125-1.535156.773438-3.152344 1.332032-4.765625 1.902344zm0 0"/><path d="m4.289062 6.78125c-.832031 1.300781-1.441406 2.761719-1.441406 4.429688v25.578124c0 .371094.164063.683594.207032 1.039063 1.148437-.410156 2.324218-.738281 3.425781-1.261719 1.972656-.933594 3.867187-2.042968 5.660156-3.304687-1.496094-2.074219-2.785156-4.238281-3.863281-6.464844-1.082032-2.230469-1.953125-4.527344-2.613282-6.859375-.65625-2.335938-1.101562-4.707031-1.332031-7.097656-.199219-2.011719-.152343-4.035156-.042969-6.058594zm0 0"/><path d="m17.316406 2.847656h-6.109375c-1.644531 0-3.085937.59375-4.375 1.40625-.269531 2.136719-.433593 4.292969-.335937 6.460938.113281 2.457031.464844 4.917968 1.058594 7.335937.597656 2.417969 1.4375 4.792969 2.53125 7.085938s2.441406 4.5 4.046874 6.578125c1.550782-1.214844 2.992188-2.652344 4.324219-4.226563s2.550781-3.28125 3.660157-5.050781c-1.082032-1.878906-1.972657-3.828125-2.691407-5.8125-.714843-1.988281-1.253906-4.015625-1.621093-6.054688-.363282-2.039062-.558594-4.097656-.589844-6.140624-.007813-.53125.089844-1.050782.101562-1.582032zm0 0"/></g><path d="m17.316406 2.847656c-.011718.53125-.109375 1.050782-.101562 1.582032.03125 2.042968.226562 4.101562.589844 6.140624.367187 2.039063.90625 4.066407 1.621093 6.054688.71875 1.984375 1.609375 3.933594 2.691407 5.8125-1.109376 1.769531-2.328126 3.476562-3.660157 5.050781s-2.773437 3.011719-4.324219 4.226563c-1.605468-2.078125-2.953124-4.285156-4.046874-6.578125s-1.933594-4.667969-2.53125-7.085938c-.59375-2.417969-.945313-4.878906-1.058594-7.335937-.097656-2.167969.066406-4.324219.335937-6.460938-1.039062.652344-1.882812 1.496094-2.542969 2.527344-.109374 2.023438-.15625 4.046875.039063 6.058594.234375 2.390625.679687 4.761718 1.335937 7.097656.660157 2.332031 1.53125 4.628906 2.613282 6.859375 1.078125 2.226563 2.367187 4.390625 3.863281 6.464844-1.792969 1.261719-3.6875 2.371093-5.660156 3.304687-1.101563.523438-2.277344.851563-3.425781 1.261719.101562.765625.167968 1.546875.457031 2.234375 1.613281-.570312 3.230469-1.128906 4.765625-1.902344 2.121094-1.074218 4.152344-2.335937 6.066406-3.78125 1.914062-1.445312 3.703125-3.074218 5.34375-4.882812s3.125-3.796875 4.425781-5.957032c2.109375 0 4.214844.222657 6.265625.609376 2.050782.386718 4.046875.9375 5.929688 1.601562-1.25 2.925781-2.820313 5.621094-4.65625 8.0625-1.835938 2.4375-3.9375 4.621094-6.246094 6.507812-2.308594 1.890626-4.828125 3.488282-7.5 4.765626-.0625.027343-.136719.035156-.199219.066406h4.597657c1.949218-1.195313 3.886718-2.425782 5.613281-3.945313 2.203125-1.933593 4.203125-4.121093 5.953125-6.523437 1.746094-2.402344 3.246094-5.023438 4.4375-7.828125 1.984375.9375 3.863281 2.019531 5.625 3.226562.4375.300781.796875.671875 1.21875.988281v-3.074218c-.335938-.222656-.625-.511719-.96875-.722656-1.9375-1.210938-3.988282-2.257813-6.140625-3.117188-2.148438-.863281-4.390625-1.539062-6.71875-2.015625s-4.734375-.753906-7.210938-.808594c-1.109375-1.875-1.996093-3.808593-2.6875-5.769531-.695312-1.960938-1.191406-3.949219-1.523437-5.9375 1.46875-.167969 2.925781-.246094 4.371094-.25 2.425781-.003906 4.808593.210938 7.125.636719 2.320312.429687 4.570312 1.066406 6.734374 1.890625 2.164063.828125 4.238282 1.847656 6.203126 3.039062.289062.175782.53125.417969.816406.601563v-2.644531c-.96875-.589844-1.871094-1.289063-2.890625-1.792969-2.261719-1.128907-4.636719-2.039063-7.089844-2.707031-2.457031-.671876-4.996094-1.101563-7.585937-1.273438-2.589844-.171875-5.234376-.078125-7.90625.292969-.101563-1.488281.128906-3.035157.164062-4.570313zm0 0" fill="#666"/></g></svg>