<svg height="48pt" viewBox="0 0 48 48" width="48pt" xmlns="http://www.w3.org/2000/svg"><g fill-rule="evenodd"><path d="m11.210938 2.847656h25.578124c4.621094 0 8.363282 3.742188 8.363282 8.363282v25.578124c0 4.621094-3.742188 8.363282-8.363282 8.363282h-25.578124c-4.621094 0-8.363282-3.742188-8.363282-8.363282v-25.578124c0-4.621094 3.742188-8.363282 8.363282-8.363282zm0 0" fill="#783ba2"/><path d="m13.625 45.152344h23.164062c4.632813 0 8.363282-3.730469 8.363282-8.363282v-25.582031c0-4.632812-3.730469-8.359375-8.363282-8.359375h-23.164062zm0 0" fill="#9d4ad9"/><path d="m23.796875 45.152344v-42.304688h-12.589844c-4.632812 0-8.359375 3.726563-8.359375 8.359375v25.582031c0 4.632813 3.726563 8.363282 8.359375 8.363282zm0 0" fill="#783ba2"/></g><path d="m12.207031 18.660156h-.238281c-1.90625 0-3.445312 1.539063-3.445312 3.449219v10.863281c0 1.910156 1.539062 3.445313 3.445312 3.445313h24.0625c1.90625 0 3.445312-1.535157 3.445312-3.445313v-10.863281c0-1.910156-1.539062-3.449219-3.445312-3.449219h-.238281v8.347656c0 .753907-.304688 1.433594-.796875 1.925782-.488282.492187-1.167969.792968-1.921875.792968h-18.148438c-.753906 0-1.433593-.300781-1.921875-.792968-.492187-.492188-.796875-1.171875-.796875-1.925782zm0 0" fill="#e7dbff"/><path d="m12.207031 18.660156v8.347656c0 .753907.304688 1.433594.796875 1.925782.488282.492187 1.167969.792968 1.921875.792968h18.148438c.753906 0 1.433593-.300781 1.921875-.792968.492187-.492188.796875-1.171875.796875-1.925782v-8.347656zm0 0" fill="#783ba2"/><path d="m13.628906 32.519531h20.742188v3.898438h-20.742188zm0 0" fill="#783ba2"/><path d="m14.949219 33.953125h18.101562v5.371094h-18.101562zm0 0" fill="#e7dbff"/><path d="m37.773438 32.851562c0 .550782-.445313.996094-.996094.996094-.550782 0-.996094-.445312-.996094-.996094 0-.550781.445312-.996093.996094-.996093.550781 0 .996094.445312.996094.996093zm0 0" fill="#fff"/><path d="m14.785156 8.675781h18.097656v12.171875h-18.097656zm0 0" fill="#e7dbff"/></svg>