<svg height="48pt" viewBox="0 0 48 48" width="48pt" xmlns="http://www.w3.org/2000/svg" xmlns:xlink="http://www.w3.org/1999/xlink"><clipPath id="a"><path d="m0 0h48v48h-48z"/></clipPath><path d="m11.210938 2.847656h25.578124c4.621094 0 8.363282 3.742188 8.363282 8.363282v25.578124c0 4.621094-3.742188 8.363282-8.363282 8.363282h-25.578124c-4.621094 0-8.363282-3.742188-8.363282-8.363282v-25.578124c0-4.621094 3.742188-8.363282 8.363282-8.363282zm0 0" fill="#e74c3c" fill-rule="evenodd"/><g clip-path="url(#a)" fill="#fff" fill-rule="evenodd"><path d="m20.261719 32.199219s-1.085938.667969.777343.894531c2.253907.269531 3.410157.230469 5.894532-.265625 0 0 .65625.433594 1.566406.808594-5.574219 2.515625-12.613281-.148438-8.238281-1.4375zm0 0"/><path d="m19.582031 28.917969s-1.21875.949219.644531 1.152343c2.410157.261719 4.3125.285157 7.605469-.382812 0 0 .457031.484375 1.171875.75-6.738281 2.078125-14.242187.164062-9.421875-1.519531zm0 0"/><path d="m25.324219 23.34375c1.375 1.667969-.359375 3.164062-.359375 3.164062s3.484375-1.894531 1.882812-4.269531c-1.496094-2.214843-2.640625-3.316406 3.566406-7.109375 0 0-9.746093 2.5625-5.089843 8.214844zm0 0"/><path d="m32.695312 34.628906s.804688.699219-.886718 1.242188c-3.214844 1.023437-13.390625 1.335937-16.214844.039062-1.015625-.464844.886719-1.109375 1.488281-1.246094.625-.144531.980469-.117187.980469-.117187-1.128906-.839844-7.300781 1.644531-3.136719 2.359375 11.367188 1.941406 20.71875-.875 17.769531-2.277344zm0 0"/><path d="m20.785156 25.511719s-5.171875 1.296875-1.832031 1.765625c1.414063.199218 4.226563.15625 6.847656-.078125 2.140625-.1875 4.289063-.59375 4.289063-.59375s-.753906.339843-1.300782.734375c-5.253906 1.457031-15.40625.777344-12.484374-.710938 2.472656-1.257812 4.480468-1.117187 4.480468-1.117187zm0 0"/><path d="m30.070312 30.980469c5.34375-2.925781 2.871094-5.734375 1.148438-5.355469-.421875.089844-.613281.171875-.613281.171875s.160156-.261719.457031-.371094c3.410156-1.261719 6.035156 3.726563-1.097656 5.703125 0 0 .082031-.078125.105468-.148437zm0 0"/><path d="m26.847656 9s2.960938 3.117188-2.804687 7.914062c-4.621094 3.84375-1.054688 6.039063 0 8.542969-2.699219-2.5625-4.679688-4.820312-3.351563-6.921875 1.949219-3.085937 7.351563-4.582031 6.15625-9.535156zm0 0"/><path d="m21.3125 38.90625c5.125.34375 13-.191406 13.1875-2.75 0 0-.359375.96875-4.238281 1.738281-4.375.867188-9.773438.769531-12.976563.210938 0 0 .65625.570312 4.027344.800781zm0 0"/></g></svg>