<svg height="48pt" viewBox="0 0 48 48" width="48pt" xmlns="http://www.w3.org/2000/svg"><g fill-rule="evenodd"><path d="m17.542969 12.34375v4.839844h12.914062v-4.839844zm0 0" fill="#4d4d4d"/><path d="m27.417969 45.152344c.554687-.304688 1.117187-.609375 1.5625-1.050782.605469-.605468 1.09375-1.324218 1.429687-2.125.335938-.800781.523438-1.679687.523438-2.605468 0-.929688-.1875-1.808594-.523438-2.609375-.335937-.800781-.824218-1.519531-1.429687-2.125-.605469-.601563-1.324219-1.089844-2.125-1.429688-.800781-.335937-1.679688-.523437-2.605469-.523437s-1.808594.1875-2.609375.523437c-.800781.339844-1.519531.828125-2.121094 1.429688-.605469.605469-1.09375 1.324219-1.429687 2.125-.339844.800781-.527344 1.679687-.527344 2.609375 0 .925781.1875 1.804687.527344 2.605468.335937.800782.824218 1.519532 1.429687 2.125.441407.441407 1.003907.746094 1.558594 1.050782zm0 0" fill="#4587f3"/><path d="m24.25 30.011719h14.398438c-.066407-.539063-.113282-1.082031-.320313-1.5625-.289063-.679688-.710937-1.292969-1.230469-1.804688-.523437-.515625-1.144531-.933593-1.835937-1.21875-.691407-.289062-1.449219-.445312-2.25-.445312h-17.648438c-.800781 0-1.558593.15625-2.25.445312-.691406.285157-1.308593.703125-1.832031 1.21875-.519531.511719-.945312 1.125-1.234375 1.804688-.292969.683593-.453125 1.429687-.453125 2.21875v2.726562l5.738281 9.804688.164063.320312.039062.023438.359375.621093 1.070313.847657c-.503906-.625-1.023438-1.242188-1.339844-1.992188-.472656-1.121093-.734375-2.355469-.734375-3.648437 0-1.296875.261719-2.53125.734375-3.652344s1.152344-2.128906 2-2.972656c.847656-.847656 1.851562-1.53125 2.972656-2 .988282-.417969 2.089844-.59375 3.21875-.648438.089844-.011718.132813-.074218.230469-.085937zm0 0" fill="#dd4d3e"/><path d="m24.25 30.011719h-.203125c-.097656.011719-.140625.074219-.230469.085937.152344-.003906.277344-.085937.433594-.085937zm0 0" fill="#b3b3b3"/><path d="m9.605469 33.410156v11.421875c.535156.105469 1.035156.320313 1.601562.320313h5.851563c-.035156-.042969-.058594-.097656-.09375-.140625l-1.070313-.847657-.359375-.621093-.039062-.023438-.164063-.320312zm0 0" fill="#109f5b"/><path d="m31.917969 45.152344 1.089843-1.8125c-.121093.199218-.539062.417968-.777343.632812-.269531.390625-.496094.808594-.792969 1.179688zm0 0" fill="#b3b3b3"/><path d="m32.539062 43.722656.074219-.128906-.089843-.050781c-.105469.136719-.191407.285156-.292969.429687.09375-.085937.1875-.164062.308593-.25zm0 0" fill="#b3b3b3"/><path d="m38.78125 44.75v-14.082031c0-.234375-.105469-.429688-.132812-.65625h-14.378907s.015625.003906.015625.007812c1.28125.003907 2.503906.257813 3.613282.726563 1.121093.46875 2.128906 1.152344 2.972656 2 .847656.84375 1.53125 1.851562 2.003906 2.972656s.734375 2.355469.734375 3.652344c0 1.292968-.261719 2.527344-.734375 3.648437-.082031.195313-.226562.355469-.351562.523438l.089843.050781-.074219.128906c.1875-.128906.394532-.261718.46875-.382812l-1.089843 1.8125h4.875c.703125 0 1.332031-.238282 1.988281-.402344zm0 0" fill="#ffce41"/><path d="m17.542969 9.113281-3.226563 3.230469v4.839844h-11.46875v19.609375c0 4.0625 2.925782 7.269531 6.757813 8.039062v-11.421875l-.011719-.015625v-2.726562c0-.789063.160156-1.535157.453125-2.21875.289063-.679688.714844-1.292969 1.234375-1.804688.523438-.515625 1.140625-.933593 1.832031-1.21875.691407-.289062 1.449219-.445312 2.25-.445312h17.648438c.800781 0 1.558593.15625 2.25.445312.691406.285157 1.3125.703125 1.835937 1.21875.519532.511719.941406 1.125 1.230469 1.804688.207031.480469.253906 1.023437.320313 1.5625.027343.226562.132812.421875.132812.65625v14.082031c3.636719-.90625 6.371094-4.03125 6.371094-7.957031v-19.609375h-11.46875v-4.839844l-3.226563-3.230469zm0 3.230469h12.914062v4.839844h-12.914062zm0 0" fill="#b3b3b3"/><path d="m11.207031 2.847656c-4.632812 0-8.359375 3.726563-8.359375 8.359375v5.976563h11.46875v-4.839844l3.226563-3.230469h12.914062l3.226563 3.230469v4.839844h11.46875v-5.976563c0-4.632812-3.726563-8.359375-8.359375-8.359375zm0 0" fill="#4d4d4d"/><path d="m31.511719 42.035156h1.886719c.859374 0 1.554687.699219 1.554687 1.554688 0 .859375-.695313 1.558594-1.554687 1.558594h-1.886719c-.859375 0-1.554688-.699219-1.554688-1.558594 0-.855469.695313-1.554688 1.554688-1.554688zm0 0" fill="#ffce41"/><path d="m31.4375 45.152344c.539062-.667969 1.097656-1.328125 1.4375-2.132813.472656-1.121093.734375-2.355469.734375-3.648437 0-1.296875-.261719-2.53125-.734375-3.652344s-1.15625-2.128906-2.003906-2.972656c-.84375-.847656-1.851563-1.53125-2.972656-2-1.121094-.472656-2.351563-.734375-3.648438-.734375s-2.53125.261719-3.652344.734375c-1.121094.46875-2.125 1.152344-2.972656 2-.847656.84375-1.527344 1.851562-2 2.972656s-.734375 2.355469-.734375 3.652344c0 1.292968.261719 2.527344.734375 3.648437.335938.804688.894531 1.464844 1.433594 2.132813h4.019531c-.554687-.304688-1.117187-.609375-1.558594-1.050782-.605469-.605468-1.09375-1.324218-1.429687-2.125-.339844-.800781-.527344-1.679687-.527344-2.605468 0-.929688.1875-1.808594.527344-2.609375.335937-.800781.824218-1.519531 1.429687-2.125.601563-.601563 1.320313-1.089844 2.121094-1.429688.800781-.335937 1.683594-.523437 2.609375-.523437s1.804688.1875 2.605469.523437c.800781.339844 1.519531.828125 2.125 1.429688.605469.605469 1.09375 1.324219 1.429687 2.125.335938.800781.523438 1.679687.523438 2.609375 0 .925781-.1875 1.804687-.523438 2.605468-.335937.800782-.824218 1.519532-1.429687 2.125-.445313.441407-1.007813.746094-1.5625 1.050782zm0 0" fill="#fff"/></g></svg>