<svg height="48pt" viewBox="0 0 48 48" width="48pt" xmlns="http://www.w3.org/2000/svg"><path d="m11.210938 2.847656h25.578124c4.621094 0 8.363282 3.742188 8.363282 8.363282v25.578124c0 4.621094-3.742188 8.363282-8.363282 8.363282h-25.578124c-4.621094 0-8.363282-3.742188-8.363282-8.363282v-25.578124c0-4.621094 3.742188-8.363282 8.363282-8.363282zm0 0" fill="#fecd38" fill-rule="evenodd"/><g fill-opacity=".521569"><path d="m12.316406 16.210938v-1.949219h23.367188v1.949219zm0 0"/><path d="m12.316406 22.050781v-1.945312h23.367188v1.945312zm0 0"/><path d="m12.316406 27.894531v-1.945312h23.367188v1.945312zm0 0"/><path d="m12.316406 33.738281v-1.949219h15.578125v1.949219zm0 0"/></g></svg>