<svg height="48pt" viewBox="0 0 48 48" width="48pt" xmlns="http://www.w3.org/2000/svg"><path d="m11.210938 2.847656h25.578124c4.621094 0 8.363282 3.742188 8.363282 8.363282v25.578124c0 4.621094-3.742188 8.363282-8.363282 8.363282h-25.578124c-4.621094 0-8.363282-3.742188-8.363282-8.363282v-25.578124c0-4.621094 3.742188-8.363282 8.363282-8.363282zm0 0" fill="#ccc" fill-rule="evenodd"/><g fill="#9daabc"><path d="m13.5 12h19.5v1.5h-19.5zm0 0"/><path d="m13.5 16.5h21v1.5h-21zm0 0"/><path d="m13.5 21h19.5v1.5h-19.5zm0 0"/><path d="m13.5 25.5h16.5v1.5h-16.5zm0 0"/><path d="m13.5 30h19.5v1.5h-19.5zm0 0"/><path d="m13.5 34.5h16.5v1.5h-16.5zm0 0"/></g><path d="m30 22.5h1.5v7.5h-1.5zm0 0" fill="#4992ff"/></svg>