<svg height="48pt" viewBox="0 0 48 48" width="48pt" xmlns="http://www.w3.org/2000/svg"><path d="m2.847656 24.203125v12.585937c0 4.636719 3.726563 8.363282 8.359375 8.363282h25.582031c4.632813 0 8.363282-3.726563 8.363282-8.363282v-12.585937zm0 0" fill="#02b094" fill-rule="evenodd"/><path d="m2.847656 24.203125h42.304688v-12.996094c0-4.632812-3.730469-8.359375-8.363282-8.359375h-25.582031c-4.632812 0-8.359375 3.726563-8.359375 8.359375zm0 0" fill="#02857d" fill-rule="evenodd"/><path d="m14.359375 27.644531c.03125.78125.199219 1.394531.503906 1.84375.304688.429688.640625.757813 1.007813.984375.382812.207032.742187.332032 1.078125.382813.351562.046875.589843.070312.71875.070312.496093 0 .941406-.09375 1.339843-.289062.402344-.207031.734376-.460938 1.007813-.765625.273437-.320313.480469-.671875.625-1.054688.140625-.382812.214844-.765625.214844-1.148437 0-.480469-.097657-.917969-.289063-1.320313-.175781-.398437-.414062-.734375-.71875-1.003906-.304687-.273438-.65625-.480469-1.054687-.625-.398438-.160156-.8125-.238281-1.246094-.238281h-.910156v-2.492188h.863281c.636719 0 1.132812-.121093 1.484375-.359375.351563-.257812.609375-.535156.769531-.839844.175782-.304687.269532-.582031.285156-.839843.03125-.253907.046876-.398438.046876-.429688 0-.320312-.054688-.625-.167969-.910156-.109375-.304687-.269531-.570313-.476563-.792969-.207031-.222656-.464844-.398437-.769531-.527344-.285156-.144531-.605469-.214843-.957031-.214843-.128906 0-.3125.023437-.550782.070312-.222656.03125-.464843.128907-.71875.289063-.257812.160156-.488281.40625-.695312.742187-.207031.335938-.34375.800781-.40625 1.390625h-2.492188c.0625-1.007812.292969-1.820312.691407-2.445312.402343-.621094.863281-1.101563 1.390625-1.4375.527344-.351563 1.054687-.582032 1.582031-.695313.527344-.128906.953125-.191406 1.269531-.191406.703125 0 1.34375.128906 1.917969.382813.59375.242187 1.09375.585937 1.511719 1.03125.429687.429687.765625.949218 1.003906 1.558593.242188.589844.359375 1.238281.359375 1.941407 0 .476562-.046875.894531-.140625 1.246093-.097656.351563-.226562.664063-.382812.933594-.144532.257813-.3125.488281-.503907.695313-.191406.191406-.394531.382812-.601562.574218.511719.320313.917969.679688 1.222656 1.078125.320313.402344.566406.800781.742187 1.199219.175782.398438.289063.792969.335938 1.175781.066406.367188.097656.6875.097656.957031 0 .894532-.160156 1.695313-.480468 2.398438-.304688.6875-.71875 1.269531-1.246094 1.75-.527344.476562-1.140625.84375-1.84375 1.101562-.6875.253907-1.414063.382813-2.183594.382813-.75 0-1.46875-.136719-2.15625-.40625-.6875-.273437-1.292969-.65625-1.820312-1.152344-.527344-.496093-.949219-1.078125-1.269532-1.75-.320312-.6875-.480468-1.4375-.480468-2.25zm0 0" fill="#fff"/><path d="m33.285156 32.867188h-2.492187v-15.457032h-2.613281v-2.277344h5.105468zm0 0" fill="#fff"/></svg>