<svg height="48pt" viewBox="0 0 48 48" width="48pt" xmlns="http://www.w3.org/2000/svg"><path d="m11.210938 2.847656h25.578124c4.621094 0 8.363282 3.742188 8.363282 8.363282v25.578124c0 4.621094-3.742188 8.363282-8.363282 8.363282h-25.578124c-4.621094 0-8.363282-3.742188-8.363282-8.363282v-25.578124c0-4.621094 3.742188-8.363282 8.363282-8.363282zm0 0" fill="#ececec" fill-rule="evenodd"/><path d="m20.007812 36.550781-4.566406-14.832031-7.417968 1.140625 5.707031-4.566406 3.421875 1.140625 4.566406 11.414062 9.699219-5.707031 2.851562.570313 5.707031 10.839843-17.117187-1.710937zm9.128907-13.691406 7.417969-11.410156-3.425782 13.121093zm0 0" fill="#1ba9cb"/><path d="m22.289062 29.707031-1.710937-3.996093 4.5625-2.851563h2.285156l2.851563 2.28125zm0 0" fill="#e65902"/></svg>