<svg height="48pt" viewBox="0 0 48 48" width="48pt" xmlns="http://www.w3.org/2000/svg"><path d="m11.210938 2.847656h25.578124c4.621094 0 8.363282 3.742188 8.363282 8.363282v25.578124c0 4.621094-3.742188 8.363282-8.363282 8.363282h-25.578124c-4.621094 0-8.363282-3.742188-8.363282-8.363282v-25.578124c0-4.621094 3.742188-8.363282 8.363282-8.363282zm0 0" fill="#2279bf" fill-rule="evenodd"/><path d="m23.335938 6.519531c-1.792969 0-3.238282 1.445313-3.238282 3.238281v3.238282h-7.554687c-1.195313 0-2.15625.964844-2.15625 2.160156v6.472656h3.238281c1.792969 0 3.234375 1.445313 3.234375 3.238282 0 1.792968-1.441406 3.238281-3.234375 3.238281h-3.238281v7.554687c0 1.195313.960937 2.15625 2.15625 2.15625h7.554687v-2.15625c0-1.792968 1.445313-3.238281 3.238282-3.238281 1.792968 0 3.238281 1.445313 3.238281 3.238281v2.15625h6.472656c1.199219 0 2.160156-.960937 2.160156-2.15625v-7.554687h3.238281c1.792969 0 3.238282-1.445313 3.238282-3.238281 0-1.792969-1.445313-3.238282-3.238282-3.238282h-3.238281v-6.472656c0-1.195312-.960937-2.160156-2.160156-2.160156h-6.472656v-3.238282c0-1.792968-1.445313-3.238281-3.238281-3.238281zm0 0" fill="#fff"/></svg>