<svg height="48pt" viewBox="0 0 48 48" width="48pt" xmlns="http://www.w3.org/2000/svg"><path d="m11.210938 2.847656h25.578124c4.621094 0 8.363282 3.742188 8.363282 8.363282v25.578124c0 4.621094-3.742188 8.363282-8.363282 8.363282h-25.578124c-4.621094 0-8.363282-3.742188-8.363282-8.363282v-25.578124c0-4.621094 3.742188-8.363282 8.363282-8.363282zm0 0" fill="#c2352a" fill-rule="evenodd"/><path d="m25.796875 33.578125c-.542969-.328125-.890625-.898437-2.398437-3.949219-.835938-1.6875-1.628907-3.1875-1.765626-3.332031-.152343-.164063-1.414062-.832031-3.292968-1.75-3.710938-1.8125-4.089844-2.101563-4.089844-3.128906 0-.476563.234375-.9375.601562-1.175781.125-.082032 4.007813-1.46875 8.628907-3.085938 8.113281-2.839844 8.417969-2.9375 8.972656-2.902344.476563.03125.617187.078125.847656.296875.34375.332031.5.789063.433594 1.277344-.070313.523437-5.898437 16.984375-6.117187 17.277344-.460938.621093-1.246094.824219-1.820313.472656zm0 0" fill="#fff"/></svg>