<svg height="48pt" viewBox="0 0 48 48" width="48pt" xmlns="http://www.w3.org/2000/svg" xmlns:xlink="http://www.w3.org/1999/xlink"><filter id="a" height="100%" width="100%" x="0%" y="0%"><feColorMatrix in="SourceGraphic" type="matrix" values="0 0 0 0 1 0 0 0 0 1 0 0 0 0 1 0 0 0 1 0"/></filter><mask id="b"><g filter="url(#a)"><path d="m0 0h48v48h-48z" fill-opacity=".988235"/></g></mask><clipPath id="c"><path d="m0 0h48v48h-48z"/></clipPath><path d="m45 10.453125c-.082031-.867187-.179688-1.734375-.503906-2.503906-.421875-1.003907-1.035156-1.902344-1.789063-2.660157-.757812-.753906-1.65625-1.367187-2.65625-1.789062-.769531-.324219-1.636719-.417969-2.5-.5h-13.550781v21h21zm0 0" fill="#cf4f8c"/><path d="m10.449219 3c-.867188.082031-1.734375.175781-2.5.5-1.003907.421875-1.902344 1.035156-2.65625 1.792969-.757813.753906-1.371094 1.652343-1.792969 2.65625-.324219.765625-.417969 1.632812-.5 2.5v13.550781h21v-21zm0 0" fill="#21d789"/><g clip-path="url(#c)" mask="url(#b)"><path d="m37.554688 45c .863281-.082031 1.730468-.175781 2.496093-.5 1.003907-.421875 1.902344-1.035156 2.660157-1.792969.753906-.753906 1.367187-1.652343 1.789062-2.65625.324219-.765625.417969-1.632812.5-2.5v-13.550781h-21v21zm0 0" fill="#6655e4"/></g><path d="m3 37.546875c.082031.867187.179688 1.734375.503906 2.503906.421875 1.003907 1.035156 1.902344 1.789063 2.660157.757812.753906 1.65625 1.367187 2.65625 1.789062.769531.324219 1.636719.417969 2.5.5h13.550781v-21h-21zm0 0" fill="#2086e7"/><path d="m14.285156 7.933594h19.429688c3.507812 0 6.351562 2.84375 6.351562 6.351562v19.429688c0 3.507812-2.84375 6.351562-6.351562 6.351562h-19.429688c-3.507812 0-6.351562-2.84375-6.351562-6.351562v-19.429688c0-3.507812 2.84375-6.351562 6.351562-6.351562zm0 0" fill="#3f3f3f" fill-rule="evenodd"/><g fill="none" stroke="#fff" stroke-linecap="round" stroke-width="2" transform="matrix(1.271393 0 0 1.271393 53.424908 5.390709)"><path d="m-29.645059 21.645108h8.000572"/><path d="m-29.629697 15.650824s4.0433.350255 4.000286-4.000287c-.043014-4.350541-4.000286-4.000286-4.000286-4.000286m-.015362 7.994428v-8.000573" stroke-linejoin="bevel"/><path d="m-18.642736 12.642928h2.000143m-1.001608 0s .491587 3.001751-2.000143 3.001751c-2.000143 0-2.000143-2.000143-2.000143-4.000287 0-2.000143 0-4.000286 2.000143-4.000286s1.993999.998536 1.993999.998536" stroke-linejoin="bevel"/></g></svg>