<svg height="48pt" viewBox="0 0 48 48" width="48pt" xmlns="http://www.w3.org/2000/svg"><path d="m11.210938 2.847656h25.578124c4.621094 0 8.363282 3.742188 8.363282 8.363282v25.578124c0 4.621094-3.742188 8.363282-8.363282 8.363282h-25.578124c-4.621094 0-8.363282-3.742188-8.363282-8.363282v-25.578124c0-4.621094 3.742188-8.363282 8.363282-8.363282zm0 0" fill="#4c636b" fill-rule="evenodd"/><path d="m27 22.5c0 5.800781-4.699219 10.5-10.5 10.5s-10.5-4.699219-10.5-10.5 4.699219-10.5 10.5-10.5 10.5 4.699219 10.5 10.5zm0 0" fill="#3d4f56"/><path d="m9.074219 15.074219c-.351563.359375-.679688.742187-.976563 1.144531l3.238282 3.238281c-1.390626 2.355469-1.007813 5.351563.921874 7.285157 1.933594 1.929687 4.929688 2.308593 7.285157.917968l3.234375 3.238282c.40625-.296876.789062-.621094 1.148437-.972657.351563-.359375.679688-.742187.976563-1.144531l-3.238282-3.238281c1.386719-2.355469 1.007813-5.351563-.921874-7.285157-1.933594-1.929687-4.929688-2.308593-7.285157-.921874l-3.238281-3.234376c-.402344.296876-.785156.621094-1.144531.976563zm0 0" fill="#ee5858"/><path d="m19.5 22.5c0 1.65625-1.34375 3-3 3s-3-1.34375-3-3 1.34375-3 3-3 3 1.34375 3 3zm0 0" fill="#f3c4c4"/><path d="m31.5 13.5h9c .828125 0 1.5.671875 1.5 1.5s-.671875 1.5-1.5 1.5h-9c-.828125 0-1.5-.671875-1.5-1.5s.671875-1.5 1.5-1.5zm0 0" fill="#3d4f56"/><path d="m42 33.75c0 1.242188-1.007812 2.25-2.25 2.25s-2.25-1.007812-2.25-2.25 1.007812-2.25 2.25-2.25 2.25 1.007812 2.25 2.25zm0 0" fill="#58c4ee"/><path d="m36 33.75c0 1.242188-1.007812 2.25-2.25 2.25s-2.25-1.007812-2.25-2.25 1.007812-2.25 2.25-2.25 2.25 1.007812 2.25 2.25zm0 0" fill="#58c4ee"/><g fill="#3d4f56"><path d="m31.5 18h9c .828125 0 1.5.671875 1.5 1.5s-.671875 1.5-1.5 1.5h-9c-.828125 0-1.5-.671875-1.5-1.5s.671875-1.5 1.5-1.5zm0 0"/><path d="m31.5 22.5h9c .828125 0 1.5.671875 1.5 1.5s-.671875 1.5-1.5 1.5h-9c-.828125 0-1.5-.671875-1.5-1.5s.671875-1.5 1.5-1.5zm0 0"/><path d="m31.5 27h9c .828125 0 1.5.671875 1.5 1.5s-.671875 1.5-1.5 1.5h-9c-.828125 0-1.5-.671875-1.5-1.5s.671875-1.5 1.5-1.5zm0 0"/></g></svg>