<svg height="48pt" viewBox="0 0 48 48" width="48pt" xmlns="http://www.w3.org/2000/svg"><path d="m11.210938 2.847656h25.578124c4.621094 0 8.363282 3.742188 8.363282 8.363282v25.578124c0 4.621094-3.742188 8.363282-8.363282 8.363282h-25.578124c-4.621094 0-8.363282-3.742188-8.363282-8.363282v-25.578124c0-4.621094 3.742188-8.363282 8.363282-8.363282zm0 0" fill="#8e8e8e" fill-rule="evenodd"/><path d="m23.007812 39.730469c-.898437-.042969-2.210937-.230469-3.074218-.441407-2.464844-.59375-4.832032-1.871093-6.289063-3.394531l-.175781-.183593-.160156.089843c-.449219.238281-1.082032.277344-1.523438.09375-.28125-.117187-.609375-.445312-.769531-.777343-.34375-.699219-.503906-2.003907-.507813-4.082032v-1.011718l-.105468-.023438c-.296875-.074219-.761719-.492188-.925782-.839844-.355468-.746094-.183593-1.785156.546876-3.332031.21875-.464844.6875-1.316406.996093-1.816406l.164063-.261719-.089844-.179688c-.300781-.585937.007812-1.65625.71875-2.503906l.285156-.335937-.382812-.046875c-.671875-.082032-1.152344-.394532-1.3125-.863282-.105469-.300781-.070313-.71875.089844-1 .171874-.304687.996093-1.085937 1.472656-1.394531.816406-.527343 1.835937-.960937 3.046875-1.292969l.6875-.191406.011719-1.40625c.015624-1.503906.058593-2.007812.261718-3.015625.261719-1.285156.855469-2.746093 1.234375-3.046875.300781-.238281.78125-.292968 1.113281-.132812.28125.132812.433594.328125.664063.832031.242187.535156 1.496094 2.914063 2.09375 3.972656l.371094.664063.714843.171875c.394532.097656 1.105469.28125 1.574219.414062.472657.132813.863281.242188.875.242188s.019531-.101563.019531-.222657c0-.433593.246094-.84375.640626-1.050781.460937-.214843.96875-.109375 1.304687.054688.191406.09375.527344.296875.742187.453125.214844.15625.398438.28125.40625.28125.058594 0 3.003907-3.238282 3.660157-4.027344.230469-.277344.480469-.578125.5625-.667969.460937-.539062 1.371093-.4375 1.707031.191407.105469.195312.277344 1.027343.332031 1.605468.175781 1.8125-.175781 4.003906-1.007812 6.339844-.132813.378906-.257813.714844-.273438.75-.019531.050781.070313.121094.40625.316406.496094.289063 1.265625.796875 1.699219 1.121094.46875.351562 1.335938 1.203125 1.578125 1.550781.582031.832031.785156 1.710938.515625 2.238281l-.089844.179688.164063.265625c.308593.496094.777343 1.347656.996093 1.8125.730469 1.546875.902344 2.585937.546876 3.332031-.164063.347656-.628907.765625-.925782.835938l-.105468.027344-.003907 1.054687c0 2.058594-.160156 3.339844-.503906 4.039063-.160156.332031-.488281.660156-.769531.777343-.460938.191407-1.1875.128907-1.589844-.136719l-.148438-.097656-.546874.511719c-.972657.902344-1.894532 1.519531-3.164063 2.117187-1.171875.550782-2.257813.90625-3.519531 1.148438-1.363282.261719-2.820313.363281-4.238282.292969zm0 0" fill="#ee3434"/><path d="m31.351562 25.050781c0-3.480469-3.292968-6.300781-7.351562-6.300781s-7.351562 2.820312-7.351562 6.300781 3.292968 6.300781 7.351562 6.300781 7.351562-2.820312 7.351562-6.300781zm0 0" fill="#fff"/><path d="m24 21.898438c-.246094 0-.492188.054687-.722656.164062.445312.230469.722656.671875.722656 1.148438 0 .726562-.625 1.3125-1.398438 1.3125-.246093 0-.484374-.058594-.695312-.171876-.003906.058594-.007812.117188-.007812.171876 0 1.453124.941406 2.625 2.101562 2.625s2.101562-1.171876 2.101562-2.625c0-1.449219-.941406-2.625-2.101562-2.625zm0 0" fill="#272727"/><path d="m24 35.675781c0 .847657-.828125 1.976563-1.753906 1.976563-.921875 0-1.398438-1.167969-1.398438-2.015625 0-.847657.871094-.375 1.792969-.375.925781 0 1.359375-.433594 1.359375.414062zm0 0" fill="#fff"/><path d="m21.710938 34.933594c-1.789063-.003906-3.542969-.421875-5.0625-1.207032 1.609374 1.179688 3.625 1.824219 5.707031 1.824219 4.96875 0 8.996093-1.867187 8.996093-6.300781-1.222656 4.378906-5.066406 5.566406-9.640624 5.683594zm0 0" fill="#791414"/><path d="m16.648438 16.277344.007812-1.085938c.011719-1.15625.042969-1.546875.191406-2.320312.1875-.992188.617188-2.117188.890625-2.351563.21875-.179687.566407-.226562.804688-.101562.203125.105469.316406.253906.480469.644531.175781.410156 1.082031 2.242188 1.511718 3.058594l.269532.511718c.527343 1.691407-3.800782 2.558594-4.15625 1.644532zm0 0" fill="#fff"/><path d="m31.433594 17.484375.324218-1.054687c.347657-1.128907.4375-1.511719.550782-2.292969.140625-1.003907.117187-2.179688-.046875-2.460938-.128907-.21875-.414063-.328125-.65625-.253906-.207031.058594-.347657.183594-.613281.53125-.273438.363281-1.613282 1.96875-2.230469 2.675781l-.390625.445313c-.96875 1.542969 2.476562 3.230469 3.0625 2.410156zm0 0" fill="#fff"/></svg>