<svg height="48pt" viewBox="0 0 48 48" width="48pt" xmlns="http://www.w3.org/2000/svg"><path d="m11.210938 2.847656h25.578124c4.621094 0 8.363282 3.742188 8.363282 8.363282v25.578124c0 4.621094-3.742188 8.363282-8.363282 8.363282h-25.578124c-4.621094 0-8.363282-3.742188-8.363282-8.363282v-25.578124c0-4.621094 3.742188-8.363282 8.363282-8.363282zm0 0" fill="#41a5c7" fill-rule="evenodd"/><path d="m24 9.75c-2.484375 0-4.5 2.015625-4.5 4.5.003906 1.90625 1.203125 3.601562 3 4.234375v1.765625h-4.125v3h4.125v8.25c0 1.125-1.175781.847656-1.914062.75-3.324219-.433594-5.5.011719-7.050782-1.425781l1.757813-.105469-1.9375-1.808594-1.945313-1.808594c-.730468 1.65625-.816406 3.304688-.910156 5.074219l1.203125-1.183593c.574219 2.382812 8.460937 3.882812 9.574219 4.863281l2.722656 2.394531 2.722656-2.394531c1.113282-.980469 8.996094-2.484375 9.566406-4.867188l1.210938 1.1875c0-1.800781-.390625-3.378906-.910156-5.074219l-1.945313 1.808594-1.644531 1.808594 1.46875.105469c-1.546875 1.433593-3.714844.988281-7.023438 1.425781-.75.097656-1.945312.375-1.945312-.75v-8.25h4.125v-3h-4.125v-1.761719c1.796875-.632812 2.996094-2.332031 3-4.238281 0-2.484375-2.015625-4.5-4.5-4.5zm0 3c .828125 0 1.5.671875 1.5 1.5s-.671875 1.5-1.5 1.5-1.5-.671875-1.5-1.5.671875-1.5 1.5-1.5zm0 0" fill="#fff"/></svg>