<svg height="48pt" viewBox="0 0 48 48" width="48pt" xmlns="http://www.w3.org/2000/svg"><path d="m11.210938 2.847656h25.578124c4.621094 0 8.363282 3.742188 8.363282 8.363282v25.578124c0 4.621094-3.742188 8.363282-8.363282 8.363282h-25.578124c-4.621094 0-8.363282-3.742188-8.363282-8.363282v-25.578124c0-4.621094 3.742188-8.363282 8.363282-8.363282zm0 0" fill="#0286c2" fill-rule="evenodd"/><path d="m41.222656 34.996094c-.339844-1.710938-.96875-2.890625-2.417968-3.550782-.011719-7.066406-2.066407-14.914062-8.636719-18.574218.527343-.226563 2.222656-.582032 2.746093-.675782.390626-.074218.71875-.316406.875-.652343.15625-.335938.121094-.722657-.09375-1.027344-.203124-.292969-1.667968-.996094-3.703124-1.246094-2.289063-.101562-3.523438-.101562-6.515626.5-1.582031.542969-2.355468.617188-3.246093.703125-.757813.074219-1.617188.160156-2.980469.507813-3.929688 1.011719-5.78125 2.609375-6.828125 3.660156-.820313.820313-1.273437 2.488281-1.226563 3.164063-.195312.097656-.175781.117187-.390624.230468-1.441407.757813-1.941407 1.113282-2.054688 1.71875-.085938.445313.070312.742188.4375 1.140625.59375.558594.933594.613281 1.867188.613281 1.472656-.230468 2.691406-.710937 4.195312-1.171874.890625-.089844 1.65625.066406 3.003906.332031 1.738282.402343 3.601563.855469 5.148438.839843.300781.5625.796875 1.617188 1.597656 2.582032 2.089844 2.507812 4.527344 2.351562 4.777344 2.351562.453125.007813.8125.019532 1.019531-.351562.210937-.371094.175781-.8125-.09375-1.152344-.21875-.277344-1.003906-.710938-1.21875-1.84375-.0625-.324219-.035156-.597656-.03125-.855469 2.785156.816407 7.078125 3.300781 7.640625 6.007813l.019531 1.945312c-.007812 0 .007813 0 0 0-.128906-.003906-.402343-.007812-.59375-.007812-.507812 0-1.054687.050781-1.675781.152344-2.015625.320312-3.433594 1.507812-3.570312 1.65625 0 0-.394532.3125-.164063.710937.222656.394531.667969.628906 1.152344.589844h.023437c3.082032.429687 7.238282 2.367187 8.503906 4.84375.199219.394531.628907.644531 1.097657.644531.03125 0 .0625-.003906.089843-.003906.503907-.035156.929688-.351563 1.070313-.796875.035156-.113281.347656-1.53125.175781-2.984375zm0 0" fill="#f9f9f9"/><path d="m14.128906 16.570312c0 .683594-.550781 1.234376-1.234375 1.234376-.679687 0-1.234375-.550782-1.234375-1.234376 0-.679687.554688-1.234374 1.234375-1.234374.683594 0 1.234375.554687 1.234375 1.234374zm0 0" fill="#0286c2"/></svg>