<svg height="48pt" viewBox="0 0 48 48" width="48pt" xmlns="http://www.w3.org/2000/svg"><path d="m11.210938 2.847656h25.578124c4.621094 0 8.363282 3.742188 8.363282 8.363282v25.578124c0 4.621094-3.742188 8.363282-8.363282 8.363282h-25.578124c-4.621094 0-8.363282-3.742188-8.363282-8.363282v-25.578124c0-4.621094 3.742188-8.363282 8.363282-8.363282zm0 0" fill="#ffd44a" fill-rule="evenodd"/><path d="m24 8.84375c-8.371094 0-15.15625 6.785156-15.15625 15.15625s6.785156 15.15625 15.15625 15.15625 15.15625-6.785156 15.15625-15.15625-6.785156-15.15625-15.15625-15.15625zm0 0" fill="#f4b400"/><path d="m22.070312 8.976562c-1.960937.25-3.800781.875-5.449218 1.800782l1.070312.265625.691406.484375v.417968l1.179688.761719-.277344 1.109375-.621094-.484375-.417968.484375-.484375.277344-.277344-.832031.136719-.484375-.136719-.347656-.695313-.625h-.277343l.277343.695312v.621094c-.273437-.074219-.550781-.101563-.832031-.136719l.765625.554687.066406.347657.902344.761719.902344-.207032v-.554687l.414062.273437-.207031.488282h.691407l.347656.621093.417968.488281.832032.136719-.488282.484375-.136718.488282h.625l.761718.414062v1.25h-.347656l-.347656.34375-.761719-.34375-.277343-.765625-.554688-.34375-.070312-.277344-.898438-.207031-.488281.550781-.550781.277344.34375.625-.484376-.136719-.277343-.625.625-.691406h-.277344l-.554687.484375-.140626.691406-.484374.625-.136719-.902343-.28125-.136719c-.292969.308593-.511719.6875-.757813 1.039062l-.972656.070313-.484375.347656.207031.34375.554688.484375h.761718l1.039063-.34375.488281.066406.414063.417969 1.109375-1.109375.761718-.207031 1.109376.136718 1.039062.277344c.566406.65625 1.128906 1.328125 1.664062 2.011719l.625 1.59375-.277343.277344.554687.832031-.625 1.457031c-.503906.582031-1.019531 1.148438-1.523437 1.730469l-.765625-.625-.273438.347656-.835937-.484375-.273438.277344h-.761719l-.488281.554687.277344.96875-.554687.625.070312 1.109376-.484375.832031.347656.691406c.027344.507813.066407 1.023437.066407 1.527344-.242188.683593-.53125 1.320312-.761719 2.007812l-.140625 1.109375v.554688h-.414063l-.695312-.414063h-.660157c2.472657 1.765625 5.492188 2.816407 8.773438 2.816407 2.464844 0 4.777344-.597657 6.828125-1.636719l.035156-.070313-.488281-.484375-.136719-.488281-.761719-.207031-.554687-1.523438.136719-.347656-.34375-.625-.902344-.207031-.414062-1.039063.066406-1.386719-.691406-.96875-.070313-.972656c.945313-.476562 1.835937-.960937 2.773437-1.457031l.484376-.96875.832031-.207031.484375-1.25 1.109375.140625 1.039062-.761719 1.042969.96875v.136719c.3125-.089844.691406-.101563.96875-.273438l.207031-.695312v-.691407l.695313.066407c-.058594-.464844-.152344-.988281-.210938-1.453125h.417969l.414063.554687.417968.207031.554688-.347656.070312-.691406-.070312-.832031-.902344-.625h-.691406l-.140625-.414063-.832031.207032-.621094.761718-.140625-1.316406-1.109375-.902344-.34375-1.039062-.835938-.347656-.484375-.621094-1.039062-.210938-.484375-.832031h1.523437l-.96875-.414063h-.695312l-.898438-.347656-.140625.902344-.414062-.625.484375-.34375-.140625-.347656.347656-.347656.417969-.070313-.140625-.414063.347656-.625.691406.277344-.136718-.554687.832031-.484375.625 1.175781-.070313.347656.621094.277344.417969.902344.140625-.832031 1.105468-.414063.210938-.625-1.457031-.832031-.625-.625-.070313-.761719.039063-.023437c-.160157-.105469-.328125-.199219-.492188-.296876l.25.597657h-.695312l-.207031-.554688-.625.484375h-.554688v-.550781l.625-.28125.554688.347656-.070313-.136719c-.277344-.203124-.546875-.433593-.828125-.625l-.695312.207032c-.429688.300781-.816407.605468-1.246094.902344l-.695313-.625.761719-.277344.277344-.691406.542968-.0625c-.292968-.105469-.582031-.214844-.882812-.304688l-1.390625.992188v.621093l.554687.625-.761718 1.527344-.558594-.277344-.621094-1.042969c-.929687-.292968-1.828125-.632812-2.707031-1.039062l.070313.414062-.414063.28125-.765625-.554687.347656-.417969.554688.277344.070312-.070312-.679687-1.855469zm-6.9375 2.757813c-.234374.171875-.472656.339844-.699218.523437l.277344.308594.761718-.832031zm5.746094.765625h.417969v.414062l-.277344.347657v.625l.136719.898437-.691406-.136718-.554688-.484376.484375-.488281c.152344-.410156.292969-.78125.484375-1.175781zm1.039063.902344.417969.136718-.070313.832032-.621094-.347656zm-10.8125 7.070312-.625.691406-.691407-.070312c-.242187.226562-.484374.421875-.710937.644531-.105469.71875-.164063 1.453125-.164063 2.199219 0 4.953125 2.375 9.320312 6.042969 12.066406l-.941406-1.113281.140625-.484375-.832031-.695312.625-.625-.695313-.554688-.691406-.414062-.277344-.347657.207032-.761719v-1.941406l-.554688-1.179687-.625-.691407-.761719-1.804687v-.484375c.355469.046875.691407.113281 1.039063.140625l-.691406-.765625-.96875-.691406-.558594-.625v-.625c.121094-.226563.230468-.53125.347656-.761719l.484375.625.347656-.484375.554688-.417969v-.832031zm2.703125.34375-.621094.761719-.832031 1.734375-.484375.554688.273437.625-.484375.550781c.203125.015625.417969 0 .625 0 .378906-.808594.683594-1.644531.96875-2.492188l.484375-.554687.28125-1.039063zm25.265625 2.726563c-.027344.046875-.101563.1875-.101563.1875l-1.175781.691406-1.25.347656-.484375.691407-.832031.625-.417969-.136719-.34375.207031v.066406l.414062 1.320313.347657.484375-.070313.277344.277344 1.039062-1.039062 1.871094-1.039063.972656-.484375.625.066406 1.453125-.347656.761719.257812 1.121094c3.773438-2.734376 6.234376-7.167969 6.234376-12.210938 0-.132812-.007813-.261719-.011719-.394531zm0 0" fill="#ffd44a"/><path d="m25.140625 12.886719.527344 3.054687-2.226563 2.171875 3.070313.445313 1.375 2.777344 1.375-2.777344 3.070312-.445313-2.222656-2.171875.523437-3.054687-2.746093 1.441406zm-10.550781 2.667969.523437 3.058593-2.21875 2.164063 3.070313.445312 1.371094 2.78125 1.371093-2.78125 3.070313-.445312-2.222656-2.164063.523437-3.058593-2.742187 1.441406zm13.328125 7.773437.527343 3.058594-2.226562 2.164062 3.070312.445313 1.375 2.785156 1.371094-2.785156 3.070313-.445313-2.21875-2.164062.523437-3.058594-2.746094 1.445313zm-12.21875 3.335937.523437 3.054688-2.21875 2.164062 3.070313.449219 1.371093 2.78125 1.375-2.78125 3.070313-.449219-2.222656-2.164062.523437-3.054688-2.746094 1.441407zm0 0" fill="#fff"/><path d="m23.035156 26.558594c-.46875.019531-.894531.28125-1.121094.695312-.222656.410156-.214843.910156.027344 1.3125l2.804688 4.867188-2.804688 4.867187c-.246094.410157-.25.925781-.011718 1.339844.238281.417969.679687.671875 1.160156.667969.480468 0 .921875-.261719 1.152344-.683594l2.035156-3.53125 2.039062 3.53125c.230469.421875.671875.683594 1.152344.683594.480469.003906.921875-.25 1.160156-.667969.238282-.414063.234375-.929687-.011718-1.339844l-2.804688-4.867187 2.804688-4.867188c.242187-.40625.25-.914062.015624-1.328125-.234374-.417969-.671874-.675781-1.148437-.679687-.484375 0-.933594.261718-1.167969.683594l-2.039062 3.535156-2.035156-3.535156c-.242188-.4375-.710938-.699219-1.207032-.683594zm9.617188.007812c-.417969 0-.816406.199219-1.066406.539063-.253907.335937-.328126.773437-.207032 1.175781l3.1875 11.058594c.164063.570312.683594.960937 1.273438.960937.59375 0 1.113281-.390625 1.277344-.960937l3.1875-11.058594c.203124-.703125-.203126-1.441406-.90625-1.644531-.707032-.203125-1.441407.203125-1.644532.910156l-1.910156 6.632813-1.914062-6.632813c-.15625-.574219-.679688-.976563-1.277344-.980469zm0 0" fill="#c2352a"/></svg>