<svg height="48pt" viewBox="0 0 48 48" width="48pt" xmlns="http://www.w3.org/2000/svg"><path d="m11.210938 2.847656h25.578124c4.621094 0 8.363282 3.742188 8.363282 8.363282v25.578124c0 4.621094-3.742188 8.363282-8.363282 8.363282h-25.578124c-4.621094 0-8.363282-3.742188-8.363282-8.363282v-25.578124c0-4.621094 3.742188-8.363282 8.363282-8.363282zm0 0" fill="#4347dc" fill-rule="evenodd"/><path d="m10.976562 15.101562c7.255209-2.828124 14.53125.317709 14.013021 5.916667-.184895 2.005209-3.109375 3.226563-5.192708 2.971354-3.544271-.434895-6.734375-4.372395-8.070313-6.856771-1.567708-2.921874-.880208-9.91927 3.546876-10.132812 3.114583.216146 4.117187 3.351562 4.51302 5.229167 1.570313 7.460937-6.768229 15.614583-11.45052 11.815104-3.059896-2.481771-.46875-7.661459 2.640624-8.942709zm0 0" fill="none" stroke="#81ff86" stroke-width="2" transform="scale(1.5)"/></svg>