<svg height="48pt" viewBox="0 0 48 48" width="48pt" xmlns="http://www.w3.org/2000/svg"><path d="m11.210938 2.847656h25.578124c4.621094 0 8.363282 3.742188 8.363282 8.363282v25.578124c0 4.621094-3.742188 8.363282-8.363282 8.363282h-25.578124c-4.621094 0-8.363282-3.742188-8.363282-8.363282v-25.578124c0-4.621094 3.742188-8.363282 8.363282-8.363282zm0 0" fill="#42a3ce" fill-rule="evenodd"/><path d="m34.097656 34.976562c.382813-.195312.722656-.539062.925782-.9375.230468-.441406.230468-1.332031.003906-1.769531-.171875-.332031-4.320313-4.550781-4.476563-4.550781-.042969 0-.195312.164062-.339843.363281-.40625.570313-1.128907 1.316407-1.796876 1.863281-.335937.273438-.613281.535157-.613281.582032 0 .113281 4.007813 4.160156 4.328125 4.371094.519532.339843 1.378906.375 1.96875.078124zm-9.578125-3.863281c1-.257812 2.523438-1.023437 3.398438-1.707031 1.667969-1.304688 2.890625-3.269531 3.324219-5.34375.207031-.976562.207031-2.953125.003906-3.917969-.476563-2.242187-1.71875-4.191406-3.535156-5.550781-.914063-.679688-1.683594-1.074219-2.867188-1.460938-.84375-.277343-1.054688-.304687-2.636719-.308593-1.5-.007813-1.835937.023437-2.609375.242187-3.480468.996094-6.085937 3.90625-6.707031 7.488282-.082031.464843-.105469 1.242187-.070313 2.046874.109376 2.394532.984376 4.378907 2.675782 6.070313 2.332031 2.332031 5.800781 3.269531 9.023437 2.441406zm-4.089843-2.378906c-3.25-.898437-5.308594-3.726563-5.128907-7.042969.222657-4.195312 4.144531-7.171875 8.285157-6.296875 2.503906.53125 4.601562 2.570313 5.183593 5.035157.207031.871093.203125 2.421874-.007812 3.308593-.507813 2.160157-2.234375 4.054688-4.386719 4.820313-.984375.347656-3.003906.4375-3.945312.175781zm2.648437-1.464844c.089844-.148437-.234375-.433593-1.097656-.949219-.84375-.511718-2-1.65625-2.328125-2.316406-.148438-.292968-.375-.859375-.503906-1.257812-.425782-1.285156-1.429688-2.003906-1.886719-1.351563-.21875.3125-.21875 1.273438.003906 2.027344.507813 1.722656 2.113281 3.207031 4.078125 3.773437.753906.214844 1.621094.253907 1.734375.074219zm0 0" fill="#fff"/></svg>