<svg height="48pt" viewBox="0 0 48 48" width="48pt" xmlns="http://www.w3.org/2000/svg" xmlns:xlink="http://www.w3.org/1999/xlink"><filter id="a" height="100%" width="100%" x="0%" y="0%"><feColorMatrix in="SourceGraphic" type="matrix" values="0 0 0 0 1 0 0 0 0 1 0 0 0 0 1 0 0 0 1 0"/></filter><mask id="b"><g filter="url(#a)"><path d="m0 0h48v48h-48z" fill-opacity=".2"/></g></mask><clipPath id="c"><path d="m0 0h48v48h-48z"/></clipPath><path d="m11.210938 2.847656h25.578124c4.621094 0 8.363282 3.742188 8.363282 8.363282v25.578124c0 4.621094-3.742188 8.363282-8.363282 8.363282h-25.578124c-4.621094 0-8.363282-3.742188-8.363282-8.363282v-25.578124c0-4.621094 3.742188-8.363282 8.363282-8.363282zm0 0" fill="#7ec242" fill-rule="evenodd"/><path d="m21.886719 8.496094c-1.03125-.023438-1.925781.070312-2.292969.167968-.578125.15625-1.445312.484376-1.796875.980469-.242187.335938-.445313.765625-.445313 1.359375.011719 1.125-.011718 2.058594 0 3.191406 0 .632813-.21875.929688-.867187.941407h-2.984375c-.636719 0-1.121094-.011719-1.492188.152343-.371093.167969-.636718.382813-.832031.648438-.402343.523438-.46875 1.5-.46875 2.15625 0 0 .003907.527344.136719 1.570312.113281.808594 1.003906 6.429688 1.855469 8.128907.328125.667969.546875.941406 1.191406 1.234375 1.863281.433594 8.40625 2.609375 9.117187 1.109375.582032-1.523438.871094-4.035157.992188-5.03125 0 .675781.105469 3.394531 1.9375 4.03125.730469.25 2.226562.472656 3.757812.644531 1.382813.15625 2.058594.683594 2.058594 4.148438 0 2.105468-.128906 2.253906-2.492187 2.253906-2.136719 0-3.046875 0-3.046875-1.105469 0-1.109375.652344-1.109375 2.214844-1.109375v-2.214844c-3.125 0-4.429688 0-4.429688 3.648438 0 3.332031 1.265625 4.105468 5.699219 4.105468 3.472656 0 4.699219-.117187 6.132812-4.457031.285157-.859375.976563-3.476562 1.390625-7.875.257813-2.777343-.253906-11.164062-.660156-13.289062v-.003907c-.234375-1.238281-.984375-1.84375-1.667969-2.085937-.738281-.261719-2.230469-.523437-4.097656-.738281-1.511719-.175782-3.511719-.386719-4.582031-.351563 0-.773437-.515625-1.417969-1.207032-1.695312-.917968-.355469-2.089843-.496094-3.121093-.515625zm0 0" fill="#fff"/><g clip-path="url(#c)" mask="url(#b)"><path d="m32.863281 25.109375h-3.324219c0-1.226563.742188-2.21875 1.660157-2.21875s1.664062.992187 1.664062 2.21875zm0 0"/></g><path d="m32.863281 24h-3.324219c0-1.222656.742188-2.214844 1.660157-2.214844s1.664062.992188 1.664062 2.214844zm0 0" fill="#fff"/></svg>