<svg height="48pt" viewBox="0 0 48 48" width="48pt" xmlns="http://www.w3.org/2000/svg"><path d="m11.210938 2.847656h25.578124c4.621094 0 8.363282 3.742188 8.363282 8.363282v25.578124c0 4.621094-3.742188 8.363282-8.363282 8.363282h-25.578124c-4.621094 0-8.363282-3.742188-8.363282-8.363282v-25.578124c0-4.621094 3.742188-8.363282 8.363282-8.363282zm0 0" fill="#4f4f4f" fill-rule="evenodd"/><path d="m22.464844 37.496094c9.191406-2.367188 23.019531-11.574219 9.046875-24 6.210937 7.878906 7.539062 10.5-6.03125 10.5 13.195312 2.652344 1.53125 7.9375-4.523438 9zm0 0" fill="#df574d"/><path d="m25.535156 10.503906c-9.1875 2.367188-23.019531 11.574219-9.046875 24-6.210937-7.878906-7.539062-10.5 6.03125-10.5-13.195312-2.652344-1.53125-7.9375 4.523438-9zm0 0" fill="#79de7d"/></svg>