<svg height="48pt" viewBox="0 0 48 48" width="48pt" xmlns="http://www.w3.org/2000/svg"><g fill-rule="evenodd"><path d="m11.210938 2.847656h25.578124c4.621094 0 8.363282 3.742188 8.363282 8.363282v25.578124c0 4.621094-3.742188 8.363282-8.363282 8.363282h-25.578124c-4.621094 0-8.363282-3.742188-8.363282-8.363282v-25.578124c0-4.621094 3.742188-8.363282 8.363282-8.363282zm0 0" fill="#4f4f4f"/><path d="m37.804688 45.121094c8.519531-15-2-23.640625-12.398438-25.882813 11.007812 7.140625 1.257812 21.1875-12.785156 25.90625 6.0625-.03125 19.121094.050781 25.183594-.023437zm0 0" fill="#ff6363"/><path d="m12.304688 2.878906c-12.449219 14.375-.097657 23.640625 10.304687 25.882813-11.011719-7.140625-2.050781-20.46875 7.1875-25.902344-6.0625.027344-11.429687-.054687-17.492187.019531zm0 0" fill="#ff6363"/></g><path d="m27.597656 27.617188c-1.207031 1.207031-3.804687.566406-5.804687-1.433594-1.996094-2-2.640625-4.597656-1.433594-5.800782 1.207031-1.207031 3.804687-.566406 5.800781 1.433594 2 2 2.644532 4.597656 1.4375 5.800782zm0 0" fill="#ff6363"/></svg>