<svg height="48pt" viewBox="0 0 48 48" width="48pt" xmlns="http://www.w3.org/2000/svg" xmlns:xlink="http://www.w3.org/1999/xlink"><clipPath id="a"><path d="m0 0h48v48h-48z"/></clipPath><path d="m11.210938 2.847656h25.578124c4.621094 0 8.363282 3.742188 8.363282 8.363282v25.578124c0 4.621094-3.742188 8.363282-8.363282 8.363282h-25.578124c-4.621094 0-8.363282-3.742188-8.363282-8.363282v-25.578124c0-4.621094 3.742188-8.363282 8.363282-8.363282zm0 0" fill="#d2d2d2" fill-rule="evenodd"/><g fill="#4d4d4d"><path d="m13.46875 10.5c-.269531-.003906-.523438.132812-.660156.355469-.136719.226562-.136719.503906-.003906.730469.136718.226562.386718.367187.65625.363281l4.726562.027343 2.40625 2.347657v8.941406c-.003906.261719.140625.503906.371094.636719.234375.128906.523437.128906.757812 0 .234375-.132813.375-.375.371094-.636719v-1.800781c0-.015625 0-.03125 0-.050782v-7.386718c0-.191406-.078125-.375-.21875-.511719l-2.84375-2.769531c-.136719-.136719-.328125-.214844-.527344-.214844zm17.972656.019531c-.414062.007813-.742187.335938-.738281.738281v12.007813c-.003906.261719.140625.503906.375.636719.230469.128906.519531.128906.753906 0 .234375-.132813.375-.375.371094-.636719v-1.800781c0-.015625 0-.03125 0-.050782v-10.160156c.003906-.195312-.074219-.382812-.21875-.523437-.144531-.136719-.339844-.214844-.542969-.210938zm-8.984375.003907c-.304687-.003907-.582031.175781-.695312.449218-.117188.273438-.050781.585938.167969.792969l2.625 2.558594v7.089843.074219 1.777344c-.003907.261719.136718.503906.371093.636719.234375.128906.523438.128906.757813 0 .234375-.132813.375-.375.371094-.636719v-9.238281c0-.191406-.078126-.375-.214844-.511719l-2.84375-2.769531c-.140625-.144532-.335938-.222656-.539063-.226563zm3 0c-.304687-.003907-.582031.175781-.695312.449218-.117188.273438-.050781.585938.167969.792969l2.621093 2.558594v8.941406c-.003906.261719.140625.503906.371094.636719.234375.128906.523437.128906.757813 0 .234374-.132813.375-.375.371093-.636719v-1.800781c0-.015625 0-.03125 0-.050782v-7.386718c0-.191406-.078125-.375-.214843-.511719l-2.84375-2.769531c-.140626-.140625-.332032-.222656-.535157-.222656zm0 0"/><path d="m21.035156 28.5c-.414062.007812-.742187.378906-.738281.832031v2.039063.058594 2.804687l-1.460937 1.609375h-5.371094c-.269532-.003906-.519532.152344-.65625.40625-.136719.257812-.136719.574219 0 .832031.136718.253907.386718.410157.65625.40625h5.6875c.199218 0 .390625-.085937.53125-.242187l1.894531-2.097656c.140625-.152344.21875-.359376.21875-.578126v-5.242187c.003906-.21875-.078125-.433594-.222656-.589844-.140625-.15625-.335938-.242187-.539063-.242187zm4.410156 0c-.414062.007812-.746093.378906-.738281.832031v7.335938c-.003906.296875.136719.570312.371094.71875.234375.152343.523437.152343.753906 0 .234375-.148438.378907-.421875.375-.71875v-5.179688c0-.019531 0-.039062 0-.058593v-2.097657c0-.222656-.078125-.433593-.222656-.589843-.144531-.160157-.339844-.246094-.539063-.242188zm3 0c-.414062.003906-.746093.378906-.738281.832031v2.097657c-.003906.027343-.003906.054687 0 .085937v3.054687c0 .21875.078125.425782.21875.578126l1.890625 2.097656c.144532.15625.335938.242187.535156.242187h5.683594c.269532.003907.523438-.152343.65625-.40625.136719-.257812.136719-.574219 0-.832031-.132812-.253906-.386718-.410156-.65625-.40625h-5.371094l-1.457031-1.609375v-4.898437c0-.222657-.078125-.4375-.21875-.59375-.144531-.15625-.339843-.242188-.539062-.238282zm3.007813 0c-.414063.007812-.742187.378906-.738281.832031v1.964844c-.019532.144531-.003906.289063.042968.425781.003907.011719.007813.027344.015626.039063.050781.132812.132812.246093.238281.332031l1.816406 2.007812c.140625.15625.332031.246094.53125.246094h1.894531c.269532.003906.519532-.152344.65625-.410156.136719-.253906.136719-.570312 0-.828125-.136718-.253906-.386718-.410156-.65625-.40625h-1.582031l-1.457031-1.613281v-1.757813c0-.222656-.078125-.433593-.222656-.59375-.140626-.15625-.335938-.242187-.539063-.238281zm0 0"/><path d="m11.988281 13.5c-.433593 0-.785156.328125-.785156.730469v19.539062c0 .402344.351563.730469.785156.730469h4.945313c.210937 0 .410156-.078125.558594-.21875l.988281-.929688c.144531-.136718.226562-.320312.226562-.511718v-16.75c0-.191406-.082031-.375-.226562-.511719l-1.980469-1.859375c-.144531-.140625-.34375-.21875-.554688-.21875zm0 0"/></g><path d="m13.793206 13.21897h7.520834c.713541 0 1.291666.580729 1.291666 1.294271v5.695312c0 .713542-.578125 1.291667-1.291666 1.291667h-7.520834c-.713541 0-1.29427-.578125-1.29427-1.291667v-5.695312c0-.713542.580729-1.294271 1.29427-1.294271zm0 0" fill="none" stroke="#4d4d4d" stroke-linecap="round" stroke-linejoin="round" transform="matrix(1.5 0 0 1.5 .704722 -.00033)"/><g clip-path="url(#a)"><path d="m42.589844 32.765625c0 4.96875-4.03125 9-9 9-4.972656 0-9-4.03125-9-9s4.027344-9 9-9c4.96875 0 9 4.03125 9 9zm0 0" fill="#c03630" fill-rule="evenodd"/></g><path d="m33.589844 29.109375c-1.09375.011719-2.191406.261719-3.140625.796875-.378907.246094-.832031.566406-1.175781.886719-.539063.527343-1 1.144531-1.3125 1.832031.855468 1.886719 2.734374 3.265625 4.800781 3.472656 1.355469.152344 2.773437-.082031 3.964843-.753906.378907-.246094.832032-.5625 1.175782-.886719.539062-.527343 1-1.144531 1.3125-1.832031-.855469-1.882812-2.734375-3.265625-4.800782-3.46875-.273437-.03125-.550781-.046875-.824218-.046875zm0 1.40625c1.128906-.023437 2.128906.984375 2.109375 2.109375.035156 1.242188-1.203125 2.316406-2.425781 2.082031-1.238282-.144531-2.105469-1.53125-1.699219-2.703125.261719-.867187 1.109375-1.496094 2.015625-1.488281zm0 1.40625c-.1875 0-.367188.074219-.5.207031-.132813.132813-.207032.3125-.203125.496094 0 .390625.3125.703125.703125.703125.386718 0 .703125-.3125.703125-.703125-.003907-.386719-.316407-.699219-.703125-.699219zm0 0" fill="#fff" fill-rule="evenodd"/></svg>