<svg height="48pt" viewBox="0 0 48 48" width="48pt" xmlns="http://www.w3.org/2000/svg"><path d="m11.210938 2.847656h25.578124c4.621094 0 8.363282 3.742188 8.363282 8.363282v25.578124c0 4.621094-3.742188 8.363282-8.363282 8.363282h-25.578124c-4.621094 0-8.363282-3.742188-8.363282-8.363282v-25.578124c0-4.621094 3.742188-8.363282 8.363282-8.363282zm0 0" fill="#4f4f4f" fill-rule="evenodd"/><path d="m13.511719 9.976562v1.5h-.75c-1.246094 0-2.25 1.003907-2.25 2.25 0 1.246094 1.003906 2.25 2.25 2.25h.75v1.5h-2.863281c.308593.875 1.132812 1.5 2.113281 1.5h.75v1.5h1.5v-1.5h.75c1.246093 0 2.25-1.003906 2.25-2.25 0-1.246093-1.003907-2.25-2.25-2.25h-.75v-1.5h2.859375c-.308594-.871093-1.128906-1.5-2.109375-1.5h-.75v-1.5zm-.75 3h .75v1.5h-.75c-.417969 0-.75-.332031-.75-.75 0-.414062.332031-.75.75-.75zm2.25 3h .75c.414062 0 .75.335938.75.75 0 .417969-.335938.769532-.75.75h-.75zm6 3v1.5h9v-1.5zm0 0" fill="#58ff00"/></svg>