<svg height="48pt" viewBox="0 0 48 48" width="48pt" xmlns="http://www.w3.org/2000/svg"><path d="m11.210938 2.847656h25.578124c4.621094 0 8.363282 3.742188 8.363282 8.363282v25.578124c0 4.621094-3.742188 8.363282-8.363282 8.363282h-25.578124c-4.621094 0-8.363282-3.742188-8.363282-8.363282v-25.578124c0-4.621094 3.742188-8.363282 8.363282-8.363282zm0 0" fill="#4f4f4f" fill-rule="evenodd"/><path d="m10.53125 13.5.074219.617188c.136719 1.15625.277343 1.53125.667969 1.730468.199218.105469.402343.324219.445312.496094.082031.328125.296875.417969.296875.117188 0-.097657-.222656-.613282-.496094-1.140626-.273437-.523437-.496093-1.011718-.5-1.078124 0-.070313-.109375-.261719-.242187-.433594zm26.9375 0-.246094.308594c-.132812.167968-.242187.363281-.246094.433594 0 .066406-.222656.550781-.496093 1.078124-.273438.527344-.496094 1.042969-.496094 1.140626 0 .300781.210937.210937.296875-.117188.042969-.171875.242188-.390625.445312-.496094.386719-.199218.53125-.574218.667969-1.730468zm-28.203125.679688c-.074219 0-.089844.089843-.039063.214843.210938.5.21875.773438.015626.773438-.113282 0-.203126.039062-.203126.09375 0 .195312.40625.664062.664063.769531.308594.121094.578125.152344.578125.058594 0-.035156-.054688-.160156-.125-.277344-.066406-.121094-.175781-.449219-.25-.734375-.128906-.519531-.398438-.898437-.640625-.898437zm29.464844 0c-.238281 0-.511719.378906-.640625.898437-.070313.285156-.183594.617187-.25.734375s-.121094.242188-.121094.277344c0 .09375.269531.0625.578125-.058594.257813-.105469.660156-.574219.660156-.769531 0-.054688-.089843-.09375-.199219-.09375-.203124 0-.199218-.273438.011719-.773438.050781-.125.035157-.214843-.039062-.214843zm-14.773438.308593c.042969.105469.003907.183594-.09375.183594-.410156 0-.570312 1.484375-.257812 2.40625.082031.246094.078125.246094-.070313 0-.25-.410156-.644531-.804687-.808594-.804687-.085937 0-.191406.167968-.238281.371093-.042969.207031-.132812.375-.199219.375-.066406 0-.089843-.058593-.046874-.125.039062-.066406.023437-.214843-.039063-.328125-.105469-.183594-.128906-.179687-.257813.058594-.109374.207031-.101562.359375.046876.710938.234374.566406.234374.667968-.007813.667968-.261719 0-.15625.296875.121094.351563.246093.046875.691406-.308594.691406-.546875 0-.089844.0625-.199219.136719-.242188.195312-.121094.410156.136719.285156.335938-.058594.089844-.105469.199218-.109375.246094 0 .042968-.15625.203124-.347656.351562-.441407.347656-.429688.902344.023437.964844.167969.023437.257813-.007813.214844-.082032-.042969-.070312.046875-.066406.21875.015626.160156.074218.347656.292968.421875.480468.125-.003906.242187-.019531.359375-.046875.113281.027344.230469.042969.359375.046875.070313-.1875.261719-.40625.421875-.480468.171875-.082032.261719-.085938.214844-.015626-.042969.074219.050781.105469.21875.082032.453125-.0625.464844-.617188.019531-.964844-.191406-.148438-.347656-.308594-.347656-.351562 0-.046876-.050781-.15625-.109375-.246094-.125-.199219.089844-.457032.285156-.335938.074219.042969.136719.152344.136719.242188 0 .238281.445312.59375.691406.546875.277344-.054688.382813-.351563.125-.351563-.246094 0-.246094-.101562-.007813-.667968.144532-.351563.15625-.503907.046876-.710938-.128907-.238281-.15625-.242188-.257813-.058594-.066406.113282-.082031.261719-.039063.328125.039063.066407.019532.125-.050781.125-.066406 0-.152343-.167969-.199219-.375-.042968-.203125-.152343-.371093-.238281-.371093-.164062 0-.558593.394531-.808593.804687-.148438.246094-.152344.246094-.070313 0 .3125-.921875.152344-2.40625-.257813-2.40625-.097656 0-.136718-.078125-.09375-.183594-.015624.015625-.027343.027344-.039062.042969-.015625-.015625-.027344-.027344-.042969-.042969zm-16.320312.34375c-.230469.082031-.152344 1.628907.105469 2.019531.191406.292969.191406.316407.011718.25-.246094-.097656-.253906.070313-.023437.507813.261719.507813.792969.945313 1.652343 1.371094.425782.214843.773438.402343.773438.429687 0 .132813-1.179688-.207031-1.449219-.417968-.496093-.386719-.71875-.324219-.394531.113281.148438.199219.234375.445312.199219.542969-.078125.203124.253906.546874.902343.933593.542969.324219.660157.328125.558594.015625-.105468-.328125-.042968-.3125.316406.066406.246094.261719.253907.300782.058594.226563-.171875-.066406-.203125-.050781-.128906.070313.097656.160156-.113281.140624-.847656-.074219-.191406-.058594-.214844-.023438-.140625.21875.203125.648437.535156.933593 1.347656 1.167969.441406.125.773437.273437.738281.328124-.074218.121094-.914062-.015624-1.128906-.1875-.222656-.175781-.203125.277344.027344.605469.207031.292969 1.042968.71875 2.046875 1.039063l.683593.21875-.621093-.058594c-.339844-.03125-.765625-.078125-.945313-.105469-.277344-.042969-.320312-.011719-.265625.191407.09375.351562.722657.839843 1.183594.910156.222656.03125.679687.105468 1.019531.164062l.621094.109375-.554688.15625c-.308593.085938-.769531.128907-1.03125.09375-.464843-.0625-.472656-.054687-.300781.203125.253907.378906.851563.703125 1.542969.832032l.589844.109374-.714844-.050781c-.390625-.027343-.710938-.003906-.710938.050781 0 .050782.148438.242188.328126.421876.347656.347656.488281.371093 1.84375.339843l.867187-.019531-.746094.324219c-.902343.390625-1.050781.515625-.804687.667969.152344.09375.105468.195312-.265625.582031-.246094.257812-.660157.746093-.914063 1.082031-1.15625 1.539062-1.769531 2.039062-2.503906 2.039062-.640625 0-.703125.203126-.097656.316407.605468.113281 1.433594-.03125 2.101562-.367188.808594-.410156.757813-.199219-.117187.488281-.242188.1875-.238281.191407.0625.113282.171875-.042969.574219-.238282.898437-.433594.621094-.375.71875-.390625.386719-.058594-.277344.277344-.113281.382813.292969.1875.1875-.089844.4375-.152344.554687-.136718.117188.011718.472657-.214844.792969-.507813.328125-.296875.523438-.414063.449219-.269531-.078125.140625-.226563.324218-.332031.414062-.109376.085938-.191407.207032-.191407.265625 0 .242188.296875.078125.921875-.511719.390625-.367187.699219-.570312.746094-.496093.042969.074219.015625.132812-.066406.132812-.078125 0-.109375.082031-.070313.183594.042969.113281 0 .183594-.113281.183594-.097656 0-.179688.054687-.179688.117187 0 .25.757813-.15625.9375-.496094.242188-.464843.316407-.457031.21875.03125-.058593.277344-.039062.363282.0625.300782.078126-.050782.144532-.171875.144532-.273438 0-.105468.089844-.167968.214844-.148437.144531.027343.320312-.160157.554687-.582031.269531-.484376.339844-.550782.34375-.320313s.054687.277344.25.226563c.199219-.050782.167969.03125-.175781.449218-.445313.542969-.695313 1.191406-.457032 1.191406.078126 0 .136719-.050781.136719-.113281 0-.058593.183594-.171875.40625-.246093l.398438-.136719-.40625.320312c-.554688.441407-1.140625 1.484375-1.132813 2.023438v.003906c.007813.386719.023438.40625.15625.195313.410156-.652344.9375-1.09375 1.828125-1.535157l.980469-.484375v.355469c0 .195313.058594.355469.125.355469.070312 0 .125-.109375.125-.25 0-.136719.109375-.464844.246094-.726563.300781-.589843 1.96875-1.90625 2.441406-1.972656.453125.035156 2.136719 1.378906 2.441406 1.972656.132813.261719.246094.589844.246094.726563 0 .140625.054688.253906.121094.253906.070312 0 .125-.164062.125-.359375v-.355469l.984375.484375c.890625.441407 1.417969.882813 1.828125 1.535157.132812.210937.148437.191406.152344-.195313v-.003906c.007812-.539063-.578126-1.582031-1.132813-2.019531l-.40625-.324219.402344.136719c.222656.074218.402343.1875.402343.246093 0 .0625.0625.113281.136719.113281.242188 0-.007812-.648437-.453125-1.191406-.34375-.417968-.375-.5-.175781-.449218.195313.050781.246094.003906.25-.226563 0-.230469.074219-.164063.34375.324219.230469.421875.410156.605468.554687.578125.121094-.019531.214844.042969.214844.148437 0 .101563.0625.222656.140625.273438.105469.0625.121094-.023438.066407-.300782-.097657-.488281-.023438-.496093.21875-.03125.175781.339844.9375.746094.9375.496094 0-.0625-.082032-.117187-.183594-.117187-.109375 0-.152344-.070313-.109375-.183594.039062-.101563.007812-.183594-.074219-.183594-.078125 0-.109375-.058593-.0625-.132812s.351562.128906.742188.496093c.628906.589844.925781.757813.925781.515626 0-.058594-.085938-.183594-.191407-.269532-.105468-.089844-.257812-.273437-.332031-.414062-.078125-.144532.117188-.023438.445313.273437.320312.292969.675781.515625.792968.503907.117188-.015626.367188.046874.554688.136718.410156.195313.574219.089844.292969-.1875-.328125-.332031-.230469-.316406.386719.058594.324218.195312.730468.390625.902343.433594.300781.078125.300781.074218.0625-.113282-.878906-.6875-.929687-.898437-.117187-.488281.667968.335938 1.492187.480469 2.097656.367188s.542969-.316407-.09375-.316407c-.738281 0-1.347656-.496093-2.503906-2.035156-.257813-.339844-.667969-.828125-.917969-1.085937-.367187-.386719-.414063-.488281-.265625-.582031.25-.152344.097656-.277344-.804688-.667969l-.742187-.324219.867187.019531c1.355469.035157 1.492188.007813 1.84375-.339843.179688-.179688.324219-.371094.324219-.421876 0-.054687-.320312-.078124-.710937-.050781l-.714844.050781.59375-.109374c.6875-.128907 1.289062-.453126 1.539062-.832032.171876-.257812.167969-.261718-.296874-.203125-.261719.035157-.726563-.007812-1.03125-.09375l-.554688-.15625.621094-.109375c.339844-.058594.796875-.132812 1.019531-.167968.460937-.070313 1.089844-.554688 1.183594-.910157.054687-.203125.011719-.230469-.265625-.1875-.179688.027344-.605469.074219-.945313.105469l-.621093.058594.683593-.21875c1.003907-.320313 1.839844-.746094 2.046875-1.039063.230469-.328125.25-.78125.027344-.605469-.214844.167969-1.054688.308594-1.128906.183594-.035156-.054687.296875-.203125.738281-.328125.8125-.230469 1.144531-.515625 1.347656-1.160156.074219-.246094.050781-.28125-.140625-.226563-.734375.21875-.945312.238282-.847656.078126.074219-.121094.042969-.140626-.128906-.074219-.195313.074219-.1875.035156.058594-.226563.359374-.378906.421874-.390625.316406-.066406-.101563.3125.015625.308594.558594-.015625.648437-.386719.980468-.726563.902343-.929687-.035156-.101563.050781-.347657.199219-.546876.324219-.433593.101562-.496093-.394531-.109374-.269531.210937-1.449219.546874-1.449219.414062 0-.023438.347656-.214844.773438-.425781.859374-.425781 1.390624-.867188 1.652343-1.371094.230469-.4375.222657-.601563-.023437-.507813-.179688.066407-.179688.039063.011718-.25.257813-.390624.335938-1.941406.105469-2.019531-.078125-.027343-.179687.058594-.222656.195313-.042969.132812-.3125.476562-.597656.761718-.289063.285157-.429688.484376-.316407.449219.332032-.113281.375.0625.085938.367188-.3125.332031-.578125.371093-.679688.101562-.09375-.238281-.164062-.234375-1.183593.070313l-.855469.25-.394531.8125c-.328125.6875-.523438.914062-1.261719 1.457031-.480469.355469-.980469.765625-1.105469.90625-.300781.335937-.1875.820313.246094 1.046875.316406.164062.296875.175781-.824219.578125-1.597656.574219-2.167968.523437-2.074218-.183594.03125-.242187.292968-.410156 1.054687-.6875.5-.179687.523437-.363281.039063-.363281-.59375 0-.550782-.210938.117187-.542969 1.339844-.671875 2.964844-2.074219 3.285156-2.839843.152344-.359376.121094-1.066407-.046875-1.054688-.042968 0-.210937.285156-.371094.625-.453124.960938-2.167968 2.164062-3.734374 2.625-.941407.273438-1.90625.851562-2.320313 1.390625-.660156.859375-1.089844 1.253906-1.460937 1.335937l-.371094.085938.421875-.289062c.566406-.378907.648437-.632813.175781-.523438l-.351562.078125.308593-.21875c.480469-.335937.992188-.828125.992188-.957031 0-.0625-.109375-.085938-.246094-.050782-.199219.054688-.167969-.03125.175781-.449218.445313-.542969.695313-1.1875.457032-1.1875-.078126 0-.140626.050781-.140626.109375 0 .0625-.179687.175781-.402343.25l-.402344.132812.410156-.320312c.554688-.441407 1.140625-1.484375 1.132813-2.023438-.007813-.382812-.023438-.40625-.15625-.199219-.410156.65625-.9375 1.09375-1.828125 1.535157l-.980469.488281v-.355469c0-.199219-.058594-.359375-.125-.359375-.070312 0-.125.113282-.125.25 0 .511719-.511719 1.242188-1.308594 1.863282-.921875.722656-1.121094 1.03125-1.25 1.96875l-.128906.183593-.128906-.183593c-.128906-.933594-.324219-1.246094-1.246094-1.96875-.796875-.621094-1.3125-1.351563-1.3125-1.859376 0-.136718-.054688-.253906-.125-.253906-.066406 0-.121094.164063-.121094.359375v.359375l-.984375-.488281c-.890625-.441406-1.417969-.882813-1.828125-1.535156-.132812-.210938-.148437-.1875-.152344.195312-.007812.539063.578126 1.585938 1.132813 2.023438l.40625.324219-.402344-.136719c-.222656-.074219-.402343-.1875-.402343-.25 0-.058594-.0625-.109375-.136719-.109375-.242188 0 .007812.644531.453125 1.1875.34375.417968.378906.503906.175781.449218-.132813-.035156-.242187-.007812-.242187.054688 0 .125.507812.617188.988281.953125l.308593.21875-.351562-.078125c-.472656-.109375-.386719.144531.175781.523438l.425781.289062-.375-.085938c-.367187-.082031-.800781-.476562-1.457031-1.335937-.414062-.535156-1.382812-1.117187-2.320312-1.390625-1.570313-.460938-3.285157-1.664062-3.738281-2.625-.160157-.339844-.324219-.621094-.367188-.625-.167969-.007812-.203125.695312-.050781 1.054688.320312.765624 1.945312 2.167968 3.285156 2.839843.667969.332031.714844.542969.117187.542969-.480468 0-.460937.183594.042969.367188.757813.273437 1.023438.445312 1.054688.6875.089843.707031-.480469.753906-2.078125.179687-1.117188-.398437-1.136719-.414063-.824219-.578125.433594-.226562.550781-.710938.25-1.046875-.128906-.140625-.628906-.546875-1.109375-.902344-.738281-.546875-.933594-.773437-1.261719-1.460937l-.390625-.808594-.855468-.253906c-1.023438-.304688-1.09375-.308594-1.183594-.070313-.105469.269531-.367188.226563-.679688-.101562-.289062-.304688-.25-.480469.085938-.367188.113281.039063-.03125-.164062-.316406-.449219-.289063-.285156-.558594-.628906-.601563-.761718-.042969-.136719-.140625-.222656-.21875-.195313zm2.429687 2.753907c.066406-.011719.214844.023437.433594.113281.226562.097656.5.347656.621094.574219.117187.21875.390625.585937.605468.808593.214844.222657.351563.402344.308594.398438-.195312-.011719-.855468-.425781-1.195312-.746094-.203125-.191406-.511719-.402344-.683594-.46875-.214844-.085937-.242188-.128906-.09375-.132813.253906-.007812.28125-.140624.074219-.347656-.117188-.117187-.136719-.183594-.070313-.199218zm27.867188 0c .066406.015624.046875.082031-.070313.199218-.207031.207032-.179687.339844.074219.351563.148438.003906.121094.046875-.09375.128906-.171875.070313-.480469.277344-.683594.46875-.339844.320313-1 .734375-1.195312.746094-.042969.003906.09375-.175781.308594-.398438.214843-.222656.488281-.589843.605468-.808593.117188-.226563.390625-.476563.617188-.574219.222656-.089844.371094-.125.4375-.113281zm-14.144532.113281c.070313-.042969.09375.003906.050782.113281-.082032.214844-.171875.253906-.171875.078125 0-.066406.054687-.152344.121093-.191406zm.355469 0c .007813-.023438.03125-.023438.066407 0 .066406.039062.121093.125.121093.191406 0 .175781-.089843.136719-.171875-.078125-.019531-.054688-.027344-.09375-.015625-.113281zm0 0" fill="#b4b4b4"/></svg>