<svg height="48pt" viewBox="0 0 48 48" width="48pt" xmlns="http://www.w3.org/2000/svg"><path d="m11.210938 2.847656h25.578124c4.621094 0 8.363282 3.742188 8.363282 8.363282v25.578124c0 4.621094-3.742188 8.363282-8.363282 8.363282h-25.578124c-4.621094 0-8.363282-3.742188-8.363282-8.363282v-25.578124c0-4.621094 3.742188-8.363282 8.363282-8.363282zm0 0" fill="#f2f2f2" fill-rule="evenodd"/><path d="m31.824219 16.175781v3.910157c0 2.167968-1.742188 3.914062-3.910157 3.914062h-7.828124s-3.910157 0-3.910157 3.914062v6.84375c0 2.710938 3.054688 4.890626 6.847657 4.890626h1.953124c3.792969 0 6.847657-2.179688 6.847657-4.890626v-2.933593h2.933593c2.710938 0 4.890626-3.054688 4.890626-6.847657v-1.953124c0-3.792969-2.179688-6.847657-4.890626-6.847657zm0 0" fill="#ffc851"/><path d="m27.914062 34.433594c.71875 0 1.300782.582031 1.300782 1.304687 0 .71875-.582032 1.304688-1.300782 1.304688-.722656 0-1.304687-.585938-1.304687-1.304688 0-.722656.582031-1.304687 1.304687-1.304687zm0 0" fill="#fff"/><path d="m23.023438 8.351562c-3.792969 0-6.847657 2.179688-6.847657 4.890626v2.933593h-2.933593c-2.710938 0-4.890626 3.054688-4.890626 6.847657v1.953124c0 3.792969 2.179688 6.847657 4.890626 6.847657h2.933593v-3.910157c0-2.167968 1.742188-3.914062 3.910157-3.914062h7.828124s3.910157 0 3.910157-3.914062v-6.84375c0-2.710938-3.054688-4.890626-6.847657-4.890626zm0 0" fill="#4795d1"/><path d="m20.085938 10.957031c.722656 0 1.304687.585938 1.304687 1.304688 0 .722656-.582031 1.304687-1.304687 1.304687-.71875 0-1.300782-.582031-1.300782-1.304687 0-.71875.582032-1.304688 1.300782-1.304688zm0 0" fill="#fff"/></svg>