<svg height="48pt" viewBox="0 0 48 48" width="48pt" xmlns="http://www.w3.org/2000/svg"><path d="m11.210938 2.847656h25.578124c4.621094 0 8.363282 3.742188 8.363282 8.363282v25.578124c0 4.621094-3.742188 8.363282-8.363282 8.363282h-25.578124c-4.621094 0-8.363282-3.742188-8.363282-8.363282v-25.578124c0-4.621094 3.742188-8.363282 8.363282-8.363282zm0 0" fill="#913b3b" fill-rule="evenodd"/><path d="m24 7.230469-4.914062 4.910156h-6.945313v6.945313l-4.910156 4.914062 4.910156 4.910156v6.949219h6.945313l4.914062 4.910156 4.910156-4.910156h6.949219v-6.945313l4.910156-4.914062-4.910156-4.910156v-6.949219h-6.945313zm0 0" fill="#fec006"/><path d="m17.582031 8.503906-2.660156 6.417969-6.417969 2.660156 2.65625 6.417969-2.65625 6.417969 6.417969 2.660156 2.660156 6.417969 6.417969-2.660156 6.417969 2.660156 2.65625-6.417969 6.417969-2.660156-2.65625-6.417969 2.65625-6.417969-6.417969-2.660156-2.660157-6.417969-6.417968 2.65625zm0 0" fill="#fecd38"/><path d="m36.898438 24c0-7.125-5.773438-12.902344-12.898438-12.902344s-12.902344 5.777344-12.902344 12.902344 5.777344 12.898438 12.902344 12.898438 12.898438-5.773438 12.898438-12.898438zm0 0" fill="#fed96a"/><path d="m20.128906 20.128906c0 1.425782-1.15625 2.582032-2.578125 2.582032-1.425781 0-2.582031-1.15625-2.582031-2.582032 0-1.425781 1.15625-2.578125 2.582031-2.578125 1.421875 0 2.578125 1.152344 2.578125 2.578125zm0 0" fill="#3f3f3f"/><path d="m33.03125 20.128906c0 1.425782-1.15625 2.582032-2.582031 2.582032s-2.578125-1.15625-2.578125-2.582032c0-1.425781 1.152344-2.578125 2.578125-2.578125s2.582031 1.152344 2.582031 2.578125zm0 0" fill="#3f3f3f"/><path d="m17.128906 27.871094c1.417969 2.945312 4.035156 5.15625 6.871094 5.160156 2.832031-.007812 5.449219-2.21875 6.867188-5.160156h-6.867188c-2.582031 0-6.871094 0-6.871094 0zm0 0" fill="#913b3b"/></svg>