<svg height="48pt" viewBox="0 0 48 48" width="48pt" xmlns="http://www.w3.org/2000/svg" xmlns:xlink="http://www.w3.org/1999/xlink"><clipPath id="a"><path d="m0 0h48v48h-48z"/></clipPath><path d="m11.210938 2.847656h25.578124c4.621094 0 8.363282 3.742188 8.363282 8.363282v25.578124c0 4.621094-3.742188 8.363282-8.363282 8.363282h-25.578124c-4.621094 0-8.363282-3.742188-8.363282-8.363282v-25.578124c0-4.621094 3.742188-8.363282 8.363282-8.363282zm0 0" fill="#de554c" fill-rule="evenodd"/><g clip-path="url(#a)"><path d="m12 12c-2.484375 0-4.5 2.015625-4.5 4.5s2.015625 4.5 4.5 4.5c1.0625 0 2.042969-.367188 2.8125-.984375l3.472656 2.15625c-.1875.589844-.285156 1.207031-.285156 1.828125.003906.621094.101562 1.234375.292969 1.824219l-3.480469 2.160156c-.769531-.617187-1.75-.984375-2.8125-.984375-2.484375 0-4.5 2.015625-4.5 4.5s2.015625 4.5 4.5 4.5 4.5-2.015625 4.5-4.5c0-.347656-.066406-.660156-.140625-.984375l3.507813-2.179687c1.113281 1.066406 2.59375 1.660156 4.132812 1.664062 1.542969 0 3.023438-.597656 4.140625-1.660156l3.5 2.175781c-.074219.324219-.140625.636719-.140625.984375 0 2.484375 2.015625 4.5 4.5 4.5s4.5-2.015625 4.5-4.5-2.015625-4.5-4.5-4.5c-1.0625 0-2.042969.367188-2.8125.984375l-3.472656-2.160156c.1875-.589844.285156-1.203125.285156-1.824219 0-.617188-.097656-1.234375-.289062-1.824219l3.476562-2.160156c.769531.617187 1.75.984375 2.8125.984375 2.484375 0 4.5-2.015625 4.5-4.5s-2.015625-4.5-4.5-4.5-4.5 2.015625-4.5 4.5c0 .347656.066406.660156.140625.984375l-3.507813 2.179687c-1.113281-1.066406-2.59375-1.660156-4.132812-1.664062-1.542969 0-3.023438.597656-4.140625 1.660156l-3.5-2.175781c.074219-.324219.140625-.636719.140625-.984375 0-2.484375-2.015625-4.5-4.5-4.5zm0 0" fill="#ffb668"/></g></svg>