<svg height="48pt" viewBox="0 0 48 48" width="48pt" xmlns="http://www.w3.org/2000/svg"><path d="m11.210938 2.847656h25.578124c4.621094 0 8.363282 3.742188 8.363282 8.363282v25.578124c0 4.621094-3.742188 8.363282-8.363282 8.363282h-25.578124c-4.621094 0-8.363282-3.742188-8.363282-8.363282v-25.578124c0-4.621094 3.742188-8.363282 8.363282-8.363282zm0 0" fill="#37a0f2" fill-rule="evenodd"/><path d="m22 12c-.554688 0-1 .34375-1 .769531v11.753907h-4l7 9.390624 7-9.390624h-4v-11.753907c0-.425781-.445312-.769531-1-.769531zm2 21.914062h-8.101562c-.496094 0-.898438.464844-.898438 1.042969s.402344 1.042969.898438 1.042969h16.199218c.5 0 .902344-.464844.902344-1.042969s-.402344-1.042969-.898438-1.042969zm0 0" fill="#fff"/></svg>