<svg height="48pt" viewBox="0 0 48 48" width="48pt" xmlns="http://www.w3.org/2000/svg" xmlns:xlink="http://www.w3.org/1999/xlink"><clipPath id="a"><path d="m0 0h48v48h-48z"/></clipPath><g fill-rule="evenodd"><path d="m11.210938 2.847656h25.578124c4.621094 0 8.363282 3.742188 8.363282 8.363282v25.578124c0 4.621094-3.742188 8.363282-8.363282 8.363282h-25.578124c-4.621094 0-8.363282-3.742188-8.363282-8.363282v-25.578124c0-4.621094 3.742188-8.363282 8.363282-8.363282zm0 0" fill="#98c305"/><path d="m13.113281 26.246094c-1.640625-.160156-3.519531-.140625-5.800781.128906-1.242188.148438-2.960938.59375-4.464844.902344v6.863281c1.246094.46875 2.703125.808594 4.472656.96875 3.902344.355469 8.890626.089844 14.136719-.253906 5.25-.34375 10.757813-.765625 15.699219-.71875 2.472656.023437 4.800781.164062 6.886719.492187.425781.066406.707031.246094 1.109375.328125v-2.535156c-1.882813.070313-4.082032.261719-5.671875.226563-3.199219-.070313-5.847657-.335938-8.097657-.722657-2.253906-.390625-4.113281-.898437-5.734374-1.453125-1.625-.554687-3.011719-1.15625-4.320313-1.730468-1.3125-.570313-2.546875-1.117188-3.863281-1.558594s-2.714844-.777344-4.351563-.9375zm0 0" fill="#98c305"/><path d="m11.210938 2.847656c-4.632813 0-8.363282 3.726563-8.363282 8.363282v16.066406c1.503906-.308594 3.222656-.753906 4.464844-.902344 2.28125-.269531 4.160156-.289062 5.800781-.128906 1.636719.160156 3.035157.496094 4.351563.9375s2.550781.988281 3.863281 1.558594c1.308594.574218 2.695313 1.175781 4.320313 1.730468 1.621093.554688 3.480468 1.0625 5.734374 1.453125 2.25.386719 4.898438.652344 8.097657.722657 1.589843.035156 3.789062-.15625 5.671875-.226563v-21.210937c0-4.636719-3.730469-8.363282-8.363282-8.363282zm0 0" fill="#a3daff"/></g><g clip-path="url(#a)"><path d="m33.90625 8.96875c3.292969 0 5.964844 2.671875 5.964844 5.964844 0 3.292968-2.671875 5.964844-5.964844 5.964844s-5.964844-2.671876-5.964844-5.964844c0-3.292969 2.671875-5.964844 5.964844-5.964844zm0 0" fill="#fff" fill-rule="evenodd"/></g><path d="m45.152344 34.957031c-17.875-9.902343-24 .859375-37.832032.152344-1.769531-.160156-3.226562-.5-4.472656-.96875v2.652344c0 4.632812 3.730469 8.359375 8.363282 8.359375h25.578124c4.632813 0 8.363282-3.726563 8.363282-8.359375zm0 0" fill="#addb1e" fill-rule="evenodd"/></svg>