<svg height="48pt" viewBox="0 0 48 48" width="48pt" xmlns="http://www.w3.org/2000/svg"><path d="m11.210938 2.847656h25.578124c4.621094 0 8.363282 3.742188 8.363282 8.363282v25.578124c0 4.621094-3.742188 8.363282-8.363282 8.363282h-25.578124c-4.621094 0-8.363282-3.742188-8.363282-8.363282v-25.578124c0-4.621094 3.742188-8.363282 8.363282-8.363282zm0 0" fill="#1a1a1a" fill-rule="evenodd"/><path d="m23.925781 18.28125c-2.773437.042969-4.992187 2.324219-4.953125 5.097656v13.371094c0 2.773438 2.25 5.023438 5.027344 5.023438s5.027344-2.25 5.027344-5.023438v-13.371094c.019531-1.355468-.511719-2.664062-1.472656-3.625-.960938-.960937-2.269532-1.492187-3.628907-1.472656zm0 0" fill="#fff"/><path d="m28.960938 11.1875c0 2.742188-2.21875 4.960938-4.960938 4.960938s-4.960938-2.21875-4.960938-4.960938c0-2.738281 2.21875-4.960938 4.960938-4.960938s4.960938 2.222657 4.960938 4.960938zm0 0" fill="#89c624"/></svg>