<svg height="48pt" viewBox="0 0 48 48" width="48pt" xmlns="http://www.w3.org/2000/svg" xmlns:xlink="http://www.w3.org/1999/xlink"><filter id="a" height="100%" width="100%" x="0%" y="0%"><feColorMatrix in="SourceGraphic" type="matrix" values="0 0 0 0 1 0 0 0 0 1 0 0 0 0 1 0 0 0 1 0"/></filter><mask id="b"><g filter="url(#a)"><path d="m0 0h48v48h-48z" fill-opacity=".101961"/></g></mask><clipPath id="c"><path d="m0 0h48v48h-48z"/></clipPath><g clip-path="url(#c)" mask="url(#b)"><path d="m24 3c-11.632812 0-21 9.367188-21 21 0 .253906.027344.5.039062.75.394532-11.28125 9.582032-20.25 20.960938-20.25 11.382812 0 20.566406 8.96875 20.964844 20.25.007812-.25.035156-.496094.035156-.75 0-11.632812-9.363281-21-21-21zm0 0" fill="#fff"/></g><path d="m11.210938 2.847656h25.578124c4.621094 0 8.363282 3.742188 8.363282 8.363282v25.578124c0 4.621094-3.742188 8.363282-8.363282 8.363282h-25.578124c-4.621094 0-8.363282-3.742188-8.363282-8.363282v-25.578124c0-4.621094 3.742188-8.363282 8.363282-8.363282zm0 0" fill="#fe4d38" fill-rule="evenodd"/><path d="m40.234375 24c0-8.964844-7.269531-16.234375-16.234375-16.234375s-16.234375 7.269531-16.234375 16.234375 7.269531 16.234375 16.234375 16.234375 16.234375-7.269531 16.234375-16.234375zm0 0" fill="#fff"/><g fill="#3f3f3f"><path d="m15.046875 28.636719c1.847656 3.585937 5.261719 5.796875 8.957031 5.800781 3.695313-.007812 7.105469-2.21875 8.949219-5.800781 1.660156-3.214844-3.355469-3.476563-8.953125-3.476563s-10.613281.261719-8.953125 3.476563zm0 0"/><path d="m20.519531 17.621094c0-1.601563-1.035156-2.898438-2.316406-2.898438s-2.320313 1.296875-2.320313 2.898438c0 1.601562 1.039063 2.898437 2.320313 2.898437s2.316406-1.296875 2.316406-2.898437zm0 0"/><path d="m32.117188 17.621094c0-1.601563-1.039063-2.898438-2.320313-2.898438s-2.316406 1.296875-2.316406 2.898438c0 1.601562 1.035156 2.898437 2.316406 2.898437s2.320313-1.296875 2.320313-2.898437zm0 0"/></g></svg>