<svg height="48pt" viewBox="0 0 48 48" width="48pt" xmlns="http://www.w3.org/2000/svg"><path d="m11.210938 2.847656h25.578124c4.621094 0 8.363282 3.742188 8.363282 8.363282v25.578124c0 4.621094-3.742188 8.363282-8.363282 8.363282h-25.578124c-4.621094 0-8.363282-3.742188-8.363282-8.363282v-25.578124c0-4.621094 3.742188-8.363282 8.363282-8.363282zm0 0" fill="#00b88a" fill-rule="evenodd"/><path d="m24 7.5c-9.113281 0-16.5 7.386719-16.5 16.5s7.386719 16.5 16.5 16.5 16.5-7.386719 16.5-16.5-7.386719-16.5-16.5-16.5zm-3 3h6l-3 12zm-4.421875 1.835938 3.179687 5.300781 3.183594 5.304687-5.304687-3.183594-5.304688-3.179687 2.121094-2.125zm14.84375 0 2.125 2.117187 2.121094 2.125-5.304688 3.179687-5.304687 3.183594 3.183594-5.304687zm-20.921875 8.699218 12 3-12 3zm27 0v6l-12-3zm-14.558594 4.058594-3.183594 5.304688-3.179687 5.300781-4.242187-4.242188 5.300781-3.179687zm2.121094 0 5.300781 3.183594 5.304688 3.179687-4.242188 4.242188-3.183593-5.300781zm-1.0625.449219 3 12h-6zm0 0" fill="#fff763"/></svg>