<svg height="48pt" viewBox="0 0 48 48" width="48pt" xmlns="http://www.w3.org/2000/svg"><path d="m11.210938 2.847656h25.578124c4.621094 0 8.363282 3.742188 8.363282 8.363282v25.578124c0 4.621094-3.742188 8.363282-8.363282 8.363282h-25.578124c-4.621094 0-8.363282-3.742188-8.363282-8.363282v-25.578124c0-4.621094 3.742188-8.363282 8.363282-8.363282zm0 0" fill="#f59335" fill-rule="evenodd"/><path d="m14.101562 12c-1.828124 0-3.640624 1.460938-3.601562 3.273438v14.726562h-3v6h33v-6h-3v-14.726562c0-1.8125-1.773438-3.273438-3.601562-3.273438zm1.648438 3h16.5c1.21875 0 2.25 1.246094 2.25 2.457031v10.90625c0 .398438.082031 1.847657-.902344 1.636719h-19.195312c-.984375-.054688-.902344-1.238281-.902344-1.636719v-10.90625c0-1.210937 1.03125-2.457031 2.25-2.457031zm0 0" fill="#fff"/></svg>