<svg height="48pt" viewBox="0 0 48 48" width="48pt" xmlns="http://www.w3.org/2000/svg"><path d="m11.210938 2.847656h25.578124c4.621094 0 8.363282 3.742188 8.363282 8.363282v25.578124c0 4.621094-3.742188 8.363282-8.363282 8.363282h-25.578124c-4.621094 0-8.363282-3.742188-8.363282-8.363282v-25.578124c0-4.621094 3.742188-8.363282 8.363282-8.363282zm0 0" fill="#f57f38" fill-rule="evenodd"/><path d="m24 9.546875c-.402344 0-.800781.019531-1.195312.050781-3.574219.253906-6.445313 1.578125-9.027344 4.15625-2.128906 2.125-3.449219 4.746094-3.96875 7.492188-.050782.25-.085938.503906-.121094.757812-.023438.160156-.046875.3125-.0625.472656-.035156.335938-.054688.675782-.066406 1.019532 0 .089844-.007813.175781-.007813.261718 0 .078126-.003906.160157-.003906.242188 0 7.875 6.234375 14.234375 14.054687 14.441406.058594.003906.121094.007813.183594.007813.074219 0 .140625.003906.214844.003906.347656 0 .691406-.015625 1.035156-.039063.042969-.003906.082032-.007812.125-.011718 5.164063-.40625 9.539063-3.507813 11.746094-7.902344h.003906c.144532-.285156.289063-.570312.414063-.863281.675781-1.527344 1.042969-3.152344 1.109375-4.847657.003906-.054687.003906-.109374.007812-.164062.003906-.164062.011719-.324219.011719-.488281 0-.046875 0-.089844 0-.136719v-12.285156c0-1.203125-.964844-2.167969-2.167969-2.167969zm0 0" fill="#fff"/><path d="m25.417969 15.742188c-.363281 0-.664063.289062-.667969.640624 0 .351563.300781.648438.664062.652344 1.578126.011719 2.875.507813 3.917969 1.492188 1.035157.972656 1.574219 2.320312 1.585938 4.082031.003906.351563.304687.640625.667969.640625h.007812c.367188-.003906.667969-.300781.664062-.652344-.007812-1.027344-.171874-1.972656-.5-2.800781-.332031-.839844-.832031-1.582031-1.488281-2.199219-1.292969-1.214844-2.945312-1.84375-4.847656-1.859375h-.003906zm-6.773438 1.515624c-.253906-.042968-.527343.003907-.804687.136719h-.023438l-.027344.019531c-.511718.289063-.988281.679688-1.4375 1.164063l-.035156.039063v.035156c-.308594.386718-.515625.773437-.5625 1.164062-.015625.066406-.011718.125-.011718.191406 0 .175782.023437.355469.078124.53125l.015626.050782.03125.019531c.175781.605469.578124 1.550781 1.457031 3.148437.582031 1.058594 1.179687 1.945313 1.773437 2.691407.3125.390625.667969.800781 1.078125 1.210937.003907.003906.023438.023438.042969.039063.003906.007812.015625.019531.039062.042969l.039063.039062h.003906c.011719.015625.023438.027344.027344.03125l.003906.007812.007813.007813c.414062.40625.816406.761719 1.214844 1.070313.742187.59375 1.628906 1.199218 2.6875 1.785156 1.601562.882812 2.554687 1.28125 3.160156 1.453125l.019531.027343.039063.015626c.167968.054687.347656.082031.523437.078124.070313.003907.136719 0 .195313-.015624.414062-.046876.824218-.242188 1.226562-.582032l.003906-.007812h.007813c.003906-.007813 0-.003906.003906-.007813.003906-.003906.003906-.007812.007813-.011719.480468-.4375.867187-.914062 1.160156-1.421874l.015625-.03125v-.03125c.269531-.558594.164062-1.125-.269531-1.488282-.011719-.007812-.222657-.183594-.480469-.394531-.265625-.214844-.578125-.46875-.789063-.625-.402344-.296875-1.023437-.679687-1.375-.875-.679687-.378906-1.390625-.160156-1.703125.246094l-.546875.683593c-.21875.277344-.660156.25-.671875.25-3.710937-.953124-4.707031-4.683593-4.714843-4.710937 0-.011719-.027344-.453125.25-.679687l.683593-.542969c.40625-.3125.632813-1.019531.25-1.699219-.199219-.351562-.585937-.976562-.875-1.375h-.003906c-.15625-.214844-.410156-.527344-.625-.792969-.109375-.132812-.207031-.253906-.277344-.339843-.035156-.042969-.066406-.078126-.085937-.105469-.011719-.011719-.019532-.019531-.023438-.027344-.003906-.003906-.007812-.003906-.007812-.007813-.191406-.222656-.429688-.359374-.695313-.40625zm6.8125 1.488282c-.355469-.023438-.679687.242187-.703125.589844-.027344.34375.25.652343.609375.675781.882813.0625 1.480469.324219 1.925781.796875v.003906c.460938.480469.667969 1.03125.648438 1.785156v.003906c-.007812.347657.285156.640626.644531.648438h.015625c.355469 0 .648438-.28125.65625-.621094.023438-1.035156-.3125-1.960937-.992187-2.675781-.683594-.722656-1.652344-1.125-2.804688-1.207031zm0 0" fill="#f57f38"/></svg>