<svg height="48pt" viewBox="0 0 48 48" width="48pt" xmlns="http://www.w3.org/2000/svg" xmlns:xlink="http://www.w3.org/1999/xlink"><clipPath id="a"><path d="m0 0h48v48h-48z"/></clipPath><path d="m11.210938 2.847656h25.578124c4.621094 0 8.363282 3.742188 8.363282 8.363282v25.578124c0 4.621094-3.742188 8.363282-8.363282 8.363282h-25.578124c-4.621094 0-8.363282-3.742188-8.363282-8.363282v-25.578124c0-4.621094 3.742188-8.363282 8.363282-8.363282zm0 0" fill="#f2f2f2" fill-rule="evenodd"/><g clip-path="url(#a)" fill-rule="evenodd"><path d="m12.386719 31.222656-5.746094-13.3125 4.769531-2.203125 3.703125 8.933594 4.476563-2.277344 2.015625 4.296875zm0 0" fill="#4587cf"/><path d="m29.136719 13.261719 5.058593.972656 1.085938 3.277344 2.21875-2.535157 5.539062 1.167969-4.972656 5.539063 2.804688 8.253906-5.960938-.578125-1.058594-4.476563-2.691406 3.683594-4.636718-1.449218 4.660156-6.59375zm0 0" fill="#de5328"/><path d="m16.382812 17.800781 5.785157.785157 1.714843 3.589843 2.164063-3.105469 5.824219.75-5.335938 7.625-1.308594 7.292969-5.410156-.859375.933594-6.542968zm0 0" fill="#dfa722"/></g></svg>