<svg height="48pt" viewBox="0 0 48 48" width="48pt" xmlns="http://www.w3.org/2000/svg"><path d="m11.210938 2.847656h25.578124c4.621094 0 8.363282 3.742188 8.363282 8.363282v25.578124c0 4.621094-3.742188 8.363282-8.363282 8.363282h-25.578124c-4.621094 0-8.363282-3.742188-8.363282-8.363282v-25.578124c0-4.621094 3.742188-8.363282 8.363282-8.363282zm0 0" fill="#1da6e8" fill-rule="evenodd"/><path d="m19.5 28.5c0 2.898438-2.351562 5.25-5.25 5.25s-5.25-2.351562-5.25-5.25 2.351562-5.25 5.25-5.25 5.25 2.351562 5.25 5.25zm0 0" fill="#ffe174"/><path d="m21 21.75c0 2.484375-2.015625 4.5-4.5 4.5s-4.5-2.015625-4.5-4.5 2.015625-4.5 4.5-4.5 4.5 2.015625 4.5 4.5zm0 0" fill="#ffd338"/><path d="m31.5 21c0 3.726562-3.023438 6.75-6.75 6.75s-6.75-3.023438-6.75-6.75 3.023438-6.75 6.75-6.75 6.75 3.023438 6.75 6.75zm0 0" fill="#ffb822"/><path d="m39 27c0 3.726562-3.023438 6.75-6.75 6.75s-6.75-3.023438-6.75-6.75 3.023438-6.75 6.75-6.75 6.75 3.023438 6.75 6.75zm0 0" fill="#ff7c2d"/><path d="m31.5 26.25c0 4.140625-3.359375 7.5-7.5 7.5s-7.5-3.359375-7.5-7.5 3.359375-7.5 7.5-7.5 7.5 3.359375 7.5 7.5zm0 0" fill="#ff972d"/></svg>