<svg height="48pt" viewBox="0 0 48 48" width="48pt" xmlns="http://www.w3.org/2000/svg"><path d="m11.210938 2.847656h25.578124c4.621094 0 8.363282 3.742188 8.363282 8.363282v25.578124c0 4.621094-3.742188 8.363282-8.363282 8.363282h-25.578124c-4.621094 0-8.363282-3.742188-8.363282-8.363282v-25.578124c0-4.621094 3.742188-8.363282 8.363282-8.363282zm0 0" fill="#ff9959" fill-rule="evenodd"/><path d="m30.03125 10.558594c-.492188.382812-1.9375 3.058594-3.386719 6.253906-.585937 1.300781-1.414062 3-1.832031 3.785156-1.246094 2.316406-4.28125 6.535156-5.691406 7.878906l-1.308594 1.265626.976562 1.042968c.601563.640625 1.394532 1.972656 2.050782 3.464844 1.25 2.839844 1.464844 3.25 1.703125 3.25.113281 0 .753906-.351562 1.464843-.796875 1.59375-1.007813 3.082032-2.359375 5.105469-4.664063 3.15625-3.59375 5.527344-4.355468 8.449219-2.703124.789062.445312 1.4375.726562 1.4375.621093 0-.109375-.402344-1.191406-.882812-2.40625-.484376-1.21875-1.800782-4.660156-2.917969-7.644531-.796875-1.308594-3.402344-10.261719-5.167969-9.339844m-6.296875 7.347656c-.011719 0-.03125 0-.050781.007813-2.671875 1.171875-3.636719 1.703125-4.425782 2.445313-.515624.496093-.941406 1.023437-.941406 1.179687 0 .480469 2.105469 1.757813 2.453125 1.488281.167969-.128906.824219-1.070312 1.460938-2.09375 1.121093-1.828125 1.703125-3 1.503906-3.027344m-7.480469 5.167969c-.453125 0-6.914062 2.4375-7.21875 2.730469-.089844.082031.003906.238281.210938.351562.207031.117188 1.386718.90625 2.640625 1.753907 1.25.851562 2.335937 1.539062 2.414062 1.542969.074219 0 .648438-.296876 1.261719-.667969 1.289062-.773438 3.773438-3.167969 3.761719-3.628907-.007813-.40625-2.488281-2.085937-3.074219-2.085937m.003906.003906" fill="#4d4d4d"/></svg>