<svg height="48pt" viewBox="0 0 48 48" width="48pt" xmlns="http://www.w3.org/2000/svg"><path d="m11.210938 2.847656h25.578124c4.621094 0 8.363282 3.742188 8.363282 8.363282v25.578124c0 4.621094-3.742188 8.363282-8.363282 8.363282h-25.578124c-4.621094 0-8.363282-3.742188-8.363282-8.363282v-25.578124c0-4.621094 3.742188-8.363282 8.363282-8.363282zm0 0" fill="#ff7c40" fill-rule="evenodd"/><path d="m28.5 12c-4.96875 0-9 1.34375-9 3s4.03125 3 9 3 9-1.34375 9-3-4.03125-3-9-3zm8.703125 5.246094c-1.019531 1.324218-4.601563 2.253906-8.703125 2.253906-4.097656 0-7.675781-.925781-8.703125-2.246094-.195313.242188-.292969.492188-.296875.746094 0 1.65625 4.03125 3 9 3s9-1.34375 9-3c-.003906-.253906-.101562-.507812-.296875-.753906zm0 3c-1.019531 1.324218-4.601563 2.253906-8.703125 2.253906-4.097656 0-7.675781-.925781-8.703125-2.246094-.195313.242188-.292969.492188-.296875.746094.003906.542969.453125 1.078125 1.296875 1.542969 2.726563.132812 5.039063.664062 6.398437 1.421875.433594.023437.867188.035156 1.304688.035156 4.96875 0 9-1.34375 9-3-.003906-.253906-.101562-.507812-.296875-.753906zm0 3c-1.019531 1.324218-4.601563 2.253906-8.703125 2.253906v1.5c4.96875 0 9-1.34375 9-3-.003906-.253906-.101562-.507812-.296875-.753906zm0 3c-1.019531 1.324218-4.601563 2.253906-8.703125 2.253906v1.5c4.96875 0 9-1.34375 9-3-.003906-.253906-.101562-.507812-.296875-.753906zm0 3c-1.019531 1.324218-4.601563 2.253906-8.703125 2.253906v1.5c4.96875 0 9-1.34375 9-3-.003906-.253906-.101562-.507812-.296875-.753906zm0 3c-1.019531 1.324218-4.601563 2.253906-8.703125 2.253906 0 .535156-.457031 1.03125-1.195312 1.46875.394531.019531.796874.03125 1.195312.03125 4.96875 0 9-1.34375 9-3-.003906-.253906-.101562-.507812-.296875-.753906zm0 0" fill="#d75e32"/><path d="m28.5 10.5c-4.96875 0-9 1.34375-9 3s4.03125 3 9 3 9-1.34375 9-3-4.03125-3-9-3zm8.703125 5.246094c-1.019531 1.324218-4.601563 2.253906-8.703125 2.253906-4.097656 0-7.675781-.925781-8.703125-2.246094-.195313.242188-.292969.492188-.296875.746094 0 1.65625 4.03125 3 9 3s9-1.34375 9-3c-.003906-.253906-.101562-.507812-.296875-.753906zm0 3c-1.019531 1.324218-4.601563 2.253906-8.703125 2.253906-4.097656 0-7.675781-.925781-8.703125-2.246094-.195313.242188-.292969.492188-.296875.746094.003906.542969.453125 1.078125 1.296875 1.542969 2.726563.132812 5.039063.664062 6.398437 1.421875.433594.023437.867188.035156 1.304688.035156 4.96875 0 9-1.34375 9-3-.003906-.253906-.101562-.507812-.296875-.753906zm0 3c-1.019531 1.324218-4.601563 2.253906-8.703125 2.253906v1.5c4.96875 0 9-1.34375 9-3-.003906-.253906-.101562-.507812-.296875-.753906zm0 3c-1.019531 1.324218-4.601563 2.253906-8.703125 2.253906v1.5c4.96875 0 9-1.34375 9-3-.003906-.253906-.101562-.507812-.296875-.753906zm0 3c-1.019531 1.324218-4.601563 2.253906-8.703125 2.253906v1.5c4.96875 0 9-1.34375 9-3-.003906-.253906-.101562-.507812-.296875-.753906zm0 3c-1.019531 1.324218-4.601563 2.253906-8.703125 2.253906 0 .535156-.457031 1.03125-1.195312 1.46875.394531.019531.796874.03125 1.195312.03125 4.96875 0 9-1.34375 9-3-.003906-.253906-.101562-.507812-.296875-.753906zm0 0" fill="#ffd8c6"/><path d="m19.5 22.5c-4.96875 0-9 1.34375-9 3s4.03125 3 9 3 9-1.34375 9-3-4.03125-3-9-3zm8.703125 5.246094c-1.019531 1.324218-4.601563 2.253906-8.703125 2.253906-4.097656 0-7.675781-.925781-8.703125-2.246094-.195313.242188-.292969.492188-.296875.746094 0 1.65625 4.03125 3 9 3s9-1.34375 9-3c-.003906-.253906-.101562-.507812-.296875-.753906zm0 3c-1.019531 1.324218-4.601563 2.253906-8.703125 2.253906-4.097656 0-7.675781-.925781-8.703125-2.246094-.195313.242188-.292969.492188-.296875.746094 0 1.65625 4.03125 3 9 3s9-1.34375 9-3c-.003906-.253906-.101562-.507812-.296875-.753906zm0 3c-1.019531 1.324218-4.601563 2.253906-8.703125 2.253906-4.097656 0-7.675781-.925781-8.703125-2.246094-.195313.242188-.292969.492188-.296875.746094 0 1.65625 4.03125 3 9 3s9-1.34375 9-3c-.003906-.253906-.101562-.507812-.296875-.753906zm0 0" fill="#d75e32"/><path d="m19.5 21c-4.96875 0-9 1.34375-9 3s4.03125 3 9 3 9-1.34375 9-3-4.03125-3-9-3zm8.703125 5.246094c-1.019531 1.324218-4.601563 2.253906-8.703125 2.253906-4.097656 0-7.675781-.925781-8.703125-2.246094-.195313.242188-.292969.492188-.296875.746094 0 1.65625 4.03125 3 9 3s9-1.34375 9-3c-.003906-.253906-.101562-.507812-.296875-.753906zm0 3c-1.019531 1.324218-4.601563 2.253906-8.703125 2.253906-4.097656 0-7.675781-.925781-8.703125-2.246094-.195313.242188-.292969.492188-.296875.746094 0 1.65625 4.03125 3 9 3s9-1.34375 9-3c-.003906-.253906-.101562-.507812-.296875-.753906zm0 3c-1.019531 1.324218-4.601563 2.253906-8.703125 2.253906-4.097656 0-7.675781-.925781-8.703125-2.246094-.195313.242188-.292969.492188-.296875.746094 0 1.65625 4.03125 3 9 3s9-1.34375 9-3c-.003906-.253906-.101562-.507812-.296875-.753906zm0 0" fill="#fff"/></svg>