<svg height="48pt" viewBox="0 0 48 48" width="48pt" xmlns="http://www.w3.org/2000/svg"><g fill-rule="evenodd"><path d="m11.210938 2.847656h25.578124c4.621094 0 8.363282 3.742188 8.363282 8.363282v25.578124c0 4.621094-3.742188 8.363282-8.363282 8.363282h-25.578124c-4.621094 0-8.363282-3.742188-8.363282-8.363282v-25.578124c0-4.621094 3.742188-8.363282 8.363282-8.363282zm0 0" fill="#a0002f"/><path d="m14.558594 45.152344 9.441406-21.152344-21.152344-9.4375v22.230469c0 4.632812 3.726563 8.359375 8.359375 8.359375zm0 0" fill="#a0002f"/><path d="m45.152344 33.441406-21.152344-9.441406-9.441406 21.152344h22.234375c4.632812 0 8.359375-3.726563 8.359375-8.359375zm0 0" fill="#c3283a"/><path d="m33.441406 2.847656-9.441406 21.152344 21.152344 9.441406v-22.230468c0-4.636719-3.726563-8.363282-8.359375-8.363282zm0 0" fill="#a0002f"/><path d="m2.847656 14.5625 21.152344 9.4375 9.441406-21.152344h-22.234375c-4.632812 0-8.359375 3.726563-8.359375 8.363282zm0 0" fill="#c3283a"/></g><path d="m18.496094 39.367188c.066406-.070313.28125-.210938.480468-.316407.339844-.179687.398438-.191406 1.195313-.261719 1.019531-.089843 1.824219-.242187 2.1875-.410156.542969-.257812.863281-.722656 1.039063-1.5.078124-.347656.09375-.738281.113281-2.402344.019531-2.042968-.054688-4.917968-.144531-5.359374-.09375-.472657-.167969-.558594-1-1.179688-.898438-.667969-1.976563-1.703125-2.457032-2.359375-.871094-1.183594-1.351562-2.398437-1.597656-4.003906-.066406-.441407-.09375-.914063-.09375-1.789063 0-1.964844.183594-3.234375 1.027344-7.199218.304687-1.433594.398437-1.746094.5625-1.929688l.109375-.117188h8.144531l.109375.117188c.152344.167969.234375.453125.589844 2.085938.964843 4.472656 1.191406 6.695312.898437 8.824218-.375 2.6875-1.625 4.601563-4.261718 6.53125-.320313.234375-.613282.488282-.652344.5625-.132813.261719-.191406.714844-.238282 1.910156-.070312 1.71875-.074218 5.28125-.003906 5.820313.152344 1.199219.496094 1.75 1.273438 2.058594.339844.132812 1.058594.253906 2.042968.34375.730469.066406.828126.085937 1.164063.253906.203125.101563.425781.242187.492187.3125l.125.132813h-11.222656zm0 0" fill="#fff"/><path d="m18.988281 20.519531c-.273437 7.8125 9.4375 9.792969 10.164063.003907-2.25 3.242187-7.710938-3.015626-10.164063-.003907zm0 0" fill="#bb002f"/><path d="m40.351562 33.019531c0 4.144531-3.359374 7.5-7.5 7.5-4.144531 0-7.5-3.355469-7.5-7.5 0-4.140625 3.355469-7.5 7.5-7.5 4.140626 0 7.5 3.359375 7.5 7.5zm0 0" fill="#fa6257"/><path d="m36.359375 29.515625c-.324219-.324219-.847656-.324219-1.171875 0l-2.335938 2.335937-2.339843-2.335937c-.324219-.324219-.84375-.324219-1.167969 0s-.324219.84375 0 1.167969l2.339844 2.335937-2.339844 2.339844c-.324219.324219-.324219.84375 0 1.167969.324219.324218.84375.324218 1.167969 0l2.339843-2.335938 2.335938 2.335938c.324219.324218.847656.324218 1.171875 0 .324219-.324219.324219-.84375 0-1.167969l-2.339844-2.339844 2.339844-2.335937c.324219-.324219.324219-.84375 0-1.167969zm0 0" fill="#fff"/></svg>