<svg height="48pt" viewBox="0 0 48 48" width="48pt" xmlns="http://www.w3.org/2000/svg"><path d="m11.210938 2.847656h25.578124c4.621094 0 8.363282 3.742188 8.363282 8.363282v25.578124c0 4.621094-3.742188 8.363282-8.363282 8.363282h-25.578124c-4.621094 0-8.363282-3.742188-8.363282-8.363282v-25.578124c0-4.621094 3.742188-8.363282 8.363282-8.363282zm0 0" fill="#0286c2" fill-rule="evenodd"/><path d="m19.035156 7.324219c-5.5 0-9.925781 4.589843-9.925781 10.292969v5.621093c0 .179688.019531.351563.027344.527344.089843 3.976563.613281 10.707031 3.148437 13.589844 2.550782 2.902343 8.5 3.320312 10.902344 3.320312 4.269531 0 6.171875-1.671875 6.171875-1.671875v-2.746094s-2.574219.898438-5.617187.84375c-2.089844-.035156-3.878907-.582031-4.777344-1.9375-.324219-.488281-.300782-.96875-.398438-1.660156.15625.007813.308594.027344.46875.027344h9.929688c5.5 0 9.925781-4.59375 9.925781-10.292969v-5.621093c0-5.703126-4.425781-10.292969-9.925781-10.292969zm0 0" fill="#fff"/><path d="m19.832031 17.449219c0 .984375-.800781 1.785156-1.789062 1.785156-.984375 0-1.785157-.800781-1.785157-1.785156 0-.988281.800782-1.789063 1.785157-1.789063.988281 0 1.789062.800782 1.789062 1.789063zm0 0" fill="#0286c2"/></svg>