<svg height="48pt" viewBox="0 0 48 48" width="48pt" xmlns="http://www.w3.org/2000/svg" xmlns:xlink="http://www.w3.org/1999/xlink"><filter id="a" height="100%" width="100%" x="0%" y="0%"><feColorMatrix in="SourceGraphic" type="matrix" values="0 0 0 0 1 0 0 0 0 1 0 0 0 0 1 0 0 0 1 0"/></filter><mask id="b"><g filter="url(#a)"><path d="m0 0h48v48h-48z" fill-opacity=".976471"/></g></mask><radialGradient id="c" cx="-12.409483" cy="2.821966" gradientTransform="matrix(-1.458657 -1.397125 1.376643 -1.437273 11.423205 2.542154)" gradientUnits="userSpaceOnUse" r="14.101694"><stop offset="0" stop-color="#fff"/><stop offset="1" stop-color="#ffff6f" stop-opacity="0"/></radialGradient><clipPath id="d"><path d="m0 0h48v48h-48z"/></clipPath><mask id="e"><g filter="url(#a)"><path d="m0 0h48v48h-48z" fill-opacity=".976471"/></g></mask><clipPath id="f"><path d="m0 0h48v48h-48z"/></clipPath><mask id="g"><g filter="url(#a)"><path d="m0 0h48v48h-48z" fill-opacity=".976471"/></g></mask><clipPath id="h"><path d="m0 0h48v48h-48z"/></clipPath><mask id="i"><g filter="url(#a)"><path d="m0 0h48v48h-48z" fill-opacity=".976471"/></g></mask><clipPath id="j"><path d="m0 0h48v48h-48z"/></clipPath><mask id="k"><g filter="url(#a)"><path d="m0 0h48v48h-48z" fill-opacity=".976471"/></g></mask><clipPath id="l"><path d="m0 0h48v48h-48z"/></clipPath><clipPath id="m"><path d="m0 0h48v48h-48z"/></clipPath><g fill-rule="evenodd"><path d="m11.210938 2.847656h25.578124c4.621094 0 8.363282 3.742188 8.363282 8.363282v25.578124c0 4.621094-3.742188 8.363282-8.363282 8.363282h-25.578124c-4.621094 0-8.363282-3.742188-8.363282-8.363282v-25.578124c0-4.621094 3.742188-8.363282 8.363282-8.363282zm0 0" fill="#abd121"/><path d="m42.863281 42.449219h-37.746093c1.527343 1.632812 3.660156 2.683593 6.082031 2.683593h25.582031c2.425781 0 4.558594-1.050781 6.082031-2.683593zm0 0" fill="#bcedf7"/><path d="m45.058594 37.195312v-2.988281c-1.5625-1.667969-2.863282-3.265625-3.371094-3.398437-.515625-.136719-1.113281.070312-1.738281.453125-.621094.386719-1.269531.953125-1.886719 1.542969-1.230469 1.1875-2.335938 2.480468-2.863281 2.609374-.527344.128907-2.355469.007813-3.496094-.335937-1.140625-.347656-2.125-.792969-2.550781-.917969-.421875-.128906-1.621094-.605468-2.316406-.917968-.691407-.316407-1.300782-.609376-1.820313-.765626s-2.8125-.714843-4.476563-1.050781c-1.667968-.335937-3.230468-.617187-3.855468-.617187-.628906-.023438-2.636719.1875-3.847656.425781-1.214844.238281-2.257813.480469-2.832032.414063-.578125-.066407-2.425781-1.105469-3.664062-1.871094-.617188-.386719-1.226563-.71875-1.808594-.871094-.585938-.152344-1.144531-.121094-1.652344.222656-.007812.003906-.027344.042969-.039062.070313v7.574219c0 2.210937.886718 4.183593 2.277344 5.675781h37.746093c1.296875-1.394531 2.089844-3.222657 2.195313-5.253907zm0 0" fill="#97c607"/><path d="m11.199219 2.828125c-4.632813 0-8.359375 3.730469-8.359375 8.363281v18.007813c.011718-.027344.03125-.066407.039062-.070313.507813-.34375 1.066406-.375 1.652344-.222656.582031.152344 1.191406.484375 1.808594.871094 1.238281.765625 3.085937 1.804687 3.664062 1.871094.574219.066406 1.617188-.175782 2.832032-.414063 1.210937-.238281 3.21875-.449219 3.847656-.425781.625 0 2.1875.28125 3.855468.617187 1.664063.335938 3.957032.894531 4.476563 1.050781s1.128906.449219 1.820313.765626c.695312.3125 1.894531.789062 2.316406.917968.425781.125 1.410156.570313 2.550781.917969 1.140625.34375 2.96875.464844 3.496094.335937.527343-.128906 1.632812-1.421874 2.863281-2.609374.617188-.589844 1.265625-1.15625 1.886719-1.542969.625-.382813 1.222656-.589844 1.738281-.453125.507812.132812 1.808594 1.730468 3.371094 3.398437v2.988281c.007812-.148437.085937-.273437.085937-.421874v-25.582032c0-4.632812-3.730469-8.363281-8.363281-8.363281zm0 0" fill="#bcedf7"/></g><g clip-path="url(#d)" mask="url(#b)"><path d="m11.304688 2.828125h25.578124c4.617188 0 8.363282 3.746094 8.363282 8.363281v25.582032c0 4.617187-3.746094 8.359374-8.363282 8.359374h-25.578124c-4.621094 0-8.363282-3.742187-8.363282-8.359374v-25.582032c0-4.617187 3.742188-8.363281 8.363282-8.363281zm0 0" fill="url(#c)" fill-rule="evenodd"/></g><g clip-path="url(#f)" mask="url(#e)"><path d="m45.058594 37.992188-1.089844-2.777344s-3.464844 3.601562-3.464844 3.25c0-.351563-.746094-3.25-.746094-3.25l-2.851562 3.515625-1.359375-2.109375-3.460937 2.285156-1.289063-2.902344-2.238281 3.34375-3.058594-3.34375-2.167969 3.519532-1.769531-3.695313-1.761719 3.605469-2.714843-3.691406-1.222657 4.132812-1.96875-3.78125-1.425781 2.371094-3.328125-3.074219s-.882813 3.078125-1.019531 4.21875c-.066406.574219-.710938-.835937-1.339844-2.386719-.628906-1.550781-1.238281-3.238281-1.238281-3.238281s-1.25 2.929687-2.109375 4.957031c.96875 3.546875 4.066406 6.195313 7.929687 6.195313h25.578125c4.199219 0 7.507813-3.121094 8.117188-7.144531zm0 0" fill="#96c503" fill-rule="evenodd"/></g><g clip-path="url(#h)" mask="url(#g)"><path d="m45.125 35.316406c-.949219 1.519532-1.714844 3.332032-2.324219 5.402344.164063-3.316406.535157-6.539062.890625-9.773438-.734375 2.800782-1.417968 5.589844-2.011718 8.367188-.160157-.816406-.355469-1.554688-.546876-2.308594.171876-1.675781.425782-3.082031.824219-3.992187-.296875.503906-.5625 1.066406-.8125 1.652343.097657-.855468.171875-1.71875.265625-2.578124-.265625 1.023437-.519531 2.042968-.773437 3.058593-.257813-.8125-.539063-1.585937-.867188-2.253906.28125.777344.464844 1.957031.601563 3.300781-.257813 1.066406-.492188 2.128906-.730469 3.191406-.214844-.835937-.460937-1.671874-.699219-2.507812.191406-2.140625.425782-4.265625.65625-6.386719-.402344 1.535157-.785156 3.070313-1.152344 4.597657-.390624-1.335938-.796874-2.675782-1.21875-4.019532.148438 1.144532.304688 2.285156.453126 3.425782-.066407-.148438-.125-.316407-.195313-.460938.113281.3125.191406.773438.28125 1.179688.078125.632812.148437 1.265624.21875 1.898437-.027344.132813-.058594.261719-.089844.390625-.261719-.65625-.535156-1.285156-.847656-1.84375.28125.679688.480469 1.640625.644531 2.742188-.035156.148437-.074218.300781-.105468.453124-.488282-2.46875-1.074219-4.714843-1.910157-6.417968.628907 1.722656.851563 5.058594.878907 9.1875-.273438-1.003906-.5625-1.992188-.902344-2.867188-.195313-.660156-.371094-1.320312-.574219-1.984375.238281-.632812.464844-1.261719.761719-1.902343-.289063.488281-.601563.953124-.90625 1.421874-.167969-.539062-.304688-1.070312-.472656-1.605468.085937.648437.171874 1.300781.257812 1.949218-.226562.347657-.449219.695313-.671875 1.050782-.324219-.90625-.679687-1.75-1.089844-2.488282.316407.765626.542969 1.851563.707031 3.152344-.148437.253906-.300781.511719-.4375.777344-.359374.324219-.675781.746094-.976562 1.199219-.210938-.1875-.429688-.363281-.664062-.519531-.039063.019531-.070313.058593-.105469.078124-.035157-.039062-.0625-.082031-.09375-.121093.203125-1.425781.445312-2.753907.789062-3.800781-.507812.882812-.949219 1.917968-1.339843 3.0625-.3125-.589844-.644532-1.160157-1-1.695313.019531-.070313.035156-.160156.058593-.230469-.035156.058594-.0625.125-.09375.183594-.609375-.914062-1.269531-1.773438-2.027343-2.503906.125.210937.175781.535156.285156.765625.007812-.011719.015625-.027344.023437-.042969-.003906.019531-.007812.042969-.015625.0625.429688.902344.824219 1.855469 1.113282 2.964844-.023438.050781-.046876.105468-.070313.160156-.125.117188-.242187.253906-.363281.390625-.296875-.878906-.609375-1.71875-.910156-2.585937.078124-.304688.144531-.648438.230468-.929688 0-.007812-.003906-.011719-.007812-.019531-.113282.207031-.214844.4375-.324219.652343-.019531-.046874-.035156-.09375-.054687-.144531.015624.058594.023437.117188.039062.175781-.230469.464844-.449219.960938-.652344 1.484376-.023437-1.445313-.015625-2.761719.242188-3.628907-.636719 1.3125-.84375 3.445313-1.128906 5.328125-.261719-.734375-.53125-1.457031-.785157-2.21875.238281.914063.4375 1.820313.609375 2.710938-.25.347656-.476562.738281-.675781 1.167968-.160156-.734374-.339844-1.425781-.542969-2.0625-.027344-1.511718-.027344-2.890624.242188-3.789062-.320313.660156-.535156 1.527344-.699219 2.464844-.25-.691406-.503906-1.375-.738281-2.09375.246094.960937.449218 1.910156.625 2.84375-.113282.742187-.222656 1.484375-.332032 2.203125-.242187-.507813-.53125-1.003907-.882812-1.621094-.03125-2.203125-.144531-4.1875.214844-5.398437-.4375.898437-.65625 2.191406-.851563 3.515624-.132812-.707031-.28125-1.390624-.484375-1.996093.050782-.117188.09375-.246094.152344-.359375-.070312.078125-.128906.179687-.195312.261718-.121094-.34375-.257813-.675781-.421876-.957031.125.34375.199219.746094.246094 1.195313-.257812.332031-.523437.664062-.761718 1.03125.027343-.085938.039062-.171875.066406-.257813-.074219.1875-.152344.367188-.230469.550781-.511719.835938-.972656 1.753907-1.382813 2.742188-.148437-.246094-.320312-.570312-.503906-.898438.253906-.933593.539063-1.792968.898438-2.53125-.46875.546876-.886719 1.167969-1.289063 1.816407-.015625-.03125-.027343-.042969-.046875-.082031.015625.042968.023438.066406.035156.105468-.304687.5-.601562 1.015625-.867187 1.570313-.226563-.550781-.488281-1.050781-.746094-1.554688.296875-1.285156.632813-2.492187 1.105469-3.453125-.609375.707032-1.132812 1.53125-1.625 2.40625-.015625-.027344-.03125-.058594-.046875-.089844.074219-.648437.148437-1.300781.21875-1.949218-.140625.535156-.261719 1.066406-.398437 1.605468-.253907-.46875-.511719-.933593-.75-1.421874.210937.554687.378906 1.101562.546874 1.644531-.113281-.179688-.214843-.382813-.332031-.550781.128907.332031.222657.761718.335938 1.136718-.066407.261719-.117188.519532-.183594.777344-.273437.578125-.53125 1.175781-.769531 1.800781-.304688-.652343-.617188-1.292969-.949219-1.902343.074219-.648438.144531-1.304688.21875-1.953126-.140625.535157-.257813 1.070313-.398437 1.605469-.074219-.140625-.148438-.285156-.222657-.429687.183594-1.984375.394531-3.957032.609375-5.929688-.539062 2.050782-1.039062 4.09375-1.507812 6.128906-.171875-.335937-.328125-.695312-.507813-1.023437.074219-.648437.144531-1.300781.214844-1.953125-.140625.539062-.257813 1.074219-.394531 1.609375-.132813-.242187-.261719-.492187-.390625-.734375.105469-.960938.195312-1.925781.300781-2.886719-.207031.78125-.394531 1.558594-.589844 2.335938-.023437-.046875-.050781-.089844-.074218-.140625.023437.0625.039062.128906.0625.1875-.058594.226562-.117188.453125-.171876.679687-.261718-.816406-.542968-1.589843-.867187-2.257812.28125.777343.460937 1.964843.601563 3.3125-.34375 1.417969-.671876 2.832031-.976563 4.242187-.164063-.839844-.367187-1.605468-.5625-2.382812.054687-.714844.136719-1.414063.207031-2.125.050782-.125.085938-.292969.144532-.402344-.046876.0625-.082032.144531-.125.210938.171874-1.757813.347656-3.511719.539062-5.261719-.476562 1.832031-.925781 3.65625-1.351562 5.476562-.234376-.691406-.480469-1.355469-.761719-1.933593.246093.6875.421875 1.695312.558593 2.828124-.015624.070313-.03125.136719-.046874.203126-.300782-.808594-.625-1.570313-.996094-2.242188.335937.8125.550781 2.042969.71875 3.449219-.011719.0625-.027344.121093-.039063.179687-.042969.101563-.074219.207032-.113281.308594-.445312-2.226562-.980469-4.253906-1.699219-5.871094.011719-.035156.023438-.078125.035157-.113281-.015626.03125-.027344.066406-.042969.09375-.0625-.140625-.117188-.296875-.183594-.433594.050781.144531.078125.378907.125.542969-.675781 1.199219-1.191406 2.695312-1.648437 4.296875-.363282-1.074219-.769532-2.0625-1.246094-2.917969.410156.992188.664062 2.53125.828125 4.382813-.039063.160156-.089844.292969-.128907.457031-.378906-1.46875-.847656-2.949219-1.28125-4.425781-.664062 7.035156 3.792969 10.492187 9.328126 10.242187 3.300781.089844 12.65625.007813 16.5.007813.070312-.789063.125-1.621094.207031-2.371094.085937.796875.128906 1.582031.191406 2.371094h4.421875l.316406-.246094c.039063.082031.074219.164063.117188.246094h2.859375c3.304687 0 6.183593-1.769531 7.546875-4.738281.03125-.414063-.042969-.996094 0-1.375.164062-1.449219.46875-2.492188.816406-3.398438zm-33.546875.09375c.09375.296875.207031.601563.296875.898438-.078125.304687-.140625.609375-.21875.914062-.0625-.257812-.121094-.535156-.1875-.785156.035156-.34375.070312-.6875.109375-1.027344zm10.097656.210938c.101563 1.445312-.019531 3.308594.011719 5.304687-.058594.210938-.121094.417969-.191406.601563-.246094-.480469-.5625-.976563-.933594-1.652344.28125-1.589844.636719-3.035156 1.113281-4.253906zm6.132813 1c .234375.964844.429687 1.921875.589844 2.867187-.394532.539063-.757813 1.164063-1.128907 1.773438.414063-.351563.820313-.789063 1.230469-1.152344.007812.042969.015625.089844.023438.132813-.417969 1.234374-.773438 2.601562-1.078126 4.085937-.101562-.789063-.242187-1.488281-.402343-2.144531.027343-.507813.039062-1.007813.042969-1.503906.179687-1.523438.425781-2.863282.722656-4.0625zm-15.71875.335937c.132812.457031.234375.90625.34375 1.355469-.082032.371094-.175782.746094-.257813 1.121094-.066406-.339844-.152343-.636719-.222656-.964844.050781-.503906.082031-1.011719.136719-1.511719zm22.734375.460938c.105469.78125.199219 1.566406.292969 2.355469-.199219-.21875-.402344-.429688-.617188-.621094-.035156-.113282-.066406-.234375-.101562-.347656.136718-.460938.265624-.921876.425781-1.386719zm-21.292969.03125c.046875.152343.105469.304687.152344.457031-.066406.257812-.117188.511719-.183594.765625-.023438.015625-.042969.035156-.070312.046875 0-.007812-.007813-.019531-.011719-.027344.035156-.417968.078125-.828125.113281-1.242187zm.367188 1.105469c.039062.136718.066406.265624.105468.402343-.046875-.027343-.089844-.054687-.136718-.078125.011718-.109375.019531-.214844.03125-.324218zm4.875.238281c.113281.363281.261718.765625.339843 1.089843-.261719.679688-.503906 1.382813-.730469 2.121094-.042968-.222656-.109374-.410156-.160156-.621094.15625-.917968.34375-1.773437.550782-2.589843zm-2.316407.691406c.105469.574219.21875 1.128906.300781 1.746094-.234374.617187-.457031 1.25-.660156 1.914062-.027344-.152343-.074218-.28125-.105468-.425781.054687-.4375.121093-.847656.179687-1.277344.117187.09375.234375.199219.355469.285156-.109375-.152343-.226563-.289062-.332032-.4375.085938-.605468.160157-1.226562.261719-1.804687zm12.980469.019531h.003906c0 .003906 0 .007813.003906.011719.152344.683594.289063 1.398437.414063 2.128906-.109375.167969-.214844.335938-.320313.507813-.109374-.59375-.230468-1.167969-.375-1.6875.046876-.289063.082032-.609375.132813-.886719.046875-.019531.09375-.058594.140625-.074219zm-6.433594.1875c.246094.847656.421875 1.632813.507813 2.332032-.210938-.445313-.382813-.972657-.519531-1.566407.003906-.253906.011718-.515625.011718-.765625zm-9.082031.273438c.128906.03125.25.105468.375.160156.066406.28125.128906.5625.1875.839844-.0625.199218-.132813.378906-.195313.578125-.105468-.558594-.242187-1.074219-.394531-1.5625.011719-.003907.015625-.011719.027344-.015625zm6.59375.214844c.257813.777343.460937 1.5.578125 2.128906-.160156.203125-.339844.359375-.550781.4375-.085938-.449219-.164063-.714844-.246094-1.042969.070313-.511719.136719-1.03125.21875-1.523437zm12.097656.367187c-.011719.035156-.023437.070313-.035156.101563-.011719-.011719-.023437-.023438-.039063-.039063.023438-.023437.050782-.039063.074219-.0625zm1.277344.242187c.027344.492188.042969 1.03125.0625 1.5625-.097656-.140624-.203125-.269531-.304687-.40625.070312-.382812.15625-.769531.242187-1.15625zm-3.960937 1.261719c.011718.050781.015624.097657.023437.148438-.078125.328125-.160156.644531-.230469.988281-.035156-.292969-.097656-.527344-.140625-.796875.117188-.117187.230469-.222656.351563-.339844zm5.367187.195313c.03125.058594.066406.105468.097656.160156.015625.191406.035157.375.050781.5625-.050781-.238281-.097656-.484375-.148437-.722656zm-10.503906.359375c0 .015625 0 .027343.003906.042969-.003906.003906-.003906.011718-.003906.019531 0-.023438 0-.042969 0-.0625zm0 0" fill="#addb1f" fill-rule="evenodd"/></g><g clip-path="url(#j)" mask="url(#i)"><path d="m5.285156 31.523438c.425782 3.929687.773438 7.894531.828125 11.996093.683594.46875 1.390625.855469 2.203125 1.109375-.019531-2.40625 0-4.664062.121094-6.507812.132812-2.007813.367188-3.609375.738281-4.644532-.828125 1.707032-1.410156 3.960938-1.890625 6.4375-.589844-2.785156-1.273437-5.582031-2-8.390624zm29.269532.121093c.472656 4.421875.996093 8.820313.9375 13.492188h1.375c.25 0 .496093-.015625.746093-.035157-.023437-2.539062-.03125-4.980468.097657-6.902343.132812-1.992188.363281-3.574219.734374-4.601563-.828124 1.707032-1.410156 3.957032-1.894531 6.433594-.589843-2.78125-1.273437-5.578125-1.996093-8.386719zm-13.015626 3.023438c.3125 1.058593.273438 2.675781.242188 4.539062-.03125 1.835938-.042969 3.914063.289062 5.929688h3.042969c.039063-.984375.074219-1.894531.226563-2.890625.160156-1.027344.4375-2.148438.960937-3.539063-.546875 1.125-.929687 1.636719-1.25 2.253907-.316406.617187-.574219 1.335937-.863281 2.859374-.457031-.179687-.769531-.675781-1.007812-1.363281-.234376-.691406-.394532-1.566406-.53125-2.503906-.277344-1.875-.484376-3.984375-1.109376-5.285156zm10.738282.601562c.070312.652344.140625 1.308594.214844 1.960938-.847657 1.570312-1.679688 3.15625-2.097657 5.382812-.441406-1.453125-.953125-2.800781-1.550781-4.019531s-1.28125-2.304688-2.070312-3.230469c.582031 1.203125 1 2.714844 1.324218 4.40625.320313 1.660157.546875 3.496094.753906 5.367188h5.71875c-.519531-2.578125-1.128906-5.171875-1.78125-7.773438.191407-.632812.378907-1.265625.625-1.910156-.238281.488281-.492187.957031-.746093 1.425781-.136719-.535156-.253907-1.070312-.390625-1.609375zm8.914062.253907c-.671875 1.226562-1.214844 2.707031-1.675781 4.355468-.429687 1.527344-.757813 3.371094-1.082031 5.105469.59375-.113281 1.210937-.277344 1.753906-.503906.027344-1.851563.078125-3.621094.21875-5.058594.164062-1.65625.414062-2.988281.785156-3.898437zm-29.316406.722656c-.628906 1.144531-1.140625 2.519531-1.578125 4.042968-.402344 1.398438-.789063 3.019532-1.097656 4.601563.542969.105469 1.105469.246094 1.679687.246094h1.585938c.421875-.863281.820312-1.769531 1.273437-2.570313.464844-.828125.980469-1.546875 1.628907-1.996094.753906.230469 1.433593 1.144532 2.144531 1.761719-.734375-1.238281-1.441407-2.546875-2.480469-3.066406-.890625.605469-1.605469 1.46875-2.269531 2.429687-.660157.957032-1.265625 2.003907-1.921875 2.964844.074218-3.777344.367187-6.769531 1.035156-8.414062zm4.835938.304687c.691406 2.136719 1.035156 5.257813 1.300781 8.585938h1.832031c.21875-2.753907.578125-5.558594 1.324219-8.492188-.734375 2.246094-1.640625 4.105469-2.027344 7.15625-.59375-2.90625-1.371094-5.394531-2.429687-7.25zm0 0" fill="#73a00c" fill-rule="evenodd"/></g><g clip-path="url(#l)" mask="url(#k)"><path d="m10.941406 34.335938c-.808594 2.253906-1.5625 4.5-2.21875 6.738281-.539062-1.988281-1.191406-3.800781-2.109375-5.167969.410157.824219.667969 2.09375.816407 3.691406.121093 1.300782.0625 3.046875.058593 4.710938.726563.359375 1.601563.585937 2.429688.722656-.027344-3.632812.507812-7.242188 1.023437-10.695312zm28.242188 1.472656c.414062.832031.671875 2.113281.820312 3.726562.125 1.390625.195313 3.144532.183594 4.945313.628906-.273438 1.1875-.632813 1.722656-1.042969-.246094-1.121094-.574218-2.390625-.882812-3.414062-.484375-1.613282-1.074219-3.066407-1.84375-4.214844zm-13.757813.953125c-.695312 1.046875-.925781 2.742187-1.230469 4.246093-.15625.753907-.332031 1.457032-.59375 2.011719-.261718.550781-.613281.953125-1.125 1.097657-.320312-1.226563-.601562-1.800782-.957031-2.292969-.355469-.496094-.785156-.910157-1.394531-1.8125.597656 1.140625.90625 2.019531 1.078125 2.828125.164063.777344.195313 1.488281.238281 2.296875h3.398438c.359375-1.613281.351562-3.269531.316406-4.734375-.03125-1.492188-.074219-2.789063.269531-3.640625zm-11.949219.488281c-.15625.433594-.289062.863281-.4375 1.292969-.28125-.375-.5625-.75-.828124-1.144531.273437.519531.480468 1.023437.699218 1.53125-.71875 2.058593-1.445312 4.148437-2.015625 6.1875.101563.003906.246094.019531.351563.019531h6.046875c.234375-1.492188.480469-2.957031.835937-4.285157.359375-1.351562.828125-2.5625 1.472656-3.527343-.878906.742187-1.640624 1.617187-2.304687 2.59375-.664063.976562-1.234375 2.0625-1.726563 3.230469-.464843-1.789063-1.390624-3.066407-2.332031-4.324219.082031-.527344.160157-1.050781.238281-1.574219zm-9.917968.203125c.410156.730469.691406 1.796875.871094 3.121094.035156.246093.042968 1.121093.070312 1.382812.46875.679688.96875 1.046875 1.613281 1.5625-.226562-.769531-.421875-1.871093-.691406-2.574219-.511719-1.320312-1.117187-2.507812-1.863281-3.492187zm32.621094.582031c.371093.660156.636718 1.585938.824218 2.734375.183594 1.144531.285156 2.503907.328125 4.019531-.734375-.773437-1.40625-1.613281-2.140625-2.378906-.734375-.769531-1.535156-1.464844-2.523437-1.949218-1.160157.414062-1.945313 1.464843-2.765625 2.460937.792968-.496094 1.554687-1.230469 2.390625-1.417969.71875.359375 1.289062.933594 1.804687 1.597656.496094.632813.933594 1.347657 1.394532 2.035157h1.335937c.777344 0 1.585937-.089844 2.300781-.289063-.328125-1.191406-.773437-2.519531-1.195312-3.574218-.488282-1.222657-1.054688-2.320313-1.753906-3.238282zm-5.378907.242188c-1.179687 1.492187-2.046875 3.488281-2.707031 5.820312-.429688-2.449218-1.4375-3.941406-2.257812-5.746094.828124 2.34375 1.230468 4.585938 1.472656 6.785157h2.042968c.300782-2.65625.679688-5.152344 1.449219-6.859375zm0 0" fill="#4d8304" fill-rule="evenodd"/></g><path d="m11.171875 36.464844c.6875 2.15625 1.027344 5.304687 1.292969 8.671875h1.777344c.210937-2.78125.574218-5.617188 1.316406-8.582031-.722656 2.246093-1.613282 4.105468-1.996094 7.15625-.582031-2.90625-1.347656-5.390626-2.390625-7.246094zm0 0" fill="#73a00c"/><g clip-path="url(#m)"><path d="m32.964844 9.933594c3.292968 0 5.964844 2.671875 5.964844 5.964844 0 3.292968-2.671876 5.964843-5.964844 5.964843-3.292969 0-5.964844-2.671875-5.964844-5.964843 0-3.292969 2.671875-5.964844 5.964844-5.964844zm0 0" fill="#fffee4" fill-rule="evenodd"/></g></svg>