<svg height="48pt" viewBox="0 0 48 48" width="48pt" xmlns="http://www.w3.org/2000/svg"><path d="m11.210938 2.847656h25.578124c4.621094 0 8.363282 3.742188 8.363282 8.363282v25.578124c0 4.621094-3.742188 8.363282-8.363282 8.363282h-25.578124c-4.621094 0-8.363282-3.742188-8.363282-8.363282v-25.578124c0-4.621094 3.742188-8.363282 8.363282-8.363282zm0 0" fill="#ff6464" fill-rule="evenodd"/><path d="m12.75 9.75v18h4.5v-12c2.984375 0 5.519531.152344 6.863281.835938 1.347657.679687 2.144531 1.582031 2.136719 5.160156l2.25.003906h-2.25v7.5h-4.5l6.75 9 6.75-9h-4.5v-7.496094s0 0 0-.003906c.007812-4.546875-1.816406-7.769531-4.601562-9.179688-2.785157-1.410156-5.886719-1.320312-8.898438-1.320312v-1.5zm0 0" fill="#fff"/></svg>