<svg height="48pt" viewBox="0 0 48 48" width="48pt" xmlns="http://www.w3.org/2000/svg"><path d="m11.210938 2.847656h25.578124c4.621094 0 8.363282 3.742188 8.363282 8.363282v25.578124c0 4.621094-3.742188 8.363282-8.363282 8.363282h-25.578124c-4.621094 0-8.363282-3.742188-8.363282-8.363282v-25.578124c0-4.621094 3.742188-8.363282 8.363282-8.363282zm0 0" fill="#4f4f4f" fill-rule="evenodd"/><path d="m27 7.5-7.5 9h-4.5v18h6v6l7.5-9h4.5v-18h-6zm0 0" fill="#ccc"/><path d="m16.5 18v10.5h4.5v-4.5l6 6h4.5v-10.5h-4.5v4.5l-6-6zm0 0" fill="#333"/></svg>