<svg height="48pt" viewBox="0 0 48 48" width="48pt" xmlns="http://www.w3.org/2000/svg"><path d="m11.210938 2.847656h25.578124c4.621094 0 8.363282 3.742188 8.363282 8.363282v25.578124c0 4.621094-3.742188 8.363282-8.363282 8.363282h-25.578124c-4.621094 0-8.363282-3.742188-8.363282-8.363282v-25.578124c0-4.621094 3.742188-8.363282 8.363282-8.363282zm0 0" fill="#62aeff" fill-rule="evenodd"/><path d="m25.964844 29.117188 9.167968 9.167968c2.121094 2.210938 5.390626-1.058594 3.179688-3.179687l-9.308594-9.308594c-3.554687 1.179687-2.054687 1.179687-3.039062 3.320313zm0 0" fill="#a27fbd"/><path d="m20.949219 8.976562c-6.625 0-12 5.375-12 12 0 6.628907 5.375 12 12 12 6.628906 0 12-5.371093 12-12 0-6.625-5.371094-12-12-12zm0 0" fill="#fff"/><path d="m14.949219 15.621094v10.714844c0 2.140624 1.5 2.140624 1.5 2.140624s1.5 0 1.5-2.140624v-2.359376h6v2.359376c0 2.140624 1.5 2.140624 1.5 2.140624s1.5 0 1.5-2.140624v-10.714844s0-2.144532-2-2.144532h-8c-2 0-2 2.144532-2 2.144532zm3 .855468h6v4.5h-6zm0 0" fill="#62aeff"/></svg>