<svg height="48pt" viewBox="0 0 48 48" width="48pt" xmlns="http://www.w3.org/2000/svg"><path d="m11.210938 2.847656h25.578124c4.621094 0 8.363282 3.742188 8.363282 8.363282v25.578124c0 4.621094-3.742188 8.363282-8.363282 8.363282h-25.578124c-4.621094 0-8.363282-3.742188-8.363282-8.363282v-25.578124c0-4.621094 3.742188-8.363282 8.363282-8.363282zm0 0" fill="#4bae4f" fill-rule="evenodd"/><path d="m14.632812 37.519531c-.523437-.164062-.945312-.746093-1.058593-1.460937-.074219-.460938-.074219-12.660156 0-13.15625.089843-.636719.429687-1.148438.914062-1.394532.21875-.105468.355469-.136718.65625-.136718h.382813l.027344-1.714844c.027343-1.722656.058593-2.054688.277343-2.914062.71875-2.863282 2.976563-5.230469 5.753907-6.035157.863281-.25 1.355468-.3125 2.414062-.3125s1.550781.0625 2.414062.3125c2.777344.804688 5.035157 3.171875 5.753907 6.035157.21875.859374.25 1.191406.277343 2.914062l.027344 1.714844h.382813c.300781 0 .4375.03125.65625.136718.484375.246094.824219.757813.914062 1.394532.074219.496094.074219 12.695312 0 13.15625-.113281.71875-.542969 1.304687-1.082031 1.464844-.386719.113281-18.335938.109374-18.710938-.003907zm10.679688-3.621093c.082031-.058594.203125-.214844.269531-.34375.117188-.230469.121094-.265626.121094-2.167969v-1.933594l.183594-.242187c.371093-.480469.539062-1.253907.402343-1.832032-.230468-.964844-.9375-1.628906-1.890624-1.765625-1.308594-.191406-2.390626.523438-2.6875 1.765625-.136719.578125.03125 1.351563.402343 1.832032l.183594.242187v1.921875c0 2.023438.011719 2.140625.253906 2.414062.199219.222657.355469.246094 1.511719.234376 1.015625-.011719 1.113281-.023438 1.25-.125zm3.621094-14.1875c-.015625-1.5-.03125-1.703126-.132813-2.078126-.492187-1.769531-1.851562-3.132812-3.605469-3.609374-.609374-.164063-1.78125-.164063-2.390624 0-1.753907.476562-3.113282 1.839843-3.605469 3.609374-.101563.375-.117188.578126-.132813 2.078126l-.023437 1.660156h9.914062zm0 0" fill="#fff"/></svg>