<svg height="48pt" viewBox="0 0 48 48" width="48pt" xmlns="http://www.w3.org/2000/svg" xmlns:xlink="http://www.w3.org/1999/xlink"><filter id="a" height="100%" width="100%" x="0%" y="0%"><feColorMatrix in="SourceGraphic" type="matrix" values="0 0 0 0 1 0 0 0 0 1 0 0 0 0 1 0 0 0 1 0"/></filter><mask id="b"><g filter="url(#a)"><path d="m0 0h48v48h-48z" fill-opacity=".501961"/></g></mask><clipPath id="c"><path d="m0 0h48v48h-48z"/></clipPath><path d="m11.210938 2.847656h25.578124c4.621094 0 8.363282 3.742188 8.363282 8.363282v25.578124c0 4.621094-3.742188 8.363282-8.363282 8.363282h-25.578124c-4.621094 0-8.363282-3.742188-8.363282-8.363282v-25.578124c0-4.621094 3.742188-8.363282 8.363282-8.363282zm0 0" fill="#4f4f4f" fill-rule="evenodd"/><g clip-path="url(#c)" mask="url(#b)"><path d="m22.5 15v18h-13.5v1.5h15v-9h15v-1.5h-15v-9zm0 0" fill="#fff"/></g><path d="m23.25 12c-1.242188 0-2.25 1.007812-2.25 2.25s1.007812 2.25 2.25 2.25 2.25-1.007812 2.25-2.25-1.007812-2.25-2.25-2.25zm0 10.5c-1.242188 0-2.25 1.007812-2.25 2.25s1.007812 2.25 2.25 2.25 2.25-1.007812 2.25-2.25-1.007812-2.25-2.25-2.25zm15 0c-1.242188 0-2.25 1.007812-2.25 2.25s1.007812 2.25 2.25 2.25 2.25-1.007812 2.25-2.25-1.007812-2.25-2.25-2.25zm-28.5 9c-1.242188 0-2.25 1.007812-2.25 2.25s1.007812 2.25 2.25 2.25 2.25-1.007812 2.25-2.25-1.007812-2.25-2.25-2.25zm13.5 0c-1.242188 0-2.25 1.007812-2.25 2.25s1.007812 2.25 2.25 2.25 2.25-1.007812 2.25-2.25-1.007812-2.25-2.25-2.25zm0 0" fill="#fff"/></svg>