<svg height="48pt" viewBox="0 0 48 48" width="48pt" xmlns="http://www.w3.org/2000/svg"><path d="m11.210938 2.847656h25.578124c4.621094 0 8.363282 3.742188 8.363282 8.363282v25.578124c0 4.621094-3.742188 8.363282-8.363282 8.363282h-25.578124c-4.621094 0-8.363282-3.742188-8.363282-8.363282v-25.578124c0-4.621094 3.742188-8.363282 8.363282-8.363282zm0 0" fill="#ea4141" fill-rule="evenodd"/><g fill="#fff"><path d="m22.5 27.75c-3.148438 4.199219-2.96875 7.535156-3.75 12-1.050781-4.734375-.601562-7.800781-3.75-12l3.75.75zm0 0"/><path d="m33 27.75c-3.148438 4.199219-2.96875 7.535156-3.75 12-1.050781-4.734375-.601562-7.800781-3.75-12l3.75.75zm0 0"/><path d="m15 18.75c4.199219 3.148438 13.535156 2.96875 18 3.75-4.734375 1.050781-13.800781.601562-18 3.75l.75-3.75zm0 0"/><path d="m15 8.25c4.199219 3.148438 13.535156 2.96875 18 3.75-4.734375 1.050781-13.800781.601562-18 3.75l.75-3.75zm0 0"/><path d="m18 13.5c4.199219 3.148438 7.535156 2.96875 12 3.75-4.734375 1.050781-7.800781.601562-12 3.75l.75-3.75zm0 0"/></g></svg>