<svg height="48pt" viewBox="0 0 48 48" width="48pt" xmlns="http://www.w3.org/2000/svg"><path d="m11.210938 2.847656h25.578124c4.621094 0 8.363282 3.742188 8.363282 8.363282v25.578124c0 4.621094-3.742188 8.363282-8.363282 8.363282h-25.578124c-4.621094 0-8.363282-3.742188-8.363282-8.363282v-25.578124c0-4.621094 3.742188-8.363282 8.363282-8.363282zm0 0" fill="#c12d25" fill-rule="evenodd"/><path d="m42.15625 24c0-10.027344-8.128906-18.15625-18.15625-18.15625s-18.15625 8.128906-18.15625 18.15625 8.128906 18.15625 18.15625 18.15625 18.15625-8.128906 18.15625-18.15625zm0 0" fill="#c12d25"/><path d="m24 5.84375c-1.339844 0-2.636719.152344-3.890625.425781v8.335938l-5.898437-5.898438c-2.210938 1.414063-4.089844 3.292969-5.503907 5.503907l5.898438 5.898437h-8.335938c-.273437 1.253906-.425781 2.550781-.425781 3.890625s.152344 2.636719.425781 3.890625h8.335938l-5.898438 5.898437c1.414063 2.210938 3.292969 4.089844 5.503907 5.503907l5.898437-5.898438v8.335938c1.253906.273437 2.550781.425781 3.890625.425781s2.636719-.152344 3.890625-.425781v-8.335938l5.898437 5.898438c2.210938-1.414063 4.089844-3.292969 5.503907-5.503907l-5.898438-5.898437h8.335938c.273437-1.253906.425781-2.550781.425781-3.890625s-.152344-2.636719-.425781-3.890625h-8.335938l5.898438-5.898437c-1.414063-2.210938-3.292969-4.089844-5.503907-5.503907l-5.898437 5.898438v-8.335938c-1.253906-.273437-2.550781-.425781-3.890625-.425781zm0 0" fill="#fff"/><path d="m39.5625 24c0-8.597656-6.964844-15.5625-15.5625-15.5625s-15.5625 6.964844-15.5625 15.5625 6.964844 15.5625 15.5625 15.5625 15.5625-6.964844 15.5625-15.5625zm0 0" fill="#ffcb05"/><path d="m36.96875 24c0-7.164062-5.804688-12.96875-12.96875-12.96875s-12.96875 5.804688-12.96875 12.96875 5.804688 12.96875 12.96875 12.96875 12.96875-5.804688 12.96875-12.96875zm0 0" fill="#c12d25"/><g fill="#fffcf7"><path d="m17.515625 17.515625h2.59375v12.96875h-2.59375zm0 0"/><path d="m22.703125 17.515625v2.59375h-7.78125v-2.59375zm0 0"/><path d="m24 17.515625h2.59375v12.96875h-2.59375zm0 0"/><path d="m31.78125 22.703125v2.59375h-7.78125v-2.59375zm0 0"/><path d="m29.1875 17.515625h2.59375v12.96875h-2.59375zm0 0"/></g></svg>