<svg height="48pt" viewBox="0 0 48 48" width="48pt" xmlns="http://www.w3.org/2000/svg"><path d="m11.210938 2.847656h25.578124c4.621094 0 8.363282 3.742188 8.363282 8.363282v25.578124c0 4.621094-3.742188 8.363282-8.363282 8.363282h-25.578124c-4.621094 0-8.363282-3.742188-8.363282-8.363282v-25.578124c0-4.621094 3.742188-8.363282 8.363282-8.363282zm0 0" fill="#ff3939" fill-rule="evenodd"/><path d="m27.039062 25.117188c5.25-.175782 8.429688-.722657 8.707032-1.496094.058594-.160156.042968-.203125-.128906-.34375l-.191407-.164063.160157-.105469c.089843-.054687.308593-.230468.480468-.386718 1.160156-1.046875.894532-2.9375-.535156-3.835938-.191406-.121094-.335938-.253906-.316406-.292968.640625-1.441407.769531-1.972657.8125-3.316407.035156-1.160156-.039063-1.746093-.34375-2.65625-.851563-2.550781-3.164063-4.722656-5.921875-5.574219-1.042969-.320312-1.558594-.394531-2.71875-.394531-.96875.003907-1.15625.019531-1.75.175781-2.546875.660157-4.3125 2.144532-5.804688 4.875-.1875.34375-.351562.625-.363281.625s-.296875-.265624-.636719-.59375c-.945312-.910156-1.769531-1.316406-2.8125-1.375-.71875-.042968-1.183593.050782-1.859375.382813-.988281.484375-1.792968 1.496094-2.058594 2.589844-.285156 1.1875.082032 2.535156.980469 3.601562l.253907.296875-.1875.125c-.460938.3125-1.121094 1.042969-1.335938 1.484375-.433594.886719-.324219 1.960938.285156 2.769531.328125.433594.808594.773438 1.175782.832032.136718.019531.261718.058594.273437.078125.015625.023437-.003906.234375-.035156.46875-.078125.554687.015625.746093.488281 1.015625 1.605469.90625 7.277344 1.421875 13.386719 1.214844zm0 0" fill="#ffe9b5"/><path d="m26.695312 41.3125c2.195313-.285156 4.144532-.898438 5.570313-1.753906.5-.300782 1.417969-1.015625 1.503906-1.167969.035157-.066406.484375-3.457031.996094-7.53125.960937-7.671875.988281-7.972656.71875-8.023437-.058594-.007813-.140625.050781-.1875.132812-.335937.621094-2.28125 1.09375-5.796875 1.398438-1.59375.136718-6.863281.195312-8.863281.097656-4.207031-.210938-6.917969-.644532-7.910157-1.261719-.171874-.109375-.335937-.179687-.355468-.160156-.023438.023437.382812 3.464843.898437 7.652343l.945313 7.609376.242187.25c.316407.320312 1.28125.960937 1.964844 1.300781 1.582031.785156 3.84375 1.359375 6.136719 1.554687.945312.078125 3.171875.027344 4.136718-.097656zm0 0" fill="#fff"/><path d="m32.140625 16.4375c0 .964844-.78125 1.746094-1.742187 1.746094-.964844 0-1.746094-.78125-1.746094-1.746094 0-.960938.78125-1.742188 1.746094-1.742188.960937 0 1.742187.78125 1.742187 1.742188zm0 0" fill="#1b1b1b"/><path d="m27.488281 20.511719c0 1.28125-1.5625 2.324219-3.488281 2.324219s-3.488281-1.042969-3.488281-2.324219c3.582031.367187 6.976562 0 6.976562 0zm0 0" fill="#952525"/><path d="m19.347656 16.4375c0 .964844-.78125 1.746094-1.746094 1.746094-.960937 0-1.742187-.78125-1.742187-1.746094 0-.960938.78125-1.742188 1.742187-1.742188.964844 0 1.746094.78125 1.746094 1.742188zm0 0" fill="#1b1b1b"/><path d="m33.230469 25.25c-1.019531.292969-2.21875.53125-3.535157.710938l-.863281 13.773437c1.316407-.328125 2.496094-.773437 3.433594-1.332031.039063-.027344.101563-.078125.148437-.105469zm-18.457031.003906.808593 12.945313c.289063.179687.585938.367187.84375.496093.773438.382813 1.714844.714844 2.738281.976563l-.855468-13.710937c-1.320313-.179688-2.515625-.417969-3.535156-.707032zm6.898437 1.015625v13.867188c.296875.039062.589844.085937.886719.109375.859375.074218 2.703125.03125 3.769531-.070313v-13.90625c-.769531.039063-1.546875.058594-2.328125.058594s-1.558594-.023437-2.328125-.0625zm0 0" fill="#ff3939"/></svg>