<svg height="48pt" viewBox="0 0 48 48" width="48pt" xmlns="http://www.w3.org/2000/svg"><g fill-rule="evenodd"><path d="m11.210938 2.847656h25.578124c4.621094 0 8.363282 3.742188 8.363282 8.363282v25.578124c0 4.621094-3.742188 8.363282-8.363282 8.363282h-25.578124c-4.621094 0-8.363282-3.742188-8.363282-8.363282v-25.578124c0-4.621094 3.742188-8.363282 8.363282-8.363282zm0 0" fill="#05b4f2"/><path d="m23.796875 45.152344h12.996094c4.632812 0 8.359375-3.726563 8.359375-8.359375v-25.585938c0-4.632812-3.726563-8.359375-8.359375-8.359375h-12.996094zm0 0" fill="#05b4f2"/><path d="m23.796875 45.152344v-42.304688h-12.589844c-4.632812 0-8.359375 3.726563-8.359375 8.359375v25.585938c0 4.632812 3.726563 8.359375 8.359375 8.359375zm0 0" fill="#0599f2"/></g><path d="m13.304688 36.074219c0-.71875.082031-.953125.410156-1.171875.1875-.125.242187-.132813.859375-.148438l.660156-.015625v-.601562c0-.511719.015625-.628907.105469-.816407.144531-.300781.449218-.488281.855468-.53125l.308594-.035156.058594-.773437c.15625-2.140625.691406-3.765625 1.679688-5.101563.332031-.449218.972656-1.097656 1.789062-1.8125 1.085938-.949218 1.078125-1.199218-.09375-2.203125-.800781-.6875-1.546875-1.476562-1.886719-1.984375-.890625-1.339844-1.386719-3.003906-1.507812-5.058594l-.035157-.574218-.308593-.035156c-.410157-.042969-.710938-.230469-.859375-.53125-.089844-.1875-.105469-.308594-.105469-.824219v-.601563h-.601563c-.71875 0-.953124-.082031-1.171874-.410156-.125-.1875-.132813-.242188-.148438-.859375l-.015625-.660156h21.40625l-.015625.660156c-.015625.617187-.023438.671875-.148438.859375-.21875.328125-.453124.410156-1.171874.410156h-.601563v.601563c0 .515625-.015625.636719-.105469.824219-.148437.300781-.449218.488281-.859375.53125l-.308593.035156-.035157.550781c-.097656 1.585937-.398437 2.90625-.898437 3.984375-.554688 1.191406-1.203125 1.980469-2.546875 3.101562-.6875.574219-.890625.828126-.890625 1.105469 0 .316407.15625.515625.898437 1.160157.878907.761718 1.25 1.125 1.617188 1.59375 1.085937 1.371093 1.683593 3.164062 1.820312 5.4375l.03125.574218.3125.035156c.410157.042969.710938.230469.859375.53125.089844.1875.105469.304688.105469.820313v.597656l.660156.015625c.617188.015625.671875.023438.859375.148438.328125.21875.410156.453125.410156 1.171875v.601562h-21.390624zm6.855468-3.644531c.082032-.929688.34375-1.777344.769532-2.488282.316406-.527344.535156-.808594 1.257812-1.632812 1.390625-1.585938 1.574219-1.996094 1.464844-3.269532-.0625-.722656-.238282-1.378906-.519532-1.953124-.253906-.515626-.503906-.859376-1.226562-1.675782-.523438-.589844-.707031-.878906-.738281-1.148437l-.015625-.148438 2.890625-.011719 2.890625-.015624-.027344.203124c-.042969.347657-.261719.695313-.804688 1.308594-.710937.804688-.929687 1.09375-1.183593 1.574219-.546875 1.035156-.722657 2.433594-.410157 3.257813.207032.542968.421876.835937 1.621094 2.226562 1.128906 1.304688 1.558594 2.269531 1.710938 3.824219l.03125.285156h2.058594l-.019532-.335937c-.144531-2.285157-.625-3.691407-1.671875-4.925782-.15625-.183594-.628906-.636718-1.046875-1.003906-1.003906-.882812-1.183594-1.070312-1.386718-1.484375-.304688-.613281-.3125-1.398437-.019532-1.988281.195313-.398438.464844-.695313 1.28125-1.402344 1.175782-1.019531 1.578125-1.496094 2.039063-2.4375.476562-.976562.742187-2.179688.800781-3.644531l.011719-.308594h-11.847657l.019532.359375c.082031 1.460938.300781 2.488281.742187 3.46875.417969.933594.890625 1.53125 1.894531 2.410156.925782.808594 1.246094 1.15625 1.453126 1.574219.15625.324219.160156.351563.160156.953125s-.003906.632812-.160156.945312c-.226563.464844-.484376.757813-1.226563 1.40625-1.078125.9375-1.59375 1.546876-2.007813 2.359376-.410156.8125-.742187 2.097656-.8125 3.164062-.015624.230469-.039062.527344-.054687.65625l-.023437.234375h2.074218zm0 0" fill="#fff"/></svg>