<svg height="48pt" viewBox="0 0 48 48" width="48pt" xmlns="http://www.w3.org/2000/svg"><path d="m11.210938 2.847656h25.578124c4.621094 0 8.363282 3.742188 8.363282 8.363282v25.578124c0 4.621094-3.742188 8.363282-8.363282 8.363282h-25.578124c-4.621094 0-8.363282-3.742188-8.363282-8.363282v-25.578124c0-4.621094 3.742188-8.363282 8.363282-8.363282zm0 0" fill="#5b5b5b" fill-rule="evenodd"/><path d="m21.765625 12.835938h4.46875v10.046874h-4.46875zm0 0" fill="#b7b7b7"/><path d="m20.011719 21.765625h7.976562c.882813 0 1.59375.664063 1.59375 1.488281v14.886719c0 .824219-.710937 1.488281-1.59375 1.488281h-7.976562c-.882813 0-1.59375-.664062-1.59375-1.488281v-14.886719c0-.824218.710937-1.488281 1.59375-1.488281zm0 0" fill="#fff"/><path d="m24 8.371094 2.234375 1.117187-.855469 3.347657h-2.757812l-.855469-3.347657zm0 0" fill="#b7b7b7"/><path d="m21.765625 18.976562h4.46875v.558594h-4.46875zm0 0" fill="#5b5b5b"/><path d="m21.765625 16.742188h4.46875v.558593h-4.46875zm0 0" fill="#5b5b5b"/></svg>