<svg height="48pt" viewBox="0 0 48 48" width="48pt" xmlns="http://www.w3.org/2000/svg"><path d="m11.210938 2.847656h25.578124c4.621094 0 8.363282 3.742188 8.363282 8.363282v25.578124c0 4.621094-3.742188 8.363282-8.363282 8.363282h-25.578124c-4.621094 0-8.363282-3.742188-8.363282-8.363282v-25.578124c0-4.621094 3.742188-8.363282 8.363282-8.363282zm0 0" fill="#1b61a4" fill-rule="evenodd"/><path d="m24 7.128906c-2.65625 0-4.996094 1.101563-6.519531 2.839844-1.523438 1.734375-2.265625 4.015625-2.265625 6.363281v13.84375h4.5v-13.84375c0-1.394531.445312-2.59375 1.148437-3.394531.703125-.804688 1.636719-1.308594 3.136719-1.308594s2.429688.503906 3.136719 1.308594c.703125.800781 1.148437 2 1.148437 3.394531v13.84375h4.5v-13.84375c0-2.347656-.742187-4.628906-2.265625-6.363281-1.523437-1.738281-3.859375-2.839844-6.519531-2.839844zm0 0" fill="#e6e6e6"/><path d="m24 40.871094-11.019531-11.398438c-1.925781-1.992187-2.5625-4.957031-1.628907-7.601562.929688-2.644532 3.257813-4.492188 5.972657-4.738282 2.710937-.246093 5.316406 1.15625 6.675781 3.59375 1.359375-2.4375 3.964844-3.839843 6.675781-3.59375 2.714844.242188 5.042969 2.09375 5.972657 4.738282.929687 2.644531.296874 5.609375-1.628907 7.601562zm0 0" fill="#f9f9f9"/><path d="m26.375 26.609375c0-1.3125-1.0625-2.375-2.375-2.375s-2.375 1.0625-2.375 2.375 1.0625 2.378906 2.375 2.378906 2.375-1.066406 2.375-2.378906zm0 0" fill="#272727"/><path d="m23.921875 26.667969-2.296875 7.074219h4.75l-2.375-7.074219zm0 0" fill="#272727"/></svg>