<svg height="48pt" viewBox="0 0 48 48" width="48pt" xmlns="http://www.w3.org/2000/svg"><g fill-rule="evenodd"><path d="m11.210938 2.847656h25.578124c4.621094 0 8.363282 3.742188 8.363282 8.363282v25.578124c0 4.621094-3.742188 8.363282-8.363282 8.363282h-25.578124c-4.621094 0-8.363282-3.742188-8.363282-8.363282v-25.578124c0-4.621094 3.742188-8.363282 8.363282-8.363282zm0 0" fill="#196260"/><path d="m23.898438 2.847656-2.9375 3.675782 3.039062 3.796874v13.679688h13.679688l3.796874-3.039062 3.675782 2.9375v-12.6875c0-4.636719-3.730469-8.363282-8.363282-8.363282zm0 0" fill="#196260"/><path d="m2.847656 24.101562 3.675782 2.9375 3.796874-3.039062h13.679688v-13.679688l-3.039062-3.796874 2.9375-3.675782h-12.691407c-4.632812 0-8.359375 3.730469-8.359375 8.363282zm0 0" fill="#5d7dbd"/><path d="m45.152344 23.898438-3.675782-2.9375-3.796874 3.039062h-13.679688v13.679688l3.039062 3.796874-2.941406 3.675782h12.691406c4.636719 0 8.363282-3.730469 8.363282-8.363282zm0 0" fill="#3f96b9"/><path d="m24.097656 45.152344 2.941406-3.675782-3.039062-3.796874v-13.679688h-13.679688l-3.796874 3.039062-3.675782-2.941406v12.695313c0 4.632812 3.730469 8.359375 8.363282 8.359375zm0 0" fill="#97c33d"/></g><path d="m37.5 24c0 7.457031-6.042969 13.5-13.5 13.5s-13.5-6.042969-13.5-13.5 6.042969-13.5 13.5-13.5 13.5 6.042969 13.5 13.5zm0 0" fill="#f9f9f9"/></svg>