<svg height="48pt" viewBox="0 0 48 48" width="48pt" xmlns="http://www.w3.org/2000/svg"><g fill-rule="evenodd"><path d="m11.210938 2.847656h25.578124c4.621094 0 8.363282 3.742188 8.363282 8.363282v25.578124c0 4.621094-3.742188 8.363282-8.363282 8.363282h-25.578124c-4.621094 0-8.363282-3.742188-8.363282-8.363282v-25.578124c0-4.621094 3.742188-8.363282 8.363282-8.363282zm0 0" fill="#5a4080"/><path d="m26.84375 45.152344c.246094-1.078125.53125-2.066406.628906-3.484375.148438-2.128907.128906-4.226563-.058594-5.027344-.25-.984375-.898437-2.753906-.855468-2.824219.042968-.066406 1.097656.039063 1.996094.039063 1.0625 0 1.839843.039062 2.398437-.132813.476563-.144531 1.042969-.375 1.382813-.359375.75.039063 1.597656-.113281 2.320312-.441406.726562-.328125 1.324219-.832031 1.574219-1.496094.15625-.414062.808593-.949219.980469-1.1875.285156-.390625.433593-.710937.25-1.324219-.253907-.863281-1.296876-1.367187-2.40625-2.375-.835938-.765624-1.253907-.847656-1.296876-1.664062-.03125-.601562.128907-1.023438-.195312-1.328125-.371094-.347656-1.304688-.125-1.367188-.132813-.191406-.226562-.378906-.457031-.433593-.710937-.050781-.257813.035156-.535156.390625-.863281.539062-.492188.855468-.714844.855468-1.253906 0-.53125-.3125-.683594-.78125-1.09375-.308593-.273438-.640624-.492188-.738281-.492188-.097656 0-.597656-.394531-1.105469-.878906-.492187-.46875-.910156-.671875-1.304687-.753906-.390625-.082032-.753906-.050782-1.136719-.050782-.3125 0-.542968-.148437-.699218-.410156-.15625-.265625-.234376-.640625-.234376-1.089844.414063-1.492187 1.226563-2.820312 2.09375-3.859375.867188-1.042969 1.789063-1.792969 2.40625-2.140625-1.566406-.222656-2.921874.054688-4.144531.625-1.222656.570313-2.3125 1.433594-3.355469 2.375-.097656-1.09375 1.382813-3.785156 1.5-4.496094-1.109374.582032-1.984374 1.585938-2.703124 2.691407-.722657 1.109375-1.289063 2.316406-1.792969 3.304687-.640625-.863281-.5-2.675781-.75-3.75-.984375 1.292969-1.6875 3.054688-2.25 4.8125-.5625 1.757813-.976563 3.515625-1.371094 4.808594-.558594 1.839844-1.195313 3.324219-1.949219 4.511719-.75 1.1875-1.617187 2.082031-2.636718 2.738281-1.210938.78125-2.292969 1.179688-4.640626 1.714844-.363281.105468-2.695312.921875-4.566406 1.574218v6.066407c0 4.632812 3.730469 8.359375 8.363282 8.359375zm0 0" fill="#7abccb"/><path d="m11.210938 2.847656c-4.632813 0-8.363282 3.730469-8.363282 8.363282v19.515624c1.871094-.652343 4.203125-1.46875 4.566406-1.578124 2.347657-.53125 3.429688-.929688 4.640626-1.710938 1.019531-.65625 1.886718-1.550781 2.636718-2.738281.753906-1.1875 1.390625-2.671875 1.949219-4.511719.394531-1.292969.808594-3.050781 1.371094-4.808594.5625-1.757812 1.265625-3.519531 2.25-4.8125.25 1.074219.109375 2.886719.75 3.75.503906-.988281 1.070312-2.195312 1.792969-3.304687.71875-1.105469 1.59375-2.109375 2.703124-2.691407v-.003906.003906c-.117187.710938-1.597656 3.402344-1.5 4.496094 1.042969-.941406 2.132813-1.804687 3.355469-2.375 1.222657-.570312 2.578125-.847656 4.144531-.625-.617187.347656-1.539062 1.097656-2.40625 2.140625-.867187 1.039063-1.679687 2.367188-2.09375 3.859375 0 .449219.078126.824219.234376 1.089844.15625.261719.386718.410156.699218.410156.382813 0 .746094-.03125 1.136719.050782.394531.082031.8125.285156 1.304687.753906.507813.484375 1.007813.878906 1.105469.878906.097657 0 .429688.21875.738281.492188.46875.410156.78125.5625.78125 1.09375 0 .539062-.316406.761718-.855468 1.253906-.355469.328125-.441406.605468-.390625.863281.054687.253906.242187.484375.433593.710937.0625.007813.996094-.214843 1.367188.132813.324219.304687.164062.726563.195312 1.324219.042969.820312.460938.902344 1.296876 1.664062 1.109374 1.011719 2.152343 1.515625 2.40625 2.378906.183593.613282.035156.933594-.25 1.324219-.171876.238281-.824219.773438-.980469 1.183594-.25.667969-.847657 1.171875-1.574219 1.5-.722656.328125-1.570312.480469-2.320312.441406-.339844-.015625-.90625.214844-1.382813.359375-.558594.171875-1.335937.132813-2.398437.132813-.898438 0-1.953126-.105469-1.996094-.039063-.042969.070313.605468 1.839844.855468 2.824219.1875.800781.207032 2.898437.0625 5.027344-.101562 1.417969-.386718 2.40625-.632812 3.484375h9.949219c4.632812 0 8.359375-3.726563 8.359375-8.363282v-25.578124c0-4.632813-3.726563-8.363282-8.359375-8.363282zm0 0" fill="#5a4080"/></g></svg>