<svg height="48pt" viewBox="0 0 48 48" width="48pt" xmlns="http://www.w3.org/2000/svg"><g fill-rule="evenodd"><path d="m11.210938 2.847656h25.578124c4.621094 0 8.363282 3.742188 8.363282 8.363282v25.578124c0 4.621094-3.742188 8.363282-8.363282 8.363282h-25.578124c-4.621094 0-8.363282-3.742188-8.363282-8.363282v-25.578124c0-4.621094 3.742188-8.363282 8.363282-8.363282zm0 0" fill="#a0002f"/><path d="m14.558594 45.152344 9.441406-21.152344-21.152344-9.441406v22.234375c0 4.632812 3.726563 8.359375 8.359375 8.359375zm0 0" fill="#a0002f"/><path d="m45.152344 33.441406-21.152344-9.441406-9.441406 21.152344h22.234375c4.632812 0 8.359375-3.726563 8.359375-8.359375zm0 0" fill="#c3283a"/><path d="m33.441406 2.847656-9.441406 21.152344 21.152344 9.441406v-22.234375c0-4.632812-3.726563-8.359375-8.359375-8.359375zm0 0" fill="#a0002f"/><path d="m2.847656 14.558594 21.152344 9.441406 9.441406-21.152344h-22.234375c-4.632812 0-8.359375 3.726563-8.359375 8.359375zm0 0" fill="#c3283a"/></g><path d="m10.828125 34.136719v-3.035157h6.070313v6.070313h-6.070313zm7.101563 0v-3.035157h6.070312v6.070313h-6.070312zm7.097656 0v-3.035157h6.074218v6.070313h-6.074218zm-14.199219-7.101563v-3.035156h6.070313v6.070312h-6.070313zm7.101563 0v-3.035156h6.070312v6.070312h-6.070312zm11.304687-3.066406c-.535156-1.574219-.960937-2.871094-.949219-2.878906.023438-.027344 5.644532-1.925782 5.695313-1.925782.039062 0 1.980469 5.703126 1.949219 5.730469-.011719.011719-4.710938 1.597657-5.679688 1.917969-.027344.011719-.484375-1.269531-1.015625-2.84375zm-18.40625-4.035156v-3.035156h6.070313v6.074218h-6.070313zm11.4375-2.257813c-1.308594-.949219-2.402344-1.753906-2.433594-1.785156-.042969-.042969.414063-.707031 1.695313-2.46875.964844-1.328125 1.773437-2.417969 1.800781-2.429687.042969-.011719 4.621094 3.269531 4.832031 3.464843.058594.054688-.230468.476563-1.6875 2.488281-.96875 1.332032-1.773437 2.429688-1.792968 2.441407-.019532.011719-1.105469-.757813-2.414063-1.710938zm8.835937-3.8125v-3.035156h6.070313v6.070313h-6.070313zm0 0" fill="#fff"/></svg>