<svg height="48pt" viewBox="0 0 48 48" width="48pt" xmlns="http://www.w3.org/2000/svg"><path d="m11.210938 2.847656h25.578124c4.621094 0 8.363282 3.742188 8.363282 8.363282v25.578124c0 4.621094-3.742188 8.363282-8.363282 8.363282h-25.578124c-4.621094 0-8.363282-3.742188-8.363282-8.363282v-25.578124c0-4.621094 3.742188-8.363282 8.363282-8.363282zm0 0" fill="#31a3b3" fill-rule="evenodd"/><path d="m13.175781 8.574219 2.886719-1.667969c1.597656-.921875 3.734375-.214844 4.769531 1.582031l15.019531 26.011719c1.035157 1.796875.582032 4-1.015624 4.921875l-2.886719 1.667969c-1.597657.921875-3.730469.214844-4.769531-1.582032l-15.019532-26.015624c-1.035156-1.792969-.582031-3.996094 1.015625-4.917969zm0 0" fill="#fff"/><path d="m34.832031 8.578125-2.886719-1.667969c-1.597656-.921875-3.734374-.214844-4.769531 1.582032l-15.019531 26.015624c-1.035156 1.792969-.582031 3.996094 1.011719 4.917969l2.890625 1.667969c1.597656.921875 3.730468.214844 4.769531-1.582031l15.019531-26.011719c1.035156-1.796875.582032-4-1.015625-4.921875zm0 0" fill="#67bcc8"/><path d="m42.773438 25.664062v-3.335937c0-1.84375-1.679688-3.339844-3.753907-3.339844h-30.039062c-2.074219 0-3.753907 1.496094-3.753907 3.339844v3.335937c0 1.84375 1.679688 3.339844 3.753907 3.339844h30.039062c2.074219 0 3.753907-1.496094 3.753907-3.339844zm0 0" fill="#94d4de"/></svg>