<svg height="48pt" viewBox="0 0 48 48" width="48pt" xmlns="http://www.w3.org/2000/svg"><path d="m11.210938 2.847656h25.578124c4.621094 0 8.363282 3.742188 8.363282 8.363282v25.578124c0 4.621094-3.742188 8.363282-8.363282 8.363282h-25.578124c-4.621094 0-8.363282-3.742188-8.363282-8.363282v-25.578124c0-4.621094 3.742188-8.363282 8.363282-8.363282zm0 0" fill="#007eff" fill-rule="evenodd"/><path d="m14.322917 24.080729c-2.783855-.598958-5.229167-2.966146-5.955729-5.765625-.28125-.835937-.260417-2.71875-.052084-3.65625.325521-1.557292 1.53125-3.479166 2.768229-4.419271 1.653646-1.255208 2.401042-1.515625 5.247396-1.825521 5.0625-.554687 6.658854-.713541 6.708333-.666666.026042.028646.23698 1.807292.466146 3.955729.572917 5.385417.507813 6.40625-.546875 8.510417-.195312.38802-.755208 1.096354-1.322916 1.671875-.783855.796875-1.195313 1.104166-2.026042 1.510416-1.713542.838542-3.497396 1.070313-5.286458.684896zm-2.307292-4.973958c1.825521-.440104 3.635417-1.554688 5.385417-3.315104 1.507812-1.513021 2.893229-3.549479 3.963541-5.820313.440105-.934896 1.708334-2.203125 1.395834-2.096354-.080729.026042-2.085938.166667-3.809896.34375-1.723959.174479-4.710938.539062-5.143229.638021-2.731771.622396-5.356771 3.309896-5.578125 6.179687-.231771 1.760417.072916 3.169271.736979 4.606771l1.507812-.239583c.325521-.036458 1.01823-.171875 1.539063-.299479zm0 0" fill="#ffffe9" stroke="#ffffea" stroke-width="1.129384" transform="scale(1.5)"/></svg>