<svg height="48pt" viewBox="0 0 48 48" width="48pt" xmlns="http://www.w3.org/2000/svg"><path d="m45 10.453125c-.082031-.867187-.179688-1.734375-.503906-2.503906-.421875-1.003907-1.035156-1.902344-1.789063-2.660157-.757812-.753906-1.65625-1.367187-2.65625-1.789062-.769531-.324219-1.636719-.417969-2.5-.5h-13.550781v21h21zm0 0" fill="#ff8c2a"/><path d="m10.445312 3c-.863281.082031-1.730468.175781-2.496093.5-1.003907.421875-1.902344 1.035156-2.65625 1.792969-.757813.753906-1.371094 1.652343-1.792969 2.65625-.324219.765625-.417969 1.632812-.5 2.5v13.550781h21v-21zm0 0" fill="#6655e4"/><path d="m37.550781 45c .867188-.082031 1.734375-.175781 2.5-.5 1.003907-.421875 1.902344-1.035156 2.65625-1.792969.757813-.753906 1.371094-1.652343 1.792969-2.65625.324219-.765625.417969-1.632812.5-2.5v-13.550781h-21v21zm0 0" fill="#fe4b71"/><path d="m3 37.546875c.082031.867187.179688 1.734375.503906 2.503906.421875 1.003907 1.035156 1.902344 1.789063 2.660157.757812.753906 1.65625 1.367187 2.65625 1.789062.769531.324219 1.636719.417969 2.5.5h13.550781v-21h-21zm0 0" fill="#c72566"/><path d="m14.285156 7.933594h19.429688c3.507812 0 6.351562 2.84375 6.351562 6.351562v19.429688c0 3.507812-2.84375 6.351562-6.351562 6.351562h-19.429688c-3.507812 0-6.351562-2.84375-6.351562-6.351562v-19.429688c0-3.507812 2.84375-6.351562 6.351562-6.351562zm0 0" fill="#3f3f3f" fill-rule="evenodd"/><g fill="none" stroke="#fff" stroke-linecap="round" stroke-width="2.162302" transform="matrix(1.387403 0 0 1.387417 -31.4922 53.088564)"><path d="m33.000635-13.946982h7.998871"/><path d="m46.999364-19.946776v-8.001604m-5.999858 0 3.001337 4.000802 2.998521-4.000802m-5.999858 8.001604v-8.001604" stroke-linejoin="round"/><path d="m37.001478-19.946776-2.001829-3.001305m-1.999014-.999497s4.000843.464555 4.000843-1.998993c0-2.466363-4.000843-2.001809-4.000843-2.001809m0 8.001604v-8.001604"/></g></svg>