<svg height="48pt" viewBox="0 0 48 48" width="48pt" xmlns="http://www.w3.org/2000/svg"><path d="m11.210938 2.847656h25.578124c4.621094 0 8.363282 3.742188 8.363282 8.363282v25.578124c0 4.621094-3.742188 8.363282-8.363282 8.363282h-25.578124c-4.621094 0-8.363282-3.742188-8.363282-8.363282v-25.578124c0-4.621094 3.742188-8.363282 8.363282-8.363282zm0 0" fill="#f57635" fill-rule="evenodd"/><path d="m25.550781 15c-3.140625.003906-6.011719 1.722656-7.40625 4.433594-.589843-.296875-1.238281-.449219-1.902343-.453125-2.285157 0-4.140626 1.785156-4.140626 3.984375.003907.136718.011719.277344.027344.414062-1.828125.707032-3.128906 2.507813-3.128906 4.644532 0 2.757812 2.152344 4.976562 4.828125 4.976562h19.308594c.429687 0 .84375-.078125 1.238281-.183594 2.683594-.492187 4.625-2.746094 4.625-5.375 0-2.863281-2.296875-5.238281-5.265625-5.453125l.019531-.019531c-.523437-3.976562-4.03125-6.964844-8.203125-6.96875zm-1.550781 4.5 6 6h-4.5v6h-3v-6h-4.5zm0 0" fill="#fff"/></svg>