<svg height="48pt" viewBox="0 0 48 48" width="48pt" xmlns="http://www.w3.org/2000/svg"><path d="m11.210938 2.847656h25.578124c4.621094 0 8.363282 3.742188 8.363282 8.363282v25.578124c0 4.621094-3.742188 8.363282-8.363282 8.363282h-25.578124c-4.621094 0-8.363282-3.742188-8.363282-8.363282v-25.578124c0-4.621094 3.742188-8.363282 8.363282-8.363282zm0 0" fill="#7767c0" fill-rule="evenodd"/><path d="m28.089844 6.921875-2.238282 3.382813c-.417968-.058594-.839843-.089844-1.265624-.09375-1.28125 0-2.550782.253906-3.734376.746093l-3.027343-2.683593.8125 3.980468c-.824219.636719-1.539063 1.40625-2.121094 2.269532-3.65625-1.359376-7.527344-2.054688-11.429687-2.0625-.75.011718-1.5.046874-2.25.113281v1.554687c1-.101562 2-.160156 3-.167968 17.21875.011718 31.390624 13.550781 32.191406 30.75h.019531c-.152344-6.601563-2.277344-13.003907-6.109375-18.382813.675781-.773437 1.226562-1.648437 1.628906-2.59375l4.089844-.242187-3.417969-2.253907c.0625-.425781.09375-.851562.097657-1.277343 0-1.269532-.25-2.523438-.730469-3.695313l2.699219-3.039063-3.984376.8125c-1.039062-1.355468-2.414062-2.414062-3.988281-3.074218zm-3.503906 4.789063c4.558593 0 8.25 3.691406 8.25 8.25-.003907 1.882812-.652344 3.707031-1.835938 5.167968-3.441406-4.390625-7.941406-7.832031-13.078125-10.011718 1.550781-2.136719 4.027344-3.402344 6.664063-3.40625zm0 0" fill="#fff"/></svg>