<svg height="48pt" viewBox="0 0 48 48" width="48pt" xmlns="http://www.w3.org/2000/svg"><path d="m11.210938 2.847656h25.578124c4.621094 0 8.363282 3.742188 8.363282 8.363282v25.578124c0 4.621094-3.742188 8.363282-8.363282 8.363282h-25.578124c-4.621094 0-8.363282-3.742188-8.363282-8.363282v-25.578124c0-4.621094 3.742188-8.363282 8.363282-8.363282zm0 0" fill="#050505" fill-opacity=".2" fill-rule="evenodd"/><path d="m24 7.769531c-.851562 0-1.703125.316407-2.335938.953125l-12.941406 12.941406c-1.273437 1.269532-1.269531 3.398438 0 4.667969l12.941406 12.945313c1.273438 1.269531 3.402344 1.273437 4.671876 0l12.941406-12.941406c1.273437-1.269532 1.273437-3.402344 0-4.671876l-12.941406-12.941406c-.636719-.636718-1.484376-.953125-2.335938-.953125zm0 0" fill="#67428d"/><path d="m25.074219 23.554688v.070312c2.820312.363281 4.335937 1.699219 4.335937 4.007812 0 1.5625-.539062 2.789063-1.617187 3.6875-1.074219.890626-2.632813 1.335938-4.671875 1.335938-1.890625 0-3.398438-.300781-4.53125-.910156v-1.957032c1.4375.738282 2.929687 1.105469 4.484375 1.105469 2.765625 0 4.144531-1.109375 4.144531-3.328125 0-1.984375-1.484375-2.972656-4.460938-2.972656h-.921874v-1.675781h.921874c1.25 0 1.894532-.355469 2.582032-.941407.6875-.582031 1.027344-1.351562 1.027344-2.3125 0-.785156-.265626-1.402343-.792969-1.855468-.53125-.460938-1.242188-.691406-2.132813-.691406-1.390625 0-2.40625.464843-3.703125 1.394531l-1.078125-1.441407c1.460938-1.152343 2.835938-1.726562 4.78125-1.726562 1.605469 0 2.628906.378906 3.527344 1.140625.90625.757813 1.355469 1.773437 1.355469 3.039063 0 1.0625-.101563 1.949218-.742188 2.664062-.640625.710938-1.320312 1.167969-2.507812 1.367188zm0 0" fill="#8b93ff"/></svg>