<svg height="48pt" viewBox="0 0 48 48" width="48pt" xmlns="http://www.w3.org/2000/svg" xmlns:xlink="http://www.w3.org/1999/xlink"><clipPath id="a"><path d="m0 0h48v48h-48z"/></clipPath><clipPath id="b"><path d="m0 0h48v48h-48z"/></clipPath><clipPath id="c"><path d="m0 0h48v48h-48z"/></clipPath><clipPath id="d"><path d="m0 0h48v48h-48z"/></clipPath><path d="m11.210938 2.847656h25.578124c4.621094 0 8.363282 3.742188 8.363282 8.363282v25.578124c0 4.621094-3.742188 8.363282-8.363282 8.363282h-25.578124c-4.621094 0-8.363282-3.742188-8.363282-8.363282v-25.578124c0-4.621094 3.742188-8.363282 8.363282-8.363282zm0 0" fill="#ffc04b" fill-rule="evenodd"/><path d="m9.792969 9.726562c-.984375 0-1.777344 1.015626-1.777344 2v19.980469c0 .984375.792969 1.960938 1.777344 2h14.777343l3.996094 4.566407 3.996094-4.566407h5.644531c.984375 0 1.777344-1.015625 1.777344-2v-19.980469c0-.984374-.792969-2-1.777344-2zm0 0" fill="#4f4f4f"/><g clip-path="url(#a)"><path d="m17.148438 16.578125v-1.140625h13.703124v1.140625zm0 0" fill="#ffc04b"/></g><g clip-path="url(#b)"><path d="m17.148438 20.003906v-1.140625h13.703124v1.140625zm0 0" fill="#ffc04b"/></g><g clip-path="url(#c)"><path d="m17.148438 23.429688v-1.140626h13.703124v1.140626zm0 0" fill="#ffc04b"/></g><g clip-path="url(#d)"><path d="m17.148438 26.855469v-1.144531h9.136718v1.144531zm0 0" fill="#ffc04b"/></g></svg>