<svg height="48pt" viewBox="0 0 48 48" width="48pt" xmlns="http://www.w3.org/2000/svg"><g fill-rule="evenodd"><path d="m11.210938 2.847656h25.578124c4.621094 0 8.363282 3.742188 8.363282 8.363282v25.578124c0 4.621094-3.742188 8.363282-8.363282 8.363282h-25.578124c-4.621094 0-8.363282-3.742188-8.363282-8.363282v-25.578124c0-4.621094 3.742188-8.363282 8.363282-8.363282zm0 0" fill="#3d6080"/><path d="m22.117188 45.152344v-3.066406l4.1875-.054688c.910156 0 1.789062-.378906 2.441406-.988281.652344-.605469 1.074218-1.4375 1.074218-2.34375v-4.335938l1.847657-.027343c.867187-.011719 1.492187-.257813 1.800781-.695313.308594-.433594.296875-1.0625-.109375-1.832031l-3.519531-5.554688-.019532-1.066406v-2.875c0-.046875-.003906-.09375-.003906-.144531.015625-.242188.019532-.488281.023438-.730469 0-.09375-.019532-.183594-.023438-.28125.007813-.097656.011719-.195312.011719-.296875 0-2.128906-.429687-4.15625-1.210937-6.003906-.78125-1.84375-1.910157-3.503907-3.304688-4.902344-1.394531-1.394531-3.058594-2.523437-4.902344-3.304687-1.84375-.777344-3.875-1.210938-6.003906-1.210938-1.089844.003906-3.523438-.019531-5.941406.0625-1.507813.054688-2.46875.285156-3.621094.457031-1.191406 1.445313-1.996094 3.226563-1.996094 5.253907v25.578124c0 4.636719 3.730469 8.363282 8.363282 8.363282zm0 0" fill="#7a9bbb"/><path d="m11.210938 2.847656c-2.605469 0-4.835938 1.253906-6.367188 3.109375 1.152344-.171875 2.113281-.402343 3.621094-.457031 2.417968-.082031 4.851562-.058594 5.941406-.0625 2.132812 0 4.160156.433594 6.003906 1.210938 1.847656.78125 3.507813 1.910156 4.902344 3.304687 1.394531 1.398437 2.523438 3.058594 3.304688 4.902344.78125 1.847656 1.210937 3.875 1.210937 6.003906 0 .101563-.003906.199219-.007813.296875.003907.097656.019532.1875.019532.28125-.003906.242188-.007813.488281-.019532.730469v.144531 2.875l.023438 1.066406 3.515625 5.554688c.40625.769531.417969 1.398437.109375 1.832031-.308594.4375-.933594.683594-1.800781.695313l-1.847657.027343v4.335938c0 .90625-.421874 1.738281-1.074218 2.34375-.652344.609375-1.53125.988281-2.441406.988281l-4.1875.054688v3.066406h14.671874c4.636719 0 8.363282-3.726563 8.363282-8.363282v-25.578124c0-4.632813-3.726563-8.363282-8.363282-8.363282zm0 0" fill="#3d6080"/></g><path d="m11.519531 5.4375c1.59375 0 2.890625 1.296875 2.890625 2.890625v5.785156c0 1.59375-1.296875 2.890625-2.890625 2.890625-1.597656 0-2.890625-1.296875-2.890625-2.890625v-5.785156c0-1.59375 1.292969-2.890625 2.890625-2.890625zm0 0" fill="#4c4c4c"/><path d="m31.757812 37.242188c0 1.597656-1.296874 2.890624-2.890624 2.890624-1.597657 0-2.894532-1.292968-2.894532-2.890624 0-1.597657 1.296875-2.890626 2.894532-2.890626 1.59375 0 2.890624 1.292969 2.890624 2.890626zm0 0" fill="#4c4c4c"/><path d="m-35.783202 15.740234 11.565104 10.28125" fill="none" stroke="#4c4c4c" transform="matrix(1.5 0 0 1.5 65.194335 -1.790039)"/><path d="m18.265625 21.820312c0 3.726563-3.019531 6.746094-6.746094 6.746094-3.726562 0-6.746093-3.019531-6.746093-6.746094 0-3.722656 3.019531-6.746093 6.746093-6.746093 3.726563 0 6.746094 3.023437 6.746094 6.746093zm0 0" fill="#4cff83"/></svg>