<svg height="48pt" viewBox="0 0 48 48" width="48pt" xmlns="http://www.w3.org/2000/svg"><path d="m11.210938 2.847656h25.578124c4.621094 0 8.363282 3.742188 8.363282 8.363282v25.578124c0 4.621094-3.742188 8.363282-8.363282 8.363282h-25.578124c-4.621094 0-8.363282-3.742188-8.363282-8.363282v-25.578124c0-4.621094 3.742188-8.363282 8.363282-8.363282zm0 0" fill="#518140" fill-rule="evenodd"/><path d="m19.585938 8.550781h8.828124v3.3125h-8.828124zm0 0" fill="#629c4d"/><path d="m13.480469 10.757812h21.039062c.894531 0 1.617188.757813 1.617188 1.6875v25.316407c0 .929687-.722657 1.6875-1.617188 1.6875h-21.039062c-.894531 0-1.617188-.757813-1.617188-1.6875v-25.316407c0-.929687.722657-1.6875 1.617188-1.6875zm0 0" fill="#a2d471"/><g fill="#8aba52"><path d="m11.25 9.65625h25.5c.882812 0 1.59375.742188 1.59375 1.65625v3.308594c0 .914062-.710938 1.65625-1.59375 1.65625h-25.5c-.882812 0-1.59375-.742188-1.59375-1.65625v-3.308594c0-.914062.710938-1.65625 1.59375-1.65625zm0 0"/><path d="m22.898438 20.691406h2.203124c.609376 0 1.105469.34375 1.105469.769532v13.902343c0 .429688-.496093.773438-1.105469.773438h-2.203124c-.609376 0-1.105469-.34375-1.105469-.773438v-13.902343c0-.425782.496093-.769532 1.105469-.769532zm0 0"/><path d="m16.277344 20.691406h2.207031c.609375 0 1.101563.34375 1.101563.769532v13.902343c0 .429688-.492188.773438-1.101563.773438h-2.207031c-.609375 0-1.105469-.34375-1.105469-.773438v-13.902343c0-.425782.496094-.769532 1.105469-.769532zm0 0"/><path d="m29.515625 20.691406h2.207031c.609375 0 1.105469.34375 1.105469.769532v13.902343c0 .429688-.496094.773438-1.105469.773438h-2.207031c-.609375 0-1.101563-.34375-1.101563-.773438v-13.902343c0-.425782.492188-.769532 1.101563-.769532zm0 0"/><path d="m19.585938 8.550781h8.828124v1.105469h-8.828124zm0 0"/></g></svg>