<svg height="48pt" viewBox="0 0 48 48" width="48pt" xmlns="http://www.w3.org/2000/svg"><path d="m11.210938 2.847656h25.578124c4.621094 0 8.363282 3.742188 8.363282 8.363282v25.578124c0 4.621094-3.742188 8.363282-8.363282 8.363282h-25.578124c-4.621094 0-8.363282-3.742188-8.363282-8.363282v-25.578124c0-4.621094 3.742188-8.363282 8.363282-8.363282zm0 0" fill="#999" fill-rule="evenodd"/><path d="m23.042969 35.347656c-1.378907-.183594-2.3125-.390625-2.386719-.53125-.125-.234375-.628906-2.941406-.859375-4.605468-.125-.914063-.308594-2.761719-.277344-2.796876.011719-.007812.316407.164063.679688.390626 3.085937 1.914062 6.617187 3.558593 10.0625 4.6875.425781.136718.816406.265624.863281.285156.105469.039062.027344.101562-.800781.660156-1.464844.992188-3.167969 1.625-5.027344 1.863281-.617187.082031-1.824219.105469-2.253906.046875zm-3.546875-.902344c-2.53125-1.097656-4.554688-3.039062-5.746094-5.511718-.324219-.675782-.679688-1.636719-.792969-2.15625l-.054687-.242188.707031-.632812c1.519531-1.363282 3.535156-2.964844 4.765625-3.796875l.414062-.28125.003907 2.082031c.003906 3.660156.332031 6.867188 1.035156 10.035156.078125.359375.136719.664063.125.675782-.011719.007812-.21875-.066407-.457031-.171876zm10.878906-2.558593c-1.398438-.46875-3.074219-1.109375-4.167969-1.601563-1.328125-.597656-1.46875-.664062-1.46875-.710937 0-.023438.277344-.191407.621094-.371094.515625-.269531 1.613281-.898437 2.484375-1.425781 1.976562-1.183594 4.867188-3.355469 6.769531-5.082032.289063-.265624.550781-.480468.582031-.480468.070313 0 .1875 1.105468.1875 1.808594 0 1.210937-.335937 2.953124-.785156 4.082031-.59375 1.484375-1.480468 2.867187-2.476562 3.84375l-.390625.386719zm-1.183594-7.816407c-.007812-2.699218-.128906-4.429687-.488281-6.945312-.144531-1.007812-.519531-3.050781-.660156-3.621094l-.039063-.152344.292969.117188c.558594.21875 1.445313.695312 2.003906 1.074219 2.289063 1.546875 3.964844 3.859375 4.644531 6.40625l.136719.511719-.714843.648437c-.394532.355469-1.074219.941406-1.507813 1.304687-1.070313.894532-3.503906 2.714844-3.632813 2.714844-.015624 0-.03125-.925781-.035156-2.058594zm-16.4375 1.667969c-.015625-.023437-.058594-.40625-.097656-.847656-.171875-1.984375.246094-4.140625 1.164062-5.976563.519532-1.035156 1.355469-2.203124 2.097657-2.925781l.335937-.328125 1.4375.484375c.792969.265625 1.917969.675781 2.503906.910157 1.296876.519531 3.046876 1.308593 3.046876 1.375 0 .023437-.179688.136718-.402344.25-.648438.324218-2.226563 1.242187-3.144532 1.828124-2.335937 1.484376-4.398437 3.050782-6.324218 4.796876-.53125.484374-.570313.511718-.617188.433593zm15.550782-5.210937c-.136719-.128906-1.726563-1.070313-2.789063-1.652344-2.289063-1.253906-5.046875-2.453125-7.59375-3.300781-.539063-.175781-1.015625-.335938-1.0625-.355469-.105469-.035156-.027344-.101562.773437-.644531 1.667969-1.125 3.449219-1.738281 5.574219-1.917969 1.214844-.101562 2.25.003906 3.9375.398438.074219.015624.15625.085937.1875.152343.144531.34375.5625 2.566407.800781 4.234375.132813.929688.34375 2.855469.34375 3.117188 0 .070312-.078124.054687-.171874-.03125zm0 0" fill="#fff"/><path d="m24 9.777344c-7.84375 0-14.222656 6.378906-14.222656 14.222656s6.378906 14.222656 14.222656 14.222656 14.222656-6.378906 14.222656-14.222656-6.378906-14.222656-14.222656-14.222656zm0 1.738281c6.902344 0 12.484375 5.582031 12.484375 12.484375s-5.582031 12.484375-12.484375 12.484375-12.484375-5.582031-12.484375-12.484375 5.582031-12.484375 12.484375-12.484375zm0 0" fill="#487aae" fill-rule="evenodd"/></svg>