<svg height="48pt" viewBox="0 0 48 48" width="48pt" xmlns="http://www.w3.org/2000/svg"><path d="m11.210938 2.847656h25.578124c4.621094 0 8.363282 3.742188 8.363282 8.363282v25.578124c0 4.621094-3.742188 8.363282-8.363282 8.363282h-25.578124c-4.621094 0-8.363282-3.742188-8.363282-8.363282v-25.578124c0-4.621094 3.742188-8.363282 8.363282-8.363282zm0 0" fill="#8bc34a" fill-rule="evenodd"/><path d="m37.992188 21h-7.5v4.5h4.5l-8.25 9.75-7.5-9.75h3.75v-10.5h7.5v3h7.5v-3s0-6-5.625-6h-11.25s-5.625 0-5.625 6.375v11.625h-3v-10.5h-4.5v11.25c0 3.75 3.75 3.75 3.75 3.75h3.75v1.875c0 5.625 5.625 5.625 5.625 5.625h11.25c5.625 0 5.625-5.625 5.625-5.625" fill="#fff"/></svg>