<svg height="48pt" viewBox="0 0 48 48" width="48pt" xmlns="http://www.w3.org/2000/svg"><path d="m11.210938 2.847656h25.578124c4.621094 0 8.363282 3.742188 8.363282 8.363282v25.578124c0 4.621094-3.742188 8.363282-8.363282 8.363282h-25.578124c-4.621094 0-8.363282-3.742188-8.363282-8.363282v-25.578124c0-4.621094 3.742188-8.363282 8.363282-8.363282zm0 0" fill="#50bc34" fill-rule="evenodd"/><path d="m19.214844 9.042969s-2.292969-.042969-4.742188.976562c-2.445312 1.019531-5.429687 3.808594-5.429687 7.996094 0 4.191406 2.984375 6.980469 5.429687 8 2.449219 1.019531 4.742188.976563 4.742188.976563h9.570312s1.300782.042968 2.441406.519531c1.140626.472656 1.746094.675781 1.746094 2.472656 0 1.792969-.605468 1.996094-1.746094 2.472656-1.140624.472657-2.441406.515625-2.441406.515625h-16.75c-1.078125-.011718-2.082031.554688-2.628906 1.484375-.542969.933594-.542969 2.085938 0 3.015625.546875.933594 1.550781 1.5 2.628906 1.484375h16.75s2.292969.042969 4.742188-.976562c2.445312-1.019531 5.429687-3.808594 5.429687-7.996094 0-4.191406-2.984375-6.980469-5.429687-8-2.449219-1.019531-4.742188-.976563-4.742188-.976563h-9.570312s-1.300782-.042968-2.441406-.519531c-1.140626-.472656-1.746094-.675781-1.746094-2.472656 0-1.792969.605468-1.996094 1.746094-2.472656 1.140624-.472657 2.441406-.515625 2.441406-.515625h16.75c1.078125.011718 2.082031-.554688 2.628906-1.484375.542969-.933594.542969-2.085938 0-3.015625-.546875-.933594-1.550781-1.5-2.628906-1.484375zm0 0" fill="#fff"/></svg>