<svg height="48pt" viewBox="0 0 48 48" width="48pt" xmlns="http://www.w3.org/2000/svg"><path d="m11.210938 2.847656h25.578124c4.621094 0 8.363282 3.742188 8.363282 8.363282v25.578124c0 4.621094-3.742188 8.363282-8.363282 8.363282h-25.578124c-4.621094 0-8.363282-3.742188-8.363282-8.363282v-25.578124c0-4.621094 3.742188-8.363282 8.363282-8.363282zm0 0" fill="#008366" fill-rule="evenodd"/><path d="m19.097656 6.761719c-.546875.046875-.75.132812-.957031.394531-.21875.277344-.410156.34375-1.214844.417969-.613281.058593-1.042969.171875-1.210937.316406-.316406.28125-.613282.96875-.613282 1.414063 0 .316406.03125.328124.515626.253906.285156-.046875.726562-.015625.992187.074218.390625.128907.453125.195313.328125.34375-.089844.109376-.394531.078126-.730469.078126-.671875 0-.742187.191406-.273437.734374l.300781.351563.519531-.277344c.589844-.316406 1.007813-.242187 1.421875-.007812.160157.089843.871094.195312 1.585938.234375 1.214843.066406.894531.097656 1.1875.4375.191406.222656.453125.53125.453125.789062-.003906.859375-.605469 2.386719-2.390625 4.511719-.90625 1.074219-1.082031 3.042969-1.085938 3.5625 0 .160156-.058593.320313-.125.363281-.128906.082032-.210937-.414062-.335937-2.039062-.121094-1.605469-.421875-2.503906-1.113282-3.21875-.40625-.421875-.785156-.671875-1.160156-.773438-.664062-.175781-.703125-.308594-.164062-.535156.214844-.089844.394531-.214844.394531-.277344 0-.160156-.601563-.289062-.992187-.214844-.398438.074219-.410157.003907-.050782-.378906.707032-.75-.496094-.578125-1.742187.253906-1.121094.746094-1.804688 1.511719-1.90625 2.066407-.066407.351562-.277344.65625-.746094 1.089843-.871094.804688-1.066406 1.210938-.957031 1.957032.164062 1.09375.289062 1.179687.796875.574218.320312-.378906 1.0625-.773437 1.195312-.636718.132813.132812-.207031.605468-.609375.84375-.503906.296875-.496094.507812.019532.6875.488281.171875.578124.125.855468-.421875.320313-.632813.695313-.992188 1.222656-1.160157.261719-.085937.753907-.414062 1.09375-.730468.34375-.316406.6875-.574219.765626-.574219.269531 0 .769531.628906.90625 1.140625.074218.277344.199218 1.394531.28125 2.476562.246093 3.339844.582031 3.8125 1.792968 6.457032.390625.847656.707032 1.628906.707032 1.730468 0 .140626-1.015626.210938-1.789063.28125-1.832031.15625-2.597656.78125-2.730469 2.210938-.050781.515625-.003906.816406.171875 1.152344.363281.691406.582031.679687.484375-.03125-.082031-.605469.140625-.992188.304688-.527344.121094.339844.585937.828125.792968.828125.207032 0 .210938-.015625.042969-.449219-.140625-.382812-.054687-.417968.3125-.140625.351563.265625.472657.136719.382813-.417969-.144532-.878906 1.261718-1.644531 2.929687-1.152343.808594.242187 1.035157.265625 1.394531.132812.683594-.246093 1.652344-.1875 2.097657.1875.449219.378907.085937 1.367188-.226563 1.8125-.320312.457031-.820312.648438-2.066406.800781-.632812.078126-1.289062.234376-1.460938.347657-.34375.222656-.617187.726562-.617187 1.128906 0 .347656.15625.324219.5-.070313.160156-.183593.40625-.328124.550781-.328124.332032 0 .332032.070312.003906.488281-.238281.304687-.375 1.089843-.1875 1.089843.039063 0 .269532-.207031.507813-.460937s.558594-.460937.714844-.460937c.328125 0 .347656.101562.078125.453124-.195313.265626-.269532 1.132813-.09375 1.125.054687-.003906.21875-.195312.363281-.425781.25-.398437.558594-.597656 1.605469-1.039062.230468-.097657 1.109375-.910157 1.953125-1.804688 1.507812-1.59375 1.492187-1.628906 1.449219-2.171875l-.046876-.554687 1.53125-.160157c1.351563-.484374 2.070313-.523437 2.859376-.113281 1.046874.542969 2.035156 1.480469 1.890624 2.363281-.105468.652344-.464843 1.882813-1.363281 1.96875-2.148437-.039062-5.140625 1.339844-4.804687 3.339844.277344 1.34375 2.019531 2.234375 3.769531 2.632813.550781.128906 1.285156.167969 2.207031.128906 2.3125-.097656 3.792969-.214844 5.035156-1.488281.453126-.46875 1.035157-1.578125 1.25-2.121094l1.148438.625v-3.019531l-3 1.320312 1.574219.902344c-.1875.15625-.429688.53125-.703125.816406-1.21875 1.257813-2.054688 1.253907-3.574219 1.457031-1.25.167969-2.621094-.007812-3.472656-.382812-.699219-.308594-1.238281-.976562-1.238281-1.476562 0-.464844.558593-.894532 1.230468-.917969 1.820313-.058594 2.160156-.226563 2.160156-.226563 1.308594-.398437 2.550782-2.675781 2.550782-4.109375 0-.367187.058594-.816406.128906-1 .105469-.273437.042969-.511719-.328125-1.285156-.308594-.644531-.425781-.75-.371094-.96875.066407-.261719-.058593-.457031-.691406-1.101563-.691406-.695312-.757813-1.023437-.613281-1.257812.089844-.140625.164062-.289062.164062-.324219 0-.035156-.34375-.238281-.761718-.449219-.414063-.210937-.902344-.5-1.082032-.644531-.277344-.230469-.300781-.292969-.144531-.480469.097656-.121093.144531-.25.101563-.292968-.042969-.042969-.539063-.164063-1.101563-.269532-1.269531-.242187-1.464844-.34375-1.519531-.800781-.019532-.199219-.085938-.359375-.140625-.351562-.058594.003906-.6875.117187-1.402344.25-1.40625.257812-1.726563.222656-1.726563-.191407 0-.34375.003907-.34375-.875.125-1.4375.769532-2.605468.296876-2.242187-.910156.089844-.300781.335937-.800781.546875-1.105468.835938-1.222657 2.4375-1.609376 5.375-1.746094 1.640625-.074219 2.375-.148438 2.855469-.367188.761719-.34375 2.503906-1.546875 2.828125-2.152344.140625-.257812.296875-.46875.355468-.46875.273438 0 .628907-.5625.628907-1 0-.59375.269531-.550781.429687.070313.160156.613281.429688.308594.414063-.464844-.015625-.652343.082031-.726562.378906-.289062.316406.476562.421875.160156.238281-.726563-.175781-.855468-1.316406-2.945312-1.789062-3.542968-.152344-.191407-1.339844-.378907-1.542969-.421876-.273437-.058593-.644531-.289062-1.042969-.953124-.296875-.496094-.6875-.960938-.902344-1.074219-.339843-.179688-.4375-.175781-.957031.023437-.628906.238282-.6875.339844-.359375.609375.261719.21875.703125 1.222657.703125 1.597657 0 .269531-.003906.269531-.273437.027343-.148438-.136719-.574219-.460937-.679688-.714843-.1875-.445313-.207031-.453126-.386718-.207032-.332032.449219-.238282 1.074219.210937 1.394532.4375.3125.835937 1.003906.980469 1.710937.054687.253906.210937.648437.347656.875.511719.847656.414062 2.832031-.378906 3.207031-.273438.128906-1.164063.25-2.527344.335938-3.140625.195312-4.570312.605468-6.074219 2.085937-.71875.707031-.769531.730469-.683593.375.136718-.578125.195312-1.351562 1.5-3.054687 1.671874-2.183594 1.886718-2.710938 1.882812-4.277344-.003906-1.339844-.617188-2.863281-2.035156-4.019531-.292969-.199219-.5-.417969-.460938-.484375.039063-.0625.308594-.113282.601563-.113282.617187 0 .628906-.203124.035156-.550781-.5-.292969-2.148437-.550781-3.042969-.476562zm0 0" fill="#badc86"/></svg>