<svg height="48pt" viewBox="0 0 48 48" width="48pt" xmlns="http://www.w3.org/2000/svg"><path d="m11.210938 2.847656h25.578124c4.621094 0 8.363282 3.742188 8.363282 8.363282v25.578124c0 4.621094-3.742188 8.363282-8.363282 8.363282h-25.578124c-4.621094 0-8.363282-3.742188-8.363282-8.363282v-25.578124c0-4.621094 3.742188-8.363282 8.363282-8.363282zm0 0" fill="#a81717" fill-rule="evenodd"/><path d="m24.039062 8.054688c-.296874-.007813-.585937.066406-.84375.21875l-12.058593 7.148437c-.5.296875-.804688.839844-.804688 1.429687v14.296876c0 .589843.304688 1.136718.804688 1.429687l12.058593 7.148437c.496094.292969 1.113282.292969 1.609376 0l12.058593-7.148437c.5-.292969.804688-.839844.804688-1.429687v-14.296876c0-.589843-.304688-1.132812-.804688-1.429687l-12.058593-7.148437c-.234376-.136719-.496094-.214844-.765626-.21875zm0 0" fill="#ccc"/><path d="m-37.75603 3.092242h8.354166l-8.354166 9.947917h8.354166" fill="none" stroke="#a81717" stroke-linecap="square" stroke-linejoin="round" stroke-width="3" transform="matrix(1.5 0 0 1.5 74.36842 11.842105)"/></svg>