<svg height="32" width="32" xmlns="http://www.w3.org/2000/svg"><g transform="translate(38.376953 2.796875)"><path d="m-8.2753906 17.816406c-.391261.356623-.8632503.74993-1.0175782.837891-.4117271.234758-.8369192.280947-1.2187502.40625-.381831.125302-.721443.330244-.96289.880859-.08927.203604-.09278.516394-.123047.78711-.03026.270715-.08691.499523-.285156.533203-.691668.117503-3.086288.04107-3.417969.269531-1.507486.859429-3.356902 1.352193-5.019531 1.826172-.317866.09059-.825137 1.10414-1.152344 1.228516-.386644.146955-.806186.157871-1.244141.0918-.437954-.06607-.894391-.209516-1.351562-.371093-.914343-.323154-1.834163-.71875-2.632813-.71875-1.045144 0-2.491459.51546-3.9375.851562-.72302.168051-1.445724.29061-2.11914.28125-.673417-.0094-1.298338-.150657-1.822266-.511719-.457713-.637047-.917453-1.031474-1.4375-1.283203-.06738-.03261-.162935-.02665-.232422-.05469.53894 2.517625 2.662528 4.433594 5.345703 4.433594h17.052735c3.08865 0 5.5761714-2.487522 5.5761714-5.576172z" fill="#4d4d4d" fill-rule="evenodd"/><path d="m-30.904297-.8984375c-3.088651 0-5.574219 2.4855679-5.574219 5.5742187v17.0527348c0 .405475.147073.76212.228516 1.142578.06949.02804.165041.02207.232422.05469.520047.251729.979787.646156 1.4375 1.283203.523928.361062 1.148849.502359 1.822266.511719.673416.0094 1.39612-.113199 2.11914-.28125 1.446041-.336102 2.892356-.851562 3.9375-.851562.79865 0 1.71847.395596 2.632813.71875.457171.161577.913608.305019 1.351562.371093.437955.06607.857497.05516 1.244141-.0918.327207-.124376.834478-1.137926 1.152344-1.228516 1.662629-.473979 3.512045-.966743 5.019531-1.826172.331681-.228465 2.726301-.152028 3.417969-.269531.198242-.03368.254891-.262488.285156-.533203.03026-.270716.03377-.583506.123047-.78711.241447-.550615.581059-.755557.96289-.880859.381831-.125303.8070231-.171492 1.2187502-.40625.1543279-.08796.6263172-.481268 1.0175782-.837891v-13.1406238c0-3.0886508-2.4875214-5.5742187-5.5761714-5.5742187z" fill="#4ab1f1" fill-rule="evenodd"/><path d="m-26.279612 24.125224c-.618075-.305899-.739599-.810297-.470685-.976489.328118-.202876.140377-1.381581-.431206-2.707388-.561863-1.303276-.569517-1.343374-.311196-1.631582.602983-.672781.571785-.710471-.502118-.606589-2.982023.288331-3.085908.781448-4.114995 1.208894-1.35532.562928-2.576103.757921-2.576103.600549 0-.06671.179222-.171597.398271-.233024l.39827-.111548-.422297-.08518c-.421131-.08482-.419929-.08663.434477-.650348 2.514144-2.553511 4.811849-5.619886 8.101724-7.347745.411993-.20878.883462-.520217.984113-.741122.09548-.209556.173605-1.2886767.173605-2.0308977 0-1.5733796.253875-2.4114525 1.204834-2.6963665.742363-.096817.618536-.1407399 1.279948.2704093.440604.2738918 1.004121 1.098103 1.485851 1.157813 1.920069.2380042 3.711605.9709342 4.012577 1.4579222.05424.08775-.09068.06166-.322026-.05798-1.253173-.648048-3.887474-1.0901016-4.816563-.649222-.759952.360622-.309429.688813-.04049 2.2162227.364788 2.071793.108008 3.72572-.753873 4.855702-.207105.271549-.770504.783725-1.252001 1.138247-.481497.354475-1.470213.808015-1.573917 1.007943-.103704.199853-.314277.523295-.46794.718653-.240294.305505-.281528.611379-.294694 2.186376-.0096 1.153938.0443 1.902985.14587 2.025394.08865.106732.120727.355309.07129.552386-.100907.401944.497638.999488 1.096615.999488.189148 0 .470412.09555.625031.212532.259413.196242.225195.213023-.443003.217126-.452278.0044-1.234932-.109902-1.619369-.300172zm-.340166-4.126508c-.0078-.258921.03343-.747622.09157-1.086199.118743-.691429-.06353-.820324-.364605-.25774-.226922.423982-.230111 1.099416-.0072 1.516028.223757.417988.296569.373319.280195-.172089z" fill="#4d4d4d"/></g></svg>