<svg height="32" width="32" xmlns="http://www.w3.org/2000/svg"><g transform="translate(44.881356 -10.983051)"><path d="m-37.4087 12.881488c-3.088651 0-5.574205 2.485568-5.574218 5.574219l-.000023 5.343751c2.503892 13.426751 20.704098 23.189655 28.20317.978515l-.000023-6.322266c-.000011-3.088651-2.485567-5.574219-5.574218-5.574219z" fill="#042c38" fill-rule="evenodd"/><path d="m-31.770376 33.339388c9.40248 5.850451 18.13995-10.790524 7.77422-18.797566 11.67766 1.520077 6.06597 14.08033 7.31469 22.259834-4.37305-.195075-10.14739 3.954797-14.06207 1.743044-.96218-.543621-.59188-4.344406-1.02684-5.205312z" fill="#ffc607"/><path d="m-33.517866 26.016986c-.95277 1.859739-.51657 2.161633-.21819 2.516359 1.01391.896472 2.66643.395452 5.66475-1.281573.14374 1.146671-.80898 2.462848-3.29217 3.708649-.81498.407298-1.21499 1.037162-.4069 2.378967l3.77482 4.541053-5.26237-.447302-4.34146-11.05098z" fill="#d14b01"/><path d="m-24.440016 18.082727c4.57076 2.957716 3.48092 7.233658 4.83737 10.939911l.96747-6.828141c-1.8364-2.910582-2.1269-3.631658-5.80484-4.11177z" fill="#f78f04"/><path d="m-21.630626 25.18995c.43002 3.955838-.0483 6.674477.707 6.82814l1.35819-3.702452c-.34252-.305525-1.13968-2.142234-2.06519-3.125688z" fill="#f78f04"/><path d="m-39.730646 16.120535c-1.55171 2.036274-2.04014 4.015009-1.63135 5.841232l2.97326-2.183885c-.68459-.714897-1.21595-1.755383-1.34191-3.657347z" fill="#dc4a04"/><path d="m-33.231616 22.935305c1.92792-.0021 3.93491.359387 5.63073-.710419-.88061 1.30066-1.87682 2.214625-3.73627 3.025862z" fill="#fff"/><path d="m-33.021126 20.119937c.93956.587691 1.06136 1.405737 5.34131 1.052473.31421.332546.31705.684861.0789 1.052475-1.46564.974797-3.72003 1.038253-5.48694.65433z" fill="#f25900"/><path d="m-27.679816 21.172411c.32115.605362.004.897717-.19536 1.195391 1.11516.148883 1.30231-1.498113.19536-1.195391z" fill="#656465"/><path d="m-14.779771 24.777973c-.30325-.69864-.63093-1.388672-1.10547-2.027344-.57333-.771632-1.28502-1.495305-2.16406-2.158203-.95553 1.692586-1.54491 3.507989-2.00977 5.283203-.46485 1.775213-.80496 3.509498-1.26367 5.044921-.22936.767711-.48797 1.485504-.80664 2.132813-.31867.647308-.69746 1.224333-1.16602 1.710937-.46855.486605-1.02802.882372-1.70703 1.167968-.679.285598-1.47771.461572-2.42773.50586-1.13442.03885-2.26664-.260463-3.29492-.802735-1.02829-.542272-1.95214-1.327304-2.67188-2.261718-.71974-.934415-1.23458-2.018669-1.44336-3.15625-.10439-.568791-.13356-1.150226-.0723-1.734376.0613-.584149.21255-1.170206.46484-1.746093 1.84779-.09575 3.97842-.0167 5.16992.201172-.92047-.701371-1.64272-1.43851-2.16015-2.210937-.51744-.772429-.82993-1.580282-.92774-2.421874-.0978-.841593.019-1.718087.35742-2.626954.33841-.908867.89825-1.849971 1.68946-2.824219-.76814.223902-1.53408.458538-2.26368.81836-.72959.359822-1.42282.844829-2.04882 1.566406-.52703-.34418-1.17262-.524247-1.86914-.554688-.69653-.03044-1.44383.08854-2.17383.34375-.73.255215-1.44285.647373-2.07031 1.160157-.62747.512783-1.16969 1.146404-1.5586 1.888672-.25663.439022-.47369 1.070802-.67969 1.722657v11.710936c0 3.08865 2.48557 5.574219 5.57422 5.574219h17.05274c3.08865 0 5.57617-2.485569 5.57617-5.574219z" fill="#ef5a00" fill-rule="evenodd"/></g></svg>