<svg height="32" width="32" xmlns="http://www.w3.org/2000/svg"><g fill-rule="evenodd"><rect fill="#0074af" height="28.203388" ry="5.575182" width="28.203388" x="1.898306" y="1.898306"/><path d="m9.1347656 10.876953c-.4693599 0-.8476562.37812-.8476562.847656v8.550782c0 .469536.3782963.847656.8476562.847656h13.7304684c.46936 0 .847657-.37812.847657-.847656v-8.550782c0-.469536-.378297-.847656-.847657-.847656z" fill="#2666ad"/><path d="m8.2871094 1.8984375h-.8144532c-3.0886508 0-5.5742187 2.4855679-5.5742187 5.5742187v17.0546878c0 3.088651 2.4855679 5.574218 5.5742187 5.574218h.8144532v-7.042968c0-.469536.3782963-.847656.8476562-.847656h13.7304684c.46936-.000001.847657.37812.847657.847656v7.042968h.814453c3.088651.000001 5.574218-2.485567 5.574218-5.574218v-17.0546878c.000001-3.0886508-2.485567-5.5742187-5.574218-5.5742187h-.814453v7.0429687c0 .4695351-.378297.8476563-.847657.8476563h-13.7304684c-.4693599 0-.8476562-.3781212-.8476562-.8476563zm.8476562 8.9785155h13.7304684c.46936 0 .847657.37812.847657.847656v8.550782c0 .469536-.378297.847656-.847657.847656h-13.7304684c-.4693599 0-.8476562-.37812-.8476562-.847656v-8.550782c0-.469536.3782963-.847656.8476562-.847656z" fill="#5b5b5b"/></g><g fill="#fff" stroke-width="1.090112" transform="matrix(.9172524 0 0 .91742125 -35.180238 1.115963)"><g fill="#fff" stroke="#4e4e4e" stroke-linecap="round" stroke-width=".218022"><rect height="2.671599" ry=".44884" width="3.67068" x="42.149681" y="8.693128"/><rect height="2.671599" ry=".44884" width="3.67068" x="42.149681" y="16.952927"/><rect height="2.671599" ry=".44884" width="3.67068" x="42.149681" y="21.082827"/><rect height="2.671599" ry=".44884" width="3.67068" x="42.149681" y="25.212725"/><rect height="2.671599" ry=".44884" width="3.67068" x="42.149681" y="12.823028"/><rect height="2.671599" ry=".44884" width="3.67068" x="42.149681" y="4.56323"/></g><g fill="#fff" stroke="#4e4e4e" stroke-linecap="round" stroke-width=".218022"><rect height="2.671599" ry=".44884" width="3.67068" x="65.774307" y="8.693128"/><rect height="2.671599" ry=".44884" width="3.67068" x="65.774307" y="16.952927"/><rect height="2.671599" ry=".44884" width="3.67068" x="65.774307" y="21.082827"/><rect height="2.671599" ry=".44884" width="3.67068" x="65.774307" y="25.212725"/><rect height="2.671599" ry=".44884" width="3.67068" x="65.774307" y="12.823029"/><rect height="2.671599" ry=".44884" width="3.67068" x="65.774307" y="4.56323"/></g></g><g transform="translate(34.985398 .518555)"><path d="m-18.488281 5.3710938c-1.558961 5.0327692-5.36895 8.6765052-6.408203 12.2792972a6.1711135 6.1711135 0 0 0 -.166016.71289c-.01809.100087-.03174.20059-.04492.300781a6.1711135 6.1711135 0 0 0 -.03906.50586c-.0073.164353-.01148.329045-.0039.49414a6.1711135 6.1711135 0 0 0 6.16211 5.927735 6.1711135 6.1711135 0 0 0 6.171875-6.171875 6.1711135 6.1711135 0 0 0 -.02539-.521484c-.03266-4.122563-4.567103-7.769776-5.646484-13.5273442z" fill="#f0c612"/><path d="m-19.550082 10.717211c-1.158872 4.376494 2.677431 13.411631-1.176711 12.210122-5.306283-1.140366-2.142602-5.695533 1.176711-12.210122z" fill="#fff"/></g><path d="m3.4993745-10.35894c-.01364-.437689-.02478-1.538914-.02478-2.447164v-1.65136l-.103585-.000257c-.05697-.000138-.244587-.03407-.416915-.07538-1.2845343-.307946-2.3046983-1.380828-2.5480983-2.67977-.05308-.28326-.05921-.673132-.04892-3.106765.01288-3.046764.0022-2.896241.24327-3.479734.349404-.846295 1.072417-1.561668 1.9048363-1.884701.611403-.237265.351762-.22811 6.130071-.216118l5.2548245.01085.275594.08522c1.287041.39798 2.216501 1.433505 2.437826 2.71602.05006.290053.05676.732336.04645 3.062792-.0118 2.676379-.01356 2.729029-.09542 3.025136-.182601.660084-.622578 1.353839-1.115995 1.759706-.435944.358591-.816048.552124-1.407479.716627-.281758.07837-.372805.08159-2.68709.09503l-2.3954535.01393-.80747.722653c-.444108.397462-1.60494 1.436732-2.57963 2.309491-.974687.872756-1.831801 1.639198-1.904697 1.703199l-.132527.116374z" fill="#fff"/></svg>