<svg height="32" width="32" xmlns="http://www.w3.org/2000/svg"><g fill-rule="evenodd"><rect fill="#e9e5dc" height="28.203388" ry="5.575182" width="28.203388" x="1.898306" y="1.898306"/><path d="m27.492188 29.130859-11.074219-11.070312-11.3906252 11.421875c.7451163.368073 1.5550047.619141 2.4453124.61914h17.0546878c1.117198.000001 2.094541-.409393 2.964844-.970703z" fill="#2095f2"/><path d="m29.722656 26.412109-10.832031-10.832031-2.472656 2.480469 11.074219 11.070312c1.014261-.654156 1.813546-1.564239 2.230468-2.71875z" fill="#ffe500"/><path d="m29.453125 4.9863281-10.5625 10.5937499 10.832031 10.832031c.214372-.593623.378906-1.215309.378906-1.884765v-17.0546878c0-.9085312-.266103-1.7299548-.648437-2.4863281z" fill="#00a31c"/><path d="m27.029297 2.5566406-24.482422 24.4589844c.5428459 1.073127 1.4014901 1.933802 2.4804688 2.466797l24.4257812-24.4960939c-.532314-1.0530811-1.372793-1.8939636-2.423828-2.4296875z" fill="#fff"/><path d="m7.4726562 1.8984375c-3.0886508 0-5.5742187 2.4855679-5.5742187 5.5742187v17.0546878c0 .909117.2656412 1.731549.6484375 2.488281l24.482422-24.4589844c-.760438-.3876035-1.586761-.6582031-2.501953-.6582031z" fill="#e9e5dc"/></g><g stroke-width="1.735291" transform="matrix(.57627225 0 0 .57627225 34.443308 8.685638)"><path d="m-43.033818-6.8220339c-4.4183 0-8.0001 3.517-8.0001 7.8553 0 .2711.02272.5214.04992.7855.02192.2628.05728.5282.1.7855.91598 5.5214 4.6501 9.4315999 7.8502 12.5739999 3.2-3.1421 6.934-7.0522999 7.85-12.5739999.04272-.2573.07808-.5227.1-.7855.02736-.2641.04992-.5144.04992-.7855 0-4.338-3.582-7.855-8-7.855z" fill="#f34235" stroke-width="1.735291"/><path d="m-43.033818-2.8220339c1.6568 0 3 1.3432 3 3 0 1.6569-1.3431 3-3 3s-3-1.3431-3-3c0-1.6568 1.3431-3 3-3z" fill="#fff" stroke-width="1.735291"/></g></svg>