<svg height="32" width="32" xmlns="http://www.w3.org/2000/svg"><rect fill="#267eb6" fill-rule="evenodd" height="28.203388" ry="5.575182" width="28.203388" x="1.898306" y="1.898306"/><path d="m21.207585 22.548425c1.320265-.75731 3.322974-2.528601 3.322974-2.938995 0-.199827-.344078-.05719-1.019328.422581-2.346197 1.666968-3.276449 1.77721-3.26749.387221.01107-1.717112 1.791861-4.854177 4.387234-7.728596l1.420685-1.573435-.396626-.679118c-.218145-.373515-.548181-.7083048-.733412-.7439775-.473782-.091242-4.055591 2.9770165-6.310889 5.4060525-1.042811 1.123143-1.92891 2.00919-1.969108 1.968991-.0402-.0402.376614-.832638.926249-1.760977 2.196531-3.709963 2.652072-5.050084 1.922475-5.655595-.175508-.1456594-.537979-.2099016-.805491-.1427602-.8278.2077641-3.1978 2.3306412-4.884079 4.3748102-.885207 1.073079-1.634626 1.926364-1.665376 1.896188-.03075-.03018.390989-.998277.9372-2.151339.851761-1.798086.977622-2.233879.884294-3.06188-.062454-.554088-.288521-1.1451111-.530604-1.3871934-.378341-.3783414-.518109-.3958512-1.356901-.169988-.514312.1384901-1.68496.6288154-2.6014383 1.0896114-.9164782.460797-1.7335853.837811-1.815793.837811-.082207 0 .084643-.258568.3707792-.574595l.5202471-.5745947-.6437869.4463167c-1.1257045.780415-1.6547926 1.507271-1.8473226 2.537834-.1029934.551298-.1347274 1.087361-.07052 1.19125.1613029.260993 1.1991332-.203484 3.562387-1.594333 2.8925495-1.702356 3.3289165-1.766602 3.1864885-.469141-.09888.9008-2.17725 4.354612-4.5487791 7.559126l-.6688056.903719.3719714.973992c.2045843.535697.5011288.973994.6589879.973994.1578595 0 1.1169645-1.2405 2.1313454-2.756666 2.097108-3.134489 4.894386-6.602324 5.907673-7.323847.520364-.370533.744415-.427579.934148-.237846.355138.355139-.767724 2.438659-2.99213 5.552027-.987535 1.382193-1.856808 2.739104-1.931721 3.015359-.153598.566424.262344 2.180163.561937 2.180163.10749 0 .989811-.989821 1.960716-2.199604 1.926924-2.401022 6.61916-7.242602 7.019196-7.242602.453367 0 .265168.331511-1.285133 2.263751-2.655808 3.310103-3.45716 5.854165-2.230413 7.080913.683475.683474 1.268966.662067 2.588159-.09463z" fill="#fff"/></svg>