<svg height="32" width="32" xmlns="http://www.w3.org/2000/svg"><rect fill="#ffb706" fill-rule="evenodd" height="28.203388" ry="5.575182" width="28.203388" x="1.898306" y="1.898306"/><g stroke-width="1.406153" transform="matrix(.71116039 0 0 .71116039 4.620809 4.621434)"><path d="m324.48 51.943-146.49-51.658c-1.076-.38-2.25-.38-3.326 0l-146.49 51.658c-1.999.705-3.337 2.595-3.337 4.715 0 52.278 13.834 112.71 37.956 165.8 19.566 43.069 54.751 100.52 111.25 129.62.719.37 1.504.555 2.29.555s1.571-.185 2.29-.555c56.496-29.106 91.68-86.556 111.25-129.62 24.121-53.094 37.955-113.53 37.955-165.8 0-2.12-1.338-4.01-3.337-4.715z" fill="#4f4f4f" transform="matrix(.072611 0 0 .073729 3.1972 3)"/><path d="m324.48 51.943-146.49-51.658c-1.076-.38-2.25-.38-3.326 0l-146.49 51.658c-1.999.705-3.337 2.595-3.337 4.715 0 52.278 13.834 112.71 37.956 165.8 19.566 43.069 54.751 100.52 111.25 129.62.719.37 1.504.555 2.29.555s1.571-.185 2.29-.555c56.496-29.106 91.68-86.556 111.25-129.62 24.121-53.094 37.955-113.53 37.955-165.8 0-2.12-1.338-4.01-3.337-4.715z" fill="#ffb706" transform="matrix(.039606 0 0 .0397 9.0166 9)"/><path d="m10.412846 9.4102575 2.297622-1.326533 10.612264 18.3809805.509355 3.535295-2.806977-2.208762z" fill="#fff"/><path d="m8.7475797 2.0049715c-.083017.010401-.1650068.038314-.2422481.082908l-1.1827389.681403c-.3089634.1783801-.4141502.570642-.2357706.8796054l2.000163 3.4627175-1.7410746 1.0052632c-.3089634.1783802-.4141502.570642-.23577.8796055l.6826976 1.1827389c.1783802.308963.570642.414151.8796055.235771l5.7776734-3.3357646c.308963-.1783801.41415-.570642.235771-.8796054l-.682699-1.1827389c-.17838-.3089634-.570642-.4141507-.879605-.2357705l-1.739779 1.0039678-1.998868-3.4627175c-.1337848-.2317226-.3883067-.348588-.6373573-.3173834z" fill="#3f3f3f"/><path d="m21.619241 9.4102575-2.297622-1.326533-10.6122639 18.3809805-.5093555 3.535295 2.8069774-2.208762z" fill="#fff"/><path d="m23.284507 2.0049715c.08302.010401.165007.038314.242248.082908l1.182739.6814027c.308964.1783801.414151.570642.235771.8796054l-2.000163 3.4627175 1.741075 1.0052632c.308963.1783802.41415.570642.23577.8796055l-.682698 1.1827392c-.17838.308963-.570642.414151-.879606.235771l-5.777673-3.3357646c-.308963-.1783801-.41415-.570642-.235771-.8796054l.682699-1.1827389c.17838-.3089634.570642-.4141507.879605-.2357705l1.739779 1.0039678 1.998868-3.4627175c.133785-.2317226.388307-.348588.637357-.3173834z" fill="#3f3f3f"/></g></svg>