<svg height="22" width="22" xmlns="http://www.w3.org/2000/svg"><path d="m4 1.5c-.554 0-1 .446-1 1v18c0 .554.446 1 1 1h14c .554 0 1-.446 1-1v-13l-5.5-.5-.5-5.5z" opacity=".2"/><path d="m4 1c-.554 0-1 .446-1 1v18c0 .554.446 1 1 1h14c .554 0 1-.446 1-1v-13l-5.5-.5-.5-5.5z" fill="#e4e4e4"/><path d="m4 1c-.554 0-1 .446-1 1v .5c0-.554.446-1 1-1h9l5.5 5.5h.5l-6-6z" fill="#fff" opacity=".2"/><path d="m13 1.5v5c0 .5523.44772 1 1 1h5z" opacity=".2"/><path d="m13 1v5c0 .5523.44772 1 1 1h5z" fill="#fafafa"/><g fill="#267edb"><path d="m6 9.5h1v9.5h-1z"/><path d="m6 9h2v1h-2z"/><path d="m6 18h2v1h-2z"/><g transform="scale(-1 1)"><path d="m-16 9.5h1v9.5h-1z"/><path d="m-16 9h2v1h-2z"/><path d="m-16 18h2v1h-2z"/></g></g><path d="m9 11.5 2.5 5" fill="none" stroke="#3f3f3f"/><path d="m13.5 11.5s-2 7-3.5 7h-.5" fill="none" stroke="#3f3f3f"/><path d="m18 11.561956a.5.5 0 0 1 -.5.5.5.5 0 0 1 -.5-.5.5.5 0 0 1  .5-.5.5.5 0 0 1  .5.5z" fill="#267edb"/><path d="m18 16.561956a.5.5 0 0 1 -.5.5.5.5 0 0 1 -.5-.5.5.5 0 0 1  .5-.5.5.5 0 0 1  .5.5z" fill="#267edb"/></svg>