<svg height="22" width="22" xmlns="http://www.w3.org/2000/svg"><path d="m4 1.5c-.554 0-1 .446-1 1v18c0 .554.446 1 1 1h14c .554 0 1-.446 1-1v-13l-5.5-.5-.5-5.5z" opacity=".2"/><path d="m4 1c-.554 0-1 .446-1 1v18c0 .554.446 1 1 1h14c .554 0 1-.446 1-1v-13l-5.5-.5-.5-5.5z" fill="#e4e4e4"/><path d="m4 1c-.554 0-1 .446-1 1v .5c0-.554.446-1 1-1h9l5.5 5.5h.5l-6-6z" fill="#fff" opacity=".2"/><path d="m13 1.5v5c0 .5523.44772 1 1 1h5z" opacity=".2"/><path d="m13 1v5c0 .5523.44772 1 1 1h5z" fill="#fafafa"/><g fill="#9c40d3" transform="matrix(.5 0 0 .5 -1 -1)"><path d="m28 22v3l4.5 4-4.5 4v3l7.9999-6.8672z"/><path d="m20 24v3l-4.5 4 4.5 4v3l-7.9999-6.8672z"/><path d="m29.99 14.77h2v16h-2z" transform="matrix(.96592583 .25881905 -.25881905 .96592583 0 0)"/></g></svg>