<svg height="16" viewBox="0 0 16 16" width="16" xmlns="http://www.w3.org/2000/svg"><path d="m2 0c-.554 0-1 .446-1 1v14c0 .554.446 1 1 1h12c .554 0 1-.446 1-1v-14c0-.554-.446-1-1-1h-5z" fill="#745145"/><path d="m3 0v7h2v-7z" fill="#ff3434"/><path d="m2 0c-.554 0-1 .446-1 1v14c0 .554.446 1 1 1h1v-16z" opacity=".2"/><path d="m13.603 7c .12152.0074.2523 0 .39552.09928 1.279.55042.4212 2.0603-1.2091 3.2088-.0098-.21657-.09981-.68809-.09769-.89566 1.391-.95364 2.2045-1.8819 1.3181-2.2499-.93454-.38786-1.2247.67115-1.2411 2.2086-.0871.09028-.69018.49085-.78178.55413.03389-1.4019.77913-2.8329 1.4953-2.9149.03839-.0074.08022-.0074.12072-.0074m-1.302 2.4392.29095-.11331.24118.16256.04871.5115-.30472.23378-.12655.16971c-.93824.62243-1.7375 1.1019-2.7893 1.498l-.65576.09743h-.43153c-.3979-.23457-.16069-.32485-1.6062-.50515l1.629.12629c1.2565-.48715 2.5389-1.1869 3.7053-1.9502m-2.8672 2.0402c-.1885 0-1.6583-.12761-2.2432-.18162-.57872-.09028-1.2896-.11728-1.1551.55942-.15302-.36086.19591-.9735.69203-1.0815.76722-.17156 1.9845.29864 2.4221.44293m-.70527.18744c.22821.09028.74948.15541.99569.23669-.3488.181-2.1014.828-2.8249.693-.1157 0-.6042-.351-.6161-.604.03759.46014 2.1799.11728 2.4454-.33385m-.47653.0082c.1877-.09028 1.0669-.08578 1.2607-.15779 1.1008.38522 2.5818 1.2893 3.6415 1.8991l.3071.09028c.0593.42122.31875.56631.55543.839l-.35872.36086-.28063-.46014c-1.2408-.74872-3.6937-1.9586-5.1243-2.5395m5.1243 2.5395c.1517.09028.29651.18056.43391.27058.31822.90307.68912 1.5112 1.0433 1.485-.54722.26158-1.7258-1.0275-2.1232-2.2401m2.1232 2.2401c.83473-.49615-.93215-1.4005-1.329-1.6629-.08922-.25257.15487-.67115.07519-.969 1.2461.77599 1.9826 1.8983 1.5646 2.4307-.1006.12629-.20729.18956-.31292.19856m-1.2125-1.8903c-.05798-.23245-.82758-.76143-.96657-.84271-.18611-1.4659-.19511-1.6108-.35316-2.7503.09451-.09028.67668-.54407.76669-.60708.11172 1.2179.32193 2.8683.61923 3.9708" fill="#ff3434"/></svg>