<svg height="16" viewBox="0 0 16 16" width="16" xmlns="http://www.w3.org/2000/svg"><path d="m7.1738281 2c-1.8308814.0224355-3.4000867 1.2246793-4.1855469 2.4980469-1.7466137.7767173-2.9882812 2.5345876-2.9882812 4.5371093 0 2.6966718 2.2430149 4.9648438 4.953125 4.9648438h6.09375c2.71009 0 4.953125-2.268245 4.953125-4.9648438 0-2.6074066-2.110602-4.7688384-4.699219-4.9121093-.065026-.0331104-.138325-.0383254-.205078-.0683594-1.2053565-1.3494022-2.0696215-2.0397403-3.9199218-2.0546875 0 0-.00162 0-.00195 0-.0003255 0-.0000031 0-.0000031 0z" fill="#006680"/><path d="m7.1749 5c-1.0787 0-1.9531.87989-1.9531 1.9653.0015.049575.00505.098386.01047.1464-.088872-.01797-.18179-.03227-.27916-.04229-1.0787 0-1.9531.87989-1.9531 1.9653s.87444 1.9653 1.9531 1.9653h6.0938c1.0787 0 1.9531-.87989 1.9531-1.9653s-.87444-1.9653-1.9531-1.9653c-.21516.00665-.41571.051805-.59929.1276-.274-.3485-.6974-.5722-1.173-.5722-.0604.0033-.1185.0053-.1745.0103-.1561-.9281-.9588-1.635-1.9256-1.635z" fill="#33b3bc"/></svg>