<svg height="16" width="16" xmlns="http://www.w3.org/2000/svg"><path d="m13.379157 3.0016354c-.381704.0146896-.751193.1387191-1.064638.3573767-.595949.4162018-1.415086.9335788-2.158525 1.4334125-.137675-.1781483-.1902838-.3407572-.3665797-.5175128-.5826291-.5841475-1.4788071-1.1121233-2.4958561-1.2342189-1.7293756-.2074732-3.3266177.4757627-4.3735977 1.4177895-1.0469799.9420268-1.6886963 2.073763-2.18582381 3.0835945h-.00195c-.0370355.07531-.28068695.544869-.46602311 1.1248577-.18533617.5799887-.44766405 1.3451714-.0838452 2.4450034.20604408.623009.70931671 1.191675 1.20893022 1.478329.4996136.286654.9544973.364436 1.335673.394481.7615127.06002 1.3268757-.07 1.7548988-.165995 1.2399836-.276998 2.2294514-.667146 3.2075649-1.165868.531228.577293 1.1901217 1.1049 2.3515647 1.279136.796989.138335 1.246185.01558 1.754899-.107409.525113-.126948 1.01717-.288896 1.532611-.572193.724674-.495784 1.356368-1.168077 2.022033-1.779072 1.266758-1.16392.570704-3.2803515-1.138733-3.4624529.205295-.1997649.43183-.3752078.645412-.5858636 1.299411-1.2816886.344414-3.4936659-1.478015-3.4233951z" fill="#4f4f4f"/><path d="m14 9-1.63631 1.5c-.550531.30212-1.556785.55891-2.013098.47203-.640233-.088-1.3412282-.746-1.8553568-1.3964-.6504877-.8236-1.1986516-1.7879-1.7861959-2.6809-.4922021-.6777-1.1109454-1.34-2.3073061-.5267-.4083139.2635-.8070281.7376-1.1161816 1.2449-.4938383.8097.3665335 1.8943 1.1688708 1.8871 3.3113458-.02982 6.9881346-3.0973 8.9997046-4.5-1.819686 1.792-2.797326 2.8202-6.521786 4.8149-.9173153.4821-1.7234707.7901-2.9025956 1.0531-.7056859.158-1.7447428.304-1.9722989-.383-.2370468-.7155.328571-1.8192.4463853-2.0584.8894981-1.8041 2.2177454-3.6772 4.5402147-3.399 2.2149091.26549 2.3193057 3.4347 3.9725245 4.2676.814075.41004 1.421298.45428 2.982993-.29516z" fill="#d1ff42"/></svg>