<svg height="16" viewBox="0 0 16 16" width="16" xmlns="http://www.w3.org/2000/svg"><path d="m8.0003245 8c-.4643063-.0000804-.9286361.0984588-1.2722318.2947984l-5.2130172 2.9783616c-.68719247.392679-.68655411 1.061291.0006373 1.453971l5.2123773 2.97836c.6871918.392679 1.8572734.392678 2.5444641 0l5.2123788-2.97836c.68719-.392678.686543-1.061294-.000664-1.453971l-5.2117126-2.9783616c-.3435957-.1963396-.8079252-.294718-1.2722319-.2947984z" fill="#ea6e41"/><path d="m8.0003245 3.9999999c-.4643063-.0000804-.9286361.0984588-1.2722318.2947984l-5.2130172 2.9783613c-.68719247.3926788-.68655411 1.0612916.0006373 1.4539709l5.2123773 2.9783605c.6871918.392679 1.8572734.392678 2.5444641 0l5.2123788-2.9783605c.68719-.3926781.686543-1.0612933-.000664-1.4539709l-5.2117126-2.9783613c-.3435957-.1963396-.8079252-.294718-1.2722319-.2947984z" fill="#aed351"/><path d="m8.0003245 0c-.4643063-.0000804-.9286361.0984588-1.2722318.29479841l-5.2130172 2.97836109c-.68719247.3926788-.68655411 1.0612916.0006373 1.4539709l5.2123773 2.9783608c.6871918.3926784 1.8572734.392678 2.5444641 0l5.2123788-2.9783608c.68719-.3926781.686543-1.0612933-.000664-1.4539709l-5.2117126-2.97836109c-.3435957-.19633961-.8079252-.29471801-1.2722319-.29479841z" fill="#3b9dda"/></svg>