<svg height="16" width="16" xmlns="http://www.w3.org/2000/svg"><path d="m8 0c-4.432 0-8 3.568-8 8s3.568 8 8 8 8-3.568 8-8-3.568-8-8-8z" fill="#154277"/><circle cx="8" cy="8" fill="#f5ca4a" r="2"/><path d="m12.832031 1.6269531-1.011719 1.7539063-1.019531 1.7675781a4 4 0 0 1 1.199219 2.8515625 4 4 0 0 1 -.150391 1.0703125l1.769532 1.0195315a6 6 0 0 0  .380859-2.089844 6 6 0 0 0 -.808594-2.9902344l1.115235-1.9316406c-.42612-.5460104-.922486-1.0325727-1.47461-1.4511719zm-9.753906.0664063c-.5460104.4261193-1.0325727.9224853-1.4511719 1.4746094l1.7539063 1.0117187 1.7675781 1.0195313a4 4 0 0 1 2.8515625-1.1992188 4 4 0 0 1 1.0703125.1503906l1.0195315-1.7695312a6 6 0 0 0 -2.089844-.3808594 6 6 0 0 0 -2.9902344.8085938zm-.6972656 4.2167968a6 6 0 0 0 -.3808594 2.0898438 6 6 0 0 0  .8085938 2.990234l-1.1152344 1.931641c.4257981.545599.9210334 1.032782 1.4726562 1.451172l2.0332032-3.521485a4 4 0 0 1 -1.1992188-2.851562 4 4 0 0 1  .1503906-1.0703125zm8.4707026 4.8906248a4 4 0 0 1 -2.851562 1.199219 4 4 0 0 1 -1.0703125-.150391l-1.0195313 1.769532a6 6 0 0 0 2.0898438.380859 6 6 0 0 0 2.990234-.808594l1.931641 1.115235c.54601-.42612 1.032573-.922486 1.451172-1.47461l-1.753906-1.011719z" fill="#5286fe"/></svg>