<svg height="16" width="16" xmlns="http://www.w3.org/2000/svg"><path d="m3.1 2c-.4112261.1500264.3900668 3.0286814.052 3.217955-.5889268.2349196-1.152.782045-1.152.782045v3s2.6853716 1.16951 4.6499344 1.402758c.3938208.04692-6.63306308 3.6-6.63306308 3.6 1.97958628.000499 22.10588368-5.0288294 14.11715868-8.7913418-1.372284-.7304904-3.386711-1.2114162-5.63179-1.2114162-1.1280548 0-2.1647176.1358558-3.0835332.3443562-.4420976.100322-1.9342696-2.4846144-2.3187068-2.3443562z" fill="#28aeae"/><path d="m2 6v-.997242h-1.99999996v5h1.99999996v-1.002758c3.4325744-.561802 5.0403316-.8187159 5-1.5213038-.039396-.6862691-1.647152-.9293937-5-1.4786962z" fill="#3f3f3f"/><path d="m12.023438 4.428539c-.01131.09102-.02301.1850228-.02344.25625.00084 1.3163144 1.756735 2.2038682 3.996093 2.315211.029-.6757524-.515701-1.1547042-1.861718-1.7886486-.592845-.3155836-1.311567-.5796248-2.110935-.7828124z" fill="#3f3f3f"/></svg>