<svg height="16" viewBox="0 0 16 16" width="16" xmlns="http://www.w3.org/2000/svg"><path d="m5.4169917-.00000006-1.3742824 1.22635986c-.0182309.0058961-.1525021-.1039444-.2989667-.1460937-.3925637-.11296235-.8909926-.09368115-1.2296209.0570313-.2215195.0985852-.3073899.1679579-.8342137.6749998-.5678345.5465-.6799066.6776415-.6799081.7937499 0 .030068.2051894.3233827.3061997.553125l.1832378.4179683-.2354765.6328126c-.1294729.3480079-.2412073.6518454-.2491389.675781-.0200859.060986 1.8182847 7.140056 1.9143515 7.363481.1743971.405578.4485604.769288.8036737 1.067187.3206448.268978 3.5748245 2.444628 3.8970147 2.605468.095359.04761.248972.07511.3801379.07813.1311689-.003.2847785-.03052.3801375-.07813.3221902-.16084 3.5763697-2.336492 3.8970147-2.605468.355114-.297899.629277-.661609.803674-1.067187.09606-.223425 1.934438-7.302495 1.914353-7.363481-.0079-.023936-.119667-.3277731-.24914-.675781l-.235477-.6328126.183237-.4179683c.101016-.2297423.306201-.523055.306201-.553125-.000001-.1161088-.112067-.2472499-.679907-.7937499-.526825-.5070419-.612696-.5764146-.834215-.6749998-.338628-.15071245-.837057-.16999365-1.229622-.0570313-.146463.0421493-.280736.1519899-.298967.1460937l-1.374281-1.22635986h-2.5830082z" fill="#ee5132"/><path d="m8.5685354 12.568913s.6140259-.462562 1.1606756-.909541c.307533-.251537.356002-.315461.305744-.404501-.040238-.07111-1.032388-.628766-1.5067192-.84679-.4989148-.22922-.5513274-.229598-1.0352964-.0038-.4339809.201229-1.4103966.75287-1.4923351.843158-.084603.09305-.042001.178534.1712226.343452.4392462.339669 1.2813425.992643 1.2813425.992643.5725874.557503.5281255.55807 1.1153656-.01513zm-2.3016427-1.994591c.595484-.319621.6845076-.385929 1.1397201-.8466006.3826859-.387215.4535005-.50243.399054-.649154-.018421-.04955-.306001-.352529-.6390223-.673437-.7871122-.75809-.7541613-.451102-.4546568-1.273948.1778572-.4886244.2242913-.4519341.2236596-.5873856-.00107-.2046336-.067419-.3582033-.2010024-.4643783-.054166-.043121-.5297698-.2621276-1.0568927-.4870354-.5271232-.2246809-.9553879-.423565-.9516992-.4417589.0084-.041607.5897252-.1138534 1.0117261-.1259574l.3192095-.00757.5867952.2341371c.5120015.2042553.5924082.2462411.630824.329078.024208.052199.043692.1225532.043291.1562175-.0003584.034047-.095297.5190783-.2108673 1.078927-.2024322.980501-.2081362.819858-.1555102.879773.083495.09494.9020047.315461 1.1575384.293523.2918884-.02648.8881482-.228842.9483718-.296927.048681-.05523.039452.08246-.1588161-.8760664-.1157712-.5598487-.210818-1.0453334-.2112151-1.078922-.0003582-.034043.0192151-.1040189.0436085-.1565958.0384529-.082837.1140198-.1236879.5700198-.3056264.7351324-.2939007.7201874-.291253 1.3881914-.2235461.311493.03026.578837.070733.594098.086998.01638.018912-.0022.042742-.0456.061277-.04034.018912-.470087.2016068-.954984.4094933-.4848914.2076596-.9325468.4154704-.9947838.4614279-.1462846.1081796-.2172898.2621276-.2182846.4741749-.000716.1339007.045488.096076.2185229.5691156.1206279.329835.2193211.630544.2193211.668331 0 .152814-.099828.07641-.6531904.608114-.3179272.305626-.6001403.600435-.6271383.655395-.027007.05485-.042428.138818-.034269.186477.013995.08132.3947381.501976.7825959.8643416.1628482.152056 1.1494012.857607 1.3074482.886203.132358.0227.27382-.201608.505326-.420842.226992-.214846.362277-.429995.454253-.7221566.08626-.273853.06457-.458704-.106039-.902695-.130187-.338912-.164747-.524898-.121074-.651915.01002-.03026.362307-.410137.782825-.846525.916023-.9505812 1.134647-1.1209074 1.184867-1.2907041.05578-.1883688.01642-.4369929-.10874-.6867896-.299442-.5975981-1.542694-2.4685012-1.648304-2.4685012-.543983.0994799-.999231.3992435-1.5723972.5002364-.0450269.0000757-.2365504-.1335224-.4256144-.199338-.8072514-.2799055-1.069081-.3010875-1.225384-.3010875-.1563007 0-.4181329.022695-1.225384.3010875-.1890648.065437-.382675.199338-.4302419.199338-.5646623-.093428-.9832397-.424208-1.5677848-.5003877-.091132.068842-.8997091 1.3363215-1.2344846 1.8900804-.3936778.6511962-.5049356.7349409-.5369549.9828463-.044802.3468558.069105.4053334 1.2451973 1.6234515.3956123.409759.7273649.768454.7372247.797125.044127.128606.00927.321892-.1190127.661258-.1761778.465778-.1919584.59514-.1069239.876369.092467.3056266.2492217.5531166.4859922.7666006.2201721.198582.3053239.39739.4352314.400681.046491.0012.3081154-.267801.5813837-.414487z" fill="#fff"/></svg>