<svg height="16" viewBox="0 0 16 16" width="16" xmlns="http://www.w3.org/2000/svg"><g transform="translate(0 -1036.4)"><rect fill="#009688" height="16" rx="8" transform="matrix(0 -1 -1 0 0 0)" width="16" x="-1052.4" y="-16"/><path d="m6.75 1039.4-.1094 1.3203a3.9286 3.9286 0 0 0 -1.1523.6602l-1.1934-.5625-1.25 2.1641 1.084.752a3.9286 3.9286 0 0 0 -.0566.6659 3.9286 3.9286 0 0 0  .0586.6621l-1.0859.7558 1.25 2.1641 1.1973-.5625a3.9286 3.9286 0 0 0 1.1483.664l.1094 1.316h2.5l.10938-1.3203a3.9286 3.9286 0 0 0 1.1523-.6601l1.1934.5625 1.25-2.1641-1.084-.752a3.9286 3.9286 0 0 0  .057-.6664 3.9286 3.9286 0 0 0 -.059-.6621l1.0859-.7559-1.25-2.1641-1.1973.5625a3.9286 3.9286 0 0 0 -1.1486-.664l-.1094-1.3164h-2.5zm1.25 3c1.1046 0 2 .8954 2 2s-.89539 2-2 2-2-.8954-2-2 .8954-2 2-2z" fill="#fff"/></g></svg>