<svg height="16" viewBox="0 0 16 16" width="16" xmlns="http://www.w3.org/2000/svg"><path d="m8 0-.7619048 1-.8380952-.5-.5666668 1.2262c-1.7548188.3611-2.9947504 1.2092-4.0223199 2.5498-1.79730662 2.3449-1.8110133 6.3907-1.8110133 8.6764s4.190476 3.0476 8 3.0476 8-.7619 8-3.0476-.01372-6.3315-1.811013-8.6764c-1.02757-1.3406-2.267501-2.1887-4.02232-2.5498l-.566667-1.2262-.8380952.5z" fill="#81b427"/><circle cx="11.5" cy="8.5" fill="#fff" r="1.5"/><circle cx="8" cy="12.5" fill="#86572f" r="1.5"/><path d="m8.0000004 9.9999c-.076585.0001-.150514.035-.2047416.098l-1.7012171 1.7377c-.1820414.2101-.086301.831.1712383.8311l1.7347204.3333 1.7347207-.3333c.2575358-.0001.3532789-.621.1712383-.8311l-1.7012173-1.7377c-.054228-.063-.128157-.097-.2047417-.098z" fill="#ffc12e"/><path d="m11 8h1v1h-1z" fill="#3f3f3f"/><path d="m4.5 8a1.5 1.5 0 0 0 -1.5 1.5 1.5 1.5 0 0 0  .0878906.5 1.5 1.5 0 0 1 1.4121094-1 1.5 1.5 0 0 1 1.4121094 1 1.5 1.5 0 0 0  .0878906-.5 1.5 1.5 0 0 0 -1.5-1.5z" fill="#fff"/></svg>