<svg height="16" width="16" xmlns="http://www.w3.org/2000/svg"><rect fill="#e91e63" height="16" rx="8" transform="matrix(0 -1 -1 0 0 0)" width="16" x="-16" y="-16"/><path d="m7.4045 6.5286 1.6653 1.6654c.2408.2407.6309.2405.8716-.0002.2406-.2409.2406-.631.0003-.8717l-1.6654-1.6655c-1.1917-1.1918-3.1176-1.2112-4.3347-.0603-.011163.00945-.022325.019208-.032784.029666-.00513.00523-.00996.010559-.014883.015889-.00523.00503-.01076.00975-.015789.014682-.01066.01066-.020113.021621-.029566.032683-1.151 1.2173-1.1313 3.143.060338 4.3348l1.6654 1.6652c.24075.24075.63074.24075.87149 0 .24075-.24095.24095-.63104.0002011-.87159l-1.6653-1.6649c-.7266-.7266-.7316-1.9056-.015-2.6388.733-.7163 1.9121-.7114 2.6388.0153z" fill="#ff8bff"/><path d="m9.5539 4.3108c-.2408.2407-.2406.6309.0002.8716l1.6653 1.6653c.72667.72687.7312 1.9058.01478 2.639-.73311.71621-1.912.71149-2.6387-.015085l-1.6649-1.6654c-.24075-.24065-.63124-.24065-.87199 0-.24075.24095-.24075.63144 0 .87209l1.6653 1.6653c1.1918 1.1918 3.1177 1.2112 4.3345.06034.01116-.0096.02232-.01891.03289-.02967.0051-.0053.0098-.01046.01498-.01559.0051-.0052.01076-.01006.01599-.01508.01046-.01066.01971-.02172.02926-.03288 1.1512-1.2168 1.1316-3.1427-.06014-4.3345l-1.665-1.6657c-.241-.2409-.6315-.2409-.8721-.0001z" fill="#ff8bff"/></svg>