<svg height="16" width="16" xmlns="http://www.w3.org/2000/svg"><rect fill="#4f4f4f" height="16" rx="8" transform="matrix(0 -1 -1 0 0 0)" width="16" x="-16" y="-16"/><path d="m10.977 7.04-.02637.043945a4 4 0 0 1  .09961.86621 4 4 0 0 1 -.05469.63574 1.5 1.5 0 0 1 1.004 1.4141 1.5 1.5 0 0 1 -1.5 1.5 1.5 1.5 0 0 1 -1.0039-.389 4 4 0 0 1 -1.3789.695l-.0039.0059a3 3 0 0 0 2.3867 1.188 3 3 0 0 0 3-3 3 3 0 0 0 -2.5234-2.96z" fill="#3facd2"/><path d="m5.0078 7.0449a3 3 0 0 0 -2.5078 2.9551 3 3 0 0 0 3 3 3 3 0 0 0 2.3867-1.186 4 4 0 0 1 -1.4043-.684 1.5 1.5 0 0 1 -.9824.37 1.5 1.5 0 0 1 -1.5-1.5 1.5 1.5 0 0 1  .9551-1.3975 4 4 0 0 1 -.0547-.6523 4 4 0 0 1  .1074-.9053z" fill="#e16262"/><path d="m8 3a3 3 0 0 0 -3 3 3 3 0 0 0  .1689.9785 4 4 0 0 1 1.336-.8857 1.5 1.5 0 0 1 -.0049-.0928 1.5 1.5 0 0 1 1.5-1.5 1.5 1.5 0 0 1 1.5 1.5 1.5 1.5 0 0 1 -.0049.0938 4 4 0 0 1 1.3369.8837 3 3 0 0 0  .168-.9775 3 3 0 0 0 -3-3z" fill="#69db3e"/><circle cx="8" cy="6" fill="#a5e98c" r="1"/><circle cx="5.5" cy="10" fill="#eb9595" r="1"/><circle cx="10.5" cy="10" fill="#8ccde4" r="1"/></svg>