<svg height="16" viewBox="0 0 16 16" width="16" xmlns="http://www.w3.org/2000/svg"><path d="m7.5 0c-.8284271 0-1.5.67157288-1.5 1.5 0 .8284271.6715729 1.5 1.5 1.5.1773146 0 .3421041-.004823.5-.0195312v5.0195312h-5.0195312c.0147082-.1578959.0195312-.3226854.0195312-.5 0-.8284271-.6715729-1.5-1.5-1.5-.82842712 0-1.5.6715729-1.5 1.5 0 .1773146.00482298.3421041.01953125.5h-.01953125a8 8 0 0 0 8 8 8 8 0 0 0 8-8 8 8 0 0 0 -8-8v .01953125c-.1578959-.01470827-.3226854-.01953125-.5-.01953125z" fill="#4c91d9"/><circle cx="8" cy="8" fill="#fff" r="5"/></svg>