<svg height="16" width="16" xmlns="http://www.w3.org/2000/svg"><path d="m5.9998283 2.00001c-.3142998 0-.6288097.1171491-.8637562.3520899l-4.78398597 4.7845194c-.46989372.4698817-.46922697 1.256233.000675 1.7261155l4.78398597 4.7845192c.4698941.469883 1.2569463.470548 1.7268404.000674l4.7839925-4.7845111c.469893-.4698825.469894-1.2569069 0-1.726789l-4.7839952-4.784528c-.2349461-.2349408-.5494566-.3520899-.8637565-.3520899z" fill="#8e8e8e"/><rect fill="#fff" height="5.843" rx=".318" transform="matrix(.70710678 .70710678 -.70710678 .70710678 0 0)" width="5.843" x="6.98" y="-1.51"/><path d="m9.9998284 2.0000097c-.3142998 0-.6288097.1171491-.8637562.3520899l-4.7839862 4.7845195c-.4698936.4698817-.4692269 1.2562331.000675 1.7261155l4.7839862 4.7845194c.4698942.469883 1.2569458.470548 1.7268398.000674l4.783993-4.7845113c.469892-.4698825.469893-1.2569069 0-1.726789l-4.783996-4.7845281c-.234945-.2349408-.549456-.3520899-.8637556-.3520899z" fill="#e52e38"/></svg>