<svg height="16" viewBox="0 0 16 16" width="16" xmlns="http://www.w3.org/2000/svg"><path d="m8 0a8 8 0 0 0 -8 8 8 8 0 0 0  .59960938 3h14.80468762a8 8 0 0 0  .595703-3 8 8 0 0 0 -8-8zm-7.40039062 11a8 8 0 0 0  .078125.199219 8 8 0 0 1 -.078125-.199219z" fill="#a9ca4b"/><path d="m .59960938 11a8 8 0 0 0  .078125.199219 8 8 0 0 0 7.32226562 4.800781 8 8 0 0 0 7.328125-4.800781 8 8 0 0 0  .076172-.199219z" fill="#5a8730"/><path d="m11.072266 32c .581474.780169 3.27267 4.270739 4.849609 3.984375 1.222208-.221789.92399-3.150424.816406-3.984375z" fill="#fff" transform="matrix(.34617642 .00000002 -.00000001 .49987116 -.832957 -4.995922)"/><ellipse cx="172.5" cy="115" fill="#3f3f3f" rx="8.5" ry="17" transform="matrix(.11764706 0 0 .05882353 -16.294118 1.235294)"/><path d="m317.56868 170.64923c-.50716.60775.94601 1.4143 1.34518.64672.44663-.85884-.0474-2.02942-.56597-2.54579-.11396-.11371-.36282.013-.33031.15591.1368.60141-.11676 1.34518-.4489 1.74316z" fill="#4f4f4f" transform="matrix(-1.3891137 .65594744 .7028045 1.2964993 324.79543 -427.43584)"/><path d="m317.56868 170.64923c-.50716.60775.94601 1.4143 1.34518.64672.44663-.85884-.0474-2.02942-.56597-2.54579-.11396-.11371-.36282.013-.33031.15591.1368.60141-.11676 1.34518-.4489 1.74316z" fill="#4f4f4f" transform="matrix(1.3891137 .65594744 -.7028045 1.2964993 -308.79543 -427.43584)"/><path d="m11.072266 32c .581474.780169 3.27267 4.270739 4.849609 3.984375 1.222208-.221789.92399-3.150424.816406-3.984375z" fill="#fff" transform="matrix(-.34617642 .00000002 .00000001 .49987116 16.832957 -4.995922)"/><ellipse cx="172.5" cy="115" fill="#3f3f3f" rx="8.5" ry="17" transform="matrix(-.11764706 0 0 .05882353 32.294118 1.235294)"/></svg>