<svg height="16" width="16" xmlns="http://www.w3.org/2000/svg"><path d="m7.9655-.00002856c-3.065 0-6.536 2.55-7.2903 5.3727-.35502 2.1246.058457 3.6239 1.1308 4.6532.028743.30052.08612.60103.060937.90155-.0005715.0089-.00229.01771-.00286.02657-.00571.05652-.014286.11301-.027371.16953-.00571.02309-.014229.04646-.021086.06953-.012571.04297-.024914.08592-.042972.1289-.015086.03571-.036914.0713-.056229.10703-.017943.03331-.032743.06666-.054686.1-.045086.06825-.097732.13644-.16172.20469-.2499.264-.4686.431-.65612.539-.5625.325-.84378.125-.84378.525 0 .43333.98995 1.2186 1.8977.92578.13965-.04503.27754-.11511.40937-.21641.06592-.05063.13047-.10911.19297-.17578.11458-.12222.21408-.23645.30234-.34375.087315-.10519.1614-.2018.22813-.29376.015257.134.00646.30364-.058594.5625-.25882 1.0303-1.6273.9436-.97189 1.675.50785.56672 2.0259.58863 2.8656-.14766-.3347.759-.8435 1.214.1344 1.214 1.5 0 3-1.066 3-2.666 0 1.6 1.5 2.6664 3 2.6664.97795 0 .4691-.4551.13438-1.2141.83972.73629 2.3578.7144 2.8656.14766.65543-.73138-.71303-.64469-.97189-1.675-.06514-.2593-.07398-.42919-.05859-.56328.13543.18667.30432.39706.53047.63829 1 1.066 2.5-.001 2.5-.534 0-.53334-.5.000257-1.5-1.0664-.5581-.59532-.34475-1.1906-.30156-1.786 1.157-1.0463 1.5348-2.5344 1.0573-4.575-1.065-3.0254-4.225-5.3726-7.2906-5.3726z" fill="#fecd38"/><circle cx="5.5" cy="4.5" fill="#fff" r="1.5"/><ellipse cx="6.25" cy="4.5" fill="#3f3f3f" rx=".75" ry="1"/><circle cx="10.5002" cy="4.5" fill="#fff" r="1.5"/><ellipse cx="11.2502" cy="4.5" fill="#3f3f3f" rx=".75" ry="1"/></svg>