<svg height="16" width="16" xmlns="http://www.w3.org/2000/svg"><path d="m8 0h-7.2c-.4432 0-.8.3568-.8.8v7.2h8z" fill="#21d789"/><path d="m8 0h7.2c.4432 0 .8.3568.8.8v7.2h-8z" fill="#cf4f8c"/><path d="m8 16h-7.2c-.4432 0-.8-.3568-.8-.8v-7.2h8z" fill="#2086e7"/><path d="m8 16h7.2c.4432 0 .8-.3568.8-.8v-7.2h-8z" fill="#6655e4"/><path d="m2 2h12v12h-12z" fill="#3f3f3f"/><g fill="none" stroke="#fff" stroke-linecap="round"><path d="m3.5071212 11.5h3.9999998"/><path d="m3.5141702 7.503207s2.021892.175125 2-1.999999c-.02189-2.175132-2-2.0000015-2-2.0000015m-.007049 3.9967935v-3.999999" stroke-linejoin="bevel"/><path d="m9.007121 5.5h.999999m-.499999 0s .245452 2-1.000001 2c-.999999 0-.999999-1-.999999-2.000001 0-.999999 0-1.9999995.999999-1.9999995 1.000001 0 .996189.4999995.996189.4999995" stroke-linejoin="bevel"/></g></svg>