<svg height="16" width="16" xmlns="http://www.w3.org/2000/svg"><g enable-background="new" transform="translate(-16 -270)"><circle cx="24" cy="278" fill="#e4e4e4" r="8"/><circle cx="28" cy="277" fill="#6d4c41" r="3"/><circle cx="20" cy="277" fill="#6d4c41" r="3"/><path d="m24 517.99c-3.615 0-6 2.4426-6 5.4551v3.8281a8 8 0 0 0 6 2.72 8 8 0 0 0 6-2.7188v-3.832c0-3.0125-2.385-5.4551-6-5.4551z" fill="#a1887f" transform="translate(0 -244)"/><path d="m22.5 282h1.5v2h-1.5z" fill="#fff"/><path d="m24 281.75h1.5v2.25h-1.5z" fill="#f2f2f2"/><path d="m22.841 280c-.552-.02-.841 1.11-.841 1.78s.448 1.22 1 1.22c.50908 0 .99327-.54204.99327-.54204h.01412s.48379.5413.99262.54204c.552 0 1-.55 1-1.22 0-.67355-.27119-1.6735-.82322-1.6939z" fill="#6d4c41"/><path d="m24.99 279.51c.1.7-.556 1.49-.979 1.49-.42323 0-1.101-.78168-1.0005-1.4912.07699-.54369.57725-.50835 1.0005-.50835.42323 0 .90294-.0245.9792.50835z" fill="#3e2723"/><g transform="translate(0 1)"><circle cx="21.5" cy="276.5" fill="#fefefe" r="1.5"/><circle cx="-21.25" cy="276.25" fill="#333" r=".75" transform="scale(-1 1)"/></g><g transform="translate(5 1)"><circle cx="21.5" cy="276.5" fill="#fefefe" r="1.5"/><circle cx="-21.25" cy="276.25" fill="#333" r=".75" transform="scale(-1 1)"/></g></g></svg>