<svg height="16" width="16" xmlns="http://www.w3.org/2000/svg"><rect fill="#3e50b4" height="16" rx=".8" transform="matrix(0 -1 -1 0 0 0)" width="16" x="-16" y="-16"/><g fill="#ffbe4b"><path d="m-7.7525 7.5611.84972 1.7217 1.9.27609-1.3749 1.3402.32456 1.8923-1.6994-.89344-1.6994.89344.32456-1.8923-1.3749-1.3402 1.9-.27609z" transform="matrix(1.091 0 0 1.1472 14.458 -1.6738)"/><path d="m-7.7525 7.5611.84972 1.7217 1.9.27609-1.3749 1.3402.32456 1.8923-1.6994-.89344-1.6994.89344.32456-1.8923-1.3749-1.3402 1.9-.27609z" transform="matrix(1.091 0 0 1.1472 19.458 -6.6738)"/><path d="m-7.7525 7.5611.84972 1.7217 1.9.27609-1.3749 1.3402.32456 1.8923-1.6994-.89344-1.6994.89344.32456-1.8923-1.3749-1.3402 1.9-.27609z" transform="matrix(1.091 0 0 1.1472 19.458 .32623)"/></g></svg>