<svg height="16" viewBox="0 0 16 16" width="16" xmlns="http://www.w3.org/2000/svg"><circle cx="8" cy="8" fill="#e4e4e4" r="8"/><path d="m6 2v2c-.245847.01-.6980897 0-.9335938 0h-1.0664062v1s .3594181-.014995.3457031 0c .460129-.007.6066569.3260671.6542969.5488281v4.9511719c-.017635.140776-.0026497.49-.3242188.5.01485.013-.6757812 0-.6757812 0v1h1.1269531c.275102-.01.6072879 0 .8730469 0v2l1-.01758v-1.98242h.984375l.03125 2h1l-.03125-2c1.907812-.138476 3.015625-.366372 3.015625-2.5 0-1.5-1.000911-1.999045-2.183797-2 .750318-.056825 1.183256-.5 1.183594-1.75.000203-.75-.433276-1.75-1-1.75h-.999797v-2h-1v2c-.298624-.000005-.69683-.011-1 0v-2zm1 3c1.410185 0 2.000138.0000152 2 1 .000138 1.000066-.730627 1-2 1zm0 3c2 .000075 3.000208.000023 3 1.5.000208 1.500099-1 1.5-3 1.5z" fill="#1488c4"/></svg>