<svg height="16" viewBox="0 0 16 16" width="16" xmlns="http://www.w3.org/2000/svg"><path d="m7.5.99999981a7.5 7.5 0 0 0 -7.5 7.49999999 7.5 7.5 0 0 0 7.5 7.5000002 7.5 7.5 0 0 0 7.5-7.5000002 7.5 7.5 0 0 0 -7.5-7.49999999z" fill="#afba0d"/><g fill="#3f3f3f"><path d="m7 8.0000004v7.9430136a5 9.4117639 0 0 0  .5.056986 5 9.4117639 0 0 0  .5-.046875v-7.9531246z"/><circle cx="7.5" cy="8.5" r="1.5"/><path d="m5.2441406 3.4882812a5.5 5.5 0 0 0 -3.2441406 5.0117188 5.5 5.5 0 0 0 3.2460938 5.009766l.4453124-.892578a4.5 4.5 0 0 1 -2.6914062-4.117188 4.5 4.5 0 0 1 2.6933594-4.1152344zm4.5097656.0019532-.4453124.8925781a4.5 4.5 0 0 1 2.6914062 4.1171875 4.5 4.5 0 0 1 -2.6933594 4.115234l.4492188.896485a5.5 5.5 0 0 0 3.2441406-5.011719 5.5 5.5 0 0 0 -3.2460938-5.0097656zm-3.6171874 1.7851562a3.5 3.5 0 0 0 -2.1367188 3.2246094 3.5 3.5 0 0 0 2.140625 3.220703l.4472656-.896484a2.5 2.5 0 0 1 -1.5878906-2.324219 2.5 2.5 0 0 1 1.5859375-2.3261719zm2.7226562.0039063-.4472656.8964843a2.5 2.5 0 0 1 1.5878906 2.3242188 2.5 2.5 0 0 1 -1.5859375 2.326172l.4492187.898437a3.5 3.5 0 0 0 2.1367188-3.224609 3.5 3.5 0 0 0 -2.140625-3.2207031z"/></g></svg>