<svg height="16" width="16" xmlns="http://www.w3.org/2000/svg"><path d="m11.083106 1.6802055c-1.063451-.5859431-2.2836667-.91830072-3.5831062-.91830072-2.2602056 0-4.2807269 1.0055168-5.6535192 2.6020282-.090325 2.9899533.6079687 6.5926969 2.6043794 8.705311 1.9666246 2.081094 5.2203377 2.702483 6.626855 1.664635 1.60769-1.186291.553631-8.2331739.0054-12.053674z" fill="#254c8c"/><path d="m11.70005 2.3652344c.004-.011058.0011-.027108.0039-.039063.588139 1.1353691.495114 2.3951732.49605 3.6738286-.004807 3.1419844-1.048428 5.590008-3.9128906 6.881016 1.3091927-.743597 2.2755766-1.610342 2.6328126-3.1134379-.579762 2.3523189-2.7477807 3.5314069-5.341797 3.5314069-3.0375661 0-5.5-1.761419-5.5-4.798985 0-.1890616-.01673419-.5399005-.02734375-.8242188-.02145112.2337684-.0507812.4655901-.0507812.7050782 0 4.2078836 3.3578645 7.6191406 7.5 7.6191406 4.142136 0 7.5-3.411257 7.5-7.6191406 0-2.6666667-1.176011-4.0364882-2.339844-5.9082032 0-.00114-.000225-.00276-.0039-.00391-.171565-.2605865-.418848-.9467817-.539068-1.230465-.018751-.062537-.040769-.1132812-.048829-.1132812-.0037 0-.0072.00163-.01172.00586-.151235.1857054.02443.8562722-.05664 1.0820312zm-10.969581 2.7558594c-.08031448.1714256-.14505944.351136-.21289063.5292968.0665627-.1790154.13351623-.3571359.21289063-.5292968zm-.328125.8417968c-.07985033.2407819-.14310561.4874188-.19921875.7382813.05451095-.250934.12144408-.4972553.19921875-.7382813zm-.22265625.8476563c-.0581539.2791041-.09992268.5620442-.12695313.8515625.02695467-.2888212.07047673-.5726149.12695313-.8515625zm10.529296.042969c.07898.1735381.138722.343816.185547.5136719-.04535-.1676094-.10086-.3371297-.185547-.5136719zm.201172.5820313c.03325.1302353.0573.2607564.07813.3925781-.01966-.1295531-.04589-.2625696-.07813-.3925781zm.123047 1.71875c-.01057.087034-.02436.1725582-.03906.2578125.01442-.085783.02868-.1707182.03906-.2578125z" fill="#5094ff"/><path d="m2 1c-.51285.2730324-.6627375 2.1383888-.75 2.5957031-.033375.1818552-.0720776.5351772-.0722656.6601563-.0000342.017989-.00323.02416-.00391.037109-.6220597.9917558-1.0092211 2.1442119-1.1230431 3.3769535.01059933.2853769.0273437.6396739.0273437.8300781 0 3.037566 2.4624339 5.5 5.5 5.5 3.037566 0 5.600008-2.462434 5.600008-5.5 0-.1339391.01699-.2701749-.01367-.3984375-.01485-.062136-.04163-.125078-.05859-.1875.02659.1879253.05859.3713551.05859.5800781 0 .1825791-.110028.3705362-.125399.4824219-.377736 1.7942745-1.4283156 3.0138215-3.1835952 3.0234375-1.1111352.0042-2.6540545.165952-2.8554688-1h1.1386719c.6326756 0 1.1392883-.770858 1.5917969-.888672.5377711-.1400125 1.2685931-.111277 1.2363281-.4999999-.0836623-.1755622-.3769343-.4213817-.6230469-.5214843-.2061375-.0838517-.3174405-.1033633-.5644531-.1035157-.2515499-.0001448-.4644438.0107343-.9179688.1503907-.4527375.1394324-.7051499.2609168-.984375.1816406-1.1613018-.282362-2.2508219-1.2695296-1.6855469-2.0351563.339975-.015924.9312325.215863 1.1464844.3652344.20595-.2056038-.2408019-.5214688-.3125-.8105469 0-.360832.8238306-.5710681 1.1210938-.7070312.1958251-.08928.3865157-.1809193.4238281-.203125.081075-.0482819.2371436-.2024178.3007813-.296875.0970873-.144198.1603562-.4115992.1210937-.5078125-.049275-.1209181.1185314-.1971008-.6835937-.2695313-.3027374-.0273524-.5083689-.1672088-.6679688-.453125-.2796019-.6567657.5050375-2.0187523.859375-2.3496094-.5635874-.3124876-1.4065626.7638665-1.7421875 1.0839844-.1075125.1080801-.074403.1066095-.4003906.0195313-.02175-.00583-.043306-.010216-.066406-.015625-.00825-.0019-.017141-.00404-.025391-.00586-.015-.00343-.031501-.00661-.046875-.00977-.010875-.00229-.021952-.00369-.033203-.00586-.01275-.00229-.024284-.00549-.037109-.00781-.0135-.00229-.027439-.00552-.041016-.00781-.00975-.00152-.019547-.00227-.029297-.00391-.0863239-.0138246-.176753-.0246648-.267578-.0331988-.099338-.0093-.1986969-.0171732-.2949219-.0195312-.028875-.0007619-.057888 0-.085937 0-.030375-.0000647-.058866-.0008023-.087891 0-.00562.0001487-.011953.00155-.017578.00195-.024375.0007619-.04695.0008131-.070313.00195-.00375.0001867-.00677.00155-.00977.00195-.025875.00152-.050107.00349-.074219.00586-.00375.0001944-.00399-.0003988-.00586 0-.02475.00229-.047737.00657-.070312.00977h-.00195c-.010125.00152-.0215.00219-.03125.00391-.1074356-.0003803-.2049856.0309331-.2890606.0703131-.282152-.4840459-.5522219-1.6558859-.7714844-2.140625z" fill="#9065ff"/><path d="m10.134766 0-.08789.11328125c-.015382.0193905-.031168.03815945-.046876.05859375-.3470346.46760382-.5445784.9970131-.7519531 1.5644531-.07905.2177067-.1623723.5451937-.2089844.8183594-.046725.2739164-.0513165.8835536-.0078125 1.1230469.1149749.6344229.3777219 1.2324259.7636719 1.7382812.4473761.4948533.7328251 1.0395571.9140621 1.4375.274108.5714179.294627 1.0751402.369185 1.6464881 0 2.0512673-1.1263384 3.8357443-2.7910156 4.7812503 2.8644626-1.291008 4.7080396-4.1392699 4.7128466-7.2812543-.089956-1.3268579-.371639-2.7808697-.900384-3.6347651-.532008-.8591639-1.559142-1.3413347-1.941413-2.2539068zm-5.7480472 8.4804688c.086978.094887.1857916.1860304.296875.2714843-.1101447-.0848551-.2104561-.1773403-.296875-.2714843z" fill="#8effa6"/></svg>