<svg height="16" width="16" xmlns="http://www.w3.org/2000/svg"><path d="m8 0a8 8 0 0 0 -8 8 8 8 0 0 0  .25977 2h15.474a8 8 0 0 0  .266-2 8 8 0 0 0 -8-8zm7.734 10a8 8 0 0 1 -2.582 4.109 8 8 0 0 0 2.582-4.109zm-15.474 0a8 8 0 0 0  .23632.758 8 8 0 0 1 -.23632-.758zm.23828.766a8 8 0 0 0  .28125.658 8 8 0 0 1 -.28125-.658zm.32226.75a8 8 0 0 0  .37699.683 8 8 0 0 1 -.37699-.683zm.37699.683a8 8 0 0 0  .4277.623 8 8 0 0 1 -.4277-.623zm.4609.668a8 8 0 0 0  .4356.516 8 8 0 0 1 -.4356-.516zm.5273.619a8 8 0 0 0  .5274.508 8 8 0 0 1 -.5274-.508zm.5625.543a8 8 0 0 0  .5489.434 8 8 0 0 1 -.5489-.434zm10.4.082a8 8 0 0 1 -.601.461 8 8 0 0 0  .601-.461zm-9.7613.42a8 8 0 0 0  .5742.367 8 8 0 0 1 -.5742-.367zm9.1133.074a8 8 0 0 1 -.576.356 8 8 0 0 0  .576-.356zm-8.4395.354a8 8 0 0 0  .5821.293 8 8 0 0 1 -.5821-.293zm7.7285.078a8 8 0 0 1 -.568.275 8 8 0 0 0  .568-.275zm-7.0038.283a8 8 0 0 0  .5586.217 8 8 0 0 1 -.5586-.217zm6.2868.059a8 8 0 0 1 -.599.219 8 8 0 0 0  .599-.219zm-5.529.228a8 8 0 0 0  .4902.137 8 8 0 0 1 -.4902-.137zm4.771.045a8 8 0 0 1 -.5425.139 8 8 0 0 0  .5425-.139zm-3.98.168a8 8 0 0 0  .4961.084 8 8 0 0 1 -.4961-.084zm3.164.032a8 8 0 0 1 -.4609.07 8 8 0 0 0  .4609-.07zm-2.3925.095a8 8 0 0 0  .5097.033 8 8 0 0 1 -.5097-.033zm1.5937.018a8 8 0 0 1 -.6992.035 8 8 0 0 0  .6992-.035z" fill="#ffc567"/><path d="m .25977 10a8 8 0 0 0 7.7402 6 8 8 0 0 0 7.734-6h-15.474z" fill="#4a78c9"/><circle cx="11" cy="5" fill="#ff7e30" r="2"/></svg>