<svg height="16" viewBox="0 0 16 16" width="16" xmlns="http://www.w3.org/2000/svg"><g fill-rule="evenodd"><path d="m8 1a7 7 0 0 0 -5.84375 3.1542969 1.5 1.5 0 0 0 -.65625-.1542969 1.5 1.5 0 0 0 -1.5 1.5 1.5 1.5 0 0 0 1.0898438 1.4414062 7 7 0 0 0 -.0898438 1.0585938 7 7 0 0 0 7 7 7 7 0 0 0  .6796875-.039062l-.0488281.039062c3.3703926-.177533 6.3595636-.687537 7.3691406-1-1.661574-.536625-1.660121-2.736181-1.330078-3.882812a7 7 0 0 0  .330078-2.117188 7 7 0 0 0 -.085938-1.0585938 1.5 1.5 0 0 0 1.085938-1.4414062 1.5 1.5 0 0 0 -1.5-1.5 1.5 1.5 0 0 0 -.65625.1542969 7 7 0 0 0 -5.84375-3.1542969z" fill="#e4e4e4"/><ellipse cx="6.442" cy="4.932" fill="#3f3f3f" rx="1.484" ry="2.012" transform="matrix(.98420841 .17701359 -.17034281 .98538486 0 0)"/><ellipse cx="9.319" cy="7.757" fill="#3f3f3f" rx="1.483" ry="2.012" transform="matrix(.98433594 -.17630303 .17103082 .98526568 0 0)"/></g></svg>