<svg height="16" width="16" xmlns="http://www.w3.org/2000/svg"><path d="m6.3184 0c-.1743.018456-.3295.15841-.3614.32617l-.2129 1.0566a7 7 0 0 0 -2.4296 1.4277l-1.1329-.373c-.1775-.0595-.3929.0184-.4882.1758l-1.6426 2.7754c-.092622.1596-.052978.3805.08982.5l.98048.8379a7 7 0 0 0 -.1211 1.2734 7 7 0 0 0  .1211 1.2754l-.98048.8376c-.14278.12-.18244.341-.089839.5l1.6426 2.774c.0953.157.3108.235.4882.175l1.1329-.373a7 7 0 0 0 2.4296 1.43l.2129 1.057c.0352.179.211.322.3985.324h3.289c.1875-.002.3635-.145.3985-.324l.213-1.059a7 7 0 0 0 2.43-1.428l1.132.373c.178.06.393-.018.489-.175l1.642-2.774c.093-.159.053-.38-.09-.5l-.98-.8376a7 7 0 0 0  .121-1.2754 7 7 0 0 0 -.121-1.2754l.98-.8359c.143-.1195.183-.3404.09-.5l-1.642-2.7754c-.095-.1576-.311-.2353-.489-.1758l-1.132.373a7 7 0 0 0 -2.43-1.4296l-.213-1.0567c-.035-.17923-.2112-.32174-.3985-.3242h-3.289c-.0129-.00029142-.0243-.00029142-.0371 0z" fill="#ae56b8"/><path d="m8 4c2.209 0 4 1.7909 4 4 0 2.209-1.791 4-4 4-2.2091 0-4-1.791-4-4 0-2.2091 1.7909-4 4-4z" fill="#fff"/></svg>