<svg height="16" viewBox="0 0 16 16" width="16" xmlns="http://www.w3.org/2000/svg"><g transform="translate(0 -1036.4)"><path d="m6.3184 1036.4c-.1743.018-.3295.1584-.3614.3262l-.2129 1.0566a7 7 0 0 0 -2.4296 1.4278l-1.1329-.3731c-.1775-.06-.3929.018-.4882.1758l-1.6426 2.7754c-.092603.1596-.052959.3805.089844.5l.98046.8379a7 7 0 0 0 -.1211 1.2734 7 7 0 0 0  .1211 1.2754l-.98047.8375c-.14279.1195-.18245.3404-.089844.5l1.6426 2.7734c.095345.1573.31082.2353.48828.1758l1.1328-.372a7 7 0 0 0 2.4296 1.429l.21289 1.0566c.03517.1792.21095.3217.39844.3242h3.2891c.18749 0 .36329-.145.39844-.3242l.21289-1.0586a7 7 0 0 0 2.4297-1.4277l1.1328.373c.17746.06.39294-.018.48828-.1758l1.6426-2.7734c.0926-.1596.05296-.3805-.08984-.5l-.981-.8375a7 7 0 0 0  .121-1.2754 7 7 0 0 0 -.121-1.2754l.98047-.8359c.14278-.1195.18244-.3404.08984-.5l-1.642-2.7754c-.095-.1576-.311-.2353-.489-.1758l-1.132.3731a7 7 0 0 0 -2.43-1.4297l-.213-1.0567c-.035-.1792-.2112-.3217-.3985-.3242h-3.2891c-.012858-.0003-.02431-.0003-.037109 0z" fill="#78ac3d"/><path d="m8 1040.4c2.209 0 4 1.7909 4 4s-1.7909 4-4 4-4-1.7909-4-4 1.7909-4 4-4z" fill="#fff"/><path d="m8 1038.4c-3.3095 0-6 2.6905-6 6 0 3.31 2.6905 6 6 6 3.31 0 6-2.69 6-6 0-3.3095-2.69-6-6-6zm0 .7059c2.9281 0 5.2941 2.366 5.2941 5.2941s-2.366 5.2941-5.2941 5.2941c-2.928 0-5.2941-2.3661-5.2941-5.2941 0-2.9278 2.3661-5.2939 5.2941-5.2939z" opacity=".2"/><path d="m7.3838 1038.4c-3.0209.3093-5.3838 2.8667-5.3838 5.9682 0 3.3095 2.6905 6 6 6 .49652 0 .97631-.067 1.438-.1813.042724-.099.11809-.2666.085495-.3985-.030101-.1217-.12965-.2254-.24128-.2888-.41082.102-.83894.1627-1.2819.1627-2.928 0-5.2941-2.3661-5.2941-5.2941 0-2.7918 2.1522-5.0668 4.89-5.2733.1058-.1145.1461-.2378.1263-.3992-.0204-.1662-.1482-.2564-.3385-.2958z" fill="#ffee57"/></g></svg>