<svg height="16" width="16" xmlns="http://www.w3.org/2000/svg"><path d="m13.184188 12.822399c-3.4131681 3.88003-6.3880475 3.770314-8.4303486 1.990301-3.06528-2.671448-5.9011869-12.3766643-4.28420337-14.21439252 1.61669787-1.83789948 11.79323097.95857862 13.97496097 2.99265112 2.182075 2.0341295 2.331962 5.1471244-1.260694 9.2314974z" fill="#4f4f4f"/><path d="m6.2587891 6.0000001c-.7076285 0-1.2608358.198659-1.6611328.595703-.3982755.395086-.5976562.9473891-.5976562 1.6562501 0 .706903.1993807 1.25823.5976562 1.6552735.4003195.3951073.9535268.5927733 1.6611328.5927733.323481 0 .6280135-.04073.913086-.12207.285073-.08329.5915901-.205462.8281251-.366211v-2.0117188h-1.5000001v.5h.998047v1.296875c-.1354615.075534-.2881815.132148-.458008.1689455-.1698195.03486-.5131645.051757-.729492.051757-.5539515 0-1.095015-.1480111-1.3740236-.4443361-.2769875-.2963249-.4365234-.7363844-.4365234-1.3212884 0-.586841.1595364-1.0288701.4365234-1.3251951.2790086-.2963255.8200721-.444336 1.3740236-.444336.2809855 0 .47381.0467.7285155.1396485.254706.092951.4843076.231073.7109376.415039v-.625c-.2244065-.1355735-.4587066-.2378955-.7255861-.3076175-.264836-.069722-.4704445-.104492-.765625-.104492z" fill="#fff"/><path d="m9 6v4.5h.5v-1.5h.882812c.507437-.00455.965816-.101468 1.22461-.3203125.260815-.218844.390625-.6930657.390625-1.1210937 0-.4241552-.12981-.9959993-.390625-1.2148438-.258794-.2207805-.717153-.34375-1.22461-.34375zm.5.5019531h.925781c.342267-.00909.607914.0680763.794922.2070313.187007.138957.279297.5847676.279297.8398437 0 .2569815-.092294.6051852-.279297.7441407-.187008.1389554-.452475.2070312-.794922.2070312h-.925781z" fill="#f14649"/></svg>