<svg height="16" viewBox="0 0 16 16" width="16" xmlns="http://www.w3.org/2000/svg"><g transform="translate(-2)"><path d="m7.652247 15.731783c-.1163766-.159081-.3277717-.506169-.4697677-.771303-.3046592-.568867-.4247776-.586697-1.0824801-.160692-.824615.534121-1.1404409.387667-.8888838-.412191.083016-.263957.1004935-.524209.038841-.578337-.061654-.05413-.4433479.0121-.84821.147147-.926389.309034-1.2048318.200502-.8838192-.344493.1251821-.21253.1913295-.418262.146994-.457186-.044336-.03893-.3465016.01159-.6714786.112253-1.12137.347349-1.272943.167618-.5581235-.661796.2393596-.277732.4370336-.613023.4392739-.745096.00224-.132072.2018678-.43791.4436181-.679639.5526119-.552564 1.1723119-1.6145497 1.1673444-2.0004929-1.4128936-1.9018758-.7765819-2.7922605.1480021-4.4234883.2419942-.4685592.5651461-1.3973108.861924-1.6430454 1.2568194-1.5026213 3.7001261-1.4596261 5.0190954-.0205172.39877.2293912 1.087463 1.532706 1.219416 2.002486 1.629243 1.8050667-.358996 3.1931403-.136861 4.1585758.118122.4984026.676767 1.365196 1.247965 1.936344.236329.236311.42969.561178.42969.721928s.164728.481878.366059.713619c.609576.701642.439853.926318-.483654.64026-.712144-.220592-.816802-.155263-.530352.331054.198054.336247.195835.379438-.0233.453265-.133219.04488-.560082-.0077-.948588-.116713-.388503-.109075-.739107-.169575-.779121-.134447-.04001.03513-.03457.346927.0121.692885.0738.547025.0506.629013-.177961.629013-.144549 0-.478785-.144621-.7427473-.321378-.263962-.176758-.549269-.321377-.634016-.321377-.08475 0-.3536565.347088-.5975751.771307-.4738958.824189-.7448933.944771-1.0833887.482064z" fill="#248afd"/><g transform="matrix(.42395133 0 0 .38629987 -9.634404 -39.936326)"><path d="m34.519066 106.36484s1.066583 6.00352 7.132428 7.37148c0 0 .50691-4.185-1.191821-5.62994-1.698732-1.44493-5.940607-1.74154-5.940607-1.74154z" fill="#d19e01"/><path d="m48.671634 106.24133s-.954355 5.92666-7.02014 7.49499c0 0-.562423-4.17566 1.110832-5.65004 1.673256-1.47435 5.909308-1.84495 5.909308-1.84495z" fill="#d19e01"/><path d="m41.671494 103.38167s-6.067618 5.31429-.02 10.35465c5.764135-5.24442.02-10.35465.02-10.35465z" fill="#fecd38"/></g><g transform="matrix(.30769231 0 0 .30769231 -1.615385 -1.769231)"><circle cx="21.5" cy="28.5" fill="#fecd38" r="6.5"/><path d="m21.499999 24.5a4.0002443 3.9998988 0 0 0 -3.999999 3.999655 4.0002443 3.9998988 0 0 0 3.999999 4.000345 4.0002443 3.9998988 0 0 0 4.000001-4.000345 4.0002443 3.9998988 0 0 0 -4.000001-3.999655zm0 2.666438a1.3334147 1.3332995 0 0 1 1.333335 1.333217 1.3334147 1.3332995 0 0 1 -1.333335 1.333217 1.3334147 1.3332995 0 0 1 -1.333331-1.333217 1.3334147 1.3332995 0 0 1 1.333331-1.333217z" fill="#535353"/></g><g transform="matrix(.30769231 0 0 .30769231 -1.769231 -1.769231)"><circle cx="41.5" cy="28.5" fill="#fecd38" r="6.5"/><path d="m41.5 24.5a4.0002443 3.9999003 0 0 0 -4 3.999646 4.0002443 3.9999003 0 0 0 4 4.000354 4.0002443 3.9999003 0 0 0 4-4.000354 4.0002443 3.9999003 0 0 0 -4-3.999646zm0 2.66644a1.3334147 1.3333 0 0 1 1.333335 1.333206 1.3334147 1.3333 0 0 1 -1.333335 1.33322 1.3334147 1.3333 0 0 1 -1.333331-1.33322 1.3334147 1.3333 0 0 1 1.333331-1.333206z" fill="#535353"/></g><g transform="matrix(1.1321399 0 0 1.027787 -1.057119 -.1271)"><path d="m5.3501508 8.3685231s.947628-.9476281 2.5972033-.9476281c1.649575 0 2.7024949 1.1582121 2.7024949 1.1582121s-.0351.6668498-.421168.8774338c-.3860705.210584-1.4389906-.9827258-2.4217164-.9827258-.9827255 0-2.0005487.842336-2.0005487.842336z" fill="#fecd38"/><path d="m7.9662663 8.0000442c-.7269854-.0031286-1.4239238.1637506-1.9544361.4941809l-.5832589.3633234.522766 1.0331523c.3351369.6624092.7715427 1.2774852 1.2160815 1.7140832.3813349.374524.7917055.680932.9121073.680932.3599946 0 1.6384193-1.434925 2.1368579-2.3985318.255791-.4945062.407892-.8645279.338083-.8221531-.06981.0423737-.180062-.0605591-.245176-.2287674-.07328-.189296-.3234153-.3862823-.6563791-.5171306-.5376317-.2112758-1.1212118-.3166535-1.6866456-.3190889z" fill="#535353"/></g></g><path d="m63.745563 117.94995h-2.857236l-.7576 2.96546h2.857235zm-1.222984-6.47207-1.038994 4.1668h2.857235l1.049817-4.1668h2.391853l-1.049818 4.1668h1.753508v2.30527h-2.327119l-.746778 2.96546h3.073897l-.000204 2.32692h-3.636482l-1.038994 4.14515h-2.391853l1.038995-4.14515h-2.857235l-1.038995 4.14515h-2.413498l1.038995-4.14515h-1.775058v-2.32692h2.305378l.7576-2.96546h-3.062978l.000108-2.30527h3.658127l1.038995-4.1668z" fill="#888" transform="matrix(.3824288 0 0 .31427567 -10.191088 -32.034786)"/></svg>