<svg height="16" width="16" xmlns="http://www.w3.org/2000/svg"><rect fill="#df82d9" height="4" rx="2" transform="matrix(0 -1 -1 0 0 0)" width="4" x="-15" y="-14"/><path d="m1 10.5 2.5938-3.9285 2.1053 3.6464z" fill="#72acef"/><path d="m-.00000004 6.8462 4.3077-2.1539v4.3077z" fill="#4c95eb"/><path d="m1 4.3767 4.6117-.9438-1.0895 4.0671z" fill="#3a8ae9"/><path d="m3 2.0715 4.6991.2821-2.1053 3.6464z" fill="#3074c3"/><rect fill="#d761cf" height="12" rx="6" transform="matrix(0 -1 -1 0 0 0)" width="12" x="-14" y="-16"/><rect fill="#df82d9" height="4" rx="2" transform="matrix(0 -1 -1 0 0 0)" width="4" x="-16" y="-9"/><path d="m13.599 10c-.62415.17483-1.0083.76164-1.6242.92068-.44325.10062-1.0266-.32643-1.4418-.08786-.23232.13349-.83505.48577-.34882.71319 0 0 .28678.13485.64792.25547s.78003.25794 1.2225.17057c.50027-.0988.90317-.43664 1.2445-.73398.34137-.29734.59426-.57654.59426-.57654.236-.253.055-.659-.294-.662z" fill-rule="evenodd" opacity=".6"/><ellipse cx="13" cy="6.5" fill="#fff" rx="1.5" ry="2"/><ellipse cx="11.5" cy="7" fill="#fff" rx="1.5" ry="2"/><circle cx="12.5" cy="7" fill="#1b1b1b"/><circle cx="13.8" cy="6.5" fill="#1b1b1b"/></svg>