<svg height="16" width="16" xmlns="http://www.w3.org/2000/svg"><path d="m8 0h-7.2c-.4432 0-.8.3568-.8.8v7.2h8z" fill="#fe4b71"/><path d="m8 0h7.2c.4432 0 .8.3568.8.8v7.2h-8z" fill="#2086e7"/><path d="m8 16h-7.2c-.4432 0-.8-.3568-.8-.8v-7.2h8z" fill="#ff8c2a"/><path d="m8 16h7.2c.4432 0 .8-.3568.8-.8v-7.2h-8z" fill="#6655e4"/><path d="m2 2h12v12h-12z" fill="#3f3f3f"/><g fill="none" stroke="#fff" stroke-linecap="round"><path d="m3.5071217 11.5h4.0000003"/><path d="m3.5071212 7.500001h1.999999m-1.999999-4.000001h1.999999m-.9999985 4.000001v-4.000001"/><path d="m7.507123 7v .500001h.499999c1.957916-.05752 1.499596-3.4439945 1.5-4.000001" stroke-linejoin="round"/></g></svg>