<svg height="16" width="16" xmlns="http://www.w3.org/2000/svg"><path d="m .0000004 2.7313562v8.6602248l6.2499742 3.608419 8.7499644-5.051792v-8.6602107" fill="none"/><path d="m .00000025 2.7313562v8.6602248" fill="none"/><path d="m .45673685 2.7075361-.45673645.0238201-.00000042 8.6602248 6.00002442 3.608419v-8.7601538" fill="#8e8e8e" fill-rule="evenodd"/><path d="m14.771632 1.2642481-8.7716564 4.9756266v8.7600963l9.0000244-5.0517488-.000061-8.6602249z" fill="#3f3f3f" fill-rule="evenodd"/><path d="m1 4.9326015v5.6572425l3.9804688 2.292968.0195312-.033203v-1.109375l-3-1.728515v-3.3447425l3 1.732422v-1.154297z" fill="#3f3f3f"/><path d="m9 6.5683594-1 .5605468v1.6542969l-1 .578125v1.1542969l1-.578125v1.638672l1-.560547v-1.6542969l1-.578125v-1.1542969l-1 .578125z" fill="#fff"/><path d="m13 4.3071874-1 .5605468v1.6542969l-1 .578125v1.1542969l1-.578125v1.638672l1-.560547v-1.6542969l1-.578125v-1.1542969l-1 .578125z" fill="#fff"/><path d="m3.33332.74999698-3.3333196 1.98135922 6.0000236 3.6084329 8.999915-5.0517918-1.66666-.96224878-7.3332546 4.08954328-2.6667044-1.6839356 1.6666597-.9622487z" fill="#736fff" fill-rule="evenodd"/></svg>