<svg height="16" width="16" xmlns="http://www.w3.org/2000/svg"><path d="m8 1c-4.432 0-8 3.568-8 8 0 2.402724 1.0612441 4.537014 2.7285156 6h10.5429684c1.667272-1.462986 2.728516-3.597276 2.728516-6 0-4.432-3.568-8-8-8z" fill="#2d96d0"/><path d="m8 5a6 6 0 0 0 -6 6 6 6 0 0 0 1.5371094 4h8.9277346a6 6 0 0 0 1.535156-4 6 6 0 0 0 -6-6z" fill="#f4deb9"/><path d="m8.0000001 5c-2.1327064 0-4.003926 1.1140644-5.0679688 2.7906248-.155196.2029376-.2920144.4146888-.3914064.6414064-.1561831.3562616-.2722412.725098-.3601562 1.1234376-.058499.2363652-.1079566.4761702-.1375.7226562-.00263.02194.00407.02655.014844.02344-.011276.09494-.025604.184944-.034375.284375-.02812.318758-.030831.449218-.00938.449219l3.5859424-4.035159-.772656 3.200772c.0052.0052.1183348-.041.2515628-.102344.8185452-.37689 1.5559724-.986893 2.4578124-1.094523.3110088-.037116 1.3898328-.041788 1.7140624-.00781.6567952.06882 1.2562853.7477959 1.9937503.9506555.326767.08989.487058.1112745.754687.1015625.267826-.0097.425597-.04549.623438-.1406255.493682-.2373962.752505-.9248255.680468-1.4811243-.0068-.052432-.02062-.1022392-.03125-.1531248.02116-.052393.00072-.1407164-.08281-.2867188-.08219-.2184012-.203218-.437118-.38594-.684374-1.236816-1.3591052-2.8521909-2.3287544-4.8031249-2.3023456z" fill="#ff8e49"/><circle cx="5" cy="12" fill="#252524" r="1"/><circle cx="11" cy="12" fill="#252524" r="1"/><path d="m6.891601 1.2871094c-.03076 0-.2316745.3429605-.4228515.7216796-.2798665.5544135-.413196.9811005-.4589845 1.473633-.0113125.12171-.0095375.2408945-.00195.3583985-.004725.052935-.007325.1060375-.0078125.1591795 0 1.1045695.8954305 2 2 2s2.0000005-.8954305 2.0000005-2c-.000017-.050837-.00195-.101655-.00586-.152344.0017-.05067.00648-.1015075.0039-.151367-.035285-.6848115-.4311585-1.1543565-1.0292935-1.463281-.3166715-.1635545-.801105-.2403773-1.1171875-.241008-.3943285-.000785-.693995-.343721-.8867185-.623836-.03085-.04484-.06405-.081055-.0732425-.0810546z" fill="#ff8e49"/></svg>