<svg height="16" width="16" xmlns="http://www.w3.org/2000/svg"><path d="m7.9997676.00000729c-.4190662 0-.8384125.15619848-1.1516747.46945321l-6.37864667 6.3793576c-.62652475.6265088-.62563599 1.6749775.00091429 2.301487l6.37864668 6.3793579c.6265247.626509 1.675928.627398 2.3024527.000914l6.3786471-6.3793572c.626524-.6265095.626524-1.6758758 0-2.3023849l-6.3786639-6.3793744c-.3132621-.31325469-.7326088-.46945321-1.1516755-.46945321z" fill="#31afe1"/><path d="m5 2.3164062-2 2.0019532v7.2675786l-.046875.046874.046875.046876.9453125.945312.421875.421875 3.6328125-3.6328125 3.634766 3.6347655 1.412109-1.416016-3.6328125-3.632812 3.6328125-3.6328125-1.414063-1.4140625-6.632812 6.6328125z" fill="#fff"/></svg>