<svg height="16" width="16" xmlns="http://www.w3.org/2000/svg"><path d="m16 8v-5.1818c0-.4533-.382-.8182-.857-.8182h-14.286c-.47471 0-.857.3649-.857.8182v10.364c.00000004.453.38229.818.85714.818h9.14286z" fill="#8847bd"/><path d="m14 8.516v-4.516h-12v8h7.9999714z" fill="#a675ce"/><path d="m16 8h-5.25c-.414 0-.75.336-.75.75v5.25z" fill="#cfb2dd"/><path d="m5.6368843 5.0001732a.62272673.66945061 0 0 0 -.6368843.669193v2.330798 2.3307968a.62272673.66945061 0 0 0  .9339343.579446l1.8770363-1.1653975 1.8776473-1.1653984a.62272673.66945061 0 0 0 0-1.1595453l-1.8776473-1.1653984-1.8770363-1.1653984a.62272673.66945061 0 0 0 -.29705-.0891z" fill="#fff"/></svg>