<svg height="16" width="16" xmlns="http://www.w3.org/2000/svg"><path d="m8 0c-.2232 0-.4441.0113064-.6625.0289064-1.978.1408-3.5664936.8728-4.9960938 2.3-1.178 1.176-1.90769368 2.6280748-2.19609372 4.1468748-.0264.1392-.04836872.2791124-.06796872.4203124-.0116.0868-.0240124.1729564-.0328124.2601564-.0192.1864-.0311.3760064-.0375.5664064-.0016.048-.003508.09575-.003908.14375-.00079836.0448-.00312336.0887936-.00312336.1335936 0 4.358 3.4508876 7.878131 7.7796876 7.994531.0336.0011.067181.0018.1007812.0024.04.000504.0795312.003069.1195312.003069.1928 0 .3826752-.0094.5718752-.02266.0236-.0018.047494-.0035.071094-.0055 2.8579998-.22552 5.2783808-1.941158 6.5007808-4.373438.00044-.0004.00056-.0012.0008-.0016.07912-.1572.160066-.314144.228906-.477344.37452-.8456.577884-1.743212.614844-2.682812.0016-.0304.0018-.061006.0031-.091406.0025-.0896.0076-.1787312.007-.2695312.000278-.0251276.0016-.0501088.0016-.0757088v-6.8c0-.6648-.5352-1.2-1.2-1.2h-6.7406248z" fill="#f57f38"/><path d="m8.686745 4.0007595c-.17569 0-.32148.14031-.32315.31034-.00107.1708.1448.31443.32174.31531.7636.00578 1.3914.24704 1.8977.72292.5003.47147.7611 1.1247.76775 1.9771v.0007503c.0018.16957.14772.30961.32386.30961.000019 0 .0034-.0007004.0036-.0007502.17654-.0016.32316-.14395.32173-.3146v-.0007502c-.004-.49745-.085-.9544-.243-1.3564-.16-.4063-.403-.7656-.72-1.0646-.627-.589-1.4266-.8933-2.3476-.8998h-.00284zm-3.2798.735c-.1232-.020942-.25665.00196-.38991.066045h-.010655l-.01492.00853c-.2469.1404-.4784.3286-.6952.5646l-.017045.018462v.01704c-.1501.1871-.2493.3754-.2721.5639-.00728.031964-.0071.060773-.0071.091611 0 .085796.012611.17299.039062.2585l.0071.024142.014916.00853c.085644.29382.28.75107.70525 1.5254.28324.51325.57265.94195.8601 1.3032.15142.18984.32294.3875004.522.5865904.00231.0024.010756.01094.019893.01917.00311.0031.00756.0097.018462.0206l.019885.01988h.00142c.00702.007.011733.0121.012782.01349l.00356.0043.00356.0036c.19907.1968801.39542.3694201.58735.5198501.36069.28743.78935.57909 1.3026.86286.7753.42768 1.2368.62098 1.5291.70518l.010658.01278.01776.0064c.0828.02761.16896.04035.25426.03906.034596.0019.065236-.000501.094461-.0071.20018-.0234.39838-.11817.59445-.28264l.0021-.0028.0021-.0014c.003-.003.0012-.0015.0028-.0036.0018-.0015.0025-.0034.0043-.005.23209-.2118.41941-.44216.56035-.68883l.0092-.01563v-.01492c.12945-.26954.07818-.54469-.1321-.72012-.0052-.0044-.10618-.08886-.23154-.19103-.12819-.1044501-.28022-.2272301-.38286-.3025401-.19421-.14366-.49438-.3294804-.6655-.4246804h-.0006996c-.3281-.1841-.6715-.0772-.8226.1185l-.2649.3317004c-.1068.1346-.3203.1217-.326.1214-1.7968-.4622004-2.2799-2.2688004-2.2834-2.2817004-.0003-.0057-.0132-.2195.1215-.3281l.3302-.2642c.1962-.1502.3065-.4935.1215-.823-.0965-.1704-.2832-.4728-.4248-.6655h-.0006995c-.0764-.103-.199-.2559-.3035-.3842-.052-.064142-.0995-.12284-.134-.16473-.017502-.020951-.0315-.037849-.0415-.049698-.005-.00596-.00915-.010089-.012075-.013493-.00145-.00169-.00225-.00284-.00355-.00427-.0914-.1086-.2079-.1748-.3364-.1967zm3.299.7201c-.1733-.0122-.329.1176-.3416.2848-.0126.1673.1224.3166.2955.3288.428.0302.7169.1561.9339.3856v.0007493c.22155.2338.32236.5008.31392.86566v.00142c-.00373.1679.13709.3102.31108.31388h.0078c.17144 0 .31436-.13533.31818-.30111.011-.5016-.152-.9491-.481-1.296-.3316-.3487-.8001-.544-1.3586-.5837z" fill="#fff"/></svg>