<svg height="16" width="16" xmlns="http://www.w3.org/2000/svg"><path d="m8 4a4 4 0 0 0 -4 4 4 4 0 0 0 4 4 4 4 0 0 0 4-4 4 4 0 0 0 -4-4zm0 2c1.1045 0 2 .8955 2 2s-.8955 2-2 2-2-.8955-2-2c0-1.10455.89545-2 2-2z" fill="#848484"/><path d="m8 0c-4.432 0-8 3.568-8 8s3.568 8 8 8 8-3.568 8-8-3.568-8-8-8zm0 5a3 3 0 0 1 3 3 3 3 0 0 1 -3 3 3 3 0 0 1 -3-3 3 3 0 0 1 3-3z" fill="#e4e4e4"/><rect fill="#64cd4a" height="6" rx=".857" width="12" x="2" y="10"/><g fill="none" stroke="#fff" stroke-linecap="round"><path d="m5.4961359 14.49299v-2.985766m-1.9922717 0 .9961359 1.492882.9961358-1.492882m-1.9922717 2.985766v-2.985766" stroke-linejoin="round" stroke-width=".99978"/><path d="m9.4945513 14.492636-1.9891027-1.866088m1.9891027-1.119654-1.9891027 1.866089m0 1.119653v-2.985742" stroke-width="1.000478"/><path d="m12.497818 11.506859-.997818 2.993353-.997818-2.993353" stroke-linejoin="round" stroke-width=".999793"/></g></svg>