<svg height="16" width="16" xmlns="http://www.w3.org/2000/svg"><rect fill="#b83229" height="12" rx="1.5" ry="1.2" width="4" x="6" y="4"/><path d="m7.0132862 7.99281c-1.9834111-.0359024-2.7884491-.0676032-3.2807256-.1291888-.3610046-.0451644-.5382926-.0891952-.7382451-.183348-.3302465-.1555032-.5356325-.3723436-.6838531-.7219916-.1355164-.3196672-.1906954-.5735644-.241335-1.1104816-.0571474-.6059136-.061614-.7156056-.0675484-1.6596656-.00699-1.1102168.00708-1.4740256.085365-2.210928.0410486-.3863212.100884-.6430645.213309-.915324.102387-.24794152.195864-.38477728.365865-.53556932.21366-.18951756.448311-.30472504.744537-.36554288.4421521-.09077868 2.4406111-.1607702 4.5903752-.1607702 2.1497648 0 4.1482238.06999152 4.5903748.1607702.319762.0656507.554445.1869136.783423.4048002.179215.17053272.271519.32548944.381364.6402385.113184.3243122.156591.6113265.220905 1.4606647.03054.4033384.03054 2.2600384 0 2.663178-.03573.4716104-.07959.8915916-.108784 1.0418688-.07506.386356-.222498.7480916-.388718.9537624-.114042.141106-.339168.3092364-.527422.393892-.190623.0857212-.372239.1282192-.665024.155622-.907264.0849108-3.6777518.1469084-5.2738512.1180132z" fill="#d54c41"/></svg>