<svg height="16" width="16" xmlns="http://www.w3.org/2000/svg"><rect fill="#ff9959" height="16" rx=".857" transform="matrix(0 -1 -1 0 0 0)" width="16" x="-16" y="-16"/><path d="m29.23 12.06c-.426.34-1.68 2.719-2.934 5.555-.508 1.156-1.227 2.668-1.59 3.363-1.078 2.059-3.711 5.805-4.93 7l-1.137 1.125.848.926c.52.57 1.207 1.754 1.777 3.078 1.082 2.523 1.27 2.887 1.477 2.887.098 0 .652-.313 1.27-.707 1.379-.895 2.668-2.098 4.422-4.145 2.738-3.191 4.793-3.867 7.324-2.402.684.398 1.246.648 1.246.555 0-.098-.348-1.059-.766-2.141s-1.559-4.137-2.527-6.789c-.691-1.164-2.949-9.117-4.48-8.297m-5.457 6.527c-.012 0-.027 0-.043.008-2.316 1.039-3.152 1.512-3.836 2.172-.449.441-.816.91-.816 1.047 0 .426 1.824 1.563 2.125 1.324.145-.117.715-.953 1.266-1.863.973-1.621 1.477-2.664 1.305-2.688m-6.484 4.59c-.395 0-5.992 2.168-6.258 2.426-.078.074.004.211.184.313.18.105 1.203.805 2.289 1.559 1.082.754 2.023 1.367 2.09 1.371.066 0 .563-.266 1.094-.594 1.117-.688 3.273-2.816 3.262-3.223-.008-.363-2.156-1.855-2.664-1.855m.004.004" fill="#4d4d4d" transform="matrix(.38461 0 0 .37523 -1.2317 -.50596)"/></svg>