<svg height="16" width="16" xmlns="http://www.w3.org/2000/svg"><circle cx="8" cy="8" fill="#e4e4e4" r="8"/><g transform="translate(-10 -7)"><path d="m17 12c-2.7621 0-5 2.2373-5 5s2.2373 5 5 5 5-2.2373 5-5-2.2373-5-5-5zm-.89425 2.6424c1.8783 0 3.4144 1.516 3.4144 3.3943s-1.5362 3.4144-3.4144 3.4144c-1.8783 0-3.3943-1.5362-3.3943-3.4144 0-1.8783 1.516-3.3943 3.3943-3.3943z" fill="#2a58ae"/><path d="m23 11.5a2.5 2.5 0 0 1 -5 0 2.5 2.5 0 1 1 5 0z" fill="#d24646"/><path d="m16 19.501a1.5 1.5 0 0 1 -3 0 1.5 1.5 0 1 1 3 0z" fill="#606060"/></g></svg>