<svg height="16" width="16" xmlns="http://www.w3.org/2000/svg"><g transform="matrix(1 0 0 1.0001 0 -.001045)"><path d="m8 .001045-7.6359 4.927c-.01643.010703-.03132.023307-.04688.03521l-.0094.007v.0008603c-.18625.1462-.30783.3712-.30783.6275v7.6022c0 .44333.3568.80023.8.80023h14.4c.4432 0 .8-.3569.8-.80023v-7.6022c0-.26209-.12679-.49189-.32031-.63769l.0032-.005-7.6829-4.9548z" fill="#4f4f4f"/><path d="m2 2h12v10h-12z" fill="#ebebeb"/><path d="m .000019 5.599 15.2 10.4h-14.343c-.05714 0-.85714 0-.85714-.85714z" fill="#4f4f4f"/><path d="m15.143 15.999c.85714 0 .85714-.85714.85714-.85714v-9.5429l-15.2 10.4z" fill="#6a6a6a"/></g></svg>