<svg height="16" width="16" xmlns="http://www.w3.org/2000/svg"><rect fill="#26557c" height="16" rx=".8" transform="matrix(0 -1 -1 0 0 0)" width="16" x="-16" y="-16"/><path d="m3.5398 3.0002c-.4118-.00922-.60494.29132-.52013.80945.027338.167.16589.40567.46462.80077.33221.43938.46584.67928.61058 1.0948.2282.65513.33369.87488.5191 1.0796.14402.15905.14404.15951.047284.48393-.15003.50308-.18108 1.5115-.060647 1.9856.18024.70968.4021 1.0319.71132 1.0319.22087 0 .4019-.19495.46667-.50238.02246-.10659.064468-.25892.09354-.33854.050183-.13737.063647-.12676.26006.21159.11383.19608.33086.48811.48209.64886.34936.37136.82885.78984.86345.75411.0146-.01507-.12526-.23431-.31043-.48827-.1853-.254-.5344-.8441-.7762-1.311-.2821-.5446-.4735-.8492-.5335-.8496-.195-.0015-.3768.3222-.4821.8593-.1213.6188-.3351.5151-.5088-.2474-.1001-.4393-.0479-1.0311.1388-1.5852.0849-.2521.1541-.4854.1541-.5176 0-.032178-.13542-.30193-.30118-.60003-.1657-.2981-.3606-.7204-.4327-.9386-.175-.5302-.2581-.6848-.6095-1.135-.3621-.4638-.3963-.678-.108-.676.22396.00156.58539.1608.94877.41883.23004.16335.308.18554.6774.18554.46388 0 .56362.040111 1.2068.48719.655.45531 1.1432.8785 1.4812 1.2847.3002.36075.4642.67434 1.3476 2.5868.33911.73411.63989 1.0885 1.0546 1.2402.64063.23436.85874.34063 1.141.55446l.2981.22569-.20044.04123c-.11068.0224-.35181.05898-.53555.08138-.38283.04667-.6332.21429-.6332.42426 0 .23662.76379.91405 1.5295 1.3563.36789.21248.72187.42181.78636.46549.17156.11623.21801.10216.17372-.051-.09276-.32076-.40672-.63323-1.2787-1.2749-.51154-.37644-.51681-.36246.16652-.43402.48736-.05105.73291-.13884.73291-.26258 0-.05631-.24752-.35757-.54994-.66839-.475-.4876-.635-.6087-1.156-.8766-.711-.3648-.9694-.6542-1.1331-1.2684-.2443-.9165-.9012-1.993-1.7742-2.9058-.9012-.9423-1.7617-1.4634-2.5503-1.5451-.3205-.0332-.486-.0845-.6517-.2029-.2808-.2006-.9326-.4269-1.2509-.434zm1.5593 1.6677c-.0646-.0043-.1208.0047-.1593.0326-.1439.1039-.1269.2306.0421.3092.0794.037.1921.1675.2508.2897.1974.411.4999.1359.3649-.332-.0425-.1475-.3048-.2864-.4985-.2995z" fill="#fff"/></svg>