<svg height="16" width="16" xmlns="http://www.w3.org/2000/svg"><g fill-rule="evenodd"><path d="m16 8.0000062c0 4.4182778-3.581722 7.9999998-8.0000002 7.9999998-.2608564 0-.070145-.734898-.2962777-.759833-2.641446-.291259-3.4741186-1.519853-4.5960938-4.157359-.4088553-.961125-2.32773225-2.0879809-2.32773225-3.198348 0-.2749822-.76602222-.4311839-.73893644-.6990235.4081151-4.0356747 3.81574449-7.18543622 7.95904019-7.18543622.1735871 0 .0508278.64672699.2102859.66812235 1.7622934.23645638 3.0032893 1.07585787 4.3105143 2.28138407 1.585104 1.4617867 3.4792 2.7242455 3.4792 5.0504935z" fill="#e4e4e4"/><path d="m8.0000258-.00000592v6.00000612c2.8895752 0 5.6000832.3232164 7.9404902 1.1094908-.453034-4.0446531-3.870548-7.10451472-7.9404902-7.10949692z" fill="#4f4f4f"/><path d="m8.0000258 6.0000002c-2.8920088 0-5.6047186.3239404-7.946472 1.111444-.0343196.2949604-.05218996.5916024-.0535278.8885496 0 4.4182782 3.5817219 8.0000002 7.9999998 8.0000002z" fill="#4f4f4f"/></g></svg>