<svg height="16" width="16" xmlns="http://www.w3.org/2000/svg"><path d="m11.9 2.652c.699675-.5455537 1.469995-1.3495603 2.265699-1.5755284.461593-.11328728.890414-.13358981 1.204668.171171.192354.3140128.499924.6460297.598318 1.113268.08411.3994286.01056.9648737-.365375.9584314-.282533-.1019344-.890776-.3328826-1.249091-.2513349-.94398.2148369-1.191404.9319929-1.191404.9319929z" fill="#77451f"/><path d="m10.978877 13.616094c-3.1871936 2.00473-8.4106834 1.817615-10.3546713-.471524-1.6696689-1.966115.18434273-7.5170474 3.4947327-10.0287775 3.3103904-2.5117303 6.5026656-1.6437819 8.7623716 1.0588551 2.259705 2.7026373 1.634769 7.2165634-1.902433 9.4414464z" fill="#ebbe63"/><path d="m7.4182152 1.0000511c-.6039761-.00236622-1.1913432.0779927-1.7389756.2403592-.8325567.3291024-1.5159451.6328194-.7378774 1.043481 1.4753825.770853 2.865424 1.8207055 4.0684458 3.152725 1.914083 2.119327 3.102228 4.6592877 3.64699 7.1642197.154203.866272.903667.09969 1.210926-.217743 1.680901-1.74698 1.596677-6.0327463-.973222-8.8782105-1.508084-1.6697929-3.5744092-2.4973689-5.4762868-2.5048314z" fill="#a9622c"/></svg>