<svg height="16" width="16" xmlns="http://www.w3.org/2000/svg"><rect fill="#19416f" height="16" rx=".8" transform="matrix(0 -1 -1 0 0 0)" width="16" x="-16" y="-16"/><path d="m8.5 1a1.5 1.5 0 0 0 -1.5 1.5 1.5 1.5 0 0 0 1.5 1.5 1.5 1.5 0 0 0 1.5-1.5 1.5 1.5 0 0 0 -1.5-1.5zm0 3h-.5-1c-.554 0-1 .446-1 1s .446 1 1 1h1v5.373047c0 .376167-.00292.648832-.021484.871094a1.5 1.5 0 0 0 -1.478516-1.244141 1.5 1.5 0 0 0 -1.5 1.5 1.5 1.5 0 0 0 1.5 1.5c2.5000001 0 3.5-.00082 3.5-2.626953v-7.373047z" fill="#fff"/></svg>