<svg height="16" width="16" xmlns="http://www.w3.org/2000/svg"><circle cx="8" cy="9" fill="#fdbb28" r="6"/><path d="m8 1.0001c-1.6579 0-3.1698.51206-4.2851 1.3719-1.1154.8598-1.7149 2.0902-1.7149 3.4586v.1694c-1.1074.5551-2 2.3362-2 4.043.00000005 2.184 1.3812 3.957 3 3.957v-8.1694c0-1.0249.4112-1.9598 1.332-2.6696.9208-.71 2.2211-1.161 3.668-1.161 1.447 0 2.747.4512 3.668 1.161s1.332 1.6446 1.332 2.6695v8.1694c1.6189 0 3-1.7728 3-3.9572 0-1.7069-.893-3.4879-2-4.043v-.1695c0-1.3686-.599-2.5988-1.715-3.4587-1.115-.8597-2.6271-1.3718-4.2849-1.3718z" fill="#4f4f4f"/><g fill="#3d3d3d"><circle cx="11" cy="8" r="1"/><circle cx="5" cy="8" r="1"/><path d="m10 11c0 1.105-.8954 2-2 2s-2-.886-2-1.99z"/></g></svg>