<svg height="16" width="16" xmlns="http://www.w3.org/2000/svg"><rect fill="#c2352a" height="16" rx=".857" transform="matrix(0 -1 -1 0 0 0)" width="16" x="-16" y="-16"/><path d="m6.723 3.082c-.0895.0658-.1119.1644-.1119.2796 0 .21382.089504.47696.13426.57564 0 0 .067134 1.1513.089508 1.2829-.20139.016446-.55942.032896-.69365.065786h-.17901c-.3804.0165-.7384.0329-.8951.148l-.06713.049342.06713.065791c.11188.098682.15664.37829.20139.67437.11188.60855.24614 1.3651.91745 1.6612l.13426.049341v-.11513s.022418-.049341.022418-.11513c0-.049341-.022418-.13158-.044727-.24671.17901.016445.55942.049342.69365.049342.0224.1316.6042 5.4937.6042 5.4937h.2238s.24615-5.2959.24615-5.4605c.15663 0 .85031.016445 1.0517.032896-.0447.0987-.2237.5099-.2237.5099l.3132-.2138c.0895-.0494 2.0362-1.3487 1.7682-2.204-.09-.2796-.403-.477-.918-.5756h-.04486c-.2909 0-1.186.016445-1.8573.049341.022427-.42763.022427-.65791.022427-.77305v-.14803c0-.082237.11188-.19737.20139-.27961.089515-.098682.2014-.18092.2014-.27961 0-.032896-.022419-.065792-.044727-.098682-.1339-.1481-1.1185-.5264-1.5436-.5593-.1343.0164-.2238.0329-.2686.0822zm.022419 2.6974h.11188c0 .14803.06713 1.1842.089504 1.3322-.179-.0165-.6041-.0494-.7384-.0494-.0672-.2138-.0895-.4441-.1119-.6743-.0224-.1974-.0447-.3948-.0895-.5757.20139 0 .73844-.032896.73844-.032896zm1.365.5098s.022364-.39474.022364-.52632c.29089.032896.67129.049342 1.0293.049342h.40278c0 .065791-.022417.14803-.022417.14803-.04473.36184-.11188.78946-.31328 1.2171-.13425 0-.96218-.032896-1.1412-.049341 0-.11513.022418-.83882.022418-.83882z" fill="#fff"/></svg>