<svg height="16" viewBox="0 0 16 16" width="16" xmlns="http://www.w3.org/2000/svg"><g transform="translate(0 -1036.4)"><ellipse cx="8" cy="1044.4" fill="#fa4b8c" rx="8" ry="8"/><circle cx="8" cy="1044.4" fill="#fff" r="5"/><path d="m6.4799 1036.5c-.20519.038-.40889.085-.6105.1384-.25666.071-.51067.1547-.75894.2511-.24823.097-.49033.2052-.72769.326-.23732.1208-.46901.2535-.69309.3973-.22413.144-.44092.2987-.64956.4643-.20863.1655-.40828.3412-.59934.5267-.024556.026-.049458.052-.073661.078.15238 1.0458.90483 2.3032 1.7188 3.3069a4.5715 4.5715 0 0 0 -.65737 2.3516 4.5715 4.5715 0 0 0  .010045.2835c-1.1968-.6533-2.4157-1.6752-2.9788-2.8817-.029468.077-.05887.1542-.085938.2321-.07869.2544-.14353.5124-.19643.7735-.052929.2609-.09281.5241-.11942.7891-.026568.265-.040203.5305-.040179.7968-.0000296.1885.0067812.3778.020089.5659.018876.2656.050677.5299.095983.7924.041834.2352.094622.4681.15737.6987.98078.3907 2.4421.3696 3.7177.1674a4.5715 4.5715 0 0 0 1.9665 1.875c-1.1638.7101-2.66 1.2559-3.9866 1.1406.092551.1113.18837.2197.28683.3259.18556.191.38113.3731.58483.5446.20369.1716.41525.3329.63505.4833.21981.1504.44709.2898.68081.4174.23373.1277.47345.2434.71876.3471.24533.1037.49554.1959.75001.2746.096193.026.19306.05.29018.073.82611-.6535 1.5361-1.9275 1.9978-3.1307a4.5715 4.5715 0 0 0  .0668 0 4.5715 4.5715 0 0 0 2.5391-.7745c.0337 1.3651-.2412 2.9379-1.0067 4.0312.20519-.038.40889-.084.6105-.1372.25666-.071.50956-.1558.75782-.2522.24823-.097.49145-.2051.7288-.3259.23732-.1208.46789-.2535.69197-.3973.22413-.1439.44092-.2987.64956-.4643.20863-.1655.40939-.3414.60045-.5268.02455-.026.04946-.052.07366-.078-.15254-1.047-.90718-2.3049-1.7221-3.3092a4.5715 4.5715 0 0 0  .64844-2.3394 4.5715 4.5715 0 0 0 -.01004-.3024c1.2008.6528 2.426 1.6788 2.9911 2.8895.02946-.077.05776-.1543.08482-.2321.07869-.2545.14465-.5125.19755-.7735.05293-.261.09281-.5252.11942-.7902.02657-.2651.03909-.5316.03906-.798.00003-.1885-.0057-.3767-.01897-.5647-.01888-.2657-.05068-.53-.09598-.7924-.04198-.2364-.09541-.4704-.15848-.702-1.1871-.4232-2.6004-.3492-3.7355-.1641a4.5715 4.5715 0 0 0 -1.9632-1.865c1.166-.7148 2.6685-1.2665 4.0012-1.1507-.09255-.1114-.18837-.2197-.28683-.3259-.18556-.191-.37889-.3731-.5826-.5446-.20369-.1716-.41637-.3318-.63617-.4822-.21981-.1503-.44709-.2908-.68081-.4185-.23373-.1277-.47456-.2434-.71987-.3471-.24533-.1038-.49554-.1947-.75001-.2734-.09539-.026-.19053-.051-.28683-.074-.82951.6557-1.5425 1.9361-2.0045 3.1429a4.5715 4.5715 0 0 0 -.074776 0 4.5715 4.5715 0 0 0 -2.5279.7656c-.034252-1.3659.24167-2.9403 1.0078-4.0346z" fill="#fff"/><path d="m6.3171 1041.4c-.1739-.1-.317.1-.3171.3v5.3441c-.0000021.252.25822.4094.46483.2835l2.1901-1.336 2.1902-1.336c.20651-.126.20651-.441 0-.5671l-2.1902-1.336-2.1901-1.336c-.044978-.028-.095757-.043-.14768-.044z" fill="#fa4b8c"/></g></svg>