<svg height="16" width="16" xmlns="http://www.w3.org/2000/svg"><path d="m14 15.143v-14.286c0-.47471-.365-.857-.818-.857h-10.364c-.4531.00000002-.818.38229-.818.85714v14.286c0 .475.3649.857.8182.857h10.364c.453 0 .818-.382.818-.857z" fill="#e81d62"/><path d="m3 1v14h10v-9l-4.5-5zm6.8967 0 3.1033 3.5v-3.5h-3z" fill="#f5f5f5"/><path d="m7.5 7c-1.0498 0-1.9433.3907-2.3145.9375-.0341.0469-.0594.0937-.0839.1406-.0244.047-.0421.0937-.0567.1407-.005.0156-.0068.030616-.01172.041016-.0098.036533-.01856.068409-.02344.099609-.0048.0469-.0097.0937-.0097.1406 0 .046933.0039.099551.01367.14648.0049.0468.02041.093825.03516.14062.01462.046933.03323.093825.05273.14062.0245.047.0547.0879.0839.1348.3809.5677 1.2989.9375 2.3145.9375s1.9336-.3698 2.3145-.9375c.02925-.041733.04886-.078701.06836-.11523.005-.0104.01077-.014991.01563-.025391.01462-.0312.02736-.068409.03711-.099609.0049-.0156.01466-.031142.01953-.046875.0099-.026.01661-.055898.02149-.082031.0049-.0208.0089-.042359.01367-.068359.0048-.0417.0097-.0834.0097-.125 0-.0521-.004-.0983-.0137-.1504-.0243-.1459-.084-.2818-.1718-.4121-.3712-.5468-1.2647-.9375-2.3145-.9375zm-2.3145 3c-.122.172-.1855.359-.1855.547 0 .802 1.1181 1.453 2.5 1.453s2.5-.651 2.5-1.453c0-.188-.0636-.375-.1855-.547-.3809.547-1.294 1-2.3145 1s-1.9336-.453-2.3145-1zm0 2c-.122.172-.1855.36-.1855.547 0 .803 1.1181 1.453 2.5 1.453s2.5-.651 2.5-1.453c0-.187-.0635-.375-.1855-.547-.3809.547-1.294 1-2.3145 1s-1.9336-.453-2.3145-1z" opacity=".5"/></svg>