<svg height="16" width="16" xmlns="http://www.w3.org/2000/svg"><rect fill="#4f4f4f" height="3" rx=".153" ry=".179" width="3"/><rect fill="#e4e4e4" height="3" rx=".153" ry=".179" width="3" x="4"/><rect fill="#ff5757" height="3" rx=".153" ry=".179" width="3" x="8"/><g fill="#e4e4e4"><rect height="3" rx=".153" ry=".179" width="3" x="12"/><rect height="3" rx=".153" ry=".179" width="3" y="4"/><rect height="3" rx=".153" ry=".179" width="3" x="4" y="4"/></g><rect fill="#ff5757" height="3" rx=".153" ry=".179" width="3" x="8" y="4"/><rect fill="#e4e4e4" height="3" rx=".153" ry=".179" width="3" x="12" y="4"/><rect fill="#e4e4e4" height="3" rx=".153" ry=".179" width="3" y="8"/><rect fill="#4f4f4f" height="3" rx=".153" ry=".179" width="3" x="4" y="8"/><rect fill="#e4e4e4" height="3" rx=".153" ry=".179" width="3" x="8" y="8"/><rect fill="#4ac73e" height="3" rx=".153" ry=".179" width="3" x="12" y="8"/><g fill="#e4e4e4"><rect height="3" rx=".153" ry=".179" width="3" y="12"/><rect height="3" rx=".153" ry=".179" width="3" x="4" y="12"/><rect height="3" rx=".153" ry=".179" width="3" x="8" y="12"/><rect height="3" rx=".153" ry=".179" width="3" x="12" y="12"/></g></svg>