<svg height="16" width="16" xmlns="http://www.w3.org/2000/svg"><path d="m13.52381 8.047619a2.4761905 2.4761905 0 0 0 -2.40625 1.9047619h-7.3080362v3.0476191h9.7142862a2.4761905 2.4761905 0 0 0 2.47619-2.476191 2.4761905 2.4761905 0 0 0 -2.47619-2.47619z" fill="#138985"/><circle cx="4" cy="9" fill="#16aca8" r="4"/><circle cx="12.5" cy="7.5" fill="#16aca8" r="2.5"/><circle cx="8" cy="7" fill="#1bd0cb" r="5"/><path d="m8 3a4 4 0 0 0 -4 4 4 4 0 0 0 4 4 4 4 0 0 0 4-4 4 4 0 0 0 -4-4zm0 1a3 3 0 0 1 3 3 3 3 0 0 1 -3 3 3 3 0 0 1 -3-3 3 3 0 0 1 3-3z" fill="#fff"/><path d="m6 5v3 1.5h1v-1.5h3v-3h-3zm1 1h2v1h-2z" fill="#fff"/></svg>