<svg height="16" width="16" xmlns="http://www.w3.org/2000/svg"><path d="m .85742 0c-.47486 0-.85742.38256-.85742.85742v7.1426h16v-7.1426c0-.47484-.383-.8574-.857-.8574h-14.286z" fill="#e6c59a"/><path d="m16 15.143v-7.143h-16v7.143c0 .475.38229.857.85714.857h14.286c.475 0 .857-.382.857-.857z" fill="#e54b3f"/><path d="m5 3a1 1 0 0 1 -1 1 1 1 0 0 1 -1-1 1 1 0 0 1 1-1 1 1 0 0 1 1 1z" fill="#3f3f3f"/><path d="m13 3a1 1 0 0 1 -1 1 1 1 0 0 1 -1-1 1 1 0 0 1 1-1 1 1 0 0 1 1 1z" fill="#3f3f3f"/><g fill="#fff"><rect height="6" rx=".902" ry=".801" width="2" x="7" y="9"/><rect height="6" rx=".902" ry=".801" width="2" x="11" y="9"/><rect height="6" rx=".902" ry=".801" width="2" x="3" y="9"/></g><path d="m10 5c0 1.1045695-.8954308 2-2.0000002 2-1.10457 0-2-.8954305-2-2z" fill="#a81a1a"/></svg>