<svg height="16" width="16" xmlns="http://www.w3.org/2000/svg"><rect fill="#fecd38" height="16" rx=".8" transform="matrix(0 -1 -1 0 0 0)" width="16" x="-16" y="-16"/><path d="m5.0182 1c-.554 0-1 .446-1 1v1c0 .554.446 1 1 1h1c .554 0 1-.446 1-1v-1c0-.554-.446-1-1-1zm-.47232 4-.52768.38281-1.9473 3.8945c-.33515.60875.61084 1.0797.89453.44532l1.0527-2.1055.37927-1.1255-.3792 3.5084v5h1v-4h1v4h1v-5l-.52768-3.5124.52768 1.1296 1.0527 2.1055c.04847.0973.12732.17614.22461.22461l1.7227.86132v4.1914h2v-3.293l.64648.64649c.47126.49077 1.1978-.23578.70703-.70704l-1.3535-1.3535v-.29297h-1.3828l-1.7441-.87305-1.873-3.7441-.69258-.38281zm5.4723 2v2h2v-2z" fill="#333"/></svg>