<svg height="16" viewBox="0 0 16 16" width="16" xmlns="http://www.w3.org/2000/svg"><path d="m .80078125.99804688v.00195312c-.4432 0-.80078125.3464438-.80078125.7773438v11.2226562 1.222656c0 .43092.35758125.777344.80078125.777344h14.39843775c.443 0 .800781-.346344.800781-.777344v-1.222656-11.2246094c0-.4309-.357781-.77734373-.800781-.77734372z" fill="#8b346f"/><path d="m .80078125.99804688v.00195312c-.4432 0-.80078125.3464438-.80078125.7773438v11.2226562 1.222656c0 .43092.35758125.777344.80078125.777344h2.19921875v-14.00195312z" opacity=".2"/><g fill="#fff"><rect height="1" rx=".125" width="1" x="1" y="2"/><rect height="1" rx=".125" width="1" x="1" y="4"/><rect height="1" rx=".125" width="1" x="1" y="6"/><rect height="1" rx=".125" width="1" x="1" y="8"/></g></svg>