<svg height="16" width="16" xmlns="http://www.w3.org/2000/svg"><path d="m6.1503906 2c-.1385 0-.25.1201781-.25.2675781 0 .12047.0743134.2206963.1777344.2539063.100742.3652172.2983668.7124079.5566406 1.0195312a1.9999994 1.9999994 0 0 0 -.6347656 1.4589844 1.9999994 1.9999994 0 0 0 1 1.7304688v5.2539062c0 .58749.57951 1.015625 1 1.015625.42064 0 .99905-.445835 1-1.015625v-5.2558594a1.9999994 1.9999994 0 0 0 1-1.7285156 1.9999994 1.9999994 0 0 0 -.6347656-1.4589844c.2580561-.3071339.4558403-.6544307.5566406-1.0195312.1035-.0332.177734-.1334563.177734-.2539063 0-.1474-.1114996-.2675781-.2499996-.2675781-.1388 0-.2519532.1204381-.2519532.2675781 0 .081204.0340017.1524419.0878907.2011719-.0932698.3275961-.2736919.6395442-.5097657.9160156a1.9999994 1.9999994 0 0 0 -1.1757812-.3847656 1.9999994 1.9999994 0 0 0 -1.1757812.3847656c-.2362054-.276376-.4166275-.5884853-.5097657-.9160156.0535-.0488.0878906-.1199719.0878907-.2011719 0-.14715-.1134532-.2675781-.2519532-.2675781z" fill="#4f4f4f"/><path d="m4.1504 3.5002c-1.7397 0-3.1504 1.6679-3.1504 3.7254.00135 1.597.76306 3.0155 2.042 3.5265-.0278.177-.04205.357-.042.538 0 1.4965 1.04041 2.71 2.2 2.71 1.16 0 1.8-1.2135 1.8-2.71v-4.0645c0-2.0575-1.11-3.7255-2.8496-3.7255z" fill="#e75177"/><path d="m11.8495 3.5002c-1.7395 0-2.8495 1.668-2.8495 3.7255v4.0645c0 1.4965.64001 2.71 1.8 2.71 1.1595 0 2.201-1.2135 2.201-2.71 0-.181-.0145-.361-.042-.538 1.278-.511 2.0385-1.9294 2.0405-3.5264 0-2.0575-1.411-3.7254-3.151-3.7254z" fill="#e75177"/><g fill="#ff85aa"><ellipse cx="1.533" cy="8.226" rx="1.884" ry="2.589" transform="matrix(.97568626 -.21917191 .3044426 .95253068 0 0)"/><ellipse cx="-13.767" cy="4.706" rx="1.884" ry="2.589" transform="matrix(-.97568626 -.21917191 -.3044426 .95253068 0 0)"/><path d="m5.9417084 11.20448a1.5120828.98162482 80.448943 0 1 -.6052895 1.766125 1.5120828.98162482 80.448943 0 1 -1.2781273-1.175085 1.5120828.98162482 80.448943 0 1  .6052894-1.766125 1.5120828.98162482 80.448943 0 1 1.2781274 1.175085z"/><path d="m10.058292 11.20448a.98162472 1.5120827 9.5510565 0 0  .605289 1.766125.98162472 1.5120827 9.5510565 0 0 1.278128-1.175085.98162472 1.5120827 9.5510565 0 0 -.60529-1.766124.98162472 1.5120827 9.5510565 0 0 -1.278127 1.175084z"/></g></svg>