<svg height="16" width="16" xmlns="http://www.w3.org/2000/svg"><path d="m14.8571.00000004s1.1429 0 1.1429 1.14289996v13.714c0 1.143-1.1429 1.143-1.1429 1.143h-8.8571l-6-6v-8.8571c0-1.14289996 1.143-1.14289996 1.143-1.14289996z" fill="#303d75"/><path d="m0 10h5.1c.497 0 .9.403.9.9v5.1z" fill="#44559e"/><path d="m7.9999999.99999809a3.5000006 3.5000006 0 0 0 -3.4999999 3.49999981 3.5000006 3.5000006 0 0 0  .04004.500977 2.5000004 2.5000004 0 0 0 -.04004-.000975 2.5000004 2.5000004 0 0 0 -2.5 2.5 2.5000004 2.5000004 0 0 0 2.5 2.5000001h6.5a3.0000005 3.0000005 0 0 0 3-3.0000001 3.0000005 3.0000005 0 0 0 -2.534179-2.960938 3.5000006 3.5000006 0 0 0 -3.4658211-3.03906231zm-.001 1.00000001h.001c1.2596738.0018 2.3087001.9220846 2.4746101 2.1708988a1.0001 1.0001 0 0 0  .835937.856445c.979046.153886 1.688569.982567 1.689453 1.973633-.00055 1.115932-.883927 1.999022-2 1.999023h-6.5c-.8402705-.000001-1.499999-.659729-1.5-1.5-.000001-.840272.659728-1.499999 1.5-1.5.001.000035.00195-.000037.00295 0a1.0001 1.0001 0 0 0 1.025391-1.15039c-.017846-.116512-.027131-.23371-.028341-.351563.00107-1.3912792 1.1076069-2.4975168 2.4990239-2.4980468z" fill="#5d8cb9"/></svg>