<svg height="16" width="16" xmlns="http://www.w3.org/2000/svg"><path d="m13.954546 0 2.045454 1.9642857v8.5446433c0 .27225-.227864.491071-.511364.491071h-7.9772724c-.2830909 0-.5113636-.218821-.5113636-.491071v-10.0178576c0-.2720535.2282727-.4910714.5113636-.4910714z" fill="#c2352a"/><rect height="4" opacity=".4" rx=".391" ry=".5" transform="scale(-1)" width="5" x="-14" y="-9"/><g fill="#f8c44e" transform="scale(-1 1)"><path d="m-8.41 1h .409v1h-.409z"/><path d="m-14.5 1.5h.5v.5h-.5z"/><path d="m-9.41 1h .409v1h-.409z"/><path d="m-10.41 1h .409v1h-.409z"/><path d="m-11.41 1h .409v1h-.409z"/><path d="m-12.41 1h .409v1h-.409z"/><path d="m-13.41 1h .409v1h-.409z"/></g><path d="m6.9545455 5 2.0454545 1.9642857v8.5446433c0 .27225-.2278636.491071-.5113636.491071h-7.97727276c-.28309091 0-.51136364-.218821-.51136364-.491071v-10.0178576c0-.2720535.22827273-.4910714.51136364-.4910714z" fill="#1778ba"/><rect height="4" opacity=".4" rx=".391" ry=".5" transform="scale(-1)" width="5" x="-7" y="-14"/><g fill="#f8c44e" transform="scale(-1 1)"><path d="m-1.41 6h .409v1h-.409z"/><path d="m-7.5 6.5h.5v.5h-.5z"/><path d="m-2.41 6h .409v1h-.409z"/><path d="m-3.41 6h .409v1h-.409z"/><path d="m-4.41 6h .409v1h-.409z"/><path d="m-5.41 6h .409v1h-.409z"/><path d="m-6.41 6h .409v1h-.409z"/></g></svg>