<svg height="16" width="16" xmlns="http://www.w3.org/2000/svg"><path d="m0 3h3v3h-3z" fill="#e2731c"/><path d="m0 9h3v3h-3z" fill="#e2731c"/><path d="m .0000001 11.999997v2.25c0 .4155.3345.75.75.75h2.25v-3h-3z" fill="#a3d341"/><path d="m12 3h3v3h-3z" fill="#e2731c"/><path d="m12 9h3v3h-3z" fill="#e2731c"/><path d="m12 11.999997v3h2.25c.4155 0 .75-.3345.75-.75v-2.25z" fill="#a3d341"/><path d="m6 3h3v3h-3z" fill="#e2731c"/><path d="m6 9h3v3h-3z" fill="#e2731c"/><path d="m6 12h3v3h-3z" fill="#a3d341"/><path d="m3 0h3v3h-3z" fill="#e2731c"/><path d="m3 6h3v3h-3z" fill="#6b6bd8"/><g fill="#e2731c"><path d="m3 12h3v3h-3z"/><path d="m9 0h3v3h-3z"/><path d="m9 6h3v3h-3z"/><path d="m9 12h3v3h-3z"/></g><g fill="#a3d341"><path d="m .7500001-.000003c-.4155 0-.75.3345-.75.75v2.25h3v-3h-2.25z"/><path d="m0 6h3v3h-3z"/><path d="m12-.000003v3h3v-2.25c0-.4155-.3345-.75-.75-.75h-2.25z"/><path d="m12 6h3v3h-3z"/><path d="m6 0h3v3h-3z"/><path d="m6 6h3v3h-3z"/><path d="m3 3h3v3h-3z"/><path d="m3 9h3v3h-3z"/><path d="m9 3h3v3h-3z"/><path d="m9 9h3v3h-3z"/></g></svg>