<svg height="16" width="16" xmlns="http://www.w3.org/2000/svg"><path d="m7.5 0c-.277 0-.5.223-.5.5v.5214844a6.5 6.5 0 0 0 -1.4316406.2792968l-.1953125-.4882812c-.1025237-.25732832-.3911091-.38182051-.6484375-.27929688-.2573283.10252373-.3818205.3911092-.2792969.64843748l.1933594.4863282a6.5 6.5 0 0 0 -1.3632813.9003906l-.3710937-.3710938c-.1958686-.1958685-.5111627-.1958685-.7070313 0-.1958685.1958686-.1958685.5111627 0 .7070313l.3691406.3691406a6.5 6.5 0 0 0 -.8945312 1.3671875l-.4902344-.1953125c-.25732891-.1025235-.54591446.0219684-.64843748.2792969-.102524.2573281.02196888.545914.27929688.6484375l.484375.1933593a6.5 6.5 0 0 0 -.2714844 1.4335938h-.5253906c-.277 0-.5.223-.5.5s.223.5.5.5h.5214844a6.5 6.5 0 0 0  .2792968 1.4316406l-.4882812.1953125c-.25732846.1025241-.38182033.3911089-.27929688.6484379.10252396.257328.39110933.381819.64843748.279297l.4863282-.19336a6.5 6.5 0 0 0  .9003906 1.363281l-.3710938.371094c-.1958685.195869-.1958685.511162 0 .707031.1958686.195868.5111627.195868.7070313 0l .3691406-.36914a6.5 6.5 0 0 0 1.3671875.894531l-.1953125.490234c-.102523.257328.0219689.545914.2792969.648438.257329.102523.545913-.02197.6484375-.279297l.1933593-.484375a6.5 6.5 0 0 0 1.4335938.271484v.525391c0 .277.223.5.5.5s.5-.223.5-.5v-.521484a6.5 6.5 0 0 0 1.4316406-.279297l.1953125.488281c.1025245.257327.3911089.38182.6484379.279297.257328-.102524.381819-.39111.279297-.648438l-.19336-.486328a6.5 6.5 0 0 0 1.363281-.90039l.371094.371093c.195869.195868.511162.195868.707031 0 .195868-.195869.195868-.511162 0-.707031l-.36914-.369141a6.5 6.5 0 0 0  .894531-1.367187l.490234.195313c.257328.102522.545914-.021969.648438-.279297.102524-.257329-.021968-.5459138-.279297-.6484379l-.484375-.1933593a6.5 6.5 0 0 0  .271484-1.4335938h.525391c.277 0 .5-.223.5-.5s-.223-.5-.5-.5h-.521484a6.5 6.5 0 0 0 -.279297-1.4316406l.488281-.1953125c.257328-.1025235.381821-.3911094.279297-.6484375-.102523-.2573285-.391109-.3818204-.648438-.2792969l-.486328.1933594a6.5 6.5 0 0 0 -.90039-1.3632813l.371093-.3710937c.195868-.1958686.195868-.5111627 0-.7070313-.195869-.1958685-.511162-.1958685-.707031 0l-.369141.3691406a6.5 6.5 0 0 0 -1.367187-.8945312l.195313-.4902344c.102523-.25732827-.021968-.54591376-.279297-.64843748-.257328-.10252364-.5459142.02196856-.6484379.27929688l-.1933593.484375a6.5 6.5 0 0 0 -1.4335938-.2714844v-.5253906c0-.277-.223-.5-.5-.5z" fill="#574b37"/><path d="m9.999998 3 .000002 3s-1.5 0-1.5.75c0 1.2001898 1.212981 1.2844095 1.125133 2.467005-.219826 2.976868-3.7711 2.876078-5.620817 2.71994l-.004316-2.71994s.7711855.1948346 1.3364095.152169c.363624.005826.812093-.4353656.738624-.744174.073469-.8161916-1.0450875-1.5983104-1.0480335-2.5890994.023067-3.0359006 3.848-3.0359006 4.973-3.0359006z" fill="#3264e0"/></svg>