<svg height="16" width="16" xmlns="http://www.w3.org/2000/svg"><path d="m7.9986217.0004c-.712304 1.745978-1.141911 2.888044-1.934952 4.581943.486219.515313.9670543 1.115386 1.9363303 1.793137-1.0420509-.428715-1.6368302-.859109-2.168017-1.305743-1.0149256 2.117413-2.6050881 5.133535-5.83198275 10.930263 2.53623465-1.463862 4.30221635-2.36637 6.13458755-2.710766-.07868-.338316-.1234171-.704271-.120376-1.086106l.0028-.08124c.04024-1.624539 1.103283-3.119694 2.08668-3.121888.983396-.0022 1.9397132 1.804225 1.8994652 3.428765-.0076.305716-.04206.599752-.1023132.872509 1.8123682.354475 3.5972492 1.254664 6.0991562 2.698726-.49334-.908029-.933669-1.726578-1.354154-2.506169-.662374-.513273-1.2366-1.181265-2.645846-1.904456.968636.251637 1.545542.541953 2.086132.866469-4.2752662-7.958301-4.6213362-9.015887-6.0876343-12.455844z" fill="#1793d1" fill-rule="evenodd"/></svg>