<svg height="16" viewBox="0 0 16 16" width="16" xmlns="http://www.w3.org/2000/svg"><g transform="translate(-16 -16)"><path d="m23.938 16-.0008.0015c-4.4028.03356-7.9376 3.5872-7.9376 7.9984 0 4.432 3.568 8 8 8 4.272 0 7.7404-3.3156 7.9852-7.5244l.0148-.014v-6.8616c0-.886-.714-1.6-1.6-1.6h-6.462z" fill="#a1a331"/><circle cx="24" cy="24" fill="#efefef" r="6"/><path d="m22.105 28.977c-.0312-.01684-.08278-.06861-.11462-.11498-.03184-.04636-.11409-.14642-.18277-.22229-.105-.11601-.13504-.13881-.18873-.14328-.03589-.0032-.09128-.02724-.12648-.05544-.06655-.05326-.1859-.21207-.1859-.24738 0-.0281-.07621-.05719-.14988-.05719-.12968 0-.22737-.07334-.25716-.19303-.0103-.04135-.03535-.12387-.05569-.18335-.03117-.09119-.04688-.11258-.10011-.13633-.29172-.13018-.29913-.13583-.34671-.26421-.01697-.04579-.04635-.10673-.0653-.13544-.02777-.0421-.03222-.06979-.02297-.14296.009-.07171.0038-.10635-.02464-.16502-.03281-.06748-.03384-.07999-.01117-.13688.01372-.03446.03374-.06832.0445-.07532.01076-.0068.03187-.03763.0469-.06814.02717-.05513.02688-.05593-.04862-.12807-.04179-.03993-.10989-.09558-.15135-.1237-.06078-.04123-.08042-.0688-.10139-.14233-.04571-.16037-.03691-.20461.06215-.31186.04849-.05252.08817-.11041.08817-.1287 0-.01828-.03021-.06843-.06712-.11145-.03692-.04302-.09571-.11982-.13065-.17069-.08833-.1286-.13603-.17142-.23595-.21176-.1461-.059-.31432-.13106-.34215-.14658-.01454-.0081-.04708-.05421-.07231-.1024-.07131-.13631-.10586-.16377-.21828-.17355-.15918-.01383-.1725-.06851-.11588-.47559.02442-.17559.05047-.24451.13168-.34841.10248-.1311.1897-.17755.35636-.18977.13004-.0096.14727-.0061.27111.05185.07274.03412.14473.07009.15998.07996.06261.04044.32345.44128.34267.52661.0057.02543.03194.0791.05825.11922.04265.06508.06654.07951.22083.13359.09515.03334.19684.08165.22598.10738.06761.05967.08391.05879.16524-.0091.11833-.09865.17363-.12507.29061-.13882.18645-.02192.19397-.02773.19397-.15016 0-.0793.01103-.12495.04483-.18544.06382-.11424.10555-.1087.22143.02941.05061.06032.12843.1301.17296.1551.07987.04484.08192.04503.1515.01304.07507-.03449.16354-.13794.20106-.23511.03132-.08118.0096-.19829-.05025-.27078-.10892-.13194-.24779-.37302-.24779-.43018 0-.08025.12204-.27206.21026-.33048.08466-.05607.11151-.09712.15184-.23211.04692-.15706.08144-.22227.14434-.27259.06541-.05234.06937-.0777.02994-.19216-.06707-.19473-.01713-.31164.17252-.40382.13141-.06388.15389-.11079.08459-.17658-.05455-.05179-.04493-.1214.02486-.17982.08407-.07038.1258-.20428.09774-.31362-.01127-.0439-.03552-.11073-.05391-.14854-.06454-.1327-.03877-.20532.09343-.26327.06943-.03043.13764-.10826.13764-.15705 0-.01684-.03536-.06705-.07859-.11157-.08468-.08717-.11157-.16108-.08067-.22167.02815-.05519.09914-.04836.15584.01497.02612.02916.06758.05803.09213.06408.06673.01649.21178-.06166.27852-.15007.04349-.05757.07297-.07781.12764-.08751.03909-.0068.10443-.03941.14518-.07216.06723-.05405.07409-.06709.07409-.14108 0-.07947.0017-.0818.0646-.09271.07756-.01347.14512-.05723.18374-.11906.0266-.04257.02604-.04954-.0086-.10829-.02035-.03454-.03699-.0804-.03699-.10197 0-.02153-.0091-.07498-.0203-.11877-.01141-.0448-.01486-.11-.0079-.1491.02219-.12404.14427-.13804.24244-.02779.05894.06618.06272.11008.01629.18903-.02939.04996-.03066.0623-.0096.09247.02319.03316.02837.03339.11217.0048.12156-.0417.1931-.0378.29426.01602.0488.02598.1176.04631.15728.04652.10138.000515.15507.03485.16941.1084.0262.13443.09918.13939.17432.01185.04657-.07905.09227-.09345.18628-.05858.06047.02238.07822.02262.11462.0016.06247-.0363.11146-.0321.23617.02026.06542.02745.12456.04143.14408.03409.01821-.0067.08469-.06946.14775-.13906.09914-.10947.12297-.12657.17633-.1265.07726.000087.1665.05587.20086.12557.01445.02931.05342.07502.08662.10158.04394.03517.0633.06764.0712.11946.006.03915.03829.11166.07184.16115.04793.07075.06355.11524.07302.20796.01077.10492.01756.12097.06194.14505.07699.04177.14889.03361.21414-.02437.03187-.02829.08809-.07483.12497-.10342.04141-.03207.08525-.09199.11462-.15664.04366-.09609.05338-.10568.11811-.11678.07944-.01364.17084.02142.2104.08067.03951.0592.01547.24617-.04654.36186-.04394.08199-.0503.1095-.04007.17306.01255.07797.02874.09998.13825.18811.03534.02842.08008.08424.09944.12406.04664.09592.17779.18012.23668.15197.03135-.01497.04261-.03888.0498-.10579.0052-.04753.01858-.09611.02993-.10794.0257-.0268.24961-.02246.29994.0055.0253.01419.03607.03872.03607.08211 0 .034.01301.09406.02889.13346.02079.05153.02803.11965.02581.24271-.0036.19448.0018.2096.12888.36537.13279.1628.17467.22591.25558.38518.09887.19464.13945.31247.15354.44582.0084.07822.02694.13552.06142.18845.12096.18574.1317.30386.08232.90543-.0191.23273-.02358.37732-.01316.42546.01029.04769.0071.16424-.0094.33688-.02642.27676-.05201.37362-.17621.66704-.04946.11687-.06655.18388-.07076.27747-.02836.63062-.15428.90956-.41062.90956-.05304 0-.10406.02365-.22552.10454-.24692.16444-.28932.18642-.43417.22505-.17409.04642-.24392.08934-.28386.17442-.03892.08294-.02968.10426.08478.19568.12058.09631.12669.11144.09138.22615-.05393.17521-.11784.18744-.28517.05458-.06973-.05538-.1347-.09251-.16186-.09251-.02496 0-.10586.03248-.17981.07213-.23033.1236-.28749.13384-.41541.07449-.09281-.04308-.10273-.03971-.22979.07732-.05022.04624-.06231.07067-.06231.12577 0 .08274-.02523.11277-.09472.11277-.02881 0-.06774.01458-.08652.03237-.01914.01818-.06189.03237-.09743.03237-.05989 0-.06452.0047-.08605.08322-.02468.09019-.09258.16648-.14822.16648-.01917 0-.07273.02015-.11902.04474-.18058.09599-.31031.08611-.48935-.03725-.15875-.10938-.17983-.13064-.22765-.22947-.05583-.1154-.09432-.1463-.22081-.17725-.06032-.01475-.16137-.04854-.22454-.07505-.10182-.04274-.13012-.04688-.24914-.0364-.07385.0064-.1422.01157-.1519.01119-.0097-.000374-.07982-.0028-.15582-.0048-.12296-.004-.14239-.0095-.17633-.05072-.04731-.05753-.16129-.12934-.20531-.12934-.04093 0-.12142.08282-.16723.17208-.0307.05984-.0322.07698-.01322.15144.0324.12707.02744.15404-.0359.19529-.04872.03174-.07581.03561-.18074.0261-.1079-.0098-.1329-.0056-.1987.03177-.04141.02363-.12344.09283-.18232.15378-.09932.10279-.10633.11548-.09715.17573.0214.14039-.03229.188-.12536.11119-.05537-.04569-.08168-.04577-.17673-.000517-.09244.04403-.09514.06956-.0088.08347.03637.0057.10362.02365.14946.03952.07667.02655.08967.02631.1625-.003.07776-.03114.08067-.03092.1634.01216.10031.05226.12517.11403.09431.23427-.02543.0991-.06032.11762-.25667.13623-.38836.03681-.42082.03717-.47992.0049zm4.6168-1.7395c.0204-.01937.0533-.06848.07312-.10918.03927-.08064.03883-.07048.03293-.76846-.0037-.43195.0063-.48457.11789-.62147.05314-.06519.09962-.09696.21357-.1459.2507-.10766.39167-.21318.44415-.33248.04208-.09562.04159-.17048-.0019-.30039-.0446-.1331-.07143-.16352-.12012-.13619-.04759.02673-.08586.0095-.0988-.04465-.0093-.03876-.02046-.04377-.09651-.04316-.0734.000595-.08884.0071-.10534.04517-.02543.05852-.06945.0566-.09142-.0042-.01506-.04154-.02507-.04692-.0701-.03748-.04306.0091-.05253.0048-.05253-.02302 0-.01871.01684-.05651.03741-.08395.0372-.04962.03721-.04992.0018-.05962-.01955-.0051-.05927-.04438-.08825-.08676-.04994-.07295-.05294-.08762-.05717-.28045-.0077-.34961-.0039-.38942.04178-.44714.03285-.04144.04372-.08294.05247-.20028.0061-.08138.01944-.23881.02973-.34983.02024-.21851.0042-.35833-.05347-.46409-.03705-.06802-.07039-.34092-.06404-.52402.0042-.11813 0-.13892-.0308-.16166-.03181-.02336-.04026-.02131-.08132.01995-.05539.05564-.06357.05663-.07544.0091-.0055-.02215-.02405-.03698-.04614-.03698-.0532 0-.0457-.03895.01806-.09393.04633-.03996.05228-.05362.03666-.08422-.03742-.07336.0405-.10709.18167-.07865.02337.0048.03346-.0019.02991-.01902-.0029-.01437.0039-.04978.01537-.07863.02521-.06387-.0013-.10797-.06444-.10797-.0464 0-.07782-.048-.07782-.11887 0-.02725-.01493-.05709-.03526-.07041-.04255-.02788-.04456-.04924-.0074-.07781.02513-.01931.02405-.02837-.0109-.09061-.04489-.0798-.11601-.12451-.22861-.14369-.04364-.0074-.1349-.02291-.20278-.03438-.06789-.01148-.18691-.03403-.2645-.05015-.27324-.05673-.44029-.06668-.57894-.03443-.28428.06611-.48627.18738-.54982.33005-.04839.10863-.10496.20685-.17911.31095-.04045.05679-.08214.13573-.09263.1754-.01848.06987-.04316.11413-.18112.32487-.03585.05474-.18061.22599-.32169.3805-.20622.22586-.269.30737-.32022.41579-.03504.07417-.07005.15983-.0778.19035-.0078.03053-.03036.09712-.05024.14799-.01988.05085-.05436.14463-.07661.20836-.03549.10163-.06107.13596-.20824.27935-.20417.19892-.28287.33895-.24776.4408.01922.05572.01577.07113-.04024.17992-.05945.11547-.06028.11988-.02832.15022.03205.03043.03179.03301-.0094.09664-.02964.04578-.03943.08068-.03263.11638.0075.03925.0011.0558-.02742.07183-.02043.01148-.03715.03234-.03715.04639s-.0194.04082-.04311.05946c-.04079.03209-.04206.03861-.02353.12156.01665.07449.01525.09264-.0092.12102-.01785.02069-.03113.07534-.03494.1438-.0059.10579-.0038.11197.04792.14753.02973.02042.0625.06434.07281.09766.0362.11685.09305.15432.27516.18132.09049.01342.20523.02469.25496.02507.04973.000373.11718.01235.14988.02667.03271.01429.15006.0355.26079.04706.11073.0116.20887.02597.21809.03192.04293.02785.16234.04541.35644.05251.26576.0097.43235.02112.55178.03786.0834.01171.09809.0084.13808-.03099.04388-.04324.04526-.04339.06978-.0082.01378.01974.02504.05476.02504.07782 0 .02592.0238.06166.06227.09357.08583.0712.13187.15917.13174.25172-.000061.04256.0018.13984.0043.21615.004.12684.0077.13923.04295.14449.04749.0069.06787.08612.04119.15977-.02072.05717.0013.1027.04819.1027.02688 0 .0261.02069-.0064.17111-.01581.07317.04247.06926.06906-.0048.02477-.06884.08276-.07671.08276-.01121 0 .08492.07999.07453.11188-.01454.01576-.04404.07329.04568.07329.11428 0 .05808.0053.06791.03526.06356.0918-.01335.33851.0026.3573.0228.0071.0077.09039.01023.18498.0054.13665-.0066.1796-.01568.20906-.04363zm-1.9615-2.69c-.10518-.01862-.22646-.0758-.27006-.12729-.03093-.03653-.03211-.04813-.01206-.1183.01222-.04279.02832-.11276.03577-.15549.0075-.04273.03378-.10974.05848-.14891.06621-.10495.13724-.25762.13743-.29536.0005-.09408.14298-.27346.31723-.3993.02425-.01752.0733-.05328.10901-.07948.044-.03229.07355-.04257.09171-.0319.05105.02997.17993.22285.20305.30385.02496.08744.04886.15746.10364.30336.01909.05087.03944.1137.04523.13963.01053.04698.12117.1286.1744.1286.03604 0 .08225.05823.10118.12745.01784.06527-.0013.13432-.06692.24574-.06585.11122-.13732.12665-.57487.12408-.20437-.0012-.4083-.0087-.4532-.01664zm2.1535-2.615c0-.01408-.01984-.03927-.04409-.05592-.04147-.0285-.04408-.02828-.04408.0036 0 .03933.0324.07812.06525.07812.0126 0 .02293-.01155.02293-.02561zm-1.2392 6.5878c-.02095-.06157.07893-.16616.1282-.13421.02889.01872.02035.09367-.01446.12672-.03803.03612-.10256.04036-.11374.0074zm.9483-.12942c-.02909-.02224-.0583-.04856-.0649-.05852-.01757-.02658.0115-.07343.06381-.10277.0398-.02233.05371-.02167.10718.0048.07032.03518.07226.04325.03171.13244-.03422.0753-.06372.08037-.1378.02382zm-.729-.086c-.04149-.03351-.05743-.12283-.03017-.16909.01591-.02701.14283-.0117.18139.02189.04584.03991-.01872.18144-.08233.18051-.01548-.000258-.04647-.01522-.06889-.03332z" fill="#ff352e"/><path d="m29.584 19.524h1.1517v.47607h-1.736v-.46143l.29297-.31128q.52185-.55481.63354-.68298.13733-.15747.19775-.27832.06042-.12268.06042-.2417 0-.1831-.11169-.28198-.10986-.10071-.31311-.10071-.14465 0-.32593.05859-.17944.05676-.37537.16663v-.50354q.19592-.07141.38269-.10803.1886-.03845.36072-.03845.43396 0 .68115.20325.24902.20142.24902.55115 0 .16113-.05493.30212-.0531.14099-.18494.31311-.09705.12451-.53284.5603-.23621.23621-.37537.3772z" fill="#fff"/></g></svg>