<svg height="16" width="16" xmlns="http://www.w3.org/2000/svg"><path d="m5.7891 0c-.4375 0-.7891.43377-.7891.97266v3.8398a6 6 0 0 0 -3 5.1875 6 6 0 0 0 6 6 6 6 0 0 0 2.143-.404 2.5 2.5 0 0 0 1.357.404 2.5 2.5 0 0 0 2.5-2.5 2.5 2.5 0 0 0 -.398-1.355 6 6 0 0 0  .398-2.145 6 6 0 0 0 -3-5.1895v-2.8378c0-.5389-.352-.9727-.789-.9727h-.4219c-.4375 0-.7891.4338-.7891.9727v2.1171a6 6 0 0 0 -1-.0898 6 6 0 0 0 -1 .0859v-3.1132c0-.53893-.3516-.9727-.7891-.9727h-.42188z" fill="#4f4f4f"/><g transform="matrix(.94587 0 0 .96385 .15559 .19672)"><path d="m9.3424 11.208c-.062051-.000587-.12476.0051-.1875.01719-.52444.10113-1.1473.47232-1.4805.88284-.246.30313-.3812.6566-.41406 1.0829l-.024219.31719.24844.25782c.41909.43593.85806.57446 1.7492.55233.39734-.0099.53572-.03158.69295-.1086.26367-.12914.37839-.27917.44453-.58204.0699-.32009.0336-1.3446-.05859-1.6555-.13502-.45544-.53596-.75986-.97031-.76407zm.47969 1.0594c.10366 0 .12109.01984.12109.13906 0 .0991-.026269.14572-.090627.16172-.083607.02079-.085157.03379-.023439.17422.081426.18527.087219.64705.010155.8078-.1048.219-.4907.328-.818.232-.2275-.067-.3061-.195-.3071-.499-.0017-.545.5116-1.015 1.1079-1.015z" fill="#929292"/><path d="m9.4864 13.522c.32786-.14201.27239-.75938-.068231-.75938-.16329 0-.42105.27995-.42021.45637.0008728.17189.031331.22727.16481.29923.12046.06494.18085.06565.32363.0038z" fill="#fff"/></g><g transform="matrix(1.0907 0 0 .82791 -.93243 3.3965)"><path d="m12.604 13.959c.13447-.09702.18979-.52309.16405-1.2635-.02445-.70348-.08764-.98802-.23862-1.0747-.07101-.04077-.10509-.0268-.19603.08034-.16536.19482-.44438.92781-.44995 1.182-.000654.02901.06106-.0064.1371-.07869.0975-.09268.18472-.13143.29588-.13143.14373 0 .16746.02038.26914.2311.12804.26532.12245.62183-.01174.7494-.16069.15277-.65258.04207-.70576-.15884-.01162-.04388-.01421-.01222-.0057.07035.01948.18988.09023.2705.3274.37306.22476.0972.30305.10114.41428.02088z" fill="#929292"/><path d="m12.423 13.457c.10599-.10076.09188-.26462-.03486-.4047-.14163-.15653-.29833-.11914-.35547.0848-.06165.22005.01786.39056.18213.39056.07363 0 .16732-.03179.20821-.07066z" fill="#fff"/></g></svg>