<svg height="16" width="16" xmlns="http://www.w3.org/2000/svg"><path d="m1.65 2c-.3601 0-.65.2725553-.65.6111113v9.7777777c0 .338555.2899.611111.65.611111h10.725c.3601 0 .65-.272556.65-.611111v-9.7777777c0-.338556-.2899-.6111113-.65-.6111113zm10.4 0c-.360101 0-.65.2725553-.65.6111113v9.7777777c0 .338555.289899.611111.65.611111h1.3c.3601 0 .65-.272556.65-.611111v-9.7777777c0-.338556-.2899-.6111113-.65-.6111113z" fill="#8e8e8e"/><rect fill="#ff9205" height="15" rx=".75" ry=".833" width="3"/><rect fill="#00c1ee" height="15" rx=".75" ry=".833" width="3" x="12"/><path d="m7.4999995 4.5v6m0-6-4.9999995 6h10z" fill="none" stroke="#3f3f3f" stroke-linecap="round" stroke-linejoin="round"/><g fill="#fff"><path d="m7.4999999 2.9999996a1.4999999 1.4999999 0 0 0 -1.4999999 1.5000001 1.4999999 1.4999999 0 0 0 1.4999999 1.4999999 1.4999999 1.4999999 0 0 0 1.5000001-1.4999999 1.4999999 1.4999999 0 0 0 -1.5000001-1.5000001z"/><path d="m2.4999999 9.000001a1.4999998 1.4999998 0 0 0 -1.4999999 1.5 1.4999998 1.4999998 0 0 0 1.4999999 1.5 1.4999998 1.4999998 0 0 0 1.4999998-1.5 1.4999998 1.4999998 0 0 0 -1.4999998-1.5z"/><path d="m7.4999998 9.000001a1.4999998 1.4999998 0 0 0 -1.4999998 1.5 1.4999998 1.4999998 0 0 0 1.4999998 1.5 1.4999998 1.4999998 0 0 0 1.5000004-1.5 1.4999998 1.4999998 0 0 0 -1.5000004-1.5z"/><path d="m12.499999 9.000001a1.4999998 1.4999998 0 0 0 -1.499999 1.5 1.4999998 1.4999998 0 0 0 1.499999 1.5 1.4999998 1.4999998 0 0 0 1.500001-1.5 1.4999998 1.4999998 0 0 0 -1.500001-1.5z"/></g></svg>