<svg height="16" width="16" xmlns="http://www.w3.org/2000/svg"><rect fill="#8a4b2c" height="16" rx=".8" transform="matrix(0 -1 -1 0 0 0)" width="16" x="-16" y="-16"/><path d="m4.0987364 13.029166c.1553116-.243939.4012636-.529166.4012636-.529166l-.5-.5-.0090866-2.78933c-.0051271-1.5738638-.0290124-1.8239552.2067352-1.942286.1705368-.0856016.3829376-.2186404.5708584-.2486528.3199712-.051102.9372726.1861932 1.0959298.4956388.043458.08476.092992.1487316.1106472.1428988.05042-.016656.059642-2.5324671.0093-2.5324671 0 0-.3624273.5679038-.4939364.7778916-.1950872.086823-1.2165806.106505-1.3462502.106505-.052535 0-.1098808-.014244-.1274384-.031656-.024152-.023952-.031824-.3299572-.031512-1.5683724.000266-.900286.00962-1.2512993.02088-1.2688729.1000172-.1560751 1.2318882-.2206978 1.773997-.1000268.4824118.1027927.8732065.662027 1.219876.9587298.030844 0-.008292-.2065934-.002124-1.0641699.00407-.5658525.0006-1.4569252-.00775-1.4908511-.012806-.05214-.02149-.056466-.056127-.027958 0 0-.1810486.4213222-.2766782.5229785l-.083254.069471-.5100312-.00902c-.2804732-.00496-.9362354.0001319-1.9467842-.000984-1.0105488-.00111-2.0584913.01568-2.0830576.025029-.089536.034072.0002786.090764.2282256.2146256.3930286.2135662.618636.5561239.7142884.9124352.055987.2085668.0795862 3.1115893.0232922 3.3484437l-.5.5.4830602.4273043.0169398 5.0726957-.5.5c.7783832.234551 1.5 2 1.5 2s-.097284-1.208261.098736-1.970834z" fill="#fbb64a"/><path d="m9.0292969 2.3007812c-.028184.017284-.033228.80317-.027344 1.5429688.00856 1.0757188.014731 1.2986192.1933594.9882812.123631-.2147888.3544812-.76586.5351565-.8320312.1051368-.038504.053117.00556.4394532-.00391.441704-.010812.749177-.00636.791016.035156.04281.042477.08306.2388562.04687 1.2246094l-.007808 1.2441446-.5.5.5.5.001953 2.2773438-.001953 2.2226562-.5.5c.5.5.5.5 1 1.5.5-1 .5-1 1-1.5l-.5-.5-.001953-2.2226562.001953-2.2773438.5-.5-.5-.5-.007812-1.2441406c-.03619-.9857532.0041-1.1821324.04687-1.2246094.04184-.041516.349312-.045968.791016-.035156.38634.00947.334316-.034598.439453.00391.180675.066171.411526.6172424.535157.8320312.178627.310338.184759.087438.193359-.9882812.0059-.7397988.000836-1.5256847-.02734-1.5429688 0 .0000001-.233725.5468563-.328125.6796876-.043151.0218639-1.049767.0192532-2.142578.0195272-1.092811-.000274-2.0994277.0023367-2.1425781-.0195312-.0943977-.1328313-.328125-.6796875-.328125-.6796876z" fill="#fbb64a"/></svg>