<svg height="16" width="16" xmlns="http://www.w3.org/2000/svg"><path d="m7.7891 7.2051c-.2554.1458-.5462.2229-.8417.2235-.030857 0-.06-.00629-.090286-.008v3.1857l-.72743-.81143a.76189.76189 0 0 1 -.60629.3.76189.76189 0 0 1 -.018857.164l1.3526 1.4789v2.4166c-.9395.301-1.1429 1.014-1.1429 1.846h4.5714c0-.832-.20343-1.5446-1.1429-1.8457v-.788l1.3806-1.3337a.76189.81634 0 0 1 -.04686-.27714.76189.81634 0 0 1  .10286-.40972.76189.81634 0 0 1 -.0046-.0063.76189.81634 0 0 1 -.09829.0074.76189.81634 0 0 1 -.32171-.07657l-1.012.964v-4.8914c-.164.051429-.33371.085714-.51143.085714-.2962-.0003-.5865-.0774-.8425-.2232z" fill="#a57959"/><g fill="#1c8d43"><path d="m7.7891 0c-.4468.00055385-.8754.1888-1.1908.52283-.16-.05175-.3263-.07809-.4932-.07809-.93029 0-1.6844.79575-1.6844 1.7776.0005714.41889.14137.82418.39754 1.1442-.5071.3209-.8175.899-.8182 1.5229.0009.8281.5432 1.5457 1.308 1.7309.1754.8068.8554 1.3785 1.6394 1.3797.2955-.0006.5863-.0837.8417-.2406.256.1569.5463.24.8423.2406.6075-.0006 1.1675-.3458 1.4656-.904.845-.1077 1.481-.8646 1.482-1.7631 0-.0504-.003-.1009-.008-.1514.276-.3251.428-.7456.429-1.1815-.001-.8282-.543-1.546-1.308-1.7308-.159-.7297-.7343-1.2763-1.4389-1.3666-.2982-.55706-.8577-.90174-1.464-.9026z"/><path d="m5.667 9a .66665.66665 0 0 0 -.667.667.66665.66665 0 0 0  .0899.333.66665.66665 0 0 0 -.0899.333.66665.66665 0 0 0  .667.667.66665.66665 0 0 0  .666-.667.66665.66665 0 0 0  .667-.666.66665.66665 0 0 0 -.667-.667.66665.66665 0 0 0 -.333.09.66665.66665 0 0 0 -.333-.09z"/><path d="m9.667 10a .66665.85715 0 0 0 -.667.857.66665.85715 0 0 0  .667.85739.66665.85715 0 0 0  .086-.0078.66665.85715 0 0 0  .004.0066.66665.85715 0 0 0 -.09.43019.66665.85715 0 0 0  .666.85679.66665.85715 0 0 0  .66697-.85679.66665.85715 0 0 0 -.09-.42899.66665.85715 0 0 0  .09-.42839.66665.85715 0 0 0 -.667-.85679.66665.85715 0 0 0 -.086.0084.66665.85715 0 0 0 -.58-.43739z"/></g></svg>