<svg height="16" viewBox="0 0 16 16" width="16" xmlns="http://www.w3.org/2000/svg"><path d="m8.0000001-.00000024a8.0000001 8.0000001 0 0 0 -8.00000014 8.00000014 8.0000001 8.0000001 0 0 0 8.00000014 8.0000001 8.0000001 8.0000001 0 0 0 7.9999999-8.0000001 8.0000001 8.0000001 0 0 0 -7.9999999-8.00000014z" fill="#f4b400"/><g fill="#fff"><path d="m4.857143 7.8319132-.7063247-1.4311696-1.5793894-.2294988 1.1428569-1.1140104-.2697919-1.5730077 1.4126491.7426734 1.4126489-.7426734-.2697918 1.5730078 1.1428569 1.1140102-1.5793896.2294989z"/><path d="m10.285714 6.4595573-.7063245-1.4311697-1.5793894-.2294987 1.1428569-1.1140105-.2697919-1.5730076 1.4126489.7426734 1.412649-.7426735-.269792 1.5730078 1.142857 1.1140102-1.579389.229499z"/><path d="m5.4285718 13.546199-.7063247-1.43117-1.5793895-.229499 1.142857-1.11401-.2697919-1.5730079 1.4126491.7426734 1.4126488-.7426735-.2697917 1.573008 1.1428569 1.11401-1.5793896.229499z"/><path d="m11.714286 11.831914-.706325-1.43117-1.5793892-.229499 1.1428572-1.1140101-.269792-1.5730077 1.412649.7426734 1.412649-.7426735-.269792 1.5730079 1.142857 1.11401-1.57939.229499z"/></g><g transform="matrix(.27231798 0 0 .29526478 -.34131 -1.722841)"><path d="m57.721022 39.515725-5.693342 18.218703-5.693346-18.218703" fill="none" stroke="#c2352a" stroke-linecap="round" stroke-linejoin="round" stroke-width="4.554676"/><path d="m40.639906 39.499973-11.386675 18.218703m0-18.218703 11.386675 18.218703" fill="none" stroke="#c2352a" stroke-linecap="round" stroke-width="4.554676"/></g></svg>