<svg height="16" viewBox="0 0 16 16" width="16" xmlns="http://www.w3.org/2000/svg"><path d="m13.999999 14.426c-.0013 1.173999-.275004 1.565478-3.753311 1.565477-.9888363 0-2.1925302.09216-2.826237-.329594-.5983677-.39823-.3825507-.982667-.3825511-1.577445 0-1.224684 1.1306807-2.084438 3.0532111-2.084438 1.92253 0 3.910323 1.2 3.908888 2.426z" fill="#d48003"/><path d="m8 0a7.0000001 6.9999998 0 0 0 -7.0000001 6.9999998 7.0000001 6.9999998 0 0 0 7.0000001 7.0000002 7.0000001 6.9999998 0 0 0 7-7.0000002 7.0000001 6.9999998 0 0 0 -7-6.9999998z" fill="#fdc33b"/><path d="m7.9999992 14.426c-.00136 1.173999-.275004 1.565478-3.7533105 1.565477-.9888367 0-2.1925306.09216-2.8262378-.329594-.59836773-.39823-.3825507-.982667-.3825508-1.577445-.0000002-1.224684 1.1306807-2.084438 3.0532108-2.084438 1.9225306 0 3.9103237 1.2 3.9088883 2.426z" fill="#d48003"/><ellipse cx="6" cy="6.5" fill="#414141" rx="1" ry="1.5"/><ellipse cx="11" cy="6.5" fill="#414141" rx="1" ry="1.5"/></svg>