<svg height="16" viewBox="0 0 16 16" width="16" xmlns="http://www.w3.org/2000/svg"><circle cx="8" cy="8" fill="#28b4e4" r="8"/><path d="m7.1424272 9.8880573c-.4877588-.139478-.914076-.5056208-1.0416544-.8946284-.1580084-.4817888-.0726584-1.4297112.174146-1.9341108.1135096-.2319804.1665308-.4339448.1665308-.4488092 0-.014868-.2137564-.1195632-.4750152-.2326624-.8713816-.377222-1.8600024-1.4811481-1.9572236-2.4993449-.0589208-.6170576.153756-.8073328.960136-.8590032.8220288-.0526724 1.963586.131796 3.0966132.7061268.5038852.2554208.8396968.1409006.8682544.1121626.02318-.207704.07299-.6866432.2199604-.7375756.2455264-.085086.4062756.390148.6236108.5269216.029428 0 .2165204-.6962853.5388094-1.1798141.619707-.9297423 1.525749-1.91383815 2.068242-2.24663943.670729-.41146841 1.296631-.17592157 1.508568.56772196.26666.93564867-.163363 2.71533427-.365642 3.83611597l-.08046.445822.51095.3798408c.775443.5764664 1.042018.9782568 1.042018 1.5705632 0 .3795208-.06442.5949128-.285575.9548832-.818509 1.3322564-2.102665 1.389032-3.298963.1458544-.205341-.2133856-.711639-.7288469-.756188-.7288469-.066389.4563652.19593.9652408.140455 1.4273652-.347709-.3192472-.395477-.8975724-.644383-1.3268172-.040912.010412-.256869.4638856-.380581.8587468-.4301528 1.3729356-1.3398032 1.9258133-2.6326096 1.5561276z" fill="#fff"/></svg>