<svg height="16" viewBox="0 0 16 16" width="16" xmlns="http://www.w3.org/2000/svg"><path d="m8 0a8 8 0 0 0 -8 8 8 8 0 0 0 8 8 8 8 0 0 0 8-8 8 8 0 0 0 -8-8z" fill="#48aeff"/><g fill="#fff"><rect height="7" ry=".5" width="1" x="5" y="5"/><path d="m5.4702335 4.0005323a.55442716.37136378 0 0 0 -.4502966.1851592l-1.9455844 2.2571778a.55442716.37136378 0 0 0  .4800629.5571307h3.8911692a.55442716.37136378 0 0 0  .4800629-.5571307l-1.9455844-2.2571778a.55442716.37136378 0 0 0 -.5098296-.1851592z"/><rect height="7" ry=".5" transform="scale(1 -1)" width="1" x="10" y="-11"/><path d="m10.470233 11.999468a.55442716.37136378 0 0 1 -.450296-.18516l-1.9455845-2.2571773a.55442716.37136378 0 0 1  .4800629-.5571307h3.8911696a.55442716.37136378 0 0 1  .480063.5571307l-1.945585 2.2571773a.55442716.37136378 0 0 1 -.50983.18516z"/></g></svg>