<svg height="16" viewBox="0 0 16 16" width="16" xmlns="http://www.w3.org/2000/svg"><g transform="translate(0 -1036.3622)"><path d="m16 1044.3622c0 1.1516-.243321 2.2464-.681356 3.2357-1.242567 2.8063-4.389665 3.526-7.6563556 3.526-4.4182783 0-6.986867-2.1558-6.986867-6.5741 0-.7197-.58038463-1.6048-.40217474-2.2682.91582257-3.4095 4.02818-5.9194 7.726753-5.9194 4.4182784 0 8.0000004 3.5817 8.0000004 8z" fill="#834366"/><circle cx="7" cy="1044.362" fill="#ff87a3" r="5"/><path d="m4.2539062 11 2.5019532 3.259766s1.3040559-.068375 2.8007812.515625c1.2265234-.3519 2.9715144-.071769 3.8808594-.917969.029218-.027175.067618-.056784.097656-.083984a8 8 0 0 0  .039063-.035157 8 8 0 0 0 1.835937-2.738281h-11.15625z" fill="#db4b73" transform="translate(0 1036.3622)"/><path d="m .37890625 5.5761719c-.00043212.0013535-.00152174.0025525-.00195313.0039062-.11341128.3559074-.19333939.7207161-.25585937 1.0878907a8 8 0 0 0 -.03515625.2226562c-.05189575.3671933-.0854957.7374326-.0859375 1.109375.00000001.2319989.01580293.4605118.03515625.6875a8 8 0 0 0  .0546875.453125c.0149023.1040964.02995822.2077841.04882813.3105469a8 8 0 0 0  .10546874.4824219c.02501.1005412.04935167.2017842.078125.3007812a8 8 0 0 0  .15234376.458984c.0349159.097496.06887016.195312.10742187.291016a8 8 0 0 0  .20898437.466797c.03820695.079627.07449598.160141.11523438.238281a8 8 0 0 0  .2402344.421875c.0577598.096053.1141567.193737.1757812.28711a8 8 0 0 0  .2324219.326171c.0756358.102994.1481494.207485.2285156.306641a8 8 0 0 0  .2695313.304688c.0852108.094892.1682134.19249.2578125.283203a8 8 0 0 0  .2773437.259765c.0981997.09046.1942313.184019.296875.269532a8 8 0 0 0  .3105469.236328c.1060656.079956.2082801.163575.3183594.238281a8 8 0 0 0  .4863281.296875 8 8 0 0 0  .1679688.103516 8 8 0 0 0  .7167968.345703c.0008038.00034.0011492.001613.0019532.001953a8 8 0 0 0 2.2949218.58789 8 8 0 0 0  .0195313.001954c.2626856.026035.5292927.039062.7988281.039062a8 8 0 0 0 5.207031-1.939453c-.768242-.057817-1.458436-.160156-2.984375-.160156-.8126988 0-2.9597654.359737-3.7597654-1.164063-.6222224-1.2063-1.7507503-2.170809-2.6777344-2.412109-.7873016-.2031-1.0048669-.9646065-1.0683593-1.8789065-.07619-.965-.850465-.9910812-1.3457031-1.6132813-.38670734-.5047999-.61003161-1.0521593-.99218755-1.2558593z" fill="#3a2e31" transform="translate(0 1036.3622)"/></g></svg>