<svg height="16" width="16" xmlns="http://www.w3.org/2000/svg"><path d="m1 0v4c .192009.2561 1.4004629.9561531 1.8886719.9394531.6343454-.4615363 1.1250177-.3703284 1.1113281-.9394531h-.9140625-1.0859375v-1h4v11c-.343085.7697-.139681.6559-1 1v1h5v-1c-.764314-.1332-.9158094-.288116-1.0058594-.978516l.0058594-11.021484h3.208984c.366157.01.803457.159.896485 1h .894531c.004908-.017177 0-3 0-3-4.413969.6598-8.226573.2167-13-1zm11.818359 9c-.188355.0007998-.376318.0197344-.558593.0527344-1.084361.1555612-1.434808 1.0066026-1.259766 1.9472656h1v-1l2-.0058594-1.333984 2.0058594h-.666016v1h .666016l1.333984 2.005859-2-.005859v-1h-1c-.175042.940663.175405 1.791705 1.259766 1.947266.182275.033.370238.051934.558593.052734.565067.0025 2.182248-.000901 2.1875-1.035156-.0026-.47738-.809689-1.561821-1.576171-2.464844.766483-.903023 1.573575-1.987464 1.576171-2.464844-.005252-1.0342504-1.622433-1.037655-2.1875-1.035156z" fill="#9b6bca"/></svg>