<svg height="16" width="16" xmlns="http://www.w3.org/2000/svg"><path d="m8 .00012314c-4.4443 0-7.9999 3.5556-7.9999 8 .00001084 4.4439 3.5556 7.9999 7.9999 7.9999.71113 0 1.3333-.62221 1.3333-1.3333 0-.35555-.088885-.62221-.35555-.88885-.17778-.26666-.35555-.53333-.35555-.88886 0-.71113.62227-1.3333 1.3333-1.3333h1.6c2.4886 0 4.4443-1.9557 4.4443-4.4443 0-3.9117-3.556-7.1117-8-7.1117z" fill="#f3c72f"/><path d="m2.5 8.0001c-.8 0-1.5-.6998-1.5-1.5 0-.8003.7-1.5 1.5-1.5s1.5.6997 1.5 1.5c0 .8002-.7 1.5-1.5 1.5z" fill="#fd971a"/><path d="m5.5 5c-.8 0-1.5-.7-1.5-1.5s.7-1.5 1.5-1.5 1.5.7 1.5 1.5-.7 1.5-1.5 1.5z" fill="#327cc4"/><path d="m9.5 5c-.8 0-1.5-.7-1.5-1.5s.7-1.5 1.5-1.5 1.5.7 1.5 1.5-.7 1.5-1.5 1.5z" fill="#4c9511"/><path d="m12.5 8.0001c-.8 0-1.5-.7-1.5-1.5s.7-1.5 1.5-1.5 1.5.7 1.5 1.5-.7 1.5-1.5 1.5z" fill="#d94d4d"/></svg>