<svg height="16" width="16" xmlns="http://www.w3.org/2000/svg"><g transform="matrix(.57143 0 0 .57143 -.8574 -1.1427)"><path d="m14.624 15.066-1.7067 1.9715-1.3159 1.2975-1.465.99531-1.7617.93926-2.041.76836-1.2782.302-.0551.168.073852.45117.29675.75195.62976 1.24.6123.91875 1.187 1.2592.53711.54414.48206.1709 2.1874-.02051-1.2971.90098-.018796.22695.77881.61934 1.0568.61934c1.3662.77148 2.5969-.75332 2.5969-.75332s-.6624 1.1558-.6217 1.5627h1.2985l.68616-.11211.77881-.39512-.2605.41289 1.4113.01777c1.4892-.03552 2.4737-.9069 3.3556-1.8402l.92651-1.1088.72376-1.1074.53711-1.0145.854-2.0098.64856-1.6338.31555-.86543h-.3075l-2.3445-.2748c-1.8827-.54015-2.8972-1.9475-4.642-3.0242l-1.4462-.90234-1.1494-.69453-.1665-.24473-.03357-.0957-.06311-.04101z" fill="#fed24c"/><path d="m25.15 2.7327-1.3634 2.6037-1.1791 2.6559-1.4427 2.8968-.99681 2.3828-1.1078-.47175-1.5953-.69659h-.3904l-.33293.09435-.53705.71465-1.5576 2.0837.07333.20677.16647.24491 1.1494.69458 1.4467.90135c1.7448 1.0768 2.7588 2.4841 4.6415 3.0242l2.3441.2761h.39436l.02576-.10439.34086-2.1259.27942-1.7184.02773-.36736-.20412-.38543-1.3733-.63837-.79666-.34729-.48751-.31718-.05549-.02409.06539-.1064.81449-2.0456.73324-1.8067.91754-2.4431.70946-1.7284.60244-1.5397.49485-1.4921c.296-1.1147-1.006-1.7175-1.807-.4213z" fill="#c2352a"/></g></svg>