<svg height="16" viewBox="0 0 16 16" width="16" xmlns="http://www.w3.org/2000/svg"><g transform="matrix(.4 0 0 .4 -1.6 -1.6)"><path d="m24 4a20 20 0 0 0 -20 20 20 20 0 0 0 20 20 20 20 0 0 0 20-20 20 20 0 0 0 -20-20z" fill="#243a85"/><path d="m23.420812 36.967229c-3.314438-.431927-6.485351-1.693167-8.393078-3.338371-.540717-.466308-1.622013-1.597596-1.527734-1.628858.30887.05969.955175.345629 1.58569.362642.630515.01701 1.070972-.362642 1.380315-.87066v-5.330808c0-5.878968.02571-5.492987-.390009-5.855993-.504929-.440908-1.496526-.303486-2.502342.370162-1.534221 1.027552-3.791557 2.985142-5.0898164 5.354218-.2305539.420715-.4386995.783255-.4625466.805644-.023849.02239-.028358-.434515-.00999-1.015342.697788-5.939657 6.78924-11.233449 11.586842-13.419618.606786-.259578 2.77235-.90049 2.901857-.90049.02084 0-.885776.529253-1.098026.684279-1.272286.929262-1.712282 1.218147-1.896974 2.349958-.136625.837254.05284 1.354369.421703 1.767749.1911.214164.261567.251099.52756.276518.364779-.03821.670275-.04747 1.045737-.07902v14.000373c0 1 1 1 1.992 1.063077 1.008-.06308 2.008-.617904 3.0064-1.265378l.0016-6.094944.0016-5.595331-.407072-.773327c-.436798-.746497-1.511512-.852461-2.094528-1.333709 1.022559.01899 2.60526.171922 3.5.5 2.607041-2.064176 5.023416-4.811599 8-5.5-1.296801 2.053613-2.613708 4.001862-4 6v12.099524c.141285.169307.884905.383696 1.231512.414952 2.353509-.333805 3.455422-1.658201 5.018057-3.014476.04604.04579-.927624 2.278026-1.459139 3.074673-1.619633 2.427537-4.201067 4.371632-6.357006 5.742425-.404316.257073-.408854.258292-.549569.147747-.971123-.757437-1.577059-1.226613-2.883855-1.964845-1.156817 1.101728-1.619689 1.82972-2.827548 2.999974-.03825-.005-.151452-.01972-.251571-.03276z" fill="#fff"/></g></svg>