<svg height="16" viewBox="0 0 16 16" width="16" xmlns="http://www.w3.org/2000/svg"><circle cx="8" cy="8" fill="#4f4f4f" r="8"/><g fill="#e4e4e4" transform="matrix(.33531669 0 0 .363132 -41.284079 -28.948671)"><path d="m133.03341 90.734741c-1.32888-.0097-1.02124 1.495614-.63662 2.128427 4.25254 6.996613 9.27739 14.832652 13.96146 22.218152.9 1.22607 1.84716-.43866 2.35148-1.15084 1.27459-1.7999 2.3243-3.68667 3.40151-5.57295.45498-1.26777-.81604-2.24276-1.26884-3.31773-2.76297-4.53096-5.66857-8.977628-8.49005-13.468667-.90028-.997113-2.45735-.836439-3.56847-.836439-1.91668-.03702-3.83357.0226-5.75047.00005z" fill="#e4e4e4"/><path d="m153.22758 92.22189s-.90995-1.487195.51997-1.487195h7.08464s1.62492 0 .84496 1.416376c-.77996 1.416375-1.74708 3.548815-2.85986 5.594681-.30929.568622-.97495 2.337018-2.20989.283275-1.23493-2.053742-3.37982-5.807137-3.37982-5.807137z" fill="#e4e4e4"/></g></svg>