<svg height="16" viewBox="0 0 16 16" width="16" xmlns="http://www.w3.org/2000/svg"><path d="m7.4979266 1.9008676a7.1034315 6.8590888 0 0 0 -7.1034316 6.8590888 7.1034315 6.8590888 0 0 0 7.1034316 6.8590886 7.1034315 6.8590888 0 0 0 7.1034314-6.8590886 7.1034315 6.8590888 0 0 0 -7.1034314-6.8590888z" fill="#354358"/><path d="m8.0297422 0c-.1851241.00113175-.7377127.03174696-.9184101.08007812-.6034713.16147492-.8662467.80757924-1.0746641 1.359375-.031338.0829768-.0713685.1591394-.0898437.1679688-.0184847.0088669-.0908426.0270094-.1601563.0410156-.7141123.1443445-1.3862259.4606325-1.9839336.7910156-1.3439601.742875-2.3760437 1.7956428-3.046875 3.1132813-.37886854.7441616-.592667 1.4262913-.7167969 2.28125-.05269445.362946-.05277794 1.4629508 0 1.8261718.23815072 1.6357168.9483174 3.0363398 2.1152344 4.1777348 1.3294787 1.300402 3.0362658 2.04309 4.9667969 2.158203.2399132.0143.9676768-.0082 1.25-.03906.7879272-.08612 1.6263424-.31912 2.3476562-.65039 2.35179-1.080088 3.954595-3.245323 4.25-5.7382816.01457-.1229881.02722-.4593042.02734-.75.04575-.8302907-.382895-2.1561778-.73694-2.7627867-.298939-.8248527-.166485-1.0451939-.246072-1.8996694.0075-.047648.0056-.097573-.002-.109375-1.128749.3699454-1.855664 1.1811831-2.467316 2.0379705-.306854.5196146-.494012 1.0484954-.494981 1.5151076-.000789.6350331.166208.7905366.460938 1.5742187.286856.7625905.490281 1.0757119.490281 1.6269529 0 1.169842-.613487 2.300695-1.480469 3.109375-.174441.162709-.217211.192286-.236328.173828-.0063-.0061.02176-.07803.06055-.160156.603355-1.278448-.12369-3.311269-1.0507842-4.3847655-.1353487-.1567204-.3633562-.4824219-.3945313-.4824219-.00111 0-.026108.017761-.033203.021484.00105.01625.00119.032564.00195.048828.0870982.2828713.1318538.5770736.1328155.8730474 0 1.656854-1.3431458 3-3 3s-3-1.343146-3-3c0-1.6568542 1.3431458-3 3-3 .3214402.0011.6406141.053859.9453125.15625.027164.00101.054905.00218.082031.00391.026883-.022136.042969-.042152.042969-.048828-.0000078-.0431509-.8206137-.7511425-1.0175781-.8984414-.4004579-.2994817-.8565792-.5501137-1.3828125-.6816406-.1409052-.0352023-.2148438-.0618611-.2148438-.0800781 0-.051727.5013619-.1967319 1.0566407-.3046875.6748089-.1311873 1.1121035-.162794 2.4199218-.1757813.5486904-.00543 1.0903079-.019891 1.203125-.03125.5206571-.052531 1.1186354-.2557026 1.5742184-.5371093.454321-.3009897.592883-.4621261.860665-.8183594.137076-.1843369.436375-.451399.470703-.5615469.01415-.045294.01175-.046875-.207031-.046875-.463219 0-.962037-.2671272-1.405861-.4560152-.5746893-.3148504-.9036178-.641762-1.5192569-.7695473-.1587762-.0329564-.6687649-.1106238-.9097109-.1425781-.0565256-.4672026-.0642749-1.1250106.1425781-1.4257813.0513817-.07097417.0899466-.13878419.0859376-.1503906-.0077388-.02233739-.0861913-.03189239-.1972657-.03125z" fill="#41a6cc"/></svg>