<svg height="16" viewBox="0 0 16 16" width="16" xmlns="http://www.w3.org/2000/svg"><path d="m7 0a7 6.5 0 0 0 -7 6.5 7 6.5 0 0 0 2 4.546875v2.953125l1.3203125-1.980469a7 6.5 0 0 0 3.6796875.980469 7 6.5 0 0 0 7-6.5 7 6.5 0 0 0 -7-6.5z" fill="#50bcff"/><path d="m11 6a5 4.5 0 0 0 -5 4.5 5 4.5 0 0 0 5 4.5 5 4.5 0 0 0 2.810547-.783203l1.189453 1.783203v-2.808594a5 4.5 0 0 0 1-2.691406 5 4.5 0 0 0 -5-4.5z" fill="#fff"/><g fill="#3f3f3f"><circle cx="4" cy="5" r="1"/><circle cx="10" cy="5" r="1"/><circle cx="9" cy="10" r="1"/><circle cx="13" cy="10" r="1"/></g></svg>