<svg height="16" width="16" xmlns="http://www.w3.org/2000/svg"><circle cx="8" cy="6" fill="#2064cf" r="6"/><path d="m7.4379293.03222041a6 6 0 0 0 -2.1714001.62988c.0303.09603-.0051.20436001-.1155.30000002-.0747.06474-.1359.16556997-.1359.22442997 0 .17991.1626.45615.2925.49629.1725.0534.1146.2374799-.1074.3391799-.1026.0471-.2289.1827-.2805.3012004-.0519.1188-.1281.2358-.1695.2601-.0411.0246-.075.1172996-.075.2063996 0 .1245004.057.1848004.2439.2595004.1338.0537.294.0927.3561.0867.3573-.0336.3822.1746.0699.5814001-.1659.216-.2457.2703-.3588.243-.1053-.0252-.1629.0045-.2109.1089004-.0504.1107-.1332.1481996-.3555001.1635-.2187.0153-.3165.0597-.3984.1794-.06.0873-.1463996.1581-.1922996.1581-.04602 0-.15408.0588-.24024.1302-.17532.1455-.24378.1602-.3052501.0651-.08124-.126-.25653-.0624-.51738.1875-.2307003.2208-.2586303.2799-.2238303.4716.06192.3411001.2469303.6438001.4581903.7494001.18435.0921.18795.102.07617.2202-.06429.0681-.1746.141-.24492.1623-.2031003.0618-.08877.1392.27363.1854.3709201.0471.4861801.1815.3129001.3647997-.09663.1023-.0912.1215.06387.2187.303.1902.5439596.0738.25956-.1254-.18279-.1281-.05496-.1803.2133-.0873.2138996.0741.2561996.0699.3824996-.0399.2595001-.2246997.5415001.1077.3042001.3585-.1509.1599-.1053.3525.0903.3792.0864.0117.2658.0921.399.1788.1332.0864.2784.1575.3222.1575s.1674.0879.2748.1953001c.2178.2175.3387001.2451.4002001.0918.0738-.1842001.0441-.2793001-.1548001-.4962001-.1581-.1728-.4152-.6318-.4152-.7419 0-.0678.2613-.0102.4077.0897.0915.0627.2397001.1434.3294001.18.0954.039.1944.1602.2397.2928.0705.2082.0984.2262.348.2262h.2712l.0411.4875001c.0492.5865.0963.7053.2976.7536.1482001.0357.3063001.2652.3063001.4445993 0 .0477-.1065.1647-.2367001.2598-.1614.1178996-.231.2180996-.2202.3161996.0135.1227-.0144.1419-.1881.129-.1119-.0084-.3063.0309-.4311.0873-.1479.0666-.3081.0879-.4584.0609-.1728-.0309-.2313001-.0189-.2313001.0486 0 .0498-.0606.1428-.1344.207-.1824.1581-.1071.2418.1731001.1914.174-.0312.2418-.0174.2718.0576.0639.1593-.0981.3873-.2484.3498-.0954-.024-.1410001.0087-.1707001.121201-.0102.0399-.0291.0738-.0516.1026a6 6 0 0 0  .9495001.2805c-.03-.0573-.0642-.1095-.0975-.1329-.1545-.1092-.051-.393001.1617-.444001.2169-.0522.1827-.1929-.0531-.2199-.2067-.0234-.4266-.2328-.3576-.3399.0465-.0717.2442-.0612.6441.0336.1806.0426.3039-.0432.7224001-.501.2421-.2652.4284-.3755996.6327-.3755996.078 0 .3561-.0717.6183-.1593.4950001-.1659.6885001-.1599.6702001.021-.0378.3761996.2043.3635996.5988005-.0306.1644-.1641.3147-.2828993.3342-.2642993.0753.0723-.0603.4241993-.2187.5666989-.2007.1806-.2106.2946-.0339.3849.0966.0498.1377.1503.153.3762l.0204.3084h.2508c.0879 0 .1608.012.2196.0345a6 6 0 0 0 2.907-4.9517987c-.0918-.1962-.0852-.3147 0-.4482a6 6 0 0 0 -.027-.3363001c-.0546-.0027-.1104-.0051-.1746-.0024-.3024.0126-.5613-.1065-.5613-.2583 0-.0321-.1074-.1644-.2385-.2937-.1488-.1464-.225-.276-.2028-.3432.0204-.0612-.0234-.1599-.1008-.2268-.0753-.0654-.1371-.1704-.1371-.2334 0-.1005001-.0639-.1131001-.5262-.1020001l-.5262.0129.009.5187001c.0156.9084.1509 1.1442001.5682.9921.1911-.0699.6606-.0171.7941.0888.0483.0384.1182.1776001.1551.3096001.0372.1317.1746.36.306.5067.2658.2976.2865.4137.1341.7628997-.1329.3048-.2763.2697-.2478-.0609l.021-.2459997-.225.042c-.1245.0237-.2805.1155-.3504.2063997-.0996.1293-.1461.1482-.2208.0891-.0522-.0414-.0945-.1287-.0945-.1934997 0-.0648-.0642-.1368-.1422-.1605-.0783-.0237-.1854-.1416-.2379-.2625-.0843-.1932-.0822-.2523.0159-.4869.0993-.2379.1002-.2772.0087-.3651-.084-.0804-.1275-.0831-.2379-.0168-.111.0663-.1635.0615-.2955-.027-.0879-.0591-.2418-.1080001-.3414-.1080001-.2025 0-.2637-.0984-.2637-.4242 0-.3009-.1794-.4101-.6066-.3708-.2963998.0273-.3617998.0078-.6008998-.1764-.1479-.1137-.3813-.3873-.5193-.6087001-.138-.2214-.2865-.4527-.33-.5139-.0624-.0885-.0471-.1734.075-.4143l.1542-.303-.3258.0441c-.5796001.0783-.6969001.1533-.4476001.2871.0972.0519.1014.0786.0264.1653-.0492.0564-.0723.1461-.051.1992.0213.0528-.0057.1776-.0597.2769-.0543.0996-.0996.2391-.1014.3108001-.0057.2235-.3885.4014-.8151.3777-.6462001-.0357-.6987001-.0255-.9282001.1875-.2868.2664-.3237.3903-.1902.6375.1293.24.3591.3357.7569001.3159.3558-.0177.396.0138.3147.2490001-.0693.1998-.3015.2766-.4590001.1518-.1212-.0963-.5391-.0219-.6672.1191-.0537.0588-.1335.2136-.177.3432-.075.2238-.0969.2376-.4329.27-.3354001.0327-.3678001.0219-.6090001-.2004-.2691-.2478-.3147-.4374-.1851-.7638.0576-.1446001.1002-.1683001.2538-.1401001.3042.0555.4242001-.0501.4242001-.375 0-.1575-.0306-.3048-.0681-.327-.0372-.0222-.0678-.1056-.0678-.1857s-.0384-.1833-.0849-.2286c-.0681-.066-.0582-.1014.0504-.1782.0744-.0525.1968001-.0879.2718001-.0789.0747.009.2814-.0234.4593-.0717.2571-.0693.3327-.1218001.3675-.2571001.066-.2568.2271-.4629.3621-.4629.2133001 0 .2178001-.5016.0105-1.2312001-.0306-.1077-.1149-.1761-.2637-.213-.1206-.03-.2517-.1122002-.2913-.1829402-.0393-.07074-.1116-.12834-.1605-.12834s-.1446-.05856-.2121-.13008c-.0681-.072-.2088-.13008-.3159-.13008-.2535001 0-.2577001-.17454-.0063-.26658.2655-.09732.6789.03024.7788.24021.1353.28473.2856.16593.3339-.26424.0597-.53205002.2433-.68495999.8220001-.68495999h.4161l-.1824-.18222001c-.0567-.05688-.1038-.12639001-.1365009-.19455039zm2.1570002.18867001c-.0117.01056-.0231.0192-.0345.03105-.1392.14208001-.2046.16233001-.4197001.12951001-.3756-.05727-.3273.09396.0885.27656998.2247.09873.3693.21129001.4185.32517002.237.54947997.4002006.84530997.4821006.87530997.1656.0609.2643-.06132.3012-.37374.0423-.35844.1635-.43443.3813-.23847.0846.07605.2028.13827.2625.13827.1863 0 .324.07479.324.1758 0 .05322.063.18147.1401.28524.1137.1526999.1908.1892999.4032.1892999.2607 0 .4206.0489.747.2292.0051.0027.0102.0036.0153.0063a6 6 0 0 0 -3.1095005-2.04950988zm-7.5891003 5.75340048a6 6 0 0 0 -.00116.0258 6 6 0 0 0  .11718 1.1525997c.21738.0885.2774399.0534.2999999-.1488.01167-.1046996.06633-.2231996.12189-.2642997.08583-.0633.07035-.0957-.10548-.2157-.1138199-.0777-.22599-.2133-.24903-.3012-.02232-.0852-.0978-.1782-.18339-.2484zm1.8885303 1.9832998c-.0561-.0057-.12369.0243-.19869.0963-.15867.1518004-.1347.4569.04512.5775.20607.1383.2855696.0981.3116696-.1568996.0321-.3144-.0351-.5040004-.1580996-.5169004zm1.0181997.9072c-.0612.0021-.1287.0459-.1962.1383-.0717.0978-.0912.2241-.0639.4158.0339.2357997.0192.2861997-.1041.3494997-.1587001.081-.1926001.3221996-.0627.4463996.129.1236.252.0912.2964-.078.063-.2411996.4161-.2693996.6573-.0528.1029.0924.1869.1392.1869.1038s-.1071-.1641-.2379-.2852996c-.2001-.186-.2373-.2652-.2373-.5046 0-.3378001-.1035-.5373001-.2385-.5330997zm-1.6721698.7745997a6 6 0 0 0  .1388701.1752c-.04089-.0633-.08757-.1239-.1388701-.1752zm2.0219698.9209996c-.0303.0105-.0432.0486-.0432.1155 0 .0678-.0432.1389-.096.1581-.0702.0258-.0864.1071-.0594.3012.0051.0363.0066.0654.0084.0957a6 6 0 0 0  .2496.1281c-.0042-.1038.0147-.2259.069-.3789.0921-.2598.0954-.3249.0204-.3705-.0702-.0426-.1182-.0597-.1488-.0492z" opacity=".2"/><path d="m8 5a8 8.3333333 0 0 0 -8 8.333333 8 8.3333333 0 0 0  .09296876 1.217448c.13327032.266174.3978156.449219.70703124.449219h14.4c.306578 0 .568734-.180254.703125-.442708a8 8.3333333 0 0 0  .096875-1.223959 8 8.3333333 0 0 0 -8-8.333333z" fill="#00aaf6"/><path d="m8 5a8 8.3333333 0 0 0 -1 .0722656v4.9277344h2v-4.9238281a8 8.3333333 0 0 0 -1-.0761719z" fill="#fff"/><path d="m5.7229852 9a .68450383.57263894 0 0 0 -.684424.5893814.68450383.57263894 0 0 0  .091192.2698476l1.1580296 1.676483 1.1570492 1.677337a.68450383.57263894 0 0 0 1.1864656 0l1.1570489-1.677337 1.1580295-1.676483a.68450383.57263894 0 0 0 -.593232-.859229h-2.3150793z" fill="#fff"/></svg>