<svg height="16" width="16" xmlns="http://www.w3.org/2000/svg"><path d="m0 3v11.2c0 .44352.3565.8.8.8h14.4004c.4432 0 .7996-.3564.7996-.8v-11.2z" fill="#c7c7c7"/><path d="m .8 1c-.44352 0-.8.3566-.8.7998v1.2002h16v-1.2002c0-.4432-.3564-.7998-.8-.7998z" fill="#5a6367"/><rect fill="#fff" height="2" rx=".667" ry=".829" width="14" x="1" y="10"/><path d="m13.000001 11c0 1.103999-.896001 2-2 2-1.104001 0-2.000001-.896001-2.000001-2 0-1.104.896-2 2.000001-2 1.103999 0 2 .896 2 2z" fill="#5294e2" fill-rule="evenodd"/><circle cx="2" cy="5" fill="#fffff7" r="1"/><rect fill="#5294e2" height="2" rx=".315" ry=".344" width="2" x="4" y="7"/><circle cx="2" cy="8" fill="#5294e2" r="1"/><rect fill="#fff" height="2" rx=".315" ry=".344" width="2" x="4" y="4"/></svg>