<svg height="16" viewBox="0 0 16 16" width="16" xmlns="http://www.w3.org/2000/svg"><rect fill="#008366" height="16" rx="1.2" transform="matrix(0 -1 -1 0 0 0)" width="16" x="-16" y="-16"/><path d="m7.4672931 2.0048797c-.2002682.0170859-.2753477.0490768-.3506642.1475842-.0809396.1058613-.1503395.130441-.4458119.1586927-.2251016.0215241-.3832623.0638819-.4435096.1190195-.1161239.106275-.2255915.3644168-.2255915.5324142 0 .1191399.011342.1244049.1887603.095216.1046353-.017217.2665325-.00469.3644762.028564.14355.048742.1656633.073153.1197014.1301282-.032789.040646-.1449097.029356-.2677941.029356-.2463267 0-.2720775.070932-.1005185.2761255l.1104938.1325076.1902948-.1047374c.2166515-.1194714.3693615-.091697.5217762-.00317.058047.033715.3195098.073893.581627.088868.4455891.02546.3272328.036067.4350693.1650404.069905.083608.1660278.2005116.1657407.296755-.0009822.3244522-.9862355.8991247-1.6407633 1.6996001-.3313709.4052601-.3966457.8079461-.3974707 1.0037313-.0002593.0599031-.0211677.121462-.0460391.1372693-.0477058.0303309-.0775067-.1561276-.1227708-.7680726-.0448232-.6059902-.1551677-.8881579-.4089804-1.1576635-.1489264-.1581345-.287144-.2524024-.4258613-.2904074-.2425987-.0664622-.2573183-.1173905-.0598509-.2015398.0797257-.033975.1450233-.0812316.1450233-.1047374 0-.060284-.2209786-.1097985-.363709-.081726-.1463963.0287912-.1500397.0021126-.018414-.1420302.2589549-.2835831-.1817882-.2179512-.6391754.0952152-.4104825.2810526-.6609343.5139438-.6990266.7228453-.0240395.1318207-.1008701.2469387-.273165.4102208-.3194344.3027241-.3917526.456019-.3506642.737921.0599185.4110723.1057695.4447381.2923479.2166155.1169316-.1429671.3883405-.2916525.4381387-.2404195.048625.050025-.07687.2284017-.2232897.3173854-.1850658.1124659-.1830151.1916252.0061405.2594626.1796351.0644249.2130508.0473135.3146006-.1594861.1170923-.2384484.254901-.3728894.4481136-.4371985.0957487-.0318705.2762132-.1552399.4013071-.2745382.1250943-.1192975.2511483-.2166155.2800712-.2166155.09928 0 .2827768.2372722.3322486.4292635.02723.1056701.073611.525788.1028207.9339069.090059 1.2579349.2131082 1.77524.6583586 2.7723611.1427465.3196771.2593533.6131701.2593533.6522271 0 .05267-.098568.0793-.3821242.104737-.6709162.06021-.9524575.294452-1.0013497.833931-.017628.194497-.00102.307557.063688.434024.1335543.260981.2136232.256105.1780177-.01111-.030479-.228768.050322-.374822.1104938-.199953.044439.129149.2155884.313418.2908133.313418.076597 0 .077273-.0072.016882-.170595-.052888-.14311-.020708-.157529.1143305-.05237.1291844.100599.1726803.05146.1396516-.157899-.052275-.331408.1876595-.393679.7995455-.207094.2974477.09071.3797407.09883.5110336.04999.2505633-.09321.4412271-.07085.6046463.07062.164551.142447.03108.288539-.083637.457035-.1168284.171599-.2996438.243988-.7573426.301516-.2318759.02915-.4725873.08766-.5355882.130128-.1254561.08457-.2263588.274187-.2263588.426089 0 .130746.057912.122398.1841563-.02698.057767-.06835.1484785-.12378.2018046-.12378.1212214 0 .12172.02668.0007858.184877-.087066.113876-.136955.411014-.069058.411014.015074 0 .098735-.07807.1864584-.173769.087723-.09569.205766-.173768.2624225-.173768.120216 0 .1268488.03772.029159.170595-.072806.09903-.099506.427121-.034529.423709.01993-.001.079923-.07327.1335134-.161074.090964-.14904.2048576-.224927.5877656-.391177.084587-.03673.4071466-.342648.7166749-.679205.5529372-.601213.720069-.61504.7043975-.819647l-.016115-.208682.3867282-.0603c.4960475-.181897.9249863-.196811 1.2138963-.04285.383325.20428.745448.158623.692888.491491-.03868.24497-.16958.539985-.500291.57288-.654525.0651-.968781.02223-1.1921149.129982-.4717418.227578-.7221747 1.156423-.613087 1.697028.1022192.506574.5208601.842064 1.1617189.992623.201604.04739.735189.06315 1.073948.0484.848426-.03693 1.390935-.251554 1.8454-.731574.166276-.175626.380564-.537805.458856-.742682l.421233.26104v-1.21876l-.982167.60938.458856.284854c-.06776.05795-.156869.142693-.257818.24994-.446348.47417-.752287.642374-1.31058.719672-.458126.06343-1.13495-.0031-1.447165-.145203-.255993-.116499-.454252-.368084-.454252-.555426.205653-.804274.546192-.755172 1.307513-.831364.480608-.150293 1.045855-.608913 1.045855-1.149126 0-.137848.02106-.307218.04681-.376894.03822-.103401.01616-.19236-.119702-.484013-.113115-.242794-.156504-.395995-.136586-.477648.02413-.0989-.02082-.172571-.253982-.4149807-.252305-.2623048-.277078-.3863506-.224057-.4736979.03275-.053941.05985-.1093406.05985-.1229867 0-.013646-.125647-.089607-.278536-.1690079-.152888-.079401-.331208-.1890304-.396703-.2435931-.103067-.085862-.110591-.1104018-.05371-.1809095.03614-.044806.05314-.094297.0376-.1102916-.01555-.015998-.197288-.061482-.40361-.1015634-.465611-.090448-.537857-.1296915-.557072-.3015159-.0084-.075196-.03223-.134946-.05295-.1325085-.02072.0024-.2519722.04494-.5141037.094423-.515277.097267-.63227.084025-.63227-.072205 0-.1287876.0009822-.1294347-.321506.047608-.5266075.2891062-.9541706.2244444-.8217965-.2301059.0332954-.1143306.1233562-.3023524.2002697-.4173615.3075687-.4599116.7837075-.605963 1.861513-.656988.6006275-.0284336.8710445-.0560741 1.0473885-.1380623.278169-.1293324.532158-.357676.651454-.5855764.05103-.09749.109149-.1769424.129676-.1769424.100819 0 .230962-.2120874.230962-.376895 0-.223057.09939-.2068028.158068.026183.05822.2311577.157259.1173154.151162-.1737683-.0052-.2468672.03072-.27501.138884-.1094979.116995.1790241.15501.059622.08824-.2745387-.064289-.3217709-.483448-1.1086222-.656821-1.3346043-.054933-.0716021-.160906-.1429666-.234799-.1586927-.101626-.021624-.18145-.1087369-.327645-.3586457-.109951-.1879531-.252522-.363075-.331481-.4054595-.124618-.066891-.160762-.065885-.350664.00873-.230834.090696-.251608.1279621-.131979.2301043.09627.082202.258586.4605316.258586.6022389 0 .1012159-.0017.101584-.100519.00953-.05535-.051528-.210741-.1727373-.250145-.2689844-.06844-.1671647-.07496-.1707296-.141187-.078553-.122259.1701673-.08797.4054103.07674.5260663.161213.1181011.306417.3775918.360639.6450856.0194.095692.07632.2440526.126607.3292874.188519.3196109.152188.8405799-.138119.9823079-.101027.049321-.427068.093636-.9276875.1261608-1.1515056.0748129-1.5647452.2277193-2.1170349.7855198-.2639538.2665883-.281414.2766329-.2501457.1412364.0501525-.2171688.0719472-.5078967.5493997-1.1497286.6127193-.823668 1.1915847-1.021556 1.1907204-1.6123178-.0016107-.5050168.0383271-1.0796381-.4822487-1.5139285-.1072296-.0764509-.1832006-.158539-.1688098-.1824966.014391-.023957.1140402-.043641.2209875-.043641.226637 0 .2309023-.076526.012277-.2078874-.1822088-.1094812-.7868943-.2065123-1.1149129-.1785296z" fill="#badc86"/></svg>