<svg height="16" viewBox="0 0 16 16" width="16" xmlns="http://www.w3.org/2000/svg"><path d="m5.5305893 1.0028243c-.0797116.004868-.1603493.017566-.2406137.0390876-.6421161.1721742-1.0204513.8287008-.8483961 1.4712636l.4663833 1.3428794c-.4045913.2410673-.7796213.5178817-1.1288514.8169346l-1.3288422-1.3297658c-.4700621-.4703889-1.2275126-.4703889-1.69757453 0-.47006191.4703888-.47006191 1.2275838 0 1.6979726l1.34212273 1.3430554c-.5932574.6654077-1.13749538 1.2882254-1.67726278 1.6964095-.5567394.40906-.55673944 1.431973 0 1.8410335 2.38252228 1.4834493 3.98239768 5.0887053 7.58166538 5.0782823h.00156c3.599268.01042 5.199143-3.594833 7.581666-5.0782823.556739-.4090605.556739-1.4319735 0-1.8410335-.539552-.4080165-1.083512-1.0305334-1.676482-1.6956279l1.342904-1.343837c.470062-.4703888.470062-1.2275838 0-1.6979726-.470062-.4703889-1.226731-.4703889-1.696794 0l-1.330404 1.3313294c-.347175-.2973917-.719181-.5736025-1.121037-.8138074l.467946-1.34757c.172054-.6425629-.20628-1.2990894-.848397-1.4712636-.642116-.17217421-1.2974053.2072052-1.4694598.849768l-.4171676 1.1583851c-.2669501-.036688-.5441409-.0578144-.8335534-.05785h-.0008c-.2857576.0000344-.558768.021272-.8226165.057068l-.4171484-1.1576031c-.1505481-.5622425-.6708693-.92293067-1.228847-.8888558z" fill="#ef9202"/><circle cx="8" cy="9" fill="#fff" r="4"/><circle cx="8" cy="9" fill="#ff5a2e" r="2"/></svg>