<svg height="16" viewBox="0 0 16 16" width="16" xmlns="http://www.w3.org/2000/svg"><path d="m6.0313353 15.925097c-.02712-.04256.206772-.409083.51976-.814489.8017-1.038423.95154-1.310587.595056-1.712275-.146328-.164885-.346152-.398333-1.5389644-.398333-2.5824616 0-3.6407522-.441892-4.4417922-1.284823-1.10167998-1.159295-1.46790398-3.897908-.90180398-5.8655854.664032-2.3080856 3.20348018-4.0156175 6.98166458-4.6944949 2.462148-.31335197 5.4057797-.29330137 7.2436197 1.4306162 1.629084 1.5801691 1.98994 4.5011626.84288 6.8227808-.750524 1.5190363-2.116848 3.2101623-3.820644 3.6503383-.597716.154422-.672936.208489-1.5859797 1.139992-1.1485854 1.026488-2.5719559 1.622295-3.893796 1.726273z" fill="#ffc933"/></svg>