<svg height="16" width="16" xmlns="http://www.w3.org/2000/svg"><path d="m2.65329 2.1518302c-.8988.086-1.2304.1353-1.72070003.5833-.75482.7105999-.93260001 2.1064999-.93260001 4.2443999v2.0339c0 2.4373999.30266001 3.6773999.80772001 4.1293999.57708003.529.95908003.57 1.34110003.633.1489.023 1.2063.224 5.8896001.224 2.9195999 0 5.4285999-.149 5.6875999-.182.419-.057 1.012-.138 1.471-.675.671-.812.803-2.161.803-4.1166999v-2.3672c0-1.2653-.065-3.0519-.803-3.8017999-.56-.5053-.764-.646-1.92-.7086-.326-.0154-3.176-.1487-5.1686999-.14836-1.8698001.0004-4.6282001.1231-5.4550001.1517z" fill="#c2352a"/><path d="m9 3v5h2l-3 3.9998-3-3.9998h2v-5zm-4.5 9h7v1h-7z" fill="#fff"/></svg>