<svg height="16" width="16" xmlns="http://www.w3.org/2000/svg"><rect fill="#d92929" height="16" rx=".857" transform="matrix(0 -1 -1 0 0 0)" width="16" x="-16" y="-16"/><path d="m9.0078 4a1.0001 1.0001 0 0 0 -1.0078 1v1.8848a1.0001 1.0001 0 0 0 -.9922-.8848h-4a1.0001 1.0001 0 1 0 0 2h1.586l-2.293 2.293a1.0001 1.0001 0 0 0  .707 1.707h4a1.0001 1.0001 0 0 0 1.002-.848 1.0001 1.0001 0 0 0 1.9902-.152v-1.7637l.105.211a1.0001 1.0001 0 0 0 1.79 0l .105-.211v1.7637a1.0001 1.0001 0 1 0 2 0v-6a1.0001 1.0001 0 0 0 -1.895-.4473l-1.105 2.211-1.1055-2.211a1.0001 1.0001 0 0 0 -.8867-.5527zm-1.0078 3.1133v3.6857a1.0001 1.0001 0 0 0 -.9922-.799h-1.5859l2.2929-2.293a1.0001 1.0001 0 0 0  .2852-.5937z" fill="#ff895e"/></svg>