<svg height="32" width="32" xmlns="http://www.w3.org/2000/svg"><rect height="16" opacity=".2" rx="1.25" width="25" x="3" y="12"/><path d="m3 21.75c0 .692.5575 1.25 1.25 1.25h22.5c.692 0 1.25-.558 1.25-1.25v-13.5c0-.6925-.558-1.25-1.25-1.25h-12.75v-.75c0-.6925-.557-1.25-1.25-1.25h-8.5c-.6925 0-1.25.5575-1.25 1.25" fill="#0096aa"/><rect height="16" opacity=".2" rx="1.25" width="25" x="3" y="10"/><rect fill="#e4e4e4" height="10" rx="1.25" width="21" x="5" y="9"/><rect fill="#00bcd4" height="16" rx="1.25" width="25" x="3" y="11"/><path d="m4.25 5c-.6925 0-1.25.5575-1.25 1.25v1c0-.6925.5575-1.25 1.25-1.25h8.5c.693 0 1.25.5575 1.25 1.25v.75h12.75c.692 0 1.25.5575 1.25 1.25v-1c0-.6925-.558-1.25-1.25-1.25h-12.75v-.75c0-.6925-.557-1.25-1.25-1.25z" fill="#fff" opacity=".1"/><path d="m14.738 14v .002l-.111 1.316a3.9641 3.9283 0 0 0 -1.158.664l-1.207-.564-1.262 2.166 1.098.756a3.9641 3.9283 0 0 0 -.063.662 3.9641 3.9283 0 0 0  .059.666l-1.094.75 1.262 2.166 1.205-.564a3.9641 3.9283 0 0 0 1.162.662l.109 1.318h2.524l.111-1.316a3.9641 3.9283 0 0 0 1.158-.664l1.207.562 1.262-2.164-1.096-.754a3.9641 3.9283 0 0 0  .059-.664 3.9641 3.9283 0 0 0 -.059-.664l1.094-.754-1.26-2.164-1.207.562a3.9641 3.9283 0 0 0 -1.16-.66l-.109-1.32zm1.262 3a2 2 0 0 1 2 2 2 2 0 0 1 -2 2 2 2 0 0 1 -2-2 2 2 0 0 1 2-2z" fill="#00424a"/></svg>