<svg height="22" width="22" xmlns="http://www.w3.org/2000/svg"><path d="m7.8346043 10.496937-1.5704963 3.147394 1.3887736-.463058c.7030879 1.081135 2.0384548 1.770721 3.3471184 1.818727 1.479185.05501 2.730341-.71659 3.470434-1.99875l-1.733217-1.000125c-.372046.643081-.995124 1.025878-1.737217.998875-.466058-.017-.96012-.208776-1.2979622-.502813l1.2779602-.426053zm-.3008376-1.5020876 1.7326166 1.000125c.3720465-.6430804.9915237-1.0219778 1.7336167-.9949744.466058.017002.96212.2067758 1.300163.5008126l-1.27816.4257532 3.145393 1.5744972 1.572196-3.1468937-1.388173.4629578c-.703088-1.0811351-1.957495-1.7646205-3.351419-1.8171271-1.3939243-.0525066-2.7261408.7126891-3.4662333 1.9948494zm.3008376 1.5020876-1.5704963 3.147394 1.3887736-.463058c.7030879 1.081135 2.0384548 1.770721 3.3471184 1.818727 1.479185.05501 2.730341-.71659 3.470434-1.99875l-1.733217-1.000125c-.372046.643081-.995124 1.025878-1.737217.998875-.466058-.017-.96012-.208776-1.2979622-.502813l1.2779602-.426053zm-.3008376-1.5020876 1.7326166 1.000125c.3720465-.6430804.9915237-1.0219778 1.7336167-.9949744.466058.017002.96212.2067758 1.300163.5008126l-1.27816.4257532 3.145393 1.5744972 1.572196-3.1468937-1.388173.4629578c-.703088-1.0811351-1.957495-1.7646205-3.351419-1.8171271-1.3939243-.0525066-2.7261408.7126891-3.4662333 1.9948494zm10.1752173-2.3444588-2.708984 5.4218754v.08008l.835938.482422-.5.867187c-.897197 1.554329-2.525896 2.566735-4.373047 2.498045-1.3466796-.049401-2.5785343-.715184-3.5136722-1.695312l-3.1542969 1.050781c1.4263464 2.191747 3.8928821 3.644531 6.7050781 3.644531 4.417713 0 8-3.578744 8-8 0-1.6052549-.477246-3.0967556-1.291016-4.3496094zm-6.708984-3.6503906c-4.4177135 0-8 3.578744-8 8 0 1.606811.4777481 3.099917 1.2929688 4.353516l2.6464843-5.302735.0605469-.1230466v-.0859375l-.8320312-.4804688.5-.8671875c.913721-1.5829601 2.5860776-2.5613054 4.3691402-2.4941406 1.395962.052583 2.605163.7269755 3.521485 1.6933594l3.146484-1.0488282c-1.426346-2.1917476-3.892882-3.6445312-6.705078-3.6445312z" fill="#d3dae3"/></svg>