<svg height="22" width="22" xmlns="http://www.w3.org/2000/svg"><rect height="20" opacity=".2" rx="1" width="21" y="1.5"/><rect fill="#1f4690" height="20" rx="1" width="21" y="1"/><rect height="16" opacity=".2" rx="1" width="17" x="2" y="3.5"/><rect fill="#378137" height="16" rx="1" width="17" x="2" y="3"/><rect height="12" opacity=".2" rx="1" width="13" x="4" y="5.5"/><rect fill="#e35c33" height="12" rx="1" width="13" x="4" y="5"/><path d="m6.75 7.5c-.4155 0-.75.3345-.75.75v5.5c0 .415499.3345.75.75.75h1.25l1 1h3l1-1h1.25c.4155 0 .75-.334501.75-.75v-5.5c0-.4155-.3345-.75-.75-.75zm1.25 2h5v3h-.828125l-1 1h-1.34375l-1-1h-.828125z" opacity=".2"/><path d="m6.75 7c-.4155 0-.75.3345-.75.75v5.5c0 .415499.3345.75.75.75h1.25l1 1h3l1-1h1.25c.4155 0 .75-.334501.75-.75v-5.5c0-.4155-.3345-.75-.75-.75zm1.25 2h5v3h-.828125l-1 1h-1.34375l-1-1h-.828125z" fill="#fef600"/><g fill="#fff"><path d="m1 1c-.554 0-1 .446-1 1v .5c0-.554.446-1 1-1h19c .554 0 1 .446 1 1v-.5c0-.554-.446-1-1-1z" opacity=".1"/><path d="m3 3c-.554 0-1 .446-1 1v .5c0-.554.446-1 1-1h15c .554 0 1 .446 1 1v-.5c0-.554-.446-1-1-1z" opacity=".1"/><path d="m5 5c-.554 0-1 .446-1 1v .5c0-.554.446-1 1-1h11c .554 0 1 .446 1 1v-.5c0-.554-.446-1-1-1z" opacity=".1"/><path d="m6.75 7c-.4155 0-.75.3345-.75.75v.5c0-.4155.3345-.75.75-.75h7.5c.4155 0 .75.3345.75.75v-.5c0-.4155-.3345-.75-.75-.75zm1.25 5v .5h.828125l1 1h1.34375l1-1h .828125v-.5h-.828125l-1 1h-1.34375l-1-1z" opacity=".2"/></g></svg>