<svg height="22" viewBox="0 0 5.82 5.82" width="22" xmlns="http://www.w3.org/2000/svg"><g transform="translate(0 -291.17916)"><path d="m .52916699 291.57603c-.14657917 0-.26458334.118-.26458334.26458v4.7625c0 .14658.11800417.26459.26458334.26459h2.91041681l2.1166667-2.11667v-2.91042c0-.14658-.1180042-.26458-.2645833-.26458z" opacity=".2"/><path d="m .52916699 291.44374c-.14657917 0-.26458334.11801-.26458334.26458v4.7625c0 .14658.11800417.26459.26458334.26459h2.91041681l2.1166667-2.11667v-2.91042c0-.14657-.1180042-.26458-.2645833-.26458z" fill="#ffa234"/><path d="m5.5562505 294.61875-2.1166667 2.11666v-1.85208s0-.26458.2645833-.26458z" fill="#ffcd82"/><path d="m .52916668 291.44375c-.14657918 0-.26458335.11801-.26458335.26458v.13229c0-.14657.11800417-.26458.26458335-.26458h4.76250012c.1465792 0 .2645834.11801.2645834.26458v-.13229c0-.14657-.1180042-.26458-.2645834-.26458z" fill="#fff" opacity=".2"/><path d="m3.7041668 294.61875c-.2645834 0-.2645834.26458-.2645834.26458v.13229s0-.26458.2645834-.26458h1.7197917l.1322917-.13229z" fill="#fff" opacity=".2"/><path d="m2.1166671 292.50208c.3572976.00053.6824824.20634.8356097.52917h1.8102237v.79375h-1.810483c-.1530871.32273-.4781465.52865-.8353504.52916-.3572029-.00053-.682261-.20643-.8353478-.52916h.8353478v-.79375h-.8356071c.1531271-.32283.4783106-.52876.8356071-.52917z" fill="#4b4b4b"/></g></svg>