<svg height="22" width="22" xmlns="http://www.w3.org/2000/svg"><path d="m3.999985 2h13.99995v7h-13.99995z" fill="#b7b7b7"/><path d="m3.999985 2v .5h13.99995v-.5z" fill="#fff" opacity=".2"/><rect fill="#4f4f4f" height="12" rx="1" width="20" x="1" y="8"/><path d="m5 10h12v2h-12z" opacity=".4"/><path d="m6 13h10v2h-10z" opacity=".4"/><path d="m7 16h8v2h-8z" opacity=".4"/><path d="m1 19v .5c0 .554.446 1 1 1h18c .554 0 1-.446 1-1v-.5c0 .554-.446 1-1 1h-18c-.554 0-1-.446-1-1z" opacity=".2"/><circle cx="16" cy="16" fill="#3cd240" r="6"/><path d="m13 16 3 4 3-4h-2v-4h-2v4z" fill="#fff"/><path d="m5 4h4v2h-4z" opacity=".5"/><path d="m13 4h4v2h-4z" opacity=".5"/></svg>