<svg height="22" width="22" xmlns="http://www.w3.org/2000/svg"><rect fill="#647fa6" height="20" rx="1" transform="matrix(0 -1 -1 0 0 0)" width="20" x="-21" y="-21"/><path d="m2 1c-.554 0-1 .446-1 1v .5c0-.554.446-1 1-1h18c .554 0 1 .446 1 1v-.5c0-.554-.446-1-1-1z" fill="#fff" opacity=".2"/><path d="m2 21.5c-.554 0-1-.446-1-1v-.5c0 .554.446 1 1 1h18c .554 0 1-.446 1-1v .5c0 .554-.446 1-1 1z" opacity=".2"/><path d="m18.983222 9.633583-2.121708-4.023397c-.0034-.00475-.0062-.00899-.0096-.013255-.01483-.018465-.03157-.035035-.05022-.048285-.07557-.054441-.178404-.065802-.267366-.019885-.05213.026985-.0904.069589-.112877.118822-.0034.00425-.0048.00947-.0067.014675l-1.146948 2.7229745-2.275718 1.1759195c-.01483.0076-.03013.01563-.04448.02367l-.773879.40002-.674394.348421-.17649-.334218c-.09996-.189359-.335283-.262735-.5266-.163796-.190839.09847-.265453.331851-.16549.52121l.176491.334217-.651436.336585-.562473-1.066562 1.009677-.521682c.259235-.134445.359677-.4511475.22432-.7077295-.02153-.04166-.04879-.07906-.07987-.1117225l-.04592-.044021c-.15975-.1349175-.3922-.168055-.589257-.06627l-2.98168 1.540433c-.259713.134445-.3601545.451147-.2247975.708201.021525.04024.046875.07669.077005.108881.015305.01751.032525.03361.050221.04781.1597495.133971.391722.167109.5883005.06533l1.0091985-.521209.5624725 1.066562-.718874.371617-.1764905-.334218c-.099963-.188885-.33624-.262262-.5266005-.163796-.050221.02604-.092311.06107-.1257915.102727-.09231.115983-.1133555.278831-.0397.418483l.17649.334217-1.094813.565709c-.014825.0071-.030135.01515-.04496.02273l-2.608135 1.346814-.8896252-.191252c-.00239-.00095-.00479-.00095-.0067-.0015-.024871-.0047-.051177-.00095-.075092.01089-.053091.02745-.076049.08947-.055004.143439l.9757177 1.849559c.00239.0033.00479.0071.00765.0099l.00143.0014.014349.01326c.034435.0284.08418.03455.127226.01278.023915-.01278.04161-.03171.052134-.05491.00095-.0019.0019-.0038.00285-.0062l.3572845-.847379 1.043636-.539672c.0043.293506.07557.590325.221928.868209.500773.949159 1.684549 1.316988 2.644005.821342.014825-.0076.03013-.01563.04448-.02367l1.0948125-.565708.20471.388185c.09949.188885.33624.262261.526601.163795.190839-.09847.265453-.332324.165489-.521209l-.204709-.387712.718875-.371615.59691 1.131889c.139183.263682.466814.365462.733223.227704.07461-.03834.136314-.09136.182708-.15338.121965-.160481.147314-.38203.04735-.571863l-.59691-1.13189.651436-.336585.204709.387712c.09948.188885.335762.262734.526601.163795.191317-.09894.264974-.332798.165489-.521209l-.204709-.388185 1.51045-.78063c.104268-.05539.201361-.11835.291281-.188885.724614-.566183.96376-1.57925.521339-2.418108-.146358-.277411-.351545-.505115-.592127-.676957l.712179-.367829 2.929546.628197c.0057.0015.01053.0028.01579.0033.05405.0099.111442.0033.163098-.02367.11479-.0587.164054-.193619.118616-.311495zm-11.00744 5.688803c-.0067.0042-.012915.0071-.02009.01088-.4314205.22297-.9628045.05776-1.187602-.369249-.224798-.42653-.058352-.952472.372112-1.174969l1.1407295-.589374.8145335 1.544218zm1.811297-.935905-.814534-1.544218.04783-.02414.671524-.347.814533 1.544219-.153053.07906zm1.682635-.869155-.814533-1.544219.651435-.336584.814534 1.544218zm2.701878-1.397939c-.0096.0062-.01913.01183-.02918.01657l-1.329655.687371-.814533-1.544219.991502-.512688.317587-.163795c.01674-.0085.03396-.01657.05118-.02461.420898-.185571.920236-.01657 1.136425.393392.190839.360728.100442.792939-.192752 1.05236-.03922.03551-.08274.0677-.130574.09563z" opacity=".2"/><path d="m18.983222 9.133587-2.121708-4.023397c-.0034-.00475-.0062-.00899-.0096-.013255-.01483-.018465-.03157-.035035-.05022-.048285-.07557-.054441-.178404-.065802-.267366-.019885-.05213.026985-.0904.069589-.112877.118822-.0034.00425-.0048.00946-.0067.014675l-1.146948 2.7229745-2.275718 1.1759185c-.01483.0076-.03013.01563-.04448.02367l-.773879.40002-.674394.34842-.17649-.334218c-.09996-.189358-.335283-.262735-.5266-.163795-.190839.09847-.265453.331851-.16549.521209l.176491.334218-.651436.336585-.562473-1.066562 1.009677-.5216825c.259235-.1344455.359677-.451149.22432-.7077295-.02153-.04166-.04879-.079057-.07987-.111722l-.04592-.044025c-.15975-.134918-.3922-.1680555-.589257-.066275l-2.98168 1.540433c-.259713.134445-.3601545.451147-.2247975.708201.021525.04024.046875.07669.077005.108881.015305.01751.032525.03361.050221.04781.1597495.133972.391722.167109.5883005.06533l1.0092365-.521211.5624725 1.066562-.718874.371616-.1764905-.334217c-.099963-.188886-.33624-.262262-.5266005-.163796-.050221.02604-.092311.06107-.1257915.102727-.09231.115982-.1133555.278831-.0397.418483l.17649.334217-1.094813.565709c-.014825.0071-.030135.01515-.04496.02272l-2.608135 1.346814-.8896252-.191252c-.00239-.00095-.00479-.00095-.0067-.0014-.024871-.0048-.051177-.00095-.075092.01089-.053091.02745-.076049.08947-.055004.143439l.9757177 1.849559c.00239.0033.00479.0071.00765.0099l.00143.0014.014349.01326c.034435.0284.08418.03456.127226.01279.023915-.01279.04161-.03171.052134-.05491.00095-.0019.0019-.0038.00285-.0062l.3572845-.847379 1.043636-.539672c.0043.293506.07557.590325.221928.868209.500773.949159 1.684549 1.316988 2.644005.821342.014825-.0076.03013-.01563.04448-.02367l1.0948125-.565708.20471.388185c.09949.188885.33624.262261.526601.163795.190839-.09847.265453-.332324.165489-.521209l-.204709-.387712.718875-.371616.59691 1.13189c.139183.263682.466814.365462.733223.227704.07461-.03834.136314-.09136.182708-.15338.121965-.160482.147314-.382031.04735-.571863l-.59691-1.13189.651436-.336585.204709.387712c.09948.188885.335762.262734.526601.163795.191317-.09894.264974-.332798.165489-.52121l-.204709-.388185 1.51045-.78063c.104268-.05539.201361-.118349.291281-.188885.724614-.566182.96376-1.57925.521339-2.418108-.146358-.27741-.351545-.505114-.592127-.676957l.712179-.367829 2.929546.628198c.0057.0015.01053.0028.01579.0033.05405.0099.111442.0033.163098-.02367.11479-.0587.164054-.19362.118616-.311495zm-11.00744 5.688802c-.0067.0042-.012915.0071-.02009.01089-.4314205.22297-.9628045.05775-1.187602-.369249-.224798-.42653-.058352-.952473.372112-1.174969l1.1407295-.589378.8145335 1.544218zm1.811297-.935904-.814534-1.544218.04783-.02415.671524-.346999.814533 1.544218-.153053.07906zm1.682635-.869156-.814533-1.544218.651435-.336585.814534 1.544219zm2.701878-1.397938c-.0096.0062-.01913.01183-.02918.01657l-1.329655.687371-.814533-1.544219.991502-.512688.317587-.163795c.01674-.0085.03396-.01657.05118-.02462.420898-.185572.920236-.01657 1.136425.393392.190839.360728.100442.792939-.192752 1.05236-.03922.03551-.08274.0677-.130574.09563z" fill="#fff"/></svg>