<svg height="22" width="22" xmlns="http://www.w3.org/2000/svg"><path d="m1 20v .5c0 .554.446 1 1 1h18c .554 0 1-.446 1-1v-.5c0 .554-.446 1-1 1h-18c-.554 0-1-.446-1-1z" opacity=".2"/><rect fill="#4f4f4f" height="20" rx="1" transform="matrix(0 -1 -1 0 0 0)" width="20" x="-21" y="-21"/><path d="m2 1c-.554 0-1 .446-1 1v .5c0-.554.446-1 1-1h18c .554 0 1 .446 1 1v-.5c0-.554-.446-1-1-1z" fill="#fff" opacity=".1"/><path d="m16 4.5-11 3.5v4l4.2305 1.154-4.2305 1.346v4l11-3.5v-4l-4.23-1.1543 4.23-1.3457z" opacity=".2"/><path d="m16 4-11 3.5v4l11-3.5z" fill="#ffab36"/><path d="m16 10.5-11 3.5v4l11-3.5z" fill="#ffab36"/><path d="m15.154 10.77-6.7692 2.153 6.7692 1.847.846-.27v-3.5z" opacity=".2"/><path d="m5 7.5 11 3v4l-11-3z" fill="#ffab36"/></svg>