<svg height="22" width="22" xmlns="http://www.w3.org/2000/svg"><rect fill="#37dbad" height="19.998" rx="10" ry="9.999" transform="matrix(0 -1 -1 0 0 0)" width="20" x="-21" y="-21"/><path d="m11 5.5c-3.3132 0-5.9995 2.6865-5.9995 6s2.6863 6 5.9995 6h3.7497s.70309 0 .74993-.75c0-.75-.75-.75-.75-.75h-3.75c-2.4851 0-4.4996-2.015-4.4996-4.5 0-2.4853 2.0145-4.5 4.4996-4.5 2.4853 0 4.4996 2.0145 4.4996 4.5v.75c0 .414-.33597.75-.74993.75s-.74993-.336-.74993-.75v-.75c0-1.657-1.3429-3-2.9997-3-1.6569 0-2.9997 1.343-2.9997 3s1.3429 3 2.9997 3c .78443 0 1.4929-.308 2.0273-.8015.42746.5085 1.0579.802 1.7223.8015 1.2424 0 2.2498-1.0075 2.2498-2.25v-.75c0-3.3135-2.6863-6-5.9995-6zm0 4.5c.82833 0 1.4999.6716 1.4999 1.5 0 .828-.672 1.5-1.5 1.5s-1.4999-.672-1.4999-1.5.6719-1.5 1.4999-1.5z" opacity=".2"/><path d="m11.001 5c-3.3135 0-6 2.6865-6 6s2.6865 6 6 6h3.75s.70315 0 .75-.75c0-.75-.75-.75-.75-.75h-3.75c-2.4853 0-4.5-2.0147-4.5-4.5s2.0147-4.5 4.5-4.5c2.4855 0 4.5 2.0145 4.5 4.5v.75c0 .414-.336.75-.75.75s-.75-.336-.75-.75v-.75c0-1.657-1.343-3-3-3s-3 1.343-3 3 1.343 3 3 3c .7845 0 1.493-.308 2.0275-.8015.4275.5085 1.058.802 1.7225.8015 1.2425 0 2.25-1.0075 2.25-2.25v-.75c0-3.3135-2.6865-6-6-6zm0 4.5c.8284 0 1.5.6716 1.5 1.5 0 .8285-.6715 1.5-1.5 1.5s-1.5-.6715-1.5-1.5c0-.8284.6716-1.5 1.5-1.5z" fill="#fff"/><path d="m11 1c-5.5395 0-9.9991 4.46-9.9991 10 0 .084-.002.1665 0 .25.1322-5.423 4.5436-9.75 9.9991-9.75s9.8671 4.327 9.9991 9.75c.002-.0835 0-.166 0-.25 0-5.54-4.459-10-9.999-10z" fill="#fff" opacity=".2"/><path d="m1.0067 11.25c-.00205.0835-.00585.166-.00585.25 0 5.54 4.4596 10 9.9991 10s9.9991-4.46 9.9991-10c0-.084-.004-.1665-.006-.25-.132 5.423-4.537 9.75-9.993 9.75-5.4555 0-9.8611-4.327-9.9931-9.75z" opacity=".2"/></svg>