<svg height="22" viewBox="0 0 22 22" width="22" xmlns="http://www.w3.org/2000/svg"><circle cx="11" cy="11.5" opacity=".2" r="10"/><circle cx="11" cy="11" fill="#aaa" r="10"/><path d="m11 3.5a8 8 0 0 0 -8 8 8 8 0 0 0 8 8 8 8 0 0 0 5.277344-2h-3.16211l-3.115234-6.046875 3.115234-5.953125h3.166016a8 8 0 0 0 -5.28125-2zm4 5.5-2 1.25-2 1.25 2 1.25 2 1.25v-2.5zm0 2.5 2 1.25 2 1.25v-2.5-2.5l-2 1.25z" opacity=".1"/><path d="m11 1a10 10 0 0 0 -10 10 10 10 0 0 0  .01075.291 10 10 0 0 1 9.98925-9.791 10 10 0 0 1 9.9895 9.709 10 10 0 0 0  .0105-.209 10 10 0 0 0 -10-10z" fill="#fff" opacity=".2"/><g fill="#3f3f3f"><path d="m11 3a8 8 0 0 0 -8 8 8 8 0 0 0 8 8 8 8 0 0 0 5.277344-2h-3.16211l-3.115234-6.046875 3.115234-5.953125h3.166016a8 8 0 0 0 -5.28125-2z"/><path d="m24.20261 24.514467 4.040122-2.332565 4.040122-2.332566v4.665131 4.665131l-4.040122-2.332565z" transform="matrix(.49503454 0 0 .5358906 -.981128 -2.137073)"/><path d="m24.20261 24.514467 4.040122-2.332565 4.040122-2.332566v4.665131 4.665131l-4.040122-2.332565z" transform="matrix(.49503454 0 0 .5358906 3.018872 -2.137073)"/></g><path d="m6.95868 5.5c-.367621.000077-.7051655.215088-.8775185.5589665l-4.9638982 9.8954825c-.3510902.700777.1284228 1.545331.8775179 1.545551h8.0104998c.748143-.000263 1.22769-.842903.87845-1.543577l-2.3844075-4.456423 2.1867105-4.452473c.352946-.7008785-.126535-1.547355-.876586-1.547527z" opacity=".2"/><path d="m6.95868 5c-.367621.000077-.7051655.215088-.8775185.5589665l-4.9638982 9.8954825c-.3510902.700777.1284228 1.545331.8775179 1.545551h8.0104998c.748143-.000263 1.22769-.842903.87845-1.543577l-2.3844075-4.456423 2.1867105-4.452473c.352946-.7008785-.126535-1.547355-.876586-1.547527z" fill="#fff"/></svg>