<svg height="22" width="22" xmlns="http://www.w3.org/2000/svg"><rect height="20" opacity=".2" rx="1" transform="matrix(0 -1 -1 0 0 0)" width="20" x="-21.5" y="-21"/><rect fill="#283e68" height="20" rx="1" transform="matrix(0 -1 -1 0 0 0)" width="20" x="-21" y="-21"/><path d="m19.507 14.000294s-1.999989-.267751-1.999989 1c0 1.26775 1.999989.732249 1.999989 2 0 1.26775-1.999989 1-1.999989 1" fill="none" opacity=".2" stroke="#000" stroke-linecap="round" stroke-linejoin="round"/><path d="m17.441754 4.5000172-7.409527 11.5904158-1.6621095-2.590433h-2.3701175l3.196289 5 1.694336-.0088 8.905621-13.9912163z" opacity=".2"/><path d="m15.514623 16.000294h-1m1.5-2c-1.693424 0-1.5.5-1.5 4" fill="none" opacity=".2" stroke="#000" stroke-linecap="round" stroke-linejoin="round"/><path d="m17.441754 4.0000172-7.409527 11.5904158-1.6621095-2.590433h-2.3701175l3.196289 5 1.694336-.0088 8.905621-13.9912163z" fill="#ff8118"/><path d="m14.441754 4.5000172-7.409527 11.5904158-1.6621095-2.590433h-2.3701175l3.1962895 5 1.6943355-.0088 8.905621-13.9912172z" opacity=".2"/><path d="m14.441754 4.0000172-7.409527 11.5904158-1.6621095-2.590433h-2.3701175l3.1962895 5 1.6943355-.0088 8.905621-13.9912172z" fill="#abe619"/><path d="m2 1c-.554 0-1 .446-1 1v .5c0-.554.446-1 1-1h18c .554 0 1 .446 1 1v-.5c0-.554-.446-1-1-1z" fill="#fff" opacity=".1"/><path d="m19.507 13.5s-1.999989-.267751-1.999989 1c0 1.26775 1.999989.732249 1.999989 2 0 1.26775-1.999989 1-1.999989 1" fill="none" stroke="#fff" stroke-linecap="round" stroke-linejoin="round"/><path d="m15.514623 15.5h-1m1.5-2c-1.693424 0-1.5.5-1.5 4" fill="none" stroke="#fff" stroke-linecap="round" stroke-linejoin="round"/></svg>