<svg height="22" viewBox="0 0 22 22" width="22" xmlns="http://www.w3.org/2000/svg"><path d="m11.054074 1.0006654a2.2828187 2.2739686 0 0 0 -1.1955092.3033525l-6.7170554 3.8630317a2.2828187 2.2739686 0 0 0 -1.1415094 1.9695162v7.7265632a2.2828187 2.2739686 0 0 0 1.1414094 1.969316l6.7170554 3.863232a2.2828187 2.2739686 0 0 0 2.2828182 0l6.717055-3.863232a2.2828187 2.2739686 0 0 0 1.14151-1.969516v-7.7265632a2.2828187 2.2739686 0 0 0 -1.14151-1.9695162l-6.717055-3.8630317a2.2828187 2.2739686 0 0 0 -1.087509-.3033525z" fill="#4f4f4f"/><path d="m3.3361223 5.5533898c-.5662173.3266531-1.1588621.4930955-1.2881204 1.1320358l7.9522141 4.4199584v1.132821l1.000008-.738287-.500004-1.303722.500004.303714-1.0039142-1.6845845-6.1328633-3.4092074.011719-.00684z" opacity=".3"/><ellipse cx=".71" cy="7.765" fill="#fff" rx="1.425" ry="1.812" transform="matrix(.94525252 -.3263398 .36434719 .93126319 0 0)"/><path d="m11.053574 1.0010154a2.2828187 2.2739686 0 0 0 -1.1950092.3027025l-6.7170554 3.8633317a2.2828187 2.2739686 0 0 0 -1.1415094 1.9695162v.5000041a2.2828187 2.2739686 0 0 1 1.1416094-1.9695162l6.7170554-3.8633317a2.2828187 2.2739686 0 0 1 1.1953092-.3027375 2.2828187 2.2739686 0 0 1 1.087909.3027375l6.717055 3.8633317a2.2828187 2.2739686 0 0 1 1.14151 1.9695162v-.5000041a2.2828187 2.2739686 0 0 0 -1.14151-1.9695162l-6.717055-3.8633317a2.2828187 2.2739686 0 0 0 -1.088009-.3027025z" fill="#fff" opacity=".1"/><path d="m2 14.863129v.500004a2.2828187 2.2739686 0 0 0 1.1416094 1.968766l6.7170554 3.863332a2.2828187 2.2739686 0 0 0 2.2832182 0l6.717055-3.863532a2.2828187 2.2739686 0 0 0 1.14151-1.969016v-.500004a2.2828187 2.2739686 0 0 1 -1.14161 1.968766l-6.717055 3.863332a2.2828187 2.2739686 0 0 1 -2.2832182 0l-6.7170554-3.863532a2.2828187 2.2739686 0 0 1 -1.1415094-1.969016z" opacity=".2"/><ellipse cx="5.117" cy="12.8" fill="#fff" rx="1.425" ry="1.812" transform="matrix(.94525252 -.3263398 .36434719 .93126319 0 0)"/><ellipse cx="2.904" cy="10.306" fill="#fff" rx="1.425" ry="1.812" transform="matrix(.94525252 -.3263398 .36434719 .93126319 0 0)"/><path d="m2.2306206 6.1424521a2.2828187 2.2739686 0 0 0 -.2304706.9941492v7.7266257a2.2828187 2.2739686 0 0 0 1.1416109 1.968766l6.7168519 3.863313a2.2828187 2.2739686 0 0 0 1.1416112.303713v-9.981527z" fill="#d87900"/><path d="m19.775686 6.1610073-8.776439 4.8779697.000977 9.960042a2.2828187 2.2739686 0 0 0 1.140634-.303713l6.717829-3.863313a2.2828187 2.2739686 0 0 0 1.141611-1.968766v-7.7266257a2.2828187 2.2739686 0 0 0 -.224612-.975594z" fill="#ad6200"/><path d="m19.775686 6.1610073-8.776439 4.8779697v3.001977l8.776439-4.8779689a2.2828187 2.2739686 0 0 1  .224612.9755939v-3.0019777a2.2828187 2.2739686 0 0 0 -.224612-.975594z" fill="#fff" opacity=".1"/><path d="m2.2306206 6.1424521a2.2828187 2.2739686 0 0 0 -.2304706.9941492v.5000041a2.2828187 2.2739686 0 0 1  .2304706-.9941492l8.7696034 4.8750398v-.500004z" opacity=".1"/><path d="m19.775686 6.1610073-8.776439 4.8779697v.500004l8.776439-4.8779696a2.2828187 2.2739686 0 0 1  .224612.975594v-.5000041a2.2828187 2.2739686 0 0 0 -.224612-.975594z" fill="#fff" opacity=".1"/><g fill="none" stroke="#fff" stroke-width=".500004"><path d="m5.6180142 5.1889038 4.0034146-.8987259 1.5523442-2.2059628" opacity=".2"/><path d="m8.0690843 6.5778432 3.9217127-.8578741 1.552344-2.410219" opacity=".2"/><path d="m10.35675 7.8850809 3.880861-.8987259 1.552344-2.2876652" opacity=".2"/></g><path d="m19.775686 9.1629851-8.776439 4.8779689v.500004l8.776439-4.8779689a2.2828187 2.2739686 0 0 1  .224612.9755939v-.500004a2.2828187 2.2739686 0 0 0 -.224612-.9755939z" opacity=".1"/><path d="m5.2002238 9.8457531-.2 2.3809719-2.988419-2.05884v2.380971l2.8879503 2.058841-.0995313 2.381303 6.2000002-.031z" fill="#fff" opacity=".3"/><path d="m2.0119426 12.548828v.5l2.84875 2.03125.039063-.472656zm8.5820314 4.410156-5.7519533.0293-.041016.5 6.1992193-.03125z" opacity=".1"/><path d="m5.1994426 9.8457031-.1992188 2.3808589-2.9882812-2.058593v.5l2.9882812 2.058593.1992188-2.380859 5.3945314 6.613281.40625-.002zm-.2382813 5.2343749-.1601563 1.908203h.041016l.1582028-1.880859z" fill="#fff" opacity=".2"/></svg>