<svg height="22" width="22" xmlns="http://www.w3.org/2000/svg"><path d="m19 20v-18c0-.554-.446-1-1-1h-14c-.554 0-1 .446-1 1v18c0 .554.446 1 1 1h14c .554 0 1-.446 1-1z" fill="#e4e4e4"/><path d="m3 20v .5c0 .554.446 1 1 1h14c .554 0 1-.446 1-1v-.5c0 .554-.446 1-1 1h-14c-.554 0-1-.446-1-1z" opacity=".2"/><circle cx="16.5" cy="16.5" fill="#38458f" r="5.5"/><path d="m18.005859 14c-.07585 0-.152037.02899-.210937.08789l-.582031.585937 1.113281 1.113281.585937-.582031c.117796-.117796.117796-.302123 0-.419922l-.697265-.697264c-.058898-.058898-.133132-.087891-.208985-.087891zm-1.5 1.380859-2.505859 2.50586v1.113281h1.113281l2.50586-2.505859z" fill="#fff"/><path d="m4 1c-.554 0-1 .446-1 1v .5c0-.554.446-1 1-1h14c .554 0 1 .446 1 1v-.5c0-.554-.446-1-1-1z" fill="#fff" opacity=".2"/></svg>