<svg height="22" width="22" xmlns="http://www.w3.org/2000/svg"><path d="m19 20v-18c0-.554-.446-1-1-1h-14c-.554 0-1 .446-1 1v18c0 .554.446 1 1 1h14c .554 0 1-.446 1-1z" fill="#e81d62"/><path d="m5.4615 3.5c-.4615 0-.4615.4706-.4615.4706v15.058s0 .47059.46154.47059h11.106s.43292 0 .43292-.47059l-.001-9.4114-5.646-6.1176zm7.7925 0 3.746 4.0588v-3.5882c0-.4706-.462-.4706-.462-.4706z" opacity=".2"/><path d="m4 1c-.554 0-1 .446-1 1v .5c0-.554.446-1 1-1h14c .554 0 1 .446 1 1v-.5c0-.554-.446-1-1-1z" fill="#fff" opacity=".1"/><path d="m5.4615 3c-.4615 0-.4615.4706-.4615.4706v15.058s0 .471.4615.471h11.106c-.001 0 .432 0 .432-.471v-9.4114l-5.646-6.1176zm7.7925 0 3.746 4.0588v-3.5882c0-.4706-.462-.4706-.462-.4706z" fill="#f5f5f5"/><path d="m3 20v .5c0 .554.446 1 1 1h14c .554 0 1-.446 1-1v-.5c0 .554-.446 1-1 1h-14c-.554 0-1-.446-1-1z" opacity=".2"/><path d="m11 8c-1.6775 0-3.111.5176-3.7049 1.25-.0499.0615-.0941.1241-.1317.1885-.0358.0611-.0663.1231-.0904.1865a3.9999 2 0 0 0 -.0167.0586c-.0138.043-.0287.086-.0369.1299a3.9999 2 0 0 0 -.0194.1865c.00022.06499.00729.12989.020091.19434a3.9999 2 0 0 0  .054684.1875 3.9999 2 0 0 0  .092631.18652 3.9999 2 0 0 0  .12742.1815 3.9999 2 0 0 0 3.705 1.25 3.9999 2 0 0 0 3.7053-1.25 3.9999 2 0 0 0  .0011-.0019 3.9999 2 0 0 0  .10826-.1543c.0064-.01014.01407-.02009.02009-.03028a3.9999 2 0 0 0  .06585-.13281c.0094-.02093.02105-.04144.02902-.0625a3.9999 2 0 0 0  .03236-.11133c.0077-.02933.0161-.05839.0212-.08789a3.9999 2 0 0 0  .01657-.1685 3.9999 2 0 0 0 -.02114-.199c-.03829-.1935-.13314-.378-.27371-.551-.5937-.7325-2.0274-1.25-3.705-1.25z" opacity=".5"/><path d="m7.2951 12.25a3.9999 2 0 0 0 -.2949.75 3.9999 2 0 0 0 3.9999 2 3.9999 2 0 0 0 3.9999-2 3.9999 2 0 0 0 -.29485-.75 3.9999 2 0 0 1 -3.705 1.25 3.9999 2 0 0 1 -3.705-1.25z" opacity=".5"/><path d="m7.2951 15.25a3.9999 2 0 0 0 -.2949.75 3.9999 2 0 0 0 3.9999 2 3.9999 2 0 0 0 3.9999-2 3.9999 2 0 0 0 -.29485-.75 3.9999 2 0 0 1 -3.705 1.25 3.9999 2 0 0 1 -3.705-1.25z" opacity=".5"/></svg>