<svg height="22" viewBox="0 0 22 22" width="22" xmlns="http://www.w3.org/2000/svg"><path d="m13.374039 28.197268c-.797351.977266.150391 2.820312.150391 2.820312s8.671045 11.007441 9.803692 12.283203c1.136736 1.279851 2.441014.629721 1.488281-1.136719-.126187-.232449-.376721-.714536-.640625-1.224609l-7.818291-11.389844c-.642988-.987752-.988202-1.499243-1.954151-1.789843 0 0-.792518.216077-1.029297.4375zm.595705-.400393c-.126758.0368-.244884.09791-.359375.179687.360279-.180632.359375-.179687.359375-.179687z" opacity=".2" transform="matrix(.50000514 0 0 .50000514 -.549959 -.500229)"/><path d="m24.107015 4.0078125c-5.282691.4265577-8.243488 21.2208975-7.779644 26.0548385-.04106-.02445-1.063477.832028-.126953-.0625 2.39703 3.696764 6.058318 8.417405 7.799582 10.999849 2.535167-.0082 6.516748 3.12567 10.029297 2.996094 2.339973-.08632 5.511967-3.151989 4.894531-11.787915-.613347-8.631836-11.36841-5.818359-11.384766-5.818359 2.191694-1.56199 5.15622-3.137094 6.934927-4.028492 2.007689-1.247139-.674788-4.989055-3.144532-9.429687-2.060846-3.7046163-4.903586-8.275496-6.138458-8.7539066-.369797-.1454144-.731805-.1983591-1.083984-.1699219z" opacity=".2" transform="matrix(.50000514 0 0 .50000514 -.500031 -.500229)"/><path d="m3.50001 9.999883c1.983379.055452 2.1905385 1.071682 2.9999898 3.500035" fill="none" stroke="#3f3f3f"/><path d="m24.107015 4.0078125c-5.282691.4265577-8.243488 21.2208975-7.779644 26.0548385-.04106-.02445-1.063477.832028-.126953-.0625 2.39703 3.696764 6.058318 8.417405 7.799582 10.999849 2.535167-.0082 6.516748 3.12567 10.029297 2.996094 2.339973-.08632 5.511967-3.151989 4.894531-11.787915-.613347-8.631836-11.36841-5.818359-11.384766-5.818359 2.191694-1.56199 5.15622-3.137094 6.934927-4.028492 2.007689-1.247139-.674788-4.989055-3.144532-9.429687-2.060846-3.7046163-4.903586-8.275496-6.138458-8.7539066-.369797-.1454144-.731805-.1983591-1.083984-.1699219z" fill="#e4e4e4" transform="matrix(.50000514 0 0 .50000514 -.500031 -1.00023)"/><path d="m12.552734 2.0039062c-2.43456.1965818-3.8642637 8.9711088-3.8945309 12.2480468.1706971-3.626487 1.5898329-11.5619509 3.8945309-11.7480468.176092-.014219.358069.011277.542969.083984.617442.2392078 2.037926 2.524626 3.068359 4.3769532.840441 1.5111234 1.712733 2.8495245 1.878907 3.7539066.199522-.8549353-.865015-2.4309164-1.878907-4.2539062-1.030433-1.8523272-2.450917-4.1377454-3.068359-4.3769532-.1849-.072708-.366877-.098203-.542969-.083984zm3.441407 10.9726558c-.258548.0053-.486702.02903-.705079.05274-.356101.217578-.704104.441215-1.019531.666015.0082 0 5.386683-1.407759 5.69336 2.908204.02798.391396.02487.735436.02344 1.082031.02113-.481765.01794-1.003336-.02344-1.582031-.191673-2.697477-2.364335-3.159756-3.96875-3.126954zm-7.3945316 2.023438c-.4367015.417119-.039454.08918.035156.05078-.0105871-.016257-.0246645-.0346-.035156-.05078zm.035156.05078c.00817.01255.019115.02647.027344.03906-.0004618-.01758-.0016-.0386-.00195-.05664-.00169-.000296-.020661.01514-.025391.01758z" fill="#fff" opacity=".2" transform="translate(-1 -1)"/><path d="m13.374039 28.197268c-.797351.977266.150391 2.820312.150391 2.820312s8.671045 11.007441 9.803692 12.283203c1.136736 1.279851 2.441014.629721 1.488281-1.136719-.126187-.232449-.376721-.714536-.640625-1.224609l-7.818291-11.389844c-.642988-.987752-.988202-1.499243-1.954151-1.789843 0 0-.792518.216077-1.029297.4375zm.595705-.400393c-.126758.0368-.244884.09791-.359375.179687.360279-.180632.359375-.179687.359375-.179687z" fill="#3f3f3f" transform="matrix(.50000514 0 0 .50000514 -.549959 -1.00023)"/><circle cx="6.5" cy="14" opacity=".2" r="1.5"/><circle cx="6.5" cy="13.5" fill="#4f4f4f" r="1.5"/><circle cx="3" cy="10.5" opacity=".2" r="1"/><g fill="#4f4f4f"><circle cx="3" cy="10" r="1"/><path d="m9.0292968 4.9785156c-.0083.0000195-.0252.00169-.035156.00195-.1015894.3397923-.1944514.6944425-.2851566 1.0527375.8986046-.1111292 1.8504158.3159147 2.3281248 1.0644531-.017895-.2787042-.089452-.5490421-.210937-.7988281-.366184-.7482202-.9376402-1.320098-1.7968752-1.3203125z"/><path d="m8.2597654 8.0703125c-.0613486.3254742-.1293355.6462384-.1816406.9667965.7383255.09388 1.567382.408413 1.902344.933594-.0179-.278703-.089459-.550996-.210938-.800781-.271529-.5522904-.8845439-.932654-1.5097654-1.0996095z"/></g></svg>