<svg height="22" width="22" xmlns="http://www.w3.org/2000/svg"><rect fill="#714f36" height="20" rx="1" transform="matrix(0 -1 -1 0 0 0)" width="20" x="-21" y="-21"/><path d="m1.9999997 1.5000062c-.5539998 0-.9999997.4459998-.9999997.9999997v1.4999995 1.4999995h2v-.9985399h2v .9985399h2v1.9999951h2v-1.9999951-.9985399-1.001465h2v1.001465.9985399h1.999998v-.9985399h1.999996v.9985399 1.9999951h2.000006v-1.9999951l2-.0000049v-.998535h2v .9985399-.9985399h-.001c0-.000855.00095-.00207.001-.00293v-1.9985291c0-.5539999-.446006-.9999997-1.000006-.9999997z" opacity=".2"/><path d="m1.9999997 1.0000062c-.5539998 0-.9999997.4459998-.9999997.9999997v1.4999995 1.4999995h2v-.9985399h2v .9985399h2v1.9999951h2v-1.9999951-.9985399-1.001465h2v1.001465.9985399h1.999998v-.9985399h1.999996v.9985399 1.9999951h2.000006v-1.9999951l2-.0000049v-.998535h2v .9985399-.9985399h-.001c0-.000855.00095-.00207.001-.00293v-1.9985291c0-.5539999-.446006-.9999997-1.000006-.9999997z" fill="#629431"/><path d="m1 2.5000057v-.4999998c0-.5539999.4459999-.9999997.9999997-.9999997h17.9999943c.554 0 1 .4459998 1 .9999997v.4999998c0-.5539998-.446-.9999997-1-.9999997h-17.9999943c-.5539998 0-.9999997.4459999-.9999997.9999997z" fill="#fff" opacity=".2"/><path d="m1 20v .5c0 .554.4459999 1 .9999997 1h17.9999943c.554 0 1-.446 1-1v-.5c0 .554-.446 1-1 1h-17.9999943c-.5539998 0-.9999997-.446-.9999997-1z" opacity=".2"/><path d="m6 9.9999625c3.499999 0 6.550241 5.9999995 10.05024 5.9999995 1.53659 0 3.000007-1.585813 2.999999-3.000034-.000008-1.414205-1.463409-2.9999655-2.999999-2.9999655-3.999999 0-6.550241 6.0000005-10.05024 6.0000005" fill="none" stroke="#78c629" stroke-linecap="round" stroke-width="2"/><path d="m16 10.000038c-3.897526 0-6.500002 5.999999-10.0000009 5.999999-1.53659 0-3.0000072-1.585813-2.9999991-3.000034.0000081-1.414205 1.4634091-2.999965 2.9999991-2.999965" fill="none" stroke="#78c629" stroke-linecap="round" stroke-width="2"/><path d="m16 9c-.0047 0-.0089.00194-.01367.00195-.301666-.0028-.614787.00306-.847656.074219-2.02889.3491706-3.584601 1.873803-4.976565 3.199222-1.582914 1.507241-2.9835382 2.724609-4.162109 2.724609-.4242837 0-.9531291-.25058-1.359375-.667969-.3223911-.331234-.5307969-.743272-.6054688-1.082031-.0194228.088113-.0351558.175242-.0351562.25-.0000021.362179.2343791.914642.640625 1.332031s.9350913.667969 1.359375.667969c1.1785708 0 2.579195-1.217368 4.162109-2.724609 1.582916-1.507242 3.375982-3.275391 5.837891-3.275391.01052-.0001171.02066-.00352.03125-.00391.0097.0003453.02176.0038.03125.00391 1.112295 0 2.083363.542428 2.792969 1.271484.651811.669676 1.105034 1.528519 1.177734 2.478516.0065-.08424.0293-.16431.0293-.25-.000006-1.052029-.497423-1.999459-1.207031-2.728516-.526094-.540508-1.196425-.9756531-1.960941-1.1660152-.199029-.0930074-.499302-.1056973-.818359-.1035157-.004721-.0000195-.008946-.0019531-.013672-.0019531-.01166-.0001531-.02344.0001368-.03516 0-.0095.0001059-.01787-.0001244-.02734 0z" fill="#fff" opacity=".2"/><path d="m16 11c-.391424 0-.785372.0963-1.181641.259766-.000485-.0017-.0015-.0021-.002-.0039-.000606.0024.000581.0035 0 .0059-1.056371.436518-2.135967 1.37794-3.27539 2.46289-1.567657 1.492711-3.2195409 3.275344-5.540969 3.275344-1.1123063 0-2.0833605-.542412-2.7929688-1.271484-.6518108-.669691-1.1050463-1.528513-1.1777343-2.478516-.0064461.084238-.0292964.164313-.0292969.25-.000006 1.052042.497423 1.999443 1.2070312 2.728516.7096083.729072 1.6806625 1.271484 2.7929688 1.271484 2.3214281 0 3.973312-1.782633 5.541016-3.275391 1.344318-1.280051 2.606196-2.362354 3.84375-2.646484.196979-.03396.411108-.07127.630859-.07617.136024.0029.255457.02431.365234.04687.343552.09185.712327.309537 1.013672.619141.322387.331226.530799.743273.605469 1.082034.01943-.08811.03516-.17524.03516-.25-.000002-.362176-.234384-.914656-.640625-1.332031-.155932-.160206-.332506-.286258-.511719-.392578-.0014-.0059.0015-.0057 0-.01172-.00099.0038-.0029.0042-.0039.0078-.286295-.168944-.583722-.271471-.84376-.271471-.0043.000056-.0094.0037-.01367.0039-.007427-.000456-.013978-.003801-.021486-.0039z" opacity=".2"/></svg>