<svg height="22" width="22" xmlns="http://www.w3.org/2000/svg"><path d="m15.409776 18.625337c-4.183191 2.715645-11.0390218 2.462172-13.5905059-.63873-2.19144046-2.663333.2419498-10.1827168 4.5868366-13.5851467 4.3448873-3.40242995 8.5347493-2.2266932 11.5006123 1.4343423 2.965864 3.6610361 2.145634 9.7756734-2.496943 12.7895344z" opacity=".2"/><path d="m17 5.3102182c.874594-.6364789 1.712493-1.4574054 2.707125-1.7210348.57699-.1321685 1.113016-.1558547 1.505834.1996994.240443.3663483.624905.7537015.747897 1.2988124.105141.466.01319 1.125686-.456719 1.11817-.353166-.1189235-1.113469-.388363-1.561363-.293224-1.179976.250643-1.489256 1.087325-1.489256 1.087325z" opacity=".2"/><path d="m17 4.8102178c.874594-.6364793 1.712493-1.4574056 2.707125-1.7210351.57699-.1321685 1.113016-.1558547 1.505834.1996995.240443.3663482.624905.7537012.747897 1.2988126.105141.4659999.01319 1.1256859-.456719 1.1181699-.353166-.1189235-1.113469-.388363-1.561363-.293224-1.179976.250643-1.489256 1.087325-1.489256 1.087325z" fill="#77451f"/><path d="m20.529297 3.0058252c-.255232-.022002-.53377.016923-.822266.083008-.994631.2636293-1.832437 1.0852002-2.707031 1.7216796l.258789.3007809c.782932-.5996989 1.552343-1.2850005 2.448242-1.5224607.576991-.1321685 1.113042-.1553589 1.50586.2001953.240443.3663483.625055.753717.748047 1.2988279.0085.037615.0069.080433.0127.1201175.03792-.1993695.03119-.4256414-.0127-.6201174-.122992-.5451112-.507604-.9324797-.748047-1.298828-.196409-.1777771-.428361-.2612014-.683594-.2832031z" fill="#fff" opacity=".1"/><path d="m15.409776 18.125337c-4.183191 2.715645-11.0390218 2.462172-13.5905059-.63873-2.19144046-2.663333.2419498-10.1827153 4.5868366-13.5851452 4.3448873-3.40243004 8.5347493-2.2266932 11.5006123 1.4343423 2.965864 3.6610361 2.145634 9.7756719-2.496943 12.7895329z" fill="#ebbe63"/><path d="m11.929688 1.8886719c-1.752027-.0887591-3.6225498.5251087-5.523438 2.0136719-3.3216937 2.6011793-5.51771118 7.6016252-5.3925781 11.0058592.0908134-3.378617 2.2300832-8.0293466 5.3925781-10.5058592 4.344887-3.40243003 8.534137-2.2274418 11.5 1.4335937 1.087119 1.3419298 1.660538 3.014489 1.728516 4.7421875.033289-1.9031621-.536697-3.7710161-1.728516-5.2421875-1.668298-2.0593325-3.723957-3.3331468-5.976562-3.4472656z" fill="#fff" opacity=".2"/><path d="m10.793752 1.5000343c-.813045-.003155-1.603732.1039902-2.340929.3204789-1.1207492.4388031-2.0406951.8437589-.9932964 1.3913078 1.9860924 1.0278039 3.8573014 2.4276069 5.4767534 4.2036328 2.57665 2.8257702 4.176076 6.2123832 4.90941 9.5522932.207581 1.155029 1.216474.132924 1.630092-.290324 2.262752-2.329306 2.149372-8.0436622-1.310106-11.837614-2.030114-2.2263902-4.811705-3.3298247-7.371924-3.3397747z" opacity=".2"/><path d="m10.793752 1.0000683c-.813045-.00315502-1.603732.1039902-2.340929.3204789-1.1207492.4388031-2.0406951.8437589-.9932964 1.3913078 1.9860924 1.0278039 3.8573014 2.4276069 5.4767534 4.2036328 2.57665 2.8257694 4.176076 6.2123822 4.90941 9.5522922.207581 1.155029 1.216474.132924 1.630092-.290324 2.262752-2.329306 2.149372-8.0436612-1.310106-11.837613-2.030114-2.2263902-4.811705-3.3298247-7.371924-3.3397747z" fill="#a9622c"/><path d="m10.792969.99996618c-.813045-.003155-1.602647.10382382-2.339844.32031252-.958941.3754509-1.7599902.7276485-1.3183594 1.1640625.2345387-.2282429.7497496-.4414366 1.3183594-.6640625.737197-.2164887 1.526799-.3234675 2.339844-.3203125 2.560219.00995 5.342933 1.1134536 7.373047 3.3398438 1.88047 2.0622807 2.7653 4.6901352 2.824218 7.035156.064386-2.4650448-.808518-5.324571-2.824218-7.535156-2.030114-2.2263902-4.812828-3.3298938-7.373047-3.33984382z" fill="#fff" opacity=".1"/></svg>