<svg height="22" width="22" xmlns="http://www.w3.org/2000/svg"><path d="m2 21.5c-.554 0-1-.446-1-1v-.5c0 .554.446 1 1 1h18c .554 0 1-.446 1-1v .5c0 .554-.446 1-1 1z" opacity=".2"/><path d="m2 1c-.554 0-1 .446-1 1v18c0 .554.446 1 1 1h18c .554 0 1-.446 1-1v-14a5 5 0 0 0 -5-5z" fill="#44579d"/><path d="m3 4.5v15h3v-3.5l2.5 3.5h3.5l-5-7.5 5-7.5h-3.5l-2.5 3.5v-3.5zm13.5 0a1.5 1.5 0 0 0 -1.5 1.5 1.5 1.5 0 0 0 1.5 1.5 1.5 1.5 0 0 0 1.5-1.5 1.5 1.5 0 0 0 -1.5-1.5zm-1.5 5v10h3v-10z" opacity=".2"/><path d="m3 4v15h3v-3.5l2.5 3.5h3.5l-5-7.5 5-7.5h-3.5l-2.5 3.5v-3.5z" fill="#ffd676"/><path d="m15 9h3v10h-3z" fill="#ffd676"/><circle cx="16.5" cy="5.5" fill="#f70" r="1.5"/><path d="m2 1c-.554 0-1 .446-1 1v .5c0-.554.446-1 1-1h14a5 5 0 0 1 5 5v-.5a5 5 0 0 0 -5-5z" fill="#fff" opacity=".1"/></svg>