<svg height="22" viewBox="0 0 22 22" width="22" xmlns="http://www.w3.org/2000/svg"><path d="m11 1.5c-5.1012485-.0000087-8.9999228 4.635952-9 10 .0000772 5.364048 3.8987515 10.000008 9 10 5.101248.000008 8.999923-4.635952 9-10-.000077-5.364048-3.898752-10.0000087-9-10z" opacity=".2"/><path d="m11 1c-5.1012485-.0000088-8.9999228 4.635952-9 10 .0000772 5.364048 3.8987515 10.000008 9 10 5.101248.000008 8.999923-4.635952 9-10-.000077-5.364048-3.898752-10.0000088-9-10z" fill="#3a4b37"/><path d="m11 3.5a6.9999895 8.0001315 0 0 0 -7 8 6.9999895 8.0001315 0 0 0 7 8 6.9999895 8.0001315 0 0 0 7-8 6.9999895 8.0001315 0 0 0 -7-8zm0 3a3.9998858 4.9999448 0 0 1 4 5 3.9998858 4.9999448 0 0 1 -4 5 3.9998858 4.9999448 0 0 1 -4-5 3.9998858 4.9999448 0 0 1 4-5z" opacity=".2"/><path d="m11 3a6.9999895 8.0001315 0 0 0 -7 8 6.9999895 8.0001315 0 0 0 7 8 6.9999895 8.0001315 0 0 0 7-8 6.9999895 8.0001315 0 0 0 -7-8zm0 3a3.9998858 4.9999448 0 0 1 4 5 3.9998858 4.9999448 0 0 1 -4 5 3.9998858 4.9999448 0 0 1 -4-5 3.9998858 4.9999448 0 0 1 4-5z" fill="#a1eaa4"/><path d="m11 1c-5.1012485-.0000088-8.9999228 4.635952-9 10 .0000012.08415.00981.166225.011719.25.1198224-5.2564675 3.9670585-9.7500086 8.988281-9.75 5.021222-.0000086 8.868458 4.4935325 8.988281 9.75.00191-.083775.011718-.165851.011719-.25-.000077-5.364048-3.898752-10.0000088-9-10z" fill="#fff" opacity=".1"/><path d="m11 3a6.9999895 8.0001315 0 0 0 -7 8 6.9999895 8.0001315 0 0 0  .00977.207031 6.9999895 8.0001315 0 0 1 6.99023-7.707031 6.9999895 8.0001315 0 0 1 6.990234 7.792969 6.9999895 8.0001315 0 0 0  .009766-.292969 6.9999895 8.0001315 0 0 0 -7-8zm3.992188 8.207031a3.9998858 4.9999448 0 0 1 -3.992188 4.792969 3.9998858 4.9999448 0 0 1 -3.9921875-4.707031 3.9998858 4.9999448 0 0 0 -.0078125.207031 3.9998858 4.9999448 0 0 0 4 5 3.9998858 4.9999448 0 0 0 4-5 3.9998858 4.9999448 0 0 0 -.0078-.292969z" fill="#fff" opacity=".1"/></svg>