<svg height="22" viewBox="0 0 22 22" width="22" xmlns="http://www.w3.org/2000/svg"><circle cx="11" cy="11.5" opacity=".2" r="10"/><circle cx="11" cy="11" fill="#86c14d" r="10"/><path d="m8.5 6.0546875a6 6 0 0 0 -3.5 5.4453125 6 6 0 0 0 6 6 6 6 0 0 0 6-6 6 6 0 0 0 -3.5-5.441406v.117187a5 5 0 0 1 2.5 4.324219 5 5 0 0 1 -5 5 5 5 0 0 1 -5-5 5 5 0 0 1 2.5-4.3222655z" opacity=".1"/><path d="m8.5 5.5546875a6 6 0 0 0 -3.5 5.4453125 6 6 0 0 0 6 6 6 6 0 0 0 6-6 6 6 0 0 0 -3.5-5.441406v.117187a5 5 0 0 1 2.5 4.324219 5 5 0 0 1 -5 5 5 5 0 0 1 -5-5 5 5 0 0 1 2.5-4.3222655z" fill="#3f3f3f"/><path d="m10 14.5v5l1 2.5 1-2.5v-5l-1-3z" opacity=".2"/><path d="m10 14v5l1 3 1-3v-5l-1-3z" fill="#3f3f3f"/><path d="m11 1a10 10 0 0 0 -10 10 10 10 0 0 0  .0107422.291016 10 10 0 0 1 9.9892578-9.791016 10 10 0 0 1 9.989258 9.708985 10 10 0 0 0  .010742-.208985 10 10 0 0 0 -10-10z" fill="#fff" opacity=".1"/></svg>