<svg height="22" viewBox="0 0 22 22" width="22" xmlns="http://www.w3.org/2000/svg"><path d="m10.5 1.5a3.5 3.5 0 0 0 -3.5 3.5 3.5 3.5 0 0 0 3.5 3.5 3.5 3.5 0 0 0 3.5-3.5 3.5 3.5 0 0 0 -3.5-3.5zm-6 6a3.5 3.5 0 0 0 -3.5 3.5 3.5 3.5 0 0 0 3.5 3.5 3.5 3.5 0 0 0 3.5-3.5 3.5 3.5 0 0 0 -3.5-3.5zm12 0a3.5 3.5 0 0 0 -3.5 3.5 3.5 3.5 0 0 0 3.5 3.5 3.5 3.5 0 0 0 3.5-3.5 3.5 3.5 0 0 0 -3.5-3.5zm-6 6a3.5 3.5 0 0 0 -3.5 3.5 3.5 3.5 0 0 0 3.5 3.5 3.5 3.5 0 0 0 3.5-3.5 3.5 3.5 0 0 0 -3.5-3.5z" opacity=".2"/><path d="m14 4.5a3.5 3.5 0 0 1 -3.5 3.5 3.5 3.5 0 0 1 -3.5-3.5 3.5 3.5 0 0 1 3.5-3.5 3.5 3.5 0 0 1 3.5 3.5z" fill="#8685b9"/><path d="m14 16.5a3.5 3.5 0 0 1 -3.5 3.5 3.5 3.5 0 0 1 -3.5-3.5 3.5 3.5 0 0 1 3.5-3.5 3.5 3.5 0 0 1 3.5 3.5z" fill="#6560e0"/><path d="m16.5 14a3.5 3.5 0 0 1 -3.5-3.5 3.5 3.5 0 0 1 3.5-3.5 3.5 3.5 0 0 1 3.5 3.5 3.5 3.5 0 0 1 -3.5 3.5z" fill="#6560e0"/><path d="m4.5 14a3.5 3.5 0 0 1 -3.5-3.5 3.5 3.5 0 0 1 3.5-3.5 3.5 3.5 0 0 1 3.5 3.5 3.5 3.5 0 0 1 -3.5 3.5z" fill="#8685b9"/><path d="m10.5 1a3.5 3.5 0 0 0 -3.5 3.5 3.5 3.5 0 0 0  .0117188.2246094 3.5 3.5 0 0 1 3.4882812-3.2246094 3.5 3.5 0 0 1 3.488281 3.2753906 3.5 3.5 0 0 0  .011719-.2753906 3.5 3.5 0 0 0 -3.5-3.5zm-6 6a3.5 3.5 0 0 0 -3.5 3.5 3.5 3.5 0 0 0  .0117188.224609 3.5 3.5 0 0 1 3.4882812-3.224609 3.5 3.5 0 0 1 3.4882812 3.275391 3.5 3.5 0 0 0  .0117188-.275391 3.5 3.5 0 0 0 -3.5-3.5z" fill="#fff" opacity=".2"/><path d="m16.5 7a3.5 3.5 0 0 0 -3.5 3.5 3.5 3.5 0 0 0  .011719.224609 3.5 3.5 0 0 1 3.488281-3.224609 3.5 3.5 0 0 1 3.488281 3.275391 3.5 3.5 0 0 0  .011719-.275391 3.5 3.5 0 0 0 -3.5-3.5zm-6 6a3.5 3.5 0 0 0 -3.5 3.5 3.5 3.5 0 0 0  .0117188.224609 3.5 3.5 0 0 1 3.4882812-3.224609 3.5 3.5 0 0 1 3.488281 3.275391 3.5 3.5 0 0 0  .011719-.275391 3.5 3.5 0 0 0 -3.5-3.5z" fill="#fff" opacity=".1"/></svg>