<svg height="22" viewBox="0 0 16 16" width="22" xmlns="http://www.w3.org/2000/svg"><path d="m3.8863635 2.1818183c-.9443483 0-1.7045453.7601967-1.7045453 1.7045454v8.2272733c0 .944348.760197 1.704545 1.7045453 1.704545h8.2272735c.944348 0 1.704545-.760197 1.704545-1.704545v-8.2272733c0-.9443487-.760197-1.7045455-1.704545-1.7045455zm4.1136365 2.4935065c1.8361353 0 3.324676 1.48854 3.324676 3.324675 0 1.836136-1.4885407 3.3246762-3.324676 3.3246762h-3.3246753v-3.3246762c0-1.836135 1.4885395-3.324675 3.3246753-3.324675zm0 1.662338c-.9181099 0-1.6623375.744253-1.6623375 1.662337 0 .918085.7442538 1.662338 1.6623375 1.662338s1.6623375-.744253 1.6623375-1.662338c0-.918084-.7442538-1.662337-1.6623375-1.662337z" fill="#5c616c"/></svg>