<svg height="24" width="24" xmlns="http://www.w3.org/2000/svg"><path d="m11.999958 2.500084a9.999958 9.999958 0 0 0 -9.9999581 9.999958 9.999958 9.999958 0 0 0 9.9999581 9.999958 9.999958 9.999958 0 0 0 9.999958-9.999958 9.999958 9.999958 0 0 0 -9.999958-9.999958z" opacity=".2"/><path d="m11.999958 2.0000861a9.999958 9.999958 0 0 0 -9.9999581 9.9999579 9.999958 9.999958 0 0 0 9.9999581 9.999958 9.999958 9.999958 0 0 0 9.999958-9.999958 9.999958 9.999958 0 0 0 -9.999958-9.9999579z" fill="#ffbf23"/><path d="m12 6.5000503a4 5.9999748 0 0 1 4 5.9999747 4 5.9999748 0 0 1 -4 5.999975 4 5.9999748 0 0 1 -4.0000001-5.999975 4 5.9999748 0 0 1 4.0000001-5.9999747z" opacity=".2"/><path d="m12 6.0000693a4 5.9999748 0 0 1 4 5.9999747 4 5.9999748 0 0 1 -4 5.999975 4 5.9999748 0 0 1 -4.0000001-5.999975 4 5.9999748 0 0 1 4.0000001-5.9999747z" fill="#fff"/><path d="m12 12.499987.90625 3.441406.90625 3.44336 1.449219-1.449219 4.203125 4.203125c.481788.481788 1.256493.481788 1.738281 0l .435547-.435547c.481788-.481788.481788-1.256493 0-1.738281l-4.203125-4.203125 1.449219-1.449219-3.44336-.90625z" opacity=".2"/><path d="m12 12 .90625 3.441406.90625 3.44336 1.449219-1.449219 4.203125 4.203125c.481788.481788 1.256493.481788 1.738281 0l .435547-.435547c.481788-.481788.481788-1.256493 0-1.738281l-4.203125-4.203125 1.449219-1.449219-3.44336-.90625z" fill="#336f33" transform="matrix(1.00000001 0 0 1.00000001 -.000001 0)"/><path d="m11.999958 2.0000861a9.999958 9.999958 0 0 0 -9.9999581 9.9999579 9.999958 9.999958 0 0 0  .010742.208984 9.999958 9.999958 0 0 1 9.9892159-9.708944 9.999958 9.999958 0 0 1 9.989216 9.790974 9.999958 9.999958 0 0 0  .01074-.291014 9.999958 9.999958 0 0 0 -9.999958-9.9999579z" fill="#fff" opacity=".2"/></svg>