<svg height="32" width="32" xmlns="http://www.w3.org/2000/svg"><path d="m7.4726562 1.8984375c-3.0886508 0-5.5742187 2.4855679-5.5742187 5.5742187v8.9160158h28.2031245v-8.9160158c.000001-3.0886508-2.485567-5.5742187-5.574218-5.5742187z" fill="#8e8e8e" fill-rule="evenodd"/><g stroke-width=".634941"><path d="m7.107842 6.79661h17.789534v10.657478h-17.789534z" fill="#e6e6e6"/><path d="m8.886795 11.059602h4.447383v3.197244h-4.447383z" fill="#808080"/><path d="m18.671038 11.059602h4.447383v3.197244h-4.447383z" fill="#808080"/></g><path d="m30.101562 16.388672h-28.2031245v8.138672c0 3.088651 2.4855679 5.574218 5.5742187 5.574218h17.0546878c3.088651.000001 5.574218-2.485567 5.574218-5.574218z" fill="#4d4d4d" fill-rule="evenodd"/><rect fill="#808080" height="2.131496" rx="1.065748" stroke-width=".634941" width="17.051966" x="7.476625" y="20.651331"/><rect fill="#808080" height="2.131496" rx="1.065748" stroke-width=".634941" width="12.788974" x="9.608122" y="24.914322"/></svg>