<svg height="22" width="22" xmlns="http://www.w3.org/2000/svg"><path d="m4 1.5c-.554 0-1 .446-1 1v18c0 .554.446 1 1 1h14c .554 0 1-.446 1-1v-13l-5.5-.5-.5-5.5z" opacity=".2"/><path d="m4 1c-.554 0-1 .446-1 1v18c0 .554.446 1 1 1h14c .554 0 1-.446 1-1v-13l-5.5-.5-.5-5.5z" fill="#e4e4e4"/><path d="m13 1.5v5c0 .5523.44772 1 1 1h5z" opacity=".2"/><path d="m4 1c-.554 0-1 .446-1 1v .5c0-.554.446-1 1-1h9l5.5 5.5h.5l-6-6z" fill="#fff" opacity=".2"/><path d="m13 1v5c0 .5523.44772 1 1 1h5z" fill="#fafafa"/><path d="m10.5 10a4.5 4.5 0 0 0 -4.5 4.5 4.5 4.5 0 0 0 4.5 4.5 4.5 4.5 0 0 0  .5-.03v-1.5127a3 3 0 0 1 -.5.043 3 3 0 0 1 -3-3 3 3 0 0 1 3-3 3 3 0 0 1  .5.04492v-1.5117a4.5 4.5 0 0 0 -.5-.0332z" fill="#0180cd"/><path d="m14 11v1h-1v1h1v1h1v-1h1v-1h-1v-1z" fill="#01559d"/><path d="m14 15v1h-1v1h1v1h1v-1h1v-1h-1v-1z" fill="#01559d"/></svg>