<svg height="22" width="22" xmlns="http://www.w3.org/2000/svg"><path d="m4 1.5c-.554 0-1 .446-1 1v18c0 .554.446 1 1 1h14c .554 0 1-.446 1-1v-13l-5.5-.5-.5-5.5z" opacity=".2"/><path d="m4 1c-.554 0-1 .446-1 1v18c0 .554.446 1 1 1h14c .554 0 1-.446 1-1v-13l-5.5-.5-.5-5.5z" fill="#e4e4e4"/><path d="m4 1c-.554 0-1 .446-1 1v .5c0-.554.446-1 1-1h9l5.5 5.5h.5l-6-6z" fill="#fff" opacity=".2"/><path d="m13 1.5v5c0 .5523.44772 1 1 1h5z" opacity=".2"/><path d="m13 1v5c0 .5523.44772 1 1 1h5z" fill="#fafafa"/><path d="m13 16s-.000002 1-2 1-2-2.0902-2-3.5c.000001-1.4098 0-3.5 2-3.5s2 1 2 1" fill="none" stroke="#0180cd" stroke-linecap="square" stroke-width="2"/></svg>