<svg height="22" width="22" xmlns="http://www.w3.org/2000/svg"><g transform="translate(-1 -1)"><path d="m12 2.5c-5.54 0-10 4.46-10 10s4.46 10 10 10 10-4.46 10-10-4.46-10-10-10zm0 6a4 4 0 0 1 4 4 4 4 0 0 1 -4 4 4 4 0 0 1 -4-4 4 4 0 0 1 4-4z" opacity=".2"/><path d="m12 7a5 5 0 0 0 -5 5 5 5 0 0 0 5 5 5 5 0 0 0 5-5 5 5 0 0 0 -5-5zm0 3c1.1045 0 2 .8955 2 2s-.8955 2-2 2-2-.8955-2-2c0-1.1046.89545-2 2-2z" fill="#848484"/><path d="m12 2c-5.54 0-10 4.46-10 10s4.46 10 10 10 10-4.46 10-10-4.46-10-10-10zm0 6a4 4 0 0 1 4 4 4 4 0 0 1 -4 4 4 4 0 0 1 -4-4 4 4 0 0 1 4-4z" fill="#e4e4e4"/><path d="m12 2c5.535 0 9.991 4.46 9.991 10 0 .08394-.004.16657-.0058.25-.132-5.423-4.534-9.75-9.985-9.75s-9.853 4.327-9.985 9.75c-.002-.08343-.00584-.16606-.00584-.25 0-5.54 4.456-10 9.991-10zm1.9728 10.25c.01044.08276.02538.16442.02538.25 0 1.1046-.8946 2-1.9982 2s-1.9982-.89545-1.9982-2c0-.08559.01494-.16724.02538-.25.12409.9853.95475 1.75 1.9728 1.75s1.8487-.7647 1.9728-1.75z" fill="#fff" opacity=".2"/></g></svg>