<svg height="17pt" viewBox="0 0 17 17" width="17pt" xmlns="http://www.w3.org/2000/svg"><path d="m3.96875 1.007812h9.0625c1.632812 0 2.960938 1.328126 2.960938 2.960938v9.0625c0 1.632812-1.328126 2.960938-2.960938 2.960938h-9.0625c-1.632812 0-2.960938-1.328126-2.960938-2.960938v-9.0625c0-1.632812 1.328126-2.960938 2.960938-2.960938zm0 0" fill="#e6e6e6" fill-rule="evenodd"/><path d="m8.492188 2.953125c-1.0625 0-1.980469.988281-1.980469 2.21875 0 2.773437-1.585938 3.050781-1.585938 4.992187 0 2.144532 1.597657 3.882813 3.566407 3.882813s3.566406-1.738281 3.566406-3.882813c0-1.941406-1.585938-2.21875-1.585938-4.992187 0-1.230469-.917968-2.21875-1.980468-2.21875zm0 0" fill="#5095ab"/><path d="m8.492188 6.121094c-.710938 0-1.1875.601562-1.1875 1.347656 0 1.683594-1.191407 1.855469-1.191407 3.03125 0 1.304688 1.066407 2.359375 2.378907 2.359375s2.378906-1.054687 2.378906-2.359375c0-1.175781-1.191406-1.347656-1.191406-3.03125 0-.746094-.476563-1.347656-1.1875-1.347656zm0 0" fill="#fff"/><path d="m6.714844 14.039062c-.117188-.015624-.222656-.054687-.457032-.152343-.34375-.148438-.503906-.199219-1.132812-.339844-.316406-.074219-.433594-.105469-.707031-.195313-.097657-.03125-.230469-.070312-.292969-.089843-.167969-.046875-.214844-.066407-.277344-.117188-.085937-.066406-.125-.167969-.109375-.285156.011719-.070313.035157-.140625.105469-.289063.097656-.199218.332031-.269531.34375-.464843.011719-.113281.003906-.246094-.027344-.511719-.015625-.160156-.019531-.21875-.019531-.320312 0-.109376 0-.03125.011719-.074219.042968-.15625.074218-.246094.226562-.285157.042969-.011718-.050781-.015624.15625-.019531.125-.003906.199219-.007812.214844-.011719.089844-.019531.152344-.050781.210938-.109374.058593-.054688.097656-.347657.171874-.480469.117188-.203125.34375-.199219.53125-.207031.050782.011718.070313.019531.125.050781.058594.035156.074219.046875.125.101562.128907.136719.191407.21875.476563.652344.226563.339844.292969.453125.386719.613281.097656.175782.277344.457032.34375.539063.011718.015625.078125.101562.152344.195312.074218.09375.140624.179688.148437.191407.136719.191406.234375.414062.269531.632812.007813.074219.011719.089844.003906.175781-.007812.109375-.015624.160157-.027343.183594-.003907.007813-.015625.035156-.023438.058594-.105469.292969-.367187.511719-.667969.558593-.066406.011719-.191406.011719-.261718 0zm0 0" fill="#eab108"/><path d="m11.351562 13.910156c.089844-.066406.164063-.136718.3125-.3125.222657-.261718.21875-.367187.683594-.738281.230469-.1875.3125-.261719.503906-.441406.070313-.066407.160157-.15625.207032-.195313.117187-.109375.148437-.140625.179687-.207031.042969-.089844.03125-.1875-.027343-.273437-.039063-.054688-.089844-.101563-.210938-.195313-.160156-.121094-.207031-.226563-.296875-.378906-.054687-.085938.015625-.3125-.070313-.542969-.054687-.136719-.074218-.183594-.117187-.265625-.042969-.089844-.054687-.105469-.078125-.132813-.101562-.113281-.214844-.148437-.355469-.121093-.039062.011719-.0625.019531-.234375.101562-.105468.046875-.203125.089844-.21875.09375-.078125.019531-.148437.019531-.21875-.003906-.070312-.019531-.125.125-.242187.046875-.078125-.050781-.164063-.117188-.226563-.132812-.085937-.023438-.085937-.023438-.164062-.015626-.078125.011719-.132813.03125-.195313.082032-.039062.027344-.050781.042968-.085937.09375-.03125.050781-.039063.066406-.058594.132812-.050781.160156-.066406.253906-.125.71875-.042969.371094-.054688.488282-.066406.652344-.007813.183594-.039063.484375-.058594.582031-.003906.015625-.027344.113281-.046875.21875-.023437.105469-.042969.203125-.042969.214844-.035156.210937-.023437.429687.039063.621094.019531.066406.027343.078125.066406.144531.054687.085938.082031.121094.101563.136719.007812.007812.027343.023437.042968.039062.207032.191407.515625.265625.785156.179688.058594-.015625.164063-.066407.21875-.105469zm0 0" fill="#eab108"/><path d="m8.492188 4.933594c0 .4375-.355469.792968-.792969.792968s-.792969-.355468-.792969-.792968.355469-.792969.792969-.792969.792969.355469.792969.792969zm0 0" fill="#fff"/><path d="m8.09375 4.933594c0 .21875-.175781.394531-.394531.394531s-.394531-.175781-.394531-.394531.175781-.398438.394531-.398438.394531.179688.394531.398438zm0 0" fill="#323232"/><path d="m9.679688 5.921875c0 .769531-.53125 1.390625-1.1875 1.390625s-1.1875-.621094-1.1875-1.390625zm0 0" fill="#f77d00"/><path d="m10.078125 4.933594c0 .4375-.355469.792968-.792969.792968s-.792968-.355468-.792968-.792968.355468-.792969.792968-.792969.792969.355469.792969.792969zm0 0" fill="#fff"/><path d="m9.679688 4.933594c0 .21875-.175782.394531-.394532.394531s-.398437-.175781-.398437-.394531.179687-.398438.398437-.398438.394532.179688.394532.398438zm0 0" fill="#323232"/><path d="m9.679688 5.988281c0 .132813-.53125.925781-1.1875.925781s-1.1875-.792968-1.1875-.925781c0-.363281.53125-.660156 1.1875-.660156s1.1875.296875 1.1875.660156zm0 0" fill="#eab108"/><path d="m11.445312 11.292969c-.457031 0-.460937-.378907-.550781-.824219-.101562-.5-.167969-.785156.628907-.828125.6875-.226563.792968 1.625-.078126 1.652344zm0 0" fill="#5095ab"/></svg>