<svg height="17pt" viewBox="0 0 17 17" width="17pt" xmlns="http://www.w3.org/2000/svg"><path d="m3.96875 1.007812h9.0625c1.632812 0 2.960938 1.328126 2.960938 2.960938v9.0625c0 1.632812-1.328126 2.960938-2.960938 2.960938h-9.0625c-1.632812 0-2.960938-1.328126-2.960938-2.960938v-9.0625c0-1.632812 1.328126-2.960938 2.960938-2.960938zm0 0" fill="#8e8e8e" fill-rule="evenodd"/><path d="m11.546875 12.738281v-7c0-.277343-.226563-.5-.507813-.5h-5.078124c-.28125 0-.507813.222657-.507813.5v7c0 .273438.226563.5.507813.5h5.078124c.28125 0 .507813-.226562.507813-.5zm0 0" fill="#474747"/><path d="m13.453125 11.617188v-6.664063c0-.265625-.222656-.476563-.496094-.476563h-8.914062c-.273438 0-.496094.210938-.496094.476563v6.664063c0 .265624.222656.476562.496094.476562h8.914062c.273438 0 .496094-.210938.496094-.476562zm0 0" fill="#474747"/><path d="m12.691406 11.332031v-6.09375h-8.382812v6.09375zm0 0" fill="#dc4f47"/><path d="m6.886719 7.277344h2.523437c.191406 0 .191406.1875.191406.1875v1.945312c0 .1875-.191406.1875-.191406.1875h-2.523437s-.1875 0-.1875-.1875v-1.945312s0-.1875.1875-.1875zm3.875.289062v1.886719l-1.160157-1.015625zm0 0" fill="#fff"/></svg>