<svg height="22" width="22" xmlns="http://www.w3.org/2000/svg"><path d="m8.5 5.5c-2.5464-.0062-4.5 2.067-4.5 4 .0019.1674.0193.3345.052.5h8.897c.03235-.1655.0494-.3326.051-.5-.0013-.33879-.06578-.67563-.1915-1h7.1915v-1h-7.8135c-.84-.9383-1.14-1.9938-3.686-2z" opacity=".2"/><path d="m8.5 5c-2.5464-.0062-4.5 2.067-4.5 4 .0019.1674.0193.3345.052.5h8.897c.032-.1655.049-.3326.051-.5-.001-.3388-.066-.6756-.192-1h7.192v-1h-7.814c-.84-.9383-1.14-1.9938-3.686-2z" fill="#afafb1"/><rect fill="#8e8e8e" height="6" rx="1" width="19" x="1" y="9"/><path d="m1 14v .5c0 .554.446 1 1 1h17c .554 0 1-.446 1-1v-.5c0 .554-.446 1-1 1h-17c-.554 0-1-.446-1-1z" opacity=".2"/><rect fill="#4f4f4f" height="5" rx="2.5" width="17" x="2" y="13"/><g opacity=".2" stroke-width=".5"><circle cx="4.5" cy="16" r="1.5"/><circle cx="8.5" cy="16" r="1.5"/><circle cx="12.5" cy="16" r="1.5"/><circle cx="16.5" cy="16" r="1.5"/></g><g fill="#c4c4c4"><circle cx="4.5" cy="15.5" r="1.5"/><circle cx="8.5" cy="15.5" r="1.5"/><circle cx="12.5" cy="15.5" r="1.5"/><circle cx="16.5" cy="15.5" r="1.5"/></g><path d="m2.0127 15.75c-.0081.082-.0127.166-.0127.25 0 1.385 1.115 2.5 2.5 2.5h12c1.385 0 2.5-1.115 2.5-2.5 0-.084-.004-.168-.012-.25-.126 1.266-1.188 2.25-2.488 2.25h-12c-1.3004 0-2.3624-.984-2.4873-2.25z" opacity=".2"/><path d="m4.5 13c-1.385 0-2.5 1.115-2.5 2.5 0 .084.0046.168.0127.25.1249-1.266 1.1869-2.25 2.4873-2.25h12c1.3005 0 2.3625.9835 2.4875 2.25.008-.082.012-.166.012-.25 0-1.385-1.115-2.5-2.5-2.5h-12z" fill="#fff" opacity=".1"/><path d="m2 9c-.554 0-1 .446-1 1v .5c0-.554.446-1 1-1h17c .554 0 1 .446 1 1v-.5c0-.554-.446-1-1-1z" fill="#fff" opacity=".1"/></svg>