<svg height="22" width="22" xmlns="http://www.w3.org/2000/svg"><path d="m21 11a10 10 0 0 1 -10 10 10 10 0 0 1 -10-10 10 10 0 0 1 10-10 10 10 0 0 1 10 10z" fill="#4f4f4f"/><path d="m11 1a10 10 0 0 0 -10 10 10 10 0 0 0  .01075.291 10 10 0 0 1 9.989-9.791 10 10 0 0 1 9.989 9.709 10 10 0 0 0  .011-.209 10 10 0 0 0 -10-10z" fill="#fff" opacity=".1"/><path d="m20.99 11.209a10 10 0 0 1 -9.99 9.791 10 10 0 0 1 -9.989-9.709 10 10 0 0 0 -.011.209 10 10 0 0 0 10 10 10 10 0 0 0 10-10 10 10 0 0 0 -.0105-.291z" opacity=".2"/><path d="m11 4c-3.8596 0-7 3.1404-7 7s3.1404 7 7 7 7-3.1404 7-7-3.1404-7-7-7zm0 1.0742c3.2794 0 5.9258 2.6463 5.9258 5.9258 0 3.2794-2.6463 5.9258-5.9258 5.9258-3.2794 0-5.9258-2.6463-5.9258-5.9258 0-2.4773 1.5118-4.5916 3.6641-5.4785-.1234.1089-.2499.2342-.3809.3765-.2307.2507-.4452.5125-.5625.7305-.2462.4579-.4191 1.1619-.4179 1.6914.001.44459.10999.98898.2793 1.4121.046.11497.0913.24351.22461.32617.13327.0827.24604.0806.41406.0996.15941.018.46061.0862.60742.13672 1.4107.48534 2.0738 2.106 1.4121 3.457-.44631.91136-1.5057 1.5082-2.457 1.4004-.11401-.0129-.19766-.02-.26758-.0195-.0349.00024-.0598-.003-.12109.0156-.0153.005-.0339.0113-.0586.0254-.0124.007-.0424.0288-.043.0293-.00058.00051-.0465.0522-.0469.0527-.00035.00054-.0351.0854-.0351.0859-.00013.00058-.004.0931-.004.0937.0001.00062.0231.0716.0234.0723.00032.00066.0199.0349.0293.0469.0751.0961.10096.0821.13282.0957.0319.0136.0637.0254.10156.0371.0757.0233.17414.0479.29883.0762.50152.1141 1.2605.0917 1.7441-.0566l.39648-.12305-.0918-.0918c.615-.26736 1.2705-.64912 1.6191-1.1387l.19531-.27344-.19141-.57617c-.50731-1.535.39525-3.0487 1.9707-3.3145 1.1214-.18915 2.3249.50933 2.7324 1.5938.0269.0717.0458.12647.0625.16797.008.0207.0168.0383.0254.0566.004.009.008.0182.0156.0312.004.007.008.0134.0156.0234.007.01.0365.0405.0371.041.00031.00028.0427.033.043.0332.00027.00016.0896.0312.0898.0312.00024.00004.13261-.0155.13281-.0156.00021-.00008.0975-.072.0977-.0723.00017-.00021.037-.0622.0371-.0625.00014-.00033.011-.0302.0137-.041.005-.0217.007-.0342.008-.0449.003-.0429.00018-.0537-.002-.0723-.004-.0371-.0107-.0794-.0195-.13477-.112-.705-.465-1.354-1.02-1.902-.58-.5737-1.275-.9075-2.111-1.0195-.1256-.0168-.22033-.0418-.35547.008-.13514.0494-.20228.16004-.25195.24414-.0949.16068-.51594.58157-.77344.74609-.717.45811-1.8999.46-2.6191.002-.8372-.5333-1.3157-1.5734-1.1641-2.5019.0848-.519.3087-.9707.6739-1.3574.0726-.0769.1288-.1374.1718-.1856s.0684-.0722.10351-.13281c.009-.0152.0208-.0337.0313-.0723.003-.01.004-.0198.006-.0332s.002-.0483.002-.0488c-.00003-.00051-.0116-.0621-.0117-.0625-.00014-.00042-.0349-.0719-.0352-.0723-.00016-.00023-.0217-.0218-.0391-.0391.50791-.14119 1.0401-.22266 1.5938-.22266z" fill="#fff"/></svg>