<svg height="22" width="22" xmlns="http://www.w3.org/2000/svg"><rect fill="#f58800" height="20" rx="1" transform="matrix(0 -1 -1 0 0 0)" width="20" x="-21" y="-21"/><path d="m6 14.5 5-8 5 8" fill="none" stroke="#3f3f3f"/><path d="m1 2.5v-.5c0-.554.446-1 1-1h18c .554 0 1 .446 1 1v .5c0-.554-.446-1-1-1h-18c-.554 0-1 .446-1 1z" fill="#fff" opacity=".2"/><path d="m1 20v .5c0 .554.446 1 1 1h18c .554 0 1-.446 1-1v-.5c0 .554-.446 1-1 1h-18c-.554 0-1-.446-1-1z" opacity=".2"/><path d="m9 4.5c-.554 0-1 .446-1 1v3c0 .554.446 1 1 1h4c .554 0 1-.446 1-1v-3c0-.554-.446-1-1-1zm-5 8c-.554 0-1 .446-1 1v3c0 .554.446 1 1 1h4c .554 0 1-.446 1-1v-3c0-.554-.446-1-1-1zm10 0c-.554 0-1 .446-1 1v3c0 .554.446 1 1 1h4c .554 0 1-.446 1-1v-3c0-.554-.446-1-1-1z" opacity=".2"/><path d="m9 4c-.554 0-1 .446-1 1v3c0 .554.446 1 1 1h4c .554 0 1-.446 1-1v-3c0-.554-.446-1-1-1zm-5 8c-.554 0-1 .446-1 1v3c0 .554.446 1 1 1h4c .554 0 1-.446 1-1v-3c0-.554-.446-1-1-1zm10 0c-.554 0-1 .446-1 1v3c0 .554.446 1 1 1h4c .554 0 1-.446 1-1v-3c0-.554-.446-1-1-1z" fill="#fff"/></svg>