<svg height="22" width="22" xmlns="http://www.w3.org/2000/svg"><g transform="matrix(0 -1 -1 0 0 0)"><rect fill="#8e8e8e" height="12" rx="1" width="16" x="-20" y="-17"/><rect fill="#3f3f3f" height="20" rx="1" width="16" x="-18" y="-21"/><path d="m-16.5-19h12v16h-12z" opacity=".2"/></g><path d="m2 2c-.554 0-1 .446-1 1v .5c0-.554.446-1 1-1h18c .554 0 1 .446 1 1v-.5c0-.554-.446-1-1-1z" fill="#fff" opacity=".1"/><path d="m5 19v .5c0 .554.446 1 1 1h10c .554 0 1-.446 1-1v-.5c0 .554-.446 1-1 1h-10c-.554 0-1-.446-1-1z" opacity=".2"/><path d="m1 17v .5c0 .554.446 1 1 1h18c .554 0 1-.446 1-1v-.5c0 .554-.446 1-1 1h-18c-.554 0-1-.446-1-1z" opacity=".2"/><path d="m-16-19h12v16h-12z" fill="#2584d4" transform="matrix(0 -1 -1 0 0 0)"/><rect height="10" opacity=".2" rx="1" width="6" x="4" y="5.5"/><rect fill="#5ebae6" height="10" rx="1" width="6" x="4" y="5"/><rect height="4" opacity=".2" rx="1" width="6" x="12" y="5.5"/><rect fill="#5ebae6" height="4" rx="1" width="6" x="12" y="5"/><rect height="4" opacity=".2" rx="1" width="6" x="12" y="11.5"/><rect fill="#5ebae6" height="4" rx="1" width="6" x="12" y="11"/><g fill="#fff"><path d="m5 5c-.554 0-1 .446-1 1v .5c0-.554.446-1 1-1h4c .554 0 1 .446 1 1v-.5c0-.554-.446-1-1-1z" opacity=".1"/><path d="m13 5c-.554 0-1 .446-1 1v .5c0-.554.446-1 1-1h4c .554 0 1 .446 1 1v-.5c0-.554-.446-1-1-1z" opacity=".1"/><path d="m13 11c-.554 0-1 .446-1 1v .5c0-.554.446-1 1-1h4c .554 0 1 .446 1 1v-.5c0-.554-.446-1-1-1z" opacity=".1"/></g></svg>