<svg height="22" width="22" xmlns="http://www.w3.org/2000/svg"><path d="m2.1111 2.5c-.61555 0-1.1111.63445-1.1111 1.25v12.5c0 .6155.49558 1.2434 1.1111 1.25h9.3889l2.5 3 2.5-3h3.3889c.616 0 1.111-.634 1.111-1.25v-12.5c0-.6155-.495-1.2499-1.111-1.2499z" opacity=".2"/><path d="m2.1111 2c-.61555 0-1.1111.63445-1.1111 1.25v12.5c0 .6155.49558 1.2434 1.1111 1.25h9.3889l2.5 3 2.5-3h3.3889c.616 0 1.111-.634 1.111-1.25v-12.5c0-.6155-.495-1.2499-1.111-1.2499z" fill="#8e8e8e"/><path d="m2.1114 2c-.6156 0-1.1113.63445-1.1113 1.25v.5c0-.61555.49575-1.25 1.1113-1.25h17.777c.6155 0 1.1115.63445 1.1115 1.25v-.5c0-.61555-.496-1.25-1.1115-1.25z" fill="#fff" opacity=".1"/><path d="m15.042923 13.493539-1.999875-.99994m-1.999872-6.9995592c2.399528 0 1.999875 1.9998754 1.999875 3.9997472 0 1.999876.355556 4.060848-1.999875 3.999752-2.3484394 0-1.999872-1.999876-1.999872-3.999752 0-1.9998718-.4354231-3.9997472 1.999872-3.9997472" fill="none" opacity=".2" stroke="#000" stroke-linecap="round" stroke-width="1.999874"/><path d="m15.042923 12.993539-1.999875-.99994m-1.999872-6.9995583c2.399528 0 1.999875 1.9998754 1.999875 3.999747 0 1.9998753.355556 4.0608473-1.999875 3.9997513-2.3484394 0-1.999872-1.999876-1.999872-3.9997513 0-1.9998716-.4354231-3.999747 1.999872-3.999747" fill="none" stroke="#fff" stroke-linecap="round" stroke-width="1.999874"/></svg>