<svg height="22" width="22" xmlns="http://www.w3.org/2000/svg"><path d="m1.0200925 11.25c-.00205.0835-.00585.166-.00585.25 0 5.54 4.46 10 9.9999995 10 5.54 0 10-4.46 10-10 0-.08394-.0038-.16657-.0059-.25-.132 5.423-4.538 9.75-9.994 9.75-5.4559995 0-9.8619995-4.327-9.9939995-9.75z" opacity=".2"/><rect fill="#307ada" height="20" rx="10" transform="matrix(0 -1 -1 0 0 0)" width="20" x="-21" y="-21.01"/><path d="m11.014242 1c-5.5399995 0-9.9999995 4.46-9.9999995 10 0 .084.0038.1665.00585.25.13235-5.423 4.53815-9.75 9.9939995-9.75 5.45585 0 9.862 4.327 9.994 9.75.002-.0835.006-.166.006-.25 0-5.54-4.46-10-10-10z" fill="#fff" opacity=".1"/><path d="m11.014242 4c-3.8659995 0-6.9999995 3.134-6.9999995 7s3.134 7 6.9999995 7c3.866 0 7-3.134 7-7s-3.134-7-7-7z" fill="#3f3f3f"/><path d="m1.03 11.500249h6.9842425l1.9999995-4.9999985 2 9.9999985 2-5h6.985758" style="opacity:.2;fill:none;stroke:#000;stroke-width:2;stroke-linecap:round;stroke-linejoin:round"/><path d="m1.03 11.000249h6.9842425l1.9999995-4.9999997 2 9.9999997 2-5h6.985758" fill="none" stroke="#22d3ff" stroke-linecap="round" stroke-linejoin="round" stroke-width="2"/></svg>