<svg height="22" viewBox="0 0 22 22" width="22" xmlns="http://www.w3.org/2000/svg"><g transform="translate(0 -1030.3622)"><g fill-rule="evenodd"><path d="m9.793797 1031.8622s-.9450922 1.4415.554884 2.1686c2.51916 1.221 2.425523 1.8314 2.425523 1.8314s.746942-1.7862-.476224-2.8284c-1.223165-1.0422-2.504183-1.1716-2.504183-1.1716z" opacity=".2"/><path d="m2.7396785 1046.6443c-3.62722907-5.11-.4567516-8.665-.4567516-8.665s-.1721802 1.2587.4164753 1.3789c.5886557.1201.5095136-.6569.4722053-1.969-.037308-1.3121.7791089-1.9579.7791089-1.9579s.1759874 2.6531 2.0803232 1.7834c1.9043363-.8697.3514627-3.3525.3514627-3.3525s1.8722043.063 3.4277057 2.1999c1.236955 1.6991 4.008988 2.626 3.732486.7716s1.299624-1.8707 1.299624-1.8707-.566764 1.1492 2.398192 3.081c2.350511 1.5315 3.601317 4.8064 2.119624 8.4743l-.54288 1.3439" opacity=".2"/><path d="m2.7396785 1046.1443c-3.62722907-5.11-.4567516-8.665-.4567516-8.665s-.1721802 1.2588.4164753 1.3789c.5886557.1202.5095136-.6569.4722053-1.9689-.037308-1.3121.7791089-1.958.7791089-1.958s.1759874 2.6531 2.0803232 1.7834c1.9043363-.8697.3514627-3.3525.3514627-3.3525s1.8722043.063 3.4277057 2.2c1.236955 1.6991 4.008988 2.6259 3.732486.7716-.276502-1.8544 1.299624-1.8707 1.299624-1.8707s-.566764 1.1492 2.398192 3.081c2.350511 1.5314 3.601317 4.8064 2.119624 8.4742l-.54288 1.3439" fill="#ff8a3c"/><path d="m6.3828148 1033.3622s.129985.2199.2685546.5361c.5482412.092 1.9336883.4808 3.1591816 2.1641 1.236955 1.6991 4.008925 2.6258 3.732423.7715-.0033-.022-.0031-.041-.0059-.062-.226002 1.2305-2.604221.3327-3.726564-1.209-1.5555009-2.1367-3.4277352-2.2002-3.4277352-2.2002zm8.4599642 1.1006s-1.475348.021-1.31543 1.709c.142547-1.1772 1.271566-1.2065 1.303711-1.2071-.06867-.3244.01172-.5019.01172-.5019zm-10.8916059.4687s-.8166057.6459-.7792972 1.958c.00338.119.00525.2085.00879.3184.040639-1.1851.7705082-1.7764.7705082-1.7764s.1757432 2.6529 2.080079 1.7832c.8394089-.3833 1.0065874-1.0798.9316409-1.7392-.056014.4903-.3041721.9527-.9316409 1.2392-1.9043358.8697-2.080079-1.7832-2.08008-1.7832zm10.8847699.051c-.04114.099-.425698 1.2177 2.404298 3.0615 1.584804 1.0326 2.665505 2.8597 2.750001 5.0635.07264-2.4264-1.046936-4.4538-2.750001-5.5635-1.796409-1.1704-2.289258-2.0471-2.404298-2.5615zm-12.5527394 2.4971c.0000001 0-1.34761959 1.5278-1.2705083 4.0107.097511-2.1384 1.2074554-3.4368 1.2568365-3.4931-.010264-.274.013672-.5176.013672-.5176zm-.012696.6445c-.025979.3101-.05266 1.1361.4287112 1.2344.4642463.095.5115353-.3829.4931642-1.2266-.020598.5296-.1279819.8011-.4931642.7266-.2943278-.06-.3981742-.4047-.4287112-.7344z" fill="#fff" opacity=".2"/></g><circle cx="7" cy="1044.862" opacity=".2" r="5"/><circle cx="7" cy="1044.362" fill="#fff" r="5"/><circle cx="15" cy="1045.862" opacity=".2" r="6"/><circle cx="15" cy="1045.362" fill="#4f4f4f" r="6"/><path d="m9.793797 1031.3622s-.9450922 1.4415.554884 2.1686c2.51916 1.221 2.425523 1.8314 2.425523 1.8314s.746942-1.7862-.476224-2.8284c-1.223165-1.0422-2.504183-1.1716-2.504183-1.1716z" fill="#ff8a3c" fill-rule="evenodd"/><ellipse cx="-495.277" cy="924.81" opacity=".2" rx="2.124" ry="2.608" transform="matrix(.87690313 -.48066714 .48394814 .87509668 0 0)"/><ellipse cx="-495.035" cy="924.372" fill="#fff" rx="2.124" ry="2.608" transform="matrix(.87690313 -.48066714 .48394814 .87509668 0 0)"/><path d="m9.793949 1031.3622s-.390432.6005-.266601 1.2217c.06801-.4061.266601-.7217.266601-.7217s1.280742.1297 2.503907 1.1719c.465949.397.644109.9009.688477 1.374.04836-.5893-.05059-1.3305-.688477-1.874-1.223165-1.0422-2.503907-1.1719-2.503907-1.1719z" fill="#fff" fill-rule="evenodd" opacity=".2"/></g></svg>