<svg height="22" width="22" xmlns="http://www.w3.org/2000/svg"><rect height="19" opacity=".2" rx=".95" width="19" x="1" y="1.5"/><rect fill="#3f3f3f" height="19" rx=".95" width="19" x="1" y="1"/><path d="m4 1v3h-3v1h3v3h-3v1h3v3h-3v1h3v3h-3v1h3v3h1v-3h3v3h1v-3h3v3h1v-3h3v3h1v-3h3v-1h-3v-3h3v-1h-3v-3h3v-1h-3v-3h3v-1h-3v-3h-1v3h-3v-3h-1v3h-3v-3h-1v3h-3v-3zm1 4h3v3h-3zm4 0h3v3h-3zm4 0h3v3h-3zm-8 4h3v3h-3zm4 0h3v3h-3zm4 0h3v3h-3zm-8 4h3v3h-3zm4 0h3v3h-3zm4 0h3v3h-3z" fill="#57c400" opacity=".2"/><path d="m18.5 17.99995h-2.285178l-3.214822-14h-2.5m-8 14h2.785178l3.214822-14h2.5" fill="none" opacity=".2" stroke="#000" stroke-linecap="round" stroke-linejoin="round"/><path d="m18.5 17.5h-2.285178l-3.214822-14h-2.5m-8 14h2.785178l3.214822-14h2.5" fill="none" stroke="#85fc0e" stroke-linecap="round" stroke-linejoin="round"/><path d="m1.9492188 1c-.5263001 0-.9492188.4229187-.9492188.9492188v.5c0-.5263001.4229187-.9492188.9492188-.9492188h17.1015622c.5263 0 .949219.4229187.949219.9492188v-.5c0-.5263001-.422919-.9492188-.949219-.9492188z" fill="#fff" opacity=".1"/><path d="m8.5 3a .50005.50005 0 0 0 -.4882812.3886719l-3.125 13.6113281h-2.3867188a.50005.50005 0 0 0 -.4394531.75.50005.50005 0 0 1  .4394531-.25h2.3867188l3.125-13.6113281a.50005.50005 0 0 1  .4882812-.3886719h2 .5.03516 1.96484a.50005.50005 0 0 1  .488281.3886719l3.125 13.6113281h1.886719a.50005.50005 0 0 1  .439453.25.50005.50005 0 0 0 -.439453-.75h-1.886719l-3.125-13.6113281a.50005.50005 0 0 0 -.488281-.3886719h-1.964844-.035156-.5z" fill="#fff" opacity=".2"/></svg>