<svg height="22" width="22" xmlns="http://www.w3.org/2000/svg"><path d="m6.4285449 1.5000009c-.428545-.0000003-.9070495.4526446-1.4034875.8078648l-3.7159609 2.6589102c-.39941211.4722425-.41336941 1.202254-.0323655 1.6928255l8.857192 13.4002596c.455993.586852 1.276159.586852 1.732152 0l8.857192-13.4002591c.381005-.490571.367049-1.2205825-.03236-1.692826l-3.665273-2.6226391c-.455649-.3727519-1.025634-.8441362-1.454182-.8441359h-4.571453z" opacity=".2"/><path d="m6.4285449 1.0000009c-.428545-.0000004-.9070495.4526446-1.4034875.8078647l-3.7159609 2.6589103c-.39941211.4722425-.41336941 1.202254-.0323655 1.6928255l8.857192 13.4002596c.455993.586852 1.276159.586852 1.732152 0l8.857192-13.4002591c.381005-.490571.367049-1.2205825-.03236-1.692826l-3.665273-2.6226392c-.455649-.3727518-1.025634-.8441362-1.454182-.8441358h-4.571453z" fill="#00aff2"/><path d="m16 5-5 15c .165665.000055.327301-.04078.474609-.115234.000476-.000241.0015.000241.002 0 .01452-.0074.02679-.01931.04102-.02734.05818-.03286.115442-.06771.167969-.111328.06538-.05429.125387-.115765.179687-.185547l8.857371-13.4003948c.256098-.3297444.318609-.7650468.220703-1.1601562z" opacity=".1"/><path d="m16 5-5 15v-15z" fill="#156fc5"/><g fill="#fff"><path d="m5.9999999 5-2.4941405 4.532227 6.6279296 10.027344c.227535.292832.545864.439837.864258.440429.000459-.000008.0005-.001.001-.001z" opacity=".4"/><path d="m6.4296874 1c-.428545-.0000003-.9078589.4533736-1.4042969.8085938l-3.7148437 2.6582031c-.131595.1555904-.2167295.3394086-.2636719.5332031h19.9062501c-.046943-.1937944-.132079-.3776122-.263672-.5332031l-3.664062-2.6230469c-.455648-.3727518-1.026531-.8437503-1.455079-.84375h-4.570312z" opacity=".5"/><path d="m6.4287109 1.0000005c-.428545-.0000003-.9068825.4523971-1.4033205.8076172l-3.7158201 2.6591797c-.259106.3063525-.35307171.720829-.2851562 1.1083985.041479-.2211705.1367289-.4329065.2851562-.6083985l3.7158201-2.6591797c.496438-.3552202.9747755-.8076175 1.4033205-.8076172h4.5712891 4.571289c.428547-.0000003.998453.4709981 1.454101.84375l3.665039 2.6230469c.148427.1754925.243679.387228.285157.6083985.06792-.3875695-.02605-.8020455-.285157-1.1083985l-3.665039-2.6230469c-.455648-.3727518-1.025554-.8437503-1.454101-.84375h-4.571289z" opacity=".2"/></g><path d="m1.2890624 5c-.1172644.1487526-.1983324.3189509-.2421875.5h19.9062501c-.043856-.181049-.124925-.3512471-.242187-.5z" opacity=".1"/><path d="m16 5-5 15c .059.00002.116314-.01146.173828-.02148l4.826172-14.47852h4.943359c.0097.039152.01106.079341.01758.1191406.038373-.203729.032527-.4169288-.01758-.6191406z" fill="#fff" opacity=".2"/><path d="m5.9999999 5-2.4941406 4.533203.1503906.226563 2.34375-4.259766 4.8281251 14.480469c.05625.0094.113158.01943.169922.01953 0 0 .002-.002.002-.002z" fill="#fff" opacity=".2"/></svg>