<svg height="22" width="22" xmlns="http://www.w3.org/2000/svg"><path d="m20.951172 12.5c-.498748 5.066916-4.748837 9-9.951172 9-3.04384 0-5.756696-1.350315-7.587891-3.482422l-1.291015 1.291016a.65633363.65633363 0 0 1 -.47461.191406.65633363.65633363 0 0 1 -.646484-.65625v-5.6875a.65633363.65633363 0 0 1  .65625-.65625h3.433594 2.253906a.65633363.65633363 0 0 1  .464844 1.121094l-1.539063 1.539062c.04654.06015.08214.129244.13086.1875.000583.000697.0014.0013.002.002.21739.25972.457746.497872.714844.716797.0237.02017.0502.03683.07422.05664.217518.179467.448354.342692.689453.490234.08064.04929.164961.09314.248047.138672.202735.111201.411311.211302.626953.298828.09114.0369.182093.07298.275391.105469.231283.08078.47036.143063.712891.195312.08307.01777.163744.04235.248047.05664.328708.05616.664667.09141 1.007763.09175 2.927057-.000984 5.42622-2.113883 5.914062-5z" opacity=".2"/><circle cx="11" cy="11" fill="#fff" r="8"/><path d="m11 1.5c3.04384 0 5.756696 1.3503148 7.587891 3.4824219l1.291015-1.2910157a.65633363.65633363 0 0 1  .47461-.1914062.65633363.65633363 0 0 1  .646484.65625v5.6875a.65633363.65633363 0 0 1 -.65625.65625h-3.433594-2.253906a.65633363.65633363 0 0 1 -.464844-1.121094l1.539063-1.5390622c-.04654-.060155-.08214-.1292435-.13086-.1875-.000579-.0006931-.0014-.00126-.002-.00195-.21734-.2597192-.457696-.4978712-.714793-.7167968-.023705-.020174-.050198-.036831-.074219-.056641-.217521-.1794703-.448357-.3426946-.689456-.4902372-.080637-.0492927-.164961-.093139-.248047-.1386719-.202735-.111201-.411312-.2113022-.626953-.2988281-.091137-.0369032-.182093-.0729786-.275391-.1054688-.231283-.0807774-.47036-.1430627-.712891-.1953125-.083066-.0177715-.163744-.0423468-.248047-.0566406-.328757-.0562087-.664716-.0914581-1.007812-.0917969-2.927056.0009844-5.426219 2.1138833-5.914062 5h-4.03711c.498748-5.0669159 4.748837-9 9.951172-9z" opacity=".1"/><path d="m11 1c3.04384 0 5.756696 1.3503148 7.587891 3.4824219l1.291015-1.2910157a.65633363.65633363 0 0 1  .47461-.1914062.65633363.65633363 0 0 1  .646484.65625v5.6875a.65633363.65633363 0 0 1 -.65625.65625h-3.433594-2.253906a.65633363.65633363 0 0 1 -.464844-1.1210938l1.539063-1.5390624c-.04654-.060155-.08214-.1292435-.13086-.1875-.000579-.0006931-.0014-.00126-.002-.00195-.21734-.2597192-.457696-.4978712-.714793-.7167968-.023705-.020174-.050198-.036831-.074219-.056641-.217521-.1794703-.448357-.3426946-.689456-.4902372-.080637-.0492927-.164961-.093139-.248047-.1386719-.202735-.111201-.411312-.2113022-.626953-.2988281-.091137-.0369032-.182093-.0729786-.275391-.1054688-.231283-.0807774-.47036-.1430627-.712891-.1953125-.083066-.0177715-.163744-.0423468-.248047-.0566406-.328757-.0562087-.664716-.0914581-1.007812-.0917969-2.927056.0009844-5.426219 2.1138833-5.914062 5h-4.03711c.498748-5.0669159 4.748837-9 9.951172-9z" fill="#48a9ff"/><path d="m20.951172 12c-.498748 5.066916-4.748837 9-9.951172 9-3.04384 0-5.756696-1.350315-7.587891-3.482422l-1.291015 1.291016a.65633363.65633363 0 0 1 -.47461.191406.65633363.65633363 0 0 1 -.646484-.65625v-5.6875a.65633363.65633363 0 0 1  .65625-.65625h3.433594 2.253906a.65633363.65633363 0 0 1  .464844 1.121094l-1.539063 1.539062c.04654.06015.08214.129244.13086.1875.000583.000697.0014.0013.002.002.21739.25972.457746.497872.714844.716797.0237.02017.0502.03683.07422.05664.217518.179467.448354.342692.689453.490234.08064.04929.164961.09314.248047.138672.202735.111201.411311.211302.626953.298828.09114.0369.182093.07298.275391.105469.231283.08078.47036.143063.712891.195312.08307.01777.163744.04235.248047.05664.328708.056164.664667.091413 1.007763.091752 2.927057-.000984 5.42622-2.113883 5.914062-5z" fill="#486afb"/><path d="m11 1c-5.202335 0-9.4524239 3.9330841-9.9511719 9h .072266c.721261-4.8214854 4.8503041-8.5 9.8789059-8.5 3.04384 0 5.756696 1.3503148 7.587891 3.4824219l1.291015-1.2910157c.125788-.1253912.297025-.1944496.47461-.1914062.358598.0053821.646479.2976114.646484.65625v-.5c-.000005-.3586386-.287886-.6508679-.646484-.65625-.177585-.0030434-.348822.066015-.47461.1914062l-1.291015 1.2910157c-1.831195-2.1321071-4.544051-3.4824219-7.587891-3.4824219z" fill="#fff" opacity=".2"/></svg>