<svg height="22" width="22" xmlns="http://www.w3.org/2000/svg"><circle cx="11" cy="11.5" opacity=".2" r="10"/><circle cx="11" cy="11" fill="#d14234" r="10"/><path d="m11 1a10 10 0 0 0 -10 10 10 10 0 0 0  .0107422.291016 10 10 0 0 1 9.9892578-9.791016 10 10 0 0 1 9.989258 9.708985 10 10 0 0 0  .010742-.208985 10 10 0 0 0 -10-10z" fill="#fff" opacity=".2"/><path d="m9.890156 5.692383-.186524.3847655c-.266564.55065-.238097.956298.119141 1.729492.240681.5209205.23604.927043.232227 1.3133365-.11405.908467-.613494 1.785684-1.347926 1.8935-.646401.09489-1.639807-.708887-1.9248045-1.254516-.2840675-.543849-.383292-.0847-.152344.705078.074079.253331.3084745.96205.520508 1.451781.6473505 1.495182.5241525 2.312979-.2773865 2.553125-.4396015.131708-.9040495.0039-1.322266-.363281-.164037-.144027-.32596-.234367-.359375-.201172-.033435.0332-.079218.445318-.102539.916016-.1962265 1.546348 1.0248385 2.136834 2.2228 2.804834.634468.349173 1.3252905.611206 2.059427.774072.429797.09535.932948.12404 1.823242.103515 1.105394-.02549 1.310932-.05567 2.035156-.293945 1.356441-.446285 2.517549-1.226341 3.406624-2.217096.378406-.444149.489779-.764808.609978-1.231146.11707-.673706.162759-1.483399.08398-1.483398-.0435 0-.266395.190622-.496094.423828-.297992.302542-.483841.423828-.648437.423828-.3231 0-.61813-.228563-.391844-.728515.303564-.670691.265345-1.288739-.129883-2.083985-.177668-.357489-.396637-.716682-.486328-.797851-.159282-.144148-.162624-.135016-.163086.395507-.0009 1.042338-.272118 1.527685-1.037109 1.859375-.626831.271789-1.585301.291076-2.019289.03613-.656911-.385899-.657727-.793578-.001-2.390625.158168-.384607.268918-.664928.345696-.887126.249856-.684369.167954-1.362316-.203113-1.719314-.220599-.2114195-.570799-.427024-.880837-.542971-.647216-.2420425-1.064426-.521054-1.212383-1.109375z" fill="#ffc81b"/><circle cx="11" cy="11.5" r="7" style="opacity:.2;fill:none;stroke:#000;stroke-width:2;stroke-linecap:round;stroke-linejoin:round"/><circle cx="11" cy="11" fill="none" r="7" stroke="#fff" stroke-linecap="round" stroke-linejoin="round" stroke-width="2"/></svg>