<svg height="22" width="22" xmlns="http://www.w3.org/2000/svg"><rect height="20" opacity=".2" rx="1" transform="matrix(0 -1 -1 0 0 0)" width="18" x="-20.5" y="-21"/><rect fill="#5489cd" height="20" rx="1" transform="matrix(0 -1 -1 0 0 0)" width="18" x="-20" y="-21"/><path d="m1 7.5h20v11h-20z" opacity=".2"/><path d="m1 7h20v11h-20z" fill="#e4e4e4"/><path d="m5 18h1v2h-1z" opacity=".2"/><path d="m16 18h1v2h-1z" opacity=".2"/><path d="m2 2c-.554 0-1 .446-1 1v .5c0-.554.446-1 1-1h18c .554 0 1 .446 1 1v-.5c0-.554-.446-1-1-1z" fill="#fff" opacity=".2"/><path d="m1 7v .5h20v-.5z" fill="#fff" opacity=".2"/></svg>