<svg height="22" viewBox="0 0 22 22" width="22" xmlns="http://www.w3.org/2000/svg"><path d="m11 12.5a3 3 0 0 0 -2.8242188 2h-4.1757812v-.503906a.48279215.49620059 0 0 0 -.4960938-.496094.48279215.49620059 0 0 0 -.2285156.066406l-1.2675781.751953-1.265625.751953a.48279215.49620059 0 0 0 0 .859376l1.265625.751953 1.2675781.751953a.48279215.49620059 0 0 0  .7246094-.429688v-.503906h4.1738281a3 3 0 0 0 2.8261719 2 3 3 0 0 0 2.824219-2h4.175781v.503906c-.000001.381938.402747.6206.724609.429688l1.267579-.751953 1.265624-.751953c.321971-.190966.321972-.66841 0-.859376l-1.265624-.751953-1.267579-.751953c-.06927-.04095-.148635-.064106-.228515-.066406-.271922-.008163-.495917.216501-.496094.496094v.503906h-4.173828a3 3 0 0 0 -2.826172-2z" opacity=".2"/><path d="m21.5 14.5v.5h-21l .0000001-.5c0-5.79899 4.7010099-10.5 10.5-10.5s10.5 4.70101 10.5 10.5z" fill="#65b457"/><path d="m11 4c-5.79899 0-10.5 4.70101-10.5 10.5v.5c0-5.79899 4.70101-10.5 10.5-10.5s10.5 4.70101 10.5 10.5v-.5c0-5.79899-4.70101-10.5-10.5-10.5z" fill="#fff" opacity=".2"/><path d="m11.5 5.5175769v1.0078125a8 8 0 0 1 3.244141.9101565l.848633-.663086a9 9 0 0 0 -4.092774-1.254883zm-1 .00781a9 9 0 0 0 -4.0927735 1.2470755l.848633.6640625a8 8 0 0 1 3.2441405-.9179715zm5.966797 1.833008-.817383.6396485a8 8 0 0 1 2.267578 2.5019556h1.132813a9 9 0 0 0 -2.583008-3.1416016zm-10.929688.002955a9 9 0 0 0 -2.5947267 3.1386491h1.1376952a8 8 0 0 1 2.2734375-2.5000001zm-3.0126954 4.1386491a9 9 0 0 0 -.5244141 3 9 9 0 0 0  .025391.5h.9931637a8 8 0 0 1 -.0185547-.5 8 8 0 0 1  .5898438-3zm15.886719 0a8 8 0 0 1  .588867 3 8 8 0 0 1 -.02539.5h1.007813a9 9 0 0 0  .01758-.5 9 9 0 0 0 -.526367-3z" opacity=".2"/><path d="m11.5 5.017578v1.0078125a8 8 0 0 1 3.244141.9101565l.848633-.663086a9 9 0 0 0 -4.092774-1.254883zm-1 .00781a9 9 0 0 0 -4.0927735 1.2470755l.848633.6640625a8 8 0 0 1 3.2441405-.9179715zm5.966797 1.833008-.817383.6396485a8 8 0 0 1 2.267578 2.5019555h1.132813a9 9 0 0 0 -2.583008-3.1416015zm-10.929688.002955a9 9 0 0 0 -2.5947267 3.138649h1.1376952a8 8 0 0 1 2.2734375-2.5zm-3.0126954 4.138649a9 9 0 0 0 -.5244141 3 9 9 0 0 0  .0253906.5h.9931641a8 8 0 0 1 -.0185547-.5 8 8 0 0 1  .5898438-3zm15.886719 0a8 8 0 0 1  .588867 3 8 8 0 0 1 -.02539.5h1.007813a9 9 0 0 0  .017577-.5 9 9 0 0 0 -.526367-3z" fill="#fff"/><path d="m3 14v2h8v-2z" fill="#3f3f3f"/><path d="m11 14v2h8v-2z" fill="#3f3f3f"/><circle cx="11" cy="15" fill="#4f4f4f" r="3"/><path d="m3.5031134 12.999999a.48279215.49620059 0 0 0 -.227229.06589l-1.2672027.751984-1.2672027.751979a.48279215.49620059 0 0 0 0 .859542l2.5344054 1.503958a.48279215.49620059 0 0 0  .7241156-.429772v-3.007914a.48279215.49620059 0 0 0 -.4968866-.495667z" fill="#3f3f3f"/><path d="m18.496887 12.999999c.07988.0023.157959.02494.227229.06589l1.267203.751979 1.267202.751979c.321971.190966.321971.668576 0 .859542l-1.267202.751979-1.267203.751979c-.321862.190912-.724117-.047829-.724116-.429767v-3.007914c.000177-.279593.224965-.50383.496887-.495667z" fill="#3f3f3f"/><circle cx="11" cy="15.5" opacity=".2" r="2"/><circle cx="11" cy="15" fill="#fff" r="2"/></svg>