<svg height="22" viewBox="0 0 22 22" width="22" xmlns="http://www.w3.org/2000/svg"><ellipse cx="11" cy="11.5" opacity=".2" rx="10" ry="4"/><ellipse cx="11" cy="11" fill="#c22c2d" rx="10" ry="4"/><path d="m11 7.0000002a10 4 0 0 0 -10 3.9999998 10 4 0 0 0  .0273438.289062 10 4 0 0 1 9.9726562-3.7890618 10 4 0 0 1 9.972656 3.7109378 10 4 0 0 0  .027344-.210938 10 4 0 0 0 -10-3.9999998z" fill="#fff" opacity=".1"/><ellipse cx="15.505" cy="-3.951" opacity=".2" rx="10.061" ry="3.972" transform="matrix(.4902083 .87160531 -.86025975 .50985603 0 0)"/><ellipse cx="15.075" cy="-4.196" fill="#ed5633" rx="10.061" ry="3.972" transform="matrix(.4902083 .87160531 -.86025975 .50985603 0 0)"/><path d="m6.8457031 2.0039064a10.061445 3.9708087 60.885621 0 0 -.7773437.2265626 10.061445 3.9708087 60.885621 0 0 -1.0585938 2.9238281 10.061445 3.9708087 60.885621 0 1 1.0585938-2.4238281 10.061445 3.9708087 60.885621 0 1 8.3476566 6.7441402 10.061445 3.9708087 60.885621 0 1 2.574218 7.8710938 10.061445 3.9708087 60.885621 0 0 -2.574218-8.3710934 10.061445 3.9708087 60.885621 0 0 -7.5703129-6.9707032z" fill="#fff" opacity=".2"/><ellipse cx="4.286" cy="15.229" opacity=".2" rx="10.061" ry="3.972" transform="matrix(-.4902083 .87160531 .86025975 .50985603 0 0)"/><ellipse cx="3.855" cy="14.984" fill="#ff9c31" rx="10.061" ry="3.972" transform="matrix(-.4902083 .87160531 .86025975 .50985603 0 0)"/><path d="m15.154297 2.0039064a3.9708087 10.061445 29.114379 0 0 -7.5703126 6.9707032 3.9708087 10.061445 29.114379 0 0 -2.5742188 8.3710934 3.9708087 10.061445 29.114379 0 1 2.5742188-7.8710938 3.9708087 10.061445 29.114379 0 1 8.3476566-6.7441402 3.9708087 10.061445 29.114379 0 1 1.058593 2.4238281 3.9708087 10.061445 29.114379 0 0 -1.058593-2.9238281 3.9708087 10.061445 29.114379 0 0 -.777344-.2265626z" fill="#fff" opacity=".2"/><path d="m8.7 7.4999988h4.6l2.2 4.0000002-2.2 4h-4.6l-2.2-4z" opacity=".2"/><path d="m8.7 7.0000002h4.6l2.2 3.9999998-2.2 4h-4.6l-2.2-4z" fill="#fff"/><circle cx="11" cy="11" fill="#c22c2d" r="2"/></svg>