<svg height="22" width="22" xmlns="http://www.w3.org/2000/svg"><path d="m2.9 4c-.4986 0-.9.3468885-.9.777778v12.444444c0 .43089.4014.777778.9.777778h14.85c.4986 0 .9-.346888.9-.777778v-12.444444c0-.4308895-.4014-.777778-.9-.777778zm14.4 0c-.4986 0-.9.3468885-.9.777778v12.444444c0 .43089.4014.777778.9.777778h1.8c.4986 0 .9-.346888.9-.777778v-12.444444c0-.4308895-.4014-.777778-.9-.777778z" fill="#8e8e8e"/><rect height="18" opacity=".2" rx="1" width="4" x="1" y="2.5"/><rect height="18" opacity=".2" rx="1" width="4" x="17" y="2.5"/><rect fill="#ff9205" height="18" rx="1" width="4" x="1" y="2"/><rect fill="#00c1ee" height="18" rx="1" width="4" x="17" y="2"/><path d="m11.000001 7v7m0-7-6.0000005 7h11.9999995z" fill="none" stroke="#3f3f3f" stroke-linecap="round" stroke-linejoin="round" stroke-width="2"/><path d="m11 5.5c-1.104569 0-2 .8954305-2 2s .895431 2 2 2 2-.8954305 2-2-.895431-2-2-2zm-6 7c-1.1045695 0-2 .895431-2 2s .8954305 2 2 2 2-.895431 2-2-.8954305-2-2-2zm6 0c-1.104569 0-2 .895431-2 2s .895431 2 2 2 2-.895431 2-2-.895431-2-2-2zm6 0c-1.104569 0-2 .895431-2 2s .895431 2 2 2 2-.895431 2-2-.895431-2-2-2z" opacity=".2"/><g fill="#fff"><path d="m11 5c-1.104569 0-2 .8954305-2 2s .895431 2 2 2 2-.8954305 2-2-.895431-2-2-2zm-6 7c-1.1045695 0-2 .895431-2 2s .8954305 2 2 2 2-.895431 2-2-.8954305-2-2-2zm6 0c-1.104569 0-2 .895431-2 2s .895431 2 2 2 2-.895431 2-2-.895431-2-2-2zm6 0c-1.104569 0-2 .895431-2 2s .895431 2 2 2 2-.895431 2-2-.895431-2-2-2z"/><path d="m2 2c-.554 0-1 .446-1 1v .5c0-.554.446-1 1-1h2c .554 0 1 .446 1 1v-.5c0-.554-.446-1-1-1z" opacity=".1"/><path d="m18 2c-.554 0-1 .446-1 1v .5c0-.554.446-1 1-1h2c .554 0 1 .446 1 1v-.5c0-.554-.446-1-1-1z" opacity=".1"/></g></svg>