<svg height="22" viewBox="0 0 22 22" width="22" xmlns="http://www.w3.org/2000/svg"><path d="m14.937899 18.725131c-4.585973 2.804731-10.0629195 2.17833-13.5101577-1.124487-.1024416-.098132-.1724193-.226525-.2014046-.369532-.97551913-4.808575 1.2450905-10.1486397 5.8357619-12.9562441 4.5859724-2.8047317 10.0629194-2.1783296 13.5101584 1.124488.102444.09813.172419.2265237.201404.3695305.975519 4.8085786-1.245052 10.1486166-5.835762 12.9562446z" opacity=".2"/><path d="m14.937899 18.225131c-4.585973 2.804731-10.0629195 2.17833-13.5101577-1.124487-.1024416-.098132-.1724193-.226525-.2014046-.369532-.23870493-1.176635-.28603913-2.385094-.1541057-3.580485.4072411-3.6898335 3.6346974-3.7251795 7.1020533-5.8457769 4.5859727-2.8047309 7.3784767-5.6076682 10.8257157-2.3048506.102444.09813.971015.8569932 1 1 .04106.2023873.850116-.3253956.879913-.1213538.678146 4.6438453-1.544522 9.6570273-5.942014 12.3464853z" fill="#f55"/><path d="m13.347656 2.4999515c-2.10286-.0232105-4.278793.5483205-6.285156 1.7753906-3.5645014 2.1800101-5.6917449 5.8862309-6.0117188 9.6855499.036996.425803.090628.849789.1757813 1.269531.028985.143007.09873.272962.2011719.371093 3.4472382 3.302818 8.9237926 3.927778 13.5097656 1.123047 3.564531-2.180028 5.691754-5.886232 6.011719-9.685549-.037-.4258028-.09063-.8497897-.175781-1.2695313-.028985-.1430068-.098728-.2729637-.201172-.3710937-1.939072-1.8578349-4.520932-2.8685954-7.22461-2.8984375z" opacity=".2"/><path d="m13.347656 1.9999995c-2.10286-.0232105-4.278793.5483205-6.285156 1.7753906-3.5645014 2.1800101-5.6917449 5.8862284-6.0117188 9.6855479.036996.425803.090628.849789.1757813 1.269531.028985.143007.09873.272962.2011719.371093 3.4472382 3.302818 8.9237926 3.927778 13.5097656 1.123047 3.564531-2.180028 5.691754-5.886232 6.011719-9.685547-.037-.4258028-.09063-.8497897-.175781-1.2695313-.028985-.1430068-.098728-.2729637-.201172-.3710937-1.939072-1.8578349-4.520932-2.8685954-7.22461-2.8984375z" fill="#e4e4e4"/><g transform="matrix(.8660254 -.5 .5 .8660254 0 0)"><circle cx="3.776" cy="15.459" opacity=".1" r="6"/><circle cx="4.026" cy="15.026" fill="#1c93e1" r="6"/><circle cx="4.026" cy="15.026" fill="#3f3f3f" opacity=".957" r="3"/></g><path d="m13.347656 1.9999995c-2.10286-.0232105-4.278793.5483205-6.285156 1.7753906-4.0211413 2.459286-6.22371233 6.8602669-6.0527344 11.1464849.0122253-4.125292 2.1879025-8.282796 6.0527344-10.6464849 4.585972-2.8047317 10.062527-2.1797707 13.509766 1.1230469.102444.09813.172187.2280869.201172.3710937.121025.5965642.192579 1.2015202.216796 1.8085938.0023-.7747547-.06255-1.5483009-.216796-2.3085938-.028985-.1430068-.098728-.2729637-.201172-.3710937-1.939072-1.8578349-4.520932-2.8685954-7.22461-2.8984375z" fill="#fff" opacity=".2"/></svg>