<svg height="22" width="22" xmlns="http://www.w3.org/2000/svg"><rect height="20" opacity=".2" rx="10" transform="matrix(0 -1 -1 0 0 0)" width="20" x="-21.5" y="-21"/><rect fill="#5068f0" height="20" rx="10" transform="matrix(0 -1 -1 0 0 0)" width="20" x="-21" y="-21"/><path d="m11 1c-5.54 0-10 4.46-10 10 0 .08394.00382.166571.00586.25.1323352-5.4230685 4.538077-9.75 9.99414-9.75s9.861805 4.3269315 9.99414 9.75c.002036-.083429.00586-.166063.00586-.25 0-5.54-4.46-10-10-10z" fill="#fff" opacity=".1"/><path d="m11 5.5009413a6 6 0 0 0 -6 5.9999997 6 6 0 0 0 2 4.462891v1.037109 1.699219a.25402518.30002863 0 0 0  .3808594.259765l1.2460937-.849609 1.1035159-.751953a6 6 0 0 0 1.269531.142578 6 6 0 0 0 6-6 6 6 0 0 0 -6-5.9999997zm-3 5.9999997h6c0 1.656854-1.343146 3-3 3s-3-1.343146-3-3z" opacity=".2"/><path d="m11 5a6 6 0 0 0 -6 6 6 6 0 0 0 6 6 6 6 0 0 0 6-6 6 6 0 0 0 -6-6zm-3 6h6c0 1.656854-1.343146 3-3 3s-3-1.343146-3-3z" fill="#fff"/><path d="m7.2599531 14.500082a.25402518.30002863 0 0 0 -.259953.299999v1.699211 1.700383a.25402518.30002863 0 0 0  .3809995.260155l1.2461865-.850778 1.2461869-.849605a.25402518.30002863 0 0 0 0-.519138l-1.2461869-.849605-1.2461865-.850778a.25402518.30002863 0 0 0 -.1210465-.03984z" fill="#fff"/></svg>