<svg height="22" width="22" xmlns="http://www.w3.org/2000/svg"><rect fill="#20c88c" height="20" rx="1" transform="matrix(0 -1 -1 0 0 0)" width="20" x="-21" y="-21"/><path d="m2 1c-.554 0-1 .446-1 1v .5c0-.554.446-1 1-1h18c .554 0 1 .446 1 1v-.5c0-.554-.446-1-1-1z" fill="#fff" opacity=".2"/><path d="m2 21.5c-.554 0-1-.446-1-1v-.5c0 .554.446 1 1 1h18c .554 0 1-.446 1-1v .5c0 .554-.446 1-1 1z" opacity=".2"/><rect height="10" opacity=".2" rx="1" transform="matrix(0 -1 -1 0 0 0)" width="10" x="-16.5" y="-16"/><rect fill="#fff" height="10" rx="1" transform="matrix(0 -1 -1 0 0 0)" width="10" x="-16" y="-16"/></svg>