<svg height="22" width="22" xmlns="http://www.w3.org/2000/svg"><path d="m11.557159.50069666a2.4096624 2.3876277 0 0 0 -1.261937.3185148l-7.0902852 4.05611634a2.4096624 2.3876277 0 0 0 -1.2049368 2.0679577v8.1127595a2.4096624 2.3876277 0 0 0 1.2048312 2.067748l7.0902848 4.056326a2.4096624 2.3876277 0 0 0 2.409662 0l7.090286-4.056326a2.4096624 2.3876277 0 0 0 1.204936-2.067958v-8.1127595a2.4096624 2.3876277 0 0 0 -1.204936-2.0679577l-7.090286-4.05611634a2.4096624 2.3876277 0 0 0 -1.147936-.3185148z" opacity=".2"/><path d="m11.557159.00102886a2.4096624 2.3876277 0 0 0 -1.261937.3185148l-7.0902852 4.05611634a2.4096624 2.3876277 0 0 0 -1.2049368 2.0679577v8.1127583a2.4096624 2.3876277 0 0 0 1.2048312 2.067748l7.0902848 4.056326a2.4096624 2.3876277 0 0 0 2.409662 0l7.090286-4.056326a2.4096624 2.3876277 0 0 0 1.204936-2.067958v-8.1127583a2.4096624 2.3876277 0 0 0 -1.204936-2.0679577l-7.090286-4.05611634a2.4096624 2.3876277 0 0 0 -1.147936-.3185148z" fill="#4f4f4f"/><path d="m7.4494428 7.5000662c-1.6498111-.081634-3.443618 1.1976849-3.4492188 3.4882818-.00199.815238.2811641 1.668443.84375 2.345703.5625859.677261 1.431436 1.166016 2.5 1.166016 1.1957888 0 2.128242-.438048 2.84375-1.060547s1.237078-1.409703 1.746094-2.158203c.509015-.7485 1.005834-1.4578993 1.605468-1.9609383.599636-.5030385 1.283608-.8203125 2.300782-.8203125.872236 0 2.160156.7192645 2.160156 2.7753918 0 1.151605-.925489 2.257115-2.351562 2.224609-.568467-.01296-.946056-.137169-1.201172-.277344l.552734-.552734-1.25-.335938-1.25-.333984.335938 1.25.333984 1.25.55664-.556641c.408024.282725 1.024143.53671 1.898438.556641 1.96249.04473 3.375-1.525857 3.375-3.224609 0-2.4955351-1.713038-3.7753918-3.160156-3.7753918-1.23881 0-2.201954.4307636-2.94336 1.0527344-.741405.6219711-1.277999 1.4145041-1.789062 2.1660164-.511064.751512-.99858 1.462333-1.576172 1.964844-.577592.50251-1.2231854.816406-2.1875.816406-.7754511 0-1.3311977-.32403-1.7304688-.804688-.399271-.480655-.6146837-1.131647-.6132812-1.705078.00438-1.7909753 1.2738508-2.5479301 2.4003906-2.4921879.5096992.02522.8534178.1653591 1.1171875.3144531l-.5175781.5175785 1.25.333984 1.25.3359383-.333984-1.2500008-.335938-1.25-.595703.5957031c-.4080472-.2801351-.9973861-.5567235-1.7851562-.5957031z" opacity=".2"/><path d="m13.500311 12.499184s.449141.961552 2.136096 1.000008c1.694282.03862 2.863946-1.299032 2.863946-2.724211 0-2.27583-1.500013-3.2758385-2.65969-3.2758385-4.511968 0-4.176196 6.0000495-8.4964027 6.0000495-1.8440151 0-2.8474198-1.621501-2.8440233-3.010169.00499-2.0407862 1.5369101-3.0585686 2.9250855-2.9898805 1.4587825.072182 2.0749555 1.0000085 2.0749555 1.0000085" fill="none" stroke="#fff" stroke-width="1.000008"/><g fill="#fff"><path d="m10.500286 9.4991589-1.2500102-.3349392-1.2500103-.3349393.9150711-.915071.915071-.9150711.3349394 1.2500103z"/><path d="m-12.500302-11.499175-1.250011-.334939-1.25001-.33494.915071-.915071.915071-.915071.334939 1.250011z" transform="scale(-1)"/><path d="m11.556865-.00000034v.00195a2.4096624 2.3876277 0 0 0 -1.261719.3183625l-7.0898439 4.05468754a2.4096624 2.3876277 0 0 0 -1.2050781 2.0683594v.5a2.4096624 2.3876277 0 0 1 1.2050781-2.0683594l7.0898439-4.05664064a2.4096624 2.3876277 0 0 1 1.261719-.3183594 2.4096624 2.3876277 0 0 1 1.148437.3183594l7.089844 4.05664064a2.4096624 2.3876277 0 0 1 1.205078 2.0683594v-.5a2.4096624 2.3876277 0 0 0 -1.205078-2.0683594l-7.089844-4.05664064a2.4096624 2.3876277 0 0 0 -1.148437-.3183594z" opacity=".1"/></g></svg>