<svg height="32" width="32" xmlns="http://www.w3.org/2000/svg"><rect fill="#5f7c8a" fill-rule="evenodd" height="28.203388" ry="5.575182" width="28.203388" x="1.898306" y="1.898306"/><g transform="matrix(.68155368 0 0 .68155368 5.095231 6.079935)"><path d="m13.134 1.0006c-.29681.0323-.55825.27515-.6125.56874l-.59061 2.9968c-1.0603.41466-2.0568.98438-2.9312 1.6844l-2.909-.9844c-.30225-.10422-.66885.0308-.83124.30625l-2.8 4.8562c-.15772.2793-.0901.66583.15312.87499l2.3187 2.0343c-.0816.54547-.13125 1.0943-.13125 1.6625 0 .56822.0496 1.117.13125 1.6625l-2.3187 2.0344c-.24319.20916-.31084.59569-.15312.87499l2.8 4.8562c.16239.2754.52899.41046.83124.30624l2.9093-.98436c.87441.69997 1.8709 1.2697 2.9312 1.6844l.59061 2.9968c.0599.3137.35879.56439.67812.56874h5.5999c.31933-.004.61824-.25504.67811-.56874l.59062-2.9968c1.0603-.41466 2.0568-.98439 2.9312-1.6844l2.9093.98436c.30224.10422.66885-.0308.83124-.30624l2.8-4.8562c.15771-.2793.0901-.66583-.15312-.87499l-2.3187-2.0344c.0816-.54547.13124-1.0942.13124-1.6625 0-.56822-.0497-1.117-.13124-1.6625l2.3187-2.0343c.24319-.20916.31083-.59569.15312-.87499l-2.8-4.8562c-.16239-.2754-.529-.41047-.83124-.30625l-2.9093.98436c-.875-.7005-1.871-1.2702-2.931-1.6849l-.59062-2.9968c-.0599-.3137-.35878-.5644-.67811-.56874h-5.5999c-.0219-.00051-.0438-.00051-.0656 0z" fill="#fff"/><path d="m16 9.0002c3.3137 0 6 2.6863 6 6s-2.6863 6-6 6-6-2.6863-6-6 2.6863-6 6-6z" fill="#5f7c8a"/></g><path d="m19.143676 22.945485 4.867932-8.252055c1.53258-.915981 4.364278-.364124 4.347296 2.499045l-4.8419 8.434276-4.165074 2.1346z" fill="#f2f2f2"/><path d="m19.282227 26.14682.06971 1.614531 1.444396-.740098z" fill="#300503"/><path d="m22.192973 24.723018-1.748546 2.095153.343118.198013 2.729459-1.389433.05383-.100577z" fill="#ccc"/><path d="m27.781545 18.198204-4.35822-2.50702-4.279649 7.254301 4.429821 2.582742z" fill="#0ab884"/><path d="m28.358588 17.189623-4.336043-2.501002c-.0032.002-.0074.0028-.01082.0048l-.588339.997677 4.358221 2.50702.577251-1.005598c.000006-.001-.000325-.0019-.000325-.0028z" fill="#e3e2db"/><path d="m25.339897 14.29481c-.476592.03206-.936123.168352-1.317352.393811l4.336043 2.501002c.01113-2.145101-1.577206-2.991774-3.018691-2.894813z" fill="#f2f2f2"/><path d="m26.359749 17.380035-4.166858 7.343011 1.380717.805048 4.208045-7.330023z" fill="#007d68"/><path d="m24.775951 16.468851-4.215966 7.302142 1.632906.952053 4.166858-7.343011z" fill="#0ab884"/><path d="m24.58459 16.358596-4.215332 7.301191.190727.111198 4.215966-7.302142z" fill="#ccc"/></svg>