<svg height="32" viewBox="0 0 32 32" width="32" xmlns="http://www.w3.org/2000/svg"><g transform="translate(0 -1020.3622)"><path d="m5.4941406 1023.3783c-.2472574.01-.4892101.034-.7246094.072-1.9672517.3236-3.5019771 1.7235-3.7597656 3.5743-.21639675 1.5537.6617235 3.1309 2.1464844 4.2148.6034105.4405 1.3304518.7803 2.1425781.9883.00214.01.00167.01.00391.016.039285.0004.041394 0 .078125 0 .3174671.077.6474504.1311.9902344.1621-.035189.097-.3509484 1.35-.7109376 2.336-.5622909 1.5435-.6601599 1.9193-.6601599 2.5447 0 .7064.3336618.4975 1.1835938 2.125.4857323.9301 1.0332744 1.8918 1.2167968 2.1367.4451635.594 1.1175337.8516 2.078125.8516 1.2559574 0 2.0264964-.7071 1.2441404-2.1036-.532391-.8566-.7613855-1.1403-1.3515622-1.7031.2143616-.2497.5505323-.1348 1.4355472.2852.527299.2502.990643.5965 1.61914 1.2129 1.378825 1.3526 2.2724 2.5596 2.986328 4.9902.379025 1.2905.616437 1.625 1.113282 1.9414.813981.5182 1.845312.4267 2.269531-.1992.186649-.2752.292384-.8886.208984-1.8438-.06294-.7215.463408-.6742 2.126953-.6172 1.496404.051 2.019617-.1393 2.56836.3633.172229.1577.901975 1.088 1.623047 2.0664 1.500887 2.0363 2.434466 3.0294 3.099609 3.3477.553478.265 1.586218.2994 2.048828.068.360942-.1805.612046-.6881.503906-1.0175-.04159-.1266-.42118-.5717-.84375-.9903-.873423-.8652-1.238098-.9156-2.966797-4.5918-.659692-1.4028-1.734634-2.4661-1.898437-2.6328-.849643-.8643-1.625291-.8777-3.109375.1797-1.281202.9129-1.375379 1.0108-2.003906 1.0938-.67918.09-1.059442-.5429-2.007813-1.1621-2.029798-1.3479-2.548589-6.7443.25586-4.6758.540982.7123.425447-.3634.945312-.2129.36155.1047.697131.4671 1.173828.3164l.308594.4687c1.779063 2.7218 3.64076.5784.388672-.2929l-.269531-1.002-1.414063-1.4394c-2.354162-2.4127-3.741396-3.5587-4.408203-3.9414-1.081184-.6207-1.983241-.8776-3.208984-.9336-1.328101-.061-1.572469.095-2.9609379.6953-.1717079.074-.2879639.1036-.4433593.166-1.833779.4925-3.2235372.085-4.1777344-.6113-.996973-.7277-1.414034-1.8196-1.34375-2.3243.1340218-.9622.8203158-1.6639 2.1035156-1.875 1.2831998-.211 3.1602223.1821 5.246094 1.7813a1.0001 1.0001 0 0 0  .609375.207 1.0001 1.0001 0 0 0  .302734-1.9551c-2.0239335-1.4664-4.0270102-2.1418-5.7578124-2.08zm15.4531254 12.3105c.544949.9416 1.791987 1.3582 2.941406 1.7344-.02491-.1318-.04248-.256-.07617-.3965-.487892-2.0358-.892603-2.6741-1.376953-2.6641-.248176 0-.517616.01-.828125.4239-.222062.2973-.441498.6027-.660156.8769v.025z" opacity=".2"/><path d="m28.421221 1049.1404c-.665143-.3183-1.597863-1.3123-3.09875-3.3486-.721072-.9784-1.451962-1.9078-1.624191-2.0655-.548743-.5026-1.071809-.3127-2.568213-.3641-1.663545-.057-2.188729-.1051-2.125793.6164.0834.9552-.0219 1.5692-.208549 1.8444-.424219.6259-1.456954.7166-2.270935.1984-.496845-.3164-.733873-.6507-1.112898-1.9412-.713928-2.4306-1.608063-3.6368-2.986888-4.9894-.628497-.6164-1.091058-.9633-1.618357-1.2135-.8850145-.42-1.2218613-.534-1.4362229-.2843.5901767.5628.8205319.8457 1.3529229 1.7023.782356 1.3965.01086 2.1053-1.2450976 2.104-.9605913 0-1.6336084-.258-2.0787719-.852-.1835224-.2449-.7310924-1.2061-1.2168248-2.1362-.8499319-1.6275-1.1826527-1.4187-1.1826527-2.1251 0-.6254.097665-1.0015.6599522-2.5413.3629763-.9941.6850797-2.2711.7157814-2.3491.044087-.1121-.1810104-.1441-1.0724668-.1527-.2783305-.639.169233-1.2964.8838321-1.3564.8572799-.094 1.606941-.3149 2.7676905-.8167 1.3884686-.5999 1.6327716-.756 2.9608726-.6954 1.225743.056 2.127609.3131 3.208793.9338.666807.3827 2.05555 1.5278 4.409712 3.9405l1.412238 1.4387.269743 1.0039c3.252088.8713 1.391594 3.0144-.387469.2926l-.308347-.4691c-.476697.1507-.813395-.2115-1.174945-.3162-.519865-.1505-.404081.9252-.945063.2129-2.804449-2.0685-2.285013 3.328-.255215 4.6759.948371.6192 1.327269 1.2517 2.006449 1.1616.628527-.083.723235-.1817 2.004437-1.0946 1.484084-1.0574 2.260215-1.0433 3.109858-.179.163803.1667 1.23778 1.2308 1.897472 2.6336 1.728698 3.6762 2.09402 3.7255 2.967443 4.5907.42257.4186.802334.8647.843923.9913.10814.3294-.143467.8367-.504409 1.0172-.46261.2311-1.495587.197-2.049065-.068z" fill="#4f4f4f"/><path d="m9.05 1030.1292c-4.4597451 1.3693-7.3366808-1.9095-7.05-3.9678.3918103-2.8131 4.4446164-4.2026 8.949-.7492" fill="none" stroke="#4e4e4e" stroke-linecap="round" stroke-linejoin="round" stroke-width="2"/><path d="m17.564453 1034.3622c-.48435-.01-.889061.6283-1.376953 2.6641-.127462.5317-.193512.998-.1875 1.4179.01755 1.225.844632 2.2522 2.296875 3.2168.707247.4697 1.207938.6765 1.703125.7012.495187-.025.995878-.2315 1.703125-.7012 1.452243-.9646 2.279325-1.9918 2.296875-3.2168.006-.4199-.06004-.8862-.1875-1.4179-.487892-2.0358-.892603-2.6741-1.376953-2.6641-.248176 0-.517616.01-.828125.4238-.507343.6794-1.006599 1.4599-1.494141 1.6035-.04186.012-.07606.017-.113281.027-.03722-.01-.07142-.015-.113281-.027-.487542-.1436-.986798-.9241-1.494141-1.6035-.310509-.4158-.579949-.4209-.828125-.4238z" opacity=".2"/><path d="m17.564453 13c-.48435-.01-.889061.628263-1.376953 2.664062-.127462.531701-.193512.998069-.1875 1.417969.01755 1.225.844632 2.252197 2.296875 3.216797.707247.4697 1.207938.676472 1.703125.701172.495187-.0247.995878-.231472 1.703125-.701172 1.452243-.9646 2.279325-1.991797 2.296875-3.216797.005-.350242-.04011-.732813-.129185-1.158661-.01772-.08469-.34598-.116607-.367125-.204812-.487892-2.035799-.656454-1.002854-1.140804-.992854-.248176.0029-.444955-.863935-.755464-.448107-.199427.267059-.397604-.304029-.594312-.05055-.303717.391372-.60393.713128-.899829.800282-.04186.012-.07606.01734-.113281.02734-.03722-.01-.07142-.01534-.113281-.02734-.487542-.1436-.986798-.9241-1.494141-1.6035-.310509-.415801-.579949-.420929-.828125-.423829z" fill="#fff" transform="translate(0 1020.3622)"/><g fill="#4f4f4f"><path d="m22.435547 13c-.248176.0029-.517616.008-.828125.423828-.222062.29737-.441498.602729-.660156.876953v.025391c.544949.941603 1.791987 1.358194 2.941406 1.734375-.02491-.131747-.042485-.255959-.076172-.396485-.487892-2.035799-.892603-2.674062-1.376953-2.664062z" transform="translate(0 1020.3622)"/><path d="m18.053112 1036.8628c.598053-.015.946888.2864.946888.8559 0 .6415-.08796.7161-.714073.5954-.590957-.1141-.952556-.3052-1.120328-.5899-.266648-.4522-.221696-.6064.21094-.7387.250796-.077.477222-.1178.676573-.1227z"/><path d="m20 1039.3625c.55154.01 1 .033 1 .069 0 .041-.266613.4617-.592126.8358l-.407874.5949-.407873-.5949c-.325513-.3741-.592127-.7939-.592127-.8358 0-.037.448462-.064 1-.069z"/><path d="m21.946888 1036.8628c-.598053-.015-.946888.2864-.946888.8559 0 .6415.08796.7161.714073.5954.590957-.1141.952556-.3052 1.120328-.5899.266648-.4522.221696-.6064-.21094-.7387-.250796-.077-.477222-.1178-.676573-.1227z"/></g><path d="m5.4941406 2.015625c-.2472574.00883-.4892101.0335406-.7246094.0722656-1.9672517.3236-3.5019771 1.7234188-3.7597656 3.5742188-.04426667.3178291-.03144062.635797.0117188.9511718.2784128-1.8257613 1.7987067-3.2047369 3.7480468-3.5253906.2353995-.038.477352-.0622656.7246094-.0722656 1.7308022-.0618 3.7338793.6136781 5.7578124 2.0800781.239579.074411.442444.2361446.568359.453125.319026-.5546627.04233-1.2620994-.568359-1.453125-2.0239333-1.4664125-4.0270102-2.1418818-5.7578124-2.0800781zm-2.4101562 4.5332031c-.041011.12472-.074844.2529384-.09375.3886719-.070284.5047.346777 1.5965187 1.34375 2.3242188.9541972.6963 2.3439554 1.1038282 4.1777344.6113281.1553953-.0624.2716514-.0920159.4433593-.1660157 1.3884689-.6003 1.6328369-.7563125 2.9609379-.6953124 1.225743.0559999 2.1278.3128937 3.208984.9335937.666807.3826995 2.054041 1.5287065 4.408203 3.9414065l1.404297 1.427734c.003345-.004176.00642-.009476.009766-.013672.023035-.028883.047017-.060851.070312-.091797.040925-.052779.081997-.109174.123047-.164062l-.193359-.71875-1.414063-1.439453c-2.354162-2.412701-3.741396-3.5587065-4.408203-3.9414065-1.081184-.6207-1.983241-.8775937-3.208984-.9335937-1.328101-.0606003-1.572469.0954125-2.9609379.6953124-.1717079.0742306-.2879641.1035804-.4433593.1660157-1.8337792.4924613-3.2235372.0852451-4.1777344-.6113281-.6911947-.5045097-1.0854346-1.1753356-1.25-1.7128907zm17.8632816 7.7773439c.101599.175551.23368.32851.378906.470703.09371-.126442.186735-.246509.28125-.373047.310509-.4138.579949-.423828.828125-.423828.05229-.001075.103605.006786.154297.023438.253226.07531.489702.410653.732422 1.029296.096846.246843.195992.556404.296875.916016.000046.000164.001907-.000164.001953 0 .089486.02977.178892.062767.267578.091797-.02491-.13175-.042485-.255959-.076172-.396485-.487892-2.035796-.892603-2.674062-1.376953-2.664062-.248176.0029-.517616.008-.828125.423828-.222062.29737-.441498.602729-.660156.876953zm-14.8476566-2.328125c-.1240001.42863-.2734997.930261-.4394532 1.384765-.5622872 1.539802-.6601562 1.915616-.6601562 2.541016 0 .164574.0220169.273037.0605469.373047.07278-.407374.2312189-.906729.5996093-1.917969.3599893-.986.6757485-2.238937.7109376-2.335937-.0940051-.0085-.1793992-.032952-.2714844-.044922zm3.4609375 6.113281c-.075489.01778-.1358629.05672-.1894531.119141.5901767.5628.8191712.846525 1.3515622 1.703125.08893.158735.152757.30637.203125.447265.173712-.347104.145548-.824887-.203125-1.447265-.182217-.293181-.309485-.465081-.447265-.658203-.3363565-.141449-.5589911-.20077-.7148441-.164063zm14.3886721.871094c-.041044.001757-.08667.014326-.128907.019531-.175145.46303-.482631.898576-.90039 1.316406 1.009417-.536018 1.656511-.406159 2.345703.294922.163803.1667 1.238746 1.230013 1.898437 2.632813 1.728699 3.6762 2.093374 3.726597 2.966797 4.591797.276566.273967.493355.524659.650391.724609.170499-.227565.264858-.516586.193359-.734375-.04159-.1266-.42118-.571634-.84375-.990234-.873423-.8652-1.238097-.915597-2.966797-4.591797-.65969-1.4028-1.734634-2.466113-1.898437-2.632813-.424822-.43215-.830778-.651644-1.316406-.630859zm-4.919922 5.347656c-.02303.07973-.035581.170291-.025391.28711.0022.02504.002006.043789.003906.068359.010881-.109873.019175-.226118.021485-.355469z" fill="#fff" opacity=".1" transform="translate(0 1020.3622)"/></g></svg>