<svg height="32" width="32" xmlns="http://www.w3.org/2000/svg"><rect height="27" opacity=".2" rx="1.35" transform="scale(1 -1)" width="27" x="2" y="-30"/><rect fill="#fecd38" height="27" rx="1.35" transform="scale(1 -1)" width="27" x="2" y="-29"/><path d="m4 5v3h3v-3zm5 0v3h3v-3zm5 0v3h3v-3zm5 0v3h3v-3zm5 0v3h3v-3zm-19 5v13.246094h9v-13.246094zm12 0v13.246094h9v-13.246094zm-13 15v3h3v-3zm5 0v3h3v-3zm5 0v3h3v-3zm5 0v3h3v-3zm5 0v3h3v-3z" opacity=".2"/><path d="m4 4v3h3v-3zm5 0v3h3v-3zm5 0v3h3v-3zm5 0v3h3v-3zm5 0v3h3v-3zm-19 5v13.246094h9v-13.246094zm12 0v13.246094h9v-13.246094zm-13 15v3h3v-3zm5 0v3h3v-3zm5 0v3h3v-3zm5 0v3h3v-3zm5 0v3h3v-3z" fill="#336894"/><path d="m3.3496094 2c-.7479 0-1.3496094.6017094-1.3496094 1.3496094v1c0-.7479.6017094-1.3496094 1.3496094-1.3496094h24.3007816c.7479 0 1.349609.6017094 1.349609 1.3496094v-1c0-.7479-.601709-1.3496094-1.349609-1.3496094z" fill="#fff" opacity=".2"/></svg>