<svg height="32" viewBox="0 0 32 32" width="32" xmlns="http://www.w3.org/2000/svg"><g transform="translate(0 -1020.3622)"><path d="m30 1049.9872v-19.25c0-.7617-.6244-1.375-1.4-1.375h-25.2c-.7756 0-1.4.6133-1.4 1.375v19.25c0 .7618.6244 1.375 1.4 1.375h25.2c.7756 0 1.4-.6132 1.4-1.375z" opacity=".2"/><path d="m30 1042.9872v-19.25c0-.7618-.6244-1.375-1.4-1.375h-25.2c-.7756 0-1.4.6133-1.4 1.375v19.25c0 .7618.6244 1.375 1.4 1.375h25.2c.7756 0 1.4-.6132 1.4-1.375z" fill="#86603b"/><path d="m30 1045.9872v-19.25c0-.7617-.6244-1.375-1.4-1.375h-25.2c-.7756 0-1.4.6133-1.4 1.375v19.25c0 .7617.6244 1.375 1.4 1.375h25.2c.7756 0 1.4-.6132 1.4-1.375z" fill="#c28a52"/><path d="m30 1048.9872v-19.25c0-.7617-.6244-1.375-1.4-1.375h-25.2c-.7756 0-1.4.6133-1.4 1.375v19.25c0 .7618.6244 1.375 1.4 1.375h25.2c.7756 0 1.4-.6132 1.4-1.375z" fill="#fabd7f"/><g fill="#fff" transform="translate(0 1020.3622)"><path d="m3.4003906 2c-.7756 0-1.4003906.6133-1.4003906 1.375v1c0-.7617.6247906-1.375 1.4003906-1.375h25.1992184c.7756 0 1.400391.6132 1.400391 1.375v-1c0-.7618-.624791-1.375-1.400391-1.375z" opacity=".1"/><path d="m3.4003906 5c-.7756 0-1.4003906.6133-1.4003906 1.375v1c0-.7617.6247906-1.375 1.4003906-1.375h25.1992184c.7756 0 1.400391.6133 1.400391 1.375v-1c0-.7617-.624791-1.375-1.400391-1.375z" opacity=".2"/><path d="m3.4003906 8c-.7756 0-1.4003906.6133-1.4003906 1.375v1c0-.7617.6247906-1.375 1.4003906-1.375h25.1992184c.7756 0 1.400391.6133 1.400391 1.375v-1c0-.7617-.624791-1.375-1.400391-1.375z" opacity=".2"/></g></g></svg>