<svg height="32" width="32" xmlns="http://www.w3.org/2000/svg"><rect height="28" opacity=".2" rx="1.4" transform="matrix(0 -1 -1 0 0 0)" width="28" x="-31" y="-30"/><rect fill="#fa4778" height="28" rx="1.4" transform="matrix(0 -1 -1 0 0 0)" width="28" x="-30" y="-30"/><path d="m3.4004 2c-.7756 0-1.4004.6248-1.4004 1.4004v1c0-.7756.6248-1.4004 1.4004-1.4004h25.2c.775 0 1.4.6248 1.4 1.4004v-1c0-.7756-.625-1.4004-1.4-1.4004z" fill="#fff" opacity=".2"/><path d="m10 9v16l5-6h4l1-5h-5 5l1-5z" fill="none" opacity=".2" stroke="#000" stroke-linejoin="round" stroke-width="2"/><path d="m10 8v16l5-6h4l1-5h-5 5l1-5z" fill="none" stroke="#fff" stroke-linejoin="round" stroke-width="2"/></svg>