<svg height="32" viewBox="0 0 32 32" width="32" xmlns="http://www.w3.org/2000/svg"><rect height="28" opacity=".2" rx="1.4" transform="matrix(0 -1 -1 0 0 0)" width="28" x="-31" y="-30"/><rect fill="#fa7645" height="28" rx="1.4" transform="matrix(0 -1 -1 0 0 0)" width="28" x="-30" y="-30"/><path d="m9.6666667 8-1.6666667 11.769231 4.799479 6.230769h6.401042l4.799479-6.230769-1.666667-11.769231h-3.333333-6zm2.8632813 1h6.940104l3.529948 10.769231-4.083333 5.230769h-.916667v-2h-4v2h-.916667l-4.083333-5.230769zm.136719 1 .666666 2h1.333334l.666666 4h1.333334l.666666-4h1.333334l.666666-2zm-2 5.923077 2.743489 4.153846.589844-1.845703zm10.666666 0-3.333333 2.308143.589844 1.845703z" fill-rule="evenodd" opacity=".1"/><path d="m9.6666667 7-1.6666667 11.769231 4.799479 6.230769h6.401042l4.799479-6.230769-1.666667-11.769231h-3.333333-6zm2.8632813 1h6.940104l3.529948 10.769231-4.083333 5.230769h-.916667v-2h-4v2h-.916667l-4.083333-5.230769zm.136719 1 .666666 2h1.333334l.666666 4h1.333334l.666666-4h1.333334l.666666-2zm-2 5.923077 2.743489 4.153846.589844-1.845703zm10.666666 0-3.333333 2.308143.589844 1.845703z" fill="#3f3f3f" fill-rule="evenodd"/><path d="m3.4003906 2c-.7756 0-1.4003906.6247906-1.4003906 1.4003906v1c0-.7756.6247906-1.4003906 1.4003906-1.4003906h25.1992184c.7756 0 1.400391.6247906 1.400391 1.4003906v-1c0-.7756-.624791-1.4003906-1.400391-1.4003906z" fill="#fff" opacity=".2"/></svg>