<svg height="32" viewBox="0 0 32 32" width="32" xmlns="http://www.w3.org/2000/svg"><rect height="28" opacity=".2" rx="1.4" transform="matrix(0 -1 -1 0 0 0)" width="28" x="-31" y="-30"/><rect fill="#4f4f4f" height="28" rx="1.4" transform="matrix(0 -1 -1 0 0 0)" width="28" x="-30" y="-30"/><path d="m16.876143 9.0008197c-.07298.00241-.148406.0098-.229687.020755-.914164.1232144-1.165089.3470361-1.724023 1.5343123-.376999.800807-.565602.898598-1.051367 1.004288-2.270899-1.6740676-2.270899.881294-2.717969 1.58965-.612812-.544097-1.4086638-1.720648-2.1956451-2.378392-.7036085-.588062-1.4001267-.9443502-1.9524022-.5732-.4376408.31054-.809472.97682-.9447267 2.505534-.184779 2.088454.00193 3.264213 1.3125004 4.993795 1.481984 1.955797 3.6899906 3.912297 7.1859366 6.368293 1.51424 1.063793 2.783205 1.934145 2.820508 1.934145.209681 0-2.026639-2.939631-3.381054-4.443833-2.024185-2.248037-2.397704-3.047432-2.441447-4.057005-.0395-.912116.346379-1.516324.863712-1.516324.187983 0 1.03879.646194 1.976954 1.723023.781823.854909 1.295868 2.05718 1.920165 2.937175 1.322034 1.670465 2.855183 1.883518 3.424804.475928.551795-1.369656.191643-3.775084-1.069774-5.451169-.141919-.612973.126352-.706234.746484-.705589.78439.000779 2.274064.539692 3.169141 1.324174 1.106114.969443 1.29251.964881 2.523828 3.436136.726834 1.458756 1.447739 2.819289 1.602344 3.022968.275336.362746.281122.360739.285742-.09269-.232346-3.775768-1.52736-7.369369-4.327149-9.948317-.473599-.418922-1.863308-1.440787-3.088476-2.270341-1.785039-1.208644-2.197553-1.4503842-2.708399-1.4333163z" opacity=".2"/><path d="m16.876143 8.0008197c-.07298.00241-.148406.0098-.229687.020755-.914164.1232144-1.165089.3470361-1.724023 1.5343122-.376999.8008071-.565602.8985981-1.051367 1.0042881-2.270899-1.6740676-2.270899.881294-2.717969 1.58965-.612812-.544097-1.4086638-1.720648-2.1956451-2.3783917-.7036085-.5880626-1.4001267-.9443505-1.9524022-.5732006-.4376408.3105401-.809472.9768203-.9447267 2.5055343-.184779 2.088454.00193 3.264213 1.3125004 4.993795 1.481984 1.955797 3.6899906 3.912297 7.1859366 6.368293 1.51424 1.063793 2.783205 1.934145 2.820508 1.934145.209681 0-2.026639-2.939631-3.381054-4.443833-2.024185-2.248037-2.397704-3.047432-2.441447-4.057005-.0395-.912116.346379-1.516324.863712-1.516324.187983 0 1.03879.646194 1.976954 1.723023.781823.854909 1.295868 2.05718 1.920165 2.937175 1.322034 1.670465 2.855183 1.883518 3.424804.475928.551795-1.369656.191643-3.775084-1.069774-5.451169-.141919-.612973.126352-.706234.746484-.705589.78439.000779 2.274064.539692 3.169141 1.324174 1.106114.969443 1.29251.964881 2.523828 3.436136.726834 1.458756 1.447739 2.819289 1.602344 3.022968.275336.362746.281122.360739.285742-.09269-.232346-3.775768-1.52736-7.369369-4.327149-9.948317-.473599-.418922-1.863308-1.440787-3.088476-2.2703412-1.785039-1.2086438-2.197553-1.450384-2.708399-1.4333161z" fill="#8e8e8e"/><ellipse cx="1.037" cy="25.497" opacity=".2" rx="1.419" ry="2.058" transform="matrix(.41803286 -.90843191 .66935843 .74293963 0 0)"/><ellipse cx="1.766" cy="25.041" fill="#0ff" rx="1.419" ry="2.058" transform="matrix(.41803286 -.90843191 .66935843 .74293963 0 0)"/><path d="m3.4003906 2c-.7756 0-1.4003906.6247906-1.4003906 1.4003906v1c0-.7756.6247906-1.4003906 1.4003906-1.4003906h25.1992184c.7756 0 1.400391.6247906 1.400391 1.4003906v-1c0-.7756-.624791-1.4003906-1.400391-1.4003906z" fill="#fff" opacity=".1"/><path d="m16.876953 8c-.07298.00241-.149188.0105294-.230469.0214844-.914164.1232144-1.165675.3478801-1.724609 1.5351562-.376999.8008074-.565016.8982164-1.050781 1.0039064-2.270899-1.6740677-2.27168.881488-2.71875 1.589844-.612812-.544097-1.4083314-1.721163-2.1953128-2.3789066-.7036085-.5880626-1.3988963-.9453687-1.9511718-.5742188-.4376408.3105401-.8100578.9771454-.9453125 2.5058594-.0594028.671396-.0736309 1.243923-.03125 1.775391.0094528-.255144.0059888-.489879.03125-.775391.1352547-1.528714.5076717-2.195319.9453125-2.505859.5522755-.3711506 1.2475634-.013844 1.9511718.574218.7869813.657744 1.5825008 1.83481 2.1953128 2.378907.44707-.708356.447851-3.2639117 2.71875-1.589844.485765-.10569.673782-.203099 1.050781-1.003906.558934-1.1872766.810445-1.4119422 1.724609-1.5351566.081281-.010955.157489-.0190744.230469-.0214844.510846-.0170679.921992.2249497 2.707031 1.433594 1.225168.829554 2.616245 1.852562 3.089844 2.271484 2.635008 2.427164 3.923882 5.754505 4.261719 9.285156.052759.018217.061825-.080001.064453-.33789-.232346-3.775768-1.526383-7.368318-4.326172-9.947266-.473599-.418922-1.864676-1.44193-3.089844-2.2714842-1.785039-1.2086439-2.196185-1.4506617-2.707031-1.4335938zm2.03125 7.029297c-.231226.077871-.327379.245405-.236328.638672.76168 1.012068 1.188907 2.288051 1.291016 3.443359.116995-1.243114-.237795-2.812796-1.054688-4.082031zm-7.296875 1.822265c-.043222.192071-.065089.408257-.054687.648438.043743 1.009573.417221 1.808604 2.441406 4.056641.627434.696823 1.434266 1.692342 2.109375 2.570312.427464.292023 1.254659.873047 1.271484.873047.209681 0-2.026444-2.939157-3.380859-4.443359-1.784468-1.981811-2.262967-2.838442-2.386719-3.705079z" fill="#fff" opacity=".1"/></svg>