<svg height="32" viewBox="0 0 32 32" width="32" xmlns="http://www.w3.org/2000/svg"><path d="m8.5 2.9997652c-.6933566 0-1.2719576.4735763-1.4433594 1.1132812-.402949-.1616543-.8702815-.1539177-1.2792968.0722657-.7244045.3972543-.9923894 1.3127045-.5917969 2.0371093.4005925.727743 1.3093664.9904363 2.0371093.5898438.3703777-.2031103.6194989-.5408754.7226563-.9199219.018852.00753.039375.010803.058594.017578-.035176.7914031.4024523 1.5621955 1.1679688 1.9101563 1.005563.4570737 2.194627.013381 2.648437-.9921875.4570727-1.0022979.0133677-2.1913633-.9921873-2.6484374-.297725-.1353299-.610365-.1837628-.9160156-.1699219-.2039569-.5863308-.7567928-1.0097656-1.4121094-1.0097656z" opacity=".2"/><path d="m4.1712058 7.6758276c.0000805.020349-.00137.041454-.00137.061523.0000028.348572-2.1726877.9800784-2.1698317 2.7286494.8171429-.465714 2.7525332-.4662109 2.8696761-.4662109.014488.020314.031723.037387.046484.057421-.4707977-.6005034-.7322927-1.6184308-.7449584-2.3813825z" opacity=".2"/><path d="m14.513177 26.335157c-.0057.0043.007.04247.04522.0875-.02041-.04979-.04084-.09081-.04522-.0875zm.04522.0875c.0055.0133.0062.005.01233.02324.41363 1.129728-.232682 1.949211-.400177 2.138281-1.351001.141433-2.632972.680417-2.734829.782031-.466832.351428-.466581.933728-.228868 1.285156.234857.231431.584702.348635.81955.348635.234847 0 .466831-.116646.70168-.233789.231983-.117143 1.260641-.766211 2.079745-.766211s1.355201.531925 1.590049.766211c.466832.348572 1.053952.230993 1.40336-.117578.349407-.348571.348971-.930994-.117861-1.282422-.04583-.04572-.327936-.185203-.70305-.332227-.0013-.0072.000126-.01171-.0014-.01914 0 0-.77051-.349067-.77051-1.86621 0-.234285-.469634-.699565-1.05389-.582422-.347509.05802-.521885-.05601-.596156-.143555z" opacity=".2"/><path d="m4.1712058 6.6758276c.0000805.020349-.00137.041454-.00137.061523.0000028.348572-2.1726877.9800784-2.1698317 2.7286494.8171429-.4657139 2.7525332-.4662109 2.8696761-.4662109.014488.020314.031723.037387.046484.057421-.4707977-.6005034-.7322927-1.6184308-.7449584-2.3813825z" fill="#ff9d20"/><path d="m14.513177 25.335157c-.0057.0043.007.04247.04522.0875-.02041-.04979-.04084-.09081-.04522-.0875zm.04522.0875c.0055.0133.0062.005.01233.02324.41363 1.129728-.232682 1.949211-.400177 2.138281-1.351001.141433-2.632972.680417-2.734829.782031-.466832.351428-.466581.933728-.228868 1.285156.234857.231431.584702.348635.81955.348635.234847 0 .466831-.116646.70168-.233789.231983-.117143 1.260641-.766211 2.079745-.766211s1.355201.531925 1.590049.766211c.466832.348572 1.053952.230993 1.40336-.117578.349407-.348571.348971-.930994-.117861-1.282422-.04583-.04572-.327936-.185203-.70305-.332227-.0013-.0072.000126-.01171-.0014-.01914 0 0-.77051-.349067-.77051-1.86621 0-.234285-.469634-.699565-1.05389-.582422-.347509.05802-.521885-.05601-.596156-.143555z" fill="#ff9d20"/><g fill="#e53d3d"><path d="m8.5000001 1.9999997c-.8276836 0-1.5000001.6723165-1.5000001 1.5000001 0 .8276838.6723165 1.5000002 1.5000001 1.5000002.8276838 0 1.4999999-.6723164 1.4999999-1.5000002 0-.8276836-.6723161-1.5000001-1.4999999-1.5000001z"/><path d="m10.827631 3.1798649c-1.005562-.457074-2.19069-.013059-2.6477644.9925035-.4570737 1.0055629-.013064 2.1906906.9925034 2.647765 1.005563.4570737 2.193955.013064 2.647766-.992504.457073-1.002298.01305-2.1906904-.992505-2.6477645z"/><path d="m5.777264 3.1857059c-.7244045.3972543-.9914662 1.3119406-.5908737 2.0363454.4005925.727743 1.3086026.9914664 2.0363456.5908739.7244047-.3972542.9914662-1.3119405.5908739-2.0363453-.3972539-.7244048-1.3119404-.9914664-2.0363458-.590874z"/></g><path d="m7.4988886 5c-1.8559546.00221-3.3874834 1.4464717-3.4904297 3.2915481-.00994.083273-.00853.166704-.0082.2491123.0000227.00139-.0000243.00272 0 .00411.013535.7581964.2751639 1.4913546.7451172 2.0881856.5790936.782466 1.2546239 1.3627 1.2546239 2.383555 0 1.974274-1 3.367779-1 6.155658 0 5.809031 7.259934 8.827831 10.525649 8.827831 1.637984 0 2.945344-.317507 3.776172-.638435 3.465414-1.49141 5.028392-6.437308 8.698179-8.361565-.351429-.463699-.666823-1.121286-1.601109-1.354557.468572-.580334.783966-.528807 1.601109-.645443-.582857-.69697-1.273419-1.441382-2.090562-1.441382 1.4-.349908 3.090562-2.814771 3.090562-4.558618-.465717 1.160667-4.260006 4-11.025721 4-4.720491-.404415-5.898351-5.0902583-7.486719-8.3229167-.6242335-1.0246811-1.7492878-1.6757516-2.9886714-1.6770833z" opacity=".2"/><path d="m7.4988886 4c-1.8559546.00221-3.3874834 1.4464717-3.4904297 3.2915481-.00994.083273-.00853.166704-.0082.2491123.0000227.00139-.0000243.00272 0 .00411.013535.7581964.2751639 1.4913548.7451172 2.088186.5790936.7824656 1.2546239 1.3626996 1.2546239 2.3835546 0 1.974274-1 3.367779-1 6.155658 0 5.809031 7.259934 8.827831 10.525649 8.827831 1.637984 0 2.945344-.317507 3.776172-.638435 3.465414-1.49141 5.028392-6.437308 8.698179-8.361565-.351429-.463699-.666823-1.121286-1.601109-1.354557.468572-.580334.783966-.528807 1.601109-.645443-.582857-.69697-1.273419-1.441382-2.090562-1.441382 1.4-.349908 3.090562-2.814771 3.090562-4.558618-.465717 1.160667-4.260006 4-11.025721 4-4.720491-.404415-5.898351-5.0902583-7.486719-8.3229167-.6242335-1.0246811-1.7492878-1.6757516-2.9886714-1.6770833z" fill="#d8bfa2"/><path d="m7 9.5c.7469385 0 1.5-.7530615 1.5-1.5s-.7469385-1.5-1.5-1.5-1.5.7530615-1.5 1.5.7469385 1.5 1.5 1.5z" opacity=".2"/><path d="m7 8.5c.7469385 0 1.5-.7530615 1.5-1.5s-.7469385-1.5-1.5-1.5-1.5.7530615-1.5 1.5.7469385 1.5 1.5 1.5z" fill="#fff"/><circle cx="7" cy="7" fill="#3f3f3f" fill-rule="evenodd" r="1"/><path d="m8.5 2c-.6933566 0-1.2719576.4735763-1.4433594 1.1132812-.402949-.1616542-.8702816-.1539177-1.2792968.0722657-.652897.3580404-.9294951 1.1357439-.6855469 1.8164062.1186895-.3355928.3502376-.6325269.6855469-.8164062.4090152-.2261834.8763478-.2339199 1.2792968-.0722657.1714018-.6397049.7500028-1.1132812 1.4433594-1.1132812.6553166 0 1.2081525.4234348 1.4121094 1.0097656.3056506-.0138409.6182906.034592.9160156.1699219.572992.2604532.956149.7603523 1.101563 1.3261719.242551-.9228205-.201907-1.9172342-1.101563-2.3261719-.297725-.1353299-.610365-.1837628-.9160156-.1699219-.2039569-.5863308-.7567928-1.0097656-1.4121094-1.0097656z" fill="#fff" opacity=".1"/><path d="m7.4980469 4c-1.8559546.00221-3.3872881 1.4459392-3.4902344 3.2910156-.00994.083273-.0081425.1675917-.0078125.25.0000227.00139-.0000243.0025163 0 .0039063.0029022.1625731.0235051.3232482.0488281.4824219.2290106-1.7143867 1.6845882-3.0252425 3.4492188-3.0273438 1.2393836.0013317 2.3660008.6530533 2.9902341 1.6777344 1.588368 3.2326584 2.765837 7.9178506 7.486328 8.3222656 5.912064 0 9.553493-2.166752 10.689453-3.488281.207045-.519534.335938-1.041438.335938-1.511719-.465717 1.160667-4.259676 4-11.025391 4-4.720491-.404415-5.89796-5.0896072-7.486328-8.3222656-.6242333-1.0246811-1.7508505-1.6764027-2.9902341-1.6777344zm-1.5351563 8.625c-.1694201 1.674807-.9628906 3.05447-.9628906 5.546875 0 .123467.0208925.238431.0273438.359375.1372995-2.364704.9726562-3.70195.9726562-5.515625 0-.138303-.0142314-.266898-.0371094-.390625zm20.9921874 2.337891c-.347007.295422-.703755.510433-1.044922.595703.457889 0 .872189.242154 1.253906.570312.221205-.054492.476006-.077531.835938-.128906-.315066-.37675-.663932-.757707-1.044922-1.037109zm.308594 2.146484c-.330007.064612-.574072.174547-.865234.535156.511891.127809.832039.385135 1.080078.666016.170538-.10831.341258-.216045.521484-.310547-.207811-.2742-.418297-.608658-.736328-.890625z" fill="#fff" opacity=".2"/></svg>