<svg height="12pt" viewBox="0 0 12 12" width="12pt" xmlns="http://www.w3.org/2000/svg"><path d="m2.726562 2.183594s-.542968 0-.542968.542968v2.726563h1.089844v-.542969h.433593l.929688-.933594.386719-.382812 1.316406 1.316406h2.386718v3.816406h-2.910156l-.789062.796876-.792969-.796876h-.957031v-1.085937l-1.089844-.003906v1.636719s0 .542968.546875.542968h6.542969c.546875 0 .546875-.542968.546875-.542968v-6.546876s0-.542968-.546875-.542968zm2.296876 2.179687-.753907.757813.890625.890625-3.519531-.011719v1.089844l3.523437.011718-.890624.890626.757812.757812 2.179688-2.203125zm0 0" fill="#d3dae3"/></svg>