<svg height="12pt" viewBox="0 0 12 12" width="12pt" xmlns="http://www.w3.org/2000/svg"><path d="m7.828125 3.296875c-.121094.027344-.230469.09375-.304687.1875l-3.425782 3.921875-1.226562-1.226562c-.207032-.207032-.578125-.207032-.785156 0-.207032.207031-.207032.578124 0 .785156l2.0625 2.042968 4.191406-4.804687c.308594-.335937-.0625-.996094-.511719-.90625zm0 0" fill="#d3dae3"/><path d="m9.859375 3.296875c-.128906.027344-.246094.101563-.328125.203125l-3.65625 4.179688-.191406-.1875-.773438.882812.566406.578125.453126.4375.398437-.472656 4.074219-4.652344c.332031-.363281-.066406-1.066406-.542969-.96875zm0 0" fill="#d3dae3"/></svg>