<svg height="64" width="64" xmlns="http://www.w3.org/2000/svg"><rect height="32" opacity=".2" rx="2.5" width="50" x="7" y="24"/><path d="m7 44.5c0 1.385 1.115 2.5 2.5 2.5h45c1.385 0 2.5-1.115 2.5-2.5v-27c0-1.385-1.115-2.5-2.5-2.5h-25.5v-2.5c0-1.385-1.115-2.5-2.5-2.5h-17c-1.385 0-2.5 1.115-2.5 2.5" fill="#727272"/><rect height="32" opacity=".2" rx="2.5" width="50" x="7" y="22"/><rect fill="#e4e4e4" height="20" rx="2.5" width="44" x="10" y="18"/><rect fill="#8e8e8e" height="32" rx="2.5" width="50" x="7" y="23"/><path d="m9.5 10c-1.385 0-2.5 1.115-2.5 2.5v1c0-1.385 1.115-2.5 2.5-2.5h17c1.385 0 2.5 1.115 2.5 2.5v-1c0-1.385-1.115-2.5-2.5-2.5zm19.5 5v1h25.5c1.39 0 2.5 1.115 2.5 2.5v-1c0-1.385-1.11-2.5-2.5-2.5z" fill="#fff" opacity=".1"/><path d="m29.476 29v .004l-.222 2.633a7.9283 7.8567 0 0 0 -2.317 1.328l-2.414-1.129-2.523 4.332 2.195 1.512a7.9283 7.8567 0 0 0 -.125 1.324 7.9283 7.8567 0 0 0  .117 1.332l-2.187 1.5 2.523 4.332 2.41-1.129a7.9283 7.8567 0 0 0 2.324 1.324l.219 2.637h5.047l.223-2.633a7.9283 7.8567 0 0 0 2.316-1.328l2.414 1.125 2.524-4.328-2.191-1.508a7.9283 7.8567 0 0 0  .117-1.328 7.9283 7.8567 0 0 0 -.117-1.328l2.188-1.508-2.52-4.328-2.414 1.125a7.9283 7.8567 0 0 0 -2.32-1.32l-.219-2.641h-5.047zm2.524 6a4 4 0 0 1 4 4 4 4 0 0 1 -4 4 4 4 0 0 1 -4-4 4 4 0 0 1 4-4z" fill="#323232"/></svg>