<svg height="32" width="32" xmlns="http://www.w3.org/2000/svg"><path d="m27.90368 6.7271309c1.168734-.000739 2.109629.9408943 2.109629 2.1096294v17.6105187c0 1.168735-.940895 2.109629-2.109629 2.109629h-23.807359c-1.168735 0-2.109682-.940894-2.10963-2.109629l.000732-16.244506.000731-5.0669081c0-.9377959.754977-1.6927729 1.692773-1.6927729h9.09082c.937797 0 1.704839.371321 2.299888 1.096152l1.801865 2.1948598z" fill="#289ea1"/><path d="m20.499992 11.262712a3.5 3.5 0 0 0 -3.5 3.5 3.5 3.5 0 0 0  .002.02734l-2.324265 3.554687a3 3 0 0 0 -.677735-.08203 3 3 0 0 0 -1.30664.302734l-4.425782-2.554684a10 10 0 0 0 -.267578 2.251953 10 10 0 0 0  .07227 1.099609l2.935547 1.69336a3 3 0 0 0 -.0078.207031 3 3 0 0 0 3 3 3 3 0 0 0 2.999999-3 3 3 0 0 0 -.0332-.408203l3.638672-2.597656a3.5 3.5 0 0 0 3.394528-3.494141 3.5 3.5 0 0 0 -3.5-3.5zm0 1a2.5 2.5 0 0 1 2.5 2.5 2.5 2.5 0 0 1 -2.5 2.5 2.5 2.5 0 0 1 -2.5-2.5 2.5 2.5 0 0 1 2.5-2.5zm0 1a1.5 1.5 0 0 0 -1.5 1.5 1.5 1.5 0 0 0 1.5 1.5 1.5 1.5 0 0 0 1.5-1.5 1.5 1.5 0 0 0 -1.5-1.5zm-6.5 6a2 2 0 0 1 2 2 2 2 0 0 1 -2 2 2 2 0 0 1 -1.958985-1.611328l.705078.408203c.719667.4155 1.633328.170839 2.048828-.548828s.17084-1.633328-.548828-2.048828l-.337891-.195313a2 2 0 0 1  .0918-.0039z" fill-opacity=".65098"/></svg>