<svg height="32" width="32" xmlns="http://www.w3.org/2000/svg"><path d="m27.90368 6.7271309c1.168734-.0007388 2.109629.940894 2.109629 2.1096296v17.6105185c0 1.168735-.940895 2.109629-2.109629 2.109629h-23.807359c-1.168735 0-2.109682-.940894-2.10963-2.109629l.000732-16.244506.000731-5.0669076c0-.9377965.754977-1.6927734 1.692773-1.6927734h9.09082c.937797 0 1.704839.3713213 2.299888 1.0961521l1.801865 2.1948598z" fill="#e25252"/><path d="m12 16.398305a1.5 1.5 0 0 0 -1.5 1.5 1.5 1.5 0 0 0 1.5 1.5 1.5 1.5 0 0 0 1.5-1.5 1.5 1.5 0 0 0 -1.5-1.5zm4 0a1.5 1.5 0 0 0 -1.5 1.5 1.5 1.5 0 0 0 1.5 1.5 1.5 1.5 0 0 0 1.5-1.5 1.5 1.5 0 0 0 -1.5-1.5zm4 0a1.5 1.5 0 0 0 -1.5 1.5 1.5 1.5 0 0 0 1.5 1.5 1.5 1.5 0 0 0 1.5-1.5 1.5 1.5 0 0 0 -1.5-1.5z" fill="#4f1d1d"/></svg>