<svg height="64" width="64" xmlns="http://www.w3.org/2000/svg"><rect height="32" opacity=".2" rx="2.5" width="50" x="7" y="24"/><path d="m7 44.5c0 1.385 1.115 2.5 2.5 2.5h45c1.385 0 2.5-1.115 2.5-2.5v-27c0-1.385-1.115-2.5-2.5-2.5h-25.5v-2.5c0-1.385-1.115-2.5-2.5-2.5h-17c-1.385 0-2.5 1.115-2.5 2.5" fill="#8b58c5"/><rect height="32" opacity=".2" rx="2.5" width="50" x="7" y="22"/><rect fill="#e4e4e4" height="20" rx="2.5" width="44" x="10" y="18"/><rect fill="#a674de" height="32" rx="2.5" width="50" x="7" y="23"/><path d="m9.5 10c-1.385 0-2.5 1.115-2.5 2.5v1c0-1.385 1.115-2.5 2.5-2.5h17c1.385 0 2.5 1.115 2.5 2.5v-1c0-1.385-1.115-2.5-2.5-2.5zm19.5 5v1h25.5c1.39 0 2.5 1.115 2.5 2.5v-1c0-1.385-1.11-2.5-2.5-2.5z" fill="#fff" opacity=".1"/><path d="m32 29c-5.523 0-10 4.477-10 10s4.477 10 10 10 10-4.477 10-10-4.477-10-10-10zm-.714 2.768c.095-.01.216.006.312 0 .012.046-.069.208-.178.446-.694 1.517-.734 3.292-.09 4.241.117.172.224.336.224.357 0 .022-.126.045-.268.045-.334 0-.65-.203-1.295-.714-.286-.227-.659-.418-.803-.447-.227-.045-.288-.025-.581.268-.273.273-.357.42-.357.67 0 .947 1.124 1.7 3.214 2.143 2.838.601 3.538 1.141 3.616 2.634.099 1.871-.898 3.282-3.08 4.375-.26.13-.426.181-.536.223-.048-.004-.085.004-.134 0-.018-.058-.044-.192-.044-.446 0-.994-.392-2.018-.982-2.59-.159-.153-.602-.479-.982-.714s-.763-.508-.849-.625c-.141-.194-.153-.312-.044-.67.198-.652.434-1.016.893-1.428.24-.216.482-.398.535-.402.054-.004-.307-.113-.848-.223-.541-.111-1.332-.343-1.741-.491-.748-.271-1.758-.839-2.143-1.25-.016-.018-.03-.03-.044-.045.551-2.197 2.099-3.998 4.151-4.866.43-.182.872-.306 1.34-.402.232-.047.474-.065.714-.089zm6.696 3.348c.168.104.801 1.474.982 2.143.234.863.217 2.357 0 3.214-.082.327-.188.632-.223.67s-.163-.181-.312-.446c-.15-.266-.629-.831-1.027-1.25-1.149-1.213-1.33-1.846-.848-2.813.242-.488 1.298-1.598 1.428-1.518z" fill="#3a284d"/></svg>