<svg height="32" width="32" xmlns="http://www.w3.org/2000/svg"><path d="m27.90368 6.7271311c1.168734-.000739 2.109629.9408943 2.109629 2.1096293v17.6105186c0 1.168735-.940895 2.109629-2.109629 2.109629h-23.807359c-1.168735 0-2.109682-.940894-2.10963-2.109629l.000732-16.244506.000731-5.066908c0-.937796.754977-1.692773 1.692773-1.692773h9.09082c.937797 0 1.704839.371321 2.299888 1.096152l1.801865 2.19486z" fill="#856b35"/><path d="m12.169029 21.112034c-.03356-.02169-.09572-.03972-.138129-.04006-.164331-.0013-.672794-.289715-.915525-.519263-.13655-.129133-.248273-.255263-.248273-.280287 0-.02502-.02739-.06823-.06086-.09601-.128013-.106242-.306847-.553531-.366054-.915553-.111344-.680832-.07918-1.023281.152716-1.626039.145197-.377397.129094-.353723.499805-.734809.208025-.213847.36144-.329628.559421-.422192l.272792-.12754v-.17699c0-.57304.518288-1.378313 1.037473-1.611942.431307-.194084.537213-.215553.950854-.19276.219903.01212.434626.03992.477162.06178.04254.02186.159725.08222.260421.134135.100696.05191.207276.118293.236846.147513.0819.08093.104568.06842.253979-.140128.277204-.386928.705962-.759197.971448-.843458.04607-.01462.08376-.03987.08376-.05611 0-.02866.253008-.116248.594656-.205867.239244-.06276.861202-.05424 1.163819.01595.263098.06102.831305.324963.92675.430499.01119.01237.08939.07434.173775.137715.188979.141913.59301.65117.663722.83658.0128.03356.0493.109623.08111.169018.03181.05939.05784.144834.05784.189864s.01861.08808.04137.09566c.02275.0076.06841.231744.101452.498133.03304.266388.06478.488408.07052.493376.0057.005.147746.07346.315572.152207.207192.09722.383497.22066.549251.384571.289412.286196.306699.308064.428424.541961.164276.315663.17481.340285.216603.506255.0556.220795.05227 1.339309-.0047 1.566381-.08514.339599-.328049.762503-.589828 1.026904-.142871.144302-.569768.437764-.636812.437764-.03782 0-.08615.01689-.107409.03753-.02126.02064-.151144.06641-.288634.101713-.218877.05619-.71503.0641-3.987152.06356-2.34253-.000391-3.759943-.01534-3.798196-.04006z" fill-opacity=".65098"/></svg>