<svg height="32" width="32" xmlns="http://www.w3.org/2000/svg"><path d="m27.90368 6.727131c1.168734-.0007388 2.109629.940894 2.109629 2.1096296v17.6105184c0 1.168735-.940895 2.109629-2.109629 2.109629h-23.807359c-1.168735 0-2.109682-.940894-2.10963-2.109629l.000732-16.244506.000731-5.0669075c0-.9377965.754977-1.6927735 1.692773-1.6927735h9.09082c.937797 0 1.704839.371321 2.299888 1.0961522l1.801865 2.1948598z" fill="#e25252"/><g fill="#4f1d1d" stroke="#e25252" stroke-linecap="round" stroke-linejoin="round" stroke-width=".5"><circle cx="18" cy="16.741525" r="2.25"/><circle cx="22.5" cy="20.741525" r="1.25"/><circle cx="19.75" cy="19.491525" r="2.5"/><circle cx="10.5" cy="19.741525" r="2.25"/><circle cx="12.75" cy="14.991525" r="1.5"/><circle cx="13" cy="17.741525" r="2.75"/><circle cx="12.75" cy="20.741525" r="1.25"/><circle cx="15.25" cy="15.491525" r="2.5"/><circle cx="15.999" cy="18.742524" r="3.249"/></g></svg>