<svg height="32" width="32" xmlns="http://www.w3.org/2000/svg"><path d="m27.90368 6.7271305c1.168734-.000739 2.109629.940894 2.109629 2.10963v17.6105185c0 1.168735-.940895 2.109629-2.109629 2.109629h-23.8073588c-1.168735 0-2.109682-.940894-2.10963-2.109629l.000732-16.244506.000731-5.0669079c0-.937796.754977-1.692773 1.692773-1.692773h9.0908198c.937797 0 1.704839.371321 2.299888 1.096152l1.801865 2.1948594z" fill="#f49940"/><g fill="#4f301d" stroke="#f49940" stroke-linecap="round" stroke-linejoin="round" stroke-width=".5"><circle cx="18" cy="16.877119" r="2.25"/><circle cx="22.5" cy="20.877119" r="1.25"/><circle cx="19.75" cy="19.627119" r="2.5"/><circle cx="10.5" cy="19.877119" r="2.25"/><circle cx="12.75" cy="15.127119" r="1.5"/><circle cx="13" cy="17.877119" r="2.75"/><circle cx="12.75" cy="20.877119" r="1.25"/><circle cx="15.25" cy="15.627119" r="2.5"/><circle cx="15.999" cy="18.878118" r="3.249"/></g></svg>