<svg height="32" width="32" xmlns="http://www.w3.org/2000/svg"><path d="m27.90368 6.7271305c1.168734-.0007388 2.109629.9408941 2.109629 2.1096297v17.6105188c0 1.168735-.940895 2.109629-2.109629 2.109629h-23.80736c-1.168735 0-2.109682-.940894-2.109629-2.109629l.000731-16.244506.000731-5.0669081c0-.9377965.754977-1.6927733 1.692773-1.6927733h9.090821c.937797 0 1.704839.3713212 2.299888 1.096152l1.801865 2.1948599z" fill="#4f4f4f"/><path d="m16 11.627119c-3.313 0-6 2.687-6 6 0 3.314 2.687 6 6 6h3.75s.703-.301.75-1.051c0-.75-.75-.949-.75-.949h-3.75c-.195-.001-.389-.017-.582-.047-.7-.079-1.256-.299-1.676-.652l-.006-.004c-1.086-.746-1.736-1.979-1.736-3.297 0-2.209 1.791-4 4-4s4 1.791 4 4c0 .454-.092.745-.24 1.002-.004 0-.007-.002-.01-.002h-.934c.112-.314.184-.648.184-1 0-1.657-1.343-3-3-3-1.656 0-3 1.343-3 3s1.343 3 3 3h3.75c.542-.05.923-.371 1.27-.576.762-.544.98-1.31.98-2.424 0-3.314-2.686-6-6-6zm0 5c .552 0 1 .448 1 1s-.448 1-1 1-1-.448-1-1 .448-1 1-1z" fill-opacity=".65098"/></svg>