<svg height="32" width="32" xmlns="http://www.w3.org/2000/svg"><rect fill="#7dc842" fill-rule="evenodd" height="28.203388" ry="5.575182" width="28.203388" x="1.898306" y="1.898306"/><path d="m8.16793 11.118678 2.55441 13.220703h4.121787 6.638826l2.554411-13.220703h-9.193237z" fill="#ececec"/><rect fill="#666" height="2.583149" rx="1.277491" ry="1.13502" width="18.237288" x="6.983053" y="8.844019"/><path d="m16.662941 21.096438c-.26559-.460378-.481443-.843661-.479673-.851738.0017-.0081.219072-.388525.482892-.84544l.479672-.830754.0049.348356.0049.348356.908323.0025.908323.0025-.01155-.02208c-.0064-.01214-.194526-.339247-.418166-.726901-.223639-.387653-.469154-.813247-.545589-.945764l-.138973-.240939.851525-.491683c.468339-.270425.854747-.487983.858686-.483463.01975.02266.871618 1.513099.889751 1.556716.03392.08158.06005.205791.06667.316948.0098.164515-.02771.346166-.10199.493758-.02093.04159-.307149.538284-1.035128 1.796325-.176108.304336-.206005.347243-.310787.446016-.156219.147262-.3448.234258-.560399.258522-.0505.0057-.360675.0099-.726727.01l-.638623.000081-.0026.347871-.0026.347872zm-2.847898.130872c-.268158-.03486-.532769-.197691-.681486-.419351-.05704-.08502-1.161435-1.99783-1.21289-2.100728-.119514-.239002-.124934-.563651-.01363-.816504.01799-.04087.176604-.323024.352472-.627002.252532-.436487.317175-.555098.307466-.564165-.0068-.0063-.133434-.08093-.281496-.165822-.148062-.08489-.277893-.160299-.288513-.16758-.01629-.01117.133342-.01324.95535-.01324h.97466l.484812.839427c.266646.461685.48348.840978.481851.842874-.0016.0019-.137863-.07457-.302745-.169914-.164882-.09535-.301663-.171483-.303959-.169188-.0069.0069-.905062 1.564143-.905062 1.569248 0 .0026.499985.0047 1.111078.0047h1.111078v.983818.983818l-.8639-.0012c-.475144-.000683-.891433-.0048-.925085-.0092zm.398492-5.363698c-.465276-.268642-.847291-.492446-.848923-.497341-.0043-.01267.852816-1.494319.899477-1.555015.122291-.159074.317297-.286894.525397-.344379l.09503-.02625h1.287284 1.287284l.08752.02228c.101002.02572.239801.08878.329728.149821.0789.05355.188594.162838.239937.239043.02176.03231.181805.305424.355645.606933.17384.301508.316919.549228.317953.55049.0011.0013.138143-.07642.304685-.172624.166542-.0962.303894-.173971.305226-.172816.0014.0011-.216724.381668-.484567.845584l-.486988.843481-.978108.000049c-.537959.00003-.976272-.0016-.974028-.0036.0022-.002.136233-.07964.297756-.17255.161522-.09291.297328-.172243.301792-.176295.0062-.0056-.83121-1.47373-.889128-1.55888-.01-.01469-.08965.11805-.55811.929976-.300552.520911-.551508.954624-.557681.963807-.01.01488-.10343-.03654-.85718-.471743z" fill="#666" stroke-width=".009789"/></svg>