<svg height="32" width="32" xmlns="http://www.w3.org/2000/svg"><g transform="translate(42.02985 -.238806)"><path d="m-20.842869 2.238806h-13.65097c-3.066406 0-5.536011 2.4676663-5.536011 5.5340721v16.9299169c0 3.066406 2.469605 5.536011 5.536011 5.536011h16.929917c3.066406 0 5.534072-2.469605 5.534072-5.536011v-13.65097z" fill="#6e6e6e" fill-rule="evenodd"/><path d="m-12.02985 11.051825-8.813019-8.8130189v3.2789473c0 3.0664056 2.467666 5.5340716 5.534072 5.5340716z" fill="#b7b7b7" fill-rule="evenodd"/></g><path d="m8.8059704 10.360697v13.189055h14.3880596v-13.189055zm1.1990046 2.39801h11.99005v9.59204h-11.99005zm2.39801 1.199005v3.059861h3.007105v-3.059861zm4.213304 0v3.059861h2.980726v-3.059861zm-4.213304 4.134169v3.059861h3.007105v-3.059861zm4.213304 0v3.059861h2.980726v-3.059861z" fill="#b7b7b7"/></svg>