<svg height="32" viewBox="0 0 32 32" width="32" xmlns="http://www.w3.org/2000/svg"><g transform="translate(34.600504 -2.193441)"><path d="m21.186981 1.9999999h-13.65097c-3.066406 0-5.536011 2.4676663-5.536011 5.5340721v16.929917c0 3.066406 2.469605 5.536011 5.536011 5.536011h16.929917c3.066406 0 5.534072-2.469605 5.534072-5.536011v-13.65097z" fill="#6060ca" fill-rule="evenodd" transform="translate(-34.600504 2.193441)"/><path d="m-4.6005036 13.00646-8.8130194-8.8130194v3.2789473c0 3.0664061 2.467666 5.5340721 5.5340724 5.5340721z" fill="#373757" fill-rule="evenodd"/></g><path d="m8.4659375 10.575273v10.045416h3.7670305v-8.789739h3.767031v2.511354h3.767031v-3.767031h-10.0454155zm1.255677 1.255677h1.2556775v1.255677h-1.2556775zm7.5340615 0h1.255677v1.255677h-1.255677zm-7.5340615 2.511354h1.2556775v2.511354h-1.2556775zm3.7670305 1.255677v7.534062l2.511354 2.511354v-2.511354h7.534062v-7.534062zm1.255677 1.255677h7.534062v5.022708h-7.534062zm-5.0227075 1.255677h1.2556775v1.255677h-1.2556775z" fill="#373757"/></svg>