<svg height="32" width="32" xmlns="http://www.w3.org/2000/svg"><g transform="translate(-384.57143 -515.798)"><g transform="translate(41.49153 -.0678)"><path d="m364.26688 517.8658h-13.65097c-3.0664 0-5.53601 2.46767-5.53601 5.53407v16.92992c0 3.0664 2.46961 5.53601 5.53601 5.53601h16.92992c3.0664 0 5.53407-2.46961 5.53407-5.53601v-13.65097z" fill="#d2d7d9" fill-rule="evenodd"/><path d="m373.0799 526.67882-8.81302-8.81302v3.27895c0 3.0664 2.46767 5.53407 5.53407 5.53407z" fill="#5c6976" fill-rule="evenodd"/></g><path d="m399.27082 537.5801c-1.01918 0-1.71407-.49427-1.52877-1.75267.23163-1.57312 1.20448-2.09002 4.28517-2.517.0232 0 .97285-.15721.97285-.15721l-.39377 2.78657c-.83387 1.01116-2.33947 1.64031-3.33548 1.64031zm3.17334-.13468.0463 1.30326h1.32029l1.20448-8.42698c.37061-2.56176-1.13499-3.30336-3.24283-3.30336-1.5056 0-2.98803.42698-3.86823.92145l.25479 1.39318c.94969-.44941 2.24682-.76393 3.42814-.76393 1.45927 0 1.99202.69653 1.80672 2.04486l-.20847 1.28092-1.08866.13479c-2.80274.42697-5.53598.85395-5.97608 3.86511-.32428 2.15732.99601 3.12362 2.75641 3.12362 1.11183 0 2.47845-.40444 3.56711-1.57292z" fill="#5c6976"/></g></svg>