<svg height="32" width="32" xmlns="http://www.w3.org/2000/svg"><g transform="translate(48.597014 -2.746268)"><path d="m-27.410033 4.7462686h-13.65097c-3.066406 0-5.536011 2.4676663-5.536011 5.5340724v16.929916c0 3.066406 2.469605 5.536011 5.536011 5.536011h16.929917c3.066406 0 5.534072-2.469605 5.534072-5.536011v-13.650969z" fill="#ff9639" fill-rule="evenodd"/><path d="m-18.597014 13.559288-8.813019-8.8130193v3.2789473c0 3.066406 2.467666 5.534072 5.534072 5.534072z" fill="#a96e3a" fill-rule="evenodd"/></g><path d="m15.38071 10.453191a.5.5 0 0 0 -.3457.146481.5.5 0 0 0 0 .70703l3.205 3.205a4 4 0 0 0 -.24023-.008h-7.5a.5.5 0 0 0 -.5.5.5.5 0 0 0  .5.5h4.793l-5.146 5.146a.500012.5 0 0 0 0 .70704.500012.5 0 0 0  .70704 0l3.164-3.164a4 4 0 0 0 -.0176.31055 4 4 0 0 0 4 4 4 4 0 0 0 4-4 4 4 0 0 0 -.96094-2.5957l.006-.006-.135-.135a4 4 0 0 0 -.20313-.20312l-4.965-4.965a.5.5 0 0 0 -.36133-.146481m2.61902 5.051111a3 3 0 0 1 1.99609.76367l.227.227a3 3 0 0 1  .77734 2.00977 3 3 0 0 1 -3 3 3 3 0 0 1 -3-3 3 3 0 0 1 3-3m0 2a1 1 0 0 0 -1 1 1 1 0 0 0 1 1 1 1 0 0 0 1-1 1 1 0 0 0 -1-1" opacity=".4" stroke-width="2"/></svg>