<svg height="32" width="32" xmlns="http://www.w3.org/2000/svg"><g transform="translate(44.895522 -5.014925)"><path d="m-23.708541 7.0149254h-13.65097c-3.066406 0-5.536011 2.4676663-5.536011 5.5340726v16.929916c0 3.066406 2.469605 5.536011 5.536011 5.536011h16.929917c3.066406 0 5.534072-2.469605 5.534072-5.536011v-13.65097z" fill="#54ca75" fill-rule="evenodd"/><path d="m-14.895522 15.827944-8.813019-8.8130185v3.2789475c0 3.066406 2.467666 5.534071 5.534072 5.534071z" fill="#3d6a4a" fill-rule="evenodd"/></g><path d="m12 11.075747v3h1v1.65a1.500006 1.500006 0 0 0 -1 1.41211 1.500006 1.500006 0 0 0 1 1.41211v1.525h-1v3h3v-1.809a6.999994 6 0 0 0 5 1.80859v-1a5.999996 5.00001 0 0 1 -5.76953-3.63086 1.500006 1.500006 0 0 0  .76953-1.30664 1.500006 1.500006 0 0 0 -.79883-1.32227 5.999996 5.00001 0 0 1 5.79883-3.74023v-1a6.999994 6 0 0 0 -5 1.80273v-1.803zm1 1h1v1h-1zm0 9h1v1h-1z" fill="#3d6a4a"/></svg>