<svg height="32" width="32" xmlns="http://www.w3.org/2000/svg"><path d="m21.186981 2h-13.65097c-3.066406 0-5.536011 2.467667-5.536011 5.5340723v16.9299167c0 3.066406 2.469605 5.536011 5.536011 5.536011h16.929917c3.066406 0 5.534071-2.469605 5.534071-5.536011v-13.65097z" fill="#3e50b4" fill-rule="evenodd"/><path d="m29.999999 10.813019-8.813018-8.813019v3.2789476c0 3.0664056 2.467666 5.5340714 5.534072 5.5340714z" fill="#334294" fill-rule="evenodd"/><path d="m21.313559 10.271186a1.7711864 1.7711864 0 0 0 -1.771186 1.771187 1.7711864 1.7711864 0 0 0 1.771186 1.771186 1.7711864 1.7711864 0 0 0 1.771187-1.771186 1.7711864 1.7711864 0 0 0 -1.771187-1.771187zm-6.49435 2.361582a5.9039548 5.9039548 0 0 0 -5.903955 5.903955 5.9039548 5.9039548 0 0 0 5.903955 5.903955 5.9039548 5.9039548 0 0 0 5.903955-5.903955 5.9039548 5.9039548 0 0 0 -5.903955-5.903955zm1.771186 2.361582a1.7711864 1.7711864 0 0 1 1.771187 1.771187 1.7711864 1.7711864 0 0 1 -1.771187 1.771186 1.7711864 1.7711864 0 0 1 -1.771186-1.771186 1.7711864 1.7711864 0 0 1 1.771186-1.771187z" fill="#94acd8" stroke-width="1.180791"/></svg>