<svg height="17pt" viewBox="0 0 17 17" width="17pt" xmlns="http://www.w3.org/2000/svg"><path d="m3.96875 1.007812h9.0625c1.632812 0 2.960938 1.328126 2.960938 2.960938v9.0625c0 1.632812-1.328126 2.960938-2.960938 2.960938h-9.0625c-1.632812 0-2.960938-1.328126-2.960938-2.960938v-9.0625c0-1.632812 1.328126-2.960938 2.960938-2.960938zm0 0" fill="#74b2ed" fill-rule="evenodd"/><path d="m6.109375 6.640625v.53125h-.265625c-.441406 0-.796875.355469-.796875.796875s.355469.796875.796875.796875h.265625v.53125h-1.015625c.113281.308594.402344.53125.75.53125h.265625v.53125h.53125v-.53125h.265625c.441406 0 .796875-.355469.796875-.796875s-.355469-.796875-.796875-.796875h-.265625v-.53125h1.015625c-.113281-.308594-.402344-.53125-.75-.53125h-.265625v-.53125zm-.265625 1.0625h.265625v.53125h-.265625c-.148438 0-.265625-.117187-.265625-.265625s.117187-.265625.265625-.265625zm.796875 1.0625h.265625c.148438 0 .265625.117187.265625.265625s-.117187.273438-.265625.265625h-.265625zm2.125 1.0625v.53125h3.1875v-.53125zm0 0" fill="#fff"/></svg>