<svg height="17pt" viewBox="0 0 17 17" width="17pt" xmlns="http://www.w3.org/2000/svg"><path d="m4.015625 1.019531h9.171875c1.652344 0 2.996094 1.34375 2.996094 2.996094v9.171875c0 1.652344-1.34375 2.996094-2.996094 2.996094h-9.171875c-1.652344 0-2.996094-1.34375-2.996094-2.996094v-9.171875c0-1.652344 1.34375-2.996094 2.996094-2.996094zm0 0" fill="#a4c639" fill-rule="evenodd"/><g fill="#fff"><path d="m5.128906 7.285156c-.304687 0-.558594.285156-.558594.636719v2.484375c0 .351562.253907.640625.558594.640625.308594 0 .515625-.289063.515625-.640625v-2.488281c0-.351563-.207031-.636719-.515625-.636719"/><path d="m6.183594 7.285156v4.570313c0 .125.140625.269531.265625.269531h.808593v1.007812c0 .332032.210938.601563.535157.601563s.550781-.269531.539062-.601563v-1.007812h.539063v1.007812c0 .332032.210937.601563.535156.601563s.539062-.273437.539062-.601563v-1.007812h.804688c.128906 0 .269531-.144531.269531-.269531v-4.570313zm0 0"/><path d="m12.117188 7.285156c-.304688 0-.558594.285156-.558594.636719v2.484375c0 .351562.253906.640625.558594.640625.308593 0 .515624-.289063.515624-.640625v-2.484375c0-.351563-.207031-.640625-.515624-.640625"/><path d="m7.1875 3.464844-.46875.269531.644531 1.117187c-1.175781.566407-1.179687 1.894532-1.179687 1.894532h4.835937s-.003906-1.328125-1.179687-1.894532l.644531-1.117187-.46875-.269531-.695313 1.207031c-.214843-.046875-.445312-.074219-.71875-.074219-.269531 0-.507812.027344-.71875.074219zm.339844 2.207031c.148437 0 .265625.117187.265625.265625s-.117188.273438-.265625.273438c-.148438 0-.269532-.125-.269532-.273438s.121094-.265625.269532-.265625zm2.148437 0c .152344 0 .269531.117187.269531.265625s-.117187.273438-.269531.273438c-.144531 0-.269531-.125-.269531-.273438s.125-.265625.269531-.265625zm0 0"/></g><path d="m12.175781 14.640625c-1.488281 0-2.6875-1.203125-2.6875-2.6875 0-1.480469 1.199219-2.6875 2.6875-2.6875 1.480469 0 2.6875 1.207031 2.6875 2.6875 0 1.484375-1.207031 2.6875-2.6875 2.6875zm0 0" fill="#cc5e55"/><path d="m11.839844 12.625 1.007812 1.34375 1.007813-1.34375c0 .003906-.191407 0-.335938 0v-.671875h-1.34375v.671875zm0 0" fill="#fff"/><path d="m10.496094 11.28125 1.007812-1.34375 1.007813 1.34375s-.191407 0-.335938 0v .671875h-1.34375v-.671875zm0 0" fill="#fff"/></svg>