<svg height="17pt" viewBox="0 0 17 17" width="17pt" xmlns="http://www.w3.org/2000/svg"><path d="m4.015625 1.019531h9.171875c1.652344 0 2.996094 1.34375 2.996094 2.996094v9.171875c0 1.652344-1.34375 2.996094-2.996094 2.996094h-9.171875c-1.652344 0-2.996094-1.34375-2.996094-2.996094v-9.171875c0-1.652344 1.34375-2.996094 2.996094-2.996094zm0 0" fill="#ccc" fill-rule="evenodd"/><path d="m7.621094 3.875c-.371094.09375-.660156.386719-.734375.757812l-.429688 2.085938-2.007812.839844c-.347657.148437-.582031.476562-.601563.847656-.019531.371094.175782.71875.511719.902344l1.90625 1.042968.195313 2.117188c.039062.371094.285156.691406.640624.824219.355469.132812.765626.054687 1.046876-.195313l1.601562-1.445312 2.132812.472656c.371094.082031.757813-.054688 1-.34375.242188-.285156.292969-.683594.128907-1.023438l-.914063-1.929687 1.121094-1.828125c.191406-.320312.183594-.722656-.023438-1.03125-.207031-.3125-.578124-.480469-.957031-.4375l-2.175781.246094-1.4375-1.597656c-.25-.277344-.636719-.398438-1.003906-.304688zm0 0" fill="#1e9ce0"/></svg>