<svg height="17pt" viewBox="0 0 17 17" width="17pt" xmlns="http://www.w3.org/2000/svg"><path d="m1.007812 5.617188v7.414062c0 1.640625 1.320313 2.960938 2.960938 2.960938h9.058594c1.644531 0 2.964844-1.320313 2.964844-2.960938v-7.414062zm0 0" fill="#ccc" fill-rule="evenodd"/><path d="m1.007812 5.617188h14.984376v-1.648438c0-1.640625-1.320313-2.960938-2.964844-2.960938h-9.058594c-1.640625 0-2.960938 1.320313-2.960938 2.960938zm0 0" fill="#c2352a" fill-rule="evenodd"/><path d="m3.964844 7.640625v.453125h9.070312v-.453125zm0 1.8125v.457031h9.070312v-.457031zm0 1.816406v.453125h9.070312v-.453125zm0 1.816407v.453124h9.070312v-.453124zm0 0" fill="#666"/></svg>