<svg height="17pt" viewBox="0 0 17 17" width="17pt" xmlns="http://www.w3.org/2000/svg"><path d="m4.015625 1.019531h9.171875c1.652344 0 2.996094 1.34375 2.996094 2.996094v9.171875c0 1.652344-1.34375 2.996094-2.996094 2.996094h-9.171875c-1.652344 0-2.996094-1.34375-2.996094-2.996094v-9.171875c0-1.652344 1.34375-2.996094 2.996094-2.996094zm0 0" fill="#e6e6e6" fill-rule="evenodd"/><path d="m2.792969 12.542969h2.902343l2.90625-5.390625 2.90625 5.390625h2.898438l-4.355469-7.882813h-2.898437zm0 0" fill="#4f4f4f"/><path d="m4.164062 10.050781 1.53125 2.492188h-2.902343zm0 0" fill="#e33e31"/><path d="m13.039062 10.050781 1.367188 2.492188h-2.898438zm0 0" fill="#e4be21"/><path d="m8.601562 7.152344 1.449219-2.492188h-2.898437zm0 0" fill="#3c8cf8"/><path d="m7.933594 8.394531-1.34375 2.488281h2.011718v-2.488281zm0 0" fill="#4f4f4f"/><path d="m7.933594 8.394531-1.34375 2.488281h2.011718v-2.488281zm0 0" fill="#4f4f4f"/></svg>