<svg height="17pt" viewBox="0 0 17 17" width="17pt" xmlns="http://www.w3.org/2000/svg"><path d="m4.015625 1.019531h9.171875c1.652344 0 2.996094 1.34375 2.996094 2.996094v9.171875c0 1.652344-1.34375 2.996094-2.996094 2.996094h-9.171875c-1.652344 0-2.996094-1.34375-2.996094-2.996094v-9.171875c0-1.652344 1.34375-2.996094 2.996094-2.996094zm0 0" fill="#4f4f4f" fill-rule="evenodd"/><path d="m2.90625 5.375v6.453125h1.613281v-.144531c.257813.09375.53125.144531.804688.144531 1.335937 0 2.417969-1.085937 2.417969-2.421875s-1.082032-2.417969-2.417969-2.417969c-.273438 0-.546875.046875-.804688.140625v-1.753906zm8.601562 0c-1.785156 0-3.226562 1.445312-3.226562 3.226562s1.441406 3.226563 3.226562 3.226563c1.148438 0 2.210938-.617187 2.789063-1.613281h-2.789063c-.890624 0-1.613281-.722656-1.613281-1.613282 0-.890624.722657-1.613281 1.613281-1.613281h2.789063c-.578125-.996093-1.640625-1.613281-2.789063-1.613281zm-6.183593 3.226562c.445312 0 .804687.359376.804687.804688 0 .449219-.359375.808594-.804687.808594-.445313 0-.804688-.359375-.804688-.808594 0-.445312.359375-.804688.804688-.804688zm0 0" fill="#74bed2"/></svg>