<svg height="17pt" viewBox="0 0 17 17" width="17pt" xmlns="http://www.w3.org/2000/svg"><path d="m4.015625 1.019531h9.171875c1.652344 0 2.996094 1.34375 2.996094 2.996094v9.171875c0 1.652344-1.34375 2.996094-2.996094 2.996094h-9.171875c-1.652344 0-2.996094-1.34375-2.996094-2.996094v-9.171875c0-1.652344 1.34375-2.996094 2.996094-2.996094zm0 0" fill="#e9a84a" fill-rule="evenodd"/><path d="m8.453125 3.644531c-.3125.007813-.589844.21875-.6875.519531-.09375.300782.011719.628907.265625.820313l.847656.648437h-4.113281c-.410156 0-.742187.332032-.742187.742188s.332031.742188.742187.742188h1.867187l-3.046874 2.210937c-.222657.15625-.34375.414063-.316407.683594.023438.269531.191407.503906.441407.609375.246093.109375.535156.074218.746093-.089844l1.558594-1.132812c-.003906.070312-.007813.132812-.007813.195312 0 2.1875 1.773438 3.964844 3.964844 3.964844s3.964844-1.777344 3.964844-3.964844c0-1.304688-.644531-2.53125-1.722656-3.265625-.015625-.015625-.035156-.03125-.050782-.046875l-3.226562-2.480469c-.132812-.105469-.308594-.160156-.484375-.15625zm0 0" fill="#fff"/><path d="m10.121094 7.457031c1.265625 0 2.289062 1.027344 2.289062 2.285157 0 1.265624-1.023437 2.289062-2.289062 2.289062-1.257813 0-2.28125-1.023438-2.28125-2.289062 0-1.257813 1.023437-2.285157 2.28125-2.285157zm0 0" fill="#f4b43f"/><path d="m11.269531 9.742188c0 .632812-.515625 1.148437-1.148437 1.148437-.625 0-1.140625-.515625-1.140625-1.148437 0-.628907.515625-1.140626 1.140625-1.140626.632812 0 1.148437.511719 1.148437 1.140626zm0 0" fill="#2397ff"/></svg>