<svg height="17pt" viewBox="0 0 17 17" width="17pt" xmlns="http://www.w3.org/2000/svg"><path d="m4.015625 1.019531h9.171875c1.652344 0 2.996094 1.34375 2.996094 2.996094v9.171875c0 1.652344-1.34375 2.996094-2.996094 2.996094h-9.171875c-1.652344 0-2.996094-1.34375-2.996094-2.996094v-9.171875c0-1.652344 1.34375-2.996094 2.996094-2.996094zm0 0" fill="#e6e6e6" fill-rule="evenodd"/><path d="m8.925781 6.257812c-.058593 0-.121093.003907-.160156.011719-.226563.039063-.414063.121094-.507813.242188-.074218.089843-.097656.199219-.058593.3125.003906.015625.007812.027343.003906.03125 0 0-.226563.027343-.503906.054687-.21875.023438-.34375.039063-.40625.046875-.007813.003907-.050781.007813-.054688.007813-.003906 0-.035156.003906-.035156.003906-.003906 0 0 .007812 0 .011719v.003906c.003906.023437.011719.066406.039063.15625.042968.148437.050781.179687.042968.179687 0 0-.023437-.015624-.046875-.03125-.105469-.074218-.199219-.109374-.296875-.113281-.109375-.003906-.179687.023438-.257812.101563-.003906 0-.003906 0-.007813 0-.039062.039062-.054687.058594-.078125.109375-.039062.078125-.054687.148437-.0625.238281-.003906.105469.019532.242188.054688.332031l.011718.027344h.054688c.132812 0 .242188-.171875.355469-.226563.078125-.019531.226562-.019531.324219 0 .351562.074219.621093.308594.605468.550782-.003906.0625-.023437.105468-.082031.167968-.046875.046876-.109375.085938-.214844.144532-.039062.019531-.097656.054687-.136719.074218-.042968.023438-.097656.054688-.128906.074219-.054687.042969-.121094.101563-.121094.117188 0 .011719.03125.011719.179688-.003907.070312-.007812.121094-.015624.175781-.023437.269531-.039063.445313-.09375.589844-.183594.128906-.085937.230469-.226562.269531-.371093.007813-.019532.011719-.039063.015625-.039063.003907 0 .027344.015625.050781.027344.15625.097656.289063.132812.398438.109375.09375-.019532.1875-.078125.363281-.222656.042969-.039063.082031-.078126.085938-.078126.003906 0 .039062.082032.085937.175782.039063.089844.074219.171875.082032.179687.007812.011719.015624.015625.160156-.011719.085937-.015624.15625-.03125.160156-.035156.007812-.007812-.023438-.113281-.054688-.183594-.050781-.113281-.128906-.210937-.226562-.273437-.054688-.039063-.144531-.078125-.285156-.132813-.152344-.058593-.234375-.097656-.304688-.144531-.070312-.046875-.140625-.109375-.132812-.121093.003906 0 .03125-.011719.054687-.019532.21875-.078125.367188-.21875.460938-.449218.039062-.09375.074219-.210938.128906-.449219.023437-.109375.054687-.234375.066406-.273438.011719-.039062.019531-.078125.019531-.082031 0 0-.007812.003906-.007812.003906-.023438.003906-.148438.058594-.445312.214844-.25.121094-.457032.222656-.460938.21875-.003906 0 .074219-.070312.175781-.15625.097657-.085938.1875-.167969.195313-.175781.003906-.003907.003906-.007813.007812-.015625 0-.007813.003906-.019532.003906-.046875 0-.050781 0-.054688-.019531-.0625-.011719-.003907-.0625-.003907-.125-.003907zm0 0" fill="#4f4f4f"/><path d="m11.214844 4.292969c-.070313.003906-.132813.039062-.1875.101562-.058594.074219-.089844.175781-.082032.265625.011719.128906.050782.238282.210938.550782.085938.167968.113281.238281.144531.378906.039063.191406.058594.363281.054688.589844 0 .207031-.011719.359374-.042969.554687-.03125.175781-.078125.382813-.089844.378906-.015625-.003906-.035156-.164062-.046875-.402343-.019531-.277344-.03125-.386719-.058593-.496094-.066407-.292969-.207032-.417969-.445313-.378906-.066406.011718-.171875.042968-.183594.054687-.003906.003906.019531.089844.085938.28125.050781.148437.09375.269531.09375.273437 0 .007813-.039063.023438-.046875.015626-.003906-.003907-.039063-.058594-.082032-.117188-.089843-.125-.132812-.183594-.191406-.257812-.160156-.1875-.332031-.28125-.511718-.269532-.070313.003906-.167969.027344-.183594.042969-.011719.007813-.007813.023437.214844.839844l.230468.835937-.050781.507813c-.027344.285156-.054687.523437-.058594.53125-.003906.011719-.007812.011719-.097656.011719-.050781 0-.160156-.003907-.234375-.007813-.167969-.011719-.378906-.011719-.449219-.003906-.070312.011719-.179687.039062-.277343.070312-.308594.105469-.578126.292969-.804688.5625-.207031.242188-.382812.558594-.554688.992188-.050781.128906-.167968.441406-.195312.527343-.0625.210938-.097656.433594-.105469.667969-.003906.21875.011719.394531.054688.574219.050781.210938.128906.371094.238281.511719.027344.03125.054688.0625.082031.089843 0 .003907.003907.003907.003907.003907s.003906.003906.003906.003906c.136718.140625.289062.222656.476562.261719.140625.027344.378906.03125.378906.007812 0-.007812-.039062-.132812-.09375-.277344-.050781-.148437-.089843-.265624-.089843-.269531 0-.007812.023437-.023437.035156-.023437.003906 0 .035156.042968.070313.097656.144531.21875.253906.34375.382812.429688.070312.050781.167969.089843.246094.101562.046875.007812.164062.007812.210937-.003906.054688-.011719.113281-.03125.121094-.039063l-.371094-.605469c.246094.183594.5625.371094.789063.433594.277344.078125.542968.039063.746094-.113281.0625-.046875.128906-.109375.125-.121094 0-.003906-.234376-.105469-.519532-.222656s-.519531-.21875-.519531-.222656c-.003906-.011719.222656.003906.460937.027343.082032.007813.207032.023438.285157.03125.253906.027344.308593.03125.484375.03125.179687 0 .261718-.007812.402344-.039062.21875-.042969.445312-.152344.640624-.296875.074219-.058594.113282-.09375.109376-.101563-.003907-.003906-.308594-.003906-.898438 0-.609375.003907-.886719 0-.894531-.003906-.003907 0-.007813.003906-.007813 0-.003906-.003906.0625-.179687.070313-.191406.003906 0 .027343.007812.046875.019531.410156.242188 1.296875.179688 1.9375-.140625.183594-.089844.304687-.175781.421875-.300781.144531-.140625.230469-.300781.242187-.449219.003906-.042968 0-.046875-.011718-.046875-.011719 0-.238282.0625-.355469.097657-.042969.015624-.160157.050781-.253907.078124-.621093.199219-.878906.253907-1.214843.257813-.191407.003906-.367188-.007813-.359375-.023437.003906-.019532.265625-.109376.445312-.152344.152344-.042969.230469-.058594.582032-.128906.523437-.105469.714843-.152344.945312-.246094.488281-.191406.765625-.507813.851562-.972656.019532-.117188.035157-.324219.019532-.324219-.003906 0-.253906.140625-.558594.308593-.304688.171876-.554688.304688-.558594.304688-.007812-.007812-.046875-.085938-.042968-.089844.003906 0 .046874-.023437.09375-.046875.230468-.125.410156-.257812.605468-.449219.359375-.359374.566406-.773437.617188-1.21875.011718-.117187.007812-.335937-.007813-.445312-.023437-.128906-.074219-.320312-.089843-.324219-.003907 0-.222657.3125-.480469.695313-.546875.804687-.574219.84375-.578125.839844-.007813-.007813.117187-.234376.339844-.601563.09375-.15625.195312-.328125.226562-.378906.066406-.125.164062-.332031.203125-.429688.132813-.34375.152344-.636719.058594-.917969-.027344-.078124-.09375-.207031-.140625-.289062-.050782-.074219-.125-.167969-.132813-.167969-.003906.003907-.15625.355469-.332031.785157l-.324219.785156-.457031.769531c-.449219.773437-.46875.8125-.476562.804687-.003907-.003906.039062-.117187.082031-.21875.101562-.265624.214843-.476562.515625-.988281.1875-.328125.273437-.480469.351562-.632812.238282-.480469.355469-.863281.386719-1.28125.003906-.085938.003906-.125 0-.183594-.03125-.289063-.136719-.652344-.242187-.851563-.0625-.121093-.144532-.210937-.21875-.246093-.03125-.015625-.042969-.019531-.09375-.019531-.050782 0-.0625.003906-.101563.023437-.101563.046875-.132813.117187-.132813.308594 0 .101562.007813.183593.042969.410156l.023438.160156-.003907.179688c-.003906.183593-.007812.242187-.023437.40625-.046875.375-.144531.796875-.292969 1.25-.054687.171875-.140625.40625-.148437.421875-.019531.035156.03125-.210938.140625-.648438.171875-.722656.214844-.976562.222656-1.339844.003906-.25-.011719-.425781-.058594-.628906-.027344-.125-.039062-.15625-.078125-.238281-.113281-.234375-.316406-.480469-.484375-.585937-.082031-.054688-.160156-.078126-.226562-.074219zm0 0" fill="#7767c0"/><path d="m7.855469 8.15625c-.253907.03125-.507813.09375-.75.175781-.25.089844-.5.214844-.6875.410157-.011719.023437-.082031.078124-.054688.089843.273438-.074219.65625-.179687.914063-.253906.070312-.019531.121094-.035156.183594-.050781.113281-.03125.226562-.066406.335937-.097656l.082031-.027344c.023438-.027344.011719-.113282.011719-.164063-.003906-.027343.015625-.097656-.035156-.082031zm0 0" fill="#d54c41"/><path d="m4.695312 8.210938c-.007812-.003907-.125.011718-.171874.023437-.140626.03125-.222657.113281-.269532.265625-.007812.027344-.015625.050781-.015625.058594 0 .011718.003907.011718.058594 0 .109375-.03125.203125-.082032.273437-.160156.054688-.058594.132813-.175782.125-.1875zm0 0" fill="#9182d7"/><path d="m5.125 8.261719c-.070312.003906-.164062.027343-.222656.054687-.171875.078125-.273438.226563-.320313.457032-.023437.136718-.03125.210937-.03125.570312 0 .1875-.003906.34375-.007812.34375 0 .003906-.007813-.003906-.019531-.015625-.039063-.042969-.089844-.121094-.160157-.261719-.023437-.050781-.042969-.082031-.066406-.121094-.011719-.019531-.027344-.058593-.035156-.066406-.035157-.058594-.105469-.132812-.152344-.164062-.042969-.027344-.101563-.046875-.140625-.046875-.117188 0-.222656.105469-.253906.261719-.03125.144531.027344.273437.152344.316406.019531.007812.050781.011718.109374.011718.046876.003907.085938.003907.089844.007813 0 .003906.011719.027344.019532.054687.027343.078126.097656.210938.195312.378907.105469.179687.171875.308593.207031.386719.027344.089843.171875.648437.191407.761718.019531.097656.023437.183594.015624.230469-.007812.019531-.023437.082031-.042968.128906-.054688.128907-.058594.179688-.023438.285157.074219.207031.210938.347656.398438.425781.046875.019531.054687.023437.066406-.003907.023438-.0625.0625-.195312.074219-.289062.015625-.148438.003906-.257812-.078125-.605469-.035156-.160156-.0625-.355469-.050782-.355469.003907 0 .027344.015626.050782.035157.023437.019531.113281.089843.191406.148437.203125.15625.226562.175782.457031.40625.09375.085938.15625.144532.210938.195313.105469.097656.171875.136719.265625.167969.046875.015624.066406.019531.109375.019531.097656 0 .144531-.039063.152343-.136719.003907-.074219-.019531-.152344-.074218-.265625-.054688-.113281-.097656-.171875-.183594-.253906-.101562-.09375-.191406-.160157-.492188-.355469-.253906-.160156-.363281-.246094-.460937-.34375-.132813-.128906-.1875-.238281-.195313-.378906-.003906-.113282.023438-.191406.101563-.265625s.160156-.117188.410156-.207031c.261719-.089844.359375-.148438.402344-.234376.015625-.03125.015625-.039062.015625-.09375 0-.050781 0-.0625-.011719-.085937-.058593-.109375-.230469-.171875-.511719-.1875l-.070312-.003906-.234375.234375c-.132813.132812-.238281.234375-.238281.230468-.003906 0 .050781-.304687.121094-.675781.074218-.371093.136718-.679687.136718-.6875 0-.011719-.007812-.011719-.066406-.007812zm0 0" fill="#4f4f4f"/><g fill="#9182d7"><path d="m5.628906 8.695312.003906.019532c.003907.042968.027344.140625.042969.191406.054688.148438.152344.242188.308594.292969.035156.011719.054687.015625.058594.007812.003906-.011719-.011719-.15625-.023438-.207031-.035156-.152344-.125-.25-.285156-.289062-.03125-.007813-.066406-.011719-.078125-.015626zm0 0"/><path d="m3.484375 9.335938c-.003906 0-.007813.007812-.011719.015624-.011718.027344-.027344.132813-.027344.171876 0 .105468.050782.1875.140626.25.035156.027343.039062.027343.039062.007812 0-.023438-.046875-.433594-.050781-.441406-.003907-.003906-.023438-.003906-.046875-.003906-.019532 0-.03125-.003907-.042969 0zm0 0"/><path d="m6.78125 10.691406c-.011719 0-.066406.054688-.09375.09375-.070312.109375-.125.269532-.160156.464844-.011719.070312-.011719.101562-.011719.253906 0 .1875.003906.230469.039063.339844.039062.121094.105468.199219.183593.226562.011719.003907.035157.007813.050781.007813.101563.003906.191407-.105469.234376-.273437.035156-.144532.007812-.261719-.121094-.542969-.082032-.179688-.109375-.25-.121094-.355469-.007812-.050781-.007812-.101562 0-.183594.003906-.023437.003906-.03125 0-.03125zm0 0"/><path d="m4.292969 11.867188c-.007813 0-.007813.015624.007812.085937.023438.109375.0625.179687.136719.21875.050781.023437.078125.03125.144531.042969.027344.003906.050781.007812.054688.007812.015625.003906.003906-.070312-.027344-.136718-.03125-.058594-.097656-.125-.171875-.160157-.050781-.027343-.132812-.058593-.144531-.058593zm0 0"/></g><path d="m7.597656 7.296875s.136719-.09375.261719-.089844c.140625.007813.238281.132813.238281.132813-.320312.199218-.5-.042969-.5-.042969zm0 0" fill="#d54c41"/><path d="m11.148438 4.292969c-.039063.003906-.070313.011719-.101563.027343.03125-.015624.0625-.023437.101563-.027343zm0 0"/><path d="m10.757812 5.839844c.015626.003906.03125.011718.046876.019531-.015626-.007813-.03125-.015625-.046876-.019531zm0 0"/><path d="m9.585938 5.855469c-.003907.007812 0 .042969.035156.171875-.035156-.128906-.039063-.164063-.035156-.171875zm0 0"/><path d="m10.867188 5.890625c.023437.011719.042968.03125.058593.054687-.015625-.023437-.035156-.042968-.058593-.054687zm0 0"/><path d="m10.949219 5.972656c.042969.0625.074219.136719.097656.242188.023437.109375.035156.21875.050781.496094.015625.238281.039063.398437.054688.402343 0 0 .003906-.011719.003906-.011719-.015625-.023437-.039062-.167968-.050781-.390624-.015625-.277344-.03125-.386719-.054688-.496094-.023437-.105469-.058593-.179688-.101562-.242188zm0 0"/><path d="m6.9375 7.175781c-.105469-.003906-.179688.023438-.253906.101563.074218-.078125.148437-.105469.253906-.101563zm0 0"/><path d="m8.1875 6.652344c-.003906.019531-.003906.039062-.003906.0625 0-.023438 0-.042969.003906-.0625zm0 0"/><path d="m8.183594 6.730469c0 .023437.003906.050781.011718.074219-.007812-.023438-.011718-.050782-.011718-.074219zm0 0"/><path d="m7.789062 8.167969c-.117187.019531-.230468.039062-.34375.066406.113282-.027344.226563-.046875.34375-.066406zm0 0"/><path d="m4.625 11.816406c-.027344-.09375-.023438-.144531.027344-.265625-.050782.121094-.054688.171875-.027344.265625zm0 0"/><path d="m5.125 8.261719c-.039062.003906-.078125.007812-.117188.019531.039063-.011719.078126-.015625.117188-.019531zm0 0"/><path d="m4.425781 8.269531c-.027343.011719-.050781.03125-.070312.054688.019531-.023438.042969-.042969.070312-.054688zm0 0"/><path d="m3.96875 9.011719c-.003906 0-.003906 0-.003906 0 .039062 0 .097656.023437.136718.046875.046876.03125.121094.105468.15625.164062.007813.007813.023438.046875.035157.066406.019531.039063.039062.070313.066406.121094.066406.140625.117187.21875.15625.261719.011719.011719.019531.019531.023437.015625v-.003906c-.003906 0-.007812-.003906-.015624-.011719-.039063-.042969-.089844-.121094-.160157-.261719-.023437-.050781-.046875-.082031-.066406-.121094-.011719-.019531-.027344-.058593-.035156-.066406-.035157-.058594-.101563-.132812-.152344-.164062-.042969-.023438-.101563-.046875-.140625-.046875zm0 0"/><path d="m3.964844 9.011719c-.027344 0-.058594.007812-.082032.019531.023438-.011719.054688-.019531.082032-.019531zm0 0"/><path d="m3.875 9.039062c-.023438.011719-.046875.027344-.070312.046876.023437-.019532.046874-.035157.070312-.046876zm0 0"/><path d="m3.710938 9.359375c0 .023437.003906.046875.011718.070313-.007812-.023438-.011718-.046876-.011718-.070313zm0 0"/><path d="m5.121094 10.441406c.015625.03125.039062.0625.0625.089844-.023438-.027344-.046875-.054688-.0625-.089844zm0 0"/></svg>