<svg height="17pt" viewBox="0 0 17 17" width="17pt" xmlns="http://www.w3.org/2000/svg"><path d="m3.96875 1.007812h9.0625c1.632812 0 2.960938 1.328126 2.960938 2.960938v9.0625c0 1.632812-1.328126 2.960938-2.960938 2.960938h-9.0625c-1.632812 0-2.960938-1.328126-2.960938-2.960938v-9.0625c0-1.632812 1.328126-2.960938 2.960938-2.960938zm0 0" fill="#4e9e45" fill-rule="evenodd"/><g fill="#4c4c4c"><path d="m4.78125 4.25h7.4375v.53125h-7.4375zm0 0"/><path d="m4.78125 5.84375h7.4375v.53125h-7.4375zm0 0"/><path d="m4.78125 7.4375h7.4375v.53125h-7.4375zm0 0"/><path d="m4.78125 9.03125h7.4375v.53125h-7.4375zm0 0"/><path d="m4.78125 10.625h7.4375v.53125h-7.4375zm0 0"/><path d="m4.78125 12.21875h7.4375v.53125h-7.4375zm0 0"/></g></svg>