<svg height="17pt" viewBox="0 0 17 17" width="17pt" xmlns="http://www.w3.org/2000/svg"><path d="m4.015625 1.019531h9.171875c1.652344 0 2.996094 1.34375 2.996094 2.996094v9.171875c0 1.652344-1.34375 2.996094-2.996094 2.996094h-9.171875c-1.652344 0-2.996094-1.34375-2.996094-2.996094v-9.171875c0-1.652344 1.34375-2.996094 2.996094-2.996094zm0 0" fill="#4f4f4f" fill-rule="evenodd"/><g fill="#ff6363"><path d="m3.359375 2.6875h4.03125c.371094 0 .671875.289062.671875.644531v1.9375c0 .355469-.300781.644531-.671875.644531h-4.03125c-.371094 0-.671875-.289062-.671875-.644531v-1.9375c0-.355469.300781-.644531.671875-.644531zm0 0"/><path d="m9.8125 2.6875h4.03125c.371094 0 .671875.289062.671875.644531v1.9375c0 .355469-.300781.644531-.671875.644531h-4.03125c-.375 0-.671875-.289062-.671875-.644531v-1.9375c0-.355469.296875-.644531.671875-.644531zm0 0"/><path d="m6.585938 6.988281h4.03125c.371093 0 .671874.289063.671874.644531v1.9375c0 .355469-.300781.644532-.671874.644532h-4.03125c-.371094 0-.671876-.289063-.671876-.644532v-1.9375c0-.355468.300782-.644531.671876-.644531zm0 0"/><path d="m12.632812 6.988281h1.613282c.148437 0 .269531.117188.269531.269531v2.6875c0 .148438-.121094.269532-.269531.269532h-1.613282c-.148437 0-.269531-.121094-.269531-.269532v-2.6875c0-.152343.121094-.269531.269531-.269531zm0 0"/><path d="m3.359375 11.289062h4.03125c.371094 0 .671875.289063.671875.644532v1.9375c0 .355468-.300781.644531-.671875.644531h-4.03125c-.371094 0-.671875-.289063-.671875-.644531v-1.9375c0-.355469.300781-.644532.671875-.644532zm0 0"/><path d="m9.8125 11.289062h4.03125c.371094 0 .671875.289063.671875.644532v1.9375c0 .355468-.300781.644531-.671875.644531h-4.03125c-.375 0-.671875-.289063-.671875-.644531v-1.9375c0-.355469.296875-.644532.671875-.644532zm0 0"/></g></svg>