<svg height="17pt" viewBox="0 0 17 17" width="17pt" xmlns="http://www.w3.org/2000/svg" xmlns:xlink="http://www.w3.org/1999/xlink"><clipPath id="a"><path d="m0 0h17v17h-17z"/></clipPath><path d="m4.824219 15.992188h8.203125c1.644531 0 2.964844-1.320313 2.964844-2.964844v-9.058594c0-1.640625-1.320313-2.960938-2.964844-2.960938h-8.203125zm0 0" fill="#0095cc" fill-rule="evenodd"/><path d="m4.824219 15.992188v-14.984376h-.855469c-1.640625 0-2.960938 1.320313-2.960938 2.960938v9.058594c0 1.644531 1.320313 2.964844 2.960938 2.964844zm0 0" fill="#0077a3" fill-rule="evenodd"/><g clip-path="url(#a)"><path d="m10.617188 12.367188-1.058594-.042969.042968-1.0625 1.058594.042969zm1.265624-4.070313-.496093.46875c-.398438.371094-.648438.679687-.683594 1.476563l-1.058594-.042969.007813-.265625c.023437-.582032.285156-1.105469.683594-1.476563l.683593-.640625c.203125-.183594.332031-.445312.34375-.738281.023438-.582031-.433593-1.078125-1.019531-1.105469-.582031-.023437-1.078125.4375-1.101562 1.019532l-1.0625-.042969c.046874-1.171875 1.035156-2.082031 2.207031-2.035157 1.175781.046876 2.085937 1.035157 2.039062 2.207032-.019531.46875-.226562.886718-.542969 1.175781zm0 0" fill="#fff"/></g></svg>