<svg height="17pt" viewBox="0 0 17 17" width="17pt" xmlns="http://www.w3.org/2000/svg"><path d="m3.96875 1.007812h9.0625c1.632812 0 2.960938 1.328126 2.960938 2.960938v9.0625c0 1.632812-1.328126 2.960938-2.960938 2.960938h-9.0625c-1.632812 0-2.960938-1.328126-2.960938-2.960938v-9.0625c0-1.632812 1.328126-2.960938 2.960938-2.960938zm0 0" fill="#4f4f4f" fill-rule="evenodd"/><path d="m5.960938 3.71875c-.117188 0-.246094.003906-.378907.003906-.683593-.015625-1.367187.007813-2.050781 0-.472656-.003906-.363281.574219-.226562.820313 1.515624 2.699219 3.304687 5.722656 4.972656 8.570312.324218.472657.660156-.167969.839844-.441406.453124-.695313.828124-1.421875 1.210937-2.152344.164063-.488281-.289063-.863281-.449219-1.277343-.984375-1.75-2.019531-3.464844-3.027344-5.199219-.238281-.289063-.53125-.324219-.890624-.324219zm4.953124.003906c-.511718 0-.1875.574219-.1875.574219s.765626 1.445313 1.203126 2.238281c.441406.792969.679687.109375.789062-.109375.394531-.789062.742188-1.609375 1.019531-2.15625.277344-.546875-.300781-.546875-.300781-.546875zm0 0" fill="#ccc"/></svg>