<svg height="17pt" viewBox="0 0 17 17" width="17pt" xmlns="http://www.w3.org/2000/svg"><path d="m3.96875 1.007812h9.0625c1.632812 0 2.960938 1.328126 2.960938 2.960938v9.0625c0 1.632812-1.328126 2.960938-2.960938 2.960938h-9.0625c-1.632812 0-2.960938-1.328126-2.960938-2.960938v-9.0625c0-1.632812 1.328126-2.960938 2.960938-2.960938zm0 0" fill="#4d4d4d" fill-rule="evenodd"/><path d="m8.507812 3.21875c-.367187-.015625-.710937.15625-.894531.445312l-4.558593 7.191407c-.175782.695312.351562 1.210937 1.136718 1.589843 1.480469.714844 3.875.941407 4.269532.945313.644531.015625 2.605468-.28125 4.007812-.839844 1.0625-.421875 1.804688-.996093 1.394531-1.695312l-4.554687-7.191407c-.167969-.265624-.46875-.429687-.800782-.445312zm0 0" fill="#8e8e8e"/><path d="m8.507812 3.21875c-.367187-.015625-.710937.15625-.894531.445312l-.679687 1.066407v7.941406c0 .832031.898437 1.109375 1.566406 1.109375s1.566406-.277344 1.566406-1.109375v-7.8125l-.757812-1.195313c-.167969-.265624-.46875-.433593-.800782-.445312zm0 0" fill="#686868"/><path d="m5.171875 6.738281c.324219 0 .589844.375.589844.832031v4.988282c0 .460937-.265625.832031-.589844.832031s-.585937-.371094-.585937-.832031v-4.988282c0-.457031.261718-.832031.585937-.832031zm0 0" fill="#afafb1"/><path d="m9.675781 10.457031c0-.757812-.527343-1.371093-1.175781-1.371093s-1.175781.613281-1.175781 1.371093c0 .757813.527343 1.371094 1.175781 1.371094s1.175781-.613281 1.175781-1.371094zm0 0" fill="#64b0ff"/><path d="m11.828125 6.738281c.324219 0 .585937.375.585937.832031v4.988282c0 .460937-.261718.832031-.585937.832031s-.589844-.371094-.589844-.832031v-4.988282c0-.457031.265625-.832031.589844-.832031zm0 0" fill="#afafb1"/></svg>