<svg height="17pt" viewBox="0 0 17 17" width="17pt" xmlns="http://www.w3.org/2000/svg"><path d="m4.015625 1.019531h9.171875c1.652344 0 2.996094 1.34375 2.996094 2.996094v9.171875c0 1.652344-1.34375 2.996094-2.996094 2.996094h-9.171875c-1.652344 0-2.996094-1.34375-2.996094-2.996094v-9.171875c0-1.652344 1.34375-2.996094 2.996094-2.996094zm0 0" fill="#f56e2c" fill-rule="evenodd"/><path d="m13.054688 8.0625c-.136719-1.097656-.695313-2.097656-1.554688-2.792969-.175781.0625-.359375.105469-.554688.105469-.679687 0-1.261718-.425781-1.5-1.023438-.214843-.03125-.433593-.050781-.652343-.050781-.570313 0-1.140625.113281-1.671875.335938l.820312 1.417969c.277344-.09375.5625-.140626.847656-.140626 1.277344 0 2.382813.902344 2.632813 2.148438zm0 1.078125h-1.628907c-.253906 1.25-1.355469 2.148437-2.632812 2.148437-.289063 0-.574219-.046874-.851563-.140624l-.816406 1.414062c.527344.21875 1.097656.339844 1.664062.339844.222657 0 .445313-.019532.660157-.054688.238281-.59375.820312-1.019531 1.492187-1.019531.199219 0 .382813.039063.5625.105469.855469-.695313 1.410156-1.699219 1.550782-2.792969zm-1.035157-5.378906c0-.589844-.480469-1.074219-1.074219-1.074219-.597656 0-1.074218.484375-1.074218 1.074219 0 .59375.476562 1.078125 1.074218 1.078125.59375 0 1.074219-.484375 1.074219-1.078125zm0 9.675781c0-.589844-.480469-1.074219-1.074219-1.074219-.597656 0-1.074218.484375-1.074218 1.074219 0 .59375.476562 1.078125 1.074218 1.078125.59375 0 1.074219-.484375 1.074219-1.078125zm-5.007812-6.84375-.8125-1.414062c-.78125.589843-1.332031 1.425781-1.570313 2.371093.246094.285157.402344.648438.402344 1.050781 0 .398438-.15625.765626-.402344 1.046876.238282.949218.789063 1.785156 1.566406 2.375l.816407-1.414063c-.578125-.507813-.90625-1.238281-.90625-2.007813 0-.765624.328125-1.5.90625-2.007812zm-2.515625 2.007812c0-.59375-.484375-1.074218-1.078125-1.074218-.597657 0-1.074219.480468-1.074219 1.074218s.476562 1.074219 1.074219 1.074219c.59375 0 1.078125-.480469 1.078125-1.074219zm0 0" fill="#fff"/></svg>