<svg height="17pt" viewBox="0 0 17 17" width="17pt" xmlns="http://www.w3.org/2000/svg"><g fill-rule="evenodd"><path d="m15.121094 15.429688-9-3.476563-4.113282 3.425781c.535157.488282 1.230469.804688 2.007813.804688h9.171875c.746094 0 1.410156-.300782 1.933594-.753906zm0 0" fill="#339c33"/><path d="m16.085938 13.589844c.023437-.136719.097656-.257813.097656-.40625v-9.167969c0-1.660156-1.335938-2.996094-2.996094-2.996094h-4.164062zm0 0" fill="#ccc"/><path d="m6.128906 11.957031 4.449219 1.71875-.605469-4.910156zm0 0" fill="#fff"/><path d="m9 1.019531h-4.984375c-1.660156 0-2.996094 1.335938-2.996094 2.996094v9.167969c0 .636718.25 1.175781.589844 1.65625zm0 0" fill="#ccc"/><path d="m9 1.019531-7.390625 13.820313c.128906.183594.234375.390625.398437.539062l4.113282-3.425781.007812.003906 3.84375-3.191406-.957031-7.746094zm0 0" fill="#4a86d8"/><path d="m9.015625 1.019531 1.5625 12.65625 4.542969 1.753907c.535156-.460938.855468-1.113282.964844-1.839844l-7.0625-12.570313zm0 0" fill="#dd3c3d"/></g></svg>