<svg height="17pt" viewBox="0 0 17 17" width="17pt" xmlns="http://www.w3.org/2000/svg" xmlns:xlink="http://www.w3.org/1999/xlink"><clipPath id="a"><path d="m0 0h17v17h-17z"/></clipPath><path d="m3.96875 1.007812h9.0625c1.632812 0 2.960938 1.328126 2.960938 2.960938v9.0625c0 1.632812-1.328126 2.960938-2.960938 2.960938h-9.0625c-1.632812 0-2.960938-1.328126-2.960938-2.960938v-9.0625c0-1.632812 1.328126-2.960938 2.960938-2.960938zm0 0" fill="#a559d6" fill-rule="evenodd"/><path d="m6.0625 4.667969c-1.175781 0-2.128906.953125-2.128906 2.128906s.953125 2.128906 2.128906 2.128906 2.125-.953125 2.125-2.128906-.949219-2.128906-2.125-2.128906zm-2.980469 7.664062h5.957031c0-2.128906-1.273437-2.554687-2.976562-2.554687s-2.980469.425781-2.980469 2.554687zm0 0" fill="#f9f9f9"/><g clip-path="url(#a)"><path d="m9.667969 11.371094v.945312h.945312l2.390625-2.390625-.945312-.945312zm4.175781-2.28125c.097656-.097656.097656-.257813 0-.355469l-.59375-.59375c-.097656-.097656-.257812-.097656-.355469 0l-.496093.5.945312.945313zm0 0" fill="#fff"/></g></svg>