<svg height="17pt" viewBox="0 0 17 17" width="17pt" xmlns="http://www.w3.org/2000/svg" xmlns:xlink="http://www.w3.org/1999/xlink"><radialGradient id="a" cx="8.499899" cy="8.499895" gradientUnits="userSpaceOnUse" r="11.652371"><stop offset="0" stop-color="#56572b"/><stop offset="1" stop-color="#1a1c0e"/></radialGradient><g fill-rule="evenodd"><path d="m3.96875 1.007812h9.0625c1.632812 0 2.960938 1.328126 2.960938 2.960938v9.0625c0 1.632812-1.328126 2.960938-2.960938 2.960938h-9.0625c-1.632812 0-2.960938-1.328126-2.960938-2.960938v-9.0625c0-1.632812 1.328126-2.960938 2.960938-2.960938zm0 0" fill="#56572b"/><path d="m9.527344 15.992188c-.421875-.183594-.957032-.339844-1.304688-.535157-.789062-.453125-1.398437-.941406-1.875-1.453125-.480468-.507812-.828125-1.039062-1.101562-1.574218-.273438-.539063-.46875-1.078126-.644532-1.613282-.171874-.53125-.324218-1.050781-.507812-1.546875-.179688-.492187-.394531-.960937-.691406-1.386719-.296875-.425781-.679688-.808593-1.195313-1.136718-.308593-.191406-.785156-.316406-1.199219-.464844v6.75c0 1.640625 1.320313 2.960938 2.960938 2.960938zm0 0" fill="#222514"/><path d="m6.839844 1.007812h-2.871094c-1.640625 0-2.960938 1.320313-2.960938 2.960938v2.3125c.414063.148438.890626.273438 1.199219.464844.515625.328125.898438.710937 1.195313 1.136718.296875.425782.511718.894532.691406 1.386719.183594.496094.335938 1.015625.507812 1.546875.175782.535156.371094 1.074219.644532 1.613282.273437.535156.621094 1.066406 1.101562 1.574218.476563.511719 1.085938 1 1.875 1.453125.347656.195313.882813.351563 1.304688.535157h3.503906c1.640625 0 2.960938-1.320313 2.960938-2.960938v-2.046875c-.347657-.136719-.777344-.238281-1.046876-.40625-.515624-.328125-.898437-.710937-1.195312-1.136719-.296875-.425781-.507812-.894531-.691406-1.386718-.183594-.496094-.335938-1.015626-.507813-1.546876-.175781-.53125-.371093-1.074218-.644531-1.609374-.273438-.539063-.625-1.070313-1.101562-1.578126-.476563-.511718-1.085938-1-1.878907-1.449218-.554687-.316406-1.332031-.585938-2.085937-.863282zm0 0" fill="url(#a)"/><path d="m6.839844 1.007812c.753906.277344 1.53125.546876 2.085937.863282.792969.449218 1.402344.9375 1.878907 1.449218.476562.507813.828124 1.039063 1.101562 1.578126.273438.535156.46875 1.078124.644531 1.609374.171875.53125.324219 1.050782.507813 1.546876.183594.492187.394531.960937.691406 1.386718.296875.425782.679688.808594 1.195312 1.136719.269532.167969.699219.269531 1.046876.40625v-7.015625c0-1.640625-1.320313-2.960938-2.960938-2.960938zm0 0" fill="#56572b"/></g><path d="m9.871094 10.511719c.0625-.058594.046875-.167969-.039063-.292969-.078125-.109375-.078125-.109375-.132812-.53125-.054688-.402344-.058594-.425781-.136719-.574219-.050781-.097656-.105469-.171875-.15625-.207031-.09375-.070312-.140625-.195312-.101562-.265625.023437-.042969.015624-.0625-.082032-.183594-.0625-.078125-.121094-.148437-.132812-.164062-.015625-.015625-.054688-.066407-.089844-.117188-.046875-.0625-.074219-.085937-.101562-.078125-.027344.007813-.035157-.003906-.042969-.066406-.003907-.039062-.015625-.089844-.023438-.109375-.011719-.03125-.003906-.035156.035157-.035156.070312 0 .09375-.054688.09375-.210938v-.132812h.15625c.085937 0 .1875-.007813.226562-.019531.089844-.027344.175781-.109376.222656-.21875.039063-.085938.078125-.105469.121094-.050782.015625.015625.050781.027344.085938.023438.058593-.003906.066406-.011719.070312-.082032.003906-.039062.011719-.074218.019531-.074218.007813 0 .054688.097656.105469.214844.085938.207031.09375.21875.148438.214843.03125-.003906.0625-.011719.066406-.015625.007812-.007812-.023438-.105468-.0625-.21875-.042969-.113281-.082032-.214844-.085938-.226562-.003906-.011719.03125-.039063.078125-.058594.070313-.027344.09375-.050781.109375-.101562l.015625-.0625.234375-.011719c.125-.007813.234375-.011719.234375-.015625.003907 0 .007813-.015625.007813-.03125s-.027344-.03125-.066406-.035156c-.066407-.003907-.066407-.007813-.070313-.121094-.003906-.039063-.070313-.035156-.105469-.054688 0 .054688-.003906.058594-.082031.058594-.058594 0-.078125-.007812-.078125-.027344 0-.035156-.035156-.042968-.046875-.011718-.003906.011718-.046875.023437-.101563.03125l-.09375.015624v-.0625c0-.035156-.015624-.066406-.027343-.070312-.035157-.011719-.074219.019531-.074219.058594 0 .019531-.050781.027344-.203125.027344h-.199219v-.0625c0-.054688-.007812-.058594-.070312-.058594-.046875 0-.070313.007812-.070313.027344 0 .035156-.042969.054687-.121093.054687-.039063 0-.066407.011719-.082032.039063-.027344.050781-.152344.058593-.132812.007812.125-.320312-.050782-.621094-.355469-.613281-.195313.003906-.316406.171875-.316406.4375 0 .140625 0 .144531-.0625.167969-.214844.089843-.367188.425781-.359375.792968.003906.117188-.007813.238282-.03125.335938-.023438.101562-.039063.25-.039063.453125-.003906.273437-.011719.320312-.074219.550781-.0625.210938-.101562.394531-.148437.675781-.007813.023438-.058594.078125-.121094.121094-.121093.082031-.203125.175781-.265625.300781l-.042968.082032.074218.191406c.089844.238281.089844.234375.175782.257812.054687.015625.089843.015625.140624-.007812l.070313-.027344v-.304688h.078125c.175781 0 .3125-.199218.484375-.726562.15625-.472656.203125-.601562.222656-.601562.011719 0 .019531.007812.019531.019531s.035157.078125.078126.148437c.09375.148438.25.300782.410156.402344.097656.066406.109375.082031.125.160156.007812.046875.046875.195313.09375.328125.042968.132813.09375.3125.109375.398438.035156.199219.078125.257812.234375.320312.148437.0625.230468.066407.28125.023438zm-.800782-3.4375c.007813-.046875.027344-.097657.046876-.109375.070312-.050782.347656-.015625.347656.042968 0 .03125-.0625.050782-.144532.050782-.035156 0-.070312.019531-.09375.050781-.027343.035156-.058593.050781-.105468.050781h-.0625zm-5.238281 2.535156c.179688-.085937.203125-.136719.210938-.429687l.007812-.246094h-.609375l.007813.179687.003906.183594h-1.238281v-1.050781h1.238281l-.003906.175781-.007813.175781.136719-.015625c.175781-.015625.375-.113281.445313-.214843.039062-.054688.046874-.085938.035156-.15625-.015625-.132813-.078125-.214844-.207032-.277344l-.117187-.058594h-1.75l-.105469.046875c-.140625.066406-.242187.175781-.257812.289063-.007813.046874-.007813.332031-.003906.632812.003906.609375.007812.621094.160156.726562.144531.101563.199218.105469 1.101562.101563l.835938-.003906zm2.578125.046875c.117188-.03125.238282-.117188.28125-.199219.027344-.058593.035156-.125.035156-.320312 0-.292969-.023437-.359375-.140624-.4375-.144532-.097657-.25-.109375-1.003907-.109375h-.6875v-.34375h.914063c.910156 0 .917968 0 .917968-.039063 0-.0625-.050781-.164062-.101562-.214843-.027344-.023438-.09375-.058594-.148438-.078126-.09375-.035156-.167968-.039062-.976562-.039062h-.878906l-.109375.054688c-.128907.0625-.214844.175781-.234375.3125-.019532.144531 0 .429687.039062.503906.046875.085937.1875.175781.320313.207031.058593.011719.378906.019531.792969.019531h.691406v.324219h-.925782c-.839843 0-.929687 0-.917968.03125.007812.015625.011718.042969.011718.058594 0 .082031.199219.230469.359376.269531.109374.027344 1.660156.027344 1.761718 0zm6.066406-.050781c.203126-.101563.210938-.121094.210938-.605469v-.410156h-1.570312v.0625c0 .09375.082031.1875.214843.253906.109375.054688.132813.058594.433594.0625l.316406.007812v.320313h-1.226562v-1.050781h1.835937l-.011718-.082032c-.011719-.101562-.105469-.203124-.234376-.253906-.082031-.03125-.179687-.035156-.957031-.035156h-.867187l-.128906.066406c-.089844.042969-.148438.089844-.179688.136719-.050781.078125-.050781.078125-.058594.644531-.003906.351563.003906.597656.015625.648438.035157.136718.160157.238281.351563.289062.035156.007813.4375.011719.898437.011719l.835938-.003906zm2.625.019531c.050782-.023438.121094-.074219.15625-.117188l.066407-.074218v-.644532c0-.4375-.007813-.660156-.023438-.6875-.046875-.097656-.128906-.15625-.253906-.195312-.121094-.039062-.191406-.039062-.929687-.039062-.855469 0-.921876.003906-1.070313.105468-.035156.023438-.085937.074219-.109375.113282-.039062.066406-.039062.101562-.039062.695312 0 .617188 0 .625.046874.6875.023438.035156.078126.085938.117188.109375.152344.09375.183594.097656 1.09375.09375.820312-.003906.859375-.007813.945312-.046875zm-1.609374-.851562v-.527344h1.238281l-.003907.527344-.007812.523437h-1.226562zm0 0" fill="#fff"/><path d="m8.675781 5.316406c-1.433593 0-2.636719 1.003906-2.945312 2.347656h.433593c.296876-1.113281 1.300782-1.9375 2.511719-1.9375 1.210938 0 2.214844.824219 2.511719 1.9375h.433594c-.308594-1.34375-1.507813-2.347656-2.945313-2.347656zm-2.613281 4.535156c.523438.898438 1.496094 1.507813 2.613281 1.507813 1.117188 0 2.089844-.609375 2.613281-1.507813h-.492187c-.472656.660157-1.242187 1.097657-2.121094 1.097657-.878906 0-1.648437-.4375-2.121093-1.097657zm0 0" fill="#fff"/></svg>