<svg height="17pt" viewBox="0 0 17 17" width="17pt" xmlns="http://www.w3.org/2000/svg" xmlns:xlink="http://www.w3.org/1999/xlink"><clipPath id="a"><path d="m0 0h17v17h-17z"/></clipPath><path d="m3.96875 1.007812h9.0625c1.632812 0 2.960938 1.328126 2.960938 2.960938v9.0625c0 1.632812-1.328126 2.960938-2.960938 2.960938h-9.0625c-1.632812 0-2.960938-1.328126-2.960938-2.960938v-9.0625c0-1.632812 1.328126-2.960938 2.960938-2.960938zm0 0" fill="#f5685d" fill-rule="evenodd"/><g clip-path="url(#a)"><path d="m8.5 4.25c-.882812 0-1.59375.710938-1.59375 1.59375v2.65625c0 .882812.710938 1.59375 1.59375 1.59375s1.59375-.710938 1.59375-1.59375v-2.65625c0-.882812-.710938-1.59375-1.59375-1.59375zm-3.1875 3.71875v.53125c0 1.578125 1.148438 2.886719 2.65625 3.136719v1.113281h1.0625v-1.113281c1.507812-.25 2.65625-1.558594 2.65625-3.136719v-.53125h-1.0625v.53125c0 1.1875-.9375 2.125-2.125 2.125s-2.125-.9375-2.125-2.125v-.53125zm0 0" fill="#fff"/></g></svg>