<svg height="17pt" viewBox="0 0 17 17" width="17pt" xmlns="http://www.w3.org/2000/svg"><path d="m3.96875 1.007812h9.0625c1.632812 0 2.960938 1.328126 2.960938 2.960938v9.0625c0 1.632812-1.328126 2.960938-2.960938 2.960938h-9.0625c-1.632812 0-2.960938-1.328126-2.960938-2.960938v-9.0625c0-1.632812 1.328126-2.960938 2.960938-2.960938zm0 0" fill="#333" fill-rule="evenodd"/><g fill="#933333"><path d="m2.632812 12.414062h1.953126v.976563h-1.953126zm0 0"/><path d="m2.632812 10.945312h1.953126v.976563h-1.953126zm0 0"/><path d="m2.632812 9.476562h1.953126v.980469h-1.953126zm0 0"/></g><path d="m2.632812 8.011719h1.953126v.976562h-1.953126zm0 0" fill="#f88383"/><path d="m2.632812 6.542969h1.953126v.980469h-1.953126zm0 0" fill="#f88383"/><g fill="#e8aa34"><path d="m5.078125 12.414062h1.953125v.976563h-1.953125zm0 0"/><path d="m5.078125 10.945312h1.953125v.976563h-1.953125zm0 0"/><path d="m5.078125 9.476562h1.953125v.980469h-1.953125zm0 0"/></g><g fill="#76185e"><path d="m7.523438 12.414062h1.953124v.976563h-1.953124zm0 0"/><path d="m7.523438 10.945312h1.953124v.976563h-1.953124zm0 0"/><path d="m7.523438 9.476562h1.953124v.980469h-1.953124zm0 0"/></g><g fill="#e272c5"><path d="m7.523438 8.011719h1.953124v.976562h-1.953124zm0 0"/><path d="m7.523438 6.542969h1.953124v.980469h-1.953124zm0 0"/><path d="m7.523438 5.078125h1.953124v.976563h-1.953124zm0 0"/></g><g fill="#4ab225"><path d="m9.96875 12.414062h1.953125v.976563h-1.953125zm0 0"/><path d="m9.96875 10.945312h1.953125v.976563h-1.953125zm0 0"/><path d="m9.96875 9.476562h1.953125v.980469h-1.953125zm0 0"/></g><path d="m9.96875 8.011719h1.953125v.976562h-1.953125zm0 0" fill="#98e97b"/><path d="m9.96875 6.542969h1.953125v.980469h-1.953125zm0 0" fill="#98e97b"/><g fill="#0f3b95"><path d="m12.414062 12.414062h1.953126v.976563h-1.953126zm0 0"/><path d="m12.414062 10.945312h1.953126v.976563h-1.953126zm0 0"/><path d="m12.414062 9.476562h1.953126v.980469h-1.953126zm0 0"/></g><g fill="#4fc2e1"><path d="m12.414062 8.011719h1.953126v.976562h-1.953126zm0 0"/><path d="m12.414062 6.542969h1.953126v.980469h-1.953126zm0 0"/><path d="m12.414062 5.140625h1.953126v.914063h-1.953126zm0 0"/><path d="m12.414062 3.609375h1.953126v.976563h-1.953126zm0 0"/></g></svg>