<svg height="17pt" viewBox="0 0 17 17" width="17pt" xmlns="http://www.w3.org/2000/svg" xmlns:xlink="http://www.w3.org/1999/xlink"><clipPath id="a"><path d="m0 0h17v17h-17z"/></clipPath><path d="m3.96875 1.007812h9.0625c1.632812 0 2.960938 1.328126 2.960938 2.960938v9.0625c0 1.632812-1.328126 2.960938-2.960938 2.960938h-9.0625c-1.632812 0-2.960938-1.328126-2.960938-2.960938v-9.0625c0-1.632812 1.328126-2.960938 2.960938-2.960938zm0 0" fill="#5db43e" fill-rule="evenodd"/><g clip-path="url(#a)"><path d="m8.507812 3.816406c.933594.003906 1.878907.3125 2.613282.917969.519531.632813-.46875 1.308594-.914063.691406-1.339843-.855469-3.226562-.554687-4.238281.726563-.535156.636718-.835938 1.488281-.832031 2.339844h.882812c-.472656.75-.941406 1.496093-1.414062 2.246093l-1.417969-2.246093h.886719c-.03125-2.035157 1.355469-3.972657 3.210937-4.5.398438-.113282.808594-.179688 1.222656-.175782zm3.886719 2.4375c.472657.75.945313 1.5 1.417969 2.246094h-.886719c.027344 2.058594-1.394531 4.019531-3.28125 4.515625-1.277343.378906-2.71875.105469-3.765625-.757813-.535156-.644531.464844-1.3125.914063-.691406 1.296875.832032 3.117187.570313 4.140625-.621094.59375-.648437.933594-1.542968.929687-2.445312h-.882812zm0 0" fill="#fff"/></g></svg>