<svg height="17pt" viewBox="0 0 17 17" width="17pt" xmlns="http://www.w3.org/2000/svg" xmlns:xlink="http://www.w3.org/1999/xlink"><filter id="a" height="100%" width="100%" x="0%" y="0%"><feColorMatrix in="SourceGraphic" type="matrix" values="0 0 0 0 1 0 0 0 0 1 0 0 0 0 1 0 0 0 1 0"/></filter><mask id="b"><g filter="url(#a)"><path d="m0 0h17v17h-17z" fill-opacity=".2"/></g></mask><clipPath id="c"><path d="m0 0h17v17h-17z"/></clipPath><mask id="d"><g filter="url(#a)"><path d="m0 0h17v17h-17z" fill-opacity=".2"/></g></mask><clipPath id="e"><path d="m0 0h17v17h-17z"/></clipPath><mask id="f"><g filter="url(#a)"><path d="m0 0h17v17h-17z" fill-opacity=".2"/></g></mask><clipPath id="g"><path d="m0 0h17v17h-17z"/></clipPath><mask id="h"><g filter="url(#a)"><path d="m0 0h17v17h-17z" fill-opacity=".2"/></g></mask><clipPath id="i"><path d="m0 0h17v17h-17z"/></clipPath><mask id="j"><g filter="url(#a)"><path d="m0 0h17v17h-17z" fill-opacity=".2"/></g></mask><clipPath id="k"><path d="m0 0h17v17h-17z"/></clipPath><mask id="l"><g filter="url(#a)"><path d="m0 0h17v17h-17z" fill-opacity=".2"/></g></mask><clipPath id="m"><path d="m0 0h17v17h-17z"/></clipPath><path d="m1.007812 8.5v4.527344c0 1.644531 1.320313 2.964844 2.960938 2.964844h9.058594c1.644531 0 2.964844-1.320313 2.964844-2.964844v-4.527344zm0 0" fill="#6469bb" fill-rule="evenodd"/><path d="m1.007812 8.5h14.984376v-4.53125c0-1.640625-1.320313-2.960938-2.964844-2.960938h-9.058594c-1.640625 0-2.960938 1.320313-2.960938 2.960938zm0 0" fill="#9293ff" fill-rule="evenodd"/><path d="m4.660156 2.738281h7.679688v4.320313h-7.679688m0-4.320313" fill="#3e3e3e"/><path d="m5.621094 9.941406h5.757812v4.320313h-5.757812m0-4.320313" fill="#3e3e3e"/><g fill="#ccc"><path d="m3.21875 10.421875h.960938v2.878906h-.960938zm0 0"/><path d="m5.140625 11.378906v.960938h-2.878906v-.960938zm0 0"/><path d="m14.738281 11.859375c0 .265625-.214843.480469-.476562.480469-.265625 0-.480469-.214844-.480469-.480469s.214844-.480469.480469-.480469c.261719 0 .476562.214844.476562.480469zm0 0"/><path d="m12.820312 11.859375c0 .265625-.214843.480469-.480468.480469s-.480469-.214844-.480469-.480469.214844-.480469.480469-.480469.480468.214844.480468.480469zm0 0"/><path d="m13.300781 11.378906c-.265625 0-.480469-.214844-.480469-.480468 0-.261719.214844-.476563.480469-.476563s.480469.214844.480469.476563c0 .265624-.214844.480468-.480469.480468zm0 0"/><path d="m13.300781 13.300781c-.265625 0-.480469-.214843-.480469-.480469 0-.265624.214844-.480468.480469-.480468s.480469.214844.480469.480468c0 .265626-.214844.480469-.480469.480469zm0 0"/></g><g clip-path="url(#c)" mask="url(#b)"><path d="m2.261719 6.578125h1.917969v.480469h-1.917969zm0 0"/></g><g clip-path="url(#e)" mask="url(#d)"><path d="m2.261719 5.621094h1.917969v.480468h-1.917969zm0 0"/></g><g clip-path="url(#g)" mask="url(#f)"><path d="m2.261719 4.660156h1.917969v.480469h-1.917969zm0 0"/></g><g clip-path="url(#i)" mask="url(#h)"><path d="m12.820312 6.578125h1.917969v.480469h-1.917969zm0 0"/></g><g clip-path="url(#k)" mask="url(#j)"><path d="m12.820312 5.621094h1.917969v.480468h-1.917969zm0 0"/></g><g clip-path="url(#m)" mask="url(#l)"><path d="m12.820312 4.660156h1.917969v.480469h-1.917969zm0 0"/></g></svg>