<svg height="17pt" viewBox="0 0 17 17" width="17pt" xmlns="http://www.w3.org/2000/svg" xmlns:xlink="http://www.w3.org/1999/xlink"><clipPath id="a"><path d="m0 0h17v17h-17z"/></clipPath><path d="m3.96875 1.007812h9.0625c1.632812 0 2.960938 1.328126 2.960938 2.960938v9.0625c0 1.632812-1.328126 2.960938-2.960938 2.960938h-9.0625c-1.632812 0-2.960938-1.328126-2.960938-2.960938v-9.0625c0-1.632812 1.328126-2.960938 2.960938-2.960938zm0 0" fill="#858585" fill-rule="evenodd"/><path d="m8.5 5.519531c-1.644531 0-2.980469 1.335938-2.980469 2.980469s1.335938 2.980469 2.980469 2.980469 2.980469-1.335938 2.980469-2.980469-1.335938-2.980469-2.980469-2.980469zm0 1.789063c.660156 0 1.191406.53125 1.191406 1.191406s-.53125 1.191406-1.191406 1.191406-1.191406-.53125-1.191406-1.191406.53125-1.191406 1.191406-1.191406zm0 0" fill="#858585"/><path d="m8.5 2.933594c-3.082031 0-5.566406 2.484375-5.566406 5.566406s2.484375 5.566406 5.566406 5.566406 5.566406-2.484375 5.566406-5.566406-2.484375-5.566406-5.566406-5.566406zm0 3.179687c1.316406 0 2.386719 1.070313 2.386719 2.386719s-1.070313 2.386719-2.386719 2.386719-2.386719-1.070313-2.386719-2.386719 1.070313-2.386719 2.386719-2.386719zm0 0" fill="#ccc"/><path d="m8.5 6.886719c-.890625 0-1.613281.722656-1.613281 1.613281s.722656 1.613281 1.613281 1.613281 1.613281-.722656 1.613281-1.613281-.722656-1.613281-1.613281-1.613281zm0 0" fill="#fff"/><g clip-path="url(#a)"><path d="m15.203125 11.914062c0 1.757813-1.425781 3.1875-3.1875 3.1875-1.757813 0-3.1875-1.429687-3.1875-3.1875 0-1.761718 1.429687-3.1875 3.1875-3.1875 1.761719 0 3.1875 1.425782 3.1875 3.1875zm0 0" fill="#ff4d4d"/></g><path d="m12.015625 9.921875c-1.097656 0-1.992187.890625-1.992187 1.992187 0 1.097657.894531 1.992188 1.992187 1.992188 1.101563 0 1.992187-.894531 1.992187-1.992188 0-1.101562-.890624-1.992187-1.992187-1.992187zm0 1.195313c.441406 0 .796875.355468.796875.796874 0 .4375-.355469.796876-.796875.796876-.4375 0-.796875-.359376-.796875-.796876 0-.441406.359375-.796874.796875-.796874zm0 0" fill="#fff"/></svg>