<svg height="17pt" viewBox="0 0 17 17" width="17pt" xmlns="http://www.w3.org/2000/svg"><path d="m3.96875 1.007812h9.0625c1.632812 0 2.960938 1.328126 2.960938 2.960938v9.0625c0 1.632812-1.328126 2.960938-2.960938 2.960938h-9.0625c-1.632812 0-2.960938-1.328126-2.960938-2.960938v-9.0625c0-1.632812 1.328126-2.960938 2.960938-2.960938zm0 0" fill="#ccc" fill-rule="evenodd"/><path d="m7 8h9.897059s7.102941.352941 7.102941 8-7.102941 8-7.102941 8h-9.897059" fill="none" stroke="#696969" stroke-width="2" transform="matrix(.53125 0 0 .53125 0 -1.0625)"/><path d="m4.78125 2.976562v10.304688h-1.0625l1.59375 1.0625 1.59375-1.0625h-1.0625v-10.304688zm0 0" fill="#696969" fill-rule="evenodd"/></svg>