<svg height="17pt" viewBox="0 0 17 17" width="17pt" xmlns="http://www.w3.org/2000/svg"><path d="m3.96875 1.007812h9.0625c1.632812 0 2.960938 1.328126 2.960938 2.960938v9.0625c0 1.632812-1.328126 2.960938-2.960938 2.960938h-9.0625c-1.632812 0-2.960938-1.328126-2.960938-2.960938v-9.0625c0-1.632812 1.328126-2.960938 2.960938-2.960938zm0 0" fill="#59a7d1" fill-rule="evenodd"/><path d="m2.921875 5.046875v1.59375h5.691406c.421875 0 .683594.226563.683594.582031v2.554688c0 .355468-.261719.574218-.683594.582031h-4.089843v-3.050781h-1.601563v4.644531h6.828125c.632812 0 1.140625-.511719 1.140625-1.152344v-4.601562c0-.640625-.507813-1.152344-1.140625-1.152344zm0 0" fill="#fff"/><path d="m12.484375 5.046875v1.59375h1.59375v-1.59375zm0 2.125v4.78125h1.59375v-4.78125zm0 0" fill="#fff"/></svg>