<svg height="17pt" viewBox="0 0 17 17" width="17pt" xmlns="http://www.w3.org/2000/svg" xmlns:xlink="http://www.w3.org/1999/xlink"><clipPath id="a"><path d="m0 0h17v17h-17z"/></clipPath><g fill-rule="evenodd"><path d="m15.992188 6.492188v-2.523438c0-1.640625-1.320313-2.960938-2.960938-2.960938h-2.523438zm0 0" fill="#3074ff"/><path d="m9.621094 1.007812h-5.648438c-1.644531 0-2.964844 1.320313-2.964844 2.960938v9.058594c0 1.644531 1.320313 2.964844 2.964844 2.964844h9.058594c1.640625 0 2.960938-1.320313 2.960938-2.964844v-5.648438zm0 0" fill="#3074ff"/><path d="m9.621094 1.007812 6.371094 6.371094v-.886718l-5.484376-5.484376zm0 0" fill="#fff"/></g><g clip-path="url(#a)"><path d="m4.582031 13.378906v-.65625h5.222657v.65625zm0-1.972656v-.65625h7.835938v.65625zm0-1.972656v-.660156h7.835938v.660156zm0-1.976563v-.65625h7.835938v.65625zm0 0" fill="#fff"/></g></svg>