<svg height="17pt" viewBox="0 0 17 17" width="17pt" xmlns="http://www.w3.org/2000/svg"><path d="m3.96875 1.007812h9.0625c1.632812 0 2.960938 1.328126 2.960938 2.960938v9.0625c0 1.632812-1.328126 2.960938-2.960938 2.960938h-9.0625c-1.632812 0-2.960938-1.328126-2.960938-2.960938v-9.0625c0-1.632812 1.328126-2.960938 2.960938-2.960938zm0 0" fill="#fec786" fill-rule="evenodd"/><path d="m11.6875 9.519531c.292969 2.042969-1.167969 4.867188-1.652344 4.726563-.164062.191406-3.191406-1.664063-3.542968-3.671875-.035157-.1875-.875-1.5-.492188-1.089844.550781.582031-.566406-1.152344-.316406-1.6875.367187-.785156 2.398437-.902344 3.347656-.902344.871094 0 1.886719-.394531 2.324219.101563.367187.417968.207031 1.636718.332031 2.523437zm0 0" fill="#fff"/><g fill="#4f4f4f"><path d="m9.117188 12.558594c0-.054688.125-.128906.507812-.292969.179688-.074219.238281-.082031.28125-.03125.027344.035156.042969.074219.03125.089844-.023438.023437-.753906.289062-.800781.289062-.011719 0-.019531-.023437-.019531-.054687zm0 0"/><path d="m9.308594 11.867188c-.210938-.085938-.269532-.222657-.070313-.15625.320313.101562.328125.085937.304688-.492188-.015625-.363281 0-.527344.046875-.492188.039062.03125.078125.320313.09375.640626.027344.644531.011718.667968-.375.5zm0 0"/><path d="m4.925781 9.875c-.199219-.136719-.359375-.253906-.359375-.269531.003906-.011719.105469-.105469.226563-.207031.214843-.175782.246093-.328126.246093-.453126 0-.0625-.796874-1.164062-1.296874-1.785156-.191407-.242187-.363282-.476562-.378907-.523437-.019531-.050781.003907-.128907.0625-.207031.199219-.253907.53125-.664063.714844-1.015626.179687-.347656.398437-.632812.4375-.574218.054687.089844.109375.035156.539063-.542969.4375-.582031.792968-1.125.878906-1.125.097656 0 .058594.097656-.128906.308594-.332032.355469-.4375.847656-.4375 1.167969-.03125.609374.464843 1.046874 1 1.292968.6875.160156 1.328124.089844 1.449218-.484375.101563-.480469-.238281-.773437-.628906-.890625-.09375.042969-.371094.335938-.460938.617188-.027343.097656-.117187.058594-.117187-.050782 0-.226562.257813-.808593.394531-1.058593.191406-.347657.402344-.367188.574219-.332031.09375.019531.167969-.039063.253906-.109376l.125-.097656c.421875.3125.898438.542969 1.351563.808594.511718.359375 1 .566406 1.003906.617188.003906.03125.003906.03125-.003906.253906-.007813.382812-.003906.402344.089844.402344.191406 0 .382812-.105469.636718-.414063.445313-.539063.503906-.542969.503906-.996094.03125-.34375-.421874-1.085937-.710937-.808593-.117187.121093-.257813.542968-.214844.65625.03125.078124.214844.128906.3125.089843.109375-.039062.089844.042969-.027343.152344-.160157.144531-.332032.167969-.457032.066406-.15625-.128906-.195312-.628906-.078125-.953125.113281-.304687.511719-.628906.597657-.664062.09375-.035156.199218.042968.578124.539062.613282.917969 1.277344 1.742188 1.875 2.621094.074219.109375.144532.265625.160157.351562.023437.144532-.003907.191407-.332031.566407-.535157.613281-.898438 1.113281-.898438 1.238281 0 .136719.277344.246094.523438.285156.175781.027344.292968.085938.292968.148438-.289062.398437-1.433594 2.011718-1.570312 1.902344-.015625-.023438-.035156-.28125-.050782-.578126-.105468-.800781-.144531-1.230468-.238281-2.011718-.027343-.152344-.03125-.15625-.21875-.128906-.453125.0625-1.015625.097656-1.464843.171874-.363282.0625-.679688.316407-.828126.234376-.148437-.078126-.945312-.222657-1.417968-.28125-1.394532-.175782-1.167969-.148438-1.167969.023437l.304687 2.476563s.148438.664062.027344.664062c-.667968-.253906-1.15625-.738281-1.671875-1.09375zm0 0"/><path d="m8.707031 10.558594c0 .226562-.183593.410156-.414062.410156-.226563 0-.410157-.183594-.410157-.410156 0-.230469.183594-.414063.410157-.414063.230469 0 .414062.183594.414062.414063zm0 0"/><path d="m7.171875 9.734375c-.027344 0-.046875.003906-.054687.007813-.019532.015624-.042969.097656-.046876.1875l-.011718.164062.570312.027344c.316406.027344.671875.035156.972656.011718.105469 0 .117188-.007812.09375-.0625-.066406-.140624-.175781-.226562-.304687-.234374-.066406-.003907-.375-.03125-.679687-.0625-.257813-.027344-.449219-.042969-.539063-.039063zm0 0"/><path d="m9.628906 9.324219c-.042968 0-.066406.003906-.074218.007812-.019532.019531-.03125.117188-.023438.21875.011719.164063.023438.179688.125.171875.28125.015625.566406.011719.855469.011719.226562-.007813.503906-.152344.664062-.230469 0-.023437-.023437-.042968-.050781-.042968-.023438 0-.378906-.035157-.789062-.082032-.324219-.039062-.585938-.058594-.707032-.054687zm0 0"/><path d="m10.351562 10.144531c0 .226563-.183593.414063-.410156.414063-.230468 0-.414062-.1875-.414062-.414063 0-.226562.183594-.410156.414062-.410156.226563 0 .410156.183594.410156.410156zm0 0"/></g></svg>