<svg height="17pt" viewBox="0 0 17 17" width="17pt" xmlns="http://www.w3.org/2000/svg" xmlns:xlink="http://www.w3.org/1999/xlink"><clipPath id="a"><path d="m0 0h17v17h-17z"/></clipPath><path d="m3.96875 1.007812h9.0625c1.632812 0 2.960938 1.328126 2.960938 2.960938v9.0625c0 1.632812-1.328126 2.960938-2.960938 2.960938h-9.0625c-1.632812 0-2.960938-1.328126-2.960938-2.960938v-9.0625c0-1.632812 1.328126-2.960938 2.960938-2.960938zm0 0" fill="#f58435" fill-rule="evenodd"/><g clip-path="url(#a)"><path d="m6.109375 5.84375c-.878906 0-1.59375.714844-1.59375 1.59375s.714844 1.59375 1.59375 1.59375 1.59375-.714844 1.59375-1.59375h-1.59375zm2.65625 0v1.0625h3.71875v-1.0625zm0 2.125v1.0625h3.71875v-1.0625zm-4.25 2.125v1.0625h6.375v-1.0625zm0 0" fill="#d6352f"/></g></svg>