<svg height="17pt" viewBox="0 0 17 17" width="17pt" xmlns="http://www.w3.org/2000/svg"><path d="m3.96875 1.007812h9.0625c1.632812 0 2.960938 1.328126 2.960938 2.960938v9.0625c0 1.632812-1.328126 2.960938-2.960938 2.960938h-9.0625c-1.632812 0-2.960938-1.328126-2.960938-2.960938v-9.0625c0-1.632812 1.328126-2.960938 2.960938-2.960938zm0 0" fill="#69c561" fill-rule="evenodd"/><path d="m12.664062 3.617188-5.664062 1.304687c-.800781.101563-.769531.917969-.769531.917969v3.484375c-.183594-.050781-.375-.078125-.566407-.082031-1.148437 0-2.082031.933593-2.082031 2.082031 0 1.148437.933594 2.078125 2.082031 2.078125 1.074219 0 1.972657-.820313 2.070313-1.890625h.007813v-5.234375l4.160156-.988282v2.902344c-.183594-.054687-.375-.082031-.566406-.082031-1.148438 0-2.078126.929687-2.078126 2.078125 0 1.152344.929688 2.082031 2.078126 2.082031 1.074218 0 1.972656-.820312 2.070312-1.890625h.011719v-6.050781s.007812-.875-.753907-.710937zm0 0" fill="#4f4f4f"/><path d="m14.917969 12.089844c0 1.46875-1.1875 2.65625-2.65625 2.65625-1.464844 0-2.65625-1.1875-2.65625-2.65625 0-1.464844 1.191406-2.65625 2.65625-2.65625 1.46875 0 2.65625 1.191406 2.65625 2.65625zm0 0" fill="#fff"/><g fill="#69c561"><path d="m12.261719 11.425781h.332031v1.992188h-.332031zm0 0"/><path d="m12.925781 10.761719h.332031v2.65625h-.332031zm0 0"/><path d="m11.597656 12.089844h.332032v1.328125h-.332032zm0 0"/><path d="m10.933594 12.753906h.332031v.664063h-.332031zm0 0"/></g></svg>