<svg height="17pt" viewBox="0 0 17 17" width="17pt" xmlns="http://www.w3.org/2000/svg"><path d="m3.96875 1.007812h9.0625c1.632812 0 2.960938 1.328126 2.960938 2.960938v9.0625c0 1.632812-1.328126 2.960938-2.960938 2.960938h-9.0625c-1.632812 0-2.960938-1.328126-2.960938-2.960938v-9.0625c0-1.632812 1.328126-2.960938 2.960938-2.960938zm0 0" fill="#b0e8fb" fill-rule="evenodd"/><g fill="#59aacc"><path d="m5.3125 7.703125c0 .878906-.714844 1.59375-1.59375 1.59375s-1.59375-.714844-1.59375-1.59375.714844-1.59375 1.59375-1.59375 1.59375.714844 1.59375 1.59375zm0 0"/><path d="m14.875 7.703125c0 .878906-.714844 1.59375-1.59375 1.59375s-1.59375-.714844-1.59375-1.59375.714844-1.59375 1.59375-1.59375 1.59375.714844 1.59375 1.59375zm0 0"/><path d="m11.289062 9.609375c0 .707031-1.25 1.28125-2.789062 1.28125s-2.789062-.574219-2.789062-1.28125 1.25 0 2.789062 0 2.789062-.707031 2.789062 0zm0 0"/></g><path d="m4.914062 7.304688c0 .21875-.179687.398437-.398437.398437s-.398437-.179687-.398437-.398437.179687-.398438.398437-.398438.398437.179688.398437.398438zm0 0" fill="#fff"/><path d="m14.476562 7.304688c0 .21875-.179687.398437-.398437.398437s-.398437-.179687-.398437-.398437.179687-.398438.398437-.398438.398437.179688.398437.398438zm0 0" fill="#fff"/></svg>