<svg height="17pt" viewBox="0 0 17 17" width="17pt" xmlns="http://www.w3.org/2000/svg"><path d="m3.96875 1.007812h9.0625c1.632812 0 2.960938 1.328126 2.960938 2.960938v9.0625c0 1.632812-1.328126 2.960938-2.960938 2.960938h-9.0625c-1.632812 0-2.960938-1.328126-2.960938-2.960938v-9.0625c0-1.632812 1.328126-2.960938 2.960938-2.960938zm0 0" fill="#2496f2" fill-rule="evenodd"/><path d="m8.5 2.65625c-3.226562 0-5.84375 2.617188-5.84375 5.84375s2.617188 5.84375 5.84375 5.84375 5.84375-2.617188 5.84375-5.84375-2.617188-5.84375-5.84375-5.84375zm-1.59375 1.59375h3.1875c.882812 0 1.59375.722656 1.59375 1.617188v.8125c0 .898437-.710938 1.820312-1.59375 1.820312h-.53125v3.441406c0 .449219-.222656.808594-.664062.808594h-.796876c-.441406 0-.648437-.359375-.664062-.808594v-3.441406h-.53125c-.882812 0-1.59375-.925781-1.59375-1.820312v-.8125c0-.894532.710938-1.617188 1.59375-1.617188zm0 0" fill="#fff"/></svg>