<svg height="17pt" viewBox="0 0 17 17" width="17pt" xmlns="http://www.w3.org/2000/svg" xmlns:xlink="http://www.w3.org/1999/xlink"><clipPath id="a"><path d="m0 0h17v17h-17z"/></clipPath><path d="m3.96875 1.007812h9.0625c1.632812 0 2.960938 1.328126 2.960938 2.960938v9.0625c0 1.632812-1.328126 2.960938-2.960938 2.960938h-9.0625c-1.632812 0-2.960938-1.328126-2.960938-2.960938v-9.0625c0-1.632812 1.328126-2.960938 2.960938-2.960938zm0 0" fill="#ffce7b" fill-rule="evenodd"/><path d="m3.96875 1.007812c-1.640625 0-2.960938 1.320313-2.960938 2.960938v5.691406c.535157-.109375 1.140626-.265625 1.582032-.320312.808594-.09375 1.472656-.101563 2.054687-.042969.578125.054687 1.074219.175781 1.542969.332031.464844.15625.902344.347656 1.367188.550782.460937.203124.953124.414062 1.527343.613281.578125.195312 1.234375.375 2.03125.511719.796875.140624 1.734375.234374 2.867188.257812.566406.011719 1.34375-.054688 2.011719-.078125v-7.515625c0-1.640625-1.320313-2.960938-2.960938-2.960938zm0 0" fill="#ffce7b" fill-rule="evenodd"/><g clip-path="url(#a)"><path d="m12.007812 3.175781c1.167969 0 2.113282.945313 2.113282 2.113281 0 1.167969-.945313 2.113282-2.113282 2.113282-1.164062 0-2.113281-.945313-2.113281-2.113282 0-1.167968.949219-2.113281 2.113281-2.113281zm0 0" fill="#ff8e30" fill-rule="evenodd"/></g><path d="m10.261719 10.921875c-2.613281.238281-4.609375 1.667969-7.667969 1.511719-.628906-.054688-1.144531-.175782-1.585938-.34375v.941406c0 .335938.089844.640625.191407.941406.496093-.265625.992187-.476562 1.484375-.597656.554687-.136719 1.105468-.195312 1.660156-.199219 1.109375-.015625 2.234375.175781 3.421875.34375.59375.082031 1.199219.15625 1.828125.199219.628906.039062 1.28125.046875 1.960938-.011719.675781-.054687 1.382812-.175781 2.117187-.386719.738281-.210937 1.511719-.515624 2.320313-.941406-2.375-1.3125-4.164063-1.601562-5.730469-1.457031zm0 0" fill="#869fcb" fill-rule="evenodd"/><path d="m15.992188 12.378906c-.808594.425782-1.582032.730469-2.320313.941406-.734375.210938-1.441406.332032-2.117187.386719-.679688.058594-1.332032.050781-1.960938.011719-.628906-.042969-1.234375-.117188-1.828125-.199219-1.1875-.167969-2.3125-.359375-3.421875-.34375-.554688.003907-1.105469.0625-1.660156.199219-.492188.121094-.988282.332031-1.484375.597656.394531 1.167969 1.464843 2.019532 2.769531 2.019532h9.0625c1.640625 0 2.960938-1.320313 2.960938-2.960938zm0 0" fill="#3862c3" fill-rule="evenodd"/></svg>