<svg height="17pt" viewBox="0 0 17 17" width="17pt" xmlns="http://www.w3.org/2000/svg" xmlns:xlink="http://www.w3.org/1999/xlink"><clipPath id="a"><path d="m0 0h17v17h-17z"/></clipPath><clipPath id="b"><path d="m0 0h17v17h-17z"/></clipPath><path d="m3.96875 1.007812h9.0625c1.632812 0 2.960938 1.328126 2.960938 2.960938v9.0625c0 1.632812-1.328126 2.960938-2.960938 2.960938h-9.0625c-1.632812 0-2.960938-1.328126-2.960938-2.960938v-9.0625c0-1.632812 1.328126-2.960938 2.960938-2.960938zm0 0" fill="#ccc" fill-rule="evenodd"/><g clip-path="url(#a)"><path d="m8.960938 4.78125c-.980469 0-1.578126 1.097656-1.953126 2.078125l-.472656 1.433594-.601562 1.921875c-.1875.542968-.320313 1.402344-.886719 1.472656-.25.03125-.238281-.53125-.53125-.53125s-.53125.238281-.53125.53125.238281.53125.53125.53125h.335937c1.136719 0 1.785157-1.429688 2.269532-3.003906l.273437-.886719.4375-1.402344c.222657-.578125.316407-1.53125.933594-1.613281.25-.03125.238281.53125.53125.53125s.53125-.238281.53125-.53125-.238281-.53125-.53125-.53125zm0 0" fill="#404040"/></g><path d="m5.046875 7.4375h4.25v.53125h-4.25zm0 0" fill="#404040"/><g clip-path="url(#b)"><path d="m12.148438 4.78125c-.980469 0-1.578126 1.097656-1.953126 2.078125l-.472656 1.433594-.601562 1.921875c-.1875.542968-.320313 1.402344-.886719 1.472656-.25.03125-.238281-.53125-.53125-.53125s-.53125.238281-.53125.53125.238281.53125.53125.53125h.335937c1.136719 0 1.785157-1.429688 2.269532-3.003906l.273437-.886719.4375-1.402344c.222657-.578125.316407-1.53125.933594-1.613281.25-.03125.238281.53125.53125.53125s.53125-.238281.53125-.53125-.238281-.53125-.53125-.53125zm0 0" fill="#404040"/></g><path d="m8.234375 7.4375h4.25v.53125h-4.25zm0 0" fill="#404040"/></svg>