<svg height="17pt" viewBox="0 0 17 17" width="17pt" xmlns="http://www.w3.org/2000/svg"><path d="m3.96875 1.007812h9.0625c1.632812 0 2.960938 1.328126 2.960938 2.960938v9.0625c0 1.632812-1.328126 2.960938-2.960938 2.960938h-9.0625c-1.632812 0-2.960938-1.328126-2.960938-2.960938v-9.0625c0-1.632812 1.328126-2.960938 2.960938-2.960938zm0 0" fill="#91dd48" fill-rule="evenodd"/><g fill="#fff"><path d="m7.964844 3.542969h1.070312c1.183594 0 2.132813.929687 2.132813 2.085937v5.742188c0 1.15625-.949219 2.085937-2.132813 2.085937h-1.070312c-1.183594 0-2.132813-.929687-2.132813-2.085937v-5.742188c0-1.15625.949219-2.085937 2.132813-2.085937zm0 0"/><path d="m4.488281 3.152344c-.316406.007812-.570312.265625-.5625.582031v2.667969c0 .316406.253907.570312.570313.570312h2.667968c.207032.003906.398438-.105468.503907-.28125.101562-.179687.101562-.398437 0-.578125-.105469-.175781-.296875-.285156-.503907-.28125h-2.097656v-2.097656c.003906-.15625-.058594-.304687-.167968-.414063-.109376-.109374-.257813-.167968-.410157-.167968zm0 0"/><path d="m3.351562 4.304688c-.207031-.003907-.398437.105468-.5.285156-.105468.175781-.105468.398437 0 .574218.101563.179688.292969.289063.5.285157h.761719c.207031.003906.398438-.105469.503907-.285157.105468-.175781.105468-.398437 0-.574218-.105469-.179688-.296876-.289063-.503907-.285156zm0 0"/><path d="m4.496094 10.023438c-.316406 0-.570313.257812-.570313.574218v2.667969c-.003906.207031.105469.398437.28125.503906.179688.101563.398438.101563.578125 0 .175782-.105469.285156-.296875.28125-.503906v-2.097656h2.097656c.207032.003906.398438-.105469.503907-.28125.101562-.179688.101562-.398438 0-.578125-.105469-.179688-.296875-.285156-.503907-.285156zm0 0"/><path d="m3.351562 11.550781c-.207031-.003906-.398437.105469-.5.285157-.105468.175781-.105468.398437 0 .574218.101563.179688.292969.289063.5.285156h.761719c.207031.003907.398438-.105468.503907-.285156.105468-.175781.105468-.398437 0-.574218-.105469-.179688-.296876-.289063-.503907-.285157zm0 0"/><path d="m12.496094 3.152344c-.316406.007812-.566406.265625-.5625.582031v2.097656h-2.097656c-.207032-.003906-.398438.105469-.503907.28125-.101562.179688-.101562.398438 0 .578125.105469.175782.296875.285156.503907.28125h2.667968c.316406 0 .570313-.253906.570313-.570312v-2.667969c.003906-.15625-.058594-.304687-.167969-.414063-.109375-.109374-.257812-.167968-.410156-.167968zm0 0"/><path d="m12.886719 4.304688c-.207031-.003907-.398438.105468-.503907.285156-.105468.175781-.105468.398437 0 .574218.105469.179688.296876.289063.503907.285157h.761719c.207031.003906.398437-.105469.5-.285157.105468-.175781.105468-.398437 0-.574218-.101563-.179688-.292969-.289063-.5-.285156zm0 0"/><path d="m9.835938 10.023438c-.207032 0-.398438.105468-.503907.285156-.101562.179687-.101562.398437 0 .578125.105469.175781.296875.285156.503907.28125h2.097656v2.097656c-.003906.207031.105468.398437.28125.503906.179687.101563.398437.101563.578125 0 .175781-.105469.285156-.296875.28125-.503906v-2.667969c0-.316406-.253907-.574218-.570313-.574218zm0 0"/><path d="m12.886719 11.550781c-.207031-.003906-.398438.105469-.503907.285157-.105468.175781-.105468.398437 0 .574218.105469.179688.296876.289063.503907.285156h.761719c.207031.003907.398437-.105468.5-.285156.105468-.175781.105468-.398437 0-.574218-.101563-.179688-.292969-.289063-.5-.285157zm0 0"/></g><path d="m7.738281 4.304688c0 .632812-.511719 1.144531-1.144531 1.144531s-1.144531-.511719-1.144531-1.144531c0-.632813.511719-1.144532 1.144531-1.144532s1.144531.511719 1.144531 1.144532zm0 0" fill="#9a48dd"/><path d="m7.355469 4.304688c0 .421874-.339844.761718-.761719.761718s-.761719-.339844-.761719-.761718c0-.421876.339844-.761719.761719-.761719s.761719.339843.761719.761719zm0 0" fill="#fff"/><path d="m11.550781 4.304688c0 .632812-.511719 1.144531-1.144531 1.144531s-1.144531-.511719-1.144531-1.144531c0-.632813.511719-1.144532 1.144531-1.144532s1.144531.511719 1.144531 1.144532zm0 0" fill="#9a48dd"/><path d="m11.167969 4.304688c0 .421874-.339844.761718-.761719.761718s-.761719-.339844-.761719-.761718c0-.421876.339844-.761719.761719-.761719s.761719.339843.761719.761719zm0 0" fill="#fff"/></svg>