<svg height="17pt" viewBox="0 0 17 17" width="17pt" xmlns="http://www.w3.org/2000/svg"><path d="m3.96875 1.007812h9.0625c1.632812 0 2.960938 1.328126 2.960938 2.960938v9.0625c0 1.632812-1.328126 2.960938-2.960938 2.960938h-9.0625c-1.632812 0-2.960938-1.328126-2.960938-2.960938v-9.0625c0-1.632812 1.328126-2.960938 2.960938-2.960938zm0 0" fill="#1d81e8" fill-rule="evenodd"/><path d="m8.5 3.1875c-2.933594 0-5.3125 2.378906-5.3125 5.3125s2.378906 5.3125 5.3125 5.3125 5.3125-2.378906 5.3125-5.3125-2.378906-5.3125-5.3125-5.3125zm-2.539062 3.71875c.628906-.015625 1.21875.507812 1.414062 1.246094.222656.859375-.160156 1.710937-.859375 1.902344-.699219.195312-1.445313-.347657-1.671875-1.207032-.222656-.859375.160156-1.710937.859375-1.902344.082031-.023437.171875-.035156.257813-.039062zm5.078124 0c .085938.003906.175782.015625.257813.039062.699219.191407 1.082031 1.042969.859375 1.902344-.109375.414063-.34375.773438-.660156 1-.3125.226563-.675782.300782-1.011719.207032-.699219-.191407-1.082031-1.042969-.859375-1.902344.195312-.738282.785156-1.261719 1.414062-1.246094zm0 0" fill="#ffc05b"/></svg>