<svg height="17pt" viewBox="0 0 17 17" width="17pt" xmlns="http://www.w3.org/2000/svg" xmlns:xlink="http://www.w3.org/1999/xlink"><filter id="a" height="100%" width="100%" x="0%" y="0%"><feColorMatrix in="SourceGraphic" type="matrix" values="0 0 0 0 1 0 0 0 0 1 0 0 0 0 1 0 0 0 1 0"/></filter><mask id="b"><g filter="url(#a)"><path d="m0 0h17v17h-17z" fill-opacity=".101961"/></g></mask><clipPath id="c"><path d="m0 0h17v17h-17z"/></clipPath><mask id="d"><g filter="url(#a)"><path d="m0 0h17v17h-17z" fill-opacity=".101961"/></g></mask><clipPath id="e"><path d="m0 0h17v17h-17z"/></clipPath><path d="m3.96875 1.007812h9.0625c1.632812 0 2.960938 1.328126 2.960938 2.960938v9.0625c0 1.632812-1.328126 2.960938-2.960938 2.960938h-9.0625c-1.632812 0-2.960938-1.328126-2.960938-2.960938v-9.0625c0-1.632812 1.328126-2.960938 2.960938-2.960938zm0 0" fill="#3f3f3f" fill-rule="evenodd"/><path d="m8.894531 13.226562c2.097657-.109374 3.722657-.464843 4.351563-.660156-1.046875-.335937-1.019532-1.695312-.625-2.402344zm0 0" fill="#ccc"/><g clip-path="url(#c)" mask="url(#b)"><path d="m7.796875 7.660156c.125-.742187-.210937-1.421875-.757813-1.519531-.546874-.097656-1.09375.421875-1.222656 1.164063-.128906.742187.210938 1.425781.757813 1.523437s1.09375-.425781 1.222656-1.167969zm0 0" fill-rule="evenodd"/></g><g clip-path="url(#e)" mask="url(#d)"><path d="m11.183594 7.304688c-.128906-.742188-.675782-1.261719-1.222656-1.164063-.546876.097656-.886719.777344-.757813 1.519531.128906.742188.679687 1.265625 1.226563 1.167969.542968-.097656.882812-.78125.753906-1.523437zm0 0" fill-rule="evenodd"/></g><g fill-rule="evenodd"><g fill="#ccc"><path d="m12.90625 8.5c0-2.621094-1.972656-4.746094-4.40625-4.746094s-4.40625 2.125-4.40625 4.746094 1.972656 4.746094 4.40625 4.746094 4.40625-2.125 4.40625-4.746094zm0 0"/><path d="m13.582031 6.804688c0 .5625-.453125 1.015624-1.015625 1.015624s-1.015625-.453124-1.015625-1.015624.453125-1.015626 1.015625-1.015626 1.015625.453126 1.015625 1.015626zm0 0"/><path d="m5.449219 6.804688c0 .5625-.453125 1.015624-1.015625 1.015624s-1.015625-.453124-1.015625-1.015624.453125-1.015626 1.015625-1.015626 1.015625.453126 1.015625 1.015626zm0 0"/></g><path d="m7.796875 7.324219c.125-.742188-.210937-1.425781-.757813-1.523438-.546874-.097656-1.09375.421875-1.222656 1.164063-.128906.742187.210938 1.425781.757813 1.523437.546875.097657 1.09375-.421875 1.222656-1.164062zm0 0" fill="#3f3f3f"/><path d="m11.183594 6.96875c-.128906-.742188-.675782-1.265625-1.222656-1.167969-.546876.097657-.886719.777344-.757813 1.519531.128906.742188.679687 1.265626 1.226563 1.167969.542968-.097656.882812-.777343.753906-1.519531zm0 0" fill="#3f3f3f"/></g></svg>