<svg height="17pt" viewBox="0 0 17 17" width="17pt" xmlns="http://www.w3.org/2000/svg"><path d="m3.96875 1.007812h9.0625c1.632812 0 2.960938 1.328126 2.960938 2.960938v9.0625c0 1.632812-1.328126 2.960938-2.960938 2.960938h-9.0625c-1.632812 0-2.960938-1.328126-2.960938-2.960938v-9.0625c0-1.632812 1.328126-2.960938 2.960938-2.960938zm0 0" fill="#8e8e8e" fill-rule="evenodd"/><path d="m3.96875 1.007812c-1.640625 0-2.960938 1.320313-2.960938 2.960938v9.058594c0 1.644531 1.320313 2.964844 2.960938 2.964844h4.53125v-4.097657c0-.410156.082031-.800781.230469-1.15625.152343-.355469.367187-.671875.636719-.941406.265624-.265625.585937-.484375.9375-.632813.355468-.148437.746093-.234374 1.15625-.234374h4.53125v-4.960938c0-1.640625-1.320313-2.960938-2.964844-2.960938zm0 0" fill="#8e8e8e" fill-rule="evenodd"/><g fill="#4d4d4d"><path d="m14.421875 3.328125c0 .421875-.34375.765625-.765625.765625s-.761719-.34375-.761719-.765625.339844-.761719.761719-.761719.765625.339844.765625.761719zm0 0"/><path d="m4.082031 3.328125c0 .421875-.34375.765625-.765625.765625s-.761718-.34375-.761718-.765625.339843-.761719.761718-.761719.765625.339844.765625.761719zm0 0"/><path d="m14.445312 13.667969c0 .421875-.339843.765625-.761718.765625s-.765625-.34375-.765625-.765625.34375-.761719.765625-.761719.761718.339844.761718.761719zm0 0"/><path d="m4.105469 13.667969c0 .421875-.339844.765625-.761719.765625s-.765625-.34375-.765625-.765625.34375-.761719.765625-.761719.761719.339844.761719.761719zm0 0"/><path d="m8.5 4.78125c-2.054688 0-3.71875 1.664062-3.71875 3.71875v3.71875h3.71875c2.054688 0 3.71875-1.664062 3.71875-3.71875s-1.664062-3.71875-3.71875-3.71875zm0 1.59375c1.171875 0 2.125.953125 2.125 2.125s-.953125 2.125-2.125 2.125-2.125-.953125-2.125-2.125.953125-2.125 2.125-2.125zm0 0"/></g><path d="m15.992188 8.929688h-4.53125c-.410157 0-.800782.085937-1.15625.234374-.351563.148438-.671876.367188-.9375.632813-.269532.269531-.484376.585937-.636719.941406-.148438.355469-.230469.746094-.230469 1.15625v4.097657h4.527344c1.644531 0 2.964844-1.320313 2.964844-2.964844zm0 0" fill="#4daaf5" fill-rule="evenodd"/><path d="m12.523438 10.308594c-.15625 0-.316407.074218-.417969.1875-.101563.113281-.160157.265625-.160157.417968 0 .148438.0625.300782.160157.410157v.003906h.003906c.101563.109375.257813.183594.414063.183594.160156 0 .324218-.074219.429687-.195313.101563-.117187.15625-.269531.15625-.421875 0-.148437-.0625-.296875-.160156-.40625-.105469-.113281-.269531-.179687-.425781-.179687zm-.417969 1.261718c-.101563 0-.199219.019532-.3125.050782-.121094.035156-.25.082031-.390625.144531l-.121094.054687-.167969.71875.429688-.113281c.019531-.007812.0625-.015625.117187-.027343.035156-.003907.046875-.003907.0625-.007813 0 .023437 0 .042969-.007812.082031h-.003906v.003906c-.011719.0625-.023438.121094-.035157.175782l-.261719 1.054687v.003907c-.015624.066406-.03125.125-.039062.175781-.007812.054687-.011719.109375-.011719.164062 0 .15625.0625.320313.171875.4375l.003906.003907c.128907.128906.3125.179687.488282.179687.097656 0 .195312-.015625.300781-.042969h.003906c.113281-.03125.238281-.074218.398438-.140625l.125-.050781.183593-.773438-.464843.171876s-.03125.007812-.082031.015624c-.050782.007813-.089844.007813-.097657.007813-.003906 0 0 0 0 0 0-.015625 0-.039063.007813-.078125l.003906-.003906c.011719-.058594.023438-.117188.039062-.175782l.265626-1.0625c.015624-.0625.03125-.125.039062-.1875.007812-.058593.011719-.105468.011719-.15625 0-.160156-.054688-.324218-.167969-.445312-.128906-.136719-.308594-.179688-.488281-.179688zm-.351563.78125.007813.007813c-.015625-.015625 0 .007813-.007813 0-.007812-.007813.011719.007813 0-.007813zm0 0" fill="#fff"/></svg>