<svg height="17pt" viewBox="0 0 17 17" width="17pt" xmlns="http://www.w3.org/2000/svg" xmlns:xlink="http://www.w3.org/1999/xlink"><clipPath id="a"><path d="m0 0h17v17h-17z"/></clipPath><path d="m3.96875 1.007812h9.0625c1.632812 0 2.960938 1.328126 2.960938 2.960938v9.0625c0 1.632812-1.328126 2.960938-2.960938 2.960938h-9.0625c-1.632812 0-2.960938-1.328126-2.960938-2.960938v-9.0625c0-1.632812 1.328126-2.960938 2.960938-2.960938zm0 0" fill="#c2352a" fill-rule="evenodd"/><g clip-path="url(#a)"><path d="m7.257812 2.753906c-.089843.074219-.109374.191406-.109374.324219 0 .25.085937.558594.128906.671875 0 0 .066406 1.347656.085937 1.5-.195312.019531-.542969.039062-.671875.078125h-.175781c-.371094.019531-.71875.039063-.871094.171875l-.066406.058594.066406.078125c.109375.113281.152344.441406.195313.785156.109375.714844.238281 1.597656.894531 1.941406l.128906.058594v-.132813s.023438-.058593.023438-.136718c0-.054688-.023438-.152344-.042969-.285156.171875.015624.542969.054687.675781.054687.019531.15625.585938 6.421875.585938 6.421875h.21875s.238281-6.191406.238281-6.382812c.152344 0 .828125.019531 1.027344.039062-.046875.117188-.21875.597656-.21875.597656l.304687-.25c.085938-.058594 1.984375-1.578125 1.722657-2.578125-.089844-.324219-.394532-.554687-.894532-.671875h-.042968c-.285157 0-1.15625.019532-1.808594.058594.019531-.5.019531-.769531.019531-.90625v-.171875c0-.09375.109375-.230469.195313-.324219.089843-.117187.199218-.214844.199218-.328125 0-.039062-.023437-.078125-.042968-.117187-.132813-.171875-1.089844-.613282-1.503907-.652344-.132812.019531-.21875.039062-.261719.097656zm.019532 3.152344h.109375c0 .171875.066406 1.382812.085937 1.554688-.171875-.019532-.585937-.058594-.71875-.058594-.0625-.25-.085937-.515625-.109375-.785156-.019531-.230469-.042969-.460938-.085937-.675782.195312 0 .71875-.035156.71875-.035156zm1.332031.59375s.019531-.460938.019531-.613281c.285156.039062.652344.054687 1.003906.054687h.390626c0 .078125-.019532.175782-.019532.175782-.046875.421874-.109375.921874-.308594 1.421874-.128906 0-.933593-.039062-1.109374-.058593 0-.132813.023437-.980469.023437-.980469zm0 0" fill="#fff"/></g></svg>