<svg height="17pt" viewBox="0 0 17 17" width="17pt" xmlns="http://www.w3.org/2000/svg"><path d="m3.96875 1.007812h9.0625c1.632812 0 2.960938 1.328126 2.960938 2.960938v9.0625c0 1.632812-1.328126 2.960938-2.960938 2.960938h-9.0625c-1.632812 0-2.960938-1.328126-2.960938-2.960938v-9.0625c0-1.632812 1.328126-2.960938 2.960938-2.960938zm0 0" fill="#ccc" fill-rule="evenodd"/><path d="m3.347656 4.019531v.53125h4.25v-.53125zm0 1.0625v.53125h2.125v-.53125zm0 1.0625v.53125h2.65625v-.53125zm0 1.0625v.53125h1.0625v-.53125zm0 1.0625v.53125h2.65625v-.53125zm0 0" fill="#666"/></svg>