<svg height="17pt" viewBox="0 0 17 17" width="17pt" xmlns="http://www.w3.org/2000/svg"><g fill-rule="evenodd"><path d="m8.5 8.5h-7.851562v4.75c0 1.71875 1.382812 3.101562 3.101562 3.101562h4.75zm0 0" fill="#4785e2"/><path d="m8.5 8.5v7.851562h4.75c1.71875 0 3.101562-1.382812 3.101562-3.101562v-4.75zm0 0" fill="#77e247"/><path d="m3.75.648438c-1.71875 0-3.101562 1.382812-3.101562 3.101562v4.75h7.851562v-7.851562zm0 0" fill="#f2ae37"/><path d="m8.5.648438v7.851562h7.851562v-4.75c0-1.71875-1.382812-3.101562-3.101562-3.101562zm0 0" fill="#4785e2"/></g><g fill="#3f3f3f"><path d="m4.839844 2.183594.824218 1.75 1.832032.28125-1.328125 1.359375.316406 1.921875-1.644531-.90625-1.640625.90625.3125-1.921875-1.328125-1.359375 1.835937-.28125zm0 0"/><path d="m14.933594 4.839844c0 1.46875-1.1875 2.65625-2.65625 2.65625-1.464844 0-2.65625-1.1875-2.65625-2.65625 0-1.464844 1.191406-2.65625 2.65625-2.65625 1.46875 0 2.65625 1.191406 2.65625 2.65625zm0 0"/><path d="m9.621094 9.621094h5.3125v5.3125h-5.3125zm0 0"/><path d="m7.496094 12.277344c0 1.46875-1.1875 2.65625-2.65625 2.65625-1.464844 0-2.65625-1.1875-2.65625-2.65625 0-1.464844 1.191406-2.65625 2.65625-2.65625 1.46875 0 2.65625 1.191406 2.65625 2.65625zm0 0"/></g></svg>