<svg height="17pt" viewBox="0 0 17 17" width="17pt" xmlns="http://www.w3.org/2000/svg"><g fill-rule="evenodd"><path d="m3.96875 1.007812h9.0625c1.632812 0 2.960938 1.328126 2.960938 2.960938v9.0625c0 1.632812-1.328126 2.960938-2.960938 2.960938h-9.0625c-1.632812 0-2.960938-1.328126-2.960938-2.960938v-9.0625c0-1.632812 1.328126-2.960938 2.960938-2.960938zm0 0" fill="#ff7d00"/><path d="m15.125 1.875c-.535156-.535156-1.273438-.867188-2.09375-.867188h-9.058594c-1.644531 0-2.964844 1.320313-2.964844 2.960938v9.058594c0 1.644531 1.320313 2.964844 2.964844 2.964844h4.527344v-7.492188zm0 0" fill="#ff7d00"/><path d="m15.125 1.875-6.625 6.625v7.492188h4.53125c1.640625 0 2.960938-1.320313 2.960938-2.964844v-9.058594c0-.820312-.332032-1.558594-.867188-2.09375zm0 0" fill="#ff9025"/></g><path d="m12.519531 4.21875-4.28125 4.019531.523438.523438 4.019531-4.28125zm0 0" fill="#5e5e5e"/><path d="m8.316406 8.5v5.84375h.367188v-5.84375zm0 0" fill="#fff"/><path d="m5.710938 5.445312-.261719.261719 2.789062 3.054688.523438-.523438zm0 0" fill="#3f3f3f"/><path d="m8.867188 8.5c0 .203125-.164063.367188-.367188.367188-.199219 0-.363281-.164063-.363281-.367188 0-.199219.164062-.363281.363281-.363281.203125 0 .367188.164062.367188.363281zm0 0" fill="#3f3f3f"/></svg>