<svg height="17pt" viewBox="0 0 17 17" width="17pt" xmlns="http://www.w3.org/2000/svg"><path d="m3.96875 1.007812h9.0625c1.632812 0 2.960938 1.328126 2.960938 2.960938v9.0625c0 1.632812-1.328126 2.960938-2.960938 2.960938h-9.0625c-1.632812 0-2.960938-1.328126-2.960938-2.960938v-9.0625c0-1.632812 1.328126-2.960938 2.960938-2.960938zm0 0" fill="#ccc" fill-rule="evenodd"/><g fill="#e74c3c"><path d="m8.5 5.84375 2.125 2.65625-2.125 2.65625-2.125-2.65625zm0 0"/><path d="m5.261719 4.394531h-.859375l-.132813.386719h-.550781l.785156-2.125h.65625l.785156 2.125h-.550781zm-.722657-.394531h.585938l-.292969-.84375zm0 0"/><path d="m4.78125 4.78125 1.0625 1.332031-1.0625 1.328125-1.0625-1.328125zm0 0"/><path d="m11.738281 12.605469h.855469l.136719-.386719h.550781l-.789062 2.125h-.652344l-.785156-2.125h.550781zm.71875.394531h-.582031l.292969.847656zm0 0"/><path d="m12.21875 12.222656-1.0625-1.328125 1.0625-1.328125 1.0625 1.328125zm0 0"/></g></svg>