<svg height="17pt" viewBox="0 0 17 17" width="17pt" xmlns="http://www.w3.org/2000/svg"><path d="m3.96875 1.007812h9.0625c1.632812 0 2.960938 1.328126 2.960938 2.960938v9.0625c0 1.632812-1.328126 2.960938-2.960938 2.960938h-9.0625c-1.632812 0-2.960938-1.328126-2.960938-2.960938v-9.0625c0-1.632812 1.328126-2.960938 2.960938-2.960938zm0 0" fill="#478cbf" fill-rule="evenodd"/><path d="m7.371094 3.257812-.046875.027344-1.363281.578125.28125 1.410157-1.300782.59375-.675781-.59375-1.410156 1.414062.804687.871094v2.925781l-.804687-.226563v.941407c1.136719 1.738281 3.105469 2.542969 5.644531 2.542969s4.507812-.804688 5.644531-2.542969v-.941407l-.804687.226563v-2.925781l.804687-.871094-1.410156-1.414062-.675781.59375-1.300782-.59375.28125-1.410157-1.410156-.605469-.484375.808594h-1.292969zm0 0" fill="#fff"/><path d="m5.675781 7.289062c.667969 0 1.210938.542969 1.210938 1.210938s-.542969 1.210938-1.210938 1.210938-1.207031-.542969-1.207031-1.210938.539062-1.210938 1.207031-1.210938zm0 0" fill="#478cbf"/><path d="m6.484375 8.5c0 .445312-.363281.804688-.808594.804688-.445312 0-.804687-.359376-.804687-.804688s.359375-.804688.804687-.804688c.445313 0 .808594.359376.808594.804688zm0 0" fill="#353535"/><path d="m8.5 8.097656c.222656 0 .402344.179688.402344.402344v.804688c0 .226562-.179688.40625-.402344.40625s-.402344-.179688-.402344-.40625v-.804688c0-.222656.179688-.402344.402344-.402344zm0 0" fill="#478cbf"/><path d="m11.324219 7.289062c.667969 0 1.207031.542969 1.207031 1.210938s-.539062 1.210938-1.207031 1.210938-1.210938-.542969-1.210938-1.210938.542969-1.210938 1.210938-1.210938zm0 0" fill="#478cbf"/><path d="m12.128906 8.5c0 .445312-.359375.804688-.804687.804688-.445313 0-.808594-.359376-.808594-.804688s.363281-.804688.808594-.804688c.445312 0 .804687.359376.804687.804688zm0 0" fill="#353535"/><path d="m3.007812 9.585938-.089843.394531.742187.167969v.738281l1.210938.5625v-.867188l.804687.140625v.769532l2.019531.308593v-.882812h1.609376v.882812l2.019531-.308593v-.769532l.804687-.140625v.867188l1.210938-.5625v-.738281l.742187-.167969-.089843-.394531-1.058594.242187v.800781l-.402344.1875v-.710937l-1.613281.277343v.761719l-1.207031.183594v-.8125h-2.421876v.8125l-1.207031-.183594v-.761719l-1.613281-.277343v.710937l-.402344-.1875v-.800781zm0 0" fill="#478cbf"/></svg>