<svg height="17pt" viewBox="0 0 17 17" width="17pt" xmlns="http://www.w3.org/2000/svg"><path d="m3.96875 1.007812h9.0625c1.632812 0 2.960938 1.328126 2.960938 2.960938v9.0625c0 1.632812-1.328126 2.960938-2.960938 2.960938h-9.0625c-1.632812 0-2.960938-1.328126-2.960938-2.960938v-9.0625c0-1.632812 1.328126-2.960938 2.960938-2.960938zm0 0" fill="#6ea23d" fill-rule="evenodd"/><g fill="#fff"><path d="m6.90625 3.71875h1.59375l-2.125 9.5625h-1.59375zm0 0"/><path d="m10.625 3.71875h1.59375l-2.125 9.5625h-1.59375zm0 0"/><path d="m4.367188 5.84375-.355469 1.59375h9.457031l.34375-1.539062v-.054688zm-.824219 3.71875-.355469 1.59375h9.457031l.351563-1.59375zm0 0"/></g></svg>