<svg height="17pt" viewBox="0 0 17 17" width="17pt" xmlns="http://www.w3.org/2000/svg" xmlns:xlink="http://www.w3.org/1999/xlink"><clipPath id="a"><path d="m0 0h17v17h-17z"/></clipPath><path d="m3.96875 1.007812h9.0625c1.632812 0 2.960938 1.328126 2.960938 2.960938v9.0625c0 1.632812-1.328126 2.960938-2.960938 2.960938h-9.0625c-1.632812 0-2.960938-1.328126-2.960938-2.960938v-9.0625c0-1.632812 1.328126-2.960938 2.960938-2.960938zm0 0" fill="#0095cc" fill-rule="evenodd"/><g clip-path="url(#a)"><path d="m8.816406 12.226562-1.0625-.042968.042969-1.0625 1.0625.042968zm1.265625-4.070312-.5.46875c-.398437.375-.648437.683594-.679687 1.480469l-1.0625-.042969.011718-.265625c.023438-.585937.28125-1.105469.679688-1.476563l.6875-.644531c.203125-.183593.332031-.441406.34375-.734375.023438-.585937-.4375-1.082031-1.019531-1.105468-.585938-.023438-1.082031.433593-1.105469 1.019531l-1.0625-.042969c.046875-1.171875 1.035156-2.085938 2.210938-2.039062 1.171874.046874 2.082031 1.035156 2.035156 2.210937-.015625.464844-.226563.882813-.539063 1.171875zm0 0" fill="#fff"/></g></svg>