<svg height="17pt" viewBox="0 0 17 17" width="17pt" xmlns="http://www.w3.org/2000/svg"><g fill-rule="evenodd"><g fill="#ccc"><path d="m1.007812 8.054688c.019532.085937.0625.167968.140626.167968h3.003906c.09375 0 .167968-.089844.167968-.199218v-2.945313c0-.109375-.074218-.199219-.167968-.199219h-3.003906c-.078126 0-.121094.082032-.140626.167969zm0 0"/><path d="m1.007812 11.953125c.019532.085937.0625.167969.140626.167969h3.003906c.09375 0 .167968-.089844.167968-.199219v-2.945313c0-.109374-.074218-.199218-.167968-.199218h-3.003906c-.078126 0-.121094.082031-.140626.167968zm0 0"/><path d="m4.175781 15.992188c.078125-.019532.144531-.078126.144531-.171876v-2.945312c0-.109375-.074218-.199219-.167968-.199219h-3.003906c-.078126 0-.121094.082031-.140626.167969v.1875c0 1.640625 1.320313 2.960938 2.960938 2.960938zm0 0"/><path d="m8.074219 15.992188c.078125-.019532.148437-.078126.148437-.171876v-2.945312c0-.109375-.078125-.199219-.171875-.199219h-3c-.09375 0-.171875.089844-.171875.199219v2.945312c0 .09375.070313.152344.148438.171876zm0 0"/><path d="m11.972656 15.992188c.078125-.019532.148438-.078126.148438-.171876v-2.945312c0-.109375-.078125-.199219-.171875-.199219h-3c-.09375 0-.171875.089844-.171875.199219v2.945312c0 .09375.070312.152344.148437.171876zm0 0"/><path d="m15.992188 12.84375c-.019532-.085938-.0625-.167969-.140626-.167969h-3.003906c-.09375 0-.167968.089844-.167968.199219v2.945312c0 .09375.066406.152344.144531.171876h.207031c1.640625 0 2.960938-1.320313 2.960938-2.960938zm0 0"/><path d="m12.824219 1.007812c-.078125.019532-.144531.078126-.144531.171876v2.945312c0 .109375.074218.199219.167968.199219h3.003906c.078126 0 .121094-.082031.140626-.167969v-.1875c0-1.640625-1.320313-2.960938-2.960938-2.960938zm0 0"/></g><path d="m8.925781 1.007812c-.078125.019532-.148437.078126-.148437.171876v2.945312c0 .109375.078125.199219.171875.199219h3c .09375 0 .171875-.089844.171875-.199219v-2.945312c0-.09375-.070313-.152344-.148438-.171876zm0 0" fill="#ff5757"/><path d="m5.027344 1.007812c-.078125.019532-.148438.078126-.148438.171876v2.945312c0 .109375.078125.199219.171875.199219h3c .09375 0 .171875-.089844.171875-.199219v-2.945312c0-.09375-.070312-.152344-.148437-.171876zm0 0" fill="#ccc"/><path d="m1.007812 4.15625v.890625c.019532-.085937.0625-.167969.140626-.167969h3.003906c.09375 0 .167968.089844.167968.199219v2.945313c0 .109374-.074218.199218-.167968.199218h-3.003906c-.078126 0-.121094-.082031-.140626-.167968v.890624c.019532-.085937.0625-.167968.140626-.167968h3.003906c.09375 0 .167968.089844.167968.199218v2.945313c0 .109375-.074218.199219-.167968.199219h-3.003906c-.078126 0-.121094-.082032-.140626-.167969v.890625c.019532-.085938.0625-.167969.140626-.167969h3.003906c.09375 0 .167968.089844.167968.199219v2.945312c0 .09375-.066406.152344-.144531.171876h.851563c-.078125-.019532-.148438-.078126-.148438-.171876v-2.945312c0-.109375.078125-.199219.171875-.199219h3c .09375 0 .171875.089844.171875.199219v2.945312c0 .09375-.070312.152344-.148437.171876h.851562c-.078125-.019532-.148437-.078126-.148437-.171876v-2.945312c0-.109375.078125-.199219.171875-.199219h3c .09375 0 .171875.089844.171875.199219v2.945312c0 .09375-.070313.152344-.148438.171876h.851563c-.078125-.019532-.144531-.078126-.144531-.171876v-2.945312c0-.109375.074218-.199219.167968-.199219h3.003906c.078126 0 .121094.082031.140626.167969v-.890625c-.019532.085937-.0625.167969-.140626.167969h-3.003906c-.09375 0-.167968-.089844-.167968-.199219v-2.945313c0-.109374.074218-.199218.167968-.199218h3.003906c.078126 0 .121094.082031.140626.167968v-.890624c-.019532.085937-.0625.167968-.140626.167968h-3.003906c-.09375 0-.167968-.089844-.167968-.199218v-2.945313c0-.109375.074218-.199219.167968-.199219h3.003906c.078126 0 .121094.082032.140626.167969v-.890625c-.019532.085938-.0625.167969-.140626.167969h-3.003906c-.09375 0-.167968-.089844-.167968-.199219v-2.945312c0-.09375.066406-.152344.144531-.171876h-.851563c.078125.019532.148438.078126.148438.171876v2.945312c0 .109375-.078125.199219-.171875.199219h-3c-.09375 0-.171875-.089844-.171875-.199219v-2.945312c0-.09375.070312-.152344.148437-.171876h-.851562c.078125.019532.148437.078126.148437.171876v2.945312c0 .109375-.078125.199219-.171875.199219h-3c-.09375 0-.171875-.089844-.171875-.199219v-2.945312c0-.09375.070313-.152344.148438-.171876h-.851563c.078125.019532.144531.078126.144531.171876v2.945312c0 .109375-.074218.199219-.167968.199219h-3.003906c-.078126 0-.121094-.082031-.140626-.167969zm0 0" fill="#ececec"/><path d="m1.007812 4.15625c.019532.085938.0625.167969.140626.167969h3.003906c.09375 0 .167968-.089844.167968-.199219v-2.945312c0-.09375-.066406-.152344-.144531-.171876h-.207031c-1.640625 0-2.960938 1.320313-2.960938 2.960938zm0 0" fill="#4f4f4f"/><path d="m8.949219 8.777344c-.09375 0-.171875.089844-.171875.199218v2.945313c0 .109375.078125.199219.171875.199219h3c .09375 0 .171875-.089844.171875-.199219v-2.945313c0-.109374-.078125-.199218-.171875-.199218zm0 0" fill="#0286c2"/><path d="m8.949219 8.777344h3c .09375 0 .171875.089844.171875.199218v2.945313c0 .109375-.078125.199219-.171875.199219h-3c-.09375 0-.171875-.089844-.171875-.199219v-2.945313c0-.109374.078125-.199218.171875-.199218zm0 0" fill="#ccc"/><path d="m5.050781 8.777344c-.09375 0-.171875.089844-.171875.199218v2.945313c0 .109375.078125.199219.171875.199219h3c .09375 0 .171875-.089844.171875-.199219v-2.945313c0-.109374-.078125-.199218-.171875-.199218zm0 0" fill="#0286c2"/><path d="m5.050781 8.777344h3c .09375 0 .171875.089844.171875.199218v2.945313c0 .109375-.078125.199219-.171875.199219h-3c-.09375 0-.171875-.089844-.171875-.199219v-2.945313c0-.109374.078125-.199218.171875-.199218zm0 0" fill="#4f4f4f"/><path d="m8.949219 4.878906c-.09375 0-.171875.089844-.171875.199219v2.945313c0 .109374.078125.199218.171875.199218h3c .09375 0 .171875-.089844.171875-.199218v-2.945313c0-.109375-.078125-.199219-.171875-.199219zm0 0" fill="#0286c2"/><path d="m8.949219 4.878906h3c .09375 0 .171875.089844.171875.199219v2.945313c0 .109374-.078125.199218-.171875.199218h-3c-.09375 0-.171875-.089844-.171875-.199218v-2.945313c0-.109375.078125-.199219.171875-.199219zm0 0" fill="#ff5757"/><path d="m5.050781 4.878906c-.09375 0-.171875.089844-.171875.199219v2.945313c0 .109374.078125.199218.171875.199218h3c .09375 0 .171875-.089844.171875-.199218v-2.945313c0-.109375-.078125-.199219-.171875-.199219zm0 0" fill="#0286c2"/><path d="m5.050781 4.878906h3c .09375 0 .171875.089844.171875.199219v2.945313c0 .109374-.078125.199218-.171875.199218h-3c-.09375 0-.171875-.089844-.171875-.199218v-2.945313c0-.109375.078125-.199219.171875-.199219zm0 0" fill="#ccc"/><path d="m15.992188 8.945312c-.019532-.085937-.0625-.167968-.140626-.167968h-3.003906c-.09375 0-.167968.089844-.167968.199218v2.945313c0 .109375.074218.199219.167968.199219h3.003906c.078126 0 .121094-.082032.140626-.167969zm0 0" fill="#4ac73e"/><path d="m15.992188 5.046875c-.019532-.085937-.0625-.167969-.140626-.167969h-3.003906c-.09375 0-.167968.089844-.167968.199219v2.945313c0 .109374.074218.199218.167968.199218h3.003906c.078126 0 .121094-.082031.140626-.167968zm0 0" fill="#ccc"/></g></svg>