<svg height="17pt" viewBox="0 0 17 17" width="17pt" xmlns="http://www.w3.org/2000/svg"><g fill-rule="evenodd"><path d="m3.96875 1.007812h9.0625c1.632812 0 2.960938 1.328126 2.960938 2.960938v9.0625c0 1.632812-1.328126 2.960938-2.960938 2.960938h-9.0625c-1.632812 0-2.960938-1.328126-2.960938-2.960938v-9.0625c0-1.632812 1.328126-2.960938 2.960938-2.960938zm0 0" fill="#3ebce8"/><path d="m3.972656 1.007812c-1.644531 0-2.964844 1.320313-2.964844 2.960938v3.441406c.070313-.011718.152344-.0625.21875-.070312.753907-.117188 1.464844-.09375 2.148438.027344.6875.117187 1.351562.332031 2.007812.605468.65625.269532 1.308594.59375 1.972657.933594.667969.339844 1.347656.695312 2.054687 1.019531.710938.324219 1.453125.625 2.246094.851563.792969.230468 1.636719.390625 2.546875.4375.550781.03125 1.183594-.078125 1.789063-.136719v-7.109375c0-1.640625-1.320313-2.960938-2.960938-2.960938zm0 0" fill="#3ebce8"/><path d="m15.992188 11.078125c-10.625.808594-10.265626-5.609375-14.984376-5.539063v7.488282c0 1.644531 1.320313 2.964844 2.964844 2.964844h9.058594c1.640625 0 2.960938-1.320313 2.960938-2.964844zm0 0" fill="#97c607"/></g><path d="m13.875 8.5c0 2.96875-2.40625 5.375-5.375 5.375s-5.375-2.40625-5.375-5.375 2.40625-5.375 5.375-5.375 5.375 2.40625 5.375 5.375zm0 0" fill="#e6e6e6"/><path d="m10.867188 8.5c0 1.308594-1.058594 2.367188-2.367188 2.367188s-2.367188-1.058594-2.367188-2.367188 1.058594-2.367188 2.367188-2.367188 2.367188 1.058594 2.367188 2.367188zm0 0" fill="#666"/><path d="m10.207031 8.5c0 .941406-.765625 1.707031-1.707031 1.707031s-1.707031-.765625-1.707031-1.707031.765625-1.707031 1.707031-1.707031 1.707031.765625 1.707031 1.707031zm0 0" fill="#fffee4"/><path d="m15.976562 9.914062c-6.398437-1.039062-7.828124 4.304688-14.953124 2.960938-.007813 0-.019532-.003906-.03125-.003906v.15625c0 1.640625 1.320312 2.960937 2.964843 2.960937h9.058594c1.640625 0 2.960937-1.320312 2.960937-2.960937zm0 0" fill="#74a10d" fill-rule="evenodd"/></svg>