<svg height="17pt" viewBox="0 0 17 17" width="17pt" xmlns="http://www.w3.org/2000/svg"><path d="m3.96875 1.007812h9.0625c1.632812 0 2.960938 1.328126 2.960938 2.960938v9.0625c0 1.632812-1.328126 2.960938-2.960938 2.960938h-9.0625c-1.632812 0-2.960938-1.328126-2.960938-2.960938v-9.0625c0-1.632812 1.328126-2.960938 2.960938-2.960938zm0 0" fill="#ccc" fill-rule="evenodd"/><path d="m2.640625 5.359375c-.226563.003906-.433594.132813-.539063.335937-.105468.203126-.09375.445313.03125.636719.128907.1875.347657.292969.578126.273438 2.011718-.105469 2.917968.601562 3.675781 1.570312.757812.972657 1.214843 2.265625 2.171875 3.160157.773437.71875 1.886718 1.164062 2.972656 1.472656 1.082031.308594 2.117188.460937 2.804688.460937.226562.003907.4375-.113281.550781-.308593.113281-.195313.113281-.433594 0-.628907-.113281-.195312-.324219-.3125-.550781-.308593-.476563 0-1.480469-.136719-2.464844-.417969-.980469-.277344-1.960938-.71875-2.460938-1.183594-.613281-.574219-1.125-1.847656-2.035156-3.015625-.914062-1.167969-2.371094-2.171875-4.734375-2.046875zm0 0" fill="#4a61cc"/><path d="m10.425781 3.738281c-.621093-.066406-1.089843.261719-1.375.535157-.144531.136718-.25.265624-.324219.371093-.035156.050781-.066406.09375-.085937.128907-.003906.007812-.007813.011718-.011719.019531l-.410156.511719c-.121094.144531-.167969.335937-.132812.519531.039062.1875.15625.34375.324218.429687-.078125.113282-.160156.21875-.203125.40625-.183593.800782.191407 1.511719.648438 2 .332031.355469.734375.519532 1.105469.652344.183593.066406.359374.117188.511718.152344s.230469.070312.457032.054687c.660156-.050781 1.191406-.253906 1.574218-.566406.386719-.316406.609375-.707031.777344-1.050781.347656-.714844.136719-1.417969-.023438-1.921875-.003906-.015625-.007812-.027344-.011718-.039063-.515625-1.359375-1.761719-2.082031-2.8125-2.203125-.003906 0-.007813 0-.007813 0zm-.132812 1.242188c.546875.066406 1.453125.570312 1.777343 1.390625.125.417968.167969.820312.089844.980468-.140625.285157-.269531.488282-.445312.632813-.171875.140625-.40625.253906-.875.289063.128906-.011719.011718-.003907-.089844-.023438-.097656-.023438-.230469-.0625-.367188-.113281-.269531-.097657-.558593-.269531-.617187-.332031-.230469-.25-.382813-.679688-.339844-.867188-.039062.167969.039063-.023438.171875-.128906.136719-.109375.269532-.1875.269532-.1875.222656-.128906.347656-.386719.304687-.640625-.039063-.257813-.238281-.460938-.492187-.515625.015624-.027344.03125-.054688.042968-.082032-.003906.003907-.003906.011719-.003906.015626-.011719.023437-.015625.027343-.019531.035156 0 .003906 0 .003906-.003907.003906.007813-.011719.023438-.03125.042969-.0625.042969-.054688.105469-.132812.175781-.199219.144532-.136719.28125-.203125.378907-.195312zm-.523438.1875v.007812c0-.003906 0-.007812 0-.007812zm-.023437.152343s-.003906.003907-.003906.003907-.003907.015625-.007813.023437c.003906-.007812.007813-.019531.011719-.027344zm0 0" fill="#e84343"/></svg>