<svg height="17pt" viewBox="0 0 17 17" width="17pt" xmlns="http://www.w3.org/2000/svg"><path d="m3.96875 1.007812h9.0625c1.632812 0 2.960938 1.328126 2.960938 2.960938v9.0625c0 1.632812-1.328126 2.960938-2.960938 2.960938h-9.0625c-1.632812 0-2.960938-1.328126-2.960938-2.960938v-9.0625c0-1.632812 1.328126-2.960938 2.960938-2.960938zm0 0" fill="#ececec" fill-rule="evenodd"/><path d="m8.09375 11.5625c0 1.464844-1.191406 2.652344-2.65625 2.652344s-2.652344-1.1875-2.652344-2.652344 1.1875-2.65625 2.652344-2.65625 2.65625 1.191406 2.65625 2.65625zm0 0" fill="#c2352a"/><path d="m7.277344 11.5625c0 1.011719-.824219 1.835938-1.839844 1.835938-1.011719 0-1.835938-.824219-1.835938-1.835938 0-1.015625.824219-1.839844 1.835938-1.839844 1.015625 0 1.839844.824219 1.839844 1.839844zm0 0" fill="#e67a73"/><path d="m11.355469 5.4375c0 1.464844-1.1875 2.65625-2.652344 2.65625s-2.652344-1.191406-2.652344-2.65625 1.1875-2.652344 2.652344-2.652344 2.652344 1.1875 2.652344 2.652344zm0 0" fill="#46a249"/><path d="m10.539062 5.4375c0 1.015625-.820312 1.839844-1.835937 1.839844-1.011719 0-1.835937-.824219-1.835937-1.839844 0-1.011719.824218-1.835938 1.835937-1.835938 1.015625 0 1.835937.824219 1.835937 1.835938zm0 0" fill="#7bde7f"/><path d="m14.214844 11.5625c0 1.464844-1.1875 2.652344-2.652344 2.652344s-2.65625-1.1875-2.65625-2.652344 1.191406-2.65625 2.65625-2.65625 2.652344 1.191406 2.652344 2.65625zm0 0" fill="#8e53ab"/><path d="m13.398438 11.5625c0 1.011719-.824219 1.835938-1.835938 1.835938-1.015625 0-1.839844-.824219-1.839844-1.835938 0-1.015625.824219-1.839844 1.839844-1.839844 1.011719 0 1.835938.824219 1.835938 1.839844zm0 0" fill="#ba96cc"/></svg>