<svg height="17pt" viewBox="0 0 17 17" width="17pt" xmlns="http://www.w3.org/2000/svg"><path d="m3.96875 1.007812h9.0625c1.632812 0 2.960938 1.328126 2.960938 2.960938v9.0625c0 1.632812-1.328126 2.960938-2.960938 2.960938h-9.0625c-1.632812 0-2.960938-1.328126-2.960938-2.960938v-9.0625c0-1.632812 1.328126-2.960938 2.960938-2.960938zm0 0" fill="#913b3b" fill-rule="evenodd"/><path d="m8.5 2.558594-1.738281 1.742187h-2.460938v2.460938l-1.742187 1.738281 1.742187 1.738281v2.460938h2.460938l1.738281 1.742187 1.738281-1.742187h2.460938v-2.460938l1.742187-1.738281-1.742187-1.738281v-2.460938h-2.460938zm0 0" fill="#fec006"/><path d="m6.226562 3.011719-.941406 2.273437-2.273437.941406.941406 2.273438-.941406 2.273438 2.273437.941406.941406 2.273437 2.273438-.941406 2.273438.941406.941406-2.273437 2.273437-.941406-.941406-2.273438.941406-2.273438-2.273437-.941406-.941406-2.273437-2.273438.941406zm0 0" fill="#fecd38"/><path d="m13.070312 8.5c0-2.523438-2.046874-4.570312-4.570312-4.570312s-4.570312 2.046874-4.570312 4.570312 2.046874 4.570312 4.570312 4.570312 4.570312-2.046874 4.570312-4.570312zm0 0" fill="#fed96a"/><path d="m7.128906 7.128906c0 .503906-.410156.914063-.914062.914063s-.914063-.410157-.914063-.914063.410157-.914062.914063-.914062.914062.410156.914062.914062zm0 0" fill="#3f3f3f"/><path d="m11.699219 7.128906c0 .503906-.410157.914063-.914063.914063s-.914062-.410157-.914062-.914063.410156-.914062.914062-.914062.914063.410156.914063.914062zm0 0" fill="#3f3f3f"/><path d="m6.066406 9.871094c.503906 1.042968 1.429688 1.824218 2.433594 1.828125 1.003906-.003907 1.929688-.785157 2.429688-1.828125h-2.429688c-.914062 0-2.433594 0-2.433594 0zm0 0" fill="#913b3b"/></svg>