<svg height="17pt" viewBox="0 0 17 17" width="17pt" xmlns="http://www.w3.org/2000/svg" xmlns:xlink="http://www.w3.org/1999/xlink"><linearGradient id="a"><stop offset="0" stop-color="#808080" stop-opacity=".929412"/><stop offset="1" stop-color="#808080" stop-opacity="0"/></linearGradient><linearGradient id="b" gradientTransform="matrix(.142835 0 0 .142839 -41.838914 -79.055028)" gradientUnits="userSpaceOnUse" x1="457.59909" x2="457.59909" xlink:href="#a" y1="631.21771" y2="614.22644"/><linearGradient id="c" gradientTransform="matrix(.142835 0 0 .142839 -31.520832 -79.055028)" gradientUnits="userSpaceOnUse" x1="457.59909" x2="457.59909" xlink:href="#a" y1="631.21771" y2="614.22644"/><linearGradient id="d" gradientTransform="matrix(.160224 0 0 .16023 -58.081706 -93.148063)" gradientUnits="userSpaceOnUse" x1="457.26172" x2="458.41364" y1="601.77271" y2="645.99402"><stop offset="0" stop-color="#fff"/><stop offset="1" stop-color="#fff" stop-opacity="0"/></linearGradient><path d="m3.96875 1.007812h9.0625c1.632812 0 2.960938 1.328126 2.960938 2.960938v9.0625c0 1.632812-1.328126 2.960938-2.960938 2.960938h-9.0625c-1.632812 0-2.960938-1.328126-2.960938-2.960938v-9.0625c0-1.632812 1.328126-2.960938 2.960938-2.960938zm0 0" fill="#ececec" fill-rule="evenodd"/><g stroke-linecap="round" stroke-linejoin="round" transform="scale(.53125)"><path d="m27.117647 16c0 6.139706-4.977941 11.125-11.117647 11.125s-11.117647-4.985294-11.117647-11.125 4.977941-11.125 11.117647-11.125 11.117647 4.985294 11.117647 11.125zm0 0" fill="#fff" stroke="#808080" stroke-opacity=".929412" stroke-width=".2"/><path d="m15.455882 16c0 2.551471-2.066176 4.617647-4.617647 4.617647-2.55147 0-4.617647-2.066176-4.617647-4.617647s2.066177-4.617647 4.617647-4.617647c2.551471 0 4.617647 2.066176 4.617647 4.617647zm0 0" fill="#06f" stroke="url(#b)" stroke-width=".132"/><path d="m25.779412 16c0 2.551471-2.07353 4.617647-4.617647 4.617647-2.551471 0-4.617647-2.066176-4.617647-4.617647s2.066176-4.617647 4.617647-4.617647c2.544117 0 4.617647 2.066176 4.617647 4.617647zm0 0" fill="#ff2a7f" stroke="url(#c)" stroke-width=".132"/></g><path d="m13.679688 8.453125c0 2.859375-2.414063-1.648437-5.273438-1.648437s-5.085938 4.507812-5.085938 1.648437 2.320313-5.179687 5.179688-5.179687 5.179688 2.320312 5.179688 5.179687zm0 0" fill="url(#d)"/></svg>