<svg height="17pt" viewBox="0 0 17 17" width="17pt" xmlns="http://www.w3.org/2000/svg"><path d="m3.96875 1.007812h9.0625c1.632812 0 2.960938 1.328126 2.960938 2.960938v9.0625c0 1.632812-1.328126 2.960938-2.960938 2.960938h-9.0625c-1.632812 0-2.960938-1.328126-2.960938-2.960938v-9.0625c0-1.632812 1.328126-2.960938 2.960938-2.960938zm0 0" fill="#ffc947" fill-rule="evenodd"/><path d="m8.5 3.027344c3.046875 0 5.472656 2.425781 5.472656 5.472656s-2.425781 5.472656-5.472656 5.472656-5.472656-2.425781-5.472656-5.472656 2.425781-5.472656 5.472656-5.472656zm0 0" fill="#b38d32"/><path d="m7.347656 4.851562c-.378906 0-.683594.273438-.683594.609376v6.078124c0 .335938.304688.609376.683594.609376s.683594-.273438.683594-.609376v-1.488281l1.046875 1.808594c.167969.292969.566406.375.894531.1875.328125-.191406.457032-.578125.289063-.871094l-1.542969-2.671875 1.542969-2.671875c.167969-.292969.039062-.679687-.289063-.867187-.121094-.074219-.257812-.105469-.382812-.101563-.210938 0-.40625.101563-.511719.285157l-1.046875 1.808593v-1.496093c0-.335938-.304688-.609376-.683594-.609376zm0 0" fill="#ffc947"/></svg>