<svg height="17pt" viewBox="0 0 17 17" width="17pt" xmlns="http://www.w3.org/2000/svg"><g fill-rule="evenodd"><path d="m3.96875 1.007812h9.0625c1.632812 0 2.960938 1.328126 2.960938 2.960938v9.0625c0 1.632812-1.328126 2.960938-2.960938 2.960938h-9.0625c-1.632812 0-2.960938-1.328126-2.960938-2.960938v-9.0625c0-1.632812 1.328126-2.960938 2.960938-2.960938zm0 0" fill="#fff"/><path d="m15.992188 6.492188v-2.523438c0-1.640625-1.320313-2.960938-2.960938-2.960938h-2.523438zm0 0" fill="#b3b3b3"/><path d="m9.621094 1.007812h-5.648438c-1.644531 0-2.964844 1.320313-2.964844 2.960938v9.058594c0 1.644531 1.320313 2.964844 2.964844 2.964844h9.058594c1.640625 0 2.960938-1.320313 2.960938-2.964844v-5.648438zm0 0" fill="#b3b3b3"/><path d="m9.621094 1.007812 6.371094 6.371094v-.886718l-5.484376-5.484376zm0 0" fill="#fff"/></g></svg>