<svg height="17pt" viewBox="0 0 17 17" width="17pt" xmlns="http://www.w3.org/2000/svg"><g fill-rule="evenodd"><path d="m15.261719 14.921875c-.15625.039063-.355469.089844-.355469.089844h-12.828125c-.058594 0-.210937-.050781-.328125-.070313.542969.628906 1.320312 1.050782 2.21875 1.050782h9.0625c.90625 0 1.6875-.429688 2.230469-1.070313zm0 0" fill="#999"/><path d="m15.976562 13.113281v-5.691406c0-.246094-.117187-.460937-.300781-.597656l.003907-.003907-7.1875-5.277343s-7.1875 5.285156-7.144532 5.253906v-.003906c-.011718.011719-.027344.023437-.042968.035156l-.007813.003906v.003907c-.175781.136718-.289063.347656-.289063.585937v5.609375c0 .738281.296876 1.390625.742188 1.910156.121094.019532.269531.070313.328125.070313h12.828125s.199219-.050781.355469-.089844c.421875-.496094.695312-1.113281.714843-1.808594zm0 0" fill="#004dbb"/><path d="m3.96875 1.007812c-1.640625 0-2.960938 1.320313-2.960938 2.964844v3.449219c0-.238281.113282-.449219.289063-.585937v-.003907l.007813-.003906c.015624-.011719.03125-.023437.042968-.035156v.003906c-.042968.03125 7.144532-5.253906 7.144532-5.253906l7.1875 5.277343-.003907.003907c.183594.136719.300781.351562.300781.597656v5.691406c0-.03125.015626-.054687.015626-.082031v-9.058594c0-1.644531-1.320313-2.964844-2.960938-2.964844zm0 0" fill="#999"/></g><path d="m3.414062 3.144531h10.15625c.441407 0 .800782.359375.800782.800781v8.019532c0 .441406-.359375.800781-.800782.800781h-10.15625c-.441406 0-.800781-.359375-.800781-.800781v-8.019532c0-.441406.359375-.800781.800781-.800781zm0 0" fill="#ebebeb"/><path d="m8.492188 4.75c-1.476563 0-2.671876 1.195312-2.671876 2.671875s1.195313 2.671875 2.671876 2.671875h1.871093c.148438 0 .265625-.117188.265625-.265625s-.117187-.269531-.265625-.269531h-1.871093c-1.179688 0-2.136719-.957032-2.136719-2.136719s.957031-2.136719 2.136719-2.136719c1.179687 0 2.136718.957032 2.136718 2.136719v.800781c0 .148438-.117187.269532-.265625.269532-.148437 0-.265625-.121094-.265625-.269532v-.800781c0-.886719-.71875-1.605469-1.605468-1.605469-.886719 0-1.605469.71875-1.605469 1.605469s.71875 1.601563 1.605469 1.601563c.429687 0 .839843-.171876 1.140624-.472657.121094.277344.402344.472657.730469.472657.445313 0 .800781-.355469.800781-.800782v-.800781c0-1.476563-1.195312-2.671875-2.671874-2.671875zm0 1.601562c.589843 0 1.070312.480469 1.070312 1.070313s-.480469 1.070313-1.070312 1.070313c-.589844 0-1.070313-.480469-1.070313-1.070313s.480469-1.070313 1.070313-1.070313zm0 0" fill="#848484"/><path d="m15.976562 13.113281v-5.691406l-12.296874 8.511719c.101562.011718.1875.058594.289062.058594h9.0625c1.609375 0 2.898438-1.28125 2.945312-2.878907zm0 0" fill="#007eff" fill-rule="evenodd"/><path d="m8.492188 12.601562-7.484376-5.179687v5.609375c0 1.535156 1.175782 2.75 2.671876 2.902344zm0 0" fill="#00a2ff" fill-rule="evenodd"/></svg>