<svg height="17pt" viewBox="0 0 17 17" width="17pt" xmlns="http://www.w3.org/2000/svg" xmlns:xlink="http://www.w3.org/1999/xlink"><filter id="a" height="100%" width="100%" x="0%" y="0%"><feColorMatrix in="SourceGraphic" type="matrix" values="0 0 0 0 1 0 0 0 0 1 0 0 0 0 1 0 0 0 1 0"/></filter><mask id="b"><g filter="url(#a)"><path d="m0 0h17v17h-17z" fill-opacity=".439216"/></g></mask><clipPath id="c"><path d="m0 0h17v17h-17z"/></clipPath><path d="m3.96875 1.007812h9.0625c1.632812 0 2.960938 1.328126 2.960938 2.960938v9.0625c0 1.632812-1.328126 2.960938-2.960938 2.960938h-9.0625c-1.632812 0-2.960938-1.328126-2.960938-2.960938v-9.0625c0-1.632812 1.328126-2.960938 2.960938-2.960938zm0 0" fill="#fff" fill-rule="evenodd"/><path d="m15.125 1.875-13.25 13.25c.535156.535156 1.273438.867188 2.09375.867188h9.0625c1.640625 0 2.960938-1.320313 2.960938-2.960938v-9.0625c0-.820312-.332032-1.558594-.867188-2.09375zm0 0" fill="#328fe3" fill-rule="evenodd"/><g clip-path="url(#c)" mask="url(#b)"><path d="m8.242188 2.21875c-.230469.007812-.453126.039062-.675782.070312l.214844.183594-.582031.308594.742187.175781.09375-.25h.324219l.113281-.214843-.230468-.058594zm-.675782.070312-.003906-.007812-.265625.035156c.089844-.015625.179687-.015625.269531-.027344zm-.527344.078126c-.59375.132812-1.152343.347656-1.667968.632812s-.988282.636719-1.402344 1.050781c-.414062.410157-.773438.878907-1.0625 1.390625-.289062.511719-.507812 1.070313-.644531 1.664063l.019531.027343-.054688.101563c-.007812.046875-.015624.09375-.023437.140625l.238281.371094.667969.164062v-.105468l.265625.035156-.027344.191406.210938.039062.320312.089844.457032.523438.582031.042968.058593.476563-.398437.28125-.019531.425781-.058594.261719.578125.726563.042969.246093s.210937.058594.234375.058594c.015625 0 .132812.09375.257812.183594l2.125-2.121094-.007812-.082031-.175781-.308594-.484376-.007812-.277343-.441407-.246094-.121093-.011719.132812-.449218.027344-.167969-.230469-.464844-.09375-.386719.449219-.609375-.105469-.046875-.6875-.441406-.078125.175781-.335938-.050781-.195312-.582031.390625-.367188-.042969-.128906-.289062.078125-.296875.203125-.375.464844-.234375h.898437v.273437l.324219.152344-.027344-.472656.234375-.234375.46875-.3125.03125-.21875.472656-.488282.496094-.277343-.042968-.039063.335937-.320312.125.035156.054687.070312.128907-.140624.03125-.015626-.140625-.019531-.140625-.046875v-.136718l.074219-.0625h.164062l.078125.03125.066406.136718.082031-.015625v-.011719l.019532.007813.238281-.035156.03125-.113281.132813.035156v.121094l-.125.085937.019531.136719.421875.132812s.003906 0 .003906.003906l.097656-.007812.003906-.183594-.332031-.15625-.023437-.085937.28125-.097657.011718-.265624-.292968-.179688-.019532-.453125-.398437.199219h-.144531l.039062-.34375-.542968-.128906-.226563.171874v.519532l-.402344.128906-.164062.339844-.175781.027344v-.433594l-.378907-.054688-.191406-.121094-.074219-.285156.679688-.398437.332031-.101563.035156.222656.183594-.007812.015625-.113281.191406-.027344.003906-.039063-.082031-.035156-.019531-.117187.238281-.019531.144531-.152344.007813-.011719zm5.628907 1.449218-.089844.015625-.273437.390625-.394532.0625-.058594.339844.164063.039062-.046875.21875-.390625-.078124-.359375.078124-.074219.199219.058594.421875.199219.09375 1.515625-1.515625c-.085938-.085937-.160157-.183593-.25-.265625zm-1.628907 2.148438-.023437.011718v.007813zm0 0" fill="#007dff" fill-opacity=".552941" fill-rule="evenodd"/></g><path d="m3.96875 1.007812c-1.640625 0-2.960938 1.320313-2.960938 2.960938v9.0625c0 .820312.332032 1.558594.867188 2.09375l3.738281-3.738281c-.125-.089844-.242187-.183594-.257812-.183594-.023438 0-.234375-.058594-.234375-.058594l-.042969-.246093-.578125-.726563.058594-.261719.019531-.425781.398437-.28125-.058593-.476563-.582031-.042968-.457032-.523438-.320312-.089844-.210938-.039062.027344-.191406-.265625-.035156v.105468l-.667969-.164062-.238281-.371094c.007813-.046875.015625-.09375.023437-.140625l.054688-.101563-.019531-.027343c.136719-.59375.355469-1.152344.644531-1.664063.289062-.511718.648438-.980468 1.0625-1.390625.414062-.414062.886719-.765625 1.402344-1.050781s1.074218-.5 1.667968-.632812l-.023437.023437-.007813.011719-.144531.148437-.238281.023438.019531.117187.082031.035156-.003906.039063-.191406.027344-.015625.113281-.183594.007812-.035156-.222656-.332031.101563-.679688.398437.074219.285156.191406.121094.378907.054688v.433594l.175781-.027344.164062-.339844.402344-.128906v-.519532l.226563-.171874.542968.128906-.039062.34375h.144531l.398437-.199219.019532.453125.292968.179688-.011718.265624-.28125.097657.023437.085937.332031.15625-.003906.183594-.097656.007812c0-.003906-.003906-.003906-.003906-.003906l-.421875-.132812-.019531-.136719.125-.085937v-.121094l-.132813-.035156-.03125.113281-.238281.035156-.019532-.007813v.011719l-.082031.015625-.066406-.136718-.078125-.03125h-.164062l-.074219.0625v.136718l.140625.046875.140625.019531-.03125.015626-.128907.140624-.054687-.070312-.125-.035156-.335937.320312.042968.039063-.496094.277343-.472656.488282-.03125.21875-.46875.3125-.234375.234375.027344.472656-.324219-.152344v-.273437h-.898437l-.464844.234375-.203125.375-.078125.296875.128906.289062.367188.042969.582031-.390625.050781.195312-.175781.335938.441406.078125.046875.6875.609375.105469.386719-.449219.464844.09375.167969.230469.449218-.027344.011719-.132812.246094.121093.277343.441407.484376.007812.175781.308594.007812.082031 3.277344-3.28125v-.007813l.023437-.011718.363282-.367188-.199219-.09375-.058594-.421875.074219-.199219.359375-.078124.390625.078124.046875-.21875-.164063-.039062.058594-.339844.394532-.0625.273437-.390625.089844-.015625c.089843.082032.164062.179688.25.265625l2.207031-2.207031c-.535156-.535156-1.273438-.867188-2.09375-.867188zm4.273438 1.210938v.214844l.230468.058594-.113281.214843h-.324219l-.09375.25-.742187-.175781.582031-.308594-.214844-.183594c-.089844.011719-.179687.011719-.269531.027344l.265625-.035156.003906.007812c.222656-.03125.445313-.0625.675782-.070312zm0 0" fill="#42b2f6" fill-rule="evenodd"/><path d="m12.914062 4.003906-1.515624 1.515625.011718.007813.355469-.003906.238281-.019532.070313-.191406.375-.488281.246093.050781.242188-.21875.042969.167969.597656.40625-.074219.097656-.265625-.015625.101563.148438.164062.035156.195313-.078125-.007813-.234375.089844-.046875-.070312-.070313-.398438-.222656-.101562-.296875h.214843c-.152343-.195313-.335937-.367187-.511719-.542969zm.132813 1.46875-.851563.066406-.265624.144532h-.339844l-.167969-.015625-.390625.214843-.019531.023438v.425781l-.84375.609375.070312.261719h.167969l-.042969.246094-.121093.042969-.007813.652343.730469.835938h.316406l.019531-.050781h.570313l.164062-.15625h.324219l.175781.179687.484375.050781-.066406.644532.535156.949218-.28125.539063.019531.257812.21875.21875v.613281l.0625.085938c.402344-.53125.722657-1.128906.945313-1.773438.21875-.644531.339844-1.332031.339844-2.054687 0-.457031-.050781-.902344-.140625-1.335937-.09375-.429688-.226563-.839844-.402344-1.234376l-.269531.027344v.238282h-.125l-.132813-.097657-.675781-.167969zm-5.316406 3.710938-2.125 2.125c.105469.078125.214843.152344.214843.152344v1.3125l.160157.046874-.109375.601563.265625.359375-.046875.597656.003906.011719c.332031.128906.671875.238281 1.027344.3125l.011718-.039063.015626-.171874-.226563-.007813-.113281-.144531.1875-.179688.023437-.136718-.207031-.0625.011719-.125.296875-.046876.453125-.21875.152343-.28125.476563-.609374-.109375-.476563.144531-.257813.4375.015626.296875-.234376.09375-.925781.324219-.414062.058594-.269531-.296875-.09375-.195313-.324219-.671875-.007813-.535156-.203125zm0 0" fill="#c1dfff" fill-rule="evenodd"/><path d="m4.371094 12.628906 3.613281-4.644531 1.03125 1.03125zm0 0" fill="#f2f2f2"/><path d="m12.628906 4.371094-4.644531 3.613281 1.03125 1.03125zm0 0" fill="#f34235"/></svg>