<svg height="17pt" viewBox="0 0 17 17" width="17pt" xmlns="http://www.w3.org/2000/svg"><path d="m3.96875 1.007812h9.0625c1.632812 0 2.960938 1.328126 2.960938 2.960938v9.0625c0 1.632812-1.328126 2.960938-2.960938 2.960938h-9.0625c-1.632812 0-2.960938-1.328126-2.960938-2.960938v-9.0625c0-1.632812 1.328126-2.960938 2.960938-2.960938zm0 0" fill="#800000" fill-rule="evenodd"/><path d="m8.363281 12.828125c-.144531-.039063-.226562-.105469-.585937-.472656-1.402344-1.425781-2.3125-2.730469-2.660156-3.816407-.125-.386718-.167969-.742187-.136719-1.109374.039062-.457032.136719-.839844.320312-1.226563.539063-1.148437 1.613281-1.910156 2.875-2.035156 1.191407-.117188 2.394531.414062 3.125 1.375.417969.542969.65625 1.167969.71875 1.863281.082031.941406-.328125 1.996094-1.273437 3.265625-.410156.550781-.792969.984375-1.429688 1.621094-.390625.390625-.449218.445312-.550781.492187-.132813.0625-.28125.078125-.402344.042969zm.433594-4.03125c.269531-.054687.488281-.167969.699219-.367187.15625-.148438.265625-.300782.34375-.480469.085937-.210938.113281-.335938.113281-.578125 0-.242188-.027344-.367188-.113281-.578125-.179688-.421875-.585938-.753907-1.039063-.847657-.167969-.035156-.4375-.035156-.601562 0-.695313.144532-1.199219.796876-1.15625 1.503907.023437.386719.179687.714843.460937.980469.207032.195312.425782.3125.6875.367187.152344.035156.449219.035156.605469 0zm0 0" fill="#fff"/></svg>