<svg height="17pt" viewBox="0 0 17 17" width="17pt" xmlns="http://www.w3.org/2000/svg"><path d="m3.96875 1.007812h9.0625c1.632812 0 2.960938 1.328126 2.960938 2.960938v9.0625c0 1.632812-1.328126 2.960938-2.960938 2.960938h-9.0625c-1.632812 0-2.960938-1.328126-2.960938-2.960938v-9.0625c0-1.632812 1.328126-2.960938 2.960938-2.960938zm0 0" fill="#8f2713" fill-rule="evenodd"/><path d="m8.210938 5.800781h.578124c.480469 0 .867188.363281.867188.808594v6.480469c0 .445312-.386719.808594-.867188.808594h-.578124c-.480469 0-.867188-.363282-.867188-.808594v-6.480469c0-.445313.386719-.808594.867188-.808594zm0 0" fill="#b83229"/><path d="m7.867188 8.496094c-1.277344-.023438-1.792969-.046875-2.109376-.089844-.234374-.027344-.347656-.058594-.476562-.121094-.210938-.105468-.34375-.253906-.4375-.488281-.085938-.214844-.121094-.386719-.15625-.75-.035156-.40625-.039062-.480469-.042969-1.121094-.003906-.746093.003907-.992187.054688-1.488281.027343-.261719.066406-.4375.136719-.621094.066406-.164062.125-.257812.234374-.359375.140626-.128906.289063-.207031.480469-.246093.285157-.0625 1.566407-.109376 2.949219-.109376s2.667969.046876 2.949219.109376c.207031.042968.359375.125.503906.273437.117187.113281.175781.21875.246094.429687.074219.21875.101562.414063.140625.988282.019531.269531.019531 1.523437 0 1.796875-.019532.316406-.050782.601562-.066406.703125-.050782.257812-.144532.503906-.25.640625-.074219.097656-.21875.210937-.339844.265625-.125.058594-.238282.089844-.429688.105468-.582031.058594-2.363281.101563-3.386718.082032zm0 0" fill="#d54c41"/><g fill="none" stroke="#fefefe" stroke-width="1.377649" transform="matrix(.385621 0 0 .385621 2.330073 2.33007)"><g stroke-linecap="round" stroke-linejoin="round"><path d="m8.50396 11.50238v-5.004109l2.096863 2.005696 1.894268-2.005696v5.004109"/><path d="m14.500786 11.50238 2.096863-5.004109 2.106993 5.004109"/><path d="m21.50046 11.50238v-5.004109"/><path d="m19.504894 6.498271h3.991131"/></g><path d="m15.19974 10.499532h2.805948"/></g></svg>