<svg height="17pt" viewBox="0 0 17 17" width="17pt" xmlns="http://www.w3.org/2000/svg"><path d="m3.96875 1.007812h9.0625c1.632812 0 2.960938 1.328126 2.960938 2.960938v9.0625c0 1.632812-1.328126 2.960938-2.960938 2.960938h-9.0625c-1.632812 0-2.960938-1.328126-2.960938-2.960938v-9.0625c0-1.632812 1.328126-2.960938 2.960938-2.960938zm0 0" fill="#e3af4a" fill-rule="evenodd"/><path d="m3.90625 4.25h9.1875c.398438 0 .71875.347656.71875.773438v6.953124c0 .425782-.320312.773438-.71875.773438h-9.1875c-.398438 0-.71875-.347656-.71875-.773438v-6.953124c0-.425782.320312-.773438.71875-.773438zm0 0" fill="#faff84"/><path d="m7.078125 7.4375h2.84375c.390625 0 .703125.324219.703125.726562v.140626c0 .402343-.3125.726562-.703125.726562h-2.84375c-.390625 0-.703125-.324219-.703125-.726562v-.140626c0-.402343.3125-.726562.703125-.726562zm0 0" fill="#4e4e4e"/></svg>