<svg height="17pt" viewBox="0 0 17 17" width="17pt" xmlns="http://www.w3.org/2000/svg"><path d="m3.96875 1.007812h9.0625c1.632812 0 2.960938 1.328126 2.960938 2.960938v9.0625c0 1.632812-1.328126 2.960938-2.960938 2.960938h-9.0625c-1.632812 0-2.960938-1.328126-2.960938-2.960938v-9.0625c0-1.632812 1.328126-2.960938 2.960938-2.960938zm0 0" fill="#8e8e8e" fill-rule="evenodd"/><path d="m4.734375 4.34375h7.53125c.984375 0 1.785156.800781 1.785156 1.789062v4.734376c0 .988281-.800781 1.789062-1.785156 1.789062h-7.53125c-.984375 0-1.785156-.800781-1.785156-1.789062v-4.734376c0-.988281.800781-1.789062 1.785156-1.789062zm0 0" fill="#474747"/><path d="m4.800781 4.871094h7.398438c.746093 0 1.351562.582031 1.351562 1.296875v4.664062c0 .714844-.605469 1.296875-1.351562 1.296875h-7.398438c-.746093 0-1.351562-.582031-1.351562-1.296875v-4.664062c0-.714844.605469-1.296875 1.351562-1.296875zm0 0" fill="#232323"/><path d="m8.457031 6.800781c-.550781.003907-1.105469.128907-1.582031.402344-.191406.125-.417969.285156-.59375.445313-.269531.265624-.5.574218-.660156.921874.429687.949219 1.378906 1.644532 2.417968 1.75.683594.074219 1.398438-.042968 1.996094-.378906.191406-.125.421875-.285156.59375-.449218.269532-.265626.503906-.574219.660156-.921876-.429687-.949218-1.378906-1.644531-2.417968-1.746093-.136719-.015625-.277344-.023438-.414063-.023438zm0 .707031c.566407-.011718 1.070313.496094 1.0625 1.0625.015625.625-.605469 1.167969-1.222656 1.050782-.621094-.074219-1.058594-.773438-.855469-1.363282.132813-.4375.558594-.753906 1.015625-.75zm0 .710938c-.09375 0-.1875.035156-.253906.101562-.066406.066407-.101563.15625-.101563.25 0 .195313.160157.355469.355469.355469.195313 0 .351563-.160156.351563-.355469 0-.195312-.15625-.351562-.351563-.351562zm0 0" fill="#fff" fill-rule="evenodd"/></svg>