<svg height="17pt" viewBox="0 0 17 17" width="17pt" xmlns="http://www.w3.org/2000/svg"><path d="m3.96875 1.007812h9.0625c1.632812 0 2.960938 1.328126 2.960938 2.960938v9.0625c0 1.632812-1.328126 2.960938-2.960938 2.960938h-9.0625c-1.632812 0-2.960938-1.328126-2.960938-2.960938v-9.0625c0-1.632812 1.328126-2.960938 2.960938-2.960938zm0 0" fill="#00a286" fill-rule="evenodd"/><path d="m4.429688 5.035156c-2.128907 2.855469-1.148438 5.886719 1.023437 7.382813 2.53125 1.742187 6.652344 1.46875 8-1.554688.546875-1.425781.59375-3.515625-1.972656-4.195312-1.410157-.292969-2.054688-.066407-1.839844-1.480469.367187-2.476562-3.90625-1.945312-5.210937-.152344zm0 0" fill="#ecf0f1"/><path d="m6.980469 10.984375c0 .5625-.457031 1.019531-1.019531 1.019531s-1.019532-.457031-1.019532-1.019531c0-.566406.457032-1.023437 1.019532-1.023437s1.019531.457031 1.019531 1.023437zm0 0" fill="#00af67"/><path d="m9.484375 11.992188c0 .5625-.457031 1.019531-1.023437 1.019531-.5625 0-1.019532-.457031-1.019532-1.019531 0-.566407.457032-1.023438 1.019532-1.023438.566406 0 1.023437.457031 1.023437 1.023438zm0 0" fill="#1380b6"/><path d="m11.820312 11.160156c0 .566406-.457031 1.023438-1.023437 1.023438-.5625 0-1.019531-.457032-1.019531-1.023438 0-.5625.457031-1.019531 1.019531-1.019531.566406 0 1.023437.457031 1.023437 1.019531zm0 0" fill="#f89b36"/><path d="m13.222656 8.878906c0 .5625-.457031 1.019532-1.019531 1.019532-.566406 0-1.023437-.457032-1.023437-1.019532 0-.566406.457031-1.023437 1.023437-1.023437.5625 0 1.019531.457031 1.019531 1.023437zm0 0" fill="#c6362b"/><path d="m7.519531 5.335938c0 .425781-.34375.769531-.769531.769531-.421875 0-.765625-.34375-.765625-.769531 0-.425782.34375-.769532.765625-.769532.425781 0 .769531.34375.769531.769532zm0 0" fill="#00a286"/></svg>