<svg height="17pt" viewBox="0 0 17 17" width="17pt" xmlns="http://www.w3.org/2000/svg"><path d="m3.96875 1.007812h9.0625c1.632812 0 2.960938 1.328126 2.960938 2.960938v9.0625c0 1.632812-1.328126 2.960938-2.960938 2.960938h-9.0625c-1.632812 0-2.960938-1.328126-2.960938-2.960938v-9.0625c0-1.632812 1.328126-2.960938 2.960938-2.960938zm0 0" fill="#caa17d" fill-rule="evenodd"/><path d="m6.640625 10.09375v3.542969c0 .390625.238281.707031.53125.707031h.53125c.292969 0 .53125-.316406.53125-.707031v-3.542969zm0 0" fill="#855629"/><g fill="#ccc"><path d="m6.640625 2.65625s3.71875 2.054688 3.71875 7.4375h-3.71875zm0 0"/><path d="m7.703125 11.421875c0 .148437-.117187.265625-.265625.265625s-.265625-.117188-.265625-.265625.117187-.265625.265625-.265625.265625.117188.265625.265625zm0 0"/><path d="m7.703125 13.015625c0 .148437-.117187.265625-.265625.265625s-.265625-.117188-.265625-.265625.117187-.265625.265625-.265625.265625.117188.265625.265625zm0 0"/></g><path d="m15.09375 11.828125c0 1.761719-1.429688 3.1875-3.1875 3.1875-1.761719 0-3.1875-1.425781-3.1875-3.1875 0-1.757813 1.425781-3.1875 3.1875-3.1875 1.757812 0 3.1875 1.429687 3.1875 3.1875zm0 0" fill="#e74c3c"/><path d="m11.195312 8.289062v.4375c-.921874.210938-1.699218.816407-2.128906 1.660157.238282-.042969.734375-.164063 1.480469-.574219.296875-.160156.550781-.304688.648437-.460938-.847656 1.0625.074219 1.21875.53125 1.769532 0 0 1.078126-.707032.179688-1.769532 1.0625.515626 2.125.351563 2.125.351563s.003906-.101563-.003906-.246094c-.582032-.523437-1.339844-.8125-2.121094-.816406v-.351563zm0 0" fill="#a6ef4d" fill-rule="evenodd"/></svg>