<svg height="17pt" viewBox="0 0 17 17" width="17pt" xmlns="http://www.w3.org/2000/svg"><path d="m3.96875 1.007812h9.0625c1.632812 0 2.960938 1.328126 2.960938 2.960938v9.0625c0 1.632812-1.328126 2.960938-2.960938 2.960938h-9.0625c-1.632812 0-2.960938-1.328126-2.960938-2.960938v-9.0625c0-1.632812 1.328126-2.960938 2.960938-2.960938zm0 0" fill="#2c80c2" fill-rule="evenodd"/><path d="m6.375 12.75-1.0625-1.0625h-2.125v-7.4375h10.625v7.4375h-2.125l-1.0625 1.0625zm0 0" fill="#164061"/><g fill="#f8c44e"><path d="m4.78125 5.3125h1.0625v-1.0625h-1.0625zm0 0"/><path d="m6.375 5.3125h1.0625v-1.0625h-1.0625zm0 0"/><path d="m7.96875 5.3125h1.0625v-1.0625h-1.0625zm0 0"/><path d="m9.5625 5.3125h1.0625v-1.0625h-1.0625zm0 0"/><path d="m11.15625 5.3125h1.0625v-1.0625h-1.0625zm0 0"/></g></svg>