<svg height="17pt" viewBox="0 0 17 17" width="17pt" xmlns="http://www.w3.org/2000/svg"><path d="m3.96875 1.007812h9.0625c1.632812 0 2.960938 1.328126 2.960938 2.960938v9.0625c0 1.632812-1.328126 2.960938-2.960938 2.960938h-9.0625c-1.632812 0-2.960938-1.328126-2.960938-2.960938v-9.0625c0-1.632812 1.328126-2.960938 2.960938-2.960938zm0 0" fill="#225670" fill-rule="evenodd"/><path d="m3.296875 6.394531.039063 1.800781c.042968.285157.28125.800782.644531 1.210938.503906.566406 1.242187.921875 2.070312.921875h4.890625l1.835938 2.425781c.917968 1.210938 1.953125.210938 1.835937-.605468l-.308593-5.753907zm0 0" fill="#5f7c8a"/><path d="m5.457031 3.683594h6.109375c1.523438 0 2.75 1.203125 2.75 2.699218 0 .683594-.257812 1.308594-.683594 1.78125-.503906.5625-1.242187.914063-2.066406.914063h-4.890625l-2.441406 3.597656c-.925781 1.21875-2.027344.515625-1.832031-.597656l.304687-5.695313c.078125-1.492187 1.226563-2.699218 2.75-2.699218zm0 0" fill="#7f96a1"/><g fill="#dfe5e8"><path d="m6.757812 5.875v.875h-2.628906v-.875zm0 0"/><path d="m11.132812 6.3125c0 .238281-.195312.4375-.4375.4375-.242187 0-.4375-.199219-.4375-.4375 0-.242188.195313-.4375.4375-.4375.242188 0 .4375.195312.4375.4375zm0 0"/><path d="m12.886719 6.3125c0 .238281-.195313.4375-.4375.4375-.242188 0-.4375-.199219-.4375-.4375 0-.242188.195312-.4375.4375-.4375.242187 0 .4375.195312.4375.4375zm0 0"/><path d="m11.570312 5.875c-.238281 0-.4375-.199219-.4375-.441406 0-.238282.199219-.4375.4375-.4375.242188 0 .441407.199218.441407.4375 0 .242187-.199219.441406-.441407.441406zm0 0"/><path d="m11.570312 7.625c-.238281 0-.4375-.195312-.4375-.4375s.199219-.4375.4375-.4375c.242188 0 .441407.195312.441407.4375s-.199219.4375-.441407.4375zm0 0"/><path d="m5.882812 7.625h-.878906v-2.628906h.878906zm0 0"/></g></svg>