<svg height="17pt" viewBox="0 0 17 17" width="17pt" xmlns="http://www.w3.org/2000/svg" xmlns:xlink="http://www.w3.org/1999/xlink"><symbol id="a" overflow="visible"><path d="m .1875-1.453125h.625c.1875 0 .328125.042969.421875.125.101563.074219.15625.1875.15625.34375s-.054687.277344-.15625.359375c-.09375.085938-.234375.125-.421875.125h-.25v.5h-.375zm.375.265625v.40625h.203125c.070313 0 .128906-.015625.171875-.046875.039062-.039063.0625-.09375.0625-.15625s-.023438-.109375-.0625-.140625c-.042969-.039062-.101562-.0625-.171875-.0625zm0 0"/></symbol><symbol id="b" overflow="visible"><path d="m .1875-1.453125h.421875l.53125 1v-1h .34375v1.453125h-.40625l-.53125-1v1h-.359375zm0 0"/></symbol><symbol id="c" overflow="visible"><path d="m1.5-.109375c-.09375.0429688-.195312.078125-.296875.109375-.105469.0195312-.210937.03125-.3125.03125-.242187 0-.433594-.0664062-.578125-.203125-.148438-.132813-.21875-.320313-.21875-.5625 0-.226563.070312-.410156.21875-.546875.144531-.132812.34375-.203125.59375-.203125.101562 0 .195312.011719.28125.03125.09375.011719.175781.039063.25.078125v.296875c-.085938-.039063-.167969-.070313-.25-.09375-.074219-.03125-.152344-.046875-.234375-.046875-.148437 0-.261719.042969-.34375.125-.085937.085938-.125.203125-.125.359375s.035156.277344.109375.359375c.082031.085938.195312.125.34375.125h.109375c.03125-.007812.0625-.019531.09375-.03125v-.28125h-.234375v-.25h.59375zm0 0"/></symbol><symbol id="d" overflow="visible"><path d="m .28125-2.1875h.9375c.269531 0 .476562.0625.625.1875.15625.125.234375.304688.234375.53125 0 .230469-.078125.40625-.234375.53125-.148438.117188-.355469.171875-.625.171875h-.375v.765625h-.5625zm.5625.40625v.609375h.3125c.101562 0 .1875-.023437.25-.078125.0625-.050781.09375-.125.09375-.21875 0-.101562-.03125-.179688-.09375-.234375-.0625-.050781-.148438-.078125-.25-.078125zm0 0"/></symbol><symbol id="e" overflow="visible"><path d="m .84375-1.765625v1.34375h.203125c.226563 0 .398437-.054687.515625-.171875.125-.113281.1875-.28125.1875-.5s-.0625-.382812-.1875-.5c-.117188-.113281-.289062-.171875-.515625-.171875zm-.5625-.421875h.59375c.332031 0 .578125.027344.734375.078125.164063.042969.304687.121094.421875.234375.101562.09375.175781.210938.21875.34375.050781.125.078125.273438.078125.4375 0 .167969-.027344.320312-.078125.453125-.042969.125-.117188.234375-.21875.328125-.117188.117188-.257812.199219-.421875.25-.167969.0429688-.414063.0625-.734375.0625h-.59375zm0 0"/></symbol><symbol id="f" overflow="visible"><path d="m .28125-2.1875h1.515625v.421875h-.953125v.40625h.890625v.4375h-.890625v.921875h-.5625zm0 0"/></symbol><g fill-rule="evenodd"><path d="m3.96875.9375h9.0625c1.632812 0 2.960938 1.324219 2.960938 2.960938v9.058593c0 1.636719-1.328126 2.960938-2.960938 2.960938h-9.0625c-1.632812 0-2.960938-1.324219-2.960938-2.960938v-9.058593c0-1.636719 1.328126-2.960938 2.960938-2.960938zm0 0" fill="#6787c3"/><path d="m15.125 15.125-13.25-13.25s-.042969-.03125-.042969-.03125c-.5625.535156-.824219 1.3125-.824219 2.125v9.0625c0 1.640625 1.320313 2.960938 2.964844 2.960938h9.058594c.820312 0 1.558594-.332032 2.09375-.867188zm0 0" fill="#d51f33"/><path d="m15.125 15.125c.535156-.535156.867188-1.273438.867188-2.09375v-9.0625c0-1.640625-1.320313-2.960938-2.960938-2.960938h-9.058594c-.820312 0-1.5625.332032-2.097656.867188zm0 0" fill="#6787c3"/></g><path d="m12.042969 4.4375c1.359375 1.363281 2.476562 2.484375 2.476562 2.496094 0 .023437-4.945312 4.96875-4.96875 4.96875-.007812 0-.015625-.738282-.015625-1.640625v-1.640625h-.261718c-2.199219.003906-3.710938.660156-4.351563 1.898437-.394531.769531-.46875 1.789063-.207031 2.867188.117187.476562.367187 1.15625.585937 1.582031.101563.199219.128907.253906.117188.253906-.027344 0-.476563-.554687-.648438-.796875-.105469-.148437-.40625-.605469-.40625-.617187 0-.003906-.050781-.089844-.109375-.195313-.554687-.953125-.898437-2.136719-.949218-3.234375-.050782-1.210937.320312-2.390625 1.03125-3.273437.1875-.238281.277343-.328125.53125-.550781 1.027343-.902344 2.527343-1.378907 4.324218-1.382813h.34375v-1.605469c0-.882812.007813-1.609375.015625-1.605468.007813 0 1.128907 1.113281 2.492188 2.476562zm0 0" fill="#fff"/><g fill="#6787c3"><use x="6.851562" xlink:href="#a" y="7.889221"/><use x="8.60199" xlink:href="#b" y="7.889221"/><use x="10.600922" xlink:href="#c" y="7.889221"/></g><g fill="#fff"><use x="5.328125" xlink:href="#d" y="15.183075"/><use x="7.687103" xlink:href="#e" y="15.183075"/><use x="10.358917" xlink:href="#f" y="15.183075"/></g></svg>