<svg height="17pt" viewBox="0 0 17 17" width="17pt" xmlns="http://www.w3.org/2000/svg"><path d="m3.96875 1.007812h9.0625c1.632812 0 2.960938 1.328126 2.960938 2.960938v9.0625c0 1.632812-1.328126 2.960938-2.960938 2.960938h-9.0625c-1.632812 0-2.960938-1.328126-2.960938-2.960938v-9.0625c0-1.632812 1.328126-2.960938 2.960938-2.960938zm0 0" fill="#999" fill-rule="evenodd"/><path d="m2.773438 12.550781v-5.335937c0-.109375.085937-.195313.195312-.195313h3.421875c.105469 0 .191406.085938.191406.195313v5.335937c0 .109375-.085937.195313-.191406.195313h-3.421875c-.109375 0-.195312-.085938-.195312-.195313zm0 0" fill="#666"/><path d="m4.652344 4.246094h9.054687c.1875 0 .335938.15625.335938.351562v6.210938c0 .191406-.148438.347656-.335938.347656h-9.054687c-.183594 0-.335938-.15625-.335938-.347656v-6.210938c0-.195312.152344-.351562.335938-.351562zm0 0" fill="#666"/><path d="m2.859375 12.945312c-.042969-.019531-.105469-.074218-.136719-.117187l-.0625-.082031-.007812-2.808594c-.003906-2.765625-.003906-2.8125.042968-2.898438.023438-.050781.078126-.113281.117188-.144531l.078125-.050781h1.773437c1.769532 0 1.777344 0 1.84375.046875.035157.027344.085938.082031.113282.121094l.054687.078125v5.625l-.050781.089844c-.03125.054687-.085938.105468-.144531.132812-.09375.042969-.140625.046875-1.820313.046875-1.550781-.003906-1.734375-.003906-1.800781-.039063zm1.871094-.238281c.011719 0 .042969-.019531.070312-.042969.105469-.109374.015625-.320312-.140625-.320312-.140625 0-.234375.1875-.148437.300781.035156.046875.125.089844.167969.074219.019531-.003906.039062-.011719.050781-.011719zm1.621093-.5c.019532-.03125.027344-.785156.027344-2.292969 0-2-.003906-2.253906-.039062-2.300781l-.035156-.050781h-1.621094c-1.078125 0-1.640625.007812-1.671875.023438-.042969.023437-.042969.074218-.042969 2.316406 0 1.753906.007812 2.300781.027344 2.320312.019531.023438.425781.027344 1.679687.027344 1.613281 0 1.65625 0 1.675781-.042969zm-1.253906-4.875c.023438-.011719.042969-.039062.042969-.054687 0-.066406-.089844-.082032-.488281-.082032-.332032 0-.40625.007813-.433594.039063-.019531.019531-.039062.039063-.039062.042969s.019531.023437.039062.042968c.027344.03125.101562.035157.433594.035157.234375 0 .417968-.007813.445312-.023438zm2.117188 5.570313c-.027344-.070313-.015625-.441406.015625-.460938.015625-.011718.265625-.023437.554687-.03125l.523438-.011718.011718-.207032c.007813-.117187.019532-.21875.03125-.230468.011719-.007813.425782-.019532.925782-.023438.765625-.007812.914062-.003906.953125.023438.039062.03125.046875.070312.058593.238281l.011719.199219.691407.011718c.582031.011719.695312.019532.714843.046875.03125.050781.027344.421875-.003906.453125-.023437.019532-.554687.027344-2.25.027344-2.007813 0-2.226563-.003906-2.238281-.035156zm-.640625-1.449219c-.109375-.066406-.125-.144531-.125-.613281 0-.480469.019531-.558594.152343-.617188.0625-.023437 1.367188-.03125 4.074219-.03125h3.25v-2.824218c0-2.792969 0-2.824219-.046875-2.871094-.042968-.042969-.074218-.042969-4.652344-.042969h-4.605468l-.042969.046875c-.039063.046875-.042969.097656-.046875.875-.003906.453125-.003906 1.488281-.007812 1.515625 0 .050781.066406.3125-.199219.046875l-.199219-.007812-.007812-1.539063c-.003907-.570313.003906-.933594.015624-.984375.035157-.121094.175782-.273438.308594-.335938l.117188-.050781 4.65625-.003906c5.183594 0 4.78125-.011719 4.957031.160156.046875.046875.105469.125.132813.175781.042968.085938.042968.15625.042968 3.40625v3.316407l-.046875.089843c-.0625.117188-.15625.210938-.273437.273438l-.089844.046875-3.273438.007813c-3.183593.003906-4.023437.003906-4.089843-.039063zm2.789062-.503906c.21875-.132813.121094-.460938-.136719-.460938-.195312 0-.304687.199219-.214843.378907.054687.117187.226562.160156.351562.082031zm0 0" fill="#fff"/></svg>