<svg height="17pt" viewBox="0 0 17 17" width="17pt" xmlns="http://www.w3.org/2000/svg"><path d="m3.96875 1.007812h9.0625c1.632812 0 2.960938 1.328126 2.960938 2.960938v9.0625c0 1.632812-1.328126 2.960938-2.960938 2.960938h-9.0625c-1.632812 0-2.960938-1.328126-2.960938-2.960938v-9.0625c0-1.632812 1.328126-2.960938 2.960938-2.960938zm0 0" fill="#35b9f5" fill-rule="evenodd"/><path d="m6.691406 3.269531c-.335937 0-.605468.269531-.605468.605469v5.628906c0 .335938.269531.605469.605468.605469h5.628906c.335938 0 .605469-.269531.605469-.605469v-5.027344l1.203125-1.207031zm0 0" fill="#ef4444"/><path d="m2.871094 6.890625 1.203125 1.207031v5.027344c0 .335938.269531.605469.605469.605469h5.628906c.335937 0 .605468-.269531.605468-.605469v-5.628906c0-.335938-.269531-.605469-.605468-.605469zm0 0" fill="#f9f9f9"/><path d="m5.28125 8.902344v.402344h4.425781v-.402344zm0 1.207031v.402344h4.425781v-.402344zm0 1.207031v.402344h3.378906v-.402344zm0 0" fill="#aee3fb"/></svg>