<svg height="17pt" viewBox="0 0 17 17" width="17pt" xmlns="http://www.w3.org/2000/svg"><g fill-rule="evenodd"><path d="m11.6875 11.6875v3.984375c0 .125-.082031.214844-.132812.320313h1.476562c1.640625 0 2.960938-1.320313 2.960938-2.960938v-1.476562c-.105469.050781-.195313.132812-.320313.132812zm0 0" fill="#4f4f4f"/><path d="m5.3125 5.3125h-3.984375c-.125 0-.214844.082031-.320313.132812v7.585938c0 1.640625 1.320313 2.960938 2.960938 2.960938h7.585938c.050781-.105469.132812-.195313.132812-.320313v-3.984375h-5.578125c-.222656 0-.421875-.089844-.5625-.234375-.144531-.140625-.234375-.339844-.234375-.5625zm0 0" fill="#2297fd"/><path d="m3.96875 1.007812c-1.640625 0-2.960938 1.320313-2.960938 2.960938v1.476562c.105469-.050781.195313-.132812.320313-.132812h3.984375v-3.984375c0-.125.082031-.214844.132812-.320313zm0 0" fill="#4f4f4f"/></g><path d="m7.070312 13.183594h-2.449218l-.386719 1.160156h-1.578125l2.253906-6.375h1.867188l2.253906 6.375h-1.578125zm-2.058593-1.183594h1.664062l-.828125-2.535156zm0 0" fill="#fff"/><path d="m5.445312 1.007812c-.050781.105469-.132812.195313-.132812.320313v9.5625c0 .222656.089844.421875.234375.5625.140625.144531.339844.234375.5625.234375h9.5625c.125 0 .214844-.082031.320313-.132812v-7.585938c0-1.640625-1.320313-2.960938-2.960938-2.960938zm0 0" fill="#f3af3f" fill-rule="evenodd"/><path d="m11.085938 5.65625c.261718 0 .460937-.058594.59375-.171875.136718-.113281.207031-.28125.207031-.503906 0-.21875-.070313-.386719-.207031-.5-.132813-.117188-.332032-.175781-.59375-.175781h-.921876v1.351562zm.054687 2.789062c.335937 0 .585937-.070312.753906-.210937s.253907-.351563.253907-.632813c0-.273437-.082032-.480468-.25-.617187-.167969-.140625-.421876-.210937-.757813-.210937h-.976563v1.671874zm1.546875-2.292968c.359375.101562.636719.289062.832031.566406.195313.277344.292969.613281.292969 1.015625 0 .617187-.210938 1.074219-.632812 1.375-.417969.300781-1.058594.453125-1.917969.453125h-2.761719v-6.375h2.5c.894531 0 1.542969.132812 1.945312.402344.402344.265625.605469.695312.605469 1.285156 0 .308594-.074219.574219-.222656.792969s-.359375.378906-.640625.484375zm0 0" fill="#fff"/></svg>