<svg height="17pt" viewBox="0 0 17 17" width="17pt" xmlns="http://www.w3.org/2000/svg"><path d="m3.96875 1.007812h9.0625c1.632812 0 2.960938 1.328126 2.960938 2.960938v9.0625c0 1.632812-1.328126 2.960938-2.960938 2.960938h-9.0625c-1.632812 0-2.960938-1.328126-2.960938-2.960938v-9.0625c0-1.632812 1.328126-2.960938 2.960938-2.960938zm0 0" fill="#1b61a4" fill-rule="evenodd"/><path d="m8.5 2.523438c-.941406 0-1.769531.390624-2.308594 1.007812-.539062.613281-.804687 1.421875-.804687 2.253906v4.902344h1.59375v-4.902344c0-.496094.160156-.917968.410156-1.203125.25-.285156.578125-.464843 1.109375-.464843s.859375.179687 1.109375.464843c.25.285157.410156.707031.410156 1.203125v4.902344h1.59375v-4.902344c0-.832031-.265625-1.640625-.804687-2.253906-.539063-.617188-1.367188-1.007812-2.308594-1.007812zm0 0" fill="#e6e6e6"/><path d="m8.5 14.476562-3.902344-4.039062c-.683594-.703125-.90625-1.753906-.578125-2.691406.332031-.9375 1.15625-1.589844 2.117188-1.679688.960937-.085937 1.882812.410156 2.363281 1.273438.480469-.863282 1.402344-1.359375 2.363281-1.273438.960938.089844 1.785157.742188 2.117188 1.679688.328125.9375.105469 1.988281-.578125 2.691406zm0 0" fill="#f9f9f9"/><path d="m9.339844 9.425781c0-.464843-.375-.84375-.839844-.84375s-.839844.378907-.839844.84375c0 .464844.375.839844.839844.839844s.839844-.375.839844-.839844zm0 0" fill="#272727"/><path d="m8.472656 9.445312-.8125 2.503907h1.679688l-.839844-2.503907zm0 0" fill="#272727"/></svg>