<svg height="17pt" viewBox="0 0 17 17" width="17pt" xmlns="http://www.w3.org/2000/svg"><g fill-rule="evenodd"><path d="m3.96875 1.007812h9.0625c1.632812 0 2.960938 1.328126 2.960938 2.960938v9.0625c0 1.632812-1.328126 2.960938-2.960938 2.960938h-9.0625c-1.632812 0-2.960938-1.328126-2.960938-2.960938v-9.0625c0-1.632812 1.328126-2.960938 2.960938-2.960938zm0 0" fill="#196260"/><path d="m8.464844 1.007812-1.039063 1.304688 1.074219 1.34375v4.84375h4.84375l1.34375-1.074219 1.304688 1.039063v-4.496094c0-1.640625-1.320313-2.960938-2.964844-2.960938zm0 0" fill="#196260"/><path d="m1.007812 8.535156 1.304688 1.039063 1.34375-1.074219h4.84375v-4.84375l-1.074219-1.34375 1.039063-1.304688h-4.496094c-1.640625 0-2.960938 1.320313-2.960938 2.964844zm0 0" fill="#5d7dbd"/><path d="m15.992188 8.464844-1.304688-1.039063-1.34375 1.074219h-4.84375v4.84375l1.074219 1.34375-1.039063 1.304688h4.496094c1.640625 0 2.960938-1.320313 2.960938-2.964844zm0 0" fill="#3f96b9"/><path d="m8.535156 15.992188 1.039063-1.304688-1.074219-1.34375v-4.84375h-4.84375l-1.34375 1.074219-1.304688-1.039063v4.496094c0 1.640625 1.320313 2.960938 2.964844 2.960938zm0 0" fill="#97c33d"/></g><path d="m13.28125 8.5c0 2.640625-2.140625 4.78125-4.78125 4.78125s-4.78125-2.140625-4.78125-4.78125 2.140625-4.78125 4.78125-4.78125 4.78125 2.140625 4.78125 4.78125zm0 0" fill="#f9f9f9"/></svg>