<svg height="17pt" viewBox="0 0 17 17" width="17pt" xmlns="http://www.w3.org/2000/svg"><g fill-rule="evenodd"><path d="m3.96875 1.007812h9.0625c1.632812 0 2.960938 1.324219 2.960938 2.960938v9.058594c0 1.636718-1.328126 2.964844-2.960938 2.964844h-9.0625c-1.632812 0-2.960938-1.328126-2.960938-2.964844v-9.058594c0-1.636719 1.328126-2.960938 2.960938-2.960938zm0 0" fill="#008295"/><path d="m4.824219 15.992188v-14.984376h-.855469c-1.640625 0-2.960938 1.320313-2.960938 2.960938v9.0625c0 1.640625 1.320313 2.960938 2.960938 2.960938zm0 0" fill="#006877"/><path d="m10.34375 4.78125c-1.566406 0-2.90625.976562-3.449219 2.347656-.027343.070313-.054687.140625-.078125.214844-.003906.011719-.011718.027344-.015625.042969-.117187.359375-.183593.742187-.183593 1.140625 0 2.035156 1.664062 3.691406 3.707031 3.691406 1.554687 0 2.886719-.957031 3.4375-2.308594.039062-.09375.074219-.191406.105469-.289062.121093-.359375.1875-.746094.1875-1.148438 0-2.035156-1.664063-3.691406-3.710938-3.691406zm-.265625.574219v1.246093c-.355469-.015624-.691406-.050781-1.003906-.109374.046875-.109376.09375-.214844.148437-.3125.246094-.445313.546875-.722657.855469-.824219zm.53125.023437c.027344.003906.054687.007813.082031.011719.28125.121094.546875.386719.773438.789063.050781.09375.101562.199218.148437.304687-.3125.0625-.652343.101563-1.003906.113281zm-1.660156.253906c-.066407.089844-.132813.1875-.1875.289063-.078125.140625-.148438.289063-.210938.445313-.15625-.046876-.296875-.097657-.433593-.152344.242187-.238282.523437-.433594.832031-.582032zm2.847656.078126c.144531.058593.253906.113281.367187.167968.140626.097656.273438.207032.394532.324219-.128906.054687-.273438.109375-.425782.152344-.0625-.152344-.128906-.296875-.207031-.433594-.039062-.070313-.085937-.140625-.128906-.210937zm1.109375.890624c.339844.457032.554688 1.007813.605469 1.609376h-1c-.019531-.484376-.089844-.9375-.207031-1.351563.210937-.066406.410156-.140625.589843-.226563.007813-.007812.007813-.019531.011719-.03125zm-5.148438.035157c.191407.085937.398438.164062.621094.230469-.113281.410156-.1875.863281-.207031 1.34375h-.992187c.046874-.585938.253906-1.125.578124-1.574219zm4.03125.351562c.105469.367188.175782.78125.195313 1.222657h-1.375v-1.085938c.414063-.015625.8125-.0625 1.179687-.136719zm-2.894531.007813c.367188.074218.765625.117187 1.183594.132812v1.082032h-1.375c.019531-.4375.085937-.847657.191406-1.214844zm-1.714843 1.742187h.992187c.019531.492188.097656.957031.21875 1.378907-.21875.0625-.421875.136718-.609375.222656-.335938-.457032-.550781-1.003906-.601562-1.601563zm1.523437 0h1.375v1.121094c-.414063.011719-.808594.054687-1.171875.128906-.113281-.375-.183594-.800781-.203125-1.25zm1.90625 0h1.375c-.023437.453125-.09375.878907-.203125 1.257813-.367188-.074219-.761719-.121094-1.171875-.136719zm1.902344 0h1c-.050781.605469-.273438 1.160157-.613281 1.617188 0 0 0-.003907-.003907-.003907-.183593-.085937-.386719-.160156-.601562-.226562.125-.421875.199219-.890625.21875-1.386719zm-2.433594 1.648438v1.203125c-.308594-.101563-.609375-.375-.855469-.820313-.046875-.085937-.09375-.179687-.136718-.277343.308593-.058594.644531-.09375.992187-.105469zm.53125 0c .347656.015625.679687.050781.988281.109375-.042968.097656-.085937.1875-.132812.273437-.25.445313-.546875.71875-.855469.820313zm-2.042969.230469c.058594.140624.121094.28125.191406.410156.058594.097656.121094.191406.183594.285156-.292968-.144531-.558594-.332031-.792968-.550781.132812-.054688.265624-.101563.417968-.144531zm3.550782.007812c.148437.042969.285156.09375.410156.144531-.230469.21875-.492188.402344-.785156.542969.066406-.089844.128906-.183594.183593-.285156.070313-.125.132813-.261719.191407-.402344zm0 0" fill="#fff"/></g></svg>