<svg height="17pt" viewBox="0 0 17 17" width="17pt" xmlns="http://www.w3.org/2000/svg"><path d="m15.9375 3.703125c-.027344-.308594-.0625-.617187-.179688-.886719-.148437-.355468-.363281-.675781-.632812-.941406-.269531-.269531-.585938-.484375-.941406-.636719-.269532-.113281-.578125-.148437-.882813-.175781h-4.800781v7.4375h7.4375zm0 0" fill="#cf4f8c"/><path d="m3.699219 1.0625c-.304688.027344-.613281.0625-.882813.175781-.355468.152344-.675781.367188-.941406.636719-.269531.265625-.484375.585938-.636719.941406-.113281.269532-.148437.578125-.175781.882813v4.800781h7.4375v-7.4375zm0 0" fill="#ff8c2a"/><path d="m13.300781 15.9375c.304688-.027344.613281-.0625.882813-.175781.355468-.152344.675781-.367188.941406-.636719.269531-.265625.484375-.585938.636719-.941406.113281-.269532.148437-.578125.175781-.882813v-4.800781h-7.4375v7.4375zm0 0" fill="#ff8c2a"/><path d="m1.0625 13.296875c.027344.308594.0625.617187.179688.886719.148437.355468.363281.675781.632812.941406.269531.269531.585938.484375.941406.636719.269532.113281.578125.148437.882813.175781h4.800781v-7.4375h-7.4375zm0 0" fill="#c72566"/><path d="m5.058594 2.808594h6.882812c1.242188 0 2.25 1.007812 2.25 2.25v6.882812c0 1.242188-1.007812 2.25-2.25 2.25h-6.882812c-1.242188 0-2.25-1.007812-2.25-2.25v-6.882812c0-1.242188 1.007812-2.25 2.25-2.25zm0 0" fill="#3f3f3f" fill-rule="evenodd"/><g fill="none" stroke="#fff" stroke-linecap="round" stroke-width="2" transform="matrix(.493308 0 0 .493308 -19.326036 14.837121)"><path d="m49.407085-5.339455h7.997665"/><path d="m53.405918-11.341663-1.995458-3.001104m-2.003375-.997729s3.998833.467191 3.998833-1.995457c0-2.470566-3.998833-2.003375-3.998833-2.003375m0 7.997665v-7.997665"/><path d="m56.407022-13.33712h3.998833m-1.995458 1.995457v-3.998833"/><path d="m59.408126-18.3416h3.998833m-2.003376 2.003376v-3.998833"/></g></svg>