<svg height="17pt" viewBox="0 0 17 17" width="17pt" xmlns="http://www.w3.org/2000/svg"><path d="m15.9375 3.703125c-.027344-.308594-.0625-.617187-.179688-.886719-.148437-.355468-.363281-.675781-.632812-.941406-.269531-.269531-.585938-.484375-.941406-.636719-.269532-.113281-.578125-.148437-.882813-.175781h-4.800781v7.4375h7.4375zm0 0" fill="#ff8c2a"/><path d="m3.699219 1.0625c-.304688.027344-.613281.0625-.882813.175781-.355468.152344-.675781.367188-.941406.636719-.269531.265625-.484375.585938-.636719.941406-.113281.269532-.148437.578125-.175781.882813v4.800781h7.4375v-7.4375zm0 0" fill="#c72566"/><path d="m13.300781 15.9375c.304688-.027344.613281-.0625.882813-.175781.355468-.152344.675781-.367188.941406-.636719.269531-.265625.484375-.585938.636719-.941406.113281-.269532.148437-.578125.175781-.882813v-4.800781h-7.4375v7.4375zm0 0" fill="#c72566"/><path d="m1.0625 13.296875c.027344.308594.0625.617187.179688.886719.148437.355468.363281.675781.632812.941406.269531.269531.585938.484375.941406.636719.269532.113281.578125.148437.882813.175781h4.800781v-7.4375h-7.4375zm0 0" fill="#cf4f8c"/><path d="m5.058594 2.808594h6.882812c1.242188 0 2.25 1.007812 2.25 2.25v6.882812c0 1.242188-1.007812 2.25-2.25 2.25h-6.882812c-1.242188 0-2.25-1.007812-2.25-2.25v-6.882812c0-1.242188 1.007812-2.25 2.25-2.25zm0 0" fill="#3f3f3f" fill-rule="evenodd"/><g fill="none" stroke="#fff" stroke-linecap="round" stroke-width="1.729444" transform="matrix(.53125 0 0 .53125 -2.786953 21.259845)"><path d="m14.760736-17.952355h6.919118"/><path d="m18.216618-23.136178-1.727941-2.595588m-1.727941-.867647s3.455882.404411 3.455882-1.727942c0-2.132352-3.455882-1.727941-3.455882-1.727941m0 6.919118v-6.919118"/><path d="m20.812206-24.864119h6.919118m-6.919118-3.463236h6.919118m-1.727941 5.191177v-6.919118m-3.463235 6.919118v-6.919118"/></g></svg>