<svg height="17pt" viewBox="0 0 17 17" width="17pt" xmlns="http://www.w3.org/2000/svg" xmlns:xlink="http://www.w3.org/1999/xlink"><filter id="a" height="100%" width="100%" x="0%" y="0%"><feColorMatrix in="SourceGraphic" type="matrix" values="0 0 0 0 1 0 0 0 0 1 0 0 0 0 1 0 0 0 1 0"/></filter><mask id="b"><g filter="url(#a)"><path d="m0 0h17v17h-17z" fill-opacity=".2"/></g></mask><clipPath id="c"><path d="m0 0h17v17h-17z"/></clipPath><path d="m3.96875 1.007812h9.0625c1.632812 0 2.960938 1.328126 2.960938 2.960938v9.0625c0 1.632812-1.328126 2.960938-2.960938 2.960938h-9.0625c-1.632812 0-2.960938-1.328126-2.960938-2.960938v-9.0625c0-1.632812 1.328126-2.960938 2.960938-2.960938zm0 0" fill="#ccc" fill-rule="evenodd"/><path d="m8.5 13.953125c-2.640625 0-4.78125-2.140625-4.78125-4.78125s2.140625-4.78125 4.78125-4.78125 4.78125 2.140625 4.78125 4.78125-2.140625 4.78125-4.78125 4.78125zm0 0" fill="#3f3f3f"/><g clip-path="url(#c)" mask="url(#b)"><path d="m8.5 12.625c2.054688 0 3.71875-1.664062 3.71875-3.71875s-1.664062-3.71875-3.71875-3.71875-3.71875 1.664062-3.71875 3.71875 1.664062 3.71875 3.71875 3.71875zm0 0"/></g><path d="m8.5 12.890625c2.054688 0 3.71875-1.664063 3.71875-3.71875s-1.664062-3.71875-3.71875-3.71875-3.71875 1.664063-3.71875 3.71875 1.664062 3.71875 3.71875 3.71875zm0 0" fill="#fec006"/><g fill="#3f3f3f"><path d="m8.5 10.765625c.878906 0 1.59375-.714844 1.59375-1.59375 0-.882813-.714844-1.59375-1.59375-1.59375s-1.59375.710937-1.59375 1.59375c0 .878906.714844 1.59375 1.59375 1.59375zm0 0"/><path d="m13.140625 3.339844c.441406 0 .796875.359375.796875.796875 0 .441406-.355469.796875-.796875.796875-.4375 0-.796875-.355469-.796875-.796875 0-.4375.359375-.796875.796875-.796875zm0 0"/><path d="m4.027344 3.339844c.4375 0 .796875.359375.796875.796875 0 .441406-.359375.796875-.796875.796875-.441406 0-.796875-.355469-.796875-.796875 0-.4375.355469-.796875.796875-.796875zm0 0"/></g></svg>