<svg height="17pt" viewBox="0 0 17 17" width="17pt" xmlns="http://www.w3.org/2000/svg"><path d="m3.96875 1.007812h9.0625c1.632812 0 2.960938 1.328126 2.960938 2.960938v9.0625c0 1.632812-1.328126 2.960938-2.960938 2.960938h-9.0625c-1.632812 0-2.960938-1.328126-2.960938-2.960938v-9.0625c0-1.632812 1.328126-2.960938 2.960938-2.960938zm0 0" fill="#fabd7f" fill-rule="evenodd"/><path d="m6.394531 4.175781c-.269531 0-.484375.222657-.484375.496094v4.921875l-1.492187-1.523438c-.1875-.191406-.492188-.191406-.683594 0l-.339844.351563c-.1875.191406-.1875.503906 0 .695313l2.597657 2.652343c.3125 1.332031 1.476562 2.273438 2.816406 2.273438 1.601562 0 2.902344-1.324219 2.902344-2.957031v-6.414063c0-.273437-.214844-.496094-.484376-.496094h-.484374c-.265626 0-.480469.222657-.480469.496094v2.78125c0-.175781-.21875-.316406-.484375-.316406h-.484375c-.265625 0-.484375.140625-.484375.316406v.003906c0-.175781-.214844-.320312-.480469-.320312h-.484375c-.269531 0-.484375.144531-.484375.320312v-2.785156c0-.273437-.214844-.496094-.480469-.496094zm0 0" fill="#fff"/><path d="m6.660156 4.339844c-.269531 0-.507812.167968-.507812.578125 0 .410156.214844.738281.484375.738281.265625 0 .480469-.328125.480469-.738281 0-.410157-.191407-.578125-.460938-.578125zm4.324219 0c-.265625 0-.484375.167968-.484375.578125 0 .410156.21875.738281.484375.738281.269531 0 .484375-.328125.484375-.738281 0-.410157-.214844-.578125-.484375-.578125zm-7.066406 3.859375c-.066407.007812-.136719.042969-.222657.09375-.234374.136719-.480468.335937-.277343.6875.199219.355469.546875.53125.78125.394531.230469-.136719.253906-.535156.054687-.886719-.125-.222656-.222656-.296875-.335937-.289062zm0 0" fill="#facea2"/><path d="m6.394531 4.175781c-.269531 0-.484375.222657-.484375.496094v4.921875l-1.492187-1.523438c-.1875-.191406-.492188-.191406-.683594 0l-.339844.351563c-.1875.191406-.1875.503906 0 .695313l2.597657 2.652343c.3125 1.332031 1.476562 2.273438 2.816406 2.273438 1.601562 0 2.902344-1.324219 2.902344-2.957031v-6.414063c0-.273437-.214844-.496094-.484376-.496094h-.484374c-.265626 0-.480469.222657-.480469.496094v2.78125c0-.175781-.21875-.316406-.484375-.316406h-.484375c-.265625 0-.484375.140625-.484375.316406v.003906c0-.175781-.214844-.320312-.480469-.320312h-.484375c-.269531 0-.484375.144531-.484375.320312v-2.785156c0-.273437-.214844-.496094-.480469-.496094zm0 .371094h.484375c.070313 0 .117188.050781.117188.125v4.363281c.007812.433594.617187.476563.714844.058594.023437-.011719.070312-1.585938.132812-1.585938h.484375c.0625 0 .109375 1.324219.128906 1.335938.089844.378906.613281.378906.707031 0 .019532-.011719.066407-1.335938.128907-1.335938h.484375c.0625 0 .109375 1.648438.132812 1.660157.101563.417969.707032.371093.710938-.0625v-4.433594c0-.074219.050781-.125.121094-.125h.484374c.074219 0 .121094.050781.121094.125v6.414063c0 1.433593-1.132812 2.589843-2.535156 2.589843-1.179688-.003906-2.195312-.824219-2.46875-1.992187-.015625-.066406-.046875-.128906-.09375-.175782l-2.597656-2.652343c-.054688-.050781-.054688-.121094 0-.171875l.339844-.351563c.050781-.050781.121093-.050781.171874 0l1.492188 1.523438c.226562.234375.617188.066406.617188-.261719v-4.921875c0-.074219.046874-.125.121093-.125zm0 0" fill="#e8a560"/></svg>