<svg height="17pt" viewBox="0 0 17 17" width="17pt" xmlns="http://www.w3.org/2000/svg" xmlns:xlink="http://www.w3.org/1999/xlink"><clipPath id="a"><path d="m0 0h17v17h-17z"/></clipPath><clipPath id="b"><path d="m0 0h17v17h-17z"/></clipPath><clipPath id="c"><path d="m0 0h17v17h-17z"/></clipPath><path d="m3.96875 1.007812h9.0625c1.632812 0 2.960938 1.328126 2.960938 2.960938v9.0625c0 1.632812-1.328126 2.960938-2.960938 2.960938h-9.0625c-1.632812 0-2.960938-1.328126-2.960938-2.960938v-9.0625c0-1.632812 1.328126-2.960938 2.960938-2.960938zm0 0" fill="#4f4f4f" fill-rule="evenodd"/><g clip-path="url(#a)"><path d="m6.109375 5.578125v.53125h1.59375v.53125h-2.125v1.59375h-.53125v-1.59375h-.53125v3.71875h.53125v-1.59375h.53125v1.59375l1.0625 1.0625h3.453125l.53125-.53125h.796875v.53125h.53125l.53125-.53125v-3.1875l-.53125-.53125h-.53125v.53125h-.464844l-1.0625-1.0625h-1.660156v-.53125h1.59375v-.53125zm0 1.59375h3.453125l1.0625 1.0625h1.328125v2.125h-1.59375l-.53125.53125h-2.855469l-.863281-.902344zm0 0" fill="#ffa92c"/></g><g clip-path="url(#b)"><path d="m15.238281 12.0625c0 1.761719-1.425781 3.1875-3.1875 3.1875s-3.1875-1.425781-3.1875-3.1875c0-1.757812 1.425781-3.1875 3.1875-3.1875s3.1875 1.429688 3.1875 3.1875zm0 0" fill="#3f92e7" fill-rule="evenodd"/></g><g clip-path="url(#c)"><path d="m11.652344 10.46875-.035156.421875c-.132813.046875-.257813.121094-.367188.210937l-.378906-.179687-.398438.691406.34375.238281c-.011718.070313-.015625.140626-.019531.210938 0 .074219.007813.144531.019531.214844l-.34375.238281.398438.691406.378906-.179687c.109375.089844.234375.160156.367188.210937l.035156.417969h.796875l.035156-.417969c.132813-.050781.257813-.121093.367187-.210937l.378907.179687.398437-.691406-.34375-.242187c.011719-.066407.015625-.140626.019532-.210938 0-.070312-.007813-.140625-.019532-.210938l.34375-.238281-.398437-.691406-.378907.179687c-.109374-.089843-.234374-.160156-.367187-.210937l-.035156-.421875zm.398437 1.140625c.25 0 .457031.203125.457031.453125 0 .253906-.207031.457031-.457031.457031s-.457031-.203125-.457031-.457031c0-.25.207031-.453125.457031-.453125zm0 0" fill="#fff"/></g></svg>