<svg height="17pt" viewBox="0 0 17 17" width="17pt" xmlns="http://www.w3.org/2000/svg" xmlns:xlink="http://www.w3.org/1999/xlink"><clipPath id="a"><path d="m0 0h17v17h-17z"/></clipPath><path d="m3.96875 1.007812h9.0625c1.632812 0 2.960938 1.328126 2.960938 2.960938v9.0625c0 1.632812-1.328126 2.960938-2.960938 2.960938h-9.0625c-1.632812 0-2.960938-1.328126-2.960938-2.960938v-9.0625c0-1.632812 1.328126-2.960938 2.960938-2.960938zm0 0" fill="#4f4f4f" fill-rule="evenodd"/><g clip-path="url(#a)"><path d="m6.109375 5.578125v.53125h1.59375v.53125h-2.125v1.59375h-.53125v-1.59375h-.53125v3.71875h.53125v-1.59375h.53125v1.59375l1.0625 1.0625h3.453125l.53125-.53125h.796875v.53125h.53125l.53125-.53125v-3.1875l-.53125-.53125h-.53125v.53125h-.464844l-1.0625-1.0625h-1.660156v-.53125h1.59375v-.53125zm0 1.59375h3.453125l1.0625 1.0625h1.328125v2.125h-1.59375l-.53125.53125h-2.855469l-.863281-.902344zm0 0" fill="#ffa92c"/></g></svg>