<svg height="17pt" viewBox="0 0 17 17" width="17pt" xmlns="http://www.w3.org/2000/svg"><path d="m3.96875 1.007812h9.0625c1.632812 0 2.960938 1.328126 2.960938 2.960938v9.0625c0 1.632812-1.328126 2.960938-2.960938 2.960938h-9.0625c-1.632812 0-2.960938-1.328126-2.960938-2.960938v-9.0625c0-1.632812 1.328126-2.960938 2.960938-2.960938zm0 0" fill="#0086ff" fill-rule="evenodd"/><path d="m6.964844 13.273438c.324218-.230469.175781-.585938-.535156-1.273438-.566407-.550781-.761719-.914062-.761719-1.429688-.003907-.320312.027343-.394531.234375-.59375.320312-.300781.632812-.449218 1.210937-.574218.710938-.148438.667969-.175782.667969.457031 0 .476563.023438.585937.160156.730469.308594.328125.542969.246094 1.648438-.574219 3.371094-2.503906 3.230468-2.378906 3.230468-2.832031 0-.347656-.074218-.421875-1.449218-1.441406-3.089844-2.296876-2.898438-2.171876-3.175782-2.070313-.347656.132813-.414062.269531-.414062.886719v.578125h-.28125c-.160156 0-.511719.070312-.785156.15625-1.613282.496093-2.527344 1.90625-2.535156 3.894531-.003907.894531.132812 1.449219.570312 2.339844.386719.789062.878906 1.316406 1.519531 1.636718.515625.257813.484375.253907.695313.109376zm0 0" fill="#fff"/></svg>