<svg height="17pt" viewBox="0 0 17 17" width="17pt" xmlns="http://www.w3.org/2000/svg"><path d="m3.96875 1.007812h9.0625c1.632812 0 2.960938 1.328126 2.960938 2.960938v9.0625c0 1.632812-1.328126 2.960938-2.960938 2.960938h-9.0625c-1.632812 0-2.960938-1.328126-2.960938-2.960938v-9.0625c0-1.632812 1.328126-2.960938 2.960938-2.960938zm0 0" fill="#303bb5" fill-rule="evenodd"/><g fill="#fff"><path d="m4.492188 8.636719c.65625-.582031 1.472656-.988281 2.457031-1.210938-.609375-.441406-.96875-.832031-1.34375-1.351562-.171875-.230469.011719-.363281.25-.546875 1.414062-.542969 3.898437-.851563 5.15625.078125.332031.269531-.40625.722656-.765625.863281 1.320312.234375 2.339844.613281 2.917968 1.5.90625-1.34375.546876-3.300781-.488281-3.941406-1.03125-.636719-4.570312-1.980469-8.515625-.121094-1.785156.863281-1.035156 2.902344.332032 4.730469zm0 0"/><path d="m5.046875 9.125c1.847656-.457031 3.722656-.917969 6.300781 0-1.167968-2.363281-4.230468-1.449219-6.300781 0zm0 0"/><path d="m9.804688 7.496094c2.632812 1.058594 3.730468 3.792968.140624 4.886718-1.800781.59375-4.773437.117188-5.570312-.480468-.628906-.480469.097656-1.25.980469-1.566406-1.082031.003906-1.664063.269531-2.015625.875-.1875.421874-.136719.6875-.089844.863281 1.253906 3.035156 10.378906 2.511719 10.636719-1.265625.074219-2.035156-2.304688-3.238282-4.082031-3.3125zm0 0"/></g><g fill-rule="evenodd"><path d="m10.277344 10.625c0 1.011719-.820313 1.832031-1.832032 1.832031-1.015624 0-1.835937-.820312-1.835937-1.832031s.820313-1.832031 1.835937-1.832031c1.011719 0 1.832032.820312 1.832032 1.832031zm0 0" fill="#c3b694"/><path d="m9.921875 10.636719c0 .8125-.65625 1.46875-1.46875 1.46875-.808594 0-1.46875-.65625-1.46875-1.46875s.660156-1.46875 1.46875-1.46875c.8125 0 1.46875.65625 1.46875 1.46875zm0 0" fill="#082585"/><path d="m8.761719 11.804688-.285157-.554688-.242187.574219-.015625-.625-.46875.414062.257812-.570312-.601562.167969.476562-.398438-.613281-.109375.605469-.15625-.507812-.363281.613281.125-.300781-.550782.5.378907-.03125-.625.285156.554687.242187-.574218.015625.625.46875-.414063-.257812.570313.601562-.171876-.480468.402344.617187.109375-.605469.15625.507813.363281-.613281-.125.296874.550782-.496093-.378906zm0 0" fill="#fff"/></g></svg>