<svg height="17pt" viewBox="0 0 17 17" width="17pt" xmlns="http://www.w3.org/2000/svg" xmlns:xlink="http://www.w3.org/1999/xlink"><clipPath id="a"><path d="m0 0h17v17h-17z"/></clipPath><g fill-rule="evenodd"><path d="m15.992188 10.253906-2.382813.683594 1.25 4.367188c.675781-.539063 1.132813-1.335938 1.132813-2.273438zm0 0" fill="#d5100d"/><path d="m6.464844 15.992188-.796875-2.777344-4.257813 1.222656c.503906.914062 1.4375 1.554688 2.558594 1.554688zm0 0" fill="#390f39"/><path d="m5.664062 13.21875-2.273437-7.917969c-.003906-.003906-.007813-.003906-.011719-.003906l-2.371094.683594v7.050781c0 .519531.167969.980469.402344 1.40625zm0 0" fill="#48c39e"/><path d="m13.601562 10.917969-7.933593 2.277343v.023438-.003906l.796875 2.777344h6.566406c.703125 0 1.320312-.277344 1.828125-.6875l-1.25-4.363282zm0 0" fill="#d81768"/><path d="m11.335938 3.015625-.003907.003906-7.941406 2.273438-.011719.003906c.003906 0 .007813 0 .011719.003906l2.273437 7.917969h.003907c0-.007812 0-.015625 0-.023438l7.933593-2.277343zm0 0" fill="#fff"/><path d="m11.335938 3.015625 2.273437 7.925781v-.003906l2.382813-.683594v-6.285156c0-.796875-.324219-1.515625-.832032-2.046875zm0 0" fill="#ecb524"/><path d="m3.390625 5.292969 7.941406-2.273438-.578125-2.011719h-6.785156c-.621094 0-1.167969.234376-1.644531.5625zm0 0" fill="#81d2e0"/><path d="m10.753906 1.007812.578125 2.011719 3.828125-1.097656c-.539062-.558594-1.289062-.914063-2.128906-.914063zm0 0" fill="#77971f"/><path d="m1.007812 5.980469 2.382813-.6875-1.066406-3.722657c-.777344.535157-1.316407 1.382813-1.316407 2.398438zm0 0" fill="#20a48e"/></g><g clip-path="url(#a)"><path d="m10.488281 9.570312c0 .511719-.167969.90625-.503906 1.175782-.335937.273437-.828125.410156-1.484375.410156-.449219 0-.84375-.074219-1.175781-.226562-.332031-.148438-.601563-.390626-.8125-.722657l.800781-.613281c.117188.167969.230469.292969.335938.375.105468.085938.230468.148438.375.195312.144531.046876.3125.070313.5.070313.28125 0 .503906-.046875.660156-.144531.160156-.097656.238281-.246094.238281-.445313 0-.113281-.027344-.207031-.082031-.28125-.054688-.078125-.136719-.140625-.25-.195312-.109375-.058594-.300782-.121094-.574219-.191407-.265625-.074218-.515625-.144531-.75-.214843-.234375-.074219-.4375-.167969-.609375-.285157-.167969-.113281-.300781-.257812-.402344-.433593-.097656-.175781-.144531-.394531-.144531-.660157 0-.484374.164063-.859374.488281-1.128906.328125-.273437.796875-.410156 1.402344-.410156.882812 0 1.507812.300781 1.875.90625l-.792969.617188c-.140625-.214844-.296875-.367188-.472656-.460938s-.382813-.140625-.621094-.140625c-.242187 0-.4375.042969-.589843.132813-.152344.085937-.226563.222656-.226563.40625 0 .167968.078125.292968.238281.382812.15625.085938.429688.171875.820313.261719.214843.054687.429687.117187.640625.183593.210937.0625.398437.152344.5625.269532.167968.113281.300781.265625.402344.453125.101562.183593.152343.425781.152343.714843" fill="#5a3856"/></g></svg>