<svg height="17pt" viewBox="0 0 17 17" width="17pt" xmlns="http://www.w3.org/2000/svg"><path d="m3.96875 1.007812h9.0625c1.632812 0 2.960938 1.328126 2.960938 2.960938v9.0625c0 1.632812-1.328126 2.960938-2.960938 2.960938h-9.0625c-1.632812 0-2.960938-1.328126-2.960938-2.960938v-9.0625c0-1.632812 1.328126-2.960938 2.960938-2.960938zm0 0" fill="#704b91" fill-rule="evenodd"/><path d="m3.71875 8.5h1.59375v1.59375h-1.59375zm0 0" fill="#4c8a4c"/><path d="m5.3125 8.5h1.59375v1.59375h-1.59375zm0 0" fill="#e45e5e"/><path d="m6.90625 8.5h1.59375v1.59375h-1.59375zm0 0" fill="#7079ff"/><path d="m8.5 8.5h1.59375v1.59375h-1.59375zm0 0" fill="#cdcdcd"/><path d="m10.09375 8.5h1.59375v1.59375h-1.59375zm0 0" fill="#ffbd1a"/><path d="m11.6875 8.5h1.59375v1.59375h-1.59375zm0 0" fill="#f3f3f3"/><path d="m3.71875 6.90625h1.59375v1.59375h-1.59375zm0 0" fill="#7079ff"/><path d="m5.3125 6.90625h1.59375v1.59375h-1.59375zm0 0" fill="#f3f3f3"/><path d="m6.90625 6.90625h1.59375v1.59375h-1.59375zm0 0" fill="#4c8a4c"/><path d="m8.5 6.90625h1.59375v1.59375h-1.59375zm0 0" fill="#f3f3f3"/><path d="m10.09375 6.90625h1.59375v1.59375h-1.59375zm0 0" fill="#cdcdcd"/><path d="m11.6875 6.90625h1.59375v1.59375h-1.59375zm0 0" fill="#7079ff"/><path d="m3.71875 5.3125h1.59375v1.59375h-1.59375zm0 0" fill="#f3f3f3"/><path d="m5.3125 5.3125h1.59375v1.59375h-1.59375zm0 0" fill="#ffee35"/><path d="m6.90625 5.3125h1.59375v1.59375h-1.59375zm0 0" fill="#ffbd1a"/><path d="m8.5 5.3125h1.59375v1.59375h-1.59375zm0 0" fill="#db5fe8"/><path d="m10.09375 5.3125h1.59375v1.59375h-1.59375zm0 0" fill="#ffee35"/><path d="m5.3125 10.09375h1.59375v1.59375h-1.59375zm0 0" fill="#ffbd1a"/><path d="m6.90625 10.09375h1.59375v1.59375h-1.59375zm0 0" fill="#db5fe8"/><path d="m8.5 10.09375h1.59375v1.59375h-1.59375zm0 0" fill="#e45e5e"/><path d="m10.09375 10.09375h1.59375v1.59375h-1.59375zm0 0" fill="#ffee35"/><path d="m11.6875 10.09375h1.59375v1.59375h-1.59375zm0 0" fill="#e45e5e"/><path d="m6.90625 11.6875h1.59375v1.59375h-1.59375zm0 0" fill="#7079ff"/><path d="m8.5 11.6875h1.59375v1.59375h-1.59375zm0 0" fill="#f3f3f3"/><path d="m10.09375 11.6875h1.59375v1.59375h-1.59375zm0 0" fill="#4c8a4c"/><path d="m11.6875 11.6875h1.59375v1.59375h-1.59375zm0 0" fill="#db5fe8"/><path d="m3.71875 3.71875h1.59375v1.59375h-1.59375zm0 0" fill="#ffbd1a"/><path d="m5.3125 3.71875h1.59375v1.59375h-1.59375zm0 0" fill="#e45e5e"/><path d="m6.90625 3.71875h1.59375v1.59375h-1.59375zm0 0" fill="#ffee35"/><path d="m8.5 3.71875h1.59375v1.59375h-1.59375zm0 0" fill="#7079ff"/></svg>