<svg height="17pt" viewBox="0 0 17 17" width="17pt" xmlns="http://www.w3.org/2000/svg" xmlns:xlink="http://www.w3.org/1999/xlink"><linearGradient id="a" gradientTransform="matrix(-1.410747 0 0 1.373445 102.938809 -147.544689)" gradientUnits="userSpaceOnUse" x1="67.894455" x2="67.854446" y1="108.691" y2="113.1134"><stop offset="0" stop-color="#f9f9f9"/><stop offset="1" stop-color="#999"/></linearGradient><path d="m3.96875 1.007812h9.0625c1.632812 0 2.960938 1.328126 2.960938 2.960938v9.0625c0 1.632812-1.328126 2.960938-2.960938 2.960938h-9.0625c-1.632812 0-2.960938-1.328126-2.960938-2.960938v-9.0625c0-1.632812 1.328126-2.960938 2.960938-2.960938zm0 0" fill="#2c9bff" fill-rule="evenodd"/><path d="m9.5625 2.921875-2.125.320313v7.6875l2.125-.570313v-2.96875l2.125 3.5 2.125-.796875-2.65625-3.1875 2.65625-3.453125-2.0625-.53125-2.1875 3.484375zm-4.328125 2.085937c-.050781 0-.101563.019532-.136719.058594l-.835937.832032c-.078125.078124-.058594.1875 0 .28125l.863281 1.355468c-.0625.132813-.121094.269532-.164062.410156-.003907.007813-.007813.011719-.007813.019532l-1.570313.347656c-.105468.023438-.195312.085938-.195312.195312v1.046876c0 .109374.089844.171874.195312.195312l1.570313.347656c.003906.011719.007813.019532.011719.03125.042968.136719.097656.269532.160156.398438l-.863281 1.355468c-.058594.09375-.078125.203126 0 .28125l.835937.832032c.074219.078125.199219.078125.277344 0l1.355469-.863282c.132812.066407.269531.121094.410156.171876.007813 0 .015625.007812.027344.007812l.347656 1.570312c0 .105469.085937.195313.195313.195313h1.179687c.109375 0 .175781-.089844.199219-.195313l.347656-1.617187c.160156-.058594.3125-.132813.460938-.214844l1.324218.945313c.078125.078125.203125.078125.277344 0l .835938-.832032c.078124-.078124.058593-.1875 0-.28125l-.503907-.761718-.050781.019531c-.121094.042969-.253906-.003906-.320312-.113281l-.53125-.871094c-.441407 1.054688-1.480469 1.796875-2.695313 1.796875-1.613281 0-2.921875-1.308594-2.921875-2.921875 0-1.238281.769531-2.292969 1.859375-2.71875v-.582031l-.003906.019531c-.011719.003906-.023438.007812-.035157.011719-.136718.046875-.273437.101562-.40625.164062l-1.351562-.859375c-.039062-.039062-.089844-.058594-.140625-.058594zm0 0" fill="#fff"/><path d="m13.082031.00390625c4.441407-.17968725 5.023438 5.05859375 2.160157 5.05078175-.363282 0-.859376-.105469-1.59375-.78125-7.789063-5.429688-7.730469 1.574218-9.40625.464843-.917969-.96875-.925782 2.472657-2.199219 2.722657-1.128907.324218-1.964844-.734376-2.0312502-2.390626-.1953128-4.585937 2.1718752-5.007812 3.8164062-5.0624995 3.175781.0742187 6.144531-.0234375 9.253906-.00390625zm0 0" fill="url(#a)"/></svg>