<svg height="17pt" viewBox="0 0 17 17" width="17pt" xmlns="http://www.w3.org/2000/svg"><path d="m3.96875 1.007812h9.0625c1.632812 0 2.960938 1.328126 2.960938 2.960938v9.0625c0 1.632812-1.328126 2.960938-2.960938 2.960938h-9.0625c-1.632812 0-2.960938-1.328126-2.960938-2.960938v-9.0625c0-1.632812 1.328126-2.960938 2.960938-2.960938zm0 0" fill="#fecd38" fill-rule="evenodd"/><path d="m3.449219 2.839844c.40625.558594.613281 1.152344 0 2.019531-.0625.761719.203125 1.203125 1.109375 1.183594.214844-.011719.554687-.054688.734375-.222657.285156-.351562.175781-.53125.058593-.554687-.121093-.039063-.417968.144531-.132812.28125.058594.242187-.621094.214844-.746094.011719-.472656-.84375.78125-1.449219 2.210938-.898438.292968 2.300782.625 5.238282.265625 7.980469-.234375.546875-.484375.871094-1.074219 1.117187v.402344c.808594-.402344 2.832031-.402344 4.042969-.402344v-.40625c-.523438-.09375-.9375-.578124-1-1.066406-.203125-2.71875-.351563-4.710937.191406-7.425781h2.011719c.25.007813.351562.214844.414062.808594h.8125c-.285156-.671875-.40625-1.210938-.40625-2.019531-3.019531.464843-5.226562.050781-8.492187-.808594zm8.347656 6.46875c-.152344 0-.304687.015625-.453125.042968-.285156.050782-.644531.207032-.71875.488282-.066406.257812-.082031.609375.359375.710937l.148437-.027343v-.40625c.246094-.5.808594-.53125 1.144532-.15625.417968.757812-.121094 1.640624-.507813 2.210937-.382812.628906-.921875.742187-1.445312 1.179687v.40625s1.796875.109376 2.425781.402344c.089844-.367187.964844-1.074218.785156-1.425781-.238281-.304687-.785156-.191406-.785156.214844l.355469-.007813c.0625-.136718.027343-.164062.113281-.082031.050781.246094-.207031.371094-.378906.449219-.492188.042968-1.304688.042968-1.304688.023437 1.09375-1.09375 2.519532-2.425781 1.554688-3.550781-.375-.347656-.835938-.472656-1.292969-.472656zm0 0" fill="#fff"/></svg>