<svg height="17pt" viewBox="0 0 17 17" width="17pt" xmlns="http://www.w3.org/2000/svg"><path d="m3.96875 1.007812h9.0625c1.632812 0 2.960938 1.328126 2.960938 2.960938v9.0625c0 1.632812-1.328126 2.960938-2.960938 2.960938h-9.0625c-1.632812 0-2.960938-1.328126-2.960938-2.960938v-9.0625c0-1.632812 1.328126-2.960938 2.960938-2.960938zm0 0" fill="#06987e" fill-rule="evenodd"/><path d="m13.972656 8.5c0-3.023438-2.449218-5.472656-5.472656-5.472656s-5.472656 2.449218-5.472656 5.472656 2.449218 5.472656 5.472656 5.472656 5.472656-2.449218 5.472656-5.472656zm0 0" fill="#20b293"/><path d="m8.148438 4.984375v.789063c-1.160157.140624-2.097657.960937-2.382813 2.039062h.730469c.300781-.777344 1.097656-1.382812 1.964844-1.378906h.0625c.316406.003906.628906.078125.90625.214844.507812.222656.882812.660156 1.066406 1.164062h.738281c-.285156-1.074219-1.222656-1.898438-2.382813-2.035156v-.792969zm.351562 2.019531c-.859375 0-1.554688.675782-1.554688 1.511719 0 0-.011718.144531.035157.304687h2.386719c-.066407.175782-.179688.332032-.335938.4375-.363281.277344-.910156.175782-1.21875-.136718h-.738281c.242187.535156.789062.90625 1.425781.90625.859375 0 1.554688-.675782 1.554688-1.511719 0 0 0-.152344-.03125-.300781h-2.390626c.136719-.332032.457032-.597656.832032-.601563h.054687c.25.003907.492188.121094.660157.300781h.746093c-.242187-.535156-.789062-.910156-1.425781-.910156zm-2.734375 2.183594c.285156 1.078125 1.222656 1.898438 2.382813 2.039062v.789063h.703124v-.789063c1.160157-.140624 2.097657-.960937 2.382813-2.039062h-.726563c-.285156.816406-1.167968 1.40625-2.058593 1.375-.871094.003906-1.65625-.597656-1.949219-1.375zm0 0" fill="#fff"/></svg>