<svg height="17pt" viewBox="0 0 17 17" width="17pt" xmlns="http://www.w3.org/2000/svg"><path d="m3.96875 1.007812h9.0625c1.632812 0 2.960938 1.328126 2.960938 2.960938v9.0625c0 1.632812-1.328126 2.960938-2.960938 2.960938h-9.0625c-1.632812 0-2.960938-1.328126-2.960938-2.960938v-9.0625c0-1.632812 1.328126-2.960938 2.960938-2.960938zm0 0" fill="#0d69bc" fill-rule="evenodd"/><path d="m8.515625 2.605469c-.039063 0-.078125.015625-.109375.042969-.40625.394531-.820312.835937-1.195312 1.257812h-.003907c-.921875 1.066406-1.625 2.164062-2.132812 3.335938-.476563 1.09375-.753907 2.039062-1.003907 3.414062-.054687.304688-.113281.667969-.152343.960938-.015625.148437-.03125.277343-.039063.371093-.007812.050781-.007812.089844-.007812.121094v.042969c0 .011718 0 .019531.007812.035156.003906.011719 0 .042969.0625.082031.035156.019531.039063.015625.050782.015625.007812.003906.015624.003906.019531.003906.015625.003907.03125.003907.046875.007813.035156.003906.078125.003906.121094.007813.355468.019531.878906.101562 1.222656.195312.234375.0625.390625.113281.617187.207031.054688.023438.101563.042969.136719.058594.019531.007813.035156.011719.042969.015625.007812.003906.011719.003906.015625.003906v.003906h.003906.003906c.003906 0 .003906.003907.007813.003907.003906 0 .003906 0 .007812.003906-.003906 0-.007812 0-.007812-.003906.011719.007812.023437.011719.039062.019531.039063.023438.09375.046875.148438.078125.5625.292969.980469.589844 1.644531 1.183594.089844.078125.171875.148437.234375.199219.03125.027343.054687.050781.078125.066406.007812.007812.015625.011718.027344.019531.003906.003906.007812.007813.015625.011719.003906.003906.007812.003906.015625.007812.011718.003906.019531.011719.058594.015625.046874 0 .058593-.007812.066406-.011719.011718-.003906.015625-.007812.019531-.011718.007813-.003906.011719-.007813.019531-.011719.007813-.003906.019532-.011719.027344-.019531.023438-.019532.050781-.042969.085938-.070313.066406-.054687.15625-.132812.253906-.21875.550781-.484375.820312-.6875 1.203125-.925781.839843-.515625 1.589843-.742188 2.738281-.832031l.089844-.007813c.078125-.003906.132812-.0625.132812-.132812v-.050782c0-.105468-.027344-.324218-.0625-.59375-.035156-.269531-.082031-.578124-.125-.8125-.253906-1.386718-.539062-2.367187-1.019531-3.472656-.433594-1-1.050781-2.003906-1.792969-2.917968 0 0-.003906-.003907-.003906-.003907-.5-.546875-.980469-1.121093-1.507812-1.652343-.023438-.023438-.0625-.039063-.101563-.042969zm0 0" fill="#0278dc"/><path d="m8.515625 2.609375c-.039063 0-.078125.015625-.109375.042969-.34375.332031-.691406.699218-1.015625 1.0625l1.113281 6.449218 1.101563-6.441406c-.320313-.363281-.644531-.722656-.988281-1.070312-.023438-.027344-.0625-.042969-.101563-.042969zm-.011719 7.554687 3.386719-2.984374c-.230469-.523438-.519531-1.046876-.84375-1.558594zm0 0 4.191406-.601562c-.101562-.425781-.21875-.824219-.351562-1.210938zm0 0 4.480469 2.125h.015625c.074219-.007812.128906-.0625.128906-.132812v-.042969c0-.105469-.027344-.324219-.0625-.59375-.019531-.136719-.042968-.265625-.0625-.40625l-.082031-.300781zm0 0 1.640625 2.957032.089844-.03125c.3125-.1875.613281-.332032.929687-.449219zm0 0-.695312 3.695313c.082031.070313.164062.136719.253906.21875.089844.078125.171875.148437.234375.199219.03125.027344.054687.046875.078125.0625.007812.007812.015625.015625.027344.023437.003906.003907.007812.007813.015625.011719h.003906l.082031.015625.230469-.136719c.0625-.054687.140625-.121094.230469-.199218.082031-.074219.128906-.105469.203125-.167969zm0 0-2.636718 2.488282c.050781.019531.09375.035156.152343.058594.054688.023437.101563.042968.136719.058593.019531.003907.035156.011719.042969.015625.007812 0 .011719.003906.015625.003906h.003906c0 .003907 0 .003907.003906.003907s.003906 0 .007813.003906h.007812s-.003906 0-.007812 0c .011719.007813.023437.011719.039062.019531.039063.019532.09375.046875.148438.078125.148437.078125.289062.15625.425781.238281zm0 0-4.445312.585938c-.050782.285156-.101563.609375-.136719.878906-.019531.148438-.035156.277344-.042969.371094-.007812.046875-.007812.085938-.007812.117188v.039062c0 .007812 0 .015625.007812.03125.003906.015625 0 .046875.0625.082031.035156.019531.042969.015625.050782.019531.007812 0 .015624.003907.019531.003907.015625.003906.03125.003906.046875.003906.035156.003906.078125.007813.121094.011719.066406 0 .140624.007812.214843.015625zm0 0-3.847656-1.8125c-.125.371094-.238281.753907-.335938 1.160157zm0 0-2.535156-4.570312c-.308594.480469-.574219.976562-.808594 1.480469zm0 0" fill="#48a0f8" fill-rule="evenodd"/></svg>