<svg height="17pt" viewBox="0 0 17 17" width="17pt" xmlns="http://www.w3.org/2000/svg"><path d="m3.96875 1.007812h9.0625c1.632812 0 2.960938 1.328126 2.960938 2.960938v9.0625c0 1.632812-1.328126 2.960938-2.960938 2.960938h-9.0625c-1.632812 0-2.960938-1.328126-2.960938-2.960938v-9.0625c0-1.632812 1.328126-2.960938 2.960938-2.960938zm0 0" fill="#3e913a" fill-rule="evenodd"/><path d="m10.199219 12.722656c.824219-.316406 1.480469-.894531 1.851562-1.625.199219-.390625.304688-.765625.351563-1.222656.011718-.121094.011718-.488281 0-.617188-.0625-.644531-.253906-1.273437-.578125-1.886718l-.074219-.140625h-6.039062l-.074219.140625c-.324219.613281-.515625 1.242187-.578125 1.886718-.011719.128907-.011719.496094 0 .617188.046875.457031.152344.832031.351562 1.222656.371094.730469 1.035156 1.3125 1.851563 1.625l.09375.035156h2.753906zm2.570312-1.886718c.40625-.207032.753907-.464844.992188-.738282.136719-.160156.214843-.277344.292969-.433594.097656-.1875.152343-.363281.1875-.589843.015624-.101563.015624-.335938 0-.417969-.046876-.273438-.175782-.523438-.378907-.734375-.238281-.246094-.519531-.390625-.871093-.441406-.105469-.015625-.367188-.019531-.496094-.003907-.046875.003907-.089844.011719-.09375.011719s.011718.046875.042968.125c.03125.070313.070313.167969.089844.21875l.03125.09375h.152344c.164062 0 .230469.007813.339844.039063.3125.082031.566406.304687.683594.605468.050781.125.0625.226563.046874.382813-.035156.34375-.179687.644531-.449218.917969-.140625.144531-.316406.285156-.480469.386718-.03125.019532-.054687.039063-.054687.046876 0 .019531-.050782.238281-.078126.328124-.011718.046876-.039062.125-.054687.171876-.015625.046874-.027344.085937-.023437.085937 0 .003906.054687-.023437.121093-.054687zm-7.984375-.03125s-.003906-.015626-.007812-.03125c-.046875-.125-.109375-.378907-.136719-.558594-.105469-.613282-.054687-1.273438.140625-1.945313l.019531-.074219-.046875-.050781c-.074218-.074219-.105468-.117187-.15625-.203125-.074218-.121094-.113281-.21875-.1875-.46875-.0625-.214844-.089844-.296875-.132812-.382812-.074219-.164063-.183594-.261719-.324219-.300782-.042969-.011718-.09375-.015624-.539063-.015624h-.496093l-.039063.019531c-.085937.039062-.132812.117187-.132812.210937 0 .046875.003906.058594.027344.101563.019531.042969.03125.058593.074218.089843.0625.046876.085938.078126.128906.171876.070313.144531.113282.296874.289063 1.023437.15625.648437.320313 1.089844.554687 1.476563.210938.351562.464844.621093.777344.828124.089844.058594.1875.117188.1875.109376zm6.679688-4.046876c-.085938-.109374-.273438-.296874-.398438-.398437-.328125-.261719-.703125-.453125-1.132812-.578125-.125-.035156-.328125-.082031-.40625-.09375-.019532-.003906-.035156-.003906-.035156-.007812 0 0 .015624-.03125.035156-.0625.140625-.246094.160156-.546876.054687-.808594-.09375-.230469-.292969-.421875-.523437-.507813-.21875-.082031-.464844-.078125-.679688.007813-.226562.09375-.421875.292968-.507812.523437-.097656.257813-.074219.546875.0625.785157.019531.035156.035156.0625.03125.0625 0 .003906-.042969.011718-.089844.019531-.519531.09375-1.035156.316406-1.425781.617187-.160157.125-.355469.3125-.453125.441406-.007813.011719.121094.015626 2.734375.015626s2.742187-.003907 2.734375-.015626zm-2.832032-1.148437c-.082031-.015625-.164062-.0625-.226562-.125-.179688-.183594-.179688-.46875 0-.648437.183594-.183594.464844-.183594.648438 0 .179687.179687.179687.464843 0 .648437-.113282.113281-.265626.15625-.421876.125zm0 0" fill="#fff"/></svg>