<svg height="17pt" viewBox="0 0 17 17" width="17pt" xmlns="http://www.w3.org/2000/svg"><path d="m3.96875 1.007812h9.0625c1.632812 0 2.960938 1.328126 2.960938 2.960938v9.0625c0 1.632812-1.328126 2.960938-2.960938 2.960938h-9.0625c-1.632812 0-2.960938-1.328126-2.960938-2.960938v-9.0625c0-1.632812 1.328126-2.960938 2.960938-2.960938zm0 0" fill="#7d122b" fill-rule="evenodd"/><path d="m8.882812 5.628906c-2.324218 0-4.210937 1.886719-4.210937 4.210938 0 2.324218 1.886719 4.210937 4.210937 4.210937 2.324219 0 4.210938-1.886719 4.210938-4.210937 0-2.324219-1.886719-4.210938-4.210938-4.210938zm0 0" fill="#ba122b"/><path d="m8.882812 2.949219c-1.902343 0-3.445312 1.542969-3.445312 3.445312 0 1.902344 1.542969 3.445313 3.445312 3.445313 1.902344 0 3.445313-1.542969 3.445313-3.445313 0-1.902343-1.542969-3.445312-3.445313-3.445312zm0 0" fill="#e9314e"/><path d="m6.585938 4.863281c-1.480469 0-2.679688 1.199219-2.679688 2.679688s1.199219 2.679687 2.679688 2.679687c1.480468 0 2.679687-1.199218 2.679687-2.679687s-1.199219-2.679688-2.679687-2.679688zm0 0" fill="#ef6e82"/><g fill="#fff"><path d="m8.882812 6.394531c-1.902343 0-3.445312 1.542969-3.445312 3.445313s1.542969 3.445312 3.445312 3.445312c1.902344 0 3.445313-1.542968 3.445313-3.445312s-1.542969-3.445313-3.445313-3.445313zm0 .765625c1.480469 0 2.679688 1.199219 2.679688 2.679688 0 1.480468-1.199219 2.679687-2.679688 2.679687-1.480468 0-2.679687-1.199219-2.679687-2.679687 0-1.480469 1.199219-2.679688 2.679687-2.679688zm0 0"/><path d="m6.585938 5.628906c-1.058594 0-1.914063.855469-1.914063 1.914063 0 1.058593.855469 1.914062 1.914063 1.914062 1.058593 0 1.914062-.855469 1.914062-1.914062 0-1.058594-.855469-1.914063-1.914062-1.914063zm0 .765625c.632812 0 1.148437.515625 1.148437 1.148438 0 .632812-.515625 1.148437-1.148437 1.148437-.632813 0-1.148438-.515625-1.148438-1.148437 0-.632813.515625-1.148438 1.148438-1.148438zm0 0"/><path d="m8.882812 3.714844c-1.480468 0-2.679687 1.199218-2.679687 2.679687s1.199219 2.679688 2.679687 2.679688c1.480469 0 2.679688-1.199219 2.679688-2.679688s-1.199219-2.679687-2.679688-2.679687zm0 .765625c1.058594 0 1.914063.855469 1.914063 1.914062 0 1.058594-.855469 1.914063-1.914063 1.914063-1.058593 0-1.914062-.855469-1.914062-1.914063 0-1.058593.855469-1.914062 1.914062-1.914062zm0 0"/></g></svg>