<svg height="17pt" viewBox="0 0 17 17" width="17pt" xmlns="http://www.w3.org/2000/svg"><g fill-rule="evenodd"><path d="m15.992188 8.199219h-14.984376v4.796875c0 1.640625 1.320313 2.960937 2.960938 2.960937h9.0625c1.640625 0 2.960938-1.320312 2.960938-2.960937zm0 0" fill="#334d5c"/><path d="m15.992188 5.410156h-14.984376v2.789063h14.984376zm0 0" fill="#d07e34"/><path d="m3.96875.976562c-1.640625 0-2.960938 1.320313-2.960938 2.960938v1.472656h14.984376v-1.472656c0-1.640625-1.320313-2.960938-2.960938-2.960938zm0 0" fill="#808080"/><path d="m15.992188 7.789062h-14.984376v5.273438c0 1.640625 1.320313 2.960938 2.960938 2.960938h9.058594c1.644531 0 2.964844-1.320313 2.964844-2.960938zm0 0" fill="#eaad43"/><path d="m4.8125 9.566406c0 .300782-.242188.542969-.542969.542969s-.546875-.242187-.546875-.542969c0-.300781.246094-.546875.546875-.546875s.542969.246094.542969.546875zm0 0" fill="#cb7f2c"/><path d="m13.535156 9.574219c0 .300781-.242187.542969-.542968.542969-.300782 0-.546876-.242188-.546876-.542969s.246094-.546875.546876-.546875c.300781 0 .542968.246094.542968.546875zm0 0" fill="#cb7f2c"/></g><path d="m-37.335494 20.288011c.764706 11.786765 15.727941 10.669118 16.301471 0" fill="none" stroke="#fff" stroke-linecap="round" stroke-width="1.290687" transform="matrix(.53125 0 0 .53125 24.131356 -1.008475)"/><path d="m14.75 11.824219c0 1.464843-1.191406 2.65625-2.65625 2.65625-1.46875 0-2.65625-1.191407-2.65625-2.65625 0-1.46875 1.1875-2.65625 2.65625-2.65625 1.464844 0 2.65625 1.1875 2.65625 2.65625zm0 0" fill="#00b200" fill-rule="evenodd"/><g fill="#fff"><path d="m10.898438 11.964844c.042968.015625.082031.046875.121093.09375.039063.042968.082031.109375.121094.191406l.195313.390625h-.207032l-.183594-.367187c-.050781-.097657-.09375-.160157-.140624-.191407-.042969-.035156-.105469-.050781-.183594-.050781h-.210938v.609375h-.195312v-1.441406h.441406c.164062 0 .285156.035156.367188.105469.082031.066406.121093.171874.121093.3125 0 .089843-.019531.164062-.0625.222656-.042969.0625-.101562.101562-.183593.125zm-.488282-.605469v.511719h.246094c.09375 0 .164062-.019532.210938-.0625.046874-.042969.074218-.109375.074218-.191406 0-.085938-.027344-.148438-.074218-.191407-.046876-.042969-.117188-.066406-.210938-.066406zm0 0"/><path d="m11.785156 11.359375v.542969h.246094c.089844 0 .160156-.023438.210938-.070313.046874-.046875.074218-.113281.074218-.199219 0-.085937-.027344-.15625-.074218-.203124-.050782-.046876-.121094-.070313-.210938-.070313zm-.195312-.160156h.441406c.160156 0 .28125.039062.363281.113281.085938.070312.125.175781.125.320312 0 .140626-.039062.25-.125.320313-.082031.074219-.203125.109375-.363281.109375h-.246094v.578125h-.195312zm0 0"/><path d="m12.78125 11.199219h.292969l.367187.980469.371094-.980469h.289062v1.441406h-.191406v-1.265625l-.371094.988281h-.195312l-.371094-.988281v1.265625h-.191406zm0 0"/></g></svg>