<svg height="17pt" viewBox="0 0 17 17" width="17pt" xmlns="http://www.w3.org/2000/svg" xmlns:xlink="http://www.w3.org/1999/xlink"><clipPath id="a"><path d="m0 0h17v17h-17z"/></clipPath><path d="m3.96875 1.007812h9.0625c1.632812 0 2.960938 1.328126 2.960938 2.960938v9.0625c0 1.632812-1.328126 2.960938-2.960938 2.960938h-9.0625c-1.632812 0-2.960938-1.328126-2.960938-2.960938v-9.0625c0-1.632812 1.328126-2.960938 2.960938-2.960938zm0 0" fill="#7ec639" fill-rule="evenodd"/><path d="m12.90625 7.96875c-.140625-1.085938-.691406-2.074219-1.539062-2.761719-.171876.0625-.355469.105469-.550782.105469-.667968 0-1.242187-.421875-1.476562-1.011719-.214844-.03125-.429688-.050781-.648438-.050781-.566406 0-1.125.113281-1.648437.332031l.808593 1.402344c.273438-.09375.554688-.140625.839844-.140625 1.261719 0 2.347656.890625 2.601563 2.125zm0 1.0625h-1.609375c-.253906 1.238281-1.339844 2.125-2.605469 2.125-.285156 0-.566406-.046875-.839844-.140625l-.804687 1.398437c.519531.21875 1.082031.335938 1.644531.335938.21875 0 .4375-.019531.648438-.054688.238281-.585937.8125-1.007812 1.476562-1.007812.195313 0 .378906.039062.554688.105469.847656-.6875 1.394531-1.679688 1.535156-2.761719zm-1.027344-5.3125c0-.585938-.472656-1.0625-1.0625-1.0625-.585937 0-1.0625.476562-1.0625 1.0625s.476563 1.0625 1.0625 1.0625c.589844 0 1.0625-.476562 1.0625-1.0625zm0 9.5625c0-.585938-.472656-1.0625-1.0625-1.0625-.585937 0-1.0625.476562-1.0625 1.0625s.476563 1.0625 1.0625 1.0625c.589844 0 1.0625-.476562 1.0625-1.0625zm-4.945312-6.765625-.804688-1.398437c-.769531.585937-1.316406 1.410156-1.550781 2.34375.242187.28125.394531.640624.394531 1.039062 0 .394531-.152344.757812-.394531 1.035156.234375.9375.78125 1.765625 1.546875 2.347656l.808594-1.398437c-.570313-.5-.894532-1.222656-.898438-1.984375.003906-.757812.328125-1.480469.898438-1.984375zm-2.492188 1.984375c0-.585938-.472656-1.0625-1.0625-1.0625-.585937 0-1.0625.476562-1.0625 1.0625s.476563 1.0625 1.0625 1.0625c.589844 0 1.0625-.476562 1.0625-1.0625zm0 0" fill="#4d4d4d"/><g clip-path="url(#a)"><path d="m8.160156 6.375-.046875.558594c-.175781.066406-.339843.164062-.484375.285156l-.511718-.242188-.53125.921876.464843.320312c-.019531.09375-.027343.1875-.027343.28125s.007812.1875.023437.28125l-.460937.320312.53125.921876.507812-.238282c.148438.117188.3125.214844.488281.277344l.046875.5625h1.0625l.046875-.558594c.179688-.066406.34375-.164062.488281-.285156l.511719.242188.53125-.921876-.464843-.320312c.019531-.09375.027343-.1875.027343-.28125s-.007812-.1875-.023437-.28125l.460937-.320312-.53125-.921876-.507812.238282c-.148438-.117188-.3125-.214844-.492188-.277344l-.046875-.5625zm.53125 1.519531c.335938 0 .609375.269531.609375.605469s-.273437.605469-.609375.605469c-.332031 0-.605468-.269531-.605468-.605469s.273437-.605469.605468-.605469zm0 0" fill="#4d4d4d"/></g></svg>