<svg height="17pt" viewBox="0 0 17 17" width="17pt" xmlns="http://www.w3.org/2000/svg"><path d="m3.96875 1.007812h9.0625c1.632812 0 2.960938 1.328126 2.960938 2.960938v9.0625c0 1.632812-1.328126 2.960938-2.960938 2.960938h-9.0625c-1.632812 0-2.960938-1.328126-2.960938-2.960938v-9.0625c0-1.632812 1.328126-2.960938 2.960938-2.960938zm0 0" fill="#29dc47" fill-rule="evenodd"/><path d="m7.609375 12.863281c-.660156-.414062-1.199219-.769531-1.199219-.785156-.003906-.035156 2.390625-1.539063 2.445313-1.539063.019531 0 .035156.175782.035156.390626v.394531l.195313-.039063c.621093-.117187 1.269531-.535156 1.6875-1.085937.761718-1.007813.765624-2.378907.015624-3.386719-.136718-.179688-.238281-.339844-.230468-.359375.003906-.015625.234375-.234375.507812-.484375l.496094-.453125.265625.292969c.367187.398437.734375 1.171875.867187 1.816406.136719.652344.136719 1.097656 0 1.75-.335937 1.628906-1.683593 2.988281-3.28125 3.308594l-.496093.097656-.019531.421875c-.007813.234375-.03125.421875-.054688.417969-.019531-.003906-.578125-.34375-1.234375-.757813zm-2.484375-1.726562c-.550781-.699219-.921875-1.765625-.921875-2.640625 0-1.265625.683594-2.636719 1.691406-3.402344.574219-.433594 1.414063-.789062 2.027344-.851562l.167969-.019532.015625-.429687c.007812-.238281.035156-.421875.058593-.414063.121094.050782 2.433594 1.511719 2.433594 1.539063 0 .035156-2.398437 1.539062-2.453125 1.539062-.015625 0-.027343-.171875-.027343-.386719 0-.449218 0-.449218-.550782-.253906-.464844.160156-.78125.367188-1.113281.710938-.976563 1.015625-1.066406 2.554687-.21875 3.679687.125.164063.226563.3125.222656.328125-.003906.039063-.976562.910156-1.027343.925782-.023438.003906-.160157-.140626-.304688-.324219zm0 0" fill-opacity=".666667"/></svg>