<svg height="17pt" viewBox="0 0 17 17" width="17pt" xmlns="http://www.w3.org/2000/svg"><path d="m3.96875 1.007812h9.0625c1.632812 0 2.960938 1.328126 2.960938 2.960938v9.0625c0 1.632812-1.328126 2.960938-2.960938 2.960938h-9.0625c-1.632812 0-2.960938-1.328126-2.960938-2.960938v-9.0625c0-1.632812 1.328126-2.960938 2.960938-2.960938zm0 0" fill="#4f4f4f" fill-rule="evenodd"/><path d="m7.015625 13.660156c-.933594-.230468-1.734375-.710937-2.554687-1.523437-.644532-.644531-.742188-.789063-.996094-1.429688-.25-.636719-.28125-.800781-.277344-1.515625.003906-1.132812.226562-1.820312.863281-2.664062.597657-.796875.867188-1.015625 1.820313-1.484375.667968-.324219 1.097656-.453125 2.042968-.601563.382813-.058594.394532-.191406.039063-.441406-.453125-.316406-.941406-.757812-.890625-.808594.054688-.054687 1.84375.5625 2.664062.921875 1.042969.453125 2.324219 1.339844 2.914063 2.015625.230469.261719.335937.542969.210937.542969-.058593 0-.816406-.34375-1.578124-.714844-.320313-.15625-.617188-.261719-.660157-.234375-.046875.03125.007813.09375.121094.140625.109375.046875.222656.113281.242187.144531.023438.03125.203126.105469.398438.164063s.355469.136719.355469.175781c0 .039063.046875.074219.101562.074219.058594.003906.292969.09375.519531.203125l.410157.195312-.328125.09375c-.507813.140626-.730469.117188-1.671875-.203124-1.101563-.371094-2.226563-.460938-3.234375-.261719-.996094.199219-1.085938.355469-.59375 1.003906.378906.503906.765625.625 1.335937.429687.234375-.078124.480469-.109374.613281-.074218.199219.054687.203126.0625.054688.121094-.152344.054687-.148438.070312.082031.195312.167969.09375.203125.136719.101563.140625-.15625.003906-.195313.128906-.0625.210937.160156.101563.085937.222657-.09375.164063-.144532-.042969-.171875-.027344-.128906.085937.042968.109376.019531.128907-.109376.085938-.125-.039062-.167968-.011719-.167968.101562-.003906.117188-.058594.085938-.238282-.128906-.21875-.269531-.265624-.285156-1.019531-.359375-.929687-.089843-1.175781-.179687-1.457031-.511719l-.207031-.25-.222657.488282c-.289062.640625-.359374 1.589844-.15625 2.195312.449219 1.371094 1.402344 1.957032 2.375 1.457032.660157-.339844.847657-.96875.457032-1.53125-.226563-.328126-.226563-.691407 0-.503907.132812.113281.21875.042969.222656-.191406.007812-.15625.015625-.152344.09375.035156l.085938.210938.125-.191407c.160156-.234374.273437-.246093.214843-.019531-.046875.191407.054688.21875.21875.0625.089844-.085937.101563-.070312.050781.09375-.050781.175781-.039062.191407.136719.140625.167969-.046875.15625-.019531-.085937.1875l-.28125.242188.0625.925781.058594.925781-.253907.214844c-.253906.214844-.253906.21875-.066406.265625.273437.070313 1.4375-.078125 1.929687-.242187.828126-.277344 1.8125-1.027344 2.214844-1.6875.511719-.832032.796875-2.449219.550782-3.125-.105469-.289063-.109376-.359376-.019532-.359376.226563 0 .460938.921876.464844 1.8125.003906 1.101563-.394531 2.128907-1.171875 3.003907-1.214844 1.375-3.679687 2.066406-5.625 1.585937zm0 0" fill="#fecd38"/></svg>