<svg height="17pt" viewBox="0 0 17 17" width="17pt" xmlns="http://www.w3.org/2000/svg"><path d="m3.96875 1.007812h9.0625c1.632812 0 2.960938 1.328126 2.960938 2.960938v9.0625c0 1.632812-1.328126 2.960938-2.960938 2.960938h-9.0625c-1.632812 0-2.960938-1.328126-2.960938-2.960938v-9.0625c0-1.632812 1.328126-2.960938 2.960938-2.960938zm0 0" fill="#6672a5" fill-rule="evenodd"/><path d="m6.621094 4.074219h5.777344c.757812 0 1.375.613281 1.375 1.371093v3.636719c0 .757813-.617188 1.371094-1.375 1.371094h-5.777344c-.757813 0-1.375-.613281-1.375-1.371094v-3.636719c0-.757812.617187-1.371093 1.375-1.371093zm0 0" fill="#474777"/><path d="m6.671875 4.476562h5.675781c.574219 0 1.039063.449219 1.039063 1v3.578126c0 .550781-.464844.996093-1.039063.996093h-5.675781c-.574219 0-1.039063-.445312-1.039063-.996093v-3.578126c0-.550781.464844-1 1.039063-1zm0 0" fill="#00234b"/><path d="m4.601562 6.546875h5.777344c.757813 0 1.375.613281 1.375 1.371094v3.636719c0 .757812-.617187 1.371093-1.375 1.371093h-5.777344c-.757812 0-1.375-.613281-1.375-1.371093v-3.636719c0-.757813.617188-1.371094 1.375-1.371094zm0 0" fill="#4b4c7d"/><path d="m4.652344 6.949219h5.675781c.574219 0 1.039063.445312 1.039063.996093v3.578126c0 .550781-.464844 1-1.039063 1h-5.675781c-.574219 0-1.039063-.449219-1.039063-1v-3.578126c0-.550781.464844-.996093 1.039063-.996093zm0 0" fill="#00234b"/></svg>