<svg height="17pt" viewBox="0 0 17 17" width="17pt" xmlns="http://www.w3.org/2000/svg"><path d="m3.96875 1.007812h9.0625c1.632812 0 2.960938 1.328126 2.960938 2.960938v9.0625c0 1.632812-1.328126 2.960938-2.960938 2.960938h-9.0625c-1.632812 0-2.960938-1.328126-2.960938-2.960938v-9.0625c0-1.632812 1.328126-2.960938 2.960938-2.960938zm0 0" fill="#ccc" fill-rule="evenodd"/><path d="m4.78125 4.78125c-.589844 0-1.0625.472656-1.0625 1.0625l4.78125 2.65625 4.78125-2.65625c0-.589844-.472656-1.0625-1.0625-1.0625zm0 .53125h7.4375c.199219 0 .339844.121094.429688.273438l-4.148438 2.304687-4.148438-2.304687c.089844-.152344.226563-.273438.429688-.273438zm-1.0625 1.0625v4.78125c0 .589844.472656 1.0625 1.0625 1.0625h7.4375c.589844 0 1.0625-.472656 1.0625-1.0625v-4.78125l-4.78125 2.65625zm.53125.902344 3.992188 2.21875c.160156.089844.355468.089844.515624 0l3.992188-2.21875v3.878906c0 .304688-.226562.53125-.53125.53125h-7.4375c-.304688 0-.53125-.226562-.53125-.53125zm0 0" fill="#ef3939"/></svg>