<svg height="17pt" viewBox="0 0 17 17" width="17pt" xmlns="http://www.w3.org/2000/svg"><path d="m3.96875 1.007812h9.0625c1.632812 0 2.960938 1.328126 2.960938 2.960938v9.0625c0 1.632812-1.328126 2.960938-2.960938 2.960938h-9.0625c-1.632812 0-2.960938-1.328126-2.960938-2.960938v-9.0625c0-1.632812 1.328126-2.960938 2.960938-2.960938zm0 0" fill="#fb7a24" fill-rule="evenodd"/><path d="m5.84375 3.1875c-1.46875 0-2.65625 1.1875-2.65625 2.65625s1.1875 2.65625 2.65625 2.65625c-1.46875 0-2.65625 1.1875-2.65625 2.65625s1.1875 2.65625 2.65625 2.65625 2.65625-1.1875 2.65625-2.65625c0-.0625-.003906-.121094-.007812-.179688h.007812.007812c-.003906.058594-.007812.121094-.007812.179688 0 1.46875 1.1875 2.65625 2.65625 2.65625s2.65625-1.1875 2.65625-2.65625-1.1875-2.65625-2.65625-2.65625c-.003906 0-.007812 0-.007812 0h .007812c1.46875 0 2.65625-1.1875 2.65625-2.65625s-1.1875-2.65625-2.65625-2.65625c-1.398438 0-2.554688 1.082031-2.648438 2.476562-.003906 0-.003906 0-.007812 0s-.007812 0-.007812 0c-.097657-1.394531-1.253907-2.472656-2.648438-2.476562zm5.308594 1.582031c.359375-.003906.699218.175781.898437.476563.199219.304687.230469.683594.082031 1.015625-.3125.726562-.582031 1.464843-1.117187 2.132812-.539063.664063-1.457031 1.167969-2.515625 1.167969-.636719 0-.628906.027344-.800781.230469s-.453125.8125-.882813 1.789062c-.144531.359375-.472656.609375-.855468.65625-.386719.046875-.761719-.121093-.988282-.433593-.226562-.3125-.265625-.722657-.101562-1.074219.414062-.949219.660156-1.667969 1.210937-2.3125.546875-.644531 1.460938-.980469 2.417969-.980469.535156 0 .625-.085938.859375-.375.234375-.292969.496094-.882812.820313-1.636719.164062-.394531.546874-.652343.972656-.65625zm-5.308594.011719c.585938 0 1.0625.476562 1.0625 1.0625s-.476562 1.0625-1.0625 1.0625-1.0625-.476562-1.0625-1.0625.476562-1.0625 1.0625-1.0625zm5.3125 5.3125c.585938 0 1.0625.476562 1.0625 1.0625s-.476562 1.0625-1.0625 1.0625-1.0625-.476562-1.0625-1.0625.476562-1.0625 1.0625-1.0625zm0 0" fill="#fff"/></svg>