<svg height="17pt" viewBox="0 0 17 17" width="17pt" xmlns="http://www.w3.org/2000/svg"><path d="m3.96875 1.007812h9.0625c1.632812 0 2.960938 1.328126 2.960938 2.960938v9.0625c0 1.632812-1.328126 2.960938-2.960938 2.960938h-9.0625c-1.632812 0-2.960938-1.328126-2.960938-2.960938v-9.0625c0-1.632812 1.328126-2.960938 2.960938-2.960938zm0 0" fill="#ab47bc" fill-rule="evenodd"/><path d="m7.5 9.5c4.5 0 4.5 6.5 8.5 6.5s4-6.5 8.5-6.5" fill="none" stroke="#fff" stroke-linecap="round" transform="scale(.53125)"/><path d="m7.5 22.5c4.5 0 4.5-6.5 8.5-6.5s4 6.5 8.5 6.5" fill="none" stroke="#fff" stroke-linecap="round" transform="scale(.53125)"/></svg>