<svg height="17pt" viewBox="0 0 17 17" width="17pt" xmlns="http://www.w3.org/2000/svg"><g fill-rule="evenodd"><path d="m8.507812 4.480469c-.09375 0-.191406.003906-.285156.007812-.132812.011719-.265625.027344-.398437.050781-.132813.019532-.261719.050782-.390625.085938s-.257813.078125-.382813.128906c-.125.046875-.246093.101563-.367187.164063-.121094.058593-.234375.125-.347656.199219-.113282.070312-.222657.148437-.328126.234374-.105468.082032-.207031.171876-.300781.265626-.097656.09375-.1875.191406-.273437.292968-.085938.101563-.167969.210938-.242188.320313-.078125.109375-.148437.222656-.210937.339843-.066407.121094-.125.242188-.175781.363282-.050782.125-.097657.25-.136719.378906-.039063.128906-.074219.257812-.101563.386719-.027344.132812-.046875.265625-.058594.398437-.015624.132813-.019531.269532-.019531.402344 0 .09375.003907.191406.007813.285156.011718.132813.027344.265625.050781.398438.019531.132812.050781.261718.085937.390625.035157.128906.078126.257812.128907.382812.046875.125.101562.246094.164062.367188.058594.121093.125.234375.199219.347656.070312.113281.148438.222656.234375.328125.082031.105469.171875.207031.265625.300781.09375.097657.191406.1875.292969.273438.101562.085937.210937.167969.320312.242187.109375.078125.222657.148438.339844.210938.121094.066406.242187.125.363281.175781.125.050781.25.097656.378906.136719.128907.042968.257813.074218.386719.101562.132813.027344.265625.046875.398438.058594.132812.015625.269531.019531.402343.019531.09375 0 .191407-.003906.285157-.007812.132812-.011719.265625-.027344.398437-.050781.132813-.019532.261719-.050782.390625-.085938.128907-.035156.257813-.078125.382813-.128906.125-.046875.246094-.101563.367187-.164063.121094-.058593.234375-.125.347657-.199219.113281-.070312.222656-.148437.328124-.234374.105469-.082032.207032-.171876.300782-.265626.097656-.09375.1875-.191406.273437-.292968.085938-.101563.167969-.210938.242188-.320313.078125-.109375.148437-.222656.210937-.339843.066406-.121094.125-.242188.175782-.363282.050781-.125.097656-.25.136718-.378906.042969-.128906.074219-.257812.101563-.386719.027343-.132812.046875-.265625.058593-.398437.015626-.132813.019532-.269532.019532-.402344 0-.09375-.003906-.191406-.007813-.285156-.011719-.132813-.027343-.265625-.050781-.398438-.019531-.132812-.050781-.261718-.085938-.390625-.035156-.128906-.078124-.257812-.128906-.382812-.046875-.125-.101562-.246094-.164062-.367188-.058594-.121093-.125-.234375-.199219-.347656-.070313-.113281-.148437-.222656-.234375-.328125-.082031-.105469-.171875-.207031-.265625-.300781-.09375-.097657-.191406-.1875-.292969-.273438-.101562-.085937-.210937-.167969-.320312-.242187-.109375-.078125-.222656-.148438-.339844-.210938-.121094-.066406-.242188-.125-.363281-.175781-.125-.050781-.25-.097656-.378907-.136719-.128906-.039062-.257812-.074218-.386718-.101562-.132813-.027344-.265625-.046875-.398438-.058594-.132812-.015625-.269531-.019531-.402344-.019531zm0 0" fill="#8e8e8e"/><path d="m12.136719 10.21875c0-.003906.003906-.003906.007812-.003906 0-.007813 0-.011719.003907-.015625-.003907.003906-.007813.011719-.011719.019531zm0 0" fill="#8e8e8e"/><path d="m2.222656 15.355469c.375.15625.746094.324219 1.140625.421875.570313.136718 1.152344.203125 1.742188.203125.5 0 .988281-.046875 1.460937-.140625.46875-.09375.925782-.230469 1.363282-.410156.867187-.355469 1.65625-.867188 2.324218-1.507813.671875-.636719 1.222656-1.398437 1.621094-2.246094.199219-.421875.355469-.867187.472656-1.332031.117188-.460938.195313-.941406.21875-1.433594-.011718.128906-.082031.222656-.109375.34375-.003906.015625-.003906.03125-.007812.046875-.027344.128907-.058594.257813-.101563.386719-.039062.128906-.085937.253906-.136718.378906-.019532.042969-.042969.085938-.0625.132813-.003907.003906-.003907.007812-.007813.015625 0 0 0 0-.003906.003906-.03125.070312-.0625.140625-.101563.210938-.0625.117187-.132812.230468-.210937.339843-.074219.109375-.15625.21875-.242188.320313-.085937.101562-.175781.199218-.273437.292968-.09375.09375-.195313.183594-.300782.265626-.105468.085937-.214843.164062-.328124.234374-.113282.074219-.226563.140626-.347657.199219-.121093.0625-.242187.117188-.367187.164063-.125.050781-.253906.09375-.382813.128906-.128906.035156-.257812.066406-.390625.085938-.132812.023437-.265625.039062-.398437.050781-.042969 0-.082031.003906-.125.003906.007812.007813-.234375.066406-.160157.066406-.515624 0-1.019531-.054687-1.507812-.152343-.488281-.101563-.957031-.246094-1.40625-.4375-.445312-.1875-.871094-.417969-1.269531-.6875-.398438-.269532-.769531-.578126-1.105469-.914063-.339844-.339844-.644531-.710937-.914062-1.109375-.269532-.398438-.5-.824219-.691407-1.269531-.1875-.449219-.335937-.917969-.433593-1.402344-.101563-.488281-.152344-.992187-.152344-1.511719 0-.589844.066406-1.171875.203125-1.742187.097656-.394531.265625-.765625.421875-1.140625-.375.496094-.636719 1.082031-.636719 1.753906v9.0625c0 .96875.492187 1.785156 1.207031 2.324219zm0 0" fill="#ff5757"/><path d="m10.226562 4.871094c-.003906 0-.003906-.003906-.003906-.003906-.007812-.003907-.011718-.003907-.015625-.007813.003907.003906.011719.007813.019531.011719zm0 0" fill="#8e8e8e"/><path d="m1.652344 2.214844c-.191406.253906-.445313.648437-.558594 1.066406-.15625.585938-.070312 1.226562-.066406 1.816406 0 .519532.050781 1.023438.152344 1.511719.097656.484375.246093.953125.433593 1.402344.191407.445312.421875.871093.691407 1.269531.269531.398438.574218.769531.914062 1.109375.335938.335937.707031.644531 1.105469.914063.398437.269531.824219.5 1.269531.6875.449219.191406.917969.335937 1.40625.4375.488281.097656.992188.152343 1.507812.152343-.074218 0 .167969-.058593.160157-.066406-.054688.003906-.105469.003906-.160157.003906-.132812 0-.269531-.003906-.402343-.019531-.132813-.011719-.265625-.03125-.398438-.058594-.128906-.027344-.257812-.058594-.386719-.101562-.128906-.039063-.253906-.085938-.378906-.136719-.121094-.050781-.242187-.109375-.363281-.175781-.117187-.0625-.230469-.132813-.339844-.210938-.109375-.074218-.21875-.15625-.320312-.242187-.101563-.085938-.199219-.175781-.292969-.273438-.09375-.09375-.183594-.195312-.265625-.300781-.085937-.105469-.164063-.214844-.234375-.328125-.074219-.113281-.140625-.226563-.199219-.347656-.0625-.121094-.117187-.242188-.164062-.367188-.050781-.125-.09375-.253906-.128907-.382812-.035156-.128907-.066406-.257813-.085937-.390625-.023437-.132813-.039063-.265625-.050781-.398438-.003906-.09375-.007813-.191406-.007813-.285156 0-.074219.003907-.152344.011719-.226562-.027344-.0625-.058594-.121094-.054688-.179688 0-.003906.003907-.003906.003907-.007812.027343-.492188.101562-.972657.21875-1.433594.117187-.460938.277343-.90625.476562-1.332032.394531-.847656.949219-1.609374 1.617188-2.246093s1.457031-1.152344 2.328125-1.503907c.433594-.179687.890625-.316406 1.359375-.410156.472656-.09375.960937-.140625 1.460937-.140625.59375 0 1.191406.015625 1.746094.148438.402344.09375.757812.316406 1.132812.472656-.496093-.371094-1.082031-.632813-1.75-.632813h-9.0625c-.96875 0-1.785156.492188-2.324218 1.207032zm0 0" fill="#baff41"/><path d="m15.363281 14.785156c.25-.367187.449219-.707031.542969-1.101562.132812-.570313.082031-1.191406.082031-1.78125 0-.5-.046875-.988282-.140625-1.460938-.09375-.46875-.230468-.925781-.410156-1.363281-.355469-.867187-.867188-1.65625-1.507812-2.324219-.636719-.671875-1.398438-1.222656-2.246094-1.617187-.421875-.199219-.867188-.359375-1.332032-.476563-.460937-.117187-.941406-.195312-1.433593-.21875.128906.011719.222656.082032.34375.109375.015625.003907.03125.007813.046875.007813.128906.027344.257812.0625.386718.101562.128907.039063.253907.085938.378907.136719.042969.019531.085937.042969.132812.0625.003907.003906.007813.003906.015625.007813 0 0 0 .003906.003906.003906.070313.03125.140626.066406.210938.101562.117188.0625.230469.132813.339844.210938.109375.074218.21875.15625.320312.242187.101563.085938.203125.175781.292969.273438.09375.09375.183594.195312.265625.300781.085938.105469.164062.214844.234375.328125.074219.113281.140625.226563.199219.347656.0625.121094.117187.242188.164062.367188.050782.125.09375.253906.128906.382812.035157.128907.066407.257813.085938.390625.023438.132813.039062.265625.050781.398438.003907.09375.007813.191406.007813.285156 0 .132812-.003906.269531-.019532.402344-.011718.117187-.027343.234375-.050781.351562.027344-.121094.097657-.214844.109375-.34375-.023437.492188-.101562.972656-.21875 1.433594-.117187.464844-.273437.910156-.472656 1.332031-.398438.847657-.949219 1.609375-1.621094 2.246094-.667968.640625-1.457031 1.152344-2.324218 1.507813-.4375.179687-.894532.316406-1.363282.410156-.472656.09375-.960937.140625-1.460937.140625-.589844 0-1.171875-.066407-1.742188-.203125-.394531-.097656-.765625-.265625-1.140625-.421875.496094.375 1.082032.636719 1.753906.636719h9.0625c.96875 0 1.785157-.492188 2.324219-1.207032zm0 0" fill="#ff8514"/><path d="m11.910156 1.019531c-.5 0-.988281.046875-1.460937.140625-.46875.09375-.925781.230469-1.359375.410156-.871094.351563-1.660156.867188-2.328125 1.503907s-1.222657 1.398437-1.617188 2.246093c-.199219.425782-.359375.871094-.476562 1.332032-.117188.460937-.191407.941406-.21875 1.433594 0 .003906-.003907.003906-.003907.007812-.003906.058594.027344.117188.054688.179688 0-.058594.003906-.117188.007812-.175782.011719-.132812.03125-.265625.058594-.398437.027344-.128907.0625-.257813.101563-.386719.039062-.128906.085937-.253906.136719-.378906.050781-.121094.109374-.242188.175781-.363282.0625-.117187.132812-.230468.210937-.339843.074219-.109375.15625-.21875.242188-.320313.085937-.101562.175781-.199218.273437-.292968.09375-.09375.195313-.183594.300781-.265626.105469-.085937.214844-.164062.328126-.234374.113281-.074219.226562-.140626.347656-.199219.121094-.0625.242187-.117188.367187-.164063.125-.050781.253907-.09375.382813-.128906s.257812-.066406.390625-.085938c.132812-.023437.265625-.039062.398437-.050781.09375-.003906.191406-.007812.285156-.007812.132813 0 .269532.003906.402344.019531.117188.011719.234375.027344.351563.050781-.121094-.027343-.214844-.097656-.34375-.109375.492187.023438.972656.101563 1.433593.21875.464844.117188.910157.277344 1.332032.476563.847656.394531 1.609375.945312 2.246094 1.617187.640624.667969 1.152343 1.457032 1.507812 2.324219.179688.4375.316406.894531.410156 1.363281.09375.472656.140625.960938.140625 1.460938 0 .589844-.066406 1.171875-.203125 1.742187-.097656.394531-.265625.765625-.421875 1.140625.375-.496094.636719-1.082031.636719-1.753906v-9.0625c0-.96875-.492188-1.785156-1.210938-2.328125-.273437-.195313-.824218-.550781-1.347656-.601563-.566406-.054687-.9375-.019531-1.53125-.019531zm0 0" fill="#ffc42e"/></g></svg>