<svg height="17pt" viewBox="0 0 17 17" width="17pt" xmlns="http://www.w3.org/2000/svg"><path d="m3.96875 1.007812h9.0625c1.632812 0 2.960938 1.328126 2.960938 2.960938v9.0625c0 1.632812-1.328126 2.960938-2.960938 2.960938h-9.0625c-1.632812 0-2.960938-1.328126-2.960938-2.960938v-9.0625c0-1.632812 1.328126-2.960938 2.960938-2.960938zm0 0" fill="#a81717" fill-rule="evenodd"/><path d="m8.511719 2.851562c-.101563-.003906-.207031.023438-.296875.078126l-4.269532 2.53125c-.179687.105468-.285156.296874-.285156.507812v5.0625c0 .210938.105469.402344.285156.507812l4.269532 2.53125c.175781.105469.394531.105469.570312 0l4.269532-2.53125c.179687-.105468.285156-.296874.285156-.507812v-5.0625c0-.210938-.105469-.402344-.285156-.507812l-4.269532-2.53125c-.082031-.046876-.175781-.074219-.273437-.078126zm0 0" fill="#ccc"/><path d="m-37.755418 3.090557h8.352942l-8.352942 9.94853h8.352942" fill="none" stroke="#a81717" stroke-linecap="square" stroke-linejoin="round" stroke-width="3" transform="matrix(.53125 0 0 .53125 26.338816 4.194079)"/></svg>