<svg height="12pt" viewBox="0 0 12 12" width="12pt" xmlns="http://www.w3.org/2000/svg"><path d="m6 2.183594c-1.808594 0-3.273438 1.464844-3.273438 3.269531 0 1.140625.585938 2.140625 1.464844 2.730469h-.375c-1.089844 0-1.089844 1.089844-1.089844 1.089844v.542968h6.546876v-.542968s0-1.089844-1.089844-1.089844h-.375c.878906-.589844 1.464844-1.589844 1.464844-2.730469 0-1.804687-1.464844-3.269531-3.273438-3.269531zm0 2.183594c.601562 0 1.089844.488281 1.089844 1.089843 0 .601563-.488282 1.089844-1.089844 1.089844s-1.089844-.488281-1.089844-1.089844c0-.601562.488282-1.089843 1.089844-1.089843zm0 0" fill="#d3dae3"/></svg>