<svg height="12pt" viewBox="0 0 12 12" width="12pt" xmlns="http://www.w3.org/2000/svg"><path d="m2.726562 2.722656v1.089844h1.089844v-1.089844zm2.726563 0v1.089844h1.09375v-1.089844zm2.730469 0v1.089844h1.089844v-1.089844zm-4.367188 1.636719v1.089844h1.09375v-1.089844zm3.273438 0v1.089844h1.09375v-1.089844zm-4.363282 1.636719v3.277344c0 .542968.546876.542968.546876.542968h5.453124s.546876 0 .546876-.542968v-3.269532h-1.089844v2.722656h-4.367188v-2.730468zm4.363282 0-1.636719 1.636718-.542969-.546874-.546875.546874.546875.542969.542969.546875 2.183594-2.183594zm0 0" fill="#d3dae3"/></svg>