<svg height="12pt" viewBox="0 0 12 12" width="12pt" xmlns="http://www.w3.org/2000/svg"><path d="m2.183594 2.183594v7.632812h7.632812v-7.632812zm1.089844 1.089844h5.453124v5.453124h-5.453124zm.554687.542968c-.003906 0-.011719.007813-.011719.011719v.523437c0 .007813.007813.011719.011719.011719h4.34375c.003906 0 .011719-.003906.011719-.011719v-.523437c0-.003906-.007813-.011719-.011719-.011719zm0 1.636719c-.003906 0-.011719.007813-.011719.011719v.523437c0 .007813.007813.011719.011719.011719h4.34375c.003906 0 .011719-.003906.011719-.011719v-.523437c0-.003906-.007813-.011719-.011719-.011719zm0 1.527344c-.003906 0-.011719.007812-.011719.011719v.523437c0 .007813.007813.011719.011719.011719h4.34375c.003906 0 .011719-.003906.011719-.011719v-.523437c0-.003907-.007813-.011719-.011719-.011719zm0 0" fill="#d3dae3"/></svg>