<svg height="12pt" viewBox="0 0 12 12" width="12pt" xmlns="http://www.w3.org/2000/svg"><path d="m4.910156 1.636719v1.089843c-1.808594 0-3.273437 1.464844-3.273437 3.273438 0 1.429688.917969 2.644531 2.195312 3.089844v-1.203125c-.65625-.375-1.105469-1.074219-1.105469-1.886719 0-1.203125.976563-2.183594 2.183594-2.183594v1.09375l2.179688-1.636718zm2.726563 1.28125v1.203125c.648437.378906 1.089843 1.074218 1.089843 1.878906 0 1.203125-.976562 2.183594-2.179687 2.183594v-1.09375l-2.183594 1.636718 2.183594 1.636719v-1.089843c1.804687 0 3.269531-1.464844 3.269531-3.273438 0-1.425781-.910156-2.632812-2.179687-3.082031zm0 0" fill="#d3dae3"/></svg>