<svg height="12pt" viewBox="0 0 12 12" width="12pt" xmlns="http://www.w3.org/2000/svg"><path d="m2.183594 1.636719v1.089843h-.273438c-.363281 0-.363281.546876 0 .546876h.273438v1.089843h2.179687v-2.726562zm4.90625 0v2.726562h2.183594v-1.089843h.277343c.367188.003906.367188-.550782 0-.546876h-.277343v-1.089843zm-1.636719 2.742187v1.089844h-1.089844l1.363281 1.636719 1.363282-1.636719h-1.089844v-1.089844zm-3.269531 3.257813v1.089843h-.273438c-.363281 0-.363281.546876 0 .546876h.273438v1.089843h2.179687v-1.089843h2.726563v1.089843h2.183594v-1.089843h.277343c.367188.003906.367188-.550782 0-.546876h-.277343v-1.089843h-2.183594v1.089843h-2.726563v-1.089843zm0 0" fill="#d3dae3"/></svg>