<svg height="12pt" viewBox="0 0 12 12" width="12pt" xmlns="http://www.w3.org/2000/svg"><path d="m3.273438 2.183594c-.605469 0-1.089844.484375-1.089844 1.089844v1.089843h1.089844v-1.089843h1.089843v-1.089844zm4.363281 0v1.089844h1.089843v1.089843h1.089844v-1.089843c0-.605469-.484375-1.089844-1.089844-1.089844zm-2.726563 1.632812c-.605468 0-1.09375.488282-1.09375 1.09375 0 .601563.488282 1.089844 1.09375 1.089844.601563 0 1.089844-.488281 1.089844-1.089844 0-.605468-.488281-1.09375-1.089844-1.09375zm1.636719 0v2.183594h1.636719v-2.183594zm-2.183594 2.730469v1.636719h1.089844v-1.636719zm3 0-.816406 1.636719h1.636719zm-5.179687 1.089844v1.089843c0 .605469.484375 1.089844 1.089844 1.089844h1.089843v-1.089844h-1.089843v-1.089843zm6.542968 0v1.089843h-1.089843v1.089844h1.089843c.605469 0 1.089844-.484375 1.089844-1.089844v-1.089843zm0 0" fill="#d3dae3"/></svg>