<svg height="12pt" viewBox="0 0 12 12" width="12pt" xmlns="http://www.w3.org/2000/svg"><path d="m4.363281 1.636719c-1.511719 0-2.726562 1.214843-2.726562 2.726562s1.214843 2.726563 2.726562 2.726563h1.089844v-1.089844h-1.089844c-.90625 0-1.636719-.730469-1.636719-1.636719s.730469-1.636719 1.636719-1.636719h1.089844v-1.089843zm2.183594 0v1.089843h1.089844c.90625 0 1.636719.730469 1.636719 1.636719s-.730469 1.636719-1.636719 1.636719h-1.089844v1.089844h1.089844c1.511719 0 2.726562-1.214844 2.726562-2.726563s-1.214843-2.726562-2.726562-2.726562zm-2.183594 2.179687v1.09375h3.273438v-1.09375zm4.042969 3.847656-.769531.769532.578125.582031-.578125.578125.769531.769531.578125-.578125.582031.578125.769532-.769531-.578126-.578125.578126-.582031-.769532-.769532-.582031.578126zm0 0" fill="#d3dae3"/></svg>