<svg height="12pt" viewBox="0 0 12 12" width="12pt" xmlns="http://www.w3.org/2000/svg"><path d="m3.273438 2.183594c-1.226563 0-1.089844 1.089844-1.089844 1.089844v2.179687h1.089844v-2.179687h5.453124v2.179687h1.089844v-2.179687c0-1.089844-1.089844-1.089844-1.089844-1.089844zm.542968 1.632812v1.09375h1.09375v-1.09375zm1.636719 0v1.09375h1.09375v-1.09375zm1.636719 0v1.09375h1.09375v-1.09375zm-3.816406 2.730469v1.089844h-1.089844v1.089843h1.089844v1.089844h1.089843v-1.089844h1.089844v-1.089843h-1.089844v-1.089844zm3.273437 0c-.304687 0-.546875.289063-.546875.652344v1.964843c0 .363282.242188.652344.546875.652344h2.726563c.300781 0 .542968-.289062.542968-.652344v-1.964843c0-.363281-.242187-.652344-.542968-.652344zm0 0" fill="#d3dae3"/></svg>