<svg height="12pt" viewBox="0 0 12 12" width="12pt" xmlns="http://www.w3.org/2000/svg"><path d="m5.183594 2.183594c-.4375 0-.820313.351562-.820313.789062v.84375h-1.65625c-.289062 0-.523437.179688-.523437.472656v1.710938h.789062c.4375 0 .84375.378906.84375.816406s-.40625.820313-.84375.820313h-.789062v1.652343c0 .292969.234375.527344.523437.527344h1.65625v-.527344c0-.4375.011719-1.085937.820313-1.105468.808594-.023438.816406.703125.816406 1.105468v.527344h1.710938c.292968 0 .472656-.234375.472656-.527344v-1.652343h.84375c.4375 0 .789062-.382813.789062-.820313s-.355468-.75-.789062-.816406h-.84375v-1.710938c0-.292968-.179688-.472656-.472656-.472656h-1.710938v-.84375c0-.4375-.378906-.789062-.816406-.789062zm0 0" fill="#d3dae3"/></svg>