<svg height="12pt" viewBox="0 0 12 12" width="12pt" xmlns="http://www.w3.org/2000/svg"><path d="m8.183594 1.636719c-.90625 0-1.636719.730469-1.636719 1.636719 0 .125.023437.238281.050781.355468l-1.757812 1.09375c-.277344-.226562-.636719-.359375-1.023438-.359375-.902344 0-1.632812.734375-1.632812 1.636719s.730468 1.636719 1.632812 1.636719c.386719 0 .746094-.132813 1.023438-.359375l1.757812 1.09375c-.027344.117187-.050781.230468-.050781.355468 0 .90625.730469 1.636719 1.636719 1.636719.902344 0 1.632812-.730469 1.632812-1.636719 0-.902343-.730468-1.636718-1.632812-1.636718-.386719 0-.746094.132812-1.023438.359375l-1.757812-1.089844c.027344-.121094.050781-.234375.050781-.359375s-.023437-.238281-.050781-.359375l1.757812-1.089844c.277344.226563.636719.359375 1.023438.359375.902344 0 1.632812-.734375 1.632812-1.636718 0-.90625-.730468-1.636719-1.632812-1.636719zm0 0" fill="#d3dae3"/></svg>