<svg height="12pt" viewBox="0 0 12 12" width="12pt" xmlns="http://www.w3.org/2000/svg"><path d="m6.972656 2.175781c-.097656-.007812-.195312-.003906-.292968.007813-.960938.199218-1.425782 1.246094-1.722657 2.152344-.257812.824218-.503906 1.832031-1.332031 2.191406-.359375.140625-1.050781.199218-1.433594.136718l-.007812 3.121094 7.632812.023438v-3.121094c-.988281.15625-2.101562.132812-2.917968-.535156-.71875-.617188-.953126-1.859375-.433594-2.679688.515625-.613281 1.585937-.359375 1.921875.328125.28125.144531.1875-.277343.140625-.441406-.195313-.6875-.867188-1.140625-1.554688-1.183594zm0 0" fill="#d3dae3"/></svg>