<svg height="12pt" viewBox="0 0 12 12" width="12pt" xmlns="http://www.w3.org/2000/svg"><path d="m3.921875 2.21875-.707031.410156.183594.390625c-.09375.109375-.167969.238281-.21875.375l-.429688.035157v.820312l.429688.035156c.027343.066406.058593.132813.09375.199219.035156.0625.078124.121094.125.175781l-.183594.390625.707031.410157.246094-.355469c.144531.023437.289062.023437.433593 0l .246094.355469.710938-.40625-.183594-.394532c.09375-.113281.164062-.238281.214844-.375l.433594-.035156v-.820312l-.433594-.035157c-.023438-.066406-.054688-.132812-.089844-.199219-.039062-.0625-.078125-.121093-.125-.175781l.183594-.390625-.710938-.410156-.246094.355469c-.140624-.027344-.289062-.023438-.433593 0zm .453125 1.152344c.171875-.003906.332031.085937.414062.234375.128907.222656.054688.511719-.167968.640625-.226563.128906-.511719.050781-.640625-.171875-.0625-.109375-.078125-.234375-.046875-.355469s.109375-.222656.21875-.285156c.066406-.039063.144531-.058594.222656-.0625zm1.492188 1.535156-.058594.71875c-.226563.082031-.4375.207031-.625.359375l-.652344-.304687-.683594 1.179687.59375.410156c-.023437.121094-.03125.242188-.03125.363281 0 .121094.007813.242188.027344.363282l-.589844.410156.683594 1.179688.648438-.304688c.1875.152344.402343.277344.628906.359375l.058594.71875h1.367187l.058594-.71875c.226562-.082031.4375-.207031.625-.363281l.652343.308594.683594-1.179688-.59375-.410156c.023438-.121094.035156-.242188.035156-.363282 0-.121093-.011718-.242187-.03125-.363281l.589844-.410156-.683594-1.179687-.648437.304687c-.1875-.152344-.402344-.277344-.628906-.359375l-.058594-.71875zm.683593 1.945312c.429688 0 .78125.351563.78125.78125 0 .207032-.082031.40625-.230469.550782-.144531.144531-.34375.226562-.550781.226562-.429687 0-.777343-.347656-.777343-.777344 0-.429687.347656-.777343.777343-.78125zm0 0" fill="#d3dae3"/></svg>