<svg height="12pt" viewBox="0 0 12 12" width="12pt" xmlns="http://www.w3.org/2000/svg"><path d="m7.105469 2.183594c-.078125 0-.164063.007812-.25.019531-.308594.042969-.679688.191406-1.097657.414063-.839843-.464844-1.496093-.492188-2.046874-.351563-.582032.152344-1.054688.398437-1.792969.375l-.28125-.007813v7.730469h6.429687c-.265625-.289062-.429687-.671875-.429687-1.089843 0-.648438.386719-1.207032.933593-1.472657-.265624-.074219-.53125-.152343-.832031-.226562-.53125-.136719-1.140625-.105469-1.738281.261719v-4.742188c.382812-.210938.679688-.328125.917969-.363281.128906-.019531.246093-.015625.355469-.003907.113281.015626.222656.042969.335937.078126.292969.085937.652344.222656 1.117187.304687v4.628906c.171876-.0625.355469-.101562.546876-.101562.191406 0 .371093.039062.542968.101562v-5.09375l-.28125.007813c-.828125.03125-1.238281-.21875-1.773437-.375-.199219-.0625-.414063-.101563-.65625-.09375zm-2.621094.539062c.269531.023438.578125.121094.96875.335938v4.761718c-.601563-.351562-1.203125-.378906-1.734375-.246093-.355469.089843-.679688.191406-.992188.273437v-4.757812c.4375-.082032.804688-.207032 1.121094-.289063.125-.035156.25-.058593.375-.074219.082032-.007812.167969-.007812.261719-.003906zm4.789063 5.460938c-.601563 0-1.089844.488281-1.089844 1.089844 0 .601562.488281 1.089843 1.089844 1.089843.601562 0 1.089843-.488281 1.089843-1.089843 0-.601563-.488281-1.089844-1.089843-1.089844zm0 0" fill="#d3dae3"/></svg>