<svg height="12pt" viewBox="0 0 12 12" width="12pt" xmlns="http://www.w3.org/2000/svg"><path d="m5.996094 2.726562c-1.019532 0-1.851563.835938-1.878906 1.882813-.027344.007813-.050782.015625-.074219.027344-.234375.125-.296875.511719-.136719.871093.128906.285157.359375.464844.566406.460938.160156.953125.78125 1.667969 1.523438 1.667969h.007812c.742188 0 1.363282-.714844 1.523438-1.667969.207031.003906.433594-.175781.5625-.460938.160156-.359374.101562-.746093-.132813-.871093-.023437-.011719-.046875-.019531-.074219-.027344-.027343-1.046875-.859374-1.882813-1.878906-1.882813-.003906 0-.003906 0-.007812 0zm1.308594 4.910157c-.15625.382812-.695313.667969-1.335938.667969-.636719 0-1.167969-.28125-1.328125-.660157-1.347656.140625-2.328125.484375-2.445313.890625-.003906.003906 0 .007813 0 .011719-.003906.015625-.007812.027344-.007812.042969 0 .007812-.003906.011718-.003906.019531v.003906 1.011719c0 .105469.082031.191406.1875.191406h7.257812c.105469 0 .1875-.085937.1875-.191406v-1.011719c0-.003906.003906-.007812 0-.011719 0-.023437-.007812-.042968-.015625-.066406-.121093-.410156-1.125-.761718-2.496093-.898437zm0 0" fill="#d3dae3"/></svg>