<svg height="12pt" viewBox="0 0 12 12" width="12pt" xmlns="http://www.w3.org/2000/svg"><path d="m2.800781.710938h6.398438c1.152343 0 2.089843.9375 2.089843 2.089843v6.398438c0 1.152343-.9375 2.089843-2.089843 2.089843h-6.398438c-1.152343 0-2.089843-.9375-2.089843-2.089843v-6.398438c0-1.152343.9375-2.089843 2.089843-2.089843zm0 0" fill="#4d4d4d" fill-rule="evenodd"/><path d="m6.292969 9.082031c.40625-.050781 1.007812-.242187 1.007812-.320312 0-.019531-.027343-.132813-.0625-.253907l-.0625-.222656-.191406.078125c-.320313.128907-.636719.183594-1.046875.179688-.300781 0-.394531-.011719-.585938-.0625-.910156-.234375-1.433593-.90625-1.542968-1.96875-.070313-.71875.109375-1.492188.484375-2.046875.222656-.328125.636719-.679688.980469-.832032.519531-.230468 1.140624-.257812 1.683593-.078124.511719.167968.898438.527343 1.097657 1.015624.132812.332032.15625.480469.15625.941407 0 .386719-.003907.449219-.0625.65625-.101563.390625-.277344.65625-.496094.769531-.160156.082031-.308594.085938-.386719.007812-.144531-.132812-.136719-.308593.046875-1.503906.070312-.472656.132812-.863281.132812-.871094 0-.027343-.269531-.117187-.5-.164062-.277343-.058594-.667968-.0625-.921874-.007812-.699219.140624-1.246094.664062-1.464844 1.402343-.085938.277344-.105469.765625-.046875 1.011719.078125.332031.277343.59375.554687.722656.113282.054688.164063.0625.347656.0625.40625 0 .753907-.1875.996094-.542968.09375-.132813.132813-.148438.132813-.050782 0 .191406.164062.425782.375.527344.121093.0625.15625.066406.359375.066406.722656-.007812 1.257812-.503906 1.488281-1.382812.074219-.28125.101563-.859375.058594-1.167969-.160157-1.070313-.847657-1.832031-1.902344-2.09375-.292969-.074219-.980469-.074219-1.296875 0-1.246094.289063-2.113281 1.222656-2.410156 2.597656-.074219.332031-.078125 1.089844-.011719 1.390625.15625.710938.484375 1.257813.984375 1.632813.34375.257812.792969.449219 1.203125.507812.207031.027344.65625.027344.902344 0zm-.742188-2.246093c-.15625-.074219-.21875-.230469-.21875-.527344 0-.257813.046875-.464844.160157-.675782.15625-.304687.421874-.515624.699218-.554687.125-.019531.335938-.007813.363282.023437.03125.027344-.132813 1.011719-.191407 1.171876-.175781.464843-.523437.707031-.8125.5625zm0 0" fill="#fff"/></svg>