<svg height="32" viewBox="0 0 32 32" width="32" xmlns="http://www.w3.org/2000/svg"><g transform="matrix(1.762712 0 0 1.762712 1.898304 -26.305035)"><path d="m3.0052445 16.016361c-.3694106-.03249-.7932913-.03085-1.2818055.140635-.4966643.174348-1.01951642.582823-1.30907788 1.043049-.52084808.82799-.41469534 1.292356-.38571045 1.74818.02898489.455823.1213627.883888.27077653 1.326272.29785637.881942.8213693 1.718282 1.312974 2.519724-.2488132.725436-.5926575 1.428094-.59415 2.201339v.0039c0 3.842593 3.149463 7.00053 6.9817489 7.00053s6.9817489-3.157937 6.9817489-7.000533c.000003-.002.000003-.0039 0-.0059-.0023-.773686-.346229-1.475791-.596098-2.201339.491654-.801133 1.016932-1.635433 1.314922-2.51777.149413-.442383.241792-.870449.270777-1.326273.02898-.455824.135144-.920187-.385711-1.74818-.289561-.460226-.812413-.868701-1.309078-1.043048-.488515-.171487-.912395-.173122-1.281806-.140636-.328038.02441-.548066.07921-.705187.115243-.0072.0013-.01429.0026-.02142.0039-1.270828.306518-2.5335545.980242-3.7869798 1.822405-.023865.01602-.052964.06749-.077921.08399-.1337667-.008-.2652008-.04266-.399351-.04297-.00519-.00002-.01039-.00002-.015584 0-.1318031.000785-.2601508.03667-.3915548.04493-.025422-.01691-.053632-.06964-.077921-.08594-1.2534254-.842164-2.5161517-1.515887-3.7869754-1.822405-.00714-.0013-.014279-.0026-.021428-.0039-.15712-.03604-.377149-.09084-.7051879-.115243z" fill="#fb5140"/><path d="m2.8320312 18.007812c-.3759609-.03439-.6139993.05038-.7460937.259766-.1411276.223748-.1053188.796668.087891 1.367188.211138.623494.7445268 1.645323 1.2050781 2.396484.7217103-1.119107 1.8360651-1.958155 3.1484376-2.324219-.04337-.02973-.071007-.0511-.1230469-.08594-1.0970498-.735116-2.3522153-1.34706-3.1503911-1.53906-.1569674-.03591-.2965458-.06666-.421875-.07422zm10.3359378 0c-.125329.0076-.264908.03831-.421875.07422-.798176.192-2.053341.803945-3.1503909 1.539063-.558342.373794-.5958732.423382-.5957031.802733.0001323.270992.02146.3605.1582031.644531.3786293.785197 1.2251259 1.587965 1.9492189 1.847657.321223.115275.732545.111243.884766-.0078.382273-.299719 1.506166-2.30539 1.833984-3.27344.193209-.57052.229019-1.14344.08789-1.367188-.132094-.209386-.370132-.294159-.746093-.259766zm-5.167969 1.992188a5 5 0 0 0 -5 5 5 5 0 0 0 5 5 5 5 0 0 0 5-5 5 5 0 0 0 -.419922-1.988281c-.08124.106083-.167047.201053-.279297.289062v.002c-.246197.192509-.460958.195269-.683593.197219-.222638.001948-.451641-.032144-.677735-.113281-.915582-.328368-1.7831162-1.173849-2.2304686-2.101563-.1454863-.302191-.208839-.563588-.2089844-.861328-.000052-.115925.015458-.252961.050781-.390625a5 5 0 0 0 -.550781-.033203z" fill="#fff"/></g></svg>