<svg height="22" width="22" xmlns="http://www.w3.org/2000/svg"><path d="m14 15v1c0 .27614.10029.53779.28125.71875l.78125.78125-.78125.78125c-.18096.18096-.28125.44261-.28125.71875v1h1c .27614 0 .53779-.10029.71875-.28125l.78125-.78125.78125.78125c.18096.18096.44261.28125.71875.28125h1v-1c0-.27614-.10029-.53779-.28125-.71875l-.78125-.78125.78125-.78125c.18096-.18096.28125-.44261.28125-.71875v-1h-1c-.27614 0-.53779.10029-.71875.28125l-.78125.78125-.78125-.78125c-.18096-.18096-.44261-.28125-.71875-.28125z" fill="#5c616c"/><path d="m11.03125 5c-3.03435 0-5.76588 1.2717652-8.03125 3.0163044l8.03125 8.9836956 7.96875-9.0163044c-2.25661-1.7251722-4.9577-2.9836956-7.96875-2.9836956z" fill="#5c616c"/></svg>