<svg height="48" width="48" xmlns="http://www.w3.org/2000/svg"><path d="m13.583333 4.9999999c-4.2016005 0-7.5833338 2.4158333-7.5833338 5.4166671v7.583333 11.999666h17.3333338 3.25c3.000833 0 5.416666-3.381733 5.416666-7.583333v-1.166333c0-4.2016-2.415833-7.25-5.416666-7.25h-10.583333v4h3.605989 3.107812c1.783353 0 3.286199 1.289007 3.286199 2.889453v1.887427c0 1.600445-1.502846 3.222786-3.286199 3.222786h-8.713801v-3.222786-1.887427-2.022786-.866667-4.333333-1.666667h9v-1.583333c0-3.0008338-3.248067-5.4166671-7.449667-5.4166671z" opacity=".2"/><path d="m23.583334 45c-4.201601 0-7.583334-2.415833-7.583334-5.416667v-7.583333-11.999666h17.333334 3.25c3.000833 0 5.416666 3.381733 5.416666 7.583333v1.166333c0 4.2016-2.415833 7.25-5.416666 7.25h-10.583333v-4h3.605989 3.107812c1.783353 0 3.286199-1.289007 3.286199-2.889453v-1.887427c0-1.600445-1.514482-3.019396-3.286199-3.222786h-8.713801v3.222786 1.887427 2.022786.866667 4.333333 1.666667h9v1.583333c0 3.000834-3.248067 5.416667-7.449667 5.416667z" opacity=".2"/><path d="m13.583333 3.9999999c-4.2016005 0-7.5833338 2.4158333-7.5833338 5.4166667v7.5833334 11.999666h17.3333338 3.25c3.000833 0 5.416666-3.381733 5.416666-7.583333v-1.166333c0-4.2016-2.415833-7.25-5.416666-7.25h-10.583333v4h3.605989 3.107812c1.783353 0 3.286199 1.289007 3.286199 2.889453v1.887427c0 1.600445-1.502846 3.222786-3.286199 3.222786h-8.713801v-3.222786-1.887427-2.022786-.866667-4.333333-1.666667h9v-1.5833334c0-3.0008334-3.248067-5.4166667-7.449667-5.4166667z" fill="#4795d1"/><path d="m13.583984 4c-4.2016001 0-7.583984 2.4151822-7.583984 5.4160156v1.0000004c0-3.0008342 3.3823839-5.416016 7.583984-5.416016h1.966797c4.2016 0 7.449219 2.4151818 7.449219 5.416016v-1.0000004c0-3.0008334-3.247619-5.4160156-7.449219-5.4160156zm2.416016 9v1h10.583984c3.000833 0 5.416016 3.0484 5.416016 7.25v-1c0-4.2016-2.415183-7.25-5.416016-7.25zm10 8.777344c0 1.600445-1.503756 3.222656-3.287109 3.222656h-8.712891v1h8.712891c1.783353 0 3.287109-1.622211 3.287109-3.222656z" fill="#fff" opacity=".2"/><path d="m18.999999 6.9999995a1.0000002 1.0000002 0 0 0 -.999999 1.0000003 1.0000002 1.0000002 0 0 0  .999999 1.0000002 1.0000002 1.0000002 0 0 0 1.000001-1.0000002 1.0000002 1.0000002 0 0 0 -1.000001-1.0000003z" opacity=".2"/><path d="m18.999999 5.9999995a1.0000002 1.0000002 0 0 0 -.999999 1.0000003 1.0000002 1.0000002 0 0 0  .999999 1.0000002 1.0000002 1.0000002 0 0 0 1.000001-1.0000002 1.0000002 1.0000002 0 0 0 -1.000001-1.0000003z" fill="#fff"/><path d="m23.583334 44c-4.201601 0-7.583334-2.415833-7.583334-5.416667v-7.583333-11.999666h17.333334 3.25c3.000833 0 5.416666 3.381733 5.416666 7.583333v1.166333c0 4.2016-2.415833 7.25-5.416666 7.25h-10.583333v-4h3.605989 3.107812c1.783353 0 3.286199-1.289007 3.286199-2.889453v-1.887427c0-1.600445-1.514482-3.019396-3.286199-3.222786h-8.713801v3.222786 1.887427 2.022786.866667 4.333333 1.666667h9v1.583333c0 3.000834-3.248067 5.416667-7.449667 5.416667z" fill="#ffc851"/><path d="m16 19v1h17.333984 3.25c3.000833 0 5.416016 3.382384 5.416016 7.583984v-1c0-4.2016-2.415183-7.583984-5.416016-7.583984h-3.25zm20 9.111328c0 1.600446-1.503756 2.888672-3.287109 2.888672h-3.107422-3.605469v1h3.605469 3.107422c1.783353 0 3.287109-1.288226 3.287109-2.888672zm-12 8.888672v1h9v-1z" fill="#fff" opacity=".2"/><path d="m29 43a1.0000002 1.0000002 0 0 1 -.999999-1 1.0000002 1.0000002 0 0 1  .999999-1 1.0000002 1.0000002 0 0 1 1.000001 1 1.0000002 1.0000002 0 0 1 -1.000001 1z" opacity=".2"/><path d="m29 42a1.0000002 1.0000002 0 0 1 -.999999-1 1.0000002 1.0000002 0 0 1  .999999-1 1.0000002 1.0000002 0 0 1 1.000001 1 1.0000002 1.0000002 0 0 1 -1.000001 1z" fill="#fff"/><path d="m25.822266 19c .105855.281909.177734.575615.177734.888672v1.888672c0 .416595-.105014.832092-.287109 1.222656h6.167968c.076908-.510591.119141-1.0404.119141-1.583984v-1.166016c0-.430782-.03126-.845506-.08008-1.25z" fill="#4795d1"/></svg>