<svg height="48" width="48" xmlns="http://www.w3.org/2000/svg"><g fill-rule="evenodd"><path d="m37.958516 9.0002771c-.67706.010067-1.323611.2854592-1.802576.767791l-15.925124 16.0477539-8.387265-8.051641c-1.017007-1.024415-2.6654553-1.024415-3.6824624 0l-3.398649 3.424819c-1.0165868 1.024838-1.0165868 2.685981 0 3.710819l10.2284974 9.907051 3.398648 3.424819c1.017007 1.024415 2.665456 1.024415 3.682463 0l3.398648-3.424819 17.766355-17.902138c1.017265-1.024956 1.017265-2.686889 0-3.711845l-3.398648-3.4237939c-.497745-.5017933-1.175893-.7791349-1.879887-.768816z" opacity=".2"/><path d="m37.958516 8.0002774c-.67706.010067-1.323611.2854592-1.802576.767791l-15.925124 16.0477536-8.387265-8.051641c-1.017007-1.024415-2.6654553-1.024415-3.6824624 0l-3.398649 3.424819c-1.0165868 1.024838-1.0165868 2.685981 0 3.710819l10.2284974 9.907051 2.382177 2.400521 1.088246.19889c1.017007 1.024415 2.324526.75526 3.341533-.269155l3.667803-2.330256 17.766355-17.902138c1.017265-1.024956 1.017265-2.686889 0-3.711845l-3.398648-3.4237936c-.497745-.5017933-1.175893-.7791349-1.879887-.768816z" fill="#5cbb6a"/><path d="m26.001953 19-5.771484 5.816406-4.931641-4.736328-7.2949218 6.960938 1.9785157 1.916015 21.2363281-.943359 8.939453-9.007813.005859-.005859z" fill="#3e8749"/><path d="m24.189453 20.826172-1.980469 1.996094 8.955078 5.248046 3.494141-3.521484z" fill="#2d6235"/><path d="m25.798827 33.476562-8.498047 2.658204 1.087891 1.097656a2.6044327 2.6244878 0 0 0 3.683594 0l3.398437-3.425781z" fill="#2d6235"/><path d="m37.958984 8c-.67706.010067-1.323769.2852463-1.802734.7675781l-15.925781 16.0488279-8.386719-8.052734c-1.017007-1.024415-2.6665866-1.024415-3.6835938 0l-3.3984374 3.425781c-.6348747.640028-.8729479 1.527119-.7148438 2.353516.095305-.496165.3336237-.969202.7148438-1.353516l3.3984374-3.425781c1.0170072-1.024415 2.6665868-1.024415 3.6835938 0l8.386719 8.052734 15.925781-16.0488279c.478965-.4823318 1.125674-.7575111 1.802734-.7675781.703994-.0103189 1.381162.267738 1.878907.7695312l3.398437 3.4238278c.381475.384359.621428.857189.716797 1.353516.157478-.826126-.081987-1.713907-.716797-2.353516l-3.398437-3.4238278c-.497745-.5017932-1.174913-.7798501-1.878907-.7695312z" fill="#fff" opacity=".2"/></g></svg>