<svg height="48" width="48" xmlns="http://www.w3.org/2000/svg"><path d="m21.35156 6.0000494c-3.685148-.0067592-7.735988.6809758-11.6614376 1.812951-1.1188194.3226319-2.833885.8962427-2.9173565.9756999-.043483.04139.026057.070009.2626265.1081185.6104139.098335 1.5079539.3756135 2.1810465.6737563 2.4523601 1.0862559 4.7464511 3.6620979 6.2974421 6.7226849.285293.562974.504541 1.048924.504541 1.118178 0 .0201-.178043.06135-.470013.108941-2.96426.483158-5.7765436 2.348886-8.3534226 5.146806-1.0795768 1.172178-2.2244701 2.715842-3.1207979 4.207703-.6056464 1.008043-1.1502921 2.062204-1.0654203 2.062204.00573 0 .2929992-.06882.6383762-.152945 3.6833433-.897171 7.0470866-1.067403 9.4108966-.47626.996304.249155 1.843565.417655 2.441262.862694.256473.190966.519119.432187.519119.476753-1.173677 1.162714-2.459999 2.429202-3.281107 3.651314-1.958208 3.720992-2.7752817 6.861189-2.737315 10.701352 1.515848-1.162994 3.911021-3.136994 5.746139-3.810669 2.162257-.77019 4.088266-1.022578 6.754257-1.160294.741526-.03831 3.499604-.02845 3.52877.0382 7.579516-.05631 11.062878-3.006204 14.362974-6.654642 2.288349-2.255804 3.48355-5.461164 4.244697-8.509424.238425-.981863.339518-1.662053.359525-2.41933.02369-.896766-.0656-1.403173-.348728-1.978032-.134729-.273549-.191146-.354802-.370815-.53369-.139828-.139218-.280654-.246849-.413947-.31641-.218409-.113979-.569405-.216073-.742836-.216073-.100187 0-.112613-.0092-.168911-.125052l-.06072-.125052.101884-.218649c.509396-1.092928.851148-2.461011 1.001353-4.201271.04138-.479479.06818-1.29351.04642-1.409489-.02264-.120674-.0078-.116225-.583351-.175303-1.372234-.140851-3.035064-.105634-4.782944.101269l-.508596.06017-.263067-.232569c-1.395989-1.23418-3.099735-2.6599072-4.847676-3.5044024-2.544938-1.229552-5.286254-2.0880985-8.435466-2.4344289-1.045486-.1149759-2.139298-.1727387-3.267402-.1748093z" opacity=".2"/><path d="m21.35156 5.0000494c-3.685148-.0067592-7.735988.6809758-11.6614376 1.812951-1.1188194.3226319-2.833885.8962427-2.9173565.9756999-.043483.04139.026057.070009.2626265.1081185.6104139.098335 1.5079539.3756135 2.1810465.6737563 2.4523601 1.0862559 4.7464511 3.6620979 6.2974421 6.7226849.285293.562974.504541 1.048924.504541 1.118178 0 .0201-.178043.06135-.470013.108941-2.96426.483158-5.7765436 2.348886-8.3534226 5.146806-1.0795768 1.172178-2.2244701 2.715842-3.1207979 4.207703-.6056464 1.008043-1.1502921 2.062204-1.0654203 2.062204.00573 0 .2929992-.06882.6383762-.152945 3.6833433-.897171 7.0470866-1.067403 9.4108966-.47626.996304.249155 1.843565.417655 2.441262.862694.256473.190966.519119.432187.519119.476753-1.173677 1.162714-2.459999 2.429202-3.281107 3.651314-1.958208 3.720992-2.7752817 6.861189-2.737315 10.701352 1.515848-1.162994 3.911021-3.136994 5.746139-3.810669 2.162257-.77019 4.088266-1.022578 6.754257-1.160294.741526-.03831 3.499604-.02845 3.52877.0382 7.579516-.05631 11.062878-3.006204 14.362974-6.654642 2.288349-2.255804 3.48355-5.461164 4.244697-8.509424.238425-.981863.339518-1.662053.359525-2.41933.02369-.896766-.0656-1.403173-.348728-1.978032-.134729-.273549-.191146-.354802-.370815-.53369-.139828-.139218-.280654-.246849-.413947-.31641-.218409-.113979-.569405-.216073-.742836-.216073-.100187 0-.112613-.0092-.168911-.125052l-.06072-.125052.101884-.218649c.509396-1.092928.851148-2.461011 1.001353-4.201271.04138-.479479.06818-1.29351.04642-1.409489-.02264-.120674-.0078-.116225-.583351-.175303-1.372234-.140851-3.035064-.105634-4.782944.101269l-.508596.06017-.263067-.232569c-1.395989-1.23418-3.099735-2.6599072-4.847676-3.5044024-2.544938-1.229552-5.286254-2.0880985-8.435466-2.4344289-1.045486-.1149759-2.139298-.1727387-3.267402-.1748093z" fill="#5856c2"/><path d="m21.351562 5c-3.685147-.0067592-7.736659.6805248-11.6621089 1.8125-1.1188194.3226319-2.8325441.8971053-2.9160156.9765625-.043483.04139.0251492.0693124.2617187.1074219.3665899.059056.8281186.189855 1.2910157.34375.4635596-.1500597.9501505-.3086006 1.3632812-.4277344 3.9254499-1.1319752 7.9769619-1.8192592 11.6621089-1.8125 1.128105.0020706 2.222093.0608053 3.267579.1757812 3.149212.3463305 5.890608 1.2040418 8.435547 2.4335938 1.74794.8444952 3.451667 2.269726 4.847656 3.503906l.263672.232422.507812-.060547c1.74788-.206903 3.410969-.24046 4.783203-.099609.410221.042107.515019.05374.552735.099609.017959-.385691.045536-.849638.03125-.925781-.02264-.120674-.008434-.11475-.583985-.173828-1.372234-.140851-3.035323-.107294-4.783203.099609l-.507812.060547-.263672-.232422c-1.395989-1.2341798-3.099716-2.6594108-4.847656-3.503906-2.544939-1.229552-5.286335-2.0872633-8.435547-2.4335938-1.045486-.1149759-2.139474-.1737106-3.267579-.1757812zm-5.742187 11.505859c-.033751.0059-.022862.00753-.060547.013672-2.96426.483158-5.7766365 2.350518-8.3535155 5.148438-1.0795768 1.172178-2.2247659 2.71517-3.1210937 4.207031-.6056464 1.008043-1.1512781 2.0625-1.0664063 2.0625.0048707 0 .2684699-.064275.5429687-.130859.1664205-.303731.3230847-.598172.5234376-.931641.8963278-1.491861 2.0415169-3.034853 3.1210937-4.207031 2.576879-2.79792 5.3892555-4.66528 8.3535155-5.148438.29197-.047591.46875-.087322.46875-.107422 0-.056083-.201996-.484013-.408203-.90625zm27.589844.949219c-.067849.17375-.131791.354194-.207031.515625l-.101563.21875.060547.125c.056298.115852.067782.125.167969.125.173431 0 .525731.102818.74414.216797.133293.069561.274235.177188.414063.316406.179669.178888.236364.259654.371094.533203.190576.386944.286583.751957.326171 1.216797.004007-.078941.019365-.15806.021485-.238281.02369-.896766-.064529-1.403657-.347656-1.978516-.13473-.273549-.191425-.354315-.371094-.533203-.139828-.139218-.28077-.246845-.414063-.316406-.193771-.101121-.478155-.181755-.664062-.201172zm-27.697266 11.716797c-1.020408 1.016612-2.062075 2.082718-2.763672 3.126953-1.958208 3.720992-2.7762477 6.861009-2.738281 10.701172.005854-.004491.013651-.01111.019531-.015625.107656-3.389203.936835-6.299546 2.71875-9.685547.821108-1.222112 2.10562-2.48963 3.279297-3.652344 0-.044391-.260114-.284003-.515625-.474609z" fill="#fff" opacity=".1"/><path d="m30.548828 16.986328c-.172938-.011049-.344821-.006746-.515625.013672-2.846016.340223-4.295494 2.408992-4.886719 5.458984-.231627 2.005081-.01885 4.396415.544922 6.060547.05285.155896.074904.261034.058594.277344s-.11484.010418-.259766-.013672c-.088096-.014642-.310296-.015466-.490234-.021484v2.238281h16l1.214844-1.654297.146484-.880859c.954775-2.963223.89648-7.069266.089844-8.16211-.0481-.06517-.137889-.144491-.199219-.175781-.512213-.261312-1.229532.37132-2.142578 1.886719-1.717313 3.527763-2.147817 4.466571-3.021484 5.84375-.21177.229742-.329758.25988-.533203.130859-.538686-.341624-.850547-1.540196-1.019532-4.365234-.05551-.92788-.108698-.911598-.210937-1.421875-.261711-1.306203-.727994-2.347604-1.451172-3.240234-.876847-1.082309-2.113654-1.897267-3.324219-1.97461z" fill="#fff"/><path d="m40.007812 22.222656c-1.342868 2.760715-1.910999 3.938085-2.544921 5.009766a1.9631563 3.0242382 9.5616122 0 0 1.169921.765625 1.9631563 3.0242382 9.5616122 0 0 2.333985-2.878906 1.9631563 3.0242382 9.5616122 0 0 -.958985-2.896485z" fill="#3f3f3f"/><path d="m21.443049 11-.04675.146283c-.08453.264603-.235552.918014-.2841 1.229006-.08305.532014-.112199.928522-.112199 1.527028 0 1.036243.103185 1.728635.394097 2.644688.116955.368275.1542.452995.199281.452995.01543 0 .152213-.101468.303958-.225474 1.46817-1.199829 3.301326-2.246156 4.967794-2.83551.06809-.02408.1286-.0571.134441-.0734.01706-.04758-.478074-.608017-.803654-.909626-.58829-.544976-1.132419-.904112-1.895076-1.250878-.275337-.12519-.627328-.268726-.782205-.318925-.578396-.187475-1.277705-.329703-1.804327-.366987z" opacity=".2"/><path d="m21.443049 10-.04675.146283c-.08453.264603-.235552.918014-.2841 1.229006-.08305.532014-.112199.928522-.112199 1.527028 0 1.036243.103185 1.728635.394097 2.644688.116955.368275.1542.452995.199281.452995.01543 0 .152213-.101468.303958-.225474 1.46817-1.199829 3.301326-2.246156 4.967794-2.83551.06809-.02408.1286-.0571.134441-.0734.01706-.04758-.478074-.608017-.803654-.909626-.58829-.544976-1.132419-.904112-1.895076-1.250878-.275337-.12519-.627328-.268726-.782205-.318925-.578396-.187475-1.277705-.329703-1.804327-.366987z" fill="#f3a993"/><g fill="#fcb9a4"><path d="m41.868381 30.601551c-.394733.0027-.857437.185877-1.157002.463218-.196732.182143-.28784.338767-.291676.501526-.0082.348885.408297.478485 1.020263.317434.421448-.110911.826825-.39388.966881-.674931.175681-.352549.0033-.579169-.460532-.605383-.02564-.0015-.05162-.002-.07793-.0019z"/><path d="m41.904224 30.61761c.46347.0037.658074.237696.488647.58768-.119925.247735-.543848.544598-.951645.666437-.180306.05387-.538523.0798-.659422.04774-.224469-.05953-.350756-.188462-.350756-.358155 0-.237529.308757-.565577.708089-.752317.311651-.145738.502472-.193458.765087-.191381z"/><path d="m25.432113 31.510119c.400228.0021.590706.127079.903362.592614.511919.762227 1.042199 1.269732 1.734927 1.660447.550613.310556 1.181247.494932 1.797297.525476.205399.01018.410574.03843.529587.07289.168638.04883.217428.07932.369061.230951.147935.147935.183696.203938.233582.365443.0324.104907.05892.238621.05892.297102 0 .05848-.02651.19214-.05892.297046-.04985.161396-.08568.217541-.233089.364951-.14741.14741-.203555.183294-.364951.233143-.181324.056-.490935.07251-.760099.0405-.663112-.07885-.901183-.128459-1.403025-.292279-.951517-.310615-1.786526-.827047-2.528842-1.563988-.498489-.494884-1.071032-1.264385-1.17728-1.582294-.151612-.453648.05305-.937255.487058-1.150919.165688-.08157.213354-.09213.412412-.09109z"/><path d="m25.838717 37.887743c.01379.0011.03105.0021.04297.0032.133739.01266.296599.02417.409344.02954-.06861-.004-.15535-.01095-.261862-.02011-.0519-.0045-.118243-.0086-.190449-.01266z"/></g><path d="m23.026949 29.216376c-1.073259.404223-1.747786 1.205778-1.965324 2.335398-.06823.354311-.08277 1.088121-.02865 1.446471.30685 2.03182 1.703301 3.971579 3.757165 5.260831 1.025993.692002 1.648838.877852 2.79523 1.261939 1.12811.322682 2.326367.478075 3.660753.47898 1.308637.000881 2.341029-.12688 3.481379-.430835 2.522835-.672454 4.644255-2.164856 5.876519-4.134083.891053-1.76142 1.87169-3.265171 1.140077-4.345658-1.181682-1.745172-4.4105-.373295-5.66118.159222-1.128605.481984-1.538217.616414-2.129799.698869-1.331873.185632-2.054259-.01178-4.552113-1.243775-1.94479-.930715-4.297693-2.220519-6.374055-1.487359z" opacity=".2"/><path d="m23.026949 28.216376c-1.073259.404223-1.747786 1.205778-1.965324 2.335398-.06823.354311-.08277 1.088121-.02865 1.446471.30685 2.03182 1.703301 3.971579 3.757165 5.260831 1.025993.692002 1.648838.877852 2.79523 1.261939 1.12811.322682 2.326367.478075 3.660753.47898 1.308637.000881 2.341029-.12688 3.481379-.430835 2.522835-.672454 4.644255-2.164856 5.876519-4.134083.891053-1.76142 1.87169-3.265171 1.140077-4.345658-1.181682-1.745172-4.4105-.373295-5.66118.159222-1.128605.481984-1.538217.616414-2.129799.698869-1.331873.185632-2.054259-.01178-4.552113-1.243775-1.94479-.930715-4.297693-2.220519-6.374055-1.487359z" fill="#f3a993"/><path d="m43.048828 24.152344c-.043215 1.418502-.257496 2.977948-.6875 4.3125l-.146484.880859-.511719.695313c-1.211239-1.662891-4.383484-.319921-5.621094.207031-1.128605.481984-1.537324.616769-2.128906.699219-.30969.04313-.583655.059134-.857422.052734h-.105469c-.86861-.043768-1.745208-.387061-3.589843-1.296875-1.169751-.559806-2.486674-1.241681-3.802735-1.542969-.310423-1.053243-.480838-2.334167-.517578-3.611328-.056284 1.592488.125198 3.280012.517578 4.611328 1.316061.301288 2.632984.983163 3.802735 1.542969 1.844635.909814 2.721233 1.253107 3.589843 1.296875h.105469c.273767.0064.547732-.009604.857422-.052734.591582-.08245 1.000301-.217235 2.128906-.699219 1.23761-.526952 4.409855-1.869922 5.621094-.207031l.511719-.695313.146484-.880859c.534936-1.660219.742026-3.66574.6875-5.3125z" opacity=".1"/><path d="m40.10695 35.053297c-.460096-.141572-.696088-.321056-.913251-.694568-.50989-.877004-.138876-2.294631.923347-3.528076.395382-.459112.764384-.774855 1.267345-1.084424 1.149662-.707616 2.300899-.833298 2.98985-.326401.264436.194557.395507.383615.5055.72912.08956.281348.0957.331175.0825.670007-.02602.668149-.224397 1.22535-.69273 1.945722-.575725.885549-1.472977 1.670836-2.333725 2.042501-.646434.279125-1.394426.379787-1.828839.246119z" opacity=".2"/><path d="m40.10695 34.053297c-.460096-.141572-.696088-.321056-.913251-.694568-.50989-.877004-.138876-2.294631.923347-3.528076.395382-.459112.764384-.774855 1.267345-1.084424 1.149662-.707616 2.300899-.833298 2.98985-.326401.264436.194557.395507.383615.5055.72912.08956.281348.0957.331175.0825.670007-.02602.668149-.224397 1.22535-.69273 1.945722-.575725.885549-1.472977 1.670836-2.333725 2.042501-.646434.279125-1.394426.379787-1.828839.246119z" fill="#4f4f4f"/><ellipse cx="32.877" cy="23.193" fill="#3f3f3f" rx="1.97" ry="3.02" transform="matrix(.99818724 .06018496 -.12149517 .99259202 0 0)"/><path d="m25 32c1.390058 2 3 3 6 3" fill="none" opacity=".5" stroke="#000" stroke-linecap="round" stroke-width="2"/><path d="m21.443359 10-.046875.146484c-.08453.264603-.236608.917524-.285156 1.228516-.08305.532014-.111328.928838-.111328 1.527344 0 .18675.008428.351795.015625.519531.013941-.352494.037938-.676837.095703-1.046875.048548-.310992.200626-.963913.285156-1.228516l.046875-.146484.271485.019531c.526622.037284 1.226291.179713 1.804687.367188.154877.050199.505913.193169.78125.318359.762657.346766 1.306241.705024 1.894531 1.25.054947.050902.11836.123611.179688.185547.162959-.064898.329888-.144465.490234-.201172.06809-.02408.128925-.057919.134766-.074219.01706-.04758-.479108-.608547-.804688-.910156-.58829-.544976-1.131874-.903234-1.894531-1.25-.275337-.12519-.626373-.26816-.78125-.318359-.578396-.187475-1.278065-.329904-1.804687-.367188z" fill="#fff" opacity=".1"/></svg>