<svg height="48" width="48" xmlns="http://www.w3.org/2000/svg"><path d="m24.108 4.0013a4.5656 4.5479 0 0 0 -2.391.6067l-13.434 7.726a4.5656 4.5479 0 0 0 -2.283 3.939v15.453a4.5656 4.5479 0 0 0 2.2828 3.9386l13.434 7.7264a4.5656 4.5479 0 0 0 4.5656 0l13.434-7.7264a4.5656 4.5479 0 0 0 2.283-3.939v-15.453a4.5656 4.5479 0 0 0 -2.283-3.939l-13.434-7.726a4.5656 4.5479 0 0 0 -2.175-.6067z" fill="#4f4f4f"/><path d="m314.02 17.679c-36.879 0-70.099 20.616-93.353 46.845-23.26-26.229-56.46-46.845-93.34-46.845-70.322 0-127.33 59.675-127.33 133.29 0 19.779 3.338 38.813 9.184 56.989 0 0 5.301 16.4 9.997 25.428 53.671 115.43 201.49 190.28 201.49 190.28s147.82-74.852 201.49-190.28 6.925-15.38 9.997-25.428c5.582-18.26 9.184-37.21 9.184-56.989 0-73.615-57.008-133.29-127.33-133.29z" opacity=".2" transform="matrix(.058911 0 0 .064041 11 11.868)"/><path d="m314.02 17.679c-36.879 0-70.099 20.616-93.353 46.845-23.26-26.229-56.46-46.845-93.34-46.845-70.322 0-127.33 59.675-127.33 133.29 0 19.779 3.338 38.813 9.184 56.989 0 0 5.301 16.4 9.997 25.428 53.671 115.43 201.49 190.28 201.49 190.28s147.82-74.852 201.49-190.28 6.925-15.38 9.997-25.428c5.582-18.26 9.184-37.21 9.184-56.989 0-73.615-57.008-133.29-127.33-133.29z" fill="#f25b6f" transform="matrix(.058911 0 0 .064041 11 10.868)"/><path d="m24.107 4.002a4.5656 4.5479 0 0 0 -2.39.6054l-13.434 7.7266a4.5656 4.5479 0 0 0 -2.283 3.939v1a4.5656 4.5479 0 0 1 2.2832-3.939l13.434-7.7266a4.5656 4.5479 0 0 1 2.3906-.60547 4.5656 4.5479 0 0 1 2.1758.60547l13.434 7.7266a4.5656 4.5479 0 0 1 2.283 3.939v-1a4.5656 4.5479 0 0 0 -2.283-3.939l-13.434-7.7266a4.5656 4.5479 0 0 0 -2.176-.6054z" fill="#fff" opacity=".1"/><path d="m6 31.726v1a4.5656 4.5479 0 0 0 2.2832 3.9375l13.434 7.7266a4.5656 4.5479 0 0 0 4.5664 0l13.434-7.727a4.5656 4.5479 0 0 0 2.283-3.938v-1a4.5656 4.5479 0 0 1 -2.2832 3.9375l-13.434 7.7266a4.5656 4.5479 0 0 1 -4.5664 0l-13.434-7.727a4.5656 4.5479 0 0 1 -2.283-3.938z" opacity=".2"/></svg>