<svg height="48" width="48" xmlns="http://www.w3.org/2000/svg"><rect fill="#176fd0" height="40" rx="2" transform="matrix(0 -1 -1 0 0 0)" width="40" x="-44" y="-44"/><path d="m6 4c-1.108 0-2 .892-2 2v1c0-1.108.892-2 2-2h36c1.108 0 2 .892 2 2v-1c0-1.108-.892-2-2-2z" fill="#fff" opacity=".1"/><path d="m4 42v1c0 1.108.892 2 2 2h36c1.108 0 2-.892 2-2v-1c0 1.108-.892 2-2 2h-36c-1.108 0-2-.892-2-2z" opacity=".2"/><path d="m19.749892 38.939725c-3.1284-.28754-5.55337-1.29642-7.37384-3.06778-1.54658-1.50487-2.37202-3.673712-2.37587-5.491942-.003-1.27446.36383-2.29267 1.10272-3.06331.83999-.8761 1.80025-1.27675 3.07914-1.2847 1.60205-.01 2.899047.54939 3.491467 1.78997.24997.52347.26457.61299.31676 1.94179.0592 1.50764.13387 2.69935.49823 3.41495.52296 1.02707 2.023822 1.67707 3.483501 1.81976 2.20771.21581 4.337464-1.0374 4.875674-3.13493.13747-.53578.1494-1.585938.1494-8.538628 0-7.43725-.003-7.360253-.1712-7.651103-.296719-.512135-.663129-.641068-2.074169-.673804h-1.751868v-4h15v4h-1.69354c-1.3392.05303-1.57709.113535-1.87285.432687-.40811.44039-.29784.0542-.35529 8.145503-.057 8.0258-.0608 8.10465-.44264 9.16622-.95506 2.65517-3.334792 4.87444-6.613882 5.72642-1.67614.4355-5.410733.63996-7.271773.4689z" opacity=".2"/><path d="m19.749892 37.939726c-3.1284-.28754-5.55337-1.29642-7.37384-3.06778-1.54658-1.50487-2.37202-3.673712-2.37587-5.491942-.003-1.27446.36383-2.29267 1.10272-3.06331.83999-.8761 1.80025-1.27675 3.07914-1.2847 1.60205-.01 2.899047.54939 3.491467 1.78997.24997.52347.26457.61299.31676 1.94179.0592 1.50764.13387 2.69935.49823 3.41495.52296 1.02707 2.023822 1.67707 3.483501 1.81976 2.20771.21581 4.337464-1.0374 4.875674-3.13493.13747-.53578.1494-1.585938.1494-8.538628 0-7.43725-.003-7.360253-.1712-7.651103-.296719-.512135-.663129-.641068-2.074169-.673804h-1.751868v-4.0000001h15v4.0000001h-1.69354c-1.3392.05303-1.57709.113535-1.87285.432687-.40811.44039-.29784.0542-.35529 8.145503-.057 8.0258-.0608 8.10465-.44264 9.16622-.95506 2.65517-3.334792 4.87444-6.613882 5.72642-1.67614.4355-5.410733.63996-7.271773.4689z" fill="#fff"/></svg>