<svg height="48" width="48" xmlns="http://www.w3.org/2000/svg"><path d="m3.9999991 12.283615v23.093934l16.0000659 9.622451v-23.093897z" fill-rule="evenodd" opacity=".2"/><path d="m44.000001 8.4348466-24.000066 13.4713324v23.093745l24.000066-13.471332z" fill-rule="evenodd" opacity=".2"/><path d="m4.0000002 11.283625v23.093934l16.6665988 9.622451 23.333239-13.471446v-23.0938964" fill="none"/><path d="m3.9999998 11.283625v23.093934" fill="none"/><g fill-rule="evenodd"><path d="m3.9999991 11.283625v23.093934l16.0000659 9.622451v-23.093897l-5.000065-6.906113z" fill="#8e8e8e"/><path d="m7 18.057715v15.39583l9.999731 5.773455v-3.848958l-6.999731-3.948602v-7.697915l6.999731 3.948602v-3.848957l-3.33283-1.924498z" opacity=".1"/><path d="m7 17.057232v15.39583l9.999731 5.773455v-3.848958l-6.999731-3.948602v-7.697915l6.999731 3.948602v-3.848957l-3.33283-1.924498z" fill="#3f3f3f"/><path d="m44.000001 7.4348566-13.000001 5.5651434-11.000065 7.906189v23.093745l24.000066-13.471332z" fill="#3f3f3f"/><path d="m39.554688 5.8691406-19.554688 10.9042974-7.111328-4.490235 4.445312-2.5664061-4.445312-2.7167969-8.0527345 4.787109 15.1640625 9.119141v1l24-13.4726562z" opacity=".2"/><path d="m12.888853 6-8.8888528 5.283625 16.0000638 9.622488 23.999774-13.4714454-4.444425-2.5659969-19.555348 10.9054493-7.111212-4.490495 4.444426-2.5659967z" fill="#736fff"/><path d="m39.554688 4.8691406-19.554688 10.9042974-6.283203-3.96875-.828125.478515 7.111328 4.490235 19.554688-10.9042974 3.568359 2.0585938.876953-.4921875zm-26.666016 1.1308594-8.888672 5.283203.8359375.503906 8.0527345-4.787109 3.603516 2.203125.841796-.4863281z" fill="#fff" opacity=".1"/></g><path d="m39 16.316515-3 1.683594v4.238281l-3 1.732422v3.464844l3-1.732422v4.191406l3-1.683593v-4.238282l3-1.732422v-3.464843l-3 1.732421zm-11 6.19336-3 1.683593v4.238282l-3 1.732421v3.464844l3-1.732422v4.191407l3-1.683594v-4.238281l3-1.732422v-3.464844l-3 1.732422z" opacity=".1"/><path d="m39 15.316406-3 1.683594v4.238281l-3 1.732422v3.464844l3-1.732422v4.191406l3-1.683593v-4.238282l3-1.732422v-3.464843l-3 1.732421zm-11 6.19336-3 1.683593v4.238282l-3 1.732421v3.464844l3-1.732422v4.191407l3-1.683594v-4.238281l3-1.732422v-3.464844l-3 1.732422z" fill="#fff"/><path d="m4.0000002 11.283625-.0000002.999578 16 9.623047v-1z" fill="#fff" fill-rule="evenodd" opacity=".2"/></svg>