<svg height="48" width="48" xmlns="http://www.w3.org/2000/svg"><g transform="matrix(0 -1 -1 0 0 0)"><rect fill="#dd9f59" height="40" rx="2" width="40" x="-44" y="-44"/><rect height="32" opacity=".2" rx="2" width="33" x="-41" y="-40"/><rect fill="#fff" height="32" rx="2" width="33" x="-40" y="-40"/></g><path d="m38 7c1.108 0 2 .892 2 2v1c0-1.108-.892-2-2-2h-28c-1.108 0-2 .892-2 2v-1c0-1.108.892-2 2-2z" fill="#fff" opacity=".2"/><path d="m6 4c-1.108 0-2 .892-2 2v1c0-1.108.892-2 2-2h36c1.108 0 2 .892 2 2v-1c0-1.108-.892-2-2-2z" fill="#fff" opacity=".2"/><path d="m4 42v1c0 1.108.892 2 2 2h36c1.108 0 2-.892 2-2v-1c0 1.108-.892 2-2 2h-36c-1.108 0-2-.892-2-2z" opacity=".2"/><path d="m16.029297 11c-1.055693.648432-4.280806 1.478958-6.029297 1.986328l.054688.154297c.831584-.083045 2.019654-.200735 2.853515-.341797v1.226563h-2.896484l.070312 1.035156h2.423828c-.416362 1.712088-1.379916 3.432015-2.476562 4.753906l.166015.154297c1.02839-.745128 2.059094-1.406923 2.710938-2.388672v4.419922h.265625c.707587 0 1.866396-.273242 1.878906-.357422v-4.484375c.527846.475517.628733 1.031495.726563 1.623047.179741.151297.374946.222656.554687.222656.37427 0 .69336-.270754.69336-.648437 0-.510783-.184028-.983193-1.97461-1.384766v-1.910156h2.34375c.375408 0 .555644-.859282.652344-1.011719l-2.017578-1.048828-.449219 1.023438h-.529297v-1.507813c.62568-.1422 1.209536-.283581 1.681641-.425781.274247.00698 1.296875-.089844 1.296875-.089844zm2.970703 2.03125v8.96875c1.304827-.000001 1.972656-.471067 1.972656-.496094v-.464844h2.021485v.736329c1.098922 0 1.986328-.319045 1.986328-.341797v-7.269532c.291226-.058019.514611-.151693.597656-.259765l-1.605469-.865235-1.115234.960938h-1.814453zm1.972656 2.003906h2.021485v5.003906h-2.021485zm5.027344 12.964844v3 2 3h2v-3h2.132812a4 4 0 0 0 3.867188 3 4 4 0 0 0 4-4 4 4 0 0 0 -4-4 4 4 0 0 0 -3.869141 3h-2.130859v-3zm8 2a2 2 0 0 1 2 2 2 2 0 0 1 -2 2 2 2 0 0 1 -2-2 2 2 0 0 1 2-2z" fill="#6b6b6b"/></svg>