<svg height="48" width="48" xmlns="http://www.w3.org/2000/svg"><rect fill="#4f4f4f" height="28" rx="1.6" transform="rotate(90)" width="28" x="4" y="-44"/><path d="m38 22.62075v.91081h-8.1503c.07711 1.2819.44315 2.2602 1.0983 2.9348.66152.66794 1.58 1.0019 2.7553 1.0019.68079 0 1.3391-.0877 1.975-.26312.64224-.17542 1.2781-.43854 1.9075-.78938v1.7609c-.63585.28337-1.2877.49926-1.9557.64769-.66796.14843-1.3455.22265-2.0328.22265-1.7213 0-3.0861-.52625-4.0944-1.5788-1.002-1.053-1.503-2.477-1.503-4.271-.00001-1.8554.47527-3.3262 1.4258-4.4124.95697-1.093 2.2447-1.6395 3.8632-1.6395 1.4515.00001 2.5979.49253 3.4393 1.4776.84777.97829 1.2717 2.3108 1.2717 3.9975m-1.7726-.54649c-.01285-1.0188-.28582-1.8318-.81889-2.439-.52666-.6072-1.2267-.9108-2.1002-.91081-.98909.00001-1.7823.29349-2.3796.88045-.59088.58698-.93128 1.4135-1.0212 2.4794l6.3199-.0101m-2.23916-9.0272h1.9557v2.0443h-1.9557zm-3.966 0h1.9557v2.0443h-1.9557z" opacity=".2"/><path d="m44 6v-.4776c0-.8467-.707-1.5224-1.594-1.5224h-24.812c-.887 0-1.594.6757-1.594 1.5224v.4776c0-.84671.70735-1.5224 1.5938-1.5224h24.812c.887 0 1.594.6757 1.594 1.5224z" fill="#fff" opacity=".1"/><path d="m38 21.621v.91081h-8.1503c.07711 1.2819.44315 2.2602 1.0983 2.9348.66152.66794 1.58 1.0019 2.7553 1.0019.68079 0 1.3391-.0877 1.975-.26312.64224-.17542 1.2781-.43854 1.9075-.78938v1.7609c-.63585.28337-1.2877.49926-1.9557.64769-.66796.14843-1.3455.22265-2.0328.22265-1.7213 0-3.0861-.52625-4.0944-1.5788-1.002-1.053-1.503-2.477-1.503-4.271-.00001-1.8554.47527-3.3262 1.4258-4.4124.95697-1.093 2.2447-1.6395 3.8632-1.6395 1.4515.00001 2.5979.49253 3.4393 1.4776.84777.97829 1.2717 2.3108 1.2717 3.9975m-1.7726-.54649c-.01285-1.0188-.28582-1.8318-.81889-2.439-.52666-.6072-1.2267-.9108-2.1002-.91081-.98909.00001-1.7823.29349-2.3796.88045-.59088.58698-.93128 1.4135-1.0212 2.4794l6.3199-.0101m-2.23916-9.0272h1.9557v2.0443h-1.9557zm-3.966 0h1.9557v2.0443h-1.9557z" fill="#fff"/><path d="m16 30.4v1c0 .887.713 1.6 1.6 1.6h24.801c.886 0 1.599-.713 1.599-1.6v-1c0 .887-.713 1.6-1.6 1.6h-24.8c-.887 0-1.6-.713-1.6-1.6z" opacity=".2"/><rect fill="#e4e4e4" height="28" rx="1.6" transform="rotate(90)" width="28" x="16" y="-32"/><path d="m23.508 35.36543c-1.4144.00001-2.3943.16317-2.9397.4895-.54546.32634-.81819.88303-.81819 1.6701 0 .62708.20296 1.1262.60888 1.4973.41226.36473.9704.54709 1.6744.54709.9704 0 1.7473-.34553 2.3309-1.0366.58984-.69746.88477-1.6221.88478-2.7738v-.39352h-1.741m3.492-.73v6.1332h-1.7505v-1.6317c-.39959.65267-.89746 1.1358-1.4937 1.4493-.5962.30714-1.3256.4607-2.1882.4607-1.0909 0-1.9598-.30713-2.6068-.92141-.641-.62-.961-1.449-.961-2.485 0-1.2094.39958-2.1212 1.1987-2.7355.8055-.61427 2.0042-.92141 3.5962-.92141h2.4545v-.17277c-.000009-.81263-.26639-1.4397-.79916-1.8812-.52643-.4479-1.2685-.67186-2.2262-.67187-.60888.00001-1.2019.0736-1.7791.22076-.57717.14718-1.1321.36793-1.6649.66227v-1.6317c.64059-.24954 1.2622-.4351 1.8647-.55669.60254-.12796 1.1892-.19195 1.76-.19196 1.5412.00001 2.6924.40313 3.4535 1.2094.76109.80625 1.1416 2.0284 1.1416 3.6665m-5.8985-9.5885 2.6829 3.5897h-1.4556l-3.1015-3.5897z" opacity=".2"/><path d="m23.508 34.365c-1.4144.00001-2.3943.16317-2.9397.4895-.54546.32634-.81819.88303-.81819 1.6701 0 .62708.20296 1.1262.60888 1.4973.41226.36473.9704.54709 1.6744.54709.9704 0 1.7473-.34553 2.3309-1.0366.58984-.69746.88477-1.6221.88478-2.7738v-.39352h-1.741m3.492-.73v6.1332h-1.7505v-1.6317c-.39959.65267-.89746 1.1358-1.4937 1.4493-.5962.30714-1.3256.4607-2.1882.4607-1.0909 0-1.9598-.30713-2.6068-.92141-.641-.62-.961-1.449-.961-2.485 0-1.2094.39958-2.1212 1.1987-2.7355.8055-.61427 2.0042-.92141 3.5962-.92141h2.4545v-.17277c-.000009-.81263-.26639-1.4397-.79916-1.8812-.52643-.4479-1.2685-.67186-2.2262-.67187-.60888.00001-1.2019.0736-1.7791.22076-.57717.14718-1.1321.36793-1.6649.66227v-1.6317c.64059-.24954 1.2622-.4351 1.8647-.55669.60254-.12796 1.1892-.19195 1.76-.19196 1.5412.00001 2.6924.40313 3.4535 1.2094.76109.80625 1.1416 2.0284 1.1416 3.6665m-5.8985-9.5885 2.6829 3.5897h-1.4556l-3.1015-3.5897z" fill="#3f3f3f"/><path d="m32 18v-.47761c0-.846-.707-1.522-1.594-1.522h-24.812c-.8866 0-1.594.676-1.594 1.522v.478c0-.84671.70735-1.5224 1.5938-1.5224h24.812c.887 0 1.594.675 1.594 1.522z" fill="#fff" opacity=".2"/><path d="m4 42.4v1c0 .887.7132 1.6 1.5996 1.6h24.8c.887 0 1.6-.713 1.6-1.6v-1c0 .887-.713 1.6-1.6 1.6h-24.8c-.8868 0-1.6-.713-1.6-1.6z" opacity=".2"/></svg>