<svg height="48" width="48" xmlns="http://www.w3.org/2000/svg"><path d="m23.24 5.0216045c-.41409.00669-.83323.033577-1.2539.080078-6.593.7288-11.396 6.1674005-10.943 12.24l-1.543.172.883 7.986 5.1465-.56836-.88281-7.9883-1.9062.21094c-.353-5.203 3.771-9.8493005 9.426-10.474 5.651-.625 10.714 2.999 11.512 8.1480005l-1.678.186.883 7.986 4.969-.549-.883-7.986-1.596.176c-.842-5.6270005-6.066-9.7175005-12.133-9.6195005z" opacity=".2"/><path d="m22.695 9.0007541c-.69956.028292-1.3142.4185869-1.7968.9968506-.48258.5782623-.86378 1.3484543-1.1848 2.2524003-.64214 1.807892-1.0369 4.16533-1.2555 6.603878-.21861 2.438653-.25601 4.953226-.15624 7.055586.09976 2.102255.29459 3.738506.70682 4.651982.36054.79896.77941 1.712171.95978 2.536915.18037.824722.14264 1.481976-.31993 2.013628-.46257.531609-1.4831.809574-3.4448.920003-1.9617.110481-4.8284-.139101-8.8929-.933359-.65465-.127933-1.2008-.139367-1.6759.02587-.47509.165234-.84702.532733-1.0732.996849-.45244.928247-.49311 2.405411-.55987 4.169784-.021586.570512.17794 1.114341.52825 1.559907.35031.445557.84079.810789 1.449 1.130119 1.2164.638744 2.9198 1.099199 5.0351 1.426597 4.2307.65484 10.105.758047 16.778.352176l.0056-.002h.0074c2.4559-.212364 6.3407-.361336 9.6908-1.255487 1.675-.447092 3.2239-1.076963 4.4064-2.039464 1.1825-.962554 1.9924-2.298884 2.0721-4.003326.07412-1.584579-.0038-2.446228-.30691-3.208711-.30309-.762494-.95262-1.16919-1.6201-1.183908-1.3349-.02929-2.9079.68806-4.9496 1.191165-2.3429.577342-3.9958.864348-5.1207.774789-1.1249-.08955-1.6872-.524073-2.0349-.993654-.34771-.469592-.50395-1.164213-.57661-2.047406-.07266-.883181-.06418-1.92892-.17484-3.030342-.212-2.110302-.612-7.053046-1.519-11.46742-.454-2.207716-1.03-4.284134-1.803-5.845948-.386-.781014-.821-1.437822-1.343-1.9121896-.521-.4743677-1.149-.7617418-1.83-.7342115z" opacity=".2"/><path d="m22.695 8.0007572c-.69956.028292-1.3142.4185869-1.7968.9968506-.48258.5782627-.86378 1.3484542-1.1848 2.2524002-.64214 1.807892-1.0369 4.16533-1.2555 6.603878-.21861 2.438653-.25601 4.953226-.15624 7.055586.09976 2.102255.29459 3.738506.70682 4.651982.36054.79896.77941 1.712171.95978 2.536915.18037.824722.14264 1.481976-.31993 2.013628-.46257.531609-1.4831.809574-3.4448.920003-1.9617.110481-4.8284-.139101-8.8929-.933359-.65465-.127933-1.2008-.139367-1.6759.02587-.47509.165234-.84702.532733-1.0732.996849-.45244.928247-.49311 2.405411-.55987 4.169784-.021586.570512.17794 1.114341.52825 1.559907.35031.445557.84079.810789 1.449 1.130119 1.2164.638744 2.9198 1.099199 5.0351 1.426597 4.2307.65484 10.105.758047 16.778.352176l.0056-.002h.0074c2.4559-.212364 6.3407-.361336 9.6908-1.255487 1.675-.447092 3.2239-1.076963 4.4064-2.039464 1.1825-.962554 1.9924-2.298884 2.0721-4.003326.07412-1.584579-.0038-2.446228-.30691-3.208711-.30309-.762494-.95262-1.16919-1.6201-1.183908-1.3349-.02929-2.9079.68806-4.9496 1.191165-2.3429.577342-3.9958.864348-5.1207.774789-1.1249-.08955-1.6872-.524073-2.0349-.993654-.34771-.469592-.50395-1.164213-.57661-2.047406-.07266-.883181-.06418-1.92892-.17484-3.030342-.212-2.110302-.612-7.053046-1.519-11.46742-.454-2.207716-1.03-4.284134-1.803-5.845948-.386-.7810134-.821-1.4378217-1.343-1.9121895-.521-.4743677-1.149-.7617418-1.83-.7342115z" fill="#974fa4"/><path d="m22.695312 8c-.699559.028292-1.314274.4197832-1.796874.9980469-.48258.5782627-.864527 1.3480071-1.185547 2.2519531-.64214 1.807892-1.03726 4.164968-1.25586 6.603516-.167459 1.868052-.224626 3.777884-.199219 5.515625.006244-1.459432.063105-2.997233.199219-4.515625.2186-2.438548.61372-4.795624 1.25586-6.603516.32102-.903946.702967-1.673691 1.185547-2.2519531.4826-.5782637 1.097315-.9697549 1.796874-.9980469v.0019531c.681001-.0275303 1.309079.2600073 1.830079.734375.522.4743679.95775 1.1310949 1.34375 1.9121099.773 1.561813 1.348734 3.637987 1.802734 5.845703.907 4.414374 1.307531 9.356494 1.519531 11.466797.11066 1.101422.101168 2.148068.173828 3.03125.07266.883193.228462 1.577283.576172 2.046874.3477.469582.910256.904591 2.035156.994141 1.1249.089559 2.778194-.198048 5.121094-.775391 2.0417-.503104 3.614319-1.220696 4.949219-1.191406.66748.014718 1.318004.4211 1.621094 1.183594.195801.492545.288823 1.049525.316406 1.792969.039381-1.30719-.042966-2.105122-.316406-2.792969-.30309-.762494-.953614-1.168876-1.621094-1.183594-1.3349-.02929-2.907519.688302-4.949219 1.191406-2.3429.577343-3.996194.86495-5.121094.775391-1.1249-.08955-1.687456-.52456-2.035156-.994141-.34771-.469591-.503512-1.163681-.576172-2.046874-.07266-.883182-.063168-1.929829-.173828-3.03125-.212-2.110303-.612531-7.052423-1.519531-11.466797-.454-2.207716-1.029734-4.283889-1.802734-5.845703-.386-.7810139-.82175-1.4377421-1.34375-1.9121099-.521-.4743677-1.149078-.7619053-1.830079-.734375zm-2.685546 25.359375c-.05914.273753-.165211.526546-.361328.751953-.46257.531609-1.483613.809493-3.445313.919922-1.9617.110481-4.828078-.137383-8.8925781-.931641-.65465-.127933-1.2006813-.139846-1.6757813.025391-.47509.165234-.8460856.531978-1.0722656.996094-.45244.928247-.4937869 2.405549-.5605469 4.169922-.0053716.141969.0025084.282359.0234375.419922.0589066-1.500884.1365121-2.76796.5371094-3.589844.22618-.464116.5971756-.83086 1.0722656-.996094.4751-.165237 1.0211313-.153324 1.6757813-.025391 4.0645001.794258 6.9308781 1.042122 8.8925781.931641 1.9617-.110429 2.982743-.388313 3.445313-.919922.411058-.472447.476167-1.051756.361328-1.751953z" fill="#fff" opacity=".2"/><path d="m23.24 4.0216076c-.41409.00669-.83323.033577-1.2539.080078-6.593.7288-11.396 6.1674004-10.943 12.24l-1.543.172.883 7.986 5.1465-.56836-.88281-7.9883-1.9062.21094c-.353-5.203 3.771-9.8493004 9.426-10.474 5.651-.625 10.714 2.999 11.512 8.1480004l-1.678.186.883 7.986 4.969-.549-.883-7.986-1.596.176c-.842-5.6270004-6.066-9.7175004-12.133-9.6195004z" fill="#4d4d4d"/><path d="m21.981 20.714108a4.4862 8.5035 2.78 1 1 -8.9622-.42745 4.4862 8.5035 2.78 1 1 8.9622.42745z" opacity=".2"/><path d="m21.981 19.714108a4.4862 8.5035 2.78 1 1 -8.9622-.42745 4.4862 8.5035 2.78 1 1 8.9622.42745z" fill="#fff"/><path d="m19.991 21.560108a1.9859247 2.5111312 8.8384 1 1 -3.9815-.11991 1.9859247 2.5111312 8.8384 0 1 3.9815.11991z" fill="#4d4d4d"/><path d="m34.91 20.051108a8.5397173 4.9290677 83.102 0 1 -9.82.89768 8.5397173 4.9290677 83.102 0 1 9.82-.89768z" opacity=".2"/><path d="m34.91 19.051108a8.5397173 4.9290677 83.102 0 1 -9.82.89768 8.5397173 4.9290677 83.102 0 1 9.82-.89768z" fill="#fff"/><path d="m31.93 21.669108a1.9056 2.5726 20.557 1 1 -3.8596-.33872 1.9056 2.5726 20.557 0 1 3.8596.33872z" fill="#4d4d4d"/><path d="m23.240234 4.0214844c-.41409.00669-.833236.0335771-1.253906.0800781-6.473445.7155842-11.207959 5.9735205-10.949219 11.91211.279848-5.51861 4.841582-10.236962 10.949219-10.91211.42067-.0465005.839816-.0733876 1.253906-.0800776 6.067-.098 11.290813 3.9921402 12.132813 9.6191406l1.595703-.175781.775391 6.998047.109375-.011719-.884766-7.986328-1.595703.175781c-.842-5.6270004-6.065813-9.7171406-12.132813-9.6191406zm10.230469 9.8300776-1.470703.16211.109375.988281 1.568359-.173828c-.051492-.332247-.121011-.657747-.207031-.976563zm-18.824219 2.091797-1.90625.210938c-.002357-.03475.000006-.068816-.001953-.103516-.019344.36441-.02324.732175.001953 1.103516l1.90625-.210938.773438 7 .109375-.011718zm-3.625.400391-1.521484.169922.109375.988281 1.433594-.160156c-.024988-.334969-.0279-.667621-.021485-.998047z" fill="#fff" opacity=".1"/></svg>