<svg height="48" width="48" xmlns="http://www.w3.org/2000/svg"><path d="m27.408203 5-7.412109 29.648438c-1.390164-.374778-2.297126-.810049-2.794922-1.1875-.640953-.486001-.79899-.777148-.94336-1.541016-.288738-1.527736.449301-5.080552 1.701172-9.925781.06664-.257938.46423-1.079812.751954-2.28711.143861-.603649.315344-1.396788-.0059-2.486328-.321163-1.08954-1.434329-2.201511-2.464844-2.576172-1.048967-.381369-2.056722-.558904-3-.603515-2.829832-.133834-5.0901251.933038-6.2187496 1.322265l1.9570312 5.671875c1.4433634-.497771 2.3604684-.812903 3.2949224-.912109-.05352.176213-.07202.173591-.123047.371094-1.240086 4.799616-2.5288045 8.625054-1.789063 12.539062.369871 1.957004 1.489674 3.900883 3.214844 5.208985 1.3631 1.033563 3.009193 1.722331 4.964844 2.228515l-1.132773 4.529297h6.183594l1-3.998047c2.999377-.336557 5.688097-1.542952 7.816406-3.099609 3.112217-2.276293 5.217368-5.107489 6.123047-7.931641 1.797119-4.604092 1.46875-9.125904 1.46875-13.970703h-6c0 5.100183.149818 8.816121-1.083984 11.894531a3.0003 3.0003 0 0 0 -.07813.214844c-.33231 1.056557-1.850699 3.397207-3.972657 4.949219-.822526.6016-1.709852 1.10274-2.654296 1.46289l7.380864-29.521484z" opacity=".2"/><path d="m8 17.2c1.9196615-.662031 4.076182-1.877018 7.214587-.736 1.390263.505453.206491 2.36272-.159718 3.78009-2.491957 9.644846-4.054869 14.75591 5.676838 16.65591 7.683352 1.500083 13.741409-4.9889 14.968339-8.889841 1.550415-3.868378 1.299954-8.010319 1.299954-13.010318" fill="none" stroke="#3669e9" stroke-linejoin="round" stroke-width="6"/><path d="m27.408 4-10 40h6.183594l10-40z" fill="#3669e9"/><path d="m27.408203 4-7.412109 29.648438c-1.390164-.374778-2.297126-.810049-2.794922-1.1875-.640953-.486001-.79899-.777148-.94336-1.541016-.021166-.111995-.024823-.257153-.035156-.390625-.037054.56281-.031789 1.036409.035156 1.390625.14437.763868.302407 1.055014.94336 1.541016.497796.377451 1.404758.812722 2.794922 1.1875l7.412109-29.648438h5.933594l.25-1zm-14.167969 9.041016c-2.829832-.133834-5.0901251.933038-6.2187496 1.322265l.3066406.886719c1.1965797-.443219 3.288698-1.333056 5.912109-1.208984.943278.044611 1.951033.222146 3 .603515 1.030515.374661 2.143681 1.486632 2.464844 2.576172.074549.252842.116549.486731.144531.708985.056877-.475101.05595-1.028943-.144531-1.708985-.321163-1.08954-1.434329-2.201511-2.464844-2.576172-1.048967-.381369-2.056722-.558904-3-.603515zm20.759766 1.958984c0 .356345.001013.656915.001953 1h5.998047c0 1.027504.0134 2.034795.019531 3.037109.002919-1.326406-.019531-2.668277-.019531-4.037109zm.001953 3.617188c-.016734 3.321542-.164441 5.978156-1.085937 8.277343a3.0003 3.0003 0 0 0 -.078125.214844c-.33231 1.056557-1.850699 3.397207-3.972657 4.949219-.740134.541338-1.535526.994625-2.375 1.34375l-.279296 1.11914c.944443-.36015 1.83177-.86129 2.654296-1.46289 2.121958-1.552012 3.640347-3.892662 3.972657-4.949219a3.0003 3.0003 0 0 1  .078125-.214844c1.008188-2.515491 1.088811-5.503052 1.085937-9.277343zm-21.728515 1.505859c-.100001.010616-.202465.033307-.302735.048828-.957994 3.636277-1.869259 6.747499-1.804687 9.773437.134896-2.905169 1.070192-5.91293 1.984375-9.451171.051027-.197503.069526-.194881.123047-.371094zm6.035156 20.279297-.900391 3.597656h.25l.882813-3.529297c-.080666-.020879-.152808-.046848-.232422-.068359z" fill="#fff" opacity=".1"/></svg>