<svg height="48" viewBox="0 0 48 48" width="48" xmlns="http://www.w3.org/2000/svg"><path d="m8.7272727 8h34.272727s2 0 2 2v26l-5.727273 6h-34.272727s-2 0-2-2v-26z" opacity=".2"/><path d="m8.7272727 7h34.272727s2 0 2 2v26l-5.727273 6h-34.272727s-2 0-2-2v-26z" fill="#00cc5c"/><path d="m18.035156 15c-5.55862 0-7.035156 3-7.035156 9s1.450556 9 7.035156 9h1.585938l2.310547 4 2.677734-1-2.181641-4c2.07799-1 2.572266-4 2.572266-8 0-6-1.406224-9-6.964844-9zm10.992188 1v4h-2.027344v2h2.027344v6c0 4 .90859 5 3.84375 5h2.193359l-.128906-2h-1.474609c-1.350701 0-1.460938-1-1.460938-3v-6h3v-2h-3v-4zm-11.015625 2c3.229341 0 3.98829 2 3.988281 6 0 4-.73447 6-3.988281 6-3.25381 0-4.011719-2-4.011719-6s .782379-6 4.011719-6z" opacity=".2"/><path d="m18.035156 14c-5.55862 0-7.035156 3-7.035156 9s1.450556 9 7.035156 9h1.585938l2.310547 4 2.677734-1-2.181641-4c2.07799-1 2.572266-4 2.572266-8 0-6-1.406224-9-6.964844-9zm10.992188 1v4h-2.027344v2h2.027344v6c0 4 .90859 5 3.84375 5h2.193359l-.128906-2h-1.474609c-1.350701 0-1.460938-1-1.460938-3v-6h3v-2h-3v-4zm-11.015625 2c3.229341 0 3.98829 2 3.988281 6 0 4-.73447 6-3.988281 6-3.25381 0-4.011719-2-4.011719-6s .782379-6 4.011719-6z" fill="#fff"/><path d="m8.7265625 7-5.7265625 6v1l5.7265625-6h34.273438s2 0 2 2v-1c0-2-2-2-2-2z" fill="#fff" opacity=".2"/></svg>