<svg height="48" viewBox="0 0 48 48" width="48" xmlns="http://www.w3.org/2000/svg"><circle cx="24" cy="25" opacity=".2" r="20"/><circle cx="24" cy="24" fill="#4f4f4f" r="20"/><path d="m24 4a20 20 0 0 0 -20 20 20 20 0 0 0  .0214844.582031 20 20 0 0 1 19.9785156-19.582031 20 20 0 0 1 19.978516 19.417969 20 20 0 0 0  .021484-.417969 20 20 0 0 0 -20-20z" fill="#fff" opacity=".1"/><path d="m24 8-2 17 2 17 2-17zm-10.414062 8.818359-1.929688.527344c-1.581937.433111-2.8214239.918712-3.8222656 1.605469s-1.9781963 1.868786-1.8164063 3.347656c.1617901 1.478871 1.1953328 2.352287 2.2597657 2.97461 1.0644323.62232 2.3839212 1.08994 4.0390622 1.496093 1.606994.394338 3.414438.679658 5.308594.882813l3.375 14.347656v-14.076172-3.996094a15 3.5 0 0 1 -12-3.427734 15 3.5 0 0 1 4.886719-2.580078zm21.037109.03906-.314453 1.105469a15 3.5 0 0 1 4.691406 2.537112 15 3.5 0 0 1 -12 3.425781v4.001953 14.072266l3.375-14.345703c1.808641-.195665 3.540156-.465836 5.09375-.833985 1.677963-.397618 3.020169-.857805 4.105469-1.46289 1.085299-.605085 2.118697-1.402322 2.378906-2.853516.260209-1.451193-.669476-2.745582-1.650391-3.457031-.980914-.711449-2.19775-1.202699-3.755859-1.644531z" opacity=".2"/><path d="m24 7-2 17 2 17 2-17zm-10.414062 8.818359-1.929688.527344c-1.581937.433111-2.8214239.918712-3.8222656 1.605469s-1.9781963 1.868786-1.8164063 3.347656c.1617901 1.478871 1.1953328 2.352287 2.2597657 2.97461 1.0644323.62232 2.3839212 1.08994 4.0390622 1.496093 1.606994.394338 3.414438.679658 5.308594.882813l3.375 14.347656v-14.076172-3.996094a15 3.5 0 0 1 -12-3.427734 15 3.5 0 0 1 4.886719-2.580078zm21.037109.039063-.314453 1.105469a15 3.5 0 0 1 4.691406 2.537109 15 3.5 0 0 1 -12 3.425781v4.001953 14.072266l3.375-14.345703c1.808641-.195665 3.540156-.465836 5.09375-.833985 1.677963-.397618 3.020169-.857805 4.105469-1.46289 1.085299-.605085 2.118697-1.402322 2.378906-2.853516.260209-1.451193-.669476-2.745582-1.650391-3.457031-.980914-.711449-2.19775-1.202699-3.755859-1.644531z" fill="#d95656"/><path d="m24 7-2 17 .058594.5 1.941406-16.5 1.941406 16.5.058594-.5zm-10.414062 8.818359-1.929688.527344c-1.581937.433111-2.8214239.918712-3.8222656 1.605469s-1.9781963 1.868786-1.8164063 3.347656c.0071166.06505.024738.12281.0351563.185547.1895437-1.09683.9726147-1.978334 1.78125-2.533203 1.0008417-.686757 2.2403286-1.172358 3.8222656-1.605469l1.929688-.527344.042968.158203a15 3.5 0 0 1  .257813-.05664zm21.037109.039063-.314453 1.105469a15 3.5 0 0 1  .265625.064453l.048828-.169922 1.923828.544922c1.558109.441832 2.774945.933082 3.755859 1.644531.750932.544644 1.466461 1.432022 1.646485 2.46875.000768-.004202.003151-.007505.003906-.011719.260209-1.451193-.669476-2.745582-1.650391-3.457031-.980914-.711449-2.19775-1.202699-3.755859-1.644531zm4.203125 4.140625a15 3.5 0 0 1 -11.826172 2.927734v1a15 3.5 0 0 0 12-3.425781 15 3.5 0 0 0 -.173828-.501953zm-29.654297.005859a15 3.5 0 0 0 -.171875.496094 15 3.5 0 0 0 12 3.427734v-1a15 3.5 0 0 1 -11.828125-2.923828z" fill="#fff" opacity=".1"/></svg>