<svg height="48" viewBox="0 0 48 48" width="48" xmlns="http://www.w3.org/2000/svg"><ellipse cx="24" cy="25" opacity=".2" rx="20" ry="7"/><ellipse cx="24" cy="24" fill="#c22c2d" rx="20" ry="7"/><path d="m24 17a20 7 0 0 0 -20 7 20 7 0 0 0  .0664062.539062 20 7 0 0 1 19.9335938-6.539062 20 7 0 0 1 19.933594 6.460938 20 7 0 0 0  .066406-.460938 20 7 0 0 0 -20-7z" fill="#fff" opacity=".1"/><ellipse cx="33.862" cy="-8.003" opacity=".2" rx="20.44" ry="7.086" transform="matrix(.50724541 .86180165 -.85261856 .52253381 0 0)"/><ellipse cx="33.009" cy="-8.511" fill="#ed5633" rx="20.44" ry="7.086" transform="matrix(.50724541 .86180165 -.85261856 .52253381 0 0)"/><path d="m15.039062 6a20.440204 7.0850591 59.659038 0 0 -1.40625.3847656 20.440204 7.0850591 59.659038 0 0 -1.615234 4.8652344 20.440204 7.0850591 59.659038 0 1 1.615234-3.8652344 20.440204 7.0850591 59.659038 0 1 16.408204 13.9121094 20.440204 7.0850591 59.659038 0 1 5.941406 16.453125 20.440204 7.0850591 59.659038 0 0 -5.941406-17.453125 20.440204 7.0850591 59.659038 0 0 -15.001954-14.296875z" fill="#fff" opacity=".2"/><ellipse cx="8.776" cy="33.37" opacity=".2" rx="20.44" ry="7.086" transform="matrix(-.50724541 .86180165 .85261856 .52253381 0 0)"/><ellipse cx="7.923" cy="32.862" fill="#ff9c31" rx="20.44" ry="7.086" transform="matrix(-.50724541 .86180165 .85261856 .52253381 0 0)"/><path d="m32.960938 6a7.0850591 20.440204 30.340962 0 0 -15.001954 14.296875 7.0850591 20.440204 30.340962 0 0 -5.941406 17.453125 7.0850591 20.440204 30.340962 0 1 5.941406-16.453125 7.0850591 20.440204 30.340962 0 1 16.408204-13.9121094 7.0850591 20.440204 30.340962 0 1 1.615234 3.8652344 7.0850591 20.440204 30.340962 0 0 -1.615234-4.8652344 7.0850591 20.440204 30.340962 0 0 -1.40625-.3847656z" fill="#fff" opacity=".2"/><path d="m20 17.999999h8l4 7-4 7h-8l-4-7z" opacity=".2"/><path d="m20 17h8l4 7-4 7h-8l-4-7z" fill="#fff"/><circle cx="24" cy="24" fill="#c22c2d" r="4"/></svg>