<svg height="48" width="48" xmlns="http://www.w3.org/2000/svg"><path d="m32.277344 16.722656-22.5546878 22.554688c2.9304578 3.50101 7.3338278 5.722656 12.2773438 5.722656 8.864 0 16-7.136 16-16 0-4.943516-2.221646-9.346886-5.722656-12.277344z" opacity=".2"/><path d="m32.277344 15.722656-22.5546878 22.554688c2.9304578 3.50101 7.3338278 5.722656 12.2773438 5.722656 8.864 0 16-7.136 16-16 0-4.943516-2.221646-9.346886-5.722656-12.277344z" fill="#909004"/><path d="m26 5c-8.864 0-16 7.136-16 16 0 4.943516 2.221646 9.346886 5.722656 12.277344l22.554688-22.554688c-2.930458-3.50101-7.333828-5.722656-12.277344-5.722656z" opacity=".2"/><path d="m26 4c-8.864 0-16 7.136-16 16 0 4.943516 2.221646 9.346886 5.722656 12.277344l22.554688-22.5546878c-2.930458-3.5010102-7.333828-5.7226562-12.277344-5.7226562z" fill="#c5c520"/><path d="m26 4c-8.864 0-16 7.136-16 16 0 .216474.009137.430207.017578.644531.189666-8.696826 7.238452-15.644531 15.982422-15.644531 4.687958 0 8.873906 2.0128798 11.794922 5.205078l.482422-.4824218c-2.930458-3.5010101-7.333828-5.7226562-12.277344-5.7226562z" fill="#fff" opacity=".2"/></svg>