<svg height="48" viewBox="0 0 48 48" width="48" xmlns="http://www.w3.org/2000/svg"><g transform="translate(0 -1074.5197)"><circle cx="24" cy="1099.52" opacity=".2" r="20"/><circle cx="24" cy="1098.52" fill="#8e8e8e" r="20"/><path d="m24 4a20 20 0 0 0 -20 20 20 20 0 0 0  .0214844.582031 20 20 0 0 1 19.9785156-19.582031 20 20 0 0 1 19.978516 19.417969 20 20 0 0 0  .021484-.417969 20 20 0 0 0 -20-20z" fill="#fff" opacity=".2" transform="translate(0 1074.5197)"/><ellipse cx="24" cy="1109.02" opacity=".1" rx="3" ry="2.5"/><ellipse cx="24" cy="1108.02" fill="#3f3f3f" rx="3" ry="2.5"/><path d="m11.833984 1085.4867c-.163801 0-.329312.019-.496093.047-.79367.131-1.4400204.6898-1.791016 1.3321-.3509956.6424-.5044978 1.3731-.578125 2.1719-.1472543 1.5977.052843 3.5024.3613281 5.3808.6169699 3.7568 1.7128909 7.3906 1.7128909 7.3906a1.0001 1.0001 0 1 0 1.914062-.5761s-1.065459-3.5532-1.654297-7.1387c-.294419-1.7928-.459221-3.5991-.341796-4.8731.05871-.637.195475-1.1322.339843-1.3964s.19919-.2917.361328-.3184c.585185-.097 1.318826.149 2.142579.748.823752.5991 1.678127 1.513 2.421874 2.4629 1.487498 1.8998 2.533204 3.9024 2.533204 3.9024a1.0001 1.0001 0 1 0 1.773437-.9238s-1.106069-2.1339-2.732422-4.211c-.813176-1.0386-1.756581-2.074-2.820312-2.8476-.930765-.6769-1.999872-1.182-3.146485-1.1504zm24.332032 0c-1.146613-.032-2.21572.4735-3.146485 1.1504-1.063731.7736-2.007136 1.809-2.820312 2.8476-1.626353 2.0771-2.732422 4.211-2.732422 4.211a1.0001 1.0001 0 1 0 1.773437.9238s1.045705-2.0026 2.533204-3.9024c.743747-.9499 1.598123-1.8638 2.421874-2.4629.823753-.599 1.557394-.8446 2.142579-.748.162138.027.21696.054.361328.3184.144368.2642.281132.7594.339843 1.3964.117424 1.274-.04738 3.0803-.341796 4.8731-.588838 3.5855-1.654297 7.1387-1.654297 7.1387a1.0001 1.0001 0 1 0 1.914062.5761s1.095921-3.6338 1.712891-7.3906c.308485-1.8784.508582-3.7831.361328-5.3808-.07363-.7988-.227129-1.5295-.578125-2.1719-.350996-.6423-.997346-1.2011-1.791016-1.3321-.166781-.027-.332292-.042-.496093-.047zm-23.816407 19.6953c-4.1202833-.0006-9.5878903 1.3672-9.5878902 1.3672a1.0001 1.0001 0 1 0  .4765624 1.9414s5.4500589-1.3091 9.1113278-1.3086c1.573075.0002 2.98084.2575 4.070313.5371-.629293-.1156-1.310866-.2155-2.066406-.2559-.976278-.052-2.03859-.016-3.132813.1719-3.7727734.6489-7.7265624 3.0234-7.7265624 3.0234a1.0001 1.0001 0 1 0 1.0117188 1.7227s3.8799482-2.2299 7.0546876-2.7754c1.840733-.3164 3.66251-.1192 4.990234.168.3447.075.651274.1548.919922.2324-.637722-.1478-1.341378-.2725-2.080078-.2617-4.313087.063-7.1191406 3.0898-7.1191406 3.0898a1.0003568 1.0003568 0 1 0 1.4570312 1.3711s2.3075714-2.4116 5.6914064-2.4609c1.331408-.019 3.197266.6992 3.197266.6992a1.0001 1.0001 0 1 0  .765624-1.8477s-.126041-.05-.220703-.088a1.0001 1.0001 0 0 0  .08203-.018c.03977-.01.138199-.047.138671-.047.000473-.0002.181287-.098.181641-.098.000354-.0002.208748-.1891.208985-.1894.000236-.0002.169802-.2984.169921-.2988.00012-.0003.06054-.3317.06055-.3321.000004-.0004-.03504-.2711-.03516-.2715-.000113-.0004-.06813-.1851-.06836-.1855-.000229-.0005-.04812-.087-.07031-.1191-.177566-.2604-.239713-.2517-.292969-.2871-.106511-.071-.159849-.092-.230468-.125-.02612-.012-.06953-.027-.09766-.039a1.0007209 1.0007209 0 0 0  .207032-1.8887s-3.108481-1.4271-7.066407-1.4277zm23.300782 0c-3.957926.0006-7.066407 1.4277-7.066407 1.4277a1.0007209 1.0007209 0 0 0  .205078 1.8887c-.0276.012-.07003.027-.0957.039-.07062.033-.123957.054-.230468.125-.05326.035-.115403.027-.292969.2871-.0222.033-.07008.1186-.07031.1191-.000228.0004-.06825.1851-.06836.1855-.000113.0004-.03516.2711-.03516.2715.000003.0004.06043.3318.06055.3321.000119.0004.169685.2986.169921.2988.000237.0003.208631.1892.208985.1894s.181168.097.181641.098c.000471.0002.09891.037.138671.047a1.0001 1.0001 0 0 0  .08203.018c-.09466.038-.220703.088-.220703.088a1.0001 1.0001 0 1 0  .765624 1.8477s1.865858-.7185 3.197266-.6992c3.383835.049 5.691406 2.4609 5.691406 2.4609a1.0003571 1.0003571 0 1 0 1.457032-1.3711s-2.806054-3.027-7.119141-3.0898c-.7387-.011-1.442356.1139-2.080078.2617.268648-.078.575222-.1578.919922-.2324 1.327724-.2872 3.149501-.4844 4.990234-.168 3.174739.5455 7.054688 2.7754 7.054688 2.7754a1.0001 1.0001 0 1 0 1.011718-1.7227s-3.953789-2.3745-7.726562-3.0234h-.002c-1.093502-.1878-2.155189-.2241-3.13086-.1719-.760133.041-1.445928.1412-2.078125.2578 1.090905-.2807 2.503528-.5388 4.082032-.539 3.661269-.0005 9.111328 1.3086 9.111328 1.3086a1.0001 1.0001 0 1 0  .476562-1.9414s-5.467606-1.3678-9.58789-1.3672z" fill-rule="evenodd" opacity=".1"/><g fill="none" stroke="#3f3f3f" stroke-linecap="round" stroke-linejoin="round" stroke-width="2"><path d="m12 1100.5197s-4.3232319-14.3692-.5-15c3.838879-.6333 8.14714 7.6373 8.14714 7.6373"/><path d="m19 1106.5197s-2.931452-1.3375-6.649636-1.338c-3.8907769-.0006-9.350364 1.338-9.350364 1.338"/><path d="m19 1108.5197c.151108-.038-3.579748-1.592-7.608926-.8994-3.4740405.597-7.391074 2.8994-7.391074 2.8994"/><path d="m19 1110.5197s-1.93138-.8004-3.594741-.7762c-3.848461.056-6.405259 2.7762-6.405259 2.7762"/></g><ellipse cx="19" cy="1100.02" fill="#3f3f3f" rx="3" ry="3.5"/><ellipse cx="20" cy="1101.02" opacity=".2" rx="1" ry="1.5"/><ellipse cx="20" cy="1100.02" fill="#fff" rx="1" ry="1.5"/><g fill="none" stroke="#3f3f3f" stroke-linecap="round" stroke-linejoin="round" stroke-width="2"><path d="m36 1100.5197s4.323232-14.3692.5-15c-3.838879-.6333-8.14714 7.6373-8.14714 7.6373"/><path d="m29 1106.5197s2.931452-1.3375 6.649636-1.338c3.890777-.0006 9.350364 1.338 9.350364 1.338"/><path d="m29 1108.5197c-.151108-.038 3.579748-1.592 7.608926-.8994 3.47404.597 7.391074 2.8994 7.391074 2.8994"/><path d="m29 1110.5197s1.93138-.8004 3.594741-.7762c3.848461.056 6.405259 2.7762 6.405259 2.7762"/></g><g transform="scale(1 -1)"><ellipse cx="29" cy="-1100.02" fill="#3f3f3f" rx="3" ry="3.5"/><ellipse cx="30" cy="-1101.02" opacity=".2" rx="1" ry="1.5"/><ellipse cx="30" cy="-1100.02" fill="#fff" rx="1" ry="1.5"/></g></g></svg>