<svg height="48" width="48" xmlns="http://www.w3.org/2000/svg"><path d="m-40.873671-41.998749 6.006879-2.001251h27.866792c1.108 0 2 .892 2 2v36c0 1.108-.892 2-2 2h-36c-1.108 0-2-.892-2-2v-30.460288l2.126329-3.538461c.570703-.949717.948804-1.649784 2-2z" opacity=".2" transform="matrix(0 -1 -1 0 0 0)"/><path d="m-40.686679-41.748593 6.132583-2.251407h28.554096c1.108 0 2 .892 2 2v36c0 1.108-.892 2-2 2h-36c-1.108 0-2-.892-2-2v-30.085053l1.313321-3.66354c.373901-1.043006.959878-1.618148 2-2z" fill="#e4e4e4" transform="matrix(0 -1 -1 0 0 0)"/><path d="m4 7v-1c0-1.108.892-2 2-2h36c1.108 0 2 .892 2 2v1c0-1.108-.892-2-2-2h-36c-1.108 0-2 .892-2 2z" fill="#fff" opacity=".2"/><path d="m12 10v7h1.556641c.112836-.31206.246966-.650301.423828-1.041016.297735-.670895.640947-1.302565 1.029297-1.894531.388349-.591966.808644-1.117707 1.261718-1.578125.200225-.203468.396789-.360566.589844-.486328h5.138672v22.113281 1.886719h-5v2h .496094 6.503906 6.503906.496094v-2h-5v-1.886719-22.113281h5.138672c.193055.125763.389619.28286.589844.486328.453074.460418.873369.986158 1.261718 1.578125.38835.591966.731562 1.223636 1.029297 1.894531.176862.390715.310993.728956.423828 1.041016h1.556641v-7h-1-10-1-1-10z" opacity=".1" transform="matrix(1.00000003 0 0 1 .000001 1)"/><path d="m12 10v7h1.556641c.112836-.31206.246966-.650301.423828-1.041016.297735-.670895.640947-1.302565 1.029297-1.894531.388349-.591966.808644-1.117707 1.261718-1.578125.200225-.203468.396789-.360566.589844-.486328h5.138672v22.113281 1.886719h-5v2h .496094 6.503906 6.503906.496094v-2h-5v-1.886719-22.113281h5.138672c.193055.125763.389619.28286.589844.486328.453074.460418.873369.986158 1.261718 1.578125.38835.591966.731562 1.223636 1.029297 1.894531.176862.390715.310993.728956.423828 1.041016h1.556641v-7h-1-10-1-1-10z" fill="#3261c2" transform="matrix(1.00000003 0 0 1 .000001 0)"/><circle cx="36" cy="36" opacity=".2" r="11"/><circle cx="36" cy="35" fill="#4f4f4f" r="11"/><path d="m30 38.326999v2.673001h2.6728l6.7507-6.750701-2.6728-2.6728zm11.788-6.4337c.28271-.28271.28271-.72818 0-1.0109l-1.6705-1.6705c-.28271-.28271-.72818-.28271-1.0109 0l-1.3964 1.405 2.6728 2.6728z" fill="#ffd000"/></svg>