<svg height="48" viewBox="0 0 48 48" width="48" xmlns="http://www.w3.org/2000/svg"><path d="m16.725326 5.0057428c-1.593856.065595-3.196115.6883979-4.33822 2.2402344l-5.4634533 7.4316398c-1.3011415 1.764801-1.1318272 4.356181-.088215 5.892578.7358388 1.083297 1.8771002 1.696846 3.1149714 2.052735v8.025391c-.0000004 3.839814 3.0865029 6.351562 6.5553589 6.351562h.93704c1.418028 0 2.720354-.508073 3.834414-1.269531l5.161562 7.023437c1.142103 1.551835 2.744367 2.174639 4.338219 2.240235.000632.000026.0013-.000026.002 0 1.76814.07319 3.566598-.517477 4.834184-2.240235l5.463453-7.43164.002-.0039c1.298272-1.764723 1.129161-4.353314.08626-5.888671-.735839-1.083297-1.8771-1.696847-3.114971-2.052735v-8.025391c-.000084-3.839824-3.086588-6.351569-6.555443-6.351569h-.93704c-1.418028 0-2.720354.508073-3.834414 1.269531l-5.161562-7.0234368c-1.267585-1.7227468-3.066065-2.3134182-4.834184-2.2402344h-.002z" opacity=".2"/><path d="m16.725326 4.0058594c-1.593856.065595-3.196115.6883979-4.33822 2.2402344l-5.4634533 7.4316402c-1.3011415 1.764801-1.1318272 4.356181-.088215 5.892578.7358388 1.083297 1.8771002 1.696846 3.1149714 2.052735v8.025391c-.0000004 3.839814 3.0865029 6.351562 6.5553589 6.351562h.93704c1.418028 0 2.720354-.508073 3.834414-1.269531l5.161562 7.023437c1.142103 1.551835 2.744367 2.174639 4.338219 2.240235.000632.000026.0013-.000026.002 0 1.76814.07319 3.566598-.517477 4.834184-2.240235l5.463453-7.43164.002-.0039c1.298272-1.764723 1.129161-4.353314.08626-5.888671-.735839-1.083297-1.8771-1.696847-3.114971-2.052735v-8.025391c-.000084-3.839824-3.086588-6.351569-6.555443-6.351569h-.93704c-1.418028 0-2.720354.508073-3.834414 1.269531l-5.161562-7.0234372c-1.267585-1.7227468-3.066065-2.3134182-4.834184-2.2402344h-.002z" fill="#4f4f4f"/><path d="m16.91801 9.0016532c-.524579.021523-.999727.2508486-1.26264.6094002l-5.444109 7.4341306c-.5995216.816162.148398 1.955889 1.344629 1.954703h2.445109v11.647877c0 1.303182 1.240046 2.352119 2.531661 2.352119h.934681c1.291614 0 2.554081-1.04913 2.531661-2.352119v-11.647877h2.445109c1.196231.0012 1.944149-1.138541 1.344629-1.954703l-5.444109-7.4341306c-.292214-.3986071-.843526-.6341074-1.426621-.6094002z" opacity=".2"/><path d="m16.91801 8.0017698c-.524579.021523-.999727.2508486-1.26264.6094002l-5.444109 7.434131c-.5995216.816162.148398 1.955889 1.344629 1.954703h2.445109v11.647877c0 1.303182 1.240046 2.352119 2.531661 2.352119h.934681c1.291614 0 2.554081-1.04913 2.531661-2.352119v-11.647877h2.445109c1.196231.0012 1.944149-1.138541 1.344629-1.954703l-5.444109-7.434131c-.292214-.3986071-.843526-.6341074-1.426621-.6094002z" fill="#ffd42b"/><path d="m30.53266 16.999876c-1.291614 0-2.554081 1.049129-2.531661 2.35212v11.64788h-2.445108c-1.196232-.0012-1.944152 1.138542-1.344629 1.954705l5.444109 7.434131c.262913.358552.73806.587878 1.26264.609401.583094.02471 1.134407-.210793 1.42662-.609401l5.444108-7.434131c.599522-.816163-.148398-1.955891-1.344629-1.954705h-2.445109v-11.64788c0-1.303184-1.240047-2.35212-2.53166-2.35212z" opacity=".2"/><path d="m30.53266 15.999993c-1.291614 0-2.554081 1.049129-2.531661 2.35212v11.64788h-2.445108c-1.196232-.0012-1.944152 1.138542-1.344629 1.954705l5.444109 7.434131c.262913.358552.73806.587878 1.26264.609401.583094.02471 1.134407-.210793 1.42662-.609401l5.444108-7.434131c.599522-.816163-.148398-1.955891-1.344629-1.954705h-2.445109v-11.64788c0-1.303184-1.240047-2.35212-2.53166-2.35212z" fill="#71d716"/><path d="m16.724609 4.0058594c-1.593856.065595-3.195785.6883978-4.33789 2.2402344l-5.4628909 7.4316402c-.7405784 1.004483-.9909086 2.273699-.8886719 3.466797.0790075-.874938.3533135-1.740664.8886719-2.466797l5.4628909-7.4316402c1.142105-1.5518366 2.744034-2.1746394 4.33789-2.2402344h.001953c1.76812-.0731838 3.5664.5174876 4.833985 2.2402344l5.162109 7.0234372c1.11406-.761458 2.415957-1.269531 3.833985-1.269531h.9375c3.468855 0 6.556556 2.511738 6.55664 6.351562v-1c-.000084-3.839823-3.087785-6.351562-6.55664-6.351562h-.9375c-1.418028 0-2.719925.508073-3.833985 1.269531l-5.162109-7.0234372c-1.267585-1.7227468-3.065865-2.3134182-4.833985-2.2402344zm21.326172 22.3710936v1c1.237871.355888 2.377443.969437 3.113281 2.052735.449129.661206.723173 1.519922.800782 2.421874.112557-1.250608-.186985-2.518245-.800782-3.421874-.735838-1.083298-1.87541-1.696847-3.113281-2.052735z" fill="#fff" opacity=".1"/></svg>