<svg height="48" width="48" xmlns="http://www.w3.org/2000/svg"><path d="m16 42-4-4h-5c-1.662 0-3-1.338-3-3v-24c0-1.662 1.338-3 3-3h34c1.662 0 3 1.338 3 3v24c0 1.662-1.338 3-3 3h-5l-4 4z" opacity=".2"/><path d="m16 41-4-4h-5c-1.662 0-3-1.338-3-3v-24c0-1.662 1.338-3 3-3h34c1.662 0 3 1.338 3 3v24c0 1.662-1.338 3-3 3h-5l-4 4z" fill="#afafb1"/><path d="m20 35-4.5-4h-5.5v-18h28v18h-6l-4 4z" opacity=".6"/><g fill="#f8c44e" transform="scale(1 -1)"><path d="m15-16h2v3h-2z"/><path d="m19-16h2v3h-2z"/><path d="m23-16h2v3h-2z"/><path d="m27-16h2v3h-2z"/><path d="m31-16h2v3h-2z"/></g><path d="m7 7c-1.662 0-3 1.338-3 3v1c0-1.662 1.338-3 3-3h34c1.662 0 3 1.338 3 3v-1c0-1.662-1.338-3-3-3z" fill="#fff" opacity=".2"/><path d="m10 31v1h5.5l4.5 4h8l4-4h6v-1h-6l-4 4h-8l-4.5-4z" fill="#fff" opacity=".2"/></svg>