<svg height="24" width="24" xmlns="http://www.w3.org/2000/svg" xmlns:xlink="http://www.w3.org/1999/xlink"><linearGradient id="a" gradientTransform="matrix(0 -1 -1 0 24 24)" gradientUnits="userSpaceOnUse" x1="7" x2="19" y1="12" y2="5"><stop offset="0" stop-color="#d3dae3" stop-opacity=".5"/><stop offset="1" stop-color="#d3dae3" stop-opacity="0"/></linearGradient><linearGradient id="b" gradientTransform="matrix(0 1 1 0 0 0)" gradientUnits="userSpaceOnUse" x1="7" x2="17" y1="12" y2="12"><stop offset="0" stop-color="#d3dae3"/><stop offset="1" stop-color="#d3dae3" stop-opacity=".5"/></linearGradient><path d="m12 5c-3.866 0-7 3.134-7 7s3.134 7 7 7v-2c-2.7614 0-5-2.239-5-5 0-2.7614 2.2386-5 5-5 1.3 0 1.3-2 0-2z" fill="url(#b)"/><path d="m12 5v2c2.761 0 5 2.2386 5 5 .754 0 1.431.296 1.955.764.028-.251.045-.505.045-.764 0-3.866-3.134-7-7-7zm1 11.871c-.324.074-.654.129-1 .129v2c .341 0 .673-.034 1-.082z" fill="url(#a)"/><path d="m17 13c-1.108 0-2 .91085-2 2.0312v.96875h-1v4h6v-4h-1v-.96875c0-1.12-.892-2.031-2-2.031zm0 1c .554 0 1 .4424 1 1v1h-2v-1c0-.5576.446-1 1-1z" fill="#d3dae3"/></svg>