<svg height="48" width="48" xmlns="http://www.w3.org/2000/svg"><rect height="26" opacity=".2" rx="2" width="40" x="4" y="17"/><path d="m4 34c0 1.108.892 2 2 2h36c1.108 0 2-.892 2-2v-22c0-1.108-.892-2-2-2h-20v-2c0-1.108-.892-2-2-2h-14c-1.108 0-2 .892-2 2" fill="#4d646f"/><rect height="26" opacity=".2" rx="2" width="40" x="4" y="15"/><rect fill="#e4e4e4" height="16" rx="2" width="36" x="6" y="13"/><rect fill="#607d8b" height="26" rx="2" width="40" x="4" y="16"/><path d="m6 6c-1.108 0-2 .892-2 2v1c0-1.108.892-2 2-2h14c1.108 0 2 .892 2 2v-1c0-1.108-.892-2-2-2zm16 4v1h20c1.108 0 2 .892 2 2v-1c0-1.108-.892-2-2-2z" fill="#fff" opacity=".1"/><path d="m26.985 21c-.744.035-1.646.581-2.18 1.313-.479.65-.899 1.687-.787 2.682.831.076 1.68-.495 2.197-1.227h-.002c.518-.733.867-1.752.772-2.768zm.215 4.009c-1.068.079-2.042.73-2.594.73-.629 0-1.604-.708-2.635-.689-1.355.02-2.605.78-3.303 1.982-1.407 2.42-.36 6.005 1.012 7.967.671.961 1.489 2.001 2.52 2.001s1.395-.647 2.617-.647 1.556.647 2.635.647 1.777-.998 2.443-1.962c.77-1.114 1.086-2.195 1.105-2.25-.025-.011-2.121-.805-2.142-3.197-.02-2.003 1.65-2.962 1.725-3.01-.938-1.359-2.4-1.547-2.92-1.568-.156-.016-.311-.016-.463-.004z" fill="#222c31"/></svg>