<svg height="32" width="32" xmlns="http://www.w3.org/2000/svg"><g transform="translate(43.820895 .716418)"><path d="m-22.633914 1.2835821h-13.65097c-3.066406 0-5.536011 2.4676663-5.536011 5.5340721v16.9299168c0 3.066406 2.469605 5.536011 5.536011 5.536011h16.929917c3.066406 0 5.534072-2.469605 5.534072-5.536011v-13.65097z" fill="#8f46ae" fill-rule="evenodd"/><path d="m-13.820895 10.096601-8.813019-8.8130188v3.2789473c0 3.0664056 2.467666 5.5340715 5.534072 5.5340715z" fill="#e4d3e7" fill-rule="evenodd"/></g><path d="m9.9995 10.955224v1h12v-1zm4.268 2 .018.486 3.43 4.514-3.715 4.445v.555h8v-2.777h-.572c0 .555.15.9-.338 1.232-.534.365-1.238.434-1.857.434h-2.947l2.857-3.889-2.857-4.445h1.68c1.191 0 2.886-.107 3.357 1.285.081.238.085.688.105.938h.572v-2.777zm-4.268 1v1h4v-1zm0 2v1h5v-1zm0 3v1h5v-1zm0 2v1h4v-1z" fill="#e4d3e7"/></svg>