<svg height="17pt" viewBox="0 0 17 17" width="17pt" xmlns="http://www.w3.org/2000/svg"><path d="m3.96875 1.007812h9.0625c1.632812 0 2.960938 1.328126 2.960938 2.960938v9.0625c0 1.632812-1.328126 2.960938-2.960938 2.960938h-9.0625c-1.632812 0-2.960938-1.328126-2.960938-2.960938v-9.0625c0-1.632812 1.328126-2.960938 2.960938-2.960938zm0 0" fill="#e6e6e6" fill-rule="evenodd"/><path d="m8.820312 6.183594c-.058593 0-.121093.003906-.15625.011718-.226562.039063-.410156.121094-.503906.238282-.074218.089844-.097656.199218-.058594.308594.003907.015624.007813.027343.003907.03125 0 0-.222657.027343-.496094.054687-.21875.023437-.339844.039063-.402344.046875-.007812.003906-.050781.007812-.054687.007812s-.035156.003907-.035156.003907c-.003907 0 0 .007812 0 .011719v.003906c.003906.023437.011718.066406.039062.152344.042969.148437.050781.179687.042969.179687 0 0-.023438-.015625-.046875-.03125-.101563-.074219-.195313-.109375-.292969-.113281-.109375-.003906-.175781.023437-.253906.101562-.003907 0-.003907 0-.007813 0-.039062.039063-.054687.058594-.078125.109375-.039062.078125-.054687.144531-.0625.234375-.003906.105469.019531.238282.054688.328125l.011719.027344h.054687c.132813 0 .238281-.171875.351563-.222656.078124-.019531.222656-.019531.320312 0 .347656.070312.613281.304687.597656.542969-.003906.0625-.023437.105468-.082031.164062-.046875.046875-.105469.085938-.210937.144531-.039063.019531-.097657.054688-.136719.074219-.039063.023438-.09375.054688-.125.074219-.054688.039062-.121094.097656-.121094.113281 0 .011719.03125.011719.179687-.003906.066407-.007813.117188-.015625.171876-.023438.265624-.039062.441406-.089844.582031-.179687.128906-.085938.230469-.222657.265625-.367188.007812-.019531.011718-.039062.015625-.039062.003906 0 .027343.015625.050781.027343.15625.097657.285156.132813.394531.109376.09375-.019532.1875-.078126.359375-.222657.042969-.039062.082032-.074219.085938-.074219s.039062.078126.082031.171876c.039063.089843.074219.171874.082031.179687.007813.007813.015625.011719.160156-.011719.082032-.015625.152344-.03125.15625-.035156.007813-.007812-.023437-.113281-.054687-.183594-.046875-.109375-.125-.207031-.222656-.269531-.054688-.039063-.140625-.078125-.28125-.132813-.152344-.054687-.230469-.09375-.300781-.140624-.070313-.046876-.140626-.109376-.132813-.121094.003906 0 .03125-.011719.054687-.019532.214844-.074218.363282-.214843.457032-.441406.039062-.09375.074218-.210937.125-.445312.023437-.109375.054687-.230469.066406-.269532.011719-.039062.019531-.078124.019531-.082031 0 0-.007812.003907-.007812.003907-.023438.003906-.144531.058593-.441407.210937-.246093.121094-.449218.222656-.453124.21875-.003907 0 .074218-.070313.171874-.15625.097657-.085937.1875-.164063.195313-.171875.003906-.003906.003906-.007812.007813-.015625 0-.007813.003906-.019531.003906-.046875 0-.050781 0-.054688-.019532-.0625-.011718-.003906-.0625-.003906-.125-.003906zm0 0" fill="#4f4f4f"/><path d="m11.082031 4.242188c-.070312.003906-.128906.039062-.183593.101562-.058594.074219-.089844.171875-.082032.261719.011719.128906.050782.234375.207032.542969.085937.167968.113281.238281.144531.375.039062.191406.058593.359374.054687.582031 0 .207031-.011718.355469-.042968.550781-.03125.171875-.078126.378906-.089844.375-.015625-.003906-.035156-.164062-.046875-.398438-.019531-.273437-.03125-.382812-.054688-.492187-.066406-.289063-.207031-.410156-.441406-.375-.066406.011719-.171875.042969-.183594.054687-.003906.003907.019531.089844.085938.277344.050781.148438.09375.269532.09375.273438 0 .007812-.039063.023437-.046875.015625-.003906-.003907-.039063-.058594-.082032-.117188-.085937-.125-.128906-.183593-.1875-.253906-.160156-.1875-.328124-.277344-.507812-.269531-.066406.003906-.164062.027344-.179688.042968-.011718.007813-.007812.023438.210938.832032l.230469.824218-.050781.503907c-.027344.28125-.054688.515625-.058594.523437-.003906.011719-.007813.011719-.097656.011719-.050782 0-.15625-.003906-.230469-.007813-.167969-.011718-.375-.011718-.445313-.003906-.070312.011719-.175781.039063-.273437.070313-.304688.105469-.570313.289062-.792969.554687-.207031.242188-.378906.554688-.550781.980469-.050781.128906-.164063.4375-.191407.523437-.0625.207032-.097656.425782-.105468.660157-.003906.214843.011718.386719.054687.566406.050781.207031.128907.367187.234375.503906.027344.03125.054688.0625.082032.089844 0 .003906.003906.003906.003906.003906s.003906.003907.003906.003907c.136719.140624.285156.21875.472656.257812.136719.027344.371094.03125.371094.007812 0-.007812-.039062-.128906-.089844-.273437-.050781-.144531-.089844-.261719-.089844-.265625 0-.007812.023438-.023438.035157-.023438.003906 0 .035156.042969.070312.097657.140625.214843.25.339843.375.421875.070313.050781.167969.089844.246094.101562.046875.007813.160156.007813.207031-.003906.054688-.011719.113282-.03125.121094-.039062l-.367188-.597657c.242188.183594.554688.367188.777344.429688.277344.078125.539063.039062.738282-.113281.0625-.046876.128906-.109376.125-.121094 0-.003906-.230469-.101563-.515626-.21875-.28125-.113282-.511718-.214844-.511718-.21875-.003906-.011719.21875.003906.457031.027344.078125.007812.203125.023437.28125.03125.25.027343.304687.03125.476563.03125.179687 0 .257812-.007813.398437-.039063.214844-.042969.441406-.152344.632813-.292969.074218-.058594.113281-.09375.109374-.101562-.003906-.003906-.304687-.003906-.890624 0-.601563.003906-.875 0-.882813-.003906-.003906 0-.007813.003906-.007813 0-.003906-.003907.0625-.179688.070313-.191407.003906 0 .027344.007813.046875.019531.40625.242188 1.28125.179688 1.914062-.136718.179688-.089844.300782-.175782.417969-.296875.140625-.140625.226563-.296875.238281-.445313.003907-.042968 0-.046875-.011718-.046875-.011719 0-.234375.0625-.351563.097657-.042969.015624-.15625.050781-.25.078124-.613281.195313-.867187.25-1.199219.253907-.191406.003906-.363281-.007813-.355468-.023438.003906-.019531.261718-.109375.4375-.152343.152344-.039063.230468-.054688.578125-.125.515625-.105469.703125-.152344.933593-.242188.480469-.191406.753907-.503906.839844-.960938.019532-.117187.035156-.324218.019532-.324218-.003907 0-.25.140625-.550782.308594-.300781.167968-.550781.300781-.554687.300781-.007813-.007813-.042969-.085938-.039063-.089844.003906 0 .042969-.023437.089844-.046875.230469-.125.40625-.253906.597656-.445312.355469-.355469.5625-.761719.613282-1.203126.011718-.117187.007812-.332031-.007813-.441406-.023437-.125-.074219-.316406-.089844-.320312-.003906 0-.21875.308594-.476562.6875-.539063.796875-.566407.835937-.570313.832031-.007812-.007813.117188-.234375.335938-.59375.09375-.15625.191406-.324219.222656-.375.066406-.125.164062-.328125.203125-.425781.128906-.339844.148437-.628906.058594-.90625-.027344-.078125-.09375-.207032-.140625-.285156-.050782-.074219-.125-.167969-.132813-.167969-.003906.003906-.152343.351562-.328125.777343l-.320312.773438-.449219.761719c-.445313.765625-.464844.804687-.472656.796875-.003907-.003906.039062-.117188.082031-.21875.101562-.261719.210938-.46875.507812-.976563.1875-.324219.273438-.472656.347657-.625.238281-.472656.351562-.851562.382812-1.265625.003907-.085937.003907-.125 0-.179687-.03125-.285157-.132812-.644531-.238281-.84375-.0625-.117188-.144531-.207031-.214844-.242188-.03125-.015625-.042968-.019531-.09375-.019531-.050781 0-.0625.003906-.101562.023438-.101563.046874-.128906.117187-.128906.304687 0 .101563.007812.179687.039062.40625l.023438.15625-.003907.179687c-.003906.179688-.007812.238282-.023437.402344-.042969.367188-.140625.785156-.289063 1.234375-.054687.167969-.136719.402344-.144531.414063-.019531.035156.03125-.207032.136719-.640625.171875-.710938.214843-.964844.222656-1.324219.003906-.246094-.011719-.417969-.058594-.621094-.027343-.121094-.039062-.152344-.078125-.234375-.113281-.230469-.3125-.472656-.476562-.578125-.082032-.054687-.160156-.078125-.226563-.074218zm0 0" fill="#7767c0"/><path d="m7.761719 8.058594c-.25.03125-.5.09375-.738281.175781-.25.089844-.496094.210937-.679688.40625-.011719.023437-.082031.074219-.054688.085937.269532-.070312.648438-.175781.902344-.25.070313-.019531.121094-.035156.183594-.050781.109375-.03125.222656-.0625.332031-.09375l.078125-.027343c.023438-.027344.011719-.113282.011719-.164063-.003906-.027344.015625-.097656-.035156-.082031zm0 0" fill="#d54c41"/><path d="m4.640625 8.113281c-.007813-.003906-.125.011719-.171875.023438-.136719.03125-.21875.113281-.265625.261719-.007813.027343-.015625.050781-.015625.058593 0 .011719.003906.011719.058594 0 .109375-.03125.199218-.082031.269531-.15625.054687-.058593.132813-.175781.125-.1875zm0 0" fill="#9182d7"/><path d="m5.066406 8.164062c-.070312.003907-.164062.027344-.222656.054688-.167969.078125-.269531.222656-.316406.453125-.023438.132813-.03125.207031-.03125.5625 0 .183594-.003906.339844-.007813.339844 0 .003906-.007812-.003907-.019531-.015625-.039062-.042969-.085938-.121094-.15625-.257813-.023438-.050781-.042969-.082031-.066406-.121093-.011719-.019532-.027344-.058594-.035156-.066407-.035157-.058593-.105469-.128906-.148438-.160156-.042969-.027344-.101562-.046875-.140625-.046875-.117187 0-.21875.105469-.25.257812-.03125.144532.027344.269532.148437.3125.019532.007813.050782.011719.109376.011719.046874.003907.085937.003907.089843.007813 0 .003906.011719.027344.019531.054687.027344.078125.09375.207031.191407.375.105469.175781.171875.304688.203125.382813.027344.085937.171875.640625.191406.75.019531.097656.023438.183594.015625.230468-.007813.019532-.023437.078126-.042969.125-.054687.128907-.058594.179688-.023437.28125.074219.207032.207031.34375.394531.421876.046875.019531.054688.023437.066406-.003907.023438-.0625.058594-.191406.070313-.285156.015625-.148437.003906-.253906-.074219-.597656-.035156-.160157-.0625-.351563-.050781-.351563.003906 0 .027343.015625.050781.035156.023438.019532.109375.085938.1875.144532.199219.15625.222656.175781.453125.402344.089844.085937.152344.144531.207031.191406.105469.097656.171875.136718.261719.167968.046875.015626.066406.019532.109375.019532.097656 0 .144531-.039063.148438-.136719.003906-.070313-.015626-.148437-.070313-.261719-.054687-.113281-.097656-.167968-.183594-.25-.097656-.09375-.1875-.160156-.484375-.351562-.25-.160156-.359375-.242188-.457031-.339844-.128906-.128906-.183594-.234375-.191406-.375-.003907-.113281.023437-.1875.097656-.261719.078125-.074219.160156-.117187.40625-.203125.257813-.089844.355469-.148437.398437-.234375.015626-.03125.015626-.039062.015626-.089843 0-.050782 0-.0625-.011719-.085938-.058594-.109375-.226563-.171875-.503907-.1875l-.070312-.003906-.234375.234375c-.128906.128906-.234375.230469-.234375.226562-.003906 0 .050781-.300781.121094-.667969.074218-.367187.132812-.671874.132812-.679687 0-.011719-.007812-.011719-.0625-.007813zm0 0" fill="#4f4f4f"/><g fill="#9182d7"><path d="m5.5625 8.59375.003906.019531c.003906.042969.027344.136719.042969.1875.054687.148438.148437.238281.304687.289063.035157.011718.054688.015625.058594.007812.003906-.011718-.011718-.152344-.023437-.203125-.035157-.152343-.125-.246093-.28125-.285156-.03125-.007813-.066407-.011719-.078125-.015625zm0 0"/><path d="m3.445312 9.226562c-.003906 0-.007812.007813-.011718.015626-.011719.027343-.027344.128906-.027344.167968 0 .105469.046875.1875.136719.25.035156.023438.039062.023438.039062.007813 0-.023438-.046875-.429688-.050781-.4375-.003906-.003907-.023438-.003907-.046875-.003907-.019531 0-.03125-.003906-.039063 0zm0 0"/><path d="m6.703125 10.566406c-.011719 0-.066406.054688-.09375.09375-.070313.105469-.125.265625-.160156.457032-.011719.070312-.011719.101562-.011719.25 0 .1875.003906.230468.039062.335937.039063.121094.105469.199219.183594.226563.011719.003906.035156.007812.050782.007812.097656.003906.1875-.105469.230468-.273438.035156-.140624.007813-.257812-.121094-.535156-.082031-.175781-.105468-.246094-.117187-.351562-.007813-.050782-.007813-.101563 0-.179688.003906-.023437.003906-.03125 0-.03125zm0 0"/><path d="m4.242188 11.726562c-.007813 0-.007813.015626.007812.085938.023438.109375.0625.175781.136719.214844.046875.023437.074219.03125.140625.042968.027344.003907.050781.007813.054687.007813.015625.003906.003907-.070313-.027343-.132813-.03125-.058593-.097657-.125-.167969-.160156-.050781-.027344-.132813-.058594-.144531-.058594zm0 0"/></g><path d="m7.507812 7.210938s.136719-.09375.257813-.089844c.140625.007812.238281.132812.238281.132812-.316406.195313-.496094-.042968-.496094-.042968zm0 0" fill="#d54c41"/><path d="m11.015625 4.242188c-.035156.003906-.066406.011718-.097656.027343.03125-.015625.0625-.023437.097656-.027343zm0 0"/><path d="m10.632812 5.769531c.015626.003907.03125.011719.042969.019531-.011719-.007812-.027343-.015624-.042969-.019531zm0 0"/><path d="m9.472656 5.785156c-.003906.007813 0 .042969.035156.171875-.035156-.128906-.039062-.164062-.035156-.171875zm0 0"/><path d="m10.738281 5.820312c.023438.011719.042969.03125.058594.054688-.015625-.023438-.035156-.042969-.058594-.054688zm0 0"/><path d="m10.820312 5.902344c.042969.0625.074219.136718.097657.238281.023437.109375.035156.21875.050781.492187.015625.234376.035156.394532.050781.398438 0 0 .003907-.011719.003907-.011719-.015626-.023437-.035157-.167969-.046876-.386719-.015624-.273437-.03125-.382812-.054687-.492187-.023437-.101563-.058594-.175781-.101563-.238281zm0 0"/><path d="m6.855469 7.089844c-.105469-.003906-.175781.023437-.25.101562.074219-.078125.144531-.105468.25-.101562zm0 0"/><path d="m8.089844 6.574219c-.003906.019531-.003906.039062-.003906.0625 0-.023438 0-.042969.003906-.0625zm0 0"/><path d="m8.085938 6.652344c0 .023437.003906.050781.011718.074218-.007812-.023437-.011718-.050781-.011718-.074218zm0 0"/><path d="m7.699219 8.070312c-.117188.019532-.230469.039063-.339844.066407.109375-.027344.222656-.046875.339844-.066407zm0 0"/><path d="m4.570312 11.675781c-.027343-.089843-.023437-.140625.027344-.261719-.050781.121094-.054687.171876-.027344.261719zm0 0"/><path d="m5.066406 8.164062c-.039062.003907-.078125.007813-.117187.019532.039062-.011719.078125-.015625.117187-.019532zm0 0"/><path d="m4.375 8.171875c-.027344.011719-.050781.03125-.070312.054687.019531-.023437.042968-.042968.070312-.054687zm0 0"/><path d="m3.921875 8.90625c-.003906 0-.003906 0-.003906 0 .039062 0 .097656.023438.136719.046875.046874.03125.117187.101563.152343.160156.007813.007813.023438.046875.035157.066407.019531.039062.039062.070312.066406.121093.066406.136719.117187.214844.152344.257813.011718.011718.019531.019531.023437.015625v-.003907c-.003906 0-.007813-.003906-.015625-.011718-.039062-.042969-.085938-.121094-.15625-.257813-.023438-.050781-.046875-.082031-.066406-.121093-.011719-.019532-.027344-.058594-.035156-.066407-.035157-.058593-.101563-.128906-.148438-.160156-.042969-.023437-.101562-.046875-.140625-.046875zm0 0"/><path d="m3.917969 8.90625c-.027344 0-.058594.007812-.082031.019531.023437-.011719.054687-.019531.082031-.019531zm0 0"/><path d="m3.828125 8.933594c-.023437.011718-.046875.027344-.066406.046875.019531-.019531.042969-.035157.066406-.046875zm0 0"/><path d="m3.667969 9.25c0 .023438.003906.046875.011719.070312-.007813-.023437-.011719-.046874-.011719-.070312zm0 0"/><path d="m5.0625 10.320312c.015625.027344.035156.058594.058594.085938-.023438-.027344-.042969-.054688-.058594-.085938zm0 0"/></svg>