<svg height="17pt" viewBox="0 0 17 17" width="17pt" xmlns="http://www.w3.org/2000/svg"><path d="m3.96875 1.007812h9.0625c1.632812 0 2.960938 1.328126 2.960938 2.960938v9.0625c0 1.632812-1.328126 2.960938-2.960938 2.960938h-9.0625c-1.632812 0-2.960938-1.328126-2.960938-2.960938v-9.0625c0-1.632812 1.328126-2.960938 2.960938-2.960938zm0 0" fill="#e3ac33" fill-rule="evenodd"/><path d="m8.636719 3.195312c-.050781.152344-.097657.285157-.15625.46875-.183594.617188-.363281 1.371094-.359375 1.796876 0 .410156.179687 1.136718.363281 1.726562.046875.148438.070313.207031.113281.324219.054688-.109375.078125-.167969.148438-.304688.300781-.574219.675781-1.234375 1.09375-1.65625.433594-.4375 1.117187-.835937 1.707031-1.152343.074219-.039063.125-.0625.195313-.097657-.890626-.6875-1.980469-1.078125-3.105469-1.105469zm-.8125.042969c-1.117188.140625-2.160157.636719-2.980469 1.410157.070312.144531.132812.269531.222656.4375.300782.5625.707032 1.222656 1.019532 1.535156.308593.3125.992187.742187 1.578124 1.066406.089844.050781.152344.078125.230469.121094-.046875-.136719-.078125-.214844-.132812-.394532-.195313-.617187-.398438-1.351562-.398438-1.949218-.003906-.613282.195313-1.375.390625-2.019532.027344-.082031.046875-.132812.070313-.207031zm4.527343 1.605469c-.144531.070312-.273437.132812-.445312.226562-.566406.300782-1.226562.710938-1.527344 1.011719-.285156.292969-.675781.929688-.960937 1.476563-.074219.140625-.097657.199218-.152344.3125.113281-.039063.191406-.070313.320313-.109375.617187-.195313 1.351562-.398438 1.949218-.398438.613282-.003906 1.375.195313 2.019532.390625.082031.027344.132812.046875.207031.070313-.140625-1.117188-.636719-2.164063-1.410157-2.980469zm-8.050781.414062c-.6875.890626-1.078125 1.980469-1.105469 3.105469.148438.050781.28125.09375.460938.152344.613281.183594 1.367188.363281 1.808594.363281.441406.003906 1.226562-.175781 1.871094-.363281.066406-.019531.109374-.035156.171874-.054687-.074218-.039063-.128906-.0625-.210937-.109376-.609375-.335937-1.3125-.75-1.75-1.195312-.4375-.441406-.835937-1.121094-1.152344-1.710938-.039062-.074218-.058593-.121093-.09375-.1875zm7.238281 2.863282c-.410156 0-1.136718.179687-1.726562.363281-.136719.042969-.210938.074219-.324219.109375.105469.054688.179688.089844.304688.152344.574219.300781 1.234375.675781 1.65625 1.09375.4375.433594.835937 1.117187 1.152343 1.707031.039063.074219.0625.125.097657.195313.6875-.890626 1.078125-1.980469 1.105469-3.105469-.152344-.050781-.285157-.097657-.46875-.15625-.617188-.183594-1.371094-.363281-1.796876-.359375zm-3.765624 1.054687c-.082032.023438-.136719.042969-.226563.070313-.671875.195312-1.460937.394531-2.085937.390625-.617188 0-1.382813-.203125-2.023438-.394531-.078125-.023438-.125-.042969-.199219-.066407.140625 1.117188.636719 2.160157 1.410157 2.980469.144531-.070312.269531-.132812.4375-.222656.5625-.300782 1.222656-.707032 1.535156-1.019532.3125-.308593.742187-.992187 1.066406-1.578124.035156-.0625.054688-.105469.085938-.160157zm1.421874.121094c.019532.058594.03125.097656.050782.15625.195312.671875.394531 1.460937.390625 2.085937 0 .617188-.203125 1.382813-.394531 2.023438-.023438.078125-.042969.125-.066407.199219 1.117188-.140625 2.164063-.636719 2.980469-1.410157-.070312-.144531-.132812-.273437-.226562-.445312-.300782-.566406-.710938-1.226562-1.011719-1.527344-.292969-.285156-.929688-.675781-1.476563-.960937-.101562-.050781-.15625-.074219-.246094-.121094zm-.734374.195313c-.039063.070312-.0625.128906-.109376.210937-.335937.609375-.75 1.3125-1.195312 1.75-.441406.4375-1.121094.835937-1.710938 1.152344-.074218.039062-.121093.058593-.1875.09375.890626.6875 1.980469 1.078125 3.105469 1.105469.050781-.148438.09375-.28125.152344-.460938.183594-.613281.363281-1.367188.363281-1.808594.003906-.441406-.175781-1.226562-.363281-1.871094-.019531-.066406-.035156-.109374-.054687-.171874zm0 0" fill="#383838"/><path d="m10.625 8.5c0 1.171875-.953125 2.125-2.125 2.125s-2.125-.953125-2.125-2.125.953125-2.125 2.125-2.125 2.125.953125 2.125 2.125zm0 0" fill="#ccc"/></svg>