<svg height="17pt" viewBox="0 0 17 17" width="17pt" xmlns="http://www.w3.org/2000/svg"><path d="m3.96875 1.007812h9.0625c1.632812 0 2.960938 1.328126 2.960938 2.960938v9.0625c0 1.632812-1.328126 2.960938-2.960938 2.960938h-9.0625c-1.632812 0-2.960938-1.328126-2.960938-2.960938v-9.0625c0-1.632812 1.328126-2.960938 2.960938-2.960938zm0 0" fill="#6296ff" fill-rule="evenodd"/><path d="m10.339844 5.765625c-.488282-.488281-1.238282-.527344-1.679688-.085937l-3.585937 3.582031c-.292969.296875-.523438.527343-.398438.929687l-1.328125 1.328125c-.441406.441407-.222656 1.367188.265625 1.855469.492188.492188 1.417969.707031 1.859375.265625l1.328125-1.324219c.402344.125.632813-.105468.929688-.398437l3.582031-3.585938c.441406-.441406.402344-1.191406-.085938-1.679687zm0 0" fill="#e6e6e6"/><path d="m12.996094 3.660156.355468.351563c.78125.78125.699219 2.128906-.179687 3.011719l-1.59375 1.589843c-.878906.882813-2.226563.960938-3.007813.179688l-.355468-.355469c-.78125-.78125-.699219-2.128906.179687-3.007812l1.59375-1.59375c.878907-.878907 2.226563-.960938 3.007813-.175782zm0 0" fill="#ffbc48"/><path d="m7.53125 5.097656 4.378906 4.378906c.113282.109376.101563.300782-.019531.421876l-.886719.882812c-.121094.125-.308594.132812-.417968.023438l-4.382813-4.378907c-.109375-.113281-.101563-.300781.023437-.421875l.882813-.886718c.125-.121094.3125-.128907.421875-.019532zm0 0" fill="#ffbc48"/><path d="m7.332031 9.675781c.292969.292969.351563.710938.132813.929688l-2.390625 2.390625c-.21875.21875-.636719.160156-.929688-.132813s-.351562-.710937-.132812-.929687l2.390625-2.390625c.21875-.21875.636718-.160157.929687.132812zm0 0" fill="#6296ff"/></svg>