<svg height="22" viewBox="0 0 16 16" width="22" xmlns="http://www.w3.org/2000/svg"><path d="m3.7333332 3.3454546s-1.5515152 0-1.5515152 1.5515151v6.2060603c0 1.551515 1.5515152 1.551515 1.5515152 1.551515h8.5333328s1.551516 0 1.551516-1.551515v-6.2060603c0-1.5515151-1.551516-1.5515151-1.551516-1.5515151zm.1939393 1.5515151h1.1636364c.1074424 0 .1939394.086497.1939394.1939394v1.1636363c0 .1074424-.086497.1939394-.1939394.1939394h-1.1636364c-.1074424.0000001-.1939393-.086497-.1939393-.1939394v-1.1636363c0-.1074424.086497-.1939394.1939393-.1939394zm2.3272728 0h1.1636363c.1074425 0 .1939394.086497.1939394.1939394v1.1636363c0 .1074424-.086497.1939394-.1939394.1939394h-1.1636363c-.1074425.0000001-.1939394-.086497-.1939394-.1939394v-1.1636363c0-.1074424.086497-.1939394.1939394-.1939394zm2.3272727 0h1.1636364c.1074424 0 .1939394.086497.1939394.1939394v1.1636363c0 .1074424-.086497.1939394-.1939394.1939394h-1.1636364c-.1074424.0000001-.1939394-.086497-.1939394-.1939394v-1.1636363c0-.1074424.086497-.1939394.1939394-.1939394zm2.327273 0h1.163636c.107443 0 .193939.086497.193939.1939394v1.1636363c0 .1074424-.0865.1939394-.193939.1939394h-1.163636c-.107443.0000001-.19394-.086497-.19394-.1939394v-1.1636363c0-.1074424.0865-.1939394.19394-.1939394zm-6.9818185 2.3272727h1.1636364c.1074424 0 .1939394.086497.1939394.1939394v1.1636364c0 .1074423-.086497.1939393-.1939394.1939393h-1.1636364c-.1074424 0-.1939393-.0865-.1939393-.1939393v-1.1636364c0-.1074424.086497-.1939394.1939393-.1939394zm2.3272728 0h1.1636363c.1074425 0 .1939394.086497.1939394.1939394v1.1636364c0 .1074423-.086497.1939393-.1939394.1939393h-1.1636363c-.1074425 0-.1939394-.0865-.1939394-.1939393v-1.1636364c0-.1074424.086497-.1939394.1939394-.1939394zm2.3272727 0h1.1636364c.1074424 0 .1939394.086497.1939394.1939394v1.1636364c0 .1074423-.086497.1939393-.1939394.1939393h-1.1636364c-.1074424 0-.1939394-.0865-.1939394-.1939393v-1.1636364c0-.1074424.086497-.1939394.1939394-.1939394zm2.327273 0h1.163636c.107443 0 .193939.086497.193939.1939394v1.1636364c0 .1074423-.0865.1939393-.193939.1939393h-1.163636c-.107443 0-.19394-.0865-.19394-.1939393v-1.1636364c0-.1074424.0865-.1939394.19394-.1939394zm-5.4303033 2.3272731h5.0424243c.107442 0 .193939.0865.193939.193939v1.1636355c0 .107443-.0865.19394-.193939.19394h-5.0424243c-.1074424 0-.1939394-.0865-.1939394-.19394v-1.1636355c0-.107442.086497-.193939.1939394-.193939z" fill="#5c616c" stroke-width=".775758"/></svg>