<svg height="22" width="22" xmlns="http://www.w3.org/2000/svg"><path d="m13.999 14v6h5.1c.49858 0 .89996-.40138.89996-.89996v-5.1h-6z" fill="#9b26af"/><path d="m8 14h6v6h-6z" fill="#f34235"/><path d="m2 14v5.1c0 .499.4014.9.9.9h5.1v-6z" fill="#fe9700"/><path d="m2 8.5h6v6h-6z" opacity=".2"/><path d="m2 8h6v6h-6z" fill="#feac33"/><path d="m8 8.5h6v6h-6z" opacity=".2"/><path d="m8 8h6v6h-6z" fill="#f5685d"/><path d="m14 8.5h6v6h-6z" opacity=".2"/><path d="m14 8h6v6h-6z" fill="#af51bf"/><path d="m14 2.5v6h6v-5.1c0-.4986-.401-.9-.9-.9z" opacity=".2"/><path d="m14 2v6h6v-5.1c0-.4986-.401-.9-.9-.9z" fill="#c37dcf"/><path d="m8 2.5h6v6h-6z" opacity=".2"/><path d="m8 2h6v6h-6z" fill="#f88e86"/><path d="m2.9 2.5c-.4986 0-.9.4014-.9.9v5.1h6v-6z" opacity=".2"/><path d="m2.9 2c-.4986 0-.9.4014-.9.9v5.1h6v-6z" fill="#fec166"/><path d="m2.9004 2c-.4986 0-.9004.4018-.9004.9004v.5c0-.4986.4018-.9004.9004-.9004h16.2c.498 0 .9.4018.9.9004v-.5c0-.4986-.402-.9004-.9-.9004z" fill="#fff" opacity=".2"/><path d="m2 19.1v.5c0 .49858.40181.90039.90039.90039h16.2c.498 0 .9-.402.9-.9v-.5c0 .498-.402.9-.9.9h-16.2c-.4986 0-.9004-.402-.9004-.9z" opacity=".2"/></svg>