<svg height="22" width="22" xmlns="http://www.w3.org/2000/svg"><path d="m4 1.5c-.554 0-1 .446-1 1v18c0 .554.446 1 1 1h14c .554 0 1-.446 1-1v-13l-5.5-.5-.5-5.5z" opacity=".2"/><path d="m4 1c-.554 0-1 .446-1 1v18c0 .554.446 1 1 1h14c .554 0 1-.446 1-1v-13l-5.5-.5-.5-5.5z" fill="#00cc5c"/><path d="m4 1c-.554 0-1 .446-1 1v .5c0-.554.446-1 1-1h9v-.5z" fill="#fff" opacity=".2"/><path d="m13 1.5v5c0 .5525.448 1 1 1h5z" opacity=".2"/><path d="m13 1v5c0 .5525.448 1 1 1h5z" fill="#6ef1a8"/><path d="m15.999854 9.5c-1.367873 1.548636-4.183767 3.022619-5.961921 3.603064-4.7717901 1.884395-2.4951194 6.390452-2.4951194 6.390452 1.4475036-1.193724 7.9580164-9.174904 7.9580164-9.174904s-5.114537 7.302626-7.4355553 9.174904v.0039c6.2291333.115244 6.4784393-3.650792 6.9394613-5.949348.474147-2.363995.995118-4.048068.995118-4.048068z" opacity=".2"/><path d="m15.999854 8.9999998c-1.367873 1.5486362-4.183767 3.0226192-5.961921 3.6030642-4.7717901 1.884395-2.4951194 6.390452-2.4951194 6.390452 1.4475036-1.193724 7.9580164-9.174904 7.9580164-9.174904s-5.114537 7.302626-7.4355553 9.174904v.0039c6.2291333.115244 6.4784393-3.650792 6.9394613-5.949348.474147-2.363995.995118-4.0480682.995118-4.0480682z" fill="#fff"/></svg>