<svg height="22" width="22" xmlns="http://www.w3.org/2000/svg"><path d="m4 1.5c-.554 0-1 .446-1 1v18c0 .554.446 1 1 1h14c .554 0 1-.446 1-1v-13l-6-6z" opacity=".2"/><path d="m4 1c-.554 0-1 .446-1 1v18c0 .554.446 1 1 1h14c .554 0 1-.446 1-1v-13l-6-6z" fill="#e4e4e4"/><path d="m7.2910156 9.3s.6906348 2.263441.2695313 3.714844c-.4211031 1.451404-2.5605469 3.085938-2.5605469 3.085938s2.7940876.1548 3.8554688.845703 2.1406252 3.353515 2.1406252 3.353515 1.435544-2.933673 2.035156-3.353515c.599613-.41984 3.96875-.84961 3.96875-.84961s-2.462445-2.360664-2.671875-3.019531c-.209427-.658869.380859-3.775391.380859-3.775391s-2.216082 1.691407-3.773437 1.691407c-1.557356 0-3.6445314-1.69336-3.6445314-1.69336zm1.7382814 2.779297c.561635.234377 1.182205.414063 1.90625.414063.700735 0 1.311384-.165241 1.867187-.384766-.03011.446201-.121747.737751.0957 1.421875.231039.726852.482941.893943.78125 1.253906.08561.103302.187354.207689.279296.3125-.138165.03014-.283612.05113-.416015.08399-.458276.113721-.780875.122479-1.373047.537109-.59199.414505-.711114.720047-.964844 1.107422-.06011.09176-.114533.195238-.173828.291016-.327398-.512507-.723761-1.01331-1.357418-1.425787-.551506-.359001-1.0781418-.37704-1.6230468-.505859.3874487-.487975.7429246-1.040925.9492188-1.751953.146063-.503432.0241-.889794.0293-1.353516z" fill-rule="evenodd" opacity=".1"/><path d="m7.2910156 8.8s.6906348 2.263441.2695313 3.714844c-.4211031 1.451404-2.5605469 3.085938-2.5605469 3.085938s2.7940876.1548 3.8554688.845703 2.1406252 3.353515 2.1406252 3.353515 1.435544-2.933673 2.035156-3.353515c.599613-.41984 3.96875-.84961 3.96875-.84961s-2.462445-2.360664-2.671875-3.019531c-.209427-.658869.380859-3.775391.380859-3.775391s-2.216082 1.691407-3.773437 1.691407c-1.557356 0-3.6445314-1.69336-3.6445314-1.69336zm1.7382814 2.779297c.561635.234377 1.182205.414063 1.90625.414063.700735 0 1.311384-.165241 1.867187-.384766-.03011.446201-.121747.737751.0957 1.421875.231039.726852.482941.893943.78125 1.253906.08561.103302.187354.207689.279296.3125-.138165.03014-.283612.05113-.416015.08399-.458276.113721-.780875.122479-1.373047.537109-.59199.414505-.711114.720047-.964844 1.107422-.06011.09176-.114533.195238-.173828.291016-.327398-.512507-.723761-1.01331-1.357418-1.425787-.551506-.359001-1.0781418-.37704-1.6230468-.505859.3874487-.487975.7429246-1.040925.9492188-1.751953.146063-.503432.0241-.889794.0293-1.353516z" fill="#d6342a" fill-rule="evenodd"/><path d="m19 7.5-6-6v5c0 .554.446 1 1 1z" opacity=".2"/><path d="m19 7-6-6v5c0 .554.446 1 1 1z" fill="#fafafa"/><path d="m4 1c-.554 0-1 .446-1 1v .5c0-.554.446-1 1-1h9v-.5z" fill="#fff" opacity=".2"/></svg>