<svg height="22" width="22" xmlns="http://www.w3.org/2000/svg"><rect height="20" opacity=".2" rx="1" transform="matrix(0 -1 -1 0 0 0)" width="20" x="-21.5" y="-21"/><rect fill="#d2d2d2" height="20" rx="1" transform="matrix(0 -1 -1 0 0 0)" width="20" x="-21" y="-21"/><path d="m2 1c-.554 0-1 .446-1 1v .5c0-.554.446-1 1-1h18c .554 0 1 .446 1 1v-.5c0-.554-.446-1-1-1z" fill="#fff" opacity=".2"/><path d="m2 7v8h2v-1.904297l1 1.904297h2l-.9472656-3h .9472656v-5zm6 0v8h2v-3h3v-5zm6 0v8h2v-3.5l.949219 1.5 1.050781-1.5v3.5h2v-8h-2l-1.050781 3-.949219-3zm-10 2h1v1h-1zm6 0h1v1h-1z" fill="#987d3b"/></svg>