<svg height="32" width="32" xmlns="http://www.w3.org/2000/svg"><rect fill="#02a8f3" fill-rule="evenodd" height="28.203388" ry="5.575182" width="28.203388" x="1.898306" y="1.898306"/><path d="m16 5.999999c-5.522848 0-10 4.477152-10 10 .0053 5.131615 3.894105 9.426293 9 9.939452v.06055h1c5.522847 0 9.999999-4.477152 10-9.999999 0-5.522848-4.477152-10-10-10.000003zm1 2.070312c.250625.03181.499602.07548.746094.13086.148639.252207.792409 1.39159 1.388672 3.11914-.627865.07372-1.342146.126884-2.134766.154297zm-2 .002v3.402343c-.79262-.02741-1.506901-.08058-2.134766-.154297.595269-1.72467 1.236456-2.862093 1.386719-3.117187.247136-.05545.496766-.09914.748047-.130905zm5.580078 1.373046c.536406.376953 1.02444.818415 1.453125 1.314454-.223231.06594-.521228.144108-.878906.224609-.183424-.566358-.379348-1.070909-.574219-1.539063zm-9.166016.0098c-.193377.465319-.38638.967401-.568359 1.529297-.359917-.081-.66099-.15841-.884765-.224609.429276-.492607.917286-.930767 1.453124-1.304688zm-2.59375 3.03711c.188316.06799.672346.219499 1.527344.414062-.172256.823137-.298796 2.189036-.332031 3.093671h-1.990234c.06559-1.044963.335673-2.566888.794921-3.507813zm14.363282 0c .46059.940622.732001 2.462531.798828 3.507733h-1.998047c-.03324-.904635-.159775-2.270534-.332031-3.093751.859121-.195501 1.345445-.346866 1.53125-.414062zm-10.861328.763591c.781567.104808 1.676049.180289 2.677734.214844v2.529298h-2.984375c.03448-.772898.150328-2.025793.306641-2.744142zm7.355468 0c .156313.718349.272161 1.971244.306641 2.744142h-2.984375v-2.529298c1.001685-.03455 1.896167-.110036 2.677734-.214844zm-11.529296 4.744142h1.9375c.105021.989428.310549 1.412215.552734 2.273436-.441456.135728-.815894.270218-1.125.394531-.680044-.944141-1.145953-1.52526-1.365234-2.667967zm3.951171 0h2.900391v1.541014c-.880727.04504-1.690003.133943-2.40625.263672-.209291-.723504-.391523-.991785-.494141-1.804686zm4.900391 0h2.900391c-.102618.812901-.28485 1.081182-.494141 1.804686-.716247-.129729-1.525523-.218636-2.40625-.263672zm4.914062 0h1.939454c-.219281 1.142707-.68519 1.723826-1.365235 2.667967-.309452-.12451-.68461-.25853-1.126953-.394531.242185-.861221.447713-1.284008.552734-2.273436zm-6.914062 3.53906v2.390626c-.250625-.03182-.499602-.07548-.746094-.13086-.117317-.19906-.520687-.908278-1.005859-2.09375.524268-.08043 1.11955-.132833 1.751953-.166016zm2 0c .632403.03318 1.227685.08558 1.751953.166016-.484147 1.182969-.885361 1.890548-1.003906 2.091797-.247137.05544-.496767.0991-.748047.130859zm-5.742188.611329c.05544.141597.106724.273225.16211.40625-.144813-.10269-.286167-.210171-.423828-.322266.08588-.02826.168376-.05567.261718-.08398zm9.484376 0c .09562.02901.179786.057.267578.08594-.137867.107467-.279218.210387-.423828.308594.05362-.129027.102585-.257481.15625-.394534z" fill="#fff"/><g transform="matrix(.625 0 0 .625 7.944079 8.192667)"><circle cx="24" cy="23" fill="#cc5e55" fill-rule="evenodd" r="8"/><path d="m23 19-.0882 1.0536a3.1429 3.1429 0 0 0 -.91852.53126l-.95759-.4509-1 1.7321.86941.6038a3.1429 3.1429 0 0 0 -.048.53013 3.1429 3.1429 0 0 0  .0457.53237l-.86719.60156 1 1.7321.95536-.44978a3.1429 3.1429 0 0 0  .92075.5279l.0882 1.0558h2l .0882-1.0536a3.1429 3.1429 0 0 0  .91854-.53126l.95758.4509 1-1.7321-.86942-.6038a3.1429 3.1429 0 0 0  .048-.53013 3.1429 3.1429 0 0 0 -.0457-.53237l.86719-.60156-1-1.7321-.95536.44978a3.1429 3.1429 0 0 0 -.921-.528l-.088-1.056h-2zm1 2.8572a1.1429 1.1429 0 0 1 1.143 1.143 1.1429 1.1429 0 0 1 -1.143 1.143 1.1429 1.1429 0 0 1 -1.143-1.143 1.1429 1.1429 0 0 1 1.143-1.143z" fill="#fff"/></g></svg>