<svg height="32" width="32" xmlns="http://www.w3.org/2000/svg"><rect fill="#4f4f4f" fill-rule="evenodd" height="28.203388" ry="5.575182" width="28.203388" x="1.898306" y="1.898306"/><g transform="translate(44.657895 12.789474)"><path d="m-35.430211.08938589a4.7894737 4.7894737 0 0 0 -4.004 4.71763161 4.7894737 4.7894737 0 0 0 4.789474 4.7894737 4.7894737 4.7894737 0 0 0 3.810026-1.8926403 6.385965 6.385965 0 0 1 -2.241473-1.0927983 2.3947369 2.3947369 0 0 1 -1.568553.5907018 2.3947369 2.3947369 0 0 1 -2.394737-2.3947369 2.3947369 2.3947369 0 0 1 1.524809-2.2310965 6.385965 6.385965 0 0 1 -.08733-1.0417105 6.385965 6.385965 0 0 1  .171782-1.44482461z" fill="#e16262"/><path d="m-30.653509-6.3684215a4.7894737 4.7894737 0 0 0 -4.789474 4.7894741 4.7894737 4.7894737 0 0 0  .269807 1.56216659 6.385965 6.385965 0 0 1 2.132913-1.41369289 2.3947369 2.3947369 0 0 1 -.008-.1484737 2.3947369 2.3947369 0 0 1 2.394737-2.3947369 2.3947369 2.3947369 0 0 1 2.394737 2.3947369 2.3947369 2.3947369 0 0 1 -.008.1500701 6.385965 6.385965 0 0 1 2.134509 1.41050009 4.7894737 4.7894737 0 0 0  .268211-1.56057019 4.7894737 4.7894737 0 0 0 -4.789474-4.7894741z" fill="#69db3e"/><circle cx="-30.653509" cy="-1.578947" fill="#a5e98c" r="1.596491"/><circle cx="-34.644737" cy="4.807018" fill="#eb9595" r="1.596491"/><circle cx="-24.267544" cy="6.403509" fill="#3facd2" r="6.385965"/><g fill="#fff"><circle cx="-24.267544" cy="4.807018" r="3.192982"/><path d="m-25.864035 5.605263h3.192982v3.192982h-3.192982z"/><path d="m-25.864035 9.596492h3.192982v.798246h-3.192982z"/></g></g></svg>