<svg height="32" width="32" xmlns="http://www.w3.org/2000/svg"><rect fill="#4d4d4d" fill-rule="evenodd" height="28.203388" ry="5.575182" width="28.203388" x="1.898306" y="1.898306"/><g transform="matrix(.71555526 0 0 .71555526 4.550901 4.192986)"><circle cx="16" cy="4" fill="#535353" r="1"/><path d="m15.986 4c-.07752 0-.14998.015273-.22536.021959-.09141.0082-.18437.010719-.27316.027449-.02436.00485-.0469.015045-.07102.020587-2.3565.50889-3.5542 3.9751-3.4111 7.2796-.0024.09668-.01501.20037-.015.29508l-9.7059 6.2214c-.18043.09015-.27556.24676-.28408.46801v3.1484c.0002256.18033.077561.32724.23218.44194.16333.10673.3396.13556.52856.08647l9.0292-2.8163 1.3986 6.5892-3.5879 1.6003c-.12029.11482-.18033.24621-.18029.39389l.2716 2.223 6.3079-1 6.3079 1 .27179-2.222c.000045-.14768-.06-.27907-.18028-.3939l-3.6166-1.6003 1.4272-6.5892 9.0306 2.8163c.18896.04909.36523.02025.52856-.08647.15462-.11469.23059-.2616.23082-.44194v-3.1484c-.0085-.22125-.10229-.37787-.28272-.46801l-9.707-6.222c.000004-.09472-.0076-.1984-.01-.29508.14312-3.3045-1.0597-6.7707-3.4161-7.2796-.02412-.00554-.04666-.015743-.07102-.020587-.08878-.01673-.18175-.01925-.27316-.027449-.07537-.00669-.14783-.021959-.22535-.021959-.0052 0-.0099.00134-.01502.00137-.0047-.0000202-.009-.00137-.01366-.00137z" fill="#fead00"/><path d="m9 13.560547-2 1.283203v5.845703l2-.623047zm14 0v6.503906l2 .625v-5.845703zm-17 1.923828-2 1.28125v4.859375l2-.623047zm20 0v5.517578l2 .623047v-4.857422z" fill="#fe5600"/><rect fill="#292929" height="1" rx=".625" ry="1" width="10" x="11" y="4"/><path d="m20 15.333c0 2.578-1.791 4.667-4 4.667s-4-2.089-4-4.667c0-2.577 1.791-3.333 4-3.333 2.2091 0 4 .756 4 3.3333z" fill="#292929"/></g></svg>