<svg height="32" width="32" xmlns="http://www.w3.org/2000/svg"><rect fill="#bda461" fill-rule="evenodd" height="28.203388" ry="5.575182" width="28.203388" x="1.898306" y="1.898306"/><g transform="translate(0 1.003483)"><path d="m8.8159328 11.133861c0 .727377.01992 1.554985.0544 2.198998h-1.593394c-.852772 0-1.539006.686088-1.539006 1.5393v6.486753c0 .852478.686234 1.502649 1.539006 1.502649h3.2254912c.72196 0 1.099499-.733 1.099499-.733 1.75033 1.465633 4.300362 1.465999 6.19326 1.465999 3.848248 0 8.466878-.1466 8.466878-12.460992zm-.664281 3.664998h.76877c.301996 3.039236.975476 5.094053 1.8668772 6.476711-.128056.07477-.271504.120212-.425214.120212h-2.2104332c-.524828 0-.947769-.490377-.947769-1.0995v-4.397997c0-.609123.422941-1.0995.947769-1.0995z" fill="#fff"/><path d="m22.43208 6.3984733s-1.091414 1.0588887-2.271753 1.4858413c-8.741029 3.1616174-5.054586 9.3228954-4.934353 9.3431564 0 0 .490155-.853579 1.152277-1.340406 4.201623-3.088779 5.055551-6.6441368 5.055551-6.6441368s-.94283 4.2781998-4.680743 6.9401968c-.825576.587643-1.384543 2.034545-1.62127 3.480711 0 0 .585207-.236439.836851-.300485.09813-.640379.303296-1.253577.650172-1.801317 5.224262.622001 6.935252-3.587556 7.158714-5.055428.528202-3.4670819-1.345832-6.1080972-1.345832-6.1080972z" fill="#5b6d40"/></g></svg>