<svg height="32" width="32" xmlns="http://www.w3.org/2000/svg"><rect fill="#ccc" fill-rule="evenodd" height="28.203388" ry="5.575182" width="28.203388" x="1.898306" y="1.898306"/><g transform="translate(0 -.5)"><path d="m9 7h14v8h-14z" fill="#4d4d4d" fill-rule="evenodd" stroke-miterlimit="3.429"/><path d="m9.8 19c-.3878 0-.7.312-.7.7l-.0000005 1.4h-1.4c-.3878.000001-.7.3122-.7.7l.0000001 1.4c-.0000002.3878.3122.7.7.7h1.4v1.4c0 .388.3122.7.7.7h1.4000004c.3878 0 .7-.3122.7-.7v-1.4l1.4-.000002c.388 0 .7-.312.7-.7v-1.4c0-.388-.312-.7-.7-.7l-1.4-.000001v-1.4c0-.3878-.3122-.7-.7-.7h-1.4000004z" fill="#4f4f4f"/><circle cx="23.5" cy="20.5" fill="#ef5646" r="1.5"/><circle cx="19.5" cy="20.5" fill="#ef5646" r="1.5"/><circle cx="23.5" cy="24.5" fill="#eb9200" r="1.5"/><circle cx="19.5" cy="24.5" fill="#eb9200" r="1.5"/></g></svg>