<svg height="32" width="32" xmlns="http://www.w3.org/2000/svg"><path d="m7.6777344 1.6953125c-3.0886508 0-5.5761719 2.4855679-5.5761719 5.5742187v17.0527348c0 1.18146.4461751 2.215446 1.0683594 3.115234.3942676-1.139327.6875807-2.461517.6875-4.314453-.0000844-1.935059-.2954633-4.404151-1.0546875-7.712891.8376127.431449 1.5994912.969941 2.2832031 1.59375.6837119.62381 1.2889711 1.33394 1.8105469 2.107422s.9612955 1.609768 1.3125 2.490234c.3512045.880467.6145113 1.803284.7871094 2.748047-.0000001 0 .382297-.186711.6367187-.912109.1272109-.362699.222924-.859246.2226563-1.535156-.0002678-.67591-.0964269-1.530394-.3515626-2.607422.6291888 1.396082 1.6902348 2.715817 2.6289058 3.722656.938672 1.006839 1.753513 1.700188 1.894532 1.84375.215354-.665262.570146-1.173321.953125-1.599609s.794001-.770566 1.126953-1.105469.587071-.661627.652344-1.052734c.065272-.391108-.056503-.846505-.476563-1.441407 1.347173.30948 2.368968.735622 3.150391 1.205079.781422.469456 1.321379.982161 1.703125 1.466796.763491.969271.893468 1.825126 1.054687 1.986328.375595-1.984835.695389-2.523734.789063-3.070312.093673-.546578-.037946-1.10087-.5625-3.117188 1.070242 1.951745 1.797895 2.911239 2.253906 3.169922.228006.129342.387866.084175.488281-.101562s.142677-.510762.132813-.939453c-.019729-.857383-.242633-2.128936-.59961-3.525391-.356976-1.396454-.848564-2.918811-1.404297-4.277344 1.528329 1.304081 2.725869 2.341676 3.636719 3.236328.91085.894653 1.535428 1.64593 1.917969 2.38086s.523394 1.452431.466797 2.277344c-.056597.824912-.312185 1.757274-.71875 2.921875 1.016163-1.216072 1.238229-1.51974 1.712891-2.173829v-13.8320308c0-3.0886508-2.485568-5.5742187-5.574219-5.5742187z" fill="#c94d48" fill-rule="evenodd"/><text x="-171.04793" y="-91.10849"><tspan x="-171.04793" y="-55.717865"/></text><g fill="#fff" transform="translate(38.166591 1.928052)"><g stroke="#fff" stroke-linecap="round"><text font-family="sans-serif" font-size="11.685688" letter-spacing="0" stroke-width=".4" transform="scale(1.0010502 .99895091)" word-spacing="0" x="19.676229" y="25.977591"><tspan fill="#fff" stroke="#fff" stroke-linecap="round" stroke-width=".4" x="19.676229" y="25.977591">B</tspan></text><g stroke-width="1.7"><path d="m8.0142103 18.070635v7.140878"/><path d="m16.392021 18.070635v7.140878"/><path d="m12.264603 18.070635v7.140878"/><path d="m16.49587 6.9199486-4.224047 4.2316304"/><path d="m16.512054 13.459284-8.1666358-.139108"/><path d="m8.1244818 7.3447444 5.8892372 5.8998076"/></g></g><rect fill-rule="evenodd" height="8.057961" ry="1.232723" width="8.516671" x="19.308056" y="6.599111"/></g><path d="m16 10.38862a5.6113801 5.6113801 0 0 0 -5.61138 5.61138 5.6113801 5.6113801 0 0 0 5.61138 5.61138 5.6113801 5.6113801 0 0 0 5.61138-5.61138 5.6113801 5.6113801 0 0 0 -5.61138-5.61138zm0 3.366828c1.239666 0 2.244552 1.004886 2.244552 2.244552s-1.004886 2.244552-2.244552 2.244552-2.244552-1.004886-2.244552-2.244552 1.004886-2.244552 2.244552-2.244552z" fill="#858585" stroke-width=".748184"/><path d="m16 5.5254241c-5.802915 0-10.4745762 4.6716609-10.4745762 10.4745759s4.6716612 10.474576 10.4745762 10.474576 10.474576-4.671661 10.474576-10.474576-4.671661-10.4745759-10.474576-10.4745759zm0 5.9854719a4.4891041 4.4891041 0 0 1 4.489104 4.489104 4.4891041 4.4891041 0 0 1 -4.489104 4.489104 4.4891041 4.4891041 0 0 1 -4.489104-4.489104 4.4891041 4.4891041 0 0 1 4.489104-4.489104z" fill="#e6e6e6" stroke-width=".748184"/><path d="m16 12.964891c-1.676244 0-3.035109 1.358865-3.035109 3.035109s1.358865 3.035109 3.035109 3.035109 3.035109-1.358865 3.035109-3.035109-1.358865-3.035109-3.035109-3.035109z" fill="#fff" stroke-width=".404681"/><path d="m30.304688 21.101562c-.474662.654089-.696728.957757-1.712891 2.173829.406565-1.164601.662153-2.096963.71875-2.921875.056597-.824913-.084256-1.542414-.466797-2.277344s-1.007119-1.486207-1.917969-2.38086c-.91085-.894652-2.10839-1.932247-3.636719-3.236328.555733 1.358533 1.047321 2.88089 1.404297 4.277344.356977 1.396455.579881 2.668008.59961 3.525391.009864.428691-.032398.753716-.132813.939453s-.260275.230904-.488281.101562c-.456011-.258683-1.183664-1.218177-2.253906-3.169922.524554 2.016318.656173 2.57061.5625 3.117188-.093674.546578-.413468 1.085477-.789063 3.070312-.161219-.161202-.291196-1.017057-1.054687-1.986328-.381746-.484635-.921703-.99734-1.703125-1.466796-.781423-.469457-1.803218-.895599-3.150391-1.205079.42006.594902.541835 1.050299.476563 1.441407-.065273.391107-.319392.717831-.652344 1.052734s-.743974.679181-1.126953 1.105469-.737771.934347-.953125 1.599609c-.141019-.143562-.95586-.836911-1.894532-1.84375-.938671-1.006839-1.999717-2.326574-2.6289058-3.722656.2551357 1.077028.3512948 1.931512.3515626 2.607422.0002677.67591-.0954454 1.172457-.2226563 1.535156-.2544217.725398-.6367188.912109-.6367187.912109-.1725981-.944763-.4359049-1.86758-.7871094-2.748047-.3512045-.880466-.7909242-1.716752-1.3125-2.490234s-1.126835-1.483612-1.8105469-2.107422c-.6837119-.623809-1.4455904-1.162301-2.2832031-1.59375.7592242 3.30874 1.0546031 5.777832 1.0546875 7.712891.0000807 1.852936-.2932324 3.175126-.6875 4.314453 1.00437 1.452496 2.6006223 2.460938 4.5078125 2.460938h17.0527346c3.088651 0 5.574219-2.487522 5.574219-5.576172z" fill="#ffb84b" fill-rule="evenodd"/></svg>