<svg height="22" width="22" xmlns="http://www.w3.org/2000/svg"><path d="m11 2.8333334c-2.5853333 0-4.6666667 2.0813332-4.6666667 4.6666665v2.3333338h-1.1666666c-.6463334 0-1.1666667.5203333-1.1666667 1.1666663v7c0 .646334.5203333 1.166667 1.1666667 1.166667h11.6666663c.646334 0 1.166667-.520333 1.166667-1.166667v-7c0-.646333-.520333-1.1666663-1.166667-1.1666663h-1.166666v-2.3333338c0-2.5853333-2.081334-4.6666665-4.666667-4.6666665zm0 2.3333332c1.292667 0 2.333333 1.0406667 2.333333 2.3333333v2.3333338h-4.6666663v-2.3333338c0-1.2926666 1.0406666-2.3333333 2.3333333-2.3333333z" fill="#d3dae3" stroke-width="1.166667"/></svg>