<svg height="12pt" viewBox="0 0 12 12" width="12pt" xmlns="http://www.w3.org/2000/svg"><path d="m6 2.183594c-2.109375 0-3.816406 1.707031-3.816406 3.816406s1.707031 3.816406 3.816406 3.816406 3.816406-1.707031 3.816406-3.816406-1.707031-3.816406-3.816406-3.816406zm0 1.269531c1.40625 0 2.546875 1.140625 2.546875 2.546875s-1.140625 2.546875-2.546875 2.546875-2.546875-1.140625-2.546875-2.546875 1.140625-2.546875 2.546875-2.546875zm0 0" fill="#5c616c"/><path d="m4.726562 5.363281h2.546876c.351562 0 .636718.285157.636718.636719s-.285156.636719-.636718.636719h-2.546876c-.351562 0-.636718-.285157-.636718-.636719s.285156-.636719.636718-.636719zm0 0" fill="#5c616c"/></svg>