<svg height="48" width="48" xmlns="http://www.w3.org/2000/svg"><path d="m24 4c-6.648 0-12 5.352-12 12v4h4v-3c0-4.432 3.568-8 8-8s8 3.568 8 8v3h4v-4c0-6.648-5.352-12-12-12z" fill="#d2d2d2"/><rect fill="#fecd38" height="32" rx="2" transform="matrix(0 -1 -1 0 0 0)" width="24" x="-44" y="-40"/><path d="m24 4c-6.648 0-12 5.352-12 12v1c0-6.648 5.352-12 12-12s12 5.352 12 12v-1c0-6.648-5.352-12-12-12z" fill="#fff" opacity=".2"/><path d="m10 20c-1.108 0-2 .892-2 2v1c0-1.108.892-2 2-2h28c1.108 0 2 .892 2 2v-1c0-1.108-.892-2-2-2z" fill="#fff" opacity=".2"/><path d="m24 9c-4.432 0-8 3.568-8 8v1c0-4.432 3.568-8 8-8s8 3.568 8 8v-1c0-4.432-3.568-8-8-8z" opacity=".2"/><path d="m8 39v2c0 1.108.892 2 2 2h28c1.108 0 2-.892 2-2v-2c0 1.108-.892 2-2 2h-28c-1.108 0-2-.892-2-2z" fill="#fff" opacity=".1"/><path d="m8 40v2c0 1.108.892 2 2 2h28c1.108 0 2-.892 2-2v-2c0 1.108-.892 2-2 2h-28c-1.108 0-2-.892-2-2z" fill="#cb9a05"/><path d="m8 24h32v14h-32z" fill="#fed96a"/><path d="m8 42v1c0 1.108.892 2 2 2h28c1.108 0 2-.892 2-2v-1c0 1.108-.892 2-2 2h-28c-1.108 0-2-.892-2-2z" opacity=".2"/></svg>