<svg height="24" width="24" xmlns="http://www.w3.org/2000/svg"><rect height="12" opacity=".2" rx="1" width="20" x="2" y="9.5"/><path d="m2 17c0 .554.446 1 1 1h18c .554 0 1-.446 1-1v-11c0-.554-.446-1-1-1h-10v-1c0-.554-.446-1-1-1h-7c-.554 0-1 .446-1 1" fill="#b58f1b"/><rect height="12" opacity=".2" rx="1" width="20" x="2" y="8.5"/><rect fill="#e4e4e4" height="8" rx="1" width="16" x="4" y="7"/><rect fill="#e2b322" height="12" rx="1" width="20" x="2" y="9"/><path d="m3 3c-.554 0-1 .446-1 1v .5c0-.554.446-1 1-1h7c .554 0 1 .446 1 1v-.5c0-.554-.446-1-1-1zm8 2v .5h10c .554 0 1 .446 1 1v-.5c0-.554-.446-1-1-1z" fill="#fff" opacity=".1"/><path d="m11.546 12.023c-1.7778 0-1.364 1.624-2.2745 2.113-.0313.018-.049.035-.0771.052.6003-.357 1.3406-.656 2.1256-.858.666-.171 1.341-.267 1.963-.28h.048c-.6-.17-.666-1.027-1.785-1.027zm1.938 1.478c-.623.012-1.298.108-1.963.279-2.1937.564-3.7568 1.792-3.4917 2.741.1528.543.8888.901 1.9857.966-.001-.004-.002-.007-.002-.012-.0595-.513.266-.96.648-1.262.382-.303.873-.523 1.425-.64s1.068-.111 1.5.019c.406.122.788.388.882.846 1.099-.616 1.669-1.359 1.504-1.96-.175-.629-1.129-1.004-2.488-.977zm-.653 2.499a.92931 1.7885 76.001 0 0 -.688.071.92931 1.7885 76.001 0 0 -1.64 1.3.92931 1.7885 76.001 0 0 1.855.558.92931 1.7885 76.001 0 0 1.638-1.3.92931 1.7885 76.001 0 0 -1.165-.629z" fill="#4f3e0c"/></svg>