<svg height="32" width="32" xmlns="http://www.w3.org/2000/svg"><g transform="translate(-352.09382 -517.58904)"><path d="m373.2808 519.58904h-13.65097c-3.0664 0-5.53601 2.46767-5.53601 5.53407v16.92992c0 3.0664 2.46961 5.53601 5.53601 5.53601h16.92992c3.0664 0 5.53407-2.46961 5.53407-5.53601v-13.65097z" fill="#f75757" fill-rule="evenodd"/><path d="m382.09382 528.40206-8.81302-8.81302v3.27895c0 3.0664 2.46767 5.53407 5.53407 5.53407z" fill="#fdd7d7" fill-rule="evenodd"/><g fill="#fdd7d7" transform="translate(353.09382 515.60334)"><path d="m15 14c-1.105333 0-2 .9-2 2v4c0 1.1.895 2 2 2s2-.9 2-2v-4c0-1.1-.894667-2-2-2zm0 1c .552 0 1 .4 1 1 0 .499999-.448 1-1 1s-1-.500001-1-1c0-.6.448-1 1-1zm0 3c .552285 0 1 .447715 1 1v1c0 .552285-.447715 1-1 1s-1-.447715-1-1v-1c0-.552285.447715-1 1-1z"/><path d="m14 4v1h1v-1zm0 2v1h1v-1zm0 2v1h1v-1zm0 2v1h1v-1zm0 2v1h1v-1z"/><path d="m15 5v1h1v-1zm0 2v1h1v-1zm0 2v1h1v-1zm0 2v1h1v-1zm0 2v1h1v-1z"/></g></g></svg>