<svg height="32" width="32" xmlns="http://www.w3.org/2000/svg"><g transform="translate(46.68657 -1.19403)"><path d="m-25.49959 3.19403h-13.65097c-3.0664 0-5.53601 2.46767-5.53601 5.53407v16.92992c0 3.0664 2.46961 5.53601 5.53601 5.53601h16.92992c3.0664 0 5.53407-2.46961 5.53407-5.53601v-13.65097z" fill="#ff8b23" fill-rule="evenodd"/><path d="m-16.68657 12.00705-8.81302-8.81302v3.27895c0 3.0664 2.46767 5.53407 5.53407 5.53407z" fill="#66380e" fill-rule="evenodd"/></g><path d="m15.39801 9.5223885v3.5970145h1.199005v-3.5970145zm-2.39801 1.1990045v2.39801h1.199005v-2.39801zm4.79602 0v2.39801h1.199005v-2.39801zm-7.19403 1.199005v1.199005h1.199005v-1.199005zm-1.1990047 2.39801v4.79602c0 2.173797 1.2109947 3.597015 3.5970147 3.597015h-2.39801v1.199005h9.59204v-1.199005h-2.39801c1.884836 0 3.005906-.871676 3.597015-2.39801h1.199005c1.199005 0 1.199005-.0036 1.199005-1.311711v-1.311711c0-2.179792 0-2.173797-1.199005-2.173797h-1.199005v-1.199005zm1.1990047 1.199005h9.59204v3.597015c0 1.811697-1.604268 2.39801-3.597015 2.39801h-2.39801c-1.992746 0-3.597015-.586313-3.597015-2.39801zm10.791045 1.199005h1.199005v2.39801h-1.199005z" fill="#66380e"/></svg>