<svg height="32" width="32" xmlns="http://www.w3.org/2000/svg"><g transform="translate(32.955224 -2.865672)"><path d="m-11.768243 4.8656716h-13.65097c-3.066406 0-5.536011 2.4676663-5.536011 5.5340724v16.929917c0 3.066406 2.469605 5.536011 5.536011 5.536011h16.9299171c3.066406 0 5.534072-2.469605 5.534072-5.536011v-13.65097z" fill="#f38850" fill-rule="evenodd"/><path d="m-2.9552239 13.678691-8.8130191-8.8130193v3.2789473c0 3.066406 2.4676661 5.534072 5.5340721 5.534072z" fill="#fcdfd1" fill-rule="evenodd"/><path d="m-21.854724 14.679105a1.5 1.5 0 0 0 -1.5 1.5 1.5 1.5 0 0 0 1.5 1.5 1.5 1.5 0 0 0 1.5-1.5 1.5 1.5 0 0 0 -1.5-1.5m0 1a .5.5 0 0 1  .5.5.5.5 0 0 1 -.5.5.5.5 0 0 1 -.5-.5.5.5 0 0 1  .5-.5m9.5 1-5.6 5.58-2.6-2.58-6 6h1.406l3.119-3.082 1.408-1.404 1.564 1.418 1.102 1.068 5.6-5.398 3.5940001 3.398h1.406z" fill="#fcdfd1" stroke-width="2"/></g></svg>