<svg height="16" viewBox="0 0 16 16" width="16" xmlns="http://www.w3.org/2000/svg"><path d="m2.8000001 0c-.4450134 0-.8.35498668-.8.80000002v14.39999998c0 .4448.3549866.800001.8.800001h11.3999999c.445867 0 .8-.354134.8-.800001v-10.2l-4.6-.5999999-.4-4.4000001z" fill="#e4e4e4"/><path d="m10-.00000047v4.16670037c0 .4584001.3749.8333001.8333.8333001h4.1667z" fill="#fafafa"/><g fill="#09a576" transform="matrix(.06378673 0 0 .06309016 5.466842 8)"><path d="m47.561 0c-21.633 0-39.171 6.393-39.171 14.283v11.72c0 7.891 17.538 14.282 39.171 14.282 21.632 0 39.17-6.392 39.17-14.282v-11.72c0-7.89-17.538-14.283-39.17-14.283z"/><path d="m47.561 47.115c-20.654 0-37.682-5.832-39.171-13.227-.071.353 0 19.355 0 19.355 0 7.892 17.538 14.283 39.171 14.283 21.632 0 39.17-6.393 39.17-14.283 0 0 .044-19.003-.026-19.355-1.491 7.396-18.491 13.227-39.144 13.227z"/><path d="m86.694 61.464c-1.488 7.391-18.479 13.226-39.133 13.226s-37.686-5.836-39.175-13.226l.004 19.356c0 7.891 17.538 14.282 39.171 14.282 21.632 0 39.17-6.393 39.17-14.282z"/></g></svg>