<svg height="48" viewBox="0 0 48 48" width="48" xmlns="http://www.w3.org/2000/svg"><circle cx="24" cy="39" opacity=".2" r="6"/><circle cx="24" cy="38" fill="#8e8e8e" r="6"/><rect height="4" opacity=".2" rx=".5" width="2" x="24" y="39"/><path d="m7.3535353 5.007044c-.1503128-.012632-.2862398-.00839-.408209.013668-.1626257.029413-.2994394.088801-.4140686.1796408-.9383036.743574-.6457138 3.6972484.9785299 9.8411908.9107933 3.44521 1.6619128 5.279869 2.9551214 7.222732.849152 1.275699 1.259587 1.759641 2.662148 3.145667 1.256112 1.383793 2.840607 3.319611 2.873089 4.947932-.360699 3.214373-2.857186 4.8966-3.000044 7.632781 0 3.312847 1.686317 5.998441 5.000073 5.998441 2.078524.207989 4.139177-2.624247 6.000087-2.99922 2.247795.454298 4.06349 3.010232 6.000088 2.99922 3.313756 0 5.000073-2.685594 5.000073-5.998441-.142858-2.736181-2.639346-4.418408-3.000044-7.632781.03248-1.628321 1.616977-3.564139 2.873089-4.947932 1.40256-1.386026 1.812995-1.869968 2.662148-3.145667 1.293208-1.942863 2.044327-3.777522 2.955121-7.222732 1.624243-6.1439424 1.916834-9.0976168.97853-9.8411908-.114629-.09084-.251443-.1502275-.414068-.1796408-.121971-.022056-.257898-.0263-.40821-.013669-.450939.037895-1.031853.2318519-1.757838.5857852-1.43973.7019125-2.847575 1.7395404-4.433658 3.2667289-2.380015 2.2916235-3.2311 3.6031285-6.033291 9.3061735-.836952 1.699205-1.863644 3.781404-3.119187 5.586438-.364862.251195-1.302753.255793-1.302753.255793s-.93789-.0046-1.302753-.255793c-1.255542-1.8050326-2.282234-3.8872316-3.119186-5.5864366-2.802191-5.703045-3.653276-7.014551-6.033291-9.3061739-1.586083-1.5271885-2.993929-2.5648164-4.4336586-3.2667289-.7259842-.3539333-1.3068997-.5478902-1.7578381-.5857852z" opacity=".2"/><rect fill="#fff" height="4" rx=".5" width="2" x="24" y="38"/><rect height="4" opacity=".2" rx=".5" width="2" x="22" y="39"/><rect fill="#fff" height="4" rx=".5" width="2" x="22" y="38"/><path d="m7.3535353 4.0070437c-.1503128-.0126316-.2862398-.0083917-.408209.0136684-.1626257.0294132-.2994394.0888014-.4140686.1796408-.9383036.743574-.6457138 3.6972484.9785299 9.8411911.9107933 3.44521 1.6619128 5.279869 2.9551214 7.222732.849152 1.275699 1.259587 1.759641 2.662148 3.145667 1.256112 1.383793 2.840607 3.319611 2.873089 4.947932-.360699 3.214373-2.857186 4.8966-3.000044 7.632781 0 3.312847 1.686317 5.998441 5.000073 5.998441 2.078524.207989 4.139177-2.624247 6.000087-2.99922 2.247795.454298 4.06349 3.010232 6.000088 2.99922 3.313756 0 5.000073-2.685594 5.000073-5.998441-.142858-2.736181-2.639346-4.418408-3.000044-7.632781.03248-1.628321 1.616977-3.564139 2.873089-4.947932 1.40256-1.386026 1.812995-1.869968 2.662148-3.145667 1.293208-1.942863 2.044327-3.777522 2.955121-7.222732 1.624243-6.1439427 1.916834-9.0976171.97853-9.8411911-.114629-.09084-.251443-.1502275-.414068-.1796408-.121971-.022056-.257898-.0263-.40821-.013669-.450939.037895-1.031853.2318519-1.757838.5857852-1.43973.7019125-2.847575 1.7395404-4.433658 3.2667289-2.380015 2.2916238-3.2311 3.6031288-6.033291 9.3061738-.836952 1.699205-1.863644 3.781404-3.119187 5.586438-.364862.251195-1.302753.255793-1.302753.255793s-.93789-.0046-1.302753-.255793c-1.255542-1.805033-2.282234-3.887232-3.119186-5.586437-2.802191-5.703045-3.653276-7.014551-6.033291-9.3061742-1.586083-1.5271885-2.993929-2.5648164-4.4336586-3.2667289-.7259842-.3539333-1.3068997-.5478902-1.7578381-.5857852z" fill="#e4e4e4"/><path d="m19.101957 35c-1.267765 0-3.098915-1.027728-3.098915-2.295493s-.120019-2.295493 1.147746-2.295493c3.258659.387737 3.44324 4.590986 1.951169 4.590986z" opacity=".2"/><path d="m19.101957 34c-1.267765 0-3.098915-1.027728-3.098915-2.295493s-.120019-2.295493 1.147746-2.295493c3.258659.387737 3.44324 4.590986 1.951169 4.590986z" fill="#fff"/><path d="m28.898043 35c1.267765 0 3.098915-1.027728 3.098915-2.295493s.120019-2.295493-1.147746-2.295493c-3.258659.387737-3.44324 4.590986-1.951169 4.590986z" opacity=".2"/><path d="m28.898043 34c1.267765 0 3.098915-1.027728 3.098915-2.295493s.120019-2.295493-1.147746-2.295493c-3.258659.387737-3.44324 4.590986-1.951169 4.590986z" fill="#fff"/><path d="m24 40c-1.931542-.131713-3.590213-2.043843-2.797269-2.986174.846116-.743091 1.908069-1.022541 2.797269-1.01362.889202-.0089 1.951154.270529 2.797269 1.01362.792944.942331-.865726 2.854461-2.797269 2.986174z" fill="#bf3667"/><path d="m8.0429688 6.3085938c.00306.2153513-.023677.2944028.00586.5917968.1382306 1.3917864.5950713 3.6079064 1.3945313 6.6328124.8861906 3.353066 1.5180956 4.871632 2.6874996 6.628906h-.002c.813712 1.222792 1.028556 1.472135 2.404297 2.832032l.03906.03711.03516.04102c.588451.648444 1.310646 1.395597 1.941406 2.273437 1.02779-1.152894 2.308662-2.052045 3.742188-2.626953-1.009435-1.630698-1.834444-3.298546-2.507813-4.666016v-.002c-2.7849467-5.669556-3.3479987-6.555011-5.6249547-8.7480046-1.486164-1.431373-2.720396-2.3252384-3.923828-2.9121094-.1660692-.080981-.0585639-.0339462-.1914062-.0820312zm31.9140622.00977c-.08929.038896-.0905.02306-.191406.072266-1.203432.586871-2.437664 1.4807364-3.923828 2.9121094-2.276956 2.1929936-2.840008 3.0784486-5.625 8.7480466v.002c-.673684 1.368108-1.499679 3.036548-2.509766 4.667969 1.434229.574645 2.715794 1.473813 3.744141 2.626953.63097-.878405 1.352649-1.626631 1.941406-2.27539l.03516-.04102.03906-.03711c1.375741-1.359897 1.590585-1.60924 2.404297-2.832032h-.002c1.169357-1.757277 1.801309-3.27584 2.6875-6.628906.79946-3.024906 1.2563-5.2410259 1.394531-6.6328124.02909-.292487.0026-.368798.0059-.5820312z" opacity=".3"/><circle cx="19" cy="33" fill="#323232" r="1"/><circle cx="29" cy="33" fill="#323232" r="1"/><path d="m7.3535156 4.0078125c-.1503128-.0126316-.2862339-.0083882-.4082031.0136719-.1626257.0294132-.2994333.0888481-.4140625.1796875-.4141339.3281872-.574092 1.1170971-.5 2.390625.0509256-.6867385.2085661-1.1596735.5-1.390625.1146292-.0908398.2514368-.1502745.4140625-.1796875.1219692-.022058.2578903-.0263039.4082031-.0136719.4509384.037895 1.0318283.2320042 1.7578125.5859375 1.4397299.7019125 2.8475109 1.7384365 4.4335939 3.265625 2.380015 2.291623 3.231012 3.603596 6.033203 9.306641.836952 1.699205 1.863599 3.780905 3.119141 5.585937.364863.251193 1.302734.255859 1.302734.255859 0 .000001.937872-.004664 1.302734-.255859 1.255543-1.805034 2.282189-3.886732 3.119141-5.585937 2.802191-5.703045 3.653188-7.015017 6.033203-9.306641 1.586083-1.5271885 2.993864-2.5637125 4.433594-3.265625.725985-.3539333 1.306873-.5480425 1.757812-.5859375.150312-.012631.286232-.0083841.408204.0136719.162624.0294133.299433.0888475.414062.1796875.290331.2300773.448349.7005027.5 1.3828125.072922-1.2688028-.086716-2.0552993-.5-2.3828125-.114629-.09084-.251437-.1502742-.414062-.1796875-.121972-.022056-.257892-.0263029-.408204-.0136719-.450939.037895-1.031827.2320042-1.757812.5859375-1.43973.7019125-2.847511 1.7384365-4.433594 3.265625-2.380015 2.291624-3.231012 3.603596-6.033203 9.306641-.836952 1.699205-1.863598 3.780903-3.119141 5.585937-.364862.251195-1.302734.25586-1.302734.255859 0 0-.937871-.004666-1.302734-.255859-1.255542-1.805033-2.282189-3.886732-3.119141-5.585937-2.802191-5.703045-3.653188-7.015018-6.033203-9.306641-1.586083-1.5271885-2.993864-2.5637125-4.4335939-3.265625-.7259842-.3539333-1.3068741-.5480425-1.7578125-.5859375zm8.5742184 25.8066405c-.531086 2.921355-2.791842 4.573019-2.927734 7.175781 0 .212093.027208.41273.041016.619141.339838-2.515877 2.615461-4.190644 2.958984-7.251953-.003539-.177413-.034311-.359367-.072266-.542969zm16.144532 0c-.037955.183602-.068727.365556-.072266.542969.343522 3.061309 2.619145 4.736076 2.958984 7.251953.013808-.206411.041016-.407048.041016-.619141-.135892-2.602762-2.396648-4.254426-2.927734-7.175781z" fill="#fff" opacity=".2"/></svg>