<svg height="48" viewBox="0 0 48 48" width="48" xmlns="http://www.w3.org/2000/svg"><rect fill="#3f3f3f" height="38" rx="1.226" ry="1.152" width="38" x="5" y="5"/><path d="m5.0000019 5.00002c-.5539997 0-1.0000002.44598-1.0000002.99998v9.99999c0 .554.4460005 1.00003 1.0000002 1.00003h9.9999991c.553999 0 .999999-.44603.999999-1.00003v-9.99999c0-.554-.446-.99998-.999999-.99998zm13.9999981 0c-.554 0-1 .44598-1 .99998v9.99999c0 .554.446 1.00003 1 1.00003h9.999999c.553999 0 .999999-.44603.999999-1.00003v-9.99999c0-.554-.446-.99998-.999999-.99998zm13.999998 0c-.554 0-1 .44598-1 .99998v9.99999c0 .554.446 1.00003 1 1.00003h9.999998c.553999 0 1.000002-.44603 1.000002-1.00003v-9.99999c0-.554-.446003-.99998-1.000002-.99998zm-27.9999961 13.99997c-.5539997 0-1.0000002.44602-1.0000002 1.00002v9.99999c0 .554.4460005.99999 1.0000002.99999h9.9999991c.553999 0 .999999-.44599.999999-.99999v-9.99999c0-.554-.446-1.00002-.999999-1.00002zm13.9999981 0c-.554 0-1 .44602-1 1.00002v9.99999c0 .554.446.99999 1 .99999h9.999999c.553999 0 .999999-.44599.999999-.99999v-9.99999c0-.554-.446-1.00002-.999999-1.00002zm13.999998 0c-.554 0-1 .44602-1 1.00002v9.99999c0 .554.446.99999 1 .99999h9.999998c.553999 0 1.000002-.44599 1.000002-.99999v-9.99999c0-.554-.446003-1.00002-1.000002-1.00002zm-27.9999961 14.00001c-.5539997 0-1.0000002.44598-1.0000002.99999v10.00002c0 .554.4460005.99999 1.0000002.99999h9.9999991c.553999 0 .999999-.44599.999999-.99999v-10.00002c0-.55401-.446-.99999-.999999-.99999zm13.9999981 0c-.554 0-1 .44598-1 .99999v10.00002c0 .554.446.99999 1 .99999h9.999999c.553999 0 .999999-.44599.999999-.99999v-10.00002c0-.55401-.446-.99999-.999999-.99999zm13.999998 0c-.554 0-1 .44598-1 .99999v10.00002c0 .554.446.99999 1 .99999h9.999998c.553999 0 1.000002-.44599 1.000002-.99999v-10.00002c0-.55401-.446003-.99999-1.000002-.99999z" opacity=".2"/><path d="m5.0000019 3.99999c-.5539997 0-.9999998.44602-.9999998 1.00003v9.99998c0 .55401.4460001.99999.9999998.99999h9.9999991c.554 0 1-.44598 1-.99999v-9.99998c0-.55401-.446-1.00003-1-1.00003z" fill="#e4e4e4"/><path d="m19 3.99999c-.554 0-1 .44602-1 1.00003v9.99998c0 .55401.446.99999 1 .99999h9.999999c.554 0 1-.44598 1-.99999v-9.99998c0-.55401-.446-1.00003-1-1.00003z" fill="#f57e26"/><path d="m32.999998 3.99999c-.554 0-1 .44602-1 1.00003v9.99998c0 .55401.446.99999 1 .99999h9.999998c.553999 0 1.000002-.44598 1.000002-.99999v-9.99998c0-.55401-.446003-1.00003-1.000002-1.00003z" fill="#b130ae"/><path d="m5.0000019 18c-.5539997 0-.9999998.44599-.9999998.99999v10.00002c0 .55401.4460001.99999.9999998.99999h9.9999991c.554 0 1-.44598 1-.99999v-10.00002c0-.554-.446-.99999-1-.99999z" fill="#b130ae"/><path d="m19 18c-.554 0-1 .44599-1 .99999v10.00002c0 .55401.446.99999 1 .99999h9.999999c.554 0 1-.44598 1-.99999v-10.00002c0-.554-.446-.99999-1-.99999z" fill="#e4e4e4"/><path d="m32.999998 18c-.554 0-1 .44599-1 .99999v10.00002c0 .55401.446.99999 1 .99999h9.999998c.553999 0 1.000002-.44598 1.000002-.99999v-10.00002c0-.554-.446003-.99999-1.000002-.99999z" fill="#e4e4e4"/><path d="m5.0000019 32.00001c-.5539997 0-.9999998.44599-.9999998.99999v9.99999c0 .554.4460001 1.00002.9999998 1.00002h9.9999991c.554 0 1-.44602 1-1.00002v-9.99999c0-.554-.446-.99999-1-.99999z" fill="#23992b"/><path d="m19 32.00001c-.554 0-1 .44599-1 .99999v9.99999c0 .554.446 1.00002 1 1.00002h9.999999c.554 0 1-.44602 1-1.00002v-9.99999c0-.554-.446-.99999-1-.99999z" fill="#f57e26"/><path d="m32.999998 32.00001c-.554 0-1 .44599-1 .99999v9.99999c0 .554.446 1.00002 1 1.00002h9.999998c.553999 0 1.000002-.44602 1.000002-1.00002v-9.99999c0-.554-.446003-.99999-1.000002-.99999z" fill="#23992b"/><path d="m5.0000023 4c-.5539997 0-1 .446-1 1v1c0-.554.4460003-1 1-1h9.9999997c.554 0 1 .446 1 1v-1c0-.554-.446-1-1-1zm13.9999997 0c-.554 0-1 .446-1 1v1c0-.554.446-1 1-1h10c .554 0 1 .446 1 1v-1c0-.554-.446-1-1-1zm14 0c-.554 0-1 .446-1 1v1c0-.554.446-1 1-1h10c .553999 0 1 .446 1 1v-1c0-.554-.446001-1-1-1zm-27.9999997 14c-.5539997 0-1 .446-1 1v1c0-.554.4460003-1 1-1h9.9999997c.554 0 1 .446 1 1v-1c0-.554-.446-1-1-1zm13.9999997 0c-.554 0-1 .446-1 1v1c0-.554.446-1 1-1h10c .554 0 1 .446 1 1v-1c0-.554-.446-1-1-1zm14 0c-.554 0-1 .446-1 1v1c0-.554.446-1 1-1h10c .553999 0 1 .446 1 1v-1c0-.554-.446001-1-1-1zm-27.9999997 14c-.5539997 0-1 .446-1 1v1c0-.554.4460003-1 1-1h9.9999997c.554 0 1 .446 1 1v-1c0-.554-.446-1-1-1zm13.9999997 0c-.554 0-1 .446-1 1v1c0-.554.446-1 1-1h10c .554 0 1 .446 1 1v-1c0-.554-.446-1-1-1zm14 0c-.554 0-1 .446-1 1v1c0-.554.446-1 1-1h10c .553999 0 1 .446 1 1v-1c0-.554-.446001-1-1-1z" fill="#fff" opacity=".2"/></svg>