<svg height="48" width="48" xmlns="http://www.w3.org/2000/svg"><path d="m16 5a4.0004 4.0004 0 0 0 -4 4v2 16.205078c-4.441522.527849-8 4.225155-8 8.794922 0 4.923184 4.0768158 9 9 9 4.923184 0 9-4.076816 9-9v-15h12v2.205078c-4.441522.527849-8 4.225155-8 8.794922 0 4.923184 4.076816 9 9 9s9-4.076816 9-9v-21-1-1a4.0004 4.0004 0 0 0 -4-4h-22z" opacity=".2"/><path d="m16 4a4.0004 4.0004 0 0 0 -4 4v2 16.205078c-4.441522.527849-8 4.225155-8 8.794922 0 4.923184 4.0768158 9 9 9 4.923184 0 9-4.076816 9-9v-15h12v2.205078c-4.441522.527849-8 4.225155-8 8.794922 0 4.923184 4.076816 9 9 9s9-4.076816 9-9v-21-1-1a4.0004 4.0004 0 0 0 -4-4h-22z" fill="#33a26d"/><path d="m16 9v2 21.007818a5 5 0 0 0 -3-1.007818 5 5 0 0 0 -5 5 5 5 0 0 0 5 5 5 5 0 0 0 5-5v-19h20v11.007818a5 5 0 0 0 -3-1.007818 5 5 0 0 0 -5 5 5 5 0 0 0 5 5 5 5 0 0 0 5-5v-21-1-1h-22zm2 2h20v4h-20z" opacity=".1"/><path d="m16 8v2 21.007818a5 5 0 0 0 -3-1.007818 5 5 0 0 0 -5 5 5 5 0 0 0 5 5 5 5 0 0 0 5-5v-19h20v11.007818a5 5 0 0 0 -3-1.007818 5 5 0 0 0 -5 5 5 5 0 0 0 5 5 5 5 0 0 0 5-5v-21-1-1h-22zm2 2h20v4h-20z" fill="#373737"/><path d="m16 4a4.0004 4.0004 0 0 0 -4 4v1a4.0004 4.0004 0 0 1 4-4h2 22a4.0004 4.0004 0 0 1 4 4v-1a4.0004 4.0004 0 0 0 -4-4h-22zm18 18.205078c-4.441522.527849-8 4.225155-8 8.794922 0 .164069.016455.324259.025391.486328.256218-4.329369 3.701703-7.77344 7.974609-8.28125zm-22 4c-4.441522.527849-8 4.225155-8 8.794922 0 .164069.0164547.324259.0253906.486328.2562186-4.329369 3.7017036-7.77344 7.9746094-8.28125z" fill="#fff" opacity=".1"/></svg>