<svg height="48" viewBox="0 0 48 48" width="48" xmlns="http://www.w3.org/2000/svg"><path d="m10.041016 6.0004318a6.0006 6.0006 0 0 0 -3.5996098 10.8300782l6.1210938 4.509766-7.5546875 11.332031a6.0006 6.0006 0 0 0 4.5644531 9.3125l28.0000004 2a6.0006 6.0006 0 0 0 3.86914-10.900391l-6.666015-4.666015 7.86914-9.619141a6.0006 6.0006 0 0 0 -4.005859-9.7656251l-28-3a6.0006 6.0006 0 0 0 -.597656-.033203z" opacity=".2"/><path d="m10.041016 5a6.0006 6.0006 0 0 0 -3.5996098 10.830078l6.1210938 4.509766-7.5546875 11.332031a6.0006 6.0006 0 0 0 4.5644531 9.3125l28.0000004 2a6.0006 6.0006 0 0 0 3.86914-10.900391l-6.666015-4.666015 7.86914-9.619141a6.0006 6.0006 0 0 0 -4.005859-9.7656249l-28-3a6.0006 6.0006 0 0 0 -.597656-.0332031z" fill="#4f4f4f"/><path d="m10 36.000432 8-12 20 14z" opacity=".2"/><path d="m10 35 8-12 20 14z" fill="#1bd9a5"/><path d="m10 12.000432 28 3-9 11z" opacity=".2"/><path d="m10 11 28 3-9 11z" fill="#1cadf4"/><g fill="#fff"><path d="m10.041016 5a6.0006 6.0006 0 0 0 -6.0136722 6.472656 6.0006 6.0006 0 0 1 6.0136722-5.472656 6.0006 6.0006 0 0 1  .597656.0332031l28 3a6.0006 6.0006 0 0 1 5.335937 5.5019529 6.0006 6.0006 0 0 0 -5.335937-6.5019529l-28-3a6.0006 6.0006 0 0 0 -.597656-.0332031zm2.074218 16.009766-7.1074215 10.662109a6.0006 6.0006 0 0 0 -.9824219 3.785156 6.0006 6.0006 0 0 1  .9824219-2.785156l7.5546875-11.332031zm23.179688 6.771484-.519531.636719 6.666015 4.666015a6.0006 6.0006 0 0 1 2.53125 4.402344 6.0006 6.0006 0 0 0 -2.53125-5.402344z" opacity=".1"/><path d="m18 23-8 12 .636719.044922 7.363281-11.044922 18.408203 12.886719 1.591797.113281z" opacity=".1"/><path d="m10 11 1.587891 1.169922 25.660156 2.75.751953-.919922z" opacity=".1"/></g></svg>