<svg height="48" viewBox="0 0 48 48" width="48" xmlns="http://www.w3.org/2000/svg"><rect fill="#e4e4e4" height="40" rx="2" transform="matrix(0 -1 -1 0 0 0)" width="40" x="-44" y="-44"/><path d="m6.0001 4c-1.108 0-2 .892-2 2v1c0-1.108.892-2 2-2h36c1.108 0 2 .892 2 2v-1c0-1.108-.892-2-2-2z" fill="#fff" opacity=".2"/><g fill-rule="evenodd"><path d="m6.0001 44 18-18 18 18z" fill="#707070"/><path d="m44 42-18-18 18-18z" fill="#9f9f9f"/><path d="m25.768 22.2-3.5352 3.5371 18.23 18.23h1.5371c1.108 0 2-.892 2-2v-1.5352l-18.232-18.232z" fill="#fff"/><path d="m40.465 4-36.465 36.4v1.535c0 1.108.892 2 2 2h1.5371l36.463-36.4v-1.5371c0-1.108-.892-2-2-2h-1.5352z" fill="#fff"/></g><path d="m6.0001 45c-1.108 0-2-.892-2-2v-1c0 1.108.892 2 2 2h36c1.108 0 2-.892 2-2v1c0 1.108-.892 2-2 2z" opacity=".2"/></svg>