<svg height="273.06668" viewBox="0 0 256 256" width="273.06668" xmlns="http://www.w3.org/2000/svg" xmlns:xlink="http://www.w3.org/1999/xlink"><linearGradient id="a" gradientTransform="matrix(.18087831 .03965557 -.03622239 .16983623 -233.51257 298.97286)" gradientUnits="userSpaceOnUse" x1="1669.1105" x2="1753.5334" y1="669.49823" y2="641.88513"><stop offset="0" stop-color="#f28040"/><stop offset="1" stop-color="#ff4739"/></linearGradient><linearGradient id="b" gradientTransform="matrix(.18087831 .03965557 -.03622239 .16983623 -233.24889 298.75795)" gradientUnits="userSpaceOnUse" x1="1746.5369" x2="1680.7168" y1="643.42267" y2="660.87262"><stop offset="0" stop-color="#febf00"/><stop offset="1" stop-color="#febf00" stop-opacity="0"/></linearGradient><linearGradient id="c" gradientTransform="matrix(.18514269 .00342201 -.00222043 .1736418 -261.57882 361.68934)" gradientUnits="userSpaceOnUse" x1="1759.3934" x2="1806.0804" xlink:href="#d" y1="604.61157" y2="608.90002"/><linearGradient id="d"><stop offset="0" stop-color="#fff"/><stop offset="1" stop-color="#bdc3c7" stop-opacity=".588"/></linearGradient><linearGradient id="e" gradientTransform="matrix(.1641703 0 0 .18320635 -290.6625 491.63406)" gradientUnits="userSpaceOnUse" x1="2187.05" x2="2199.3201" xlink:href="#d" y1="-320.70001" y2="-320.89001"/><linearGradient id="f" gradientTransform="matrix(-.1641703 0 0 .18320635 408.05638 492.00047)" gradientUnits="userSpaceOnUse" x1="2187.05" x2="2199.3201" xlink:href="#d" y1="-320.70001" y2="-320.89001"/><linearGradient id="g" gradientTransform="matrix(.17973994 0 0 .22017213 -77.189401 576.30176)" gradientUnits="userSpaceOnUse" x1="781.5" x2="821.75" xlink:href="#d"/><linearGradient id="h" gradientTransform="matrix(.17998943 0 0 .21991523 -150.2106 579.7465)" gradientUnits="userSpaceOnUse" x1="820.32001" x2="777.78003" xlink:href="#d" y1="-820.45001" y2="-834.65997"/><linearGradient id="i" gradientTransform="matrix(.25499889 0 0 .2660648 -326.523 303.95726)" gradientUnits="userSpaceOnUse" x1="1526.5699" x2="1549.2" xlink:href="#d" y1="186.06" y2="161.69"/><linearGradient id="j" gradientTransform="matrix(.25499889 0 0 .2660648 -326.523 303.95726)" gradientUnits="userSpaceOnUse" x1="1535.67" x2="1524.1899" y1="203.22" y2="194.53"><stop offset="0" stop-color="#ecf0f1"/><stop offset="1" stop-color="#bdc3c7" stop-opacity="0"/></linearGradient><path d="m16 10h224c3.324 0 6 2.676 6 6v224c0 3.324-2.676 6-6 6h-224c-3.324 0-6-2.676-6-6v-224c0-3.324 2.676-6 6-6z" fill="#31363b" fill-opacity=".5"/><path d="m16 12h224c2.216 0 4 1.784 4 4v224c0 2.216-1.784 4-4 4h-224c-2.216 0-4-1.784-4-4v-224c0-2.216 1.784-4 4-4z" fill="#31363b"/><path d="m19.999996 20h216v35.999992h-216z" fill="#f2f2f2" opacity=".5"/><path d="m20.999996 21h214v33.999943h-214z" fill="#314045"/><path d="m33.941406 32.292901c-.46916 0-.904316.05635-1.308594.167969-.404277.111539-.772151.281452-1.101562.509765-.329411.22324-.589636.52389-.779297.904297-.18966.380493-.283203.81852-.283203 1.310547 0 .715273.182528 1.276587.546875 1.6875.364349.40584.915618.751076 1.654297 1.035156l1.78125.693359c.69875.273941 1.168631.54558 1.408203.814454.244563.2638.365234.660772.365234 1.193359 0 .461693-.108518.849563-.328125 1.164063-.214616.309433-.495459.532955-.839843.669921-.344385.1319-.743079.199219-1.197266.199219-.559 0-1.140221-.101727-1.744141-.304687-.598929-.20288-1.138044-.480005-1.617187-.830079v1.203126c.309447.279006.776506.514291 1.400391.707031.623884.19282 1.270649.289062 1.939453.289062.374331 0 .728098-.03394 1.0625-.09961.339392-.06591.66603-.173992.980468-.326172.314438-.157247.583995-.352557.808594-.585938.224599-.23338.404305-.533237.539063-.898437.134759-.365287.203125-.775882.203125-1.232422 0-.370267-.04493-.699134-.134766-.988281-.08984-.289153-.203131-.534529-.337891-.732422-.134758-.197807-.326618-.382227-.576172-.554688-.244562-.177613-.481348-.322053-.710937-.433593-.224599-.11162-.517596-.23882-.876953-.38086l-1.720703-.683593c-.524063-.208034-.889116-.437041-1.09375-.685547-.199644-.25366-.298828-.613398-.298828-1.080078 0-.380494.108517-.700258.328125-.958985.219607-.258733.497629-.442361.832031-.548828.334402-.11162.715299-.166016 1.144531-.166016.46417 0 .928408.06537 1.392578.197266.469162.1319.866987.312789 1.191406.541016l.478516-.945313c-.429232-.268866-.917779-.475933-1.466797-.623047-.544027-.15218-1.091607-.228515-1.640625-.228514zm34.84375.06055-1.242187.0918v11.109376h1.234375v-4.404297c0-.299294.02062-.579164.06055-.837891.04492-.258733.120665-.515871.230468-.769531.109804-.25366.253046-.468951.427735-.646485.174685-.182593.402138-.32704.68164-.433593.284491-.11162.61113-.166016.980469-.166016.593939 0 1.016076.189819 1.265625.570313.254545.375419.38086.961425.38086 1.757812v4.929688h1.24414v-4.976563c0-1.03484-.230269-1.833398-.689453-2.396484-.459176-.563094-1.120918-.84375-1.984375-.84375-.563993 0-1.073156.110744-1.527344.333984-.449192.218087-.817939.535185-1.107422.951172l.04492-1.574219v-2.695312zm-26.36914 2.982422c-1.048125 0-1.911057.384423-2.589844 1.15039-.678785.766053-1.017578 1.793531-1.017578 3.082031 0 1.273207.347256 2.281571 1.041015 3.027344.69376.74062 1.595975 1.111328 2.708985 1.111328.998214 0 1.89023-.235204 2.673828-.707031l-.261719-.890625c-.419251.2131-.799279.372049-1.138672.478516-.339393.106553-.7166.160156-1.130859.160156-.763634 0-1.381318-.246255-1.855469-.738281-.474148-.497187-.731551-1.258503-.771484-2.283204h5.351562l.04492-.638671c0-1.17688-.261093-2.094487-.785156-2.753907-.519072-.664566-1.276308-.998046-2.269531-.998046zm7.652343 0c-1.058108 0-2.010893.200795-2.859375.601562l.335938.929688c.364349-.177527.778018-.315697 1.242187-.41211.46417-.10148.898458-.152344 1.302735-.152344.598928 0 1.036037.144447 1.310547.433594.279499.289153.419921.727886.419921 1.316406v.791016h-1.265624c-1.272724 0-2.2012.206274-2.785157.617188-.578964.405839-.867187 1.045448-.867187 1.917968 0 .73048.218988 1.300024.658203 1.710938.444205.410906 1.031069.617187 1.759765.617187 1.088055 0 1.971605-.424317 2.650391-1.271484l.134766 1.111328h.943359v-5.310547c0-1.0247-.260225-1.763377-.779297-2.214844-.51408-.45654-1.247877-.685546-2.201172-.685546zm13.8125 0c-1.103027 0-1.998732.378938-2.6875 1.134765-.688768.75076-1.033203 1.783723-1.033203 3.097656 0 1.258.335102 2.260959 1.003906 3.011719.673795.75084 1.576011 1.126953 2.708985 1.126953.484134 0 .918422-.05909 1.302734-.175781.384314-.116693.662335-.24194.832031-.378906l-.232421-.861328c-.5041.29422-1.061012.441406-1.669922.441406-.873439 0-1.538-.291633-1.992188-.875-.454188-.583373-.679687-1.345563-.679687-2.289063 0-.99428.236785-1.78656.710937-2.375.474152-.588526 1.10312-.882812 1.886719-.882812.618893 0 1.170163.147099 1.654297.441406l.351562-.867187c-.169697-.11661-.444897-.235665-.824218-.357425-.374331-.126827-.817951-.191406-1.332032-.191406zm-5.203125.08398c-.479143 0-.934916.138169-1.36914.412109-.429232.268874-.794286.691231-1.09375 1.269531l-.134766-1.597656h-.996094v8.050782h1.242188v-4.556641c0-.715267.220942-1.323126.660156-1.820313.444206-.497093 1.004808-.74414 1.683594-.74414.13975 0 .310123.01981.509766.06055l.05273-1.035157c-.144741-.0258-.33009-.03906-.554688-.03906zm-16.230468.882812c1.25775 0 1.916669.868616 1.976562 2.603516h-4.3125c.06987-.80146.315124-1.435664.734375-1.902344.42424-.46676.957713-.701172 1.601563-.701172zm8.421875 3.378907h.951171v1.773437c-.593937.887733-1.40261 1.332031-2.425781 1.332031-.37433 0-.685993-.121794-.935547-.365234-.249554-.24352-.375-.588756-.375-1.035156 0-.248594.02344-.457614.06836-.625.04492-.17246.126308-.328663.246094-.470703.119786-.14686.284515-.262297.49414-.34375.209625-.08617.476361-.151533.800781-.197266.32442-.04573.716602-.06836 1.175782-.06836zm29.564453 2.298828c-.26452 0-.465716.07987-.605469.242187-.139753.16232-.210937.357711-.210937.585938 0 .22324.07118.418544.210937.585937.14474.16232.345935.244141.605469.244141.25954 0 .457037-.08182.591797-.244141.139746-.16232.208984-.357624.208984-.585937 0-.228227-.06924-.423618-.208984-.585938-.13476-.16232-.332257-.242187-.591797-.242187zm3.654297 0c-.264527 0-.467669.07987-.607422.242187-.13974.16232-.208985.357711-.208985.585938 0 .22324.06924.418544.208985.585937.144746.16232.347888.244141.607422.244141.259533 0 .45703-.08182.591797-.244141.139746-.16232.208984-.357624.208984-.585937 0-.228227-.06924-.423618-.208984-.585938-.134767-.16232-.332264-.242187-.591797-.242187zm3.652343 0c-.264526 0-.465715.07987-.605468.242187-.139747.16232-.208985.357711-.208985.585938 0 .22324.06924.418544.208985.585937.14474.16232.345928.244141.605468.244141.259534 0 .457037-.08182.591797-.244141.139747-.16232.208985-.357624.208985-.585937 0-.228227-.06924-.423618-.208985-.585938-.13476-.16232-.332263-.242187-.591797-.242187zm-23.988281 40.648437v9.800782h1.181641v-4.033204l.873047-.80664 3.71875 4.839844h1.382812l-4.216797-5.44336 4.015625-4.357422h-1.382812l-4.390625 4.69336v-4.69336zm39.900387 0c-.21484 0-.39249.0669-.53125.201172-.13428.129807-.20117.299399-.20117.509766 0 .210366.0669.383305.20117.517578.13876.13428.31641.201172.53125.201172.21037 0 .38469-.06689.52344-.201172.13875-.134273.20899-.307212.20899-.517578 0-.210367-.0702-.379959-.20899-.509766-.13427-.134273-.30859-.201172-.52344-.201172zm-28.662106 2.550782c-1.042887 0-1.861734.339197-2.457031 1.019531-.59082.675866-.886719 1.571047-.886719 2.685547 0 1.087646.300619 1.975343.900391 2.660156.599772.68034 1.413899 1.019531 2.443359 1.019531 1.00708 0 1.818442-.34253 2.431641-1.027344.6132-.689293.917969-1.57365.917969-2.652343 0-1.1145-.293946-2.009681-.884766-2.685547-.590821-.680334-1.413005-1.019531-2.464844-1.019531zm8.291016 0c-1.06974-.000001-1.873043.374999-2.410156 1.126953l-.119141-.978516h-.966797v7.101563h1.113282v-3.960938c0-1.624753.730306-2.435547 2.189453-2.435547.541586 0 .919925.161541 1.134765.488281.214847.322267.322266.80526.322266 1.445313v4.462891h1.113281v-4.34375c0-.975747-.194578-1.702714-.583984-2.181641-.384927-.483393-.982829-.724609-1.792969-.724609zm6.949219 0c-.9847 0-1.758299.343916-2.322266 1.033203-.56396.689293-.845703 1.593917-.845703 2.71289 0 1.05632.292566 1.926515.878906 2.611328.59082.684814 1.348878 1.027344 2.275391 1.027344 1.05632 0 1.825767-.439126 2.304687-1.316406l-.02734 1.660156v2.636719h1.101562v-10.216797h-1.007812l-.121094 1.146484c-.47892-.863846-1.224768-1.294921-2.236328-1.294921zm5.0625.148437v4.335937c0 .96232.210126 1.687908.630859 2.175782.425213.4834 1.04948.724609 1.873047.724609.581867 0 1.04126-.08716 1.376953-.261719.340173-.179033.625249-.446614.853512-.804687l.11328.931641h.9668v-7.101563h-1.115232v3.986328c-.000001.28198-.02028.540691-.06055.773438-.04028.232746-.108558.452309-.207032.658203-.09847.205893-.226152.376871-.382812.515625-.15218.138753-.350097.249511-.591797.330078-.237227.08057-.509526.121094-.818359.121094-.54606 0-.936602-.163495-1.173829-.490235-.232746-.326746-.349609-.8064-.349609-1.4375v-4.457031h-1.115234zm7.802731 0v7.101563h1.09961v-7.101563zm-28.105466.705078c.729574 0 1.280843.261476 1.652344.785156.371501.519207.556641 1.211752.556641 2.080079 0 .555013-.07634 1.040771-.228516 1.457031-.152181.41178-.398112.743487-.738281.99414-.335693.246174-.749838.369141-1.242188.369141-.716146 0-1.262695-.26009-1.638672-.779297-.375976-.5192-.5625-1.200928-.5625-2.046875 0-.863853.186524-1.555012.5625-2.074219.375977-.52368.922526-.785156 1.638672-.785156zm15.369141 0c .707193 0 1.234864.241209 1.583984.724609.34912.478921.523438 1.140382.523438 1.986329 0 1.982826-.705321 2.974609-2.115235 2.974609-.716146 0-1.259359-.255372-1.630859-.765625s-.556641-1.206137-.556641-2.087891c.000001-.868326.181802-1.558106.548829-2.068359.3715-.510253.921384-.763672 1.646484-.763672zm-5.566406 36.513676-1.101563.082v7.76757c0 .42522.04997.77857.148438 1.06055.09847.27751.251144.49097.457031.63867.205893.1477.437659.2504.697266.3086.264073.0537.591062.0801.980468.0801h.529297l.06055-.76563-.300781-.0195c-.192467-.0135-.343752-.0243-.451172-.0332-.107427-.0134-.222336-.0323-.347656-.0547-.120847-.0269-.212724-.058-.275391-.0937-.05819-.0403-.118974-.0902-.181641-.14844-.06265-.0582-.107898-.13118-.134765-.2207-.02233-.0895-.04261-.19222-.06055-.3086-.0134-.11637-.01953-.25821-.01953-.42382v-7.86914zm-21.041016.082v9.80078h1.181641v-4.73828h2.121094c1.105549 0 1.91219-.22429 2.417968-.67188.505778-.45207.757813-1.11686.757813-1.99414 0-.42969-.07772-.80192-.234375-1.11523-.152181-.3178-.375082-.56844-.666016-.75196-.290935-.18351-.620687-.3173-.992187-.40234-.371501-.085-.793702-.12695-1.263672-.12695zm1.181641.88476h2.134765c.644532 0 1.13501.11686 1.470703.34961.34017.22827.509766.62077.509766 1.17578 0 .64453-.154053 1.09586-.46289 1.35547-.304362.2596-.824545.39063-1.558594.39063h-2.09375zm9.238281 1.66602c-.948893 0-1.803548.17765-2.564453.53125l.300781.81836c.326741-.15666.698975-.27824 1.115235-.36328.416259-.0895.80542-.13282 1.167968-.13282.53711 0 .929606.12574 1.175782.38086.250651.25513.375.64291.375 1.16211v.69922h-1.134766c-1.141357 0-1.974366.18042-2.498047.54297-.519206.35807-.777344.92155-.777344 1.69141 0 .64452.195964 1.14916.589844 1.51171.398356.36255.924642.54297 1.578125.54297.975749 0 1.768229-.37361 2.376953-1.12109l.121094.98047h.845703v-4.68555c0-.90413-.233724-1.55672-.699219-1.95508-.461019-.40282-1.117757-.60351-1.972656-.60351zm16.556641 0c-.93994 0-1.715492.33781-2.324219 1.01367s-.912109 1.58186-.912109 2.71875c-.000001 1.12345.31144 2.01391.933593 2.67187.622154.65348 1.431561.98047 2.429688.98047.895186 0 1.693771-.20678 2.396484-.62304l-.234375-.78711c-.37598.18798-.717124.32983-1.021484.42382-.30436.094-.642172.14063-1.013672.14063-.68482 0-1.238856-.21623-1.664063-.65039-.42522-.43864-.655606-1.11149-.691406-2.01563h4.800781l.03906-.5625c0-1.0384-.235105-1.84976-.705078-2.43164-.465494-.58634-1.142497-.8789-2.033203-.8789zm-8.835938.0742c-.429687 0-.839109.11962-1.228516.36132-.384926.23722-.711915.61084-.980468 1.1211l-.121094-1.40821h-.892578v7.10157h1.115234v-4.02149c0-.6311.195957-1.16487.589844-1.60351.398353-.43864.901039-.65821 1.509766-.65821.12532 0 .277991.0169.457031.0527l.04687-.91211c-.129807-.0224-.294681-.0332-.496094-.0332zm12.648438.0742 2.8125 6.88672-1.046875 2.67383 1 .21485 3.740239-9.7754h-1.126958l-2.029297 5.67188-2.214844-5.67188zm-3.78711.70508c1.127907 0 1.719704.76417 1.773438 2.29492h-3.867188c.06266-.70719.282223-1.26594.658203-1.67773.380447-.41178.858154-.61719 1.435547-.61719zm-15.863281 2.98047h.851563v1.56445c-.532634.78329-1.25822 1.17383-2.175782 1.17383-.335693 0-.614094-.10742-.83789-.32226-.223796-.21485-.335938-.51823-.335938-.91211 0-.21932.02027-.40308.06055-.55078.04028-.15218.113282-.29069.220703-.41602.107422-.1298.255371-.23112.44336-.30273.187987-.0761.427816-.13356.71875-.17383.290934-.0403.642903-.0606 1.054687-.0606zm-11.138672 33.61524v9.80078h1.181641v-4.03321l.873047-.80664 3.71875 4.83985h1.382812l-4.216797-5.44336 4.015625-4.35742h-1.382812l-4.390625 4.69336v-4.69336zm20.994141 0c-.21484 0-.392497.0669-.53125.20117-.13428.1298-.201172.2994-.201172.50976 0 .21037.06689.38331.201172.51758.138753.13428.31641.20117.53125.20117.210366 0 .384684-.0669.523437-.20117.138754-.13427.208985-.30721.208985-.51758 0-.21036-.07023-.37996-.208985-.50976-.134273-.13428-.308591-.20117-.523437-.20117zm-4.169922.75195-.892578.0664-.181641 1.88085-1.09375.0723-.02734.63281h1.09375v4.26953c0 .43416.03915.78419.115235 1.05274.07609.26856.213216.49145.410156.66601.201413.17456.45955.29419.777344.36133.317786.0671.735266.10157 1.25.10157h.46289l.05273-.76563-.5625-.0273c-.5953-.0224-.978358-.11565-1.148438-.28125-.170086-.17009-.255859-.53899-.255859-1.10743v-4.26953h1.880859v-.70508h-1.880859v-1.94726zm-6.001953 1.79883c-.948894 0-1.803549.17765-2.564453.53125l.302734.81836c.326741-.15666.697021-.27824 1.113281-.36328.41626-.0895.80542-.13282 1.167969-.13282.537109 0 .929606.12574 1.175781.38086.250652.25513.375.64291.375 1.16211v.69922h-1.134765c-1.141358 0-1.972413.18042-2.496094.54297-.519206.35807-.779297.92155-.779297 1.69141 0 .64452.195964 1.14916.589844 1.51171.398356.36255.924641.54297 1.578125.54297.975748 0 1.768229-.37361 2.376953-1.12109l.121094.98047h.845703v-4.68555c0-.90413-.231771-1.55672-.697266-1.95508-.461019-.40282-1.119711-.60351-1.974609-.60351zm15.642578 0c-.93994 0-1.713546.33781-2.322266 1.01367-.608726.67586-.912109 1.58186-.912109 2.71875 0 1.12345.309487 2.01391.93164 2.67187.622154.65348 1.433514.98047 2.431641.98047.89518 0 1.693764-.20678 2.396485-.62304l-.234376-.78711c-.375973.18798-.717124.32983-1.021484.42382-.304367.094-.642172.14063-1.013672.14063-.684813 0-1.238849-.21623-1.664062-.65039-.42522-.43864-.65756-1.11149-.69336-2.01563h4.800782l.04102-.5625c0-1.0384-.235111-1.84976-.705078-2.43164-.4655-.58634-1.144449-.8789-2.035156-.8789zm-6.027344.14843v7.10157h1.099609v-7.10157zm6.054688.70508c1.127906 0 1.719704.76416 1.773437 2.29492h-3.867187c.06267-.70719.282229-1.26594.658203-1.67773.380453-.41178.858153-.61719 1.435547-.61719zm-14.951172 2.98047h.851562v1.56445c-.532633.78329-1.256266 1.17383-2.173828 1.17383-.335693 0-.616048-.10742-.839844-.32226-.223795-.21485-.335937-.51823-.335937-.91211 0-.21932.02027-.40308.06055-.55078.04028-.15218.113282-.29069.220703-.41602.107422-.1298.255371-.23112.443359-.30273.187988-.0761.427816-.13356.71875-.17383.290935-.0403.642904-.0606 1.054688-.0606zm5.511719 29.17774-1.101563.0801v9.80274h1.101563v-2.59766l.765624-.72461 2.820313 3.32227h1.308594l-3.357422-3.85938 3.101562-3.24414h-1.349609l-3.330078 3.60547.04102-1.46289v-4.92187zm-17.052735.0801v9.80274h1.181641v-4.72656h2.966797c.367024.82804 1.027099 2.40357 1.980468 4.72656h1.222657c-.138753-.32227-.359701-.82967-.664063-1.52344-.299886-.69377-.564697-1.30583-.792969-1.83398-.228271-.53264-.446451-1.04476-.652343-1.53711.563964-.16114.990885-.43206 1.277343-.8125.290934-.38494.435547-.9187.435547-1.60352 0-.8549-.245931-1.48388-.738281-1.88672-.49235-.40282-1.250407-.60547-2.275391-.60547zm1.181641.88672h2.779297c.680338 0 1.156656.13379 1.429687.40235.273031.26408.410156.67212.410156 1.22265 0 .32674-.02636.59155-.08008.79297-.05371.20142-.158366.37573-.310547.52344-.147705.14321-.353108.24258-.617187.30078s-.607992.0879-1.033203.0879h-2.578125v-3.33008zm10.458984 1.66602c-.939942 0-1.713542.33781-2.322266 1.01367s-.912109 1.58186-.912109 2.71875c0 1.12345.309489 2.01392.931641 2.67188.622152.65348 1.433512.98046 2.43164.98046.895183 0 1.693767-.20874 2.396485-.625l-.234375-.78515c-.375977.18798-.717123.32983-1.021485.42383s-.642171.14062-1.013671.14062c-.684815 0-1.238851-.21818-1.664063-.65234-.425212-.43864-.657553-1.10954-.693359-2.01367h4.800781l.04102-.56446c0-1.03841-.235107-1.84782-.705078-2.42969-.465494-.58633-1.14445-.8789-2.035156-.8789zm14.046875 0c-1.042893 0-1.861738.3392-2.457031 1.01953-.59082.67587-.886719 1.57105-.886719 2.68555 0 1.08764.298664 1.97339.898438 2.6582.599773.68034 1.415852 1.02148 2.445312 1.02148 1.00708 0 1.816488-.34253 2.429688-1.02734.6132-.68929.919921-1.57365.919921-2.65234.000001-1.1145-.295898-2.00968-.886718-2.68555-.590827-.68033-1.411058-1.01953-2.462891-1.01953zm8.291016 0c-1.06974 0-1.873043.375-2.410157 1.12695l-.121093-.98047h-.966797v7.10352h1.115234v-3.96094c0-1.62475.728354-2.4375 2.1875-2.4375.541587 0 .919926.1635 1.134766.49024.214847.32226.322266.8033.322266 1.44336v4.46484h1.115232v-4.34375c0-.97575-.194576-1.70272-.583982-2.18164-.384927-.4834-.982829-.72461-1.792969-.72461zm6.949221 0c-.9847 0-1.76026.34392-2.32422 1.0332-.56397.6893-.8457 1.59392-.8457 2.71289 0 1.05632.29451 1.92652.88085 2.61133.59083.68481 1.34888 1.02734 2.2754 1.02734 1.05631 0 1.82381-.43912 2.30273-1.3164l-.0273 1.6582v2.63867h1.10156v-10.21875h-1.00781l-.1211 1.14844c-.47892-.86385-1.22281-1.29492-2.23437-1.29492zm-29.259768.85156c1.127927 0 1.719724.76612 1.773437 2.29688h-3.867187c.06266-.7072.282227-1.2679.658203-1.67969.380453-.41178.858154-.61719 1.435547-.61719zm14.019531 0c .729573 0 1.278891.26148 1.650391.78516.3715.5192.558594 1.2137.558594 2.08203 0 .55501-.07634 1.04077-.228516 1.45703-.15218.41178-.398108.74349-.738281.99414-.335694.24617-.749841.36914-1.242188.36914-.716147 0-1.262692-.26009-1.638672-.7793-.375973-.5192-.564453-1.20092-.564453-2.04687 0-.86385.18848-1.55697.564453-2.07617.37598-.52368.922525-.78516 1.638672-.78516zm15.367187 0c .70719 0 1.23487.24122 1.58398.72461.34913.47893.52344 1.14234.52344 1.98828 0 1.98283-.70337 2.97461-2.11328 2.97461-.71614 0-1.2613-.25537-1.63281-.76562-.3715-.51026-.55664-1.20614-.55664-2.08789 0-.86833.18375-1.55811.55078-2.06836.3715-.51026.91943-.76563 1.64453-.76563z" fill="#f2f2f2"/><path d="m219.90039 70.37493a5.4998521 5.4999063 0 0 0 -5.5 5.5 5.4998521 5.4999063 0 0 0 5.5 5.5 5.4998521 5.4999063 0 0 0 5.5-5.5 5.4998521 5.4999063 0 0 0 -5.5-5.5zm0 1.375a4.1248992 4.1249399 0 0 1 4.125 4.125 4.1248992 4.1249399 0 0 1 -4.125 4.125 4.1248992 4.1249399 0 0 1 -4.125-4.125 4.1248992 4.1249399 0 0 1 4.125-4.125zm0 11a10.999663 10.999772 0 0 0 -10.90039 9.625h1.38477a9.6247104 9.6248055 0 0 1 9.51562-8.25 9.6247104 9.6248055 0 0 1 1.375.109375v-1.386719a10.999663 10.999772 0 0 0 -1.375-.09766zm6.1875 0a4.8123822 4.8123822 0 0 0 -4.8125 4.8125 4.8123822 4.8123822 0 0 0 4.8125 4.8125 4.8123822 4.8123822 0 0 0 4.8125-4.8125 4.8123822 4.8123822 0 0 0 -4.8125-4.8125z" fill="#43be80"/><path d="m219.90039 144.14251a5.4998525 5.4999067 0 0 0 -5.5 5.5 5.4998525 5.4999067 0 0 0 5.5 5.5 5.4998525 5.4999067 0 0 0 5.5-5.5 5.4998525 5.4999067 0 0 0 -5.5-5.5zm0 1.375a4.1248995 4.1249402 0 0 1 4.125 4.125 4.1248995 4.1249402 0 0 1 -4.125 4.125 4.1248995 4.1249402 0 0 1 -4.125-4.125 4.1248995 4.1249402 0 0 1 4.125-4.125zm0 11a10.999664 10.999773 0 0 0 -10.90039 9.625h1.38477a9.6247111 9.6248062 0 0 1 9.51562-8.25 9.6247111 9.6248062 0 0 1 1.375.11133v-1.38868a10.999664 10.999773 0 0 0 -1.375-.0976zm6.1875 0a4.8123827 4.8123827 0 0 0 -4.8125 4.8125 4.8123827 4.8123827 0 0 0 4.8125 4.8125 4.8123827 4.8123827 0 0 0 4.8125-4.8125 4.8123827 4.8123827 0 0 0 -4.8125-4.8125z" fill="#f47750"/><path d="m219.90039 105.5722a5.4998525 5.4999067 0 0 0 -5.5 5.5 5.4998525 5.4999067 0 0 0 5.5 5.5 5.4998525 5.4999067 0 0 0 5.5-5.5 5.4998525 5.4999067 0 0 0 -5.5-5.5zm0 1.375a4.1248995 4.1249402 0 0 1 4.125 4.125 4.1248995 4.1249402 0 0 1 -4.125 4.125 4.1248995 4.1249402 0 0 1 -4.125-4.125 4.1248995 4.1249402 0 0 1 4.125-4.125zm11 9.625-11 5.5 2.75 1.375 1.375 4.125 1.375-2.75 2.75 1.375zm-11 1.375a10.999664 10.999773 0 0 0 -10.90039 9.625h1.38477a9.6247111 9.6248062 0 0 1 9.51562-8.25 9.6247111 9.6248062 0 0 1 1.375.10937v-1.38867a10.999664 10.999773 0 0 0 -1.375-.0957z" fill="#fdbc4b"/><path d="m219.90039 193.28118a5.4998525 5.4999067 0 0 0 -5.5 5.5 5.4998525 5.4999067 0 0 0 5.5 5.5 5.4998525 5.4999067 0 0 0 5.5-5.5 5.4998525 5.4999067 0 0 0 -5.5-5.5zm0 1.375a4.1248995 4.1249402 0 0 1 4.125 4.125 4.1248995 4.1249402 0 0 1 -4.125 4.125 4.1248995 4.1249402 0 0 1 -4.125-4.125 4.1248995 4.1249402 0 0 1 4.125-4.125zm0 11a10.999664 10.999773 0 0 0 -10.90039 9.625h1.38477a9.6247111 9.6248062 0 0 1 9.51562-8.25 9.6247111 9.6248062 0 0 1 1.375.10937v-1.38671a10.999664 10.999773 0 0 0 -1.375-.0977zm6.1875 0a4.8123622 4.8123622 0 0 0 -4.8125 4.8125 4.8123622 4.8123622 0 0 0 4.8125 4.8125 4.8123622 4.8123622 0 0 0 4.8125-4.8125 4.8123622 4.8123622 0 0 0 -4.8125-4.8125z" fill="#9b59b6"/><path d="m228.15039 85.49993-2.75 2.75-1.375-1.375-1.375 1.375 2.75 2.75 4.125-4.125zm-2.75 72.39258v2.75 1.375h1.375 1.375v-1.375h-1.375v-2.75zm-2.0625 51.88867a.68748325.68748325 0 0 0 -.6875.6875.68748325.68748325 0 0 0  .6875.6875.68748325.68748325 0 0 0  .6875-.6875.68748325.68748325 0 0 0 -.6875-.6875zm2.75 0a .68748325.68748325 0 0 0 -.6875.6875.68748325.68748325 0 0 0  .6875.6875.68748325.68748325 0 0 0  .6875-.6875.68748325.68748325 0 0 0 -.6875-.6875zm2.75 0a .68748325.68748325 0 0 0 -.6875.6875.68748325.68748325 0 0 0  .6875.6875.68748325.68748325 0 0 0  .6875-.6875.68748325.68748325 0 0 0 -.6875-.6875z" fill="#fff" fill-rule="evenodd"/><g transform="translate(-20.571403 -267.21939)"><path d="m52.610314 348.01619-.711549-6.55722-2.359275-1.28772.528689 3.35229-2.466068-4.39233-3.030739-1.64425 3.321769 6.09519-1.928837 1.5979 2.035528.8918 2.157342-1.74882.418147 2.81174z" fill="#ffc000"/><path d="m64.53243 348.01246.711549-6.55722 2.359275-1.28772-.528689 3.35229 2.466069-4.39234 3.030738-1.64424-3.321768 6.09519 1.928837 1.5979-2.035529.8918-2.157341-1.74882-.418148 2.81174z" fill="#ffc000"/><path d="m53.411699 362.83686c-.149582.23413 4.392254 2.10178 6.709659 1.57976 3.505469-.78964 5.164543-4.30955 4.797166-4.37344.103759-.37889-3.694628-1.79748-6.088098-1.26381-2.157061.48097-5.448179 3.62737-5.418727 4.05749z" fill="#ef5500"/><path d="m49.969209 358.2805c-.129921 3.72251 5.705856 6.06911 9.275585 6.11949 5.550714.0784 7.054672-8.14365 6.470597-8.28126 0 0-8.970173-1.29894-11.857448-.93123-2.599638.33108-3.828783 1.37491-3.888734 3.093z" fill="#e3311c"/><path d="m53.411694 362.83686c-.149582.23413 4.392254 2.10178 6.709659 1.57976 3.50547-.78964 5.164543-4.30955 4.797166-4.37344.103759-.37889-3.694628-1.79748-6.088098-1.26381-2.157061.48097-5.448179 3.62737-5.418727 4.05749z" fill="#ef5500"/><path d="m62.057814 355.66479 1.103253 2.39637s2.028516-2.02246 1.89329-2.04598c-.135251-.0235-2.996543-.35039-2.996543-.35039z" fill="#ecf0f1" fill-opacity=".984"/><path d="m58.001654 343.14807c-6.636703 0-12.016823 4.97332-12.016823 11.10821s5.38012 11.1082 12.016823 11.1082 12.016822-4.97331 12.016822-11.1082-5.380119-11.10821-12.016822-11.10821zm-2.804988 11.97292c3.651202.002 10.518704.99774 10.518704.99774.584075.13761-.919883 8.35961-6.470597 8.28127-3.569729-.0504-9.405506-2.39699-9.275584-6.11949.05995-1.71809 1.289096-2.76193 3.888733-3.093.3609-.046.817144-.0668 1.338744-.0665z" fill="#97df4e"/><path d="m65.587871 346.83972c-1.549144 0-2.804988 2.17396-2.804988 4.85568 0 .34736.02372.68768.06375 1.01438 1.356568.67107 2.934782 1.47301 4.741398 2.38627.497197-.87616.804828-2.07543.804828-3.40065 0-2.68172-1.255819-4.85568-2.804988-4.85568z" fill="#fff" fill-opacity=".784" stroke-width=".1"/><path d="m65.587871 346.83972c-1.549144 0-2.804988 2.17396-2.804988 4.85568 0 .34736.02372.68768.06375 1.01438 1.356543.67107 2.934782 1.47301 4.741398 2.38627.497197-.87616.804828-2.07543.804828-3.40065 0-2.68172-1.255819-4.85568-2.804988-4.85568z" fill="url(#i)" stroke="#000" stroke-width=".260473"/><path d="m65.763182 348.00376c-1.170648 0-2.119678 1.75703-2.119678 3.92445 0 .4342.04126.84843.111562 1.23887 1.111081.5543 2.118888 1.05618 3.402654 1.70447.44171-.71921.725141-1.76864.725141-2.94334 0-2.16742-.949004-3.92445-2.119679-3.92445z" fill-opacity=".704" stroke-width=".1"/><path d="m65.865947 349.08554c-.952089 0-1.72392 1.42898-1.72392 3.19171 0 .35313.03356.69003.09073 1.00756.903639.45081 1.723282.85898 2.76735 1.38623.359217-.58493.589736-1.43842.589736-2.39379 0-1.76273-.771806-3.19171-1.723896-3.19171z" fill-opacity=".704" stroke-width=".1"/><ellipse cx="148.0607" cy="316.68729" fill="#fff" fill-opacity=".834" rx=".320136" ry=".484505" transform="matrix(.95698519 .29013678 -.24140344 .97042484 0 0)"/><ellipse cx="106.6711" cy="335.52948" fill="#73d412" rx=".643183" ry="1.303657" transform="matrix(.98417145 .17721896 -.16318503 .98659548 0 0)"/><ellipse cx="191.06055" cy="306.76532" fill="#73d412" rx=".89665" ry="1.576648" transform="matrix(.93755813 .34782864 -.39376342 .91921182 0 0)"/><path d="m62.057819 355.66479 1.103253 2.39637s2.028516-2.02246 1.89329-2.04598c-.135251-.0235-2.996543-.35039-2.996543-.35039z" fill="url(#j)"/><ellipse cx="278.64261" cy="251.0257" fill="#fff" fill-opacity=".508" rx=".884994" ry=".927526" transform="matrix(.82223302 .569151 -.666011 .74594192 0 0)"/><ellipse cx="58.001686" cy="354.25626" fill="none" rx="12.016824" ry="11.108207" stroke="#51950d" stroke-width=".260306"/><path d="m52.09756 428.94336-.6573-7.0667-2.17945-1.38777.48839 3.61275-2.2781-4.7336-2.79973-1.772 3.06859 6.56876-1.78182 1.72205 1.88037.9611 1.99291-1.8847.38626 3.0302z" fill="#ff7fd6"/><path d="m65.24517 428.84773.65731-7.0667 2.17944-1.38776-.48839 3.61274 2.27811-4.7336 2.79973-1.772-3.06859 6.56877 1.78182 1.72205-1.88037.96109-1.99291-1.8847-.38626 3.0302z" fill="#ff7fd6"/><path d="m58.71754 421.40878c-4.95184 0-9.14444 3.49588-10.57359 8.32443h.38478c.16078 0 .29243.14692.29243.32634v6.35497c0 .17942-.13165.32634-.29243.32634h-.46174c1.34595 4.9756 5.60164 8.6107 10.65055 8.6107 5.17112 0 9.51946-3.81602 10.75315-8.97712h-.69772c-.16076 0-.40361-.45593-.29242-.32633.20467.23855.0441-3.71525 0-6.33207-.003-.17939.13166-.32634.29242-.32634h.41556c-1.52394-4.64955-5.63762-7.98092-10.47099-7.98092z" fill="#97df4e"/><g fill="#73d412"><ellipse cx="-130.48274" cy="435.48129" rx="1.023139" ry="1.850598" transform="matrix(.96320914 -.26875296 .41754689 .90865538 0 0)"/><ellipse cx="111.95081" cy="448.57489" rx="1.123312" ry="1.795008" transform="matrix(.9907158 -.13594927 -.11071485 .99385221 0 0)"/><path d="m68.59855 435.08628c-2.83981.57832-7.02092 3.50871-10.16317 3.53244-3.72695.0281-9.38051-3.57559-10.45048-3.43512-.73801.31216 2.10721 10.03859 9.95283 10.00765 4.56237-.018 6.77275-1.14126 8.78311-3.6126 1.28141-1.57522 2.32728-3.71736 2.78065-5.12978h-.62078c-.16077 0-.28729-.14691-.28729-.32633v-1.00191c0-.0113.004-.0234.005-.0344z"/></g><path d="m53.034174 441.77131c-.196052-.31523 2.751413 1.98334 5.311451 2.1093 1.665968.082 2.245981-.29383 2.842166-.47906.585316-.18186 3.65668-2.53368 3.510388-2.52395 0 0-4.317466 1.63857-6.182375 1.62624-1.622199-.0107-5.48163-.73253-5.48163-.73253z" fill="#e3311c"/><path d="m51.148325 438.90926c.06731.58296-.04127.90683.23217 1.48979.526658 1.12285 4.994454 3.49402 6.99418 3.49775 1.999726.004 2.795081-.45665 4.033976-1.1983 1.251043-.74893 2.588243-1.77247 3.250408-3.17389.240657-.50935.174135-1.71649.174135-1.71649" fill="none" stroke="#51950d" stroke-width=".248001"/><path d="m58.71754 421.25992c-4.97809 0-9.20807 3.50927-10.66593 8.38169h.24625c1.45212-4.68903 5.55769-8.08398 10.41968-8.08398 4.75107 0 8.78974 3.2404 10.32734 7.76337h.24112c-1.54581-4.70445-5.70071-8.06108-10.56846-8.06108zm10.65568 15.02292c-1.20217 5.11575-5.50929 8.91414-10.65568 8.91414-4.99165 0-9.18855-3.57407-10.53254-8.45612h-.24114c1.34791 5.0678 5.66782 8.75955 10.77368 8.75955 5.25799 0 9.68718-3.91632 10.89168-9.21757z" fill="#51950d"/><path d="m68.439522 429.5729s.75566-.56284 1.046586-1.00763c.23808-.36399.554075-1.35115.554075-1.35115s.359746 1.16446.328341 1.64886c-.03141.4844-.389905 1.14504-.389905 1.14504-.370385-.36791-.645485-.88466-1.539097-.43512z"/><path d="m68.535086 429.58632c-.08612 2.1634-.221843 4.29338.01297 6.61162 0 0 .761045.42094 1.102141-.007.599649-.7518.710398-2.77394.656682-3.77864-.05904-1.1043-.06332-2.36743-.861895-3.0229-.352703-.28951-.909979.19662-.909979.19662z" fill="url(#e)" stroke="#000" stroke-width=".173427"/><path d="m68.45241 431.02121.08972 5.15858s.757515.13609.92771-.21919c.435462-.90902.477834-2.08233.419668-3.02928-.04393-.71504-.118268-1.46253-.588813-1.85645-.226555-.18966-.848284-.0537-.848284-.0537z" fill-opacity=".706"/><path d="m68.524103 431.71101c-.152301 1.3095-.166863 2.42913-.0076 3.7016 0 0 .463043.13215.651559-.0675.3453-.36579.397063-1.37516.389905-2.08513-.0053-.51311.07097-1.09651-.312072-1.49952-.18914-.199-.721758-.0494-.721758-.0494z" fill-opacity=".706"/><ellipse cx="118.60755" cy="408.71826" fill="#fff" fill-opacity=".834" rx=".244745" ry=".388122" transform="matrix(.97516477 .22148061 -.11409357 .99347001 0 0)"/><path d="m48.954358 429.93931s-.75566-.56284-1.046586-1.00763c-.23808-.36399-.554075-1.35115-.554075-1.35115s-.359746 1.16446-.328341 1.64886c.03141.4844.389905 1.14504.389905 1.14504.370385-.36791.645485-.88466 1.539097-.43512z"/><path d="m48.858794 429.95273c.08612 2.1634.221843 4.29338-.01297 6.61162 0 0-.761045.42094-1.102141-.007-.599649-.7518-.710398-2.77394-.656682-3.77864.05904-1.1043.06332-2.36743.861895-3.0229.352703-.28951.909979.19662.909979.19662z" fill="url(#f)" stroke="#000" stroke-width=".173427"/><path d="m48.94147 431.38762-.08972 5.15858s-.757515.13609-.92771-.21919c-.435462-.90902-.477834-2.08233-.419668-3.02928.04393-.71504.118268-1.46253.588813-1.85645.226555-.18966.848284-.0537.848284-.0537z" fill-opacity=".706"/><path d="m48.869777 432.07742c.152301 1.3095.166863 2.42913.0076 3.7016 0 0-.463043.13215-.651559-.0675-.3453-.36579-.397063-1.37516-.389905-2.08513.0053-.51311-.07097-1.09651.312072-1.49952.18914-.199.721758-.0494.721758-.0494z" fill-opacity=".706"/><ellipse cx="1.32617" cy="435.23337" fill="#fff" fill-opacity=".834" rx=".244745" ry=".388122" transform="matrix(-.97516477 .22148061 .11409357 .99347001 0 0)"/><ellipse cx="331.58041" cy="316.88647" fill="#fff" fill-opacity=".508" rx=".884994" ry=".927526" transform="matrix(.82223302 .569151 -.666011 .74594192 0 0)"/><g stroke-linecap="round" stroke-linejoin="round"><ellipse cx="58.677429" cy="392.80145" fill="#dd96e6" rx="13.849161" ry="12.538832" stroke="#7d0d95" stroke-width=".053457"/><ellipse cx="58.677437" cy="392.7905" fill="none" rx="13.850182" ry="12.552713" stroke="#b251ba" stroke-width=".312733"/><ellipse cx="66.894638" cy="394.63223" fill="url(#g)" rx="3.482462" ry="5.476782" stroke="#000" stroke-width=".298397"/></g><ellipse cx="67.59613" cy="393.52991" fill-opacity=".706" rx="1.762377" ry="3.730311" stroke-width="1.5"/><ellipse cx="67.218506" cy="393.88708" fill-opacity=".706" rx="2.643521" ry="4.801889" stroke-width="1.5"/><ellipse cx="-193.82228" cy="354.02634" fill="#fff" fill-opacity=".834" rx=".920243" ry=".858344" transform="matrix(.80064375 -.59914071 .62996576 .7766229 0 0)"/><path d="m63.420409 393.17599s.07711-1.62874.654564-2.63773 1.718343-2.1057 2.59308-2.14315c.720363-.0308 1.522924.55818 2.240622.49457.717694-.0636 1.837824-.71438 1.837824-.71438-.430904.70657-1.238106.98153-1.258776 1.95082l.302106 1.20896s-1.073646-1.68066-1.888175-2.08821c-.451109-.22571-1.004357-.24317-1.485356-.1099-.683727.18943-1.320805.65909-1.787463 1.23643-.625822.77426-1.208426 2.80259-1.208426 2.80259z"/><path d="m55.236903 393.41703c.468932.91816.553766 1.88223.189484 2.15331-.364281.27109-.472726-.89381-.803752-1.85853-.401074-1.16884-.746785-1.97776-.315363-1.54883.309599.30781.4607.3359.929631 1.25405z" fill="#ce64dc"/><path d="m55.416127 395.67039s.27401-.75964.01849-1.77559c-.255449-1.01595-1.466274-2.13686-1.466274-2.11705" fill="none" stroke="#b251ba" stroke-width=".232499"/><path d="m60.518497 394.78091c-.361081.8227-.438904 1.20894-.745688.98494-.306783-.224-.172494-.61623.188587-1.43893.36108-.8227.877316-1.52785 1.1841-1.30385.306783.224-.265919.93514-.626999 1.75784z" fill="#ce64dc"/><path d="m59.693733 396.01452s-.05204-.45489.203498-1.47082c.255448-1.01596 1.491303-1.73401 1.214373-1.5768" fill="none" stroke="#b251ba" stroke-width=".232553"/><ellipse cx="-5.926558" cy="398.28894" fill="url(#h)" rx="3.487295" ry="5.470392" stroke="#000" stroke-linecap="round" stroke-linejoin="round" stroke-width=".29843" transform="matrix(-.99133027 .13139366 .11059198 .99386589 0 0)"/><ellipse cx="-6.749344" cy="397.94263" fill-opacity=".706" rx="1.764823" ry="3.725959" stroke-width="1.5" transform="matrix(-.99133028 .13139362 .11059196 .9938659 0 0)"/><ellipse cx="-6.422285" cy="397.81635" fill-opacity=".706" rx="2.64719" ry="4.796286" stroke-width="1.5" transform="matrix(-.99133027 .13139364 .11059195 .9938659 0 0)"/><ellipse cx="-252.07411" cy="315.79651" fill="#fff" fill-opacity=".834" rx=".911382" ry=".866972" transform="matrix(-.86935761 -.49418351 -.53421324 .84534976 0 0)"/><path d="m53.210775 393.16434s-.256462-1.60671-.941161-2.53237c-.684699-.92565-1.938412-1.86425-2.810906-1.78633-.718515.0642-1.450157.75449-2.169647.78578-.719486.0313-1.903333-.46736-1.903333-.46736.505811.64471 1.3375.81147 1.465089 1.77096l-.166358 1.23989s.880165-1.80966 1.643734-2.32141c.422887-.28342.97017-.37354 1.462383-.30454.699665.0981 1.383976.4805 1.911005.99223.706784.68627 1.509194 2.62315 1.509194 2.62315z"/><path d="m54.432754 401.55627s1.559816 2.07411 3.373522 2.03325c1.618867-.0365 2.920361-1.78596 2.920361-1.78596" fill="none" stroke="#b251ba" stroke-width=".210406"/><g fill="#ffc000"><path d="m56.085347 387.50805-.711541-6.23531-2.35927-1.2245.528686 3.18771-2.466074-4.1767-3.030731-1.56352 3.32176 5.79595-1.928828 1.51946 2.035532.84802 2.157342-1.66296.418135 2.6737z"/><path d="m60.757472 387.74223.711542-6.23531 2.359279-1.2245-.528706 3.18771 2.466074-4.1767 3.030752-1.56353-3.321781 5.79596 1.928849 1.51946-2.035533.84802-2.157341-1.66297-.418156 2.67371z"/><path d="m64.41796 469.31219-.74126-7.35596-2.45775-1.44457.55076 3.76062-2.56902-4.92736-3.15725-1.84454 3.46043 6.83766-2.00935 1.79254 2.1205 1.00043 2.24739-1.96185.43561 3.15425z"/></g><g fill="#999"><path d="m53.26912 481.75931.41782-3.16263 2.04027 1.50795z"/><path d="m55.04524 480.29259.41782-3.16263 2.04028 1.50795z"/><path d="m57.14533 478.27015.44206-2.07257 1.69203 1.33518z"/></g><path d="m61.50416 477.09245s-.62466.36958-1.27868.49346c-.65401.12388-1.29883-.002-2.14083.16374-.84199.16573-1.87145.47922-2.649 1.07373-.77754.59452-2.07291 1.87038-2.28654 2.29494-.21364.42455-.71205.52463-1.07554.95821-.18248.21767-.38239.71546-.39172.98602-.005.13392.26908.73027.51677.80732.78851.24532 2.34297-.25267 2.34297-.25267l7.63443-5.82303z" fill="#e3311c"/><path d="m57.98754 477.77949c-.36259.0555-.82551.15433-1.25473.32499-.65047.25863-1.23463.61718-1.36274.72553-.12811.10834-.76341.61053-1.23782 1.07078-.51199.49671-1.97499 2.07247-1.99594 2.16832-.44435 1.60305 3.75494-1.77331 5.12934-2.87442 1.12243-1.121 1.35691-1.45112.72189-1.4152z" fill="#ef5500"/><path d="m54.37488 483.25522.41782-3.16263 2.14428 1.7012z" fill="#d3d3d3"/><path d="m72.39072 478.04969c-1.37717 6.45715-15.00346 8.64224-18.99632 6.84641-1.59952-.71939.20324-1.7014 1.61992-2.43364 4.85737-2.51062 8.66865-4.09417 7.06349-5.2427-7.07644-5.06337-7.86985-5.50087-9.65087-6.68321.4594-2.05382-4.74943-2.56202-3.15399-4.07153.70877-.67059 1.35662-1.0087 2.15071-1.47527 3.27854-1.92633 7.09457-2.15649 10.17635-1.5442 6.69378 1.46754 11.45567 7.03158 11.04693 13.06023" fill="#ff776d"/><path d="m52.17689 484.65356c.0614-1.14143.12735-2.8962.48519-4.21535.87791.94199 1.12342 2.21483 1.77663 2.75869z" fill="#d3d3d3"/><path d="m58.69232 480.82701.55996-2.74578 1.70186 1.28912z" fill="#d3d3d3"/><path d="m59.97483 477.53711c-.15994-.16292-14.07368 3.02702-14.1116 3.76577l1.73218-2.41405-2.92404-1.0552 2.15201-.57367-2.0953-1.98935 2.10505-.11405-.73502-2.62299c3.88296 3.74031 9.00561 4.02096 13.87672 5.00354z" fill="url(#a)"/><path d="m59.7447 477.47006c-2.6164.39543-5.31455.82081-8.28117 1.34454-.25323-.34074 1.44386-.56258 2.1682-.84373l-2.93423.22353-.13349-.0953c.1968-.42535.75446-.18998 1.22577-.3582 0 0-.99464-.34221-.86756-.35906.12712-.0168 1.14058-.1099 1.14058-.1099s-1.70012-.63253-1.66528-.87163c.0349-.23908.27643-.1398.54712-.0931.2707.0467 8.78923 1.18556 8.80006 1.16283z" fill="url(#b)"/><g fill="#d3d3d3"><path d="m56.59112 473.24235s-.27864 1.50411-.27484 2.17508c.004.67096.32921 2.08108.32921 2.08108.80464-.5878 1.81726-1.53709 3.11894-2.19684z"/><path d="m59.35392 474.23083s-.043 1.12186-.25026 1.93941c-.20723.81755-.1319 2.0764-.1319 2.0764.80464-.58779 2.25378-1.29675 3.55546-1.95649z"/><path d="m53.33901 471.23935s-.35711 1.39048-.3533 2.06145c.004.67096.0152 2.47023.0152 2.47023 1.19041-.75838 2.62898-1.57621 3.63888-2.10695z"/><path d="m50.09631 469.29265s-.25406 1.26844-.25026 1.93941c.004.67096.30462 2.31674.30462 2.31674.80465-.58779 1.81726-1.53708 3.11894-2.19683z"/><path d="m56.78226 481.85715s-.0441-1.08183-.016-1.79562c.028-.71378.25392-1.32466.25392-1.32466.9134.45849 1.61504.92054 1.93728 1.38895z"/></g><g fill="#ff4739"><path d="m72.39071 478.04969c-.91141 4.11494-11.75875 7.94814-19.18364 6.87353-1.06551-.0183-3.91462-1.28089-1.08891-2.72685 4.74626-1.17584 6.41245-1.58634 8.72847-3.54027.13521-.11408.76256-.59343.5796-.77734-4.3168-4.33912-9.81274-7.29401-11.9605-9.04443-.73526-.59924-.58835-.51428-.60528-1.3135-.0191-.90051.53655-1.28418 1.06124-1.68854.977-.75297 2.19044-1.27622 3.387-1.73195.31163-.1187-.19368 1.15853-.25362 1.53211-.52948 3.29997 8.87786 7.61125 11.40815 8.52791 3.298 1.19477 6.00691-.28825 5.86241-3.0864-.016-.30909.006-2.06846.28944-1.64439 1.41597 2.11763 2.15577 4.58943 1.98327 7.13374"/><path d="m56.09145 464.50487c.21397.14523.96819.14637 1.39093.0322.42275-.11414 1.44309-.46769 1.23505-.76898-.20805-.30129-1.27215-.27928-1.75859-.0958-.48645.18349-1.08138.68731-.86739.83254z"/><path d="m59.27746 466.11912c.10987.29286 1.23868.49544 1.89031.58488.65161.0894 1.93201.0486 1.77603-.32652-.15599-.3751-1.11253-.517-1.91455-.64133-.802-.12432-1.86164.0901-1.75179.38297z"/></g><path d="m63.03146 473.02361s2.21893 1.35816 3.16979 1.50104c.95087.14287 1.65507.26182 2.23485-.006.5798-.26762 1.24445-.82807 1.54972-1.40792s.17477-1.14452.1705-1.55117c-.004-.40664-.11438-.87347-.11438-.87347l-1.19224.94352-2.39843 1.01543-1.68771.41626z" fill="url(#c)" stroke="#000" stroke-width=".179321"/><path d="m70.45207 469.46375s-.88729 1.3939-1.53824 1.81956c-.65567.42873-1.88687 1.00996-2.7053 1.29049-.80935.27741-1.37994.37835-2.00133.3755-.59097-.003-1.62622-.19077-1.62622-.19077l.10606.17362s.79831.43353 1.49494.43672c.66621.003 1.62531.0129 2.46048-.27338.82609-.28315 1.9301-.81369 2.51729-1.41155.61597-.62716.92623-1.13997.92623-1.13997.46941-.98041.39046-.98158.36609-1.08022z"/><path d="m69.40969 471.35442-3.24723 1.48903-2.41839.49118c1.67473.97601 2.40731 1.38823 4.05545.75158.65184-.37569 1.31773-.98607 1.61017-2.73179z" fill-opacity=".706"/><path d="m64.43589 473.36127c.66869.90688 2.11264.50549 2.85745.15404.43759-.21336.58881-.54168.77603-1.0131.0924-.23276-.0786-.13722-.0786-.13722-1.35589.54555-2.47078.92799-3.55486.99628z" fill-opacity=".706"/><ellipse cx="423.27429" cy="183.10399" fill="#fff" fill-opacity=".834" rx=".32092" ry=".511049" transform="matrix(.51127118 .85941944 -.80418985 .59437252 0 0)"/><path d="m64.29686 469.31219.74126-7.35596 2.45775-1.44457-.55076 3.76062 2.56902-4.92736 3.15725-1.84454-3.46043 6.83766 2.00935 1.79254-2.1205 1.00043-2.24739-1.96185-.43561 3.15425z" fill="#ffc000"/><ellipse cx="478.48703" cy="553.05151" fill="#fff" fill-opacity=".508" rx=".866247" ry=".809686" transform="matrix(.97733144 .21171504 -.75271834 .6583427 0 0)"/></g></svg>