<svg height="32" width="32" xmlns="http://www.w3.org/2000/svg"><g transform="translate(-43.573745 -5.746952)"><path d="m64.760727 7.7469518h-13.65097c-3.066406 0-5.536011 2.4676672-5.536011 5.5340722v16.929917c0 3.066406 2.469605 5.536011 5.536011 5.536011h16.929917c3.066406 0 5.534071-2.469605 5.534071-5.536011v-13.65097z" fill="#9264c3" fill-rule="evenodd"/><path d="m73.573745 16.559971-8.813018-8.8130192v3.2789482c0 3.066405 2.467666 5.534071 5.534072 5.534071z" fill="#7852a1" fill-rule="evenodd"/><g stroke-width="1.213075"><path d="m60.670101 15.618672c-4.68974 0-8.491526 3.801786-8.491526 8.491526s3.801786 8.491525 8.491526 8.491525h12.36715c.25423-.313968.395488-.718315.42373-1.213075h-12.79088c-4.019777 0-7.278451-3.258674-7.278451-7.27845 0-4.019777 3.258674-7.278451 7.278451-7.278451z" fill="#ebd7fb"/><path d="m60.670101 18.044822c-3.349815 0-6.065376 2.715561-6.065376 6.065376 0 3.349814 2.715561 6.065375 6.065376 6.065375h12.898204v-1.213075h-12.898204c-2.679852 0-4.852301-2.172449-4.852301-4.8523 0-2.679852 2.172449-4.852301 4.852301-4.852301.409536.0023.817136.05643 1.213075.161111v-1.246244c-.399031-.0833-.805444-.126166-1.213075-.127942z" fill="#d7bdfb"/><path d="m60.670101 20.470972c-2.009889 0-3.639226 1.629337-3.639226 3.639226 0 2.009888 1.629337 3.639225 3.639226 3.639225h12.892574v-1.213075h-12.892574c-1.339925 0-2.42615-1.086225-2.42615-2.42615s1.086225-2.42615 2.42615-2.42615h2.708095c-.689362-.770734-1.674051-1.211818-2.708095-1.213076z" fill="#c090f9"/></g></g></svg>