<svg height="32" width="32" xmlns="http://www.w3.org/2000/svg"><path d="m21.186982 2.0000004h-13.65097c-3.066406 0-5.536011 2.4676663-5.536011 5.5340721v16.9299165c0 3.066406 2.469605 5.536011 5.536011 5.536011h16.929917c3.066406 0 5.534071-2.469605 5.534071-5.536011v-13.65097z" fill="#ff5722" fill-rule="evenodd"/><path d="m30 10.813019-8.813018-8.8130185v3.2789473c0 3.0664056 2.467666 5.5340712 5.534072 5.5340712z" fill="#d2481c" fill-rule="evenodd"/><path d="m10.824859 14.183615c-1.429115 0-2.587571 1.158495-2.587571 2.587571s1.158494 2.587571 2.587571 2.587571c1.429076 0 2.58757-1.158495 2.58757-2.587571h-2.58757zm5.175141 0v1.293786h7.762712v-1.293786zm0 3.881356v1.293786h7.762712v-1.293786zm-7.762712 3.881356v1.293786h11.644068v-1.293786z" fill="#ffb87c" stroke-width="1.293785"/></svg>