<svg height="22" width="22" xmlns="http://www.w3.org/2000/svg"><path d="m5.2246 2c-.122-.003-.2226.0625-.2226.1445v2.9043c0 .046.0309.0892.0859.1172l5.5531 2.7852-5.5531 2.7848c-.199.1-.0318.312.2012.254l11.57-2.9021c.16-.04.19-.1849.053-.2539l-11.568-5.8067c-.0352-.017-.0764-.0263-.1194-.0273zm11.486 8.01-11.57 2.902c-.1604.04-.1901.185-.0531.254l11.568 5.807c.035.017.076.026.119.027.122.003.223-.063.223-.145v-2.904c0-.046-.031-.089-.086-.117l-5.553-2.785 5.553-2.785c.199-.1.032-.3122-.201-.254z" fill="#d3dae3" fill-rule="evenodd"/></svg>