<svg height="22" width="22" xmlns="http://www.w3.org/2000/svg"><g transform="translate(2 -1.416667)"><rect fill="#5c616c" height="8.166667" rx="1.166667" stroke-width="1.166667" width="2.333333" x="7.833334" y="4.833334"/><path d="m12.5 7.1666667c-.644 0-1.166667.5223166-1.166667 1.1666666 0 .3312167.119.6728167.383834.8726667 1.2005.9065 1.947166 2.289933 1.9495 3.794 0 2.577167-2.0895 4.666667-4.666667 4.666667-2.5772833 0-4.6666667-2.0895-4.6666667-4.666667.0028-1.504417.7513334-2.88715 1.95055-3.79505.2639-.1997333.3820834-.5411.3827834-.8716167 0-.64435-.5223167-1.1666666-1.1666667-1.1666666-.3323833 0-.6155333.1762833-.87045.3896666-1.6249333 1.3601-2.6222 3.3246497-2.62955 5.4436667 0 3.866333 3.1340167 7 7 7 3.866333 0 7-3.133667 7-7-.0047-2.137567-1.006833-4.1297667-2.667-5.4835667-.245-.2002-.5215-.3497666-.833-.3497666z" fill="#5c616c" stroke-width="1.166667"/></g></svg>