<svg height="16" width="16" xmlns="http://www.w3.org/2000/svg"><g fill="#5c616c"><path d="m7.83 4.25c1.11-1.18 1.15-1.25 3.8-3.25-1.04-.62-2.26-.96-3.3-1h-.44c-2.11.03-4.94.8-4.9 3.28.05 2.59 2.92 1.66 3.16 2.72m-.16-4.47c.83 0 1.5.68 1.5 1.5 0 .83-.67 1.5-1.5 1.5s-1.5-.67-1.5-1.5c0-.82.67-1.5 1.5-1.5zm7.27.67c-1.42 2.23-2.37 3.55-3.37 4.58-.64.66-1.16 1.31-1.62 1.78-.84.89-1.94 1.94-3.15 3.1.06 1.47.81 2.74 3.24 3.22 3.9.75 8.03-1.83 7.61-7.07-.18-2.24-1.4-4.28-2.71-5.61zm.34 3.8c.55 0 1 .45 1 1s-.45 1-1 1-1-.45-1-1 .45-1 1-1zm-.62 3c .55 0 .99.45.99 1s-.44 1-.99 1-1-.45-1-1 .45-1 1-1zm-4.99 2c .54 0 .99.45.99 1s-.45 1-.99 1c-.55 0-1-.45-1-1s .45-1 1-1zm2.99 0c .55 0 1 .45 1 1s-.45 1-1 1-1-.45-1-1 .45-1 1-1z"/><path d="m0 13.5c1.55 0 1.39-1.79 2.15-2.29.87-.57 1.64.14 1.79.73.19.74-.12 1.63-1.13 1.88-1.07.27-2.66.28-2.81-.32z"/><path d="m6.91 6.43c-1.87 2.07-3.72 4.68-4.91 6.63 2.97-2.29 4.91-4.16 6.14-5.47.24-.24.53-.56.85-.92 1.21-1.33 2.93-3.44 5.05-6.67-1.8 1.3-4.21 3.3-6.12 5.34"/></g></svg>