<svg height="17pt" viewBox="0 0 17 17" width="17pt" xmlns="http://www.w3.org/2000/svg"><path d="m3.96875 1.007812h9.0625c1.632812 0 2.960938 1.328126 2.960938 2.960938v9.0625c0 1.632812-1.328126 2.960938-2.960938 2.960938h-9.0625c-1.632812 0-2.960938-1.328126-2.960938-2.960938v-9.0625c0-1.632812 1.328126-2.960938 2.960938-2.960938zm0 0" fill="#4bae4f" fill-rule="evenodd"/><path d="m6.515625 13.5c-.042969-.023438-.304687-.269531-.585937-.550781l-.507813-.511719-.171875.167969c-.09375.089843-.226562.195312-.292969.230469-.113281.058593-.144531.066406-.351562.066406-.210938 0-.238281-.007813-.378907-.074219-.179687-.089844-.335937-.253906-.40625-.4375-.066406-.171875-.066406-.4375.003907-.621094.050781-.128906.140625-.222656 2.144531-2.230469l2.09375-2.097656-.082031-.1875c-.359375-.847656-.265625-1.820312.25-2.597656.160156-.238281.476562-.5625.714843-.722656 1.238282-.84375 2.945313-.539063 3.789063.683594 1.003906 1.453124.417969 3.429687-1.21875 4.101562-.640625.265625-1.453125.257812-2.097656-.019531l-.179688-.078125-.875.871094-.875.875.511719.507812c.324219.320312.527344.542969.554688.601562.050781.109376.054687.234376.007812.34375-.042969.105469-1.539062 1.617188-1.664062 1.683594-.109376.054688-.277344.054688-.382813-.003906zm4.242187-6.296875c.355469-.09375.621094-.34375.738282-.695313.039062-.121093.046875-.183593.039062-.375-.007812-.207031-.015625-.242187-.089844-.398437-.296874-.597656-1.027343-.785156-1.566406-.398437-.414062.296874-.554687.890624-.3125 1.339843.125.238281.398438.457031.660156.527344.136719.035156.394532.035156.53125 0zm0 0" fill="#fff"/></svg>