<svg height="17pt" viewBox="0 0 17 17" width="17pt" xmlns="http://www.w3.org/2000/svg" xmlns:xlink="http://www.w3.org/1999/xlink"><clipPath id="a"><path d="m0 0h17v17h-17z"/></clipPath><path d="m3.96875 1.007812h9.0625c1.632812 0 2.960938 1.328126 2.960938 2.960938v9.0625c0 1.632812-1.328126 2.960938-2.960938 2.960938h-9.0625c-1.632812 0-2.960938-1.328126-2.960938-2.960938v-9.0625c0-1.632812 1.328126-2.960938 2.960938-2.960938zm0 0" fill="#c2352a" fill-rule="evenodd"/><g clip-path="url(#a)"><path d="m12.75 3.191406v2.136719c-2.132812.039063-2.660156 2.117187-2.660156 2.117187h1.613281v2.140626h-2.496094c-1.503906 4.628906-4.957031 4.21875-4.957031 4.21875v-2.140626s2.191406.410157 3.308594-3.671874c1.398437-5.105469 5.191406-4.800782 5.191406-4.800782zm0 0" fill="#fff"/></g></svg>