<svg height="17pt" viewBox="0 0 17 17" width="17pt" xmlns="http://www.w3.org/2000/svg"><path d="m4.015625 1.019531h9.171875c1.652344 0 2.996094 1.34375 2.996094 2.996094v9.171875c0 1.652344-1.34375 2.996094-2.996094 2.996094h-9.171875c-1.652344 0-2.996094-1.34375-2.996094-2.996094v-9.171875c0-1.652344 1.34375-2.996094 2.996094-2.996094zm0 0" fill="#fecd38" fill-rule="evenodd"/><path d="m7.992242 25.992178h11.973104s6.037631.357559 6.037631-4.985388c0-5.342946-6.037631-4.995604-6.037631-4.995604h-8.550758s-6.415622.357559-6.415622-4.985388c0-5.353162 6.415622-4.995603 6.415622-4.995603h11.595113" fill="none" stroke="#fff" stroke-linecap="round" stroke-linejoin="round" stroke-width="4" transform="matrix(.382367 0 0 .382367 2.674496 2.483312)"/><path d="m15.991338 2.996055v26.009831" fill="none" stroke="#fff" stroke-linecap="round" stroke-linejoin="round" stroke-width="4" transform="matrix(.382367 0 0 .382367 2.674496 2.483312)"/></svg>