<svg height="17pt" viewBox="0 0 17 17" width="17pt" xmlns="http://www.w3.org/2000/svg"><path d="m4.015625 1.019531h9.171875c1.652344 0 2.996094 1.34375 2.996094 2.996094v9.171875c0 1.652344-1.34375 2.996094-2.996094 2.996094h-9.171875c-1.652344 0-2.996094-1.34375-2.996094-2.996094v-9.171875c0-1.652344 1.34375-2.996094 2.996094-2.996094zm0 0" fill="#608ab5" fill-rule="evenodd"/><path d="m14.230469 9.378906c0 3.027344-2.457031 5.484375-5.484375 5.484375s-5.480469-2.457031-5.480469-5.484375 2.453125-5.480468 5.480469-5.480468 5.484375 2.453124 5.484375 5.480468zm0 0" fill="#cddff0"/><path d="m12.136719 14.359375c-2.933594 1.691406-6.683594.6875-8.375-2.242187-1.691407-2.925782-.6875-6.675782 2.246093-8.367188 3.449219-.015625 5.644532 7.445312 6.128907 10.609375zm0 0" fill="#85b4df"/><path d="m14.875 9.273438c0 3.382812-2.742188 6.125-6.128906 6.125-3.382813 0-6.125-2.742188-6.125-6.125 1.710937-3 9.269531-1.171876 12.253906 0zm0 0" fill="#608ab5"/></svg>