<svg height="17pt" viewBox="0 0 17 17" width="17pt" xmlns="http://www.w3.org/2000/svg"><path d="m3.96875 1.007812h9.0625c1.632812 0 2.960938 1.328126 2.960938 2.960938v9.0625c0 1.632812-1.328126 2.960938-2.960938 2.960938h-9.0625c-1.632812 0-2.960938-1.328126-2.960938-2.960938v-9.0625c0-1.632812 1.328126-2.960938 2.960938-2.960938zm0 0" fill="#6993c4" fill-rule="evenodd"/><g fill="#ffdd73"><path d="m5.808594 3.410156c-.101563-.007812-.199219.039063-.261719.121094-.359375.460938-.730469 1.078125-1.085937 1.632812l-.421876-.726562c-.089843-.152344-.28125-.203125-.429687-.113281-.148437.085937-.199219.277343-.113281.425781l.675781 1.160156c.054687.09375.152344.152344.261719.152344.105468.003906.207031-.046875.269531-.136719.4375-.652343.9375-1.496093 1.335937-2.007812.074219-.09375.089844-.21875.042969-.324219-.050781-.109375-.152343-.179688-.273437-.183594zm0 0" fill-rule="evenodd"/><path d="m7.171875 4.472656h5.84375c.292969 0 .53125.234375.53125.53125 0 .292969-.238281.53125-.53125.53125h-5.84375c-.292969 0-.53125-.238281-.53125-.53125 0-.296875.238281-.53125.53125-.53125zm0 0"/><path d="m7.171875 8.1875h5.84375c.292969 0 .53125.238281.53125.53125 0 .296875-.238281.53125-.53125.53125h-5.84375c-.292969 0-.53125-.234375-.53125-.53125 0-.292969.238281-.53125.53125-.53125zm0 0"/><path d="m5.046875 8.71875c0 .296875-.238281.53125-.53125.53125s-.53125-.234375-.53125-.53125c0-.292969.238281-.53125.53125-.53125s.53125.238281.53125.53125zm0 0"/><path d="m7.171875 11.375h5.84375c.292969 0 .53125.238281.53125.53125 0 .296875-.238281.53125-.53125.53125h-5.84375c-.292969 0-.53125-.234375-.53125-.53125 0-.292969.238281-.53125.53125-.53125zm0 0"/><path d="m5.046875 11.90625c0 .296875-.238281.53125-.53125.53125s-.53125-.234375-.53125-.53125c0-.292969.238281-.53125.53125-.53125s.53125.238281.53125.53125zm0 0"/></g></svg>