<svg height="17pt" viewBox="0 0 17 17" width="17pt" xmlns="http://www.w3.org/2000/svg"><g fill-rule="evenodd"><path d="m4.015625 1.019531h9.171875c1.652344 0 2.996094 1.34375 2.996094 2.996094v9.171875c0 1.652344-1.34375 2.996094-2.996094 2.996094h-9.171875c-1.652344 0-2.996094-1.34375-2.996094-2.996094v-9.171875c0-1.652344 1.34375-2.996094 2.996094-2.996094zm0 0" fill="#3f5979"/><path d="m9.21875 7.996094c0 .449218.011719.828125-.210938 1.230468-.171874.324219-.453124.523438-.761718.523438-.425782 0-.671875-.339844-.671875-.835938 0-.988281.839843-1.171874 1.644531-1.171874zm1.113281 2.824218c-.070312.066407-.175781.074219-.261719.027344-.367187-.320312-.429687-.46875-.636718-.773437-.601563.648437-1.035156.84375-1.820313.84375-.933593 0-1.660156-.601563-1.660156-1.808594 0-.933594.488281-1.574219 1.179687-1.890625.601563-.277344 1.441407-.324219 2.082032-.398438v-.152343c0-.277344.023437-.601563-.132813-.835938-.136719-.214843-.394531-.304687-.621093-.304687-.421876 0-.796876.226562-.890626.695312-.019531.105469-.089843.207032-.191406.210938l-1.074218-.117188c-.089844-.023437-.191407-.097656-.167969-.246094.25-1.359374 1.425781-1.769531 2.476562-1.769531.542969 0 1.246094.148438 1.667969.578125.542969.523438.488281 1.226563.488281 1.992188v1.800781c0 .546875.214844.78125.417969 1.074219.070312.105468.085938.230468 0 .308594-.230469.199218-.628906.5625-.851562.769531z" fill="#fff"/><path d="m12.269531 10.914062c-.300781.003907-.65625.074219-.925781.269532-.082031.058594-.066406.140625.023438.128906.304687-.039062.980468-.117188 1.101562.035156.121094.160156-.136719.8125-.25 1.105469-.03125.085937.039062.121094.117188.054687.507812-.433593.636718-1.339843.535156-1.472656-.050782-.0625-.300782-.125-.601563-.121094zm-7.90625.171876c-.0625.011718-.089843.089843-.023437.152343 1.121094 1.039063 2.605468 1.664063 4.253906 1.664063 1.171875 0 2.539062-.378906 3.480469-1.089844v-.003906c.15625-.121094.023437-.292969-.136719-.226563-1.054688.460938-2.203125.683594-3.246094.683594-1.542968 0-3.046875-.433594-4.257812-1.160156-.027344-.015625-.050782-.019531-.070313-.019531zm0 0" fill="#f90"/></g></svg>