<svg height="17pt" viewBox="0 0 17 17" width="17pt" xmlns="http://www.w3.org/2000/svg"><path d="m1.050781 3.863281c-.003906.054688-.03125.101563-.03125.15625v9.167969c0 1.660156 1.335938 2.996094 3 2.996094h9.167969c1.660156 0 2.996094-1.335938 2.996094-2.996094v-9.167969c0-.054687-.027344-.101562-.03125-.15625zm0 0" fill="#c7c7c7" fill-rule="evenodd"/><path d="m1.050781 3.863281h15.101563c-.085938-1.582031-1.359375-2.84375-2.964844-2.84375h-9.167969c-1.609375 0-2.886719 1.261719-2.96875 2.84375zm0 0" fill="#5294e2" fill-rule="evenodd"/><path d="m3.25 11.554688h10.703125c.308594 0 .5625.300781.5625.667968v.277344c0 .367188-.253906.667969-.5625.667969h-10.703125c-.308594 0-.5625-.300781-.5625-.667969v-.277344c0-.367187.253906-.667968.5625-.667968zm0 0" fill="#fff"/><path d="m12.902344 12.359375c0 1.039063-.84375 1.882813-1.882813 1.882813-1.039062 0-1.878906-.84375-1.878906-1.882813s.839844-1.878906 1.878906-1.878906c1.039063 0 1.882813.839843 1.882813 1.878906zm0 0" fill="#5294e2" fill-rule="evenodd"/><path d="m4.300781 6.445312c0 .449219-.359375.808594-.804687.808594-.449219 0-.808594-.359375-.808594-.808594 0-.445312.359375-.804687.808594-.804687.445312 0 .804687.359375.804687.804687zm0 0" fill="#fffff7"/><path d="m6.167969 8.328125h1.105469c.136718 0 .253906.121094.253906.277344v1.058593c0 .15625-.117188.277344-.253906.277344h-1.105469c-.140625 0-.253907-.121094-.253907-.277344v-1.058593c0-.15625.113282-.277344.253907-.277344zm0 0" fill="#5294e2"/><path d="m4.300781 9.136719c0 .445312-.359375.804687-.804687.804687-.449219 0-.808594-.359375-.808594-.804687 0-.449219.359375-.808594.808594-.808594.445312 0 .804687.359375.804687.808594zm0 0" fill="#5294e2"/><path d="m6.167969 5.640625h1.105469c.136718 0 .253906.121094.253906.277344v1.058593c0 .152344-.117188.277344-.253906.277344h-1.105469c-.140625 0-.253907-.125-.253907-.277344v-1.058593c0-.15625.113282-.277344.253907-.277344zm0 0" fill="#fff"/></svg>