<svg height="17pt" viewBox="0 0 17 17" width="17pt" xmlns="http://www.w3.org/2000/svg"><path d="m3.96875 1.007812h9.0625c1.632812 0 2.960938 1.328126 2.960938 2.960938v9.0625c0 1.632812-1.328126 2.960938-2.960938 2.960938h-9.0625c-1.632812 0-2.960938-1.328126-2.960938-2.960938v-9.0625c0-1.632812 1.328126-2.960938 2.960938-2.960938zm0 0" fill="#858585" fill-rule="evenodd"/><path d="m7.433594 4.527344c1.394531.804687 1.871094 2.582031 1.066406 3.972656s-2.582031 1.867188-3.972656 1.0625c-1.390625-.800781-1.867188-2.578125-1.0625-3.96875.800781-1.394531 2.578125-1.871094 3.96875-1.066406zm0 0" fill="#4f4f4f"/><path d="m12.472656 7.4375c-.804687 1.390625-2.582031 1.867188-3.972656 1.0625s-1.867188-2.582031-1.066406-3.972656c.804687-1.390625 2.582031-1.867188 3.972656-1.0625 1.394531.800781 1.871094 2.578125 1.066406 3.972656zm0 0" fill="#ccc"/><path d="m12.472656 7.433594c1.390625.804687 1.867188 2.582031 1.0625 3.972656-.800781 1.390625-2.578125 1.867188-3.96875 1.066406-1.394531-.804687-1.871094-2.582031-1.066406-3.972656s2.582031-1.867188 3.972656-1.066406zm0 0" fill="#4f4f4f"/><path d="m9.5625 12.472656c-.800781 1.390625-2.578125 1.867188-3.96875 1.0625-1.394531-.800781-1.871094-2.578125-1.066406-3.972656.804687-1.390625 2.582031-1.867188 3.972656-1.0625s1.867188 2.582031 1.0625 3.972656zm0 0" fill="#ccc"/></svg>