<svg height="17pt" viewBox="0 0 17 17" width="17pt" xmlns="http://www.w3.org/2000/svg"><path d="m4.015625 1.019531h9.171875c1.652344 0 2.996094 1.34375 2.996094 2.996094v9.171875c0 1.652344-1.34375 2.996094-2.996094 2.996094h-9.171875c-1.652344 0-2.996094-1.34375-2.996094-2.996094v-9.171875c0-1.652344 1.34375-2.996094 2.996094-2.996094zm0 0" fill="#75676a" fill-rule="evenodd"/><path d="m9.421875 8.742188c0 .339843-.269531.613281-.609375.613281-.335938 0-.613281-.273438-.613281-.613281 0-.335938.277343-.613282.613281-.613282.339844 0 .609375.277344.609375.613282" fill="#fff"/><path d="m10.410156 13.417969c-.804687-.128907-1.851562-1.054688-2.804687-2.46875-.398438-.597657-.8125-1.332031-1.078125-1.933594-.050782-.121094-.078125-.148437-.09375-.132813-.03125.035157-.261719.539063-.386719.84375-.203125.511719-.351563.996094-.433594 1.464844-.054687.292969-.058593.855469-.007812 1.035156.113281.40625.363281.582032.753906.511719.28125-.046875.621094-.199219.984375-.445312.160156-.105469.203125-.125.265625-.125.09375 0 .164063.050781.199219.140625.023437.0625.023437.082031 0 .144531-.023438.058594-.0625.089844-.226563.203125-.238281.160156-.636719.363281-.84375.425781-.535156.175781-.953125.113281-1.246093-.183593-.273438-.273438-.386719-.714844-.351563-1.328126.046875-.800781.402344-1.894531.953125-2.964843l.140625-.265625-.109375-.289063c-.097656-.273437-.292969-.898437-.292969-.949219 0-.035156-.066406-.027343-.328125.039063-.613281.148437-1.070312.34375-1.398437.585937-.640625.484376-.46875 1.023438.492187 1.5625.152344.089844.183594.132813.183594.25 0 .058594-.007812.082032-.058594.132813-.101562.101563-.199218.082031-.523437-.117187-.472657-.292969-.769531-.621094-.875-.972657-.035157-.128906-.035157-.382812 0-.515625.054687-.183594.148437-.335937.320312-.5.375-.378906 1-.671875 1.859375-.871094.175782-.039062.214844-.054687.207032-.074218-.003907-.015625-.023438-.113282-.042969-.226563-.117188-.625-.121094-1.339843-.007813-1.738281.125-.457031.359375-.730469.730469-.863281.152344-.046875.457031-.039063.664063.019531.210937.066406.46875.191406.699218.347656.273438.183594.351563.257813.363282.351563.03125.199219-.179688.3125-.355469.179687-.535157-.398437-.917969-.554687-1.230469-.484375-.222656.046875-.398438.277344-.480469.644531-.035156.148438-.039062.214844-.039062.582032 0 .417968.003906.484375.078125.917968l.039062.21875.089844-.011718c.414062-.046875.769531-.082032.988281-.101563l.257813-.011719.046875-.050781c.4375-.5625 1.074219-1.222656 1.558593-1.613281.925782-.742188 1.71875-1 2.265626-.738281.3125.152343.507812.457031.582031.910156.050781.296875.011719.996094-.066407 1.195313-.023437.066406-.113281.113281-.203124.113281-.058594 0-.085938-.011719-.132813-.050781-.050781-.046876-.054687-.0625-.054687-.15625 0-.054688.011718-.21875.03125-.359376.050781-.40625.015624-.789062-.097657-1.007812-.054687-.109375-.164062-.222656-.261719-.269531-.074218-.035157-.113281-.039063-.277343-.039063-.179688 0-.214844.003906-.382813.066406-.542968.183594-1.164062.628907-1.828125 1.304688-.128906.132812-.316406.335938-.421875.460938l-.199218.214843.171874.007813c2.34375.058594 4.316407.59375 5.246094 1.429687.210938.1875.394532.46875.445313.6875.023437.109375.027343.328125 0 .441407-.09375.421874-.5625.84375-1.246094 1.113281-.109375.042969-.128906.046875-.1875.03125-.097656-.03125-.160156-.113281-.160156-.207031 0-.109376.054687-.167969.25-.25.421875-.175782.75-.425782.875-.664063.046875-.082031.050781-.113281.050781-.25 0-.132813-.003906-.160156-.0625-.257813-.074219-.152343-.324219-.402343-.53125-.539062-1.015625-.667969-2.933594-1.105469-4.871094-1.105469h-.320312l-.117188.160157c-.183594.246093-.574218.839843-.726562 1.101562l-.140625.238281.09375.214844c.945312 2.167969 2.414062 4.003906 3.496093 4.367187.238282.078126.414063.078126.558594.011719.265625-.132812.410156-.476562.433594-1.046875.035156-.960937-.308594-2.285156-.953125-3.652344-.066406-.144531-.105469-.25-.105469-.292968 0-.113282.09375-.207032.210938-.203125.109375 0 .152344.042969.234375.214843.523437 1.085938.871093 2.183594 1 3.136719.042969.320313.042969.976563 0 1.210938-.070313.375-.195313.644531-.382813.839843-.234375.226563-.53125.316407-.886718.257813m-3.738282-5.828125c.066406-.109375.199219-.304688.289063-.433594.089843-.136718.160156-.25.160156-.257812 0-.023438-.832031.0625-.855469.085937-.015625.015625.03125.203125.144532.546875.078124.242188.105468.296875.121093.28125.015625-.019531.078125-.117187.140625-.222656" fill="#fff"/></svg>