<svg height="17pt" viewBox="0 0 17 17" width="17pt" xmlns="http://www.w3.org/2000/svg"><path d="m4.015625 1.019531h9.171875c1.652344 0 2.996094 1.34375 2.996094 2.996094v9.171875c0 1.652344-1.34375 2.996094-2.996094 2.996094h-9.171875c-1.652344 0-2.996094-1.34375-2.996094-2.996094v-9.171875c0-1.652344 1.34375-2.996094 2.996094-2.996094zm0 0" fill="#4f4f4f" fill-rule="evenodd"/><path d="m3.925781 3.597656c-.40625.414063-.40625 2.398438-.40625 3.65625 0 4.566406 2.644531 6.429688 5.082031 6.429688s5.082032-1.863282 5.082032-6.429688c0-1.242187 0-3.242187-.40625-3.65625-.40625-.414062-3.097656.871094-3.914063 1.703125h-1.523437c-.816406-.832031-3.507813-2.117187-3.914063-1.703125zm0 0" fill="#fff" fill-rule="evenodd"/><g fill="#4f4f4f"><path d="m9.691406 11.207031c0 .5625-.488281 1.027344-1.089844 1.027344-.601562 0-1.089843-.464844-1.089843-1.027344 0-.570312 2.179687-.570312 2.179687 0zm0 0"/><path d="m6.421875 6.058594c-1.003906 0-1.816406.976562-1.816406 2.179687s.8125 2.175781 1.816406 2.175781c1 0 1.816406-.972656 1.816406-2.175781s-.816406-2.179687-1.816406-2.179687zm0 .726562c.601563 0 1.089844.648438 1.089844 1.453125 0 .800781-.488281 1.453125-1.089844 1.453125-.597656 0-1.089844-.652344-1.089844-1.453125 0-.804687.492188-1.453125 1.089844-1.453125zm0 0" fill-rule="evenodd"/><path d="m10.777344 6.058594c-1 0-1.8125.976562-1.8125 2.179687s.8125 2.175781 1.8125 2.175781c1.003906 0 1.820312-.972656 1.820312-2.175781s-.816406-2.179687-1.820312-2.179687zm0 .726562c.601562 0 1.09375.648438 1.09375 1.453125 0 .800781-.492188 1.453125-1.09375 1.453125-.597656 0-1.085938-.652344-1.085938-1.453125 0-.804687.488282-1.453125 1.085938-1.453125zm0 0" fill-rule="evenodd"/></g></svg>