<svg height="17pt" viewBox="0 0 17 17" width="17pt" xmlns="http://www.w3.org/2000/svg"><path d="m4.015625 1.019531h9.171875c1.652344 0 2.996094 1.34375 2.996094 2.996094v9.171875c0 1.652344-1.34375 2.996094-2.996094 2.996094h-9.171875c-1.652344 0-2.996094-1.34375-2.996094-2.996094v-9.171875c0-1.652344 1.34375-2.996094 2.996094-2.996094zm0 0" fill="#4f4f4f" fill-rule="evenodd"/><path d="m8.546875 3.226562c-.382813 0-.773437.042969-1.148437.125-1.359376.300782-2.535157 1.136719-3.378907 2.390626-.355469.535156-.679687 1.273437-.679687 1.558593 0 .246094.28125.367188.46875.210938.046875-.035157.089844-.105469.097656-.152344.09375-.4375.433594-1.097656.824219-1.613281.324219-.429688.925781-.96875 1.386719-1.25 1.445312-.886719 3.414062-.90625 4.863281-.046875.910156.539062 1.65625 1.433593 2.089843 2.511719.097657.234374.25.746093.25.824218 0 .023438-.136718-.097656-.308593-.261718-.371094-.367188-.40625-.394532-.550781-.394532-.160157 0-.273438.105469-.289063.265625-.007813.066407-.003906.144531.007813.167969.027343.046875 1.203124 1.234375 1.296874 1.308594.09375.074218.265626.066406.367188-.015625.128906-.109375.144531-.1875.128906-.574219-.066406-1.445312-.976562-3.089844-2.226562-4.027344-.890625-.671875-2.042969-1.03125-3.199219-1.027344zm-5.320313 5.304688.015626.371094c.027343.640625.203124 1.296875.539062 1.984375.679688 1.382812 1.792969 2.386719 3.140625 2.824219.390625.132812.679687.191406 1.195313.25.226562.027343.941406.015624 1.21875-.019532 1.582031-.207031 2.976562-1.117187 3.902343-2.550781.300781-.464844.59375-1.136719.628907-1.441406.015624-.121094.007812-.132813-.078126-.222657-.082031-.078124-.113281-.09375-.207031-.09375-.183593 0-.226562.054688-.34375.40625-.402343 1.214844-1.382812 2.328126-2.542969 2.890626-.9375.449218-2.003906.582031-3.078124.363281-1.214844-.246094-2.269532-.984375-2.996094-2.105469-.273438-.421875-.558594-1.054688-.664063-1.476562-.023437-.09375-.046875-.191407-.054687-.222657-.007813-.03125.144531.105469.339844.296875l.359374.355469.132813-.015625c.1875-.015625.265625-.097656.285156-.28125l.011719-.136719-.683594-.683593-.679687-.683594s-.128907-.085938-.292969-.015625c-.15625.070312-.148438.207031-.148438.207031zm0 0" fill="#5cd1ff"/></svg>