<svg height="17pt" viewBox="0 0 17 17" width="17pt" xmlns="http://www.w3.org/2000/svg"><path d="m4.015625 1.019531h9.171875c1.652344 0 2.996094 1.34375 2.996094 2.996094v9.171875c0 1.652344-1.34375 2.996094-2.996094 2.996094h-9.171875c-1.652344 0-2.996094-1.34375-2.996094-2.996094v-9.171875c0-1.652344 1.34375-2.996094 2.996094-2.996094zm0 0" fill="#ffcca3" fill-rule="evenodd"/><path d="m4.535156 3.585938v.535156h-.269531c-.445313 0-.808594.363281-.808594.808594 0 .445312.363281.804687.808594.804687h.269531v.539063h-1.027344c.109376.3125.40625.539062.757813.539062h.269531v.535156h.535156v-.535156h.269532c.445312 0 .808594-.363281.808594-.808594 0-.445312-.363282-.804687-.808594-.804687h-.269532v-.539063h1.023438c-.109375-.3125-.402344-.539062-.753906-.539062h-.269532v-.535156zm-.269531 1.074218h.269531v.539063h-.269531c-.152344 0-.269531-.121094-.269531-.269531 0-.152344.117187-.269532.269531-.269532zm.804687 1.074219h.269532c.148437 0 .269531.121094.269531.269531 0 .152344-.121094.277344-.269531.269532h-.269532zm1.613282 1.078125v.535156h2.6875v-.535156zm0 0" fill="#3f3f3f"/></svg>