<svg height="17pt" viewBox="0 0 17 17" width="17pt" xmlns="http://www.w3.org/2000/svg"><path d="m4.015625 1.019531h9.171875c1.652344 0 2.996094 1.34375 2.996094 2.996094v9.171875c0 1.652344-1.34375 2.996094-2.996094 2.996094h-9.171875c-1.652344 0-2.996094-1.34375-2.996094-2.996094v-9.171875c0-1.652344 1.34375-2.996094 2.996094-2.996094zm0 0" fill="#a7d285" fill-rule="evenodd"/><path d="m4.929688 6.070312c0 .371094.011718.796876.027343 1.128907h-.816406c-.433594 0-.785156.347656-.785156.785156v3.316406c0 .433594.351562.765625.785156.765625h1.648437c.371094 0 .5625-.375.5625-.375.898438.75 2.199219.75 3.167969.75 1.96875 0 4.328125-.074218 4.328125-6.371094zm-.339844 1.875h.394531c.152344 1.554688.5 2.605469.953125 3.3125-.066406.035157-.140625.058594-.21875.058594h-1.128906c-.269532 0-.484375-.25-.484375-.5625v-2.246094c0-.308593.214843-.5625.484375-.5625zm0 0" fill="#fff"/></svg>