<svg height="17pt" viewBox="0 0 17 17" width="17pt" xmlns="http://www.w3.org/2000/svg"><path d="m3.96875 1.007812h9.0625c1.632812 0 2.960938 1.328126 2.960938 2.960938v9.0625c0 1.632812-1.328126 2.960938-2.960938 2.960938h-9.0625c-1.632812 0-2.960938-1.328126-2.960938-2.960938v-9.0625c0-1.632812 1.328126-2.960938 2.960938-2.960938zm0 0" fill="#4f4f4f" fill-rule="evenodd"/><path d="m4.25 4.25v8.5h8.5v-8.5zm1.59375 1.59375h5.3125v5.3125h-5.3125zm0 0" fill="#848484"/><path d="m3.1875 8.5h5.3125v5.3125h-5.3125zm0 0" fill="#64b5ff"/><path d="m3.1875 3.1875h5.3125v3.71875h-5.3125zm0 0" fill="#e47cff"/><path d="m13.8125 5.046875c0 1.027344-.832031 1.859375-1.859375 1.859375s-1.859375-.832031-1.859375-1.859375.832031-1.859375 1.859375-1.859375 1.859375.832031 1.859375 1.859375zm0 0" fill="#ff6363"/><path d="m9.5625 9.5625h4.25v3.71875h-4.25zm0 0" fill="#3bff80"/></svg>