<svg height="17pt" viewBox="0 0 17 17" width="17pt" xmlns="http://www.w3.org/2000/svg"><path d="m3.96875 1.007812h9.0625c1.632812 0 2.960938 1.328126 2.960938 2.960938v9.0625c0 1.632812-1.328126 2.960938-2.960938 2.960938h-9.0625c-1.632812 0-2.960938-1.328126-2.960938-2.960938v-9.0625c0-1.632812 1.328126-2.960938 2.960938-2.960938zm0 0" fill="#ff5a48" fill-rule="evenodd"/><path d="m7.5 19.999914v-9.25c0-2.80147 2.897059-3.25 2.897059-3.25h11.904412" fill="none" stroke="#fff" stroke-width="3" transform="matrix(.53125 0 0 .53125 0 .265671)"/><path d="m11.386719 2.390625c-.128907 0-.230469.105469-.230469.234375v2.1875c0 .128906.105469.234375.234375.234375h2.1875c.09375 0 .179687-.058594.214844-.144531.039062-.085938.019531-.1875-.050781-.253906l-2.1875-2.1875c-.042969-.046876-.105469-.070313-.167969-.070313zm0 0" fill="#fff"/><path d="m7.082031 7.171875h.179688c.390625 0 .707031.316406.707031.707031v.710938c0 .390625-.316406.707031-.707031.707031h-.179688c-.390625 0-.707031-.316406-.707031-.707031v-.710938c0-.390625.316406-.707031.707031-.707031zm0 0" fill="#fff"/><path d="m24.5 10.999914v9.25c0 2.801471-2.897059 3.25-2.897059 3.25h-11.904412" fill="none" stroke="#fff" stroke-width="3" transform="matrix(.53125 0 0 .53125 0 .265671)"/><path d="m5.613281 14.609375c.128907 0 .230469-.105469.230469-.234375v-2.1875c0-.128906-.105469-.234375-.234375-.234375h-2.1875c-.09375 0-.179687.058594-.214844.144531-.039062.085938-.019531.1875.050781.253906l2.1875 2.1875c.042969.046876.105469.070313.167969.070313zm0 0" fill="#fff"/><path d="m9.738281 7.171875h.179688c.390625 0 .707031.316406.707031.707031v.710938c0 .390625-.316406.707031-.707031.707031h-.179688c-.390625 0-.707031-.316406-.707031-.707031v-.710938c0-.390625.316406-.707031.707031-.707031zm0 0" fill="#fff"/></svg>