<svg height="17pt" viewBox="0 0 17 17" width="17pt" xmlns="http://www.w3.org/2000/svg"><g fill-rule="evenodd"><path d="m12.128906 5.816406c-.027344-.003906-.050781-.003906-.078125.003906v-.003906c-.015625.003906-.039062.023438-.054687.035156-.570313 1.597657-1.132813 3.191407-1.707032 4.785157.316407.003906.640626.023437.953126 0 .554687-1.605469 1.125-3.210938 1.6875-4.816407-.242188-.007812-.480469.003907-.722657 0-.023437.003907-.050781 0-.078125-.003906zm0 0" fill="#0286c2"/><path d="m8.023438 15.992188c.558593-1.449219 1.238281-3.035157 1.722656-4.386719.652344-.015625 1.300781-.007813 1.953125-.019531.207031-.007813.46875-.074219.691406-.1875.226563-.113282.417969-.277344.488281-.480469.550782-1.550781 1.101563-3.085938 1.632813-4.640625.085937-.234375.140625-.496094.070312-.738282-.09375-.3125-.378906-.550781-.683593-.632812-.269532-.085938-.535157-.046875-.808594-.054688-.839844 0-1.699219-.007812-2.535156-.015624-.011719.027343-.019532.09375-.035157.121093-1.238281 3.480469-2.703125 7.464844-3.988281 11.035157zm4.105468-10.175782c.027344.003906.054688.007813.078125.003906.242188.003907.480469-.007812.722657 0-.5625 1.605469-1.132813 3.210938-1.6875 4.816407-.3125.023437-.636719.003906-.953126 0 .574219-1.59375 1.136719-3.1875 1.707032-4.785157.015625-.011718.039062-.03125.054687-.035156v.003906c.027344-.007812.050781-.007812.078125-.003906zm0 0" fill="#fff"/><path d="m6.148438 1.007812h-2.175782c-1.644531 0-2.964844 1.320313-2.964844 2.960938v9.058594c0 1.644531 1.320313 2.964844 2.964844 2.964844h2.558594c1.285156-3.570313 2.75-7.554688 3.988281-11.035157.015625-.027343.023438-.09375.035157-.121093.835937.007812 1.695312.015624 2.535156.015624.273437.007813.539062-.03125.808594.054688.304687.082031.589843.320312.683593.632812.070313.242188.015625.503907-.070312.738282-.53125 1.554687-1.082031 3.089844-1.632813 4.640625-.070312.203125-.261718.367187-.488281.480469-.222656.113281-.484375.179687-.691406.1875-.652344.011718-1.300781.003906-1.953125.019531-.484375 1.351562-1.164063 2.9375-1.722656 4.386719h5.007812c1.640625 0 2.960938-1.320313 2.960938-2.964844v-9.058594c0-1.640625-1.320313-2.960938-2.960938-2.960938h-5.050781c-.421875 1.199219-.847657 2.417969-1.257813 3.585938.328125.011719.746094.042969 1.136719.144531.394531.101563.761719.273438.992187.570313.105469.140625.15625.316406.160157.503906.007812.1875-.027344.382812-.089844.550781-.59375 1.667969-1.207031 3.328125-1.796875 4.996094-.523438.003906-1.042969-.007813-1.5625 0-.074219-.003906-.144531.007813-.214844-.019531.667969-1.828125 1.316406-3.671875 1.972656-5.503906-.3125-.003907-.621093.003906-.933593 0-.046875.101562-.085938.210937-.121094.316406-.605469 1.691406-1.210937 3.375-1.8125 5.066406-.027344.042969-.019531.140625-.089844.140625-.496093 0-.996093-.003906-1.492187 0-.089844-.003906-.175782.007813-.265625-.019531 1.179687-3.261719 2.363281-6.945313 3.542969-10.332032zm0 0" fill="#0286c2"/><path d="m6.148438 1.007812c-1.179688 3.386719-2.363282 7.070313-3.542969 10.332032.089843.027344.175781.015625.265625.019531.496094-.003906.996094 0 1.492187 0 .070313 0 .0625-.097656.089844-.140625.601563-1.691406 1.207031-3.375 1.8125-5.066406.035156-.105469.074219-.214844.121094-.316406.3125.003906.621093-.003907.933593 0-.65625 1.832031-1.304687 3.675781-1.972656 5.503906.070313.027344.140625.015625.214844.019531.519531-.007813 1.039062.003906 1.5625 0 .589844-1.667969 1.203125-3.328125 1.796875-4.996094.0625-.167969.097656-.363281.089844-.550781-.003907-.1875-.054688-.363281-.160157-.503906-.230468-.296875-.597656-.46875-.992187-.570313-.390625-.101562-.808594-.132812-1.136719-.144531.410156-1.167969.835938-2.386719 1.257813-3.585938zm0 0" fill="#fff"/></g></svg>