<svg height="17pt" viewBox="0 0 17 17" width="17pt" xmlns="http://www.w3.org/2000/svg"><path d="m3.96875 1.007812h9.0625c1.632812 0 2.960938 1.328126 2.960938 2.960938v9.0625c0 1.632812-1.328126 2.960938-2.960938 2.960938h-9.0625c-1.632812 0-2.960938-1.328126-2.960938-2.960938v-9.0625c0-1.632812 1.328126-2.960938 2.960938-2.960938zm0 0" fill="#0081cc" fill-rule="evenodd"/><path d="m3.9375 3.625h2.785156c.578125 0 1.046875.46875 1.046875 1.046875v7.65625c0 .578125-.46875 1.046875-1.046875 1.046875h-2.785156c-.574219 0-1.042969-.46875-1.042969-1.046875v-7.65625c0-.578125.46875-1.046875 1.042969-1.046875zm0 0" fill="#fff"/><path d="m10.277344 3.625h2.785156c.574219 0 1.042969.410156 1.042969.914062v3.046876c0 .503906-.46875.914062-1.042969.914062h-2.785156c-.578125 0-1.046875-.410156-1.046875-.914062v-3.046876c0-.503906.46875-.914062 1.046875-.914062zm0 0" fill="#fff"/></svg>