<svg height="17pt" viewBox="0 0 17 17" width="17pt" xmlns="http://www.w3.org/2000/svg"><g fill-rule="evenodd"><g fill="#ccc"><path d="m4.015625 1.019531h9.171875c1.652344 0 2.996094 1.34375 2.996094 2.996094v9.171875c0 1.652344-1.34375 2.996094-2.996094 2.996094h-9.171875c-1.652344 0-2.996094-1.34375-2.996094-2.996094v-9.171875c0-1.652344 1.34375-2.996094 2.996094-2.996094zm0 0"/><path d="m3.730469 16.125c-.171875-.039062-.34375-.082031-.511719-.132812-.171875-.050782-.339844-.113282-.507812-.183594-.082032-.035156-.160157-.078125-.246094-.117188.382812.234375.800781.386719 1.265625.433594zm0 0"/><path d="m4.101562 16.183594c-.113281-.015625-.230468-.03125-.347656-.050782.09375.007813.171875.050782.261719.050782zm0 0"/><path d="m6.996094 5.867188c-.019532.167968-.027344.34375-.027344.515624 0 .128907.003906.257813.015625.382813.011719.183594.03125.359375.0625.539063.03125.179687.070313.355468.121094.53125.046875.171874.105469.34375.167969.507812.066406.171875.140624.335938.222656.5.082031.15625.171875.316406.269531.464844.097656.152344.203125.300781.316406.441406.109375.140625.226563.277344.355469.40625.125.128906.257812.25.398438.371094.136718.113281.28125.222656.429687.328125.148437.101562.300781.191406.457031.28125.140625.074219.277344.140625.421875.199219.019531-.167969.027344-.34375.027344-.515626 0-.128906-.003906-.253906-.011719-.386718-.015625-.175782-.035156-.355469-.066406-.53125 0-.003906 0-.003906 0-.003906-.035156-.179688-.074219-.351563-.121094-.527344-.046875-.171875-.105468-.347656-.167968-.511719-.066407-.171875-.140626-.332031-.222657-.496094-.082031-.160156-.171875-.320312-.269531-.46875-.097656-.152343-.203125-.300781-.316406-.441406-.109375-.140625-.226563-.273437-.355469-.40625-.125-.128906-.257813-.253906-.394531-.371094-.136719-.113281-.285156-.226562-.433594-.324219-.148438-.101562-.300781-.195312-.460938-.285156-.136718-.074218-.273437-.140625-.417968-.199218zm0 0"/><path d="m4.875 5.40625c-.015625 0-.035156 0-.054688-.003906-.128906 0-.257812.003906-.386718.015625-.175782.011719-.359375.035156-.535156.066406-.179688.03125-.351563.070313-.527344.117187-.171875.050782-.347656.105469-.511719.167969-.171875.070313-.335937.144531-.496094.222657-.160156.082031-.320312.175781-.46875.269531-.15625.097656-.300781.203125-.445312.316406-.136719.113281-.273438.234375-.402344.355469-.003906 0-.003906 0-.003906 0-.007813.011718-.015625.019531-.023438.027344v6.226562c0 1.078125.597657 1.976562 1.445313 2.503906.085937.039063.164062.082032.246094.117188.167968.070312.335937.132812.507812.183594.167969.050781.339844.09375.511719.132812.007812.003906.015625.003906.023437.007812.117188.019532.234375.035157.347656.050782h1.429688c.066406-.007813.136719-.015625.207031-.027344.179688-.027344.355469-.070312.53125-.121094.171875-.046875.34375-.101562.507813-.167968.171875-.066407.335937-.140626.5-.222657.15625-.082031.316406-.167969.464844-.269531.15625-.097656.300781-.199219.445312-.316406.136719-.109375.273438-.226563.40625-.355469.125-.125.25-.253906.367188-.394531.113281-.136719.226562-.285156.328124-.429688.097657-.152344.195313-.300781.28125-.460937-.214843-.082031-.417968-.175781-.625-.277344-.226562-.117187-.445312-.242187-.65625-.378906-.214843-.136719-.417968-.28125-.617187-.441407-.195313-.152343-.386719-.324218-.570313-.496093-.179687-.179688-.355468-.363281-.515624-.558594-.164063-.191406-.316407-.390625-.460938-.601563-.140625-.210937-.273438-.421874-.394531-.648437-.121094-.21875-.230469-.445313-.332031-.679687-.097657-.234376-.183594-.46875-.257813-.710938s-.136719-.484375-.1875-.734375-.085937-.5-.109375-.75c-.03125-.25-.042969-.503906-.042969-.757813 0-.175781.007813-.359374.023438-.535156.011719-.148437.03125-.292968.050781-.441406zm0 0"/></g><path d="m4.875 5.40625c-.019531.148438-.039062.292969-.050781.441406-.015625.175782-.023438.359375-.023438.535156 0 .253907.011719.507813.042969.757813.023438.25.058594.5.109375.75s.113281.492187.1875.734375.160156.476562.257813.710938c.101562.234374.210937.460937.332031.679687.121093.226563.253906.4375.394531.648437.144531.210938.296875.410157.460938.601563.160156.195313.335937.378906.515624.558594.183594.171875.375.34375.570313.496093.199219.160157.402344.304688.617187.441407.210938.136719.429688.261719.65625.378906.207032.101563.410157.195313.625.277344v-.003907c.085938-.15625.164063-.320312.238282-.484374.070312-.167969.128906-.335938.183594-.511719.050781-.171875.097656-.347657.132812-.519531 0-.003907 0-.003907 0-.003907.039062-.175781.066406-.355469.082031-.535156 0-.007813 0-.015625 0-.023437-.144531-.058594-.28125-.125-.421875-.199219-.15625-.089844-.308594-.179688-.457031-.28125-.148437-.105469-.292969-.214844-.429687-.328125-.140626-.121094-.273438-.242188-.394532-.371094-.003906 0-.003906 0-.003906 0-.128906-.128906-.246094-.265625-.355469-.40625-.113281-.140625-.21875-.289062-.316406-.441406-.097656-.148438-.1875-.308594-.269531-.464844-.082032-.164062-.15625-.328125-.222656-.5-.0625-.164062-.121094-.335938-.167969-.507812-.050781-.175782-.089844-.351563-.121094-.53125-.03125-.179688-.050781-.355469-.0625-.539063-.011719-.125-.015625-.253906-.015625-.382813 0-.171874.007812-.347656.027344-.515624-.023438-.011719-.046875-.023438-.066406-.03125 0-.003907-.003907-.003907-.003907-.003907-.167969-.070312-.335937-.132812-.507812-.183593-.171875-.054688-.347657-.097657-.523438-.132813 0-.003906 0-.003906 0-.003906-.179687-.039063-.355469-.0625-.535156-.082031-.160156-.015626-.324219-.023438-.484375-.023438zm0 0" fill="#7bc450"/><path d="m10.171875 16.183594c.027344-.027344.058594-.054688.085937-.085938.171876-.175781.34375-.371094.5-.566406.15625-.199219.300782-.402344.441407-.617188.136719-.210937.261719-.429687.378906-.65625.109375-.226562.21875-.453124.308594-.691406.089843-.234375.167969-.476562.238281-.71875.066406-.242187.121094-.492187.164062-.742187.042969-.246094.074219-.496094.089844-.75.011719-.175781.019532-.359375.019532-.535157 0-.253906-.011719-.507812-.039063-.757812-.023437-.25-.058594-.5-.109375-.75s-.113281-.492188-.1875-.734375-.160156-.480469-.257812-.710937c-.101563-.234376-.210938-.460938-.332032-.679688-.121094-.226562-.253906-.441406-.398437-.648438-.140625-.210937-.296875-.414062-.457031-.601562-.164063-.195312-.335938-.378906-.519532-.558594-.179687-.171875-.371094-.34375-.566406-.496094-.199219-.160156-.40625-.304687-.617188-.445312-.210937-.132812-.429687-.257812-.65625-.375-.226562-.113281-.453124-.214844-.691406-.3125-.238281-.089844-.476562-.167969-.71875-.234375-.246094-.070313-.492187-.125-.742187-.167969-.246094-.042968-.5-.074218-.75-.089844-.175781-.011718-.359375-.019531-.535157-.019531-.253906 0-.507812.011719-.761718.039063-.25.023437-.496094.0625-.746094.109375-.25.050781-.496094.117187-.734375.191406-.242187.074219-.480469.160156-.710937.261719-.234376.097656-.464844.203125-.683594.328125-.054688.03125-.109375.066406-.164063.097656v2.695313c.007813-.007813.015625-.015626.023438-.027344h.003906c.128906-.121094.265625-.242188.402344-.355469.144531-.113281.289062-.21875.445312-.316406.148438-.09375.308594-.1875.46875-.269531.160157-.078126.324219-.152344.492188-.222657.167969-.0625.34375-.117187.515625-.167969.175781-.046874.347656-.085937.527344-.117187.175781-.03125.359374-.054687.535156-.066406.128906-.011719.257812-.015625.386718-.015625.179688 0 .359376.007812.539063.027344.179687.019531.355469.042968.535156.082031v.003906c.175781.035156.351563.078125.523438.132813.171875.050781.339843.113281.507812.183593 0 0 .003907 0 .003907.003907.164062.066406.328124.144531.484374.230468.160157.089844.3125.183594.460938.28125.148438.101563.296875.214844.433594.328125.136718.117188.269531.242188.394531.371094.128906.132813.246094.265625.355469.40625.113281.140625.21875.289063.316406.441406.097656.148438.1875.308594.269531.46875.082031.164063.15625.324219.222657.496094.0625.164063.121093.339844.167968.511719.046875.175781.085938.347656.121094.527344v.003906c.03125.175781.050781.355468.066406.53125.007813.132812.011719.257812.011719.386718 0 .179688-.007813.359376-.027344.539063-.015625.179687-.042969.359375-.082031.535156v.003907c-.035156.171874-.082031.347656-.132812.519531-.054688.175781-.113282.34375-.183594.511719-.074219.164062-.152344.328124-.238282.484374-.085937.160157-.183593.3125-.28125.464844-.101562.144532-.214843.292969-.328124.429688-.117188.140625-.242188.269531-.367188.394531-.132812.128906-.269531.246094-.40625.355469-.144531.117187-.289062.21875-.445312.316406-.148438.101562-.308594.1875-.464844.269531-.164063.082031-.328125.15625-.5.222657-.164063.066406-.335938.121093-.507813.167968-.175781.050782-.351562.09375-.53125.121094-.070312.011719-.140625.019531-.207031.027344zm0 0" fill="#318bcf"/><g fill="#ccc"><path d="m13.871094 1.15625c.050781.015625.101562.03125.152344.042969.175781.054687.339843.113281.511718.183593.011719.007813.023438.011719.039063.019532-.222657-.117188-.453125-.183594-.703125-.246094zm0 0"/><path d="m12.328125 11.78125c.03125 0 .0625.007812.09375.007812.128906 0 .257813-.007812.386719-.019531.179687-.011719.359375-.03125.535156-.0625.179688-.03125.355469-.070312.53125-.117187.171875-.046875.34375-.105469.511719-.171875.167969-.066407.332031-.136719.496093-.21875.15625-.085938.316407-.175781.464844-.269531.15625-.097657.300782-.207032.445313-.316407.132812-.105469.261719-.222656.390625-.34375v-6.253906c0-1.148437-.664063-2.109375-1.609375-2.613281-.015625-.007813-.027344-.011719-.039063-.019532-.171875-.070312-.335937-.128906-.511718-.183593-.050782-.011719-.101563-.027344-.152344-.042969-.226563-.054688-.445313-.136719-.683594-.136719h-1.5625c-.039062.003907-.078125.011719-.121094.015625-.179687.03125-.351562.070313-.527344.117188-.171874.050781-.347656.105468-.511718.171875-.171875.066406-.339844.136719-.496094.222656-.160156.082031-.316406.167969-.46875.265625-.15625.101562-.300781.203125-.441406.316406-.140625.113282-.28125.230469-.40625.355469 0 0 0 0-.003906 0-.125.128906-.25.257813-.367188.398437-.113281.136719-.226562.285157-.328125.429688-.097656.148438-.195313.304688-.28125.460938-.003906.007812-.007813.015624-.007813.019531.203126.085937.398438.171875.59375.269531.226563.117188.445313.242188.65625.375.210938.140625.417969.285156.617188.445312.195312.152344.386719.324219.566406.496094.183594.179688.355469.363282.519532.558594.160156.1875.316406.390625.457031.601562.144531.207032.277343.421876.398437.648438.121094.21875.230469.445312.332032.679688.097656.230468.183593.46875.257812.710937s.136719.484375.1875.734375.085938.5.109375.75c.027344.25.039063.503906.039063.757812 0 .175782-.007813.359376-.019532.535157-.011718.144531-.027344.285156-.050781.425781zm0 0"/><path d="m11.726562 13.914062c-.046874.117188-.097656.234376-.148437.34375-.117187.226563-.242187.445313-.378906.65625-.140625.214844-.285157.417969-.441407.617188-.15625.195312-.328124.390625-.5.566406-.027343.03125-.058593.058594-.085937.085938h3.015625c1.660156 0 2.996094-1.335938 2.996094-2.996094v-.238281c-.039063.023437-.085938.050781-.125.074219-.21875.125-.449219.234374-.683594.328124-.230469.101563-.46875.1875-.710938.261719-.242187.074219-.484374.136719-.734374.191407-.25.046874-.5.085937-.746094.109374-.253906.027344-.507813.039063-.761719.039063-.175781 0-.355469-.007813-.535156-.019531-.050781-.003906-.105469-.011719-.160157-.019532zm0 0"/></g><path d="m11.726562 13.914062c.054688.007813.109376.015626.160157.019532.179687.011718.359375.019531.535156.019531.253906 0 .507813-.011719.761719-.039063.246094-.023437.496094-.0625.746094-.109374.25-.054688.492187-.117188.734374-.191407.242188-.074219.480469-.160156.710938-.261719.234375-.09375.464844-.203124.683594-.328124.039062-.023438.085937-.050782.125-.074219v-2.679688c-.128906.121094-.257813.238281-.390625.34375-.144531.109375-.289063.21875-.445313.316407-.148437.09375-.308594.183593-.464844.269531-.164062.082031-.328124.152343-.496093.21875-.167969.066406-.339844.125-.511719.171875-.175781.046875-.351562.085937-.53125.117187-.175781.03125-.355469.050781-.535156.0625-.128906.011719-.257813.019531-.386719.019531-.03125 0-.0625-.007812-.09375-.007812-.011719.109375-.023437.21875-.039063.324219-.042968.25-.097656.5-.164062.742187-.070312.242188-.148438.484375-.238281.71875-.050781.117188-.105469.234375-.160157.347656zm0 0" fill="#7bc450"/><path d="m7.058594 1.019531h-3.042969c-1.660156 0-2.996094 1.335938-2.996094 2.996094v.25c.054688-.03125.109375-.066406.164063-.097656.21875-.125.449218-.230469.683594-.328125.230468-.101563.46875-.1875.710937-.261719.238281-.074219.484375-.140625.734375-.191406.25-.046875.496094-.085938.746094-.109375.253906-.027344.507812-.039063.761718-.039063.175782 0 .359376.007813.535157.019531.050781.003907.101562.011719.160156.019532.046875-.117188.097656-.230469.152344-.34375.113281-.226563.242187-.449219.375-.65625.140625-.214844.285156-.417969.445312-.617188.152344-.199218.324219-.390625.496094-.574218.023437-.019532.050781-.042969.074219-.066407zm0 0" fill="#ccc"/><path d="m7.058594 1.019531c-.023438.023438-.050782.046875-.074219.066407-.171875.183593-.34375.375-.496094.574218-.160156.199219-.304687.402344-.445312.617188-.132813.207031-.261719.429687-.375.65625-.054688.113281-.105469.226562-.152344.34375.195313.015625.394531.039062.589844.070312.25.042969.496093.097656.742187.167969.242188.066406.480469.144531.71875.234375.03125.015625.0625.03125.097656.042969 0-.003907.003907-.011719.007813-.019531.085937-.15625.183594-.3125.28125-.460938.101563-.144531.214844-.292969.328125-.429688.117188-.140624.242188-.269531.367188-.398437h.003906c.125-.125.265625-.242187.40625-.355469.140625-.113281.285156-.214844.441406-.316406.152344-.097656.308594-.183594.46875-.265625.15625-.085937.324219-.15625.496094-.222656.164062-.066407.339844-.121094.511718-.171875.175782-.046875.347657-.085938.527344-.117188.042969-.003906.082032-.011718.121094-.015625zm0 0" fill="#7bc450"/></g></svg>