<svg height="17pt" viewBox="0 0 17 17" width="17pt" xmlns="http://www.w3.org/2000/svg"><path d="m3.96875 1.007812h9.0625c1.632812 0 2.960938 1.328126 2.960938 2.960938v9.0625c0 1.632812-1.328126 2.960938-2.960938 2.960938h-9.0625c-1.632812 0-2.960938-1.328126-2.960938-2.960938v-9.0625c0-1.632812 1.328126-2.960938 2.960938-2.960938zm0 0" fill="#7b5ab7" fill-rule="evenodd"/><path d="m4.25 2.921875-.53125 2.125v7.96875h2.125v1.0625h1.0625l1.0625-1.0625h1.59375l3.71875-3.71875v-6.375zm1.0625.53125h7.4375v5.578125l-1.328125 1.328125h-2.921875l-1.59375 1.59375v-1.59375h-1.59375zm2.125 1.59375v3.1875h1.0625v-3.1875zm2.65625 0v3.1875h1.0625v-3.1875zm0 0" fill="#fff" fill-rule="evenodd"/></svg>