<svg height="17pt" viewBox="0 0 17 17" width="17pt" xmlns="http://www.w3.org/2000/svg"><path d="m4.015625 1.019531h9.171875c1.652344 0 2.996094 1.34375 2.996094 2.996094v9.171875c0 1.652344-1.34375 2.996094-2.996094 2.996094h-9.171875c-1.652344 0-2.996094-1.34375-2.996094-2.996094v-9.171875c0-1.652344 1.34375-2.996094 2.996094-2.996094zm0 0" fill="#5f7c8a" fill-rule="evenodd"/><path d="m7.550781 3.636719c-.109375.011719-.203125.097656-.222656.207031l-.21875 1.097656c-.386719.152344-.753906.359375-1.074219.617188l-1.0625-.359375c-.113281-.039063-.246094.011719-.308594.109375l-1.023437 1.78125c-.058594.101562-.03125.242187.054687.320312l.851563.746094c-.03125.199219-.046875.402344-.046875.605469 0 .210937.015625.414062.046875.609375l-.851563.746094c-.085937.078124-.113281.21875-.054687.320312l1.023437 1.78125c.0625.101562.195313.148438.308594.113281l1.0625-.363281c.320313.257812.6875.464844 1.074219.617188l.21875 1.097656c.019531.117187.128906.210937.246094.210937h2.054687c.113282 0 .226563-.09375.246094-.210937l.214844-1.097656c.390625-.152344.757812-.359376 1.078125-.617188l1.0625.363281c.113281.035157.246093-.011719.308593-.113281l1.023438-1.78125c.058594-.101562.03125-.242188-.054688-.320312l-.851562-.746094c.03125-.195313.046875-.398438.046875-.609375 0-.203125-.015625-.40625-.046875-.605469l.851562-.746094c.085938-.078125.113282-.21875.054688-.320312l-1.023438-1.78125c-.0625-.097656-.195312-.148438-.308593-.109375l-1.0625.359375c-.320313-.257813-.6875-.464844-1.078125-.617188l-.214844-1.097656c-.019531-.117188-.132812-.207031-.246094-.207031h-2.054687c-.007813 0-.015625 0-.023438 0zm0 0" fill="#fff"/><path d="m8.601562 6.566406c1.214844 0 2.199219.984375 2.199219 2.195313 0 1.214843-.984375 2.199219-2.199219 2.199219-1.214843 0-2.199218-.984376-2.199218-2.199219 0-1.210938.984375-2.195313 2.199218-2.195313zm0 0" fill="#5f7c8a"/><path d="m11.167969 11.96875 1.691406-2.871094c.53125-.316406 1.515625-.125 1.511719.871094l-1.683594 2.933594-1.449219.742187zm0 0" fill="#f2f2f2"/><path d="m11.214844 13.082031.023437.5625.5-.257812zm0 0" fill="#300503"/><path d="m12.226562 12.589844-.609374.726562.117187.066406.953125-.480468.015625-.035156zm0 0" fill="#ccc"/><path d="m14.171875 10.320312-1.519531-.875-1.484375 2.523438 1.539062.902344zm0 0" fill="#0ab884"/><path d="m14.367188 9.96875-1.503907-.871094h-.003906l-.207031.347656 1.519531.875.199219-.351562zm0 0" fill="#e3e2db"/><path d="m13.320312 8.960938c-.164062.011718-.324218.058593-.457031.136718l1.503907.871094c.003906-.746094-.542969-1.039062-1.046876-1.007812zm0 0" fill="#f2f2f2"/><path d="m13.675781 10.035156-1.449219 2.554688.480469.28125 1.464844-2.550782zm0 0" fill="#007d68"/><path d="m13.125 9.71875-1.46875 2.539062.570312.332032 1.449219-2.554688zm0 0" fill="#0ab884"/><path d="m13.054688 9.679688-1.460938 2.539062.0625.039062 1.46875-2.539062zm0 0" fill="#ccc"/></svg>