<svg height="17pt" viewBox="0 0 17 17" width="17pt" xmlns="http://www.w3.org/2000/svg"><path d="m3.96875 1.007812h9.0625c1.632812 0 2.960938 1.328126 2.960938 2.960938v9.0625c0 1.632812-1.328126 2.960938-2.960938 2.960938h-9.0625c-1.632812 0-2.960938-1.328126-2.960938-2.960938v-9.0625c0-1.632812 1.328126-2.960938 2.960938-2.960938zm0 0" fill="#c2352a" fill-rule="evenodd"/><g fill="#fff"><path d="m12.796875 4.25h1.128906c.15625 0 .285157.136719.285157.300781v7.882813c0 .164062-.128907.300781-.285157.300781h-1.128906c-.15625 0-.285156-.136719-.285156-.300781v-7.882813c0-.164062.128906-.300781.285156-.300781zm0 0"/><path d="m8.128906 4.25h1.128906c.15625 0 .285157.136719.285157.300781v7.882813c0 .164062-.128907.300781-.285157.300781h-1.128906c-.15625 0-.285156-.136719-.285156-.300781v-7.882813c0-.164062.128906-.300781.285156-.300781zm0 0"/><path d="m3.039062 4.25h1.128907c.15625 0 .28125.136719.28125.300781v7.882813c0 .164062-.125.300781-.28125.300781h-1.128907c-.160156 0-.285156-.136719-.285156-.300781v-7.882813c0-.164062.125-.300781.285156-.300781zm0 0"/></g><g fill="#d8564d"><path d="m6.992188 4.492188v1.128906c0 .15625-.136719.285156-.304688.285156h-3.636719c-.167969 0-.300781-.128906-.300781-.285156v-1.128906c0-.15625.132812-.285157.300781-.285157h3.636719c.167969 0 .304688.128907.304688.285157zm0 0"/><path d="m6.992188 11.378906v1.128906c0 .15625-.136719.285157-.304688.285157h-3.636719c-.167969 0-.300781-.128907-.300781-.285157v-1.128906c0-.15625.132812-.285156.300781-.285156h3.636719c.167969 0 .304688.128906.304688.285156zm0 0"/><path d="m8.222656 4.21875c-.148437 0-.289062.066406-.363281.175781-.074219.105469-.074219.238281 0 .347657l2.804687 4.03125c.070313.101562.199219.167968.34375.171874.15625.007813.304688-.058593.382813-.171874l2.804687-4.03125c.074219-.109376.074219-.242188 0-.347657-.074218-.109375-.214843-.175781-.363281-.175781zm0 0"/></g></svg>