<svg height="17pt" viewBox="0 0 17 17" width="17pt" xmlns="http://www.w3.org/2000/svg"><path d="m3.96875 1.007812h9.0625c1.632812 0 2.960938 1.328126 2.960938 2.960938v9.0625c0 1.632812-1.328126 2.960938-2.960938 2.960938h-9.0625c-1.632812 0-2.960938-1.328126-2.960938-2.960938v-9.0625c0-1.632812 1.328126-2.960938 2.960938-2.960938zm0 0" fill="#8e8e8e" fill-rule="evenodd"/><path d="m4.734375 4.34375h7.53125c.984375 0 1.785156.800781 1.785156 1.789062v4.734376c0 .988281-.800781 1.789062-1.785156 1.789062h-7.53125c-.984375 0-1.785156-.800781-1.785156-1.789062v-4.734376c0-.988281.800781-1.789062 1.785156-1.789062zm0 0" fill="#474747"/><path d="m4.800781 4.871094h7.398438c.746093 0 1.351562.582031 1.351562 1.296875v4.664062c0 .714844-.605469 1.296875-1.351562 1.296875h-7.398438c-.746093 0-1.351562-.582031-1.351562-1.296875v-4.664062c0-.714844.605469-1.296875 1.351562-1.296875zm0 0" fill="#232323"/><path d="m8.5 6.441406c-.609375 0-1.097656.535156-1.097656 1.195313v.453125h-.273438c-.152344 0-.273437.246094-.273437.410156v1.761719c0 .164062.121093.296875.273437.296875h2.742188c.152344 0 .273437-.132813.273437-.296875v-1.761719c0-.164062-.121093-.410156-.273437-.410156h-.273438v-.453125c0-.65625-.488281-1.195313-1.097656-1.195313zm0 .824219c.304688 0 .410156.027344.410156.351563v.472656h-.820312v-.472656c0-.324219.105468-.351563.410156-.351563zm0 0" fill="#8e8e8e"/></svg>