<svg height="17pt" viewBox="0 0 17 17" width="17pt" xmlns="http://www.w3.org/2000/svg"><path d="m3.96875 1.007812h9.0625c1.632812 0 2.960938 1.328126 2.960938 2.960938v9.0625c0 1.632812-1.328126 2.960938-2.960938 2.960938h-9.0625c-1.632812 0-2.960938-1.328126-2.960938-2.960938v-9.0625c0-1.632812 1.328126-2.960938 2.960938-2.960938zm0 0" fill="#1c75bc" fill-rule="evenodd"/><path d="m8.5 2.390625c-3.375 0-6.109375 2.734375-6.109375 6.109375s2.734375 6.109375 6.109375 6.109375 6.109375-2.734375 6.109375-6.109375-2.734375-6.109375-6.109375-6.109375zm0 0" fill="#fff"/><path d="m6.074219 6.097656-.375 1.3125h5.21875l-.90625 2.179688h-5.0625l-.378907 1.3125h5.414063c.601563-.011719 1.222656-.375 1.460937-.949219l.945313-2.828125c.222656-.914062-.601563-1.027344-1.238281-1.027344zm-1.050781 1.746094-.453126 1.3125h3.023438l.453125-1.3125zm0 0" fill="#1c75bc"/></svg>