<svg height="17pt" viewBox="0 0 17 17" width="17pt" xmlns="http://www.w3.org/2000/svg" xmlns:xlink="http://www.w3.org/1999/xlink"><clipPath id="a"><path d="m0 0h17v17h-17z"/></clipPath><path d="m3.96875 1.007812h9.0625c1.632812 0 2.960938 1.328126 2.960938 2.960938v9.0625c0 1.632812-1.328126 2.960938-2.960938 2.960938h-9.0625c-1.632812 0-2.960938-1.328126-2.960938-2.960938v-9.0625c0-1.632812 1.328126-2.960938 2.960938-2.960938zm0 0" fill="#7572b8" fill-opacity=".992157" fill-rule="evenodd"/><g clip-path="url(#a)"><path d="m5.597656 12.851562s.570313.167969 1.328125.261719c.308594.039063 1.476563.171875 2.375.167969 0 0 1.089844 0 1.691407-.085938.632812-.089843.988281-.203124 1.1875-.429687.007812-.054687.097656-.234375-.148438-.402344-.625-.4375-1.4375-.558593-3.011719-.933593-1.738281-.4375-2.257812-.855469-2.519531-1.15625-.246094-.304688.046875-.9375 1.449219-1.246094.710937-.171875 3.355469-.203125 3.355469-.203125-.757813-.601563-2.183594-1.679688-2.476563-1.910157-.253906-.203124-.664063-.511718-.710937-.785156-.058594-.269531.363281-.398437.589843-.414062.71875-.050782 1.703125.035156 2.578125.210937.441406.085938.519532.074219.519532.074219.625.027344 1.113281-.300781 1.085937-.992188-.003906-.699218-.703125-1.261718-1.480469-1.285156-.730468-.023437-2.53125.101563-2.53125.101563 2.097656.433593 2.441406.542969 2.550782.796875.066406.148437-.109376.296875-.683594.269531-.632813-.03125-1.921875-.183594-1.921875-.183594-1.226563-.191406-2.082031-.367187-2.457031.117188-.242188.320312.035156.707031.144531.9375.488281.847656 1.332031 1.429687 1.867187 1.84375.199219.152343.8125.496093.8125.496093-1.90625-.523437-3.429687-.230468-4.394531.277344-1.109375.65625-.917969 1.765625.839844 2.800782 1.039062.609374 1.558593.90625 3.257812 1.113281.996094.160156 1.144531.222656 1.136719.304687-.011719.117188-1.175781.164063-1.5.183594-.8125.058594-2.921875.070312-2.933594.070312zm0 0" fill="#fff"/></g></svg>