<svg height="17pt" viewBox="0 0 17 17" width="17pt" xmlns="http://www.w3.org/2000/svg"><path d="m3.96875 1.007812h9.0625c1.632812 0 2.960938 1.328126 2.960938 2.960938v9.0625c0 1.632812-1.328126 2.960938-2.960938 2.960938h-9.0625c-1.632812 0-2.960938-1.328126-2.960938-2.960938v-9.0625c0-1.632812 1.328126-2.960938 2.960938-2.960938zm0 0" fill="#ffd44a" fill-rule="evenodd"/><path d="m8.5 3.132812c-2.964844 0-5.367188 2.402344-5.367188 5.367188s2.402344 5.367188 5.367188 5.367188 5.367188-2.402344 5.367188-5.367188-2.402344-5.367188-5.367188-5.367188zm0 0" fill="#f4b400"/><path d="m7.816406 3.179688c-.695312.089843-1.347656.308593-1.929687.636718l.378906.09375.246094.171875v.148438l.417969.269531-.097657.394531-.222656-.171875-.148437.171875-.171876.097657-.097656-.296876.050782-.171874-.050782-.121094-.246094-.222656h-.097656l.097656.246093v.222657c-.09375-.027344-.195312-.039063-.292968-.050782l.269531.199219.023437.121094.320313.269531.320313-.074219v-.195312l.144531.097656-.070313.171875h.242188l.125.222656.148437.171875.292969.046875-.171875.171875-.050781.171875h.222656l.269531.148438v.441406h-.121093l-.125.121094-.269532-.121094-.097656-.269531-.195312-.125-.027344-.097657-.316406-.070312-.171876.195312-.195312.097657.121094.21875-.171875-.046875-.097657-.222656.21875-.242188h-.097656l-.195312.167969-.050782.246093-.171874.222657-.046876-.320313-.097656-.046875c-.105468.109375-.183594.242188-.269531.367188l-.34375.023437-.175781.125.074218.121094.199219.171875h.269531l.367188-.121094.171875.023438.148437.148437.390626-.394531.269531-.074219.394531.050782.367188.097656c.203124.230468.402343.46875.589843.710937l.222657.566407-.101563.097656.199219.292968-.222656.515626c-.179688.207031-.359376.40625-.539063.613281l-.269531-.21875-.097656.121093-.296876-.171874-.097656.097656h-.269531l-.171875.199218.097656.34375-.195312.21875.023437.394532-.171875.292968.125.246094c.007813.179688.023438.363282.023438.539063-.085938.242187-.1875.46875-.269532.714843l-.050781.390626v.195312h-.148437l-.242188-.144531h-.234375c.875.625 1.941407.996093 3.105469.996093.871094 0 1.691406-.210937 2.417969-.578124l.011719-.027344-.171876-.171875-.046874-.171875-.269532-.074219-.199218-.539063.050781-.121093-.125-.222657-.316407-.074218-.148437-.367188.023437-.492187-.246093-.34375-.023438-.34375c.335938-.167969.648438-.339844.984375-.515625l.167969-.34375.296875-.070313.171875-.445312.390625.050781.371094-.269531.367187.34375v.046875c.113281-.03125.246094-.035156.34375-.097656l.074219-.242188v-.246094l.246094.023438c-.023438-.164063-.054688-.351563-.074219-.515625h.148437l.144532.195312.148437.074219.195313-.121094.027344-.246094-.027344-.296874-.316406-.21875h-.246094l-.050782-.148438-.292968.074219-.222656.269531-.046876-.464844-.394531-.320312-.121093-.367188-.296876-.125-.171874-.21875-.367188-.074218-.171875-.296876h.539063l-.34375-.144531h-.246094l-.316406-.125-.050782.320313-.148437-.222656.171875-.121094-.046875-.125.121093-.121094.148438-.023438-.050781-.148437.125-.21875.246093.097656-.050781-.199219.292969-.171874.222656.417968-.023437.125.21875.097656.148437.320313.050782-.296875.390624-.148438.074219-.21875-.515625-.296874-.222656-.21875-.023438-.269532.015626-.007812c-.058594-.039063-.117188-.070313-.175782-.105469l.085938.210937h-.242188l-.074218-.195312-.222657.171875h-.195312v-.199219l.222656-.097656.195313.125-.027344-.050781c-.097656-.070313-.191406-.152344-.292969-.21875l-.246094.070312c-.152343.109375-.289062.214844-.441406.320313l-.246094-.21875.269531-.101563.101563-.242187.191406-.023438c-.105469-.039062-.207031-.078125-.3125-.109375l-.492187.351563v.222656l.195312.21875-.269531.542969-.199219-.101563-.21875-.367187c-.332031-.101563-.648437-.222657-.957031-.367188l.023437.148438-.148437.097656-.269531-.199219.121094-.144531.199218.097656.023438-.023437zm-2.457031.976562c-.082031.0625-.167969.121094-.246094.183594l.097657.113281.269531-.296875zm2.035156.269531h.148438v.148438l-.097657.121093v.222657l.046876.320312-.246094-.050781-.195313-.171875.171875-.171875c.054688-.144531.105469-.277344.171875-.417969zm.367188.320313.148437.050781-.023437.292969-.222657-.125zm-3.828125 2.503906-.222656.246094-.242188-.023438c-.089844.078125-.175781.148438-.253906.226563-.039063.253906-.058594.515625-.058594.777343 0 1.753907.84375 3.300782 2.140625 4.273438l-.332031-.394531.050781-.171875-.296875-.246094.222656-.21875-.246094-.195312-.246093-.148438-.097657-.125.074219-.269531v-.6875l-.199219-.417969-.21875-.242188-.269531-.640624v-.171876c.125.015626.242188.042969.367188.050782l-.246094-.269532-.34375-.246093-.195313-.222657v-.21875c.042969-.082031.078126-.191406.121094-.269531l.171875.21875.125-.171875.195313-.148437zm.957031.121094-.21875.269531-.296875.617187-.171875.195313.097656.222656-.171875.195313c.074219.003906.148438 0 .222656 0 .132813-.289063.242188-.585938.34375-.886719l.171876-.195313.097656-.367187zm8.949219.964844c-.011719.019531-.035156.066406-.035156.066406l-.417969.246094-.441407.125-.171874.246093-.296876.21875-.148437-.046875-.121094.070313v.027343l.148438.464844.121093.171875-.023437.097657.097656.371093-.367187.660157-.371094.34375-.167969.222656.023438.515625-.125.269531.089843.394531c1.339844-.96875 2.210938-2.539062 2.210938-4.324219 0-.046874-.003906-.09375-.003906-.136718zm0 0" fill="#ffd44a"/><path d="m8.90625 4.5625.183594 1.085938-.785156.765624 1.085937.15625.484375.988282.488281-.988282 1.085938-.15625-.785157-.765624.183594-1.085938-.972656.511719zm-3.738281.945312.183593 1.085938-.785156.765625 1.085938.15625.488281.988281.484375-.988281 1.089844-.15625-.789063-.765625.1875-1.085938-.972656.511719zm4.71875 2.753907.1875 1.082031-.789063.769531 1.089844.15625.484375.988281.488281-.988281 1.085938-.15625-.785156-.769531.183593-1.082031-.972656.511719zm-4.328125 1.179687.1875 1.085938-.785156.765625 1.085937.15625.484375.988281.488281-.988281 1.085938-.15625-.785157-.765625.1875-1.085938-.976562.511719zm0 0" fill="#fff"/><path d="m8.15625 9.40625c-.164062.007812-.316406.101562-.394531.246094-.078125.144531-.074219.324218.007812.464844l.996094 1.722656-.996094 1.726562c-.085937.144532-.085937.324219-.003906.472656.085937.148438.242187.238282.410156.238282.171875-.003906.328125-.09375.410157-.242188l.722656-1.253906.71875 1.253906c.082031.148438.238281.238282.410156.242188.167969 0 .328125-.089844.410156-.238282.085938-.148437.082032-.328124-.003906-.472656l-.992188-1.726562.992188-1.722656c.085938-.144532.089844-.324219.003906-.472657-.082031-.144531-.234375-.238281-.40625-.238281s-.328125.09375-.414062.242188l-.71875 1.25-.722656-1.25c-.085938-.15625-.25-.246094-.429688-.242188zm3.410156.003906c-.152344 0-.292968.070313-.378906.1875-.089844.121094-.117188.277344-.074219.417969l1.128907 3.917969c.058593.199218.242187.339844.453124.339844.207032 0 .390626-.140626.449219-.339844l1.128907-3.917969c.074218-.25-.070313-.507813-.320313-.582031-.25-.070313-.511719.074218-.582031.324218l-.675782 2.347657-.679687-2.347657c-.054687-.207031-.238281-.347656-.449219-.347656zm0 0" fill="#c2352a"/></svg>