<svg height="17pt" viewBox="0 0 17 17" width="17pt" xmlns="http://www.w3.org/2000/svg"><path d="m3.96875 1.007812h9.0625c1.632812 0 2.960938 1.328126 2.960938 2.960938v9.0625c0 1.632812-1.328126 2.960938-2.960938 2.960938h-9.0625c-1.632812 0-2.960938-1.328126-2.960938-2.960938v-9.0625c0-1.632812 1.328126-2.960938 2.960938-2.960938zm0 0" fill="#478f30" fill-rule="evenodd"/><path d="m8.5 2.460938c-.957031 0-1.726562.769531-1.726562 1.726562v2.011719l-.761719-.761719c-.519531-.519531-1.351563-.519531-1.871094 0-.515625.515625-.515625 1.347656 0 1.867188l2.492187 2.488281-2.492187 2.492187c-.515625.515625-.515625 1.347656 0 1.867188.519531.515625 1.351563.515625 1.871094 0l1.59375-1.59375c.261719.160156.566406.253906.894531.253906s.632812-.09375.894531-.253906l1.59375 1.59375c.519531.515625 1.351563.515625 1.871094 0 .515625-.519532.515625-1.351563 0-1.867188l-2.492187-2.492187 2.492187-2.488281c.515625-.519532.515625-1.351563 0-1.867188-.519531-.519531-1.351563-.519531-1.871094 0l-.761719.761719v-2.011719c0-.957031-.769531-1.726562-1.726562-1.726562zm0 0" fill="#fff"/><path d="m12.382812 9.578125c0-2.5-1.738281-4.53125-3.882812-4.53125s-3.882812 2.03125-3.882812 4.53125 1.738281 4.53125 3.882812 4.53125 3.882812-2.03125 3.882812-4.53125zm0 0" fill="#b08e57"/></svg>