<svg height="17pt" viewBox="0 0 17 17" width="17pt" xmlns="http://www.w3.org/2000/svg"><path d="m3.96875 1.007812h9.0625c1.632812 0 2.960938 1.328126 2.960938 2.960938v9.0625c0 1.632812-1.328126 2.960938-2.960938 2.960938h-9.0625c-1.632812 0-2.960938-1.328126-2.960938-2.960938v-9.0625c0-1.632812 1.328126-2.960938 2.960938-2.960938zm0 0" fill="#4f4f4f" fill-rule="evenodd"/><path d="m8.5 3.1875c-2.933594 0-5.3125 2.378906-5.3125 5.3125s2.378906 5.3125 5.3125 5.3125v-1.59375c-2.054688 0-3.71875-1.664062-3.71875-3.71875s1.664062-3.71875 3.71875-3.71875 3.71875 1.664062 3.71875 3.71875h1.59375c0-2.933594-2.378906-5.3125-5.3125-5.3125zm0 0" fill="#fff"/><path d="m8.5 5.84375c-1.46875 0-2.65625 1.1875-2.65625 2.65625h1.59375c0-.585938.476562-1.0625 1.0625-1.0625s1.0625.476562 1.0625 1.0625h1.59375c0-1.46875-1.1875-2.65625-2.65625-2.65625zm0 0" fill="#00adef"/></svg>