<svg height="17pt" viewBox="0 0 17 17" width="17pt" xmlns="http://www.w3.org/2000/svg" xmlns:xlink="http://www.w3.org/1999/xlink"><filter id="a" height="100%" width="100%" x="0%" y="0%"><feColorMatrix in="SourceGraphic" type="matrix" values="0 0 0 0 1 0 0 0 0 1 0 0 0 0 1 0 0 0 1 0"/></filter><mask id="b"><g filter="url(#a)"><path d="m0 0h17v17h-17z" fill-opacity=".101961"/></g></mask><clipPath id="c"><path d="m0 0h17v17h-17z"/></clipPath><clipPath id="d"><path d="m0 0h17v17h-17z"/></clipPath><clipPath id="e"><path d="m0 0h17v17h-17z"/></clipPath><path d="m3.96875 1.007812h9.0625c1.632812 0 2.960938 1.328126 2.960938 2.960938v9.0625c0 1.632812-1.328126 2.960938-2.960938 2.960938h-9.0625c-1.632812 0-2.960938-1.328126-2.960938-2.960938v-9.0625c0-1.632812 1.328126-2.960938 2.960938-2.960938zm0 0" fill="#ffc852" fill-rule="evenodd"/><path d="m11.351562 5.648438v1.425781c0 .789062-.636718 1.425781-1.425781 1.425781h-2.851562s-1.425781 0-1.425781 1.425781v2.496094c0 .988281 1.113281 1.78125 2.496093 1.78125h.710938c1.382812 0 2.496093-.792969 2.496093-1.78125v-1.070313h1.070313c.988281 0 1.78125-1.113281 1.78125-2.496093v-.710938c0-1.382812-.792969-2.496093-1.78125-2.496093zm-1.425781 6.652343c.261719 0 .476563.214844.476563.476563 0 .261718-.214844.476562-.476563.476562s-.476562-.214844-.476562-.476562c0-.261719.214843-.476563.476562-.476563zm0 0" fill="#fff"/><path d="m8.144531 2.796875c-1.382812 0-2.496093.792969-2.496093 1.78125v1.070313h-1.070313c-.988281 0-1.78125 1.113281-1.78125 2.496093v.710938c0 1.382812.792969 2.496093 1.78125 2.496093h1.070313v-1.425781c0-.789062.636718-1.425781 1.425781-1.425781h2.851562s1.425781 0 1.425781-1.425781v-2.496094c0-.988281-1.113281-1.78125-2.496093-1.78125zm0 0" fill="#4795d1"/><path d="m7.074219 3.746094c.261719 0 .476562.214844.476562.476562 0 .261719-.214843.476563-.476562.476563s-.476563-.214844-.476563-.476563c0-.261718.214844-.476562.476563-.476562zm0 0" fill="#fff"/><g clip-path="url(#c)" mask="url(#b)"><path d="m11.351562 5.648438v.476562h1.070313c.988281 0 1.78125 1.113281 1.78125 2.492188v-.472657c0-1.382812-.792969-2.496093-1.78125-2.496093zm0 1.425781c0 .789062-.636718 1.425781-1.425781 1.425781h-2.851562s-1.425781 0-1.425781 1.425781v.476563c0-1.425782 1.425781-1.425782 1.425781-1.425782h2.851562c.789063 0 1.425781-.636718 1.425781-1.425781zm0 0" fill="#fff"/></g><g clip-path="url(#d)"><path d="m14.675781 12.152344c0 1.46875-1.191406 2.65625-2.65625 2.65625-1.46875 0-2.65625-1.1875-2.65625-2.65625 0-1.464844 1.1875-2.65625 2.65625-2.65625 1.464844 0 2.65625 1.191406 2.65625 2.65625zm0 0" fill="#cc5e55" fill-rule="evenodd"/></g><g clip-path="url(#e)"><path d="m11.6875 10.824219-.03125.351562c-.109375.039063-.214844.101563-.304688.175781l-.316406-.148437-.332031.574219.289063.199218c-.011719.058594-.015626.117188-.019532.175782 0 .058594.007813.121094.015625.179687l-.285156.199219.332031.574219.316406-.148438c.089844.074219.195313.132813.304688.175781l.03125.347657h.664062l.027344-.347657c.109375-.042968.214844-.101562.304688-.175781l.320312.148438.332032-.574219-.289063-.203125c.007813-.058594.015625-.117187.015625-.175781s-.007812-.117188-.015625-.175782l.289063-.199218-.332032-.574219-.320312.148437c-.089844-.074218-.191406-.136718-.304688-.175781l-.027344-.351562zm.332031.949219c.207031 0 .378907.171874.378907.378906 0 .210937-.171876.378906-.378907.378906-.210937 0-.382812-.167969-.382812-.378906 0-.207032.171875-.378906.382812-.378906zm0 0" fill="#fff"/></g></svg>