<svg height="17pt" viewBox="0 0 17 17" width="17pt" xmlns="http://www.w3.org/2000/svg"><path d="m3.96875 1.007812h9.0625c1.632812 0 2.960938 1.328126 2.960938 2.960938v9.0625c0 1.632812-1.328126 2.960938-2.960938 2.960938h-9.0625c-1.632812 0-2.960938-1.328126-2.960938-2.960938v-9.0625c0-1.632812 1.328126-2.960938 2.960938-2.960938zm0 0" fill="#4f4f4f" fill-rule="evenodd"/><path d="m7.957031 13.28125c3.253907-.839844 8.152344-4.101562 3.203125-8.5 2.199219 2.789062 2.671875 3.71875-2.136718 3.71875 4.675781.9375.542968 2.808594-1.601563 3.1875zm0 0" fill="#df574d"/><path d="m9.042969 3.71875c-3.253907.839844-8.152344 4.101562-3.203125 8.5-2.199219-2.789062-2.671875-3.71875 2.136718-3.71875-4.675781-.9375-.542968-2.808594 1.601563-3.1875zm0 0" fill="#79de7d"/></svg>