<svg height="17pt" viewBox="0 0 17 17" width="17pt" xmlns="http://www.w3.org/2000/svg" xmlns:xlink="http://www.w3.org/1999/xlink"><clipPath id="a"><path d="m0 0h17v17h-17z"/></clipPath><path d="m3.96875 1.007812h9.0625c1.632812 0 2.960938 1.328126 2.960938 2.960938v9.0625c0 1.632812-1.328126 2.960938-2.960938 2.960938h-9.0625c-1.632812 0-2.960938-1.328126-2.960938-2.960938v-9.0625c0-1.632812 1.328126-2.960938 2.960938-2.960938zm0 0" fill="#d95951" fill-rule="evenodd"/><g clip-path="url(#a)"><path d="m5.65625 3.71875-1.9375 8.597656h1.574219l.914062-3.847656h4.300781l-4.027343 3.605469 1.050781 1.207031.539062-.277344c1.015626-.523437 1.441407-.214844 2.210938-.003906.75.210938 1.457031.433594 2.921875-.410156l-.292969-1.488282c-1.597656 1.132813-2.101562.121094-3.238281.082032l3.257813-2.757813.351562-1.46875h-6.820312l.4375-1.765625h4.472656l.304687-1.472656zm0 0" fill="#fff"/></g></svg>