<svg height="17pt" viewBox="0 0 17 17" width="17pt" xmlns="http://www.w3.org/2000/svg" xmlns:xlink="http://www.w3.org/1999/xlink"><clipPath id="a"><path d="m0 0h17v17h-17z"/></clipPath><clipPath id="b"><path d="m0 0h17v17h-17z"/></clipPath><path d="m3.96875 1.007812h9.0625c1.632812 0 2.960938 1.328126 2.960938 2.960938v9.0625c0 1.632812-1.328126 2.960938-2.960938 2.960938h-9.0625c-1.632812 0-2.960938-1.328126-2.960938-2.960938v-9.0625c0-1.632812 1.328126-2.960938 2.960938-2.960938zm0 0" fill="#81d547" fill-rule="evenodd"/><g clip-path="url(#a)"><path d="m8.507812 4.25c.933594.003906 1.878907.28125 2.613282.832031.519531.574219-.46875 1.1875-.914063.628907-1.339843-.777344-3.226562-.503907-4.238281.660156-.535156.578125-.835938 1.347656-.832031 2.121094h.882812c-.472656.679687-.941406 1.359374-1.414062 2.039062l-1.417969-2.039062h.886719c-.03125-1.847657 1.355469-3.605469 3.210937-4.082032.398438-.105468.808594-.164062 1.222656-.160156zm3.886719 2.210938c.472657.679687.945313 1.359374 1.417969 2.039062h-.886719c.027344 1.871094-1.394531 3.648438-3.28125 4.101562-1.277343.339844-2.71875.089844-3.765625-.691406-.535156-.582031.464844-1.191406.914063-.628906 1.296875.757812 3.117187.519531 4.140625-.5625.59375-.585938.933594-1.398438.929687-2.21875h-.882812zm0 0" fill="#fff"/></g><g clip-path="url(#b)"><path d="m15.074219 11.710938c0 1.757812-1.425781 3.1875-3.1875 3.1875-1.757813 0-3.1875-1.429688-3.1875-3.1875 0-1.761719 1.429687-3.1875 3.1875-3.1875 1.761719 0 3.1875 1.425781 3.1875 3.1875zm0 0" fill="#f34235"/></g><path d="m10.117188 10.515625h2.488281c.179687 0 .179687.167969.179687.167969v2.050781c0 .171875-.179687.171875-.179687.171875h-2.488281s-.179688 0-.179688-.171875v-2.050781s0-.167969.179688-.167969zm0 0" fill="#fff"/><path d="m13.921875 10.714844v1.792968l-1.195313-.9375zm0 0" fill="#fff"/></svg>