<svg height="17pt" viewBox="0 0 17 17" width="17pt" xmlns="http://www.w3.org/2000/svg" xmlns:xlink="http://www.w3.org/1999/xlink"><clipPath id="a"><path d="m0 0h17v17h-17z"/></clipPath><path d="m3.96875 1.007812h9.0625c1.632812 0 2.960938 1.328126 2.960938 2.960938v9.0625c0 1.632812-1.328126 2.960938-2.960938 2.960938h-9.0625c-1.632812 0-2.960938-1.328126-2.960938-2.960938v-9.0625c0-1.632812 1.328126-2.960938 2.960938-2.960938zm0 0" fill="#4f4f4f" fill-rule="evenodd"/><path d="m3.988281 4.101562h5.476563v2.117188h-4.109375v1.828125h2.285156v1.367187h-2.285156v3.195313h-1.367188zm0 0" fill="#ff2106"/><g clip-path="url(#a)"><path d="m11.0625 6.324219v.003906l-.40625.855469c-.320312-.003906-.636719.050781-.9375.15625l-.660156-.679688-1.386719 1.136719.539063.78125c-.078126.136719-.148438.28125-.203126.429687-.058593.152344-.101562.304688-.132812.460938l-.914062.234375.292968 1.765625.945313-.074219c.15625.277344.363281.523438.605469.730469l-.257813.914062 1.679687.628907.402344-.855469c.320313 0 .636719-.050781.9375-.15625l.664063.679688 1.382812-1.140626-.539062-.78125c.082031-.136718.152343-.277343.207031-.429687.054688-.148437.101562-.300781.128906-.460937l.917969-.230469-.296875-1.769531-.941406.078124c-.160156-.277343-.363282-.523437-.609375-.734374l.261719-.914063zm-.429688 2.191406c.824219 0 1.492188.667969 1.492188 1.492187 0 .824219-.667969 1.492188-1.492188 1.492188-.824218 0-1.492187-.667969-1.492187-1.492188 0-.824218.667969-1.492187 1.492187-1.492187zm0 0" fill="#fff"/></g></svg>