<svg height="17pt" viewBox="0 0 17 17" width="17pt" xmlns="http://www.w3.org/2000/svg"><path d="m3.96875 1.007812h9.0625c1.632812 0 2.960938 1.328126 2.960938 2.960938v9.0625c0 1.632812-1.328126 2.960938-2.960938 2.960938h-9.0625c-1.632812 0-2.960938-1.328126-2.960938-2.960938v-9.0625c0-1.632812 1.328126-2.960938 2.960938-2.960938zm0 0" fill="#e11966" fill-rule="evenodd"/><g fill="#fff"><path d="m3.71875 2.921875h1.59375v7.4375h-1.59375zm0 0"/><path d="m6.375 5.046875h1.59375v9.03125h-1.59375zm0 0"/><path d="m9.03125 5.046875h1.59375v9.03125h-1.59375zm0 0"/><path d="m11.6875 5.046875h1.59375v5.3125h-1.59375zm0 0"/></g></svg>