<svg height="17pt" viewBox="0 0 17 17" width="17pt" xmlns="http://www.w3.org/2000/svg" xmlns:xlink="http://www.w3.org/1999/xlink"><clipPath id="a"><path d="m0 0h17v17h-17z"/></clipPath><path d="m3.96875 1.007812h9.0625c1.632812 0 2.960938 1.328126 2.960938 2.960938v9.0625c0 1.632812-1.328126 2.960938-2.960938 2.960938h-9.0625c-1.632812 0-2.960938-1.328126-2.960938-2.960938v-9.0625c0-1.632812 1.328126-2.960938 2.960938-2.960938zm0 0" fill="#4f4f4f" fill-rule="evenodd"/><path d="m3.71875 3.71875v9.5625h9.5625v-9.5625zm1.4375 1.0625h6.6875l-1.59375 1.59375h-3.5zm-.375.378906 1.59375 1.59375v3.496094l-1.59375 1.59375zm7.4375 0v6.683594l-1.59375-1.59375v-3.496094zm-5.3125 1.746094h3.1875v3.1875h-3.1875zm-.15625 3.71875h3.5l1.59375 1.59375h-6.6875zm0 0" fill="#c4c4c4"/><g clip-path="url(#a)"><path d="m4.25 2.65625c-.878906 0-1.59375.714844-1.59375 1.59375s.714844 1.59375 1.59375 1.59375 1.59375-.714844 1.59375-1.59375-.714844-1.59375-1.59375-1.59375zm8.5 0c-.878906 0-1.59375.714844-1.59375 1.59375s.714844 1.59375 1.59375 1.59375 1.59375-.714844 1.59375-1.59375-.714844-1.59375-1.59375-1.59375zm-6.109375 3.1875c-.441406 0-.796875.355469-.796875.796875s.355469.796875.796875.796875.796875-.355469.796875-.796875-.355469-.796875-.796875-.796875zm3.71875 0c-.441406 0-.796875.355469-.796875.796875s.355469.796875.796875.796875.796875-.355469.796875-.796875-.355469-.796875-.796875-.796875zm-3.71875 3.71875c-.441406 0-.796875.355469-.796875.796875s.355469.796875.796875.796875.796875-.355469.796875-.796875-.355469-.796875-.796875-.796875zm3.71875 0c-.441406 0-.796875.355469-.796875.796875s.355469.796875.796875.796875.796875-.355469.796875-.796875-.355469-.796875-.796875-.796875zm-6.109375 1.59375c-.878906 0-1.59375.714844-1.59375 1.59375s.714844 1.59375 1.59375 1.59375 1.59375-.714844 1.59375-1.59375-.714844-1.59375-1.59375-1.59375zm8.5 0c-.878906 0-1.59375.714844-1.59375 1.59375s.714844 1.59375 1.59375 1.59375 1.59375-.714844 1.59375-1.59375-.714844-1.59375-1.59375-1.59375zm0 0" fill="#e8e8e8"/></g></svg>