<svg height="17pt" viewBox="0 0 17 17" width="17pt" xmlns="http://www.w3.org/2000/svg"><path d="m3.96875 1.007812h9.0625c1.632812 0 2.960938 1.328126 2.960938 2.960938v9.0625c0 1.632812-1.328126 2.960938-2.960938 2.960938h-9.0625c-1.632812 0-2.960938-1.328126-2.960938-2.960938v-9.0625c0-1.632812 1.328126-2.960938 2.960938-2.960938zm0 0" fill="#4f4f4f" fill-rule="evenodd"/><path d="m3.730469 4.78125.023437.21875c.050782.410156.101563.542969.238282.613281.070312.035157.140624.113281.15625.175781.03125.117188.105468.148438.105468.042969 0-.039062-.078125-.21875-.175781-.40625-.09375-.1875-.175781-.359375-.175781-.382812 0-.023438-.039063-.09375-.085938-.152344zm9.539062 0-.085937.109375c-.046875.058594-.085938.128906-.085938.152344-.003906.023437-.082031.195312-.179687.382812-.09375.1875-.171875.367188-.171875.40625 0 .105469.074218.074219.101562-.042969.015625-.0625.089844-.140624.160156-.175781.136719-.070312.1875-.203125.234376-.613281zm-9.988281.242188c-.027344 0-.03125.03125-.011719.074218.074219.175782.074219.273438.003907.273438-.039063 0-.070313.015625-.070313.035156 0 .066406.144531.234375.234375.269531.109375.046875.203125.054688.203125.023438 0-.011719-.019531-.058594-.042969-.097657-.023437-.042968-.0625-.160156-.089844-.261718-.046874-.183594-.140624-.316406-.226562-.316406zm10.4375 0c-.085938 0-.183594.132812-.230469.316406-.023437.101562-.0625.21875-.085937.261718-.023438.039063-.042969.085938-.042969.097657 0 .03125.09375.023437.203125-.023438.089844-.035156.234375-.203125.234375-.269531 0-.019531-.03125-.035156-.070313-.035156-.070312 0-.070312-.097656.003907-.273438.019531-.042968.011719-.074218-.011719-.074218zm-5.234375.105468c.015625.039063.003906.066406-.03125.066406-.144531 0-.203125.527344-.09375.851563.03125.089844.027344.089844-.023437 0-.089844-.144531-.230469-.28125-.285157-.28125-.03125 0-.070312.058594-.085937.128906-.015625.074219-.046875.132813-.070313.132813-.023437 0-.03125-.019532-.019531-.042969.015625-.023437.011719-.078125-.011719-.117187-.035156-.066407-.046875-.0625-.089843.019531-.039063.074219-.039063.128906.015624.253906.082032.199219.082032.234375-.003906.234375-.089844 0-.054687.105469.042969.125.089844.015625.246094-.109375.246094-.195312 0-.027344.023437-.066407.046875-.082032.070312-.042968.144531.046875.101562.117188-.019531.03125-.039062.070312-.039062.085937s-.054688.074219-.121094.125c-.15625.125-.152344.320313.007812.34375.058594.007813.089844-.003906.074219-.027343-.015625-.027344.019531-.027344.078125.003906.058594.023437.125.101562.148438.167968.046875 0 .089844-.003906.128906-.015624.039062.011718.082031.015624.125.015624.027344-.066406.09375-.144531.152344-.167968.058594-.03125.089844-.03125.074218-.003906-.015624.023437.019532.035156.078126.027343.160156-.023437.164062-.21875.007812-.34375-.066406-.050781-.125-.109375-.125-.125s-.015625-.054687-.035156-.085937c-.046875-.070313.03125-.160156.097656-.117188.027344.015625.050781.054688.050781.082032 0 .085937.15625.210937.242188.195312.101562-.019531.136719-.125.046875-.125s-.089844-.035156-.003906-.234375c.050781-.125.054687-.179687.015624-.253906-.042968-.082031-.054687-.085938-.089843-.019531-.023438.039062-.03125.09375-.015625.117187s.007812.042969-.015625.042969c-.023438 0-.054688-.058594-.070313-.132813-.015625-.070312-.054687-.128906-.085937-.128906-.058594 0-.199219.136719-.285157.28125-.054687.089844-.054687.089844-.023437 0 .109375-.324219.050781-.851563-.09375-.851563-.035156 0-.046875-.027343-.035156-.066406-.003907.007813-.007813.011719-.011719.019532-.003906-.007813-.007812-.011719-.015625-.019532zm-5.78125.125c-.082031.027344-.050781.574219.039063.714844.066406.101562.066406.113281.003906.085938-.085938-.03125-.089844.027343-.007813.183593.09375.175781.28125.332031.585938.484375.148437.074219.273437.144532.273437.152344 0 .046875-.417968-.074219-.515625-.148438-.171875-.136718-.253906-.113281-.136719.039063.050782.070313.082032.160156.070313.195313-.03125.070312.089844.191406.320313.328124.191406.113282.230468.117188.195312.003907s-.015625-.109375.113281.023437c.085938.09375.089844.109375.019531.082032-.0625-.023438-.070312-.015626-.046874.027343.035156.054688-.039063.046875-.296876-.027343-.070312-.023438-.078124-.007813-.050781.078124.070313.226563.1875.328126.476563.410157.15625.046875.273437.097656.261718.117187-.027343.042969-.324218-.003906-.398437-.066406-.082031-.0625-.074219.097656.007813.214844.074218.105468.371093.253906.726562.367187l.242188.078125-.222657-.019531c-.117187-.011719-.269531-.027344-.332031-.039063-.097656-.015624-.113281-.003906-.09375.070313.03125.125.253906.296875.417969.320313.078125.011718.242187.039062.359375.058593l.222656.039063-.199219.054687c-.105469.03125-.273437.046875-.363281.035157-.164062-.023438-.167969-.023438-.105469.070312.089844.132812.300781.25.542969.292969l.210938.039062-.253907-.015625c-.136719-.011718-.25-.003906-.25.015625s.050781.085938.113281.152344c.125.121094.175782.128906.65625.121094l.304688-.007813-.261719.113282c-.320312.136718-.375.183593-.285156.238281.050781.03125.035156.066406-.09375.203125-.089844.09375-.234375.265625-.324219.386718-.410156.542969-.628906.71875-.886718.71875-.226563 0-.25.074219-.035157.113282.214844.039062.507813-.011719.742188-.128906.289062-.144532.269531-.070313-.039063.171874-.085937.066407-.085937.066407.019532.039063.0625-.015625.207031-.082031.320312-.152344.21875-.132812.253906-.136719.136719-.019531-.097657.097656-.042969.132812.105469.066406.066406-.035156.152343-.054687.195312-.050781.039062.007813.167969-.074219.28125-.179687.113281-.105469.183594-.144532.15625-.09375-.027344.050781-.078125.113281-.117188.144531-.035156.03125-.066406.074219-.066406.097656 0 .082031.105469.027344.328125-.183594.136719-.128906.246094-.203125.261719-.175781s.003906.046875-.023438.046875c-.027343 0-.039062.03125-.023437.066406.015625.039063 0 .0625-.039063.0625-.035156 0-.066406.019531-.066406.042969 0 .089844.269532-.054688.332032-.175781.085937-.164063.113281-.160157.078124.011719-.019531.097656-.011718.128906.023438.105468.027344-.015625.050781-.0625.050781-.097656s.03125-.058594.074219-.050781c.050781.007812.113281-.058594.199219-.207031.09375-.171876.121093-.195313.121093-.113282 0 .082032.019532.097656.085938.082032.070312-.019532.0625.007812-.058594.15625-.160156.191406-.25.421874-.164062.421874.027344 0 .050781-.015624.050781-.039062 0-.019531.0625-.0625.140625-.085938l.144531-.050781-.144531.117188c-.199219.152343-.40625.523437-.402344.714843 0 .136719.007813.144532.054688.070313.144531-.230469.332031-.386719.648437-.542969l.347657-.171875v.125c0 .070313.019531.125.042968.125.023438 0 .042969-.039062.042969-.085937 0-.050782.039063-.167969.089844-.257813.105469-.210937.695312-.675781.863281-.699219.160156.011719.757812.488282.863281.699219.050781.089844.089844.207031.089844.257813 0 .046875.019531.089844.042969.089844.023437 0 .042968-.058594.042968-.128907v-.125l.347657.171875c.316406.15625.503906.3125.648437.542969.046875.074219.050782.066406.054688-.070313.003906-.191406-.203125-.558593-.402344-.714843l-.144531-.117188.144531.050781c.078125.027344.140625.066407.140625.085938 0 .023438.023437.039062.050781.039062.082032 0-.003906-.230468-.164062-.421874-.121094-.148438-.132813-.175782-.058594-.15625.066406.015624.085938 0 .085938-.082032 0-.082031.027343-.058594.121093.117188.082031.148437.148438.210937.199219.203125.042969-.007813.074219.015625.074219.050781s.023437.082031.050781.097656c.035156.023438.042969-.007812.023438-.105468-.035157-.171876-.007813-.175782.078124-.011719.0625.121093.332032.265625.332032.175781 0-.023438-.03125-.042969-.066406-.042969-.039063 0-.054688-.023437-.039063-.0625.015625-.035156.003906-.066406-.023437-.066406-.03125 0-.039063-.019531-.023438-.046875s.125.046875.261719.175781c.222656.210938.328125.269531.328125.183594 0-.023437-.03125-.066406-.066406-.097656-.039063-.03125-.09375-.09375-.117188-.144531-.027344-.050782.039062-.007813.15625.097656.113281.101562.238281.183594.28125.175781.042969-.003906.128906.015625.195312.050781.144532.066406.203126.03125.105469-.066406-.117187-.117188-.082031-.113281.136719.019531.113281.070313.257812.136719.320312.152344.105469.027344.105469.027344.019532-.039063-.308594-.242187-.328125-.316406-.039063-.171874.234375.117187.527344.167968.742188.128906.214843-.039063.191406-.113282-.035157-.113282-.261718 0-.476562-.175781-.886718-.71875-.089844-.121093-.234375-.292968-.324219-.386718-.128906-.132813-.148437-.171875-.09375-.203125.089844-.054688.035156-.101563-.285156-.238281l-.261719-.113282.304688.007813c.480468.007812.53125 0 .652343-.121094.066407-.066406.117188-.132813.117188-.152344s-.113281-.027343-.25-.015625l-.253907.015625.210938-.039062c.242188-.042969.453125-.160157.542969-.292969.0625-.09375.058593-.09375-.105469-.070312-.09375.011718-.257812-.003907-.363281-.035157l-.199219-.054687.222656-.039063c.121094-.019531.28125-.046875.359375-.058593.164063-.023438.386719-.195313.417969-.324219.019531-.070313.003906-.082031-.09375-.066407-.0625.011719-.214844.027344-.332031.039063l-.222657.019531.242188-.078125c.355469-.113281.652344-.261719.726562-.367187.082032-.117188.089844-.277344.007813-.214844-.074219.0625-.371094.109375-.398437.066406-.011719-.019531.105468-.070312.261718-.117187.289063-.082031.40625-.183594.476563-.410157.027343-.085937.019531-.101562-.050781-.082031-.257813.078125-.332032.085938-.296876.027344.023438-.042969.015626-.046875-.046874-.023437-.070313.027343-.066407.011718.019531-.082032.128906-.132812.148437-.136718.113281-.023437s.003906.109375.195312-.003907c.230469-.136718.351563-.257812.320313-.332031-.011719-.035156.019531-.121093.070313-.191406.117187-.152344.035156-.175781-.136719-.039063-.097657.074219-.515625.195313-.515625.148438 0-.011719.125-.078125.273437-.152344.304688-.152344.492188-.308594.585938-.484375.082031-.15625.078125-.214843-.007813-.183593-.0625.027343-.0625.015624.003906-.085938.089844-.140625.121094-.6875.039063-.714844-.03125-.011718-.066406.019532-.078125.066406-.015625.050782-.113281.171876-.214844.269532-.101562.101562-.152344.175781-.113281.160156.121094-.039062.136719.023438.03125.132812-.109375.113282-.203125.128907-.238281.035157-.035156-.085938-.058594-.082031-.421875.023437l-.300781.089844-.140626.289062c-.117187.242188-.183593.320313-.445312.515626-.171875.125-.347656.269531-.394531.320312-.105469.117188-.066407.289062.089843.371094.109376.058594.105469.0625-.292968.203125-.566406.203125-.769532.1875-.734375-.0625.011719-.085938.105469-.148438.375-.246094.175781-.0625.183593-.128906.011719-.128906-.210938 0-.195313-.074219.042968-.191407.472656-.238281 1.050782-.734374 1.164063-1.003906.054687-.128906.039062-.378906-.019531-.375-.015626 0-.074219.101563-.128907.21875-.160156.34375-.769531.769532-1.324219.929688-.332031.097656-.675781.304687-.820312.496094-.234375.300781-.386719.441406-.519531.472656l-.128907.027344.148438-.101563c.199219-.132813.230469-.222656.0625-.183594l-.125.027344.109375-.078125c.171875-.117188.351563-.292969.351563-.339844 0-.019531-.039063-.027344-.085938-.015625-.074219.019531-.0625-.011719.058594-.160156.160156-.191406.25-.421875.164062-.421875-.027344 0-.050781.019531-.050781.039062 0 .023438-.0625.0625-.140625.089844l-.144531.046875.144531-.113281c.199219-.15625.40625-.527344.402344-.71875 0-.132812-.007813-.140625-.054688-.066406-.144531.230468-.332031.386718-.648437.542968l-.347657.171876v-.128907c0-.066406-.019531-.125-.042968-.125-.023438 0-.042969.039063-.042969.089844 0 .179687-.183594.4375-.464844.660156-.328125.253907-.398437.363281-.441406.695313l-.046875.066406-.046875-.066406c-.042969-.332032-.113281-.441406-.441406-.695313-.28125-.222656-.464844-.480469-.464844-.660156 0-.046875-.019531-.089844-.042969-.089844-.023437 0-.042968.058594-.042968.128907v.125l-.347657-.171876c-.316406-.15625-.503906-.3125-.648437-.542968-.046875-.074219-.050782-.066406-.054688.066406-.003906.191406.203125.5625.402344.71875l.144531.113281-.144531-.046875c-.078125-.027344-.140625-.066406-.140625-.089844 0-.019531-.023437-.039062-.050781-.039062-.082032 0 .003906.230469.164062.421875.121094.148437.132813.179687.0625.160156-.050781-.011719-.089844-.003906-.089844.019531 0 .042969.179688.21875.351563.335938l.109375.078125-.125-.027344c-.167969-.039062-.136719.050781.0625.183594l.152344.101563-.132813-.027344c-.132812-.03125-.285156-.167969-.515625-.472656-.148437-.191407-.492187-.398438-.824218-.496094-.554688-.160156-1.160157-.585938-1.324219-.929688-.054688-.117187-.113281-.21875-.128907-.21875-.058593-.003906-.070312.246094-.019531.375.113281.269532.691407.765625 1.164063 1.003906.238281.117188.253906.191407.042968.191407-.171874 0-.164062.066406.015626.128906.269531.097656.359374.160156.371093.246094.035157.25-.167969.265625-.734375.0625-.394531-.140625-.402344-.144531-.292968-.203125.15625-.082032.195312-.253906.089843-.371094-.046875-.050781-.222656-.195312-.394531-.320312-.261719-.195313-.328125-.273438-.445312-.515626l-.140626-.289062-.300781-.089844c-.363281-.105468-.386719-.109375-.421875-.023437-.035156.09375-.128906.078125-.238281-.035157-.101563-.109374-.089844-.171874.03125-.132812.039063.015625-.011719-.058594-.113281-.160156-.101563-.097656-.199219-.21875-.210938-.269532-.015625-.046874-.050781-.078124-.078125-.066406zm.863281.976563c.023438-.007813.074219.003906.152344.039062.082031.03125.175781.121094.21875.203125.042969.078125.140625.207032.214844.285156.078125.078126.125.144532.109375.140626-.066407-.003907-.300781-.148438-.421875-.261719-.074219-.070313-.183594-.144531-.242188-.167969-.078125-.03125-.085937-.042969-.035156-.046875.089844-.003906.101562-.050781.027344-.125-.042969-.039063-.046875-.0625-.023438-.066406zm9.867188 0c .023437.003906.019531.027343-.023438.070312-.074218.070313-.0625.117188.027344.121094.050781.003906.042969.019531-.035156.046875-.058594.023438-.167969.097656-.242188.167969-.121094.113281-.355468.257812-.421875.261719-.015625.003906.03125-.0625.109375-.140626.074219-.078124.171875-.207031.214844-.285156.039062-.082031.136719-.171875.21875-.203125.078125-.035156.128906-.046875.152344-.039062zm-5.007813.039062c.023438-.015625.03125 0 .019531.039063-.03125.078125-.0625.089844-.0625.027344 0-.023438.019532-.054688.042969-.066407zm.125 0c .003907-.007812.011719-.007812.023438 0 .023437.011719.042969.042969.042969.066407 0 .0625-.03125.050781-.0625-.027344-.003907-.019532-.007813-.03125-.003907-.039063zm0 0" fill="#b4b4b4"/></svg>