<svg height="17pt" viewBox="0 0 17 17" width="17pt" xmlns="http://www.w3.org/2000/svg" xmlns:xlink="http://www.w3.org/1999/xlink"><clipPath id="a"><path d="m0 0h17v17h-17z"/></clipPath><clipPath id="b"><path d="m0 0h17v17h-17z"/></clipPath><path d="m3.96875 1.007812h9.0625c1.632812 0 2.960938 1.328126 2.960938 2.960938v9.0625c0 1.632812-1.328126 2.960938-2.960938 2.960938h-9.0625c-1.632812 0-2.960938-1.328126-2.960938-2.960938v-9.0625c0-1.632812 1.328126-2.960938 2.960938-2.960938zm0 0" fill="#78ac3d" fill-rule="evenodd"/><path d="m15.389706 9.867647c-3.110294.316177-5.566177 2.933824-5.566177 6.080882 0 3.360295 2.801471 6.125 6.213236 6.125.507353 0 1-.102941 1.477941-.220588.044118-.095588.125-.272059.088235-.404412-.029412-.125-.132353-.257353-.25-.323529-.419117.102941-.860294.198529-1.316176.198529-3.022059 0-5.455883-2.404411-5.455883-5.375 0-2.830882 2.213236-5.139705 5.036765-5.345588.110294-.117647.147059-.242647.132353-.404412-.022059-.169117-.073529-.272058-.272059-.316176zm0 0" fill="#ffee57" stroke="#ffee57" stroke-width=".376" transform="scale(.53125)"/><g clip-path="url(#a)"><path d="m7.46875 3.46875c-.105469.011719-.199219.097656-.21875.203125l-.210938 1.078125c-.382812.148438-.742187.355469-1.054687.605469l-1.042969-.355469c-.109375-.035156-.242187.015625-.300781.113281l-1.007813 1.742188c-.054687.101562-.03125.242187.054688.316406l.835938.730469c-.03125.195312-.046876.394531-.046876.597656s.015626.402344.046876.597656l-.835938.730469c-.085938.074219-.109375.214844-.054688.316406l1.007813 1.742188c.058594.101562.191406.148437.300781.113281l1.042969-.355469c.3125.25.671875.457031 1.054687.605469l.210938 1.078125c.023438.109375.128906.203125.242188.203125h2.015624c.113282 0 .21875-.09375.242188-.203125l.210938-1.078125c.382812-.148438.742187-.355469 1.054687-.605469l1.046875.355469c.109375.035156.238281-.011719.296875-.113281l1.007813-1.742188c.054687-.101562.03125-.242187-.054688-.316406l-.835938-.730469c.03125-.195312.046876-.394531.046876-.597656s-.015626-.402344-.046876-.597656l.835938-.730469c.085938-.074219.109375-.214844.054688-.316406l-1.007813-1.742188c-.058594-.097656-.1875-.148437-.296875-.113281l-1.046875.355469c-.3125-.25-.671875-.457031-1.054687-.605469l-.210938-1.078125c-.023438-.109375-.128906-.199219-.242188-.203125h-2.015624c-.007813 0-.015626 0-.023438 0zm1.03125 1.796875c1.785156 0 3.234375 1.449219 3.234375 3.234375s-1.449219 3.234375-3.234375 3.234375-3.234375-1.449219-3.234375-3.234375 1.449219-3.234375 3.234375-3.234375zm0 .378906c-1.578125 0-2.851562 1.277344-2.851562 2.855469s1.273437 2.855469 2.851562 2.855469 2.855469-1.277344 2.855469-2.855469-1.277344-2.855469-2.855469-2.855469zm0 0" fill="#fff"/></g><g clip-path="url(#b)"><path d="m8.5 6.34375c1.191406 0 2.15625.964844 2.15625 2.15625s-.964844 2.15625-2.15625 2.15625-2.15625-.964844-2.15625-2.15625.964844-2.15625 2.15625-2.15625zm0 0" fill="#78ac3d"/></g></svg>