<svg height="17pt" viewBox="0 0 17 17" width="17pt" xmlns="http://www.w3.org/2000/svg"><path d="m1.007812 6.003906v7.027344c0 1.640625 1.320313 2.960938 2.960938 2.960938h9.058594c1.644531 0 2.964844-1.320313 2.964844-2.960938v-7.027344zm0 0" fill="#5b5b5b" fill-rule="evenodd"/><path d="m1.007812 6.003906h14.984376v-2.03125c0-1.644531-1.320313-2.964844-2.964844-2.964844h-9.058594c-1.640625 0-2.960938 1.320313-2.960938 2.964844zm0 0" fill="#63a535" fill-rule="evenodd"/><path d="m8.5 10.996094c0 1.761718-1.425781 3.1875-3.1875 3.1875s-3.1875-1.425782-3.1875-3.1875c0-1.761719 1.425781-3.1875 3.1875-3.1875s3.1875 1.425781 3.1875 3.1875zm0 0" fill="#cccccf" fill-opacity=".941176"/><path d="m6.90625 10.996094c0 .878906-.714844 1.59375-1.59375 1.59375s-1.59375-.714844-1.59375-1.59375.714844-1.59375 1.59375-1.59375 1.59375.714844 1.59375 1.59375zm0 0" fill="#5b5b5b"/><path d="m14.875 10.996094c0 1.761718-1.425781 3.1875-3.1875 3.1875s-3.1875-1.425782-3.1875-3.1875c0-1.761719 1.425781-3.1875 3.1875-3.1875s3.1875 1.425781 3.1875 3.1875zm0 0" fill="#cccccf" fill-opacity=".941176"/><path d="m13.28125 10.996094c0 .878906-.714844 1.59375-1.59375 1.59375s-1.59375-.714844-1.59375-1.59375.714844-1.59375 1.59375-1.59375 1.59375.714844 1.59375 1.59375zm0 0" fill="#5b5b5b"/><path d="m4.78125 3.566406c0 .441406-.355469.796875-.796875.796875s-.796875-.355469-.796875-.796875.355469-.796875.796875-.796875.796875.355469.796875.796875zm0 0" fill="#5b5b5b"/><path d="m12.21875 2.769531h1.59375v1.59375h-1.59375zm0 0" fill="#983a0e"/><path d="m12.75 3.300781h.53125v.53125h-.53125zm0 0" fill="#f7bf32"/><path d="m6.90625 3.566406c0 .441406-.355469.796875-.796875.796875s-.796875-.355469-.796875-.796875.355469-.796875.796875-.796875.796875.355469.796875.796875zm0 0" fill="#5b5b5b"/><path d="m9.03125 3.566406c0 .441406-.355469.796875-.796875.796875s-.796875-.355469-.796875-.796875.355469-.796875.796875-.796875.796875.355469.796875.796875zm0 0" fill="#5b5b5b"/></svg>