<svg height="17pt" viewBox="0 0 17 17" width="17pt" xmlns="http://www.w3.org/2000/svg"><path d="m3.96875 1.007812h9.0625c1.632812 0 2.960938 1.328126 2.960938 2.960938v9.0625c0 1.632812-1.328126 2.960938-2.960938 2.960938h-9.0625c-1.632812 0-2.960938-1.328126-2.960938-2.960938v-9.0625c0-1.632812 1.328126-2.960938 2.960938-2.960938zm0 0" fill="#fecd38" fill-rule="evenodd"/><path d="m14.875 8.5c0 3.519531-2.855469 6.375-6.375 6.375s-6.375-2.855469-6.375-6.375 2.855469-6.375 6.375-6.375 6.375 2.855469 6.375 6.375zm0 0" fill="#31b03b"/><g fill="#fff"><path d="m3.1875 5.578125h1.0625v5.3125h-1.0625zm0 0"/><path d="m4.78125 5.578125h1.0625v4.25h-1.0625zm0 0"/><path d="m13.8125 5.578125h-1.0625v5.3125h1.0625zm0 0"/><path d="m12.21875 5.578125h-1.0625v4.25h1.0625zm0 0"/><path d="m8.5 5.578125c-1.171875 0-2.125.953125-2.125 2.125s.953125 2.125 2.125 2.125 2.125-.953125 2.125-2.125-.953125-2.125-2.125-2.125zm0 1.0625c.585938 0 1.0625.476563 1.0625 1.0625s-.476562 1.0625-1.0625 1.0625-1.0625-.476563-1.0625-1.0625.476562-1.0625 1.0625-1.0625zm0 0"/><path d="m3.1875 6.800781h2.125v1.0625h-2.125zm0 0"/><path d="m12.21875 5.578125 1.441406 2.4375.054688.574219-.1875.289062.175781 1.320313-.089844-.234375-.582031-1.011719-1.664062-2.878906zm0 0"/><path d="m6.375 10.359375h4.25v1.0625h-4.25zm0 0"/></g></svg>