<svg height="17pt" viewBox="0 0 17 17" width="17pt" xmlns="http://www.w3.org/2000/svg"><path d="m3.96875 1.007812h9.0625c1.632812 0 2.960938 1.328126 2.960938 2.960938v9.0625c0 1.632812-1.328126 2.960938-2.960938 2.960938h-9.0625c-1.632812 0-2.960938-1.328126-2.960938-2.960938v-9.0625c0-1.632812 1.328126-2.960938 2.960938-2.960938zm0 0" fill="#f2f2f2" fill-rule="evenodd"/><path d="m11.269531 5.730469v1.382812c0 .769531-.617187 1.386719-1.382812 1.386719h-2.773438s-1.382812 0-1.382812 1.386719v2.425781c0 .957031 1.078125 1.730469 2.421875 1.730469h.695312c1.34375 0 2.421875-.773438 2.421875-1.730469v-1.042969h1.042969c.957031 0 1.730469-1.078125 1.730469-2.421875v-.695312c0-1.34375-.773438-2.421875-1.730469-2.421875zm0 0" fill="#ffc851"/><path d="m9.886719 12.195312c.253906 0 .460937.207032.460937.460938 0 .257812-.207031.460938-.460937.460938-.257813 0-.464844-.203126-.464844-.460938 0-.253906.207031-.460938.464844-.460938zm0 0" fill="#fff"/><path d="m8.152344 2.957031c-1.34375 0-2.421875.773438-2.421875 1.730469v1.042969h-1.042969c-.957031 0-1.730469 1.078125-1.730469 2.421875v.695312c0 1.34375.773438 2.421875 1.730469 2.421875h1.042969v-1.382812c0-.769531.617187-1.386719 1.382812-1.386719h2.773438s1.382812 0 1.382812-1.386719v-2.425781c0-.957031-1.078125-1.730469-2.421875-1.730469zm0 0" fill="#4795d1"/><path d="m7.113281 3.882812c.257813 0 .464844.203126.464844.460938 0 .253906-.207031.460938-.464844.460938-.253906 0-.460937-.207032-.460937-.460938 0-.257812.207031-.460938.460937-.460938zm0 0" fill="#fff"/></svg>