<svg height="17pt" viewBox="0 0 17 17" width="17pt" xmlns="http://www.w3.org/2000/svg"><path d="m3.96875 1.007812h9.0625c1.632812 0 2.960938 1.328126 2.960938 2.960938v9.0625c0 1.632812-1.328126 2.960938-2.960938 2.960938h-9.0625c-1.632812 0-2.960938-1.328126-2.960938-2.960938v-9.0625c0-1.632812 1.328126-2.960938 2.960938-2.960938zm0 0" fill="#0286c2" fill-rule="evenodd"/><path d="m13.558594 8.5c0-2.792969-2.265625-5.058594-5.058594-5.058594-2.796875 0-5.0625 2.265625-5.0625 5.058594s2.265625 5.058594 5.0625 5.058594c2.792969 0 5.058594-2.265625 5.058594-5.058594zm0 0" fill="#ccc"/><path d="m8.023438 5.609375c-.738282-.019531-1.449219.132813-2.101563.285156-.964844.226563-2.554687.929688-2.554687.929688-.382813.167969-.386719.710937-.007813.886719.546875.277343 1.371094.394531 1.488281 1.023437.167969.929687-.804687 1.78125-1.324218 2.636719-.308594.492187.351562 1.015625.753906.597656 0 0 2.5-2.324219 5.765625-2.410156.609375-.015625 1.417969.253906 2.050781.546875.632812.289062 1.082031.511719 1.082031.511719.398438.261718.894531-.265626.707031-.703126-.9375-2.1875-2.875-3.988281-5.539062-4.28125h-.003906c-.105469-.011718-.210938-.019531-.316406-.023437zm0 0" fill="#f2f2f2"/></svg>