<svg height="17pt" viewBox="0 0 17 17" width="17pt" xmlns="http://www.w3.org/2000/svg"><path d="m3.96875 1.007812h9.0625c1.632812 0 2.960938 1.328126 2.960938 2.960938v9.0625c0 1.632812-1.328126 2.960938-2.960938 2.960938h-9.0625c-1.632812 0-2.960938-1.328126-2.960938-2.960938v-9.0625c0-1.632812 1.328126-2.960938 2.960938-2.960938zm0 0" fill="#e9a84a" fill-rule="evenodd"/><path d="m8.261719 2.3125c-.378907-.007812-.710938.25-.792969.621094 0 0-.152344.667968-.320312 1.65625-.003907 0-.003907 0-.007813 0 .003906 0 .003906.007812.003906.007812v.007813c-.007812-.003907-.03125-.015625-.074219-.042969.015626.011719.050782.015625.070313.027344-.011719-.03125-.09375-.125-.136719-.238282-.066406-.179687-.105468-.347656-.105468-.347656-.082032-.378906-.425782-.644531-.8125-.628906-.238282.007812-.460938.121094-.605469.3125s-.195313.4375-.136719.667969c0 0 .058594.261719.171875.5625.109375.296875.191406.679687.714844 1.003906.21875.132813.445312.226563.679687.300781-.058594.511719-.113281 1.054688-.144531 1.613282-.003906.0625 0 .128906-.003906.195312-.417969.070312-.839844.148438-1.226563.289062-.96875.355469-1.839844.960938-2.269531 1.910157-.203125.453125-.148437.964843.015625 1.351562s.417969.695313.710938.960938c.585937.527343 1.304687.910156 2.105468.933593.535156.015626 1.019532-.15625 1.484375-.386718.332031.585937.757813 1.089844 1.398438 1.378906 1.136719.515625 2.355469.050781 3.320312-.613281.480469-.332031.902344-.742188 1.199219-1.238281.296875-.492188.472656-1.121094.292969-1.75-.285157-.984376-1.050781-1.679688-1.945313-2.148438.09375-.148438.265625-.40625.265625-.40625.160157-.246094.175781-.554688.035157-.8125-.136719-.257812-.402344-.417969-.695313-.421875-.289063-.003906-.558594.15625-.703125.410156 0 0-.371094.492188-.476562.648438-.507813-.121094-1.035157-.199219-1.566407-.230469-.117187-.003906-.234375.015625-.351562.011719.03125-.53125.082031-1.046875.140625-1.539063.277344-.011718.550781-.039062.8125-.0625.976562-.101562 1.78125-.300781 1.78125-.300781.285156-.058594.511718-.269531.59375-.546875.085937-.277344.011718-.578125-.191406-.785156-.199219-.210938-.5-.292969-.78125-.214844 0 0-.714844.171875-1.5625.261719-.136719.011719-.277344.015625-.414063.019531.148437-.871094.285156-1.449219.285156-1.449219.058594-.234375.007813-.484375-.140625-.675781-.144531-.195312-.375-.308594-.617187-.3125zm.351562 7.1875c.207031.011719.402344.058594.601563.085938-.082032.105468-.0625.105468-.152344.210937-.195312.226563-.417969.390625-.628906.605469-.035156-.296875-.074219-.578125-.089844-.894532.09375 0 .179688-.015624.269531-.007812zm-1.863281.164062c.027344.667969.101562 1.320313.242188 1.9375-.332032.171876-.636719.289063-.851563.28125-.195313-.003906-.75-.226562-1.078125-.523437-.164062-.148437-.277344-.308594-.316406-.402344-.039063-.089843-.023438-.074219-.023438-.074219.191406-.425781.652344-.804687 1.359375-1.0625.199219-.074218.441407-.105468.667969-.15625zm4.132812.371094c.058594.027344.136719.042969.191407.070313.664062.335937 1.058593.757812 1.1875 1.203125.027343.101562.019531.25-.125.488281s-.417969.519531-.746094.746094c-.65625.457031-1.503906.585937-1.753906.472656-.304688-.136719-.542969-.453125-.746094-.859375.488281-.417969.980469-.851562 1.382813-1.324219.25-.289062.402343-.523437.609374-.796875zm0 0" fill-opacity=".4" fill-rule="evenodd"/></svg>