<svg height="17pt" viewBox="0 0 17 17" width="17pt" xmlns="http://www.w3.org/2000/svg"><path d="m3.96875 1.007812h9.0625c1.632812 0 2.960938 1.328126 2.960938 2.960938v9.0625c0 1.632812-1.328126 2.960938-2.960938 2.960938h-9.0625c-1.632812 0-2.960938-1.328126-2.960938-2.960938v-9.0625c0-1.632812 1.328126-2.960938 2.960938-2.960938zm0 0" fill="#5db43e" fill-rule="evenodd"/><g fill="#fff"><path d="m7.96875 3.453125v.53125h.53125v3.71875h.53125v-4.25zm0 0"/><path d="m5.3125 8.234375v.53125h6.375v-.53125zm0 0"/><path d="m7.4375 9.296875v2.65625h1.59375v1.59375h.53125v-4.25h-.53125v2.125h-1.0625v-2.125zm0 0"/></g></svg>