<svg height="17pt" viewBox="0 0 17 17" width="17pt" xmlns="http://www.w3.org/2000/svg" xmlns:xlink="http://www.w3.org/1999/xlink"><linearGradient id="a" gradientTransform="matrix(1.396609 0 0 1.441117 -85.083656 -154.814431)" gradientUnits="userSpaceOnUse" x1="67.894455" x2="67.854446" y1="108.691" y2="113.1134"><stop offset="0" stop-color="#f9f9f9"/><stop offset="1" stop-color="#999"/></linearGradient><path d="m10.808594 2.441406-1.574219 1.574219 2.386719 2.378906-2.371094 2.382813 1.574219 1.574218 3.949219-3.960937-1.574219-1.578125-.003907.003906zm-5.421875.070313c-.429688 0-.78125.347656-.78125.78125 0 .433593.351562.785156.78125.785156.433593 0 .785156-.351563.785156-.785156 0-.433594-.351563-.78125-.785156-.78125zm-1.949219 4.625c-.667969 0-1.210938.539062-1.210938 1.210937 0 .667969.542969 1.210938 1.210938 1.210938s1.210938-.542969 1.210938-1.210938c0-.671875-.542969-1.210937-1.210938-1.210937zm3.515625 4.667969c-.871094 0-1.578125.707031-1.578125 1.582031 0 .871093.707031 1.578125 1.578125 1.578125.875 0 1.582031-.707032 1.582031-1.578125 0-.875-.707031-1.582031-1.582031-1.582031zm0 0" fill="#fff"/><path d="m3.871094.00390625c-4.394532-.18750025-4.972656 5.30859375-2.136719 5.30078175.359375 0 .851563-.113282 1.578125-.820313 3.855469-5.59375 7.8125 1.898437 9.3125.488281.90625-1.015625 1.855469-.222656 2.363281.058594 1.113281.34375 1.945313.023438 2.011719-1.714844.097656-1.765625-1.003906-3.3710935-3.148438-3.3046872-3.140624.0742187-6.898437-.0273438-9.980468-.00781255zm0 0" fill="url(#a)"/></svg>