<svg height="17pt" viewBox="0 0 17 17" width="17pt" xmlns="http://www.w3.org/2000/svg"><path d="m3.96875 1.007812h9.0625c1.632812 0 2.960938 1.328126 2.960938 2.960938v9.0625c0 1.632812-1.328126 2.960938-2.960938 2.960938h-9.0625c-1.632812 0-2.960938-1.328126-2.960938-2.960938v-9.0625c0-1.632812 1.328126-2.960938 2.960938-2.960938zm0 0" fill="#4f4f4f" fill-rule="evenodd"/><path d="m8.300781 3.722656.015625 9.953125h.78125v-9.953125zm0 0" fill="#f38577"/><path d="m6.707031 5.3125v.796875h.796875v-.796875zm-.796875 1.195312v.796876h1.59375v-.796876zm-1.59375 1.195313v.796875h3.1875v-.796875zm-.792968 1.195313v.796874h3.980468v-.796874zm.792968 1.195312v.796875h3.1875v-.796875zm1.59375 1.195312v.796876h1.59375v-.796876zm0 0" fill="#83b9f5" fill-rule="evenodd"/><path d="m10.292969 3.324219h-3.1875l.796875 1.191406.796875 1.195313.796875-1.195313zm0 0" fill="#d85656"/><path d="m10.203125 6.390625c-.144531.007813-.304687.136719-.304687.277344l-.003907 4.21875c0 .191406.28125.359375.441407.246093l3.019531-2.117187c.164062-.113281.164062-.375 0-.488281l-3.015625-2.101563c-.039063-.027343-.085938-.039062-.136719-.035156zm0 0" fill="#527eb2"/></svg>