<svg height="17pt" viewBox="0 0 17 17" width="17pt" xmlns="http://www.w3.org/2000/svg"><path d="m3.96875 1.007812h9.0625c1.632812 0 2.960938 1.328126 2.960938 2.960938v9.0625c0 1.632812-1.328126 2.960938-2.960938 2.960938h-9.0625c-1.632812 0-2.960938-1.328126-2.960938-2.960938v-9.0625c0-1.632812 1.328126-2.960938 2.960938-2.960938zm0 0" fill="#4ea71e" fill-rule="evenodd"/><path d="m8.5 4.058594c-1.339844 0-2.421875 1.082031-2.421875 2.421875 0 1.339843 1.082031 2.421875 2.421875 2.421875s2.421875-1.082032 2.421875-2.421875c0-1.339844-1.082031-2.421875-2.421875-2.421875zm0 .402344c.667969 0 1.210938.542968 1.210938 1.210937 0 .671875-.542969 1.210937-1.210938 1.210937s-1.210938-.539062-1.210938-1.210937c0-.667969.542969-1.210937 1.210938-1.210937zm0 0" fill="#fff"/><path d="m7.289062 8.097656v4.011719l1.210938.832031 1.210938-.832031v-.351563l.40625-.402343-.40625-.40625v-.429688l.808593-.605469-.808593-.605468v-1.210938zm.402344 1.210938h.40625v2.421875h-.40625zm0 0" fill="#fff"/></svg>