<svg height="17pt" viewBox="0 0 17 17" width="17pt" xmlns="http://www.w3.org/2000/svg" xmlns:xlink="http://www.w3.org/1999/xlink"><symbol id="a" overflow="visible"><path d="m1.53125-.671875h2.765625v.671875h-3.703125v-.671875c.289062-.300781.695312-.710937 1.21875-1.234375.519531-.53125.84375-.867188.96875-1.015625.257812-.28125.4375-.519531.53125-.71875.101562-.195313.15625-.390625.15625-.578125 0-.3125-.109375-.566406-.328125-.765625-.21875-.195313-.5-.296875-.84375-.296875-.25 0-.515625.046875-.796875.140625-.273438.085937-.5625.214844-.875.390625v-.796875c.320312-.132813.617188-.234375.890625-.296875.28125-.0625.535156-.09375.765625-.09375.601562 0 1.082031.152344 1.4375.453125.363281.304687.546875.703125.546875 1.203125 0 .242188-.046875.46875-.140625.6875s-.257812.476562-.484375.765625c-.074219.074219-.289063.292969-.640625.65625-.34375.355469-.835938.855469-1.46875 1.5zm0 0"/></symbol><symbol id="b" overflow="visible"><path d="m3.25-3.140625c.375.074219.664062.242187.875.5.21875.25.328125.5625.328125.9375 0 .585937-.199219 1.03125-.59375 1.34375-.398437.3125-.960937.46875-1.6875.46875-.25 0-.507813-.0273438-.765625-.078125-.25-.0390625-.515625-.109375-.796875-.203125v-.765625c.21875.125.457031.226562.71875.296875.257813.0625.53125.09375.8125.09375.5 0 .878906-.097656 1.140625-.296875.257812-.195312.390625-.484375.390625-.859375 0-.34375-.125-.609375-.375-.796875-.242187-.195312-.574219-.296875-1-.296875h-.671875v-.640625h.703125c.382813 0 .679687-.078125.890625-.234375.207031-.15625.3125-.378906.3125-.671875 0-.300781-.109375-.53125-.328125-.6875-.210937-.164062-.511719-.25-.90625-.25-.21875 0-.453125.027344-.703125.078125-.242188.042969-.511719.117187-.8125.21875v-.703125c.300781-.082031.582031-.144531.84375-.1875.257812-.039062.507812-.0625.75-.0625.59375 0 1.0625.136719 1.40625.40625.351562.273438.53125.640625.53125 1.109375 0 .324219-.09375.59375-.28125.8125-.179688.21875-.4375.375-.78125.46875zm0 0"/></symbol><path d="m3.96875 1.007812h9.0625c1.632812 0 2.960938 1.328126 2.960938 2.960938v9.0625c0 1.632812-1.328126 2.960938-2.960938 2.960938h-9.0625c-1.632812 0-2.960938-1.328126-2.960938-2.960938v-9.0625c0-1.632812 1.328126-2.960938 2.960938-2.960938zm0 0" fill="#00b82a" fill-rule="evenodd"/><g fill="#fff"><use x="3.246094" xlink:href="#a" y="11.521881"/><use x="8.524872" xlink:href="#b" y="11.521881"/></g></svg>