<svg height="17pt" viewBox="0 0 17 17" width="17pt" xmlns="http://www.w3.org/2000/svg"><path d="m3.96875 1.007812h9.0625c1.632812 0 2.960938 1.328126 2.960938 2.960938v9.0625c0 1.632812-1.328126 2.960938-2.960938 2.960938h-9.0625c-1.632812 0-2.960938-1.328126-2.960938-2.960938v-9.0625c0-1.632812 1.328126-2.960938 2.960938-2.960938zm0 0" fill="#c2352a" fill-rule="evenodd"/><path d="m10.402344 8.5c0 1.050781-.851563 1.902344-1.902344 1.902344s-1.902344-.851563-1.902344-1.902344.851563-1.902344 1.902344-1.902344 1.902344.851563 1.902344 1.902344zm0 0" fill="#ff9cff"/><path d="m14.210938 12.308594c0 1.050781-.851563 1.902344-1.902344 1.902344-1.050782 0-1.90625-.851563-1.90625-1.902344 0-1.050782.855468-1.90625 1.90625-1.90625 1.050781 0 1.902344.855468 1.902344 1.90625zm0 0" fill="#fff"/><path d="m6.597656 4.691406c0 1.050782-.855468 1.90625-1.90625 1.90625-1.050781 0-1.902344-.855468-1.902344-1.90625 0-1.050781.851563-1.902344 1.902344-1.902344 1.050782 0 1.90625.851563 1.90625 1.902344zm0 0" fill="#fff"/></svg>