<svg height="17pt" viewBox="0 0 17 17" width="17pt" xmlns="http://www.w3.org/2000/svg"><g fill-rule="evenodd"><path d="m3.96875 1.007812h9.0625c1.632812 0 2.960938 1.328126 2.960938 2.960938v9.0625c0 1.632812-1.328126 2.960938-2.960938 2.960938h-9.0625c-1.632812 0-2.960938-1.328126-2.960938-2.960938v-9.0625c0-1.632812 1.328126-2.960938 2.960938-2.960938zm0 0" fill="#309fff"/><path d="m13.398438 8.5c0 2.707031-2.191407 4.898438-4.898438 4.898438s-4.898438-2.191407-4.898438-4.898438 2.191407-4.898438 4.898438-4.898438 4.898438 2.191407 4.898438 4.898438zm0 0" fill="#e6e6e6"/><path d="m10.632812 12.902344-.582031-1.171875.558594 1.183593c.007813-.003906.015625-.007812.023437-.011718zm0 0" fill="#f2f2f2"/><path d="m11.507812 12.359375-2.796874-3.476563 1.339843 2.847657.582031 1.171875c.308594-.148438.605469-.332032.875-.542969zm0 0" fill="#fff"/><path d="m8.523438 8.484375.1875.398437 2.796874 3.476563c.179688-.136719.347657-.285156.507813-.445313.109375-.117187.214844-.238281.316406-.363281.003907-.003906.003907-.007812.007813-.011719.09375-.117187.183594-.238281.265625-.367187.007812-.015625.019531-.03125.03125-.050781.074219-.117188.144531-.234375.207031-.359375.011719-.023438.027344-.050781.039062-.074219.054688-.117188.109376-.234375.15625-.355469.015626-.035156.027344-.070312.042969-.109375.042969-.109375.082031-.226562.113281-.339844.015626-.046874.027344-.089843.039063-.136718.019531-.078125.039063-.15625.054687-.234375zm0 0" fill="#f2f2f2"/><path d="m8.5 3.601562c-.941406 0-1.859375.269532-2.652344.78125l2.636719 4.144532-4.863281-.421875c-.011719.132812-.019532.261719-.019532.394531 0 2.707031 2.191407 4.898438 4.898438 4.898438.730469-.003907 1.453125-.167969 2.109375-.484376l-2.085937-4.429687 4.765624 1.027344c.070313-.332031.109376-.671875.109376-1.011719 0-2.707031-2.191407-4.898438-4.898438-4.898438zm0 0" fill="#e6e6e6"/><path d="m5.019531 5.0625c-.808593.820312-1.304687 1.898438-1.398437 3.042969l4.863281.421875zm0 0" fill="#f2f2f2"/><path d="m5.019531 5.0625 3.464844 3.464844-2.636719-4.144532c-.300781.195313-.578125.421876-.828125.679688zm0 0" fill="#fff"/><path d="m10.253906 8.5c0 .96875-.785156 1.753906-1.753906 1.753906s-1.753906-.785156-1.753906-1.753906.785156-1.753906 1.753906-1.753906 1.753906.785156 1.753906 1.753906zm0 0" fill="#b3b3b3"/><path d="m9.796875 8.5c0 .714844-.582031 1.296875-1.296875 1.296875s-1.296875-.582031-1.296875-1.296875.582031-1.296875 1.296875-1.296875 1.296875.582031 1.296875 1.296875zm0 0" fill="#fff"/><path d="m15.992188 9.460938c-.285157.042968-.59375.132812-.871094.164062-1.070313.132812-2.09375.183594-3.074219.160156-.980469-.019531-1.917969-.113281-2.816406-.269531-.902344-.152344-1.765625-.371094-2.59375-.640625-.832031-.265625-1.632813-.589844-2.40625-.953125-.777344-.363281-1.523438-.769531-2.253907-1.210937-.335937-.207032-.636718-.472657-.96875-.691407v7.011719c0 1.640625 1.320313 2.960938 2.960938 2.960938h9.0625c1.640625 0 2.960938-1.320313 2.960938-2.960938zm0 0" fill="#2f7dbc"/><path d="m11.730469 12.652344-2.46875 1.421875v-2.847657zm0 0" fill="#fff"/><path d="m5.773438 11.226562h2.835937v2.835938h-2.835937zm0 0" fill="#fff"/></g></svg>