<svg height="17pt" viewBox="0 0 17 17" width="17pt" xmlns="http://www.w3.org/2000/svg"><path d="m3.96875 1.007812h9.0625c1.632812 0 2.960938 1.328126 2.960938 2.960938v9.0625c0 1.632812-1.328126 2.960938-2.960938 2.960938h-9.0625c-1.632812 0-2.960938-1.328126-2.960938-2.960938v-9.0625c0-1.632812 1.328126-2.960938 2.960938-2.960938zm0 0" fill="#5aa331" fill-rule="evenodd"/><path d="m13.8125 8.5c0 2.933594-2.378906 5.3125-5.3125 5.3125s-5.3125-2.378906-5.3125-5.3125 2.378906-5.3125 5.3125-5.3125 5.3125 2.378906 5.3125 5.3125zm0 0" fill="#efefef"/><path d="m6.6875 12.695312c-.03125-.011718-.078125-.054687-.109375-.09375-.03125-.039062-.109375-.125-.175781-.1875-.101563-.097656-.128906-.117187-.179688-.121093-.035156 0-.085937-.023438-.121094-.046875-.0625-.042969-.179687-.175782-.179687-.207032 0-.023437-.070313-.046874-.140625-.046874-.125 0-.21875-.0625-.246094-.164063-.011718-.03125-.035156-.101563-.054687-.152344-.027344-.078125-.042969-.09375-.09375-.113281-.28125-.109375-.289063-.113281-.332031-.222656-.015626-.039063-.046876-.089844-.0625-.113282-.027344-.035156-.03125-.058593-.023438-.121093.007812-.058594.003906-.089844-.023438-.136719-.03125-.058594-.03125-.066406-.011718-.117188.015625-.027343.035156-.054687.042968-.0625.011719-.003906.03125-.03125.046876-.054687.023437-.046875.023437-.046875-.046876-.109375-.039062-.03125-.105468-.078125-.144531-.101562-.058593-.035157-.078125-.058594-.097656-.121094-.042969-.132813-.035156-.171875.058594-.261719.046875-.042969.085937-.09375.085937-.109375s-.03125-.054688-.066406-.09375c-.035156-.035156-.089844-.097656-.125-.140625-.082031-.109375-.128906-.144531-.222656-.179687-.140625-.046876-.300782-.109376-.328125-.121094-.015625-.007813-.046875-.046875-.070313-.085938-.066406-.113281-.101562-.136718-.207031-.144531-.152344-.011719-.164063-.058594-.113281-.402344.023437-.144531.050781-.203125.128906-.289062.097656-.113281.179688-.148438.339844-.160157.125-.007812.140625-.003906.257812.042969.070313.027344.140625.058594.152344.066407.0625.035156.3125.371093.328125.441406.007813.023437.03125.066406.058594.101562.039062.054688.0625.066406.210937.113282.089844.027343.1875.066406.214844.089843.066406.046875.078125.046875.15625-.007812.113281-.082031.167969-.105469.28125-.117188.175781-.019531.183594-.023437.183594-.125 0-.066406.011718-.105469.042968-.15625.0625-.097656.101563-.089843.210938.023438.050781.050781.125.109375.167969.128906.074219.039063.078125.039063.144531.011719.070312-.027344.15625-.113282.191406-.195313.03125-.070312.007813-.167969-.046875-.226562-.105469-.113281-.238281-.3125-.238281-.363281 0-.066407.117188-.226563.199219-.277344.082031-.046875.109375-.082032.148437-.195313.042969-.128906.074219-.183593.136719-.226562s.066406-.066407.027344-.160157c-.0625-.164062-.015625-.261718.164062-.339843.128907-.054688.148438-.09375.082031-.148438-.050781-.042969-.042968-.101562.023438-.152343.082031-.058594.121094-.167969.09375-.261719-.011719-.035157-.035156-.09375-.050781-.125-.0625-.109375-.039063-.171875.089843-.21875.066407-.027344.132813-.09375.132813-.132813 0-.015625-.035156-.054687-.078125-.09375-.078125-.074218-.105469-.136718-.074219-.1875.023438-.042968.09375-.039062.148438.015625.023437.023438.0625.046875.085937.050781.066406.015626.203125-.050781.265625-.125.042969-.046874.070313-.066406.125-.074218.035157-.003906.097657-.03125.136719-.058594.066406-.046875.070312-.058594.070312-.117188 0-.066406.003907-.070312.0625-.078124.074219-.011719.140626-.050782.175782-.101563.027344-.035156.027344-.042969-.007813-.089844-.019531-.03125-.035156-.066406-.035156-.085937 0-.019532-.007813-.0625-.019531-.101563-.011719-.035156-.015625-.089843-.007813-.125.023438-.101562.136719-.113281.230469-.023437.058594.058594.0625.09375.015625.160156-.027344.042969-.027344.050781-.007813.078125.023438.027344.027344.027344.109376.003906.113281-.035156.183593-.03125.28125.015625.046874.019532.109374.039063.148437.039063.097656 0 .148437.027343.164063.089843.023437.113282.09375.117188.164062.007813.046875-.066406.089844-.078125.179688-.046875.058593.019531.074218.019531.109374 0 .058594-.03125.105469-.027344.226563.015625.0625.023437.117187.035156.136719.03125.015625-.007813.082031-.058594.140625-.117187.09375-.09375.117187-.105469.167969-.105469.074218 0 .160156.046875.191406.105469.015625.023437.054687.0625.085937.082031.039063.03125.058594.058593.066407.101562.007812.03125.035156.09375.070312.136719.042969.058594.058594.09375.070312.171875.007813.089844.015626.101563.058594.121094.074219.035156.140625.03125.203125-.019531.03125-.023438.085938-.0625.121094-.085938.039063-.027344.082031-.078125.109375-.132812.039062-.078126.050781-.085938.113281-.097657.074219-.011719.164063.019531.199219.070313.039062.046875.015625.203125-.042969.300781-.042969.070313-.046875.09375-.039062.144531.011719.066406.027343.085938.132812.160156.035157.023438.074219.070313.09375.101563.046875.082031.171875.152344.226563.128906.03125-.011719.042968-.03125.046875-.089843.007812-.039063.019531-.078126.03125-.089844.023437-.023438.238281-.019532.285156.007812.023437.011719.035156.03125.035156.066406 0 .03125.011719.078126.027344.113282.019531.042968.027344.101562.023437.203125-.003906.164062.003907.175781.125.304687.125.136719.167969.191406.242188.324219.097656.164063.136719.261719.148438.375.007812.066406.027343.113281.058593.15625.117188.15625.125.257813.078125.761719-.015625.195312-.023437.316406-.011718.355468.007812.039063.007812.136719-.007813.28125-.027344.234376-.050781.316407-.167969.5625-.050781.097657-.066406.152344-.070312.230469-.027344.53125-.148438.765625-.390625.765625-.050781 0-.101563.019532-.21875.085938-.234375.136718-.273438.15625-.414063.1875-.164062.039062-.234375.078125-.269531.148437-.039063.070313-.03125.085938.078125.164063.117188.082031.121094.09375.089844.1875-.050782.148437-.113282.160156-.273438.046875-.066406-.046875-.128906-.078125-.15625-.078125-.023437 0-.101562.027344-.171875.0625-.21875.101562-.273437.109375-.394531.0625-.089844-.039063-.097656-.035156-.222656.0625-.046875.039062-.058594.0625-.058594.105468 0 .070313-.023438.097657-.089844.097657-.027344 0-.066406.011719-.082031.023437-.019531.015625-.058594.027344-.09375.027344-.058594 0-.0625.007812-.082031.070312-.023438.078126-.089844.140626-.140625.140626-.019531 0-.070313.015624-.117188.039062-.171875.078125-.292969.070312-.464843-.03125-.152344-.09375-.171876-.109375-.21875-.195312-.054688-.09375-.089844-.121094-.210938-.148438-.058594-.011719-.15625-.039062-.214844-.0625-.097656-.035156-.125-.039062-.238281-.03125-.070313.007812-.136719.011719-.144531.011719-.011719 0-.078125 0-.148438-.003907-.117187-.007812-.136718-.007812-.171875-.042968-.042969-.050782-.152343-.109375-.195312-.109375-.039063 0-.117188.070312-.160157.144531-.027343.050781-.03125.0625-.011718.125.03125.109375.027344.128906-.035156.164062-.046876.027344-.070313.03125-.171876.023438-.101562-.007812-.128906-.003906-.191406.027344-.039062.019531-.117187.078125-.171875.128906-.097656.085938-.101562.097656-.09375.144531.019531.121094-.03125.160157-.121093.09375-.050782-.035156-.078126-.035156-.167969 0-.089844.039063-.089844.058594-.007813.070313.035156.007812.097656.019531.140625.035156.074219.019531.085938.019531.15625 0 .074219-.027344.078125-.027344.15625.007812.097657.042969.121094.097657.089844.195313-.023437.085937-.054687.101563-.246094.117187-.371093.03125-.402343.03125-.457031.003907zm4.414062-1.457031c.019532-.015625.050782-.058593.070313-.09375.039063-.066406.039063-.058593.03125-.644531-.003906-.359375.007813-.40625.113281-.519531.050782-.054688.09375-.082031.203125-.121094.242188-.09375.375-.179687.425781-.28125.039063-.078125.039063-.140625 0-.25-.042968-.113281-.070312-.136719-.117187-.117187-.042969.023437-.082031.011718-.09375-.035157-.007813-.03125-.019531-.039062-.09375-.035156-.070313 0-.082031.003906-.097656.035156-.027344.050781-.066407.046875-.089844-.003906-.011719-.035156-.023437-.039063-.066406-.03125s-.050781.003906-.050781-.019531c0-.015625.015624-.046875.035156-.070313.035156-.042969.035156-.042969.003906-.050781-.019531-.003906-.058594-.035156-.085938-.070312-.046874-.0625-.050781-.074219-.054687-.238282-.007813-.292968-.003906-.324218.039063-.375.03125-.035156.042968-.070312.050781-.167968.007812-.066407.019531-.199219.027343-.292969.019532-.183594.003907-.300781-.050781-.390625-.035156-.054688-.066406-.285156-.058593-.4375.003906-.097656 0-.117188-.03125-.136719s-.039063-.015625-.078126.019531c-.050781.046875-.058593.046875-.070312.003906-.007812-.015624-.023438-.027343-.042969-.027343-.054687 0-.046875-.035157.015625-.082031.042969-.03125.050782-.042969.035156-.070313-.035156-.058594.039063-.089844.171876-.066406.023437.007812.035156 0 .03125-.015625-.003907-.011719.003906-.039063.011718-.066406.027344-.050782 0-.089844-.058594-.089844-.046874 0-.074218-.039063-.074218-.097656 0-.023438-.015625-.046876-.035156-.058594-.039063-.023438-.042969-.042969-.007813-.066406.023437-.015626.023437-.023438-.007813-.074219-.042968-.070313-.113281-.105469-.21875-.121094-.042968-.007813-.128906-.019531-.195312-.03125-.066406-.007813-.179688-.027344-.253906-.039063-.261719-.050781-.421875-.058593-.554688-.03125-.269531.054688-.464844.15625-.523437.277344-.046875.089844-.101563.175782-.171875.261719-.039063.046875-.078125.113281-.089844.148437-.015625.058594-.039062.09375-.171875.269532-.035156.046875-.171875.191406-.308594.320312-.195312.1875-.257812.257813-.304687.347656-.035156.0625-.066406.136719-.074219.160157-.007813.027343-.03125.082031-.046875.125-.019531.042969-.054688.121093-.074219.175781-.035156.085938-.058593.113281-.199219.234375-.195312.164063-.269531.28125-.238281.367187.019531.046876.015625.0625-.039062.152344-.054688.097656-.054688.101563-.027344.125.03125.027344.03125.027344-.007813.082032-.027343.039062-.039062.066406-.03125.097656.007813.03125 0 .046875-.027343.058594-.019531.011718-.035157.027343-.035157.039062s-.015624.035156-.039062.050781c-.039062.027344-.042969.03125-.023438.101563.015626.0625.015626.078125-.007812.101562-.019531.019532-.03125.0625-.035156.121094-.003906.089844-.003906.09375.046875.125.027343.015625.058593.054688.070312.082031.035157.097657.085938.128907.261719.152344.085938.011719.195312.019531.242188.019531.050781 0 .113281.011719.144531.023438.03125.011718.144531.027344.25.039062.105469.007813.199219.019532.207031.027344.042969.023438.15625.035156.34375.042969.253906.007812.410156.015625.527344.03125.078125.007812.09375.007812.132812-.027344.039063-.035156.042969-.035156.066406-.003906.011719.015625.023438.042969.023438.0625 0 .023437.023438.050781.058594.078125.082031.0625.125.136718.125.210937 0 .039063.003906.117188.003906.183594.003906.105469.007812.117187.042969.121094.042969.003906.0625.070312.039062.132812-.019531.046875 0 .085938.046875.085938.023438 0 .023438.019531-.007812.144531-.015625.0625.042968.058594.066406-.003906.023438-.058594.078125-.066406.078125-.011719 0 .070313.078125.0625.109375-.011719.015625-.035156.070312.039063.070312.097656 0 .046876.003907.054688.03125.050782.089844-.011719.324219 0 .34375.019531.003907.007813.085938.007813.175782.003906.128906-.003906.171875-.011719.199218-.035156zm-1.875-2.257812c-.101562-.015625-.214843-.0625-.257812-.105469-.03125-.03125-.03125-.039062-.011719-.101562.011719-.035157.027344-.09375.035157-.128907.003906-.035156.03125-.089843.054687-.125.0625-.085937.132813-.214843.132813-.246093 0-.082032.136718-.230469.300781-.335938.023437-.015625.070312-.042969.105469-.066406.042968-.027344.070312-.035156.085937-.027344.050781.023438.171875.1875.195313.253906.023437.074219.046874.132813.101562.253906.015625.042969.035156.097657.042969.117188.007812.042969.113281.109375.164062.109375.035157 0 .078125.050781.097657.105469.015624.054687 0 .113281-.0625.207031s-.132813.105469-.550782.105469c-.195312 0-.390625-.007813-.433594-.015625zm2.058594-2.191407c0-.011718-.019531-.035156-.042968-.046874-.039063-.023438-.039063-.023438-.039063.003906 0 .03125.027344.066406.0625.066406.011719 0 .019531-.011719.019531-.023438zm-1.183594 5.523438c-.019531-.050781.074219-.136719.121094-.109375.027344.015625.019532.078125-.011718.105469-.039063.027344-.097657.03125-.109376.003906zm.90625-.105469c-.027343-.019531-.054687-.042969-.0625-.050781-.015624-.023438.011719-.0625.0625-.085938.035157-.019531.050782-.019531.101563.003907.066406.03125.070313.039062.03125.113281-.035156.0625-.0625.066406-.132813.019531zm-.695312-.074219c-.042969-.027343-.054688-.101562-.03125-.140624.015625-.023438.136719-.007813.175781.019531.042969.03125-.019531.152343-.082031.152343-.011719 0-.042969-.015624-.0625-.03125zm0 0" fill="#ff352e"/></svg>