<svg height="17pt" viewBox="0 0 17 17" width="17pt" xmlns="http://www.w3.org/2000/svg"><path d="m3.96875 1.007812h9.0625c1.632812 0 2.960938 1.328126 2.960938 2.960938v9.0625c0 1.632812-1.328126 2.960938-2.960938 2.960938h-9.0625c-1.632812 0-2.960938-1.328126-2.960938-2.960938v-9.0625c0-1.632812 1.328126-2.960938 2.960938-2.960938zm0 0" fill="#3465a4" fill-rule="evenodd"/><g fill="#fff"><path d="m3.71875 4.78125h1.59375v7.4375h-1.59375zm0 0"/><path d="m9.03125 10.625v1.59375h-5.3125v-1.59375zm0 0"/><path d="m13.28125 12.21875h-1.59375v-7.4375h1.59375zm0 0"/><path d="m7.96875 6.375v-1.59375h5.3125v1.59375zm0 0"/></g></svg>