<svg height="17pt" viewBox="0 0 17 17" width="17pt" xmlns="http://www.w3.org/2000/svg"><path d="m3.96875 1.007812h9.0625c1.632812 0 2.960938 1.328126 2.960938 2.960938v9.0625c0 1.632812-1.328126 2.960938-2.960938 2.960938h-9.0625c-1.632812 0-2.960938-1.328126-2.960938-2.960938v-9.0625c0-1.632812 1.328126-2.960938 2.960938-2.960938zm0 0" fill="#999" fill-rule="evenodd"/><path d="m8.523438 4.089844c-2.324219 0-4.421876.828125-6.15625 2.109375l6.15625 6.710937 6.109374-6.734375c-1.730468-1.265625-3.800781-2.085937-6.109374-2.085937zm0 0" fill="#4f4f4f"/><path d="m8.5 5.851562c-1.851562 0-3.574219.609376-4.953125 1.636719l4.980469 5.421875 4.925781-5.421875c-1.378906-1.027343-3.101563-1.636719-4.953125-1.636719zm0 0" fill="#797979"/><path d="m8.5 7.617188c-1.390625 0-2.679688.457031-3.714844 1.226562l3.734375 4.066406 3.695313-4.066406c-1.035156-.769531-2.324219-1.226562-3.714844-1.226562zm0 0" fill="#ccc"/></svg>