<svg height="17pt" viewBox="0 0 17 17" width="17pt" xmlns="http://www.w3.org/2000/svg"><path d="m3.96875 1.007812h9.0625c1.632812 0 2.960938 1.328126 2.960938 2.960938v9.0625c0 1.632812-1.328126 2.960938-2.960938 2.960938h-9.0625c-1.632812 0-2.960938-1.328126-2.960938-2.960938v-9.0625c0-1.632812 1.328126-2.960938 2.960938-2.960938zm0 0" fill="#d66829" fill-rule="evenodd"/><path d="m13.499925 22.503329v-7.220588s.5-1.779412 2.5-1.779412 2.5 1.779412 2.5 1.779412v7.220588m-10 0v-7.220588s.5-1.779412 2.5-1.779412c3 0 2.5 1.779412 2.5 1.779412v7.220588" fill="none" stroke="#f8bf94" stroke-linecap="round" stroke-linejoin="round" stroke-width="3" transform="matrix(.53125 0 0 .53125 -.53121 .25995)"/><path d="m13.8125 6.105469c0 .292969-.238281.53125-.53125.53125h-3.1875c-.292969 0-.53125-.238281-.53125-.53125 0-.296875.238281-.53125.53125-.53125h3.1875c.292969 0 .53125.234375.53125.53125zm0 0" fill="#fff"/><path d="m11.6875 8.230469c-.292969 0-.53125-.238281-.53125-.53125v-3.1875c0-.296875.238281-.53125.53125-.53125s.53125.234375.53125.53125v3.1875c0 .292969-.238281.53125-.53125.53125zm0 0" fill="#fff"/></svg>