<svg height="17pt" viewBox="0 0 17 17" width="17pt" xmlns="http://www.w3.org/2000/svg"><path d="m3.96875 1.007812h9.0625c1.632812 0 2.960938 1.328126 2.960938 2.960938v9.0625c0 1.632812-1.328126 2.960938-2.960938 2.960938h-9.0625c-1.632812 0-2.960938-1.328126-2.960938-2.960938v-9.0625c0-1.632812 1.328126-2.960938 2.960938-2.960938zm0 0" fill="#ff7c40" fill-rule="evenodd"/><path d="m10.09375 4.25c-1.761719 0-3.1875.476562-3.1875 1.0625s1.425781 1.0625 3.1875 1.0625 3.1875-.476562 3.1875-1.0625-1.425781-1.0625-3.1875-1.0625zm3.082031 1.859375c-.359375.46875-1.628906.796875-3.082031.796875s-2.71875-.328125-3.082031-.796875c-.070313.085937-.105469.175781-.105469.265625 0 .585938 1.425781 1.0625 3.1875 1.0625s3.1875-.476562 3.1875-1.0625c0-.089844-.035156-.179688-.105469-.265625zm0 1.0625c-.359375.46875-1.628906.796875-3.082031.796875s-2.71875-.328125-3.082031-.796875c-.070313.085937-.105469.175781-.105469.265625 0 .191406.160156.382812.460938.546875.964843.046875 1.785156.234375 2.265624.503906.152344.007813.304688.011719.460938.011719 1.761719 0 3.1875-.476562 3.1875-1.0625 0-.089844-.035156-.179688-.105469-.265625zm0 1.0625c-.359375.46875-1.628906.796875-3.082031.796875v.53125c1.761719 0 3.1875-.476562 3.1875-1.0625 0-.089844-.035156-.179688-.105469-.265625zm0 1.0625c-.359375.46875-1.628906.796875-3.082031.796875v.53125c1.761719 0 3.1875-.476562 3.1875-1.0625 0-.089844-.035156-.179688-.105469-.265625zm0 1.0625c-.359375.46875-1.628906.796875-3.082031.796875v.53125c1.761719 0 3.1875-.476562 3.1875-1.0625 0-.089844-.035156-.179688-.105469-.265625zm0 1.0625c-.359375.46875-1.628906.796875-3.082031.796875 0 .191406-.160156.367188-.421875.519531.140625.007813.28125.011719.421875.011719 1.761719 0 3.1875-.476562 3.1875-1.0625 0-.089844-.035156-.179688-.105469-.265625zm0 0" fill="#d75e32"/><path d="m10.09375 3.71875c-1.761719 0-3.1875.476562-3.1875 1.0625s1.425781 1.0625 3.1875 1.0625 3.1875-.476562 3.1875-1.0625-1.425781-1.0625-3.1875-1.0625zm3.082031 1.859375c-.359375.46875-1.628906.796875-3.082031.796875s-2.71875-.328125-3.082031-.796875c-.070313.085937-.105469.175781-.105469.265625 0 .585938 1.425781 1.0625 3.1875 1.0625s3.1875-.476562 3.1875-1.0625c0-.089844-.035156-.179688-.105469-.265625zm0 1.0625c-.359375.46875-1.628906.796875-3.082031.796875s-2.71875-.328125-3.082031-.796875c-.070313.085937-.105469.175781-.105469.265625 0 .191406.160156.382812.460938.546875.964843.046875 1.785156.234375 2.265624.503906.152344.007813.304688.011719.460938.011719 1.761719 0 3.1875-.476562 3.1875-1.0625 0-.089844-.035156-.179688-.105469-.265625zm0 1.0625c-.359375.46875-1.628906.796875-3.082031.796875v.53125c1.761719 0 3.1875-.476562 3.1875-1.0625 0-.089844-.035156-.179688-.105469-.265625zm0 1.0625c-.359375.46875-1.628906.796875-3.082031.796875v.53125c1.761719 0 3.1875-.476562 3.1875-1.0625 0-.089844-.035156-.179688-.105469-.265625zm0 1.0625c-.359375.46875-1.628906.796875-3.082031.796875v.53125c1.761719 0 3.1875-.476562 3.1875-1.0625 0-.089844-.035156-.179688-.105469-.265625zm0 1.0625c-.359375.46875-1.628906.796875-3.082031.796875 0 .191406-.160156.367188-.421875.519531.140625.007813.28125.011719.421875.011719 1.761719 0 3.1875-.476562 3.1875-1.0625 0-.089844-.035156-.179688-.105469-.265625zm0 0" fill="#ffd8c6"/><path d="m6.90625 7.96875c-1.761719 0-3.1875.476562-3.1875 1.0625s1.425781 1.0625 3.1875 1.0625 3.1875-.476562 3.1875-1.0625-1.425781-1.0625-3.1875-1.0625zm3.082031 1.859375c-.359375.46875-1.628906.796875-3.082031.796875s-2.71875-.328125-3.082031-.796875c-.070313.085937-.105469.175781-.105469.265625 0 .585938 1.425781 1.0625 3.1875 1.0625s3.1875-.476562 3.1875-1.0625c0-.089844-.035156-.179688-.105469-.265625zm0 1.0625c-.359375.46875-1.628906.796875-3.082031.796875s-2.71875-.328125-3.082031-.796875c-.070313.085937-.105469.175781-.105469.265625 0 .585938 1.425781 1.0625 3.1875 1.0625s3.1875-.476562 3.1875-1.0625c0-.089844-.035156-.179688-.105469-.265625zm0 1.0625c-.359375.46875-1.628906.796875-3.082031.796875s-2.71875-.328125-3.082031-.796875c-.070313.085937-.105469.175781-.105469.265625 0 .585938 1.425781 1.0625 3.1875 1.0625s3.1875-.476562 3.1875-1.0625c0-.089844-.035156-.179688-.105469-.265625zm0 0" fill="#d75e32"/><path d="m6.90625 7.4375c-1.761719 0-3.1875.476562-3.1875 1.0625s1.425781 1.0625 3.1875 1.0625 3.1875-.476562 3.1875-1.0625-1.425781-1.0625-3.1875-1.0625zm3.082031 1.859375c-.359375.46875-1.628906.796875-3.082031.796875s-2.71875-.328125-3.082031-.796875c-.070313.085937-.105469.175781-.105469.265625 0 .585938 1.425781 1.0625 3.1875 1.0625s3.1875-.476562 3.1875-1.0625c0-.089844-.035156-.179688-.105469-.265625zm0 1.0625c-.359375.46875-1.628906.796875-3.082031.796875s-2.71875-.328125-3.082031-.796875c-.070313.085937-.105469.175781-.105469.265625 0 .585938 1.425781 1.0625 3.1875 1.0625s3.1875-.476562 3.1875-1.0625c0-.089844-.035156-.179688-.105469-.265625zm0 1.0625c-.359375.46875-1.628906.796875-3.082031.796875s-2.71875-.328125-3.082031-.796875c-.070313.085937-.105469.175781-.105469.265625 0 .585938 1.425781 1.0625 3.1875 1.0625s3.1875-.476562 3.1875-1.0625c0-.089844-.035156-.179688-.105469-.265625zm0 0" fill="#fff"/></svg>