<svg height="17pt" viewBox="0 0 17 17" width="17pt" xmlns="http://www.w3.org/2000/svg"><path d="m3.96875 1.007812h9.0625c1.632812 0 2.960938 1.328126 2.960938 2.960938v9.0625c0 1.632812-1.328126 2.960938-2.960938 2.960938h-9.0625c-1.632812 0-2.960938-1.328126-2.960938-2.960938v-9.0625c0-1.632812 1.328126-2.960938 2.960938-2.960938zm0 0" fill="#3e50b4" fill-rule="evenodd"/><g fill="#92aeff"><path d="m13.015625 5.046875c0 1.027344-.832031 1.859375-1.859375 1.859375s-1.859375-.832031-1.859375-1.859375.832031-1.859375 1.859375-1.859375 1.859375.832031 1.859375 1.859375zm0 0"/><path d="m11.15625 7.96875c-1.027344 0-1.859375.816406-1.859375 1.824219v.042969 3.976562h3.71875v-3.996094c0-.007812 0-.015625 0-.019531 0-1.011719-.832031-1.828125-1.859375-1.828125zm0 0"/><path d="m9.296875 5.046875c0 .878906-.714844 1.59375-1.59375 1.59375s-1.59375-.714844-1.59375-1.59375.714844-1.59375 1.59375-1.59375 1.59375.714844 1.59375 1.59375zm0 0"/><path d="m7.703125 7.4375c-.878906 0-1.59375.742188-1.59375 1.660156v.035156 3.617188h3.1875v-3.632812c0-.007813 0-.011719 0-.019532 0-.917968-.714844-1.660156-1.59375-1.660156zm0 0"/><path d="m6.109375 5.046875c0 .585937-.476563 1.0625-1.0625 1.0625s-1.0625-.476563-1.0625-1.0625.476563-1.0625 1.0625-1.0625 1.0625.476563 1.0625 1.0625zm0 0"/><path d="m5.046875 6.90625c-.585937 0-1.0625.519531-1.0625 1.160156v.027344 2.53125h2.125v-2.542969c0-.003906 0-.007812 0-.011719 0-.644531-.476563-1.164062-1.0625-1.164062zm0 0"/></g></svg>