<svg height="17pt" viewBox="0 0 17 17" width="17pt" xmlns="http://www.w3.org/2000/svg"><path d="m3.96875 1.007812h9.0625c1.632812 0 2.960938 1.328126 2.960938 2.960938v9.0625c0 1.632812-1.328126 2.960938-2.960938 2.960938h-9.0625c-1.632812 0-2.960938-1.328126-2.960938-2.960938v-9.0625c0-1.632812 1.328126-2.960938 2.960938-2.960938zm0 0" fill="#4f4f4f" fill-rule="evenodd"/><path d="m7.703125 2.390625v2.65625h1.59375v-2.65625zm0 4.78125v2.65625h1.59375v-2.65625zm0 4.78125v2.65625h1.59375v-2.65625zm0 0" fill="#fff"/><path d="m15.273438 11.933594c0 1.761718-1.425782 3.1875-3.1875 3.1875-1.761719 0-3.1875-1.425782-3.1875-3.1875 0-1.761719 1.425781-3.1875 3.1875-3.1875 1.761718 0 3.1875 1.425781 3.1875 3.1875zm0 0" fill="#3f8ce6" fill-rule="evenodd"/><path d="m11.6875 9.144531v.835938c-.78125.160156-1.390625.773437-1.550781 1.554687h-.839844v.796875h.835937c.160157.78125.773438 1.390625 1.554688 1.550781v.839844h.796875v-.839844c.78125-.160156 1.390625-.769531 1.550781-1.550781h.839844v-.796875h-.835938c-.160156-.78125-.773437-1.394531-1.554687-1.550781v-.839844zm.398438 1.992188c.441406 0 .796874.355469.796874.796875s-.355468.796875-.796874.796875c-.441407 0-.796876-.355469-.796876-.796875s.355469-.796875.796876-.796875zm0 0" fill="#fff"/></svg>