<svg height="17pt" viewBox="0 0 17 17" width="17pt" xmlns="http://www.w3.org/2000/svg"><path d="m3.96875 1.007812h9.0625c1.632812 0 2.960938 1.328126 2.960938 2.960938v9.0625c0 1.632812-1.328126 2.960938-2.960938 2.960938h-9.0625c-1.632812 0-2.960938-1.328126-2.960938-2.960938v-9.0625c0-1.632812 1.328126-2.960938 2.960938-2.960938zm0 0" fill="#f2ad19" fill-rule="evenodd"/><path d="m2.390625 3.71875h2.125v9.5625h-2.125zm0 0" fill="#ffdebe"/><path d="m7 8.999187c7 0 7 0 7 16" fill="none" stroke="#ffdebe" stroke-width="4" transform="matrix(.53125 0 0 .53125 -.265625 .000432)"/><path d="m10.359375 6.90625v2.125h-2.125v2.125h2.125v2.125h2.125v-2.125h2.125v-2.125h-2.125v-2.125zm0 0" fill="#ffdebe"/></svg>