<svg height="17pt" viewBox="0 0 17 17" width="17pt" xmlns="http://www.w3.org/2000/svg" xmlns:xlink="http://www.w3.org/1999/xlink"><clipPath id="a"><path d="m0 0h17v17h-17z"/></clipPath><path d="m3.96875 1.007812h9.0625c1.632812 0 2.960938 1.328126 2.960938 2.960938v9.0625c0 1.632812-1.328126 2.960938-2.960938 2.960938h-9.0625c-1.632812 0-2.960938-1.328126-2.960938-2.960938v-9.0625c0-1.632812 1.328126-2.960938 2.960938-2.960938zm0 0" fill="#ccc" fill-rule="evenodd"/><g clip-path="url(#a)"><path d="m8.5 4.796875c-1.394531 0-2.582031.851563-3.09375 2.0625-1.296875.191406-2.292969 1.300781-2.292969 2.652344 0 1.484375 1.207031 2.691406 2.691407 2.691406h5.726562c1.300781 0 2.355469-1.054687 2.355469-2.355469 0-1.210937-.910157-2.203125-2.082031-2.335937-.308594-1.546875-1.671876-2.714844-3.304688-2.714844zm0 0" fill="#fff"/></g><path d="m8.996094 6.460938c-.226563.011718-.414063.167968-.46875.386718-.054688.21875.042968.445313.238281.558594 0 0 .726563.367188.726563 1.613281 0 .621094-.199219 1-.390626 1.242188-.191406.246093-.335937.320312-.335937.320312-.164063.082031-.269531.25-.277344.429688-.003906.183593.089844.359375.246094.453125s.351563.097656.511719.003906c0 0 .347656-.191406.652344-.585938.304687-.390624.601562-1.015624.601562-1.863281 0-1.691406-1.214844-2.484375-1.214844-2.484375-.089844-.050781-.1875-.078125-.289062-.074218zm0 0" fill="#808080"/><path d="m6.972656 7.152344c-.242187 0-.449218.175781-.492187.417968-.042969.238282.09375.472657.320312.558594 0 0 .6875.269532.6875.902344s-.664062.84375-.664062.84375c-.265625.085938-.40625.375-.316407.636719.085938.265625.375.40625.636719.320312 0 0 1.355469-.472656 1.355469-1.800781 0-1.324219-1.332031-1.84375-1.332031-1.84375-.0625-.023438-.128907-.039062-.195313-.035156zm0 0" fill="#808080"/></svg>