<svg height="17pt" viewBox="0 0 17 17" width="17pt" xmlns="http://www.w3.org/2000/svg"><path d="m3.96875 1.007812h9.0625c1.632812 0 2.960938 1.328126 2.960938 2.960938v9.0625c0 1.632812-1.328126 2.960938-2.960938 2.960938h-9.0625c-1.632812 0-2.960938-1.328126-2.960938-2.960938v-9.0625c0-1.632812 1.328126-2.960938 2.960938-2.960938zm0 0" fill="#3b94f7" fill-rule="evenodd"/><path d="m13.003906 8.5c0 2.488281-2.015625 4.503906-4.503906 4.503906s-4.503906-2.015625-4.503906-4.503906 2.015625-4.503906 4.503906-4.503906 4.503906 2.015625 4.503906 4.503906zm0 0" fill="#3b94f7"/><path d="m8.5 3.242188c-2.914062 0-5.257812 2.34375-5.257812 5.257812s2.34375 5.257812 5.257812 5.257812 5.257812-2.34375 5.257812-5.257812-2.34375-5.257812-5.257812-5.257812zm0 2.253906c1.246094 0 2.253906 1.34375 2.253906 3.003906s-1.007812 3.003906-2.253906 3.003906-2.253906-1.34375-2.253906-3.003906 1.007812-3.003906 2.253906-3.003906zm0 0" fill="#fff"/></svg>