<svg height="17pt" viewBox="0 0 17 17" width="17pt" xmlns="http://www.w3.org/2000/svg"><path d="m3.96875 1.007812h9.0625c1.632812 0 2.960938 1.328126 2.960938 2.960938v9.0625c0 1.632812-1.328126 2.960938-2.960938 2.960938h-9.0625c-1.632812 0-2.960938-1.328126-2.960938-2.960938v-9.0625c0-1.632812 1.328126-2.960938 2.960938-2.960938zm0 0" fill="#3cb054" fill-rule="evenodd"/><path d="m5.046875 4.78125c5.566406.183594 7.714844 3.183594 6.636719 5.859375-.304688.746094-.628906 1.152344-1.3125 1.578125.027344-.105469.058594-.214844.078125-.324219.402343-2.089843-.066407-4.664062-3.808594-6.050781 2.976563 1.589844 4.011719 4.78125 2.496094 6.308594-2.363281.332031-4.089844-1.480469-4.089844-3.566406zm0 0" fill="#fff" fill-rule="evenodd"/></svg>