<svg height="17pt" viewBox="0 0 17 17" width="17pt" xmlns="http://www.w3.org/2000/svg" xmlns:xlink="http://www.w3.org/1999/xlink"><clipPath id="a"><path d="m0 0h17v17h-17z"/></clipPath><path d="m3.96875 1.007812h9.0625c1.632812 0 2.960938 1.328126 2.960938 2.960938v9.0625c0 1.632812-1.328126 2.960938-2.960938 2.960938h-9.0625c-1.632812 0-2.960938-1.328126-2.960938-2.960938v-9.0625c0-1.632812 1.328126-2.960938 2.960938-2.960938zm0 0" fill="#54b23f" fill-rule="evenodd"/><path d="m8.5 4.019531c-3.160156 0-5.703125 2.800781-5.703125 4.480469s2.542969 4.480469 5.703125 4.480469 5.703125-2.800781 5.703125-4.480469-2.542969-4.480469-5.703125-4.480469zm0 0" fill="#4f4f4f"/><g clip-path="url(#a)"><path d="m9.113281 5.648438c-1.234375 0-2.253906 1.007812-2.253906 2.238281 0 .46875.160156.902343.410156 1.261719l-1.503906 1.503906c-.160156.15625-.164063.414062-.003906.578125.15625.160156.414062.164062.578125.007812l1.5-1.503906c.363281.25.804687.394531 1.273437.394531 1.234375 0 2.242188-1.007812 2.242188-2.242187 0-1.230469-1.007813-2.238281-2.242188-2.238281zm0 .8125c.796875 0 1.425781.632812 1.425781 1.425781s-.628906 1.425781-1.425781 1.425781c-.792969 0-1.425781-.632812-1.425781-1.425781s.632812-1.425781 1.425781-1.425781zm0 0" fill="#54b23f"/></g></svg>