<svg height="17pt" viewBox="0 0 17 17" width="17pt" xmlns="http://www.w3.org/2000/svg"><path d="m3.96875 1.007812h9.0625c1.632812 0 2.960938 1.328126 2.960938 2.960938v9.0625c0 1.632812-1.328126 2.960938-2.960938 2.960938h-9.0625c-1.632812 0-2.960938-1.328126-2.960938-2.960938v-9.0625c0-1.632812 1.328126-2.960938 2.960938-2.960938zm0 0" fill="#8e8e8e" fill-rule="evenodd"/><path d="m5.832031 13.695312c-.128906-.03125-.214843-.140624-.21875-.277343 0-.089844.039063-.15625.152344-.273438.21875-.226562.511719-.574219.761719-.910156.148437-.199219.488281-.699219.480468-.707031-.003906-.003906-.039062.003906-.082031.019531-.242187.070313-.496093.101563-.78125.09375-.519531-.015625-.96875-.160156-1.402343-.449219-.167969-.109375-.234376-.164062-.398438-.328125-.347656-.34375-.59375-.773437-.714844-1.257812-.0625-.257813-.085937-.59375-.0625-.867188.109375-1.164062.941406-2.101562 2.097656-2.363281.101563-.019531.117188-.027344.117188-.046875-.039062-.445313-.027344-.683594.0625-1.027344.050781-.199219.089844-.304687.171875-.476562.257813-.546875.6875-.980469 1.234375-1.25.734375-.363281 1.59375-.371094 2.332031-.015625.542969.261718.976563.691406 1.238281 1.226562.214844.441406.300782.894532.269532 1.398438l-.007813.09375.132813.019531c.542968.09375 1.019531.335937 1.417968.71875.3125.304687.539063.667969.671876 1.070313.222656.675781.175781 1.390624-.136719 2.023437-.292969.585937-.765625 1.03125-1.367188 1.285156-.308593.128907-.59375.1875-.953125.195313-.332031.011718-.558594-.019532-.839844-.105469-.0625-.019531-.121093-.035156-.125-.03125-.007812.007813.230469.386719.382813.605469.261719.375.566406.757812.839844 1.050781.082031.082031.152343.171875.164062.195313.046875.105468.011719.25-.074219.324218-.09375.078125.136719.070313-2.726562.074219-1.429688 0-2.617188-.003906-2.636719-.007813zm0 0" fill="#ccc"/><path d="m5.832031 13.695312c-.128906-.03125-.214843-.140624-.21875-.277343 0-.089844.039063-.15625.152344-.273438.21875-.226562.511719-.574219.761719-.910156.148437-.199219.488281-.699219.480468-.707031-.003906-.003906-.039062.003906-.082031.019531-.242187.070313-.496093.101563-.78125.09375-.519531-.015625-.96875-.160156-1.402343-.449219-.167969-.109375-.234376-.164062-.398438-.328125-.347656-.34375-.59375-.773437-.714844-1.257812-.0625-.257813-.085937-.59375-.0625-.867188.109375-1.164062.941406-2.101562 2.097656-2.363281.101563-.019531.117188-.027344.117188-.046875-.039062-.445313-.027344-.683594.0625-1.027344.050781-.199219.089844-.304687.171875-.476562.257813-.546875.6875-.980469 1.234375-1.25.734375-.363281 1.59375-.371094 2.332031-.015625.542969.261718.976563.691406 1.238281 1.226562.214844.441406.300782.894532.269532 1.398438l-.007813.09375.132813.019531c.542968.09375 1.019531.335937 1.417968.71875.3125.304687.539063.667969.671876 1.070313.222656.675781.175781 1.390624-.136719 2.023437-.292969.585937-.765625 1.03125-1.367188 1.285156-.308593.128907-.59375.1875-.953125.195313-.332031.011718-.558594-.019532-.839844-.105469-.0625-.019531-.121093-.035156-.125-.03125-.007812.007813.230469.386719.382813.605469.261719.375.566406.757812.839844 1.050781.082031.082031.152343.171875.164062.195313.046875.105468.011719.25-.074219.324218-.09375.078125.136719.070313-2.726562.074219-1.429688 0-2.617188-.003906-2.636719-.007813zm4.515625-.578124c-.007812-.007813-.046875-.058594-.09375-.113282-.265625-.328125-.65625-.890625-.867187-1.253906-.230469-.394531-.492188-.917969-.519531-1.035156-.039063-.175782.097656-.339844.285156-.339844.082031 0 .148437.027344.226562.101562.078125.074219.269532.214844.375.273438.183594.105469.425782.199219.644532.242188.171874.035156.613281.03125.785156-.003907.292968-.066406.574218-.1875.796875-.34375.167969-.117187.414062-.367187.523437-.53125.34375-.519531.449219-1.113281.300782-1.710937-.1875-.734375-.78125-1.320313-1.527344-1.507813-.144532-.035156-.261719-.050781-.441406-.054687-.179688-.007813-.230469-.019532-.296876-.082032-.085937-.085937-.101562-.171874-.0625-.367187.144532-.675781-.058593-1.375-.542968-1.875-.28125-.292969-.589844-.472656-.972656-.574219-.1875-.050781-.324219-.066406-.535157-.066406-.214843 0-.359375.015625-.558593.070312-.851563.234376-1.464844.988282-1.527344 1.875-.015625.222657.003906.433594.0625.664063.035156.140625.019531.230469-.0625.316406-.054688.058594-.113282.082031-.261719.09375-.550781.046875-1 .261719-1.378906.65625-.351563.371094-.546875.832031-.566407 1.347657-.015624.371093.054688.679687.222657 1.019531.28125.558593.792969.960937 1.410156 1.101562.25.058594.605469.066407.839844.015625.328125-.070312.628906-.214844.914062-.441406.113281-.09375.152344-.109375.242188-.109375.21875 0 .34375.203125.257812.414063-.015625.039062-.085937.175781-.15625.304687-.324219.601563-.6875 1.144531-1.125 1.695313-.097656.125-.179687.226562-.179687.230468s.855468.003906 1.898437.003906c1.519531 0 1.898438-.003906 1.890625-.015624zm0 0" fill="#333"/></svg>