<svg height="17pt" viewBox="0 0 17 17" width="17pt" xmlns="http://www.w3.org/2000/svg"><path d="m3.96875 1.007812h9.0625c1.632812 0 2.960938 1.328126 2.960938 2.960938v9.0625c0 1.632812-1.328126 2.960938-2.960938 2.960938h-9.0625c-1.632812 0-2.960938-1.328126-2.960938-2.960938v-9.0625c0-1.632812 1.328126-2.960938 2.960938-2.960938zm0 0" fill="#0286c2" fill-rule="evenodd"/><path d="m8.5 4.25c-2.347656 0-4.25 1.902344-4.25 4.25s1.902344 4.25 4.25 4.25c.972656 0 1.917969-.335938 2.675781-.949219-.398437.273438-.867187.417969-1.347656.417969-1.320313 0-2.390625-1.070312-2.390625-2.390625s1.070312-2.390625 2.390625-2.390625 2.390625 1.070312 2.390625 2.390625c0 .46875-.136719.925781-.394531 1.316406.597656-.75.925781-1.683593.925781-2.644531 0-2.347656-1.902344-4.25-4.25-4.25zm0 0" fill="#fff"/></svg>