<svg height="17pt" viewBox="0 0 17 17" width="17pt" xmlns="http://www.w3.org/2000/svg"><path d="m3.96875 1.007812h9.0625c1.632812 0 2.960938 1.328126 2.960938 2.960938v9.0625c0 1.632812-1.328126 2.960938-2.960938 2.960938h-9.0625c-1.632812 0-2.960938-1.328126-2.960938-2.960938v-9.0625c0-1.632812 1.328126-2.960938 2.960938-2.960938zm0 0" fill="#02a8f3" fill-rule="evenodd"/><path d="m9.296875 3.1875c-.292969 0-.53125.238281-.53125.53125v3.816406l-.5625.566406c-.199219-1.296874-1.3125-2.257812-2.625-2.257812-1.46875 0-2.65625 1.1875-2.65625 2.65625s1.1875 2.65625 2.65625 2.65625c.574219 0 1.132813-.1875 1.59375-.535156v2.660156c0 .292969.238281.53125.53125.53125s.53125-.238281.53125-.53125v-3.710938l.578125-.578124c.238281 1.253906 1.332031 2.164062 2.609375 2.164062 1.46875 0 2.65625-1.1875 2.65625-2.65625s-1.1875-2.65625-2.65625-2.65625c-.574219 0-1.132813.1875-1.59375.535156v-2.660156c0-.292969-.238281-.53125-.53125-.53125zm-3.71875 3.71875c.878906 0 1.59375.714844 1.59375 1.59375s-.714844 1.59375-1.59375 1.59375-1.59375-.714844-1.59375-1.59375.714844-1.59375 1.59375-1.59375zm5.84375 0c .878906 0 1.59375.714844 1.59375 1.59375s-.714844 1.59375-1.59375 1.59375-1.59375-.714844-1.59375-1.59375.714844-1.59375 1.59375-1.59375zm0 0" fill="#015479"/></svg>