<svg height="17pt" viewBox="0 0 17 17" width="17pt" xmlns="http://www.w3.org/2000/svg"><path d="m3.96875 1.007812h9.0625c1.632812 0 2.960938 1.328126 2.960938 2.960938v9.0625c0 1.632812-1.328126 2.960938-2.960938 2.960938h-9.0625c-1.632812 0-2.960938-1.328126-2.960938-2.960938v-9.0625c0-1.632812 1.328126-2.960938 2.960938-2.960938zm0 0" fill="#2a0001" fill-rule="evenodd"/><g fill="#980001"><path d="m8.734375 8.441406c0-1.378906-1.160156-2.496094-2.597656-2.496094-1.433594 0-2.597657 1.117188-2.597657 2.496094s1.164063 2.496094 2.597657 2.496094c1.4375 0 2.597656-1.117188 2.597656-2.496094zm0 0" fill-opacity=".705882"/><path d="m9.398438 10.035156c0-1.378906-1.160157-2.496094-2.597657-2.496094-1.433593 0-2.597656 1.117188-2.597656 2.496094s1.164063 2.496094 2.597656 2.496094c1.4375 0 2.597657-1.117188 2.597657-2.496094zm0 0" fill-opacity=".745098"/><path d="m11.980469 11.398438c0-1.496094-1.535157-2.710938-3.425781-2.710938-1.894532 0-3.425782 1.214844-3.425782 2.710938 0 1.5 1.53125 2.714843 3.425782 2.714843 1.890624 0 3.425781-1.214843 3.425781-2.714843zm0 0" fill-opacity=".686275"/><path d="m10.339844 6.355469c0-1.378907-1.164063-2.496094-2.597656-2.496094-1.433594 0-2.597657 1.117187-2.597657 2.496094 0 1.378906 1.164063 2.496093 2.597657 2.496093 1.433593 0 2.597656-1.117187 2.597656-2.496093zm0 0" fill-opacity=".647059"/><path d="m12.222656 6.558594c0-1.378906-1.160156-2.496094-2.597656-2.496094-1.433594 0-2.597656 1.117188-2.597656 2.496094s1.164062 2.496094 2.597656 2.496094c1.4375 0 2.597656-1.117188 2.597656-2.496094zm0 0" fill-opacity=".717647"/><path d="m12.898438 7.679688c0-1.378907-1.074219-2.496094-2.398438-2.496094-1.328125 0-2.402344 1.117187-2.402344 2.496094 0 1.378906 1.074219 2.496093 2.402344 2.496093 1.324219 0 2.398438-1.117187 2.398438-2.496093zm0 0" fill-opacity=".772549"/><path d="m8.9375 6.738281c0-1.378906-1.160156-2.496093-2.597656-2.496093-1.433594 0-2.597656 1.117187-2.597656 2.496093 0 1.375 1.164062 2.492188 2.597656 2.492188 1.4375 0 2.597656-1.117188 2.597656-2.492188zm0 0" fill-opacity=".682353"/></g><g fill-rule="evenodd"><path d="m10.882812 7.65625c0-1.917969-1.554687-3.46875-3.476562-3.46875s-3.480469 1.550781-3.480469 3.46875c0 1.914062 1.558594 3.46875 3.480469 3.46875s3.476562-1.554688 3.476562-3.46875zm0 0" fill="#fff"/><path d="m13.363281 9.46875c0-2.359375-1.917969-4.273438-4.285156-4.273438-2.363281 0-4.28125 1.914063-4.28125 4.273438s1.917969 4.273438 4.28125 4.273438c2.367187 0 4.285156-1.914063 4.285156-4.273438zm0 0" fill="#a40205"/><path d="m13.328125 9.492188c0-2.328126-1.894531-4.214844-4.226563-4.214844-2.332031 0-4.226562 1.886718-4.226562 4.214844 0 2.328124 1.894531 4.214843 4.226562 4.214843 2.332032 0 4.226563-1.886719 4.226563-4.214843zm0 0" fill="#000205"/></g></svg>