<svg height="17pt" viewBox="0 0 17 17" width="17pt" xmlns="http://www.w3.org/2000/svg"><path d="m3.96875 1.007812h9.0625c1.632812 0 2.960938 1.328126 2.960938 2.960938v9.0625c0 1.632812-1.328126 2.960938-2.960938 2.960938h-9.0625c-1.632812 0-2.960938-1.328126-2.960938-2.960938v-9.0625c0-1.632812 1.328126-2.960938 2.960938-2.960938zm0 0" fill="#426ea7" fill-rule="evenodd"/><g fill="#fff"><path d="m11.953125 7.574219c-.921875 2.355469-6.996094 2.714843-7.308594 1.769531-.539062-1.820312.65625-3.691406 2.675781-4.179688 2.019532-.488281 4.09375.59375 4.632813 2.410157zm0 0"/><path d="m11.953125 8.234375s-5.007813 3.625-8.222656 2.464844c-.558594-.441407.5-1.171875.5-1.339844-1.230469.488281-1.839844 1.125-1.839844 1.886719.523437 1.707031 5.273437-.167969 6.0625-.523438 1.5625-.753906 3.5-2.488281 3.5-2.488281zm0 0"/><path d="m5.578125 11.953125s6.140625-1.417969 7.523437-4.449219c.0625-.679687-1.007812-.425781-1.128906-.535156 1.71875-.789062 2.71875.023438 2.632813.535156-.160157.925782-2.070313 2.441406-4.566407 3.425782-1.636718.625-4.460937 1.023437-4.460937 1.023437zm0 0"/></g></svg>