<svg height="17pt" viewBox="0 0 17 17" width="17pt" xmlns="http://www.w3.org/2000/svg"><path d="m3.96875 1.007812h9.0625c1.632812 0 2.960938 1.328126 2.960938 2.960938v9.0625c0 1.632812-1.328126 2.960938-2.960938 2.960938h-9.0625c-1.632812 0-2.960938-1.328126-2.960938-2.960938v-9.0625c0-1.632812 1.328126-2.960938 2.960938-2.960938zm0 0" fill="#007eff" fill-rule="evenodd"/><path d="m14.323529 24.080882c-2.786764-.595588-5.227941-2.963235-5.955882-5.764706-.279412-.838235-.264706-2.720588-.051471-3.654411.32353-1.558824 1.529412-3.485294 2.764706-4.419118 1.654412-1.257353 2.404412-1.514706 5.25-1.830882 5.066177-.551471 6.661765-.713236 6.705883-.661765.029411.029412.235294 1.808824.470588 3.955882.573529 5.382353.507353 6.404412-.551471 8.507353-.191176.389706-.75 1.095589-1.316176 1.669118-.786765.801471-1.19853 1.102941-2.029412 1.514706-1.713235.838235-3.5 1.066176-5.286765.683823zm-2.308823-4.977941c1.823529-.433823 3.639706-1.55147 5.389706-3.308823 1.507353-1.514706 2.889706-3.551471 3.963235-5.82353.441177-.933823 1.705882-2.198529 1.397059-2.095588-.088235.029412-2.088235.169118-3.816177.345588-1.720588.169118-4.705882.536765-5.139705.639706-2.735295.617647-5.360295 3.308824-5.580883 6.176471-.227941 1.757353.07353 3.169117.742647 4.602941l1.5-.235294c.330883-.036765 1.022059-.169118 1.544118-.301471zm0 0" fill="#ffffe9" stroke="#ffffea" stroke-width="1.129384" transform="scale(.53125)"/><path d="m10.832031 12.109375h3.109375v2.445313h-3.109375zm0 0" fill="#999"/><g fill="#4d4d4d"><path d="m10.765625 7.488281h3.242187c.382813 0 .695313.3125.695313.699219v3.71875c0 .382812-.3125.695312-.695313.695312h-3.242187c-.386719 0-.695313-.3125-.695313-.695312v-3.71875c0-.386719.308594-.699219.695313-.699219zm0 0"/><path d="m11.324219 13.636719h.828125v.472656h-.828125zm0 0"/><path d="m12.621094 13.636719h.828125v.472656h-.828125zm0 0"/></g></svg>