<svg height="17pt" viewBox="0 0 17 17" width="17pt" xmlns="http://www.w3.org/2000/svg"><g fill-rule="evenodd"><path d="m3.96875 1.007812h9.0625c1.632812 0 2.960938 1.328126 2.960938 2.960938v9.0625c0 1.632812-1.328126 2.960938-2.960938 2.960938h-9.0625c-1.632812 0-2.960938-1.328126-2.960938-2.960938v-9.0625c0-1.632812 1.328126-2.960938 2.960938-2.960938zm0 0" fill="#997954"/><path d="m10.429688 1.050781c-.003907-.015625-.007813-.027343-.011719-.042969h-.140625c.035156.007813.070312.015626.105468.023438.015626.003906.027344.011719.046876.019531zm0 0" fill="#007eff"/><path d="m3.90625 9.953125c-.035156.011719-.066406.039063-.101562.050781-.199219-.457031-.488282-.925781-.769532-1.457031-.285156-.53125-.5625-1.125-.734375-1.832031 0-.015625-.007812-.027344-.007812-.042969-.023438-.089844-.035157-.179687-.050781-.269531-.175782.179687-.632813.757812-.667969.734375-.058594-.039063-.351563-1.1875-.566407-1.855469v7.75c0 1.640625 1.320313 2.960938 2.964844 2.960938h9.058594c1.640625 0 2.960938-1.320313 2.960938-2.960938v-7.597656c-.191407.582031-.464844 1.667968-.523438 1.703125-.03125.023437-.488281-.554688-.664062-.734375-.015626.089844-.027344.179687-.050782.269531 0 .015625-.007812.027344-.007812.042969-.175782.707031-.453125 1.300781-.734375 1.832031s-.574219 1-.769531 1.457031c-.023438-.007812-.042969-.027344-.070313-.035156 0 .101562-.003906.207031-.027344.265625-.003906.011719-.007812.023437-.015625.039063-.457031 1.332031-.664062 2.34375-.976562 3.09375-.15625.375-.335938.683593-.589844.9375-.253906.253906-.578125.449218-1.019531.597656-.710938.238281-1.285157.351562-2.019531.339844-.734376.011718-1.308594-.101563-2.019532-.339844-.441406-.148438-.765625-.34375-1.019531-.597656-.253906-.253907-.433594-.5625-.589844-.9375-.3125-.75-.519531-1.761719-.980469-3.09375-.003906-.015626-.007812-.027344-.015624-.039063-.027344-.082031-.011719-.183594.007812-.28125zm0 0" fill="#997954"/><path d="m3.90625 9.953125c-.019531.097656-.035156.199219-.007812.28125.007812.011719.011718.023437.015624.039063.460938 1.332031.667969 2.34375.980469 3.09375.15625.375.335938.683593.589844.9375.253906.253906.578125.449218 1.019531.597656.710938.238281 1.285156.351562 2.019532.339844.734374.011718 1.308593-.101563 2.019531-.339844.441406-.148438.765625-.34375 1.019531-.597656.253906-.253907.433594-.5625.589844-.9375.3125-.75.519531-1.761719.976562-3.09375.007813-.015626.011719-.027344.015625-.039063.023438-.058594.027344-.164063.027344-.265625-.527344-.1875-1.039063-.441406-1.511719-.769531-.492187-.347657-.941406-.769531-1.320312-1.253907-.378906-.488281-.6875-1.039062-.902344-1.648437s-.335938-1.28125-.335938-2c-.003906-.539063.023438-1.140625.105469-1.734375.078125-.550781.21875-1.078125.414063-1.554688h-2.195313c.195313.476563.335938 1.003907.414063 1.554688.082031.59375.105468 1.195312.105468 1.734375 0 .71875-.121093 1.390625-.335937 2s-.523437 1.160156-.902344 1.648437c-.378906.484376-.828125.90625-1.320312 1.253907-.460938.324219-.964844.566406-1.480469.753906zm0 0" fill="#d7cec7"/><path d="m9.621094 1.007812c-.195313.476563-.335938 1.003907-.414063 1.554688-.082031.59375-.105469 1.195312-.105469 1.734375 0 .71875.121094 1.386719.335938 2 .214844.609375.523438 1.160156.902344 1.648437.378906.484376.828125.90625 1.320312 1.253907.492188.34375 1.027344.617187 1.582032.804687.195312-.457031.488281-.925781.769531-1.457031s.558593-1.125.734375-1.832031c0-.015625.007812-.027344.007812-.042969.023438-.089844.035156-.179687.050782-.269531-.425782-.425782-.851563-.851563-1.609376-1.765625-1.070312-1.296875-2.113281-2.613281-2.113281-2.613281s-.390625-.417969-.632812-.898438c-.015625-.023438-.015625-.050781-.019531-.074219-.019532-.007812-.03125-.015625-.046876-.019531-.035156-.007812-.070312-.015625-.105468-.023438zm0 0" fill="#de8c4a"/><path d="m6.769531 1.007812h-.140625c-.007812.015626-.007812.027344-.011718.042969.019531-.007812.03125-.015625.046874-.019531.035157-.007812.070313-.015625.105469-.023438zm0 0" fill="#007eff"/><path d="m6.769531 1.007812c-.035156.007813-.070312.015626-.105469.023438-.015624.003906-.027343.011719-.046874.019531-.003907.023438-.007813.050781-.019532.074219-.242187.480469-.632812.898438-.632812.898438s-1.042969 1.316406-2.113282 2.613281c-.757812.914062-1.183593 1.339843-1.609374 1.765625.015624.089844.027343.179687.046874.269531.003907.015625.011719.027344.011719.042969.171875.707031.449219 1.300781.734375 1.832031.28125.53125.570313 1 .769532 1.457031.554687-.1875 1.089843-.460937 1.582031-.804687.492187-.347657.941406-.769531 1.320312-1.253907.378907-.488281.6875-1.039062.902344-1.648437.214844-.613281.335937-1.28125.335937-2 0-.539063-.023437-1.140625-.105468-1.734375-.078125-.550781-.21875-1.078125-.414063-1.554688zm0 0" fill="#de8c4a"/><path d="m1.007812 5.28125c.214844.667969.507813 1.816406.566407 1.855469.109375.074219 1.207031-1.203125 2.277343-2.5 1.070313-1.296875 2.113282-2.613281 2.113282-2.613281s.390625-.417969.632812-.898438c.019532-.039062.011719-.078125.03125-.117188h-2.65625c-1.644531 0-2.964844 1.320313-2.964844 2.964844zm0 0" fill="#86522b"/><path d="m10.417969 1.007812c.015625.039063.007812.078126.03125.117188.242187.480469.632812.898438.632812.898438s1.042969 1.316406 2.113281 2.613281c1.070313 1.296875 2.167969 2.574219 2.273438 2.5.058594-.035157.332031-1.121094.523438-1.703125v-1.460938c0-1.644531-1.320313-2.964844-2.960938-2.964844zm0 0" fill="#86522b"/></g><path d="m8.097656 11.191406c-.402344 0-.730468.292969-.730468.65625 0 .367188.753906 1.082032 1.15625 1.082032.402343 0 1.15625-.714844 1.15625-1.082032 0-.363281-.328126-.65625-.730469-.65625zm0 0" fill="#3f3f3f"/><path d="m6.207031 7.140625c0 .640625-.515625 1.15625-1.15625 1.15625s-1.15625-.515625-1.15625-1.15625.515625-1.15625 1.15625-1.15625 1.15625.515625 1.15625 1.15625zm0 0" fill="#3f3f3f"/><path d="m5.050781 6.851562c0 .160157-.128906.289063-.289062.289063-.160157 0-.289063-.128906-.289063-.289063 0-.160156.128906-.289062.289063-.289062.160156 0 .289062.128906.289062.289062zm0 0" fill="#fff"/><path d="m9.679688 14.414062c0 .457032-.515626.828126-1.15625.828126-.640626 0-1.15625-.371094-1.15625-.828126 0-.097656.023437-.191406.066406-.277343.160156-.320313.566406-.140625 1.066406-.140625s.949219-.179688 1.113281.136718c.042969.089844.066407.183594.066407.28125zm0 0" fill="#d86f6f"/><path d="m-75.717371 26.160042s.963235.536764 1.867647.772058c.566177.154412 1.94853-.772058 1.94853-.772058s1.382353.92647 1.941176.772058c.904412-.235294 1.867647-.772058 1.867647-.772058" fill="none" stroke="#79431b" stroke-linecap="round" stroke-linejoin="round" transform="matrix(.53125 0 0 .53125 46.720947 -.100647)"/><path d="m10.839844 7.140625c0 .640625.515625 1.15625 1.15625 1.15625.636718 0 1.15625-.515625 1.15625-1.15625s-.519532-1.15625-1.15625-1.15625c-.640625 0-1.15625.515625-1.15625 1.15625zm0 0" fill="#3f3f3f"/><path d="m11.417969 6.851562c0 .160157.128906.289063.289062.289063.160157 0 .289063-.128906.289063-.289063 0-.160156-.128906-.289062-.289063-.289062-.160156 0-.289062.128906-.289062.289062zm0 0" fill="#fff"/></svg>