<svg height="17pt" viewBox="0 0 17 17" width="17pt" xmlns="http://www.w3.org/2000/svg"><path d="m3.96875 1.007812h9.0625c1.632812 0 2.960938 1.328126 2.960938 2.960938v9.0625c0 1.632812-1.328126 2.960938-2.960938 2.960938h-9.0625c-1.632812 0-2.960938-1.328126-2.960938-2.960938v-9.0625c0-1.632812 1.328126-2.960938 2.960938-2.960938zm0 0" fill="#569cde" fill-rule="evenodd"/><path d="m7.714844 3.90625c-2.160156-.003906-3.914063 1.710938-3.914063 3.828125 0 .328125.042969.65625.128907.972656-.695313.335938-1.175782 1.039063-1.175782 1.863281v.457032c0 1.144531.933594 2.066406 2.089844 2.066406h7.3125c1.15625 0 2.089844-.921875 2.089844-2.066406v-.457032c0-.871093-.535156-1.609374-1.296875-1.917968.328125-.40625.511719-.910156.511719-1.429688 0-1.269531-1.050782-2.296875-2.351563-2.296875-.214844 0-.429687.03125-.640625.089844-.730469-.710937-1.722656-1.109375-2.753906-1.109375zm0 0" fill="#fff"/><path d="m8.5 5.820312c-1.691406 0-3.0625 1.371094-3.0625 3.0625 0 1.691407 1.371094 3.0625 3.0625 3.0625s3.0625-1.371093 3.0625-3.0625c0-1.691406-1.371094-3.0625-3.0625-3.0625zm0 .765626c1.269531 0 2.296875 1.027343 2.296875 2.296874 0 1.269532-1.027344 2.296876-2.296875 2.296876s-2.296875-1.027344-2.296875-2.296876c0-1.269531 1.027344-2.296874 2.296875-2.296874zm0 0" fill="#aaceee"/><path d="m8.5 7.351562c-.847656 0-1.53125.683594-1.53125 1.53125 0 .847657.683594 1.53125 1.53125 1.53125s1.53125-.683593 1.53125-1.53125c0-.847656-.683594-1.53125-1.53125-1.53125zm0 0" fill="#569cde"/><path d="m6.585938 5.628906c0 .316406-.257813.574219-.574219.574219-.316407 0-.574219-.257813-.574219-.574219 0-.320312.257812-.574218.574219-.574218.316406 0 .574219.253906.574219.574218zm0 0" fill="#569cde"/></svg>