<svg height="17pt" viewBox="0 0 17 17" width="17pt" xmlns="http://www.w3.org/2000/svg"><path d="m3.96875 1.007812h9.0625c1.632812 0 2.960938 1.328126 2.960938 2.960938v9.0625c0 1.632812-1.328126 2.960938-2.960938 2.960938h-9.0625c-1.632812 0-2.960938-1.328126-2.960938-2.960938v-9.0625c0-1.632812 1.328126-2.960938 2.960938-2.960938zm0 0" fill="#007eff" fill-rule="evenodd"/><path d="m8.5 8.5c-2.964844 0-5.367188 1.203125-5.367188 2.683594 0 1.484375 2.402344 2.683594 5.367188 2.683594s5.367188-1.199219 5.367188-2.683594c0-1.480469-2.402344-2.683594-5.367188-2.683594zm0 0" fill="#696969"/><path d="m8.5 5.816406c-2.964844 0-5.367188 1.199219-5.367188 2.683594s2.402344 2.683594 5.367188 2.683594 5.367188-1.199219 5.367188-2.683594-2.402344-2.683594-5.367188-2.683594zm0 0" fill="#919191"/><path d="m8.5 3.132812c-2.964844 0-5.367188 1.199219-5.367188 2.683594 0 1.480469 2.402344 2.683594 5.367188 2.683594s5.367188-1.203125 5.367188-2.683594c0-1.484375-2.402344-2.683594-5.367188-2.683594zm0 0" fill="#ccc"/></svg>