<svg height="17pt" viewBox="0 0 17 17" width="17pt" xmlns="http://www.w3.org/2000/svg"><path d="m3.96875 1.007812h9.0625c1.632812 0 2.960938 1.328126 2.960938 2.960938v9.0625c0 1.632812-1.328126 2.960938-2.960938 2.960938h-9.0625c-1.632812 0-2.960938-1.328126-2.960938-2.960938v-9.0625c0-1.632812 1.328126-2.960938 2.960938-2.960938zm0 0" fill="#0083c4" fill-rule="evenodd"/><path d="m14.480469 8.5c0-3.300781-2.679688-5.980469-5.980469-5.980469s-5.980469 2.679688-5.980469 5.980469 2.679688 5.980469 5.980469 5.980469 5.980469-2.679688 5.980469-5.980469zm0 0" fill="#1ca4d4"/><g fill="#fff"><path d="m8.5 4.230469c-2.359375 0-4.269531 1.910156-4.269531 4.269531s1.910156 4.269531 4.269531 4.269531 4.269531-1.910156 4.269531-4.269531c0-.496094-.089843-.992188-.261719-1.457031l.007813-.007813-.019531-.03125c-.625-1.667968-2.214844-2.773437-3.996094-2.773437zm0 .425781c1.433594 0 2.75.800781 3.410156 2.078125l-2.664062 1.902344-4.546875.414062c-.027344-.183593-.042969-.367187-.042969-.550781 0-2.121094 1.722656-3.84375 3.84375-3.84375zm3.648438 2.644531c.128906.386719.195312.792969.195312 1.199219 0 1.011719-.402344 1.984375-1.113281 2.703125l-1.46875-2.199219zm-2.945313 1.941407 1.570313 2.351562c-.660157.484375-1.457032.746094-2.273438.75-1.683594-.003906-3.167969-1.097656-3.667969-2.707031zm0 0"/><path d="m5.511719 9.355469c0 .46875-.382813.851562-.855469.851562s-.855469-.382812-.855469-.851562c0-.472657.382813-.855469.855469-.855469s.855469.382812.855469.855469zm0 0"/><path d="m11.917969 11.488281c0 .472657-.382813.855469-.855469.855469s-.855469-.382812-.855469-.855469c0-.46875.382813-.851562.855469-.851562s.855469.382812.855469.851562zm0 0"/><path d="m13.199219 6.792969c0 .46875-.382813.851562-.855469.851562s-.855469-.382812-.855469-.851562c0-.472657.382813-.855469.855469-.855469s.855469.382812.855469.855469zm0 0"/><path d="m10.207031 8.925781c0 .472657-.382812.855469-.851562.855469-.472657 0-.855469-.382812-.855469-.855469 0-.46875.382812-.851562.855469-.851562.46875 0 .851562.382812.851562.851562zm0 0"/></g></svg>