<svg height="17pt" viewBox="0 0 17 17" width="17pt" xmlns="http://www.w3.org/2000/svg"><path d="m3.96875 1.007812h9.0625c1.632812 0 2.960938 1.328126 2.960938 2.960938v9.0625c0 1.632812-1.328126 2.960938-2.960938 2.960938h-9.0625c-1.632812 0-2.960938-1.328126-2.960938-2.960938v-9.0625c0-1.632812 1.328126-2.960938 2.960938-2.960938zm0 0" fill="#2293da" fill-rule="evenodd"/><path d="m9.632812 4.535156c-1.085937.003906-2.058593.664063-2.457031 1.675782-.351562-.347657-.824219-.542969-1.316406-.542969-1.042969 0-1.890625.847656-1.890625 1.886719.003906.28125.066406.558593.1875.8125-.589844.421874-.941406 1.105468-.941406 1.832031 0 1.25 1.015625 2.265625 2.265625 2.265625h5.285156c1.667969 0 3.019531-1.351563 3.019531-3.019532 0-1.089843-.589844-2.097656-1.539062-2.632812-.179688-1.304688-1.296875-2.273438-2.613282-2.277344zm0 0" fill="#46b4ff"/><g fill="#fff"><path d="m8.5 7.183594c-.894531 0-1.667969.632812-1.847656 1.511718h.78125c.160156-.453124.585937-.757812 1.066406-.757812s.90625.304688 1.066406.757812h.78125c-.179687-.878906-.949218-1.511718-1.847656-1.511718zm-1.847656 2.265625c.179687.878906.949218 1.507812 1.847656 1.507812.894531 0 1.667969-.628906 1.847656-1.507812h-.78125c-.160156.449219-.585937.753906-1.066406.753906s-.90625-.300781-1.066406-.753906zm0 0"/><path d="m10.386719 8.695312h-1.507813l1.507813-1.511718zm0 0"/><path d="m6.613281 9.070312h1.507813l-1.507813 1.511719zm0 0"/></g></svg>