<svg height="17pt" viewBox="0 0 17 17" width="17pt" xmlns="http://www.w3.org/2000/svg"><path d="m3.96875 1.007812h9.0625c1.632812 0 2.960938 1.328126 2.960938 2.960938v9.0625c0 1.632812-1.328126 2.960938-2.960938 2.960938h-9.0625c-1.632812 0-2.960938-1.328126-2.960938-2.960938v-9.0625c0-1.632812 1.328126-2.960938 2.960938-2.960938zm0 0" fill="#fecd38" fill-rule="evenodd"/><path d="m3.1875 6.375v2.125h2.125v-2.125zm2.125 2.125v2.125h2.125v-2.125zm2.125 0h2.125v-2.125h-2.125zm2.125 0v2.125h2.125v-2.125zm2.125 0h2.125v-2.125h-2.125zm0 0" fill-opacity=".537255"/></svg>