<svg height="17pt" viewBox="0 0 17 17" width="17pt" xmlns="http://www.w3.org/2000/svg"><path d="m3.96875 1.007812h9.0625c1.632812 0 2.960938 1.328126 2.960938 2.960938v9.0625c0 1.632812-1.328126 2.960938-2.960938 2.960938h-9.0625c-1.632812 0-2.960938-1.328126-2.960938-2.960938v-9.0625c0-1.632812 1.328126-2.960938 2.960938-2.960938zm0 0" fill="#8e8e8e" fill-rule="evenodd"/><path d="m9.664062 11.324219c-.003906 0-.003906-.03125-.003906-.066407 0-.101562-.015625-.160156-.085937-.320312-.023438-.054688-.058594-.148438-.082031-.207031-.058594-.152344-.171876-.40625-.199219-.445313-.011719-.019531-.03125-.054687-.039063-.078125-.011718-.027343-.027344-.0625-.035156-.078125-.050781-.101562-.199219-.484375-.273438-.699218-.023437-.066407-.0625-.167969-.085937-.230469-.027344-.0625-.066406-.167969-.089844-.238281-.023437-.070313-.070312-.195313-.105469-.28125-.074218-.183594-.1875-.519532-.203124-.621094-.007813-.039063-.019532-.089844-.023438-.109375s-.007812-.0625-.007812-.097657c0-.058593.019531-.199218.027343-.214843.011719-.019531.027344-.007813.0625.039062.089844.128907.152344.152344.460938.167969.171875.011719.265625.027344.316406.050781.085937.042969.152344.144531.238281.355469.144532.351562.191406.476562.269532.707031.035156.101563.054687.152344.0625.15625.03125.003907.203124-.257812.28125-.4375.097656-.222656.269531-.671875.304687-.804687.027344-.105469.125-.246094.28125-.421875.046875-.050781.101563-.105469.121094-.121094.078125-.0625.277343-.089844.414062-.058594.03125.007813.121094.015625.203125.019531.105469.003907.148438.007813.15625.015626.011719.011718-.007812.082031-.046875.167968-.011719.03125-.035156.085938-.042969.121094-.011718.035156-.023437.066406-.027343.070312-.003907.003907-.019531.046876-.03125.089844-.015625.042969-.03125.082032-.035157.085938-.023437.03125-.175781.492187-.222656.679687-.019531.070313-.042968.164063-.054687.210938s-.039063.136719-.054688.203125c-.019531.0625-.039062.128906-.039062.148437-.003907.015625-.019531.046875-.03125.070313-.0625.121094-.183594.398437-.324219.742187-.144531.367188-.175781.433594-.238281.546875-.058594.105469-.253907.410156-.28125.433594-.007813.007812-.023438.03125-.035157.054688-.046874.066406-.144531.1875-.203124.242187-.066407.066406-.109376.09375-.195313.132813-.066406.027343-.089844.03125-.101563.019531zm-1.222656-.375c-.007812-.003907-.019531-.027344-.027344-.054688-.011718-.023437-.035156-.070312-.050781-.097656-.019531-.03125-.035156-.054687-.035156-.058594 0-.003906-.011719-.027343-.023437-.050781-.015626-.023438-.042969-.082031-.066407-.128906-.097656-.234375-.167969-.398438-.210937-.480469l-.042969-.085937-.207031-.003907c-.113282 0-.230469 0-.261719.003907-.078125.007812-.085937.019531-.125.164062-.019531.066406-.039063.140625-.046875.164062-.023438.085938-.105469.300782-.125.339844-.027344.046875-.097656.117188-.148438.148438-.050781.03125-.136718.050781-.199218.050781-.027344 0-.109375-.007813-.175782-.023437-.078124-.015626-.152343-.023438-.191406-.023438-.066406 0-.066406-.003906-.117187-.039062-.054688-.042969-.058594-.054688-.039063-.074219.03125-.023438.078125-.164063.105469-.316407.007813-.046874.023437-.125.03125-.167968.019531-.089844.023437-.136719.003906-.152344-.003906-.003906-.035156-.011719-.070312-.015625-.03125-.003906-.0625-.011719-.066407-.015625-.007812-.007812 0-.019531.019532-.042969.019531-.027343.027344-.046875.027344-.070312 0-.027344-.007813-.039063-.039063-.066407l-.039063-.035156.03125-.054687c.019532-.03125.039063-.066407.046876-.078125.050781-.085938.128906-.191406.152343-.207032.027344-.015624.035157-.019531.070313-.011718.023437 0 .054687.003906.066406.003906.027344.003906.019531.023438.101562-.21875.019532-.0625.050782-.15625.070313-.207031.015625-.050781.042969-.136719.0625-.191407.015625-.050781.050781-.164062.078125-.25.027344-.085937.058594-.183593.066406-.21875.007813-.035156.03125-.101562.054688-.148437.019531-.042969.058594-.140625.085937-.207031.054688-.128906.195313-.410156.25-.507813.035157-.0625.113281-.152343.128907-.152343.003906 0 .011718.007812.019531.015624.015625.027344.042969.019532.152343-.027343.097657-.046875.214844-.078125.214844-.058594 0 .003906-.019531.027344-.042968.054687-.058594.066407-.113282.152344-.128907.203126-.007812.023437-.015625.082031-.015625.128906l-.003906.082031.042969.125c.046875.140625.101562.265625.222656.5.097656.183594.261719.523437.292969.589844.035156.085937.136718.289062.179687.355469.019531.039062.046875.085937.058594.109374.023437.046876.109375.132813.160156.15625.0625.03125.082031.050782.09375.09375.023438.074219.019531.09375-.03125.152344-.027343.027344-.046875.058594-.046875.070313 0 .007812.023438.0625.054688.125.148437.292969.277344.558593.277344.558593 0 .003907-.035157.007813-.082032.011719-.128906.007813-.171875.035157-.375.234375-.089844.089844-.105468.101563-.136718.105469-.023438.003906-.042969.003906-.050782-.003906zm-.671875-1.476563c.007813-.007812-.027343-.09375-.074219-.183594-.039062-.074218-.042968-.082031-.0625-.082031-.023437 0-.023437 0-.054687.117188-.027344.101562-.035156.140625-.023437.152343.007812.011719.207031.007813.214843-.003906zm3.984375 1.417969c-.035156-.007813-.152344-.066406-.191406-.097656-.058594-.046875-.089844-.058594-.140625-.0625-.066406-.007813-.085937 0-.128906.039062-.042969.035157-.042969.035157-.074219.023438-.027344-.007813-.03125-.027344-.023438-.125.019532-.171875.070313-.320313.144532-.414063.019531-.027344.046875-.070312.054687-.09375.046875-.121094.113281-.457031.152344-.769531.011719-.109375.035156-.25.042969-.320313.054687-.3125.070312-.589843.042968-.683593-.011718-.042969-.050781-.089844-.109374-.136719-.042969-.03125-.042969-.046875.003906-.097656.058594-.0625.109375-.160156.214844-.402344.003906-.015625.019531-.0625.035156-.109375.039062-.121094.078125-.222656.089844-.226563.003906-.003906.042968.011719.085937.03125.132813.066407.167969.074219.449219.074219.25 0 .507812-.019531.617187-.046875.070313-.015625.375-.011718.460938.007813.089843.015625.300781.082031.359375.109375.046875.023437.179687.148437.238281.222656.042969.058594.089844.132812.082031.140625 0 0-.027344-.011719-.058594-.03125-.054687-.03125-.0625-.035156-.101562-.03125-.058594.003906-.066406.015625-.148438.132813-.089843.128906-.199218.277343-.234374.316406-.023438.027344-.027344.027344-.0625.023437-.019532-.003906-.074219-.019531-.121094-.03125-.117188-.035156-.1875-.039062-.328125-.015625-.195313.03125-.304688.042969-.402344.042969-.125 0-.117187-.007813-.15625.195313-.015625.089843-.03125.195312-.039063.238281-.007812.070312-.007812.082031.003907.09375.015625.011719.03125.015625.429687.035156.140625.003906.1875.011719.253906.027344.046876.011719.085938.027343.09375.03125.007813.007812.019532.066406.03125.160156.011719.085937.101563.214844.164063.230469.039063.011718.035156.035156-.007813.050781-.152343.058594-.148437.054687-.335937.0625-.152344.003906-.390625.027344-.609375.058594-.03125.003906-.066406.007812-.074219.007812-.007812 0-.023437.011719-.039062.023438-.019531.019531-.027344.039062-.046875.101562-.027344.105469-.039063.238281-.023438.25.007813.007813.058594.015625.1875.019531.367188.015626.574219.027344.757813.039063.101562.007813.269531.011719.371093.011719.179688 0 .191407 0 .207032.015625.011718.019531.011718.019531-.015625.039062-.058594.046875-.148438.144531-.167969.1875-.027344.054688-.050781.125-.066406.21875-.03125.15625-.0625.234375-.105469.273438-.066406.058593-.214844.105469-.324219.105469-.039062 0-.121094.003906-.179687.007812-.21875.015625-.429688.027344-.773438.035156-.191406.003906-.375.007813-.40625.011719-.03125 0-.066406 0-.078125 0zm-7.433594-.054687c-.1875-.027344-.230468-.039063-.382812-.089844-.175781-.058594-.34375-.132813-.359375-.164063-.007813-.011719-.019531-.023437-.023437-.023437-.007813 0-.019532-.011719-.027344-.023438-.011719-.011718-.039063-.035156-.066406-.054687-.027344-.015625-.09375-.078125-.148438-.132813-.167969-.167968-.230469-.253906-.300781-.417968-.054688-.128907-.070313-.1875-.085938-.339844-.007812-.066406-.019531-.160156-.027343-.207032-.019532-.128906-.027344-.222656-.042969-.484374-.019531-.398438-.023438-.566407-.007813-.667969.007813-.046875.023438-.152344.035156-.234375.011719-.082032.027344-.183594.035157-.226563.003906-.042969.019531-.128906.027343-.1875.027344-.195312.0625-.332031.101563-.425781.019531-.050781.054687-.125.070313-.171875.046874-.105469.160156-.378906.273437-.546875.070313-.101562.15625-.191406.25-.273438.128906-.109374.320313-.234374.421875-.285156.09375-.046875.277344-.121094.421875-.15625.15625-.035156.351563-.058594.480469-.054687.273437.007812.300781.007812.449218.039062.105469.019531.207032.050781.300782.101563.148437.082031.285156.195312.394531.324218.078125.085938.253906.347657.304687.449219.019532.039063.042969.101563.054688.132813.007812.03125.027344.082031.039062.105468.007813.027344.03125.105469.042969.179688.023438.117188.027344.136719.023438.238281-.007813.140625-.023438.21875-.058594.308594-.023437.058594-.035156.074219-.101563.140625-.078124.078125-.160156.136719-.273437.203125-.097656.050781-.394531.199219-.40625.199219-.007813 0-.015625.003906-.019531.007812-.003906.007813-.09375.039063-.144532.042969-.035156.007813-.042968.003906-.066406-.019531-.023437-.019532-.023437-.027344-.019531-.050782.007813-.039062.015625-.042968.0625-.042968.042969.003906.046875.003906.074219-.03125.058594-.074219.0625-.078125.058594-.164063-.003907-.113281-.023438-.273437-.042969-.324219-.023438-.058593-.097657-.203124-.136719-.265624-.042969-.074219-.074219-.105469-.191406-.203126-.054688-.042968-.101563-.082031-.109375-.089843-.003907-.003907-.035157-.023438-.070313-.042969-.109375-.0625-.214844-.066406-.3125-.015625-.089844.046875-.292968.269531-.386718.429687-.128907.214844-.203126.449219-.230469.707032-.003907.050781-.007813.207031-.007813.351562 0 .335938.007813.386719.09375.542969.023438.035156.039063.066406.039063.070313 0 .007812.007812.019531.015625.03125.011718.007812.042968.054687.070312.101562.035156.050781.082032.109375.121094.148438.039062.035156.070312.066406.074219.066406 0 0 .027343.023437.058593.050781.066407.054687.144532.097656.261719.132813.140625.042968.207031.050781.460938.054687.199219 0 .238281 0 .296875-.015625.035156-.007812.085937-.019531.109375-.023438.050781-.007812.085937-.011718.117187-.019531.011719-.003906.03125-.003906.042969-.003906s.027344-.003906.035156-.007813c.007813-.003906.039063-.007812.074219-.011718s.082031-.007813.105469-.007813c.046875-.007812.085937.003907.085937.019531 0 .003907-.015625.027344-.03125.054688-.0625.105469-.1875.351562-.210937.40625-.019531.058594-.015625.160156.007812.199219.023438.039062.019531.054687-.011719.09375-.015624.019531-.03125.039062-.03125.042969 0 .003906-.003906.011718-.011718.015624-.003906.003907-.015625.015626-.019532.027344-.03125.058594-.265624.324219-.3125.351563-.074218.046875-.332031.105469-.625.140625-.070312.007812-.195312.015625-.324218.015625-.1875.003906-.21875 0-.363282-.019531zm5.671876-3.347657c-.003907-.003906-.289063-.035156-.496094-.054687-.214844-.019532-.347656-.050782-.375-.085938-.019532-.023437 0-.105468.089844-.441406.011718-.054688.03125-.152344.042968-.214844.007813-.066406.023438-.152344.03125-.195312.015625-.050782.015625-.089844.015625-.136719-.003906-.050781-.003906-.058594.007813-.058594.007812 0 .054687.007813.109375.015625.050781.007813.15625.023438.230469.03125.070312.003906.15625.015625.183593.019532.03125.003906.140625.011718.246094.015624.105469.003907.195313.011719.199219.015626.003906 0 .027344.046874.050781.097656.042969.082031.046875.09375.035156.105468-.035156.035157-.347656.023438-.59375-.019531-.152343-.027343-.144531-.03125-.160156.046875-.019531.113282-.011719.128906.101563.140625.125.015625.199218.027344.199218.039063v.054687c-.003906.042969 0 .050781.023438.078125.015625.015625.023437.035156.019531.039063-.003906.007812-.046875.007812-.160156.003906-.183594-.007813-.21875-.007813-.230469.007813-.015625.015624-.03125.140624-.015625.152343.019531.023438.242187.0625.386719.070313.082031.003906.1875.015625.242187.023437.050781.003907.109375.011719.128907.011719.042968 0 .050781.011719.027343.035156-.007812.011719-.015625.023438-.015625.027344s-.011718.023438-.023437.039062c-.027344.046876-.03125.070313-.011719.101563.007812.015625.015625.03125.011719.035156-.003907.003907-.296875.007813-.300781 0zm-1.210938-.21875c-.046875-.035156-.078125-.035156-.15625-.011719-.082031.027344-.082031.023438-.082031-.140624 0-.078126.003906-.175782.015625-.238282l.015625-.109375-.027344-.03125c-.039063-.046875-.085937-.074219-.152344-.09375-.0625-.019531-.078125-.019531-.089843-.007812-.003907.007812-.011719.058593-.019532.117187-.027344.230469-.035156.238282-.152344.277344-.046874.015625-.09375.03125-.105468.039062-.101563.042969-.164063.0625-.164063.046876 0 0 .019531-.039063.042969-.082032.046875-.089844.050781-.109375.070312-.292968.015626-.148438.011719-.191407-.019531-.21875-.027343-.023438-.097656-.054688-.128906-.054688-.019531 0-.03125-.003906-.03125-.011719 0-.011719.125-.097656.199219-.136719.050781-.023437.042968-.007812.089844-.25.035156-.195312.03125-.191406.042968-.191406.003906 0 .039063.027344.074219.0625s.09375.078125.125.097656c.03125.019532.0625.039063.066406.046876.007813.007812.007813.03125-.003906.082031-.007813.035156-.015625.085937-.015625.109375l-.007812.039062.066406.039063c.035156.023437.089844.058593.117187.078125.03125.019531.058594.035156.066407.035156.023437 0 .050781-.097656.050781-.183594.003906-.074218.007812-.074218.113281-.03125.074219.03125.101562.035156.144531.039063.027344 0 .050781 0 .054688.003906.003906.003906-.003907.066406-.011719.136719-.007812.070312-.019531.203125-.023438.292968-.011718.210938-.015624.234376-.039062.308594-.03125.09375-.046875.148438-.050781.199219-.003907.078125-.007813.078125-.074219.035156zm-1.542969-.085937c-.011719-.003906-.023437-.007813-.035156-.015625-.007813-.007813-.035156-.011719-.054687-.011719-.039063 0-.039063 0-.035157-.019531.015625-.066407.042969-.238281.046875-.28125.003906-.03125.011719-.152344.019532-.265625.003906-.117188.011718-.25.015624-.292969.007813-.097656-.003906-.152344-.03125-.167969-.015624-.007812-.074218-.007812-.253906-.007812-.25.003906-.261718 0-.242187-.035156.007812-.007813.007812-.039063.003906-.070313 0-.042969-.007813-.0625-.035156-.097656-.015625-.027344-.042969-.0625-.0625-.078125-.015625-.015625-.03125-.03125-.03125-.035156 0-.015626.277343-.011719.410156.007812.125.015625.160156.015625.34375 0 .078125-.007812.164063-.027344.171875-.042969.003906-.003906.011719-.007812.019531-.007812.015625 0 .019531.007812.023438.042969.003906.027343.007812.054687.015625.0625.011718.019531.109375.027343.285156.027343.167969 0 .171875.003907.152344.054688-.007813.015625-.03125.050781-.054688.082031-.066406.078125-.09375.09375-.246094.101562-.066406.003907-.121093.011719-.125.015626-.007812.003906-.027343.269531-.039062.441406 0 .058594 0 .152344.011719.253906.011719.128906.011719.175781.003906.214844-.007813.054687-.035156.09375-.070313.109375-.027343.011719-.179687.023437-.207031.015625zm0 0" fill="#ccc"/></svg>