<svg height="17pt" viewBox="0 0 17 17" width="17pt" xmlns="http://www.w3.org/2000/svg"><path d="m3.96875 1.007812h9.0625c1.632812 0 2.960938 1.328126 2.960938 2.960938v9.0625c0 1.632812-1.328126 2.960938-2.960938 2.960938h-9.0625c-1.632812 0-2.960938-1.328126-2.960938-2.960938v-9.0625c0-1.632812 1.328126-2.960938 2.960938-2.960938zm0 0" fill="#65c57a" fill-rule="evenodd"/><path d="m8.5 2.949219c-.878906 0-1.585938.707031-1.585938 1.585937v1.851563l-.703124-.703125c-.472657-.472656-1.238282-.472656-1.714844 0-.476563.476562-.476563 1.242187 0 1.71875l2.289062 2.285156-2.289062 2.289062c-.476563.476563-.476563 1.242188 0 1.714844.476562.476563 1.242187.476563 1.714844 0l1.464843-1.464844c.242188.148438.519531.238282.824219.238282s.582031-.089844.824219-.238282l1.464843 1.464844c.472657.476563 1.238282.476563 1.714844 0 .476563-.472656.476563-1.238281 0-1.714844l-2.289062-2.289062 2.289062-2.285156c.476563-.476563.476563-1.242188 0-1.71875-.476562-.472656-1.242187-.472656-1.714844 0l-.703124.703125v-1.851563c0-.878906-.707032-1.585937-1.585938-1.585937zm0 0" fill="#2d5a37"/><path d="m12.464844 9.492188c0-2.300782-1.777344-4.164063-3.964844-4.164063s-3.964844 1.863281-3.964844 4.164063c0 2.296874 1.777344 4.160156 3.964844 4.160156s3.964844-1.863282 3.964844-4.160156zm0 0" fill="#6d7481"/><path d="m6.132812 7.300781c-.105468-.003906-.210937.039063-.285156.113281-.074218.078126-.117187.179688-.117187.289063v1.523437.003907c0 .003906 0 .007812-.003907.011719v.035156.035156c0 .003906 0 .011719.003907.015625v.023437 1.519532c0 .023437.003906.046875.003906.070312.003906.011719.007813.023438.011719.039063 0 .011719.003906.023437.011718.035156.003907.011719.007813.023437.011719.035156 0 0 .003907.003907.003907.003907.003906.011718.011718.023437.019531.03125.003906.011718.011719.023437.019531.035156l.027344.027344c.007812.011718.015625.019531.027344.027343v.003907c.011718.007812.019531.015624.03125.023437.011718.007813.023437.011719.03125.019531h.003906c.007812.003906.015625.007813.023437.011719.003907.003906.011719.007813.015625.007813.011719.003906.019532.007812.03125.011718.023438.007813.046875.011719.070313.015625.003906 0 .011719.003907.019531.003907h.003906.03125.027344.003906.003906c.003907 0 .011719-.003907.019532-.003907.023437-.003906.042968-.007812.066406-.015625.011719-.003906.023438-.007812.035156-.011718h.003906c.011719-.007813.023438-.011719.03125-.019532h.003907c.023437-.011718.042969-.027344.0625-.042968 0-.003907 0-.003907.003906-.003907.007813-.007812.015625-.015625.023437-.027343.011719-.007813.019532-.019532.027344-.027344.007813-.011719.015625-.023438.023438-.035156.007812-.007813.011718-.019532.019531-.03125v-.003907c.003906-.011719.011719-.023437.015625-.035156s.007812-.023437.011719-.035156c.003906-.015625.003906-.027344.007812-.039063.003907-.023437.003907-.046875.003907-.070312v-1.1875h.792968v1.1875c0 .023437 0 .046875.003906.070312.003907.011719.007813.023438.011719.039063 0 .011719.003907.023437.011719.035156.003906.011719.007812.023437.011719.035156v.003907c.007812.011718.015625.023437.019531.03125.007812.011718.015625.023437.023438.035156.007812.007812.015624.019531.027343.027344.007813.011718.015625.019531.023438.027343h.003906v.003907c.011719.007812.019531.015624.03125.023437s.019531.011719.03125.019531h.003906c.007813.003906.015625.007813.023438.011719.003906.003906.007812.003906.011719.007813h.003906c.011718.003906.019531.007812.03125.011718.023437.007813.046875.011719.070312.015625.003906.003907.011719.003907.019532.003907h.003906.03125.027344.003906.003906c.003906 0 .011719 0 .019531-.003907.019531-.003906.042969-.007812.066407-.015625.011718-.003906.023437-.007812.035156-.011718h.003906c.011719-.007813.019531-.011719.03125-.019532h.003906c.019532-.011718.042969-.027344.0625-.042968 0 0 0 0 0-.003907h.003906c.007813-.007812.015626-.015625.023438-.027343.011719-.007813.019531-.019532.027344-.027344.007812-.011719.015625-.023438.023437-.035156.003907-.007813.011719-.019532.019531-.03125 0-.003907 0-.003907 0-.003907.003907-.011719.007813-.023437.015626-.035156.003906-.011719.007812-.023437.011718-.035156 0-.015625.003906-.027344.007813-.039063.003906-.023437.003906-.046875.003906-.070312v-1.519532c0-.007812.003906-.015624.003906-.023437 0-.003906 0-.011719 0-.015625 0-.007812 0-.015625 0-.023438 0-.007812 0-.015624 0-.023437 0-.003906 0-.003906 0-.003906 0-.011719 0-.023438-.003906-.035157v-1.523437c0-.109375-.039063-.210937-.117187-.289063-.074219-.074218-.179688-.117187-.285157-.113281-.101562 0-.195312.039063-.265625.109375-.011718.007813-.019531.015625-.03125.027344-.003906.007812-.011718.015625-.015625.023438-.007812.007812-.011719.011718-.015625.019531 0 .003906-.003906.003906-.003906.007812-.054688.082031-.074219.179688-.058594.273438v1.128906h-.792968v-1.128906c.015624-.09375-.003907-.191407-.058594-.273438v-.003906c-.003906-.003906-.007813-.011719-.011719-.015625s-.003906-.003906-.003906-.007812c-.007813-.007813-.015625-.015626-.019531-.023438-.011719-.011719-.019532-.019531-.03125-.027344-.070313-.070312-.164063-.109375-.265626-.109375zm3.554688.800781c-.65625 0-1.1875.535157-1.1875 1.191407s.53125 1.1875 1.1875 1.1875c.101562 0 .199219-.011719.296875-.039063-.011719.035156-.015625.074219-.027344.105469-.054687.160156-.125.257813-.199219.304687-.070312.050782-.160156.082032-.382812.035157-.214844-.046875-.425781.089843-.46875.304687-.046875.214844.089844.425782.304688.472656.371093.078126.726562.023438.988281-.152343.265625-.175781.417969-.441407.507812-.707031.183594-.527344.171875-1.117188.171875-1.511719 0-.015625 0-.03125-.003906-.046875-.023438-.636719-.546875-1.140625-1.1875-1.144532zm0 .792969c.21875 0 .398438.179688.398438.398438s-.179688.394531-.398438.394531-.394531-.175781-.394531-.394531.175781-.398438.394531-.398438zm0 0" fill="#c4c4c4"/></svg>