<svg height="17pt" viewBox="0 0 17 17" width="17pt" xmlns="http://www.w3.org/2000/svg"><path d="m3.96875 1.007812h9.0625c1.632812 0 2.960938 1.328126 2.960938 2.960938v9.0625c0 1.632812-1.328126 2.960938-2.960938 2.960938h-9.0625c-1.632812 0-2.960938-1.328126-2.960938-2.960938v-9.0625c0-1.632812 1.328126-2.960938 2.960938-2.960938zm0 0" fill="#ccc" fill-rule="evenodd"/><path d="m12.75 3.1875h-8.5l-.265625 4.25h.796875c.105469-.734375.21875-1.453125.386719-1.925781.394531-1.074219.703125-1.238281 1.738281-1.238281.5 0 .796875.164062.796875.53125v7.285156c0 .617187 0 .660156-1.148437.660156h-.445313v1.0625h4.78125v-1.0625h-.445313c-1.214843 0-1.148437-.042969-1.148437-.660156v-7.285156c0-.367188.296875-.53125.796875-.53125.925781 0 1.265625.105468 1.648438.988281.226562.546875.355468 1.335937.476562 2.175781h.796875zm0 0" fill="#4d4d4d"/></svg>