<svg height="17pt" viewBox="0 0 17 17" width="17pt" xmlns="http://www.w3.org/2000/svg" xmlns:xlink="http://www.w3.org/1999/xlink"><filter id="a" height="100%" width="100%" x="0%" y="0%"><feColorMatrix in="SourceGraphic" type="matrix" values="0 0 0 0 1 0 0 0 0 1 0 0 0 0 1 0 0 0 1 0"/></filter><mask id="b"><g filter="url(#a)"><path d="m0 0h17v17h-17z" fill-opacity=".2"/></g></mask><clipPath id="c"><path d="m0 0h17v17h-17z"/></clipPath><g fill-rule="evenodd"><path d="m3.96875 1.007812h9.0625c1.632812 0 2.960938 1.328126 2.960938 2.960938v9.0625c0 1.632812-1.328126 2.960938-2.960938 2.960938h-9.0625c-1.632812 0-2.960938-1.328126-2.960938-2.960938v-9.0625c0-1.632812 1.328126-2.960938 2.960938-2.960938zm0 0" fill="#fff"/><path d="m5.398438 9.519531c-.195313 0-.367188.117188-.441407.296875l-1.191406 2.796875c-.132813.316407.097656.660157.4375.660157h8.59375c.339844 0 .570313-.34375.4375-.660157l-1.191406-2.796875c-.074219-.179687-.246094-.296875-.441407-.296875zm0 0" fill="#f80"/><path d="m8.5 3.726562c-.214844-.003906-.4375.03125-.65625.121094-.132812.054688-.238281.167969-.277344.308594l-.441406 1.480469c.695312 1.496093 2.089844.492187 2.75 0l-.441406-1.480469c-.042969-.148438-.15625-.265625-.300782-.316406-.203124-.070313-.414062-.113282-.632812-.113282zm-1.9375 3.820313-.53125 1.792969c.171875 1.515625 2.839844 1.199218 4.917969-.0625l-.511719-1.730469c-1.3125.523437-1.84375-1-3.875 0zm0 0" fill="#f80"/><path d="m7.125 5.640625-1.09375 3.695313.53125-1.789063c1.460938.65625 2.5625.523437 3.875 0l .511719 1.730469c-2.074219 1.257812-4.402344.363281-4.917969.058594l-.375 1.269531c-.058594.195312.015625.410156.183594.527343.734375.511719 1.691406.71875 2.640625.710938.953125-.011719 1.90625-.234375 2.65625-.695312.183593-.113282.269531-.335938.207031-.542969l-1.46875-4.964844c-.660156.476563-2.089844.476563-2.75 0zm0 0" fill="#fff"/></g><g clip-path="url(#c)" mask="url(#b)"><path d="m8.464844 3.726562c-.507813 0-.84375.152344-.84375.359376 0 .054687.035156.113281.09375.167968.132812-.113281.398437-.1875.75-.1875.347656 0 .667968.09375.835937.21875.070313-.054687.125-.109375.125-.160156 0-.203125-.457031-.398438-.960937-.398438zm0 0" fill="#fff"/></g></svg>