<svg height="17pt" viewBox="0 0 17 17" width="17pt" xmlns="http://www.w3.org/2000/svg"><path d="m15.9375 3.703125c-.027344-.308594-.0625-.617187-.179688-.886719-.148437-.355468-.363281-.675781-.632812-.941406-.269531-.269531-.585938-.484375-.941406-.636719-.269532-.113281-.578125-.148437-.882813-.175781h-4.800781v7.4375h7.4375zm0 0" fill="#f7c73c"/><path d="m3.699219 1.0625c-.304688.027344-.613281.0625-.882813.175781-.355468.152344-.675781.367188-.941406.636719-.269531.265625-.484375.585938-.636719.941406-.113281.269532-.148437.578125-.175781.882813v4.800781h7.4375v-7.4375zm0 0" fill="#14ddb1"/><path d="m13.300781 15.9375c.304688-.027344.613281-.0625.882813-.175781.355468-.152344.675781-.367188.941406-.636719.269531-.265625.484375-.585938.636719-.941406.113281-.269532.148437-.578125.175781-.882813v-4.800781h-7.4375v7.4375zm0 0" fill="#14ddb1"/><path d="m1.0625 13.296875c.027344.308594.0625.617187.179688.886719.148437.355468.363281.675781.632812.941406.269531.269531.585938.484375.941406.636719.269532.113281.578125.148437.882813.175781h4.800781v-7.4375h-7.4375zm0 0" fill="#2086e7"/><path d="m5.058594 2.808594h6.882812c1.242188 0 2.25 1.007812 2.25 2.25v6.882812c0 1.242188-1.007812 2.25-2.25 2.25h-6.882812c-1.242188 0-2.25-1.007812-2.25-2.25v-6.882812c0-1.242188 1.007812-2.25 2.25-2.25zm0 0" fill="#3f3f3f" fill-rule="evenodd"/><g fill="none" stroke="#fff" stroke-linecap="round" stroke-width="2" transform="matrix(.427319 0 0 .427319 -2.101609 19.33806)"><path d="m16.81094-18.351534h7.998627"/><path d="m24.809567-32.355988v5.996685c0 1.517454-1.042107 2.029366-1.992801 2.001942-.895846.009141-2.001942-.466206-2.001942-2.001942v-5.996685m0 0v5.996685c0 1.517454-1.042107 2.029366-2.001942 2.001942-.895847.009141-2.001942-.466206-2.001942-2.001942v-5.996685" stroke-linejoin="bevel"/><path d="m28.813451-25.353761s.502771.9964 2.001943.9964c1.49003 0 2.001942-.9964 2.001942-2.001942 0-4.214134-4.003885.21025-3.994743-3.985602-.009142-1.014683.475347-2.011083 1.992801-2.011083s2.001942.9964 2.001942.9964" stroke-linejoin="round"/></g></svg>