<svg height="17pt" viewBox="0 0 17 17" width="17pt" xmlns="http://www.w3.org/2000/svg"><path d="m3.96875 1.007812h9.0625c1.632812 0 2.960938 1.328126 2.960938 2.960938v9.0625c0 1.632812-1.328126 2.960938-2.960938 2.960938h-9.0625c-1.632812 0-2.960938-1.328126-2.960938-2.960938v-9.0625c0-1.632812 1.328126-2.960938 2.960938-2.960938zm0 0" fill="#f25b6f" fill-rule="evenodd"/><path d="m8.535156 2.359375c-.265625-.003906-.527344.058594-.757812.1875l-4.253906 2.371094c-.449219.25-.722657.710937-.722657 1.210937v4.742188c0 .5.273438.960937.722657 1.210937l4.253906 2.371094c.445312.25 1 .25 1.445312 0l4.253906-2.371094c.449219-.25.726563-.710937.722657-1.210937v-4.742188c0-.5-.273438-.960937-.722657-1.210937l-4.253906-2.371094c-.210937-.117187-.445312-.179687-.6875-.1875zm0 0" fill="#4f4f4f"/><path d="m10.167969 4.992188c-.65625 0-1.25.335937-1.667969.84375-.414062-.507813-1.011719-.84375-1.667969-.84375-1.257812 0-2.277343 1.160156-2.277343 2.589843 0 .386719.058593.757813.164062 1.109375 0 0 .09375.320313.175781.496094.960938 2.242188 3.605469 3.699219 3.605469 3.699219s2.644531-1.457031 3.605469-3.699219c.957031-2.246094.121093-.300781.175781-.496094.101562-.355468.164062-.722656.164062-1.109375 0-1.429687-1.019531-2.589843-2.277343-2.589843zm0 0" fill="#f25b6f"/></svg>