<svg height="17pt" viewBox="0 0 17 17" width="17pt" xmlns="http://www.w3.org/2000/svg"><g fill-rule="evenodd"><path d="m5.15625 15.992188 3.34375-7.492188-7.492188-3.34375v7.875c0 1.640625 1.320313 2.960938 2.960938 2.960938zm0 0" fill="#a0002f"/><path d="m15.992188 11.84375-7.492188-3.34375-3.34375 7.492188h7.875c1.640625 0 2.960938-1.320313 2.960938-2.960938zm0 0" fill="#c3283a"/><path d="m11.84375 1.007812-3.34375 7.492188 7.492188 3.34375v-7.875c0-1.640625-1.320313-2.960938-2.960938-2.960938zm0 0" fill="#a0002f"/><path d="m1.007812 5.15625 7.492188 3.34375 3.34375-7.492188h-7.875c-1.640625 0-2.960938 1.320313-2.960938 2.960938zm0 0" fill="#c3283a"/></g><path d="m8.425781 12.839844c-.042969-.019532-.074219-.050782-.097656-.089844l-.015625-.03125v-.414062l-.003906-.410157-.066406-.003906c-.125-.007813-.292969-.03125-.441407-.0625-.550781-.117187-1.054687-.363281-1.488281-.726563l-.078125-.066406-.285156.28125c-.320313.320313-.316407.316406-.394531.316406-.054688 0-.097657-.015624-.136719-.058593-.039063-.042969-.054688-.078125-.054688-.132813 0-.074218-.003906-.070312.316407-.390625l.285156-.285156-.050782-.058594c-.203124-.238281-.386718-.527343-.515624-.8125-.160157-.359375-.265626-.773437-.289063-1.144531l-.003906-.0625h-.414063l-.410156-.003906-.035156-.015625c-.039063-.019531-.070313-.054688-.085938-.097657-.011718-.027343-.011718-.042968-.011718-.082031.003906-.078125.035156-.128906.097656-.160156l.035156-.015625h.414062l.410157-.003906v-.027344c0-.039062.015625-.195312.035156-.304688.050781-.347656.160156-.6875.324219-1.007812.125-.25.292968-.503906.460937-.691406l.039063-.042969-.285156-.285156c-.320313-.324219-.3125-.3125-.3125-.394531.003906-.039063.003906-.058594.015624-.078126.015626-.039062.050782-.074218.089844-.09375.027344-.011718.039063-.015624.082032-.015624.085937 0 .074218-.007813.394531.3125l.285156.285156.066406-.058594c.132813-.113281.308594-.238281.464844-.335938.109375-.0625.355469-.183593.480469-.234374.300781-.117188.59375-.1875.917968-.222657.046876-.003906.101563-.007812.117188-.007812h.027344l.003906-.410157v-.410156l.015625-.03125c.019531-.039062.050781-.070312.089844-.089844.023437-.011718.035156-.015624.082031-.015624s.058594.003906.082031.015624c.039063.019532.070313.050782.085938.089844l.019531.03125v.820313h.03125c.015625 0 .070312.003906.117188.007812.324218.035157.617187.105469.917968.222657.125.050781.371094.171874.476563.234374.160156.097657.335937.222657.46875.335938l.066406.058594.28125-.28125c.320313-.320313.3125-.316406.398437-.316406.042969 0 .054688.003906.082032.015624.039062.019532.074218.054688.089844.09375.011718.019532.011718.039063.011718.078126 0 .082031.011719.070312-.308594.394531l-.285156.285156.042969.046875c.167969.195312.339844.453125.460937.695312.199219.394532.324219.847657.351563 1.269532l.003906.0625.414063.003906h.410156l.035156.015625c.0625.03125.097656.09375.097656.171875 0 .074219-.035156.136719-.097656.167969l-.035156.015625-.410156.003906h-.414063l-.003906.0625c0 .035156-.011719.117188-.019531.175781-.082032.664063-.363282 1.292969-.796875 1.796875l-.039063.042969.285156.285156c.320313.320313.316407.316407.316407.390625 0 .035156-.003907.054688-.015625.074219-.015625.039063-.058594.082031-.097656.101563-.027344.015624-.042969.015624-.078126.015624-.078124 0-.074218.003907-.394531-.316406l-.285156-.28125-.078125.066406c-.433594.363282-.9375.609376-1.488281.726563-.148438.03125-.316407.054687-.445313.0625l-.066406.003906v.824219l-.019531.03125c-.03125.066406-.089844.101562-.171875.101562-.027344 0-.050782-.007812-.070313-.011718zm-.667969-4.15625c.363282-.042969.675782-.265625.832032-.59375.105468-.21875.128906-.492188.058594-.726563-.097657-.335937-.351563-.601562-.6875-.707031-.109376-.035156-.179688-.046875-.3125-.046875-.136719 0-.203126.011719-.3125.046875-.253907.078125-.464844.253906-.59375.480469-.183594.324219-.175782.730469.015624 1.046875.085938.144531.214844.269531.359376.355468.1875.117188.421874.167969.640624.144532zm0 0" fill="#fff"/></svg>