<svg height="16" width="16" xmlns="http://www.w3.org/2000/svg"><path d="m15 14.25v-13.50000001c0-.4155-.3345-.75-.75-.75h-13.5c-.4155 0-.75.3345-.75.75v13.50000001c0 .4155.3345.75.75.75h13.5c.4155 0 .75-.3345.75-.75z" fill="#89c025"/><path d="m5 2v2h2v-2z" opacity=".4"/><path d="m2 2v2h2v-2z" opacity=".4"/><path d="m8 2v2h2v-2z" opacity=".4"/><path d="m11 2v2h2v-2z" opacity=".4"/><path d="m5 5v2h2v-2z" opacity=".4"/><path d="m2 5v2h2v-2z" opacity=".4"/><path d="m8 5v2h2v-2z" opacity=".4"/><path d="m11 5v2h2v-2z" opacity=".4"/><path d="m5 8v2h2v-2z" opacity=".4"/><path d="m2 8v2h2v-2z" opacity=".4"/><path d="m8 8v2h2v-2z" opacity=".4"/><path d="m11 8v2h2v-2z" opacity=".4"/><path d="m5 11v2h2v-2z" opacity=".4"/><path d="m2 11v2h2v-2z" opacity=".4"/><path d="m8 11v2h2v-2z" opacity=".4"/><path d="m11 11v2h2v-2z" opacity=".4"/></svg>