<svg height="32" width="32" xmlns="http://www.w3.org/2000/svg"><rect fill="#f39019" fill-rule="evenodd" height="28.203388" ry="5.575182" width="28.203388" x="1.898306" y="1.898306"/><g transform="translate(43.804686 2.154297)"><g fill-rule="evenodd"><path d="m-24.222656 27.947266c-.135017-.419092-.224175-.840496-.480469-1.25-.705186-1.12674-1.972483-2.083388-2.490234-3.214844-.356682-.779465-.420735-1.609828-.244141-2.50586.176594-.896031.592995-1.856898 1.199219-2.898437-1.750813 1.809504-3.15542 3.713707-4.166016 5.537109-.505298.911702-.913098 1.803047-1.214844 2.652344-.211135.594265-.301858 1.13425-.408203 1.679688z" fill="#ffff7e"/><path d="m-21.162109 27.947266c.219338-1.003121.274822-2.107916.134765-3.302735-.144942-1.236495-.478902-2.558275-.988281-3.929687-.509379-1.371413-1.19583-2.791827-2.048828-4.226563-.852999-1.434735-1.871076-2.884083-3.046875-4.310547s-2.508546-2.8311361-3.986328-4.177734c1.023371 1.6330815 1.72728 3.170343 2.02539 4.646484.149056.738071.197879 1.46182.132813 2.173828-.06507.712009-.243864 1.412695-.544922 2.107422-.437011 1.008456-1.190982 1.982098-1.984375 2.958985s-1.625488 1.956649-2.220703 2.980469c-.682958 1.174743-1.115571 2.360687-1.283203 3.488281-.08496.571506.101403 1.058902.154297 1.591797h2.791015c.106345-.545438.197068-1.085423.408203-1.679688.301746-.849297.709546-1.740642 1.214844-2.652344 1.010596-1.823402 2.415203-3.727605 4.166016-5.537109-.606224 1.041539-1.022625 2.002406-1.199219 2.898437-.176594.896032-.112541 1.726395.244141 2.50586.517751 1.131456 1.785048 2.088104 2.490234 3.214844.256294.409504.345452.830908.480469 1.25z" fill="#f3b326"/><path d="m-26.837891 1.2890625c-1.345535 1.2359305-2.674622 2.8116575-3.658203 4.34375-.49179.7660462-.896997 1.5210109-1.175781 2.2167969s-.429965 1.3320029-.414063 1.8613281c.01841.6128165.01922 2.4267795-.0293 3.9707035-.04851 1.543924-.146334 2.818063-.326172 2.349609-1.141337-1.208564-2.370033-2.314915-3.734375-3.259766-1.364342-.94485-2.864837-1.727189-4.554688-2.287109.572229.402007 1.040742.818003 1.41211 1.248047.371367.430044.644606.872494.828125 1.326172.183518.453677.276474.91967.285156 1.392578.0087.472908-.06561.953671-.21875 1.441406-.524143 1.669311-.875897 3.189558-1.074219 4.572266-.198321 1.382707-.242815 2.627103-.15625 3.746094.08532 1.102861.302427 2.078504.625 2.947265.809801.457399 1.69704.789063 2.697266.789063h1.513672c-.05289-.532895-.239259-1.020291-.154297-1.591797.167632-1.127594.600245-2.313538 1.283203-3.488281.595215-1.02382 1.42731-2.003582 2.220703-2.980469s1.547364-1.950529 1.984375-2.958985c.301058-.694727.479856-1.395413.544922-2.107422.06507-.712008.01624-1.435757-.132813-2.173828-.29811-1.476141-1.002019-3.0134025-2.02539-4.646484 1.477782 1.3465979 2.810529 2.75127 3.986328 4.177734s2.193876 2.875812 3.046875 4.310547c.852998 1.434736 1.539449 2.85515 2.048828 4.226563.509379 1.371412.843339 2.693192.988281 3.929687.140057 1.194819.08457 2.299614-.134765 3.302735h1.882812c1.175474 0 2.202254-.444296 3.099609-1.060547.104386-.201471.277053-.334232.367188-.548828.448677-1.068226.713255-2.302675.722656-3.726563.0094-1.423888-.235238-3.038904-.808594-4.86914.09054.85087-.108724 1.601426-.458984 2.214843s-.852084 1.090268-1.371094 1.394531c-.51901.304265-1.054994.435964-1.470703.359376-.415709-.07659-.711595-.361482-.751953-.890626-.101116-1.325748-.341423-2.451667-.679687-3.427734-.338265-.976066-.774312-1.80254-1.261719-2.53125-.974814-1.45742-2.159783-2.521566-3.203125-3.603516-.521671-.540974-1.00727-1.086905-1.414063-1.6874995-.406792-.6005947-.735545-1.2569906-.939453-2.0195313-.203908-.7625405-.284249-1.6313912-.197265-2.6582031.08698-1.0268119.342712-2.2101068.808593-3.6035156z" fill="#f39019"/><path d="m-13.703125 14.367188v-9.0468755c0-3.0886508-2.487521-5.57617187-5.576172-5.57617188h-6.371094c-.0952.6018737-.257605 1.31719018-.289062 1.81249998-.06284.9894958-.003 1.7813295.15625 2.4375.159283.6561706.419389 1.1776298.757812 1.6230469.338424.4454171.753938.8165926 1.228516 1.1738281.949156.714471 2.129375 1.373528 3.365234 2.4707032.61793.5485875 1.249874 1.2070352 1.875 2.0351562.625127.828121 1.242694 1.826414 1.832032 3.056641.18561.387456.449462.640143.751953.779296.302491.139154.643697.165206.980468.09961.336772-.0656.670532-.222427.958985-.449219.13808-.108563.217064-.277894.330078-.416015z" fill="#1a1a1a"/><path d="m-27.693359-.25585938h-8.638672c-3.088651 0-5.574219 2.48752108-5.574219 5.57617188v3.5644531c.515495.097483 1.144362.1591221 1.591797.2636719 1.302323.3043075 2.26672.6195539 2.605469.8339844.02713-.286593 1.722059-2.401408 4.105468-4.8925781 1.191705-1.2455851 2.55457-2.585089 3.96875-3.8378907.64283-.56947323 1.289335-.9913402 1.941407-1.50781248z" fill="#1a1a1a"/><path d="m-27.693359-.25585938c-.652072.51647228-1.298577.93833925-1.941407 1.50781248-1.41418 1.2528017-2.777045 2.5923056-3.96875 3.8378907-2.383409 2.4911701-4.078342 4.6059851-4.105468 4.8925781-.338749-.2144305-1.303146-.5296769-2.605469-.8339844-.447435-.1045498-1.076302-.1661891-1.591797-.2636719v13.4882814c0 2.088425 1.186126 3.830127 2.876953 4.785156-.322573-.868761-.539683-1.844404-.625-2.947265-.08657-1.118991-.04207-2.363387.15625-3.746094.198322-1.382708.550076-2.902955 1.074219-4.572266.153142-.487735.227432-.968498.21875-1.441406-.0087-.472908-.101638-.938901-.285156-1.392578-.183519-.453678-.456758-.896128-.828125-1.326172-.371368-.430044-.839881-.84604-1.41211-1.248047 1.689851.55992 3.190346 1.342259 4.554688 2.287109 1.364342.944851 2.593038 2.051202 3.734375 3.259766.179838.468454.27766-.805685.326172-2.349609.04851-1.543924.04771-3.357887.0293-3.9707035-.0159-.5293252.135279-1.1655421.414063-1.8613281s.683991-1.4507507 1.175781-2.2167969c.983581-1.5320925 2.312668-3.1078195 3.658203-4.34375-.465881 1.3934088-.72161 2.5767037-.808593 3.6035156-.08698 1.0268119-.0066 1.8956626.197265 2.6582031.203908.7625407.532661 1.4189366.939453 2.0195313.406793.6005945.892392 1.1465265 1.414063 1.6874995 1.043342 1.081949 2.228311 2.146096 3.203125 3.603516.487407.72871.923454 1.555184 1.261719 2.53125.338264.976067.578571 2.101986.679687 3.427734.04036.529143.336244.814037.751953.890626.415709.07659.951693-.05511 1.470703-.359376.51901-.304263 1.020834-.781114 1.371094-1.394531s.549524-1.363973.458984-2.214843c.573356 1.830236.817996 3.445252.808594 4.86914-.0094 1.423888-.273979 2.658337-.722656 3.726563-.09014.214596-.262802.347357-.367188.548828 1.460517-1.002997 2.476563-2.600495 2.476563-4.513672v-8.005859c-.113014.138121-.191998.307452-.330078.416015-.288453.226792-.622213.383622-.958985.449219-.336771.0656-.677977.03954-.980468-.09961-.302491-.139153-.566343-.39184-.751953-.779296-.589338-1.230227-1.206905-2.22852-1.832032-3.056641-.625126-.828121-1.25707-1.4865687-1.875-2.0351562-1.235859-1.0971752-2.416078-1.7562322-3.365234-2.4707032-.474578-.3572355-.890092-.728411-1.228516-1.1738281-.338423-.4454171-.598529-.9668763-.757812-1.6230469-.159283-.6561705-.219094-1.4480042-.15625-2.4375.03146-.4953098.193866-1.21062628.289062-1.81249998z" fill="#ee1e14"/></g><text font-family="sans-serif" font-size="20.656216" letter-spacing="0" stroke-width=".516405" word-spacing="0" x="-35.414185" y="24.083286"><tspan font-family="sans-serif" font-weight="bold" stroke-width=".516405" x="-35.414185" y="24.083286">B</tspan></text></g></svg>