<svg height="16" width="16" xmlns="http://www.w3.org/2000/svg"><circle cx="7.5" cy="7.5" fill="#108beb" r="7.5"/><path d="m6.791625.040275a7.5 7.5 0 0 0 -2.71425.78735c.037875.1200375-.006375.25545-.144375.375-.093375.080925-.169875.2069625-.169875.2805375 0 .2248875.20325.5701875.365625.6203625.215625.06675.14325.29685-.13425.423975-.12825.058875-.286125.228375-.350625.3765-.064875.1485-.160125.29475-.211875.325125-.051375.03075-.09375.146625-.09375.258 0 .155625.07125.231.304875.324375.16725.067125.3675.115875.445125.108375.446625-.042.47775.21825.087375.72675-.207375.27-.307125.337875-.4485.30375-.131625-.0315-.203625.005625-.263625.136125-.063.138375-.1665.18525-.444375.204375-.273375.019125-.395625.074625-.498.22425-.075.109125-.183.197625-.240375.197625-.057525 0-.1926.0735-.3003.16275-.21915.181875-.304725.20025-.3815625.081375-.10155-.1575-.3206625-.078-.646725.234375-.288375.276-.3232875.349875-.2797875.5895.0774.426375.3086625.80475.5727375.93675.2304375.115125.2349375.1275.0952125.27525-.0803625.085125-.21825.17625-.30615.202875-.253875.07725-.1109625.174.3420375.23175.46365.058875.607725.226875.391125.456-.1207875.127875-.114.151875.0798375.273375.37875.23775.67995.09225.32445-.15675-.2284875-.160125-.0687-.225375.266625-.109125.267375.092625.32025.087375.478125-.049875.324375-.280875.676875.134625.38025.448125-.188625.199875-.131625.440625.112875.474.108.014625.33225.115125.49875.2235.1665.108.348.196875.40275.196875s.20925.109875.3435.244125c.27225.271875.423375.306375.50025.11475.09225-.23025.055125-.349125-.1935-.62025-.197625-.216-.519-.78975-.519-.927375 0-.08475.326625-.01275.509625.112125.114375.078375.299625.17925.41175.225.11925.04875.243.20025.299625.366.088125.26025.123.28275.435.28275h.339l.051375.609375c.0615.733125.120375.881625.372.942.18525.04462.382875.3315.382875.55575 0 .05963-.133125.205875-.295875.32475-.20175.147375-.28875.272625-.27525.39525.016875.153375-.018.177375-.235125.16125-.139875-.0105-.382875.03863-.538875.109125-.184875.08325-.385125.109875-.573.07612-.216-.03862-.289125-.02362-.289125.06075 0 .06225-.07575.1785-.168.25875-.228.197625-.133875.30225.216375.23925.2175-.039.30225-.02175.33975.072.079875.199125-.122625.484125-.3105.43725-.11925-.03-.17625.01087-.213375.1515-.01275.04988-.036375.092255-.0645.128255a7.5 7.5 0 0 0 1.186875.350625c-.0375-.071625-.08025-.136875-.121875-.166125-.193125-.1365-.06375-.49125.202125-.555.271125-.06525.228375-.241125-.066375-.274875-.258375-.02925-.53325-.291-.447-.424875.058125-.08962.30525-.0765.805125.042.22575.05325.379875-.054.903-.62625.302625-.3315.5355-.4695.790875-.4695.0975 0 .445125-.08962.772875-.199125.61875-.207375.860625-.199875.83775.02625-.04725.47025.255375.4545.7485-.03825.2055-.205125.393375-.353625.41775-.330375.09413.09038-.07537.53025-.273375.708375-.250875.22575-.26325.36825-.04237.481125.12075.06225.172125.187875.19125.47025l.0255.3855h.3135c.109875 0 .201.015.2745.04312a7.5 7.5 0 0 0 3.63375-6.18975c-.11475-.24525-.1065-.393375 0-.56025a7.5 7.5 0 0 0 -.033755-.42037c-.06825-.00338-.138-.00638-.21825-.003-.378.01575-.701625-.133125-.701625-.322875 0-.040125-.13425-.2055-.298125-.367125-.186-.183-.28125-.345-.2535-.429.0255-.0765-.02925-.199875-.126-.2835-.094125-.08175-.171375-.213-.171375-.29175 0-.125625-.07988-.141375-.65775-.1275l-.65775.016125.01125.648375c.0195 1.1355.188625 1.43025.71025 1.240125.238875-.087375.82575-.021375.992625.111.06038.048.14775.222.193875.387.0465.164625.21825.45.3825.633375.33225.372.358125.517125.167625.953625-.166125.381-.345375.337125-.30975-.076125l.02625-.3075-.28125.0525c-.155625.029625-.350625.144375-.438.258-.1245.161625-.182625.18525-.276.111375-.06525-.05175-.118125-.160875-.118125-.241875s-.08025-.171-.17775-.200625c-.097875-.029625-.23175-.177-.297375-.328125-.105375-.2415-.10275-.315375.019875-.608625.124125-.297375.12525-.3465.010875-.456375-.105-.1005-.159375-.103875-.297375-.021-.13875.082875-.204375.076875-.369375-.03375-.109875-.073875-.30225-.135-.42675-.135-.253125 0-.329625-.123-.329625-.53025 0-.376125-.22425-.512625-.75825-.4635-.3705.034125-.45225.00975-.751125-.2205-.184875-.142125-.476625-.484125-.649125-.760875s-.358125-.565875-.4125-.642375c-.078-.110625-.058875-.21675.09375-.517875l.19275-.37875-.40725.055125c-.7245.097875-.871125.191625-.5595.358875.1215.064875.12675.09825.033.206625-.0615.0705-.090375.182625-.06375.249.026625.066-.007125.222-.074625.346125-.067875.1245-.1245.298875-.12675.3885-.007125.279375-.485625.50175-1.018875.472125-.80775-.044625-.873375-.031875-1.16025.234375-.3585.333-.404625.487875-.23775.796875.161625.3.448875.419625.946125.394875.44475-.022125.495.01725.393375.31125-.086625.24975-.376875.34575-.57375.18975-.1515-.120375-.673875-.027375-.834.148875-.067125.0735-.166875.267-.22125.429-.09375.27975-.121125.297-.541125.3375-.41925.040875-.45975.027375-.76125-.2505-.336375-.30975-.393375-.54675-.231375-.95475.072-.18075.12525-.210375.31725-.175125.38025.069375.53025-.062625.53025-.46875 0-.196875-.03825-.381-.085125-.40875-.0465-.02775-.08475-.132-.08475-.232125s-.048-.229125-.106125-.28575c-.085125-.0825-.07275-.12675.063-.22275.093-.065625.246-.109875.33975-.098625.093375.01125.35175-.02925.574125-.089625.321375-.086625.415875-.15225.459375-.321375.0825-.321.283875-.578625.452625-.578625.266625 0 .27225-.627.013125-1.539-.03825-.134625-.143625-.220125-.329625-.26625-.15075-.0375-.314625-.14025-.364125-.228675-.049125-.088425-.1395-.160425-.200625-.160425s-.18075-.0732-.265125-.1626c-.085125-.09-.261-.1626-.394875-.1626-.316875 0-.322125-.218175-.007875-.333225.331875-.12165.848625.0378.9735.3002625.169125.3559125.357.2074125.417375-.3303.074625-.6650625.304125-.8562 1.0275-.8562h.520125l-.228-.227775c-.070875-.0711-.12975-.1579875-.170625-.2431875zm2.69625.2358375c-.014625.0132-.028875.024-.043125.0388125-.174.1776-.25575.2029125-.524625.1618875-.4695-.0715875-.409125.11745.110625.3457125.280875.1234125.461625.2641125.523125.4064625.29625.68685.50025 1.0566375.602625 1.0941375.207.076125.330375-.07665.3765-.467175.05288-.44805.204375-.5430375.476625-.2980875.10575.095063.2535.1728375.328125.1728375.232875 0 .405.093488.405.21975 0 .066525.07875.2268375.175125.35655.142125.190875.2385.236625.504.236625.325875 0 .52575.061125.93375.2865.0064.00338.01275.0045.01913.00788a7.5 7.5 0 0 0 -3.88688-2.5618925zm-9.486375 7.19175a7.5 7.5 0 0 0 -.0014625.03225 7.5 7.5 0 0 0  .146475 1.44075c.271725.110625.3468.06675.375-.186.0145875-.130875.0829125-.279.1523625-.330375.1072875-.079125.0879375-.119625-.13185-.269625-.142275-.097125-.2824875-.266625-.3112875-.3765-.0279-.1065-.12225-.22275-.2292375-.3105zm2.3606625 2.479125c-.070125-.007125-.1546125.030375-.2483625.1203755-.1983375.18975-.168375.571125.0564.721875.2575875.172875.3569625.122625.3895875-.196125.040125-.393001-.043875-.6300005-.197625-.6461255zm1.27275 1.1340005c-.0765.0026-.160875.05738-.24525.172875-.089625.12225-.114.280125-.079875.51975.042375.29475.024.35775-.130125.436875-.198375.10125-.24075.40275-.078375.558.16125.1545.315.114.3705-.0975.07875-.3015.520125-.33675.821625-.066.128625.1155.233625.174.233625.12975s-.133875-.205125-.297375-.356625c-.250125-.2325-.296625-.331501-.296625-.630751 0-.42225-.129375-.671625-.298125-.666374zm-2.0902125.96825a7.5 7.5 0 0 0  .1735875.219c-.0511125-.079125-.1094625-.154875-.1735875-.219zm2.5274625 1.15125c-.037875.01313-.054.06075-.054.144375 0 .08475-.054.173625-.12.197625-.08775.03225-.108.133875-.07425.3765.00637.04537.00825.08175.0105.119625a7.5 7.5 0 0 0  .312.160125c-.00525-.12975.018375-.282375.08625-.473625.115125-.32475.11925-.406125.0255-.463125-.08775-.05325-.14775-.07463-.186-.0615z" fill="#206420"/><g fill="none" stroke-linecap="round"><path d="m6.5 6.1873365s.2444019.3126635-.8747872.3126635c-1.1191916 0-1.1249291-.8808077-1.1249291-2 0-1.1191909.00574-2 1.1249291-2 1.1191916 0 .8747872.3380468.8747872.3380468" stroke="#fff" stroke-linejoin="bevel"/><path d="m8.503965 12.501794s2.020535.432587 1.996035-2.001794c-.024502-2.434389-1.996035-1.9982064-1.996035-1.9982064m-.00793 3.9964124v-3.9999996" stroke="#fff" stroke-linejoin="bevel"/><path d="m4.5 8.5372205h1.125s.875-.078629.875.937652v1.0251275h-1 1v1.099745c0 .991883-.875.937348-.875.937348h-1.125" stroke="#f8f8f8" stroke-linejoin="round"/><path d="m10.500364 6.1873365s.244402.3126635-.8747868.3126635c-1.1191916 0-1.1249291-.8808077-1.1249291-2 0-1.1191909.00574-2 1.1249291-2 1.1191918 0 .8747868.3380468.8747868.3380468" stroke="#fff" stroke-linejoin="bevel"/></g></svg>