<svg height="16" width="16" xmlns="http://www.w3.org/2000/svg"><path d="m1.4571.00054851a1.4153 1.2554 0 0 0 -1.4571 1.2548v13.489a1.4153 1.2554 0 0 0 2.1233 1.088l6.584-3.373 6.5847-3.3719a1.4153 1.2554 0 0 0 0-2.1748l-6.5847-3.3716-6.584-3.3729a1.4153 1.2554 0 0 0 -.6662-.16725z" fill="#3e50b4"/><path d="m7.3625 5.0002a.61918.47078 0 0 1  .6375.4705v5.0583a.61918.47078 0 0 1 -.9289.408l-2.8806-1.265-2.8807-1.2643a.61918.47078 0 0 1 0-.81556l2.8807-1.2643 2.8806-1.2649a.61918.47078 0 0 1  .29146-.062736z" fill="#fff"/></svg>