<svg height="16" width="16" xmlns="http://www.w3.org/2000/svg"><path d="m8 .00000004c-.1926 0-.3827.0093972-.5719.022657-.0237.001754-.0473.003497-.0711.005468-2.8578.22552-5.278 1.9413-6.5008 4.3735-.00027045.00052-.000512.00104-.00078285.00156-.079116.15745-.16008.31409-.22891.47734-.37451.8457-.5779 1.7432-.61484 2.6828-.0016171.030354-.00184.060958-.0031257.091406-.0024743.089757-.0076343.17901-.0070314.26953-.00023211.025386-.00156.050342-.00156.075783 0 .93022.16533 1.8186.45469 2.6477.11645.37168.25062.74703.4125 1.1273.40323.94731.45329 1.2056.38984 1.9969-.044209.55135-.19365 1.1143-.38047 1.4312-.16938.28738-.30513.58389-.30513.65938 0 .23342 1.3482.1517 2.5419-.15391 1.3984-.35802 1.5206-.35747 2.6672.0023.52453.1646 1.1231.25365 1.7984.27812.028251.0014.056828.0012.085156.0023.0924.003.181.009.2765.009.00777 0 .014903-.000743.022657-.0008.012314.000055.024394.0008.03672.0008.22339 0 .44384-.01113.6625-.02891 1.9778-.14065 3.5664-.87264 4.9961-2.3 1.178-1.176 1.9076-2.6277 2.1961-4.1469.02658-.13883.04862-.27898.06797-.42031.0117-.086759.02399-.17312.03281-.26016.01939-.18667.03106-.37606.0375-.56641.0014-.047966.0034-.095762.0039-.14375.000688-.04467.0031-.088737.0031-.13359 0-4.358-3.4508-7.8782-7.7797-7.9945-.0336-.0015026-.0671-.0023426-.1008-.0028741-.04-.0005828-.0794-.0031257-.1195-.0031259z" fill="#47ad5d"/><path d="m5.5 4c-.8284271 0-1.5.6715729-1.5 1.5v.5175781c.0036.7631471.2356074 1.376802.9082031 2.3964844 1.1546399 1.7504715 2.28135 2.7009085 3.9042969 3.2929685.485244.17702.8308294.286477 1.1271442.292969h.5603558c.828427 0 1.5-.671573 1.5-1.5 0-.8284271-.671573-1.5-1.5-1.5-.5 0-1.5 0-1.5 1-.9684371-.054276-3-2-3-3 1 0 1-1 1-1.5 0-.8284271-.6715729-1.5-1.5-1.5z" fill="#fff"/></svg>