<svg height="16" width="16" xmlns="http://www.w3.org/2000/svg"><path d="m .85714 1c-.47485 0-.85714.3902-.85714.875v12.25s0 .8785.85714.875l14.343-.058c.443-.002.8-.365.8-.817v-12.25c0-.48475-.38229-.875-.85714-.875h-14.286zm0 14h14.286c.25139 0 .46846-.1168.625-.29167-.1446.14739-.34983.2361-.57143.23698l-14.339.05469z" fill="#ff766a"/><path d="m6.9643103 3.99981-.0882 1.0536a3.1429 3.1429 0 0 0 -.91852.53126l-.9575903-.4509-1 1.7321.86941.6038a3.1429 3.1429 0 0 0 -.048.53013 3.1429 3.1429 0 0 0  .0457.53237l-.867.602 1 1.7321.9553603-.44978a3.1429 3.1429 0 0 0  .92075.5279l.0882 1.0558h2l .0882-1.0536a3.1429 3.1429 0 0 0  .9185399-.53126l.9575798.4509 1-1.7321-.86942-.6038a3.1429 3.1429 0 0 0  .048-.53013 3.1429 3.1429 0 0 0 -.0457-.53237l.86719-.60156-1-1.7321-.9553598.44978a3.1429 3.1429 0 0 0 -.92076-.5279l-.088-1.056h-2.0000001zm1 2.8572a1.1429 1.1429 0 0 1 1.1430001 1.143 1.1429 1.1429 0 0 1 -1.1429 1.1428 1.1429 1.1429 0 0 1 -1.1429001-1.1428 1.1429 1.1429 0 0 1 1.1428-1.1428z" fill="#fff"/></svg>