<svg height="16" viewBox="0 0 16 16" width="16" xmlns="http://www.w3.org/2000/svg"><path d="m14.362 7.1008-11.828-6.8937c-.50538-.29103-.95757-.26374-1.2324.009095-.1952.191-.3016.50021-.3016.9004v13.76c0 .40016.11526.70938.30146.90036.28372.28193.72704.30922 1.2324.0091l11.828-6.8936c.85117-.49111.85117-1.2914 0-1.7916z" fill="#eb4d27"/><path d="m8 2c-1.7234 0-3.2728.731-4.3672 1.8945a6 6 0 0 0 -.0156.0157c-.1332.1426-.2581.2921-.377.4472-.1142.1491-.2202.3033-.3203.4629a6 6 0 0 0 -.0469.0762c-.0895.1477-.1731.2994-.25.4551a6 6 0 0 0 -.0253.0507c-.0792.1643-.1507.3318-.2149.5039a6 6 0 0 0 -.0176.0469c-.0592.1629-.1111.329-.1562.4981a6 6 0 0 0 -.0274.1015c-.037.1495-.0681.3014-.0937.4551a6 6 0 0 0 -.0254.1719c-.0174.1272-.0317.2551-.041.3848a6 6 0 0 0 -.0215.4355 6 6 0 0 0  .0508.7285c.0108.089.0263.1759.041.2637a6 6 0 0 0  .0996.4746c.0213.0843.0397.1691.0645.252a6 6 0 0 0  .2187.6172 6 6 0 0 0  .0039.008c.0412.097.0906.189.1367.283a6 6 0 0 0  .1778.342c.0575.1.1185.198.1816.295a6 6 0 0 0  .2227.316c.0623.084.1229.168.1894.248a6 6 0 0 0  .4063.442 6 6 0 0 0  .0312.033c.0779.075.1623.143.2442.215a6 6 0 0 0  .2773.23c.0981.076.198.147.3008.217a6 6 0 0 0  .2734.172c.0755.045.1451.098.2227.14.0172.01.0319.006.0488.014a6 6 0 0 0  .9297.402l7.7639-4.5231a6 6 0 0 0  .115-1.1699c0-3.3137-2.686-6-6-6z" fill="#ffd739"/><circle cx="8" cy="8" fill="#ff8c00" r="3"/></svg>