<svg height="16" width="16" xmlns="http://www.w3.org/2000/svg"><path d="m .8.99999994c-.4432 0-.8.34688886-.8.77777776v9.3333333 3.111111c0 .430889.3568.777778.8.777778h14.4c.4432 0 .8-.346889.8-.777778v-3.111111-9.3333333c0-.4308889-.3568-.77777776-.8-.77777776z" fill="#4f4f4f"/><path d="m0 6h16v1h-16z" opacity=".2"/><path d="m0 4h16v1h-16z" opacity=".2"/><path d="m0 8h16v1h-16z" opacity=".2"/><path d="m2.8 2.9999999c2.8 0 1.866203 5.9720936 4.8 6.0000002 1.8244056.017352 3.317647-1.9999999 5.2-1.9999999s3.2 2.1666664 3.2 2.1666664v1.9444444 3.111111c0 .430889-.3568.777778-.8.777778h-14.4c-.4432 0-.8-.346889-.8-.777778v-7.3888887s.591952-3.8333334 2.8-3.8333334z" fill="#47da72"/><path d="m0 2h16v1h-16z" opacity=".2"/></svg>