<svg height="32" width="32" xmlns="http://www.w3.org/2000/svg"><rect fill="#69b155" fill-rule="evenodd" height="28.203388" ry="5.575182" width="28.203388" x="1.898306" y="1.898306"/><path d="m21.350074 25.922303c-1.607641-.217519-3.133844-1.551876-3.629896-3.17361-.246985-.807455-.224409-1.487933.07236-2.181299l.07204-.16832-1.230448-1.244844c-.676743-.684665-1.920403-1.934178-2.763681-2.776696l-1.533236-1.531852-.196004.08407c-.627514.269163-1.143456.316402-1.86172.17046-.9874623-.200643-1.9819576-.87829-2.7052925-1.843381-.499832-.666897-.7931941-1.438948-.8289998-2.181725l-.01166-.241957.1988689-.194024.1988723-.194022.3098555.308829c.568495.566612 1.1017886 1.082912 1.1990399 1.160833.068402.05481.1438103.08961.2609222.120427.1505811.03962.2005515.04218.582193.02984.3886363-.01257.4304273-.01783.6049075-.07596.747597-.249128 1.617349-1.131111 1.850948-1.876973.0437-.1395201.04846-.1924392.04603-.5105102-.0029-.3786908-.03852-.6182019-.1139-.7659679-.064321-.1260807-.259081-.3403272-.900552-.9906555-.330155-.3347143-.600283-.6176427-.600283-.6287306 0-.011089.08689-.1028607.193083-.2039415l.193084-.1837826.198301.00496c1.017917.025474 1.988724.4950591 2.840028 1.3737276.831727.8584606 1.240383 1.7497384 1.285366 2.8033797.01841.430856-.05096.775297-.246878 1.226098l-.08381.192842 2.750777 2.766025c1.512925 1.521314 2.752634 2.766025 2.754907 2.766025.0021 0 .0734-.03153.158072-.07007.40589-.184757.815368-.284319 1.170474-.284594.754587-.000597 1.487985.227104 2.14978.66741.298792.198791.46776.337912.755323.621885.857343.84665 1.320485 1.791903 1.383101 2.822846l.01367.225088-.194208.20075-.194209.200751-.705968-.70477c-.63976-.638674-.723134-.714559-.889018-.809141l-.183052-.104365-.454107-.0067c-.400916-.0059-.473655-.0018-.62102.03553-.361379.09139-.770753.359099-1.194787.781342-.471.469008-.720471.877305-.786748 1.287628-.04419.273581-.01449.783689.05956 1.022818.0618.199584.22951.397309.936432 1.104043l.613675.61351-.194542.195352-.19454.195353-.156967-.0021c-.08633-.0011-.255594-.01549-.376141-.0318zm-14.5908153-.048694c0-.0096.3753183-1.171031.8340396-2.580918l.8340385-2.56343 2.0621642-2.062246c1.134195-1.134235 2.071502-2.062246 2.082906-2.062246.01141 0 .220451.199553.464548.443453l.443812.443454-1.612497 1.612597-1.612498 1.612599.288704.287038.288704.287037 1.603096-1.615053c.881704-.888279 1.611875-1.611557 1.622604-1.607286.01074.0043.464456.456864 1.008283 1.00576l.98878.997991-2.071859 2.071941-2.071863 2.07194-.870046.283712c-.955414.31155-2.0400871.664062-3.2914094 1.069687-.4477454.14514-.8540008.276842-.9027943.292673-.048798.01583-.088711.02091-.088711.01129zm12.2008193-10.709075-1.001783-1.001945.5741-.579278c.315754-.318603.648987-.656817.74052-.751588l.166421-.172309-.281207-.281789-.281208-.281787-.741326.741113c-.407732.407611-.750757.741113-.76228.741113-.02725 0-.886847-.860129-.886847-.88739 0-.01141.533092-.55379 1.18465-1.205271l1.184649-1.184511 1.742872 1.742967 1.742874 1.742967-1.189827 1.189826-1.189826 1.189826zm2.812632-4.305348-1.737711-1.7378062 1.148085-1.1479427 1.148085-1.1479443 1.742942 1.7428485 1.742943 1.7428487-1.142761 1.142901c-.628517.628597-1.147509 1.142902-1.153315 1.142902-.0058 0-.792526-.782013-1.748268-1.737807z" fill="#fff" stroke-width=".020874"/></svg>