<svg height="16" width="16" xmlns="http://www.w3.org/2000/svg"><path d="m3.9412479 15.994547c-.5957998-.00696-.9193793-.01776-.9412479-.045468 0 .050912.0249563-15.70991455.0249563-15.70991455.0769078-.08091189.4820519-.11999986 2.0320027-.19604776 1.021615-.05011993 3.1394217-.05844793 3.7913899-.01492 1.1159653.07453189 1.6687851.15720383 2.3908901.3575476.718923.19945976 1.290489.49480343 1.367895.70681511.02703.074032.162461.8317951.258564 1.4467065.06877.4400197.122363.9031794.122363 1.0574947 0 .215992-.0859.284992-.454876.3654077-.453364.0988-.763523.043992-2.6550055.037836-2.0312197-.0066-2.1262065.0686636-2.4129267.2161676-.3779287.1945401-.5965383.5979173-.6236912 1.0226906-.0086076.7163338.5014222 1.5518181.9735308 1.6552285.6333957.1343881 1.3202194.2003157 3.4029246.3266637.280002.017.557891.041744.570708.055016.04153.04302.03156.1799028.04826.5829021.01924.4643837-.01806.5826546-.158834.8940218-.300833.6654354-1.020471 1.0054947-2.2993994 1.1737427-.4124857.054264-.8651195.085632-1.2459319.086352-.2388095.0004-.4384066.01624-.5492841.04351-.4238886.104172-.7017358.483992-.7414232 1.013519-.019769.263672.023877.771894.1429842 1.02695.2007524.42996.5328446.66582 1.0734983.762427.7581808.135472 1.4124278.13179 3.3011271.152538l1.634451.01796-.00008.279654c-.000079.237195.01971 1.103983-.01325 1.647935l-.01707.281907c-.232176.13237-.581414.221377-.800211.29952-.202418.09593-.97454.266155-1.527273.336719-.8862269.11314-1.1815693.11826-3.5697486.1233-1.2894742.0028-2.6958478.0008-3.1252783-.0042z" fill="#c06e00"/><path d="m3.0713636.22029989c-.012392.006521-.039812.0116364-.046574.01875v.0257812c1.6935565 2.00927471 2.47253 5.29866311 2.4752104 8.33528711-.0026749 2.9502288-.7274996 5.3653578-2.338493 7.3686228.1434142.01248.3723526.02102.7797409.02578.4294306.005 1.8354987.0067 3.1249729.0039 2.3881793-.005 2.6842045-.0095 3.5704322-.122656.552732-.07056 1.324762-.240791 1.52718-.336719.218797-.07814.567846-.16763.800023-.3l.01728-.282032c.03296-.543951.01269-1.410237.01277-1.647433v-.279667l-1.63385-.01797c-1.8887041-.020746-2.5433273-.01765-3.301508-.153123-.5406538-.096608-.8727059-.332541-1.0734584-.7625-.1191074-.255057-.1624963-.762987-.1427272-1.026658.039687-.529528.3175465-.90911.7414301-1.013281.1108775-.02727.3103142-.04335.5491237-.04375.3808125-.00072.8329963-.031672 1.2454819-.085938 1.2789279-.1682479 1.9985769-.5087836 2.2994089-1.174219.140777-.3113672.178493-.4293665.159254-.8937502-.016696-.4029993-.006546-.5397929-.048077-.5828125-.012815-.013272-.290906-.038468-.570908-.0554688-2.082705-.126348-2.7695198-.1921744-3.4029155-.3265625-.4721086-.1034104-.8237682-.9384831-.8151605-1.6548169.0271536-.4247733.0871749-.8281161.4651035-1.0226562.2867222-.1475172.3816221-.2230196 2.4128414-.2164196 1.8914831.00616 2.2021121.0613 2.6554761-.0375.368981-.080416.454473-.1496337.454473-.3656249 0-.051872-.01338-.1745373-.02404-.2835941-2.579563-1.7462627-6.0979614-2.84631922-9.8924904-3.09296941z" fill="#d39447"/><path d="m11.804761 7.3126179c-3.574421.4391741-5.8003527 1.9333415-5.804761 3.8873821.00377 2.192247 2.8644675 3.814195 6.967612 3.983584l.01352-.226562c.03296-.543951.01269-1.410146.01277-1.647342v-.279687l-1.63385-.01797c-1.8886978-.020746-2.5433209-.01765-3.3015017-.153123-.8174091-.187943-.9993269-.946983-1.0585503-1.3889-.0705329-.526308.1599112-1.309459.5837948-1.413631.1108775-.02727.3103143-.04335.5491237-.04375.3808125-.00072.8329963-.031672 1.2454819-.085937 1.2789286-.1682483 1.9985766-.508784 2.2994096-1.1742194.140776-.3113672.178492-.4293665.159253-.8937502-.013769-.3323488-.010961-.4791089-.0323-.5460937z" fill="#fdd161"/></svg>