<svg height="16" width="16" xmlns="http://www.w3.org/2000/svg"><rect fill="#c2352a" height="16" rx=".8" transform="matrix(0 -1 -1 0 0 0)" width="16" x="-16" y="-16"/><path d="m9.0195 3.4961a.50005.50005 0 0 0 -.2715.0723l-5.7656 3.3632-2.9824-1.4902v1.1172l2.7773 1.3887a.50005.50005 0 0 0  .4747-.0157l6-3.5a.50005.50005 0 0 0 -.2325-.9355zm0 2a .50005.50005 0 0 0 -.2715.0723l-5.7656 3.3632-2.9824-1.4902v1.1172l2.7773 1.3887a.50005.50005 0 0 0  .4747-.0157l6-3.5a.50005.50005 0 0 0 -.2325-.9355zm0 2a .50005.50005 0 0 0 -.2715.0723l-5.7656 3.3636-2.9824-1.4906v1.1176l2.7773 1.388a.50005.50005 0 0 0  .4747-.015l6-3.5004a.50005.50005 0 0 0 -.2325-.9355z" fill="#fff" fill-rule="evenodd"/></svg>