<svg height="16" width="16" xmlns="http://www.w3.org/2000/svg"><rect fill="#8e8e8e" height="9" rx=".813" ry=".804" width="13" x="1" y="4"/><path d="m3.648442 6h7.703117c.355627 0 .700391.2834612.641925.625l-.641925 3.749999c-.058464.341539-.286299.625001-.641927.625001h-6.4192636c-.3556273 0-.5834617-.283462-.6419264-.625001l-.6419263-3.749999c-.0584649-.3415388.286299-.625.6419263-.625z" fill="#2bd677"/><rect fill="#b3b3b3" height="3" rx=".682" ry=".643" width="3" y="7"/><path d="m1 8h1v1h-1z" opacity=".5"/><rect fill="#b3b3b3" height="3" rx=".682" ry=".643" width="3" x="12" y="7"/><path d="m13 8h1v1h-1z" opacity=".5"/><g fill="#fff"><path d="m4 7h1v1h-1z"/><path d="m6 7h1v1h-1z"/><path d="m8 7h1v1h-1z"/><path d="m10 7h1v1h-1z"/><path d="m5 9h1v1h-1z"/><path d="m7 9h1v1h-1z"/><path d="m9 9h1v1h-1z"/></g></svg>