<svg height="16" viewBox="0 0 16 16" width="16" xmlns="http://www.w3.org/2000/svg"><g transform="translate(0 -1036.3622)"><path d="m10.858011 1037.3644c-.773039.077-1.2593276.3384-1.7679205.7439-.9359658-.3971-1.6048837.052-2.3051305.5401-.560604-.08-1.0259903.2086-1.3225214.4352-.083742-.099-.2272943-.2775-.3008396-.3614-.5559694-.6418-.9367624-.9577-1.3811267-1.1247h-.00195c-.6238289-.2294-1.3947932-.1669-1.9300611.07-1.02153376.4643-1.67044944 1.1974-1.78550186 2.0397-.18933878.7754.0880196 1.4866.30865349 1.8862.44126777.7992 1.00695997 1.4443 2.21527257 2.9857.0829.1057.1340612.1727.2148853.2758-.00109 0-.00281.0008-.00391 0-.5337145.562-.7491957 1.3006-.7657732 1.8997-.043451 1.5697.9559138 2.2469 1.7132223 2.6516.3801078.2034.4085553.1868.6778655.2934.2693103.1065.6156851.2405 1.0158216.3885.8002732.2958 1.812581.6524 2.8169516.9693.4824843.1522.886384.2779 1.4514529.303.5650686.025 1.3908866-.2138 1.8597346-.5944.647689-.5163 1.322043-1.1591 1.832387-1.6048.773738-.686 1.332258-1.161 1.744477-1.5753.119736-.1204.293731-.2818.49033-.6022.196598-.3206.350643-.821.363352-1.218.02541-.7938-.162906-1.1165-.328189-1.62-.378965-1.1546-.878525-2.3904-1.377219-3.448-.249348-.5288-.496821-1.0113-.746239-1.4336-.249418-.4224-.380711-.7428-.963077-1.2258-.582945-.484-1.162661-.6831-1.724943-.6759z" fill="#4f4f4f"/><path d="m10.303181 1049.2066c.424575-.3459 3.146415-2.7728 3.419724-3.0491.359909-.3639.362944-.4593.04558-1.4317-.694498-2.1278-1.916142-4.7672-2.466044-5.2259-.228894-.1911-.651252-.1882-.948017.01-.4138565.2712-.3954716.6362.07569 1.5026.169723.312.308584.6888.308584.7148s-.05895.048-.131002.048c-.09224 0-.303054-.2752-.7125606-.9301-.6231169-.9966-.8029782-1.155-1.2123906-1.0682-.308655.065-.6603.3167-.7762059.5544-.1340429.2748-.078685.4138.5453592 1.3689.3833096.5867.4878906.7965.42837.8596-.043313.046-.1005862.084-.127276.084-.02669 0-.3757106-.4718-.7755921-1.0488-.2557065-.3689-.4551719-.6401-.6039636-.8204-.2558309-.3665-.4984668-.2526-.8122225-.1312-.2245799.1163-.4517311.2838-.5637137.4394-.2632791.3662-.2244075.5974.2079421 1.2365.2078447.3071.5163134.7388.6854873.959.2961693.3857.3676911.6575.1893711.7197-.1036801.036-.049872.098-2.038053-2.3624-1.2312955-1.524-1.8094855-2.1869-1.9540658-2.2404-.2723019-.1007-.5688402.031-.85981.3828-.4302002.5198-.4807251.4277 1.9389258 3.5318 1.1877528 1.5238 2.1897043 2.8121 2.226562 2.8627.136762.1881.2669746.1747-.3820557-.053-.5463779-.1921-.7444118-.2289-1.1021473-.2048-.5928055.052-.8624079.3952-.8754608.8696-.00912.3313.2924667.6505.6614216.8487.2111162.1136 2.2466725.9054 4.1672929 1.5148.8392641.2663 1.1740686.2813 1.4402736.064z" fill="#fff"/></g></svg>