<svg height="16" width="16" xmlns="http://www.w3.org/2000/svg"><path d="m13.804351 13.676815.195649-.58213v-10.621001c0-.8164211-.657263-1.4736842-1.473684-1.4736842h-11.052632c-.81642105 0-1.4736842.6572631-1.4736842 1.4736842v10.605951l.1774357.446681c.3013997.75875.6754759 1.202786 1.491897 1.202786h10.586085c.816421 0 1.288838-.278405 1.548933-1.052287z" fill="#737373"/><path d="m12 7h-10c0-2.7614237 2.238576-4.9999997 4.9999997-4.9999997s5.0000003 2.238576 5.0000003 4.9999997z" fill="#ffc832"/><path d="m5 3.9996923h.2307691l2.7692309 3.0003077h-2.3076923z" fill="#f3597e"/><path d="m11.436823 8.0000049c-1.056222 0-2.3992151.34924-2.436823 1.9595402.013243 1.3390019.6422186 2.2563189 1.358719 2.0630299.845259-.446861.825143.317146.857195.580784.165915.532339.488124.430563.985987.391887h.02985v.0025h.4367v-.0016l.129646-.000834c.497865.03868.820924.140453.98684-.391887.03205-.263638.01105-1.027644.856342-.580784.716501.193289 1.345473-.724028 1.358719-2.0630296-.0376-1.6102616-1.380596-1.9595182-2.436819-1.9595182h-1.331424z" fill="#f3597e"/><path d="m2.9703947 11c-1.1284504 0-2.9703947.684516-2.9703947 2.214021v.312295c0 .816421.65726315 1.473684 1.4736842 1.473684h11.0526318c.816421 0 1.473684-.657263 1.473684-1.473684v-.736842s0 1.210526-2.578947 1.210526c-3.0259136 0-5.5264772-3-8.4506583-3z" fill="#e4e4e4"/><path d="m4 11.121094v3.878906h.5v-3.724609c-.1664325-.052283-.3315777-.116863-.5-.154297zm-2.5.193359c-.1746984.073918-.3412192.164344-.5.265625v3.335938c.1492323.050596.3078526.083984.4746094.083984h.0253906zm5.5 1.101563v2.583984h.5v-2.318359c-.1662399-.090264-.3342108-.174873-.5-.265625zm6.5 1.107422c-.129825.091037-.291135.176019-.5.25v1.142578c.187286-.063499.355391-.162902.5-.291016zm-3.5.25v1.226562h.5v-1.095703c-.16871-.032024-.333947-.084174-.5-.130859z" fill="#3f3f3f"/></svg>