<svg height="16" width="16" xmlns="http://www.w3.org/2000/svg"><circle cx="8" cy="8" fill="#fff" r="6"/><path d="m8 0c2.558525 0 4.820718 1.1948326 6.283203 3.0527344l.916016-.9160156a.46880974.46880974 0 0 1  .33789-.1367188.46880974.46880974 0 0 1  .462891.46875v4.0625a.46880974.46880974 0 0 1 -.46875.46875h-2.632812-1.429688a.46880974.46880974 0 0 1 -.332031-.8007812l.99414-.9941407c-.093368-.1378442-.190798-.2731854-.296875-.4003906a5 5 0 0 0 -.132812-.15625c-.140518-.15508-.290812-.2995076-.449219-.4355469a5 5 0 0 0 -.162109-.1347656c-.174845-.1377785-.358735-.263375-.550781-.3769531a5 5 0 0 0 -.181641-.0996094c-.188711-.1012736-.382357-.1947987-.5839845-.2714844a5 5 0 0 0 -.1640625-.0585937c-.2067867-.0704578-.4195444-.1268226-.6367188-.1699219a5 5 0 0 0 -.1542968-.0292969c-.267377-.0443055-.5399665-.0722354-.8183594-.0722656-2.374288.00211-4.419674 1.6736809-4.894531 4h-3.03711c.49006-3.9556728 3.839104-7 7.931641-7z" fill="#48a9ff"/><path d="m15.931641 9c-.49006 3.955673-3.839104 7-7.931641 7-2.558525 0-4.820718-1.194833-6.283203-3.052734l-.916016.916015a.4687926.4687926 0 0 1 -.33789.136719.4687926.4687926 0 0 1 -.462891-.46875v-4.0625a.4687926.4687926 0 0 1  .46875-.46875h2.632812 1.429688a.4687926.4687926 0 0 1  .332031.8007812l-.99414.9941408c.09337.137845.190798.273185.296875.40039a5 5 0 0 0  .132812.15625c.140518.155081.290812.299508.449219.435547a5 5 0 0 0  .162109.134766c.174845.137778.358735.263375.550782.376953a5 5 0 0 0  .18164.09961c.188711.101273.382357.194798.5839845.271484a5 5 0 0 0  .1640625.05859c.2067868.07046.4195444.126822.6367188.169922a5 5 0 0 0  .1542968.0293c.2673771.044306.5399665.072236.8183594.072266 2.374288-.0021 4.419674-1.673681 4.894531-4z" fill="#486afb"/></svg>