<svg height="32" width="32" xmlns="http://www.w3.org/2000/svg" xmlns:xlink="http://www.w3.org/1999/xlink"><linearGradient id="a" gradientUnits="userSpaceOnUse" x1="3.773306" x2="27.726694" y1="4.75" y2="27.75"><stop offset="0" stop-color="#d6393a"/><stop offset="1" stop-color="#a03236"/></linearGradient><rect fill="url(#a)" fill-rule="evenodd" height="28.203388" ry="5.575182" width="28.203388" x="1.898306" y="1.898306"/><path d="m17.75 7.6865216v3.4765614h.792969v-1.2050774h.523437c.391432 0 .691628-.099286.900391-.294922.210137-.197188.314453-.476921.314453-.841797 0-.3633229-.104316-.644208-.314453-.839843-.208763-.197189-.508959-.294922-.900391-.294922zm3.089844 0v3.4765614h.835937c.461477 0 .808324-.0368 1.039063-.111328.230738-.07608.428937-.204657.59375-.384766.144211-.156818.250267-.338017.320312-.542967.07005-.2065044.105469-.4407254.105469-.7031254 0-.259295-.03542-.490361-.105469-.695313-.07005-.204951-.176101-.38615-.320312-.542968-.16344-.180109-.360479-.308285-.589844-.382813-.227991-.07608-.575998-.113281-1.042969-.113281zm3.501953 0v3.4765614h.792969v-1.4726554h1.267578v-.677734h-1.267578v-.648438h1.347656v-.677734zm-5.798828.65039h.439453c.153826 0 .271689.041157.355469.125.08378.083844.125.2041091.125.359375 0 .1552671-.04122.275932-.125.361329-.08378.083843-.201643.125-.355469.125h-.439453zm3.089844.027344h.285156c.325506 0 .57188.089423.742187.269531.170307.180109.25586.442419.25586.7871101 0 .3462429-.08613.6113073-.257813.7929683-.170307.181661-.416102.271484-.740234.271484h-.285156zm-6.56836 4.5839834-5.1523429.02148c.1759469.136622.5165809.301341.7248969.692929l3.804399 8.685977c.131686.282288.368281.220997.527344-.144531l2.435547-5.525391-1.8125-3.490234c-.114293-.180512-.298601-.247007-.527344-.240235zm-5.3010583.392626-4.7653476 10.925734 5.4238279.0059 2.197266-5.242187-2.267578-4.998047c-.09947-.305351-.380145-.602613-.5881683-.6914zm11.4846523 2.42964c-.173276-.0018-.369529.03966-.574219.105469l-2.957031.972656-2.529297 5.679688c-.174215.475103.521617.371881.804688.28125l7.617187-2.941407c.826388-.298573.981783-.411751 1.53125-.169922l-3.460937-3.773437c-.108936-.106361-.258365-.152449-.431641-.154297zm3.4663 4.152747c-.08906-.0063-.188472.0032-.294922.03516l-3.882813 1.486328 1.238779 2.868738h5.226562l-1.766122-4.019132c-.07009-.184133-.254298-.352223-.521484-.371094z" fill="#fff"/></svg>