<svg height="16" width="16" xmlns="http://www.w3.org/2000/svg"><g transform="scale(1 -1)"><path d="m4-14h1v1h-1z" fill="#785439"/><path d="m1-14h1v1h-1z" fill="#785439"/><path d="m2-14h1v1h-1z" fill="#956b49"/></g><path d="m-13 4h1v1h-1z" fill="#956b49" transform="scale(-1 1)"/><path d="m3 4h1v1h-1z" fill="#583c28"/><g transform="scale(-1 1)"><path d="m-8 4h1v1h-1z" fill="#b8845b"/><path d="m-7 4h1v1h-1z" fill="#785439"/><path d="m-6 4h1v1h-1z" fill="#785439"/><path d="m-1 4h1v1h-1z" fill="#583c28"/><path d="m-8 3h1v1h-1z" fill="#956b49"/></g><path d="m1 3h1v1h-1z" fill="#583c28"/><path d="m-11 3h1v1h-1z" fill="#9bca6b" transform="scale(-1 1)"/><path d="m6 3h1v1h-1z" fill="#785439"/><path d="m-1 3h1v1h-1z" fill="#6b6b6b" transform="scale(-1 1)"/><path d="m0 2h1v1h-1z" fill="#956b49"/><path d="m-7 2h1v1h-1z" fill="#583c28" transform="scale(-1 1)"/><path d="m7 2h1v1h-1z" fill="#9bca6b"/><path d="m-12 2h1v1h-1z" fill="#72b248" transform="scale(-1 1)"/><path d="m2 2h1v1h-1z" fill="#72b248"/><path d="m11 3h1v1h-1z" fill="#56962c"/><path d="m1 2h1v1h-1z" fill="#60a036"/><path d="m2 0h1v1h-1z" fill="#56962c"/><path d="m-4 0h1v1h-1z" fill="#60a036" transform="scale(-1 1)"/><path d="m-2 0h1v1h-1z" fill="#72b248" transform="scale(-1 1)"/><path d="m1 0s-1 0-1 1h1z" fill="#56962c"/><path d="m-9 5h1v1h-1z" fill="#b8845b" transform="scale(-1 1)"/><path d="m4 5h1v1h-1z" fill="#785439"/><path d="m1 5h1v1h-1z" fill="#785439"/><path d="m2 5h1v1h-1z" fill="#956b49"/><path d="m-9 4h1v1h-1z" fill="#b8845b" transform="scale(-1 1)"/><path d="m4 4h1v1h-1z" fill="#785439"/><path d="m1 4h1v1h-1z" fill="#785439"/><path d="m2 4h1v1h-1z" fill="#583c28"/><path d="m4 3h1v1h-1z" fill="#583c28"/><path d="m-6 3h1v1h-1z" fill="#b8845b" transform="scale(-1 1)"/><path d="m-9 3h1v1h-1z" fill="#6b6b6b" transform="scale(-1 1)"/><path d="m8 2h1v1h-1z" fill="#956b49"/><path d="m-11 2h1v1h-1z" fill="#72b248" transform="scale(-1 1)"/><path d="m5 2h1v1h-1z" fill="#56962c"/><path d="m-3 3h1v1h-1z" fill="#56962c" transform="scale(-1 1)"/><path d="m4 2h1v1h-1z" fill="#60a036"/><path d="m5 0h-1v1h1z" fill="#56962c"/><path d="m10 0h1v1h-1z" fill="#72b248"/><path d="m0 13h1v1h-1z" fill="#956b49"/><path d="m5 13h1v1h-1z" fill="#583c28"/><path d="m6 13h1v1h-1z" fill="#b8845b"/><path d="m-4 13h1v1h-1z" fill="#785439" transform="scale(-1 1)"/><path d="m12 13h1v1h-1z" fill="#583c28"/><path d="m-13 6h1v1h-1z" fill="#956b49" transform="scale(-1 1)"/><path d="m3 6h1v1h-1z" fill="#583c28"/><path d="m-6 6h1v1h-1z" fill="#785439" transform="scale(-1 1)"/><path d="m-1 6h1v1h-1z" fill="#583c28" transform="scale(-1 1)"/><g transform="scale(1 -1)"><path d="m0-6h1v1h-1z" fill="#956b49"/><path d="m5-6h1v1h-1z" fill="#583c28"/><path d="m6-6h1v1h-1z" fill="#b8845b"/><path d="m7-6h1v1h-1z" fill="#785439"/></g><path d="m-4-6h1v1h-1z" fill="#785439" transform="scale(-1)"/><path d="m12-6h1v1h-1z" fill="#583c28" transform="scale(1 -1)"/><path d="m6 6h1v1h-1z" fill="#583c28"/><path d="m-3 6h1v1h-1z" fill="#b8845b" transform="scale(-1 1)"/><path d="m4 6h1v1h-1z" fill="#6b6b6b"/><path d="m1 6h1v1h-1z" fill="#785439"/><path d="m0 15h1v1s-1 0-1-1z" fill="#956b49"/><path d="m5 15h1v1h-1z" fill="#583c28"/><path d="m6 15h1v1h-1z" fill="#6b6b6b"/><g transform="scale(-1 1)"><path d="m-13 15h1v1h-1z" fill="#785439"/><path d="m-4 15h1v1h-1z" fill="#785439"/><path d="m-3 14h1v1h-1z" fill="#956b49"/><path d="m-2 14h1v1h-1z" fill="#583c28"/><path d="m-5 14h1v1h-1z" fill="#b8845b"/></g><path d="m4 15h1v1h-1z" fill="#b8845b"/><path d="m1 15h1v1h-1z" fill="#785439"/><path d="m2 15h1v1h-1z" fill="#583c28"/><path d="m0 14h1v1h-1z" fill="#956b49"/><path d="m5 14h1v1h-1z" fill="#583c28"/><path d="m6 14h1v1h-1z" fill="#b8845b"/><path d="m-4 14h1v1h-1z" fill="#785439" transform="scale(-1 1)"/><path d="m12 14h1v1h-1z" fill="#583c28"/><g transform="scale(-1)"><path d="m-14-14h1v1h-1z" fill="#b8845b"/><path d="m-12-14h1v1h-1z" fill="#785439"/><path d="m-11-14h1v1h-1z" fill="#785439"/></g><path d="m7-14h1v1h-1z" fill="#956b49" transform="scale(1 -1)"/><path d="m14 4h1v1h-1z" fill="#583c28"/><path d="m15 4h1v1h-1z" fill="#b8845b"/><path d="m-15 3h1v1h-1z" fill="#785439" transform="scale(-1 1)"/><path d="m14 2h1v1h-1z" fill="#583c28"/><g transform="scale(-1 1)"><path d="m-16 2h1v1h-1z" fill="#72b248"/><path d="m-16 3h1v1h-1z" fill="#56962c"/><path d="m-6 0h1v1h-1z" fill="#72b248"/><path d="m-14 0h1v1h-1z" fill="#60a036"/><path d="m-15 0h1v1h-1z" fill="#72b248"/><path d="m-9 0h1v1h-1z" fill="#72b248"/></g><path d="m8 0h-1v1h1z" fill="#56962c"/><g transform="scale(-1 1)"><path d="m-14 5h1v1h-1z" fill="#b8845b"/><path d="m-12 5h1v1h-1z" fill="#785439"/><path d="m-11 5h1v1h-1z" fill="#785439"/><path d="m-14 4h1v1h-1z" fill="#b8845b"/><path d="m-12 4h1v1h-1z" fill="#785439"/><path d="m-11 4h1v1h-1z" fill="#785439"/><path d="m-4 3h1v1h-1z" fill="#583c28"/><path d="m-13 3h1v1h-1z" fill="#b8845b"/></g><path d="m13 2h1v1h-1z" fill="#72b248"/><path d="m12 2h1v1h-1z" fill="#56962c"/><path d="m13 3h1v1h-1z" fill="#56962c"/><path d="m-4 2h1v1h-1z" fill="#60a036" transform="scale(-1 1)"/><path d="m6 0h1v1h-1z" fill="#72b248"/><path d="m16 1c0-1-1-1-1-1v1z" fill="#56962c"/><path d="m12 0h1v1h-1z" fill="#60a036"/><g transform="scale(-1 1)"><path d="m-12 0h1v1h-1z" fill="#72b248"/><path d="m-16 13h1v1h-1z" fill="#6b6b6b"/><path d="m-15 13h1v1h-1z" fill="#785439"/><path d="m-9 13h1v1h-1z" fill="#583c28"/></g><path d="m8 6h1v1h-1z" fill="#956b49"/><path d="m14 6h1v1h-1z" fill="#583c28"/><path d="m15 6h1v1h-1z" fill="#b8845b"/><path d="m-16-6h1v1h-1z" fill="#785439" transform="scale(-1)"/><path d="m-15-6h1v1h-1z" fill="#785439" transform="scale(-1)"/><g transform="scale(-1 1)"><path d="m-8 6h1v1h-1z" fill="#b8845b"/><path d="m-12 6h1v1h-1z" fill="#6b6b6b"/><path d="m-11 6h1v1h-1z" fill="#785439"/></g><path d="m13 6h1v1h-1z" fill="#583c28"/><path d="m8 15h1v1h-1z" fill="#785439"/><g transform="scale(-1 1)"><path d="m-15 15h1v1h-1z" fill="#785439"/><path d="m-14 15h1v1h-1z" fill="#583c28"/><path d="m-8 14h1v1h-1z" fill="#956b49"/></g><path d="m10 14h1v1h-1z" fill="#583c28"/><path d="m11 14h1v1h-1z" fill="#b8845b"/><path d="m13 14h1v1h-1z" fill="#785439"/><path d="m16 15h-1v1s1 0 1-1z" fill="#b8845b"/><path d="m-12 15h1v1h-1z" fill="#b8845b" transform="scale(-1 1)"/><path d="m-11 15h1v1h-1z" fill="#785439" transform="scale(-1 1)"/><path d="m7 15h1v1h-1z" fill="#583c28"/><g transform="scale(-1 1)"><path d="m-16 14h1v1h-1z" fill="#785439"/><path d="m-15 14h1v1h-1z" fill="#785439"/><path d="m-9 14h1v1h-1z" fill="#583c28"/><path d="m-9 11h1v1h-1z" fill="#b8845b"/></g><path d="m4 11h1v1h-1z" fill="#785439"/><path d="m1 11h1v1h-1z" fill="#785439"/><path d="m2 11h1v1h-1z" fill="#956b49"/><path d="m3 12h1v1h-1z" fill="#583c28"/><path d="m-6 12h1v1h-1z" fill="#785439" transform="scale(-1 1)"/><path d="m-1 12h1v1h-1z" fill="#583c28" transform="scale(-1 1)"/><g transform="scale(1 -1)"><path d="m0-12h1v1h-1z" fill="#956b49"/><path d="m5-12h1v1h-1z" fill="#583c28"/><path d="m6-12h1v1h-1z" fill="#b8845b"/><path d="m7-12h1v1h-1z" fill="#785439"/></g><path d="m-4-12h1v1h-1z" fill="#785439" transform="scale(-1)"/><path d="m6 12h1v1h-1z" fill="#583c28"/><path d="m-3 12h1v1h-1z" fill="#b8845b" transform="scale(-1 1)"/><path d="m4 12h1v1h-1z" fill="#6b6b6b"/><path d="m1 12h1v1h-1z" fill="#785439"/><path d="m8 12h1v1h-1z" fill="#956b49"/><path d="m-8 12h1v1h-1z" fill="#b8845b" transform="scale(-1 1)"/><path d="m14 10h1v1h-1z" fill="#b8845b"/><g fill="#583c28"><path d="m-9 10h1v1h-1z" transform="scale(-1 1)"/><path d="m10 10h1v1h-1z"/><path d="m-14 10h1v1h-1z" transform="scale(-1 1)"/></g><path d="m12 10h1v1h-1z" fill="#956b49"/><g transform="scale(-1 1)"><path d="m-16 10h1v1h-1z" fill="#583c28"/><path d="m-12 10h1v1h-1z" fill="#b8845b"/><path d="m-9 9h1v1h-1z" fill="#b8845b"/></g><path d="m4 9h1v1h-1z" fill="#785439"/><path d="m1 9h1v1h-1z" fill="#785439"/><path d="m2 9h1v1h-1z" fill="#956b49"/><g transform="scale(1 -1)"><path d="m0-10h1v1h-1z" fill="#956b49"/><path d="m5-10h1v1h-1z" fill="#583c28"/><path d="m6-10h1v1h-1z" fill="#b8845b"/><path d="m7-10h1v1h-1z" fill="#785439"/></g><path d="m-4-10h1v1h-1z" fill="#785439" transform="scale(-1)"/><path d="m12-10h1v1h-1z" fill="#583c28" transform="scale(1 -1)"/><path d="m-14 9h1v1h-1z" fill="#b8845b" transform="scale(-1 1)"/><g fill="#785439"><path d="m-12 9h1v1h-1z" transform="scale(-1 1)"/><path d="m-11 9h1v1h-1z" transform="scale(-1 1)"/><path d="m-16-10h1v1h-1z" transform="scale(-1)"/><path d="m-15-10h1v1h-1z" transform="scale(-1)"/><path d="m-12 7h1v1h-1z" transform="scale(-1 1)"/><path d="m-15 7h1v1h-1z" transform="scale(-1 1)"/></g><path d="m-14 7h1v1h-1z" fill="#956b49" transform="scale(-1 1)"/><path d="m3 8h1v1h-1z" fill="#956b49"/><path d="m-13 8h1v1h-1z" fill="#583c28" transform="scale(-1 1)"/><path d="m10 8h1v1h-1z" fill="#785439"/><path d="m15 8h1v1h-1z" fill="#583c28"/><path d="m-16-8h1v1h-1z" fill="#956b49" transform="scale(-1)"/><path d="m-11-8h1v1h-1z" fill="#583c28" transform="scale(-1)"/><path d="m12-8h1v1h-1z" fill="#785439" transform="scale(1 -1)"/><path d="m-4-8h1v1h-1z" fill="#583c28" transform="scale(-1)"/><path d="m13 8h1v1h-1z" fill="#b8845b"/><path d="m-12 8h1v1h-1z" fill="#6b6b6b" transform="scale(-1 1)"/><path d="m-15 8h1v1h-1z" fill="#785439" transform="scale(-1 1)"/><path d="m2 7h1v1h-1z" fill="#b8845b"/><path d="m4 7h1v1h-1z" fill="#785439"/><path d="m5 7h1v1h-1z" fill="#785439"/><path d="m-2 8h1v1h-1z" fill="#583c28" transform="scale(-1 1)"/><path d="m-1 8h1v1h-1z" fill="#b8845b" transform="scale(-1 1)"/><path d="m7 8h1v1h-1z" fill="#785439"/><path d="m8 8h1v1h-1z" fill="#583c28"/><g transform="scale(-1)"><path d="m-9-8h1v1h-1z" fill="#956b49"/><path d="m-8-8h1v1h-1z" fill="#583c28"/><path d="m-7-8h1v1h-1z" fill="#b8845b"/></g><path d="m0-8h1v1h-1z" fill="#785439" transform="scale(1 -1)"/><path d="m1-8h1v1h-1z" fill="#785439" transform="scale(1 -1)"/><path d="m-7 8h1v1h-1z" fill="#583c28" transform="scale(-1 1)"/><path d="m4 8h1v1h-1z" fill="#6b6b6b"/><path d="m5 8h1v1h-1z" fill="#785439"/><path d="m-3 8h1v1h-1z" fill="#583c28" transform="scale(-1 1)"/><path d="m0 10h1v1h-1z" fill="#583c28"/><path d="m1 10h1v1h-1z" fill="#6b6b6b"/><path d="m5 10h1v1h-1z" fill="#583c28"/><path d="m7 10h1v1h-1z" fill="#583c28"/><path d="m3 10h1v1h-1z" fill="#785439"/><path d="m2 10h1v1h-1z" fill="#583c28"/><g transform="scale(-1 1)"><path d="m-5 10h1v1h-1z" fill="#583c28"/><path d="m-7 10h1v1h-1z" fill="#785439"/><path d="m-16 1h1v1h-1z" fill="#72b248"/><path d="m-15 1h1v1h-1z" fill="#56962c"/><path d="m-14 1h1v1h-1z" fill="#60a036"/><path d="m-13 1h1v1h-1z" fill="#72b248"/></g><path d="m7 1h1v1h-1z" fill="#56962c"/><path d="m8 1h1v1h-1z" fill="#56962c"/><path d="m11 1h1v1h-1z" fill="#60a036"/><g fill="#72b248"><path d="m-7 1h1v1h-1z" transform="scale(-1 1)"/><path d="m-6 1h1v1h-1z" transform="scale(-1 1)"/><path d="m0 1h1v1h-1z"/></g><path d="m1 1h1v1h-1z" fill="#56962c"/><path d="m-11 1h1v1h-1z" fill="#56962c" transform="scale(-1 1)"/><path d="m2 1h1v1h-1z" fill="#60a036"/><path d="m3 1h1v1h-1z" fill="#72b248"/><path d="m4 1h1v1h-1z" fill="#72b248"/><path d="m-14 11h1v1h-1z" fill="#b8845b" transform="scale(-1 1)"/><path d="m15 12h1v1h-1z" fill="#b8845b"/><path d="m-11 12h1v1h-1z" fill="#785439" transform="scale(-1 1)"/><g transform="scale(1 -1)"><path d="m10-12h1v1h-1z" fill="#583c28"/><path d="m11-12h1v1h-1z" fill="#b8845b"/><path d="m12-12h1v1h-1z" fill="#785439"/></g><path d="m11 12h1v1h-1z" fill="#583c28"/><path d="m-15 12h1v1h-1z" fill="#583c28" transform="scale(-1 1)"/><path d="m-16 11h1v1h-1z" fill="#956b49" transform="scale(-1 1)"/><path d="m13 12h1v1h-1z" fill="#956b49"/><path d="m14-12h1v1h-1z" fill="#583c28" transform="scale(1 -1)"/><g transform="scale(-1 1)"><path d="m-13 12h1v1h-1z" fill="#b8845b"/><path d="m-10 4h1v1h-1z" fill="#785439"/><path d="m-10 3h1v1h-1z" fill="#b8845b"/></g><path d="m9 2h1v1h-1z" fill="#56962c"/><path d="m9 13h1v1h-1z" fill="#583c28"/><path d="m-10 6h1v1h-1z" fill="#785439" transform="scale(-1 1)"/><g fill="#583c28"><path d="m9-6h1v1h-1z" transform="scale(1 -1)"/><path d="m9 15h1v1h-1z"/><path d="m9 14h1v1h-1z"/></g><path d="m-10 0h1v1h-1z" fill="#72b248" transform="scale(-1 1)"/><path d="m-10 12h1v1h-1z" fill="#785439" transform="scale(-1 1)"/><path d="m9-12h1v1h-1z" fill="#583c28" transform="scale(1 -1)"/><path d="m9-10h1v1h-1z" fill="#583c28" transform="scale(1 -1)"/><path d="m9 7h1v1h-1z" fill="#785439"/><path d="m9 8h1v1h-1z" fill="#785439"/><path d="m9 10h1v1h-1z" fill="#583c28"/><path d="m-10 1h1v1h-1z" fill="#72b248" transform="scale(-1 1)"/></svg>