<svg height="16" width="16" xmlns="http://www.w3.org/2000/svg"><g transform="matrix(.70710679 .70710677 .70710679 -.70710677 0 0)"><rect fill="#4bae4f" height="9.177" rx=".492" width="9.177" x="6.72" y="-7.01"/><rect fill="#4bae4f" height="9.177" rx=".492" width="9.177" x="9.15" y="-4.59"/><rect fill="#f58411" height="11.68" rx=".626" width="11.68" x="5.47" y="-5.84"/></g><path d="m7.6338069 11.870662q.6559017-.05804.9983637-.377289.3482664-.319244.3482664-.870666 0-.499182-.3424619-.8474483-.342462-.3482664-1.0041682-.5282041zm-.5804441-6.4951691q-.5978574.040631-.9287105.3482664-.3308531.3018309-.3308531.8126216 0 .4643553.3018309.7719906.3076354.3076354.9577327.4991819zm-2.4030383 6.4719511v-1.602026h.6268795q.023218.795209.4643553 1.20152.4411374.40631 1.3118035.423724v-2.8151539q-1.3350213-.3714842-1.8748343-.8532527-.5398129-.487573-.5398129-1.2885858 0-.9287105.6384884-1.4917412.6384885-.5630307 1.7761588-.632684v-1.5555901h.5804441v1.5555901q.5862484.046435 1.1260614.1915465.5456174.1393066 1.0622126.3772886v1.5207634h-.632684q-.0696533-.6733151-.4701597-1.0622126-.4005064-.3888975-1.0854303-.4411374v2.623607q1.4278923.3888976 1.9967275.8938839.5746396.4991819.5746396 1.3408262 0 .963537-.6733151 1.543981-.6733151.580444-1.898052.66751v1.567199h-.5804441v-1.567199q-.5572263-.011609-1.1550836-.162524-.5978574-.145111-1.2479547-.435333z" fill="#fff" transform="scale(1.0778846 .92774309)"/></svg>