<svg height="16" viewBox="0 0 16 16" width="16" xmlns="http://www.w3.org/2000/svg"><circle cx="7.5" cy="7.5" fill="#4f4f4f" r="7.5"/><g fill="#86c14d"><path d="m5.625 3.4160156a4.5 4.5 0 0 0 -2.625 4.0839844 4.5 4.5 0 0 0 4.5 4.5 4.5 4.5 0 0 0 4.5-4.5 4.5 4.5 0 0 0 -2.625-4.0800781v.0488281a4 4 0 0 1 2.125 3.53125 4 4 0 0 1 -4 4 4 4 0 0 1 -4-4 4 4 0 0 1 2.125-3.5292969z"/><path d="m5 8 1 .75v4.875l.5 2.375.5-2.375v-4.875l1-.75h-.75-1.5z"/><path d="m7 8 1 .75v4.875l.5 2.375.5-2.375v-4.875l1-.75h-.75-1.5z"/></g></svg>