<svg height="16" width="16" xmlns="http://www.w3.org/2000/svg"><path d="m4 1c-2.216 0-4 1.784-4 4l .0078125 1.9102c-.0008522.0304-.0078125.0591-.0078125.0898 0 .0261.0073196.0502.0078125.0762l.021484 6.0668c-.25174 1.482 1.1865 2.419 2.3945.798l2.1289-2.941h6.8943l2.129 2.941c1.208 1.621 2.646.684 2.395-.798l.021-6.0668c.001-.026.008-.0501.008-.0762 0-.0241-.007-.0463-.008-.0703l.008-1.9297c0-2.216-1.784-4-4-4h-8z" fill="#4f4f4f"/><g fill="#e4e4e4"><path d="m3 3h2v4h-2z"/><path d="m4 2h2v4h-2z" transform="matrix(0 1 1 0 0 0)"/></g><path d="m12.023 2.8051a.75.75 0 0 0 -.75.75.75.75 0 0 0  .75.75.75.75 0 0 0  .75-.75.75.75 0 0 0 -.75-.75z" fill="#ee5353"/><path d="m13.46 4.2113a.75.75 0 0 0 -.75.75.75.75 0 0 0  .75.75.75.75 0 0 0  .75-.75.75.75 0 0 0 -.75-.75z" fill="#ffca58"/><path d="m10.5 4.2426a.75.75 0 0 0 -.75.75.75.75 0 0 0  .75.75.75.75 0 0 0  .75-.75.75.75 0 0 0 -.75-.75z" fill="#ee5353"/><path d="m12.024 5.7192a.75.75 0 0 0 -.75.75.75.75 0 0 0  .75.75.75.75 0 0 0  .75-.75.75.75 0 0 0 -.75-.75z" fill="#ffca58"/></svg>