<svg height="16" width="16" xmlns="http://www.w3.org/2000/svg"><path d="m15 14.25v-13.4999997c0-.4155-.3345-.75-.75-.75h-13.5c-.4155 0-.75.3345-.75.75v13.4999997c0 .4155.3345.75.75.75h13.5c.4155 0 .75-.3345.75-.75z" fill="#4f4f4f"/><g fill="#fff"><path d="m2 2v2h2v-2z"/><path d="m2 5v2h2v-2z"/><path d="m2 8v2h2v-2z"/><path d="m2 11v2h2v-2z"/></g><rect fill="#28a1e1" height="3" rx=".556" ry=".6" width="5" x="5" y="10"/><g fill="#fff"><path d="m11 2v2h2v-2z"/><path d="m11 5v2h2v-2z"/><path d="m11 8v2h2v-2z"/><path d="m11 11v2h2v-2z"/></g><rect fill="#28a1e1" height="3" rx=".556" ry=".6" width="5" x="5" y="6"/><rect fill="#28a1e1" height="3" rx=".556" ry=".6" width="5" x="5" y="2"/></svg>