<svg height="32" width="32" xmlns="http://www.w3.org/2000/svg"><rect fill="#7ea540" fill-rule="evenodd" height="28.203388" ry="5.575182" width="28.203388" x="1.898306" y="1.898306"/><path d="m15.586054 19.585076c1.149376-1.143406 1.325445-1.268682 1.938314-1.920615-.06501-.186273-.164533-.571726-.164533-.963664v-1.11971l-.795567.332409c-1.173616.490368-3.402405.321515-4.312793-.326739l-.702312-.500091-.832658.551028c-1.3563215.897571-2.3910584 2.653808-2.7651693 4.693261l-.1868648 1.018689h3.0239001 3.023901zm.851258-4.689858c1.383659-.669817 2.074072-1.955635 1.952502-3.636317-.133161-1.8409428-1.128203-3.0290234-2.869494-3.4261757-2.289312-.5221449-4.594311 1.2986579-4.594311 3.6292117 0 2.942034 2.853746 4.719783 5.511303 3.433281z" fill="#fff" stroke-width=".214461"/><path d="m14.006378 24.939086c-.222284-.08164-.414473-.27666-.493556-.5008-.05396-.152913-.05156-1.507622.0028-1.641202.02822-.06923.681371-.737673 2.469806-2.527633l2.431424-2.433503-.06081-.168569c-.03344-.09271-.09162-.299407-.129241-.459314-.06316-.268316-.0685-.32919-.0692-.789087-.000706-.431613.0068-.533753.05582-.762784.334209-1.562129 1.495655-2.723586 3.057943-3.057968.230602-.04937.329765-.05647.77494-.05552.576096.0011.793165.03504 1.255524.195661.570589.198227 1.040335.494711 1.479282.933658.438949.438948.735432.908695.93366 1.47928.162653.468191.194943.678174.194943 1.267684 0 .589505-.03229.799485-.194943 1.267679-.198228.570588-.494711 1.040331-.93366 1.47928-.320717.320716-.595474.523337-.966962.71309-.541092.276382-1.018085.400463-1.62199.421936-.53181.01889-1.000558-.0511-1.437916-.214727l-.135998-.05089-.458898.458425-.458902.458419v.528057c0 .63356-.0227.725939-.229351.932573-.201416.201417-.306846.229354-.865482.229354h-.460968v.460968c0 .558632-.02793.664065-.229351.865479-.206503.206505-.299235.229354-.930724.229354h-.526181l-.366247.359869c-.288134.28312-.387587.366074-.466305.388952-.149606.04348-1.497627.03706-1.619526-.0078zm1.647506-1.055284c.198436-.193813.371657-.340502.452128-.382873l.130449-.06869.565192-.0077.565194-.0077v-.45935c0-.556836.02807-.66259.229352-.863865.201279-.201275.307032-.229356.863865-.229356h.459348l.0077-.56519.0077-.565195.06993-.133708c.05205-.09952.245682-.31052.757253-.825195l.68732-.691495.227279.111709c.273202.134265.532546.222556.817752.278374.283862.05556.819964.05562 1.103455.000124 1.277071-.249972 2.240611-1.213477 2.491276-2.491184.05587-.284745.05587-.842342 0-1.127091-.250659-1.277664-1.217303-2.244098-2.491276-2.490722-.258387-.05002-.815623-.05569-1.074042-.01095-.414087.07174-.871399.256341-1.23978.500434-.234235.155201-.659261.580231-.814463.814463-.465407.702387-.633941 1.50766-.483742 2.311391.04589.245588.15226.554558.278882.810094l.103549.208977-2.55648 2.542524-2.556474 2.542521v.556889.556889h.538479.538477zm7.28728-6.730485c-.273768-.146458-1.016721-.842594-1.380447-1.293456-.28077-.348041-.313254-.409456-.29839-.564157.01478-.154342.176018-.478346.323899-.651073.330344-.385835.850173-.641776 1.071269-.527441.366394.189465 1.287216 1.091037 1.615124 1.581351.127842.19115.12816.291286.0018.558842-.186701.3953-.42531.637427-.81918.831268-.244681.120418-.378405.137237-.514068.06466zm.490877-.500622c.06684-.0442.172636-.132167.235077-.195531.116925-.118622.288026-.411651.286991-.491464-.0018-.125491-.765543-.94241-1.208609-1.292458l-.248968-.196706-.09012.03766c-.275676.115183-.546931.374942-.678846.650074l-.08027.167386.150766.197254c.206016.269533.830905.892982 1.10706 1.104514l.226685.173637.08935-.03701c.04914-.02035.144025-.07315.210885-.11735z" fill="#fff" stroke-width=".024309"/></svg>