<svg height="16" width="16" xmlns="http://www.w3.org/2000/svg"><path d="m16 15.2v-14.4c0-.4432-.3568-.8-.8-.8h-11.335902l-1.5929947 1.6112084c-.3116033.315166-.9435637.1833391-1.1852889.5548161l-1.0858144 1.6686515v11.365324c0 .4432.3568.8.8.8h14.4c.4432 0 .8-.3568.8-.8z" fill="#ccc"/><g fill="#e4e4e4"><path d="m2.3761821 2.1366024c-.2450602.3692856-1.3317968-.1540066-1.53555162.2395797l-.84063048 1.6238179h16v-3.2c0-.4432-.3568-.8-.8-.8h-11.4059544z"/><path d="m2.2711033 1.295972c-.3546289.265828-1.0283767.4193253-1.2553415.8l-1.0157618 1.7036776v11.4003504c0 .4432.3568.8.8.8h3.2v-16z"/><path d="m14 4v12h1.2c.4432 0 .8-.3568.8-.8v-11.2z"/></g><path d="m .8 0c-.4432 0-.8.3568-.8.8v3.2h4v-4z" fill="#d32626"/><path d="m4 13h7v3h-7z" fill="#ffd000"/><path d="m11 13h3v3h-3z" fill="#0fa925"/><path d="m14 4h2v2h-2z" fill="#1268c9"/></svg>