<svg height="16" width="16" xmlns="http://www.w3.org/2000/svg"><rect fill="#936ff6" height="15" rx="7.5" transform="matrix(0 -1 -1 0 0 0)" width="15" x="-15" y="-15"/><path d="m7.4917922 1.9920655a.50005.50005 0 0 0 -.4921875.5078125v1l-1.1992188-.9003906a.50078135.50078135 0 1 0 -.6015624.8007812l1.8007812 1.3496094v1.8828125l-1.6289062-.9414063-.2675782-2.234375a.50078135.50078135 0 0 0 -.9941406.1210938l.1796875 1.4882812-.8652344-.5a.50005.50005 0 0 0 -.6855469.171875.50005.50005 0 0 0  .1855469.6953126l.8652344.5-1.3789063.5878906a.50099181.50099181 0 1 0  .3925782.921875l2.0683594-.8847656 1.6289062.9414062-1.6289062.9394531-2.0683594-.8847656a.50099181.50099181 0 1 0 -.3925782.921875l1.3789063.5878906-.8691406.5019529a.50050385.50050385 0 1 0  .5.867189l.8691406-.5019532-.1796875 1.4882812a.50078121.50078121 0 1 0  .9941406.121094l.2675782-2.2343764 1.6289062-.9414062v1.8808606l-1.8007812 1.349609a.50078127.50078127 0 1 0  .6015624.800781l1.1992188-.90039v1.003906a.50005.50005 0 1 0 1 0v-1.003906l1.1992188.90039a.50078136.50078136 0 1 0  .6015625-.800781l-1.8007813-1.349609v-1.8808606l1.6308595.9414062.2695318 2.2343764a.50078128.50078128 0 1 0  .99414-.121094l-.179687-1.4882812.86914.5019532a.50050385.50050385 0 0 0  .5-.867189l-.86914-.5019529 1.378906-.5878906a.50099177.50099177 0 1 0 -.392578-.921875l-2.070313.8847656-1.6289062-.9394531 1.6289062-.9414062 2.070313.8847656a.50099177.50099177 0 1 0  .392578-.921875l-1.380859-.5878906.867187-.5a.50005.50005 0 0 0  .185547-.6953126.50005.50005 0 0 0 -.685547-.171875l-.867187.5.18164-1.4882812a.50078135.50078135 0 0 0 -.99414-.1210938l-.2695318 2.234375-1.6308595.9414063v-1.8828125l1.8007813-1.3496094a.50078144.50078144 0 1 0 -.6015625-.8007812l-1.1992188.9003906v-1a .50005.50005 0 0 0 -.5078125-.5078125z" fill="#fff" fill-rule="evenodd"/></svg>