<svg height="32" width="32" xmlns="http://www.w3.org/2000/svg"><rect fill="#fff" fill-rule="evenodd" height="28.203388" ry="5.575182" width="28.203388" x="-55.050846" y="-12.474575"/><g fill-rule="evenodd" transform="translate(9.898372 46.236829)"><path d="m18.574351-42.707991-24.945312 24.943359c1.007714 1.007714 2.400987 1.628906 3.945312 1.628906h17.054688c3.088651.000001 5.574218-2.485567 5.574218-5.574218v-17.054688c.000001-1.543739-.621867-2.935734-1.628906-3.943359z" fill="#328fe3"/><path d="m5.6191406-42.0625c-.4337221.01332-.8528799.07396-1.2734375.130859l.4042969.345703-1.09375.585938 1.3925781.330078.1777344-.46875h.609375l.2128906-.40625-.4296875-.109375zm-1.2734375.130859-.011719-.0098-.4960938.0625c.1654233-.02992.3400869-.03004.5078125-.05273zm-.9960937.152344c-1.113593.249805-2.1667062.652679-3.13671878 1.1875-.97126911.535514-1.85991822 1.202206-2.64062502 1.976563-.7807068.774356-1.4545423 1.654835-1.9980468 2.621093-.5435046.966259-.9551813 2.017688-1.2148438 3.128907l.037109.05664-.1015625.189453c-.01846.08801-.032248.176757-.048828.265625l.453125.697266 1.2519531.310547v-.203125l.5.07227-.046875.359374.3925781.07031.6074219.167969.859375.984375 1.09765622.08203.10546876.900391-.74999998.52539-.035156.806641-.1074218.490234 1.08593745 1.369141.0820313.464844s.39321225.107421.44140625.107421c.0260042 0 .25093785.175257.48242187.347657l3.99999993-3.998047-.0097656-.148438-.3339844-.585937-.9082031-.013672-.5234375-.828125-.4648438-.226562-.025391.25-.8457031.05078-.3105469-.433594-.88085935-.179687-.72851563.84375-1.14453122-.19336-.083984-1.296875-.8359375-.144531.3359375-.636719-.095703-.367187-1.0976563.740234-.6914062-.08594-.2460938-.541015.1503906-.560547.3808594-.703125.8789063-.447266h1.6914062l-.00391.517579.60742185.285156-.0488281-.886719.43945313-.445313.88476563-.582031.0605469-.412109.88476569-.923828.9355469-.521485-.080078-.06836.6347656-.603516.2304688.0625.109375.136719.2402344-.271484.058594-.02539-.2636719-.03711-.2695312-.08984v-.259766l.1445312-.117187h.3105469l.1445313.06445.1230468.251953.1542969-.02344v-.02148l.041016.01367.4433593-.06641.060547-.216797.25.06445v.232432l-.2324219.160156.035156.257813.7949218.248047s.00221.0033.00391.0098l.1835937-.01563.011719-.347656-.6308594-.289062-.037109-.166016.5234376-.179688.025391-.503906-.5488282-.335937-.037109-.851563-.75.371094h-.2734395l.070312-.648438-1.0214844-.242187-.421875.322265v.980469l-.7617187.242188-.3066407.638672-.3300781.05469v-.818359l-.71484375-.09961-.35742187-.232421-.14453126-.53125 1.27929688-.753907.625-.189453.064453.421875.3476563-.01563.027344-.214844.3652344-.05273.00586-.07422-.15625-.06445-.037109-.224609.4492187-.03711.2714844-.285156.013672-.02148.00391.002zm10.5957026 2.726563-.167968.02734-.515625.738282-.744141.11914-.107422.638672.3125.07227-.08984.412109-.738281-.148437-.673828.148437-.144531.376953.117187.794922.373047.173828 2.853516-2.853515c-.163074-.16211-.302429-.346836-.47461-.5zm-3.066406 4.041015-.04297.02344v.01953z" fill="#007dff" fill-opacity=".554545" opacity=".441"/><path d="m-2.4257812-44.337891c-3.08865 0-5.5742188 2.485568-5.5742188 5.574219v17.054688c0 1.544325.6211923 2.937598 1.6289062 3.945312l7.03710942-7.037109c-.23148403-.1724-.45641766-.347657-.48242187-.347657-.048194 0-.44140625-.107421-.44140625-.107421l-.0820313-.464844-1.0859374-1.369141.1074218-.490234.035156-.806641.74999993-.52539-.10546876-.900391-1.09765617-.08203-.859375-.984375-.6074219-.167969-.3925781-.07031.046875-.359374-.5-.07227v.203125l-1.2519531-.310547-.453125-.697266c.01658-.08887.030368-.177615.048828-.265625l.1015625-.189453-.037109-.05664c.2596625-1.111219.6713392-2.162648 1.2148438-3.128907.5435045-.966258 1.21734-1.846737 1.9980468-2.621093.7807068-.774357 1.66935586-1.441049 2.64062497-1.976563.97001263-.534821 2.02312583-.937695 3.13671883-1.1875.00144-.000323.00246-.0016.00391-.002-.00144.000323-.00246.0016-.00391.002l-.041016.04297-.00391-.002-.013672.02148-.2714844.285156-.4492187.03711.037109.224609.15625.06445-.00586.07422-.3652344.05273-.027344.214844-.3476563.01563-.064453-.421875-.625.189453-1.27929693.753907.14453126.53125.35742187.232421.7148438.09961v.818359l.3300781-.05469.3066407-.638672.7617187-.242188v-.980469l.421875-.322265 1.0214844.242187-.070312.648438h.2734375l.75-.371094.037109.851563.5488282.335937-.025391.503906-.5234376.179688.037109.166016.6308595.289062-.011719.347656-.1835937.01563c-.0017-.0065-.00391-.0098-.00391-.0098l-.794912-.247963-.0351563-.257813.2324219-.160156v-.232422l-.25-.06445-.060547.216797-.4433593.06641-.041016-.01367v.02148l-.1542969.02344-.1230468-.251953-.1445313-.06445h-.3105465l-.1445312.117187v.259766l.2695312.08984.2636719.03711-.058594.02539-.2402344.271484-.109375-.136719-.2304688-.0625-.6347656.603516.080078.06836-.9355469.521485-.88476565.923828-.0605469.412109-.88476563.582031-.43945313.445313.0488281.886719-.60742189-.285156.00391-.517579h-1.6914062l-.8789063.447266-.3808594.703125-.1503906.560547.2460938.541015.6914062.08594 1.0976563-.740234.095703.367187-.3359375.636719.8359375.144531.083984 1.296875 1.14453126.19336.72851563-.84375.88085931.179687.3105469.433594.8457031-.05078.025391-.25.4648438.226562.5234375.828125.9082031.01367.3339844.585937.00977.148438 6.1699229-6.169922v-.01953l.04297-.02344.6875-.6875-.373047-.173828-.117187-.794922.144531-.376953.673828-.148437.738281.148437.08984-.412109-.3125-.07227.107422-.638672.744141-.11914.515625-.738282.167968-.02734c.17218.153164.311536.33789.47461.5l4.154297-4.154297v-.002c-1.007714-1.007714-2.400988-1.628907-3.945313-1.628907zm8.0449218 2.275391v.408203l.4296875.109375-.2128906.40625h-.609375l-.1777344.46875-1.3925781-.330078 1.09375-.585938-.4042969-.345703c-.1677256.02269-.3423892.02282-.5078125.05273l.4960938-.0625.011719.0098c.4205576-.0569.8397154-.117541 1.2734375-.130859z" fill="#42b2f6"/><path d="m14.410157-38.701172-2.855469 2.855468.02539.01172.666016-.0039.449219-.04102.136718-.359375.703126-.917968.464843.09375.453125-.41211.08594.322266 1.11914.759765-.136718.185547-.503907-.02734.19336.27539.310547.06836.365234-.150391-.0098-.441406.164063-.08203-.132813-.138671-.748046-.417969-.19336-.556641h.410156c-.291972-.369874-.633763-.692373-.966796-1.023437zm.251953 2.765625-1.607422.126953-.5.269531h-.638672l-.314453-.03125-.732422.410156-.04297.04297v.796875l-1.585937 1.148438.130859.492187h.320313l-.08203.466797-.228515.08203-.01172 1.22461 1.371094 1.570312h.597656l.03711-.0957h1.070313l.310547-.287109h.609375l.332031.335937.908203.0957-.119141 1.210938 1.003907 1.785156-.529297 1.019531.03516.480469.417969.417969v1.154297l.117187.15625c.755382-1.001479 1.360102-2.124572 1.775391-3.335938s.640625-2.510662.640625-3.867187c0-.862622-.09227-1.702718-.265625-2.511719-.173358-.809002-.427913-1.586599-.753906-2.326172l-.509766.04883v.449219h-.232422l-.25-.179688-1.273437-.322265zm-10.00586 6.988281-4 3.998047c.192988.143709.402344.289062.402344.289062v2.470703l.298828.08398-.203125 1.136719.5.671874-.091797 1.128907.00977.01953c.622079.245243 1.264518.448607 1.933594.587891l.02539-.07227.025391-.328125-.425781-.01367-.214844-.267578.353515-.341797.048829-.257812-.394532-.113282.023438-.238281.560547-.08594.853515-.41211.285157-.527343.894531-1.150391-.203125-.900391.273437-.478515.822266.02539.554687-.441406.179688-1.738281.613281-.783203.107422-.503907-.560547-.179687-.36914-.609375-1.263672-.01367-1.001953-.384766z" fill="#c1dfff"/></g></svg>