<svg height="22" viewBox="0 0 16 16" width="22" xmlns="http://www.w3.org/2000/svg"><path d="m2.1818165 9.1323638 2.1874909 1.2625452c-.00364.05018-.00553.100364-.00567.150546 0 1.205091.9768727 2.181818 2.1818182 2.181818 1.2050181 0 2.1818181-.976727 2.1818181-2.181818-.000509-.06909-.00429-.137455-.011345-.205818l3.1829823-2.0584002c1.127273-.286182 1.91709-1.3000731 1.919273-2.4630549 0-1.4058182-1.139637-2.5454546-2.545455-2.5454546-1.248728.0007273-2.3121458.9067637-2.5113458 2.1392l-1.8025485 2.9928725c-.1362182-.026836-.2746182-.040582-.4133818-.041163-.3293091.000727-.6541819.076-.9502546.220145l-3.4133818-1.9708363m9.0909095-2.6129454c1.004363 0 1.818182.8140362 1.818182 1.8181817s-.813818 1.8181818-1.818182 1.8181818-1.8181822-.8140363-1.8181822-1.8181818.8138182-1.8181817 1.8181822-1.8181817zm0 .7272727c-.602182 0-1.090909.4884364-1.090909 1.090909 0 .6024727.488727 1.0909091 1.090909 1.0909091.602181 0 1.090909-.4884364 1.090909-1.0909091 0-.6024726-.488728-1.090909-1.090909-1.090909zm-4.7272731 4.363636c.8033454 0 1.4545454.650909 1.4545454 1.4545462 0 .803636-.6512 1.454545-1.4545454 1.454545-.6935273-.000727-1.2899637-.491636-1.4247273-1.171636l.5128.296727c.5234182.301818 1.1878545.124364 1.4900364-.399273.3021818-.523636.1242909-1.1876362-.3991273-1.4901812l-.2457455-.141819c.022255-.0015.044509-.0022.066764-.0029z" fill="#5c616c" stroke-width=".727273"/></svg>