<svg height="22" viewBox="0 0 16 16" width="22" xmlns="http://www.w3.org/2000/svg"><path d="m6.5454544 3.2727273c-1.2050182 0-2.1818182.9768728-2.1818182 2.1818182 0 1.2049455.9768 2.1818182 2.1818182 2.1818182 1.2050181 0 2.1818181-.9768727 2.1818181-2.1818182 0-1.2049454-.9768-2.1818182-2.1818181-2.1818182zm3.6335226 1.4147728.0028.00284c-.2823855 0-.5478502.064946-.7883523.1732954.039709.1905819.06108.3876996.06108.5894887 0 .8015273-.3303373 1.5303112-.8607955 2.0582385.3345454.5090911.9161366.8508522 1.5852278.8508522 1.041963 0 1.886363-.8220294 1.886363-1.8366476 0-1.0146181-.8444-1.8380681-1.886364-1.8380681zm-3.6335226 4.4005677c-4.3637819.002473-4.3636364 2.9119322-4.3636364 2.9119322v.727273h8.727273v-.727273s0-2.9163632-4.3636366-2.9090912zm3.6363636.00142v.0014c-.142618 0-.2703375.0092-.4019884.01563.5073164.290662.8939024.637872 1.1661924 1.0014212.683637.916363.690342 1.890625.690342 1.890625h2.181818v-.727273s0-2.1818182-3.636364-2.1818182z" fill="#5c616c" stroke-width=".727273"/></svg>