<svg height="32" width="32" xmlns="http://www.w3.org/2000/svg"><g transform="translate(39.457627 .40678)"><path d="m-11.553947 6.3203503c1.168734-.000738 2.1096289.940894 2.1096289 2.10963v17.6105187c0 1.168735-.9408949 2.109629-2.1096289 2.109629h-23.80736c-1.168735 0-2.109682-.940894-2.109629-2.109629l.000731-16.2445062.000731-5.0669075c0-.937797.754977-1.692774 1.692773-1.692774h9.090821c.937797 0 1.704839.371322 2.299888 1.096152l1.801865 2.19486z" fill="#e5b732"/><path d="m-9.4443181 14.915255v11.125245c0 1.168735-.9408949 2.109629-2.1096289 2.109629h-23.80736c-1.168735 0-2.109682-.940894-2.109629-2.109629l.000501-11.125244c10.665105 0 20.259927-.000001 28.0261169-.000001z" fill="#f5ce46"/></g></svg>