<svg height="22" width="22" xmlns="http://www.w3.org/2000/svg"><g transform="matrix(0 -1 -1 0 0 0)"><rect height="16" opacity=".2" rx="4" ry="5" width="16" x="-21.5" y="-19"/><rect fill="#8e8e8e" height="16" rx="1.5" width="16" x="-17" y="-19"/><rect fill="#8e8e8e" height="16" rx="4" ry="5" width="16" x="-21" y="-19"/></g><rect height="13" opacity=".6" rx=".5" width="12" x="5" y="3"/><circle cx="7" cy="18" opacity=".5" r="1"/><circle cx="16" cy="18" opacity=".5" r="1"/><path d="m14 1h1v1h-1z" opacity=".5"/><circle cx="11.5" cy="18.5" opacity=".5" r="1.5"/><path d="m4.5 1c-.831 0-1.5.669-1.5 1.5v.5c0-.831.669-1.5 1.5-1.5h13c .831 0 1.5.669 1.5 1.5v-.5c0-.831-.669-1.5-1.5-1.5z" fill="#fff" opacity=".1"/></svg>