<svg height="12pt" viewBox="0 0 12 12" width="12pt" xmlns="http://www.w3.org/2000/svg"><path d="m3.375 8.25 2.25 2.25s.375.375.75 0l2.25-2.25zm0 0" fill="#5c616c"/><path d="m6.105469 1.511719c-2.003907-.03125-3.9375.753906-5.363281 2.175781l-.523438.523438c-.2929688.292968-.2929688.761718 0 1.050781l1.574219 1.578125c.292969.289062.765625.289062 1.058593 0l .898438-.902344v-1.695312l.148438-.058594c1.335937-.589844 2.867187-.589844 4.203124.007812l.148438.054688v1.691406l.910156.902344c.28125.292968.753906.292968 1.046875 0l1.578125-1.578125c.289063-.289063.289063-.757813 0-1.050781l-.527344-.523438c-1.371093-1.367188-3.21875-2.148438-5.152343-2.175781zm0 0" fill="#5294e2"/></svg>