<svg height="16" width="16" xmlns="http://www.w3.org/2000/svg"><g fill="#5c616c"><path d="m3.5 1h2c .277 0 .5.223.5.5v2c0 .277-.223.5-.5.5h-2c-.277 0-.5-.223-.5-.5v-2c0-.277.223-.5.5-.5z"/><path d="m7.5 1h2c .277 0 .5.223.5.5v2c0 .277-.223.5-.5.5h-2c-.277 0-.5-.223-.5-.5v-2c0-.277.223-.5.5-.5z"/><path d="m11.5 1h2c .277 0 .5.223.5.5v2c0 .277-.223.5-.5.5h-2c-.277 0-.5-.223-.5-.5v-2c0-.277.223-.5.5-.5z"/><path d="m11.5 5h2c .277 0 .5.223.5.5v2c0 .277-.223.5-.5.5h-2c-.277 0-.5-.223-.5-.5v-2c0-.277.223-.5.5-.5z"/><path d="m7.5 5h2c .277 0 .5.223.5.5v2c0 .277-.223.5-.5.5h-2c-.277 0-.5-.223-.5-.5v-2c0-.277.223-.5.5-.5z"/><path d="m3.5 5h2c .277 0 .5.223.5.5v2c0 .277-.223.5-.5.5h-2c-.277 0-.5-.223-.5-.5v-2c0-.277.223-.5.5-.5z"/><path d="m3.5 9h2c .277 0 .5.223.5.5v2c0 .277-.223.5-.5.5h-2c-.277 0-.5-.223-.5-.5v-2c0-.277.223-.5.5-.5z"/><path d="m7.5 9h2c .277 0 .5.223.5.5v2c0 .277-.223.5-.5.5h-2c-.277 0-.5-.223-.5-.5v-2c0-.277.223-.5.5-.5z"/><path d="m11.5 9h2c .277 0 .5.223.5.5v2c0 .277-.223.5-.5.5h-2c-.277 0-.5-.223-.5-.5v-2c0-.277.223-.5.5-.5z"/><path d="m7.5 13h2c .277 0 .5.223.5.5v2c0 .277-.223.5-.5.5h-2c-.277 0-.5-.223-.5-.5v-2c0-.277.223-.5.5-.5z"/></g></svg>