<svg height="32" width="32" xmlns="http://www.w3.org/2000/svg"><rect height="16" opacity=".2" rx="1.25" width="25" x="3" y="12"/><path d="m3 21.75c0 .692.5575 1.25 1.25 1.25h22.5c.692 0 1.25-.558 1.25-1.25v-13.5c0-.6925-.558-1.25-1.25-1.25h-12.75v-.75c0-.6925-.557-1.25-1.25-1.25h-8.5c-.6925 0-1.25.5575-1.25 1.25" fill="#957552"/><rect height="16" opacity=".2" rx="1.25" width="25" x="3" y="10"/><rect fill="#e4e4e4" height="10" rx="1.25" width="21" x="5" y="9"/><rect fill="#ae8e6c" height="16" rx="1.25" width="25" x="3" y="11"/><path d="m4.25 5c-.6925 0-1.25.5575-1.25 1.25v1c0-.6925.5575-1.25 1.25-1.25h8.5c.693 0 1.25.5575 1.25 1.25v.75h12.75c.692 0 1.25.5575 1.25 1.25v-1c0-.6925-.558-1.25-1.25-1.25h-12.75v-.75c0-.6925-.557-1.25-1.25-1.25z" fill="#fff" opacity=".1"/><path d="m13.41 16.301c-.034.007-.069.02-.101.035-.323.151-.407.623-.186 1.06.178.352.493.57.779.563.216 1.169 1.074 2.041 2.098 2.041s1.882-.872 2.098-2.041c.286.007.601-.211.779-.563.221-.437.137-.909-.186-1.06-.032-.015-.067-.028-.101-.035-.042-1.278-1.184-2.301-2.59-2.301s-2.548 1.023-2.59 2.301zm2.586 4.699c-.583 0-1.109-.29-1.496-.752-1.631.241-3.375.59-3.484.988-.002.006.001.013 0 .018-.005.02-.006.038-.008.058-.001.01-.008.016-.008.026v1.394c0 .149.111.268.25.268h9.5c.139 0 .25-.119.25-.268v-1.404c-.001-.032-.015-.06-.023-.092-.116-.414-1.806-.777-3.409-1.019-.123.172-.287.327-.507.443l-.002.002c-.312.215-.673.338-1.055.338" fill="#3d3226"/></svg>