<svg height="22" viewBox="0 0 16 16" width="22" xmlns="http://www.w3.org/2000/svg"><path d="m2.181818 2.1818182v11.6363638h11.636364v-11.6363638zm3.3246753 1.6623376h.8311689v.8311689h.4155844c.5402597 0 .9974026.3490909 1.171948.8311688h-1.171948-.4155844v.8311688h.4155844c.6898701 0 1.2467532.5568831 1.2467532 1.2467533 0 .6898701-.5568831 1.2467532-1.2467532 1.2467532h-.4155844v.831169h-.8311689v-.831169h-.4155844c-.5402597 0-.9974026-.3490909-1.171948-.8311688h1.171948.4155844v-.8311688h-.4155844c-.6898701 0-1.2467532-.5568832-1.2467532-1.2467533s.5568831-1.2467532 1.2467532-1.2467532h.4155844zm-.4155844 1.6623377c-.2327273 0-.4155844.1828571-.4155844.4155844s.1828571.4155844.4155844.4155844h.4155844v-.8311688zm1.2467533 1.6623377v.8311688h.4155844c.2327272.00831.4155844-.1828572.4155844-.4155844 0-.2327273-.1828572-.4155844-.4155844-.4155844zm2.4935064 1.6623376h3.3246754v.831169h-3.3246754z" fill="#d3dae3" stroke-width=".831169"/></svg>