<svg height="32" viewBox="0 0 32 32" width="32" xmlns="http://www.w3.org/2000/svg"><rect height="28" opacity=".2" rx="1.4" transform="matrix(0 -1 -1 0 0 0)" width="28" x="-31" y="-30"/><rect fill="#8e8e8e" height="28" rx="1.4" transform="matrix(0 -1 -1 0 0 0)" width="28" x="-30" y="-30"/><path d="m13 8-.888672 4h-3.8886718l-.6679687 3h3.8906245l-.890624 4h-3.8886724l-.6660156 3h3.8886719l-.8886719 4h3l .888672-4h4l-.888672 4h3l .888672-4h3.912109l.666016-3h-3.912109l.890624-4h3.910157l.644531-2.896484v-.103516h-3.888672l.888672-4h-3l-.888672 4h-4l .888672-4zm1.445312 7h4l-.890624 4h-4z" opacity=".2"/><g fill="#3f3f3f"><path d="m13 7h3l-4 18h-3z"/><path d="m20 7h3l-4 18h-3z"/><path d="m8.2223281 11-.6679687 3h17.800719l.644531-2.896484v-.103516zm-1.5566406 7-.6660156 3h17.800718l.666016-3z"/></g><path d="m3.4003906 2c-.7756 0-1.4003906.6247906-1.4003906 1.4003906v1c0-.7756.6247906-1.4003906 1.4003906-1.4003906h25.199218c.7756 0 1.400391.6247906 1.400391 1.4003906v-1c0-.7756-.624791-1.4003906-1.400391-1.4003906h-25.199218z" fill="#fff" opacity=".2"/></svg>