<svg height="32" width="32" xmlns="http://www.w3.org/2000/svg"><rect height="28" opacity=".2" rx="1.4" transform="matrix(0 -1 -1 0 0 0)" width="28" x="-31" y="-30"/><rect fill="#4f4f4f" height="28" rx="1.4" transform="matrix(0 -1 -1 0 0 0)" width="28" x="-30" y="-30"/><path d="m9.6992188 6c-.3878 0-.6992188.3114187-.6992188.6992188v6.3007812 6.300781c0 .3878.3114188.699219.6992188.699219h6.3007812a6.9999999 6.9999999 0 0 0 7-7 6.9999999 6.9999999 0 0 0 -7-7zm3.6015622 4h2.699219a2.9999999 2.9999999 0 0 1 3 3 2.9999999 2.9999999 0 0 1 -3 3h-2.699219c-.1662 0-.300781-.134581-.300781-.300781v-2.699219-2.699219c0-.1662.134581-.300781.300781-.300781z" opacity=".2"/><path d="m9.6992188 5c-.3878 0-.6992188.3114187-.6992188.6992188v6.3007812 6.300781c0 .3878.3114188.699219.6992188.699219h6.3007812a6.9999999 6.9999999 0 0 0 7-7 6.9999999 6.9999999 0 0 0 -7-7zm3.6015622 4h2.699219a2.9999999 2.9999999 0 0 1 3 3 2.9999999 2.9999999 0 0 1 -3 3h-2.699219c-.1662 0-.300781-.134581-.300781-.300781v-2.699219-2.6992188c0-.1661999.134581-.3007812.300781-.3007812z" fill="#fff"/><g fill="none" opacity=".2" stroke="#000" stroke-linecap="round" stroke-width=".999937" transform="translate(1 .000001)"><path d="m6.5069175 27.492861-.9999375-1.499906m-.9999379-.499969s1.9998754.232235 1.9998754-.999936c0-1.232173-1.9998754-.999938-1.9998754-.999938m.0000492 3.999798v-3.999749"/><path d="m9.5070893 25.993005h1.9998737m-1.9998237 1.499905v-2.999811m1.9998237 2.999811v-2.999811m-1.9998737 0s0-.999938.9999367-.999938c.999937 0 .999937.999938.999937.999938" stroke-linejoin="bevel"/><path d="m14.500018 23.500232v3.999749h1.999874" stroke-linejoin="round"/><path d="m19.500018 23.500232v3.999749h1.999874" stroke-linejoin="round"/><path d="m24.504166 27.49291v-1.999875m1.499906-1.999874-1.499906 1.999874m-1.499905-1.999874 1.499905 1.999874"/></g><g fill="none" stroke="#f07400" stroke-linecap="round" stroke-width=".999937" transform="translate(1 -1)"><path d="m6.5069175 27.492861-.9999375-1.499906m-.9999379-.499969s1.9998754.232235 1.9998754-.999936c0-1.232173-1.9998754-.999938-1.9998754-.999938m.0000492 3.999798v-3.999749"/><path d="m9.5070893 25.993005h1.9998737m-1.9998237 1.499905v-2.999811m1.9998237 2.999811v-2.999811m-1.9998737 0s0-.999938.9999367-.999938c.999937 0 .999937.999938.999937.999938" stroke-linejoin="bevel"/><path d="m14.500018 23.500232v3.999749h1.999874" stroke-linejoin="round"/><path d="m19.500018 23.500232v3.999749h1.999874" stroke-linejoin="round"/><path d="m24.504166 27.49291v-1.999875m1.499906-1.999874-1.499906 1.999874m-1.499905-1.999874 1.499905 1.999874"/></g><path d="m3.4003906 2c-.7756 0-1.4003906.6247906-1.4003906 1.4003906v1c0-.7756.6247906-1.4003906 1.4003906-1.4003906h25.1992184c.7756 0 1.400391.6247906 1.400391 1.4003906v-1c0-.7756-.624791-1.4003906-1.400391-1.4003906z" fill="#fff" opacity=".1"/></svg>