<svg height="32" width="32" xmlns="http://www.w3.org/2000/svg"><path d="m16.00007 3.0007c-7.7287386 0-13.99447 6.2650313-14.00007 13.99237v11.834259c0 1.203516.9691548 2.172671 2.1726709 2.172671h11.834959c7.729439 0 13.99237-6.269861 13.99237-14.00007 0-7.7322387-6.268111-14.00007-14.00007-14.00007z" opacity=".2"/><path d="m16.00007 2.00077c-7.7287386 0-13.99447 6.2650313-14.00007 13.99237v11.834259c0 1.203516.9691548 2.172671 2.1726709 2.172671h11.834959c7.729439 0 13.99237-6.269861 13.99237-14.00007 0-7.7322387-6.268111-14.00007-14.00007-14.00007z" fill="#324e89"/><g fill="#fff"><path d="m20.5 5c-3.589851 0-6.5 2.9101491-6.5 6.5v3.5h-4.5c-3.5898509 0-6.5 2.910149-6.5 6.5s2.9101491 6.5 6.5 6.5c3.589851 0 6.5-2.910149 6.5-6.5v-3.5h4.5c3.589851 0 6.5-2.910149 6.5-6.5 0-3.5898509-2.910149-6.5-6.5-6.5zm0 3c1.932997 0 3.5 1.5670029 3.5 3.5 0 1.932997-1.567003 3.5-3.5 3.5h-2.576172s-.923828-.000601-.923828-1.039062v-2.460938c0-1.9329971 1.567003-3.5 3.5-3.5zm-11 10h2.576172s.923828.000601.923828 1.039062v2.460938c0 1.932997-1.567003 3.5-3.5 3.5-1.9329966 0-3.5-1.567003-3.5-3.5s1.5670034-3.5 3.5-3.5z" opacity=".2"/><path d="m20.5 5c-3.589851 0-6.5 2.9101491-6.5 6.5v3.5h-3.527344c-.8188183.06097-1.4631066.719277-1.4628904 1.552734 0 .661844.4064799 1.217774.9824219 1.447266h2.0839845s.923828.000601.923828 1.039062v2.460938c0 1.932997-1.567003 3.5-3.5 3.5-.5 0-.6898206-.04461-1-.09961-.8284271 0-1.5.671573-1.5 1.5.00148.790189.6157167 1.443726 1.4042969 1.49414.016576.0047.02931.01665.046875.01953.3415619.055984.6916687.08594 1.0488281.08594 3.589851 0 6.5-2.910149 6.5-6.5v-3.5h3.982422c.578924-.228189.990234-.785287.990234-1.449219-.000661-.821709-.628896-1.48036-1.429687-1.550781h-1.619141s-.923828-.000602-.923828-1.039062v-2.460938c0-1.9329971 1.567003-3.5 3.5-3.5.242735 0 .480211.024692.708984.072266h.002c.09524.018441.19205.027598.289062.027344.828427 0 1.5-.6715729 1.5-1.5-.000703-.6623383-.43573-1.2458146-1.070312-1.4355469-.0012-.0002836-.0027.0002829-.0039 0-.112468-.03364-.228496-.053962-.345703-.060547-.352427-.0610323-.710443-.1035161-1.080131-.1035161z"/><path d="m16 2c-7.7287386 0-13.9944 6.2648488-14 13.992188v1c .0056-7.7273392 6.2712614-13.992188 14-13.992188 7.563182 0 13.709176 6.0013187 13.974609 13.5.005919-.167297.025391-.331262.025391-.5 0-7.7322387-6.268041-14-14-14z" opacity=".1"/></g></svg>