<svg height="32" viewBox="0 0 32 32" width="32" xmlns="http://www.w3.org/2000/svg"><path d="m23 4.8756447a14 14 0 0 0 -19.1243552 5.1243553 14 14 0 0 0 5.1243558 19.124356 14 14 0 0 0 19.1243544-5.124356 14 14 0 0 0 -5.124355-19.1243553z" opacity=".2"/><path d="m23 3.8756444a14 14 0 0 0 -19.1243552 5.1243557 14 14 0 0 0 5.1243558 19.1243559 14 14 0 0 0 19.1243544-5.124356 14 14 0 0 0 -5.124355-19.1243556z" fill="#42b8fe"/><path d="m16.330078 2.0039062a14 14 0 0 0 -12.455078 6.9960938 14 14 0 0 0 -1.8515625 7.40625 14 14 0 0 1 1.8515625-6.40625 14 14 0 0 1 19.125-5.125 14 14 0 0 1 6.976562 11.71875 14 14 0 0 0 -6.976562-12.71875 14 14 0 0 0 -6.669922-1.8710938z" fill="#fff" opacity=".2"/><path d="m26.721132 7.139029 1.350113 3.796569 3.639254-1.7299056-1.729906 3.6392536 3.796569 1.350113-3.796569 1.350113 1.729906 3.639253-3.639254-1.729906-1.350113 3.79657-1.350113-3.79657-3.639253 1.729906 1.729906-3.639254-3.79657-1.350112 3.79657-1.350113-1.729906-3.6392538 3.639254 1.7299058z" opacity=".2" transform="matrix(.56626835 .43586288 -.43586288 .56626835 11.055768 -7.684962)"/><path d="m26.721132 7.139029 1.350113 3.796569 3.639254-1.7299056-1.729906 3.6392536 3.796569 1.350113-3.796569 1.350113 1.729906 3.639253-3.639254-1.729906-1.350113 3.79657-1.350113-3.79657-3.639253 1.729906 1.729906-3.639254-3.79657-1.350112 3.79657-1.350113-1.729906-3.6392538 3.639254 1.7299058z" fill="#fff" transform="matrix(.56626835 .43586288 -.43586288 .56626835 11.055768 -8.684962)"/><g fill="none" stroke-linecap="round" stroke-linejoin="round" stroke-width="2"><path d="m9 3.9898236c-3 11.0000004.3460958 19.2281544 8 27.0000004" opacity=".2" stroke="#000"/><path d="m9 3c-3 11 .3460958 19.228154 8 27" stroke="#3f3f3f"/><path d="m30 16.989824c-7.880913 7.840867-17 9-27 6" opacity=".2" stroke="#000"/><path d="m30 16c-7.880913 7.840867-17 9-27 6" stroke="#3f3f3f"/></g></svg>