<svg height="32" width="32" xmlns="http://www.w3.org/2000/svg"><path d="m23.857143 7.6895171c1.249419-.9456263 2.446419-2.1652884 3.867321-2.5569664.824272-.1963647 1.590023-.2315556 2.151191.2966964.34349.5442889.892722 1.1197848 1.068424 1.9296644.150202.6923429.01885 1.6724478-.652455 1.6612812-.504522-.1766863-1.590669-.5769965-2.230518-.4356471-1.68568.3723839-2.127509 1.6154544-2.127509 1.6154544z" opacity=".2"/><path d="m21.585395 28.21852c-5.975989 4.029262-15.7700319 3.653183-19.4150093-.947705-3.13062921-3.951652.3456426-15.108343 6.5526238-20.1566113 6.2069815-5.048269 12.1924985-3.3037995 16.4294465 2.1281686 4.236948 5.4319687 3.065191 14.5044067-3.567061 18.9761477z" opacity=".2"/><path d="m23.857143 6.6895172c1.249419-.9456263 2.446419-2.1652884 3.867321-2.5569664.824272-.1963647 1.590023-.2315556 2.151191.2966964.34349.5442889.892722 1.1197848 1.068424 1.9296644.150202.6923429.01885 1.6724478-.652455 1.6612812-.504522-.1766863-1.590669-.5769965-2.230518-.4356471-1.68568.3723839-2.127509 1.6154543-2.127509 1.6154543z" fill="#77451f"/><path d="m28.898438 4.0097656c-.364618-.0326882-.761693.0248645-1.173829.1230469-1.420902.391678-2.617768 1.6110143-3.867187 2.5566406l.498047.6035157c1.075032-.8659329 2.137625-1.8206836 3.36914-2.1601563.824272-.1963647 1.589223-.231377 2.150391.296875.341982.5418987.886268 1.1156445 1.064453 1.9199219.071119-.3124932.071828-.6771577.003906-.9902344-.175702-.8098796-.724869-1.3853986-1.068359-1.9296875-.280584-.264126-.611945-.3872337-.976562-.4199219z" fill="#fff" opacity=".1"/><path d="m21.585395 27.21852c-5.975989 4.029262-15.7700319 3.653183-19.4150093-.947705-3.13062921-3.951652.3456426-15.108343 6.5526238-20.1566112 6.2069815-5.048269 12.1924985-3.3037995 16.4294465 2.1281686 4.236948 5.4319686 3.065191 14.5044066-3.567061 18.9761476z" fill="#ebbe63"/><path d="m16.615234 3.1289062c-2.502895-.131694-5.177023.7757574-7.8925778 2.984375-4.7766294 3.8849331-7.9215523 11.3772718-7.6972656 16.4296878.1894938-4.999133 3.2269859-11.793915 7.6972656-15.4296878 6.2069818-5.0482689 12.1927398-3.3030618 16.4296878 2.1289063 1.539308 1.9734655 2.355821 4.4294545 2.464844 6.9687505.088964-2.889463-.723941-5.73683-2.464844-7.9687505-2.383284-3.0554821-5.319102-4.9439604-8.53711-5.1132813z" fill="#fff" opacity=".2"/><path d="m15.419643 3.0000983c-1.161492-.00454-2.291043.1494859-3.344183.4606883-1.60107.6307795-2.9152783 1.2129035-1.418995 2.000005 2.837274 1.4774683 5.51043 3.4896852 7.823934 6.0427224 3.680929 4.062043 5.965823 8.9303 7.013442 13.731422.296546 1.660354 1.737821.191077 2.328704-.417341 3.232502-3.348379 3.070531-11.562764-1.87158-17.0165705-2.900163-3.2004359-6.873865-4.7866232-10.531322-4.8009262z" opacity=".2"/><path d="m15.419643 2.0000984c-1.161492-.00454-2.291043.1494859-3.344183.4606883-1.60107.6307795-2.9152783 1.2129035-1.418995 2.000005 2.837274 1.4774683 5.51043 3.4896852 7.823934 6.0427223 3.680929 4.062043 5.965823 8.9303 7.013442 13.731422.296546 1.660354 1.737821.191077 2.328704-.417341 3.232502-3.348379 3.070531-11.562764-1.87158-17.0165704-2.900163-3.2004359-6.873865-4.7866232-10.531322-4.8009262z" fill="#a9622c"/><path d="m15.419922 2c-1.161492-.00454-2.29061.1497351-3.34375.4609375-1.472026.5799396-2.6734478 1.1196547-1.699219 1.8144531.380625-.2758994 1.004966-.5409357 1.699219-.8144531 1.05314-.3112024 2.182258-.4654775 3.34375-.4609375 3.657457.014303 7.631087 1.6003453 10.53125 4.8007812 2.64565 2.9195748 3.910815 6.6271888 4.029297 9.9589848.125805-3.571931-1.115165-7.74313-4.029297-10.9589848-2.900163-3.2004359-6.873793-4.7864782-10.53125-4.8007812z" fill="#fff" opacity=".1"/></svg>