<svg height="32" width="32" xmlns="http://www.w3.org/2000/svg"><path d="m30 17a14 14 0 0 1 -14 14 14 14 0 0 1 -14-14 14 14 0 0 1 14-14 14 14 0 0 1 14 14z" opacity=".2"/><path d="m30 16a14 14 0 0 1 -14 14 14 14 0 0 1 -14-14 14 14 0 0 1 14-14 14 14 0 0 1 14 14z" fill="#4f4f4f"/><path d="m16 9c-.376405 0-.754439.016971-.994141.052734-2.893265.4315301-4.602964 1.8938256-4.945312 4.2265626-.03782.257736-.04861.715323-.05469 2.46875l-.005857 2.0820314.08398.138672c.207221.343093.493264.583776 1.855469 1.5625 2.277388 1.636272 3.212569 2.234165 3.789063 2.416016.09098.0287.21673.0519.279296.05273.382606.0053 1.501514-.643479 3.195313-1.855469 2.112288-1.511443 2.503135-1.825343 2.708984-2.167969l.087895-.14648v-1.71875c0-2.240483-.01403-2.637028-.115234-3.117187-.180481-.856283-.509756-1.531837-1.033204-2.121094-.840184-.9458171-2.154209-1.5659876-3.859374-1.8203126-.23971-.03575-.615783-.0527344-.992188-.0527344zm0 3c1.999997.000009 2.545045 1.178874 2.931641 2.623047.06807.25426.06836.264618.06836 1.298828 0 .573422-.0078 1.052891-.01758 1.064453-.0098.01154-1.346061.01606-2.982422.01172-1.636361.0044-2.972623-.000159-2.982422-.01172-.009799-.01156-.017577-.491031-.017577-1.064453 0-1.03421.000319-1.044568.06836-1.298828.3866-1.444173.931643-2.623056 2.93164-2.623047zm-5.998047 7s-.00572.587641.002 2.775391l.0098 2.6875.08984.167968c.06931.128895.125514.187587.238281.253907l.148437.08789 2.390625.01367c1.314817.0079 3.775246.01447 5.46875.01367l3.080079-.002.148437-.0625c.19133-.08219.247244-.132473.335937-.298828l.07227-.134766.0039-2.451172.009691-3.05073h-.03906l-.04883.08008c-.20585.333837-.596697.63864-2.708985 2.111326-1.693798 1.180911-2.812707 1.813794-3.195313 1.808594-.06257-.0008-.188315-.02476-.279296-.05273-.576494-.17719-1.511675-.757249-3.789063-2.351563-1.362207-.953626-1.648249-1.189142-1.855469-1.523437l-.044922-.07227h-.03711z" opacity=".2"/><path d="m16 8c-.376405 0-.754439.0169714-.994141.0527344-2.893265.4315301-4.602964 1.8938258-4.945312 4.2265626-.03782.257736-.048608.715323-.054688 2.46875l-.005859 2.082031.083984.138672c.207221.343093.493264.583776 1.855469 1.5625 2.277388 1.636272 3.212569 2.234165 3.789063 2.416016.09098.0287.21673.051904.279296.052734.382606.0053 1.501514-.643479 3.195313-1.855469 2.112288-1.511443 2.503135-1.825343 2.708984-2.167969l.087891-.146484v-1.71875c0-2.240483-.01403-2.637028-.115234-3.117187-.180481-.856283-.509756-1.531837-1.033204-2.1210941-.840184-.945817-2.154209-1.5659875-3.859374-1.8203125-.23971-.03575-.615783-.0527344-.992188-.0527344zm0 3c1.999997.000009 2.545045 1.178874 2.931641 2.623047.06807.25426.068359.264618.068359 1.298828 0 .573422-.007798 1.052891-.017578 1.064453-.0098.01154-1.346061.016059-2.982422.011719-1.636361.0044-2.972623-.000159-2.982422-.011719-.0098-.01156-.017578-.491031-.017578-1.064453 0-1.03421.000319-1.044568.068359-1.298828.386601-1.444173.931644-2.623056 2.931641-2.623047zm-5.998047 7s-.0057167.587641.001953 2.775391l.009766 2.6875.089844.167968c.06931.128895.125514.187587.238281.253907l.148437.08789 2.390625.013672c1.314817.0079 3.775246.014472 5.46875.013672l3.080079-.001953.148437-.0625c.19133-.08219.247244-.132473.335937-.298828l.072266-.134766.003906-2.451172.009766-3.050781h-.039062l-.048829.080078c-.205849.333839-.596696.638642-2.708984 2.111328-1.693798 1.180911-2.812707 1.813794-3.195313 1.808594-.062569-.0008-.188315-.024764-.279296-.052734-.576494-.17719-1.511675-.757249-3.789063-2.351563-1.362207-.953626-1.648249-1.189142-1.855469-1.523437l-.044922-.072266z" fill="#fff"/><path d="m16 2a14 14 0 0 0 -14 14 14 14 0 0 0  .0214844.585938 14 14 0 0 1 13.9785156-13.585938 14 14 0 0 1 13.978516 13.414062 14 14 0 0 0  .021484-.414062 14 14 0 0 0 -14-14z" fill="#fff" opacity=".1"/></svg>