<svg height="32" width="32" xmlns="http://www.w3.org/2000/svg"><rect height="29" opacity=".2" rx="1.45" width="29" x="2" y="2"/><rect fill="#e4e4e4" height="29" rx="1.45" width="29" x="2" y="1"/><g fill="none" stroke-linecap="round" stroke-linejoin="round" stroke-width="3"><path d="m16.499983 6.4996663v6.9996607m-6.999983-2.999661h14m-10 12h6m-3.000017 3.99997v-15.79c2.380474 3.85671 4.263622 9.890582 9.000017 10.8m-8.985876 4.97006v-15.789999c-2.380474 3.85671-4.27773 9.890581-9.014124 10.799999" opacity=".1" stroke="#000"/><g stroke="#3f3f3f"><path d="m16.499983 25.49997v-15.7899999c2.380474 3.8567099 4.263622 9.8905819 9.000017 10.7999999m-8.985876 4.97006v-15.7899994c-2.380474 3.8567104-4.27773 9.8905814-9.014124 10.7999994"/><path d="m13.5 21.5h6"/><path d="m9.5 9.5h14"/><path d="m16.499983 5.5v6.999661"/></g></g><path d="m3.4492188 1c-.8033 0-1.4492188.6459188-1.4492188 1.4492188v1c0-.8033.6459188-1.4492188 1.4492188-1.4492188h26.1015622c.8033 0 1.449219.6459188 1.449219 1.4492188v-1c0-.8033-.645919-1.4492188-1.449219-1.4492188z" fill="#fff" opacity=".2"/></svg>