<svg height="32" width="32" xmlns="http://www.w3.org/2000/svg"><path d="m4.2999999 4.0000001h23.4c.7202 0 1.3.5763975 1.3 1.292371v23.415258c0 .715974-.5798 1.292371-1.3 1.292371h-23.4c-.7202 0-1.3-.576397-1.3-1.292371v-23.415258c0-.7159735.5798-1.292371 1.3-1.292371z" opacity=".2"/><path d="m4.2999999 3.0000001h23.4c.7202 0 1.3.5763975 1.3 1.292371v23.415258c0 .715974-.5798 1.292371-1.3 1.292371h-23.4c-.7202 0-1.3-.576397-1.3-1.292371v-23.415258c0-.7159735.5798-1.292371 1.3-1.292371z" fill="#236fbc"/><path d="m2.5 16.500343h9l3.131607-6.9999999 2.736786 14 3.131607-7h9" style="opacity:.2;stroke-linejoin:round;stroke:#000;stroke-linecap:round;stroke-width:3;fill:none"/><path d="m2.5 15.5h9l3.131607-7 2.736786 14 3.131607-7h9" fill="none" stroke="#76eead" stroke-linecap="round" stroke-linejoin="round" stroke-width="3"/><path d="m4.3007812 3c-.7202 0-1.3007812.5769952-1.3007812 1.2929688v1c0-.7159736.5805812-1.2929688 1.3007812-1.2929688h23.398438c.7202 0 1.300781.5769952 1.300781 1.2929688v-1c0-.7159735-.580581-1.2929688-1.300781-1.2929688z" fill="#fff" opacity=".1"/></svg>