<svg height="32" viewBox="0 0 32 32" width="32" xmlns="http://www.w3.org/2000/svg"><path d="m11.678531 4.0041521c-.139495.00845-.280611.030496-.421074.06786-1.123703.2989135-1.7857896 1.4387163-1.484693 2.5542766l.816171 3.0265873c-.708035.41852-1.3643376.899101-1.9754902 1.41829l-2.3254738-2.4091009c-.8050307-.8339805-2.1481471-.8166473-2.9707555 0-.8226083.8166472-.8052031 2.1140549 0 2.9478699l2.3487148 2.432172c-1.0382005 1.155221-1.9906169 2.236501-2.9352099 2.945154-.9742939.710174-.974294 2.486064 0 3.196239 4.169414 2.575433 6.969196 8.834556 13.2679146 8.816461h.0027c6.298719.0181 9.098501-6.241028 13.267915-8.816461.974294-.710175.974294-2.486065 0-3.196239-.944216-.708362-1.896145-1.78912-2.933843-2.943798l2.350082-2.433528c.805213-.833805.822608-2.1312227 0-2.9478699-.822609-.8166473-2.164343-.8339662-2.969389 0l-2.328177 2.4118149c-.607557-.516304-1.258567-.995838-1.961815-1.4128599l.818905-3.0347307c.301095-1.1155604-.36099-2.2553631-1.484694-2.5542766-1.123703-.2989134-2.27046.3597313-2.571555 1.4752915l-.730044 2.6059125c-.467162-.0636944-.952246-.1003722-1.458718-.100434h-.0014c-.500076.0000597-.977844.036931-1.439579.099077l-.73001-2.6045559c-.263459-.9761148-1.174021-1.6023095-2.150482-1.5431518z" opacity=".2"/><path d="m11.678531 3.0041523c-.139495.00845-.280611.030496-.421074.06786-1.123703.2989135-1.7857896 1.4387163-1.484693 2.5542766l.816171 3.0265873c-.708035.4185198-1.3643376.8991006-1.9754902 1.4182898l-2.3254738-2.4091007c-.8050307-.8339805-2.1481471-.8166473-2.9707555 0-.8226083.8166472-.8052031 2.1140548 0 2.9478697l2.3487148 2.432172c-1.0382005 1.155221-1.9906169 2.236501-2.9352099 2.945154-.9742939.710174-.974294 2.486064 0 3.196239 4.169414 2.575433 6.969196 8.834556 13.2679146 8.816461h.0027c6.298719.0181 9.098501-6.241028 13.267915-8.816461.974294-.710175.974294-2.486065 0-3.196239-.944216-.708362-1.896145-1.78912-2.933843-2.943798l2.350082-2.433528c.805213-.8338049.822608-2.1312225 0-2.9478697-.822609-.8166473-2.164343-.8339662-2.969389 0l-2.328177 2.4118147c-.607557-.5163042-1.258567-.9958374-1.961815-1.4128597l.818905-3.0347307c.301095-1.1155604-.36099-2.2553631-1.484694-2.5542766-1.123703-.2989134-2.27046.3597313-2.571555 1.4752915l-.730044 2.6059125c-.467162-.0636944-.952246-.1003722-1.458718-.100434h-.0014c-.500076.0000597-.977844.036931-1.439579.099077l-.73001-2.6045559c-.263459-.9761148-1.174021-1.6023095-2.150482-1.5431518z" fill="#ef9202"/><circle cx="16" cy="19" opacity=".2" r="8"/><circle cx="16" cy="18" fill="#fff" r="8"/><circle cx="16" cy="18" fill="#ff5a2e" r="5"/><path d="m11.677734 3.0039062c-.139495.00845-.279458.0309954-.419922.0683594-1.113167.2961111-1.7706604 1.4179609-1.4902339 2.5234375.1750025-.7163363.7200779-1.31857 1.4902339-1.5234375.140464-.037364.280427-.0599094.419922-.0683594.976461-.0591576 1.886932.566854 2.150391 1.5429688l.730469 2.6054688c.461735-.062146.939377-.0995497 1.439453-.0996094h.001953c.506472.0000618.991822.035915 1.458984.0996094l.730469-2.6054688c.301095-1.1155602 1.44661-1.7735228 2.570313-1.4746094.770157.2048675 1.315231.8071012 1.490234 1.5234375.280425-1.1054767-.377065-2.2273264-1.490234-2.5234375-1.123703-.2989134-2.269218.3590492-2.570313 1.4746094l-.730469 2.6054688c-.467162-.0636945-.952512-.0995476-1.458984-.0996094h-.001953c-.500076.0000597-.977718.0374633-1.439453.0996094l-.730469-2.6054688c-.263459-.9761148-1.17393-1.6021265-2.150391-1.5429688zm-6.8691402 4.0390626c-.539234.0021666-1.0808833.2108169-1.4921876.6191406-.5405876.5366702-.7111506 1.2789866-.5410156 1.9628906.0876632-.3511816.2616984-.6855974.5410156-.9628906.8226085-.8166473 2.1656725-.8339805 2.9707032 0l2.3261718 2.4082026c.6111527-.519188 1.2685276-.999448 1.9765628-1.4179682l-.228516-.8496094c-.618852.3838675-1.205084.8063178-1.7480468 1.2675776l-2.3261718-2.4082026c-.4025154-.4169903-.9392817-.6213073-1.4785156-.6191406zm22.3847652 0c-.53889-.0021649-1.074039.2021575-1.476562.6191406l-2.328125 2.4121096c-.539345-.4583378-1.120397-.8812973-1.734375-1.2636721l-.228516.8496093c.703248.4170218 1.355334.8977588 1.962891 1.4140628l2.328125-2.4121096c.805046-.8339662 2.146141-.8166473 2.96875 0 .278695.2766759.453125.6106187.541015.9609375.169372-.683407-.000905-1.4247408-.541015-1.9609375-.411305-.4083237-.953297-.6169758-1.492188-.6191406zm-21.9980465 6.5136722c-.8544373.948448-1.6682847 1.832092-2.4648437 2.429687-.6197544.451746-.842533 1.334025-.6738282 2.09961.0962845-.438681.3187946-.840822.6738282-1.09961.9445929-.708653 1.8973463-1.788138 2.9355468-2.943359zm21.6113285 0-.470703.486328c1.037697 1.154678 1.989377 2.234997 2.933593 2.943359.355034.258788.577544.660929.673828 1.09961.168705-.765585-.054073-1.647864-.673828-2.09961-.796337-.597421-1.608755-1.481552-2.46289-2.429687z" fill="#fff" opacity=".2"/></svg>