<svg height="32" width="32" xmlns="http://www.w3.org/2000/svg"><path d="m27.90368 6.7271311c1.168734-.000739 2.109629.940894 2.109629 2.109629v17.6105189c0 1.168735-.940895 2.109629-2.109629 2.109629h-23.807359c-1.168735 0-2.109682-.940894-2.10963-2.109629l.000732-16.244506.000731-5.0669082c0-.9377959.754977-1.6927728 1.692773-1.6927728h9.09082c.937797 0 1.704839.371321 2.299888 1.0961519l1.801865 2.1948602z" fill="#9a9a9a"/><path d="m16 12.033898a6 6 0 0 0 -6 6 6 6 0 0 0 6 6 6 6 0 0 0 6-6 6 6 0 0 0 -6-6zm-3 3h2v .004l1 .996 1-1h2v6h-2v-3l-1 1-1-1v3h-2z" fill-opacity=".65098"/></svg>