<svg height="48" viewBox="0 0 48 48" width="48" xmlns="http://www.w3.org/2000/svg"><circle cx="24" cy="24" fill="#252a35" r="20"/><path d="m21 10v3.419922a11.000001 11.000001 0 0 0 -2.351562.984375l-2.425782-2.425781-4.24414 4.24414 2.419922 2.419922a11.000001 11.000001 0 0 0 -.970704 2.357422h-3.427734v6h3.419922a11.000001 11.000001 0 0 0  .984375 2.351562l-2.425781 2.425782 4.24414 4.24414 2.419922-2.419922a11.000001 11.000001 0 0 0 2.357422.970704v3.427734h6v-3.419922a11.000001 11.000001 0 0 0 2.351562-.984375l2.425782 2.425781 4.24414-4.24414-2.419922-2.419922a11.000001 11.000001 0 0 0  .970704-2.357422h3.427734v-6h-3.419922a11.000001 11.000001 0 0 0 -.984375-2.351562l2.425781-2.425782-4.24414-4.24414-2.419922 2.419922a11.000001 11.000001 0 0 0 -2.357422-.970704v-3.427734zm3 9a5 5 0 0 1 5 5 5 5 0 0 1 -5 5 5 5 0 0 1 -5-5 5 5 0 0 1 5-5z" fill="#fff"/></svg>