<svg height="48pt" viewBox="0 0 48 48" width="48pt" xmlns="http://www.w3.org/2000/svg"><path d="m11.210938 2.847656h25.578124c4.621094 0 8.363282 3.742188 8.363282 8.363282v25.578124c0 4.621094-3.742188 8.363282-8.363282 8.363282h-25.578124c-4.621094 0-8.363282-3.742188-8.363282-8.363282v-25.578124c0-4.621094 3.742188-8.363282 8.363282-8.363282zm0 0" fill="#f58411" fill-rule="evenodd"/><g fill="#ffcd6e"><path d="m28.085938 10.5 4.5-3v30l-4.5 3zm0 0"/><path d="m13.433594 30-4.847656-2.398438 25.980468-15 4.847656 2.398438zm0 0"/><path d="m39.066406 32.101562.347656 5.398438-25.980468-15-.347656-5.398438zm0 0"/></g></svg>