<svg height="48pt" viewBox="0 0 48 48" width="48pt" xmlns="http://www.w3.org/2000/svg"><path d="m11.210938 2.847656h25.578124c4.621094 0 8.363282 3.742188 8.363282 8.363282v25.578124c0 4.621094-3.742188 8.363282-8.363282 8.363282h-25.578124c-4.621094 0-8.363282-3.742188-8.363282-8.363282v-25.578124c0-4.621094 3.742188-8.363282 8.363282-8.363282zm0 0" fill="#5b5b5b" fill-rule="evenodd"/><path d="m36 24c0 6.628906-5.371094 12-12 12s-12-5.371094-12-12 5.371094-12 12-12 12 5.371094 12 12zm0 0" fill="#373737"/><path d="m34.5 24c0-5.800781-4.699219-10.5-10.5-10.5s-10.5 4.699219-10.5 10.5 4.699219 10.5 10.5 10.5 10.5-4.699219 10.5-10.5zm0 0" fill="#ba174e"/><path d="m30 24c0 3.3125-2.6875 6-6 6s-6-2.6875-6-6 2.6875-6 6-6 6 2.6875 6 6zm0 0" fill="#d67495"/></svg>