<svg height="48pt" viewBox="0 0 48 48" width="48pt" xmlns="http://www.w3.org/2000/svg"><path d="m11.210938 2.847656h25.578124c4.621094 0 8.363282 3.742188 8.363282 8.363282v25.578124c0 4.621094-3.742188 8.363282-8.363282 8.363282h-25.578124c-4.621094 0-8.363282-3.742188-8.363282-8.363282v-25.578124c0-4.621094 3.742188-8.363282 8.363282-8.363282zm0 0" fill="#6de588" fill-rule="evenodd"/><path d="m9.914062 11.078125v24.371094c0 2.214843 2.214844 2.214843 2.214844 2.214843h28.804688zm5.539063 12.042969 10.503906 9.003906h-10.503906zm0 0" fill="#009688"/><path d="m23.269531 21.050781c.582031.019531 1.109375.34375 1.394531.851563l8.304688 14.953125.210938 4.132812-3.117188-2.515625-6.855469-12.339844v-5.078124c.023438 0 .042969-.003907.0625-.003907zm0 0" fill="#a2a2a2" fill-rule="evenodd"/><path d="m23.148438 21.050781c-.582032.019531-1.113282.34375-1.394532.851563l-8.308594 14.953125-.207031 4.132812 3.117188-2.515625 1.167969-2.097656c1.773437.84375 3.71875 1.285156 5.683593 1.289062 7.34375 0 13.292969-5.949218 13.292969-13.292968h-3.320312c0 5.507812-4.464844 9.972656-9.972657 9.972656-1.402343-.007812-2.789062-.308594-4.066406-.886719l4.066406-7.324219v-5.078124c-.019531 0-.039062-.003907-.058593-.003907zm0 0" fill="#ccc"/><path d="m20.992188 14.402344v3.324218h-1.105469c-2.21875 0-2.21875 2.214844-2.21875 2.214844v5.539063s2.769531 2.769531 3.878906 3.875c.996094.777343 2.648437.839843 3.503906-.179688l3.695313-3.695312v-5.539063s0-2.214844-2.214844-2.214844h-1.109375v-3.324218zm0 0" fill="#4f4f4f"/><path d="m25.421875 22.15625c0 1.222656-.988281 2.214844-2.214844 2.214844-1.222656 0-2.214843-.992188-2.214843-2.214844s.992187-2.214844 2.214843-2.214844c1.226563 0 2.214844.992188 2.214844 2.214844zm0 0" fill="#fff"/></svg>