<svg height="48pt" viewBox="0 0 48 48" width="48pt" xmlns="http://www.w3.org/2000/svg"><g fill-rule="evenodd"><path d="m28.707031 2.847656h-17.5c-4.632812 0-8.359375 3.726563-8.359375 8.359375v25.582031c0 4.636719 3.726563 8.363282 8.359375 8.363282h25.582031c4.636719 0 8.363282-3.726563 8.363282-8.363282v-25.582031c0-4.632812-3.726563-8.359375-8.363282-8.359375h-5.257812c-.675781.722656-1.445312 1.453125-1.984375 2.160156-.964844 1.253907-1.730469 2.488282-2.355469 3.710938-1.242187 2.445312-1.902344 4.84375-2.402344 7.28125l-2.054687-.417969c.515625-2.539062 1.257813-5.144531 2.613281-7.804687.675782-1.332032 1.507813-2.675782 2.542969-4.035156.226563-.296876.574219-.597657.816406-.894532zm0 0" fill="#999"/><path d="m28.707031 2.847656c-.242187.296875-.589843.597656-.816406.894532-1.035156 1.359374-1.867187 2.703124-2.542969 4.035156-1.355468 2.660156-2.097656 5.265625-2.613281 7.804687l2.054687.417969c.5-2.4375 1.160157-4.835938 2.402344-7.28125.625-1.222656 1.390625-2.457031 2.355469-3.710938.539063-.707031 1.308594-1.4375 1.984375-2.160156zm0 0" fill="#666"/><path d="m39.457031 44.617188-2.496093-3.136719c-2.648438-3.324219-2.753907-3.441407-3.09375-3.382813-1.179688.203125-2.308594.203125-3.042969.003906-.910157-.246093-1.941407-.886718-2.550781-1.589843-.488282-.5625-1.078126-1.695313-1.191407-2.292969l-.070312-.382812h-6.132813l-.257812.789062c-.394532 1.214844-1.074219 2.148438-1.984375 2.765625-.90625.617187-2.039063.917969-3.339844.863281l-1.078125-.046875-2.960938 3.421875c-1.554687 1.800782-2.21875 2.578125-2.71875 2.988282.847657.285156 1.722657.535156 2.667969.535156h25.582031c.949219 0 1.820313-.25 2.667969-.535156zm0 0" fill="#999"/><path d="m45.152344 33.292969c-.023438-.09375-.042969-.1875-.066406-.273438-.160157-.671875-.84375-3.589843-1.523438-6.480469-.980469-4.171874-1.324219-5.445312-1.671875-6.1875-.410156-.878906-.9375-1.675781-1.578125-2.390624-.640625-.71875-1.398438-1.355469-2.257812-1.902344-1.722657-1.089844-3.875-1.835938-6.414063-2.210938-1.5-.21875-14.105469-.214844-15.347656.003906-1.957031.347657-3.480469.769532-4.769531 1.355469-1.289063.585938-2.34375 1.339844-3.351563 2.339844-1.015625 1.011719-1.246094 1.320313-1.722656 2.277344-.574219 1.167969-.625 1.351562-2.695313 9.808593-.285156 1.160157-.585937 2.398438-.90625 3.699219v3.457031c0 3.6875 2.394532 6.707032 5.691406 7.828126.5-.410157 1.164063-1.1875 2.71875-2.988282l2.960938-3.421875 1.078125.046875c1.300781.054688 2.433594-.246094 3.339844-.863281.910156-.617187 1.589843-1.550781 1.984375-2.765625l.257812-.789062h6.132813l.070312.382812c.113281.597656.703125 1.730469 1.191407 2.292969.609374.703125 1.640624 1.34375 2.554687 1.589843.730469.199219 1.859375.199219 3.039063-.003906.339843-.058594.445312.058594 3.09375 3.382813l2.496093 3.136719c3.296875-1.121094 5.695313-4.140626 5.695313-7.824219zm-11.320313-15.066407c.574219.386719.761719 1.019532.503907 1.695313-.167969.441406-.496094.746094-.882813.878906-.386719.132813-.828125.09375-1.234375-.152343-.429688-.261719-.671875-.667969-.714844-1.09375-.039062-.429688.125-.875.496094-1.21875.523438-.480469 1.222656-.519532 1.832031-.109376zm-20.328125.433594h3.035156v2.910156l1.488282.035157 1.488281.03125.03125 1.488281.035156 1.492188h-3.042969v3.035156h-3.035156v-3.035156h-2.921875v-3.039063h2.921875zm8.988282 10.390625h3.035156v1.632813h-3.035156zm-6.328126 1.589844c.679688.117187 1.304688.542969 1.640626 1.238281.234374.484375.285156.96875.195312 1.414063-.089844.445312-.316406.847656-.628906 1.160156-.316406.3125-.71875.535156-1.160156.621094-.445313.085937-.929688.035156-1.40625-.203125-.695313-.34375-1.117188-.96875-1.230469-1.648438-.113281-.679687.082031-1.40625.628906-1.953125s1.28125-.742187 1.960937-.628906zm0 0" fill="#333"/><g fill="#e6e6e6"><path d="m31.703125 30.671875c-.625.148437-1.179687.566406-1.488281 1.207031-.28125.582032-.300782 1.199219-.105469 1.738282.195313.542968.609375 1.007812 1.199219 1.289062.679687.324219 1.421875.25 2.019531-.105469.597656-.351562 1.050781-.984375 1.15625-1.769531.078125-.582031-.375-1.625-.855469-1.957031-.605468-.429688-1.300781-.546875-1.925781-.398438zm0 0"/><path d="m31.703125 30.671875c.625-.144531 1.320313-.027344 1.925781.398437.480469.335938.933594 1.378907.855469 1.960938-.105469.785156-.558594 1.417969-1.15625 1.769531-.597656.355469-1.339844.429688-2.019531.105469-.589844-.28125-1.003906-.746094-1.199219-1.289062-.195313-.539063-.175781-1.15625.105469-1.738282.308594-.640625.863281-1.058594 1.488281-1.207031zm0 0"/><path d="m16.164062 30.640625c-.679687-.113281-1.414062.082031-1.960937.628906s-.742187 1.273438-.628906 1.953125c.113281.679688.535156 1.304688 1.230469 1.648438.476562.238281.960937.289062 1.40625.203125.441406-.085938.84375-.308594 1.160156-.621094.3125-.3125.539062-.714844.628906-1.160156.089844-.445313.039062-.929688-.195312-1.414063-.335938-.695312-.960938-1.121094-1.640626-1.238281zm0 0"/><path d="m22.492188 29.050781v1.632813h3.035156v-1.632813zm0 0"/><path d="m32.734375 23.949219c-.613281.082031-1.027344.503906-1.171875 1.011719-.144531.507812-.019531 1.097656.453125 1.511718.410156.359375.933594.449219 1.390625.320313.457031-.125.851562-.46875.992188-.984375.148437-.542969.019531-1.046875-.292969-1.394532-.308594-.347656-.800781-.539062-1.371094-.464843zm0 0"/><path d="m32.734375 23.949219c.570313-.074219 1.0625.117187 1.371094.464843.3125.347657.441406.851563.292969 1.398438-.140626.511719-.535157.855469-.992188.984375-.457031.125-.980469.035156-1.390625-.324219-.472656-.414062-.597656-1.003906-.453125-1.511718.144531-.507813.558594-.929688 1.171875-1.011719zm0 0"/><path d="m30.636719 21.09375c-.613281-.3125-1.167969-.210938-1.6875.308594-.332031.335937-.386719.464844-.386719.964844 0 .667968.292969 1.128906.867188 1.382812.488281.210938.617187.203125 1.1875-.074219.5625-.273437.84375-.773437.847656-1.28125.003906-.507812-.273438-1.015625-.828125-1.300781zm0 0"/><path d="m30.636719 21.09375c.554687.285156.832031.792969.828125 1.300781-.003906.507813-.285156 1.007813-.847656 1.28125-.570313.277344-.699219.285157-1.1875.074219-.574219-.253906-.867188-.714844-.867188-1.382812 0-.5.054688-.628907.386719-.964844.519531-.519532 1.074219-.621094 1.6875-.308594zm0 0"/><path d="m36.542969 21.035156c-.585938-.242187-1.15625-.113281-1.636719.367188-.335938.335937-.386719.464844-.386719.964844 0 .667968.289063 1.128906.863281 1.382812.46875.203125.691407.199219 1.183594-.003906.574219-.242188.855469-.796875.851563-1.355469-.003907-.554687-.296875-1.113281-.875-1.355469zm0 0"/></g><path d="m36.542969 21.035156c.578125.242188.871093.800782.875 1.355469.003906.558594-.277344 1.113281-.851563 1.355469-.492187.203125-.714844.207031-1.183594.003906-.574218-.253906-.863281-.714844-.863281-1.382812 0-.5.050781-.628907.386719-.964844.480469-.480469 1.050781-.609375 1.636719-.367188zm0 0" fill="#ffca58"/><path d="m13.503906 18.660156v2.917969h-2.921875v3.039063h2.921875v3.03125h3.035156v-3.03125h3.042969l-.035156-1.492188-.03125-1.488281-1.488281-.03125-1.488282-.035157v-2.910156zm0 0" fill="#e6e6e6"/><path d="m33.832031 18.226562c-.609375-.410156-1.308593-.371093-1.832031.109376-.371094.34375-.535156.789062-.496094 1.21875.042969.425781.285156.832031.714844 1.09375.40625.246093.847656.285156 1.234375.152343.386719-.132812.714844-.4375.882813-.878906.257812-.675781.070312-1.308594-.503907-1.695313zm0 0" fill="#ee5353"/></g></svg>