<svg height="48pt" viewBox="0 0 48 48" width="48pt" xmlns="http://www.w3.org/2000/svg"><g fill-rule="evenodd"><path d="m45.152344 23.15625h-42.304688v13.539062c0 4.636719 3.726563 8.363282 8.359375 8.363282h25.585938c4.632812 0 8.359375-3.726563 8.359375-8.363282zm0 0" fill="#334d5c"/><path d="m45.152344 15.28125h-42.304688v7.875h42.304688zm0 0" fill="#d07e34"/><path d="m11.207031 2.753906c-4.632812 0-8.359375 3.726563-8.359375 8.359375v4.167969h42.304688v-4.167969c0-4.632812-3.726563-8.359375-8.359375-8.359375zm0 0" fill="#808080"/><path d="m45.152344 21.992188h-42.304688v14.894531c0 4.632812 3.726563 8.359375 8.359375 8.359375h25.582031c4.632813 0 8.363282-3.726563 8.363282-8.359375zm0 0" fill="#eaad43"/><path d="m13.589844 27.007812c0 .847657-.6875 1.535157-1.539063 1.535157-.847656 0-1.535156-.6875-1.535156-1.535157 0-.851562.6875-1.539062 1.535156-1.539062.851563 0 1.539063.6875 1.539063 1.539062zm0 0" fill="#cb7f2c"/><path d="m38.21875 27.03125c0 .847656-.6875 1.539062-1.535156 1.539062-.851563 0-1.539063-.691406-1.539063-1.539062s.6875-1.539062 1.539063-1.539062c.847656 0 1.535156.691406 1.535156 1.539062zm0 0" fill="#cb7f2c"/></g><path d="m-37.337791 20.28893c.765625 11.786459 15.73177 10.669271 16.302083 0" fill="none" stroke="#fff" stroke-linecap="round" stroke-width="1.290687" transform="matrix(1.5 0 0 1.5 68.135593 -2.847458)"/></svg>