<svg height="48pt" viewBox="0 0 48 48" width="48pt" xmlns="http://www.w3.org/2000/svg"><g fill-rule="evenodd"><path d="m11.210938 2.847656h25.578124c4.621094 0 8.363282 3.742188 8.363282 8.363282v25.578124c0 4.621094-3.742188 8.363282-8.363282 8.363282h-25.578124c-4.621094 0-8.363282-3.742188-8.363282-8.363282v-25.578124c0-4.621094 3.742188-8.363282 8.363282-8.363282zm0 0" fill="#009587"/><path d="m13.832031 45.152344h22.957031c4.636719 0 8.363282-3.730469 8.363282-8.363282v-25.582031c0-4.632812-3.726563-8.359375-8.363282-8.359375h-22.957031zm0 0" fill="#009587"/><path d="m13.832031 45.152344v-42.304688h-2.625c-4.632812 0-8.359375 3.726563-8.359375 8.359375v25.582031c0 4.632813 3.726563 8.363282 8.359375 8.363282zm0 0" fill="#00776c"/></g><path d="m34.707031 24.550781c0-1.703125-.941406-3.171875-2.34375-3.933593v7.867187c1.386719-.761719 2.34375-2.230469 2.34375-3.933594zm-14.019531-3.8125v7.625h3.691406l5.363282 5.363281v-18.351562l-5.363282 5.363281zm11.675781-5.363281v1.96875c3.039063.96875 5.242188 3.839844 5.242188 7.207031 0 3.367188-2.203125 6.238281-5.242188 7.207031v1.96875c4.125-1.023437 7.207031-4.71875 7.207031-9.175781s-3.082031-8.152343-7.207031-9.175781zm0 0" fill="#d8f5cd"/></svg>