<svg height="48pt" viewBox="0 0 48 48" width="48pt" xmlns="http://www.w3.org/2000/svg" xmlns:xlink="http://www.w3.org/1999/xlink"><linearGradient id="a" gradientUnits="userSpaceOnUse" x1="24.826943" x2="24.227962" y1="4.779411" y2="27.207046"><stop offset="0" stop-color="#ffa001"/><stop offset="1" stop-color="#ff7f01" stop-opacity="0"/></linearGradient><linearGradient id="b" gradientUnits="userSpaceOnUse" x1="20.692037" x2="21.108735" y1="44.783476" y2="31.192876"><stop offset="0" stop-color="#f8b249"/><stop offset="1" stop-color="#f8b249" stop-opacity="0"/></linearGradient><g fill-rule="evenodd"><path d="m11.222656 2.847656h25.582032c4.617187 0 8.359374 3.742188 8.359374 8.363282v25.578124c0 4.617188-3.742187 8.363282-8.359374 8.363282h-25.582032c-4.617187 0-8.363281-3.746094-8.363281-8.363282v-25.578124c0-4.621094 3.746094-8.363282 8.363281-8.363282zm0 0" fill="#443919"/><path d="m11.222656 2.847656h25.582032c4.617187 0 8.359374 3.742188 8.359374 8.363282v25.578124c0 4.617188-3.742187 8.363282-8.359374 8.363282h-25.582032c-4.617187 0-8.363281-3.746094-8.363281-8.363282v-25.578124c0-4.621094 3.746094-8.363282 8.363281-8.363282zm0 0" fill="#ffdb60"/><path d="m11.222656 2.847656h25.582032c4.617187 0 8.359374 3.742188 8.359374 8.363282v25.578124c0 4.617188-3.742187 8.363282-8.359374 8.363282h-25.582032c-4.617187 0-8.363281-3.746094-8.363281-8.363282v-25.578124c0-4.621094 3.746094-8.363282 8.363281-8.363282zm0 0" fill="url(#a)"/></g><path d="m26.035156 12.804688c-2.9375.003906-5.316406 2.335937-5.320312 5.214843.003906 1.304688.507812 2.566407 1.410156 3.527344-.496094.753906-.761719 1.660156-.765625 2.585937 0 2.484376 1.871094 4.496094 4.171875 4.492188 1.15625 0 2.253906-.515625 3.042969-1.425781.292969.179687.617187.277343.949219.277343 1.007812-.003906 1.863281-.863281 2.019531-2.03125.65625.292969 1.363281.445313 2.078125.449219 2.800781 0 5.070312-2.269531 5.070312-5.070312.003906-2.800781-2.269531-5.070313-5.070312-5.070313-.886719.003906-1.753906.238282-2.523438.683594-.699218-2.160156-2.746094-3.628906-5.0625-3.632812zm0 0" fill="#716300"/><path d="m31.996094 29.742188c-.039063-.164063-.308594-1.0625-.308594-1.0625-.703125-1.359376-1.679688-2.328126-2.714844-3.214844-3.800781.582031-4.144531 1.558594-4.746094 1.742187l-.320312-.125c.921875-1.054687 2.285156-1.289062 3.484375-1.835937l-2.300781-.863282.074218-.339843 3.304688 1.0625c-.121094-.515625-.761719-1.03125-1.347656-1.546875l.308594-.289063c.503906.496094 1.042968 1.085938 1.507812 1.457031.851562 1.117188 1.703125 1.488282 2.554688 2.230469l.050781-1.511719c-1.722657-1.671874-3.203125-2.359374-4.546875-2.5l-.125-.339843c1.171875.292969 2.15625.292969 3.863281 1.4375-.488281-.640625-.90625-1.421875-1.203125-2.445313l.339844-.070312c.394531 1.558594 1.011718 2.089844 1.53125 2.894531.019531-2.554687.476562-3.976563.96875-5.304687l.394531.359374c-1.679687 3.683594-.359375 7.492188.628906 9.511719zm0 0" fill="#4d3a02"/><path d="m31.714844 45.125 5.449218-11.183594-10.015624-1.777344-10.117188-1.578124.101562-.355469-4.703124-.027344 8.210937 1.90625-7.882813.816406-.558593 1.628907 6.355469 1.574218-14.132813 3.355469 2.734375 3.527344c.175781.011719 3.234375 2.078125 3.414062 2.078125zm0 0" fill="#fffba0" fill-rule="evenodd"/><path d="m31.714844 45.125 5.449218-11.183594-10.015624-1.777344-10.117188-1.578124.101562-.355469-4.703124-.027344 8.210937 1.90625-7.882813.816406-.558593 1.628907 6.355469 1.574218-14.132813 3.355469 2.734375 3.527344c.175781.011719 3.199219 2.113281 3.378906 2.113281 5.296875.0625 14.121094 0 21.179688 0zm0 0" fill="url(#b)" fill-rule="evenodd"/><path d="m12.84375 30.570312 19.03125.328126-.046875-1.5-5.34375-.257813-.796875-.679687-.796875.65625-1.359375-.234376-1.59375.890626-3.070312-1.195313-.65625.328125-.445313.375-1.664063.09375zm0 0" fill="#feb202"/><g fill-rule="evenodd"><path d="m13.601562 34.238281 1.566407.5s-.925781-.738281-.964844-.984375c-.042969-.246094.011719-.554687.394531-.816406.757813-.527344 7.265625-.316406 7.210938-.558594-.054688-.238281-9.015625-2.054687-11.117188-2.792968-.378906-.285157-2.707031-.683594-4.28125-.851563-.773437-.28125-2.644531-.886719-3.5625-.84375v5.453125c1.824219-.019531 3.5-.070312 6.144532.054688 1.535156.183593 3.074218.574218 4.609374.839843zm0 0" fill="#dcba44"/><path d="m4.421875 39.484375c5.441406-1.277344 9.296875-1.941406 14.890625-3.140625-.167969-.324219-.507812-.839844-1.871094-1.128906-2.925781-.929688-5.523437-1.414063-8.449218-1.816406-2.5-.132813-4.417969-.078126-6.144532-.054688.015625 1.769531-.109375 3.988281.164063 4.984375zm0 0" fill="#c2a525"/><path d="m10.707031 45.136719.671875-.703125c.371094-.3125.507813-.609375.5-.898438-.007812-.289062-.15625-.574218-.351562-.851562-2.675782-1.574219-5.289063-2.90625-7.859375-4.078125-.246094-.113281-.410157-.171875-.65625-.277344.671875 3.742187 3.742187 6.6875 7.695312 6.808594zm0 0" fill="#3f3303"/></g><path d="m24.324219 32.1875c2.46875.777344 5.035156 1.257812 7.835937.988281l2.480469-2.984375c-5.335937-.117187-8.472656.671875-10.316406 1.996094zm0 0" fill="#dcba44"/><g fill-rule="evenodd"><path d="m45.164062 28.289062-.585937.238282c-.597656-.355469-1.140625-.125-1.921875-.027344-.585938-.308594-2.535156-.78125-3.976562-1.039062-.953126-.691407-2.269532-.664063-3.53125-.738282-1.160157.554688-3.179688 1.492188-3.496094 2.050782l-1.429688 1.417968c-.386718.71875-.367187.921875.078125 1.675782-.386719.269531-.984375.765624-1.449219 1.308593-.46875.542969-.808593 1.128907-.679687 1.578125l.65625.59375c-1.644531 1.359375-2.433594 2.535156-3.503906 4.417969 0 0-.289063.296875-.144531.660156.089843.226563.746093.800781.933593 1.054688.277344.375.109375.425781.265625.675781l2.101563 2.988281h8.320312c4.632813 0 8.363281-3.730469 8.363281-8.363281zm0 0" fill="#443919"/><path d="m39.289062 44.714844c-2.335937-1.136719-7.027343-4.054688-6.6875-3.851563.382813.226563 1.730469 4.140625 1.730469 4.140625s-4.015625-4.523437-4.882812-5.335937c-.863281-.8125-.226563-.609375-1.546875-.789063-.664063-.089844-.875.09375-.992188.386719-.117187.292969-.140625.695313-.433594 1.039063-.292968.339843-.292968.339843-.480468.277343-.027344-.011719-.203125-.003906-.238282-.015625.199219.269532.632813.679688.792969.898438.277344.371094.105469.425781.265625.671875l1.964844 2.796875.191406.191406h8.265625c.726563 0 1.378907-.238281 2.050781-.410156zm0 0" fill="#2c1c0d"/><path d="m28.652344 35.378906.085937.109375s.933594-.878906 1.707031-1.183593c.773438-.308594 1.800782.050781 1.800782.050781s.140625-.234375 1.832031-.125c1.6875.105469 5.953125 1.597656 5.953125 1.597656s-2.214844-1.847656-4.121094-2.710937c-.953125-.433594-1.832031-.558594-2.476562-.578126-.640625-.019531-1.042969.074219-1.042969.074219l-3.832031 1.082031c-.136719.285157-.417969.589844-.351563.824219l.65625.59375c-.097656.082031-.117187.183594-.210937.265625zm0 0" fill="#2c1c0d"/></g><path d="m19.851562 44.773438c.59375.179687 1.191407.371093 1.84375.371093h12.390626l-7.308594-3.503906c-1.441406.125-2.886719-.097656-4.332032.464844-1.492187.679687-1.847656 1.1875-2.597656 1.753906-.261718.417969-.144531.671875.003906.914063zm0 0" fill="#443919"/><path d="m28.65625 2.847656c-.027344.023438-.050781.046875-.078125.070313-.148437.15625-.292969.320312-.429687.488281-.136719.171875-.261719.347656-.378907.527344-.085937.128906-.164062.261718-.234375.398437-.105468.191407-.199218.386719-.28125.585938-.085937.203125-.15625.40625-.222656.613281-.0625.207031-.113281.421875-.15625.632812-.042969.214844-.070312.429688-.089844.648438-.019531.21875-.03125.433594-.027344.652344.003907.21875.015626.4375.039063.65625.027344.21875.0625.433594.105469.648437.019531.09375.042968.1875.066406.277344-.160156.085937-.320312.183594-.472656.285156-.152344.101563-.300782.210938-.445313.328125-.140625.117188-.28125.242188-.414062.371094-.132813.132812-.257813.269531-.378907.410156-.121093.144532-.234374.292969-.339843.445313-.105469.15625-.207031.316406-.300781.476562-.011719.023438-.023438.046875-.035157.070313-.089843.164062-.171875.332031-.246093.503906-.074219.171875-.140626.347656-.199219.527344-.054688.175781-.105469.355468-.144531.539062-.039063.179688-.070313.363282-.09375.546875-.023438.183594-.039063.367188-.042969.554688-.007813.183593-.003907.367187.011719.550781.011718.183594.03125.363281.058593.542969.03125.179687.070313.355469.117188.53125.050781.175781.105469.34375.167969.511719.0625.167968.136718.332031.214843.488281.078125.160156.167969.316406.261719.464843.097656.148438.203125.289063.3125.425782.109375.140625.226562.269531.347656.394531.125.125.253906.242187.386719.351563.136719.109374.277344.210937.425781.308593.101563.066407.207032.128907.3125.1875.152344.082031.3125.15625.472656.222657.160157.066406.328126.121093.496094.171874.167969.050782.335938.089844.507813.121094s.347656.050782.523437.0625c.175782.011719.351563.015625.527344.007813.179688-.003907.355469-.019531.53125-.046875.175781-.023438.351562-.058594.527344-.101563.175781-.042969.347656-.09375.519531-.152343.03125-.011719.058594-.023438.089844-.035157.042969.078125.09375.152344.144531.222657.050781.070312.109375.140624.167969.203124.058593.0625.117187.125.183593.179688.0625.058594.132813.113281.203126.160156.054687.039063.117187.074219.175781.109375.078125.039063.15625.074219.234375.105469.082031.035156.160156.0625.246094.082031.082031.023438.167968.042969.253906.054688.085937.011719.171875.019531.261718.023437.085938.003906.175782.003906.261719-.003906.089844-.007812.179688-.019531.265625-.035156.089844-.015625.179688-.035156.269532-.0625.085937-.023438.175781-.054688.261718-.089844.085938-.035156.175782-.074219.257813-.121094.085937-.042968.167969-.089844.246093-.140625.082032-.054687.160157-.109375.238282-.167969.078125-.0625.152344-.125.222656-.195312.070312-.066406.140625-.136719.207031-.210938.066407-.074218.128907-.148437.191407-.230468.007812-.011719.011718-.019532.019531-.03125.128906.167968.265625.332031.40625.484375.144531.15625.296875.304687.457031.445312.15625.140625.324219.269531.492188.394531.171874.121094.351562.238282.535156.34375.039062.023438.082031.046876.121094.070313.1875.101563.378906.191406.574218.273437.195313.082032.394532.15625.597656.21875.199219.0625.40625.113282.609376.152344.207031.042969.417968.074219.628906.09375.210937.023438.421875.035156.632812.035156.210938 0 .421875-.011718.632813-.035156.210937-.019531.417969-.050781.625-.09375.210937-.042968.414062-.09375.617187-.15625s.398438-.136718.59375-.21875c.195313-.082031.386719-.175781.570313-.277344.1875-.101562.367187-.210937.539062-.332031.175781-.117187.34375-.246093.503907-.382812.164062-.136719.316406-.28125.464843-.433594.148438-.152344.285157-.3125.417969-.476563.058594-.078124.113281-.15625.167969-.234374v-7.625c0-4.632813-3.730469-8.363282-8.363281-8.363282zm0 0" fill="#514b01" fill-rule="evenodd"/><path d="m36.894531 28.605469c-1.210937 1.890625-.511719-2.25-.511719-2.25.515626-1.558594-1.523437-6.183594-1.65625-6.578125-3.453124-1.082032-1.628906-.9375-2.210937-1.03125l-.222656-.238282c.9375.109376 1.777343.609376 2.6875.457032.109375-.488282-.214844-1.1875-.496094-1.867188l.375-.117187c.222656.632812.433594 1.355469.671875 1.859375 1.375 3.066406 1.128906 2.242187 1.539062 3.222656-.136718-2.785156.316407-4.402344 1.570313-6.507812l1.742187-.144532c-3.230468 2.320313-2.578124 10.820313-1.988281 13.140625zm0 0" fill="#4d3a02"/></svg>