<svg height="48pt" viewBox="0 0 48 48" width="48pt" xmlns="http://www.w3.org/2000/svg"><path d="m11.210938 2.847656h25.578124c4.621094 0 8.363282 3.742188 8.363282 8.363282v25.578124c0 4.621094-3.742188 8.363282-8.363282 8.363282h-25.578124c-4.621094 0-8.363282-3.742188-8.363282-8.363282v-25.578124c0-4.621094 3.742188-8.363282 8.363282-8.363282zm0 0" fill="#e75177" fill-rule="evenodd"/><path d="m24 10.5c-1.535156.003906-3.054688.269531-4.5.789062v17.210938c0 .832031-.667969 1.5-1.5 1.5s-1.5-.667969-1.5-1.5v-15.710938c-3.746094 2.5-5.996094 6.707032-6 11.210938 0 7.457031 6.042969 13.5 13.5 13.5s13.5-6.042969 13.5-13.5-6.042969-13.5-13.5-13.5zm-.835938 7.5c.109376 0 .21875.03125.3125.089844l4.597657 2.65625 4.589843 2.664062c.207032.121094.335938.34375.335938.589844 0 .242188-.128906.46875-.335938.589844l-4.589843 2.660156-4.597657 2.660156c-.203124.117188-.449218.117188-.652343-.003906-.199219-.121094-.324219-.34375-.324219-.582031v-10.648438c0-.179687.070312-.355469.195312-.480469.125-.128906.292969-.199218.46875-.195312zm0 0" fill="#fff"/></svg>