<svg height="48pt" viewBox="0 0 48 48" width="48pt" xmlns="http://www.w3.org/2000/svg" xmlns:xlink="http://www.w3.org/1999/xlink"><clipPath id="a"><path d="m0 0h48v48h-48z"/></clipPath><path d="m13.625 45.15625h23.164062c4.632813 0 8.363282-3.730469 8.363282-8.363281v-25.582031c0-4.632813-3.730469-8.359376-8.363282-8.359376h-23.164062zm0 0" fill="#009587" fill-rule="evenodd"/><path d="m13.625 45.15625v-42.304688h-2.417969c-4.632812 0-8.359375 3.726563-8.359375 8.359376v25.582031c0 4.632812 3.726563 8.363281 8.359375 8.363281zm0 0" fill="#00776c" fill-rule="evenodd"/><g clip-path="url(#a)"><path d="m27.882812 15.210938-.199218 2.394531c-.757813.28125-1.464844.6875-2.085938 1.207031l-2.175781-1.027344-2.269531 3.9375 1.972656 1.371094c-.070312.394531-.105469.800781-.109375 1.203125 0 .40625.035156.808594.105469 1.207031l-1.96875 1.371094 2.269531 3.933594 2.171875-1.023438c.621094.515625 1.328125.921875 2.089844 1.199219l.199218 2.398437h4.542969l.203125-2.394531c.757813-.28125 1.460938-.6875 2.085938-1.207031l2.171875 1.027344 2.273437-3.9375-1.976562-1.371094c.070312-.394531.109375-.800781.109375-1.203125 0-.40625-.035157-.808594-.101563-1.207031l1.96875-1.367188-2.273437-3.933594-2.167969 1.019532c-.625-.515625-1.332031-.921875-2.089844-1.199219l-.203125-2.398437zm2.273438 6.488281c1.433594 0 2.59375 1.164062 2.59375 2.597656s-1.160156 2.597656-2.59375 2.597656-2.597656-1.164062-2.597656-2.597656 1.164062-2.597656 2.597656-2.597656zm0 0" fill="#fff"/></g></svg>