<svg height="48pt" viewBox="0 0 48 48" width="48pt" xmlns="http://www.w3.org/2000/svg"><path d="m11.210938 2.847656h25.578124c4.621094 0 8.363282 3.742188 8.363282 8.363282v25.578124c0 4.621094-3.742188 8.363282-8.363282 8.363282h-25.578124c-4.621094 0-8.363282-3.742188-8.363282-8.363282v-25.578124c0-4.621094 3.742188-8.363282 8.363282-8.363282zm0 0" fill="#ccc" fill-rule="evenodd"/><path d="m23.200296 20.200521-7.200521 4.098958-7.5-4.098958v-8.401042l7.5-4.098958 7.200521 4.098958" fill="none" stroke="#454545" stroke-width="3" transform="matrix(1.5 0 0 1.5 .793307 0)"/><path d="m19.999775 18.098958-4 2.101563-4-2.101563v-4.197916l4-2.101563 4 2.101563" fill="none" stroke="#8644dc" stroke-width="2" transform="matrix(1.5 0 0 1.5 .793307 0)"/></svg>