<svg height="48pt" viewBox="0 0 48 48" width="48pt" xmlns="http://www.w3.org/2000/svg"><path d="m11.210938 2.847656h25.578124c4.621094 0 8.363282 3.742188 8.363282 8.363282v25.578124c0 4.621094-3.742188 8.363282-8.363282 8.363282h-25.578124c-4.621094 0-8.363282-3.742188-8.363282-8.363282v-25.578124c0-4.621094 3.742188-8.363282 8.363282-8.363282zm0 0" fill="#feb625" fill-rule="evenodd"/><path d="m34.5 35.421875c-2.421875 1.289063-5.09375 2.066406-7.621094 2.078125-4.113281 0-7.371094-1.207031-9.773437-3.625-2.402344-2.429688-3.605469-5.71875-3.605469-9.867188 0-4.160156 1.203125-7.449218 3.605469-9.863281 2.402343-2.429687 5.660156-3.644531 9.773437-3.644531 2.75.03125 5.394532.871094 7.621094 2.078125v5.542969c-2.183594-1.316406-4.753906-2.132813-7.109375-2.144532-2.273437 0-4.566406.765626-5.867187 2.300782-1.300782 1.53125-1.953126 3.035156-1.953126 5.730468 0 2.683594.652344 4.183594 1.953126 5.714844 1.300781 1.535156 3.59375 2.300782 5.867187 2.300782 2.53125-.140626 5.277344-.855469 7.109375-2.144532zm0 0" fill="#424242"/></svg>