<svg height="48pt" viewBox="0 0 48 48" width="48pt" xmlns="http://www.w3.org/2000/svg"><path d="m11.210938 2.847656h25.578124c4.621094 0 8.363282 3.742188 8.363282 8.363282v25.578124c0 4.621094-3.742188 8.363282-8.363282 8.363282h-25.578124c-4.621094 0-8.363282-3.742188-8.363282-8.363282v-25.578124c0-4.621094 3.742188-8.363282 8.363282-8.363282zm0 0" fill="#c2352a" fill-rule="evenodd"/><path d="m13.976562 13.765625c-1.6875.152344-2.308593.238281-3.226562 1.019531-1.417969 1.246094-1.75 3.6875-1.75 7.429688v3.558594c0 4.265624.566406 6.4375 1.515625 7.226562 1.082031.925781 1.796875 1 2.511719 1.109375.28125.039063 2.261718.390625 11.042968.390625 5.476563 0 10.179688-.261719 10.667969-.316406.78125-.101563 1.894531-.242188 2.757813-1.183594 1.253906-1.421875 1.503906-3.78125 1.503906-7.203125v-4.144531c0-2.214844-.121094-5.339844-1.503906-6.652344-1.050782-.886719-1.433594-1.132812-3.601563-1.242188-.613281-.027343-5.953125-.257812-9.691406-.257812-3.507813 0-8.679687.214844-10.230469.265625zm7.023438 5.734375 7.5 4.5-7.5 4.5" fill="#f9f9f9"/><path d="m42.28125 34.371094c0 4.144531-3.359375 7.5-7.5 7.5-4.144531 0-7.5-3.355469-7.5-7.5 0-4.140625 3.355469-7.5 7.5-7.5 4.140625 0 7.5 3.359375 7.5 7.5zm0 0" fill="#03a9f4"/><path d="m36.28125 29.871094 3 3h-1l-2.5 2.5c1.5 1.5-.5 2.5-.5 2.5l-1.5-1.5-2.5 2.5h-1v-1l2.5-2.5-1.5-1.5s1-2 2.5-.5l2.5-2.5zm0 0" fill="#fff"/></svg>