<svg height="48pt" viewBox="0 0 48 48" width="48pt" xmlns="http://www.w3.org/2000/svg"><path d="m11.210938 2.847656h25.578124c4.621094 0 8.363282 3.742188 8.363282 8.363282v25.578124c0 4.621094-3.742188 8.363282-8.363282 8.363282h-25.578124c-4.621094 0-8.363282-3.742188-8.363282-8.363282v-25.578124c0-4.621094 3.742188-8.363282 8.363282-8.363282zm0 0" fill="#0286c2" fill-rule="evenodd"/><path d="m18.742188 8.816406c-.96875 0-1.75.78125-1.75 1.75v16.355469c0 .96875.78125 1.75 1.75 1.75h16.355468c.96875 0 1.75-.78125 1.75-1.75v-14.601563l3.507813-3.503906zm0 0" fill="#fff"/><path d="m7.644531 19.328125 3.507813 3.503906v14.601563c0 .96875.78125 1.75 1.75 1.75h16.355468c.96875 0 1.75-.78125 1.75-1.75v-16.355469c0-.96875-.78125-1.75-1.75-1.75zm0 0" fill="#35b9f5"/><path d="m14.65625 25.167969v1.167969h12.847656v-1.167969zm0 3.503906v1.167969h12.847656v-1.167969zm0 3.503906v1.167969h9.8125v-1.167969zm0 0" fill="#aee3fb"/></svg>