<svg height="48pt" viewBox="0 0 48 48" width="48pt" xmlns="http://www.w3.org/2000/svg"><path d="m11.210938 2.847656h25.578124c4.621094 0 8.363282 3.742188 8.363282 8.363282v25.578124c0 4.621094-3.742188 8.363282-8.363282 8.363282h-25.578124c-4.621094 0-8.363282-3.742188-8.363282-8.363282v-25.578124c0-4.621094 3.742188-8.363282 8.363282-8.363282zm0 0" fill="#ccc" fill-rule="evenodd"/><path d="m21.636719 25.535156c-.179688-.195312-.28125-.429687-.398438-.664062.109375.410156.34375.765625.554688 1.125zm0 .003906c-.175781-.195312-.28125-.433593-.398438-.667968.113281.414062.34375.765625.558594 1.128906zm11-3.589843c.027343.769531-.222657 1.140625-.445313 1.800781l-.40625.207031c-.332031.652344.035156.414063-.203125.933594-.515625.46875-1.566406 1.460937-1.902343 1.550781-.246094-.003906.167968-.292968.21875-.40625-.6875.484375-.554688.726563-1.609376 1.019532l-.03125-.070313c-2.605468 1.246094-6.222656-1.226563-6.175781-4.597656-.027343.214843-.082031.160156-.136719.246093-.136718-1.734374.785157-3.476562 2.339844-4.191406 1.523438-.765625 3.304688-.453125 4.394532.582032-.597657-.796876-1.789063-1.644532-3.199219-1.566407-1.382813.023438-2.679688.917969-3.109375 1.890625-.707032.453125-.789063 1.75-1.097656 1.984375-.417969 3.109375.78125 4.449219 2.804687 6.03125.316406.214844.089844.25.132813.417969-.671876-.320312-1.289063-.804688-1.796876-1.398438.269532.398438.558594.789063.933594 1.09375-.632812-.21875-1.480468-1.5625-1.726562-1.617187 1.09375 1.992187 4.433594 3.492187 6.183594 2.746094-.808594.03125-1.839844.019531-2.746094-.324219-.382813-.199219-.902344-.613281-.8125-.691406 2.390625.90625 4.855468.6875 6.921875-1 .527343-.414063 1.101562-1.125 1.265625-1.132813-.25.382813.042968.183594-.148438.519531.523438-.859374-.226562-.347656.542969-1.484374l.28125.398437c-.105469-.714844.871094-1.578125.773437-2.707031.222657-.347656.25.371094.011719 1.164062.332031-.882812.085938-1.023437.171875-1.75.089844.246094.210938.503906.273438.761719-.214844-.851563.21875-1.433594.328125-1.929687-.105469-.046876-.332031.378906-.382813-.628907.007813-.433593.121094-.226562.160156-.335937-.082031-.046875-.304687-.382813-.4375-1.023438.097657-.152344.261719.390625.394532.410156-.085938-.507812-.234375-.898437-.238282-1.289062-.390624-.824219-.140624.109375-.453124-.355469-.414063-1.308593.34375-.304687.394531-.898437.625.921875.980469 2.351562 1.144531 2.941406-.125-.71875-.328125-1.417969-.574219-2.097656.191407.082031-.304687-1.484375.246094-.445313-.589844-2.210937-2.527344-4.277343-4.308594-5.246093.21875.203124.492188.457031.394531.5-.886718-.539063-.730468-.582032-.855468-.808594-.722656-.296875-.769532.027344-1.25.003906-1.359375-.734375-1.621094-.65625-2.871094-1.117188l.054688.269532c-.898438-.304688-1.046876.117187-2.023438 0-.058594-.046875.3125-.167969.621094-.214844-.875.117188-.832032-.175781-1.683594.03125.207031-.148438.429688-.246094.65625-.375-.710938.042969-1.699219.421875-1.394531.078125-1.15625.527344-3.214844 1.265625-4.371094 2.367187l-.035156-.246093c-.53125.644531-2.308594 1.929687-2.449219 2.769531l-.144531.03125c-.273438.476562-.453125 1.011719-.671875 1.5-.359375.625-.527344.242188-.476563.339844-.707031 1.460937-1.058593 2.6875-1.363281 3.695312.214844.332032.003906 1.984375.085938 3.308594-.355469 6.539062 4.511718 12.886719 9.828124 14.355469.777344.28125 1.9375.273437 2.925782.300781-1.164063-.339844-1.316406-.179688-2.449219-.582031-.816406-.390625-.996094-.839844-1.574219-1.351563l.230469.414063c-1.136719-.410157-.660156-.507813-1.585937-.804688l.246093-.324219c-.367187-.027343-.972656-.632812-1.140625-.964843l-.402344.015625c-.484374-.605469-.742187-1.046875-.722656-1.382813l-.128906.234375c-.148438-.257812-1.78125-2.277344-.933594-1.808594-.15625-.144531-.367187-.238281-.59375-.65625l.171875-.199218c-.40625-.535156-.75-1.21875-.722656-1.449219.214844.300781.367187.355469.515625.40625-1.027344-2.597656-1.085938-.140625-1.863281-2.644531l.164062-.011719c-.128906-.195313-.203125-.40625-.304687-.613281l.070312-.726563c-.738281-.871093-.207031-3.707031-.097656-5.261719.070312-.632812.617188-1.304687 1.03125-2.359374l-.253906-.046876c.484375-.855468 2.753906-3.4375 3.804687-3.304687.511719-.648437-.101562 0-.199219-.164063 1.117188-1.179687 1.46875-.832031 2.226563-1.046874.8125-.492188-.699219.191406-.3125-.1875 1.40625-.363282.996094-.832032 2.832031-1.015626.195313.109376-.449218.171876-.609375.316407 1.171875-.582031 3.710938-.449219 5.363281.324219 1.910157.910156 4.0625 3.601562 4.148438 6.132812l.097656.027344c-.050781 1.007812.148438 2.171875-.199218 3.238281l.234374-.503906" fill="#f9548f"/></svg>