<svg height="48pt" viewBox="0 0 48 48" width="48pt" xmlns="http://www.w3.org/2000/svg"><path d="m11.210938 2.847656h25.578124c4.621094 0 8.363282 3.742188 8.363282 8.363282v25.578124c0 4.621094-3.742188 8.363282-8.363282 8.363282h-25.578124c-4.621094 0-8.363282-3.742188-8.363282-8.363282v-25.578124c0-4.621094 3.742188-8.363282 8.363282-8.363282zm0 0" fill="#834366" fill-rule="evenodd"/><path d="m11.210938 2.847656c-4.632813 0-8.363282 3.726563-8.363282 8.363282v8c .328125.3125.671875.566406.964844 1.007812.46875.691406.9375 1.5 1.53125 2.273438.761719.957031 1.738281 1.457031 2.550781 2.085937.410157.3125.777344.660156 1.054688 1.117187.28125.453126.472656 1.015626.53125 1.757813.097656 1.402344.316406 2.691406.808593 3.703125.136719.285156.355469.492188.542969.730469h34.320313v-20.675781c0-4.636719-3.726563-8.363282-8.363282-8.363282zm0 0" fill="#834366" fill-rule="evenodd"/><path d="m32.152344 29.28125c0 7.039062-5.710938 12.75-12.75 12.75-7.042969 0-12.75-5.710938-12.75-12.75 0-7.042969 5.707031-12.75 12.75-12.75 7.039062 0 12.75 5.707031 12.75 12.75zm0 0" fill="#ff87a3"/><path d="m45.152344 31.886719h-34.320313c.144531.1875.246094.414062.425781.566406.402344.351563.898438.617187 1.503907.773437 1.425781.371094 3.003906 1.296876 4.46875 2.59375 1.460937 1.300782 2.808593 2.96875 3.765625 4.824219.617187 1.171875 1.488281 1.945313 2.492187 2.445313 1.003907.5 2.132813.730468 3.269531.8125 2.269532.164062 4.542969-.253906 5.789063-.253906 4.445313 0 6.507813.085937 8.726563.1875 1.949218-1.125 3.878906-3.691407 3.878906-7.046876zm0 0" fill="#db4b73" fill-rule="evenodd"/><path d="m41.273438 43.835938c-2.21875-.101563-4.28125-.1875-8.726563-.1875-1.246094 0-3.519531.417968-5.789063.253906-1.136718-.082032-2.265624-.3125-3.269531-.8125-1.003906-.5-1.875-1.273438-2.492187-2.445313-.957032-1.855469-2.304688-3.523437-3.765625-4.824219-1.464844-1.296874-3.042969-2.222656-4.46875-2.59375-.605469-.15625-1.101563-.421874-1.503907-.773437-.40625-.347656-.722656-.789063-.96875-1.296875-.492187-1.011719-.710937-2.300781-.808593-3.703125-.058594-.742187-.25-1.304687-.53125-1.757813-.277344-.457031-.644531-.804687-1.054688-1.117187-.8125-.628906-1.789062-1.128906-2.550781-2.085937-.59375-.773438-1.0625-1.582032-1.53125-2.273438-.292969-.441406-.636719-.695312-.964844-1.007812v17.578124c0 4.632813 3.730469 8.363282 8.363282 8.363282h25.578124c1.605469 0 3.480469-.578125 4.484376-1.316406zm0 0" fill="#3a2e31" fill-rule="evenodd"/></svg>