<svg height="48pt" viewBox="0 0 48 48" width="48pt" xmlns="http://www.w3.org/2000/svg" xmlns:xlink="http://www.w3.org/1999/xlink"><clipPath id="a"><path d="m0 0h48v48h-48z"/></clipPath><path d="m11.210938 2.847656h25.578124c4.621094 0 8.363282 3.742188 8.363282 8.363282v25.578124c0 4.621094-3.742188 8.363282-8.363282 8.363282h-25.578124c-4.621094 0-8.363282-3.742188-8.363282-8.363282v-25.578124c0-4.621094 3.742188-8.363282 8.363282-8.363282zm0 0" fill="#5f7c8a" fill-rule="evenodd"/><g clip-path="url(#a)"><path d="m40.5 24c0-9.113281-7.386719-16.5-16.5-16.5s-16.5 7.386719-16.5 16.5 7.386719 16.5 16.5 16.5 16.5-7.386719 16.5-16.5zm0 0" fill="#7f96a1"/></g><path d="m24 11.625-3.339844 4.007812c-3.320312 1.324219-5.660156 4.574219-5.660156 8.367188 0 4.96875 4.03125 9 9 9 4.972656 0 9-4.03125 9-9 0-3.792969-2.335938-7.042969-5.660156-8.367188zm0 0" fill="#dfe5e8"/></svg>