<svg height="48pt" viewBox="0 0 48 48" width="48pt" xmlns="http://www.w3.org/2000/svg"><path d="m11.210938 2.847656h25.578124c4.621094 0 8.363282 3.742188 8.363282 8.363282v25.578124c0 4.621094-3.742188 8.363282-8.363282 8.363282h-25.578124c-4.621094 0-8.363282-3.742188-8.363282-8.363282v-25.578124c0-4.621094 3.742188-8.363282 8.363282-8.363282zm0 0" fill="#5db43e" fill-rule="evenodd"/><path d="m45.152344 14.902344c-13.773438-4.152344-17.472656 24.5625-42.304688 12.425781v9.460937c0 4.636719 3.726563 8.363282 8.359375 8.363282h25.585938c4.632812 0 8.359375-3.726563 8.359375-8.363282zm0 0" fill="#72cf60" fill-rule="evenodd"/><path d="m15.609375 25.15625h16.78125c2.917969 0 5.285156 2.367188 5.285156 5.289062 0 2.917969-2.367187 5.289063-5.285156 5.289063h-16.78125c-2.917969 0-5.285156-2.371094-5.285156-5.289063 0-2.921874 2.367187-5.289062 5.285156-5.289062zm0 0" fill="#f9f9f9"/><path d="m19.703125 30.515625c0 2.066406-1.675781 3.742187-3.738281 3.742187-2.066406 0-3.742188-1.675781-3.742188-3.742187 0-2.0625 1.675782-3.738281 3.742188-3.738281 2.0625 0 3.738281 1.675781 3.738281 3.738281zm0 0" fill="#999"/><path d="m27.863281 30.515625c0 2.066406-1.671875 3.742187-3.738281 3.742187s-3.738281-1.675781-3.738281-3.742187c0-2.0625 1.671875-3.738281 3.738281-3.738281s3.738281 1.675781 3.738281 3.738281zm0 0" fill="#999"/><path d="m15.609375 12.265625h16.78125c2.917969 0 5.285156 2.371094 5.285156 5.289063 0 2.921874-2.367187 5.289062-5.285156 5.289062h-16.78125c-2.917969 0-5.285156-2.367188-5.285156-5.289062 0-2.917969 2.367187-5.289063 5.285156-5.289063zm0 0" fill="#f9f9f9"/></svg>