<svg height="48pt" viewBox="0 0 48 48" width="48pt" xmlns="http://www.w3.org/2000/svg"><path d="m45.152344 17.707031h-42.304688v19.082031c0 4.632813 3.730469 8.363282 8.363282 8.363282h25.578124c4.632813 0 8.363282-3.730469 8.363282-8.363282zm0 0" fill="#b3b3b3" fill-rule="evenodd"/><path d="m11.210938 2.847656c-3.621094 0-6.625 2.308594-7.792969 5.519532-.324219.894531-.570313 1.832031-.570313 2.839843v7.503907h42.304688v-7.503907c0-1.007812-.242188-1.945312-.570313-2.839843-1.164062-3.210938-4.171875-5.519532-7.792969-5.519532zm0 0" fill="#4b88e8" fill-rule="evenodd"/><path d="m18 28.078125h12c .828125 0 1.5.671875 1.5 1.5v1.5c0 .828125-.671875 1.5-1.5 1.5h-12c-.828125 0-1.5-.671875-1.5-1.5v-1.5c0-.828125.671875-1.5 1.5-1.5zm0 0" fill="#fff"/></svg>