<svg height="48pt" viewBox="0 0 48 48" width="48pt" xmlns="http://www.w3.org/2000/svg"><g fill-rule="evenodd"><g fill="#f9f9f9"><path d="m2.847656 26.347656h16.59375c.582032 0 1.046875-.445312 1.046875-.996094v-13.003906c0-.554687-.464843-.996094-1.046875-.996094h-16.59375zm0 0"/><path d="m33.988281 45.152344v-11.804688c0-.550781-.464843-1-1.046875-1h-18.902344c-.582031 0-1.050781.449219-1.050781 1v11.804688zm0 0"/><path d="m45.152344 11.351562h-17.613282c-.582031 0-1.050781.441407-1.050781.996094v13.003906c0 .550782.46875.996094 1.050781.996094h17.613282zm0 0"/></g><path d="m11.207031 2.847656c-4.632812 0-8.359375 3.726563-8.359375 8.363282v.140624h16.59375c.582032 0 1.046875.441407 1.046875.996094v13.003906c0 .550782-.464843.996094-1.046875.996094h-16.59375v10.441406c0 4.632813 3.726563 8.363282 8.359375 8.363282h1.78125v-11.804688c0-.550781.46875-1 1.050781-1h18.902344c.582032 0 1.046875.449219 1.046875 1v11.804688h2.800781c4.632813 0 8.363282-3.730469 8.363282-8.363282v-10.441406h-17.613282c-.582031 0-1.050781-.445312-1.050781-.996094v-13.003906c0-.554687.46875-.996094 1.050781-.996094h17.613282v-.140624c0-4.636719-3.730469-8.363282-8.363282-8.363282zm0 0" fill="#4ab3e4"/></g></svg>