<svg height="48pt" viewBox="0 0 48 48" width="48pt" xmlns="http://www.w3.org/2000/svg" xmlns:xlink="http://www.w3.org/1999/xlink"><clipPath id="a"><path d="m0 0h48v48h-48z"/></clipPath><path d="m11.210938 2.847656h25.578124c4.621094 0 8.363282 3.742188 8.363282 8.363282v25.578124c0 4.621094-3.742188 8.363282-8.363282 8.363282h-25.578124c-4.621094 0-8.363282-3.742188-8.363282-8.363282v-25.578124c0-4.621094 3.742188-8.363282 8.363282-8.363282zm0 0" fill="#fecd38" fill-rule="evenodd"/><g clip-path="url(#a)"><path d="m19.507812 10.5c-2.070312 0-3.75 1.679688-3.75 3.75s1.679688 3.75 3.75 3.75c2.070313 0 3.75-1.679688 3.75-3.75s-1.679687-3.75-3.75-3.75zm-3 9c-.605468 0-1.152343.363281-1.386718.921875l-3.75 7.5c-.828125 1.871094 2.023437 3.058594 2.769531 1.15625l1.664063-3.992187-.050782.414062v10.5c0 .832031.667969 1.5 1.5 1.5h.003906c.832032 0 1.5-.667969 1.5-1.5l-.003906-6h1.5l.003906 6c0 .832031.667969 1.5 1.5 1.5.832032 0 1.5-.667969 1.5-1.5l-.003906-10.5-.058594-.449219 1.675782 4.027344c.335937.851563 1.351562 1.207031 2.144531.75l2.296875-.121094c-.023438.097657-.058594.1875-.058594.292969v6.75c0 .414062.332032.75.75.75.414063 0 .75-.335938.75-.75l-.007812-3.75h1.503906l.007812 3.75c0 .414062.335938.75.75.75.414063 0 .75-.335938.75-.75v-5.6875l1.714844 1.71875c.707032.734375 1.796875-.355469 1.058594-1.0625l-2.992188-3c-.140624-.140625-.332031-.21875-.53125-.21875h-2.796874l-2.441407.03125c0-.207031-.042969-.417969-.128906-.609375l-3.75-7.5c-.234375-.558594-.777344-.921875-1.382813-.921875zm14.996094 2.625c-1.445312 0-2.625 1.179688-2.625 2.625s1.179688 2.625 2.625 2.625c1.445313 0 2.625-1.179688 2.625-2.625s-1.179687-2.625-2.625-2.625zm0 0" fill="#333"/></g></svg>