<svg height="48pt" viewBox="0 0 48 48" width="48pt" xmlns="http://www.w3.org/2000/svg" xmlns:xlink="http://www.w3.org/1999/xlink"><clipPath id="a"><path d="m0 0h48v48h-48z"/></clipPath><clipPath id="b"><path d="m0 0h48v48h-48z"/></clipPath><clipPath id="c"><path d="m0 0h48v48h-48z"/></clipPath><clipPath id="d"><path d="m0 0h48v48h-48z"/></clipPath><path d="m11.210938 2.847656h25.578124c4.621094 0 8.363282 3.742188 8.363282 8.363282v25.578124c0 4.621094-3.742188 8.363282-8.363282 8.363282h-25.578124c-4.621094 0-8.363282-3.742188-8.363282-8.363282v-25.578124c0-4.621094 3.742188-8.363282 8.363282-8.363282zm0 0" fill="#5f7c8a" fill-rule="evenodd"/><g clip-path="url(#a)"><path d="m17.898438 9.285156c-.214844.023438-.40625.199219-.445313.414063l-.425781 2.167969c-.769532.300781-1.488282.710937-2.121094 1.21875l-2.105469-.710938c-.21875-.078125-.484375.019531-.601562.21875l-2.027344 3.515625c-.117187.203125-.066406.484375.109375.632813l1.679688 1.472656c-.058594.394531-.097657.792968-.097657 1.203125 0 .414062.039063.808593.097657 1.203125l-1.679688 1.472656c-.175781.152344-.226562.433594-.109375.632812l2.027344 3.515626c.117187.199218.382812.296874.601562.222656l2.105469-.710938c.632812.503906 1.351562.917969 2.121094 1.21875l.425781 2.167969c.042969.226563.261719.410156.492187.410156h4.050782c.234375 0 .449218-.183593.492187-.410156l.425781-2.167969c.769532-.300781 1.492188-.714844 2.125-1.21875l2.105469.710938c.21875.074218.484375-.023438.601563-.222656l2.027344-3.515626c.113281-.199218.0625-.480468-.113282-.632812l-1.679687-1.472656c.0625-.394532.097656-.789063.097656-1.203125 0-.410157-.035156-.808594-.097656-1.203125l1.679687-1.472656c.175782-.148438.226563-.429688.113282-.632813l-2.027344-3.515625c-.117188-.199219-.382813-.296875-.601563-.21875l-2.105469.710938c-.636718-.507813-1.355468-.917969-2.121093-1.21875l-.429688-2.167969c-.042969-.230469-.257812-.410157-.492187-.414063h-4.050782c-.015624 0-.03125 0-.046874 0zm0 0" fill="#fff"/></g><g clip-path="url(#b)"><path d="m19.972656 15.078125c2.398438 0 4.339844 1.941406 4.339844 4.339844 0 2.398437-1.941406 4.34375-4.339844 4.34375-2.398437 0-4.34375-1.945313-4.34375-4.34375 0-2.398438 1.945313-4.339844 4.34375-4.339844zm0 0" fill="#5f7c8a"/></g><g clip-path="url(#c)"><path d="m29.308594 24.144531c-.15625.015625-.289063.140625-.320313.292969l-.304687 1.5625c-.554688.214844-1.070313.511719-1.527344.875l-1.511719-.511719c-.160156-.054687-.347656.015625-.433593.160157l-1.457032 2.527343c-.082031.144531-.046875.34375.078125.453125l1.207031 1.058594c-.042968.285156-.066406.570312-.066406.867188 0 .292968.023438.582031.066406.863281l-1.207031 1.058593c-.125.109376-.160156.3125-.078125.457032l1.457032 2.527344c.085937.144531.273437.214843.433593.160156l1.511719-.515625c.457031.367187.976562.664062 1.527344.878906l.304687 1.558594c.03125.164062.1875.292969.355469.296875h2.914062c.164063-.003906.320313-.132813.351563-.296875l.308594-1.558594c.550781-.214844 1.070312-.511719 1.523437-.878906l1.515625.515625c.15625.054687.347657-.015625.433594-.160156l1.457031-2.527344c.082032-.144532.046875-.347656-.082031-.457032l-1.207031-1.058593c.042968-.28125.070312-.570313.070312-.863281 0-.296876-.027344-.582032-.070312-.867188l1.207031-1.058594c.128906-.109375.164063-.308594.082031-.453125l-1.457031-2.527343c-.085937-.144532-.277344-.214844-.433594-.160157l-1.515625.511719c-.453125-.363281-.972656-.660156-1.523437-.875l-.308594-1.5625c-.03125-.160156-.1875-.292969-.351563-.292969h-2.914062c-.011719 0-.023438 0-.035156 0zm0 0" fill="#fff"/></g><g clip-path="url(#d)"><path d="m30.800781 28.304688c1.722657 0 3.121094 1.398437 3.121094 3.125 0 1.722656-1.398437 3.121093-3.121094 3.121093-1.726562 0-3.121093-1.398437-3.121093-3.121093 0-1.726563 1.394531-3.125 3.121093-3.125zm0 0" fill="#5f7c8a"/></g></svg>