<svg height="48pt" viewBox="0 0 48 48" width="48pt" xmlns="http://www.w3.org/2000/svg"><path d="m11.210938 2.847656h25.578124c4.621094 0 8.363282 3.742188 8.363282 8.363282v25.578124c0 4.621094-3.742188 8.363282-8.363282 8.363282h-25.578124c-4.621094 0-8.363282-3.742188-8.363282-8.363282v-25.578124c0-4.621094 3.742188-8.363282 8.363282-8.363282zm0 0" fill="#7ec242" fill-rule="evenodd"/><path d="m34.480469 37.972656v-15.136718h4.65625v-12.457032c0-.839844-.675781-1.515625-1.515625-1.515625h-27.242188c-.839844 0-1.515625.675781-1.515625 1.515625v12.457032h4.65625v15.136718c0 .839844.328125 1.164063 1.164063 1.164063h18.632812c.835938 0 1.164063-.324219 1.164063-1.164063zm0 0" fill="#c0ff88"/></svg>