<svg height="48pt" viewBox="0 0 48 48" width="48pt" xmlns="http://www.w3.org/2000/svg" xmlns:xlink="http://www.w3.org/1999/xlink"><filter id="a" height="100%" width="100%" x="0%" y="0%"><feColorMatrix in="SourceGraphic" type="matrix" values="0 0 0 0 1 0 0 0 0 1 0 0 0 0 1 0 0 0 1 0"/></filter><mask id="b"><g filter="url(#a)"><path d="m0 0h48v48h-48z" fill-opacity=".8"/></g></mask><clipPath id="c"><path d="m0 0h48v48h-48z"/></clipPath><path d="m11.300781 3h25.398438c4.582031 0 8.300781 3.71875 8.300781 8.300781v25.398438c0 4.582031-3.71875 8.300781-8.300781 8.300781h-25.398438c-4.582031 0-8.300781-3.71875-8.300781-8.300781v-25.398438c0-4.582031 3.71875-8.300781 8.300781-8.300781zm0 0" fill="#341376" fill-rule="evenodd"/><path d="m37.246094 24c0-8.535156-6.917969-15.453125-15.453125-15.453125-8.535157 0-15.453125 6.917969-15.453125 15.453125s6.917968 15.453125 15.453125 15.453125c8.535156 0 15.453125-6.917969 15.453125-15.453125zm0 0" fill="#ffab30"/><path d="m41.660156 24c0-8.535156-6.917968-15.453125-15.453125-15.453125-8.535156 0-15.453125 6.917969-15.453125 15.453125s6.917969 15.453125 15.453125 15.453125c8.535157 0 15.453125-6.917969 15.453125-15.453125zm0 0" fill="#5e4095"/><g clip-path="url(#c)" mask="url(#b)"><path d="m11.78125 18.480469c-.273438.714843-.5 1.449219-.664062 2.207031h30.183593c-.167969-.757812-.394531-1.492188-.664062-2.207031zm-.972656 4.414062c-.023438.367188-.054688.730469-.054688 1.105469s.03125.738281.054688 1.105469h30.796875c.023437-.367188.054687-.730469.054687-1.105469s-.03125-.738281-.054687-1.105469zm.308594 4.417969c.164062.757812.390624 1.492188.664062 2.207031h28.855469c.269531-.714843.496093-1.449219.664062-2.207031zm0 0" fill="#fff"/></g></svg>