<svg height="48pt" viewBox="0 0 48 48" width="48pt" xmlns="http://www.w3.org/2000/svg"><path d="m11.210938 2.847656h25.578124c4.621094 0 8.363282 3.742188 8.363282 8.363282v25.578124c0 4.621094-3.742188 8.363282-8.363282 8.363282h-25.578124c-4.621094 0-8.363282-3.742188-8.363282-8.363282v-25.578124c0-4.621094 3.742188-8.363282 8.363282-8.363282zm0 0" fill="#e6e6e6" fill-rule="evenodd"/><path d="m40.914062 28.832031c0 6.671875-5.410156 12.082031-12.082031 12.082031s-12.082031-5.410156-12.082031-12.082031 5.410156-12.082031 12.082031-12.082031 12.082031 5.410156 12.082031 12.082031zm0 0" fill="#2c80a2"/><path d="m36.082031 28.832031c0 4.003907-3.246093 7.25-7.25 7.25-4.003906 0-7.25-3.246093-7.25-7.25 0-4.003906 3.246094-7.25 7.25-7.25 4.003907 0 7.25 3.246094 7.25 7.25zm0 0" fill="#fff"/><path d="m31.25 19.167969c0 6.671875-5.410156 12.082031-12.082031 12.082031s-12.082031-5.410156-12.082031-12.082031 5.410156-12.082031 12.082031-12.082031 12.082031 5.410156 12.082031 12.082031zm0 0" fill="#37abc8"/><path d="m26.417969 19.167969c0 4.003906-3.246094 7.25-7.25 7.25-4.003907 0-7.25-3.246094-7.25-7.25 0-4.003907 3.246093-7.25 7.25-7.25 4.003906 0 7.25 3.246093 7.25 7.25zm0 0" fill="#fff"/><path d="m19.507911 22.49206s-.653086-4.700924-3.000315-6.999656c-2.347228-2.298733-6.000629-3.000315-6.000629-3.000315" fill="none" stroke="#ff6e4c" stroke-linecap="round" stroke-width="1.241509" transform="matrix(1.208207 0 0 1.208207 4.668693 4.668693)"/><path d="m12.501789 10.497268s.653085 4.700924 3.000314 7.002889c2.343996 2.298733 5.997396 2.997082 5.997396 2.997082" fill="none" stroke="#ff6e4c" stroke-linecap="round" stroke-width="1.241509" transform="matrix(1.208207 0 0 1.208207 4.668693 4.668693)"/></svg>