<svg height="48pt" viewBox="0 0 48 48" width="48pt" xmlns="http://www.w3.org/2000/svg"><path d="m11.210938 2.847656h25.578124c4.621094 0 8.363282 3.742188 8.363282 8.363282v25.578124c0 4.621094-3.742188 8.363282-8.363282 8.363282h-25.578124c-4.621094 0-8.363282-3.742188-8.363282-8.363282v-25.578124c0-4.621094 3.742188-8.363282 8.363282-8.363282zm0 0" fill="#39668e" fill-rule="evenodd"/><path d="m12.539062 8.1875h22.921876c2.402343 0 4.351562 1.949219 4.351562 4.351562v22.921876c0 2.402343-1.949219 4.351562-4.351562 4.351562h-22.921876c-2.402343 0-4.351562-1.949219-4.351562-4.351562v-22.921876c0-2.402343 1.949219-4.351562 4.351562-4.351562zm0 0" fill="#7ca0ff" fill-rule="evenodd"/><path d="m17.492188 16.191406 6.507812 3.902344 6.507812 3.90625-6.507812 3.90625-6.507812 3.902344zm0 0" fill="#fff"/></svg>