<svg height="48pt" viewBox="0 0 48 48" width="48pt" xmlns="http://www.w3.org/2000/svg"><path d="m11.210938 2.847656h25.578124c4.621094 0 8.363282 3.742188 8.363282 8.363282v25.578124c0 4.621094-3.742188 8.363282-8.363282 8.363282h-25.578124c-4.621094 0-8.363282-3.742188-8.363282-8.363282v-25.578124c0-4.621094 3.742188-8.363282 8.363282-8.363282zm0 0" fill="#c2352a" fill-rule="evenodd"/><path d="m27.003906 8.59375c-.488281.019531-1.023437.066406-1.601562.160156-1.109375.179688-2.789063.597656-4.355469 1.839844-1.628906 1.292969-2.515625 3.171875-2.769531 5.300781-1.292969.234375-2.597656.777344-3.445313 1.726563-1.078125 1.210937-1.503906 2.632812-1.503906 3.984375 0 1.351562.425781 2.769531 1.503906 3.980469.171875.191406.441407.285156.644531.449218-.554687 1.210938-.949218 2.492188-.953124 3.878906v.003907c0 5.171875 4.277343 9.496093 9.464843 9.496093s9.464844-4.324218 9.464844-9.496093v-.003907c-.003906-1.382812-.394531-2.671874-.949219-3.878906.199219-.167968.472656-.261718.640625-.449218 1.078125-1.210938 1.503907-2.628907 1.503907-3.980469 0-1.1875-.410157-2.40625-1.222657-3.511719.601563-.816406 1.035157-1.691406 1.175781-2.605469.203126-1.34375-.007812-2.824219-.910156-4.191406-.894531-1.347656-2.585937-2.347656-4.164062-2.5625-.113282-.015625-1.140625-.191406-2.523438-.140625zm0 0" fill="#fff"/><path d="m27.1875 13.335938c-.324219.011718-.667969.042968-1.023438.097656-.710937.117187-1.484374.335937-2.167968.875-.679688.542968-1.1875 1.484375-1.1875 2.542968v3.566407h-3.539063c-.425781-.007813-.824219.21875-1.039062.585937-.214844.371094-.214844.828125 0 1.199219.214843.371094.613281.59375 1.039062.589844h3.539063v2.53125c-2.082032.542969-3.535156 2.429687-3.539063 4.597656 0 2.621094 2.113281 4.75 4.722657 4.75 2.605468 0 4.722656-2.128906 4.722656-4.75-.003906-2.167969-1.460938-4.058594-3.542969-4.597656v-2.53125h3.542969c.425781.003906.820312-.21875 1.035156-.589844s.214844-.828125 0-1.199219c-.214844-.367187-.609375-.59375-1.035156-.585937h-3.542969v-3.566407c0-.429687.085937-.515624.289063-.675781.203124-.164062.609374-.320312 1.082031-.398437.941406-.152344 1.992187-.007813 1.992187-.007813.425782.078125.855469-.082031 1.128906-.417969.269532-.335937.339844-.792968.179688-1.195312s-.527344-.683594-.953125-.734375c0 0-.738281-.125-1.703125-.085937zm-3.195312 15.394531c.652343 0 1.179687.535156 1.179687 1.191406s-.527344 1.1875-1.179687 1.1875c-.652344 0-1.183594-.53125-1.183594-1.1875s.53125-1.191406 1.183594-1.191406zm0 0" fill="#c2352a"/></svg>