<svg height="48pt" viewBox="0 0 48 48" width="48pt" xmlns="http://www.w3.org/2000/svg"><g fill-rule="evenodd"><path d="m11.210938 2.847656h25.578124c4.621094 0 8.363282 3.742188 8.363282 8.363282v25.578124c0 4.621094-3.742188 8.363282-8.363282 8.363282h-25.578124c-4.621094 0-8.363282-3.742188-8.363282-8.363282v-25.578124c0-4.621094 3.742188-8.363282 8.363282-8.363282zm0 0" fill="#3398c3"/><path d="m30.828125 10.863281c-2.851563.8125-4.632813 5.738281-4.324219 5.621094l.042969 1.144531c.441406.023438.851563.078125 1.15625.183594 1.097656.375 2.492187-.300781 3.390625-.878906.019531-.226563.03125-.445313.027344-.65625.488281-.410156 1.019531-.933594 1.167968-1.355469.292969-.828125.554688-2.464844.089844-3.117187-.234375-.328126-.574218 1.050781-.585937 1.164062-.015625.207031-.515625-.214844-.671875-.082031-.289063.253906-.011719.8125-.125.796875-.148438-.019532-.199219-.285156-.347656-.257813-.394532.328125-.617188.730469-.789063 1.121094-.109375-.03125-.21875-.0625-.320313-.105469-.148437-.066406-.128906-.457031-.078124-.613281.0625-.191406.40625-.058594.496093-.242187.097657-.199219-.09375-.542969.046875-.714844.082032-.101563.238282.035156.316406-.066406.257813-.328126.679688-1.992188.507813-1.941407zm0 0" fill="#a5ccdf"/><path d="m35.140625 14.371094c-.28125.988281-.640625 1.636718-1.058594 2.050781.0625-.25.058594-.527344-.019531-.832031l-1.21875 1.320312c.078125-.226562.125-.464844.070312-.746094l-1.167968 1c .191406-.246093.292968-.535156.265625-.917968.015625.035156-2.535157 2.175781-4.308594 1.570312-1.480469-.503906-4.996094-.140625-6.550781 1.738282-4.726563.472656-8.753906 4.824218-8.390625 8.160156.382812 3.472656 3.78125 5.601562 4.597656 5.8125.195313.0625.375.089844.542969.101562.199218 1.355469 1.085937 2.820313 2.175781 3.402344.949219.511719 3.445313-.988281 3.445313-.988281-1.636719-.96875-2.675782-1.917969-3.445313-2.886719 1.21875-.082031 2.960937.367188 4.597656.699219.207031-.011719-.019531-2.296875-2.09375-2.925781-1.074219-.324219-3.09375-.503907-4.109375.492187-.367187-.867187-.679687-2.355469.078125-3.339844.785157-1.019531 3.308594-1.773437 4.441407-1.871093.109374.046874.210937.101562.316406.140624 3.757812 1.214844 13.109375-5.949218 11.832031-11.980468zm0 0" fill="#fff"/><path d="m-43.662737 17.050799c-.01302.028645-.440104-.208334-.591145-.260417-.171875-.059896-.40625.375-.29948.523437.153646.210938.635417.263021.609375.28125zm0 0" fill="#3398c3" stroke="#000" stroke-width=".123" transform="matrix(1.5 0 0 1.5 89.787074 1.443333)"/><path d="m24.710938 24c-.277344.003906-.609376.089844-.964844.292969-.527344.296875-1.335938 2.40625-1.605469 3.113281-1.101563.964844-1.1875 3.183594-.578125 4.289062 2.375 4.28125 8.886719 6.832032 10.710938 4.636719-.386719-.605469-1.066407-.691406-1.949219-1.3125-.191407.035157-.351563.113281-.476563.25l-.476562-.820312c-.1875.03125-.339844-.242188-.519532.078125-.34375-.25-.324218-.34375-.257812-.542969.058594-.148437.128906-.265625.203125-.382813.519531.175782 1.070313.363282 1.429687.511719.203126.082031.039063-.601562.257813-.621093.308594-.023438.375.777343.683594.796874.261719.019532.375-.78125.609375-.652343.351562.195312 1.691406 1.34375 1.601562.761719-.203125-1.273438-1.792968-2.691407-2.746094-3.242188-.480468-.277344-1.402343-.40625-2.144531-.472656-.835937-1.1875-2.214843-2.59375-3.292969-3.195313-.0625-.03125-.117187-.058593-.175781-.089843.300781-.871094.808594-2.246094.421875-3.050782-.105468-.214844-.371094-.351562-.730468-.347656zm0 0" fill="#a5ccdf"/><path d="m27.753906 19.777344c0 .777344-.632812 1.40625-1.410156 1.40625s-1.40625-.628906-1.40625-1.40625.628906-1.40625 1.40625-1.40625 1.410156.628906 1.410156 1.40625zm0 0" fill="#3398c3"/></g></svg>