<svg height="48pt" viewBox="0 0 48 48" width="48pt" xmlns="http://www.w3.org/2000/svg"><path d="m11.210938 2.847656h25.578124c4.621094 0 8.363282 3.742188 8.363282 8.363282v25.578124c0 4.621094-3.742188 8.363282-8.363282 8.363282h-25.578124c-4.621094 0-8.363282-3.742188-8.363282-8.363282v-25.578124c0-4.621094 3.742188-8.363282 8.363282-8.363282zm0 0" fill="#1194f0" fill-rule="evenodd"/><path d="m23.25 10.5c-3.671875 0-8.25 4.179688-8.25 9.800781 0 5.859375 3.53125 11.199219 8.425781 11.199219 2.417969 0 3.464844-.910156 5.074219-3-.789062 2.742188-2.113281 4.484375-4.234375 4.992188-1.675781.402343-3.554687-.519532-4.765625-1.992188h-4.5c1.394531 3.804688 4.894531 6 9.109375 6 3.097656 0 5.546875-1.199219 7.15625-3.460938 1.207031-1.746093 1.734375-4.078124 1.734375-7.707031v-15.386719h-4.5v2.398438s-1.578125-2.84375-5.25-2.84375zm.664062 4.5c2.726563 0 4.585938 2.464844 4.585938 6.070312 0 3.570313-1.804688 5.929688-4.53125 5.929688-2.71875 0-4.46875-2.320312-4.46875-5.929688 0-3.644531 1.75-6.070312 4.414062-6.070312zm0 0" fill="#fff"/></svg>