<svg height="48pt" viewBox="0 0 48 48" width="48pt" xmlns="http://www.w3.org/2000/svg" xmlns:xlink="http://www.w3.org/1999/xlink"><filter id="a" height="100%" width="100%" x="0%" y="0%"><feColorMatrix in="SourceGraphic" type="matrix" values="0 0 0 0 1 0 0 0 0 1 0 0 0 0 1 0 0 0 1 0"/></filter><mask id="b"><g filter="url(#a)"><path d="m0 0h48v48h-48z" fill-opacity=".101961"/></g></mask><clipPath id="c"><path d="m0 0h48v48h-48z"/></clipPath><mask id="d"><g filter="url(#a)"><path d="m0 0h48v48h-48z" fill-opacity=".101961"/></g></mask><clipPath id="e"><path d="m0 0h48v48h-48z"/></clipPath><path d="m11.210938 2.847656h25.578124c4.621094 0 8.363282 3.742188 8.363282 8.363282v25.578124c0 4.621094-3.742188 8.363282-8.363282 8.363282h-25.578124c-4.621094 0-8.363282-3.742188-8.363282-8.363282v-25.578124c0-4.621094 3.742188-8.363282 8.363282-8.363282zm0 0" fill="#3f3f3f" fill-rule="evenodd"/><path d="m25.109375 37.347656c5.925781-.3125 10.511719-1.316406 12.289063-1.863281-2.949219-.953125-2.871094-4.785156-1.769532-6.785156zm0 0" fill="#ccc"/><g clip-path="url(#c)" mask="url(#b)"><path d="m22.007812 21.632812c.363282-2.097656-.59375-4.019531-2.136718-4.296874-1.542969-.277344-3.089844 1.195312-3.449219 3.289062-.363281 2.097656.59375 4.019531 2.136719 4.296875 1.542968.28125 3.089844-1.195313 3.449218-3.289063zm0 0" fill-rule="evenodd"/></g><g clip-path="url(#e)" mask="url(#d)"><path d="m31.578125 20.628906c-.363281-2.097656-1.910156-3.570312-3.453125-3.292968-1.542969.273437-2.5 2.199218-2.132812 4.292968.363281 2.097656 1.90625 3.570313 3.449218 3.296875 1.542969-.277343 2.5-2.199219 2.136719-4.296875zm0 0" fill-rule="evenodd"/></g><g fill-rule="evenodd"><g fill="#ccc"><path d="m36.441406 24c0-7.398438-5.570312-13.398438-12.441406-13.398438s-12.441406 6-12.441406 13.398438 5.570312 13.398438 12.441406 13.398438 12.441406-6 12.441406-13.398438zm0 0"/><path d="m38.355469 19.214844c0 1.585937-1.285157 2.871094-2.871094 2.871094s-2.871094-1.285157-2.871094-2.871094c0-1.585938 1.285157-2.871094 2.871094-2.871094s2.871094 1.285156 2.871094 2.871094zm0 0"/><path d="m15.386719 19.214844c0 1.585937-1.285157 2.871094-2.871094 2.871094s-2.871094-1.285157-2.871094-2.871094c0-1.585938 1.285157-2.871094 2.871094-2.871094s2.871094 1.285156 2.871094 2.871094zm0 0"/></g><path d="m22.011719 20.675781c.359375-2.097656-.597657-4.019531-2.140625-4.296875-1.542969-.277344-3.085938 1.195313-3.449219 3.292969-.363281 2.09375.59375 4.019531 2.136719 4.296875 1.542968.277344 3.089844-1.199219 3.453125-3.292969zm0 0" fill="#3f3f3f"/><path d="m31.578125 19.671875c-.363281-2.09375-1.910156-3.570313-3.453125-3.292969-1.542969.273438-2.5 2.199219-2.132812 4.292969.363281 2.097656 1.90625 3.570313 3.449218 3.296875 1.542969-.277344 2.5-2.199219 2.136719-4.296875zm0 0" fill="#3f3f3f"/></g></svg>