<svg height="48pt" viewBox="0 0 48 48" width="48pt" xmlns="http://www.w3.org/2000/svg"><path d="m2.847656 36.789062c0 4.636719 3.726563 8.363282 8.359375 8.363282h25.585938c4.632812 0 8.359375-3.726563 8.359375-8.363282v-25.101562l-14.257813 14.261719-.101562-3.804688-4.117188-.171875.085938-3.945312-4.265625-.136719 14.988281-14.902344c-.242187-.019531-.449219-.140625-.691406-.140625h-25.585938c-4.632812 0-8.359375 3.726563-8.359375 8.359375zm0 0" fill="#2d8d7b" fill-rule="evenodd"/><path d="m17.019531 10.3125h13.960938c3.886719 0 7.035156 3.148438 7.035156 7.035156v13.304688c0 3.886718-3.148437 7.035156-7.035156 7.035156h-13.960938c-3.886719 0-7.035156-3.148438-7.035156-7.035156v-13.304688c0-3.886718 3.148437-7.035156 7.035156-7.035156zm0 0" fill="#ccc"/><path d="m16.460938 29.992188h15.078124c.886719 0 1.601563.71875 1.601563 1.601562s-.714844 1.601562-1.601563 1.601562h-15.078124c-.886719 0-1.601563-.71875-1.601563-1.601562s.714844-1.601562 1.601563-1.601562zm0 0" fill="#999"/><path d="m37.480469 2.988281-14.984375 14.902344 4.265625.140625-.085938 3.941406 4.117188.171875.101562 3.808594 14.257813-14.261719v-.480468c0-4.390626-3.382813-7.855469-7.671875-8.222657zm0 0" fill="#fda002" fill-rule="evenodd"/><path d="m37.402344 19.441406-6.507813 6.507813 6.507813-6.503907c0-.003906 0-.003906 0-.003906zm0 0" fill="#fff" fill-rule="evenodd"/><path d="m18.496094 15.210938h3.21875c2.011718 0 3.640625 1.628906 3.640625 3.640624v3.875c0 2.011719-1.628907 3.640626-3.640625 3.640626h-3.21875c-2.011719 0-3.640625-1.628907-3.640625-3.640626v-3.875c0-2.011718 1.628906-3.640624 3.640625-3.640624zm0 0" fill="#999"/><path d="m22.496094 17.886719 4.265625.140625-.085938 3.945312 4.113281.171875.109376 3.804688 6.503906-6.507813c-1.242188-3.855468-4.066406-7-7.769532-8.644531zm0 0" fill="#fda002" fill-rule="evenodd"/><path d="m18.808594 29.894531 12.085937-3.945312-.105469-3.804688-4.113281-.171875.082031-3.945312-4.261718-.140625-.003906.003906zm0 0" fill="#fff" fill-rule="evenodd"/><path d="m18.808594 29.894531 4.527344-1.476562-3.144532-3.050781zm0 0"/></svg>