<svg height="48pt" viewBox="0 0 48 48" width="48pt" xmlns="http://www.w3.org/2000/svg"><path d="m11.210938 2.847656h25.578124c4.621094 0 8.363282 3.742188 8.363282 8.363282v25.578124c0 4.621094-3.742188 8.363282-8.363282 8.363282h-25.578124c-4.621094 0-8.363282-3.742188-8.363282-8.363282v-25.578124c0-4.621094 3.742188-8.363282 8.363282-8.363282zm0 0" fill="#3465a4" fill-rule="evenodd"/><g fill="#fff"><path d="m12.75 18.75s-.71875-.015625-1.460938.359375c-.742187.371094-1.539062 1.265625-1.539062 2.640625h1.5c0-1.5 1.5-1.5 1.5-1.5s1.5 0 1.5 1.5c0 .5625-.191406.984375-.542969 1.4375-.351562.449219-.875.890625-1.4375 1.359375s-1.164062.964844-1.65625 1.59375c-.492187.625-.863281 1.421875-.863281 2.359375v.75h6v-1.5h-4.363281c.089843-.234375.226562-.457031.40625-.6875.351562-.449219.875-.890625 1.4375-1.359375s1.164062-.964844 1.65625-1.59375c.492187-.625.863281-1.421875.863281-2.359375 0-1.375-.796875-2.269531-1.539062-2.640625-.742188-.371094-1.460938-.359375-1.460938-.359375zm0 0" fill-rule="evenodd"/><path d="m20.25 18.75c-1.648438 0-3 1.351562-3 3v4.5c0 1.648438 1.351562 3 3 3s3-1.351562 3-3v-4.5c0-1.648438-1.351562-3-3-3zm0 1.5c.84375 0 1.5.65625 1.5 1.5v4.5c0 .84375-.65625 1.5-1.5 1.5s-1.5-.65625-1.5-1.5v-4.5c0-.84375.65625-1.5 1.5-1.5zm0 0"/><path d="m26.25 18.75v4.5h3v-4.5h1.5v10.5h-1.5v-4.5h-4.5v-6z" fill-rule="evenodd"/><path d="m35.25 18.75c-1.648438 0-3 1.351562-3 3 0 .898438.410156 1.699219 1.042969 2.25-.632813.550781-1.042969 1.351562-1.042969 2.25 0 1.648438 1.351562 3 3 3s3-1.351562 3-3c0-.898438-.410156-1.699219-1.042969-2.25.632813-.550781 1.042969-1.351562 1.042969-2.25 0-1.648438-1.351562-3-3-3zm0 1.5c.84375 0 1.5.65625 1.5 1.5s-.65625 1.5-1.5 1.5-1.5-.65625-1.5-1.5.65625-1.5 1.5-1.5zm0 4.5c.84375 0 1.5.65625 1.5 1.5s-.65625 1.5-1.5 1.5-1.5-.65625-1.5-1.5.65625-1.5 1.5-1.5zm0 0"/></g></svg>