<svg height="48pt" viewBox="0 0 48 48" width="48pt" xmlns="http://www.w3.org/2000/svg"><g fill-rule="evenodd"><path d="m45.152344 19.503906c-.308594-.15625-.574219-.382812-.945313-.382812h-40.414062c-.371094 0-.636719.226562-.945313.382812v17.285156c0 4.632813 3.726563 8.363282 8.359375 8.363282h25.582031c4.636719 0 8.363282-3.730469 8.363282-8.363282zm0 0" fill="#e49815"/><path d="m41.402344 19.121094c.058594-.191406.238281-.328125.238281-.535156v-2.140626c0-.589843-.257813-1.125-.671875-1.511718-.414062-.386719-.984375-.625-1.621094-.625h-11.453125c-.636719.003906-1.207031.238281-1.621093.625-.414063.386718-.671876.921875-.671876 1.511718v2.140626c0 .207031.179688.34375.238282.535156zm0 0" fill="#f2b740"/><path d="m22.160156 19.121094c.058594-.191406.238282-.328125.238282-.535156v-2.140626c0-.589843-.257813-1.125-.671876-1.511718-.414062-.386719-.988281-.625-1.625-.625h-11.449218c-.636719 0-1.207032.238281-1.621094.625-.414062.386718-.671875.921875-.671875 1.511718v2.140626c0 .207031.179687.34375.238281.535156zm0 0" fill="#f2b740"/><path d="m11.207031 2.847656c-4.632812 0-8.359375 3.730469-8.359375 8.363282v8.292968c.308594-.15625.574219-.382812.945313-.382812h2.804687c-.058594-.191406-.238281-.328125-.238281-.535156v-2.140626c0-.589843.257813-1.125.671875-1.511718.414062-.386719.984375-.625 1.621094-.625h11.449218c.636719 0 1.210938.238281 1.625.625.414063.386718.671876.921875.671876 1.511718v2.140626c0 .207031-.179688.34375-.238282.535156h3.679688c-.058594-.191406-.238282-.328125-.238282-.535156v-2.140626c0-.589843.257813-1.125.671876-1.511718.414062-.386719.984374-.621094 1.621093-.625h11.453125c.636719 0 1.207032.238281 1.621094.625.414062.386718.671875.921875.671875 1.511718v2.140626c0 .207031-.179687.34375-.238281.535156h2.804687c.371094 0 .636719.226562.945313.382812v-8.292968c0-4.632813-3.726563-8.363282-8.359375-8.363282zm0 0" fill="#8e8e8e"/></g></svg>