<svg height="48pt" viewBox="0 0 48 48" width="48pt" xmlns="http://www.w3.org/2000/svg" xmlns:xlink="http://www.w3.org/1999/xlink"><clipPath id="a"><path d="m0 0h48v48h-48z"/></clipPath><path d="m11.210938 2.847656h25.578124c4.621094 0 8.363282 3.742188 8.363282 8.363282v25.578124c0 4.621094-3.742188 8.363282-8.363282 8.363282h-25.578124c-4.621094 0-8.363282-3.742188-8.363282-8.363282v-25.578124c0-4.621094 3.742188-8.363282 8.363282-8.363282zm0 0" fill="#e6e6e6" fill-rule="evenodd"/><path d="m38.402344 33.601562v-25.207031c0-.660156-.566406-1.199219-1.261719-1.199219h-21.480469c-.695312 0-1.261718.539063-1.261718 1.199219v25.207031c0 .664063.566406 1.199219 1.261718 1.199219h21.480469c.695313 0 1.261719-.535156 1.261719-1.199219zm0 0" fill="#66a02c"/><path d="m33.601562 39.605469v-25.207031c0-.664063-.566406-1.199219-1.261718-1.199219h-21.480469c-.695313 0-1.261719.535156-1.261719 1.199219v25.207031c0 .660156.566406 1.199219 1.261719 1.199219h21.480469c.695312 0 1.261718-.539063 1.261718-1.199219zm0 0" fill="#7ebc2e"/><path d="m13.815104 13.307292c-.223958 0-.429687.109375-.479166.286458-.1875.6875.020833 1.747396.369791 3.070312l-.106771.255209c-.265625.648437-.596354 1.294271-.890625 1.867187-1.205729 2.359375-2.145833 3.635417-2.770833 3.723959l-.002604-.026042c-.013021-.294271.53125-1.054687 1.268229-1.658854.075521-.0625.403646-.380209.403646-.380209s-.442709.234376-.541667.294271c-.924479.552084-1.382812 1.104167-1.458333 1.471355-.020833.109374-.007813.242187.088541.296874l.23698.119792c.640625.320313 1.432291-.526042 2.48177-2.367187 1.070313-.348959 2.403646-.679688 3.617188-.859375 1.088542.622396 2.333333.916666 2.8125.789062.091146-.023437.1875-.09375.236979-.161458.039063-.059896.091146-.302084.091146-.302084s-.088542.122396-.164063.158855c-.302083.143229-1.260416-.096355-2.242187-.578125.848958-.088542 1.557292-.09375 1.934896.028646.481771.153645.481771.309895.473958.341145.007813-.026041.028646-.130208.026042-.174479-.010417-.117187-.046875-.21875-.132813-.304687-.179687-.174479-.617187-.263021-1.216146-.270834-.45052-.005208-.992187.033855-1.578124.117188-.26823-.153646-.552084-.322917-.776042-.533854-.570313-.53125-1.049479-1.270834-1.346354-2.101563.020833-.078125.039062-.15625.057291-.234375.083334-.369791.143229-1.596354.143229-1.596354s-.236979.919271-.273437 1.059896c-.023437.088541-.052083.182291-.085937.278646-.179688-.632813-.273438-1.244792-.273438-1.710938 0-.130208.013021-.385417.049479-.588541.018229-.145834.070313-.21875.125-.255209.106771.026042.226563.190104.354167.466146.106771.236979.098958.513021.098958.684896 0 0 .117188-.424479.088542-.674479-.015625-.148438-.158854-.533854-.460938-.528646h-.026041l-.135417-.002604zm.101563 3.830729c.315104.630208.747395 1.229167 1.315104 1.710937.125.106771.260417.208334.398437.304688-1.03125.190104-2.111979.460937-3.119791.882812.182291-.322916.380208-.674479.580729-1.054687.390625-.739583.627604-1.307292.825521-1.84375zm0 0" fill="#fff" stroke="#fff" stroke-width=".5" transform="scale(1.5)"/><g clip-path="url(#a)"><path d="m25.429688 35.199219v3.699219h3.695312l9.335938-9.335938-3.695313-3.699219zm16.300781-8.894531c.390625-.390626.390625-1.007813 0-1.398438l-2.3125-2.3125c-.390625-.390625-1.003907-.390625-1.394531 0l-1.933594 1.945312 3.699218 3.695313zm0 0" fill="#ffdf2c"/></g></svg>