<svg height="48pt" viewBox="0 0 48 48" width="48pt" xmlns="http://www.w3.org/2000/svg" xmlns:xlink="http://www.w3.org/1999/xlink"><symbol id="a" overflow="visible"><path d="m7.28125-12.65625v2.53125h-1.953125v10.125h-3.28125v-10.125h-1.953125v-2.53125zm0 0"/></symbol><symbol id="b" overflow="visible"><path d="m7.71875-5h-4.09375v2.234375c0 .46875.03125.773437.09375.90625.070312.136719.207031.203125.40625.203125.238281 0 .394531-.085938.46875-.265625.082031-.175781.125-.523437.125-1.046875v-1.359375h3v .765625c0 .636719-.042969 1.125-.125 1.46875-.085938.34375-.277344.714844-.578125 1.109375-.292969.386719-.667969.679687-1.125.875-.449219.1953125-1.015625.296875-1.703125.296875-.667969 0-1.257812-.09375-1.765625-.28125-.511719-.195312-.914063-.460938-1.203125-.796875-.28125-.34375-.480469-.710937-.59375-1.109375-.105469-.40625-.15625-.992188-.15625-1.765625v-3.03125c0-.90625.117188-1.617187.359375-2.140625.25-.519531.648437-.921875 1.203125-1.203125.5625-.28125 1.207031-.421875 1.9375-.421875.882812 0 1.613281.171875 2.1875.515625.570312.335937.972656.777344 1.203125 1.328125.238281.554688.359375 1.335938.359375 2.34375zm-3.171875-1.6875v-.765625c0-.53125-.03125-.875-.09375-1.03125-.054687-.15625-.167969-.234375-.34375-.234375-.21875 0-.355469.070312-.40625.203125-.054687.125-.078125.480469-.078125 1.0625v.765625zm0 0"/></symbol><symbol id="c" overflow="visible"><path d="m7.015625-7.0625h-2.796875v-.5625c0-.476562-.03125-.78125-.09375-.90625-.054688-.125-.1875-.1875-.40625-.1875-.179688 0-.3125.058594-.40625.171875-.085938.117187-.125.292969-.125.53125 0 .3125.019531.546875.0625.703125.050781.148438.1875.308594.40625.484375.21875.179687.671875.433594 1.359375.765625.914063.449219 1.519531.871094 1.8125 1.265625.28125.398437.421875.976563.421875 1.734375 0 .84375-.109375 1.480469-.328125 1.90625-.21875.429688-.585937.761719-1.09375 1-.511719.2265625-1.132813.34375-1.859375.34375-.804688 0-1.492188-.125-2.0625-.375-.5625-.25-.953125-.585938-1.171875-1.015625-.210937-.425781-.3125-1.070313-.3125-1.9375v-.5h2.796875v.65625c0 .554687.03125.914063.09375 1.078125.070312.167969.210938.25.421875.25.226563 0 .382813-.050781.46875-.15625.09375-.113281.140625-.351562.140625-.71875 0-.488281-.058594-.796875-.171875-.921875-.125-.125-.742187-.492187-1.84375-1.109375-.929687-.519531-1.496094-.992188-1.703125-1.421875-.199219-.425781-.296875-.929687-.296875-1.515625 0-.820312.109375-1.429688.328125-1.828125.21875-.394531.585938-.695313 1.109375-.90625.53125-.21875 1.140625-.328125 1.828125-.328125s1.269531.089844 1.75.265625c.488281.179687.859375.414063 1.109375.703125.257813.28125.414063.546875.46875.796875.0625.242187.09375.621094.09375 1.140625zm0 0"/></symbol><symbol id="d" overflow="visible"><path d="m3.890625-11.75v1.625h.859375v1.640625h-.859375v5.546875c0 .6875.035156 1.074219.109375 1.15625.070312.074219.363281.109375.875.109375v1.671875h-1.265625c-.71875 0-1.234375-.03125-1.546875-.09375-.304688-.0625-.574219-.195312-.8125-.40625-.230469-.21875-.375-.46875-.4375-.75-.054688-.28125-.078125-.9375-.078125-1.96875v-5.265625h-.6875v-1.640625h.6875v-1.625zm0 0"/></symbol><symbol id="e" overflow="visible"><path d="m8.203125-8h-3.28125v-1.140625c0-.726563-.03125-1.179687-.09375-1.359375-.0625-.1875-.214844-.28125-.453125-.28125-.199219 0-.335938.078125-.40625.234375-.074219.15625-.109375.558594-.109375 1.203125v6.078125c0 .5625.035156.9375.109375 1.125.070312.179687.21875.265625.4375.265625.238281 0 .398438-.097656.484375-.296875.082031-.207031.125-.609375.125-1.203125v-1.5h-.65625v-1.921875h3.84375v6.796875h-2.0625l-.3125-.90625c-.21875.386719-.5.679688-.84375.875s-.746094.296875-1.203125.296875c-.554688 0-1.074219-.136719-1.5625-.40625-.480469-.269531-.84375-.601563-1.09375-1-.25-.394531-.40625-.804687-.46875-1.234375-.0625-.4375-.09375-1.09375-.09375-1.96875v-3.75c0-1.207031.0625-2.082031.1875-2.625.132812-.550781.507812-1.054688 1.125-1.515625.625-.457031 1.425781-.6875 2.40625-.6875.957031 0 1.753906.199219 2.390625.59375.632813.398437 1.046875.871094 1.234375 1.421875.195312.542969.296875 1.328125.296875 2.359375zm0 0"/></symbol><symbol id="f" overflow="visible"><path d="m3.78125-10.375-.0625.921875c.28125-.375.585938-.648437.921875-.828125.34375-.1875.71875-.28125 1.125-.28125.488281 0 .910156.136719 1.265625.40625.351562.261719.570312.5625.65625.90625.09375.34375.140625.929688.140625 1.75v4.359375c0 .949219-.058594 1.621094-.171875 2.015625-.105469.398438-.335938.714844-.6875.953125-.34375.2382812-.761719.359375-1.25.359375-.386719 0-.746094-.0898438-1.078125-.265625-.335937-.1875-.640625-.460937-.921875-.828125v2.390625h-3.15625v-11.859375zm.890625 3.015625c0-.632813-.027344-1.019531-.078125-1.15625-.042969-.132813-.167969-.203125-.375-.203125-.210938 0-.34375.078125-.40625.234375s-.09375.53125-.09375 1.125v4.296875c0 .625.03125 1.015625.09375 1.171875s.195312.234375.40625.234375c.207031 0 .332031-.066406.375-.203125.050781-.144531.078125-.492187.078125-1.046875zm0 0"/></symbol><symbol id="g" overflow="visible"><path d="m7.796875-10.375v10.375h-3.21875l.0625-.859375c-.21875.34375-.492187.605469-.8125.78125-.324219.1757812-.695313.265625-1.109375.265625-.46875 0-.859375-.085938-1.171875-.25s-.546875-.382812-.703125-.65625c-.148438-.28125-.242188-.570312-.28125-.875-.03125-.300781-.046875-.894531-.046875-1.78125v-7h3.15625v7.0625c0 .804688.023437 1.28125.078125 1.4375.050781.148438.1875.21875.40625.21875.226562 0 .363281-.078125.40625-.234375.050781-.15625.078125-.65625.078125-1.5v-6.984375zm0 0"/></symbol><path d="m11.210938 2.847656h25.578124c4.621094 0 8.363282 3.742188 8.363282 8.363282v25.578124c0 4.621094-3.742188 8.363282-8.363282 8.363282h-25.578124c-4.621094 0-8.363282-3.742188-8.363282-8.363282v-25.578124c0-4.621094 3.742188-8.363282 8.363282-8.363282zm0 0" fill="#4d4d4d" fill-rule="evenodd"/><g fill="#fff"><use x="43.589355" xlink:href="#a" y="38.293945"/><use x="35.235352" xlink:href="#b" y="38.293945"/><use x="78.234375" xlink:href="#c" y="38.293945"/><use x="85.92627" xlink:href="#d" y="38.293945"/></g><g fill="#ff3f42"><use x="7.582031" xlink:href="#e" y="21.602539"/><use x="16.59082" xlink:href="#f" y="21.602539"/><use x="25.072266" xlink:href="#g" y="21.602539"/></g></svg>