<svg height="48pt" viewBox="0 0 48 48" width="48pt" xmlns="http://www.w3.org/2000/svg"><path d="m10.589844 13.078125c-.148438.160156-.363282.28125-.507813.445313-.648437.75-1.265625 1.632812-1.746093 2.589843-.480469.957031-.816407 1.984375-.910157 3.03125-.089843 1.039063-.011719 2.0625.230469 3.046875.246094.980469.652344 1.917969 1.207031 2.796875-1.175781-.609375-2.105469-.949219-2.78125-2.023437-.183593-.132813-.121093.414062-.089843.914062.246093 2.25.644531 4.445313 1.316406 6.570313l-.027344-.007813c.023438.039063.078125.585938.378906 1.480469.300782.894531.847656 2.128906 1.851563 3.542969.710937 1.023437 1.53125 2.015625 2.421875 2.894531.886718.882813 1.847656 1.652344 2.828125 2.226563.585937.339843 1.058593.972656 1.679687 1.066406-1.222656.015625-2.472656-.324219-3.6875-.914063-1.21875-.59375-2.402344-1.441406-3.503906-2.4375-1.097656-1-2.113281-2.148437-2.984375-3.351562-.871094-1.199219-1.601563-2.453125-2.136719-3.65625-.53125-1.324219-.980468-2.675781-1.28125-4.074219v9.574219c0 4.632812 3.726563 8.359375 8.359375 8.359375h25.582031c4.632813 0 8.363282-3.726563 8.363282-8.359375v-12.589844c.027344 2.105469-.289063 4.300781-1.027344 6.449219-.761719 2.222656-1.933594 4.382812-3.503906 6.308594-.023438.027343-.046875.050781-.070313.078124-.125.164063-.242187.328126-.367187.488282-.207032.257812-.550782.570312-.746094.796875-1.496094 1.707031-2.929688 2.488281-2.929688 2.488281-.882812.644531-1.792968 1.035156-2.828124 1.367188-1.039063.328124-2.207032.597656-3.605469.988281 1.527343-.910157 3.652343-3.917969 3.03125-3.03125 0 0-.824219.828125-2.183594 1.621093-.679687.398438-1.492187.789063-2.402344 1.058594-.910156.273438-1.917969.425782-2.988281.351563.804688-.347657 1.785156-.941407 2.832031-1.792969 1.042969-.847656 2.148438-1.953125 3.191407-3.328125 1.042968-1.375 2.03125-3.015625 2.832031-4.9375.804687-1.917969 1.429687-4.117187 1.75-6.609375-.902344.859375-2.03125 1.238281-2.933594 1.40625-.90625.164062-1.589844.117188-1.605469.113281-.003906 0-.011718 0-.011718 0s .007812-.003906.011718-.003906c.753906-.964844 1.191406-2.082031 1.40625-3.277344.214844-1.195312.203125-2.46875.050782-3.746093-.242188-1.949219-.984376-3.933594-2.054688-5.644532h.007812c-.375-.585937-1.226562-1.390625-1.703124-1.882812-1.023438.460937-2.085938.992187-3.148438 1.40625-1.0625.414062-2.128906.714844-3.164062.714844-1.085938 0-2.03125-.355469-2.921876-.589844-.890624-.238282-1.71875-.355469-2.5625.128906-1.28125.589844-2.328124 1.445312-3.621093 2.003906-.574219.28125-1.222657.582032-1.765625.976563-.542969.394531-.976563.890625-1.125 1.554687-.464844-.511718-.605469-1.152344-.582032-1.804687.023438-.65625.214844-1.328125.410157-1.917969.191406-.085938-.054688-.929688-.035157-1.332031-.058593-.496094-.132812-1.015625-.199218-1.527344zm0 0" fill="#ebebeb" fill-rule="evenodd"/><path d="m9.511719 35.46875c1.839843 2.648438 4.214843 5.765625 6.929687 6.183594-1.0625-.613282-3.714844-3.015625-4.546875-7.574219.882813 1.726563 4.863281 4.019531 6.058594 4.542969-.59375-.554688-2.871094-3.878906-3.027344-5.832032l-7.644531-2.347656c.046875.070313.21875 2.199219 2.230469 5.027344zm0 0" fill="#375389"/><path d="m36.722656 18.160156-13.777344-4.832031-14.769531.984375-3.769531 4.703125c.671875 4.347656.253906 9.054687 2.589844 12.851563l26.109375 8.269531 3.59375-10.035157zm0 0" fill-opacity=".2"/><path d="m36.722656 16.644531-13.777344-4.832031-14.769531.984375-3.769531 4.703125c.671875 4.347656.253906 9.054688 2.589844 12.851562l26.109375 8.269532 3.59375-10.035156zm0 0" fill="#ebebeb"/><path d="m35.601562 20.8125-2.042968-6.71875-25.003906-.25-.144532.175781-.234375.292969 9.46875 13.386719zm0 0" fill-opacity=".2"/><path d="m35.601562 19.296875-2.042968-6.71875-25.003906-.25-.144532.175781-.234375.292969 9.46875 13.386719zm0 0" fill="#f7f7f7"/><path d="m15.355469 2.847656c-.066407.070313-.152344.105469-.210938.175782-1.132812 1.285156-1.988281 2.914062-2.695312 4.332031-.507813.902343-1.039063 1.972656-1.484375 2.824219-.425782.671874-.511719 1.410156-.472656 2.167968.042968.753906.207031 1.523438.296874 2.257813-.019531.402343.226563 1.246093.035157 1.332031-.195313.589844-.386719 1.261719-.410157 1.917969-.023437.652343.117188 1.292969.582032 1.804687.148437-.664062.582031-1.160156 1.125-1.554687.542968-.394531 1.191406-.695313 1.765625-.976563 1.292969-.558594 2.339843-1.414062 3.621093-2.003906.84375-.484375 1.671876-.367188 2.5625-.128906.890626.234375 1.835938.589844 2.921876.589844 1.035156 0 2.101562-.300782 3.164062-.714844 1.0625-.414063 2.125-.945313 3.148438-1.40625.476562.492187 1.328124 1.296875 1.703124 1.882812h-.007812c1.070312 1.710938 1.8125 3.695313 2.054688 5.648438.152343 1.273437.164062 2.546875-.050782 3.742187-.214844 1.195313-.652344 2.3125-1.40625 3.277344-.003906 0-.011718.003906-.011718.003906h.011718c.015625.003907.699219.050781 1.605469-.113281.902344-.167969 2.03125-.546875 2.933594-1.402344-.320313 2.488282-.945313 4.6875-1.75 6.609375-.800781 1.917969-1.789063 3.558594-2.832031 4.933594-1.042969 1.375-2.148438 2.480469-3.191407 3.328125-1.046875.851562-2.027343 1.445312-2.832031 1.792969 1.070312.074219 2.078125-.078125 2.988281-.351563.910157-.269531 1.722657-.660156 2.402344-1.054687 1.359375-.796875 2.183594-1.625 2.183594-1.625.621093-.886719-1.503907 2.121093-3.03125 3.03125 1.398437-.390625 2.566406-.660157 3.605469-.988281 1.039062-.332032 1.945312-.722657 2.828124-1.367188 0 0 1.433594-.78125 2.929688-2.484375.195312-.230469.539062-.542969.746094-.800781.125-.160156.242187-.324219.367187-.488282.023438-.027343.046875-.050781.070313-.078124 1.570312-1.925782 2.742187-4.085938 3.503906-6.308594.738281-2.148438 1.054688-4.34375 1.027344-6.449219v-12.996094c0-4.632812-3.730469-8.359375-8.363282-8.359375zm0 0" fill="#5996d2" fill-rule="evenodd"/><path d="m12.363281 15.898438c5.050781-.148438 1.882813-3.277344 8.621094-9.089844-5.492187 2.839844-10.71875 2.835937-8.613281 9.089844zm0 0" fill="#4271a3"/><path d="m11.207031 2.847656c-4.632812 0-8.359375 3.726563-8.359375 8.359375v16.011719c.300782 1.398438.75 2.75 1.28125 4.074219.535156 1.203125 1.265625 2.457031 2.136719 3.65625.871094 1.203125 1.886719 2.351562 2.984375 3.351562 1.101562.996094 2.285156 1.84375 3.503906 2.4375 1.214844.589844 2.464844.929688 3.6875.914063-.621094-.09375-1.09375-.726563-1.679687-1.066406-.980469-.574219-1.941407-1.34375-2.828125-2.222657-.890625-.882812-1.710938-1.875-2.421875-2.898437-1.003907-1.414063-1.550781-2.648438-1.851563-3.542969-.300781-.894531-.355468-1.441406-.378906-1.480469l.027344.011719c-.671875-2.128906-1.070313-4.324219-1.316406-6.574219-.03125-.5-.09375-1.046875.089843-.914062.675781 1.074218 1.605469 1.414062 2.78125 2.023437-.554687-.878906-.960937-1.816406-1.207031-2.796875-.242188-.984375-.320312-2.007812-.230469-3.046875.09375-1.046875.429688-2.074219.910157-3.03125.480468-.957031 1.097656-1.839843 1.746093-2.589843.144531-.164063.359375-.285157.507813-.445313-.03125-.246094-.082032-.488281-.097656-.730469-.039063-.757812.046874-1.496094.472656-2.167968.445312-.851563.976562-1.921876 1.484375-2.824219.09375-.1875.257812-.378907.355469-.570313.648437-1.269531 1.355468-2.644531 2.339843-3.761718.058594-.070313.144531-.105469.210938-.175782zm0 0" fill="#4271a3" fill-rule="evenodd"/><path d="m16.144531 13.351562c-.484375.882813-1.613281 1.242188-2.238281.90625-.636719-.332031-.636719-1.445312-.140625-2.328124.476563-.886719 2.585937-.488282 2.597656-.488282.007813 0 .265625 1.027344-.21875 1.910156zm0 0" fill="#fff"/><path d="m13.273438 17.386719s.273437-.261719.132812-.742188c-1.695312.5625-2.53125-1.0625-2.523438-1.0625.003907 0-1.269531 3.34375.253907 4.859375.128906-1.246094 2.074219-2.988281 2.082031-2.988281" fill="#5c5f60"/></svg>