<svg height="48pt" viewBox="0 0 48 48" width="48pt" xmlns="http://www.w3.org/2000/svg" xmlns:xlink="http://www.w3.org/1999/xlink"><clipPath id="a"><path d="m0 0h48v48h-48z"/></clipPath><clipPath id="b"><path d="m0 0h48v48h-48z"/></clipPath><clipPath id="c"><path d="m0 0h48v48h-48z"/></clipPath><clipPath id="d"><path d="m0 0h48v48h-48z"/></clipPath><clipPath id="e"><path d="m0 0h48v48h-48z"/></clipPath><clipPath id="f"><path d="m0 0h48v48h-48z"/></clipPath><clipPath id="g"><path d="m0 0h48v48h-48z"/></clipPath><clipPath id="h"><path d="m0 0h48v48h-48z"/></clipPath><path d="m11.210938 2.847656h25.578124c4.621094 0 8.363282 3.742188 8.363282 8.363282v25.578124c0 4.621094-3.742188 8.363282-8.363282 8.363282h-25.578124c-4.621094 0-8.363282-3.742188-8.363282-8.363282v-25.578124c0-4.621094 3.742188-8.363282 8.363282-8.363282zm0 0" fill="#e6e6e6" fill-rule="evenodd"/><path d="m39.304688 10.335938v17.488281c0 .90625-.734376 1.640625-1.640626 1.640625h-17.488281c-.90625 0-1.640625-.734375-1.640625-1.640625v-17.488281c0-.90625.734375-1.640626 1.640625-1.640626h17.488281c.90625 0 1.640626.734376 1.640626 1.640626zm0 0" fill="#85aeff"/><g clip-path="url(#a)"><path d="m21.8125 15.253906v-1.09375h13.117188v1.09375zm0 0" fill="#6a8bcc"/></g><g clip-path="url(#b)"><path d="m21.8125 18.535156v-1.09375h13.117188v1.09375zm0 0" fill="#6a8bcc"/></g><g clip-path="url(#c)"><path d="m21.8125 21.8125v-1.09375h13.117188v1.09375zm0 0" fill="#6a8bcc"/></g><g clip-path="url(#d)"><path d="m21.8125 25.09375v-1.09375h8.746094v1.09375zm0 0" fill="#6a8bcc"/></g><path d="m29.464844 20.175781v17.488281c0 .90625-.734375 1.640626-1.640625 1.640626h-17.488281c-.90625 0-1.640626-.734376-1.640626-1.640626v-17.488281c0-.90625.734376-1.640625 1.640626-1.640625h17.488281c.90625 0 1.640625.734375 1.640625 1.640625zm0 0" fill="#a7baff"/><g clip-path="url(#e)"><path d="m11.976562 25.09375v-1.09375h13.117188v1.09375zm0 0" fill="#535d7f"/></g><g clip-path="url(#f)"><path d="m11.976562 28.371094v-1.089844h13.117188v1.089844zm0 0" fill="#535d7f"/></g><g clip-path="url(#g)"><path d="m11.976562 31.652344v-1.09375h13.117188v1.09375zm0 0" fill="#535d7f"/></g><g clip-path="url(#h)"><path d="m11.976562 34.929688v-1.089844h8.742188v1.089844zm0 0" fill="#535d7f"/></g></svg>