<svg height="48pt" viewBox="0 0 48 48" width="48pt" xmlns="http://www.w3.org/2000/svg"><path d="m11.210938 2.847656h25.578124c4.621094 0 8.363282 3.742188 8.363282 8.363282v25.578124c0 4.621094-3.742188 8.363282-8.363282 8.363282h-25.578124c-4.621094 0-8.363282-3.742188-8.363282-8.363282v-25.578124c0-4.621094 3.742188-8.363282 8.363282-8.363282zm0 0" fill="#c2352a" fill-rule="evenodd"/><path d="m12 8.25h24c .832031 0 1.5.667969 1.5 1.5v28.5c0 .832031-.667969 1.5-1.5 1.5h-24c-.832031 0-1.5-.667969-1.5-1.5v-28.5c0-.832031.667969-1.5 1.5-1.5zm0 0" fill="#ebebeb"/><path d="m24 35.25-6-7.5h3v-7.5h-3l6-7.5 6 7.5h-3v7.5h3zm0 0" fill="#3f3f3f" fill-rule="evenodd"/></svg>