<svg height="48pt" viewBox="0 0 48 48" width="48pt" xmlns="http://www.w3.org/2000/svg"><path d="m11.210938 2.847656h25.578124c4.621094 0 8.363282 3.742188 8.363282 8.363282v25.578124c0 4.621094-3.742188 8.363282-8.363282 8.363282h-25.578124c-4.621094 0-8.363282-3.742188-8.363282-8.363282v-25.578124c0-4.621094 3.742188-8.363282 8.363282-8.363282zm0 0" fill="#55648f" fill-rule="evenodd"/><path d="m10.839844 10.5c5.832031 6.644531 6.601562 13.5 6.296875 18-.269531 3.945312-2.699219 5.421875-3.164063 5.605469-.964844.390625-3.234375.96875-6.472656-1.105469 0 2.421875 2.082031 4.5 5.703125 4.5 3.625 0 6.589844-2.910156 7.191406-6.183594 2.089844-16.914062-1.886719-19.289062-1.886719-19.289062s-3.640624-1.527344-7.667968-1.527344zm11.660156 0c1.058594 4.488281 9 6.253906 9 8.386719 0 2.136719-6.085938 2.503906-6 5.960937.089844 4.78125 7.765625 11.105469 15 12.652344-3.175781-3.679688-11.207031-11.695312-8.558594-13.757812 9.53125-6.472657.792969-11.769532-9.441406-13.242188zm0 0" fill="#fff" fill-rule="evenodd"/></svg>