<svg height="48pt" viewBox="0 0 48 48" width="48pt" xmlns="http://www.w3.org/2000/svg"><path d="m11.210938 2.847656h25.578124c4.621094 0 8.363282 3.742188 8.363282 8.363282v25.578124c0 4.621094-3.742188 8.363282-8.363282 8.363282h-25.578124c-4.621094 0-8.363282-3.742188-8.363282-8.363282v-25.578124c0-4.621094 3.742188-8.363282 8.363282-8.363282zm0 0" fill="#672168" fill-rule="evenodd"/><path d="m24 9c-8.285156 0-15 6.714844-15 15s6.714844 15 15 15 15-6.714844 15-15-6.714844-15-15-15zm-5.042969 6c .15625.003906.308594.050781.445313.132812l13.125 7.996094c.292968.179688.472656.511719.472656.871094s-.179688.691406-.472656.871094l-13.125 7.996094c-.292969.175781-.648438.175781-.9375-.003907-.289063-.179687-.464844-.507812-.464844-.867187v-15.992188c0-.269531.101562-.527344.28125-.71875.179688-.1875.421875-.289062.675781-.285156zm0 0" fill="#fff"/></svg>