<svg height="48pt" viewBox="0 0 48 48" width="48pt" xmlns="http://www.w3.org/2000/svg" xmlns:xlink="http://www.w3.org/1999/xlink"><clipPath id="a"><path d="m0 0h48v48h-48z"/></clipPath><path d="m11.210938 2.847656h25.578124c4.621094 0 8.363282 3.742188 8.363282 8.363282v25.578124c0 4.621094-3.742188 8.363282-8.363282 8.363282h-25.578124c-4.621094 0-8.363282-3.742188-8.363282-8.363282v-25.578124c0-4.621094 3.742188-8.363282 8.363282-8.363282zm0 0" fill="#37a0f2" fill-rule="evenodd"/><path d="m16.289062 8.15625c-.449218.21875-.886718.453125-1.3125.707031h.171876l.085937.28125-.246094.230469 1.058594.027344.160156.382812-1.191406-.042968-.058594-.292969-.691406-.152344c-.242187.164063-.480469.332031-.710937.507813h.414062v.277343l-.183594.242188h-.867187v-.035157c-2.40625 1.96875-4.21875 4.5625-5.238281 7.496094l.089843.046875v1.402344l.703125 1.203125.574219.089844.074219-.414063-.675782-1.042969-.132812-1.019531h.394531l.167969 1.046875.980469 1.429688-.253907.460937.621094.953125 1.546875.382813v-.25l.613281.089843-.054687.4375.484375.089844.75.207032 1.054688 1.207031 1.355468.101562.128906 1.105469-.921874.648438-.042969.988281-.132813.601562 1.335938 1.679688.101562.574219s.484375.132812.546875.132812c.058594 0 1.085938.78125 1.085938.78125v3.035156l.367187.101563-.25 1.402343.617188.824219-.113282 1.386719.816407 1.4375 1.039062.90625c.019531.003906.039063.007812.054688.011719l1.007812.019531.101563-.339844-.773438-.652344.042969-.328124.140625-.394532.027344-.40625-.523438-.015625-.261718-.332031.433593-.417969.058594-.316406-.484375-.140625.027344-.292969.691406-.105469 1.050781-.503906.355469-.648437 1.101562-1.414063-.25-1.105468.335938-.589844 1.015625.03125.683594-.542969.21875-2.132813.757812-.964843.132813-.621094-.691406-.21875-.457032-.75-1.558594-.015625-1.234374-.472656-.054688-.882813-.414062-.722656-1.117188-.015625-.644531-1.015625-.574219-.277344-.03125.308594-1.042969.058594-.382812-.53125-1.085938-.222657-.898437 1.039063-1.40625-.238281-.105469-1.59375-1.027344-.175782.410157-.78125-.117188-.449218-1.351562.90625-.851563-.101563-.304687-.667969.1875-.6875.46875-.867187 1.078124-.546875h2.085938l-.003906.636719.75.347656-.058594-1.089844.539062-.542969 1.089844-.71875.078125-.503906 1.085938-1.136718 1.15625-.640626-.101563-.085937.78125-.738281.289063.078125.132812.164062.296875-.332031.070313-.03125-.324219-.046875-.332031-.109375v-.320312l.175781-.140626h.386719l.175781.078126.152344.308593.191406-.027343v-.027344l.050781.015625.542969-.082031.078125-.265626.308594.078126v.289062l-.285157.195312.042969.316407.980469.304687s0 .003906.003906.011719l.226563-.019531.011719-.425782-.777344-.355468-.046875-.203125.648437-.222657.027344-.621093-.675781-.410157-.042969-1.046874-.925781.457031h-.339844l.089844-.796875-1.257813-.296875-.523437.394531v1.203125l-.9375.300781-.375.785156-.410157.066407v-1.007813l-.882812-.121094-.4375-.285156-.179688-.652344 1.578126-.925781.769531-.234375.078125.519532.429687-.023438.035157-.257812.449218-.066407.007813-.089843-.195313-.082032-.042968-.277344.550781-.046874.335937-.347657.015625-.023437h.003907l.105468-.105469 1.160156-.148437.511719.441406-1.347656.714844 1.714844.40625.222656-.574219h.75l.261719-.5-.527344-.132813v-.632812l-1.660156-.738282-1.144532.132813-.648437.339844.042969.824219-.675782-.101563-.101562-.457031.644531-.589844-1.175781-.058594-.335938.101563-.148437.398437.441406.074219-.085937.441406-.75.042969-.117188.296875-1.085937.03125s-.03125-.621094-.074219-.621094.851562-.015625.851562-.015625l.644532-.632812-.351563-.175782-.46875.457032-.78125-.046875-.414062-.570313zm18.207032 2.4375-.53125.210938-.34375.371093.078125.4375.421875.058594.253906.636719.726562-.292969.117188.847656h-.21875l-.59375-.085937-.664062.109375-.636719.90625-.917969.144531-.132812.785156.386718.089844-.109375.507812-.910156-.183593-.832031.183593-.179688.460938.144532.976562.492187.230469.820313-.003906.550781-.050781.171875-.441406.863281-1.128907.574219.117188.558594-.507813.105468.398438 1.382813.933594-.171875.226562-.621094-.03125.238281.335938.382813.085937.449218-.1875-.011718-.542969.203125-.097656-.160157-.171875-.921874-.515625-.242188-.683594h.765625l.242187.242188.660157.570312.027343.691406.683594.726563.257813-.996094.472656-.261719.085937.816407.464844.507812h.214844c-.621094-1.535156-1.460938-2.96875-2.496094-4.253906l-1.113281-.011719-.074219-.25.660156-.339844c-.488281-.558593-1.015624-1.082031-1.574218-1.570312zm-20.542969.171875c.035156 0 0 .386719 0 .386719l-.871094.054687-.164062-.195312.617187-.179688s.386719-.066406.417969-.066406zm1.058594 1.878906.421875.101563-.144532.5625-.453124.144531-.285157-.589844zm1.148437 1.335938h.695313v.210937h.152343v.363282h-1.058593l-.394531-.109376.097656-.253906zm1.035156.15625.363282.332031-.363282.085938zm.800782.507812.269531.167969-.21875.179688-.210937-.179688zm-2.035156.054688h.585937l-.75 1.050781-.308594-.167969.066407-.441406zm.9375 0h .59375v.355469l-.261719.167968-.332031.0625zm.738281.386719h.046875l.671875.199218v.34375h-.5625l-.15625-.222656zm-.277344.320312v.34375l-.25.253906h-.5625l.085937-.386718.265626-.019532.054687-.132812zm17.484375 1.460938-1.984375.152343-.613281.332031h-.789063l-.386719-.039062-.957031.53125v1.003906l-1.957031 1.414063.164062.601562h.398438l-.105469.574219-.277343.105469-.015626 1.5 1.691407 1.929687h.734375l.042968-.117187h1.324219l.378907-.351563h.753906l.410156.410156 1.117188.117188-.148438 1.492188 1.242188 2.191406-.65625 1.253906.046874.589844.511719.511718v1.417969l.675781.910157v.621093c2.503907-3.011719 3.875-6.804687 3.875-10.722656-.003906-1.625-.242187-3.238281-.710937-4.796875h-.835937l-.859376-.640625-.90625.089844v.550781h-.285156l-.308594-.21875-1.566406-.402344v-1.011718zm0 0" fill="#a2f46a"/><g clip-path="url(#a)"><path d="m42.070312 33.398438c0 4.972656-4.027343 9-9 9-4.96875 0-9-4.027344-9-9 0-4.96875 4.03125-9 9-9 4.972657 0 9 4.03125 9 9zm0 0" fill="#ffc921"/></g><path d="m33.050781 37.898438-3.355469-4.5h2.25v-4.5h2.25v4.5h2.25zm0 0" fill="#2e2e2e"/></svg>