<svg height="48pt" viewBox="0 0 48 48" width="48pt" xmlns="http://www.w3.org/2000/svg" xmlns:xlink="http://www.w3.org/1999/xlink"><clipPath id="a"><path d="m18 18h16v11h-16zm0 0"/></clipPath><clipPath id="b"><path d="m45.960938 23.960938c0 12.132812-9.835938 21.957031-21.953126 21.957031-12.121093 0-21.957031-9.824219-21.957031-21.957031 0-12.132813 9.835938-21.957032 21.957031-21.957032 12.117188 0 21.953126 9.824219 21.953126 21.957032zm0 0"/></clipPath><clipPath id="c"><path d="m24 11h6v7h-6zm0 0"/></clipPath><clipPath id="d"><path d="m45.960938 23.960938c0 12.132812-9.835938 21.957031-21.953126 21.957031-12.121093 0-21.957031-9.824219-21.957031-21.957031 0-12.132813 9.835938-21.957032 21.957031-21.957032 12.117188 0 21.953126 9.824219 21.953126 21.957032zm0 0"/></clipPath><clipPath id="e"><path d="m13 29h5v10h-5zm0 0"/></clipPath><clipPath id="f"><path d="m45.960938 23.960938c0 12.132812-9.835938 21.957031-21.953126 21.957031-12.121093 0-21.957031-9.824219-21.957031-21.957031 0-12.132813 9.835938-21.957032 21.957031-21.957032 12.117188 0 21.953126 9.824219 21.953126 21.957032zm0 0"/></clipPath><clipPath id="g"><path d="m29 18h6v14h-6zm0 0"/></clipPath><clipPath id="h"><path d="m45.960938 23.960938c0 12.132812-9.835938 21.957031-21.953126 21.957031-12.121093 0-21.957031-9.824219-21.957031-21.957031 0-12.132813 9.835938-21.957032 21.957031-21.957032 12.117188 0 21.953126 9.824219 21.953126 21.957032zm0 0"/></clipPath><clipPath id="i"><path d="m20 24h13v4h-13zm0 0"/></clipPath><clipPath id="j"><path d="m45.960938 23.960938c0 12.132812-9.835938 21.957031-21.953126 21.957031-12.121093 0-21.957031-9.824219-21.957031-21.957031 0-12.132813 9.835938-21.957032 21.957031-21.957032 12.117188 0 21.953126 9.824219 21.953126 21.957032zm0 0"/></clipPath><clipPath id="k"><path d="m24 16h6v6h-6zm0 0"/></clipPath><clipPath id="l"><path d="m45.960938 23.960938c0 12.132812-9.835938 21.957031-21.953126 21.957031-12.121093 0-21.957031-9.824219-21.957031-21.957031 0-12.132813 9.835938-21.957032 21.957031-21.957032 12.117188 0 21.953126 9.824219 21.953126 21.957032zm0 0"/></clipPath><clipPath id="m"><path d="m28 14h3v5h-3zm0 0"/></clipPath><clipPath id="n"><path d="m45.960938 23.960938c0 12.132812-9.835938 21.957031-21.953126 21.957031-12.121093 0-21.957031-9.824219-21.957031-21.957031 0-12.132813 9.835938-21.957032 21.957031-21.957032 12.117188 0 21.953126 9.824219 21.953126 21.957032zm0 0"/></clipPath><clipPath id="o"><path d="m28 9h3v6h-3zm0 0"/></clipPath><clipPath id="p"><path d="m45.960938 23.960938c0 12.132812-9.835938 21.957031-21.953126 21.957031-12.121093 0-21.957031-9.824219-21.957031-21.957031 0-12.132813 9.835938-21.957032 21.957031-21.957032 12.117188 0 21.953126 9.824219 21.953126 21.957032zm0 0"/></clipPath><clipPath id="q"><path d="m16 29h5v4h-5zm0 0"/></clipPath><clipPath id="r"><path d="m45.960938 23.960938c0 12.132812-9.835938 21.957031-21.953126 21.957031-12.121093 0-21.957031-9.824219-21.957031-21.957031 0-12.132813 9.835938-21.957032 21.957031-21.957032 12.117188 0 21.953126 9.824219 21.953126 21.957032zm0 0"/></clipPath><clipPath id="s"><path d="m17 27h13v9h-13zm0 0"/></clipPath><clipPath id="t"><path d="m45.960938 23.960938c0 12.132812-9.835938 21.957031-21.953126 21.957031-12.121093 0-21.957031-9.824219-21.957031-21.957031 0-12.132813 9.835938-21.957032 21.957031-21.957032 12.117188 0 21.953126 9.824219 21.953126 21.957032zm0 0"/></clipPath><path d="m11.210938 2.847656h25.578124c4.621094 0 8.363282 3.742188 8.363282 8.363282v25.578124c0 4.621094-3.742188 8.363282-8.363282 8.363282h-25.578124c-4.621094 0-8.363282-3.742188-8.363282-8.363282v-25.578124c0-4.621094 3.742188-8.363282 8.363282-8.363282zm0 0" fill="#37a0f2" fill-rule="evenodd"/><g clip-path="url(#a)"><g clip-path="url(#b)"><path d="m31.578125 18.566406c-.617187.144532-1.191406.441406-1.699219.804688-.832031 1.136718-1.984375 2.054687-3.515625 2.417968-.582031-.425781-1.292969-.917968-1.777343-1.476562-2.21875.253906-5.269532.746094-5.796876 2.882812-.546874 2.21875.90625 5.113282 2.089844 5.28125 1.121094.160157 4.730469-.84375 6.476563-1.316406-1.460938-1.140625-3.144531-1.640625-4.0625-1.699218-1.082031-.085938-2.011719.109374-2.980469.359374 1.414062-.914062 2.699219-1.597656 3.964844-1.851562.949218-.179688 2.429687-.183594 4.203125.476562 2.199219.824219 2.722656 2 4.269531 2.53125 1.019531-.164062.503906-1.296874.289062-2.082031-.140624-.429687-.253906-.753906-.296874-.894531-.078126-.242188-1.183594-3.0625-1.34375-3.792969-.105469-.496093-.015626-1.140625.179687-1.644531" fill="#f5ff71"/></g></g><g clip-path="url(#c)"><g clip-path="url(#d)"><path d="m26.25 14.125c-1.539062.648438-1.59375 1.875-1.679688 3.207031.648438-.585937 2.675782-1.015625 3.222657-1.488281 1.617187-1.402344 2.246093-4.300781 1.90625-3.871094-1.101563 1.390625-2.882813 1.835938-3.449219 2.148438" fill="#f5ff71"/></g></g><g clip-path="url(#e)"><g clip-path="url(#f)"><path d="m17.769531 33.59375s-1.527343-1.015625-1.496093-1.339844c1.003906-5.441406-2.457032-1.570312-2.71875.867188-.277344 2.335937.585937 5.03125.710937 5.199218.207031-1.910156.386719-2.96875 3.503906-4.730468m0 .003906" fill="#f5ff71"/></g></g><g clip-path="url(#g)"><g clip-path="url(#h)"><path d="m34.488281 21.605469c-.078125-2.027344-1.351562-3.425781-2.214843-3.097657-.371094.140626-.613282 1.082032-.484376 1.667969.421876 2.082031 2.171876 4.488281 1.738282 6.546875-.324219.984375-3.195313 1.59375-3.195313 1.59375s-.054687.84375-.164062 1.417969c-.128907.695313-.394531 1.25-.394531 1.25s.683593.609375.707031.609375c.03125 0 4.296875-2.214844 4.003906-9.988281" fill="#f5ff71"/></g></g><g clip-path="url(#i)"><g clip-path="url(#j)"><path d="m32.589844 27.179688c-.710938-.285157-.957032-.410157-1.878906-1.09375-5.113282-3.820313-9.820313-.511719-9.726563-.546876.847656-.265624 1.804687-.511718 3.046875-.429687 1.003906.066406 2.335938.699219 3.984375 2.066406 1.109375.976563 2.785156 1.097657 4.570313.003907m.003906 0" fill="#f5ff71"/></g></g><g clip-path="url(#k)"><g clip-path="url(#l)"><path d="m27.789062 16.269531c-1.886718.605469-2.910156 1.128907-3.214843 1.371094-.628907 1.597656.636719 2.796875 1.789062 3.640625 1.511719-.359375 2.773438-1.480469 3.335938-2.714844-.292969.039063-.609375-.015625-.953125-.210937-.675782-.378907-1.085938-1.292969-.957032-2.085938" fill="#f5ff71"/></g></g><g clip-path="url(#m)"><g clip-path="url(#n)"><path d="m30.542969 15.964844c-.125-.484375-.519531-1.105469-.628907-1.105469-.097656 0-1.148437.78125-1.417968 1.050781-.617188.617188-.316406 1.738282.363281 2.121094 1.15625.648438 2.011719-.777344 1.683594-2.0625" fill="#f5ff71"/></g></g><g clip-path="url(#o)"><g clip-path="url(#p)"><path d="m29.644531 14.324219c.460938-.441407 1.078125-1.171875 1.238281-2.277344.09375-.992187-.152343-1.605469-.449218-2.367187-.144532 1.488281-.363282 3.136718-1.371094 4.890624-.320312.550782-.148438.453126.578125-.246093" fill="#f5ff71"/></g></g><g clip-path="url(#q)"><g clip-path="url(#r)"><path d="m16.675781 29.699219c.160157.402343.148438 1.164062-.089843 2.476562-.003907.007813 0 .015625 0 .027344.167968.234375.511718.519531.859374.777344 1.195313-.554688 2.691407-1.597657 2.597657-1.613281-.640625-.105469-2.613281-.589844-3.367188-1.667969" fill="#f5ff71"/></g></g><g clip-path="url(#s)"><g clip-path="url(#t)"><path d="m27.582031 27.367188c-.054687 0-.09375 0-.210937.027343-1.484375.414063-5.273438 1.382813-5.867188 2.03125-.230468.492188-.457031 2.457031-3.789062 3.703125-.09375.03125 2.796875 1.902344 2.953125 1.910156 9.433593.394532 9.421875-6.375 9.300781-6.683593-.917969.015625-1.695312-.304688-2.296875-.898438-.03125-.027343-.058594-.058593-.089844-.089843" fill="#f5ff71"/></g></g></svg>