<svg height="48pt" viewBox="0 0 48 48" width="48pt" xmlns="http://www.w3.org/2000/svg" xmlns:xlink="http://www.w3.org/1999/xlink"><clipPath id="a"><path d="m0 0h48v48h-48z"/></clipPath><path d="m11.210938 2.847656h25.578124c4.621094 0 8.363282 3.742188 8.363282 8.363282v25.578124c0 4.621094-3.742188 8.363282-8.363282 8.363282h-25.578124c-4.621094 0-8.363282-3.742188-8.363282-8.363282v-25.578124c0-4.621094 3.742188-8.363282 8.363282-8.363282zm0 0" fill="#4f4f4f" fill-rule="evenodd"/><g clip-path="url(#a)"><path d="m19.550781 35.621094c0-.621094.089844-1.148438.265625-1.578125.179688-.429688.429688-.777344.746094-1.042969s.691406-.457031 1.125-.578125c.429688-.117187.886719-.179687 1.378906-.179687.464844 0 .902344.0625 1.320313.179687.417969.121094.785156.3125 1.101562.578125.320313.265625.570313.613281.753907 1.042969.1875.429687.28125.957031.28125 1.578125 0 .597656-.09375 1.105468-.28125 1.53125-.183594.421875-.433594.773437-.753907 1.054687-.316406.273438-.683593.476563-1.101562.605469-.417969.125-.859375.1875-1.320313.1875-.492187 0-.949218-.0625-1.378906-.1875-.433594-.128906-.808594-.328125-1.125-.605469-.320312-.28125-.566406-.632812-.746094-1.054687-.175781-.421875-.265625-.933594-.265625-1.53125m.65625-6.792969v-1.46875c0-.675781.066407-1.289063.207031-1.839844.140626-.550781.351563-1.070312.636719-1.570312.285157-.496094.652344-.980469 1.101563-1.449219.449218-.46875.992187-.957031 1.628906-1.460938.558594-.433593 1.027344-.824218 1.410156-1.171874.382813-.34375.695313-.683594.933594-1.023438.238281-.335938.410156-.691406.515625-1.0625s.160156-.800781.160156-1.289062c0-.757813-.257812-1.378907-.765625-1.867188-.507812-.492188-1.289062-.738281-2.335937-.738281-.910157 0-1.894531.191406-2.949219.578125-1.050781.382812-2.140625.851562-3.265625 1.410156l-2.027344-4.390625c.570313-.332031 1.1875-.648437 1.859375-.945313.667969-.296874 1.363282-.5625 2.082032-.792968.722656-.230469 1.457031-.414063 2.199218-.546875.742188-.132813 1.46875-.199219 2.183594-.199219 1.351562 0 2.570312.164062 3.652344.488281 1.089844.324219 2.007812.796875 2.761718 1.417969.757813.625 1.335938 1.378906 1.738282 2.265625.40625.890625.609375 1.902344.609375 3.039063 0 .835937-.09375 1.582031-.277344 2.234374-.1875.65625-.460937 1.265626-.824219 1.828126-.367187.566406-.824218 1.109374-1.371094 1.628906-.550781.523437-1.191406 1.078125-1.917968 1.660156-.558594.4375-1.011719.820312-1.363282 1.144531-.351562.324219-.625.632813-.824218.921875-.195313.292969-.332032.59375-.40625.90625-.070313.308594-.109375.675782-.109375 1.097656v1.195313zm0 0" fill="#b7b7b7"/></g></svg>