<svg height="48pt" viewBox="0 0 48 48" width="48pt" xmlns="http://www.w3.org/2000/svg"><path d="m11.210938 2.847656h25.578124c4.621094 0 8.363282 3.742188 8.363282 8.363282v25.578124c0 4.621094-3.742188 8.363282-8.363282 8.363282h-25.578124c-4.621094 0-8.363282-3.742188-8.363282-8.363282v-25.578124c0-4.621094 3.742188-8.363282 8.363282-8.363282zm0 0" fill="#4ea71e" fill-rule="evenodd"/><path d="m24 11.453125c-3.777344 0-6.84375 3.066406-6.84375 6.84375 0 3.78125 3.066406 6.84375 6.84375 6.84375s6.84375-3.0625 6.84375-6.84375c0-3.777344-3.066406-6.84375-6.84375-6.84375zm0 1.140625c1.890625 0 3.421875 1.535156 3.421875 3.421875 0 1.890625-1.53125 3.421875-3.421875 3.421875s-3.421875-1.53125-3.421875-3.421875c0-1.886719 1.53125-3.421875 3.421875-3.421875zm0 0" fill="#fff"/><path d="m20.578125 22.859375v11.328125l3.421875 2.359375 3.421875-2.359375v-.988281l1.140625-1.140625-1.140625-1.140625v-1.214844l2.28125-1.710937-2.28125-1.710938v-3.421875zm1.140625 3.421875h1.140625v6.84375h-1.140625zm0 0" fill="#fff"/></svg>