<svg height="48pt" viewBox="0 0 48 48" width="48pt" xmlns="http://www.w3.org/2000/svg" xmlns:xlink="http://www.w3.org/1999/xlink"><clipPath id="a"><path d="m0 0h48v48h-48z"/></clipPath><clipPath id="b"><path d="m0 0h48v48h-48z"/></clipPath><g fill-rule="evenodd"><path d="m11.210938 2.847656h25.578124c4.621094 0 8.363282 3.742188 8.363282 8.363282v25.578124c0 4.621094-3.742188 8.363282-8.363282 8.363282h-25.578124c-4.621094 0-8.363282-3.742188-8.363282-8.363282v-25.578124c0-4.621094 3.742188-8.363282 8.363282-8.363282zm0 0" fill="#e9e5dc"/><path d="m41.238281 43.695312-16.609375-16.605468-17.085937 17.132812c1.117187.554688 2.332031.929688 3.664062.929688h25.585938c1.675781 0 3.140625-.613282 4.445312-1.457032zm0 0" fill="#2095f2"/><path d="m44.582031 39.617188-16.246093-16.246094-3.707032 3.71875 16.609375 16.605468c1.519531-.980468 2.71875-2.34375 3.34375-4.078124zm0 0" fill="#ffe500"/><path d="m44.179688 7.480469-15.84375 15.890625 16.246093 16.246094c.324219-.890626.570313-1.820313.570313-2.824219v-25.585938c0-1.359375-.398438-2.59375-.972656-3.726562zm0 0" fill="#00a31c"/><path d="m40.542969 3.835938-36.722657 36.6875c.8125 1.609374 2.101563 2.902343 3.722657 3.699218l36.636719-36.742187c-.796876-1.582031-2.058594-2.84375-3.636719-3.644531zm0 0" fill="#fff"/><path d="m11.207031 2.847656c-4.632812 0-8.359375 3.726563-8.359375 8.359375v25.585938c0 1.363281.398438 2.59375.972656 3.730469l36.722657-36.6875c-1.140625-.582032-2.378907-.988282-3.75-.988282zm0 0" fill="#e9e5dc"/></g><g clip-path="url(#a)"><path d="m14.464844 7.132812c-3.816406 0-6.914063 3.039063-6.914063 6.789063 0 .234375.019531.449219.042969.679687.019531.226563.050781.457032.085938.679688.792968 4.769531 4.019531 8.152344 6.785156 10.867188 2.765625-2.714844 5.996094-6.097657 6.785156-10.867188.039062-.222656.070312-.453125.089844-.679688.023437-.230468.042968-.445312.042968-.679687 0-3.75-3.097656-6.789063-6.917968-6.789063zm0 0" fill="#f34235"/></g><g clip-path="url(#b)"><path d="m14.464844 10.589844c1.433594 0 2.59375 1.160156 2.59375 2.59375 0 1.429687-1.160156 2.59375-2.59375 2.59375-1.429688 0-2.59375-1.164063-2.59375-2.59375 0-1.433594 1.164062-2.59375 2.59375-2.59375zm0 0" fill="#fff"/></g></svg>