<svg height="48pt" viewBox="0 0 48 48" width="48pt" xmlns="http://www.w3.org/2000/svg" xmlns:xlink="http://www.w3.org/1999/xlink"><symbol id="a" overflow="visible"><path d="m4.40625-1.90625h7.921875v1.90625h-10.640625v-1.90625c.851562-.894531 2.023438-2.09375 3.515625-3.59375 1.488281-1.5 2.421875-2.46875 2.796875-2.90625.726562-.8125 1.238281-1.5 1.53125-2.0625.289062-.570312.4375-1.128906.4375-1.671875 0-.894531-.3125-1.617187-.9375-2.171875-.625-.5625-1.445312-.84375-2.453125-.84375-.710937 0-1.460937.125-2.25.375-.792969.242188-1.636719.609375-2.53125 1.109375v-2.28125c.914063-.375 1.769531-.65625 2.5625-.84375.789063-.1875 1.515625-.28125 2.171875-.28125 1.738281 0 3.125.4375 4.15625 1.3125 1.03125.867187 1.546875 2.027344 1.546875 3.484375 0 .6875-.132813 1.339844-.390625 1.953125-.25.617187-.71875 1.34375-1.40625 2.1875-.1875.21875-.78125.851563-1.78125 1.890625-1 1.03125-2.417969 2.480469-4.25 4.34375zm0 0"/></symbol><symbol id="b" overflow="visible"><path d="m9.328125-9.046875c1.09375.242187 1.941406.730469 2.546875 1.46875.613281.730469.921875 1.632813.921875 2.703125 0 1.65625-.574219 2.9375-1.71875 3.84375-1.136719.90625-2.75 1.359375-4.84375 1.359375-.710937 0-1.4375-.074219-2.1875-.21875-.742187-.1328125-1.507813-.335937-2.296875-.609375v-2.203125c.632812.375 1.320312.65625 2.0625.84375.75.1875 1.535156.28125 2.359375.28125 1.414063 0 2.492187-.28125 3.234375-.84375.75-.5625 1.125-1.378906 1.125-2.453125 0-.988281-.351562-1.757812-1.046875-2.3125-.6875-.5625-1.648437-.84375-2.875-.84375h-1.953125v-1.859375h2.03125c1.113281 0 1.96875-.222656 2.5625-.671875.59375-.445312.890625-1.085938.890625-1.921875 0-.863281-.308594-1.523437-.921875-1.984375-.605469-.457031-1.476562-.6875-2.609375-.6875-.625 0-1.296875.070312-2.015625.203125-.710938.136719-1.492188.34375-2.34375.625v-2.03125c.863281-.238281 1.671875-.414063 2.421875-.53125.757813-.125 1.472656-.1875 2.140625-.1875 1.71875 0 3.078125.398437 4.078125 1.1875 1.007813.78125 1.515625 1.839844 1.515625 3.171875 0 .929688-.273438 1.714844-.8125 2.359375-.53125.636719-1.289062 1.074219-2.265625 1.3125zm0 0"/></symbol><path d="m11.210938 2.847656h25.578124c4.621094 0 8.363282 3.742188 8.363282 8.363282v25.578124c0 4.621094-3.742188 8.363282-8.363282 8.363282h-25.578124c-4.621094 0-8.363282-3.742188-8.363282-8.363282v-25.578124c0-4.621094 3.742188-8.363282 8.363282-8.363282zm0 0" fill="#00b82a" fill-rule="evenodd"/><g fill="#fff"><use x="9.167969" xlink:href="#a" y="32.526855"/><use x="24.072754" xlink:href="#b" y="32.526855"/></g></svg>