<svg height="48pt" viewBox="0 0 48 48" width="48pt" xmlns="http://www.w3.org/2000/svg"><path d="m11.210938 2.847656h25.578124c4.621094 0 8.363282 3.742188 8.363282 8.363282v25.578124c0 4.621094-3.742188 8.363282-8.363282 8.363282h-25.578124c-4.621094 0-8.363282-3.742188-8.363282-8.363282v-25.578124c0-4.621094 3.742188-8.363282 8.363282-8.363282zm0 0" fill="#fecd38" fill-rule="evenodd"/><path d="m24.035156 6.914062c-.285156-.007812-.566406.070313-.816406.214844l-13.082031 7.742188c-.484375.285156-.78125.816406-.78125 1.386718v15.484376c0 .574218.296875 1.101562.78125 1.386718l13.082031 7.742188c.484375.285156 1.078125.285156 1.5625 0l13.082031-7.742188c.480469-.285156.78125-.8125.78125-1.386718v-15.484376c0-.570312-.296875-1.101562-.78125-1.386718l-13.082031-7.742188c-.226562-.132812-.480469-.207031-.742188-.214844zm0 0" fill="#fff"/><path d="m18.449219 34.710938c-.054688-.054688-.097657-.253907-.097657-.441407 0-.421875-.230468-.449219-.445312-.050781-.25.46875-.457031.339844-.410156-.257812.035156-.429688-.003906-.539063-.175782-.496094-.988281.253906-.992187.246094-.332031-.46875.703125-.769532.832031-1.230469.292969-1.0625-.183594.058594-.710938.140625-1.179688.183594-1.433593.132812-2.910156-.800782-2.910156-1.835938 0-.4375.761719-1.046875 1.859375-1.492188.558594-.222656 1.03125-.5 1.050781-.613281.023438-.117187-.195312-.359375-.480468-.542969-.660156-.425781-1.027344-1.015624-1.417969-2.28125-.445313-1.453124-.347656-3.964843.222656-5.621093 1.980469-5.738281 7.734375-8.121094 13.164063-5.445313 3.472656 1.710938 5.984375 4.421875 6.53125 7.050782.148437.710937.132812.863281-.128906 1.382812-.347657.679688-1.125 1.496094-1.425782 1.496094-.113281 0-.390625-.214844-.613281-.476563-.578125-.6875-3.203125-3.277343-4.292969-4.242187l-.933594-.824219.105469-.828125c.097657-.789062.085938-.832031-.28125-1-.554687-.253906-1.328125-.003906-1.394531.445312-.035156.257813.152344.550782.730469 1.136719l.78125.789063-.878907.003906c-1.59375.003906-1.902343.253906-1.117187.914062.582031.488282.785156.917969.734375 1.554688l-.046875.542969.699219-.035157c.535156-.027343.695312.015626.695312.183594 0 .121094-.066406.21875-.148437.21875-.246094 0-.164063.417969.113281.578125.199219.121094.214844.179688.066406.277344-.105468.070313-.144531.234375-.09375.371094.140625.371093-.152344.304687-1.292968-.292969-.941407-.496094-1.058594-.609375-1.390626-1.355469-.585937-1.324219-1.085937-1.675781-1.085937-.769531 0 .226562-.140625.933594-.3125 1.574219-.542969 2.035156-.605469 1.824219.550781 1.824219 1.164063.003906 2.003906.199218 2.28125.53125.203125.242187.226563.914062.0625 1.777343-.09375.503907-.082031.519531.277344.429688.351562-.089844.371094-.066407.289062.347656-.085937.429687-.070312.445313.445313.445313.292969 0 .53125.066406.53125.148437 0 .078125-.050781.144531-.117187.144531-.066407 0-.246094.09375-.402344.207032-.28125.203124-.28125.214843-.007813.515624.320313.351563.28125.363282-.871093.3125-.871094-.039062-1.054688-.160156-1.183594-.789062-.152344-.726562-.492188-1.183594-.730469-.984375-.457031.378906.425781 1.933594 1.523437 2.6875 1.550782 1.0625 3.316407 1.3125 4.945313.695313 1.105469-.417969 2.710937-1.972657 3.597656-3.480469.988281-1.683594 1.203125-1.65625.84375.113281-.59375 2.941406-2.621093 5.152344-5.59375 6.109375-.953125.308594-1.484375.386719-2.664062.386719-2.464844.003906-3.871094-.6875-6.152344-3.011719-1.433594-1.464844-1.859375-1.578125-1.125-.296875l.46875.820312-.472656 1.449219c-.261719.792969-.496094 1.445313-.515625 1.445313-.023438 0-.085938-.042969-.140625-.097656zm.652343-7.9375c-1.277343-2.550782-1.5625-3.578126-1.5625-5.644532 0-1.554687.035157-1.753906.394532-2.441406 1.097656-2.074219 3.445312-3.289062 6.375-3.292969 1.375-.003906 2.925781.238281 3.550781.550781.765625.382813 1.859375 1.382813 2.972656 2.722657 1.308594 1.566406 1.414063 1.867187.457031 1.285156-.265624-.164063-.625-.296875-.800781-.296875-.566406 0-.777343-.164062-.875-.683594-.070312-.371094-.273437-.644531-.769531-1.019531-1.117188-.851563-1.539062-.46875-.769531.691406.652343.980469 4.234375 4.425781 4.542969 4.367188.449218-.082031.792968-.984375.722656-1.886719-.125-1.527344-1.203125-3.113281-2.886719-4.25-1.539063-1.039062-4.453125-2.363281-5.769531-2.625-4.183594-.820312-8.273438 1.78125-8.871094 5.65625-.359375 2.320312.925781 5.386719 3.332031 7.953125.398438.425781.75.75.78125.71875.027344-.03125-.339843-.839844-.824219-1.804687zm0 0" fill="#3f3f3f"/></svg>