<svg height="48pt" viewBox="0 0 48 48" width="48pt" xmlns="http://www.w3.org/2000/svg"><path d="m11.210938 2.847656h25.578124c4.621094 0 8.363282 3.742188 8.363282 8.363282v25.578124c0 4.621094-3.742188 8.363282-8.363282 8.363282h-25.578124c-4.621094 0-8.363282-3.742188-8.363282-8.363282v-25.578124c0-4.621094 3.742188-8.363282 8.363282-8.363282zm0 0" fill="#2c80c2" fill-rule="evenodd"/><path d="m39.753906 24c0 8.703125-7.050781 15.753906-15.753906 15.753906s-15.753906-7.050781-15.753906-15.753906 7.050781-15.753906 15.753906-15.753906 15.753906 7.050781 15.753906 15.753906zm0 0" fill="#37a0f2"/><path d="m22.511719 8.328125c-1.988281.1875-3.921875.746094-5.703125 1.65625.082031.25-.011719.535156-.300782.785156-.199218.171875-.359374.4375-.359374.589844 0 .472656.429687 1.199219.769531 1.304687.453125.140626.300781.621094-.28125.890626-.269531.125-.601563.480468-.738281.789062-.136719.3125-.335938.621094-.445313.683594-.105469.066406-.195313.308594-.195313.542968 0 .328126.148438.484376.640626.679688.351562.140625.769531.246094.933593.230469.9375-.089844 1.003907.457031.183594 1.523437-.433594.570313-.644531.710938-.941406.640625-.277344-.066406-.425781.011719-.554688.285157-.132812.289062-.347656.390624-.933593.429687-.574219.039063-.832032.15625-1.046876.472656-.15625.226563-.382812.414063-.503906.414063s-.402344.152344-.628906.339844c-.460938.382812-.640625.421874-.804688.171874-.210937-.332031-.671874-.164062-1.355468.492188-.605469.582031-.679688.734375-.589844 1.238281.164062.894531.648438 1.691407 1.203125 1.96875.484375.242188.496094.269531.199219.578125-.167969.179688-.457032.371094-.640625.425782-.535157.164062-.234375.367187.71875.488281.972656.121093 1.277343.476562.820312.957031-.253906.269531-.238281.320312.167969.574219.796875.5 1.429688.195312.683594-.328125-.480469-.335938-.144532-.472656.558594-.230469.5625.195313.671874.183594 1.003906-.105469.679687-.589844 1.421875.285156.800781.941406-.398437.421876-.277344.925782.234375.996094.226562.03125.699219.242188 1.046875.46875.351563.230469.734375.414063.847656.414063.117188 0 .441407.230469.722657.515625.570312.570312.886718.640625 1.050781.238281.191406-.484375.113281-.730469-.40625-1.300781-.417969-.453125-1.089844-1.660156-1.089844-1.949219 0-.179687.683594-.027344 1.070313.234375.238281.164062.628906.378906.863281.472656.25.105469.511719.421875.628906.769532.1875.546874.257813.59375.914063.59375h.710937l.109375 1.28125c.128906 1.539062.253906 1.851562.78125 1.980468.390625.089844.804688.695313.804688 1.164063 0 .128906-.28125.433593-.621094.683593-.425782.308594-.605469.574219-.578125.832032.035156.320312-.039063.371094-.496094.335937-.292969-.019531-.800781.082031-1.128906.230469-.390625.175781-.808594.230469-1.203125.160156-.457032-.082031-.609375-.050781-.609375.128906 0 .128907-.160157.375-.351563.542969-.480468.414063-.28125.632813.453125.503907.457031-.085938.636719-.046876.714844.148437.167969.417969-.257813 1.019531-.652344.917969-.25-.0625-.371093.023437-.449219.320312-.027343.105469-.074218.191406-.136718.269532.8125.3125 1.644531.558593 2.496094.734374-.082032-.148437-.167969-.285156-.257813-.347656-.40625-.289062-.132813-1.03125.425781-1.167968.570313-.136719.480469-.503907-.140625-.574219-.542969-.0625-1.121093-.613281-.9375-.894531.121094-.1875.640625-.160157 1.691407.089843.472656.109375.796874-.113281 1.894531-1.316406.636719-.695313 1.125-.988281 1.664062-.988281.203125 0 .933594-.1875 1.621094-.417969 1.300781-.433594 1.808594-.417969 1.761719.058594-.101563.984375.535156.953125 1.570312-.082031.433594-.429688.828125-.742188.878906-.695313.199219.191406-.160156 1.117187-.574218 1.488281-.527344.476563-.554688.773438-.089844 1.011719.253906.128906.363281.394531.402344.988281l.054687.808594h.65625c.230469 0 .421875.03125.578125.089844 4.585938-2.753906 7.460938-7.652344 7.632813-13-.242188-.515625-.222657-.828125 0-1.179688-.015625-.292968-.039063-.589844-.070313-.882812-.144531-.007813-.289062-.011719-.457031-.003906-.796875.03125-1.476563-.28125-1.476563-.679688 0-.085938-.28125-.429688-.625-.769531-.390624-.386719-.589843-.726563-.53125-.902344.050782-.160156-.0625-.421875-.265624-.597656-.199219-.171875-.359376-.445313-.359376-.609375 0-.265625-.167968-.300782-1.382812-.269532l-1.382812.035157.023437 1.359375c.042969 2.386718.398437 3.003906 1.492187 2.605468.503907-.183593 1.734376-.042968 2.085938.234376.125.101562.308594.464843.40625.8125.097656.347656.460938.945312.804688 1.332031.699218.78125.753906 1.085937.351562 2-.347656.800781-.722656.710937-.648438-.160157l.054688-.644531-.59375.109375c-.324219.0625-.734375.304688-.917969.542969-.261719.339844-.382812.390625-.582031.234375-.136719-.109375-.246094-.339844-.246094-.507812 0-.171876-.167968-.359376-.375-.421876-.203125-.0625-.484375-.371093-.625-.6875-.21875-.507812-.214844-.664062.042969-1.28125.261719-.625.265625-.726562.023437-.957031-.222656-.210937-.335937-.21875-.625-.046875-.292968.175782-.429687.164063-.773437-.070312-.234375-.152344-.636719-.28125-.898437-.28125-.53125 0-.691407-.257813-.691407-1.113282 0-.792968-.472656-1.078124-1.59375-.976562-.777343.074219-.949219.023438-1.578125-.460938-.386718-.300781-1-1.019531-1.363281-1.597656-.363281-.582031-.753906-1.191406-.867187-1.351562-.164063-.230469-.125-.453125.199218-1.085938l.402344-.796875-.855469.117188c-1.523437.203125-1.828125.402343-1.175781.753906.253906.132813.265625.203125.070312.433594-.128906.148437-.191406.382812-.132812.523437.054688.136719-.015625.464844-.160156.726563-.140625.261719-.257813.625-.265625.816406-.011719.585937-1.019531 1.050781-2.140625.992187-1.695313-.09375-1.832032-.066406-2.433594.492188-.753906.699219-.851562 1.023438-.5 1.671875.339844.628906.941406.882813 1.984375.828125.9375-.042969 1.042969.039062.828125.65625-.183594.523438-.792969.726562-1.203125.398438-.320313-.253907-1.417969-.058594-1.753906.3125-.140625.15625-.351563.5625-.464844.902343-.195313.585938-.253906.621094-1.136719.707031-.882812.085938-.964844.058594-1.597656-.523437-.707031-.652344-.828125-1.148437-.488281-2.007813.152343-.378906.265625-.441406.667969-.367187.796874.144531 1.113281-.132813 1.113281-.984375 0-.414062-.082031-.800781-.179688-.859375-.097656-.058594-.179687-.277344-.179687-.488281 0-.210938-.097656-.480469-.222656-.601563-.175782-.171875-.152344-.265625.132812-.464843.195312-.140626.519531-.234376.714844-.207032.195312.023438.738281-.0625 1.207031-.191406.675781-.179688.871094-.320312.964844-.671875.171875-.675781.59375-1.21875.949219-1.21875.5625 0 .574218-1.316406.027343-3.230469-.078125-.285156-.300781-.464844-.691406-.5625-.316406-.078125-.660156-.292968-.765625-.476562-.101562-.1875-.292969-.339844-.421875-.339844s-.378906-.152344-.558594-.339844c-.175781-.191406-.546875-.34375-.828125-.34375-.664062 0-.675781-.457031-.015625-.699218.695313-.253907 1.78125.078124 2.042969.632812.355469.746094.75.433594.878906-.695312.15625-1.398438.636719-1.796876 2.15625-1.796876h1.09375l-.476562-.480468c-.152344-.148438-.273438-.332032-.359375-.511719zm5.664062.496094c-.03125.027343-.0625.050781-.089843.082031-.367188.371094-.539063.425781-1.101563.339844-.988281-.148438-.859375.246094.230469.726562.589844.257813.96875.554688 1.097656.855469.625 1.441406 1.050781 2.21875 1.265625 2.296875.4375.160156.695313-.160156.792969-.980469.109375-.941406.429687-1.140625 1-.628906.222656.203125.535156.363281.691406.363281.488281 0 .851562.199219.851562.464844 0 .136719.164063.476562.367188.746094.296875.402344.5.5 1.058594.5.683594 0 1.101562.125 1.960937.601562.011719.003906.027344.007813.039063.015625-2.082032-2.613281-4.941406-4.5-8.164063-5.382812zm-19.925781 15.105469c-.003906.023437-.003906.046874-.003906.070312.003906 1.015625.105468 2.027344.308594 3.027344.570312.230468.726562.140625.785156-.390625.03125-.277344.175781-.589844.320312-.695313.226563-.167968.183594-.25-.277344-.566406-.296874-.203125-.59375-.558594-.652343-.792969-.058594-.222656-.257813-.464843-.480469-.652343zm4.957031 5.210937c-.148437-.015625-.324219.0625-.519531.25-.417969.402344-.355469 1.203125.117188 1.519531.539062.363282.75.257813.816406-.414062.085937-.824219-.089844-1.320313-.414063-1.355469zm2.675781 2.382813c-.164062.003906-.339843.117187-.515624.359374-.1875.257813-.242188.589844-.167969 1.09375.085937.621094.050781.75-.273438.917969-.417969.210938-.507812.847657-.167969 1.171875.339844.324219.664063.238282.78125-.203125.164063-.632812 1.089844-.710937 1.726563-.140625.269531.242188.488281.367188.488281.273438s-.28125-.429688-.625-.75c-.523437-.488282-.621094-.695313-.621094-1.324219 0-.886719-.273437-1.410156-.625-1.398437zm-4.390624 2.03125c.117187.15625.238281.308593.363281.460937-.109375-.164063-.230469-.324219-.363281-.460937zm5.308593 2.417968c-.082031.027344-.113281.128906-.113281.304688 0 .179687-.113281.363281-.253906.414062-.183594.070313-.226563.28125-.15625.792969.015625.09375.019531.171875.023437.25.214844.117187.433594.230469.65625.335937-.011719-.269531.039063-.59375.179688-.996093.242187-.679688.25-.851563.054687-.972657-.183594-.109374-.3125-.15625-.390625-.128906zm0 0" fill="#2c80c2"/><path d="m37.230469 41.6875h-11.9375v-5.972656h11.9375zm0 0" fill="#b7b7b7"/><path d="m38.78125 36.3125h-15.042969c-.460937 0-.835937-.378906-.835937-.84375v-8.457031c0-.46875.375-.847657.835937-.847657h15.042969c.464844 0 .835938.378907.835938.847657v8.457031c0 .464844-.371094.84375-.835938.84375zm0 0" fill="#999"/><g fill="#808080"><path d="m36.039062 33.925781h-9.554687v-1.195312h9.554687zm0 0"/><path d="m34.84375 31.539062h-7.164062v-1.195312h7.164062zm0 0"/><path d="m33.648438 29.148438h-4.773438v-1.191407h4.773438zm0 0"/><path d="m36.039062 40.492188h-2.988281v-1.789063h2.988281zm0 0"/><path d="m29.472656 40.492188h-2.988281v-1.789063h2.988281zm0 0"/></g></svg>