<svg height="48pt" viewBox="0 0 48 48" width="48pt" xmlns="http://www.w3.org/2000/svg"><g fill-rule="evenodd"><g fill="#e74c3c"><path d="m2.847656 31.996094 14.84375-5.65625c-.078125-.203125-.144531-.410156-.203125-.621094-.058593-.214844-.105469-.425781-.140625-.644531-.039062-.214844-.0625-.433594-.078125-.652344-.007812-.140625-.011719-.28125-.015625-.421875.003906-.21875.015625-.4375.039063-.65625.023437-.21875.054687-.433594.101562-.652344.042969-.210937.097657-.425781.164063-.632812.042968-.136719.089844-.269532.140625-.398438l-14.851563-5.660156zm0 0"/><path d="m31.886719 45.152344-5.714844-15.011719c-.203125.078125-.414063.148437-.625.203125-.210937.058594-.425781.105469-.640625.140625-.21875.039063-.433594.0625-.65625.078125-.136719.007812-.277344.015625-.417969.015625-.21875 0-.4375-.011719-.65625-.035156-.21875-.023438-.433593-.058594-.648437-.101563-.214844-.046875-.425782-.101562-.636719-.164062-.132813-.042969-.265625-.089844-.394531-.140625l-5.71875 15.015625zm0 0"/><path d="m45.152344 15.875-15.179688 5.785156c.078125.203125.148438.410156.207032.621094.054687.214844.101562.429688.136718.644531.035156.21875.0625.433594.078125.652344.007813.140625.011719.28125.011719.421875 0 .21875-.011719.4375-.035156.65625-.019532.21875-.054688.433594-.097656.648438-.046876.214843-.101563.429687-.167969.636718-.039063.132813-.085938.265625-.132813.394532l15.179688 5.789062zm0 0"/></g><path d="m15.777344 2.847656h-4.570313c-4.632812 0-8.359375 3.730469-8.359375 8.363282v4.789062l14.851563 5.660156c-.050781.128906-.097657.261719-.140625.398438-.066406.207031-.121094.421875-.164063.632812-.046875.21875-.078125.433594-.101562.652344-.023438.21875-.035157.4375-.039063.65625.003906.140625.007813.28125.015625.421875.015625.21875.039063.4375.078125.652344.035156.21875.082032.429687.140625.644531.058594.210938.125.417969.203125.621094l-14.84375 5.65625v4.792968c0 4.636719 3.726563 8.363282 8.363282 8.363282h4.566406l5.71875-15.015625c.128906.050781.261718.097656.394531.140625.210937.0625.421875.117187.636719.164062.214844.042969.429687.078125.648437.101563.21875.023437.4375.035156.65625.035156.140625 0 .28125-.007813.421875-.015625.21875-.015625.433594-.039062.652344-.078125.214844-.035156.429688-.082031.640625-.140625.210937-.054688.421875-.125.628906-.203125l5.710938 15.011719h4.90625c4.632812 0 8.359375-3.726563 8.359375-8.363282v-4.664062l-15.179688-5.789062c.046875-.128907.09375-.261719.132813-.394532.066406-.207031.121093-.421875.167969-.636718.042968-.214844.078124-.429688.097656-.648438.023437-.21875.035156-.4375.035156-.65625 0-.140625-.003906-.28125-.015625-.421875-.011719-.21875-.039063-.433594-.074219-.652344-.035156-.214843-.082031-.429687-.136718-.644531-.058594-.210938-.128907-.417969-.207032-.621094l15.179688-5.785156v-4.664062c0-4.632813-3.726563-8.363282-8.363282-8.363282h-4.902343l-5.714844 15.015625c-.132813-.050781-.261719-.097656-.398437-.136719-.207032-.066406-.421876-.121093-.636719-.164062-.214844-.046875-.429688-.078125-.648438-.101562-.21875-.023438-.4375-.035157-.65625-.035157-.140625 0-.277343.003907-.417969.015625-.21875.011719-.4375.035156-.652343.074219-.21875.035156-.429688.082031-.644531.140625-.210938.054688-.417969.125-.621094.203125zm0 0" fill="#d2d2d2"/><path d="m15.777344 2.847656 5.71875 15.011719c.203125-.078125.410156-.148437.621094-.207031.214843-.054688.425781-.101563.644531-.140625.214843-.035157.433593-.058594.652343-.070313.140626-.011718.277344-.015625.417969-.015625.21875 0 .4375.011719.65625.035157.21875.023437.433594.054687.648438.097656.214843.046875.429687.101562.636719.164062.136718.042969.265624.089844.398437.140625l5.714844-15.015625zm0 0" fill="#e74c3c"/></g></svg>