<svg height="48pt" viewBox="0 0 48 48" width="48pt" xmlns="http://www.w3.org/2000/svg"><path d="m11.210938 2.847656h25.578124c4.621094 0 8.363282 3.742188 8.363282 8.363282v25.578124c0 4.621094-3.742188 8.363282-8.363282 8.363282h-25.578124c-4.621094 0-8.363282-3.742188-8.363282-8.363282v-25.578124c0-4.621094 3.742188-8.363282 8.363282-8.363282zm0 0" fill="#f29237" fill-rule="evenodd"/><path d="m22.574219 8.953125c-1.925781.179687-3.796875.722656-5.515625 1.601563.078125.242187-.011719.519531-.292969.761718-.191406.164063-.34375.417969-.34375.570313 0 .457031.410156 1.15625.742187 1.257812.4375.136719.289063.605469-.273437.863281-.261719.121094-.582031.464844-.710937.765626-.132813.300781-.328126.597656-.429688.660156-.105469.0625-.191406.296875-.191406.523437 0 .316407.144531.46875.617187.660157.339844.132812.746094.234374.90625.21875.90625-.085938.96875.441406.175781 1.476562-.421874.546875-.625.6875-.910156.617188-.265625-.066407-.414062.011718-.535156.277343-.128906.28125-.339844.375-.902344.414063-.554687.039062-.804687.152344-1.011718.457031-.152344.21875-.371094.398437-.488282.398437-.117187 0-.390625.148438-.609375.332032-.445312.371094-.621093.40625-.777343.164062-.207032-.320312-.652344-.15625-1.3125.476563-.585938.5625-.65625.710937-.570313 1.199219.160156.863281.628906 1.632812 1.164063 1.902343.46875.234375.476562.257813.195312.558594-.164062.171875-.445312.359375-.621094.410156-.515625.160157-.226562.355469.691406.472657.945313.117187 1.234376.460937.796876.925781-.246094.261719-.230469.308593.160156.554687.769531.484375 1.382812.1875.660156-.316406-.464844-.324219-.140625-.457031.542969-.222656.542969.1875.648437.179687.96875-.101563.660156-.570312 1.375.273438.773437.910157-.382812.40625-.265625.898437.230469.964843.21875.027344.675781.234375 1.011719.453125.339844.21875.707031.398438.820312.398438.109375 0 .421875.226562.695313.496094.554687.554687.859375.625 1.015625.234374.1875-.46875.113281-.707031-.390625-1.261718-.402344-.4375-1.054688-1.601563-1.054688-1.882813 0-.171875.664063-.023437 1.035157.230469.230468.15625.609374.363281.835937.457031.242187.097657.492187.40625.609375.742188.179688.527343.25.574219.882812.574219h.6875l.105469 1.238281c.125 1.488281.246094 1.789062.753907 1.914062.378906.089844.78125.671875.78125 1.128907 0 .121093-.273438.417968-.601563.65625-.410156.300781-.585937.554687-.558594.804687.03125.3125-.039062.359375-.480469.328125-.285156-.019531-.777343.078125-1.09375.222656-.375.167969-.78125.222656-1.164062.152344-.4375-.078125-.585938-.046875-.585938.125 0 .125-.15625.363281-.34375.523438-.460937.402343-.269531.617187.441407.488281.441406-.078125.613281-.042969.691406.144531.160156.40625-.25.984375-.632813.890625-.242187-.0625-.359374.019531-.433593.304687-.027344.101563-.074219.1875-.128907.261719.78125.304688 1.585938.542969 2.410157.714844-.078125-.148437-.164063-.28125-.246094-.339844-.394531-.277343-.132813-.996093.410156-1.128906.550781-.128906.460938-.488281-.136719-.554687-.523437-.0625-1.082031-.59375-.90625-.863282.117188-.183594.617188-.15625 1.632813.082032.460937.109374.773437-.109376 1.835937-1.269532.613282-.675781 1.085938-.953125 1.605469-.953125.199219 0 .90625-.183593 1.570313-.40625 1.257812-.421875 1.75-.40625 1.703125.054688-.097657.953125.519531.921875 1.519531-.078125.417969-.417969.796875-.71875.847656-.671875.191406.183593-.152344 1.078125-.554687 1.4375-.507813.460937-.535157.75-.085938.980469.246094.125.351563.378906.386719.953124l.054688.785157h.636718c.222656 0 .40625.027343.558594.085937 4.433594-2.664062 7.214844-7.402344 7.378906-12.574218-.234375-.496094-.214844-.796876 0-1.136719-.015625-.285157-.039062-.570313-.066406-.855469-.140625-.007812-.28125-.011719-.445312-.003906-.765626.03125-1.425782-.273438-1.425782-.65625 0-.082032-.269531-.417969-.605468-.746094-.375-.371094-.570313-.703125-.515626-.871094.054688-.15625-.058593-.40625-.253906-.578125-.191406-.164062-.347656-.429687-.347656-.589843 0-.257813-.164062-.289063-1.335938-.261719l-1.335937.035156.019531 1.316406c.042969 2.304688.386719 2.90625 1.445313 2.519531.484375-.179687 1.675781-.042968 2.015625.226563.121094.09375.300781.449219.394531.785156.09375.332031.441406.914063.777344 1.285157.675781.753906.726562 1.050781.339843 1.9375-.339843.773437-.703124.683593-.628906-.15625l.054688-.625-.574219.109374c-.316406.058594-.710937.292969-.886719.523438-.253906.328125-.375.375-.5625.226562-.132812-.105468-.238281-.328124-.238281-.492187s-.164063-.347656-.363281-.40625c-.199219-.0625-.46875-.359375-.605469-.667969-.210937-.488281-.207031-.640625.042969-1.234375.25-.605469.253906-.707031.019531-.929687-.210937-.203125-.320313-.210938-.601563-.042969s-.414062.15625-.75-.066406c-.226562-.152344-.613281-.273438-.867187-.273438-.515625 0-.671875-.25-.671875-1.078125 0-.765625-.453125-1.042968-1.539062-.941406-.753907.070312-.917969.019531-1.527344-.449219-.375-.289062-.964844-.984375-1.316406-1.546875-.351563-.5625-.726563-1.148437-.839844-1.304687-.15625-.222657-.117188-.4375.191406-1.050781l.390625-.769532-.824219.113282c-1.472656.199218-1.769531.390624-1.136718.726562.246093.132812.253906.203125.066406.421875-.125.144531-.183594.371094-.128906.503906.050781.136719-.015626.453125-.152344.703125-.136719.253906-.253906.609375-.257813.789063-.015625.570312-.988281 1.019531-2.070312.960937-1.640625-.089844-1.773438-.066406-2.355469.476563-.730469.675781-.824219.992187-.484375 1.617187.328125.609375.910156.851563 1.921875.804688.902344-.046875 1.007812.03125.800781.628906-.175781.507812-.765625.703125-1.167969.386719-.304687-.246094-1.367187-.054688-1.691406.300781-.136718.152344-.339844.542969-.449218.875-.191407.566406-.246094.601562-1.101563.683594-.851563.082031-.933594.054687-1.546875-.507813-.683594-.628906-.796875-1.109375-.46875-1.941406.144531-.367187.253906-.425781.644531-.355469.773438.140625 1.078125-.125 1.078125-.953125 0-.398437-.078125-.773437-.175781-.828125-.09375-.054687-.171875-.269531-.171875-.472656s-.097656-.464844-.214844-.578125c-.171875-.167969-.148437-.257813.128906-.453125.1875-.132812.5-.222656.691407-.203125.1875.023437.710937-.058594 1.164062-.179687.652344-.175782.84375-.308594.933594-.652344.167969-.652344.578125-1.175782.917969-1.175782.542968 0 .554687-1.273437.027344-3.125-.078126-.277343-.292969-.449218-.667969-.542968-.308594-.078125-.640625-.285156-.742188-.464844-.097656-.179688-.28125-.324219-.40625-.324219s-.367187-.148437-.539062-.332031-.53125-.328125-.800781-.328125c-.644532 0-.65625-.445313-.015626-.679687.671876-.246094 1.722657.078124 1.976563.609374.34375.722657.722656.421876.847656-.667968.152344-1.351563.617188-1.742188 2.085938-1.742188h1.058593l-.464843-.460937c-.144531-.144531-.261719-.320313-.347657-.496094zm5.476562.480469c-.03125.027344-.058593.050781-.089843.078125-.351563.363281-.519532.414062-1.066407.328125-.953125-.144532-.828125.238281.226563.703125.570312.25.9375.539062 1.0625.828125.601562 1.394531 1.015625 2.144531 1.222656 2.222656.421875.152344.671875-.15625.765625-.949219.109375-.910156.414063-1.105469.96875-.605469.214844.191407.515625.351563.667969.351563.472656 0 .820312.1875.820312.445313 0 .132812.160156.460937.355469.722656.289063.390625.484375.480468 1.023437.480468.664063 0 1.070313.125 1.898438.582032.011719.007812.027344.011718.039062.015625-2.011718-2.527344-4.777343-4.347657-7.894531-5.203125zm-19.269531 14.609375c-.003906.019531-.003906.042969-.003906.066406.003906.980469.105468 1.960937.296875 2.925781.550781.222656.703125.132813.761719-.378906.03125-.265625.167968-.566406.308593-.671875.21875-.160156.179688-.242187-.265625-.546875-.289062-.195312-.574218-.542969-.632812-.765625-.058594-.214844-.25-.453125-.464844-.628906zm4.792969 5.035156c-.140625-.015625-.3125.0625-.503907.246094-.402343.382812-.339843 1.160156.113282 1.464843.523437.351563.726562.25.792968-.398437.082032-.796875-.089843-1.277344-.402343-1.3125zm2.585937 2.304687c-.15625.003907-.328125.117188-.496094.351563-.183593.246094-.234374.566406-.164062 1.054687.085938.597657.046875.726563-.265625.886719-.402344.207031-.488281.820313-.15625 1.132813.324219.316406.636719.234375.75-.195313.160156-.613281 1.058594-.6875 1.671875-.136719.257812.234376.472656.355469.472656.265626 0-.089844-.273437-.417969-.605468-.726563-.507813-.472656-.601563-.671875-.601563-1.28125 0-.855469-.261719-1.363281-.605469-1.351563zm-4.246094 1.964844c.117188.152344.234376.300782.351563.445313-.101563-.160157-.21875-.3125-.351563-.445313zm5.136719 2.339844c-.078125.027344-.113281.125-.113281.292969 0 .171875-.109375.351562-.242188.402343-.179687.066407-.21875.269532-.148437.765626.011719.089843.015625.164062.019531.242187.207032.113281.417969.222656.632813.324219-.011719-.261719.039062-.574219.175781-.960938.234375-.660156.242188-.828125.050781-.941406-.175781-.109375-.300781-.152344-.375-.125zm0 0" fill="#c2752c"/><path d="m24 8.667969c-8.5 0-15.394531 6.867187-15.394531 15.332031.003906 8.464844 6.894531 15.332031 15.394531 15.332031s15.394531-6.867187 15.394531-15.332031-6.894531-15.332031-15.394531-15.332031zm0 .453125c8.257812 0 14.941406 6.660156 14.941406 14.878906s-6.683594 14.878906-14.941406 14.878906-14.941406-6.660156-14.941406-14.878906 6.683594-14.878906 14.941406-14.878906zm0 0" fill="#c2752c"/></svg>