<svg height="48pt" viewBox="0 0 48 48" width="48pt" xmlns="http://www.w3.org/2000/svg"><path d="m11.210938 2.847656h25.578124c4.621094 0 8.363282 3.742188 8.363282 8.363282v25.578124c0 4.621094-3.742188 8.363282-8.363282 8.363282h-25.578124c-4.621094 0-8.363282-3.742188-8.363282-8.363282v-25.578124c0-4.621094 3.742188-8.363282 8.363282-8.363282zm0 0" fill="#ffbd8e" fill-rule="evenodd"/><g fill="#4d4d4d"><path d="m19.5 16.5c0 1.65625-1.34375 3-3 3s-3-1.34375-3-3 1.34375-3 3-3 3 1.34375 3 3zm0 0"/><path d="m34.5 16.5c0 1.65625-1.34375 3-3 3s-3-1.34375-3-3 1.34375-3 3-3 3 1.34375 3 3zm0 0"/><path d="m16.011719 28.960938c1.648437 3.425781 4.691406 5.535156 7.988281 5.539062 3.292969-.007812 6.335938-2.117188 7.984375-5.539062h-1.121094c-1.75 2.34375-4.242187 3.683593-6.863281 3.691406-2.621094-.003906-5.117188-1.347656-6.863281-3.691406zm0 0"/><path d="m24 21c-3.3125 0-6 2.015625-6 4.5s2.6875 4.5 6 4.5 6-2.015625 6-4.5-2.6875-4.5-6-4.5zm-3 3c .828125 0 1.5.671875 1.5 1.5s-.671875 1.5-1.5 1.5-1.5-.671875-1.5-1.5.671875-1.5 1.5-1.5zm6 0c .828125 0 1.5.671875 1.5 1.5s-.671875 1.5-1.5 1.5-1.5-.671875-1.5-1.5.671875-1.5 1.5-1.5zm0 0"/></g></svg>