<svg height="48pt" viewBox="0 0 48 48" width="48pt" xmlns="http://www.w3.org/2000/svg"><path d="m11.210938 2.847656h25.578124c4.621094 0 8.363282 3.742188 8.363282 8.363282v25.578124c0 4.621094-3.742188 8.363282-8.363282 8.363282h-25.578124c-4.621094 0-8.363282-3.742188-8.363282-8.363282v-25.578124c0-4.621094 3.742188-8.363282 8.363282-8.363282zm0 0" fill="#c2352a" fill-rule="evenodd"/><path d="m18.082031 31.429688c-.480469-.066407-1.335937-.347657-1.90625-.628907-3.710937-1.804687-5.230469-6.355469-3.402343-10.1875 2.089843-4.382812 7.789062-5.5 11.21875-2.199219.992187.953126 1.433593 1.765626 2.925781 5.371094 1.558593 3.773438 1.847656 4.363282 2.351562 4.867188.542969.535156 1.042969.714844 2.003907.714844 1.574218 0 2.699218-.988282 2.699218-2.371094 0-1.167969-.402344-1.542969-2.464844-2.285156-3.144531-1.152344-4.160156-2.191407-4.164062-4.28125 0-1.113282.277344-1.855469.984375-2.625 1.011719-1.101563 2.761719-1.464844 4.308594-.917969.660156.238281 2.042969 1.480469 2.042969 1.835937 0 .171875-.800782.699219-1.246094.824219-.234375.0625-.433594-.019531-.707032-.28125-.546874-.535156-.917968-.699219-1.574218-.699219-1.132813 0-1.835938.691406-1.835938 1.808594 0 1.113281.445313 1.492188 2.679688 2.257812 3.078125 1.054688 3.984375 2.007813 4.003906 4.210938.019531 1.90625-.828125 3.28125-2.507812 4.09375-.765626.367188-1.023438.414062-2.273438.414062-1.78125 0-2.582031-.335937-3.582031-1.480468-.671875-.769532-1.351563-2.210938-3.535157-7.480469-.902343-2.183594-2.066406-3.253906-4.003906-3.675781-.980468-.214844-2.347656-.015625-3.238281.460937-.867187.460938-1.839844 1.503907-2.296875 2.453125-.378906.773438-.414062.992188-.414062 2.335938 0 1.28125.050781 1.585937.367187 2.289062.480469 1.074219 1.425781 2.066406 2.464844 2.601563.75.382812.984375.429687 2.179687.429687 1.152344 0 1.445313-.054687 2.132813-.386718.785156-.386719 1.835937-1.339844 2.265625-2.054688l.222656-.371094.441406 1.023438c.246094.5625.441406 1.09375.441406 1.191406 0 .28125-.992187 1.203125-1.90625 1.777344-1.386718.871094-2.976562 1.195312-4.675781.960937m-.003906 0" fill="#fff"/></svg>