<svg height="48pt" viewBox="0 0 48 48" width="48pt" xmlns="http://www.w3.org/2000/svg" xmlns:xlink="http://www.w3.org/1999/xlink"><clipPath id="a"><path d="m0 0h48v48h-48z"/></clipPath><g fill-rule="evenodd"><path d="m45.152344 18.332031v-7.125c0-4.632812-3.726563-8.359375-8.363282-8.359375h-7.125zm0 0" fill="#fec006"/><path d="m27.167969 2.847656h-15.957031c-4.632813 0-8.363282 3.726563-8.363282 8.359375v25.582031c0 4.632813 3.730469 8.363282 8.363282 8.363282h25.578124c4.636719 0 8.363282-3.730469 8.363282-8.363282v-15.957031zm0 0" fill="#fec006"/><path d="m27.167969 2.847656 17.984375 17.984375v-2.5l-15.488282-15.484375zm0 0" fill="#fff"/></g><g clip-path="url(#a)"><path d="m33.058594 18.292969c-.566406-.191407-1.261719-.289063-1.910156.070312-1.085938.605469-1.472657 1.808594-1.472657 2.902344 0 1.089844.269531 2.226563.519531 3.320313s.476563 2.140624.464844 2.886718c-.007812.742188-.113281 1.027344-.5625 1.253906-.359375.179688-.582031.195313-.8125.148438-.230468-.046875-.496094-.183594-.808594-.449219-.625-.539062-1.34375-1.5625-2.160156-2.660156-.8125-1.101563-1.742187-2.28125-2.992187-3.121094-1.246094-.839843-2.867188-1.285156-4.734375-.863281l-.019532.007812-.015624.003907c-1.214844.324219-2.121094 1.25-2.75 2.378906-.628907 1.128906-1.019532 2.5-1.210938 3.957031-.027344.230469.027344.472656.007812.707032-.421874-.027344-.78125-.175782-1.207031-.183594l-2.082031-.046875-.898438-.015625-.039062 1.792968.894531.019532 2.085938.042968c.460937.011719.816406.15625 1.265625.191407.050781 2.164062.386718 4.320312 1.417968 5.980469l.039063.054687c1.597656 2.1875 4.324219 2.824219 6.347656 2.042969 1.011719-.394532 1.882813-1.222656 2.148438-2.371094s-.058594-2.488281-.992188-3.929688c-.890625-1.378906-2.417969-2.265624-4.207031-2.851562-.890625-.289062-1.980469-.304688-2.988281-.453125.019531-.25-.042969-.507813-.007813-.75.164063-1.28125.515625-2.457031.996094-3.3125.472656-.851563 1.039062-1.347656 1.640625-1.511719 1.402344-.3125 2.382813-.023437 3.308594.601563.933593.625 1.765625 1.636719 2.550781 2.695312.789062 1.0625 1.507812 2.15625 2.433594 2.953125.460937.394532.992187.722656 1.621094.851563.632812.125 1.328124.019531 1.980468-.304688 1.109375-.558593 1.535156-1.757812 1.546875-2.839843.011719-1.082032-.257812-2.214844-.507812-3.308594s-.480469-2.152344-.480469-2.917969c0-.769531.121094-1.09375.554688-1.335937.007812-.003907.148437-.039063.464843.066406.3125.105468.726563.332031 1.113281.59375.769532.523437 1.414063 1.148437 1.414063 1.148437l.640625.625 1.253906-1.285156-.644531-.625s-.726563-.714844-1.65625-1.347656c-.464844-.316407-.984375-.621094-1.550781-.8125zm-16.640625 12.613281c.800781.132812 1.71875.140625 2.398437.363281 1.554688.507813 2.699219 1.253907 3.261719 2.121094.761719 1.175781.871094 2.015625.746094 2.542969-.121094.53125-.464844.878906-1.046875 1.101562-1.15625.449219-3.117188.082032-4.222656-1.40625-.726563-1.1875-1.035157-2.929687-1.136719-4.722656zm0 0" fill="#fff"/></g></svg>