<svg height="48pt" viewBox="0 0 48 48" width="48pt" xmlns="http://www.w3.org/2000/svg" xmlns:xlink="http://www.w3.org/1999/xlink"><clipPath id="a"><path d="m0 0h48v48h-48z"/></clipPath><path d="m11.210938 2.847656h25.578124c4.621094 0 8.363282 3.742188 8.363282 8.363282v25.578124c0 4.621094-3.742188 8.363282-8.363282 8.363282h-25.578124c-4.621094 0-8.363282-3.742188-8.363282-8.363282v-25.578124c0-4.621094 3.742188-8.363282 8.363282-8.363282zm0 0" fill="#ccc" fill-rule="evenodd"/><g clip-path="url(#a)"><path d="m24 13.867188c-3.933594 0-7.285156 2.335937-8.726562 5.640624-3.664063.527344-6.472657 3.558594-6.472657 7.253907 0 4.070312 3.402344 7.371093 7.597657 7.371093h16.152343c3.671875 0 6.648438-2.886718 6.648438-6.449218 0-3.308594-2.566407-6.019532-5.878907-6.390625-.863281-4.222657-4.710937-7.425781-9.320312-7.425781zm0 0" fill="#f9f9f9"/></g><path d="m24 16.90625c-3.917969 0-7.09375 3.175781-7.09375 7.09375s3.175781 7.09375 7.09375 7.09375 7.09375-3.175781 7.09375-7.09375-3.175781-7.09375-7.09375-7.09375zm0 2.027344c2.796875 0 5.066406 2.269531 5.066406 5.066406s-2.269531 5.066406-5.066406 5.066406-5.066406-2.269531-5.066406-5.066406 2.269531-5.066406 5.066406-5.066406zm0 0" fill="#666"/><path d="m27.039062 24c0 1.679688-1.359374 3.039062-3.039062 3.039062s-3.039062-1.359374-3.039062-3.039062 1.359374-3.039062 3.039062-3.039062 3.039062 1.359374 3.039062 3.039062zm0 0" fill="#666"/></svg>