<svg height="48pt" viewBox="0 0 48 48" width="48pt" xmlns="http://www.w3.org/2000/svg"><path d="m11.210938 2.847656h25.578124c4.621094 0 8.363282 3.742188 8.363282 8.363282v25.578124c0 4.621094-3.742188 8.363282-8.363282 8.363282h-25.578124c-4.621094 0-8.363282-3.742188-8.363282-8.363282v-25.578124c0-4.621094 3.742188-8.363282 8.363282-8.363282zm0 0" fill="#fbba22" fill-rule="evenodd"/><path d="m17.765625 7.664062c-5.324219 0-9.636719 6.34375-9.636719 14.171876 0 7.828124 4.3125 14.171874 9.636719 14.171874 2.28125-.003906 4.488281-1.203124 6.226563-3.378906 1.742187 2.179688 3.957031 3.378906 6.242187 3.378906 5.324219 0 9.636719-6.34375 9.636719-14.171874 0-7.828126-4.3125-14.171876-9.636719-14.171876-2.28125.007813-4.488281 1.203126-6.226563 3.378907-1.742187-2.179688-3.957031-3.375-6.242187-3.378907zm0 0" fill="#fff"/><path d="m7.307292 24.382812s3.932291-.755208 8.692708-.755208 8.692708.755208 8.692708.755208" fill="none" stroke="#ea8504" stroke-linecap="round" stroke-linejoin="round" stroke-width="5" transform="scale(1.5)"/><path d="m17.691406 12.199219c-.699218 0-1.894531.417969-3 2.121093-1.101562 1.699219-1.988281 4.492188-1.988281 7.664063 0 3.167969.886719 5.960937 1.988281 7.660156.515625.796875 1.140625 1.71875 1.640625 2.214844 1.589844-.15625 3.429688-.28125 5.402344-.34375v-14.597656c-.335937-1.015625-.820313-1.902344-1.273437-2.597657-1.101563-1.703124-2.070313-2.121093-2.769532-2.121093zm12.691406 0c-.699218 0-1.667968.417969-2.769531 2.121093-.453125.695313-1.011719 1.582032-1.347656 2.597657v14.597656c2.003906.0625 3.859375.191406 5.464844.347656.503906-.488281 1.132812-1.417969 1.648437-2.21875 1.105469-1.699219 1.992188-4.492187 1.992188-7.660156 0-3.171875-.886719-5.964844-1.992188-7.664063-1.101562-1.703124-2.296875-2.121093-2.996094-2.121093zm0 0" fill="#fbba22"/></svg>