<svg height="48pt" viewBox="0 0 48 48" width="48pt" xmlns="http://www.w3.org/2000/svg"><g fill-rule="evenodd"><path d="m11.210938 2.847656h25.578124c4.621094 0 8.363282 3.742188 8.363282 8.363282v25.578124c0 4.621094-3.742188 8.363282-8.363282 8.363282h-25.578124c-4.621094 0-8.363282-3.742188-8.363282-8.363282v-25.578124c0-4.621094 3.742188-8.363282 8.363282-8.363282zm0 0" fill="#e45f0a"/><path d="m44.96875 10.285156c-.476562-4.171875-3.871094-7.4375-8.175781-7.4375h-19.808594c-1.089844.890625-2.164063 1.820313-3.085937 2.90625-1.136719 1.34375-2.128907 2.8125-2.925782 4.371094-.800781 1.558594-1.40625 3.199219-1.777344 4.882812-.371093 1.683594-.503906 3.410157-.355468 5.128907.136718 1.609375.582031 3.257812 1.277344 4.804687.695312 1.550782 1.640624 2.996094 2.777343 4.210938 1.140625 1.210937 2.460938 2.183594 3.917969 2.804687 1.457031.621094 3.054688.890625 4.746094.707031.992187-.109374 1.902344-.378906 2.707031-.792968.804687-.410156 1.5-.964844 2.054687-1.640625.554688-.671875.964844-1.464844 1.203126-2.355469.238281-.890625.304687-1.875.164062-2.9375-.003906-.011719.003906-.03125 0-.042969-.105469-.289062-.308594-.492187-.585938-.660156-.300781-.1875-.722656-.292969-1.167968-.351563-.183594-.023437-.359375-.035156-.546875-.039062l-.234375.816406c-.253906.949219-1.03125 1.917969-2.1875 2.542969-.574219.3125-1.261719.523437-2.003906.566406-.738282.042969-1.53125-.085937-2.324219-.453125l-.042969-.039062c-.972656-.558594-1.867188-1.429688-2.601562-2.503906-.734376-1.074219-1.308594-2.359376-1.652344-3.742188-.339844-1.378906-.429688-2.863281-.171875-4.332031.257812-1.46875.867187-2.925781 1.929687-4.25.996094-1.246094 2.058594-2.3125 3.171875-3.210938 1.109375-.894531 2.269531-1.625 3.460938-2.203125 1.195312-.574218 2.417969-.996094 3.660156-1.28125s2.5-.425781 3.753906-.445312c2.515625-.035156 5.027344.40625 7.433594 1.207031 2.410156.800781 4.710937 1.960937 6.8125 3.355469.199219.132812.382813.277344.578125.414062zm0 0" fill="#94c3e4"/><path d="m3.042969 37.761719c.5 4.148437 3.878906 7.390625 8.164062 7.390625h19.832031c1.085938-.890625 2.152344-1.820313 3.070313-2.902344 1.136719-1.339844 2.125-2.808594 2.921875-4.363281.796875-1.554688 1.402344-3.195313 1.773438-4.871094.367187-1.679687.503906-3.398437.355468-5.113281-.136718-1.609375-.582031-3.257813-1.277344-4.804688-.695312-1.546875-1.640624-2.996094-2.777343-4.210937-1.140625-1.210938-2.460938-2.1875-3.917969-2.820313-1.457031-.632812-3.054688-.914062-4.746094-.730468-1 .109374-1.914062.386718-2.71875.800781-.804687.414062-1.496094.964843-2.046875 1.621093-.539062.644532-.945312 1.398438-1.1875 2.253907-.238281.851562-.308593 1.808593-.175781 2.859375.203125.683594.863281 1.050781 1.753906 1.207031.171875.03125.367188.066406.546875.078125l.234375-.78125c.253906-.949219 1.03125-1.910156 2.1875-2.535156.574219-.3125 1.261719-.527344 2.003906-.570313.738282-.042969 1.535157.085938 2.328126.453125h.039062c.972656.558594 1.867188 1.4375 2.601562 2.523438.734376 1.085937 1.308594 2.378906 1.652344 3.757812.339844 1.382813.429688 2.867188.171875 4.335938-.257812 1.472656-.867187 2.929687-1.929687 4.253906-.996094 1.246094-2.058594 2.308594-3.171875 3.207031-1.109375.898438-2.269531 1.625-3.460938 2.203125-1.195312.578125-2.417969 1-3.660156 1.28125-1.242187.285156-2.5.433594-3.753906.449219-2.515625.039063-5.027344-.40625-7.433594-1.207031-2.410156-.800782-4.710937-1.960938-6.8125-3.359375-.195313-.128907-.375-.273438-.566406-.40625zm0 0" fill="#94c3e4"/><path d="m3.042969 37.761719c.191406.132812.371093.277343.566406.40625 2.101563 1.398437 4.402344 2.558593 6.8125 3.359375 2.40625.800781 4.917969 1.246094 7.433594 1.207031 1.253906-.015625 2.511719-.164063 3.753906-.449219 1.242187-.28125 2.464844-.703125 3.660156-1.28125 1.191407-.578125 2.351563-1.304687 3.460938-2.203125 1.113281-.898437 2.175781-1.960937 3.171875-3.207031 1.0625-1.324219 1.671875-2.78125 1.929687-4.253906.257813-1.46875.167969-2.953125-.171875-4.335938-.34375-1.378906-.917968-2.671875-1.652344-3.757812-.734374-1.085938-1.628906-1.964844-2.601562-2.523438h-.039062c-.792969-.367187-1.589844-.496094-2.328126-.453125-.742187.042969-1.429687.257813-2.003906.570313-1.15625.625-1.933594 1.585937-2.1875 2.535156l-.234375.78125c-.179687-.011719-.375-.046875-.546875-.078125-.890625-.15625-1.550781-.523437-1.753906-1.207031-.132812-1.050782-.0625-2.007813.175781-2.859375.242188-.855469.648438-1.609375 1.1875-2.253907.550781-.65625 1.242188-1.207031 2.046875-1.621093.804688-.414063 1.71875-.691407 2.71875-.800781 1.691406-.183594 3.289063.097656 4.746094.730468 1.457031.632813 2.777344 1.609375 3.917969 2.820313 1.136719 1.214843 2.082031 2.664062 2.777343 4.210937.695313 1.546875 1.140626 3.195313 1.277344 4.804688.148438 1.714844.011719 3.433594-.355468 5.113281-.371094 1.675781-.976563 3.316406-1.773438 4.871094-.796875 1.554687-1.785156 3.023437-2.921875 4.363281-.917969 1.082031-1.984375 2.011719-3.070313 2.902344h5.753907c4.632812 0 8.359375-3.726563 8.359375-8.359375v-25.585938c0-.324219-.148438-.601562-.183594-.921875-.195312-.136718-.378906-.28125-.578125-.414062-2.101563-1.394532-4.402344-2.554688-6.8125-3.355469-2.40625-.800781-4.917969-1.242187-7.433594-1.207031-1.253906.019531-2.511719.160156-3.753906.445312s-2.464844.707032-3.660156 1.28125c-1.191407.578125-2.351563 1.308594-3.460938 2.203125-1.113281.898438-2.175781 1.964844-3.171875 3.210938-1.0625 1.324219-1.671875 2.78125-1.929687 4.25-.257813 1.46875-.167969 2.953125.171875 4.332031.34375 1.382812.917968 2.667969 1.652344 3.742188.734374 1.074218 1.628906 1.945312 2.601562 2.503906l.042969.039062c.792969.367188 1.585937.496094 2.324219.453125.742187-.042969 1.429687-.253906 2.003906-.566406 1.15625-.625 1.933594-1.59375 2.1875-2.542969l.234375-.816406c.1875.003906.363281.015625.546875.039062.445312.058594.867187.164063 1.167968.351563.277344.167969.480469.371094.585938.660156.003906.011719-.003906.03125 0 .042969.140625 1.0625.074219 2.046875-.164062 2.9375-.238282.890625-.648438 1.683594-1.203126 2.355469-.554687.675781-1.25 1.230469-2.054687 1.640625-.804687.414062-1.714844.683594-2.707031.792968-1.691406.183594-3.289063-.085937-4.746094-.707031-1.457031-.621093-2.777344-1.59375-3.917969-2.804687-1.136719-1.214844-2.082031-2.660156-2.777343-4.210938-.695313-1.546875-1.140626-3.195312-1.277344-4.804687-.148438-1.71875-.015625-3.445313.355468-5.128907.371094-1.683593.976563-3.324218 1.777344-4.882812.796875-1.558594 1.789063-3.027344 2.925782-4.371094.921874-1.085937 1.996093-2.015625 3.085937-2.90625h-5.777344c-4.632812 0-8.359375 3.726563-8.359375 8.359375v25.585938c0 .34375.15625.632812.195313.96875zm0 0" fill="#e45f0a"/></g></svg>