<svg height="48pt" viewBox="0 0 48 48" width="48pt" xmlns="http://www.w3.org/2000/svg"><g fill-rule="evenodd"><path d="m11.210938 2.847656h25.578124c4.621094 0 8.363282 3.742188 8.363282 8.363282v25.578124c0 4.621094-3.742188 8.363282-8.363282 8.363282h-25.578124c-4.621094 0-8.363282-3.742188-8.363282-8.363282v-25.578124c0-4.621094 3.742188-8.363282 8.363282-8.363282zm0 0" fill="#8e8e8e"/><g fill="#4f4f4f"><path d="m37.246094 2.9375v21.734375c0 .933594.453125 1.691406 1.007812 1.691406h2.0625c.558594 0 1.007813-.757812 1.007813-1.691406v-20.3125c-1.199219-.792969-2.546875-1.335937-4.078125-1.421875zm0 0"/><path d="m31.132812 2.847656v21.824219c0 .933594.449219 1.691406 1.007813 1.691406h2.0625c.558594 0 1.003906-.757812 1.003906-1.691406v-21.824219zm0 0"/><path d="m25.019531 2.847656v21.824219c0 .933594.449219 1.691406 1.007813 1.691406h2.058594c.558593 0 1.007812-.757812 1.007812-1.691406v-21.824219zm0 0"/><path d="m12.789062 2.847656v21.824219c0 .933594.449219 1.691406 1.007813 1.691406h2.0625c.558594 0 1.007813-.757812 1.007813-1.691406v-21.824219zm0 0"/></g><path d="m39.285156 26.363281v18.289063c3.386719-1.070313 5.867188-4.113282 5.867188-7.859375v-25.582031c0-2.921876-1.574219-5.355469-3.828125-6.851563v20.3125c0 .933594-.449219 1.691406-1.007813 1.691406zm0 0" fill="#a860a2"/><path d="m33.171875 26.363281v18.789063h3.617187c.886719 0 1.699219-.246094 2.496094-.5v-18.289063h-1.03125c-.554687 0-1.007812-.757812-1.007812-1.691406v-21.734375c-.15625-.007812-.292969-.089844-.457032-.089844h-1.582031v21.824219c0 .933594-.445312 1.691406-1.003906 1.691406zm0 0" fill="#476eb9"/><path d="m27.058594 26.363281v18.789063h6.113281v-18.789063h-1.03125c-.558594 0-1.007813-.757812-1.007813-1.691406v-21.824219h-2.039062v21.824219c0 .933594-.449219 1.691406-1.007812 1.691406zm0 0" fill="#4cb094"/><path d="m20.941406 2.847656v42.304688h6.117188v-18.789063h-1.03125c-.558594 0-1.007813-.757812-1.007813-1.691406v-21.824219zm0 0" fill="#40a95d"/><path d="m14.828125 26.363281v18.789063h6.113281v-42.304688h-4.074218v21.824219c0 .933594-.449219 1.691406-1.007813 1.691406zm0 0" fill="#ecb554"/><path d="m8.710938 26.363281v18.289063c.800781.253906 1.613281.5 2.496093.5h3.621094v-18.789063h-1.03125c-.558594 0-1.007813-.757812-1.007813-1.691406v-21.824219h-1.582031c-.160156 0-.296875.082032-.457031.089844v21.734375c0 .933594-.445312 1.691406-1.007812 1.691406zm0 0" fill="#eb8644"/><path d="m8.710938 44.652344v-18.289063h-1.027344c-.558594 0-1.011719-.757812-1.011719-1.691406v-20.308594c-2.253906 1.492188-3.824219 3.925781-3.824219 6.847657v25.582031c0 3.746093 2.480469 6.789062 5.863282 7.859375zm0 0" fill="#da6156"/><path d="m6.671875 4.363281v20.308594c0 .933594.453125 1.691406 1.011719 1.691406h2.058594c.5625 0 1.007812-.757812 1.007812-1.691406v-21.734375c-1.527344.085938-2.878906.628906-4.078125 1.425781zm0 0" fill="#4f4f4f"/></g></svg>