<svg height="48pt" viewBox="0 0 48 48" width="48pt" xmlns="http://www.w3.org/2000/svg" xmlns:xlink="http://www.w3.org/1999/xlink"><filter id="a" height="100%" width="100%" x="0%" y="0%"><feColorMatrix in="SourceGraphic" type="matrix" values="0 0 0 0 1 0 0 0 0 1 0 0 0 0 1 0 0 0 1 0"/></filter><mask id="b"><g filter="url(#a)"><path d="m0 0h48v48h-48z" fill-opacity=".501961"/></g></mask><clipPath id="c"><path d="m0 0h48v48h-48z"/></clipPath><path d="m11.210938 2.847656h25.578124c4.621094 0 8.363282 3.742188 8.363282 8.363282v25.578124c0 4.621094-3.742188 8.363282-8.363282 8.363282h-25.578124c-4.621094 0-8.363282-3.742188-8.363282-8.363282v-25.578124c0-4.621094 3.742188-8.363282 8.363282-8.363282zm0 0" fill="#dcdcbe" fill-rule="evenodd"/><g clip-path="url(#c)" mask="url(#b)"><path d="m7.5 15v1.5h33v-1.5zm0 4.5v1.5h33v-1.5zm0 4.5v1.5h33v-1.5zm0 4.5v1.5h33v-1.5zm0 4.5v1.5h33v-1.5zm0 0" fill="#2a2a2a" fill-rule="evenodd"/></g><path d="m21.292969 24.582031c-.886719-.929687-2.15625-1.511719-3.675781-1.394531-.128907-.234375-.632813-2.558594-.632813-2.558594s1.773437-2.441406 2.152344-2.90625c1.902343-2.792968 2.03125-5 .890625-7.210937-.382813-.8125-1.394532-1.511719-2.410156-1.511719-.761719 0-1.394532.582031-1.777344 1.277344-1.265625 1.980468-1.265625 5.699218-.632813 8.257812 0 0-.632812.582032-1.265625 1.277344-1.269531 1.28125-2.664062 2.675781-3.171875 4.535156-.632812 2.09375-.125 4.070313 1.269531 5.582032 1.519532 1.746093 3.800782 2.558593 6.59375 2.324218.503907 2.210938.886719 3.605469.125 4.886719-.253906.464844-.761718.929687-1.648437.929687-.253906 0-.378906 0-.632813-.117187.757813-.347656 1.394532-1.046875 1.394532-1.859375 0-1.164062-1.015625-2.09375-2.28125-2.09375-2.15625.117188-2.285156 2.09375-2.285156 2.09375 0 .695312.253906 1.394531.761718 1.859375.632813.582031 1.648438 1.046875 2.789063 1.046875 1.394531 0 2.789062-.464844 3.296875-2.324219.507812-1.511719-.378906-3.953125-.507813-4.769531 1.394531-.582031 2.664063-2.324219 2.789063-3.488281.253906-1.277344-.253906-2.789063-1.140625-3.835938zm-4.058594-12.90625c.128906-.234375.382813-.351562.636719-.351562.125 0 .378906.117187.507812.234375.503906.230468.632813.699218.632813 1.394531-.128907 1.746094-1.777344 3.835937-2.664063 4.535156-.378906-1.628906-.125-4.652343.886719-5.8125zm-3.675781 18.253907c-.886719-.8125-1.265625-1.976563-1.140625-3.140626.253906-1.859374 1.648437-3.371093 2.789062-4.535156.253907-.230468.507813-.464844.632813-.695312.128906.582031.507812 1.511718.636718 1.976562-1.523437.582032-2.410156 2.441406-2.285156 3.953125 0 .699219.253906 1.164063.636719 1.628907.125.117187.253906.230468.378906.230468.128907 0 .382813-.113281.382813-.230468.125-.117188.125-.351563 0-.464844-.128906-.117188-.128906-.234375-.128906-.464844-.125-1.046875.632812-1.863281 1.523437-2.210938.125.699219 1.011719 4.300782 1.140625 5.117188-1.648438.464844-3.425781 0-4.566406-1.164062zm5.707031.699218c-.253906-.816406-.382813-1.746094-.632813-2.792968-.128906-.695313-.253906-1.511719-.507812-2.207032 1.648438 0 2.152344 1.277344 2.28125 1.742188.378906 1.28125 0 2.558594-1.140625 3.257812zm0 0" fill="#2a2a2a"/></svg>