<svg height="48pt" viewBox="0 0 48 48" width="48pt" xmlns="http://www.w3.org/2000/svg" xmlns:xlink="http://www.w3.org/1999/xlink"><clipPath id="a"><path d="m0 0h48v48h-48z"/></clipPath><path d="m11.210938 2.847656h25.578124c4.621094 0 8.363282 3.742188 8.363282 8.363282v25.578124c0 4.621094-3.742188 8.363282-8.363282 8.363282h-25.578124c-4.621094 0-8.363282-3.742188-8.363282-8.363282v-25.578124c0-4.621094 3.742188-8.363282 8.363282-8.363282zm0 0" fill="#4f4f4f" fill-rule="evenodd"/><g clip-path="url(#a)"><path d="m20.789062 33.808594c1.425782-.4375 3.140626-1.636719 3.941407-2.765625l.265625-.371094-.332032-1.003906c-1.210937-3.664063.988282-7.355469 4.757813-7.992188 2.738281-.460937 5.613281 1.214844 6.605469 3.851563.234375.628906.242187.632812.164062.152344-.226562-1.425782-.933594-2.742188-2.078125-3.875-1.199219-1.183594-2.589843-1.855469-4.328125-2.085938-.53125-.074219-.585937-.050781-.789062.289062-.308594.523438-1.207032 1.398438-1.871094 1.820313-1.792969 1.144531-4.550781 1.144531-6.347656.003906-2.027344-1.292969-3.171875-3.765625-2.800782-6.042969.203126-1.246093.75-2.347656 1.625-3.273437.632813-.671875.675782-.746094.308594-.535156-.613281.351562-2.054687 1.917969-2.464844 2.679687-.472656.875-.855468 2.429688-.851562 3.453125 0 .882813.230469 2.050781.570312 2.898438.199219.496093.222657.511719.957032.59375.410156.046875 1.066406.191406 1.449218.324219 3.40625 1.171874 5.011719 5.097656 3.417969 8.355468-1.085937 2.21875-3.601562 3.644532-5.953125 3.378906-.957031-.109374-.855468.023438.207032.261719.9375.214844 2.652343.160157 3.546874-.117187zm0 0" fill="#fff"/><path d="m24 9c-8.273438 0-15 6.726562-15 15s6.726562 15 15 15 15-6.726562 15-15-6.726562-15-15-15zm0 1.609375c7.40625 0 13.390625 5.984375 13.390625 13.390625s-5.984375 13.390625-13.390625 13.390625-13.390625-5.984375-13.390625-13.390625 5.984375-13.390625 13.390625-13.390625zm0 0" fill="#fff"/></g></svg>