<svg height="48pt" viewBox="0 0 48 48" width="48pt" xmlns="http://www.w3.org/2000/svg"><g fill-rule="evenodd"><path d="m11.210938 2.847656h25.578124c4.621094 0 8.363282 3.742188 8.363282 8.363282v25.578124c0 4.621094-3.742188 8.363282-8.363282 8.363282h-25.578124c-4.621094 0-8.363282-3.742188-8.363282-8.363282v-25.578124c0-4.621094 3.742188-8.363282 8.363282-8.363282zm0 0" fill="#ececec"/><path d="m11.207031 2.847656c-4.632812 0-8.359375 3.726563-8.359375 8.359375v24.140625c.269532-.058594.683594-.238281.921875-.28125 2.742188-.519531 4.871094-.769531 6.730469-.75 1.859375.023438 3.441406.320313 5.09375.890625 1.539062.535157 1.96875.59375 3.59375.507813 1.394531-.070313 2.929688-.34375 4.421875-.765625 1.496094-.417969 2.949219-.988281 4.183594-1.65625 1.121093-.605469 1.5625-1.105469 2.222656-1.839844-.226563.035156-.453125.066406-.675781.089844-.703125.050781-1.390625.054687-2.0625.011719-.671875-.042969-1.328125-.132813-1.964844-.269532-.636719-.136718-1.253906-.316406-1.847656-.542968-.597656-.226563-1.167969-.5-1.714844-.816407-.386719-.222656-.761719-.46875-1.125-.734375-.507812-.378906-.992188-.796875-1.445312-1.257812-.453126-.460938-.878907-.960938-1.269532-1.5-.394531-.539063-.753906-1.113282-1.078125-1.726563-.328125-.613281-.621093-1.257812-.878906-1.9375-.257813-.679687-.480469-1.386719-.667969-2.125-.1875-.742187-.339844-1.507812-.453125-2.300781-.117187-.792969-.191406-1.609375-.234375-2.445312-.039062-.835938-.042968-1.691407-.007812-2.566407.035156-.871093.105468-1.761719.214844-2.664062.105468-.898438.25-1.8125.433593-2.734375.179688-.917969.398438-1.84375.648438-2.773438.214843-.769531.453125-1.542968.710937-2.3125zm0 0" fill="#ececec"/><path d="m16.597656 2.847656c-.257812.769532-.496094 1.542969-.710937 2.3125-.25.929688-.46875 1.855469-.648438 2.773438-.183593.921875-.328125 1.835937-.433593 2.734375-.109376.902343-.179688 1.792969-.214844 2.664062-.035156.875-.03125 1.730469.007812 2.566407.042969.835937.117188 1.652343.234375 2.445312.113281.792969.265625 1.558594.453125 2.300781.1875.738281.410156 1.445313.667969 2.125.257813.679688.550781 1.324219.878906 1.9375.324219.613281.683594 1.1875 1.078125 1.726563.390625.539062.816406 1.039062 1.269532 1.5.453124.460937.9375.878906 1.445312 1.257812.363281.265625.738281.511719 1.125.734375.546875.316407 1.117188.589844 1.714844.816407.59375.226562 1.210937.40625 1.847656.542968.636719.136719 1.292969.226563 1.964844.269532.671875.042968 1.359375.039062 2.0625-.011719.699218-.046875 1.414062-.144531 2.136718-.285157.722657-.144531 1.453126-.332031 2.191407-.566406s1.480469-.511718 2.222656-.835937c.746094-.320313 1.488281-.6875 2.234375-1.09375.742188-.410157 1.484375-.859375 2.222656-1.347657.734375-.488281 1.464844-1.019531 2.1875-1.582031.71875-.566406 1.429688-1.171875 2.132813-1.808593.160156-.15625.324219-.316407.484375-.472657v-4.289062c-.132813.164062-.265625.328125-.398438.492187-.492187.566406-1 1.109375-1.515625 1.632813-.519531.523437-1.046875 1.019531-1.585937 1.492187-.539063.46875-1.089844.914063-1.644532 1.328125-.554687.417969-1.113281.800781-1.679687 1.15625-.5625.359375-1.128906.683594-1.699219.976563-.566406.292968-1.136718.554687-1.703125.78125-.570312.226562-1.132812.417968-1.695312.578125-.558594.15625-1.113281.277343-1.660157.367187-.546874.089844-1.085937.140625-1.617187.15625-.527344.019532-1.046875 0-1.550781-.054687-.507813-.050781-1-.140625-1.476563-.265625-.480469-.125-.941406-.28125-1.382812-.476563-.316407-.136719-.621094-.289062-.914063-.460937-.417968-.242188-.816406-.515625-1.195312-.824219-.375-.304687-.730469-.644531-1.066406-1.011719-.332032-.371094-.640626-.769531-.925782-1.199218-.285156-.425782-.546875-.882813-.78125-1.363282-.234375-.484375-.441406-.992187-.625-1.523437-.179687-.535157-.335937-1.089844-.460937-1.664063-.128907-.578125-.226563-1.175781-.296875-1.792968-.070313-.613282-.113282-1.246094-.128906-1.894532-.015626-.648437 0-1.308594.042968-1.984375.042969-.671875.113282-1.355469.210938-2.050781.101562-.691406.226562-1.390625.382812-2.097656.152344-.703125.335938-1.414063.542969-2.125.210937-.707032.445313-1.417969.703125-2.128906.261719-.707032.546875-1.414063.855469-2.113282.054687-.117187.109375-.230468.164062-.34375zm0 0" fill="#3191cd"/></g><path d="m23.078125 17.96875c-.515625-.015625-1.0625.026042-1.744792.15625-.1875.036458-.651041.151042-.893229.229167-.825521.260416-1.929687.796875-2.455729 1.192708l-.111979.085937c-.252604.200521-.484375.421876-.622396.729167l-.049479.101563c-.046875.09375-.052083.098958-.106771.088541-.03125-.007812-.257812-.013021-.5-.013021-.40625 0-.460938.005209-.682292.052084-.559896.119792-1.091146.354166-1.565104.692708l-.138021.098958-.096354-.072916c-.125-.096354-.484375-.270834-.651041-.320313-.380209-.106771-.786459-.145833-1.367188-.127604-1.515625.044271-2.763021.346354-3.942708.955729-.648438.335938-1.315104.791667-1.664063 1.138021-.226562.223959-.317708.388021-.351562.627604-.018229.148438-.020834.151042-.088542.174479-.122396.044271-.609375.291667-.700521.356771-.080729.057292-.088542.072917-.088542.140625 0 .085938.039063.195313.078126.21875.018229.013021.020833.007813.010416-.018229-.036458-.091146-.052083-.197917-.03125-.236979.03125-.057292.356771-.242188.614584-.346354l.221354-.091146.015625.104167c.007812.057291.03125.143229.052083.190104.028646.0625.03125.088541.013021.09375-.013021.002604-.138021.044271-.28125.09375-.143229.046875-.309896.098958-.367188.114583-.117187.03125-.15625.0625-.164062.130208-.002604.023438-.005209.054688-.010417.070313-.002604.013021.026042.041667.070313.065104.127604.067709.28125.054688.557291-.049479.125-.049479.234375-.083333.242188-.075521.007812.007813.03125.065104.057292.127604.119791.307292.346354.697917.533854.919271.190104.223958.486979.421875.76302.513021l.098959.03125-.393229.385417c-.450521.445312-1.138021 1.16927-1.138021 1.197916 0 .03125.091146.208334.153646.29948.070312.101562.195312.226562.322916.328124.057292.044271.109375.08073.114584.08073.005208 0 .315104-.29948.684895-.664063.372396-.367187.864584-.841146 1.098959-1.059896l.421875-.395833h.231771c.205729-.002604.617187-.033854.888021-.070312.260416.369791.549479.924479.302083-.039063.002604-.002604.091146-.023437.195312-.044271 1.596355-.325521 2.955729-1.049479 3.703125-1.971354.276042-.341146.364584-.580729.369792-1.005208l.002604-.252604.078125-.026042c.041667-.015625.231771-.085938.421875-.153646.731771-.270833.859375-.309896 1.192708-.372396.434896-.078125 1.11198-.192708 1.117188-.1875.002604.002604.026042.052084.057292.109375.140625.283854.364583.533854.59375.658854.260416.145834.705729.283855 1.135416.354167 1.309896.216146 2.997396-.088542 4.414063-.794271.111979-.054687.25-.127604.307291-.161458.083334-.049479.114584-.057292.171876-.046875.15625.028646.992187.223958 1.005208.236979.148437.033854.369792.101563.369792.101563.010416-.013021.057291-.002605.851562.208333.361979.096354.669271.169271.684896.161458.026042-.007812.106771-.197917.145833-.346354.03125-.111979.046875-.372396.03125-.473958l-.013021-.088542-.28125-.088542c-.309896-.096354-1.140625-.333333-1.476562-.419271l-.213542-.054687-.020833-.075521c-.020833-.070312-.015625-.080729.072917-.210937.114583-.166667.197916-.356771.252604-.580729.039062-.145834.04427-.21875.04427-.578126 0-.265624-.007812-.458333-.026041-.549479-.013021-.078125-.020833-.145833-.015625-.151041.007812-.005209.114583-.028646.236979-.046875.315104-.049479.460937-.122396.536458-.268229.033855-.065105.033855-.072917 0-.072917-.015625 0-.03125-.010417-.03125-.026042 0-.013021-.026041-.036458-.057291-.049479-.046875-.020833-.083334-.015625-.244792.026042-.164062.041666-.539062.117187-.591146.117187-.010416 0-.026042-.049479-.033854-.109375s-.028646-.143229-.049479-.184896l-.041667-.072916.0625-.013021c.205729-.033854.421875-.049479.648438-.046875l.257812.007812.033854.083334c.01823.049479.039063.104166.044271.122396.020833.065104.033854.015624.020833-.072917-.007812-.049479-.033854-.111979-.059895-.143229l-.049479-.057292h-.216146c-.203125 0-.578125.026042-.6875.046875-.041667.010417-.057292 0-.11198-.083333-.10677-.166667-.29427-.296875-.552083-.385417-.007812-.002604-.041667-.007813-.054687-.010417-.002604-.002604-.010417 0-.013021 0-.557292-.080729-1.041667-.148437-1.559896-.161458zm-.148437.046875c.359374 0 .721354.013021.914062.036458.585938.075521.809896.127605 1.010417.234375.067708.036459.109375.0625.091145.057292-.330729-.096354-.684895-.174479-1.072916-.234375-.385417-.057292-1.184896-.080729-1.575521-.046875-.992187.091146-1.914063.354167-2.960937.84375-.567709.294271-1.158855.580729-1.669271 1.057292-.169271.177083-.252605.302083-.315105.48177-.020833.065105-.04427.17448-.054687.239584l-.015625.122396-.002604-.11198c0-.09375-.007813-.114583-.041667-.122395-.049479-.013021-.049479-.023438.028646-.171875.200521-.395834.585937-.773438 1.096354-1.078125.169271-.101563.513021-.286459.567709-.304688.046874-.015625.046874-.015625.01302.010417-.085937.065104.023438.020833.356771-.148438.838542-.424479 1.752604-.703125 2.71875-.828125.190104-.023437.549479-.036458.911459-.036458zm-.210938.057292c.255208-.007813.507812-.002605.664062.010416.278646.023438.70573.078125.695313.091146-.005208.002604-.098958-.002604-.208333-.013021-1.041667-.101562-2.036459-.036458-2.942709.200521-.341145.085938-.380208.09375-.208333.036459.34375-.114584.880208-.229167 1.328125-.286459.161458-.020833.416667-.033854.671875-.039062zm.53125.098958c.15625.005208.3125.018229.46875.03125.010417-.002604.020833-.007813.033854-.013021.304688.033854.507813.067708.669271.106771.020833.002604.044271.005208.065104.007813l-.018229.005208c.104167.028646.203125.057292.278646.09375.197916.098958.276042.190104.395833.460937.072917.164063.072917.166667.033854.179688-.119791.044271-.723958.182291-1.361979.309896-.807292.164062-1.088542.229166-1.338542.317708-.145833.049479-.328124.132813-.236979.106771.455729-.135417 1.768229-.432292 2.450521-.557292.09375-.018229.257813-.052083.359375-.075521l.190104-.044271.026042.088542.023437.088542-.270833.078125c-1.601562.466146-2.273437.648437-2.71875.742187-.361979.075521-.369791.072917-.369791-.104166 0-.072917.010416-.098959.039062-.114584.057292-.028646.046875-.072916-.023438-.117187-.04427-.026042-.083333-.033854-.130208-.026042-.177083.026042-2.440104.757813-3.921875 1.268229-.247396.085938-.455729.153646-.466146.153646-.015625 0-.026041-.052083-.041666-.203125l.104166-.328125-.080729.026042c.289063-1.114584 2.971354-2.559896 5.841146-2.481771zm.888021.013021c.015625-.005208.03125-.002604.036458.002604.007813.007812-.002604.010417-.023437.010417-.023438 0-.028646-.005209-.013021-.013021zm.703125.166666c.036458 0 .278646.085938.304687.109376.018229.015624.036459.059895.044271.096354.005208.039062.085938.29427.174479.565104.140625.427083.234375.789062.208334.8125-.002605.005208-.026042.010416-.049479.013021-.026042.002604-.057292.010416-.075521.018229-.026042.010416-.03125-.015625-.041667-.177084-.033854-.515624-.239583-1.10677-.46875-1.333333-.057292-.057291-.101562-.104167-.096354-.104167zm.377604.213542c.002604-.002604.010417.002604.020833.023438.013021.018229.018229.039062.013021.041666-.005208.005209-.015625-.002604-.020833-.020833-.010417-.023437-.013021-.039063-.013021-.044271zm.065104.205729c-.002604-.015625.002604-.005208.018229.020834.015625.026041.033855.080729.041667.119791.018229.096354.002604.091146-.026042-.010416-.020833-.072917-.03125-.114584-.033854-.130209zm.700521.216146c.028646-.002604.041667.005209.054687.018229.028646.026042.026042.033854-.023437.078125-.028646.026042-.117187.070313-.197917.096355-.080729.026041-.174479.052083-.205729.059895-.057291.013021-.0625.007813-.080729-.065104-.023438-.088541-.049479-.072917.289062-.153646.085938-.020833.132813-.03125.164063-.033854zm-.549479.127604c.041666 0 .049479.015625.078125.135417.018229.072917.046875.221354.0625.328125.033854.21875.028646.286458-.007813.114583-.018229-.096354-.117187-.416666-.166666-.54427-.010417-.023438-.002604-.033855.033854-.033855zm-.140625.307292c.041667 0 .054687.054687.078125.398437.020833.270834-.002604.632813-.049479.820313-.065105.242187-.294271.611979-.294271.611979-.010417.018229-.052084.0625-.091146.098958l-.072917.070313-.338541-.072917c-.934896-.203125-2.083334-.35677-2.932292-.398437-.385417-.018229-.5625-.015625-1.049479.010417l-.161459.007812.442709-.153646c1.013021-.348958 1.200521-.421875 1.25-.481771.026041-.028645.046875-.075521.046875-.101562 0-.026042.007812-.046875.015625-.046875.114583 0 .679687-.130208 1.169271-.268229.869791-.247396 1.867187-.494792 1.986979-.494792zm-7.25.265625c-.010417.015625-.057292.0625-.143229.145833-.203125.200521-.34375.393229-.463542.630209-.065104.135416-.072917.158854-.080729.354166-.005209.122396.002604.257813.015625.322917.023437.127604.200521.664063.265625.809896.023437.052083.039062.096354.036458.101562-.015625.013021-.135417-.28125-.21875-.528645-.138021-.419271-.166667-.679688-.111979-.940105.067708-.322916.289062-.617187.643229-.864583.046875-.033854.070313-.046875.057292-.03125zm1.867187.135417-.143229.049479c.046875-.015625.096354-.03125.143229-.049479zm-3.354166.726562h.158854l.020833.059896c.013021.033854.018229.059896.015625.0625s-.125.015625-.270833.028646c-.481771.041667-1.0625.192708-1.473959.388021-.101562.049479-.226562.114583-.28125.145833-.10677.0625-.122395.057292-.122395-.046875 0-.046875.109375-.119792.393229-.260417.46875-.231771 1.070312-.377604 1.559896-.377604zm.739583.260417v.117187c0 .153646.039063.328125.140625.638021.148438.442708.317708.744792.5625.984375.15625.153646.421875.338542.463542.320313.015625-.005209.020833-.002604.015625.007812-.013021.020834.208333.119792.403645.179688.505209.15625 1.533855.210937 2.239584.119791.809896-.104166 1.705729-.380208 2.458333-.755208.273438-.135417.427083-.223958.799479-.466146.15625-.101562.289063-.182291.294271-.179687.002604.005208-.020833.03125-.054687.057291-1.01823.768229-2.492188 1.304688-3.929688 1.427084-.270833.023437-.807292.023437-1.067708-.002605-.421875-.039062-.885417-.145833-1.226563-.283854-.419271-.16927-.640625-.38802-.859375-.846354-.190104-.401042-.434896-1.213542-.359375-1.192708.010417.002604.041667-.023438.070313-.059896zm-1.432292.015625c.023438 0 .03125.007812.041667.023437.013021.01823.026042.039063.026042.046875 0 .007813-.065104.03125-.140625.054688-.078125.020833-.177084.052083-.223959.067708-.117187.036459-.13802.033854-.13802-.018229s.052083-.075521.309895-.145833c.067709-.018229.101563-.026042.125-.028646zm.893229.013021c.127605.002604.23698.015625.289063.039062.067708.028646.067708.028646.091146.197917.013021.09375.015625.174479.007812.182291-.007812.007813-.296875.11198-.640625.234376l-.630208.221354-.630208.114583c-.346354.0625-.653646.119792-.682292.125-.044271.010417-.052083.002604-.088542-.101563-.023437-.0625-.041666-.127604-.041666-.145833 0-.052083.166666-.216146.317708-.309896.377604-.231771 1.036458-.450521 1.604167-.533854.127604-.018229.276041-.026041.403645-.023437zm-4.276041.041666c.390625.010417.786458.070313 1.049479.166667.203125.072917.455729.205729.484375.255208.013021.020834.041667.054688.0625.072917.023437.018229.070313.09375.104167.166667.033854.072916.07552.143229.091146.15625.046874.039062.135416.252604.195312.471354.200521.716146.203125 1.268229.010417 1.645833-.158855.3125-.700521.851563-1.169271 1.164063-.979167.651041-2.221354 1.067708-3.565104 1.195312-.502604.049479-1.213542.026042-1.497396-.046875-.072917-.018229-.070313-.018229.03125-.007812.057292.005208.177083.018229.268229.028646.244792.03125.963542.026041 1.296875-.010417.838542-.088542 1.632812-.296875 2.364583-.619792.317709-.140625.700521-.348958.778646-.421875.026042-.026042.138021-.111979.242188-.184896.59375-.41927 1.052083-.932291 1.164062-1.299479.013021-.044271.03125-.078125.039063-.072917.033854.020834.065104-.203124.0625-.458333 0-.226562-.010417-.322917-.070313-.630208-.101562-.513021-.119791-.575521-.216146-.729167-.101562-.161458-.203125-.260416-.385416-.367187-.445313-.263021-1-.377605-1.882813-.388021l-.229166-.002604.364583-.046875-.125-.005209c-.096354-.005208-.0625-.007812.143229-.023437.125-.007813.255208-.010417.388021-.007813zm-.799479.088542c0 .007812-.130209.028646-.286459.046875-1.591145.190104-2.796875.619792-3.984375 1.419271-.401041.270833-.674479.481771-.833333.643229-.161458.161458-.192708.21875-.231771.403646-.059896.28125.054688.815104.294271 1.369791.041667.101563.078125.192709.078125.203126 0 .010416-.015625.023437-.036458.028645-.04948.013021-.125-.09375-.242188-.338541-.088542-.184896-.192708-.513021-.166666-.523438.059895-.020833.0625-.036458.01302-.145833-.036458-.078125-.057291-.164063-.070312-.307292-.023438-.247396-.002604-.338541.140625-.554687.122396-.184896.28125-.34375.583333-.578125 1.052084-.8125 2.231771-1.335938 3.528646-1.559896.424479-.072917 1.213542-.143229 1.213542-.106771zm.799479.070312c.583333.026042.992187.148438 1.377604.401042.148437.098958.21875.179688.309896.361979.104167.208334.104167.210938.007812.226563-.539062.080729-3.041666.59375-4.236979.867187-.34375.080729-.372396.114584-.307292.375.015626.065105.028646.127605.028646.145834 0 .036458-.265625.130208-.716146.255208-.552083.153646-2.257812.578125-2.3125.578125-.03125-.002604-.07552.005208-.101562.013021-.046875.015625-.065104-.007813-.067708-.104167-.005209-.075521-.033854-.0625.91927-.372396.911459-.29427 1.210938-.385416 1.585938-.486979.351562-.09375.367188-.098958.242188-.083333-.203126.020833-.526042.111979-1.221355.34375-1.138021.377604-1.523437.489583-1.559895.453125-.03125-.03125-.044271-.429688-.01823-.539063.04948-.208333.234375-.421875.625-.723958.927084-.713542 1.851563-1.169271 2.947917-1.447917.570313-.143229 1.114583-.221354 1.851563-.257812.239583-.013021.453124-.015625.645833-.005209zm8.307291.796876c.802084.005208 1.567709.09375 2.536459.270833.252604.046875.46875.085937.476562.085937.049479 0-.041666.054688-.291666.179688-.783855.388021-1.645834.643229-2.520834.747396-.302083.036458-.908854.049479-1.164062.026041-.742188-.065104-1.398438-.276041-1.700521-.546875-.158854-.140625-.375-.445312-.341146-.479166.007813-.005209.117188-.026042.247396-.044271 1.114583-.164063 1.953125-.244792 2.757812-.239583zm-2.177083 1.085937c.005209-.002604.026042.002604.046875.013021.023438.013021.140625.049479.265625.085937.125.036459.210938.067709.1875.067709-.078125 0-.520833-.145834-.5-.166667zm-4.195312.091146c.013021 0 .015625.070312.007812.216146-.018229.364583-.109375.578125-.388021.911458-.70052.833333-1.911458 1.481771-3.328125 1.786458-.171875.036459-.317708.067709-.322916.067709-.03125-.140625-.078125-.296875-.096355-.445313l-.052083-.125-.023437-.15625.16927-.143229c.859376-.661458 1.851563-1.223958 3-1.700521.484376-.200521 1.010417-.411458 1.033855-.411458zm4.757812.083333c.013021-.005208.036459-.005208.049479 0 .013021.005208.002604.007813-.023437.007813-.028646 0-.039063-.002605-.026042-.007813zm.117188.018229c.013021-.005208.033854-.005208.046875 0 .01302.005209.002604.010417-.023438.010417s-.036458-.005208-.023437-.010417zm.135416.018229c.013021-.005208.03125-.002604.036459.002605.007812.007812-.005209.010416-.023438.010416-.023437 0-.028646-.005208-.013021-.013021zm-7.888021.1875c.010417 0-.109374.065105-.26302.145834-.822917.429687-1.567709.950521-2.632813 1.841146-.184896.15625-.421875.361979-.528646.455729-.104166.096354-.195312.171875-.200521.171875-.039062-.002604-.328124-.119792-.403645-.161458-.307292-.177084-.585938-.5-.807292-.9375-.078125-.153646-.177083-.385417-.177083-.411459 0-.039062.973958-.320312 1.98177-.570312.572917-.143229.710938-.182292 1.04948-.307292l.117187-.041667.049479.04948c.028646.026041.070313.054687.096354.0625.04948.010416.341146-.036459 1.161459-.195313.299479-.057292.549479-.101563.557291-.101563zm-5.335937.932292c.007813.007813.018229.041667.020833.078125l.005209.067709-.164063.041666c-.15625.039063-.289062.052084-.341146.03125-.028646-.010416-.03125-.075521-.002604-.09375.044271-.026042.46875-.138021.481771-.125zm3.822917 1.296875c0 .020833.010416.085938.020833.138021.018229.083333.028646.096354.067708.096354.044271 0 .052084.015625.072917.208334.002604.023437-.039062.033854-.169271.052083-.096354.013021-.3125.028646-.481771.036458l-.307291.010417.091145-.085938c.04948-.046875.223959-.195312.382813-.328125zm0 0" fill="#666" stroke="#666" stroke-width=".3" transform="scale(1.5)"/></svg>