<svg height="48pt" viewBox="0 0 48 48" width="48pt" xmlns="http://www.w3.org/2000/svg"><path d="m11.210938 2.847656h25.578124c4.621094 0 8.363282 3.742188 8.363282 8.363282v25.578124c0 4.621094-3.742188 8.363282-8.363282 8.363282h-25.578124c-4.621094 0-8.363282-3.742188-8.363282-8.363282v-25.578124c0-4.621094 3.742188-8.363282 8.363282-8.363282zm0 0" fill="#ccc" fill-rule="evenodd"/><path d="m16.5 14.25 3 4.5h-6l-.75 3h-3.75l.75-4.5h-2.25l-1.5 9h5.398438l-.898438 3h5.25l-3.75 4.5h4.5l3-4.5h9l3 4.5h4.5l-3.75-4.5h5.25l-.898438-3h5.398438l-1.5-9h-2.25l.75 4.5h-3.75l-.75-3h-6l3-4.5h-2.25l-3 4.5h-4.5l-3-4.5zm0 0" fill="#565656"/><path d="m28.5 21.75v3h3v-3zm0 0" fill="#fff"/><path d="m16.5 21.75v3h3v-3zm0 0" fill="#fff"/></svg>