<svg height="48pt" viewBox="0 0 48 48" width="48pt" xmlns="http://www.w3.org/2000/svg"><path d="m11.210938 2.847656h25.578124c4.621094 0 8.363282 3.742188 8.363282 8.363282v25.578124c0 4.621094-3.742188 8.363282-8.363282 8.363282h-25.578124c-4.621094 0-8.363282-3.742188-8.363282-8.363282v-25.578124c0-4.621094 3.742188-8.363282 8.363282-8.363282zm0 0" fill="#2c80c2" fill-rule="evenodd"/><path d="m18 36-3-3h-6v-21h30v21h-6l-3 3zm0 0" fill="#164061"/><g fill="#f8c44e"><path d="m13.5 15h3v-3h-3zm0 0"/><path d="m18 15h3v-3h-3zm0 0"/><path d="m22.5 15h3v-3h-3zm0 0"/><path d="m27 15h3v-3h-3zm0 0"/><path d="m31.5 15h3v-3h-3zm0 0"/></g></svg>