<svg height="48pt" viewBox="0 0 48 48" width="48pt" xmlns="http://www.w3.org/2000/svg"><g fill-rule="evenodd"><path d="m33.167969 14.71875h7.863281c1.207031 0 2.300781.488281 3.089844 1.277344.640625.640625.886718 1.566406 1.03125 2.503906v-7.289062c0-4.636719-3.726563-8.363282-8.363282-8.363282h-7.394531c.9375.144532 1.859375.394532 2.496094 1.035156.792969.789063 1.277344 1.878907 1.277344 3.085938zm0 0" fill="#ececec"/><path d="m2.847656 29.394531v7.394531c0 4.632813 3.730469 8.363282 8.363282 8.363282h7.667968c-1.0625-.089844-2.0625-.433594-2.773437-1.144532-.789063-.789062-1.277344-1.878906-1.277344-3.089843v-7.746094h-7.859375c-1.207031 0-2.296875-.488281-3.085938-1.28125-.640624-.636719-.890624-1.558594-1.035156-2.496094zm0 0" fill="#ececec"/><path d="m2.847656 29.394531c.144532.9375.394532 1.859375 1.035156 2.496094.789063.792969 1.878907 1.28125 3.085938 1.28125h7.859375v-14.085937c0-1.207032.488281-2.300782 1.277344-3.089844.792969-.789063 1.882812-1.277344 3.09375-1.277344h13.96875v-7.75c0-1.207031-.484375-2.296875-1.277344-3.085938-.636719-.640624-1.558594-.890624-2.496094-1.035156h-18.183593c-4.632813 0-8.363282 3.726563-8.363282 8.363282zm0 0" fill="#db7da0"/></g><path d="m39.28125 34.917969v-21.835938c0-2.410156-1.953125-4.363281-4.363281-4.363281h-21.835938c-2.410156 0-4.363281 1.953125-4.363281 4.363281v21.835938c0 2.410156 1.953125 4.363281 4.363281 4.363281h21.835938c2.410156 0 4.363281-1.953125 4.363281-4.363281zm0 0" fill="#a6eb7d"/><path d="m45.152344 18.5c-.144532-.9375-.390625-1.863281-1.03125-2.503906-.789063-.789063-1.882813-1.277344-3.089844-1.277344h-21.832031c-1.210938 0-2.300781.488281-3.09375 1.277344-.789063.789062-1.277344 1.882812-1.277344 3.089844v21.832031c0 1.210937.488281 2.300781 1.277344 3.089843.710937.710938 1.710937 1.054688 2.773437 1.144532h17.910156c4.636719 0 8.363282-3.730469 8.363282-8.363282zm0 0" fill="#5fa6fa" fill-rule="evenodd"/><g fill="#fff"><path d="m27.808594 23.96875c-.421875.003906-.757813.351562-.75.773438v12.226562c-.003906.359375.242187.671875.589844.753906.164062.039063.335937.019532.492187-.046875.304687.019531 1.535156.144531 3.097656-.5625 1.746094-.792969 3.515625-2.691406 3.480469-6.253906-.035156-3.554687-1.796875-5.445313-3.523438-6.238281-1.515624-.695313-2.65625-.574219-3-.550782-.117187-.070312-.25-.105468-.386718-.101562zm.777344 1.671875c.441406 0 .992187-.078125 1.96875.371094 1.3125.601562 2.605468 1.769531 2.636718 4.863281.03125 3.085938-1.253906 4.242188-2.582031 4.84375-.996094.453125-1.574219.375-2.023437.375zm0 0"/><path d="m36.992188 23.980469c-.152344 0-.300782.050781-.425782.136719 0 0-.003906 0-.003906.003906-.019531.011718-.039062.027344-.054688.039062-.019531.015625-.035156.03125-.050781.046875-.003906.003907-.007812.003907-.011719.007813 0 .003906-.003906.007812-.007812.007812-.03125.039063-.0625.078125-.085938.117188-.101562.160156-.144531.351562-.113281.539062v5.847656c-.015625.085938-.015625.175782 0 .265626v5.988281c-.003906.273437.140625.53125.378907.667969.238281.140624.53125.140624.769531 0 .238281-.136719.382812-.394532.378906-.667969v-5.351563h5.351563c.273437.003906.53125-.140625.667968-.378906.140625-.238281.140625-.53125 0-.769531-.136718-.238281-.394531-.382813-.667968-.378907h-5.351563v-4.585937h5.351563c.273437.003906.53125-.140625.667968-.378906.140625-.238281.140625-.53125 0-.769531-.136718-.238282-.394531-.382813-.667968-.378907h-6c-.042969-.007812-.085938-.007812-.125-.007812zm0 0"/><path d="m18.652344 23.980469c-.210938 0-.410156.089843-.550782.242187-.003906.007813-.011718.011719-.015624.019532-.160157.175781-.226563.410156-.1875.640624v5.847657c-.015626.089843-.015626.179687 0 .265625v5.984375c-.003907.273437.140624.53125.378906.667969.238281.140624.53125.140624.769531 0 .238281-.136719.382813-.394532.378906-.667969v-5.386719c.542969.039062 1.195313.144531 2.4375-.09375.839844-.160156 1.71875-.445312 2.4375-1.027344.722657-.582031 1.238281-1.515625 1.238281-2.664062 0-1.148438-.515624-2.078125-1.238281-2.660156-.71875-.582032-1.597656-.867188-2.4375-1.027344-1.53125-.296875-2.757812-.140625-3.003906-.113282-.066406-.019531-.136719-.027343-.207031-.027343zm.773437 1.558593c.460938-.03125 1.097657-.121093 2.148438.082032.6875.132812 1.339843.371094 1.765625.714844.425781.34375.671875.738281.671875 1.472656s-.246094 1.132812-.671875 1.476562c-.425782.34375-1.078125.582032-1.765625.714844-1.050781.199219-1.6875.113281-2.148438.082031zm0 0"/></g></svg>