<svg height="48pt" viewBox="0 0 48 48" width="48pt" xmlns="http://www.w3.org/2000/svg" xmlns:xlink="http://www.w3.org/1999/xlink"><clipPath id="a"><path d="m0 0h48v48h-48z"/></clipPath><path d="m10.316406 2.847656h25.578125c4.621094 0 8.363281 3.742188 8.363281 8.363282v25.578124c0 4.621094-3.742187 8.363282-8.363281 8.363282h-25.578125c-4.617187 0-8.363281-3.742188-8.363281-8.363282v-25.578124c0-4.621094 3.746094-8.363282 8.363281-8.363282zm0 0" fill="#f2f2f2" fill-rule="evenodd"/><path d="m44.265625 24c0 11.683594-9.472656 21.15625-21.160156 21.15625-11.683594 0-21.15625-9.472656-21.15625-21.15625s9.472656-21.15625 21.15625-21.15625c11.6875 0 21.160156 9.472656 21.160156 21.15625zm0 0" fill="#56aad4"/><g fill-rule="evenodd"><g fill="#56aad4"><path d="m34.035156 2.847656h-14.050781l12.136719 12.136719-.003906.003906c.140624.136719.273437.28125.40625.425781.285156.316407.550781.644532.804687.984376.253906.34375.488281.699218.707031 1.0625zm0 0"/><path d="m44.257812 18.304688v-7.097657c0-4.632812-3.726562-8.359375-8.359374-8.359375h-.042969v21.152344c0 .195312-.007813.390625-.015625.585938-.023438.425781-.0625.847656-.128906 1.269531-.0625.417969-.148438.835937-.253907 1.246093zm-2.992187-12.195313c.234375.246094.464844.5.6875.753906-.230469-.25-.449219-.511719-.6875-.753906zm1.578125 1.769531c.238281.296875.472656.601563.695312.914063-.226562-.308594-.453124-.617188-.695312-.914063zm1.425781 1.929688c.21875.324218.417969.652344.621094.988281-.199219-.335937-.40625-.664063-.621094-.988281zm1.246094 2.070312c.1875.34375.363281.691406.535156 1.042969-.167969-.351563-.347656-.699219-.535156-1.042969zm0 0"/><path d="m44.257812 34.925781v-14.046875l-12.136718 12.136719-.003906-.003906c-.136719.136719-.28125.273437-.425782.402343-.3125.285157-.644531.554688-.984375.808594-.34375.25-.695312.488282-1.0625.703125zm0 0"/><path d="m28.804688 45.152344h7.09375c4.632812 0 8.359374-3.726563 8.359374-8.359375v-.042969h-21.152343c-.195313 0-.390625-.007812-.585938-.019531-.421875-.019531-.84375-.0625-1.265625-.125s-.835937-.148438-1.25-.253907zm12.191406-2.992188c-.230469.214844-.464844.429688-.703125.640625.234375-.214843.476562-.421875.703125-.640625zm-1.789063 1.597656c-.273437.21875-.554687.429688-.835937.636719.28125-.210937.566406-.417969.835937-.636719zm0 0"/><path d="m12.179688 45.152344h14.050781l-12.140625-12.136719.003906-.003906c-.136719-.136719-.269531-.28125-.402344-.425781-.285156-.3125-.554687-.644532-.808594-.988282-.25-.339844-.488281-.695312-.703124-1.058594zm0 0"/><path d="m1.953125 29.695312v7.097657c0 4.632812 3.730469 8.359375 8.363281 8.359375h.039063v-21.152344c.003906-.195312.007812-.390625.019531-.585938.019531-.421874.0625-.847656.125-1.265624.0625-.421876.148438-.839844.253906-1.25zm.683594 9.464844c.242187.328125.480469.65625.734375.96875-.25-.316406-.496094-.640625-.734375-.96875zm1.621093 1.976563c.226563.253906.453126.507812.691407.75-.238281-.246094-.46875-.496094-.691407-.75zm0 0"/><path d="m1.953125 13.074219v14.046875l12.136719-12.136719.003906.003906c.140625-.136719.28125-.273437.429688-.40625.3125-.28125.640624-.550781.984374-.804687.339844-.25.695313-.488282 1.058594-.707032zm0 0"/><path d="m17.410156 2.847656h-7.09375c-4.632812 0-8.363281 3.726563-8.363281 8.359375v.042969h21.152344c.195312 0 .390625.007812.585937.019531.425782.019531.847656.0625 1.269532.125.417968.0625.835937.148438 1.246093.253907zm-9.511718.71875c-.308594.226563-.617188.453125-.914063.695313.300781-.238281.605469-.472657.914063-.695313zm-1.929688 1.585938c-.25.230468-.511719.449218-.753906.6875.246094-.234375.5-.460938.753906-.6875zm0 0"/></g><path d="m17.410156 2.847656 8.796875 8.800782c-.410156-.105469-.828125-.191407-1.246093-.253907-.421876-.0625-.84375-.105469-1.269532-.125-.195312-.011719-.390625-.019531-.585937-.019531h-21.152344v1.824219h14.613281c-.363281.214843-.71875.453125-1.058594.703125-.34375.253906-.671874.523437-.984374.804687-.148438.132813-.289063.269531-.429688.40625l-.003906-.003906-12.136719 12.140625v2.570312l8.800781-8.796874c-.105468.410156-.191406.828124-.253906 1.25-.0625.417968-.105469.84375-.125 1.265624-.011719.195313-.015625.390626-.019531.585938v21.152344h1.824219v-14.613282c.214843.363282.453124.71875.703124 1.058594.253907.34375.523438.675782.808594.988282.132813.144531.265625.289062.402344.425781l-.003906.003906 12.140625 12.136719h2.574219l-8.800782-8.800782c.414063.105469.828125.191407 1.25.253907s.84375.105469 1.265625.128906c.195313.007813.390625.015625.585938.015625h21.152343v-1.824219h-14.613281c.367188-.214843.71875-.453125 1.0625-.703125.339844-.253906.671875-.523437.984375-.804687.144532-.132813.289063-.269531.425782-.40625l.003906.003906 12.136718-12.136719v-2.574218l-8.800781 8.796874c.105469-.410156.191407-.828124.253907-1.246093.066406-.421875.105468-.84375.128906-1.269531.007812-.195313.015625-.390626.015625-.585938v-21.152344h-1.820313v14.613282c-.21875-.363282-.453125-.71875-.707031-1.058594-.253906-.34375-.519531-.671875-.804687-.988282-.132813-.144531-.265626-.289062-.40625-.425781l.003906-.003906-12.136719-12.136719zm0 0" fill="#f2f2f2"/></g><g clip-path="url(#a)"><path d="m42.40625 34.21875c0 4.972656-4.027344 9-9 9-4.96875 0-9-4.027344-9-9 0-4.96875 4.03125-9 9-9 4.972656 0 9 4.03125 9 9zm0 0" fill="#ba22ff"/></g><path d="m36.785156 38.71875h-5.605468v-1.140625l1.964843-1.96875c.25-.25.472657-.476563.675781-.6875.203126-.207031.375-.410156.519532-.609375.144531-.199219.257812-.398438.335937-.605469.082031-.203125.121094-.425781.121094-.664062 0-.261719-.085937-.464844-.257813-.609375-.167968-.144532-.394531-.21875-.679687-.21875-.300781 0-.589844.070312-.867187.207031-.277344.136719-.570313.335937-.875.589844l-.960938-1.054688c.171875-.148437.351562-.285156.539062-.414062.1875-.136719.390626-.253907.617188-.355469.222656-.105469.472656-.1875.742188-.246094.269531-.0625.570312-.09375.90625-.09375.402343 0 .757812.050782 1.074218.152344.320313.101562.59375.25.816406.441406.226563.1875.394532.414063.515626.683594.121093.269531.179687.574219.179687.910156 0 .304688-.054687.59375-.167969.875-.117187.277344-.273437.546875-.46875.816406-.199218.265626-.429687.53125-.691406.796876-.257812.261718-.539062.53125-.835938.800781l-1.003906.941406v.074219h3.402344v1.382812zm0 0" fill="#fff"/></svg>