<svg height="48pt" viewBox="0 0 48 48" width="48pt" xmlns="http://www.w3.org/2000/svg"><path d="m11.210938 2.847656h25.578124c4.621094 0 8.363282 3.742188 8.363282 8.363282v25.578124c0 4.621094-3.742188 8.363282-8.363282 8.363282h-25.578124c-4.621094 0-8.363282-3.742188-8.363282-8.363282v-25.578124c0-4.621094 3.742188-8.363282 8.363282-8.363282zm0 0" fill="#c2352a" fill-rule="evenodd"/><path d="m8.351562 8.351562v10.433594h10.433594v-10.433594zm13.039063 0v5.214844h2.609375v-2.609375h2.609375v-2.605469zm2.609375 5.214844v5.21875h2.609375v-5.21875zm0 5.21875h-2.609375v2.605469h2.609375zm0 2.605469v2.609375h2.609375v-2.609375zm2.609375 2.609375v2.609375h5.214844v-5.21875h-2.609375v2.609375zm5.214844 2.609375v2.605469h2.609375v2.609375h2.609375v-5.214844zm5.21875 0h2.605469v-5.21875h-5.214844v2.609375h2.609375zm-5.21875 2.605469h-2.609375v2.609375h2.609375zm-2.609375 2.609375h-2.605469v2.609375h2.605469zm0 2.609375v2.609375h2.609375v-2.609375zm2.609375 2.609375v2.605469h2.609375v-2.605469zm2.609375 0h5.214844v-2.609375h-5.214844zm-7.824219-2.609375h-5.21875v2.609375h2.609375v2.605469h2.609375zm0-2.609375v-5.214844h-5.21875v2.605469h2.609375v2.609375zm-5.21875-5.214844v-5.21875h-2.605469v2.609375h-2.609375v2.609375zm-5.214844-2.609375v-2.609375h-7.824219v5.21875h5.214844v-2.609375zm13.039063-15.648438v10.433594h10.433594v-10.433594zm-18.257813 2.605469h5.21875v5.21875h-5.21875zm20.867188 0h5.21875v5.21875h-5.21875zm-19.5625 1.304688v2.609375h2.609375v-2.609375zm20.867187 0v2.609375h2.609375v-2.609375zm-24.777344 16.953125v10.433594h10.433594v-10.433594zm2.605469 2.609375h5.21875v5.21875h-5.21875zm1.304688 1.304687v2.609375h2.609375v-2.609375zm0 0" fill="#fef7c0"/></svg>