<svg height="48pt" viewBox="0 0 48 48" width="48pt" xmlns="http://www.w3.org/2000/svg"><g fill-rule="evenodd"><path d="m45.152344 24.007812h-21.164063l18.707031 18.710938c1.519532-1.511719 2.457032-3.609375 2.457032-5.929688zm0 0" fill="#ffac29"/><path d="m23.988281 24.007812v21.144532h12.800781c2.308594 0 4.394532-.929688 5.90625-2.433594zm0 0" fill="#73ff44"/><path d="m24.007812 24.007812-.019531-.019531v.019531zm0 0" fill="#ccc"/><path d="m23.988281 23.988281-18.707031 18.707031c1.511719 1.519532 3.605469 2.457032 5.929688 2.457032h12.777343zm0 0" fill="#80ffe5"/><path d="m23.96875 24.007812h-21.121094v12.78125c0 2.308594.929688 4.394532 2.433594 5.90625zm0 0" fill="#53bdff"/><path d="m23.96875 24.007812.019531-.019531-18.695312-18.695312s0-.003907-.003907 0c-1.507812 1.507812-2.441406 3.597656-2.441406 5.917969v12.796874zm0 0" fill="#5964ff"/><path d="m42.707031 5.289062-18.707031 18.710938.007812.007812h21.144532v-12.800781c0-2.316406-.929688-4.40625-2.441406-5.917969-.003907 0-.003907.003907-.003907 0zm0 0" fill="#ff7221"/><path d="m23.988281 2.847656v21.140625l.011719.011719 18.707031-18.710938c-1.511719-1.507812-3.601562-2.441406-5.917969-2.441406zm0 0" fill="#ff3636"/><path d="m23.988281 23.988281v-21.140625h-12.777343c-2.316407 0-4.40625.933594-5.917969 2.441406zm0 0" fill="#e647ff"/></g><path d="m33.53125 24c0 5.265625-4.265625 9.53125-9.53125 9.53125s-9.535156-4.265625-9.535156-9.53125 4.269531-9.535156 9.535156-9.535156 9.53125 4.269531 9.53125 9.535156zm0 0" fill="#fff"/></svg>