<svg height="48pt" viewBox="0 0 48 48" width="48pt" xmlns="http://www.w3.org/2000/svg"><path d="m11.210938 2.847656h25.578124c4.621094 0 8.363282 3.742188 8.363282 8.363282v25.578124c0 4.621094-3.742188 8.363282-8.363282 8.363282h-25.578124c-4.621094 0-8.363282-3.742188-8.363282-8.363282v-25.578124c0-4.621094 3.742188-8.363282 8.363282-8.363282zm0 0" fill="#007eff" fill-rule="evenodd"/><path d="m18.289062 29.179688h11.996094v9.4375h-11.996094zm0 0" fill="#999"/><g fill="#4d4d4d"><path d="m18.035156 11.347656h12.507813c1.484375 0 2.691406 1.207032 2.691406 2.691406v14.359376c0 1.484374-1.207031 2.691406-2.691406 2.691406h-12.507813c-1.488281 0-2.695312-1.207032-2.695312-2.691406v-14.359376c0-1.484374 1.207031-2.691406 2.695312-2.691406zm0 0"/><path d="m20.1875 35.082031h3.195312v1.820313h-3.195312zm0 0"/><path d="m25.191406 35.082031h3.195313v1.820313h-3.195313zm0 0"/></g></svg>