<svg height="48pt" viewBox="0 0 48 48" width="48pt" xmlns="http://www.w3.org/2000/svg"><path d="m11.210938 2.847656h25.578124c4.621094 0 8.363282 3.742188 8.363282 8.363282v25.578124c0 4.621094-3.742188 8.363282-8.363282 8.363282h-25.578124c-4.621094 0-8.363282-3.742188-8.363282-8.363282v-25.578124c0-4.621094 3.742188-8.363282 8.363282-8.363282zm0 0" fill="#c2352a" fill-rule="evenodd"/><g fill="#fff"><path d="m24.605469 23.257812 1.496093 1.5-1.496093 1.5-1.5-1.5zm0 0"/><path d="m29.105469 9.75-1.5 9h-6l-1.5-9zm0 0"/><path d="m21.605469 20.25h6v1.5h-6zm0 0"/><path d="m9.605469 20.25 9 1.5v6l-9 1.5zm0 0"/><path d="m20.105469 27.75v-6h1.5v6zm0 0"/><path d="m32.03125 38.25-5.304688-7.425781 4.242188-4.242188 7.425781 5.304688zm0 0"/><path d="m29.910156 25.523438-4.242187 4.242187-1.0625-1.0625 4.242187-4.242187zm0 0"/></g></svg>