<svg height="48pt" viewBox="0 0 48 48" width="48pt" xmlns="http://www.w3.org/2000/svg"><path d="m11.210938 2.847656h25.578124c4.621094 0 8.363282 3.742188 8.363282 8.363282v25.578124c0 4.621094-3.742188 8.363282-8.363282 8.363282h-25.578124c-4.621094 0-8.363282-3.742188-8.363282-8.363282v-25.578124c0-4.621094 3.742188-8.363282 8.363282-8.363282zm0 0" fill="#0086ff" fill-rule="evenodd"/><path d="m19.660156 37.472656c.917969-.640625.496094-1.644531-1.507812-3.59375-1.597656-1.554687-2.144532-2.578125-2.152344-4.03125-.003906-.910156.082031-1.121094.667969-1.675781.902343-.855469 1.78125-1.273437 3.417969-1.621094 2.003906-.425781 1.886718-.503906 1.886718 1.285157 0 1.34375.070313 1.660156.449219 2.0625.871094.925781 1.535156.695312 4.65625-1.625 9.515625-7.0625 9.117187-6.714844 9.117187-7.984376 0-.988281-.203124-1.195312-4.085937-4.078124-8.726563-6.484376-8.191406-6.136719-8.972656-5.839844-.984375.375-1.164063.761718-1.164063 2.5v1.636718h-.800781c-.441406 0-1.4375.195313-2.210937.433594-4.550782 1.40625-7.136719 5.382813-7.15625 11.003906-.011719 2.523438.371093 4.089844 1.605468 6.605469 1.089844 2.21875 2.480469 3.714844 4.296875 4.625 1.449219.722657 1.367188.710938 1.953125.296875zm0 0" fill="#fff"/></svg>