<svg height="48pt" viewBox="0 0 48 48" width="48pt" xmlns="http://www.w3.org/2000/svg"><path d="m11.210938 2.847656h25.578124c4.621094 0 8.363282 3.742188 8.363282 8.363282v25.578124c0 4.621094-3.742188 8.363282-8.363282 8.363282h-25.578124c-4.621094 0-8.363282-3.742188-8.363282-8.363282v-25.578124c0-4.621094 3.742188-8.363282 8.363282-8.363282zm0 0" fill="#f2f2f2" fill-rule="evenodd"/><path d="m26.332031 9.417969c-2.332031 0-4.664062 0-4.664062 2.332031v14.25c-.570313-.164062-1.160157-.246094-1.75-.25-3.546875 0-6.417969 2.871094-6.417969 6.417969 0 3.542969 2.871094 6.414062 6.417969 6.414062 3.449219-.003906 6.292969-2.734375 6.414062-6.183593.03125-4.394532 0-8.847657 0-13.257813 0-6.222656 7 1.941406 8.167969 3.109375 0-3.113281 0-12.832031-8.167969-12.832031zm0 0" fill="#805fd6"/></svg>