<svg height="48pt" viewBox="0 0 48 48" width="48pt" xmlns="http://www.w3.org/2000/svg"><path d="m11.210938 2.847656h25.578124c4.621094 0 8.363282 3.742188 8.363282 8.363282v25.578124c0 4.621094-3.742188 8.363282-8.363282 8.363282h-25.578124c-4.621094 0-8.363282-3.742188-8.363282-8.363282v-25.578124c0-4.621094 3.742188-8.363282 8.363282-8.363282zm0 0" fill="#e73c4f" fill-rule="evenodd"/><path d="m25.203125 2.882812.011719 14.976563.019531 16.480469h4.546875l.011719-4.332032c.007812-3.433593.019531-4.332031.058593-4.316406.027344.011719.765626 1.324219 1.640626 2.917969.878906 1.59375 1.710937 3.078125 1.847656 3.300781.277344.457032.828125 1.089844 1.183594 1.359375.746093.570313 1.523437.863281 2.722656 1.027344.644531.085937 2.816406.117187 2.882812.039063.03125-.03125.042969-.816407.035156-2.484376l-.011718-2.433593-.804688-.027344c-.910156-.035156-1.105468-.078125-1.625-.371094-.402344-.226562-.871094-.71875-1.214844-1.28125-.125-.199219-.746093-1.316406-1.382812-2.484375-1.117188-2.0625-1.152344-2.132812-1.089844-2.238281.03125-.058594 1.429688-2.304687 3.101563-4.992187s3.050781-4.914063 3.0625-4.949219c.019531-.054688-.40625-.066407-2.691407-.066407h-2.71875l-2.445312 3.933594c-1.347656 2.160156-2.46875 3.9375-2.496094 3.949219-.042968.015625-.042968-12.519531-.019531-17.988281-.148437 0-.285156-.019532-.429687-.019532zm-10.117187 10.5c-.558594.003907-1.105469.03125-1.371094.082032-2.160156.410156-3.691406 1.570312-4.519532 3.433594-.261718.589843-.421874 1.160156-.523437 1.855468-.066406.460938-.074219.660156-.054687 1.410156.011718.613282.039062 1 .09375 1.300782.363281 2.046875 1.398437 3.347656 3.207031 4.023437.582031.21875.945312.300781 2.507812.5625.867188.144531 1.527344.273438 1.667969.332031.59375.242188.875.683594.925781 1.457032.0625.953125-.402343 1.605468-1.335937 1.875-.375.109375-1.0625.167968-1.546875.136718-1.585938-.105468-2.621094-.492187-3.515625-1.328124l-.105469-.101563-1.359375 1.589844c-.746094.871093-1.359375 1.621093-1.359375 1.664062 0 .109375.628906.738281 1.109375 1.113281 1.210938.953126 2.5 1.402344 4.539062 1.582032.429688.035156 2.011719-.019532 2.378907-.082032 2.746093-.484374 4.640625-2.125 5.261719-4.570312.285156-1.132812.28125-2.851562-.015626-4.125-.21875-.933594-.5-1.519531-1.050781-2.167969-.578125-.675781-1.074219-1.027343-1.941406-1.367187-.585937-.230469-1.078125-.339844-2.640625-.59375-1.667969-.273438-1.867188-.34375-2.25-.761719-.429688-.46875-.503906-1.097656-.214844-1.78125.203125-.488281.621094-.835937 1.222656-1.03125.3125-.097656 1.566407-.109375 2.066407-.015625.671875.125 1.304687.429688 1.753906.855469.128906.125.257813.226562.285156.226562.074219 0 2.675781-3.058593 2.675781-3.144531 0-.101562-.503906-.597656-.992187-.980469-.9375-.738281-2.058594-1.191406-3.453125-1.394531-.308594-.042969-.882812-.0625-1.441406-.058594zm0 0" fill="#fff"/></svg>