<svg height="48pt" viewBox="0 0 48 48" width="48pt" xmlns="http://www.w3.org/2000/svg"><path d="m11.210938 2.847656h25.578124c4.621094 0 8.363282 3.742188 8.363282 8.363282v25.578124c0 4.621094-3.742188 8.363282-8.363282 8.363282h-25.578124c-4.621094 0-8.363282-3.742188-8.363282-8.363282v-25.578124c0-4.621094 3.742188-8.363282 8.363282-8.363282zm0 0" fill="#63c4ad" fill-rule="evenodd"/><path d="m16.5 15v1.5h2.332031l-3.582031 7.640625c-.324219-.089844-.664062-.140625-1-.140625-2.070312 0-3.75 1.679688-3.75 3.75s1.679688 3.75 3.75 3.75 3.75-1.679688 3.75-3.75c0-1.140625-.523438-2.21875-1.414062-2.929688l3.902343-8.320312h5.011719v9.082031c-1.742188.355469-2.996094 1.886719-3 3.667969 0 2.070312 1.679688 3.75 3.75 3.75s3.75-1.679688 3.75-3.75c0-1.78125-1.253906-3.316406-3-3.671875v-9.078125h6v9.082031c-1.742188.355469-2.996094 1.886719-3 3.667969 0 2.070312 1.679688 3.75 3.75 3.75s3.75-1.679688 3.75-3.75c0-1.78125-1.253906-3.316406-3-3.671875v-9.078125h3v-1.5zm0 0" fill="#fff"/></svg>