<svg height="48pt" viewBox="0 0 48 48" width="48pt" xmlns="http://www.w3.org/2000/svg" xmlns:xlink="http://www.w3.org/1999/xlink"><clipPath id="a"><path d="m0 0h48v48h-48z"/></clipPath><clipPath id="b"><path d="m0 0h48v48h-48z"/></clipPath><clipPath id="c"><path d="m0 0h48v48h-48z"/></clipPath><clipPath id="d"><path d="m0 0h48v48h-48z"/></clipPath><clipPath id="e"><path d="m0 0h48v48h-48z"/></clipPath><clipPath id="f"><path d="m0 0h48v48h-48z"/></clipPath><path d="m11.210938 2.847656h25.578124c4.621094 0 8.363282 3.742188 8.363282 8.363282v25.578124c0 4.621094-3.742188 8.363282-8.363282 8.363282h-25.578124c-4.621094 0-8.363282-3.742188-8.363282-8.363282v-25.578124c0-4.621094 3.742188-8.363282 8.363282-8.363282zm0 0" fill="#9dc1b4" fill-rule="evenodd"/><path d="m37.546875 10.390625c.941406 0 1.695313.96875 1.695313 1.90625v19.050781c0 .941406-.757813 1.871094-1.695313 1.90625h-14.089844l-3.8125 4.355469-3.808593-4.355469h-5.382813c-.941406 0-1.695313-.964844-1.695313-1.90625v-19.050781c0-.9375.753907-1.90625 1.695313-1.90625zm0 0" fill="#3a8268"/><g clip-path="url(#a)"><path d="m17.46875 16.921875v-1.085937h13.0625v1.085937zm0 0" fill="#9dc1b4"/></g><g clip-path="url(#b)"><path d="m17.46875 20.191406v-1.089844h13.0625v1.089844zm0 0" fill="#9dc1b4"/></g><g clip-path="url(#c)"><path d="m17.46875 23.457031v-1.089843h13.0625v1.089843zm0 0" fill="#9dc1b4"/></g><g clip-path="url(#d)"><path d="m17.46875 26.722656v-1.089844h8.707031v1.089844zm0 0" fill="#9dc1b4"/></g><g clip-path="url(#e)"><path d="m41.6875 32.957031c0 4.96875-4.03125 9-9 9-4.972656 0-9-4.03125-9-9 0-4.972656 4.027344-9 9-9 4.96875 0 9 4.027344 9 9zm0 0" fill="#772bbe" fill-rule="evenodd"/></g><g clip-path="url(#f)"><path d="m28.1875 35.449219v2.007812h2.003906l5.0625-5.066406-2.003906-2.003906zm8.839844-4.824219c.210937-.210938.210937-.546875 0-.757812l-1.253906-1.253907c-.210938-.210937-.546876-.210937-.757813 0l-1.046875 1.054688 2.003906 2.003906zm0 0" fill="#fff"/></g></svg>