<svg height="48pt" viewBox="0 0 48 48" width="48pt" xmlns="http://www.w3.org/2000/svg"><path d="m11.210938 2.847656h25.578124c4.621094 0 8.363282 3.742188 8.363282 8.363282v25.578124c0 4.621094-3.742188 8.363282-8.363282 8.363282h-25.578124c-4.621094 0-8.363282-3.742188-8.363282-8.363282v-25.578124c0-4.621094 3.742188-8.363282 8.363282-8.363282zm0 0" fill="#80bbb2" fill-rule="evenodd"/><path d="m24.039062 8.015625c-.308593-.007813-.613281.070313-.878906.222656l-12.59375 7.164063c-.519531.296875-.839844.839844-.839844 1.433594v14.328124c0 .59375.320313 1.140626.839844 1.433594l12.59375 7.164063c.519532.296875 1.160156.296875 1.679688 0l12.59375-7.164063c.519531-.292968.839844-.839844.839844-1.433594v-14.328124c0-.59375-.320313-1.136719-.839844-1.433594l-12.59375-7.164063c-.242188-.140625-.519532-.214843-.800782-.222656zm0 0" fill="#9ed5ca"/><path d="m24.570312 20.574219c0 2.523437-2.042968 4.566406-4.566406 4.566406-2.523437 0-4.566406-2.042969-4.566406-4.566406 0-2.523438 2.042969-4.566407 4.566406-4.566407 2.523438 0 4.566406 2.042969 4.566406 4.566407zm0 0" fill="#ffd16d"/><path d="m25.140625 19.433594c-1.71875 0-3.328125.863281-4.277344 2.296875-.097656-.007813-.191406-.011719-.289062-.015625-2.835938 0-5.136719 2.300781-5.136719 5.140625 0 2.835937 2.300781 5.136719 5.136719 5.136719h9.707031c1.890625 0 3.425781-1.535157 3.425781-3.425782s-1.535156-3.425781-3.425781-3.425781c-.011719 0-.023438.003906-.035156.003906.019531-.191406.03125-.382812.035156-.574219 0-2.835937-2.300781-5.136718-5.140625-5.136718zm0 0" fill="#e8f3f2"/></svg>