<svg height="48pt" viewBox="0 0 48 48" width="48pt" xmlns="http://www.w3.org/2000/svg"><path d="m11.210938 2.847656h25.578124c4.621094 0 8.363282 3.742188 8.363282 8.363282v25.578124c0 4.621094-3.742188 8.363282-8.363282 8.363282h-25.578124c-4.621094 0-8.363282-3.742188-8.363282-8.363282v-25.578124c0-4.621094 3.742188-8.363282 8.363282-8.363282zm0 0" fill="#435672" fill-rule="evenodd"/><path d="m2.886719 14.773438h42.210937v-.917969h-42.210937zm0 0" fill="#99bde0"/><path d="m2.886719 29.699219h4.070312l4.050781 6.65625h26.207032l3.828125-6.769531h4.054687v-.917969h-4.167968l-4.210938-3.273438h-25.394531l-4.265625 3.382813h-3.960938l-.210937-.234375zm8.757812-3.382813h24.757813l3.773437 2.929688-3.5 6.1875h-25.152343l-3.703126-6.089844zm0 0" fill="#99bde0"/><path d="m30.007812 16.347656c-.417968 0-.789062.066406-1.105468.203125-.3125.140625-.5625.335938-.75.59375-.183594.257813-.292969.542969-.328125.855469-.035157.308594-.054688.835938-.054688 1.582031v1.273438c0 .761719.019531 1.300781.054688 1.605469.039062.308593.15625.589843.347656.851562.191406.257812.445313.453125.761719.585938.316406.128906.675781.191406 1.074218.191406.421876 0 .789063-.070313 1.101563-.207032.316406-.136718.5625-.335937.746094-.589843.1875-.257813.300781-.542969.332031-.851563.039062-.3125.058594-.839844.058594-1.585937v-1.273438c0-.765625-.019532-1.300781-.058594-1.605469-.035156-.304687-.152344-.589843-.34375-.847656-.195312-.261718-.449219-.457031-.765625-.585937-.316406-.128907-.671875-.195313-1.070313-.195313zm-23.71875.15625.863282 7.429688h2.402344c.28125-1.972656.457031-3.269532.535156-3.890625.167968 1.453125.363281 2.75.582031 3.890625h2.414063l.859374-7.429688h-1.878906c-.25 1.71875-.429687 3.476563-.535156 5.273438l-.210938-2.820313c-.113281-1.417969-.183593-2.238281-.210937-2.453125h-2.011719c-.28125 2.101563-.460937 3.800782-.53125 5.09375l-.203125-2.5-.195312-2.59375zm8.503907 0-.984375 7.429688h2l .117187-1.335938h.691407l.097656 1.335938h1.976562l-1.105468-7.429688zm4.238281 0v7.429688h1.933594v-3.351563c.265625 0 .429687.046875.492187.140625.0625.097656.09375.34375.09375.742188v2.46875h1.796875v-1.957032c0-.601562-.015625-.96875-.050781-1.097656-.03125-.136718-.113281-.28125-.242187-.441406-.132813-.160156-.390626-.285156-.769532-.378906.421875-.042969.699219-.164063.84375-.363282.144532-.199218.21875-.582031.21875-1.160156 0-.636718-.105468-1.097656-.308594-1.382812-.203124-.292969-.464843-.472656-.789062-.542969-.320312-.070313-.9375-.105469-1.851562-.105469zm4.914062 0v1.488282h1.3125l-1.488281 4.863281v1.078125h3.5625v-1.484375h-1.441406l1.441406-4.457031v-1.488282zm9.023438 0v7.429688h1.617188v-3.378906l1.003906 3.378906h1.695312v-7.429688h-1.617187v3.34375l-1.082031-3.34375zm5.085938 0v7.429688h3.351562v-1.484375h-1.417969v-1.636719h1.207031v-1.410156h-1.207031v-1.410156h1.289063v-1.488282zm-8.035157 1.101563c.117188 0 .195313.046875.234375.144531.039063.097656.054688.316406.054688.664062v3.410157c0 .441406-.015625.71875-.054688.835937-.035156.113282-.121094.171875-.25.171875s-.214844-.050781-.25-.148437c-.035156-.101563-.050781-.371094-.050781-.800782v-3.46875c0-.382812.027344-.613281.082031-.691406.054688-.078125.132813-.117187.234375-.117187zm-9.054687.167969c.222656 0 .378906.039062.460937.113281.085938.074219.125.226562.125.460937v.40625c0 .328125-.042969.523438-.132812.585938-.085938.058594-.234375.085937-.453125.085937zm-4.695313.390624c.097657 1.234376.195313 2.277344.292969 3.117188h-.660156c.050781-.65625.171875-1.695312.367187-3.117188zm2.007813 9.828126c-.285156 0-.527344.046874-.730469.136718s-.371094.222656-.5.398438c-.125.179687-.207031.359375-.238281.539062-.035156.183594-.050782.429688-.050782.746094v.207031h1.261719v-.539062c0-.246094.023438-.414063.074219-.496094.054688-.085937.132812-.128906.238281-.128906.109375 0 .1875.039062.238281.117187.054688.074219.082032.1875.082032.34375 0 .199219-.089844.476563-.261719.832032-.171875.355468-.71875 1.28125-1.632813 2.777343v.804688h3.09375v-.960938h-1.542968c.789062-1.164062 1.261718-1.925781 1.421875-2.285156.164062-.359375.242187-.703125.242187-1.023437 0-.425782-.140625-.777344-.429687-1.050782-.285157-.277344-.707031-.417968-1.265625-.417968zm6.464844 0c-.378907 0-.699219.078124-.96875.230468-.261719.15625-.441407.367188-.53125.625-.089844.253906-.132813.640625-.132813 1.15625v1.96875c0 .394532.027344.683594.082031.867188.054688.179687.148438.351562.28125.515625.132813.167969.3125.289062.53125.367187.222656.078125.503906.117188.839844.117188.253906 0 .484375-.039063.691406-.113282.207032-.074218.382813-.195312.53125-.367187.144532-.167969.238282-.347656.285156-.542969.046876-.195312.070313-.507812.070313-.933594v-1.878906c0-.425781-.023437-.734375-.066406-.929687-.042969-.195313-.121094-.367188-.242188-.523438-.121093-.15625-.300781-.285156-.546875-.394531-.242187-.109375-.515625-.164062-.824218-.164062zm3.824218 0c-.378906 0-.703125.078124-.96875.230468-.265625.15625-.441406.367188-.53125.625-.085937.253906-.132812.640625-.132812 1.15625v1.96875c0 .394532.027344.683594.085937.867188.054688.179687.148438.351562.28125.515625.128907.167969.308594.289062.53125.367187.222657.078125.5.117188.835938.117188.257812 0 .488281-.039063.695312-.113282.203125-.074218.378907-.195312.523438-.367187.148437-.167969.246093-.347656.292969-.542969.046874-.195312.070312-.507812.070312-.933594v-1.878906c0-.425781-.023438-.734375-.066406-.929687-.042969-.195313-.125-.367188-.246094-.523438s-.300781-.285156-.542969-.394531c-.246093-.109375-.523437-.164062-.828125-.164062zm-6.832031.109374c-.351563.453126-.867187.753907-1.546875.898438v.65625h.136719c.328125 0 .535156.023438.628906.070312.09375.046876.152344.113282.171875.199219.023438.089844.035156.351563.035156.785157v3.019531h1.402344v-5.628907zm3.035156.753907c.109375 0 .175781.039062.203125.117187.03125.074219.042969.261719.042969.5625v2.789063c0 .273437-.011719.449219-.046875.53125-.03125.078125-.101562.117187-.203125.117187-.105469 0-.171875-.035156-.207031-.101562-.027344-.066406-.046875-.265625-.046875-.59375v-2.742188c0-.289062.019531-.476562.050781-.554687.035156-.082031.105469-.125.207031-.125zm3.828125 0c .105469 0 .171875.039062.203125.117187.027344.074219.042969.261719.042969.5625v2.789063c0 .273437-.015625.449219-.046875.53125-.035156.078125-.105469.117187-.207031.117187-.105469 0-.175782-.035156-.207032-.101562s-.042968-.265625-.042968-.59375v-2.742188c0-.289062.015625-.476562.046875-.554687.035156-.082031.105469-.125.210937-.125zm0 0" fill="#dce7f5"/></svg>