<svg height="48pt" viewBox="0 0 48 48" width="48pt" xmlns="http://www.w3.org/2000/svg"><path d="m11.210938 2.847656h25.578124c4.621094 0 8.363282 3.742188 8.363282 8.363282v25.578124c0 4.621094-3.742188 8.363282-8.363282 8.363282h-25.578124c-4.621094 0-8.363282-3.742188-8.363282-8.363282v-25.578124c0-4.621094 3.742188-8.363282 8.363282-8.363282zm0 0" fill="#6672a5" fill-rule="evenodd"/><path d="m18.691406 11.503906h16.320313c2.140625 0 3.871093 1.734375 3.871093 3.871094v10.269531c0 2.140625-1.730468 3.875-3.871093 3.875h-16.320313c-2.140625 0-3.875-1.734375-3.875-3.875v-10.269531c0-2.136719 1.734375-3.871094 3.875-3.871094zm0 0" fill="#474777"/><path d="m18.832031 12.644531h16.039063c1.617187 0 2.933594 1.257813 2.933594 2.8125v10.105469c0 1.554688-1.316407 2.816406-2.933594 2.816406h-16.039063c-1.621093 0-2.933593-1.261718-2.933593-2.816406v-10.105469c0-1.554687 1.3125-2.8125 2.933593-2.8125zm0 0" fill="#00234b"/><path d="m12.988281 18.480469h16.320313c2.140625 0 3.875 1.734375 3.875 3.875v10.269531c0 2.136719-1.734375 3.871094-3.875 3.871094h-16.320313c-2.140625 0-3.871093-1.734375-3.871093-3.871094v-10.269531c0-2.140625 1.730468-3.875 3.871093-3.875zm0 0" fill="#4b4c7d"/><path d="m13.128906 19.621094h16.039063c1.621093 0 2.933593 1.261718 2.933593 2.816406v10.105469c0 1.554687-1.3125 2.8125-2.933593 2.8125h-16.039063c-1.617187 0-2.933594-1.257813-2.933594-2.8125v-10.105469c0-1.554688 1.316407-2.816406 2.933594-2.816406zm0 0" fill="#00234b"/></svg>