<svg height="48pt" viewBox="0 0 48 48" width="48pt" xmlns="http://www.w3.org/2000/svg"><path d="m11.210938 2.847656h25.578124c4.621094 0 8.363282 3.742188 8.363282 8.363282v25.578124c0 4.621094-3.742188 8.363282-8.363282 8.363282h-25.578124c-4.621094 0-8.363282-3.742188-8.363282-8.363282v-25.578124c0-4.621094 3.742188-8.363282 8.363282-8.363282zm0 0" fill="#ccc" fill-rule="evenodd"/><path d="m13.5 13.5c-1.660156 0-3 1.339844-3 3l13.5 7.5 13.5-7.5c0-1.660156-1.339844-3-3-3zm0 1.5h21c .566406 0 .953125.335938 1.210938.777344l-11.710938 6.503906-11.710938-6.503906c.253907-.441406.644532-.777344 1.210938-.777344zm-3 3v13.5c0 1.660156 1.339844 3 3 3h21c1.660156 0 3-1.339844 3-3v-13.5l-13.5 7.5zm1.5 2.550781 11.269531 6.261719c.453125.253906 1.007813.253906 1.460938 0l11.269531-6.261719v10.949219c0 .855469-.644531 1.5-1.5 1.5h-21c-.859375 0-1.5-.644531-1.5-1.5zm0 0" fill="#ef3939"/></svg>