<svg height="48pt" viewBox="0 0 48 48" width="48pt" xmlns="http://www.w3.org/2000/svg"><path d="m11.210938 2.847656h25.578124c4.621094 0 8.363282 3.742188 8.363282 8.363282v25.578124c0 4.621094-3.742188 8.363282-8.363282 8.363282h-25.578124c-4.621094 0-8.363282-3.742188-8.363282-8.363282v-25.578124c0-4.621094 3.742188-8.363282 8.363282-8.363282zm0 0" fill="#f87e3c" fill-rule="evenodd"/><path d="m12.042969 9c-1.082031-.015625-2.089844.554688-2.632813 1.488281-.546875.933594-.546875 2.089844 0 3.023438.542969.933593 1.550782 1.503906 2.632813 1.488281h16.769531s1.296875.042969 2.4375.519531c1.144531.472657 1.75.675781 1.75 2.46875s-.605469 1.996094-1.75 2.472657c-1.140625.476562-2.4375.519531-2.4375.519531h-16.769531c-1.65625 0-3 1.339843-3 3v11.976562c-.015625 1.082031.554687 2.089844 1.488281 2.632813.933594.546875 2.089844.546875 3.023438 0 .933593-.542969 1.503906-1.550782 1.488281-2.632813v-8.976562h13.769531s2.296875.039062 4.746094-.980469c2.453125-1.023438 5.441406-3.816406 5.441406-8.011719 0-4.195312-2.988281-6.988281-5.441406-8.007812-2.449219-1.023438-4.746094-.980469-4.746094-.980469zm0 0" fill="#fff"/></svg>