<svg height="48pt" viewBox="0 0 48 48" width="48pt" xmlns="http://www.w3.org/2000/svg"><path d="m11.210938 2.847656h25.578124c4.621094 0 8.363282 3.742188 8.363282 8.363282v25.578124c0 4.621094-3.742188 8.363282-8.363282 8.363282h-25.578124c-4.621094 0-8.363282-3.742188-8.363282-8.363282v-25.578124c0-4.621094 3.742188-8.363282 8.363282-8.363282zm0 0" fill="#8e8e8e" fill-rule="evenodd"/><path d="m24.066406 11.984375c-6.34375 0-12.050781 2.253906-16.78125 5.746094l16.78125 18.285156 16.648438-18.351563c-4.714844-3.453124-10.359375-5.679687-16.648438-5.679687zm0 0" fill="#4f4f4f"/><path d="m24 16.785156c-5.050781 0-9.738281 1.65625-13.503906 4.453125l13.574218 14.777344 13.433594-14.777344c-3.765625-2.796875-8.453125-4.453125-13.503906-4.453125zm0 0" fill="#797979"/><path d="m24 21.59375c-3.789062 0-7.304688 1.242188-10.128906 3.339844l10.183594 11.082031 10.074218-11.082031c-2.824218-2.097656-6.339844-3.339844-10.128906-3.339844zm0 0" fill="#ccc"/><path d="m41.597656 31.878906c0 5.269532-4.269531 9.539063-9.539062 9.539063-5.265625 0-9.535156-4.269531-9.535156-9.539063 0-5.265625 4.269531-9.535156 9.535156-9.535156 5.269531 0 9.539062 4.269531 9.539062 9.535156zm0 0" fill="#5565cc"/><g fill="#fff"><path d="m29.675781 27.113281c-2.632812 0-4.769531 2.132813-4.769531 4.765625 0 2.636719 2.136719 4.769532 4.769531 4.769532 2.632813 0 4.769531-2.132813 4.769531-4.769532 0-2.632812-2.136718-4.765625-4.769531-4.765625zm0 2.382813c1.316407 0 2.382813 1.066406 2.382813 2.382812 0 1.320313-1.066406 2.386719-2.382813 2.386719-1.316406 0-2.382812-1.066406-2.382812-2.386719 0-1.316406 1.066406-2.382812 2.382812-2.382812zm0 0"/><path d="m33.25 30.6875h7.15625v2.386719h-7.15625zm0 0"/><path d="m39.210938 33.074219v2.382812h-1.191407v-2.382812zm0 0"/></g></svg>