<svg height="48pt" viewBox="0 0 48 48" width="48pt" xmlns="http://www.w3.org/2000/svg" xmlns:xlink="http://www.w3.org/1999/xlink"><filter id="a" height="100%" width="100%" x="0%" y="0%"><feColorMatrix in="SourceGraphic" type="matrix" values="0 0 0 0 1 0 0 0 0 1 0 0 0 0 1 0 0 0 1 0"/></filter><mask id="b"><g filter="url(#a)"><path d="m0 0h48v48h-48z" fill-opacity=".2"/></g></mask><clipPath id="c"><path d="m0 0h48v48h-48z"/></clipPath><mask id="d"><g filter="url(#a)"><path d="m0 0h48v48h-48z" fill-opacity=".2"/></g></mask><clipPath id="e"><path d="m0 0h48v48h-48z"/></clipPath><path d="m45.152344 34.746094h-42.304688v2.042968c0 4.632813 3.730469 8.363282 8.363282 8.363282h25.582031c4.632812 0 8.359375-3.730469 8.359375-8.363282zm0 0" fill="#253951" fill-rule="evenodd"/><path d="m11.210938 2.847656c-4.632813 0-8.363282 3.730469-8.363282 8.363282v23.535156h42.304688v-23.535156c0-4.632813-3.726563-8.363282-8.359375-8.363282zm0 0" fill="#4ab3e4" fill-rule="evenodd"/><g clip-path="url(#c)" mask="url(#b)"><path d="m8.753906 36.582031h13.320313c.699219 0 1.265625.609375 1.265625 1.359375v2.566406c0 .75-.566406 1.359376-1.265625 1.359376h-13.320313c-.699218 0-1.265625-.609376-1.265625-1.359376v-2.566406c0-.75.566407-1.359375 1.265625-1.359375zm0 0" fill="#fff"/></g><g clip-path="url(#e)" mask="url(#d)"><path d="m25.925781 36.582031h13.320313c.699218 0 1.265625.609375 1.265625 1.359375v2.566406c0 .75-.566407 1.359376-1.265625 1.359376h-13.320313c-.699219 0-1.265625-.609376-1.265625-1.359376v-2.566406c0-.75.566406-1.359375 1.265625-1.359375zm0 0" fill="#fff"/></g><path d="m8.808594 37.902344h2.644531v2.640625h-2.644531zm0 0" fill="#fff"/><path d="m25.980469 37.902344h2.644531v2.640625h-2.644531zm0 0" fill="#fff"/></svg>