<svg height="48pt" viewBox="0 0 48 48" width="48pt" xmlns="http://www.w3.org/2000/svg"><path d="m10.375 44.984375v-33.539063h-7.527344v25.34375c0 4.339844 3.308594 7.761719 7.527344 8.195313zm0 0" fill="#b7b7b7" fill-rule="evenodd"/><path d="m11.207031 2.847656c-4.632812 0-8.359375 3.730469-8.359375 8.363282v.234374h7.527344v33.539063c.289062.03125.539062.167969.832031.167969h25.582031c4.632813 0 8.363282-3.726563 8.363282-8.363282v-25.578124c0-4.632813-3.730469-8.363282-8.363282-8.363282zm0 0" fill="#920000" fill-rule="evenodd"/><g fill="#f8c44e"><path d="m17.421875 38h3.574219v7.152344h-3.574219zm0 0"/><path d="m22.785156 38h3.574219v7.152344h-3.574219zm0 0"/><path d="m28.148438 38h3.574218v7.152344h-3.574218zm0 0"/><path d="m33.511719 38h3.574219v7.152344h-3.574219zm0 0"/></g><path d="m27.933594 8.558594c-1.722656.019531-3.4375.089844-3.4375.203125 0 .105469.230468.679687.511718 1.269531 1.089844 2.304688 1.851563 5.230469 1.851563 7.101562 0 .824219-.03125.890626-.367187.839844-.289063-.042968-.453126-.320312-.816407-1.398437-.703125-2.097657-1.925781-4.371094-3.308593-6.152344-1.382813-1.78125-.941407-1.894531-3.78125.941406-1.695313 1.6875-2.4375 2.539063-2.300782 2.628907.113282.070312.738282.335937 1.386719.585937s1.542969.667969 1.988281.929687c.445313.261719.851563.472657.902344.472657.210938 0 2.714844 1.871093 3.253906 2.433593.453125.472657.535156.648438.375.808594-.226562.226563-.171875.246094-2.6875-.867187-.859375-.378907-2.261718-.835938-3.117187-1.019531-1.703125-.367188-4.339844-.695313-4.542969-.570313-.152344.097656-.179688 6.863281-.027344 7.019531.058594.054688.46875-.082031.917969-.304687 2.324219-1.179688 5.617187-2.105469 7.488281-2.105469.714844 0 .929688.0625.929688.253906 0 .445313-.0625.488282-1.265625.890625-1.457031.492188-2.90625 1.175781-4.410157 2.085938-1.445312.871093-3.257812 2.296875-3.257812 2.558593 0 .109376 1.089844 1.289063 2.425781 2.621094l2.425781 2.421875.339844-.765625c.183594-.421875.394532-.941406.460938-1.160156.386718-1.214844 2.425781-4.433594 3.6875-5.808594.554687-.605468.613281-.628906.875-.367187.261718.261719.257812.320312-.101563.921875-1.105469 1.863281-2.09375 5.28125-2.296875 7.960937l-.113281 1.535157h3.5625c1.960937 0 3.566406-.050782 3.566406-.113282 0-.058594-.257812-.644531-.574219-1.300781-1.019531-2.128906-1.644531-4.390625-1.878906-6.804687-.105468-1.066407-.082031-1.222657.15625-1.222657.152344 0 .324219-.003906.386719-.007812.0625-.007813.355469.65625.648437 1.476562.667969 1.859375 1.402344 3.316407 2.488282 4.9375 1.097656 1.636719 1.835937 2.523438 2.109375 2.523438.285156.007812 4.957031-4.6875 4.847656-4.867188-.046875-.074219-.445313-.269531-.886719-.4375-2.207031-.828125-4.699218-2.292969-6.414062-3.765625-.828125-.714844-.863282-.777344-.605469-1.0625.265625-.292968.3125-.285156 1.21875.1875 2.316406 1.203125 4.824219 1.894532 7.714844 2.132813l1.40625.109375v-3.5625c0-1.960938-.039063-3.5625-.085938-3.5625-.050781 0-.527343.21875-1.054687.484375-2.152344 1.082031-5.707032 2.042969-7.546875 2.042969-.667969 0-.75-.039063-.746094-.378907.003906-.320312.191406-.441406 1.222656-.78125 2.269531-.746093 4.800781-2.089843 6.355469-3.378906.417969-.347656.933594-.71875 1.140625-.832031.207031-.109375.378906-.289063.378906-.394532 0-.207031-4.710937-5.019531-4.910156-5.019531-.066406 0-.285156.4375-.480469.96875-.8125 2.191407-3.027344 5.792969-4.25 6.917969-.378906.347656-.445312.359375-.648437.117188-.1875-.230469-.128907-.464844.378906-1.566407 1.019531-2.199219 1.136719-2.527343 1.484375-4.128906s.675781-4.320313.550781-4.542969c-.058593-.109375-1.796875-.148437-3.523437-.132812zm-1.242188 10.441406c1.402344 0 2.539063 1.136719 2.539063 2.539062.003906 1.402344-1.132813 2.542969-2.539063 2.542969-.671875 0-1.320312-.265625-1.796875-.746093-.476562-.476563-.746093-1.121094-.746093-1.796876 0-1.402343 1.140624-2.539062 2.542968-2.539062zm0 0" fill="#b7b7b7"/></svg>