<svg height="22" width="22" xmlns="http://www.w3.org/2000/svg"><g transform="translate(3 3)"><path d="m8 0c-2.07 0-3.83 1.27-4.59 3.06-1.93.29-3.41 1.93-3.41 3.94 0 .73.2 1.41.54 2h-.02c.56.97 1.52 1.68 2.65 1.91l2.33-2.33 1.75 1.75c.18-.49.44-.94.79-1.29l2.46-2.46 2.46 2.46c.44.44.77 1.01.93 1.65h.02l.01-.01h.01l.01-.01c1.22-.55 2.06-1.75 2.06-3.17 0-1.8-1.35-3.27-3.09-3.47-.46-2.29-2.48-4.03-4.91-4.03z" fill="#5c616c"/><path d="m10.5 8-1.75 1.75c-.45.45-.75 1.06-.75 1.75 0 1.37 1.13 2.5 2.5 2.5s2.5-1.13 2.5-2.5c0-.69-.3-1.3-.75-1.75zm-5 2-1.75 1.75c-.45.45-.75 1.06-.75 1.75 0 1.37 1.13 2.5 2.5 2.5s2.5-1.13 2.5-2.5c0-.69-.3-1.3-.75-1.75z" fill="#5c616c"/></g></svg>