<svg height="22" viewBox="0 0 16 16" width="22" xmlns="http://www.w3.org/2000/svg"><path d="m5.0909092 2.1818182c-.7272727 0-.7272727.7272727-.7272727.7272727v10.1818181s0 .727273.7272727.727273h5.8181818c.727273 0 .727273-.727273.727273-.727273v-10.1818181s0-.7272727-.727273-.7272727zm.7272728 2.184659h4.363636v6.5426138h-4.363636zm2.1818181 7.2698868a.72727273.72727273 0 0 1  .7272728.727273.72727273.72727273 0 0 1 -.7272728.727272.72727273.72727273 0 0 1 -.7272727-.727272.72727273.72727273 0 0 1  .7272727-.727273z" fill="#d3dae3" stroke-width=".727273"/></svg>