<svg height="16" width="16" xmlns="http://www.w3.org/2000/svg"><path d="m8 1c-.2266555 0-.4528047.0879304-.6269531.2617188l-6.1132813 6.1113281c-.34759672.3474021-.34759673.9084572 0 1.2558593l6.1132813 6.1113278c.3474218.347401.9064845.347401 1.2539062 0l6.1132809-6.1113278c.347421-.3474021.347421-.9084572 0-1.2558593l-6.1132809-6.1113281c-.1741485-.1737886-.4002977-.2617188-.6269531-.2617188zm-.1074219 3c .731 0 1.2999844.1761437 1.7089844.5273438.4109995.3513999.6171875.8188968.6171875 1.4042968 0 .4898-.144547.9005688-.4355469 1.2304688-.291.33-.7070937.5408125-1.2460937.6328125v.03125c1.281.167 1.9218746.7855156 1.9218746 1.8535156 0 .7200005-.245375 1.2881245-.7343746 1.7031245-.49.411001-1.1970469.617188-2.1230469.617188-.8592 0-1.5460469-.139922-2.0605469-.419922v-.90625c.6529.341 1.3329625.511719 2.0390625.511719 1.256 0 1.8828125-.51111 1.8828125-1.5371095 0-.915-.6753437-1.375-2.0273437-1.375h-.7070313v-.8027344h.7070313c.567 0 1.0083125-.1342969 1.3203125-.4042969.312-.2692999.46875-.6268125.46875-1.0703124 0-.3619001-.1212813-.6480219-.3632813-.8574219-.241-.2129-.56475-.3183594-.96875-.3183594-.632 0-1.2410781.2132781-1.8300781.6425781l-.4902344-.6640625c.6635-.5322 1.4363125-.7988281 2.3203125-.7988281z" fill="#d3dae3"/></svg>