<svg height="32" width="32" xmlns="http://www.w3.org/2000/svg"><path d="m7.472656 1.8984375c-3.088651 0-5.574219 2.4855679-5.574219 5.5742187v8.9160158h28.203125v-8.9160158c.000001-3.0886508-2.485567-5.5742187-5.574219-5.5742187z" fill="#8e8e8e" fill-rule="evenodd"/><g stroke-width=".634941"><path d="m7.107842 6.79661h17.789534v10.657478h-17.789534z" fill="#e6e6e6"/><path d="m8.886795 11.059602h4.447383v3.197244h-4.447383z" fill="#808080"/><path d="m18.671036 11.059602h4.447383v3.197244h-4.447383z" fill="#808080"/></g><path d="m30.101562 16.388672h-28.203125v8.138671c0 3.088651 2.485568 5.574219 5.574219 5.574219h17.054687c3.088651.000001 5.574219-2.485567 5.574219-5.574219z" fill="#4d4d4d" fill-rule="evenodd"/><rect fill="#808080" height="2.131496" rx="1.065748" stroke-width=".634941" width="17.051966" x="7.476624" y="20.651331"/><rect fill="#808080" height="2.131496" rx="1.065748" stroke-width=".634941" width="12.788974" x="9.60812" y="24.914322"/></svg>