<svg height="32" width="32" xmlns="http://www.w3.org/2000/svg"><rect fill="#154277" fill-rule="evenodd" height="28.203388" ry="5.575182" width="28.203388" x="1.898306" y="1.898306"/><circle cx="16" cy="16" fill="#f5ca4a" r="4"/><path d="m24.257813 4.6972659-2.015624 3.4902344-1.529297 2.6484377a7 7 0 0 1 2.287109 5.164062 7 7 0 0 1 -.330078 2.119141l2.640625 1.52539a10 10 0 0 0  .689453-3.644531 10 10 0 0 0 -1.642578-5.476562l2.167969-3.7539065c-.676998-.7720202-1.43673-1.4653767-2.267579-2.0722656zm-17.488281.7773438c-.77202.676998-1.465376 1.4367295-2.072265 2.2675781l3.490234 2.015625 2.648438 1.5292962a7 7 0 0 1 5.164062-2.2871087 7 7 0 0 1 2.119141.3300781l1.52539-2.640625a10 10 0 0 0 -3.644531-.6894531 10 10 0 0 0 -5.476562 1.6425781zm-.08008 6.8808593a10 10 0 0 0 -.689453 3.644531 10 10 0 0 0 1.642578 5.476562l-2.167968 3.753907c.676998.77202 1.436729 1.465376 2.267578 2.072265l2.015625-3.490234 1.529296-2.648438a7 7 0 0 1 -2.287109-5.164062 7 7 0 0 1  .330078-2.119141zm14.474609 8.357422a7 7 0 0 1 -5.164062 2.287109 7 7 0 0 1 -2.119141-.330078l-1.52539 2.640625a10 10 0 0 0 3.644531.689453 10 10 0 0 0 5.476562-1.642578l3.753907 2.167969c.77202-.676998 1.465376-1.43673 2.072265-2.267579l-3.490234-2.015624z" fill="#5286fe"/></svg>