<svg height="32" width="32" xmlns="http://www.w3.org/2000/svg"><rect fill="#feb625" fill-rule="evenodd" height="28.203388" ry="5.575182" width="28.203388" x="1.898306" y="1.898306"/><path d="m35.102 33.902c-2.3831 1.2029-5.0074 1.9266-7.4951 1.9372-4.0429 0-7.2458-1.1272-9.6086-3.3817-2.3629-2.2653-3.5443-5.3327-3.5443-9.2022 0-3.8803 1.1814-6.9477 3.5443-9.2022 2.3629-2.2653 5.5657-3.398 9.6086-3.398 2.7053.0287 5.3054.81356 7.4951 1.9372v5.1713c-2.1476-1.2295-4.6739-1.9886-6.9911-2.0017-2.2328 0-4.4898.71536-5.7688 2.1461s-1.9185 2.8326-1.9185 5.3472c0 2.5038.63949 3.9002 1.9185 5.331 1.279 1.4307 3.536 2.1461 5.7688 2.1461 2.4915-.13391 5.1892-.80033 6.9911-2.0017z" fill="#424242" transform="matrix(.67803 0 0 .71474 -.800227 -.615668)"/></svg>