<svg height="32" width="32" xmlns="http://www.w3.org/2000/svg"><rect fill="#66b036" fill-rule="evenodd" height="28.203388" ry="5.575182" width="28.203388" x="1.898306" y="1.898306"/><g transform="translate(-.558674 .369894)"><path d="m12.955476 7.0320118c-3.1521583-.005-5.4209333 1.8361022-6.1132823 4.9609372-.296324 1.337417-.123598 3.209883.410157 4.455078.300242.700439 1.031282 1.733471 1.503906 2.123047.574683.473702 1.7526733 1.066697 2.4316403 1.224609l.56836.13086.07422.564453c.177705 1.339601.831628 2.117906 2.072265 2.464844.693273.19387 2.935478.163073 4.054688-.05469l.691406-.134766v-.498044c0-.43087-.0258-.488062-.193359-.419922-.106601.04335-.62261.106665-1.146485.138672-1.077808.06585-1.896008-.13397-2.294922-.558594-.286567-.305037-.574218-.9759-.574218-1.337891 0-.230208.0666-.283013.449218-.347656.774726-.130889 1.964527-.806446 2.699219-1.535156 1.178399-1.168807 1.7537-2.690179 1.763672-4.664063.010479-2.074551-.787126-3.8557715-2.296876-5.1289061-1.112688-.9383016-2.421784-1.3801461-4.099609-1.3828121zm.002 1.2187496c.413642-.0062.844428.089213 1.240234.2636719s.757316.4287843 1.027344.7363281c.444707.5064939.775836 1.1892606.99414 1.9570316.218306.767771.323072 1.619672.316407 2.466797-.0067.847124-.125265 1.689039-.355469 2.433593s-.573078 1.391503-1.025391 1.851563c-.371175.377532-.836686.646231-1.330078.787109-.493391.140878-1.014218.155444-1.496093.02148-.636674-.176993-1.204682-.592787-1.66211-1.1875-.457475-.594709-.8030573-1.368904-.9922343-2.26562-.173561-.822695-.179856-2.768844-.011719-3.644532.187028-.974063.7482263-2.1037999 1.2988283-2.6113278.623514-.5747348 1.170963-.7962175 1.996094-.8085938zm10.896484.3515625-.582031.033203-.580078.033203-.507813.9785156c-.474199.9141785-.552819 1.0034075-1.191406 1.3632815-.595092.335363-.681641.427131-.681641.710938 0 .320648.0094.326171.601563.326171h.601562l.03516 3.294922c.0326 3.060341.05012 3.321516.255859 3.669922.235442.39871.846701.792616 1.216797.783203.12278-.0031.742164-.271289 1.376953-.59375l1.154297-.585937-.472656-.07617c-.299869-.047942-.587231-.188746-.783253-.384768-.399525-.399526-.467042-1.013427-.421876-3.892578l.0332-2.160156 1.357422-.03125 1.357421-.03125v-.548828-.550781h-1.384761-1.384766v-1.1679692z" fill="#fff" stroke-width=".110755"/><path d="m23.013602 25.70591c1.721947-.847713 2.924016-2.718996 3.657186-5.693212.198261-.804276.395332-1.775789.437936-2.158919l.07747-.696598-.680389.548264c-.374215.301546-1.610444 1.032687-2.747174 1.624758-3.044126 1.585546-3.65123 2.039908-4.127884 3.089348-.254931.561276-.275978 1.796462-.04366 2.562185.304848 1.004779.25645 1.019016 1.720146-.505983.73083-.761438 1.860678-1.982509 2.510772-2.713489.650093-.730981 1.222628-1.34567 1.2723-1.365975.445054-.18193-.86189 1.428747-3.040576 3.7472-.944505 1.005099-1.691406 1.870738-1.659779 1.92364.03163.0529.469795.07455.973703.0481.750441-.03939 1.048946-.113442 1.649957-.409317z" fill="#ccedcc" stroke-width=".110755"/></g></svg>