<svg height="32" width="32" xmlns="http://www.w3.org/2000/svg"><rect fill="#880716" fill-rule="evenodd" height="28.203388" ry="5.575182" width="28.203388" x="1.898306" y="1.898306"/><g transform="matrix(1 -.06114662 0 .85622546 0 3.278738)"><path d="m17.942301 4.6828462c-3.074797 2.0951147-6.786171 6.9134878-6.816125 7.2809588-.374062-.303258-2.1301997-.964868-3.9962146-1.319014 1.2637654 1.127164 1.8337987 3.42588 1.4989673 4.660378-2.2257033 8.206002 3.9700613 12.00549 7.5569713 12.011962 3.58691.0065 10.143415-1.344712 8.39251-11.856224-.347912.863567-1.456514 1.178273-1.866433.149617-2.6031-6.5322411-6.218255-3.574811-4.769676-10.9276778z" fill="#ee1e14"/><path d="m17.127948 6.7866981c-1.485805 1.4878342-2.932697 3.8566659-2.897577 5.2244829.02033.791782.0023 4.679708-.196267 4.061377-1.260319-1.648652-2.710296-3.04891-4.5763107-3.904282 1.2637657 1.127164 1.6115887 2.344907 1.2733747 3.578787-2.3151349 8.446103 1.487956 11.179045 5.623319 11.563497.314763.02926 9.34586.14046 6.81336-9.481999.199956 2.208962-2.147919 3.195968-2.23705 1.824766-.446629-6.871003-5.860643-5.825438-3.802849-12.8666289z" fill="#f39019"/><path d="m15.961334 27.213181c-3.419082-.668788-4.124461-3.859155-2.616152-6.781503.657265-1.273451 1.839553-2.39826 2.322121-3.664372.664886-1.744455.239095-3.633295-.890961-5.820132 6.52735 7.41281 7.903191 16.844409 1.184992 16.266007z" fill="#f3b326"/><path d="m16.757367 27.272573c2.025391-.396176 2.443243-2.286082 1.549753-4.017218-.38935-.754366-1.089712-1.420679-1.375575-2.170696-.393865-1.033379-.141635-2.152287.527786-3.447723-3.866663 4.391191-4.681682 9.97827-.701964 9.635637z" fill="#ffff7e"/></g></svg>