<svg height="32" width="32" xmlns="http://www.w3.org/2000/svg"><rect fill="#7ec242" fill-rule="evenodd" height="28.203388" ry="5.575182" width="28.203388" x="1.898306" y="1.898306"/><g transform="matrix(.73849732 0 0 .73849732 4.184005 4.184011)"><path d="m14.092 2.0029c-.931-.0198-1.739.0635-2.07.1545-.521.1388-1.303.4343-1.622.8846-.217.3021-.4.6899-.4 1.2277.008 1.015-.0129 1.855 0 2.8783 0 .5712-.1977.8392-.7857.8525h-2.6929c-.57578 0-1.013-.0126-1.3454.1351-.336.1519-.5754.3478-.7541.5879-.3624.4718-.4219 1.3515-.4219 1.9445 0 0 .00402.4753.12409 1.4175.102.73149.9069 5.8037 1.6737 7.3394.29759.6006.49489.84909 1.0779 1.1137 1.6801.3907 7.5865 2.3554 8.2281 1.0021.52523-1.3745.78678-3.642.89602-4.541 0 .6069.09388 3.0615 1.7506 3.6376.65646.2261 2.0103.4263 3.3903.5824 1.249.139 1.859.618 1.859 3.745 0 1.901-.116 2.035-2.25 2.035-1.927 0-2.75 0-2.75-1s .58826-1 2-1v-1.9999c-2.8235 0-4.0002 0-4.0002 3.2949 0 3.0051 1.1435 3.7051 5.1437 3.7051 3.1369 0 4.2437-.105 5.5383-4.0236.25552-.77489.88022-3.1381 1.2543-7.1091.235-2.507-.227-10.078-.594-11.997v-.0028c-.213-1.1187-.889-1.6656-1.508-1.8838-.664-.2356-2.011-.4724-3.699-.6672-1.364-.1587-3.168-.3466-4.135-.3162 0-.7-.466-1.281-1.089-1.5295-.83-.3231-1.887-.4477-2.819-.4676z" fill="#fff"/><path d="m24 17h-3c0-1.1046.67157-2 1.5-2s1.5.89543 1.5 2z" opacity=".2"/><path d="m24 16h-3c0-1.1046.67157-2 1.5-2s1.5.89543 1.5 2z" fill="#fff"/></g></svg>