<svg height="32" width="32" xmlns="http://www.w3.org/2000/svg"><rect fill="#3c424e" fill-rule="evenodd" height="28.203388" ry="5.575182" width="28.203388" x="1.898306" y="1.898306"/><path d="m10.38334 21.694606c1.828066-1.521509 3.330208-2.768822 3.338091-2.771808.0079-.003.0302.998424.0496 2.225354.01939 1.226929.04106 2.453572.04813 2.725871l.01286.495091.726711-.000217.72671-.000217 2.508983-6.829458c1.379941-3.756201 2.505378-6.832428 2.50097-6.836058-.0044-.0037-.563839.192471-1.243185.435783-.679345.243312-2.627039.940143-4.32821 1.548515-1.70117.608371-3.832609 1.370612-4.7365307 1.69387l-1.6434884.587739-.012357-1.327827c-.00678-.730307-.013694-2.418814-.015312-3.7522389l-.0029737-2.4244112h-.6737312-.6737304v8.5354061 8.535406l.046851-.03721c.025767-.02047 1.5425401-1.282081 3.3706074-2.803589zm14.65078-.164994v-2.839501l-.07656.04727c-.0421.026-1.26574.825841-2.719183 1.777424-1.453443.951584-2.645597 1.727178-2.649233 1.723542-.0037-.0037 1.22134-3.311031 2.72217-7.349766 1.500825-4.038732 2.724043-7.3478842 2.718259-7.3536683-.01485-.014849-14.910054.027831-15.3661776.044028l-.375107.013321.012538.4414651c.00691.2428058.018437 1.4964519.025649 2.7858812.011998 2.145686.015912 2.343615.046125 2.334965.033249-.0095 10.4180686-3.2671509 11.9322696-3.7430533.447328-.140593.816641-.2523066.820694-.2482528.0041.00409-1.21861 3.4155431-2.717031 7.5810881-1.49842 4.165546-2.724444 7.585204-2.724495 7.59924-.000075.02033.848484.02552 4.174995.02552h4.17509z" fill="#fff" stroke-width=".020416"/></svg>