<svg height="32" width="32" xmlns="http://www.w3.org/2000/svg"><rect fill="#66b744" fill-rule="evenodd" height="28.203388" ry="5.575182" width="28.203388" x="1.898306" y="1.898306"/><g transform="translate(51.477515 -4.633405)"><rect fill="#fff" height="17.865864" rx="1.786756" transform="matrix(-.70710678 -.70710678 -.70710678 .70710678 0 0)" width="17.865864" x="1.563439" y="30.743481"/><path d="m-35.47426 11.088523c-1.517116 0-2.813101.181391-3.907479.550708l-3.460136 3.460134c-.194302.811123-.282394 1.69916-.210115 2.277387.375825 3.006598 3.529044 4.990254 7.57773 4.990253 2.891918 0 4.335832 1.486647 4.393796 1.95035.02898.231852.05408 1.240464-.47954 1.60637-.533613.365906-1.976671.781158-3.914256.781158-2.375504 0-5.212232-1.506396-5.212232-1.506396-.897453-.533602-1.982092-.143011-2.418027.70321l3.556721 3.556721c1.160461.385951 2.565678.716767 4.073538.716767 1.517116 0 2.8131-.181392 3.907478-.550707l3.460137-3.460136c.1943-.811122.282393-1.69916.210115-2.277385-.375825-3.0066-3.529045-4.990255-7.57773-4.990255-2.891918 0-4.249414-1.486645-4.307378-1.95035-.02899-.231852-.05408-1.240464.479539-1.60637.533615-.365906 1.890253-.781158 3.827839-.781158 2.375504 0 5.212231 1.506397 5.212231 1.506397.897454.533603 1.982092.14301 2.418028-.703211l-3.556722-3.556721c-1.16046-.385951-2.565678-.716766-4.073537-.716766z" fill="#66b744" fill-rule="evenodd"/></g></svg>