<svg height="32" width="32" xmlns="http://www.w3.org/2000/svg"><g transform="translate(82.655993 4.526367)"><path d="m-68.533203-2.6289062h-6.941406c-1.482833 0-2.807936.5974481-3.804688 1.5351562.04079.071227.123285.24197089.246094.53710938.145501.34972402.414505.99611843.597656 1.43554687.457662 1.09802035.511713 1.37155225.507813 2.57226565-.0032 1.0067323-.01925 1.1418114-.402344 3.5703125-.0772.4896661-.138178 1.0906298-.142578 1.421875-.0074.520194.006.5988062.121094.8242187.07879.1544005.192848.28448.298828.34375.170573.095404.169649.093914.585937-.035156.229252-.071068.680714-.1946418 1.003906-.2773438.323203-.082705.763512-.2072396.976563-.2753906.400004-.1279478 1.476562-.5736661 1.476562-.6113281-.00001-.011639-.05592-.1263175-.123046-.2558594-.197193-.3805503-.307163-.8429515-.328126-1.3359375-.02096-.492986.04769-1.0175932.207032-1.5234375.100225-.3180323.156544-.3968975.28125-.3984375.12993-.00158.165374.1756678.08984.453125-.0949.348362-.09521.7094978.002 1.1679687.172981.818424.387519 1.2246152.753906 1.4296876.185116.1036101.282494.1191406.675781.1191406.632381 0 .604263.016528 2.050781-1.1601563.503614-.4096709 1.067555-.7380745 1.759766-1.0136719.692211-.2755973 1.513452-.4980764 2.527344-.6933593 1.718204-.330937 2.914585-.4056338 4.546875-.2792969.898644.069554 1.51602.081865 2.052734.00977.536715-.072099.99367-.2271863 1.570313-.4941406.763857-.3536229 1.075451-.4028188 1.341797-.2089844.34241.2491872.438486.7050516.230468 1.1035156-.294743.5645887-.991313 1.1598308-2.4375 2.0878907-1.076789.6910055-1.364068.9030163-2.068359 1.5214843-.238888.2097763-.632617.5422673-.875.7382813-.496047.4011385-.894917.8634195-1.474609 1.7089845-.500451.729983-.812009 1.063721-1.398438 1.49414-.802574.589058-1.463744.867178-2.277344.960938-.611205.07044-1.941975.0265-2.457031-.08203-.946797-.19949-1.977637-.620868-3.603516-1.47461-.888711-.466659-1.68515-.651814-3.58789-.828125-.87083-.08066-.947694-.08104-1.113281-.0039-.24262.113056-.227985.235551.0625.539063.302629.316161 1.081137.701618 1.701171.84375.706663.161989 1.200336.318658 1.730469.599609s1.096506.686168 1.949219 1.349609c.946185.736168 1.394063 1.0418 1.794922 1.220703.360525.160903.829122.275391 1.117187.275391.127759 0 .525771.0332.884766.07422 1.007233.11514 1.879824.31474 2.458984.535156.579161.220417.863442.461494.691406.664063-.0847.09976-.18614.0966-1.050781-.04883-.408231-.06866-.866141-.125-1.017578-.125-.151447.000001-.696621.07882-1.210937.177735-1.098414.211255-2.181395.272008-2.726563.150391-.451045-.100605-.875507-.326741-1.386719-.742188-1.163195-.945286-2.039789-1.527005-3.839843-2.544922-1.410516-.797633-1.860688-1.079158-2.357422-1.472656-.711585-.563696-1.166528-1.227182-1.375-2.041016s-.170994-1.7774942.09766-2.941406c.08238-.3570353.276413-1.1205175.431641-1.6972656.332274-1.2345473.438046-1.8622022.435546-2.6035156-.0032-1.014729-.210657-1.7564991-.824218-2.95507818l-.205078-.3984375c-.434003.79411288-.746141 1.66059308-.746141 2.63280088v17.0527344c0 3.088651 2.485568 5.576172 5.574219 5.576172h6.99414c-.991913-.150446-1.976733-.272468-3.082031-.666016-1.568983-.558645-3.178219-1.33616-4.619141-2.257812-.860554-.550434-1.813866-1.386339-2.009765-1.761719-.109176-.209219-.12924-.421645-.07422-.597656.05502-.176012.18464-.314783.376953-.371094.419277-.122754.963729.103376 2.269531.941406.858875.551204 2.11792 1.191295 3.064453 1.558594 1.634915.63442 3.160816 1.022687 4.613282 1.167969s2.831399.04762 4.173828-.289063c1.510149-.378744 4.247629-1.339743 5.351562-1.878906.91257-.445704 1.737759-.970799 2.498047-1.595703.760289-.624904 1.45497-1.349126 2.109375-2.191406.326553-.420305.652921-.700777.962891-.962891v-13.7246094c0-3.08865078-2.485568-5.5761718-5.574219-5.5761718h-8.464844c-.151595.4101723-.241629.738973-.53125 1.3320312-.275582.564305-.598438 1.25270261-.716796 1.52734375-.381512.88528985-.447607 1.00895825-.798829 1.53125005-.311316.4629323-.625584.8174439-.904297 1.0332031-.278712.2157592-.521129.2934997-.689453.2011719-.073082-.0400907-.189258-.1506758-.255858-.2460938-.10345-.1482608-.118116-.2185682-.09766-.4746094.02904-.36448.20577-.7556473.666015-1.48242185.36795-.58100723 1.094079-1.96934185 1.507813-2.88476565.09018-.1995315.108206-.3528582.171875-.5371093zm-5.429688.3378906h.404297l.183594.7617187c.286191 1.18587647.337146 1.54391617.253906 1.7558594-.05925.15081124-.265401.0906853-.423828-.12304688-.08227-.11092331-.221617-.39747566-.310547-.63671874-.147465-.39669-.511719-1.61979698-.511719-1.71874998 0-.022784.182175-.039063.404297-.039063zm14.589844 1.66406248c.309641-.0122091.626249-.0118876.949219 0 .916711.0337382 2.050209.17631883 2.65625.3359375.876029.23072523 1.776513.69470106 2.283203 1.17578124.460788.43749058.592505.81460758.376953 1.07421878-.08384.1009803-.139148.1180012-.394531.1132812-.163976-.00304-.65423-.086592-1.089844-.1855468-1.468329-.333541-3.391884-.561877-4.34375-.515625-1.138666.055323-2.911839.4121033-4.009765.8066406-1.881111.6759782-2.717091.8456208-3.142579.6367187-.382002-.1875576-.527223-.6633969-.300781-.9863281.133546-.190457.534527-.4889031.91211-.6757812.393022-.1945151 2.888463-1.15429203 3.482421-1.3398438.82231-.2568861 1.692172-.40282582 2.621094-.43945312z" fill="#ff7f2a" fill-rule="evenodd"/><path d="m-79.157894 5.2458839c3.037625-2.8878465 8.23888-1.3910625 9.584439-1.4212669 1.345558-.030203 8.735701-4.61046195 17.310297-2.0043496l-.109331 4.5553419c-6.906577-.00249-5.086763 12.1504547-13.702468 10.8963767l-5.393523-.473757-7.689417-4.956211z" fill="#fff"/><g fill-rule="evenodd"><path d="m-67.699219 8.84375c-.543793 0-.902473.350198-1.003906.7597656-.05072.2047838-.03618.4251374.05078.6230464.08696.19791.247531.373998.490235.492188.443146.215798.912774.124456 1.242187-.242188.247216-.27519.322263-.6145244.210938-.9394526-.150855-.4402751-.513471-.6933594-.990234-.6933594z"/><path d="m-66.21875 6.2109375c-.07628-.010343-.157158.00167-.304688.03125-.482613.096747-1.477775.4381472-1.933593.6621094-.496713.2440539-1.031203.5909751-1.466797.9511719-.175168.1448481-.504828.4176758-.732422.6054687-.227593.1877915-.544001.405219-.703125.484375l-.291016.1445313-.03711.3886718c-.04436.460736.0073.9453154.142578 1.4082034.135304.462888.353647.904709.640625 1.27539.177713.229527.217829.252464.525391.314453.81212.163667 2.035252.18933 2.990234.06055.565888-.07631 1.102195-.336256 1.734375-.833984.676135-.532331 1.436275-1.259613 1.734375-1.660156.235549-.3165078.241164-.3297976.208984-.5996096-.08093-.6784452-.326569-1.305541-.707031-1.8398438-.380461-.5343027-.89673-.9745037-1.517578-1.28125-.135236-.066816-.206923-.1009851-.283203-.1113281zm-1.480469 2.6328125c.476763 0 .839379.2530843.990235.6933594.111325.3249282.03628.6642626-.210938.9394526-.329413.366644-.799041.457986-1.242187.242188-.242704-.11819-.403272-.294278-.490235-.492188-.08696-.197909-.101498-.4182626-.05078-.6230464.101433-.4095676.460113-.7597656 1.003906-.7597656z" fill="#8dde81"/><g fill="#4f4f4f"><path d="m-59.373047-.62695312c-.928922.0366273-1.798784.18256702-2.621094.43945312-.593958.18555177-3.089399 1.1453287-3.482421 1.3398438-.377583.1868781-.778564.4853242-.91211.6757812-.226442.3229312-.08122.7987705.300781.9863281.425488.2089021 1.261468.03926 3.142579-.6367187 1.097926-.3945373 2.871099-.751318 4.009765-.8066406.951866-.046252 2.875421.182084 4.34375.515625.435614.098955.925868.1825022 1.089844.1855468.255383.00472.310687-.012301.394531-.1132812.215552-.2596112.08384-.6367282-.376953-1.07421878-.50669-.48108018-1.407174-.94505601-2.283203-1.17578124-.606041-.15961867-1.739539-.30219928-2.65625-.3359375-.32297-.0118876-.639578-.0122091-.949219 0z"/><path d="m-73.962891-2.2910156c-.222122-.0000002-.404297.016279-.404297.039063 0 .098953.364254 1.32205998.511719 1.71874998.08893.23924308.228275.52579543.310547.63671874.158427.21373217.36458.27385812.423828.12304688.08324-.21194323.03229-.56998293-.253906-1.7558594l-.183594-.7617187z"/><path d="m-80.302734.31445312.205078.3984375c.613561 1.19857908.82105 1.94034918.824218 2.95507818.0025.7413134-.103272 1.3689683-.435546 2.6035156-.155228.5767481-.349264 1.3402303-.431641 1.6972656-.26865 1.1639118-.306128 2.127572-.09766 2.941406.208472.813834.663415 1.47732 1.375 2.041016.496734.393498.946906.675023 2.357422 1.472656 1.800054 1.017917 2.676648 1.599636 3.839843 2.544922.511212.415447.935674.641583 1.386719.742188.545168.121617 1.628149.06086 2.726563-.150391.514316-.09891 1.05949-.177734 1.210937-.177735.151437 0 .609347.05634 1.017578.125.864641.14543.966082.148593 1.050781.04883.172036-.202569-.112245-.443646-.691406-.664063-.57916-.220416-1.451751-.420016-2.458984-.535156-.358995-.04102-.757007-.07422-.884766-.07422-.288065 0-.756662-.114488-1.117187-.275391-.400859-.178903-.848737-.484535-1.794922-1.220703-.852713-.663441-1.419086-1.068658-1.949219-1.349609s-1.023806-.43762-1.730469-.599609c-.620034-.142132-1.398542-.527589-1.701171-.84375-.290485-.303512-.30512-.426007-.0625-.539063.165587-.07713.242451-.07675 1.113281.0039 1.90274.176311 2.699179.361466 3.58789.828125 1.625879.853742 2.656719 1.27512 3.603516 1.47461.515056.108532 1.845826.152475 2.457031.08203.8136-.09376 1.47477-.37188 2.277344-.960938.586429-.430419.897987-.764157 1.398438-1.49414.579692-.845565.978562-1.307846 1.474609-1.7089845.242383-.196014.636112-.528505.875-.7382813.704291-.618468.99157-.8304788 2.068359-1.5214843 1.446187-.9280599 2.142757-1.523302 2.4375-2.0878907.208018-.398464.111942-.8543284-.230468-1.1035156-.266346-.1938344-.57794-.1446385-1.341797.2089844-.576643.2669543-1.033598.4220415-1.570313.4941406-.536714.072099-1.15409.059789-2.052734-.00977-1.63229-.1263369-2.828671-.05164-4.546875.2792969-1.013892.1952829-1.835133.417762-2.527344.6933593-.692211.2755974-1.256152.604001-1.759766 1.0136719-1.446518 1.1766845-1.4184 1.1601563-2.050781 1.1601563-.393287 0-.490665-.015531-.675781-.1191406-.366387-.2050724-.580925-.6112636-.753906-1.4296876-.09716-.4584709-.09685-.8196067-.002-1.1679687.07553-.2774572.04009-.454704-.08984-.453125-.124706.00154-.181025.080405-.28125.3984375-.159347.5058443-.227994 1.0304515-.207032 1.5234375.02096.492986.130933.9553872.328126 1.3359375.06713.1295419.123036.2442208.123046.2558594 0 .037662-1.076558.4833803-1.476562.6113281-.213051.068151-.65336.192686-.976563.2753906-.323192.082702-.774654.2062756-1.003906.2773438-.416288.12907-.415364.1305601-.585937.035156-.10598-.05927-.220042-.1893495-.298828-.34375-.115075-.2254125-.128487-.3040247-.121094-.8242187.0044-.3312452.06538-.9322089.142578-1.421875.383096-2.4285011.399176-2.5635802.402344-3.5703125.0039-1.2007134-.05015-1.4742453-.507813-2.57226565-.183151-.43942844-.452155-1.08582285-.597656-1.43554687-.122809-.29513849-.205308-.46588258-.246094-.53710938-.425909.40067984-.740618.89065404-1.023437 1.40820312zm14.083984 5.89648438c.07628.010343.147967.044512.283203.1113281.620848.3067463 1.137117.7469473 1.517578 1.28125.380462.5343028.626106 1.1613986.707031 1.8398438.03218.269812.02656.2831018-.208984.5996096-.2981.400543-1.05824 1.127825-1.734375 1.660156-.63218.497728-1.168487.757673-1.734375.833984-.954982.128783-2.178114.10312-2.990234-.06055-.307562-.06199-.347678-.08493-.525391-.314453-.286978-.370681-.505321-.812502-.640625-1.27539s-.186935-.9474674-.142578-1.4082034l.03711-.3886718.291016-.1445313c.159124-.079156.475532-.2965835.703125-.484375.227594-.1877929.557254-.4606206.732422-.6054687.435594-.3601968.970084-.707118 1.466797-.9511719.455818-.2239622 1.45098-.5653625 1.933593-.6621094.14753-.029576.228405-.041593.304688-.03125z"/></g><path d="m-53.027344 20.900391-5.126953 3.15625c-1.527117.559629-3.18262 1.030427-4.757812 1.351562-.591508.120591-1.047767.0933-1.605469.167969h6.097656c2.768795 0 4.949024-2.036898 5.392578-4.675781z" fill="#ff7f2a"/><path d="m-52.845703 16.671875c-.30997.262114-.636338.542586-.962891.962891-.654405.84228-1.349086 1.566502-2.109375 2.191406-.760288.624904-1.585477 1.149999-2.498047 1.595703-1.103933.539163-3.841413 1.500162-5.351562 1.878906-1.342429.336679-2.721362.434345-4.173828.289063s-2.978367-.533549-4.613282-1.167969c-.946533-.367299-2.205578-1.00739-3.064453-1.558594-1.305802-.83803-1.850254-1.06416-2.269531-.941406-.192313.05631-.321932.195082-.376953.371094-.05502.176011-.03496.388437.07422.597656.195899.37538 1.149211 1.211285 2.009765 1.761719 1.440922.921652 3.050158 1.699167 4.619141 2.257812 1.105298.393548 2.090118.51557 3.082031.666016h3.962891c.557702-.07467 1.013961-.04738 1.605469-.167969 1.575192-.321135 3.230695-.791933 4.757812-1.351562l5.126953-3.15625c.05124-.304849.181641-.580535.181641-.900391z" fill="#4f4f4f"/><path d="m-68.533203-2.6289062c-.06367.1842511-.0817.3375778-.171875.5371093-.413734.9154238-1.139863 2.30375842-1.507813 2.88476565-.460245.72677455-.636972 1.11794185-.666015 1.48242185-.02046.2560412-.0058.3263486.09766.4746094.0666.095418.182776.2060031.255859.2460938.168324.092328.410741.014587.689453-.2011719.278713-.2157592.592981-.5702708.904297-1.0332031.351222-.5222918.417317-.6459602.798829-1.53125005.118358-.27464114.441214-.96303875.716796-1.52734375.289621-.5930582.379655-.9218589.53125-1.3320312z" fill="#4f4f4f"/></g></g></svg>