<svg height="12pt" viewBox="0 0 12 12" width="12pt" xmlns="http://www.w3.org/2000/svg"><path d="m2.183594 2.726562v6.546876h1.089844v-6.546876zm2.179687.546876v1.089843h3.269531c.234376 0 .546876.335938.546876.546875v.542969h-2.726563c-.5 0-.945313.210937-1.226563.53125-.28125.316406-.410156.714844-.410156 1.105469.003906.394531.148438.792968.429688 1.109375.277344.316406.710937.527343 1.207031.527343h3.816406v-.460937c.007813-.050781 0-.082031 0-.082031v-3.273438c0-.890625-.71875-1.636718-1.636719-1.636718zm1.089844 3.273437h2.726563v1.089844h-2.726563c-.214844 0-.308594-.058594-.390625-.152344s-.152344-.242187-.152344-.394531c-.003906-.152344.054688-.300782.136719-.390625.078125-.089844.175781-.152344.40625-.152344zm0 0" fill="#d3dae3"/></svg>