<svg height="12pt" viewBox="0 0 12 12" width="12pt" xmlns="http://www.w3.org/2000/svg"><path d="m2.183594 2.183594v2.179687h1.089844v-1.089843h1.089843v1.089843h1.089844v-1.089843h1.09375v1.089843h1.089844v-1.089843h1.089843v1.089843h1.089844v-2.179687zm0 2.726562v.542969h.695312l-.152344.15625-.542968.542969v.785156l.542968-.546875.9375-.9375h1.398438l-.152344.15625-.546875.542969-.9375.9375h-1.242187v2.726562h7.632812v-2.179687h-1.089844v1.089843h-1.089843v-1.089843h-1.089844v1.089843h-1.09375v-1.089843h.546875v-.9375l-.390625.390625h-1.398437l1.636718-1.636719h.152344v-.542969zm4.90625.542969 1.09375 2.183594 1.089844-2.183594zm-3.816406 2.183594h1.089843v1.089843h-1.089843zm0 0" fill="#d3dae3"/></svg>