<svg height="12pt" viewBox="0 0 12 12" width="12pt" xmlns="http://www.w3.org/2000/svg"><path d="m2.726562 2.183594c-.300781 0-.542968.242187-.542968.542968v3.273438c0 .300781.242187.546875.542968.546875h6.546876c.300781 0 .542968-.246094.542968-.546875v-3.273438c0-.300781-.242187-.542968-.542968-.542968zm.546876 1.089844h.542968v1.089843h.546875v-1.089843h1.089844v1.089843h.546875v-1.089843h1.089844v1.089843h.546875v-1.089843h1.089843v2.179687h-5.453124zm.542968 3.816406-1.632812 1.363281 1.632812 1.363281zm4.367188 0v2.726562l1.632812-1.363281zm0 0" fill="#d3dae3"/></svg>