<svg height="12pt" viewBox="0 0 12 12" width="12pt" xmlns="http://www.w3.org/2000/svg"><path d="m6 2.726562c-1.8125 0-3.273438 1.460938-3.273438 3.273438s1.460938 3.273438 3.273438 3.273438 3.273438-1.460938 3.273438-3.273438c0-.480469-.105469-.9375-.289063-1.347656l-.425781.425781c.101562.289063.167968.597656.167968.921875 0 1.511719-1.214843 2.726562-2.726562 2.726562s-2.726562-1.214843-2.726562-2.726562 1.214843-2.726562 2.726562-2.726562c.894531 0 1.679688.433593 2.175781 1.09375l.394531-.390626c-.597656-.761718-1.523437-1.25-2.570312-1.25zm0 1.089844c-.605469 0-1.148438.246094-1.542969.640625l.386719.386719c.292969-.296875.703125-.480469 1.15625-.480469.90625 0 1.636719.730469 1.636719 1.636719s-.730469 1.636719-1.636719 1.636719-1.636719-.730469-1.636719-1.636719c0-.164062.03125-.320312.074219-.46875l-.425781-.425781c-.121094.273437-.195313.574219-.195313.894531 0 1.207031.976563 2.183594 2.183594 2.183594s2.183594-.976563 2.183594-2.183594-.976563-2.183594-2.183594-2.183594zm0 1.09375c-.601562 0-1.089844.488282-1.089844 1.089844s.488282 1.089844 1.089844 1.089844c.496094 0 .929688-.335938 1.054688-.816406h-.582032c-.097656.167968-.277344.269531-.472656.273437-.300781 0-.546875-.246094-.546875-.546875s.246094-.546875.546875-.546875c.195312 0 .375.105469.472656.273437h.582032c-.125-.480468-.558594-.816406-1.054688-.816406zm0 0" fill="#d3dae3"/></svg>