<svg height="12pt" viewBox="0 0 12 12" width="12pt" xmlns="http://www.w3.org/2000/svg"><path d="m9.816406 2.183594c-.101562-.117188-3.621094 2.863281-4.617187 4.09375-.144531.179687-.183594.308594-.371094.648437.121094.097657.359375.320313.523437.703125.324219-.210937.480469-.242187.652344-.40625 1.132813-1.074218 3.90625-4.925781 3.8125-5.039062zm-5.5 5.027344c-.425781.011718-.835937.375-1.117187 1.140624-.324219.875-.90625 1.226563-1.015625 1.207032.601562.246094 2.449218.875 2.90625-1.523438-.195313-.578125-.589844-.8125-.589844-.8125-.0625-.011718-.121094-.015625-.183594-.011718zm0 0" fill="#d3dae3"/></svg>