<svg height="12pt" viewBox="0 0 12 12" width="12pt" xmlns="http://www.w3.org/2000/svg"><path d="m2.183594 2.179688v1.191406c3.558594 0 6.445312 2.882812 6.445312 6.445312h1.1875c0-4.21875-3.417968-7.636718-7.632812-7.636718zm0 2.378906v1.191406c2.242187 0 4.066406 1.820312 4.066406 4.066406h1.1875c0-2.902344-2.351562-5.257812-5.253906-5.257812zm1.136718 2.980468c-.628906 0-1.136718.511719-1.136718 1.140626 0 .628906.507812 1.140624 1.136718 1.140624.632813 0 1.140626-.511718 1.140626-1.140624 0-.628907-.507813-1.140626-1.140626-1.140626zm0 0" fill="#d3dae3"/></svg>