<svg height="12pt" viewBox="0 0 12 12" width="12pt" xmlns="http://www.w3.org/2000/svg"><path d="m6.441406 2.21875c-.53125.003906-.980468.386719-1.070312.914062-.097656.59375.304687 1.152344.898437 1.253907.59375.097656 1.15625-.304688 1.253907-.898438.101562-.59375-.300782-1.15625-.894532-1.253906-.0625-.011719-.125-.015625-.1875-.015625zm-2.304687.734375c-.300781 0-.542969.246094-.542969.546875s.242188.542969.542969.542969.546875-.242188.546875-.542969-.246094-.546875-.546875-.546875zm4.539062.53125c-.300781 0-.546875.242187-.546875.542969 0 .304687.246094.546875.546875.546875s.542969-.242188.542969-.546875c0-.300782-.242188-.542969-.542969-.542969zm-5.371093.976563c-.53125.003906-.984376.390624-1.070313.914062-.097656.59375.304687 1.15625.898437 1.253906s1.15625-.300781 1.253907-.894531c.101562-.597656-.300781-1.160156-.898438-1.257813-.058593-.007812-.121093-.015624-.183593-.015624zm2.828124.78125c-.300781 0-.546874.242187-.546874.542968 0 .300782.246093.546875.546874.546875.300782 0 .546876-.246093.546876-.546875 0-.300781-.246094-.542968-.546876-.542968zm2.554688.113281c-.53125.003906-.984375.386719-1.070312.910156-.101563.597656.300781 1.15625.894531 1.257813.597656.097656 1.160156-.304688 1.257812-.898438.097657-.59375-.304687-1.15625-.898437-1.253906-.0625-.011719-.125-.015625-.183594-.015625zm-5.417969 1.953125c-.300781 0-.542969.246094-.542969.546875s.242188.542969.542969.542969.546875-.242188.546875-.542969-.246094-.546875-.546875-.546875zm2.277344.289062c-.53125.003906-.980469.390625-1.066406.914063-.097657.59375.300781 1.15625.894531 1.253906.597656.101563 1.160156-.300781 1.257812-.898437.097657-.59375-.304687-1.152344-.898437-1.253907-.0625-.007812-.125-.015625-.1875-.015625zm2.503906.585938c-.300781 0-.542969.242187-.542969.542968 0 .300782.242188.546876.542969.546876s.546875-.246094.546875-.546876c0-.300781-.246094-.542968-.546875-.542968zm0 0" fill="#d3dae3"/></svg>