<svg height="12pt" viewBox="0 0 12 12" width="12pt" xmlns="http://www.w3.org/2000/svg"><path d="m2.183594 2.183594v7.089844h1.089844v-7.089844zm1.632812 0v3.273437h.546875v-3.273437zm1.09375 0v7.089844h.542969v-7.089844zm1.089844 0v4.363281h.546875v-4.363281zm1.089844 0v3.273437h.546875v-3.273437zm1.09375 0v3.273437h1.632812v-3.273437zm-.546875 3.820312c-.300781 0-.546875.242188-.546875.542969v.546875h-.542969c-.300781 0-.546875.242188-.546875.542969v.546875c0 .300781.246094.546875.546875.546875h.542969v.542969c0 .300781.246094.546874.546875.546874h.546875c.300781 0 .542968-.246093.542968-.546874v-.542969h.546876c.300781 0 .542968-.246094.542968-.546875v-.546875c0-.300781-.242187-.542969-.542968-.542969h-.546876v-.546875c0-.300781-.242187-.542969-.542968-.542969zm0 0" fill="#d3dae3"/></svg>