<svg height="12pt" viewBox="0 0 12 12" width="12pt" xmlns="http://www.w3.org/2000/svg"><path d="m2.316406 3.273438c-.074218 0-.132812.0625-.132812.136718v.820313c0 .074219.058594.136719.132812.136719h.820313c.074219 0 .136719-.0625.136719-.136719v-.820313c0-.074218-.0625-.136718-.136719-.136718zm2.183594 0c-.074219 0-.136719.0625-.136719.136718v.820313c0 .074219.0625.136719.136719.136719h.816406c.078125 0 .136719-.0625.136719-.136719v-.820313c0-.074218-.058594-.136718-.136719-.136718zm2.183594 0c-.078125 0-.136719.0625-.136719.136718v.820313c0 .074219.058594.136719.136719.136719h.816406c.074219 0 .136719-.0625.136719-.136719v-.820313c0-.074218-.0625-.136718-.136719-.136718zm2.179687 0c-.074219 0-.136719.0625-.136719.136718v.820313c0 .074219.0625.136719.136719.136719h.820313c.074218 0 .132812-.0625.132812-.136719v-.820313c0-.074218-.058594-.136718-.132812-.136718zm-6.546875 2.183593c-.074218 0-.132812.058594-.132812.136719v.816406c0 .078125.058594.136719.132812.136719h.820313c.074219 0 .136719-.058594.136719-.136719v-.816406c0-.078125-.0625-.136719-.136719-.136719zm2.183594 0c-.074219 0-.136719.058594-.136719.136719v.816406c0 .078125.0625.136719.136719.136719h.816406c.078125 0 .136719-.058594.136719-.136719v-.816406c0-.078125-.058594-.136719-.136719-.136719zm2.183594 0c-.078125 0-.136719.058594-.136719.136719v.816406c0 .078125.058594.136719.136719.136719h.816406c.074219 0 .136719-.058594.136719-.136719v-.816406c0-.078125-.0625-.136719-.136719-.136719zm2.179687 0c-.074219 0-.136719.058594-.136719.136719v.816406c0 .078125.0625.136719.136719.136719h.820313c.074218 0 .132812-.058594.132812-.136719v-.816406c0-.078125-.058594-.136719-.132812-.136719zm-6.546875 2.179688c-.074218 0-.132812.0625-.132812.136719v.820312c0 .074219.058594.136719.132812.136719h.820313c.074219 0 .136719-.0625.136719-.136719v-.820312c0-.074219-.0625-.136719-.136719-.136719zm2.183594 0c-.074219 0-.136719.0625-.136719.136719v.820312c0 .074219.0625.136719.136719.136719h.816406c.078125 0 .136719-.0625.136719-.136719v-.820312c0-.074219-.058594-.136719-.136719-.136719zm2.183594 0c-.078125 0-.136719.0625-.136719.136719v.820312c0 .074219.058594.136719.136719.136719h.816406c.074219 0 .136719-.0625.136719-.136719v-.820312c0-.074219-.0625-.136719-.136719-.136719zm2.179687 0c-.074219 0-.136719.0625-.136719.136719v.820312c0 .074219.0625.136719.136719.136719h.820313c.074218 0 .132812-.0625.132812-.136719v-.820312c0-.074219-.058594-.136719-.132812-.136719zm0 0" fill="#d3dae3"/></svg>