<svg height="12pt" viewBox="0 0 12 12" width="12pt" xmlns="http://www.w3.org/2000/svg" xmlns:xlink="http://www.w3.org/1999/xlink"><filter id="a" height="100%" width="100%" x="0%" y="0%"><feColorMatrix in="SourceGraphic" type="matrix" values="0 0 0 0 1 0 0 0 0 1 0 0 0 0 1 0 0 0 1 0"/></filter><mask id="b"><g filter="url(#a)"><path d="m0 0h12v12h-12z" fill-opacity=".301961"/></g></mask><clipPath id="c"><path d="m0 0h12v12h-12z"/></clipPath><path d="m7.636719 7.363281v.546875c0 .144532.054687.289063.152343.390625l.425782.425781-.425782.425782c-.097656.097656-.152343.242187-.152343.394531v.542969h.546875c.152344 0 .292968-.054688.390625-.152344l.425781-.429688.425781.429688c.097657.097656.238281.152344.390625.152344h.546875v-.542969c0-.152344-.054687-.296875-.152343-.394531l-.425782-.425782.425782-.425781c.097656-.101562.152343-.246093.152343-.390625v-.546875h-.546875c-.152344 0-.292968.054688-.390625.152344l-.425781.425781-.425781-.425781c-.097657-.097656-.238281-.152344-.390625-.152344zm0 0" fill="#5c616c"/><g clip-path="url(#c)" mask="url(#b)"><path d="m2.183594 1.910156c-.546875 0-.546875.542969-.546875.542969v6s0 .546875.546875.546875h4.90625v-1.089844h-.542969v-1.09375h3.816406v-4.363281c0-.542969-.546875-.542969-.546875-.542969zm.542968 1.089844h6.546876v3.273438h-6.546876zm0 3.816406h2.726563v1.09375h-2.726563zm0 0" fill="#5c616c"/></g></svg>