<svg height="24" viewBox="0 0 24 24" width="24" xmlns="http://www.w3.org/2000/svg"><path d="m12.381843 2.5070243a10.000189 10.000001 0 0 0 -2.9697825.3339843 10.000189 10.000001 0 0 0 -7.0714221 12.2470704 10.000189 10.000001 0 0 0 12.2473006 7.071289 10.000189 10.000001 0 0 0 7.071422-12.24707 10.000189 10.000001 0 0 0 -9.277518-7.4052737z" opacity=".2"/><path d="m12.381843 2.0071202a10.000189 10.000001 0 0 0 -2.9697825.3339843 10.000189 10.000001 0 0 0 -7.0714221 12.2470705 10.000189 10.000001 0 0 0 12.2473006 7.071289 10.000189 10.000001 0 0 0 7.071422-12.24707 10.000189 10.000001 0 0 0 -9.277518-7.4052738z" fill="#2d4dc0"/><path d="m14.580078 6.4999985c-.477816.012765-.95291.1617604-1.339844.4355469-.448703.3174935-.76716.7764325-1.117187 1.1953125-.175014.20944-.361472.4111082-.576172.5820312-.214699.170923-.458638.3090348-.726563.3789063-.267924.069871-.552428.068935-.8261714.025391-.273744-.0435454-.5396661-.1283973-.7988281-.2246098-.5183242-.1924255-1.0283836-.4336324-1.5800781-.4902343-.7611955-.078097-1.5535958.2304809-2.0507813.796875-.4971855.5663935-.6844316 1.3761317-.4863281 2.0957037.1981035.719571.7764969 1.327609 1.4980469 1.576172.7215495.248564 1.5664528.129465 2.1855469-.308594.4487036-.317493.7652073-.774479 1.1152343-1.193359.1750139-.20944.3614719-.411109.5761719-.582032s.460592-.310988.728516-.380859c.267924-.06987.550474-.06893.824218-.02539s.539666.128396.798829.224609c.518323.192425 1.028383.433632 1.580078.490234.761195.0781 1.553595-.228526 2.050781-.794921.497185-.566395.686384-1.3761324.488281-2.0957039-.198104-.719571-.778451-1.329562-1.5-1.578125-.270581-.093211-.557061-.1346116-.84375-.1269536zm.605469 5.0019535c-.358394.0098-.715634.123379-1.005859.333985-.336556.244225-.575347.595753-.837891.917968-.131272.161109-.270601.31774-.431641.449219-.161039.131479-.343962.239222-.544922.292969-.200961.05375-.413815.05108-.61914.01758-.205326-.03349-.405221-.09786-.59961-.171875-.388776-.148019-.769786-.333413-1.1835934-.376953-.5709468-.06008-1.1661404.17564-1.5390625.611328-.3729215.435688-.5138253 1.059765-.3652343 1.613281.1485903.553517.5818381 1.021688 1.1230468 1.212891.5412097.191202 1.1743104.09868 1.6386714-.238282.336556-.244225.575348-.595753.837891-.917968.131272-.161109.270602-.315787.431641-.447266s.345915-.239222.546875-.292969c.200961-.05375.413815-.05303.61914-.01953.205326.0335.403268.09982.597657.173828.388775.14802.771739.333412 1.185546.376953.570948.06007 1.164188-.177593 1.53711-.613281.372923-.435688.513825-1.057812.365234-1.611328-.148591-.553517-.581838-1.021689-1.123047-1.212891-.202954-.0717-.417777-.103544-.632812-.09766zm-3.783203 5c-.09802.0061-.196089.0234-.291016.04883-.37971.101708-.715555.358885-.912109.699219-.196552.340336-.2501793.759076-.148438 1.138672.101739.379594.358781.713664.699219.910156.340439.196492.758962.252103 1.138672.150391.379709-.101708.715555-.358885.912109-.699219.196552-.340336.25018-.759076.148438-1.138672-.101739-.379597-.358781-.713666-.699219-.910158-.25533-.14737-.553592-.2174-.847656-.199219z" opacity=".2"/><path d="m14.580078 6c-.477816.012765-.95291.1617604-1.339844.4355469-.448703.3174935-.76716.7764325-1.117187 1.1953125-.175014.20944-.361472.4111082-.576172.5820312-.214699.170923-.458638.3090348-.726563.3789063-.267924.069871-.552428.0689346-.8261714.0253906-.273744-.043545-.5396661-.1283969-.7988281-.2246094-.5183242-.1924255-1.0283836-.4336324-1.5800781-.4902343-.7611955-.078097-1.5535958.2304809-2.0507813.796875-.4971855.5663935-.6844316 1.3761312-.4863281 2.0957032.1981035.719571.7764969 1.327609 1.4980469 1.576172.7215495.248564 1.5664528.129465 2.1855469-.308594.4487036-.317493.7652073-.774479 1.1152343-1.193359.1750139-.20944.3614719-.411109.5761719-.582032s.460592-.310988.728516-.380859c.267924-.06987.550474-.0689306.824218-.0253906s.539666.1283966.798829.2246096c.518323.192425 1.028383.433632 1.580078.490234.761195.0781 1.553595-.228526 2.050781-.7949218.497185-.5663942.686384-1.3761316.488281-2.0957031-.198104-.719571-.778451-1.329562-1.5-1.578125-.270581-.093211-.557061-.1346116-.84375-.1269531zm.605469 5.001953c-.358394.0098-.715634.123379-1.005859.333985-.336556.244225-.575347.595753-.837891.917968-.131272.161109-.270601.31774-.431641.449219-.161039.131479-.343962.239222-.544922.292969-.200961.05375-.413815.051078-.61914.017578-.205326-.03349-.405221-.097864-.59961-.171875-.388776-.148019-.769786-.333413-1.1835934-.376953-.5709468-.06008-1.1661404.17564-1.5390625.611328-.3729215.435688-.5138253 1.059765-.3652343 1.613281.1485903.553517.5818381 1.021688 1.1230468 1.212891.5412097.191202 1.1743104.098683 1.6386714-.238282.336556-.244225.575348-.595753.837891-.917968.131272-.161109.270602-.315787.431641-.447266s.345915-.239222.546875-.292969c.200961-.05375.413815-.053031.61914-.019531.205326.0335.403268.099817.597657.173828.388775.14802.771739.333412 1.185546.376953.570948.06007 1.164188-.177593 1.53711-.613281.372923-.435688.513825-1.057812.365234-1.611328-.148591-.553517-.581838-1.021689-1.123047-1.212891-.202954-.0717-.417777-.103544-.632812-.097656zm-3.783203 5c-.09802.0061-.196089.023398-.291016.048828-.37971.101708-.715555.358885-.912109.699219-.196552.340336-.2501793.759076-.148438 1.138672.101739.379594.358781.713664.699219.910156.340439.196492.758962.252103 1.138672.150391.379709-.101708.715555-.358885.912109-.699219.196552-.340336.25018-.759076.148438-1.138672-.101739-.379595-.358781-.713664-.699219-.910156-.25533-.14737-.553592-.2174-.847656-.199219z" fill="#fff"/><path d="m12.381836 2.006836a10.000189 10.000001 0 0 0 -2.9697265.3339843 10.000189 10.000001 0 0 0 -7.4003907 9.8652347 10.000189 10.000001 0 0 1 7.4003907-9.3652347 10.000189 10.000001 0 0 1 2.9697265-.3339843 10.000189 10.000001 0 0 1 9.277343 7.4052735 10.000189 10.000001 0 0 1  .329102 2.3818365 10.000189 10.000001 0 0 0 -.329102-2.8818365 10.000189 10.000001 0 0 0 -9.277343-7.4052735z" fill="#fff" opacity=".1"/></svg>