<svg height="24" viewBox="0 0 6.35 6.35" width="24" xmlns="http://www.w3.org/2000/svg"><g transform="translate(0 -290.64999)"><path d="m .79375012 291.31145c-.14657917 0-.26458334.118-.26458334.26458v4.7625c0 .14658.11800417.26459.26458334.26459h2.91041678l2.1166667-2.11667v-2.91042c0-.14658-.1180042-.26458-.2645833-.26458z" opacity=".2"/><path d="m .79375012 291.17916c-.14657917 0-.26458334.11801-.26458334.26458v4.7625c0 .14658.11800417.26459.26458334.26459h2.91041678l2.1166667-2.11667v-2.91042c0-.14657-.1180042-.26458-.2645833-.26458z" fill="#ffa234"/><path d="m5.8208336 294.35417-2.1166667 2.11666v-1.85208s0-.26458.2645833-.26458z" fill="#ffcd82"/><path d="m .79374981 291.17917c-.14657918 0-.26458335.11801-.26458335.26458v.13229c0-.14657.11800417-.26458.26458335-.26458h4.76250009c.1465792 0 .2645834.11801.2645834.26458v-.13229c0-.14657-.1180042-.26458-.2645834-.26458z" fill="#fff" opacity=".2"/><path d="m3.9687499 294.35417c-.2645834 0-.2645834.26458-.2645834.26458v.13229s0-.26458.2645834-.26458h1.7197917l.1322917-.13229z" fill="#fff" opacity=".2"/><path d="m2.3812502 292.2375c.3572976.00053.6824824.20634.8356097.52917h1.8102237v.79375h-1.810483c-.1530871.32273-.4781465.52865-.8353504.52916-.3572029-.00053-.682261-.20643-.8353478-.52916h.8353478v-.79375h-.8356071c.1531271-.32283.4783106-.52876.8356071-.52917z" fill="#4b4b4b"/></g></svg>