<svg height="24" width="24" xmlns="http://www.w3.org/2000/svg"><path d="m9.5 3.4998268.2207031.011719s-1.4170513-.1932887-3.0058593.2480468c-.7944041.2206676-1.7036715.6185237-2.4628907 1.4199217-.7592191.801398-1.2519531 2.0167455-1.2519531 3.3203125 0 2.6071332 1.8594319 4.3536132 3.3554688 5.1015612 1.4960368.747949 2.9238281.886719 2.9238281.886719a2.0002 2.0002 0 0 0  .2207031.011719h2.5a2.0002 2.0002 0 0 0  .355469-.0293h2.173828s.7647.02715 1.4375.326172c.6728.299024 1.0625.423839 1.0625 1.673828 0 .446425-.07172.479137-.15625.568359-.08453.08922-.300269.224576-.630859.316407-.661181.183664-1.492188.126956-1.492188.126956a2.0002 2.0002 0 0 0 -.220703-.01172h-7.529297a2.0002 2.0002 0 1 0 0 4h7.529297l-.222656-.01367s1.419004.193289 3.007812-.248047c.794404-.220667 1.703672-.61657 2.462891-1.417968s1.251953-2.016746 1.251953-3.320313c0-2.749989-1.862265-4.627148-3.439453-5.328125-1.577189-.700977-3.060547-.671875-3.060547-.671875h-2.5a2.0002 2.0002 0 0 0 -.371094.0293h-1.9746092c-.0373944-.005225-.802892-.108515-1.5390626-.476566-.7539517-.3769401-1.1445312-.6305891-1.1445312-1.5234372 0-.4464241.0697703-.48109.1542969-.5703125.0845265-.0892225.3002691-.2226225.6308593-.3144531.6611806-.1836613 1.4941407-.1269532 1.4941407-.1269532a2.0002 2.0002 0 0 0  .2207031.0117188h7.5a2.0002 2.0002 0 1 0 0-4z" opacity=".2"/><path d="m12.028439 11.970017h2.499987s4.499977.000011 4.499977 3.99999c0 3.499983-4.499977 2.999985-4.499977 2.999985h-7.5284464m4.9999744-6.97015h-2.4999871s-4.4999771-.499786-4.4999771-3.999768c0-3.4999821 4.4999771-2.9999847 4.4999771-2.9999847h7.4999621" fill="none" stroke="#5e983c" stroke-linecap="round" stroke-linejoin="round" stroke-width="4"/><path d="m8.8144531 2.9707031c-.5528638.0068448-1.3052053.0683948-2.0996093.2890625-.7944041.2206676-1.7036715.6185239-2.4628907 1.4199219-.7592191.801398-1.2519531 2.0167455-1.2519531 3.3203125 0 .088914.0172472.1689529.0214844.2558594.0579604-1.2086895.5196523-2.3258656 1.2304687-3.0761719.7592192-.801398 1.6684866-1.1992543 2.4628907-1.4199219 1.588808-.4413355 3.0058593-.2480468 3.0058593-.2480468l-.2207031-.0117188h7.5a2.0002 2.0002 0 0 1 2.011719 1.7441406 2.0002 2.0002 0 0 0 -2.011719-2.2441406h-7.5l.2207031.0117188s-.3533862-.0478604-.90625-.0410157zm-1.7851562 5.2558594c-.0128935.0741461-.0292969.1280876-.0292969.2734375 0 .8928481.3905796 1.1464968 1.1445312 1.523438.7361707.36805 1.5016681.471337 1.5390626.476562h1.9746092a2.0002 2.0002 0 0 1  .371094-.029297h2.5s1.483358-.029102 3.060547.671875c1.525479.677996 3.302095 2.4642 3.417968 5.06836.003839-.081176.021485-.158282.021485-.240235 0-2.749989-1.862265-4.627148-3.439453-5.328125-1.577189-.7009772-3.060547-.6718749-3.060547-.6718749h-2.5a2.0002 2.0002 0 0 0 -.371094.0292969h-1.9746092c-.0373945-.0052215-.8028919-.1085118-1.5390626-.4765625-.6780249-.3389806-1.0447379-.6027635-1.1152343-1.296875zm9.9746091 7.9765625c-.025501.182514-.069824.271515-.130859.335937-.08453.089221-.300269.224576-.630859.316407-.661181.183664-1.492188.126953-1.492188.126953a2.0002 2.0002 0 0 0 -.220703-.011719h-7.529297a2.0002 2.0002 0 0 0 -2.0117188 2.255859 2.0002 2.0002 0 0 1 2.0117188-1.755859h7.529297a2.0002 2.0002 0 0 1  .220703.011719s.831007.056711 1.492188-.126953c.33059-.091831.546329-.227186.630859-.316407s.15625-.121934.15625-.568359c0-.112052-.019204-.172673-.025391-.267578z" fill="#fff" opacity=".1"/><path d="m11.985306 1.0002168c-.551897.00808-.992897.4611467-.985347 1.0123159v7.9874673h1.99999v-7.9874673c.007706-.5626267-.451273-1.02055367-1.014643-1.0123159zm-.985347 12.9997832v7.987c-.01912 1.350504 2.019105 1.350504 1.99999 0v-7.987z" fill="#97ca79" fill-rule="evenodd"/><path d="m11 14h2v .5h-2z" opacity=".2"/><path d="m11.984375 1c-.551897.00808-.991925.4605495-.984375 1.0117188v.5c-.00755-.5511692.432478-1.0036388.984375-1.0117188.56337-.0082378 1.023331.4490921 1.015625 1.0117188v-.5c.007706-.5626268-.452255-1.01995657-1.015625-1.0117188z" fill="#fff" fill-rule="evenodd" opacity=".2"/></svg>