<svg height="24" width="24" xmlns="http://www.w3.org/2000/svg"><path d="m2.00585 12.25c-.00205.0835-.00585.166-.00585.25 0 5.54 4.46 10 10 10s10-4.46 10-10c0-.08394-.0038-.16657-.0059-.25-.132 5.423-4.538 9.75-9.994 9.75s-9.862-4.327-9.994-9.75z" opacity=".2"/><rect fill="#307ada" height="20" rx="10" transform="matrix(0 -1 -1 0 0 0)" width="20" x="-22" y="-22"/><path d="m12 2c-5.54 0-10 4.46-10 10 0 .084.0038.1665.00585.25.13235-5.423 4.53815-9.75 9.994-9.75s9.862 4.327 9.994 9.75c.002-.0835.006-.166.006-.25 0-5.54-4.46-10-10-10z" fill="#fff" opacity=".1"/><path d="m12 5c-3.866 0-7 3.134-7 7s3.134 7 7 7 7-3.134 7-7-3.134-7-7-7z" fill="#3f3f3f"/><path d="m2 12.500249h7l2-4.9999988 2 9.9999988 2-5h7" style="opacity:.2;fill:none;stroke:#000;stroke-width:2;stroke-linecap:round;stroke-linejoin:round"/><path d="m2 12.000249h7l2-4.9999997 2 9.9999997 2-5h7" fill="none" stroke="#22d3ff" stroke-linecap="round" stroke-linejoin="round" stroke-width="2"/></svg>