<svg height="24" viewBox="0 0 24 24" width="24" xmlns="http://www.w3.org/2000/svg"><path d="m13 2.5a8 8 0 0 0 -8 8 8 8 0 0 0  .00781.253906l-.5488256.951172-1.3242188 2.294922a1.0001 1.0001 0 0 0  .8652344 1.5h1v2.578125c0 .787263.6346119 1.421875 1.421875 1.421875h2.578125v1.578125c0 .787263.6346119 1.421875 1.421875 1.421875h6.15625c.787263 0 1.421875-.634612 1.421875-1.421875v-4.333984a8 8 0 0 0 3-6.244141 8 8 0 0 0 -8-8z" opacity=".2"/><g fill="#18b2d6"><circle cx="13" cy="10" r="8"/><rect height="9" rx="1.421" width="9" x="5" y="10"/><rect height="9" rx="1.421" width="9" x="9" y="13"/><path d="m6.5977685 8.4091795a1.0001 1.0001 0 0 0 -.8125.4990235l-1.3261719 2.295899-1.3251952 2.295898a1.0001 1.0001 0 0 0  .8662108 1.5h2.6503908 2.6513675a1.0001 1.0001 0 0 0  .8662105-1.5l-1.325195-2.295898-1.326172-2.295899a1.0001 1.0001 0 0 0 -.819336-.4990235 1.0001 1.0001 0 0 0 -.099609 0z"/></g><path d="m13.36144 4.5234198c-.159441-.00503-.320613-.00385-.481445.00195-.912482.032891-1.835341.239843-2.645508.6025392-.8370286.436033-1.5593911 1.063374-2.1083981 1.831055-.584717.9262805-.8141275 2.01835-.451172 2.7131025.4284525.8201235 1.3917155 1.3183595 2.302301 1.3183595.4718741 0 .5087891.0254.5087891.364258 0 .742446.894975 1.165419 2.250433 1.165419.723694 0 .845437.03135.780274.201172-.09949.259268.314162 1.213568.759765 1.628526.190812.177687.425681.51217.522461.743164.188746.450498.374265.506135.893555.269531.396651-.180726.410482-.356758.07129-.913085-.141884-.232712-.258522-.356241-.258789-.398018-.00027-.04178-.09868-.07185.452148-.06641 1.598056.01579 2.106397-.695481 2.107414-1.999444.000163-.211446.108217-.365198.254111-.491407.493644-.23953.657283-.497495.681444-.993947-.002502-2.5728105-1.645037-4.907683-4.083009-5.7296949-.056758-.0166665-.111245-.0361841-.168945-.0517578-.440082-.1155108-.908394-.1802354-1.386719-.1953125z" opacity=".2"/><path d="m13.36144 4.0232256c-.159441-.00503-.320613-.00385-.481445.00195-.912482.032891-1.835341.2398429-2.645508.6025391-.8370286.4360328-1.5593911 1.0633738-2.1083981 1.8310548-.584717.9262805-.8141275 2.01835-.451172 2.7131025.4284525.820124 1.3917155 1.31836 2.302301 1.31836.4718741 0 .5087891.02539.5087891.364257 0 .742447.894975 1.16542 2.250433 1.16542.723694 0 .845437.03135.780274.201172-.09949.259268.314162 1.213568.759765 1.628526.190812.177687.425681.512169.522461.743164.188746.450498.374265.506135.893555.269531.396651-.180727.410482-.356758.07129-.913086-.141884-.232712-.258522-.35624-.258789-.398018-.00027-.04178-.09868-.07184.452148-.06641 1.598056.01579 2.106397-.69548 2.107414-1.999443.000163-.211446.108217-.365199.254111-.491408.493643-.239521.657282-.497486.681443-.993937-.002501-2.57282-1.645036-4.9076925-4.083008-5.7297041-.056758-.0166666-.111245-.0361841-.168945-.0517578-.440082-.1155109-.908394-.1802354-1.386719-.1953125z" fill="#fff"/><path d="m13 2a8 8 0 0 0 -8 8 8 8 0 0 0  .0078125.253906 8 8 0 0 1 7.9921875-7.753906 8 8 0 0 1 7.988281 7.75 8 8 0 0 0  .011719-.25 8 8 0 0 0 -8-8zm-7.9921875 8.253906-.5488281.951172-1.3242188 2.294922a1.0001 1.0001 0 0 0 -.1015625.75 1.0001 1.0001 0 0 1  .1015625-.25l1.3242188-2.294922.5488281-.951172a8 8 0 0 1 -.0078125-.253906 8 8 0 0 1  .0078125-.246094z" fill="#fff" opacity=".2"/></svg>