<svg height="24" viewBox="0 0 24 24" width="24" xmlns="http://www.w3.org/2000/svg"><g transform="translate(1 -1029.4)"><rect fill="#3b5999" height="20" rx="1.5" transform="matrix(0 -1 -1 0 0 0)" width="20" x="-1051.4" y="-21"/><path d="m15.391 1036.9c-1.4834.055-3.3906.5-3.3906 4v2h-2v3h2v5.5h3v-5.5h2.5l.5-3h-3v-2c0-1 1-1 1-1h2v-3h-2c-.1875 0-.39746-.01-.60938 0z" opacity=".2"/><path d="m15.391 1036.4c-1.4834.055-3.3906.5-3.3906 4v2h-2v3h2v6h3v-6h2.5l.5-3h-3v-2c0-1 1-1 1-1h2v-3h-2c-.1875 0-.39746-.01-.60938 0z" fill="#fff"/><path d="m2.5 1031.4c-.831 0-1.5.669-1.5 1.5v.5c0-.831.669-1.5 1.5-1.5h17c .831 0 1.5.669 1.5 1.5v-.5c0-.831-.669-1.5-1.5-1.5z" fill="#fff" opacity=".1"/><path d="m1 1049.9v.5c0 .831.669 1.5 1.5 1.5h17c .831 0 1.5-.669 1.5-1.5v-.5c0 .831-.669 1.5-1.5 1.5h-17c-.831 0-1.5-.669-1.5-1.5z" opacity=".2"/></g></svg>