<svg height="24" width="24" xmlns="http://www.w3.org/2000/svg"><path d="m16.798141 6.590097c1.366836 1.366835 1.866826 3.582912.499992 4.949748-.358036.356126-.800763.630568-1.274866.804472v8.943796l-.05786.06974-1.442135 1.142144-1.392081-1.142144-.09687-.06974v-.874381l-.0221-.36184-.995166-1.29075 1.017263-1.213127v-1.00956l-1.004834-1.300417 1.004834-.93277.02713-1.960952c-.474101-.173903-.855019-.448341-1.213049-.804472-1.366835-1.366835-1.366835-3.582912 0-4.949747.647556-.6470935.190685 2.5890585 1.106092 2.579717l.825682-.339239c.914057.00933 2.370652-2.8858935 3.017973-2.240478zm-2.142288 1.1357975c-.585787-.5857865-.63272.025795-1.218507.611584-.585786.585786-.760525-.2118475-.174738.373939.585786.5857865 1.535534.5857865 2.12132 0s-.142289-.3997365-.728075-.985523z" opacity=".2"/><path d="m15.858579 7.8965775c0 1.9329965-1.213456 3.8535475-3.146452 3.8535475-.504989-.0014-1.003706-.111946-1.461915-.324219l-6.324219 6.074219h-.0986325l-1.8273605.037875.023268-1.791967-.0000003-.09863.759882-.759766.240236-.271483-.01029-1.63557 1.5963063.03055.9138655-.863725-.010175-1.649242 1.389276.01996 1.245117-1.194942c-.212272-.458211-.287565-.921617-.2889075-1.426605 0-1.9329965 1.567004-3.5 3.5-3.5.915455.0003267-1.695906 1.965575-1.04201 2.6062605l.823723.343967c.639742.6529295 3.716939-.36433 3.718287.5497725zm-2.317957-.711697c0-.828427-.46564-.4291605-1.29407-.429159-.828426 0-.387973-.687571-.387973.140856 0 .8284275.671573 1.5000005 1.5 1.5000005.828427-.0000005.182043-.38327.182043-1.2116975z" opacity=".2"/><path d="m16.798141 6.090097c1.366836 1.366835 1.866826 3.5829125.499992 4.949748-.358036.356126-.800763.630568-1.274866.804472v8.943796l-.05786.06974-1.442139 1.142147-1.392081-1.142144-.09687-.06974v-.874381l-.0221-.36184-.995166-1.29075 1.017263-1.213127v-1.00956l-1.004834-1.300417 1.004834-.93277.02713-1.960952c-.474101-.173903-.855019-.448341-1.213049-.804472-1.366835-1.3668345-1.366835-3.582912 0-4.949747.647556-.6470935.190685 2.5890585 1.106092 2.579717l.825682-.339239c.914057.00933 2.370652-2.8858935 3.017973-2.240478zm-2.142288 1.1357975c-.585787-.5857865-.63272.025795-1.218507.611584-.585786.585786-.760525-.2118475-.174738.373939.585786.5857865 1.535534.5857865 2.12132 0s-.142289-.3997365-.728075-.985523z" fill="#e4e4e4"/><path d="m11.816406 11c .011858.012203.019179.026991.03125.039062.35803.356132.73879.630785 1.212891.804688l-.025391 1.960938-1.005859.933593 1.005859 1.300781v1.009766l-1.017578 1.212891.994141 1.291015.023437.361328v.875l.095703.06836.869141.71289v-10.570312z" opacity=".2"/><path d="m14.523268 4.5c-1.151651 0-2.302961.4396797-3.181641 1.3183595-1.7573595 1.7573595-1.7573595 4.6059215 0 6.3632815 1.75736 1.757359 4.605922 1.757359 6.363281 0 1.757359-1.75736 1.757359-4.605922 0-6.3632815-.87868-.8786798-2.02999-1.3183595-3.18164-1.3183595zm0 1.0253905c.255922 0 .511769.097706.707031.292969.390524.3905245.390524 1.023538 0 1.4140625-.390525.3905245-1.023538.3905245-1.414062 0-.390525-.3905245-.390525-1.023538 0-1.4140625.195262-.1952625.451109-.292969.707031-.292969z" opacity=".2"/><path d="m14.523268 4c-1.151651 0-2.302961.4396797-3.181641 1.3183595-1.7573595 1.7573595-1.7573595 4.6059215 0 6.3632815 1.75736 1.757359 4.605922 1.757359 6.363281 0 1.757359-1.75736 1.757359-4.605922 0-6.3632815-.87868-.8786798-2.02999-1.3183595-3.18164-1.3183595zm0 1.0253905c.255922 0 .511769.097706.707031.292969.390524.3905245.390524 1.023538 0 1.4140625-.390525.3905245-1.023538.3905245-1.414062 0-.390525-.3905245-.390525-1.023538 0-1.4140625.195262-.1952625.451109-.292969.707031-.292969z" fill="#379dc7"/><path d="m14.523268 4c-1.151651 0-2.302961.4396795-3.181641 1.3183595-.942293.9422925-1.374859 2.198331-1.30664 3.4316405.05913-1.066597.491717-2.1167175 1.30664-2.9316405.87868-.8786801 2.02999-1.3183595 3.181641-1.3183595 1.15165 0 2.30296.4396794 3.18164 1.3183595.814923.814923 1.24751 1.8650435 1.30664 2.9316405.068219-1.2333095-.364347-2.489348-1.30664-3.4316405-.87868-.87868-2.02999-1.3183595-3.18164-1.3183595zm-.963867 2.2753905c-.08579.331599-.0029.6972795.256836.9570315.390523.3905245 1.023537.3905245 1.414062 0 .259751-.259752.342624-.6254325.256836-.9570315-.043135.1671725-.125902.3260975-.256836.4570315-.390525.3905245-1.023539.3905245-1.414062 0-.130935-.130934-.213701-.289859-.256836-.4570315z" fill="#fff" opacity=".1"/><path d="m15.858579 7.3964525c0 1.9329965-1.213456 3.8535475-3.146452 3.8535475-.504989-.00135-1.003706-.111946-1.461915-.324219l-6.324219 6.074219h-.0986325l-1.8273605.037875.023268-1.791967-.0000003-.09863.759882-.759765.240236-.271483-.01029-1.635571 1.5963063.03055.9138655-.863723-.010175-1.6492415 1.389276.019964 1.245117-1.194941c-.212272-.4582085-.287565-.9216145-.2889075-1.4266025 0-1.9329965 1.567004-3.5 3.5-3.5.915455.0003267-1.695906 1.965575-1.04201 2.6062605l.823723.343967c.639742.6529295 3.716939-.36433 3.718287.5497725zm-2.317957-.711697c0-.828427-.46564-.4291605-1.29407-.429159-.828426 0-.387973-.687571-.387973.140856 0 .8284275.671573 1.5000005 1.5 1.5000005.828427-.0000005.182043-.38327.182043-1.2116975z" fill="#e4e4e4"/><path d="m10.279297 5.0175781-1.2050782 1.2050781c-.1317712.3683892-.2148438.76014-.2148438 1.1738282.0013425.504988.0767905.9675727.2890625 1.4257812l-1.2460937 1.1953124-1.3886719-.0195311.0097656 1.6484371-.9140625.865235-1.5957031-.03125.0097656 1.634765-.2402344.271485-.7597656.759765v.09961l-.0175781 1.285156 9.1953126-9.1933594c-.139059-.1707353-.243576-.3688436-.296875-.5898437l-.587891-.2460938c-.123678-.1211796-.106956-.2965423-.042968-.4902343zm1.625 1.7304688.181641.0761719-.205079-.2050782c.00653.0435907.013241.0866273.023438.1289063z" opacity=".2"/><path d="m15.727922 4.809952c-.81434-.8143399-1.93934-1.3175388-3.18198-1.3175386-2.485282 0-4.49952 2.0142376-4.49952 4.4995191s2.014238 4.4995195 4.49952 4.4995195c2.485281 0 4.499518-2.014238 4.499518-4.4995195.000001-1.2426405-.503198-2.3676405-1.317538-3.1819805zm-.72506.7250605c.180964.1809645.292786.4309645.292786.707107-.000001.5522845-.447609.9998925-.999894.999893-.552285 0-.999893-.447608-.999892-.999893 0-.552285.447608-.999893.999893-.999893.276142-.0000005.526142.111822.707107.292786z" opacity=".2"/><path d="m15.727922 4.309952c-.81434-.8143399-1.93934-1.3175388-3.18198-1.3175386-2.485282 0-4.49952 2.0142376-4.49952 4.4995191s2.014238 4.4995195 4.49952 4.4995195c2.485281 0 4.499518-2.014238 4.499518-4.4995195.000001-1.2426405-.503198-2.3676405-1.317538-3.1819805zm-.72506.7250605c.180964.1809645.292786.4309645.292786.707107-.000001.5522845-.447609.9998925-.999894.999893-.552285 0-.999893-.447608-.999892-.999893 0-.552285.447608-.999893.999893-.999893.276142-.0000003.526142.1118219.707107.292786z" fill="#ffbb30"/><path d="m12.545729 2.9921875c-2.485282 0-4.499024 2.0147185-4.499024 4.5 0 .084434.00811.166714.012695.25.130491-2.3682085 2.08548-4.2490235 4.486328-4.2490235 1.242641-.0000002 2.368277.503043 3.182617 1.3173829.759014.7590136 1.241785 1.7891546 1.304687 2.9316406.0046-.083278.0127-.165575.0127-.25 0-1.2426405-.503044-2.368277-1.317383-3.1826172-.814339-.8143399-1.939976-1.317383-3.182616-1.3173828zm.786133 3c-.0209.080508-.03613.162948-.03613.25-.000001.552285.447715 1 1 1 .552285-.0000005.999999-.4477155 1-1 0-.086977-.01431-.1695505-.03515-.25-.111508.4305215-.499424.7499995-.964844.75-.465318 0-.852262-.3196215-.963867-.75z" fill="#fff" opacity=".2"/><path d="m17.5 2.4997031c-1.721894 0-3.15337 1.2434277-3.445496 2.8813516-.035815.2008081.211329.4078426.211329.6189453.001.4204349.07775.039455.226562.4326739.164085-.8891414-.0496-.3948487-.02546-.3948487.355013-.0000003.04277.6173769.220227.3385259-.081455-.2477726.31421-.1158346.312838-.376648 0-1.3807119 1.119288-2.5 2.5-2.5s2.5 1.1192881 2.5 2.5c-.0012.8220732-.322507 1.5346698-1 2.0002969.07741.361998.02044.7855638.0078 1.154 1.215809-.5803879 1.990559-1.8070771 1.9922-3.1542969 0-1.9329966-1.567003-3.5-3.5-3.5z" opacity=".2"/><path d="m17.5 2a3.5 3.5 0 0 0 -3.5 3.5 3.5 3.5 0 0 0  .226562 1.2304688c.023349.0021805.044222.0117187.06836.0117187.355013-.0000003.652625-.1957584.830078-.4746094a2.5 2.5 0 0 1 -.125-.7675781 2.5 2.5 0 0 1 2.5-2.5 2.5 2.5 0 0 1 2.5 2.5 2.5 2.5 0 0 1 -1.083984 2.0566406c.077411.361998.104429.7292201.091796 1.0976563a3.5 3.5 0 0 0 1.992188-3.1542969 3.5 3.5 0 0 0 -3.5-3.5z" fill="#e4e4e4"/><path d="m17.5 2a3.5 3.5 0 0 0 -3.5 3.5 3.5 3.5 0 0 0  .011719.2246094 3.5 3.5 0 0 1 3.488281-3.2246094 3.5 3.5 0 0 1 3.486328 3.2382812 3.5 3.5 0 0 0  .013672-.2382812 3.5 3.5 0 0 0 -3.5-3.5zm-2.486328 3.734375a2.5 2.5 0 0 0 -.013672.265625 2.5 2.5 0 0 0  .035156.3808594c.031084-.0370461.063755-.0722852.089844-.1132813a2.5 2.5 0 0 1 -.111328-.5332031zm4.972656.0195312a2.5 2.5 0 0 1 -1.070312 1.8027344c.031935.1493404.050869.3003348.066406.4511719a2.5 2.5 0 0 0 1.017578-2.0078125 2.5 2.5 0 0 0 -.013672-.2460938z" fill="#fff" opacity=".2"/></svg>