<svg height="24" width="24" xmlns="http://www.w3.org/2000/svg"><path d="m18.48 18.028c-4.266 4.85-7.9844 4.713-10.538 2.488-3.8315-3.339-7.376-15.471-5.355-17.768 2.0208-2.297 14.741 1.1985 17.469 3.7408 2.7276 2.5426 2.915 6.4339-1.5759 11.539z" fill="#4f4f4f"/><path d="m5.2325 2.0014c-1.2495.0187-2.2035.2445-2.6456.747-.434.4934-.60914 1.4423-.582 2.6579.0272-.9752.2094-1.7343.582-2.1579 2.0209-2.2973 14.741 1.1976 17.469 3.7404 1.158 1.0799 1.852 2.4058 1.93 3.9618.061-1.7739-.65-3.2684-1.93-4.4619-2.131-1.9866-10.361-4.5544-14.823-4.4874z" fill="#fff" opacity=".1"/><path d="m2.0049 5.4067c-.12071 4.315 2.8123 12.885 5.9375 15.609 2.5531 2.225 6.2716 2.362 10.538-2.488 2.583-2.937 3.612-5.47 3.506-7.5772-.068 2.0052-1.124 4.3682-3.506 7.0772-4.267 4.85-7.9845 4.713-10.538 2.488-3.0085-2.623-5.8381-10.663-5.9371-15.11z" opacity=".2"/><path d="m9.9980469 8.5c-2-.0000001-3.9994999 1-3.9980469 4-.00145 3 1.9980469 4 3.9980469 4 2.0000001 0 3.0019531-.976565 3.0019531-.976562v-3.023438h-3v1h1.996094v1.59375s-.998047.40625-1.9980471.40625c-2 0-2.9994999-1-2.9980469-3-.00145-2 .9980469-3.0000003 2.9980469-3.0351562 2.0000001.035156 3.0000001 1.1093752 3.0000001 1.1093752v-1.2500002s-1-.8242187-3.0000001-.8242188zm4.0019531 0v8h1v-3h .765625c1.014874-.0091 1.931631-.204889 2.449219-.642578.52163-.437688.78125-.884178.78125-1.740234 0-.848313-.25962-1.491999-.78125-1.929688-.517588-.441561-1.434304-.6875-2.449219-.6875zm1 1.0019531h.851562c.684534-.01817 1.213876.1381054 1.587891.4160157.374014.2779142.560547.6675822.560547 1.1777342 0 .513964-.186533.71037-.560547.988281-.374015.277911-.902997.416016-1.587891.416016h-.851562z" opacity=".2"/><path d="m9.9980477 8c-2-.0000001-3.9994999 1-3.9980469 4-.00145 3 1.9980469 4 3.9980469 4 2.0000003 0 3.0019533-.976564 3.0019533-.976562v-3.023438h-3v1h1.996094v1.59375s-.998047.40625-1.9980473.40625c-2 0-2.9994999-1-2.9980469-3-.00145-2 .9980469-3.0000002 2.9980469-3.0351562 2.0000003.035156 3.0000003 1.1093752 3.0000003 1.1093752v-1.2500002s-1-.8242187-3.0000003-.8242188z" fill="#fff"/><path d="m14 8v8h1v-3h .765625c1.014874-.0091 1.931631-.204889 2.449219-.642578.52163-.437688.78125-.884178.78125-1.740234 0-.8483126-.25962-1.491999-.78125-1.929688-.517588-.441561-1.434304-.6875-2.449219-.6875zm1 1.0019531h.851562c.684533-.01817 1.213876.1381054 1.587891.4160157.374014.2779138.560547.6675822.560547 1.1777342 0 .513964-.186533.71037-.560547.988281-.374015.277911-.902997.416016-1.587891.416016h-.851562z" fill="#f14649"/></svg>