<svg height="24" viewBox="0 0 24 24" width="24" xmlns="http://www.w3.org/2000/svg"><circle cx="12" cy="12.5" opacity=".2" r="10"/><path d="m21.174924 12.165015c0 3.853458-1.354525 7.032827-4.548149 8.702561-1.383538.72336-2.957386 1.132424-4.626775 1.132424-5.5228475 0-10-4.477153-10-10 0-.965045.1367009-1.898162.3917949-2.7810435 1.2047809-4.1697505 5.3804331-6.3938807 9.9382351-6.3938807 5.522848 0 8.844894 3.8170917 8.844894 9.3399392z" fill="#0056a9"/><g fill-rule="evenodd"><path d="m14.602539 3.1355117c-.222479-.0076614-.442571-.0071635-.658203.0009766-2.064329.0779345-4.517038 1.4319797-5.354336 3.4055037-.945444 2.228429-1.59 5.458008 3.410977 5.458008 1.321676-2.2726835 4.775092-1.811825 6.232421.121094 1.290629 1.711818 1.220527 4.040621.25586 5.867187-.806125 1.52637-2.16556 3.043376-3.985352 3.693359 4.311922-1.110159 7.496094-5.025101 7.496094-9.68164 0-2.709276-1.078922-5.172416-2.831055-6.973633-.084637-.0732139-.177354-.1388742-.265625-.2089842-1.256069-.9627929-2.833285-1.6313359-4.300781-1.6818711z" fill="#ffe339"/><path d="m14.602539 3.3855892c-.222479-.00766-.442571-.00716-.658203.000975-2.064329.0779345-4.1168035 1.1817492-4.9541015 3.1552733-.2382485.5615565-.3307315 1.186282-.2958985 1.806641.02596-.4517785.12167-.8959815.2958985-1.306641.837298-1.973524 2.8897725-3.0773388 4.9541015-3.1552734 1.725058-.0651203 3.718557.3536427 5.191406 1.6044924-.670293-.6834804-1.428274-1.2539181-2.243164-1.7099596-.754562-.2414679-1.536465-.3695575-2.290039-.3955077zm-12.3134765 7.2499998c-.072526 1.630542.4917839 3.233481 1.2802735 4.487305 1.0996647 1.748632 3.082033 2.974597 5.209961 2.71289 1.974469-.242834 3.758321-2.149227 3.607422-4.086914-.15647 1.7541-1.803678 3.365077-3.607422 3.586914-2.127928.261707-4.1102963-.964258-5.209961-2.71289-.7075868-1.125175-1.2310379-2.532255-1.2802735-3.987305z" opacity=".2"/><path d="m8.694336 8.348633c-.114904 1.999782 1.1619385 4.144693 3.306641 4.151367 1.321676-2.272683 4.775092-1.811825 6.232421.121094.625401.829496.928355 1.804001.967774 2.795898.05661-1.160942-.237479-2.327276-.967774-3.295898-1.457329-1.932919-4.910745-2.3937775-6.232421-.121094-1.966666-.00612-3.2032465-1.80995-3.306641-3.651367zm13.297851 3.835938c-.06844 3.745329-2.19256 6.98679-5.296875 8.640624-.630164.57675-1.360392 1.059628-2.191406 1.356445 4.311922-1.110157 7.496094-5.025101 7.496094-9.68164 0-.105789-.0045-.210416-.0078-.315429z" opacity=".2"/><path d="m11.791016 2.0019531c-1.631134.0328622-3.2766695.4657654-4.789063 1.3388672-2.3465148 1.3546347-3.9400493 3.5206142-4.6240233 5.9384767-.0190815.0994205-.0291395.2034185-.044922.3046875-.2479489 1.8168975.3589292 3.6438585 1.2363282 5.0390625 1.0996647 1.748632 3.0820331 2.974597 5.2099611 2.71289 2.402773-.29551 4.529223-3.055094 3.22168-5.335937-2.62922-.008181-3.9561865-3.229579-3.0107425-5.458008.837298-1.9735242 2.8897725-3.0773387 4.9541015-3.1552732 1.725058-.0651204 3.718557.3536426 5.191406 1.6044921-1.948422-1.9867595-4.62617-3.0440281-7.344726-2.9892578z" fill="#ff6147"/><path d="m11.791016 2.0019531c-1.631134.0328622-3.2766695.4657654-4.789063 1.3388672-2.3465146 1.3546347-3.9400493 3.5206142-4.6240233 5.9384767-.019081.099421-.02914.2034185-.044922.3046875-.047988.351643-.055761.7025635-.043945 1.0517575.00818-.183858.01882-.367646.043945-.551757.015782-.1012695.025841-.2052675.044922-.304688.683974-2.4178625 2.2775087-4.583842 4.6240233-5.9384767 1.5123935-.8731018 3.157929-1.306005 4.789063-1.3388672 1.784052-.035943 3.549203.4099784 5.103515 1.2802734.714081.2287741 1.398306.5672136 2.008789 1.0351563.07692.058957.158059.1106736.232422.1738281-1.948422-1.9867595-4.62617-3.044028-7.344726-2.9892578zm7.112304 2.8154297c-.610046-.4676078-1.29659-.8042003-2.008789-1.0351563.814164.4558689 1.571441 1.0260358 2.241211 1.7089845-.074363-.0631545-.155506-.114871-.232422-.173828.08827.07011.180988.1357705.265625.208984 1.683717 1.730885 2.742869 4.073797 2.823242 6.658204.00113-.061883.007813-.122419.007813-.184571 0-2.709276-1.078922-5.172416-2.831055-6.973633-.084637-.0732135-.177354-.1388742-.265625-.2089842zm-3.691406-1.3886718c.08676.00902.173725.022469.260742.03418-.08708-.011529-.17395-.0253-.260742-.03418zm.601563.085937c.116594.020532.233307.044641.349609.070312-.116672-.025365-.232672-.050058-.349609-.070312zm.563476.1201171c.145571.036307.290583.074268.43457.1191407-.14423-.044378-.288771-.083303-.43457-.1191407zm-1.165039.2939459c.08679.00888.173667.022651.260742.03418-.08702-.011711-.173982-.025164-.260742-.03418zm.601563.085937c.116937.020255.232937.044947.349609.070312-.116302-.025671-.233015-.04978-.349609-.070312zm.563476.1201172c.145799.035838.29034.074763.43457.1191406-.143987-.044873-.288999-.082833-.43457-.1191406zm.503906.1425781c.537844.1733022 1.06077.4064019 1.547852.7109375-.486483-.3048883-1.008817-.5394067-1.547852-.7109375zm2.320313 11.1396487c-.04343.890758-.293098 1.778274-.711914 2.571289-.806125 1.52637-2.16556 3.043376-3.985352 3.693359.770316-.198327 1.502846-.488897 2.189453-.854492.750743-.686608 1.357498-1.508769 1.795899-2.338867.497217-.941465.753843-2.016226.711914-3.071289z" fill="#fff" opacity=".2"/></g></svg>