<svg height="24" width="24" xmlns="http://www.w3.org/2000/svg"><rect fill="#bc494d" height="17" rx="1" ry=".944444" transform="matrix(0 -1 -1 0 0 0)" width="14" x="-19" y="-20"/><path d="m4.9999999 9.4999998v6.0000002h1v-2h2.9999999v-1h-2.9999999v-2h2.9999999v-1.0000002h-2.9999999z" opacity=".2"/><path d="m4.9999999 8.9999998v6.0000002h1v-2h2.9999999v-1h-2.9999999v-2.0000002h2.9999999v-1h-2.9999999z" fill="#fff"/><path d="m10 9.4999998v1.0000002h1v5h1v-5h1v-1.0000002z" opacity=".2"/><path d="m10 8.9999998v1h1v5.0000002h1v-5.0000002h1v-1z" fill="#fff"/><path d="m14 9.5v6h1v-2h3v-4h-3zm1 1h2v2h-2z" opacity=".2"/><path d="m14 9v6h1v-2h3v-4h-3zm1 1h2v2h-2z" fill="#fff"/><path d="m17.730469 3.4996244a.71433454.77189828 0 0 0 -.730469.7714844v1.2285156h-13c-.554 0-1 .446-1 1s .446 1 1 1h13v1.2285156a.71433454.77189828 0 0 0 1.072266.6679688l1.785156-1.1132813 1.785156-1.1152343a.71433454.77189828 0 0 0 0-1.3359376l-1.785156-1.1152343-1.785156-1.1132813a.71433454.77189828 0 0 0 -.341797-.1035156zm-12.460938 12a .71433457.77189828 0 0 0 -.3417968.103516l-1.7851563 1.113281-1.7851562 1.115234a.71433457.77189828 0 0 0 0 1.335938l1.7851562 1.115234 1.7851563 1.113281a.71433457.77189828 0 0 0 1.0722656-.667968v-1.228516h13c .554 0 1-.446 1-1s-.446-1-1-1h-13v-1.228516a.71433457.77189828 0 0 0 -.7304688-.771484z" opacity=".2"/><g fill="#3f92f7"><rect height="2" rx="1" width="18" x="3" y="5"/><path d="m17.731004 2.9999999a.71433454.77189828 0 0 0 -.731004.7718215v4.4560609a.71433454.77189828 0 0 0 1.071395.6685595l1.785657-1.114015 1.785658-1.1140154a.71433454.77189828 0 0 0 0-1.33712l-1.785658-1.1140151-1.785657-1.1140155a.71433454.77189828 0 0 0 -.340391-.1032609z"/><rect height="2" rx="1" transform="scale(-1 1)" width="18" x="-20" y="17"/><path d="m5.2689964 15.00021a.71433457.77189828 0 0 1  .7310036.771821v4.456061a.71433457.77189828 0 0 1 -1.0713945.66856l-1.7856578-1.114015-1.7856578-1.114016a.71433457.77189828 0 0 1 0-1.33712l3.5713156-2.22803a.71433457.77189828 0 0 1  .3403909-.103261z"/></g><path d="m17.730469 3a .71433454.77189828 0 0 0 -.730469.7714844v.5a.71433454.77189828 0 0 1  .730469-.7714844.71433454.77189828 0 0 1  .341797.1035156l1.785156 1.1132813 1.785156 1.1152343a.71433454.77189828 0 0 1  .31836.4179688.71433454.77189828 0 0 0 -.31836-.9179688l-1.785156-1.1152343-1.785156-1.1132813a.71433454.77189828 0 0 0 -.341797-.1035156zm-13.730469 2c-.554 0-1 .446-1 1 0 .0886933.0293055.1682299.0507812.25.1126669-.428986.4839121-.75.9492188-.75h13v-.5zm1.2695312 10a .71433457.77189828 0 0 0 -.3417968.103516l-1.7851563 1.113281-1.7851562 1.115234a.71433457.77189828 0 0 0 -.3183594.917969.71433457.77189828 0 0 1  .3183594-.417969l1.7851562-1.115234 1.7851563-1.113281a.71433457.77189828 0 0 1  .3417968-.103516.71433457.77189828 0 0 1  .7304688.771484v-.5a.71433457.77189828 0 0 0 -.7304688-.771484zm.7304688 2v .5h13c .465307 0 .836552.321014.949219.75.021475-.08177.050781-.161307.050781-.25 0-.554-.446-1-1-1z" fill="#fff" opacity=".2"/></svg>