<svg height="24" width="24" xmlns="http://www.w3.org/2000/svg"><path d="m11.499695 1.500019c-.550024 0-1.100416.2050106-1.5115731.6161574l-8.3719737 8.3729066c-.82231375.822293-.82114725 2.198408.0012 3.020702l8.3719737 8.372907c.8223141.822294 2.1996551.82346 3.0219691.0012l8.371974-8.372906c.822313-.822294.822314-2.199587 0-3.021881l-8.371996-8.3729286c-.411156-.4111468-.961549-.6161574-1.511574-.6161574z" opacity=".2"/><path d="m11.499695 1.0000196c-.550024 0-1.100416.2050106-1.5115731.6161574l-8.3719737 8.3729069c-.82231375.8222931-.82114725 2.1984081.0012 3.0207021l8.3719737 8.372906c.8223141.822294 2.1996551.823461 3.0219691.0012l8.371974-8.372906c.822313-.822294.822314-2.199587 0-3.0218801l-8.371996-8.3729289c-.411156-.4111468-.961549-.6161574-1.511574-.6161574z" fill="#c2352a"/><path d="m6.65625 4.9492188-.7070312.7070312 3.0507812 3.0507812v7.2929688h1v-6.2929688l3.646484 3.6464848.707032-.707032z" fill="#3f3f3f" fill-rule="evenodd"/><path d="m9.5 7.5a1.5 1.5 0 0 0 -1.5 1.5 1.5 1.5 0 0 0 1.5 1.5 1.5 1.5 0 0 0 1.5-1.5 1.5 1.5 0 0 0 -1.5-1.5zm4 4a1.5 1.5 0 0 0 -1.5 1.5 1.5 1.5 0 0 0 1.5 1.5 1.5 1.5 0 0 0 1.5-1.5 1.5 1.5 0 0 0 -1.5-1.5zm-4 3a1.5 1.5 0 0 0 -1.5 1.5 1.5 1.5 0 0 0 1.5 1.5 1.5 1.5 0 0 0 1.5-1.5 1.5 1.5 0 0 0 -1.5-1.5z" opacity=".2"/><path d="m9.5 7a1.5 1.5 0 0 0 -1.5 1.5 1.5 1.5 0 0 0 1.5 1.5 1.5 1.5 0 0 0 1.5-1.5 1.5 1.5 0 0 0 -1.5-1.5zm4 4a1.5 1.5 0 0 0 -1.5 1.5 1.5 1.5 0 0 0 1.5 1.5 1.5 1.5 0 0 0 1.5-1.5 1.5 1.5 0 0 0 -1.5-1.5zm-4 3a1.5 1.5 0 0 0 -1.5 1.5 1.5 1.5 0 0 0 1.5 1.5 1.5 1.5 0 0 0 1.5-1.5 1.5 1.5 0 0 0 -1.5-1.5z" fill="#fff"/><path d="m11.5 1.0000196c-.550024 0-1.100561.2050636-1.5117176.6162104l-8.3720623 8.3730394c-.473073.4730606-.66434725 1.1280796-.5927729 1.7568346.0534742-.461878.2451516-.909223.5927729-1.256835l8.3720623-8.3730394c.4111566-.4111468.9616936-.6162104 1.5117176-.6162104.550025 0 1.100561.2050636 1.511718.6162104l8.371085 8.3730394c.3485.34849.540641.797376.59375 1.260741.07221-.629984-.119935-1.286938-.59375-1.7607406l-8.371085-8.3730394c-.411157-.4111467-.961693-.6162104-1.511718-.6162104z" fill="#fff" opacity=".2"/></svg>