<svg height="24" width="24" xmlns="http://www.w3.org/2000/svg"><path d="m12 2h-9c-.554 0-1 .446-1 1v9h10z" fill="#8e8e8e"/><path d="m12 2h9c .554 0 1 .446 1 1v9h-10z" fill="#e4e4e4"/><path d="m12 22h-9c-.554 0-1-.446-1-1v-9h10z" fill="#45792a"/><path d="m12 22h9c .554 0 1-.446 1-1v-9h-10z" fill="#8e8e8e"/><path d="m3 2c-.554 0-1 .446-1 1v .5c0-.554.446-1 1-1h18c .554 0 1 .446 1 1v-.5c0-.554-.446-1-1-1z" fill="#fff" opacity=".2"/><path d="m3 22.5c-.554 0-1-.446-1-1v-.5c0 .554.446 1 1 1h18c .554 0 1-.446 1-1v .5c0 .554-.446 1-1 1z" opacity=".2"/><circle cx="7" cy="7.5" opacity=".1" r="3"/><circle cx="7" cy="7" fill="#fff" r="3"/><path d="m14.070352 26.759076 4.018844 6.960842 4.018844 6.960843h-8.037688-8.037689l4.018844-6.960842z" opacity=".1" transform="matrix(.37324164 0 0 .49728728 1.748359 .269975)"/><path d="m14.070352 26.759076 4.018844 6.960842 4.018844 6.960843h-8.037688-8.037689l4.018844-6.960842z" fill="#ffdd4c" transform="matrix(.37324164 0 0 .49728728 1.748359 -.306948)"/><path d="m16 4.5v2h-2v2h2v2h2v-2h2v-2h-2v-2z" opacity=".1"/><path d="m16 4v2h-2v2h2v2h2v-2h2v-2h-2v-2z" fill="#3f3f3f"/><path d="m20 13.5-2 1.3v5.7h2z" opacity=".1"/><path d="m20 13-2 1.3v5.7h2z" fill="#3f3f3f"/><path d="m14.070352 26.759076 4.018844 6.960842 4.018844 6.960843h-8.037688-8.037689l4.018844-6.960842z" opacity=".1" transform="matrix(0 .3110347 .43098232 0 2.467312 11.623632)"/><path d="m14.070352 26.759076 4.018844 6.960842 4.018844 6.960843h-8.037688-8.037689l4.018844-6.960842z" fill="#e33939" transform="matrix(0 .3110347 .43098232 0 2.467312 11.123632)"/></svg>