<svg height="24" width="24" xmlns="http://www.w3.org/2000/svg"><path d="m17.855257 2.5c-2.104194 0-4.100048 1.2542407-4.703565 3.2363281-.430084-.061712-.803843-.2226562-1.26312-.2226562h-1.214389-1.2026932c-.0782818-.009219-.1570398-.0137842-.2358604-.0136719h-6.2395816c-1.1030997.00011-1.99700933.8966667-1.9960425 2.0019531-.0000053-.0019531.003901 4.0058589.003901 4.0058589.0044034 1.101471.8967397 1.992085 1.9960395 1.992188h.4132432l-1.3079535 4.642578c-.00333.0097-.00658.01951-.00975.0293-.2254981.851611.086148 1.93007.7270741 2.533203.6409296.60313 1.4305195.794919 2.1617335.794919h3.7757168c4.5119501 0 7.3567061-3.265738 8.2941011-6.339844.01223-.03872.02328-.0778.03313-.117187l.421039-1.759766c.701896-.09778 1.415851-.155047 2.058419-.480469.932951-.472482 1.889328-1.23616 2.26699-2.529296v-.0019c.2416-.8281625.01984-1.7257334-.339167-2.4550818.340537-.2206554.7732-.3293309 1.013615-.6445312.737352-.9667271.47316-1.7359083.302135-2.2265625-.17102-.4907042-.431496-.8711226-.771903-1.2227063-.680815-.7031672-1.767159-1.2331933-3.038896-1.2226562-.233221.0000074-.931839.0002783-1.142266 0h-.002zm-2.797188 3.2148438c-.0018.00611.0037.013376.002.019531-.0025.00862-.01127.0148-.01364.023437l.0117-.042969zm-9.1030444 13.4824222c-.0001482.000564.0001493.0014 0 .002l-.00975.0293.00975-.03125z" opacity=".2"/><path d="m17.855257 2c-2.104194 0-4.100048 1.2542407-4.703565 3.2363281-.430084-.0617115-.803843-.2226562-1.26312-.2226562h-1.214389-1.2026932c-.0782818-.009219-.1570398-.0137842-.2358604-.0136719h-6.2395816c-1.1030997.00011-1.99700933.8966667-1.9960425 2.0019531-.0000053-.0019531.003901 4.0058589.003901 4.0058589.0044034 1.101471.8967397 1.992085 1.9960395 1.992188h.4132432l-1.3079535 4.642578c-.00333.0097-.00658.01951-.00975.0293-.2254981.851611.086148 1.93007.7270741 2.533203.6409296.60313 1.4305195.794919 2.1617335.794919h3.7757168c4.5119501 0 7.3567061-3.265738 8.2941011-6.339844.01223-.03872.02328-.0778.03313-.117187l.421039-1.759766c.701896-.09778 1.415851-.155047 2.058419-.480469.932951-.472482 1.889328-1.23616 2.26699-2.5292965v-.00195c.2416-.828162.01984-1.7257329-.339167-2.4550813.340537-.2206554.7732-.3293309 1.013615-.6445312.737352-.9667271.47316-1.7359083.302135-2.2265625-.17102-.4906542-.431496-.8710726-.771903-1.2226563-.680815-.7031672-1.767159-1.2331933-3.038896-1.2226562-.233221.0000074-.931839.0002783-1.142266 0h-.002zm-2.797188 3.2148438c-.0018.00611.0037.013376.002.019531-.0025.00862-.01127.0148-.01364.023437l.0117-.042969zm-9.1030444 13.4824222c-.0001482.000564.0001493.0014 0 .002l-.00975.0293.00975-.03125z" fill="#4f4f4f"/><path d="m17.886719 4.5c-1.427527 0-2.495171.7468432-2.814453 1.8398438-.606938 2.0482149 2.782138 2.1749891 2.40625 3.4453124-.128429.4365908-.495965.6427628-.988282.6933598.01131.330414-.02467.673103-.08398 1.021484.06979-.000068.13906-.000207.208984 0 1.427343.0063 3.018603-.696012 3.337891-1.7890625.623408-2.126943-3.327677-2.171368-2.953129-3.421875.108817-.394764.506679-.4826341.912109-.4882813.371726-.00633 1.16446.3475843 1.283203.4414063.607176.4797245 1.345059.2625857 1.763672-.2851563.22136-.2896464-.426415-1.4693005-1.910156-1.4570312-.221874 0-.940904.000292-1.162109 0zm-14.8886721 3 .0019531 2h1.8300781 1.5644531 3.5429688.302734.244141c1.575364.114553 2.236419.995948 1.769531 2.556641l-.697265 2.552734c-.470694 1.561692-1.6486376 2.916016-3.4570316 2.916016h-.2109375l1.4277343-5.025391h-3.5410156l-1.7460937 6.185547c-.109273.411861.2256603.814453.9609375.814453h3.7832031c3.6167945 0 5.6433425-2.452462 6.3984375-4.923828l.580078-2.416016c.782408-2.5744203-.226961-4.6464841-3.84375-4.6464841h-1.216797-1.3515622-.091797l.0019532-.0136719zm0 3 .00391 1h2.3398438 4.6621093c.188537-.518089-.1407963-1.039442-.5292968-1h-4.0019532-2.4746093z" opacity=".2"/><path d="m9.4743815 10h-4.001437-2.4744345l.00298.999959h2.3407475 4.6613815c.188537-.518089-.1404545-1.039401-.528955-.999959z" fill="#fff"/><path d="m17.886719 4c-1.427527 0-2.495171.7468432-2.814453 1.8398438-.606938 2.0482149 2.782138 2.174989 2.40625 3.4453124-.128429.4365904-.495965.6427625-.988282.6933594.011307.3304144-.024671.6731034-.083984 1.0214844.069794-.000068.13906-.000207.208984 0 1.427343.0063 3.018603-.696012 3.337891-1.7890625.623412-2.126943-3.327673-2.171368-2.953125-3.421875.108817-.394764.506679-.4826342.912109-.4882813.371726-.00633 1.164459.3475843 1.283203.4414063.607176.4797245 1.345059.2625857 1.763672-.2851563.22136-.2896464-.426415-1.4693005-1.910156-1.4570312-.221874 0-.940904.000292-1.162109 0zm-2.408203 6-.095704 1h .00586c.073022-.355415.111979-.692649.099609-1z" fill="#fff"/><path d="m2.9985742 6.9998165.000625 2h1.8307414 1.5655299 3.541437.3039855.243189c1.575364.114553 2.23577.995738 1.768882 2.5564305l-.69627 2.553838c-.470694 1.561692-1.647741 2.915449-3.456135 2.915449h-.2127885l1.429459-5.025534h-3.5414365l-1.7457761 6.186079c-.109273.411861.2241975.813822.9594747.813822h3.7846244c3.616795 0 5.643016-2.452437 6.398111-4.923803l.579434-2.416404c.782408-2.5744205-.226842-4.646777-3.843631-4.646777h-1.215944-1.352741-.091191l.0012-.013h-6.2507945-.0000435l.000039.0002505.0000034-.0002505z" fill="#f35654"/><path d="m17.886719 4c-1.427527 0-2.495171.7468432-2.814453 1.8398438-.081311.2743958-.086435.5118142-.042969.7246093.011972-.0739816.019379-.1450027.042969-.2246093.319282-1.0930006 1.386926-1.8398438 2.814453-1.8398438.221205.000292.940235 0 1.162109 0 1.03306-.0085425 1.651917.5575785 1.863281 1.0019531.014158-.0169736.033368-.0272474.046875-.0449219.22136-.2896464-.426415-1.4693005-1.910156-1.4570312-.221874 0-.940904.000292-1.162109 0zm-.841797 2.2070312c-.013241.0292394-.03568.0485017-.044922.0820313-.32773 1.0941936 2.656727 1.2643581 2.990234 2.7148437.267451-1.6701154-2.46809-1.9560813-2.945312-2.796875zm-14.0468751.7929688v.5h6.2519531l-.0019531.0136719h.0917969 1.3515622 1.216797c2.653945 0 3.900034 1.1173413 4.068359 2.7285161.047094-1.8720236-1.151471-3.2285161-4.068359-3.2285161h-1.216797-1.3515622-.0917969l.0019531-.0136719zm14.4531251 2.3417969c-.144331.3933966-.493034.5886308-.960938.6367187.011307.3304144-.024671.6731034-.083984 1.0214844.022178-.000022.044297.000023.066406 0 .016118-.176453.023425-.350682.017578-.521484.492317-.050597.859853-.256769.988282-.6933598.048691-.1645531.033445-.310521-.027344-.4433593zm-14.4531251.6582031.0019531.5h2.4726562 4.0019532c.2462299-.024998.4512907.184862.5332026.466797.162612-.506699-.153152-1.0053811-.5332026-.966797h-4.0019532zm9.3828121.929688c-.02109.196317-.059716.402198-.126953.626953l-.697265 2.552734c-.470694 1.561692-1.6486376 2.916016-3.4570316 2.916016h-.0683594l-.1425781.5h.2109375c1.808394 0 2.9863376-1.354324 3.4570316-2.916016l.697265-2.552734c.12853-.429644.164928-.802097.126953-1.126953zm-6.6054684 1.070312-1.7460937 6.185547c-.0338366.127533-.0109832.249203.0390625.363281l1.7070312-6.048828h3.3984375l.1425781-.5z" fill="#fff" opacity=".2"/><path d="m17.855469 2c-2.104194 0-4.099608 1.2542407-4.703125 3.2363281-.430084-.0617115-.804395-.2226562-1.263672-.2226562h-1.214844-1.2031249c-.0782818-.009219-.1555544-.0137842-.234375-.0136719h-6.2402343c-1.1030998.00011-1.99706063.8966667-1.9960938 2.0019531v.4960938c.0011703-1.1034657.8943127-1.997937 1.9960938-1.9980469h6.2402343c.0788206-.0001123.1560932.0044529.234375.0136719h1.2031249 1.214844c.459277 0 .833588.1609442 1.263672.2226562.603517-1.9820874 2.598931-3.2363281 4.703125-3.2363281h.001953c.210427.0002783.909357.0000074 1.142578 0 1.271737-.0105371 2.358248.5194891 3.039062 1.2226562.340407.3515837.600465.7319521.771485 1.2226563.067057.1923795.134346.4397549.164062.7128906.082466-.498059-.05818-.9091262-.164062-1.2128906-.17102-.4906542-.431078-.8710726-.771485-1.2226563-.680814-.7031671-1.767325-1.2331933-3.039062-1.2226562-.233221.0000074-.932151.0002783-1.142578 0zm-2.796875 3.7148438-.011719.0429687c.00237-.008637.011172-.0148175.013672-.0234375.0017-.006155-.003753-.0134213-.001953-.0195312zm6.605468 2.0117187c-.05654.0301869-.116786.0554142-.169921.0898437.220215.447384.372395.9593854.414062 1.4785157.049518-.5351839-.054585-1.0737053-.244141-1.5683594zm-18.3906245 5.7734375-1.1679687 4.142578c-.0033301.0097-.0065957.019507-.0097657.029297-.06612.249708-.0737378.518049-.0527343.789063.0120823-.098305.027912-.195319.0527343-.289063.00317-.00979.0064356-.019597.0097657-.029297l1.3085937-4.642578z" fill="#fff" opacity=".1"/></svg>