<svg height="24" width="24" xmlns="http://www.w3.org/2000/svg"><path d="m12.053849 2.0011749a2.282762 2.2739121 0 0 0 -1.19548.303345l-6.7168881 3.8629356a2.282762 2.2739121 0 0 0 -1.141481 1.9694672v7.7263713a2.282762 2.2739121 0 0 0 1.141381 1.969267l6.7168881 3.863136a2.282762 2.2739121 0 0 0 2.282762 0l6.716888-3.863136a2.282762 2.2739121 0 0 0 1.141481-1.969467v-7.7263713a2.282762 2.2739121 0 0 0 -1.141481-1.9694672l-6.716888-3.8629356a2.282762 2.2739121 0 0 0 -1.087482-.3033449z" fill="#4f4f4f"/><path d="m11.772315 2.01322a2.282762 2.2739121 0 0 0 -.03614.00488 2.282762 2.2739121 0 0 1  .0459-.00488 2.282762 2.2739121 0 0 0 -.0098 0zm-.208005.030273a2.282762 2.2739121 0 0 0 -.08105.018554 2.282762 2.2739121 0 0 1  .08105-.018554zm-.218746.05371a2.282762 2.2739121 0 0 0 -.07422.024414 2.282762 2.2739121 0 0 1  .07422-.024414zm-.221676.078124a2.282762 2.2739121 0 0 0 -.08398.038085 2.282762 2.2739121 0 0 1  .08398-.038085zm-.198239.092772a2.282762 2.2739121 0 0 0 -.06738.036132 2.282762 2.2739121 0 0 1  .06738-.036132zm-6.7840665 3.8993485a2.282762 2.2739121 0 0 0 -.5331942.424798 2.282762 2.2739121 0 0 1  .5331942-.424798zm-.5331942.424798a2.282762 2.2739121 0 0 0 -.6015525 1.3984142 2.282762 2.2739121 0 0 1  .6015525-1.3984142zm-.6015525 1.3984142a2.282762 2.2739121 0 0 0 -.00684.146482v7.7264333a2.282762 2.2739121 0 0 0 1.1415826 1.968717l6.7166855 3.863217a2.282762 2.2739121 0 0 0 1.141582.30273v-7.999867a2.282762 2.2739121 0 0 1 -1.1415779-.302729l-6.7166855-3.8632175a2.282762 2.2739121 0 0 1 -1.1347467-1.8417658z" fill="#fff" opacity=".1"/><path d="m12.053349 2.0015249a2.282762 2.2739121 0 0 0 -1.19498.302695l-6.7168881 3.8632356a2.282762 2.2739121 0 0 0 -1.141481 1.9694672v.4999917a2.282762 2.2739121 0 0 1 1.141581-1.9694672l6.7168881-3.8632356a2.282762 2.2739121 0 0 1 1.19528-.30273 2.282762 2.2739121 0 0 1 1.087882.30273l6.716888 3.8632356a2.282762 2.2739121 0 0 1 1.141481 1.9694672v-.4999917a2.282762 2.2739121 0 0 0 -1.141481-1.9694672l-6.716888-3.8632356a2.282762 2.2739121 0 0 0 -1.087982-.302695z" fill="#fff" opacity=".1"/><path d="m2.9999999 15.863294v.499992a2.282762 2.2739121 0 0 0 1.141581 1.968717l6.7168881 3.863236a2.282762 2.2739121 0 0 0 2.283162 0l6.716888-3.863436a2.282762 2.2739121 0 0 0 1.141481-1.968967v-.499992a2.282762 2.2739121 0 0 1 -1.141581 1.968717l-6.716888 3.863236a2.282762 2.2739121 0 0 1 -2.283162 0l-6.7168881-3.863436a2.282762 2.2739121 0 0 1 -1.141481-1.968967z" opacity=".2"/><path d="m12.05356 2.000525v.0009749a2.282762 2.2739121 0 0 0 -1.195292.3027309l-6.7166855 3.8632167a2.282762 2.2739121 0 0 0 -1.1347467 1.8232122 2.282762 2.2739121 0 0 0 1.1347467 1.8417658l6.7166855 3.8632175a2.282762 2.2739121 0 0 0 2.283164 0l6.716686-3.8632175a2.282762 2.2739121 0 0 0 1.134746-1.8241881 2.282762 2.2739121 0 0 0 -1.134746-1.8407899l-6.716686-3.8632167a2.282762 2.2739121 0 0 0 -1.087872-.3037058z" fill="#fff" opacity=".2"/><path d="m15.051557 3.9028135-12.0515571 6.9578915v5.502838a2.282762 2.2739121 0 0 0  .016601.260738l17.0299901-9.8318674a2.282762 2.2739121 0 0 0 -.188473-.1249979z" opacity=".2"/><path d="m15.051557 3.4028453-12.0515571 6.9578917v5.502838a2.282762 2.2739121 0 0 0  .016601.260738l17.0299901-9.8318675a2.282762 2.2739121 0 0 0 -.188473-.124998z" fill="#00cbec"/><path d="m4.0351389 9.7630911-1.035139.5976459v5.502838a2.282762 2.2739121 0 0 0  .015625.252926 2.282762 2.2739121 0 0 0  .000975.0078l6.020409-3.475516-4.8954264-2.8163595a2.282762 2.2739121 0 0 1 -.1064436-.0693344z" fill="#00a7c2"/></svg>