<svg height="24" width="24" xmlns="http://www.w3.org/2000/svg"><rect height="20" opacity=".2" rx="10" transform="matrix(0 -1 -1 0 0 0)" width="20" x="-22.5" y="-22"/><rect fill="#1da6e8" height="20" rx="10" transform="matrix(0 -1 -1 0 0 0)" width="20" x="-22" y="-22"/><path d="m14 16-6-4 6-4" fill="none" opacity=".4" stroke="#000" stroke-width="1.5"/><path d="m14 6.5a2 2 0 0 0 -2 2 2 2 0 0 0 2 2 2 2 0 0 0 2-2 2 2 0 0 0 -2-2zm-6 4a2 2 0 0 0 -2 2 2 2 0 0 0 2 2 2 2 0 0 0 2-2 2 2 0 0 0 -2-2zm6 4a2 2 0 0 0 -2 2 2 2 0 0 0 2 2 2 2 0 0 0 2-2 2 2 0 0 0 -2-2z" fill-rule="evenodd" opacity=".2"/><path d="m14 6a2 2 0 0 0 -2 2 2 2 0 0 0 2 2 2 2 0 0 0 2-2 2 2 0 0 0 -2-2zm-6 4a2 2 0 0 0 -2 2 2 2 0 0 0 2 2 2 2 0 0 0 2-2 2 2 0 0 0 -2-2zm6 4a2 2 0 0 0 -2 2 2 2 0 0 0 2 2 2 2 0 0 0 2-2 2 2 0 0 0 -2-2z" fill="#fff" fill-rule="evenodd"/><path d="m12 2c-5.54 0-10 4.46-10 10 0 .084408.00966.166105.0117188.25.1330626-5.4224108 4.5326892-9.75 9.9882812-9.75s9.855219 4.3275892 9.988281 9.75c.002059-.083895.011719-.165592.011719-.25 0-5.54-4.46-10-10-10z" fill="#fff" opacity=".2"/></svg>