<svg height="64" viewBox="0 0 64 64" width="64" xmlns="http://www.w3.org/2000/svg"><path d="m14.5 8c-1.385 0-2.5 1.1150004-2.5 2.5v45c0 1.385 1.115 2.5 2.5 2.5h35c1.385 0 2.5-1.115 2.5-2.5v-32.5l-13.75-1.25-1.25-13.75z" opacity=".2"/><path d="m14.5 7c-1.385 0-2.5 1.115-2.5 2.5v45c0 1.385 1.115 2.5 2.5 2.5h35c1.385 0 2.5-1.115 2.5-2.5v-32.5l-13.75-1.25-1.25-13.75z" fill="#e4e4e4"/><path d="m37 8v12.5c0 1.3808 1.1193 2.5 2.5 2.5h12.5z" opacity=".2"/><path d="m37 7v12.5c0 1.3808 1.1193 2.5 2.5 2.5h12.5z" fill="#fafafa"/><path d="m14.5 7c-1.385 0-2.5 1.115-2.5 2.5000004v.9999996c0-1.3849996 1.115-2.5 2.5-2.5h22.5c0-1 0 0 0-1z" fill="#fff" opacity=".2"/><g fill="#267edb"><path d="m17 26h3v27h-3z"/><path d="m17 26h7v3h-7z"/><path d="m17 50h7v3h-7z"/><g transform="scale(-1 1)"><path d="m-45 26h3v27h-3z"/><path d="m-45 26h7v3h-7z"/><path d="m-45 50h7v3h-7z"/></g></g><path d="m25.400001 31.7 7 14.3" fill="none" stroke="#3f3f3f" stroke-width="3"/><path d="m38.000001 31.7s-5.6 19.8-9.8 19.8h-1.200001" fill="none" stroke="#3f3f3f" stroke-width="3"/><path d="m49 33.5a1.5 1.5 0 0 1 -1.5 1.5 1.5 1.5 0 0 1 -1.5-1.5 1.5 1.5 0 0 1 1.5-1.499999 1.5 1.5 0 0 1 1.5 1.499999z" fill="#267edb"/><path d="m49 47.5a1.5 1.5 0 0 1 -1.5 1.5 1.5 1.5 0 0 1 -1.5-1.5 1.5 1.5 0 0 1 1.5-1.499999 1.5 1.5 0 0 1 1.5 1.499999z" fill="#267edb"/></svg>