<svg height="64" width="64" xmlns="http://www.w3.org/2000/svg"><path d="m4.0000004 55.200069v1.999971c0 1.549978 1.2495821 2.79996 2.80076 2.79996h50.3992796c1.549977 0 2.79996-1.249982 2.79996-2.79996v-1.999971c0 1.549978-1.249983 2.79996-2.79996 2.79996h-50.3992796c-1.5503779 0-2.79996-1.249982-2.79996-2.79996z" opacity=".2"/><rect fill="#435ece" height="55.999" rx="2.8" transform="matrix(0 -1 -1 0 0 0)" width="55.999" x="-59" y="-60"/><path d="m9.6 8.58h44.799v44.799h-44.799z" fill="none"/><path d="m33.999571 46h-3.999942v-3.999943h3.999942zm4.139941-15.499779-1.799974 1.839974c-1.439979 1.459979-2.339967 2.659962-2.339967 5.659919h-3.999942v-.999986c0-2.199968.899987-4.19994 2.339966-5.659919l2.479965-2.519964c.739989-.71999 1.179983-1.719975 1.179983-2.81996 0-2.199968-1.799974-3.999942-3.999943-3.999942s-3.999943 1.799974-3.999943 3.999942h-3.999943c0-4.419936 3.579949-7.999885 7.999886-7.999885s7.999886 3.579949 7.999886 7.999885c0 1.759975-.71999 3.359952-1.859974 4.499936z" opacity=".2"/><path d="m33.999571 44.999814h-3.999942v-3.999943h3.999942zm4.139941-15.499778-1.799974 1.839973c-1.439979 1.45998-2.339967 2.659962-2.339967 5.65992h-3.999942v-.999986c0-2.199969.899987-4.19994 2.339966-5.659919l2.479965-2.519964c.739989-.71999 1.179983-1.719976 1.179983-2.81996 0-2.199968-1.799974-3.999943-3.999943-3.999943s-3.999943 1.799975-3.999943 3.999943h-3.999943c0-4.419937 3.579949-7.999885 7.999886-7.999885s7.999886 3.579948 7.999886 7.999885c0 1.759975-.71999 3.359952-1.859974 4.499936z" fill="#fff"/><path d="m6.8007812 3c-1.5511778 0-2.8007812 1.2496035-2.8007812 2.8007812v1c0-1.5511777 1.2496034-2.8007812 2.8007812-2.8007812h50.3984378c1.549977 0 2.800781 1.2496034 2.800781 2.8007812v-1c0-1.5511778-1.250804-2.8007812-2.800781-2.8007812z" fill="#fff" opacity=".1"/></svg>