<svg height="12pt" viewBox="0 0 12 12" width="12pt" xmlns="http://www.w3.org/2000/svg"><path d="m6 1.636719c-.140625 0-.277344.054687-.386719.160156l-3.816406 3.816406c-.214844.214844-.214844.558594 0 .773438l3.816406 3.816406c.214844.214844.558594.214844.773438 0l3.816406-3.816406c.214844-.214844.214844-.558594 0-.773438l-3.816406-3.816406c-.109375-.105469-.246094-.160156-.386719-.160156zm0 2.179687c.601562 0 1.089844.488282 1.089844 1.09375 0 .601563-.488282 1.089844-1.089844 1.089844v.546875h-.546875v-1.09375h.546875c.300781 0 .546875-.242187.546875-.542969 0-.300781-.246094-.546875-.546875-.546875s-.546875.246094-.546875.546875h-.542969c0-.605468.488282-1.09375 1.089844-1.09375zm-.546875 3.273438h.546875v.546875h-.546875zm0 0" fill="#5c616c"/></svg>