<svg height="12pt" viewBox="0 0 12 12" width="12pt" xmlns="http://www.w3.org/2000/svg"><path d="m6 2.027344-1.195312 1.246094h-1.53125v1.53125l-1.246094 1.195312 1.246094 1.210938v1.515624h1.53125l1.195312 1.246094 1.210938-1.246094h1.515624v-1.515624l1.246094-1.210938-1.246094-1.089844v-1.636718h-1.515624zm0 1.789062c1.207031 0 2.183594.976563 2.183594 2.183594s-.976563 2.183594-2.183594 2.183594-2.183594-.976563-2.183594-2.183594.976563-2.183594 2.183594-2.183594zm0 .546875c-.902344 0-1.636719.734375-1.636719 1.636719s.734375 1.636719 1.636719 1.636719 1.636719-.734375 1.636719-1.636719-.734375-1.636719-1.636719-1.636719zm0 0" fill="#5c616c"/></svg>