<svg height="12pt" viewBox="0 0 12 12" width="12pt" xmlns="http://www.w3.org/2000/svg"><path d="m2.183594 1.910156c-.722656 0-.722656 1.089844 0 1.089844h.542968v1.636719h-1.089843v1.636719h1.089843v.542968h-1.089843v1.636719h1.089843v1.09375c0 .722656 1.089844.722656 1.089844 0v-7.09375c0-.542969-.542968-.542969-.542968-.542969zm2.179687 1.636719v1.089844h4.910157v4.363281h-3.273438v-1.089844h-1.636719v1.089844h.546875v1.089844h5.453125v-6.542969zm-2.179687 1.636719h.542968v.542968h-.542968zm2.726562 0v2.179687h.542969v-2.179687zm1.089844 0v2.179687h.546875v-2.179687zm1.089844 0v2.179687h.546875v-2.179687zm1.09375 0v2.179687h.542968v-2.179687zm-6 2.179687h.542968v.546875h-.542968zm0 0" fill="#5c616c"/></svg>