<svg height="12pt" viewBox="0 0 12 12" width="12pt" xmlns="http://www.w3.org/2000/svg"><path d="m7.703125 2.289062c-1.207031-.40625-2.566406.074219-3.230469 1.222657l-1.226562 2.125-1.492188.402343-.132812.234376.941406.546874 4.726562 2.726563.945313.546875.136719-.238281-.402344-1.492188.683594-1.179687.542968-.945313c.300782-.511719.402344-1.082031.347657-1.628906-.082031.015625-.167969.027344-.253907.027344-.894531 0-1.636718-.738281-1.636718-1.636719 0-.238281.054687-.460938.148437-.664062 0 0-.097656-.046876-.097656-.046876zm-3.867187 5.894532c0 .390625.207031.75.542968.945312.339844.191406.753906.191406 1.089844-.003906zm0 0" fill="#5c616c"/><path d="m10.378906 3c0 .601562-.488281 1.089844-1.089844 1.089844-.601562 0-1.089843-.488282-1.089843-1.089844 0-.605469.488281-1.09375 1.089843-1.09375.601563 0 1.089844.488281 1.089844 1.09375zm0 0" fill="#5294e2"/></svg>