<svg height="12pt" viewBox="0 0 12 12" width="12pt" xmlns="http://www.w3.org/2000/svg"><path d="m8.726562 10.089844c.753907 0 1.363282-.609375 1.363282-1.363282 0-.691406-.523438-1.257812-1.195313-1.347656-.214843-.636718-.816406-1.105468-1.53125-1.105468-.714843 0-1.308593.46875-1.53125 1.105468-.671875.089844-1.195312.65625-1.195312 1.347656 0 .753907.609375 1.363282 1.363281 1.363282" fill="#5c616c"/><path d="m5.726562 1.910156c-2.117187 0-3.816406 1.707032-3.816406 3.816406 0 1.550782.921875 2.878907 2.25 3.480469-.039062-.15625-.070312-.3125-.070312-.480469 0-.648437.359375-1.171874.871094-1.496093-.539063-.621094-.871094-1.433594-.871094-2.320313 0-1.21875.617187-2.351562 1.636718-3zm0 0" fill="#5c616c"/></svg>