<svg height="32" width="32" xmlns="http://www.w3.org/2000/svg"><rect fill="#8e8e8e" fill-rule="evenodd" height="28.203388" ry="5.575182" width="28.203388" x="1.898306" y="1.898306"/><rect fill="#4d4d4d" height="16.907801" ry="2.47458" width="23.148935" x="4.425532" y="7.5461"/><path d="m13.300782 9.3009057c-.02881-.00687-.05873-.00212-.08398.015625-.051.033-.06048.1056563-.02148.1601563l.646484.921875c-1.027501.469-1.749798 1.562563-1.841798 2.601563h7c-.09195-1.038474-.811222-2.134164-1.837891-2.601563l.646485-.921875c.039-.0545.02752-.1251562-.02149-.1601563-.051-.035-.123109-.017391-.162109.037109l-.669922.9570313c-.4435-.172-.935625-.267578-1.453125-.267578s-1.010125.09558-1.453125.267578l-.67187-.9570309c-.0195-.02725-.04736-.045859-.07617-.052734zm.724609 1.9902343c.215 0 .386718.169906.386718.378906s-.174218.38086-.386718.38086c-.215 0-.388672-.16986-.388672-.38086 0-.209.174172-.378906.388672-.378906zm3 0c .213 0 .386718.169906.386718.378906s-.174218.38086-.386718.38086c-.215 0-.388672-.16986-.388672-.38086 0-.209.174172-.378906.388672-.378906zm-5.023438 2.708985v4.79675c0 .344.16.703125.5.703125h1.498047v1.6875c0 .449 0 .8125.5.8125s.501953-.3635.501953-.8125v-1.6875h1v1.6875c0 .449-.03902.8125.498047.8125.5 0 .5-.249564.5-.8125v-1.6875h1.503906c.338 0 .5-.35965.5-.703125v-4.79675zm-1.478515.0019c-.52289-.0014-.523438.377393-.523438.843753v2.30847c0 .46686.000548.84919.523438.847656.47711-.0014.476562-.381296.476562-.847656v-2.30847c0-.46686.000548-.84515-.476562-.84375zm9.955078 0c-.478478-.0014-.478516.377393-.478516.843753v2.30847c0 .46686.000038.84894.478516.847656.521522-.0014.521484-.381296.521484-.847656v-2.30847c0-.46686.000038-.84515-.521484-.84375z" fill="#a4ca39" transform="translate(.5 .351053)"/></svg>