<svg height="22" width="22" xmlns="http://www.w3.org/2000/svg"><path d="m4 1.5c-.554 0-1 .446-1 1v18c0 .554.446 1 1 1h14c .554 0 1-.446 1-1v-13l-5.5-.5-.5-5.5z" opacity=".2"/><path d="m4 1c-.554 0-1 .446-1 1v18c0 .554.446 1 1 1h14c .554 0 1-.446 1-1v-13l-5.5-.5-.5-5.5z" fill="#13a553"/><path d="m4 1c-.554 0-1 .446-1 1v .5c0-.554.446-1 1-1h9v-.5z" fill="#fff" opacity=".2"/><path d="m13 1.5v5c0 .5525.448 1 1 1h5z" opacity=".2"/><path d="m13 1v5c0 .5525.448 1 1 1h5z" fill="#70c896"/><path d="m11 9.5c-.559885.000778-1.072735.313308-1.330078.810547-.136398-.039976-.277786-.060362-.419922-.060547-.8284271 0-1.5.671573-1.5 1.5.0001851.142136.020571.283524.060547.419922-.4972395.257343-.809769.770193-.810547 1.330078.000778.559885.3133076 1.072735.8105469 1.330078-.0399757.136398-.0603618.277786-.0605469.419922.0002459.731764.5284706 1.356555 1.25 1.478516v2.271484c.000085.399294.445067.637437.777344.416016l1.222656-.814454 1.222656.814454c.332277.221421.777259-.016722.777344-.416016v-2.25c.828427 0 1.5-.671573 1.5-1.5.000157-.18781-.03496-.373979-.103516-.548828.379364-.282792.603056-.728004.603516-1.201172-.000778-.559885-.313308-1.072735-.810547-1.330078.039976-.136398.060362-.277786.060547-.419922 0-.828427-.671573-1.5-1.5-1.5-.142136.000185-.283524.02057-.419922.06055-.257343-.497245-.770193-.809772-1.330078-.81055zm0 1.5c1.380712 0 2.5 1.119288 2.5 2.5s-1.119288 2.5-2.5 2.5-2.5-1.119288-2.5-2.5 1.119288-2.5 2.5-2.5zm0 .5a2 2 0 0 0 -2 2 2 2 0 0 0 2 2 2 2 0 0 0 2-2 2 2 0 0 0 -2-2z" opacity=".2"/><path d="m11 9c-.559885.000778-1.072735.313308-1.330078.810547-.136398-.039976-.277786-.060362-.419922-.060547-.8284271 0-1.5.671573-1.5 1.5.0001851.142136.020571.283524.060547.419922-.4972395.257343-.809769.770193-.810547 1.330078.000778.559885.3133076 1.072735.8105469 1.330078-.0399757.136398-.0603618.277786-.0605469.419922.0002459.731764.5284706 1.356555 1.25 1.478516v2.271484c.000085.399294.445067.637437.777344.416016l1.222656-.814454 1.222656.814454c.332277.221421.777259-.016722.777344-.416016v-2.25c.828427 0 1.5-.671573 1.5-1.5.000157-.18781-.03496-.373979-.103516-.548828.379364-.282792.603056-.728004.603516-1.201172-.000778-.559885-.313308-1.072735-.810547-1.330078.039976-.136398.060362-.277786.060547-.419922 0-.828427-.671573-1.5-1.5-1.5-.142136.000185-.283524.02057-.419922.06055-.257343-.497245-.770193-.809772-1.330078-.81055zm0 1.5c1.380712 0 2.5 1.119288 2.5 2.5s-1.119288 2.5-2.5 2.5-2.5-1.119288-2.5-2.5 1.119288-2.5 2.5-2.5zm0 .5a2 2 0 0 0 -2 2 2 2 0 0 0 2 2 2 2 0 0 0 2-2 2 2 0 0 0 -2-2z" fill="#fff"/></svg>