<svg height="22" width="22" xmlns="http://www.w3.org/2000/svg"><g transform="translate(-1 -1)"><path d="m22 20.5v-16c0-.554-.446-1-1-1h-18c-.554 0-1 .446-1 1v16c0 .554.446 1 1 1h18c .554 0 1-.446 1-1z" opacity=".2"/><path d="m22 20v-16c0-.554-.446-1-1-1h-18c-.554 0-1 .446-1 1v16c0 .554.446 1 1 1h18c .554 0 1-.446 1-1z" fill="#7282d9"/><path d="m3 3c-.554 0-1 .446-1 1v .5c0-.554.446-1 1-1h18c .554 0 1 .446 1 1v-.5c0-.554-.446-1-1-1z" fill="#fff" opacity=".2"/><g opacity=".2" transform="translate(1 .5)"><path d="m6.5318 8h6.9352c.533 0 .533.5714.533.5714v6.8571c0 .572-.533.572-.533.572h-6.9336s-.5334 0-.5334-.571v-6.8576s0-.5714.5334-.5714z"/><path d="m17 9v6l-3-3.1304z"/></g><g fill="#fff" transform="translate(1)"><path d="m6.5318 8h6.9352c.533 0 .533.5714.533.5714v6.8571c0 .572-.533.572-.533.572h-6.9336s-.5334 0-.5334-.571v-6.8576s0-.5714.5334-.5714z"/><path d="m17 9v6l-3-3.1304z"/></g></g></svg>