<svg height="16" viewBox="0 0 16 16" width="16" xmlns="http://www.w3.org/2000/svg"><path d="m2.75 1c-.4172 0-.75.3328-.75.75v13.5c0 .417.3328.75.75.75h10.5c.418 0 .75-.332.75-.75v-9.25l-4.125-.875-.875-4.125z" fill="#616e73"/><path d="m9 1v4.1667c0 .4584.3749.8333.8333.8333h4.1667z" fill="#8f999e"/><path d="m7.5 8.5-1.1 3.9-.9-1.9h-1.5v.5h1.2l1.3 3 1.5-5h2.6v-.5z" fill="#fff"/><path d="m8.1126 10.625 1.2234 1.607-1.336 1.768h.6656l.9984-1.326 1.004 1.326h.6648l-1.3074-1.734 1.2426-1.641h-.66563l-.90936 1.2042-.91416-1.2042z" fill="#fff"/></svg>