<svg height="16" viewBox="0 0 16 16" width="16" xmlns="http://www.w3.org/2000/svg"><path d="m15.999508 14.220667v-12.4413337c0-.43295-.355682-.7793333-.797514-.7793333h-14.4044801c-.4417095 0-.7975139.3463833-.7975139.7793333v12.4413337c0 .432833.3558044.779333.7980062.779333h14.4032488c.443064 0 .798745-.3465.798745-.779333z" fill="#a47a4a"/><path d="m3.5 8.5 4 4 5-2" fill="none" stroke="#fff" stroke-width=".5"/><g fill="#3f3f3f"><circle cx="3.5" cy="8.5" r="1.5"/><circle cx="7.5" cy="12.5" r="1.5"/><circle cx="12.5" cy="10.5" r="1.5"/></g><g transform="translate(0 -2)"><path d="m6 3v1c0 1.1.895 2 2 2s2-.9 2-2v-1z" opacity=".1"/><path d="m8 3h1zm0 0h-1v1h1zm0 1v1c .552 0 1-.5 1-1z" opacity=".2"/><path d="m7 3h1zm0 1c0 .5.448 1 1 1v-1z" fill="#ddd"/><path d="m8 3h1v1h-1z" fill="#b3b3b3"/><path d="m8 5c-1.105 0-2 .9-2 2v3c0 1.1.895 2 2 2s2-.9 2-2v-3c0-1.1-.895-2-2-2zm0 1c .552 0 1 .4 1 1 0 .5-.448 1-1 1s-1-.5-1-1c0-.6.448-1 1-1zm0 3c .552 0 1 1 1 1s-.448 1-1 1-1-1-1-1 .448-1 1-1z" fill="#f5f5f5"/></g></svg>