<svg height="16" viewBox="0 0 16 16" width="16" xmlns="http://www.w3.org/2000/svg"><path d="m2.75 1c-.4172 0-.75.3328-.75.75v13.5c0 .417.3328.75.75.75h10.5c.418 0 .75-.332.75-.75v-9.25l-4.125-.875-.875-4.125z" fill="#e4e4e4"/><path d="m9 1v4.1667c0 .4584.3749.8333.8333.8333h4.1667z" fill="#fafafa"/><path d="m8 7c-1.0781 0-2 .5081-2 1.5146v1.4851h-.5s-.5 0-.5.5v3.0503c0 .45.2188.45.4844.45h4.8645c.266 0 .651 0 .651-.448v-3.0519c0-.5-.5-.5-.5-.5s-.07792.000316-.15107.000316h-.34893v-1.4851c0-1.0062-.9219-1.5143-2-1.5143zm0 1c .6667-.0049 1 .263 1 .6577v1.342h-2v-1.342c0-.3947.3333-.6528 1-.6577z" fill="#d84747"/></svg>