<svg height="16" viewBox="0 0 16 16" width="16" xmlns="http://www.w3.org/2000/svg"><path d="m2.75 1c-.4172 0-.75.3328-.75.75v13.5c0 .417.3328.75.75.75h10.5c.418 0 .75-.332.75-.75v-9.25l-4.125-.875-.875-4.125z" fill="#e4e4e4"/><path d="m9 1v4.1667c0 .4584.3749.8333.8333.8333h4.1667z" fill="#fafafa"/><path d="m7 7v1.1738a3 3 0 0 0 -.29102.12109l-.83008-.83008-1.4141 1.4141.83008.83008a3 3 0 0 0 -.11914.29102h-1.1758v2h1.1738a3 3 0 0 0  .12109.29102l-.83008.83008 1.4141 1.4141.83008-.83008a3 3 0 0 0  .29102.11914v1.1758h2v-1.1738a3 3 0 0 0  .29102-.12109l.83008.83008 1.4141-1.4141-.83008-.83008a3 3 0 0 0  .119-.291h1.176v-2h-1.1738a3 3 0 0 0 -.121-.291l.83-.8301-1.414-1.4141-.83.8301a3 3 0 0 0 -.29102-.11914v-1.1758h-2zm1 2a2 2 0 0 1 2 2 2 2 0 0 1 -2 2 2 2 0 0 1 -2-2 2 2 0 0 1 2-2z" fill="#8d6e63"/></svg>