<svg height="16" viewBox="0 0 16 16" width="16" xmlns="http://www.w3.org/2000/svg"><path d="m2.75 1c-.4172 0-.75.3328-.75.75v13.5c0 .417.3328.75.75.75h10.5c.418 0 .75-.332.75-.75v-9.25l-4.125-.875-.875-4.125z" fill="#dc6628"/><path d="m9 1v4.1667c0 .4584.3749.8333.8333.8333h4.1667z" fill="#f5c77a"/><path d="m8 6.0000003-2.1 6.2499997-1.1531-3.2499997h-2.7469v.9999997h2.0484l1.9516 5 2-5.9999997 1 3.9999997 1-3.9999997 1.525 3.9999997h2.475v-1h-1.8l-2.2-4.9999997-1 2.9999997z" fill="#fff"/></svg>