<svg height="16" width="16" xmlns="http://www.w3.org/2000/svg"><path d="m13 3c-1.565727.0003112-2.867912 1.2046834-2.990234 2.765625l-2.0976566 3.2695312c-.1361629-.0230812-.2740044-.0348405-.4121094-.0351562-.4592697.0012287-.9093259.1289473-1.3007812.3691406l-1.2070313-.6816406a2.5 2.5 0 0 0  .0078125-.1875 2.5 2.5 0 0 0 -2.5-2.5 2.5 2.5 0 0 0 -2.5 2.5 2.5 2.5 0 0 0 2.5 2.5 2.5 2.5 0 0 0 1.5488281-.541016l1.0019531.556641c-.0326509.159421-.049659.321649-.0507812.484375 0 1.380712 1.1192881 2.5 2.5 2.5s2.5-1.119288 2.5-2.5c-.0005403-.105165-.0077204-.210192-.0214844-.314453l2.5976564-2.2187501c.140313.0210764.281945.032172.423828.0332031 1.656854 0 3-1.3431458 3-3s-1.343146-3-3-3zm0 1c1.104569 0 2 .8954305 2 2s-.895431 2-2 2c-1.10457 0-2-.8954305-2-2s .89543-2 2-2zm0 1c-.552285 0-1 .4477153-1 1s .447715 1 1 1 1-.4477153 1-1-.447715-1-1-1zm-10.5 2a1.5 1.5 0 0 1 1.4433594 1.0957031l-.4394532-.2480469-.0175781-.0019531a1 1 0 0 0 -.4863281-.125 1 1 0 0 0 -1 1 1 1 0 0 0  .5039062.8652344l.0078126.0175781.53125.2949219a1.5 1.5 0 0 1 -.5429688.1015625 1.5 1.5 0 0 1 -1.5-1.5 1.5 1.5 0 0 1 1.5-1.5zm4.9609375 3c .0130203-.0001695.0260422-.0001695.0390625 0 .8284271 0 1.5.671573 1.5 1.5s-.6715729 1.5-1.5 1.5c-.8024161-.000258-1.4625234-.631965-1.4980469-1.433594l.4980469.28711c.4956.286 1.1175312.13039 1.3945312-.34961.2770001-.48.1010688-1.096812-.3945312-1.382812l-.1875-.107422c.049222-.007015.0987623-.011578.1484375-.013672z" fill="#31363b"/><path d="m .0723 6.9863a8 8 0 0 0 -.0528.6157 8 8 0 0 1  .0528-.6157z"/><path d="m0 8a8 8 0 0 0  .0391.725 8 8 0 0 1 -.0391-.725z"/></svg>