<svg height="16" viewBox="0 0 16 16" width="16" xmlns="http://www.w3.org/2000/svg"><g transform="translate(0 -1036.3622)"><path d="m14.964831 1044.402c0 2.0457.267323 3.8723-.99588 5.2868-1.465041 1.6406-3.596387 2.6734-5.9689506 2.6734-4.418286 0-8.0000004-3.5817-8.0000004-8s3.5817144-8 8.0000004-8c .1454 0 .4756936.083.6191836.091 2.00015.1068 3.168234 1.6781 4.513311 2.9893 1.49063 1.4531 1.832336 2.7132 1.832336 4.9593z" fill="#336f33"/><path d="m8.0632812 1036.3638c-.045935.017-.089384.031-.1281248.034.8792404.011-.5758356.1233-.8921876.1539-.2958164.1598-.9391016.36-.2679688-.031-.3465732-.023-.4240956.069-.48125.1812-.00565 0-.0067.01-.00469.01-.010744.022-.02146.043-.032812.065-.2410212.014-.8910156.5212-.2546876.2851-.1974308.1468-.7951148.458-.210156.2618.126486-.01.246044-.043.3671872-.076v.0008c.5760576-.369 1.418664-.2389 1.8468752-.2961.027816-.01.062533-.01.096094-.01h.02578c.3569504.01.9543984.3079 1.00625.3453-.660816.1096.6943944.4147.8914066.4312.460604-.147-.1458338.041.273437.1219-.2238.2055.436705-.088.367969.032.975016.2833-.958361-.1191-.196094.225.448895-.123.205546.2266.494531.4312-.248729.047.442818.4403-.04922.3289.511464.093.504016.8631.139062.4297.255264-.4834-.577878-.084-.623437.033-.174565.3295.382171.8746.271875 1.1289-.02161.3431.07936.2912.363281.5852.02899-.5765.319093.041.598437-.017.02753-.5759-.786547-.7725-.694531-1.2899.2422.2531.55881.7627.755469.243-.07577.2197.037.3623.132031.5094-.128521.1528.394777.4219-.01406.6219-.05411.2134-.188508.2029-.314843.1304.00076-.041-.02748-.1101-.0625-.043-.0743-.057-.142346-.1231-.175782-.1774.03205.3346.440901.39.123438.732.232437.4893-.75819.9005.05781.9915.42228.578-.893355.4502-.307031 1.0945.121523.7389 1.191886.062.784375-.5094.03626-.5193.341316-.9486.919531-.6976.353028.2033.390359.1967.254688-.1469-.389624.1427-1.005522-.5206-.285157-.2555.407112-.012.716072.4526.854688.3406-.03016-.066-.07309-.1338-.114844-.2015.02244 0 .04653.01.1-.01-.03914-.064-.09329-.054-.121875-.034-.0864-.148-.140211-.2941.05078-.4218-.180038-.2925-.654202-1.0495-.150781-.8532-.04286-.064-.2611-.7406.0094-.2508.316039-.1272.730289.2846.265625.4938-.295868.4372.06924 1.4271.460157.6289.04679-.4629.592249.649.233593.8031-.218479.3414-.730161.3232-.510937.8516-.411495.026-.91252.3162-.967969-.2727-.522846.265-.868278.8358-1.334375 1.0618-.08965.6787-.355241 1.1949-.619531 1.8578-.168792.4186.222156.8337.03516 1.2664.156976.187.58353.6361 1.055469.7211.552517-.044 1.0147-.5642 1.452344-.8422.265479.1743.664421-.4107.555468.2844-.164103.3934.562604.6606.118751 1.1281-.101478.2035-.325675.8824-.419532 1.0976 1.36646-1.4352 2.210158-3.3728 2.210158-5.5109 0-4.3971-3.547738-7.9643-7.9367188-7.9984zm-1.3757812.1257h-.020312zm-.039064.01-.053125.01zm-.057813.013h-.021876zm-.6039044.2016-.023438.01zm-.1.028-.053125.012zm-.4867186.1404-.050781.018zm-.080469.022-.022656.012zm2.6656252.1078c-.013244-.01-.045548 0-.10625.018.017892.089.145986 0 .10625-.018zm-2.96875.02-.014064.01zm1.6945312.016c-.00771 0-.026344 0-.063281.02.00751.054.086405-.014.063281-.02zm1.2507812.023.026564.015zm.1843748 0 .02578.015zm-.647656.01c-.1144124-.01.1123436.1045.2445312.057-.129962-.039-.206394-.055-.2445312-.057zm-2.6281252.013h-.00781zm3.09375.012c-.1928844.0005.017852.1808.139844.045l-.030468-.033c-.045467-.01-.081821-.013-.109376-.013zm.1765624.048.00156.027zm-3.4234372.032c.0001952 0-.00742 0-.029688.013-.041963.033.0291-.01.029688-.013zm-.049219.024-.026564.022zm4.322656.014c-.027832 0-.062098.05.021092.028-.00328-.019-.011816-.027-.021092-.028zm-4.3765624.015.00392.01zm1.733594.037c-.1859776.052.043573.1233 0 0zm-1.8234376.032-.032032.032zm-.054688.038-.051562.035zm.3703124.1719c-.021728-.01-.072321 0-.086719.053.1013128-.016.1084476-.044.086719-.053zm4.1070316.012c-.036312.01-.040292.044-.017968.062-.062042.016.061377.2068.1328124.062-.035304-.026-.06343-.044-.085156-.053.0229 0 .050071-.014.084374-.042-.053142-.03-.090294-.035-.1140624-.029zm-3.6296876 0c-.080162 0-.4443616.329-.4382812.039-.3057204.1092-.668184.434-.7625.2453-.078295.3293.504902.2594.084375.3992.2299628.158-.5365184.6863-.3273436.6969-.011024.01-.016756.015-.027344.023-.0492-.01-.1966432.03-.1390624.081.059203-.02.067791-.028.092188-.04-.3684536.3027-.4751328.5019-.8054688.7719.0322.1948-.5401376.8446-.275.3727-.4788468.4021-1.1200256.8649-1.2039062 1.6078-.1470457.5778-.5083662 1.3476-.3835938 1.8023.078025-.3641.166657-1.1701.3257812-1.1633-.1683589.7778-.2972896 1.6126-.1914062 2.3852.2412947.7766.9611396 1.2841 1.11875 2.0805.1827106.3574.405831.5985.7101562.6312.3751676.5157-.2990356.6914-.2648436 1.0477-.030184.5832.4531012 1.17.8445312 1.6132.6045612.2216.6605208 1.1396.9992188 1.5.2628772.1206.5321096.2292.8093748.3211.052308.01.042688-.018.175.01.2343828.024.644214.05.28125-.1141.6301368.2872.8200592-.1728 1.277344-.3156.5841596.093.9087644-.3537 1.035156-.8164.7659848-.3343.2991832-.894-.3359376-.9024-.512544.072-.7232628-.2823-1.160156-.2312.06781-.076-.1936348-.2005-.3414064-.091.235912-.9161-1.8691188-1.544-2.3867188-1.9868-.3620804.4888.145936-.4291-.4445312-.1328-.2870496.1062-.360722.2974-.5523436-.079-.8401445-.1016.02322-1.1674-.7859376-1.3601.3172628-.2879.3747228-.9446-.20625-.5008-.5933682-.2651-.2801085-1.5494.2898438-1.4828.205197.029.4048638.5901.4124998.2164.6063192.1079.380986.8322.5929688 1.0976.05018-.5521.2273148-1.073.8421876-1.1015.043017-.139.151198-.7555.1351564-.1953.061782-.238.2283232-.2884.3968748-.3266.03914 0 .066351-.01.06875-.016.1566852-.036.3038348-.081.3554688-.2789.3000416-.1002.8780976-.1291.34375.1211.2933016-.021.527792-.053.3656252-.2078.1738164-.053-.2051308-.1865-.1039064-.08-.012672-.01-.019972-.015-.034376-.024-.057826-.3567-.068846-.1325.085938-.3243-.244636-.2248-.8285772.2383-.235156-.1382.5236396.079 1.4191152-.1314.9625-.4204-.02376-.1394-.2097432-.4839-.1554688-.7625-.021412-.2194-.4890504.2972-.408594-.2367.3493812-.1045-.364484-.7434-.3648436-.1578-.1692144.2889-.3209952.5209-.5781248.7055-.094334.6049-.4324896-.031-.1101564-.2586-.3672496-.3953-.431806-1.2125.3117188-1.1774-.1724552-.3376.3754456.2176.3007812-.2125.350014.3354.9035932-.5319.2648436-.1093-.08538-.1993.3877692-.8653-.08125-.3617-.3260872.4232-.2297548-.5358-.6125-.1657.031992-.3773.3477692-.7974.054688-1.0859.3346652-.2479.9074196-1.1205.1406248-.7602.060732-.1101.065783-.1477.039064-.1484zm-1.0664064 0-.00469.038zm-.026564.038c-.00352 0-.010216 0-.021876.034.01288.096.03246-.022.021876-.034zm4.9953124 0h .032032zm-4.4468748 0c-.00722.01-.011732.017-.0086.038.0749-.012.030236-.054.0086-.038zm.9328124.093.00938.012zm-1.4929688.01c.00196 0-.00949 0-.046875.033-.08625.1026.04095-.018.046875-.033zm4.6757812.01c-.060586.018.025352.1572.1148436.036-.057991-.035-.094648-.042-.1148436-.036zm.1578124.031-.01328.035zm.6875.036h-.040625zm.33125.016-.02109.016zm.05547.029.03594.028zm-6.0226562.035-.032812.02zm-.060938.039h.017968zm6.0781248.01.01797.019zm.0055.09c.0014.014.115582.066.04687 0-.03558-.01-.04736-.01-.04687 0zm-6.0281224.097c-.0053-.01-.023052-.01-.063281.022-.02148.1313.079198 0 .063281-.022zm.028904.025-.021092.02zm.017188 0c-.00502 0-.017132 0-.039844.026.0073.075.054899-.016.039844-.026zm5.7007812.01c-.052064-.012-.016764.038.1843752.1946.179392.1223.361534.08.15625-.016-.14897-.092-.2885604-.1669-.3406252-.179zm-.6546872.013.075781.025zm-5.1820316.013.00625.013zm5.2570316.026c-.03354 0-.00982.058.053125.03-.024656-.021-.041945-.029-.053125-.03zm-.048438.01.023436.023zm.1132812.034c-.00766 0-.011892.01-.00703.034.082254.031.03-.037.00703-.034zm-.053125.02-.017188.038zm-.082812.01.028124.02zm.14375.06.032812.01zm-5.1468748 0c-.0074-.0008-.00974 0 .00156.015.091394.029.020644-.013-.00156-.015zm6.4843752.014c-.03156.017.0098.112.05859.019-.02903-.021-.04807-.024-.05859-.019zm-1.3953128.01c-.01494 0-.00092.034.0875.077-.028664-.06-.072558-.081-.0875-.077zm-5.0609376.016-.00547.021zm5.1867204 0-.00781.019zm-.1023436.028.00392.049zm1.1507816.011c-.126736.01-.228284.096.03984.1282l.141406-.021c-.01985-.085-.10521-.1113-.18125-.107zm-6.3382816.062.016404.01zm2.04375.1547c-.081014 0 .033372.1648.1570312.094l-.00392-.031c-.07723-.049-.1261068-.064-.1531112-.063zm3.1484372.0007.00703.03zm-3.641406.035c-.06736 0-.1451844.051-.2171876.1687l.032812.024h.089062c.407294.141.2973908-.2108.095313-.1961zm5.1859374.018c-.04498-.01-.0601.1067.05156.062-.01795-.042-.03657-.059-.05156-.062zm-4.4398438.032-.040625.021zm-.3507812.01c-.00806 0-.0065.01.016408.026.1186044.01.00778-.032-.016408-.026zm.3914064.01c.056615.128.144776-.042 0 0zm-.05625.01c-.044316 0-.090353.1331.0375.062-.00776-.044-.022728-.061-.0375-.062zm2.8929688 0c-.336056.079.2108112.2126 0 0zm .1570312.014-.00781.03zm-3.2070312.012.02422.01zm-.092969.013c-.039376-.01-.1081564.017-.1445312.057-.063005.2573.4633928.078.1109372.067.08247-.081.07297-.1177.033592-.1242zm1.1273436.034c-.2747688 0 .00248.2282-.1984376.2407-.1961552.03-.6140956.3637-.2523436.2445.2059124-.041 1.0627924-.3041.6054688-.4687-.064794-.011-.1154348-.016-.1546876-.017zm-.6531252.0008c-.032108.012-.064506.062-.050781.1719.157644-.1027.1042956-.1913.050781-.1719zm.1984376.019-.035936.033zm.1070312.027c-.02696.01-.064142.026-.1148436.062-.00392.035.1099588.1764-.042969.059.013992.3597.3465396-.1715.1578124-.1211zm-.4679688.02c-.00902 0-.111118.099-.032032.037.027912-.029.035036-.038.032032-.037zm2.9539064.019c-.01266 0-.020768.015-.018748.029-.14598-.08-.384894.028-.083594.1289-.066791-.2148.094264.1118.1757812.052.00519-.086-.029068-.1397-.075781-.1719.00688.0006.011204 0 .02422 0-.00548-.025-.014028-.034-.021876-.036zm.026564 0c-.016168.026.1813784.1445.1054688.017-.070916-.025-.1000792-.026-.1054688-.017zm-1.3375.025c-.03404-.01-.07764.014-.1453124.088-.018396 0-.036892.01-.055469.011-.00308-.018-.013084-.035-.046094-.03.00518.022.010812.025.016408.035-.3953772.058-.80748.272-.7312496.5399.454268.1073.1111148.6336.3406248.7281-.092253.052.045213.3198-.1421876.3445.3653364-.072-.269124.1121.046094.15-.1175692.2022-.048109.4473.1335936.7344.19714-.045.069696.01.1601564.1469.2529408-.3289.280858-.7504.6929684-.9625-.004-.1368.7170796-.3531.2289064-.3961.1114224-.02.034144-.127-.022656 0-.011876-.0008-.015752 0-.028908 0-.099388-.2589.5621896.067.071875-.2265-.1954996-.1551.1010532-.1444.1132812-.2258.023884 0 .013172-.019-.00859-.028-.010796-.021-.031816-.045-.079688-.078.029852-.23-.2315316-.3561-.1156248-.7297-.311342.185-.3260072-.076-.4281252-.094zm-.1218748 0 .02578.024zm-1.4656252 0 .0125.029zm-.8671872.011c-.027688 0-.059807-.0006-.096875.01-.180662.4389-.1902204-.1354-.2906248.2742.2096044.7596.8028316-.2426.3875-.2804zm2.3171872.01.020312.02zm-1.3343748.01c-.015672.01-.02504.034-.014844.08.168816-.011.061864-.109.014844-.08zm-.2804688.023-.033592.031zm-2.6343748.01-.039844.016zm2.5609372.032.044531.01zm-.014064.01.014844.018zm2.9328124.014c-.0054.0001.00458.01.046094.02.1265452.026-.0299-.021-.046094-.02zm-5.5382812 0-.014064.01zm2.9382812 0c-.020788.01.00785.1024.039064.032-.019616-.027-.032132-.034-.039064-.032zm-.4023436.013-.039064.027zm.14375 0c-.040483-.01-.096059.014-.1234376.1101.2164904.01.1909084-.096.1234376-.1101zm-2.6890624.023c-.027152.01-.163412.095-.023436.024.029492-.023.032488-.027.023436-.024zm.016404.01c-.163716.055.00424.1168 0 0zm2.2453124.03c-.014008.01-.024648.031-.021876.077.1394548.01.063894-.1014.021876-.077zm.75.014c-.02058.015-.01982.1022.026564.018-.01082-.02-.019704-.023-.026564-.018zm-3.1070312.01c-.014092.01-.051606.049-.1257812.1383.00176.068.1680584-.1672.1257812-.1383zm.084375.01-.02578.033zm-.042969.019-.018748.026zm.00156.03-.032812.033zm2.8351564 0-.02422.02zm-2.8531252.0008-.035936.031zm2.7632816 0c-.014532 0-.034772.015-.061719.034-.007.2092.1634512-.063.061719-.034zm.2687496.01-.035156.028zm-.1210936.01c-.042211-.01-.084282.017-.1164064.1054.4950576.6537.299322-.065.1164064-.1054zm-3.03125.01c-.00056 0-.013396.01-.047656.035-.056167.068.049375-.03.047656-.035zm2.6468752.039.039844.026zm-2.5828128.01c-.074682 0-.064306.091 0 0zm2.4703128.01c-.1059384-.01-.2397196.056-.083594.1984.267628-.1218.1895324-.1934.083594-.1984zm-2.5226564 0-.028908.021zm-.010936.022-.032812.015zm6.9281254.01-.02812.011zm-7.1507814.076c-.070353.052-.1572376.1182-.048438.041.1726112-.132.11879-.093.048438-.041zm2.925.01c-.0407.01-.1002796.043-.1781252.1125.250594.029.3002236-.1429.1781252-.1125zm.9460936 0 .028124.017zm3.2515628 0-.007.049zm.02266 0 .02109.037zm-1.7414068.026.00625.027zm-5.328906 0-.00625.026zm3.491406 0-.021876.022zm3.6085938.01-.02188.013zm-7.1101562.017-.031252.028zm-.026564 0-.0125.024zm2.4320312.01-.017188.027zm-.3531252.044.00938.021zm5.0125002.035-.01406.032zm-1.7046874.01.05625.073zm-5.4859376.023-.034376.034zm-.00938.02.016408.01zm2.3468752 0-.027344.031zm-2.3406252.022-.023436.023zm7.214063.013-.01016.038zm-1.6398442.055c-.00683 0-.00652.018.00938.048.094167.014.011112-.061-.00938-.048zm1.6046872.01.01484.043zm-7.260156 0-.023436.01zm7.319531.044c-.01696.011-.02856.045.01641.069.02286-.067.00056-.08-.01641-.069zm-1.7117182 0 .027344.03zm1.6757812 0c-.0209-.01-.03042.07.02266.041-.0077-.027-.01569-.039-.02266-.041zm-7.4445256.053c-.014004-.0007-.057628.063-.15.2445-.031828.3341.192014-.2423.15-.2445zm7.4898436.01-.0024.038.0031-.038h-.0008zm-4.4132812.031.018748.031zm4.3945312 0 .0055.032zm-7.4625.031.00469.025zm5.6828124.086c-.053578 0-.06113.066.065625.024-.024832-.019-.047766-.025-.065625-.024zm.08125.032c-.012564 0-.028864 0-.048437.02.085376.04.086128-.017.048437-.02zm-.040625.023c-.0135 0-.0158.01.00859.048.1735028.087.031904-.042-.00859-.048zm-2.464844.01c-.00633 0-.00368.01.017968.027.099784.01.00104-.035-.017968-.027zm-.3375 0c .0002212 0-.00868 0-.035936.03-.051185.082.035272-.019.035936-.03zm3.5156252.01-.016408.045zm-6.5085936.02-.019532.043zm7.6992188.017.01094.027zm-4.2640628.01-.046875.01zm-.05.033-.057812.016zm.065625.016-.019532.034zm-3.5195316.046-.01172.027zm-.00625 0-.021876.024zm3.5484372.066-.017188.041zm5.19375.013.007.045zm-5.3367188.016c-.055322.03-.0171.2198.0875.043-.04024-.045-.069059-.053-.0875-.043zm-.4625.023c-.00542-.0006-.00879.014-.00625.056.056597.081.022508-.055.00625-.056zm-.021092.01-.028908.044zm.5875 0c-.00934.01.057863.1128.040625.033-.026176-.028-.037512-.036-.040625-.033zm-.6640624.036c-.1286908-.011-.3251424.2033.02578.3312.104016-.2366.051433-.3245-.02578-.3312zm5.7851562.03.04922.022zm.275781.01c-.0028 0-.01454 0-.04063.011-.02029.072.04896 0 .04063-.011zm-.340625.034.02891.01zm-.689062 0-.01641.03zm.01641.011-.01641.038zm.955469.2141c-.01824-.01-.01429.025.06641.1156-.0077-.063-.04817-.1089-.06641-.1156zm-6.1195316.041c-.3193708.062.1904268.055 0 0zm3.8156252.053c-.2240496-.021-.5948252.1453-.2093752.3266.098237.01.20251.06.2593752-.051.1660676-.1842.08443-.2634-.05-.2758zm-3.4789064 0-.00236.038zm-.0875 0c-.00614.01-.00486.018.0125.044.090248 0 .00594-.059-.0125-.044zm5.8765628.054c-.0102-.016-.01313-.017.0024.018.125762.2204.02825.031-.0024-.018zm-6.0187504.023c-.012084.01-.029848.027-.053125.07.074114.01.08938-.09.053125-.07zm5.1640624.062.02188.026zm-4.866406.033.030468.019zm2.2406248.03-.041406.015zm-2.0382812.037.025.041zm3.9000004.013.03516.025zm-.0055.011.04063.023zm.446094.026.0086.028zm-.0125.015.04687.074zm1.267968.024.03828.021zm-1.648437.01.03359.02zm1.488281.01c-.03638-.023-.02569.2258.05156.1351-.02177-.09-.03943-.1276-.05156-.1351zm-.104688.083.02266.022zm.290626.019c-.01853 0-.02865.093.01953.036-.0062-.028-.01336-.037-.01953-.036zm-.104688.01-.01172.028zm-5.2445312.041c-.025092-.01-.053508-.0005-.00938.035.056236-.011.034468-.029.00938-.035zm5.1640622.025.01406.037zm-1.082812.024.02578.026zm-4.330475.023-.00312.04zm4.295312.054c-.06795.4868.511117.3632.439844.8352.231865-.1022-.142201.4863.228125.044l.07109-.056.06875-.023c.0015-.4245-.604695-.4708-.807813-.8zm-4.0999996.032.025.026zm3.9671876.048c-.0053 0-.0063.023.0024.073.06689.062.01367-.082-.0024-.073zm-5.1179688.057-.046094.022zm5.1624998.026c-.0134 0 .09713.1196.06484.045-.04176-.035-.06038-.046-.06484-.045zm-5.1671874.015c-.015944-.0006-.03764 0-.063281.016.1069224.029.1111176-.014.063281-.016zm.05.01-.034376.019zm2.3476564 0-.035936.018zm2.74375.01-.02812.017zm-2.6796876.074-.018748.026zm3.7531256.013-.01797.026zm-.9375.012c-.06681.103.102022-.01 0 0zm-2.7445316.01.03828.021zm-2.6554688.032.045312.01zm5.4476564.01-.0094.027zm-9.0265628.035.00156.032zm9.0124998 0-.01016.041zm.06797.019.02969.01zm-5.7828124.071c.037324.1888.1424936-.027 0 0zm5.9289064.051-.0047.049zm-9.2421878.011-.00547.039zm9.0874998.021c-.121767.011-.28941.3085 0 .4492l.06094-.064c.06865-.2957.01212-.3917-.06094-.3852zm3.665625.07c-.02443.01-.02068.066.07266.2039.08706-.1014-.03194-.2192-.07266-.2039zm-3.416406.015-.03516.022zm2.776563.075-.0125.024zm-.0125.051-.0039.042zm-2.385938.095-.03438.021zm1.455469.01c.01116.01.112914.038.02891.01-.02683-.01-.03262-.01-.02891-.01zm1.073437.018.02969.042zm-1.095312 0 .02812.014zm1.203906.02-.02031.026zm-.916406.03-.02031.019zm.890625.013-.0031.042zm.211719.013c-.01108-.025-.07733.05-.01406.065.01544-.037.01776-.056.01406-.065zm-.10625.01-.0055.037zm-.203126.059h.02891zm.142969.03-.0039.027zm.135157.031.0094.038zm-.66875.049.04297.022zm1.239843.016-.0063.023zm-1.116406.025.0125.042zm.565625.05c-.0229-.012-.264447.2235-.07422.1164.06498-.081.08185-.1125.07422-.1164zm-.558594.01c-.0043.01-.000234.018.02188.041.08144-.01-.0089-.056-.02188-.041zm.09375.054-.03203.01zm-1.0125.01-.01641.027zm-11.3140622.01-.021875.019zm.1265624.01-.017188.087zm12.3999998.0008.02031.024zm-1.288281.05c-.03851.01-.05159.068.07734.1719.02511-.1258-.03884-.1774-.07734-.1719zm-5.8500002.021c-.019364.01-.06388.052-.160156.1594-.5351192.269.3164024.2802.1023436.4078l.03828.016c.2442272.022.1950144.015.1757816-.2453-.272694-.031-.098158-.358-.1562504-.3383zm-.6609372.029c-.058485-.01-.078935.074.1093748.1453-.025376-.099-.074284-.1391-.1093748-.1453zm-4.5953126.034c-.071374.1201.067923-.023 0 0zm10.129687 0 .02422.018zm1.729688.1359c-.115012-.02-.333617.3477.05391.1828.01082-.1267-.01557-.1762-.05391-.1828zm-.617969.022c-.07431 0-.124303.076.07188.2531.101061-.16.0024-.2489-.07188-.2531zm-5.8742186.01-.035156.01zm-.6773436.1554-.055469.028zm7.2289062.1219h.02578zm-7.2062498.059c-.082348 0-.1686284.1696.06875.066-.01452-.05-.041301-.067-.06875-.066zm6.2374998.01-.02734.01zm-11.1976562.01-.00078.045zm11.1406252.052c-.02938-.018-.144688.099-.01172.074.02165-.046.02151-.068.01172-.074zm-10.971094.027.00703.026zm-.092188.098-.00703.037zm10.9570315.056-.02109.032zm-7.3500004.1242.045313.01zm-.3773436.2445-.031252.032zm-2.08125.083h-.028125zm.2468752.2118.010936.027zm1.6734372.015-.046875.067zm-.1125.084-.03672.022zm-2.2359374.023-.027344.039zm1.0726562.011.014844.01zm.4539064.8242-.010156.028zm.2195312.093.026564.019zm.030468.026c-.017524-.011-.033924.011-.023436.111.084848.015.052644-.093.023436-.111zm-1.1328128.1188h.028124zm.996094.07c-.029664-.011-.061439.012-.00703.1047.064243-.047.036692-.093.00703-.1047zm.175782 0c-.00774-.01.0347.2118.028124.107-.017408-.075-.025545-.1038-.028124-.107zm-.7421876.012c-.0138 0-.014728.023 0 .057.4212216.1356.3234616.6564.7328124.736.062046-.2221-.6362008-.8274-.7328124-.793zm-.403906.062h-.029688zm.9875.05c-.01712-.01-.0392.063.0125.041-.00172-.027-.00679-.039-.0125-.041zm-.602344.01c-.00898 0-.015176.018-.010936.06.09388.057.037892-.066.010936-.06zm.8171876.036.028908.087zm-.3710936.1234.035936.032zm.032812.037.022656.028zm-1.0609376.054-.023438.023zm1.4875.087.032812.029zm.045312.037c-.017492.01-.116132.1016-.019532.029.022572-.025.02536-.032.019532-.029zm-.8765624.033.031252.024zm.9632812.044.027344.023zm-.042187.136c-.026876-.012-.138972.041-.01328.038.022048-.023.02224-.034.01328-.038zm-.6468741.1085c-.00168.01.03296.04.1351564.1016.200034.017-.130132-.131-.1351564-.1016zm.6281248.019.03672.024zm.021096.052c-.075633-.013-.1308612.012-.1226564.1062-.1509864-.033.2882688.2933.2546876.1836.5118388.1327.094868-.2499-.1320312-.2898zm-1.2078124.9953.010156.035zm11.2796876 1.8031v.013zm-7.533596.2555.047656.01zm.225.015h-.054688zm-.225.01-.018748.023zm.7421876.1555-.010936.025zm-.25625 2.0976-.016408.018z" fill="#ffbf23"/></g></svg>