<svg height="16" viewBox="0 0 16 16" width="16" xmlns="http://www.w3.org/2000/svg"><rect fill="#4f4f4f" height="16" rx=".8" transform="matrix(0 -1 -1 0 0 0)" width="16" x="-16" y="-16"/><path d="m8.2148436 3.0009368c-.041702.00136-.084804.00553-.13125.01172-.5223796.0695776-.6657648.1959668-.985156.8664064-.215428.4522056-.3232008.7636015-.6007812.8232831-.1656773-.2499951-.3854596-.3537332-.5118173-.4750015-.8256058-.7923525-.8085121.8126459-1.0413079 1.3726567-.350178-.3072444-.8049504-.8023232-1.254654-1.1737428-.402062-.3320716-.8000724-.5332628-1.1156584-.3236792-.2500804.175358-.4625554.5515984-.5398438 1.4148436-.105588 1.1793224.0011 1.6176256.7500002 2.5942984.846848 1.1044132 1.5300952 2.2846775 3.5277788 3.6715465.8652796.60071 1.5904028 1.092187 1.6117188 1.092187.1198176 0-1.1580796-1.659972-1.9320312-2.509376-.9253886-1.0736131-1.3565756-2.2770504-.6280227-3.266079.847954-.3836698 1.3345651.4606213 1.8118823.8916559.4467564.482756.854978 1.1923455 1.2117188 1.6892671.4210417.39453 1.0673779.315983 1.3534095-.033061.6116865-.7464396.2214141-1.9053037-.4994231-2.8517669-.0810964-.3461388.0722012-.3988012.4265624-.3984372.4482222.00044 1.3990122.4742004 1.9104842.9171872.632066.547432.678483.6576392 1.382094 2.0531252.415334.8237407.827279 1.3921847.915625 1.5071997.157335.204838.160641.203704.163281-.05234-.132769-2.1321301-.812683-4.0743421-2.412562-5.5306409-.270629-.236558-1.164295-1.0134387-1.864391-1.4818771-1.020022-.6825056-1.2557444-.8190132-1.5476564-.8093752z" fill="#8e8e8e"/><ellipse cx=".92" cy="12.192" fill="#0ff" rx=".725" ry="1.067" transform="matrix(.4366245 -.89964384 .68883367 .72491943 0 0)"/></svg>