<svg height="16" width="16" xmlns="http://www.w3.org/2000/svg"><path d="m16 1.128775c-1.021967.5281129-2.248088 1.2218276-3.585938 1.23125-3.3812776.023814-7.3998204-1.4377283-10.1773432-1.49965-.8972803-.0200038-1.66180076.2905718-2.2367188.68125v13.658375c0 .4432.3568.8.8.8h14.4c.4432 0 .8-.3568.8-.8z" fill="#2c5a98"/><path d="m .8 0c-.4432 0-.8.3568-.8.8v.881625c.57491804-.3906782 1.3394385-.7012538 2.2367188-.68125 2.7775228.0619217 6.7960656 2.023064 10.1773432 1.99925 1.33785-.0094224 2.563971-.7031371 3.585938-1.23125v-.968375c0-.4432-.3568-.8-.8-.8z" fill="#28bae4"/><path d="m7.3910004 2.5996876-.1203124.00469.2976564.2148436.3140624.2828124-.03672.1570316c-.0204.1746764-.043637.505234-.050781.55968l-.0125.098438-.096875-.06875-.1765628-.06875.069531.1148436.069532.1140624h-.177344-.1773436v-.1125-.1117184l-.1695314.066406-.1703128.066406.058594.095312.057812.095312-.2289064.2203124-.2281248.1632816.084375.094531.084375.094531-.1492188-.0875-.15-.0875.196094-.21953.1953128-.2195332-.1031252-.010156c-.0566112-.005296-.2076088-.021796-.3359372-.03672l-.233594-.027344-.015624.2093748-.014844.2093752-.2765624.2609376-.2757812.260156-.2570312 1.039844c-.1412256.5717788-.279878 1.0669268-.308594 1.197656l-.0523432.2375008c.2571408.1080228.5429588.158412.7872092.1726544.0641992-.0402856.1522876-.2157696.1953124-.389844.0430248-.174074.110632-.2359372.1507812-.2359372h.073438l.010156.375c.0056396.2064756.0953588.6769096.1992184 1.0453124.1038632.3684028.1882812.7941152.1882812.9460936v.2765628l-.1156252.072656-.1156248.07266.1846656.10625.064844.10625-.1632812-.06406-.1625-.06328-.2578128.539844-.2570312.539062-.5578124.363281-.358594.364063.089844.403125.089062.403906-.018748.64375-.017968.644531.082031.135156.08281.13594h.2070312.4070312l.2546886-.133601.1585936-.210156-.2132812-.203125c-.0443984-.111989-.1059748-.529646-.1367188-.927344l-.055469-.722656.3109376-.539844.3117188-.539843.4757812-.469532.4757812-.4703122.071094-.6101564.071094-.6101564-.1375.078906-.136719.078125.1296876-.1429686.1296872-.1429684.26875.1406248c.1474872.077388.434178.26622.6375.4203124l.3695316.2804688v.2906252.2898436l.2820312.6250002c.1548112.343658.3147268.768911.35625.945312.041501.176402.122502.381438.1796872.455469l.1039064.134375.3195314-.09297c.175713-.05117.432201-.153493.569531-.228126.137332-.07463.715747-.27551 1.285938-.446093l1.036719-.310157.04766-.144531.04687-.144529h-.39375c-.216373 0-.552381.03238-.746875.07187l-.353125.07188.06094.1.06094.1-.177343-.06875-.176562-.06875-.457031.185938c-.251395.102144-.553243.185156-.670313.185156h-.2125002l-.1820366-.461719-.1820312-.461719-.072656-.6296872-.0734376-.630469-.4492188-.6117188c-.2471236-.3365388-.8114528-.7573828-1.0096844-.935156l-.3656248-.2968752c.1336756.00104.1473484.015292.2809608-.00392l-.0828124-.097656-.028124-.1445312.1421876.028908.1421876.028908-.030468-.1890624-.030468-.1890628.1726564-.0671872c.0615912-.0239932.1131756-.1177756.1437472-.1663964h-.1421876-.1703124v-.2325344c0-.095296.032616-.1734376.072656-.1734376.040018 0 .4597736.091165.5412236.202344l.147656.122378c.1608048-.1209208.546525-.1834124.731657-.25625l.075-.5304688c.0412788-.2916936-.014716-.5805844.02278-.6421876l.06875-.1117188-.1703124-.172656c-.0933088-.094746-.4337042-.1947672-.5130318-.2218752l-.1445312-.0492184.1468748-.1796876.030468-.1578124.014064-.5565556c-.030484-.1707984-.0731188-.2063412-.1515624-.3023436-.2057036-.1194576-.276322-.1457268-.5-.1242188l-.3523436-.004688-.2796876-.1984376c-.1198532-.0889876-.2798404-.2134968-.3460936-.2109368zm1.2093752 2.0440552h.1070312c.058832 0 .1070312.054595.1070312.1218748v.1226564l.1054688-.066406.10625-.066406.082031.135156.082812.1351564-.1312496-.082031-.039064.00236-.015624.2414064v.4195312l-.1906252.00703v.0008l-.2195312-.00938c-.00712-.047648.024328-.454196.00392-.6289064z" fill="#fff"/></svg>