<svg height="16" width="16" xmlns="http://www.w3.org/2000/svg"><path d="m8.0421174.00053198a1.7755407 1.8191449 0 0 0 -.9298488.24267798l-5.2244205 3.09037424a1.7755407 1.8191449 0 0 0 -.8878481 1.5755869v6.1811489a1.7755407 1.8191449 0 0 0  .8877704 1.575427l5.2244204 3.090534a1.7755407 1.8191449 0 0 0 1.7755407 0l5.2244205-3.090534a1.7755407 1.8191449 0 0 0  .887848-1.575587v-6.1811489a1.7755407 1.8191449 0 0 0 -.887848-1.5755869l-5.2244205-3.09037424a1.7755407 1.8191449 0 0 0 -.8458475-.24267798z" fill="#4f4f4f"/><path d="m8.0410156 0a1.7755407 1.8191449 0 0 0 -.9296875.24414062l-5.2226562 3.08984378a1.7755407 1.8191449 0 0 0 -.8886719 1.5742187v.1816407a1.7755407 1.8191449 0 0 0  .8886719 1.5761718l5.2226562 3.0898438a1.7755407 1.8191449 0 0 0 1.7773438 0l5.2226561-3.0898438a1.7755407 1.8191449 0 0 0  .888672-1.5761718v-.1816407a1.7755407 1.8191449 0 0 0 -.888672-1.5742187l-5.2226561-3.0917969a1.7755407 1.8191449 0 0 0 -.8457031-.2421875z" fill="#c2c2c2" opacity=".2"/><path d="m1.7382812 3.4316406a1.7755407 1.8191449 0 0 0 -.1367187.1152344 1.7755407 1.8191449 0 0 1  .1132813-.09375 1.7755407 1.8191449 0 0 1  .0234374-.0195312 1.7755407 1.8191449 0 0 1 0-.0019532zm-.7382812 1.6582032v6.0000002a1.7755407 1.8191449 0 0 0  .8886719 1.576172l5.2226562 3.089843a1.7755407 1.8191449 0 0 0  .8886719.242188v-6.0000001a1.7755407 1.8191449 0 0 1 -.8886719-.2421875l-5.2226562-3.0898438a1.7755407 1.8191449 0 0 1 -.8886719-1.5761718z" fill="#fff" opacity=".1"/><path d="m10.373746 1.1218776-9.373746 5.5663599v4.4023065a1.7755407 1.8191449 0 0 0  .012913.208593l13.245989-7.86556a1.7755407 1.8191449 0 0 0 -.146596-.099999l-3.73856-2.2117002z" fill="#00cbec"/><path d="m1.5253906 6.3769531-.5253906.3105469v4.402344a1.7755407 1.8191449 0 0 0  .0136719.208984l4.3457031-2.580078-3.4707031-2.0527344a1.7755407 1.8191449 0 0 1 -.3632813-.2890625z" fill="#00a7c2"/></svg>