<svg height="32" width="32" xmlns="http://www.w3.org/2000/svg"><g transform="translate(36.61017 -2.847457)"><rect fill="#4795d1" fill-rule="evenodd" height="28.203388" ry="5.575182" width="28.203388" x="-34.711864" y="4.745763"/><path d="m-20.61017 8.0338988c-5.972174 0-10.813559 4.8413852-10.813559 10.8135592s4.841385 10.813559 10.813559 10.813559 10.8135591-4.841385 10.8135591-10.813559-4.8413851-10.8135592-10.8135591-10.8135592zm-1.011659 2.1563762c.117658-.01232.265674.007.384388 0 .01407.05627-.08335.258178-.217538.551237-.854505 1.866732-.904987 4.052412-.111938 5.220922.143513.211858.274564.413099.274564.439301 0 .02621-.15448.05491-.329476.05491-.410807.000001-.800274-.249621-1.594577-.878602-.35286-.279411-.810706-.513603-.988428-.549125-.279077-.05576-.352829-.0316-.713864.329476-.335907.335852-.4393.518337-.4393.8258 0 1.165943 1.385029 2.090418 3.957931 2.635805 3.494103.740554 4.353653 1.404631 4.450034 3.241956.121007 2.303955-1.104421 4.040747-3.791083 5.38566-.320671.160573-.524408.224791-.658951.276674-.05963-.0053-.107411.0053-.16685 0-.02286-.07123-.05491-.235999-.05491-.549125 0-1.2237-.481277-2.484779-1.208077-3.189156-.195095-.189099-.740287-.589024-1.208078-.878601-.467774-.28956-.940279-.625263-1.045452-.768776-.17425-.238151-.186713-.383739-.0528-.82369.24404-.803516.533554-1.253728 1.098252-1.761427.296049-.266166.593367-.486803.658951-.492102.06561-.0053-.377479-.140461-1.04334-.276675-.665829-.136477-1.642238-.421778-2.145818-.604038-.920844-.333192-2.163935-1.033427-2.637916-1.539663-.02004-.02146-.0375-.03591-.05491-.05491.679105-2.705126 2.584658-4.92126 5.111095-5.989698.528627-.223589 1.074241-.376553 1.649491-.494214.286535-.05857.582745-.08186.878601-.111937zm8.245339 4.122669c.206566.127685.987547 1.816936 1.210189 2.640029.287445 1.062617.26664 2.900221 0 3.95582-.101485.401767-.23341.77691-.276675.823689-.04326.04678-.201934-.219941-.386501-.547015-.184578-.327022-.770908-1.022681-1.260877-1.539664-1.414278-1.49235-1.637867-2.270584-1.045452-3.461607.29876-.600594 1.599446-1.969915 1.759316-1.871252z" fill="#77c9e8" stroke-width="1.081356"/><g stroke-width=".666667" transform="matrix(.85714286 0 0 .85714286 21.670702 4.893463)"><circle cx="-42.525425" cy="23.457626" fill="#db3c30" r="7" stroke-width=".666667"/><path d="m-44.646518 19.922471-1.414062 1.414062 2.121094 2.121094-2.121094 2.121094 1.414062 1.414062 2.121094-2.121094 2.121094 2.121094 1.414062-1.414062-2.121094-2.121094 2.121094-2.121094-1.414062-1.414062-2.121094 2.121094z" fill="#fff" stroke-width=".666667"/></g></g></svg>