<svg height="64" width="64" xmlns="http://www.w3.org/2000/svg"><path d="m14.5 7.9999995c-1.385 0-2.5 1.115-2.5 2.5000005v45c0 1.385 1.115 2.5 2.5 2.5h35c1.385 0 2.5-1.115 2.5-2.5v-32.5l-13.75-1.25-1.25-13.7500005z" opacity=".2"/><path d="m14.5 7c-1.385 0-2.5 1.115-2.5 2.5v45c0 1.385 1.115 2.5 2.5 2.5h35c1.385 0 2.5-1.115 2.5-2.5v-32.5l-13.75-1.25-1.25-13.75z" fill="#4f4f4f"/><path d="m17 11c-.554 0-1 .446-1 1v6c0 .554.446 1 1 1h4c .554 0 1-.446 1-1v-6c0-.554-.446-1-1-1zm8.5 0c-.277 0-.5.223-.5.5v7c0 .277.223.5.5.5h1c .277 0 .5-.223.5-.5v-7c0-.277-.223-.5-.5-.5zm5 0c-.277 0-.5.223-.5.5v7c0 .277.223.5.5.5h1c .277 0 .5-.223.5-.5v-7c0-.277-.223-.5-.5-.5zm4.5 0c-.554 0-1 .446-1 1v6c0 .554.446 1 1 1h4c .554 0 1-.446 1-1v-6c0-.554-.446-1-1-1zm-17 2h2v4h-2zm18 0h2v4h-2zm-17.5 9c-.277 0-.5.223-.5.5v7c0 .277.223.5.5.5h1c .277 0 .5-.223.5-.5v-7c0-.277-.223-.5-.5-.5zm6.5 0c-.554 0-1 .446-1 1v6c0 .554.446 1 1 1h4c .554 0 1-.446 1-1v-6c0-.554-.446-1-1-1zm8.5 0c-.277 0-.5.223-.5.5v7c0 .277.223.5.5.5h1c .277 0 .5-.223.5-.5v-7c0-.277-.223-.5-.5-.5zm5 0c-.277 0-.5.223-.5.5v7c0 .277.223.5.5.5h1c .277 0 .5-.223.5-.5v-7c0-.277-.223-.5-.5-.5zm4.5 0c-.554 0-1 .446-1 1v6c0 .554.446 1 1 1h4c .554 0 1-.446 1-1v-6c0-.554-.446-1-1-1zm-17 2h2v4h-2zm18 0h2v4h-2zm-27 9c-.554 0-1 .446-1 1v6c0 .554.446 1 1 1h4c .554 0 1-.446 1-1v-6c0-.554-.446-1-1-1zm8 0c-.554 0-1 .446-1 1v6c0 .554.446 1 1 1h4c .554 0 1-.446 1-1v-6c0-.554-.446-1-1-1zm8.5 0c-.277 0-.5.223-.5.5v7c0 .277.223.5.5.5h1c .277 0 .5-.223.5-.5v-7c0-.277-.223-.5-.5-.5zm5 0c-.277 0-.5.223-.5.5v7c0 .277.223.5.5.5h1c .277 0 .5-.223.5-.5v-7c0-.277-.223-.5-.5-.5zm4.5 0c-.554 0-1 .446-1 1v6c0 .554.446 1 1 1h4c .554 0 1-.446 1-1v-6c0-.554-.446-1-1-1zm-25 2h2v4h-2zm8 0h2v4h-2zm18 0h2v4h-2zm-27 9c-.554 0-1 .446-1 1v6c0 .554.446 1 1 1h4c .554 0 1-.446 1-1v-6c0-.554-.446-1-1-1zm8.5 0c-.277 0-.5.223-.5.5v7c0 .277.223.5.5.5h1c .277 0 .5-.223.5-.5v-7c0-.277-.223-.5-.5-.5zm5 0c-.277 0-.5.223-.5.5v7c0 .277.223.5.5.5h1c .277 0 .5-.223.5-.5v-7c0-.277-.223-.5-.5-.5zm4.5 0c-.554 0-1 .446-1 1v6c0 .554.446 1 1 1h4c .554 0 1-.446 1-1v-6c0-.554-.446-1-1-1zm9.5 0c-.277 0-.5.223-.5.5v7c0 .277.223.5.5.5h1c .277 0 .5-.223.5-.5v-7c0-.277-.223-.5-.5-.5zm-26.5 2h2v4h-2zm18 0h2v4h-2z" fill="#fff" opacity=".5"/><path d="m37 7.9999995v12.5000005c0 1.3808 1.1193 2.5 2.5 2.5h12.5z" opacity=".2"/><path d="m37 7v12.5c0 1.3808 1.1193 2.5 2.5 2.5h12.5z" fill="#696969"/><path d="m14.5 6.9999995c-1.385 0-2.5 1.115-2.5 2.5v1.0000005c0-1.3850005 1.115-2.5000005 2.5-2.5000005h22.5c0-1 0 0 0-1z" fill="#fff" opacity=".1"/></svg>