<svg height="32" viewBox="0 0 32 32" width="32" xmlns="http://www.w3.org/2000/svg"><rect fill="#252a35" fill-rule="evenodd" height="28.203388" ry="5.575182" width="28.203388" x="1.898306" y="1.898306"/><path d="m14 7v1.259766a8 8 0 0 0 -2.056641.855468l-.892578-.892578-2.828124 2.828125.892578.892578a8 8 0 0 0 -.84961 2.056641h-1.265625v4h1.259766a8 8 0 0 0  .855469 2.056641l-.892578.892578 2.828124 2.828125.892578-.892578a8 8 0 0 0 2.056641.849609v1.265625h4v-1.259766a8 8 0 0 0 2.056641-.855468l.892578.892578 2.828125-2.828125-.892578-.892578a8 8 0 0 0  .849609-2.056641h1.265625v-4h-1.259766a8 8 0 0 0 -.855468-2.056641l.892578-.892578-2.828125-2.828125-.892578.892578a8 8 0 0 0 -2.056641-.849609v-1.265625zm2 5a4 4 0 0 1 4 4 4 4 0 0 1 -4 4 4 4 0 0 1 -4-4 4 4 0 0 1 4-4z" fill="#fff"/></svg>