<svg height="12pt" viewBox="0 0 12 12" width="12pt" xmlns="http://www.w3.org/2000/svg"><path d="m6 1.636719c-1.207031 0-2.183594.972656-2.183594 2.179687v.546875h1.09375v-.546875c0-.601562.484375-1.089844 1.089844-1.089844s1.089844.488282 1.089844 1.089844v2.183594h-3.816406c-.304688 0-.546876.242188-.546876.546875v3.269531c0 .304688.242188.546875.546876.546875h5.453124c.304688 0 .546876-.242187.546876-.546875v-3.269531c0-.304687-.242188-.546875-.546876-.546875h-.542968v-2.183594c0-1.207031-.976563-2.179687-2.183594-2.179687zm0 0" fill="#d1d9e3"/></svg>