<svg height="12pt" viewBox="0 0 12 12" width="12pt" xmlns="http://www.w3.org/2000/svg"><path d="m2.726562 2.183594c-.605468 0-1.089843.484375-1.089843 1.089844v5.453124c0 .605469.484375 1.089844 1.089843 1.089844h6.546876c.605468 0 1.089843-.484375 1.089843-1.089844v-5.453124c0-.605469-.484375-1.089844-1.089843-1.089844zm0 1.089844h2.183594c.363282.011718.636719.457031.476563.785156l-.75 1.515625c.195312.0625.410156.105469.527343.242187.183594.195313.289063.441406.289063.730469v1.089844c0 .605469-.492187 1.089843-1.089844 1.089843h-1.636719v-1.089843h1.636719v-1.089844h-.546875c-.363281-.011719-.632812-.460937-.472656-.785156l.679688-1.398438h-1.296876zm4.363282 0h1.09375c1.089844 0 1.089844 1.089843 1.089844 1.089843v.546875h-1.089844v-.546875h-1.09375v3.273438h1.09375v-1.089844h-.546875v-1.09375h1.636719v2.183594s0 1.089843-1.089844 1.089843h-1.09375s-1.089844 0-1.089844-1.089843v-3.273438c0-1.089843 1.089844-1.089843 1.089844-1.089843zm0 0" fill="#d1d9e3"/></svg>