<svg height="32" width="32" xmlns="http://www.w3.org/2000/svg" xmlns:xlink="http://www.w3.org/1999/xlink"><radialGradient id="a" cx="15.959587" cy="15.968227" gradientTransform="matrix(.94086654 0 0 .94283972 .984158 .944521)" gradientUnits="userSpaceOnUse" r="5.990716"><stop offset="0" stop-color="#99efff"/><stop offset="1" stop-color="#4d86cb" stop-opacity="0"/></radialGradient><rect fill="#4d6682" fill-rule="evenodd" height="28" ry="5.534977" width="28" x="2" y="2"/><path d="m16 5.2689443c-5.945005 0-10.7310563 4.7860507-10.7310563 10.7310557s4.7860513 10.731056 10.7310563 10.731056c5.945004 0 10.731055-4.786051 10.731055-10.731056s-4.786051-10.7310557-10.731055-10.7310557z" fill="#2b2d2c" stroke-width=".782082"/><path d="m16 7.195883c-4.877481 0-8.8041168 3.926636-8.8041168 8.804117 0 4.87748 3.9266358 8.804116 8.8041168 8.804116 4.87748 0 8.804115-3.926635 8.804115-8.804116s-3.926635-8.804117-8.804115-8.804117z" fill="#1b1d1c" stroke-width=".782082"/><path d="m15.999128 23.272485c-4.014677 0-7.2716144-3.256936-7.2716144-7.271614 0-4.014677 3.2569374-7.2733567 7.2716144-7.2733567 4.014676 0 7.273357 3.2586797 7.273357 7.2733567 0 4.014678-3.258681 7.271614-7.273357 7.271614zm0-.303202c3.850739 0 6.970154-3.117673 6.970154-6.968412 0-3.85074-3.119415-6.9701551-6.970154-6.9701551-3.85074 0-6.9684126 3.1194151-6.9684126 6.9701551 0 3.850739 3.1176726 6.968412 6.9684126 6.968412z" fill="#5a5d66"/><circle cx="15.999999" cy="15.999999" fill="#010729" r="5.989647" stroke-width="1.527845"/><path d="m15.475057 21.861174c-.740601-.06597-1.950928-.427231-2.018137-.602378-.06165-.160641-.126299-1.174374-.127822-2.00403-.0017-.917463.03893-1.448429.158584-2.073832.05688-.29736.08489-.339712.224618-.339712.120303 0 .153996.03347.326149.323966.337459.56945 1.015234 1.335391 1.63971 1.853014.685378.568102 1.382895 1.013876 2.422915 1.548456.364165.187183.676104.363588.693198.392012.0171.02843.02107.09159.0087.140351-.01831.073-.075.113658-.320636.229996-.919187.435366-1.982259.623476-3.007408.532158zm-2.782622-.992197c-1.169877-.783246-2.057205-2.05908-2.412378-3.468605-.07442-.295331-.151987-.847259-.129168-.919134.02123-.06689.285017-.27025.824962-.635992.916269-.620648 1.931427-1.145398 2.805671-1.45029.196109-.06839.311666-.0482.362492.06335.03268.07174.01008.134338-.203085.559616-.438951.876175-.687831 1.769214-.812974 2.917147-.06164.565427-.0705 1.897679-.01661 2.49905.03119.348225.02936.411982-.01378.477848-.07183.109623-.196974.09635-.405103-.043zm6.090984-.248109c-1.087684-.501392-2.022499-1.061689-2.769904-1.660187-.410382-.328619-.469753-.388889-.469753-.476864 0-.16606.08997-.197075.643254-.221772 1.524894-.06807 3.148829-.686515 4.939971-1.881312.393797-.262686.499242-.318902.582912-.310765.156897.01523.184075.107328.146378.495884-.09361.964857-.436566 1.906507-1.003914 2.756497-.381208.57112-1.354874 1.50716-1.562257 1.501887-.03814-.000967-.266138-.09249-.506681-.203368zm-.903091-3.052981c-.07749-.09852-.08527-.07386.203658-.645672.638755-1.264162.923656-2.941268.822761-4.843286-.05121-.965476-.0511-.970712.02227-1.024356.09653-.07059.182231-.05356.373187.07414 1.165708.779603 2.044297 2.03129 2.397885 3.416161.08666.339386.168548.893304.143656.971709-.02128.06705-.286433.271166-.826583.636305-.907604.613538-1.847434 1.103763-2.723609 1.420663-.271413.09816-.332202.09734-.413222-.0057zm-7.714595-1.682608c-.07724-.09306-.02959-.664426.102656-1.230823.23232-.995088.745299-1.945484 1.443172-2.673774.36832-.384369.820121-.766844.942432-.797821.117127-.02966 1.100572.424228 1.83935.848924.647868.372436 1.511851.983001 1.868443 1.32041.105916.100204.114485.216352.02214.299918-.05641.05105-.144823.06426-.562059.08391-1.533899.07223-3.252889.729915-5.016441 1.919296-.423434.285571-.554451.332673-.639687.229968zm7.963181-.785371c-.02695-.03117-.102623-.149475-.168158-.262876-.221574-.383443-.580233-.828508-1.037957-1.288029-.866363-.869763-1.725898-1.461913-3.223897-2.221011-.257404-.130431-.481872-.260413-.498819-.288838-.01696-.02843-.0208-.09158-.0086-.140351.01831-.073.075-.113658.320638-.229996 1.119192-.530095 2.426402-.6861264 3.653418-.436077.597512.121762 1.33751.397591 1.371988.511393.08049.265695.160997 1.676584.136298 2.388803-.02936.847011-.158989 1.86924-.25108 1.980216-.05171.06231-.235728.05403-.293881-.0133z" fill="url(#a)"/><g fill="#5a5d66"><path d="m15.999194 22.738555c-3.719929 0-6.7377496-3.017819-6.7377496-6.737748 0-3.719928 3.0178206-6.7393619 6.7377496-6.7393619 3.719926 0 6.739361 3.0194339 6.739361 6.7393619 0 3.719929-3.019435 6.737748-6.739361 6.737748zm0-.280942c3.568024 0 6.458419-2.888778 6.458419-6.456806 0-3.568025-2.890395-6.4584202-6.458419-6.4584202-3.568028 0-6.4568083 2.8903952-6.4568083 6.4584202 0 3.568028 2.8887803 6.456806 6.4568083 6.456806z"/><path d="m15.99925 22.250571c-3.450543 0-6.249822-2.799279-6.249822-6.249822s2.799279-6.2513198 6.249823-6.2513198c3.450542 0 6.25132 2.8007768 6.25132 6.2513198s-2.800778 6.249822-6.251321 6.249822zm0-.260596c3.309641 0 5.990725-2.679585 5.990725-5.989226s-2.681084-5.990724-5.990725-5.990724-5.989226 2.681083-5.989226 5.990724 2.679585 5.989226 5.989226 5.989226z"/><path d="m15.999061 23.8363c-4.325922 0-7.8353612-3.509437-7.8353612-7.835361 0-4.325922 3.5094392-7.8372385 7.8353612-7.8372385s7.837239 3.5113165 7.837239 7.8372385c0 4.325924-3.511317 7.835361-7.837239 7.835361zm0-.326708c4.149276 0 7.51053-3.359377 7.51053-7.508653 0-4.149277-3.361254-7.5105306-7.51053-7.5105306s-7.5086531 3.3612536-7.5086531 7.5105306c0 4.149276 3.3593771 7.508653 7.5086531 7.508653z"/></g></svg>