<svg height="32" width="32" xmlns="http://www.w3.org/2000/svg"><g fill-rule="evenodd"><path d="m17.027344 5.7753906a3.0676644 3.0676644 0 0 0 -.216797.0058594 3.0676644 3.0676644 0 0 0 -.304688.0371094 3.0676644 3.0676644 0 0 0 -.298828.0683594 3.0676644 3.0676644 0 0 0 -.291015.0957031 3.0676644 3.0676644 0 0 0 -.279297.125 3.0676644 3.0676644 0 0 0 -.265625.1542969 3.0676644 3.0676644 0 0 0 -.25.1777343 3.0676644 3.0676644 0 0 0 -.230469.2011719 3.0676644 3.0676644 0 0 0 -.208984.2246094 3.0676644 3.0676644 0 0 0 -.185547.2441406 3.0676644 3.0676644 0 0 0 -.160156.2617188 3.0676644 3.0676644 0 0 0 -.132813.2773437 3.0676644 3.0676644 0 0 0 -.105469.2871094 3.0676644 3.0676644 0 0 0 -.076172.296875 3.0676644 3.0676644 0 0 0 -.046875.3027343 3.0676644 3.0676644 0 0 0 -.013671.3066407 3.0676644 3.0676644 0 0 0  .005859.2167969 3.0676644 3.0676644 0 0 0  .037109.3046874 3.0676644 3.0676644 0 0 0  .06836.2988282 3.0676644 3.0676644 0 0 0  .095703.2910156 3.0676644 3.0676644 0 0 0  .125.28125 3.0676644 3.0676644 0 0 0  .154297.265625 3.0676644 3.0676644 0 0 0  .177734.248047 3.0676644 3.0676644 0 0 0  .201172.230469 3.0676644 3.0676644 0 0 0  .224609.208984 3.0676644 3.0676644 0 0 0  .244141.185547 3.0676644 3.0676644 0 0 0  .261719.162109 3.0676644 3.0676644 0 0 0  .277343.132813 3.0676644 3.0676644 0 0 0  .28711.105469 3.0676644 3.0676644 0 0 0  .296875.074218 3.0676644 3.0676644 0 0 0  .302734.046875 3.0676644 3.0676644 0 0 0  .306641.015625 3.0676644 3.0676644 0 0 0  .216797-.007812 3.0676644 3.0676644 0 0 0  .304687-.03711 3.0676644 3.0676644 0 0 0  .298828-.066406 3.0676644 3.0676644 0 0 0  .291016-.097656 3.0676644 3.0676644 0 0 0  .28125-.125 3.0676644 3.0676644 0 0 0  .265625-.152344 3.0676644 3.0676644 0 0 0  .248047-.179687 3.0676644 3.0676644 0 0 0  .230468-.201172 3.0676644 3.0676644 0 0 0  .208985-.22461 3.0676644 3.0676644 0 0 0  .185547-.24414 3.0676644 3.0676644 0 0 0  .162109-.261719 3.0676644 3.0676644 0 0 0  .132813-.275391 3.0676644 3.0676644 0 0 0  .105468-.2890621 3.0676644 3.0676644 0 0 0  .076172-.296875 3.0676644 3.0676644 0 0 0  .044922-.3027344 3.0676644 3.0676644 0 0 0  .015625-.3066406 3.0676644 3.0676644 0 0 0 -.007812-.2167969 3.0676644 3.0676644 0 0 0 -.03711-.3046875 3.0676644 3.0676644 0 0 0 -.066406-.2988281 3.0676644 3.0676644 0 0 0 -.097656-.2910156 3.0676644 3.0676644 0 0 0 -.125-.2792969 3.0676644 3.0676644 0 0 0 -.152344-.265625 3.0676644 3.0676644 0 0 0 -.179687-.25 3.0676644 3.0676644 0 0 0 -.201172-.2304688 3.0676644 3.0676644 0 0 0 -.22461-.2089843 3.0676644 3.0676644 0 0 0 -.24414-.1855469 3.0676644 3.0676644 0 0 0 -.261719-.1601563 3.0676644 3.0676644 0 0 0 -.275391-.1328125 3.0676644 3.0676644 0 0 0 -.289062-.1054687 3.0676644 3.0676644 0 0 0 -.296875-.0761719 3.0676644 3.0676644 0 0 0 -.302735-.046875 3.0676644 3.0676644 0 0 0 -.30664-.0136719z" fill="#fff"/><path d="m15.507812 1.8984375c-.473777.0757108-.978215.081817-1.412109.2363281-.828768.2951269-1.574448.7308562-2.201172 1.2890625s-1.133907 1.2381056-1.484375 2.0273438c-.350468.7892381-.5449216 1.6875587-.5449216 2.6757812 0 .9882226.2111106 1.8679785.5761716 2.6484379.365062.780458.885131 1.461856 1.50586 2.048828s1.340418 1.080518 2.107422 1.488281c.767001.407763 1.580884.729825 2.384765.972656.786013.237427 1.632977.600364 2.462891 1.074219.829913.473855 1.641924 1.058532 2.355468 1.736328.713546.677797 1.328718 1.447623 1.765626 2.296875.436907.849253.695312 1.777403.695312 2.765625 0 .988223-.192461 1.928813-.542969 2.785156-.350508.856344-.857619 1.627711-1.484375 2.275391s-1.374381 1.172924-2.203125 1.535156c-.512258.223901-1.09954.256551-1.666015.347656h.982422 5.722656c3.088651.000001 5.57422-2.485567 5.574218-5.574218v-6.261719-4.53125-6.2617188c.000001-3.0886507-2.485567-5.5742187-5.574218-5.5742187h-5.722656zm1.519532 3.8769531a3.0676644 3.0676644 0 0 1  .30664.0136719 3.0676644 3.0676644 0 0 1  .302735.046875 3.0676644 3.0676644 0 0 1  .296875.0761719 3.0676644 3.0676644 0 0 1  .289062.1054687 3.0676644 3.0676644 0 0 1  .275391.1328125 3.0676644 3.0676644 0 0 1  .261719.1601563 3.0676644 3.0676644 0 0 1  .24414.1855469 3.0676644 3.0676644 0 0 1  .22461.2089843 3.0676644 3.0676644 0 0 1  .201172.2304688 3.0676644 3.0676644 0 0 1  .179687.25 3.0676644 3.0676644 0 0 1  .152344.265625 3.0676644 3.0676644 0 0 1  .125.2792969 3.0676644 3.0676644 0 0 1  .097656.2910156 3.0676644 3.0676644 0 0 1  .066406.2988281 3.0676644 3.0676644 0 0 1  .03711.3046875 3.0676644 3.0676644 0 0 1  .007812.2167969 3.0676644 3.0676644 0 0 1 -.015625.3066406 3.0676644 3.0676644 0 0 1 -.044922.3027344 3.0676644 3.0676644 0 0 1 -.076172.296875 3.0676644 3.0676644 0 0 1 -.105468.2890621 3.0676644 3.0676644 0 0 1 -.132813.275391 3.0676644 3.0676644 0 0 1 -.162109.261719 3.0676644 3.0676644 0 0 1 -.185547.24414 3.0676644 3.0676644 0 0 1 -.208985.22461 3.0676644 3.0676644 0 0 1 -.230468.201172 3.0676644 3.0676644 0 0 1 -.248047.179687 3.0676644 3.0676644 0 0 1 -.265625.152344 3.0676644 3.0676644 0 0 1 -.28125.125 3.0676644 3.0676644 0 0 1 -.291016.097656 3.0676644 3.0676644 0 0 1 -.298828.066406 3.0676644 3.0676644 0 0 1 -.304687.03711 3.0676644 3.0676644 0 0 1 -.216797.007812 3.0676644 3.0676644 0 0 1 -.306641-.015625 3.0676644 3.0676644 0 0 1 -.302734-.046875 3.0676644 3.0676644 0 0 1 -.296875-.074218 3.0676644 3.0676644 0 0 1 -.28711-.105469 3.0676644 3.0676644 0 0 1 -.277343-.132813 3.0676644 3.0676644 0 0 1 -.261719-.162109 3.0676644 3.0676644 0 0 1 -.244141-.185547 3.0676644 3.0676644 0 0 1 -.224609-.208984 3.0676644 3.0676644 0 0 1 -.201172-.230469 3.0676644 3.0676644 0 0 1 -.177734-.248047 3.0676644 3.0676644 0 0 1 -.154297-.265625 3.0676644 3.0676644 0 0 1 -.125-.28125 3.0676644 3.0676644 0 0 1 -.095703-.2910156 3.0676644 3.0676644 0 0 1 -.06836-.2988282 3.0676644 3.0676644 0 0 1 -.037109-.3046874 3.0676644 3.0676644 0 0 1 -.005859-.2167969 3.0676644 3.0676644 0 0 1  .013671-.3066407 3.0676644 3.0676644 0 0 1  .046875-.3027343 3.0676644 3.0676644 0 0 1  .076172-.296875 3.0676644 3.0676644 0 0 1  .105469-.2871094 3.0676644 3.0676644 0 0 1  .132813-.2773437 3.0676644 3.0676644 0 0 1  .160156-.2617188 3.0676644 3.0676644 0 0 1  .185547-.2441406 3.0676644 3.0676644 0 0 1  .208984-.2246094 3.0676644 3.0676644 0 0 1  .230469-.2011719 3.0676644 3.0676644 0 0 1  .25-.1777343 3.0676644 3.0676644 0 0 1  .265625-.1542969 3.0676644 3.0676644 0 0 1  .279297-.125 3.0676644 3.0676644 0 0 1  .291015-.0957031 3.0676644 3.0676644 0 0 1  .298828-.0683594 3.0676644 3.0676644 0 0 1  .304688-.0371094 3.0676644 3.0676644 0 0 1  .216797-.0058594z" fill="#f65e5e"/><path d="m16.492188 30.101562h1.330078c.566475-.091105 1.153757-.123755 1.666015-.347656.828744-.362232 1.576369-.887476 2.203125-1.535156s1.133867-1.419047 1.484375-2.275391c.350508-.856343.542969-1.796933.542969-2.785156 0-.988222-.258405-1.916372-.695312-2.765625-.436908-.849252-1.052079-1.619078-1.765626-2.296875-.713544-.677796-1.525555-1.262473-2.355468-1.736328-.829914-.473855-1.676878-.836792-2.462891-1.074219-.803881-.242831-1.617764-.564893-2.384765-.972656-.767004-.407763-1.486693-.901309-2.107422-1.488281s-1.140798-1.26837-1.50586-2.048828c-.365061-.7804594-.5761716-1.6602153-.5761716-2.6484379 0-.9882225.1944536-1.8865431.5449216-2.6757812.350468-.7892382.857651-1.4691375 1.484375-2.0273438s1.372404-.9939356 2.201172-1.2890625c.433894-.1545111.938331-.1606173 1.412109-.2363281h-1.330078c-.566051.0911414-1.154113.1239111-1.666015.3476563-.828744.362232-1.574416.8874764-2.201172 1.5351562-.6267559.6476798-1.1338673 1.4190473-1.4843751 2.2753906-.3505079.8563434-.5449219 1.7969336-.5449219 2.7851563 0 .9882994.2584068 1.9163771.6953125 2.7656251s1.0521115 1.619113 1.7656255 2.296875c.713513.677762 1.525646 1.262486 2.355468 1.736328.829823.473842 1.677058.83673 2.462891 1.074219.803881.242831 1.617763.564893 2.384765.972656.767003.407763 1.486693.901309 2.107422 1.488281.62073.586972 1.140798 1.26837 1.50586 2.048828.365061.780459.576172 1.660215.576172 2.648438 0 .988222-.194414 1.886543-.544922 2.675781s-.857619 1.469137-1.484375 2.027344c-.626756.558206-1.372428.993935-2.201172 1.289062-.433882.154511-.938369.160618-1.412109.236328z" fill="#fff"/><path d="m7.4726562 1.8984375c-3.0886507 0-5.5742187 2.485568-5.5742187 5.5742187v6.2617188 4.53125 6.261719c0 3.088651 2.485568 5.57422 5.5742187 5.574218h5.7226558 3.296876c.47374-.07571.978227-.081817 1.412109-.236328.828744-.295127 1.574416-.730856 2.201172-1.289062.626756-.558207 1.133867-1.238106 1.484375-2.027344s.544922-1.687559.544922-2.675781c0-.988223-.211111-1.867979-.576172-2.648438-.365062-.780458-.88513-1.461856-1.50586-2.048828-.620729-.586972-1.340419-1.080518-2.107422-1.488281-.767002-.407763-1.580884-.729825-2.384765-.972656-.785833-.237489-1.633068-.600377-2.462891-1.074219-.829822-.473842-1.641956-1.058566-2.355468-1.736328-.713514-.677762-1.3287198-1.447627-1.7656255-2.296875s-.6953125-1.7773257-.6953125-2.7656251c0-.9882227.194414-1.9288129.5449219-2.7851563.3505078-.8563433.8576191-1.6277108 1.4843751-2.2753906s1.372428-1.1729242 2.201172-1.5351562c.511902-.2237453 1.099964-.2565149 1.666015-.3476563h-.982422z" fill="#8d62ad"/><path d="m14.982422 20.089844a3.0676644 3.0676644 0 0 0 -.216797.007812 3.0676644 3.0676644 0 0 0 -.304687.03711 3.0676644 3.0676644 0 0 0 -.298829.066406 3.0676644 3.0676644 0 0 0 -.291015.097656 3.0676644 3.0676644 0 0 0 -.279297.125 3.0676644 3.0676644 0 0 0 -.267578.152344 3.0676644 3.0676644 0 0 0 -.248047.179687 3.0676644 3.0676644 0 0 0 -.230469.201172 3.0676644 3.0676644 0 0 0 -.208984.22461 3.0676644 3.0676644 0 0 0 -.185547.24414 3.0676644 3.0676644 0 0 0 -.160156.261719 3.0676644 3.0676644 0 0 0 -.134766.275391 3.0676644 3.0676644 0 0 0 -.103516.289062 3.0676644 3.0676644 0 0 0 -.076172.296875 3.0676644 3.0676644 0 0 0 -.046874.302734 3.0676644 3.0676644 0 0 0 -.015626.306641 3.0676644 3.0676644 0 0 0  .007813.216797 3.0676644 3.0676644 0 0 0  .037109.304688 3.0676644 3.0676644 0 0 0  .06836.298828 3.0676644 3.0676644 0 0 0  .095703.291015 3.0676644 3.0676644 0 0 0  .125.279297 3.0676644 3.0676644 0 0 0  .152344.265625 3.0676644 3.0676644 0 0 0  .179687.25 3.0676644 3.0676644 0 0 0  .201172.230469 3.0676644 3.0676644 0 0 0  .224609.208984 3.0676644 3.0676644 0 0 0  .244141.185547 3.0676644 3.0676644 0 0 0  .261719.160156 3.0676644 3.0676644 0 0 0  .27539.132813 3.0676644 3.0676644 0 0 0  .289063.105469 3.0676644 3.0676644 0 0 0  .296875.076171 3.0676644 3.0676644 0 0 0  .302734.046876 3.0676644 3.0676644 0 0 0  .306641.013671 3.0676644 3.0676644 0 0 0  .216797-.005859 3.0676644 3.0676644 0 0 0  .304687-.037109 3.0676644 3.0676644 0 0 0  .298828-.06836 3.0676644 3.0676644 0 0 0  .291016-.095703 3.0676644 3.0676644 0 0 0  .28125-.125 3.0676644 3.0676644 0 0 0  .265625-.154297 3.0676644 3.0676644 0 0 0  .248047-.177734 3.0676644 3.0676644 0 0 0  .230469-.201172 3.0676644 3.0676644 0 0 0  .208984-.224609 3.0676644 3.0676644 0 0 0  .185547-.244141 3.0676644 3.0676644 0 0 0  .160156-.261719 3.0676644 3.0676644 0 0 0  .134766-.277344 3.0676644 3.0676644 0 0 0  .105468-.287109 3.0676644 3.0676644 0 0 0  .074219-.296875 3.0676644 3.0676644 0 0 0  .046875-.302734 3.0676644 3.0676644 0 0 0  .015625-.306641 3.0676644 3.0676644 0 0 0 -.007812-.216797 3.0676644 3.0676644 0 0 0 -.03711-.304687 3.0676644 3.0676644 0 0 0 -.068359-.298828 3.0676644 3.0676644 0 0 0 -.095703-.291016 3.0676644 3.0676644 0 0 0 -.125-.28125 3.0676644 3.0676644 0 0 0 -.152344-.265625 3.0676644 3.0676644 0 0 0 -.179687-.248047 3.0676644 3.0676644 0 0 0 -.201172-.230469 3.0676644 3.0676644 0 0 0 -.22461-.208984 3.0676644 3.0676644 0 0 0 -.24414-.185547 3.0676644 3.0676644 0 0 0 -.261719-.162109 3.0676644 3.0676644 0 0 0 -.275391-.132813 3.0676644 3.0676644 0 0 0 -.289062-.105469 3.0676644 3.0676644 0 0 0 -.296875-.074218 3.0676644 3.0676644 0 0 0 -.302735-.046875 3.0676644 3.0676644 0 0 0 -.30664-.015625z" fill="#fff"/><path d="m14.982422 20.089844a3.0676644 3.0676644 0 0 1  .30664.015625 3.0676644 3.0676644 0 0 1  .302735.046875 3.0676644 3.0676644 0 0 1  .296875.074218 3.0676644 3.0676644 0 0 1  .289062.105469 3.0676644 3.0676644 0 0 1  .275391.132813 3.0676644 3.0676644 0 0 1  .261719.162109 3.0676644 3.0676644 0 0 1  .24414.185547 3.0676644 3.0676644 0 0 1  .22461.208984 3.0676644 3.0676644 0 0 1  .201172.230469 3.0676644 3.0676644 0 0 1  .179687.248047 3.0676644 3.0676644 0 0 1  .152344.265625 3.0676644 3.0676644 0 0 1  .125.28125 3.0676644 3.0676644 0 0 1  .095703.291016 3.0676644 3.0676644 0 0 1  .068359.298828 3.0676644 3.0676644 0 0 1  .03711.304687 3.0676644 3.0676644 0 0 1  .007812.216797 3.0676644 3.0676644 0 0 1 -.015625.306641 3.0676644 3.0676644 0 0 1 -.046875.302734 3.0676644 3.0676644 0 0 1 -.074219.296875 3.0676644 3.0676644 0 0 1 -.105468.287109 3.0676644 3.0676644 0 0 1 -.134766.277344 3.0676644 3.0676644 0 0 1 -.160156.261719 3.0676644 3.0676644 0 0 1 -.185547.244141 3.0676644 3.0676644 0 0 1 -.208984.224609 3.0676644 3.0676644 0 0 1 -.230469.201172 3.0676644 3.0676644 0 0 1 -.248047.177734 3.0676644 3.0676644 0 0 1 -.265625.154297 3.0676644 3.0676644 0 0 1 -.28125.125 3.0676644 3.0676644 0 0 1 -.291016.095703 3.0676644 3.0676644 0 0 1 -.298828.06836 3.0676644 3.0676644 0 0 1 -.304687.037109 3.0676644 3.0676644 0 0 1 -.216797.005859 3.0676644 3.0676644 0 0 1 -.306641-.013671 3.0676644 3.0676644 0 0 1 -.302734-.046876 3.0676644 3.0676644 0 0 1 -.296875-.076171 3.0676644 3.0676644 0 0 1 -.289063-.105469 3.0676644 3.0676644 0 0 1 -.27539-.132813 3.0676644 3.0676644 0 0 1 -.261719-.160156 3.0676644 3.0676644 0 0 1 -.244141-.185547 3.0676644 3.0676644 0 0 1 -.224609-.208984 3.0676644 3.0676644 0 0 1 -.201172-.230469 3.0676644 3.0676644 0 0 1 -.179687-.25 3.0676644 3.0676644 0 0 1 -.152344-.265625 3.0676644 3.0676644 0 0 1 -.125-.279297 3.0676644 3.0676644 0 0 1 -.095703-.291015 3.0676644 3.0676644 0 0 1 -.06836-.298828 3.0676644 3.0676644 0 0 1 -.037109-.304688 3.0676644 3.0676644 0 0 1 -.007813-.216797 3.0676644 3.0676644 0 0 1  .015626-.306641 3.0676644 3.0676644 0 0 1  .046874-.302734 3.0676644 3.0676644 0 0 1  .076172-.296875 3.0676644 3.0676644 0 0 1  .103516-.289062 3.0676644 3.0676644 0 0 1  .134766-.275391 3.0676644 3.0676644 0 0 1  .160156-.261719 3.0676644 3.0676644 0 0 1  .185547-.24414 3.0676644 3.0676644 0 0 1  .208984-.22461 3.0676644 3.0676644 0 0 1  .230469-.201172 3.0676644 3.0676644 0 0 1  .248047-.179687 3.0676644 3.0676644 0 0 1  .267578-.152344 3.0676644 3.0676644 0 0 1  .279297-.125 3.0676644 3.0676644 0 0 1  .291015-.097656 3.0676644 3.0676644 0 0 1  .298829-.066406 3.0676644 3.0676644 0 0 1  .304687-.03711 3.0676644 3.0676644 0 0 1  .216797-.007812z" fill="#fff"/></g></svg>