<svg height="32" width="32" xmlns="http://www.w3.org/2000/svg"><rect fill="#e32e2e" fill-rule="evenodd" height="28.203388" ry="5.575182" width="28.203388" x="1.898306" y="1.898306"/><path d="m13.16896 8.4595683c-4.9402122 2.2865357-6.2602632 6.0268067-5.3855732 9.8641337 1.992172 8.739831 8.7582722 7.083109 9.9344842 6.885866 1.948524-.32676 5.843426-1.258336 6.628089-6.120145.801844-4.968268-2.438603-6.934278-4.39283-7.365494-2.454915-.541697-4.467518-.199375-5.58317 1.531442-1.035117 1.605875-1.121361 3.590198-.468 4.922479.596436 1.216211 1.151194 1.261003 2.074519 1.281718 3.183455.07142 3.61465-1.387968 3.267045-3.25071-.804333-3.964226-2.661363-5.08793-2.022377-8.1511846.653452-2.0633633 2.799353-1.7760777 4.247813-.5982102" fill="none" stroke="#fff" stroke-linecap="round" stroke-linejoin="round" stroke-width="3"/></svg>