<svg height="32" width="32" xmlns="http://www.w3.org/2000/svg"><rect fill="#1ed760" fill-rule="evenodd" height="28.203388" ry="5.575182" width="28.203388" x="1.898306" y="1.898306"/><path d="m14.057333 10.000023c-1.6961-.0002133-3.3361.17367-4.7344.52083-.71826.17833-.7716.19912-.97135.36719-.24577.20682-.35141.43382-.35156.76042-.0002.40444.19305.71632.55729.89583.29819.146939.49142.141769 1.1432-.02344.65916-.16705 1.5934-.32732 2.4115-.41406.83189-.08813 3.4573-.07349 4.2969.02344 2.2759.26293 3.898.695429 5.4688 1.458299.4019.19519.80017.37126.88542.39062.44964.10289.98508-.17244 1.1719-.60156.09301-.21363.08464-.60685-.01563-.817709-.12385-.26058-.37686-.44713-1.0495-.77344-1.1427-.55438-2.3723-.97109-3.7448-1.2656-1.6195-.34753-3.3716-.52062-5.0677-.52083zm-.67916 4.003899c-.30195.0044-.56226.01476-.73828.03255-1.1406.11503-2.621.42889-3.0911.65625-.49458.23917-.6693 1.00816-.36458 1.50073.11679.18881.46562.39844.66406.39844.07478 0 .43412-.08368.79948-.1849 1.0658-.29531 1.7796-.3918 3.0807-.41667.84345-.01588 1.58435-.0022 2.07625.05468 2.0889.24128 3.924665.652055 5.695765 1.694615.24353.14329.49504.26057.5599.26042.5272-.0012.98595-.65235.89583-1.17783-.07875-.45896-.27629-.65078-1.1823-1.1562-1.5003-.83705-3.446965-1.273515-5.404165-1.561815-.33531-.04932-1.0177-.08263-1.7031-.09635-.34272-.007-.98658-.0083-1.28853-.004zm1.111295 3.999805c-.24195.0044-.45031.01496-.59115.03274-.91243.11503-2.0978.42889-2.474.65625-.39568.23917-.53542 1.0081-.29167 1.50065.09344.18881.3725.39844.53125.39844.05982 0 .34834-.08368.64062-.1849.85264-.2953 1.4226-.39181 2.4635-.41667.67472-.01587.682095-.0022 1.075695.05468 1.6711.24128 2.59869.65209 4.01559 1.69465.1948.14329.39869.26056.45052.26042.42179-.0012.78579-.55262.71354-1.0781-.06299-.45896-.21789-.65078-.94271-1.1562-1.2003-.83705-2.21809-1.3732-3.78379-1.6615-.26829-.04932-.81361-.08283-1.362-.09654-.27417-.007-.203505-.0083-.445465-.004z" fill="#fff"/></svg>