<svg height="64" width="64" xmlns="http://www.w3.org/2000/svg"><path d="m59.958 31.828a28 28 0 0 1 -27.958 27.172 28 28 0 0 1 -27.956-26.828 28 28 0 0 0 -.044.828 28 28 0 0 0 28 28 28 28 0 0 0 28-28 28 28 0 0 0 -.042-1.172z" opacity=".2"/><path d="m60 32a28 28 0 0 1 -28 28 28 28 0 0 1 -28-28 28 28 0 0 1 28-28 28 28 0 0 1 28 28z" fill="#f56e2c"/><path d="m47.86 31a16 16 0 0 0 -5.79-10.398c-.65.242-1.34.398-2.07.398-2.516 0-4.68-1.588-5.566-3.8046a16 16 0 0 0 -2.434-.1954 16 16 0 0 0 -6.208 1.254l3.043 5.2734a10 10 0 0 1 3.164-.528 10 10 0 0 1 9.789 8h6.0704zm-.004 4h-6.0586a10 10 0 0 1 -9.7968 8 10 10 0 0 1 -3.164-.52344l-3.0352 5.2578a16 16 0 0 0 6.198 1.266 16 16 0 0 0 2.442-.21c.888-2.208 3.048-3.79 5.558-3.79.73222 0 1.42684.15346 2.0782.39844a16 16 0 0 0 5.778-10.398zm-3.856-20a4 4 0 0 0 -4-4 4 4 0 0 0 -4 4 4 4 0 0 0 4 4 4 4 0 0 0 4-4zm0 36a4 4 0 0 0 -4-4 4 4 0 0 0 -4 4 4 4 0 0 0 4 4 4 4 0 0 0 4-4zm-18.624-25.472-3.036-5.258a16 16 0 0 0 -5.836 8.824c.9179 1.05526 1.4961 2.4126 1.4961 3.9062 0 1.49176-.57644 2.8476-1.49218 3.9024a16 16 0 0 0 5.8282 8.836l3.04-5.262a10 10 0 0 1 -3.376-7.476 10 10 0 0 1 3.376-7.472zm-9.376 7.472a4 4 0 0 0 -4-4 4 4 0 0 0 -4 4 4 4 0 0 0 4 4 4 4 0 0 0 4-4z" opacity=".2"/><path d="m47.86 30a16 16 0 0 0 -5.79-10.3984c-.65.2432-1.34.3984-2.07.3984-2.516 0-4.68-1.589-5.566-3.8046a16 16 0 0 0 -2.434-.1954 16 16 0 0 0 -6.208 1.254l3.043 5.2734a10 10 0 0 1 3.164-.528 10 10 0 0 1 9.789 8h6.0704zm-.004 4h-6.0586a10 10 0 0 1 -9.7968 8 10 10 0 0 1 -3.164-.52344l-3.0352 5.2578a16 16 0 0 0 6.198 1.266 16 16 0 0 0 2.442-.21c.888-2.208 3.048-3.79 5.558-3.79.73222 0 1.42684.15346 2.0782.39844a16 16 0 0 0 5.778-10.398zm-3.856-20a4 4 0 0 0 -4-4 4 4 0 0 0 -4 4 4 4 0 0 0 4 4 4 4 0 0 0 4-4zm0 36a4 4 0 0 0 -4-4 4 4 0 0 0 -4 4 4 4 0 0 0 4 4 4 4 0 0 0 4-4zm-18.624-25.472-3.036-5.2584a16 16 0 0 0 -5.836 8.8244c.9179 1.05526 1.4961 2.4126 1.4961 3.9062 0 1.49176-.57644 2.8476-1.49218 3.9024a16 16 0 0 0 5.8282 8.836l3.04-5.262a10 10 0 0 1 -3.376-7.476 10 10 0 0 1 3.376-7.472zm-9.376 7.472a4 4 0 0 0 -4-4 4 4 0 0 0 -4 4 4 4 0 0 0 4 4 4 4 0 0 0 4-4z" fill="#fff"/><path d="m63.954 47.918a14 14 0 0 1 -13.954 13.082 14 14 0 0 1 -13.954-12.918 14 14 0 0 0 -.046.918 14 14 0 0 0 14 14 14 14 0 0 0 14-14 14 14 0 0 0 -.046-1.082z" fill-rule="evenodd" opacity=".2"/><circle cx="50" cy="48" fill="#8561c5" fill-rule="evenodd" r="14"/><path d="m47.928 40-.1764 2.1072a6.2858 6.2858 0 0 0 -1.83704 1.06252l-1.91518-.9018-2 3.4642 1.73882 1.2076a6.2858 6.2858 0 0 0 -.096 1.06026 6.2858 6.2858 0 0 0  .0914 1.06474l-1.734 1.204 2 3.4642 1.91072-.89956a6.2858 6.2858 0 0 0 1.8415 1.0558l.1764 2.1116h4l .1764-2.1072a6.2858 6.2858 0 0 0 1.83708-1.06252l1.91516.9018 2-3.4642-1.73884-1.2076a6.2858 6.2858 0 0 0  .096-1.06026 6.2858 6.2858 0 0 0 -.0914-1.06474l1.73438-1.20312-2-3.4642-1.91072.89956a6.2858 6.2858 0 0 0 -1.84152-1.0558l-.1764-2.1116h-4zm2 5.7144a2.2858 2.2858 0 0 1 2.286 2.286 2.2858 2.2858 0 0 1 -2.286 2.286 2.2858 2.2858 0 0 1 -2.286-2.286 2.2858 2.2858 0 0 1 2.286-2.286z" fill="#fff"/><path d="m31.998047 4a28 28 0 0 0 -27.998047 28 28 28 0 0 0  .0175781.492188 28 28 0 0 1 27.9804689-27.492188h.001953a28 28 0 0 1 27.972656 27.5 28 28 0 0 0  .025391-.5 28 28 0 0 0 -27.998047-28z" fill="#fff" opacity=".2"/></svg>