<svg height="64" width="64" xmlns="http://www.w3.org/2000/svg"><path d="m20 47h15l-15 14z" opacity=".2"/><path d="m20 46.000001h15l-15 14z" fill="#694088"/><rect height="46" opacity=".2" rx="16.972637" ry="17.765333" width="48" x="8" y="4.999999"/><rect fill="#924cc4" height="46" rx="16.972637" ry="17.765333" width="48" x="8" y="4"/><path d="m24.477464 14.329841c-.0023-.0026-.0049-.0046-.0097-.0097-.0023-.0025-.0127-.0127-.01284-.01284l-.02248-.01608-.06747-.03533.112437.07389z" fill="#fff"/><path d="m19.012683 16.030329c-.0048.0071-.007.03023-.01284.04498-.0046.0056-.0051.01052-.0097.01608.0056-.02239.01311-.04544.01284-.04498-.000618.0011.01748-.02782.0097-.01608z" fill="#fff"/><path d="m35.244226 11.00003.004.004c-.676297 0-1.239709.540805-1.246155 1.195371-.004.65755.557253 1.207609 1.238343 1.210997 2.93938.02208 5.3563.953261 7.305046 2.785294 1.92584 1.815037 2.931578 4.328159 2.957177 7.609751v.004c.0068.652796.567994 1.191377 1.246062 1.191377.00007 0 .011-.0038.0118-.004.679588-.0062 1.243848-.554025 1.238343-1.210997-.0154-1.915143-.32552-3.675371-.933722-5.22282-.615898-1.563809-1.553322-2.946896-2.773574-4.097858-2.411631-2.267474-5.490329-3.439993-9.035602-3.465015zm-13.828807 4.027542c-.473456-.07952-.984277.0118-1.496168.257825h-.04296l-.05468.03126c-.950948.54058-1.84462 1.263122-2.679825 2.17198l-.0664.07422v.0625c-.577729.720194-.959112 1.445819-1.046926 2.171981-.02804.123066-.02734.236744-.02734.355488 0 .330372.05048.66296.152347.992237l.02734.09374.05468.03516c.329865 1.131406 1.08102 2.889532 2.718884 5.871383 1.090926 1.97635 2.205541 3.628863 3.312661 5.019777.583181.731014 1.241228 1.491276 2.007913 2.257926.009.0092.04296.04252.07812.07422.0122.0122.02844.03622.07032.07812l.07812.07812h.004c.02698.02698.04674.04538.05078.05078l.0118.0156.0156.0156c.766723.758119 1.522587 1.420862 2.261829 2.000099 1.389191 1.1068 3.039264 2.231672 5.015873 3.324381 2.986091 1.646844 4.765303 2.390786 5.890914 2.714978l.03906.05078.07032.02344c.318906.106285.648076.153387.97661.148447.133266.0072.250738-.0019.363298-.02734.77098-.09013 1.537914-.452678 2.293083-1.085992l.0078-.0118.0078-.004c.0118-.0116.0056-.0078.0118-.0156.0068-.006.0086-.0134.0156-.0196.893902-.815586 1.613539-1.70263 2.156356-2.652475l.03516-.0586v-.0586c.49858-1.037901.302043-2.098041-.507837-2.773574-.0198-.017-.40788-.341007-.89067-.73441-.493724-.4022-1.081293-.874118-1.476635-1.164122-.748005-.553169-1.903554-1.270212-2.562626-1.636798-1.265768-.708645-2.590064-.296447-3.17203.457054l-1.019583 1.277407c-.411498.518326-1.236036.470045-1.257873.468773-6.920623-1.779928-8.780117-8.740023-8.793402-8.789497-.0012-.02178-.04998-.843602.468771-1.26178l1.269595-1.015676c.755375-.578152 1.181146-1.902875.468613-3.171717-.37171-.655993-1.091556-1.820736-1.636799-2.562627-.294642-.396771-.765541-.982452-1.168027-1.476634-.20028-.246996-.386677-.475424-.519556-.636752-.0674-.08066-.117746-.145787-.156267-.191409-.0192-.0228-.03564-.03768-.04688-.05078-.0056-.0066-.0106-.0102-.0156-.0156-.351561-.417504-.799567-.673098-1.293047-.757857zm13.903029 1.578202c-.667039-.04704-1.263929.450266-1.312565 1.093804-.04868.644252.470489 1.218726 1.136774 1.265688 1.647689.116446 2.75842.600786 3.593929 1.484447v.004c.852848.900063 1.243503 1.927561 1.210996 3.332197v.0078c-.0144.646386.525637 1.192927 1.19537 1.207092h.03126c.659955 0 1.208032-.521988 1.222716-1.160214.04514-1.930845-.58061-3.652796-1.847747-4.988527-1.276063-1.342281-3.08085-2.093385-5.230725-2.246205z" opacity=".2"/><path d="m35.244226 10.000031.004.004c-.676297 0-1.239709.540805-1.246155 1.195371-.004.65755.557253 1.207609 1.238343 1.210997 2.93938.02208 5.3563.953261 7.305046 2.785294 1.92584 1.815037 2.931578 4.328159 2.957177 7.609751v.004c.0068.652796.567994 1.191377 1.246062 1.191377.00007 0 .011-.0038.0118-.004.679588-.0062 1.243848-.554025 1.238343-1.210997-.0154-1.915143-.32552-3.675371-.933722-5.22282-.615898-1.563809-1.553322-2.946896-2.773574-4.097858-2.411631-2.267474-5.490329-3.439993-9.035602-3.465015zm-13.828807 4.027542c-.473456-.07952-.984277.0118-1.496168.257825h-.04296l-.05468.03126c-.950948.54058-1.84462 1.263122-2.679825 2.17198l-.0664.07422v.0625c-.577729.720194-.959112 1.445819-1.046926 2.171981-.02804.123066-.02734.236744-.02734.355488 0 .330372.05048.66296.152347.992237l.02734.09374.05468.03516c.329865 1.131406 1.08102 2.889532 2.718884 5.871383 1.090926 1.97635 2.205541 3.628863 3.312661 5.019777.583181.731014 1.241228 1.491276 2.007913 2.257926.009.0092.04296.04252.07812.07422.0122.0122.02844.03622.07032.07812l.07812.07812h.004c.02698.02698.04674.04538.05078.05078l.0118.0156.0156.0156c.766723.758119 1.522587 1.420862 2.261829 2.000099 1.389191 1.1068 3.039264 2.231672 5.015873 3.324381 2.986091 1.646844 4.765303 2.390786 5.890914 2.714978l.03906.05078.07032.02344c.318906.106285.648076.153387.97661.148447.133266.0072.250738-.0019.363298-.02734.77098-.09013 1.537914-.452678 2.293083-1.085992l.0078-.0118.0078-.004c.0118-.0116.0056-.0078.0118-.0156.0068-.006.0086-.0134.0156-.0196.893902-.815586 1.613539-1.70263 2.156356-2.652475l.03516-.0586v-.0586c.49858-1.037901.302043-2.098041-.507837-2.773574-.0198-.017-.40788-.341007-.89067-.73441-.493724-.4022-1.081293-.874118-1.476635-1.164122-.748005-.553169-1.903554-1.270212-2.562626-1.636798-1.265768-.708645-2.590064-.296447-3.17203.457054l-1.019583 1.277407c-.411498.518326-1.236036.470045-1.257873.468773-6.920623-1.779928-8.780117-8.740023-8.793402-8.789497-.0012-.02178-.04998-.843602.468771-1.26178l1.269595-1.015676c.755375-.578152 1.181146-1.902875.468613-3.171717-.37171-.655993-1.091556-1.820736-1.636799-2.562627-.294642-.396771-.765541-.982452-1.168027-1.476634-.20028-.246996-.386677-.475424-.519556-.636752-.0674-.08066-.117746-.145787-.156267-.191409-.0192-.0228-.03564-.03768-.04688-.05078-.0056-.0066-.0106-.0102-.0156-.0156-.351561-.417504-.799567-.673098-1.293047-.757857zm13.903029 1.578202c-.667039-.04704-1.263929.450266-1.312565 1.093804-.04868.644252.470489 1.218726 1.136774 1.265688 1.647689.116446 2.75842.600786 3.593929 1.484447v.004c.852848.900063 1.243503 1.927561 1.210996 3.332197v.0078c-.0144.646386.525637 1.192927 1.19537 1.207092h.03126c.659955 0 1.208032-.521988 1.222716-1.160214.04514-1.930845-.58061-3.652796-1.847747-4.988527-1.276063-1.342281-3.08085-2.093385-5.230725-2.246205z" fill="#fff"/><path d="m24.972656 4c-9.402841 0-16.972656 7.92363-16.972656 17.765625v1c0-9.841995 7.569815-17.765625 16.972656-17.765625h14.054688c9.402841 0 16.972656 7.92363 16.972656 17.765625v-1c0-9.841995-7.569815-17.765625-16.972656-17.765625z" fill="#fff" opacity=".1"/></svg>