<svg height="64" width="64" xmlns="http://www.w3.org/2000/svg"><rect height="40" opacity=".2" rx="20" transform="matrix(0 -1 -1 0 0 0)" width="40" x="-60" y="-52"/><path d="m32 6c-12.600372 0-14.000372 11.294117-14 24h6c-.14818-12.705883 2.730378-18 8-18 5.26962 0 8.147438 5.294117 8 18h6c-.000372-12.705883-1.400372-24-14-24z" opacity=".2"/><path d="m32 5c-12.600372 0-14.000372 11.294117-14 24h6c-.14818-12.705883 2.730378-18 8-18 5.26962 0 8.147438 5.294117 8 18h6c-.000372-12.705883-1.400372-24-14-24z" fill="#e4e4e4"/><path d="m32 5c-12.600372 0-14.000372 11.294117-14 24h .007812c.078421-12.290435 1.725048-23 13.992188-23 12.266416 0 13.913081 10.709565 13.992188 23h .007812c-.000372-12.705883-1.400372-24-14-24z" fill="#fff" opacity=".2"/><rect fill="#a0a0a0" height="40" rx="20" transform="matrix(0 -1 -1 0 0 0)" width="40" x="-59" y="-52"/><rect fill="#4f4f4f" height="28" rx="14" transform="matrix(0 -1 -1 0 0 0)" width="28" x="-53" y="-46"/><path d="m39.778176 32.221824-3.18198 1.06066-2.903006.96951a6 6 0 0 0 -5.93583 1.505364 6 6 0 0 0 0 8.485282 6 6 0 0 0 8.485282 0 6 6 0 0 0 1.508126-5.944116l.966748-2.89472z" opacity=".2"/><path d="m39.778176 31.221824-3.18198 1.06066-2.903006.96951a6 6 0 0 0 -5.93583 1.505364 6 6 0 0 0 0 8.485282 6 6 0 0 0 8.485282 0 6 6 0 0 0 1.508126-5.944116l.966748-2.89472z" fill="#ff5969"/></svg>