<svg height="64" viewBox="0 0 64 64" width="64" xmlns="http://www.w3.org/2000/svg"><path d="m4.0008004 56.050071v1.999971c0 1.633977 1.3163812 2.949958 2.9491578 2.949958h50.0992838c1.633976 0 2.949958-1.315981 2.949958-2.949958v-1.999971c0 1.633976-1.315982 2.949958-2.949958 2.949958h-50.0992838c-1.6335766 0-2.9499578-1.315982-2.9499578-2.949958z" opacity=".2"/><rect fill="#be212e" height="55.999" rx="2.948" width="55.999" x="4" y="4"/><path d="m20.696562 19.004366c-1.741575.0554-3.423351.859388-4.711533 2.07797-1.309181 1.237983-2.247368 2.939958-2.437565 4.769932-.095.913987-.0028 1.849974.289196 2.717961.291996.867988.785589 1.667976 1.441379 2.285968.773189.727989 1.740775 1.187983 2.628763 1.757975.444193.283995.870587.601991 1.238382.987985.367795.383995.67519.841988.843588 1.355981.149798.455993.183797.947986.117798 1.42398-.068.477993-.237197.939986-.484993 1.34798-.495393.815989-1.294781 1.40998-2.171769 1.727976-1.016985.367994-2.136769.385994-3.117155.849987-.775789.367995-1.42898 1.007986-1.835974 1.785975-.406794.777989-.567592 1.893743-.468593 2.77373.116198 1.033985.594591 2.015971 1.308581 2.745961.71379.72999 1.658376 1.205984 2.648362 1.36398 1.451779.229997 3.503595-.251996 4.55798-1.313981.527992-.529992.927987-1.193983 1.153983-1.921971.223997-.725991.269997-1.711747.123999-2.459736-.111999-.571992-.327996-1.113984-.529993-1.657976-.203997-.541993-.397994-1.097985-.445993-1.677976-.086-1.025986-.210442-2.067971.445548-2.83996.653991-.771989 1.571978-1.780368 2.537964-2.004365.623991-.145998 1.271982-.179998 1.901973-.066.629991.111998 1.239982.369994 1.749975.767989.509992.399994.917987 1.442373 1.143983 2.064364.227997.619992.267996 1.319982.086 1.955972-.183997.651991-1.080463 1.213983-1.484457 1.749975-.401994.535993-.825988 1.073985-1.065985 1.707976-.263996.69799-.289995 1.483979-.109998 2.209968.181997.72599.561992 1.38998 1.063985 1.929973.553992.597991 1.756453 1.043985 2.518442 1.287981.763989.245997 1.541978.289996 2.339966.289996.797989 0 1.631977-.044 2.395966-.289996.761989-.243996 1.963648-.68999 2.51764-1.287981.501993-.539993.881988-1.203983 1.063985-1.929973.179997-.725989.153998-1.511978-.109998-2.209968-.239997-.633991-.663991-1.171983-1.065985-1.707976-.403994-.535992-1.299658-1.097984-1.483655-1.749975-.181997-.63599-.141998-1.33598.086-1.955972.225996-.621991.633991-1.66437 1.143983-2.064364.509993-.397995 1.119984-.655991 1.749975-.767989.629991-.113999 1.277982-.08 1.901973.066.965986.223997 1.883973 1.232376 2.537964 2.004365.65599.771989.531745 1.813974.445746 2.83996-.048.579991-.241996 1.135983-.445993 1.677976-.201997.543992-.417994 1.085984-.529993 1.657976-.145998.747989-.1 1.733746.123998 2.459736.225997.727989.625992 1.39198 1.153984 1.921972 1.053985 1.061985 3.106203 1.543978 4.558182 1.313981.989986-.157997 1.933972-.633991 2.647962-1.36398.71399-.72999 1.191983-1.711976 1.307981-2.745961.1-.879987-.062-1.995742-.467993-2.773731-.407994-.777989-1.059985-1.41798-1.835974-1.785975-.979986-.463993-2.09997-.481993-3.117955-.849987-.875988-.317996-1.675976-.911987-2.171969-1.727976-.245996-.407994-.415994-.869987-.483993-1.34798-.066-.475994-.032-.967987.117998-1.42398.167998-.513993.475993-.971986.843988-1.355981.367995-.385994.793989-.70399 1.237982-.987985.887988-.569992 1.855974-1.029986 2.627963-1.757975.65599-.617992 1.149983-1.41798 1.441979-2.285968.291996-.867987.383995-1.803974.289996-2.717961-.189997-1.829974-1.129984-3.531949-2.437965-4.769932-1.287982-1.218582-2.969958-2.022571-4.711933-2.07797-.869987-.0278-1.743975.128598-2.545963.480393-.801989.351795-1.531978.899987-2.08597 1.597577-.635991.799989-1.035986 1.769975-1.40198 2.733961-.365995.965987-.71199 1.953972-1.265982 2.81596-.913987 1.42398-2.357967 2.36748-4.003943 2.36748s-3.089956-.9435-4.003943-2.36748c-.553992-.861988-.899987-1.849973-1.265982-2.81596-.365994-.963986-.765989-1.933972-1.40198-2.733961-.553992-.69759-1.283981-1.245782-2.08597-1.597577-.801988-.351795-1.675976-.508192-2.545965-.480393zm11.303838 11.995829c1.104553 0 1.999971.895418 1.999971 1.999971s-.895418 1.999971-1.999971 1.999971-1.999971-.895418-1.999971-1.999971.895418-1.999971 1.999971-1.999971z" opacity=".2"/><path d="m20.696562 18.004629c-1.741575.0554-3.423351.859388-4.711533 2.07797-1.309181 1.237983-2.247368 2.939958-2.437565 4.769932-.095.913987-.0028 1.849974.289196 2.717961.291996.867988.785589 1.667976 1.441379 2.285968.773189.727989 1.740775 1.187983 2.628763 1.757975.444193.283995.870587.601991 1.238382.987985.367795.383995.67519.841988.843588 1.355981.149798.455993.183797.947986.117798 1.42398-.068.477993-.237197.939986-.484993 1.34798-.495393.815989-1.294781 1.40998-2.171769 1.727976-1.016985.367994-2.136769.385994-3.117155.849987-.775789.367995-1.42898 1.007986-1.835974 1.785975-.406794.777989-.567592 1.893743-.468593 2.77373.116198 1.033985.594591 2.015971 1.308581 2.745961.71379.72999 1.658376 1.205984 2.648362 1.36398 1.451779.229997 3.503595-.251996 4.55798-1.313981.527992-.529992.927987-1.193983 1.153983-1.921971.223997-.725991.269997-1.711747.123999-2.459736-.111999-.571992-.327996-1.113984-.529993-1.657976-.203997-.541993-.397994-1.097985-.445993-1.677976-.086-1.025986-.210442-2.067971.445548-2.83996.653991-.771989 1.571978-1.780368 2.537964-2.004365.623991-.145998 1.271982-.179998 1.901973-.066.629991.111998 1.239982.369994 1.749975.767989.509992.399994.917987 1.442373 1.143983 2.064364.227997.619992.267996 1.319982.086 1.955972-.183997.651991-1.080463 1.213983-1.484457 1.749975-.401994.535993-.825988 1.073985-1.065985 1.707976-.263996.69799-.289995 1.483979-.109998 2.209968.181997.72599.561992 1.38998 1.063985 1.929973.553992.597991 1.756453 1.043985 2.518442 1.287981.763989.245997 1.541978.289996 2.339966.289996.797989 0 1.631977-.044 2.395966-.289996.761989-.243996 1.963648-.68999 2.51764-1.287981.501993-.539993.881988-1.203983 1.063985-1.929973.179997-.725989.153998-1.511978-.109998-2.209968-.239997-.633991-.663991-1.171983-1.065985-1.707976-.403994-.535992-1.299658-1.097984-1.483655-1.749975-.181997-.63599-.141998-1.33598.086-1.955972.225996-.621991.633991-1.66437 1.143983-2.064364.509993-.397995 1.119984-.655991 1.749975-.767989.629991-.113999 1.277982-.08 1.901973.066.965986.223997 1.883973 1.232376 2.537964 2.004365.65599.771989.531745 1.813974.445746 2.83996-.048.579991-.241996 1.135983-.445993 1.677976-.201997.543992-.417994 1.085984-.529993 1.657976-.145998.747989-.1 1.733746.123998 2.459736.225997.727989.625992 1.39198 1.153984 1.921972 1.053985 1.061985 3.106203 1.543978 4.558182 1.313981.989986-.157997 1.933972-.633991 2.647962-1.36398.71399-.72999 1.191983-1.711976 1.307981-2.745961.1-.879987-.062-1.995742-.467993-2.773731-.407994-.777989-1.059985-1.41798-1.835974-1.785975-.979986-.463993-2.09997-.481993-3.117955-.849987-.875988-.317996-1.675976-.911987-2.171969-1.727976-.245996-.407994-.415994-.869987-.483993-1.34798-.066-.475994-.032-.967987.117998-1.42398.167998-.513993.475993-.971986.843988-1.355981.367995-.385994.793989-.70399 1.237982-.987985.887988-.569992 1.855974-1.029986 2.627963-1.757975.65599-.617992 1.149983-1.41798 1.441979-2.285968.291996-.867987.383995-1.803974.289996-2.717961-.189997-1.829974-1.129984-3.531949-2.437965-4.769932-1.287982-1.218582-2.969958-2.022571-4.711933-2.07797-.869987-.0278-1.743975.128598-2.545963.480393-.801989.351795-1.531978.899987-2.08597 1.597577-.635991.799989-1.035986 1.769975-1.40198 2.733961-.365995.965987-.71199 1.953972-1.265982 2.81596-.913987 1.42398-2.357967 2.36748-4.003943 2.36748s-3.089956-.9435-4.003943-2.36748c-.553992-.861988-.899987-1.849973-1.265982-2.81596-.365994-.963986-.765989-1.933972-1.40198-2.733961-.553992-.69759-1.283981-1.245782-2.08597-1.597577-.801988-.351795-1.675976-.508192-2.545965-.480393zm11.303838 11.995829c1.104553 0 1.999971.895418 1.999971 1.999971s-.895418 1.999971-1.999971 1.999971-1.999971-.895418-1.999971-1.999971.895418-1.999971 1.999971-1.999971z" fill="#fff"/><path d="m6.9492188 4c-1.6327766 0-2.9492188 1.3164421-2.9492188 2.9492188v1c0-1.6327767 1.3164422-2.9492188 2.9492188-2.9492188h50.0996092c1.633976 0 2.951172 1.3164422 2.951172 2.9492188v-1c0-1.6327766-1.317196-2.9492188-2.951172-2.9492188z" fill="#fff" opacity=".2"/></svg>