<svg height="64" width="64" xmlns="http://www.w3.org/2000/svg"><rect height="56" opacity=".2" rx="2.8" transform="matrix(0 -1 -1 0 0 0)" width="56" x="-60" y="-60"/><rect fill="#642c68" height="56" rx="2.8" transform="matrix(0 -1 -1 0 0 0)" width="56" x="-59" y="-60"/><path d="m8 8v6h6v-6zm42 0v6h6v-6zm-42 14v6h6v-6zm42 0v6h6v-6zm-42 14v6h6v-6zm42 0v6h6v-6zm-42 14v6h6v-6zm42 0v6h6v-6z" opacity=".2"/><path d="m8 7v6h6v-6zm42 0v6h6v-6zm-42 14v6h6v-6zm42 0v6h6v-6zm-42 14v6h6v-6zm42 0v6h6v-6zm-42 14v6h6v-6zm42 0v6h6v-6z" fill="#fff"/><path d="m6.8007812 3c-1.5512 0-2.8007812 1.2495812-2.8007812 2.8007812v1c0-1.5511999 1.2495812-2.8007812 2.8007812-2.8007812h50.3984378c1.5512 0 2.800781 1.2495812 2.800781 2.8007812v-1c0-1.5512-1.249581-2.8007812-2.800781-2.8007812z" fill="#fff" opacity=".1"/><path d="m19 10h26v18h-26z" opacity=".2"/><path d="m19 9h26v18h-26z" fill="#fff"/><path d="m19 36h26v18h-26z" opacity=".2"/><path d="m19 35h26v18h-26z" fill="#fff"/><path d="m63.958 44.848a16 16 0 0 1 -15.958 15.152 16 16 0 0 1 -15.958-14.848 16 16 0 0 0 -.042.848 16 16 0 0 0 16 16 16 16 0 0 0 16-16 16 16 0 0 0 -.04296-1.15234z" opacity=".2"/><circle cx="48" cy="45" fill="#96be4e" r="16"/><path d="m43.076 37c-1.698 0-3.076 1.378-3.076 3.076 0 1.69934 1.37758 3.077 3.077 3.077.54902 0 1.05376-.1711 1.5-.42308l2.424 2.27-2.423 2.2692c-.44624-.25198-.95098-.42308-1.5-.42308-1.698 0-3.076 1.378-3.076 3.078 0 1.698 1.378 3.076 3.076 3.076 1.69934 0 3.077-1.37758 3.077-3.077 0-.28204-.0443-.5482-.11532-.8077l2.6154-2.5384 5.5 5.1924h1.84616v-1.23076l-9.9616-9.6538c.07114-.2595.11532-.52564.11532-.8077 0-1.7-1.378-3.078-3.078-3.078zm0 1.84616c.67972 0 1.23076.55104 1.23076 1.23076s-.55104 1.23076-1.23076 1.23076-1.23076-.55104-1.23076-1.23076.55104-1.23076 1.23076-1.23076zm11.077-.61538-4.8462 4.577 1.61538 1.57692 5.077-4.923v-1.23076zm-11.077 10.4616c.67972 0 1.23076.55104 1.23076 1.23076s-.55104 1.23076-1.23076 1.23076-1.23076-.55104-1.23076-1.23076.55104-1.23076 1.23076-1.23076z" fill="#fff"/></svg>