<svg height="64" width="64" xmlns="http://www.w3.org/2000/svg"><rect height="58" opacity=".2" rx="2.9" transform="matrix(0 -1 -1 0 0 0)" width="58" x="-62" y="-61"/><rect fill="#3b8c5f" height="58" rx="2.9" transform="matrix(0 -1 -1 0 0 0)" width="58" x="-61" y="-61"/><path d="m33 34.999582h11v12m3 0h-12.5c-4.35 0-14.5 1.986-14.5-13.964 0-15.950001 10.15-16.036001 14.5-16.036001 5.8 0 10.9 3.124001 10.9 3.124001" fill="none" opacity=".2" stroke="#000" stroke-width="6"/><path d="m33 34h11v12m3 0h-12.5c-4.35 0-14.5 1.986-14.5-13.964s10.15-16.036 14.5-16.036c5.8 0 10.9 3.124 10.9 3.124" fill="none" stroke="#fff" stroke-width="6"/><path d="m5.8984375 3c-1.6066002 0-2.8984375 1.2918373-2.8984375 2.8984375v1c0-1.6066002 1.2918373-2.8984375 2.8984375-2.8984375h52.2031245c1.606601 0 2.898438 1.2918373 2.898438 2.8984375v-1c0-1.6066002-1.291837-2.8984375-2.898438-2.8984375z" fill="#fff" opacity=".1"/></svg>