<svg height="64" width="64" xmlns="http://www.w3.org/2000/svg"><rect fill="#4c636b" height="44" rx="2.8" ry="2.75" transform="scale(-1 1)" width="56" x="-60" y="10"/><circle cx="22" cy="32" opacity=".2" r="14"/><path d="m12.100133 22.099863a13.99604 14.000213 0 0 0 -1.30335 1.524723l4.315978 4.317265a7.9977365 8.0001213 0 0 0 1.228812 9.714548 7.9977365 8.0001213 0 0 0 9.708854 1.226419l4.315978 4.317265a13.99604 14.000213 0 0 0 1.527027-1.300979 13.99604 14.000213 0 0 0 1.303351-1.524724l-4.316778-4.316065a7.9977365 8.0001213 0 0 0 -1.229651-9.714148 7.9977365 8.0001213 0 0 0 -9.708054-1.228018l-4.315979-4.316066a13.99604 14.000213 0 0 0 -1.527767 1.30202z" fill="#ee5858"/><circle cx="22" cy="33" opacity=".2" r="4"/><circle cx="22" cy="32" fill="#f3c4c4" r="4"/><rect height="4" opacity=".2" rx="2" width="16" x="40" y="20"/><circle cx="53" cy="48" opacity=".2" r="3"/><circle cx="53" cy="47" fill="#58c4ee" r="3"/><circle cx="44.999" cy="48" opacity=".2" r="3"/><circle cx="44.999" cy="47" fill="#58c4ee" r="3"/><rect height="4" opacity=".2" rx="2" width="16" x="40" y="26"/><rect height="4" opacity=".2" rx="2" width="16" x="40" y="32"/><rect height="4" opacity=".2" rx="2" width="16" x="40" y="38"/><path d="m6.8007812 10c-1.5511778 0-2.8007812 1.225784-2.8007812 2.748569v1.001431c0-1.522785 1.2496034-2.748569 2.8007812-2.748569h50.3984378c1.549978 0 2.800781 1.225784 2.800781 2.748569v-1.001431c0-1.522785-1.250803-2.748569-2.800781-2.748569z" fill="#fff" opacity=".1"/><path d="m4 51.25v1c0 1.523979 1.2496034 2.75 2.8007812 2.75h50.3984378c1.549978 0 2.800781-1.226021 2.800781-2.75v-1c0 1.523979-1.250803 2.75-2.800781 2.75h-50.3984378c-1.5511778 0-2.8007812-1.226021-2.8007812-2.75z" opacity=".2"/></svg>