<svg height="64" width="64" xmlns="http://www.w3.org/2000/svg"><path d="m59.958 31.828a28 28 0 0 1 -27.958 27.172 28 28 0 0 1 -27.956-26.828 28 28 0 0 0 -.044.828 28 28 0 0 0 28 28 28 28 0 0 0 28-28 28 28 0 0 0 -.042-1.172z" opacity=".2"/><circle cx="32" cy="32" fill="#7bbb36" r="28"/><path d="m32 15a18 18 0 0 1 18 18 18 18 0 0 1 -18 18 18 18 0 0 1 -18-18 18 18 0 0 1 18-18zm0 4a14 14 0 0 0 -14 14 14 14 0 0 0 14 14 14 14 0 0 0 14-14 14 14 0 0 0 -14-14zm0 8 3.9648 3.0782 4.036 2.922-4.034 2.922-3.966 3.078.048-4h-6.048c-1.108 0-2-.892-2-2s .892-2 2-2h6.0468l-.04688-4z" opacity=".2"/><path d="m32 14a18 18 0 0 1 18 18 18 18 0 0 1 -18 18 18 18 0 0 1 -18-18 18 18 0 0 1 18-18zm0 4a14 14 0 0 0 -14 14 14 14 0 0 0 14 14 14 14 0 0 0 14-14 14 14 0 0 0 -14-14zm0 8 3.9648 3.0782 4.036 2.922-4.034 2.922-3.966 3.078.048-4h-6.048c-1.108 0-2-.892-2-2s .892-2 2-2h6.0468l-.04688-4z" fill="#fff"/><path d="m31.998047 4a28 28 0 0 0 -27.998047 28 28 28 0 0 0  .0175781.492188 28 28 0 0 1 27.9804689-27.492188h.001953a28 28 0 0 1 27.972656 27.5 28 28 0 0 0  .025391-.5 28 28 0 0 0 -27.998047-28z" fill="#fff" opacity=".2"/></svg>