<svg height="32" width="32" xmlns="http://www.w3.org/2000/svg"><rect fill="#ccc" fill-rule="evenodd" height="28.203388" ry="5.575182" width="28.203388" x="1.898306" y="1.898306"/><g fill="#e74c3c"><path d="m13.701 12c-1.487 0-2.701 1.117-2.701 2.5 0 .71979.32553 1.3765.84822 1.8333l4.085 3.667 4.219-3.667c.523-.456.848-1.113.848-1.833 0-1.383-1.214-2.5-2.701-2.5-.979 0-1.828.481-2.299 1.208-.471-.727-1.32-1.208-2.299-1.208z"/><path d="m8.0804 10c-.5949 0-1.0804.419-1.0804.938 0 .269.1302.516.3393.687l1.6339 1.375 1.6878-1.375c.209-.171.339-.418.339-.687 0-.519-.486-.938-1.0804-.938-.3918 0-.7312.18-.9196.453-.1884-.273-.5278-.453-.9196-.453z"/><path d="m9.9042 8.2713h-1.6129l-.2545.7287h-1.0368l1.4816-4h1.2297l1.4817 4h-1.037zm-1.3557-.74213h1.0958l-.5465-1.5915-.5492 1.5914z"/><path d="m23.92 22c .594 0 1.08-.419 1.08-.938 0-.269-.13-.516-.339-.687l-1.634-1.375-1.688 1.375c-.209.171-.339.418-.339.687 0 .519.486.938 1.08.938.392 0 .732-.18.92-.453.188.273.528.453.92.453z"/><path d="m22.096 23.729h1.6129l.254-.729h1.037l-1.4816 4h-1.2297l-1.4816-4h1.0368l.25184.72873zm1.3557.74213h-1.0958l.54655 1.5914.54923-1.5914z"/></g></svg>