<svg height="64" viewBox="0 0 64 64" width="64" xmlns="http://www.w3.org/2000/svg"><circle cx="32" cy="33" opacity=".2" r="28"/><circle cx="32" cy="32" fill="#d2d2d2" r="28"/><path d="m32.423828 13c-7.842565 0-14.826153 4.514508-18.222656 11.085938l4.669922 3.160156-4.683594-3.160156c-1.384839 2.685715-2.1875 5.714062-2.1875 8.914062 0 3.314286.846056 6.429017 2.318359 9.171875l6.583985-4.632813a12 12 0 0 1 -.902344-4.539062 12 12 0 0 1  .851562-4.412109 12 12 0 0 1 11.148438-7.587891 12 12 0 0 1 8.248047 3.302734l5.585937-5.945312c-3.469389-3.314286-8.162341-5.357422-13.410156-5.357422zm-.423828 16v8h11.292969a12 12 0 0 1 -4.345703 5.767578 12 12 0 0 1 -.01563.0098 12 12 0 0 1 -6.931636 2.222622 12 12 0 0 1 -11.09375-7.453125l-6.574219 4.625c3.440236 6.428571 10.351272 10.828125 18.091797 10.828125 5.131196 0 9.720972-1.92952 13.175781-5.115234 3.950439-3.657143 6.400391-8.984766 6.400391-14.884766 0-.959964-.086017-1.89141-.212891-2.810547l.017579-.113281-.185547-1.076172h-3.81836-4.501953z" opacity=".1"/><path d="m32 28v8h11.292969c-.832146 2.351487-2.376387 4.385215-4.417969 5.818359l6.724609 5.066407c3.950439-3.657143 6.400391-8.984766 6.400391-14.884766 0-.959964-.086017-1.89141-.212891-2.810547l.017579-.113281-.185547-1.076172h-3.81836-4.501953z" fill="#3779d7"/><path d="m32.423828 12c-7.842565 0-14.826153 4.514508-18.222656 11.085938l6.65039 4.501953a12 12 0 0 1 11.148438-7.587891 12 12 0 0 1 8.248047 3.302734l5.585937-5.945312c-3.469389-3.314286-8.162341-5.357422-13.410156-5.357422z" fill="#e7453c"/><path d="m14.1875 23.085938c-1.384839 2.685715-2.1875 5.714062-2.1875 8.914062 0 3.314286.846056 6.429017 2.318359 9.171875l6.583985-4.632813a12 12 0 0 1 -.902344-4.539062 12 12 0 0 1  .851562-4.412109l-1.880859-1.273438z" fill="#eead33"/><path d="m20.90625 36.546875-6.574219 4.625c3.440236 6.428571 10.351272 10.828125 18.091797 10.828125 5.131196 0 9.720972-1.92952 13.175781-5.115234l-6.652343-5.117188a12 12 0 0 1 -6.947266 2.232422 12 12 0 0 1 -11.09375-7.453125z" fill="#359950"/><path d="m32 4a28 28 0 0 0 -28 28 28 28 0 0 0  .0214844.585938 28 28 0 0 1 27.9785156-27.585938 28 28 0 0 1 27.978516 27.414062 28 28 0 0 0  .021484-.414062 28 28 0 0 0 -28-28z" fill="#fff" opacity=".2"/></svg>