<svg height="64" viewBox="0 0 64 64" width="64" xmlns="http://www.w3.org/2000/svg"><path d="m4 56v2c0 1.662 1.338 3 3 3h50c1.662 0 3-1.338 3-3v-2c0 1.662-1.338 3-3 3h-50c-1.662 0-3-1.338-3-3z" opacity=".2"/><rect fill="#394e6f" height="56" rx="3" transform="matrix(0 -1 -1 0 0 0)" width="56" x="-60" y="-60"/><g fill="#fff"><path d="m7 4c-1.662 0-3 1.338-3 3v1c0-1.662 1.338-3 3-3h50c1.662 0 3 1.338 3 3v-1c0-1.662-1.338-3-3-3z" opacity=".1"/><g stroke="#394e6f" stroke-linecap="round" stroke-linejoin="round"><circle cx="37" cy="29" r="6.5"/><circle cx="52" cy="42" r="3.5"/><circle cx="44" cy="38" r="7.5"/><circle cx="15" cy="39" r="6.5"/><circle cx="21" cy="26" r="3.5"/><circle cx="22" cy="34" r="7.5"/><circle cx="22" cy="42" r="3.5"/><circle cx="29" cy="25" r="6.5"/><circle cx="32" cy="36" r="9.5"/></g></g></svg>