<svg height="64" width="64" xmlns="http://www.w3.org/2000/svg"><path d="m60 55.222222v-44.444444c0-1.538889-1.2488-2.777778-2.8-2.777778h-50.4c-1.5512 0-2.8 1.238889-2.8 2.777778v44.444444c0 1.53889 1.2488 2.777778 2.8 2.777778h50.4c1.5512 0 2.8-1.238888 2.8-2.777778z" opacity=".2"/><path d="m60 54.222222v-44.4444442c0-1.538889-1.2488-2.7777778-2.8-2.7777778h-50.4c-1.5512 0-2.8 1.2388888-2.8 2.7777778v44.4444442c0 1.53889 1.2488 2.777778 2.8 2.777778h50.4c1.5512 0 2.8-1.238888 2.8-2.777778z" fill="#f28b42"/><path d="m14 41 10-14 12 8 14-12" fill="none" stroke="#fff" stroke-width="3"/><path d="m50 20a4 4 0 0 0 -4 4 4 4 0 0 0 4 4 4 4 0 0 0 4-4 4 4 0 0 0 -4-4zm-26 4a4 4 0 0 0 -4 4 4 4 0 0 0 4 4 4 4 0 0 0 4-4 4 4 0 0 0 -4-4zm12 8a4 4 0 0 0 -4 4 4 4 0 0 0 4 4 4 4 0 0 0 4-4 4 4 0 0 0 -4-4zm-22 6a4 4 0 0 0 -4 4 4 4 0 0 0 4 4 4 4 0 0 0 4-4 4 4 0 0 0 -4-4z" opacity=".1"/><g fill="#3f3f3f" stroke-width="2"><circle cx="14" cy="41" r="4"/><circle cx="24" cy="27" r="4"/><circle cx="36" cy="35" r="4"/><circle cx="50" cy="23" r="4"/></g><path d="m6.8007812 7c-1.5512 0-2.8007812 1.2384547-2.8007812 2.7773438v1.0000002c0-1.5388894 1.2495812-2.777344 2.8007812-2.777344h50.3984378c1.5512 0 2.800781 1.2384546 2.800781 2.777344v-1.0000002c0-1.5388891-1.249581-2.7773438-2.800781-2.7773438z" fill="#fff" opacity=".2"/></svg>