<svg height="64" width="64" xmlns="http://www.w3.org/2000/svg"><rect height="56" opacity=".2" rx="2.8" transform="matrix(0 -1 -1 0 0 0)" width="56" x="-61" y="-60"/><rect fill="#c2352a" height="56" rx="2.8" transform="matrix(0 -1 -1 0 0 0)" width="56" x="-60" y="-60"/><path d="m20.484375 10.736328-8.484375 8.486328 2.828125 2.828125 8.486328-8.486328zm23.09375 0-7.777344 7.779297 8.484375 8.484375 7.777344-7.777344zm-18.142578 4.949219-8.486328 8.486328 2.828125 2.828125 8.486328-8.484375zm6.566406 7.314453c-4.394914 0-8.001953 3.60705-8.001953 8.001953 0 4.394904 3.607039 7.998047 8.001953 7.998047 4.394915 0 7.998047-3.603143 7.998047-7.998047 0-4.394903-3.603132-8.001953-7.998047-8.001953zm-.001953 4c2.23023 0 4 1.769553 4 4.001953 0 2.232402-1.76977 3.998047-4 3.998047s-4-1.765645-4-3.998047c0-2.2324 1.76977-4.001953 4-4.001953zm-6 15v4h12v-4zm0 7v4h12v-4z" opacity=".2"/><path d="m20.484375 9.7363281-8.484375 8.4863279 2.828125 2.828125 8.486328-8.486328zm23.09375 0-7.777344 7.7792969 8.484375 8.484375 7.777344-7.777344zm-18.142578 4.9492189-8.486328 8.486328 2.828125 2.828125 8.486328-8.484375zm6.566406 7.314453c-4.394914 0-8.001953 3.60705-8.001953 8.001953 0 4.394904 3.607039 7.998047 8.001953 7.998047 4.394915 0 7.998047-3.603143 7.998047-7.998047 0-4.394903-3.603132-8.001953-7.998047-8.001953zm-.001953 4c2.23023 0 4 1.769553 4 4.001953 0 2.232402-1.76977 3.998047-4 3.998047s-4-1.765645-4-3.998047c0-2.2324 1.76977-4.001953 4-4.001953zm-6 15v4h12v-4zm0 7v4h12v-4z" fill="#ffc75e"/><path d="m6.8007812 4c-1.5511999 0-2.8007812 1.2495813-2.8007812 2.8007812v1c0-1.5511999 1.2495813-2.8007812 2.8007812-2.8007812h50.3984378c1.5512 0 2.800781 1.2495813 2.800781 2.8007812v-1c0-1.5511999-1.249581-2.8007812-2.800781-2.8007812z" fill="#fff" opacity=".2"/></svg>