<svg height="64" width="64" xmlns="http://www.w3.org/2000/svg"><circle cx="32" cy="33" opacity=".2" r="28"/><circle cx="32" cy="32" fill="#4f4f4f" r="28"/><path d="m32 14a3 3 0 0 0 -3 3 3 3 0 0 0 3 3 3 3 0 0 0 3-3 3 3 0 0 0 -3-3zm-19.599609 4 12.599609 8.5 6 30.300781v-23.800781h2v23.800781l6-30.300781 12.599609-8.5-18.599609 5.353516v5.646484h-2v-5.646484z" opacity=".2"/><path d="m32 13a3 3 0 0 0 -3 3 3 3 0 0 0 3 3 3 3 0 0 0 3-3 3 3 0 0 0 -3-3zm-19.599609 4 12.599609 8.5 6 30.300781v-23.800781h2v23.800781l6-30.300781 12.599609-8.5-18.599609 5.353516v5.646484h-2v-5.646484z" fill="#f68220"/><path d="m32 4a28 28 0 0 0 -28 28 28 28 0 0 0  .0214844.585938 28 28 0 0 1 27.9785156-27.585938 28 28 0 0 1 27.978516 27.414062 28 28 0 0 0  .021484-.414062 28 28 0 0 0 -28-28z" fill="#fff" opacity=".1"/><path d="m32 13a3 3 0 0 0 -3 3 3 3 0 0 0  .042969.486328 3 3 0 0 1 2.957031-2.486328 3 3 0 0 1 2.957031 2.513672 3 3 0 0 0  .042969-.513672 3 3 0 0 0 -3-3zm-19.599609 4 2.585937 1.744141 16.013672 4.609375v-1zm39.199218 0-18.599609 5.353516v1l16.013672-4.609375zm-20.599609 11v1h2v-1z" fill="#fff" opacity=".2"/></svg>