<svg height="64" viewBox="0 0 64 64" width="64" xmlns="http://www.w3.org/2000/svg"><circle cx="32" cy="33" opacity=".2" r="28"/><circle cx="32" cy="32" fill="#248afd" r="28"/><path d="m31.976562 13.001953a20 20 0 0 0 -19.976562 19.998047 20 20 0 0 0 20 20 20 20 0 0 0 20-20 20 20 0 0 0 -10.095703-17.345703 5.0005 5.0005 0 0 1  .056641.720703v3.802734a14 14 0 0 1 4.039062 9.822266 14 14 0 0 1 -14 14 14 14 0 0 1 -14-14 14 14 0 0 1 11.318359-13.728516c.639312-.794537 1.357101-1.686223 1.675782-2.091796.293245-.373205.575917-.718774.851562-1.035157.04028-.04623.09053-.09715.130859-.142578zm4.271485 3c-.09589-.0068-.180937.000988-.238281.02734-.101632.04671-.587194.607985-1.083985 1.240234-.496787.632246-1.581032 1.982156-2.410156 3.00586-.829127 1.023702-2.404411 2.98478-3.496094 4.353515-2.144694 2.688975-2.486544 3.230674-2.839843 4.507813-.220647.797652-.240072 2.085678-.04297 2.833984.540369 2.051399 2.346311 3.589323 4.675781 3.984375.105893.018.47176.04007.810547.04492 1.411517.02114 2.6133-.475377 3.630859-1.501953.536297-.541048.684017-.754087 1.013672-1.445313.212417-.445367.443188-1.0387.515625-1.316406.185834-.712295.27439-2.183062.177735-5.550781v-9.810547c-.03794-.198818-.425213-.352707-.712891-.373047z" opacity=".2"/><path d="m31.976562 12.001953a20 20 0 0 0 -19.976562 19.998047 20 20 0 0 0 20 20 20 20 0 0 0 20-20 20 20 0 0 0 -10.095703-17.345703 5.0005 5.0005 0 0 1  .056641.720703v3.802734a14 14 0 0 1 4.039062 9.822266 14 14 0 0 1 -14 14 14 14 0 0 1 -14-14 14 14 0 0 1 11.318359-13.728516c.639312-.794537 1.357101-1.686223 1.675782-2.091796.293245-.373205.575917-.718774.851562-1.035157.040281-.046233.090527-.097149.130859-.142578zm4.271485 3c-.09589-.0068-.180937.000988-.238281.027344-.101632.04671-.587194.607985-1.083985 1.240234-.496787.632246-1.581032 1.982156-2.410156 3.00586-.829127 1.023702-2.404411 2.98478-3.496094 4.353515-2.144694 2.688975-2.486544 3.230674-2.839843 4.507813-.220647.797652-.240072 2.085678-.042969 2.833984.540369 2.051399 2.346311 3.589323 4.675781 3.984375.105893.018.47176.040072.810547.044922 1.411517.02114 2.6133-.475377 3.630859-1.501953.536297-.541048.684017-.754087 1.013672-1.445313.212417-.445367.443188-1.0387.515625-1.316406.185834-.712295.27439-2.183062.177735-5.550781v-9.810547c-.03794-.198818-.425213-.352707-.712891-.373047z" fill="#fff"/><path d="m32 4a28 28 0 0 0 -28 28 28 28 0 0 0  .0214844.585938 28 28 0 0 1 27.9785156-27.585938 28 28 0 0 1 27.978516 27.414062 28 28 0 0 0  .021484-.414062 28 28 0 0 0 -28-28z" fill="#fff" opacity=".2"/></svg>