<svg height="64" width="64" xmlns="http://www.w3.org/2000/svg"><path d="m54 58.212122v-40.424243c0-1.544485-1.2265-2.787879-2.75-2.787879h-38.5c-1.5235 0-2.75 1.243394-2.75 2.787879v40.424243c0 1.544484 1.2265 2.787878 2.75 2.787878h38.5c1.5235 0 2.75-1.243394 2.75-2.787878z" opacity=".2"/><path d="m54 57.212122v-40.424243c0-1.544485-1.2265-2.787879-2.75-2.787879h-38.5c-1.5235 0-2.75 1.243394-2.75 2.787879v40.424243c0 1.544484 1.2265 2.787878 2.75 2.787878h38.5c1.5235 0 2.75-1.243394 2.75-2.787878z" fill="#e4e4e4"/><path d="m54 16v-5.333333c0-1.4773336-1.2265-2.666667-2.75-2.666667h-38.5c-1.5235 0-2.75 1.1893334-2.75 2.666667v5.333333z" fill="#4f4f4f"/><path d="m14.171875 5c-.648971 0-1.171875.5438196-1.171875 1.21875v5.5625c0 .67493.522904 1.21875 1.171875 1.21875h2.65625c.648971 0 1.171875-.54382 1.171875-1.21875v-5.5625c0-.6749304-.522904-1.21875-1.171875-1.21875zm11 0c-.648973 0-1.171875.5438196-1.171875 1.21875v5.5625c0 .67493.522902 1.21875 1.171875 1.21875h2.65625c.648972 0 1.171875-.54382 1.171875-1.21875v-5.5625c0-.6749304-.522903-1.21875-1.171875-1.21875zm11 0c-.648973 0-1.171875.5438196-1.171875 1.21875v5.5625c0 .67493.522902 1.21875 1.171875 1.21875h2.65625c.648972 0 1.171875-.54382 1.171875-1.21875v-5.5625c0-.6749304-.522903-1.21875-1.171875-1.21875zm11 0c-.648973 0-1.171875.5438196-1.171875 1.21875v5.5625c0 .67493.522902 1.21875 1.171875 1.21875h2.65625c.648972 0 1.171875-.54382 1.171875-1.21875v-5.5625c0-.6749304-.522903-1.21875-1.171875-1.21875z" opacity=".2"/><path d="m14.171875 4c-.648971 0-1.171875.5438196-1.171875 1.21875v5.5625c0 .67493.522904 1.21875 1.171875 1.21875h2.65625c.648971 0 1.171875-.54382 1.171875-1.21875v-5.5625c0-.6749304-.522904-1.21875-1.171875-1.21875zm11 0c-.648973 0-1.171875.5438196-1.171875 1.21875v5.5625c0 .67493.522902 1.21875 1.171875 1.21875h2.65625c.648972 0 1.171875-.54382 1.171875-1.21875v-5.5625c0-.6749304-.522903-1.21875-1.171875-1.21875zm11 0c-.648973 0-1.171875.5438196-1.171875 1.21875v5.5625c0 .67493.522902 1.21875 1.171875 1.21875h2.65625c.648972 0 1.171875-.54382 1.171875-1.21875v-5.5625c0-.6749304-.522903-1.21875-1.171875-1.21875zm11 0c-.648973 0-1.171875.5438196-1.171875 1.21875v5.5625c0 .67493.522902 1.21875 1.171875 1.21875h2.65625c.648972 0 1.171875-.54382 1.171875-1.21875v-5.5625c0-.6749304-.522903-1.21875-1.171875-1.21875z" fill="#f7c13e"/><path d="m14.171875 4c-.648971 0-1.171875.5438196-1.171875 1.21875v1c0-.6749304.522904-1.21875 1.171875-1.21875h2.65625c.648971 0 1.171875.5438196 1.171875 1.21875v-1c0-.6749304-.522904-1.21875-1.171875-1.21875zm11 0c-.648973 0-1.171875.5438196-1.171875 1.21875v1c0-.6749304.522902-1.21875 1.171875-1.21875h2.65625c.648972 0 1.171875.5438196 1.171875 1.21875v-1c0-.6749304-.522903-1.21875-1.171875-1.21875zm11 0c-.648973 0-1.171875.5438196-1.171875 1.21875v1c0-.6749304.522902-1.21875 1.171875-1.21875h2.65625c.648972 0 1.171875.5438196 1.171875 1.21875v-1c0-.6749304-.522903-1.21875-1.171875-1.21875zm11 0c-.648973 0-1.171875.5438196-1.171875 1.21875v1c0-.6749304.522902-1.21875 1.171875-1.21875h2.65625c.648972 0 1.171875.5438196 1.171875 1.21875v-1c0-.6749304-.522903-1.21875-1.171875-1.21875z" fill="#fff" opacity=".2"/><path d="m22.998572 28.857159a1.9999064 1.9999064 0 0 0 -1.392722 3.433863l7.629694 7.629758-7.629694 7.627175a1.9999112 1.9999112 0 1 0 2.828336 2.828267l7.627171-7.629629 7.629693 7.629629a1.9999112 1.9999112 0 1 0 2.828336-2.828267l-7.627171-7.627175 7.627171-7.629758a1.9999112 1.9999112 0 1 0 -2.828336-2.828267l-7.629693 7.627175-7.627171-7.627175a1.9999064 1.9999064 0 0 0 -1.435614-.605596z" opacity=".2"/><path d="m22.998572 27.857152a1.9999064 1.9999064 0 0 0 -1.392722 3.433863l7.629694 7.629758-7.629694 7.627175a1.999911 1.999911 0 0 0 2.828336 2.828267l7.627171-7.629629 7.629693 7.629629a1.9999109 1.9999109 0 1 0 2.828336-2.828267l-7.627171-7.627175 7.627171-7.629758a1.9999109 1.9999109 0 0 0 -2.828336-2.828267l-7.629693 7.627175-7.627171-7.627175a1.9999064 1.9999064 0 0 0 -1.435614-.605596z" fill="#4f4f4f"/></svg>