<svg height="64" width="64" xmlns="http://www.w3.org/2000/svg"><g fill-rule="evenodd"><path d="m59.999978 31.999716c0 15.463602-12.535728 27.99933-27.99933 27.99933-11.577412 0-12.8599-7.188446-17.122892-17.20976-1.430959-3.363858-10.876439-6.903378-10.876439-10.78957 0-15.463604 12.535727-27.9993311 27.999331-27.9993311 7.321928 0 13.897992 5.3717595 18.887151 9.9727711 5.547729 5.11613 9.112179 9.884886 9.112179 18.02656z" fill="#e14e4e"/><path d="m32.000648 5.0008021v19.9995369c10.062733 0 19.504168 1.12163 27.667327 3.843661a27.999352 27.999352 0 0 0 -27.667327-23.8431979z" opacity=".1"/><path d="m32.000648 4.0003421v19.9995369c10.062733 0 19.504168 1.12163 27.667327 3.843661a27.999352 27.999352 0 0 0 -27.667327-23.8431979z" fill="#4f4f4f"/><path d="m32 4a27.999352 27.999352 0 0 0 -27.9980469 28 27.999352 27.999352 0 0 0  .0175781.492188 27.999352 27.999352 0 0 1 27.9804688-27.492188 27.999352 27.999352 0 0 1 27.974609 27.492188 27.999352 27.999352 0 0 0  .025391-.492188 27.999352 27.999352 0 0 0 -28-28z" fill="#fff" opacity=".1"/><path d="m32.000648 23.999879c-9.973759 0-19.524862 1.108046-27.6438913 3.777257a27.999352 27.999352 0 0 0 -.3554605 4.222558 27.999352 27.999352 0 0 0 22.4369808 27.440771 27.999352 27.999352 0 0 0 2.761654.41796c.922688.09151 1.855351.140621 2.800717.140621z" fill="#4f4f4f"/><path d="m14.583082 5.0147102c-.185721.0152-.376275.047515-.562487.1015597-1.489689.4323555-2.338561 1.9789801-1.906205 3.4686697l8.90995 30.6906964v.0156c.969096 5.715602-.543865 7.818011-2.933526 7.710783-2.330774-.104597-4.895149-3.10153-7.47639-3.800694-2.5767137-.697937-5.7901069 2.452024-6.5115678 5.406125-.2622575 1.073841.01234 2.071098.4257716 3.050712 1.5032872 3.561803 10.2602092 9.472754 28.7883952 9.339627 21.778106-.156476 24.905656-7.84287 26.155645-10.652097 1.323405-2.974215.0926-7.919633-3.050709-9.06229-1.910482-.6945-6.784229.478003-9.620872 1.581995-2.870131 1.117024-7.986619 2.213337-12.019253 2.136669-3.9713-.07666-6.456467-3.463934-7.667791-5.886582-.586236-1.172475-1.328105-3.513739-1.937455-5.601434l-.09374-.332023c-.573233-1.991663-1.035132-3.757725-1.035132-3.757725l-.05078.0118-6.503765-22.4097196c-.378311-1.3034784-1.610029-2.1180227-2.910089-2.0116722z" opacity=".2"/><path d="m33.317005 59.996952c21.778106-.156477 24.907356-7.846435 26.157345-10.655662 1.323405-2.974215.09046-7.91913-3.052851-9.061788-1.91048-.6945-6.783297.477535-9.61994 1.581528-2.870131 1.117024-7.986797 2.215054-12.019431 2.138386-3.9713-.07666-6.455281-3.46338-7.666605-5.886028-1.199306-2.398614-3.066641-9.690585-3.066641-9.690585l-5.248163 1.296998s1.821096 6.176539 2.225285 8.551462c.974875 5.728153-.544591 7.835428-2.936572 7.728097-2.330774-.104598-4.892588-3.100526-7.473829-3.79969-2.5767137-.697938-5.7896017 2.452261-6.5110626 5.406363-.2622578 1.073841.01032 2.069404.4237604 3.049017 1.5032872 3.561804 10.2605182 9.475029 28.7887042 9.341902z" fill="#e4e4e4"/></g><rect fill="#e4e4e4" height="47.599" rx="2.8" transform="matrix(.96036951 -.27872999 .27872999 .96036951 0 0)" width="5.6" x="9.52" y="7.86"/><path d="m14.582031 4.0117188c-.185722.0151929-.374335.0494711-.560547.1035156-1.392631.4041864-2.213316 1.7828052-1.96289 3.1777344.186692-1.005968.909491-1.8720041 1.96289-2.1777344.186212-.0540446.374825-.0883226.560547-.1035156 1.300059-.1063506 2.531845.7082404 2.910157 2.0117187l6.503906 22.4121095.052734-.013672s.453664 1.730311.996094 3.626953l.166016.572266c.603416 2.060045 1.328113 4.339819 1.904296 5.492187 1.211324 2.422648 3.694716 5.810059 7.666016 5.886719 4.032634.076668 9.1494-1.021648 12.019531-2.138672 2.836643-1.103993 7.710614-2.276531 9.621094-1.582031 2.143629.779252 3.396815 3.327343 3.558594 5.8125.157034-2.764416-1.124486-5.927652-3.558594-6.8125-1.91048-.6945-6.784451.478038-9.621094 1.582031-2.870131 1.117024-7.986897 2.21534-12.019531 2.138672-3.9713-.07666-6.454692-3.464071-7.666016-5.886719-.576183-1.152368-1.300879-3.432142-1.904296-5.492187l-.166016-.572266c-.54243-1.896642-.996094-3.626953-.996094-3.626953l-.052734.013672-6.503906-22.4121095c-.378312-1.3034783-1.610098-2.1180693-2.910157-2.0117187zm6.728516 37.9355472c-.137302 2.975153-1.434768 4.132871-3.220703 4.052734-2.330774-.104598-4.893369-3.101617-7.47461-3.800781-2.5767129-.697938-5.7883044 2.452148-6.5097652 5.40625-.1188125.486489-.1183611.955905-.0546876 1.416015.0169425-.13863.0202029-.274814.0546876-.416015.7214608-2.954102 3.9330523-6.104188 6.5097652-5.40625 2.581241.699164 5.143836 3.696183 7.47461 3.800781 1.972735.088519 3.345358-1.339022 3.220703-5.052734z" fill="#fff" fill-rule="evenodd" opacity=".2"/></svg>