<svg height="64" width="64" xmlns="http://www.w3.org/2000/svg"><path d="m4 56v2c0 1.662 1.338 3 3 3h50c1.662 0 3-1.338 3-3v-2c0 1.662-1.338 3-3 3h-50c-1.662 0-3-1.338-3-3z" opacity=".2"/><rect fill="#d95951" height="56" rx="3" transform="matrix(0 -1 -1 0 0 0)" width="56" x="-60" y="-60"/><path d="m7 4c-1.662 0-3 1.338-3 3v1c0-1.662 1.338-3 3-3h50c1.662 0 3 1.338 3 3v-1c0-1.662-1.338-3-3-3z" fill="#fff" opacity=".1"/><path d="m21.296 15.00038-7.296 31.9998h5.9288l3.444-14h16.184l-15.1562 12.64982 3.952 4.55 2.024-1.042c3.827-1.96772 5.4322-.81716 8.3358-.0116 2.8248.78392 5.4802 1.62292 10.9898-1.55284l-1.09412-5.6052c-6.0128 4.2752-7.915.46088-12.1974.30946l12.2604-9.57382 1.33034-4.72382h-25.682l1.6532-8h16.833l1.15438-4.99878h-22.662z" opacity=".2"/><path d="m21.296 14.0002-7.296 31.9998h5.9288l3.444-14h16.184l-15.1562 12.64982 3.952 4.55 2.024-1.042c3.827-1.96772 5.4322-.81716 8.3358-.0116 2.8248.78392 5.4802 1.62292 10.9898-1.55284l-1.09412-5.6052c-6.0128 4.2752-7.915.46088-12.1974.30946l12.2604-9.57382 1.33034-4.72382h-25.682l1.6532-8h16.833l1.15438-4.99878h-22.662z" fill="#fff"/></svg>