<svg height="64" viewBox="0 0 64 64" width="64" xmlns="http://www.w3.org/2000/svg"><g transform="translate(0 -988.3622)"><rect height="56" opacity=".2" rx="28" transform="matrix(0 -1 -1 0 0 0)" width="56" x="-1049.36" y="-60"/><rect fill="#484bb6" height="56" rx="28" transform="matrix(0 -1 -1 0 0 0)" width="56" x="-1048.36" y="-60"/><path d="m32.144922 993.7622-3.24297.36914-4.003125 1.09922-.757421.73555 2.485546 1.71445v.97891l-1.626954.9789 1.955079 2.57303.864063-.4894 1.082812-1.7145c1.671418-.51659 3.169157-1.10291 4.757813-1.83749l1.140233-3.30586zm-7.678125.24609-1.397266.19961-.661719.65625-1.085547.1586-.967968.4539-.470314.22696-.287109.38554 1.405469.24336.541406-.48945 1.082813-.24336c.74119-.36037 1.485818-.60431 2.272265-.85859zm-6.384766 2.93672-.216016.48946.106638 1.225-.864063.73554-.541407 1.34529h1.082813l.541407-1.22224c.466588-.32987.930247-.66412 1.405468-.98164l1.082812.36914c.720958.48967 1.441337.97943 2.162891 1.46834l1.082813-.97889-1.192188-.48945-.541405-1.10195-2.05625-.2461-.106638-.6125-.973438.2461-.432032.85586zm27.710155.97891-2.05078.49219-1.304298.85586v.73553l-2.050781 1.3453.429297 1.9606 1.194923-.8586.754686.8586.864064.4894.541405-1.4683-.322655-.8586.322655-.6125 1.189454-1.5012h.541406l-.541406 1.6242v1.102c.497111-.1353 1.008852-.1802 1.517577-.2434l-1.408202.9789-.106638.6125-1.621484 1.3453-1.626954-.3664v-.9789l-.757421.4895.328125 1.1357h-1.192189l-.648046.8221-.814844.916-1.457421.309.864061.8531.21875.8559h-1.082811l-1.372661.7355v2.2067h.615238l.593359.6726 1.353516-.6726.538673-1.3481.976171-.6125.216015-.4894 1.621485-.3637.866797.9762.973437.4894-.541405 1.102.866796-.2461.432031-1.0965-1.082812-1.225h.434766l1.082812.8531.216016 1.225.970702 1.102.216016-1.5942.544141-.2433c.534915.5551.954939 1.3871 1.405468 2.0119l1.621485.123.976172.4354-.434766.6125-.973437.8906h-1.405469l-1.840235-.6445-.973436.1203-.7.7984-2.004298-2.0207-1.408202-.3664-2.05625.2434-1.840235.4894c-1.032025 1.1697-2.911015 2.3345-3.887808 3.5492l-1.189453 2.8192.541407.6098-.973438 1.4683 1.082813 2.5731c.919951 1.0403 2.69849 2.0788 3.617104 3.1199l1.35625-1.1621.59336.6754 1.457421-.9188.489454.6461h2.462455l.836719.8523-.516798 1.6844 1.03086 1.1621-.05468 2.0207.757422 1.4711-.809379 1.2223c-.05389.9008-.0547 1.7952-.0547 2.6961.443374 1.2205 1.181778 2.4375 1.600443 3.6668l.414182 1.9605v.9817h.178293l.591892-.7356h1.025391c.382435-.2663.750283-.5521 1.118359-.8367l1.369922-1.5504-.26797-.7957 1.408204-1.2277-1.030859-1.1594 1.246875-1.0391 1.050007-.7382.541407-.6071-.325391-1.3535v-3.4234l1.112882-2.0836 1.189454-1.3453 1.298828-3.1828v-.8586c-.639755.081-1.263658.1459-1.889453.1914l1.29336-1.2934 1.785546-1.225.976172-1.0992v-1.225c-.216551-.4083-.43275-.8167-.650782-1.225l-.866796.9789-.648047-.7328-.973437-.7356v-1.5914l1.1375 1.2852 1.24414-.1832c.566763.5144 1.124375 1.0058 1.621485 1.5914l.123046-.1395c-.598407-6.497-3.408972-12.3237-7.66171-16.759-.234885-.2406-.482766-.4996-.675391-.689-.32332-.31474-.66251-.61171-1.000781-.91056l-.30625.50313-1.082812 1.22503-1.405468-1.7473h1.405468l.650782-.45664-2.597657-.48945zm-30.583984.041c-.158377.11872-.320048.23349-.47578.35547l.21328.95157s-.989474.10862-1.561328.1832c-5.7457778 5.11594-9.3772329 12.55024-9.3843747 20.88244.2253523.371.4484375.7246.4484375.7246l2.2722657 1.3453 2.275.6152.9707031 1.225 1.5148434 1.0993.866797-.1204.648047.2926v.1969l-.864062 2.3242-.650782.9817.216016.4894-.697266 1.8348 2.102734 3.5519 1.389435 1.7118.864063 1.2222-.106638 2.5731 1.208222 1.4683-.358204 1.5531c1.248478.8604 2.579647 1.6045 3.964844 2.2559l.50586-.5031.322655-.8559 1.408204-.4922 1.298824-2.6933-.541403-.7328.754689-1.5226 1.423468-.3692.962496-1.5371-.311715-2.4446 1.977092-1.8375.21875-1.8375c-1.776196-.8805-4.019243-1.7868-5.7822-2.6933l-.866798-1.7145-1.621484-.1667-.864063-2.0237-2.162891.2434-1.840234-2.1397-1.94961 2.0059v.2707c-.589393-.1701-1.312719-.1915-1.837502-.5141l-.434766-1.225v-1.348l-1.2988277.123c.1083516-.8573.2190318-1.7131.328125-2.5703h-.7574218l-.7574219.9789-.757422.3664-1.0828125-.6098-.109375-1.348.2160157-1.4684 1.6242188-1.225h1.2960937l.2160157-.7355 1.624219.3664 1.04919 1.4711.21875-2.45 2.196512-1.7117.757423-2.3502 1.512109-.053.866797-.7069 1.946875-.3719.973437-1.4656h-2.920312l1.840234-1.4292h1.296094l1.840234-.6016.216016-.7328-.65078-.6125-.757423-.2461.21875-.7328-.541406-1.1019-1.298828.4867.216016-.9789-1.514845-.8559-1.186718 2.0809.106638.7355-1.192187.4895-.757423 1.5914-.322656-1.4684-2.05625-.8586-.325391-1.1019 2.704297-1.5914 1.192187-1.10199.106638-1.34531-.648046-.36914zm21.15978.87357-1.567076.48945-.708682-.12305h-.0028l-.109382.73555 1.039542.48946 1.996373-.8586-.648047-.73281zm-15.581655.92292-.864062.61249 1.080078.7356h.866797v-.8586zm17.092579 2.81639v.7356l.434766.4894v1.102l-.21875 1.4683 1.192186-.2433.864064-.8586-.757423-.7328c-.254355-.6772-.545713-1.3111-.864063-1.9606zm-.429298 1.4684-.760156.2461.21875 1.3453.970704-.4867zm-14.929686 2.2066.322655 1.709.648047-.9762zm28.248827 9.5457 1.246875 1.4082 1.460157 3.12.864062.9816-.434766 1.0992.823047.9324c-.377899.026-.7544.052-1.142968.052-.688953-1.4473-1.206204-2.8965-1.730859-4.4106l-1.200939-1.039-.486719-1.7774z" opacity=".3"/><path d="m32 992.3622c-15.512 0-27.9999996 12.488-27.9999996 28 0 .1135.01128.2241.017578.3359.3515433-15.2017 12.6931496-27.3359 27.9824216-27.3359s27.630879 12.1342 27.982422 27.3359c.0063-.1118.01758-.2224.01758-.3359 0-15.512-12.488-28-28-28z" fill="#fff" opacity=".1"/><g fill-rule="evenodd"><path d="m55.429714 997.07693c-1.677885.65592-3.677395 1.62207-5.640049 2.63424-1.962654 1.01233-3.886002 2.07153-5.387953 2.91473-1.501951.843-2.631087 1.4922-2.837326 1.5987-.665894.3435-4.000348 2.2699-7.772988 4.7225-3.772639 2.4521-7.883438 5.3535-9.950411 7.6835-1.961875 2.2116-3.151962 3.5728-3.934688 5.0571-.782728 1.4843-1.11001 3.0351-1.379119 5.4922l-.02718.246.150764.1991c1.354605 1.7928 3.633012 4.7853 5.845188 6.5696l.165591.1317.212552.014c5.080715.1585 6.418456-.4882 11.467939-3.6548 2.657302-1.6665 6.181812-5.2247 9.201535-8.5176 3.019724-3.2929 5.440469-6.2361 5.884731-6.8327.149447-.2006.933523-1.1794 1.967346-2.5012 1.033821-1.3222 2.340347-3.0193 3.615859-4.7619 1.275514-1.7428 2.518823-3.5283 3.435437-5.0521.458309-.7619.836268-1.4565 1.097364-2.0635s.44117-1.10274.368258-1.64805c-.121207-.9063-.579591-1.4417-.847735-1.71666l.0075-.0135s-.0436-.0312-.04449-.0325c-.319467-.38475-.673053-.6312-1.043755-.81347-1.615925-.78022-3.125104-.16068-4.554333.34485z" opacity=".2"/><path d="m13.533147 1025.3673c-1.919736-.069-3.481754.5795-4.6128943 1.6277-1.1311409 1.0481-1.8417674 2.4663-2.2209273 3.9443-.6227668 2.427-.6634728 5.916-1.1402661 8.4958-.2368222 1.2809-1.3135288 3.2749-3.3300946 5.8583-.5150616.8657-.0001892.9777-.0001892.9777.2891.2061.813516.016 1.0773617-.1149 2.9723088-1.5082 4.7823151-2.7994 6.0935452-2.8597 2.6047106-.119 6.0423236.3149 8.5157126.028 1.606737-.186 3.199273-.7548 4.418531-1.8703 1.219257-1.1157 2.023124-2.1653 2.049887-4.3459.0023-.1811.06689-.4828.08292-.8476.01606-.365-.0638-.9066-.487203-1.2547-.459015-.3775-.992046-1.3246-1.516035-2.4024-.523988-1.0779-1.065419-2.2783-1.827019-3.2189l-.443147-.5478-.295432.2711c-.644605-.5602-1.315283-1.0747-1.899579-1.4736-.743162-.5069-1.332808-.9644-1.661163-1.5076-.770806-.8039-1.814144-.6886-2.804017-.7604z" opacity=".2"/><path d="m13.533147 1024.3672c-1.919736-.069-3.481754.5795-4.6128943 1.6277-1.1311409 1.0481-1.8417674 2.4663-2.2209273 3.9443-.6227668 2.427-.6634728 5.916-1.1402661 8.4958-.2368222 1.2809-1.3135288 3.2749-3.3300946 5.8583-.5150616.8657-.0001892.9777-.0001892.9777.2891.2061.813516.016 1.0773617-.1149 2.9723088-1.5082 4.7823151-2.7994 6.0935452-2.8597 2.6047106-.119 6.0423236.3149 8.5157126.028 1.606737-.186 3.199273-.7548 4.418531-1.8703 1.219257-1.1157 2.023124-2.1653 2.049887-4.3459.0023-.1811.06689-.4828.08292-.8476.01606-.365-.0638-.9066-.487203-1.2547-.459015-.3775-.992046-1.3246-1.516035-2.4024-.523988-1.0779-1.065419-2.2783-1.827019-3.2189l-.443147-.5478-.295432.2711c-.644605-.5602-1.315283-1.0747-1.899579-1.4736-.743162-.5069-1.332808-.9644-1.661163-1.5076-.770806-.8039-1.814144-.6886-2.804017-.7604z" fill="#9c7e40"/><path d="m13.533203 1024.3661c-1.919736-.069-3.482141.5788-4.6132811 1.627-1.1311409 1.0481-1.8415433 2.4653-2.2207031 3.9433-.6227668 2.427-.6638317 5.9163-1.140625 8.4961-.2368222 1.2809-1.3135124 3.276-3.3300782 5.8594-.5150616.8657 0 .9766 0 .9766h.013672c2.0063237-2.5736 3.0802074-4.5624 3.3164063-5.8399.4767933-2.5798.5178582-6.0691 1.140625-8.4961.3791598-1.478 1.0895622-2.8952 2.2207031-3.9433 1.13114-1.0482 2.693545-1.696 4.613281-1.627.989873.072 2.033882-.044 2.804688.7598.328355.5432.916994 1.0009 1.660156 1.5078.584296.3989 1.255786.9144 1.900391 1.4746l.294921-.2715.44336.5488c.7616.9406 1.302184 2.1409 1.826172 3.2188.523989 1.0778 1.058563 2.0248 1.517578 2.4023.256554.211.378124.4911.4375.7617.02062-.1608.03923-.2892.04883-.5078.01606-.365-.06292-.9058-.486328-1.2539-.459015-.3775-.993589-1.3245-1.517578-2.4023-.523988-1.0779-1.064572-2.2801-1.826172-3.2207l-.44336-.5469-.294921.2715c-.644605-.5602-1.316095-1.0757-1.900391-1.4746-.743162-.5069-1.331801-.9646-1.660156-1.5078-.770806-.8039-1.814815-.688-2.804688-.7598z" fill="#fff" opacity=".1"/><path d="m55.429714 996.0768c-1.677885.65592-3.677395 1.62207-5.640049 2.63424-1.962654 1.0123-3.886002 2.07156-5.387953 2.91476-1.501951.843-2.631087 1.4922-2.837326 1.5987-.665894.3435-4.000348 2.2699-7.772988 4.7225-3.772639 2.4521-7.883438 5.3535-9.950411 7.6835-1.961875 2.2116-3.151962 3.5728-3.934688 5.0571-.782728 1.4843-1.11001 3.0351-1.379119 5.4922l-.02718.246.150764.1991c1.354605 1.7928 3.633012 4.7853 5.845188 6.5696l.165591.1317.212552.014c5.080715.1585 6.418456-.4882 11.467939-3.6548 2.657302-1.6665 6.181812-5.2247 9.201535-8.5176 3.019724-3.2929 5.440469-6.2361 5.884731-6.8327.149447-.2006.933523-1.1794 1.967346-2.5012 1.033821-1.3222 2.340347-3.0193 3.615859-4.7619 1.275514-1.7428 2.518823-3.5283 3.435437-5.0521.458309-.7619.836268-1.4565 1.097364-2.06358.261096-.60692.44117-1.10269.368258-1.648-.121207-.9063-.579591-1.4417-.847735-1.71666l.0075-.0135s-.0436-.0312-.04449-.0325c-.319467-.38475-.673053-.6312-1.043755-.81347-1.615925-.78022-3.125104-.16068-4.554333.34485z" fill="#449b29"/><path d="m58.208984 995.36611c-.962271.0354-1.886028.39498-2.779296.71093-1.677886.65592-3.677971 1.6226-5.640626 2.63477-1.962654 1.0123-3.884767 2.07089-5.386718 2.91409-1.501951.843-2.631652 1.4911-2.837891 1.5976-.665894.3435-4.000797 2.2701-7.773437 4.7227-3.772639 2.4521-7.882246 5.3536-9.949219 7.6836-1.961875 2.2116-3.152821 3.5743-3.935547 5.0586-.782728 1.4843-1.109797 3.0351-1.378906 5.4922l-.02734.2461.107422.1406c.257249-2.0904.587224-3.5295 1.298828-4.8789.782726-1.4843 1.973672-2.847 3.935547-5.0586 2.066973-2.33 6.17658-5.2315 9.949219-7.6836 3.77264-2.4526 7.107543-4.3772 7.773437-4.7207.206239-.1065 1.33594-.7566 2.837891-1.5996 1.501951-.8432 3.424064-1.9018 5.386718-2.91409 1.962655-1.01217 3.96274-1.97885 5.640626-2.63477 1.429228-.50553 2.938762-1.12397 4.554687-.34375.370702.18227.723502.42775 1.042969.8125.00089.001.04492.0332.04492.0332l-.0078.0137c.243273.24945.630373.7276.792969 1.48828.06342-.25833.0899-.51009.05469-.77344-.121207-.9063-.579512-1.44183-.847656-1.71679l.0078-.0117s-.04403-.0319-.04492-.0332c-.31947-.38475-.67227-.63218-1.042972-.81445-.605972-.29258-1.198028-.38651-1.775391-.36523z" fill="#fff" opacity=".1"/></g><rect height="5.362" opacity=".2" rx="2.681" transform="matrix(.59329154 .80498767 -.80498767 .59329154 0 0)" width="16.087" x="833.76" y="591.83"/><rect fill="#ffc612" height="5.362" rx="2.681" transform="matrix(.59329154 .80498767 -.80498767 .59329154 0 0)" width="16.087" x="832.96" y="591.24"/><path d="m17.572266 1022.3642c-.515527.022-1.030141.1929-1.478516.5234-.858709.6329-1.221754 1.6731-1.037109 2.6523.122816-.638.470408-1.2346 1.037109-1.6523 1.195667-.8812 2.866817-.6273 3.748047.5684l6.363281 8.6328c.247949.3364.396138.7101.46875 1.0937.135566-.7075-.0057-1.4654-.46875-2.0937l-6.363281-8.6328c-.550769-.7473-1.410321-1.1277-2.269531-1.0918z" fill="#fff" opacity=".2"/></g></svg>