<svg height="64" width="64" xmlns="http://www.w3.org/2000/svg"><path d="m10 55v2c0 2.216 1.784 4 4 4h36c2.216 0 4-1.784 4-4v-2c0 2.216-1.784 4-4 4h-36c-2.216 0-4-1.784-4-4z" opacity=".2"/><rect fill="#8e8e8e" height="44" rx="4" transform="matrix(0 -1 -1 0 0 0)" width="56" x="-60" y="-54"/><path d="m32 12c-7.732 0-14 6.268-14 14v14h14c7.732 0 14-6.268 14-14s-6.268-14-14-14zm0 6a8 8 0 0 1 8 8 8 8 0 0 1 -8 8 8 8 0 0 1 -8-8 8 8 0 0 1 8-8z" opacity=".5"/><path d="m14 4c-2.216 0-4 1.784-4 4v1c0-2.216 1.784-4 4-4h36c2.216 0 4 1.784 4 4v-1c0-2.216-1.784-4-4-4z" fill="#fff" opacity=".1"/><path d="m63.958 45.848a16 16 0 0 1 -15.958 15.152 16 16 0 0 1 -15.958-14.848 16 16 0 0 0 -.042.848 16 16 0 0 0 16 16 16 16 0 0 0 16-16 16 16 0 0 0 -.04296-1.15234z" opacity=".2"/><circle cx="48" cy="46" fill="#8561c5" fill-rule="evenodd" r="16"/><path d="m46 38-.1764 2.1072a6.2858 6.2858 0 0 0 -1.83704 1.06252l-1.91518-.9018-2 3.4642 1.73882 1.2076a6.2858 6.2858 0 0 0 -.096 1.06026 6.2858 6.2858 0 0 0  .0914 1.06474l-1.73438 1.20312 2 3.4642 1.91072-.89956a6.2858 6.2858 0 0 0 1.8415 1.0558l.1764 2.1116h4l .1764-2.1072a6.2858 6.2858 0 0 0 1.83708-1.06252l1.91516.9018 2-3.4642-1.73884-1.2076a6.2858 6.2858 0 0 0  .096-1.06026 6.2858 6.2858 0 0 0 -.0914-1.06474l1.73438-1.20312-2-3.4642-1.91072.89956a6.2858 6.2858 0 0 0 -1.842-1.056l-.176-2.112h-4zm2 5.7144a2.2858 2.2858 0 0 1 2.286 2.286 2.2858 2.2858 0 0 1 -2.286 2.286 2.2858 2.2858 0 0 1 -2.286-2.286 2.2858 2.2858 0 0 1 2.286-2.286z" fill="#fff"/></svg>