<svg height="64" viewBox="0 0 64 64" width="64" xmlns="http://www.w3.org/2000/svg"><path d="m13.371094 13a2.1384888 2.4128552 0 0 0 -2.064453 1.779297l-8.2324222 34.173828a2.1384888 2.4128552 0 0 0 2.0644531 3.046875h9.4921871a2.1384888 2.4128552 0 0 0 2.0625-1.78125l8.232422-34.173828a2.1384888 2.4128552 0 0 0 -2.0625-3.044922zm18 0a2.1384888 2.4128552 0 0 0 -2.064453 1.779297l-8.232422 34.173828a2.1384888 2.4128552 0 0 0 2.064453 3.046875h9.492187a2.1384888 2.4128552 0 0 0 2.0625-1.78125l8.232422-34.173828a2.1384888 2.4128552 0 0 0 -2.0625-3.044922zm18 0a2.1384889 2.4128552 0 0 0 -2.064453 1.779297l-8.232422 34.173828a2.1384889 2.4128552 0 0 0 2.064453 3.046875h9.492187a2.1384889 2.4128552 0 0 0 2.0625-1.78125l8.232422-34.173828a2.1384889 2.4128552 0 0 0 -2.0625-3.044922z" opacity=".2"/><path d="m13.371746 12.000001a2.1384888 2.4128552 0 0 0 -2.065191 1.778831l-8.2315232 34.174772a2.1384888 2.4128552 0 0 0 2.0631021 3.046396h9.4927721a2.1384888 2.4128552 0 0 0 2.063101-1.781187l8.231527-34.174773a2.1384888 2.4128552 0 0 0 -2.063101-3.044039z" fill="#dd2f38"/><path d="m49.371747 12.000001a2.1384889 2.4128552 0 0 0 -2.065191 1.778831l-8.231523 34.174772a2.1384889 2.4128552 0 0 0 2.063102 3.046396h9.492773a2.1384889 2.4128552 0 0 0 2.063101-1.781187l8.231526-34.174773a2.1384889 2.4128552 0 0 0 -2.063101-3.044039z" fill="#0766b5"/><path d="m31.371748 12.000001a2.1384888 2.4128552 0 0 0 -2.065191 1.77883l-8.231524 34.174773a2.1384888 2.4128552 0 0 0 2.063103 3.046396h9.492772a2.1384888 2.4128552 0 0 0 2.063101-1.781187l8.231526-34.174774a2.1384888 2.4128552 0 0 0 -2.0631-3.044038z" fill="#27a74e"/><path d="m13.371094 12a2.1384888 2.4128552 0 0 0 -2.064453 1.779297l-8.2324222 34.173828a2.1384888 2.4128552 0 0 0 -.0273438 1.138672 2.1384888 2.4128552 0 0 1  .0273438-.138672l8.2324222-34.173828a2.1384888 2.4128552 0 0 1 2.064453-1.779297h9.492187a2.1384888 2.4128552 0 0 1 2.087891 1.910156 2.1384888 2.4128552 0 0 0 -2.087891-2.910156zm18 0a2.1384888 2.4128552 0 0 0 -2.064453 1.779297l-8.232422 34.173828a2.1384888 2.4128552 0 0 0 -.027344 1.138672 2.1384888 2.4128552 0 0 1  .027344-.138672l8.232422-34.173828a2.1384888 2.4128552 0 0 1 2.064453-1.779297h9.492187a2.1384888 2.4128552 0 0 1 2.087891 1.910156 2.1384888 2.4128552 0 0 0 -2.087891-2.910156zm18 0a2.1384889 2.4128552 0 0 0 -2.064453 1.779297l-8.232422 34.173828a2.1384889 2.4128552 0 0 0 -.027344 1.138672 2.1384889 2.4128552 0 0 1  .027344-.138672l8.232422-34.173828a2.1384889 2.4128552 0 0 1 2.064453-1.779297h9.492187a2.1384889 2.4128552 0 0 1 2.087891 1.910156 2.1384889 2.4128552 0 0 0 -2.087891-2.910156z" fill="#fff" opacity=".2"/></svg>