<svg height="32" width="32" xmlns="http://www.w3.org/2000/svg"><g fill-rule="evenodd"><path d="m19.185547 18.304687v11.796875h5.339844c3.08865 0 5.576171-2.487521 5.576171-5.576172v-6.220703z" fill="#999"/><path d="m13.423828 1.898437h-5.951172c-3.088651 0-5.574219 2.485568-5.574219 5.5742189v5.2714841h11.525391z" fill="#999"/><path d="m13.423828 1.898437v10.845703h5.761719v5.560547h10.916015v-10.8320311c0-3.0886509-2.487521-5.5742189-5.576171-5.5742189z" fill="#c2c2c2"/></g><path d="m25.449933 11.021824v.63757h-5.9932c.0567.89732.32586 1.5821.80759 2.0544.48644.46756 1.1618.70133 2.0261.70133.5006 0 .98469-.06139 1.4522-.18418.47226-.12279.93982-.30698 1.4027-.55257v1.2326c-.46756.19836-.94692.34948-1.4381.45338s-.98942.15586-1.4948.15586c-1.2657 0-2.2693-.36838-3.0108-1.1051-.73675-.73675-1.1051-1.7332-1.1051-2.9895-.000007-1.2988.34948-2.3282998 1.0484-3.0886998.70369-.76508 1.6506-1.1476 2.8407-1.1476 1.0673.000007 1.9103.34477 2.529 1.0343.62339.6848.9351 1.6175.9351 2.7981998m-1.3035-.38254c-.0095-.7131298-.21018-1.2821998-.60215-1.7072998-.38727-.42504-.90205-.63756-1.5443-.63757-.72731.000007-1.3106.20544-1.7498.61632-.4345.41089-.6848.98942-.75092 1.7355998l4.6472-.0071m-1.5727-6.3189998h1.4381v1.431h-1.4381zm-2.7699 0h1.4381v1.431h-1.4381z" fill="#9d9d9d"/><path d="m19.185547 30.101562v-17.357422h-17.28711v11.78125c0 3.088651 2.485568 5.576172 5.574219 5.576172z" fill="#d3d3d3" fill-rule="evenodd"/><path d="m11.436542 22.856645c-1.1001.000011-1.8621999.12238-2.2864996.36713-.42425.24476-.63637.66227-.63637 1.2526 0 .47031.15786.84464.47358 1.123.32064.27355.7547497.41032 1.3022996.41032.75475 0 1.359-.25915 1.8129-.77744.45876-.5231.68815-1.2166.68816-2.0804v-.29514h-1.3541m2.716-.547v4.5999h-1.3615v-1.2238c-.31.49-.698.852-1.161 1.087-.464.231-1.031.346-1.7019999.346-.8489997 0-1.5239997-.23-2.0279997-.691-.498-.466-.747-1.087-.747-1.864 0-.90702.31078-1.5909.93235-2.0516.6265-.4607 1.5587997-.69106 2.7969996-.69106h1.9091v-.12958c-.000011-.60947-.20719-1.0798-.62156-1.4109-.40945-.33592-.98661-.5039-1.7315-.5039-.4735699.00001-.9348099.0552-1.3836996.16557-.44891.11038-.88055.27595-1.2949.4967v-1.2238c.49824-.18716.98167-.32632 1.4503-.41752.4686397-.09597.9249496-.14396 1.3688996-.14397 1.1987.00001 2.0941.30235 2.686.90702.59196.60469.88794 1.5213.88795 2.7499m-4.5869999-7.191 2.0866999 2.6923h-1.1321l-2.4119996-2.692h1.4576997" fill="#7e7e7e"/></svg>