<svg height="64" width="64" xmlns="http://www.w3.org/2000/svg"><path d="m60 33a28 28 0 0 1 -28 28 28 28 0 0 1 -28-28 28 28 0 0 1 28-28 28 28 0 0 1 28 28z" opacity=".2"/><path d="m60 32a28 28 0 0 1 -28 28 28 28 0 0 1 -28-28 28 28 0 0 1 28-28 28 28 0 0 1 28 28z" fill="#4f4f4f"/><path d="m32 16c-.81555 0-1.632987.03704-2.152344.111328-6.268773.896255-9.973084 3.930476-10.714844 8.775391-.08194.535299-.105981 1.48522-.11914 5.126953l-.013672 4.326172.179688.287109c.448979.71258 1.071975 1.213361 4.023437 3.246094 4.934366 3.398411 6.961861 4.637932 8.210937 5.015625.197127.0596.467952.109595.603516.111328.828983.01108 3.251959-1.338259 6.921875-3.855469 4.576648-3.139153 5.425084-3.790346 5.871094-4.501953l.189453-.302734v-3.56836c0-4.653312-.032658-5.477357-.251953-6.474609-.390982-1.778431-1.102187-3.184362-2.236328-4.408203-1.820408-1.964389-4.666785-3.249129-8.361328-3.777344-.519376-.074249-1.334843-.111328-2.150391-.111328zm0 6c3.999996 0 5.935833 2.357737 6.837891 5.246094.158809.508517.162109.529228.162109 2.597656 0 1.146847-.01817 2.10578-.04102 2.128906-.02285.02311-3.140811.03215-6.958984.02344-3.818171.0086-6.93612-.000428-6.958984-.02344-.022826-.02313-.041012-.982059-.041012-2.128906 0-2.068428.0033-2.089139.162109-2.597656.902068-2.888357 2.837895-5.246094 6.837891-5.246094zm13 15.339844-.189453.302734c-.44601.711607-1.294446 1.3628-5.871094 4.501953-3.669916 2.51721-6.092892 3.866549-6.921875 3.855469-.135564-.0017-.406389-.05173-.603516-.111328-1.249076-.377693-3.276571-1.617214-8.210937-5.015625-2.951462-2.032733-3.574459-2.533514-4.023437-3.246094l-.175782-.28125c.00006.142365.000335.745847 0 .804688-.0002.01787-.0039.0328-.0039.05078v6.601562c0 .06169.01525.113457.01758.173828l.01367 3.88086.195312.359375c.150177.2739.271305.398133.515626.539062l.318359.185547 5.179687.03125c2.848697.0168 8.182397.02903 11.851563.02734l6.671875-.0039.322266-.134766c.414537-.174654.536351-.279306.728515-.632812l.154297-.289063.0059-3.871094c.005331-.091032.025344-.171412.025344-.265626v-6.601562c0-.01249-.0038-.02272-.0039-.03516z" opacity=".2"/><path d="m32 15c-.81555 0-1.632987.037042-2.152344.111328-6.268773.896255-9.973084 3.930476-10.714844 8.775391-.081939.535299-.105981 1.48522-.11914 5.126953l-.013672 4.326172.179688.287109c.448979.71258 1.071975 1.213361 4.023437 3.246094 4.934366 3.398411 6.961861 4.637932 8.210937 5.015625.197127.0596.467952.109595.603516.111328.828983.01108 3.251959-1.338259 6.921875-3.855469 4.576648-3.139153 5.425084-3.790346 5.871094-4.501953l.189453-.302734v-3.56836c0-4.653312-.032658-5.477357-.251953-6.474609-.390982-1.778431-1.102187-3.184362-2.236328-4.408203-1.820408-1.964389-4.666785-3.249129-8.361328-3.777344-.519376-.074249-1.334843-.111328-2.150391-.111328zm0 6c3.999996 0 5.935833 2.357737 6.837891 5.246094.158809.508517.162109.529228.162109 2.597656 0 1.146847-.018166 2.10578-.041016 2.128906-.02285.02311-3.140811.032148-6.958984.023438-3.818171.0086-6.93612-.000428-6.958984-.023438-.02283-.02313-.041016-.982059-.041016-2.128906 0-2.068428.003282-2.089139.162109-2.597656.902068-2.888357 2.837895-5.246094 6.837891-5.246094zm13 15.339844-.189453.302734c-.44601.711607-1.294446 1.3628-5.871094 4.501953-3.669916 2.51721-6.092892 3.866549-6.921875 3.855469-.135564-.001733-.406389-.051728-.603516-.111328-1.249076-.377693-3.276571-1.617214-8.210937-5.015625-2.951462-2.032733-3.574459-2.533514-4.023437-3.246094l-.175782-.28125c.00006.142365.000335.745847 0 .804688-.0002.017873-.003906.032801-.003906.050781v6.601562c0 .061687.015249.113457.017578.173828l.013672 3.88086.195312.359375c.150177.2739.271305.398133.515626.539062l.318359.185547 5.179687.03125c2.848697.0168 8.182397.029034 11.851563.027344l6.671875-.003906.322266-.134766c.414537-.174654.536351-.279306.728515-.632812l.154297-.289063.005859-3.871094c.005378-.091031.025391-.171411.025391-.265625v-6.601562c0-.012488-.003809-.022719-.003906-.035156z" fill="#fff"/><path d="m32 4a28 28 0 0 0 -28 28 28 28 0 0 0  .0214844.585938 28 28 0 0 1 27.9785156-27.585938 28 28 0 0 1 27.978516 27.414062 28 28 0 0 0  .021484-.414062 28 28 0 0 0 -28-28z" fill="#fff" opacity=".1"/></svg>