<svg height="64" viewBox="0 0 16.93 16.93" width="64" xmlns="http://www.w3.org/2000/svg"><g transform="translate(0 -280.06665)"><circle cx="8.467" cy="288.798" opacity=".2" r="7.408"/><circle cx="8.467" cy="288.533" fill="#ff5836" r="7.408"/><path d="m8.9999666 284.03436c-.1327964-.002-.2464275.0949-.2656168.22635l-.4537186 2.95589c-1.0422611.0309-2.031202.32538-2.7770913.82682-.1976704-.19445-.463759-.30356-.7410402-.30386-.584504 0-1.058337.47384-1.0583333 1.05834.0002833.39473.2202133.7565.5705078.93844-.026125.12739-.039935.25583-.041341.38447-.000003 1.60738 1.8953256 2.91042 4.233333 2.91042 2.3380068 0 4.2333358-1.30304 4.2333328-2.91042-.0018-.12832-.01597-.25641-.04237-.38344.351023-.18183.571442-.54415.571541-.93947.000004-.5845-.473829-1.05834-1.058333-1.05834-.278143.00003-.545094.10956-.743108.30489-.705063-.47597-1.6300967-.76737-2.6148267-.82372l.4020423-2.60036 1.3756264.30593c.049.39731.386192.69596.786516.6966.438376 0 .79375-.35537.79375-.79375s-.355374-.79375-.79375-.79375c-.273018.00023-.526753.14077-.671794.37207l-1.6505451-.36587c-.017965-.004-.036324-.007-.054777-.007zm-1.8562171 4.76354c.438376 0 .79375.35537.79375.79375s-.355374.79375-.79375.79375-.7937499-.35537-.7937499-.79375.3553739-.79375.7937499-.79375zm2.6458332 0c .4383763 0 .7937503.35537.7937503.79375s-.355374.79375-.7937503.79375c-.438376 0-.79375-.35537-.79375-.79375s.355374-.79375.79375-.79375zm.5146973 2.37187c.246166-.0208.384887.27633.21084.45165 0 0-.17334.1839-.503329.3359-.3299885.15204-.8369047.29312-1.5513262.28112-.710303-.0121-1.2081932-.15263-1.5347896-.29663-.3265964-.1439-.5002281-.31316-.5002281-.31316-.1620204-.15892-.06191-.43469.1643311-.45268.00859-.00075.017215-.001.025839-.001.071641.00083.1398864.0307.1891358.0827 0 0 .07543.0847.335897.19947.2604669.1148.6866085.23812 1.3322183.25012.6414907.011 1.0586068-.11208 1.3156818-.23048.2570759-.11834.3327959-.21084.3327959-.21084.0455-.0554.111482-.0901.182935-.0961z" opacity=".2"/><path d="m8.9999666 283.76975c-.1327964-.002-.2464275.0949-.2656168.22635l-.4537186 2.95589c-1.0422611.0309-2.031202.32538-2.7770913.82682-.1976704-.19445-.463759-.30356-.7410402-.30386-.584504 0-1.058337.47384-1.0583333 1.05834.0002833.39473.2202133.7565.5705078.93844-.026125.12739-.039935.25583-.041341.38447-.000003 1.60738 1.8953256 2.91042 4.233333 2.91042 2.3380068 0 4.2333358-1.30304 4.2333328-2.91042-.0018-.12832-.01597-.25641-.04237-.38344.351023-.18183.571442-.54415.571541-.93947.000004-.5845-.473829-1.05834-1.058333-1.05834-.278143.00003-.545094.10956-.743108.30489-.705063-.47597-1.6300967-.76737-2.6148267-.82372l.4020423-2.60036 1.3756264.30593c.049.39731.386192.69596.786516.6966.438376 0 .79375-.35537.79375-.79375s-.355374-.79375-.79375-.79375c-.273018.00023-.526753.14077-.671794.37207l-1.6505451-.36587c-.017965-.004-.036324-.007-.054777-.007zm-1.8562171 4.76354c.438376 0 .79375.35537.79375.79375s-.355374.79375-.79375.79375-.7937499-.35537-.7937499-.79375.3553739-.79375.7937499-.79375zm2.6458332 0c .4383763 0 .7937503.35537.7937503.79375s-.355374.79375-.7937503.79375c-.438376 0-.79375-.35537-.79375-.79375s.355374-.79375.79375-.79375zm.5146973 2.37187c.246166-.0208.384887.27633.21084.45165 0 0-.17334.1839-.503329.3359-.3299885.15204-.8369047.29312-1.5513262.28112-.710303-.0121-1.2081932-.15263-1.5347896-.29663-.3265964-.1439-.5002281-.31316-.5002281-.31316-.1620204-.15892-.06191-.43469.1643311-.45268.00859-.00075.017215-.001.025839-.001.071641.00083.1398864.0307.1891358.0827 0 0 .07543.0847.335897.19947.2604669.1148.6866085.23812 1.3322183.25012.6414907.011 1.0586068-.11208 1.3156818-.23048.2570759-.11834.3327959-.21084.3327959-.21084.0455-.0554.111482-.0901.182935-.0961z" fill="#fff"/><path d="m32 4a27.999999 27.999999 0 0 0 -28 28 27.999999 27.999999 0 0 0  .0175781.492188 27.999999 27.999999 0 0 1 27.9824219-27.492188 27.999999 27.999999 0 0 1 27.974609 27.492188 27.999999 27.999999 0 0 0  .025391-.492188 27.999999 27.999999 0 0 0 -28-28z" fill="#fff" opacity=".2" transform="matrix(.26458333 0 0 .26458333 0 280.06665)"/></g></svg>