<svg height="32" width="32" xmlns="http://www.w3.org/2000/svg"><rect fill="#704b91" fill-rule="evenodd" height="28.203388" ry="5.575182" width="28.203388" x="1.898306" y="1.898306"/><path d="m7 16h3v3h-3z" fill="#4c8a4c"/><path d="m10 16h3v3h-3z" fill="#e45e5e"/><path d="m13 16h3v3h-3z" fill="#7079ff"/><path d="m16 16h3v3h-3z" fill="#cdcdcd"/><path d="m19 16h3v3h-3z" fill="#ffbd1a"/><path d="m22 16h3v3h-3z" fill="#f3f3f3"/><path d="m7 13h3v3h-3z" fill="#7079ff"/><path d="m10 13h3v3h-3z" fill="#f3f3f3"/><path d="m13 13h3v3h-3z" fill="#4c8a4c"/><path d="m16 13h3v3h-3z" fill="#f3f3f3"/><path d="m19 13h3v3h-3z" fill="#cdcdcd"/><path d="m22 13h3v3h-3z" fill="#7079ff"/><path d="m7 10h3v3h-3z" fill="#f3f3f3"/><path d="m10 10h3v3h-3z" fill="#ffee35"/><path d="m13 10h3v3h-3z" fill="#ffbd1a"/><path d="m16 10h3v3h-3z" fill="#db5fe8"/><path d="m19 10h3v3h-3z" fill="#ffee35"/><path d="m10 19h3v3h-3z" fill="#ffbd1a"/><path d="m13 19h3v3h-3z" fill="#db5fe8"/><path d="m16 19h3v3h-3z" fill="#e45e5e"/><path d="m19 19h3v3h-3z" fill="#ffee35"/><path d="m22 19h3v3h-3z" fill="#e45e5e"/><path d="m13 22h3v3h-3z" fill="#7079ff"/><path d="m16 22h3v3h-3z" fill="#f3f3f3"/><path d="m19 22h3v3h-3z" fill="#4c8a4c"/><path d="m22 22h3v3h-3z" fill="#db5fe8"/><path d="m7 7h3v3h-3z" fill="#ffbd1a"/><path d="m10 7h3v3h-3z" fill="#e45e5e"/><path d="m13 7h3v3h-3z" fill="#ffee35"/><path d="m16 7h3v3h-3z" fill="#7079ff"/></svg>