<svg height="64" viewBox="0 0 64 64" width="64" xmlns="http://www.w3.org/2000/svg"><path d="m19 4.9995893c-1.114318 0-2.076414.6162963-2.59375 1.5195312-.847023-.5954729-1.988628-.7082699-2.955078-.1738281-1.352222.7415414-1.851289 2.4505119-1.103516 3.8027346.747772 1.358454 2.442329 1.849334 3.800782 1.101562.414873-.227511.737654-.552632.980468-.923828.279409.225184.59679.39774.945313.511719-.300531 1.552172.473836 3.164601 1.976562 3.847656 1.759735.799879 3.8406.02341 4.634766-1.736328.799879-1.754021.0234-3.8348863-1.736328-4.6347656-.311079-.1413992-.633135-.2155925-.955078-.2617187.00032-.0180242.005859-.0346346.005859-.0527344 0-1.6553672-1.344631-3-3-3z" opacity=".2"/><path d="m8.9427755 15.351655c.000161.0407-.00273.08291-.00273.123046-.0000044.697144-2.9457492 1.960157-2.9400372 5.457299 1.6342859-.931428 4.1054297-.932422 4.3397157-.932422.02898.04063.06345.07477.09297.114842-.9415972-1.201007-1.4645872-3.236862-1.4899185-4.762765z" opacity=".2"/><path d="m29.926343 51.670313c-.01134.0085.01403.08494.09044.175-.04081-.09958-.08169-.181625-.09044-.175zm.09044.175c.01092.0266.01232.01008.02467.04648.82726 2.259457-.465364 3.798034-.800355 4.176173-2.702001.282867-5.265943 1.360835-5.469657 1.564063-.933664.702856-.933161 1.967845-.457737 2.670701.469705.462862 1.169394.69727 1.63909.69727s.933663-.233292 1.40336-.467578c.463967-.234285 2.521284-2.532422 4.159491-2.532422s2.710403 2.063851 3.180099 2.532422c.933664.697143 2.107903.461986 2.806718-.235156.698816-.697143.697944-1.962376-.23572-2.665233-.09166-.09143-.655874-.370406-1.4061-.664454-.0027-.01441.000252-.02342-.0028-.03828 0 0-1.541021-.597744-1.541021-3.632032 0-.46857-.939268-1.399129-2.10778-1.164843-.695018.116032-1.04377-.112028-1.192312-.287109z" opacity=".2"/><path d="m8.9427755 14.351655c.000161.0407-.00273.08291-.00273.123046-.0000044.697144-2.9457492 1.960157-2.9400372 5.457299 1.6342859-.931428 4.1054297-.932422 4.3397157-.932422.02898.04063.06345.07477.09297.114842-.9415972-1.201007-1.4645872-3.236862-1.4899185-4.762765z" fill="#ff9d20"/><path d="m29.926343 50.670313c-.01134.0085.01403.08494.09044.175-.04081-.09958-.08169-.181625-.09044-.175zm.09044.175c.01092.0266.01232.01008.02467.04648.82726 2.259457-.465364 3.798034-.800355 4.176173-2.702001.282867-5.265943 1.360835-5.469657 1.564063-.933664.702856-.933161 1.967845-.457737 2.670701.469705.462862 1.169394.69727 1.63909.69727s.933663-.233292 1.40336-.467578c.463967-.234285 2.521284-2.532422 4.159491-2.532422s2.710403 2.063851 3.180099 2.532422c.933664.697143 2.107903.461986 2.806718-.235156.698816-.697143.697944-1.962376-.23572-2.665233-.09166-.09143-.655874-.370406-1.4061-.664454-.0027-.01441.000252-.02342-.0028-.03828 0 0-1.541021-.597744-1.541021-3.632032 0-.46857-.939268-1.399129-2.10778-1.164843-.695018.116032-1.04377-.112028-1.192312-.287109z" fill="#ff9d20"/><g fill="#e53d3d"><path d="m19 3.9999997c-1.655367 0-3 1.344633-3 3.0000002 0 1.6553674 1.344633 3.0000001 3 3.0000001 1.655369 0 3-1.3446327 3-3.0000001 0-1.6553672-1.344631-3.0000002-3-3.0000002z"/><path d="m22.948355 7.3147646c-1.759736-.7998795-3.833708-.022854-4.633589 1.7368809-.799878 1.7597355-.02286 3.8337085 1.736882 4.6335885 1.759735.799879 3.839421.02286 4.633587-1.736882.799879-1.754021.02285-3.8337081-1.73688-4.6335874z"/><path d="m13.450893 5.3466503c-1.352222.7415414-1.850737 2.4489558-1.102964 3.8011783.747772 1.3584544 2.442725 1.8507374 3.801178 1.1029654 1.352223-.741542 1.850737-2.4489565 1.102965-3.8011789-.741541-1.3522223-2.448955-1.8507374-3.801179-1.1029648z"/></g><path d="m15.998095 8.999964c-3.712077.00442-6.7752732 2.892941-6.9811752 6.583091-.019871.166546-.017061.333407-.016408.498223.0000455.0028-.0000486.0055 0 .0083.02707 1.516392.5503528 2.982708 1.4903032 4.176369 1.158239 1.564928 2.509185 2.725396 2.509185 4.767104 0 3.948545-3 6.735553-3 12.311306 0 11.61805 15.520613 17.655643 22.052339 17.655643 3.276117 0 5.890955-.635013 7.552686-1.276869 6.931143-2.982858 9.055068-12.874621 16.394975-16.723131-.702889-.927397-.947392-2.44257-2.20019-2.909113.937185-1.160666 1.565829-.857615 3.20019-1.090887-1.165767-1.393938-2.544782-3.08276-4.179141-3.08276 2.800127-.699814 5.179141-6.429549 5.179141-9.91724-.93147 2.321334-7.518129 9-21.050173 9-9.441411-.808865-11.797238-10.180561-14.974117-16.645872-1.248523-2.049361-3.498735-3.3515006-5.977615-3.354164z" opacity=".2"/><path d="m15.998095 7.999964c-3.712077.00442-6.7752732 2.892941-6.9811752 6.583091-.019871.166546-.017061.333407-.016408.498223.0000455.0028-.0000486.0055 0 .0083.02707 1.516392.5503528 2.982708 1.4903032 4.176369 1.158239 1.564928 2.509185 2.725396 2.509185 4.767104 0 3.948545-3 6.735553-3 12.311306 0 11.61805 15.520613 17.655643 22.052339 17.655643 3.276117 0 5.890955-.635013 7.552686-1.276869 6.931143-2.982858 9.055068-12.874621 16.394975-16.723131-.702889-.927397-.947392-2.44257-2.20019-2.909113.937185-1.160666 1.565829-.857615 3.20019-1.090887-1.165767-1.393938-2.544782-3.08276-4.179141-3.08276 2.800127-.699814 5.179141-6.429549 5.179141-9.91724-.93147 2.321334-7.518129 9-21.050173 9-9.441411-.808865-11.797238-10.180561-14.974117-16.645872-1.248523-2.0493608-3.498735-3.3515006-5.977615-3.354164z" fill="#d8bfa2"/><path d="m14.5 17c1.244897 0 2.5-1.255103 2.5-2.5s-1.244897-2.5-2.5-2.5-2.5 1.255103-2.5 2.5 1.244897 2.5 2.5 2.5z" opacity=".2"/><path d="m14.5 16c1.244897 0 2.5-1.255103 2.5-2.5s-1.244897-2.5-2.5-2.5-2.5 1.255103-2.5 2.5 1.244897 2.5 2.5 2.5z" fill="#fff"/><circle cx="14.5" cy="13.5" fill="#3f3f3f" fill-rule="evenodd" r="1.5"/><path d="m19 4c-1.114318 0-2.076414.6162963-2.59375 1.5195312-.847023-.5954728-1.988628-.7082699-2.955078-.1738281-1.081567.5931176-1.604073 1.8036694-1.392578 2.9570313.146095-.801616.625458-1.5363524 1.392578-1.9570313.96645-.5344418 2.108055-.4216447 2.955078.1738281.517336-.9032348 1.479432-1.5195312 2.59375-1.5195312 1.655369 0 3 1.3446328 3 3 0 .0180998-.005539.0347102-.005859.0527344.321943.0461262.643999.1203195.955078.2617187 1.111259.5051199 1.826222 1.5206818 2.003906 2.6425779.195502-1.4848594-.568116-2.9899443-2.003906-3.6425779-.311079-.1413992-.633135-.2155925-.955078-.2617187.00032-.0180242.005859-.0346346.005859-.0527344 0-1.6553672-1.344631-3-3-3zm-.964844 6.820312c.006482.071605.006764.143991.017578.214844.008901-.06591.00875-.131496.021485-.197265-.01376-.0045-.0254-.012896-.039063-.017579z" fill="#fff" opacity=".1"/><path d="m15.998047 8c-3.712077.00442-6.7745669 2.893834-6.9804689 6.583984-.019871.166546-.0182311.333231-.0175781.498047.0000455.0028-.0000486.005013 0 .007813.0020205.113182.0256869.223406.0332031.335937.2838985-3.613522 3.3064369-6.4214249 6.9648439-6.425781 2.47888.0026634 4.729993 1.304155 5.978515 3.353516 3.176879 6.465311 5.531246 15.837619 14.972657 16.646484 13.248307 0 19.824075-6.391085 20.96875-8.837891.049737-.405189.082031-.797598.082031-1.162109-.93147 2.321334-7.518737 9-21.050781 9-9.441411-.808865-11.795778-10.181173-14.972657-16.646484-1.248522-2.0493612-3.499635-3.3508526-5.978515-3.353516zm-3.027344 16.679688c-.296882 3.619332-2.970703 6.39755-2.970703 11.664062 0 .148515.012557.292763.017578.439453.193275-5.201513 2.982422-7.937917 2.982422-11.75 0-.124172-.01965-.235574-.029297-.353515zm41.107422 4.568359c-.40516.321249-.82535.56184-1.257813.669922 1.28247 0 2.404222 1.038861 3.392579 2.160156.242736-.019144.483316-.034765.787109-.078125-.853855-1.020976-1.822678-2.194045-2.921875-2.751953zm.353516 4.242187c-.205009.13728-.408681.326403-.63086.601563.956825.356322 1.325831 1.32122 1.759766 2.171875.148572-.085365.286438-.183442.439453-.263672-.562902-.742697-.840114-1.853617-1.568359-2.509766z" fill="#fff" opacity=".2"/></svg>