<svg height="64" viewBox="0 0 64 64" width="64" xmlns="http://www.w3.org/2000/svg"><circle cx="24" cy="40" fill="#fff" r="0"/><circle cx="32" cy="33" opacity=".2" r="28"/><path d="m57.747692 32.563928c0 15.468474-10.140666 25.605422-25.614812 25.605422-4.427644 0-8.729872.804012-12.452541-1.024124-9.287675-4.561006-15.680339-14.11092-15.680339-25.153376 0-11.647706 7.11265-21.634773 17.233064-25.8578192 3.319774-1.3852752 6.848732-.090848 10.6709-.090848 15.474146 0 25.843728 11.0522722 25.843728 26.5207452z" fill="#3a8eed"/><path d="m56.636718 18.746094c.223676.414511.429218.837448.632814 1.261718-.07013-.159519-.141748-.31838-.214844-.476562-.04976-.102176-.09354-.207026-.14454-.308594-.08958-.159744-.18073-.318606-.27343-.476562zm1.300782 2.75c.07206.1799.15042.357692.21875.539062-.03294-.0884-.06636-.17648-.09766-.265624-.03988-.09136-.08025-.182508-.1211-.273438zm.800782 2.292968c.11216.362946.226916.726514.324218 1.09375-.0141-.06385-.02842-.12765-.04296-.1914-.02908-.11088-.05942-.22158-.08984-.33203-.06176-.190785-.12556-.3809-.1914-.570314zm.785156 3.140626c.0258.14224.05844.283154.08204.42578-.0156-.09278-.03082-.1847-.04688-.277344-.01159-.04951-.02331-.09899-.03516-.14844zm.429686 3.761718-3.953124 3.007812-4-2.699218c-5.791114-.501696-7.098774.692208-7.027344 2.5l1.605468-.828124s-9.244648 8.969931-22.554686 18.277342l-4.015626 2.488282-.01562 3.746094s-.0161.0269.67578.371094c.1186.05154.236134.10332.35547.15234.00046.0058-.0011.0096 0 .0156l-.04688-.0196c.14818.0716.09012.0522.29297.14844l-.07032-.07032c.14094.05716.2806.1233.421876.17968.12006.04824.238656.09796.359374.14454-.224466-.07738-.445542-.15912-.667968-.242186.252622.1026.510206.19.765624.285156.318146.123064.638514.240305.960944.351662.273002.0905.552428.16402.828126.246094-.354046-.10932-.707468-.222986-1.058594-.34375.608774.214494 1.225518.41007 1.847656.582032.10602.02938.213996.05.320312.07812.03638.0094.07296.018.10938.02734-.02752-.0072-.05454-.0162-.08204-.02344.782442.201366 1.57026.370862 2.367188.503906-.0634-.0108-.12778-.0178-.1914-.02734.15736.02832.314858.05642.472656.08204.316855.05365.63461.101833.953124.14454.15328.0194.30734.02992.460938.04688-.239308-.02752-.48022-.06822-.71875-.10156.48284.0655.967526.11602 1.453126.15626.836168.0618 1.675908.08724 2.515624.07812v.03906c.813025-.015426 1.624992-.066262 2.433592-.152364v-.0196c1.906736-.18774 3.796478-.564014 5.640624-1.136718.09522-.03074.190274-.06198.285158-.09374.55043-.17762 1.09983-.364062 1.640624-.578126.02372-.0072.04662-.0162.07032-.02344.0058-.0028.0098-.005.0156-.0078.957992-.452146 1.919876-.909052 2.917968-1.378906.454925-.244074.903013-.500682 1.34375-.769532.13428-.08238.27123-.16302.402344-.25.0078-.005.0158-.0106.02344-.0156.11206-.07104.224472-.13964.335938-.210938.534839-.355622 1.057283-.729541 1.566406-1.121094.11606-.08838.233322-.17514.347656-.265624.0912-.06876.17918-.14106.269532-.210938.562614-.456559 1.107295-.934783 1.632812-1.433594.13542-.12554.269462-.250568.402344-.378906.560571-.553917 1.097508-1.131254 1.609374-1.730468.08186-.09314.16156-.18702.242188-.28125.53323-.639944 1.037638-1.303365 1.511718-1.988282.05318-.07554.10772-.15054.16016-.226562.46919-.692282.907129-1.405237 1.3125-2.13672.0452-.07962.0923-.15822.13672-.23828.417265-.77333.797894-1.565874 1.140624-2.375.0146-.03422.03238-.0673.04688-.10156.701242-1.669294 1.238915-3.402671 1.605468-5.175782.02136-.10256.03832-.205764.0586-.308594.329334-1.683613.503242-3.39393.519532-5.109374.0022-.351246-.005-.70207-.0156-1.054688-.0049-.174537-.01143-.349024-.0196-.523438zm-30.152342 29.179688c-.15226-.0112-.305022-.0128-.457032-.02734.13688.0138.273074.03124.410156.04296.727461.06498 1.457186.101464 2.1875.10938.0261.000186.05202.0038.07812.004.06512-.0024.130223-.005.19532-.0078-.805792-.0054-1.611732-.0463-2.414062-.1211zm-4.714844-.78125c.634518.16508 1.274364.305742 1.917968.42578-.14786-.02566-.293968-.054-.441406-.08204-.495034-.09802-.986762-.21751-1.476562-.34375zm-.429688-.10546c-.265322-.07056-.526022-.15998-.789062-.238282.06286.0194.12442.04384.1875.0625.200006.05968.400274.12058.601562.175782z" fill="#f14f4f"/><path d="m32.054688 4.0039062c-.357748.0002528-.716682.01684-1.07422.03125a28 28 0 0 0 -.777344.0273438c-.21013.01422-.419438.041278-.628906.0625a28 28 0 0 0 -9.734374 2.6796876l4.160156 2.78125v5.6015624l4.941406.542969-1.45703 2.414062 14.484374 8.644531 6.351562 8.07422 3.3125-3.863282 4.367188 2.699218 3.953124-3.046874a28 28 0 0 0 -.02344-.632812 28 28 0 0 0 -.320312-2.652344c-.0174-.10036-.03624-.200678-.05468-.300782a28 28 0 0 0 -.535156-2.386718c-.02774-.10322-.05702-.205736-.08594-.308594a28 28 0 0 0 -.777344-2.339844c-.03148-.08464-.06134-.16964-.09374-.253906a28 28 0 0 0 -.988294-2.207032c-.05698-.114806-.1055-.233615-.16406-.347656a28 28 0 0 0 -1.347658-2.351562 28 28 0 0 0 -1.511718-2.113282c-.177354-.226552-.369988-.442611-.554688-.664062a28 28 0 0 0 -1.140626-1.296875c-.540766-.520713-1.093708-1.054893-1.648436-1.589844a28 28 0 0 0 -5.28125-3.7812498 28 28 0 0 0 -2.523438-1.2148436 28 28 0 0 0 -2.589844-.9453126c-.0118-.00362-.02334-.00808-.03516-.01172-.0386-.01186-.07852-.01972-.11718-.03125a28 28 0 0 0 -2.574218-.65625c-.008-.00156-.0154-.00628-.02344-.00782a28 28 0 0 0 -.10546-.01562 28 28 0 0 0 -2.496094-.3789064c-.10964-.01106-.218626-.021136-.328126-.03125a28 28 0 0 0 -2.578124-.128906z" fill="#ffd32c"/><circle cx="32" cy="33" opacity=".2" r="20"/><path d="m20.748047 7.4118904c-.302782.1308798-.610189.2510587-.908203.3925781l4.160156 2.7812505v-1zm39.142578 23.2871096-3.890625 3-4.367188-2.898438v1l4.367188 2.898438 3.953125-3.046875c-.0054-.211018-.0132-.421971-.02344-.632813-.01047-.107064-.02736-.213381-.03906-.320312z" opacity=".2"/><circle cx="32" cy="32" fill="#fff" r="20"/><path d="m52 31-28 20v-38z" fill="#ff7d2c"/><path d="m24 13v1l27.263672 17.525391.736328-.525391z" opacity=".2"/><path d="m32 4a28 28 0 0 0 -28 28 28 28 0 0 0  .0175781.492188 28 28 0 0 1 27.9824219-27.492188 28 28 0 0 1 27.974609 27.492188 28 28 0 0 0  .025391-.492188 28 28 0 0 0 -28-28z" fill="#fff" opacity=".2"/><path d="m23.677734 51.164062-3.669922 2.273438-.01562 3.746094s.0039.002.0039.002l.01172-2.748047 4.015626-2.488281c.190666-.133329.359845-.26332.548828-.396485-.301292-.122267-.599558-.251862-.894532-.388672z" opacity=".2"/></svg>