<svg height="64" viewBox="0 0 64 64" width="64" xmlns="http://www.w3.org/2000/svg"><path d="m43.728588 57c1.218863-.000119 2.206914-.966416 2.207037-2.15844 0-9.793818 1.848571-16.924522 3.745928-19.785208 1.075128-1.62099 1.896532-2.478204 3.189859-3.085894 1.293326-.60769 3.580146-.984366 6.921551-.984366 1.218863-.00012 2.206916-.966418 2.207037-2.158442v-17.66921c-.000122-1.192024-.988175-2.158322-2.207037-2.15844-12.035276 0-22.956939 5.212238-28.943659 14.238538-5.879168 8.86414-7.420732 19.617526-7.420732 31.603022.000122 1.192025.988174 2.158321 2.207038 2.15844z" fill-rule="evenodd" opacity=".2"/><path d="m43.784824 57a2.2161462 2.218072 0 0 0 1.993035-3.185994l-21.103219-43.564298a2.2161462 2.218072 0 0 0 -1.995196-1.249708h-18.465316a2.2161462 2.218072 0 0 0 -1.993034 3.18383l21.103218 43.566463a2.2161462 2.218072 0 0 0 1.993034 1.249707z" opacity=".2"/><path d="m43.728588 56c1.218863-.000119 2.206914-.966416 2.207037-2.15844 0-9.793818 1.848571-16.924522 3.745928-19.785208 1.075128-1.62099 1.896532-2.478204 3.189859-3.085894 1.293326-.60769 3.580146-.984366 6.921551-.984366 1.218863-.00012 2.206916-.966418 2.207037-2.158442v-17.66921c-.000122-1.192024-.988175-2.158322-2.207037-2.15844-12.035276 0-22.956939 5.212238-28.943659 14.238538-5.879168 8.86414-7.420732 19.617526-7.420732 31.603022.000122 1.192025.988174 2.158321 2.207038 2.15844z" fill="#115ccc" fill-rule="evenodd"/><path d="m59.792969 8c-12.035276 0-22.95664 5.211981-28.94336 14.238281-5.879168 8.86414-7.421875 19.61802-7.421875 31.603516.000006.050131.012182.097207.015625.146484.073956-11.638983 1.668497-22.099074 7.40625-30.75 5.98672-9.0263 16.908084-14.238281 28.94336-14.238281 1.218862.000118 2.206909.9661791 2.207031 2.158203v-1c-.000122-1.1920239-.988169-2.158085-2.207031-2.158203z" fill="#fff" fill-rule="evenodd" opacity=".1"/><path d="m43.784824 56a2.2161462 2.218072 0 0 0 1.993035-3.185994l-21.103219-43.564298a2.2161462 2.218072 0 0 0 -1.995196-1.249708h-18.465316a2.2161462 2.218072 0 0 0 -1.993034 3.18383l21.103218 43.566463a2.2161462 2.218072 0 0 0 1.993034 1.249707z" fill="#3387f5"/><path d="m4.2148438 8a2.2161462 2.218072 0 0 0 -2.15625 2.722656 2.2161462 2.218072 0 0 1 2.15625-1.722656h18.4648442a2.2161462 2.218072 0 0 1 1.99414 1.25l21.103516 43.564453a2.2161462 2.218072 0 0 1  .164062.462891 2.2161462 2.218072 0 0 0 -.164062-1.462891l-21.103516-43.564453a2.2161462 2.218072 0 0 0 -1.99414-1.25z" fill="#fff" opacity=".2"/></svg>