<svg height="32" width="32" xmlns="http://www.w3.org/2000/svg"><rect fill="#72a7ce" fill-rule="evenodd" height="28.203388" ry="5.575182" width="28.203388" x="1.898306" y="1.898306"/><g transform="translate(-.000017 -.000221)"><path d="m23.999 8.0007s-2.3993-.067294-4.7972 1.1327c-.73291.33314-1.5324.86616-2.1987 1.5324-1.0774 1.0774-2.7511 3.0609-4.069 4.664h-2.927l-1.3326 1.9988 2.26.61098c.0067.08062.02798.19455.09061.34846l-.35113.77222s-.13326.26651.86616 1.3326c1.067 1.067 1.4.933 1.4.933l.82819-.37578c.12393.03864.21588.05197.27584.05197l.6283 2.3227 1.9988-1.3326v-3.0162c1.6144-1.3052 3.5952-2.9456 4.664-3.9797.66628-.66628 1.1993-1.4658 1.5984-2.1987 1.132-2.3979 1.066-4.7965 1.066-4.7965z" fill="#ffca68"/><path d="m19.335 13.997c-.73358 0-1.3326-.59965-1.3326-1.3326 0-.73357.59898-1.3326 1.3326-1.3326.73291 0 1.3326.59899 1.3326 1.3326 0 .73291-.60032 1.3326-1.3326 1.3326z" fill="#fff"/><path d="m12.339 21.993c.13326.06729.19988.13326.33314.19988-.13326.13326-.26651.33314-.40044.4664-1.5331 1.5324-4.2635 1.3326-4.2635 1.3326s-.19988-2.7324 1.3326-4.2635c.13326-.13392.33314-.26585.4664-.40044.066628.13326.13259.19988.19988.33314-.99942 1.2653-.86616 3.1981-.86616 3.1981s1.9315.13326 3.1981-.86616z" fill="#ffca68"/></g></svg>