<svg height="64" viewBox="0 0 64 64" width="64" xmlns="http://www.w3.org/2000/svg"><circle cx="32" cy="33" opacity=".2" r="28"/><circle cx="32" cy="32" fill="#00aef0" r="28"/><path d="m30 13.808594-1.191406.375-14.808594 4.625v8.90625l7.832032 4.898438-7.832032 3.917968v8.835938l14.398438 6.296874 1.601562.703126v-8.73047l-6.574218-2.878906 6.574218-3.289062v-9.1875l-6.5-4.0625 6.5-2.03125zm4 0v8.378906l6.5 2.03125-6.5 4.0625v9.1875l6.574218 3.289062-6.574218 2.878906v8.73047l1.601562-.703126 14.398438-6.296874v-8.835938l-7.832032-3.917968 7.832032-4.898438v-8.90625l-14.808594-4.625z" opacity=".2"/><path d="m30 12.808594-1.191406.375-14.808594 4.625v8.90625l7.832032 4.898438-7.832032 3.917968v8.835938l14.398438 6.296874 1.601562.703126v-8.73047l-6.574218-2.878906 6.574218-3.289062v-9.1875l-6.5-4.0625 6.5-2.03125zm4 0v8.378906l6.5 2.03125-6.5 4.0625v9.1875l6.574218 3.289062-6.574218 2.878906v8.73047l1.601562-.703126 14.398438-6.296874v-8.835938l-7.832032-3.917968 7.832032-4.898438v-8.90625l-14.808594-4.625z" fill="#fff"/><path d="m32 4a28 28 0 0 0 -28 28 28 28 0 0 0  .0175781.492188 28 28 0 0 1 27.9824219-27.492188 28 28 0 0 1 27.974609 27.492188 28 28 0 0 0  .025391-.492188 28 28 0 0 0 -28-28z" fill="#fff" opacity=".2"/></svg>