<svg height="64" viewBox="0 0 64 64" width="64" xmlns="http://www.w3.org/2000/svg"><rect height="56" opacity=".2" rx="2.8" transform="matrix(0 -1 -1 0 0 0)" width="56" x="-61" y="-60"/><rect fill="#e4e4e4" height="56" rx="2.8" transform="matrix(0 -1 -1 0 0 0)" width="56" x="-60" y="-60"/><g fill="none" stroke-linecap="round" stroke-width="6"><path d="m21.00014 51.999886 16-16" opacity=".2" stroke="#000"/><path d="m21.00014 51 16-16" stroke="#3f3f3f"/><path d="m50.99986 35.999886-16 16" opacity=".2" stroke="#000"/><path d="m50.99986 35-16 16" stroke="#3f3f3f"/></g><path d="m6.8007812 4c-1.5512 0-2.8007812 1.2495812-2.8007812 2.8007812v1c0-1.5511999 1.2495812-2.8007812 2.8007812-2.8007812h50.3984378c1.5512 0 2.800781 1.2495812 2.800781 2.8007812v-1c0-1.5511999-1.249581-2.8007812-2.800781-2.8007812z" fill="#fff" opacity=".2"/></svg>