<svg viewBox="0 0 32 32" xmlns="http://www.w3.org/2000/svg" xmlns:xlink="http://www.w3.org/1999/xlink"><linearGradient id="a" gradientUnits="userSpaceOnUse" x1="27.558" x2="22.09" xlink:href="#c" y1="-133.46" y2="-134.43"/><linearGradient id="b" gradientUnits="userSpaceOnUse" x1="15.879" x2="30.32" xlink:href="#c" y1="-141.91" y2="-129.74"/><linearGradient id="c"><stop offset="0" stop-color="#55c03f"/><stop offset="1" stop-color="#198b26"/></linearGradient><linearGradient id="d"><stop offset="0" stop-color="#f9f9f9"/><stop offset="1" stop-color="#999"/></linearGradient><linearGradient id="e" gradientUnits="userSpaceOnUse" x1="17.658" x2="15.02" xlink:href="#d" y1="-133.51" y2="-125.58"/><radialGradient id="f" cx="-176.59" cy="-120.91" gradientTransform="matrix(2.21087 .05719 -.05496 2.12455 412.97 145.84)" gradientUnits="userSpaceOnUse" r="3.01" xlink:href="#d"/><g fill-rule="evenodd"><g fill="#3ebce8"><rect height="28.2" rx="5.575" width="28.2" x="1.898" y="1.898"/><path d="m7.475 1.898c-3.089 0-5.576 2.486-5.576 5.574v6.479c.131-.024.284-.119.414-.139 1.415-.216 2.752-.172 4.04.053 1.291.225 2.538.631 3.775 1.141s2.464 1.123 3.717 1.762 2.532 1.303 3.869 1.916c1.338.613 2.734 1.173 4.227 1.604 1.492.43 3.079.732 4.795.824 1.036.056 2.225-.145 3.363-.258v-13.381c0-3.089-2.486-5.574-5.574-5.574h-17.05"/></g><path d="m30.1 20.854c-19.999 1.524-19.321-10.561-28.2-10.428v14.1c0 3.089 2.488 5.576 5.576 5.576h17.05c3.089 0 5.574-2.488 5.574-5.576z" fill="#97c607"/></g><circle cx="15.999" cy="16" fill="#e6e6e6" r="10.115"/><circle cx="15.999" cy="16" fill="#666" r="4.458"/><circle cx="15.999" cy="16" fill="#fffee4" r="3.212"/><path d="m30.07 18.658c-12.04-1.955-14.734 8.108-28.14 5.575-.018.001-.04-.005-.059-.004v.293c0 3.089 2.486 5.574 5.574 5.574h17.05c3.089 0 5.576-2.486 5.576-5.574z" fill="#74a10d" fill-rule="evenodd"/><g transform="translate(-.916 143.06)"><path d="m15.583-142.61c-5.577-1.531-5.951 3.24-4.58 5.493 4.381 6.983 6.796 6.577 9.398 7.895 1.712 2.064 3.451 3.4 6.469 4.1 11.69 1.559 3.242-8.417.92-8.649-5.065.012-7.547-6.123-12.206-8.838" fill="url(#e)"/><path d="m15.583-142.61c3.76.276 5.616-.626 8.93-.421 4.319.283 8.307 2.053 7.838 6.574-.347 2.567-.37 2.25.186 4.296.532 1.535-.252 4.232-.487 4.654-2.715 4.963-1.536 4.965-2.656 7.742l-.906-.418-2.508-11.358c-7.177-.909-10.754-10.11-10.398-11.07" fill="url(#b)"/><path d="m22.374-132.67c.362.274 1.553-5.105 1.172-5.653 1.379 2.44 1.919 4.616 2.435 6.783-1.276-.283-2.289-.554-3.607-1.13" fill="url(#a)"/><circle cx="29.06" cy="-119.45" fill="url(#f)" r="3.01"/></g></svg>