<svg viewBox="0 0 32 32" xmlns="http://www.w3.org/2000/svg" xmlns:xlink="http://www.w3.org/1999/xlink"><linearGradient id="a" gradientTransform="matrix(2.54182 0 0 2.58531 -153.47 -277.37)" gradientUnits="userSpaceOnUse" x1="67.894" x2="67.854" y1="108.69" y2="113.11"><stop offset="0" stop-color="#f9f9f9"/><stop offset="1" stop-color="#999"/></linearGradient><g fill-rule="evenodd"><path d="m17.02734 5.775391a3.067664 3.067664 0 0 0 -.216793.005859 3.067664 3.067664 0 0 0 -.304688.037109 3.067664 3.067664 0 0 0 -.298828.06836 3.067664 3.067664 0 0 0 -.291015.095703 3.067664 3.067664 0 0 0 -.279297.125 3.067664 3.067664 0 0 0 -.265625.154297 3.067664 3.067664 0 0 0 -.250004.177734 3.067664 3.067664 0 0 0 -.230465.201172 3.067664 3.067664 0 0 0 -.208984.224609 3.067664 3.067664 0 0 0 -.185547.244141 3.067664 3.067664 0 0 0 -.160156.261719 3.067664 3.067664 0 0 0 -.132813.277344 3.067664 3.067664 0 0 0 -.105465.287109 3.067664 3.067664 0 0 0 -.07618.296875 3.067664 3.067664 0 0 0 -.046871.302734 3.067664 3.067664 0 0 0 -.013671.306641 3.067664 3.067664 0 0 0  .005859.216793 3.067664 3.067664 0 0 0  .037113.304691 3.067664 3.067664 0 0 0  .06836.298828 3.067664 3.067664 0 0 0  .095699.291016 3.067664 3.067664 0 0 0  .125.28125 3.067664 3.067664 0 0 0  .154297.265625 3.067664 3.067664 0 0 0  .177734.248047 3.067664 3.067664 0 0 0  .201172.230469 3.067664 3.067664 0 0 0  .224608.208984 3.067664 3.067664 0 0 0  .244142.185547 3.067664 3.067664 0 0 0  .261719.162109 3.067664 3.067664 0 0 0  .277343.132813 3.067664 3.067664 0 0 0  .287106.105469 3.067664 3.067664 0 0 0  .296879.074218 3.067664 3.067664 0 0 0  .302734.046875 3.067664 3.067664 0 0 0  .306637.015625 3.067664 3.067664 0 0 0  .216801-.007812 3.067664 3.067664 0 0 0  .304687-.03711 3.067664 3.067664 0 0 0  .298828-.066406 3.067664 3.067664 0 0 0  .291014-.097656 3.067664 3.067664 0 0 0  .281252-.125 3.067664 3.067664 0 0 0  .265625-.152344 3.067664 3.067664 0 0 0  .248047-.179687 3.067664 3.067664 0 0 0  .230466-.201171 3.067664 3.067664 0 0 0  .208987-.224611 3.067664 3.067664 0 0 0  .185547-.24414 3.067664 3.067664 0 0 0  .162109-.261719 3.067664 3.067664 0 0 0  .132813-.27539 3.067664 3.067664 0 0 0  .105468-.289063 3.067664 3.067664 0 0 0  .076176-.296875 3.067664 3.067664 0 0 0  .04492-.302734 3.067664 3.067664 0 0 0  .01562-.306641 3.067664 3.067664 0 0 0 -.00781-.216797 3.067664 3.067664 0 0 0 -.03711-.304687 3.067664 3.067664 0 0 0 -.066405-.298833 3.067664 3.067664 0 0 0 -.097656-.291011 3.067664 3.067664 0 0 0 -.125-.279297 3.067664 3.067664 0 0 0 -.152344-.265625 3.067664 3.067664 0 0 0 -.179687-.25 3.067664 3.067664 0 0 0 -.201172-.230469 3.067664 3.067664 0 0 0 -.224606-.208984 3.067664 3.067664 0 0 0 -.244144-.185547 3.067664 3.067664 0 0 0 -.261719-.160156 3.067664 3.067664 0 0 0 -.275391-.132811 3.067664 3.067664 0 0 0 -.289062-.105471 3.067664 3.067664 0 0 0 -.296875-.076171 3.067664 3.067664 0 0 0 -.302735-.046875 3.067664 3.067664 0 0 0 -.306644-.013672" fill="#fff"/><path d="m15.508 1.898c-.474.076-.978.082-1.412.236-.829.295-1.574.731-2.201 1.289s-1.134 1.238-1.484 2.027-.545 1.688-.545 2.676.211 1.868.576 2.648.885 1.462 1.506 2.049 1.34 1.081 2.107 1.488c.767.408 1.581.73 2.385.973.786.237 1.633.6 2.463 1.074s1.642 1.059 2.355 1.736c.714.678 1.329 1.448 1.766 2.297s.695 1.777.695 2.766c0 .988-.192 1.929-.543 2.785s-.858 1.628-1.484 2.275c-.627.648-1.374 1.173-2.203 1.535-.512.224-1.1.257-1.666.348h.982 5.723c3.089 0 5.574-2.486 5.574-5.574v-6.262-4.531-6.262c0-3.089-2.486-5.574-5.574-5.574h-5.723-3.297m1.519532 3.876953a3.067664 3.067664 0 0 1  .30664.013672 3.067664 3.067664 0 0 1  .302735.046875 3.067664 3.067664 0 0 1  .296875.076172 3.067664 3.067664 0 0 1  .289062.105469 3.067664 3.067664 0 0 1  .275391.132813 3.067664 3.067664 0 0 1  .261719.160156 3.067664 3.067664 0 0 1  .24414.185547 3.067664 3.067664 0 0 1  .22461.208984 3.067664 3.067664 0 0 1  .201172.230469 3.067664 3.067664 0 0 1  .179687.25 3.067664 3.067664 0 0 1  .152344.265625 3.067664 3.067664 0 0 1  .125.279297 3.067664 3.067664 0 0 1  .097656.291016 3.067664 3.067664 0 0 1  .066406.298828 3.067664 3.067664 0 0 1  .03711.304688 3.067664 3.067664 0 0 1  .007812.216797 3.067664 3.067664 0 0 1 -.015625.306641 3.067664 3.067664 0 0 1 -.044922.302734 3.067664 3.067664 0 0 1 -.076172.296875 3.067664 3.067664 0 0 1 -.105468.289062 3.067664 3.067664 0 0 1 -.132813.275391 3.067664 3.067664 0 0 1 -.162109.261719 3.067664 3.067664 0 0 1 -.185547.24414 3.067664 3.067664 0 0 1 -.208985.22461 3.067664 3.067664 0 0 1 -.230468.201172 3.067664 3.067664 0 0 1 -.248047.179687 3.067664 3.067664 0 0 1 -.265625.152344 3.067664 3.067664 0 0 1 -.28125.125 3.067664 3.067664 0 0 1 -.291016.097656 3.067664 3.067664 0 0 1 -.298828.066406 3.067664 3.067664 0 0 1 -.304687.03711 3.067664 3.067664 0 0 1 -.216797.007812 3.067664 3.067664 0 0 1 -.306641-.015625 3.067664 3.067664 0 0 1 -.302734-.046875 3.067664 3.067664 0 0 1 -.296875-.074218 3.067664 3.067664 0 0 1 -.28711-.105469 3.067664 3.067664 0 0 1 -.277343-.132813 3.067664 3.067664 0 0 1 -.261719-.162109 3.067664 3.067664 0 0 1 -.244141-.185547 3.067664 3.067664 0 0 1 -.224609-.208984 3.067664 3.067664 0 0 1 -.201172-.230469 3.067664 3.067664 0 0 1 -.177734-.248047 3.067664 3.067664 0 0 1 -.154297-.265625 3.067664 3.067664 0 0 1 -.125-.28125 3.067664 3.067664 0 0 1 -.095703-.291016 3.067664 3.067664 0 0 1 -.06836-.298828 3.067664 3.067664 0 0 1 -.037109-.304687 3.067664 3.067664 0 0 1 -.005859-.216797 3.067664 3.067664 0 0 1  .013671-.306641 3.067664 3.067664 0 0 1  .046875-.302734 3.067664 3.067664 0 0 1  .076172-.296875 3.067664 3.067664 0 0 1  .105469-.287109 3.067664 3.067664 0 0 1  .132813-.277344 3.067664 3.067664 0 0 1  .160156-.261719 3.067664 3.067664 0 0 1  .185547-.244141 3.067664 3.067664 0 0 1  .208984-.224609 3.067664 3.067664 0 0 1  .230469-.201172 3.067664 3.067664 0 0 1  .25-.177734 3.067664 3.067664 0 0 1  .265625-.154297 3.067664 3.067664 0 0 1  .279297-.125 3.067664 3.067664 0 0 1  .291015-.095703 3.067664 3.067664 0 0 1  .298828-.068359 3.067664 3.067664 0 0 1  .304688-.037109 3.067664 3.067664 0 0 1  .216797-.005859" fill="#f65e5e"/><path d="m16.492 30.1h1.33c.566-.091 1.154-.124 1.666-.348.829-.362 1.576-.887 2.203-1.535s1.134-1.419 1.484-2.275c.351-.856.543-1.797.543-2.785s-.258-1.916-.695-2.766c-.437-.849-1.052-1.619-1.766-2.297s-1.526-1.262-2.355-1.736c-.83-.474-1.677-.837-2.463-1.074-.804-.243-1.618-.565-2.385-.973s-1.487-.901-2.107-1.488c-.621-.587-1.141-1.268-1.506-2.049-.365-.78-.576-1.66-.576-2.648s.194-1.887.545-2.676c.35-.789.858-1.469 1.484-2.027.627-.558 1.372-.994 2.201-1.289.434-.155.938-.161 1.412-.236h-1.33c-.566.091-1.154.124-1.666.348-.829.362-1.574.887-2.201 1.535s-1.134 1.419-1.484 2.275c-.351.856-.545 1.797-.545 2.785s.258 1.916.695 2.766c.437.849 1.052 1.619 1.766 2.297s1.526 1.262 2.355 1.736c.83.474 1.677.837 2.463 1.074.804.243 1.618.565 2.385.973s1.487.901 2.107 1.488c.621.587 1.141 1.268 1.506 2.049.365.78.576 1.66.576 2.648s-.194 1.887-.545 2.676-.858 1.469-1.484 2.027c-.627.558-1.372.994-2.201 1.289-.434.155-.938.161-1.412.236" fill="#fff"/><path d="m7.473 1.898c-3.089 0-5.574 2.486-5.574 5.574v6.262 4.531 6.262c0 3.089 2.486 5.574 5.574 5.574h5.723 3.297c.474-.076.978-.082 1.412-.236.829-.295 1.574-.731 2.201-1.289s1.134-1.238 1.484-2.027c.351-.789.545-1.688.545-2.676s-.211-1.868-.576-2.648-.885-1.462-1.506-2.049-1.34-1.081-2.107-1.488c-.767-.408-1.581-.73-2.385-.973-.786-.237-1.633-.6-2.463-1.074s-1.642-1.059-2.355-1.736c-.714-.678-1.329-1.448-1.766-2.297s-.695-1.777-.695-2.766c0-.988.194-1.929.545-2.785s.858-1.628 1.484-2.275c.627-.648 1.372-1.173 2.201-1.535.512-.224 1.1-.257 1.666-.348h-.982-5.723" fill="#8d62ad"/><g fill="#fff"><path d="m14.982422 20.08984a3.067664 3.067664 0 0 0 -.216797.00782 3.067664 3.067664 0 0 0 -.304687.03711 3.067664 3.067664 0 0 0 -.298829.0664 3.067664 3.067664 0 0 0 -.291015.097658 3.067664 3.067664 0 0 0 -.279297.125 3.067664 3.067664 0 0 0 -.267578.152344 3.067664 3.067664 0 0 0 -.248049.179687 3.067664 3.067664 0 0 0 -.230467.201172 3.067664 3.067664 0 0 0 -.208984.224609 3.067664 3.067664 0 0 0 -.185547.244141 3.067664 3.067664 0 0 0 -.160156.261719 3.067664 3.067664 0 0 0 -.134766.275391 3.067664 3.067664 0 0 0 -.10352.289062 3.067664 3.067664 0 0 0 -.076168.296875 3.067664 3.067664 0 0 0 -.046874.302734 3.067664 3.067664 0 0 0 -.015626.306638 3.067664 3.067664 0 0 0  .007813.2168 3.067664 3.067664 0 0 0  .037109.304688 3.067664 3.067664 0 0 0  .068356.298828 3.067664 3.067664 0 0 0  .09571.291015 3.067664 3.067664 0 0 0  .124997.279297 3.067664 3.067664 0 0 0  .152344.265625 3.067664 3.067664 0 0 0  .179687.249997 3.067664 3.067664 0 0 0  .201172.230472 3.067664 3.067664 0 0 0  .22461.208984 3.067664 3.067664 0 0 0  .24414.185547 3.067664 3.067664 0 0 0  .261719.160156 3.067664 3.067664 0 0 0  .27539.132813 3.067664 3.067664 0 0 0  .289061.105468 3.067664 3.067664 0 0 0  .296877.07617 3.067664 3.067664 0 0 0  .302734.04688 3.067664 3.067664 0 0 0  .306641.01367 3.067664 3.067664 0 0 0  .216797-.00586 3.067664 3.067664 0 0 0  .304687-.03711 3.067664 3.067664 0 0 0  .298828-.06836 3.067664 3.067664 0 0 0  .291016-.0957 3.067664 3.067664 0 0 0  .28125-.125002 3.067664 3.067664 0 0 0  .265625-.154297 3.067664 3.067664 0 0 0  .248047-.177734 3.067664 3.067664 0 0 0  .230468-.201172 3.067664 3.067664 0 0 0  .208985-.224605 3.067664 3.067664 0 0 0  .185547-.244145 3.067664 3.067664 0 0 0  .160156-.261719 3.067664 3.067664 0 0 0  .134766-.277344 3.067664 3.067664 0 0 0  .105468-.287112 3.067664 3.067664 0 0 0  .074219-.296872 3.067664 3.067664 0 0 0  .046879-.302734 3.067664 3.067664 0 0 0  .01562-.306644 3.067664 3.067664 0 0 0 -.00781-.216794 3.067664 3.067664 0 0 0 -.03711-.304687 3.067664 3.067664 0 0 0 -.06836-.298828 3.067664 3.067664 0 0 0 -.095703-.291011 3.067664 3.067664 0 0 0 -.125-.281255 3.067664 3.067664 0 0 0 -.152344-.265625 3.067664 3.067664 0 0 0 -.179687-.248047 3.067664 3.067664 0 0 0 -.201176-.230473 3.067664 3.067664 0 0 0 -.224606-.20898 3.067664 3.067664 0 0 0 -.24414-.185547 3.067664 3.067664 0 0 0 -.261719-.162109 3.067664 3.067664 0 0 0 -.275391-.132813 3.067664 3.067664 0 0 0 -.289062-.105469 3.067664 3.067664 0 0 0 -.296875-.074222 3.067664 3.067664 0 0 0 -.302735-.04687 3.067664 3.067664 0 0 0 -.30664-.01563"/><path d="m14.982422 20.08984a3.067664 3.067664 0 0 1  .30664.01563 3.067664 3.067664 0 0 1  .302735.04687 3.067664 3.067664 0 0 1  .296875.074222 3.067664 3.067664 0 0 1  .289062.105469 3.067664 3.067664 0 0 1  .275391.132813 3.067664 3.067664 0 0 1  .261719.162109 3.067664 3.067664 0 0 1  .24414.185547 3.067664 3.067664 0 0 1  .224606.20898 3.067664 3.067664 0 0 1  .201176.230473 3.067664 3.067664 0 0 1  .179687.248047 3.067664 3.067664 0 0 1  .152344.265625 3.067664 3.067664 0 0 1  .125.281255 3.067664 3.067664 0 0 1  .095703.291011 3.067664 3.067664 0 0 1  .06836.298828 3.067664 3.067664 0 0 1  .03711.304687 3.067664 3.067664 0 0 1  .00781.216794 3.067664 3.067664 0 0 1 -.01562.306644 3.067664 3.067664 0 0 1 -.046879.302734 3.067664 3.067664 0 0 1 -.074219.296872 3.067664 3.067664 0 0 1 -.105468.287112 3.067664 3.067664 0 0 1 -.134766.277344 3.067664 3.067664 0 0 1 -.160156.261719 3.067664 3.067664 0 0 1 -.185547.244145 3.067664 3.067664 0 0 1 -.208985.224605 3.067664 3.067664 0 0 1 -.230468.201172 3.067664 3.067664 0 0 1 -.248047.177734 3.067664 3.067664 0 0 1 -.265625.154297 3.067664 3.067664 0 0 1 -.28125.125002 3.067664 3.067664 0 0 1 -.291016.0957 3.067664 3.067664 0 0 1 -.298828.06836 3.067664 3.067664 0 0 1 -.304687.03711 3.067664 3.067664 0 0 1 -.216797.00586 3.067664 3.067664 0 0 1 -.306641-.01367 3.067664 3.067664 0 0 1 -.302734-.04688 3.067664 3.067664 0 0 1 -.296877-.07617 3.067664 3.067664 0 0 1 -.289061-.105468 3.067664 3.067664 0 0 1 -.27539-.132813 3.067664 3.067664 0 0 1 -.261719-.160156 3.067664 3.067664 0 0 1 -.24414-.185547 3.067664 3.067664 0 0 1 -.22461-.208984 3.067664 3.067664 0 0 1 -.201172-.230472 3.067664 3.067664 0 0 1 -.179687-.249997 3.067664 3.067664 0 0 1 -.152344-.265625 3.067664 3.067664 0 0 1 -.124997-.279297 3.067664 3.067664 0 0 1 -.09571-.291015 3.067664 3.067664 0 0 1 -.068356-.298828 3.067664 3.067664 0 0 1 -.037109-.304688 3.067664 3.067664 0 0 1 -.007813-.2168 3.067664 3.067664 0 0 1  .015626-.306638 3.067664 3.067664 0 0 1  .046874-.302734 3.067664 3.067664 0 0 1  .076168-.296875 3.067664 3.067664 0 0 1  .10352-.289062 3.067664 3.067664 0 0 1  .134766-.275391 3.067664 3.067664 0 0 1  .160156-.261719 3.067664 3.067664 0 0 1  .185547-.244141 3.067664 3.067664 0 0 1  .208984-.224609 3.067664 3.067664 0 0 1  .230467-.201172 3.067664 3.067664 0 0 1  .248049-.179687 3.067664 3.067664 0 0 1  .267578-.152344 3.067664 3.067664 0 0 1  .279297-.125 3.067664 3.067664 0 0 1  .291015-.097658 3.067664 3.067664 0 0 1  .298829-.0664 3.067664 3.067664 0 0 1  .304687-.03711 3.067664 3.067664 0 0 1  .216797-.00782"/></g></g>

   xmlns:dc="http://purl.org/dc/elements/1.1/"
   xmlns:cc="http://creativecommons.org/ns#"
   xmlns:rdf="http://www.w3.org/1999/02/22-rdf-syntax-ns#"
   xmlns:svg="http://www.w3.org/2000/svg"
   xmlns="http://www.w3.org/2000/svg"
   xmlns:xlink="http://www.w3.org/1999/xlink"
   xmlns:sodipodi="http://sodipodi.sourceforge.net/DTD/sodipodi-0.dtd"
   xmlns:inkscape="http://www.inkscape.org/namespaces/inkscape"
   height="32"
   width="32"
   version="1"
   id="svg8"
   sodipodi:docname="snow-top-2.svg"
   inkscape:version="0.92.1 r"&gt;
  <path d="m24.646 6.111c2.995 2.684 1.381 7.817 3.674 8.291 2.031.613 3.541-1.385 3.66-4.503.35-8.627-3.911-9.427-6.879-9.524-28.342-2.047-1.762 4.92-.455 5.736" fill="url(#a)"/></svg>