<svg viewBox="0 0 32 32" xmlns="http://www.w3.org/2000/svg" xmlns:xlink="http://www.w3.org/1999/xlink"><linearGradient id="a" gradientTransform="matrix(2.62891 0 0 2.71269 -160.16 -291.42)" gradientUnits="userSpaceOnUse" x1="67.894" x2="67.854" y1="108.69" y2="113.11"><stop offset="0" stop-color="#f9f9f9"/><stop offset="1" stop-color="#999"/></linearGradient><g fill="#3b94f7"><rect fill-rule="evenodd" height="28.2" rx="5.575" width="28.2" x="1.898" y="1.898"/><circle cx="16" cy="16" r="8.481"/></g><path d="m16 6.105c-5.482 0-9.895 4.413-9.895 9.895s4.413 9.895 9.895 9.895 9.895-4.413 9.895-9.895-4.413-9.895-9.895-9.895m0 4.240602a4.240602 5.654135 0 0 1 4.240601 5.654135 4.240602 5.654135 0 0 1 -4.240601 5.654135 4.240602 5.654135 0 0 1 -4.240602-5.654135 4.240602 5.654135 0 0 1 4.240602-5.654135" fill="#fff"/>

   xmlns:dc="http://purl.org/dc/elements/1.1/"
   xmlns:cc="http://creativecommons.org/ns#"
   xmlns:rdf="http://www.w3.org/1999/02/22-rdf-syntax-ns#"
   xmlns:svg="http://www.w3.org/2000/svg"
   xmlns="http://www.w3.org/2000/svg"
   xmlns:xlink="http://www.w3.org/1999/xlink"
   xmlns:sodipodi="http://sodipodi.sourceforge.net/DTD/sodipodi-0.dtd"
   xmlns:inkscape="http://www.inkscape.org/namespaces/inkscape"
   version="1"
   width="32"
   height="32"
   id="svg12"
   sodipodi:docname="snow-top-1.svg"
   inkscape:version="0.92.1 r"&gt;
  <path d="m7.288.009c-8.276-.356-9.36 9.992-4.02 9.973.679.003 1.604-.207 2.97-1.543 7.256-10.531 14.706 3.573 17.53.919 1.71-1.912 3.496-.418 4.448.115 2.1.643 3.662.041 3.785-3.231.188-3.321-1.889-6.344-5.923-6.223-5.914.14-12.989-.047-18.787-.01" fill="url(#a)"/><path d="m0 0h32v32h-32z" fill="none"/></svg>