<svg viewBox="0 0 32 32" xmlns="http://www.w3.org/2000/svg"><rect fill="#394e6f" fill-rule="evenodd" height="28.2" rx="5.575" width="28.2" x="1.898" y="1.898"/><g fill="#fff" stroke="#394e6f" stroke-linecap="round" stroke-linejoin="round" stroke-width=".5"><circle cx="18.499" cy="14.5" r="3.25"/><circle cx="25.999" cy="21.005" r="1.75"/><circle cx="21.999" cy="19.005" r="3.75"/><circle cx="7.499" cy="19.5" r="3.25"/><circle cx="10.499" cy="13" r="1.75"/><circle cx="10.999" cy="17.005" r="3.75"/><circle cx="10.999" cy="21.005" r="1.75"/><circle cx="14.499" cy="12.5" r="3.25"/><circle cx="15.999" cy="18.005" r="4.75"/></g>

   xmlns:dc="http://purl.org/dc/elements/1.1/"
   xmlns:cc="http://creativecommons.org/ns#"
   xmlns:rdf="http://www.w3.org/1999/02/22-rdf-syntax-ns#"
   xmlns:svg="http://www.w3.org/2000/svg"
   xmlns="http://www.w3.org/2000/svg"
   xmlns:sodipodi="http://sodipodi.sourceforge.net/DTD/sodipodi-0.dtd"
   xmlns:inkscape="http://www.inkscape.org/namespaces/inkscape"
   height="32"
   width="32"
   version="1"
   id="svg8"
   sodipodi:docname="star-mime-2.svg"
   inkscape:version="0.92.1 r"&gt;
  <g fill="#fff" transform="translate(152.47 194.05)"><path d="m-125.38-193.25-.077 3.548 3.072 1.831-3.548-.077-3.135 6.791 1.38-7.268-3.072-1.831 3.548.077z"/><path d="m-125.41-183.04.042-1.955-1.692-1.01 1.955.042 1.727-3.741-.76 4 1.692 1.01-1.955-.042z"/></g></svg>