<svg height="22" width="22" xmlns="http://www.w3.org/2000/svg"><rect height="12" opacity=".2" rx="1" width="20" x="1" y="8.5"/><path d="m1 16c0 .554.446 1 1 1h18c .554 0 1-.446 1-1v-11c0-.554-.446-1-1-1h-10v-1c0-.554-.446-1-1-1h-7c-.554 0-1 .446-1 1" fill="#727272"/><rect height="12" opacity=".2" rx="1" width="20" x="1" y="7.5"/><rect fill="#e4e4e4" height="8" rx="1" width="16" x="3" y="6"/><rect fill="#8e8e8e" height="12" rx="1" width="20" x="1" y="8"/><path d="m2 2c-.554 0-1 .446-1 1v .5c0-.554.446-1 1-1h7c .554 0 1 .446 1 1v-.5c0-.554-.446-1-1-1zm8 2v .5h10c .554 0 1 .446 1 1v-.5c0-.554-.446-1-1-1z" fill="#fff" opacity=".1"/><path d="m12.989 10c-.497.018-1.098.287-1.454.653-.319.325-.598.843-.523 1.34.554.038 1.118-.247 1.463-.613.345-.367.577-.872.514-1.38zm-.45 2.003c-.623-.062-.914.363-1.23.363s-.804-.353-1.3196-.343c-.679.01-1.3071.389-1.6567.99-.7055 1.21-.1798 3.003.5078 3.984.3359.48.7469 1.003 1.2635 1.003.517 0 .698-.327 1.31-.327.613 0 .479.327 1.02.327s.791-.503 1.125-.985c.386-.557.441-1.015.441-1.015s-.992-.512-1.002-1.708c-.01-1.001 1.002-1.506 1.002-1.506-.47-.679-1.2-.772-1.461-.783z" fill="#323232"/></svg>