<svg height="32" width="32" xmlns="http://www.w3.org/2000/svg"><g transform="translate(34.746268 .358209)"><path d="m-13.559287 1.641791h-13.65097c-3.066406 0-5.536011 2.4676663-5.536011 5.5340721v16.9299179c0 3.066406 2.469605 5.536011 5.536011 5.536011h16.929917c3.0664057 0 5.5340717-2.469605 5.5340717-5.536011v-13.650971z" fill="#d8dcde" fill-rule="evenodd"/><path d="m-4.7462683 10.45481-8.8130187-8.8130189v3.2789473c0 3.0664056 2.467666 5.5340716 5.5340717 5.5340716z" fill="#79838e" fill-rule="evenodd"/></g><path d="m16.000001 9.5223886c-4.237304 0-7.6716424 3.4343384-7.6716424 7.6716424 0 4.237303 3.4343384 7.671642 7.6716424 7.671642 4.237303 0 7.671642-3.434339 7.671642-7.671642 0-4.237304-3.434339-7.6716424-7.671642-7.6716424m0 1.2786074c3.530234 0 6.393035 2.862801 6.393035 6.393035s-2.862801 6.393035-6.393035 6.393035-6.3930354-2.862801-6.3930354-6.393035 2.8628014-6.393035 6.3930354-6.393035m0 1.278607c-2.824443 0-5.114428 2.289985-5.114428 5.114428h2.557214c0-1.412861 1.144353-2.557214 2.557214-2.557214zm0 3.835821a1.278607 1.278607 0 0 0 -1.278607 1.278607 1.278607 1.278607 0 0 0 1.278607 1.278607 1.278607 1.278607 0 0 0 1.278607-1.278607 1.278607 1.278607 0 0 0 -1.278607-1.278607m2.557214 1.278607c0 1.41286-1.144354 2.557214-2.557214 2.557214v2.557214c2.824442 0 5.114428-2.289986 5.114428-5.114428z" fill="#79838e" stroke-width=".1"/></svg>