<svg height="32" width="32" xmlns="http://www.w3.org/2000/svg"><g transform="translate(58.169492 4.067797)"><path d="m-36.982511-2.0677966h-13.65097c-3.066406 0-5.536011 2.46766629-5.536011 5.5340721v16.9299165c0 3.066406 2.469605 5.536011 5.536011 5.536011h16.929917c3.066406 0 5.534072-2.469605 5.534072-5.536011v-13.6509695z" fill="#4d84b6" fill-rule="evenodd"/><path d="m-28.169492 6.7452225-8.813019-8.813019v3.2789473c0 3.0664056 2.467666 5.5340717 5.534072 5.5340717z" fill="#41617e" fill-rule="evenodd"/></g><path d="m12.745051 24.329434c-.293639-.07617-.264152-.158491.219922-.611849.834228-.78017.973061-1.556653.735939-4.112168-.189207-2.038269-.232208-2.194303-.550419-2.023526-.69048.369813-1.551738-.106889-2.530943-1.398161-.484073-.63765-.529532-.825628-.447215-1.819576.05037-.609392.154806-1.345331.23098-1.635284.116718-.444758.07986-.527075-.243266-.527075-.2100926 0-.4902164-.131462-.6229066-.291181-.3341827-.402985.2616946-1.050464.9669186-1.050464.286267 0 .62905-.129005.760511-.287496.339097-.407899.856344-.356298 1.437477.143748.617993.531989.828086 1.76306.481617 2.814752-.391928 1.189298-.120404 1.306016.428786.183064.307153-.627822.740853-1.175783 1.09838-1.387104.324354-.191664.798598-.679423 1.05415-1.083637.255551-.404214.574991-.80597.711367-.893202.417728-.266609 1.565253-.633964 1.99281-.6376499.583591-.012286 1.366218.6781949 1.505051 1.3133869.06635.299782.417728 1.007463.781398 1.571396.363669.565162.660994 1.12541.660994 1.245814s.258008.544276.57499.942346c.473016.595878.573763.895659.566391 1.702858-.0086 1.10698-.604478 2.517428-.823171 1.94858-.0688-.179377-.04054-.485302.06389-.679423.217465-.406671.0258-2.210275-.210093-1.974381-.164634.164634-.271523 1.924008-.226064 3.698125.0602 2.302421-.0516 4.472151-.233437 4.531125-.464416.147433-.667137-.234665-.476702-.899345.286267-1.000091.227294-3.660038-.09092-4.080224-.147434-.19412-.324354-.689252-.393156-1.100837-.07003-.411585-.201493-.793684-.293639-.8502-.302239-.186749-.758054 1.022206-.758054 2.008782 0 .772798-.116718 1.129096-.574991 1.761831-.648708.895659-.699081 1.159811-.287495 1.501365.320668.266609.383327.876001.106889 1.046779-.09952.06143-.357526-.07863-.574991-.312068-.307153-.329268-.394385-.356298-.394385-.122861 0 .350154-.710138.588505-1.102066.368583-.210092-.116718-.159719-.22115.224837-.474244.686794-.449673.620449-.818256-.297325-1.657399-.715052-.653622-.77894-.785084-.660994-1.366218.371042-1.840462.369813-1.888378-.05897-1.888378-.280124 0-.404214.120404-.404214.395613 0 .217465-.0946.573763-.211321.791227-.205178.383327-.266609.691709-.762969 3.841873-.246951 1.570167-.308382 1.63037-1.377275 1.351474m5.142974-3.343056c.24818-.481616.285038-.893201.178149-2.032125-.14129-1.512423-.245723-1.565253-.659765-.334183-.141291.421414-.417729.971833-.614307 1.22247-.455815.584819-.447215.76174.0602 1.302329.544276.578677.662223.561477 1.035721-.159719" fill="#41617e"/></svg>