<svg height="32" width="32" xmlns="http://www.w3.org/2000/svg"><g transform="translate(37.134328 4.059701)"><path d="m-15.947347-2.0597015h-13.65097c-3.066406 0-5.536011 2.46766631-5.536011 5.5340722v16.9299173c0 3.066406 2.469605 5.536011 5.536011 5.536011h16.929917c3.0664056 0 5.5340716-2.469605 5.5340716-5.536011v-13.6509704z" fill="#6bd4d8" fill-rule="evenodd"/><path d="m-7.1343284 6.7533176-8.8130186-8.813019v3.2789473c0 3.0664058 2.467666 5.5340717 5.534072 5.5340717z" fill="#d8f4f5" fill-rule="evenodd"/><path d="m-26.033828 7.7537316a1.5 1.5 0 0 0 -1.5 1.4999999 1.5 1.5 0 0 0 1.5 1.5000005 1.5 1.5 0 0 0 1.5-1.5000005 1.5 1.5 0 0 0 -1.5-1.4999999m0 .9999999a.5.5 0 0 1  .5.5.5.5 0 0 1 -.5.5.5.5 0 0 1 -.5-.5.5.5 0 0 1  .5-.5m9.5 1-5.6 5.5800005-2.6-2.58-6 6h1.406l3.119-3.082 1.408-1.404 1.564 1.418 1.102 1.068 5.6-5.398 3.594 3.398h1.406z" fill="#d8f4f5" stroke-width="2"/></g></svg>