<svg height="17pt" viewBox="0 0 17 17" width="17pt" xmlns="http://www.w3.org/2000/svg" xmlns:xlink="http://www.w3.org/1999/xlink"><clipPath id="a"><path d="m0 0h17v17h-17z"/></clipPath><path d="m3.96875 1.007812h9.0625c1.632812 0 2.960938 1.328126 2.960938 2.960938v9.0625c0 1.632812-1.328126 2.960938-2.960938 2.960938h-9.0625c-1.632812 0-2.960938-1.328126-2.960938-2.960938v-9.0625c0-1.632812 1.328126-2.960938 2.960938-2.960938zm0 0" fill="#848484" fill-rule="evenodd"/><path d="m8.425781 5.140625c-1.839843 0-3.332031 1.492187-3.332031 3.332031s1.492188 3.332032 3.332031 3.332032c1.839844 0 3.332031-1.492188 3.332031-3.332032s-1.492187-3.332031-3.332031-3.332031zm0 1.996094c.738281 0 1.332031.597656 1.332031 1.335937 0 .734375-.59375 1.332032-1.332031 1.332032-.734375 0-1.332031-.597657-1.332031-1.332032 0-.738281.597656-1.335937 1.332031-1.335937zm0 0" fill="#848484"/><path d="m8.425781 2.25c-3.445312 0-6.21875 2.773438-6.21875 6.222656 0 3.445313 2.773438 6.21875 6.21875 6.21875 3.445313 0 6.222657-2.773437 6.222657-6.21875 0-3.449218-2.777344-6.222656-6.222657-6.222656zm0 3.554688c1.472657 0 2.667969 1.195312 2.667969 2.667968s-1.195312 2.664063-2.667969 2.664063c-1.472656 0-2.664062-1.191407-2.664062-2.664063s1.191406-2.667968 2.664062-2.667968zm0 0" fill="#fff"/><g clip-path="url(#a)"><path d="m15.535156 11.582031c0 1.960938-1.589844 3.554688-3.554687 3.554688-1.964844 0-3.554688-1.59375-3.554688-3.554688 0-1.964843 1.589844-3.554687 3.554688-3.554687 1.964843 0 3.554687 1.589844 3.554687 3.554687zm0 0" fill="#ba22ff"/></g><path d="m10.203125 11.730469c0 .980469.796875 1.777343 1.777344 1.777343.972656 0 1.757812-.78125 1.777343-1.75 0-.007812 0-.019531 0-.027343 0-.164063-.132812-.296875-.296874-.296875-.164063 0-.296876.132812-.296876.296875 0 .652343-.527343 1.183593-1.183593 1.183593-.652344 0-1.183594-.53125-1.183594-1.183593 0-.65625.53125-1.183594 1.183594-1.183594v.589844l1.183593-.886719-1.183593-.890625v.59375c-.980469 0-1.777344.796875-1.777344 1.777344zm0 0" fill="#fff"/></svg>