<svg height="22" width="22" xmlns="http://www.w3.org/2000/svg"><g transform="matrix(0 -1 -1 0 0 0)"><rect height="12" opacity=".2" rx="1" width="16" x="-20.5" y="-17"/><rect fill="#8e8e8e" height="12" rx="1" width="16" x="-20" y="-17"/><rect height="20" opacity=".2" rx="1" width="16" x="-18.5" y="-21"/><rect fill="#4f4f4f" height="20" rx="1" width="16" x="-18" y="-21"/><path d="m-15.614792-18.460709 11.614792-.539291v16h-12z" opacity=".4"/></g><path d="m2 2c-.554 0-1 .446-1 1v .5c0-.554.446-1 1-1h18c .554 0 1 .446 1 1v-.5c0-.554-.446-1-1-1z" fill="#fff" opacity=".1"/><path d="m19 4.5-16 12h15.179688s.820312 0 .820312-.75zm-3 6v3h-4z" opacity=".2"/><path d="m19 4-16 12h15.179688s.820312 0 .820312-.75zm-3 6v3h-4z" fill="#cd3840"/><path d="m19 4-16 12h .6660156l15.3339844-11.5zm-6.333984 9-.666016.5h4v-.5z" fill="#fff" opacity=".2"/></svg>