<svg height="22" width="22" xmlns="http://www.w3.org/2000/svg"><path d="m11.500053.500525c-5.7965545 0-10.495853 4.6987735-10.500053 10.494277v8.875695c0 .902637.7268661 1.629503 1.6295031 1.629503h8.8762199c5.797079 0 10.494277-4.702396 10.494277-10.500053 0-5.7991785-4.701084-10.500052-10.500053-10.500052z" opacity=".2"/><path d="m11.500053.000525c-5.7965545 0-10.495853 4.6987735-10.500053 10.494277v8.875695c0 .902637.7268661 1.629503 1.6295031 1.629503h8.8762199c5.797079 0 10.494277-4.702396 10.494277-10.500053 0-5.7991785-4.701084-10.500052-10.500053-10.500052z" fill="#324e89"/><g transform="translate(-.5 -1.5)"><path d="m15 4.5c-2.485281 0-4.5 2.0147185-4.5 4.5v2.5h-2.5c-2.4852815 0-4.5 2.014719-4.5 4.5s2.0147185 4.5 4.5 4.5c2.485281 0 4.5-2.014719 4.5-4.5v-2.5h2.5c2.485281 0 4.5-2.014719 4.5-4.5 0-2.4852815-2.014719-4.5-4.5-4.5zm0 2c1.380711 0 2.5 1.1192885 2.5 2.5 0 1.380712-1.119289 2.5-2.5 2.5h-1.990234c-.231548 0-.509766.000351-.509766-.548828v-1.951172c0-1.3807115 1.119288-2.5 2.5-2.5zm-7 7h1.9902345c.2315475 0 .5097655-.00035.5097655.548828v1.951172c0 1.380711-1.119288 2.5-2.5 2.5-1.3807115 0-2.5-1.119289-2.5-2.5 0-1.380712 1.1192885-2.5 2.5-2.5z" fill="#fff" opacity=".2"/><path d="m15 4.5c-2.485281 0-4.5 2.0147185-4.5 4.5v2.5h-2.5a1 1 0 0 0 -.099609.0049c-.00065.000014-.0013-.000015-.00195 0a1 1 0 0 0 -.898441.9951 1 1 0 0 0 1 1h1.9902345c.2315475 0 .5097655-.00035.5097655.548828v1.951172c0 1.380711-1.119288 2.5-2.5 2.5-.384032 0-.743235-.09333-1.0683595-.248047-.134977-.064696-.2816695-.10165-.4316405-.101563-.5522845 0-1 .447716-1 1 .0005.377878.2139685.723198.551758.892579.0000285.0031-.000031.0057 0 .0088.5901875.284371 1.2492565.448231 1.948242.448231 2.485281 0 4.5-2.014719 4.5-4.5v-2.5h2a1 1 0 0 0 1-1 1 1 0 0 0 -1-1h-1.490234c-.231548 0-.509766.000351-.509766-.548828v-1.951172c0-1.3807115 1.119288-2.5 2.5-2.5.252093 0 .490286.04876.719727.118164-.000282-.00285-.0007-.00598-.001-.00879.09132.026995.186025.040805.28125.041015.552284 0 1-.4477155 1-1-.000038-.093495-.01318-.1865235-.03907-.276367.00055-.01534.0039-.029365.0039-.04492-.0082-.013085-.02406-.026795-.0332-.04004v-.001c-.124585-.3201262-.404826-.5539353-.742154-.6191167-.0071-.00376-.0144-.00703-.02148-.010742-.373055-.1001639-.763304-.1582033-1.167973-.1582033z" fill="#fff"/></g><path d="m11.5 0c-5.7965545 0-10.4958 4.6986371-10.5 10.494141v.5c.0042-5.7955039 4.7034455-10.494141 10.5-10.494141 5.714604 0 10.352285 4.5674327 10.486328 10.25.001977-.083871.013672-.165654.013672-.25 0-5.7991785-4.701031-10.5-10.5-10.5z" fill="#fff" opacity=".1"/></svg>