<svg height="32" width="32" xmlns="http://www.w3.org/2000/svg"><rect fill="#3b80ae" fill-rule="evenodd" height="28.203388" ry="5.575182" width="28.203388" x="1.898306" y="1.898306"/><path d="m7.6328125 7.5c-.627128 0-1.1328125.5468045-1.1328125 1.2265625v4.5468755c0 .679757.5056845 1.226562 1.1328125 1.226562h4.7050785l2.728515 5h-.716797c-.470346 0-.849609.391649-.849609.876953v3.246094c0 .485304.379263.876953.849609.876953h4.300782c.470346 0 .849609-.391649.849609-.876953v-3.246094c0-.225686-.087739-.427043-.222656-.582031l1.720703-2.294922h3.511719c.549014 0 .990234-.468527.990234-1.050781v-3.898438c0-.582254-.44122-1.050781-.990234-1.050781h-5.019532c-.487565 0-.870939.37662-.955078.867188l-4.035156-1.007813v-2.6328125c0-.679758-.505684-1.2265625-1.132812-1.2265625zm6.8671875 4.888672 4 1v3.060547c0 .582254.44122 1.050781.990234 1.050781h.257813l-1.5 2h-2.041016l-2.734375-5.011719c.576882-.057753 1.027344-.573974 1.027344-1.214843z" fill="#c9d0ff"/></svg>