<svg height="32" viewBox="0 0 32 32" width="32" xmlns="http://www.w3.org/2000/svg"><g fill-rule="evenodd" transform="translate(44.746093 .134766)"><path d="m-37.880859 16.845703v8.128906h9.482421z" fill="#ccc"/><path d="m-16.564453 28.53125-26.054688-22.3320312c-.08103.3795447-.228515.7342504-.228515 1.1386718v17.0527344c0 3.088651 2.487521 5.576172 5.576172 5.576172h17.052734c1.417624 0 2.672561-.570118 3.654297-1.435547zm-21.316406-11.685547 9.482421 8.128906h-9.482421z" fill="#8ac249"/><path d="m-37.271484 1.7636719c-2.68423 0-4.809834 1.9164291-5.347657 4.4355469l26.054688 22.3320312c1.157223-1.020126 1.919922-2.469598 1.919922-4.140625v-17.0527344c0-3.0886508-2.485568-5.5742187-5.574219-5.5742187z" fill="#ccc"/></g></svg>