<svg height="32" width="32" xmlns="http://www.w3.org/2000/svg"><rect fill="#6eaa36" fill-rule="evenodd" height="28.203388" ry="5.575182" width="28.203388" x="1.898306" y="1.898306"/><g transform="translate(42.986764 8.832359)"><path d="m-29.146442-3.3833808c-.223082.024343-.421293.2071043-.461991.4283773l-.444656 2.25945682c-.798874.3125406-1.550268.74129477-2.209263 1.26885307l-2.193286-.7418977c-.227755-.0785308-.503216.023514-.625609.2311459l-2.110761 3.65952121c-.118927.2102696-.06707.501934.116289.6594478l1.747198 1.5336874c-.0615.4107418-.09858.8244982-.09858 1.2525741s.03708.8418323.09858 1.2525741l-1.747198 1.5336872c-.183289.1575136-.235216.4491786-.116289.6594476l2.110761 3.659748c.122393.207255.397854.309752.625609.230618l2.193286-.741596c.658995.527558 1.410389.957895 2.209263 1.270662l.444656 2.257949c.04522.235894.269809.425061.510978.428076h4.219713c.241169-.003.467266-.192182.512485-.428076l.444656-2.257949c.798874-.312767 1.550268-.743104 2.209716-1.270662l2.191628.741596c.227604.07913.504195-.02336.627041-.230618l2.110986-3.659748c.118324-.210269.06708-.501934-.116816-.6594476l-1.746972-1.5336872c.0618-.4107418.09873-.8244982.09873-1.2525741s-.03768-.8418323-.09873-1.2525741l1.746972-1.5336874c.183138-.1575138.23514-.4491782.116816-.6594478l-2.110986-3.65952121c-.122846-.20755651-.399437-.30967672-.627041-.2311459l-2.191628.7418977c-.659448-.5275583-1.410842-.95631247-2.209716-1.26885307l-.444656-2.25945682c-.04522-.2364215-.271316-.4251366-.512485-.4283773h-4.219713c-.01658-.0003844-.03241-.0003844-.04899 0z" fill="#f2f2f2"/><path d="m-28.224723 2.2690295v3.3914462l3.014619-3.3914462 3.014619.3768273-4.521928 4.8987557 4.521928 4.5219285-3.014619.376827-3.014619-3.0146189v2.6377919l-2.260964.376827v-9.7975112z" fill="#6eaa36"/></g></svg>