<svg height="32" width="32" xmlns="http://www.w3.org/2000/svg"><g fill-rule="evenodd"><path d="m30.101562 12.222656v-4.7499998c0-3.0886508-2.485568-5.5742187-5.574219-5.5742187h-4.75z" fill="#ff5722"/><path d="m18.111328 1.8984375h-10.636719c-3.088651 0-5.576172 2.4855679-5.576172 5.5742187v17.0527348c0 3.088651 2.487521 5.576172 5.576172 5.576172h17.052734c3.088651 0 5.574219-2.487521 5.574219-5.576172v-10.636719z" fill="#ff5722"/><path d="m18.111328 1.8984375 11.990234 11.9902345v-1.666016l-10.324219-10.3242185z" fill="#fff"/></g><g fill="#fff" transform="translate(3.835156 10.691907)"><path d="m6.8901591 2.1725153a3.3898306 3.3898306 0 0 0 -2.9375001 1.695313 3.3898306 3.3898306 0 0 0 0 3.388672 3.3898306 3.3898306 0 0 0 2.0507811 1.574219 3.3898306 3.3898306 0 0 0  .283203.06445 3.3898306 3.3898306 0 0 0  .19336.03125 3.3898306 3.3898306 0 0 0  .0918.01172 3.3898306 3.3898306 0 0 0 2.052734-.431641 3.3898306 3.3898306 0 0 0 1.6953119-2.935547h-3.4296869z"/><rect height="1.306589" ry=".653295" width="8.710636" x="12.116905" y="2.958168"/><rect height="1.306589" ry=".653295" width="8.710636" x="12.116905" y="6.877935"/><rect height="1.306589" ry=".653295" width="13.073126" x="4.277373" y="10.7977"/></g></svg>