<svg height="32" width="32" xmlns="http://www.w3.org/2000/svg"><rect fill="#4f4f4f" fill-rule="evenodd" height="28.203388" ry="5.575182" width="28.203388" x="1.898306" y="1.898306"/><rect fill="#fff" height="5" rx="1.333" ry="1.25" width="20" x="6" y="9.5"/><rect fill="#fff" height="5" rx="1.333" ry="1.25" width="20" x="6" y="17.5"/><circle cx="8.5" cy="12" fill="#4fa0ff" r="1.5"/><circle cx="8.5" cy="20" fill="#ff4f4f" r="1.5"/><circle cx="13.5" cy="12" fill="#4fa0ff" r="1.5"/><circle cx="13.5" cy="20" fill="#ff4f4f" r="1.5"/><circle cx="18.5" cy="12" fill="#4fa0ff" r="1.5"/><circle cx="18.5" cy="20" fill="#ff4f4f" r="1.5"/><rect fill="#4f4f4f" fill-rule="evenodd" height="28.203388" ry="5.575182" width="28.203388" x="1.898306" y="1.898306"/><rect fill="#fff" height="5" rx="1.333" ry="1.25" width="20" x="6" y="9.5"/><rect fill="#fff" height="5" rx="1.333" ry="1.25" width="20" x="6" y="17.5"/><circle cx="8.5" cy="12" fill="#4fa0ff" r="1.5"/><circle cx="8.5" cy="20" fill="#ff4f4f" r="1.5"/><circle cx="13.5" cy="12" fill="#4fa0ff" r="1.5"/><circle cx="13.5" cy="20" fill="#ff4f4f" r="1.5"/><circle cx="18.5" cy="12" fill="#4fa0ff" r="1.5"/><circle cx="18.5" cy="20" fill="#ff4f4f" r="1.5"/></svg>