<svg height="32" viewBox="0 0 32 32" width="32" xmlns="http://www.w3.org/2000/svg"><rect fill="#329c32" fill-rule="evenodd" height="28.203388" ry="5.575182" width="28.203388" x="1.898306" y="1.898306"/><path d="m21.78887 11.593-3.7387.5929c-.1876-.4757-.35846-.804-.51256-.9849-.1474-.1876-.39531-.3752-.74372-.5628v2.9045c2.0369.5427 3.397 1.1156 4.0804 1.7186.90452.8107 1.3568 1.8392 1.3568 3.0854 0 .7304-.16415 1.4004-.49246 2.0101-.32161.6097-.73702 1.1189-1.2462 1.5277-.50251.4087-1.0385.7068-1.608.8944-.56952.1809-1.2663.2881-2.0905.3216v1.8995h-1.4673v-1.8995c-.98493-.087-1.7856-.2445-2.402-.4723-.60972-.2345-1.139-.5561-1.5879-.9648-.44221-.4088-.78392-.8476-1.0251-1.3166-.24121-.4758-.42211-.6768-.54272-1.3468l4.0603-1c .1206.6633.28141 1.2982.48241 1.593.2077.2948.54606.5561 1.0151.7839v-3.5477c-1.3534-.3753-2.3149-.7002-2.8844-.9749-.56281-.2747-1.0519-.7136-1.4673-1.3166-.41541-.6097-.62312-1.3501-.62312-2.2211 0-1.1926.41541-2.1876 1.2462-2.9849.83752-.8041 2.0804-1.2496 3.7286-1.3367v-.995h1.4673v.995c1.5008.094 2.6466.4489 3.4372 1.0653.79732.6164 1.3166 1.4606 1.5578 2.5327zm-6.4623-1.0051c-.42881.1407-.72697.3149-.89447.5227-.1675.2077-.25126.4522-.25126.7336 0 .2948.08375.5528.25126.7739.1742.2144.47236.3953.89447.5427zm1.4673 9.8895c.56952-.1273.98492-.335 1.2462-.6231.26801-.2948.40201-.6231.40201-.9849 0-.3149-.1139-.6031-.34171-.8644-.22111-.268-.65662-.5159-1.3065-.7437z" fill="#262626"/></svg>