<svg height="22" width="22" xmlns="http://www.w3.org/2000/svg"><rect height="16" opacity=".2" rx="8" transform="matrix(0 -1 -1 0 0 0)" width="16" x="-19.5" y="-19"/><rect fill="#4ca341" height="16" rx="8" transform="matrix(0 -1 -1 0 0 0)" width="16" x="-19" y="-19"/><path d="m11 3c-4.432 0-8 3.568-8 8 0 .08441.00915.16624.011719.25.1323521-4.3143496 3.6406869-7.75 7.988281-7.75 4.347594 0 7.855929 3.4356504 7.988281 7.75.00257-.08376.011719-.165594.011719-.25 0-4.432-3.568-8-8-8z" fill="#fff" opacity=".2"/><path d="m11 1.5a10 10 0 0 0 -4.9960938 1.3535156 10 10 0 0 1 4.9960938 8.6464844 10 10 0 0 1 -5.0039062 8.646484 10 10 0 0 0 5.0039062 1.353516 10 10 0 0 0 10-10 10 10 0 0 0 -10-10z" opacity=".2"/><path d="m11 1a10 10 0 0 0 -4.9960938 1.3535156 10 10 0 0 1 4.9960938 8.6464844 10 10 0 0 1 -5.0039062 8.646484 10 10 0 0 0 5.0039062 1.353516 10 10 0 0 0 10-10 10 10 0 0 0 -10-10z" fill="#e4e4e4"/><path d="m11 1a10 10 0 0 0 -4.9960938 1.3535156 10 10 0 0 1  .4277344.2773438 10 10 0 0 1 4.5683594-1.1308594 10 10 0 0 1 9.990234 9.792969 10 10 0 0 0  .009766-.292969 10 10 0 0 0 -10-10zm-.0078 10.167969a10 10 0 0 1 -4.9961062 8.478515 10 10 0 0 0  .4414062.228516 10 10 0 0 0 4.5625-8.375 10 10 0 0 0 -.0078-.332031z" fill="#fff" opacity=".2"/></svg>