<svg height="32" width="32" xmlns="http://www.w3.org/2000/svg"><rect fill="#ec6295" fill-rule="evenodd" height="28.203388" ry="5.575182" width="28.203388" x="1.898306" y="1.898306"/><g transform="translate(42.526317 2)"><path d="m-26.526316 6.2105263c-3.024653 0-5.60071 1.7957074-6.709307 4.3371787-2.815662.405832-4.974904 2.733327-4.974904 5.576484 0 3.129032 2.615628 5.665285 5.842106 5.665285h12.414863c2.822905 0 5.111452-2.219221 5.111452-4.957221 0-2.544042-1.973073-4.629285-4.518673-4.912042-.663663-3.2484447-3.621327-5.7096847-7.165537-5.7096847z" fill="#fff"/><path d="m-23.410527 10.105263-4.673684.778948v4.104663a1.5578947 1.5578947 0 0 0 -.778947-.210316 1.5578947 1.5578947 0 0 0 -1.557895 1.557895 1.5578947 1.5578947 0 0 0 1.557895 1.557894 1.5578947 1.5578947 0 0 0 1.557895-1.557894v-4.024042l3.115789-.520314v2.417463a1.5578947 1.5578947 0 0 0 -.778947-.210316 1.5578947 1.5578947 0 0 0 -1.557895 1.557895 1.5578947 1.5578947 0 0 0 1.557895 1.557895 1.5578947 1.5578947 0 0 0 1.557894-1.557895v-5.452631z" fill="#ec6295"/></g></svg>