<svg height="32" width="32" xmlns="http://www.w3.org/2000/svg"><g fill-rule="evenodd"><rect fill="#473f3b" height="28.203388" ry="5.575182" transform="rotate(-90)" width="28.203388" x="-30.115526" y="1.856993"/><path d="m14.530468 1.9117269-1.078125.404297-3.345703 1.25586 1.253906 3.345703 3.345703-1.253906 3.34375-1.25586 3.345703-1.253906 3.214844-1.207031c-.06126-.002-.112071-.03516-.173828-.03516z" fill="#fecd38"/><path d="m13.579296 12.532821 3.382812 1.144531 3.384766 1.144531 3.384766 1.144531 1.144531-3.384765-3.384766-1.144531 1.144531-3.3847661-3.384765-1.146484-1.144531 3.3867181-3.382813-1.1445311z" fill="#8ebcd3"/><path d="m3.9464832 6.4996179 2.1953125 2.818359 2.1933593 2.8203131 2.81836-2.1933601-2.19336-2.820312-2.1953124-2.820313z" fill="#ce4e4f"/><path d="m12.438671 30.200004v-3.501953h-3.572266-3.5722656v3.013672c.6665436.284514 1.3752217.488281 2.1503906.488281z" fill="#ce4e4f"/><path d="m16.010936 30.200004v-3.501953-3.572265h-3.572265-3.572266v3.572265h3.572266v3.501953z" fill="#30a446"/><path d="m19.583202 30.200004v-3.501953-3.572265-3.574219h-3.572266v3.574219 3.572265 3.501953z" fill="#ffb426"/><path d="m26.727733 29.725395v-3.027344-3.574219h-3.570312-3.574219v.002 3.572265 3.501953h4.916016c.796066 0 1.544805-.17661 2.228515-.474609z" fill="#ce224f"/><path d="m30.073436 23.125786h-3.34375v3.572265 3.025391c1.967632-.858784 3.343752-2.806076 3.34375-5.097656z" fill="#fecd38"/><path d="m26.729686 23.125786h-.002v3.572265 3.027344s.002-.0019.002-.0019v-3.025391z" fill="#4d4d4d"/><path d="m30.073436 15.977348h-3.34375v3.574219h-3.572265-3.574219v3.572265h3.574219 3.570312v.002h.002 3.34375z" fill="#0890d5"/><path d="m5.2941394 29.711723v-3.013672h-3.0058594c.5504613 1.375911 1.6495603 2.434736 3.0058594 3.013672z" fill="#30a4ee"/><path d="m2.28828 26.698051h3.0058594 3.5722656v-3.572265h-3.5722656v-3.574219h-3.4238281v5.074219c0 .736149.1610657 1.430121.4179687 2.072265z" fill="#ce4e4f"/></g></svg>