<svg height="32" width="32" xmlns="http://www.w3.org/2000/svg"><rect fill="#9dc1b4" fill-rule="evenodd" height="28.203388" ry="5.575182" width="28.203388" x="1.898306" y="1.898306"/><g transform="translate(42.11422 -.893588)"><path d="m-17.081884 7.8208956c.625508 0 1.129079.6446692 1.129079 1.2701769v12.7017685c0 .625653-.504007 1.246225-1.129079 1.270177h-9.394954l-2.540354 2.903262-2.540353-2.903262h-3.588722c-.625653 0-1.129368-.644524-1.129368-1.270177v-12.7017685c-.000218-.6255077.503498-1.2701769 1.129151-1.2701769z" fill="#3a8268"/><g fill="#9dc1b4" stroke-width="1.377761" transform="matrix(.72581537 0 0 .72581537 -37.727194 4.191819)"><path d="m10 11v-1h12v1z"/><path d="m10 14v-1h12v1z"/><path d="m10 17v-1h12v1z"/><path d="m10 20v-1h8v1z"/></g></g><g stroke-width=".967754" transform="matrix(1.0333207 0 0 1.0333207 42.775109 -.361347)"><circle cx="-20.307407" cy="21.611389" fill="#772bbe" fill-rule="evenodd" r="5.806523" stroke-width=".967754"/><path d="m-23.210669 23.221246v1.293403h1.293331l3.266459-3.266459-1.29333-1.293331zm5.703893-3.113095c.136802-.136794.136802-.352347 0-.489148l-.808341-.808341c-.136801-.136802-.352354-.136802-.489148 0l-.675734.680089 1.293403 1.293403z" fill="#fff" stroke-width=".967754"/></g></svg>