<svg height="32" width="32" xmlns="http://www.w3.org/2000/svg"><rect fill="#5db43e" fill-rule="evenodd" height="28.203388" ry="5.575182" width="28.203388" x="1.898306" y="1.898306"/><path d="m9.5 7.0000001c-.9974 0-1.5.4855-1.5 1.5 0 1.056.4491 1.4999999 1.5 1.4999999 7.456 0 12.5 5.044 12.5 12.5 0 .933.509 1.5 1.5 1.5 1.02 0 1.5-.596 1.5-1.5 0-9.113-6.387-15.4999999-15.5-15.4999999zm11.5 0 4 3.9999999v-1.9999999c0-1.108-.892-2-2-2zm-11.5 5.9999999c-.9686 0-1.5.428-1.5 1.5 0 1.027.4202 1.5 1.5 1.5 4.142 0 6.5 2.358 6.5 6.5 0 .883.507 1.5 1.5 1.5.969 0 1.5-.538 1.5-1.5 0-5.799-3.701-9.5-9.5-9.5zm.5 6c-1.6569 0-3 1.343-3 3s1.3431 3 3 3c1.657 0 3-1.343 3-3s-1.343-3-3-3z" fill="#fff"/></svg>