<svg height="32" width="32" xmlns="http://www.w3.org/2000/svg"><g transform="translate(55.048828 4.810547)"><g fill-rule="evenodd"><path d="m-25.203125 20.982422c-.04093-.408776-.08677-.818975-.244141-1.181641-.207329-.477798-.507638-.908844-.878906-1.269531-.371267-.360687-.814826-.652094-1.30664-.853516-.491815-.201421-1.032594-.3125-1.601563-.3125h-19.720703c-.568969 0-1.109749.111079-1.601563.3125-.491814.201422-.935373.492829-1.30664.853516-.371268.360687-.669624.791733-.876953 1.269531-.128245.295544-.147134.635592-.199219.962891.503196 2.564453 2.647173 4.527344 5.363281 4.527344h17.054688c2.638343 0 4.733444-1.854227 5.318359-4.308594z" fill="#666"/><path d="m-53.150391 12.0625v7.652344c0 .372543.141919.697086.210938 1.048828.05208-.327299.07097-.667347.199219-.962891.207329-.477798.505685-.908844.876953-1.269531.371267-.360687.814826-.652094 1.30664-.853516.491814-.201421 1.032594-.3125 1.601563-.3125h19.720703c.568969 0 1.109748.111079 1.601563.3125.491814.201422.935373.492829 1.30664.853516.371268.360687.671577.791733.878906 1.269531.157371.362666.203208.772865.244141 1.181641.09983-.418906.255859-.817272.255859-1.267578v-7.652344z" fill="#38592b"/><path d="m-47.576172-2.9121094c-3.088651 0-5.574219 2.48556797-5.574219 5.5742188v11.2200776h28.203125v-11.2200776c0-3.08865083-2.485568-5.5742188-5.574218-5.5742188z" fill="#e6e6e6"/></g><g fill="#b3b3b3"><circle cx="-49.07193" cy="21.356643" r="2.660673"/><circle cx="-42.420248" cy="21.356643" r="2.660673"/><circle cx="-35.768567" cy="21.356643" r="2.660673"/><circle cx="-29.116885" cy="21.356643" r="2.660673"/></g><path d="m-40.551157 8.3119477c-3.242439 0-5.870945 2.1904213-5.870945 4.8924553.0024.233906.02497.467812.06756.698922h11.607697c.04211-.231352.06425-.464923.06625-.698922-.0016-.473562-.08573-.711447-.249721-1.16487h9.942399v-1.863793h-10.753148c-1.09591-1.3116439-2.891673-1.8615557-4.809516-1.8637923z" fill="#5b7338"/></g></svg>