<svg height="32" width="32" xmlns="http://www.w3.org/2000/svg"><rect fill="#b7b7b7" fill-rule="evenodd" height="28.203388" ry="5.575182" width="28.203388" x="1.898306" y="1.898306"/><path d="m16 7.0000002c-1.662 0-3 1.338-3 2.9999998v6.007812a5 5 0 0 0 -2 3.992188 5 5 0 0 0 5 5 5 5 0 0 0 5-5 5 5 0 0 0 -2-3.992188v-6.007812c0-1.6619998-1.338-2.9999998-3-2.9999998zm0 2c .588594 0 1 .4114055 1 .9999998v7.007812l.800781.59961c.75497.566225 1.197134 1.450904 1.199219 2.394531-.001 1.6796-1.320117 2.998047-3 2.998047s-2.998964-1.318447-3-2.998047v-.002c.0027-.942892.444771-1.826744 1.199219-2.392578l.800781-.59961v-7.007765c0-.5885943.411406-.9999998 1-.9999998z" fill="#4d4d4d"/><path d="m15 13v4.007812l-.800781.59961c-.754448.565834-1.196519 1.449686-1.199219 2.392578v.002c.001 1.679553 1.320117 2.998 3 2.998s2.998964-1.318447 3-2.998047c-.0021-.943627-.444249-1.828306-1.199219-2.394531l-.800781-.59961v-4.007812z" fill="#f75f5f"/></svg>