<svg height="32" width="32" xmlns="http://www.w3.org/2000/svg"><path d="m23.867979 8.4346265c.01685 3.0848775.06161 5.5268785.06161 8.0997115-.000001 4.423125-3.585643 8.008778-8.008759 8.008778s-8.0087599-3.585653-8.0087589-8.008778c-.000001-4.423124 3.5856429-8.0087775 8.0800599-8.0172687 3.051299-.1459854 5.912438-.1017703 7.87585-.082443z" fill="none" stroke="#fff" stroke-miterlimit="4.5" stroke-width=".914724"/><rect fill="#007eff" fill-rule="evenodd" height="28.203388" ry="5.575182" width="28.203388" x="1.898306" y="1.898306"/><g transform="translate(49.557611 -6.987384)"><path d="m-40.336908 37.088947h15.306641c3.088651 0 5.574219-2.487522 5.574219-5.576172v-17.052734c0-3.088651-2.485568-5.5742188-5.574219-5.5742188h-15.306641z" fill="#007eff" fill-rule="evenodd"/><path d="m-40.336908 37.088947v-28.2031248h-1.748046c-3.088651 0-5.574219 2.4855678-5.574219 5.5742188v17.052734c0 3.08865 2.485568 5.576172 5.574219 5.576172z" fill="#005ea3" fill-rule="evenodd"/></g><path d="m18.707031 9.1230469c-.972593 0-1.77539.8047504-1.77539 1.7773441 0 .966279.774526 1.77539 1.755859 1.77539.979648 0 1.794922-.802797 1.794922-1.77539 0-.9725945-.802797-1.7773441-1.775391-1.7773441zm1.570313 4.5761721-.740235.04297-4.146484.242187v2.158203h1.646484c.06796 0 .07452.0049.117188.0078-.01741-.0075-.01953-.04282-.01953.220703v4.43164.742188c0 .08374-.0032.08753-.0078.126953-.0075-.0125-.179127.04297-.683594.04297h-.830078v2.068359h6.203125v-2.068359h-.830078c-.513068 0-.688687-.0561-.699219-.04492-.0045-.03918-.0098-.04181-.0098-.125v-.742188z" fill="#fff" transform="translate(.949153 -.40678)"/></svg>