<svg height="32" width="32" xmlns="http://www.w3.org/2000/svg"><rect fill="#7bbb36" fill-rule="evenodd" height="28.203388" ry="5.575182" width="28.203388" x="1.898306" y="1.898306"/><path d="m16 6.9999997a9 9 0 0 1 9 9.0000003 9 9 0 0 1 -9 9 9 9 0 0 1 -9-9 9 9 0 0 1 9-9.0000003zm0 2a7 7 0 0 0 -7 7.0000003 7 7 0 0 0 7 7 7 7 0 0 0 7-7 7 7 0 0 0 -7-7.0000003zm0 4.0000003 1.9824 1.5391 2.018 1.461-2.017 1.461-1.983 1.539.024-2h-3.024c-.554 0-1-.446-1-1s .446-1 1-1h3.0234l-.02344-2z" fill="#fff"/></svg>