<svg height="32" width="32" xmlns="http://www.w3.org/2000/svg"><rect fill="#6eaa36" fill-rule="evenodd" height="28.203388" ry="5.575182" width="28.203388" x="1.898306" y="1.898306"/><path d="m15.64262 4.8010737c-4.295038 0-6.7496474 1.7585313-8.3510994 3.7400814 1.227346.3366423 2.08501.6169489 2.361369.7084105.0033-.1855831.03301-1.8573708.03301-1.8573708l.02412-.05332.06221-.019045c.3776494.054601 8.4303384 1.2454338 11.8219614 3.2220852.4199.247001.626133.504767.88614.770612.937309.969159 2.182449 5.003435 2.314328 5.837411l-.05333.08634c-.04837.01789-.166782.100296-.321201.205673-.791248.553348-2.641507 1.848411-5.013375 1.637712-2.133169-.190189-4.916215-1.413713-8.273678-3.624582.147811.348598.845679 2.00563.962313 2.283949l.04824.05713c.486203.251158 5.150714 2.629326 7.464902 2.581027 1.867591-.03711 3.861321-.948496 4.659177-1.427013l.253903-.04824c.07091.05566.05993.163995.03809.264067-.04904.228633-.158647.64814-.234862.842977l-.0622.162498c-.09079.241232-.179465.474023-.34913.613197-.470538.428089-1.223776.76665-2.399448 1.282239-1.818311.794566-4.764736 1.294364-7.502983 1.278432-.979155-.0238-1.92849-.1316-2.761486-.226799-1.7382324-.197399-3.1504054-.356998-3.9940404.298198 2.051689 2.318809 5.0490754 3.783202 8.3891784 3.783202 6.185449 0 11.204984-5.014075 11.204984-11.199944 0-6.1850304-5.019255-11.1999457-11.204984-11.1999457h-.0013zm2.960565 5.9275713c-.857299.01287-1.664031.333366-2.294028.924233-.674629.624915-1.063127 1.479653-1.095621 2.399448-.06161 1.896011 1.430793 3.496483 3.327504 3.567462.923855.02983 1.797871-.299066 2.470567-.929301.670695-.626931 1.058003-1.475873 1.091813-2.394408.06493-1.89867-1.427433-3.499142-3.327504-3.567462-.05754-.0019-.115513-.000845-.172661 0zm-.0914 1.015639c.07906-.0048.154671-.003.234863 0 1.324785.04641 2.366408 1.157052 2.322028 2.484567-.01989.638887-.291927 1.237678-.760462 1.677052-.469824.43607-1.080543.661007-1.724092.641127-1.324127-.04907-2.361928-1.16415-2.318248-2.489608.02054-.641491.295832-1.234598.761722-1.672011.408798-.383305.930743-.607471 1.484133-.641127zm.631397 1.202174c-.590462 0-1.067691.319828-1.067691.713492 0 .391004.477201.713493 1.067691.713493.588529 0 1.062608-.321817 1.062608-.713493 0-.39365-.474107-.713492-1.062608-.713492z" fill="#fff"/></svg>