<svg height="32" width="32" xmlns="http://www.w3.org/2000/svg"><path d="m7.25 5c-.6925 0-1.25.5575-1.25 1.25v22.5c0 .692.5575 1.25 1.25 1.25h17.5c.692 0 1.25-.558 1.25-1.25v-15.75l-6.875-1.125-1.125-6.875z" opacity=".2"/><path d="m7.25 4c-.6925 0-1.25.5575-1.25 1.25v22.5c0 .692.5575 1.25 1.25 1.25h17.5c.692 0 1.25-.558 1.25-1.25v-15.75l-6.875-1.125-1.125-6.875z" fill="#e4e4e4"/><path d="m18 5v6.6667c0 .736.597 1.333 1.333 1.333h6.667l-8-8z" opacity=".2"/><path d="m18 4v6.6667c0 .736.597 1.333 1.333 1.333h6.667l-8-8z" fill="#fafafa"/><path d="m12 15h7v2h-5v2h3v2h-3v5h-2z" fill="#ac7e37"/><path d="m7.25 4c-.6925 0-1.25.5575-1.25 1.25v1c0-.6925.5575-1.25 1.25-1.25h10.75v-1z" fill="#fff" opacity=".2"/></svg>