<svg height="16" width="16" xmlns="http://www.w3.org/2000/svg"><g fill="#d3dae3"><path d="m3.5 3h1c .277 0 .5.223.5.5v1c0 .277-.223.5-.5.5h-1c-.277 0-.5-.223-.5-.5v-1c0-.277.223-.5.5-.5z"/><path d="m7.5 3h1c .277 0 .5.223.5.5v1c0 .277-.223.5-.5.5h-1c-.277 0-.5-.223-.5-.5v-1c0-.277.223-.5.5-.5z"/><path d="m11.5 3h1c .277 0 .5.223.5.5v1c0 .277-.223.5-.5.5h-1c-.277 0-.5-.223-.5-.5v-1c0-.277.223-.5.5-.5z"/><path d="m3.5 7h1c .277 0 .5.223.5.5v1c0 .277-.223.5-.5.5h-1c-.277 0-.5-.223-.5-.5v-1c0-.277.223-.5.5-.5z"/><path d="m7.5 7h1c .277 0 .5.223.5.5v1c0 .277-.223.5-.5.5h-1c-.277 0-.5-.223-.5-.5v-1c0-.277.223-.5.5-.5z"/><path d="m11.5 7h1c .277 0 .5.223.5.5v1c0 .277-.223.5-.5.5h-1c-.277 0-.5-.223-.5-.5v-1c0-.277.223-.5.5-.5z"/><path d="m3.5 11h1c .277 0 .5.223.5.5v1c0 .277-.223.5-.5.5h-1c-.277 0-.5-.223-.5-.5v-1c0-.277.223-.5.5-.5z"/><path d="m7.5 11h1c .277 0 .5.223.5.5v1c0 .277-.223.5-.5.5h-1c-.277 0-.5-.223-.5-.5v-1c0-.277.223-.5.5-.5z"/><path d="m11.5 11h1c .277 0 .5.223.5.5v1c0 .277-.223.5-.5.5h-1c-.277 0-.5-.223-.5-.5v-1c0-.277.223-.5.5-.5z"/></g></svg>