<svg height="24" viewBox="0 0 24 24" width="24" xmlns="http://www.w3.org/2000/svg"><path d="m17.416659 2.0000024c-.230832 0-.416666.1858415-.416666.4166784v4.166652c0 .2308375.185834.4166624.416666.4166624h4.166661c.230832 0 .416666-.1858249.416666-.4166624v-4.166652c0-.2308369-.185834-.4166784-.416666-.4166784z" fill="#ff4e40"/><g fill="#ffc34e"><path d="m2.4166715 17.000001c-.2308328 0-.416666.185842-.416666.416679v4.166652c0 .230837.1858332.416662.416666.416662h4.1666608c.2308319 0 .4166654-.185825.4166654-.416662v-4.166652c0-.230837-.1858335-.416679-.4166654-.416679z"/><path d="m7.4166676 17.000001c-.2308329 0-.4166659.185842-.4166659.416679v4.166652c0 .230837.185833.416662.4166659.416662h4.1666614c.230832 0 .416665-.185825.416665-.416662v-4.166652c0-.230837-.185833-.416679-.416665-.416679z"/><path d="m12.416664 17.000001c-.230833 0-.416666.185842-.416666.416679v4.166652c0 .230837.185833.416662.416666.416662h4.166661c.230832 0 .416665-.185825.416665-.416662v-4.166652c0-.230837-.185833-.416679-.416665-.416679z"/><path d="m2.4166709 12c-.2308328 0-.416666.185841-.416666.416678v4.166652c0 .230838.1858332.416663.416666.416663h4.1666609c.2308319 0 .4166654-.185825.4166654-.416663v-4.166652c0-.230837-.1858335-.416678-.4166654-.416678z"/></g><path d="m7.4166671 12c-.2308329 0-.4166664.185841-.4166664.416678v4.166652c0 .230838.185833.416663.4166664.416663h4.1666609c.230832 0 .416666-.185825.416666-.416663v-4.166652c0-.230837-.185834-.416678-.416666-.416678z" fill="#3b70df"/><path d="m12.416663 12c-.230833 0-.416665.185841-.416665.416678v4.166652c0 .230838.185832.416663.416665.416663h4.166661c.230832 0 .416666-.185825.416666-.416663v-4.166652c0-.230837-.185834-.416678-.416666-.416678z" fill="#3b70df"/><path d="m17.416659 12c-.230832 0-.416666.185841-.416666.416678v4.166652c0 .230838.185834.416663.416666.416663h4.166661c.230832 0 .416666-.185825.416666-.416663v-4.166652c0-.230837-.185834-.416678-.416666-.416678z" fill="#ff4e40"/><path d="m2.4166715 7.0000037c-.2308328 0-.416666.1858415-.416666.4166784v4.1666519c0 .230838.1858332.416663.416666.416663h4.1666608c.2308319 0 .4166654-.185825.4166654-.416663v-4.1666519c0-.2308369-.1858335-.4166784-.4166654-.4166784z" fill="#3b70df"/><path d="m7.4166676 7.0000037c-.2308329 0-.4166659.1858415-.4166659.4166784v4.1666519c0 .230838.185833.416663.4166659.416663h4.1666614c.230832 0 .416665-.185825.416665-.416663v-4.1666519c0-.2308369-.185833-.4166784-.416665-.4166784z" fill="#3b70df"/><path d="m17.41666 7.0000037c-.230833 0-.416666.1858415-.416666.4166784v4.1666519c0 .230838.185833.416663.416666.416663h4.166661c.230832 0 .416666-.185825.416666-.416663v-4.1666519c0-.2308369-.185834-.4166784-.416666-.4166784z" fill="#ff4e40"/><path d="m12.416663 2.0000024c-.230833 0-.416665.1858415-.416665.4166784v4.166652c0 .2308375.185832.4166624.416665.4166624h4.166661c.230832 0 .416666-.1858249.416666-.4166624v-4.166652c0-.2308369-.185834-.4166784-.416666-.4166784z" fill="#ff4e40"/><g fill="#fff"><path d="m17.416991 2.0000024c-.230833 0-.416992.1861552-.416992.4169921v.4999999c0-.2308369.186159-.4169921.416992-.4169921h4.166015c.230832 0 .416992.1861552.416992.4169921v-.4999999c0-.2308369-.18616-.4169921-.416992-.4169921z" opacity=".2"/><path d="m12.416992 12c-.230834 0-.416992.186155-.416992.416992v.5c0-.230837.186158-.416992.416992-.416992h4.166015c.230832 0 .416992.186155.416992.416992v-.5c0-.230837-.18616-.416992-.416992-.416992z" opacity=".2"/><path d="m2.4169945 7.0000012c-.2308329 0-.4169921.186155-.4169921.4169919v.4999999c0-.2308369.1861592-.4169919.4169921-.4169919h4.1660148c.2308319 0 .4169919.186155.4169919.4169919v-.4999999c0-.2308369-.18616-.4169919-.4169919-.4169919z" opacity=".2"/><path d="m7.4169931 7.0000012c-.2308329 0-.4169919.186155-.4169919.4169919v.4999999c0-.2308369.186159-.4169919.4169919-.4169919h4.1660149c.230832 0 .416992.186155.416992.4169919v-.4999999c0-.2308369-.18616-.4169919-.416992-.4169919z" opacity=".2"/><path d="m12.416992 2.0000024c-.230834 0-.416992.1861552-.416992.4169921v.4999999c0-.2308369.186158-.4169921.416992-.4169921h4.166015c.230832 0 .416992.1861552.416992.4169921v-.4999999c0-.2308369-.18616-.4169921-.416992-.4169921z" opacity=".2"/></g><path d="m16.999999 6.5830093v.4999999c0 .2308374.186159.4169919.416992.4169919h4.166015c.230832 0 .416992-.1861545.416992-.4169919v-.4999999c0 .2308375-.18616.4169919-.416992.4169919h-4.166015c-.230833 0-.416992-.1861544-.416992-.4169919z" opacity=".2"/><path d="m2.0000024 21.583006v.5c0 .230837.1861592.416992.4169921.416992h4.1660148c.2308319 0 .4169919-.186155.4169919-.416992v-.5c0 .230837-.18616.416992-.4169919.416992h-4.1660148c-.2308329 0-.4169921-.186155-.4169921-.416992z" opacity=".2"/><path d="m7.0000012 21.583006v.5c0 .230837.186159.416992.4169919.416992h4.1660149c.230832 0 .416992-.186155.416992-.416992v-.5c0 .230837-.18616.416992-.416992.416992h-4.1660149c-.2308329 0-.4169919-.186155-.4169919-.416992z" opacity=".2"/><path d="m12 21.583006v.5c0 .230837.186159.416992.416992.416992h4.166015c.230832 0 .416992-.186155.416992-.416992v-.5c0 .230837-.18616.416992-.416992.416992h-4.166015c-.230833 0-.416992-.186155-.416992-.416992z" opacity=".2"/><path d="m2.0000024 16.583007v.5c0 .230837.1861592.416992.4169921.416992h4.1660148c.2308319 0 .4169919-.186155.4169919-.416992v-.5c0 .230837-.18616.416992-.4169919.416992h-4.1660148c-.2308329 0-.4169921-.186155-.4169921-.416992z" opacity=".2"/><path d="m7.0000012 16.583007v.5c0 .230837.1861585.416992.4169919.416992h4.1660149c.230832 0 .416992-.186155.416992-.416992v-.5c0 .230837-.18616.416992-.416992.416992h-4.1660149c-.2308334 0-.4169919-.186155-.4169919-.416992z" opacity=".2"/><path d="m12 16.583007v.5c0 .230837.186159.416992.416992.416992h4.166015c.230832 0 .416992-.186155.416992-.416992v-.5c0 .230837-.18616.416992-.416992.416992h-4.166015c-.230833 0-.416992-.186155-.416992-.416992z" opacity=".2"/><path d="m16.999999 16.583007v.5c0 .230837.186159.416992.416992.416992h4.166015c.230832 0 .416992-.186155.416992-.416992v-.5c0 .230837-.18616.416992-.416992.416992h-4.166015c-.230833 0-.416992-.186155-.416992-.416992z" opacity=".2"/><path d="m2.0000024 11.583008v.5c0 .230837.1861592.416992.4169921.416992h4.1660148c.2308319 0 .4169919-.186155.4169919-.416992v-.5c0 .230838-.18616.416992-.4169919.416992h-4.1660148c-.2308329 0-.4169921-.186154-.4169921-.416992z" opacity=".2"/><path d="m7.0000012 11.583008v.5c0 .230837.186159.416992.4169919.416992h4.1660149c.230832 0 .416992-.186155.416992-.416992v-.5c0 .230838-.18616.416992-.416992.416992h-4.1660149c-.2308329 0-.4169919-.186154-.4169919-.416992z" opacity=".2"/><path d="m16.999999 11.583008v.5c0 .230837.186159.416992.416992.416992h4.166015c.230832 0 .416992-.186155.416992-.416992v-.5c0 .230838-.18616.416992-.416992.416992h-4.166015c-.230833 0-.416992-.186154-.416992-.416992z" opacity=".2"/><path d="m12 6.5830093v.4999999c0 .2308374.186159.4169919.416992.4169919h4.166015c.230832 0 .416992-.1861545.416992-.4169919v-.4999999c0 .2308375-.18616.4169919-.416992.4169919h-4.166015c-.230833 0-.416992-.1861544-.416992-.4169919z" opacity=".2"/></svg>