<svg height="22" viewBox="0 0 16 16" width="22" xmlns="http://www.w3.org/2000/svg"><path d="m6.4806232 2.1818182s.6848831.3864935.2011429 1.403013c-.7322598 1.5310129.6757402 1.880935.6757402 1.880935s-.4471688-.3590649.1487792-1.6232727c.6591169-1.4005195-1.0256623-1.6606753-1.0256623-1.6606753zm2.6589091 1.5293506s-1.3647792.5236364-.4854026 1.9540779c.5818182.9483637-.063169 1.4188052-.063169 1.4188052s1.6498703-.467948.8536103-1.7770389c-.7148049-1.1835844-.3050387-1.5958442-.3050387-1.5958442zm-3.9297662.039065s-1.1952208.9101299-.011636 2.0288832c.7821299.7447272.2692987 1.3897143.2692987 1.3897143s1.481974-.9417143.4105974-1.9707013c-.9666498-.9284157-.6682601-1.4478963-.6682601-1.4478962zm.2576623 3.4185974h-3.2856104l1.6623377 6.6493508h6.6493503l.228572-.912623c.193662.04821.393974.08145.602597.08145 1.377247 0 2.493507-1.11626 2.493507-2.493506 0-1.1686242-.806234-2.1419226-1.890909-2.4120525l.228571-.9126233zm6.2595326 1.7138696a.83116883 1.6623377 15 0 1  .02826.005.83116883 1.6623377 15 0 1  .373194 1.8219232.83116883 1.6623377 15 0 1 -1.206026 1.394701z" fill="#d3dae3" stroke-width=".831169"/><path d="m6.4806232 2.1818182s.6848831.3864935.2011429 1.403013c-.7322598 1.5310129.6757402 1.880935.6757402 1.880935s-.4471688-.3590649.1487792-1.6232727c.6591169-1.4005195-1.0256623-1.6606753-1.0256623-1.6606753zm2.6589091 1.5293506s-1.3647792.5236364-.4854026 1.9540779c.5818182.9483637-.063169 1.4188052-.063169 1.4188052s1.6498703-.467948.8536103-1.7770389c-.7148049-1.1835844-.3050387-1.5958442-.3050387-1.5958442zm-3.9297662.039065s-1.1952208.9101299-.011636 2.0288832c.7821299.7447272.2692987 1.3897143.2692987 1.3897143s1.481974-.9417143.4105974-1.9707013c-.9666498-.9284157-.6682601-1.4478963-.6682601-1.4478962zm.2576623 3.4185974h-3.2856104l1.6623377 6.6493508h6.6493503l.228572-.912623c.193662.04821.393974.08145.602597.08145 1.377247 0 2.493507-1.11626 2.493507-2.493506 0-1.1686242-.806234-2.1419226-1.890909-2.4120525l.228571-.9126233zm6.2595326 1.7138696a.83116883 1.6623377 15 0 1  .02826.005.83116883 1.6623377 15 0 1  .373194 1.8219232.83116883 1.6623377 15 0 1 -1.206026 1.394701z" fill="#d3dae3" stroke-width=".831169"/></svg>