<svg height="24" width="24" xmlns="http://www.w3.org/2000/svg"><rect height="15" opacity=".2" rx="1" transform="matrix(0 -1 -1 0 0 0)" width="20" x="-22.5" y="-19"/><rect fill="#8e8e8e" height="15" rx="1" transform="matrix(0 -1 -1 0 0 0)" width="20" x="-22" y="-19"/><rect height="1" opacity=".5" rx=".5" width="4" x="9.5" y="3"/><rect height="16" opacity=".6" rx="1" width="13" x="5" y="4"/><path d="m9.297 5.8008c-.029-.0069-.059-.0021-.084.0156-.051.033-.061.1057-.022.1602l.647.9218c-1.028.469-1.75 1.5626-1.842 2.6016h7c-.092-1.0385-.811-2.1342-1.838-2.6016l.647-.9218c.039-.0545.027-.1252-.022-.1602-.051-.035-.123-.0174-.162.0371l-.67.957c-.443-.172-.936-.2675-1.453-.2675-.518 0-1.01.0955-1.453.2675l-.672-.957c-.02-.0272-.047-.0458-.076-.0527zm.724 1.9902c.215 0 .387.1699.387.3789s-.174.3809-.387.3809c-.215 0-.388-.1699-.388-.3809 0-.209.174-.3789.388-.3789zm3 0c .213 0 .387.1699.387.3789s-.174.3809-.387.3809c-.215 0-.388-.1699-.388-.3809 0-.209.174-.3789.388-.3789zm-5.023 2.709v5.797c0 .344.16.703.5.703h1.498v1.687c0 .45 0 .813.5.813s.502-.363.502-.813v-1.687h1v1.687c0 .45-.039.813.498.813.5 0 .5-.25.5-.813v-1.687h1.504c.338 0 .5-.36.5-.703v-5.797zm-1.479.002c-.522-.001-.523.377-.523.844v3.308c0 .467.001.849.523.848.478-.001.477-.381.477-.848v-3.308c0-.467.001-.845-.477-.844zm9.956 0c-.479-.001-.479.377-.479.844v3.308c0 .467 0 .849.479.848.521-.001.521-.381.521-.848v-3.308c0-.467 0-.845-.521-.844z" opacity=".2"/><path d="m9.297 5.3008c-.029-.0069-.059-.0021-.084.0156-.051.033-.061.1057-.022.1602l.647.9218c-1.028.469-1.75 1.5626-1.842 2.6016h7c-.092-1.0385-.811-2.1342-1.838-2.6016l.647-.9218c.039-.0545.027-.1252-.022-.1602-.051-.035-.123-.0174-.162.0371l-.67.957c-.443-.172-.936-.2675-1.453-.2675-.518 0-1.01.0955-1.453.2675l-.672-.957c-.02-.0272-.047-.0458-.076-.0527zm.724 1.9902c.215 0 .387.1699.387.3789s-.174.3809-.387.3809c-.215 0-.388-.1699-.388-.3809 0-.209.174-.3789.388-.3789zm3 0c .213 0 .387.1699.387.3789s-.174.3809-.387.3809c-.215 0-.388-.1699-.388-.3809 0-.209.174-.3789.388-.3789zm-5.023 2.709v5.797c0 .344.16.703.5.703h1.498v1.687c0 .45 0 .813.5.813s.502-.363.502-.813v-1.687h1v1.687c0 .45-.039.813.498.813.5 0 .5-.25.5-.813v-1.687h1.504c.338 0 .5-.36.5-.703v-5.797zm-1.479.002c-.522-.001-.523.377-.523.844v3.308c0 .467.001.849.523.848.478-.001.477-.381.477-.848v-3.308c0-.467.001-.845-.477-.844zm9.956 0c-.479-.001-.479.377-.479.844v3.308c0 .467 0 .849.479.848.521-.001.521-.381.521-.848v-3.308c0-.467 0-.845-.521-.844z" fill="#a4ca39"/><path d="m5 2c-.554 0-1 .446-1 1v .5c0-.554.446-1 1-1h13c .554 0 1 .446 1 1v-.5c0-.554-.446-1-1-1z" fill="#fff" opacity=".2"/></svg>