<svg height="32" width="32" xmlns="http://www.w3.org/2000/svg"><g transform="translate(50.626866 .119403)"><path d="m-29.439885 1.880597h-13.65097c-3.066406 0-5.536011 2.4676663-5.536011 5.5340721v16.9299169c0 3.066406 2.469605 5.536011 5.536011 5.536011h16.929917c3.066406 0 5.534072-2.469605 5.534072-5.536011v-13.65097z" fill="#707070" fill-rule="evenodd"/><path d="m-20.626866 10.693616-8.813019-8.8130189v3.2789473c0 3.0664056 2.467666 5.5340716 5.534072 5.5340716z" fill="#b9b9b9" fill-rule="evenodd"/></g><path d="m10 11.074627v12h12v-12zm1 1h10v8h-10zm1 1v3h3v-2h-1l-.9-1zm-1 8h1v1h-1zm2 0h4v1h-4zm5 0h1v1h-1zm2 0h1v1h-1z" fill="#b9b9b9"/></svg>