<svg viewBox="0 0 32 32" xmlns="http://www.w3.org/2000/svg"><g transform="translate(38.567164 -2.746269)"><path d="m-17.380183 4.7462687h-13.65097c-3.066406 0-5.536011 2.4676663-5.536011 5.5340723v16.929917c0 3.066406 2.469605 5.536011 5.536011 5.536011h16.929917c3.066406 0 5.5340718-2.469605 5.5340718-5.536011v-13.65097z" fill="#5bdd5b" fill-rule="evenodd"/><path d="m-8.5671642 13.559288-8.8130188-8.8130192v3.2789473c0 3.0664059 2.467666 5.5340719 5.534072 5.5340719z" fill="#a9eda9" fill-opacity=".988235" fill-rule="evenodd"/></g><g fill="#fff" stroke-width=".877415" transform="matrix(1.139711 0 0 1.139711 -2.217711 -3.261503)"><path d="m18.04 11.967c-2.168 0-3.926 1.757-3.926 3.924 0 .589.133 1.146.365 1.646l-.672.795-.059.746c-.006.006-.73.025-.73.025l-.373.271s.003.812 0 .801l-.002.002-.799.014-.338.385-.008.729s-.688-.043-.758.021c-.441.406-.738.695-.738.695l.004 1.908s.255-.002.373-.002l5.084-5.082c.305.266.658.471 1.035.633.475.205.991.334 1.541.334 2.169 0 3.928-1.755 3.928-3.922 0-2.166-1.758-3.924-3.928-3.924m.75 1.869c.723 0 1.309.586 1.309 1.309s-.586 1.309-1.309 1.309-1.309-.586-1.309-1.309.586-1.309 1.309-1.309" opacity=".75" stroke-width=".877415"/><path d="m18.793 13.836c-.723 0-1.309.586-1.309 1.309s.586 1.309 1.309 1.309 1.309-.586 1.309-1.309-.586-1.309-1.309-1.309m0 .748c.31 0 .561.251.561.561s-.251.561-.561.561-.563-.251-.563-.561.253-.561.563-.561m-3.326 4.262-5.086 5.084h1.869l4.439-4.361c-.453-.167-.866-.412-1.223-.723" opacity=".5" stroke-width=".877415"/></g></svg>