<svg height="32" width="32" xmlns="http://www.w3.org/2000/svg"><path d="m21.186981 2h-13.65097c-3.066406 0-5.536011 2.4676664-5.536011 5.5340722v16.9299168c0 3.066406 2.469605 5.536011 5.536011 5.536011h16.929917c3.066406 0 5.534071-2.469605 5.534071-5.536011v-13.65097z" fill="#e47234" fill-rule="evenodd"/><path d="m29.999999 10.813019-8.813018-8.813019v3.2789475c0 3.0664056 2.467666 5.5340715 5.534072 5.5340715z" fill="#bc5e2b" fill-rule="evenodd"/><path d="m16.035752 9.4991724a7.507264 7.584746 0 0 0 -6.923828 4.6679686h-.5839844c-.6398499 0-1.1542969.521515-1.1542969 1.167969v3.5c0 .646454.514447 1.166016 1.1542969 1.166016h.578125a7.507264 7.584746 0 0 0 6.9296874 4.667969 7.507264 7.584746 0 0 0 5.414063-2.333985h1.167968c.51188 0 .923828-.416431.923828-.933594v-2.798828c0-.14049-.03519-.271242-.08984-.390625a7.507264 7.584746 0 0 0  .08984-1.126953 7.507264 7.584746 0 0 0 -1.33789-4.318359c.110893-.123957.183594-.283667.183594-.464844v-2.101562c0-.3878728-.30945-.7011726-.69336-.7011726h-2.078125c-.348973 0-.624526.2633477-.673828.6015626a7.507264 7.584746 0 0 0 -2.90625-.6015626zm.576172 1.1679686a5.7748185 5.83442 0 0 1 2.310547.490235v1.144531c0 .387872.309449.699219.693359.699219h1.609375a5.7748185 5.83442 0 0 1 1.16211 3.5 5.7748185 5.83442 0 0 1 -.117188 1.167969h-2.421875c-.51188 0-.925781.41643-.925781.933593v2.798828c0 .143591.0368.27509.09375.396485a5.7748185 5.83442 0 0 1 -2.404297.537109 5.7748185 5.83442 0 0 1 -4.613281-2.335937c.636886-.0035 1.148437-.519762 1.148437-1.164063v-3.5c0-.646454-.514447-1.167969-1.154297-1.167969h-.669922a5.7748185 5.83442 0 0 1 5.289063-3.5z" fill="#fff" opacity=".5" stroke-width="1.160909"/></svg>