<svg height="22" width="22" xmlns="http://www.w3.org/2000/svg"><path d="m4 1.5c-.554 0-1 .446-1 1v18c0 .554.446 1 1 1h14c .554 0 1-.446 1-1v-13l-6-6z" opacity=".2"/><path d="m4 1c-.554 0-1 .446-1 1v18c0 .554.446 1 1 1h14c .554 0 1-.446 1-1v-13l-6-6z" fill="#ffba3a"/><path d="m19 7.5-6-6v5c0 .554.446 1 1 1z" opacity=".2"/><path d="m19 7-6-6v5c0 .554.446 1 1 1z" fill="#ffdea2"/><path d="m4 1c-.554 0-1 .446-1 1v .5c0-.554.446-1 1-1h9v-.5z" fill="#fff" opacity=".2"/><path d="m9 10c0 3 0 3-.383789 3-.400136 0-.875821-.09412-1.15918-.589844-.386455-.675974.042969-2.410156.042969-2.410156-2.5 0-3.5 2.646491-3.5 4.380859 0 2.619141 2 3.619141 3.2503865 3.619141 0 0-.734693-1.708929.236328-2 .526394-.08365 1.21674.488675 1.5136715 1 0 0-.1068365-.984745.657228-1 .764063-.01526 1.213052.841758 1.342386 2 .129334-1.158242.578324-2.015254 1.342387-2 .764064.01525.657227 1 .657227 1 .296932-.511325.987278-1.083647 1.513672-1 .971021.291071.236328 2 .236328 2 1.250386 0 3.250386-1 3.250386-3.619141 0-1.734368-1-4.380859-3.5-4.380859 0 0 .429424 1.734182.04297 2.410156-.28336.495721-.759044.589844-1.159181.589844-.383789 0-.383789 0-.383789-3l-1.5 1h-.5-.5z" fill="#3f3f3f"/></svg>