<svg height="22" width="22" xmlns="http://www.w3.org/2000/svg"><g transform="translate(-1 -1)"><path d="m5 2.5c-.554 0-1 .446-1 1v18c0 .554.446 1 1 1h14c .554 0 1-.446 1-1v-13l-5.5-.5-.5-5.5z" opacity=".2"/><path d="m5 2c-.554 0-1 .446-1 1v18c0 .554.446 1 1 1h14c .554 0 1-.446 1-1v-13l-5.5-.5-.5-5.5z" fill="#ccc"/><path d="m9.1252 12s-1.1252.000466-1.1252 1.1111v3.778c0 .616.5092 1.111 1.1426 1.111h2.8574l1 2 1-2h .85743s1.143 0 1.143-1.111v-3.7779c0-1.111-1.143-1.111-1.143-1.111h-5.7326z" opacity=".5"/><path d="m5 2c-.554 0-1 .446-1 1v .5c0-.554.446-1 1-1h9l5.5 5.5h.5l-6-6z" fill="#fff" opacity=".2"/><path d="m14 2.5v5c0 .5523.44772 1 1 1h5z" opacity=".2"/><path d="m14 2v5c0 .5523.44772 1 1 1h5z" fill="#ebebeb"/></g></svg>