<svg height="22" viewBox="0 0 22 22" width="22" xmlns="http://www.w3.org/2000/svg"><path d="m7.5017287 3.5c-2.4485602 0-4.4978187 2.0502524-4.4978187 4.5 0 1.047756.4296316 1.981459 1.0502718 2.753906l-2.3543269 2.826172c-1.62595975 1.954033-.2377456 4.918954 2.3035703 4.919922h13.9932138c2.314304 0 3.756386-2.511547 2.590541-4.511719l-3.498303-5.9999998c-1.131148-1.9334132-3.904353-1.989561-5.112756-.1035156-.06638-2.3956572-2.0664289-4.3847656-4.4743923-4.3847656z" opacity=".2"/><path d="m7.5017287 3c-2.4485602 0-4.4978187 2.0502524-4.4978187 4.5 0 1.047756.4296316 1.981459 1.0502718 2.753906l-2.3543269 2.826172c-1.62595975 1.954033-.2377456 4.918954 2.3035703 4.919922h13.9932138c2.314304 0 3.756386-2.511547 2.590541-4.511719l-3.498303-5.9999998c-1.131148-1.9334132-3.904353-1.989561-5.112756-.1035156-.06638-2.3956572-2.0664289-4.3847656-4.4743923-4.3847656z" fill="#a1252b"/><path d="m7.5 6.5c-.8284271 0-1.5.6715729-1.5 1.5s.6715729 1.5 1.5 1.5c.8284272 0 1.5000001-.6715729 1.5000001-1.5s-.6715729-1.5-1.5000001-1.5zm7 3-2 3.5-2-1.5-2.4999999 2.5-1.5000001-1.5-2.5 3h14z" opacity=".2"/><path d="m7.5 6c-.8284271 0-1.5.6715729-1.5 1.5s.6715729 1.5 1.5 1.5c.8284272 0 1.5000001-.6715729 1.5000001-1.5s-.6715729-1.5-1.5000001-1.5zm7 3-2 3.5-2-1.5-2.4999999 2.5-1.5000001-1.5-2.5 3h14z" fill="#fff"/><path d="m7.5019531 3c-2.4485602 0-4.4980468 2.0502524-4.4980468 4.5 0 .087755.019503.1697321.025391.2558594.1329151-2.3382408 2.1074431-4.2558594 4.4726558-4.2558594 2.407963 0 4.4082299 1.9891084 4.4746089 4.3847656 1.208404-1.8860454 3.982134-1.8298975 5.113282.1035156l3.498047 5.9999998c.224064.384414.348851.786768.392578 1.1875.03496-.560507-.07446-1.141728-.392578-1.6875l-3.498047-5.9999998c-1.131148-1.9334131-3.904878-1.989561-5.113282-.1035156-.066379-2.3956572-2.0666459-4.3847656-4.4746089-4.3847656zm-3.6367186 7.482422-2.1660156 2.597656c-.5380905.646662-.74022465 1.402932-.685547 2.126953.053442-.563924.2708624-1.128597.685547-1.626953l2.3554686-2.826172c-.069097-.086-.1254201-.181553-.189453-.271484z" fill="#fff" opacity=".1"/></svg>