<svg height="22" width="22" xmlns="http://www.w3.org/2000/svg"><g transform="translate(-1 -1)"><path d="m12 2c-5.54 0-10 4.46-10 10s4.46 10 10 10 10-4.46 10-10-4.46-10-10-10z" fill="#e4e4e4"/><path d="m12 2c5.535 0 9.991 4.46 9.991 10 0 .08394-.004.16657-.0058.25-.132-5.423-4.534-9.75-9.985-9.75s-9.853 4.327-9.985 9.75c-.002-.083-.0058-.166-.0058-.25 0-5.54 4.4559-10 9.991-10z" fill="#fff" opacity=".2"/><path d="m2.0059 12.25c-.0021.084-.0059.166-.0059.25 0 5.54 4.46 10 10 10s10-4.46 10-10c0-.084-.004-.1665-.006-.25-.132 5.423-4.538 9.75-9.994 9.75s-9.862-4.327-9.994-9.75z" opacity=".2"/><path d="m13.28 6.5001c2.72-.0001 2.72 3.7199 2.72 4.9999-.48-.48-3-3.4733-3-1 0 1.8153.01152 3.6467 0 5.4542-.051 1.42-1.08 2.545-2.5 2.546-1.4582.001-2.5-1.182-2.5-2.64s1.0418-2.36 2.5-2.36c.24384.000959.26576-.01612.5.05156v-6.0916c0-.95999 1.32-.95999 2.28-.95999z" opacity=".1"/><path d="m13.28 6.0001c2.72-.0001 2.72 3.7197 2.72 4.9999-.48-.48-3-3.4733-3-1 0 1.8153.01152 3.6467 0 5.4542-.051 1.42-1.08 2.545-2.5 2.546-1.4582.001-2.5-1.182-2.5-2.64s1.0418-2.36 2.5-2.36c.24384.000959.26576-.01612.5.05156v-6.092c0-.96 1.32-.96 2.28-.96z" fill="#3c8cf8"/></g></svg>