<svg height="22" viewBox="0 0 22 22" width="22" xmlns="http://www.w3.org/2000/svg"><rect height="20" opacity=".2" rx="6" transform="matrix(0 -1 -1 0 0 0)" width="20" x="-21.5" y="-21"/><rect fill="#e75177" height="20" rx="6" transform="matrix(0 -1 -1 0 0 0)" width="20" x="-21" y="-21"/><path d="m11 5.5000019a6 6 0 0 0 -1 .086v7.8965001c0 .5641-.446 1.0176-1 1.0176s-1-.4535-1-1.0176v-7.1699001a6 6 0 0 0 -3 5.1875001 6 6 0 0 0 6 6 6 6 0 0 0 6-6 6 6 0 0 0 -6-6.0000001zm.23242 3a .25006.27276 0 0 1  .01953 0 .25006.27276 0 0 1  .11914.033l4.5 2.7285001a.25006.27276 0 0 1 0 .4766l-4.5 2.7265a.25006.27276 0 0 1 -.371-.2v-5.4551001a.25006.27276 0 0 1  .23242-.2734z" opacity=".2"/><path d="m11 5.0000019a6 6 0 0 0 -1 .086v7.8965001c0 .5641-.446 1.0176-1 1.0176s-1-.4535-1-1.0176v-7.1699001a6 6 0 0 0 -3 5.1875001 6 6 0 0 0 6 6 6 6 0 0 0 6-6 6 6 0 0 0 -6-6.0000001zm.23242 3a .25006.27276 0 0 1  .01953 0 .25006.27276 0 0 1  .11914.033l4.5 2.7285001a.25006.27276 0 0 1 0 .4766l-4.5 2.7265a.25006.27276 0 0 1 -.371-.2v-5.4551001a.25006.27276 0 0 1  .23242-.2734z" fill="#fff"/><path d="m7 1.0000019c-3.324 0-6 2.676-6 6v .5c0-3.324 2.676-6 6-6h8c3.324 0 6 2.676 6 6v-.5c0-3.324-2.676-6-6-6z" fill="#fff" opacity=".2"/></svg>