<svg height="22" width="22" xmlns="http://www.w3.org/2000/svg"><rect fill="#dcdcbe" height="20" rx="1" transform="matrix(0 -1 -1 0 0 0)" width="20" x="-21" y="-21"/><path d="m2 21.5c-.554 0-1-.446-1-1v-.5c0 .554.446 1 1 1h18c .554 0 1-.446 1-1v .5c0 .554-.446 1-1 1z" opacity=".2"/><path d="m12.06 9.232-1.06 1.061-1.0605-1.061-.7075.7075 1.061 1.0605-1.061 1.06.7075.708 1.0605-1.061 1.06 1.061.708-.708-1.061-1.06 1.061-1.0605z" fill="#e74c3c"/><path d="m6 4a2 2 0 0 0 -2 2 2 2 0 0 0 2 2 2 2 0 0 0 2-2 2 2 0 0 0 -2-2zm0 1a1 1 0 0 1 1 1 1 1 0 0 1 -1 1 1 1 0 0 1 -1-1 1 1 0 0 1 1-1z" fill="#3c79e7"/><path d="m16 14a2 2 0 0 0 -2 2 2 2 0 0 0 2 2 2 2 0 0 0 2-2 2 2 0 0 0 -2-2zm0 1a1 1 0 0 1 1 1 1 1 0 0 1 -1 1 1 1 0 0 1 -1-1 1 1 0 0 1 1-1z" fill="#3c79e7"/><path d="m8.5 4v4.5h-4.5v.5h4.5v4h-4.5v.5h4.5v4.5h.5v-4.5h4v4.5h.5v-4.5h4.5v-.5h-4.5v-4h4.5v-.5h-4.5v-4.5h-.5v4.5h-4v-4.5zm.5 5h4v4h-4z" fill="#09214c" opacity=".4"/><path d="m2 1c-.554 0-1 .446-1 1v .5c0-.554.446-1 1-1h18c .554 0 1 .446 1 1v-.5c0-.554-.446-1-1-1z" fill="#fff" opacity=".2"/></svg>