<svg height="22" viewBox="0 0 22 22" width="22" xmlns="http://www.w3.org/2000/svg"><g transform="matrix(.5 0 0 .5 -1 -1)"><path d="m24 4a20 20 0 0 0 -20 20 20 20 0 0 0 20 20 20 20 0 0 0 20-20 20 20 0 0 0 -20-20z" fill="#e4e4e4"/><path d="m4.0215 24.418a20 20 0 0 0 -.0215.582 20 20 0 0 0 20 20 20 20 0 0 0 20-20 20 20 0 0 0 -.021-.418 20 20 0 0 1 -19.979 19.418 20 20 0 0 1 -19.978-19.582z" opacity=".2"/><path d="m24 4a20 20 0 0 0 -20 20 20 20 0 0 0  .0215.418 20 20 0 0 1 19.978-19.418 20 20 0 0 1 19.979 19.582 20 20 0 0 0  .021-.582 20 20 0 0 0 -20-20z" fill="#fff" opacity=".2"/><path d="m34 30-10 6-10-6v-12l10-6 10 6" fill="none" stroke="#454545" stroke-width="4"/><path d="m29 27-5 3-5-3v-6l5-3 5 3" fill="none" stroke="#8644dc" stroke-width="2"/></g></svg>