<svg height="22" width="22" xmlns="http://www.w3.org/2000/svg"><rect fill="#e91e63" height="20" rx="10" transform="matrix(0 -1 -1 0 0 0)" width="20" x="-21" y="-21"/><path d="m11 1c-5.54 0-10 4.46-10 10 0 .084.004.166.0058.25.1324-5.423 4.5382-9.75 9.9942-9.75 5.4558 0 9.862 4.327 9.994 9.75.002-.08343.0059-.16606.0059-.25 0-5.54-4.46-10-10-10z" fill="#fff" opacity=".2"/><path d="m1.0058 11.25c-.002.084-.0058.166-.0058.25 0 5.54 4.46 10 10 10s10-4.46 10-10c0-.084-.004-.1665-.006-.25-.132 5.423-4.538 9.75-9.994 9.75s-9.862-4.327-9.994-9.75z" opacity=".2"/><g enable-background="new" opacity=".2" transform="matrix(.14079 0 0 .14293 -17.991 -32.032)"><path d="m199.99 286.44 16.56 16.561c2.394 2.393 6.273 2.391 8.667-.002 2.395-2.396 2.397-6.275.003-8.668l-16.561-16.562c-11.85-11.851-31.001-12.044-43.104-.6-.111.094-.222.191-.326.295-.051.052-.099.105-.148.158-.052.05-.107.097-.157.146-.106.106-.2.215-.294.325-11.445 12.105-11.25 31.254.6 43.105l16.561 16.559c2.394 2.394 6.272 2.394 8.666 0 2.394-2.396 2.396-6.275.002-8.667l-16.56-16.562c-7.225-7.225-7.275-18.949-.149-26.24 7.289-7.123 19.014-7.074 26.24.152z"/><path d="m221.37 264.39c-2.394 2.394-2.392 6.274.002 8.667l16.56 16.56c7.226 7.228 7.271 18.951.147 26.242-7.29 7.122-19.013 7.075-26.239-.15l-16.559-16.561c-2.394-2.393-6.277-2.393-8.671 0-2.394 2.396-2.394 6.279 0 8.672l16.56 16.56c11.851 11.851 31.002 12.044 43.102.6.111-.095.222-.188.327-.295.051-.053.097-.104.149-.155.051-.052.107-.1.159-.15.104-.106.196-.216.291-.327 11.447-12.1 11.253-31.251-.598-43.102l-16.558-16.56c-2.394-2.395-6.279-2.395-8.672-.001z"/></g><g enable-background="new" fill="#ff8bff" transform="matrix(.14079 0 0 .14293 -17.991 -32.532)"><path d="m199.99 286.44 16.56 16.561c2.394 2.393 6.273 2.391 8.667-.002 2.395-2.396 2.397-6.275.003-8.668l-16.561-16.562c-11.85-11.851-31.001-12.044-43.104-.6-.111.094-.222.191-.326.295-.051.052-.099.105-.148.158-.052.05-.107.097-.157.146-.106.106-.2.215-.294.325-11.445 12.105-11.25 31.254.6 43.105l16.561 16.559c2.394 2.394 6.272 2.394 8.666 0 2.394-2.396 2.396-6.275.002-8.667l-16.56-16.562c-7.225-7.225-7.275-18.949-.149-26.24 7.289-7.123 19.014-7.074 26.24.152z"/><path d="m221.37 264.39c-2.394 2.394-2.392 6.274.002 8.667l16.56 16.56c7.226 7.228 7.271 18.951.147 26.242-7.29 7.122-19.013 7.075-26.239-.15l-16.559-16.561c-2.394-2.393-6.277-2.393-8.671 0-2.394 2.396-2.394 6.279 0 8.672l16.56 16.56c11.851 11.851 31.002 12.044 43.102.6.111-.095.222-.188.327-.295.051-.053.097-.104.149-.155.051-.052.107-.1.159-.15.104-.106.196-.216.291-.327 11.447-12.1 11.253-31.251-.598-43.102l-16.558-16.56c-2.394-2.395-6.279-2.395-8.672-.001z"/></g></svg>