<svg height="22" width="22" xmlns="http://www.w3.org/2000/svg"><path d="m10.499693.5000205c-.5500231 0-1.1004151.2050106-1.5115719.6161573l-8.3719729 8.3729068c-.82231376.8222934-.82114731 2.1984094.0012 3.0207034l8.3719729 8.372904c.8223138.822294 2.1996539.823461 3.0219679.0012l8.371974-8.372905c.822312-.822294.822313-2.199587 0-3.0218814l-8.371995-8.3729278c-.411158-.4111467-.961549-.6161573-1.511575-.6161573z" opacity=".2"/><path d="m10.499693.0000083c-.5500231 0-1.1004151.2050106-1.5115719.6161573l-8.3719729 8.3729056c-.82231376.8222934-.82114731 2.1984098.0012 3.0207038l8.3719729 8.372904c.8223138.822294 2.1996539.823461 3.0219679.0012l8.371974-8.372905c.822312-.822294.822313-2.1995874 0-3.0218818l-8.371995-8.3729266c-.411158-.4111467-.961549-.6161573-1.511575-.6161573z" fill="#696853"/><path d="m10.5 2.4995184c-.18334 0-.366855.06803-.5039061.2050781l-2.7910159 2.7910157c-.2741038.2740963-.2741427.733715 0 1.0078124l2.7910159 2.791016c.2741031.274096.7337091.274058 1.0078121 0l2.791016-2.791016c.274104-.2740968.274104-.7337157 0-1.0078124l-2.791016-2.7910157c-.137051-.1370485-.320565-.2050781-.503906-.2050781zm-5.0000001 5c-.1832001.0001021-.3668575.0680067-.5039062.2050781l-2.7910157 2.7910165c-.2740968.274103-.2740579.733708 0 1.007812l2.7910157 2.791016c.274097.274104.7337156.274104 1.0078124 0l2.7910157-2.791016c.1370487-.137052.2050781-.320565.2050781-.503906 0-.18334-.068032-.366856-.2050781-.503906l-2.7910157-2.7910165c-.1370481-.137052-.3207061-.2051802-.5039062-.2050781zm10.0000001 0c-.1832.0001021-.366857.068007-.503906.2050781l-2.791016 2.7910165c-.274096.274103-.274057.733708 0 1.007812l2.791016 2.791016c.274097.274104.733715.274104 1.007812 0l2.791016-2.791016c.137049-.137051.205078-.320565.205078-.503906 0-.18334-.06803-.366856-.205078-.503906l-2.791016-2.7910165c-.137048-.137052-.320706-.2051802-.503906-.2050781zm-5 5.0000006c-.183341 0-.366855.06803-.5039061.205078l-2.7910159 2.791016c-.2741049.274097-.2741438.733715 0 1.007812l2.7910159 2.791016c.2741041.274098.7337081.274059 1.0078121 0l2.791016-2.791016c.274105-.274097.274105-.733715 0-1.007812l-2.791016-2.791016c-.137052-.137048-.320565-.205078-.503906-.205078z" opacity=".2"/><path d="m10.499886 2.0000333c-.18334 0-.366804.068337-.5038551.2053851l-2.7906486 2.7909598c-.2741038.2740963-.2737148.7327997.0004279 1.0068971l2.7906487 2.7909579c.2741031.2740964.7332161.2744864 1.0073191.000428l2.790648-2.7909581c.274104-.2740969.274104-.7331931 0-1.0072899l-2.790684-2.7909948c-.137051-.1370485-.320515-.2053851-.503856-.2053851z" fill="#3fa7e2"/><path d="m10.4999 11.999997c-.183341 0-.366806.06834-.5038571.205385l-2.7906598 2.790971c-.2741049.274097-.2737159.732803.0004279 1.0069l2.7906599 2.790971c.2741041.274098.7332191.274487 1.0073231.000428l2.790659-2.790971c.274105-.274097.274105-.733196 0-1.007293l-2.790678-2.79099c-.137052-.137048-.320517-.205385-.503858-.205385z" fill="#3f3f3f"/><path d="m18.999974 10.499898c0-.18334-.06834-.366804-.205386-.5038544l-2.79096-2.7906489c-.274096-.274104-.732799-.273715-1.006897.0004278l-2.79096 2.7906481c-.274096.2741034-.274485.7332164-.000428 1.0073204l2.79096 2.790648c.274097.274104.733193.274104 1.00729 0l2.790995-2.790684c.137049-.137051.205386-.320516.205386-.503857z" fill="#f1ca42"/><path d="m8.9999969 10.499898c0-.18334-.068338-.366804-.2053846-.5038544l-2.7909601-2.7906489c-.2740964-.274104-.7327998-.273715-1.0068972.0004278l-2.7909593 2.7906481c-.2740968.2741034-.2744857.7332164-.0004278 1.0073204l2.7909592 2.790648c.274097.274104.7331933.274104 1.0072901 0l2.7909785-2.790667c.1370487-.137052.2053846-.320516.2053846-.503857z" fill="#ea72bb"/><path d="m10.5 1.9999992c-.18334 0-.366855.06803-.5039061.2050781l-2.7910159 2.7910157c-.2006017.2005962-.2512245.500019-.1582031.7539062.0340856-.0930262.0847011-.1804062.1582031-.2539062l2.7910159-2.7910157c.1370511-.1370481.3205661-.2050781.5039061-.2050781.183341 0 .366855.06803.503906.2050781l2.791016 2.7910157c.0735.0735.124121.16088.158203.2539062.09302-.253887.0424-.5533097-.158203-.7539062l-2.791016-2.7910157c-.137051-.1370485-.320565-.2050781-.503906-.2050781zm-5.0000001 5c-.1832001.0001021-.3668575.0680067-.5039062.2050781l-2.7910157 2.7910163c-.2005966.2006014-.251214.5000204-.1582031.7539064.034078-.09303.084703-.180404.1582031-.253906l2.7910157-2.7910167c.1370487-.1370714.3207061-.204976.5039062-.2050781s.3668581.0680261.5039062.2050781l2.7910157 2.7910167c.073499.0735.1242533.16087.1582031.253906.029353-.08044.046875-.164986.046875-.25 0-.18334-.068032-.366856-.2050781-.5039064l-2.7910157-2.7910163c-.1370481-.137052-.3207061-.2051802-.5039062-.2050781zm10.0000001 0c-.1832.0001021-.366857.068007-.503906.2050781l-2.791016 2.7910163c-.200596.2006014-.251214.5000204-.158203.7539064.03408-.09303.0847-.180404.158203-.253906l2.791016-2.7910167c.137049-.1370711.320706-.204976.503906-.2050781s.366858.068026.503906.2050781l2.791016 2.7910167c.0735.0735.124253.16087.158203.253906.029353-.080439.046875-.164986.046875-.25 0-.18334-.068032-.366856-.205078-.5039064l-2.791016-2.7910163c-.137048-.137052-.320706-.2051802-.503906-.2050781zm-5 5.0000008c-.183341 0-.366855.06803-.5039061.205078l-2.7910159 2.791016c-.2006025.200596-.2512249.500019-.1582031.753906.034086-.09303.084701-.180406.1582031-.253906l2.7910159-2.791016c.1370511-.137048.3205651-.205078.5039061-.205078s.366854.06803.503906.205078l2.791016 2.791016c.0735.0735.124121.16088.158203.253906.09302-.253887.0424-.55331-.158203-.753906l-2.791016-2.791016c-.137052-.137048-.320565-.205078-.503906-.205078z" fill="#fff" opacity=".1"/><path d="m10.5-.00000084c-.5500231 0-1.1005621.20408774-1.5117189.61523444l-8.3730468 8.3730466c-.4738006.4737894-.6643196 1.1320838-.5917969 1.7617198.0528553-.463141.2432837-.9132144.5917969-1.2617194l8.3730468-8.373047c.4111568-.4111467.9616958-.6152344 1.5117189-.6152344.550026 0 1.100561.2040877 1.511719.6152344l8.371093 8.373047c.348513.348505.540651.7983344.59375 1.2617194.07219-.629967-.119949-1.2879304-.59375-1.7617198l-8.371093-8.3730466c-.411158-.4111467-.961693-.61523444-1.511719-.61523444z" fill="#fff" opacity=".1"/></svg>