<svg height="22" viewBox="0 0 5.82 5.82" width="22" xmlns="http://www.w3.org/2000/svg"><g transform="matrix(.49999999 0 0 .49999999 -.264583 -142.41458)"><path d="m4.7624998 290.38541h3.175v4.23334l-1.5874998 1.58749-1.5875002-1.58749z" opacity=".2"/><path d="m4.7624998 290.12082h3.175v4.23334l-1.5874998 1.58749-1.5875002-1.58749z" fill="#afafb1"/><path d="m4.7624998 290.12082h1.5875002v5.82083l-1.5875002-1.58749z" fill="#e4e4e4"/><rect height="7.408" opacity=".2" rx="1.058" transform="rotate(90)" width="2.117" x="288.27" y="-10.05"/><rect fill="#ec8a2b" height="7.408" rx="1.058" transform="rotate(90)" width="2.117" x="288" y="-10.05"/><path d="m5.29 285.36h2.117v2.646h-2.117z" fill="#d13808"/><rect height="1.058" opacity=".2" rx=".529" width="3.175" x="4.76" y="285.62"/><rect fill="#ec8a2b" height="1.058" rx=".529" width="3.175" x="4.76" y="285.36"/><path d="m14 14c-2.216 0-4 1.784-4 4 0 .171262.02814.334523.04883.5.246986-1.975674 1.906432-3.5 3.95117-3.5h20c2.044738 0 3.704184 1.524326 3.951172 3.5.020687-.165477.048828-.328738.048828-.5 0-2.216-1.784-4-4-4z" fill="#fff" opacity=".2" transform="matrix(.26458333 0 0 .26458333 0 284.29999)"/><path d="m20 4c-1.108 0-2 .8920001-2 2 0 .1738347.02901.3394094.07031.5.221954-.8629931.995525-1.5 1.92969-1.5h8c .934165 0 1.707736.6370069 1.929688 1.5.041301-.1605906.070312-.3261653.070312-.5 0-1.1079999-.892-2-2-2z" fill="#fff" opacity=".2" transform="matrix(.26458333 0 0 .26458333 0 284.29999)"/></g></svg>