<svg height="22" viewBox="0 0 22 22" width="22" xmlns="http://www.w3.org/2000/svg"><path d="m11 1a10 10 0 0 0 -10 10 10 10 0 0 0 10 10 10 10 0 0 0 10-10 10 10 0 0 0 -10-10z" fill="#886c38"/><path d="m11 1a10 10 0 0 0 -9.9297 8.9258 10 9.5 0 0 1 9.9297-8.4258 10 9.5 0 0 1 9.961 8.724 10 10 0 0 0 -9.961-9.224zm9.9609 9.2236a10 10 0 0 1  .039.776 10 9.5 0 0 0 -.039-.776zm-19.891-.2982a10 9.5 0 0 0 -.024414.19629 10 10 0 0 1  .024414-.19629zm-.024414.19629a10 10 0 0 0 -.0459.878 10 9.5 0 0 1  .0459-.878z" fill="#fff" opacity=".2"/><path d="m11 21.5a10 10 0 0 1 -9.9297-8.926 10 9.5 0 0 0 9.9297 8.426 10 9.5 0 0 0 9.961-8.724 10 10 0 0 1 -9.961 9.224zm9.9609-9.2236a10 10 0 0 0  .039-.776 10 9.5 0 0 1 -.039.776zm-19.891.298a10 9.5 0 0 1 -.024414-.19625 10 10 0 0 0  .024414.19625zm-.0244-.196a10 10 0 0 1 -.0459-.878 10 9.5 0 0 0  .0459.878z" opacity=".2"/><path d="m12 3.5701v6.9297h6.9268a8 8 0 0 0 -6.927-6.9299zm-2 .00293a8 8 0 0 0 -6.9297 6.9268h6.9297zm-6.9268 8.927a8 8 0 0 0 6.9268 6.93v-6.9297h-6.9268zm8.9268 0v6.9268a8 8 0 0 0 6.9297-6.9268z" opacity=".2"/><path d="m12 3.0703v6.9297h6.927a8 8 0 0 0 -6.927-6.9297zm-2 .00293a8 8 0 0 0 -6.9297 6.9268h6.9297zm-6.9268 8.9268a8 8 0 0 0 6.9268 6.93v-6.93zm8.9268 0v6.927a8 8 0 0 0 6.93-6.927z" fill="#fff"/></svg>