<svg height="22" width="22" xmlns="http://www.w3.org/2000/svg"><rect height="14" opacity=".2" rx=".5" width="3" x="10" y="4.5"/><rect height="14" opacity=".2" rx=".5" width="3" x="18" y="4.5"/><g fill="#c2352a"><rect height="14" rx=".5" width="3" x="18" y="4"/><rect height="14" rx=".5" width="3" x="10" y="4"/><rect height="14" rx=".5" width="3" x="1" y="4"/></g><path d="m1.5 4.5c-.277 0-.5.223-.5.5v2c0 .277.223.5.5.5h6c .277 0 .5-.223.5-.5v-2c0-.277-.223-.5-.5-.5zm9.215821 0a .71620575.589535 0 0 0 -.620118.883789l2.392578 3.4101565 2.392579 3.4111325a.71620575.589535 0 0 0  .585937.293946.71620575.589535 0 0 0  .65332-.293946l2.392578-3.4111325 2.391602-3.4101565a.71620575.589535 0 0 0 -.620118-.883789h-4.784179zm-9.215821 11c-.277 0-.5.223-.5.5v2c0 .277.223.5.5.5h6c .277 0 .5-.223.5-.5v-2c0-.277-.223-.5-.5-.5z" opacity=".2"/><g fill="#d8564d"><rect height="7" rx=".5" transform="rotate(90)" width="3" x="4" y="-8"/><rect height="7" rx=".5" transform="rotate(90)" width="3" x="15" y="-8"/><path d="m10.715982 4a .71620575.589535 0 0 0 -.62009.8842145l2.392708 3.410211 2.391775 3.4102105a.71620575.589535 0 0 0  .586523.294739.71620575.589535 0 0 0  .653658-.294739l2.391776-3.4102105 2.391776-3.410211a.71620575.589535 0 0 0 -.62009-.8842145h-4.783552z"/></g><path d="m1.5 4c-.277 0-.5.223-.5.5v.5c0-.277.223-.5.5-.5h6c .277 0 .5.223.5.5v-.5c0-.277-.223-.5-.5-.5zm9.215821 0a .71620575.589535 0 0 0 -.647461.839844.71620575.589535 0 0 1  .647461-.339844h4.784179 4.784179a.71620575.589535 0 0 1  .647461.339844.71620575.589535 0 0 0 -.647461-.839844h-4.784179zm-9.215821 11c-.277 0-.5.223-.5.5v.5c0-.277.223-.5.5-.5h6c .277 0 .5.223.5.5v-.5c0-.277-.223-.5-.5-.5z" fill="#fff" opacity=".2"/></svg>