<svg height="22" width="22" xmlns="http://www.w3.org/2000/svg"><path d="m21 19v-16c0-.554-.446-1-1-1h-18c-.554 0-1 .446-1 1v16c0 .554.446 1 1 1h18c .554 0 1-.446 1-1z" fill="#2b7fb7"/><path d="m2 2c-.554 0-1 .446-1 1v .5c0-.554.446-1 1-1h18c .554 0 1 .446 1 1v-.5c0-.554-.446-1-1-1z" fill="#fff" opacity=".1"/><path d="m1 19v .5c0 .554.446 1 1 1h18c .554 0 1-.446 1-1v-.5c0 .554-.446 1-1 1h-18c-.554 0-1-.446-1-1z" opacity=".2"/><path d="m6.5 7 10 2.5-5.5 6.5z" fill="none" stroke="#3f3f3f"/><path d="m4 4.5c-.554 0-1 .446-1 1v4c0 .554.446 1 1 1h5c .554 0 1-.446 1-1v-4c0-.554-.446-1-1-1zm9.857422 3c-.474857 0-.857422.3723177-.857422.8339844v3.3320316c0 .461666.382565.833984.857422.833984h4.285156c.474857 0 .857422-.372318.857422-.833984v-3.3320316c0-.4616667-.382565-.8339844-.857422-.8339844zm-5.0000001 7c-.4748572 0-.8574219.296682-.8574219.666016v2.667968c0 .369334.3825647.666016.8574219.666016h4.2851561c.474857 0 .857422-.296682.857422-.666016v-2.667968c0-.369334-.382565-.666016-.857422-.666016z" opacity=".2"/><path d="m4 4c-.554 0-1 .446-1 1v4c0 .554.446 1 1 1h5c .554 0 1-.446 1-1v-4c0-.554-.446-1-1-1zm9.857422 3c-.474857 0-.857422.3723177-.857422.8339844v3.3320316c0 .461666.382565.833984.857422.833984h4.285156c.474857 0 .857422-.372318.857422-.833984v-3.3320316c0-.4616667-.382565-.8339844-.857422-.8339844zm-5.0000001 7c-.4748572 0-.8574219.296682-.8574219.666016v2.667968c0 .369334.3825647.666016.8574219.666016h4.2851561c.474857 0 .857422-.296682.857422-.666016v-2.667968c0-.369334-.382565-.666016-.857422-.666016z" fill="#fff"/></svg>