<svg height="22" width="22" xmlns="http://www.w3.org/2000/svg"><path d="m21 11a10 10 0 0 1 -10 10 10 10 0 0 1 -10-10 10 10 0 0 1 10-10 10 10 0 0 1 10 10z" fill="#4f4f4f"/><path d="m11 1a10 10 0 0 0 -10 10 10 10 0 0 0  .01075.291 10 10 0 0 1 9.989-9.791 10 10 0 0 1 9.989 9.709 10 10 0 0 0  .011-.209 10 10 0 0 0 -10-10z" fill="#fff" opacity=".1"/><path d="m20.99 11.209a10 10 0 0 1 -9.99 9.791 10 10 0 0 1 -9.989-9.709 10 10 0 0 0 -.011.209 10 10 0 0 0 10 10 10 10 0 0 0 10-10 10 10 0 0 0 -.0105-.291z" opacity=".2"/><g fill="#202020" opacity=".2" transform="translate(-1 -.5)"><path d="m12 8a4 4 0 0 0 -4 4h2a2 2 0 0 1 2-2 2 2 0 0 1 2 2h2a4 4 0 0 0 -4-4z"/><path d="m12 5a7 7 0 0 0 -7 7 7 7 0 0 0 7 7v-2a5 5 0 0 1 -5-5 5 5 0 0 1 5-5 5 5 0 0 1 5 5h2a7 7 0 0 0 -7-7z"/></g><path d="m11 7a4 4 0 0 0 -4 4h2a2 2 0 0 1 2-2 2 2 0 0 1 2 2h2a4 4 0 0 0 -4-4z" fill="#00adef"/><path d="m11 4a7 7 0 0 0 -7 7 7 7 0 0 0 7 7v-2a5 5 0 0 1 -5-5 5 5 0 0 1 5-5 5 5 0 0 1 5 5h2a7 7 0 0 0 -7-7z" fill="#fff"/></svg>