<svg height="22" width="22" xmlns="http://www.w3.org/2000/svg"><rect fill="#4f4f4f" height="14" rx="1" width="20" x="1" y="4"/><path d="m2 4c-.554 0-1 .446-1 1v .5c0-.554.446-1 1-1h18c .554 0 1 .446 1 1v-.5c0-.554-.446-1-1-1z" fill="#fff" opacity=".1"/><path d="m1 17v .5c0 .554.446 1 1 1h18c .554 0 1-.446 1-1v-.5c0 .554-.446 1-1 1h-18c-.554 0-1-.446-1-1z" opacity=".2"/><circle cx="5" cy="8.5" opacity=".2" r="1"/><circle cx="8" cy="8.5" opacity=".2" r="1"/><circle cx="11" cy="8.5" opacity=".2" r="1"/><circle cx="14" cy="8.5" opacity=".2" r="1"/><circle cx="17" cy="8.5" opacity=".2" r="1"/><circle cx="7" cy="12.5" opacity=".2" r="1"/><circle cx="10" cy="12.5" opacity=".2" r="1"/><circle cx="13" cy="12.5" opacity=".2" r="1"/><circle cx="16" cy="12.5" opacity=".2" r="1"/><rect height="2" opacity=".2" rx=".5" width="14" x="4" y="15.5"/><g fill="#e4e4e4"><circle cx="5" cy="8" r="1"/><circle cx="8" cy="8" r="1"/><circle cx="11" cy="8" r="1"/><circle cx="14" cy="8" r="1"/><circle cx="17" cy="8" r="1"/><circle cx="7" cy="12" r="1"/><circle cx="10" cy="12" r="1"/><circle cx="13" cy="12" r="1"/><circle cx="16" cy="12" r="1"/><rect height="2" rx=".5" width="14" x="4" y="15"/></g><circle cx="16.5" cy="16.5" fill="#e9541d" r="5.5"/><path d="m16.279361 13.001375c-.260168.0047-.518294.01458-.688046.03996-.760378.116375-1.36909.383544-1.761675.772045-.21496.210586-.342418.437212-.426418.731796-.04608.177918-.06183.586253-.01371.742004.159834.548919.538419.970671 1.252131 1.393589.303043.179376.536669.297209 1.210714.60142.808212.363418 1.054672.510127 1.169589.691837.04492.07379.06213.111708.05513.200375-.01196.140584-.08254.210584-.247626.270669-.109958.03879-.149334.05133-.357585.05017-.381793-.0027-.717504-.07408-1.183298-.240627-.328418-.115208-.653627-.274459-.921671-.45121-.269793-.176751-.291668-.183168-.371585-.140293-.06038.03267-.500503.424961-.825421.742003-.211459.206794-.214959.248211-.06883.391128.144375.142626.548627.442169.770587.571378.240917.141458.402502.220793.674045.320835.455585.169167.837963.239459 1.554591.300709.163333.01371.744629.01517.94938 0 1.121463-.09013 2.036426-.456169 2.517678-.992546.172084-.190458.276794-.353501.357586-.581587.07933-.221668.09975-.657711.04142-.922253-.09654-.428753-.354377-.815797-.770588-1.142756-.417669-.327251-.840879-.545128-1.857342-.952297-.710212-.283209-.977088-.433709-1.04563-.591502-.03792-.084-.01546-.234209.04142-.290793.111708-.112875.326668-.154001.605502-.120167.519461.06388 1.186214.302169 1.7748.631461.113458.06242.223418.115209.247626.120167.09479.02508.153127-.01254.53667-.451209.471044-.540171.466086-.517712.206501-.701754-.772338-.55417-1.668049-.875005-2.696764-.972422-.20475-.01867-.469002-.0245-.72917-.02013z" fill="#fff"/></svg>