<svg height="22" width="22" xmlns="http://www.w3.org/2000/svg"><rect fill="#e4e4e4" height="19.982" rx="9.996" ry="9.991" transform="matrix(0 -1 -1 0 0 0)" width="19.992" x="-20.99" y="-20.99"/><path d="m11 1.0002c-5.535 0-9.991 4.4582-9.991 9.996 0 .08382-.002.16658 0 .2499.1322-5.421 4.54-9.746 9.991-9.746s9.859 4.32505 9.991 9.746c.002-.08332 0-.166075 0-.2499 0-5.5375-4.456-9.996-9.991-9.996z" fill="#fff" opacity=".2"/><path d="m1.00585 11.245c-.00205.0835-.00585.166-.00585.25 0 5.543 4.46 10.005 10 10.005s10-4.462 10-10.005c0-.084-.004-.1665-.006-.25-.132 5.4255-4.538 9.755-9.994 9.755s-9.862-4.3295-9.994-9.755z" opacity=".2"/><circle cx="11" cy="11" fill="#3f3f3f" r="7"/><path d="m9 7.5v3 2 3h2v-3h2v-2h-2v-1h3v-2h-3-1z" opacity=".2"/><path d="m9 7v3 2 3h2v-3h2v-2h-2v-1h3v-2h-3-1z" fill="#fff"/></svg>