<svg height="22" width="22" xmlns="http://www.w3.org/2000/svg"><rect fill="#f18d00" height="20" rx="10" transform="matrix(0 -1 -1 0 0 0)" width="20" x="-21" y="-21"/><path d="m11 1c-5.54 0-10 4.46-10 10 0 .084.004.166.0058.25.1324-5.423 4.5382-9.75 9.9942-9.75 5.4558 0 9.862 4.327 9.994 9.75.002-.08343.0059-.16606.0059-.25 0-5.54-4.46-10-10-10z" fill="#fff" opacity=".2"/><path d="m1.0058 11.25c-.002.084-.0058.166-.0058.25 0 5.54 4.46 10 10 10s10-4.46 10-10c0-.084-.004-.1665-.006-.25-.132 5.423-4.538 9.75-9.994 9.75s-9.862-4.327-9.994-9.75z" opacity=".2"/><path d="m18 9.3775c-1.312-5.5457-6.351-5.4992-9.3935-4.0514-3.2013 1.618-5.5197 5.7659-4.2553 9.2379 1.9544 5.239 9.1488 5.16 11.583.288.792-1.855.81-2.855-.434-4.8543v1.9992l-1-1.4994s-.62128 1.771-1.2812 2.4409c-.91845.93203-2.3042.23507-2.2188.55787.24549.92799 2 1.4994 2 1.4994-5 1.767-5.055-1.579-5-2.499.158-2.6494 2.488-4.652 5.294-4.5045.895.0687 2.706 1.0057 2.706 1.0057-.644-1.4736-1.961-2.1232-2.5-2.3991 2.113-.6986 3.541 1.5079 4.5 2.7779z" fill-rule="evenodd" opacity=".2"/><path d="m18 8.8775c-1.312-5.5457-6.351-5.4992-9.3935-4.0514-3.2013 1.618-5.5197 5.7659-4.2553 9.2379 1.9544 5.239 9.1488 5.16 11.583.288.792-1.855.81-2.855-.434-4.8543v1.9992l-1-1.4994s-.62128 1.771-1.2812 2.4409c-.91845.93203-2.3042.23507-2.2188.55787.24549.92799 2 1.4994 2 1.4994-5 1.767-5.055-1.579-5-2.499.158-2.6494 2.488-4.652 5.294-4.5045.895.0687 2.706 1.0057 2.706 1.0057-.644-1.4736-1.961-2.1232-2.5-2.3991 2.113-.6986 3.541 1.5079 4.5 2.7779z" fill="#fff" fill-rule="evenodd"/></svg>