<svg height="22" viewBox="0 0 22 22" width="22" xmlns="http://www.w3.org/2000/svg"><path d="m2 21.5c-.554 0-1-.446-1-1v-.5c0 .554.446 1 1 1h18c .554 0 1-.446 1-1v .5c0 .554-.446 1-1 1z" opacity=".2"/><rect fill="#4f4f4f" height="20" rx="1" width="20" x="1" y="1"/><path d="m2 1.0005c-.554 0-1 .446-1 1v .5c0-.554.446-1 1-1h18c .554 0 1 .446 1 1v-.5c0-.554-.446-1-1-1z" fill="#fff" opacity=".1"/><path d="m21 5.0005-16 16h3l13-13z" fill="#f24c3d"/><path d="m21 8.0005v3l-10 10h-3z" fill="#e6df15"/><path d="m21 11v3l-7 7h-3z" fill="#66dd23"/><path d="m21 14v3l-4 4h-3z" fill="#24f0ff"/><path d="m11 3.5 2.857 5-2.857 5h2.2857l1.714-3.0005 1.714 3.0005h2.286l-2.857-5 2.857-5h-2.286l-1.714 3.0005-1.714-3.0005zm-8 .0005h7v1.25l-4.5 6.8745h4.5v1.875h-7v-1.25l4.5-6.875h-4.5z" opacity=".2"/><path d="m11 3 2.857 5-2.857 5h2.2857l1.714-3.0005 1.714 3.0005h2.286l-2.857-5 2.857-5h-2.286l-1.714 3.0005-1.714-3.0005zm-8 .0005h7v1.25l-4.5 6.8745h4.5v1.875h-7v-1.25l4.5-6.875h-4.5z" fill="#fff"/></svg>