<svg height="22" width="22" xmlns="http://www.w3.org/2000/svg"><path d="m3.5344976 2.0000002h1.9311236c.2960788 0 .5344382.243839.5344382.5467242v4.8069136c0 .3028851-.2383594.5467241-.5344382.5467241h-1.9311236c-.2960788 0-.5344382-.243839-.5344382-.5467241v-4.8069136c0-.3028852.2383594-.5467242.5344382-.5467242z" fill="#4f4f4f"/><path d="m3.5342388 2.0000001c-.2960786 0-.5341794.24399-.5341794.5468751v.4999999c0-.3028851.2381008-.5468749.5341794-.5468749h1.931641c.2960785 0 .5341795.2439898.5341795.5468749v-.4999999c0-.3028851-.238101-.5468751-.5341795-.5468751z" fill="#fff" opacity=".1"/><path d="m19.98825 20.601151v-11.040456l-1.46454-1.4066189c-.359142-.3449394-2.582346-2.2257587-3.072037-2.3161455l-4.316119-3.0606998-4.8711732 3.2024294c-.4160963.2735518-2.5356186 1.9594266-2.8830643 2.3161455l-1.3700531 1.4066193v10.898726c0 .497962.4008868.898849.8988494.898849h16.1792882c.497962 0 .898849-.400887.898849-.898849z" opacity=".2"/><path d="m20.000059 20.101151v-11.040455l-1.466415-1.4066196c-.359602-.3449395-2.585652-2.2257588-3.075969-2.3161456l-4.321645-3.0606998-4.8774086 3.2024294c-.416629.2735518-2.5388646 1.9594267-2.886755 2.3161455l-1.371807 1.4066191v10.898726c0 .497962.4014.898849.9000001.898849h16.1999995c.4986 0 .9-.400887.9-.898849z" fill="#e4e4e4"/><path d="m2 9h18v1h-18z" opacity=".15"/><rect fill="#956a42" height="8" rx=".75" width="5" x="4" y="11"/><path d="m13.250059 11c-.683851 0-1.25.566149-1.25 1.25v3.5c0 .683851.566149 1.25 1.25 1.25h3.5c.683851 0 1.25-.566149 1.25-1.25v-3.5c0-.683851-.566149-1.25-1.25-1.25z" fill="#956a42"/><path d="m13.250059 12.5c-.147149 0-.25.102851-.25.250001v3.499999c0 .147149.102851.25.25.25h3.499999c.147149 0 .250001-.102851.250001-.25v-3.499999c0-.14715-.102852-.250001-.250001-.250001z" opacity=".2"/><path d="m13.250059 12.000001c-.147149 0-.25.102851-.25.25v3.499999c0 .147149.102851.25.25.25h3.499999c.147149 0 .250001-.102851.250001-.25v-3.499999c0-.147149-.102852-.25-.250001-.25z" fill="#c2eeff"/><circle cx="7.5" cy="16" opacity=".2" r=".5"/><circle cx="7.5" cy="15.5" fill="#fff" r=".5"/><path d="m4.0087064 7.3000648c-.2916947.2424357-.5314872.4479835-.6271269.5461758l-1.3703161 1.4064024v-.4866617h1.997443z" opacity=".05"/><path d="m6.0000594 5.9550499c-.462545.3403054-1.349752 1.0392846-2 1.5790336v1.4659165h2z" opacity=".15"/><path d="m8.0000594 4.6208204-1.741211 1.1430682c-.046619.030609-.1743345.1290263-.258789.1911613v3.0449501h2z" opacity=".05"/><path d="m10.000059 3.3070728-1.9999996 1.3137476v4.3791796h1.9999996z" opacity=".15"/><path d="m11.135801 2.5609577-1.135742.7461151v5.6929272h2v-5.8265452z" opacity=".05"/><path d="m12.000059 3.1734548v5.8265452h2v-4.4103896z" opacity=".15"/><path d="m14.000059 4.5896104v4.4103896h2v-3.0868884c-.235557-.156218-.434771-.2708782-.541992-.2906434z" opacity=".05"/><path d="m16.000059 5.9131116v3.0868884h2v-1.5302871c-.567143-.4823575-1.41325-1.1674779-2-1.5566013z" opacity=".15"/><path d="m17.990807 7.2356942v1.5302871h1.997443v.3452417l-1.464922-1.4073781c-.08498-.0816195-.286468-.2586139-.532521-.4681507z" opacity=".05"/><path d="m10.999757 2.0001597-8.9884936 6.9910506" fill="none" stroke="#5d5d5d" stroke-linecap="round" stroke-linejoin="round" stroke-width="2"/><path d="m11.011428 2.0001597 8.976822 6.9910506" fill="none" stroke="#5d5d5d" stroke-linecap="round" stroke-linejoin="round" stroke-width="2"/><path d="m10.976349.9926604a.99882137.99882137 0 0 0 -.07022.00585.99882137.99882137 0 0 0 -.600793.2769892l-8.9075451 6.927657a.99882137.99882137 0 0 0 -.3657427 1.0484624.99882137.99882137 0 0 1  .3657427-.5491017l8.9075421-6.9276551a.99882137.99882137 0 0 1  .600793-.2769892.99882137.99882137 0 0 1  .07022-.00585.99882137.99882137 0 0 1  .0195.0009738.99882137.99882137 0 0 1  .0098-.0009738.99882137.99882137 0 0 1  .04389.00195.99882137.99882137 0 0 1  .03316.00195.99882137.99882137 0 0 1  .624201.2799151l8.894863 6.9266797a.99882137.99882137 0 0 1  .36668.5481292.99882137.99882137 0 0 0 -.366718-1.0474869l-8.894863-6.9266833a.99882137.99882137 0 0 0 -.624201-.2799151.99882137.99882137 0 0 0 -.03316-.00195.99882137.99882137 0 0 0 -.04389-.00195.99882137.99882137 0 0 0 -.0098.0009737.99882137.99882137 0 0 0 -.0195-.0009737z" fill="#fff" fill-rule="evenodd" opacity=".1"/></svg>