<svg height="22" width="22" xmlns="http://www.w3.org/2000/svg"><path d="m12 2a1.5 1 0 0 0 -1.5 1 1.5 1 0 0 0  .005.0762 5.5 2 0 0 0 -4.005 1.9238 5.5 2 0 0 0  .0175.128c.1435-.0795.306-.128.4825-.128h10c .1785 0 .3425.0495.4875.131a5.5 2 0 0 0  .012-.131 5.5 2 0 0 0 -4.006-1.9228 1.5 1 0 0 0  .006-.0772 1.5 1 0 0 0 -1.5-1z" fill="#fecd38"/><path d="m7 5c-.554 0-1 .446-1 1 .947 3.405-.9419 6.74-2 4-.359-.913-.8568-1.516-2-1.5h-.5c-.277 0-.5.223-.5.5v1c0 .277.223.5.5.5h.5v1c .18768 3.1732.76155 3.6464 2 4 1.7064.6035 2 1.1522 2 3.5 0 .554.446 1 1 1h10c .554 0 1-.446 1-1v-.5h2.5c.277 0 .5-.223.5-.5v-9c0-.277-.223-.5-.5-.5h-2.5v-2.5c0-.554-.446-1-1-1zm11 5h1.5v7h-1.5z" fill="#fec006"/><path d="m7 5c-.554 0-1 .446-1 1 .0195.07.031.139.048.209.1245-.41.5-.709.952-.709h10c .554 0 1 .446 1 1v-.5c0-.554-.446-1-1-1zm-.753 3.1415c-.087 2.4205-1.4185 4.0045-2.247 1.8585-.359-.913-.8568-1.516-2-1.5h-.5c-.277 0-.5.223-.5.5v.5c0-.277.223-.5.5-.5h.5c1.1432-.016 1.641.587 2 1.5.8845 2.29 2.343.333 2.247-2.3585zm11.753.3585v.5h2.5c.277 0 .5.223.5.5v-.5c0-.277-.223-.5-.5-.5zm0 8.5v.5h1.5v-.5z" fill="#fff" opacity=".2"/><path d="m12 2a1.5 1 0 0 0 -1.5 1 1.5 1 0 0 0  .005.0762 5.5 2 0 0 0 -4.005 1.9238 5.5 2 0 0 0  .0175.128c.0335-.0185.071-.029.1065-.044a5.5 2 0 0 1 3.881-1.5078 1.5 1 0 0 1 -.005-.0762 1.5 1 0 0 1 1.5-1 1.5 1 0 0 1 1.5 1 1.5 1 0 0 1 -.006.07715 5.5 2 0 0 1 3.884 1.5088c.036.0155.075.0255.1095.045a5.5 2 0 0 0  .012-.131 5.5 2 0 0 0 -4.006-1.9228 1.5 1 0 0 0  .006-.0772 1.5 1 0 0 0 -1.5-1z" fill="#fff" opacity=".1"/><path d="m7 4.5c-.135 0-.2595.035-.376.084a5.5 2 0 0 0 -.124.416 5.5 2 0 0 0  .0175.128c.1435-.0795.306-.128.4825-.128h10c .1785 0 .3425.0495.4875.131a5.5 2 0 0 0  .012-.131 5.5 2 0 0 0 -.122-.414c-.118-.05-.242-.086-.378-.086h-10z" opacity=".2"/><path d="m6.048 6.209c-.0285.0925-.048.189-.048.291.1555.559.228 1.113.247 1.6415.022-.6075-.0355-1.2645-.199-1.9325zm-5.048 3.791v.5c0 .277.223.5.5.5h.5v-.5h-.5c-.277 0-.5-.223-.5-.5zm17 0v .5h1.5v-.5zm-16 1.5v.5c.1877 3.173.76155 3.6465 2 4 1.7065.6035 2 1.152 2 3.5 0 .554.446 1 1 1h10c .554 0 1-.446 1-1v-.5c0 .554-.446 1-1 1h-10c-.554 0-1-.446-1-1 0-2.348-.2935-2.896-2-3.5-1.2384-.354-1.8123-.827-2-4zm16 7.5h2.5c.277 0 .5-.223.5-.5v-.5c0 .277-.223.5-.5.5h-2.5z" opacity=".2"/><g fill="#e82d2d"><path d="m5.11 20.13h1.803v1.803h-1.803z" transform="matrix(.5547 -.83205 .5547 .83205 0 0)"/><path d="m-1.2 13.82h1.803v1.803h-1.803z" transform="matrix(.5547 -.83205 .5547 .83205 0 0)"/><path d="m2.43 17.01h2.916v2.916h-2.916z" transform="matrix(.5145 -.85749 .5145 .85749 0 0)"/></g></svg>