<svg height="22" width="22" xmlns="http://www.w3.org/2000/svg"><rect height="6" opacity=".2" ry=".5" width="7" x="14" y="13.5"/><rect fill="#55b65a" height="6" ry=".5" width="7" x="12" y="3"/><rect fill="#fec006" height="6" ry=".5" width="7" x="13" y="8"/><rect fill="#fe6c06" height="6" ry=".5" width="7" x="14" y="13"/><g fill="#fff"><path d="m14.5 13c-.277 0-.5.223-.5.5v.5c0-.277.223-.5.5-.5h6c .277 0 .5.223.5.5v-.5c0-.277-.223-.5-.5-.5z" opacity=".2"/><path d="m13.5 8c-.277 0-.5.223-.5.5v.5c0-.277.223-.5.5-.5h6c .277 0 .5.223.5.5v-.5c0-.277-.223-.5-.5-.5z" opacity=".2"/><path d="m12.50024 3c-.277 0-.5.223-.5.5v.5c0-.277.223-.5.5-.5h6c .277 0 .5.223.5.5v-.5c0-.277-.223-.5-.5-.5z" opacity=".2"/></g><path d="m3 1c-.554 0-1 .446-1 1v18c0 .554.446 1 1 1h1.9892579 12.0107421c.554 0 1-.446 1-1v-18c0-.554-.446-1-1-1h-7.0107422-5z" fill="#3f89db"/><path d="m3 1c-.554 0-1 .446-1 1v .5c0-.554.446-1 1-1h14c .554 0 1 .446 1 1v-.5c0-.554-.446-1-1-1h-7.0105002z" fill="#fff" opacity=".2"/><path d="m2 20v .5c0 .554.446 1 1 1h14c .554 0 1-.446 1-1v-.5c0 .554-.446 1-1 1h-14c-.554 0-1-.446-1-1z" opacity=".2"/><path d="m9.9999999 5.5c-3.3135 0-5.9999999 2.6865-5.9999999 6s2.6864999 6 5.9999999 6h3.7500001s.70315 0 .75-.75c0-.75-.75-.75-.75-.75h-3.7500001c-2.4853 0-4.5-2.0147-4.5-4.5s2.0147-4.5 4.5-4.5c2.4855001 0 4.5000001 2.0145 4.5000001 4.5v.75c0 .414-.336.75-.75.75s-.75-.336-.75-.75v-.75c0-1.657-1.343-3-3.0000001-3-1.657 0-3 1.343-3 3s1.343 3 3 3c .7845001 0 1.4930001-.308 2.0275001-.8015.4275.5085 1.058.802 1.7225.8015 1.2425 0 2.25-1.0075 2.25-2.25v-.75c0-3.3135-2.6865-6-6.0000001-6zm0 4.5c.8284001 0 1.5000001.6716 1.5000001 1.5 0 .8285-.6715 1.5-1.5000001 1.5-.8285 0-1.5-.6715-1.5-1.5 0-.8284.6716-1.5 1.5-1.5z" opacity=".2"/><path d="m9.9999999 5c-3.3135 0-5.9999999 2.6865-5.9999999 6s2.6864999 6 5.9999999 6h3.7500001s.70315 0 .75-.75c0-.75-.75-.75-.75-.75h-3.7500001c-2.4853 0-4.5-2.0147-4.5-4.5s2.0147-4.5 4.5-4.5c2.4855001 0 4.5000001 2.0145 4.5000001 4.5v.75c0 .414-.336.75-.75.75s-.75-.336-.75-.75v-.75c0-1.657-1.343-3-3.0000001-3-1.657 0-3 1.343-3 3s1.343 3 3 3c .7845001 0 1.4930001-.308 2.0275001-.8015.4275.5085 1.058.802 1.7225.8015 1.2425 0 2.25-1.0075 2.25-2.25v-.75c0-3.3135-2.6865-6-6.0000001-6zm0 4.5c.8284001 0 1.5000001.6716 1.5000001 1.5 0 .8285-.6715 1.5-1.5000001 1.5-.8285 0-1.5-.6715-1.5-1.5 0-.8284.6716-1.5 1.5-1.5z" fill="#fff"/></svg>