<svg height="22" width="22" xmlns="http://www.w3.org/2000/svg"><path d="m11.000132 1.5c-4.500132 0-5.000132 4-4.999999 8.5h2.0527885c-.0529215-4.5 1.0652035-6.5 2.9472105-6.5 1.882009 0 2.999868 2 2.947212 6.5h2.052789c-.000133-4.5-.500133-8.5-5.000001-8.5z" opacity=".2"/><rect height="14" opacity=".2" rx="7" transform="matrix(0 -1 -1 0 0 0)" width="14" x="-20.5" y="-18"/><path d="m11.000132 1c-4.500132 0-5.000132 4-4.999999 8.5h2.0527885c-.0529215-4.5 1.0652035-6.5 2.9472105-6.5 1.882009 0 2.999868 2 2.947212 6.5h2.052789c-.000133-4.5-.500133-8.5-5.000001-8.5z" fill="#e4e4e4"/><path d="m11 1c-4.5001325 0-5.000133 4-5 8.5h.00879c.040962-4.28921.6607915-8 4.99121-8 4.330163 0 4.950011 3.71079 4.991211 8h .008789c-.000133-4.5-.500133-8.5-5-8.5z" fill="#fff" opacity=".2"/><rect fill="#a0a0a0" height="14" rx="7" transform="matrix(0 -1 -1 0 0 0)" width="14" x="-20" y="-18"/><rect fill="#4f4f4f" height="10" rx="5" transform="matrix(0 -1 -1 0 0 0)" width="10" x="-18" y="-16"/><path d="m13.47461 11.025693-1.060548.353515-.731445.244141a2 2 0 0 0 -2.09668.462891 2 2 0 0 0 0 2.828125 2 2 0 0 0 2.828125 0 2 2 0 0 0  .462891-2.09668l.244141-.731445z" opacity=".2"/><path d="m13.47461 10.525391-1.060547.353515-.731446.244141a2 2 0 0 0 -2.096679.462891 2 2 0 0 0 0 2.828125 2 2 0 0 0 2.828125 0 2 2 0 0 0  .46289-2.09668l.244141-.731445z" fill="#ff5969"/></svg>