<svg height="22" viewBox="0 0 22 22" width="22" xmlns="http://www.w3.org/2000/svg"><path d="m11 1.5v5h-5l-5 5h5v5l5 5v-5h5l4.5-4.5.5-.5h-5v-5z" opacity=".2"/><path d="m6 6-5 5h10v-5" fill="#fec006"/><path d="m16 6-5-5v10h5" fill="#f34235"/><path d="m6 16 5 5v-10h-5" fill="#4bae4f"/><path d="m16 16 5-5h-10v5" fill="#2095f2"/><path d="m11 11v .5h9.5l.5-.5z" fill="#fff" opacity=".2"/><path d="m16 6-5 5h5z" fill="#9c27b0"/><path d="m6 11v5l5-5z" fill="#1ea362"/><path d="m11 11v5h5z" fill="#3e50b4"/><path d="m6 6 5 5v-5z" fill="#fe9700"/><path d="m11 1v .5l5 5v-.5zm-5 5-5 5h .5l4.5-4.5h5v-.5z" fill="#fff" opacity=".2"/><path d="m11 8.5-1 2-2 1 2 1 1 2 1-2 2-1-2-1z" opacity=".2"/><path d="m11 8-1 2-2 1 2 1 1 2 1-2 2-1-2-1z" fill="#fff"/><path d="m8 11 2 1 1 2v-3z" fill="#ebebeb"/><path d="m14 11-2 1-1 2v-3z" fill="#dfdfdf"/></svg>