<svg height="22" width="22" xmlns="http://www.w3.org/2000/svg"><rect fill="#8e8e8e" height="20" rx="1" transform="scale(-1 1)" width="16" x="-19" y="1"/><path d="m4 2h14v8h-14z" fill-rule="evenodd" opacity=".6" stroke-miterlimit="3.429"/><path d="m4 1c-.554 0-1 .446-1 1v .5c0-.554.446-1 1-1h14c .554 0 1 .446 1 1v-.5c0-.554-.446-1-1-1z" fill="#fff" opacity=".1"/><path d="m3 20v .5c0 .554.446 1 1 1h14c .554 0 1-.446 1-1v-.5c0 .554-.446 1-1 1h-14c-.554 0-1-.446-1-1z" opacity=".2"/><circle cx="11" cy="16.5" opacity=".2" r="4"/><circle cx="11" cy="16" fill="#fff" r="4"/><circle cx="11" cy="16" fill="#8e8e8e" r="2"/></svg>