<svg height="22" width="22" xmlns="http://www.w3.org/2000/svg"><rect fill="#5584bb" height="20" rx="10" transform="matrix(0 -1 -1 0 0 0)" width="20" x="-21" y="-21"/><path d="m11 1c-5.54 0-10 4.46-10 10 0 .084-.002.166 0 .25.1322-5.423 4.544-9.75 10-9.75s9.868 4.327 10 9.75c.002-.084 0-.166 0-.25 0-5.54-4.46-10-10-10z" fill="#fff" opacity=".2"/><path d="m1.0058 11.25c-.002.084-.0058.166-.0058.25 0 5.54 4.46 10 10 10s10-4.46 10-10c0-.084-.004-.1665-.006-.25-.132 5.423-4.538 9.75-9.994 9.75s-9.862-4.327-9.994-9.75z" opacity=".2"/><path d="m8 6.3044a6 6 0 0 0 -2.6175 7.2846l10.24-5.912a6 6 0 0 0 -7.622-1.3726zm-1.6226 9.0196a6 6 0 0 0 7.6226 1.373 6 6 0 0 0 2.617-7.285l-10.24 5.912z" opacity=".2"/><path d="m8 5.8038a6 6 0 0 0 -2.6175 7.2852l10.24-5.9125a6 6 0 0 0 -7.622-1.3727zm-1.6226 9.0202a6 6 0 0 0 7.6226 1.372 6 6 0 0 0 2.617-7.2846l-10.24 5.9126z" fill="#fff"/><g opacity=".2" transform="translate(-1 -.5)"><path d="m11 4h2v1h-2z"/><path d="m11 19h2v1h-2z"/><path d="m11-20h2v1h-2z" transform="rotate(90)"/><path d="m11-5h2v1h-2z" transform="rotate(90)"/><path d="m15.97-8h2v1h-2z" transform="matrix(.70710678 .70710678 -.70710678 .70710678 0 0)"/><path d="m15.97 7h2v1h-2z" transform="matrix(.70710678 .70710678 -.70710678 .70710678 0 0)"/><path d="m-1-24.97h2v1h-2z" transform="matrix(-.70710678 .70710678 -.70710678 -.70710678 0 0)"/><path d="m-1-9.97h2v1h-2z" transform="matrix(-.70710678 .70710678 -.70710678 -.70710678 0 0)"/></g><g fill="#fff" transform="translate(-1 -1)"><path d="m11 4h2v1h-2z"/><path d="m11 19h2v1h-2z"/><path d="m11-20h2v1h-2z" transform="rotate(90)"/><path d="m11-5h2v1h-2z" transform="rotate(90)"/><path d="m15.97-8h2v1h-2z" transform="matrix(.70710678 .70710678 -.70710678 .70710678 0 0)"/><path d="m15.97 7h2v1h-2z" transform="matrix(.70710678 .70710678 -.70710678 .70710678 0 0)"/><path d="m-1-24.97h2v1h-2z" transform="matrix(-.70710678 .70710678 -.70710678 -.70710678 0 0)"/><path d="m-1-9.97h2v1h-2z" transform="matrix(-.70710678 .70710678 -.70710678 -.70710678 0 0)"/></g></svg>