<svg height="22" width="22" xmlns="http://www.w3.org/2000/svg"><rect fill="#ff5f7f" height="20" rx="10" transform="matrix(0 -1 -1 0 0 0)" width="20" x="-21" y="-21"/><path d="m6.0049 16.928c.035026-.34817.24049-1.101.7508-2.7509.8634-2.792 1.4049-6.057 1.1752-6.9794-.057-.2293-.0633-.3469-.0214-.3998.1307-.1648.655-.3439 1.0867-.3712.8915-.0188.8472.3147.8178 1.0407-.02628.65073-.19654 2.1509-.35449 2.9713-.04902.25456-.07515.50092-.05807.54747.02574.07021.26513.08448 1.4045.08373.75538-.000461 1.3575-.02102 1.3945-.04559.11526-.07668.18275-.52061.67209-2.7657.26176-1.201.52068-2.2633.57537-2.3608.12479-.22232.43187-.39769.69634-.39769.2701 0 .79208.1518.95517.28998l.1314.11133-.12549.3764c-.28734.86186-1.0847 4.7067-1.3976 6.7389-.08268.53711-.1995 1.2347-.2596 1.5502-.13029.68398-.13372.76047-.01659 1.0766.18534.50029.17649.54906-.12496.68859-.14931.06911-.49139.16446-.76019.21188-.90911.1604-1.1866-.04412-1.187-.8748-.000272-.55892.05103-.67291.39956-2.1404.15344-.64606.27904-1.0424.27904-1.1064 0-.10822-.027-.11343-.3924-.07576-.21582.02225-.87548.04384-1.4659.04796-.59043.0042-1.0908.02558-1.1119.04766-.02109.02208-.13776.30364-.25925.85122-.12148.54759-.34013 1.4484-.48588 2.0018-.14575.55339-.2759 1.1712-.28921 1.373-.015831.2396-.056321.39661-.1168.45277-.13741.12759-.81675.32999-1.2447.37084-.52185.05547-.7054-.17612-.66707-.56425z" opacity=".2"/><path d="m6.0049 16.428c.035026-.34817.24049-1.101.7508-2.7509.8634-2.792 1.4049-6.057 1.1752-6.9794-.057-.2293-.0633-.3469-.0214-.3998.1307-.1648.655-.3439 1.0867-.3712.8915-.0188.8472.3147.8178 1.0407-.0262.6507-.1965 2.1509-.3545 2.9713-.04902.25456-.07515.50092-.05807.54747.02574.07021.26513.08448 1.4045.08373.75538-.000461 1.3575-.02102 1.3945-.04559.11526-.07668.18275-.52061.67209-2.7657.26176-1.201.52068-2.2633.57537-2.3608.12479-.22232.43187-.39769.69634-.39769.2701 0 .79208.1518.95517.28998l.1314.11133-.12549.3764c-.28734.86186-1.0847 4.7067-1.3976 6.7389-.08268.53711-.1995 1.2347-.2596 1.5502-.13029.68398-.13372.76047-.01659 1.0766.18534.50029.17649.54906-.12496.68859-.14931.06911-.49139.16446-.76019.21188-.90911.1604-1.1866-.04412-1.187-.8748-.000272-.55892.05103-.67291.39956-2.1404.15344-.64606.27904-1.0424.27904-1.1064 0-.10822-.027-.11343-.3924-.07576-.21582.02225-.87548.04384-1.4659.04796-.59043.0042-1.0908.02558-1.1119.04766-.02109.02208-.13776.30364-.25925.85122-.12148.54759-.34013 1.4484-.48588 2.0018-.14575.55339-.2759 1.1712-.28921 1.373-.015831.2396-.056321.39661-.1168.45277-.13741.12759-.81675.32999-1.2447.37084-.52185.05547-.7054-.17612-.66707-.56425z" fill="#fff"/><path d="m11 1c-5.5399 0-9.9999 4.46-9.9999 10 0 .08394.00383.16657.00586.25.1322-5.4231 4.538-9.75 9.994-9.75 5.4561 0 9.8618 4.3269 9.9941 9.75.002-.08343.0059-.16606.0059-.25 0-5.54-4.46-10-10-10z" fill="#fff" opacity=".2"/><path d="m1.0059 11.25c-.00204.08343-.00586.16606-.00586.25 0 5.54 4.46 10 10 10s10-4.46 10-10c0-.08394-.0038-.16657-.0059-.25-.132 5.423-4.538 9.75-9.994 9.75-5.4561 0-9.8618-4.327-9.9941-9.75z" opacity=".2"/></svg>