<svg height="22" width="22" xmlns="http://www.w3.org/2000/svg"><rect fill="#f4b400" height="20" rx="1" transform="matrix(0 -1 -1 0 0 0)" width="20" x="-21" y="-21"/><path d="m1 2.5v-.5c0-.554.446-1 1-1h18c .554 0 1 .446 1 1v .5c0-.554-.446-1-1-1h-18c-.554 0-1 .446-1 1z" fill="#fff" opacity=".2"/><path d="m1 20v .5c0 .554.446 1 1 1h18c .554 0 1-.446 1-1v-.5c0 .554-.446 1-1 1h-18c-.554 0-1-.446-1-1z" opacity=".2"/><path d="m11 3.5a5 5 0 0 0 -5 5 5 5 0 0 0 2.0098 4h-.0098v5h1v1h4v-1h1v-5h-.0098a5 5 0 0 0 2.01-4 5 5 0 0 0 -5-5zm0 1a4 4 0 0 1 4 4 4 4 0 0 1 -4 4 4 4 0 0 1 -4-4 4 4 0 0 1 4-4zm-2 9h4v1h-4zm0 2h4v1h-4z" opacity=".2"/><path d="m11 3a5 5 0 0 0 -5 5 5 5 0 0 0 2.0098 4h-.0098v5h1v1h4v-1h1v-5h-.0098a5 5 0 0 0 2.01-4 5 5 0 0 0 -5-5zm0 1a4 4 0 0 1 4 4 4 4 0 0 1 -4 4 4 4 0 0 1 -4-4 4 4 0 0 1 4-4zm-2 9h4v1h-4zm0 2h4v1h-4z" fill="#fff"/></svg>