<svg height="22" width="22" xmlns="http://www.w3.org/2000/svg"><rect fill="#4f75de" height="20" rx="10" transform="matrix(0 -1 -1 0 0 0)" width="20" x="-21" y="-21"/><path d="m11 1c-5.5395076 0-9.9991111 4.4599999-9.9991111 10 0 .084-.002.1665 0 .25.1321882-5.4230001 4.543596-9.75 9.9991111-9.75 5.455515 0 9.867123 4.3269999 9.999111 9.75.002-.0835 0-.166 0-.25 0-5.5400001-4.459604-10-9.999111-10z" fill="#fff" opacity=".2"/><path d="m1.00585 11.25c-.00205.0835-.00585.166-.00585.25 0 5.54 4.4599999 10 10 10 5.54 0 10-4.46 10-10 0-.084-.004-.1665-.006-.25-.132 5.423-4.538 9.75-9.994 9.75-5.4560001 0-9.862-4.327-9.994-9.75z" opacity=".2"/><path d="m10.671875 6.3107136a2.9999999 4.0000002 45 0 0 -3.2578125 1.4101563 2.9999999 4.0000002 45 0 0 -.7070313 4.9492181 2.9999999 4.0000002 45 0 0 4.1738278-.06836l3.603516 3.605469c.391737.391737 1.024279.391737 1.416016 0s .391737-1.024277 0-1.416015l-.707032-.707032.705079-.705078.443359.441406c.146901.146902.423272.106025.619141-.08984.195868-.195869.234792-.470286.08789-.617188l-1.591797-1.5918c-.146901-.146901-.423272-.107978-.61914.08789-.195869.195869-.234792.472239-.08789.619141l.441406.443359-.705078.705078-2.191406-2.191406a2.9999999 4.0000002 45 0 0  .06836-4.1718744 2.9999999 4.0000002 45 0 0 -1.691406-.703125zm-.195313 1.4042969c.316817.021641.60582.1390228.826172.359375.587606.5876056.449153 1.6719395-.310546 2.4316395l-.792969.792969c-.759699.7597-1.8440351.898153-2.4316409.310547-.5876057-.587606-.449153-1.67194.3105469-2.43164l.7929688-.7929686c.4748122-.4748126 1.0774402-.7059909 1.6054682-.6699219z" opacity=".2"/><g fill="#fff" transform="matrix(.70710678 .70710678 -.70710678 .70710678 11.098217 -6.400978)"><path d="m9 8a2.9999999 4.0000002 0 0 0 -3 4 2.9999999 4.0000002 0 0 0 3 4 2.9999999 4.0000002 0 0 0 3-4 2.9999999 4.0000002 0 0 0 -3-4zm0 1.5c.831 0 1.5.865075 1.5 1.939453v1.121094c0 1.074378-.669 1.939453-1.5 1.939453s-1.5-.865075-1.5-1.939453v-1.121094c0-1.074378.669-1.939453 1.5-1.939453z" transform="translate(1.027149 .237117)"/><path d="m12.027149 11.237118h6c .554 0 1 .446 1 1s-.446 1-1 1h-6c-.554 0-.217639-.623809-.217639-1.177809s-.336361-.822191.217639-.822191z"/><rect height="1" rx=".375" ry=".5" width="3" x="15.03" y="9.24"/><rect height="1" rx=".375" ry=".5" transform="rotate(90)" width="3" x="9.64" y="-17.03"/></g></svg>