<svg height="22" width="22" xmlns="http://www.w3.org/2000/svg"><rect fill="#ef5a30" height="20" rx="1" transform="matrix(0 -1 -1 0 0 0)" width="20" x="-21" y="-21"/><path d="m5 4.5v14h3v-2.700196l1.5 2.700196h3.5l-2.5-4.5 2.5-4.5h-3.5l-1.5 2.700196v-7.700196zm9 5-2.5 4.5 2.5 4.5h3.5l-2.5-4.5 2.5-4.5z" opacity=".2"/><path d="m2 1c-.554 0-1 .446-1 1v .5c0-.554.446-1 1-1h18c .554 0 1 .446 1 1v-.5c0-.554-.446-1-1-1z" fill="#fff" opacity=".2"/><path d="m2 21.5c-.554 0-1-.446-1-1v-.5c0 .554.446 1 1 1h18c .554 0 1-.446 1-1v .5c0 .554-.446 1-1 1z" opacity=".2"/><g fill="#fff"><path d="m8 4h-3v14h3z"/><path d="m9.5 9-2.5 4.5 2.5 4.5h3.5l-2.5-4.5 2.5-4.5z"/><path d="m14 9-2.5 4.5 2.5 4.5h3.5l-2.5-4.5 2.5-4.5z"/></g></svg>