<svg height="22" width="22" xmlns="http://www.w3.org/2000/svg"><rect fill="#37a0f2" height="19.982" rx="9.991" transform="matrix(0 -1 -1 0 0 0)" width="19.982" x="-20.99" y="-20.99"/><path d="m18.064 3.9358-14.128 14.128c3.9137 3.9137 10.215 3.9137 14.129 0 3.9137-3.9137 3.9137-10.215 0-14.129z" opacity=".1"/><path d="m10.662 1.0181c-.69498.0229-1.368.12355-2.0194.28024l.011.1953-.44749-.068348-.003-.01365c-3.2711.9467-5.8376 3.5078-6.789 6.7774l.36824.53999-.16505.30449.41014.62998 1.0166.25399v-.166l.40719.058498-.038049.29199.31834.0585.49404.136.69748.79848.89248.0675.085998.73148-.60948.42799-.028499.65298-.087498.39849.88248 1.1115.066498.37899s.31999.0875.35949.0875c.038499 0 .71648.51699.71648.51699v2.0064l.24249.0685-.164.92498.40599.54449-.074998.91798.32999.58198c.37599.1205.76098.2215 1.155.29699l.024499-.1805.090998-.26299.0195-.26749-.34499-.0105-.1745-.219.28699-.27799.038999-.208-.31999-.092.0195-.1945.45499-.069.69348-.33499.23199-.42899.72598-.93448-.1645-.73148.22299-.38849.66798.0205.44999-.35949.1455-1.411.49899-.63648.087-.41049-.45499-.1455-.29999-.49499-1.027-.011-.81448-.31249-.0375-.58299-.27249-.47749-.73598-.0105-.42499-.67198-.37899-.1845-.0195.203-.68748.042-.2522-.353-.7165-.146-.591.686-.9294-.158-.0685-1.0546-.6785-.116.2725-.5165-.0785-.2979-.8914.5994-.5615-.068-.2002-.4414.122-.454.3096-.5725.71298-.36249 1.375-.0005-.004.42149.494.2305-.039-.7195.3564-.3615.7185-.4735.05-.334.717-.751.7615-.424-.0665-.0565.516-.4884.1885.049999.087498.1105.1955-.21999.047999-.020499-.21399-.029999-.21899-.073498v-.21099l.1165-.094498h.25399l.116.051499.1005.20549.125-.019v-.018499l.034499.012.35799-.054999.051-.1745.203.050499v.1905l-.1885.13.0285.20899.64648.2s.001.0035.002.009l.1495-.0125.0095-.28249-.51349-.23549-.0295-.1345.42599-.1465.0185-.40924-.44449-.27244-.029-.69138-.61048.30174h-.22249l.057498-.52634-.82998-.1973-.34399.26174v.79588l-.61798.19725-.24799.51959-.26849.043999v-.66513l-.5811-.0802-.29-.1904-.117-.4306 1.039-.6113.508-.1553.051499.34279.28349-.0137.021499-.17285.29649-.042949.005-.059549-.127-.053749-.028999-.1826.36399-.030249.21999-.23144.0115-.0166.003.00095.067498-.069348.76548-.097648.33799.29004-.88798.47459 1.13.26854.1455-.37984h.49399l.175-.33104-.34849-.087898v-.41799l-.23849-.1064zm-5.4785 2.4999.2755.0654-.0945.3721-.298.0959-.1885-.3889zm12.569.12205-.22449.038099-.42099.59874-.60348.095498-.088.51949.25499.059499-.0735.33399-.59848-.12-.54899.12-.117.30699.0945.64548.32249.151.54099-.003.36499-.031999.1115-.29299.57049-.74498.37699.076998.36899-.33699.0695.26299.90998.61798-.1115.1505-.40999-.022499.157.22449.25299.055499.29599-.124-.007-.35699.132-.066498-.1065-.1135-.60748-.33949-.158-.45249h.40349c-.348-.4499-.733-.8679-1.151-1.2517zm-11.813.76083h.45699v.1395h.1005v.24049h-.69698l-.2605-.0724.0655-.168.335-.1395zm.68248.1025.23949.21849-.23949.058999v-.27749zm.5279.3361.1765.112-.1425.1185-.1405-.1185zm-1.341.036999h.38499l-.4944.6935-.203-.1095.043-.292.2695-.292zm.61848 0h .39149v.23349l-.174.112-.21749.041999v-.38749zm.48599.25599h.029499l.44299.1315v.22649h-.37099l-.1015-.147v-.21099zm-.1825.21099v.22749l-.166.168h-.37099l.058498-.25499.175-.0145.035999-.087998.26749-.037999zm11.524.96448-1.3075.1025-.40549.21899h-.51949l-.25499-.026499-.62998.35249v.66298l-1.29.93448.1075.39949h.26099l-.0675.37899-.1845.068498-.011.99398 1.1155 1.2755h.48399l.0305-.077h.87098l.25099-.23449h.49499l.27049.27349.73748.077-.0975.98448.81698 1.451-.43049.82698.0295.38999.33849.34049v.93648l.1945.26299c1.2095-1.6525 1.9315-3.6869 1.9315-5.9004 0-1.4335-.30449-2.7924-.84348-4.0224l-.46699.045999v.36499h-.1885l-.203-.1465-1.034-.26249v-.67198z" fill="#fff" opacity=".2"/><path d="m11 1.0096c-5.5349 0-9.9908 4.4558-9.9908 9.9908 0 .08378-.002.16649 0 .24977.1322-5.4184 4.5399-9.7413 9.9908-9.7413s9.8588 4.3228 9.9908 9.7408c.002-.08328 0-.16599 0-.24977 0-5.5344-4.4559-9.9903-9.9908-9.9903z" fill="#fff" opacity=".2"/><path d="m3.9354 18.065 6.1813-7.9473.83648.83648.92963.92963z" fill="#f2f2f2"/><path d="m18.064 3.9358-7.9473 6.1813 1.766 1.766z" fill="#f34235"/><path d="m18.064 3.9358-14.128 14.128c-3.9137-3.9137-3.9137-10.215 0-14.129 3.9137-3.9137 10.215-3.9137 14.129 0z" fill="#fff" opacity=".2"/><path d="m1.0059 11.25c-.00205.0835-.00585.166-.00585.24999 0 5.5399 4.4599 9.9998 9.9998 9.9998s9.9998-4.4599 9.9998-9.9998c0-.084-.004-.1665-.006-.24999-.132 5.4229-4.5379 9.7498-9.9938 9.7498s-9.8618-4.3269-9.9938-9.7498z" opacity=".2"/></svg>