<svg height="22" width="22" xmlns="http://www.w3.org/2000/svg"><rect fill="#1da6e8" height="20" rx="1" transform="matrix(0 -1 -1 0 0 0)" width="20" x="-21" y="-21"/><path d="m5 7.5v8h3v-5h5v5h3v-5.5c0-2.0172-2.119-2.5-3-2.5zm4 4v3h3v-3z" opacity=".2"/><path d="m2 1c-.554 0-1 .446-1 1v .5c0-.554.446-1 1-1h18c .554 0 1 .446 1 1v-.5c0-.554-.446-1-1-1z" fill="#fff" opacity=".2"/><path d="m2 21.5c-.554 0-1-.446-1-1v-.5c0 .554.446 1 1 1h18c .554 0 1-.446 1-1v .5c0 .554-.446 1-1 1z" opacity=".2"/><path d="m5 7v8h3v-5h5v5h3v-5.5c0-2.0172-2.119-2.5-3-2.5zm4 4v3h3v-3z" fill="#fff"/></svg>