<svg height="22" width="22" xmlns="http://www.w3.org/2000/svg"><path d="m15.77705 2.2069403c-1.417808-.768982-3.044618-1.2051627-4.77705-1.2051627-3.0133396 0-5.7071286 1.3196236-7.5373557 3.4148585-.2390477 7.7893859 8.5284377 16.354085 12.307218 13.609345 2.143396-1.556869.73811-10.805081.0072-15.819041z" fill="#3a68b6"/><path d="m11 1.0017776c-5.5395075 0-9.9991111 4.4596036-9.9991111 9.9991114 0 .08399-.002.166485 0 .249978.1321883-5.4225184 4.5435961-9.7491338 9.9991111-9.7491338s9.867123 4.3266154 9.999111 9.7491338c.002-.08349 0-.165985 0-.249978 0-5.5395078-4.459603-9.9991114-9.999111-9.9991114z" fill="#fff" opacity=".1"/><path d="m14.51336.5018665-.119131.1484243c-.0205.025448-.04057.0513-.06152.078118-.462659.6136754-.725659 1.3068766-1.002134 2.0515754-.105391.2857146-.217128.7166016-.279272 1.0750998-.0623.3594832-.06776 1.1582184-.0098 1.4725255.153286.832606.503909 1.6171712 1.018464 2.2810472.596447.6494373 1.244837 1.3652737 1.486465 1.8875273.332221.718552.472614 1.3582.472614 2.15313 0 .239613-.01368.485919-.03418.632756-.5036 2.354775-2.171015 4.205754-4.51118 4.218375-1.4813819.0056-3.4734613-.499956-3.7419899-2.030132.7135481.108666 1.248494.06978 1.758151.06617.470968-.0033.9203409-.104496 1.4691009-.395662.817627-.436572 1.222377-.51709 1.446108-.491168.32967.0382.371226.03743.44332-.0078.152886-.09593.196731-.134433.108389-.316932-.111541-.230405-.502861-.55216-.830982-.683533-.274825-.110045-.424518-.137483-.753839-.137683-.33537-.00019-.619801.01592-1.224447.199201-.6035969.182989-.9381639.210477-1.3104306.106436-1.5482649-.370567-2.3344085-1.745513-1.5807755-2.750309.4532597-.0209 1.3738753.28397 1.6608523.480003.2745759-.269831-.3213739-.684977-.4169629-1.064359 0-.47355.9648928-.7492166 1.3612088-.9276522.2610769-.1171694.5156339-.2374352.5653799-.2665776.108132-.0633803.316531-.2656658.401373-.3896298.129439-.1892431.214441-.5396875.162095-.6659563-.065694-.1586909-.507603-.2574511-1.5770079-.3525076-.403614-.0358968-.6797175-.2204189-.8924986-.5956506-.3727694-.8619284.9473876-1.6818115 1.4197956-2.1160227-.751384-.4101037-2.1480124.3093098-2.5954726.7294275-.1433373.1418424-.099521.139668-.534132.025388-.028998-.00765-.059039-.014384-.089836-.021483-.010999-.0025-.022203-.00541-.033202-.00781-.019998-.0045-.041021-.00854-.061518-.012694-.014499-.003-.028942-.00594-.043941-.00879-.016999-.003-.033677-.00671-.050777-.00976-.017998-.003-.035607-.00579-.053706-.00879-.012999-.002-.026063-.0037-.039062-.00586-.1150892-.018155-.2353241-.0337236-.3564133-.0449226-.1324382-.0121989-.2652309-.0203382-.3935195-.0234329-.038497-.001-.076851-.001-.1142474-.001-.040496-.0000849-.079457-.0000529-.118154.001-.0075.0001949-.014959.0004764-.022458.0009999-.032497.0009999-.064548.0024-.095695.0039-.005.000245-.00869.0004765-.012694.0009999-.034497.002-.067454.0047-.099601.00781-.005.000255-.00531.0004765-.00781.001-.032997.003-.063644.00752-.093742.011719h-.001c-.013499.002-.028012.0036-.041011.00586-.1432373-.0005-.2745941.040106-.3866841.091788-.3761703-.6352546-.4673777-1.7581776-.7597018-2.394341-.6837392.3583231-1.1521023 2.1193396-1.268442 2.7195112-.044496.2386638-.095445.7021136-.095695.866134-.0000455.023608-.00594.032807-.00684.049801-.9878882 1.5503732-1.5642875 3.389107-1.5642875 5.363754 0 5.522357 4.4767546 9.999111 9.9991111 9.999111 5.522357 0 9.999111-4.476754 9.999111-9.999111 0-3.4996887-1.567222-5.2977859-3.118863-7.7541933 0-.0015.000117-.0024-.0049-.0039-.22868-.3420005-.426584-.7174441-.586862-1.0897453-.025-.082073-.05467-.1494009-.06542-.1494009-.005 0-.0096.00324-.01562.00879-.201619.2437103-.299101 1.1928336-.407192 1.4891159-.780428-1.0810009-1.747945-2.1555731-2.257595-3.3532175z" opacity=".2"/><path d="m14.51336.0018665-.119131.1484243c-.0205.025448-.04057.0513-.06152.078118-.462659.6136754-.725659 1.3068766-1.002134 2.0515754-.105391.2857146-.217128.7166016-.279272 1.0750998-.0623.3594832-.06776 1.1582184-.0098 1.4725255.153286.832606.503909 1.6171712 1.018464 2.2810472.596447.6494373 1.244837 1.3652737 1.486465 1.8875269.332221.7185524.472614 1.3582004.472614 2.1531304 0 .239613-.01368.485919-.03418.632756-.5036 2.354775-2.171015 4.205754-4.51118 4.218375-1.4813819.0056-3.4734613-.499956-3.7419899-2.030132.7135481.108666 1.248494.06978 1.758151.06617.470968-.0033.9203409-.104496 1.4691009-.395662.817627-.436572 1.222377-.51709 1.446108-.491168.32967.0382.371226.03743.44332-.0078.152886-.09593.196731-.134433.108389-.316932-.111541-.230405-.502861-.55216-.830982-.683533-.274825-.110045-.424518-.137483-.753839-.137683-.33537-.00019-.619801.01592-1.224447.199201-.6035969.182989-.9381639.210477-1.3104306.106436-1.5482649-.370567-2.3344085-1.745513-1.5807755-2.750309.4532597-.0209 1.3738753.28397 1.6608523.480003.2745759-.269831-.3213739-.684977-.4169629-1.0643594 0-.4735497.9648928-.7492162 1.3612088-.9276518.2610769-.1171696.5156339-.2374354.5653799-.2665778.108132-.0633803.316531-.2656658.401373-.3896298.129439-.1892431.214441-.5396875.162095-.6659563-.065694-.1586909-.507603-.2574511-1.5770079-.3525076-.403614-.0358968-.6797175-.2204189-.8924986-.5956506-.3727694-.8619284.9473876-1.6818115 1.4197956-2.1160227-.751384-.4101037-2.1480124.3093098-2.5954726.7294275-.1433373.1418424-.099521.139668-.534132.025388-.028998-.00765-.059039-.014384-.089836-.021483-.010999-.0025-.022203-.00541-.033202-.00781-.019998-.0045-.041021-.00854-.061518-.012694-.014499-.003-.028942-.00594-.043941-.00879-.016999-.003-.033677-.00671-.050777-.00976-.017998-.003-.035607-.00579-.053706-.00879-.012999-.002-.026063-.0037-.039062-.00586-.1150892-.018155-.2353241-.0337236-.3564133-.0449226-.1324382-.0121989-.2652309-.0203382-.3935195-.0234329-.038497-.001-.076851-.001-.1142474-.001-.040496-.0000849-.079457-.0000529-.118154.001-.0075.0001949-.014959.0004764-.022458.0009999-.032497.0009999-.064548.0024-.095695.0039-.005.000245-.00869.0004765-.012694.0009999-.034497.002-.067454.0047-.099601.00781-.005.000255-.00531.0004765-.00781.001-.032997.003-.063644.00752-.093742.011719h-.001c-.013499.002-.028012.0036-.041011.00586-.1432373-.0005-.2745941.040106-.3866841.091788-.3761703-.6352546-.4673777-1.7581776-.7597018-2.394341-.6837392.3583231-1.1521023 2.1193396-1.268442 2.7195112-.044496.2386638-.095445.7021136-.095695.866134-.0000455.023608-.00594.032807-.00684.049801-.9878882 1.5503732-1.5642875 3.389107-1.5642875 5.363754 0 5.522357 4.4767546 9.999111 9.9991111 9.999111 5.522357 0 9.999111-4.476754 9.999111-9.999111 0-3.4996887-1.567222-5.2977859-3.118863-7.7541933 0-.0015.000117-.0024-.0049-.0039-.22868-.3420005-.426584-.7174441-.586862-1.0897453-.025-.082073-.05467-.1494009-.06542-.1494009-.005 0-.0096.00324-.01562.00879-.201619.2437098-.299101 1.1928331-.407192 1.4891154-.780428-1.0810009-1.747945-2.1555731-2.257595-3.3532175z" fill="#ee7655"/><path d="m14.513672.0019531-.119141.1484375c-.0205.025448-.04155.051307-.0625.078125-.462659.6136754-.725478 1.3060825-1.001953 2.0507813-.105391.2857146-.217153.7176737-.279297 1.0761719-.04297.247947-.04647.6625964-.0332 1.0253906.0076-.1933958.01144-.3998191.0332-.5253906.06214-.3584982.173906-.7904573.279297-1.0761719.276475-.7446988.539294-1.4371059 1.001953-2.0507813.02095-.026818.042-.052677.0625-.078125l.119141-.1484375.0293.1464844c.50965 1.1976444 1.477384 2.2725147 2.257812 3.3535156.108091-.2962823.204631-1.2465241.40625-1.4902343.006-.00555.01063-.00781.01563-.00781.01075 0 .04141.066365.06641.1484376.160278.3723011.357258.7478432.585938 1.0898437.005.0015.0059.00241.0059.00391 1.514259 2.3972268 3.032669 4.1789303 3.105469 7.5156249.00222-.087725.013619-.17346.013619-.261726 0-3.4996887-1.5675-5.2974989-3.119141-7.7539062 0-.0015-.000842-.00241-.0059-.00391-.22868-.3420005-.42566-.7175426-.585938-1.0898437-.025-.082073-.05566-.1484376-.06641-.1484376-.005 0-.0096.00226-.01563.00781-.201619.2437102-.298159 1.193952-.40625 1.4902343-.780378-1.0809946-1.748112-2.1558649-2.257762-3.3535093l-.0293-.1464844zm-10.578125 2c-.6837392.3583231-1.1512384 2.1185784-1.2675781 2.71875-.044496.2386638-.095453.7031671-.095703.8671875-.0000455.023608-.00691.031834-.00781.048828-.9878909 1.5503733-1.5644558 3.3886344-1.5644558 5.3632814 0 .07115.01024.14014.011719.210938.05369-1.864117.6135878-3.6003403 1.5527343-5.0742192.0009-.016994.00777-.02522.00781-.048828.00025-.1640204.051207-.6285237.095703-.8671875.1163397-.6001716.5838389-2.3604269 1.2675781-2.71875.2923241.6361634.3835953 1.7592767.7597656 2.3945313.11209-.051682.2434814-.092297.3867187-.091797.012999-.00226.027517-.00386.041016-.00586h.00195c.030098-.0042.060753-.00872.09375-.011719.0025-.0005235.00281-.0017.00781-.00195.032147-.00311.065112-.00581.099609-.00781.004-.0005235.00672.0002449.011719 0 .031147-.0015.063206-.00291.095703-.00391.0075-.0005235.015937-.00176.023437-.00195.038697-.00105.076691-.0000849.1171876 0 .037396 0 .076737-.001.1152343 0 .1282886.00309.2601399.011239.3925781.023437.1210893.011199.2423327.026767.3574219.044922.012999.00216.026064.00386.039063.00586.018099.003.034736.00677.052734.00977.0171.00305.033782.00677.050781.00977.014999.00285.030423.00481.044922.00781.020497.00415.040549.00917.060547.013672.010999.0024.022204.00531.033203.00781.030797.0071.060846.013834.089844.021484.434611.11428.3918189.1164518.5351562-.025391.3656038-.343263 1.3598398-.8763157 2.1230552-.8398514.183431-.15055.355082-.2825568.472656-.390625-.751384-.4101037-2.1482427.3103511-2.5957029.7304688-.1433373.1418424-.1005452.1396706-.5351562.0253906-.028998-.00765-.059047-.014385-.089844-.021484-.010999-.0025-.022204-.00541-.033203-.00781-.019998-.0045-.04005-.00952-.060547-.013672-.014499-.003-.029923-.00496-.044922-.00781-.016999-.003-.033681-.00672-.050781-.00977-.017998-.003-.034635-.00677-.052734-.00977-.012999-.002-.026063-.0037-.039063-.00586-.115089-.0181509-.2363324-.0337187-.3574217-.0449177-.1324382-.0121989-.2642895-.0203428-.3925781-.0234375-.038497-.001-.077838 0-.1152343 0-.040496-.0000849-.078491-.00105-.1171876 0-.0075.0001949-.015938.00143-.023437.00195-.032497.0009999-.064556.00241-.095703.00391-.005.0002449-.00771-.0005235-.011719 0-.034497.002-.067462.0047-.099609.00781-.005.0002551-.00531.00143-.00781.00195-.032997.003-.063652.00752-.09375.011719h-.00195c-.013499.002-.028017.0036-.041016.00586-.1432373-.0005-.2746287.040115-.3867187.091797-.3761763-.6352506-.4674475-1.7583639-.7597716-2.3945273zm4.5703125 3.703125c-.058663.1858306-.068281.378256.015625.5722657.2127811.3752317.4889646.5598063.8925776.5957031.9211109.081875 1.3571959.1677154 1.5078129.2910156.06255-.1723566.104046-.3533696.06836-.4394531-.065695-.1586909-.506768-.256506-1.5761729-.3515625-.403613-.0358968-.6797965-.2204714-.8925776-.5957031-.010531-.02435-.00774-.04799-.015625-.072266zm.1113281 3.5019529c-.068961.081892-.1171875.169653-.1171875.267578.041875.166195.1782045.339208.296875.503907.037743.02021.093838.04193.1210938.06055.2192892-.2155-.1079023-.523398-.3007813-.832031zm-1.6132813 1.457031c-.1594669.88771.5797459 1.844338 1.8339844 2.144532.3722664.104041.7069494.07752 1.3105473-.105469.604645-.183281.887286-.199409 1.222656-.199219.329321.0002.479081.02667.753906.136719.249617.09994.535267.309594.707031.505859.0043-.0025.01116-.0011.01563-.0039.152886-.09593.197717-.13586.109375-.318359-.111541-.230405-.50391-.552221-.832031-.683594-.274825-.110045-.424585-.136519-.753906-.136719-.33537-.00019-.618011.01594-1.222656.199219-.6035979.182989-.9382809.20951-1.3105473.105469-1.0190459-.243907-1.6969877-.92235-1.8339894-1.644538zm9.0019527.716797c-.0058.145639-.0085.307495-.02148.400391-.5036 2.354775-2.169601 4.206129-4.509766 4.21875-1.300941.0049-2.9948698-.384348-3.570312-1.515625-.061433-.0075-.1076612-.0039-.171875-.01367.2685286 1.530176 2.2608051 2.034897 3.742187 2.029297 2.340165-.01262 4.006166-1.863975 4.509766-4.21875.0205-.146837.03516-.393199.03516-.632812 0-.09326-.0097-.17822-.01367-.267579z" fill="#fff" opacity=".2"/></svg>