<svg height="22" width="22" xmlns="http://www.w3.org/2000/svg" xmlns:xlink="http://www.w3.org/1999/xlink"><linearGradient id="a" gradientUnits="userSpaceOnUse" x1="11.058955" x2="11.058955" y1="-9.99744" y2="-11.99749"><stop offset="0" stop-color="#2a2c2f"/><stop offset="1" stop-color="#424649"/></linearGradient><rect fill="#4f4f4f" height="20" ry="10" width="20" x="1" y="1"/><path d="m5.4456 2.675c-2.6837 1.7895-4.4463 4.843-4.4463 8.324h8c0-.8105.48466-1.5042 1.1778-1.8184l-4.731-6.506z" fill="#fff" opacity=".1"/><path d="m16.531 19.3c2.6837-1.7896 4.4463-4.8428 4.4463-8.324h-8c0 .8105-.48466 1.5042-1.1778 1.8184l4.7314 6.506z" fill="#fff" opacity=".1"/><rect fill="#feb925" height="8" ry="4" width="8" x="7" y="7"/><rect fill="url(#a)" height="2" ry="1" transform="scale(1 -1)" width="2" x="10" y="-12"/><path d="m11.001 1c5.535 0 9.991 4.46 9.991 10 0 .08394-.004.16657-.0058.25-.132-5.423-4.534-9.75-9.985-9.75s-9.853 4.327-9.985 9.75c-.0022-.084-.0061-.166-.0061-.25 0-5.54 4.4559-10 9.9909-10z" fill="#fff" opacity=".1"/><path d="m1.0065 11.25c-.002.0835-.00585.166-.00585.25 0 5.54 4.46 10 10 10s10-4.46 10-10c0-.084-.004-.1665-.006-.25-.132 5.4235-4.538 9.75-9.994 9.75s-9.862-4.3265-9.994-9.75z" opacity=".2"/></svg>