<svg height="22" width="22" xmlns="http://www.w3.org/2000/svg"><path d="m11 1h-9c-.554 0-1 .446-1 1v9h10z" fill="#f7c73c"/><path d="m11 1h9c .554 0 1 .446 1 1v9h-10z" fill="#21d789"/><path d="m11 21h-9c-.554 0-1-.446-1-1v-9h10z" fill="#21d789"/><path d="m11 21h9c .554 0 1-.446 1-1v-9h-10z" fill="#2086e7"/><path d="m2 1c-.554 0-1 .446-1 1v .5c0-.554.446-1 1-1h18c .554 0 1 .446 1 1v-.5c0-.554-.446-1-1-1z" fill="#fff" opacity=".2"/><path d="m2 21.5c-.554 0-1-.446-1-1v-.5c0 .554.446 1 1 1h18c .554 0 1-.446 1-1v .5c0 .554-.446 1-1 1z" opacity=".2"/><path d="m4 4h14v14h-14z" fill="#3f3f3f"/><g fill="none" stroke-linecap="round"><path d="m6.5042927 14.99995h4.0000003" opacity=".2" stroke="#000"/><path d="m6.5042927 14.5h4.0000003" stroke="#fff"/><path d="m8.5042927 10.999952v-4.000001m-3 0 1.5 1.999999 1.5-1.999999m-3 4v-4" opacity=".2" stroke="#000" stroke-linejoin="round"/><path d="m8.5042927 10.500002v-4.000001m-3 0 1.5 1.999999 1.5-1.999999m-3 4.000001v-4.000001" stroke="#fff" stroke-linejoin="round"/><path d="m10.507074 8.99995s2.000002.23225 2.000002-.9999985c0-1.2322505-2.000002-1.0000005-2.000002-1.0000005m.000049 4.000049v-4" opacity=".2" stroke="#000" stroke-linejoin="bevel"/><path d="m10.507074 8.5s2.000002.23225 2.000002-.9999985c0-1.2322505-2.000002-1.0000005-2.000002-1.0000005m.000049 4.00005v-4.000001" stroke="#fff" stroke-linejoin="bevel"/><path d="m14.503232 10.49995s.252193.500484 1 .500242c.747806-.00024.999999-.500242.999999-1.000241 0-2.1071925-1.999999.105581-1.994009-1.9953525-.006-.5046485.235933-1.0046475.99401-1.0046475.758075 0 .999942.499999.999942.499999" opacity=".2" stroke="#000" stroke-linejoin="round"/><path d="m14.503232 10s .252193.500484 1 .500242c.747806-.00024.999999-.500242.999999-1.000241 0-2.1071925-1.999999.105581-1.994009-1.9953525-.006044-.5046485.235934-1.0046475.99401-1.0046475.758075 0 .999942.499999.999942.499999" stroke="#fff" stroke-linejoin="round"/></g></svg>