<svg height="22" viewBox="0 0 22 22" width="22" xmlns="http://www.w3.org/2000/svg"><path d="m8 1.5c-3.324 0-6 2.6268085-6 5.890625v3.21875c0 .0066.00193.01292.00195.01953.0038 2.160167.2086077 6.949878 1.9023438 8.878906 1.5294802 1.741953 5.0960722 1.992189 6.5371122 1.992189 2.560937 0 4.558594-1.001953 4.558594-1.001953v-1.505859s-2.40235.540213-4.226562.507812c-1.252698-.02225-2.0687694-.350468-2.6074224-1.162109-.227911-.343417-.1496455-1.281085-.265625-1.837891-.0003738-.0018.0003734-.0041 0-.0059.0335145.000577.06596.0059.0996094.0059h6c3.324 0 6-2.626808 6-5.890625v-3.21875c0-3.2638165-2.676-5.890625-6-5.890625z" opacity=".2"/><rect fill="#3088d4" height="15" rx="6" ry="5.891" width="18" x="2" y="1"/><path d="m2.0164755 9h5.283113s.025799 4.242684.600131 7c .1159795.556806.03865 1.494128.266561 1.837545.538653.811641 1.3550765 1.140205 2.6077745 1.162455 1.824213.032401 4.225945-.507221 4.225945-.507221v1.504333s-1.998023 1.002888-4.55896 1.002888c-1.44104 0-5.008138-.250829-6.5376151-1.99278-2.2095243-2.51647-1.8869494-10.00722-1.8869494-10.00722z" fill="#3088d4"/><circle cx="7" cy="7.5" opacity=".2" r="1"/><circle cx="7" cy="7" fill="#fff" r="1"/><path d="m8 1c-3.324 0-6 2.6268085-6 5.890625v.5c0-3.2638165 2.676-5.890625 6-5.890625h6c3.324 0 6 2.6268085 6 5.890625v-.5c0-3.2638165-2.676-5.890625-6-5.890625zm-.099609 15.494141c.0003734.0018-.0003738.0041 0 .0059.1159795.556806.037714 1.494474.265625 1.837891.5386526.8116 1.354724 1.139818 2.607422 1.162068 1.824212.032401 4.226562-.507812 4.226562-.507812v-.5s-2.402351.540213-4.226562.507812c-1.252699-.02225-2.0687694-.350468-2.6074224-1.162109-.1712751-.258078-.1828712-.826359-.2207031-1.341797-.014875-.0013-.029821-.0017-.044922-.002z" fill="#fff" opacity=".2"/></svg>