<svg height="22" viewBox="0 0 22 22" width="22" xmlns="http://www.w3.org/2000/svg"><g transform="translate(-1 -1)"><rect height="20" opacity=".2" rx="10" transform="matrix(0 -1 -1 0 0 0)" width="20" x="-22.5" y="-22"/><rect fill="#3c5873" height="20" rx="10" transform="matrix(0 -1 -1 0 0 0)" width="20" x="-22" y="-22"/><path d="m12 2.0018c-5.5395 0-9.9991 4.4596-9.9991 9.9991 0 .08399-.002.16648 0 .24998.1322-5.4226 4.5436-9.7492 9.9991-9.7492s9.8671 4.3266 9.9991 9.7491c.002-.08349 0-.16598 0-.24998 0-5.5395-4.4596-9.9991-9.9991-9.9991z" fill="#fff" opacity=".1"/><path d="m16 18.5c-.37949-.65722-.43411-1.6495-1.0003-1.9994.42026-.27106.56026-.45002.47458-.93579 0 0-.04392-.17543.26044-.41032 1.2498-1.2542 3.0975-2.7129 3.7646-4.2017 0-.38404-.21834-.46745-.79389-.45166-.27958.0077-1.2115-.01003-2.071 0-1.5531.01813-2.1309 0-2.1309 0s-1.6232-.03028-2.118.36096c-1.2515.98954-1.8144.9287-2.8622 1.2778-.97629.32529-1.023-.1389-1.023 2.1825-.21185 1.3142-.54465 2.8819-1.4404 4.0496-.10896.14354-.082853.21004.20414.51996.56767.61304 3.1028.60802 4.7359.60802s3 0 4-1z" opacity=".2"/><path d="m16 18c-.37949-.65722-.43411-1.6495-1.0003-1.9994.42026-.27106.56026-.45002.47458-.93579 0 0-.04392-.17543.26044-.41032 1.2498-1.2542 3.0975-2.7129 3.7646-4.2017 0-.38404-.21834-.46745-.79389-.45166-.27958.0077-1.2115-.010034-2.071 0-1.5531.01813-2.1309 0-2.1309 0s-1.6232-.030282-2.118.36096c-1.2515.98954-1.8144.9287-2.8622 1.2778-.97629.32529-1.023-.1389-1.023 2.1825-.21185 1.3142-.54465 2.8819-1.4404 4.0496-.10896.14354-.082853.21004.20414.51996.5677.613 3.103.608 4.736.608 1.6331 0 3 0 4-1z" fill="#d2943b"/><path d="m13.614 16.33c-.427-.19-.976-.708-1.401-1.321-.238-.343-.262-.425-.145-.499.08692-.05528.35095.11885.70016.46178.62985.61852 1.2258.98905 1.6236 1.0095.14702.0076.36085.05959.47517.11565.19668.09642.18997.11048-.12472.26114-.40981.19621-.64.19056-1.1283-.02768z" opacity=".2"/><path d="m13.614 15.83c-.427-.19-.976-.708-1.401-1.321-.238-.343-.262-.425-.145-.499.08692-.05528.35095.11885.70016.46178.62985.61852 1.2258.98905 1.6236 1.0095.14702.0076.36085.05959.47517.11565.19668.09642.18997.11048-.12472.26114-.40981.19621-.64.19056-1.1283-.02768z" fill="#fff"/><path d="m10.25 7.5001c-1.7951 0-3.25 1.455-3.25 3.2499 0 .77222.27077 1.4803.72064 2.0379.099131.25403.17661.46436.17381.52046-.00953.19139.13328.34716 1.3466-.08691 1.2797-.45781 1.8425-.78744 3.1882-1.868.50344-.40425 1.1187-.78615 1.6815-1.0439.48802-.22346.88859-.2616.88859-.30954 0-.49996-.64341-.45362-.99991-.49996h-.75872c-.49-1.1723-1.64-2-2.99-2z" opacity=".2"/><path d="m10.25 7.0014c-1.7951 0-3.25 1.4549-3.25 3.2496 0 .77222.27077 1.4803.72064 2.0379.099131.25403.17661.46436.17381.52046-.00953.19139.13328.34716 1.3466-.08691 1.2797-.45781 1.8425-.78744 3.1882-1.868.50344-.40425 1.1187-.78615 1.6815-1.0439.48802-.22346.88859-.26159.88859-.30954 0-.49996-.64341-.45362-.99991-.49996h-.75872c-.49-1.172-1.64-1.9997-2.99-1.9997z" fill="#ffd548"/><circle cx="19" cy="10.5" opacity=".2" r="1"/><circle cx="19" cy="10" fill="#efc286" r="1"/></g></svg>