<svg height="22" width="22" xmlns="http://www.w3.org/2000/svg"><path d="m11 2c-2.2793 0-4.3588.7085-5.8923 1.899-1.5336 1.1906-2.6077 2.8946-2.6077 4.7894v.68489c-1.5226.76858-2.4998 2.7844-2.4998 5.1474 0 3.0245 1.7739 5.4792 3.9998 5.4792v-11.312c0-1.4187.6912-2.7242 1.9572-3.707 1.266-.9831 3.0534-1.481 5.0428-1.481 1.9895 0 3.777.49795 5.0429 1.481 1.266.9828 1.951 2.2883 1.957 3.7074v10.315h-.5v-9.7907c-.3435 0-.828.17135-1 .3422v9.4485h-2.5v-1.4943c0-.828-.169-1.509-1-1.509h-3c-.8309 0-1 .681-1 1.509v.99621c0 .82785.16915 1.4943 1.0001 1.4943h8.0499c2.225-.001 3.95-2.455 3.95-5.478 0-2.363-.978-4.379-2.5-5.1477v-.68489c0-1.8948-1.074-3.5988-2.607-4.7894-1.534-1.1905-3.613-1.899-5.893-1.899zm-6.5 7.213v10.787c.3435 0 .828-.17135 1-.51355v-9.9312c-.172-.1704-.6565-.3418-1-.3418z" fill="#4f4f4f"/><path d="m11 2c-2.2795 0-4.3591.7079-5.8926 1.8984-1.5336 1.1906-2.6074 2.8943-2.6074 4.7891v.5c0-1.8948 1.0738-3.5985 2.6074-4.7891 1.5335-1.1905 3.6131-1.8984 5.8926-1.8984s4.3591.70792 5.8926 1.8984c1.533 1.1906 2.607 2.8943 2.607 4.7891v-.5c0-1.8948-1.074-3.5985-2.607-4.7891-1.534-1.1905-3.614-1.8984-5.893-1.8984zm-6.5 7.2129v.5c.3435 0 .828.17095 1 .3418v-.5c-.172-.1712-.6565-.3421-1-.3421zm13 0c-.3435 0-.828.17095-1 .3418v.5c.172-.17085.6565-.3418 1-.3418zm-15 .1601c-1.5226.769-2.5 2.785-2.5 5.148 0 .07094.01369.13674.015625.20703.078148-2.233 1.026-4.119 2.4844-4.855v-.5zm17 0v .5c1.4592.73662 2.4072 2.6238 2.4844 4.8594.002-.071.016-.138.016-.211 0-2.363-.978-4.379-2.5-5.148zm-9.5 6.627c-.83099 0-1 .68192-1 1.5098v.5c0-.828.169-1.51 1-1.51h3c .83099 0 1 .68192 1 1.5098v-.5c0-.828-.169-1.51-1-1.51h-3zm4 3.0039v.50005h2.5v-.5h-2.5zm3.5 0v .5h.5v-.5z" fill="#fff" opacity=".1"/><path d="m11 3.5c-1.9895 0-3.777.4974-5.043 1.4805-1.266.9827-1.957 2.2879-1.957 3.707v.5c0-1.4191.691-2.7243 1.957-3.707 1.266-.9831 3.0535-1.4805 5.043-1.4805 1.989 0 3.777.4974 5.043 1.4805 1.266.9827 1.951 2.2879 1.957 3.707v-.5c-.006-1.4191-.691-2.7243-1.957-3.707-1.266-.9831-3.054-1.4805-5.043-1.4805zm-10.984 11.229c-.003438.098-.015625.193-.015625.292 0 3.025 1.7742 5.479 4 5.479v-.5c-2.1736 0-3.9038-2.345-3.9844-5.271zm21.969.0039c-.081 2.922-1.763 5.265-3.934 5.267h-8.051c-.831 0-1-.666-1-1.494v.5c0 .828.169 1.494 1 1.494h8.0508c2.224-.002 3.949-2.456 3.949-5.479 0-.098-.012-.192-.016-.289zm-16.485 4.753c-.172.343-.6565.514-1 .514v.5c.3435 0 .828-.17147 1-.51367v-.5z" opacity=".2"/></svg>