<svg height="22" width="22" xmlns="http://www.w3.org/2000/svg"><path d="m21 11a10 10 0 0 1 -10 10 10 10 0 0 1 -10-10 10 10 0 0 1 10-10 10 10 0 0 1 10 10z" fill="#4f4f4f"/><path d="m11 1a10 10 0 0 0 -10 10 10 10 0 0 0  .01075.291 10 10 0 0 1 9.989-9.791 10 10 0 0 1 9.989 9.709 10 10 0 0 0  .011-.209 10 10 0 0 0 -10-10z" fill="#fff" opacity=".1"/><path d="m20.99 11.209a10 10 0 0 1 -9.99 9.791 10 10 0 0 1 -9.989-9.709 10 10 0 0 0 -.011.209 10 10 0 0 0 10 10 10 10 0 0 0 10-10 10 10 0 0 0 -.0105-.291z" opacity=".2"/><path d="m9.0182 4.5c-.03925.00105-.081246.013485-.1213.04255-.04005.029065-.072914.082287-.080865.12764-.015905.090714.0035.13413.04043.21274.17009.32251.33824.57413.40433.76586.11354.26587.11192.51295.080866.68077l-.2022 1.0211c-1.0207.2487-2.0059.5001-2.992.851-.192.0646-.3382.1296-.4852.2127-.013385-.0023-.027045-.0023-.04043 0-.051666.03238-.054082.080056-.080866.12764-.01339.023795-.036725.051519-.040435.085097-.0037.033575.01142.088397.040435.12764.086118.12486.20189.17647.3639.25529.16201.078815.3481.16009.4852.21274.68585.26339 1.5678.47632 2.2642.55312-.18753.8903-.36873 1.7704-.64693 2.638-.067728.21122-.15407.43122-.2426.63822-.25427.59455-.57676 1.1373-.88953 1.6594-.33037.48745-.60876.96262-.97039 1.4041-.067461.07517-.17635.13955-.2426.21274-.033125.03659-.056747.09519-.080865.12764-.01206.01623-.030115.02285-.04043.04255-.01032.0197-.00395.03003 0 .0851-.0022.01408-.0022.02846 0 .04255.01016.01729.024.03185.04043.04255.01016.01729.024.03186.040435.04255.013385.0023.027045.0023.04043 0 .072233.01157.13202-.01955.20217-.04255.070142-.023.1184-.04374.20217-.0851.16754-.08272.38365-.17641.56606-.29784.26206-.17444.45539-.35182.6065-.46803.26629-.20479.86598-.79221 1.1726-1.1913.35225-.4218.7273-.87434 1.0108-1.4466.00544-.01098-.0054-.03148 0-.04255.019335-.0351.13135-.26061.16173-.34038.060769-.15955.10142-.31786.1213-.38293l.8894-2.8508 3.113-.7659c-.07723.68744-.16387 1.3534-.2426 2.0423-.06.56794-.10097.79664-.16173 1.4041-.0018.01815.0019.02368 0 .04255-.03448.18721-.13478.71312-.16173.85096-.20666 1.0568-.42868 2.0151-.88953 2.8507-.11026.163-.23781.33441-.3639.46803-.12752-.0651-.30642-.15579-.56606-.17019-.0045-.0006-.02796.00055-.04043 0-.01338-.0023-.02704-.0023-.04043 0-.00055.000175-.04016.04225-.04044.04255-.01643.01069-.03027.02526-.04043.04255-.01715.09663.01374.17133.04043.25529.0267.08396.04846.17808.08087.25529.23377.55684.50809 1.0368.76823 1.5317.01016.01729.024.03186.04044.04255.01016.01729.024.03186.04043.04255.01338.0023.02705.0023.04044 0 .01338.0023.02704.0023.04043 0 .01643-.01075.03027-.02525.04043-.04255.38842-.38741.84452-1.0112 1.1726-1.5317.6452-1.0184 1.1907-2.1568 1.5769-3.4464.0577-.2006.10472-.40364.16173-.63822l1.213-4.893c.05129-.21624.11058-.45657.1213-.63822.0022-.014085.0022-.02846 0-.04255-.0251-.062991-.07999-.095868-.1213-.12764-.0413-.03178-.06909-.057673-.1213-.085097-.105-.0545-.243-.1216-.364-.1698-.582-.2062-1.214-.3918-1.901-.5531-.073-.0336-.123-.0471-.202-.0426-.07875.0045-.19525.025285-.28303.04255-.17556.03452-.35636.098897-.4852.12764l-1.617.3829c.069-.2262.18-.5597.081-.9786-.138-.4754-.495-.7527-.89-.8935-.337-.1198-.6655-.2265-1.0107-.3404-.0559-.0184-.31-.1129-.5661-.1276z" opacity=".2"/><path d="m9.0182 4c-.03925.00105-.081246.013485-.1213.04255-.04005.029065-.072914.082287-.080865.12764-.015905.090714.0035.13413.04043.21274.17009.32251.33824.57413.40433.76586.11354.26587.11192.51295.080866.68077l-.2022 1.0211c-1.0207.2487-2.0059.5001-2.992.851-.192.0646-.3382.1296-.4852.2127-.013385-.0023-.027045-.0023-.04043 0-.051666.03238-.054082.080056-.080866.12764-.01339.023795-.036725.051519-.040435.085097-.0037.033575.01142.088397.040435.12764.086118.12486.20189.17647.3639.25529.16201.078815.3481.16009.4852.21274.68585.26339 1.5678.47632 2.2642.55312-.18753.8903-.36873 1.7704-.64693 2.638-.067728.21122-.15407.43122-.2426.63822-.25427.59455-.57676 1.1373-.88953 1.6594-.33037.48745-.60876.96262-.97039 1.4041-.067461.07517-.17635.13955-.2426.21274-.033125.03659-.056747.09519-.080865.12764-.01206.01623-.030115.02285-.04043.04255-.01032.0197-.00395.03003 0 .0851-.0022.01408-.0022.02846 0 .04255.01016.01729.024.03186.04043.04255.01016.01729.024.03186.040435.04255.013385.0023.027045.0023.04043 0 .072233.01158.13202-.01955.20217-.04255.070142-.02299.1184-.04373.20217-.0851.16754-.08272.38365-.17641.56606-.29784.26206-.17444.45539-.35182.6065-.46803.26629-.20479.86598-.79221 1.1726-1.1913.35225-.4218.7273-.87434 1.0108-1.4466.00544-.01098-.0054-.03148 0-.04255.019335-.0351.13135-.26061.16173-.34038.060769-.15955.10142-.31786.1213-.38293l.8894-2.8508 3.113-.7659c-.07723.68744-.16387 1.3534-.2426 2.0423-.06.56794-.10097.79663-.16173 1.4041-.0018.01815.0019.02368 0 .04255-.03448.18721-.13478.71312-.16173.85096-.20666 1.0568-.42868 2.0151-.88953 2.8507-.11026.163-.23781.33441-.3639.46803-.12752-.0651-.30642-.15579-.56606-.17019-.0045-.0006-.02796.00055-.04043 0-.01338-.0023-.02704-.0023-.04043 0-.00055.000174-.04016.04225-.04044.04255-.01643.01068-.03027.02525-.04043.04255-.01715.09663.01374.17133.04043.25529.0267.08396.04846.17809.08087.25529.23377.55684.50809 1.0368.76823 1.5317.01016.01729.024.03186.04044.04255.01016.01729.024.03186.04043.04255.01338.0023.02705.0023.04044 0 .01338.0023.02704.0023.04043 0 .01643-.01075.03027-.02526.04043-.04255.38842-.38741.84452-1.0112 1.1726-1.5317.6452-1.0184 1.1907-2.1568 1.5769-3.4464.0577-.2006.10472-.40364.16173-.63822l1.213-4.893c.05129-.21624.11058-.45657.1213-.63822.0022-.014085.0022-.02846 0-.04255-.025-.0626-.08-.0954-.121-.1272s-.069-.0577-.121-.0851c-.105-.0549-.243-.122-.364-.1702-.582-.2062-1.214-.3918-1.901-.5531-.07339-.033585-.12342-.047035-.20216-.04255-.07875.0045-.19525.025285-.28303.04255-.17556.03452-.35636.098897-.4852.12764l-1.6173.38293c.06883-.22626.18057-.55975.08087-.9786-.138-.4754-.495-.7527-.89-.8935-.337-.1198-.6655-.2265-1.0107-.3404-.0559-.0184-.31-.1129-.5661-.1276z" fill="#b7b7b7"/></svg>