<svg height="22" width="22" xmlns="http://www.w3.org/2000/svg"><rect fill="#f2ad19" height="20" rx="1" transform="matrix(0 -1 -1 0 0 0)" width="20" x="-21" y="-21"/><path d="m1 2.5v-.5c0-.554.446-1 1-1h18c .554 0 1 .446 1 1v .5c0-.554-.446-1-1-1h-18c-.554 0-1 .446-1 1z" fill="#fff" opacity=".2"/><path d="m1 20v .5c0 .554.446 1 1 1h18c .554 0 1-.446 1-1v-.5c0 .554-.446 1-1 1h-18c-.554 0-1-.446-1-1z" opacity=".2"/><path d="m5.4824 4.499c-.3126-.0013-.6386.001-.9824.001h-1.5v14h3v-10.974c.5762.0216 1.0462.0562 1.3125.1234.4666.1178.4317.0738.627.5176.3905.8877.5605 4.083.5605 10.333h3c0-.96746.0036-1.7315.0068-2.5547h2.4932v2.5h3v-2.5h2.5v-3h-2.5v-2.5h-3v2.5h-2.4971c-.03-2.753-.184-4.5465-.817-5.987-.493-1.1187-1.5588-1.944-2.6391-2.2168-.6552-.1654-1.3228-.215-2.0469-.2314v-.0098h-.4727c-.01551-.0000815-.029345-.0009-.04492-.001z" opacity=".2"/><g transform="matrix(.5 0 0 .5 -1 -1)"><path d="m8 10h6v28h-6z" fill="#fff"/><path d="m11 13c11 0 11 0 11 25" fill="none" stroke="#fff" stroke-width="6"/><path d="m30 21.891v5h-5v6h5v5h6v-5h5v-6h-5v-5z" fill="#fff"/></g></svg>