<svg height="22" width="22" xmlns="http://www.w3.org/2000/svg"><g transform="translate(-1 -1)"><rect height="21" opacity=".2" rx="1" ry="1.05" transform="matrix(0 -1 -1 0 0 0)" width="20" x="-22.5" y="-23"/><rect fill="#4f4f4f" height="21" rx="1" ry="1.05" transform="matrix(0 -1 -1 0 0 0)" width="20" x="-22" y="-23"/><g opacity=".2" transform="translate(1 .5)"><path d="m2 19h3v2h-3z"/><path d="m2 16h3v2h-3z"/><path d="m2 13h3v2h-3z"/><path d="m2 10h3v2h-3z"/><path d="m2 7h3v2h-3z"/><path d="m6 19h3v2h-3z"/><path d="m6 16h3v2h-3z"/><path d="m6 13h3v2h-3z"/><path d="m10 19h3v2h-3z"/><path d="m10 16h3v2h-3z"/><path d="m10 13h3v2h-3z"/><path d="m10 10h3v2h-3z"/><path d="m10 7h3v2h-3z"/><path d="m10 4h3v2h-3z"/><path d="m14 19h3v2h-3z"/><path d="m14 16h3v2h-3z"/><path d="m14 13h3v2h-3z"/><path d="m14 10h3v2h-3z"/><path d="m14 7h3v2h-3z"/><path d="m18 19h3v2h-3z"/><path d="m18 16h3v2h-3z"/><path d="m18 13h3v2h-3z"/><path d="m18 10h3v2h-3z"/><path d="m18 7h3v2h-3z"/><path d="m18 4h3v2h-3z"/></g><g transform="translate(1)"><g fill="#933333"><path d="m2 19h3v2h-3z"/><path d="m2 16h3v2h-3z"/><path d="m2 13h3v2h-3z"/></g><path d="m2 10h3v2h-3z" fill="#f88383"/><path d="m2 7h3v2h-3z" fill="#f88383"/><g fill="#e8aa34"><path d="m6 19h3v2h-3z"/><path d="m6 16h3v2h-3z"/><path d="m6 13h3v2h-3z"/></g><g fill="#76185e"><path d="m10 19h3v2h-3z"/><path d="m10 16h3v2h-3z"/><path d="m10 13h3v2h-3z"/></g><g fill="#e272c5"><path d="m10 10h3v2h-3z"/><path d="m10 7h3v2h-3z"/><path d="m10 4h3v2h-3z"/></g><g fill="#4ab225"><path d="m14 19h3v2h-3z"/><path d="m14 16h3v2h-3z"/><path d="m14 13h3v2h-3z"/></g><path d="m14 10h3v2h-3z" fill="#98e97b"/><path d="m14 7h3v2h-3z" fill="#98e97b"/><g fill="#0f3b95"><path d="m18 19h3v2h-3z"/><path d="m18 16h3v2h-3z"/><path d="m18 13h3v2h-3z"/></g><g fill="#4fc2e1"><path d="m18 10h3v2h-3z"/><path d="m18 7h3v2h-3z"/><path d="m18 4h3v2h-3z"/></g></g><path d="m3.0498047 2c-.5817 0-1.0498047.446-1.0498047 1v .5c0-.554.4681047-1 1.0498047-1h18.9003903c.5817 0 1.049805.446 1.049805 1v-.5c0-.554-.468105-1-1.049805-1z" fill="#fff" opacity=".1"/></g></svg>