<svg height="22" width="22" xmlns="http://www.w3.org/2000/svg"><g transform="translate(-1 -1)"><path d="m12 4c-2.8475 0-5.2725 1.729-6.3165 4.176-2.65065.391-4.6835 2.632-4.6835 5.3695 0 3.0125 2.46245 5.4545 5.5 5.4545h11.6875c2.658 0 4.8125-2.137 4.8125-4.7725 0-2.45-1.8575-4.4575-4.254-4.7305-.625-3.127-3.409-5.497-6.746-5.497z" fill="#e4e4e4"/><path d="m12 4c-2.8475 0-5.2725 1.7285-6.3165 4.176-2.65065.3905-4.6835 2.6325-4.6835 5.37 0 .0805.00825.1585.0117.238.12535-2.617 2.1065-4.73 4.6718-5.108 1.044-2.4475 3.469-4.176 6.3165-4.176 3.337 0 6.121 2.3695 6.746 5.497 2.312.263 4.117 2.142 4.2425 4.4735.004-.081.0115-.161.0115-.243 0-2.45-1.8575-4.4575-4.254-4.7305-.625-3.1275-3.409-5.497-6.746-5.497z" fill="#fff" opacity=".2"/><path d="m1.0117 13.784c-.00415.0875-.0117.1735-.0117.262 0 3.0125 2.46245 5.454 5.5 5.454h11.6875c2.658 0 4.8125-2.1365 4.8125-4.7725 0-.0865-.007-.1715-.0115-.257-.129 2.522-2.226 4.5295-4.801 4.5295h-11.6875c-2.95645 0-5.3615-2.315-5.4885-5.216z" opacity=".2"/><path d="m13.0125 7.9935758s2 1 2 4.0000002c0 3-2 3.999999-2 3.999999" style="opacity:.5;fill:none;stroke:#000;stroke-width:2;stroke-linecap:round;stroke-linejoin:round"/><path d="m9.0127495 8.9935758s1.9997505 1.0000005 2.0000005 3.0000002c.000249 2-2.0000005 3-2.0000005 3" style="opacity:.5;fill:none;stroke:#000;stroke-width:2;stroke-linecap:round;stroke-linejoin:round"/></g></svg>