<svg height="22" width="22" xmlns="http://www.w3.org/2000/svg"><path d="m9.0330723 4.5c-.9305988-.0119421-1.8691728.6008656-2.0156249 1.7753906-3.0743631.8622563-5.3144531 2.8535154-5.3144531 2.8535154-.67129.572028-.8886928 1.516223-.5351562 2.324219 0 0 1.8224817 3.894386 5.8496093 5.28125.1188196 1.006177.971207 1.7646 1.9843749 1.765625h8.9980467c1.104524-.00011 1.99989-.895476 2-2v-10c-.00011-1.1045238-.895476-1.9998896-2-2zm1.9394527 1.6835938.0098.00781c-.0025-.000642-.0053-.00131-.0078-.00195-.000359-.00212-.0016-.00374-.002-.00586z" opacity=".2"/><path d="m9.0330723 4c-.9305988-.0119421-1.8691728.6008656-2.0156249 1.7753906-3.0743631.8622563-5.3144531 2.8535157-5.3144531 2.8535156-.67129.5720278-.8886928 1.5162228-.5351562 2.3242188 0 0 1.8224817 3.894386 5.8496093 5.28125.1188196 1.006177.971207 1.7646 1.9843749 1.765625h8.9980467c1.104524-.00011 1.99989-.895476 2-2v-10c-.00011-1.1045238-.895476-1.9998896-2-2zm1.9394527 1.6835938.0098.00781c-.0025-.000642-.0053-.00131-.0078-.00195-.000359-.00212-.0016-.00374-.002-.00586z" fill="#4ca341"/><path d="m4.5324693 10.305s1.76084-2.016 4.46864-2.2245v-.7314c-2.9996.2425-6.00124 2.8019-6.00124 2.8019s1.87564 4.2844 6.00114 4.6768v-.7774c-3.0275-.384-4.46854-3.746-4.46854-3.746zm4.46864 2.1993v.71195c-2.2882-.411-3.32794-2.807-3.32794-2.807s1.50324-1.2262 3.32784-1.425v.78125c-.0012 0-.0019-.000405-.0029-.000405-.95765-.11578-2.11044.78555-2.11044.78555s.82395 1.5174 2.11384 1.954m0-6.504v1.349c.08805-.00674-.22855-.0125-.14002-.01554 3.4097997-.11578 5.6314997 2.8176 5.6314997 2.8176s-2.5517 3.1262-5.2099997 3.1262c-.24364 0-.0671-.02278-.28136-.06101v.8342c.1832.0234-.03149.03722.16671.03722 2.4737997 0 4.2628997-1.2729 5.9949997-2.7794.28722.23176 1.463.79555 1.7048 1.0424-1.6471 1.3894-5.486 2.5094-7.6619997 2.5094-.20977 0-.0066-.01279-.20461-.03204v1.1722h8.9983597v-10h-8.9983597zm0 2.9838v-.9034c.08714-.00521-.2297-.01083-.14002-.013715 2.4519997-.0776 4.0605997 2.123 4.0605997 2.123s-1.7375 2.4312-3.6003997 2.4312c-.26811 0-.10386-.0434-.32021-.1167v-2.7392c.95455.11621.74206.54105 1.3159597 1.5049l1.2764-1.0844s-.9317-1.2312-2.5023997-1.2312c-.1707 0 .07054.0121-.08986.0293" fill="#262626"/><path d="m9.0330723 4c-.9305987-.0119421-1.8691728.6008656-2.0156249 1.7753906-3.0743631.8622563-5.3144531 2.8535157-5.3144531 2.8535156-.5410351.4610338-.7798369 1.1634088-.6699219 1.8417968.047007-.50748.2626656-.99476.6699219-1.341797 0 0 2.24009-1.9912591 5.3144531-2.8535154.1464521-1.174525 1.0850262-1.7873327 2.0156249-1.7753906h8.9667967c1.104524.0001104 1.99989.8954762 2 2v-.5c-.00011-1.1045238-.895476-1.9998896-2-2zm1.9394527 2.1835938c.0004.00212.0016.00374.002.00586.0025.00064.0053.00131.0078.00195z" fill="#fff" opacity=".2"/></svg>