<svg height="22" width="22" xmlns="http://www.w3.org/2000/svg"><rect fill="#c2352a" height="20" rx="1" transform="matrix(0 -1 -1 0 0 0)" width="20" x="-21" y="-21"/><path d="m9.0102 4.6149c-.1044.0921-.1305.2303-.1305.3915 0 .29934.10442.66775.15664.8059 0 0 .07832 1.6118.10442 1.796-.23496.02305-.65265.04605-.8093.092105h-.20885c-.4438.0231-.8615.0461-1.0443.2073l-.0783.0691.0783.0921c.13053.13816.18274.5296.23496.9441.13053.852.28716 1.9112 1.0704 2.3256l.15664.06908v-.16118s.02615-.06908.02615-.16118c0-.06908-.02615-.18421-.0522-.3454.20884.02305.65265.06908.8093.06908.02615.18421.70485 7.691.70485 7.691h.26106s.28717-7.4145.28717-7.6445c.18274 0 .99205.02305 1.227.04605-.0522.13816-.26106.7138-.26106.7138l.36548-.29934c.10442-.06908 2.3756-1.8882 2.0624-3.0856-.10443-.39144-.46991-.66775-1.0704-.8059h-.0523c-.33938 0-1.3836.02305-2.1668.06908.02615-.5987.02615-.92105.02615-1.0822v-.20721c0-.11514.13053-.27632.23496-.39145.10443-.13816.23496-.25329.23496-.39144 0-.04605-.02615-.09211-.0522-.13816-.15664-.20724-1.3053-.73685-1.8013-.7829-.15664.02305-.26106.04605-.31328.11513zm.02615 3.7763h.13053c0 .20724.07832 1.6579.10442 1.8652-.20885-.02305-.70485-.06908-.8615-.06908-.0783-.299-.1044-.6214-.1305-.9438-.0261-.2763-.0522-.5527-.1045-.8059.23496 0 .8615-.04605.8615-.04605zm1.5925.7138s.02605-.55265.02605-.73685c.33938.04605.7832.06908 1.2009.06908h.46992c0 .092105-.02615.20724-.02615.20724-.0522.5066-.13053 1.1052-.36549 1.704-.15663 0-1.1226-.04605-1.3314-.06908 0-.16118.02615-1.1744.02615-1.1744z" opacity=".2"/><path d="m9.0102 4.115c-.1044.0921-.1305.2303-.1305.3914 0 .29934.10442.66775.15664.8059 0 0 .07832 1.6118.10442 1.796-.23496.02305-.65265.04605-.8093.092105h-.20885c-.44381.02305-.8615.04605-1.0442.20724l-.0784.0692.0783.0921c.13053.13816.18274.5296.23496.9441.13053.852.28716 1.9112 1.0704 2.3256l.15664.06908v-.16118s.02615-.06908.02615-.16118c0-.06908-.02615-.18421-.0522-.3454.20884.02305.65265.06908.8093.06908.02615.18421.70485 7.691.70485 7.691h.26106s.28717-7.4145.28717-7.6445c.18274 0 .99205.02305 1.227.04605-.0522.13816-.26106.7138-.26106.7138l.36548-.29934c.10442-.06908 2.3756-1.8882 2.0624-3.0856-.10443-.39144-.46991-.66775-1.0704-.8059h-.0523c-.33938 0-1.3836.02305-2.1668.06908.02615-.5987.02615-.92105.02615-1.0822v-.20721c0-.11514.13053-.27632.23496-.39145.10443-.13816.23496-.25329.23496-.39144 0-.04605-.02615-.09211-.0522-.13816-.156-.2072-1.3045-.7368-1.8005-.7829-.1566.0231-.261.0461-.3132.1151zm.02615 3.7763h.13053c0 .20724.07832 1.6579.10442 1.8652-.2089-.0231-.7049-.0691-.8615-.0691-.0783-.2994-.1044-.6217-.1305-.9441-.0261-.2763-.0522-.5527-.1045-.8059.23496 0 .8615-.04605.8615-.04605zm1.5925.7138s.02605-.55265.02605-.73685c.33938.04605.7832.06908 1.2009.06908h.46992c0 .092105-.02615.20724-.02615.20724-.0522.5066-.13053 1.1052-.36549 1.704-.15663 0-1.1226-.04605-1.3314-.06908 0-.16118.02615-1.1744.02615-1.1744z" fill="#fff"/><path d="m2 1c-.554 0-1 .446-1 1v .5c0-.554.446-1 1-1h18c .554 0 1 .446 1 1v-.5c0-.554-.446-1-1-1z" fill="#fff" opacity=".2"/><path d="m2 21.5c-.554 0-1-.446-1-1v-.5c0 .554.446 1 1 1h18c .554 0 1-.446 1-1v .5c0 .554-.446 1-1 1z" opacity=".2"/></svg>