<svg height="22" width="22" xmlns="http://www.w3.org/2000/svg"><path d="m38.0578 4.1033393-20.231418 4.2133783c-3.540675.425971-3.826722 3.6829394-3.826382 3.6786264v14.270656c-.653-.173-1.325-.262-2-.266-4.4183 0-8 3.5817-8 8s3.5817 8 8 8c4.0287-.0038 7.4261-3.0029 7.9297-7 0 0 .07031-.72732.07031-1v-20.07l16-3.458025v11.793682c-.653-.173-1.325-.262-2-.266-4.4183 0-8 3.5817-8 8s-.41865 6 3.99965 6c4.0287-.0038 7.4261-3.0029 7.9297-7l .07-1 4.00035-2.337099v-18.3656105s.0273-3.9023963-3.94191-3.1936082z" opacity=".2" transform="matrix(.5 0 0 .5 -.99983 -.5)"/><path d="m38.0578 4.1033393-20.231418 4.2133783c-3.540675.425971-3.826722 3.6829394-3.826382 3.6786264v14.270656c-.653-.173-1.325-.262-2-.266-4.4183 0-8 3.5817-8 8s3.5817 8 8 8c4.0287-.0038 7.4261-3.0029 7.9297-7 0 0 .07031-.72732.07031-1v-20.07l16-3.458025v11.793682c-.653-.173-1.325-.262-2-.266-4.4183 0-8 3.5817-8 8s-.41865 6 3.99965 6c4.0287-.0038 7.4261-3.0029 7.9297-7l .07-1 4.00035-.952234v-19.7504755s.0273-3.9023963-3.94191-3.1936082z" fill="#eb743b" transform="matrix(.5 0 0 .5 -.99983 -.999829)"/><path d="m19.683594 3.0195312c-.18956-.019436-.406221-.011096-.654297.033203l-10.1152345 2.1054689c-1.7703375.2129855-1.9142325 1.8420003-1.9140625 1.8398438v.5c-.00017.0021565.143725-1.6268583 1.9140625-1.8398438l10.1152345-2.1074219c1.984605-.354394 1.970703 1.5976563 1.970703 1.5976563v-.5s.01051-1.4928511-1.316406-1.6289063zm-2.683594 8.9804688c-2.20915 0-4 1.79085-4 4 0 .08558.02009.165752.02539.25.131402-2.090432 1.851043-3.75 3.97461-3.75.3375.002.6735.04631 1 .132812v-.5c-.3265-.086499-.6625-.130812-1-.132812zm-11 2c-2.20915 0-4 1.79085-4 4 0 .08558.020095.165752.025391.25.1314005-2.090432 1.8510424-3.75 3.974609-3.75.3375.002.6735.04631 1 .132812v-.5c-.3265-.086499-.6625-.130812-1-.132812z" fill="#fff" opacity=".2" transform="translate(-1 -2.000001)"/><path d="m21.04 8.7190384c-1.25-2.165-6.33-1.5189-7.446-.8971l-9.0932 5.2494996c-.47976.27699-.64297.88621-.36601 1.366l3.4998 6.0617c.27699.47976.88621.64302 1.3659.36601l9.0931-5.2498c.70682-.42342 4.196-4.7318 2.946-6.8966996zm-1.732.99995a.99995.99995 0 0 1 -.36601 1.3658996.99995.99995 0 0 1 -1.366-.36601.99995.99995 0 0 1  .36601-1.3659996.99995.99995 0 0 1 1.366.36601z" fill="#771b85"/><path d="m19.307 10.219438a.99995.99995 0 0 0 -1.366-.3664996.99995.99995 0 0 0 -.36601 1.3659996.99995.99995 0 0 0 1.366.36601.99995.99995 0 0 0  .36601-1.3659zm-.43299.24999c.14102.24426.06126.54198-.18301.68297-.24426.14102-.54197.06126-.68297-.183-.14102-.24426-.06126-.54198.183-.68297.24426-.14102.54197-.06126.68297.18301z" opacity=".2"/><g fill="#fff"><path d="m19.307 9.7190384a.99995.99995 0 0 0 -1.366-.3661.99995.99995 0 0 0 -.366 1.3664996.99995.99995 0 0 0 1.366.366.99995.99995 0 0 0  .366-1.3663996zm-.433.2499c.14102.2442596.06126.5419696-.18301.6829696-.24426.14102-.54197.06126-.68297-.183-.14102-.24426-.06126-.5419696.183-.6829696.24426-.14102.54197-.06126.68297.18301z"/><path d="m5.5008 14.803438.5.866.866-.5 1.9999 3.464.866-.5-1.9999-3.464.866-.5-.5-.866-.866.5-.866.5zm3.4639-1.9999.49998.86596.49998.86601.49998.86601.99995 1.732.86601-.49998-.99995-1.732.86601-.49998.99995 1.732.86601-.49998-2.4999-4.3299-1.732.99995-.86601.49998zm3.4639-1.9999.49998.86596 1.9999 3.4639.86596-.49998 1.732-.99995-.49998-.86601-.24999-.433.43299-.24999-.49998-.86596-1.732.99995.49998.86596.43299-.24999.24999.43299-.86601.49998-1.4999-2.598 1.732-.99995-.49998-.8659596-2.598 1.4998996zm-2.098 2.3659.86601-.49998.49998.86601-.86601.49998z" opacity=".4"/><path d="m39.109 19.264c-3.1315-.06277-6.2292.5695-7.3457 1.1914l-18.188 10.5c-.79268.45765-1.1444 1.3689-.93359 2.2129.13261-.49311.45439-.93622.93359-1.2129l18.188-10.5c2.234-1.244 12.393-2.535 14.893 1.795.29345.50827.45122 1.0767.50781 1.6836.076-.986-.058-1.906-.508-2.684-1.25-2.1651-4.4154-2.9236-7.5469-2.9863z" opacity=".2" transform="matrix(.49997733 -.00000384 .00000384 .49997733 -2.287521 -2.40566)"/></g></svg>