<svg height="22" width="22" xmlns="http://www.w3.org/2000/svg"><path d="m7 20.5-2-2h-2.5c-.831 0-1.5-.669-1.5-1.5v-12c0-.831.669-1.5 1.5-1.5h17c .831 0 1.5.669 1.5 1.5v12c0 .831-.669 1.5-1.5 1.5h-2.5l-2 2z" opacity=".2"/><path d="m7 20-2-2h-2.5c-.831 0-1.5-.669-1.5-1.5v-12c0-.831.669-1.5 1.5-1.5h17c .831 0 1.5.669 1.5 1.5v12c0 .831-.669 1.5-1.5 1.5h-2.5l-2 2z" fill="#2c80c2"/><path d="m9 17-2.25-2h-2.75v-9h14v9h-3l-2 2z" opacity=".5"/><g fill="#f8c44e" transform="scale(1 -1)"><path d="m7-8h1v2h-1z"/><path d="m9-8h1v2h-1z"/><path d="m11-8h1v2h-1z"/><path d="m13-8h1v2h-1z"/><path d="m15-8h1v2h-1z"/></g><path d="m2.5 3c-.831 0-1.5.669-1.5 1.5v.5c0-.831.669-1.5 1.5-1.5h17c .831 0 1.5.669 1.5 1.5v-.5c0-.831-.669-1.5-1.5-1.5z" fill="#fff" opacity=".2"/><path d="m4 15v .5h2.75l2.25 2h4l2-2h3v-.5h-3l-2 2h-4l-2.25-2z" fill="#fff" opacity=".2"/></svg>