<svg height="22" width="22" xmlns="http://www.w3.org/2000/svg"><g transform="matrix(0 -1 -1 0 0 0)"><rect height="14" opacity=".2" rx="2" width="14" x="-15.5" y="-15"/><rect fill="#db7da0" height="14" rx="2" width="14" x="-15" y="-15"/><rect height="14" opacity=".2" rx="2" width="14" x="-18.5" y="-18"/><rect fill="#a6eb7d" height="14" rx="2" width="14" x="-18" y="-18"/><rect height="14" opacity=".2" rx="2" width="14" x="-21.5" y="-21"/><rect fill="#5fa6fa" height="14" rx="2" width="14" x="-21" y="-21"/></g><g fill="#fff"><path d="m3 1c-1.108 0-2 .892-2 2v .5c0-1.108.892-2 2-2h10c1.108 0 2 .892 2 2v-.5c0-1.108-.892-2-2-2z" opacity=".1"/><path d="m6 4c-1.108 0-2 .892-2 2v .5c0-1.108.892-2 2-2h10c1.108 0 2 .892 2 2v-.5c0-1.108-.892-2-2-2z" opacity=".1"/><path d="m9 7c-1.108 0-2 .892-2 2v .5c0-1.108.892-2 2-2h10c1.108 0 2 .892 2 2v-.5c0-1.108-.892-2-2-2z" opacity=".1"/></g><g fill="none" stroke-linecap="round" stroke-linejoin="bevel"><path d="m13.514014 16.992879s2.084121-.771768 2.018293-3.493c-.0472-1.951193-2.018293-2.507233-2.018293-2.507233m-.0141 5.993233v-5.999647" opacity=".2" stroke="#000"/><path d="m13.514014 16.493s2.084121-.771768 2.018293-3.493c-.0472-1.951193-2.018293-2.507233-2.018293-2.507233m-.0141 5.993233v-5.999647" stroke="#fff"/><path d="m17.506985 13.992879h1.999879m-1.999879-3.00022h1.999879m-1.99978 6.00022v-6.000122" opacity=".2" stroke="#000"/><path d="m17.506985 13.493h1.999879m-1.999879-3.00022h1.999879m-1.99978 6.00022v-6.000122" stroke="#fff"/><path d="m9.506938 14.992658s1.999926.4645 1.999926-2.000002c0-2.464497-1.999926-1.999997-1.999926-1.999997m.000098 6.00022v-6.000122" opacity=".2" stroke="#000"/><path d="m9.506938 14.492779s1.999926.4645 1.999926-2.000002c0-2.464497-1.999926-1.999997-1.999926-1.999997m.000098 6.00022v-6.000122" stroke="#fff"/></g></svg>