<svg height="22" width="22" xmlns="http://www.w3.org/2000/svg"><rect fill="#ea4141" height="20" rx="10" transform="matrix(0 -1 -1 0 0 0)" width="20" x="-21" y="-21"/><path d="m11 1c-5.5395076 0-9.9991111 4.4599999-9.9991111 10 0 .084-.002.1665 0 .25.1321882-5.4230001 4.543596-9.75 9.9991111-9.75 5.455515 0 9.867123 4.3269999 9.999111 9.75.002-.0835 0-.166 0-.25 0-5.5400001-4.459604-10-9.999111-10z" fill="#fff" opacity=".2"/><path d="m1.00585 11.25c-.00205.0835-.00585.166-.00585.25 0 5.54 4.4599999 10 10 10 5.54 0 10-4.46 10-10 0-.084-.004-.1665-.006-.25-.132 5.423-4.538 9.75-9.994 9.75-5.4560001 0-9.862-4.327-9.994-9.75z" opacity=".2"/><g opacity=".2" transform="translate(-1 -.5)"><path d="m11.5 14c-1.5000002 2-1.6274987 3.873708-2.0000002 6-.5004459-2.254776-.4999999-4-1.9999999-6l1.9999999.5z"/><path d="m16.5 14c-1.5 2-1.627499 3.873708-2 6-.500446-2.254776-.5-4-2-6l2 .5z"/><path d="m8 9.4999998c1.9999999 1.5000002 6.873708 1.6274982 9 2.0000002-2.254776.500446-7.0000001.5-9 2l .5-2z"/><path d="m8 4.4999999c1.9999999 1.5 6.873708 1.6274985 9 2-2.254776.500446-7.0000001.5-9 1.9999999l.5-1.9999999z"/><path d="m9.5 6.9999999c2 1.4999999 3.373708 1.6274984 5.5 1.9999999-2.254776.500446-3.5.5-5.5 2.0000002l.4999999-2.0000002z"/></g><g fill="#fff" transform="translate(-1 -1)"><path d="m11.5 14c-1.5000002 2-1.6274987 3.873708-2.0000002 6-.5004459-2.254776-.4999999-4-1.9999999-6l1.9999999.5z"/><path d="m16.5 14c-1.5 2-1.627499 3.873708-2 6-.500446-2.254776-.5-4-2-6l2 .5z"/><path d="m8 9.4999998c1.9999999 1.5000002 6.873708 1.6274982 9 2.0000002-2.254776.500446-7.0000001.5-9 2l .5-2z"/><path d="m8 4.4999999c1.9999999 1.5 6.873708 1.6274985 9 2-2.254776.500446-7.0000001.5-9 1.9999999l.5-1.9999999z"/><path d="m9.5 6.9999999c2 1.4999999 3.373708 1.6274984 5.5 1.9999999-2.254776.500446-3.5.5-5.5 2.0000002l.4999999-2.0000002z"/></g></svg>