<svg height="22" viewBox="0 0 22 22" width="22" xmlns="http://www.w3.org/2000/svg"><path d="m13 1.5c-2.359644.002037-4.4429115 1.3872511-5.4140625 3.4570312a3 3 0 0 0 -1.5859375-.4570312 3 3 0 0 0 -3 3 3 3 0 0 0  .8457031 2.087891 2.5 2.5 0 0 0 -1.8457031 2.412109 2.5 2.5 0 0 0  .046875.472656c.00494.02579.011849.05067.017578.07617a2.5 2.5 0 0 0  .1269531.408203c.00526.01268.012115.02454.017578.03711a2.5 2.5 0 0 0  .2128906.392578c.00679.01016.014549.01924.021484.0293a2.5 2.5 0 0 0  .2832031.34375c.00689.0069.014515.01267.021484.01953a2.5 2.5 0 0 0  .3398437.283203 2.5 2.5 0 0 0  .00781.0039c.00827.0056.017052.0101.025391.01563a2.5 2.5 0 0 0  .40625.220703 2.5 2.5 0 0 0  .4375.136719c.013284.0029.025701.0071.039062.0098.00444.000894.00922.0011.013672.002a2.5 2.5 0 0 0  .4824255.048748 2.5 2.5 0 0 0  .5-.054688v.054688c0 1.662 1.338 3 3 3h6c1.662 0 3-1.338 3-3v-.05078c.164538.03368.332051.05069.5.05078 1.380712 0 2.5-1.119288 2.5-2.5-.0016-.968486-.562429-1.848917-1.439453-2.259766.288507-.711738.437692-1.4722465.439453-2.240234 0-3.3137085-2.686292-6-6-6z" opacity=".2"/><path d="m5.5 13.5c-.831001 0-1.5.629991-1.5 1.412109v5.587891c0 .554.418125 1 .9375 1h2.0625 3 3 3 2.0625c.519375 0 .9375-.446.9375-1v-5.587891c0-.782118-.668999-1.412109-1.5-1.412109s-1.5.629991-1.5 1.412109v.587891c0-.831-.669-1.5-1.5-1.5s-1.5.669-1.5 1.5v.5c0-.831001-.669-1.5-1.5-1.5s-1.5.668999-1.5 1.5v-.5c0-.831-.669-1.5-1.5-1.5s-1.5.669-1.5 1.5v-.587891c0-.782118-.668999-1.412109-1.5-1.412109z" opacity=".2"/><path d="m13 1c-2.359644.002037-4.4429115 1.3872511-5.4140625 3.4570312a3 3 0 0 0 -1.5859375-.4570312 3 3 0 0 0 -3 3 3 3 0 0 0  .8457031 2.087891 2.5 2.5 0 0 0 -1.8457031 2.412109 2.5 2.5 0 0 0  .046875.472656c.00494.02579.011849.05067.017578.07617a2.5 2.5 0 0 0  .1269531.408203c.00526.01268.012115.02454.017578.03711a2.5 2.5 0 0 0  .2128906.392578c.00679.01017.014549.01924.021484.0293a2.5 2.5 0 0 0  .2832031.34375c.00689.0069.014515.01267.021484.01953a2.5 2.5 0 0 0  .3398437.283203 2.5 2.5 0 0 0  .00781.0039c.00827.0056.017052.0101.025391.01563a2.5 2.5 0 0 0  .40625.220703 2.5 2.5 0 0 0  .4375.136719c.013284.0029.025701.0071.039062.0098.00444.000894.00922.0011.013672.002a2.5 2.5 0 0 0  .4824255.048748 2.5 2.5 0 0 0  .5-.054688v.054688c0 1.662 1.338 3 3 3h6c1.662 0 3-1.338 3-3v-.05078c.164538.033679.332051.05069.5.05078 1.380712 0 2.5-1.119288 2.5-2.5-.0016-.968486-.562429-1.848917-1.439453-2.259766.288507-.7117378.437692-1.4722465.439453-2.240234 0-3.3137085-2.686292-6-6-6z" fill="#e6c59a"/><path d="m13 1c-2.359644.002037-4.4429115 1.3872511-5.4140625 3.4570312a3 3 0 0 0 -1.5859375-.4570312 3 3 0 0 0 -3 3 3 3 0 0 0  .0136719.2441406 3 3 0 0 1 2.9863281-2.7441406 3 3 0 0 1 1.5859375.4570312c.971151-2.0697801 3.0544185-3.4549942 5.4140625-3.4570312 3.229266 0 5.854213 2.5531976 5.986328 5.75.003676-.0833755.01348-.1663939.013672-.25 0-3.3137085-2.686292-6-6-6zm-9.4707031 8.201172a2.5 2.5 0 0 0 -1.5292969 2.298828 2.5 2.5 0 0 0  .0136719.236328 2.5 2.5 0 0 1 1.8320312-2.148437 3 3 0 0 1 -.3164062-.386719zm15.1777341.121094c-.04516.140358-.09094.280931-.146484.417968.78715.368747 1.315954 1.117351 1.417969 1.966797.005791-.069433.021484-.136101.021484-.207031-.0015-.912067-.502505-1.740515-1.292969-2.177734z" fill="#fff" opacity=".2"/><path d="m13 11c0 1.104569-.895431 2-2 2s-2-.895431-2-2z" fill="#a81a1a"/><circle cx="6.5" cy="9.5" fill="#3f3f3f" r="1.5"/><path d="m17.5 13c-.831001 0-1.5.629647-1.5 1.411765v6.588235h2.0625c.519375 0 .9375-.446.9375-1v-5.588235c0-.782118-.668999-1.411765-1.5-1.411765z" fill="#e54b3f"/><path d="m11.5 14c-.831 0-1.5.668999-1.5 1.5v5.5h3v-5.5c0-.831001-.669-1.5-1.5-1.5z" fill="#e54b3f"/><path d="m14.5 13.5c-.831 0-1.5.669-1.5 1.5v6h3v-6c0-.831-.669-1.5-1.5-1.5z" fill="#fff"/><path d="m5.5 13c .831001 0 1.5.629647 1.5 1.411765v6.588235h-2.0625c-.519375 0-.9375-.446-.9375-1v-5.588235c0-.782118.668999-1.411765 1.5-1.411765z" fill="#e54b3f"/><path d="m8.5 13.5c.831 0 1.5.669 1.5 1.5v6h-3v-6c0-.831.669-1.5 1.5-1.5z" fill="#fff"/><circle cx="15.5" cy="9.5" fill="#3f3f3f" r="1.5"/></svg>