<svg height="22" width="22" xmlns="http://www.w3.org/2000/svg"><rect height="18" opacity=".2" rx="1" width="20" x="1" y="2.5"/><rect fill="#4ab3e4" height="18" rx="1" width="20" x="1" y="2"/><rect height="7" opacity=".2" rx=".5" width="10" x="12" y="5.5"/><rect fill="#ebebeb" height="7" rx=".5" width="10" x="12" y="5"/><rect height="7" opacity=".2" rx=".5" width="10" y="5.5"/><rect fill="#ebebeb" height="7" rx=".5" width="10" y="5"/><rect height="7" opacity=".2" rx=".5" width="10" x="6" y="14.5"/><rect fill="#ebebeb" height="7" rx=".5" width="10" x="6" y="14"/><path d="m2 2c-.554 0-1 .446-1 1v .5c0-.554.446-1 1-1h18c .554 0 1 .446 1 1v-.5c0-.554-.446-1-1-1z" fill="#fff" opacity=".2"/></svg>