<svg height="22" width="22" xmlns="http://www.w3.org/2000/svg"><path d="m21 11a10 10 0 0 1 -10 10 10 10 0 0 1 -10-10 10 10 0 0 1 10-10 10 10 0 0 1 10 10z" fill="#f56e2c"/><path d="m20.99 11.209a10 10 0 0 1 -9.99 9.791 10 10 0 0 1 -9.989-9.709 10 10 0 0 0 -.011.209 10 10 0 0 0 10 10 10 10 0 0 0 10-10 10 10 0 0 0 -.0105-.291z" opacity=".2"/><path d="m11 1a10 10 0 0 0 -10 10 10 10 0 0 0  .01075.291 10 10 0 0 1 9.989-9.791 10 10 0 0 1 9.989 9.709 10 10 0 0 0  .011-.209 10 10 0 0 0 -10-10z" fill="#fff" opacity=".2"/><path d="m8 5.5v12h7v-3h-4v-9z" opacity=".2"/><path d="m8 5v12h7v-3h-4v-9z" fill="#fff"/></svg>