<svg height="22" width="22" xmlns="http://www.w3.org/2000/svg"><rect height="20" opacity=".2" rx="1" transform="matrix(0 -1 -1 0 0 0)" width="20" x="-21.5" y="-21"/><rect fill="#ec6295" height="20" rx="1" transform="matrix(0 -1 -1 0 0 0)" width="20" x="-21" y="-21"/><path d="m2 1c-.554 0-1 .446-1 1v .5c0-.554.446-1 1-1h18c .554 0 1 .446 1 1v-.5c0-.554-.446-1-1-1z" fill="#fff" opacity=".2"/><path d="m14 4.5v10h2v-10zm0 12v2h2v-2z" opacity=".2"/><path d="m14 4v10h2v-10zm0 12v2h2v-2z" fill="#f5f5f5"/><path d="m10.5 4.5a5.5 5 0 0 0 -5.5 5 5.5 5 0 0 0 5.5 5 5.5 5 0 0 0 1.5-.19336v-1.198a3.5 4 0 0 1 -1.5.391 3.5 4 0 0 1 -3.5-4 3.5 4 0 0 1 3.5-4 3.5 4 0 0 1 1.5.3926v-1.2012a5.5 5 0 0 0 -1.5-.1914z" opacity=".2"/><path d="m10.5 4a5.5 5 0 0 0 -5.5 5 5.5 5 0 0 0 5.5 5 5.5 5 0 0 0 1.5-.193v-1.198a3.5 4 0 0 1 -1.5.391 3.5 4 0 0 1 -3.5-4 3.5 4 0 0 1 3.5-4 3.5 4 0 0 1 1.5.3926v-1.2012a5.5 5 0 0 0 -1.5-.1914z" fill="#f5f5f5"/></svg>