<svg height="22" viewBox="0 0 22 22" width="22" xmlns="http://www.w3.org/2000/svg"><path d="m5.5 1.4995a2.5 2.5 0 0 0 -2.5 2.5 2.5 2.5 0 0 0 2.5 2.5 2.5 2.5 0 0 0 2.5-2.5 2.5 2.5 0 0 0 -2.5-2.5zm2.4385 0c .6529.6372 1.0615 1.5239 1.0615 2.5 0 1.9212-1.5788 3.5-3.5 3.5-.9761 0-1.8628-.4086-2.5-1.0615v12.562c0 1.5 1 2.5 2.5176 2.5 1.4824 0 2.4824-1 2.4824-2.5v-3.5h1.7041l-1.0009-1.401c-.4547-.605-.7017-1.341-.7031-2.097v-.002c0-1.9212 1.5788-3.5 3.5-3.5h.001c1.1003.0015 2.1385.52146 2.7979 1.4023l.0127.01856 2.6436 3.7021c1.306-1.339 2.044-3.229 2.045-5.123-.002-3.5-2.5-7-6.5-7zm3.5615 8c-1.3807 0-2.5 1.1193-2.5 2.5.001.54048.1771 1.0661.50195 1.498l5 7c .471.63 1.211 1.001 1.998 1.002 1.381 0 2.5-1.119 2.5-2.5-.001-.54-.177-1.066-.502-1.498l-5-7c-.471-.63-1.211-1.001-1.998-1.002z" opacity=".2"/><path d="m7.9385.9995c.6529.6372 1.0615 1.5239 1.0615 2.5 0 1.9212-1.5788 3.5-3.5 3.5-.9761 0-1.8628-.4086-2.5-1.0615v12.562c0 1.5 1 2.5 2.5176 2.5 1.4824 0 2.4824-1 2.4824-2.5v-3.5h1.7041l-1.0009-1.401c-.4547-.605-.7017-1.341-.7031-2.097v-.002c0-1.921 1.579-3.5 3.5-3.5h.001c1.1003.0015 2.1385.52146 2.7979 1.4023l.0127.01856 2.6436 3.7021c1.306-1.339 2.044-3.229 2.045-5.123-.002-3.5-2.5-7-6.5-7z" fill="#3eb07b"/><circle cx="5.5" cy="3.499" fill="#764d80" r="2.5"/><path d="m11.5 8.9995c-1.3807 0-2.5 1.1193-2.5 2.5.001.54048.1771 1.0661.50195 1.498l5 7c .471.63 1.211 1.001 1.998 1.002 1.381 0 2.5-1.119 2.5-2.5-.001-.54-.177-1.066-.502-1.498l-5-7c-.471-.63-1.211-1.001-1.998-1.002z" fill="#764d80"/><g fill="#fff"><path d="m7.9394531.9995c.1565816.1528164.295662.3206916.421875.5h4.1386719c3.899554 0 6.364734 3.3263696 6.488281 6.7363281.002589-.0788632.011677-.1574114.011719-.2363281-.002-3.5-2.5-7-6.5-7zm1.0351563 2.7519531c-.1330463 1.8031748-1.6396827 3.2480469-3.4746094 3.2480469-.9761 0-1.8628-.4076469-2.5-1.0605469v.4980469c.6372.6529 1.5239 1.0625 2.5 1.0625 1.9212 0 3.5-1.5788 3.5-3.5 0-.084892-.0193175-.1646126-.0253906-.2480469zm-.9511719 8.0253909c-.0049005.075113-.0234375.146388-.0234375.222656v.002c.0014.756.248425 1.492656.703125 2.097656l.642578.900344h.357422l-1-1.400391c-.3990384-.530939-.6261883-1.164567-.6796875-1.822265z" opacity=".1"/><path d="m5.5.9995a2.5 2.5 0 0 0 -2.5 2.5 2.5 2.5 0 0 0  .0136719.2382812 2.5 2.5 0 0 1 2.4863281-2.2382812 2.5 2.5 0 0 1 2.4863281 2.2617188 2.5 2.5 0 0 0  .0136719-.2617188 2.5 2.5 0 0 0 -2.5-2.5z" opacity=".1"/><path d="m11.5 8.9995c-1.3807 0-2.5 1.1193-2.5 2.5.000171.0923.01319.182399.02344.273438.11621-1.272786 1.173478-2.273438 2.47656-2.273438.787.001 1.527047.371953 1.998047 1.001953l5 7c .269375.358062.428667.780993.478515 1.222656.006805-.075196.023438-.147636.023438-.224609-.001-.54-.176953-1.066047-.501953-1.498047l-5-7c-.471-.63-1.211047-1.000953-1.998047-1.001953z" opacity=".1"/></g></svg>