<svg height="22" viewBox="0 0 22 22" width="22" xmlns="http://www.w3.org/2000/svg"><g transform="translate(0 -1030.4)"><rect height="20" opacity=".2" rx="1.5" transform="matrix(0 -1 -1 0 0 0)" width="20" x="-1051.4" y="-21"/><path d="m-281.72 998.18h10.78v10.78h-10.78z" fill="#f4f1ef" stroke="#f4f1ef" transform="matrix(.9612617 -.27563736 .27563736 .9612617 0 0)"/><path d="m1.6064 1037c-.20682-.0003-.40662.01-.60644.013v12.85c0 .111.01345.2182.03615.3223 2.2145-.1975 4.3767-.6829 6.2686-2.6553l-2.9717-10.362c-.9673-.1094-1.8763-.1656-2.7266-.167z" fill="#48c39e"/><path d="m17.667 1044.6-10.362 2.9717c-.33003 1.35-.33842 2.6189-.125 3.833h12.32c.30208 0 .5815-.091.8164-.2432-.07918-2.3882-.2931-4.7425-2.6494-6.5615z" fill="#d81768"/><path d="m20.398 1031.7c-2.3347.2236-4.4955.6946-5.7031 2.5283l2.9717 10.362c1.184.2444 2.2867.266 3.333.1319v-11.827c0-.4918-.23804-.9221-.60156-1.1953z" fill="#ecb524"/><path d="m2.5 1031.4c-.30004 0-.57758.09-.81152.2402.49206 1.922 1.4016 3.7718 2.6445 5.5645l10.362-2.9717c.41751-1.0526.53628-1.9804.47364-2.833h-12.669z" fill="#81d2e0"/><path d="m7.3047 1047.5-6.3047 1.8v.5254c0 .831.669 1.5 1.5 1.5h5.9043l-1.0996-3.833z" fill="#390f39"/><path d="m2.5 1031.4c-.831 0-1.5.669-1.5 1.5v5.2607l3.333-.956-1.6641-5.8047h-.16894z" fill="#20a48e"/><path d="m13.883 1031.4.8125 2.833 6.2285-1.7851c-.1919-.6071-.75168-1.0479-1.4238-1.0479z" fill="#77971f"/><path d="m21 1043.6-3.333.956 1.9473 6.793c.776-.1 1.386-.7 1.386-1.5v-6.2607z" fill="#d5100d"/><path d="m2.5 1031.4c-.831 0-1.5.669-1.5 1.5v.5c0-.831.669-1.5 1.5-1.5h17c .831 0 1.5.669 1.5 1.5v-.5c0-.831-.669-1.5-1.5-1.5z" fill="#fff" opacity=".2"/><path d="m2.5 1051.9c-.831 0-1.5-.669-1.5-1.5v-.5c0 .831.669 1.5 1.5 1.5h17c .831 0 1.5-.669 1.5-1.5v.5c0 .831-.669 1.5-1.5 1.5z" opacity=".2"/><path d="m13.993 1043c-.00001.7693-.25336 1.3593-.76006 1.7698-.50301.4105-1.2464.6158-2.2302.6158-.68053 0-1.2723-.1128-1.7753-.3384-.49931-.2256-.90615-.5899-1.2205-1.0929l1.2039-.921c.17753.2515.34582.4401.50486.5659.15903.1257.34766.2238.56588.294.2182.07.46971.1054.75451.1054.42533 0 .75634-.072.99305-.2163.2404-.148.36061-.3717.36062-.6713-.00001-.1701-.0426-.3125-.1276-.4272-.0814-.1147-.20527-.2127-.3717-.294-.16644-.085-.45493-.1813-.86548-.2885-.39944-.1073-.77669-.2145-1.1318-.3218-.35136-.111-.65649-.2534-.9154-.4272-.2552-.1738-.45676-.392-.60471-.6546-.14793-.2626-.22191-.5936-.22191-.9931 0-.7286.24595-1.2963.73786-1.7032.49192-.4105 1.1965-.6158 2.1137-.6158 1.3278 0 2.2672.4549 2.8183 1.3648l-1.1928.932c-.21081-.3255-.44753-.5585-.71013-.699-.2626-.1406-.57512-.2108-.93757-.2108-.36247 0-.65835.067-.88767.1997-.2256.1294-.33841.3347-.33841.6158 0 .2478.11835.4383.35506.5714.23671.1295.6491.2608 1.2372.3939.32546.085.64724.1776.96532.2774.31807.096.60101.2312.84881.405.25151.1739.45308.4013.60472.6824s.22746.6417.22747 1.0818" fill="#5a3856"/></g></svg>