<svg height="22" viewBox="0 0 22 22" width="22" xmlns="http://www.w3.org/2000/svg"><circle cx="11" cy="11.5" opacity=".2" r="10"/><circle cx="11" cy="11" fill="#97302c" r="10"/><path d="m11 1a10 10 0 0 0 -10 10 10 10 0 0 0  .01075.291 10 10 0 0 1 9.989-9.791 10 10 0 0 1 9.9895 9.709 10 10 0 0 0  .0105-.209 10 10 0 0 0 -10-10z" fill="#fff" opacity=".1"/><path d="m11.275392 4.499981c-1.586018-.000411-2.7860581.688621-3.3582756 1.926672-.1911885.4136565-.2278425.5614185-.2538965 1.0369885-.053428.975139.263367 1.7638215.951137 2.3695635.5019131.44205.6919941.545685 2.3915131 1.297455 2.036341.893936 4.053301 2.492839 3.78111 4.409943-.2103 1.481192-2.258308 2.472065-3.754301 2.459397-1.592137-.013483-3.3437813-.967622-3.950679-2.684746-.292865-1.2052.5208807-1.929349 1.5310717-2.151044.6691303-.146847 1.7537003.108509 2.2047123.645801.211168.251565.286132 1.097905.159174 1.478298-.09967-.459182-.506193-.786911-.976527-.787252-.552265 0-1.000431.447242-1.000431.998943s.448166.998943 1.000431.998943c1.248845-.07742 1.499945-1.509515 1.499945-2.713319-.07742-1.262584-3.3305433-1.903229-4.7005143-.425332-.782879.854132-1.071134 1.821837-.500567 3.225103.1016565.250018.169833.585204.1904225.863041.020415.275453.057496.435559.083005.478514.036535.06151.1742615.06414.6464605.01073.5600765-.06335.6376975.0421 1.181597.185823.9225323.415305 2.9658333.436287 3.9644153.304669 1.432959-.203892 2.721643-1.009127 3.236208-2.02325.314919-.620652.404033-1.032041.398423-1.838874-.0087-1.25674-.32772-2.635712-1.041953-3.370029-.488013-.501735-.966563-.768726-2.513579-1.404763-1.866908-.767557-2.467544-1.097706-3.043834-1.6740095-.4483061-.448317-.5480716-1.3252345-.243155-1.9934985.163548-.3584365.643578-.7924015 1.057579-.9560195.469247-.185452 1.244108-.230041 1.733334-.099504.823295.219676 1.609029.80987 1.921804 1.4437845.188867.3827855.249721 1.304184.131831 1.882288-.04176.204796-.05966.389304-.04004.409723.06993.07277.451163-.045945.695287-.216568.278527-.1946655.4912-.491232.598611-.833103.101114-.321824-.05978-1.02577-.173294-1.535127-.05271-.236529-.08995-.5937915-.08301-.7940815.01306-.376509-.057-.5045665-.247061-.44972-.04945.01427-.292775.059844-.540019.101456-.449186.075602-.299352.025335-.83838-.1964395-.670138-.2757125-1.24846-.380236-2.098555-.380456z" opacity=".2"/><path d="m11.275392 3.999981c-1.586018-.000411-2.7860581.688621-3.3582756 1.926672-.1911885.4136565-.2278425.5614185-.2538965 1.0369885-.053428.975139.263367 1.7638215.951137 2.3695635.5019131.44205.6919941.545685 2.3915131 1.297455 2.036341.893936 4.053301 2.492839 3.78111 4.409943-.2103 1.481192-2.258308 2.472065-3.754301 2.459397-1.592137-.013483-3.3437813-.967622-3.950679-2.684746-.292865-1.2052.5208807-1.929349 1.5310717-2.151044.6691303-.146847 1.7537003.108509 2.2047123.645801.211168.251565.286132 1.097905.159174 1.478298-.09967-.459182-.506193-.786911-.976527-.787252-.552265 0-1.000431.447242-1.000431.998943s.448166.998943 1.000431.998943c1.248845-.07742 1.499945-1.509515 1.499945-2.713319-.07742-1.262584-3.3305433-1.903229-4.7005143-.425332-.782879.854132-1.071134 1.821837-.500567 3.225103.1016565.250018.169833.585204.1904225.863041.020415.275453.057496.435559.083005.478514.036535.06151.1742615.06414.6464605.01073.5600765-.06335.6376975.0421 1.181597.185823.9225323.415305 2.9658333.436287 3.9644153.304669 1.432959-.203892 2.721643-1.009127 3.236208-2.02325.314919-.620652.404033-1.032041.398423-1.838874-.0087-1.25674-.32772-2.635712-1.041953-3.370029-.488013-.501735-.966563-.768726-2.513579-1.404763-1.866908-.767557-2.467544-1.097706-3.043834-1.6740095-.4483061-.448317-.5480716-1.3252345-.243155-1.9934985.163548-.3584365.643578-.7924015 1.057579-.9560195.469247-.185452 1.244108-.230041 1.733334-.099504.823295.219676 1.609029.80987 1.921804 1.4437845.188867.3827855.249721 1.304184.131831 1.882288-.04176.204796-.05966.389304-.04004.409723.06993.072769.451163-.045945.695287-.216568.278527-.1946655.4912-.491232.598611-.833103.101114-.321824-.05978-1.02577-.173294-1.535127-.05271-.236529-.08995-.5937915-.08301-.7940815.01306-.376509-.057-.5045665-.247061-.44972-.04945.01427-.292775.059844-.540019.101456-.449186.075602-.299352.025335-.83838-.1964395-.670138-.2757125-1.24846-.380236-2.098555-.380456z" fill="#fff"/></svg>