<svg height="22" width="22" xmlns="http://www.w3.org/2000/svg"><rect fill="#ffc947" height="19" rx="9.5" transform="matrix(0 -1 -1 0 0 0)" width="19" x="-20.5" y="-20.5"/><path d="m11 1c-5.54 0-10 4.46-10 10s4.46 10 10 10 10-4.46 10-10-4.46-10-10-10zm0 1.5c4.735 0 8.5 3.765 8.5 8.5s-3.765 8.5-8.5 8.5-8.5-3.765-8.5-8.5 3.765-8.5 8.5-8.5z" fill="#b38d32"/><path d="m11 1c-5.54 0-10 4.46-10 10 0 .084.004.166.0058.25.1324-5.423 4.5382-9.75 9.9942-9.75 5.4558 0 9.862 4.327 9.994 9.75.002-.08343.0059-.16606.0059-.25 0-5.54-4.46-10-10-10z" fill="#fff" opacity=".2"/><path d="m1.0058 11.25c-.002.084-.0058.166-.0058.25 0 5.54 4.46 10 10 10s10-4.46 10-10c0-.08394-.0038-.16657-.0059-.25-.132 5.423-4.538 9.75-9.994 9.75s-9.862-4.327-9.994-9.75z" opacity=".2"/><path d="m11 5a6 6 0 0 0 -5.6504 4h-1.8496l-.5 1h2.0859a6 6 0 0 0 -.08594 1h-.5l-.5 1h1.0898a6 6 0 0 0 5.9102 5 6 6 0 0 0 4.4629-2h-1.4727a5 5 0 0 1 -2.9902 1 5 5 0 0 1 -4.8945-4h5.3945l.5-1h-6a5 5 0 0 1  .10156-1h5.3984l.5-1h-5.5801a5 5 0 0 1 4.5801-3 5 5 0 0 1 2.9902 1h1.4746a6 6 0 0 0 -4.4648-2z" fill="#b38d32"/></svg>