<svg height="22" width="22" xmlns="http://www.w3.org/2000/svg"><g transform="translate(-1 -1)"><rect height="20" opacity=".2" rx="1" width="20" x="2" y="2.5"/><rect fill="#e4e4e4" height="20" rx="1" width="20" x="2" y="2"/><path d="m11.955078 7.5328751-6.955078 4.9667969 5.230469 3.736328.355469-1.796875-2.585938-1.939453 3.488281-2.6171875z" opacity=".2"/><path d="m3 2c-.554 0-1 .446-1 1v .5c0-.554.446-1 1-1h18c .554 0 1 .446 1 1v-.5c0-.554-.446-1-1-1z" fill="#fff" opacity=".2"/><path d="m11.955078 7.0332031-6.955078 4.9667969 5.230469 3.736328.355469-1.796875-2.585938-1.939453 3.488281-2.6171875z" fill="#483c8f"/><path d="m13.751953 8.7516251-.355469 1.7949219 2.603516 1.953125-3.513672 2.634766-.466797 2.351562 6.980469-4.986328z" opacity=".2"/><path d="m13.751953 8.2519531-.355469 1.7949219 2.603516 1.953125-3.513672 2.634766-.466797 2.351562 6.980469-4.986328z" fill="#4b8adf"/></g></svg>