<svg height="22" viewBox="0 0 22 22" width="22" xmlns="http://www.w3.org/2000/svg"><path d="m11.000113 11.500113a9.9998872 4.9999436 0 0 0 -9.9998877 4.999943 9.9998872 4.9999436 0 0 0 9.9998877 4.999944 9.9998872 4.9999436 0 0 0 9.999887-4.999944 9.9998872 4.9999436 0 0 0 -9.999887-4.999943z" opacity=".2"/><path d="m11.000113 11.000118a9.9998872 4.9999436 0 0 0 -9.9998877 4.999944 9.9998872 4.9999436 0 0 0 9.9998877 4.999944 9.9998872 4.9999436 0 0 0 9.999887-4.999944 9.9998872 4.9999436 0 0 0 -9.999887-4.999944z" fill="#696969"/><path d="m11.000113 6.5001692a9.9998872 4.9999436 0 0 0 -9.9998877 4.9999438 9.9998872 4.9999436 0 0 0 9.9998877 4.999943 9.9998872 4.9999436 0 0 0 9.999887-4.999943 9.9998872 4.9999436 0 0 0 -9.999887-4.9999438z" opacity=".2"/><path d="m11.000113 6.0001749a9.9998872 4.9999436 0 0 0 -9.9998877 4.9999431 9.9998872 4.9999436 0 0 0 9.9998877 4.999944 9.9998872 4.9999436 0 0 0 9.999887-4.999944 9.9998872 4.9999436 0 0 0 -9.999887-4.9999431z" fill="#919191"/><path d="m11.000113 1.5002256a9.9998872 4.9999436 0 0 0 -9.9998877 4.9999436 9.9998872 4.9999436 0 0 0 9.9998877 4.9999438 9.9998872 4.9999436 0 0 0 9.999887-4.9999438 9.9998872 4.9999436 0 0 0 -9.999887-4.9999436z" opacity=".2"/><path d="m11.000113 1.0002313a9.9998872 4.9999436 0 0 0 -9.9998877 4.9999436 9.9998872 4.9999436 0 0 0 9.9998877 4.9999431 9.9998872 4.9999436 0 0 0 9.999887-4.9999431 9.9998872 4.9999436 0 0 0 -9.999887-4.9999436z" fill="#e4e4e4"/><path d="m10.999887 1.0002313a9.9998872 4.9999436 0 0 0 -9.999887 4.9999436 9.9998872 4.9999436 0 0 0  .0205076.2089821 9.9998872 4.9999436 0 0 1 9.9793794-4.7089314 9.9998872 4.9999436 0 0 1 9.97938 4.7958444 9.9998872 4.9999436 0 0 0  .020507-.2958951 9.9998872 4.9999436 0 0 0 -9.999887-4.9999436z" fill="#fff" opacity=".2"/></svg>