<svg height="22" width="22" xmlns="http://www.w3.org/2000/svg"><rect fill="#5450e3" height="19.998" rx="10" ry="9.999" transform="matrix(0 -1 -1 0 0 0)" width="20" x="-21" y="-21"/><path d="m11 1c-5.5395 0-9.999 4.46-9.999 10 0 .08386-.002.16664 0 .25.1321-5.423 4.5435-9.75 9.999-9.75s9.867 4.3268 9.999 9.75c.002-.08335 0-.16614 0-.25 0-5.54-4.459-10-9.999-10z" fill="#fff" opacity=".2"/><path d="m1.0058 11.25c-.002.084-.0058.166-.0058.25 0 5.54 4.46 10 10 10s10-4.46 10-10c0-.084-.004-.1665-.006-.25-.132 5.423-4.538 9.75-9.994 9.75s-9.862-4.327-9.994-9.75z" opacity=".2"/><g opacity=".2" transform="matrix(.5 0 0 .5 -1 0)"><path d="m12 28 12 4 12-4v4l-12 4-12-4z"/><path d="m12 21 12 4 12-4v4l-12 4-12-4z"/><path d="m24 10-12 4v4l12 4 12-4v-4z"/></g><g fill="#b49eff" transform="matrix(.5 0 0 .5 -1 -.5)"><path d="m12 28 12 4 12-4v4l-12 4-12-4z"/><path d="m12 21 12 4 12-4v4l-12 4-12-4z"/><path d="m24 10-12 4v4l12 4 12-4v-4z"/></g></svg>