<svg height="22" viewBox="0 0 22 22" width="22" xmlns="http://www.w3.org/2000/svg"><path d="m11 .99999984a10 10 0 0 0 -10 10.00000016 10 10 0 0 0 10 10 10 10 0 0 0 10-10 10 10 0 0 0 -10-10.00000016z" fill="#f4b400"/><g opacity=".3" transform="matrix(.35714286 0 0 .35714286 -.428572 -.071321)"><path d="m21 31.411697-2.472136-5.009094-5.527864-.803245 4-3.899037-.944272-5.505527 4.944272 2.599357 4.944271-2.599357-.944271 5.505527 4 3.899036-5.527864.803246z"/><path d="m40 26.608452-2.472136-5.009095-5.527864-.803245 4-3.899036-.944272-5.505528 4.944272 2.599358 4.944271-2.599358-.944271 5.505528 4 3.899036-5.527864.803246z"/><path d="m23 51.411697-2.472136-5.009094-5.527864-.803245 4-3.899037-.944272-5.505527 4.944272 2.599357 4.944271-2.599357-.944271 5.505527 4 3.899036-5.527864.803246z"/><path d="m45 45.411697-2.472136-5.009094-5.527864-.803245 4-3.899037-.944272-5.505527 4.944272 2.599357 4.944271-2.599357-.944271 5.505527 4 3.899036-5.527864.803246z"/></g><g fill="#fff"><path d="m7.0714289 10.789892-.8829058-1.7889625-1.9742372-.2868733 1.4285716-1.3925131-.3372402-1.9662598 1.7658115.9283421 1.7658113-.9283422-.33724 1.96626 1.4285716 1.3925129-1.9742373.2868734z"/><path d="m40 26.608452-2.472136-5.009095-5.527864-.803245 4-3.899036-.944272-5.505528 4.944272 2.599358 4.944271-2.599358-.944271 5.505528 4 3.899036-5.527864.803246z" transform="matrix(.35714286 0 0 .35714286 -.428571 -.428572)"/><path d="m7.7857142 17.932749-.8829057-1.788963-1.9742372-.286873 1.4285715-1.392513-.3372401-1.96626 1.7658115.928342 1.7658113-.928342-.33724 1.96626 1.4285715 1.392513-1.9742373.286873z"/><path d="m45 45.411697-2.472136-5.009094-5.527864-.803245 4-3.899037-.944272-5.505527 4.944272 2.599357 4.944271-2.599357-.944271 5.505527 4 3.899036-5.527864.803246z" transform="matrix(.35714286 0 0 .35714286 -.428571 -.428572)"/><path d="m11 1a10 10 0 0 0 -9.9297 8.9258 10 9.5 0 0 1 9.9297-8.4258 10 9.5 0 0 1 9.961 8.724 10 10 0 0 0 -9.961-9.224zm9.9609 9.2236a10 10 0 0 1  .039.776 10 9.5 0 0 0 -.039-.776zm-19.891-.2982a10 9.5 0 0 0 -.024414.19629 10 10 0 0 1  .024414-.19629zm-.024414.19629a10 10 0 0 0 -.0459.878 10 9.5 0 0 1  .0459-.878z" opacity=".2"/></g><path d="m11 21.5a10 10 0 0 1 -9.9297-8.926 10 9.5 0 0 0 9.9297 8.426 10 9.5 0 0 0 9.961-8.724 10 10 0 0 1 -9.961 9.224zm9.9609-9.2236a10 10 0 0 0  .039-.776 10 9.5 0 0 1 -.039.776zm-19.891.298a10 9.5 0 0 1 -.024414-.19625 10 10 0 0 0  .024414.19625zm-.0244-.196a10 10 0 0 1 -.0459-.878 10 9.5 0 0 0  .0459.878z" opacity=".2"/><g opacity=".3" stroke="#000" transform="matrix(.33283308 0 0 .36087915 1.027287 -.161249)"><path d="m57.721022 39.515725-5.693342 18.218703-5.693346-18.218703" fill="none" stroke="#000" stroke-linecap="round" stroke-linejoin="round" stroke-width="4.554676"/><path d="m40.639906 39.499973-11.386675 18.218703m0-18.218703 11.386675 18.218703" fill="none" stroke="#000" stroke-linecap="round" stroke-width="4.554676"/></g><g transform="matrix(.33283308 0 0 .36087915 1.027287 -.447099)"><path d="m57.721022 39.515725-5.693342 18.218703-5.693346-18.218703" fill="none" stroke="#c2352a" stroke-linecap="round" stroke-linejoin="round" stroke-width="4.554676"/><path d="m40.639906 39.499973-11.386675 18.218703m0-18.218703 11.386675 18.218703" fill="none" stroke="#c2352a" stroke-linecap="round" stroke-width="4.554676"/></g></svg>