<svg height="22" width="22" xmlns="http://www.w3.org/2000/svg"><g transform="translate(-1 -1)"><rect height="20" opacity=".2" rx="4" transform="matrix(0 -1 -1 0 0 0)" width="14" x="-19.5" y="-22"/><rect fill="#4f4f4f" height="20" rx="4" transform="matrix(0 -1 -1 0 0 0)" width="14" x="-19" y="-22"/><path d="m19 14.214286v-3.428571c0-1.266287-1.2488-2.285715-2.8-2.285715h-8.4c-1.5512 0-2.8 1.019428-2.8 2.285715v3.428571c0 1.266286 1.2488 2.285714 2.8 2.285714h1.7l2.5-1 2.5 1h1.7c1.5512 0 2.8-1.019428 2.8-2.285714z" opacity=".2"/><path d="m19 13.714286v-3.428571c0-1.2662866-1.2488-2.285715-2.8-2.285715h-8.4c-1.5512 0-2.8 1.0194284-2.8 2.285715v3.428571c0 1.266286 1.2488 2.285714 2.8 2.285714h1.7l2.5-1 2.5 1h1.7c1.5512 0 2.8-1.019428 2.8-2.285714z" fill="#48aad5"/><g transform="rotate(90)"><rect height="2" opacity=".2" rx=".5" width="4" x="10.5" y="-3"/><rect fill="#929292" height="2" rx=".5" width="4" x="10" y="-3"/><rect height="2" opacity=".2" rx=".5" width="4" x="10.5" y="-23"/><rect fill="#929292" height="2" rx=".5" width="4" x="10" y="-23"/></g><path d="m6 5c-2.216 0-4 1.784-4 4v .5c0-2.216 1.784-4 4-4h12c2.216 0 4 1.784 4 4v-.5c0-2.216-1.784-4-4-4z" fill="#fff" opacity=".1"/></g></svg>