<svg height="22" width="22" xmlns="http://www.w3.org/2000/svg"><path d="m2.0146 15c-.56209 0-1.0146.44599-1.0146.99998v3.9999c0 .55384.45253.99998 1.0146.99998h.97068c.56209 0 1.0146-.44599 1.0146-.99998v-3.9999c0-.55399-.45254-.99998-1.0146-.99998zm17 0c-.56199 0-1.0145.44599-1.0145.99998v3.9999c0 .55384.45254.99998 1.0146.99998h.97068c.56249 0 1.015-.44599 1.015-.99998v-3.9999c0-.55384-.45254-.99998-1.0146-.99998h-.97068z" fill="#303030"/><path d="m .99998 20v .49999c0 .554.45252 1 1.0146 1h .97068c.56209 0 1.0146-.44599 1.0146-.99998v-.49999c0 .55384-.45253.99998-1.0146.99998h-.97068c-.56209 0-1.0146-.44599-1.0146-.99998zm17 0v .49999c0 .55384.45254.99998 1.0146.99998h.97068c.56249 0 1.015-.44599 1.015-.99998v-.49999c0 .55384-.45254.99998-1.0146.99998h-.97068c-.56249 0-1.015-.44599-1.015-.99998z" opacity=".2"/><path d="m24.002 4c-7.384 0-13.371 5.8328-13.371 13.031 0 1.2664.19247 2.487.53906 3.6445 0 0-2.0468 7.2865-1.3867 10.883.19231 1.0477.5872 2.0562 1.1094 3.0059 2.034-2.741 7.26-4.561 13.107-4.565 5.8442.0017 11.071 1.8183 13.111 4.5566.52053-.94737.91546-1.9531 1.1074-2.998.66062-3.5962-1.3867-10.883-1.3867-10.883.34789-1.1576.53906-2.3782.53906-3.6445.001-7.1969-5.982-13.031-13.368-13.031z" fill="#4f4f4f" transform="matrix(.49999445 0 0 .49999124 -1.000008 -.999765)"/><circle cx="7.5" cy="6" opacity=".2" r="1.5"/><circle cx="7.5" cy="5.5" fill="#fff" r="1.5"/><circle cx="14.5" cy="6" opacity=".2" r="1.5"/><circle cx="14.5" cy="5.5" fill="#fff" r="1.5"/><ellipse cx="11" cy="13.5" fill="#fff" rx="5" ry="5.5"/><path d="m10.652 16.609c-.0047.14138-.02149.27939-.02149.42188 0 1.0876.14856 2.1393.4082 3.1484.04005-.14956.13086-.50391.13086-.50391-.29338-.97985-.46832-2.0067-.51758-3.0664zm26.697 0c-.049 1.0597-.2231 2.0866-.51758 3.0664 0 0 .0911.35354.13086.50195.25989-1.0086.4082-2.0595.4082-3.1465 0-.14246-.01683-.28052-.02148-.42188zm-13.349 12.391c-5.847.004-11.073 1.824-13.107 4.564-.522-.949-.9171-1.958-1.1094-3.005-.0585-.319-.0901-.674-.1094-1.043-.016777.74262.0007672 1.4513.10938 2.043.19231 1.0477.5872 2.0562 1.1094 3.0059 2.034-2.74 7.26-4.56 13.107-4.564 5.8442.0017 11.071 1.8183 13.111 4.5566.52053-.94737.91546-1.9531 1.1074-2.998.10869-.59169.12612-1.3004.10938-2.043-.01932.36902-.05083.72428-.10938 1.043-.19196 1.045-.58689 2.0507-1.1074 2.998-2.04-2.739-7.267-4.555-13.111-4.557z" opacity=".2" transform="matrix(.49999445 0 0 .49999124 -1.000008 -.999765)"/><path d="m9.4998 7.0001h2.9999c-.2405 2.0545-1.5 3.9999-1.5 3.9999s-1.5-2.3091-1.5-3.9999z" opacity=".2"/><g fill="#303030"><circle cx="7.249815" cy="5.750155" r=".749985" stroke-width=".49999"/><circle cx="14.249675" cy="5.750155" r=".749985" stroke-width=".49999"/></g><path d="m9.4998 6.5001h2.9999c-.2405 2.0545-1.5 3.9999-1.5 3.9999s-1.5-2.3091-1.5-3.9999z" fill="#cd5252"/><path d="m11 11.5a2.4999 2.4999 0 0 0 -2.4999 2.4999 2.4999 2.4999 0 0 0 2.4999 2.4999 2.4999 2.4999 0 0 0 2.4999-2.4999 2.4999 2.4999 0 0 0 -2.4999-2.4999zm0 .99998a1.5 1.5 0 0 1  .97458.36034l-.975.563-.974-.562a1.5 1.5 0 0 1  .974-.361zm1.4746 1.2256a1.5 1.5 0 0 1  .0255.27449 1.5 1.5 0 0 1 -.99998 1.4131v-1.125l.97458-.56249zm-2.9482.000999.97363.56149v1.124a1.5 1.5 0 0 1 -1.0002-1.412 1.5 1.5 0 0 1  .0263-.273z" fill="#303030"/><path d="m11 14a6.9998 3.4999 0 0 0 -6.9998 3.4999 6.9998 3.4999 0 0 0  .29687.99998h-2.7969v1.5h4.6102a6.9998 3.4999 0 0 0 4.8894.99998 6.9998 3.4999 0 0 0 4.8964-.99998h4.6034v-1.5h-2.7949a6.9998 3.4999 0 0 0  .29499-.99998 6.9998 3.4999 0 0 0 -6.9998-3.4999z" fill="#f5432a"/><ellipse cx="-6.069" cy="13.522" fill="#4f4f4f" rx="1.775" ry="3.138" transform="matrix(.70175 -.71242 .86961 .49374 0 0)"/><ellipse cx="-17.313" cy="-2.703" fill="#4f4f4f" rx="1.775" ry="3.138" transform="matrix(-.70175 -.71242 -.86961 .49374 0 0)"/><circle cx="7" cy="17.5" opacity=".2" r="1"/><circle cx="7" cy="17" fill="#fff" r="1"/><circle cx="15" cy="17.5" opacity=".2" r="1"/><circle cx="15" cy="17" fill="#fff" r="1"/><path d="m10.75 15.5c-.1385 0-.25.33449-.25.74998v1.5c0 .41549.1115.74998.25.74998s.24999-.33449.24999-.74998v-1.5c0-.41549-.1115-.74998-.24999-.74998zm-.99998.49999c-.1385 0-.24999.223-.24999.49999v.99998c0 .27699.1115.49999.24999.49999.1385 0 .24999-.223.24999-.49999v-.99998c0-.27699-.1115-.49999-.24999-.49999z" opacity=".5"/><path d="m11.75 15.5c.1385 0 .24999.33449.24999.74998v1.5c0 .41549-.1115.74998-.24999.74998-.1385 0-.24999-.33449-.24999-.74998v-1.5c0-.41549.1115-.74998.24999-.74998zm.99998.49999c.1385 0 .25.223.25.49999v.99998c0 .27699-.1115.49999-.25.49999s-.24999-.223-.24999-.49999v-.99998c0-.27699.1115-.49999.24999-.49999z" opacity=".5"/><path d="m11.001 1.0002c-3.6919 0-6.6854 2.9163-6.6854 6.5153 0 .097208.00627.19296.010745.28905.1155-3.5004 3.0559-6.3043 6.6749-6.3043 3.6199 0 6.5584 2.8046 6.6739 6.3043.0045-.096098.01074-.19185.01074-.28905 0-3.5984-2.9914-6.5153-6.6844-6.5153zm6.48 8.5888c-.02142.083068-.04083.16719-.06543.24902 0 0 .70559 2.5344.74804 4.4198.08789-1.6789-.53039-4.1006-.68259-4.6688zm-12.962.001c-.1526.57-.7703 2.99-.6826 4.668.0425-1.886.7481-4.4199.7481-4.4199-.0245-.0815-.0442-.1653-.0655-.2481z" fill="#fff" opacity=".1"/><path d="m11 14a6.9998 3.4999 0 0 0 -6.9998 3.4999 6.9998 3.4999 0 0 0  .024499.2255 6.9998 3.4999 0 0 1 6.9753-3.2254 6.9998 3.4999 0 0 1 6.9753 3.2589 6.9998 3.4999 0 0 0  .0245-.25899 6.9998 3.4999 0 0 0 -6.9998-3.4999zm-9.4998 4.4999v.49999h2.7968a6.9998 3.4999 0 0 1 -.2142-.5h-2.5829zm16.418 0a6.9998 3.4999 0 0 1 -.21288.49999h2.7949v-.49999h-2.582z" fill="#fff" opacity=".2"/><path d="m4.0244 17.725a6.9998 3.4999 0 0 0 -.024499.27449 6.9998 3.4999 0 0 0  .083008.49999h.21386a6.9998 3.4999 0 0 1 -.2725-.774zm13.951.0332a6.9998 3.4999 0 0 1 -.27049.74148h.21288a6.9998 3.4999 0 0 0  .082-.49999 6.9998 3.4999 0 0 0 -.0245-.241zm-16.475 2.2414v.49999h4.6102a6.9998 3.4999 0 0 0 4.8898 1.001 6.9998 3.4999 0 0 0 4.896-1h4.6034v-.49999h-4.6034a6.9998 3.4999 0 0 1 -4.896 1 6.9998 3.4999 0 0 1 -4.8898-1h-4.6104z" opacity=".2"/><path d="m2.0146 15c-.56209 0-1.0146.44599-1.0146.99998v.49999c0-.55384.45253-.99998 1.0146-.99998h.97068c.56209 0 1.0146.44599 1.0146.99998v-.49999c0-.55399-.45254-.99998-1.0146-.99998zm17 0c-.56199 0-1.0145.44599-1.0145.99998v.49999c0-.55384.45254-.99998 1.0146-.99998h.97068c.56249 0 1.015.44599 1.015.99998v-.49999c0-.55384-.45254-.99998-1.0146-.99998h-.97068z" fill="#fff" opacity=".1"/></svg>