<svg height="22" viewBox="0 0 22 22" width="22" xmlns="http://www.w3.org/2000/svg"><circle cx="11" cy="11.5" opacity=".2" r="10"/><path d="m11 1a10 10 0 0 1 10 10h-10z" fill="#196260"/><path d="m11 21a10 10 0 0 1 -10-10h10z" fill="#97c33d"/><path d="m1 11 2.0000001 2 1.9999999-2z" fill="#5d7dbd"/><path d="m11 1a10 10 0 0 0 -10 10h10z" fill="#5d7dbd"/><path d="m21 11-2-2-2 2z" fill="#3f96b9"/><path d="m11 21a10 10 0 0 0 10-10h-10z" fill="#3f96b9"/><path d="m11 21 2-2-2-2z" fill="#97c33d"/><path d="m11 1-2 2.0000001 2 1.9999999z" fill="#196260"/><circle cx="11" cy="11.5" opacity=".2" r="6"/><circle cx="11" cy="11" fill="#f9f9f9" r="6"/><path d="m11 1a10 10 0 0 0 -10 10 10 10 0 0 0  .0107422.291016 10 10 0 0 1 9.9892578-9.791016 10 10 0 0 1 9.989258 9.708985 10 10 0 0 0  .010742-.208985 10 10 0 0 0 -10-10z" fill="#fff" opacity=".1"/></svg>