<svg height="22" width="22" xmlns="http://www.w3.org/2000/svg"><rect height="18" opacity=".2" rx="1" width="20" x="1" y="2.5"/><rect fill="#5d5544" height="18" rx="1" width="20" x="1" y="2"/><path d="m6 8.5h.5c.277 0 .5.223.5.5s-.2233.513-.5.5h-.5zm-1.5-2h .5v1h-.5c-.277 0-.5-.223-.5-.5s.223-.5.5-.5zm.5-2v1h-.5c-.831 0-1.5.669-1.5 1.5s.669 1.5 1.5 1.5h.5v1h-1.9082c.206.582.754 1 1.4082 1h .5v1h1v-1h .5c.831 0 1.5-.669 1.5-1.5s-.669-1.5-1.5-1.5h-.5v-1h1.9082c-.206-.582-.754-1-1.408-1h-.5v-1h-1z" opacity=".2"/><path d="m6 8h .5c.277 0 .5.223.5.5s-.223.513-.5.5h-.5zm-1.5-2h .5v1h-.5c-.277 0-.5-.223-.5-.5s.223-.5.5-.5zm.5-2v1h-.5c-.831 0-1.5.669-1.5 1.5s.669 1.5 1.5 1.5h.5v1h-1.9082c.206.582.754 1 1.4082 1h .5v1h1v-1h .5c.831 0 1.5-.669 1.5-1.5s-.669-1.5-1.5-1.5h-.5v-1h1.908c-.206-.582-.754-1-1.408-1h-.5v-1z" fill="#ffbe23"/><path d="m10 4h5v7h-5z" fill="#ffbe23" opacity=".5"/><path d="m10 11v .5h5v-.5z" opacity=".2"/><path d="m2 2c-.554 0-1 .446-1 1v .5c0-.554.446-1 1-1h18c .554 0 1 .446 1 1v-.5c0-.554-.446-1-1-1z" fill="#fff" opacity=".1"/></svg>