<svg height="22" width="22" xmlns="http://www.w3.org/2000/svg"><path d="m1.00585 11.25c-.00205.0835-.00585.166-.00585.25 0 5.54 4.46 10 10 10s10-4.46 10-10c0-.08394-.0038-.16657-.0059-.25-.132 5.423-4.538 9.75-9.994 9.75s-9.862-4.327-9.994-9.75z" opacity=".2"/><circle cx="11" cy="11" fill="#7a509e" r="10"/><path d="m11 1c-5.54 0-10 4.46-10 10 0 .084.004.1665.00585.25.13235-5.423 4.53815-9.75 9.994-9.75s9.862 4.32695 9.994 9.75c.002-.08343.0059-.166065.0059-.25 0-5.54-4.46-10-10-10z" fill="#fff" opacity=".1"/><circle cx="-11" cy="11.5" opacity=".2" r="7" transform="scale(-1 1)"/><circle cx="-11" cy="11" fill="#fae8a2" r="7" transform="scale(-1 1)"/><path d="m11.66115 4.03759a7 7 0 0 1 2.5333.73486c-.03535.112035.006.23842.13475.35.08715.07553.15855.193165.15855.261835 0 .209895-.1897.532175-.34125.579005-.20125.0623-.1337.27706.1253.39571.1197.05495.26705.21315.32725.3514.06055.1386.14945.2751.19775.30345.04795.0287.0875.13685.0875.2408 0 .14525-.0665.2156-.28455.30275-.1561.06265-.343.10815-.41545.10115-.41685-.0392-.4459.2037-.08155.6783.19355.252.28665.31535.4186.2835.12285-.0294.19005.00525.24605.12705.0588.12915.1554.1729.41475.19075.25515.01785.36925.06965.4648.2093.07.10185.1708.18445.22435.18445.05369 0 .17976.0686.28028.1519.20454.16975.28441.1869.356125.07595.09478-.147.299285-.0728.60361.21875.26915.2576.301735.32655.261135.5502-.07224.39795-.288085.7511-.534555.8743-.215075.10745-.219275.119-.08886.2569.075.07945.2037.1645.28574.18935.23695.0721.103565.1624-.319235.2163-.43274.05495-.56721.21175-.36505.4256.112735.11935.1064.14175-.07451.25515-.3535.2219-.63462.0861-.30282-.1463.213255-.14945.06412-.21035-.24885-.10185-.24955.08645-.2989.08155-.44625-.04655-.30275-.26215-.63175.12565-.3549.41825.17605.18655.12285.41125-.10535.4424-.1008.01365-.3101.10745-.4655.2086-.1554.1008-.3248.18375-.3759.18375s-.1953.10255-.3206.22785c-.2541.25375-.39515.28595-.4669.1071-.0861-.2149-.05145-.32585.1806-.5789.18445-.2016.4844-.7371.4844-.86555 0-.0791-.30485-.0119-.47565.10465-.10675.07315-.27965.1673-.3843.21-.1113.0455-.2268.1869-.27965.3416-.08225.2429-.1148.2639-.406.2639h-.31641l-.04795.56875c-.0574.68425-.11235.82285-.3472.8792-.1729.04165-.35735.3094-.35735.5187 0 .05565.12425.19215.27615.3031.1883.13755.2695.25445.2569.3689-.01575.14315.0168.16555.21945.1505.13055-.0098.35735.03605.50295.10185.17255.0777.35945.10255.5348.07105.2016-.03605.26985-.02205.26985.0567 0 .0581.0707.1666.1568.2415.2128.18445.12495.2821-.20195.2233-.203-.0364-.2821-.0203-.3171.0672-.07455.18585.11445.45185.2898.4081.1113-.028.1645.01015.19915.1414.0119.04655.03395.0861.0602.1197a7 7 0 0 1 -1.10775.32725c.035-.06685.0749-.12775.11375-.15505.18025-.1274.0595-.4585-.18865-.518-.25305-.0609-.21315-.22505.06195-.25655.24115-.0273.4977-.2716.4172-.39655-.05425-.08365-.2849-.0714-.75145.0392-.2107.0497-.35455-.0504-.8428-.5845-.28245-.3094-.4998-.4382-.73815-.4382-.091 0-.41545-.08365-.72135-.18585-.5775-.19355-.80325-.18655-.7819.0245.0441.4389-.23835.4242-.6986-.0357-.1918-.19145-.36715-.33005-.3899-.30835-.08785.08435.07035.4949.25515.66115.23415.2107.2457.3437.03955.44905-.1127.0581-.16065.17535-.1785.4389l-.0238.3598h-.2926c-.10255 0-.1876.014-.2562.04025a7 7 0 0 1 -3.3915-5.7771c.1071-.2289.0994-.36715 0-.5229a7 7 0 0 1  .0315-.39235c.0637-.0031.1288-.006.2037-.0028.3528.0147.65485-.12425.65485-.30135 0-.03745.1253-.1918.27825-.34265.1736-.1708.2625-.322.2366-.4004-.0238-.0714.0273-.18655.1176-.2646.08785-.0763.15995-.1988.15995-.2723 0-.11725.07455-.13195.6139-.119l.6139.01505-.0105.60515c-.0182 1.0598-.17605 1.3349-.6629 1.15745-.22295-.08155-.7707-.01995-.92645.1036-.05635.0448-.1379.2072-.18095.3612-.0434.15365-.2037.42-.357.59115-.3101.3472-.33425.48265-.15645.89005.15505.3556.32235.31465.2891-.07105l-.0245-.287.2625.049c.14525.02765.32725.13475.4088.2408.1162.15085.17045.1729.2576.10395.0609-.0483.11025-.15015.11025-.22575s.0749-.1596.1659-.18725c.09135-.02765.2163-.1652.27755-.30625.09835-.2254.0959-.29435-.01855-.56805-.11585-.27755-.1169-.3234-.01015-.42595.098-.0938.14875-.09695.27755-.0196.1295.07735.19075.07175.34475-.0315.10255-.06895.2821-.126.3983-.126.23625 0 .30765-.1148.30765-.4949 0-.35105.2093-.47845.7077-.4326.3458.03185.4221.0091.70105-.2058.17255-.13265.44485-.45185.60585-.71015s.33425-.52815.385-.59955c.0728-.10325.05495-.2023-.0875-.48335l-.1799-.3535.3801.05145c.6762.09135.81305.17885.5222.33495-.1134.06055-.1183.0917-.0308.19285.0574.0658.08435.17045.0595.2324-.02485.0616.0066.2072.06965.32305.06335.1162.1162.27895.1183.3626.0067.26075.45325.4683.95095.44065.7539-.04165.81515-.02975 1.0829.21875.3346.3108.37765.45535.2219.74375-.15085.28-.41895.39165-.88305.36855-.4151-.02065-.462.0161-.36715.2905.08085.2331.35175.3227.5355.1771.1414-.11235.62895-.02555.7784.13895.06265.0686.15575.2492.2065.4004.0875.2611.11305.2772.50505.315.3913.03815.4291.02555.7105-.2338.31395-.2891.36715-.5103.21595-.8911-.0672-.1687-.1169-.19635-.2961-.16345-.3549.06475-.4949-.05845-.4949-.4375 0-.18375.0357-.3556.07945-.3815.0434-.0259.0791-.1232.0791-.21665s.0448-.21385.09905-.2667c.07945-.077.0679-.1183-.0588-.2079-.0868-.06125-.2296-.10255-.3171-.09205-.08715.0105-.3283-.0273-.53585-.08365-.29995-.08085-.38815-.1421-.42875-.29995-.077-.2996-.26495-.54005-.42245-.54005-.24885 0-.2541-.5852-.01225-1.4364.0357-.12565.13405-.20545.30765-.2485.1407-.035.29365-.1309.33985-.21343.04585-.08253.1302-.14973.18725-.14973s.1687-.06832.24745-.15176c.07945-.084.2436-.15176.36855-.15176.29575 0 .30065-.20363.0074-.31101-.3098-.11354-.7921.03528-.90865.280245-.15785.332185-.3332.193585-.38955-.30828-.06965-.620725-.28385-.79912-.959-.79912h-.48545l.2128-.21259c.06615-.06636.1211-.147455.15925-.226975zm-2.5165.220115c.01365.01232.02695.0224.04025.036225.1624.16576.2387.189385.48965.151095.4382-.066815.38185.10962-.10325.322665-.26215.115185-.43085.246505-.48825.379365-.2765.64106-.4669.986195-.56245 1.021195-.1932.07105-.30835-.07154-.3514-.43603-.04935-.41818-.19075-.506835-.44485-.278215-.0987.088725-.2366.161315-.30625.161315-.21735 0-.378.087255-.378.2051 0 .06209-.0735.211715-.16345.33278-.13265.17815-.2226.22085-.4704.22085-.30415 0-.4907.05705-.8715.2674-.00595.00315-.0119.0042-.01785.00735a7 7 0 0 1 3.62775-2.391095zm8.85395 6.7123a7 7 0 0 1  .0013.0301 7 7 0 0 1 -.13671 1.3447c-.25361.10325-.32368.0623-.35-.1736-.01361-.12215-.07738-.2604-.142205-.30835-.100135-.07385-.08207-.11165.12306-.25165.13279-.09065.263655-.24885.290535-.3514.02604-.0994.1141-.2079.213955-.2898zm-2.203285 2.31385c.06545-.0067.144305.02835.231805.11235.185115.1771.15715.53305-.05264.67375-.240415.16135-.333165.11445-.363615-.18305-.03745-.3668.04095-.588.18445-.60305zm-1.1879 1.0584c.0714.0024.15015.05355.2289.16135.08365.1141.1064.26145.07455.4851-.03955.2751-.0224.3339.12145.40775.18515.0945.2247.3759.07315.5208-.1505.1442-.294.1064-.3458-.091-.0735-.2814-.48545-.3143-.76685-.0616-.12005.1078-.21805.1624-.21805.1211s.12495-.19145.27755-.33285c.23345-.217.27685-.3094.27685-.5887 0-.3941.12075-.62685.27825-.62195zm1.950865.9037a7 7 0 0 1 -.162015.2044c.04771-.07385.102165-.14455.162015-.2044zm-2.358965 1.0745c.03535.01225.0504.0567.0504.13475 0 .0791.0504.16205.112.18445.0819.0301.1008.12495.0693.3514-.006.04235-.0077.0763-.0098.11165a7 7 0 0 1 -.2912.14945c.0049-.1211-.01715-.26355-.0805-.44205-.10745-.3031-.1113-.37905-.0238-.43225.0819-.0497.1379-.06965.1736-.0574z" opacity=".2"/><path d="m11 4a7 7 0 0 0 -7 7 7 7 0 0 0  .010742.207031 7 7 0 0 1 6.989258-6.707031 7 7 0 0 1 6.989258 6.792969 7 7 0 0 0  .010742-.292969 7 7 0 0 0 -7-7z" fill="#fff" opacity=".1"/></svg>