<svg height="22" width="22" xmlns="http://www.w3.org/2000/svg"><path d="m8.9495.99993c-.2125.02307-.3995.19657-.4385.40627l-.4225 2.1406c-.7585.2961-1.4715.7032-2.0975 1.2032l-2.0817-.703c-.2163-.07465-.4786.022-.5948.2185l-2.0036 3.4687c-.1128.1995-.0644.4756.1096.625l1.6592 1.4531c-.05843.38962-.093915.7816-.093915 1.1875 0 .40587.035513.79785.093915 1.1875l-1.6592 1.4531c-.17402.14939-.22242.42548-.10957.625l2.0035 3.4687c.1162.19671.37853.29319.5948.21874l2.0818-.7031c.6257.49997 1.3388.9069 2.0975 1.2031l.4225 2.1415c.042825.22407.25673.40314.48524.40624h4.0071c.2285-.003.44239-.18217.48524-.40624l.42263-2.1406c.7587-.29618 1.4718-.70315 2.0975-1.2031l2.0818.7031c.21628.07444.47861-.02205.5948-.21874l2.0035-3.4687c.11286-.1995.06445-.4756-.10957-.625l-1.6592-1.4531c.05843-.38962.09392-.7816.09392-1.1875 0-.40587-.03551-.79785-.09392-1.1875l1.66-1.4519c.175-.1494.223-.4255.11-.625l-2.003-3.4687c-.1155-.1975-.378-.29415-.594-.2195l-2.082.7031c-.626-.5-1.339-.9071-2.098-1.2032l-.4225-2.1406c-.043-.2241-.257-.4032-.486-.40627h-4.0071c-.01563-.0005-.031305-.0005-.046935 0z" fill="#325f78"/><path d="m8.8975.99978c-.218.02282-.41.19442-.4495.40182l-.4335 2.1177c-.778.293-1.5095.6957-2.151 1.1902l-2.1347-.6955c-.2218-.0737-.4908.022-.60995.2165l-2.0546 3.4315c.027942.049475.067745.08671.11236.12366l.080255.06183 1.8619-3.1224c.1192-.1945.3882-.29.61-.2165l2.1348.6956c.6417-.4947 1.3729-.8972 2.1509-1.1902l.4334-2.1177c.03981-.20746.23165-.37904.44944-.40189.016025-.0004947.0321-.0004947.04813 0h4.1091c.23432.00297.45365.18022.49759.40189l.43338 2.1176c.77805.293 1.5092.6956 2.1509 1.1902l2.1348-.6956c.22178-.073645.49079.021815.60995.2164l1.8619 3.1224.08025-.06183c.04463-.03695.08441-.074185.11236-.12366l-2.055-3.4315c-.119-.1946-.388-.29-.61-.2164l-2.134.6956c-.642-.4945-1.373-.8971-2.151-1.1901l-.4335-2.1177c-.044-.22165-.263-.3988-.4975-.40185h-4.1091c-.016025-.0004947-.032105-.0004947-.04813 0zm-7.8815 6.9865c.0094.05846.019467.11922.048128.17003-.027942-.049475-.038009-.11431-.048128-.17003zm19.968 0c-.01012.055715-.02024.12056-.04813.17003.02871-.050805.03878-.11157.04813-.17003zm-18.154 2.1797c-.016334.15865-.023268.31914-.032103.47918.00308.08338.011249.16434.016025.24732.0132-.22827.029535-.45698.064205-.6801l-.04815-.0465zm16.34 0-.04813.04634c.03467.22314.051.45186.06421.6801.0046-.08297.01295-.16393.01602-.24732-.0088-.16004-.01577-.32052-.0321-.47918zm-16.34 1.9475-1.6533 1.3915c-.044635.03695-.084415.07418-.11236.12366l.1927.308 1.6212-1.376c-.0229-.147-.0329-.3-.0482-.448zm16.34 0c-.0153.14836-.02532.30122-.04813.44826l1.6212 1.3757.19262-.30914c-.02794-.04948-.06774-.08671-.11236-.12366l-1.654-1.392zm-18.17 1.808c.00154.02686.00991.05109.016026.07729-.0067-.0265-.0137-.05-.01605-.0775zm20 0c-.0025.02716-.0094.05097-.01602.07729.0062-.02622.01433-.05041.01602-.07729z" fill="#fff" opacity=".1"/><path d="m7 8.5v3h2v5h4v-5h2v-3z" opacity=".2"/><path d="m7 8v3h2v5h4v-5h2v-3z" fill="#fff"/><path d="m1.3145 8.2265-.00391.00782c-.1129.1995-.0637.4756.1103.625l1.6054 1.4062c.014985-.15153.03119-.30296.05371-.45313l-1.6591-1.4536c-.043505-.03735-.0792-.082805-.10644-.13281zm19.371 0c-.02725.05001-.06294.095465-.10644.13281l-1.6592 1.4531c.02251.15016.03872.3016.05371.45312l1.6054-1.4062c.17402-.14939.22321-.4255.11035-.625l-.0039-.00781zm-17.69 3.0235c-.00297.08351-.010742.16538-.010742.25 0 .24918.017164.49299.041015.7344l.05371-.04687c-.0462-.3085-.07265-.6205-.08395-.9375zm16.008 0c-.01128.31707-.03773.6291-.08398.9375l.05371.04687c.02385-.24138.04101-.48519.04101-.7344 0-.08461-.0078-.16649-.01074-.25zm-17.69 3.023c-.08174.15003-.08855.34256-.00391.49219l2.0039 3.4687c.1162.19671.37844.2932.59475.21875l2.082-.7031c.6257.49997 1.3389.90695 2.0976 1.2031l.42187 2.1406c.042825.22407.25684.40314.48535.40625h4.0078c.22851-.003.4425-.18218.48535-.40625l.42188-2.1406c.7587-.29618 1.4719-.70315 2.0976-1.2031l2.082.7031c.21628.07445.47852-.02206.59475-.21875l2.0039-3.4687c.08464-.14962.07783-.34216-.0039-.49219l-2 3.4609c-.1162.1967-.37844.2932-.59475.21875l-2.082-.7031c-.6257.49998-1.3389.90695-2.0976 1.2031l-.42188 2.1406c-.04284.22407-.25684.40325-.48535.40625h-4.0078c-.2286-.003-.4426-.182-.4854-.406l-.4219-2.141c-.7587-.296-1.4719-.703-2.0976-1.203l-2.082.7031c-.2164.075-.4786-.022-.5948-.219l-2-3.461z" opacity=".2"/></svg>