<svg height="22" width="22" xmlns="http://www.w3.org/2000/svg"><rect fill="#c2352a" height="18" rx="1" transform="matrix(0 -1 -1 0 0 0)" width="20" x="-21" y="-20"/><path d="m3 1c-.554 0-1 .446-1 1v .5c0-.554.446-1 1-1h16c .554 0 1 .446 1 1v-.5c0-.554-.446-1-1-1z" fill="#fff" opacity=".1"/><rect fill="#ebebeb" height="16" rx="0" ry=".516" width="14" x="4" y="3"/><path d="m11 16-3-3h2v-4h-2l3-3 3 3h-2v4h2z" fill="#3f3f3f" fill-rule="evenodd"/><path d="m2 20v .5c0 .554.446 1 1 1h16c .554 0 1-.446 1-1v-.5c0 .554-.446 1-1 1h-16c-.554 0-1-.446-1-1z" opacity=".2"/><path d="m4 4v-.5c0-.277.223-.5.5-.5h13c .277 0 .5.223.5.5v.5c0-.277-.223-.5-.5-.5h-13c-.277 0-.5.223-.5.5z" fill="#fff" opacity=".2"/></svg>