<svg height="22" viewBox="0 0 22 22" width="22" xmlns="http://www.w3.org/2000/svg"><g transform="translate(0 -1030.4)"><path d="m17.452 1034.7c-6.1367 3.1158-9.986 7.9092-13.434 12.996 1.605.6668 3.6854 1.3491 5.8382 1.9452 3.9539-2.0867 7.8417-4.255 9.4882-9.1807-.57628-2.099-1.238-4.1404-1.8919-5.761z" fill="#5bb1ec"/><path d="m15.171 1031.4c-2.7167.2284-14.711 12.322-14.151 14.417.14234.53 1.308 1.2115 2.9976 1.9137l13.433-13c-.75093-1.8614-1.4857-3.1681-2.0481-3.3181-.06771-.018-.14542-.024-.23313-.016z" fill="#2588c6"/><path d="m19.344 1040.5-9.4882 9.1807c4.8341 1.339 10.002 2.2243 10.825 1.3967.81248-.8129-.03462-5.8187-1.3403-10.577z" fill="#b1daf6"/><path d="m15.17 1031.4c-2.7184.2309-14.71 12.322-14.151 14.417.00457.017.019694.035.026366.053.73569-2.9706 11.559-13.752 14.125-13.969h.001c.08726-.01.16499-.0009.23242.017.56243.15 1.2969 1.4569 2.0478 3.3183l-.0078.01h.0088c.65388 1.6205 1.3154 3.661 1.8916 5.7597h-.002c.91195 3.3243 1.5984 6.764 1.6533 8.8152.06269-1.9545-.66251-5.7035-1.6533-9.3152.000234-.0007.00075 0 .001 0l .001-.001v-.001c-.57618-2.0986-1.2377-4.1392-1.8916-5.7596h-.0088l.0078-.01c-.75095-1.8613-1.4854-3.1682-2.0478-3.3182-.06743-.017-.14516-.024-.23242-.017h-.001z" fill="#fff" opacity=".2"/><path d="m1.0453 1045.8c-.043737.1765-.057733.3297-.026367.4472.14234.53 1.3084 1.2118 2.998 1.914l.00879-.01c-.00265 0-.00518.01-.00781.012 1.605.6669 3.685 1.3492 5.8378 1.9452 4.8341 1.3391 10.003 2.2251 10.826 1.3975.24474-.2449.33712-.8752.31347-1.7598-.01989.6203-.11778 1.064-.31347 1.2598-.82325.8276-5.9919-.058-10.826-1.3974-2.1528-.5961-4.2328-1.2784-5.8378-1.9453.00265 0 .00516-.01.00781-.012l-.00879.01c-1.6351-.6795-2.7705-1.3391-2.9716-1.8612z" opacity=".2"/></g></svg>