<svg height="22" width="22" xmlns="http://www.w3.org/2000/svg"><rect fill="#325f78" height="20" rx="1" transform="matrix(0 -1 -1 0 0 0)" width="16" x="-19" y="-21"/><path d="m-17-19h12v16h-12z" opacity=".2" transform="matrix(0 -1 -1 0 0 0)"/><path d="m2 3c-.554 0-1 .446-1 1v .5c0-.554.446-1 1-1h18c .554 0 1 .446 1 1v-.5c0-.554-.446-1-1-1z" fill="#fff" opacity=".1"/><path d="m1 18v .5c0 .554.446 1 1 1h18c .554 0 1-.446 1-1v-.5c0 .554-.446 1-1 1h-18c-.554 0-1-.446-1-1z" opacity=".2"/><circle cx="16" cy="16" fill="#cc5e55" r="6"/><path d="m15 12v5h2v-5zm0 6v2h2v-2z" fill="#fff"/></svg>