<svg height="22" width="22" xmlns="http://www.w3.org/2000/svg"><rect fill="#642c68" height="20" rx="1" transform="matrix(0 -1 -1 0 0 0)" width="20" x="-20" y="-20"/><path d="m1 0c-.554 0-1 .446-1 1v .5c0-.554.446-1 1-1h18c .554 0 1 .446 1 1v-.5c0-.554-.446-1-1-1z" fill="#fff" opacity=".1"/><path d="m1 20.5c-.554 0-1-.446-1-1v-.5c0 .554.446 1 1 1h18c .554 0 1-.446 1-1v .5c0 .554-.446 1-1 1z" opacity=".2"/><path d="m1 1.5v2h2v-2zm16 0v2h2v-2zm-16 4v2h2v-2zm16 0v2h2v-2zm-16 4v2h2v-2zm16 0v2h2v-2zm-16 4v2h2v-2zm16 0v2h2v-2zm-16 4v2h2v-2zm16 0v2h2v-2z" opacity=".2"/><path d="m1 1v2h2v-2zm16 0v2h2v-2zm-16 4v2h2v-2zm16 0v2h2v-2zm-16 4v2h2v-2zm16 0v2h2v-2zm-16 4v2h2v-2zm16 0v2h2v-2zm-16 4v2h2v-2zm16 0v2h2v-2z" fill="#fff"/><path d="m5 2.5h10v7h-10z" opacity=".2"/><path d="m5 2h10v7h-10z" fill="#fff"/><path d="m5 11.5h10v7h-10z" opacity=".2"/><path d="m5 11h10v7h-10z" fill="#fff"/><circle cx="16" cy="15.5" opacity=".2" r="6"/><circle cx="16" cy="15" fill="#96be4e" r="6"/><path d="m14.154 12c-.63723 0-1.1538.51659-1.1538 1.1538 0 .63723.51659 1.1538 1.1538 1.1538.20588 0 .39515-.06416.56251-.15865l.90875.85106-.90875.85106c-.16754-.09461-.35676-.15877-.5626-.15877-.63737 0-1.1538.51645-1.1538 1.1538 0 .63723.51659 1.1538 1.1538 1.1538.63723 0 1.1538-.51659 1.1538-1.1538 0-.10576-.01661-.20557-.04324-.30288l.98075-.9519 2.0626 1.9467h.69229v-.46153l-3.7356-3.6202c.02668-.09731.04324-.19711.04324-.30288 0-.63723-.51659-1.1538-1.1538-1.1538zm0 .69229c.25489 0 .46153.20664.46153.46153s-.20664.46153-.46153.46153-.46153-.20664-.46153-.46153.20664-.46153.46153-.46153zm4.1538-.23076-1.8175 1.7164.60599.59122 1.9038-1.8461v-.46153zm-4.1538 3.923c.25489 0 .46153.20664.46153.46153s-.20664.46153-.46153.46153-.46153-.20664-.46153-.46153.20664-.46153.46153-.46153z" fill="#fff"/></svg>