<svg height="22" width="22" xmlns="http://www.w3.org/2000/svg"><path d="m9 1.5v2.2597656a8 8 0 0 0 -5.734375 5.7402344h-2.265625v4h2.2597656a8 8 0 0 0 5.7402344 5.734375v2.265625h4v-2.259766a8 8 0 0 0 5.734375-5.740234h2.265625v-4h-2.259766a8 8 0 0 0 -5.740234-5.734375v-2.265625z" opacity=".2"/><path d="m9 1v2.2597656a8 8 0 0 0 -5.734375 5.7402344h-2.265625v4h2.2597656a8 8 0 0 0 5.7402344 5.734375v2.265625h4v-2.259766a8 8 0 0 0 5.734375-5.740234h2.265625v-4h-2.259766a8 8 0 0 0 -5.740234-5.734375v-2.265625z" fill="#1e80ff"/><rect height="10" opacity=".2" rx="5" transform="matrix(0 -1 -1 0 0 0)" width="10" x="-16.5" y="-16"/><rect fill="#fff" height="10" rx="5" transform="matrix(0 -1 -1 0 0 0)" width="10" x="-16" y="-16"/><path d="m9 1v .5h4v-.5zm0 2.2597656a8 8 0 0 0 -5.734375 5.7402344h-2.265625v.5h2.265625a8 8 0 0 1 5.734375-5.7402344zm4 .00586v.5a8 8 0 0 1 5.740234 5.7343744h2.259766v-.5h-2.259766a8 8 0 0 0 -5.740234-5.734375z" fill="#fff" opacity=".2"/></svg>