<svg height="22" viewBox="0 0 22 22" width="22" xmlns="http://www.w3.org/2000/svg"><path d="m11 1a10 10 0 0 0 -10 10 10 10 0 0 0 10 10 10 10 0 0 0 10-10 10 10 0 0 0 -10-10z" fill="#f3b616"/><path d="m1.01075 11.209a10 10 0 0 0 -.01075.291 10 10 0 0 0 10 10 10 10 0 0 0 10-10 10 10 0 0 0 -.0105-.209 10 10 0 0 1 -9.9895 9.709 10 10 0 0 1 -9.989-9.791z" opacity=".2"/><path d="m11 1a10 10 0 0 0 -10 10 10 10 0 0 0  .01075.209 10 10 0 0 1 9.989-9.709 10 10 0 0 1 9.9895 9.791 10 10 0 0 0  .0105-.291 10 10 0 0 0 -10-10z" fill="#fff" opacity=".2"/><path d="m18.44905 1.5c.353048.0000206.550349.2795412.591899.8385724l-.445933 2.6327176h.109034l.233642-.195018h.06231v.058506c-.321929.247038-.633456.92309-.934581 2.028166-.11424.9490935-.30635 1.8266645-.576327 2.632723-.238847.832078-.358267 1.599138-.358252 2.301192l-.451715 1.384614c-.00001.117015.171328.234026.514018.351027-.06232.27303-.155775.409542-.280372.409538v.07801h.109034v.0585c-.000015.143019-.176543.214525-.529595.21452l.0623.07801v.273021h-.109034c.07268.273031.22844.409538.467292.409538v.136508h-.467292v.07801c.15575.000005.233636.117016.233646.351032l-.654203.27302.0623.07801v.05851c-.000009.09101-.07789.136512-.233646.136512v.078c.197287.000005.29594.04549.29595.136513-.280382.117011-.649021.695559-1.105917 1.735645-.467296.923066-.87228 1.384603-1.214946 1.384603h-.124612c-.259613-.208019-.472492-.897078-.638629-2.067176-.664598-1.781144-.996893-2.82773-.996883-3.139759-.00001-.806059-.212888-1.164292-.63863-2.074371-.114235-.403027-.192115-1.107791-.233646-1.718853h-.280372c-.706134 1.339119-1.074773 2.005584-1.105922 2.759638-.197301.442041-.353067.975085-.467288 1.599133.425748.143018.638626.279526.638631.409532v.07801c-.332304-.052-.565946-.149511-.700939-.292524-.145379.351032-.3374895.92604-.5763215 2.525167-.1869195.741064-.4205655 1.021131-.700933 1.021131-.789205-.325025-1.4486025-.767607-1.978193-1.508671-.083076.000006-.218074-.370529-.404984-1.111592-.11423.000005-.1921105-.370529-.233646-1.111593-.3946025-1.053082-.6645885-1.85561-.809968-3.207725v-2.028172h-.062308l-.2803724.07801v-.07801c0-.09099.093457-.136497.2803724-.136507l-.062303-1.1700985v-.9165795l-.4517155-3.4248886v-1.2481049c.1973012-.7800465.5399815-1.1700774 1.0280365-1.1700979l.186925.195018-.186915-.058505c.758046 1.0401013 1.20457 2.4173208 1.339563 3.1323663h.5295955v.1365125h-.4049835v.1560145c.1557605.5980601.2699855.8970876.3426805.8970726h.1246115l.280372-.078008.062304.078008.062308-.078008.062303.078008v.058505c-.2076875.156025-.347871.3705445-.420561.6435545h-.04672v.1365075h.1090345c.1453745 2.1711955.4153655 3.3154615.809968 4.4335495l.233646.195013h.1246065c.155761.00001.4828645.239651.9813105-1.281484.321908-.689043.555549-1.193586.700933-1.7136392l-.0623-.2145201c.3219-.5070314.654194-.7605494.996879-.7605649h.109035c.218064.0000155.373825.1430235.467292.4290395.290749.429045.524395.972592.700933 1.8306507l.872276 2.028166c.114216.143024.171328.305534.171338.487546.321903.767066.612657.956281.872276 1.203299h.186915c.218059.000005.508813-1.131087.872271-3.029252.0623.00001.233636-.507032.514018-1.521126v-.078007l-.29634-.136513-.233646.078008h-.29595v-.1560145l.591899-.058506h.467683c.44651-1.677124.856685-2.977234 1.230529-3.9003245.124597-1.8981397.29594-2.8472172.514019-2.8472326l.850922-.3510324" opacity=".2"/><path d="m18.44905 1c .353048.0000206.550349.2795412.591899.8385724l-.445933 2.6327176h.109034l.233642-.195018h.06231v.058506c-.321929.247038-.633456.92309-.934581 2.028166-.11424.9490935-.30635 1.8266645-.576327 2.632723-.238847.832078-.358267 1.599138-.358252 2.301192l-.451715 1.384614c-.00001.117015.171328.234026.514018.351027-.06232.27303-.155775.409542-.280372.409538v.07801h.109034v.0585c-.000015.143019-.176543.214525-.529595.21452l.0623.07801v.273021h-.109034c.07268.273031.22844.409538.467292.409538v.136508h-.467292v.07801c.15575.000005.233636.117016.233646.351032l-.654203.27302.0623.07801v.05851c-.000009.09101-.07789.136512-.233646.136512v.078c.197287.000005.29594.04549.29595.136513-.280382.117011-.649021.695559-1.105917 1.735645-.467296.923066-.87228 1.384603-1.214946 1.384603h-.124612c-.259613-.208019-.472492-.897078-.638629-2.067176-.664598-1.781144-.996893-2.82773-.996883-3.139759-.00001-.806059-.212888-1.164292-.63863-2.074371-.114235-.403027-.192115-1.107791-.233646-1.718853h-.280372c-.706134 1.339119-1.074773 2.005584-1.105922 2.759638-.197301.442041-.353067.975085-.467288 1.599133.425748.143018.638626.279526.638631.409532v.07801c-.332304-.052-.565946-.149511-.700939-.292524-.145379.351032-.3374895.92604-.5763215 2.525167-.1869195.741064-.4205655 1.021131-.700933 1.021131-.789205-.325025-1.4486025-.767607-1.978193-1.508671-.083076.000006-.218074-.370529-.404984-1.111592-.11423.000005-.1921105-.370529-.233646-1.111593-.3946025-1.053082-.6645885-1.85561-.809968-3.207725v-2.028172h-.062308l-.2803724.07801v-.07801c0-.09099.093457-.1364975.2803724-.1365075l-.062303-1.170098v-.9165795l-.4517155-3.4248886v-1.2481049c.1973012-.7800465.5399815-1.1700774 1.0280365-1.1700979l.186925.195018-.186915-.058505c.758046 1.0401013 1.20457 2.4173208 1.339563 3.1323663h.5295955v.1365125h-.4049835v.1560145c.1557605.5980601.2699855.8970876.3426805.8970726h.1246115l.280372-.078008.062304.078008.062308-.078008.062303.078008v.058505c-.2076875.156025-.347871.3705445-.420561.6435545h-.04672v.1365075h.1090345c.1453745 2.1711955.4153655 3.3154615.809968 4.4335495l.233646.195013h.1246065c.155761.00001.4828645.239651.9813105-1.281484.321908-.689043.555549-1.1935863.700933-1.7136392l-.0623-.2145201c.3219-.5070314.654194-.7605494.996879-.7605649h.109035c.218064.0000155.373825.1430235.467292.4290395.290749.429045.524395.972592.700933 1.8306507l.872276 2.028166c.114216.143024.171328.305534.171338.487546.321903.767066.612657.956281.872276 1.203299h.186915c.218059.000005.508813-1.131087.872271-3.029252.0623.00001.233636-.507032.514018-1.521126v-.078007l-.29634-.136513-.233646.078008h-.29595v-.1560145l.591899-.058506h.467683c.44651-1.677124.856685-2.977234 1.230529-3.9003245.124597-1.8981397.29594-2.8472172.514019-2.8472326l.850922-.3510324" fill="#fff"/></svg>