<svg height="22" width="22" xmlns="http://www.w3.org/2000/svg"><path d="m5.0002 3.89967v10.3001c0 .4435.3565.8.79999.8h14.4c.443 0 .79949-.3565.79949-.8v-10.3001h-16z" fill="#d3d3d3"/><path d="m5.8002.99967c-.4435 0-.8.3639-.8.8162v2.1838h16v-2.1838c0-.4523-.356-.8162-.8-.8162z" fill="#5a6367"/><path d="m21 2.04317v-.2492c0-.4417-.353-.7942-.797-.7942h-14.406c-.4435 0-.79699.35252-.79699.79424v.24917c0-.44172.35367-.79424.79689-.79424h14.406c.4435 0 .79699.35252.79699.79424z" fill="#fff" opacity=".1"/><path d="m5.0002 14.20367v.49833c0 .44202.3565.79733.79999.79733h14.4c.444.001.8-.354.8-.796v-.499c0 .44202-.3565.79733-.79999.79733h-14.4c-.4435 0-.79999-.35531-.79999-.79733z" opacity=".2"/><path d="m1.0002 9.89967v10.3c0 .4435.3566.8.79979.8h14.4c.443 0 .79949-.3565.79949-.8v-10.3h-15.999z" fill="#e4e4e4"/><path d="m1.8 7.04637c-.4432 0-.79979.35531-.79979.79733v2.15597h16v-2.15587c0-.44202-.3565-.79733-.79999-.79733h-14.4z" fill="#636e73"/><path d="m1.0002 20.20367v.49833c0 .443.3566.798.7998.798h14.4c.4435 0 .79999-.35531.79999-.79733v-.49833c0 .44202-.3565.79733-.79999.79733h-14.4c-.4434 0-.8-.356-.8-.798z" opacity=".2"/></svg>