<svg height="22" width="22" xmlns="http://www.w3.org/2000/svg"><rect fill="#e4e4e4" height="20" rx="1" transform="matrix(0 -1 -1 0 0 0)" width="20" x="-21" y="-21"/><path d="m9.8571 4c-.3165 0-.8672.2403-.8571.5385v8.4615h-2l4 5 4-5h-2v-8.4615c0-.2983-.541-.5385-.857-.5385z" fill="#3f3f3f"/><path d="m1 2.5v-.5c0-.554.446-1 1-1h18c .554 0 1 .446 1 1v .5c0-.554-.446-1-1-1h-18c-.554 0-1 .446-1 1z" fill="#fff" opacity=".1"/><path d="m1 20v .5c0 .554.446 1 1 1h18c .554 0 1-.446 1-1v-.5c0 .554-.446 1-1 1h-18c-.554 0-1-.446-1-1z" opacity=".2"/><circle cx="17" cy="17" fill="#f2ab56" r="5"/><path d="m16.223 14-.06613.7902a2.3572 2.3572 0 0 0 -.6889.39844l-.7182-.33818-.75 1.2991.65205.45285a2.3572 2.3572 0 0 0 -.036.3976 2.3572 2.3572 0 0 0  .0343.39928l-.6505.4515.75 1.2991.7165-.33733a2.3572 2.3572 0 0 0  .69055.39592l.06613.79185h1.5l.06612-.7902a2.3572 2.3572 0 0 0  .6889-.39844l.7182.33817.75-1.2991-.65205-.45285a2.3572 2.3572 0 0 0  .036-.3976 2.3572 2.3572 0 0 0 -.0343-.39928l.6504-.45118-.75-1.2991-.7165.33734a2.3572 2.3572 0 0 0 -.6905-.395l-.06612-.79185h-1.5zm.75 2.1428a.85715.85715 0 0 1  .857.857.85715.85715 0 0 1 -.857.857.85715.85715 0 0 1 -.857-.857.85715.85715 0 0 1  .857-.857z" fill="#fff"/></svg>