<svg height="22" width="22" xmlns="http://www.w3.org/2000/svg"><g fill="#8e8e8e"><g transform="rotate(90)"><path d="m14-20h1v19h-1z"/><path d="m12-20h1v19h-1z"/><path d="m10-20h1v19h-1z"/><path d="m8-20h1v19h-1z"/><path d="m16-20h1v19h-1z"/><path d="m18-20h1v19h-1z"/><path d="m6-20h1v19h-1z"/><path d="m4-20h1v19h-1z"/></g><path d="m10 2h1v19h-1z"/><path d="m8 2h1v19h-1z"/><path d="m6 2h1v19h-1z"/><path d="m4 2h1v19h-1z"/><path d="m12 2h1v19h-1z"/><path d="m14 2h1v19h-1z"/><path d="m16 2h1v19h-1z"/><path d="m2 2h1v19h-1z"/><path d="m18 2h1v19h-1z"/></g><rect height="17" opacity=".2" rx=".85" ry="1.063" transform="matrix(0 -1 -1 0 0 0)" width="17" x="-20.5" y="-19"/><rect fill="#b7b7b7" height="17" rx=".85" ry="1.063" transform="matrix(0 -1 -1 0 0 0)" width="17" x="-20" y="-19"/><path d="m3.0625 3c-.588625 0-1.0625.3787094-1.0625.8496094v.5c0-.4709.473875-.8496094 1.0625-.8496094h14.875c.588625 0 1.0625.3787094 1.0625.8496094v-.5c0-.4709-.473875-.8496094-1.0625-.8496094z" fill="#fff" opacity=".2"/><path d="m10.000001 4.5000004c-1.108 0-2.000001.892-2.000001 1.9999997v4.9999999c0 .0135.0035.0255.004.039a4 4 0 0 0 -2.004 3.461 4 4 0 0 0 4.000001 4 4 4 0 0 0 4-4 4 4 0 0 0 -2.004-3.463c0-.013.004-.025.004-.037v-4.9999999c0-1.1079997-.892-1.9999997-2-1.9999997zm0 1c .554 0 1 .446 1 .9999997v5.6759999a3 3 0 0 1 2 2.824 3 3 0 0 1 -3 3 3 3 0 0 1 -3.000001-3 3 3 0 0 1 2.000001-2.825v-5.6749999c0-.5539997.446-.9999997 1-.9999997z" fill-rule="evenodd" opacity=".5"/><path d="m9.000001 10.0002v2.6748c-1.1975007.423-1.998501 1.555-2.000001 2.825 0 1.6568 1.343201 3 3.000001 3s3-1.3432 3-3c-.0018-1.2698-.8028-2.401-2-2.8242v-2.676z" opacity=".2"/><path d="m9.000001 9.5v2.6748c-1.1975007.423-1.998501 1.555-2.000001 2.825 0 1.6568 1.343201 3 3.000001 3s3-1.3432 3-3c-.0018-1.2698-.8028-2.401-2-2.8242v-2.676z" fill="#f75f5f"/></svg>