<svg height="22" width="22" xmlns="http://www.w3.org/2000/svg"><rect fill="#5294e2" height="12" rx=".75" width="18" x="2" y="1"/><rect height="12" opacity=".1" rx=".75" width="18" x="2" y="2.5"/><rect fill="#89e058" height="12" rx=".75" width="18" x="2" y="3"/><rect height="12" opacity=".1" rx=".75" width="18" x="2" y="4.5"/><rect fill="#ffcd54" height="12" rx=".75" width="18" x="2" y="5"/><rect height="14" opacity=".2" rx="1" width="20" x="1" y="7.5"/><rect fill="#8e8e8e" height="14" rx="1" width="20" x="1" y="7"/><rect height="2" opacity=".2" rx=".5" width="6" x="8" y="12.5"/><rect fill="#ececec" height="2" rx=".5" width="6" x="8" y="12"/><g fill="#fff"><path d="m2.75 1c-.4155 0-.75.3345-.75.75v.5c0-.4155.3345-.75.75-.75h16.5c.416 0 .75.3345.75.75v-.5c0-.4155-.334-.75-.75-.75z" opacity=".1"/><path d="m2.75 3c-.4155 0-.75.3345-.75.75v.5c0-.4155.3345-.75.75-.75h16.5c.416 0 .75.3345.75.75v-.5c0-.4155-.334-.75-.75-.75z" opacity=".1"/><path d="m2.75 5c-.4155 0-.75.3345-.75.75v.5c0-.4155.3345-.75.75-.75h16.5c.416 0 .75.3345.75.75v-.5c0-.4155-.334-.75-.75-.75z" opacity=".1"/></g></svg>