<svg height="22" width="22" xmlns="http://www.w3.org/2000/svg"><path d="m11.058707 2.499885c-1.168687-.00599-2.3595294.2173641-3.5097659.6953125-4.6009463 1.9118832-6.76562645 7.1550275-4.8535156 11.7558595 1.9118854 4.600833 7.1549115 6.765579 11.7558595 4.853516 4.600945-1.911613 6.765627-7.155027 4.853516-11.7558599-1.433746-3.4506696-4.740933-5.530828-8.246094-5.5488281zm-.05859 4a4.9999996 4.9998763 0 0 1 5 5 4.9999996 4.9998763 0 0 1 -5 5 4.9999996 4.9998763 0 0 1 -5-5 4.9999996 4.9998763 0 0 1 5-5z" opacity=".2"/><path d="m11.058707 2c-1.168687-.00599-2.3595294.2173641-3.5097659.6953125-4.6009463 1.9118832-6.76562645 7.1550275-4.8535156 11.7558595 1.9118854 4.600833 7.1549115 6.765579 11.7558595 4.853516 4.600945-1.911613 6.765627-7.155027 4.853516-11.7558599-1.433746-3.4506696-4.740933-5.530828-8.246094-5.5488281zm-.05859 4a4.9999996 4.9998763 0 0 1 5 5 4.9999996 4.9998763 0 0 1 -5 5 4.9999996 4.9998763 0 0 1 -5-5 4.9999996 4.9998763 0 0 1 5-5z" fill="#e4e4e4"/><path d="m11.058707 2c-1.168687-.00599-2.3595294.2173641-3.5097659.6953125-3.5399683 1.471003-5.6287698 4.9143024-5.5371093 8.5195315.1045681-3.4201213 2.1611824-6.6166944 5.5371093-8.0195315 1.1502365-.4779484 2.3410789-.7013025 3.5097659-.6953125 3.505161.018 6.812348 2.0981585 8.246094 5.5488281.440932 1.0609519.656121 2.1557719.683593 3.2363279.037945-1.241079-.174487-2.5113387-.683593-3.7363279-1.433746-3.4506696-4.740933-5.530828-8.246094-5.5488281zm4.93164 9.197266a4.9999996 4.9998763 0 0 1 -4.990234 4.802734 4.9999996 4.9998763 0 0 1 -4.9902344-4.697266 4.9999996 4.9998763 0 0 0 -.0097656.197266 4.9999996 4.9998763 0 0 0 5 5 4.9999996 4.9998763 0 0 0 5-5 4.9999996 4.9998763 0 0 0 -.0098-.302734z" fill="#fff" opacity=".2"/><path d="m11.06066 1.499885c-1.165703-.0055469-2.3498449.1898022-3.4960939.5976562a.87803765.81823541 0 0 0 -.5078125 1.0546876l1.5605469 3.8164062a.87803765.81823541 0 0 0 1.1328125.4746094c.398571-.1418395.821413-.2143136 1.248047-.2148438.426336.00147.848144.074222 1.246094.2167969a.87803765.81823541 0 0 0 1.134765-.4726563l1.564453-3.8203124a.87803765.81823541 0 0 0 -.509765-1.0566407c-1.064746-.3778968-2.204222-.5901416-3.373047-.5957031zm-8.7031251 6a .81823541.87803765 0 0 0 -.7597657.5644531c-.407854 1.1462489-.60315625 2.3303909-.5976562 3.4960939.00556 1.168825.2178061 2.308301.5957031 3.373047a.81823541.87803765 0 0 0 1.0566407.509765l3.8203124-1.5625a.81823541.87803765 0 0 0  .4726563-1.136718c-.142578-.39795-.21725-.819758-.21875-1.246094.00053-.426634.074958-.849476.2167969-1.248047a.81823541.87803765 0 0 0 -.4746094-1.132812l-3.8164062-1.5605474a.81823541.87803765 0 0 0 -.2949219-.0566406zm17.2851561 0a .81823541.87803765 0 0 0 -.294922.056641l-3.816406 1.560547a.81823541.87803765 0 0 0 -.474609 1.132812c.14184.398571.214313.821413.214843 1.248047-.0015.426336-.07422.848144-.216796 1.246094a.81823541.87803765 0 0 0  .472656 1.136718l3.820312 1.5625a.81823541.87803765 0 0 0 1.056641-.509765c.377897-1.064746.590142-2.204222.595703-3.373047.0055-1.165703-.189802-2.349845-.597656-3.4960939a.81823541.87803765 0 0 0 -.759766-.5644531zm-7.052734 8a .87803765.81823541 0 0 0 -.345703.05469c-.39795.142578-.819758.217249-1.246094.21875-.426634-.000531-.849476-.07496-1.248047-.216797a.87803765.81823541 0 0 0 -1.1328125.474609l-1.5605469 3.816406a.87803765.81823541 0 0 0  .5078125 1.054688c1.146249.407854 2.3303909.603156 3.4960939.597656 1.168825-.0056 2.308301-.217806 3.373047-.595703a.87803765.81823541 0 0 0  .509765-1.056641l-1.564453-3.820312a.87803765.81823541 0 0 0 -.789062-.527344z" opacity=".2"/><path d="m11.06066 1c-1.165703-.00554685-2.3498449.1898022-3.4960939.5976562a.87803765.81823541 0 0 0 -.5078125 1.0546876l1.5605469 3.8164062a.87803765.81823541 0 0 0 1.1328125.4746094c.398571-.1418395.821413-.2143136 1.248047-.2148438.426336.00147.848144.074222 1.246094.2167969a.87803765.81823541 0 0 0 1.134765-.4726563l1.564453-3.8203124a.87803765.81823541 0 0 0 -.509765-1.0566407c-1.064746-.3778968-2.204222-.5901416-3.373047-.5957031zm-8.7031251 6a .81823541.87803765 0 0 0 -.7597657.5644531c-.407854 1.146249-.60315625 2.3303909-.5976562 3.4960939.00556 1.168825.2178061 2.308301.5957031 3.373047a.81823541.87803765 0 0 0 1.0566407.509765l3.8203124-1.5625a.81823541.87803765 0 0 0  .4726563-1.136718c-.142578-.39795-.21725-.819758-.21875-1.246094.00053-.426634.074958-.849476.2167969-1.248047a.81823541.87803765 0 0 0 -.4746094-1.1328125l-3.8164062-1.5605469a.81823541.87803765 0 0 0 -.2949219-.0566406zm17.2851561 0a .81823541.87803765 0 0 0 -.294922.056641l-3.816406 1.5605465a.81823541.87803765 0 0 0 -.474609 1.1328125c.14184.398571.214313.821413.214843 1.248047-.0015.426336-.07422.848144-.216796 1.246094a.81823541.87803765 0 0 0  .472656 1.136718l3.820312 1.5625a.81823541.87803765 0 0 0 1.056641-.509765c.377897-1.064746.590142-2.204222.595703-3.373047.0055-1.165703-.189802-2.3498449-.597656-3.4960939a.81823541.87803765 0 0 0 -.759766-.5644531zm-7.052734 8a .87803765.81823541 0 0 0 -.345703.05469c-.39795.142578-.819758.217249-1.246094.21875-.426634-.000533-.849476-.07496-1.248047-.216799a.87803765.81823541 0 0 0 -1.1328125.474609l-1.5605469 3.816406a.87803765.81823541 0 0 0  .5078125 1.054688c1.146249.407854 2.3303909.603156 3.4960939.597656 1.168825-.0056 2.308301-.217806 3.373047-.595703a.87803765.81823541 0 0 0  .509765-1.056641l-1.564453-3.820312a.87803765.81823541 0 0 0 -.789062-.527344z" fill="#e74c3c"/></svg>