<svg height="22" width="22" xmlns="http://www.w3.org/2000/svg"><path d="m11 1h-9c-.554 0-1 .446-1 1v9h10z" fill="#cf4f8c"/><path d="m11 1h9c .554 0 1 .446 1 1v9h-10z" fill="#2086e7"/><path d="m11 21h-9c-.554 0-1-.446-1-1v-9h10z" fill="#2086e7"/><path d="m11 21h9c .554 0 1-.446 1-1v-9h-10z" fill="#6655e4"/><path d="m2 1c-.554 0-1 .446-1 1v .5c0-.554.446-1 1-1h18c .554 0 1 .446 1 1v-.5c0-.554-.446-1-1-1z" fill="#fff" opacity=".2"/><path d="m2 21.5c-.554 0-1-.446-1-1v-.5c0 .554.446 1 1 1h18c .554 0 1-.446 1-1v .5c0 .554-.446 1-1 1z" opacity=".2"/><path d="m4 4h14v14h-14z" fill="#3f3f3f"/><g fill="none" stroke-linecap="round"><path d="m6.5071212 14.99995h3.9999998" opacity=".2" stroke="#000"/><path d="m6.5071212 14.5h3.9999998" stroke="#fff"/><path d="m7.5072927 10.999879v-2.0000016m.9927073-1.9999995-.9927073 1.9999995m-1.0072927-1.9999995 1.0072927 1.9999995" opacity=".2" stroke="#000"/><path d="m7.5072927 10.500001v-2.000001m.9927073-1.9999995-.9927073 1.9999995m-1.0072927-1.9999995 1.0072927 1.9999995" stroke="#fff"/><path d="m10.507121 6.99995h2m-.999999 4.000001v-4.000001" opacity=".2" stroke="#000"/><path d="m10.507121 6.5h2m-.999999 4.000001v-4.000001" stroke="#fff"/></g></svg>