<svg height="64" viewBox="0 0 64 64" width="64" xmlns="http://www.w3.org/2000/svg"><g fill-rule="evenodd"><path d="m4.5999733 30.001002c-2.094033.01031-3.3228371 2.352062-2.1370514 4.072499l14.3454981 20.799198c.486641.705716 1.29068 1.127337 2.149788 1.127301h26.082724c.859106.000036 1.663146-.421585 2.149788-1.127301l14.345498-20.799198c1.252192-1.818845-.1937-4.267884-2.39686-4.059804l-27.13979 2.876081-27.1397863-2.876081c-.086336-.0084-.173048-.0128-.2598084-.0128z" opacity=".2"/><path d="m4.5999733 29.001073c-2.094033.01031-3.3228371 2.352062-2.1370514 4.072499l14.3454981 20.799198c.486641.705716 1.29068 1.127337 2.149788 1.127301h26.082724c.859106.000036 1.663146-.421585 2.149788-1.127301l14.345498-20.799198c1.252192-1.818846-.1937-4.267884-2.39686-4.059804l-27.13979-.013768-27.1397863.013768c-.086336-.0084-.173048-.0128-.2598084-.0128z" fill="#bcbcbc"/><path d="m4.8666321 29.015178 27.1325459 6.985587 27.132548-6.985587-27.132548-.014157z" opacity=".3"/><path d="m32.089024 9.0035015c-.87978-.034003-1.70704.4291128-2.155258 1.2065525l-15.592814 27.072903c-1.073306 1.862718.550023 4.137767 2.60505 3.650901l15.053998-4.933093 15.054002 4.933093c2.055024.486864 3.678352-1.788183 2.605046-3.650901l-15.592812-27.072903c-.415894-.7212924-1.160914-1.1759268-1.977212-1.2065525z" fill="#bcbcbc"/><path d="m32.089844 9.0039062c-.87978-.034003-1.708032.4295916-2.15625 1.2070318l-15.591797 27.072265c-.322435.559585-.380234 1.149316-.277344 1.697266.054693-.234959.145732-.468854.277344-.697266l15.591797-27.072265c.448218-.77744 1.27647-1.2410337 2.15625-1.207032.816298.030626 1.560668.485739 1.976562 1.207032l15.591797 27.072265c.131612.228412.222651.462307.277344.697266.10289-.54795.045091-1.137681-.277344-1.697266l-15.591797-27.072265c-.415894-.7212929-1.160264-1.176406-1.976562-1.2070318z" fill="#fff" opacity=".1"/><path d="m31.999178 10 3.484822 29.289098-3.484822-3.288333-3.385178 3.288333z" opacity=".3"/><path d="m4.6044011 29.001073c-2.0936982.0104-3.3225005 2.353192-2.1369042 4.073625l14.3418071 20.796946c.486564.705714 1.291883 1.128463 2.150853 1.128427l13.039021-18.999328-27.1353357-6.985565c-.086324-.0085-.172694-.01416-.2594412-.01416zm27.3947769 6.99967 13.039022 18.999328c.85897.000036 1.66429-.422713 2.150854-1.128427l14.341808-20.796946c1.185596-1.720433-.0432-4.063226-2.136904-4.073625-.08674-.000146-.17312.0056-.259442.0142l-27.135338 6.985515z" fill="#e4e4e4"/><path d="m2.0625 32.125c-.0008686.0045-.00111.0092-.00195.01367.033312.155635.083726.308624.1484375.460937-.0649612-.156445-.1132206-.314765-.1464875-.474607zm59.873047 0c-.03381.16243-.08187.32353-.148438.482422.06615-.154068.11653-.309798.150391-.466797-.000962-.0051-.000962-.01049-.002-.01563zm-.148438.482422c-.06657.158891-.151647.315574-.255859.466797l-14.341797 20.796875c-.121641.176428-.262622.335691-.419922.474609.157237-.138768.300215-.296227.421875-.472656l14.345703-20.798828c.104301-.151499.182017-.308453.25-.466797zm-59.5722652.0059c.067449.156249.1454485.31208.2480468.460938l14.3457034 20.796834-14.3417971-20.796875c-.1028381-.14923-.1858023-.304214-.2519531-.460938zm29.2011722 4.236287-12.455078 18.150391h.685546l12.353516-18v-1zm .583984.150391 12.353516 18h .685546l-12.455078-18.150391-.583984-.849609z" opacity=".1"/><path d="m4.6035156 29.001953c-1.7256344.008572-2.8580038 1.599971-2.5410156 3.123047.2214557-1.147166 1.1971403-2.116371 2.5410156-2.123047v-.001953c.0867472 0 .1734416.007125.2597656.015625l26.5527348 6.833984.583984-.849609-27.1367188-6.984375c-.086324-.0085-.1730184-.013672-.2597656-.013672zm27.3964844 6.998047.583984.849609 26.550782-6.833984c.086322-.0086.173025-.013818.259765-.013672 1.343879.006675 2.319561.975881 2.541016 2.123047.316989-1.523076-.815377-3.114476-2.541016-3.123047-.08674-.000146-.173443.005072-.259765.013672z" fill="#fff" opacity=".2"/></g></svg>