<svg height="64" viewBox="0 0 64 64" width="64" xmlns="http://www.w3.org/2000/svg"><path d="m32 5v27h-27.9492188a28 28 0 0 0 -.0507812 1 28 28 0 0 0 28 28 28 28 0 0 0 28-28 28 28 0 0 0 -28-28z" opacity=".2"/><path d="m32 4a4 4 0 0 0 -4 4 4 4 0 0 0 4 4v20h-20a4 4 0 0 0 -4-4 4 4 0 0 0 -4 4 4 4 0 0 0  .0175781.345703 28 28 0 0 0 27.9824219 27.654297 28 28 0 0 0 28-28 28 28 0 0 0 -28-28z" fill="#4c91d9"/><circle cx="32" cy="33" opacity=".2" r="20"/><circle cx="32" cy="32" fill="#fff" r="20"/><path d="m32 4a4 4 0 0 0 -4 4 4 4 0 0 0  .035156.5058594 4 4 0 0 1 3.964844-3.5058594 28 28 0 0 1 27.978516 27.585938 28 28 0 0 0  .021484-.585938 28 28 0 0 0 -28-28zm-24 24a4 4 0 0 0 -4 4 4 4 0 0 0  .0175781.345703 28 28 0 0 0  .0136719.205078 4 4 0 0 1 3.96875-3.550781 4 4 0 0 1 4 4h20v-1h-20a4 4 0 0 0 -4-4z" fill="#fff" opacity=".2"/></svg>