<svg viewBox="0 0 32 32" xmlns="http://www.w3.org/2000/svg" xmlns:xlink="http://www.w3.org/1999/xlink"><linearGradient id="a" gradientUnits="userSpaceOnUse" x1="-227.98" x2="-234.8" xlink:href="#c" y1="-131.26" y2="-134.14"/><linearGradient id="b" gradientUnits="userSpaceOnUse" x1="-241.01" x2="-226.57" xlink:href="#c" y1="-141.61" y2="-129.44"/><linearGradient id="c"><stop offset="0" stop-color="#13a9ea"/><stop offset="1" stop-color="#372db5"/></linearGradient><linearGradient id="d"><stop offset="0" stop-color="#f9f9f9"/><stop offset="1" stop-color="#999"/></linearGradient><linearGradient id="e" gradientUnits="userSpaceOnUse" x1="-239.23" x2="-241.87" xlink:href="#d" y1="-133.21" y2="-125.28"/><radialGradient id="f" cx="-176.59" cy="-120.91" gradientTransform="matrix(2.21087 .05719 -.05496 2.12455 156.08 146.14)" gradientUnits="userSpaceOnUse" r="3.01" xlink:href="#d"/><rect fill="#4f4f4f" fill-rule="evenodd" height="28.2" opacity=".99" rx="5.575" width="28.2" x="1.898" y="1.898"/><g fill="#81ff85"><rect height="6" rx=".75" width="6" x="5.61" y="5"/><rect height="6" rx=".75" width="6" x="13.61" y="5"/><rect height="6" rx=".75" width="6" x="5.61" y="13"/><rect height="6" rx=".75" width="6" x="13.61" y="13"/><rect height="6" rx=".75" width="6" x="5.61" y="21"/></g><g transform="matrix(-1 0 0 1 -223.97 142.77)"><g fill="#f9f9f9"><path d="m-228.95-129.3-.27 2.221-.122-2.378z"/><path d="m-228.66-130.01-.27 2.221-.122-2.378z"/><path d="m-228.43-129.95-.27 1.6-.122-1.713z"/></g><path d="m-241.31-142.31c-5.577-1.531-5.951 3.24-4.58 5.493 4.381 6.983 6.796 6.577 9.398 7.895 1.712 2.064 3.451 3.4 6.469 4.1 11.69 1.559 3.242-8.417.92-8.649-5.065.012-7.547-6.123-12.206-8.838" fill="url(#e)"/><path d="m-241.31-142.31c3.76.276 5.616-.626 8.93-.421 4.319.283 8.307 2.053 7.838 6.574-.347 2.567-.37 2.25.186 4.296.532 1.535-.252 4.232-.487 4.654-2.715 4.963-1.536 4.965-2.656 7.742l-.906-.418-2.508-11.358c-7.177-.909-10.754-10.11-10.398-11.07" fill="url(#b)"/><path d="m-234.52-132.37c.362.274 1.553-5.105 1.172-5.653 1.379 2.44 1.919 4.616 2.435 6.783-1.276-.283-2.289-.554-3.607-1.13" fill="url(#a)"/><circle cx="-227.83" cy="-119.15" fill="url(#f)" r="3.01"/></g></svg>