<svg height="64" width="64" xmlns="http://www.w3.org/2000/svg"><rect height="32" opacity=".2" rx="3.25" ry="2.857" width="52" x="6" y="17"/><rect fill="#8e8e8e" height="32" rx="3.25" ry="2.857" width="52" x="6" y="16"/><path d="m15.665817 24h31.668366c1.462023 0 2.879386 1.077155 2.63903 2.375002l-2.63903 14.249998c-.240354 1.297845-1.177007 2.375-2.63903 2.375h-26.390306c-1.462023 0-2.398675-1.077155-2.63903-2.375l-2.63903-14.249998c-.240356-1.297847 1.177007-2.375002 2.63903-2.375002z" opacity=".2"/><path d="m15.665817 23h31.668366c1.462023 0 2.879386 1.077155 2.63903 2.375002l-2.63903 14.249998c-.240354 1.297845-1.177007 2.375-2.63903 2.375h-26.390306c-1.462023 0-2.398675-1.077155-2.63903-2.375l-2.63903-14.249998c-.240356-1.297847 1.177007-2.375002 2.63903-2.375002z" fill="#2bd677"/><rect height="10" opacity=".2" rx="2.273" ry="2.145" width="10" x="2" y="28"/><rect fill="#b3b3b3" height="10" rx="2.273" ry="2.145" width="10" x="2" y="27"/><circle cx="7" cy="32" opacity=".5" r="3"/><rect height="10" opacity=".2" rx="2.273" ry="2.145" width="10" x="51" y="28"/><rect fill="#b3b3b3" height="10" rx="2.273" ry="2.145" width="10" x="51" y="27"/><circle cx="56" cy="32" opacity=".5" r="3"/><path d="m4.2734375 27c-1.2591576 0-2.2734375.956201-2.2734375 2.144531v1c0-1.18833 1.0142799-2.144531 2.2734375-2.144531h5.453125c1.2591575 0 2.2734375.956201 2.2734375 2.144531v-1c0-1.18833-1.01428-2.144531-2.2734375-2.144531z" fill="#fff" opacity=".1"/><path d="m53.273438 27c-1.259158 0-2.273438.956201-2.273438 2.144531v1c0-1.18833 1.01428-2.144531 2.273438-2.144531h5.453124c1.259158 0 2.273438.956201 2.273438 2.144531v-1c0-1.18833-1.01428-2.144531-2.273438-2.144531z" fill="#fff" opacity=".1"/><path d="m20.5 28a2.5 2.5 0 0 0 -2.5 2.5 2.5 2.5 0 0 0 2.5 2.5 2.5 2.5 0 0 0 2.5-2.5 2.5 2.5 0 0 0 -2.5-2.5zm7 0a2.5 2.5 0 0 0 -2.5 2.5 2.5 2.5 0 0 0 2.5 2.5 2.5 2.5 0 0 0 2.5-2.5 2.5 2.5 0 0 0 -2.5-2.5zm7 0a2.5 2.5 0 0 0 -2.5 2.5 2.5 2.5 0 0 0 2.5 2.5 2.5 2.5 0 0 0 2.5-2.5 2.5 2.5 0 0 0 -2.5-2.5zm7 0a2.5 2.5 0 0 0 -2.5 2.5 2.5 2.5 0 0 0 2.5 2.5 2.5 2.5 0 0 0 2.5-2.5 2.5 2.5 0 0 0 -2.5-2.5zm-17 6a2.5 2.5 0 0 0 -2.5 2.5 2.5 2.5 0 0 0 2.5 2.5 2.5 2.5 0 0 0 2.5-2.5 2.5 2.5 0 0 0 -2.5-2.5zm7 0a2.5 2.5 0 0 0 -2.5 2.5 2.5 2.5 0 0 0 2.5 2.5 2.5 2.5 0 0 0 2.5-2.5 2.5 2.5 0 0 0 -2.5-2.5zm7 0a2.5 2.5 0 0 0 -2.5 2.5 2.5 2.5 0 0 0 2.5 2.5 2.5 2.5 0 0 0 2.5-2.5 2.5 2.5 0 0 0 -2.5-2.5z" opacity=".2"/><g fill="#fff"><path d="m20.5 27a2.5 2.5 0 0 0 -2.5 2.5 2.5 2.5 0 0 0 2.5 2.5 2.5 2.5 0 0 0 2.5-2.5 2.5 2.5 0 0 0 -2.5-2.5zm7 0a2.5 2.5 0 0 0 -2.5 2.5 2.5 2.5 0 0 0 2.5 2.5 2.5 2.5 0 0 0 2.5-2.5 2.5 2.5 0 0 0 -2.5-2.5zm7 0a2.5 2.5 0 0 0 -2.5 2.5 2.5 2.5 0 0 0 2.5 2.5 2.5 2.5 0 0 0 2.5-2.5 2.5 2.5 0 0 0 -2.5-2.5zm7 0a2.5 2.5 0 0 0 -2.5 2.5 2.5 2.5 0 0 0 2.5 2.5 2.5 2.5 0 0 0 2.5-2.5 2.5 2.5 0 0 0 -2.5-2.5zm-17 6a2.5 2.5 0 0 0 -2.5 2.5 2.5 2.5 0 0 0 2.5 2.5 2.5 2.5 0 0 0 2.5-2.5 2.5 2.5 0 0 0 -2.5-2.5zm7 0a2.5 2.5 0 0 0 -2.5 2.5 2.5 2.5 0 0 0 2.5 2.5 2.5 2.5 0 0 0 2.5-2.5 2.5 2.5 0 0 0 -2.5-2.5zm7 0a2.5 2.5 0 0 0 -2.5 2.5 2.5 2.5 0 0 0 2.5 2.5 2.5 2.5 0 0 0 2.5-2.5 2.5 2.5 0 0 0 -2.5-2.5z"/><path d="m15.666016 23c-1.462023 0-2.879028 1.077153-2.638672 2.375l.050781.279297c.27635-.950481 1.409976-1.654297 2.587891-1.654297h31.667968c1.177915 0 2.311541.703816 2.587891 1.654297l.050781-.279297c.240356-1.297847-1.176649-2.375-2.638672-2.375z" opacity=".1"/><path d="m9.25 16c-1.8005 0-3.25 1.274565-3.25 2.857422v1c0-1.582857 1.4495-2.857422 3.25-2.857422h45.5c1.8005 0 3.25 1.274565 3.25 2.857422v-1c0-1.582857-1.4495-2.857422-3.25-2.857422z" opacity=".1"/></g></svg>