<svg viewBox="0 0 32 32" xmlns="http://www.w3.org/2000/svg" xmlns:xlink="http://www.w3.org/1999/xlink"><linearGradient id="a" gradientTransform="matrix(-2.54182 0 0 2.58531 185.47 -277.37)" gradientUnits="userSpaceOnUse" x1="67.894" x2="67.854" y1="108.69" y2="113.11"><stop offset="0" stop-color="#f9f9f9"/><stop offset="1" stop-color="#999"/></linearGradient><g fill="#858585"><rect fill-rule="evenodd" height="28.2" rx="5.575" width="28.2" x="1.898" y="1.898"/><path d="m16 10.38862a5.61138 5.61138 0 0 0 -5.61138 5.61138 5.61138 5.61138 0 0 0 5.61138 5.61138 5.61138 5.61138 0 0 0 5.61138-5.61138 5.61138 5.61138 0 0 0 -5.61138-5.61138m0 3.367c1.24 0 2.245 1 2.245 2.245 0 1.24-1 2.245-2.245 2.245-1.24 0-2.245-1-2.245-2.245 0-1.24 1-2.245 2.245-2.245z" stroke-width=".748"/></g><path d="m16 5.525c-5.803 0-10.475 4.672-10.475 10.475s4.672 10.475 10.475 10.475 10.475-4.672 10.475-10.475-4.672-10.475-10.475-10.475m0 5.985472a4.489104 4.489104 0 0 1 4.489104 4.489104 4.489104 4.489104 0 0 1 -4.489104 4.489104 4.489104 4.489104 0 0 1 -4.489104-4.489104 4.489104 4.489104 0 0 1 4.489104-4.489104" fill="#ccc" stroke-width=".748"/><path d="m16 12.965c-1.676 0-3.035 1.359-3.035 3.035s1.359 3.035 3.035 3.035 3.035-1.359 3.035-3.035-1.359-3.035-3.035-3.035" fill="#fff" stroke-width=".405"/><g stroke-width=".833" transform="matrix(.75 0 0 .75 4.619 5.174)"><circle cx="24" cy="23" fill="#ff4d4d" r="8"/><path d="m24 18a5 5 0 0 0 -5 5 5 5 0 0 0 5 5 5 5 0 0 0 5-5 5 5 0 0 0 -5-5m0 3a2 2 0 0 1 2 2 2 2 0 0 1 -2 2 2 2 0 0 1 -2-2 2 2 0 0 1 2-2" fill="#fff"/></g>

   xmlns:dc="http://purl.org/dc/elements/1.1/"
   xmlns:cc="http://creativecommons.org/ns#"
   xmlns:rdf="http://www.w3.org/1999/02/22-rdf-syntax-ns#"
   xmlns:svg="http://www.w3.org/2000/svg"
   xmlns="http://www.w3.org/2000/svg"
   xmlns:xlink="http://www.w3.org/1999/xlink"
   xmlns:sodipodi="http://sodipodi.sourceforge.net/DTD/sodipodi-0.dtd"
   xmlns:inkscape="http://www.inkscape.org/namespaces/inkscape"
   height="32"
   width="32"
   version="1"
   id="svg8"
   sodipodi:docname="snow-top-3.svg"
   inkscape:version="0.92.1 r"&gt;
  <path id="b" d="m0 0h32v32h-32z" fill="none"/><path d="m7.354 6.111c-2.995 2.684-1.381 7.817-3.674 8.291-2.031.613-3.541-1.385-3.66-4.503-.35-8.627 3.911-9.427 6.879-9.524 28.342-2.047 1.762 4.92.455 5.736" fill="url(#a)"/><use xlink:href="#b"/></svg>