<svg viewBox="0 0 32 32" xmlns="http://www.w3.org/2000/svg" xmlns:xlink="http://www.w3.org/1999/xlink"><linearGradient id="a" gradientTransform="matrix(-2.65552 0 0 2.58531 193.77 -277.73)" gradientUnits="userSpaceOnUse" x1="67.894" x2="67.854" y1="108.69" y2="113.11"><stop offset="0" stop-color="#f9f9f9"/><stop offset="1" stop-color="#999"/></linearGradient><rect fill="#d53068" fill-rule="evenodd" height="28.2" rx="5.575" width="28.2" x="1.898" y="1.898"/><path d="m636 528c-1.657 0-3 1.343-3 3 0 .231.044.44.094.656l-3.219 2c-.513-.411-1.166-.656-1.875-.656-1.657 0-3 1.343-3 3s1.343 3 3 3c .709 0 1.361-.245 1.875-.656l3.219 2c-.049.216-.094.425-.094.656 0 1.657 1.343 3 3 3s3-1.343 3-3-1.343-3-3-3c-.709 0-1.361.245-1.875.656l-3.219-2c .049-.216.094-.425.094-.656s-.044-.44-.094-.656l3.219-2c .513.411 1.166.656 1.875.656 1.657 0 3-1.343 3-3s-1.343-3-3-3" fill="#fff" transform="translate(-616 -520)"/>

   xmlns:dc="http://purl.org/dc/elements/1.1/"
   xmlns:cc="http://creativecommons.org/ns#"
   xmlns:rdf="http://www.w3.org/1999/02/22-rdf-syntax-ns#"
   xmlns:svg="http://www.w3.org/2000/svg"
   xmlns="http://www.w3.org/2000/svg"
   xmlns:xlink="http://www.w3.org/1999/xlink"
   xmlns:sodipodi="http://sodipodi.sourceforge.net/DTD/sodipodi-0.dtd"
   xmlns:inkscape="http://www.inkscape.org/namespaces/inkscape"
   version="1"
   width="32"
   height="32"
   id="svg12"
   sodipodi:docname="snow-top-3.svg"
   inkscape:version="0.92.1 r"&gt;
  <path d="m24.627.009c8.36-.339 9.455 9.523 4.064 9.505-.686.003-1.62-.197-3-1.471-14.665-10.216-14.549 2.967-17.708.875-1.727-1.822-1.743 4.653-4.139 5.127-2.122.613-3.699-1.385-3.824-4.503-.366-8.627 4.086-9.427 7.187-9.524 5.974.133 11.562-.045 17.419-.01" fill="url(#a)"/></svg>