<svg viewBox="0 0 32 32" xmlns="http://www.w3.org/2000/svg"><rect fill="#2e8a42" fill-rule="evenodd" height="28.2" rx="5.575" width="28.2" x="1.898" y="1.898"/><g fill="#fff"><rect height="5.902" rx=".984" transform="matrix(.70711 -.70711 .70711 .70711 0 0)" width="5.902" x="-2.946" y="10.591"/><rect height="20.376" rx="10.188" transform="matrix(0 -1 -1 0 0 0)" width="20.376" x="-26.19" y="-26.19"/></g><circle cx="16" cy="16.01" fill="#ccc" r="7.377"/><rect fill="#f45246" height="6.324" rx="1.054" ry=".904" transform="matrix(.86603 .5 -.5 .86603 0 0)" width="2.108" x="20.827" y=".555"/><g fill="#4d4d4d"><circle cx="16" cy="16.01" r="1.757"/><g stroke-width="1.423" transform="matrix(.70262 0 0 .70262 4.407 5.116)"><circle cx="16.5" cy="23.5" r="1.5"/><circle cx="16.5" cy="7.5" r="1.5"/><g transform="rotate(90)"><circle cx="15.5" cy="-8.5" r="1.5"/><circle cx="15.5" cy="-24.5" r="1.5"/></g></g></g>

   xmlns:dc="http://purl.org/dc/elements/1.1/"
   xmlns:cc="http://creativecommons.org/ns#"
   xmlns:rdf="http://www.w3.org/1999/02/22-rdf-syntax-ns#"
   xmlns:svg="http://www.w3.org/2000/svg"
   xmlns="http://www.w3.org/2000/svg"
   xmlns:sodipodi="http://sodipodi.sourceforge.net/DTD/sodipodi-0.dtd"
   xmlns:inkscape="http://www.inkscape.org/namespaces/inkscape"
   height="32"
   width="32"
   version="1"
   id="svg8"
   sodipodi:docname="star-mime-2.svg"
   inkscape:version="0.92.1 r"&gt;
  <g fill="#fff" transform="translate(152.47 194.05)"><path d="m-125.38-193.25-.077 3.548 3.072 1.831-3.548-.077-3.135 6.791 1.38-7.268-3.072-1.831 3.548.077z"/><path d="m-125.41-183.04.042-1.955-1.692-1.01 1.955.042 1.727-3.741-.76 4 1.692 1.01-1.955-.042z"/></g></svg>