<svg viewBox="0 0 32 32" xmlns="http://www.w3.org/2000/svg" xmlns:xlink="http://www.w3.org/1999/xlink"><linearGradient id="a" gradientUnits="userSpaceOnUse" x1="-23.24" x2="-28.704" xlink:href="#c" y1="-185.08" y2="-186.05"/><linearGradient id="b" gradientUnits="userSpaceOnUse" x1="-34.914" x2="-20.469" xlink:href="#c" y1="-193.53" y2="-181.36"/><linearGradient id="c"><stop offset="0" stop-color="#ffff5e"/><stop offset="1" stop-color="#f6a32d"/></linearGradient><linearGradient id="d"><stop offset="0" stop-color="#f9f9f9"/><stop offset="1" stop-color="#999"/></linearGradient><linearGradient id="e" gradientUnits="userSpaceOnUse" x1="-33.14" x2="-35.775" xlink:href="#d" y1="-185.13" y2="-177.2"/><radialGradient id="f" cx="-176.59" cy="-120.91" gradientTransform="matrix(2.21087 .05719 -.05496 2.12455 362.18 94.22)" gradientUnits="userSpaceOnUse" r="3.01" xlink:href="#d"/><rect fill="#4ca341" fill-rule="evenodd" height="28.2" rx="5.575" width="28.2" x="1.898" y="1.898"/><path d="m8.04 15.03s2.348-2.822 5.958-3.114v-1.024c-3.999.34-8 3.923-8 3.923s2.501 5.998 8 6.547v-1.088c-4.04-.538-5.958-5.244-5.958-5.244m5.958 3.079v.997c-3.051-.575-4.437-3.93-4.437-3.93s2-1.717 4.437-1.995v1.094c-.002 0-.002-.001-.004-.001-1.277-.162-2.814 1.1-2.814 1.1s1.099 2.124 2.819 2.736m0-9.106v1.889c.117-.009-.305-.018-.187-.022 4.546-.162 7.509 3.945 7.509 3.945s-3.402 4.377-6.947 4.377c-.325 0-.089-.032-.375-.085v1.168c.244.033-.042.052.222.052 3.298 0 5.684-1.782 7.994-3.891.383.324 1.951 1.114 2.273 1.459-2.196 1.945-7.314 3.513-10.216 3.513-.28 0-.009-.018-.273-.045v1.641h11.997v-14h-11.997m0 4.177v-1.265c.116-.007-.306-.015-.187-.019 3.269-.109 5.414 2.972 5.414 2.972s-2.317 3.404-4.801 3.404c-.357 0-.138-.061-.427-.163v-3.835c1.273.163 1.233.757 1.998 2.107l1.459-1.518s-1.242-1.724-3.337-1.724c-.228 0 .094.017-.12.041" fill="#262626"/><g transform="translate(49.877 194.68)"><path d="m-35.21-194.22c-5.577-1.531-5.951 3.24-4.58 5.493 4.381 6.983 6.796 6.577 9.398 7.895 1.712 2.064 3.451 3.4 6.469 4.1 11.69 1.559 3.242-8.417.92-8.649-5.065.012-7.547-6.123-12.206-8.838" fill="url(#e)"/><path d="m-35.21-194.22c3.76.276 5.616-.626 8.93-.421 4.319.283 8.307 2.053 7.838 6.574-.347 2.567-.37 2.25.186 4.296.532 1.535-.252 4.232-.487 4.654-2.715 4.963-1.536 4.965-2.656 7.742l-.906-.418-2.508-11.358c-7.177-.909-10.754-10.11-10.398-11.07" fill="url(#b)"/><path d="m-28.419-184.29c.362.274 1.553-5.105 1.172-5.653 1.379 2.44 1.919 4.616 2.435 6.783-1.276-.283-2.289-.554-3.607-1.13" fill="url(#a)"/><circle cx="-21.728" cy="-171.07" fill="url(#f)" r="3.01"/></g></svg>