<svg height="64" viewBox="0 0 64 64" width="64" xmlns="http://www.w3.org/2000/svg"><g transform="translate(0 -280.06667)"><rect fill="#3f3f3f" height="53" rx="1.71" ry="1.606" width="53" x="5" y="285.07"/><path d="m4.4160156 284.06667c-.7848329 0-1.4160156.63118-1.4160156 1.41602v14.16796c0 .78485.6311827 1.41602 1.4160156 1.41602h14.1679684c.784834 0 1.416016-.63117 1.416016-1.41602v-14.16796c0-.78484-.631182-1.41602-1.416016-1.41602zm20.0000004 0c-.784833 0-1.416016.63119-1.416016 1.41602v14.16796c0 .78485.631183 1.41602 1.416016 1.41602h14.167968c.784833 0 1.416016-.63117 1.416016-1.41602v-14.16796c0-.78483-.631183-1.41602-1.416016-1.41602zm20 0c-.784833 0-1.416016.63119-1.416016 1.41602v14.16796c0 .78485.631183 1.41602 1.416016 1.41602h14.167968c.784832 0 1.416016-.63117 1.416016-1.41602v-14.16796c0-.78483-.631184-1.41602-1.416016-1.41602zm-40.0000004 20c-.7848329 0-1.4160156.63118-1.4160156 1.41602v14.16796c0 .78484.6311827 1.41602 1.4160156 1.41602h14.1679684c.784834 0 1.416016-.63118 1.416016-1.41602v-14.16796c0-.78484-.631182-1.41602-1.416016-1.41602zm20.0000004 0c-.784834 0-1.416016.63118-1.416016 1.41602v14.16796c0 .78484.631182 1.41602 1.416016 1.41602h14.167968c.784833 0 1.416016-.63118 1.416016-1.41602v-14.16796c0-.78484-.631183-1.41602-1.416016-1.41602zm20 0c-.784833 0-1.416016.63118-1.416016 1.41602v14.16796c0 .78484.631183 1.41602 1.416016 1.41602h14.167968c.784832 0 1.416016-.63118 1.416016-1.41602v-14.16796c0-.78484-.631184-1.41602-1.416016-1.41602zm-40.0000004 20c-.7848333 0-1.4160156.63117-1.4160156 1.41602v14.16796c0 .78484.6311823 1.41602 1.4160156 1.41602h14.1679684c.784833 0 1.416016-.63118 1.416016-1.41602v-14.16796c0-.78485-.631183-1.41602-1.416016-1.41602zm20.0000004 0c-.784832 0-1.416016.63117-1.416016 1.41602v14.16796c0 .78484.631184 1.41602 1.416016 1.41602h14.167968c.784833 0 1.416016-.63118 1.416016-1.41602v-14.16796c0-.78485-.631183-1.41602-1.416016-1.41602zm20 0c-.784833 0-1.416016.63117-1.416016 1.41602v14.16796c0 .78484.631183 1.41602 1.416016 1.41602h14.167968c.784833 0 1.416016-.63118 1.416016-1.41602v-14.16796c0-.78485-.631183-1.41602-1.416016-1.41602z" opacity=".2"/><path d="m4.4166669 283.06668c-.7848329 0-1.4166664.63186-1.4166664 1.4167v14.16664c0 .78485.6318335 1.41665 1.4166664 1.41665h14.1666661c.784834 0 1.416667-.6318 1.416667-1.41665v-14.16664c0-.78484-.631833-1.4167-1.416667-1.4167z" fill="#b7e267"/><path d="m24.416665 283.06667c-.784833 0-1.416667.63187-1.416667 1.4167v14.16665c0 .78485.631834 1.41665 1.416667 1.41665h14.166673c.784833 0 1.416667-.6318 1.416667-1.41665v-14.16665c0-.78483-.631834-1.4167-1.416667-1.4167z" fill="#3bd3e0"/><path d="m44.416665 283.06667c-.784833 0-1.416667.63187-1.416667 1.4167v14.16665c0 .78485.631834 1.41665 1.416667 1.41665h14.166672c.784832 0 1.41667-.6318 1.41667-1.41665v-14.16665c0-.78483-.631838-1.4167-1.41667-1.4167z" fill="#3bd3e0"/><path d="m4.4166668 303.06667c-.7848329 0-1.4166663.63181-1.4166663 1.41665v14.1667c0 .78484.6318334 1.41665 1.4166663 1.41665h14.1666642c.784834 0 1.416667-.63181 1.416667-1.41665v-14.1667c0-.78484-.631833-1.41665-1.416667-1.41665z" fill="#b7e267"/><path d="m24.416665 303.06667c-.784834 0-1.416667.63181-1.416667 1.41665v14.1667c0 .78484.631833 1.41665 1.416667 1.41665h14.166664c.784833 0 1.416666-.63181 1.416666-1.41665v-14.1667c0-.78484-.631833-1.41665-1.416666-1.41665z" fill="#509b1e"/><path d="m44.416665 303.06667c-.784833 0-1.416667.63181-1.416667 1.41665v14.1667c0 .78484.631834 1.41665 1.416667 1.41665h14.166663c.784832 0 1.416669-.63181 1.416669-1.41665v-14.1667c0-.78484-.631837-1.41665-1.416669-1.41665z" fill="#3bd3e0"/><path d="m4.4166676 323.06667c-.7848333 0-1.4166671.6318-1.4166671 1.41665v14.16665c0 .78484.6318338 1.4167 1.4166671 1.4167h14.1666734c.784833 0 1.416667-.63186 1.416667-1.4167v-14.16665c0-.78485-.631834-1.41665-1.416667-1.41665z" fill="#509b1e"/><path d="m24.416677 323.06667c-.784832 0-1.416667.6318-1.416667 1.41665v14.16665c0 .78484.631835 1.4167 1.416667 1.4167h14.166674c.784833 0 1.416666-.63186 1.416666-1.4167v-14.16665c0-.78485-.631833-1.41665-1.416666-1.41665z" fill="#007aa0"/><path d="m44.416689 323.06667c-.784833 0-1.416667.6318-1.416667 1.41665v14.16665c0 .78484.631834 1.4167 1.416667 1.4167h14.166671c.784833 0 1.416671-.63186 1.416671-1.4167v-14.16665c0-.78485-.631838-1.41665-1.416671-1.41665z" fill="#007aa0"/><path d="m4.4160156 3c-.7848329 0-1.4160156.6311756-1.4160156 1.4160156v1c0-.78484.6311827-1.4160156 1.4160156-1.4160156h14.1679684c.784834 0 1.416016.6311756 1.416016 1.4160156v-1c0-.78484-.631182-1.4160156-1.416016-1.4160156zm20.0000004 0c-.784833 0-1.416016.6311856-1.416016 1.4160156v1c0-.78483.631183-1.4160156 1.416016-1.4160156h14.167968c.784833 0 1.416016.6311856 1.416016 1.4160156v-1c0-.78483-.631183-1.4160156-1.416016-1.4160156zm20 0c-.784833 0-1.416016.6311856-1.416016 1.4160156v1c0-.78483.631183-1.4160156 1.416016-1.4160156h14.167968c.784832 0 1.416016.6311856 1.416016 1.4160156v-1c0-.78483-.631184-1.4160156-1.416016-1.4160156zm-40.0000004 20c-.7848329 0-1.4160156.631176-1.4160156 1.416016v1c0-.78484.6311827-1.416016 1.4160156-1.416016h14.1679684c.784834 0 1.416016.631176 1.416016 1.416016v-1c0-.78484-.631182-1.416016-1.416016-1.416016zm20.0000004 0c-.784834 0-1.416016.631176-1.416016 1.416016v1c0-.78484.631182-1.416016 1.416016-1.416016h14.167968c.784833 0 1.416016.631176 1.416016 1.416016v-1c0-.78484-.631183-1.416016-1.416016-1.416016zm20 0c-.784833 0-1.416016.631176-1.416016 1.416016v1c0-.78484.631183-1.416016 1.416016-1.416016h14.167968c.784832 0 1.416016.631176 1.416016 1.416016v-1c0-.78484-.631184-1.416016-1.416016-1.416016zm-40.0000004 20c-.7848333 0-1.4160156.631166-1.4160156 1.416016v1c0-.78485.6311823-1.416016 1.4160156-1.416016h14.1679684c.784833 0 1.416016.631166 1.416016 1.416016v-1c0-.78485-.631183-1.416016-1.416016-1.416016zm20.0000004 0c-.784832 0-1.416016.631166-1.416016 1.416016v1c0-.78485.631184-1.416016 1.416016-1.416016h14.167968c.784833 0 1.416016.631166 1.416016 1.416016v-1c0-.78485-.631183-1.416016-1.416016-1.416016zm20 0c-.784833 0-1.416016.631166-1.416016 1.416016v1c0-.78485.631183-1.416016 1.416016-1.416016h14.167968c.784833 0 1.416016.631166 1.416016 1.416016v-1c0-.78485-.631183-1.416016-1.416016-1.416016z" fill="#fff" opacity=".2" transform="translate(0 280.06667)"/></g></svg>