<svg height="64" width="64" xmlns="http://www.w3.org/2000/svg"><path d="m52 25v-16.625c0-1.31575-1.0704-2.375-2.4-2.375h-43.2c-1.3296 0-2.4 1.05925-2.4 2.375v33.25c0 1.31575 1.0704 2.375 2.4 2.375h26.4z" opacity=".2"/><path d="m56 32.296296v-15.921296c0-1.31575-1.0704-2.375-2.4-2.375h-43.2c-1.3296 0-2.4 1.05925-2.4 2.375v33.25c0 1.31575 1.0704 2.375 2.4 2.375h25.835294z" opacity=".2"/><path d="m60.000002 40v-15.625c0-1.31575-1.0704-2.375-2.4-2.375h-43.200002c-1.3296 0-2.4 1.05925-2.4 2.375v33.25c0 1.31575 1.0704 2.375 2.4 2.375h25.6z" opacity=".2"/><path d="m52 24v-16.625c0-1.31575-1.0704-2.375-2.4-2.375h-43.2c-1.3296 0-2.4 1.05925-2.4 2.375v33.25c0 1.31575 1.0704 2.375 2.4 2.375h26.4z" fill="#ff9212"/><path d="m48 26.263847v-17.263847h-40v30h27.271764z" opacity=".3"/><path d="m56 31.296296v-15.921296c0-1.31575-1.0704-2.375-2.4-2.375h-43.2c-1.3296 0-2.4 1.05925-2.4 2.375v33.25c0 1.31575 1.0704 2.375 2.4 2.375h25.835294z" fill="#cfff3d"/><path d="m52 34.263847v-17.263847h-40v30h27.271764z" opacity=".3"/><path d="m60.000002 39v-15.625c0-1.31575-1.0704-2.375-2.4-2.375h-43.200002c-1.3296 0-2.4 1.05925-2.4 2.375v33.25c0 1.31575 1.0704 2.375 2.4 2.375h25.6z" fill="#39ddff"/><path d="m56 42.263847v-17.263847h-40v30h27.271764z" opacity=".3"/><path d="m60 39h-17.499999c-1.38075 0-2.500001 1.119301-2.500001 2.500001v17.499999z" fill="#93edff"/><g fill="#fff"><path d="m6.4003906 5c-1.3296 0-2.4003906 1.05925-2.4003906 2.375v1c0-1.31575 1.0707906-2.375 2.4003906-2.375h43.1992184c1.3296 0 2.400391 1.05925 2.400391 2.375v-1c0-1.31575-1.070791-2.375-2.400391-2.375z" opacity=".2"/><path d="m10.400391 13c-1.3296004 0-2.400391 1.05925-2.400391 2.375v1c0-1.31575 1.0707906-2.375 2.400391-2.375h43.199218c1.3296 0 2.400391 1.05925 2.400391 2.375v-1c0-1.31575-1.070791-2.375-2.400391-2.375z" opacity=".2"/><path d="m14.400391 21c-1.3296 0-2.400391 1.05925-2.400391 2.375v1c0-1.31575 1.070791-2.375 2.400391-2.375h43.199218c1.3296 0 2.400391 1.05925 2.400391 2.375v-1c0-1.31575-1.070791-2.375-2.400391-2.375z" opacity=".2"/><path d="m42.5 39c-1.38075 0-2.5 1.1193-2.5 2.5v1c0-1.3807 1.11925-2.5 2.5-2.5h16.5l1-1z" opacity=".2"/></g></svg>