<svg height="32" width="32" xmlns="http://www.w3.org/2000/svg" xmlns:xlink="http://www.w3.org/1999/xlink"><linearGradient id="a" gradientTransform="matrix(2.62891 0 0 2.71269 -160.16236 -291.42003)" gradientUnits="userSpaceOnUse" x1="67.893997" x2="67.853996" y1="108.69" y2="113.11"><stop offset="0" stop-color="#f9f9f9"/><stop offset="1" stop-color="#999"/></linearGradient><g fill-rule="evenodd"><rect fill="#2bc3ef" height="28.203388" ry="5.575182" width="28.203388" x="1.898306" y="1.898306"/><path d="m19.254868 7.0981152h-8.653835c-1.9439031 0-3.5094734 1.5643412-3.5094734 3.5082438v10.732476c0 1.943904 1.5655703 3.509474 3.5094734 3.509474h10.732475c1.943904 0 3.508245-1.56557 3.508245-3.509474v-8.653834z" fill="#f2f2f1"/><path d="m24.841753 12.685001-5.586885-5.5868856v2.0786411c0 1.9439025 1.564341 3.5082445 3.508245 3.5082445z" fill="#b1e1f3"/></g><path d="m16.857182 13.996192v.805851h3.568512v-.805851zm-5.295839 2.417551v.805851h8.864351v-.805851zm0 2.417551v.80585h8.864351v-.80585zm0 2.41755v.805851h6.446801v-.805851z" fill="#a0bec7" stroke-width=".80585"/><rect fill="#fbb116" height="4.601902" ry=".777425" width="4.528856" x="11.45804" y="10.210649"/><path d="m21.148865 15.690573c-1.496249-1.496249-3.93794-1.496249-5.434188 0-1.496249 1.496249-1.496248 3.937939 0 5.434187 1.258331 1.258332 3.177539 1.444433 4.648522.586275l3.556328 3.556327a1.0775372 1.0775372 0 1 0 1.523715-1.523715l-3.603944-3.603944c.729216-1.441977.511558-3.247139-.690433-4.44913zm-.723171.72317c1.105633 1.105631 1.105633 2.882217.000001 3.987848-1.105631 1.105632-2.882217 1.105632-3.987849 0-1.10563-1.105631-1.10563-2.882217.000001-3.987848s2.882217-1.105631 3.987847 0z" fill="#3d4651"/><path d="m7.2856394.0089794c-8.27599973-.356-9.3599997 9.9919996-4.0199997 9.9729999.679.003 1.6039997-.2069999 2.9699997-1.5429999 7.2559996-10.531 14.7059996 3.5729996 17.5299996.919 1.71-1.912 3.496-.418 4.448.115 2.1.6429996 3.662.041 3.785-3.231.188-3.321-1.889-6.344-5.923-6.223-5.914.14-12.989-.047-18.7869996-.01" fill="url(#a)"/></svg>