<svg viewBox="0 0 32 32" xmlns="http://www.w3.org/2000/svg" xmlns:xlink="http://www.w3.org/1999/xlink"><linearGradient id="a" gradientUnits="userSpaceOnUse" x1="-23.24" x2="-28.704" xlink:href="#c" y1="-185.08" y2="-186.05"/><linearGradient id="b" gradientUnits="userSpaceOnUse" x1="-34.914" x2="-20.469" xlink:href="#c" y1="-193.53" y2="-181.36"/><linearGradient id="c"><stop offset="0" stop-color="#ffff5e"/><stop offset="1" stop-color="#f6a32d"/></linearGradient><linearGradient id="d"><stop offset="0" stop-color="#f9f9f9"/><stop offset="1" stop-color="#999"/></linearGradient><linearGradient id="e" gradientUnits="userSpaceOnUse" x1="-33.14" x2="-35.775" xlink:href="#d" y1="-185.13" y2="-177.2"/><radialGradient id="f" cx="-176.59" cy="-120.91" gradientTransform="matrix(2.21087 .05719 -.05496 2.12455 362.18 94.22)" gradientUnits="userSpaceOnUse" r="3.01" xlink:href="#d"/><rect fill="#fea238" fill-rule="evenodd" height="28.2" rx="5.575" width="28.2" x="1.898" y="1.898"/><path d="m10.431 21.9c-.908-.337-1.423-1.25-1.192-2.109.129-.478.468-.869.99-1.143.349-.183.438-.265.4-.367-.36-.975-.13-2.108.577-2.843.949-.987 2.461-1.046 3.459-.135.141.128.287.233.326.233s.128-.19.198-.423c.263-.868.754-1.559 1.446-2.037 1.932-1.334 4.44-.635 5.444 1.516.293.627.315.722.342 1.46.021.58-.004.908-.096 1.236-.069.246-.105.469-.08.495s.161-.084.302-.244c.274-.311.297-.314.936-.113.619.194 1.21.817 1.426 1.502.146.465.113 1.21-.074 1.652-.188.444-.67.984-1.089 1.22-.286.161-.407.17-2.586.194-1.446.016-2.384-.005-2.552-.057-.688-.212-1.215-1-1.215-1.829 0-.989.761-1.843 1.643-1.843h.279l-.275.262c-.434.414-.544.906-.314 1.41.136.298.596.59.929.59.335 0 .811-.275.983-.568.197-.335.194-1.01-.005-1.565-.215-.596-.655-1.084-1.256-1.392-.442-.226-.571-.256-1.102-.254-1.048.004-1.144.075-3.707 2.717-1.945 2.01-2.263 2.302-2.586 2.415-.437.152-1.171.162-1.551.021m-3.255-6.321c-.225-.234-.233-.425-.029-.695.12-.159.221-.205.446-.205.277 0 .293-.014.341-.292.084-.494.414-1.041.767-1.274.446-.295.969-.417 1.335-.312.158.045.312.055.344.023.032-.033.092-.251.134-.486.162-.893.733-1.692 1.507-2.11.461-.249 1.568-.306 2.075-.107.83.325 1.401.949 1.665 1.818.083.273.15.542.15.598s-.155.289-.345.518-.447.603-.573.831c-.163.297-.262.404-.349.374-.066-.023-.323-.117-.57-.209-.671-.25-1.617-.195-2.29.132-.576.28-.964.616-1.289 1.112-.129.197-.27.384-.314.416s-.697.058-1.451.058c-1.357.001-1.373-.001-1.556-.19" fill="#fff"/><g transform="translate(49.877 194.68)"><path d="m-35.21-194.22c-5.577-1.531-5.951 3.24-4.58 5.493 4.381 6.983 6.796 6.577 9.398 7.895 1.712 2.064 3.451 3.4 6.469 4.1 11.69 1.559 3.242-8.417.92-8.649-5.065.012-7.547-6.123-12.206-8.838" fill="url(#e)"/><path d="m-35.21-194.22c3.76.276 5.616-.626 8.93-.421 4.319.283 8.307 2.053 7.838 6.574-.347 2.567-.37 2.25.186 4.296.532 1.535-.252 4.232-.487 4.654-2.715 4.963-1.536 4.965-2.656 7.742l-.906-.418-2.508-11.358c-7.177-.909-10.754-10.11-10.398-11.07" fill="url(#b)"/><path d="m-28.419-184.29c.362.274 1.553-5.105 1.172-5.653 1.379 2.44 1.919 4.616 2.435 6.783-1.276-.283-2.289-.554-3.607-1.13" fill="url(#a)"/><circle cx="-21.728" cy="-171.07" fill="url(#f)" r="3.01"/></g></svg>