<svg viewBox="0 0 32 32" xmlns="http://www.w3.org/2000/svg" xmlns:xlink="http://www.w3.org/1999/xlink"><linearGradient id="a" gradientTransform="matrix(-2.54182 0 0 2.58531 185.47 -277.37)" gradientUnits="userSpaceOnUse" x1="67.894" x2="67.854" y1="108.69" y2="113.11"><stop offset="0" stop-color="#f9f9f9"/><stop offset="1" stop-color="#999"/></linearGradient><rect fill="#0083c4" fill-rule="evenodd" height="28.2" rx="5.575" width="28.2" x="1.898" y="1.898"/><g stroke-width="1.244" transform="matrix(.80384 0 0 .80384 3.139 3.139)"><rect fill="#1ca4d4" height="28" rx="14" transform="matrix(0 -1 -1 0 0 0)" width="28" x="-30" y="-30"/><g fill="#fff"><path d="m16 6a10 10 0 0 0 -10 10 10 10 0 0 0 10 10 10 10 0 0 0 10-10 10 10 0 0 0 -.615-3.414l.021-.016-.052-.074a10 10 0 0 0 -9.354-6.496m0 1a9 9 0 0 1 7.988 4.861l-6.24 4.459-10.646.967a9 9 0 0 1 -.102-1.287 9 9 0 0 1 9-9m8.539 6.189a9 9 0 0 1  .461 2.811 9 9 0 0 1 -2.607 6.326l-3.434-5.15zm-6.891 4.545 3.674 5.51a9 9 0 0 1 -5.322 1.756 9 9 0 0 1 -8.5859-6.334l10.234-.932"/><circle cx="7" cy="18" r="2"/><circle cx="22" cy="23" r="2"/><circle cx="25" cy="12" r="2"/><circle cx="18" cy="17" r="2"/></g></g>

   xmlns:dc="http://purl.org/dc/elements/1.1/"
   xmlns:cc="http://creativecommons.org/ns#"
   xmlns:rdf="http://www.w3.org/1999/02/22-rdf-syntax-ns#"
   xmlns:svg="http://www.w3.org/2000/svg"
   xmlns="http://www.w3.org/2000/svg"
   xmlns:xlink="http://www.w3.org/1999/xlink"
   xmlns:sodipodi="http://sodipodi.sourceforge.net/DTD/sodipodi-0.dtd"
   xmlns:inkscape="http://www.inkscape.org/namespaces/inkscape"
   height="32"
   width="32"
   version="1"
   id="svg8"
   sodipodi:docname="snow-top-3.svg"
   inkscape:version="0.92.1 r"&gt;
  <path id="b" d="m0 0h32v32h-32z" fill="none"/><path d="m7.354 6.111c-2.995 2.684-1.381 7.817-3.674 8.291-2.031.613-3.541-1.385-3.66-4.503-.35-8.627 3.911-9.427 6.879-9.524 28.342-2.047 1.762 4.92.455 5.736" fill="url(#a)"/><use xlink:href="#b"/></svg>