<svg viewBox="0 0 32 32" xmlns="http://www.w3.org/2000/svg" xmlns:xlink="http://www.w3.org/1999/xlink"><linearGradient id="a" gradientTransform="matrix(-2.65552 0 0 2.58531 193.77 -277.73)" gradientUnits="userSpaceOnUse" x1="67.894" x2="67.854" y1="108.69" y2="113.11"><stop offset="0" stop-color="#f9f9f9"/><stop offset="1" stop-color="#999"/></linearGradient><rect fill="#666" fill-rule="evenodd" height="28.2" rx="5.575" width="28.2" x="1.898" y="1.898"/><path d="m14.182 2-12.182 26.459v.041c0 .828.665 1.496 1.492 1.5l12.508-27.16 12.508 27.16c.827-.004 1.492-.672 1.492-1.5v-.041l-12.182-26.459z" fill="#ed5050" stroke-width="1.548" transform="matrix(.80384 0 0 .80384 3.139 3.139)"/><g><path d="m5.889 4.753c-.617.032-1.105.52-1.137 1.137l10.111 10.111-10.111 10.111c.032.617.52 1.105 1.137 1.137l10.111-10.111 10.111 10.111c.617-.032 1.105-.52 1.137-1.137l-10.111-10.111 10.111-10.111c-.032-.617-.52-1.105-1.137-1.137l-10.111 10.111z" fill="#70ed50"/><path d="m5.952 4.746c-.668 0-1.206.538-1.206 1.206v.402h10.45v20.9h1.608v-20.9h10.45v-.402c0-.668-.538-1.206-1.206-1.206z" fill="#5093ed"/></g>

   xmlns:dc="http://purl.org/dc/elements/1.1/"
   xmlns:cc="http://creativecommons.org/ns#"
   xmlns:rdf="http://www.w3.org/1999/02/22-rdf-syntax-ns#"
   xmlns:svg="http://www.w3.org/2000/svg"
   xmlns="http://www.w3.org/2000/svg"
   xmlns:xlink="http://www.w3.org/1999/xlink"
   xmlns:sodipodi="http://sodipodi.sourceforge.net/DTD/sodipodi-0.dtd"
   xmlns:inkscape="http://www.inkscape.org/namespaces/inkscape"
   version="1"
   width="32"
   height="32"
   id="svg12"
   sodipodi:docname="snow-top-3.svg"
   inkscape:version="0.92.1 r"&gt;
  <path d="m24.627.009c8.36-.339 9.455 9.523 4.064 9.505-.686.003-1.62-.197-3-1.471-14.665-10.216-14.549 2.967-17.708.875-1.727-1.822-1.743 4.653-4.139 5.127-2.122.613-3.699-1.385-3.824-4.503-.366-8.627 4.086-9.427 7.187-9.524 5.974.133 11.562-.045 17.419-.01" fill="url(#a)"/></svg>