<svg viewBox="0 0 32 32" xmlns="http://www.w3.org/2000/svg" xmlns:xlink="http://www.w3.org/1999/xlink"><linearGradient id="a" gradientTransform="matrix(2.54182 0 0 2.58531 -153.47 -277.37)" gradientUnits="userSpaceOnUse" x1="67.894" x2="67.854" y1="108.69" y2="113.11"><stop offset="0" stop-color="#f9f9f9"/><stop offset="1" stop-color="#999"/></linearGradient><rect fill="#819eb9" fill-rule="evenodd" height="28.2" rx="5.575" width="28.2" x="1.898" y="1.898"/><g fill="#fff"><g stroke-width="1.226"><path d="m14.712 9.667c2.031 0 3.678 1.647 3.678 3.678s-1.647 3.678-3.678 3.678-3.678-1.647-3.678-3.678 1.647-3.678 3.678-3.678"/><path d="m14.712 19.07c7.356-.004 7.356 4.904 7.356 4.904v1.225h-14.712v-1.225s0-4.901 7.356-4.905"/></g><path d="m22 13.06c1.105 0 2 .895 2 2s-.895 2-2 2-2-.895-2-2c0-1.104.895-2 2-2"/><path d="m22 18.06c4-.002 4 3.201 4 3.201v.799h-8v-.799s0-3.198 4-3.201"/></g>

   xmlns:dc="http://purl.org/dc/elements/1.1/"
   xmlns:cc="http://creativecommons.org/ns#"
   xmlns:rdf="http://www.w3.org/1999/02/22-rdf-syntax-ns#"
   xmlns:svg="http://www.w3.org/2000/svg"
   xmlns="http://www.w3.org/2000/svg"
   xmlns:xlink="http://www.w3.org/1999/xlink"
   xmlns:sodipodi="http://sodipodi.sourceforge.net/DTD/sodipodi-0.dtd"
   xmlns:inkscape="http://www.inkscape.org/namespaces/inkscape"
   height="32"
   width="32"
   version="1"
   id="svg8"
   sodipodi:docname="snow-top-2.svg"
   inkscape:version="0.92.1 r"&gt;
  <path d="m24.646 6.111c2.995 2.684 1.381 7.817 3.674 8.291 2.031.613 3.541-1.385 3.66-4.503.35-8.627-3.911-9.427-6.879-9.524-28.342-2.047-1.762 4.92-.455 5.736" fill="url(#a)"/></svg>