<svg viewBox="0 0 32 32" xmlns="http://www.w3.org/2000/svg" xmlns:xlink="http://www.w3.org/1999/xlink"><linearGradient id="a" gradientTransform="matrix(2.62891 0 0 2.71269 -160.16 -291.42)" gradientUnits="userSpaceOnUse" x1="67.894" x2="67.854" y1="108.69" y2="113.11"><stop offset="0" stop-color="#f9f9f9"/><stop offset="1" stop-color="#999"/></linearGradient><rect fill="#f87e3c" fill-rule="evenodd" height="28.2" rx="5.575" width="28.2" x="1.898" y="1.898"/><path d="m8.02844 6.0001a2.00016 2.00016 0 1 0 0 3.999928h11.181s.864.028 1.625.345 1.166.451 1.166 1.647-.405 1.331-1.166 1.648-1.625.345-1.625.345h-11.17944a2.00016 2.00016 0 0 0 -1.999964 1.999964v7.986a2.00016 2.00016 0 1 0 3.999928 0v-5.986h9.181s1.529.028 3.164-.653 3.626-2.544 3.626-5.341c0-2.796-1.992-4.658-3.626-5.339-1.635-.681-3.164-.653-3.164-.653z" fill="#fff"/>

   xmlns:dc="http://purl.org/dc/elements/1.1/"
   xmlns:cc="http://creativecommons.org/ns#"
   xmlns:rdf="http://www.w3.org/1999/02/22-rdf-syntax-ns#"
   xmlns:svg="http://www.w3.org/2000/svg"
   xmlns="http://www.w3.org/2000/svg"
   xmlns:xlink="http://www.w3.org/1999/xlink"
   xmlns:sodipodi="http://sodipodi.sourceforge.net/DTD/sodipodi-0.dtd"
   xmlns:inkscape="http://www.inkscape.org/namespaces/inkscape"
   version="1"
   width="32"
   height="32"
   id="svg12"
   sodipodi:docname="snow-top-1.svg"
   inkscape:version="0.92.1 r"&gt;
  <path d="m7.288.009c-8.276-.356-9.36 9.992-4.02 9.973.679.003 1.604-.207 2.97-1.543 7.256-10.531 14.706 3.573 17.53.919 1.71-1.912 3.496-.418 4.448.115 2.1.643 3.662.041 3.785-3.231.188-3.321-1.889-6.344-5.923-6.223-5.914.14-12.989-.047-18.787-.01" fill="url(#a)"/><path d="m0 0h32v32h-32z" fill="none"/></svg>