<svg height="32" width="32" xmlns="http://www.w3.org/2000/svg"><path d="m27.90368 6.7271305c1.168734-.000739 2.109629.940894 2.109629 2.109629v17.6105195c0 1.168735-.940895 2.109629-2.109629 2.109629h-23.8073592c-1.168735 0-2.109682-.940894-2.10963-2.109629l.000732-16.244506.000731-5.0669085c0-.937796.754977-1.692773 1.692773-1.692773h9.0908202c.937797 0 1.704839.371321 2.299888 1.096152l1.801865 2.19486z" fill="#f5ce46"/><path d="m18.646 14.033905c-.15.001-.286.052-.416.15-.33.252-1.019.849-2.231.85s-1.898-.598-2.228-.85c-.13-.098-.255-.147-.407-.146-.151.001-.326.045-.504.146-.648.365-1.242 1.562-1.566 3.112-.276 1.316-.38 3.115-.215 3.84.144.622.391.898.832.898 1.413 0 1.475-1.092 1.996-2.139.377-.58 1.25-.842 2.092-.812.842-.032 1.717.232 2.094.812.521 1.047.583 2.139 1.996 2.139.441 0 .688-.276.832-.898.165-.725.061-2.524-.215-3.84-.324-1.55-.918-2.747-1.566-3.112-.178-.101-.343-.151-.494-.15zm-5.645 1h1v1h1v1h-1v1h-1v-1h-1v-1h1zm5.5 0a .5.5 0 0 1  .5.5.5.5 0 0 1 -.5.5.5.5 0 0 1 -.5-.5.5.5 0 0 1  .5-.5zm-1 1a .5.5 0 0 1  .5.5.5.5 0 0 1 -.5.5.5.5 0 0 1 -.5-.5.5.5 0 0 1  .5-.5zm2 0a .5.5 0 0 1  .5.5.5.5 0 0 1 -.5.5.5.5 0 0 1 -.5-.5.5.5 0 0 1  .5-.5zm-1 1a .5.5 0 0 1  .5.5.5.5 0 0 1 -.5.5.5.5 0 0 1 -.5-.5.5.5 0 0 1  .5-.5z" fill-opacity=".65098"/></svg>