<svg height="32" width="32" xmlns="http://www.w3.org/2000/svg"><path d="m27.90368 6.7271305c1.168734-.000739 2.109629.940894 2.109629 2.10963v17.6105185c0 1.168735-.940895 2.109629-2.109629 2.109629h-23.80736c-1.168734 0-2.109682-.940894-2.109629-2.109629l.000731-16.244506.000732-5.0669085c0-.937796.754977-1.692773 1.692773-1.692773h9.09082c.937797 0 1.704839.371321 2.299888 1.096152l1.801865 2.19486z" fill="#f5ce46"/><path d="m13.545594 16.106085c-.034.007-.069.02-.101.035-.323.151-.407.623-.186 1.06.178.352.493.57.779.563.216 1.169 1.074 2.041 2.098 2.041s1.882-.872 2.098-2.041c.286.007.601-.211.779-.563.221-.437.137-.909-.186-1.06-.032-.015-.067-.028-.101-.035-.042-1.278-1.184-2.301-2.59-2.301s-2.548 1.023-2.59 2.301zm2.586 4.699c-.583 0-1.109-.29-1.496-.752-1.631.241-3.375.59-3.484.988-.002.006.001.013 0 .018-.005.02-.006.038-.008.058-.001.01-.008.016-.008.026v1.394c0 .149.111.268.25.268h9.5c.139 0 .25-.119.25-.268v-1.404c-.001-.032-.015-.06-.023-.092-.116-.414-1.806-.777-3.409-1.019-.123.172-.287.327-.507.443l-.002.002c-.312.215-.673.338-1.055.338" fill-opacity=".65098"/></svg>