<svg height="32" width="32" xmlns="http://www.w3.org/2000/svg"><path d="m27.90368 6.7271305c1.168734-.0007388 2.109629.9408941 2.109629 2.1096297v17.6105188c0 1.168735-.940895 2.109629-2.109629 2.109629h-23.80736c-1.168734 0-2.109682-.940894-2.109629-2.109629l.000731-16.244506.000731-5.066908c0-.9377965.754977-1.6927733 1.692774-1.6927733h9.09082c.937797 0 1.704839.3713212 2.299888 1.096152l1.801865 2.1948598z" fill="#f5ce46"/><path d="m16 12.762712c-2.761 0-5 2.239-5 5s2.239 5 5 5 5-2.239 5-5-2.239-5-5-5zm-.357 1.384c.048-.005.108.003.156 0 .006.023-.035.104-.089.223-.347.758-.367 1.646-.045 2.121.058.086.112.168.112.178 0 .011-.063.023-.134.023-.167 0-.325-.102-.647-.358-.144-.113-.33-.208-.402-.223-.114-.022-.144-.012-.29.134-.137.137-.179.21-.179.335 0 .473.562.85 1.607 1.071 1.419.301 1.769.571 1.808 1.317.049.936-.449 1.642-1.54 2.188-.13.065-.213.09-.268.111-.024-.002-.043.003-.067 0-.009-.028-.022-.096-.022-.223 0-.497-.196-1.008-.491-1.294-.079-.077-.301-.24-.491-.357-.19-.118-.382-.255-.424-.313-.071-.097-.077-.156-.023-.335.099-.326.217-.508.447-.714.12-.108.241-.199.268-.201.026-.002-.154-.056-.424-.112-.271-.055-.666-.171-.871-.245-.374-.135-.879-.42-1.071-.625-.008-.009-.016-.015-.023-.022.276-1.099 1.05-2 2.076-2.433.215-.091.436-.154.67-.201.116-.024.237-.033.357-.045zm3.348 1.674c.084.052.401.737.491 1.071.117.432.108 1.179 0 1.607-.041.164-.094.316-.111.335-.018.019-.082-.09-.157-.223s-.314-.415-.513-.625c-.575-.606-.665-.922-.424-1.406.121-.244.649-.799.714-.759z" fill-opacity=".65098"/></svg>