<svg height="24" width="24" xmlns="http://www.w3.org/2000/svg"><rect height="15" opacity=".2" rx="1" transform="matrix(0 -1 -1 0 0 0)" width="20" x="-22.5" y="-19"/><rect fill="#8e8e8e" height="15" rx="1" transform="matrix(0 -1 -1 0 0 0)" width="20" x="-22" y="-19"/><rect height="1" opacity=".5" rx=".5" width="4" x="9.5" y="3"/><rect height="14" opacity=".6" rx="1" width="13" x="5" y="5"/><path d="m5 2c-.554 0-1 .446-1 1v .5c0-.554.446-1 1-1h13c .554 0 1 .446 1 1v-.5c0-.554-.446-1-1-1z" fill="#fff" opacity=".2"/></svg>