<svg height="22" width="22" xmlns="http://www.w3.org/2000/svg"><rect height="12" opacity=".2" rx="1" width="20" x="1" y="8.5"/><path d="m1 16c0 .554.446 1 1 1h18c .554 0 1-.446 1-1v-11c0-.554-.446-1-1-1h-10v-1c0-.554-.446-1-1-1h-7c-.554 0-1 .446-1 1" fill="#4877b1"/><rect height="12" opacity=".2" rx="1" width="20" x="1" y="7.5"/><rect fill="#e4e4e4" height="8" rx="1" width="16" x="3" y="6"/><rect fill="#5294e2" height="12" rx="1" width="20" x="1" y="8"/><path d="m2 2c-.554 0-1 .446-1 1v .5c0-.554.446-1 1-1h7c .554 0 1 .446 1 1v-.5c0-.554-.446-1-1-1zm8 2v .5h10c .554 0 1 .446 1 1v-.5c0-.554-.446-1-1-1z" fill="#fff" opacity=".1"/><path d="m13.117 11c-.12.001-.23.039-.334.113-.263.189-.814.39-1.783.391-.97.001-1.5198-.202-1.7828-.391-.104-.074-.203-.11-.3244-.109-.1212 0-.2599.033-.4024.109-.5188.274-.9964 1.17-1.2558 2.332-.2212.988-.3018 2.338-.1699 2.881.115.467.3139.674.666.674.523-.009 1.1791-.591 1.5955-1.377.302-.435.9998-.633 1.6738-.611.674-.024 1.372.176 1.674.611.417.785 1.073 1.368 1.596 1.377.352 0 .551-.207.666-.674.131-.543.051-1.893-.17-2.881-.259-1.162-.736-2.058-1.254-2.332-.143-.076-.274-.114-.395-.113zm-4.1168 1a1 1 0 0 1  .9998 1 1 1 0 0 1 -.9998 1 1 1 0 0 1 -1-1 1 1 0 0 1 1-1zm3.4998 0a .5001.49995 0 0 1  .5.5.5001.49995 0 0 1 -.5.5.5001.49995 0 0 1 -.5-.5.5001.49995 0 0 1  .5-.5zm1 1a .5001.49995 0 0 1  .5.5.5001.49995 0 0 1 -.5.5.5001.49995 0 0 1 -.5-.5.5001.49995 0 0 1  .5-.5z" fill="#1d344f"/></svg>