<svg height="48" width="48" xmlns="http://www.w3.org/2000/svg"><path d="m13.630008 6.6222498a4.7736627 4.8172081 10.871574 0 0 -1.850248 1.8204659l-8.135855 14.1835063a4.7736627 4.8172081 10.871574 0 0 -.008 4.816134l8.089072 14.156826a4.7736627 4.8172081 10.871574 0 0 4.131445 2.400811l16.224612-.02723a4.7736627 4.8172081 10.871574 0 0 4.139467-2.414851l8.135644-14.183874a4.7736627 4.8172081 10.871574 0 0  .0079-4.816134l-8.088972-14.1568252a4.7736627 4.8172081 10.871574 0 0 -4.131835-2.4010715l-16.224403.027597a4.7736627 4.8172081 10.871574 0 0 -2.28958.5945966z" opacity=".2"/><path d="m13.630008 5.6222496a4.7736627 4.8172081 10.871574 0 0 -1.850248 1.8204659l-8.135855 14.1835065a4.7736627 4.8172081 10.871574 0 0 -.008 4.816134l8.089072 14.156826a4.7736627 4.8172081 10.871574 0 0 4.131445 2.400811l16.224612-.02723a4.7736627 4.8172081 10.871574 0 0 4.139467-2.414851l8.135644-14.183874a4.7736627 4.8172081 10.871574 0 0  .0079-4.816134l-8.088972-14.1568254a4.7736627 4.8172081 10.871574 0 0 -4.131835-2.4010715l-16.224403.027597a4.7736627 4.8172081 10.871574 0 0 -2.28958.5945966z" fill="#ff4141"/><path d="m14.357422 5.3007812a4.7736627 4.8172081 10.871574 0 0 -.728516.3222657 4.7736627 4.8172081 10.871574 0 0 -1.849609 1.8203125l-8.1347658 14.1835936a4.7736627 4.8172081 10.871574 0 0 -.00781 4.814453l8.0878878 14.158203a4.7736627 4.8172081 10.871574 0 0 4.13086 2.400391l16.224609-.02734a4.7736627 4.8172081 10.871574 0 0 3.269531-1.314453z" opacity=".2"/><path d="m33.955078 5.3652344-20.955078 36.2929686s-.13409.207015-.164062.251953a4.7736627 4.8172081 10.871574 0 0 3.019531 1.089844l16.224609-.02734a4.7736627 4.8172081 10.871574 0 0 4.140625-2.414062l8.134766-14.183598a4.7736627 4.8172081 10.871574 0 0  .0078-4.816406l-8.087878-14.1582034a4.7736627 4.8172081 10.871574 0 0 -2.320313-2.0351562z" opacity=".2"/><path d="m3.0039062 24a4.7736627 4.8172081 10.871574 0 0  .6328126 2.441406l8.0878902 14.158203a4.7736627 4.8172081 10.871574 0 0 4.13086 2.400391l16.224609-.02734a4.7736627 4.8172081 10.871574 0 0 4.140625-2.414062l8.134766-14.183598a4.7736627 4.8172081 10.871574 0 0  .640625-2.375z" opacity=".2"/><path d="m24 16c-9 0-16 7-16 9.164062 0 2.835938 7 8.835938 16 8.835938s16-7 16-8.835938c0-2.164062-7-9.164062-16-9.164062z" opacity=".2"/><path d="m24 15c-9 0-16 7-16 9.164062 0 2.835938 7 8.835938 16 8.835938s16-7 16-8.835938c0-2.164062-7-9.164062-16-9.164062z" fill="#fff"/><circle cx="24" cy="24" fill="#1b87e6" r="8"/><circle cx="24" cy="24" fill="#3f3f3f" r="4"/><path d="m32.142578 5-16.224609.0273438a4.7736627 4.8172081 10.871574 0 0 -2.289063.5957031 4.7736627 4.8172081 10.871574 0 0 -1.849609 1.8203125l-8.1347658 14.1835936a4.7736627 4.8172081 10.871574 0 0 -.6152343 2.910156 4.7736627 4.8172081 10.871574 0 1  .6152343-1.910156l8.1347658-14.1835936a4.7736627 4.8172081 10.871574 0 1 1.849609-1.8203125 4.7736627 4.8172081 10.871574 0 1 2.289063-.5957031l16.224609-.0273438a4.7736627 4.8172081 10.871574 0 1 4.132813 2.4003906l8.08789 14.1582034a4.7736627 4.8172081 10.871574 0 1  .607422 1.904297 4.7736627 4.8172081 10.871574 0 0 -.607422-2.904297l-8.08789-14.1582034a4.7736627 4.8172081 10.871574 0 0 -4.132813-2.4003906z" fill="#fff" opacity=".2"/></svg>