<svg height="48" viewBox="0 0 48 48" width="48" xmlns="http://www.w3.org/2000/svg"><g fill-rule="evenodd"><path d="m4.8166379 22c-1.4660787.0072-2.3263915 1.628414-1.4961968 2.819531l10.0435989 14.4c.340708.488591.903634.780493 1.505114.780469h18.261089c.60148.000024 1.164406-.291878 1.505114-.780469l10.043599-14.4c.876687-1.259249-.135608-2.954803-1.678094-2.810741l-19.001164 1.99121-19.0011626-1.99121c-.060446-.0059-.1211543-.0088-.1818975-.0088z" opacity=".2"/><path d="m4.8166379 21c-1.4660787.0072-2.3263915 1.628414-1.4961968 2.819531l10.0435989 14.4c.340708.488591.903634.780493 1.505114.780469h18.261089c.60148.000024 1.164406-.291878 1.505114-.780469l10.043599-14.4c.876687-1.259249-.135608-2.954803-1.678094-2.810741l-19.001164-.00879-19.0011626.00879c-.060446-.0059-.1211543-.0088-.1818975-.00879z" fill="#bcbcbc"/><path d="m5.0033315 21.009766 18.9960935 4.990234 18.996094-4.990234-18.996094-.0098z" opacity=".3"/><path d="m24.063744 7.0012004c-.635646-.02338-1.233345.2950591-1.557185.829629l-11.2659 18.6154036c-.77547 1.28081.397395 2.84514 1.882164 2.51037l10.876602-2.956603 10.876603 2.956603c1.484768.334769 2.657632-1.22956 1.882163-2.51037l-11.265899-18.6154036c-.300485-.4959629-.838768-.8085707-1.428548-.829629z" fill="#bcbcbc"/><path d="m24.063878 7.0019534a1.7333886 1.6924788 0 0 0 -1.556641.828125l-11.265624 18.6152336a1.7333886 1.6924788 0 0 0 -.16211 1.361329 1.7333886 1.6924788 0 0 1  .16211-.361329l11.265624-18.6152336a1.7333886 1.6924788 0 0 1 1.556641-.828125 1.7333886 1.6924788 0 0 1 1.427735.828125l11.265624 18.6152336a1.7333886 1.6924788 0 0 1  .166016.361329 1.7333886 1.6924788 0 0 0 -.166016-1.361329l-11.265624-18.6152336a1.7333886 1.6924788 0 0 0 -1.427735-.828125z" fill="#fff" opacity=".1"/><path d="m24 8 2.299425 20-2.3-2-2.3 2z" opacity=".3"/><path d="m4.8197378 21c-1.4658442.0072-2.3261557 1.629195-1.4960937 2.820312l10.0410149 14.398438c.340654.488591.904476.781274 1.50586.78125l9.128906-13-18.9980466-4.990234c-.060437-.0059-.1209071-.0098-.1816406-.0098zm19.1796872 5 9.128906 13c .601384.000024 1.165206-.292659 1.50586-.78125l10.041015-14.398438c.830062-1.191117-.03025-2.813112-1.496093-2.820312-.06073-.0001-.121201.0039-.181641.0098z" fill="#e4e4e4"/><path d="m4.8197378 21c-1.2654423.0062-2.0733586 1.215526-1.7382813 2.3125.2111371-.722292.8612392-1.308192 1.7382813-1.3125.060734-.00006.121204.0039.1816406.0098l18.4042966 4.83395.59375-.84375-18.9980466-4.990234c-.060437-.0059-.1209071-.0098-.1816406-.0098zm19.1796872 5 .59375.84375 18.404297-4.833984c.06044-.0059.120911-.0099.181641-.0098.877041.0043 1.527144.590208 1.738281 1.3125.335077-1.096974-.47284-2.306284-1.738281-2.3125-.06073-.0001-.121201.0039-.181641.0098z" fill="#fff" opacity=".2"/><path d="m3.0814565 23.3125c-.00111.0038-.0008668.0079-.00195.01172.053153.169649.1292969.336927.2402344.496093l10.0449181 14.398437-10.0410149-14.398438c-.1134814-.162842-.1891229-.33409-.2421876-.507812zm10.2832025 14.90625c.08549.122599.18435.231799.294922.328125-.110159-.09615-.209758-.205977-.294922-.328125zm31.552735-14.90625c-.05306.173722-.128706.344971-.242188.507812l-10.041015 14.398438c-.08516.122148-.184763.231978-.294922.328125.110572-.09633.211383-.205526.296875-.328125l10.042969-14.398438c.109585-.157406.188978-.321685.242187-.488281-.0018-.0064-.002-.01317-.0039-.01953zm-21.511719 3.53125-8.535156 12.15625h.703125l8.425781-12zm .59375.15625 8.425781 12h .703125l-8.535156-12.15625z" opacity=".1"/></g></svg>