<svg height="48" viewBox="0 0 48 48" width="48" xmlns="http://www.w3.org/2000/svg"><path d="m24.763686 5.0140485a20.000379 20.000002 0 0 0 -5.939565.6679687 20.000379 20.000002 0 0 0 -14.1428442 24.4941408 20.000379 20.000002 0 0 0 24.4946012 14.142578 20.000379 20.000002 0 0 0 14.142845-24.49414 20.000379 20.000002 0 0 0 -18.555037-14.8105475z" opacity=".2"/><path d="m24.763686 4.0142404a20.000379 20.000002 0 0 0 -5.939565.6679687 20.000379 20.000002 0 0 0 -14.1428442 24.4941409 20.000379 20.000002 0 0 0 24.4946012 14.142578 20.000379 20.000002 0 0 0 14.142845-24.49414 20.000379 20.000002 0 0 0 -18.555037-14.8105476z" fill="#2d4dc0"/><path d="m24.763672 4.0136719a20.000379 20.000002 0 0 0 -5.939453.6679687 20.000379 20.000002 0 0 0 -14.8007815 19.7304684 20.000379 20.000002 0 0 1 14.8007815-18.7304684 20.000379 20.000002 0 0 1 5.939453-.6679687 20.000379 20.000002 0 0 1 18.554687 14.8105471 20.000379 20.000002 0 0 1  .658203 4.763672 20.000379 20.000002 0 0 0 -.658203-5.763672 20.000379 20.000002 0 0 0 -18.554687-14.8105471z" fill="#fff" opacity=".1"/><path d="m23.335937 34.004569c-.163326.0101-.326205.0377-.484376.08008-.632681.169526-1.190077.59877-1.517578 1.166016-.3275.567248-.419526 1.265755-.25 1.898438.169526.632682.59877 1.190077 1.166016 1.517578.567248.3275 1.265756.419526 1.898439.25.632681-.169526 1.190077-.59877 1.517578-1.166016.3275-.567248.419526-1.265755.25-1.898438-.169526-.632684-.59877-1.190079-1.166016-1.51758-.425436-.245625-.924087-.360379-1.414063-.330078zm7.033204-10.002286c-.716724.01964-1.429365.248711-2.009766.669922-.673054.488451-1.15074 1.191506-1.675781 1.835937-.262521.322217-.541231.633527-.863282.896485-.32205.262958-.68991.478443-1.091796.585937-.401886.107495-.827668.104107-1.238283.03711-.410616-.06698-.808522-.197683-1.197265-.345703-.777486-.296038-1.541599-.666826-2.369141-.753907-1.141794-.12015-2.330393.353235-3.076172 1.22461-.745778.871376-1.027624 2.117577-.730468 3.224609.297155 1.107034 1.16377 2.043376 2.246093 2.425781 1.082325.382405 2.348702.199328 3.277344-.474609.673054-.488451 1.15074-1.191506 1.675781-1.835937.26252-.322217.541233-.633527.863283-.896485s.68991-.478442 1.091796-.585937c.401886-.107494.827667-.104106 1.238282-.03711.410616.06699.808521.197683 1.197265.345703.777485.296039 1.541599.666826 2.369141.753907 1.141793.120149 2.330393-.353234 3.076172-1.22461.745779-.871375 1.027624-2.117577.730468-3.224609-.297156-1.107034-1.163768-2.043376-2.246093-2.425781-.405872-.143402-.837544-.207095-1.267578-.195313zm-.210938-9.999667c-.955631.02553-1.90582.323521-2.679687.871094-.897406.634987-1.532368 1.550912-2.232422 2.388672-.350027.41888-.722944.822216-1.152344 1.164062s-.91923.620023-1.455079.759766c-.535848.139742-1.102904.137868-1.650391.05078-.547488-.08709-1.079332-.256794-1.597656-.449219-1.036648-.384851-2.056767-.867264-3.160156-.980468-1.522391-.156194-3.107192.459009-4.101563 1.591797-.994371 1.132787-1.370816 2.752263-.974609 4.191406.396207 1.439142 1.554947 2.657171 2.998047 3.154297 1.443099.497127 3.130952.258929 4.36914-.617188.897407-.634986 1.532368-1.550912 2.232422-2.388672.350027-.41888.722944-.822216 1.152344-1.164062.429399-.341846.91923-.620024 1.455078-.759766.535848-.139743 1.102905-.137869 1.650392-.05078.547488.08709 1.079332.256793 1.597656.449219 1.036649.38485 2.056767.867264 3.160156.980468 1.522391.156194 3.107191-.459008 4.101563-1.591797.994371-1.132787 1.370815-2.752263.974609-4.191406-.396208-1.439142-1.554948-2.657171-2.998047-3.154297-.541162-.186422-1.116074-.269223-1.689453-.253906z" opacity=".2"/><path d="m23.335937 33.003906c-.163326.0101-.326205.0377-.484376.08008-.632681.169526-1.190077.59877-1.517578 1.166016-.3275.567248-.419526 1.265755-.25 1.898438.169526.632682.59877 1.190077 1.166016 1.517578.567248.3275 1.265756.419526 1.898439.25.632681-.169526 1.190077-.59877 1.517578-1.166016.3275-.567248.419526-1.265755.25-1.898438-.169526-.632684-.59877-1.190079-1.166016-1.51758-.425436-.245625-.924087-.360379-1.414063-.330078zm7.033204-10.002286c-.716724.01964-1.429365.248711-2.009766.669922-.673054.488451-1.15074 1.191506-1.675781 1.835937-.262521.322217-.541231.633527-.863282.896485-.32205.262958-.68991.478443-1.091796.585937-.401886.107495-.827668.104107-1.238283.03711-.410616-.06698-.808522-.197683-1.197265-.345703-.777486-.296038-1.541599-.666826-2.369141-.753907-1.141794-.12015-2.330393.353235-3.076172 1.22461-.745778.871376-1.027624 2.117577-.730468 3.224609.297155 1.107034 1.16377 2.043376 2.246093 2.425781 1.082325.382405 2.348702.199328 3.277344-.474609.673054-.488451 1.15074-1.191506 1.675781-1.835937.26252-.322217.541233-.633527.863283-.896485s.68991-.478442 1.091796-.585937c.401886-.107494.827667-.104106 1.238282-.03711.410616.06699.808521.197683 1.197265.345703.777485.296039 1.541599.666826 2.369141.753907 1.141793.120149 2.330393-.353234 3.076172-1.22461.745779-.871375 1.027624-2.117577.730468-3.224609-.297156-1.107034-1.163768-2.043376-2.246093-2.425781-.405872-.143402-.837544-.207095-1.267578-.195313zm-.210938-9.999667c-.955631.02553-1.90582.323521-2.679687.871094-.897406.634987-1.532368 1.550912-2.232422 2.388672-.350027.41888-.722944.822216-1.152344 1.164062s-.91923.620023-1.455079.759766c-.535848.139742-1.102904.137868-1.650391.05078-.547488-.08709-1.079332-.256794-1.597656-.449219-1.036648-.384851-2.056767-.867264-3.160156-.980468-1.522391-.156194-3.107192.459009-4.101563 1.591797-.994371 1.132787-1.370816 2.752263-.974609 4.191406.396207 1.439142 1.554947 2.657171 2.998047 3.154297 1.443099.497127 3.130952.258929 4.36914-.617188.897407-.634986 1.532368-1.550912 2.232422-2.388672.350027-.41888.722944-.822216 1.152344-1.164062.429399-.341846.91923-.620024 1.455078-.759766.535848-.139743 1.102905-.137869 1.650392-.05078.547488.08709 1.079332.256793 1.597656.449219 1.036649.38485 2.056767.867264 3.160156.980468 1.522391.156194 3.107191-.459008 4.101563-1.591797.994371-1.132787 1.370815-2.752263.974609-4.191406-.396208-1.439142-1.554948-2.657171-2.998047-3.154297-.541162-.186422-1.116074-.269223-1.689453-.253906z" fill="#fff"/></svg>