<svg height="48" viewBox="0 0 48 48" width="48" xmlns="http://www.w3.org/2000/svg"><path d="m24.763686 5.0140485a20.000379 20.000002 0 0 0 -5.939565.6679687 20.000379 20.000002 0 0 0 -14.1428442 24.4941408 20.000379 20.000002 0 0 0 24.4946012 14.142578 20.000379 20.000002 0 0 0 14.142845-24.49414 20.000379 20.000002 0 0 0 -18.555037-14.8105475z" opacity=".2"/><path d="m24.763686 4.0142404a20.000379 20.000002 0 0 0 -5.939565.6679687 20.000379 20.000002 0 0 0 -14.1428442 24.4941409 20.000379 20.000002 0 0 0 24.4946012 14.142578 20.000379 20.000002 0 0 0 14.142845-24.49414 20.000379 20.000002 0 0 0 -18.555037-14.8105476z" fill="#fed909"/><circle cx="16.712" cy="30.36" opacity=".1" r="17" transform="matrix(.96592582 -.25881906 .25881906 .96592582 0 0)"/><circle cx="16.971" cy="29.394" fill="#273f57" r="17" transform="matrix(.96592582 -.25881906 .25881906 .96592582 0 0)"/><path d="m23.335938 34.004571c-.163326.0101-.326205.0377-.484376.08008-.632681.169526-1.190077.59877-1.517578 1.166016-.3275.567248-.419526 1.265755-.25 1.898438.169526.632682.59877 1.190077 1.166016 1.517578.567248.3275 1.265756.419526 1.898438.25.632681-.169526 1.190077-.59877 1.517578-1.166016.3275-.567248.419526-1.265755.25-1.898438-.169526-.632684-.59877-1.190079-1.166016-1.51758-.425436-.245625-.924086-.360379-1.414062-.330078zm7.033203-10.001953c-.716724.01964-1.429365.248711-2.009766.669922-.673054.488451-1.15074 1.191506-1.675781 1.835937-.262521.322217-.541231.633527-.863282.896485-.32205.262958-.68991.478443-1.091796.585937-.401886.107495-.827667.104107-1.238282.03711-.410616-.06698-.808522-.197683-1.197265-.345703-.777486-.296038-1.541599-.666826-2.369141-.753907-1.141794-.12015-2.330393.353235-3.076172 1.22461-.745778.871376-1.027624 2.117577-.730468 3.224609.297155 1.107034 1.16377 2.043376 2.246093 2.425781 1.082325.382405 2.348702.199328 3.277344-.474609.673054-.488451 1.15074-1.191506 1.675781-1.835937.26252-.322217.541233-.633527.863282-.896485.32205-.262958.68991-.478442 1.091796-.585937.401886-.107494.827667-.104106 1.238282-.03711.410616.06699.808521.197683 1.197265.345703.777485.296039 1.541599.666826 2.369141.753907 1.141793.120149 2.330393-.353234 3.076172-1.22461.745779-.871375 1.027624-2.117577.730468-3.224609-.297156-1.107034-1.163768-2.043376-2.246093-2.425781-.405872-.143402-.837544-.207095-1.267578-.195313zm-.210938-9.999767c-.955631.02553-1.90582.323521-2.679687.871094-.897406.634987-1.532368 1.550912-2.232422 2.388672-.350027.41888-.722944.822216-1.152344 1.164062-.429399.341846-.919229.620023-1.455078.759766-.535848.139742-1.102904.137868-1.650391.05078-.547488-.08709-1.079332-.256794-1.597656-.449219-1.036648-.384851-2.056767-.867264-3.160156-.980468-1.522391-.156194-3.107192.459009-4.101563 1.591797-.994371 1.132787-1.370816 2.752263-.974609 4.191406.396207 1.439142 1.554947 2.657171 2.998047 3.154297 1.443099.497127 3.130952.258929 4.36914-.617188.897407-.634986 1.532368-1.550912 2.232422-2.388672.350027-.41888.722944-.822216 1.152344-1.164062.429399-.341846.91923-.620024 1.455078-.759766.535848-.139743 1.102904-.137869 1.650391-.05078.547488.08709 1.079332.256793 1.597656.449219 1.036649.38485 2.056767.867264 3.160156.980468 1.522391.156194 3.107191-.459008 4.101563-1.591797.994371-1.132787 1.370815-2.752263.974609-4.191406-.396208-1.439142-1.554948-2.657171-2.998047-3.154297-.541162-.186422-1.116074-.269223-1.689453-.253906z" opacity=".2"/><path d="m23.335938 33.003906c-.163326.0101-.326205.0377-.484376.08008-.632681.169526-1.190077.59877-1.517578 1.166016-.3275.567248-.419526 1.265755-.25 1.898438.169526.632682.59877 1.190077 1.166016 1.517578.567248.3275 1.265756.419526 1.898438.25.632681-.169526 1.190077-.59877 1.517578-1.166016.3275-.567248.419526-1.265755.25-1.898438-.169526-.632684-.59877-1.190079-1.166016-1.51758-.425436-.245625-.924086-.360379-1.414062-.330078zm7.033203-10.001953c-.716724.01964-1.429365.248711-2.009766.669922-.673054.488451-1.15074 1.191506-1.675781 1.835937-.262521.322217-.541231.633527-.863282.896485-.32205.262958-.68991.478443-1.091796.585937-.401886.107495-.827667.104107-1.238282.03711-.410616-.06698-.808522-.197683-1.197265-.345703-.777486-.296038-1.541599-.666826-2.369141-.753907-1.141794-.12015-2.330393.353235-3.076172 1.22461-.745778.871376-1.027624 2.117577-.730468 3.224609.297155 1.107034 1.16377 2.043376 2.246093 2.425781 1.082325.382405 2.348702.199328 3.277344-.474609.673054-.488451 1.15074-1.191506 1.675781-1.835937.26252-.322217.541233-.633527.863282-.896485.32205-.262958.68991-.478442 1.091796-.585937.401886-.107494.827667-.104106 1.238282-.03711.410616.06699.808521.197683 1.197265.345703.777485.296039 1.541599.666826 2.369141.753907 1.141793.120149 2.330393-.353234 3.076172-1.22461.745779-.871375 1.027624-2.117577.730468-3.224609-.297156-1.107034-1.163768-2.043376-2.246093-2.425781-.405872-.143402-.837544-.207095-1.267578-.195313zm-.210938-9.999767c-.955631.02553-1.90582.323521-2.679687.871094-.897406.634987-1.532368 1.550912-2.232422 2.388672-.350027.41888-.722944.822216-1.152344 1.164062-.429399.341846-.919229.620023-1.455078.759766-.535848.139742-1.102904.137868-1.650391.05078-.547488-.08709-1.079332-.256794-1.597656-.449219-1.036648-.384851-2.056767-.867264-3.160156-.980468-1.522391-.156194-3.107192.459009-4.101563 1.591797-.994371 1.132787-1.370816 2.752263-.974609 4.191406.396207 1.439142 1.554947 2.657171 2.998047 3.154297 1.443099.497127 3.130952.258929 4.36914-.617188.897407-.634986 1.532368-1.550912 2.232422-2.388672.350027-.41888.722944-.822216 1.152344-1.164062.429399-.341846.91923-.620024 1.455078-.759766.535848-.139743 1.102904-.137869 1.650391-.05078.547488.08709 1.079332.256793 1.597656.449219 1.036649.38485 2.056767.867264 3.160156.980468 1.522391.156194 3.107191-.459008 4.101563-1.591797.994371-1.132787 1.370815-2.752263.974609-4.191406-.396208-1.439142-1.554948-2.657171-2.998047-3.154297-.541162-.186422-1.116074-.269223-1.689453-.253906z" fill="#fed909"/><path d="m24.763672 4.0136719a20.000379 20.000002 0 0 0 -5.939453.6679687 20.000379 20.000002 0 0 0 -14.8007815 19.7304684 20.000379 20.000002 0 0 1 14.8007815-18.7304684 20.000379 20.000002 0 0 1 5.939453-.6679687 20.000379 20.000002 0 0 1 18.554687 14.8105471 20.000379 20.000002 0 0 1  .658203 4.763672 20.000379 20.000002 0 0 0 -.658203-5.763672 20.000379 20.000002 0 0 0 -18.554687-14.8105471z" fill="#fff" opacity=".2"/><path d="m23.335938 33.003906c-.163326.0101-.326205.0377-.484376.08008-.632681.169526-1.190077.59877-1.517578 1.166016-.304031.526599-.39614 1.164602-.273437 1.759766.05306-.265414.138062-.525288.273437-.759766.327501-.567246.884897-.99649 1.517578-1.166016.158171-.04238.321049-.06998.484376-.08008.489976-.0303.988626.08445 1.414062.330078.567246.327501.99649.884894 1.166016 1.517578.01231.04596.01387.09405.02344.140626.07545-.376871.07607-.769255-.02344-1.140626-.169526-.632682-.59877-1.190077-1.166016-1.517578-.425436-.245625-.924086-.360379-1.414062-.330078zm7.033203-10.001953c-.716724.01964-1.429365.248711-2.009766.669922-.673054.488451-1.15074 1.191506-1.675781 1.835937-.262521.322217-.541231.633527-.863282.896485-.32205.262958-.68991.478443-1.091796.585937-.401886.107495-.827667.104107-1.238282.03711-.410616-.06698-.808522-.197683-1.197265-.345703-.777486-.296038-1.541599-.666826-2.369141-.753907-1.141794-.12015-2.330393.353235-3.076172 1.22461-.659893.771027-.95488 1.836015-.808594 2.83789.09234-.672193.366938-1.321854.808594-1.83789.745779-.871375 1.934378-1.34476 3.076172-1.22461.827542.08708 1.591655.457869 2.369141.753907.388743.14802.786649.278723 1.197265.345703.410615.067.836396.07039 1.238282-.03711.401886-.107494.769746-.322979 1.091796-.585937.322052-.262958.600761-.574268.863282-.896485.525041-.644431 1.002727-1.347486 1.675781-1.835937.580401-.421211 1.293042-.650282 2.009766-.669922.430034-.01178.861706.05191 1.267578.195313 1.082325.382405 1.948937 1.318747 2.246093 2.425781.03423.127535.05908.258228.07813.388672.06359-.462869.04305-.937234-.07813-1.388672-.297156-1.107034-1.163768-2.043376-2.246093-2.425781-.405872-.143402-.837544-.207095-1.267578-.195313zm-.210938-9.999767c-.955631.02553-1.90582.323521-2.679687.871094-.897406.634987-1.532368 1.550912-2.232422 2.388672-.350027.41888-.722944.822216-1.152344 1.164062-.429399.341846-.919229.620023-1.455078.759766-.535848.139742-1.102904.137868-1.650391.05078-.547488-.08709-1.079332-.256794-1.597656-.449219-1.036648-.384851-2.056767-.867264-3.160156-.980468-1.522391-.156194-3.107192.459009-4.101563 1.591797-.839984.956909-1.232825 2.260344-1.097656 3.509765.104503-.917678.481049-1.807327 1.097656-2.509765.994371-1.132789 2.579172-1.747991 4.101563-1.591797 1.103389.113204 2.123508.595617 3.160156.980468.518324.192425 1.050168.362129 1.597656.449219.547487.08709 1.114543.08896 1.650391-.05078.535849-.139743 1.025679-.41792 1.455078-.759766.4294-.341846.802317-.745182 1.152344-1.164062.700054-.83776 1.335016-1.753685 2.232422-2.388672.773867-.547573 1.724056-.845564 2.679687-.871094.573379-.01532 1.148291.06748 1.689453.253906 1.443099.497126 2.601839 1.715155 2.998047 3.154297.06151.223442.0982.452001.123047.681641.06401-.56219.02747-1.134932-.123047-1.681641-.396208-1.439142-1.554948-2.657171-2.998047-3.154297-.541162-.186422-1.116074-.269223-1.689453-.253906z" fill="#fff" opacity=".2"/></svg>