<svg height="48" width="48" xmlns="http://www.w3.org/2000/svg"><rect fill="#8e8e8e" height="32" rx="2" transform="matrix(0 -1 -1 0 0 0)" width="40" x="-44" y="-40"/><path d="m8 42v1c0 1.108.892 2 2 2h28c1.108 0 2-.892 2-2v-1c0 1.108-.892 2-2 2h-28c-1.108 0-2-.892-2-2z" opacity=".2"/><path d="m24 10c5.5228 0 10 4.4771 10 10 0 5.5228-4.4772 10-10 10h-10v-10c0-5.5228 4.4772-10 10-10zm0 5c-2.7614 0-5 2.2386-5 5s2.2386 5 5 5 5-2.2386 5-5-2.2386-5-5-5z" opacity=".5"/><path d="m10 4c-1.108 0-2 .892-2 2v1c0-1.108.892-2 2-2h28c1.108 0 2 .892 2 2v-1c0-1.108-.892-2-2-2z" fill="#fff" opacity=".2"/><circle cx="36" cy="37" opacity=".2" r="11"/><circle cx="36" cy="36" fill="#cc5e55" r="11"/><path d="m34.488 29.999-.13345 1.5804a4.7567 4.7143 0 0 0 -1.3902.79689l-1.4493-.67635-1.5135 2.5982 1.3159.9057a4.7567 4.7143 0 0 0 -.07265.7952 4.7567 4.7143 0 0 0  .06922.79855l-1.314.903 1.5135 2.5982 1.4459-.67466a4.7567 4.7143 0 0 0 1.393.792l.133 1.584h3.027l.13344-1.5804a4.7567 4.7143 0 0 0 1.3902-.79688l1.4493.67634 1.5135-2.5982-1.3159-.9057a4.7567 4.7143 0 0 0  .07265-.79519 4.7567 4.7143 0 0 0 -.06922-.79855l1.313-.901-1.5135-2.5982-1.446.67467a4.7567 4.7143 0 0 0 -1.393-.792l-.13344-1.5837h-3.027zm1.5135 4.2857a1.7297 1.7143 0 0 1 1.7297 1.7143 1.7297 1.7143 0 0 1 -1.7297 1.7143 1.7297 1.7143 0 0 1 -1.7297-1.7143 1.7297 1.7143 0 0 1 1.7297-1.7143z" fill="#fff"/></svg>