<svg height="48" viewBox="0 0 48 48" width="48" xmlns="http://www.w3.org/2000/svg"><rect height="40" opacity=".2" rx="2" transform="rotate(-90)" width="13" x="-45" y="4"/><rect fill="#8e8e8e" height="40" rx="2" transform="rotate(-90)" width="13" x="-44" y="4"/><g stroke="#000" stroke-linecap="round" stroke-width="2"><path d="m29 35 3 5" opacity=".5"/><path d="m33 35 3 5" opacity=".5"/><path d="m37 35 3 5" opacity=".5"/><path d="m25 35 3 5" opacity=".5"/></g><g transform="scale(-1 1)"><circle cx="-18" cy="36" opacity=".2" r="2"/><circle cx="-13" cy="36" opacity=".2" r="2"/><circle cx="-8" cy="36" opacity=".2" r="2"/><circle cx="-18" cy="35" fill="#76ff03" r="2"/><circle cx="-13" cy="35" fill="#ff0" r="2"/><circle cx="-8" cy="35" fill="#ffcd40" r="2"/></g><rect height="40" opacity=".2" rx="2" transform="rotate(-90)" width="13" x="-32" y="4"/><rect fill="#8e8e8e" height="40" rx="2" transform="rotate(-90)" width="13" x="-31" y="4"/><g stroke="#000" stroke-linecap="round" stroke-width="2"><path d="m29 22 3 5" opacity=".5"/><path d="m33 22 3 5" opacity=".5"/><path d="m37 22 3 5" opacity=".5"/><path d="m25 22 3 5" opacity=".5"/></g><g transform="scale(-1 1)"><circle cx="-13" cy="23" opacity=".2" r="2"/><circle cx="-8" cy="23" opacity=".2" r="2"/><circle cx="-13" cy="22" fill="#ff0" r="2"/><circle cx="-8" cy="22" fill="#ffcd40" r="2"/></g><rect height="40" opacity=".2" rx="2" transform="rotate(-90)" width="13" x="-19" y="4"/><rect fill="#8e8e8e" height="40" rx="2" transform="rotate(-90)" width="13" x="-18" y="4"/><g stroke="#000" stroke-linecap="round" stroke-width="2"><path d="m29 9 3 5" opacity=".5"/><path d="m33 9 3 5" opacity=".5"/><path d="m37 9 3 5" opacity=".5"/><path d="m25 9 3 5" opacity=".5"/></g><circle cx="-8" cy="10" opacity=".2" r="2" transform="scale(-1 1)"/><circle cx="-8" cy="9" fill="#ffcd40" r="2" transform="scale(-1 1)"/><path d="m42 5c1.108 0 2 .892 2 2v1c0-1.108-.892-2-2-2h-36c-1.108 0-2 .892-2 2v-1c0-1.108.892-2 2-2z" fill="#fff" opacity=".2"/></svg>