<svg height="48" viewBox="0 0 48 48" width="48" xmlns="http://www.w3.org/2000/svg"><g transform="translate(0 -1004.4)"><rect height="40" opacity=".2" rx="3" transform="matrix(0 -1 -1 0 0 0)" width="40" x="-1048.4" y="-44"/><path d="m-270.89 983.4h21.559v21.559h-21.559z" fill="#f4f1ef" stroke="#f4f1ef" stroke-width="2" transform="matrix(.9612617 -.27563736 .27563736 .9612617 0 0)"/><path d="m5.2129 1019.6c-.41365-.0007-.81325.013-1.2129.025v25.699c0 .2221.0269.4364.0723.6445 4.429-.3949 8.7535-1.3656 12.537-5.3105l-5.9434-20.725c-1.9346-.2188-3.7526-.3313-5.4531-.334z" fill="#48c39e"/><path d="m37.334 1034.8-20.725 5.9434c-.66006 2.7-.67684 5.2377-.25 7.666h24.641c.60417 0 1.163-.1814 1.6328-.4863-.15836-4.7765-.58619-9.4852-5.2988-13.123z" fill="#d81768"/><path d="m42.797 1009c-4.6693.4471-8.991 1.3893-11.406 5.0566l5.9434 20.725c2.368.4889 4.5734.5321 6.666.2637v-23.654c0-.9836-.47607-1.8442-1.2031-2.3906z" fill="#ecb524"/><path d="m7 1008.4c-.60009 0-1.1552.1793-1.623.4805.98413 3.844 2.8033 7.5435 5.2891 11.129l20.725-5.9434c.83502-2.1052 1.0726-3.9609.94727-5.666h-25.338z" fill="#81d2e0"/><path d="m16.609 1040.7-12.609 3.6v1.0508c0 1.662 1.338 3 3 3h11.809l-2.1992-7.666z" fill="#390f39"/><path d="m7 1008.4c-1.662 0-3 1.338-3 3v10.522l6.666-1.9121-3.3281-11.609h-.33789z" fill="#20a48e"/><path d="m29.766 1008.4 1.625 5.666 12.457-3.5703c-.38379-1.2141-1.5034-2.0957-2.8477-2.0957h-11.234z" fill="#77971f"/><path d="m44 1032.8-6.666 1.9121 3.8945 13.586c1.553-.1 2.772-1.4 2.772-2.9v-12.522z" fill="#d5100d"/><path d="m29.972 1030.6c-.00002 1.5386-.50672 2.7185-1.5201 3.5396-1.006.8211-2.4928 1.2316-4.4605 1.2316-1.3611 0-2.5446-.2256-3.5506-.6768-.99862-.4513-1.8123-1.1799-2.441-2.1859l2.4078-1.8419c.35506.503.69163.8803 1.0097 1.1318s.69533.4475 1.1318.588c.43643.1406.93943.2109 1.509.2109.85066 0 1.5127-.1443 1.9861-.4328.4808-.2958.72121-.7434.72122-1.3425-.00001-.3403-.0851-.6251-.2552-.8544-.16275-.2293-.41055-.4253-.74341-.5881-.33288-.1701-.90986-.3624-1.7309-.577-.7989-.2145-1.5534-.429-2.2635-.6435-.70273-.2219-1.313-.5067-1.8308-.8544-.5104-.3476-.91354-.7841-1.2094-1.3093-.29588-.5252-.44383-1.1872-.44383-1.9861 0-1.4572.49191-2.5927 1.4757-3.4064.98382-.8211 2.393-1.2316 4.2275-1.2316 2.6556 0 4.5344.9099 5.6366 2.7295l-2.3856 1.8641c-.42164-.6509-.89506-1.1169-1.4202-1.398-.5252-.2811-1.1503-.4217-1.8752-.4217-.72492 0-1.3167.1332-1.7753.3995-.45123.2589-.67684.6694-.67684 1.2316 0 .4956.2367.8766.71013 1.1428.47341.259 1.2982.5216 2.4743.7878.65094.1702 1.2945.3551 1.9306.5548.63614.1924 1.202.4624 1.6976.81.50299.3477.90614.8026 1.2094 1.3648.30327.5622.45491 1.2834.45493 2.1636" fill="#5a3856"/><path d="m7 1008.4c-1.662 0-3 1.338-3 3v1c0-1.662 1.338-3 3-3h34c1.662 0 3 1.338 3 3v-1c0-1.662-1.338-3-3-3z" fill="#fff" opacity=".2"/><path d="m7 1049.4c-1.662 0-3-1.338-3-3v-1c0 1.662 1.338 3 3 3h34c1.662 0 3-1.338 3-3v1c0 1.662-1.338 3-3 3z" opacity=".2"/></g></svg>