<svg height="48" width="48" xmlns="http://www.w3.org/2000/svg"><path d="m44 40v-32c0-1.108-.892-2-2-2h-36c-1.108 0-2 .892-2 2v32c0 1.108.892 2 2 2h36c1.108 0 2-.892 2-2z" fill="#ff766a"/><path d="m32 15c3.3137 0 6 2.6863 6 6s-2.6863 6-6 6-6-2.6863-6-6 2.6863-6 6-6z" fill-rule="evenodd" opacity=".2"/><path d="m32 14c3.3137 0 6 2.6863 6 6s-2.6863 6-6 6-6-2.6863-6-6 2.6863-6 6-6z" fill="#fffee4" fill-rule="evenodd"/><path d="m6 6c-1.108 0-2 .892-2 2v1c0-1.108.892-2 2-2h36c1.108 0 2 .892 2 2v-1c0-1.108-.892-2-2-2z" fill="#fff" opacity=".2"/><path d="m4 32v8c0 1.108.892 2 2 2h36c1.108 0 2-.892 2-2v-8z" fill="#d22f7a"/><path d="m4 32v-1.390108s2.8845-2.316482 3.6955-2.518491c.81097-.202107 1.7687-.03759 2.7529.188328.98427.225177 2.4537 1.029502 2.9123 1.048535.45862.01945 1.2885-.04865 2.2528-.119546.96428-.06944 2.5609-.13344 3.0589-.12648.498 0 1.7412.08343 3.0665.181796 1.3252.09864 3.1455.263536 3.5584.309679.41299.04585.89844.130654 1.4494.223087.5509.09171 1.5046.230308 1.8421.268401.33739.03745 1.1196.168322 2.0272.269922.90758.101426 2.36.136213 2.7794.09864.41944-.03759 1.2986-.414608 2.2784-.762792.97975-.348037 2.0601-.666753 2.8818-.587943.82175.079159 5.4444 1.526767 5.4444 1.526767v1.389986h-35.142z" fill="#3f3f3f"/><path d="m4 40v1c0 1.108.892 2 2 2h36c1.108 0 2-.892 2-2v-1c0 1.108-.892 2-2 2h-36c-1.108 0-2-.892-2-2z" opacity=".2"/><path d="m4 32h40v1h-40z" fill="#fff" opacity=".1"/><circle cx="36" cy="37" fill-rule="evenodd" opacity=".2" r="11"/><path d="m36 29c-3.866 0-7 3.134-7 7s3.134 7 7 7c3.1748 0 5.8615-2.1032 6.7188-5h-2.1562c-.77427 1.7595-2.5168 3-4.5625 3-2.7614 0-5-2.2386-5-5s2.2386-5 5-5c1.3816 0 2.6155.57505 3.5156 1.4844l-2.516 2.516h6v-6l-2.0527 2.0527c-1.268-1.265-3.013-2.053-4.947-2.053z" fill="#fff"/><circle cx="36" cy="36" fill="#4254cd" fill-rule="evenodd" r="11"/><path d="m34.488281 29.998047-.002.0039h.002zm0 .0039-.132812 1.578125a4.7567 4.7143 0 0 0 -1.390625.796875l-1.449219-.677734-1.513672 2.599609 1.316406.904297a4.7567 4.7143 0 0 0 -.07422.796881 4.7567 4.7143 0 0 0  .07031.796875l-1.314449.904297 1.513672 2.597656 1.445312-.673828a4.7567 4.7143 0 0 0 1.392578.791016l.134766 1.583984h3.025391l.134765-1.580078a4.7567 4.7143 0 0 0 1.388672-.796875l1.451172.675781 1.511719-2.597656-1.314453-.90625a4.7567 4.7143 0 0 0  .07226-.794922 4.7567 4.7143 0 0 0 -.07031-.798828l1.314456-.900391-1.513672-2.597656-1.447266.673828a4.7567 4.7143 0 0 0 -1.392578-.791015l-.132812-1.583985h-3.025391zm1.511719 3.998053a2 2 0 0 1 2 2 2 2 0 0 1 -2 2 2 2 0 0 1 -2-2 2 2 0 0 1 2-2z" fill="#fff"/></svg>