<svg height="48" width="48" xmlns="http://www.w3.org/2000/svg"><path d="m24 4h-18c-1.108 0-2 .892-2 2v18h20z" fill="#a2e36e"/><path d="m24 4h18c1.108 0 2 .892 2 2v18h-20z" fill="#2cbfeb"/><path d="m24 44h-18c-1.108 0-2-.892-2-2v-18h20z" fill="#21d789"/><path d="m24 44h18c1.108 0 2-.892 2-2v-18h-20z" fill="#f7c73c"/><path d="m6 4c-1.108 0-2 .892-2 2v1c0-1.108.892-2 2-2h36c1.108 0 2 .892 2 2v-1c0-1.108-.892-2-2-2z" fill="#fff" opacity=".2"/><path d="m6 45c-1.108 0-2-.892-2-2v-1c0 1.108.892 2 2 2h36c1.108 0 2-.892 2-2v1c0 1.108-.892 2-2 2z" opacity=".2"/><path d="m10 10h28v28h-28z" fill="#3f3f3f"/><g fill="none" stroke-linecap="round" stroke-width="2"><path d="m16 32.9999h8" opacity=".2" stroke="#000"/><path d="m16 32h8" stroke="#fff"/><g stroke-linejoin="bevel"><path d="m16 20.9999s4.000003.464501 4.000003-1.999997c0-2.464501-4.000003-2.000001-4.000003-2.000001m.000098 8.000099v-8.000001" opacity=".2" stroke="#000"/><path d="m16 20s4.000003.464501 4.000003-1.999997c0-2.464501-4.000003-2.000001-4.000003-2.000001m.000098 8.000099v-8.000001" stroke="#fff"/><path d="m28 23.9999s0 1.000002-2.000001 1.000002c-1.999999 0-1.999999-2.000001-1.999999-4.000002 0-1.999998 0-3.999999 1.999999-3.999999 2.000001 0 2.000001.999999 2.000001.999999" opacity=".2" stroke="#000"/><path d="m28 23s0 1.000002-2.000001 1.000002c-1.999999 0-1.999999-2.000001-1.999999-4.000002 0-1.999998 0-3.999999 1.999999-3.999999 2.000001 0 2.000001.999999 2.000001.999999" stroke="#fff"/></g></g></svg>