<svg height="48" width="48" xmlns="http://www.w3.org/2000/svg"><rect height="40" opacity=".2" rx="2" transform="scale(-1 1)" width="36" x="-42" y="5"/><rect fill="#e4e4e4" height="40" rx="2" transform="scale(-1 1)" width="36" x="-42" y="4"/><path d="m38 8.0000004h-28v13.9999996h28z" fill="#2b629b"/><circle cx="24" cy="22" fill="#ff9600" fill-rule="evenodd" r="5"/><path d="m10 22v14h28v-14z" fill="#0c939f"/><path d="m19 23s .932433 1.327658 1 2.289062c.06053.860528-1.01937 1.456032-1 2.320313.02472 1.102648 1.913875 1.501041 2 2.597656.06669.846907-1.032329 1.795701-1 2.646485.04378 1.152733 1.341414 1.523885 1.898438 2.375.108754.166165.255039.481566.392578.771484h4.550781c.101269-.167452.165832-.337387.158203-.494141-.06197-1.27134-.972743-1.247758-1-2.521484-.01626-.76615.870445-.569713 1-1.314453.144056-.828199-1.156752-1.650938-1-2.47461.222185-1.167355 2.89068-1.04382 3-2.242187.07613-.83385-1.04556-1.212578-1-2.050781.04789-.884461 1-1.902344 1-1.902344z" fill-opacity=".894118" fill-rule="evenodd" opacity=".2"/><path d="m19 22s .932433 1.328398 1 2.289803c.06053.860527-1.01937 1.455934-1 2.320215.02472 1.102648 1.913875 1.500894 2 2.597509.06669.846907-1.032329 1.794776-1 2.64556.04378 1.152733 1.341623 1.52379 1.898647 2.374905.297839.455067.851356 1.772008.851356 1.772008h3.124996s1.155995-.857891 1.125001-1.494699c-.06197-1.27134-.972743-1.246458-1-2.520184-.01626-.76615.870445-.570037 1-1.314777.144056-.828199-1.156752-1.651203-1-2.474875.222185-1.167355 2.89068-1.044479 3-2.242846.07613-.83385-1.04556-1.211307-1-2.04951.04789-.884461 1-1.903109 1-1.903109z" fill="#fded63" fill-rule="evenodd"/><path d="m8 4c-1.108 0-2 .892-2 2v1c0-1.108.892-2 2-2h32c1.108 0 2 .892 2 2v-1c0-1.108-.892-2-2-2z" fill="#fff" opacity=".2"/><g fill-rule="evenodd"><path d="m12.530737 12.339499s.774044-1.82237 1.721385-2.016288c.794139-.162555 2.309171.890905 2.309171.890905s1.417843-1.4789515 2.435138-1.172246c.713948.215233 1.427511 1.734921 1.427511 1.734921s2.181677.06102 2.519091 1.078482c.325672.982158-.811549 2.231404-1.721383 2.485197-.893349.249197-2.141244-.468926-2.141244-.468926s-.99581 1.060909-1.721379 1.125386c-.819317.07277-2.39315-1.172273-2.39315-1.172273s-1.154434 1.230834-2.183232.984723c-.927829-.222001-2.059802-1.542041-1.721388-2.532083.183051-.535542 1.46948-.937798 1.46948-.937798z" opacity=".2"/><path d="m12.530737 11.339499s.774044-1.8223702 1.721385-2.0162882c.794139-.162555 2.309171.8909052 2.309171.8909052s1.417843-1.4789515 2.435138-1.1722462c.713948.215233 1.427511 1.7349212 1.427511 1.7349212s2.181677.06102 2.519091 1.078482c.325672.982158-.811549 2.231404-1.721383 2.485197-.893349.249197-2.141244-.468926-2.141244-.468926s-.99581 1.060909-1.721379 1.125386c-.819317.07277-2.39315-1.172273-2.39315-1.172273s-1.154434 1.230834-2.183232.984723c-.927829-.222001-2.059802-1.542041-1.721388-2.532083.183051-.535542 1.46948-.937798 1.46948-.937798z" fill="#fff"/><path d="m29.796054 11.051907c-.691785.210924-1.368101 1.761988-1.368101 1.761988s-1.808674-.265537-2.204156.400458c-.531654.895291-.06152 2.573696.836059 3.043422.632108.33077 1.976147-.800894 1.976147-.800894s1.462066 1.755274 2.356163 1.52172c.771778-.201623 1.292084-1.541744 1.292084-1.541744s1.336307 1.324963 2.204159.880995c1.266717-.648048 1.477786-3.283299.494052-4.344905-.588381-.634947-2.166165.280315-2.166165.280315s-2.265851-1.553334-3.420242-1.201355z" opacity=".2"/><path d="m29.796054 10.051907c-.691785.210924-1.368101 1.761988-1.368101 1.761988s-1.808674-.265537-2.204156.400458c-.531654.895291-.06152 2.573696.836059 3.043422.632108.33077 1.976147-.800894 1.976147-.800894s1.462066 1.755274 2.356163 1.52172c.771778-.201623 1.292084-1.541744 1.292084-1.541744s1.336307 1.324963 2.204159.880995c1.266717-.648048 1.477786-3.283299.494052-4.344905-.588381-.634947-2.166165.280315-2.166165.280315s-2.265851-1.5533343-3.420242-1.201355z" fill="#fff"/><path d="m24 17a5 5 0 0 0 -5 5 5 5 0 0 0  .027344.484375 5 5 0 0 1 4.972656-4.484375 5 5 0 0 1 4.972656 4.515625 5 5 0 0 0  .027344-.515625 5 5 0 0 0 -5-5z" fill="#fff" opacity=".2"/></g><path d="m10 22v1h28v-1z" fill="#fff" opacity=".1"/></svg>