<svg height="48" viewBox="0 0 48 48" width="48" xmlns="http://www.w3.org/2000/svg"><rect fill="#be212e" height="40" rx="2.105" width="40" x="4" y="4"/><path d="m15.52 14.002c-1.3057.0407-2.5669.63054-3.533 1.5241-.98184.90815-1.6856 2.1559-1.8281 3.4974-.07128.67078-.002 1.3583.21703 1.9951.21899.6369.58949 1.222 1.0812 1.6752.57995.53445 1.3048.8716 1.9708 1.2897.33304.20908.65481.44109.93068.72332.27586.28223.50522.61703.63153.99357.11238.33504.14011.69703.08994 1.0472-.05017.3503-.17782.68829-.36367.98761-.37169.59875-.971 1.0347-1.6287 1.2678-.76283.27033-1.6032.28374-2.3384.62396-.58182.26921-1.0712.73866-1.3765 1.3095-.30522.57087-.42612 1.2405-.35194 1.8858.087169.75828.44414 1.4795.97955 2.015.53541.53547 1.2439.88426 1.9865.99954 1.0888.16899 2.2527-.18524 3.0442-.96377.39576-.38926.69763-.87606.86615-1.4089.16852-.53292.20334-1.1107.09385-1.6593-.08362-.41887-.24833-.81583-.40082-1.2141-.15248-.39842-.29562-.80624-.33238-1.232-.06491-.75177.21845-1.5166.70974-2.0825.49129-.56589 1.1777-.93825 1.9024-1.1029.46757-.10622.95507-.13001 1.4273-.04769.47222.08242.9293.27133 1.3119.56435.38263.29302.68845.69129.85833 1.1466.16988.4553.19998.96762.06452 1.4347-.13874.47839-.43697.88868-.73906 1.2817s-.6182.78776-.79772 1.2519c-.19797.51186-.21776 1.089-.08212 1.6215.13564.53242.42229 1.0208.79772 1.4168.41534.4382.9413.76641 1.5133.94588.573.178 1.158.209 1.756.209.59867 0 1.2228-.03106 1.7949-.21064.57202-.17947 1.098-.50768 1.5133-.94588.37543-.39608.66208-.88442.79772-1.4168.13564-.53252.11585-1.1096-.08212-1.6215-.17952-.46415-.49562-.85888-.79772-1.2519-.3021-.39303-.60033-.80332-.73906-1.2817-.13545-.4671-.10536-.97942.06452-1.4347.16988-.45529.4757-.85357.85833-1.1466.38263-.29302.83972-.48194 1.3119-.56435.47222-.08231.95972-.05852 1.4273.04769.72469.16462 1.4111.53698 1.9024 1.1029.49129.56589.77464 1.3308.70974 2.0825-.03676.42579-.1799.83361-.33238 1.232-.15248.39832-.3172.79528-.40082 1.2141-.10949.54859-.07467 1.1263.09385 1.6593.16852.53282.4704 1.0196.86615 1.4089.79151.77853 1.9554 1.1328 3.0442.96377.74253-.11527 1.4511-.46407 1.9865-.99954.53541-.53547.89238-1.2567.97955-2.015.07419-.64535-.04671-1.3149-.35194-1.8858-.30523-.57087-.79464-1.0403-1.3765-1.3095-.73526-.34022-1.5756-.35364-2.3384-.62396-.65768-.23309-1.257-.66905-1.6287-1.2678-.18585-.29933-.3135-.63732-.36367-.98761-.05017-.3502-.02244-.71219.08994-1.0472.12631-.37655.35566-.71134.63153-.99357.27586-.28223.59764-.51424.93067-.72332.66608-.41806 1.3909-.75521 1.9708-1.2897.49173-.45316.86223-1.0383 1.0812-1.6752.21898-.6368.2883-1.3243.21703-1.9951-.14256-1.3415-.84627-2.5892-1.8281-3.4974-.9661-.8936-2.2273-1.4834-3.533-1.5241-.65285-.02035-1.3104.0957-1.9122.35371-.60179.25802-1.1459.65887-1.5622 1.1704-.47726.58644-.77722 1.2991-1.0519 2.007-.27468.70802-.5343 1.4298-.95023 2.0627-.68588 1.0436-1.7684 2.0348-3.0032 2.0348s-2.3173-.99127-3.0032-2.0348c-.41592-.63284-.67555-1.3546-.95023-2.0627-.27468-.70792-.57464-1.4206-1.0519-2.007-.4163-.51156-.96041-.91241-1.5622-1.1704-.60179-.25802-1.2593-.37406-1.9122-.35371zm8.4797 9.6635a2.0021 2.0349 0 0 1 2.0021 2.0348 2.0021 2.0349 0 0 1 -2.0021 2.0348 2.0021 2.0349 0 0 1 -2.0021-2.0348 2.0021 2.0349 0 0 1 2.0021-2.0348z" opacity=".2"/><path d="m15.52 13.002c-1.3057.0407-2.5669.63054-3.533 1.5241-.98184.90815-1.6856 2.1559-1.8281 3.4974-.07128.67078-.002 1.3583.21703 1.9951.21899.6369.58949 1.222 1.0812 1.6752.57995.53445 1.3048.8716 1.9708 1.2897.33304.20908.65481.44109.93068.72332.27586.28223.50522.61703.63153.99357.11238.33504.14011.69703.08994 1.0472-.05017.3503-.17782.68829-.36367.98761-.37169.59875-.971 1.0347-1.6287 1.2678-.76283.27033-1.6032.28374-2.3384.62396-.58182.26921-1.0712.73866-1.3765 1.3095-.30522.57087-.42612 1.2405-.35194 1.8858.087169.75828.44414 1.4795.97955 2.015.53541.53547 1.2439.88426 1.9865.99954 1.0888.16899 2.2527-.18524 3.0442-.96377.39576-.38926.69763-.87606.86615-1.4089.16852-.53292.20334-1.1107.09385-1.6593-.08362-.41887-.24833-.81583-.40082-1.2141-.15248-.39842-.29562-.80624-.33238-1.232-.06491-.75177.21845-1.5166.70974-2.0825.49129-.56589 1.1777-.93825 1.9024-1.1029.46757-.10622.95507-.13001 1.4273-.04769.47222.08242.9293.27133 1.3119.56435.38263.29302.68845.69129.85833 1.1466.16988.4553.19998.96762.06452 1.4347-.13874.47839-.43697.88868-.73906 1.2817s-.6182.78776-.79772 1.2519c-.19797.51186-.21776 1.089-.08212 1.6215.13564.53242.42229 1.0208.79772 1.4168.41534.4382.9413.76641 1.5133.94588.57202.17958 1.1571.21064 1.7558.21064.59867 0 1.2228-.03106 1.7949-.21064.57202-.17947 1.098-.50768 1.5133-.94588.37543-.39608.66208-.88442.79772-1.4168.13564-.53252.11585-1.1096-.08212-1.6215-.17952-.46415-.49562-.85888-.79772-1.2519-.3021-.39303-.60033-.80332-.73906-1.2817-.13545-.4671-.10536-.97942.06452-1.4347.16988-.45529.4757-.85357.85833-1.1466.38263-.29302.83972-.48194 1.3119-.56435.47222-.08231.95972-.05852 1.4273.04769.72469.16462 1.4111.53698 1.9024 1.1029.49129.56589.77464 1.3308.70974 2.0825-.03676.42579-.1799.83361-.33238 1.232-.15248.39832-.3172.79528-.40082 1.2141-.10949.54859-.07467 1.1263.09385 1.6593.16852.53282.4704 1.0196.86615 1.4089.79151.77853 1.9554 1.1328 3.0442.96377.74253-.11527 1.4511-.46407 1.9865-.99954.53541-.53547.89238-1.2567.97955-2.015.07419-.64535-.04671-1.3149-.35194-1.8858-.30523-.57087-.79464-1.0403-1.3765-1.3095-.73526-.34022-1.5756-.35364-2.3384-.62396-.65768-.23309-1.257-.66905-1.6287-1.2678-.18585-.29933-.3135-.63732-.36367-.98761-.05017-.3502-.02244-.71219.08994-1.0472.12631-.37655.35566-.71134.63153-.99357.27586-.28223.59764-.51424.93067-.72332.66608-.41806 1.3909-.75521 1.9708-1.2897.49173-.45316.86223-1.0383 1.0812-1.6752.21898-.6368.2883-1.3243.21703-1.9951-.14256-1.3415-.84627-2.5892-1.8281-3.4974-.9661-.8936-2.2273-1.4834-3.533-1.5241-.65285-.02035-1.3104.0957-1.9122.35371-.60179.25802-1.1459.65887-1.5622 1.1704-.47726.58644-.77722 1.2991-1.0519 2.007-.27468.70802-.5343 1.4298-.95023 2.0627-.68588 1.0436-1.7684 2.0348-3.0032 2.0348s-2.3173-.99127-3.0032-2.0348c-.41592-.63284-.67555-1.3546-.95023-2.0627-.27468-.70792-.57464-1.4206-1.0519-2.007-.4163-.51156-.96041-.91241-1.5622-1.1704-.60179-.25802-1.2593-.37406-1.9122-.35371zm8.4797 9.6635a2.0021 2.0349 0 0 1 2.0021 2.0348 2.0021 2.0349 0 0 1 -2.0021 2.0348 2.0021 2.0349 0 0 1 -2.0021-2.0348 2.0021 2.0349 0 0 1 2.0021-2.0348z" fill="#fff"/><path d="m6.1055 4c-1.1663 0-2.1055.9392-2.1055 2.1055v1c0-1.1663.9392-2.1055 2.1055-2.1055h35.79c1.165 0 2.104.9392 2.104 2.1055v-1c0-1.1663-.939-2.1055-2.105-2.1055h-35.79z" fill="#fff" opacity=".2"/><path d="m4 41.895v1c0 1.166.9392 2.105 2.1055 2.105h35.79c1.165 0 2.104-.939 2.104-2.105v-1c0 1.166-.939 2.105-2.105 2.105h-35.79c-1.1658 0-2.105-.939-2.105-2.105z" opacity=".2"/></svg>