<svg height="48" viewBox="0 0 48 48" width="48" xmlns="http://www.w3.org/2000/svg"><circle cx="24" cy="25" opacity=".2" r="20"/><circle cx="24" cy="24" fill="#e4e4e4" r="20"/><path d="m30.940354 19.008436c.09463.849953-.06973 1.7347.0249 2.599565.09961.939423-.02988 1.92855-.199216 2.85306-.01992-.750543-.03985-1.511027-.07969-2.24666-.03985-.775396-.34863-1.570674-.557808-2.326189.224119 1.590557.323727 3.200995.363571 4.796521.02988 1.232681.03486 2.515067-.169334 3.717925-.199218 1.173036-.81181 2.351042-1.195302 3.439578-.567769 1.610439-.388474 3.76266-.522945 5.532154 0 0-.134471.308171-.363571-1.192917-.308787-2.027959-.48033-4.249767-.44049-6.31252v-.04971c0-.02486-.0049-.06959-.0049-.06959s-.06475.188877-.0747.243553c-.0049.01988-.01494.07456-.01494.08947v.0049c-.0049.02485-.01.05468-.01494.08947-.0049.01988-.0049.03479-.01.05467-.0049.03479-.01494.07953-.01993.119292-.0049.01988-.01.04473-.01.06462-.02988.164027-.06973.367816-.119529.611371-.244042 1.168065-1.721386 1.695302-1.88574 2.873308-.0049.02485-2.245337.208665-.01.06959-.134472.81516-.207243 1.095755-.710266 1.667362-.532905.606399-.195806-.37038-.917968.05708.690463.178844.02989-.01989 0 0-.966203.656105 1.978794-.593937.967768-.04718-.06973.03976.506462-.561333-.0498-.0099 1.838138-.804787-1.132456 1.674084-1.097598 1.634313.258983-.278347-.169335.31314 0 0 1.399163-1.941872-.0049.0099 0 0 .557808-1.133271-.323393-.409165.17963-1.57723 0 0-.139452.20876-.313767.457284-.219138.308171-.508003.685928-.627533.830073-.946281 1.143211-1.613658 2.803355-2.604763 3.891891-.358591.392669-.971183.541783-1.374597.924511-.378513.357875-.921379.591489-1.414442.675986-.796867.134204-1.64354.621311-2.455349.919541 0 0 .47812-.571606.826751-1.023921.727142-.954334 1.3995-1.958372 2.012092-2.997204-.01494.0099-.428317.347935-.69726.929482-.46816 1.028891-1.63856 1.799317-2.450369 2.594594-.597555.58649-1.439247.929453-2.251056 1.103421-1.369617-.05468-2.764136-.203791-4.0939097-.531843-1.1056545-.278347-3.1227269-.91954-3.5261414-1.680025-.054784-.109351-.079687-.546753.1494128-.964274.398434-.725692 1.2002825-1.327121 1.6883643-2.03293.9163983-1.337061 2.2262502-3.365021 3.546063-4.155328.732122-.437403 1.713267-.700839 2.569899-1.048773.393455-.134204.58271-.20379.971184-.347934-.966203.21373-1.897542.576576-2.818921.924511 0 0 .0049.0099.498042-.646165.547847-.725691 1.270008-1.327119 1.907503-1.963342 1.120596-1.11836 3.849869-2.927618 3.849869-2.927618s-1.449303.864866-2.206328.874806c-.458199.0049-.906438.273377-1.28495.51196.46816-.526871.971183-1.038831 1.454285-1.545821.976163-1.033862 2.315897-1.774465 3.5112-2.549861-.592671.124263-1.250087.06462-1.842758-.02485 1.125576-.70581 2.221269-1.506058 3.162571-2.425599 2.315897-2.271512 3.456414-5.601739 5.249368-8.231128.82177-1.202858 1.957307-2.251631 3.04802-3.235788 0 0 .727142.109351.836712.526872.268943 1.038832.727142 2.072694 1.080753 3.106555.368551 1.058714.408395 2.261572.532905 3.374961z" opacity=".1"/><path d="m24 4a20 20 0 0 0 -20 20 20 20 0 0 0  .0214844.582031 20 20 0 0 1 19.9785156-19.582031 20 20 0 0 1 19.978516 19.417969 20 20 0 0 0  .021484-.417969 20 20 0 0 0 -20-20z" fill="#fff" opacity=".2"/><path d="m30.940354 18.008436c.09463.849953-.06973 1.7347.0249 2.599565.09961.939423-.02988 1.92855-.199216 2.85306-.01992-.750543-.03985-1.511027-.07969-2.24666-.03985-.775396-.34863-1.570674-.557808-2.326189.224119 1.590557.323727 3.200995.363571 4.796521.02988 1.232681.03486 2.515067-.169334 3.717925-.199218 1.173036-.81181 2.351042-1.195302 3.439578-.567769 1.610439-.388474 3.76266-.522945 5.532154 0 0-.134471.308171-.363571-1.192917-.308787-2.027959-.48033-4.249767-.44049-6.31252v-.04971c0-.02486-.0049-.06959-.0049-.06959s-.06475.188877-.0747.243553c-.0049.01988-.01494.07456-.01494.08947v.0049c-.0049.02485-.01.05468-.01494.08947-.0049.01988-.0049.03479-.01.05467-.0049.03479-.01494.07953-.01993.119292-.0049.01988-.01.04473-.01.06462-.02988.164027-.06973.367816-.119529.611371-.244042 1.168065-1.721386 1.695302-1.88574 2.873308-.0049.02485-2.245337.208665-.01.06959-.134472.81516-.207243 1.095755-.710266 1.667362-.532905.606399-.195806-.37038-.917968.05708.690463.178844.02989-.01989 0 0-.966203.656105 1.978794-.593937.967768-.04718-.06973.03976.506462-.561333-.0498-.0099 1.838138-.804787-1.132456 1.674084-1.097598 1.634313.258983-.278347-.169335.31314 0 0 1.399163-1.941872-.0049.0099 0 0 .557808-1.133271-.323393-.409165.17963-1.57723 0 0-.139452.20876-.313767.457284-.219138.308171-.508003.685928-.627533.830073-.946281 1.143211-1.613658 2.803355-2.604763 3.891891-.358591.392669-.971183.541783-1.374597.924511-.378513.357875-.921379.591489-1.414442.675986-.796867.134204-1.64354.621311-2.455349.919541 0 0 .47812-.571606.826751-1.023921.727142-.954334 1.3995-1.958372 2.012092-2.997204-.01494.0099-.428317.347935-.69726.929482-.46816 1.028891-1.63856 1.799317-2.450369 2.594594-.597555.58649-1.439247.929453-2.251056 1.103421-1.369617-.05468-2.764136-.203791-4.0939097-.531843-1.1056545-.278347-3.1227269-.91954-3.5261414-1.680025-.054784-.109351-.079687-.546753.1494128-.964274.398434-.725692 1.2002825-1.327121 1.6883643-2.03293.9163983-1.337061 2.2262502-3.365021 3.546063-4.155328.732122-.437403 1.713267-.700839 2.569899-1.048773.393455-.134204.58271-.20379.971184-.347934-.966203.21373-1.897542.576576-2.818921.924511 0 0 .0049.0099.498042-.646165.547847-.725691 1.270008-1.327119 1.907503-1.963342 1.120596-1.11836 3.849869-2.927618 3.849869-2.927618s-1.449303.864866-2.206328.874806c-.458199.0049-.906438.273377-1.28495.51196.46816-.526871.971183-1.038831 1.454285-1.545821.976163-1.033862 2.315897-1.774465 3.5112-2.549861-.592671.124263-1.250087.06462-1.842758-.02485 1.125576-.70581 2.221269-1.506058 3.162571-2.425599 2.315897-2.271512 3.456414-5.601739 5.249368-8.231128.82177-1.202858 1.957307-2.251631 3.04802-3.235788 0 0 .727142.109351.836712.526872.268943 1.038832.727142 2.072694 1.080753 3.106555.368551 1.058714.408395 2.261572.532905 3.374961z" fill="#3f3f3f"/><path d="m26.985956 23.553394c-.135505.04988.614992 2.812775.854734 4.064557.114659.598463.198048 1.221862.140718 1.8303 0 0-.06776.189512-.07817.244371-.0051.01996-.01563.07481-.01563.08977v.0049c-.0051.02992-.01046.05486-.01563.08977-.0051.01995-.0051.03491-.01046.05485-.0051.03492-.01563.0798-.02086.119693-.0051.01995-.01046.04488-.01046.06484-.03127.164578-.07297.369051-.125083.613425-.255377 1.171989-.437789 2.358939-.609779 3.540903-.0051.02493-.0051.04488-.01046.06982-.140719.817899-.40652 1.167002-.932911 1.74053-.55766.608436-1.229981 1.371475-1.98569 1.800374-.02085.01496-.05212.02992-.08339.04988-1.011087.65831-1.949207 1.491171-3.0072 2.039761-.07297.03989-.09903.03989-.05211-.0099.03648-.03989.07297-.0748.109448-.114705.271013-.279282.531602-.588488.708802-.90268.0051-.0099.01046-.01996.01563-.02992.583719-1.137078 1.110109-2.329015 1.6365-3.501005.02606-.04488.03648-.06982.05734-.114706.05212-.09974.0886-.209461.114659-.329154.302284-1.511118.625415-3.266609.276225-4.777727-.312707-1.341553-.333555-1.012398-.333555-1.012398-.07817.648334-.203259 1.301655-.390883 1.925053-.145931.473784-.411732.887721-.448214 1.132093-.09903.643348.171989 1.301656.187624 1.341554-.01563-.02493-.250165-.403962-.302284-.967515-.05732-.613424.328344-1.27672.469061-1.840271.229319-.912658-.229318-2.229274-.02606-2.89257.52639-1.750504 2.590256-4.453559 3.429354-6.877333.437791 1.296669.776556 2.708043 1.245617 3.914943.0417.109718.05733.144628.01563.09476-.218913-.483712-.802633-1.456213-.802633-1.456213z" opacity=".1"/><path d="m26.985956 22.553473c-.135505.04988.614992 2.812775.854734 4.064557.114659.598463.198048 1.221862.140718 1.8303 0 0-.06776.189512-.07817.244371-.0051.01996-.01563.07481-.01563.08977v.0049c-.0051.02992-.01046.05486-.01563.08977-.0051.01995-.0051.03491-.01046.05485-.0051.03492-.01563.0798-.02086.119693-.0051.01995-.01046.04488-.01046.06484-.03127.164578-.07297.369051-.125083.613425-.255377 1.171989-.437789 2.358939-.609779 3.540903-.0051.02493-.0051.04488-.01046.06982-.140719.817899-.40652 1.167002-.932911 1.74053-.55766.608436-1.229981 1.371475-1.98569 1.800374-.02085.01496-.05212.02992-.08339.04988-1.011087.65831-1.949207 1.491171-3.0072 2.039761-.07297.03989-.09903.03989-.05211-.0099.03648-.03989.07297-.0748.109448-.114705.271013-.279282.531602-.588488.708802-.90268.0051-.0099.01046-.01996.01563-.02992.583719-1.137078 1.110109-2.329015 1.6365-3.501005.02606-.04488.03648-.06982.05734-.114706.05212-.09974.0886-.209461.114659-.329154.302284-1.511118.625415-3.266609.276225-4.777727-.312707-1.341553-.333555-1.012398-.333555-1.012398-.07817.648334-.203259 1.301655-.390883 1.925053-.145931.473784-.411732.887721-.448214 1.132093-.09903.643348.171989 1.301656.187624 1.341554-.01563-.02493-.250165-.403962-.302284-.967515-.05732-.613424.328344-1.27672.469061-1.840271.229319-.912658-.229318-2.229274-.02606-2.89257.52639-1.750504 2.590256-4.453559 3.429354-6.877333.437791 1.296669.776556 2.708043 1.245617 3.914943.0417.109718.05733.144628.01563.09476-.218913-.483712-.802633-1.456213-.802633-1.456213z" fill="#41d444"/><path d="m28.370387 2.9999219c.792357 2.9271811.807498 5.935112.671233 8.9228551-.151406 3.25018-1.377794 6.66186-2.437636 9.730354-1.115357 3.23504-2.901946 5.97044-4.582552 8.902668-1.54434 2.689978-3.99207 4.961067-6.399424 6.873829-2.099495 1.665465-4.421053 2.937275-6.9192501 3.855804-.7772171.282624-1.6452777.383561-2.4679165.408796-.6056237.01514-1.039654-.02019-1.0598414-.02019 1.7865898-.373468 3.598414-.913482 5.183129-1.826964 4.395819-2.538573 8.534247-6.010815 11.113195-10.441962 1.640231-2.811103 3.189618-5.571738 4.269647-8.660419.994232-2.856525 2.079308-5.849315 2.377073-8.86734.227108-2.3064162.217015-4.6683486-.196828-6.9596248.141312-.4794521.201874-.7217016.307859-1.2011537.06056-.2927181.09084-.4340303.141312-.7166546z" opacity=".2"/><path d="m28.370387 2.0000005c.792357 2.9271811.807498 5.935112.671233 8.9228555-.151406 3.25018-1.377794 6.66186-2.437636 9.730354-1.115357 3.23504-2.901946 5.97044-4.582552 8.902668-1.54434 2.689978-3.99207 4.961067-6.399424 6.873829-2.099495 1.665465-4.421053 2.937275-6.9192501 3.855804-.7772171.282624-1.6452777.383561-2.4679165.408796-.6056237.01514-1.039654-.02019-1.0598414-.02019 1.7865898-.373468 3.598414-.913482 5.183129-1.826964 4.395819-2.538573 8.534247-6.010815 11.113195-10.441962 1.640231-2.811103 3.189618-5.571738 4.269647-8.660419.994232-2.856525 2.079308-5.849315 2.377073-8.86734.227108-2.3064166.217015-4.668349-.196828-6.9596252.141312-.4794521.201874-.7217016.307859-1.2011537.06056-.2927181.09084-.4340303.141312-.7166546z" fill="#666"/></svg>