<svg height="48" width="48" xmlns="http://www.w3.org/2000/svg"><path d="m24 4c-11.08 0-20 8.92-20 20s8.92 20 20 20 20-8.92 20-20-8.92-20-20-20z" fill="#efbd2f"/><path d="m24 4c-11.079015 0-19.9982222 8.92-19.9982222 20 0 .168-.004.333 0 .5.2643765-10.846 9.0871922-19.5 19.9982222-19.5s19.734246 8.654 19.998223 19.5c.004-.167 0-.332 0-.5 0-11.08-8.919208-20-19.998223-20z" fill="#fff" opacity=".2"/><path d="m4.0117 24.5c-.0041.167-.0117.332-.0117.5 0 11.08 8.92 20 20 20s20-8.92 20-20c0-.168-.008-.333-.012-.5-.264 10.846-9.076 19.5-19.988 19.5s-19.724-8.654-19.988-19.5z" opacity=".2"/><path d="m21 12-2.999878 10h3.999878l-3 7h3l-2.92494 11 9.92494-13h-3.5l4.5-7h-5l4.999877-8z" opacity=".2"/><path d="m21 11-2.999878 10h3.999878l-3 7h3l-2.92494 11 9.92494-13h-3.5l4.5-7h-5l4.999877-8z" fill="#fff"/></svg>