<svg height="48" viewBox="0 0 48 48" width="48" xmlns="http://www.w3.org/2000/svg"><path d="m4.9999996 11v20.015128c4.6142861 1.760969 12.3861884 6.499246 14.8471404 9.984872l4.152857-8.695916-5.99857-9.077156s-1.619524-1.742814.79619-2.886535a45.6181 45.767022 0 0 0 -13.7976174-9.340393z" opacity=".2"/><path d="m42.999997 11v20.015128c-4.614286 1.760969-12.386188 6.499246-14.84714 9.984872l-4.152857-8.695916 5.99857-9.077156s1.619524-1.742814-.79619-2.886535a45.6181 45.767022 0 0 1 13.797617-9.340393z" opacity=".2"/><path d="m33.999999 16.981967a10 10.011633 0 0 0 -14.372726-8.9740634 10.072727 10.084445 0 0 1 1.145453-.072812 9.9454541 9.9570241 0 0 1 4.609092 1.1376852 10 10.011633 0 1 0 8.618181 9.9115162c0-.336754 0-.67351-.05455-1.010264-.05455-.336755.05455-.655308.05455-.992062z" fill="#502e02"/><path d="m23.677734 7.0058594a10 10.011633 0 0 0 -4.050781 1.0019531 10.072727 10.084445 0 0 1 1.146485-.0722656 9.9454541 9.9570241 0 0 1 1.798828.171875 10 10.011633 0 0 1 11.394531 9.2324221c.015562-.118272.033203-.236129.033203-.357422a10 10.011633 0 0 0 -10.322266-9.9765626zm-1.185546 2.0898437a10 10.011633 0 0 0 -8.466797 10.3945309 10 10.011633 0 0 1 11.355468-9.417968 9.9454541 9.9570241 0 0 0 -2.888671-.9765629zm11.480468 9.1679689c-.028616.235974-.066427.469665-.027344.710937.024103.148793.03546.29652.042969.445313a10 10.011633 0 0 0  .011719-.435547c0-.240187-.007551-.480516-.027344-.720703z" fill="#fff" opacity=".1"/><circle cx="24" cy="23" fill="#d9af4f" r="7"/><path d="m42.999997 10v20.015128c-4.614286 1.760969-12.386188 6.499246-14.84714 9.984872l-4.152857-8.695916 5.99857-9.077156s1.619524-1.742814-.79619-2.886535a45.6181 45.767022 0 0 1 13.797617-9.340393z" fill="#385ca9"/><path d="m4.9999996 10v20.015128c4.6142861 1.760969 12.3861884 6.499246 14.8471404 9.984872l4.152857-8.695916-5.99857-9.077156s-1.619524-1.742814.79619-2.886535a45.6181 45.767022 0 0 0 -13.7976174-9.340393z" fill="#385ca9"/><path d="m24 25c-4.857204 0-7-3-7-3l2.627616 19.647714s.655408 2.352286 4.201796 2.352286c3.546389 0 4.201797-2.343305 4.201797-2.343305l2.968791-19.656695s-2.142795 3-7 3z" opacity=".2"/><path d="m24 24c-4.857204 0-7-3-7-3l2.627616 19.647714s.655408 2.352286 4.201796 2.352286c3.546389 0 4.201797-2.343305 4.201797-2.343305l2.968791-19.656695s-2.142795 3-7 3z" fill="#2a457e"/><path d="m11.697266 10c-1.642724-.070749-3.335464.407036-5.0429691 1.789062 4.3877091 2.120402 8.4086671 4.93204 11.9101561 8.328126-.972946.515255-1.564453 1.168338-1.564453 1.882812 0 1.656854 3.134007 3 7 3s7-1.343146 7-3c0-.711705-.58462-1.364561-1.550781-1.878906 3.46088-3.346194 7.42712-6.122629 11.751953-8.226563-1.640984-1.346356-3.269939-1.898785-4.853631-1.894531-4.801637.0129-9.187186 5.339939-12.230353 10.755859l-.126954.22461-.08984.160156-.232422-.412109c-2.981327-5.317338-7.266167-10.5259-11.970706-10.728516z" opacity=".2"/><path d="m11.697266 9c-1.642724-.0707493-3.335464.4070364-5.0429691 1.789062 4.3877091 2.120402 8.4086671 4.93204 11.9101561 8.328126-.972946.515255-1.564453 1.168338-1.564453 1.882812 0 1.656854 3.134007 3 7 3s7-1.343146 7-3c0-.711705-.58462-1.364561-1.550781-1.878906 3.46088-3.346194 7.42712-6.122629 11.751953-8.226563-1.640984-1.3463562-3.269939-1.898785-4.853631-1.894531-4.801637.0128978-9.187186 5.339939-12.230353 10.755859l-.126954.22461-.08984.160156-.232422-.412109c-2.981327-5.317338-7.266167-10.5258997-11.970706-10.728516z" fill="#e4e4e4"/><path d="m45 21.454774c0 4.664899-1.787605 6.045226-2.979343 6.045226-2.979345 0-4.776882-3.677512.595868-3.939472-4.727226-.403015-4.915917-3.89917 0-4.030151-4.915917-.372788-3.972459-4.030149-.595868-4.030149 1.370498-.02015 2.979343 1.289648 2.979343 5.954546z" opacity=".2"/><path d="m45 20.454774c0 4.664899-1.787605 6.045226-2.979343 6.045226-2.979345 0-4.776882-3.677512.595868-3.939472-4.727226-.403015-4.915917-3.89917 0-4.030151-4.915917-.372788-3.972459-4.030149-.595868-4.030149 1.370498-.02015 2.979343 1.289648 2.979343 5.954546z" fill="#d9af4f"/><path d="m2.9999996 21.454774c0 4.664899 1.7876052 6.045226 2.9793434 6.045226 2.9793444 0 4.776882-3.677512-.5958683-3.939472 4.7272263-.403015 4.9159173-3.89917 0-4.030151 4.9159173-.372788 3.9724593-4.030149.5958683-4.030149-1.3704981-.02015-2.9793434 1.289648-2.9793434 5.954546z" opacity=".2"/><path d="m2.9999996 20.454774c0 4.664899 1.7876052 6.045226 2.9793434 6.045226 2.9793444 0 4.776882-3.677512-.5958683-3.939472 4.7272263-.403015 4.9159173-3.89917 0-4.030151 4.9159173-.372788 3.9724593-4.030149.5958683-4.030149-1.3704981-.02015-2.9793434 1.289648-2.9793434 5.954546z" fill="#d9af4f"/><path d="m42.021484 14.5c-2.012908 0-3.149352 1.298916-2.707031 2.427734.303941-.777929 1.28623-1.427734 2.707031-1.427734 1.314095-.01932 2.831103 1.218282 2.955078 5.429688.004796-.164068.023438-.301604.023438-.47461 0-4.664898-1.608018-5.975228-2.978516-5.955078zm-1.699218 4.447266c-1.14672.467538-1.528259 1.250525-1.191407 1.974609.352393-.729208 1.492842-1.33751 3.486329-1.390625-1.00283-.07605-1.750677-.293497-2.294922-.583984zm.0332 4.058593c-1.095129.473102-1.351243 1.235708-1.078125 1.929688.306919-.690645 1.311947-1.276126 3.339844-1.375-.935224-.07973-1.686153-.282835-2.261719-.554688z" fill="#fff" opacity=".2"/><path d="m5.9785156 14.5c-1.3704981-.02015-2.9785156 1.29018-2.9785156 5.955078 0 .173006.018642.310542.023437.47461.1239759-4.211406 1.6409839-5.449009 2.9550786-5.429688 1.4208016 0 2.40309.649805 2.7070313 1.427734.4423212-1.128818-.6941227-2.427734-2.7070313-2.427734zm1.6992188 4.447266c-.5442453.290487-1.2920923.507937-2.2949219.583984 1.9934865.05311 3.1339354.661417 3.4863281 1.390625.3368521-.724084-.044687-1.507071-1.1914062-1.974609zm-.033203 4.058593c-.5755659.271853-1.3264952.474956-2.2617187.554688 2.0278962.09887 3.0329245.684355 3.3398437 1.375.2731178-.69398.017004-1.456586-1.078125-1.929688z" fill="#fff" opacity=".2"/></svg>