<svg height="48" width="48" xmlns="http://www.w3.org/2000/svg"><g transform="matrix(.07871412 0 0 .07871412 -13.603644 10.113809)"><path d="m528.52459-64.966862c-104.65222 0-190.57954 85.969621-190.57954 190.673362a50.826292 50.851313 0 0 0 0 .14896c.0295 9.40568 2.78465 18.48296 4.19374 27.75687l-84.07337 125.15423c-8.91167 10.90858-16.92176 24.44088-20.10018 40.1705-3.59769 17.8045-.60393 34.20398 3.12669 46.79938a50.826292 50.851313 0 0 0  .0744.19863c11.26116 37.4484 47.74101 68.85999 83.50262 75.07763 15.82278 3.08213 35.01499 3.54643 51.98752-2.83031 17.36896-6.52567 27.53795-16.00723 36.30441-23.66038a50.826292 50.851313 0 0 0  .0248 0l112.61067-98.34077c.83118.018 1.65.19146 2.48151.19861a50.826292 50.851313 0 0 0  .44667 0c104.65221 0 190.57953-85.96962 190.57953-190.67335 0-104.703741-85.92732-190.673362-190.57953-190.673362z" opacity=".2"/><path d="m528.52459-77.67106c-104.65222 0-190.57954 85.9696212-190.57954 190.67336a50.826292 50.851313 0 0 0 0 .14896c.0295 9.40568 2.78465 18.48296 4.19374 27.75687l-84.07337 125.15423c-8.91167 10.90858-16.92176 24.44088-20.10018 40.1705-3.59769 17.8045-.60393 34.20398 3.12669 46.79938a50.826292 50.851313 0 0 0  .0744.19863c11.26116 37.4484 47.74101 68.85999 83.50262 75.07763 15.82278 3.08213 35.01499 3.54643 51.98752-2.83031 17.36896-6.52567 27.53795-16.00723 36.30441-23.66038a50.826292 50.851313 0 0 0  .0248 0l112.61067-98.34077c.83118.018 1.65.19146 2.48151.19861a50.826292 50.851313 0 0 0  .44667 0c104.65221 0 190.57953-85.96962 190.57953-190.67335 0-104.7037388-85.92732-190.67336-190.57953-190.67336z" fill="#f16d00"/><path d="m400.6691 144.80009-101.23454 150.6518c-13.24348 14.77056-14.60175 25.93368-9.57967 42.88099 7.34193 24.40319 21.85123 36.24462 43.86064 39.8146 21.79817 4.46387 29.83889-.91756 45.86887-14.90489l140.79928-122.85768 3.11841 2.22986z" fill="#325481"/><path d="m402.31334 144.80009-115.15211 171.36318c5.90985 52.39259 30.68414 66.00737 76.12133 62.73859l158.74536-138.51695 3.11841 2.22986z" fill="none"/><circle cx="528.541" cy="125.596" fill-rule="evenodd" opacity=".2" r="139.746"/><circle cx="528.541" cy="112.892" fill="#bfbfbf" fill-rule="evenodd" r="139.746"/><path d="m408.53439 40.766999-6.84304 13.829393c6.89855 51.725228 23.89164 88.136708 59.1836 119.913428 33.54159 30.20067 80.24747 49.87578 140.85313 57.59746l15.98541-11.44791c-63.37825-6.60783-115.40752-26.13549-148.23002-55.6887-32.82249-29.55322-54.36091-74.805469-60.94908-124.203671z" opacity=".4"/><path d="m338.52393 323.70229.0744.19851c-.0999-.33706-.002.43298-.0744.17369-.0844-.31644.10675-.0174 0-.3722z"/><path d="m27.998047 4c-8.237608 0-15 6.76615-15 15.007812a4.0007468 4.0027164 0 0 0 0 .011719c.000449.143245.015106.286126.029297.427735.300842-7.983451 6.922302-14.447266 14.970703-14.447266 8.06885 0 14.707291 6.496346 14.976562 14.507812.005618-.167344.025391-.331375.025391-.5 0-8.241662-6.764347-15.007812-15.001953-15.007812zm-14.818359 17.425781-6.4707036 9.63086c-.7014743.858659-1.3318447 1.923966-1.5820313 3.162109-.1288896.637858-.1402728 1.248031-.0976562 1.822266.0188084-.270085.0409856-.541811.0976562-.822266.2501866-1.238143.880557-2.30345 1.5820313-3.162109l6.6191406-9.851563c-.039728-.261467-.096251-.519902-.148437-.779297z" fill="#fff" opacity=".2" transform="matrix(12.704201 0 0 12.704201 172.82343 -128.48786)"/><path d="m28 8a11 11 0 0 0 -11 11 11 11 0 0 0  .021484.585938 11 11 0 0 1 10.978516-10.585938 11 11 0 0 1 10.978516 10.414062 11 11 0 0 0  .021484-.414062 11 11 0 0 0 -11-11z" fill="#fff" fill-rule="evenodd" opacity=".2" transform="matrix(12.704201 0 0 12.704201 172.82343 -128.48786)"/></g></svg>