<svg height="48" width="48" xmlns="http://www.w3.org/2000/svg"><rect fill="#3b8c5f" height="40" rx="2" transform="matrix(0 -1 -1 0 0 0)" width="40" x="-44" y="-44"/><path d="m6 4c-1.108 0-2 .892-2 2v1c0-1.108.892-2 2-2h36c1.108 0 2 .892 2 2v-1c0-1.108-.892-2-2-2z" fill="#fff" opacity=".1"/><path d="m4 42v1c0 1.108.892 2 2 2h36c1.108 0 2-.892 2-2v-1c0 1.108-.892 2-2 2h-36c-1.108 0-2-.892-2-2z" opacity=".2"/><path d="m25 25.999909h7v9m2 0h-8c-3 0-10 1-10-10s7-11 10-11c4 0 7 1.95691 7 1.95691" fill="none" opacity=".2" stroke="#000" stroke-width="4"/><path d="m25 25h7v9m2 0h-8c-3 0-10 1-10-10s7-11 10-11c4 0 7 1.95691 7 1.95691" fill="none" stroke="#fff" stroke-width="4"/></svg>