<svg height="48" width="48" xmlns="http://www.w3.org/2000/svg"><path d="m44.049684 10.000007c-1.548614.892343-3.525201 1.397688-5.344993 1.762299.0019.0022.0043.004.0062.0062.15727.181158.30614.262903.44742.456902.143137.196324.278035.39971.40402.608091.111459.184355.211858 1.174204.309198 1.367195.01277.02535.02871.04872.04122.0742l.0021.0041c.106944.217775.09905-.463497.187238-.235988 1.679093-.99044 3.3383-2.191131 3.947644-4.0430131zm.950317 2.999993c-1.461347.629753-3.243025.865715-4.889715 1.061571.364909.907327.609008 2.624842.66821 3.125429 1.6074-1.126748 3.118425-2.58396 4.221505-4.187z" opacity=".2"/><path d="m32.529413 8.0000003c-4.678178 0-8.470589 3.7924117-8.470589 8.4705877.941669 6.235372-2.944654 13.486759-6.884421 16.570556-2.814165 2.150901-6.361571 4.002692-10.2139251 4.002692-.663689 0-1.3172101-.0376-1.9604779-.111672 3.6389816 2.275418 7.960636 3.067836 12.604551 3.067836 15.124571.000001 23.395449-12.454699 23.395449-23.051699 0-.107355-.0068-.213548-.0082-.320542.0032-.05236.006-.104756.0082-.157171-.0048-4.211092-3.102476-7.7791644-7.27114-8.375459-.09017-.016407-.182017-.029473-.275045-.041361-.101876-.00943-.203916-.017014-.306067-.022748-.133406-.00953-.259603-.03102-.399126-.03102-.03697 0-.07276.00573-.109605.0062-.03652-.00231-.07306-.00437-.109604-.0062z" opacity=".2"/><path d="m44.049684 9.0000071c-1.548614.8923434-3.525201 1.3976879-5.344993 1.7622989.0019.0022.0043.004.0062.0062.15727.181158.30614.262903.44742.456902.143137.196324.278035.39971.40402.608091.111459.184355.211858 1.174204.309198 1.367195.01277.02535.02871.04872.04122.0742l.0021.0041c.106944.217775.09905-.463497.187238-.235988 1.679093-.99044 3.3383-2.191131 3.947644-4.0430131zm.950317 2.9999929c-1.461347.629753-3.243025.865715-4.889715 1.061571.364909.907327.609008 2.624842.66821 3.125429 1.6074-1.126748 3.118425-2.58396 4.221505-4.187z" fill="#085585"/><path d="m44.048828 9c-1.548614.8923434-3.523958 1.397108-5.34375 1.761719.0019.0022.003959.003659.00586.005859.157269.181158.305985.263032.447265.457031.089911.123321.170664.254432.253906.382813 1.358228-.296963 2.739612-.695477 3.955079-1.275391.286799-.405018.521365-.8449325.68164-1.332031zm.951172 3c-.929164.400414-1.989418.633713-3.060547.806641-.492969.393842-1.032209.740897-1.576172 1.070312.012109.04807.019595.099537.03125.148438 1.169313-.141933 2.38929-.313529 3.507813-.638672.394074-.44797.768098-.907793 1.097656-1.386719z" fill="#fff" opacity=".1"/><path d="m32.529413 7.0000003c-4.678178 0-8.470589 3.7924117-8.470589 8.4705877.941669 6.235372-2.944654 13.486759-6.884421 16.570556-2.814165 2.150901-6.361571 4.002692-10.2139251 4.002692-.663689 0-1.3172101-.0376-1.9604779-.111672 3.6389816 2.275418 7.960636 3.067836 12.604551 3.067836 15.124571.000001 23.395449-12.454699 23.395449-23.051699 0-.107355-.0068-.213548-.0082-.320542.0032-.05236.006-.104756.0082-.157171-.0048-4.211092-3.102476-7.7791644-7.27114-8.375459-.09017-.016407-.182017-.029473-.275045-.041361-.101876-.00943-.203916-.017014-.306067-.022748-.133406-.00953-.259603-.03102-.399126-.03102-.03697 0-.07276.00573-.109605.0062-.03652-.00231-.07306-.00437-.109604-.0062z" fill="#0391e9"/><path d="m32.529297 7c-4.678178 0-8.470703 3.792527-8.470703 8.470703.016763.111.021426.224323.035156.335938.340029-4.366487 3.981785-7.806641 8.435547-7.806641.036544.00183.072855.0035494.109375.0058594.036845-.00047.072405-.0058594.109375-.0058594.139523 0 .266984.02172.400391.03125.10215.005734.202811.0140075.304687.0234375.093028.011888.185221.0246086.275391.0410156 4.081393.5838113 7.129147 4.0177059 7.259765 8.1132809.001085-.08608.011719-.173921.011719-.259765 0-.107355-.006412-.215272-.007812-.322266.003199-.05236.005612-.103835.007812-.15625-.0048-4.211092-3.10282-7.7787053-7.271484-8.3749999-.09017-.016407-.182363-.0291276-.275391-.0410156-.101876-.00943-.202537-.0177035-.304687-.0234375-.133407-.00953-.260868-.03125-.400391-.03125-.03697 0-.07253.0053894-.109375.0058594-.03652-.00231-.072831-.0040294-.109375-.0058594zm-8.345703 11.003906c-.225245 5.559672-3.594805 11.364098-7.009766 14.03711-2.814165 2.150901-6.360536 4.001953-10.2128905 4.001953-.663689 0-1.3176697-.037256-1.9609375-.111328.6759487.422663 1.3827672.778764 2.1035156 1.103515 3.7967654-.045348 7.2912234-1.870048 10.0703124-3.99414 3.620709-2.834059 7.1853-9.186711 7.009766-15.03711z" fill="#fff" opacity=".1"/><path d="m7.1015625 10c-.7082359 1.180504-1.1015626 3.063694-1.1015625 4.52861 0 2.773201 3.013419 5.11759 5.221202 6.550781-1.3487234-.04151-4.0826188-.503586-5.1919051-1.102196-.0009549.03333-.00195.0659-.00195.09961 0 3.872677 5.1945001 7.890141 8.1274521 8.94554-2.932952 0-4.9880697-1.054687-6.0434678-1.054687 1.0471167 3.175468 5.4130478 5.967872 9.0136688 6.032342h6.816406c.06389 0 .11462-.01315.173828-.01758.118029.0088.235209.01405.353516.01758.088 0 .172768-.01082.259766-.01367.09041.0061.180918.01065.271484.01367 4.418278 0 8-3.581722 8-8s-3.581722-8-8-8c-.10749.0017-.214934.0056-.322266.01172-.070153-.001936-.138186-.01172-.208984-.01172-8.970884 0-13.355167-3.433138-17.3671875-8z" opacity=".2"/><path d="m7.1015625 9c-.7082359 1.180504-1.1015626 3.063694-1.1015625 4.52861 0 2.773201 3.013419 5.11759 5.221202 6.550781-1.3487234-.04151-4.0826188-.503586-5.1919051-1.102196-.0009549.03333-.00195.0659-.00195.09961 0 3.872677 5.1945001 7.890141 8.1274521 8.94554-2.932952 0-4.9880697-1.054687-6.0434678-1.054687 1.0471167 3.175468 5.4130478 5.967872 9.0136688 6.032342h6.816406c.06389 0 .11462-.01315.173828-.01758.118029.0088.235209.01405.353516.01758.088 0 .172768-.01082.259766-.01367.09041.0061.180918.01065.271484.01367 4.418278 0 8-3.581722 8-8s-3.581722-8-8-8c-.10749.0017-.214934.0056-.322266.01172-.070153-.001936-.138186-.01172-.208984-.01172-8.970884 0-13.355167-3.433138-17.3671875-8z" fill="#3cbbff"/><circle cx="35" cy="13" fill="#085585" fill-rule="evenodd" r="2"/><path d="m7.1015625 9c-.7082359 1.180504-1.1015626 3.064381-1.1015625 4.529297 0 .160817.0136808.318723.0332031.476562.0778415-1.370735.4400144-2.958519 1.0683594-4.005859 4.0120205 4.566862 8.3963035 8 17.3671875 8 .070798 0 .138831.009783.208984.011719.107332-.00612.214776-.010019.322266-.011719 4.249555 0 7.715353 3.315747 7.974609 7.5.010294-.16613.025391-.331277.025391-.5 0-4.418278-3.581722-8-8-8-.10749.0017-.214934.005599-.322266.011719-.070153-.001936-.138186-.011719-.208984-.011719-8.970884 0-13.355167-3.433138-17.3671875-8zm-1.0722656 9.976562c-.0009549.03333-.0019531.0659-.0019531.09961 0 .315692.0443775.633286.109375.949219 1.1637509.574497 3.7725659 1.014325 5.0839842 1.054687-.526502-.341781-1.097721-.738854-1.6640624-1.177734-1.3032451-.192326-2.7788157-.521849-3.5273437-.925782zm2.0820312 7.990235c.1178718.357456.2843137.710284.4804688 1.054687 1.1439782.211625 3.0216121 1 5.5625001 1-.702681-.252854-1.536716-.682252-2.396485-1.232422-1.672689-.310236-2.9088567-.822265-3.6464839-.822265z" fill="#fff" opacity=".2"/></svg>