<svg height="48" viewBox="0 0 48 48" width="48" xmlns="http://www.w3.org/2000/svg"><g transform="translate(2 -2)"><rect fill="#e9e5dc" height="40" rx="2" transform="matrix(0 -1 -1 0 0 0)" width="40" x="-46" y="-42"/><path d="m4.0001 6c-1.108 0-2 .892-2 2v1c0-1.108.892-2 2-2h36c1.108 0 2 .892 2 2v-1c0-1.108-.892-2-2-2z" fill="#fff" opacity=".1"/><g fill-rule="evenodd"><path d="m4.0001 46 18-18 18 18z" fill="#2095f2"/><path d="m42 44-18-18 18-18z" fill="#1ea362"/><path d="m23.768 24.2-3.5352 3.5371 18.23 18.23h1.5371c1.108 0 2-.892 2-2v-1.5352l-18.232-18.232z" fill="#feea3a"/><path d="m38.465 6-36.465 36.4v1.535c0 1.108.892 2 2 2h1.5371l36.463-36.4v-1.5371c0-1.108-.892-2-2-2h-1.5352z" fill="#fff"/></g><path d="m4.0001 47c-1.108 0-2-.892-2-2v-1c0 1.108.892 2 2 2h36c1.108 0 2-.892 2-2v1c0 1.108-.892 2-2 2z" opacity=".2"/></g><g transform="translate(1 -2.0005)"><path d="m34 4c-6.6275 0-12 5.2753-12 11.783 0 .4067.03408.7821.07488 1.1782.03288.3942.08592.7922.15 1.1783 1.374 8.2821 6.9752 14.148 11.775 18.861 4.8-4.7131 10.401-10.578 11.775-18.861.06408-.3861.11712-.7841.15-1.1783.04104-.3961.07488-.7715.07488-1.1782 0-6.5076-5.3726-11.783-12-11.783z" opacity=".2"/><path d="m34 3c-6.6275 0-12 5.2753-12 11.783 0 .4067.03408.7821.07488 1.1782.03288.3942.08592.7922.15 1.1783 1.374 8.2821 6.9752 14.148 11.775 18.861 4.8-4.7131 10.401-10.578 11.775-18.861.06408-.3861.11712-.7841.15-1.1783.04104-.3961.07488-.7715.07488-1.1782 0-6.5076-5.3726-11.783-12-11.783z" fill="#f34235"/><path d="m34 10c2.7614 0 5 2.2386 5 5s-2.2386 5-5 5-5-2.2386-5-5 2.2386-5 5-5z" opacity=".2"/><path d="m34 9c2.7614 0 5 2.2386 5 5s-2.2386 5-5 5-5-2.2386-5-5 2.2386-5 5-5z" fill="#fff"/></g></svg>