<svg height="48" viewBox="0 0 48 48" width="48" xmlns="http://www.w3.org/2000/svg"><path d="m24 5a20 20 0 0 0 -20 20 20 20 0 0 0 20 20 20 20 0 0 0 20-20 20 20 0 0 0 -20-20z" opacity=".2"/><path d="m24 4a20 20 0 0 0 -20 20 20 20 0 0 0 20 20 20 20 0 0 0 20-20 20 20 0 0 0 -20-20z" fill="#74bfcc"/><path d="m24 4a20 20 0 0 0 -19.859 17.852 20 19 0 0 1 19.859-16.852 20 19 0 0 1 19.922 17.447 20 20 0 0 0 -19.922-18.447zm19.922 18.447a20 20 0 0 1  .078 1.553 20 19 0 0 0 -.078-1.553zm-39.781-.595a20 19 0 0 0 -.0488.392 20 20 0 0 1  .0488-.392zm-.0488.392a20 20 0 0 0 -.0918 1.756 20 19 0 0 1  .0918-1.756z" fill="#fff" opacity=".2"/><path d="m34.014872 23.970903s4.264245-3.744878 2.601629-7.215158c-1.662615-3.470281-10.588558-1.417917-16.792181 2.914897-4.46604 3.119226-6.901094 7.746448-6.822612 11.314999" fill="none" stroke="#3f3f3f" stroke-linecap="round" stroke-width="2.000237"/><path d="m23.859375 8.0039062a3 3 0 0 0 -2.457031 1.4960938 3 3 0 0 0 1.097656 4.097656 3 3 0 0 0 4.097656-1.097656 3 3 0 0 0 -1.097656-4.0976562 3 3 0 0 0 -1.640625-.3984376zm13.070313 17.9960938a3 3 0 0 0 -1.429688.402344 3 3 0 0 0 -1.097656 4.097656 3 3 0 0 0 4.097656 1.097656 3 3 0 0 0 1.097656-4.097656 3 3 0 0 0 -2.667968-1.5zm-23.929688 2a3 3 0 0 0 -3 3 3 3 0 0 0 3 3 3 3 0 0 0 3-3 3 3 0 0 0 -3-3z" fill="#3f3f3f"/><path d="m19 33s1.020783 4.870268 5.550683 5.05 6.021833-7.918111 5.371317-15.457013c-.468309-5.427318-2.757675-9.849747-5.887372-11.566055" fill="none" stroke="#3f3f3f" stroke-linecap="round" stroke-width="2.000237"/><path d="m20 15s-5.229558-3.016807-7.567 1.669639 4.566641 11.279273 11.42078 14.485361c4.934349 2.308091 10.095006-.302757 13.14622-2.155" fill="none" stroke="#3f3f3f" stroke-linecap="round" stroke-width="2.000237"/><path d="m24 11a1 1 0 0 0 -1 1 1 1 0 0 0 1 1 1 1 0 0 0 1-1 1 1 0 0 0 -1-1zm13 18a1 1 0 0 0 -1 1 1 1 0 0 0 1 1 1 1 0 0 0 1-1 1 1 0 0 0 -1-1zm-24 2a1 1 0 0 0 -1 1 1 1 0 0 0 1 1 1 1 0 0 0 1-1 1 1 0 0 0 -1-1z" opacity=".2"/><path d="m24 10a1 1 0 0 0 -1 1 1 1 0 0 0 1 1 1 1 0 0 0 1-1 1 1 0 0 0 -1-1zm13 18a1 1 0 0 0 -1 1 1 1 0 0 0 1 1 1 1 0 0 0 1-1 1 1 0 0 0 -1-1zm-24 2a1 1 0 0 0 -1 1 1 1 0 0 0 1 1 1 1 0 0 0 1-1 1 1 0 0 0 -1-1z" fill="#74bfcc"/><ellipse cx="24" cy="24" fill="#3f3f3f" rx="2.126" ry="2.126" stroke="#3f3f3f" stroke-width="1.748997"/></svg>