<svg height="48" viewBox="0 0 48 48" width="48" xmlns="http://www.w3.org/2000/svg"><g transform="matrix(1.25 0 0 -1.25 0 48.00033)"><path d="m21.6 33.600269a15.2 15.197723 0 0 1 -1.08125-.03906c-.0456-.000907-.09029.0044-.135937.0031-.89582-.02558-1.803439-.127444-2.709375-.310891h-.0016c-.906248-.184366-1.78903-.443821-2.635937-.776446-.09356-.03679-.185324-.07799-.275-.123419-.75714.24694-1.543992.425581-2.375.432748-.43282.0037-.874365-.02918-1.317188-.101548-3.8986577-.634711-6.3457624-4.014299-6.862463-7.744124-.3216647-.16456-.6588952-.290998-.975-.46868-1.1264088-.633386-1.761278-1.88198-1.609375-3.165151.1450574-1.221482.4245918-2.691613.959375-4.294669.2737418-.820788.6145991-1.669798 1.034375-2.53712l.00156-.0031.00156-.0016v-.0016c.072782-.147913.1568862-.289982.2515625-.424937.4412746-.862474.9230314-1.731038 1.5375-2.593361 0 0 .00156-.0016.00156-.0016.0007104-.000997.0008544-.0021.00156-.0031.2315348-.32557.4727495-.646136.7265725-.962292 2.6661864-3.3325926 5.809143-5.2010999 8.184375-6.2193802.304723-.1303372.627847-.2125553.957812-.2437138.206303-.0857144.421015-.1495952.640626-.1905963l1.310937-.2421509-.145312.0296827c.552311-.1287391.961375-.1749082 1.206249-.2171546l-.154687.0296827c.72164-.1612862 1.237466-.161315 1.521875-.1796603.01822-.0012.03645-.00223.05469-.00313.180395-.00854.671696-.086493 1.446876-.020309l-.117188-.00781.146875.00625a15.2 15.197723 0 0 1  .409372-.020307 15.2 15.197723 0 0 1 15.2 15.1977237 15.2 15.197723 0 0 1 -15.2 15.197723z" opacity=".2"/><path d="m21.6 34.400269a15.2 15.197723 0 0 1 -1.08125-.03906c-.0456-.000907-.09029.0044-.135937.0031-.89582-.02558-1.803439-.127444-2.709375-.310891h-.0016c-.906248-.184366-1.78903-.443821-2.635937-.776446-.09356-.03679-.185324-.07799-.275-.123419-.75714.24694-1.543992.425581-2.375.432748-.43282.0037-.874365-.02918-1.317188-.101548-3.8986577-.634711-6.3457624-4.014299-6.862463-7.744124-.3216647-.16456-.6588952-.290998-.975-.46868-1.1264088-.633386-1.761278-1.88198-1.609375-3.165151.1450574-1.221482.4245918-2.691613.959375-4.294669.2737418-.820788.6145991-1.669798 1.034375-2.53712l.00156-.0031.00156-.0016v-.0016c.072782-.147913.1568862-.289982.2515625-.424937.4412746-.862474.9230314-1.731038 1.5375-2.593361 0 0 .00156-.0016.00156-.0016.0007104-.000997.0008544-.0021.00156-.0031.2315348-.32557.4727495-.646136.7265725-.962292 2.6661864-3.3325926 5.809143-5.2010999 8.184375-6.2193802.304723-.1303372.627847-.2125553.957812-.2437138.206303-.0857144.421015-.1495952.640626-.1905963l1.310937-.2421509-.145312.0296827c.552311-.1287391.961375-.1749082 1.206249-.2171546l-.154687.0296827c.72164-.1612862 1.237466-.161315 1.521875-.1796603.01822-.0012.03645-.00223.05469-.00313.180395-.00854.671696-.086493 1.446876-.020309l-.117188-.00781.146875.00625a15.2 15.197723 0 0 1  .409372-.020307 15.2 15.197723 0 0 1 15.2 15.1977237 15.2 15.197723 0 0 1 -15.2 15.197723z" fill="#e4e4e4"/><path d="m21.561927 22.606679c-.004.0907-.01323.184287-.01885.272988-.05155.665265-.137149 1.282051-.234006 1.838884-.01885.08549-.03284.170828-.04851.251884-.0064.03685-.01399.07111-.02052.108277-.0094.03379-.01582.07066-.02311.103077-1.021173.192239-2.048124.318104-3.078572.377749-.571422.03441-1.146372.04542-1.718402.0387-1.171673-.01407-2.345855-.114241-3.516342-.301586-.12158-.01713-.245836-.03915-.367963-.05995-.04631-.0091-.0927-.01498-.136952-.02569-.807305-.144794-1.603261-.329844-2.386444-.557105-.1695066-.046491-.3372946-.095277-.505919-.150028-.0962785-.027988-.1934542-.058268-.286707-.088243-.5510625-.178322-1.0863269-.373925-1.6204661-.587116-.9568404-.387535-1.8908276-.835633-2.7991639-1.346282.1236629-1.041483.3629149-2.296386.817638-3.65966.2320599-.695913.5191622-1.415958.877257-2.155947l.00517-.0073c.4078032-.845299.907138-1.704669 1.5163599-2.559251.2011024-.283097.4047136-.55318.6158665-.816227 2.2644766-2.832804 4.9359946-4.4200957 6.9498456-5.283579.01509.014514.03207.026947.04656.041461.03427.03285.07181.066847.106269.098934.556643.508507 1.148516 1.1185625 1.74311 1.8353815.04418.055805.09046.1099293.13423.1665603.03648.04218.06932.08687.105615.129032.07821.103123.161646.207546.243144.314478.659141.876269 1.295169 1.884917 1.853196 3.038915.0409.08305.07967.163334.117079.246072.294826.634372.56426 1.313263.797811 2.038508.02584.08011.05261.161469.08028.246775.0038.01548.0074.03048.01445.04577l-.000456.002c.215304.706833.376173 1.403051.494469 2.072858.0078.03889.01399.07993.02204.11571.01612.09289.03041.182451.04288.273371.108259.682775.171361 1.338054.200099 1.969183.0033.09512.0068.186886.0064.2814.0222.592162.0082 1.155879-.02736 1.690078" fill="#4282de"/><path d="m13.6 19.999889a1.6 1.6 0 0 1 -1.6-1.6 1.6 1.6 0 0 1  .810938-1.390625c-.003964-.068579-.010938-.109375-.010938-.209375v-1.6l-.02969-.01563 2.2375.0078-.60781 1.60783s.02773.125082.0625.253125c.000055.000203.0015-.000203.0016 0a1.6 1.6 0 0 1  .7359 1.346875 1.6 1.6 0 0 1 -1.6 1.6z" opacity=".2"/><g transform="matrix(.8 0 0 -.8 0 38.400264)"><path d="m17 22a2 2 0 0 0 -2 2 2 2 0 0 0 1.013672 1.738281c-.004955.085724-.013672.136719-.013672.261719v2l-.037109.019531 2.796875-.009765-.759766-2.009766s.034669-.156353.078125-.316406c.000069-.000254.001884.000253.001953 0a2 2 0 0 0  .919922-1.683594 2 2 0 0 0 -2-2z" fill="#fff"/><path d="m25.591797 9.0429688c-.894467.0255469-1.799018.1270481-2.705078.3105468-.912118.1855888-1.79279.4450015-2.628907.7734374.794346.53321 1.527484 1.18977 2.171876 1.949219.315709-.08814.634726-.163875.958984-.226563 3.634071-.736845 7.224991.091091 10.085937 2.00586l2.503907-1.207031.074218-.03711c-2.890485-2.354923-6.584915-3.6790635-10.460937-3.5683592zm11.542969 4.5390622-.035157.017578c-.239726.117204-.470641.233547-.710937.34961-.245615.108086-.488678.219634-.738281.333984-.31077.141329-.625449.273743-.953125.402344-.195657.078452-.399965.161181-.59961.246094-.2667.108085-.544957.20135-.816406.304687-.276389.0908-.551761.201928-.835938.291016-1.128916.379155-2.308447.700306-3.515624.988281-.440562.099102-.888776.18383-1.335938.267578.006109.03277.013899.077982.019531.103516l.003907.021484.005859.023438c.120599.693324.225098 1.465871.292969 2.296875.559514-.181641 1.117175-.368194 1.662109-.56836 1.231683-.468624 2.417531-.971095 3.53125-1.52539.279808-.128412.554913-.284946.826172-.416016.269929-.150256.537447-.278564.798828-.425781.350091-.202494.694403-.395761 1.029297-.591797.165074-.095929.322045-.192938.480469-.289063.239346-.150256.4771-.299318.710937-.441406.230608-.145887.453341-.304662.675781-.449219.078073-.052235.154241-.104387.228516-.15625-.096119-.120623-.198834-.232625-.302734-.34375-.13582-.145317-.276179-.295085-.421875-.439453zm4.851562 8.283203-.269531.142578c-.232319.122138-.465601.253346-.693359.378907-.22548.122775-.449596.239046-.677735.34375l-1.40625.666015-2.818359 1.330078-.701172.332032c-.228139.108275-.479486.19617-.714844.291015-2.440087 1.047918-4.990647 1.710764-7.630859 2.322266-.006952.024256-.012514.047996-.019531.072266l.02539.111328-.117187.257812c-.035413.109188-.068522.210285-.09961.306641-.292895.909526-.632424 1.761678-1 2.5625 1.507836.010133 7.442827-.016434 12.769531-4.59375.166593 1.081806-1.688469 3.693207-2.367187 4.52539-2.863089 3.52269-8.178581 4.414636-12.736328 4.066407-.093143.129056-.185374.26381-.279297.388672v.001953l-.003906.001953c-.111029.145596-.213535.275586-.300782.390625l-.019531.027344-.019531.021484c-.00875.010175-.055934.066171-.099609.119141l-.035157.044921c-.054762.068799-.10909.135941-.140625.175782l-.005859.007812-.007812.009766c-.675925.814988-1.344391 1.504806-1.990235 2.115234l1.638672.302735c.422731.09855.854362.153239 1.279297.226562.420565.09401.851347.108606 1.287109.136719.432723.020477.859161.073965 1.294922.035156l1.3125-.058594 1.251953-.1875.3125-.044922c.0625-.012917.086309-.009063.175782-.03125l.15625-.037109.628906-.160156c.206484-.054689.418759-.098049.626953-.166016l.611328-.210937.607422-.212891.591797-.265625.589844-.263672c.192236-.099271.376503-.204117.568359-.308594l.568359-.308593c.185019-.105218.36042-.23975.542969-.353516.3594-.233438.720962-.467708 1.048828-.748047.340784-.265579.684022-.525077.990235-.833984.319887-.292876.642423-.583938.914062-.902344l.429688-.464844.105468-.121093.115235-.13086c.06535-.083925.133682-.169055.199218-.251953.252833-.342664.533231-.673892.75586-1.037109l.355469-.53711c.112262-.184696.216269-.376945.322265-.564453.227189-.374196.407242-.7558.587891-1.134765.188817-.367967.356095-.807104.496094-1.191407l.21875-.603515c.063825-.201527.117383-.411898.179687-.619141l.171875-.621094.128906-.623046c.093463-.405958.146898-.851432.203125-1.271485.0604-.429551.067041-.836619.103516-1.279297.0152-.417468-.002891-.856649-.009766-1.27539z" fill="#3f3f3f"/><path d="m34.798828 19.080078c-2.08601 1.060948-4.578966 1.878129-6.810547 2.525391-.001863.082578.000991.16067-.001953.24414v.019532c.000053.136675-.003937.26024-.007812.371093v.00586.003906c-.036455.800474-.115849 1.635429-.25 2.5.713069-.177905 1.515371-.388948 1.896484-.476562l.917969-.199219.908203-.246094c.600265-.155974 1.215737-.312456 1.808594-.521484.590957-.200937 1.196615-.366475 1.783203-.59961.48762-.194421.985933-.363211 1.470703-.554687-.982839-.780155-1.571995-1.894151-1.714844-3.072266z" fill="#4282de"/></g><path d="m33.200895 21.872062c-.607548-.908295-1.726388-1.275037-2.717719-.961853-.209792.06298-.417386.160047-.609433.290252-.794416.526789-1.171759 1.439011-1.051945 2.322175.04617.347109.16865.693747.377186 1.005517.732702 1.102739 2.224488 1.404613 3.328724.671758 1.102822-.732541 1.404162-2.22244.673187-3.327849" fill="#4282de"/><path d="m15.447266 10.017578c-.320987-.00275-.644725.021119-.96875.074219-3.168592.515945-5.3866921 3.601702-5.4746098 7.248047.0401271-.016444.0789518-.036458.1191407-.052735h.0019531l.0039062-.001953c.6498256-.259364 1.3038658-.498154 1.9765628-.71875.31611-2.31159 1.730596-4.15971 3.699219-4.482422.446627-.07295.892846-.0592 1.322265.023438.173849.032475.341676.07635.507813.130859.709738.233078 1.370186.654626 1.941406 1.234375.108562.10885.211982.220411.308594.341797.3049.357366.55853.781611.787109 1.228516.280581-.011117.561352-.037648.841797-.041016.455947-.005345.91586.016942 1.375.03125-.301358-.779566-.681229-1.507526-1.15625-2.134765-.112113-.148548-.225344-.288579-.339844-.423829-.498561-.57671-1.0645-1.069031-1.675781-1.453125-.162719-.106375-.333761-.204884-.503906-.294922-.862643-.447496-1.802667-.700678-2.765625-.708984z" fill="#3f3f3f" transform="matrix(.8 0 0 -.8 0 38.400264)"/><path d="m27 5a19 18.997154 0 0 0 -1.351562.0488281c-.057.0011338-.112864-.0055312-.169922-.0039062-1.119775.031975-2.254299.1593631-3.386719.3886719h-.001953c-1.13281.2304574-2.236288.5549218-3.294922.9707031-.11695.0459875-.231655.0975106-.34375.1542969-.946425-.3086751-1.92999-.5320569-2.96875-.5410157-.541025-.004625-1.092956.0364931-1.646484.1269531-4.8733226.7933888-7.9322497 5.0174068-8.5781255 9.6796878-.4020809.2057-.823619.363835-1.21875.585937-1.408011.791733-2.2015975 2.353068-2.0117187 3.957032.0026525.022336.0070406.047843.0097656.070312.1456743-1.253868.8696693-2.390654 2.0019531-3.027344.395131-.222102.8166691-.380237 1.21875-.585937.6458758-4.662281 3.7048029-8.886299 8.5781255-9.6796878.553528-.09046 1.105459-.1315781 1.646484-.1269531 1.03876.0089588 2.022325.2323406 2.96875.5410157.112095-.0567863.2268-.1083094.34375-.1542969 1.058634-.4157813 2.162112-.7402457 3.294922-.9707031h.001953c1.13242-.2293088 2.266944-.3566969 3.386719-.3886719.057058-.001625.112922.00504.169922.0039062a19 18.997154 0 0 1 1.351562-.0488281 19 18.997154 0 0 1 18.978516 18.589844 19 18.997154 0 0 0  .021484-.591797 19 18.997154 0 0 0 -19-18.998047z" fill="#fff" opacity=".2" transform="matrix(.8 0 0 -.8 0 38.400264)"/></g></svg>