<svg height="48" width="48" xmlns="http://www.w3.org/2000/svg"><path d="m40 42v-36c0-1.108-.892-2-2-2h-28c-1.108 0-2 .892-2 2v36c0 1.108.892 2 2 2h28c1.108 0 2-.892 2-2z" fill="#636e73"/><path d="m12 8c-1 0-1 1-1 1v32s0 1 1 1h24.062s.938 0 .938-1v-20l-12.234-13zm16.883 0 8.117 8.625v-7.625c0-1-1-1-1-1z" opacity=".1"/><path d="m10 4c-1.108 0-2 .892-2 2v1c0-1.108.892-2 2-2h28c1.108 0 2 .892 2 2v-1c0-1.108-.892-2-2-2z" fill="#fff" opacity=".1"/><path d="m12 7c-1 0-1 1-1 1v32s0 1 1 1h24.062s.938 0 .938-1v-20l-12.234-13zm16.883 0 8.117 8.625v-7.625c0-1-1-1-1-1z" fill="#f5f5f5"/><path d="m8 42v1c0 1.108.892 2 2 2h28c1.108 0 2-.892 2-2v-1c0 1.108-.892 2-2 2h-28c-1.108 0-2-.892-2-2z" opacity=".2"/><path d="m-25.463 41.422v-36c0-1.108-.892-2-2-2h-28c-1.108 0-2 .892-2 2v36c0 1.108.892 2 2 2h28c1.108 0 2-.892 2-2z" fill="#fff"/><path d="m-55.463 3.4221c-1.108 0-2 .892-2 2v1c0-1.108.892-2 2-2h28c1.108 0 2 .892 2 2v-1c0-1.108-.892-2-2-2z" fill="#fff" opacity=".1"/><g opacity=".5" transform="matrix(.74077 0 0 .75003 6.5923 11.499)"><path d="m15.07 1.36h-6.66l-2.64 9.01-1.96-4.77h-3.81v1.65h2.7l2.64 6.46h1.17l3.14-10.69h5.42z" transform="matrix(1.5923 0 0 1.6185 10 11.802)"/><text font-family="sans-serif" font-size="22.284" letter-spacing="0" transform="scale(1.0155 .9847)" word-spacing="0" x="23.98" xml:space="preserve" y="34.53">    <tspan x="23.98" y="34.53">x</tspan>   </text></g></svg>