<svg height="48" width="48" xmlns="http://www.w3.org/2000/svg"><path d="m11 12c-1.108 0-2 .892-2 2v22c0 1.108.892 2 2 2h3v-4h10v4h19c1.108 0 2-.892 2-2v-22c0-1.108-.892-2-2-2z" opacity=".2"/><path d="m11 11c-1.108 0-2 .892-2 2v22c0 1.108.892 2 2 2h3v-4h10v4h19c1.108 0 2-.892 2-2v-22c0-1.108-.892-2-2-2z" fill="#419d45"/><path d="m11 11c-1.108 0-2 .892-2 2v1c0-1.108.892-2 2-2h32c1.108 0 2 .892 2 2v-1c0-1.108-.892-2-2-2z" fill="#fff" opacity=".2"/><g opacity=".2"><path d="m25 34h4v6h-4z"/><path d="m30 34h4v6h-4z"/><path d="m35 34h4v6h-4z"/></g><g fill="#f8c44e"><path d="m25 33h4v6h-4z"/><path d="m30 33h4v6h-4z"/><path d="m35 33h4v6h-4z"/></g><path d="m40 34h4v6h-4z" opacity=".2"/><path d="m40 33h4v6h-4z" fill="#f8c44e"/><path d="m4 8h4v33" style="fill:none;stroke:#000;stroke-width:4;stroke-linecap:round;stroke-linejoin:round;opacity:.2"/><path d="m4 7h4v33" fill="none" stroke="#b7b7b7" stroke-linecap="round" stroke-linejoin="round" stroke-width="4"/><rect fill="#4e4e4e" height="10" rx="2" width="10" x="22" y="17"/><g fill="#b7b7b7"><path d="m24 15h2v3h-2z"/><path d="m28 15h2v3h-2z"/><path d="m24 26h2v3h-2z"/><path d="m28 26h2v3h-2z"/><g transform="rotate(90)"><path d="m19-34h2v3h-2z"/><path d="m23-34h2v3h-2z"/><path d="m19-23h2v3h-2z"/><path d="m23-23h2v3h-2z"/></g></g><path d="m4 5a2.0002 2.0002 0 0 0 -1.9668 2.4883 2.0002 2.0002 0 0 1 1.9668-1.5176h4a2.0002 2.0002 0 0 1 2 2v-.9707a2.0002 2.0002 0 0 0 -2-2z" fill="#fff" opacity=".2"/></svg>