<svg height="48" viewBox="0 0 48 48" width="48" xmlns="http://www.w3.org/2000/svg"><rect height="28" opacity=".2" rx="2" width="28" x="4" y="5"/><rect fill="#fecd38" height="28" rx="2" width="28" x="4" y="4"/><path d="m4 11v15h11.25c-3.885857-10.939291-7.771616-14.788923-11.25-15z" opacity=".2"/><rect height="28" opacity=".2" rx="2" width="28" x="10" y="11"/><path d="m4 10v15h11.25c-3.885857-10.939291-7.771616-14.788923-11.25-15z" fill="#9d9d9d"/><rect fill="#e97e10" height="28" rx="2" width="28" x="10" y="10"/><path d="m10 17v15h11.25c-3.885857-10.939291-7.771616-14.788923-11.25-15z" opacity=".2"/><rect height="28" opacity=".2" rx="2" width="28" x="16" y="17"/><path d="m10 16v15h11.25c-3.885857-10.939291-7.771616-14.788923-11.25-15z" fill="#7d7d7d"/><rect fill="#df574d" height="28" rx="2" width="28" x="16" y="16"/><g opacity=".2"><g transform="translate(0 1)"><path d="m16 22v15h11.25c-3.885857-10.939291-7.771616-14.788923-11.25-15z"/><path d="m16 22v1c3.478384.197005 7.364143 3.789995 11.25 14-3.885857-10.939291-7.771616-14.788923-11.25-15z" opacity=".1"/></g><path d="m20 38h24c-11.999998-33.75-24 0-24 0z"/></g><path d="m6 4c-1.108 0-2 .892-2 2v1c0-1.108.892-2 2-2h24c1.108 0 2 .892 2 2v-1c0-1.108-.892-2-2-2z" fill="#fff" opacity=".2"/><circle cx="24" cy="28" fill="#fecd38" r="4"/><path d="m24 24a4 4 0 0 0 -4 4 4 3 0 0 1 4-3 4 3 0 0 1 4 3 4 4 0 0 0 -4-4zm4 4a4 3 0 0 1 -4 3 4 3 0 0 1 -4-3 4 4 0 0 0 4 4 4 4 0 0 0 4-4z" fill="#fff" opacity=".2"/><path d="m16 22v15h11.25c-3.885857-10.939291-7.771616-14.788923-11.25-15z" fill="#5d5d5d"/><path d="m20 37h24c-11.999998-33.75-24 0-24 0z" fill="#e4e4e4"/><path d="m32.611328 22.001953c-7.194443-.238051-12.611328 14.998047-12.611328 14.998047s12.000002-31.5 24 0c-3.937499-11.074219-7.875107-14.881789-11.388672-14.998047z" fill="#fff" opacity=".2"/></svg>