<svg height="48" viewBox="0 0 48 48" width="48" xmlns="http://www.w3.org/2000/svg"><g transform="translate(0 -1004.3622)"><rect height="40" opacity=".2" rx="20" transform="matrix(0 -1 -1 0 0 0)" width="40" x="-1049.36" y="-44"/><rect fill="#484bb6" height="40" rx="20" transform="matrix(0 -1 -1 0 0 0)" width="40" x="-1048.36" y="-44"/><path d="m24.103516 1009.3622-2.316407.2637-2.859375.7851-.541015.5254 1.77539 1.2246v.6992l-1.16211.6993 1.396485 1.8379.617188-.3497.773437-1.2246c1.19387-.369 2.263684-.7878 3.398438-1.3125l.814452-2.3613zm-5.484375.1758-.998047.1426-.472656.4687-.775391.1133-.691406.3242-.335938.1621-.205078.2754 1.003906.1738.386719-.3496.773438-.1738c.529421-.2574 1.061298-.4317 1.623046-.6133zm-4.560547 2.0976-.154297.3496.07617.875-.617188.5254-.386719.961h.773438l.386719-.8731c.333277-.2356.664462-.4743 1.003906-.7011l.773437.2636c.51497.3498 1.029526.6996 1.544922 1.0489l.773438-.6993-.851563-.3496-.386718-.7871-1.46875-.1758-.07617-.4375-.695313.1758-.308594.6113zm19.792968.6993-1.464843.3515-.931641.6113v.5254l-1.464844.961.306641 1.4004.853516-.6133.539062.6133.617188.3496.386718-1.0489-.230468-.6132.230468-.4375.84961-1.0723h.386719l-.386719 1.1602v.7871c.355079-.097.720609-.1287 1.083984-.1739l-1.005859.6993-.07617.4375-1.158203.9609-1.16211-.2617v-.6992l-.541015.3496.234375.8112h-.851563l-.46289.5872-.582032.6543-1.041015.2207.617187.6094.15625.6113h-.773437l-.980472.5254v1.5762h.439456l.423828.4804.966797-.4804.384766-.9629.697265-.4375.154297-.3496 1.158203-.2598.619141.6973.695312.3496-.386718.7871.61914-.1758.308594-.7832-.773437-.875h.310547l.773437.6094.154297.875.693359.7871.154297-1.1387.388672-.1738c.382082.3965.682099.8662 1.003906 1.3125l1.158203.088.697266.4355-.310547.4375-.695312.6133h-1.003907l-1.314453-.4375-.695312.086-.5.5704-1.431641-1.4434-1.005859-.2617-1.46875.1738-1.314453.3496c-.737161.8355-1.364583 1.6675-2.062292 2.5352l-.849609 2.0136.386719.4356-.695313 1.0488.773438 1.8379c.657108.7431 1.212779 1.4849 1.868932 2.2285l.96875-.8301.423828.4825 1.041015-.6563.34961.3926h1.044922l.597656.6777-.369141 1.2032.736328.83-.03906 1.4434.541016 1.0508-.578128.873c-.03849.6434-.03907 1.2823-.03907 1.9258.316696.8718.480719 1.7411.779766 2.6191l.230469 1.4004v.7012h.841327l.851563-.5254h.732422c.273168-.1902.535917-.3943.798828-.5976l.978516-1.1075-.191407-.5683 1.00586-.877-.736328-.8281.890625-.7422.750005-.5273.386719-.4336-.232422-.9668v-2.4453l.794916-1.4883.84961-.961.927734-2.2734v-.6133c-.456968.058-.902613.1043-1.349609.1367l.923828-.9238 1.27539-.875.697266-.7851v-.875c-.154679-.2917-.309107-.5834-.464844-.875l-.61914.6992-.462891-.5235-.695312-.5253v-1.1368l.8125.918.888671-.1309c.404831.3675.803125.7185 1.158204 1.1368l.08789-.1c-.427434-4.6408-2.43498-8.8027-5.47265-11.9707-.167775-.1719-.344833-.357-.482422-.4922-.230943-.2248-.473222-.437-.714844-.6504l-.21875.3593-.773437.875-1.003906-1.248h1.003906l.464844-.3262-1.855469-.3496zm-21.845703.029c-.113126.085-.228606.1667-.339843.2539l.152343.6796s-.706767.078-1.115234.1309c-4.1041268 3.6542-6.6980233 8.9645-6.7031246 14.916.1609659.265.3203125.5176.3203125.5176l1.6230469.9609 1.625.4395.6933594.875 1.0820312.7851.6191406-.086.46289.209v.1406l-.6171868 1.6602-.4648438.7011.1542969.3497-.4980474 1.3105 1.5019531 2.5371.992453 1.2227.617188.873-.07617 1.8379.863016 1.0488-.25586 1.1094c.89177.6146 1.842605 1.146 2.832031 1.6113l.361329-.3593.230468-.6114 1.00586-.3515.927731-1.9239-.386716-.5234.539063-1.0876 1.160156-.2636.687497-1.098-.222653-1.7461 1.125528-1.3125.15625-1.3125c-1.268711-.629-2.727601-1.2763-3.986856-1.9238l-.619141-1.2246-1.158203-.2618-.617188-1.1598-1.544922.1738-1.314453-1.0999-1.392578.8613v.1934c-.420995-.1215-.9376566-.1368-1.3125014-.3672l-.3105468-.875v-.9629l-.9277344.088c.077394-.6124.1564513-1.2237.234375-1.8359h-.5410156l-.5410156.6992-.5410157.2617-.7734375-.4355-.078125-.9629.1542969-1.0489 1.1601563-.875h.9257812l.1542969-.5254 1.1601562.2618.7494214 1.0507.1562501-1.75 1.568937-1.2226.541016-1.3125 1.080078-.038.619141-.8711 1.390625-.2656.695312-1.0469h-2.085937l1.314453-.6132h.925781l1.314453-.8373.154297-.5234-.464843-.4375-.541016-.1758.15625-.5234-.386719-.7872-.927734.3477.154297-.6992-1.082032-.6113-.847656 1.4863.07617.5254-.851562.3496-.541016 1.1367-.230469-1.0488-1.46875-.6133-.232422-.7871 1.931641-1.1367.851562-.7871.07617-.961-.46289-.2637zm14.685747.9096-1.11934.3497-.506202-.088h-.002l-.07813.5253.74253.3497 1.425981-.6133-.462891-.5235zm-10.701372.3736-.617187.4375.771484.5253h.619141v-.6132zm12.208985 2.0117v.5254l.310547.3496v.7871l-.15625 1.0488.851562-.1738.617188-.6133-.541016-.5234c-.181682-.4837-.389795-.9365-.617188-1.4004zm-.306641 1.0488-.542969.1758.15625.9609.69336-.3476zm-10.664062 1.5762.230468 1.2207.462891-.6973zm20.177734 6.8183.890625 1.0059 1.042969 2.2285.617187.7012-.310547.7851.587891.6661c-.269928.018-.538857.037-.816406.037-.492109-1.0338-.861574-2.0689-1.236328-3.1504l-.857813-.7422-.347657-1.2695z" opacity=".3"/><path d="m24 1008.3622c-11.08 0-20 8.92-20 20 0 .1679.00765.3331.011719.5.2646714-10.8461 9.076155-19.5 19.988281-19.5s19.72361 8.6539 19.988281 19.5c.0041-.1669.01172-.3321.01172-.5 0-11.08-8.92-20-20-20z" fill="#fff" opacity=".1"/><g fill-rule="evenodd"><path d="m10.237953 1033.3657c-1.3712379-.049-2.4869636.414-3.2949204 1.1627-.8079569.7486-1.3155467 1.7616-1.5863749 2.8173-.4448329 1.7336-.4739086 4.2257-.8144749 6.0684-.1691585.915-.9382338 2.3393-2.3786363 4.1846-.3679007.6183-.0001352.6983-.0001352.6983.2064998.1472.5810823.012.7695433-.082 2.1230753-1.0774 3.4159355-1.8566 4.3525274-1.8998 1.8605052-.085 4.315941.225 6.082645.02 1.147668-.1329 2.285193-.5391 3.15609-1.3359.870897-.7969 1.445087-1.6896 1.464203-3.2471.0016-.1294.04778-.3449.05923-.6055.01147-.2607-.04557-.6476-.348002-.8962-.327867-.2696-.708604-.9461-1.082881-1.716s-.761013-1.6273-1.305012-2.2992l-.316533-.3913-.211023.1937c-.460432-.4002-.939487-.7677-1.356841-1.0526-.530829-.3621-.952004-.6889-1.186543-1.0769-.550575-.5742-1.295816-.4918-2.002867-.5431z" opacity=".2"/><path d="m41.211177 1011.8889c-1.236327.4833-2.70964 1.1952-4.155796 1.941-1.446156.7459-2.863349 1.5264-3.970042 2.1477-1.106693.6212-1.938682 1.0995-2.090647 1.178-.490655.2531-2.947603 1.6726-5.727423 3.4797-2.77982 1.8068-5.808808 3.9447-7.33183 5.6615-1.445582 1.6296-2.322482 2.6326-2.899223 3.7262-.576743 1.0937-.817896 2.2364-1.016186 4.0469l-.02003.1813.111088.1467c.998123 1.321 2.676937 3.526 4.30695 4.8407l.122014.097.156616.01c3.743658.1168 4.729355-.3597 8.45-2.693 1.957998-1.2279 4.554987-3.8497 6.78003-6.2761 2.225044-2.4263 4.008738-4.595 4.336087-5.0346.110118-.1478.687854-.869 1.449613-1.843.761757-.9742 1.724454-2.2247 2.664298-3.5087.939846-1.2841 1.855962-2.5998 2.531357-3.7225.337699-.5615.616193-1.0733.808578-1.5206.192385-.4472.32507-.8125.271346-1.2143-.08931-.6678-.427064-1.0623-.624642-1.2649l.0055-.01s-.03213-.023-.03278-.024c-.235395-.2835-.495931-.4651-.769078-.5994-1.190673-.5749-2.302691-.1184-3.3558.2541z" opacity=".2"/><path d="m10.237953 1032.3657c-1.3712379-.049-2.4869636.414-3.2949204 1.1627-.8079569.7486-1.3155467 1.7616-1.5863749 2.8173-.4448329 1.7336-.4739086 4.2257-.8144749 6.0684-.1691585.915-.9382338 2.3393-2.3786363 4.1846-.3679007.6183-.0001352.6983-.0001352.6983.2064998.1472.5810823.012.7695433-.082 2.1230753-1.0774 3.4159355-1.8566 4.3525274-1.8998 1.8605052-.085 4.315941.225 6.082645.02 1.147668-.1329 2.285193-.5391 3.15609-1.3359.870897-.7969 1.445087-1.6896 1.464203-3.2471.0016-.1294.04778-.3449.05923-.6055.01147-.2607-.04557-.6476-.348002-.8962-.327867-.2696-.708604-.9461-1.082881-1.716s-.761013-1.6273-1.305012-2.2992l-.316533-.3913-.211023.1937c-.460432-.4002-.939487-.7677-1.356841-1.0526-.530829-.3621-.952004-.6889-1.186543-1.0769-.550575-.5742-1.295816-.4918-2.002867-.5431z" fill="#9c7e40"/><path d="m10.238281 28.001953v.001953c-1.3712377-.049-2.4869648.41341-3.2949216 1.16211-.8079569.7486-1.3151093 1.762659-1.5859375 2.818359-.4448329 1.7336-.4738869 4.225659-.8144531 6.068359-.1691585.915-.9385038 2.338294-2.3789063 4.183594-.3679007.6183 0 .699219 0 .699219.0504497.035962.110432.053577.1757813.060547 1.3151797-1.723103 2.0417597-3.070514 2.203125-3.94336.3405662-1.8427.3696202-4.334759.8144531-6.068359.2708282-1.0557.7779806-2.069759 1.5859375-2.818359.8079568-.7487 1.9236839-1.21111 3.2949216-1.16211v-.001953c.707051.0513 1.451378-.029278 2.001953.544922.234539.388.656671.714072 1.1875 1.076172.417354.2849.89699.652534 1.357422 1.052734l.210938-.193359.316406.390625c.543999.6719.930411 1.528928 1.304688 2.298828.374276.7699.754164 1.447197 1.082031 1.716797.153863.126476.244796.287933.294922.451172.007814-.131516.042246-.315984.052734-.554688.01147-.2607-.045224-.647884-.347656-.896484-.327867-.2696-.707755-.946897-1.082031-1.716797-.374277-.7699-.760689-1.626928-1.304688-2.298828l-.316406-.390625-.210938.193359c-.460432-.4002-.940068-.767834-1.357422-1.052734-.530829-.3621-.952961-.688172-1.1875-1.076172-.550575-.5742-1.294902-.493622-2.001953-.544922z" fill="#fff" opacity=".1" transform="translate(0 1004.3622)"/><path d="m41.211177 1010.8889c-1.236327.4833-2.70964 1.1952-4.155796 1.941-1.446156.7459-2.863349 1.5264-3.970042 2.1477-1.106693.6212-1.938682 1.0995-2.090647 1.178-.490655.2531-2.947603 1.6726-5.727423 3.4797-2.77982 1.8068-5.808808 3.9447-7.33183 5.6615-1.445582 1.6296-2.322482 2.6326-2.899223 3.7262-.576743 1.0937-.817896 2.2364-1.016186 4.0469l-.02003.1813.111088.1467c.998123 1.321 2.676937 3.526 4.30695 4.8407l.122014.097.156616.01c3.743658.1168 4.729355-.3597 8.45-2.693 1.957998-1.2279 4.554987-3.8497 6.78003-6.2761 2.225044-2.4263 4.008738-4.595 4.336087-5.0346.110118-.1478.687854-.869 1.449613-1.843.761757-.9742 1.724454-2.2247 2.664298-3.5087.939846-1.2841 1.855962-2.5998 2.531357-3.7225.337699-.5615.616193-1.0733.808578-1.5206.192385-.4472.32507-.8125.271346-1.2143-.08931-.6678-.427064-1.0623-.624642-1.2649l.0055-.01s-.03213-.023-.03278-.024c-.235395-.2835-.495931-.4651-.769078-.5994-1.190673-.5749-2.302691-.1184-3.3558.2541z" fill="#449b29"/><path d="m43.259766 6.0019531c-.709037.0261231-1.390635.2925782-2.048828.5253907-1.236328.4832999-2.710094 1.1936531-4.15625 1.9394531-1.446157.7459-2.862057 1.5271375-3.96875 2.1484371-1.106693.6212-1.939832 1.099235-2.091797 1.177735-.490655.2531-2.946743 1.673369-5.726563 3.480469-2.77982 1.806799-5.809009 3.945309-7.332031 5.662109-1.445582 1.6296-2.321697 2.631009-2.898438 3.724609-.576743 1.0937-.819288 2.236375-1.017578 4.046875l-.019531.181641.107422.142578c.186074-1.417226.431381-2.426135.929687-3.371094.576741-1.0936 1.452856-2.095009 2.898438-3.724609 1.523022-1.7168 4.552211-3.85531 7.332031-5.662109 2.77982-1.8071 5.235908-3.227369 5.726563-3.480469.151965-.0785.985104-.556535 2.091797-1.177735 1.106693-.6213 2.522593-1.402537 3.96875-2.1484371 1.446156-.7458 2.919922-1.4561532 4.15625-1.9394531 1.053108-.3725 2.164795-.8307594 3.355468-.2558594.273147.1343.534137.3161093.769532.5996094.00065.0009999.033203.0253906.033203.0253906l-.00586.0097656c.162513.166643.412902.4717623.548828.9433594.067528-.228089.106901-.4498715.076172-.6796875-.08931-.6678-.427422-1.0610719-.625-1.2636719l.00586-.0097656s-.032553-.0243907-.033203-.0253906c-.235395-.2835001-.496385-.4653094-.769532-.5996094-.446502-.2155875-.881218-.2852051-1.30664-.2695313z" fill="#fff" opacity=".1" transform="translate(0 1004.3622)"/></g><rect height="3.83" opacity=".2" rx="1.915" transform="matrix(.59329155 .80498766 -.80498766 .59329155 0 0)" width="11.49" x="838.12" y="599.92"/><rect fill="#ffc612" height="3.83" rx="1.915" transform="matrix(.59329155 .80498766 -.80498766 .59329155 0 0)" width="11.49" x="837.31" y="599.33"/><path d="m13.837891 26.001953c-.368233.015383-.736373.137003-1.056641.373047-.658738.485502-.912217 1.306568-.707031 2.048828.10831-.404877.341893-.779714.707031-1.048828.854048-.62945 2.048285-.447798 2.677734.40625l4.544922 6.166016c.144332.195832.240001.41016.300782.630859.145432-.542397.05979-1.14163-.300782-1.630859l-4.544922-6.166016c-.393406-.53378-1.007372-.804936-1.621093-.779297z" fill="#fff" opacity=".2" transform="translate(0 1004.3622)"/></g></svg>