<svg height="48" width="48" xmlns="http://www.w3.org/2000/svg"><rect fill="#94c3e4" height="40" rx="2" transform="matrix(0 -1 -1 0 0 0)" width="40" x="-44" y="-44"/><path d="m6 4c-1.108 0-2 .892-2 2v30.02c.4289.329.8688.65 1.3262.955 3.8461 2.56 8.4428 4.249 13.045 4.181 4.604-.067 9.214-1.977 12.867-6.541 1.942-2.426 2.233-5.334 1.608-7.863-.625-2.53-2.113-4.729-3.897-5.754h-.035c-1.455-.674-2.91-.465-3.967.107-1.056.573-1.772 1.454-2.002 2.323l-.215.715c-.164-.009-.34-.043-.5-.071-.815-.144-1.418-.483-1.607-1.109-.242-1.922.258-3.497 1.25-4.682 1.006-1.201 2.533-2.015 4.361-2.215 3.103-.338 5.846 1.032 7.934 3.252 2.088 2.221 3.465 5.308 3.717 8.256.537 6.28-3.037 12.623-8.106 16.426h12.221c1.108 0 2-.892 2-2v-29.984c-.429-.329-.869-.649-1.326-.954-3.846-2.5597-8.443-4.2488-13.045-4.1811-4.604.0676-9.214 1.9755-12.867 6.5391-1.942 2.426-2.233 5.334-1.608 7.863.625 2.53 2.113 4.694 3.897 5.719l.035.035c1.455.674 2.91.467 3.967-.105 1.056-.573 1.772-1.455 2.002-2.325l.215-.75c.171.002.331.013.5.036.408.053.795.151 1.072.322.253.155.436.341.535.607.004.009-.004.026 0 .035.511 3.893-1.983 6.68-5.611 7.077-3.103.338-5.846-.997-7.934-3.217-2.088-2.221-3.465-5.307-3.717-8.256-.5386-6.299 3.04-12.662 8.123-16.461h-12.238z" fill="#e55f0a" fill-rule="evenodd"/><path d="m6 4c-1.108 0-2 .892-2 2v1c0-1.108.892-2 2-2h36c1.108 0 2 .892 2 2v-1c0-1.108-.892-2-2-2z" fill="#fff" opacity=".2"/><path d="m6 45c-1.108 0-2-.892-2-2v-1c0 1.108.892 2 2 2h36c1.108 0 2-.892 2-2v1c0 1.108-.892 2-2 2z" opacity=".2"/></svg>