<svg height="48" width="48" xmlns="http://www.w3.org/2000/svg"><rect fill="#e97d10" height="39.996" rx="20" ry="19.998" transform="matrix(0 -1 -1 0 0 0)" width="40" x="-44" y="-44"/><rect height="31.997" opacity=".2" rx="16" ry="15.999" transform="matrix(0 -1 -1 0 0 0)" width="32" x="-41" y="-40"/><path d="m23.996 8c-4.4316 0-8.4197 1.7955-11.311 4.6875-2.8897 2.89-4.6896 6.88-4.6896 11.31 0 8.864 7.1354 16 15.999 16v-16l11.311-11.312c-2.8897-2.89-6.8794-4.69-11.309-4.69z" fill="#ebebeb"/><path d="m35.305 12.69-11.309 11.31v16c8.8632 0 15.999-7.136 15.999-16 0-4.432-1.7953-8.4205-4.6871-11.312z" fill="#c4c4c4"/><path d="m34.995 12.28-11.72 11.001 1.437 1.437 11-11.72z" fill="#5e5e5e"/><path d="m23.996 24v16" fill="none" stroke="#f34235"/><path d="m16.366 15.63-.71869.71875 7.6342 8.3651 1.4374-1.4375z" fill="#3f3f3f"/><ellipse cx="23.996" cy="24" fill="#3f3f3f" rx="1" ry="1"/><path d="m24 4c-11.079 0-19.998 8.92-19.998 20 0 .16772-.004.33329 0 .5.2642-10.846 9.087-19.5 19.998-19.5s19.734 8.6536 19.998 19.5c.004-.16671 0-.33228 0-.5 0-11.08-8.919-20-19.998-20z" fill="#fff" opacity=".2"/><path d="m4.0117 24.5c-.0041.167-.0117.332-.0117.5 0 11.08 8.92 20 20 20s20-8.92 20-20c0-.168-.008-.333-.012-.5-.264 10.846-9.076 19.5-19.988 19.5s-19.724-8.654-19.988-19.5z" opacity=".2"/></svg>