<svg height="48" width="48" xmlns="http://www.w3.org/2000/svg"><path d="m5.5345836 27c-.1634865-.000433-3.2685518-.000942-.1536258 2.783203l16.5632862 14.400391c.615085.534797 1.249599.80623 2.055756.816406.806157-.01018 1.440671-.281609 2.055756-.816406l16.563286-14.400391c3.114926-2.784145.009861-2.783636-.153626-2.783203h-18.465416z" fill-rule="evenodd" opacity=".2"/><path d="m13 4c-.831 0-2 .892-2 2v21h13 13v-21c0-1.108-1.169-2-2-2z" fill="#ff961b"/><path d="m5.5345836 26c-.1634865-.000433-3.2685518-.000942-.1536258 2.783203l16.5632862 14.400391c.615085.534797 1.249599.80623 2.055756.816406.806157-.01018 1.440671-.281609 2.055756-.816406l16.563286-14.400391c3.114926-2.784145.009861-2.783636-.153626-2.783203h-18.465416z" fill="#ffe330" fill-rule="evenodd"/><path d="m13 4c-.831 0-2 .892-2 2v1c0-1.108 1.169-2 2-2h22c .831 0 2 .892 2 2v-1c0-1.108-1.169-2-2-2z" fill="#fff" opacity=".1"/><path d="m5.5351562 26c-.1299387-.000344-2.1089281.004636-1.3554687 1.402344.3837086-.398853 1.2699117-.402571 1.3554687-.402344h18.4648438 18.464844c.085557-.000227.97176.003491 1.355468.402344.75346-1.397708-1.225529-1.402688-1.355468-1.402344h-18.464844z" fill="#fff" fill-rule="evenodd" opacity=".2"/></svg>