<svg height="32" width="32" xmlns="http://www.w3.org/2000/svg"><path d="m21.186981 2h-13.65097c-3.066406 0-5.536011 2.467667-5.536011 5.534072v16.929917c0 3.066406 2.469605 5.536011 5.536011 5.536011h16.929917c3.066406 0 5.534072-2.469605 5.534072-5.536011v-13.65097z" fill="#e74c3c" fill-rule="evenodd"/><path d="m30 10.813019-8.813019-8.813019v3.278948c0 3.0664053 2.467666 5.534071 5.534072 5.534071z" fill="#be3f31" fill-rule="evenodd"/><path d="m21.584746 13.157224c-2.726349.0491-3.102637 2.472057-3.102637 2.472057h1.861582v2.492037h-3.102636c-1.918671 6.086132-6.825801 6.195345-6.825801 6.195345v-2.472181s2.915858.399061 4.343691-4.964218c1.786374-6.709389 6.825801-6.205273 6.825801-6.205273z" fill="#fbb388" stroke-width="1.241055"/></svg>