<svg height="32" width="32" xmlns="http://www.w3.org/2000/svg"><rect fill="#8e8e8e" fill-rule="evenodd" height="28.203388" ry="5.575182" width="28.203388" x="1.898306" y="1.898306"/><path d="m16 9.989104a6.0108959 6.0108959 0 0 0 -6.010896 6.010896 6.0108959 6.0108959 0 0 0 6.010896 6.010896 6.0108959 6.0108959 0 0 0 6.010896-6.010896 6.0108959 6.0108959 0 0 0 -6.010896-6.010896zm0 3.606538c1.327927 0 2.404358 1.076431 2.404358 2.404358s-1.076431 2.404358-2.404358 2.404358-2.404358-1.076431-2.404358-2.404358 1.076431-2.404358 2.404358-2.404358z" fill="#848484" stroke-width=".801453"/><path d="m16 4.779661c-6.216068 0-11.220339 5.0042712-11.220339 11.220339 0 6.216068 5.004271 11.220339 11.220339 11.220339s11.220339-5.004271 11.220339-11.220339c0-6.2160678-5.004271-11.220339-11.220339-11.220339zm0 6.411622a4.8087167 4.8087167 0 0 1 4.808717 4.808717 4.8087167 4.8087167 0 0 1 -4.808717 4.808717 4.8087167 4.8087167 0 0 1 -4.808717-4.808717 4.8087167 4.8087167 0 0 1 4.808717-4.808717z" fill="#e6e6e6" stroke-width=".801453"/></svg>