<svg height="24" viewBox="0 0 24 24" width="24" xmlns="http://www.w3.org/2000/svg"><circle cx="12" cy="12" fill="#252a35" r="10"/><path d="m10.5 5v1.709961a5.5000005 5.5000005 0 0 0 -1.175781.4921875l-1.212891-1.2128905-2.12207 2.12207 1.209961 1.209961a5.5000005 5.5000005 0 0 0 -.485352 1.178711h-1.713867v3h1.709961a5.5000005 5.5000005 0 0 0  .4921875 1.175781l-1.2128905 1.212891 2.12207 2.12207 1.209961-1.209961a5.5000005 5.5000005 0 0 0 1.178711.485352v1.713867h3v-1.709961a5.5000005 5.5000005 0 0 0 1.175781-.492188l1.212891 1.212891 2.12207-2.12207-1.209961-1.209961a5.5000005 5.5000005 0 0 0  .485352-1.178711h1.713867v-3h-1.709961a5.5000005 5.5000005 0 0 0 -.492188-1.175781l1.212891-1.212891-2.12207-2.12207-1.209961 1.209961a5.5000005 5.5000005 0 0 0 -1.178711-.485352v-1.713867zm1.5 4.5a2.5 2.5 0 0 1 2.5 2.5 2.5 2.5 0 0 1 -2.5 2.5 2.5 2.5 0 0 1 -2.5-2.5 2.5 2.5 0 0 1 2.5-2.5z" fill="#fff"/></svg>